<?xml version="1.0" encoding="UTF-8" standalone="no"?>
<!DOCTYPE svg PUBLIC "-//W3C//DTD SVG 1.1//EN"
 "http://www.w3.org/Graphics/SVG/1.1/DTD/svg11.dtd">
<!-- Generated by graphviz version 2.43.0 (0)
 -->
<!-- Title: itk::ObjectToObjectMultiMetricv4&lt; TFixedDimension, TMovingDimension, TVirtualImage, TInternalComputationValueType &gt; Pages: 1 -->
<svg width="3553pt" height="397pt"
 viewBox="0.00 0.00 3553.00 397.00" xmlns="http://www.w3.org/2000/svg" xmlns:xlink="http://www.w3.org/1999/xlink">
<g id="graph0" class="graph" transform="scale(1 1) rotate(0) translate(4 393)">
<title>itk::ObjectToObjectMultiMetricv4&lt; TFixedDimension, TMovingDimension, TVirtualImage, TInternalComputationValueType &gt;</title>
<polygon fill="white" stroke="transparent" points="-4,4 -4,-393 3549,-393 3549,4 -4,4"/>
<!-- Node1 -->
<g id="node1" class="node">
<title>Node1</title>
<g id="a_node1"><a xlink:title="This class takes one ore more ObjectToObject metrics and assigns weights to their derivatives to comp...">
<polygon fill="#bfbfbf" stroke="black" points="3353,-117 3353,-169 3545,-169 3545,-117 3353,-117"/>
<text text-anchor="start" x="3361" y="-157" font-family="Helvetica,sans-Serif" font-size="10.00">itk::ObjectToObjectMulti</text>
<text text-anchor="start" x="3361" y="-146" font-family="Helvetica,sans-Serif" font-size="10.00">Metricv4&lt; TFixedDimension,</text>
<text text-anchor="start" x="3361" y="-135" font-family="Helvetica,sans-Serif" font-size="10.00"> TMovingDimension, TVirtualImage,</text>
<text text-anchor="middle" x="3449" y="-124" font-family="Helvetica,sans-Serif" font-size="10.00"> TInternalComputationValueType &gt;</text>
</a>
</g>
</g>
<!-- Node2 -->
<g id="node2" class="node">
<title>Node2</title>
<g id="a_node2"><a xlink:href="classitk_1_1ObjectToObjectMetric.html" target="_top" xlink:title=" ">
<polygon fill="white" stroke="black" points="2999,-140 2999,-192 3214,-192 3214,-140 2999,-140"/>
<text text-anchor="start" x="3007" y="-180" font-family="Helvetica,sans-Serif" font-size="10.00">itk::ObjectToObjectMetric</text>
<text text-anchor="start" x="3007" y="-169" font-family="Helvetica,sans-Serif" font-size="10.00">&lt; TFixedDimension, TMovingDimension,</text>
<text text-anchor="start" x="3007" y="-158" font-family="Helvetica,sans-Serif" font-size="10.00"> Image&lt; double, TFixedDimension</text>
<text text-anchor="middle" x="3106.5" y="-147" font-family="Helvetica,sans-Serif" font-size="10.00"> &gt;, double &gt;</text>
</a>
</g>
</g>
<!-- Node2&#45;&gt;Node1 -->
<g id="edge1" class="edge">
<title>Node2&#45;&gt;Node1</title>
<path fill="none" stroke="midnightblue" d="M3224.29,-158.11C3266.21,-155.28 3312.95,-152.12 3352.82,-149.43"/>
<polygon fill="midnightblue" stroke="midnightblue" points="3224.04,-154.62 3214.3,-158.79 3224.52,-161.6 3224.04,-154.62"/>
</g>
<!-- Node3 -->
<g id="node3" class="node">
<title>Node3</title>
<g id="a_node3"><a xlink:href="classitk_1_1ObjectToObjectMetricBaseTemplate.html" target="_top" xlink:title=" ">
<polygon fill="white" stroke="black" points="2433,-219 2433,-249 2574,-249 2574,-219 2433,-219"/>
<text text-anchor="start" x="2441" y="-237" font-family="Helvetica,sans-Serif" font-size="10.00">itk::ObjectToObjectMetric</text>
<text text-anchor="middle" x="2503.5" y="-226" font-family="Helvetica,sans-Serif" font-size="10.00">BaseTemplate&lt; double &gt;</text>
</a>
</g>
</g>
<!-- Node3&#45;&gt;Node2 -->
<g id="edge2" class="edge">
<title>Node3&#45;&gt;Node2</title>
<path fill="none" stroke="midnightblue" d="M2584.33,-240.76C2679.91,-246.77 2844.22,-250.49 2981,-220 3007.22,-214.16 3034.77,-202.81 3057.28,-192.02"/>
<polygon fill="midnightblue" stroke="midnightblue" points="2584.37,-237.25 2574.16,-240.09 2583.91,-244.24 2584.37,-237.25"/>
</g>
<!-- Node23 -->
<g id="node23" class="node">
<title>Node23</title>
<g id="a_node23"><a xlink:href="classitk_1_1ObjectToObjectMetric.html" target="_top" xlink:title="Computes similarity between regions of two objects.">
<polygon fill="white" stroke="black" points="2611,-163.5 2611,-204.5 2828,-204.5 2828,-163.5 2611,-163.5"/>
<text text-anchor="start" x="2619" y="-192.5" font-family="Helvetica,sans-Serif" font-size="10.00">itk::ObjectToObjectMetric</text>
<text text-anchor="start" x="2619" y="-181.5" font-family="Helvetica,sans-Serif" font-size="10.00">&lt; TFixedDimension, TMovingDimension,</text>
<text text-anchor="middle" x="2719.5" y="-170.5" font-family="Helvetica,sans-Serif" font-size="10.00"> TVirtualImage, TParametersValueType &gt;</text>
</a>
</g>
</g>
<!-- Node3&#45;&gt;Node23 -->
<g id="edge31" class="edge">
<title>Node3&#45;&gt;Node23</title>
<path fill="none" stroke="midnightblue" d="M2578.45,-216.72C2595.26,-212.8 2613.27,-208.59 2630.59,-204.54"/>
<polygon fill="midnightblue" stroke="midnightblue" points="2577.65,-213.31 2568.71,-219 2579.24,-220.13 2577.65,-213.31"/>
</g>
<!-- Node4 -->
<g id="node4" class="node">
<title>Node4</title>
<g id="a_node4"><a xlink:href="classitk_1_1SingleValuedCostFunctionv4Template.html" target="_top" xlink:title=" ">
<polygon fill="white" stroke="black" points="1796,-302 1796,-332 1969,-332 1969,-302 1796,-302"/>
<text text-anchor="start" x="1804" y="-320" font-family="Helvetica,sans-Serif" font-size="10.00">itk::SingleValuedCostFunctionv4</text>
<text text-anchor="middle" x="1882.5" y="-309" font-family="Helvetica,sans-Serif" font-size="10.00">Template&lt; double &gt;</text>
</a>
</g>
</g>
<!-- Node4&#45;&gt;Node3 -->
<g id="edge3" class="edge">
<title>Node4&#45;&gt;Node3</title>
<path fill="none" stroke="midnightblue" d="M1979.3,-321.42C2087.65,-323.58 2268.11,-318.52 2415,-272 2434.42,-265.85 2455.38,-256.84 2471.91,-249.13"/>
<polygon fill="midnightblue" stroke="midnightblue" points="1979.12,-317.92 1969.04,-321.19 1978.96,-324.91 1979.12,-317.92"/>
</g>
<!-- Node22 -->
<g id="node22" class="node">
<title>Node22</title>
<g id="a_node22"><a xlink:href="classitk_1_1ObjectToObjectMetricBaseTemplate.html" target="_top" xlink:title="Base class for all object&#45;to&#45;object similarity metrics added in ITKv4.">
<polygon fill="white" stroke="black" points="2091,-212.5 2091,-253.5 2294,-253.5 2294,-212.5 2091,-212.5"/>
<text text-anchor="start" x="2099" y="-241.5" font-family="Helvetica,sans-Serif" font-size="10.00">itk::ObjectToObjectMetric</text>
<text text-anchor="start" x="2099" y="-230.5" font-family="Helvetica,sans-Serif" font-size="10.00">BaseTemplate&lt; TInternalComputation</text>
<text text-anchor="middle" x="2192.5" y="-219.5" font-family="Helvetica,sans-Serif" font-size="10.00">ValueType &gt;</text>
</a>
</g>
</g>
<!-- Node4&#45;&gt;Node22 -->
<g id="edge27" class="edge">
<title>Node4&#45;&gt;Node22</title>
<path fill="none" stroke="midnightblue" d="M1948.42,-299.3C1997.4,-285.94 2064.71,-267.58 2116.09,-253.57"/>
<polygon fill="midnightblue" stroke="midnightblue" points="1947.29,-295.97 1938.56,-301.98 1949.13,-302.73 1947.29,-295.97"/>
</g>
<!-- Node5 -->
<g id="node5" class="node">
<title>Node5</title>
<g id="a_node5"><a xlink:href="classitk_1_1CostFunctionTemplate.html" target="_top" xlink:title=" ">
<polygon fill="white" stroke="black" points="1509.5,-257 1509.5,-287 1652.5,-287 1652.5,-257 1509.5,-257"/>
<text text-anchor="start" x="1517.5" y="-275" font-family="Helvetica,sans-Serif" font-size="10.00">itk::CostFunctionTemplate</text>
<text text-anchor="middle" x="1581" y="-264" font-family="Helvetica,sans-Serif" font-size="10.00">&lt; double &gt;</text>
</a>
</g>
</g>
<!-- Node5&#45;&gt;Node4 -->
<g id="edge4" class="edge">
<title>Node5&#45;&gt;Node4</title>
<path fill="none" stroke="midnightblue" d="M1662.6,-284.11C1703.82,-290.3 1753.99,-297.84 1795.89,-304.14"/>
<polygon fill="midnightblue" stroke="midnightblue" points="1663.01,-280.63 1652.6,-282.61 1661.97,-287.55 1663.01,-280.63"/>
</g>
<!-- Node6 -->
<g id="node6" class="node">
<title>Node6</title>
<g id="a_node6"><a xlink:href="classitk_1_1Object.html" target="_top" xlink:title="Base class for most ITK classes.">
<polygon fill="white" stroke="black" points="1067,-264.5 1067,-283.5 1134,-283.5 1134,-264.5 1067,-264.5"/>
<text text-anchor="middle" x="1100.5" y="-271.5" font-family="Helvetica,sans-Serif" font-size="10.00">itk::Object</text>
</a>
</g>
</g>
<!-- Node6&#45;&gt;Node5 -->
<g id="edge5" class="edge">
<title>Node6&#45;&gt;Node5</title>
<path fill="none" stroke="midnightblue" d="M1144.02,-273.82C1226.41,-273.48 1408.54,-272.72 1509.37,-272.3"/>
<polygon fill="midnightblue" stroke="midnightblue" points="1144,-270.32 1134.01,-273.86 1144.03,-277.32 1144,-270.32"/>
</g>
<!-- Node19 -->
<g id="node19" class="node">
<title>Node19</title>
<g id="a_node19"><a xlink:href="classitk_1_1CostFunctionTemplate.html" target="_top" xlink:title=" ">
<polygon fill="white" stroke="black" points="1171,-291 1171,-321 1366,-321 1366,-291 1171,-291"/>
<text text-anchor="start" x="1179" y="-309" font-family="Helvetica,sans-Serif" font-size="10.00">itk::CostFunctionTemplate</text>
<text text-anchor="middle" x="1268.5" y="-298" font-family="Helvetica,sans-Serif" font-size="10.00">&lt; TInternalComputationValueType &gt;</text>
</a>
</g>
</g>
<!-- Node6&#45;&gt;Node19 -->
<g id="edge22" class="edge">
<title>Node6&#45;&gt;Node19</title>
<path fill="none" stroke="midnightblue" d="M1144.42,-282.27C1158.2,-284.93 1173.92,-287.96 1189.41,-290.95"/>
<polygon fill="midnightblue" stroke="midnightblue" points="1144.78,-278.78 1134.3,-280.32 1143.45,-285.65 1144.78,-278.78"/>
</g>
<!-- Node7 -->
<g id="node7" class="node">
<title>Node7</title>
<g id="a_node7"><a xlink:href="classitk_1_1LightObject.html" target="_top" xlink:title="Light weight base class for most itk classes.">
<polygon fill="white" stroke="black" points="739.5,-183.5 739.5,-202.5 830.5,-202.5 830.5,-183.5 739.5,-183.5"/>
<text text-anchor="middle" x="785" y="-190.5" font-family="Helvetica,sans-Serif" font-size="10.00">itk::LightObject</text>
</a>
</g>
</g>
<!-- Node7&#45;&gt;Node6 -->
<g id="edge6" class="edge">
<title>Node7&#45;&gt;Node6</title>
<path fill="none" stroke="midnightblue" d="M841.02,-189.74C896.27,-188.7 982.52,-193.24 1049,-225 1067.74,-233.95 1083.86,-252.62 1092.58,-264.16"/>
<polygon fill="midnightblue" stroke="midnightblue" points="840.64,-186.25 830.73,-190.01 840.82,-193.25 840.64,-186.25"/>
</g>
<!-- Node8 -->
<g id="node8" class="node">
<title>Node8</title>
<g id="a_node8"><a xlink:title=" ">
<polygon fill="white" stroke="#bfbfbf" points="457,-185.5 457,-204.5 564,-204.5 564,-185.5 457,-185.5"/>
<text text-anchor="middle" x="510.5" y="-192.5" font-family="Helvetica,sans-Serif" font-size="10.00">std::atomic&lt; int &gt;</text>
</a>
</g>
</g>
<!-- Node8&#45;&gt;Node7 -->
<g id="edge7" class="edge">
<title>Node8&#45;&gt;Node7</title>
<path fill="none" stroke="#9a32cd" stroke-dasharray="5,2" d="M574.18,-194.54C624.64,-194.17 694.33,-193.66 739.29,-193.33"/>
<polygon fill="#9a32cd" stroke="#9a32cd" points="574.01,-191.04 564.04,-194.61 574.07,-198.04 574.01,-191.04"/>
<text text-anchor="middle" x="651.5" y="-197" font-family="Helvetica,sans-Serif" font-size="10.00"> m_ReferenceCount</text>
</g>
<!-- Node9 -->
<g id="node9" class="node">
<title>Node9</title>
<g id="a_node9"><a xlink:title="STL class.">
<polygon fill="white" stroke="#bfbfbf" points="123,-223.5 123,-242.5 223,-242.5 223,-223.5 123,-223.5"/>
<text text-anchor="middle" x="173" y="-230.5" font-family="Helvetica,sans-Serif" font-size="10.00">std::atomic&lt; T &gt;</text>
</a>
</g>
</g>
<!-- Node9&#45;&gt;Node8 -->
<g id="edge8" class="edge">
<title>Node9&#45;&gt;Node8</title>
<path fill="none" stroke="orange" stroke-dasharray="5,2" d="M200.05,-218.67C214.34,-211.59 232.64,-203.78 250,-200 320.23,-184.7 403.68,-186.53 456.61,-190.08"/>
<polygon fill="orange" stroke="orange" points="198.16,-215.71 190.86,-223.39 201.35,-221.93 198.16,-215.71"/>
<text text-anchor="middle" x="334" y="-203" font-family="Helvetica,sans-Serif" font-size="10.00"> &lt; int &gt;</text>
</g>
<!-- Node18 -->
<g id="node18" class="node">
<title>Node18</title>
<g id="a_node18"><a xlink:href="classitk_1_1TimeStamp.html" target="_top" xlink:title="Generate a unique, increasing time value.">
<polygon fill="white" stroke="black" points="605.5,-226.5 605.5,-245.5 697.5,-245.5 697.5,-226.5 605.5,-226.5"/>
<text text-anchor="middle" x="651.5" y="-233.5" font-family="Helvetica,sans-Serif" font-size="10.00">itk::TimeStamp</text>
</a>
</g>
</g>
<!-- Node9&#45;&gt;Node18 -->
<g id="edge20" class="edge">
<title>Node9&#45;&gt;Node18</title>
<path fill="none" stroke="#9a32cd" stroke-dasharray="5,2" d="M233.38,-233.37C329.96,-233.98 518.98,-235.17 605.42,-235.72"/>
<polygon fill="#9a32cd" stroke="#9a32cd" points="233.22,-229.87 223.2,-233.31 233.18,-236.87 233.22,-229.87"/>
<text text-anchor="middle" x="334" y="-237" font-family="Helvetica,sans-Serif" font-size="10.00"> m_GlobalTimeStamp</text>
</g>
<!-- Node10 -->
<g id="node10" class="node">
<title>Node10</title>
<g id="a_node10"><a xlink:title=" ">
<polygon fill="white" stroke="#bfbfbf" points="0,-303.5 0,-322.5 29,-322.5 29,-303.5 0,-303.5"/>
<text text-anchor="middle" x="14.5" y="-310.5" font-family="Helvetica,sans-Serif" font-size="10.00">T</text>
</a>
</g>
</g>
<!-- Node10&#45;&gt;Node9 -->
<g id="edge9" class="edge">
<title>Node10&#45;&gt;Node9</title>
<path fill="none" stroke="#9a32cd" stroke-dasharray="5,2" d="M28.96,-295.39C34.1,-289.56 40.34,-283.44 47,-279 72.97,-261.68 106.31,-249.84 132.03,-242.51"/>
<polygon fill="#9a32cd" stroke="#9a32cd" points="25.95,-293.54 22.3,-303.48 31.36,-297.99 25.95,-293.54"/>
<text text-anchor="middle" x="71.5" y="-282" font-family="Helvetica,sans-Serif" font-size="10.00"> ptr</text>
</g>
<!-- Node15 -->
<g id="node15" class="node">
<title>Node15</title>
<g id="a_node15"><a xlink:title="STL class.">
<polygon fill="white" stroke="#bfbfbf" points="122.5,-282.5 122.5,-301.5 223.5,-301.5 223.5,-282.5 122.5,-282.5"/>
<text text-anchor="middle" x="173" y="-289.5" font-family="Helvetica,sans-Serif" font-size="10.00">std::map&lt; K, T &gt;</text>
</a>
</g>
</g>
<!-- Node10&#45;&gt;Node15 -->
<g id="edge16" class="edge">
<title>Node10&#45;&gt;Node15</title>
<path fill="none" stroke="#9a32cd" stroke-dasharray="5,2" d="M38.66,-303.31C41.43,-302.41 44.26,-301.61 47,-301 71.43,-295.59 99.14,-293.22 122.24,-292.26"/>
<polygon fill="#9a32cd" stroke="#9a32cd" points="37.21,-300.11 29.03,-306.85 39.63,-306.68 37.21,-300.11"/>
<text text-anchor="middle" x="71.5" y="-304" font-family="Helvetica,sans-Serif" font-size="10.00"> elements</text>
</g>
<!-- Node17 -->
<g id="node17" class="node">
<title>Node17</title>
<g id="a_node17"><a xlink:title="STL class.">
<polygon fill="white" stroke="#bfbfbf" points="114,-320.5 114,-339.5 232,-339.5 232,-320.5 114,-320.5"/>
<text text-anchor="middle" x="173" y="-327.5" font-family="Helvetica,sans-Serif" font-size="10.00">std::shared_ptr&lt; T &gt;</text>
</a>
</g>
</g>
<!-- Node10&#45;&gt;Node17 -->
<g id="edge18" class="edge">
<title>Node10&#45;&gt;Node17</title>
<path fill="none" stroke="#9a32cd" stroke-dasharray="5,2" d="M39.32,-315.59C59.06,-317.73 87.96,-320.87 113.75,-323.67"/>
<polygon fill="#9a32cd" stroke="#9a32cd" points="39.43,-312.08 29.11,-314.48 38.68,-319.04 39.43,-312.08"/>
<text text-anchor="middle" x="71.5" y="-324" font-family="Helvetica,sans-Serif" font-size="10.00"> ptr</text>
</g>
<!-- Node29 -->
<g id="node29" class="node">
<title>Node29</title>
<g id="a_node29"><a xlink:title="STL class.">
<polygon fill="white" stroke="#bfbfbf" points="125,-365.5 125,-384.5 221,-384.5 221,-365.5 125,-365.5"/>
<text text-anchor="middle" x="173" y="-372.5" font-family="Helvetica,sans-Serif" font-size="10.00">std::deque&lt; T &gt;</text>
</a>
</g>
</g>
<!-- Node10&#45;&gt;Node29 -->
<g id="edge39" class="edge">
<title>Node10&#45;&gt;Node29</title>
<path fill="none" stroke="#9a32cd" stroke-dasharray="5,2" d="M35.14,-328.84C38.94,-331.46 42.99,-333.98 47,-336 73.19,-349.19 104.73,-358.99 129.57,-365.47"/>
<polygon fill="#9a32cd" stroke="#9a32cd" points="36.99,-325.85 26.87,-322.71 32.82,-331.48 36.99,-325.85"/>
<text text-anchor="middle" x="71.5" y="-357" font-family="Helvetica,sans-Serif" font-size="10.00"> elements</text>
</g>
<!-- Node11 -->
<g id="node11" class="node">
<title>Node11</title>
<g id="a_node11"><a xlink:title="STL class.">
<polygon fill="white" stroke="#bfbfbf" points="752.5,-268.5 752.5,-287.5 817.5,-287.5 817.5,-268.5 752.5,-268.5"/>
<text text-anchor="middle" x="785" y="-275.5" font-family="Helvetica,sans-Serif" font-size="10.00">std::string</text>
</a>
</g>
</g>
<!-- Node11&#45;&gt;Node6 -->
<g id="edge10" class="edge">
<title>Node11&#45;&gt;Node6</title>
<path fill="none" stroke="#9a32cd" stroke-dasharray="5,2" d="M827.8,-277.47C890.93,-276.66 1009.33,-275.15 1066.69,-274.42"/>
<polygon fill="#9a32cd" stroke="#9a32cd" points="827.74,-273.97 817.79,-277.59 827.83,-280.97 827.74,-273.97"/>
<text text-anchor="middle" x="959.5" y="-279" font-family="Helvetica,sans-Serif" font-size="10.00"> m_ObjectName</text>
</g>
<!-- Node12 -->
<g id="node12" class="node">
<title>Node12</title>
<g id="a_node12"><a xlink:title="STL class.">
<polygon fill="white" stroke="#bfbfbf" points="458.5,-262 458.5,-292 562.5,-292 562.5,-262 458.5,-262"/>
<text text-anchor="start" x="466.5" y="-280" font-family="Helvetica,sans-Serif" font-size="10.00">std::basic_string&lt;</text>
<text text-anchor="middle" x="510.5" y="-269" font-family="Helvetica,sans-Serif" font-size="10.00"> char &gt;</text>
</a>
</g>
</g>
<!-- Node12&#45;&gt;Node11 -->
<g id="edge11" class="edge">
<title>Node12&#45;&gt;Node11</title>
<path fill="none" stroke="midnightblue" d="M572.85,-277.23C628.49,-277.43 708.3,-277.72 752.14,-277.88"/>
<polygon fill="midnightblue" stroke="midnightblue" points="572.77,-273.72 562.76,-277.19 572.74,-280.72 572.77,-273.72"/>
</g>
<!-- Node13 -->
<g id="node13" class="node">
<title>Node13</title>
<g id="a_node13"><a xlink:href="classitk_1_1MetaDataDictionary.html" target="_top" xlink:title="Provides a mechanism for storing a collection of arbitrary data types.">
<polygon fill="white" stroke="black" points="718,-309.5 718,-328.5 852,-328.5 852,-309.5 718,-309.5"/>
<text text-anchor="middle" x="785" y="-316.5" font-family="Helvetica,sans-Serif" font-size="10.00">itk::MetaDataDictionary</text>
</a>
</g>
</g>
<!-- Node13&#45;&gt;Node6 -->
<g id="edge12" class="edge">
<title>Node13&#45;&gt;Node6</title>
<path fill="none" stroke="#9a32cd" stroke-dasharray="5,2" d="M862.21,-314.58C915.05,-310.55 986.83,-303.14 1049,-290 1056.83,-288.35 1065.17,-285.97 1072.77,-283.55"/>
<polygon fill="#9a32cd" stroke="#9a32cd" points="861.95,-311.09 852.23,-315.32 862.46,-318.07 861.95,-311.09"/>
<text text-anchor="middle" x="959.5" y="-316" font-family="Helvetica,sans-Serif" font-size="10.00"> m_MetaDataDictionary</text>
</g>
<!-- Node14 -->
<g id="node14" class="node">
<title>Node14</title>
<g id="a_node14"><a xlink:title=" ">
<polygon fill="white" stroke="#bfbfbf" points="436,-311 436,-341 585,-341 585,-311 436,-311"/>
<text text-anchor="start" x="444" y="-329" font-family="Helvetica,sans-Serif" font-size="10.00">std::shared_ptr&lt; MetaData</text>
<text text-anchor="middle" x="510.5" y="-318" font-family="Helvetica,sans-Serif" font-size="10.00">DictionaryMapType &gt;</text>
</a>
</g>
</g>
<!-- Node14&#45;&gt;Node13 -->
<g id="edge13" class="edge">
<title>Node14&#45;&gt;Node13</title>
<path fill="none" stroke="#9a32cd" stroke-dasharray="5,2" d="M595.34,-323.85C634.65,-322.84 680.82,-321.65 717.65,-320.7"/>
<polygon fill="#9a32cd" stroke="#9a32cd" points="595.15,-320.35 585.24,-324.11 595.33,-327.35 595.15,-320.35"/>
<text text-anchor="middle" x="651.5" y="-326" font-family="Helvetica,sans-Serif" font-size="10.00"> m_Dictionary</text>
</g>
<!-- Node15&#45;&gt;Node14 -->
<g id="edge14" class="edge">
<title>Node15&#45;&gt;Node14</title>
<path fill="none" stroke="#9a32cd" stroke-dasharray="5,2" d="M233.84,-295.73C283.31,-299.1 355.34,-304.65 418,-312 423.75,-312.67 429.69,-313.44 435.65,-314.25"/>
<polygon fill="#9a32cd" stroke="#9a32cd" points="233.85,-292.22 223.64,-295.05 233.38,-299.21 233.85,-292.22"/>
<text text-anchor="middle" x="334" y="-315" font-family="Helvetica,sans-Serif" font-size="10.00"> ptr</text>
</g>
<!-- Node16 -->
<g id="node16" class="node">
<title>Node16</title>
<g id="a_node16"><a xlink:title=" ">
<polygon fill="white" stroke="#bfbfbf" points="0,-218.5 0,-237.5 29,-237.5 29,-218.5 0,-218.5"/>
<text text-anchor="middle" x="14.5" y="-225.5" font-family="Helvetica,sans-Serif" font-size="10.00">K</text>
</a>
</g>
</g>
<!-- Node16&#45;&gt;Node15 -->
<g id="edge15" class="edge">
<title>Node16&#45;&gt;Node15</title>
<path fill="none" stroke="#9a32cd" stroke-dasharray="5,2" d="M39.21,-223.1C55.94,-220.84 78.43,-220.3 96,-229 107.63,-234.76 104.55,-243.1 114,-252 126.65,-263.91 143.11,-274.91 155.26,-282.35"/>
<polygon fill="#9a32cd" stroke="#9a32cd" points="38.45,-219.67 29.15,-224.75 39.58,-226.58 38.45,-219.67"/>
<text text-anchor="middle" x="71.5" y="-232" font-family="Helvetica,sans-Serif" font-size="10.00"> keys</text>
</g>
<!-- Node17&#45;&gt;Node14 -->
<g id="edge17" class="edge">
<title>Node17&#45;&gt;Node14</title>
<path fill="none" stroke="orange" stroke-dasharray="5,2" d="M242.27,-329.19C298.5,-328.52 378.06,-327.57 435.74,-326.88"/>
<polygon fill="orange" stroke="orange" points="242.01,-325.69 232.06,-329.31 242.1,-332.69 242.01,-325.69"/>
<text text-anchor="middle" x="334" y="-332" font-family="Helvetica,sans-Serif" font-size="10.00"> &lt; MetaDataDictionaryMapType &gt;</text>
</g>
<!-- Node18&#45;&gt;Node6 -->
<g id="edge19" class="edge">
<title>Node18&#45;&gt;Node6</title>
<path fill="none" stroke="#9a32cd" stroke-dasharray="5,2" d="M707.8,-238.66C747.87,-240.75 803.33,-243.98 852,-248 929.08,-254.36 1019.37,-264.54 1066.71,-270.09"/>
<polygon fill="#9a32cd" stroke="#9a32cd" points="707.87,-235.16 697.7,-238.14 707.51,-242.15 707.87,-235.16"/>
<text text-anchor="middle" x="785" y="-251" font-family="Helvetica,sans-Serif" font-size="10.00"> m_MTime</text>
</g>
<!-- Node19&#45;&gt;Node5 -->
<g id="edge21" class="edge">
<title>Node19&#45;&gt;Node5</title>
<path fill="none" stroke="orange" stroke-dasharray="5,2" d="M1376.2,-294.32C1420.14,-289.51 1469.84,-284.06 1509.17,-279.76"/>
<polygon fill="orange" stroke="orange" points="1375.6,-290.86 1366.04,-295.43 1376.36,-297.82 1375.6,-290.86"/>
<text text-anchor="middle" x="1413.5" y="-296" font-family="Helvetica,sans-Serif" font-size="10.00"> &lt; double &gt;</text>
</g>
<!-- Node20 -->
<g id="node20" class="node">
<title>Node20</title>
<g id="a_node20"><a xlink:href="classitk_1_1SingleValuedCostFunctionv4Template.html" target="_top" xlink:title="This class is a base for a CostFunction that returns a single value.">
<polygon fill="white" stroke="black" points="1461,-306 1461,-336 1701,-336 1701,-306 1461,-306"/>
<text text-anchor="start" x="1469" y="-324" font-family="Helvetica,sans-Serif" font-size="10.00">itk::SingleValuedCostFunctionv4</text>
<text text-anchor="middle" x="1581" y="-313" font-family="Helvetica,sans-Serif" font-size="10.00">Template&lt; TInternalComputationValueType &gt;</text>
</a>
</g>
</g>
<!-- Node19&#45;&gt;Node20 -->
<g id="edge24" class="edge">
<title>Node19&#45;&gt;Node20</title>
<path fill="none" stroke="midnightblue" d="M1376.36,-311.16C1403.59,-312.48 1433.02,-313.9 1460.81,-315.24"/>
<polygon fill="midnightblue" stroke="midnightblue" points="1376.2,-307.65 1366.04,-310.66 1375.86,-314.64 1376.2,-307.65"/>
</g>
<!-- Node20&#45;&gt;Node4 -->
<g id="edge23" class="edge">
<title>Node20&#45;&gt;Node4</title>
<path fill="none" stroke="orange" stroke-dasharray="5,2" d="M1711.3,-319.27C1739.91,-318.89 1769.53,-318.5 1795.89,-318.14"/>
<polygon fill="orange" stroke="orange" points="1711.18,-315.77 1701.23,-319.41 1711.28,-322.77 1711.18,-315.77"/>
<text text-anchor="middle" x="1748.5" y="-322" font-family="Helvetica,sans-Serif" font-size="10.00"> &lt; double &gt;</text>
</g>
<!-- Node21 -->
<g id="node21" class="node">
<title>Node21</title>
<g id="a_node21"><a xlink:href="classitk_1_1SmartPointer.html" target="_top" xlink:title="Implements transparent reference counting.">
<polygon fill="white" stroke="black" points="1829,-186 1829,-216 1936,-216 1936,-186 1829,-186"/>
<text text-anchor="start" x="1837" y="-204" font-family="Helvetica,sans-Serif" font-size="10.00">itk::SmartPointer&lt;</text>
<text text-anchor="middle" x="1882.5" y="-193" font-family="Helvetica,sans-Serif" font-size="10.00"> TObjectType &gt;</text>
</a>
</g>
</g>
<!-- Node21&#45;&gt;Node2 -->
<g id="edge29" class="edge">
<title>Node21&#45;&gt;Node2</title>
<path fill="none" stroke="#9a32cd" stroke-dasharray="5,2" d="M1934.92,-182.74C1995.48,-162.9 2099.49,-134 2191.5,-134 2191.5,-134 2191.5,-134 2720.5,-134 2814.73,-134 2921.5,-143.64 2998.65,-152.34"/>
<polygon fill="#9a32cd" stroke="#9a32cd" points="1933.61,-179.49 1925.22,-185.96 1935.81,-186.13 1933.61,-179.49"/>
<text text-anchor="middle" x="2503.5" y="-148" font-family="Helvetica,sans-Serif" font-size="10.00"> m_MovingTransform</text>
<text text-anchor="middle" x="2503.5" y="-137" font-family="Helvetica,sans-Serif" font-size="10.00">m_FixedTransform</text>
</g>
<!-- Node21&#45;&gt;Node3 -->
<g id="edge25" class="edge">
<title>Node21&#45;&gt;Node3</title>
<path fill="none" stroke="#9a32cd" stroke-dasharray="5,2" d="M1923.27,-220.45C1942.19,-229.05 1965.37,-238.62 1987,-245 2140.91,-290.37 2332.02,-266.81 2432.78,-248.61"/>
<polygon fill="#9a32cd" stroke="#9a32cd" points="1924.61,-217.22 1914.06,-216.2 1921.67,-223.57 1924.61,-217.22"/>
<text text-anchor="middle" x="2192.5" y="-285" font-family="Helvetica,sans-Serif" font-size="10.00"> m_MovingObject</text>
<text text-anchor="middle" x="2192.5" y="-274" font-family="Helvetica,sans-Serif" font-size="10.00">m_FixedObject</text>
</g>
<!-- Node21&#45;&gt;Node22 -->
<g id="edge28" class="edge">
<title>Node21&#45;&gt;Node22</title>
<path fill="none" stroke="#9a32cd" stroke-dasharray="5,2" d="M1946.08,-207.5C1987.65,-211.82 2043.15,-217.59 2090.86,-222.54"/>
<polygon fill="#9a32cd" stroke="#9a32cd" points="1946.41,-204.02 1936.1,-206.46 1945.68,-210.98 1946.41,-204.02"/>
<text text-anchor="middle" x="2030" y="-233" font-family="Helvetica,sans-Serif" font-size="10.00"> m_MovingObject</text>
<text text-anchor="middle" x="2030" y="-222" font-family="Helvetica,sans-Serif" font-size="10.00">m_FixedObject</text>
</g>
<!-- Node21&#45;&gt;Node23 -->
<g id="edge32" class="edge">
<title>Node21&#45;&gt;Node23</title>
<path fill="none" stroke="#9a32cd" stroke-dasharray="5,2" d="M1946.3,-199.72C2087.99,-196.84 2433.92,-189.79 2610.68,-186.2"/>
<polygon fill="#9a32cd" stroke="#9a32cd" points="1945.98,-196.23 1936.05,-199.93 1946.12,-203.23 1945.98,-196.23"/>
<text text-anchor="middle" x="2363.5" y="-206" font-family="Helvetica,sans-Serif" font-size="10.00"> m_MovingTransform</text>
<text text-anchor="middle" x="2363.5" y="-195" font-family="Helvetica,sans-Serif" font-size="10.00">m_FixedTransform</text>
</g>
<!-- Node22&#45;&gt;Node3 -->
<g id="edge26" class="edge">
<title>Node22&#45;&gt;Node3</title>
<path fill="none" stroke="orange" stroke-dasharray="5,2" d="M2304.44,-233.36C2347.21,-233.5 2394.84,-233.65 2432.67,-233.77"/>
<polygon fill="orange" stroke="orange" points="2304.26,-229.86 2294.25,-233.33 2304.24,-236.86 2304.26,-229.86"/>
<text text-anchor="middle" x="2363.5" y="-236" font-family="Helvetica,sans-Serif" font-size="10.00"> &lt; double &gt;</text>
</g>
<!-- Node23&#45;&gt;Node2 -->
<g id="edge30" class="edge">
<title>Node23&#45;&gt;Node2</title>
<path fill="none" stroke="orange" stroke-dasharray="5,2" d="M2838.34,-176.4C2840.92,-176.26 2843.47,-176.13 2846,-176 2896.2,-173.43 2951.9,-171.2 2998.79,-169.51"/>
<polygon fill="orange" stroke="orange" points="2838.11,-172.91 2828.31,-176.95 2838.49,-179.9 2838.11,-172.91"/>
<text text-anchor="start" x="2846" y="-212" font-family="Helvetica,sans-Serif" font-size="10.00"> &lt; TFixedDimension,</text>
<text text-anchor="start" x="2846" y="-201" font-family="Helvetica,sans-Serif" font-size="10.00"> TMovingDimension, Image</text>
<text text-anchor="start" x="2846" y="-190" font-family="Helvetica,sans-Serif" font-size="10.00">&lt; double, TFixedDimension</text>
<text text-anchor="middle" x="2913.5" y="-179" font-family="Helvetica,sans-Serif" font-size="10.00"> &gt;, double &gt;</text>
</g>
<!-- Node24 -->
<g id="node24" class="node">
<title>Node24</title>
<g id="a_node24"><a xlink:href="classitk_1_1Array.html" target="_top" xlink:title=" ">
<polygon fill="white" stroke="black" points="3032,-93.5 3032,-112.5 3181,-112.5 3181,-93.5 3032,-93.5"/>
<text text-anchor="middle" x="3106.5" y="-100.5" font-family="Helvetica,sans-Serif" font-size="10.00">itk::Array&lt; MeasureType &gt;</text>
</a>
</g>
</g>
<!-- Node24&#45;&gt;Node1 -->
<g id="edge33" class="edge">
<title>Node24&#45;&gt;Node1</title>
<path fill="none" stroke="#9a32cd" stroke-dasharray="5,2" d="M3191.61,-112.88C3240.49,-118.62 3302.23,-125.88 3352.88,-131.83"/>
<polygon fill="#9a32cd" stroke="#9a32cd" points="3191.72,-109.37 3181.38,-111.68 3190.91,-116.32 3191.72,-109.37"/>
<text text-anchor="middle" x="3283.5" y="-131" font-family="Helvetica,sans-Serif" font-size="10.00"> m_MetricValueArray</text>
</g>
<!-- Node25 -->
<g id="node25" class="node">
<title>Node25</title>
<g id="a_node25"><a xlink:title=" ">
<polygon fill="white" stroke="#bfbfbf" points="2642,-86.5 2642,-105.5 2797,-105.5 2797,-86.5 2642,-86.5"/>
<text text-anchor="middle" x="2719.5" y="-93.5" font-family="Helvetica,sans-Serif" font-size="10.00">vnl_vector&lt; MeasureType &gt;</text>
</a>
</g>
</g>
<!-- Node25&#45;&gt;Node24 -->
<g id="edge34" class="edge">
<title>Node25&#45;&gt;Node24</title>
<path fill="none" stroke="midnightblue" d="M2807.23,-97.58C2874.83,-98.81 2967.68,-100.49 3031.74,-101.66"/>
<polygon fill="midnightblue" stroke="midnightblue" points="2807.09,-94.07 2797.02,-97.39 2806.96,-101.07 2807.09,-94.07"/>
</g>
<!-- Node26 -->
<g id="node26" class="node">
<title>Node26</title>
<g id="a_node26"><a xlink:href="classitk_1_1Array.html" target="_top" xlink:title="Array class with size defined at construction time.">
<polygon fill="white" stroke="black" points="2661,-40.5 2661,-59.5 2778,-59.5 2778,-40.5 2661,-40.5"/>
<text text-anchor="middle" x="2719.5" y="-47.5" font-family="Helvetica,sans-Serif" font-size="10.00">itk::Array&lt; TValue &gt;</text>
</a>
</g>
</g>
<!-- Node26&#45;&gt;Node24 -->
<g id="edge35" class="edge">
<title>Node26&#45;&gt;Node24</title>
<path fill="none" stroke="orange" stroke-dasharray="5,2" d="M2788.22,-57.95C2840.85,-64.28 2915.64,-73.61 2981,-83 3003.21,-86.19 3027.59,-90.03 3048.85,-93.49"/>
<polygon fill="orange" stroke="orange" points="2788.35,-54.44 2778,-56.73 2787.51,-61.39 2788.35,-54.44"/>
<text text-anchor="middle" x="2913.5" y="-86" font-family="Helvetica,sans-Serif" font-size="10.00"> &lt; MeasureType &gt;</text>
</g>
<!-- Node30 -->
<g id="node30" class="node">
<title>Node30</title>
<g id="a_node30"><a xlink:href="classitk_1_1Array.html" target="_top" xlink:title=" ">
<polygon fill="white" stroke="black" points="3023,-33.5 3023,-52.5 3190,-52.5 3190,-33.5 3023,-33.5"/>
<text text-anchor="middle" x="3106.5" y="-40.5" font-family="Helvetica,sans-Serif" font-size="10.00">itk::Array&lt; WeightValueType &gt;</text>
</a>
</g>
</g>
<!-- Node26&#45;&gt;Node30 -->
<g id="edge42" class="edge">
<title>Node26&#45;&gt;Node30</title>
<path fill="none" stroke="orange" stroke-dasharray="5,2" d="M2788.45,-46.21C2807.1,-45.31 2827.33,-44.48 2846,-44 2905.11,-42.47 2971.82,-42.25 3022.8,-42.39"/>
<polygon fill="orange" stroke="orange" points="2788.09,-42.72 2778.27,-46.71 2788.43,-49.71 2788.09,-42.72"/>
<text text-anchor="middle" x="2913.5" y="-47" font-family="Helvetica,sans-Serif" font-size="10.00"> &lt; WeightValueType &gt;</text>
</g>
<!-- Node27 -->
<g id="node27" class="node">
<title>Node27</title>
<g id="a_node27"><a xlink:title=" ">
<polygon fill="white" stroke="#bfbfbf" points="2442,-40.5 2442,-59.5 2565,-59.5 2565,-40.5 2442,-40.5"/>
<text text-anchor="middle" x="2503.5" y="-47.5" font-family="Helvetica,sans-Serif" font-size="10.00">vnl_vector&lt; TValue &gt;</text>
</a>
</g>
</g>
<!-- Node27&#45;&gt;Node26 -->
<g id="edge36" class="edge">
<title>Node27&#45;&gt;Node26</title>
<path fill="none" stroke="midnightblue" d="M2575.3,-50C2603.09,-50 2634.56,-50 2660.91,-50"/>
<polygon fill="midnightblue" stroke="midnightblue" points="2575.25,-46.5 2565.25,-50 2575.25,-53.5 2575.25,-46.5"/>
</g>
<!-- Node28 -->
<g id="node28" class="node">
<title>Node28</title>
<g id="a_node28"><a xlink:title=" ">
<polygon fill="white" stroke="#bfbfbf" points="870,-368.5 870,-387.5 1049,-387.5 1049,-368.5 870,-368.5"/>
<text text-anchor="middle" x="959.5" y="-375.5" font-family="Helvetica,sans-Serif" font-size="10.00">std::deque&lt; MetricBasePointer &gt;</text>
</a>
</g>
</g>
<!-- Node28&#45;&gt;Node1 -->
<g id="edge37" class="edge">
<title>Node28&#45;&gt;Node1</title>
<path fill="none" stroke="#9a32cd" stroke-dasharray="5,2" d="M1059.55,-378C1089.27,-378 1121.96,-378 1152,-378 1152,-378 1152,-378 3107.5,-378 3253.31,-378 3381.98,-230.23 3429.01,-169.05"/>
<polygon fill="#9a32cd" stroke="#9a32cd" points="1059.17,-374.5 1049.17,-378 1059.17,-381.5 1059.17,-374.5"/>
<text text-anchor="middle" x="2030" y="-381" font-family="Helvetica,sans-Serif" font-size="10.00"> m_MetricQueue</text>
</g>
<!-- Node29&#45;&gt;Node28 -->
<g id="edge38" class="edge">
<title>Node29&#45;&gt;Node28</title>
<path fill="none" stroke="orange" stroke-dasharray="5,2" d="M231.17,-375.22C366.59,-375.74 707.67,-377.04 870,-377.66"/>
<polygon fill="orange" stroke="orange" points="231.03,-371.72 221.02,-375.18 231,-378.72 231.03,-371.72"/>
<text text-anchor="middle" x="510.5" y="-379" font-family="Helvetica,sans-Serif" font-size="10.00"> &lt; MetricBasePointer &gt;</text>
</g>
<!-- Node30&#45;&gt;Node1 -->
<g id="edge40" class="edge">
<title>Node30&#45;&gt;Node1</title>
<path fill="none" stroke="#9a32cd" stroke-dasharray="5,2" d="M3157.43,-54.91C3203.75,-66.26 3274.45,-84.33 3335,-103 3348.72,-107.23 3363.26,-112.09 3377.17,-116.92"/>
<polygon fill="#9a32cd" stroke="#9a32cd" points="3158.19,-51.49 3147.65,-52.53 3156.53,-58.3 3158.19,-51.49"/>
<text text-anchor="middle" x="3283.5" y="-106" font-family="Helvetica,sans-Serif" font-size="10.00"> m_MetricWeights</text>
</g>
<!-- Node31 -->
<g id="node31" class="node">
<title>Node31</title>
<g id="a_node31"><a xlink:title=" ">
<polygon fill="white" stroke="#bfbfbf" points="2633,-0.5 2633,-19.5 2806,-19.5 2806,-0.5 2633,-0.5"/>
<text text-anchor="middle" x="2719.5" y="-7.5" font-family="Helvetica,sans-Serif" font-size="10.00">vnl_vector&lt; WeightValueType &gt;</text>
</a>
</g>
</g>
<!-- Node31&#45;&gt;Node30 -->
<g id="edge41" class="edge">
<title>Node31&#45;&gt;Node30</title>
<path fill="none" stroke="midnightblue" d="M2816.44,-18.22C2879.9,-23.66 2962.25,-30.72 3022.81,-35.91"/>
<polygon fill="midnightblue" stroke="midnightblue" points="2816.68,-14.73 2806.42,-17.36 2816.09,-21.71 2816.68,-14.73"/>
</g>
</g>
</svg>
