<?xml version="1.0" encoding="UTF-8" standalone="no"?>
<!DOCTYPE svg PUBLIC "-//W3C//DTD SVG 1.1//EN"
 "http://www.w3.org/Graphics/SVG/1.1/DTD/svg11.dtd">
<!-- Generated by graphviz version 2.43.0 (0)
 -->
<!-- Title: itk::HistogramToEntropyImageFilter&lt; THistogram, TImage &gt; Pages: 1 -->
<svg width="3113pt" height="524pt"
 viewBox="0.00 0.00 3113.00 523.50" xmlns="http://www.w3.org/2000/svg" xmlns:xlink="http://www.w3.org/1999/xlink">
<g id="graph0" class="graph" transform="scale(1 1) rotate(0) translate(4 519.5)">
<title>itk::HistogramToEntropyImageFilter&lt; THistogram, TImage &gt;</title>
<polygon fill="white" stroke="transparent" points="-4,4 -4,-519.5 3109,-519.5 3109,4 -4,4"/>
<!-- Node1 -->
<g id="node1" class="node">
<title>Node1</title>
<g id="a_node1"><a xlink:title="The class takes a histogram as an input and gives the entropy image as the output....">
<polygon fill="#bfbfbf" stroke="black" points="2940,-254.5 2940,-284.5 3105,-284.5 3105,-254.5 2940,-254.5"/>
<text text-anchor="start" x="2948" y="-272.5" font-family="Helvetica,sans-Serif" font-size="10.00">itk::HistogramToEntropyImage</text>
<text text-anchor="middle" x="3022.5" y="-261.5" font-family="Helvetica,sans-Serif" font-size="10.00">Filter&lt; THistogram, TImage &gt;</text>
</a>
</g>
</g>
<!-- Node2 -->
<g id="node2" class="node">
<title>Node2</title>
<g id="a_node2"><a xlink:href="classitk_1_1HistogramToImageFilter.html" target="_top" xlink:title=" ">
<polygon fill="white" stroke="black" points="2683,-238 2683,-301 2903,-301 2903,-238 2683,-238"/>
<text text-anchor="start" x="2691" y="-289" font-family="Helvetica,sans-Serif" font-size="10.00">itk::HistogramToImageFilter</text>
<text text-anchor="start" x="2691" y="-278" font-family="Helvetica,sans-Serif" font-size="10.00">&lt; THistogram, Image&lt; double,</text>
<text text-anchor="start" x="2691" y="-267" font-family="Helvetica,sans-Serif" font-size="10.00"> 3 &gt;, Function::HistogramEntropyFunction</text>
<text text-anchor="start" x="2691" y="-256" font-family="Helvetica,sans-Serif" font-size="10.00">&lt; SizeValueType, Image&lt; double, 3 &gt;</text>
<text text-anchor="middle" x="2793" y="-245" font-family="Helvetica,sans-Serif" font-size="10.00"> ::PixelType &gt; &gt;</text>
</a>
</g>
</g>
<!-- Node2&#45;&gt;Node1 -->
<g id="edge1" class="edge">
<title>Node2&#45;&gt;Node1</title>
<path fill="none" stroke="midnightblue" d="M2913.19,-269.5C2922.14,-269.5 2931.04,-269.5 2939.67,-269.5"/>
<polygon fill="midnightblue" stroke="midnightblue" points="2913.09,-266 2903.09,-269.5 2913.09,-273 2913.09,-266"/>
</g>
<!-- Node3 -->
<g id="node3" class="node">
<title>Node3</title>
<g id="a_node3"><a xlink:href="classitk_1_1ImageSource.html" target="_top" xlink:title=" ">
<polygon fill="white" stroke="black" points="1969.5,-280.5 1969.5,-310.5 2110.5,-310.5 2110.5,-280.5 1969.5,-280.5"/>
<text text-anchor="start" x="1977.5" y="-298.5" font-family="Helvetica,sans-Serif" font-size="10.00">itk::ImageSource&lt; Image</text>
<text text-anchor="middle" x="2040" y="-287.5" font-family="Helvetica,sans-Serif" font-size="10.00">&lt; double, 3 &gt; &gt;</text>
</a>
</g>
</g>
<!-- Node3&#45;&gt;Node2 -->
<g id="edge2" class="edge">
<title>Node3&#45;&gt;Node2</title>
<path fill="none" stroke="midnightblue" d="M2120.83,-293.7C2239.53,-290.88 2469.56,-284.86 2665,-276.5 2670.85,-276.25 2676.84,-275.98 2682.9,-275.69"/>
<polygon fill="midnightblue" stroke="midnightblue" points="2120.65,-290.2 2110.74,-293.94 2120.82,-297.2 2120.65,-290.2"/>
</g>
<!-- Node4 -->
<g id="node4" class="node">
<title>Node4</title>
<g id="a_node4"><a xlink:href="classitk_1_1ProcessObject.html" target="_top" xlink:title="The base class for all process objects (source, filters, mappers) in the Insight data processing pipe...">
<polygon fill="white" stroke="black" points="1491.5,-274 1491.5,-293 1595.5,-293 1595.5,-274 1491.5,-274"/>
<text text-anchor="middle" x="1543.5" y="-281" font-family="Helvetica,sans-Serif" font-size="10.00">itk::ProcessObject</text>
</a>
</g>
</g>
<!-- Node4&#45;&gt;Node3 -->
<g id="edge3" class="edge">
<title>Node4&#45;&gt;Node3</title>
<path fill="none" stroke="midnightblue" d="M1605.96,-294.1C1615.01,-295.41 1624.23,-296.6 1633,-297.5 1770.11,-311.62 1805.39,-314.36 1943,-306.5 1951.54,-306.01 1960.49,-305.28 1969.34,-304.43"/>
<polygon fill="midnightblue" stroke="midnightblue" points="1606.26,-290.61 1595.85,-292.59 1605.23,-297.53 1606.26,-290.61"/>
</g>
<!-- Node30 -->
<g id="node30" class="node">
<title>Node30</title>
<g id="a_node30"><a xlink:href="classitk_1_1ImageSource.html" target="_top" xlink:title="Base class for all process objects that output image data.">
<polygon fill="white" stroke="black" points="1652,-186.5 1652,-216.5 1801,-216.5 1801,-186.5 1652,-186.5"/>
<text text-anchor="start" x="1660" y="-204.5" font-family="Helvetica,sans-Serif" font-size="10.00">itk::ImageSource&lt; TOutput</text>
<text text-anchor="middle" x="1726.5" y="-193.5" font-family="Helvetica,sans-Serif" font-size="10.00">Image &gt;</text>
</a>
</g>
</g>
<!-- Node4&#45;&gt;Node30 -->
<g id="edge43" class="edge">
<title>Node4&#45;&gt;Node30</title>
<path fill="none" stroke="midnightblue" d="M1575.06,-269.66C1607.55,-254.94 1658.78,-231.73 1692.26,-216.56"/>
<polygon fill="midnightblue" stroke="midnightblue" points="1573.28,-266.62 1565.62,-273.93 1576.17,-272.99 1573.28,-266.62"/>
</g>
<!-- Node34 -->
<g id="node34" class="node">
<title>Node34</title>
<g id="a_node34"><a xlink:href="classitk_1_1ImageSource.html" target="_top" xlink:title=" ">
<polygon fill="white" stroke="black" points="1961,-182 1961,-201 2119,-201 2119,-182 1961,-182"/>
<text text-anchor="middle" x="2040" y="-189" font-family="Helvetica,sans-Serif" font-size="10.00">itk::ImageSource&lt; TImage &gt;</text>
</a>
</g>
</g>
<!-- Node4&#45;&gt;Node34 -->
<g id="edge49" class="edge">
<title>Node4&#45;&gt;Node34</title>
<path fill="none" stroke="midnightblue" d="M1605.6,-286.45C1703.69,-289.97 1890.62,-291.27 1943,-253.5 1959.8,-241.38 1945.24,-223.95 1961,-210.5 1965.45,-206.7 1970.54,-203.63 1975.94,-201.17"/>
<polygon fill="midnightblue" stroke="midnightblue" points="1605.65,-282.95 1595.53,-286.07 1605.39,-289.95 1605.65,-282.95"/>
</g>
<!-- Node5 -->
<g id="node5" class="node">
<title>Node5</title>
<g id="a_node5"><a xlink:href="classitk_1_1Object.html" target="_top" xlink:title="Base class for most ITK classes.">
<polygon fill="white" stroke="black" points="1176,-297 1176,-316 1243,-316 1243,-297 1176,-297"/>
<text text-anchor="middle" x="1209.5" y="-304" font-family="Helvetica,sans-Serif" font-size="10.00">itk::Object</text>
</a>
</g>
</g>
<!-- Node5&#45;&gt;Node4 -->
<g id="edge4" class="edge">
<title>Node5&#45;&gt;Node4</title>
<path fill="none" stroke="midnightblue" d="M1253.3,-303.53C1314.33,-299.31 1426.16,-291.56 1491.43,-287.04"/>
<polygon fill="midnightblue" stroke="midnightblue" points="1252.98,-300.05 1243.24,-304.23 1253.46,-307.03 1252.98,-300.05"/>
</g>
<!-- Node6 -->
<g id="node6" class="node">
<title>Node6</title>
<g id="a_node6"><a xlink:href="classitk_1_1LightObject.html" target="_top" xlink:title="Light weight base class for most itk classes.">
<polygon fill="white" stroke="black" points="834.5,-331 834.5,-350 925.5,-350 925.5,-331 834.5,-331"/>
<text text-anchor="middle" x="880" y="-338" font-family="Helvetica,sans-Serif" font-size="10.00">itk::LightObject</text>
</a>
</g>
</g>
<!-- Node6&#45;&gt;Node5 -->
<g id="edge5" class="edge">
<title>Node6&#45;&gt;Node5</title>
<path fill="none" stroke="midnightblue" d="M935.69,-334.82C1004.33,-327.7 1119.84,-315.7 1175.95,-309.88"/>
<polygon fill="midnightblue" stroke="midnightblue" points="935.09,-331.37 925.51,-335.88 935.82,-338.33 935.09,-331.37"/>
</g>
<!-- Node7 -->
<g id="node7" class="node">
<title>Node7</title>
<g id="a_node7"><a xlink:title=" ">
<polygon fill="white" stroke="#bfbfbf" points="492,-332 492,-351 599,-351 599,-332 492,-332"/>
<text text-anchor="middle" x="545.5" y="-339" font-family="Helvetica,sans-Serif" font-size="10.00">std::atomic&lt; int &gt;</text>
</a>
</g>
</g>
<!-- Node7&#45;&gt;Node6 -->
<g id="edge6" class="edge">
<title>Node7&#45;&gt;Node6</title>
<path fill="none" stroke="#9a32cd" stroke-dasharray="5,2" d="M609.41,-341.31C675.06,-341.11 776.36,-340.81 834.28,-340.63"/>
<polygon fill="#9a32cd" stroke="#9a32cd" points="609.18,-337.81 599.19,-341.34 609.2,-344.81 609.18,-337.81"/>
<text text-anchor="middle" x="721.5" y="-343.5" font-family="Helvetica,sans-Serif" font-size="10.00"> m_ReferenceCount</text>
</g>
<!-- Node8 -->
<g id="node8" class="node">
<title>Node8</title>
<g id="a_node8"><a xlink:title="STL class.">
<polygon fill="white" stroke="#bfbfbf" points="135.5,-360 135.5,-379 235.5,-379 235.5,-360 135.5,-360"/>
<text text-anchor="middle" x="185.5" y="-367" font-family="Helvetica,sans-Serif" font-size="10.00">std::atomic&lt; T &gt;</text>
</a>
</g>
</g>
<!-- Node8&#45;&gt;Node7 -->
<g id="edge7" class="edge">
<title>Node8&#45;&gt;Node7</title>
<path fill="none" stroke="orange" stroke-dasharray="5,2" d="M245.72,-364.81C255.5,-364.03 265.53,-363.24 275,-362.5 350.33,-356.59 437.5,-349.8 491.83,-345.59"/>
<polygon fill="orange" stroke="orange" points="245.34,-361.33 235.65,-365.6 245.9,-368.3 245.34,-361.33"/>
<text text-anchor="middle" x="359" y="-365.5" font-family="Helvetica,sans-Serif" font-size="10.00"> &lt; int &gt;</text>
</g>
<!-- Node17 -->
<g id="node17" class="node">
<title>Node17</title>
<g id="a_node17"><a xlink:href="classitk_1_1TimeStamp.html" target="_top" xlink:title="Generate a unique, increasing time value.">
<polygon fill="white" stroke="black" points="834,-377 834,-396 926,-396 926,-377 834,-377"/>
<text text-anchor="middle" x="880" y="-384" font-family="Helvetica,sans-Serif" font-size="10.00">itk::TimeStamp</text>
</a>
</g>
</g>
<!-- Node8&#45;&gt;Node17 -->
<g id="edge19" class="edge">
<title>Node8&#45;&gt;Node17</title>
<path fill="none" stroke="#9a32cd" stroke-dasharray="5,2" d="M245.71,-372.37C255.49,-372.79 265.53,-373.18 275,-373.5 483.87,-380.47 733.5,-384.46 833.91,-385.89"/>
<polygon fill="#9a32cd" stroke="#9a32cd" points="245.79,-368.87 235.64,-371.93 245.48,-375.86 245.79,-368.87"/>
<text text-anchor="middle" x="545.5" y="-384.5" font-family="Helvetica,sans-Serif" font-size="10.00"> m_GlobalTimeStamp</text>
</g>
<!-- Node21 -->
<g id="node21" class="node">
<title>Node21</title>
<g id="a_node21"><a xlink:title=" ">
<polygon fill="white" stroke="#bfbfbf" points="654.5,-416 654.5,-435 788.5,-435 788.5,-416 654.5,-416"/>
<text text-anchor="middle" x="721.5" y="-423" font-family="Helvetica,sans-Serif" font-size="10.00">std::atomic&lt; uint32_t &gt;</text>
</a>
</g>
</g>
<!-- Node8&#45;&gt;Node21 -->
<g id="edge28" class="edge">
<title>Node8&#45;&gt;Node21</title>
<path fill="none" stroke="orange" stroke-dasharray="5,2" d="M216.76,-382.94C233.57,-389.77 255.06,-397.45 275,-401.5 407.65,-428.44 566.79,-429.79 654.44,-427.92"/>
<polygon fill="orange" stroke="orange" points="218.03,-379.68 207.45,-379.06 215.34,-386.14 218.03,-379.68"/>
<text text-anchor="middle" x="359" y="-425.5" font-family="Helvetica,sans-Serif" font-size="10.00"> &lt; uint32_t &gt;</text>
</g>
<!-- Node9 -->
<g id="node9" class="node">
<title>Node9</title>
<g id="a_node9"><a xlink:title=" ">
<polygon fill="white" stroke="#bfbfbf" points="0,-337 0,-356 29,-356 29,-337 0,-337"/>
<text text-anchor="middle" x="14.5" y="-344" font-family="Helvetica,sans-Serif" font-size="10.00">T</text>
</a>
</g>
</g>
<!-- Node9&#45;&gt;Node8 -->
<g id="edge8" class="edge">
<title>Node9&#45;&gt;Node8</title>
<path fill="none" stroke="#9a32cd" stroke-dasharray="5,2" d="M39,-349.7C63.8,-353.07 103.63,-358.49 135.35,-362.81"/>
<polygon fill="#9a32cd" stroke="#9a32cd" points="39.42,-346.22 29.04,-348.34 38.48,-353.16 39.42,-346.22"/>
<text text-anchor="middle" x="71.5" y="-359.5" font-family="Helvetica,sans-Serif" font-size="10.00"> ptr</text>
</g>
<!-- Node14 -->
<g id="node14" class="node">
<title>Node14</title>
<g id="a_node14"><a xlink:title="STL class.">
<polygon fill="white" stroke="#bfbfbf" points="135,-244 135,-263 236,-263 236,-244 135,-244"/>
<text text-anchor="middle" x="185.5" y="-251" font-family="Helvetica,sans-Serif" font-size="10.00">std::map&lt; K, T &gt;</text>
</a>
</g>
</g>
<!-- Node9&#45;&gt;Node14 -->
<g id="edge15" class="edge">
<title>Node9&#45;&gt;Node14</title>
<path fill="none" stroke="#9a32cd" stroke-dasharray="5,2" d="M29.31,-328.84C34.42,-323.11 40.55,-317.05 47,-312.5 79.79,-289.36 123.09,-272.66 152.26,-263.06"/>
<polygon fill="#9a32cd" stroke="#9a32cd" points="26.37,-326.9 22.63,-336.81 31.74,-331.4 26.37,-326.9"/>
<text text-anchor="middle" x="71.5" y="-315.5" font-family="Helvetica,sans-Serif" font-size="10.00"> elements</text>
</g>
<!-- Node16 -->
<g id="node16" class="node">
<title>Node16</title>
<g id="a_node16"><a xlink:title="STL class.">
<polygon fill="white" stroke="#bfbfbf" points="126.5,-314 126.5,-333 244.5,-333 244.5,-314 126.5,-314"/>
<text text-anchor="middle" x="185.5" y="-321" font-family="Helvetica,sans-Serif" font-size="10.00">std::shared_ptr&lt; T &gt;</text>
</a>
</g>
</g>
<!-- Node9&#45;&gt;Node16 -->
<g id="edge17" class="edge">
<title>Node9&#45;&gt;Node16</title>
<path fill="none" stroke="#9a32cd" stroke-dasharray="5,2" d="M38.7,-337.67C41.47,-336.84 44.28,-336.08 47,-335.5 72.77,-329.97 101.78,-326.97 126.49,-325.36"/>
<polygon fill="#9a32cd" stroke="#9a32cd" points="37.44,-334.41 29.09,-340.92 39.68,-341.04 37.44,-334.41"/>
<text text-anchor="middle" x="71.5" y="-338.5" font-family="Helvetica,sans-Serif" font-size="10.00"> ptr</text>
</g>
<!-- Node24 -->
<g id="node24" class="node">
<title>Node24</title>
<g id="a_node24"><a xlink:title="STL class.">
<polygon fill="white" stroke="#bfbfbf" points="137,-420 137,-439 234,-439 234,-420 137,-420"/>
<text text-anchor="middle" x="185.5" y="-427" font-family="Helvetica,sans-Serif" font-size="10.00">std::vector&lt; T &gt;</text>
</a>
</g>
</g>
<!-- Node9&#45;&gt;Node24 -->
<g id="edge32" class="edge">
<title>Node9&#45;&gt;Node24</title>
<path fill="none" stroke="#9a32cd" stroke-dasharray="5,2" d="M33.95,-362.5C38.09,-365.7 42.58,-368.88 47,-371.5 82.55,-392.57 127.18,-409.9 155.77,-419.97"/>
<polygon fill="#9a32cd" stroke="#9a32cd" points="36.01,-359.66 26.05,-356.07 31.59,-365.09 36.01,-359.66"/>
<text text-anchor="middle" x="71.5" y="-398.5" font-family="Helvetica,sans-Serif" font-size="10.00"> elements</text>
</g>
<!-- Node10 -->
<g id="node10" class="node">
<title>Node10</title>
<g id="a_node10"><a xlink:title="STL class.">
<polygon fill="white" stroke="#bfbfbf" points="847.5,-199 847.5,-218 912.5,-218 912.5,-199 847.5,-199"/>
<text text-anchor="middle" x="880" y="-206" font-family="Helvetica,sans-Serif" font-size="10.00">std::string</text>
</a>
</g>
</g>
<!-- Node10&#45;&gt;Node5 -->
<g id="edge9" class="edge">
<title>Node10&#45;&gt;Node5</title>
<path fill="none" stroke="#9a32cd" stroke-dasharray="5,2" d="M917.36,-221.4C964.77,-237.96 1050.45,-266.99 1125,-287.5 1141.63,-292.07 1160.33,-296.4 1175.82,-299.77"/>
<polygon fill="#9a32cd" stroke="#9a32cd" points="918.44,-218.07 907.84,-218.06 916.12,-224.67 918.44,-218.07"/>
<text text-anchor="middle" x="1036" y="-284.5" font-family="Helvetica,sans-Serif" font-size="10.00"> m_ObjectName</text>
</g>
<!-- Node18 -->
<g id="node18" class="node">
<title>Node18</title>
<g id="a_node18"><a xlink:title=" ">
<polygon fill="white" stroke="#bfbfbf" points="1128.5,-159.5 1128.5,-189.5 1290.5,-189.5 1290.5,-159.5 1128.5,-159.5"/>
<text text-anchor="start" x="1136.5" y="-177.5" font-family="Helvetica,sans-Serif" font-size="10.00">std::set&lt; DataObjectIdentifier</text>
<text text-anchor="middle" x="1209.5" y="-166.5" font-family="Helvetica,sans-Serif" font-size="10.00">Type &gt;</text>
</a>
</g>
</g>
<!-- Node10&#45;&gt;Node18 -->
<g id="edge21" class="edge">
<title>Node10&#45;&gt;Node18</title>
<path fill="none" stroke="#9a32cd" stroke-dasharray="5,2" d="M908.72,-194.61C924.73,-187.36 945.5,-179.23 965,-175.5 1018.77,-165.2 1080.45,-165.07 1128.28,-167.45"/>
<polygon fill="#9a32cd" stroke="#9a32cd" points="906.99,-191.55 899.42,-198.96 909.96,-197.89 906.99,-191.55"/>
<text text-anchor="middle" x="1036" y="-178.5" font-family="Helvetica,sans-Serif" font-size="10.00"> keys</text>
</g>
<!-- Node20 -->
<g id="node20" class="node">
<title>Node20</title>
<g id="a_node20"><a xlink:title=" ">
<polygon fill="white" stroke="#bfbfbf" points="1125,-247.5 1125,-277.5 1294,-277.5 1294,-247.5 1125,-247.5"/>
<text text-anchor="start" x="1133" y="-265.5" font-family="Helvetica,sans-Serif" font-size="10.00">std::map&lt; DataObjectIdentifier</text>
<text text-anchor="middle" x="1209.5" y="-254.5" font-family="Helvetica,sans-Serif" font-size="10.00">Type, bool &gt;</text>
</a>
</g>
</g>
<!-- Node10&#45;&gt;Node20 -->
<g id="edge25" class="edge">
<title>Node10&#45;&gt;Node20</title>
<path fill="none" stroke="#9a32cd" stroke-dasharray="5,2" d="M922.82,-202.86C968.74,-198 1044.28,-193.96 1107,-209.5 1136.72,-216.86 1167.41,-234.55 1187.15,-247.47"/>
<polygon fill="#9a32cd" stroke="#9a32cd" points="922.2,-199.41 912.65,-204 922.98,-206.36 922.2,-199.41"/>
<text text-anchor="middle" x="1036" y="-212.5" font-family="Helvetica,sans-Serif" font-size="10.00"> keys</text>
</g>
<!-- Node25 -->
<g id="node25" class="node">
<title>Node25</title>
<g id="a_node25"><a xlink:title=" ">
<polygon fill="white" stroke="#bfbfbf" points="1125,-86.5 1125,-116.5 1294,-116.5 1294,-86.5 1125,-86.5"/>
<text text-anchor="start" x="1133" y="-104.5" font-family="Helvetica,sans-Serif" font-size="10.00">std::map&lt; DataObjectIdentifier</text>
<text text-anchor="middle" x="1209.5" y="-93.5" font-family="Helvetica,sans-Serif" font-size="10.00">Type, DataObjectPointer &gt;</text>
</a>
</g>
</g>
<!-- Node10&#45;&gt;Node25 -->
<g id="edge36" class="edge">
<title>Node10&#45;&gt;Node25</title>
<path fill="none" stroke="#9a32cd" stroke-dasharray="5,2" d="M900.24,-192.17C916.48,-179.23 940.89,-161.68 965,-151.5 1015.89,-130.02 1076.77,-117.52 1124.92,-110.39"/>
<polygon fill="#9a32cd" stroke="#9a32cd" points="897.64,-189.78 892.11,-198.81 902.07,-195.2 897.64,-189.78"/>
<text text-anchor="middle" x="1036" y="-154.5" font-family="Helvetica,sans-Serif" font-size="10.00"> keys</text>
</g>
<!-- Node11 -->
<g id="node11" class="node">
<title>Node11</title>
<g id="a_node11"><a xlink:title="STL class.">
<polygon fill="white" stroke="#bfbfbf" points="493.5,-194.5 493.5,-224.5 597.5,-224.5 597.5,-194.5 493.5,-194.5"/>
<text text-anchor="start" x="501.5" y="-212.5" font-family="Helvetica,sans-Serif" font-size="10.00">std::basic_string&lt;</text>
<text text-anchor="middle" x="545.5" y="-201.5" font-family="Helvetica,sans-Serif" font-size="10.00"> char &gt;</text>
</a>
</g>
</g>
<!-- Node11&#45;&gt;Node10 -->
<g id="edge10" class="edge">
<title>Node11&#45;&gt;Node10</title>
<path fill="none" stroke="midnightblue" d="M607.85,-209.32C678.64,-209.1 792.34,-208.76 847.27,-208.6"/>
<polygon fill="midnightblue" stroke="midnightblue" points="607.71,-205.82 597.72,-209.35 607.73,-212.82 607.71,-205.82"/>
</g>
<!-- Node12 -->
<g id="node12" class="node">
<title>Node12</title>
<g id="a_node12"><a xlink:href="classitk_1_1MetaDataDictionary.html" target="_top" xlink:title="Provides a mechanism for storing a collection of arbitrary data types.">
<polygon fill="white" stroke="black" points="813,-292 813,-311 947,-311 947,-292 813,-292"/>
<text text-anchor="middle" x="880" y="-299" font-family="Helvetica,sans-Serif" font-size="10.00">itk::MetaDataDictionary</text>
</a>
</g>
</g>
<!-- Node12&#45;&gt;Node5 -->
<g id="edge11" class="edge">
<title>Node12&#45;&gt;Node5</title>
<path fill="none" stroke="#9a32cd" stroke-dasharray="5,2" d="M957.27,-301.17C1001.08,-301.15 1057.14,-301.41 1107,-302.5 1129.92,-303 1155.74,-304.03 1175.6,-304.91"/>
<polygon fill="#9a32cd" stroke="#9a32cd" points="957.26,-297.67 947.26,-301.18 957.27,-304.67 957.26,-297.67"/>
<text text-anchor="middle" x="1036" y="-305.5" font-family="Helvetica,sans-Serif" font-size="10.00"> m_MetaDataDictionary</text>
</g>
<!-- Node13 -->
<g id="node13" class="node">
<title>Node13</title>
<g id="a_node13"><a xlink:title=" ">
<polygon fill="white" stroke="#bfbfbf" points="471,-282.5 471,-312.5 620,-312.5 620,-282.5 471,-282.5"/>
<text text-anchor="start" x="479" y="-300.5" font-family="Helvetica,sans-Serif" font-size="10.00">std::shared_ptr&lt; MetaData</text>
<text text-anchor="middle" x="545.5" y="-289.5" font-family="Helvetica,sans-Serif" font-size="10.00">DictionaryMapType &gt;</text>
</a>
</g>
</g>
<!-- Node13&#45;&gt;Node12 -->
<g id="edge12" class="edge">
<title>Node13&#45;&gt;Node12</title>
<path fill="none" stroke="#9a32cd" stroke-dasharray="5,2" d="M630.63,-298.51C687.09,-299.19 760.43,-300.07 812.74,-300.7"/>
<polygon fill="#9a32cd" stroke="#9a32cd" points="630.33,-295.01 620.29,-298.39 630.25,-302.01 630.33,-295.01"/>
<text text-anchor="middle" x="721.5" y="-302.5" font-family="Helvetica,sans-Serif" font-size="10.00"> m_Dictionary</text>
</g>
<!-- Node14&#45;&gt;Node13 -->
<g id="edge13" class="edge">
<title>Node14&#45;&gt;Node13</title>
<path fill="none" stroke="#9a32cd" stroke-dasharray="5,2" d="M246.07,-260.92C255.74,-262.12 265.65,-263.35 275,-264.5 341.2,-272.67 416.55,-281.89 470.72,-288.5"/>
<polygon fill="#9a32cd" stroke="#9a32cd" points="246.47,-257.44 236.11,-259.68 245.61,-264.39 246.47,-257.44"/>
<text text-anchor="middle" x="359" y="-287.5" font-family="Helvetica,sans-Serif" font-size="10.00"> ptr</text>
</g>
<!-- Node14&#45;&gt;Node20 -->
<g id="edge26" class="edge">
<title>Node14&#45;&gt;Node20</title>
<path fill="none" stroke="orange" stroke-dasharray="5,2" d="M246.36,-254.03C419.95,-255.56 923.95,-259.99 1124.63,-261.76"/>
<polygon fill="orange" stroke="orange" points="246.17,-250.53 236.14,-253.94 246.11,-257.53 246.17,-250.53"/>
<text text-anchor="start" x="652" y="-272.5" font-family="Helvetica,sans-Serif" font-size="10.00"> &lt; DataObjectIdentifierType,</text>
<text text-anchor="middle" x="721.5" y="-261.5" font-family="Helvetica,sans-Serif" font-size="10.00"> bool &gt;</text>
</g>
<!-- Node14&#45;&gt;Node25 -->
<g id="edge37" class="edge">
<title>Node14&#45;&gt;Node25</title>
<path fill="none" stroke="orange" stroke-dasharray="5,2" d="M229.01,-241.11C282.66,-225.86 377.97,-200.1 461,-184.5 608.04,-156.88 647.19,-165.68 795,-142.5 870.95,-130.59 888.59,-119.05 965,-110.5 1017.97,-104.57 1077.79,-102.3 1124.88,-101.52"/>
<polygon fill="orange" stroke="orange" points="227.83,-237.81 219.17,-243.92 229.75,-244.54 227.83,-237.81"/>
<text text-anchor="start" x="652" y="-174.5" font-family="Helvetica,sans-Serif" font-size="10.00"> &lt; DataObjectIdentifierType,</text>
<text text-anchor="middle" x="721.5" y="-163.5" font-family="Helvetica,sans-Serif" font-size="10.00"> DataObjectPointer &gt;</text>
</g>
<!-- Node15 -->
<g id="node15" class="node">
<title>Node15</title>
<g id="a_node15"><a xlink:title=" ">
<polygon fill="white" stroke="#bfbfbf" points="0,-193 0,-212 29,-212 29,-193 0,-193"/>
<text text-anchor="middle" x="14.5" y="-200" font-family="Helvetica,sans-Serif" font-size="10.00">K</text>
</a>
</g>
</g>
<!-- Node15&#45;&gt;Node14 -->
<g id="edge14" class="edge">
<title>Node15&#45;&gt;Node14</title>
<path fill="none" stroke="#9a32cd" stroke-dasharray="5,2" d="M38.93,-209.57C68.62,-218.53 119.91,-234.01 153,-243.99"/>
<polygon fill="#9a32cd" stroke="#9a32cd" points="39.63,-206.13 29.04,-206.59 37.61,-212.83 39.63,-206.13"/>
<text text-anchor="middle" x="71.5" y="-229.5" font-family="Helvetica,sans-Serif" font-size="10.00"> keys</text>
</g>
<!-- Node19 -->
<g id="node19" class="node">
<title>Node19</title>
<g id="a_node19"><a xlink:title="STL class.">
<polygon fill="white" stroke="#bfbfbf" points="318,-125 318,-144 400,-144 400,-125 318,-125"/>
<text text-anchor="middle" x="359" y="-132" font-family="Helvetica,sans-Serif" font-size="10.00">std::set&lt; K &gt;</text>
</a>
</g>
</g>
<!-- Node15&#45;&gt;Node19 -->
<g id="edge23" class="edge">
<title>Node15&#45;&gt;Node19</title>
<path fill="none" stroke="#9a32cd" stroke-dasharray="5,2" d="M39.38,-197.76C97.31,-186.26 245.82,-156.77 317.76,-142.49"/>
<polygon fill="#9a32cd" stroke="#9a32cd" points="38.48,-194.37 29.35,-199.75 39.84,-201.24 38.48,-194.37"/>
<text text-anchor="middle" x="71.5" y="-198.5" font-family="Helvetica,sans-Serif" font-size="10.00"> keys</text>
</g>
<!-- Node16&#45;&gt;Node13 -->
<g id="edge16" class="edge">
<title>Node16&#45;&gt;Node13</title>
<path fill="none" stroke="orange" stroke-dasharray="5,2" d="M254.85,-318.54C316.62,-314.05 407.3,-307.46 470.69,-302.86"/>
<polygon fill="orange" stroke="orange" points="254.54,-315.05 244.82,-319.26 255.04,-322.03 254.54,-315.05"/>
<text text-anchor="middle" x="359" y="-319.5" font-family="Helvetica,sans-Serif" font-size="10.00"> &lt; MetaDataDictionaryMapType &gt;</text>
</g>
<!-- Node17&#45;&gt;Node4 -->
<g id="edge40" class="edge">
<title>Node17&#45;&gt;Node4</title>
<path fill="none" stroke="#9a32cd" stroke-dasharray="5,2" d="M936.21,-384.98C982.07,-383.26 1048.97,-379.7 1107,-372.5 1262.71,-353.17 1301.05,-342.51 1454,-307.5 1472.62,-303.24 1493.23,-297.7 1509.87,-293.01"/>
<polygon fill="#9a32cd" stroke="#9a32cd" points="936.04,-381.48 926.17,-385.34 936.29,-388.48 936.04,-381.48"/>
<text text-anchor="middle" x="1209.5" y="-372.5" font-family="Helvetica,sans-Serif" font-size="10.00"> m_OutputInformationMTime</text>
</g>
<!-- Node17&#45;&gt;Node5 -->
<g id="edge18" class="edge">
<title>Node17&#45;&gt;Node5</title>
<path fill="none" stroke="#9a32cd" stroke-dasharray="5,2" d="M919.8,-373.88C933.93,-369.57 950.09,-364.96 965,-361.5 1027.34,-347.01 1044.71,-352.21 1107,-337.5 1132.28,-331.53 1160.51,-322.73 1180.76,-316.03"/>
<polygon fill="#9a32cd" stroke="#9a32cd" points="918.44,-370.64 909.92,-376.94 920.51,-377.32 918.44,-370.64"/>
<text text-anchor="middle" x="1036" y="-364.5" font-family="Helvetica,sans-Serif" font-size="10.00"> m_MTime</text>
</g>
<!-- Node18&#45;&gt;Node4 -->
<g id="edge20" class="edge">
<title>Node18&#45;&gt;Node4</title>
<path fill="none" stroke="#9a32cd" stroke-dasharray="5,2" d="M1279.58,-192.23C1328.72,-205.43 1396.03,-224.69 1454,-245.5 1477.76,-254.03 1504.28,-265.72 1522.04,-273.87"/>
<polygon fill="#9a32cd" stroke="#9a32cd" points="1280.26,-188.79 1269.69,-189.59 1278.45,-195.55 1280.26,-188.79"/>
<text text-anchor="middle" x="1383" y="-248.5" font-family="Helvetica,sans-Serif" font-size="10.00"> m_RequiredInputNames</text>
</g>
<!-- Node19&#45;&gt;Node18 -->
<g id="edge22" class="edge">
<title>Node19&#45;&gt;Node18</title>
<path fill="none" stroke="orange" stroke-dasharray="5,2" d="M410.33,-133.82C467.81,-133.07 564.68,-131.93 648,-131.5 713.33,-131.16 729.75,-128.27 795,-131.5 934.18,-138.4 968.47,-147.43 1107,-162.5 1113.97,-163.26 1121.2,-164.07 1128.45,-164.9"/>
<polygon fill="orange" stroke="orange" points="410.02,-130.32 400.07,-133.95 410.11,-137.32 410.02,-130.32"/>
<text text-anchor="middle" x="721.5" y="-134.5" font-family="Helvetica,sans-Serif" font-size="10.00"> &lt; DataObjectIdentifierType &gt;</text>
</g>
<!-- Node20&#45;&gt;Node4 -->
<g id="edge24" class="edge">
<title>Node20&#45;&gt;Node4</title>
<path fill="none" stroke="#9a32cd" stroke-dasharray="5,2" d="M1304.2,-260.97C1349.55,-261.11 1404.72,-262.57 1454,-267.5 1468.29,-268.93 1483.74,-271.4 1497.67,-273.97"/>
<polygon fill="#9a32cd" stroke="#9a32cd" points="1304.1,-257.47 1294.09,-260.96 1304.09,-264.47 1304.1,-257.47"/>
<text text-anchor="start" x="1312" y="-281.5" font-family="Helvetica,sans-Serif" font-size="10.00"> m_CachedInputReleaseData</text>
<text text-anchor="middle" x="1383" y="-270.5" font-family="Helvetica,sans-Serif" font-size="10.00">Flags</text>
</g>
<!-- Node21&#45;&gt;Node4 -->
<g id="edge27" class="edge">
<title>Node21&#45;&gt;Node4</title>
<path fill="none" stroke="#9a32cd" stroke-dasharray="5,2" d="M798.68,-425.33C908.87,-423.9 1118.71,-416.68 1294,-384.5 1367.02,-371.1 1386.08,-366.47 1454,-336.5 1482.02,-324.14 1512.09,-304.64 1528.98,-293.06"/>
<polygon fill="#9a32cd" stroke="#9a32cd" points="798.62,-421.83 788.66,-425.45 798.7,-428.83 798.62,-421.83"/>
<text text-anchor="middle" x="1036" y="-422.5" font-family="Helvetica,sans-Serif" font-size="10.00"> m_Progress</text>
</g>
<!-- Node22 -->
<g id="node22" class="node">
<title>Node22</title>
<g id="a_node22"><a xlink:title=" ">
<polygon fill="white" stroke="#bfbfbf" points="461,-455.5 461,-485.5 630,-485.5 630,-455.5 461,-455.5"/>
<text text-anchor="start" x="469" y="-473.5" font-family="Helvetica,sans-Serif" font-size="10.00">std::vector&lt; DataObjectPointer</text>
<text text-anchor="middle" x="545.5" y="-462.5" font-family="Helvetica,sans-Serif" font-size="10.00">Map::iterator &gt;</text>
</a>
</g>
</g>
<!-- Node22&#45;&gt;Node4 -->
<g id="edge29" class="edge">
<title>Node22&#45;&gt;Node4</title>
<path fill="none" stroke="#9a32cd" stroke-dasharray="5,2" d="M640.17,-468.77C782.51,-464.82 1061.32,-451.86 1294,-409.5 1365.81,-396.43 1390.22,-407.99 1454,-372.5 1490.94,-351.95 1522.72,-311.43 1535.94,-293.02"/>
<polygon fill="#9a32cd" stroke="#9a32cd" points="640.06,-465.27 630.16,-469.04 640.25,-472.27 640.06,-465.27"/>
<text text-anchor="middle" x="1036" y="-463.5" font-family="Helvetica,sans-Serif" font-size="10.00"> m_IndexedOutputs</text>
<text text-anchor="middle" x="1036" y="-452.5" font-family="Helvetica,sans-Serif" font-size="10.00">m_IndexedInputs</text>
</g>
<!-- Node23 -->
<g id="node23" class="node">
<title>Node23</title>
<g id="a_node23"><a xlink:title="STL iterator class.">
<polygon fill="white" stroke="#bfbfbf" points="114,-496 114,-515 257,-515 257,-496 114,-496"/>
<text text-anchor="middle" x="185.5" y="-503" font-family="Helvetica,sans-Serif" font-size="10.00">std::map&lt; K, T &gt;::iterator</text>
</a>
</g>
</g>
<!-- Node23&#45;&gt;Node22 -->
<g id="edge30" class="edge">
<title>Node23&#45;&gt;Node22</title>
<path fill="none" stroke="#9a32cd" stroke-dasharray="5,2" d="M267.28,-499.44C317.83,-495.44 384.27,-489.78 443,-483.5 448.83,-482.88 454.84,-482.2 460.9,-481.49"/>
<polygon fill="#9a32cd" stroke="#9a32cd" points="266.76,-495.97 257.07,-500.25 267.31,-502.95 266.76,-495.97"/>
<text text-anchor="middle" x="359" y="-501.5" font-family="Helvetica,sans-Serif" font-size="10.00"> elements</text>
</g>
<!-- Node24&#45;&gt;Node22 -->
<g id="edge31" class="edge">
<title>Node24&#45;&gt;Node22</title>
<path fill="none" stroke="orange" stroke-dasharray="5,2" d="M244.31,-435.5C296.32,-440.97 374.81,-449.41 443,-457.5 448.82,-458.19 454.83,-458.92 460.88,-459.66"/>
<polygon fill="orange" stroke="orange" points="244.59,-432.01 234.28,-434.45 243.86,-438.97 244.59,-432.01"/>
<text text-anchor="start" x="296.5" y="-471.5" font-family="Helvetica,sans-Serif" font-size="10.00"> &lt; DataObjectPointerMap</text>
<text text-anchor="middle" x="359" y="-460.5" font-family="Helvetica,sans-Serif" font-size="10.00">::iterator &gt;</text>
</g>
<!-- Node25&#45;&gt;Node4 -->
<g id="edge33" class="edge">
<title>Node25&#45;&gt;Node4</title>
<path fill="none" stroke="#9a32cd" stroke-dasharray="5,2" d="M1304.32,-110.98C1354.06,-120.4 1413.15,-139.15 1454,-176.5 1469.59,-190.76 1459.81,-203.24 1472,-220.5 1487.72,-242.76 1512.7,-262.64 1528.31,-273.87"/>
<polygon fill="#9a32cd" stroke="#9a32cd" points="1304.64,-107.48 1294.18,-109.16 1303.41,-114.37 1304.64,-107.48"/>
<text text-anchor="middle" x="1383" y="-190.5" font-family="Helvetica,sans-Serif" font-size="10.00"> m_Outputs</text>
<text text-anchor="middle" x="1383" y="-179.5" font-family="Helvetica,sans-Serif" font-size="10.00">m_Inputs</text>
</g>
<!-- Node26 -->
<g id="node26" class="node">
<title>Node26</title>
<g id="a_node26"><a xlink:href="classitk_1_1SmartPointer.html" target="_top" xlink:title=" ">
<polygon fill="white" stroke="black" points="826.5,-42.5 826.5,-72.5 933.5,-72.5 933.5,-42.5 826.5,-42.5"/>
<text text-anchor="start" x="834.5" y="-60.5" font-family="Helvetica,sans-Serif" font-size="10.00">itk::SmartPointer&lt;</text>
<text text-anchor="middle" x="880" y="-49.5" font-family="Helvetica,sans-Serif" font-size="10.00"> Self &gt;</text>
</a>
</g>
</g>
<!-- Node26&#45;&gt;Node25 -->
<g id="edge34" class="edge">
<title>Node26&#45;&gt;Node25</title>
<path fill="none" stroke="#9a32cd" stroke-dasharray="5,2" d="M943.75,-50.72C989.49,-47.41 1052.71,-46.24 1107,-57.5 1133.7,-63.04 1162.01,-75.97 1181.93,-86.39"/>
<polygon fill="#9a32cd" stroke="#9a32cd" points="943.38,-47.24 933.68,-51.5 943.92,-54.22 943.38,-47.24"/>
<text text-anchor="middle" x="1036" y="-60.5" font-family="Helvetica,sans-Serif" font-size="10.00"> elements</text>
</g>
<!-- Node27 -->
<g id="node27" class="node">
<title>Node27</title>
<g id="a_node27"><a xlink:href="classitk_1_1SmartPointer.html" target="_top" xlink:title="Implements transparent reference counting.">
<polygon fill="white" stroke="black" points="492,-18.5 492,-48.5 599,-48.5 599,-18.5 492,-18.5"/>
<text text-anchor="start" x="500" y="-36.5" font-family="Helvetica,sans-Serif" font-size="10.00">itk::SmartPointer&lt;</text>
<text text-anchor="middle" x="545.5" y="-25.5" font-family="Helvetica,sans-Serif" font-size="10.00"> TObjectType &gt;</text>
</a>
</g>
</g>
<!-- Node27&#45;&gt;Node26 -->
<g id="edge35" class="edge">
<title>Node27&#45;&gt;Node26</title>
<path fill="none" stroke="orange" stroke-dasharray="5,2" d="M609.35,-38.04C672.08,-42.56 767.39,-49.44 826.29,-53.7"/>
<polygon fill="orange" stroke="orange" points="609.41,-34.53 599.19,-37.3 608.91,-41.51 609.41,-34.53"/>
<text text-anchor="middle" x="721.5" y="-54.5" font-family="Helvetica,sans-Serif" font-size="10.00"> &lt; Self &gt;</text>
</g>
<!-- Node28 -->
<g id="node28" class="node">
<title>Node28</title>
<g id="a_node28"><a xlink:href="classitk_1_1SmartPointer.html" target="_top" xlink:title=" ">
<polygon fill="white" stroke="black" points="965,-0.5 965,-30.5 1107,-30.5 1107,-0.5 965,-0.5"/>
<text text-anchor="start" x="973" y="-18.5" font-family="Helvetica,sans-Serif" font-size="10.00">itk::SmartPointer&lt;</text>
<text text-anchor="middle" x="1036" y="-7.5" font-family="Helvetica,sans-Serif" font-size="10.00"> itk::MultiThreaderBase &gt;</text>
</a>
</g>
</g>
<!-- Node27&#45;&gt;Node28 -->
<g id="edge39" class="edge">
<title>Node27&#45;&gt;Node28</title>
<path fill="none" stroke="orange" stroke-dasharray="5,2" d="M609.28,-28.77C622.08,-27.92 635.47,-27.11 648,-26.5 758.61,-21.12 887.13,-18.11 964.7,-16.64"/>
<polygon fill="orange" stroke="orange" points="608.9,-25.29 599.16,-29.46 609.37,-32.27 608.9,-25.29"/>
<text text-anchor="middle" x="721.5" y="-29.5" font-family="Helvetica,sans-Serif" font-size="10.00"> &lt; itk::MultiThreaderBase &gt;</text>
</g>
<!-- Node28&#45;&gt;Node4 -->
<g id="edge38" class="edge">
<title>Node28&#45;&gt;Node4</title>
<path fill="none" stroke="#9a32cd" stroke-dasharray="5,2" d="M1117.53,-8.43C1212.94,-4.94 1369.57,-15.46 1454,-109.5 1487.39,-146.69 1447.99,-176.67 1472,-220.5 1484.85,-243.97 1509.92,-263.09 1526.44,-273.89"/>
<polygon fill="#9a32cd" stroke="#9a32cd" points="1117.19,-4.94 1107.35,-8.87 1117.49,-11.94 1117.19,-4.94"/>
<text text-anchor="middle" x="1209.5" y="-26.5" font-family="Helvetica,sans-Serif" font-size="10.00"> m_MultiThreader</text>
</g>
<!-- Node29 -->
<g id="node29" class="node">
<title>Node29</title>
<g id="a_node29"><a xlink:href="structitk_1_1ImageSourceCommon.html" target="_top" xlink:title="Secondary base class of ImageSource common between templates.">
<polygon fill="white" stroke="black" points="1472,-192 1472,-211 1615,-211 1615,-192 1472,-192"/>
<text text-anchor="middle" x="1543.5" y="-199" font-family="Helvetica,sans-Serif" font-size="10.00">itk::ImageSourceCommon</text>
</a>
</g>
</g>
<!-- Node29&#45;&gt;Node3 -->
<g id="edge41" class="edge">
<title>Node29&#45;&gt;Node3</title>
<path fill="none" stroke="#8b1a1a" d="M1581.24,-214.3C1633.4,-231.9 1732.24,-263.13 1819,-278.5 1868.79,-287.32 1925.73,-291.56 1969.2,-293.61"/>
<polygon fill="#8b1a1a" stroke="#8b1a1a" points="1582.34,-210.98 1571.75,-211.08 1580.09,-217.61 1582.34,-210.98"/>
</g>
<!-- Node29&#45;&gt;Node30 -->
<g id="edge44" class="edge">
<title>Node29&#45;&gt;Node30</title>
<path fill="none" stroke="#8b1a1a" d="M1625.48,-201.5C1634.24,-201.5 1643.13,-201.5 1651.81,-201.5"/>
<polygon fill="#8b1a1a" stroke="#8b1a1a" points="1625.26,-198 1615.26,-201.5 1625.26,-205 1625.26,-198"/>
</g>
<!-- Node29&#45;&gt;Node34 -->
<g id="edge50" class="edge">
<title>Node29&#45;&gt;Node34</title>
<path fill="none" stroke="#8b1a1a" d="M1586.95,-189.27C1606.56,-184.23 1630.28,-178.99 1652,-176.5 1760.55,-164.04 1887.22,-173.45 1965.28,-181.97"/>
<polygon fill="#8b1a1a" stroke="#8b1a1a" points="1585.87,-185.93 1577.09,-191.87 1587.66,-192.7 1585.87,-185.93"/>
</g>
<!-- Node30&#45;&gt;Node3 -->
<g id="edge42" class="edge">
<title>Node30&#45;&gt;Node3</title>
<path fill="none" stroke="orange" stroke-dasharray="5,2" d="M1787.41,-219.58C1845.99,-237.26 1934.18,-263.87 1989.08,-280.43"/>
<polygon fill="orange" stroke="orange" points="1788.13,-216.14 1777.55,-216.6 1786.11,-222.84 1788.13,-216.14"/>
<text text-anchor="middle" x="1881" y="-267.5" font-family="Helvetica,sans-Serif" font-size="10.00"> &lt; Image&lt; double, 3 &gt; &gt;</text>
</g>
<!-- Node30&#45;&gt;Node34 -->
<g id="edge51" class="edge">
<title>Node30&#45;&gt;Node34</title>
<path fill="none" stroke="orange" stroke-dasharray="5,2" d="M1811.37,-198.81C1857.85,-197.32 1915.27,-195.47 1960.81,-194.01"/>
<polygon fill="orange" stroke="orange" points="1811.2,-195.31 1801.32,-199.13 1811.43,-202.31 1811.2,-195.31"/>
<text text-anchor="middle" x="1881" y="-202.5" font-family="Helvetica,sans-Serif" font-size="10.00"> &lt; TImage &gt;</text>
</g>
<!-- Node31 -->
<g id="node31" class="node">
<title>Node31</title>
<g id="a_node31"><a xlink:href="classitk_1_1Function_1_1HistogramEntropyFunction.html" target="_top" xlink:title=" ">
<polygon fill="white" stroke="black" points="2293,-226 2293,-267 2477,-267 2477,-226 2293,-226"/>
<text text-anchor="start" x="2301" y="-255" font-family="Helvetica,sans-Serif" font-size="10.00">itk::Function::Histogram</text>
<text text-anchor="start" x="2301" y="-244" font-family="Helvetica,sans-Serif" font-size="10.00">EntropyFunction&lt; SizeValueType,</text>
<text text-anchor="middle" x="2385" y="-233" font-family="Helvetica,sans-Serif" font-size="10.00"> Image&lt; double, 3 &gt; ::PixelType &gt;</text>
</a>
</g>
</g>
<!-- Node31&#45;&gt;Node2 -->
<g id="edge45" class="edge">
<title>Node31&#45;&gt;Node2</title>
<path fill="none" stroke="#9a32cd" stroke-dasharray="5,2" d="M2487.28,-252.24C2546.77,-255.61 2621.98,-259.87 2682.79,-263.31"/>
<polygon fill="#9a32cd" stroke="#9a32cd" points="2487.3,-248.73 2477.11,-251.66 2486.9,-255.72 2487.3,-248.73"/>
<text text-anchor="middle" x="2582" y="-264.5" font-family="Helvetica,sans-Serif" font-size="10.00"> m_Functor</text>
</g>
<!-- Node32 -->
<g id="node32" class="node">
<title>Node32</title>
<g id="a_node32"><a xlink:href="classitk_1_1Function_1_1HistogramEntropyFunction.html" target="_top" xlink:title=" ">
<polygon fill="white" stroke="black" points="1970,-220 1970,-261 2110,-261 2110,-220 1970,-220"/>
<text text-anchor="start" x="1978" y="-249" font-family="Helvetica,sans-Serif" font-size="10.00">itk::Function::Histogram</text>
<text text-anchor="start" x="1978" y="-238" font-family="Helvetica,sans-Serif" font-size="10.00">EntropyFunction&lt; TInput,</text>
<text text-anchor="middle" x="2040" y="-227" font-family="Helvetica,sans-Serif" font-size="10.00"> TOutput &gt;</text>
</a>
</g>
</g>
<!-- Node32&#45;&gt;Node31 -->
<g id="edge46" class="edge">
<title>Node32&#45;&gt;Node31</title>
<path fill="none" stroke="orange" stroke-dasharray="5,2" d="M2120.49,-241.89C2171.99,-242.79 2239.22,-243.97 2292.88,-244.91"/>
<polygon fill="orange" stroke="orange" points="2120.47,-238.39 2110.41,-241.71 2120.35,-245.39 2120.47,-238.39"/>
<text text-anchor="start" x="2137" y="-257.5" font-family="Helvetica,sans-Serif" font-size="10.00"> &lt; SizeValueType, Image</text>
<text text-anchor="middle" x="2204" y="-246.5" font-family="Helvetica,sans-Serif" font-size="10.00">&lt; double, 3 &gt; ::PixelType &gt;</text>
</g>
<!-- Node33 -->
<g id="node33" class="node">
<title>Node33</title>
<g id="a_node33"><a xlink:href="classitk_1_1HistogramToImageFilter.html" target="_top" xlink:title="This class takes a histogram as an input and returns an image of type specified by the functor.">
<polygon fill="white" stroke="black" points="2289,-176.5 2289,-206.5 2481,-206.5 2481,-176.5 2289,-176.5"/>
<text text-anchor="start" x="2297" y="-194.5" font-family="Helvetica,sans-Serif" font-size="10.00">itk::HistogramToImageFilter</text>
<text text-anchor="middle" x="2385" y="-183.5" font-family="Helvetica,sans-Serif" font-size="10.00">&lt; THistogram, TImage, TFunction &gt;</text>
</a>
</g>
</g>
<!-- Node33&#45;&gt;Node2 -->
<g id="edge47" class="edge">
<title>Node33&#45;&gt;Node2</title>
<path fill="none" stroke="orange" stroke-dasharray="5,2" d="M2491.15,-179.32C2544.21,-176.4 2609.02,-177.81 2665,-193.5 2696.55,-202.34 2728.17,-221.23 2751.97,-237.96"/>
<polygon fill="orange" stroke="orange" points="2490.81,-175.83 2481.05,-179.93 2491.24,-182.82 2490.81,-175.83"/>
<text text-anchor="start" x="2499" y="-240.5" font-family="Helvetica,sans-Serif" font-size="10.00"> &lt; THistogram, Image</text>
<text text-anchor="start" x="2499" y="-229.5" font-family="Helvetica,sans-Serif" font-size="10.00">&lt; double, 3 &gt;, Function</text>
<text text-anchor="start" x="2499" y="-218.5" font-family="Helvetica,sans-Serif" font-size="10.00">::HistogramEntropyFunction</text>
<text text-anchor="start" x="2499" y="-207.5" font-family="Helvetica,sans-Serif" font-size="10.00">&lt; SizeValueType, Image&lt; double,</text>
<text text-anchor="middle" x="2582" y="-196.5" font-family="Helvetica,sans-Serif" font-size="10.00"> 3 &gt; ::PixelType &gt; &gt;</text>
</g>
<!-- Node34&#45;&gt;Node33 -->
<g id="edge48" class="edge">
<title>Node34&#45;&gt;Node33</title>
<path fill="none" stroke="midnightblue" d="M2129.5,-191.5C2178.37,-191.5 2239.09,-191.5 2288.97,-191.5"/>
<polygon fill="midnightblue" stroke="midnightblue" points="2129.26,-188 2119.26,-191.5 2129.26,-195 2129.26,-188"/>
</g>
</g>
</svg>
