<?xml version="1.0" encoding="UTF-8" standalone="no"?>
<!DOCTYPE svg PUBLIC "-//W3C//DTD SVG 1.1//EN"
 "http://www.w3.org/Graphics/SVG/1.1/DTD/svg11.dtd">
<!-- Generated by graphviz version 2.43.0 (0)
 -->
<!-- Title: itk::TemporalProcessObject Pages: 1 -->
<svg width="1709pt" height="355pt"
 viewBox="0.00 0.00 1709.00 354.50" xmlns="http://www.w3.org/2000/svg" xmlns:xlink="http://www.w3.org/1999/xlink">
<g id="graph0" class="graph" transform="scale(1 1) rotate(0) translate(4 350.5)">
<title>itk::TemporalProcessObject</title>
<polygon fill="white" stroke="transparent" points="-4,4 -4,-350.5 1705,-350.5 1705,4 -4,4"/>
<!-- Node1 -->
<g id="node1" class="node">
<title>Node1</title>
<g id="a_node1"><a xlink:title="TemporalProcessObject implements a ProcessObject for the itk pipeline with the notion of a temporal r...">
<polygon fill="#bfbfbf" stroke="black" points="373,-256.5 373,-275.5 522,-275.5 522,-256.5 373,-256.5"/>
<text text-anchor="middle" x="447.5" y="-263.5" font-family="Helvetica,sans-Serif" font-size="10.00">itk::TemporalProcessObject</text>
</a>
</g>
</g>
<!-- Node5 -->
<g id="node5" class="node">
<title>Node5</title>
<g id="a_node5"><a xlink:href="classitk_1_1VideoFileWriter.html" target="_top" xlink:title="Writer that takes in a VideoStream and writes the frames to a file.">
<polygon fill="white" stroke="black" points="565.5,-316 565.5,-346 698.5,-346 698.5,-316 565.5,-316"/>
<text text-anchor="start" x="573.5" y="-334" font-family="Helvetica,sans-Serif" font-size="10.00">itk::VideoFileWriter</text>
<text text-anchor="middle" x="632" y="-323" font-family="Helvetica,sans-Serif" font-size="10.00">&lt; TInputVideoStream &gt;</text>
</a>
</g>
</g>
<!-- Node1&#45;&gt;Node5 -->
<g id="edge4" class="edge">
<title>Node1&#45;&gt;Node5</title>
<path fill="none" stroke="midnightblue" d="M482.09,-279.28C499.33,-285.99 520.71,-294.14 540,-301 554.1,-306.02 569.54,-311.22 583.63,-315.85"/>
<polygon fill="midnightblue" stroke="midnightblue" points="483.06,-275.9 472.47,-275.52 480.51,-282.42 483.06,-275.9"/>
</g>
<!-- Node6 -->
<g id="node6" class="node">
<title>Node6</title>
<g id="a_node6"><a xlink:href="classitk_1_1VideoSource.html" target="_top" xlink:title="A TemporalProcessObject that produces a VideoStream.">
<polygon fill="white" stroke="black" points="559,-191 559,-221 705,-221 705,-191 559,-191"/>
<text text-anchor="start" x="567" y="-209" font-family="Helvetica,sans-Serif" font-size="10.00">itk::VideoSource&lt; TOutput</text>
<text text-anchor="middle" x="632" y="-198" font-family="Helvetica,sans-Serif" font-size="10.00">VideoStream &gt;</text>
</a>
</g>
</g>
<!-- Node1&#45;&gt;Node6 -->
<g id="edge5" class="edge">
<title>Node1&#45;&gt;Node6</title>
<path fill="none" stroke="midnightblue" d="M487.08,-253.32C515.73,-243.9 554.91,-231.02 585.15,-221.07"/>
<polygon fill="midnightblue" stroke="midnightblue" points="485.82,-250.04 477.42,-256.49 488.01,-256.69 485.82,-250.04"/>
</g>
<!-- Node15 -->
<g id="node15" class="node">
<title>Node15</title>
<g id="a_node15"><a xlink:href="classitk_1_1VideoSource.html" target="_top" xlink:title=" ">
<polygon fill="white" stroke="black" points="873,-142 873,-172 1014,-172 1014,-142 873,-142"/>
<text text-anchor="start" x="881" y="-160" font-family="Helvetica,sans-Serif" font-size="10.00">itk::VideoSource&lt; TVideo</text>
<text text-anchor="middle" x="943.5" y="-149" font-family="Helvetica,sans-Serif" font-size="10.00">Stream &gt;</text>
</a>
</g>
</g>
<!-- Node1&#45;&gt;Node15 -->
<g id="edge19" class="edge">
<title>Node1&#45;&gt;Node15</title>
<path fill="none" stroke="midnightblue" d="M464.06,-249.04C483.87,-228.74 520.22,-195.65 559,-181 662.9,-141.73 793.87,-143.39 872.75,-149.35"/>
<polygon fill="midnightblue" stroke="midnightblue" points="461.44,-246.72 457.08,-256.38 466.51,-251.55 461.44,-246.72"/>
</g>
<!-- Node16 -->
<g id="node16" class="node">
<title>Node16</title>
<g id="a_node16"><a xlink:href="classitk_1_1VideoSource.html" target="_top" xlink:title=" ">
<polygon fill="white" stroke="black" points="856,-240.5 856,-281.5 1031,-281.5 1031,-240.5 856,-240.5"/>
<text text-anchor="start" x="864" y="-269.5" font-family="Helvetica,sans-Serif" font-size="10.00">itk::VideoSource&lt; itk</text>
<text text-anchor="start" x="864" y="-258.5" font-family="Helvetica,sans-Serif" font-size="10.00">::VideoStream&lt; TImageToImage</text>
<text text-anchor="middle" x="943.5" y="-247.5" font-family="Helvetica,sans-Serif" font-size="10.00">Filter::OutputImageType &gt; &gt;</text>
</a>
</g>
</g>
<!-- Node1&#45;&gt;Node16 -->
<g id="edge18" class="edge">
<title>Node1&#45;&gt;Node16</title>
<path fill="none" stroke="midnightblue" d="M532.52,-271.15C611.45,-275.12 732.83,-279.02 838,-273 843.83,-272.67 849.84,-272.23 855.89,-271.72"/>
<polygon fill="midnightblue" stroke="midnightblue" points="532.32,-267.63 522.15,-270.61 531.95,-274.62 532.32,-267.63"/>
</g>
<!-- Node2 -->
<g id="node2" class="node">
<title>Node2</title>
<g id="a_node2"><a xlink:href="classitk_1_1ProcessObject.html" target="_top" xlink:title="The base class for all process objects (source, filters, mappers) in the Insight data processing pipe...">
<polygon fill="white" stroke="black" points="232,-256.5 232,-275.5 336,-275.5 336,-256.5 232,-256.5"/>
<text text-anchor="middle" x="284" y="-263.5" font-family="Helvetica,sans-Serif" font-size="10.00">itk::ProcessObject</text>
</a>
</g>
</g>
<!-- Node2&#45;&gt;Node1 -->
<g id="edge1" class="edge">
<title>Node2&#45;&gt;Node1</title>
<path fill="none" stroke="midnightblue" d="M346.12,-266C354.81,-266 363.82,-266 372.72,-266"/>
<polygon fill="midnightblue" stroke="midnightblue" points="346.1,-262.5 336.1,-266 346.1,-269.5 346.1,-262.5"/>
</g>
<!-- Node3 -->
<g id="node3" class="node">
<title>Node3</title>
<g id="a_node3"><a xlink:href="classitk_1_1Object.html" target="_top" xlink:title="Base class for most ITK classes.">
<polygon fill="white" stroke="black" points="128,-256.5 128,-275.5 195,-275.5 195,-256.5 128,-256.5"/>
<text text-anchor="middle" x="161.5" y="-263.5" font-family="Helvetica,sans-Serif" font-size="10.00">itk::Object</text>
</a>
</g>
</g>
<!-- Node3&#45;&gt;Node2 -->
<g id="edge2" class="edge">
<title>Node3&#45;&gt;Node2</title>
<path fill="none" stroke="midnightblue" d="M205.26,-266C213.84,-266 222.94,-266 231.77,-266"/>
<polygon fill="midnightblue" stroke="midnightblue" points="205.11,-262.5 195.11,-266 205.11,-269.5 205.11,-262.5"/>
</g>
<!-- Node4 -->
<g id="node4" class="node">
<title>Node4</title>
<g id="a_node4"><a xlink:href="classitk_1_1LightObject.html" target="_top" xlink:title="Light weight base class for most itk classes.">
<polygon fill="white" stroke="black" points="0,-256.5 0,-275.5 91,-275.5 91,-256.5 0,-256.5"/>
<text text-anchor="middle" x="45.5" y="-263.5" font-family="Helvetica,sans-Serif" font-size="10.00">itk::LightObject</text>
</a>
</g>
</g>
<!-- Node4&#45;&gt;Node3 -->
<g id="edge3" class="edge">
<title>Node4&#45;&gt;Node3</title>
<path fill="none" stroke="midnightblue" d="M101.39,-266C110.45,-266 119.59,-266 127.88,-266"/>
<polygon fill="midnightblue" stroke="midnightblue" points="101.23,-262.5 91.23,-266 101.23,-269.5 101.23,-262.5"/>
</g>
<!-- Node7 -->
<g id="node7" class="node">
<title>Node7</title>
<g id="a_node7"><a xlink:href="classitk_1_1VideoFileReader.html" target="_top" xlink:title="Reader that creates a VideoStream.">
<polygon fill="white" stroke="black" points="873,-191 873,-221 1014,-221 1014,-191 873,-191"/>
<text text-anchor="start" x="881" y="-209" font-family="Helvetica,sans-Serif" font-size="10.00">itk::VideoFileReader</text>
<text text-anchor="middle" x="943.5" y="-198" font-family="Helvetica,sans-Serif" font-size="10.00">&lt; TOutputVideoStream &gt;</text>
</a>
</g>
</g>
<!-- Node6&#45;&gt;Node7 -->
<g id="edge6" class="edge">
<title>Node6&#45;&gt;Node7</title>
<path fill="none" stroke="midnightblue" d="M715.45,-206C764.57,-206 826.22,-206 872.88,-206"/>
<polygon fill="midnightblue" stroke="midnightblue" points="715.17,-202.5 705.17,-206 715.17,-209.5 715.17,-202.5"/>
</g>
<!-- Node8 -->
<g id="node8" class="node">
<title>Node8</title>
<g id="a_node8"><a xlink:href="classitk_1_1VideoToVideoFilter.html" target="_top" xlink:title="Base class for filters that use a VideoStream as input and output.">
<polygon fill="white" stroke="black" points="873,-93 873,-123 1014,-123 1014,-93 873,-93"/>
<text text-anchor="start" x="881" y="-111" font-family="Helvetica,sans-Serif" font-size="10.00">itk::VideoToVideoFilter</text>
<text text-anchor="middle" x="943.5" y="-100" font-family="Helvetica,sans-Serif" font-size="10.00">&lt; TOutputVideoStream &gt;</text>
</a>
</g>
</g>
<!-- Node6&#45;&gt;Node8 -->
<g id="edge7" class="edge">
<title>Node6&#45;&gt;Node8</title>
<path fill="none" stroke="midnightblue" d="M677.78,-187.04C692.11,-181.26 708.12,-175.09 723,-170 781.17,-150.11 796.82,-148.66 856,-132 866.35,-129.09 877.41,-126 888.03,-123.04"/>
<polygon fill="midnightblue" stroke="midnightblue" points="676.1,-183.95 668.17,-190.96 678.75,-190.43 676.1,-183.95"/>
</g>
<!-- Node6&#45;&gt;Node15 -->
<g id="edge14" class="edge">
<title>Node6&#45;&gt;Node15</title>
<path fill="none" stroke="orange" stroke-dasharray="5,2" d="M715.3,-192.24C717.9,-191.82 720.47,-191.41 723,-191 773.07,-182.95 829.61,-174.2 872.77,-167.59"/>
<polygon fill="orange" stroke="orange" points="714.5,-188.83 705.2,-193.89 715.63,-195.74 714.5,-188.83"/>
<text text-anchor="middle" x="780.5" y="-194" font-family="Helvetica,sans-Serif" font-size="10.00"> &lt; TVideoStream &gt;</text>
</g>
<!-- Node6&#45;&gt;Node16 -->
<g id="edge16" class="edge">
<title>Node6&#45;&gt;Node16</title>
<path fill="none" stroke="orange" stroke-dasharray="5,2" d="M715.08,-218.96C752.61,-225.05 797.61,-232.59 838,-240 843.82,-241.07 849.83,-242.2 855.87,-243.36"/>
<polygon fill="orange" stroke="orange" points="715.64,-215.5 705.21,-217.36 714.52,-222.41 715.64,-215.5"/>
<text text-anchor="start" x="723" y="-265" font-family="Helvetica,sans-Serif" font-size="10.00"> &lt; itk::VideoStream</text>
<text text-anchor="start" x="723" y="-254" font-family="Helvetica,sans-Serif" font-size="10.00">&lt; TImageToImageFilter</text>
<text text-anchor="middle" x="780.5" y="-243" font-family="Helvetica,sans-Serif" font-size="10.00">::OutputImageType &gt; &gt;</text>
</g>
<!-- Node9 -->
<g id="node9" class="node">
<title>Node9</title>
<g id="a_node9"><a xlink:href="classitk_1_1FrameAverageVideoFilter.html" target="_top" xlink:title="Average frames over a designated range in a video.">
<polygon fill="white" stroke="black" points="1269,-60.5 1269,-101.5 1463,-101.5 1463,-60.5 1269,-60.5"/>
<text text-anchor="start" x="1277" y="-89.5" font-family="Helvetica,sans-Serif" font-size="10.00">itk::FrameAverageVideoFilter</text>
<text text-anchor="start" x="1277" y="-78.5" font-family="Helvetica,sans-Serif" font-size="10.00">&lt; TInputVideoStream, TOutputVideo</text>
<text text-anchor="middle" x="1366" y="-67.5" font-family="Helvetica,sans-Serif" font-size="10.00">Stream &gt;</text>
</a>
</g>
</g>
<!-- Node8&#45;&gt;Node9 -->
<g id="edge8" class="edge">
<title>Node8&#45;&gt;Node9</title>
<path fill="none" stroke="midnightblue" d="M1024.26,-97.41C1032.61,-96.51 1040.97,-95.68 1049,-95 1122.6,-88.8 1206.09,-85.25 1268.76,-83.28"/>
<polygon fill="midnightblue" stroke="midnightblue" points="1023.67,-93.96 1014.12,-98.56 1024.45,-100.91 1023.67,-93.96"/>
</g>
<!-- Node10 -->
<g id="node10" class="node">
<title>Node10</title>
<g id="a_node10"><a xlink:href="classitk_1_1FrameDifferenceVideoFilter.html" target="_top" xlink:title="Compute the squared intensity difference between frame x and frame x+n.">
<polygon fill="white" stroke="black" points="1291.5,-0.5 1291.5,-41.5 1440.5,-41.5 1440.5,-0.5 1291.5,-0.5"/>
<text text-anchor="start" x="1299.5" y="-29.5" font-family="Helvetica,sans-Serif" font-size="10.00">itk::FrameDifferenceVideo</text>
<text text-anchor="start" x="1299.5" y="-18.5" font-family="Helvetica,sans-Serif" font-size="10.00">Filter&lt; TInputVideoStream,</text>
<text text-anchor="middle" x="1366" y="-7.5" font-family="Helvetica,sans-Serif" font-size="10.00"> TOutputVideoStream &gt;</text>
</a>
</g>
</g>
<!-- Node8&#45;&gt;Node10 -->
<g id="edge9" class="edge">
<title>Node8&#45;&gt;Node10</title>
<path fill="none" stroke="midnightblue" d="M1009.71,-90.45C1022.69,-87.16 1036.25,-83.85 1049,-81 1131.56,-62.52 1227.07,-44.9 1291.29,-33.59"/>
<polygon fill="midnightblue" stroke="midnightblue" points="1008.74,-87.09 999.93,-92.96 1010.48,-93.87 1008.74,-87.09"/>
</g>
<!-- Node11 -->
<g id="node11" class="node">
<title>Node11</title>
<g id="a_node11"><a xlink:href="classitk_1_1VideoToVideoFilter.html" target="_top" xlink:title=" ">
<polygon fill="white" stroke="black" points="1251,-209.5 1251,-272.5 1481,-272.5 1481,-209.5 1251,-209.5"/>
<text text-anchor="start" x="1259" y="-260.5" font-family="Helvetica,sans-Serif" font-size="10.00">itk::VideoToVideoFilter</text>
<text text-anchor="start" x="1259" y="-249.5" font-family="Helvetica,sans-Serif" font-size="10.00">&lt; itk::VideoStream&lt; TImageTo</text>
<text text-anchor="start" x="1259" y="-238.5" font-family="Helvetica,sans-Serif" font-size="10.00">ImageFilter::InputImageType</text>
<text text-anchor="start" x="1259" y="-227.5" font-family="Helvetica,sans-Serif" font-size="10.00"> &gt;, itk::VideoStream&lt; TImageToImageFilter</text>
<text text-anchor="middle" x="1366" y="-216.5" font-family="Helvetica,sans-Serif" font-size="10.00">::OutputImageType &gt; &gt;</text>
</a>
</g>
</g>
<!-- Node8&#45;&gt;Node11 -->
<g id="edge10" class="edge">
<title>Node8&#45;&gt;Node11</title>
<path fill="none" stroke="orange" stroke-dasharray="5,2" d="M1008.76,-125.8C1016.26,-127.88 1023.8,-129.99 1031,-132 1120.83,-157.14 1144.6,-159.2 1233,-189 1251.21,-195.14 1270.57,-202.36 1288.7,-209.44"/>
<polygon fill="orange" stroke="orange" points="1009.53,-122.38 998.96,-123.07 1007.66,-129.12 1009.53,-122.38"/>
<text text-anchor="start" x="1049" y="-236" font-family="Helvetica,sans-Serif" font-size="10.00"> &lt; itk::VideoStream</text>
<text text-anchor="start" x="1049" y="-225" font-family="Helvetica,sans-Serif" font-size="10.00">&lt; TImageToImageFilter</text>
<text text-anchor="start" x="1049" y="-214" font-family="Helvetica,sans-Serif" font-size="10.00">::InputImageType &gt;, itk</text>
<text text-anchor="start" x="1049" y="-203" font-family="Helvetica,sans-Serif" font-size="10.00">::VideoStream&lt; TImageToImageFilter</text>
<text text-anchor="middle" x="1141" y="-192" font-family="Helvetica,sans-Serif" font-size="10.00">::OutputImageType &gt; &gt;</text>
</g>
<!-- Node13 -->
<g id="node13" class="node">
<title>Node13</title>
<g id="a_node13"><a xlink:href="classitk_1_1VideoToVideoFilter.html" target="_top" xlink:title=" ">
<polygon fill="white" stroke="black" points="1274.5,-147 1274.5,-177 1457.5,-177 1457.5,-147 1274.5,-147"/>
<text text-anchor="start" x="1282.5" y="-165" font-family="Helvetica,sans-Serif" font-size="10.00">itk::VideoToVideoFilter</text>
<text text-anchor="middle" x="1366" y="-154" font-family="Helvetica,sans-Serif" font-size="10.00">&lt; TVideoStream, TVideoStream &gt;</text>
</a>
</g>
</g>
<!-- Node8&#45;&gt;Node13 -->
<g id="edge12" class="edge">
<title>Node8&#45;&gt;Node13</title>
<path fill="none" stroke="orange" stroke-dasharray="5,2" d="M1024.47,-103.19C1082.77,-101.31 1163.41,-102.11 1233,-115 1267.8,-121.45 1305.68,-135.75 1331.9,-146.89"/>
<polygon fill="orange" stroke="orange" points="1024.08,-99.7 1014.21,-103.55 1024.33,-106.7 1024.08,-99.7"/>
<text text-anchor="middle" x="1141" y="-118" font-family="Helvetica,sans-Serif" font-size="10.00"> &lt; TVideoStream, TVideoStream &gt;</text>
</g>
<!-- Node12 -->
<g id="node12" class="node">
<title>Node12</title>
<g id="a_node12"><a xlink:href="classitk_1_1ImageFilterToVideoFilterWrapper.html" target="_top" xlink:title="Wrap an ImageToImageFilter as a VideoToVideoFilter that operates on a single frame at a time.">
<polygon fill="white" stroke="black" points="1518,-226 1518,-256 1701,-256 1701,-226 1518,-226"/>
<text text-anchor="start" x="1526" y="-244" font-family="Helvetica,sans-Serif" font-size="10.00">itk::ImageFilterToVideoFilter</text>
<text text-anchor="middle" x="1609.5" y="-233" font-family="Helvetica,sans-Serif" font-size="10.00">Wrapper&lt; TImageToImageFilter &gt;</text>
</a>
</g>
</g>
<!-- Node11&#45;&gt;Node12 -->
<g id="edge11" class="edge">
<title>Node11&#45;&gt;Node12</title>
<path fill="none" stroke="midnightblue" d="M1491.16,-241C1500.13,-241 1509.08,-241 1517.8,-241"/>
<polygon fill="midnightblue" stroke="midnightblue" points="1491.03,-237.5 1481.03,-241 1491.03,-244.5 1491.03,-237.5"/>
</g>
<!-- Node14 -->
<g id="node14" class="node">
<title>Node14</title>
<g id="a_node14"><a xlink:href="classitk_1_1DecimateFramesVideoFilter.html" target="_top" xlink:title="Reduce a video&#39;s frame&#45;rate by keeping every Nth frame.">
<polygon fill="white" stroke="black" points="1536.5,-147 1536.5,-177 1682.5,-177 1682.5,-147 1536.5,-147"/>
<text text-anchor="start" x="1544.5" y="-165" font-family="Helvetica,sans-Serif" font-size="10.00">itk::DecimateFramesVideo</text>
<text text-anchor="middle" x="1609.5" y="-154" font-family="Helvetica,sans-Serif" font-size="10.00">Filter&lt; TVideoStream &gt;</text>
</a>
</g>
</g>
<!-- Node13&#45;&gt;Node14 -->
<g id="edge13" class="edge">
<title>Node13&#45;&gt;Node14</title>
<path fill="none" stroke="midnightblue" d="M1467.74,-162C1490.73,-162 1514.71,-162 1536.23,-162"/>
<polygon fill="midnightblue" stroke="midnightblue" points="1467.61,-158.5 1457.61,-162 1467.61,-165.5 1467.61,-158.5"/>
</g>
<!-- Node15&#45;&gt;Node13 -->
<g id="edge15" class="edge">
<title>Node15&#45;&gt;Node13</title>
<path fill="none" stroke="midnightblue" d="M1023.41,-176.45C1026.03,-177.86 1028.57,-179.38 1031,-181 1041.8,-188.21 1037.33,-198.31 1049,-204 1122.52,-239.82 1152.19,-216.55 1233,-204 1250.35,-201.31 1290.84,-188.02 1322.44,-177.11"/>
<polygon fill="midnightblue" stroke="midnightblue" points="1024.78,-173.22 1014.25,-172.03 1021.74,-179.53 1024.78,-173.22"/>
</g>
<!-- Node16&#45;&gt;Node11 -->
<g id="edge17" class="edge">
<title>Node16&#45;&gt;Node11</title>
<path fill="none" stroke="midnightblue" d="M1041.37,-256.39C1103.84,-253.42 1185.36,-249.54 1250.95,-246.42"/>
<polygon fill="midnightblue" stroke="midnightblue" points="1040.94,-252.91 1031.12,-256.88 1041.27,-259.9 1040.94,-252.91"/>
</g>
</g>
</svg>
