<?xml version="1.0" encoding="UTF-8" standalone="no"?>
<!DOCTYPE svg PUBLIC "-//W3C//DTD SVG 1.1//EN"
 "http://www.w3.org/Graphics/SVG/1.1/DTD/svg11.dtd">
<!-- Generated by graphviz version 2.43.0 (0)
 -->
<!-- Title: itk::FreeSurferBinaryMeshIO Pages: 1 -->
<svg width="1784pt" height="246pt"
 viewBox="0.00 0.00 1784.00 246.00" xmlns="http://www.w3.org/2000/svg" xmlns:xlink="http://www.w3.org/1999/xlink">
<g id="graph0" class="graph" transform="scale(1 1) rotate(0) translate(4 242)">
<title>itk::FreeSurferBinaryMeshIO</title>
<polygon fill="white" stroke="transparent" points="-4,4 -4,-242 1780,-242 1780,4 -4,4"/>
<!-- Node1 -->
<g id="node1" class="node">
<title>Node1</title>
<g id="a_node1"><a xlink:title="This class defines how to read Freesurfer binary surface file format. To use IO factory,...">
<polygon fill="#bfbfbf" stroke="black" points="1622,-139.5 1622,-158.5 1776,-158.5 1776,-139.5 1622,-139.5"/>
<text text-anchor="middle" x="1699" y="-146.5" font-family="Helvetica,sans-Serif" font-size="10.00">itk::FreeSurferBinaryMeshIO</text>
</a>
</g>
</g>
<!-- Node2 -->
<g id="node2" class="node">
<title>Node2</title>
<g id="a_node2"><a xlink:href="classitk_1_1MeshIOBase.html" target="_top" xlink:title="Abstract superclass defines mesh IO interface.">
<polygon fill="white" stroke="black" points="1429,-169.5 1429,-188.5 1525,-188.5 1525,-169.5 1429,-169.5"/>
<text text-anchor="middle" x="1477" y="-176.5" font-family="Helvetica,sans-Serif" font-size="10.00">itk::MeshIOBase</text>
</a>
</g>
</g>
<!-- Node2&#45;&gt;Node1 -->
<g id="edge1" class="edge">
<title>Node2&#45;&gt;Node1</title>
<path fill="none" stroke="midnightblue" d="M1535.37,-171.18C1563.8,-167.3 1598.37,-162.59 1628.32,-158.5"/>
<polygon fill="midnightblue" stroke="midnightblue" points="1534.63,-167.75 1525.2,-172.56 1535.58,-174.68 1534.63,-167.75"/>
</g>
<!-- Node3 -->
<g id="node3" class="node">
<title>Node3</title>
<g id="a_node3"><a xlink:href="classitk_1_1LightProcessObject.html" target="_top" xlink:title="LightProcessObject is the base class for all process objects (source, filters, mappers) in the Insigh...">
<polygon fill="white" stroke="black" points="1255,-125.5 1255,-144.5 1383,-144.5 1383,-125.5 1255,-125.5"/>
<text text-anchor="middle" x="1319" y="-132.5" font-family="Helvetica,sans-Serif" font-size="10.00">itk::LightProcessObject</text>
</a>
</g>
</g>
<!-- Node3&#45;&gt;Node2 -->
<g id="edge2" class="edge">
<title>Node3&#45;&gt;Node2</title>
<path fill="none" stroke="midnightblue" d="M1363.76,-147.34C1388.6,-154.35 1419.23,-162.99 1442.22,-169.47"/>
<polygon fill="midnightblue" stroke="midnightblue" points="1364.42,-143.89 1353.85,-144.55 1362.52,-150.63 1364.42,-143.89"/>
</g>
<!-- Node4 -->
<g id="node4" class="node">
<title>Node4</title>
<g id="a_node4"><a xlink:href="classitk_1_1Object.html" target="_top" xlink:title="Base class for most ITK classes.">
<polygon fill="white" stroke="black" points="1041.5,-113.5 1041.5,-132.5 1108.5,-132.5 1108.5,-113.5 1041.5,-113.5"/>
<text text-anchor="middle" x="1075" y="-120.5" font-family="Helvetica,sans-Serif" font-size="10.00">itk::Object</text>
</a>
</g>
</g>
<!-- Node4&#45;&gt;Node3 -->
<g id="edge3" class="edge">
<title>Node4&#45;&gt;Node3</title>
<path fill="none" stroke="midnightblue" d="M1118.77,-125.12C1156.45,-126.99 1211.85,-129.74 1254.67,-131.86"/>
<polygon fill="midnightblue" stroke="midnightblue" points="1118.8,-121.62 1108.64,-124.62 1118.45,-128.61 1118.8,-121.62"/>
</g>
<!-- Node5 -->
<g id="node5" class="node">
<title>Node5</title>
<g id="a_node5"><a xlink:href="classitk_1_1LightObject.html" target="_top" xlink:title="Light weight base class for most itk classes.">
<polygon fill="white" stroke="black" points="739.5,-127.5 739.5,-146.5 830.5,-146.5 830.5,-127.5 739.5,-127.5"/>
<text text-anchor="middle" x="785" y="-134.5" font-family="Helvetica,sans-Serif" font-size="10.00">itk::LightObject</text>
</a>
</g>
</g>
<!-- Node5&#45;&gt;Node4 -->
<g id="edge4" class="edge">
<title>Node5&#45;&gt;Node4</title>
<path fill="none" stroke="midnightblue" d="M840.98,-134.33C900.23,-131.45 992.56,-126.96 1041.3,-124.59"/>
<polygon fill="midnightblue" stroke="midnightblue" points="840.5,-130.85 830.68,-134.83 840.84,-137.84 840.5,-130.85"/>
</g>
<!-- Node6 -->
<g id="node6" class="node">
<title>Node6</title>
<g id="a_node6"><a xlink:title=" ">
<polygon fill="white" stroke="#bfbfbf" points="457,-127.5 457,-146.5 564,-146.5 564,-127.5 457,-127.5"/>
<text text-anchor="middle" x="510.5" y="-134.5" font-family="Helvetica,sans-Serif" font-size="10.00">std::atomic&lt; int &gt;</text>
</a>
</g>
</g>
<!-- Node6&#45;&gt;Node5 -->
<g id="edge5" class="edge">
<title>Node6&#45;&gt;Node5</title>
<path fill="none" stroke="#9a32cd" stroke-dasharray="5,2" d="M574.18,-137C624.64,-137 694.33,-137 739.29,-137"/>
<polygon fill="#9a32cd" stroke="#9a32cd" points="574.04,-133.5 564.04,-137 574.04,-140.5 574.04,-133.5"/>
<text text-anchor="middle" x="651.5" y="-140" font-family="Helvetica,sans-Serif" font-size="10.00"> m_ReferenceCount</text>
</g>
<!-- Node7 -->
<g id="node7" class="node">
<title>Node7</title>
<g id="a_node7"><a xlink:title="STL class.">
<polygon fill="white" stroke="#bfbfbf" points="123,-116.5 123,-135.5 223,-135.5 223,-116.5 123,-116.5"/>
<text text-anchor="middle" x="173" y="-123.5" font-family="Helvetica,sans-Serif" font-size="10.00">std::atomic&lt; T &gt;</text>
</a>
</g>
</g>
<!-- Node7&#45;&gt;Node6 -->
<g id="edge6" class="edge">
<title>Node7&#45;&gt;Node6</title>
<path fill="none" stroke="orange" stroke-dasharray="5,2" d="M233.38,-127.95C296.77,-130.03 396.25,-133.29 456.9,-135.28"/>
<polygon fill="orange" stroke="orange" points="233.25,-124.44 223.14,-127.61 233.02,-131.44 233.25,-124.44"/>
<text text-anchor="middle" x="334" y="-136" font-family="Helvetica,sans-Serif" font-size="10.00"> &lt; int &gt;</text>
</g>
<!-- Node16 -->
<g id="node16" class="node">
<title>Node16</title>
<g id="a_node16"><a xlink:href="classitk_1_1TimeStamp.html" target="_top" xlink:title="Generate a unique, increasing time value.">
<polygon fill="white" stroke="black" points="605.5,-88.5 605.5,-107.5 697.5,-107.5 697.5,-88.5 605.5,-88.5"/>
<text text-anchor="middle" x="651.5" y="-95.5" font-family="Helvetica,sans-Serif" font-size="10.00">itk::TimeStamp</text>
</a>
</g>
</g>
<!-- Node7&#45;&gt;Node16 -->
<g id="edge18" class="edge">
<title>Node7&#45;&gt;Node16</title>
<path fill="none" stroke="#9a32cd" stroke-dasharray="5,2" d="M233.38,-115.07C238.98,-114.27 244.59,-113.56 250,-113 378.38,-99.67 531,-97.78 605.32,-97.75"/>
<polygon fill="#9a32cd" stroke="#9a32cd" points="232.7,-111.63 223.34,-116.59 233.75,-118.55 232.7,-111.63"/>
<text text-anchor="middle" x="334" y="-116" font-family="Helvetica,sans-Serif" font-size="10.00"> m_GlobalTimeStamp</text>
</g>
<!-- Node8 -->
<g id="node8" class="node">
<title>Node8</title>
<g id="a_node8"><a xlink:title=" ">
<polygon fill="white" stroke="#bfbfbf" points="0,-99.5 0,-118.5 29,-118.5 29,-99.5 0,-99.5"/>
<text text-anchor="middle" x="14.5" y="-106.5" font-family="Helvetica,sans-Serif" font-size="10.00">T</text>
</a>
</g>
</g>
<!-- Node8&#45;&gt;Node7 -->
<g id="edge7" class="edge">
<title>Node8&#45;&gt;Node7</title>
<path fill="none" stroke="#9a32cd" stroke-dasharray="5,2" d="M39.23,-111.58C61.29,-113.97 94.84,-117.62 122.7,-120.64"/>
<polygon fill="#9a32cd" stroke="#9a32cd" points="39.43,-108.08 29.11,-110.48 38.68,-115.04 39.43,-108.08"/>
<text text-anchor="middle" x="71.5" y="-121" font-family="Helvetica,sans-Serif" font-size="10.00"> ptr</text>
</g>
<!-- Node13 -->
<g id="node13" class="node">
<title>Node13</title>
<g id="a_node13"><a xlink:title="STL class.">
<polygon fill="white" stroke="#bfbfbf" points="122.5,-21.5 122.5,-40.5 223.5,-40.5 223.5,-21.5 122.5,-21.5"/>
<text text-anchor="middle" x="173" y="-28.5" font-family="Helvetica,sans-Serif" font-size="10.00">std::map&lt; K, T &gt;</text>
</a>
</g>
</g>
<!-- Node8&#45;&gt;Node13 -->
<g id="edge14" class="edge">
<title>Node8&#45;&gt;Node13</title>
<path fill="none" stroke="#9a32cd" stroke-dasharray="5,2" d="M28.93,-91.33C34.07,-85.5 40.31,-79.39 47,-75 72,-58.58 103.84,-47.49 129.13,-40.55"/>
<polygon fill="#9a32cd" stroke="#9a32cd" points="25.91,-89.49 22.27,-99.44 31.32,-93.93 25.91,-89.49"/>
<text text-anchor="middle" x="71.5" y="-78" font-family="Helvetica,sans-Serif" font-size="10.00"> elements</text>
</g>
<!-- Node15 -->
<g id="node15" class="node">
<title>Node15</title>
<g id="a_node15"><a xlink:title="STL class.">
<polygon fill="white" stroke="#bfbfbf" points="114,-72.5 114,-91.5 232,-91.5 232,-72.5 114,-72.5"/>
<text text-anchor="middle" x="173" y="-79.5" font-family="Helvetica,sans-Serif" font-size="10.00">std::shared_ptr&lt; T &gt;</text>
</a>
</g>
</g>
<!-- Node8&#45;&gt;Node15 -->
<g id="edge16" class="edge">
<title>Node8&#45;&gt;Node15</title>
<path fill="none" stroke="#9a32cd" stroke-dasharray="5,2" d="M38.73,-100.28C41.49,-99.43 44.29,-98.64 47,-98 68.61,-92.9 92.74,-89.33 113.99,-86.88"/>
<polygon fill="#9a32cd" stroke="#9a32cd" points="37.46,-97.02 29.12,-103.55 39.71,-103.64 37.46,-97.02"/>
<text text-anchor="middle" x="71.5" y="-101" font-family="Helvetica,sans-Serif" font-size="10.00"> ptr</text>
</g>
<!-- Node18 -->
<g id="node18" class="node">
<title>Node18</title>
<g id="a_node18"><a xlink:title="STL class.">
<polygon fill="white" stroke="#bfbfbf" points="285.5,-190.5 285.5,-209.5 382.5,-209.5 382.5,-190.5 285.5,-190.5"/>
<text text-anchor="middle" x="334" y="-197.5" font-family="Helvetica,sans-Serif" font-size="10.00">std::vector&lt; T &gt;</text>
</a>
</g>
</g>
<!-- Node8&#45;&gt;Node18 -->
<g id="edge23" class="edge">
<title>Node8&#45;&gt;Node18</title>
<path fill="none" stroke="#9a32cd" stroke-dasharray="5,2" d="M33.71,-124.9C37.87,-127.94 42.42,-130.84 47,-133 125.88,-170.19 226.99,-187.59 285.44,-195.05"/>
<polygon fill="#9a32cd" stroke="#9a32cd" points="35.85,-122.13 25.84,-118.66 31.5,-127.62 35.85,-122.13"/>
<text text-anchor="middle" x="71.5" y="-155" font-family="Helvetica,sans-Serif" font-size="10.00"> elements</text>
</g>
<!-- Node9 -->
<g id="node9" class="node">
<title>Node9</title>
<g id="a_node9"><a xlink:title="STL class.">
<polygon fill="white" stroke="#bfbfbf" points="752.5,-172.5 752.5,-191.5 817.5,-191.5 817.5,-172.5 752.5,-172.5"/>
<text text-anchor="middle" x="785" y="-179.5" font-family="Helvetica,sans-Serif" font-size="10.00">std::string</text>
</a>
</g>
</g>
<!-- Node9&#45;&gt;Node2 -->
<g id="edge19" class="edge">
<title>Node9&#45;&gt;Node2</title>
<path fill="none" stroke="#9a32cd" stroke-dasharray="5,2" d="M827.92,-181.82C949.37,-181.29 1300.94,-179.76 1428.8,-179.21"/>
<polygon fill="#9a32cd" stroke="#9a32cd" points="827.88,-178.32 817.9,-181.86 827.91,-185.32 827.88,-178.32"/>
<text text-anchor="middle" x="1195.5" y="-183" font-family="Helvetica,sans-Serif" font-size="10.00"> m_FileName</text>
</g>
<!-- Node9&#45;&gt;Node4 -->
<g id="edge8" class="edge">
<title>Node9&#45;&gt;Node4</title>
<path fill="none" stroke="#9a32cd" stroke-dasharray="5,2" d="M824.8,-169.36C838.93,-165.05 855.09,-160.45 870,-157 929.82,-143.17 1000.75,-132.65 1041.25,-127.18"/>
<polygon fill="#9a32cd" stroke="#9a32cd" points="823.43,-166.12 814.92,-172.43 825.51,-172.8 823.43,-166.12"/>
<text text-anchor="middle" x="928.5" y="-160" font-family="Helvetica,sans-Serif" font-size="10.00"> m_ObjectName</text>
</g>
<!-- Node17 -->
<g id="node17" class="node">
<title>Node17</title>
<g id="a_node17"><a xlink:title=" ">
<polygon fill="white" stroke="#bfbfbf" points="1005,-218.5 1005,-237.5 1145,-237.5 1145,-218.5 1005,-218.5"/>
<text text-anchor="middle" x="1075" y="-225.5" font-family="Helvetica,sans-Serif" font-size="10.00">std::vector&lt; std::string &gt;</text>
</a>
</g>
</g>
<!-- Node9&#45;&gt;Node17 -->
<g id="edge21" class="edge">
<title>Node9&#45;&gt;Node17</title>
<path fill="none" stroke="#9a32cd" stroke-dasharray="5,2" d="M827.59,-188.64C876.62,-196.47 958.48,-209.55 1014.29,-218.46"/>
<polygon fill="#9a32cd" stroke="#9a32cd" points="828.07,-185.18 817.64,-187.05 826.97,-192.09 828.07,-185.18"/>
<text text-anchor="middle" x="928.5" y="-216" font-family="Helvetica,sans-Serif" font-size="10.00"> elements</text>
</g>
<!-- Node10 -->
<g id="node10" class="node">
<title>Node10</title>
<g id="a_node10"><a xlink:title="STL class.">
<polygon fill="white" stroke="#bfbfbf" points="458.5,-167 458.5,-197 562.5,-197 562.5,-167 458.5,-167"/>
<text text-anchor="start" x="466.5" y="-185" font-family="Helvetica,sans-Serif" font-size="10.00">std::basic_string&lt;</text>
<text text-anchor="middle" x="510.5" y="-174" font-family="Helvetica,sans-Serif" font-size="10.00"> char &gt;</text>
</a>
</g>
</g>
<!-- Node10&#45;&gt;Node9 -->
<g id="edge9" class="edge">
<title>Node10&#45;&gt;Node9</title>
<path fill="none" stroke="midnightblue" d="M572.85,-182C628.49,-182 708.3,-182 752.14,-182"/>
<polygon fill="midnightblue" stroke="midnightblue" points="572.76,-178.5 562.76,-182 572.76,-185.5 572.76,-178.5"/>
</g>
<!-- Node11 -->
<g id="node11" class="node">
<title>Node11</title>
<g id="a_node11"><a xlink:href="classitk_1_1MetaDataDictionary.html" target="_top" xlink:title="Provides a mechanism for storing a collection of arbitrary data types.">
<polygon fill="white" stroke="black" points="718,-42.5 718,-61.5 852,-61.5 852,-42.5 718,-42.5"/>
<text text-anchor="middle" x="785" y="-49.5" font-family="Helvetica,sans-Serif" font-size="10.00">itk::MetaDataDictionary</text>
</a>
</g>
</g>
<!-- Node11&#45;&gt;Node4 -->
<g id="edge10" class="edge">
<title>Node11&#45;&gt;Node4</title>
<path fill="none" stroke="#9a32cd" stroke-dasharray="5,2" d="M862.19,-52.52C900.43,-54.64 947.01,-60.06 987,-73 988.9,-73.61 1032.54,-98.9 1057.27,-113.27"/>
<polygon fill="#9a32cd" stroke="#9a32cd" points="862.31,-49.02 852.15,-52.03 861.96,-56.02 862.31,-49.02"/>
<text text-anchor="middle" x="928.5" y="-76" font-family="Helvetica,sans-Serif" font-size="10.00"> m_MetaDataDictionary</text>
</g>
<!-- Node12 -->
<g id="node12" class="node">
<title>Node12</title>
<g id="a_node12"><a xlink:title=" ">
<polygon fill="white" stroke="#bfbfbf" points="436,-39 436,-69 585,-69 585,-39 436,-39"/>
<text text-anchor="start" x="444" y="-57" font-family="Helvetica,sans-Serif" font-size="10.00">std::shared_ptr&lt; MetaData</text>
<text text-anchor="middle" x="510.5" y="-46" font-family="Helvetica,sans-Serif" font-size="10.00">DictionaryMapType &gt;</text>
</a>
</g>
</g>
<!-- Node12&#45;&gt;Node11 -->
<g id="edge11" class="edge">
<title>Node12&#45;&gt;Node11</title>
<path fill="none" stroke="#9a32cd" stroke-dasharray="5,2" d="M595.34,-53.38C634.65,-53.1 680.82,-52.76 717.65,-52.49"/>
<polygon fill="#9a32cd" stroke="#9a32cd" points="595.22,-49.89 585.24,-53.46 595.27,-56.89 595.22,-49.89"/>
<text text-anchor="middle" x="651.5" y="-57" font-family="Helvetica,sans-Serif" font-size="10.00"> m_Dictionary</text>
</g>
<!-- Node13&#45;&gt;Node12 -->
<g id="edge12" class="edge">
<title>Node13&#45;&gt;Node12</title>
<path fill="none" stroke="#9a32cd" stroke-dasharray="5,2" d="M233.96,-27.39C283.5,-25.34 355.57,-24.47 418,-32 430.49,-33.51 443.74,-36.1 456.17,-38.98"/>
<polygon fill="#9a32cd" stroke="#9a32cd" points="233.58,-23.91 223.74,-27.85 233.89,-30.9 233.58,-23.91"/>
<text text-anchor="middle" x="334" y="-35" font-family="Helvetica,sans-Serif" font-size="10.00"> ptr</text>
</g>
<!-- Node14 -->
<g id="node14" class="node">
<title>Node14</title>
<g id="a_node14"><a xlink:title=" ">
<polygon fill="white" stroke="#bfbfbf" points="0,-14.5 0,-33.5 29,-33.5 29,-14.5 0,-14.5"/>
<text text-anchor="middle" x="14.5" y="-21.5" font-family="Helvetica,sans-Serif" font-size="10.00">K</text>
</a>
</g>
</g>
<!-- Node14&#45;&gt;Node13 -->
<g id="edge13" class="edge">
<title>Node14&#45;&gt;Node13</title>
<path fill="none" stroke="#9a32cd" stroke-dasharray="5,2" d="M39.29,-23.88C55.32,-23.9 76.94,-24.13 96,-25 104.46,-25.39 113.44,-25.95 122.15,-26.59"/>
<polygon fill="#9a32cd" stroke="#9a32cd" points="39.18,-20.38 29.18,-23.89 39.19,-27.38 39.18,-20.38"/>
<text text-anchor="middle" x="71.5" y="-28" font-family="Helvetica,sans-Serif" font-size="10.00"> keys</text>
</g>
<!-- Node15&#45;&gt;Node12 -->
<g id="edge15" class="edge">
<title>Node15&#45;&gt;Node12</title>
<path fill="none" stroke="orange" stroke-dasharray="5,2" d="M223.11,-70.45C232.02,-68.71 241.25,-67.12 250,-66 312.41,-58.04 383.86,-55.19 435.96,-54.25"/>
<polygon fill="orange" stroke="orange" points="222.33,-67.04 213.24,-72.48 223.74,-73.9 222.33,-67.04"/>
<text text-anchor="middle" x="334" y="-69" font-family="Helvetica,sans-Serif" font-size="10.00"> &lt; MetaDataDictionaryMapType &gt;</text>
</g>
<!-- Node16&#45;&gt;Node4 -->
<g id="edge17" class="edge">
<title>Node16&#45;&gt;Node4</title>
<path fill="none" stroke="#9a32cd" stroke-dasharray="5,2" d="M707.78,-100.09C747.83,-101.71 803.29,-104.15 852,-107 919.31,-110.94 998.01,-116.94 1041.29,-120.37"/>
<polygon fill="#9a32cd" stroke="#9a32cd" points="707.81,-96.59 697.68,-99.69 707.53,-103.59 707.81,-96.59"/>
<text text-anchor="middle" x="785" y="-110" font-family="Helvetica,sans-Serif" font-size="10.00"> m_MTime</text>
</g>
<!-- Node17&#45;&gt;Node2 -->
<g id="edge20" class="edge">
<title>Node17&#45;&gt;Node2</title>
<path fill="none" stroke="#9a32cd" stroke-dasharray="5,2" d="M1155.32,-224.02C1223.51,-219.74 1324.27,-211.38 1411,-196 1421.8,-194.09 1433.43,-191.28 1443.83,-188.51"/>
<polygon fill="#9a32cd" stroke="#9a32cd" points="1154.85,-220.54 1145.09,-224.65 1155.28,-227.53 1154.85,-220.54"/>
<text text-anchor="middle" x="1319" y="-230" font-family="Helvetica,sans-Serif" font-size="10.00"> m_SupportedReadExtensions</text>
<text text-anchor="middle" x="1319" y="-219" font-family="Helvetica,sans-Serif" font-size="10.00">m_SupportedWriteExtensions</text>
</g>
<!-- Node18&#45;&gt;Node17 -->
<g id="edge22" class="edge">
<title>Node18&#45;&gt;Node17</title>
<path fill="none" stroke="orange" stroke-dasharray="5,2" d="M392.63,-204.23C406.81,-205.2 421.95,-206.19 436,-207 628.77,-218.12 676.97,-222.08 870,-227 914.79,-228.14 965.12,-228.4 1004.59,-228.37"/>
<polygon fill="orange" stroke="orange" points="392.73,-200.72 382.51,-203.52 392.24,-207.71 392.73,-200.72"/>
<text text-anchor="middle" x="651.5" y="-224" font-family="Helvetica,sans-Serif" font-size="10.00"> &lt; std::string &gt;</text>
</g>
<!-- Node19 -->
<g id="node19" class="node">
<title>Node19</title>
<g id="a_node19"><a xlink:title="STL class.">
<polygon fill="white" stroke="#bfbfbf" points="1437.5,-120.5 1437.5,-139.5 1516.5,-139.5 1516.5,-120.5 1437.5,-120.5"/>
<text text-anchor="middle" x="1477" y="-127.5" font-family="Helvetica,sans-Serif" font-size="10.00">std::ifstream</text>
</a>
</g>
</g>
<!-- Node19&#45;&gt;Node1 -->
<g id="edge24" class="edge">
<title>Node19&#45;&gt;Node1</title>
<path fill="none" stroke="#9a32cd" stroke-dasharray="5,2" d="M1526.64,-133.68C1550.04,-135.49 1578.48,-137.77 1604,-140 1609.8,-140.51 1615.8,-141.05 1621.83,-141.6"/>
<polygon fill="#9a32cd" stroke="#9a32cd" points="1526.86,-130.18 1516.62,-132.9 1526.32,-137.16 1526.86,-130.18"/>
<text text-anchor="middle" x="1573.5" y="-143" font-family="Helvetica,sans-Serif" font-size="10.00"> m_InputFile</text>
</g>
<!-- Node20 -->
<g id="node20" class="node">
<title>Node20</title>
<g id="a_node20"><a xlink:title="STL class.">
<polygon fill="white" stroke="#bfbfbf" points="1264,-76 1264,-106 1374,-106 1374,-76 1264,-76"/>
<text text-anchor="start" x="1272" y="-94" font-family="Helvetica,sans-Serif" font-size="10.00">std::basic_ifstream</text>
<text text-anchor="middle" x="1319" y="-83" font-family="Helvetica,sans-Serif" font-size="10.00">&lt; char &gt;</text>
</a>
</g>
</g>
<!-- Node20&#45;&gt;Node19 -->
<g id="edge25" class="edge">
<title>Node20&#45;&gt;Node19</title>
<path fill="none" stroke="midnightblue" d="M1383.85,-106.96C1402.12,-111.53 1421.47,-116.37 1437.69,-120.42"/>
<polygon fill="midnightblue" stroke="midnightblue" points="1384.67,-103.56 1374.12,-104.53 1382.98,-110.35 1384.67,-103.56"/>
</g>
<!-- Node21 -->
<g id="node21" class="node">
<title>Node21</title>
<g id="a_node21"><a xlink:title="STL class.">
<polygon fill="white" stroke="#bfbfbf" points="1022,-44 1022,-74 1128,-74 1128,-44 1022,-44"/>
<text text-anchor="start" x="1030" y="-62" font-family="Helvetica,sans-Serif" font-size="10.00">std::basic_istream</text>
<text text-anchor="middle" x="1075" y="-51" font-family="Helvetica,sans-Serif" font-size="10.00">&lt; Char &gt;</text>
</a>
</g>
</g>
<!-- Node21&#45;&gt;Node20 -->
<g id="edge26" class="edge">
<title>Node21&#45;&gt;Node20</title>
<path fill="none" stroke="midnightblue" d="M1138.35,-67.24C1177.16,-72.38 1226.6,-78.91 1263.78,-83.83"/>
<polygon fill="midnightblue" stroke="midnightblue" points="1138.59,-63.75 1128.21,-65.9 1137.67,-70.68 1138.59,-63.75"/>
</g>
<!-- Node22 -->
<g id="node22" class="node">
<title>Node22</title>
<g id="a_node22"><a xlink:title="STL class.">
<polygon fill="white" stroke="#bfbfbf" points="721,-2.5 721,-21.5 849,-21.5 849,-2.5 721,-2.5"/>
<text text-anchor="middle" x="785" y="-9.5" font-family="Helvetica,sans-Serif" font-size="10.00">std::basic_ios&lt; Char &gt;</text>
</a>
</g>
</g>
<!-- Node22&#45;&gt;Node21 -->
<g id="edge27" class="edge">
<title>Node22&#45;&gt;Node21</title>
<path fill="none" stroke="midnightblue" d="M857.23,-23.11C895.68,-29.17 943.96,-36.86 987,-44 998.19,-45.86 1010.18,-47.89 1021.57,-49.85"/>
<polygon fill="midnightblue" stroke="midnightblue" points="857.59,-19.63 847.17,-21.53 856.5,-26.54 857.59,-19.63"/>
</g>
<!-- Node23 -->
<g id="node23" class="node">
<title>Node23</title>
<g id="a_node23"><a xlink:title="STL class.">
<polygon fill="white" stroke="#bfbfbf" points="470.5,-0.5 470.5,-19.5 550.5,-19.5 550.5,-0.5 470.5,-0.5"/>
<text text-anchor="middle" x="510.5" y="-7.5" font-family="Helvetica,sans-Serif" font-size="10.00">std::ios_base</text>
</a>
</g>
</g>
<!-- Node23&#45;&gt;Node22 -->
<g id="edge28" class="edge">
<title>Node23&#45;&gt;Node22</title>
<path fill="none" stroke="midnightblue" d="M560.61,-10.36C605.46,-10.69 672.03,-11.18 720.82,-11.54"/>
<polygon fill="midnightblue" stroke="midnightblue" points="560.57,-6.86 550.54,-10.29 560.52,-13.86 560.57,-6.86"/>
</g>
</g>
</svg>
