<?xml version="1.0" encoding="UTF-8" standalone="no"?>
<!DOCTYPE svg PUBLIC "-//W3C//DTD SVG 1.1//EN"
 "http://www.w3.org/Graphics/SVG/1.1/DTD/svg11.dtd">
<!-- Generated by graphviz version 2.43.0 (0)
 -->
<!-- Title: itk::NumericTraits&lt; Point&lt; T, D &gt; &gt; Pages: 1 -->
<svg width="228pt" height="263pt"
 viewBox="0.00 0.00 228.00 263.00" xmlns="http://www.w3.org/2000/svg" xmlns:xlink="http://www.w3.org/1999/xlink">
<g id="graph0" class="graph" transform="scale(1 1) rotate(0) translate(4 259)">
<title>itk::NumericTraits&lt; Point&lt; T, D &gt; &gt;</title>
<polygon fill="white" stroke="transparent" points="-4,4 -4,-259 224,-259 224,4 -4,4"/>
<!-- Node1 -->
<g id="node1" class="node">
<title>Node1</title>
<g id="a_node1"><a xlink:title="NumericTraits for Point.">
<polygon fill="#bfbfbf" stroke="black" points="34,-0.5 34,-30.5 140,-30.5 140,-0.5 34,-0.5"/>
<text text-anchor="start" x="42" y="-18.5" font-family="Helvetica,sans-Serif" font-size="10.00">itk::NumericTraits</text>
<text text-anchor="middle" x="87" y="-7.5" font-family="Helvetica,sans-Serif" font-size="10.00">&lt; Point&lt; T, D &gt; &gt;</text>
</a>
</g>
</g>
<!-- Node2 -->
<g id="node2" class="node">
<title>Node2</title>
<g id="a_node2"><a xlink:href="classitk_1_1Point.html" target="_top" xlink:title="A templated class holding a geometric point in n&#45;Dimensional space.">
<polygon fill="white" stroke="black" points="23.5,-89.5 23.5,-119.5 150.5,-119.5 150.5,-89.5 23.5,-89.5"/>
<text text-anchor="start" x="31.5" y="-107.5" font-family="Helvetica,sans-Serif" font-size="10.00">itk::Point&lt; TCoordRep,</text>
<text text-anchor="middle" x="87" y="-96.5" font-family="Helvetica,sans-Serif" font-size="10.00"> NPointDimension &gt;</text>
</a>
</g>
</g>
<!-- Node2&#45;&gt;Node1 -->
<g id="edge1" class="edge">
<title>Node2&#45;&gt;Node1</title>
<path fill="none" stroke="#9a32cd" stroke-dasharray="5,2" d="M87,-79.09C87,-63.44 87,-43.68 87,-30.6"/>
<polygon fill="#9a32cd" stroke="#9a32cd" points="83.5,-79.13 87,-89.13 90.5,-79.13 83.5,-79.13"/>
<text text-anchor="middle" x="98.5" y="-63" font-family="Helvetica,sans-Serif" font-size="10.00"> One</text>
<text text-anchor="middle" x="98.5" y="-52" font-family="Helvetica,sans-Serif" font-size="10.00">Zero</text>
</g>
<!-- Node3 -->
<g id="node3" class="node">
<title>Node3</title>
<g id="a_node3"><a xlink:href="classitk_1_1FixedArray.html" target="_top" xlink:title=" ">
<polygon fill="white" stroke="black" points="0,-157.5 0,-176.5 174,-176.5 174,-157.5 0,-157.5"/>
<text text-anchor="middle" x="87" y="-164.5" font-family="Helvetica,sans-Serif" font-size="10.00">itk::FixedArray&lt; TCoordRep, 3 &gt;</text>
</a>
</g>
</g>
<!-- Node3&#45;&gt;Node2 -->
<g id="edge2" class="edge">
<title>Node3&#45;&gt;Node2</title>
<path fill="none" stroke="midnightblue" d="M87,-147.22C87,-138.36 87,-127.96 87,-119.76"/>
<polygon fill="midnightblue" stroke="midnightblue" points="83.5,-147.33 87,-157.33 90.5,-147.33 83.5,-147.33"/>
</g>
<!-- Node4 -->
<g id="node4" class="node">
<title>Node4</title>
<g id="a_node4"><a xlink:title=" ">
<polygon fill="white" stroke="#bfbfbf" points="3,-230 3,-249 59,-249 59,-230 3,-230"/>
<text text-anchor="middle" x="31" y="-237" font-family="Helvetica,sans-Serif" font-size="10.00">VLength</text>
</a>
</g>
</g>
<!-- Node4&#45;&gt;Node3 -->
<g id="edge3" class="edge">
<title>Node4&#45;&gt;Node3</title>
<path fill="none" stroke="#9a32cd" stroke-dasharray="5,2" d="M31.47,-219.8C32.49,-211.55 34.84,-202.13 40,-195 45.85,-186.92 54.91,-180.9 63.53,-176.62"/>
<polygon fill="#9a32cd" stroke="#9a32cd" points="27.97,-219.78 30.77,-230 34.95,-220.26 27.97,-219.78"/>
<text text-anchor="middle" x="81" y="-198" font-family="Helvetica,sans-Serif" font-size="10.00"> m_InternalArray</text>
</g>
<!-- Node5 -->
<g id="node5" class="node">
<title>Node5</title>
<g id="a_node5"><a xlink:href="classitk_1_1FixedArray.html" target="_top" xlink:title="Simulate a standard C array with copy semantics.">
<polygon fill="white" stroke="black" points="77,-224.5 77,-254.5 211,-254.5 211,-224.5 77,-224.5"/>
<text text-anchor="start" x="85" y="-242.5" font-family="Helvetica,sans-Serif" font-size="10.00">itk::FixedArray&lt; TValue,</text>
<text text-anchor="middle" x="144" y="-231.5" font-family="Helvetica,sans-Serif" font-size="10.00"> VLength &gt;</text>
</a>
</g>
</g>
<!-- Node5&#45;&gt;Node3 -->
<g id="edge4" class="edge">
<title>Node5&#45;&gt;Node3</title>
<path fill="none" stroke="orange" stroke-dasharray="5,2" d="M134.37,-214.76C131.02,-207.99 126.86,-200.87 122,-195 116.03,-187.78 107.8,-181.31 100.83,-176.52"/>
<polygon fill="orange" stroke="orange" points="131.36,-216.59 138.7,-224.23 137.73,-213.68 131.36,-216.59"/>
<text text-anchor="middle" x="174.5" y="-198" font-family="Helvetica,sans-Serif" font-size="10.00"> &lt; TCoordRep, 3 &gt;</text>
</g>
</g>
</svg>
