<?xml version="1.0" encoding="UTF-8" standalone="no"?>
<!DOCTYPE svg PUBLIC "-//W3C//DTD SVG 1.1//EN"
 "http://www.w3.org/Graphics/SVG/1.1/DTD/svg11.dtd">
<!-- Generated by graphviz version 2.43.0 (0)
 -->
<!-- Title: itk::KernelFunctionBase&lt; TRealValueType &gt; Pages: 1 -->
<svg width="139pt" height="218pt"
 viewBox="0.00 0.00 139.00 218.00" xmlns="http://www.w3.org/2000/svg" xmlns:xlink="http://www.w3.org/1999/xlink">
<g id="graph0" class="graph" transform="scale(1 1) rotate(0) translate(4 214)">
<title>itk::KernelFunctionBase&lt; TRealValueType &gt;</title>
<polygon fill="white" stroke="transparent" points="-4,4 -4,-214 135,-214 135,4 -4,4"/>
<!-- Node1 -->
<g id="node1" class="node">
<title>Node1</title>
<g id="a_node1"><a xlink:title="Kernel used for density estimation and nonparametric regression.">
<polygon fill="#bfbfbf" stroke="black" points="0,-0.5 0,-30.5 131,-30.5 131,-0.5 0,-0.5"/>
<text text-anchor="start" x="8" y="-18.5" font-family="Helvetica,sans-Serif" font-size="10.00">itk::KernelFunctionBase</text>
<text text-anchor="middle" x="65.5" y="-7.5" font-family="Helvetica,sans-Serif" font-size="10.00">&lt; TRealValueType &gt;</text>
</a>
</g>
</g>
<!-- Node2 -->
<g id="node2" class="node">
<title>Node2</title>
<g id="a_node2"><a xlink:href="classitk_1_1FunctionBase.html" target="_top" xlink:title=" ">
<polygon fill="white" stroke="black" points="11,-67.5 11,-97.5 120,-97.5 120,-67.5 11,-67.5"/>
<text text-anchor="start" x="19" y="-85.5" font-family="Helvetica,sans-Serif" font-size="10.00">itk::FunctionBase&lt;</text>
<text text-anchor="middle" x="65.5" y="-74.5" font-family="Helvetica,sans-Serif" font-size="10.00"> double, double &gt;</text>
</a>
</g>
</g>
<!-- Node2&#45;&gt;Node1 -->
<g id="edge1" class="edge">
<title>Node2&#45;&gt;Node1</title>
<path fill="none" stroke="midnightblue" d="M65.5,-57.11C65.5,-48.15 65.5,-38.32 65.5,-30.58"/>
<polygon fill="midnightblue" stroke="midnightblue" points="62,-57.4 65.5,-67.4 69,-57.4 62,-57.4"/>
</g>
<!-- Node3 -->
<g id="node3" class="node">
<title>Node3</title>
<g id="a_node3"><a xlink:href="classitk_1_1Object.html" target="_top" xlink:title="Base class for most ITK classes.">
<polygon fill="white" stroke="black" points="32,-134.5 32,-153.5 99,-153.5 99,-134.5 32,-134.5"/>
<text text-anchor="middle" x="65.5" y="-141.5" font-family="Helvetica,sans-Serif" font-size="10.00">itk::Object</text>
</a>
</g>
</g>
<!-- Node3&#45;&gt;Node2 -->
<g id="edge2" class="edge">
<title>Node3&#45;&gt;Node2</title>
<path fill="none" stroke="midnightblue" d="M65.5,-124.23C65.5,-115.59 65.5,-105.5 65.5,-97.52"/>
<polygon fill="midnightblue" stroke="midnightblue" points="62,-124.48 65.5,-134.48 69,-124.48 62,-124.48"/>
</g>
<!-- Node4 -->
<g id="node4" class="node">
<title>Node4</title>
<g id="a_node4"><a xlink:href="classitk_1_1LightObject.html" target="_top" xlink:title="Light weight base class for most itk classes.">
<polygon fill="white" stroke="black" points="20,-190.5 20,-209.5 111,-209.5 111,-190.5 20,-190.5"/>
<text text-anchor="middle" x="65.5" y="-197.5" font-family="Helvetica,sans-Serif" font-size="10.00">itk::LightObject</text>
</a>
</g>
</g>
<!-- Node4&#45;&gt;Node3 -->
<g id="edge3" class="edge">
<title>Node4&#45;&gt;Node3</title>
<path fill="none" stroke="midnightblue" d="M65.5,-179.8C65.5,-170.91 65.5,-160.78 65.5,-153.75"/>
<polygon fill="midnightblue" stroke="midnightblue" points="62,-180.08 65.5,-190.08 69,-180.08 62,-180.08"/>
</g>
</g>
</svg>
