<?xml version="1.0" encoding="UTF-8" standalone="no"?>
<!DOCTYPE svg PUBLIC "-//W3C//DTD SVG 1.1//EN"
 "http://www.w3.org/Graphics/SVG/1.1/DTD/svg11.dtd">
<!-- Generated by graphviz version 2.43.0 (0)
 -->
<!-- Title: itk::IsoDataThresholdCalculator&lt; THistogram, TOutput &gt; Pages: 1 -->
<svg width="296pt" height="356pt"
 viewBox="0.00 0.00 296.00 356.00" xmlns="http://www.w3.org/2000/svg" xmlns:xlink="http://www.w3.org/1999/xlink">
<g id="graph0" class="graph" transform="scale(1 1) rotate(0) translate(4 352)">
<title>itk::IsoDataThresholdCalculator&lt; THistogram, TOutput &gt;</title>
<polygon fill="white" stroke="transparent" points="-4,4 -4,-352 292,-352 292,4 -4,4"/>
<!-- Node1 -->
<g id="node1" class="node">
<title>Node1</title>
<g id="a_node1"><a xlink:title="Computes the IsoData threshold for an image. Aka intermeans.">
<polygon fill="#bfbfbf" stroke="black" points="7,-0.5 7,-30.5 177,-30.5 177,-0.5 7,-0.5"/>
<text text-anchor="start" x="15" y="-18.5" font-family="Helvetica,sans-Serif" font-size="10.00">itk::IsoDataThresholdCalculator</text>
<text text-anchor="middle" x="92" y="-7.5" font-family="Helvetica,sans-Serif" font-size="10.00">&lt; THistogram, TOutput &gt;</text>
</a>
</g>
</g>
<!-- Node2 -->
<g id="node2" class="node">
<title>Node2</title>
<g id="a_node2"><a xlink:href="classitk_1_1HistogramThresholdCalculator.html" target="_top" xlink:title=" ">
<polygon fill="white" stroke="black" points="0,-68.5 0,-98.5 184,-98.5 184,-68.5 0,-68.5"/>
<text text-anchor="start" x="8" y="-86.5" font-family="Helvetica,sans-Serif" font-size="10.00">itk::HistogramThresholdCalculator</text>
<text text-anchor="middle" x="92" y="-75.5" font-family="Helvetica,sans-Serif" font-size="10.00">&lt; THistogram, double &gt;</text>
</a>
</g>
</g>
<!-- Node2&#45;&gt;Node1 -->
<g id="edge1" class="edge">
<title>Node2&#45;&gt;Node1</title>
<path fill="none" stroke="midnightblue" d="M92,-58.03C92,-48.86 92,-38.74 92,-30.79"/>
<polygon fill="midnightblue" stroke="midnightblue" points="88.5,-58.18 92,-68.18 95.5,-58.18 88.5,-58.18"/>
</g>
<!-- Node3 -->
<g id="node3" class="node">
<title>Node3</title>
<g id="a_node3"><a xlink:href="classitk_1_1ProcessObject.html" target="_top" xlink:title="The base class for all process objects (source, filters, mappers) in the Insight data processing pipe...">
<polygon fill="white" stroke="black" points="36,-214.5 36,-233.5 140,-233.5 140,-214.5 36,-214.5"/>
<text text-anchor="middle" x="88" y="-221.5" font-family="Helvetica,sans-Serif" font-size="10.00">itk::ProcessObject</text>
</a>
</g>
</g>
<!-- Node3&#45;&gt;Node2 -->
<g id="edge2" class="edge">
<title>Node3&#45;&gt;Node2</title>
<path fill="none" stroke="midnightblue" d="M88.54,-204.25C89.35,-176.19 90.86,-123.88 91.59,-98.73"/>
<polygon fill="midnightblue" stroke="midnightblue" points="85.04,-204.24 88.25,-214.34 92.04,-204.44 85.04,-204.24"/>
</g>
<!-- Node6 -->
<g id="node6" class="node">
<title>Node6</title>
<g id="a_node6"><a xlink:href="classitk_1_1HistogramThresholdCalculator.html" target="_top" xlink:title="Base class to compute a threshold value based on the histogram of an image.">
<polygon fill="white" stroke="black" points="104,-146.5 104,-176.5 288,-176.5 288,-146.5 104,-146.5"/>
<text text-anchor="start" x="112" y="-164.5" font-family="Helvetica,sans-Serif" font-size="10.00">itk::HistogramThresholdCalculator</text>
<text text-anchor="middle" x="196" y="-153.5" font-family="Helvetica,sans-Serif" font-size="10.00">&lt; THistogram, TOutput &gt;</text>
</a>
</g>
</g>
<!-- Node3&#45;&gt;Node6 -->
<g id="edge6" class="edge">
<title>Node3&#45;&gt;Node6</title>
<path fill="none" stroke="midnightblue" d="M112.49,-209.28C129.96,-199.5 153.37,-186.38 170.96,-176.53"/>
<polygon fill="midnightblue" stroke="midnightblue" points="110.49,-206.39 103.47,-214.33 113.91,-212.5 110.49,-206.39"/>
</g>
<!-- Node4 -->
<g id="node4" class="node">
<title>Node4</title>
<g id="a_node4"><a xlink:href="classitk_1_1Object.html" target="_top" xlink:title="Base class for most ITK classes.">
<polygon fill="white" stroke="black" points="54.5,-271.5 54.5,-290.5 121.5,-290.5 121.5,-271.5 54.5,-271.5"/>
<text text-anchor="middle" x="88" y="-278.5" font-family="Helvetica,sans-Serif" font-size="10.00">itk::Object</text>
</a>
</g>
</g>
<!-- Node4&#45;&gt;Node3 -->
<g id="edge3" class="edge">
<title>Node4&#45;&gt;Node3</title>
<path fill="none" stroke="midnightblue" d="M88,-261.12C88,-251.82 88,-241.06 88,-233.71"/>
<polygon fill="midnightblue" stroke="midnightblue" points="84.5,-261.41 88,-271.41 91.5,-261.41 84.5,-261.41"/>
</g>
<!-- Node5 -->
<g id="node5" class="node">
<title>Node5</title>
<g id="a_node5"><a xlink:href="classitk_1_1LightObject.html" target="_top" xlink:title="Light weight base class for most itk classes.">
<polygon fill="white" stroke="black" points="42.5,-328.5 42.5,-347.5 133.5,-347.5 133.5,-328.5 42.5,-328.5"/>
<text text-anchor="middle" x="88" y="-335.5" font-family="Helvetica,sans-Serif" font-size="10.00">itk::LightObject</text>
</a>
</g>
</g>
<!-- Node5&#45;&gt;Node4 -->
<g id="edge4" class="edge">
<title>Node5&#45;&gt;Node4</title>
<path fill="none" stroke="midnightblue" d="M88,-318.12C88,-308.82 88,-298.06 88,-290.71"/>
<polygon fill="midnightblue" stroke="midnightblue" points="84.5,-318.41 88,-328.41 91.5,-318.41 84.5,-318.41"/>
</g>
<!-- Node6&#45;&gt;Node2 -->
<g id="edge5" class="edge">
<title>Node6&#45;&gt;Node2</title>
<path fill="none" stroke="orange" stroke-dasharray="5,2" d="M168.1,-140.11C150.21,-127.04 127.43,-110.39 111.47,-98.73"/>
<polygon fill="orange" stroke="orange" points="166.3,-143.13 176.44,-146.2 170.43,-137.48 166.3,-143.13"/>
<text text-anchor="middle" x="211" y="-120" font-family="Helvetica,sans-Serif" font-size="10.00"> &lt; THistogram, double &gt;</text>
</g>
</g>
</svg>
