<?xml version="1.0" encoding="UTF-8" standalone="no"?>
<!DOCTYPE svg PUBLIC "-//W3C//DTD SVG 1.1//EN"
 "http://www.w3.org/Graphics/SVG/1.1/DTD/svg11.dtd">
<!-- Generated by graphviz version 2.43.0 (0)
 -->
<!-- Title: itk::LevelSetEquationOverlapPenaltyTerm&lt; TInput, TLevelSetContainer &gt; Pages: 1 -->
<svg width="362pt" height="299pt"
 viewBox="0.00 0.00 362.00 299.00" xmlns="http://www.w3.org/2000/svg" xmlns:xlink="http://www.w3.org/1999/xlink">
<g id="graph0" class="graph" transform="scale(1 1) rotate(0) translate(4 295)">
<title>itk::LevelSetEquationOverlapPenaltyTerm&lt; TInput, TLevelSetContainer &gt;</title>
<polygon fill="white" stroke="transparent" points="-4,4 -4,-295 358,-295 358,4 -4,4"/>
<!-- Node1 -->
<g id="node1" class="node">
<title>Node1</title>
<g id="a_node1"><a xlink:title="Class to represent the overlap penalty among many level&#45;sets.">
<polygon fill="#bfbfbf" stroke="black" points="0,-0.5 0,-30.5 232,-30.5 232,-0.5 0,-0.5"/>
<text text-anchor="start" x="8" y="-18.5" font-family="Helvetica,sans-Serif" font-size="10.00">itk::LevelSetEquationOverlap</text>
<text text-anchor="middle" x="116" y="-7.5" font-family="Helvetica,sans-Serif" font-size="10.00">PenaltyTerm&lt; TInput, TLevelSetContainer &gt;</text>
</a>
</g>
</g>
<!-- Node2 -->
<g id="node2" class="node">
<title>Node2</title>
<g id="a_node2"><a xlink:href="classitk_1_1LevelSetEquationTermBase.html" target="_top" xlink:title=" ">
<polygon fill="white" stroke="black" points="18.5,-68.5 18.5,-98.5 213.5,-98.5 213.5,-68.5 18.5,-68.5"/>
<text text-anchor="start" x="26.5" y="-86.5" font-family="Helvetica,sans-Serif" font-size="10.00">itk::LevelSetEquationTerm</text>
<text text-anchor="middle" x="116" y="-75.5" font-family="Helvetica,sans-Serif" font-size="10.00">Base&lt; TInput, TLevelSetContainer &gt;</text>
</a>
</g>
</g>
<!-- Node2&#45;&gt;Node1 -->
<g id="edge1" class="edge">
<title>Node2&#45;&gt;Node1</title>
<path fill="none" stroke="midnightblue" d="M116,-58.03C116,-48.86 116,-38.74 116,-30.79"/>
<polygon fill="midnightblue" stroke="midnightblue" points="112.5,-58.18 116,-68.18 119.5,-58.18 112.5,-58.18"/>
</g>
<!-- Node3 -->
<g id="node3" class="node">
<title>Node3</title>
<g id="a_node3"><a xlink:href="classitk_1_1Object.html" target="_top" xlink:title="Base class for most ITK classes.">
<polygon fill="white" stroke="black" points="78.5,-214.5 78.5,-233.5 145.5,-233.5 145.5,-214.5 78.5,-214.5"/>
<text text-anchor="middle" x="112" y="-221.5" font-family="Helvetica,sans-Serif" font-size="10.00">itk::Object</text>
</a>
</g>
</g>
<!-- Node3&#45;&gt;Node2 -->
<g id="edge2" class="edge">
<title>Node3&#45;&gt;Node2</title>
<path fill="none" stroke="midnightblue" d="M112.54,-204.25C113.35,-176.19 114.86,-123.88 115.59,-98.73"/>
<polygon fill="midnightblue" stroke="midnightblue" points="109.04,-204.24 112.25,-214.34 116.04,-204.44 109.04,-204.24"/>
</g>
<!-- Node5 -->
<g id="node5" class="node">
<title>Node5</title>
<g id="a_node5"><a xlink:href="classitk_1_1LevelSetEquationTermBase.html" target="_top" xlink:title="Abstract class to represents a term in the level&#45;set evolution PDE.">
<polygon fill="white" stroke="black" points="128,-146.5 128,-176.5 354,-176.5 354,-146.5 128,-146.5"/>
<text text-anchor="start" x="136" y="-164.5" font-family="Helvetica,sans-Serif" font-size="10.00">itk::LevelSetEquationTerm</text>
<text text-anchor="middle" x="241" y="-153.5" font-family="Helvetica,sans-Serif" font-size="10.00">Base&lt; TInputImage, TLevelSetContainer &gt;</text>
</a>
</g>
</g>
<!-- Node3&#45;&gt;Node5 -->
<g id="edge5" class="edge">
<title>Node3&#45;&gt;Node5</title>
<path fill="none" stroke="midnightblue" d="M139.53,-210.09C160.51,-200.25 189.38,-186.71 210.96,-176.59"/>
<polygon fill="midnightblue" stroke="midnightblue" points="137.78,-207.05 130.21,-214.46 140.75,-213.38 137.78,-207.05"/>
</g>
<!-- Node4 -->
<g id="node4" class="node">
<title>Node4</title>
<g id="a_node4"><a xlink:href="classitk_1_1LightObject.html" target="_top" xlink:title="Light weight base class for most itk classes.">
<polygon fill="white" stroke="black" points="66.5,-271.5 66.5,-290.5 157.5,-290.5 157.5,-271.5 66.5,-271.5"/>
<text text-anchor="middle" x="112" y="-278.5" font-family="Helvetica,sans-Serif" font-size="10.00">itk::LightObject</text>
</a>
</g>
</g>
<!-- Node4&#45;&gt;Node3 -->
<g id="edge3" class="edge">
<title>Node4&#45;&gt;Node3</title>
<path fill="none" stroke="midnightblue" d="M112,-261.12C112,-251.82 112,-241.06 112,-233.71"/>
<polygon fill="midnightblue" stroke="midnightblue" points="108.5,-261.41 112,-271.41 115.5,-261.41 108.5,-261.41"/>
</g>
<!-- Node5&#45;&gt;Node2 -->
<g id="edge4" class="edge">
<title>Node5&#45;&gt;Node2</title>
<path fill="none" stroke="orange" stroke-dasharray="5,2" d="M209.17,-141.14C187.3,-127.85 158.79,-110.52 139.09,-98.54"/>
<polygon fill="orange" stroke="orange" points="207.42,-144.18 217.78,-146.38 211.06,-138.2 207.42,-144.18"/>
<text text-anchor="middle" x="264" y="-120" font-family="Helvetica,sans-Serif" font-size="10.00"> &lt; TInput, TLevelSetContainer &gt;</text>
</g>
</g>
</svg>
