<?xml version="1.0" encoding="UTF-8" standalone="no"?>
<!DOCTYPE svg PUBLIC "-//W3C//DTD SVG 1.1//EN"
 "http://www.w3.org/Graphics/SVG/1.1/DTD/svg11.dtd">
<!-- Generated by graphviz version 2.43.0 (0)
 -->
<!-- Title: itk::WindowedSincInterpolateImageFunction&lt; TInputImage, VRadius, TWindowFunction, TBoundaryCondition, TCoordRep &gt; Pages: 1 -->
<svg width="3428pt" height="365pt"
 viewBox="0.00 0.00 3428.00 365.00" xmlns="http://www.w3.org/2000/svg" xmlns:xlink="http://www.w3.org/1999/xlink">
<g id="graph0" class="graph" transform="scale(1 1) rotate(0) translate(4 361)">
<title>itk::WindowedSincInterpolateImageFunction&lt; TInputImage, VRadius, TWindowFunction, TBoundaryCondition, TCoordRep &gt;</title>
<polygon fill="white" stroke="transparent" points="-4,4 -4,-361 3424,-361 3424,4 -4,4"/>
<!-- Node1 -->
<g id="node1" class="node">
<title>Node1</title>
<g id="a_node1"><a xlink:title="Use the windowed sinc function to interpolate.">
<polygon fill="#bfbfbf" stroke="black" points="3232,-135 3232,-187 3420,-187 3420,-135 3232,-135"/>
<text text-anchor="start" x="3240" y="-175" font-family="Helvetica,sans-Serif" font-size="10.00">itk::WindowedSincInterpolate</text>
<text text-anchor="start" x="3240" y="-164" font-family="Helvetica,sans-Serif" font-size="10.00">ImageFunction&lt; TInputImage,</text>
<text text-anchor="start" x="3240" y="-153" font-family="Helvetica,sans-Serif" font-size="10.00"> VRadius, TWindowFunction,</text>
<text text-anchor="middle" x="3326" y="-142" font-family="Helvetica,sans-Serif" font-size="10.00"> TBoundaryCondition, TCoordRep &gt;</text>
</a>
</g>
</g>
<!-- Node2 -->
<g id="node2" class="node">
<title>Node2</title>
<g id="a_node2"><a xlink:href="classitk_1_1InterpolateImageFunction.html" target="_top" xlink:title=" ">
<polygon fill="white" stroke="black" points="2931.5,-171 2931.5,-201 3092.5,-201 3092.5,-171 2931.5,-171"/>
<text text-anchor="start" x="2939.5" y="-189" font-family="Helvetica,sans-Serif" font-size="10.00">itk::InterpolateImageFunction</text>
<text text-anchor="middle" x="3012" y="-178" font-family="Helvetica,sans-Serif" font-size="10.00">&lt; TInputImage, double &gt;</text>
</a>
</g>
</g>
<!-- Node2&#45;&gt;Node1 -->
<g id="edge1" class="edge">
<title>Node2&#45;&gt;Node1</title>
<path fill="none" stroke="midnightblue" d="M3102.66,-178.82C3143.11,-175.57 3190.88,-171.75 3231.75,-168.47"/>
<polygon fill="midnightblue" stroke="midnightblue" points="3102.23,-175.34 3092.54,-179.63 3102.79,-182.32 3102.23,-175.34"/>
</g>
<!-- Node3 -->
<g id="node3" class="node">
<title>Node3</title>
<g id="a_node3"><a xlink:href="classitk_1_1ImageFunction.html" target="_top" xlink:title=" ">
<polygon fill="white" stroke="black" points="2394,-172 2394,-224 2557,-224 2557,-172 2394,-172"/>
<text text-anchor="start" x="2402" y="-212" font-family="Helvetica,sans-Serif" font-size="10.00">itk::ImageFunction</text>
<text text-anchor="start" x="2402" y="-201" font-family="Helvetica,sans-Serif" font-size="10.00">&lt; TInputImage, NumericTraits</text>
<text text-anchor="start" x="2402" y="-190" font-family="Helvetica,sans-Serif" font-size="10.00">&lt; TInputImage::PixelType</text>
<text text-anchor="middle" x="2475.5" y="-179" font-family="Helvetica,sans-Serif" font-size="10.00"> &gt;::RealType, double &gt;</text>
</a>
</g>
</g>
<!-- Node3&#45;&gt;Node2 -->
<g id="edge2" class="edge">
<title>Node3&#45;&gt;Node2</title>
<path fill="none" stroke="midnightblue" d="M2567.1,-195.97C2669.34,-193.67 2834.06,-189.97 2931.49,-187.79"/>
<polygon fill="midnightblue" stroke="midnightblue" points="2567.02,-192.47 2557.1,-196.19 2567.17,-199.47 2567.02,-192.47"/>
</g>
<!-- Node33 -->
<g id="node33" class="node">
<title>Node33</title>
<g id="a_node33"><a xlink:href="classitk_1_1InterpolateImageFunction.html" target="_top" xlink:title="Base class for all image interpolators.">
<polygon fill="white" stroke="black" points="2598.5,-215 2598.5,-245 2759.5,-245 2759.5,-215 2598.5,-215"/>
<text text-anchor="start" x="2606.5" y="-233" font-family="Helvetica,sans-Serif" font-size="10.00">itk::InterpolateImageFunction</text>
<text text-anchor="middle" x="2679" y="-222" font-family="Helvetica,sans-Serif" font-size="10.00">&lt; TInputImage, TCoordRep &gt;</text>
</a>
</g>
</g>
<!-- Node3&#45;&gt;Node33 -->
<g id="edge47" class="edge">
<title>Node3&#45;&gt;Node33</title>
<path fill="none" stroke="midnightblue" d="M2566.96,-212.37C2577.4,-214.02 2587.99,-215.71 2598.28,-217.34"/>
<polygon fill="midnightblue" stroke="midnightblue" points="2567.43,-208.9 2557.01,-210.79 2566.33,-215.81 2567.43,-208.9"/>
</g>
<!-- Node4 -->
<g id="node4" class="node">
<title>Node4</title>
<g id="a_node4"><a xlink:href="classitk_1_1FunctionBase.html" target="_top" xlink:title=" ">
<polygon fill="white" stroke="black" points="1700,-52 1700,-104 1914,-104 1914,-52 1700,-52"/>
<text text-anchor="start" x="1708" y="-92" font-family="Helvetica,sans-Serif" font-size="10.00">itk::FunctionBase&lt;</text>
<text text-anchor="start" x="1708" y="-81" font-family="Helvetica,sans-Serif" font-size="10.00"> Point&lt; double, TInputImage</text>
<text text-anchor="start" x="1708" y="-70" font-family="Helvetica,sans-Serif" font-size="10.00">::ImageDimension &gt;, NumericTraits</text>
<text text-anchor="middle" x="1807" y="-59" font-family="Helvetica,sans-Serif" font-size="10.00">&lt; TInputImage::PixelType &gt;::RealType &gt;</text>
</a>
</g>
</g>
<!-- Node4&#45;&gt;Node3 -->
<g id="edge3" class="edge">
<title>Node4&#45;&gt;Node3</title>
<path fill="none" stroke="midnightblue" d="M1924.28,-98.94C2058.72,-123.14 2276.49,-162.35 2393.69,-183.45"/>
<polygon fill="midnightblue" stroke="midnightblue" points="1924.81,-95.47 1914.35,-97.15 1923.57,-102.36 1924.81,-95.47"/>
</g>
<!-- Node5 -->
<g id="node5" class="node">
<title>Node5</title>
<g id="a_node5"><a xlink:href="classitk_1_1Object.html" target="_top" xlink:title="Base class for most ITK classes.">
<polygon fill="white" stroke="black" points="1147.5,-83.5 1147.5,-102.5 1214.5,-102.5 1214.5,-83.5 1147.5,-83.5"/>
<text text-anchor="middle" x="1181" y="-90.5" font-family="Helvetica,sans-Serif" font-size="10.00">itk::Object</text>
</a>
</g>
</g>
<!-- Node5&#45;&gt;Node4 -->
<g id="edge4" class="edge">
<title>Node5&#45;&gt;Node4</title>
<path fill="none" stroke="midnightblue" d="M1221.93,-80.63C1240.07,-75.64 1261.92,-70.47 1282,-68 1458.45,-46.28 1504.33,-64.75 1682,-71 1687.82,-71.2 1693.79,-71.44 1699.81,-71.71"/>
<polygon fill="midnightblue" stroke="midnightblue" points="1220.94,-77.28 1212.27,-83.37 1222.85,-84.01 1220.94,-77.28"/>
</g>
<!-- Node18 -->
<g id="node18" class="node">
<title>Node18</title>
<g id="a_node18"><a xlink:href="classitk_1_1FunctionBase.html" target="_top" xlink:title="Base class for all ITK function objects.">
<polygon fill="white" stroke="black" points="1319.5,-78 1319.5,-108 1428.5,-108 1428.5,-78 1319.5,-78"/>
<text text-anchor="start" x="1327.5" y="-96" font-family="Helvetica,sans-Serif" font-size="10.00">itk::FunctionBase&lt;</text>
<text text-anchor="middle" x="1374" y="-85" font-family="Helvetica,sans-Serif" font-size="10.00"> TInput, TOutput &gt;</text>
</a>
</g>
</g>
<!-- Node5&#45;&gt;Node18 -->
<g id="edge21" class="edge">
<title>Node5&#45;&gt;Node18</title>
<path fill="none" stroke="midnightblue" d="M1225.07,-93C1252.98,-93 1289.53,-93 1319.32,-93"/>
<polygon fill="midnightblue" stroke="midnightblue" points="1224.83,-89.5 1214.83,-93 1224.83,-96.5 1224.83,-89.5"/>
</g>
<!-- Node29 -->
<g id="node29" class="node">
<title>Node29</title>
<g id="a_node29"><a xlink:href="classitk_1_1FunctionBase.html" target="_top" xlink:title=" ">
<polygon fill="white" stroke="black" points="1720.5,-142.5 1720.5,-183.5 1893.5,-183.5 1893.5,-142.5 1720.5,-142.5"/>
<text text-anchor="start" x="1728.5" y="-171.5" font-family="Helvetica,sans-Serif" font-size="10.00">itk::FunctionBase&lt;</text>
<text text-anchor="start" x="1728.5" y="-160.5" font-family="Helvetica,sans-Serif" font-size="10.00"> Point&lt; float, TInputImage</text>
<text text-anchor="middle" x="1807" y="-149.5" font-family="Helvetica,sans-Serif" font-size="10.00">::ImageDimension &gt;, TOutput &gt;</text>
</a>
</g>
</g>
<!-- Node5&#45;&gt;Node29 -->
<g id="edge37" class="edge">
<title>Node5&#45;&gt;Node29</title>
<path fill="none" stroke="midnightblue" d="M1224.82,-103.67C1242.49,-107.98 1263.19,-112.88 1282,-117 1371.4,-136.57 1393,-147.22 1484,-157 1563.78,-165.57 1655.29,-166.42 1720.32,-165.51"/>
<polygon fill="midnightblue" stroke="midnightblue" points="1225.35,-100.2 1214.8,-101.22 1223.68,-107 1225.35,-100.2"/>
</g>
<!-- Node6 -->
<g id="node6" class="node">
<title>Node6</title>
<g id="a_node6"><a xlink:href="classitk_1_1LightObject.html" target="_top" xlink:title="Light weight base class for most itk classes.">
<polygon fill="white" stroke="black" points="817.5,-0.5 817.5,-19.5 908.5,-19.5 908.5,-0.5 817.5,-0.5"/>
<text text-anchor="middle" x="863" y="-7.5" font-family="Helvetica,sans-Serif" font-size="10.00">itk::LightObject</text>
</a>
</g>
</g>
<!-- Node6&#45;&gt;Node5 -->
<g id="edge5" class="edge">
<title>Node6&#45;&gt;Node5</title>
<path fill="none" stroke="midnightblue" d="M918.66,-10.92C967.31,-13.24 1039.75,-20.46 1099,-42 1126.02,-51.82 1153.51,-71.66 1168.5,-83.49"/>
<polygon fill="midnightblue" stroke="midnightblue" points="918.79,-7.42 908.65,-10.49 918.49,-14.41 918.79,-7.42"/>
</g>
<!-- Node7 -->
<g id="node7" class="node">
<title>Node7</title>
<g id="a_node7"><a xlink:title=" ">
<polygon fill="white" stroke="#bfbfbf" points="485.5,-2.5 485.5,-21.5 592.5,-21.5 592.5,-2.5 485.5,-2.5"/>
<text text-anchor="middle" x="539" y="-9.5" font-family="Helvetica,sans-Serif" font-size="10.00">std::atomic&lt; int &gt;</text>
</a>
</g>
</g>
<!-- Node7&#45;&gt;Node6 -->
<g id="edge6" class="edge">
<title>Node7&#45;&gt;Node6</title>
<path fill="none" stroke="#9a32cd" stroke-dasharray="5,2" d="M603.05,-11.61C666.2,-11.22 761.81,-10.62 817.46,-10.28"/>
<polygon fill="#9a32cd" stroke="#9a32cd" points="602.79,-8.11 592.81,-11.67 602.83,-15.11 602.79,-8.11"/>
<text text-anchor="middle" x="711" y="-15" font-family="Helvetica,sans-Serif" font-size="10.00"> m_ReferenceCount</text>
</g>
<!-- Node8 -->
<g id="node8" class="node">
<title>Node8</title>
<g id="a_node8"><a xlink:title="STL class.">
<polygon fill="white" stroke="#bfbfbf" points="131,-37.5 131,-56.5 231,-56.5 231,-37.5 131,-37.5"/>
<text text-anchor="middle" x="181" y="-44.5" font-family="Helvetica,sans-Serif" font-size="10.00">std::atomic&lt; T &gt;</text>
</a>
</g>
</g>
<!-- Node8&#45;&gt;Node7 -->
<g id="edge7" class="edge">
<title>Node8&#45;&gt;Node7</title>
<path fill="none" stroke="orange" stroke-dasharray="5,2" d="M212.55,-33.39C228.2,-27.11 247.76,-20.33 266,-17 341.27,-3.25 430.2,-4.9 485.36,-7.97"/>
<polygon fill="orange" stroke="orange" points="210.78,-30.33 202.88,-37.39 213.46,-36.8 210.78,-30.33"/>
<text text-anchor="middle" x="350" y="-20" font-family="Helvetica,sans-Serif" font-size="10.00"> &lt; int &gt;</text>
</g>
<!-- Node17 -->
<g id="node17" class="node">
<title>Node17</title>
<g id="a_node17"><a xlink:href="classitk_1_1TimeStamp.html" target="_top" xlink:title="Generate a unique, increasing time value.">
<polygon fill="white" stroke="black" points="665,-43.5 665,-62.5 757,-62.5 757,-43.5 665,-43.5"/>
<text text-anchor="middle" x="711" y="-50.5" font-family="Helvetica,sans-Serif" font-size="10.00">itk::TimeStamp</text>
</a>
</g>
</g>
<!-- Node8&#45;&gt;Node17 -->
<g id="edge19" class="edge">
<title>Node8&#45;&gt;Node17</title>
<path fill="none" stroke="#9a32cd" stroke-dasharray="5,2" d="M241.46,-47.68C348.11,-48.89 569.65,-51.41 664.88,-52.49"/>
<polygon fill="#9a32cd" stroke="#9a32cd" points="241.24,-44.17 231.2,-47.56 241.16,-51.17 241.24,-44.17"/>
<text text-anchor="middle" x="350" y="-53" font-family="Helvetica,sans-Serif" font-size="10.00"> m_GlobalTimeStamp</text>
</g>
<!-- Node9 -->
<g id="node9" class="node">
<title>Node9</title>
<g id="a_node9"><a xlink:title=" ">
<polygon fill="white" stroke="#bfbfbf" points="0,-74.5 0,-93.5 29,-93.5 29,-74.5 0,-74.5"/>
<text text-anchor="middle" x="14.5" y="-81.5" font-family="Helvetica,sans-Serif" font-size="10.00">T</text>
</a>
</g>
</g>
<!-- Node9&#45;&gt;Node8 -->
<g id="edge8" class="edge">
<title>Node9&#45;&gt;Node8</title>
<path fill="none" stroke="#9a32cd" stroke-dasharray="5,2" d="M38.36,-73.06C41.23,-71.92 44.15,-70.86 47,-70 74.24,-61.73 105.59,-56.13 131,-52.53"/>
<polygon fill="#9a32cd" stroke="#9a32cd" points="36.8,-69.92 29.02,-77.11 39.59,-76.34 36.8,-69.92"/>
<text text-anchor="middle" x="71.5" y="-73" font-family="Helvetica,sans-Serif" font-size="10.00"> ptr</text>
</g>
<!-- Node14 -->
<g id="node14" class="node">
<title>Node14</title>
<g id="a_node14"><a xlink:title="STL class.">
<polygon fill="white" stroke="#bfbfbf" points="130.5,-113.5 130.5,-132.5 231.5,-132.5 231.5,-113.5 130.5,-113.5"/>
<text text-anchor="middle" x="181" y="-120.5" font-family="Helvetica,sans-Serif" font-size="10.00">std::map&lt; K, T &gt;</text>
</a>
</g>
</g>
<!-- Node9&#45;&gt;Node14 -->
<g id="edge15" class="edge">
<title>Node9&#45;&gt;Node14</title>
<path fill="none" stroke="#9a32cd" stroke-dasharray="5,2" d="M38.74,-93.34C41.5,-94.31 44.3,-95.22 47,-96 74.16,-103.87 105.08,-110.3 130.27,-114.9"/>
<polygon fill="#9a32cd" stroke="#9a32cd" points="39.73,-89.97 29.13,-89.75 37.28,-96.53 39.73,-89.97"/>
<text text-anchor="middle" x="71.5" y="-111" font-family="Helvetica,sans-Serif" font-size="10.00"> elements</text>
</g>
<!-- Node16 -->
<g id="node16" class="node">
<title>Node16</title>
<g id="a_node16"><a xlink:title="STL class.">
<polygon fill="white" stroke="#bfbfbf" points="122,-75.5 122,-94.5 240,-94.5 240,-75.5 122,-75.5"/>
<text text-anchor="middle" x="181" y="-82.5" font-family="Helvetica,sans-Serif" font-size="10.00">std::shared_ptr&lt; T &gt;</text>
</a>
</g>
</g>
<!-- Node9&#45;&gt;Node16 -->
<g id="edge17" class="edge">
<title>Node9&#45;&gt;Node16</title>
<path fill="none" stroke="#9a32cd" stroke-dasharray="5,2" d="M39.41,-84.15C60.93,-84.28 93.41,-84.47 121.74,-84.65"/>
<polygon fill="#9a32cd" stroke="#9a32cd" points="39.26,-80.64 29.24,-84.08 39.22,-87.64 39.26,-80.64"/>
<text text-anchor="middle" x="71.5" y="-88" font-family="Helvetica,sans-Serif" font-size="10.00"> ptr</text>
</g>
<!-- Node10 -->
<g id="node10" class="node">
<title>Node10</title>
<g id="a_node10"><a xlink:title="STL class.">
<polygon fill="white" stroke="#bfbfbf" points="830.5,-128.5 830.5,-147.5 895.5,-147.5 895.5,-128.5 830.5,-128.5"/>
<text text-anchor="middle" x="863" y="-135.5" font-family="Helvetica,sans-Serif" font-size="10.00">std::string</text>
</a>
</g>
</g>
<!-- Node10&#45;&gt;Node5 -->
<g id="edge9" class="edge">
<title>Node10&#45;&gt;Node5</title>
<path fill="none" stroke="#9a32cd" stroke-dasharray="5,2" d="M905.8,-134.14C952.91,-129.54 1031.72,-121.05 1099,-110 1115.02,-107.37 1132.68,-103.75 1147.41,-100.52"/>
<polygon fill="#9a32cd" stroke="#9a32cd" points="905.29,-130.68 895.67,-135.12 905.96,-137.64 905.29,-130.68"/>
<text text-anchor="middle" x="1023.5" y="-133" font-family="Helvetica,sans-Serif" font-size="10.00"> m_ObjectName</text>
</g>
<!-- Node11 -->
<g id="node11" class="node">
<title>Node11</title>
<g id="a_node11"><a xlink:title="STL class.">
<polygon fill="white" stroke="#bfbfbf" points="487,-128 487,-158 591,-158 591,-128 487,-128"/>
<text text-anchor="start" x="495" y="-146" font-family="Helvetica,sans-Serif" font-size="10.00">std::basic_string&lt;</text>
<text text-anchor="middle" x="539" y="-135" font-family="Helvetica,sans-Serif" font-size="10.00"> char &gt;</text>
</a>
</g>
</g>
<!-- Node11&#45;&gt;Node10 -->
<g id="edge10" class="edge">
<title>Node11&#45;&gt;Node10</title>
<path fill="none" stroke="midnightblue" d="M601.2,-142.05C669.43,-140.99 777.15,-139.32 830.25,-138.49"/>
<polygon fill="midnightblue" stroke="midnightblue" points="600.97,-138.55 591.02,-142.21 601.08,-145.55 600.97,-138.55"/>
</g>
<!-- Node12 -->
<g id="node12" class="node">
<title>Node12</title>
<g id="a_node12"><a xlink:href="classitk_1_1MetaDataDictionary.html" target="_top" xlink:title="Provides a mechanism for storing a collection of arbitrary data types.">
<polygon fill="white" stroke="black" points="796,-85.5 796,-104.5 930,-104.5 930,-85.5 796,-85.5"/>
<text text-anchor="middle" x="863" y="-92.5" font-family="Helvetica,sans-Serif" font-size="10.00">itk::MetaDataDictionary</text>
</a>
</g>
</g>
<!-- Node12&#45;&gt;Node5 -->
<g id="edge11" class="edge">
<title>Node12&#45;&gt;Node5</title>
<path fill="none" stroke="#9a32cd" stroke-dasharray="5,2" d="M940.61,-94.52C1006.65,-94.1 1098.78,-93.51 1147.23,-93.21"/>
<polygon fill="#9a32cd" stroke="#9a32cd" points="940.22,-91.02 930.24,-94.58 940.27,-98.02 940.22,-91.02"/>
<text text-anchor="middle" x="1023.5" y="-98" font-family="Helvetica,sans-Serif" font-size="10.00"> m_MetaDataDictionary</text>
</g>
<!-- Node13 -->
<g id="node13" class="node">
<title>Node13</title>
<g id="a_node13"><a xlink:title=" ">
<polygon fill="white" stroke="#bfbfbf" points="464.5,-79 464.5,-109 613.5,-109 613.5,-79 464.5,-79"/>
<text text-anchor="start" x="472.5" y="-97" font-family="Helvetica,sans-Serif" font-size="10.00">std::shared_ptr&lt; MetaData</text>
<text text-anchor="middle" x="539" y="-86" font-family="Helvetica,sans-Serif" font-size="10.00">DictionaryMapType &gt;</text>
</a>
</g>
</g>
<!-- Node13&#45;&gt;Node12 -->
<g id="edge12" class="edge">
<title>Node13&#45;&gt;Node12</title>
<path fill="none" stroke="#9a32cd" stroke-dasharray="5,2" d="M624.04,-94.26C677.65,-94.43 746.13,-94.64 795.85,-94.79"/>
<polygon fill="#9a32cd" stroke="#9a32cd" points="623.88,-90.76 613.87,-94.23 623.86,-97.76 623.88,-90.76"/>
<text text-anchor="middle" x="711" y="-98" font-family="Helvetica,sans-Serif" font-size="10.00"> m_Dictionary</text>
</g>
<!-- Node14&#45;&gt;Node13 -->
<g id="edge13" class="edge">
<title>Node14&#45;&gt;Node13</title>
<path fill="none" stroke="#9a32cd" stroke-dasharray="5,2" d="M241.77,-118.13C303,-113.14 398.29,-105.38 464.18,-100.01"/>
<polygon fill="#9a32cd" stroke="#9a32cd" points="241.18,-114.67 231.5,-118.97 241.75,-121.64 241.18,-114.67"/>
<text text-anchor="middle" x="350" y="-119" font-family="Helvetica,sans-Serif" font-size="10.00"> ptr</text>
</g>
<!-- Node15 -->
<g id="node15" class="node">
<title>Node15</title>
<g id="a_node15"><a xlink:title=" ">
<polygon fill="white" stroke="#bfbfbf" points="0,-142.5 0,-161.5 29,-161.5 29,-142.5 0,-142.5"/>
<text text-anchor="middle" x="14.5" y="-149.5" font-family="Helvetica,sans-Serif" font-size="10.00">K</text>
</a>
</g>
</g>
<!-- Node15&#45;&gt;Node14 -->
<g id="edge14" class="edge">
<title>Node15&#45;&gt;Node14</title>
<path fill="none" stroke="#9a32cd" stroke-dasharray="5,2" d="M39.11,-147.84C62.83,-143.66 100.1,-137.09 130.35,-131.75"/>
<polygon fill="#9a32cd" stroke="#9a32cd" points="38.48,-144.39 29.24,-149.58 39.7,-151.29 38.48,-144.39"/>
<text text-anchor="middle" x="71.5" y="-149" font-family="Helvetica,sans-Serif" font-size="10.00"> keys</text>
</g>
<!-- Node16&#45;&gt;Node13 -->
<g id="edge16" class="edge">
<title>Node16&#45;&gt;Node13</title>
<path fill="none" stroke="orange" stroke-dasharray="5,2" d="M250.25,-85.49C300.95,-86 371.81,-87.01 434,-89 443.85,-89.31 454.21,-89.72 464.43,-90.17"/>
<polygon fill="orange" stroke="orange" points="250.1,-81.99 240.07,-85.39 250.03,-88.99 250.1,-81.99"/>
<text text-anchor="middle" x="350" y="-92" font-family="Helvetica,sans-Serif" font-size="10.00"> &lt; MetaDataDictionaryMapType &gt;</text>
</g>
<!-- Node17&#45;&gt;Node5 -->
<g id="edge18" class="edge">
<title>Node17&#45;&gt;Node5</title>
<path fill="none" stroke="#9a32cd" stroke-dasharray="5,2" d="M767.37,-55.18C811.46,-57.13 874.75,-60.39 930,-65 1008.12,-71.52 1099.6,-82.66 1147.3,-88.74"/>
<polygon fill="#9a32cd" stroke="#9a32cd" points="767.29,-51.68 757.14,-54.74 766.98,-58.67 767.29,-51.68"/>
<text text-anchor="middle" x="863" y="-68" font-family="Helvetica,sans-Serif" font-size="10.00"> m_MTime</text>
</g>
<!-- Node18&#45;&gt;Node4 -->
<g id="edge20" class="edge">
<title>Node18&#45;&gt;Node4</title>
<path fill="none" stroke="orange" stroke-dasharray="5,2" d="M1438.74,-83.46C1453.56,-81.62 1469.3,-79.96 1484,-79 1555.82,-74.29 1636.85,-74.07 1699.65,-75.01"/>
<polygon fill="orange" stroke="orange" points="1438.12,-80.01 1428.65,-84.76 1439.01,-86.95 1438.12,-80.01"/>
<text text-anchor="start" x="1484" y="-104" font-family="Helvetica,sans-Serif" font-size="10.00"> &lt; Point&lt; double, TInputImage</text>
<text text-anchor="start" x="1484" y="-93" font-family="Helvetica,sans-Serif" font-size="10.00">::ImageDimension &gt;, NumericTraits</text>
<text text-anchor="middle" x="1583" y="-82" font-family="Helvetica,sans-Serif" font-size="10.00">&lt; TInputImage::PixelType &gt;::RealType &gt;</text>
</g>
<!-- Node18&#45;&gt;Node29 -->
<g id="edge38" class="edge">
<title>Node18&#45;&gt;Node29</title>
<path fill="none" stroke="orange" stroke-dasharray="5,2" d="M1438.77,-104.74C1453.59,-107.3 1469.33,-109.87 1484,-112 1571.67,-124.72 1594.67,-120.11 1682,-135 1694.51,-137.13 1707.66,-139.72 1720.52,-142.45"/>
<polygon fill="orange" stroke="orange" points="1439.13,-101.25 1428.68,-102.98 1437.93,-108.15 1439.13,-101.25"/>
<text text-anchor="start" x="1504.5" y="-149" font-family="Helvetica,sans-Serif" font-size="10.00"> &lt; Point&lt; float, TInputImage</text>
<text text-anchor="middle" x="1583" y="-138" font-family="Helvetica,sans-Serif" font-size="10.00">::ImageDimension &gt;, TOutput &gt;</text>
</g>
<!-- Node19 -->
<g id="node19" class="node">
<title>Node19</title>
<g id="a_node19"><a xlink:href="classitk_1_1ContinuousIndex.html" target="_top" xlink:title=" ">
<polygon fill="white" stroke="black" points="1714.5,-261 1714.5,-291 1899.5,-291 1899.5,-261 1714.5,-261"/>
<text text-anchor="start" x="1722.5" y="-279" font-family="Helvetica,sans-Serif" font-size="10.00">itk::ContinuousIndex</text>
<text text-anchor="middle" x="1807" y="-268" font-family="Helvetica,sans-Serif" font-size="10.00">&lt; double, Self::ImageDimension &gt;</text>
</a>
</g>
</g>
<!-- Node19&#45;&gt;Node3 -->
<g id="edge22" class="edge">
<title>Node19&#45;&gt;Node3</title>
<path fill="none" stroke="#9a32cd" stroke-dasharray="5,2" d="M1909.82,-277.38C2024.47,-276.94 2215.69,-270.12 2376,-235 2388.31,-232.3 2401.14,-228.37 2413.32,-224.07"/>
<polygon fill="#9a32cd" stroke="#9a32cd" points="1909.65,-273.89 1899.65,-277.41 1909.66,-280.89 1909.65,-273.89"/>
<text text-anchor="middle" x="2139.5" y="-286" font-family="Helvetica,sans-Serif" font-size="10.00"> m_EndContinuousIndex</text>
<text text-anchor="middle" x="2139.5" y="-275" font-family="Helvetica,sans-Serif" font-size="10.00">m_StartContinuousIndex</text>
</g>
<!-- Node20 -->
<g id="node20" class="node">
<title>Node20</title>
<g id="a_node20"><a xlink:href="classitk_1_1Point.html" target="_top" xlink:title=" ">
<polygon fill="white" stroke="black" points="1122.5,-287 1122.5,-317 1239.5,-317 1239.5,-287 1122.5,-287"/>
<text text-anchor="start" x="1130.5" y="-305" font-family="Helvetica,sans-Serif" font-size="10.00">itk::Point&lt; double,</text>
<text text-anchor="middle" x="1181" y="-294" font-family="Helvetica,sans-Serif" font-size="10.00"> VIndexDimension &gt;</text>
</a>
</g>
</g>
<!-- Node20&#45;&gt;Node19 -->
<g id="edge23" class="edge">
<title>Node20&#45;&gt;Node19</title>
<path fill="none" stroke="midnightblue" d="M1249.95,-300.52C1346.16,-298.23 1527.6,-293.22 1682,-285 1692.45,-284.44 1703.4,-283.77 1714.27,-283.06"/>
<polygon fill="midnightblue" stroke="midnightblue" points="1249.69,-297.02 1239.77,-300.76 1249.85,-304.02 1249.69,-297.02"/>
</g>
<!-- Node21 -->
<g id="node21" class="node">
<title>Node21</title>
<g id="a_node21"><a xlink:href="classitk_1_1FixedArray.html" target="_top" xlink:title=" ">
<polygon fill="white" stroke="black" points="644,-322 644,-352 778,-352 778,-322 644,-322"/>
<text text-anchor="start" x="652" y="-340" font-family="Helvetica,sans-Serif" font-size="10.00">itk::FixedArray&lt; double,</text>
<text text-anchor="middle" x="711" y="-329" font-family="Helvetica,sans-Serif" font-size="10.00"> NPointDimension &gt;</text>
</a>
</g>
</g>
<!-- Node21&#45;&gt;Node20 -->
<g id="edge24" class="edge">
<title>Node21&#45;&gt;Node20</title>
<path fill="none" stroke="midnightblue" d="M788.36,-343.61C866.96,-348.65 992.63,-351.78 1099,-332 1115.37,-328.96 1132.77,-322.91 1147.23,-317.04"/>
<polygon fill="midnightblue" stroke="midnightblue" points="788.27,-340.1 778.06,-342.92 787.8,-347.08 788.27,-340.1"/>
</g>
<!-- Node27 -->
<g id="node27" class="node">
<title>Node27</title>
<g id="a_node27"><a xlink:href="classitk_1_1Point.html" target="_top" xlink:title=" ">
<polygon fill="white" stroke="black" points="1117,-248.5 1117,-267.5 1245,-267.5 1245,-248.5 1117,-248.5"/>
<text text-anchor="middle" x="1181" y="-255.5" font-family="Helvetica,sans-Serif" font-size="10.00">itk::Point&lt; double, 2 &gt;</text>
</a>
</g>
</g>
<!-- Node21&#45;&gt;Node27 -->
<g id="edge33" class="edge">
<title>Node21&#45;&gt;Node27</title>
<path fill="none" stroke="midnightblue" d="M788.39,-333.97C893.53,-329.27 1072.85,-319.15 1099,-304 1111.16,-296.95 1105.7,-286.35 1117,-278 1122.91,-273.64 1129.8,-270.2 1136.81,-267.51"/>
<polygon fill="midnightblue" stroke="midnightblue" points="787.98,-330.48 778.15,-334.42 788.29,-337.48 787.98,-330.48"/>
</g>
<!-- Node22 -->
<g id="node22" class="node">
<title>Node22</title>
<g id="a_node22"><a xlink:title=" ">
<polygon fill="white" stroke="#bfbfbf" points="153,-319.5 153,-338.5 209,-338.5 209,-319.5 153,-319.5"/>
<text text-anchor="middle" x="181" y="-326.5" font-family="Helvetica,sans-Serif" font-size="10.00">VLength</text>
</a>
</g>
</g>
<!-- Node22&#45;&gt;Node21 -->
<g id="edge25" class="edge">
<title>Node22&#45;&gt;Node21</title>
<path fill="none" stroke="#9a32cd" stroke-dasharray="5,2" d="M219.26,-335.48C233.79,-337.7 250.63,-339.91 266,-341 399.79,-350.51 556.83,-345.24 643.7,-340.89"/>
<polygon fill="#9a32cd" stroke="#9a32cd" points="219.56,-331.98 209.13,-333.87 218.46,-338.9 219.56,-331.98"/>
<text text-anchor="middle" x="350" y="-349" font-family="Helvetica,sans-Serif" font-size="10.00"> m_InternalArray</text>
</g>
<!-- Node25 -->
<g id="node25" class="node">
<title>Node25</title>
<g id="a_node25"><a xlink:href="classitk_1_1FixedArray.html" target="_top" xlink:title=" ">
<polygon fill="white" stroke="black" points="452,-247.5 452,-266.5 626,-266.5 626,-247.5 452,-247.5"/>
<text text-anchor="middle" x="539" y="-254.5" font-family="Helvetica,sans-Serif" font-size="10.00">itk::FixedArray&lt; TCoordRep, 3 &gt;</text>
</a>
</g>
</g>
<!-- Node22&#45;&gt;Node25 -->
<g id="edge29" class="edge">
<title>Node22&#45;&gt;Node25</title>
<path fill="none" stroke="#9a32cd" stroke-dasharray="5,2" d="M219.33,-329.89C269.18,-330.15 359.82,-327.34 434,-307 467.23,-297.89 502.76,-278.45 522.49,-266.67"/>
<polygon fill="#9a32cd" stroke="#9a32cd" points="219.07,-326.39 209.04,-329.79 219.01,-333.39 219.07,-326.39"/>
<text text-anchor="middle" x="350" y="-332" font-family="Helvetica,sans-Serif" font-size="10.00"> m_InternalArray</text>
</g>
<!-- Node32 -->
<g id="node32" class="node">
<title>Node32</title>
<g id="a_node32"><a xlink:href="classitk_1_1FixedArray.html" target="_top" xlink:title=" ">
<polygon fill="white" stroke="black" points="477.5,-178 477.5,-208 600.5,-208 600.5,-178 477.5,-178"/>
<text text-anchor="start" x="485.5" y="-196" font-family="Helvetica,sans-Serif" font-size="10.00">itk::FixedArray&lt; float,</text>
<text text-anchor="middle" x="539" y="-185" font-family="Helvetica,sans-Serif" font-size="10.00"> NPointDimension &gt;</text>
</a>
</g>
</g>
<!-- Node22&#45;&gt;Node32 -->
<g id="edge42" class="edge">
<title>Node22&#45;&gt;Node32</title>
<path fill="none" stroke="#9a32cd" stroke-dasharray="5,2" d="M197.99,-311.77C213.69,-296.03 239.13,-273.51 266,-262 335.28,-232.33 361.49,-259.56 434,-239 460.59,-231.46 489.2,-218.41 509.67,-208.13"/>
<polygon fill="#9a32cd" stroke="#9a32cd" points="195.15,-309.67 190.71,-319.29 200.18,-314.54 195.15,-309.67"/>
<text text-anchor="middle" x="350" y="-265" font-family="Helvetica,sans-Serif" font-size="10.00"> m_InternalArray</text>
</g>
<!-- Node23 -->
<g id="node23" class="node">
<title>Node23</title>
<g id="a_node23"><a xlink:href="classitk_1_1FixedArray.html" target="_top" xlink:title="Simulate a standard C array with copy semantics.">
<polygon fill="white" stroke="black" points="114,-212 114,-242 248,-242 248,-212 114,-212"/>
<text text-anchor="start" x="122" y="-230" font-family="Helvetica,sans-Serif" font-size="10.00">itk::FixedArray&lt; TValue,</text>
<text text-anchor="middle" x="181" y="-219" font-family="Helvetica,sans-Serif" font-size="10.00"> VLength &gt;</text>
</a>
</g>
</g>
<!-- Node23&#45;&gt;Node21 -->
<g id="edge26" class="edge">
<title>Node23&#45;&gt;Node21</title>
<path fill="none" stroke="orange" stroke-dasharray="5,2" d="M212.69,-247.46C228.07,-256.74 247.35,-266.97 266,-273 337.6,-296.15 359.48,-283.54 434,-294 505.92,-304.09 588.14,-317.09 644,-326.14"/>
<polygon fill="orange" stroke="orange" points="214.46,-244.44 204.12,-242.14 210.77,-250.39 214.46,-244.44"/>
<text text-anchor="middle" x="350" y="-297" font-family="Helvetica,sans-Serif" font-size="10.00"> &lt; double, NPointDimension &gt;</text>
</g>
<!-- Node23&#45;&gt;Node25 -->
<g id="edge30" class="edge">
<title>Node23&#45;&gt;Node25</title>
<path fill="none" stroke="orange" stroke-dasharray="5,2" d="M258.26,-222.02C308.43,-220.04 375.42,-219.87 434,-228 460.92,-231.74 490.71,-240.54 511.48,-247.48"/>
<polygon fill="orange" stroke="orange" points="257.98,-218.53 248.14,-222.46 258.28,-225.53 257.98,-218.53"/>
<text text-anchor="middle" x="350" y="-231" font-family="Helvetica,sans-Serif" font-size="10.00"> &lt; TCoordRep, 3 &gt;</text>
</g>
<!-- Node23&#45;&gt;Node32 -->
<g id="edge43" class="edge">
<title>Node23&#45;&gt;Node32</title>
<path fill="none" stroke="orange" stroke-dasharray="5,2" d="M245.48,-209.73C252.37,-208.28 259.31,-206.99 266,-206 338.14,-195.36 422.1,-192.83 477.44,-192.49"/>
<polygon fill="orange" stroke="orange" points="244.46,-206.37 235.46,-211.96 245.98,-213.21 244.46,-206.37"/>
<text text-anchor="middle" x="350" y="-209" font-family="Helvetica,sans-Serif" font-size="10.00"> &lt; float, NPointDimension &gt;</text>
</g>
<!-- Node24 -->
<g id="node24" class="node">
<title>Node24</title>
<g id="a_node24"><a xlink:href="classitk_1_1Point.html" target="_top" xlink:title="A templated class holding a geometric point in n&#45;Dimensional space.">
<polygon fill="white" stroke="black" points="799.5,-243 799.5,-273 926.5,-273 926.5,-243 799.5,-243"/>
<text text-anchor="start" x="807.5" y="-261" font-family="Helvetica,sans-Serif" font-size="10.00">itk::Point&lt; TCoordRep,</text>
<text text-anchor="middle" x="863" y="-250" font-family="Helvetica,sans-Serif" font-size="10.00"> NPointDimension &gt;</text>
</a>
</g>
</g>
<!-- Node24&#45;&gt;Node20 -->
<g id="edge27" class="edge">
<title>Node24&#45;&gt;Node20</title>
<path fill="none" stroke="orange" stroke-dasharray="5,2" d="M936.86,-268.43C940.63,-268.96 944.36,-269.49 948,-270 1007.39,-278.34 1075.36,-287.69 1122.31,-294.12"/>
<polygon fill="orange" stroke="orange" points="937.23,-264.95 926.84,-267.01 936.25,-271.88 937.23,-264.95"/>
<text text-anchor="middle" x="1023.5" y="-293" font-family="Helvetica,sans-Serif" font-size="10.00"> &lt; double, VIndexDimension &gt;</text>
</g>
<!-- Node24&#45;&gt;Node27 -->
<g id="edge34" class="edge">
<title>Node24&#45;&gt;Node27</title>
<path fill="none" stroke="orange" stroke-dasharray="5,2" d="M937.07,-258C991.45,-258 1064.91,-258 1116.77,-258"/>
<polygon fill="orange" stroke="orange" points="936.81,-254.5 926.81,-258 936.81,-261.5 936.81,-254.5"/>
<text text-anchor="middle" x="1023.5" y="-261" font-family="Helvetica,sans-Serif" font-size="10.00"> &lt; double, 2 &gt;</text>
</g>
<!-- Node31 -->
<g id="node31" class="node">
<title>Node31</title>
<g id="a_node31"><a xlink:href="classitk_1_1Point.html" target="_top" xlink:title=" ">
<polygon fill="white" stroke="black" points="1122.5,-194 1122.5,-224 1239.5,-224 1239.5,-194 1122.5,-194"/>
<text text-anchor="start" x="1130.5" y="-212" font-family="Helvetica,sans-Serif" font-size="10.00">itk::Point&lt; float,</text>
<text text-anchor="middle" x="1181" y="-201" font-family="Helvetica,sans-Serif" font-size="10.00"> VIndexDimension &gt;</text>
</a>
</g>
</g>
<!-- Node24&#45;&gt;Node31 -->
<g id="edge44" class="edge">
<title>Node24&#45;&gt;Node31</title>
<path fill="none" stroke="orange" stroke-dasharray="5,2" d="M936.84,-244.85C940.61,-244.21 944.35,-243.59 948,-243 1007.27,-233.37 1075.26,-223.55 1122.24,-216.95"/>
<polygon fill="orange" stroke="orange" points="936.07,-241.43 926.8,-246.56 937.25,-248.33 936.07,-241.43"/>
<text text-anchor="middle" x="1023.5" y="-246" font-family="Helvetica,sans-Serif" font-size="10.00"> &lt; float, VIndexDimension &gt;</text>
</g>
<!-- Node25&#45;&gt;Node24 -->
<g id="edge28" class="edge">
<title>Node25&#45;&gt;Node24</title>
<path fill="none" stroke="midnightblue" d="M636.36,-257.3C689.19,-257.46 753.16,-257.66 799.48,-257.81"/>
<polygon fill="midnightblue" stroke="midnightblue" points="636.3,-253.8 626.29,-257.27 636.28,-260.8 636.3,-253.8"/>
</g>
<!-- Node26 -->
<g id="node26" class="node">
<title>Node26</title>
<g id="a_node26"><a xlink:href="classitk_1_1ContinuousIndex.html" target="_top" xlink:title="A templated class holding a point in n&#45;Dimensional image space.">
<polygon fill="white" stroke="black" points="1282,-243 1282,-273 1466,-273 1466,-243 1282,-243"/>
<text text-anchor="start" x="1290" y="-261" font-family="Helvetica,sans-Serif" font-size="10.00">itk::ContinuousIndex</text>
<text text-anchor="middle" x="1374" y="-250" font-family="Helvetica,sans-Serif" font-size="10.00">&lt; TCoordRep, VIndexDimension &gt;</text>
</a>
</g>
</g>
<!-- Node26&#45;&gt;Node19 -->
<g id="edge31" class="edge">
<title>Node26&#45;&gt;Node19</title>
<path fill="none" stroke="orange" stroke-dasharray="5,2" d="M1476.15,-262.22C1548.24,-265.24 1644.37,-269.25 1714.25,-272.17"/>
<polygon fill="orange" stroke="orange" points="1476.28,-258.73 1466.14,-261.81 1475.99,-265.72 1476.28,-258.73"/>
<text text-anchor="middle" x="1583" y="-273" font-family="Helvetica,sans-Serif" font-size="10.00"> &lt; double, Self::ImageDimension &gt;</text>
</g>
<!-- Node30 -->
<g id="node30" class="node">
<title>Node30</title>
<g id="a_node30"><a xlink:href="classitk_1_1ContinuousIndex.html" target="_top" xlink:title=" ">
<polygon fill="white" stroke="black" points="1720,-203 1720,-233 1894,-233 1894,-203 1720,-203"/>
<text text-anchor="start" x="1728" y="-221" font-family="Helvetica,sans-Serif" font-size="10.00">itk::ContinuousIndex</text>
<text text-anchor="middle" x="1807" y="-210" font-family="Helvetica,sans-Serif" font-size="10.00">&lt; float, Self::ImageDimension &gt;</text>
</a>
</g>
</g>
<!-- Node26&#45;&gt;Node30 -->
<g id="edge45" class="edge">
<title>Node26&#45;&gt;Node30</title>
<path fill="none" stroke="orange" stroke-dasharray="5,2" d="M1476.41,-248.59C1550.39,-241.72 1649.58,-232.52 1719.76,-226"/>
<polygon fill="orange" stroke="orange" points="1475.77,-245.13 1466.14,-249.54 1476.42,-252.1 1475.77,-245.13"/>
<text text-anchor="middle" x="1583" y="-251" font-family="Helvetica,sans-Serif" font-size="10.00"> &lt; float, Self::ImageDimension &gt;</text>
</g>
<!-- Node27&#45;&gt;Node26 -->
<g id="edge32" class="edge">
<title>Node27&#45;&gt;Node26</title>
<path fill="none" stroke="midnightblue" d="M1255.13,-258C1263.82,-258 1272.76,-258 1281.67,-258"/>
<polygon fill="midnightblue" stroke="midnightblue" points="1255.07,-254.5 1245.07,-258 1255.07,-261.5 1255.07,-254.5"/>
</g>
<!-- Node28 -->
<g id="node28" class="node">
<title>Node28</title>
<g id="a_node28"><a xlink:href="classitk_1_1ImageFunction.html" target="_top" xlink:title="Evaluates a function of an image at specified position.">
<polygon fill="white" stroke="black" points="2071,-177.5 2071,-218.5 2208,-218.5 2208,-177.5 2071,-177.5"/>
<text text-anchor="start" x="2079" y="-206.5" font-family="Helvetica,sans-Serif" font-size="10.00">itk::ImageFunction</text>
<text text-anchor="start" x="2079" y="-195.5" font-family="Helvetica,sans-Serif" font-size="10.00">&lt; TInputImage, TOutput,</text>
<text text-anchor="middle" x="2139.5" y="-184.5" font-family="Helvetica,sans-Serif" font-size="10.00"> TCoordRep &gt;</text>
</a>
</g>
</g>
<!-- Node28&#45;&gt;Node3 -->
<g id="edge35" class="edge">
<title>Node28&#45;&gt;Node3</title>
<path fill="none" stroke="orange" stroke-dasharray="5,2" d="M2218.39,-198C2271.08,-198 2340.49,-198 2393.76,-198"/>
<polygon fill="orange" stroke="orange" points="2218.09,-194.5 2208.09,-198 2218.09,-201.5 2218.09,-194.5"/>
<text text-anchor="start" x="2226" y="-223" font-family="Helvetica,sans-Serif" font-size="10.00"> &lt; TInputImage, NumericTraits</text>
<text text-anchor="start" x="2226" y="-212" font-family="Helvetica,sans-Serif" font-size="10.00">&lt; TInputImage::PixelType</text>
<text text-anchor="middle" x="2301" y="-201" font-family="Helvetica,sans-Serif" font-size="10.00"> &gt;::RealType, double &gt;</text>
</g>
<!-- Node29&#45;&gt;Node28 -->
<g id="edge36" class="edge">
<title>Node29&#45;&gt;Node28</title>
<path fill="none" stroke="midnightblue" d="M1903.73,-173.14C1957.22,-178.8 2022.6,-185.73 2070.76,-190.83"/>
<polygon fill="midnightblue" stroke="midnightblue" points="1903.85,-169.63 1893.54,-172.06 1903.12,-176.59 1903.85,-169.63"/>
</g>
<!-- Node30&#45;&gt;Node28 -->
<g id="edge39" class="edge">
<title>Node30&#45;&gt;Node28</title>
<path fill="none" stroke="#9a32cd" stroke-dasharray="5,2" d="M1904.57,-212.16C1957.93,-208.93 2022.92,-204.99 2070.85,-202.09"/>
<polygon fill="#9a32cd" stroke="#9a32cd" points="1904.17,-208.67 1894.4,-212.77 1904.6,-215.66 1904.17,-208.67"/>
<text text-anchor="middle" x="1992.5" y="-225" font-family="Helvetica,sans-Serif" font-size="10.00"> m_EndContinuousIndex</text>
<text text-anchor="middle" x="1992.5" y="-214" font-family="Helvetica,sans-Serif" font-size="10.00">m_StartContinuousIndex</text>
</g>
<!-- Node31&#45;&gt;Node30 -->
<g id="edge40" class="edge">
<title>Node31&#45;&gt;Node30</title>
<path fill="none" stroke="midnightblue" d="M1249.6,-209.97C1363.73,-211.62 1594.47,-214.95 1719.97,-216.76"/>
<polygon fill="midnightblue" stroke="midnightblue" points="1249.64,-206.48 1239.59,-209.83 1249.53,-213.47 1249.64,-206.48"/>
</g>
<!-- Node32&#45;&gt;Node31 -->
<g id="edge41" class="edge">
<title>Node32&#45;&gt;Node31</title>
<path fill="none" stroke="midnightblue" d="M610.85,-194.77C738.58,-197.96 1005.03,-204.63 1122.39,-207.56"/>
<polygon fill="midnightblue" stroke="midnightblue" points="610.87,-191.27 600.79,-194.52 610.7,-198.27 610.87,-191.27"/>
</g>
<!-- Node33&#45;&gt;Node2 -->
<g id="edge46" class="edge">
<title>Node33&#45;&gt;Node2</title>
<path fill="none" stroke="orange" stroke-dasharray="5,2" d="M2769.5,-218.4C2811.81,-212.89 2863.01,-206.17 2909,-200 2916.26,-199.03 2923.82,-198 2931.38,-196.98"/>
<polygon fill="orange" stroke="orange" points="2768.96,-214.94 2759.5,-219.71 2769.87,-221.89 2768.96,-214.94"/>
<text text-anchor="middle" x="2845.5" y="-220" font-family="Helvetica,sans-Serif" font-size="10.00"> &lt; TInputImage, double &gt;</text>
</g>
<!-- Node34 -->
<g id="node34" class="node">
<title>Node34</title>
<g id="a_node34"><a xlink:href="classitk_1_1Function_1_1HammingWindowFunction.html" target="_top" xlink:title=" ">
<polygon fill="white" stroke="black" points="2927,-122 2927,-152 3097,-152 3097,-122 2927,-122"/>
<text text-anchor="start" x="2935" y="-140" font-family="Helvetica,sans-Serif" font-size="10.00">itk::Function::HammingWindow</text>
<text text-anchor="middle" x="3012" y="-129" font-family="Helvetica,sans-Serif" font-size="10.00">Function&lt; VRadius &gt;</text>
</a>
</g>
</g>
<!-- Node34&#45;&gt;Node1 -->
<g id="edge48" class="edge">
<title>Node34&#45;&gt;Node1</title>
<path fill="none" stroke="#9a32cd" stroke-dasharray="5,2" d="M3107.17,-144.24C3146.64,-147.28 3192.4,-150.8 3231.76,-153.83"/>
<polygon fill="#9a32cd" stroke="#9a32cd" points="3107.26,-140.74 3097.02,-143.46 3106.72,-147.72 3107.26,-140.74"/>
<text text-anchor="middle" x="3164.5" y="-155" font-family="Helvetica,sans-Serif" font-size="10.00"> m_WindowFunction</text>
</g>
<!-- Node35 -->
<g id="node35" class="node">
<title>Node35</title>
<g id="a_node35"><a xlink:href="classitk_1_1Function_1_1HammingWindowFunction.html" target="_top" xlink:title="Window function for sinc interpolation.">
<polygon fill="white" stroke="black" points="2594,-116.5 2594,-157.5 2764,-157.5 2764,-116.5 2594,-116.5"/>
<text text-anchor="start" x="2602" y="-145.5" font-family="Helvetica,sans-Serif" font-size="10.00">itk::Function::HammingWindow</text>
<text text-anchor="start" x="2602" y="-134.5" font-family="Helvetica,sans-Serif" font-size="10.00">Function&lt; VRadius, TInput,</text>
<text text-anchor="middle" x="2679" y="-123.5" font-family="Helvetica,sans-Serif" font-size="10.00"> TOutput &gt;</text>
</a>
</g>
</g>
<!-- Node35&#45;&gt;Node34 -->
<g id="edge49" class="edge">
<title>Node35&#45;&gt;Node34</title>
<path fill="none" stroke="orange" stroke-dasharray="5,2" d="M2774.47,-137C2822.47,-137 2880.3,-137 2926.77,-137"/>
<polygon fill="orange" stroke="orange" points="2774.38,-133.5 2764.38,-137 2774.38,-140.5 2774.38,-133.5"/>
<text text-anchor="middle" x="2845.5" y="-140" font-family="Helvetica,sans-Serif" font-size="10.00"> &lt; VRadius &gt;</text>
</g>
</g>
</svg>
