<?xml version="1.0" encoding="UTF-8" standalone="no"?>
<!DOCTYPE svg PUBLIC "-//W3C//DTD SVG 1.1//EN"
 "http://www.w3.org/Graphics/SVG/1.1/DTD/svg11.dtd">
<!-- Generated by graphviz version 2.43.0 (0)
 -->
<!-- Title: itk::VMMapSummaryRecord Pages: 1 -->
<svg width="363pt" height="319pt"
 viewBox="0.00 0.00 362.50 319.00" xmlns="http://www.w3.org/2000/svg" xmlns:xlink="http://www.w3.org/1999/xlink">
<g id="graph0" class="graph" transform="scale(1 1) rotate(0) translate(4 315)">
<title>itk::VMMapSummaryRecord</title>
<polygon fill="white" stroke="transparent" points="-4,4 -4,-315 358.5,-315 358.5,4 -4,4"/>
<!-- Node1 -->
<g id="node1" class="node">
<title>Node1</title>
<g id="a_node1"><a xlink:title="Contains an entry in a smaps file.">
<polygon fill="#bfbfbf" stroke="black" points="0,-0.5 0,-19.5 153,-19.5 153,-0.5 0,-0.5"/>
<text text-anchor="middle" x="76.5" y="-7.5" font-family="Helvetica,sans-Serif" font-size="10.00">itk::VMMapSummaryRecord</text>
</a>
</g>
</g>
<!-- Node2 -->
<g id="node2" class="node">
<title>Node2</title>
<g id="a_node2"><a xlink:href="classitk_1_1MapRecord.html" target="_top" xlink:title="MapRecord class.">
<polygon fill="white" stroke="black" points="31.5,-57.5 31.5,-76.5 121.5,-76.5 121.5,-57.5 31.5,-57.5"/>
<text text-anchor="middle" x="76.5" y="-64.5" font-family="Helvetica,sans-Serif" font-size="10.00">itk::MapRecord</text>
</a>
</g>
</g>
<!-- Node2&#45;&gt;Node1 -->
<g id="edge1" class="edge">
<title>Node2&#45;&gt;Node1</title>
<path fill="none" stroke="midnightblue" d="M76.5,-47.12C76.5,-37.82 76.5,-27.06 76.5,-19.71"/>
<polygon fill="midnightblue" stroke="midnightblue" points="73,-47.41 76.5,-57.41 80,-47.41 73,-47.41"/>
</g>
<!-- Node3 -->
<g id="node3" class="node">
<title>Node3</title>
<g id="a_node3"><a xlink:title=" ">
<polygon fill="white" stroke="#bfbfbf" points="160.5,-124.5 160.5,-154.5 282.5,-154.5 282.5,-124.5 160.5,-124.5"/>
<text text-anchor="start" x="168.5" y="-142.5" font-family="Helvetica,sans-Serif" font-size="10.00">std::map&lt; std::string,</text>
<text text-anchor="middle" x="221.5" y="-131.5" font-family="Helvetica,sans-Serif" font-size="10.00"> MemoryLoadType &gt;</text>
</a>
</g>
</g>
<!-- Node3&#45;&gt;Node2 -->
<g id="edge2" class="edge">
<title>Node3&#45;&gt;Node2</title>
<path fill="none" stroke="#9a32cd" stroke-dasharray="5,2" d="M183.48,-120.02C154.57,-105.96 116.11,-87.26 94.05,-76.53"/>
<polygon fill="#9a32cd" stroke="#9a32cd" points="181.98,-123.18 192.51,-124.4 185.04,-116.88 181.98,-123.18"/>
<text text-anchor="middle" x="179.5" y="-98" font-family="Helvetica,sans-Serif" font-size="10.00"> m_Tokens</text>
</g>
<!-- Node4 -->
<g id="node4" class="node">
<title>Node4</title>
<g id="a_node4"><a xlink:title="STL class.">
<polygon fill="white" stroke="#bfbfbf" points="68,-213.5 68,-232.5 133,-232.5 133,-213.5 68,-213.5"/>
<text text-anchor="middle" x="100.5" y="-220.5" font-family="Helvetica,sans-Serif" font-size="10.00">std::string</text>
</a>
</g>
</g>
<!-- Node4&#45;&gt;Node2 -->
<g id="edge8" class="edge">
<title>Node4&#45;&gt;Node2</title>
<path fill="none" stroke="#9a32cd" stroke-dasharray="5,2" d="M89.84,-204.5C82.5,-191.4 73.41,-172.75 69.5,-155 63.28,-126.73 70.24,-92.22 74.17,-76.51"/>
<polygon fill="#9a32cd" stroke="#9a32cd" points="86.92,-206.46 94.99,-213.34 92.97,-202.93 86.92,-206.46"/>
<text text-anchor="middle" x="110.5" y="-137" font-family="Helvetica,sans-Serif" font-size="10.00"> m_RecordName</text>
</g>
<!-- Node4&#45;&gt;Node3 -->
<g id="edge3" class="edge">
<title>Node4&#45;&gt;Node3</title>
<path fill="none" stroke="#9a32cd" stroke-dasharray="5,2" d="M121.85,-207.62C144.04,-192.67 178.54,-169.44 200.57,-154.6"/>
<polygon fill="#9a32cd" stroke="#9a32cd" points="119.79,-204.79 113.45,-213.28 123.7,-210.59 119.79,-204.79"/>
<text text-anchor="middle" x="185.5" y="-181.5" font-family="Helvetica,sans-Serif" font-size="10.00"> keys</text>
</g>
<!-- Node5 -->
<g id="node5" class="node">
<title>Node5</title>
<g id="a_node5"><a xlink:title="STL class.">
<polygon fill="white" stroke="#bfbfbf" points="48.5,-280.5 48.5,-310.5 152.5,-310.5 152.5,-280.5 48.5,-280.5"/>
<text text-anchor="start" x="56.5" y="-298.5" font-family="Helvetica,sans-Serif" font-size="10.00">std::basic_string&lt;</text>
<text text-anchor="middle" x="100.5" y="-287.5" font-family="Helvetica,sans-Serif" font-size="10.00"> char &gt;</text>
</a>
</g>
</g>
<!-- Node5&#45;&gt;Node4 -->
<g id="edge4" class="edge">
<title>Node5&#45;&gt;Node4</title>
<path fill="none" stroke="midnightblue" d="M100.5,-270.09C100.5,-257.21 100.5,-242.2 100.5,-232.89"/>
<polygon fill="midnightblue" stroke="midnightblue" points="97,-270.23 100.5,-280.23 104,-270.23 97,-270.23"/>
</g>
<!-- Node6 -->
<g id="node6" class="node">
<title>Node6</title>
<g id="a_node6"><a xlink:title="STL class.">
<polygon fill="white" stroke="#bfbfbf" points="171,-213.5 171,-232.5 272,-232.5 272,-213.5 171,-213.5"/>
<text text-anchor="middle" x="221.5" y="-220.5" font-family="Helvetica,sans-Serif" font-size="10.00">std::map&lt; K, T &gt;</text>
</a>
</g>
</g>
<!-- Node6&#45;&gt;Node3 -->
<g id="edge5" class="edge">
<title>Node6&#45;&gt;Node3</title>
<path fill="none" stroke="orange" stroke-dasharray="5,2" d="M221.5,-203.23C221.5,-188.41 221.5,-168.05 221.5,-154.6"/>
<polygon fill="orange" stroke="orange" points="218,-203.28 221.5,-213.28 225,-203.28 218,-203.28"/>
<text text-anchor="start" x="221.5" y="-187" font-family="Helvetica,sans-Serif" font-size="10.00"> &lt; std::string, MemoryLoad</text>
<text text-anchor="middle" x="288" y="-176" font-family="Helvetica,sans-Serif" font-size="10.00">Type &gt;</text>
</g>
<!-- Node7 -->
<g id="node7" class="node">
<title>Node7</title>
<g id="a_node7"><a xlink:title=" ">
<polygon fill="white" stroke="#bfbfbf" points="179,-286 179,-305 208,-305 208,-286 179,-286"/>
<text text-anchor="middle" x="193.5" y="-293" font-family="Helvetica,sans-Serif" font-size="10.00">K</text>
</a>
</g>
</g>
<!-- Node7&#45;&gt;Node6 -->
<g id="edge6" class="edge">
<title>Node7&#45;&gt;Node6</title>
<path fill="none" stroke="#9a32cd" stroke-dasharray="5,2" d="M194.46,-275.74C195.38,-267.85 197.14,-258.72 200.5,-251 203.44,-244.25 208.46,-237.7 212.85,-232.75"/>
<polygon fill="#9a32cd" stroke="#9a32cd" points="190.96,-275.56 193.64,-285.81 197.94,-276.12 190.96,-275.56"/>
<text text-anchor="middle" x="213.5" y="-254" font-family="Helvetica,sans-Serif" font-size="10.00"> keys</text>
</g>
<!-- Node8 -->
<g id="node8" class="node">
<title>Node8</title>
<g id="a_node8"><a xlink:title=" ">
<polygon fill="white" stroke="#bfbfbf" points="228,-286 228,-305 257,-305 257,-286 228,-286"/>
<text text-anchor="middle" x="242.5" y="-293" font-family="Helvetica,sans-Serif" font-size="10.00">T</text>
</a>
</g>
</g>
<!-- Node8&#45;&gt;Node6 -->
<g id="edge7" class="edge">
<title>Node8&#45;&gt;Node6</title>
<path fill="none" stroke="#9a32cd" stroke-dasharray="5,2" d="M237.07,-276.27C232.9,-262.26 227.32,-243.53 224.1,-232.72"/>
<polygon fill="#9a32cd" stroke="#9a32cd" points="233.72,-277.27 239.92,-285.86 240.42,-275.27 233.72,-277.27"/>
<text text-anchor="middle" x="258" y="-254" font-family="Helvetica,sans-Serif" font-size="10.00"> elements</text>
</g>
</g>
</svg>
