<?xml version="1.0" encoding="UTF-8" standalone="no"?>
<!DOCTYPE svg PUBLIC "-//W3C//DTD SVG 1.1//EN"
 "http://www.w3.org/Graphics/SVG/1.1/DTD/svg11.dtd">
<!-- Generated by graphviz version 2.43.0 (0)
 -->
<!-- Title: itk::TransformFileWriterTemplate&lt; TParametersValueType &gt; Pages: 1 -->
<svg width="1541pt" height="169pt"
 viewBox="0.00 0.00 1541.00 169.00" xmlns="http://www.w3.org/2000/svg" xmlns:xlink="http://www.w3.org/1999/xlink">
<g id="graph0" class="graph" transform="scale(1 1) rotate(0) translate(4 165)">
<title>itk::TransformFileWriterTemplate&lt; TParametersValueType &gt;</title>
<polygon fill="white" stroke="transparent" points="-4,4 -4,-165 1537,-165 1537,4 -4,4"/>
<!-- Node1 -->
<g id="node1" class="node">
<title>Node1</title>
<g id="a_node1"><a xlink:title="TODO.">
<polygon fill="#bfbfbf" stroke="black" points="1338,-16 1338,-46 1533,-46 1533,-16 1338,-16"/>
<text text-anchor="start" x="1346" y="-34" font-family="Helvetica,sans-Serif" font-size="10.00">itk::TransformFileWriter</text>
<text text-anchor="middle" x="1435.5" y="-23" font-family="Helvetica,sans-Serif" font-size="10.00">Template&lt; TParametersValueType &gt;</text>
</a>
</g>
</g>
<!-- Node2 -->
<g id="node2" class="node">
<title>Node2</title>
<g id="a_node2"><a xlink:href="classitk_1_1LightProcessObject.html" target="_top" xlink:title="LightProcessObject is the base class for all process objects (source, filters, mappers) in the Insigh...">
<polygon fill="white" stroke="black" points="1173,-61.5 1173,-80.5 1301,-80.5 1301,-61.5 1173,-61.5"/>
<text text-anchor="middle" x="1237" y="-68.5" font-family="Helvetica,sans-Serif" font-size="10.00">itk::LightProcessObject</text>
</a>
</g>
</g>
<!-- Node2&#45;&gt;Node1 -->
<g id="edge1" class="edge">
<title>Node2&#45;&gt;Node1</title>
<path fill="none" stroke="midnightblue" d="M1294.88,-59.42C1315.38,-55.25 1338.83,-50.48 1360.57,-46.05"/>
<polygon fill="midnightblue" stroke="midnightblue" points="1294.17,-55.99 1285.07,-61.42 1295.56,-62.85 1294.17,-55.99"/>
</g>
<!-- Node3 -->
<g id="node3" class="node">
<title>Node3</title>
<g id="a_node3"><a xlink:href="classitk_1_1Object.html" target="_top" xlink:title="Base class for most ITK classes.">
<polygon fill="white" stroke="black" points="1005,-76.5 1005,-95.5 1072,-95.5 1072,-76.5 1005,-76.5"/>
<text text-anchor="middle" x="1038.5" y="-83.5" font-family="Helvetica,sans-Serif" font-size="10.00">itk::Object</text>
</a>
</g>
</g>
<!-- Node3&#45;&gt;Node2 -->
<g id="edge2" class="edge">
<title>Node3&#45;&gt;Node2</title>
<path fill="none" stroke="midnightblue" d="M1082.47,-82.72C1108.91,-80.7 1143.27,-78.08 1172.78,-75.83"/>
<polygon fill="midnightblue" stroke="midnightblue" points="1082.09,-79.24 1072.39,-83.49 1082.63,-86.22 1082.09,-79.24"/>
</g>
<!-- Node4 -->
<g id="node4" class="node">
<title>Node4</title>
<g id="a_node4"><a xlink:href="classitk_1_1LightObject.html" target="_top" xlink:title="Light weight base class for most itk classes.">
<polygon fill="white" stroke="black" points="739.5,-141.5 739.5,-160.5 830.5,-160.5 830.5,-141.5 739.5,-141.5"/>
<text text-anchor="middle" x="785" y="-148.5" font-family="Helvetica,sans-Serif" font-size="10.00">itk::LightObject</text>
</a>
</g>
</g>
<!-- Node4&#45;&gt;Node3 -->
<g id="edge3" class="edge">
<title>Node4&#45;&gt;Node3</title>
<path fill="none" stroke="midnightblue" d="M841.1,-152.07C882.69,-151.02 940.36,-145.55 987,-126 1003.5,-119.08 1019.11,-105.19 1028.48,-95.74"/>
<polygon fill="midnightblue" stroke="midnightblue" points="840.83,-148.57 830.89,-152.24 840.95,-155.57 840.83,-148.57"/>
</g>
<!-- Node5 -->
<g id="node5" class="node">
<title>Node5</title>
<g id="a_node5"><a xlink:title=" ">
<polygon fill="white" stroke="#bfbfbf" points="457,-140.5 457,-159.5 564,-159.5 564,-140.5 457,-140.5"/>
<text text-anchor="middle" x="510.5" y="-147.5" font-family="Helvetica,sans-Serif" font-size="10.00">std::atomic&lt; int &gt;</text>
</a>
</g>
</g>
<!-- Node5&#45;&gt;Node4 -->
<g id="edge4" class="edge">
<title>Node5&#45;&gt;Node4</title>
<path fill="none" stroke="#9a32cd" stroke-dasharray="5,2" d="M574.18,-150.23C624.64,-150.42 694.33,-150.67 739.29,-150.84"/>
<polygon fill="#9a32cd" stroke="#9a32cd" points="574.05,-146.73 564.04,-150.19 574.03,-153.73 574.05,-146.73"/>
<text text-anchor="middle" x="651.5" y="-153" font-family="Helvetica,sans-Serif" font-size="10.00"> m_ReferenceCount</text>
</g>
<!-- Node6 -->
<g id="node6" class="node">
<title>Node6</title>
<g id="a_node6"><a xlink:title="STL class.">
<polygon fill="white" stroke="#bfbfbf" points="123,-105.5 123,-124.5 223,-124.5 223,-105.5 123,-105.5"/>
<text text-anchor="middle" x="173" y="-112.5" font-family="Helvetica,sans-Serif" font-size="10.00">std::atomic&lt; T &gt;</text>
</a>
</g>
</g>
<!-- Node6&#45;&gt;Node5 -->
<g id="edge5" class="edge">
<title>Node6&#45;&gt;Node5</title>
<path fill="none" stroke="orange" stroke-dasharray="5,2" d="M233.19,-123.87C238.86,-124.63 244.54,-125.35 250,-126 321.44,-134.47 404.24,-141.68 456.73,-145.92"/>
<polygon fill="orange" stroke="orange" points="233.39,-120.36 223.01,-122.47 232.44,-127.3 233.39,-120.36"/>
<text text-anchor="middle" x="334" y="-145" font-family="Helvetica,sans-Serif" font-size="10.00"> &lt; int &gt;</text>
</g>
<!-- Node15 -->
<g id="node15" class="node">
<title>Node15</title>
<g id="a_node15"><a xlink:href="classitk_1_1TimeStamp.html" target="_top" xlink:title="Generate a unique, increasing time value.">
<polygon fill="white" stroke="black" points="605.5,-102.5 605.5,-121.5 697.5,-121.5 697.5,-102.5 605.5,-102.5"/>
<text text-anchor="middle" x="651.5" y="-109.5" font-family="Helvetica,sans-Serif" font-size="10.00">itk::TimeStamp</text>
</a>
</g>
</g>
<!-- Node6&#45;&gt;Node15 -->
<g id="edge17" class="edge">
<title>Node6&#45;&gt;Node15</title>
<path fill="none" stroke="#9a32cd" stroke-dasharray="5,2" d="M233.21,-111.58C238.89,-111.34 244.55,-111.14 250,-111 378.94,-107.61 531.3,-109.66 605.44,-111.04"/>
<polygon fill="#9a32cd" stroke="#9a32cd" points="232.88,-108.09 223.04,-112.04 233.19,-115.09 232.88,-108.09"/>
<text text-anchor="middle" x="334" y="-114" font-family="Helvetica,sans-Serif" font-size="10.00"> m_GlobalTimeStamp</text>
</g>
<!-- Node7 -->
<g id="node7" class="node">
<title>Node7</title>
<g id="a_node7"><a xlink:title=" ">
<polygon fill="white" stroke="#bfbfbf" points="0,-68.5 0,-87.5 29,-87.5 29,-68.5 0,-68.5"/>
<text text-anchor="middle" x="14.5" y="-75.5" font-family="Helvetica,sans-Serif" font-size="10.00">T</text>
</a>
</g>
</g>
<!-- Node7&#45;&gt;Node6 -->
<g id="edge6" class="edge">
<title>Node7&#45;&gt;Node6</title>
<path fill="none" stroke="#9a32cd" stroke-dasharray="5,2" d="M38.37,-88.91C41.23,-90.06 44.16,-91.12 47,-92 71.56,-99.6 99.65,-105.05 122.98,-108.72"/>
<polygon fill="#9a32cd" stroke="#9a32cd" points="39.6,-85.63 29.03,-84.86 36.81,-92.05 39.6,-85.63"/>
<text text-anchor="middle" x="71.5" y="-106" font-family="Helvetica,sans-Serif" font-size="10.00"> ptr</text>
</g>
<!-- Node12 -->
<g id="node12" class="node">
<title>Node12</title>
<g id="a_node12"><a xlink:title="STL class.">
<polygon fill="white" stroke="#bfbfbf" points="122.5,-29.5 122.5,-48.5 223.5,-48.5 223.5,-29.5 122.5,-29.5"/>
<text text-anchor="middle" x="173" y="-36.5" font-family="Helvetica,sans-Serif" font-size="10.00">std::map&lt; K, T &gt;</text>
</a>
</g>
</g>
<!-- Node7&#45;&gt;Node12 -->
<g id="edge13" class="edge">
<title>Node7&#45;&gt;Node12</title>
<path fill="none" stroke="#9a32cd" stroke-dasharray="5,2" d="M38.44,-65.4C41.27,-64.13 44.17,-62.96 47,-62 71.25,-53.8 99.19,-48.31 122.49,-44.76"/>
<polygon fill="#9a32cd" stroke="#9a32cd" points="36.66,-62.38 29.24,-69.94 39.75,-68.66 36.66,-62.38"/>
<text text-anchor="middle" x="71.5" y="-65" font-family="Helvetica,sans-Serif" font-size="10.00"> elements</text>
</g>
<!-- Node14 -->
<g id="node14" class="node">
<title>Node14</title>
<g id="a_node14"><a xlink:title="STL class.">
<polygon fill="white" stroke="#bfbfbf" points="114,-67.5 114,-86.5 232,-86.5 232,-67.5 114,-67.5"/>
<text text-anchor="middle" x="173" y="-74.5" font-family="Helvetica,sans-Serif" font-size="10.00">std::shared_ptr&lt; T &gt;</text>
</a>
</g>
</g>
<!-- Node7&#45;&gt;Node14 -->
<g id="edge15" class="edge">
<title>Node7&#45;&gt;Node14</title>
<path fill="none" stroke="#9a32cd" stroke-dasharray="5,2" d="M39.32,-77.85C59.06,-77.72 87.96,-77.54 113.75,-77.37"/>
<polygon fill="#9a32cd" stroke="#9a32cd" points="39.09,-74.35 29.11,-77.91 39.14,-81.35 39.09,-74.35"/>
<text text-anchor="middle" x="71.5" y="-80" font-family="Helvetica,sans-Serif" font-size="10.00"> ptr</text>
</g>
<!-- Node8 -->
<g id="node8" class="node">
<title>Node8</title>
<g id="a_node8"><a xlink:title="STL class.">
<polygon fill="white" stroke="#bfbfbf" points="752.5,-9.5 752.5,-28.5 817.5,-28.5 817.5,-9.5 752.5,-9.5"/>
<text text-anchor="middle" x="785" y="-16.5" font-family="Helvetica,sans-Serif" font-size="10.00">std::string</text>
</a>
</g>
</g>
<!-- Node8&#45;&gt;Node1 -->
<g id="edge18" class="edge">
<title>Node8&#45;&gt;Node1</title>
<path fill="none" stroke="#9a32cd" stroke-dasharray="5,2" d="M827.95,-19.78C930.13,-21.67 1194.07,-26.55 1337.79,-29.21"/>
<polygon fill="#9a32cd" stroke="#9a32cd" points="827.78,-16.27 817.72,-19.59 827.65,-23.27 827.78,-16.27"/>
<text text-anchor="middle" x="1122.5" y="-29" font-family="Helvetica,sans-Serif" font-size="10.00"> m_FileName</text>
</g>
<!-- Node8&#45;&gt;Node3 -->
<g id="edge7" class="edge">
<title>Node8&#45;&gt;Node3</title>
<path fill="none" stroke="#9a32cd" stroke-dasharray="5,2" d="M828.04,-25.56C878.06,-33.65 958.39,-47.59 987,-58 999.81,-62.66 1013.26,-70.27 1023.06,-76.38"/>
<polygon fill="#9a32cd" stroke="#9a32cd" points="828.29,-22.06 817.86,-23.93 827.18,-28.97 828.29,-22.06"/>
<text text-anchor="middle" x="928.5" y="-61" font-family="Helvetica,sans-Serif" font-size="10.00"> m_ObjectName</text>
</g>
<!-- Node9 -->
<g id="node9" class="node">
<title>Node9</title>
<g id="a_node9"><a xlink:title="STL class.">
<polygon fill="white" stroke="#bfbfbf" points="458.5,-3 458.5,-33 562.5,-33 562.5,-3 458.5,-3"/>
<text text-anchor="start" x="466.5" y="-21" font-family="Helvetica,sans-Serif" font-size="10.00">std::basic_string&lt;</text>
<text text-anchor="middle" x="510.5" y="-10" font-family="Helvetica,sans-Serif" font-size="10.00"> char &gt;</text>
</a>
</g>
</g>
<!-- Node9&#45;&gt;Node8 -->
<g id="edge8" class="edge">
<title>Node9&#45;&gt;Node8</title>
<path fill="none" stroke="midnightblue" d="M572.85,-18.23C628.49,-18.43 708.3,-18.72 752.14,-18.88"/>
<polygon fill="midnightblue" stroke="midnightblue" points="572.77,-14.72 562.76,-18.19 572.74,-21.72 572.77,-14.72"/>
</g>
<!-- Node10 -->
<g id="node10" class="node">
<title>Node10</title>
<g id="a_node10"><a xlink:href="classitk_1_1MetaDataDictionary.html" target="_top" xlink:title="Provides a mechanism for storing a collection of arbitrary data types.">
<polygon fill="white" stroke="black" points="718,-56.5 718,-75.5 852,-75.5 852,-56.5 718,-56.5"/>
<text text-anchor="middle" x="785" y="-63.5" font-family="Helvetica,sans-Serif" font-size="10.00">itk::MetaDataDictionary</text>
</a>
</g>
</g>
<!-- Node10&#45;&gt;Node3 -->
<g id="edge9" class="edge">
<title>Node10&#45;&gt;Node3</title>
<path fill="none" stroke="#9a32cd" stroke-dasharray="5,2" d="M862.08,-72.05C909.79,-75.84 968.88,-80.54 1004.85,-83.4"/>
<polygon fill="#9a32cd" stroke="#9a32cd" points="862.32,-68.56 852.08,-71.25 861.77,-75.54 862.32,-68.56"/>
<text text-anchor="middle" x="928.5" y="-84" font-family="Helvetica,sans-Serif" font-size="10.00"> m_MetaDataDictionary</text>
</g>
<!-- Node11 -->
<g id="node11" class="node">
<title>Node11</title>
<g id="a_node11"><a xlink:title=" ">
<polygon fill="white" stroke="#bfbfbf" points="436,-52 436,-82 585,-82 585,-52 436,-52"/>
<text text-anchor="start" x="444" y="-70" font-family="Helvetica,sans-Serif" font-size="10.00">std::shared_ptr&lt; MetaData</text>
<text text-anchor="middle" x="510.5" y="-59" font-family="Helvetica,sans-Serif" font-size="10.00">DictionaryMapType &gt;</text>
</a>
</g>
</g>
<!-- Node11&#45;&gt;Node10 -->
<g id="edge10" class="edge">
<title>Node11&#45;&gt;Node10</title>
<path fill="none" stroke="#9a32cd" stroke-dasharray="5,2" d="M595.34,-66.69C634.65,-66.55 680.82,-66.38 717.65,-66.24"/>
<polygon fill="#9a32cd" stroke="#9a32cd" points="595.23,-63.19 585.24,-66.73 595.26,-70.19 595.23,-63.19"/>
<text text-anchor="middle" x="651.5" y="-69" font-family="Helvetica,sans-Serif" font-size="10.00"> m_Dictionary</text>
</g>
<!-- Node12&#45;&gt;Node11 -->
<g id="edge11" class="edge">
<title>Node12&#45;&gt;Node11</title>
<path fill="none" stroke="#9a32cd" stroke-dasharray="5,2" d="M233.83,-41.35C283.29,-43.6 355.32,-47.63 418,-54 423.75,-54.58 429.69,-55.26 435.65,-55.99"/>
<polygon fill="#9a32cd" stroke="#9a32cd" points="233.78,-37.84 223.63,-40.89 233.46,-44.83 233.78,-37.84"/>
<text text-anchor="middle" x="334" y="-57" font-family="Helvetica,sans-Serif" font-size="10.00"> ptr</text>
</g>
<!-- Node13 -->
<g id="node13" class="node">
<title>Node13</title>
<g id="a_node13"><a xlink:title=" ">
<polygon fill="white" stroke="#bfbfbf" points="0,-0.5 0,-19.5 29,-19.5 29,-0.5 0,-0.5"/>
<text text-anchor="middle" x="14.5" y="-7.5" font-family="Helvetica,sans-Serif" font-size="10.00">K</text>
</a>
</g>
</g>
<!-- Node13&#45;&gt;Node12 -->
<g id="edge12" class="edge">
<title>Node13&#45;&gt;Node12</title>
<path fill="none" stroke="#9a32cd" stroke-dasharray="5,2" d="M39.2,-8.2C55.34,-7.48 77.13,-7.51 96,-11 115.63,-14.63 136.87,-22.85 151.89,-29.45"/>
<polygon fill="#9a32cd" stroke="#9a32cd" points="38.81,-4.71 29.02,-8.78 39.21,-11.7 38.81,-4.71"/>
<text text-anchor="middle" x="71.5" y="-14" font-family="Helvetica,sans-Serif" font-size="10.00"> keys</text>
</g>
<!-- Node14&#45;&gt;Node11 -->
<g id="edge14" class="edge">
<title>Node14&#45;&gt;Node11</title>
<path fill="none" stroke="orange" stroke-dasharray="5,2" d="M242.27,-74.97C298.5,-73.29 378.06,-70.92 435.74,-69.2"/>
<polygon fill="orange" stroke="orange" points="241.95,-71.47 232.06,-75.27 242.16,-78.47 241.95,-71.47"/>
<text text-anchor="middle" x="334" y="-77" font-family="Helvetica,sans-Serif" font-size="10.00"> &lt; MetaDataDictionaryMapType &gt;</text>
</g>
<!-- Node15&#45;&gt;Node3 -->
<g id="edge16" class="edge">
<title>Node15&#45;&gt;Node3</title>
<path fill="none" stroke="#9a32cd" stroke-dasharray="5,2" d="M707.83,-111.85C774.34,-111.09 889.22,-107.95 987,-96 992.77,-95.3 998.86,-94.3 1004.74,-93.22"/>
<polygon fill="#9a32cd" stroke="#9a32cd" points="707.55,-108.35 697.58,-111.95 707.62,-115.35 707.55,-108.35"/>
<text text-anchor="middle" x="785" y="-114" font-family="Helvetica,sans-Serif" font-size="10.00"> m_MTime</text>
</g>
</g>
</svg>
