<?xml version="1.0" encoding="UTF-8" standalone="no"?>
<!DOCTYPE svg PUBLIC "-//W3C//DTD SVG 1.1//EN"
 "http://www.w3.org/Graphics/SVG/1.1/DTD/svg11.dtd">
<!-- Generated by graphviz version 2.43.0 (0)
 -->
<!-- Title: itk::ImageSeriesWriter&lt; TInputImage, TOutputImage &gt; Pages: 1 -->
<svg width="1912pt" height="565pt"
 viewBox="0.00 0.00 1912.00 565.00" xmlns="http://www.w3.org/2000/svg" xmlns:xlink="http://www.w3.org/1999/xlink">
<g id="graph0" class="graph" transform="scale(1 1) rotate(0) translate(4 561)">
<title>itk::ImageSeriesWriter&lt; TInputImage, TOutputImage &gt;</title>
<polygon fill="white" stroke="transparent" points="-4,4 -4,-561 1908,-561 1908,4 -4,4"/>
<!-- Node1 -->
<g id="node1" class="node">
<title>Node1</title>
<g id="a_node1"><a xlink:title="Writes image data to a series of data files.">
<polygon fill="#bfbfbf" stroke="black" points="1728,-255.5 1728,-285.5 1904,-285.5 1904,-255.5 1728,-255.5"/>
<text text-anchor="start" x="1736" y="-273.5" font-family="Helvetica,sans-Serif" font-size="10.00">itk::ImageSeriesWriter</text>
<text text-anchor="middle" x="1816" y="-262.5" font-family="Helvetica,sans-Serif" font-size="10.00">&lt; TInputImage, TOutputImage &gt;</text>
</a>
</g>
</g>
<!-- Node2 -->
<g id="node2" class="node">
<title>Node2</title>
<g id="a_node2"><a xlink:href="classitk_1_1ProcessObject.html" target="_top" xlink:title="The base class for all process objects (source, filters, mappers) in the Insight data processing pipe...">
<polygon fill="white" stroke="black" points="1587,-261 1587,-280 1691,-280 1691,-261 1587,-261"/>
<text text-anchor="middle" x="1639" y="-268" font-family="Helvetica,sans-Serif" font-size="10.00">itk::ProcessObject</text>
</a>
</g>
</g>
<!-- Node2&#45;&gt;Node1 -->
<g id="edge1" class="edge">
<title>Node2&#45;&gt;Node1</title>
<path fill="none" stroke="midnightblue" d="M1701.1,-270.5C1709.8,-270.5 1718.88,-270.5 1727.96,-270.5"/>
<polygon fill="midnightblue" stroke="midnightblue" points="1701.09,-267 1691.09,-270.5 1701.09,-274 1701.09,-267"/>
</g>
<!-- Node3 -->
<g id="node3" class="node">
<title>Node3</title>
<g id="a_node3"><a xlink:href="classitk_1_1Object.html" target="_top" xlink:title="Base class for most ITK classes.">
<polygon fill="white" stroke="black" points="1290,-284 1290,-303 1357,-303 1357,-284 1290,-284"/>
<text text-anchor="middle" x="1323.5" y="-291" font-family="Helvetica,sans-Serif" font-size="10.00">itk::Object</text>
</a>
</g>
</g>
<!-- Node3&#45;&gt;Node2 -->
<g id="edge2" class="edge">
<title>Node3&#45;&gt;Node2</title>
<path fill="none" stroke="midnightblue" d="M1367.54,-290.73C1416.39,-287.54 1498.46,-282.01 1569,-276.5 1574.75,-276.05 1580.78,-275.55 1586.76,-275.05"/>
<polygon fill="midnightblue" stroke="midnightblue" points="1367.09,-287.25 1357.34,-291.39 1367.54,-294.24 1367.09,-287.25"/>
</g>
<!-- Node4 -->
<g id="node4" class="node">
<title>Node4</title>
<g id="a_node4"><a xlink:href="classitk_1_1LightObject.html" target="_top" xlink:title="Light weight base class for most itk classes.">
<polygon fill="white" stroke="black" points="935,-211 935,-230 1026,-230 1026,-211 935,-211"/>
<text text-anchor="middle" x="980.5" y="-218" font-family="Helvetica,sans-Serif" font-size="10.00">itk::LightObject</text>
</a>
</g>
</g>
<!-- Node4&#45;&gt;Node3 -->
<g id="edge3" class="edge">
<title>Node4&#45;&gt;Node3</title>
<path fill="none" stroke="midnightblue" d="M1036.44,-217.3C1097.75,-214.82 1192.14,-214.62 1221,-234.5 1237.05,-245.55 1223.91,-262.15 1239,-274.5 1253.15,-286.08 1272.98,-290.92 1289.76,-292.82"/>
<polygon fill="midnightblue" stroke="midnightblue" points="1035.99,-213.81 1026.15,-217.75 1036.29,-220.81 1035.99,-213.81"/>
</g>
<!-- Node5 -->
<g id="node5" class="node">
<title>Node5</title>
<g id="a_node5"><a xlink:title=" ">
<polygon fill="white" stroke="black" points="655.5,-211 655.5,-230 762.5,-230 762.5,-211 655.5,-211"/>
<text text-anchor="middle" x="709" y="-218" font-family="Helvetica,sans-Serif" font-size="10.00">std::atomic&lt; int &gt;</text>
</a>
</g>
</g>
<!-- Node5&#45;&gt;Node4 -->
<g id="edge4" class="edge">
<title>Node5&#45;&gt;Node4</title>
<path fill="none" stroke="#9a32cd" stroke-dasharray="5,2" d="M772.89,-220.5C822.48,-220.5 890.42,-220.5 934.63,-220.5"/>
<polygon fill="#9a32cd" stroke="#9a32cd" points="772.6,-217 762.6,-220.5 772.6,-224 772.6,-217"/>
<text text-anchor="middle" x="842.5" y="-223.5" font-family="Helvetica,sans-Serif" font-size="10.00"> m_ReferenceCount</text>
</g>
<!-- Node6 -->
<g id="node6" class="node">
<title>Node6</title>
<g id="a_node6"><a xlink:href="classitk_1_1TimeStamp.html" target="_top" xlink:title="Generate a unique, increasing time value.">
<polygon fill="white" stroke="black" points="934.5,-322 934.5,-341 1026.5,-341 1026.5,-322 934.5,-322"/>
<text text-anchor="middle" x="980.5" y="-329" font-family="Helvetica,sans-Serif" font-size="10.00">itk::TimeStamp</text>
</a>
</g>
</g>
<!-- Node6&#45;&gt;Node2 -->
<g id="edge17" class="edge">
<title>Node6&#45;&gt;Node2</title>
<path fill="none" stroke="#9a32cd" stroke-dasharray="5,2" d="M1036.53,-332.93C1047.61,-333.17 1059.18,-333.37 1070,-333.5 1292.41,-336.01 1352.35,-345.81 1569,-295.5 1585.01,-291.78 1602.41,-285.46 1615.72,-280.1"/>
<polygon fill="#9a32cd" stroke="#9a32cd" points="1036.59,-329.43 1026.52,-332.71 1036.44,-336.43 1036.59,-329.43"/>
<text text-anchor="middle" x="1323.5" y="-338.5" font-family="Helvetica,sans-Serif" font-size="10.00"> m_OutputInformationMTime</text>
</g>
<!-- Node6&#45;&gt;Node3 -->
<g id="edge5" class="edge">
<title>Node6&#45;&gt;Node3</title>
<path fill="none" stroke="#9a32cd" stroke-dasharray="5,2" d="M1036.99,-325.31C1108.76,-317.31 1231.46,-303.64 1289.82,-297.14"/>
<polygon fill="#9a32cd" stroke="#9a32cd" points="1036.33,-321.86 1026.78,-326.45 1037.11,-328.82 1036.33,-321.86"/>
<text text-anchor="middle" x="1145.5" y="-323.5" font-family="Helvetica,sans-Serif" font-size="10.00"> m_MTime</text>
</g>
<!-- Node7 -->
<g id="node7" class="node">
<title>Node7</title>
<g id="a_node7"><a xlink:title=" ">
<polygon fill="white" stroke="black" points="233,-328 233,-347 333,-347 333,-328 233,-328"/>
<text text-anchor="middle" x="283" y="-335" font-family="Helvetica,sans-Serif" font-size="10.00">std::atomic&lt; T &gt;</text>
</a>
</g>
</g>
<!-- Node7&#45;&gt;Node6 -->
<g id="edge6" class="edge">
<title>Node7&#45;&gt;Node6</title>
<path fill="none" stroke="#9a32cd" stroke-dasharray="5,2" d="M343.44,-336.98C479.86,-335.81 813,-332.93 934.35,-331.89"/>
<polygon fill="#9a32cd" stroke="#9a32cd" points="343.15,-333.49 333.18,-337.07 343.21,-340.48 343.15,-333.49"/>
<text text-anchor="middle" x="571" y="-337.5" font-family="Helvetica,sans-Serif" font-size="10.00"> m_GlobalTimeStamp</text>
</g>
<!-- Node8 -->
<g id="node8" class="node">
<title>Node8</title>
<g id="a_node8"><a xlink:title=" ">
<polygon fill="white" stroke="black" points="0,-357 0,-376 29,-376 29,-357 0,-357"/>
<text text-anchor="middle" x="14.5" y="-364" font-family="Helvetica,sans-Serif" font-size="10.00">T</text>
</a>
</g>
</g>
<!-- Node8&#45;&gt;Node7 -->
<g id="edge7" class="edge">
<title>Node8&#45;&gt;Node7</title>
<path fill="none" stroke="#9a32cd" stroke-dasharray="5,2" d="M39.45,-363.4C42,-363.09 44.55,-362.78 47,-362.5 111.19,-355.01 185.34,-347.27 232.91,-342.42"/>
<polygon fill="#9a32cd" stroke="#9a32cd" points="38.78,-359.96 29.29,-364.68 39.65,-366.9 38.78,-359.96"/>
<text text-anchor="middle" x="71.5" y="-365.5" font-family="Helvetica,sans-Serif" font-size="10.00"> ptr</text>
</g>
<!-- Node13 -->
<g id="node13" class="node">
<title>Node13</title>
<g id="a_node13"><a xlink:title=" ">
<polygon fill="white" stroke="black" points="114,-411 114,-430 215,-430 215,-411 114,-411"/>
<text text-anchor="middle" x="164.5" y="-418" font-family="Helvetica,sans-Serif" font-size="10.00">std::map&lt; K, T &gt;</text>
</a>
</g>
</g>
<!-- Node8&#45;&gt;Node13 -->
<g id="edge14" class="edge">
<title>Node8&#45;&gt;Node13</title>
<path fill="none" stroke="#9a32cd" stroke-dasharray="5,2" d="M38.84,-375.01C65.6,-384.78 109.36,-400.74 137.27,-410.93"/>
<polygon fill="#9a32cd" stroke="#9a32cd" points="39.75,-371.62 29.16,-371.48 37.35,-378.19 39.75,-371.62"/>
<text text-anchor="middle" x="71.5" y="-397.5" font-family="Helvetica,sans-Serif" font-size="10.00"> elements</text>
</g>
<!-- Node9 -->
<g id="node9" class="node">
<title>Node9</title>
<g id="a_node9"><a xlink:title=" ">
<polygon fill="white" stroke="black" points="912,-272.5 912,-302.5 1049,-302.5 1049,-272.5 912,-272.5"/>
<text text-anchor="start" x="920" y="-290.5" font-family="Helvetica,sans-Serif" font-size="10.00">std::unique_ptr&lt; Subject</text>
<text text-anchor="middle" x="980.5" y="-279.5" font-family="Helvetica,sans-Serif" font-size="10.00">Implementation &gt;</text>
</a>
</g>
</g>
<!-- Node9&#45;&gt;Node3 -->
<g id="edge8" class="edge">
<title>Node9&#45;&gt;Node3</title>
<path fill="none" stroke="#9a32cd" stroke-dasharray="5,2" d="M1059.21,-286.94C1106.08,-286.82 1166.98,-287.05 1221,-288.5 1243.93,-289.11 1269.74,-290.39 1289.6,-291.5"/>
<polygon fill="#9a32cd" stroke="#9a32cd" points="1059.12,-283.44 1049.13,-286.97 1059.14,-290.44 1059.12,-283.44"/>
<text text-anchor="middle" x="1145.5" y="-291.5" font-family="Helvetica,sans-Serif" font-size="10.00"> m_SubjectImplementation</text>
</g>
<!-- Node10 -->
<g id="node10" class="node">
<title>Node10</title>
<g id="a_node10"><a xlink:title=" ">
<polygon fill="white" stroke="black" points="914.5,-409.5 914.5,-439.5 1046.5,-439.5 1046.5,-409.5 914.5,-409.5"/>
<text text-anchor="start" x="922.5" y="-427.5" font-family="Helvetica,sans-Serif" font-size="10.00">std::unique_ptr&lt; itk</text>
<text text-anchor="middle" x="980.5" y="-416.5" font-family="Helvetica,sans-Serif" font-size="10.00">::MetaDataDictionary &gt;</text>
</a>
</g>
</g>
<!-- Node10&#45;&gt;Node3 -->
<g id="edge9" class="edge">
<title>Node10&#45;&gt;Node3</title>
<path fill="none" stroke="#9a32cd" stroke-dasharray="5,2" d="M1036.27,-406.08C1041.6,-404.22 1046.91,-402.34 1052,-400.5 1127.66,-373.08 1153.52,-379.35 1221,-335.5 1230.49,-329.33 1229.25,-323.24 1239,-317.5 1254.46,-308.38 1273.59,-302.55 1289.64,-298.93"/>
<polygon fill="#9a32cd" stroke="#9a32cd" points="1035.03,-402.81 1026.72,-409.39 1037.32,-409.43 1035.03,-402.81"/>
<text text-anchor="middle" x="1145.5" y="-395.5" font-family="Helvetica,sans-Serif" font-size="10.00"> m_MetaDataDictionary</text>
</g>
<!-- Node11 -->
<g id="node11" class="node">
<title>Node11</title>
<g id="a_node11"><a xlink:href="classitk_1_1MetaDataDictionary.html" target="_top" xlink:title="Provides a mechanism for storing a collection of arbitrary data types.">
<polygon fill="white" stroke="black" points="642,-415 642,-434 776,-434 776,-415 642,-415"/>
<text text-anchor="middle" x="709" y="-422" font-family="Helvetica,sans-Serif" font-size="10.00">itk::MetaDataDictionary</text>
</a>
</g>
</g>
<!-- Node11&#45;&gt;Node10 -->
<g id="edge10" class="edge">
<title>Node11&#45;&gt;Node10</title>
<path fill="none" stroke="#9a32cd" stroke-dasharray="5,2" d="M786.35,-424.5C826.75,-424.5 875.84,-424.5 914.42,-424.5"/>
<polygon fill="#9a32cd" stroke="#9a32cd" points="786.27,-421 776.27,-424.5 786.27,-428 786.27,-421"/>
<text text-anchor="middle" x="842.5" y="-427.5" font-family="Helvetica,sans-Serif" font-size="10.00"> ptr</text>
</g>
<!-- Node27 -->
<g id="node27" class="node">
<title>Node27</title>
<g id="a_node27"><a xlink:title=" ">
<polygon fill="white" stroke="black" points="1070,-526.5 1070,-556.5 1221,-556.5 1221,-526.5 1070,-526.5"/>
<text text-anchor="start" x="1078" y="-544.5" font-family="Helvetica,sans-Serif" font-size="10.00">std::vector&lt; DictionaryRaw</text>
<text text-anchor="middle" x="1145.5" y="-533.5" font-family="Helvetica,sans-Serif" font-size="10.00">Pointer &gt;</text>
</a>
</g>
</g>
<!-- Node11&#45;&gt;Node27 -->
<g id="edge35" class="edge">
<title>Node11&#45;&gt;Node27</title>
<path fill="none" stroke="#9a32cd" stroke-dasharray="5,2" d="M732.83,-439.98C768.58,-463.3 840.77,-506.7 909,-525.5 961.45,-539.94 1022.83,-543.71 1069.77,-543.99"/>
<polygon fill="#9a32cd" stroke="#9a32cd" points="734.42,-436.84 724.15,-434.24 730.56,-442.68 734.42,-436.84"/>
<text text-anchor="middle" x="842.5" y="-521.5" font-family="Helvetica,sans-Serif" font-size="10.00"> elements</text>
</g>
<!-- Node12 -->
<g id="node12" class="node">
<title>Node12</title>
<g id="a_node12"><a xlink:title=" ">
<polygon fill="white" stroke="black" points="351,-408.5 351,-438.5 500,-438.5 500,-408.5 351,-408.5"/>
<text text-anchor="start" x="359" y="-426.5" font-family="Helvetica,sans-Serif" font-size="10.00">std::shared_ptr&lt; MetaData</text>
<text text-anchor="middle" x="425.5" y="-415.5" font-family="Helvetica,sans-Serif" font-size="10.00">DictionaryMapType &gt;</text>
</a>
</g>
</g>
<!-- Node12&#45;&gt;Node11 -->
<g id="edge11" class="edge">
<title>Node12&#45;&gt;Node11</title>
<path fill="none" stroke="#9a32cd" stroke-dasharray="5,2" d="M510.29,-423.79C552.24,-423.94 602.31,-424.12 641.57,-424.26"/>
<polygon fill="#9a32cd" stroke="#9a32cd" points="510.11,-420.29 500.09,-423.76 510.08,-427.29 510.11,-420.29"/>
<text text-anchor="middle" x="571" y="-426.5" font-family="Helvetica,sans-Serif" font-size="10.00"> m_Dictionary</text>
</g>
<!-- Node13&#45;&gt;Node12 -->
<g id="edge12" class="edge">
<title>Node13&#45;&gt;Node12</title>
<path fill="none" stroke="#9a32cd" stroke-dasharray="5,2" d="M225.34,-421.19C262.61,-421.62 310.86,-422.18 350.52,-422.64"/>
<polygon fill="#9a32cd" stroke="#9a32cd" points="225.17,-417.69 215.13,-421.07 225.09,-424.69 225.17,-417.69"/>
<text text-anchor="middle" x="283" y="-424.5" font-family="Helvetica,sans-Serif" font-size="10.00"> ptr</text>
</g>
<!-- Node14 -->
<g id="node14" class="node">
<title>Node14</title>
<g id="a_node14"><a xlink:title=" ">
<polygon fill="white" stroke="black" points="0,-411 0,-430 29,-430 29,-411 0,-411"/>
<text text-anchor="middle" x="14.5" y="-418" font-family="Helvetica,sans-Serif" font-size="10.00">K</text>
</a>
</g>
</g>
<!-- Node14&#45;&gt;Node13 -->
<g id="edge13" class="edge">
<title>Node14&#45;&gt;Node13</title>
<path fill="none" stroke="#9a32cd" stroke-dasharray="5,2" d="M39.24,-420.5C59.28,-420.5 88.63,-420.5 113.78,-420.5"/>
<polygon fill="#9a32cd" stroke="#9a32cd" points="39.16,-417 29.16,-420.5 39.16,-424 39.16,-417"/>
<text text-anchor="middle" x="71.5" y="-423.5" font-family="Helvetica,sans-Serif" font-size="10.00"> keys</text>
</g>
<!-- Node15 -->
<g id="node15" class="node">
<title>Node15</title>
<g id="a_node15"><a xlink:title=" ">
<polygon fill="white" stroke="black" points="948,-100 948,-119 1013,-119 1013,-100 948,-100"/>
<text text-anchor="middle" x="980.5" y="-107" font-family="Helvetica,sans-Serif" font-size="10.00">std::string</text>
</a>
</g>
</g>
<!-- Node15&#45;&gt;Node1 -->
<g id="edge33" class="edge">
<title>Node15&#45;&gt;Node1</title>
<path fill="none" stroke="#9a32cd" stroke-dasharray="5,2" d="M1000.97,-93.76C1018.05,-80.94 1044.13,-63.67 1070,-55.5 1281.69,11.43 1352.27,15.64 1569,-32.5 1627.42,-45.47 1645.37,-50.78 1691,-89.5 1749.09,-138.78 1792.1,-221.53 1808.13,-255.38"/>
<polygon fill="#9a32cd" stroke="#9a32cd" points="998.68,-91.1 992.9,-99.99 1002.96,-96.64 998.68,-91.1"/>
<text text-anchor="middle" x="1497.5" y="-35.5" font-family="Helvetica,sans-Serif" font-size="10.00"> m_SeriesFormat</text>
</g>
<!-- Node15&#45;&gt;Node3 -->
<g id="edge15" class="edge">
<title>Node15&#45;&gt;Node3</title>
<path fill="none" stroke="#9a32cd" stroke-dasharray="5,2" d="M999.67,-126.09C1016.62,-140.63 1043.24,-161.15 1070,-172.5 1132.84,-199.14 1171.42,-153.58 1221,-200.5 1245.59,-223.76 1214.89,-250.74 1239,-274.5 1252.24,-287.54 1272.46,-292.37 1289.68,-293.91"/>
<polygon fill="#9a32cd" stroke="#9a32cd" points="1001.56,-123.1 991.74,-119.12 996.94,-128.35 1001.56,-123.1"/>
<text text-anchor="middle" x="1145.5" y="-203.5" font-family="Helvetica,sans-Serif" font-size="10.00"> m_ObjectName</text>
</g>
<!-- Node17 -->
<g id="node17" class="node">
<title>Node17</title>
<g id="a_node17"><a xlink:title=" ">
<polygon fill="white" stroke="black" points="1239,-234.5 1239,-264.5 1408,-264.5 1408,-234.5 1239,-234.5"/>
<text text-anchor="start" x="1247" y="-252.5" font-family="Helvetica,sans-Serif" font-size="10.00">std::map&lt; DataObjectIdentifier</text>
<text text-anchor="middle" x="1323.5" y="-241.5" font-family="Helvetica,sans-Serif" font-size="10.00">Type, DataObjectPointer &gt;</text>
</a>
</g>
</g>
<!-- Node15&#45;&gt;Node17 -->
<g id="edge19" class="edge">
<title>Node15&#45;&gt;Node17</title>
<path fill="none" stroke="#9a32cd" stroke-dasharray="5,2" d="M1016.31,-122.38C1032.46,-127.97 1052.03,-134.21 1070,-138.5 1136.04,-154.23 1170.14,-116.53 1221,-161.5 1243.14,-181.07 1218.17,-204.54 1239,-225.5 1242.4,-228.92 1246.26,-231.86 1250.4,-234.39"/>
<polygon fill="#9a32cd" stroke="#9a32cd" points="1017.34,-119.03 1006.74,-119 1015.01,-125.63 1017.34,-119.03"/>
<text text-anchor="middle" x="1145.5" y="-164.5" font-family="Helvetica,sans-Serif" font-size="10.00"> keys</text>
</g>
<!-- Node21 -->
<g id="node21" class="node">
<title>Node21</title>
<g id="a_node21"><a xlink:title=" ">
<polygon fill="white" stroke="black" points="1239,-87.5 1239,-117.5 1408,-117.5 1408,-87.5 1239,-87.5"/>
<text text-anchor="start" x="1247" y="-105.5" font-family="Helvetica,sans-Serif" font-size="10.00">std::map&lt; DataObjectIdentifier</text>
<text text-anchor="middle" x="1323.5" y="-94.5" font-family="Helvetica,sans-Serif" font-size="10.00">Type, bool &gt;</text>
</a>
</g>
</g>
<!-- Node15&#45;&gt;Node21 -->
<g id="edge24" class="edge">
<title>Node15&#45;&gt;Node21</title>
<path fill="none" stroke="#9a32cd" stroke-dasharray="5,2" d="M1023.1,-100.39C1037.84,-97.59 1054.58,-94.88 1070,-93.5 1126.14,-88.46 1189.54,-90.75 1238.77,-94.28"/>
<polygon fill="#9a32cd" stroke="#9a32cd" points="1022.4,-96.96 1013.26,-102.33 1023.75,-103.83 1022.4,-96.96"/>
<text text-anchor="middle" x="1145.5" y="-96.5" font-family="Helvetica,sans-Serif" font-size="10.00"> keys</text>
</g>
<!-- Node22 -->
<g id="node22" class="node">
<title>Node22</title>
<g id="a_node22"><a xlink:title=" ">
<polygon fill="white" stroke="black" points="1242.5,-136.5 1242.5,-166.5 1404.5,-166.5 1404.5,-136.5 1242.5,-136.5"/>
<text text-anchor="start" x="1250.5" y="-154.5" font-family="Helvetica,sans-Serif" font-size="10.00">std::set&lt; DataObjectIdentifier</text>
<text text-anchor="middle" x="1323.5" y="-143.5" font-family="Helvetica,sans-Serif" font-size="10.00">Type &gt;</text>
</a>
</g>
</g>
<!-- Node15&#45;&gt;Node22 -->
<g id="edge26" class="edge">
<title>Node15&#45;&gt;Node22</title>
<path fill="none" stroke="#9a32cd" stroke-dasharray="5,2" d="M1023.06,-110.64C1071.01,-112.42 1152.09,-116.83 1221,-127.5 1235.67,-129.77 1251.36,-133.05 1265.91,-136.45"/>
<polygon fill="#9a32cd" stroke="#9a32cd" points="1023.18,-107.14 1013.06,-110.29 1022.94,-114.14 1023.18,-107.14"/>
<text text-anchor="middle" x="1145.5" y="-130.5" font-family="Helvetica,sans-Serif" font-size="10.00"> keys</text>
</g>
<!-- Node26 -->
<g id="node26" class="node">
<title>Node26</title>
<g id="a_node26"><a xlink:title=" ">
<polygon fill="white" stroke="black" points="1427.5,-53 1427.5,-72 1567.5,-72 1567.5,-53 1427.5,-53"/>
<text text-anchor="middle" x="1497.5" y="-60" font-family="Helvetica,sans-Serif" font-size="10.00">std::vector&lt; std::string &gt;</text>
</a>
</g>
</g>
<!-- Node15&#45;&gt;Node26 -->
<g id="edge32" class="edge">
<title>Node15&#45;&gt;Node26</title>
<path fill="none" stroke="#9a32cd" stroke-dasharray="5,2" d="M1010.68,-95.88C1027.61,-88.69 1049.56,-80.53 1070,-76.5 1194.11,-52 1342.4,-53.95 1427.4,-57.97"/>
<polygon fill="#9a32cd" stroke="#9a32cd" points="1009.1,-92.76 1001.34,-99.97 1011.91,-99.17 1009.1,-92.76"/>
<text text-anchor="middle" x="1145.5" y="-79.5" font-family="Helvetica,sans-Serif" font-size="10.00"> elements</text>
</g>
<!-- Node16 -->
<g id="node16" class="node">
<title>Node16</title>
<g id="a_node16"><a xlink:title=" ">
<polygon fill="white" stroke="black" points="657,-94.5 657,-124.5 761,-124.5 761,-94.5 657,-94.5"/>
<text text-anchor="start" x="665" y="-112.5" font-family="Helvetica,sans-Serif" font-size="10.00">std::basic_string&lt;</text>
<text text-anchor="middle" x="709" y="-101.5" font-family="Helvetica,sans-Serif" font-size="10.00"> Char &gt;</text>
</a>
</g>
</g>
<!-- Node16&#45;&gt;Node15 -->
<g id="edge16" class="edge">
<title>Node16&#45;&gt;Node15</title>
<path fill="none" stroke="midnightblue" d="M771.31,-109.5C826.18,-109.5 904.43,-109.5 947.69,-109.5"/>
<polygon fill="midnightblue" stroke="midnightblue" points="771.01,-106 761.01,-109.5 771.01,-113 771.01,-106"/>
</g>
<!-- Node17&#45;&gt;Node2 -->
<g id="edge18" class="edge">
<title>Node17&#45;&gt;Node2</title>
<path fill="none" stroke="#9a32cd" stroke-dasharray="5,2" d="M1418.44,-246.88C1464.05,-246.76 1519.55,-248.32 1569,-254.5 1580.23,-255.9 1592.29,-258.36 1603.15,-260.93"/>
<polygon fill="#9a32cd" stroke="#9a32cd" points="1418.25,-243.38 1408.27,-246.93 1418.29,-250.38 1418.25,-243.38"/>
<text text-anchor="middle" x="1497.5" y="-268.5" font-family="Helvetica,sans-Serif" font-size="10.00"> m_Inputs</text>
<text text-anchor="middle" x="1497.5" y="-257.5" font-family="Helvetica,sans-Serif" font-size="10.00">m_Outputs</text>
</g>
<!-- Node18 -->
<g id="node18" class="node">
<title>Node18</title>
<g id="a_node18"><a xlink:href="classitk_1_1SmartPointer.html" target="_top" xlink:title=" ">
<polygon fill="white" stroke="black" points="927,-360.5 927,-390.5 1034,-390.5 1034,-360.5 927,-360.5"/>
<text text-anchor="start" x="935" y="-378.5" font-family="Helvetica,sans-Serif" font-size="10.00">itk::SmartPointer&lt;</text>
<text text-anchor="middle" x="980.5" y="-367.5" font-family="Helvetica,sans-Serif" font-size="10.00"> Self &gt;</text>
</a>
</g>
</g>
<!-- Node18&#45;&gt;Node1 -->
<g id="edge30" class="edge">
<title>Node18&#45;&gt;Node1</title>
<path fill="none" stroke="#9a32cd" stroke-dasharray="5,2" d="M1044.17,-388.04C1152.95,-407.43 1382.91,-437.75 1569,-390.5 1656.74,-368.22 1750.12,-312.65 1792.16,-285.67"/>
<polygon fill="#9a32cd" stroke="#9a32cd" points="1044.49,-384.55 1034.03,-386.21 1043.24,-391.43 1044.49,-384.55"/>
<text text-anchor="middle" x="1497.5" y="-415.5" font-family="Helvetica,sans-Serif" font-size="10.00"> m_ImageIO</text>
</g>
<!-- Node18&#45;&gt;Node17 -->
<g id="edge20" class="edge">
<title>Node18&#45;&gt;Node17</title>
<path fill="none" stroke="#9a32cd" stroke-dasharray="5,2" d="M1042.89,-358.52C1046.23,-356.18 1049.31,-353.52 1052,-350.5 1075.93,-323.59 1042.85,-295.16 1070,-271.5 1117.6,-230.01 1191.18,-228.12 1246.65,-234.47"/>
<polygon fill="#9a32cd" stroke="#9a32cd" points="1040.98,-355.58 1034.15,-363.69 1044.54,-361.61 1040.98,-355.58"/>
<text text-anchor="middle" x="1145.5" y="-274.5" font-family="Helvetica,sans-Serif" font-size="10.00"> elements</text>
</g>
<!-- Node19 -->
<g id="node19" class="node">
<title>Node19</title>
<g id="a_node19"><a xlink:title=" ">
<polygon fill="white" stroke="black" points="1239,-462.5 1239,-492.5 1408,-492.5 1408,-462.5 1239,-462.5"/>
<text text-anchor="start" x="1247" y="-480.5" font-family="Helvetica,sans-Serif" font-size="10.00">std::vector&lt; DataObjectPointer</text>
<text text-anchor="middle" x="1323.5" y="-469.5" font-family="Helvetica,sans-Serif" font-size="10.00">Map::iterator &gt;</text>
</a>
</g>
</g>
<!-- Node19&#45;&gt;Node2 -->
<g id="edge21" class="edge">
<title>Node19&#45;&gt;Node2</title>
<path fill="none" stroke="#9a32cd" stroke-dasharray="5,2" d="M1418.22,-469C1476.98,-461.97 1545.83,-450.08 1569,-431.5 1618.82,-391.54 1633.33,-308.8 1636.94,-280.35"/>
<polygon fill="#9a32cd" stroke="#9a32cd" points="1417.66,-465.54 1408.13,-470.17 1418.47,-472.49 1417.66,-465.54"/>
<text text-anchor="middle" x="1497.5" y="-480.5" font-family="Helvetica,sans-Serif" font-size="10.00"> m_IndexedInputs</text>
<text text-anchor="middle" x="1497.5" y="-469.5" font-family="Helvetica,sans-Serif" font-size="10.00">m_IndexedOutputs</text>
</g>
<!-- Node20 -->
<g id="node20" class="node">
<title>Node20</title>
<g id="a_node20"><a xlink:title=" ">
<polygon fill="white" stroke="black" points="909,-497 909,-516 1052,-516 1052,-497 909,-497"/>
<text text-anchor="middle" x="980.5" y="-504" font-family="Helvetica,sans-Serif" font-size="10.00">std::map&lt; K, T &gt;::iterator</text>
</a>
</g>
</g>
<!-- Node20&#45;&gt;Node19 -->
<g id="edge22" class="edge">
<title>Node20&#45;&gt;Node19</title>
<path fill="none" stroke="#9a32cd" stroke-dasharray="5,2" d="M1062.23,-499.63C1115.41,-495.11 1184.9,-489.2 1238.69,-484.62"/>
<polygon fill="#9a32cd" stroke="#9a32cd" points="1061.82,-496.15 1052.16,-500.49 1062.42,-503.13 1061.82,-496.15"/>
<text text-anchor="middle" x="1145.5" y="-501.5" font-family="Helvetica,sans-Serif" font-size="10.00"> elements</text>
</g>
<!-- Node21&#45;&gt;Node2 -->
<g id="edge23" class="edge">
<title>Node21&#45;&gt;Node2</title>
<path fill="none" stroke="#9a32cd" stroke-dasharray="5,2" d="M1418.23,-87.88C1468.18,-85.4 1527.66,-91.62 1569,-125.5 1590.53,-143.14 1575.75,-160.03 1587,-185.5 1599.79,-214.46 1620.54,-245.7 1631.2,-260.98"/>
<polygon fill="#9a32cd" stroke="#9a32cd" points="1417.82,-84.4 1408.05,-88.51 1418.25,-91.39 1417.82,-84.4"/>
<text text-anchor="start" x="1426.5" y="-139.5" font-family="Helvetica,sans-Serif" font-size="10.00"> m_CachedInputReleaseData</text>
<text text-anchor="middle" x="1497.5" y="-128.5" font-family="Helvetica,sans-Serif" font-size="10.00">Flags</text>
</g>
<!-- Node22&#45;&gt;Node2 -->
<g id="edge25" class="edge">
<title>Node22&#45;&gt;Node2</title>
<path fill="none" stroke="#9a32cd" stroke-dasharray="5,2" d="M1414.92,-150.63C1463.31,-153.71 1522.35,-163.42 1569,-189.5 1599.8,-206.71 1623.05,-243.33 1632.87,-260.81"/>
<polygon fill="#9a32cd" stroke="#9a32cd" points="1414.95,-147.12 1404.77,-150.06 1414.56,-154.11 1414.95,-147.12"/>
<text text-anchor="middle" x="1497.5" y="-192.5" font-family="Helvetica,sans-Serif" font-size="10.00"> m_RequiredInputNames</text>
</g>
<!-- Node23 -->
<g id="node23" class="node">
<title>Node23</title>
<g id="a_node23"><a xlink:title=" ">
<polygon fill="white" stroke="black" points="1256.5,-369 1256.5,-388 1390.5,-388 1390.5,-369 1256.5,-369"/>
<text text-anchor="middle" x="1323.5" y="-376" font-family="Helvetica,sans-Serif" font-size="10.00">std::atomic&lt; uint32_t &gt;</text>
</a>
</g>
</g>
<!-- Node23&#45;&gt;Node2 -->
<g id="edge27" class="edge">
<title>Node23&#45;&gt;Node2</title>
<path fill="none" stroke="#9a32cd" stroke-dasharray="5,2" d="M1400.93,-376.93C1461.6,-374.55 1540.74,-368.55 1569,-353.5 1600.92,-336.49 1623.93,-297.95 1633.32,-280.01"/>
<polygon fill="#9a32cd" stroke="#9a32cd" points="1400.47,-373.44 1390.6,-377.31 1400.73,-380.44 1400.47,-373.44"/>
<text text-anchor="middle" x="1497.5" y="-378.5" font-family="Helvetica,sans-Serif" font-size="10.00"> m_Progress</text>
</g>
<!-- Node24 -->
<g id="node24" class="node">
<title>Node24</title>
<g id="a_node24"><a xlink:title=" ">
<polygon fill="white" stroke="black" points="952.5,-459 952.5,-478 1008.5,-478 1008.5,-459 952.5,-459"/>
<text text-anchor="middle" x="980.5" y="-466" font-family="Helvetica,sans-Serif" font-size="10.00">uint32_t</text>
</a>
</g>
</g>
<!-- Node24&#45;&gt;Node23 -->
<g id="edge28" class="edge">
<title>Node24&#45;&gt;Node23</title>
<path fill="none" stroke="#9a32cd" stroke-dasharray="5,2" d="M1018.91,-470.66C1067.1,-472.21 1152.77,-470.7 1221,-446.5 1258.18,-433.3 1294.91,-403.38 1312.22,-388.01"/>
<polygon fill="#9a32cd" stroke="#9a32cd" points="1018.77,-467.16 1008.64,-470.27 1018.5,-474.15 1018.77,-467.16"/>
<text text-anchor="middle" x="1145.5" y="-473.5" font-family="Helvetica,sans-Serif" font-size="10.00"> ptr</text>
</g>
<!-- Node25 -->
<g id="node25" class="node">
<title>Node25</title>
<g id="a_node25"><a xlink:href="classitk_1_1SmartPointer.html" target="_top" xlink:title=" ">
<polygon fill="white" stroke="black" points="1252.5,-185.5 1252.5,-215.5 1394.5,-215.5 1394.5,-185.5 1252.5,-185.5"/>
<text text-anchor="start" x="1260.5" y="-203.5" font-family="Helvetica,sans-Serif" font-size="10.00">itk::SmartPointer&lt;</text>
<text text-anchor="middle" x="1323.5" y="-192.5" font-family="Helvetica,sans-Serif" font-size="10.00"> itk::MultiThreaderBase &gt;</text>
</a>
</g>
</g>
<!-- Node25&#45;&gt;Node2 -->
<g id="edge29" class="edge">
<title>Node25&#45;&gt;Node2</title>
<path fill="none" stroke="#9a32cd" stroke-dasharray="5,2" d="M1404.73,-202.85C1453.31,-206.18 1515.92,-213.89 1569,-231.5 1589.77,-238.38 1611.35,-251.76 1624.73,-260.91"/>
<polygon fill="#9a32cd" stroke="#9a32cd" points="1404.79,-199.35 1394.59,-202.21 1404.34,-206.33 1404.79,-199.35"/>
<text text-anchor="middle" x="1497.5" y="-234.5" font-family="Helvetica,sans-Serif" font-size="10.00"> m_MultiThreader</text>
</g>
<!-- Node26&#45;&gt;Node1 -->
<g id="edge31" class="edge">
<title>Node26&#45;&gt;Node1</title>
<path fill="none" stroke="#9a32cd" stroke-dasharray="5,2" d="M1549.52,-75.29C1556.22,-77.66 1562.88,-80.39 1569,-83.5 1665.39,-132.43 1762.45,-220.18 1799.41,-255.33"/>
<polygon fill="#9a32cd" stroke="#9a32cd" points="1550.32,-71.87 1539.73,-72.07 1548.14,-78.52 1550.32,-71.87"/>
<text text-anchor="middle" x="1639" y="-164.5" font-family="Helvetica,sans-Serif" font-size="10.00"> m_FileNames</text>
</g>
<!-- Node27&#45;&gt;Node1 -->
<g id="edge34" class="edge">
<title>Node27&#45;&gt;Node1</title>
<path fill="none" stroke="#9a32cd" stroke-dasharray="5,2" d="M1231.72,-548.69C1352.45,-554.11 1573.71,-545.79 1710,-430.5 1759.72,-388.44 1794.85,-316.99 1808.59,-285.81"/>
<polygon fill="#9a32cd" stroke="#9a32cd" points="1231.59,-545.18 1221.43,-548.19 1231.24,-552.17 1231.59,-545.18"/>
<text text-anchor="middle" x="1497.5" y="-543.5" font-family="Helvetica,sans-Serif" font-size="10.00"> m_MetaDataDictionaryArray</text>
</g>
</g>
</svg>
