<?xml version="1.0" encoding="UTF-8" standalone="no"?>
<!DOCTYPE svg PUBLIC "-//W3C//DTD SVG 1.1//EN"
 "http://www.w3.org/Graphics/SVG/1.1/DTD/svg11.dtd">
<!-- Generated by graphviz version 2.43.0 (0)
 -->
<!-- Title: itk::SymmetricEigenAnalysisFixedDimension&lt; VDimension, TMatrix, TVector, TEigenMatrix &gt; Pages: 1 -->
<svg width="557pt" height="122pt"
 viewBox="0.00 0.00 557.00 121.50" xmlns="http://www.w3.org/2000/svg" xmlns:xlink="http://www.w3.org/1999/xlink">
<g id="graph0" class="graph" transform="scale(1 1) rotate(0) translate(4 117.5)">
<title>itk::SymmetricEigenAnalysisFixedDimension&lt; VDimension, TMatrix, TVector, TEigenMatrix &gt;</title>
<polygon fill="white" stroke="transparent" points="-4,4 -4,-117.5 553,-117.5 553,4 -4,4"/>
<!-- Node1 -->
<g id="node1" class="node">
<title>Node1</title>
<g id="a_node1"><a xlink:title=" ">
<polygon fill="#bfbfbf" stroke="black" points="0,-33.5 0,-74.5 182,-74.5 182,-33.5 0,-33.5"/>
<text text-anchor="start" x="8" y="-62.5" font-family="Helvetica,sans-Serif" font-size="10.00">itk::SymmetricEigenAnalysis</text>
<text text-anchor="start" x="8" y="-51.5" font-family="Helvetica,sans-Serif" font-size="10.00">FixedDimension&lt; VDimension,</text>
<text text-anchor="middle" x="91" y="-40.5" font-family="Helvetica,sans-Serif" font-size="10.00"> TMatrix, TVector, TEigenMatrix &gt;</text>
</a>
</g>
</g>
<!-- Node2 -->
<g id="node2" class="node">
<title>Node2</title>
<g id="a_node2"><a xlink:href="classitk_1_1SymmetricEigenAnalysisFixedDimension.html" target="_top" xlink:title=" ">
<polygon fill="white" stroke="black" points="349,-61 349,-113 549,-113 549,-61 349,-61"/>
<text text-anchor="start" x="357" y="-101" font-family="Helvetica,sans-Serif" font-size="10.00">itk::SymmetricEigenAnalysis</text>
<text text-anchor="start" x="357" y="-90" font-family="Helvetica,sans-Serif" font-size="10.00">FixedDimension&lt; TMatrixDimension,</text>
<text text-anchor="start" x="357" y="-79" font-family="Helvetica,sans-Serif" font-size="10.00"> TInputImage::PixelType, TInputImage</text>
<text text-anchor="middle" x="449" y="-68" font-family="Helvetica,sans-Serif" font-size="10.00"> ::PixelType &gt;</text>
</a>
</g>
</g>
<!-- Node1&#45;&gt;Node2 -->
<g id="edge1" class="edge">
<title>Node1&#45;&gt;Node2</title>
<path fill="none" stroke="orange" stroke-dasharray="5,2" d="M192.26,-63.29C241.21,-67.83 299.91,-73.27 348.72,-77.8"/>
<polygon fill="orange" stroke="orange" points="192.57,-59.81 182.29,-62.37 191.93,-66.78 192.57,-59.81"/>
<text text-anchor="start" x="200" y="-100" font-family="Helvetica,sans-Serif" font-size="10.00"> &lt; TMatrixDimension,</text>
<text text-anchor="start" x="200" y="-89" font-family="Helvetica,sans-Serif" font-size="10.00"> TInputImage::PixelType,</text>
<text text-anchor="middle" x="265.5" y="-78" font-family="Helvetica,sans-Serif" font-size="10.00"> TInputImage ::PixelType &gt;</text>
</g>
<!-- Node3 -->
<g id="node3" class="node">
<title>Node3</title>
<g id="a_node3"><a xlink:href="classitk_1_1SymmetricEigenAnalysisFixedDimension.html" target="_top" xlink:title=" ">
<polygon fill="white" stroke="black" points="349.5,-0.5 349.5,-41.5 548.5,-41.5 548.5,-0.5 349.5,-0.5"/>
<text text-anchor="start" x="357.5" y="-29.5" font-family="Helvetica,sans-Serif" font-size="10.00">itk::SymmetricEigenAnalysis</text>
<text text-anchor="start" x="357.5" y="-18.5" font-family="Helvetica,sans-Serif" font-size="10.00">FixedDimension&lt; TMatrixDimension,</text>
<text text-anchor="middle" x="449" y="-7.5" font-family="Helvetica,sans-Serif" font-size="10.00"> TInput, TOutput &gt;</text>
</a>
</g>
</g>
<!-- Node1&#45;&gt;Node3 -->
<g id="edge2" class="edge">
<title>Node1&#45;&gt;Node3</title>
<path fill="none" stroke="orange" stroke-dasharray="5,2" d="M192.25,-39.85C194.86,-39.55 197.45,-39.27 200,-39 249.05,-33.82 303.71,-29.68 349.21,-26.68"/>
<polygon fill="orange" stroke="orange" points="191.63,-36.4 182.11,-41.04 192.45,-43.35 191.63,-36.4"/>
<text text-anchor="start" x="211.5" y="-53" font-family="Helvetica,sans-Serif" font-size="10.00"> &lt; TMatrixDimension,</text>
<text text-anchor="middle" x="265.5" y="-42" font-family="Helvetica,sans-Serif" font-size="10.00"> TInput, TOutput &gt;</text>
</g>
</g>
</svg>
