<?xml version="1.0" encoding="UTF-8" standalone="no"?>
<!DOCTYPE svg PUBLIC "-//W3C//DTD SVG 1.1//EN"
 "http://www.w3.org/Graphics/SVG/1.1/DTD/svg11.dtd">
<!-- Generated by graphviz version 2.43.0 (0)
 -->
<!-- Title: itk::LBFGSOptimizerBasev4&lt; TInternalVnlOptimizerType &gt; Pages: 1 -->
<svg width="2475pt" height="574pt"
 viewBox="0.00 0.00 2475.00 574.00" xmlns="http://www.w3.org/2000/svg" xmlns:xlink="http://www.w3.org/1999/xlink">
<g id="graph0" class="graph" transform="scale(1 1) rotate(0) translate(4 570)">
<title>itk::LBFGSOptimizerBasev4&lt; TInternalVnlOptimizerType &gt;</title>
<polygon fill="white" stroke="transparent" points="-4,4 -4,-570 2471,-570 2471,4 -4,4"/>
<!-- Node1 -->
<g id="node1" class="node">
<title>Node1</title>
<g id="a_node1"><a xlink:title="Abstract base for vnl lbfgs algorithm optimizers in ITKv4 registration framework.">
<polygon fill="#bfbfbf" stroke="black" points="2298,-52.5 2298,-82.5 2467,-82.5 2467,-52.5 2298,-52.5"/>
<text text-anchor="start" x="2306" y="-70.5" font-family="Helvetica,sans-Serif" font-size="10.00">itk::LBFGSOptimizerBasev4</text>
<text text-anchor="middle" x="2382.5" y="-59.5" font-family="Helvetica,sans-Serif" font-size="10.00">&lt; TInternalVnlOptimizerType &gt;</text>
</a>
</g>
</g>
<!-- Node2 -->
<g id="node2" class="node">
<title>Node2</title>
<g id="a_node2"><a xlink:href="classitk_1_1SingleValuedNonLinearVnlOptimizerv4.html" target="_top" xlink:title="This is a base for the ITKv4 Optimization methods using the vnl library.">
<polygon fill="white" stroke="black" points="1972,-153.5 1972,-183.5 2120,-183.5 2120,-153.5 1972,-153.5"/>
<text text-anchor="start" x="1980" y="-171.5" font-family="Helvetica,sans-Serif" font-size="10.00">itk::SingleValuedNonLinear</text>
<text text-anchor="middle" x="2046" y="-160.5" font-family="Helvetica,sans-Serif" font-size="10.00">VnlOptimizerv4</text>
</a>
</g>
</g>
<!-- Node2&#45;&gt;Node1 -->
<g id="edge1" class="edge">
<title>Node2&#45;&gt;Node1</title>
<path fill="none" stroke="midnightblue" d="M2106.29,-150.6C2170.46,-131.22 2271.63,-100.67 2331.78,-82.51"/>
<polygon fill="midnightblue" stroke="midnightblue" points="2105.28,-147.25 2096.72,-153.49 2107.3,-153.95 2105.28,-147.25"/>
</g>
<!-- Node3 -->
<g id="node3" class="node">
<title>Node3</title>
<g id="a_node3"><a xlink:href="classitk_1_1ObjectToObjectOptimizerBaseTemplate.html" target="_top" xlink:title=" ">
<polygon fill="white" stroke="black" points="1778,-296.5 1778,-326.5 1935,-326.5 1935,-296.5 1778,-296.5"/>
<text text-anchor="start" x="1786" y="-314.5" font-family="Helvetica,sans-Serif" font-size="10.00">itk::ObjectToObjectOptimizer</text>
<text text-anchor="middle" x="1856.5" y="-303.5" font-family="Helvetica,sans-Serif" font-size="10.00">BaseTemplate&lt; double &gt;</text>
</a>
</g>
</g>
<!-- Node3&#45;&gt;Node2 -->
<g id="edge2" class="edge">
<title>Node3&#45;&gt;Node2</title>
<path fill="none" stroke="midnightblue" d="M1885.37,-290.24C1923.72,-261 1991.78,-209.09 2025.27,-183.55"/>
<polygon fill="midnightblue" stroke="midnightblue" points="1883.04,-287.62 1877.21,-296.47 1887.29,-293.19 1883.04,-287.62"/>
</g>
<!-- Node4 -->
<g id="node4" class="node">
<title>Node4</title>
<g id="a_node4"><a xlink:href="classitk_1_1Object.html" target="_top" xlink:title="Base class for most ITK classes.">
<polygon fill="white" stroke="black" points="1233,-452 1233,-471 1300,-471 1300,-452 1233,-452"/>
<text text-anchor="middle" x="1266.5" y="-459" font-family="Helvetica,sans-Serif" font-size="10.00">itk::Object</text>
</a>
</g>
</g>
<!-- Node4&#45;&gt;Node3 -->
<g id="edge3" class="edge">
<title>Node4&#45;&gt;Node3</title>
<path fill="none" stroke="midnightblue" d="M1310.16,-461.55C1385.25,-460.52 1545.17,-453.34 1673,-413.5 1736.59,-393.68 1802.79,-349.87 1835.18,-326.64"/>
<polygon fill="midnightblue" stroke="midnightblue" points="1310.1,-458.05 1300.14,-461.65 1310.18,-465.05 1310.1,-458.05"/>
</g>
<!-- Node30 -->
<g id="node30" class="node">
<title>Node30</title>
<g id="a_node30"><a xlink:href="classitk_1_1ObjectToObjectOptimizerBaseTemplate.html" target="_top" xlink:title="Abstract base for object&#45;to&#45;object optimizers.">
<polygon fill="white" stroke="black" points="1470,-316 1470,-357 1673,-357 1673,-316 1470,-316"/>
<text text-anchor="start" x="1478" y="-345" font-family="Helvetica,sans-Serif" font-size="10.00">itk::ObjectToObjectOptimizer</text>
<text text-anchor="start" x="1478" y="-334" font-family="Helvetica,sans-Serif" font-size="10.00">BaseTemplate&lt; TInternalComputation</text>
<text text-anchor="middle" x="1571.5" y="-323" font-family="Helvetica,sans-Serif" font-size="10.00">ValueType &gt;</text>
</a>
</g>
</g>
<!-- Node4&#45;&gt;Node30 -->
<g id="edge37" class="edge">
<title>Node4&#45;&gt;Node30</title>
<path fill="none" stroke="midnightblue" d="M1298.29,-447.81C1354.82,-422.68 1469.46,-371.71 1470,-371.5 1482.46,-366.57 1495.92,-361.63 1508.82,-357.07"/>
<polygon fill="midnightblue" stroke="midnightblue" points="1296.82,-444.64 1289.1,-451.9 1299.66,-451.03 1296.82,-444.64"/>
</g>
<!-- Node5 -->
<g id="node5" class="node">
<title>Node5</title>
<g id="a_node5"><a xlink:href="classitk_1_1LightObject.html" target="_top" xlink:title="Light weight base class for most itk classes.">
<polygon fill="white" stroke="black" points="911.5,-408 911.5,-427 1002.5,-427 1002.5,-408 911.5,-408"/>
<text text-anchor="middle" x="957" y="-415" font-family="Helvetica,sans-Serif" font-size="10.00">itk::LightObject</text>
</a>
</g>
</g>
<!-- Node5&#45;&gt;Node4 -->
<g id="edge4" class="edge">
<title>Node5&#45;&gt;Node4</title>
<path fill="none" stroke="midnightblue" d="M1012.63,-425.32C1076.61,-434.47 1180.52,-449.34 1232.98,-456.85"/>
<polygon fill="midnightblue" stroke="midnightblue" points="1013.11,-421.85 1002.71,-423.9 1012.12,-428.78 1013.11,-421.85"/>
</g>
<!-- Node6 -->
<g id="node6" class="node">
<title>Node6</title>
<g id="a_node6"><a xlink:title=" ">
<polygon fill="white" stroke="#bfbfbf" points="610.5,-409 610.5,-428 717.5,-428 717.5,-409 610.5,-409"/>
<text text-anchor="middle" x="664" y="-416" font-family="Helvetica,sans-Serif" font-size="10.00">std::atomic&lt; int &gt;</text>
</a>
</g>
</g>
<!-- Node6&#45;&gt;Node5 -->
<g id="edge5" class="edge">
<title>Node6&#45;&gt;Node5</title>
<path fill="none" stroke="#9a32cd" stroke-dasharray="5,2" d="M727.73,-418.28C783.03,-418.09 862.23,-417.82 911.32,-417.65"/>
<polygon fill="#9a32cd" stroke="#9a32cd" points="727.69,-414.78 717.7,-418.32 727.71,-421.78 727.69,-414.78"/>
<text text-anchor="middle" x="815.5" y="-420.5" font-family="Helvetica,sans-Serif" font-size="10.00"> m_ReferenceCount</text>
</g>
<!-- Node7 -->
<g id="node7" class="node">
<title>Node7</title>
<g id="a_node7"><a xlink:title="STL class.">
<polygon fill="white" stroke="#bfbfbf" points="241.5,-443 241.5,-462 341.5,-462 341.5,-443 241.5,-443"/>
<text text-anchor="middle" x="291.5" y="-450" font-family="Helvetica,sans-Serif" font-size="10.00">std::atomic&lt; T &gt;</text>
</a>
</g>
</g>
<!-- Node7&#45;&gt;Node6 -->
<g id="edge6" class="edge">
<title>Node7&#45;&gt;Node6</title>
<path fill="none" stroke="orange" stroke-dasharray="5,2" d="M329.48,-439.81C348.26,-433.98 371.59,-427.67 393,-424.5 467.91,-413.41 555.76,-413.93 610.41,-415.82"/>
<polygon fill="orange" stroke="orange" points="328.29,-436.52 319.83,-442.89 330.42,-443.19 328.29,-436.52"/>
<text text-anchor="middle" x="477" y="-427.5" font-family="Helvetica,sans-Serif" font-size="10.00"> &lt; int &gt;</text>
</g>
<!-- Node16 -->
<g id="node16" class="node">
<title>Node16</title>
<g id="a_node16"><a xlink:href="classitk_1_1TimeStamp.html" target="_top" xlink:title="Generate a unique, increasing time value.">
<polygon fill="white" stroke="black" points="769.5,-451 769.5,-470 861.5,-470 861.5,-451 769.5,-451"/>
<text text-anchor="middle" x="815.5" y="-458" font-family="Helvetica,sans-Serif" font-size="10.00">itk::TimeStamp</text>
</a>
</g>
</g>
<!-- Node7&#45;&gt;Node16 -->
<g id="edge18" class="edge">
<title>Node7&#45;&gt;Node16</title>
<path fill="none" stroke="#9a32cd" stroke-dasharray="5,2" d="M351.75,-453.41C457.13,-455.02 674.91,-458.36 769.26,-459.81"/>
<polygon fill="#9a32cd" stroke="#9a32cd" points="351.66,-449.91 341.61,-453.25 351.55,-456.91 351.66,-449.91"/>
<text text-anchor="middle" x="477" y="-459.5" font-family="Helvetica,sans-Serif" font-size="10.00"> m_GlobalTimeStamp</text>
</g>
<!-- Node8 -->
<g id="node8" class="node">
<title>Node8</title>
<g id="a_node8"><a xlink:title=" ">
<polygon fill="white" stroke="#bfbfbf" points="47,-460 47,-479 76,-479 76,-460 47,-460"/>
<text text-anchor="middle" x="61.5" y="-467" font-family="Helvetica,sans-Serif" font-size="10.00">T</text>
</a>
</g>
</g>
<!-- Node8&#45;&gt;Node7 -->
<g id="edge7" class="edge">
<title>Node8&#45;&gt;Node7</title>
<path fill="none" stroke="#9a32cd" stroke-dasharray="5,2" d="M86.06,-463.45C101.55,-459.78 122.34,-455.45 141,-453.5 174.3,-450.03 212,-449.8 241.21,-450.43"/>
<polygon fill="#9a32cd" stroke="#9a32cd" points="85.15,-460.07 76.27,-465.85 86.82,-466.87 85.15,-460.07"/>
<text text-anchor="middle" x="165.5" y="-456.5" font-family="Helvetica,sans-Serif" font-size="10.00"> ptr</text>
</g>
<!-- Node13 -->
<g id="node13" class="node">
<title>Node13</title>
<g id="a_node13"><a xlink:title="STL class.">
<polygon fill="white" stroke="#bfbfbf" points="241,-541 241,-560 342,-560 342,-541 241,-541"/>
<text text-anchor="middle" x="291.5" y="-548" font-family="Helvetica,sans-Serif" font-size="10.00">std::map&lt; K, T &gt;</text>
</a>
</g>
</g>
<!-- Node8&#45;&gt;Node13 -->
<g id="edge14" class="edge">
<title>Node8&#45;&gt;Node13</title>
<path fill="none" stroke="#9a32cd" stroke-dasharray="5,2" d="M85.47,-478.12C101.1,-483.95 122.26,-491.78 141,-498.5 183.29,-513.67 232.54,-530.67 262.61,-540.98"/>
<polygon fill="#9a32cd" stroke="#9a32cd" points="86.68,-474.83 76.09,-474.61 84.23,-481.39 86.68,-474.83"/>
<text text-anchor="middle" x="165.5" y="-516.5" font-family="Helvetica,sans-Serif" font-size="10.00"> elements</text>
</g>
<!-- Node15 -->
<g id="node15" class="node">
<title>Node15</title>
<g id="a_node15"><a xlink:title="STL class.">
<polygon fill="white" stroke="#bfbfbf" points="232.5,-490 232.5,-509 350.5,-509 350.5,-490 232.5,-490"/>
<text text-anchor="middle" x="291.5" y="-497" font-family="Helvetica,sans-Serif" font-size="10.00">std::shared_ptr&lt; T &gt;</text>
</a>
</g>
</g>
<!-- Node8&#45;&gt;Node15 -->
<g id="edge16" class="edge">
<title>Node8&#45;&gt;Node15</title>
<path fill="none" stroke="#9a32cd" stroke-dasharray="5,2" d="M86.07,-472.6C120.32,-477.11 184.91,-485.61 232.36,-491.85"/>
<polygon fill="#9a32cd" stroke="#9a32cd" points="86.45,-469.12 76.08,-471.29 85.54,-476.06 86.45,-469.12"/>
<text text-anchor="middle" x="165.5" y="-487.5" font-family="Helvetica,sans-Serif" font-size="10.00"> ptr</text>
</g>
<!-- Node26 -->
<g id="node26" class="node">
<title>Node26</title>
<g id="a_node26"><a xlink:title="STL class.">
<polygon fill="white" stroke="#bfbfbf" points="232.5,-135 232.5,-154 350.5,-154 350.5,-135 232.5,-135"/>
<text text-anchor="middle" x="291.5" y="-142" font-family="Helvetica,sans-Serif" font-size="10.00">std::unique_ptr&lt; T &gt;</text>
</a>
</g>
</g>
<!-- Node8&#45;&gt;Node26 -->
<g id="edge30" class="edge">
<title>Node8&#45;&gt;Node26</title>
<path fill="none" stroke="#9a32cd" stroke-dasharray="5,2" d="M73.48,-451.03C86.05,-429.59 106.99,-392.99 123,-360.5 164.98,-275.33 135.36,-225.65 208,-164.5 214.99,-158.62 223.43,-154.41 232.22,-151.41"/>
<polygon fill="#9a32cd" stroke="#9a32cd" points="70.4,-449.36 68.33,-459.75 76.43,-452.92 70.4,-449.36"/>
<text text-anchor="middle" x="165.5" y="-311.5" font-family="Helvetica,sans-Serif" font-size="10.00"> ptr</text>
</g>
<!-- Node9 -->
<g id="node9" class="node">
<title>Node9</title>
<g id="a_node9"><a xlink:title="STL class.">
<polygon fill="white" stroke="#bfbfbf" points="924.5,-493 924.5,-512 989.5,-512 989.5,-493 924.5,-493"/>
<text text-anchor="middle" x="957" y="-500" font-family="Helvetica,sans-Serif" font-size="10.00">std::string</text>
</a>
</g>
</g>
<!-- Node9&#45;&gt;Node4 -->
<g id="edge8" class="edge">
<title>Node9&#45;&gt;Node4</title>
<path fill="none" stroke="#9a32cd" stroke-dasharray="5,2" d="M999.9,-498.59C1044.24,-494.25 1116.22,-486.65 1178,-477.5 1196.18,-474.81 1216.36,-471.16 1232.76,-468.03"/>
<polygon fill="#9a32cd" stroke="#9a32cd" points="999.4,-495.12 989.78,-499.57 1000.07,-502.09 999.4,-495.12"/>
<text text-anchor="middle" x="1114" y="-495.5" font-family="Helvetica,sans-Serif" font-size="10.00"> m_ObjectName</text>
</g>
<!-- Node10 -->
<g id="node10" class="node">
<title>Node10</title>
<g id="a_node10"><a xlink:title="STL class.">
<polygon fill="white" stroke="#bfbfbf" points="612,-486.5 612,-516.5 716,-516.5 716,-486.5 612,-486.5"/>
<text text-anchor="start" x="620" y="-504.5" font-family="Helvetica,sans-Serif" font-size="10.00">std::basic_string&lt;</text>
<text text-anchor="middle" x="664" y="-493.5" font-family="Helvetica,sans-Serif" font-size="10.00"> char &gt;</text>
</a>
</g>
</g>
<!-- Node10&#45;&gt;Node9 -->
<g id="edge9" class="edge">
<title>Node10&#45;&gt;Node9</title>
<path fill="none" stroke="midnightblue" d="M726.22,-501.71C786.76,-501.92 877.01,-502.23 924.37,-502.39"/>
<polygon fill="midnightblue" stroke="midnightblue" points="726.03,-498.21 716.02,-501.68 726.01,-505.21 726.03,-498.21"/>
</g>
<!-- Node11 -->
<g id="node11" class="node">
<title>Node11</title>
<g id="a_node11"><a xlink:href="classitk_1_1MetaDataDictionary.html" target="_top" xlink:title="Provides a mechanism for storing a collection of arbitrary data types.">
<polygon fill="white" stroke="black" points="890,-535 890,-554 1024,-554 1024,-535 890,-535"/>
<text text-anchor="middle" x="957" y="-542" font-family="Helvetica,sans-Serif" font-size="10.00">itk::MetaDataDictionary</text>
</a>
</g>
</g>
<!-- Node11&#45;&gt;Node4 -->
<g id="edge10" class="edge">
<title>Node11&#45;&gt;Node4</title>
<path fill="none" stroke="#9a32cd" stroke-dasharray="5,2" d="M1034.43,-537.68C1077.42,-532.36 1131.62,-523.14 1178,-507.5 1205,-498.39 1233.77,-481.76 1250.67,-471.18"/>
<polygon fill="#9a32cd" stroke="#9a32cd" points="1033.83,-534.23 1024.31,-538.89 1034.66,-541.18 1033.83,-534.23"/>
<text text-anchor="middle" x="1114" y="-537.5" font-family="Helvetica,sans-Serif" font-size="10.00"> m_MetaDataDictionary</text>
</g>
<!-- Node12 -->
<g id="node12" class="node">
<title>Node12</title>
<g id="a_node12"><a xlink:title=" ">
<polygon fill="white" stroke="#bfbfbf" points="589.5,-535.5 589.5,-565.5 738.5,-565.5 738.5,-535.5 589.5,-535.5"/>
<text text-anchor="start" x="597.5" y="-553.5" font-family="Helvetica,sans-Serif" font-size="10.00">std::shared_ptr&lt; MetaData</text>
<text text-anchor="middle" x="664" y="-542.5" font-family="Helvetica,sans-Serif" font-size="10.00">DictionaryMapType &gt;</text>
</a>
</g>
</g>
<!-- Node12&#45;&gt;Node11 -->
<g id="edge11" class="edge">
<title>Node12&#45;&gt;Node11</title>
<path fill="none" stroke="#9a32cd" stroke-dasharray="5,2" d="M749.08,-548.77C793.8,-547.84 848.01,-546.73 889.73,-545.87"/>
<polygon fill="#9a32cd" stroke="#9a32cd" points="748.73,-545.27 738.81,-548.98 748.88,-552.27 748.73,-545.27"/>
<text text-anchor="middle" x="815.5" y="-550.5" font-family="Helvetica,sans-Serif" font-size="10.00"> m_Dictionary</text>
</g>
<!-- Node13&#45;&gt;Node12 -->
<g id="edge12" class="edge">
<title>Node13&#45;&gt;Node12</title>
<path fill="none" stroke="#9a32cd" stroke-dasharray="5,2" d="M352.11,-550.5C416.71,-550.5 519.86,-550.5 589.45,-550.5"/>
<polygon fill="#9a32cd" stroke="#9a32cd" points="352.08,-547 342.08,-550.5 352.08,-554 352.08,-547"/>
<text text-anchor="middle" x="477" y="-553.5" font-family="Helvetica,sans-Serif" font-size="10.00"> ptr</text>
</g>
<!-- Node14 -->
<g id="node14" class="node">
<title>Node14</title>
<g id="a_node14"><a xlink:title=" ">
<polygon fill="white" stroke="#bfbfbf" points="47,-545 47,-564 76,-564 76,-545 47,-545"/>
<text text-anchor="middle" x="61.5" y="-552" font-family="Helvetica,sans-Serif" font-size="10.00">K</text>
</a>
</g>
</g>
<!-- Node14&#45;&gt;Node13 -->
<g id="edge13" class="edge">
<title>Node14&#45;&gt;Node13</title>
<path fill="none" stroke="#9a32cd" stroke-dasharray="5,2" d="M86.22,-554.08C122.63,-553.45 193.08,-552.21 240.95,-551.37"/>
<polygon fill="#9a32cd" stroke="#9a32cd" points="86.02,-550.59 76.08,-554.26 86.14,-557.59 86.02,-550.59"/>
<text text-anchor="middle" x="165.5" y="-555.5" font-family="Helvetica,sans-Serif" font-size="10.00"> keys</text>
</g>
<!-- Node15&#45;&gt;Node12 -->
<g id="edge15" class="edge">
<title>Node15&#45;&gt;Node12</title>
<path fill="none" stroke="orange" stroke-dasharray="5,2" d="M360.86,-508.42C415.14,-515.56 492.96,-525.94 561,-535.5 570.22,-536.8 579.9,-538.18 589.47,-539.57"/>
<polygon fill="orange" stroke="orange" points="361.04,-504.91 350.67,-507.08 360.13,-511.86 361.04,-504.91"/>
<text text-anchor="middle" x="477" y="-538.5" font-family="Helvetica,sans-Serif" font-size="10.00"> &lt; MetaDataDictionaryMapType &gt;</text>
</g>
<!-- Node16&#45;&gt;Node4 -->
<g id="edge17" class="edge">
<title>Node16&#45;&gt;Node4</title>
<path fill="none" stroke="#9a32cd" stroke-dasharray="5,2" d="M871.84,-460.62C966.54,-460.83 1156.8,-461.26 1232.93,-461.43"/>
<polygon fill="#9a32cd" stroke="#9a32cd" points="871.62,-457.12 861.61,-460.6 871.6,-464.12 871.62,-457.12"/>
<text text-anchor="middle" x="957" y="-463.5" font-family="Helvetica,sans-Serif" font-size="10.00"> m_MTime</text>
</g>
<!-- Node17 -->
<g id="node17" class="node">
<title>Node17</title>
<g id="a_node17"><a xlink:href="classitk_1_1SmartPointer.html" target="_top" xlink:title=" ">
<polygon fill="white" stroke="black" points="1213,-205.5 1213,-235.5 1320,-235.5 1320,-205.5 1213,-205.5"/>
<text text-anchor="start" x="1221" y="-223.5" font-family="Helvetica,sans-Serif" font-size="10.00">itk::SmartPointer&lt;</text>
<text text-anchor="middle" x="1266.5" y="-212.5" font-family="Helvetica,sans-Serif" font-size="10.00"> Self &gt;</text>
</a>
</g>
</g>
<!-- Node17&#45;&gt;Node2 -->
<g id="edge50" class="edge">
<title>Node17&#45;&gt;Node2</title>
<path fill="none" stroke="#9a32cd" stroke-dasharray="5,2" d="M1330.25,-217.33C1451.09,-211.05 1724.42,-196.04 1954,-177.5 1959.7,-177.04 1965.59,-176.53 1971.51,-176"/>
<polygon fill="#9a32cd" stroke="#9a32cd" points="1329.89,-213.84 1320.08,-217.85 1330.25,-220.83 1329.89,-213.84"/>
<text text-anchor="middle" x="1725.5" y="-199.5" font-family="Helvetica,sans-Serif" font-size="10.00"> m_Command</text>
</g>
<!-- Node17&#45;&gt;Node3 -->
<g id="edge19" class="edge">
<title>Node17&#45;&gt;Node3</title>
<path fill="none" stroke="#9a32cd" stroke-dasharray="5,2" d="M1330.41,-221.47C1425.07,-224.21 1609.1,-234.6 1760,-273.5 1781.77,-279.11 1805.25,-288.41 1823.47,-296.4"/>
<polygon fill="#9a32cd" stroke="#9a32cd" points="1330.24,-217.96 1320.15,-221.19 1330.05,-224.96 1330.24,-217.96"/>
<text text-anchor="middle" x="1571.5" y="-257.5" font-family="Helvetica,sans-Serif" font-size="10.00"> m_ScalesEstimator</text>
</g>
<!-- Node17&#45;&gt;Node30 -->
<g id="edge38" class="edge">
<title>Node17&#45;&gt;Node30</title>
<path fill="none" stroke="#9a32cd" stroke-dasharray="5,2" d="M1330.01,-229.15C1374.6,-235.86 1430.33,-245.5 1452,-254.5 1488.27,-269.57 1524.62,-297 1547.31,-315.96"/>
<polygon fill="#9a32cd" stroke="#9a32cd" points="1330.51,-225.68 1320.11,-227.68 1329.49,-232.61 1330.51,-225.68"/>
<text text-anchor="middle" x="1403.5" y="-257.5" font-family="Helvetica,sans-Serif" font-size="10.00"> m_ScalesEstimator</text>
</g>
<!-- Node31 -->
<g id="node31" class="node">
<title>Node31</title>
<g id="a_node31"><a xlink:href="classitk_1_1SingleValuedVnlCostFunctionAdaptorv4.html" target="_top" xlink:title="This class is an Adaptor that allows to pass itk::ObjectToObjectMetricBase objects to vnl_optimizers ...">
<polygon fill="white" stroke="black" points="1503.5,-128.5 1503.5,-158.5 1639.5,-158.5 1639.5,-128.5 1503.5,-128.5"/>
<text text-anchor="start" x="1511.5" y="-146.5" font-family="Helvetica,sans-Serif" font-size="10.00">itk::SingleValuedVnlCost</text>
<text text-anchor="middle" x="1571.5" y="-135.5" font-family="Helvetica,sans-Serif" font-size="10.00">FunctionAdaptorv4</text>
</a>
</g>
</g>
<!-- Node17&#45;&gt;Node31 -->
<g id="edge49" class="edge">
<title>Node17&#45;&gt;Node31</title>
<path fill="none" stroke="#9a32cd" stroke-dasharray="5,2" d="M1315.92,-200.92C1323.23,-197.2 1330.49,-193.04 1337,-188.5 1346.28,-182.03 1344.84,-175.47 1355,-170.5 1380.4,-158.07 1450.02,-150.94 1503.32,-147.16"/>
<polygon fill="#9a32cd" stroke="#9a32cd" points="1314.18,-197.87 1306.7,-205.38 1317.23,-204.17 1314.18,-197.87"/>
<text text-anchor="middle" x="1403.5" y="-173.5" font-family="Helvetica,sans-Serif" font-size="10.00"> m_Reporter</text>
</g>
<!-- Node18 -->
<g id="node18" class="node">
<title>Node18</title>
<g id="a_node18"><a xlink:href="classitk_1_1SmartPointer.html" target="_top" xlink:title="Implements transparent reference counting.">
<polygon fill="white" stroke="black" points="903.5,-223.5 903.5,-253.5 1010.5,-253.5 1010.5,-223.5 903.5,-223.5"/>
<text text-anchor="start" x="911.5" y="-241.5" font-family="Helvetica,sans-Serif" font-size="10.00">itk::SmartPointer&lt;</text>
<text text-anchor="middle" x="957" y="-230.5" font-family="Helvetica,sans-Serif" font-size="10.00"> TObjectType &gt;</text>
</a>
</g>
</g>
<!-- Node18&#45;&gt;Node3 -->
<g id="edge21" class="edge">
<title>Node18&#45;&gt;Node3</title>
<path fill="none" stroke="#9a32cd" stroke-dasharray="5,2" d="M1020.64,-245.57C1030.46,-246.6 1040.5,-247.61 1050,-248.5 1316.93,-273.44 1634.26,-296.26 1777.96,-306.22"/>
<polygon fill="#9a32cd" stroke="#9a32cd" points="1020.83,-242.07 1010.52,-244.49 1020.09,-249.03 1020.83,-242.07"/>
<text text-anchor="middle" x="1403.5" y="-285.5" font-family="Helvetica,sans-Serif" font-size="10.00"> m_Metric</text>
</g>
<!-- Node18&#45;&gt;Node17 -->
<g id="edge20" class="edge">
<title>Node18&#45;&gt;Node17</title>
<path fill="none" stroke="orange" stroke-dasharray="5,2" d="M1020.77,-234.83C1077.39,-231.51 1159.72,-226.69 1212.95,-223.58"/>
<polygon fill="orange" stroke="orange" points="1020.29,-231.35 1010.51,-235.43 1020.7,-238.34 1020.29,-231.35"/>
<text text-anchor="middle" x="1114" y="-236.5" font-family="Helvetica,sans-Serif" font-size="10.00"> &lt; Self &gt;</text>
</g>
<!-- Node18&#45;&gt;Node30 -->
<g id="edge39" class="edge">
<title>Node18&#45;&gt;Node30</title>
<path fill="none" stroke="#9a32cd" stroke-dasharray="5,2" d="M1009.58,-257.54C1017.24,-260.9 1024.93,-264.59 1032,-268.5 1040.63,-273.28 1040.78,-277.97 1050,-281.5 1124.31,-309.93 1340.53,-325.2 1469.73,-332.01"/>
<polygon fill="#9a32cd" stroke="#9a32cd" points="1010.87,-254.29 1000.3,-253.61 1008.14,-260.73 1010.87,-254.29"/>
<text text-anchor="middle" x="1266.5" y="-325.5" font-family="Helvetica,sans-Serif" font-size="10.00"> m_Metric</text>
</g>
<!-- Node19 -->
<g id="node19" class="node">
<title>Node19</title>
<g id="a_node19"><a xlink:href="classitk_1_1OptimizerParameters.html" target="_top" xlink:title=" ">
<polygon fill="white" stroke="black" points="1197,-346.5 1197,-376.5 1336,-376.5 1336,-346.5 1197,-346.5"/>
<text text-anchor="start" x="1205" y="-364.5" font-family="Helvetica,sans-Serif" font-size="10.00">itk::OptimizerParameters</text>
<text text-anchor="middle" x="1266.5" y="-353.5" font-family="Helvetica,sans-Serif" font-size="10.00">&lt; double &gt;</text>
</a>
</g>
</g>
<!-- Node19&#45;&gt;Node3 -->
<g id="edge22" class="edge">
<title>Node19&#45;&gt;Node3</title>
<path fill="none" stroke="#9a32cd" stroke-dasharray="5,2" d="M1343.16,-378.05C1347.16,-378.61 1351.12,-379.1 1355,-379.5 1495.72,-393.82 1533.73,-391.23 1673,-366.5 1723.01,-357.62 1778.66,-339.61 1815.21,-326.62"/>
<polygon fill="#9a32cd" stroke="#9a32cd" points="1343.63,-374.58 1333.21,-376.51 1342.56,-381.5 1343.63,-374.58"/>
<text text-anchor="middle" x="1571.5" y="-401.5" font-family="Helvetica,sans-Serif" font-size="10.00"> m_Scales</text>
<text text-anchor="middle" x="1571.5" y="-390.5" font-family="Helvetica,sans-Serif" font-size="10.00">m_Weights</text>
</g>
<!-- Node19&#45;&gt;Node30 -->
<g id="edge40" class="edge">
<title>Node19&#45;&gt;Node30</title>
<path fill="none" stroke="#9a32cd" stroke-dasharray="5,2" d="M1346.66,-354.97C1384.31,-351.86 1429.75,-348.11 1469.82,-344.81"/>
<polygon fill="#9a32cd" stroke="#9a32cd" points="1345.93,-351.52 1336.26,-355.83 1346.51,-358.49 1345.93,-351.52"/>
<text text-anchor="middle" x="1403.5" y="-367.5" font-family="Helvetica,sans-Serif" font-size="10.00"> m_Scales</text>
<text text-anchor="middle" x="1403.5" y="-356.5" font-family="Helvetica,sans-Serif" font-size="10.00">m_Weights</text>
</g>
<!-- Node20 -->
<g id="node20" class="node">
<title>Node20</title>
<g id="a_node20"><a xlink:href="classitk_1_1Array.html" target="_top" xlink:title=" ">
<polygon fill="white" stroke="black" points="605.5,-370 605.5,-389 722.5,-389 722.5,-370 605.5,-370"/>
<text text-anchor="middle" x="664" y="-377" font-family="Helvetica,sans-Serif" font-size="10.00">itk::Array&lt; double &gt;</text>
</a>
</g>
</g>
<!-- Node20&#45;&gt;Node19 -->
<g id="edge23" class="edge">
<title>Node20&#45;&gt;Node19</title>
<path fill="none" stroke="midnightblue" d="M732.79,-378.05C830.98,-375.85 1018.48,-371.32 1178,-365.5 1184.08,-365.28 1190.39,-365.03 1196.72,-364.76"/>
<polygon fill="midnightblue" stroke="midnightblue" points="732.63,-374.55 722.71,-378.27 732.79,-381.55 732.63,-374.55"/>
</g>
<!-- Node21 -->
<g id="node21" class="node">
<title>Node21</title>
<g id="a_node21"><a xlink:title=" ">
<polygon fill="white" stroke="#bfbfbf" points="230,-381 230,-400 353,-400 353,-381 230,-381"/>
<text text-anchor="middle" x="291.5" y="-388" font-family="Helvetica,sans-Serif" font-size="10.00">vnl_vector&lt; double &gt;</text>
</a>
</g>
</g>
<!-- Node21&#45;&gt;Node20 -->
<g id="edge24" class="edge">
<title>Node21&#45;&gt;Node20</title>
<path fill="none" stroke="midnightblue" d="M363.36,-388.4C433.62,-386.31 539.96,-383.15 605.25,-381.21"/>
<polygon fill="midnightblue" stroke="midnightblue" points="363.16,-384.9 353.27,-388.7 363.37,-391.9 363.16,-384.9"/>
</g>
<!-- Node22 -->
<g id="node22" class="node">
<title>Node22</title>
<g id="a_node22"><a xlink:href="classitk_1_1Array.html" target="_top" xlink:title="Array class with size defined at construction time.">
<polygon fill="white" stroke="black" points="233,-332 233,-351 350,-351 350,-332 233,-332"/>
<text text-anchor="middle" x="291.5" y="-339" font-family="Helvetica,sans-Serif" font-size="10.00">itk::Array&lt; TValue &gt;</text>
</a>
</g>
</g>
<!-- Node22&#45;&gt;Node20 -->
<g id="edge25" class="edge">
<title>Node22&#45;&gt;Node20</title>
<path fill="none" stroke="orange" stroke-dasharray="5,2" d="M360.34,-347.68C414.65,-352.72 492.76,-360.18 561,-367.5 575.36,-369.04 590.84,-370.81 605.3,-372.5"/>
<polygon fill="orange" stroke="orange" points="360.43,-344.17 350.15,-346.74 359.78,-351.14 360.43,-344.17"/>
<text text-anchor="middle" x="477" y="-370.5" font-family="Helvetica,sans-Serif" font-size="10.00"> &lt; double &gt;</text>
</g>
<!-- Node28 -->
<g id="node28" class="node">
<title>Node28</title>
<g id="a_node28"><a xlink:href="classitk_1_1Array.html" target="_top" xlink:title=" ">
<polygon fill="white" stroke="black" points="583.5,-315.5 583.5,-345.5 744.5,-345.5 744.5,-315.5 583.5,-315.5"/>
<text text-anchor="start" x="591.5" y="-333.5" font-family="Helvetica,sans-Serif" font-size="10.00">itk::Array&lt; TParametersValue</text>
<text text-anchor="middle" x="664" y="-322.5" font-family="Helvetica,sans-Serif" font-size="10.00">Type &gt;</text>
</a>
</g>
</g>
<!-- Node22&#45;&gt;Node28 -->
<g id="edge34" class="edge">
<title>Node22&#45;&gt;Node28</title>
<path fill="none" stroke="orange" stroke-dasharray="5,2" d="M360.08,-333.88C371.07,-332.9 382.34,-332.05 393,-331.5 457.02,-328.2 529.68,-328.14 583.49,-328.8"/>
<polygon fill="orange" stroke="orange" points="359.72,-330.4 350.09,-334.82 360.37,-337.37 359.72,-330.4"/>
<text text-anchor="middle" x="477" y="-334.5" font-family="Helvetica,sans-Serif" font-size="10.00"> &lt; TParametersValueType &gt;</text>
</g>
<!-- Node34 -->
<g id="node34" class="node">
<title>Node34</title>
<g id="a_node34"><a xlink:href="classitk_1_1Array.html" target="_top" xlink:title=" ">
<polygon fill="white" stroke="black" points="588,-223.5 588,-253.5 740,-253.5 740,-223.5 588,-223.5"/>
<text text-anchor="start" x="596" y="-241.5" font-family="Helvetica,sans-Serif" font-size="10.00">itk::Array&lt; InternalMeasure</text>
<text text-anchor="middle" x="664" y="-230.5" font-family="Helvetica,sans-Serif" font-size="10.00">Type &gt;</text>
</a>
</g>
</g>
<!-- Node22&#45;&gt;Node34 -->
<g id="edge46" class="edge">
<title>Node22&#45;&gt;Node34</title>
<path fill="none" stroke="orange" stroke-dasharray="5,2" d="M353.99,-329.36C361.16,-327.35 368.3,-325.07 375,-322.5 383.54,-319.22 384.53,-315.96 393,-312.5 457.58,-286.16 534.6,-266.1 589.82,-253.55"/>
<polygon fill="orange" stroke="orange" points="353,-326 344.22,-331.94 354.78,-332.77 353,-326"/>
<text text-anchor="middle" x="477" y="-315.5" font-family="Helvetica,sans-Serif" font-size="10.00"> &lt; InternalMeasureType &gt;</text>
</g>
<!-- Node23 -->
<g id="node23" class="node">
<title>Node23</title>
<g id="a_node23"><a xlink:title=" ">
<polygon fill="white" stroke="#bfbfbf" points="0,-332 0,-351 123,-351 123,-332 0,-332"/>
<text text-anchor="middle" x="61.5" y="-339" font-family="Helvetica,sans-Serif" font-size="10.00">vnl_vector&lt; TValue &gt;</text>
</a>
</g>
</g>
<!-- Node23&#45;&gt;Node22 -->
<g id="edge26" class="edge">
<title>Node23&#45;&gt;Node22</title>
<path fill="none" stroke="midnightblue" d="M133.19,-341.5C165.21,-341.5 202.58,-341.5 232.86,-341.5"/>
<polygon fill="midnightblue" stroke="midnightblue" points="133,-338 123,-341.5 133,-345 133,-338"/>
</g>
<!-- Node24 -->
<g id="node24" class="node">
<title>Node24</title>
<g id="a_node24"><a xlink:title=" ">
<polygon fill="white" stroke="#bfbfbf" points="579,-174.5 579,-204.5 749,-204.5 749,-174.5 579,-174.5"/>
<text text-anchor="start" x="587" y="-192.5" font-family="Helvetica,sans-Serif" font-size="10.00">std::unique_ptr&lt; itk</text>
<text text-anchor="middle" x="664" y="-181.5" font-family="Helvetica,sans-Serif" font-size="10.00">::OptimizerParametersHelper &gt;</text>
</a>
</g>
</g>
<!-- Node24&#45;&gt;Node19 -->
<g id="edge27" class="edge">
<title>Node24&#45;&gt;Node19</title>
<path fill="none" stroke="#9a32cd" stroke-dasharray="5,2" d="M759.14,-195.49C802.22,-199.94 847.35,-207.57 864,-220.5 880.04,-232.96 866.56,-249.31 882,-262.5 934.29,-307.17 966,-281.17 1032,-300.5 1040.09,-302.87 1041.91,-304.12 1050,-306.5 1065,-310.91 1147.32,-331.76 1205.74,-346.48"/>
<polygon fill="#9a32cd" stroke="#9a32cd" points="759.42,-192 749.12,-194.51 758.73,-198.97 759.42,-192"/>
<text text-anchor="middle" x="957" y="-303.5" font-family="Helvetica,sans-Serif" font-size="10.00"> m_Helper</text>
</g>
<!-- Node27 -->
<g id="node27" class="node">
<title>Node27</title>
<g id="a_node27"><a xlink:href="classitk_1_1OptimizerParameters.html" target="_top" xlink:title="Class to hold and manage different parameter types used during optimization.">
<polygon fill="white" stroke="black" points="882,-320.5 882,-350.5 1032,-350.5 1032,-320.5 882,-320.5"/>
<text text-anchor="start" x="890" y="-338.5" font-family="Helvetica,sans-Serif" font-size="10.00">itk::OptimizerParameters</text>
<text text-anchor="middle" x="957" y="-327.5" font-family="Helvetica,sans-Serif" font-size="10.00">&lt; TParametersValueType &gt;</text>
</a>
</g>
</g>
<!-- Node24&#45;&gt;Node27 -->
<g id="edge35" class="edge">
<title>Node24&#45;&gt;Node27</title>
<path fill="none" stroke="#9a32cd" stroke-dasharray="5,2" d="M736.16,-208.03C740.57,-209.73 744.88,-211.55 749,-213.5 813.98,-244.23 818.76,-271.35 882,-305.5 892.12,-310.97 903.46,-316.04 914.16,-320.41"/>
<polygon fill="#9a32cd" stroke="#9a32cd" points="737.02,-204.62 726.43,-204.51 734.64,-211.2 737.02,-204.62"/>
<text text-anchor="middle" x="815.5" y="-296.5" font-family="Helvetica,sans-Serif" font-size="10.00"> m_Helper</text>
</g>
<!-- Node33 -->
<g id="node33" class="node">
<title>Node33</title>
<g id="a_node33"><a xlink:href="classitk_1_1OptimizerParameters.html" target="_top" xlink:title=" ">
<polygon fill="white" stroke="black" points="1196,-149.5 1196,-179.5 1337,-179.5 1337,-149.5 1196,-149.5"/>
<text text-anchor="start" x="1204" y="-167.5" font-family="Helvetica,sans-Serif" font-size="10.00">itk::OptimizerParameters</text>
<text text-anchor="middle" x="1266.5" y="-156.5" font-family="Helvetica,sans-Serif" font-size="10.00">&lt; InternalMeasureType &gt;</text>
</a>
</g>
</g>
<!-- Node24&#45;&gt;Node33 -->
<g id="edge47" class="edge">
<title>Node24&#45;&gt;Node33</title>
<path fill="none" stroke="#9a32cd" stroke-dasharray="5,2" d="M759.17,-178.64C797.25,-174.7 841.67,-170.69 882,-168.5 991.54,-162.56 1118.92,-162.61 1195.81,-163.4"/>
<polygon fill="#9a32cd" stroke="#9a32cd" points="758.7,-175.17 749.12,-179.69 759.43,-182.13 758.7,-175.17"/>
<text text-anchor="middle" x="957" y="-171.5" font-family="Helvetica,sans-Serif" font-size="10.00"> m_Helper</text>
</g>
<!-- Node25 -->
<g id="node25" class="node">
<title>Node25</title>
<g id="a_node25"><a xlink:href="classitk_1_1OptimizerParametersHelper.html" target="_top" xlink:title="Basic helper class to manage parameter data as an Array type, the default type.">
<polygon fill="white" stroke="black" points="222,-174.5 222,-204.5 361,-204.5 361,-174.5 222,-174.5"/>
<text text-anchor="start" x="230" y="-192.5" font-family="Helvetica,sans-Serif" font-size="10.00">itk::OptimizerParameters</text>
<text text-anchor="middle" x="291.5" y="-181.5" font-family="Helvetica,sans-Serif" font-size="10.00">Helper&lt; TValue &gt;</text>
</a>
</g>
</g>
<!-- Node25&#45;&gt;Node24 -->
<g id="edge28" class="edge">
<title>Node25&#45;&gt;Node24</title>
<path fill="none" stroke="#9a32cd" stroke-dasharray="5,2" d="M371.66,-189.5C432.65,-189.5 516.78,-189.5 578.96,-189.5"/>
<polygon fill="#9a32cd" stroke="#9a32cd" points="371.32,-186 361.32,-189.5 371.32,-193 371.32,-186"/>
<text text-anchor="middle" x="477" y="-192.5" font-family="Helvetica,sans-Serif" font-size="10.00"> ptr</text>
</g>
<!-- Node26&#45;&gt;Node24 -->
<g id="edge29" class="edge">
<title>Node26&#45;&gt;Node24</title>
<path fill="none" stroke="orange" stroke-dasharray="5,2" d="M360.95,-145.97C415.44,-147.95 493.5,-152.6 561,-163.5 577.6,-166.18 595.44,-170.29 611.49,-174.46"/>
<polygon fill="orange" stroke="orange" points="360.83,-142.47 350.72,-145.62 360.59,-149.46 360.83,-142.47"/>
<text text-anchor="start" x="408.5" y="-177.5" font-family="Helvetica,sans-Serif" font-size="10.00"> &lt; itk::OptimizerParameters</text>
<text text-anchor="middle" x="477" y="-166.5" font-family="Helvetica,sans-Serif" font-size="10.00">Helper &gt;</text>
</g>
<!-- Node36 -->
<g id="node36" class="node">
<title>Node36</title>
<g id="a_node36"><a xlink:title=" ">
<polygon fill="white" stroke="#bfbfbf" points="595,-57.5 595,-87.5 733,-87.5 733,-57.5 595,-57.5"/>
<text text-anchor="start" x="603" y="-75.5" font-family="Helvetica,sans-Serif" font-size="10.00">std::unique_ptr&lt; Internal</text>
<text text-anchor="middle" x="664" y="-64.5" font-family="Helvetica,sans-Serif" font-size="10.00">OptimizerType &gt;</text>
</a>
</g>
</g>
<!-- Node26&#45;&gt;Node36 -->
<g id="edge53" class="edge">
<title>Node26&#45;&gt;Node36</title>
<path fill="none" stroke="orange" stroke-dasharray="5,2" d="M351.56,-133.02C417.76,-120.16 524.94,-99.33 594.69,-85.77"/>
<polygon fill="orange" stroke="orange" points="350.85,-129.6 341.7,-134.94 352.18,-136.47 350.85,-129.6"/>
<text text-anchor="middle" x="477" y="-126.5" font-family="Helvetica,sans-Serif" font-size="10.00"> &lt; InternalOptimizerType &gt;</text>
</g>
<!-- Node27&#45;&gt;Node19 -->
<g id="edge31" class="edge">
<title>Node27&#45;&gt;Node19</title>
<path fill="none" stroke="orange" stroke-dasharray="5,2" d="M1042.23,-342.62C1090.82,-346.73 1151.14,-351.83 1196.83,-355.69"/>
<polygon fill="orange" stroke="orange" points="1042.3,-339.12 1032.05,-341.76 1041.71,-346.09 1042.3,-339.12"/>
<text text-anchor="middle" x="1114" y="-356.5" font-family="Helvetica,sans-Serif" font-size="10.00"> &lt; double &gt;</text>
</g>
<!-- Node27&#45;&gt;Node33 -->
<g id="edge48" class="edge">
<title>Node27&#45;&gt;Node33</title>
<path fill="none" stroke="orange" stroke-dasharray="5,2" d="M1022.04,-314.9C1025.72,-312.15 1029.1,-309.03 1032,-305.5 1058.99,-272.62 1019.75,-241.41 1050,-211.5 1091.1,-170.86 1121.63,-201.27 1178,-188.5 1189.52,-185.89 1201.8,-182.75 1213.41,-179.61"/>
<polygon fill="orange" stroke="orange" points="1020.05,-312.02 1013.54,-320.37 1023.84,-317.9 1020.05,-312.02"/>
<text text-anchor="middle" x="1114" y="-214.5" font-family="Helvetica,sans-Serif" font-size="10.00"> &lt; InternalMeasureType &gt;</text>
</g>
<!-- Node28&#45;&gt;Node27 -->
<g id="edge32" class="edge">
<title>Node28&#45;&gt;Node27</title>
<path fill="none" stroke="midnightblue" d="M754.7,-332.04C795.38,-332.74 842.92,-333.56 881.58,-334.22"/>
<polygon fill="midnightblue" stroke="midnightblue" points="754.58,-328.54 744.52,-331.87 754.46,-335.54 754.58,-328.54"/>
</g>
<!-- Node29 -->
<g id="node29" class="node">
<title>Node29</title>
<g id="a_node29"><a xlink:title=" ">
<polygon fill="white" stroke="#bfbfbf" points="208,-282.5 208,-312.5 375,-312.5 375,-282.5 208,-282.5"/>
<text text-anchor="start" x="216" y="-300.5" font-family="Helvetica,sans-Serif" font-size="10.00">vnl_vector&lt; TParametersValue</text>
<text text-anchor="middle" x="291.5" y="-289.5" font-family="Helvetica,sans-Serif" font-size="10.00">Type &gt;</text>
</a>
</g>
</g>
<!-- Node29&#45;&gt;Node28 -->
<g id="edge33" class="edge">
<title>Node29&#45;&gt;Node28</title>
<path fill="none" stroke="midnightblue" d="M385.2,-305.76C446.22,-311.19 525.26,-318.23 583.43,-323.41"/>
<polygon fill="midnightblue" stroke="midnightblue" points="385.46,-302.27 375.19,-304.86 384.84,-309.24 385.46,-302.27"/>
</g>
<!-- Node30&#45;&gt;Node3 -->
<g id="edge36" class="edge">
<title>Node30&#45;&gt;Node3</title>
<path fill="none" stroke="orange" stroke-dasharray="5,2" d="M1683.27,-326.72C1714.92,-323.92 1748.73,-320.93 1777.94,-318.35"/>
<polygon fill="orange" stroke="orange" points="1682.73,-323.25 1673.07,-327.62 1683.34,-330.22 1682.73,-323.25"/>
<text text-anchor="middle" x="1725.5" y="-327.5" font-family="Helvetica,sans-Serif" font-size="10.00"> &lt; double &gt;</text>
</g>
<!-- Node31&#45;&gt;Node2 -->
<g id="edge41" class="edge">
<title>Node31&#45;&gt;Node2</title>
<path fill="none" stroke="#9a32cd" stroke-dasharray="5,2" d="M1649.75,-147.59C1738.9,-152.3 1884.43,-160 1971.82,-164.63"/>
<polygon fill="#9a32cd" stroke="#9a32cd" points="1649.87,-144.09 1639.7,-147.06 1649.5,-151.08 1649.87,-144.09"/>
<text text-anchor="middle" x="1856.5" y="-166.5" font-family="Helvetica,sans-Serif" font-size="10.00"> m_CostFunctionAdaptor</text>
</g>
<!-- Node32 -->
<g id="node32" class="node">
<title>Node32</title>
<g id="a_node32"><a xlink:title=" ">
<polygon fill="white" stroke="#bfbfbf" points="1215.5,-96 1215.5,-115 1317.5,-115 1317.5,-96 1215.5,-96"/>
<text text-anchor="middle" x="1266.5" y="-103" font-family="Helvetica,sans-Serif" font-size="10.00">vnl_cost_function</text>
</a>
</g>
</g>
<!-- Node32&#45;&gt;Node31 -->
<g id="edge42" class="edge">
<title>Node32&#45;&gt;Node31</title>
<path fill="none" stroke="midnightblue" d="M1327.99,-112.47C1364.02,-116.69 1410.64,-122.24 1452,-127.5 1468.68,-129.62 1486.67,-132 1503.47,-134.26"/>
<polygon fill="midnightblue" stroke="midnightblue" points="1327.98,-108.95 1317.64,-111.27 1327.17,-115.9 1327.98,-108.95"/>
</g>
<!-- Node33&#45;&gt;Node31 -->
<g id="edge43" class="edge">
<title>Node33&#45;&gt;Node31</title>
<path fill="none" stroke="#9a32cd" stroke-dasharray="5,2" d="M1315.14,-146.32C1327.9,-142.26 1341.81,-138.56 1355,-136.5 1404.19,-128.82 1460.43,-131.01 1503.13,-134.89"/>
<polygon fill="#9a32cd" stroke="#9a32cd" points="1314.04,-143 1305.64,-149.46 1316.24,-149.64 1314.04,-143"/>
<text text-anchor="middle" x="1403.5" y="-139.5" font-family="Helvetica,sans-Serif" font-size="10.00"> m_Scales</text>
</g>
<!-- Node34&#45;&gt;Node33 -->
<g id="edge44" class="edge">
<title>Node34&#45;&gt;Node33</title>
<path fill="none" stroke="midnightblue" d="M750.36,-227.98C870.01,-213.24 1085.32,-186.7 1195.86,-173.08"/>
<polygon fill="midnightblue" stroke="midnightblue" points="749.64,-224.54 740.14,-229.24 750.5,-231.49 749.64,-224.54"/>
</g>
<!-- Node35 -->
<g id="node35" class="node">
<title>Node35</title>
<g id="a_node35"><a xlink:title=" ">
<polygon fill="white" stroke="#bfbfbf" points="212.5,-223.5 212.5,-253.5 370.5,-253.5 370.5,-223.5 212.5,-223.5"/>
<text text-anchor="start" x="220.5" y="-241.5" font-family="Helvetica,sans-Serif" font-size="10.00">vnl_vector&lt; InternalMeasure</text>
<text text-anchor="middle" x="291.5" y="-230.5" font-family="Helvetica,sans-Serif" font-size="10.00">Type &gt;</text>
</a>
</g>
</g>
<!-- Node35&#45;&gt;Node34 -->
<g id="edge45" class="edge">
<title>Node35&#45;&gt;Node34</title>
<path fill="none" stroke="midnightblue" d="M380.96,-238.5C444.05,-238.5 527.97,-238.5 587.83,-238.5"/>
<polygon fill="midnightblue" stroke="midnightblue" points="380.62,-235 370.62,-238.5 380.62,-242 380.62,-235"/>
</g>
<!-- Node36&#45;&gt;Node1 -->
<g id="edge51" class="edge">
<title>Node36&#45;&gt;Node1</title>
<path fill="none" stroke="#9a32cd" stroke-dasharray="5,2" d="M743.49,-70.42C802.05,-69.05 884.02,-67.5 956,-67.5 956,-67.5 956,-67.5 2047,-67.5 2132.51,-67.5 2230.32,-67.5 2297.99,-67.5"/>
<polygon fill="#9a32cd" stroke="#9a32cd" points="743.11,-66.93 733.2,-70.67 743.28,-73.93 743.11,-66.93"/>
<text text-anchor="middle" x="1571.5" y="-70.5" font-family="Helvetica,sans-Serif" font-size="10.00"> m_VnlOptimizer</text>
</g>
<!-- Node37 -->
<g id="node37" class="node">
<title>Node37</title>
<g id="a_node37"><a xlink:href="classLBFGSBOptimizerHelperv4.html" target="_top" xlink:title="Wrapper helper around vnl_lbfgsb.">
<polygon fill="white" stroke="black" points="218,-63 218,-82 365,-82 365,-63 218,-63"/>
<text text-anchor="middle" x="291.5" y="-70" font-family="Helvetica,sans-Serif" font-size="10.00">LBFGSBOptimizerHelperv4</text>
</a>
</g>
</g>
<!-- Node37&#45;&gt;Node36 -->
<g id="edge52" class="edge">
<title>Node37&#45;&gt;Node36</title>
<path fill="none" stroke="#9a32cd" stroke-dasharray="5,2" d="M375.64,-72.5C441.7,-72.5 532.97,-72.5 594.78,-72.5"/>
<polygon fill="#9a32cd" stroke="#9a32cd" points="375.26,-69 365.26,-72.5 375.26,-76 375.26,-69"/>
<text text-anchor="middle" x="477" y="-75.5" font-family="Helvetica,sans-Serif" font-size="10.00"> ptr</text>
</g>
<!-- Node38 -->
<g id="node38" class="node">
<title>Node38</title>
<g id="a_node38"><a xlink:title="STL class.">
<polygon fill="white" stroke="#bfbfbf" points="1993,-19 1993,-38 2099,-38 2099,-19 1993,-19"/>
<text text-anchor="middle" x="2046" y="-26" font-family="Helvetica,sans-Serif" font-size="10.00">std::ostringstream</text>
</a>
</g>
</g>
<!-- Node38&#45;&gt;Node1 -->
<g id="edge54" class="edge">
<title>Node38&#45;&gt;Node1</title>
<path fill="none" stroke="#9a32cd" stroke-dasharray="5,2" d="M2109.16,-29.18C2156.28,-30.43 2222.52,-33.77 2280,-42.5 2295.88,-44.91 2312.91,-48.64 2328.4,-52.5"/>
<polygon fill="#9a32cd" stroke="#9a32cd" points="2109.19,-25.68 2099.11,-28.93 2109.02,-32.67 2109.19,-25.68"/>
<text text-anchor="middle" x="2209" y="-45.5" font-family="Helvetica,sans-Serif" font-size="10.00"> m_StopConditionDescription</text>
</g>
<!-- Node39 -->
<g id="node39" class="node">
<title>Node39</title>
<g id="a_node39"><a xlink:title="STL class.">
<polygon fill="white" stroke="#bfbfbf" points="1788,-6.5 1788,-36.5 1925,-36.5 1925,-6.5 1788,-6.5"/>
<text text-anchor="start" x="1796" y="-24.5" font-family="Helvetica,sans-Serif" font-size="10.00">std::basic_ostringstream</text>
<text text-anchor="middle" x="1856.5" y="-13.5" font-family="Helvetica,sans-Serif" font-size="10.00">&lt; char &gt;</text>
</a>
</g>
</g>
<!-- Node39&#45;&gt;Node38 -->
<g id="edge55" class="edge">
<title>Node39&#45;&gt;Node38</title>
<path fill="none" stroke="midnightblue" d="M1935.22,-24.4C1954.59,-25.12 1974.9,-25.88 1992.71,-26.55"/>
<polygon fill="midnightblue" stroke="midnightblue" points="1935.32,-20.9 1925.19,-24.03 1935.05,-27.9 1935.32,-20.9"/>
</g>
<!-- Node40 -->
<g id="node40" class="node">
<title>Node40</title>
<g id="a_node40"><a xlink:title="STL class.">
<polygon fill="white" stroke="#bfbfbf" points="1517,-0.5 1517,-30.5 1626,-30.5 1626,-0.5 1517,-0.5"/>
<text text-anchor="start" x="1525" y="-18.5" font-family="Helvetica,sans-Serif" font-size="10.00">std::basic_ostream</text>
<text text-anchor="middle" x="1571.5" y="-7.5" font-family="Helvetica,sans-Serif" font-size="10.00">&lt; Char &gt;</text>
</a>
</g>
</g>
<!-- Node40&#45;&gt;Node39 -->
<g id="edge56" class="edge">
<title>Node40&#45;&gt;Node39</title>
<path fill="none" stroke="midnightblue" d="M1636.32,-16.85C1681.48,-17.81 1741.93,-19.09 1787.9,-20.07"/>
<polygon fill="midnightblue" stroke="midnightblue" points="1636.13,-13.35 1626.06,-16.64 1635.99,-20.35 1636.13,-13.35"/>
</g>
<!-- Node41 -->
<g id="node41" class="node">
<title>Node41</title>
<g id="a_node41"><a xlink:title="STL class.">
<polygon fill="white" stroke="#bfbfbf" points="1202.5,-6 1202.5,-25 1330.5,-25 1330.5,-6 1202.5,-6"/>
<text text-anchor="middle" x="1266.5" y="-13" font-family="Helvetica,sans-Serif" font-size="10.00">std::basic_ios&lt; Char &gt;</text>
</a>
</g>
</g>
<!-- Node41&#45;&gt;Node40 -->
<g id="edge57" class="edge">
<title>Node41&#45;&gt;Node40</title>
<path fill="none" stroke="midnightblue" d="M1340.89,-15.5C1395.08,-15.5 1467.63,-15.5 1516.55,-15.5"/>
<polygon fill="midnightblue" stroke="midnightblue" points="1340.65,-12 1330.65,-15.5 1340.65,-19 1340.65,-12"/>
</g>
<!-- Node42 -->
<g id="node42" class="node">
<title>Node42</title>
<g id="a_node42"><a xlink:title="STL class.">
<polygon fill="white" stroke="#bfbfbf" points="917,-6 917,-25 997,-25 997,-6 917,-6"/>
<text text-anchor="middle" x="957" y="-13" font-family="Helvetica,sans-Serif" font-size="10.00">std::ios_base</text>
</a>
</g>
</g>
<!-- Node42&#45;&gt;Node41 -->
<g id="edge58" class="edge">
<title>Node42&#45;&gt;Node41</title>
<path fill="none" stroke="midnightblue" d="M1007.42,-15.5C1060.43,-15.5 1144.75,-15.5 1202.48,-15.5"/>
<polygon fill="midnightblue" stroke="midnightblue" points="1007.26,-12 997.26,-15.5 1007.26,-19 1007.26,-12"/>
</g>
</g>
</svg>
