<?xml version="1.0" encoding="UTF-8" standalone="no"?>
<!DOCTYPE svg PUBLIC "-//W3C//DTD SVG 1.1//EN"
 "http://www.w3.org/Graphics/SVG/1.1/DTD/svg11.dtd">
<!-- Generated by graphviz version 2.43.0 (0)
 -->
<!-- Title: itk::FixedCenterOfRotationAffineTransform&lt; TParametersValueType, NDimensions &gt; Pages: 1 -->
<svg width="3152pt" height="174pt"
 viewBox="0.00 0.00 3152.00 174.07" xmlns="http://www.w3.org/2000/svg" xmlns:xlink="http://www.w3.org/1999/xlink">
<g id="graph0" class="graph" transform="scale(1 1) rotate(0) translate(4 170.07)">
<title>itk::FixedCenterOfRotationAffineTransform&lt; TParametersValueType, NDimensions &gt;</title>
<polygon fill="white" stroke="transparent" points="-4,4 -4,-170.07 3148,-170.07 3148,4 -4,4"/>
<!-- Node1 -->
<g id="node1" class="node">
<title>Node1</title>
<g id="a_node1"><a xlink:title="Affine transformation with a specified center of rotation.">
<polygon fill="#bfbfbf" stroke="black" points="2950,-82.57 2950,-123.57 3144,-123.57 3144,-82.57 2950,-82.57"/>
<text text-anchor="start" x="2958" y="-111.57" font-family="Helvetica,sans-Serif" font-size="10.00">itk::FixedCenterOfRotation</text>
<text text-anchor="start" x="2958" y="-100.57" font-family="Helvetica,sans-Serif" font-size="10.00">AffineTransform&lt; TParametersValue</text>
<text text-anchor="middle" x="3047" y="-89.57" font-family="Helvetica,sans-Serif" font-size="10.00">Type, NDimensions &gt;</text>
</a>
</g>
</g>
<!-- Node2 -->
<g id="node2" class="node">
<title>Node2</title>
<g id="a_node2"><a xlink:href="classitk_1_1ScalableAffineTransform.html" target="_top" xlink:title=" ">
<polygon fill="white" stroke="black" points="2759,-88.07 2759,-118.07 2913,-118.07 2913,-88.07 2759,-88.07"/>
<text text-anchor="start" x="2767" y="-106.07" font-family="Helvetica,sans-Serif" font-size="10.00">itk::ScalableAffineTransform</text>
<text text-anchor="middle" x="2836" y="-95.07" font-family="Helvetica,sans-Serif" font-size="10.00">&lt; double, 3 &gt;</text>
</a>
</g>
</g>
<!-- Node2&#45;&gt;Node1 -->
<g id="edge1" class="edge">
<title>Node2&#45;&gt;Node1</title>
<path fill="none" stroke="midnightblue" d="M2923.2,-103.07C2931.93,-103.07 2940.84,-103.07 2949.67,-103.07"/>
<polygon fill="midnightblue" stroke="midnightblue" points="2923.05,-99.57 2913.05,-103.07 2923.04,-106.57 2923.05,-99.57"/>
</g>
<!-- Node3 -->
<g id="node3" class="node">
<title>Node3</title>
<g id="a_node3"><a xlink:href="classitk_1_1AffineTransform.html" target="_top" xlink:title=" ">
<polygon fill="white" stroke="black" points="2251,-111.07 2251,-141.07 2394,-141.07 2394,-111.07 2251,-111.07"/>
<text text-anchor="start" x="2259" y="-129.07" font-family="Helvetica,sans-Serif" font-size="10.00">itk::AffineTransform</text>
<text text-anchor="middle" x="2322.5" y="-118.07" font-family="Helvetica,sans-Serif" font-size="10.00">&lt; double, NDimensions &gt;</text>
</a>
</g>
</g>
<!-- Node3&#45;&gt;Node2 -->
<g id="edge2" class="edge">
<title>Node3&#45;&gt;Node2</title>
<path fill="none" stroke="midnightblue" d="M2404.1,-124.34C2488.22,-122.27 2623.95,-118.15 2741,-111.07 2746.8,-110.72 2752.81,-110.31 2758.84,-109.87"/>
<polygon fill="midnightblue" stroke="midnightblue" points="2404.01,-120.84 2394.1,-124.58 2404.18,-127.84 2404.01,-120.84"/>
</g>
<!-- Node4 -->
<g id="node4" class="node">
<title>Node4</title>
<g id="a_node4"><a xlink:href="classitk_1_1MatrixOffsetTransformBase.html" target="_top" xlink:title=" ">
<polygon fill="white" stroke="black" points="1766,-47.57 1766,-88.57 1925,-88.57 1925,-47.57 1766,-47.57"/>
<text text-anchor="start" x="1774" y="-76.57" font-family="Helvetica,sans-Serif" font-size="10.00">itk::MatrixOffsetTransform</text>
<text text-anchor="start" x="1774" y="-65.57" font-family="Helvetica,sans-Serif" font-size="10.00">Base&lt; double, NDimensions,</text>
<text text-anchor="middle" x="1845.5" y="-54.57" font-family="Helvetica,sans-Serif" font-size="10.00"> NDimensions &gt;</text>
</a>
</g>
</g>
<!-- Node4&#45;&gt;Node3 -->
<g id="edge3" class="edge">
<title>Node4&#45;&gt;Node3</title>
<path fill="none" stroke="midnightblue" d="M1935.2,-73.68C2031.18,-80.1 2177.89,-91.02 2233,-101.07 2246.67,-103.56 2261.26,-107.24 2274.58,-111.02"/>
<polygon fill="midnightblue" stroke="midnightblue" points="1935.42,-70.18 1925.21,-73.01 1934.96,-77.17 1935.42,-70.18"/>
</g>
<!-- Node16 -->
<g id="node16" class="node">
<title>Node16</title>
<g id="a_node16"><a xlink:href="classitk_1_1AffineTransform.html" target="_top" xlink:title=" ">
<polygon fill="white" stroke="black" points="2266,-62.07 2266,-92.07 2379,-92.07 2379,-62.07 2266,-62.07"/>
<text text-anchor="start" x="2274" y="-80.07" font-family="Helvetica,sans-Serif" font-size="10.00">itk::AffineTransform</text>
<text text-anchor="middle" x="2322.5" y="-69.07" font-family="Helvetica,sans-Serif" font-size="10.00">&lt; double, 3 &gt;</text>
</a>
</g>
</g>
<!-- Node4&#45;&gt;Node16 -->
<g id="edge22" class="edge">
<title>Node4&#45;&gt;Node16</title>
<path fill="none" stroke="midnightblue" d="M1935.66,-68.41C2014.01,-68.9 2131.09,-70.11 2233,-73.07 2243.61,-73.37 2254.93,-73.81 2265.8,-74.28"/>
<polygon fill="midnightblue" stroke="midnightblue" points="1935.37,-64.9 1925.35,-68.34 1935.33,-71.9 1935.37,-64.9"/>
</g>
<!-- Node5 -->
<g id="node5" class="node">
<title>Node5</title>
<g id="a_node5"><a xlink:href="classitk_1_1Transform.html" target="_top" xlink:title=" ">
<polygon fill="white" stroke="black" points="977,-86.07 977,-116.07 1202,-116.07 1202,-86.07 977,-86.07"/>
<text text-anchor="start" x="985" y="-104.07" font-family="Helvetica,sans-Serif" font-size="10.00">itk::Transform&lt; double,</text>
<text text-anchor="middle" x="1089.5" y="-93.07" font-family="Helvetica,sans-Serif" font-size="10.00"> NInputDimensions, NOutputDimensions &gt;</text>
</a>
</g>
</g>
<!-- Node5&#45;&gt;Node4 -->
<g id="edge4" class="edge">
<title>Node5&#45;&gt;Node4</title>
<path fill="none" stroke="midnightblue" d="M1212.2,-99.58C1344.3,-97.28 1561.39,-91.49 1748,-77.07 1753.79,-76.62 1759.77,-76.13 1765.78,-75.62"/>
<polygon fill="midnightblue" stroke="midnightblue" points="1211.99,-96.09 1202.05,-99.76 1212.11,-103.08 1211.99,-96.09"/>
</g>
<!-- Node14 -->
<g id="node14" class="node">
<title>Node14</title>
<g id="a_node14"><a xlink:href="classitk_1_1MatrixOffsetTransformBase.html" target="_top" xlink:title=" ">
<polygon fill="white" stroke="black" points="1603,-130.07 1603,-160.07 1748,-160.07 1748,-130.07 1603,-130.07"/>
<text text-anchor="start" x="1611" y="-148.07" font-family="Helvetica,sans-Serif" font-size="10.00">itk::MatrixOffsetTransform</text>
<text text-anchor="middle" x="1675.5" y="-137.07" font-family="Helvetica,sans-Serif" font-size="10.00">Base&lt; double, 3, 3 &gt;</text>
</a>
</g>
</g>
<!-- Node5&#45;&gt;Node14 -->
<g id="edge18" class="edge">
<title>Node5&#45;&gt;Node14</title>
<path fill="none" stroke="midnightblue" d="M1212.24,-114.38C1214.85,-114.61 1217.44,-114.84 1220,-115.07 1355.11,-126.82 1513.17,-136.29 1602.8,-141.26"/>
<polygon fill="midnightblue" stroke="midnightblue" points="1212.36,-110.87 1202.08,-113.43 1211.71,-117.84 1212.36,-110.87"/>
</g>
<!-- Node6 -->
<g id="node6" class="node">
<title>Node6</title>
<g id="a_node6"><a xlink:href="classitk_1_1TransformBaseTemplate.html" target="_top" xlink:title=" ">
<polygon fill="white" stroke="black" points="486,-74.07 486,-104.07 639,-104.07 639,-74.07 486,-74.07"/>
<text text-anchor="start" x="494" y="-92.07" font-family="Helvetica,sans-Serif" font-size="10.00">itk::TransformBaseTemplate</text>
<text text-anchor="middle" x="562.5" y="-81.07" font-family="Helvetica,sans-Serif" font-size="10.00">&lt; double &gt;</text>
</a>
</g>
</g>
<!-- Node6&#45;&gt;Node5 -->
<g id="edge5" class="edge">
<title>Node6&#45;&gt;Node5</title>
<path fill="none" stroke="midnightblue" d="M649.38,-91.03C738.75,-93.07 879.08,-96.28 976.97,-98.52"/>
<polygon fill="midnightblue" stroke="midnightblue" points="649.36,-87.53 639.28,-90.8 649.2,-94.53 649.36,-87.53"/>
</g>
<!-- Node12 -->
<g id="node12" class="node">
<title>Node12</title>
<g id="a_node12"><a xlink:href="classitk_1_1Transform.html" target="_top" xlink:title=" ">
<polygon fill="white" stroke="black" points="828,-36.07 828,-66.07 959,-66.07 959,-36.07 828,-36.07"/>
<text text-anchor="start" x="836" y="-54.07" font-family="Helvetica,sans-Serif" font-size="10.00">itk::Transform&lt; double,</text>
<text text-anchor="middle" x="893.5" y="-43.07" font-family="Helvetica,sans-Serif" font-size="10.00"> 3, 3 &gt;</text>
</a>
</g>
</g>
<!-- Node6&#45;&gt;Node12 -->
<g id="edge14" class="edge">
<title>Node6&#45;&gt;Node12</title>
<path fill="none" stroke="midnightblue" d="M649.26,-79.49C696.66,-74.15 756.6,-67.34 810,-61.07 815.73,-60.39 821.69,-59.69 827.65,-58.97"/>
<polygon fill="midnightblue" stroke="midnightblue" points="648.58,-76.04 639.04,-80.64 649.36,-83 648.58,-76.04"/>
</g>
<!-- Node7 -->
<g id="node7" class="node">
<title>Node7</title>
<g id="a_node7"><a xlink:href="classitk_1_1Object.html" target="_top" xlink:title="Base class for most ITK classes.">
<polygon fill="white" stroke="black" points="128,-59.57 128,-78.57 195,-78.57 195,-59.57 128,-59.57"/>
<text text-anchor="middle" x="161.5" y="-66.57" font-family="Helvetica,sans-Serif" font-size="10.00">itk::Object</text>
</a>
</g>
</g>
<!-- Node7&#45;&gt;Node6 -->
<g id="edge6" class="edge">
<title>Node7&#45;&gt;Node6</title>
<path fill="none" stroke="midnightblue" d="M205.21,-75.29C207.84,-75.58 210.45,-75.84 213,-76.07 306.79,-84.29 415.22,-87.32 485.9,-88.43"/>
<polygon fill="midnightblue" stroke="midnightblue" points="205.39,-71.79 195.04,-74.07 204.55,-78.74 205.39,-71.79"/>
</g>
<!-- Node9 -->
<g id="node9" class="node">
<title>Node9</title>
<g id="a_node9"><a xlink:href="classitk_1_1TransformBaseTemplate.html" target="_top" xlink:title=" ">
<polygon fill="white" stroke="black" points="232,-32.07 232,-62.07 385,-62.07 385,-32.07 232,-32.07"/>
<text text-anchor="start" x="240" y="-50.07" font-family="Helvetica,sans-Serif" font-size="10.00">itk::TransformBaseTemplate</text>
<text text-anchor="middle" x="308.5" y="-39.07" font-family="Helvetica,sans-Serif" font-size="10.00">&lt; TParametersValueType &gt;</text>
</a>
</g>
</g>
<!-- Node7&#45;&gt;Node9 -->
<g id="edge9" class="edge">
<title>Node7&#45;&gt;Node9</title>
<path fill="none" stroke="midnightblue" d="M205.01,-62.62C213.48,-61.33 222.62,-59.94 231.82,-58.55"/>
<polygon fill="midnightblue" stroke="midnightblue" points="204.4,-59.17 195.04,-64.13 205.45,-66.09 204.4,-59.17"/>
</g>
<!-- Node8 -->
<g id="node8" class="node">
<title>Node8</title>
<g id="a_node8"><a xlink:href="classitk_1_1LightObject.html" target="_top" xlink:title="Light weight base class for most itk classes.">
<polygon fill="white" stroke="black" points="0,-59.57 0,-78.57 91,-78.57 91,-59.57 0,-59.57"/>
<text text-anchor="middle" x="45.5" y="-66.57" font-family="Helvetica,sans-Serif" font-size="10.00">itk::LightObject</text>
</a>
</g>
</g>
<!-- Node8&#45;&gt;Node7 -->
<g id="edge7" class="edge">
<title>Node8&#45;&gt;Node7</title>
<path fill="none" stroke="midnightblue" d="M101.39,-69.07C110.45,-69.07 119.59,-69.07 127.88,-69.07"/>
<polygon fill="midnightblue" stroke="midnightblue" points="101.23,-65.57 91.23,-69.07 101.23,-72.57 101.23,-65.57"/>
</g>
<!-- Node9&#45;&gt;Node6 -->
<g id="edge8" class="edge">
<title>Node9&#45;&gt;Node6</title>
<path fill="none" stroke="orange" stroke-dasharray="5,2" d="M395.56,-56.21C417.31,-58.96 440.57,-62.26 462,-66.07 474.66,-68.31 488.12,-71.13 500.93,-74.02"/>
<polygon fill="orange" stroke="orange" points="395.71,-52.71 385.36,-54.95 394.86,-59.65 395.71,-52.71"/>
<text text-anchor="middle" x="432.5" y="-69.07" font-family="Helvetica,sans-Serif" font-size="10.00"> &lt; double &gt;</text>
</g>
<!-- Node10 -->
<g id="node10" class="node">
<title>Node10</title>
<g id="a_node10"><a xlink:href="classitk_1_1Transform.html" target="_top" xlink:title="Transform points and vectors from an input space to an output space.">
<polygon fill="white" stroke="black" points="480,-11.57 480,-52.57 645,-52.57 645,-11.57 480,-11.57"/>
<text text-anchor="start" x="488" y="-40.57" font-family="Helvetica,sans-Serif" font-size="10.00">itk::Transform&lt; TParameters</text>
<text text-anchor="start" x="488" y="-29.57" font-family="Helvetica,sans-Serif" font-size="10.00">ValueType, NInputDimensions,</text>
<text text-anchor="middle" x="562.5" y="-18.57" font-family="Helvetica,sans-Serif" font-size="10.00"> NOutputDimensions &gt;</text>
</a>
</g>
</g>
<!-- Node9&#45;&gt;Node10 -->
<g id="edge11" class="edge">
<title>Node9&#45;&gt;Node10</title>
<path fill="none" stroke="midnightblue" d="M395.42,-41.95C422.71,-40.33 452.81,-38.54 479.8,-36.93"/>
<polygon fill="midnightblue" stroke="midnightblue" points="394.88,-38.48 385.11,-42.57 395.3,-45.47 394.88,-38.48"/>
</g>
<!-- Node10&#45;&gt;Node5 -->
<g id="edge10" class="edge">
<title>Node10&#45;&gt;Node5</title>
<path fill="none" stroke="orange" stroke-dasharray="5,2" d="M655.22,-13.89C657.84,-13.59 660.43,-13.31 663,-13.07 794.1,-0.66 833.43,13.6 959,-26.07 1001.12,-39.37 1044.4,-68.08 1068.73,-85.87"/>
<polygon fill="orange" stroke="orange" points="654.51,-10.46 645.04,-15.22 655.41,-17.4 654.51,-10.46"/>
<text text-anchor="start" x="663" y="-27.07" font-family="Helvetica,sans-Serif" font-size="10.00"> &lt; double, NInputDimensions,</text>
<text text-anchor="middle" x="736.5" y="-16.07" font-family="Helvetica,sans-Serif" font-size="10.00"> NOutputDimensions &gt;</text>
</g>
<!-- Node10&#45;&gt;Node12 -->
<g id="edge15" class="edge">
<title>Node10&#45;&gt;Node12</title>
<path fill="none" stroke="orange" stroke-dasharray="5,2" d="M655.34,-37.37C710.27,-40.54 778.73,-44.5 827.96,-47.34"/>
<polygon fill="orange" stroke="orange" points="655.43,-33.87 645.25,-36.79 655.03,-40.86 655.43,-33.87"/>
<text text-anchor="middle" x="736.5" y="-49.07" font-family="Helvetica,sans-Serif" font-size="10.00"> &lt; double, 3, 3 &gt;</text>
</g>
<!-- Node11 -->
<g id="node11" class="node">
<title>Node11</title>
<g id="a_node11"><a xlink:href="classitk_1_1MatrixOffsetTransformBase.html" target="_top" xlink:title="Matrix and Offset transformation of a vector space (e.g. space coordinates)">
<polygon fill="white" stroke="black" points="1220,-30.57 1220,-71.57 1445,-71.57 1445,-30.57 1220,-30.57"/>
<text text-anchor="start" x="1228" y="-59.57" font-family="Helvetica,sans-Serif" font-size="10.00">itk::MatrixOffsetTransform</text>
<text text-anchor="start" x="1228" y="-48.57" font-family="Helvetica,sans-Serif" font-size="10.00">Base&lt; TParametersValueType,</text>
<text text-anchor="middle" x="1332.5" y="-37.57" font-family="Helvetica,sans-Serif" font-size="10.00"> NInputDimensions, NOutputDimensions &gt;</text>
</a>
</g>
</g>
<!-- Node11&#45;&gt;Node4 -->
<g id="edge12" class="edge">
<title>Node11&#45;&gt;Node4</title>
<path fill="none" stroke="orange" stroke-dasharray="5,2" d="M1455.09,-55.11C1551.29,-58.31 1682.8,-62.69 1765.69,-65.44"/>
<polygon fill="orange" stroke="orange" points="1455.12,-51.61 1445.01,-54.78 1454.89,-58.61 1455.12,-51.61"/>
<text text-anchor="start" x="1463" y="-74.07" font-family="Helvetica,sans-Serif" font-size="10.00"> &lt; double, NDimensions,</text>
<text text-anchor="middle" x="1524" y="-63.07" font-family="Helvetica,sans-Serif" font-size="10.00"> NDimensions &gt;</text>
</g>
<!-- Node11&#45;&gt;Node14 -->
<g id="edge19" class="edge">
<title>Node11&#45;&gt;Node14</title>
<path fill="none" stroke="orange" stroke-dasharray="5,2" d="M1425.3,-74.06C1473.07,-86.31 1532.34,-101.93 1585,-117.07 1598.93,-121.07 1613.99,-125.67 1627.71,-129.98"/>
<polygon fill="orange" stroke="orange" points="1426.15,-70.67 1415.6,-71.58 1424.42,-77.45 1426.15,-70.67"/>
<text text-anchor="middle" x="1524" y="-120.07" font-family="Helvetica,sans-Serif" font-size="10.00"> &lt; double, 3, 3 &gt;</text>
</g>
<!-- Node12&#45;&gt;Node11 -->
<g id="edge13" class="edge">
<title>Node12&#45;&gt;Node11</title>
<path fill="none" stroke="midnightblue" d="M969.78,-51.07C1038.67,-51.07 1141.49,-51.07 1219.92,-51.07"/>
<polygon fill="midnightblue" stroke="midnightblue" points="969.45,-47.57 959.45,-51.07 969.45,-54.57 969.45,-47.57"/>
</g>
<!-- Node13 -->
<g id="node13" class="node">
<title>Node13</title>
<g id="a_node13"><a xlink:href="classitk_1_1AffineTransform.html" target="_top" xlink:title=" ">
<polygon fill="white" stroke="black" points="1943,-124.57 1943,-165.57 2085,-165.57 2085,-124.57 1943,-124.57"/>
<text text-anchor="start" x="1951" y="-153.57" font-family="Helvetica,sans-Serif" font-size="10.00">itk::AffineTransform</text>
<text text-anchor="start" x="1951" y="-142.57" font-family="Helvetica,sans-Serif" font-size="10.00">&lt; TParametersValueType,</text>
<text text-anchor="middle" x="2014" y="-131.57" font-family="Helvetica,sans-Serif" font-size="10.00"> NDimensions &gt;</text>
</a>
</g>
</g>
<!-- Node13&#45;&gt;Node3 -->
<g id="edge16" class="edge">
<title>Node13&#45;&gt;Node3</title>
<path fill="none" stroke="orange" stroke-dasharray="5,2" d="M2095.45,-140.43C2136.6,-138.01 2187.48,-134.97 2233,-132.07 2238.84,-131.69 2244.9,-131.3 2250.98,-130.9"/>
<polygon fill="orange" stroke="orange" points="2094.98,-136.95 2085.21,-141.03 2095.39,-143.93 2094.98,-136.95"/>
<text text-anchor="middle" x="2168" y="-142.07" font-family="Helvetica,sans-Serif" font-size="10.00"> &lt; double, NDimensions &gt;</text>
</g>
<!-- Node13&#45;&gt;Node16 -->
<g id="edge23" class="edge">
<title>Node13&#45;&gt;Node16</title>
<path fill="none" stroke="orange" stroke-dasharray="5,2" d="M2091.97,-121.86C2095.69,-120.88 2099.38,-119.95 2103,-119.07 2157.99,-105.69 2221.6,-93.87 2265.95,-86.2"/>
<polygon fill="orange" stroke="orange" points="2090.83,-118.54 2082.08,-124.51 2092.65,-125.3 2090.83,-118.54"/>
<text text-anchor="middle" x="2168" y="-122.07" font-family="Helvetica,sans-Serif" font-size="10.00"> &lt; double, 3 &gt;</text>
</g>
<!-- Node14&#45;&gt;Node13 -->
<g id="edge17" class="edge">
<title>Node14&#45;&gt;Node13</title>
<path fill="none" stroke="midnightblue" d="M1758.59,-145.07C1815,-145.07 1889.11,-145.07 1942.78,-145.07"/>
<polygon fill="midnightblue" stroke="midnightblue" points="1758.27,-141.57 1748.27,-145.07 1758.27,-148.57 1758.27,-141.57"/>
</g>
<!-- Node15 -->
<g id="node15" class="node">
<title>Node15</title>
<g id="a_node15"><a xlink:href="classitk_1_1ScalableAffineTransform.html" target="_top" xlink:title="Affine transformation with a specified center of rotation.">
<polygon fill="white" stroke="black" points="2431,-65.07 2431,-95.07 2652,-95.07 2652,-65.07 2431,-65.07"/>
<text text-anchor="start" x="2439" y="-83.07" font-family="Helvetica,sans-Serif" font-size="10.00">itk::ScalableAffineTransform</text>
<text text-anchor="middle" x="2541.5" y="-72.07" font-family="Helvetica,sans-Serif" font-size="10.00">&lt; TParametersValueType, NDimensions &gt;</text>
</a>
</g>
</g>
<!-- Node15&#45;&gt;Node2 -->
<g id="edge20" class="edge">
<title>Node15&#45;&gt;Node2</title>
<path fill="none" stroke="orange" stroke-dasharray="5,2" d="M2662.31,-89.49C2694.93,-92.05 2729.36,-94.76 2758.83,-97.08"/>
<polygon fill="orange" stroke="orange" points="2662.49,-85.99 2652.25,-88.7 2661.94,-92.97 2662.49,-85.99"/>
<text text-anchor="middle" x="2705.5" y="-99.07" font-family="Helvetica,sans-Serif" font-size="10.00"> &lt; double, 3 &gt;</text>
</g>
<!-- Node16&#45;&gt;Node15 -->
<g id="edge21" class="edge">
<title>Node16&#45;&gt;Node15</title>
<path fill="none" stroke="midnightblue" d="M2389.36,-77.98C2402.44,-78.16 2416.5,-78.35 2430.59,-78.55"/>
<polygon fill="midnightblue" stroke="midnightblue" points="2389.15,-74.47 2379.1,-77.84 2389.05,-81.47 2389.15,-74.47"/>
</g>
</g>
</svg>
