<?xml version="1.0" encoding="UTF-8" standalone="no"?>
<!DOCTYPE svg PUBLIC "-//W3C//DTD SVG 1.1//EN"
 "http://www.w3.org/Graphics/SVG/1.1/DTD/svg11.dtd">
<!-- Generated by graphviz version 2.43.0 (0)
 -->
<!-- Title: itk::ShapeSignedDistanceFunction&lt; TCoordRep, VSpaceDimension &gt; Pages: 1 -->
<svg width="2833pt" height="376pt"
 viewBox="0.00 0.00 2833.00 375.50" xmlns="http://www.w3.org/2000/svg" xmlns:xlink="http://www.w3.org/1999/xlink">
<g id="graph0" class="graph" transform="scale(1 1) rotate(0) translate(4 371.5)">
<title>itk::ShapeSignedDistanceFunction&lt; TCoordRep, VSpaceDimension &gt;</title>
<polygon fill="white" stroke="transparent" points="-4,4 -4,-371.5 2829,-371.5 2829,4 -4,4"/>
<!-- Node1 -->
<g id="node1" class="node">
<title>Node1</title>
<g id="a_node1"><a xlink:title="Base class for functions which evaluates the signed distance from a shape.">
<polygon fill="#bfbfbf" stroke="black" points="2598,-121.5 2598,-151.5 2825,-151.5 2825,-121.5 2598,-121.5"/>
<text text-anchor="start" x="2606" y="-139.5" font-family="Helvetica,sans-Serif" font-size="10.00">itk::ShapeSignedDistance</text>
<text text-anchor="middle" x="2711.5" y="-128.5" font-family="Helvetica,sans-Serif" font-size="10.00">Function&lt; TCoordRep, VSpaceDimension &gt;</text>
</a>
</g>
</g>
<!-- Node2 -->
<g id="node2" class="node">
<title>Node2</title>
<g id="a_node2"><a xlink:href="classitk_1_1SpatialFunction.html" target="_top" xlink:title=" ">
<polygon fill="white" stroke="black" points="2336,-159 2336,-200 2561,-200 2561,-159 2336,-159"/>
<text text-anchor="start" x="2344" y="-188" font-family="Helvetica,sans-Serif" font-size="10.00">itk::SpatialFunction</text>
<text text-anchor="start" x="2344" y="-177" font-family="Helvetica,sans-Serif" font-size="10.00">&lt; double, VSpaceDimension,</text>
<text text-anchor="middle" x="2448.5" y="-166" font-family="Helvetica,sans-Serif" font-size="10.00"> Point&lt; TCoordRep, VSpaceDimension &gt; &gt;</text>
</a>
</g>
</g>
<!-- Node2&#45;&gt;Node1 -->
<g id="edge1" class="edge">
<title>Node2&#45;&gt;Node1</title>
<path fill="none" stroke="midnightblue" d="M2571.35,-159.42C2587.51,-156.76 2603.84,-154.07 2619.36,-151.52"/>
<polygon fill="midnightblue" stroke="midnightblue" points="2570.62,-156 2561.32,-161.08 2571.76,-162.9 2570.62,-156"/>
</g>
<!-- Node3 -->
<g id="node3" class="node">
<title>Node3</title>
<g id="a_node3"><a xlink:href="classitk_1_1FunctionBase.html" target="_top" xlink:title=" ">
<polygon fill="white" stroke="black" points="1612,-222 1612,-263 1815,-263 1815,-222 1612,-222"/>
<text text-anchor="start" x="1620" y="-251" font-family="Helvetica,sans-Serif" font-size="10.00">itk::FunctionBase&lt;</text>
<text text-anchor="start" x="1620" y="-240" font-family="Helvetica,sans-Serif" font-size="10.00"> Point&lt; TCoordRep, VSpaceDimension</text>
<text text-anchor="middle" x="1713.5" y="-229" font-family="Helvetica,sans-Serif" font-size="10.00"> &gt;, double &gt;</text>
</a>
</g>
</g>
<!-- Node3&#45;&gt;Node2 -->
<g id="edge2" class="edge">
<title>Node3&#45;&gt;Node2</title>
<path fill="none" stroke="midnightblue" d="M1825.06,-240.26C1946.41,-236.74 2146.77,-227.83 2318,-205.5 2329.37,-204.02 2341.24,-202.12 2352.98,-200.03"/>
<polygon fill="midnightblue" stroke="midnightblue" points="1824.91,-236.76 1815.01,-240.54 1825.11,-243.76 1824.91,-236.76"/>
</g>
<!-- Node4 -->
<g id="node4" class="node">
<title>Node4</title>
<g id="a_node4"><a xlink:href="classitk_1_1Object.html" target="_top" xlink:title="Base class for most ITK classes.">
<polygon fill="white" stroke="black" points="1221,-235 1221,-254 1288,-254 1288,-235 1221,-235"/>
<text text-anchor="middle" x="1254.5" y="-242" font-family="Helvetica,sans-Serif" font-size="10.00">itk::Object</text>
</a>
</g>
</g>
<!-- Node4&#45;&gt;Node3 -->
<g id="edge3" class="edge">
<title>Node4&#45;&gt;Node3</title>
<path fill="none" stroke="midnightblue" d="M1297.99,-255.22C1317.13,-259.68 1340.08,-264.49 1361,-267.5 1463.58,-282.24 1491.38,-290.93 1594,-276.5 1613.6,-273.74 1634.51,-268.54 1653.22,-263.02"/>
<polygon fill="midnightblue" stroke="midnightblue" points="1298.61,-251.77 1288.07,-252.87 1296.99,-258.58 1298.61,-251.77"/>
</g>
<!-- Node17 -->
<g id="node17" class="node">
<title>Node17</title>
<g id="a_node17"><a xlink:href="classitk_1_1FunctionBase.html" target="_top" xlink:title="Base class for all ITK function objects.">
<polygon fill="white" stroke="black" points="1361,-227.5 1361,-257.5 1470,-257.5 1470,-227.5 1361,-227.5"/>
<text text-anchor="start" x="1369" y="-245.5" font-family="Helvetica,sans-Serif" font-size="10.00">itk::FunctionBase&lt;</text>
<text text-anchor="middle" x="1415.5" y="-234.5" font-family="Helvetica,sans-Serif" font-size="10.00"> TInput, TOutput &gt;</text>
</a>
</g>
</g>
<!-- Node4&#45;&gt;Node17 -->
<g id="edge20" class="edge">
<title>Node4&#45;&gt;Node17</title>
<path fill="none" stroke="midnightblue" d="M1298.31,-243.96C1317.51,-243.72 1340.36,-243.43 1360.7,-243.18"/>
<polygon fill="midnightblue" stroke="midnightblue" points="1298.01,-240.46 1288.06,-244.09 1298.1,-247.46 1298.01,-240.46"/>
</g>
<!-- Node19 -->
<g id="node19" class="node">
<title>Node19</title>
<g id="a_node19"><a xlink:href="classitk_1_1FunctionBase.html" target="_top" xlink:title=" ">
<polygon fill="white" stroke="black" points="1656,-159 1656,-200 1771,-200 1771,-159 1656,-159"/>
<text text-anchor="start" x="1664" y="-188" font-family="Helvetica,sans-Serif" font-size="10.00">itk::FunctionBase&lt;</text>
<text text-anchor="start" x="1664" y="-177" font-family="Helvetica,sans-Serif" font-size="10.00"> Point&lt; double, 3 &gt;,</text>
<text text-anchor="middle" x="1713.5" y="-166" font-family="Helvetica,sans-Serif" font-size="10.00"> TOutput &gt;</text>
</a>
</g>
</g>
<!-- Node4&#45;&gt;Node19 -->
<g id="edge23" class="edge">
<title>Node4&#45;&gt;Node19</title>
<path fill="none" stroke="midnightblue" d="M1298.17,-233.65C1317.34,-228.87 1340.27,-223.26 1361,-218.5 1417.24,-205.59 1430.79,-199.06 1488,-191.5 1544.88,-183.98 1610.46,-181.14 1656,-180.08"/>
<polygon fill="midnightblue" stroke="midnightblue" points="1297.07,-230.32 1288.23,-236.15 1298.78,-237.11 1297.07,-230.32"/>
</g>
<!-- Node5 -->
<g id="node5" class="node">
<title>Node5</title>
<g id="a_node5"><a xlink:href="classitk_1_1LightObject.html" target="_top" xlink:title="Light weight base class for most itk classes.">
<polygon fill="white" stroke="black" points="911.5,-235 911.5,-254 1002.5,-254 1002.5,-235 911.5,-235"/>
<text text-anchor="middle" x="957" y="-242" font-family="Helvetica,sans-Serif" font-size="10.00">itk::LightObject</text>
</a>
</g>
</g>
<!-- Node5&#45;&gt;Node4 -->
<g id="edge4" class="edge">
<title>Node5&#45;&gt;Node4</title>
<path fill="none" stroke="midnightblue" d="M1012.79,-244.5C1073.9,-244.5 1170.73,-244.5 1220.93,-244.5"/>
<polygon fill="midnightblue" stroke="midnightblue" points="1012.56,-241 1002.56,-244.5 1012.56,-248 1012.56,-241"/>
</g>
<!-- Node6 -->
<g id="node6" class="node">
<title>Node6</title>
<g id="a_node6"><a xlink:title=" ">
<polygon fill="white" stroke="#bfbfbf" points="610.5,-241 610.5,-260 717.5,-260 717.5,-241 610.5,-241"/>
<text text-anchor="middle" x="664" y="-248" font-family="Helvetica,sans-Serif" font-size="10.00">std::atomic&lt; int &gt;</text>
</a>
</g>
</g>
<!-- Node6&#45;&gt;Node5 -->
<g id="edge5" class="edge">
<title>Node6&#45;&gt;Node5</title>
<path fill="none" stroke="#9a32cd" stroke-dasharray="5,2" d="M727.73,-249.21C783.03,-248.07 862.23,-246.43 911.32,-245.42"/>
<polygon fill="#9a32cd" stroke="#9a32cd" points="727.62,-245.71 717.7,-249.41 727.77,-252.71 727.62,-245.71"/>
<text text-anchor="middle" x="815.5" y="-250.5" font-family="Helvetica,sans-Serif" font-size="10.00"> m_ReferenceCount</text>
</g>
<!-- Node7 -->
<g id="node7" class="node">
<title>Node7</title>
<g id="a_node7"><a xlink:title="STL class.">
<polygon fill="white" stroke="#bfbfbf" points="241.5,-246 241.5,-265 341.5,-265 341.5,-246 241.5,-246"/>
<text text-anchor="middle" x="291.5" y="-253" font-family="Helvetica,sans-Serif" font-size="10.00">std::atomic&lt; T &gt;</text>
</a>
</g>
</g>
<!-- Node7&#45;&gt;Node6 -->
<g id="edge6" class="edge">
<title>Node7&#45;&gt;Node6</title>
<path fill="none" stroke="orange" stroke-dasharray="5,2" d="M351.88,-254.7C423.28,-253.74 542.02,-252.13 610.3,-251.21"/>
<polygon fill="orange" stroke="orange" points="351.65,-251.2 341.7,-254.84 351.75,-258.2 351.65,-251.2"/>
<text text-anchor="middle" x="477" y="-256.5" font-family="Helvetica,sans-Serif" font-size="10.00"> &lt; int &gt;</text>
</g>
<!-- Node16 -->
<g id="node16" class="node">
<title>Node16</title>
<g id="a_node16"><a xlink:href="classitk_1_1TimeStamp.html" target="_top" xlink:title="Generate a unique, increasing time value.">
<polygon fill="white" stroke="black" points="769.5,-280 769.5,-299 861.5,-299 861.5,-280 769.5,-280"/>
<text text-anchor="middle" x="815.5" y="-287" font-family="Helvetica,sans-Serif" font-size="10.00">itk::TimeStamp</text>
</a>
</g>
</g>
<!-- Node7&#45;&gt;Node16 -->
<g id="edge18" class="edge">
<title>Node7&#45;&gt;Node16</title>
<path fill="none" stroke="#9a32cd" stroke-dasharray="5,2" d="M351.7,-262.52C365.26,-263.98 379.62,-265.4 393,-266.5 529.77,-277.71 691.97,-284.83 769.22,-287.84"/>
<polygon fill="#9a32cd" stroke="#9a32cd" points="351.84,-259.02 341.52,-261.41 351.08,-265.98 351.84,-259.02"/>
<text text-anchor="middle" x="477" y="-280.5" font-family="Helvetica,sans-Serif" font-size="10.00"> m_GlobalTimeStamp</text>
</g>
<!-- Node8 -->
<g id="node8" class="node">
<title>Node8</title>
<g id="a_node8"><a xlink:title=" ">
<polygon fill="white" stroke="#bfbfbf" points="47,-263 47,-282 76,-282 76,-263 47,-263"/>
<text text-anchor="middle" x="61.5" y="-270" font-family="Helvetica,sans-Serif" font-size="10.00">T</text>
</a>
</g>
</g>
<!-- Node8&#45;&gt;Node7 -->
<g id="edge7" class="edge">
<title>Node8&#45;&gt;Node7</title>
<path fill="none" stroke="#9a32cd" stroke-dasharray="5,2" d="M86.06,-266.45C101.55,-262.78 122.34,-258.45 141,-256.5 174.3,-253.03 212,-252.8 241.21,-253.43"/>
<polygon fill="#9a32cd" stroke="#9a32cd" points="85.15,-263.07 76.27,-268.85 86.82,-269.87 85.15,-263.07"/>
<text text-anchor="middle" x="165.5" y="-259.5" font-family="Helvetica,sans-Serif" font-size="10.00"> ptr</text>
</g>
<!-- Node13 -->
<g id="node13" class="node">
<title>Node13</title>
<g id="a_node13"><a xlink:title="STL class.">
<polygon fill="white" stroke="#bfbfbf" points="241,-347 241,-366 342,-366 342,-347 241,-347"/>
<text text-anchor="middle" x="291.5" y="-354" font-family="Helvetica,sans-Serif" font-size="10.00">std::map&lt; K, T &gt;</text>
</a>
</g>
</g>
<!-- Node8&#45;&gt;Node13 -->
<g id="edge14" class="edge">
<title>Node8&#45;&gt;Node13</title>
<path fill="none" stroke="#9a32cd" stroke-dasharray="5,2" d="M85.51,-281.01C101.16,-286.79 122.33,-294.62 141,-301.5 184.33,-317.48 234.75,-336.01 264.57,-346.97"/>
<polygon fill="#9a32cd" stroke="#9a32cd" points="86.71,-277.72 76.11,-277.53 84.28,-284.29 86.71,-277.72"/>
<text text-anchor="middle" x="165.5" y="-320.5" font-family="Helvetica,sans-Serif" font-size="10.00"> elements</text>
</g>
<!-- Node15 -->
<g id="node15" class="node">
<title>Node15</title>
<g id="a_node15"><a xlink:title="STL class.">
<polygon fill="white" stroke="#bfbfbf" points="232.5,-296 232.5,-315 350.5,-315 350.5,-296 232.5,-296"/>
<text text-anchor="middle" x="291.5" y="-303" font-family="Helvetica,sans-Serif" font-size="10.00">std::shared_ptr&lt; T &gt;</text>
</a>
</g>
</g>
<!-- Node8&#45;&gt;Node15 -->
<g id="edge16" class="edge">
<title>Node8&#45;&gt;Node15</title>
<path fill="none" stroke="#9a32cd" stroke-dasharray="5,2" d="M86.18,-275.79C111.79,-279.35 153.8,-285.24 190,-290.5 203.7,-292.49 218.45,-294.67 232.32,-296.74"/>
<polygon fill="#9a32cd" stroke="#9a32cd" points="86.67,-272.32 76.28,-274.41 85.7,-279.25 86.67,-272.32"/>
<text text-anchor="middle" x="165.5" y="-293.5" font-family="Helvetica,sans-Serif" font-size="10.00"> ptr</text>
</g>
<!-- Node27 -->
<g id="node27" class="node">
<title>Node27</title>
<g id="a_node27"><a xlink:title="STL class.">
<polygon fill="white" stroke="#bfbfbf" points="232.5,-50 232.5,-69 350.5,-69 350.5,-50 232.5,-50"/>
<text text-anchor="middle" x="291.5" y="-57" font-family="Helvetica,sans-Serif" font-size="10.00">std::unique_ptr&lt; T &gt;</text>
</a>
</g>
</g>
<!-- Node8&#45;&gt;Node27 -->
<g id="edge33" class="edge">
<title>Node8&#45;&gt;Node27</title>
<path fill="none" stroke="#9a32cd" stroke-dasharray="5,2" d="M73.98,-254.06C101.61,-210.24 172.16,-101.82 208,-78.5 215.39,-73.69 223.85,-70.09 232.47,-67.4"/>
<polygon fill="#9a32cd" stroke="#9a32cd" points="70.97,-252.27 68.62,-262.6 76.9,-255.99 70.97,-252.27"/>
<text text-anchor="middle" x="165.5" y="-157.5" font-family="Helvetica,sans-Serif" font-size="10.00"> ptr</text>
</g>
<!-- Node9 -->
<g id="node9" class="node">
<title>Node9</title>
<g id="a_node9"><a xlink:title="STL class.">
<polygon fill="white" stroke="#bfbfbf" points="924.5,-197 924.5,-216 989.5,-216 989.5,-197 924.5,-197"/>
<text text-anchor="middle" x="957" y="-204" font-family="Helvetica,sans-Serif" font-size="10.00">std::string</text>
</a>
</g>
</g>
<!-- Node9&#45;&gt;Node4 -->
<g id="edge8" class="edge">
<title>Node9&#45;&gt;Node4</title>
<path fill="none" stroke="#9a32cd" stroke-dasharray="5,2" d="M999.78,-210.33C1042.03,-214.38 1109.19,-221.31 1167,-229.5 1184.81,-232.02 1204.58,-235.41 1220.72,-238.32"/>
<polygon fill="#9a32cd" stroke="#9a32cd" points="999.88,-206.82 989.59,-209.36 999.21,-213.79 999.88,-206.82"/>
<text text-anchor="middle" x="1108.5" y="-232.5" font-family="Helvetica,sans-Serif" font-size="10.00"> m_ObjectName</text>
</g>
<!-- Node10 -->
<g id="node10" class="node">
<title>Node10</title>
<g id="a_node10"><a xlink:title="STL class.">
<polygon fill="white" stroke="#bfbfbf" points="612,-191.5 612,-221.5 716,-221.5 716,-191.5 612,-191.5"/>
<text text-anchor="start" x="620" y="-209.5" font-family="Helvetica,sans-Serif" font-size="10.00">std::basic_string&lt;</text>
<text text-anchor="middle" x="664" y="-198.5" font-family="Helvetica,sans-Serif" font-size="10.00"> char &gt;</text>
</a>
</g>
</g>
<!-- Node10&#45;&gt;Node9 -->
<g id="edge9" class="edge">
<title>Node10&#45;&gt;Node9</title>
<path fill="none" stroke="midnightblue" d="M726.22,-206.5C786.76,-206.5 877.01,-206.5 924.37,-206.5"/>
<polygon fill="midnightblue" stroke="midnightblue" points="726.02,-203 716.02,-206.5 726.02,-210 726.02,-203"/>
</g>
<!-- Node11 -->
<g id="node11" class="node">
<title>Node11</title>
<g id="a_node11"><a xlink:href="classitk_1_1MetaDataDictionary.html" target="_top" xlink:title="Provides a mechanism for storing a collection of arbitrary data types.">
<polygon fill="white" stroke="black" points="890,-321 890,-340 1024,-340 1024,-321 890,-321"/>
<text text-anchor="middle" x="957" y="-328" font-family="Helvetica,sans-Serif" font-size="10.00">itk::MetaDataDictionary</text>
</a>
</g>
</g>
<!-- Node11&#45;&gt;Node4 -->
<g id="edge10" class="edge">
<title>Node11&#45;&gt;Node4</title>
<path fill="none" stroke="#9a32cd" stroke-dasharray="5,2" d="M1034.53,-329.75C1075.04,-327.19 1124.97,-320.57 1167,-304.5 1197.73,-292.75 1228.01,-267.86 1243.28,-254.12"/>
<polygon fill="#9a32cd" stroke="#9a32cd" points="1034.24,-326.26 1024.45,-330.31 1034.63,-333.25 1034.24,-326.26"/>
<text text-anchor="middle" x="1108.5" y="-331.5" font-family="Helvetica,sans-Serif" font-size="10.00"> m_MetaDataDictionary</text>
</g>
<!-- Node12 -->
<g id="node12" class="node">
<title>Node12</title>
<g id="a_node12"><a xlink:title=" ">
<polygon fill="white" stroke="#bfbfbf" points="589.5,-317.5 589.5,-347.5 738.5,-347.5 738.5,-317.5 589.5,-317.5"/>
<text text-anchor="start" x="597.5" y="-335.5" font-family="Helvetica,sans-Serif" font-size="10.00">std::shared_ptr&lt; MetaData</text>
<text text-anchor="middle" x="664" y="-324.5" font-family="Helvetica,sans-Serif" font-size="10.00">DictionaryMapType &gt;</text>
</a>
</g>
</g>
<!-- Node12&#45;&gt;Node11 -->
<g id="edge11" class="edge">
<title>Node12&#45;&gt;Node11</title>
<path fill="none" stroke="#9a32cd" stroke-dasharray="5,2" d="M749.08,-331.92C793.8,-331.61 848.01,-331.24 889.73,-330.96"/>
<polygon fill="#9a32cd" stroke="#9a32cd" points="748.78,-328.42 738.81,-331.99 748.83,-335.42 748.78,-328.42"/>
<text text-anchor="middle" x="815.5" y="-334.5" font-family="Helvetica,sans-Serif" font-size="10.00"> m_Dictionary</text>
</g>
<!-- Node13&#45;&gt;Node12 -->
<g id="edge12" class="edge">
<title>Node13&#45;&gt;Node12</title>
<path fill="none" stroke="#9a32cd" stroke-dasharray="5,2" d="M352.11,-352.64C416.71,-348.45 519.86,-341.77 589.45,-337.26"/>
<polygon fill="#9a32cd" stroke="#9a32cd" points="351.84,-349.15 342.08,-353.29 352.29,-356.13 351.84,-349.15"/>
<text text-anchor="middle" x="477" y="-351.5" font-family="Helvetica,sans-Serif" font-size="10.00"> ptr</text>
</g>
<!-- Node14 -->
<g id="node14" class="node">
<title>Node14</title>
<g id="a_node14"><a xlink:title=" ">
<polygon fill="white" stroke="#bfbfbf" points="47,-348 47,-367 76,-367 76,-348 47,-348"/>
<text text-anchor="middle" x="61.5" y="-355" font-family="Helvetica,sans-Serif" font-size="10.00">K</text>
</a>
</g>
</g>
<!-- Node14&#45;&gt;Node13 -->
<g id="edge13" class="edge">
<title>Node14&#45;&gt;Node13</title>
<path fill="none" stroke="#9a32cd" stroke-dasharray="5,2" d="M86.22,-357.4C122.63,-357.24 193.08,-356.93 240.95,-356.72"/>
<polygon fill="#9a32cd" stroke="#9a32cd" points="86.06,-353.9 76.08,-357.44 86.09,-360.9 86.06,-353.9"/>
<text text-anchor="middle" x="165.5" y="-359.5" font-family="Helvetica,sans-Serif" font-size="10.00"> keys</text>
</g>
<!-- Node15&#45;&gt;Node12 -->
<g id="edge15" class="edge">
<title>Node15&#45;&gt;Node12</title>
<path fill="none" stroke="orange" stroke-dasharray="5,2" d="M360.84,-310.19C415.11,-313.95 492.92,-319.42 561,-324.5 570.21,-325.19 579.89,-325.93 589.46,-326.67"/>
<polygon fill="orange" stroke="orange" points="360.86,-306.69 350.65,-309.49 360.38,-313.67 360.86,-306.69"/>
<text text-anchor="middle" x="477" y="-327.5" font-family="Helvetica,sans-Serif" font-size="10.00"> &lt; MetaDataDictionaryMapType &gt;</text>
</g>
<!-- Node16&#45;&gt;Node4 -->
<g id="edge17" class="edge">
<title>Node16&#45;&gt;Node4</title>
<path fill="none" stroke="#9a32cd" stroke-dasharray="5,2" d="M871.94,-285.84C941.14,-280.98 1063.07,-271.49 1167,-258.5 1184.81,-256.27 1204.58,-253.13 1220.72,-250.38"/>
<polygon fill="#9a32cd" stroke="#9a32cd" points="871.44,-282.37 861.7,-286.55 871.92,-289.35 871.44,-282.37"/>
<text text-anchor="middle" x="957" y="-287.5" font-family="Helvetica,sans-Serif" font-size="10.00"> m_MTime</text>
</g>
<!-- Node17&#45;&gt;Node3 -->
<g id="edge19" class="edge">
<title>Node17&#45;&gt;Node3</title>
<path fill="none" stroke="orange" stroke-dasharray="5,2" d="M1480.59,-242.5C1518.86,-242.5 1568.3,-242.5 1611.7,-242.5"/>
<polygon fill="orange" stroke="orange" points="1480.1,-239 1470.1,-242.5 1480.1,-246 1480.1,-239"/>
<text text-anchor="start" x="1488" y="-267.5" font-family="Helvetica,sans-Serif" font-size="10.00"> &lt; Point&lt; TCoordRep,</text>
<text text-anchor="start" x="1488" y="-256.5" font-family="Helvetica,sans-Serif" font-size="10.00"> VSpaceDimension &gt;,</text>
<text text-anchor="middle" x="1541" y="-245.5" font-family="Helvetica,sans-Serif" font-size="10.00"> double &gt;</text>
</g>
<!-- Node17&#45;&gt;Node19 -->
<g id="edge24" class="edge">
<title>Node17&#45;&gt;Node19</title>
<path fill="none" stroke="orange" stroke-dasharray="5,2" d="M1463.58,-223.98C1471.65,-221.22 1480.01,-218.59 1488,-216.5 1544.17,-201.79 1609.86,-191.78 1655.61,-185.91"/>
<polygon fill="orange" stroke="orange" points="1462.19,-220.77 1453.93,-227.41 1464.53,-227.36 1462.19,-220.77"/>
<text text-anchor="start" x="1493" y="-230.5" font-family="Helvetica,sans-Serif" font-size="10.00"> &lt; Point&lt; double, 3</text>
<text text-anchor="middle" x="1541" y="-219.5" font-family="Helvetica,sans-Serif" font-size="10.00"> &gt;, TOutput &gt;</text>
</g>
<!-- Node18 -->
<g id="node18" class="node">
<title>Node18</title>
<g id="a_node18"><a xlink:href="classitk_1_1SpatialFunction.html" target="_top" xlink:title="N&#45;dimensional spatial function class.">
<polygon fill="white" stroke="black" points="1925,-159 1925,-200 2091,-200 2091,-159 1925,-159"/>
<text text-anchor="start" x="1933" y="-188" font-family="Helvetica,sans-Serif" font-size="10.00">itk::SpatialFunction</text>
<text text-anchor="start" x="1933" y="-177" font-family="Helvetica,sans-Serif" font-size="10.00">&lt; TOutput, VImageDimension,</text>
<text text-anchor="middle" x="2008" y="-166" font-family="Helvetica,sans-Serif" font-size="10.00"> TInput &gt;</text>
</a>
</g>
</g>
<!-- Node18&#45;&gt;Node2 -->
<g id="edge21" class="edge">
<title>Node18&#45;&gt;Node2</title>
<path fill="none" stroke="orange" stroke-dasharray="5,2" d="M2101.55,-179.5C2169.93,-179.5 2263.35,-179.5 2335.88,-179.5"/>
<polygon fill="orange" stroke="orange" points="2101.22,-176 2091.22,-179.5 2101.22,-183 2101.22,-176"/>
<text text-anchor="start" x="2109" y="-193.5" font-family="Helvetica,sans-Serif" font-size="10.00"> &lt; double, VSpaceDimension,</text>
<text text-anchor="middle" x="2213.5" y="-182.5" font-family="Helvetica,sans-Serif" font-size="10.00"> Point&lt; TCoordRep, VSpaceDimension &gt; &gt;</text>
</g>
<!-- Node19&#45;&gt;Node18 -->
<g id="edge22" class="edge">
<title>Node19&#45;&gt;Node18</title>
<path fill="none" stroke="midnightblue" d="M1781.25,-179.5C1823.93,-179.5 1879.59,-179.5 1924.96,-179.5"/>
<polygon fill="midnightblue" stroke="midnightblue" points="1781.24,-176 1771.24,-179.5 1781.24,-183 1781.24,-176"/>
</g>
<!-- Node20 -->
<g id="node20" class="node">
<title>Node20</title>
<g id="a_node20"><a xlink:href="classitk_1_1OptimizerParameters.html" target="_top" xlink:title=" ">
<polygon fill="white" stroke="black" points="1185,-104.5 1185,-134.5 1324,-134.5 1324,-104.5 1185,-104.5"/>
<text text-anchor="start" x="1193" y="-122.5" font-family="Helvetica,sans-Serif" font-size="10.00">itk::OptimizerParameters</text>
<text text-anchor="middle" x="1254.5" y="-111.5" font-family="Helvetica,sans-Serif" font-size="10.00">&lt; double &gt;</text>
</a>
</g>
</g>
<!-- Node20&#45;&gt;Node1 -->
<g id="edge25" class="edge">
<title>Node20&#45;&gt;Node1</title>
<path fill="none" stroke="#9a32cd" stroke-dasharray="5,2" d="M1334.37,-122.96C1359.93,-123.82 1388.41,-124.5 1414.5,-124.5 1414.5,-124.5 1414.5,-124.5 2449.5,-124.5 2498.15,-124.5 2551.84,-126.61 2597.82,-129.05"/>
<polygon fill="#9a32cd" stroke="#9a32cd" points="1334.47,-119.46 1324.36,-122.61 1334.23,-126.46 1334.47,-119.46"/>
<text text-anchor="middle" x="1870" y="-127.5" font-family="Helvetica,sans-Serif" font-size="10.00"> m_Parameters</text>
</g>
<!-- Node21 -->
<g id="node21" class="node">
<title>Node21</title>
<g id="a_node21"><a xlink:href="classitk_1_1Array.html" target="_top" xlink:title=" ">
<polygon fill="white" stroke="black" points="605.5,-153 605.5,-172 722.5,-172 722.5,-153 605.5,-153"/>
<text text-anchor="middle" x="664" y="-160" font-family="Helvetica,sans-Serif" font-size="10.00">itk::Array&lt; double &gt;</text>
</a>
</g>
</g>
<!-- Node21&#45;&gt;Node20 -->
<g id="edge26" class="edge">
<title>Node21&#45;&gt;Node20</title>
<path fill="none" stroke="midnightblue" d="M733.01,-161.28C829.73,-158.96 1012.44,-152.42 1167,-134.5 1172.75,-133.83 1178.7,-133.03 1184.67,-132.16"/>
<polygon fill="midnightblue" stroke="midnightblue" points="732.7,-157.79 722.79,-161.52 732.86,-164.78 732.7,-157.79"/>
</g>
<!-- Node22 -->
<g id="node22" class="node">
<title>Node22</title>
<g id="a_node22"><a xlink:title=" ">
<polygon fill="white" stroke="#bfbfbf" points="230,-183 230,-202 353,-202 353,-183 230,-183"/>
<text text-anchor="middle" x="291.5" y="-190" font-family="Helvetica,sans-Serif" font-size="10.00">vnl_vector&lt; double &gt;</text>
</a>
</g>
</g>
<!-- Node22&#45;&gt;Node21 -->
<g id="edge27" class="edge">
<title>Node22&#45;&gt;Node21</title>
<path fill="none" stroke="midnightblue" d="M363.29,-189.25C417.49,-186.46 494.06,-181.88 561,-175.5 575.39,-174.13 590.89,-172.32 605.35,-170.5"/>
<polygon fill="midnightblue" stroke="midnightblue" points="362.91,-185.76 353.1,-189.76 363.27,-192.75 362.91,-185.76"/>
</g>
<!-- Node23 -->
<g id="node23" class="node">
<title>Node23</title>
<g id="a_node23"><a xlink:href="classitk_1_1Array.html" target="_top" xlink:title="Array class with size defined at construction time.">
<polygon fill="white" stroke="black" points="233,-143 233,-162 350,-162 350,-143 233,-143"/>
<text text-anchor="middle" x="291.5" y="-150" font-family="Helvetica,sans-Serif" font-size="10.00">itk::Array&lt; TValue &gt;</text>
</a>
</g>
</g>
<!-- Node23&#45;&gt;Node21 -->
<g id="edge28" class="edge">
<title>Node23&#45;&gt;Node21</title>
<path fill="none" stroke="orange" stroke-dasharray="5,2" d="M360.46,-154.33C430.65,-156.23 539.01,-159.15 605.21,-160.94"/>
<polygon fill="orange" stroke="orange" points="360.48,-150.83 350.39,-154.06 360.29,-157.83 360.48,-150.83"/>
<text text-anchor="middle" x="477" y="-163.5" font-family="Helvetica,sans-Serif" font-size="10.00"> &lt; double &gt;</text>
</g>
<!-- Node29 -->
<g id="node29" class="node">
<title>Node29</title>
<g id="a_node29"><a xlink:href="classitk_1_1Array.html" target="_top" xlink:title=" ">
<polygon fill="white" stroke="black" points="583.5,-103.5 583.5,-133.5 744.5,-133.5 744.5,-103.5 583.5,-103.5"/>
<text text-anchor="start" x="591.5" y="-121.5" font-family="Helvetica,sans-Serif" font-size="10.00">itk::Array&lt; TParametersValue</text>
<text text-anchor="middle" x="664" y="-110.5" font-family="Helvetica,sans-Serif" font-size="10.00">Type &gt;</text>
</a>
</g>
</g>
<!-- Node23&#45;&gt;Node29 -->
<g id="edge37" class="edge">
<title>Node23&#45;&gt;Node29</title>
<path fill="none" stroke="orange" stroke-dasharray="5,2" d="M360.11,-144.07C371.1,-142.81 382.36,-141.57 393,-140.5 456.99,-134.07 529.66,-128.24 583.48,-124.19"/>
<polygon fill="orange" stroke="orange" points="359.65,-140.6 350.12,-145.24 360.46,-147.56 359.65,-140.6"/>
<text text-anchor="middle" x="477" y="-143.5" font-family="Helvetica,sans-Serif" font-size="10.00"> &lt; TParametersValueType &gt;</text>
</g>
<!-- Node24 -->
<g id="node24" class="node">
<title>Node24</title>
<g id="a_node24"><a xlink:title=" ">
<polygon fill="white" stroke="#bfbfbf" points="0,-143 0,-162 123,-162 123,-143 0,-143"/>
<text text-anchor="middle" x="61.5" y="-150" font-family="Helvetica,sans-Serif" font-size="10.00">vnl_vector&lt; TValue &gt;</text>
</a>
</g>
</g>
<!-- Node24&#45;&gt;Node23 -->
<g id="edge29" class="edge">
<title>Node24&#45;&gt;Node23</title>
<path fill="none" stroke="midnightblue" d="M133.19,-152.5C165.21,-152.5 202.58,-152.5 232.86,-152.5"/>
<polygon fill="midnightblue" stroke="midnightblue" points="133,-149 123,-152.5 133,-156 133,-149"/>
</g>
<!-- Node25 -->
<g id="node25" class="node">
<title>Node25</title>
<g id="a_node25"><a xlink:title=" ">
<polygon fill="white" stroke="#bfbfbf" points="579,-44.5 579,-74.5 749,-74.5 749,-44.5 579,-44.5"/>
<text text-anchor="start" x="587" y="-62.5" font-family="Helvetica,sans-Serif" font-size="10.00">std::unique_ptr&lt; itk</text>
<text text-anchor="middle" x="664" y="-51.5" font-family="Helvetica,sans-Serif" font-size="10.00">::OptimizerParametersHelper &gt;</text>
</a>
</g>
</g>
<!-- Node25&#45;&gt;Node20 -->
<g id="edge30" class="edge">
<title>Node25&#45;&gt;Node20</title>
<path fill="none" stroke="#9a32cd" stroke-dasharray="5,2" d="M759.29,-62.74C833.56,-65.93 939.62,-71.92 1032,-82.5 1083.52,-88.4 1141.29,-98.16 1184.91,-106.17"/>
<polygon fill="#9a32cd" stroke="#9a32cd" points="759.17,-59.23 749.03,-62.31 758.87,-66.22 759.17,-59.23"/>
<text text-anchor="middle" x="957" y="-85.5" font-family="Helvetica,sans-Serif" font-size="10.00"> m_Helper</text>
</g>
<!-- Node28 -->
<g id="node28" class="node">
<title>Node28</title>
<g id="a_node28"><a xlink:href="classitk_1_1OptimizerParameters.html" target="_top" xlink:title="Class to hold and manage different parameter types used during optimization.">
<polygon fill="white" stroke="black" points="882,-103.5 882,-133.5 1032,-133.5 1032,-103.5 882,-103.5"/>
<text text-anchor="start" x="890" y="-121.5" font-family="Helvetica,sans-Serif" font-size="10.00">itk::OptimizerParameters</text>
<text text-anchor="middle" x="957" y="-110.5" font-family="Helvetica,sans-Serif" font-size="10.00">&lt; TParametersValueType &gt;</text>
</a>
</g>
</g>
<!-- Node25&#45;&gt;Node28 -->
<g id="edge38" class="edge">
<title>Node25&#45;&gt;Node28</title>
<path fill="none" stroke="#9a32cd" stroke-dasharray="5,2" d="M749.11,-76.55C791.1,-85.07 841.44,-95.27 881.95,-103.49"/>
<polygon fill="#9a32cd" stroke="#9a32cd" points="749.68,-73.1 739.18,-74.54 748.29,-79.96 749.68,-73.1"/>
<text text-anchor="middle" x="815.5" y="-102.5" font-family="Helvetica,sans-Serif" font-size="10.00"> m_Helper</text>
</g>
<!-- Node26 -->
<g id="node26" class="node">
<title>Node26</title>
<g id="a_node26"><a xlink:href="classitk_1_1OptimizerParametersHelper.html" target="_top" xlink:title="Basic helper class to manage parameter data as an Array type, the default type.">
<polygon fill="white" stroke="black" points="222,-0.5 222,-30.5 361,-30.5 361,-0.5 222,-0.5"/>
<text text-anchor="start" x="230" y="-18.5" font-family="Helvetica,sans-Serif" font-size="10.00">itk::OptimizerParameters</text>
<text text-anchor="middle" x="291.5" y="-7.5" font-family="Helvetica,sans-Serif" font-size="10.00">Helper&lt; TValue &gt;</text>
</a>
</g>
</g>
<!-- Node26&#45;&gt;Node25 -->
<g id="edge31" class="edge">
<title>Node26&#45;&gt;Node25</title>
<path fill="none" stroke="#9a32cd" stroke-dasharray="5,2" d="M371.12,-23.19C424.7,-28.62 497.21,-36.37 561,-44.5 566.86,-45.25 572.9,-46.05 578.99,-46.88"/>
<polygon fill="#9a32cd" stroke="#9a32cd" points="371.31,-19.69 361.01,-22.17 370.6,-26.65 371.31,-19.69"/>
<text text-anchor="middle" x="477" y="-47.5" font-family="Helvetica,sans-Serif" font-size="10.00"> ptr</text>
</g>
<!-- Node27&#45;&gt;Node25 -->
<g id="edge32" class="edge">
<title>Node27&#45;&gt;Node25</title>
<path fill="none" stroke="orange" stroke-dasharray="5,2" d="M361.17,-59.5C422.68,-59.5 513.06,-59.5 578.89,-59.5"/>
<polygon fill="orange" stroke="orange" points="360.8,-56 350.8,-59.5 360.8,-63 360.8,-56"/>
<text text-anchor="start" x="408.5" y="-73.5" font-family="Helvetica,sans-Serif" font-size="10.00"> &lt; itk::OptimizerParameters</text>
<text text-anchor="middle" x="477" y="-62.5" font-family="Helvetica,sans-Serif" font-size="10.00">Helper &gt;</text>
</g>
<!-- Node28&#45;&gt;Node20 -->
<g id="edge34" class="edge">
<title>Node28&#45;&gt;Node20</title>
<path fill="none" stroke="orange" stroke-dasharray="5,2" d="M1042.25,-118.79C1087.41,-118.94 1142.33,-119.12 1184.86,-119.27"/>
<polygon fill="orange" stroke="orange" points="1042.2,-115.29 1032.19,-118.75 1042.17,-122.28 1042.2,-115.29"/>
<text text-anchor="middle" x="1108.5" y="-122.5" font-family="Helvetica,sans-Serif" font-size="10.00"> &lt; double &gt;</text>
</g>
<!-- Node29&#45;&gt;Node28 -->
<g id="edge35" class="edge">
<title>Node29&#45;&gt;Node28</title>
<path fill="none" stroke="midnightblue" d="M754.7,-118.5C795.38,-118.5 842.92,-118.5 881.58,-118.5"/>
<polygon fill="midnightblue" stroke="midnightblue" points="754.52,-115 744.52,-118.5 754.52,-122 754.52,-115"/>
</g>
<!-- Node30 -->
<g id="node30" class="node">
<title>Node30</title>
<g id="a_node30"><a xlink:title=" ">
<polygon fill="white" stroke="#bfbfbf" points="208,-88.5 208,-118.5 375,-118.5 375,-88.5 208,-88.5"/>
<text text-anchor="start" x="216" y="-106.5" font-family="Helvetica,sans-Serif" font-size="10.00">vnl_vector&lt; TParametersValue</text>
<text text-anchor="middle" x="291.5" y="-95.5" font-family="Helvetica,sans-Serif" font-size="10.00">Type &gt;</text>
</a>
</g>
</g>
<!-- Node30&#45;&gt;Node29 -->
<g id="edge36" class="edge">
<title>Node30&#45;&gt;Node29</title>
<path fill="none" stroke="midnightblue" d="M385.22,-106.68C436.96,-108.53 502.56,-110.98 561,-113.5 568.26,-113.81 575.81,-114.15 583.38,-114.51"/>
<polygon fill="midnightblue" stroke="midnightblue" points="385.18,-103.18 375.07,-106.32 384.94,-110.18 385.18,-103.18"/>
</g>
</g>
</svg>
