<?xml version="1.0" encoding="UTF-8" standalone="no"?>
<!DOCTYPE svg PUBLIC "-//W3C//DTD SVG 1.1//EN"
 "http://www.w3.org/Graphics/SVG/1.1/DTD/svg11.dtd">
<!-- Generated by graphviz version 2.43.0 (0)
 -->
<!-- Title: itk::PriorityQueueContainer&lt; TElementWrapper, TElementWrapperInterface, TElementPriority, TElementIdentifier &gt; Pages: 1 -->
<svg width="263pt" height="229pt"
 viewBox="0.00 0.00 263.00 229.00" xmlns="http://www.w3.org/2000/svg" xmlns:xlink="http://www.w3.org/1999/xlink">
<g id="graph0" class="graph" transform="scale(1 1) rotate(0) translate(4 225)">
<title>itk::PriorityQueueContainer&lt; TElementWrapper, TElementWrapperInterface, TElementPriority, TElementIdentifier &gt;</title>
<polygon fill="white" stroke="transparent" points="-4,4 -4,-225 259,-225 259,4 -4,4"/>
<!-- Node1 -->
<g id="node1" class="node">
<title>Node1</title>
<g id="a_node1"><a xlink:title=" ">
<polygon fill="#bfbfbf" stroke="black" points="0,-0.5 0,-41.5 255,-41.5 255,-0.5 0,-0.5"/>
<text text-anchor="start" x="8" y="-29.5" font-family="Helvetica,sans-Serif" font-size="10.00">itk::PriorityQueueContainer</text>
<text text-anchor="start" x="8" y="-18.5" font-family="Helvetica,sans-Serif" font-size="10.00">&lt; TElementWrapper, TElementWrapper</text>
<text text-anchor="middle" x="127.5" y="-7.5" font-family="Helvetica,sans-Serif" font-size="10.00">Interface, TElementPriority, TElementIdentifier &gt;</text>
</a>
</g>
</g>
<!-- Node2 -->
<g id="node2" class="node">
<title>Node2</title>
<g id="a_node2"><a xlink:href="classitk_1_1VectorContainer.html" target="_top" xlink:title=" ">
<polygon fill="white" stroke="black" points="28,-78.5 28,-108.5 227,-108.5 227,-78.5 28,-78.5"/>
<text text-anchor="start" x="36" y="-96.5" font-family="Helvetica,sans-Serif" font-size="10.00">itk::VectorContainer</text>
<text text-anchor="middle" x="127.5" y="-85.5" font-family="Helvetica,sans-Serif" font-size="10.00">&lt; IdentifierType, TElementWrapper &gt;</text>
</a>
</g>
</g>
<!-- Node2&#45;&gt;Node1 -->
<g id="edge1" class="edge">
<title>Node2&#45;&gt;Node1</title>
<path fill="none" stroke="midnightblue" d="M127.5,-67.98C127.5,-59.35 127.5,-49.76 127.5,-41.59"/>
<polygon fill="midnightblue" stroke="midnightblue" points="124,-68.23 127.5,-78.23 131,-68.23 124,-68.23"/>
</g>
<!-- Node3 -->
<g id="node3" class="node">
<title>Node3</title>
<g id="a_node3"><a xlink:href="classitk_1_1Object.html" target="_top" xlink:title="Base class for most ITK classes.">
<polygon fill="white" stroke="black" points="44,-145.5 44,-164.5 111,-164.5 111,-145.5 44,-145.5"/>
<text text-anchor="middle" x="77.5" y="-152.5" font-family="Helvetica,sans-Serif" font-size="10.00">itk::Object</text>
</a>
</g>
</g>
<!-- Node3&#45;&gt;Node2 -->
<g id="edge2" class="edge">
<title>Node3&#45;&gt;Node2</title>
<path fill="none" stroke="midnightblue" d="M91.1,-137.81C98.8,-128.65 108.34,-117.3 115.72,-108.52"/>
<polygon fill="midnightblue" stroke="midnightblue" points="88.42,-135.57 84.66,-145.48 93.78,-140.07 88.42,-135.57"/>
</g>
<!-- Node4 -->
<g id="node4" class="node">
<title>Node4</title>
<g id="a_node4"><a xlink:href="classitk_1_1LightObject.html" target="_top" xlink:title="Light weight base class for most itk classes.">
<polygon fill="white" stroke="black" points="32,-201.5 32,-220.5 123,-220.5 123,-201.5 32,-201.5"/>
<text text-anchor="middle" x="77.5" y="-208.5" font-family="Helvetica,sans-Serif" font-size="10.00">itk::LightObject</text>
</a>
</g>
</g>
<!-- Node4&#45;&gt;Node3 -->
<g id="edge3" class="edge">
<title>Node4&#45;&gt;Node3</title>
<path fill="none" stroke="midnightblue" d="M77.5,-190.8C77.5,-181.91 77.5,-171.78 77.5,-164.75"/>
<polygon fill="midnightblue" stroke="midnightblue" points="74,-191.08 77.5,-201.08 81,-191.08 74,-191.08"/>
</g>
<!-- Node5 -->
<g id="node5" class="node">
<title>Node5</title>
<g id="a_node5"><a xlink:title=" ">
<polygon fill="white" stroke="black" points="129,-145.5 129,-164.5 226,-164.5 226,-145.5 129,-145.5"/>
<text text-anchor="middle" x="177.5" y="-152.5" font-family="Helvetica,sans-Serif" font-size="10.00">std::vector&lt; T &gt;</text>
</a>
</g>
</g>
<!-- Node5&#45;&gt;Node2 -->
<g id="edge4" class="edge">
<title>Node5&#45;&gt;Node2</title>
<path fill="none" stroke="#8b1a1a" d="M163.9,-137.81C156.2,-128.65 146.66,-117.3 139.28,-108.52"/>
<polygon fill="#8b1a1a" stroke="#8b1a1a" points="161.22,-140.07 170.34,-145.48 166.58,-135.57 161.22,-140.07"/>
</g>
</g>
</svg>
