<?xml version="1.0" encoding="UTF-8" standalone="no"?>
<!DOCTYPE svg PUBLIC "-//W3C//DTD SVG 1.1//EN"
 "http://www.w3.org/Graphics/SVG/1.1/DTD/svg11.dtd">
<!-- Generated by graphviz version 2.43.0 (0)
 -->
<!-- Title: itk::InverseFFTImageFilter&lt; TInputImage, TOutputImage &gt; Pages: 1 -->
<svg width="2297pt" height="180pt"
 viewBox="0.00 0.00 2297.00 180.00" xmlns="http://www.w3.org/2000/svg" xmlns:xlink="http://www.w3.org/1999/xlink">
<g id="graph0" class="graph" transform="scale(1 1) rotate(0) translate(4 176)">
<title>itk::InverseFFTImageFilter&lt; TInputImage, TOutputImage &gt;</title>
<polygon fill="white" stroke="transparent" points="-4,4 -4,-176 2293,-176 2293,4 -4,4"/>
<!-- Node1 -->
<g id="node1" class="node">
<title>Node1</title>
<g id="a_node1"><a xlink:title="Base class for inverse Fast Fourier Transform.">
<polygon fill="#bfbfbf" stroke="black" points="1464,-29 1464,-59 1640,-59 1640,-29 1464,-29"/>
<text text-anchor="start" x="1472" y="-47" font-family="Helvetica,sans-Serif" font-size="10.00">itk::InverseFFTImageFilter</text>
<text text-anchor="middle" x="1552" y="-36" font-family="Helvetica,sans-Serif" font-size="10.00">&lt; TInputImage, TOutputImage &gt;</text>
</a>
</g>
</g>
<!-- Node11 -->
<g id="node11" class="node">
<title>Node11</title>
<g id="a_node11"><a xlink:href="classitk_1_1InverseFFTImageFilter.html" target="_top" xlink:title=" ">
<polygon fill="white" stroke="black" points="1853,-18 1853,-70 2076,-70 2076,-18 1853,-18"/>
<text text-anchor="start" x="1861" y="-58" font-family="Helvetica,sans-Serif" font-size="10.00">itk::InverseFFTImageFilter</text>
<text text-anchor="start" x="1861" y="-47" font-family="Helvetica,sans-Serif" font-size="10.00">&lt; TInputImage, Image&lt; typename</text>
<text text-anchor="start" x="1861" y="-36" font-family="Helvetica,sans-Serif" font-size="10.00"> TInputImage::PixelType::value</text>
<text text-anchor="middle" x="1964.5" y="-25" font-family="Helvetica,sans-Serif" font-size="10.00">_type, TInputImage::ImageDimension &gt; &gt;</text>
</a>
</g>
</g>
<!-- Node1&#45;&gt;Node11 -->
<g id="edge14" class="edge">
<title>Node1&#45;&gt;Node11</title>
<path fill="none" stroke="orange" stroke-dasharray="5,2" d="M1650.42,-44C1711.19,-44 1789.57,-44 1852.71,-44"/>
<polygon fill="orange" stroke="orange" points="1650.06,-40.5 1640.06,-44 1650.06,-47.5 1650.06,-40.5"/>
<text text-anchor="start" x="1658" y="-80" font-family="Helvetica,sans-Serif" font-size="10.00"> &lt; TInputImage, Image</text>
<text text-anchor="start" x="1658" y="-69" font-family="Helvetica,sans-Serif" font-size="10.00">&lt; typename TInputImage</text>
<text text-anchor="start" x="1658" y="-58" font-family="Helvetica,sans-Serif" font-size="10.00">::PixelType::value_type,</text>
<text text-anchor="middle" x="1746.5" y="-47" font-family="Helvetica,sans-Serif" font-size="10.00"> TInputImage::ImageDimension &gt; &gt;</text>
</g>
<!-- Node2 -->
<g id="node2" class="node">
<title>Node2</title>
<g id="a_node2"><a xlink:href="classitk_1_1ImageToImageFilter.html" target="_top" xlink:title=" ">
<polygon fill="white" stroke="black" points="1237,-12.5 1237,-75.5 1427,-75.5 1427,-12.5 1237,-12.5"/>
<text text-anchor="start" x="1245" y="-63.5" font-family="Helvetica,sans-Serif" font-size="10.00">itk::ImageToImageFilter</text>
<text text-anchor="start" x="1245" y="-52.5" font-family="Helvetica,sans-Serif" font-size="10.00">&lt; TInputImage, Image&lt;</text>
<text text-anchor="start" x="1245" y="-41.5" font-family="Helvetica,sans-Serif" font-size="10.00"> typename TInputImage::</text>
<text text-anchor="start" x="1245" y="-30.5" font-family="Helvetica,sans-Serif" font-size="10.00">PixelType::value_type, TInputImage</text>
<text text-anchor="middle" x="1332" y="-19.5" font-family="Helvetica,sans-Serif" font-size="10.00">::ImageDimension &gt; &gt;</text>
</a>
</g>
</g>
<!-- Node2&#45;&gt;Node1 -->
<g id="edge1" class="edge">
<title>Node2&#45;&gt;Node1</title>
<path fill="none" stroke="midnightblue" d="M1437.1,-44C1446.04,-44 1455.03,-44 1463.82,-44"/>
<polygon fill="midnightblue" stroke="midnightblue" points="1437.03,-40.5 1427.03,-44 1437.03,-47.5 1437.03,-40.5"/>
</g>
<!-- Node3 -->
<g id="node3" class="node">
<title>Node3</title>
<g id="a_node3"><a xlink:href="classitk_1_1ImageSource.html" target="_top" xlink:title=" ">
<polygon fill="white" stroke="black" points="831,-90 831,-142 1024,-142 1024,-90 831,-90"/>
<text text-anchor="start" x="839" y="-130" font-family="Helvetica,sans-Serif" font-size="10.00">itk::ImageSource&lt; Image</text>
<text text-anchor="start" x="839" y="-119" font-family="Helvetica,sans-Serif" font-size="10.00">&lt; typename TInputImage</text>
<text text-anchor="start" x="839" y="-108" font-family="Helvetica,sans-Serif" font-size="10.00">::PixelType::value_type,</text>
<text text-anchor="middle" x="927.5" y="-97" font-family="Helvetica,sans-Serif" font-size="10.00"> TInputImage::ImageDimension &gt; &gt;</text>
</a>
</g>
</g>
<!-- Node3&#45;&gt;Node2 -->
<g id="edge2" class="edge">
<title>Node3&#45;&gt;Node2</title>
<path fill="none" stroke="midnightblue" d="M1034.51,-115.41C1090.13,-113.06 1159.01,-106.91 1219,-92 1235.01,-88.02 1251.67,-82.01 1267.08,-75.57"/>
<polygon fill="midnightblue" stroke="midnightblue" points="1034.14,-111.92 1024.28,-115.8 1034.41,-118.91 1034.14,-111.92"/>
</g>
<!-- Node4 -->
<g id="node4" class="node">
<title>Node4</title>
<g id="a_node4"><a xlink:href="classitk_1_1ProcessObject.html" target="_top" xlink:title="The base class for all process objects (source, filters, mappers) in the Insight data processing pipe...">
<polygon fill="white" stroke="black" points="251.5,-152.5 251.5,-171.5 355.5,-171.5 355.5,-152.5 251.5,-152.5"/>
<text text-anchor="middle" x="303.5" y="-159.5" font-family="Helvetica,sans-Serif" font-size="10.00">itk::ProcessObject</text>
</a>
</g>
</g>
<!-- Node4&#45;&gt;Node3 -->
<g id="edge3" class="edge">
<title>Node4&#45;&gt;Node3</title>
<path fill="none" stroke="midnightblue" d="M365.92,-159.66C461.61,-155.69 652.04,-146.52 813,-131 818.84,-130.44 824.83,-129.8 830.88,-129.13"/>
<polygon fill="midnightblue" stroke="midnightblue" points="365.69,-156.16 355.84,-160.07 365.97,-163.16 365.69,-156.16"/>
</g>
<!-- Node8 -->
<g id="node8" class="node">
<title>Node8</title>
<g id="a_node8"><a xlink:href="classitk_1_1ImageSource.html" target="_top" xlink:title="Base class for all process objects that output image data.">
<polygon fill="white" stroke="black" points="425.5,-67 425.5,-97 574.5,-97 574.5,-67 425.5,-67"/>
<text text-anchor="start" x="433.5" y="-85" font-family="Helvetica,sans-Serif" font-size="10.00">itk::ImageSource&lt; TOutput</text>
<text text-anchor="middle" x="500" y="-74" font-family="Helvetica,sans-Serif" font-size="10.00">Image &gt;</text>
</a>
</g>
</g>
<!-- Node4&#45;&gt;Node8 -->
<g id="edge8" class="edge">
<title>Node4&#45;&gt;Node8</title>
<path fill="none" stroke="midnightblue" d="M342.89,-148.99C353.36,-145.28 364.67,-141.12 375,-137 406.61,-124.41 442.05,-108.51 466.91,-97.04"/>
<polygon fill="midnightblue" stroke="midnightblue" points="341.44,-145.79 333.16,-152.4 343.75,-152.39 341.44,-145.79"/>
</g>
<!-- Node5 -->
<g id="node5" class="node">
<title>Node5</title>
<g id="a_node5"><a xlink:href="classitk_1_1Object.html" target="_top" xlink:title="Base class for most ITK classes.">
<polygon fill="white" stroke="black" points="128,-152.5 128,-171.5 195,-171.5 195,-152.5 128,-152.5"/>
<text text-anchor="middle" x="161.5" y="-159.5" font-family="Helvetica,sans-Serif" font-size="10.00">itk::Object</text>
</a>
</g>
</g>
<!-- Node5&#45;&gt;Node4 -->
<g id="edge4" class="edge">
<title>Node5&#45;&gt;Node4</title>
<path fill="none" stroke="midnightblue" d="M205.49,-162C219.95,-162 236.22,-162 251.25,-162"/>
<polygon fill="midnightblue" stroke="midnightblue" points="205.32,-158.5 195.32,-162 205.32,-165.5 205.32,-158.5"/>
</g>
<!-- Node6 -->
<g id="node6" class="node">
<title>Node6</title>
<g id="a_node6"><a xlink:href="classitk_1_1LightObject.html" target="_top" xlink:title="Light weight base class for most itk classes.">
<polygon fill="white" stroke="black" points="0,-152.5 0,-171.5 91,-171.5 91,-152.5 0,-152.5"/>
<text text-anchor="middle" x="45.5" y="-159.5" font-family="Helvetica,sans-Serif" font-size="10.00">itk::LightObject</text>
</a>
</g>
</g>
<!-- Node6&#45;&gt;Node5 -->
<g id="edge5" class="edge">
<title>Node6&#45;&gt;Node5</title>
<path fill="none" stroke="midnightblue" d="M101.39,-162C110.45,-162 119.59,-162 127.88,-162"/>
<polygon fill="midnightblue" stroke="midnightblue" points="101.23,-158.5 91.23,-162 101.23,-165.5 101.23,-158.5"/>
</g>
<!-- Node7 -->
<g id="node7" class="node">
<title>Node7</title>
<g id="a_node7"><a xlink:href="structitk_1_1ImageSourceCommon.html" target="_top" xlink:title="Secondary base class of ImageSource common between templates.">
<polygon fill="white" stroke="black" points="232,-108.5 232,-127.5 375,-127.5 375,-108.5 232,-108.5"/>
<text text-anchor="middle" x="303.5" y="-115.5" font-family="Helvetica,sans-Serif" font-size="10.00">itk::ImageSourceCommon</text>
</a>
</g>
</g>
<!-- Node7&#45;&gt;Node3 -->
<g id="edge6" class="edge">
<title>Node7&#45;&gt;Node3</title>
<path fill="none" stroke="#8b1a1a" d="M385.35,-117.74C499.86,-117.37 708.91,-116.7 830.95,-116.31"/>
<polygon fill="#8b1a1a" stroke="#8b1a1a" points="385.23,-114.24 375.25,-117.77 385.26,-121.24 385.23,-114.24"/>
</g>
<!-- Node7&#45;&gt;Node8 -->
<g id="edge9" class="edge">
<title>Node7&#45;&gt;Node8</title>
<path fill="none" stroke="#8b1a1a" d="M365.82,-106.65C384.72,-103.15 405.73,-99.26 425.37,-95.63"/>
<polygon fill="#8b1a1a" stroke="#8b1a1a" points="365.05,-103.23 355.86,-108.49 366.33,-110.12 365.05,-103.23"/>
</g>
<!-- Node8&#45;&gt;Node3 -->
<g id="edge7" class="edge">
<title>Node8&#45;&gt;Node3</title>
<path fill="none" stroke="orange" stroke-dasharray="5,2" d="M584.88,-74.84C647.98,-71.12 736.39,-69.46 813,-81 826.25,-83 840.09,-86.24 853.37,-89.96"/>
<polygon fill="orange" stroke="orange" points="584.35,-71.37 574.59,-75.48 584.78,-78.36 584.35,-71.37"/>
<text text-anchor="start" x="606" y="-106" font-family="Helvetica,sans-Serif" font-size="10.00"> &lt; Image&lt; typename TInput</text>
<text text-anchor="start" x="606" y="-95" font-family="Helvetica,sans-Serif" font-size="10.00">Image::PixelType::value</text>
<text text-anchor="middle" x="709.5" y="-84" font-family="Helvetica,sans-Serif" font-size="10.00">_type, TInputImage::ImageDimension &gt; &gt;</text>
</g>
<!-- Node10 -->
<g id="node10" class="node">
<title>Node10</title>
<g id="a_node10"><a xlink:href="classitk_1_1ImageToImageFilter.html" target="_top" xlink:title="Base class for filters that take an image as input and produce an image as output.">
<polygon fill="white" stroke="black" points="839.5,-29 839.5,-59 1015.5,-59 1015.5,-29 839.5,-29"/>
<text text-anchor="start" x="847.5" y="-47" font-family="Helvetica,sans-Serif" font-size="10.00">itk::ImageToImageFilter</text>
<text text-anchor="middle" x="927.5" y="-36" font-family="Helvetica,sans-Serif" font-size="10.00">&lt; TInputImage, TOutputImage &gt;</text>
</a>
</g>
</g>
<!-- Node8&#45;&gt;Node10 -->
<g id="edge12" class="edge">
<title>Node8&#45;&gt;Node10</title>
<path fill="none" stroke="midnightblue" d="M585.04,-71.25C592.13,-70.45 599.19,-69.69 606,-69 684.85,-61.05 774.84,-54.23 839.35,-49.73"/>
<polygon fill="midnightblue" stroke="midnightblue" points="584.2,-67.83 574.67,-72.45 585,-74.78 584.2,-67.83"/>
</g>
<!-- Node9 -->
<g id="node9" class="node">
<title>Node9</title>
<g id="a_node9"><a xlink:href="classitk_1_1ImageToImageFilterCommon.html" target="_top" xlink:title="Secondary base class of ImageToImageFilter common between templates.">
<polygon fill="white" stroke="black" points="412,-0.5 412,-19.5 588,-19.5 588,-0.5 412,-0.5"/>
<text text-anchor="middle" x="500" y="-7.5" font-family="Helvetica,sans-Serif" font-size="10.00">itk::ImageToImageFilterCommon</text>
</a>
</g>
</g>
<!-- Node9&#45;&gt;Node2 -->
<g id="edge10" class="edge">
<title>Node9&#45;&gt;Node2</title>
<path fill="none" stroke="#8b1a1a" d="M598.31,-9.81C703.39,-10.05 875.65,-11.69 1024,-19 1095.44,-22.52 1176.03,-29.19 1236.71,-34.75"/>
<polygon fill="#8b1a1a" stroke="#8b1a1a" points="598.05,-6.31 588.04,-9.8 598.04,-13.31 598.05,-6.31"/>
</g>
<!-- Node9&#45;&gt;Node10 -->
<g id="edge13" class="edge">
<title>Node9&#45;&gt;Node10</title>
<path fill="none" stroke="#8b1a1a" d="M598.21,-17.77C670.89,-23.58 769.39,-31.45 839.48,-37.05"/>
<polygon fill="#8b1a1a" stroke="#8b1a1a" points="598.38,-14.27 588.13,-16.96 597.82,-21.25 598.38,-14.27"/>
</g>
<!-- Node10&#45;&gt;Node2 -->
<g id="edge11" class="edge">
<title>Node10&#45;&gt;Node2</title>
<path fill="none" stroke="orange" stroke-dasharray="5,2" d="M1025.95,-44C1090.02,-44 1173.41,-44 1236.81,-44"/>
<polygon fill="orange" stroke="orange" points="1025.84,-40.5 1015.84,-44 1025.84,-47.5 1025.84,-40.5"/>
<text text-anchor="start" x="1042" y="-80" font-family="Helvetica,sans-Serif" font-size="10.00"> &lt; TInputImage, Image</text>
<text text-anchor="start" x="1042" y="-69" font-family="Helvetica,sans-Serif" font-size="10.00">&lt; typename TInputImage</text>
<text text-anchor="start" x="1042" y="-58" font-family="Helvetica,sans-Serif" font-size="10.00">::PixelType::value_type,</text>
<text text-anchor="middle" x="1130.5" y="-47" font-family="Helvetica,sans-Serif" font-size="10.00"> TInputImage::ImageDimension &gt; &gt;</text>
</g>
<!-- Node12 -->
<g id="node12" class="node">
<title>Node12</title>
<g id="a_node12"><a xlink:href="classitk_1_1FFTWInverseFFTImageFilter.html" target="_top" xlink:title="FFTW&#45;based inverse Fast Fourier Transform.">
<polygon fill="white" stroke="black" points="2121.5,-51.5 2121.5,-92.5 2280.5,-92.5 2280.5,-51.5 2121.5,-51.5"/>
<text text-anchor="start" x="2129.5" y="-80.5" font-family="Helvetica,sans-Serif" font-size="10.00">itk::FFTWInverseFFTImage</text>
<text text-anchor="start" x="2129.5" y="-69.5" font-family="Helvetica,sans-Serif" font-size="10.00">Filter&lt; TInputImage, TOutput</text>
<text text-anchor="middle" x="2201" y="-58.5" font-family="Helvetica,sans-Serif" font-size="10.00">Image &gt;</text>
</a>
</g>
</g>
<!-- Node11&#45;&gt;Node12 -->
<g id="edge15" class="edge">
<title>Node11&#45;&gt;Node12</title>
<path fill="none" stroke="midnightblue" d="M2086.2,-58.41C2098.07,-59.83 2109.89,-61.24 2121.18,-62.59"/>
<polygon fill="midnightblue" stroke="midnightblue" points="2086.57,-54.93 2076.23,-57.22 2085.74,-61.88 2086.57,-54.93"/>
</g>
<!-- Node13 -->
<g id="node13" class="node">
<title>Node13</title>
<g id="a_node13"><a xlink:href="classitk_1_1VnlInverseFFTImageFilter.html" target="_top" xlink:title="VNL&#45;based reverse Fast Fourier Transform.">
<polygon fill="white" stroke="black" points="2113,-2 2113,-32 2289,-32 2289,-2 2113,-2"/>
<text text-anchor="start" x="2121" y="-20" font-family="Helvetica,sans-Serif" font-size="10.00">itk::VnlInverseFFTImageFilter</text>
<text text-anchor="middle" x="2201" y="-9" font-family="Helvetica,sans-Serif" font-size="10.00">&lt; TInputImage, TOutputImage &gt;</text>
</a>
</g>
</g>
<!-- Node11&#45;&gt;Node13 -->
<g id="edge16" class="edge">
<title>Node11&#45;&gt;Node13</title>
<path fill="none" stroke="midnightblue" d="M2086.35,-30.09C2095.32,-29.05 2104.26,-28.02 2112.97,-27.02"/>
<polygon fill="midnightblue" stroke="midnightblue" points="2085.76,-26.63 2076.23,-31.25 2086.56,-33.58 2085.76,-26.63"/>
</g>
</g>
</svg>
