<?xml version="1.0" encoding="UTF-8" standalone="no"?>
<!DOCTYPE svg PUBLIC "-//W3C//DTD SVG 1.1//EN"
 "http://www.w3.org/Graphics/SVG/1.1/DTD/svg11.dtd">
<!-- Generated by graphviz version 2.43.0 (0)
 -->
<!-- Title: itk::ScaleTransform&lt; TParametersValueType, NDimensions &gt; Pages: 1 -->
<svg width="2208pt" height="149pt"
 viewBox="0.00 0.00 2208.00 149.00" xmlns="http://www.w3.org/2000/svg" xmlns:xlink="http://www.w3.org/1999/xlink">
<g id="graph0" class="graph" transform="scale(1 1) rotate(0) translate(4 145)">
<title>itk::ScaleTransform&lt; TParametersValueType, NDimensions &gt;</title>
<polygon fill="white" stroke="transparent" points="-4,4 -4,-145 2204,-145 2204,4 -4,4"/>
<!-- Node1 -->
<g id="node1" class="node">
<title>Node1</title>
<g id="a_node1"><a xlink:title="Scale transformation of a vector space (e.g. space coordinates)">
<polygon fill="#bfbfbf" stroke="black" points="1594,-50 1594,-91 1736,-91 1736,-50 1594,-50"/>
<text text-anchor="start" x="1602" y="-79" font-family="Helvetica,sans-Serif" font-size="10.00">itk::ScaleTransform</text>
<text text-anchor="start" x="1602" y="-68" font-family="Helvetica,sans-Serif" font-size="10.00">&lt; TParametersValueType,</text>
<text text-anchor="middle" x="1665" y="-57" font-family="Helvetica,sans-Serif" font-size="10.00"> NDimensions &gt;</text>
</a>
</g>
</g>
<!-- Node12 -->
<g id="node12" class="node">
<title>Node12</title>
<g id="a_node12"><a xlink:href="classitk_1_1ScaleTransform.html" target="_top" xlink:title=" ">
<polygon fill="white" stroke="black" points="1832,-55.5 1832,-85.5 1942,-85.5 1942,-55.5 1832,-55.5"/>
<text text-anchor="start" x="1840" y="-73.5" font-family="Helvetica,sans-Serif" font-size="10.00">itk::ScaleTransform</text>
<text text-anchor="middle" x="1887" y="-62.5" font-family="Helvetica,sans-Serif" font-size="10.00">&lt; float, 3 &gt;</text>
</a>
</g>
</g>
<!-- Node1&#45;&gt;Node12 -->
<g id="edge16" class="edge">
<title>Node1&#45;&gt;Node12</title>
<path fill="none" stroke="orange" stroke-dasharray="5,2" d="M1746.52,-70.5C1774.89,-70.5 1806.09,-70.5 1831.77,-70.5"/>
<polygon fill="orange" stroke="orange" points="1746.21,-67 1736.21,-70.5 1746.21,-74 1746.21,-67"/>
<text text-anchor="middle" x="1784" y="-73.5" font-family="Helvetica,sans-Serif" font-size="10.00"> &lt; float, 3 &gt;</text>
</g>
<!-- Node2 -->
<g id="node2" class="node">
<title>Node2</title>
<g id="a_node2"><a xlink:href="classitk_1_1MatrixOffsetTransformBase.html" target="_top" xlink:title=" ">
<polygon fill="white" stroke="black" points="1412,-55.5 1412,-85.5 1557,-85.5 1557,-55.5 1412,-55.5"/>
<text text-anchor="start" x="1420" y="-73.5" font-family="Helvetica,sans-Serif" font-size="10.00">itk::MatrixOffsetTransform</text>
<text text-anchor="middle" x="1484.5" y="-62.5" font-family="Helvetica,sans-Serif" font-size="10.00">Base&lt; float, 3, 3 &gt;</text>
</a>
</g>
</g>
<!-- Node2&#45;&gt;Node1 -->
<g id="edge1" class="edge">
<title>Node2&#45;&gt;Node1</title>
<path fill="none" stroke="midnightblue" d="M1567.1,-70.5C1576.04,-70.5 1585.08,-70.5 1593.86,-70.5"/>
<polygon fill="midnightblue" stroke="midnightblue" points="1567.07,-67 1557.07,-70.5 1567.07,-74 1567.07,-67"/>
</g>
<!-- Node3 -->
<g id="node3" class="node">
<title>Node3</title>
<g id="a_node3"><a xlink:href="classitk_1_1Transform.html" target="_top" xlink:title=" ">
<polygon fill="white" stroke="black" points="817,-79.5 817,-109.5 1042,-109.5 1042,-79.5 817,-79.5"/>
<text text-anchor="start" x="825" y="-97.5" font-family="Helvetica,sans-Serif" font-size="10.00">itk::Transform&lt; float,</text>
<text text-anchor="middle" x="929.5" y="-86.5" font-family="Helvetica,sans-Serif" font-size="10.00"> NInputDimensions, NOutputDimensions &gt;</text>
</a>
</g>
</g>
<!-- Node3&#45;&gt;Node2 -->
<g id="edge2" class="edge">
<title>Node3&#45;&gt;Node2</title>
<path fill="none" stroke="midnightblue" d="M1052.08,-91.42C1145.61,-88.71 1278.04,-84.16 1394,-77.5 1399.76,-77.17 1405.72,-76.79 1411.71,-76.38"/>
<polygon fill="midnightblue" stroke="midnightblue" points="1051.9,-87.92 1042.01,-91.7 1052.1,-94.92 1051.9,-87.92"/>
</g>
<!-- Node4 -->
<g id="node4" class="node">
<title>Node4</title>
<g id="a_node4"><a xlink:href="classitk_1_1TransformBaseTemplate.html" target="_top" xlink:title=" ">
<polygon fill="white" stroke="black" points="486,-110.5 486,-140.5 639,-140.5 639,-110.5 486,-110.5"/>
<text text-anchor="start" x="494" y="-128.5" font-family="Helvetica,sans-Serif" font-size="10.00">itk::TransformBaseTemplate</text>
<text text-anchor="middle" x="562.5" y="-117.5" font-family="Helvetica,sans-Serif" font-size="10.00">&lt; float &gt;</text>
</a>
</g>
</g>
<!-- Node4&#45;&gt;Node3 -->
<g id="edge3" class="edge">
<title>Node4&#45;&gt;Node3</title>
<path fill="none" stroke="midnightblue" d="M649.39,-121.26C694.06,-118.74 749.52,-115.13 799,-110.5 804.86,-109.95 810.87,-109.35 816.94,-108.71"/>
<polygon fill="midnightblue" stroke="midnightblue" points="648.95,-117.77 639.16,-121.82 649.34,-124.76 648.95,-117.77"/>
</g>
<!-- Node5 -->
<g id="node5" class="node">
<title>Node5</title>
<g id="a_node5"><a xlink:href="classitk_1_1Object.html" target="_top" xlink:title="Base class for most ITK classes.">
<polygon fill="white" stroke="black" points="128,-61 128,-80 195,-80 195,-61 128,-61"/>
<text text-anchor="middle" x="161.5" y="-68" font-family="Helvetica,sans-Serif" font-size="10.00">itk::Object</text>
</a>
</g>
</g>
<!-- Node5&#45;&gt;Node4 -->
<g id="edge4" class="edge">
<title>Node5&#45;&gt;Node4</title>
<path fill="none" stroke="midnightblue" d="M195.78,-83.58C207.12,-87.61 219.98,-91.72 232,-94.5 317.65,-114.31 418.61,-121.52 486,-124.11"/>
<polygon fill="midnightblue" stroke="midnightblue" points="196.85,-80.25 186.26,-80.1 194.44,-86.82 196.85,-80.25"/>
</g>
<!-- Node7 -->
<g id="node7" class="node">
<title>Node7</title>
<g id="a_node7"><a xlink:href="classitk_1_1TransformBaseTemplate.html" target="_top" xlink:title=" ">
<polygon fill="white" stroke="black" points="232,-55.5 232,-85.5 385,-85.5 385,-55.5 232,-55.5"/>
<text text-anchor="start" x="240" y="-73.5" font-family="Helvetica,sans-Serif" font-size="10.00">itk::TransformBaseTemplate</text>
<text text-anchor="middle" x="308.5" y="-62.5" font-family="Helvetica,sans-Serif" font-size="10.00">&lt; TParametersValueType &gt;</text>
</a>
</g>
</g>
<!-- Node5&#45;&gt;Node7 -->
<g id="edge7" class="edge">
<title>Node5&#45;&gt;Node7</title>
<path fill="none" stroke="midnightblue" d="M205.29,-70.5C213.68,-70.5 222.72,-70.5 231.82,-70.5"/>
<polygon fill="midnightblue" stroke="midnightblue" points="205.04,-67 195.04,-70.5 205.04,-74 205.04,-67"/>
</g>
<!-- Node11 -->
<g id="node11" class="node">
<title>Node11</title>
<g id="a_node11"><a xlink:href="classitk_1_1TransformBaseTemplate.html" target="_top" xlink:title=" ">
<polygon fill="white" stroke="black" points="486,-0.5 486,-30.5 639,-30.5 639,-0.5 486,-0.5"/>
<text text-anchor="start" x="494" y="-18.5" font-family="Helvetica,sans-Serif" font-size="10.00">itk::TransformBaseTemplate</text>
<text text-anchor="middle" x="562.5" y="-7.5" font-family="Helvetica,sans-Serif" font-size="10.00">&lt; double &gt;</text>
</a>
</g>
</g>
<!-- Node5&#45;&gt;Node11 -->
<g id="edge13" class="edge">
<title>Node5&#45;&gt;Node11</title>
<path fill="none" stroke="midnightblue" d="M193.98,-57.26C205.72,-52.83 219.29,-48.32 232,-45.5 317.66,-26.52 418.41,-19.51 485.74,-16.94"/>
<polygon fill="midnightblue" stroke="midnightblue" points="192.65,-54.02 184.61,-60.91 195.2,-60.54 192.65,-54.02"/>
</g>
<!-- Node6 -->
<g id="node6" class="node">
<title>Node6</title>
<g id="a_node6"><a xlink:href="classitk_1_1LightObject.html" target="_top" xlink:title="Light weight base class for most itk classes.">
<polygon fill="white" stroke="black" points="0,-61 0,-80 91,-80 91,-61 0,-61"/>
<text text-anchor="middle" x="45.5" y="-68" font-family="Helvetica,sans-Serif" font-size="10.00">itk::LightObject</text>
</a>
</g>
</g>
<!-- Node6&#45;&gt;Node5 -->
<g id="edge5" class="edge">
<title>Node6&#45;&gt;Node5</title>
<path fill="none" stroke="midnightblue" d="M101.39,-70.5C110.45,-70.5 119.59,-70.5 127.88,-70.5"/>
<polygon fill="midnightblue" stroke="midnightblue" points="101.23,-67 91.23,-70.5 101.23,-74 101.23,-67"/>
</g>
<!-- Node7&#45;&gt;Node4 -->
<g id="edge6" class="edge">
<title>Node7&#45;&gt;Node4</title>
<path fill="none" stroke="orange" stroke-dasharray="5,2" d="M388.55,-87.75C421.96,-95.05 460.51,-103.46 492.72,-110.49"/>
<polygon fill="orange" stroke="orange" points="388.88,-84.24 378.36,-85.53 387.38,-91.08 388.88,-84.24"/>
<text text-anchor="middle" x="432.5" y="-106.5" font-family="Helvetica,sans-Serif" font-size="10.00"> &lt; float &gt;</text>
</g>
<!-- Node8 -->
<g id="node8" class="node">
<title>Node8</title>
<g id="a_node8"><a xlink:href="classitk_1_1Transform.html" target="_top" xlink:title="Transform points and vectors from an input space to an output space.">
<polygon fill="white" stroke="black" points="480,-50 480,-91 645,-91 645,-50 480,-50"/>
<text text-anchor="start" x="488" y="-79" font-family="Helvetica,sans-Serif" font-size="10.00">itk::Transform&lt; TParameters</text>
<text text-anchor="start" x="488" y="-68" font-family="Helvetica,sans-Serif" font-size="10.00">ValueType, NInputDimensions,</text>
<text text-anchor="middle" x="562.5" y="-57" font-family="Helvetica,sans-Serif" font-size="10.00"> NOutputDimensions &gt;</text>
</a>
</g>
</g>
<!-- Node7&#45;&gt;Node8 -->
<g id="edge9" class="edge">
<title>Node7&#45;&gt;Node8</title>
<path fill="none" stroke="midnightblue" d="M395.42,-70.5C422.71,-70.5 452.81,-70.5 479.8,-70.5"/>
<polygon fill="midnightblue" stroke="midnightblue" points="395.11,-67 385.11,-70.5 395.11,-74 395.11,-67"/>
</g>
<!-- Node7&#45;&gt;Node11 -->
<g id="edge14" class="edge">
<title>Node7&#45;&gt;Node11</title>
<path fill="none" stroke="orange" stroke-dasharray="5,2" d="M388.55,-53.25C421.96,-45.95 460.51,-37.54 492.72,-30.51"/>
<polygon fill="orange" stroke="orange" points="387.38,-49.92 378.36,-55.47 388.88,-56.76 387.38,-49.92"/>
<text text-anchor="middle" x="432.5" y="-53.5" font-family="Helvetica,sans-Serif" font-size="10.00"> &lt; double &gt;</text>
</g>
<!-- Node8&#45;&gt;Node3 -->
<g id="edge8" class="edge">
<title>Node8&#45;&gt;Node3</title>
<path fill="none" stroke="orange" stroke-dasharray="5,2" d="M655.67,-76.56C704.62,-79.78 765.15,-83.76 816.76,-87.15"/>
<polygon fill="orange" stroke="orange" points="655.62,-73.05 645.41,-75.89 655.16,-80.03 655.62,-73.05"/>
<text text-anchor="start" x="663" y="-99.5" font-family="Helvetica,sans-Serif" font-size="10.00"> &lt; float, NInputDimensions,</text>
<text text-anchor="middle" x="731" y="-88.5" font-family="Helvetica,sans-Serif" font-size="10.00"> NOutputDimensions &gt;</text>
</g>
<!-- Node10 -->
<g id="node10" class="node">
<title>Node10</title>
<g id="a_node10"><a xlink:href="classitk_1_1Transform.html" target="_top" xlink:title=" ">
<polygon fill="white" stroke="black" points="864,-30.5 864,-60.5 995,-60.5 995,-30.5 864,-30.5"/>
<text text-anchor="start" x="872" y="-48.5" font-family="Helvetica,sans-Serif" font-size="10.00">itk::Transform&lt; double,</text>
<text text-anchor="middle" x="929.5" y="-37.5" font-family="Helvetica,sans-Serif" font-size="10.00"> 3, 3 &gt;</text>
</a>
</g>
</g>
<!-- Node8&#45;&gt;Node10 -->
<g id="edge15" class="edge">
<title>Node8&#45;&gt;Node10</title>
<path fill="none" stroke="orange" stroke-dasharray="5,2" d="M655.31,-64.03C657.9,-63.85 660.47,-63.67 663,-63.5 731.56,-58.76 810.08,-53.45 863.85,-49.84"/>
<polygon fill="orange" stroke="orange" points="654.95,-60.55 645.22,-64.73 655.44,-67.53 654.95,-60.55"/>
<text text-anchor="middle" x="731" y="-66.5" font-family="Helvetica,sans-Serif" font-size="10.00"> &lt; double, 3, 3 &gt;</text>
</g>
<!-- Node9 -->
<g id="node9" class="node">
<title>Node9</title>
<g id="a_node9"><a xlink:href="classitk_1_1MatrixOffsetTransformBase.html" target="_top" xlink:title="Matrix and Offset transformation of a vector space (e.g. space coordinates)">
<polygon fill="white" stroke="black" points="1079,-25 1079,-66 1304,-66 1304,-25 1079,-25"/>
<text text-anchor="start" x="1087" y="-54" font-family="Helvetica,sans-Serif" font-size="10.00">itk::MatrixOffsetTransform</text>
<text text-anchor="start" x="1087" y="-43" font-family="Helvetica,sans-Serif" font-size="10.00">Base&lt; TParametersValueType,</text>
<text text-anchor="middle" x="1191.5" y="-32" font-family="Helvetica,sans-Serif" font-size="10.00"> NInputDimensions, NOutputDimensions &gt;</text>
</a>
</g>
</g>
<!-- Node9&#45;&gt;Node2 -->
<g id="edge10" class="edge">
<title>Node9&#45;&gt;Node2</title>
<path fill="none" stroke="orange" stroke-dasharray="5,2" d="M1314.39,-55.97C1347.49,-58.82 1382.27,-61.8 1411.63,-64.33"/>
<polygon fill="orange" stroke="orange" points="1314.44,-52.46 1304.18,-55.09 1313.84,-59.44 1314.44,-52.46"/>
<text text-anchor="middle" x="1358" y="-65.5" font-family="Helvetica,sans-Serif" font-size="10.00"> &lt; float, 3, 3 &gt;</text>
</g>
<!-- Node10&#45;&gt;Node9 -->
<g id="edge11" class="edge">
<title>Node10&#45;&gt;Node9</title>
<path fill="none" stroke="midnightblue" d="M1005.12,-45.5C1028.11,-45.5 1053.96,-45.5 1078.88,-45.5"/>
<polygon fill="midnightblue" stroke="midnightblue" points="1005.1,-42 995.1,-45.5 1005.1,-49 1005.1,-42"/>
</g>
<!-- Node11&#45;&gt;Node10 -->
<g id="edge12" class="edge">
<title>Node11&#45;&gt;Node10</title>
<path fill="none" stroke="midnightblue" d="M649.46,-22.57C715.15,-27.96 804.27,-35.29 863.95,-40.19"/>
<polygon fill="midnightblue" stroke="midnightblue" points="649.38,-19.05 639.13,-21.72 648.81,-26.02 649.38,-19.05"/>
</g>
<!-- Node13 -->
<g id="node13" class="node">
<title>Node13</title>
<g id="a_node13"><a xlink:href="classitk_1_1ScaleLogarithmicTransform.html" target="_top" xlink:title="Logarithmic Scale transformation of a vector space (e.g. space coordinates)">
<polygon fill="white" stroke="black" points="1979,-55.5 1979,-85.5 2200,-85.5 2200,-55.5 1979,-55.5"/>
<text text-anchor="start" x="1987" y="-73.5" font-family="Helvetica,sans-Serif" font-size="10.00">itk::ScaleLogarithmicTransform</text>
<text text-anchor="middle" x="2089.5" y="-62.5" font-family="Helvetica,sans-Serif" font-size="10.00">&lt; TParametersValueType, NDimensions &gt;</text>
</a>
</g>
</g>
<!-- Node12&#45;&gt;Node13 -->
<g id="edge17" class="edge">
<title>Node12&#45;&gt;Node13</title>
<path fill="none" stroke="midnightblue" d="M1952.45,-70.5C1960.99,-70.5 1969.92,-70.5 1978.96,-70.5"/>
<polygon fill="midnightblue" stroke="midnightblue" points="1952.26,-67 1942.26,-70.5 1952.26,-74 1952.26,-67"/>
</g>
</g>
</svg>
