<?xml version="1.0" encoding="UTF-8" standalone="no"?>
<!DOCTYPE svg PUBLIC "-//W3C//DTD SVG 1.1//EN"
 "http://www.w3.org/Graphics/SVG/1.1/DTD/svg11.dtd">
<!-- Generated by graphviz version 2.43.0 (0)
 -->
<!-- Title: itk::VectorGradientNDAnisotropicDiffusionFunction&lt; TImage &gt; Pages: 1 -->
<svg width="1519pt" height="182pt"
 viewBox="0.00 0.00 1519.00 181.50" xmlns="http://www.w3.org/2000/svg" xmlns:xlink="http://www.w3.org/1999/xlink">
<g id="graph0" class="graph" transform="scale(1 1) rotate(0) translate(4 177.5)">
<title>itk::VectorGradientNDAnisotropicDiffusionFunction&lt; TImage &gt;</title>
<polygon fill="white" stroke="transparent" points="-4,4 -4,-177.5 1515,-177.5 1515,4 -4,4"/>
<!-- Node1 -->
<g id="node1" class="node">
<title>Node1</title>
<g id="a_node1"><a xlink:title=" ">
<polygon fill="#bfbfbf" stroke="black" points="1333,-94 1333,-124 1511,-124 1511,-94 1333,-94"/>
<text text-anchor="start" x="1341" y="-112" font-family="Helvetica,sans-Serif" font-size="10.00">itk::VectorGradientNDAnisotropic</text>
<text text-anchor="middle" x="1422" y="-101" font-family="Helvetica,sans-Serif" font-size="10.00">DiffusionFunction&lt; TImage &gt;</text>
</a>
</g>
</g>
<!-- Node2 -->
<g id="node2" class="node">
<title>Node2</title>
<g id="a_node2"><a xlink:href="classitk_1_1VectorAnisotropicDiffusionFunction.html" target="_top" xlink:title=" ">
<polygon fill="white" stroke="black" points="1021,-143 1021,-173 1185,-173 1185,-143 1021,-143"/>
<text text-anchor="start" x="1029" y="-161" font-family="Helvetica,sans-Serif" font-size="10.00">itk::VectorAnisotropicDiffusion</text>
<text text-anchor="middle" x="1103" y="-150" font-family="Helvetica,sans-Serif" font-size="10.00">Function&lt; TImage &gt;</text>
</a>
</g>
</g>
<!-- Node2&#45;&gt;Node1 -->
<g id="edge1" class="edge">
<title>Node2&#45;&gt;Node1</title>
<path fill="none" stroke="midnightblue" d="M1195.17,-143.91C1238.42,-137.22 1289.88,-129.27 1332.75,-122.64"/>
<polygon fill="midnightblue" stroke="midnightblue" points="1194.57,-140.46 1185.22,-145.44 1195.64,-147.38 1194.57,-140.46"/>
</g>
<!-- Node3 -->
<g id="node3" class="node">
<title>Node3</title>
<g id="a_node3"><a xlink:href="classitk_1_1AnisotropicDiffusionFunction.html" target="_top" xlink:title=" ">
<polygon fill="white" stroke="black" points="817,-143 817,-173 951,-173 951,-143 817,-143"/>
<text text-anchor="start" x="825" y="-161" font-family="Helvetica,sans-Serif" font-size="10.00">itk::AnisotropicDiffusion</text>
<text text-anchor="middle" x="884" y="-150" font-family="Helvetica,sans-Serif" font-size="10.00">Function&lt; TImage &gt;</text>
</a>
</g>
</g>
<!-- Node3&#45;&gt;Node2 -->
<g id="edge2" class="edge">
<title>Node3&#45;&gt;Node2</title>
<path fill="none" stroke="midnightblue" d="M961.49,-158C980.7,-158 1001.38,-158 1020.81,-158"/>
<polygon fill="midnightblue" stroke="midnightblue" points="961.29,-154.5 951.29,-158 961.29,-161.5 961.29,-154.5"/>
</g>
<!-- Node4 -->
<g id="node4" class="node">
<title>Node4</title>
<g id="a_node4"><a xlink:href="classitk_1_1FiniteDifferenceFunction.html" target="_top" xlink:title=" ">
<polygon fill="white" stroke="black" points="570,-143 570,-173 724,-173 724,-143 570,-143"/>
<text text-anchor="start" x="578" y="-161" font-family="Helvetica,sans-Serif" font-size="10.00">itk::FiniteDifferenceFunction</text>
<text text-anchor="middle" x="647" y="-150" font-family="Helvetica,sans-Serif" font-size="10.00">&lt; TImage &gt;</text>
</a>
</g>
</g>
<!-- Node4&#45;&gt;Node3 -->
<g id="edge3" class="edge">
<title>Node4&#45;&gt;Node3</title>
<path fill="none" stroke="midnightblue" d="M734.6,-158C761.81,-158 791.41,-158 816.96,-158"/>
<polygon fill="midnightblue" stroke="midnightblue" points="734.3,-154.5 724.3,-158 734.3,-161.5 734.3,-154.5"/>
</g>
<!-- Node5 -->
<g id="node5" class="node">
<title>Node5</title>
<g id="a_node5"><a xlink:href="classitk_1_1LightObject.html" target="_top" xlink:title="Light weight base class for most itk classes.">
<polygon fill="white" stroke="black" points="319,-148.5 319,-167.5 410,-167.5 410,-148.5 319,-148.5"/>
<text text-anchor="middle" x="364.5" y="-155.5" font-family="Helvetica,sans-Serif" font-size="10.00">itk::LightObject</text>
</a>
</g>
</g>
<!-- Node5&#45;&gt;Node4 -->
<g id="edge4" class="edge">
<title>Node5&#45;&gt;Node4</title>
<path fill="none" stroke="midnightblue" d="M420.44,-158C463.09,-158 522.72,-158 569.95,-158"/>
<polygon fill="midnightblue" stroke="midnightblue" points="420.26,-154.5 410.26,-158 420.26,-161.5 420.26,-154.5"/>
</g>
<!-- Node6 -->
<g id="node6" class="node">
<title>Node6</title>
<g id="a_node6"><a xlink:title=" ">
<polygon fill="white" stroke="black" points="25.5,-148.5 25.5,-167.5 132.5,-167.5 132.5,-148.5 25.5,-148.5"/>
<text text-anchor="middle" x="79" y="-155.5" font-family="Helvetica,sans-Serif" font-size="10.00">std::atomic&lt; int &gt;</text>
</a>
</g>
</g>
<!-- Node6&#45;&gt;Node5 -->
<g id="edge5" class="edge">
<title>Node6&#45;&gt;Node5</title>
<path fill="none" stroke="#9a32cd" stroke-dasharray="5,2" d="M142.67,-158C195.95,-158 271.14,-158 318.59,-158"/>
<polygon fill="#9a32cd" stroke="#9a32cd" points="142.66,-154.5 132.66,-158 142.66,-161.5 142.66,-154.5"/>
<text text-anchor="middle" x="224.5" y="-161" font-family="Helvetica,sans-Serif" font-size="10.00"> m_ReferenceCount</text>
</g>
<!-- Node7 -->
<g id="node7" class="node">
<title>Node7</title>
<g id="a_node7"><a xlink:href="classitk_1_1VectorNeighborhoodInnerProduct.html" target="_top" xlink:title=" ">
<polygon fill="white" stroke="black" points="1023.5,-94 1023.5,-124 1182.5,-124 1182.5,-94 1023.5,-94"/>
<text text-anchor="start" x="1031.5" y="-112" font-family="Helvetica,sans-Serif" font-size="10.00">itk::VectorNeighborhoodInner</text>
<text text-anchor="middle" x="1103" y="-101" font-family="Helvetica,sans-Serif" font-size="10.00">Product&lt; ImageType &gt;</text>
</a>
</g>
</g>
<!-- Node7&#45;&gt;Node1 -->
<g id="edge6" class="edge">
<title>Node7&#45;&gt;Node1</title>
<path fill="none" stroke="#9a32cd" stroke-dasharray="5,2" d="M1192.82,-109C1236.58,-109 1289.19,-109 1332.86,-109"/>
<polygon fill="#9a32cd" stroke="#9a32cd" points="1192.77,-105.5 1182.77,-109 1192.77,-112.5 1192.77,-105.5"/>
<text text-anchor="middle" x="1259" y="-112" font-family="Helvetica,sans-Serif" font-size="10.00"> m_InnerProduct</text>
</g>
<!-- Node8 -->
<g id="node8" class="node">
<title>Node8</title>
<g id="a_node8"><a xlink:href="classitk_1_1DerivativeOperator.html" target="_top" xlink:title=" ">
<polygon fill="white" stroke="black" points="1037,-33.5 1037,-74.5 1169,-74.5 1169,-33.5 1037,-33.5"/>
<text text-anchor="start" x="1045" y="-62.5" font-family="Helvetica,sans-Serif" font-size="10.00">itk::DerivativeOperator</text>
<text text-anchor="start" x="1045" y="-51.5" font-family="Helvetica,sans-Serif" font-size="10.00">&lt; ScalarValueType, Self</text>
<text text-anchor="middle" x="1103" y="-40.5" font-family="Helvetica,sans-Serif" font-size="10.00">::ImageDimension &gt;</text>
</a>
</g>
</g>
<!-- Node8&#45;&gt;Node1 -->
<g id="edge7" class="edge">
<title>Node8&#45;&gt;Node1</title>
<path fill="none" stroke="#9a32cd" stroke-dasharray="5,2" d="M1179.33,-67.07C1225.92,-75.15 1285.89,-85.56 1334.43,-93.98"/>
<polygon fill="#9a32cd" stroke="#9a32cd" points="1179.75,-63.59 1169.3,-65.33 1178.55,-70.49 1179.75,-63.59"/>
<text text-anchor="middle" x="1259" y="-92" font-family="Helvetica,sans-Serif" font-size="10.00"> m_DerivativeOperator</text>
</g>
<!-- Node9 -->
<g id="node9" class="node">
<title>Node9</title>
<g id="a_node9"><a xlink:href="classitk_1_1NeighborhoodOperator.html" target="_top" xlink:title=" ">
<polygon fill="white" stroke="black" points="784,-28 784,-80 984,-80 984,-28 784,-28"/>
<text text-anchor="start" x="792" y="-68" font-family="Helvetica,sans-Serif" font-size="10.00">itk::NeighborhoodOperator</text>
<text text-anchor="start" x="792" y="-57" font-family="Helvetica,sans-Serif" font-size="10.00">&lt; ScalarValueType, VDimension,</text>
<text text-anchor="start" x="792" y="-46" font-family="Helvetica,sans-Serif" font-size="10.00"> NeighborhoodAllocator&lt; ScalarValue</text>
<text text-anchor="middle" x="884" y="-35" font-family="Helvetica,sans-Serif" font-size="10.00">Type &gt; &gt;</text>
</a>
</g>
</g>
<!-- Node9&#45;&gt;Node8 -->
<g id="edge8" class="edge">
<title>Node9&#45;&gt;Node8</title>
<path fill="none" stroke="midnightblue" d="M994.36,-54C1008.91,-54 1023.45,-54 1036.91,-54"/>
<polygon fill="midnightblue" stroke="midnightblue" points="994.29,-50.5 984.29,-54 994.29,-57.5 994.29,-50.5"/>
</g>
<!-- Node10 -->
<g id="node10" class="node">
<title>Node10</title>
<g id="a_node10"><a xlink:href="classitk_1_1Neighborhood.html" target="_top" xlink:title=" ">
<polygon fill="white" stroke="black" points="547,-28 547,-80 747,-80 747,-28 547,-28"/>
<text text-anchor="start" x="555" y="-68" font-family="Helvetica,sans-Serif" font-size="10.00">itk::Neighborhood&lt;</text>
<text text-anchor="start" x="555" y="-57" font-family="Helvetica,sans-Serif" font-size="10.00"> ScalarValueType, VDimension,</text>
<text text-anchor="start" x="555" y="-46" font-family="Helvetica,sans-Serif" font-size="10.00"> NeighborhoodAllocator&lt; ScalarValue</text>
<text text-anchor="middle" x="647" y="-35" font-family="Helvetica,sans-Serif" font-size="10.00">Type &gt; &gt;</text>
</a>
</g>
</g>
<!-- Node10&#45;&gt;Node9 -->
<g id="edge9" class="edge">
<title>Node10&#45;&gt;Node9</title>
<path fill="none" stroke="midnightblue" d="M757.52,-54C766.24,-54 775.01,-54 783.66,-54"/>
<polygon fill="midnightblue" stroke="midnightblue" points="757.32,-50.5 747.32,-54 757.32,-57.5 757.32,-50.5"/>
</g>
<!-- Node11 -->
<g id="node11" class="node">
<title>Node11</title>
<g id="a_node11"><a xlink:href="structitk_1_1Size.html" target="_top" xlink:title=" ">
<polygon fill="white" stroke="black" points="296,-88.5 296,-107.5 433,-107.5 433,-88.5 296,-88.5"/>
<text text-anchor="middle" x="364.5" y="-95.5" font-family="Helvetica,sans-Serif" font-size="10.00">itk::Size&lt; VDimension &gt;</text>
</a>
</g>
</g>
<!-- Node11&#45;&gt;Node10 -->
<g id="edge10" class="edge">
<title>Node11&#45;&gt;Node10</title>
<path fill="none" stroke="#9a32cd" stroke-dasharray="5,2" d="M436.52,-86.86C469.99,-81.61 510.5,-75.26 546.93,-69.54"/>
<polygon fill="#9a32cd" stroke="#9a32cd" points="435.7,-83.45 426.36,-88.45 436.79,-90.36 435.7,-83.45"/>
<text text-anchor="middle" x="492.5" y="-97" font-family="Helvetica,sans-Serif" font-size="10.00"> m_Radius</text>
<text text-anchor="middle" x="492.5" y="-86" font-family="Helvetica,sans-Serif" font-size="10.00">m_Size</text>
</g>
<!-- Node12 -->
<g id="node12" class="node">
<title>Node12</title>
<g id="a_node12"><a xlink:href="classitk_1_1NeighborhoodAllocator.html" target="_top" xlink:title=" ">
<polygon fill="white" stroke="black" points="291,-39 291,-69 438,-69 438,-39 291,-39"/>
<text text-anchor="start" x="299" y="-57" font-family="Helvetica,sans-Serif" font-size="10.00">itk::NeighborhoodAllocator</text>
<text text-anchor="middle" x="364.5" y="-46" font-family="Helvetica,sans-Serif" font-size="10.00">&lt; ScalarValueType &gt;</text>
</a>
</g>
</g>
<!-- Node12&#45;&gt;Node10 -->
<g id="edge11" class="edge">
<title>Node12&#45;&gt;Node10</title>
<path fill="none" stroke="#9a32cd" stroke-dasharray="5,2" d="M448.38,-54C479.25,-54 514.58,-54 546.76,-54"/>
<polygon fill="#9a32cd" stroke="#9a32cd" points="448.1,-50.5 438.1,-54 448.1,-57.5 448.1,-50.5"/>
<text text-anchor="middle" x="492.5" y="-57" font-family="Helvetica,sans-Serif" font-size="10.00"> m_DataBuffer</text>
</g>
<!-- Node13 -->
<g id="node13" class="node">
<title>Node13</title>
<g id="a_node13"><a xlink:title=" ">
<polygon fill="white" stroke="black" points="0,-39 0,-69 158,-69 158,-39 0,-39"/>
<text text-anchor="start" x="8" y="-57" font-family="Helvetica,sans-Serif" font-size="10.00">std::unique_ptr&lt; ScalarValue</text>
<text text-anchor="middle" x="79" y="-46" font-family="Helvetica,sans-Serif" font-size="10.00">Type[]&gt;</text>
</a>
</g>
</g>
<!-- Node13&#45;&gt;Node12 -->
<g id="edge12" class="edge">
<title>Node13&#45;&gt;Node12</title>
<path fill="none" stroke="#9a32cd" stroke-dasharray="5,2" d="M168.35,-54C207.72,-54 253.54,-54 290.89,-54"/>
<polygon fill="#9a32cd" stroke="#9a32cd" points="168.22,-50.5 158.22,-54 168.22,-57.5 168.22,-50.5"/>
<text text-anchor="middle" x="224.5" y="-57" font-family="Helvetica,sans-Serif" font-size="10.00"> m_Data</text>
</g>
<!-- Node14 -->
<g id="node14" class="node">
<title>Node14</title>
<g id="a_node14"><a xlink:title=" ">
<polygon fill="white" stroke="black" points="295,-0.5 295,-19.5 434,-19.5 434,-0.5 295,-0.5"/>
<text text-anchor="middle" x="364.5" y="-7.5" font-family="Helvetica,sans-Serif" font-size="10.00">std::vector&lt; itk::Offset &gt;</text>
</a>
</g>
</g>
<!-- Node14&#45;&gt;Node10 -->
<g id="edge13" class="edge">
<title>Node14&#45;&gt;Node10</title>
<path fill="none" stroke="#9a32cd" stroke-dasharray="5,2" d="M436.52,-21.14C469.99,-26.39 510.5,-32.74 546.93,-38.46"/>
<polygon fill="#9a32cd" stroke="#9a32cd" points="436.79,-17.64 426.36,-19.55 435.7,-24.55 436.79,-17.64"/>
<text text-anchor="middle" x="492.5" y="-38" font-family="Helvetica,sans-Serif" font-size="10.00"> m_OffsetTable</text>
</g>
<!-- Node15 -->
<g id="node15" class="node">
<title>Node15</title>
<g id="a_node15"><a xlink:href="structitk_1_1Offset.html" target="_top" xlink:title="Represent a n&#45;dimensional offset between two n&#45;dimensional indexes of n&#45;dimensional image.">
<polygon fill="white" stroke="black" points="6,-0.5 6,-19.5 152,-19.5 152,-0.5 6,-0.5"/>
<text text-anchor="middle" x="79" y="-7.5" font-family="Helvetica,sans-Serif" font-size="10.00">itk::Offset&lt; VDimension &gt;</text>
</a>
</g>
</g>
<!-- Node15&#45;&gt;Node14 -->
<g id="edge14" class="edge">
<title>Node15&#45;&gt;Node14</title>
<path fill="none" stroke="#9a32cd" stroke-dasharray="5,2" d="M162.48,-10C204.47,-10 254.92,-10 294.78,-10"/>
<polygon fill="#9a32cd" stroke="#9a32cd" points="162.27,-6.5 152.27,-10 162.27,-13.5 162.27,-6.5"/>
<text text-anchor="middle" x="224.5" y="-13" font-family="Helvetica,sans-Serif" font-size="10.00"> elements</text>
</g>
</g>
</svg>
