<?xml version="1.0" encoding="UTF-8" standalone="no"?>
<!DOCTYPE svg PUBLIC "-//W3C//DTD SVG 1.1//EN"
 "http://www.w3.org/Graphics/SVG/1.1/DTD/svg11.dtd">
<!-- Generated by graphviz version 2.43.0 (0)
 -->
<!-- Title: itk::HistogramToProbabilityImageFilter&lt; THistogram, TImage &gt; Pages: 1 -->
<svg width="1675pt" height="153pt"
 viewBox="0.00 0.00 1675.00 152.74" xmlns="http://www.w3.org/2000/svg" xmlns:xlink="http://www.w3.org/1999/xlink">
<g id="graph0" class="graph" transform="scale(1 1) rotate(0) translate(4 148.74)">
<title>itk::HistogramToProbabilityImageFilter&lt; THistogram, TImage &gt;</title>
<polygon fill="white" stroke="transparent" points="-4,4 -4,-148.74 1671,-148.74 1671,4 -4,4"/>
<!-- Node1 -->
<g id="node1" class="node">
<title>Node1</title>
<g id="a_node1"><a xlink:title="The class takes a histogram as an input and gives the probability image as the output....">
<polygon fill="#bfbfbf" stroke="black" points="1518,-20.74 1518,-61.74 1667,-61.74 1667,-20.74 1518,-20.74"/>
<text text-anchor="start" x="1526" y="-49.74" font-family="Helvetica,sans-Serif" font-size="10.00">itk::HistogramToProbability</text>
<text text-anchor="start" x="1526" y="-38.74" font-family="Helvetica,sans-Serif" font-size="10.00">ImageFilter&lt; THistogram,</text>
<text text-anchor="middle" x="1592.5" y="-27.74" font-family="Helvetica,sans-Serif" font-size="10.00"> TImage &gt;</text>
</a>
</g>
</g>
<!-- Node2 -->
<g id="node2" class="node">
<title>Node2</title>
<g id="a_node2"><a xlink:href="classitk_1_1HistogramToImageFilter.html" target="_top" xlink:title=" ">
<polygon fill="white" stroke="black" points="1287,-9.74 1287,-72.74 1481,-72.74 1481,-9.74 1287,-9.74"/>
<text text-anchor="start" x="1295" y="-60.74" font-family="Helvetica,sans-Serif" font-size="10.00">itk::HistogramToImageFilter</text>
<text text-anchor="start" x="1295" y="-49.74" font-family="Helvetica,sans-Serif" font-size="10.00">&lt; THistogram, Image&lt; float,</text>
<text text-anchor="start" x="1295" y="-38.74" font-family="Helvetica,sans-Serif" font-size="10.00"> 3 &gt;, Function::HistogramProbability</text>
<text text-anchor="start" x="1295" y="-27.74" font-family="Helvetica,sans-Serif" font-size="10.00">Function&lt; SizeValueType, Image&lt;</text>
<text text-anchor="middle" x="1384" y="-16.74" font-family="Helvetica,sans-Serif" font-size="10.00"> float, 3 &gt; ::PixelType &gt; &gt;</text>
</a>
</g>
</g>
<!-- Node2&#45;&gt;Node1 -->
<g id="edge1" class="edge">
<title>Node2&#45;&gt;Node1</title>
<path fill="none" stroke="midnightblue" d="M1491.4,-41.24C1500.36,-41.24 1509.28,-41.24 1517.9,-41.24"/>
<polygon fill="midnightblue" stroke="midnightblue" points="1491.3,-37.74 1481.3,-41.24 1491.3,-44.74 1491.3,-37.74"/>
</g>
<!-- Node3 -->
<g id="node3" class="node">
<title>Node3</title>
<g id="a_node3"><a xlink:href="classitk_1_1ImageSource.html" target="_top" xlink:title=" ">
<polygon fill="white" stroke="black" points="718.5,-2.24 718.5,-32.24 859.5,-32.24 859.5,-2.24 718.5,-2.24"/>
<text text-anchor="start" x="726.5" y="-20.24" font-family="Helvetica,sans-Serif" font-size="10.00">itk::ImageSource&lt; Image</text>
<text text-anchor="middle" x="789" y="-9.24" font-family="Helvetica,sans-Serif" font-size="10.00">&lt; float, 3 &gt; &gt;</text>
</a>
</g>
</g>
<!-- Node3&#45;&gt;Node2 -->
<g id="edge2" class="edge">
<title>Node3&#45;&gt;Node2</title>
<path fill="none" stroke="midnightblue" d="M869.97,-20.48C978.14,-24.85 1170.86,-32.65 1286.81,-37.35"/>
<polygon fill="midnightblue" stroke="midnightblue" points="869.9,-16.97 859.77,-20.06 869.62,-23.96 869.9,-16.97"/>
</g>
<!-- Node4 -->
<g id="node4" class="node">
<title>Node4</title>
<g id="a_node4"><a xlink:href="classitk_1_1ProcessObject.html" target="_top" xlink:title="The base class for all process objects (source, filters, mappers) in the Insight data processing pipe...">
<polygon fill="white" stroke="black" points="251.5,-104.74 251.5,-123.74 355.5,-123.74 355.5,-104.74 251.5,-104.74"/>
<text text-anchor="middle" x="303.5" y="-111.74" font-family="Helvetica,sans-Serif" font-size="10.00">itk::ProcessObject</text>
</a>
</g>
</g>
<!-- Node4&#45;&gt;Node3 -->
<g id="edge3" class="edge">
<title>Node4&#45;&gt;Node3</title>
<path fill="none" stroke="midnightblue" d="M365.79,-113.82C443.53,-111.68 580.82,-102.49 692,-66.24 700.7,-63.4 701.91,-60.51 710,-56.24 725.4,-48.12 742.7,-39.42 757.09,-32.31"/>
<polygon fill="midnightblue" stroke="midnightblue" points="365.6,-110.32 355.69,-114.07 365.77,-117.32 365.6,-110.32"/>
</g>
<!-- Node8 -->
<g id="node8" class="node">
<title>Node8</title>
<g id="a_node8"><a xlink:href="classitk_1_1ImageSource.html" target="_top" xlink:title="Base class for all process objects that output image data.">
<polygon fill="white" stroke="black" points="412,-15.24 412,-45.24 561,-45.24 561,-15.24 412,-15.24"/>
<text text-anchor="start" x="420" y="-33.24" font-family="Helvetica,sans-Serif" font-size="10.00">itk::ImageSource&lt; TOutput</text>
<text text-anchor="middle" x="486.5" y="-22.24" font-family="Helvetica,sans-Serif" font-size="10.00">Image &gt;</text>
</a>
</g>
</g>
<!-- Node4&#45;&gt;Node8 -->
<g id="edge8" class="edge">
<title>Node4&#45;&gt;Node8</title>
<path fill="none" stroke="midnightblue" d="M334.34,-100.39C367.07,-85.2 419.4,-60.92 453.1,-45.27"/>
<polygon fill="midnightblue" stroke="midnightblue" points="332.86,-97.22 325.26,-104.6 335.81,-103.57 332.86,-97.22"/>
</g>
<!-- Node10 -->
<g id="node10" class="node">
<title>Node10</title>
<g id="a_node10"><a xlink:href="classitk_1_1ImageSource.html" target="_top" xlink:title=" ">
<polygon fill="white" stroke="black" points="710,-65.74 710,-84.74 868,-84.74 868,-65.74 710,-65.74"/>
<text text-anchor="middle" x="789" y="-72.74" font-family="Helvetica,sans-Serif" font-size="10.00">itk::ImageSource&lt; TImage &gt;</text>
</a>
</g>
</g>
<!-- Node4&#45;&gt;Node10 -->
<g id="edge12" class="edge">
<title>Node4&#45;&gt;Node10</title>
<path fill="none" stroke="midnightblue" d="M358.33,-125.7C434.14,-139.72 576.04,-158.12 692,-128.24 724.63,-119.83 758.03,-97.71 775.54,-84.86"/>
<polygon fill="midnightblue" stroke="midnightblue" points="358.56,-122.18 348.08,-123.76 357.26,-129.06 358.56,-122.18"/>
</g>
<!-- Node5 -->
<g id="node5" class="node">
<title>Node5</title>
<g id="a_node5"><a xlink:href="classitk_1_1Object.html" target="_top" xlink:title="Base class for most ITK classes.">
<polygon fill="white" stroke="black" points="128,-104.74 128,-123.74 195,-123.74 195,-104.74 128,-104.74"/>
<text text-anchor="middle" x="161.5" y="-111.74" font-family="Helvetica,sans-Serif" font-size="10.00">itk::Object</text>
</a>
</g>
</g>
<!-- Node5&#45;&gt;Node4 -->
<g id="edge4" class="edge">
<title>Node5&#45;&gt;Node4</title>
<path fill="none" stroke="midnightblue" d="M205.49,-114.24C219.95,-114.24 236.22,-114.24 251.25,-114.24"/>
<polygon fill="midnightblue" stroke="midnightblue" points="205.32,-110.74 195.32,-114.24 205.32,-117.74 205.32,-110.74"/>
</g>
<!-- Node6 -->
<g id="node6" class="node">
<title>Node6</title>
<g id="a_node6"><a xlink:href="classitk_1_1LightObject.html" target="_top" xlink:title="Light weight base class for most itk classes.">
<polygon fill="white" stroke="black" points="0,-104.74 0,-123.74 91,-123.74 91,-104.74 0,-104.74"/>
<text text-anchor="middle" x="45.5" y="-111.74" font-family="Helvetica,sans-Serif" font-size="10.00">itk::LightObject</text>
</a>
</g>
</g>
<!-- Node6&#45;&gt;Node5 -->
<g id="edge5" class="edge">
<title>Node6&#45;&gt;Node5</title>
<path fill="none" stroke="midnightblue" d="M101.39,-114.24C110.45,-114.24 119.59,-114.24 127.88,-114.24"/>
<polygon fill="midnightblue" stroke="midnightblue" points="101.23,-110.74 91.23,-114.24 101.23,-117.74 101.23,-110.74"/>
</g>
<!-- Node7 -->
<g id="node7" class="node">
<title>Node7</title>
<g id="a_node7"><a xlink:href="structitk_1_1ImageSourceCommon.html" target="_top" xlink:title="Secondary base class of ImageSource common between templates.">
<polygon fill="white" stroke="black" points="232,-16.74 232,-35.74 375,-35.74 375,-16.74 232,-16.74"/>
<text text-anchor="middle" x="303.5" y="-23.74" font-family="Helvetica,sans-Serif" font-size="10.00">itk::ImageSourceCommon</text>
</a>
</g>
</g>
<!-- Node7&#45;&gt;Node3 -->
<g id="edge6" class="edge">
<title>Node7&#45;&gt;Node3</title>
<path fill="none" stroke="#8b1a1a" d="M353.39,-14.62C371.67,-10.83 392.68,-7.11 412,-5.24 518.45,5.06 642.56,-2.73 718.18,-9.68"/>
<polygon fill="#8b1a1a" stroke="#8b1a1a" points="352.59,-11.21 343.55,-16.73 354.06,-18.06 352.59,-11.21"/>
</g>
<!-- Node7&#45;&gt;Node8 -->
<g id="edge9" class="edge">
<title>Node7&#45;&gt;Node8</title>
<path fill="none" stroke="#8b1a1a" d="M385.48,-28.03C394.24,-28.22 403.13,-28.42 411.81,-28.61"/>
<polygon fill="#8b1a1a" stroke="#8b1a1a" points="385.33,-24.52 375.26,-27.8 385.18,-31.52 385.33,-24.52"/>
</g>
<!-- Node7&#45;&gt;Node10 -->
<g id="edge13" class="edge">
<title>Node7&#45;&gt;Node10</title>
<path fill="none" stroke="#8b1a1a" d="M344.47,-38.68C364.54,-44.4 389.34,-50.69 412,-54.24 514.06,-70.22 633.36,-74.47 709.75,-75.39"/>
<polygon fill="#8b1a1a" stroke="#8b1a1a" points="345.32,-35.28 334.74,-35.84 343.36,-42 345.32,-35.28"/>
</g>
<!-- Node8&#45;&gt;Node3 -->
<g id="edge7" class="edge">
<title>Node8&#45;&gt;Node3</title>
<path fill="none" stroke="orange" stroke-dasharray="5,2" d="M571.34,-17.85C573.92,-17.62 576.48,-17.42 579,-17.24 625.33,-13.96 677.58,-13.96 718.25,-14.78"/>
<polygon fill="orange" stroke="orange" points="570.92,-14.38 561.31,-18.84 571.61,-21.34 570.92,-14.38"/>
<text text-anchor="middle" x="635.5" y="-20.24" font-family="Helvetica,sans-Serif" font-size="10.00"> &lt; Image&lt; float, 3 &gt; &gt;</text>
</g>
<!-- Node8&#45;&gt;Node10 -->
<g id="edge14" class="edge">
<title>Node8&#45;&gt;Node10</title>
<path fill="none" stroke="orange" stroke-dasharray="5,2" d="M571.48,-36.14C608.59,-39.45 652.64,-44.33 692,-51.24 713.15,-54.95 736.54,-60.76 754.93,-65.73"/>
<polygon fill="orange" stroke="orange" points="571.47,-32.63 561.2,-35.25 570.86,-39.6 571.47,-32.63"/>
<text text-anchor="middle" x="635.5" y="-54.24" font-family="Helvetica,sans-Serif" font-size="10.00"> &lt; TImage &gt;</text>
</g>
<!-- Node9 -->
<g id="node9" class="node">
<title>Node9</title>
<g id="a_node9"><a xlink:href="classitk_1_1HistogramToImageFilter.html" target="_top" xlink:title="This class takes a histogram as an input and returns an image of type specified by the functor.">
<polygon fill="white" stroke="black" points="905,-58.24 905,-88.24 1097,-88.24 1097,-58.24 905,-58.24"/>
<text text-anchor="start" x="913" y="-76.24" font-family="Helvetica,sans-Serif" font-size="10.00">itk::HistogramToImageFilter</text>
<text text-anchor="middle" x="1001" y="-65.24" font-family="Helvetica,sans-Serif" font-size="10.00">&lt; THistogram, TImage, TFunction &gt;</text>
</a>
</g>
</g>
<!-- Node9&#45;&gt;Node2 -->
<g id="edge10" class="edge">
<title>Node9&#45;&gt;Node2</title>
<path fill="none" stroke="orange" stroke-dasharray="5,2" d="M1107.14,-64.41C1163.31,-59.69 1231.97,-53.92 1286.74,-49.32"/>
<polygon fill="orange" stroke="orange" points="1106.83,-60.92 1097.16,-65.25 1107.42,-67.9 1106.83,-60.92"/>
<text text-anchor="start" x="1115" y="-110.24" font-family="Helvetica,sans-Serif" font-size="10.00"> &lt; THistogram, Image</text>
<text text-anchor="start" x="1115" y="-99.24" font-family="Helvetica,sans-Serif" font-size="10.00">&lt; float, 3 &gt;, Function</text>
<text text-anchor="start" x="1115" y="-88.24" font-family="Helvetica,sans-Serif" font-size="10.00">::HistogramProbabilityFunction</text>
<text text-anchor="start" x="1115" y="-77.24" font-family="Helvetica,sans-Serif" font-size="10.00">&lt; SizeValueType, Image&lt; float,</text>
<text text-anchor="middle" x="1192" y="-66.24" font-family="Helvetica,sans-Serif" font-size="10.00"> 3 &gt; ::PixelType &gt; &gt;</text>
</g>
<!-- Node10&#45;&gt;Node9 -->
<g id="edge11" class="edge">
<title>Node10&#45;&gt;Node9</title>
<path fill="none" stroke="midnightblue" d="M878.33,-74.4C887.04,-74.32 895.91,-74.23 904.69,-74.15"/>
<polygon fill="midnightblue" stroke="midnightblue" points="878.16,-70.9 868.2,-74.49 878.23,-77.9 878.16,-70.9"/>
</g>
</g>
</svg>
