<?xml version="1.0" encoding="UTF-8" standalone="no"?>
<!DOCTYPE svg PUBLIC "-//W3C//DTD SVG 1.1//EN"
 "http://www.w3.org/Graphics/SVG/1.1/DTD/svg11.dtd">
<!-- Generated by graphviz version 2.43.0 (0)
 -->
<!-- Title: itk::BSplineDeformableTransform&lt; TParametersValueType, VDimension, VSplineOrder &gt; Pages: 1 -->
<svg width="1308pt" height="154pt"
 viewBox="0.00 0.00 1308.00 153.50" xmlns="http://www.w3.org/2000/svg" xmlns:xlink="http://www.w3.org/1999/xlink">
<g id="graph0" class="graph" transform="scale(1 1) rotate(0) translate(4 149.5)">
<title>itk::BSplineDeformableTransform&lt; TParametersValueType, VDimension, VSplineOrder &gt;</title>
<polygon fill="white" stroke="transparent" points="-4,4 -4,-149.5 1304,-149.5 1304,4 -4,4"/>
<!-- Node1 -->
<g id="node1" class="node">
<title>Node1</title>
<g id="a_node1"><a xlink:title="Deformable transform using a BSpline representation.">
<polygon fill="#bfbfbf" stroke="black" points="1093,-6 1093,-47 1300,-47 1300,-6 1093,-6"/>
<text text-anchor="start" x="1101" y="-35" font-family="Helvetica,sans-Serif" font-size="10.00">itk::BSplineDeformableTransform</text>
<text text-anchor="start" x="1101" y="-24" font-family="Helvetica,sans-Serif" font-size="10.00">&lt; TParametersValueType, VDimension,</text>
<text text-anchor="middle" x="1196.5" y="-13" font-family="Helvetica,sans-Serif" font-size="10.00"> VSplineOrder &gt;</text>
</a>
</g>
</g>
<!-- Node2 -->
<g id="node2" class="node">
<title>Node2</title>
<g id="a_node2"><a xlink:href="classitk_1_1BSplineBaseTransform.html" target="_top" xlink:title=" ">
<polygon fill="white" stroke="black" points="911,-47.5 911,-77.5 1056,-77.5 1056,-47.5 911,-47.5"/>
<text text-anchor="start" x="919" y="-65.5" font-family="Helvetica,sans-Serif" font-size="10.00">itk::BSplineBaseTransform</text>
<text text-anchor="middle" x="983.5" y="-54.5" font-family="Helvetica,sans-Serif" font-size="10.00">&lt; double, 3, 3 &gt;</text>
</a>
</g>
</g>
<!-- Node2&#45;&gt;Node1 -->
<g id="edge1" class="edge">
<title>Node2&#45;&gt;Node1</title>
<path fill="none" stroke="midnightblue" d="M1066.34,-48.54C1075.06,-47.05 1084.01,-45.52 1092.92,-44"/>
<polygon fill="midnightblue" stroke="midnightblue" points="1065.5,-45.13 1056.23,-50.26 1066.68,-52.03 1065.5,-45.13"/>
</g>
<!-- Node3 -->
<g id="node3" class="node">
<title>Node3</title>
<g id="a_node3"><a xlink:href="classitk_1_1Transform.html" target="_top" xlink:title=" ">
<polygon fill="white" stroke="black" points="607,-102.5 607,-132.5 762,-132.5 762,-102.5 607,-102.5"/>
<text text-anchor="start" x="615" y="-120.5" font-family="Helvetica,sans-Serif" font-size="10.00">itk::Transform&lt; double,</text>
<text text-anchor="middle" x="684.5" y="-109.5" font-family="Helvetica,sans-Serif" font-size="10.00"> VDimension, VDimension &gt;</text>
</a>
</g>
</g>
<!-- Node3&#45;&gt;Node2 -->
<g id="edge2" class="edge">
<title>Node3&#45;&gt;Node2</title>
<path fill="none" stroke="midnightblue" d="M772.72,-102.39C809.83,-95.84 853.57,-87.98 893,-80.5 898.76,-79.41 904.73,-78.25 910.72,-77.08"/>
<polygon fill="midnightblue" stroke="midnightblue" points="771.68,-99.02 762.44,-104.2 772.89,-105.91 771.68,-99.02"/>
</g>
<!-- Node4 -->
<g id="node4" class="node">
<title>Node4</title>
<g id="a_node4"><a xlink:href="classTransformBaseTemplate.html" target="_top" xlink:title=" ">
<polygon fill="white" stroke="black" points="349,-102.5 349,-132.5 483,-132.5 483,-102.5 349,-102.5"/>
<text text-anchor="start" x="357" y="-120.5" font-family="Helvetica,sans-Serif" font-size="10.00">TransformBaseTemplate</text>
<text text-anchor="middle" x="416" y="-109.5" font-family="Helvetica,sans-Serif" font-size="10.00">&lt; double &gt;</text>
</a>
</g>
</g>
<!-- Node4&#45;&gt;Node3 -->
<g id="edge3" class="edge">
<title>Node4&#45;&gt;Node3</title>
<path fill="none" stroke="midnightblue" d="M493.53,-117.5C529.06,-117.5 571.2,-117.5 606.76,-117.5"/>
<polygon fill="midnightblue" stroke="midnightblue" points="493.22,-114 483.22,-117.5 493.22,-121 493.22,-114"/>
</g>
<!-- Node5 -->
<g id="node5" class="node">
<title>Node5</title>
<g id="a_node5"><a xlink:title=" ">
<polygon fill="white" stroke="black" points="149.5,-126 149.5,-145 197.5,-145 197.5,-126 149.5,-126"/>
<text text-anchor="middle" x="173.5" y="-133" font-family="Helvetica,sans-Serif" font-size="10.00">Object</text>
</a>
</g>
</g>
<!-- Node5&#45;&gt;Node4 -->
<g id="edge4" class="edge">
<title>Node5&#45;&gt;Node4</title>
<path fill="none" stroke="midnightblue" d="M207.6,-133.02C243.87,-130.31 302.99,-125.88 348.85,-122.45"/>
<polygon fill="midnightblue" stroke="midnightblue" points="207.27,-129.54 197.56,-133.77 207.79,-136.52 207.27,-129.54"/>
</g>
<!-- Node6 -->
<g id="node6" class="node">
<title>Node6</title>
<g id="a_node6"><a xlink:title=" ">
<polygon fill="white" stroke="black" points="141,-88 141,-107 206,-107 206,-88 141,-88"/>
<text text-anchor="middle" x="173.5" y="-95" font-family="Helvetica,sans-Serif" font-size="10.00">std::string</text>
</a>
</g>
</g>
<!-- Node6&#45;&gt;Node4 -->
<g id="edge5" class="edge">
<title>Node6&#45;&gt;Node4</title>
<path fill="none" stroke="#9a32cd" stroke-dasharray="5,2" d="M216.3,-94.86C247.92,-93.5 292.33,-92.96 331,-97.5 340.38,-98.6 350.23,-100.37 359.75,-102.42"/>
<polygon fill="#9a32cd" stroke="#9a32cd" points="215.92,-91.37 206.1,-95.35 216.26,-98.37 215.92,-91.37"/>
<text text-anchor="middle" x="277.5" y="-111.5" font-family="Helvetica,sans-Serif" font-size="10.00"> m_InputSpaceName</text>
<text text-anchor="middle" x="277.5" y="-100.5" font-family="Helvetica,sans-Serif" font-size="10.00">m_OutputSpaceName</text>
</g>
<!-- Node7 -->
<g id="node7" class="node">
<title>Node7</title>
<g id="a_node7"><a xlink:title=" ">
<polygon fill="white" stroke="black" points="0,-82.5 0,-112.5 104,-112.5 104,-82.5 0,-82.5"/>
<text text-anchor="start" x="8" y="-100.5" font-family="Helvetica,sans-Serif" font-size="10.00">std::basic_string&lt;</text>
<text text-anchor="middle" x="52" y="-89.5" font-family="Helvetica,sans-Serif" font-size="10.00"> Char &gt;</text>
</a>
</g>
</g>
<!-- Node7&#45;&gt;Node6 -->
<g id="edge6" class="edge">
<title>Node7&#45;&gt;Node6</title>
<path fill="none" stroke="midnightblue" d="M114.1,-97.5C123.41,-97.5 132.68,-97.5 141,-97.5"/>
<polygon fill="midnightblue" stroke="midnightblue" points="114.03,-94 104.03,-97.5 114.03,-101 114.03,-94"/>
</g>
<!-- Node8 -->
<g id="node8" class="node">
<title>Node8</title>
<g id="a_node8"><a xlink:href="classitk_1_1FixedArray.html" target="_top" xlink:title=" ">
<polygon fill="white" stroke="black" points="601,-53.5 601,-83.5 768,-83.5 768,-53.5 601,-53.5"/>
<text text-anchor="start" x="609" y="-71.5" font-family="Helvetica,sans-Serif" font-size="10.00">itk::FixedArray&lt; ImagePointer,</text>
<text text-anchor="middle" x="684.5" y="-60.5" font-family="Helvetica,sans-Serif" font-size="10.00"> VDimension &gt;</text>
</a>
</g>
</g>
<!-- Node8&#45;&gt;Node2 -->
<g id="edge7" class="edge">
<title>Node8&#45;&gt;Node2</title>
<path fill="none" stroke="#9a32cd" stroke-dasharray="5,2" d="M778.36,-66.62C821.1,-65.76 871.02,-64.75 910.8,-63.95"/>
<polygon fill="#9a32cd" stroke="#9a32cd" points="778.16,-63.13 768.23,-66.83 778.3,-70.13 778.16,-63.13"/>
<text text-anchor="middle" x="839.5" y="-68.5" font-family="Helvetica,sans-Serif" font-size="10.00"> m_CoefficientImages</text>
</g>
<!-- Node9 -->
<g id="node9" class="node">
<title>Node9</title>
<g id="a_node9"><a xlink:href="classVLength.html" target="_top" xlink:title=" ">
<polygon fill="white" stroke="black" points="388,-59 388,-78 444,-78 444,-59 388,-59"/>
<text text-anchor="middle" x="416" y="-66" font-family="Helvetica,sans-Serif" font-size="10.00">VLength</text>
</a>
</g>
</g>
<!-- Node9&#45;&gt;Node8 -->
<g id="edge8" class="edge">
<title>Node9&#45;&gt;Node8</title>
<path fill="none" stroke="#9a32cd" stroke-dasharray="5,2" d="M454.06,-68.5C491.82,-68.5 551.65,-68.5 600.75,-68.5"/>
<polygon fill="#9a32cd" stroke="#9a32cd" points="454.02,-65 444.02,-68.5 454.02,-72 454.02,-65"/>
<text text-anchor="middle" x="542" y="-71.5" font-family="Helvetica,sans-Serif" font-size="10.00"> m_InternalArray</text>
</g>
<!-- Node10 -->
<g id="node10" class="node">
<title>Node10</title>
<g id="a_node10"><a xlink:href="classitk_1_1SmartPointer.html" target="_top" xlink:title="Implements transparent reference counting.">
<polygon fill="white" stroke="black" points="631,-0.5 631,-30.5 738,-30.5 738,-0.5 631,-0.5"/>
<text text-anchor="start" x="639" y="-18.5" font-family="Helvetica,sans-Serif" font-size="10.00">itk::SmartPointer&lt;</text>
<text text-anchor="middle" x="684.5" y="-7.5" font-family="Helvetica,sans-Serif" font-size="10.00"> TObjectType &gt;</text>
</a>
</g>
</g>
<!-- Node10&#45;&gt;Node1 -->
<g id="edge10" class="edge">
<title>Node10&#45;&gt;Node1</title>
<path fill="none" stroke="#9a32cd" stroke-dasharray="5,2" d="M748.29,-16.85C834.22,-18.71 989.54,-22.06 1092.61,-24.28"/>
<polygon fill="#9a32cd" stroke="#9a32cd" points="748.23,-13.35 738.16,-16.64 748.08,-20.35 748.23,-13.35"/>
<text text-anchor="middle" x="983.5" y="-26.5" font-family="Helvetica,sans-Serif" font-size="10.00"> m_BulkTransform</text>
</g>
<!-- Node10&#45;&gt;Node2 -->
<g id="edge9" class="edge">
<title>Node10&#45;&gt;Node2</title>
<path fill="none" stroke="#9a32cd" stroke-dasharray="5,2" d="M748.13,-25.41C795.75,-32.95 861.32,-43.32 911,-51.19"/>
<polygon fill="#9a32cd" stroke="#9a32cd" points="748.68,-21.95 738.26,-23.85 747.59,-28.87 748.68,-21.95"/>
<text text-anchor="middle" x="839.5" y="-49.5" font-family="Helvetica,sans-Serif" font-size="10.00"> m_WeightsFunction</text>
</g>
</g>
</svg>
