<?xml version="1.0" encoding="UTF-8" standalone="no"?>
<!DOCTYPE svg PUBLIC "-//W3C//DTD SVG 1.1//EN"
 "http://www.w3.org/Graphics/SVG/1.1/DTD/svg11.dtd">
<!-- Generated by graphviz version 2.43.0 (0)
 -->
<!-- Title: itk::BoxSpatialObject&lt; TDimension &gt; Pages: 1 -->
<svg width="186pt" height="345pt"
 viewBox="0.00 0.00 186.00 345.00" xmlns="http://www.w3.org/2000/svg" xmlns:xlink="http://www.w3.org/1999/xlink">
<g id="graph0" class="graph" transform="scale(1 1) rotate(0) translate(4 341)">
<title>itk::BoxSpatialObject&lt; TDimension &gt;</title>
<polygon fill="white" stroke="transparent" points="-4,4 -4,-341 182,-341 182,4 -4,4"/>
<!-- Node1 -->
<g id="node1" class="node">
<title>Node1</title>
<g id="a_node1"><a xlink:title="The class may be used to represent N&#45;dimensional boxes. In two dimensions it is a rectangle,...">
<polygon fill="#bfbfbf" stroke="black" points="5,-0.5 5,-30.5 124,-30.5 124,-0.5 5,-0.5"/>
<text text-anchor="start" x="13" y="-18.5" font-family="Helvetica,sans-Serif" font-size="10.00">itk::BoxSpatialObject</text>
<text text-anchor="middle" x="64.5" y="-7.5" font-family="Helvetica,sans-Serif" font-size="10.00">&lt; TDimension &gt;</text>
</a>
</g>
</g>
<!-- Node2 -->
<g id="node2" class="node">
<title>Node2</title>
<g id="a_node2"><a xlink:href="classitk_1_1SpatialObject.html" target="_top" xlink:title=" ">
<polygon fill="white" stroke="black" points="0,-68.5 0,-87.5 129,-87.5 129,-68.5 0,-68.5"/>
<text text-anchor="middle" x="64.5" y="-75.5" font-family="Helvetica,sans-Serif" font-size="10.00">itk::SpatialObject&lt; 3 &gt;</text>
</a>
</g>
</g>
<!-- Node2&#45;&gt;Node1 -->
<g id="edge1" class="edge">
<title>Node2&#45;&gt;Node1</title>
<path fill="none" stroke="midnightblue" d="M64.5,-58.22C64.5,-49.36 64.5,-38.96 64.5,-30.76"/>
<polygon fill="midnightblue" stroke="midnightblue" points="61,-58.33 64.5,-68.33 68,-58.33 61,-58.33"/>
</g>
<!-- Node3 -->
<g id="node3" class="node">
<title>Node3</title>
<g id="a_node3"><a xlink:href="classitk_1_1DataObject.html" target="_top" xlink:title="Base class for all data objects in ITK.">
<polygon fill="white" stroke="black" points="15.5,-203.5 15.5,-222.5 105.5,-222.5 105.5,-203.5 15.5,-203.5"/>
<text text-anchor="middle" x="60.5" y="-210.5" font-family="Helvetica,sans-Serif" font-size="10.00">itk::DataObject</text>
</a>
</g>
</g>
<!-- Node3&#45;&gt;Node2 -->
<g id="edge2" class="edge">
<title>Node3&#45;&gt;Node2</title>
<path fill="none" stroke="midnightblue" d="M61.07,-193.13C61.95,-163.88 63.6,-108.76 64.24,-87.59"/>
<polygon fill="midnightblue" stroke="midnightblue" points="57.56,-193.17 60.76,-203.27 64.56,-193.38 57.56,-193.17"/>
</g>
<!-- Node6 -->
<g id="node6" class="node">
<title>Node6</title>
<g id="a_node6"><a xlink:href="classitk_1_1SpatialObject.html" target="_top" xlink:title="Implementation of the composite pattern.">
<polygon fill="white" stroke="black" points="77,-135.5 77,-165.5 178,-165.5 178,-135.5 77,-135.5"/>
<text text-anchor="start" x="85" y="-153.5" font-family="Helvetica,sans-Serif" font-size="10.00">itk::SpatialObject</text>
<text text-anchor="middle" x="127.5" y="-142.5" font-family="Helvetica,sans-Serif" font-size="10.00">&lt; VDimension &gt;</text>
</a>
</g>
</g>
<!-- Node3&#45;&gt;Node6 -->
<g id="edge6" class="edge">
<title>Node3&#45;&gt;Node6</title>
<path fill="none" stroke="midnightblue" d="M77.53,-196.62C88.13,-187.05 101.66,-174.83 111.97,-165.53"/>
<polygon fill="midnightblue" stroke="midnightblue" points="75.18,-194.03 70.1,-203.33 79.87,-199.23 75.18,-194.03"/>
</g>
<!-- Node4 -->
<g id="node4" class="node">
<title>Node4</title>
<g id="a_node4"><a xlink:href="classitk_1_1Object.html" target="_top" xlink:title="Base class for most ITK classes.">
<polygon fill="white" stroke="black" points="27,-260.5 27,-279.5 94,-279.5 94,-260.5 27,-260.5"/>
<text text-anchor="middle" x="60.5" y="-267.5" font-family="Helvetica,sans-Serif" font-size="10.00">itk::Object</text>
</a>
</g>
</g>
<!-- Node4&#45;&gt;Node3 -->
<g id="edge3" class="edge">
<title>Node4&#45;&gt;Node3</title>
<path fill="none" stroke="midnightblue" d="M60.5,-250.12C60.5,-240.82 60.5,-230.06 60.5,-222.71"/>
<polygon fill="midnightblue" stroke="midnightblue" points="57,-250.41 60.5,-260.41 64,-250.41 57,-250.41"/>
</g>
<!-- Node5 -->
<g id="node5" class="node">
<title>Node5</title>
<g id="a_node5"><a xlink:href="classitk_1_1LightObject.html" target="_top" xlink:title="Light weight base class for most itk classes.">
<polygon fill="white" stroke="black" points="15,-317.5 15,-336.5 106,-336.5 106,-317.5 15,-317.5"/>
<text text-anchor="middle" x="60.5" y="-324.5" font-family="Helvetica,sans-Serif" font-size="10.00">itk::LightObject</text>
</a>
</g>
</g>
<!-- Node5&#45;&gt;Node4 -->
<g id="edge4" class="edge">
<title>Node5&#45;&gt;Node4</title>
<path fill="none" stroke="midnightblue" d="M60.5,-307.12C60.5,-297.82 60.5,-287.06 60.5,-279.71"/>
<polygon fill="midnightblue" stroke="midnightblue" points="57,-307.41 60.5,-317.41 64,-307.41 57,-307.41"/>
</g>
<!-- Node6&#45;&gt;Node2 -->
<g id="edge5" class="edge">
<title>Node6&#45;&gt;Node2</title>
<path fill="none" stroke="orange" stroke-dasharray="5,2" d="M108.07,-127.76C96.08,-114.34 81.34,-97.85 72.45,-87.89"/>
<polygon fill="orange" stroke="orange" points="105.48,-130.11 114.75,-135.23 110.7,-125.44 105.48,-130.11"/>
<text text-anchor="middle" x="113.5" y="-109" font-family="Helvetica,sans-Serif" font-size="10.00"> &lt; 3 &gt;</text>
</g>
</g>
</svg>
