<?xml version="1.0" encoding="UTF-8" standalone="no"?>
<!DOCTYPE svg PUBLIC "-//W3C//DTD SVG 1.1//EN"
 "http://www.w3.org/Graphics/SVG/1.1/DTD/svg11.dtd">
<!-- Generated by graphviz version 2.43.0 (0)
 -->
<!-- Title: itk::TransformParametersAdaptorBase&lt; TTransform &gt; Pages: 1 -->
<svg width="1475pt" height="284pt"
 viewBox="0.00 0.00 1475.00 284.00" xmlns="http://www.w3.org/2000/svg" xmlns:xlink="http://www.w3.org/1999/xlink">
<g id="graph0" class="graph" transform="scale(1 1) rotate(0) translate(4 280)">
<title>itk::TransformParametersAdaptorBase&lt; TTransform &gt;</title>
<polygon fill="white" stroke="transparent" points="-4,4 -4,-280 1471,-280 1471,4 -4,4"/>
<!-- Node1 -->
<g id="node1" class="node">
<title>Node1</title>
<g id="a_node1"><a xlink:title="Base helper class intended for multi&#45;resolution image registration.">
<polygon fill="#bfbfbf" stroke="black" points="232,-121 232,-151 388,-151 388,-121 232,-121"/>
<text text-anchor="start" x="240" y="-139" font-family="Helvetica,sans-Serif" font-size="10.00">itk::TransformParameters</text>
<text text-anchor="middle" x="310" y="-128" font-family="Helvetica,sans-Serif" font-size="10.00">AdaptorBase&lt; TTransform &gt;</text>
</a>
</g>
</g>
<!-- Node4 -->
<g id="node4" class="node">
<title>Node4</title>
<g id="a_node4"><a xlink:href="classitk_1_1TransformParametersAdaptorBase.html" target="_top" xlink:title=" ">
<polygon fill="white" stroke="black" points="598,-104.5 598,-167.5 816,-167.5 816,-104.5 598,-104.5"/>
<text text-anchor="start" x="606" y="-155.5" font-family="Helvetica,sans-Serif" font-size="10.00">itk::TransformParameters</text>
<text text-anchor="start" x="606" y="-144.5" font-family="Helvetica,sans-Serif" font-size="10.00">AdaptorBase&lt; Transform</text>
<text text-anchor="start" x="606" y="-133.5" font-family="Helvetica,sans-Serif" font-size="10.00">&lt; TTransform::ScalarType,</text>
<text text-anchor="start" x="606" y="-122.5" font-family="Helvetica,sans-Serif" font-size="10.00"> TTransform::InputSpaceDimension,</text>
<text text-anchor="middle" x="707" y="-111.5" font-family="Helvetica,sans-Serif" font-size="10.00"> TTransform::OutputSpaceDimension &gt; &gt;</text>
</a>
</g>
</g>
<!-- Node1&#45;&gt;Node4 -->
<g id="edge3" class="edge">
<title>Node1&#45;&gt;Node4</title>
<path fill="none" stroke="orange" stroke-dasharray="5,2" d="M398.1,-136C456.9,-136 534.92,-136 597.72,-136"/>
<polygon fill="orange" stroke="orange" points="398.1,-132.5 388.1,-136 398.1,-139.5 398.1,-132.5"/>
<text text-anchor="start" x="406" y="-172" font-family="Helvetica,sans-Serif" font-size="10.00"> &lt; Transform&lt; TTransform</text>
<text text-anchor="start" x="406" y="-161" font-family="Helvetica,sans-Serif" font-size="10.00">::ScalarType, TTransform</text>
<text text-anchor="start" x="406" y="-150" font-family="Helvetica,sans-Serif" font-size="10.00">::InputSpaceDimension, TTransform</text>
<text text-anchor="middle" x="493" y="-139" font-family="Helvetica,sans-Serif" font-size="10.00">::OutputSpaceDimension &gt; &gt;</text>
</g>
<!-- Node2 -->
<g id="node2" class="node">
<title>Node2</title>
<g id="a_node2"><a xlink:href="classitk_1_1Object.html" target="_top" xlink:title="Base class for most ITK classes.">
<polygon fill="white" stroke="black" points="128,-126.5 128,-145.5 195,-145.5 195,-126.5 128,-126.5"/>
<text text-anchor="middle" x="161.5" y="-133.5" font-family="Helvetica,sans-Serif" font-size="10.00">itk::Object</text>
</a>
</g>
</g>
<!-- Node2&#45;&gt;Node1 -->
<g id="edge1" class="edge">
<title>Node2&#45;&gt;Node1</title>
<path fill="none" stroke="midnightblue" d="M205.28,-136C213.7,-136 222.77,-136 231.93,-136"/>
<polygon fill="midnightblue" stroke="midnightblue" points="205.01,-132.5 195.01,-136 205.01,-139.5 205.01,-132.5"/>
</g>
<!-- Node3 -->
<g id="node3" class="node">
<title>Node3</title>
<g id="a_node3"><a xlink:href="classitk_1_1LightObject.html" target="_top" xlink:title="Light weight base class for most itk classes.">
<polygon fill="white" stroke="black" points="0,-126.5 0,-145.5 91,-145.5 91,-126.5 0,-126.5"/>
<text text-anchor="middle" x="45.5" y="-133.5" font-family="Helvetica,sans-Serif" font-size="10.00">itk::LightObject</text>
</a>
</g>
</g>
<!-- Node3&#45;&gt;Node2 -->
<g id="edge2" class="edge">
<title>Node3&#45;&gt;Node2</title>
<path fill="none" stroke="midnightblue" d="M101.39,-136C110.45,-136 119.59,-136 127.88,-136"/>
<polygon fill="midnightblue" stroke="midnightblue" points="101.23,-132.5 91.23,-136 101.23,-139.5 101.23,-132.5"/>
</g>
<!-- Node5 -->
<g id="node5" class="node">
<title>Node5</title>
<g id="a_node5"><a xlink:href="classitk_1_1TransformParametersAdaptor.html" target="_top" xlink:title="Base helper class intended for multi&#45;resolution image registration.">
<polygon fill="white" stroke="black" points="853,-121 853,-151 993,-151 993,-121 853,-121"/>
<text text-anchor="start" x="861" y="-139" font-family="Helvetica,sans-Serif" font-size="10.00">itk::TransformParameters</text>
<text text-anchor="middle" x="923" y="-128" font-family="Helvetica,sans-Serif" font-size="10.00">Adaptor&lt; TTransform &gt;</text>
</a>
</g>
</g>
<!-- Node4&#45;&gt;Node5 -->
<g id="edge4" class="edge">
<title>Node4&#45;&gt;Node5</title>
<path fill="none" stroke="midnightblue" d="M826.44,-136C835.43,-136 844.32,-136 852.83,-136"/>
<polygon fill="midnightblue" stroke="midnightblue" points="826.25,-132.5 816.25,-136 826.25,-139.5 826.25,-132.5"/>
</g>
<!-- Node6 -->
<g id="node6" class="node">
<title>Node6</title>
<g id="a_node6"><a xlink:href="classitk_1_1BSplineTransformParametersAdaptor.html" target="_top" xlink:title="BSplineTransformParametersAdaptor adapts a BSplineTransform to the new specified fixed parameters.">
<polygon fill="white" stroke="black" points="1036,-233 1036,-263 1212,-263 1212,-233 1036,-233"/>
<text text-anchor="start" x="1044" y="-251" font-family="Helvetica,sans-Serif" font-size="10.00">itk::BSplineTransformParameters</text>
<text text-anchor="middle" x="1124" y="-240" font-family="Helvetica,sans-Serif" font-size="10.00">Adaptor&lt; TTransform &gt;</text>
</a>
</g>
</g>
<!-- Node5&#45;&gt;Node6 -->
<g id="edge5" class="edge">
<title>Node5&#45;&gt;Node6</title>
<path fill="none" stroke="midnightblue" d="M945.43,-158.33C965.54,-178.05 997.33,-206.2 1030,-223 1037.43,-226.82 1045.51,-230.11 1053.7,-232.91"/>
<polygon fill="midnightblue" stroke="midnightblue" points="947.87,-155.82 938.32,-151.23 942.92,-160.77 947.87,-155.82"/>
</g>
<!-- Node7 -->
<g id="node7" class="node">
<title>Node7</title>
<g id="a_node7"><a xlink:href="classitk_1_1ConstantVelocityFieldTransformParametersAdaptor.html" target="_top" xlink:title="ConstantVelocityFieldTransformParametersAdaptor is a helper class intended to definition.">
<polygon fill="white" stroke="black" points="1044.5,-172.5 1044.5,-213.5 1203.5,-213.5 1203.5,-172.5 1044.5,-172.5"/>
<text text-anchor="start" x="1052.5" y="-201.5" font-family="Helvetica,sans-Serif" font-size="10.00">itk::ConstantVelocityField</text>
<text text-anchor="start" x="1052.5" y="-190.5" font-family="Helvetica,sans-Serif" font-size="10.00">TransformParametersAdaptor</text>
<text text-anchor="middle" x="1124" y="-179.5" font-family="Helvetica,sans-Serif" font-size="10.00">&lt; TTransform &gt;</text>
</a>
</g>
</g>
<!-- Node5&#45;&gt;Node7 -->
<g id="edge6" class="edge">
<title>Node5&#45;&gt;Node7</title>
<path fill="none" stroke="midnightblue" d="M986.17,-153.81C1006.86,-159.73 1030.07,-166.38 1051.41,-172.49"/>
<polygon fill="midnightblue" stroke="midnightblue" points="987.12,-150.44 976.55,-151.05 985.19,-157.17 987.12,-150.44"/>
</g>
<!-- Node10 -->
<g id="node10" class="node">
<title>Node10</title>
<g id="a_node10"><a xlink:href="classitk_1_1DisplacementFieldTransformParametersAdaptor.html" target="_top" xlink:title="DisplacementFieldTransformParametersAdaptor is a helper class intended to definition.">
<polygon fill="white" stroke="black" points="1030,-121 1030,-151 1218,-151 1218,-121 1030,-121"/>
<text text-anchor="start" x="1038" y="-139" font-family="Helvetica,sans-Serif" font-size="10.00">itk::DisplacementFieldTransform</text>
<text text-anchor="middle" x="1124" y="-128" font-family="Helvetica,sans-Serif" font-size="10.00">ParametersAdaptor&lt; TTransform &gt;</text>
</a>
</g>
</g>
<!-- Node5&#45;&gt;Node10 -->
<g id="edge9" class="edge">
<title>Node5&#45;&gt;Node10</title>
<path fill="none" stroke="midnightblue" d="M1003.22,-136C1011.99,-136 1020.97,-136 1029.89,-136"/>
<polygon fill="midnightblue" stroke="midnightblue" points="1003.04,-132.5 993.04,-136 1003.04,-139.5 1003.04,-132.5"/>
</g>
<!-- Node13 -->
<g id="node13" class="node">
<title>Node13</title>
<g id="a_node13"><a xlink:href="classitk_1_1TimeVaryingBSplineVelocityFieldTransformParametersAdaptor.html" target="_top" xlink:title="TimeVaryingBSplineVelocityFieldTransformParametersAdaptor is a helper class intended to definition.">
<polygon fill="white" stroke="black" points="1033,-60.5 1033,-101.5 1215,-101.5 1215,-60.5 1033,-60.5"/>
<text text-anchor="start" x="1041" y="-89.5" font-family="Helvetica,sans-Serif" font-size="10.00">itk::TimeVaryingBSplineVelocity</text>
<text text-anchor="start" x="1041" y="-78.5" font-family="Helvetica,sans-Serif" font-size="10.00">FieldTransformParametersAdaptor</text>
<text text-anchor="middle" x="1124" y="-67.5" font-family="Helvetica,sans-Serif" font-size="10.00">&lt; TTransform &gt;</text>
</a>
</g>
</g>
<!-- Node5&#45;&gt;Node13 -->
<g id="edge12" class="edge">
<title>Node5&#45;&gt;Node13</title>
<path fill="none" stroke="midnightblue" d="M988.23,-118.25C1007.46,-112.93 1028.71,-107.06 1048.55,-101.58"/>
<polygon fill="midnightblue" stroke="midnightblue" points="987.08,-114.93 978.38,-120.97 988.95,-121.68 987.08,-114.93"/>
</g>
<!-- Node14 -->
<g id="node14" class="node">
<title>Node14</title>
<g id="a_node14"><a xlink:href="classitk_1_1TimeVaryingVelocityFieldTransformParametersAdaptor.html" target="_top" xlink:title="TimeVaryingVelocityFieldTransformParametersAdaptor is a helper class intended to definition.">
<polygon fill="white" stroke="black" points="1033,-0.5 1033,-41.5 1215,-41.5 1215,-0.5 1033,-0.5"/>
<text text-anchor="start" x="1041" y="-29.5" font-family="Helvetica,sans-Serif" font-size="10.00">itk::TimeVaryingVelocity</text>
<text text-anchor="start" x="1041" y="-18.5" font-family="Helvetica,sans-Serif" font-size="10.00">FieldTransformParametersAdaptor</text>
<text text-anchor="middle" x="1124" y="-7.5" font-family="Helvetica,sans-Serif" font-size="10.00">&lt; TTransform &gt;</text>
</a>
</g>
</g>
<!-- Node5&#45;&gt;Node14 -->
<g id="edge13" class="edge">
<title>Node5&#45;&gt;Node14</title>
<path fill="none" stroke="midnightblue" d="M946.7,-113.67C967.05,-94.72 998.46,-67.98 1030,-51 1036.42,-47.54 1043.31,-44.4 1050.33,-41.56"/>
<polygon fill="midnightblue" stroke="midnightblue" points="944.06,-111.35 939.21,-120.76 948.88,-116.43 944.06,-111.35"/>
</g>
<!-- Node8 -->
<g id="node8" class="node">
<title>Node8</title>
<g id="a_node8"><a xlink:href="classitk_1_1BSplineExponentialDiffeomorphicTransformParametersAdaptor.html" target="_top" xlink:title="Helper class for multiresolution image registration.">
<polygon fill="white" stroke="black" points="1261.5,-234.5 1261.5,-275.5 1460.5,-275.5 1460.5,-234.5 1261.5,-234.5"/>
<text text-anchor="start" x="1269.5" y="-263.5" font-family="Helvetica,sans-Serif" font-size="10.00">itk::BSplineExponentialDiffeomorphic</text>
<text text-anchor="start" x="1269.5" y="-252.5" font-family="Helvetica,sans-Serif" font-size="10.00">TransformParametersAdaptor&lt;</text>
<text text-anchor="middle" x="1361" y="-241.5" font-family="Helvetica,sans-Serif" font-size="10.00"> TTransform &gt;</text>
</a>
</g>
</g>
<!-- Node7&#45;&gt;Node8 -->
<g id="edge7" class="edge">
<title>Node7&#45;&gt;Node8</title>
<path fill="none" stroke="midnightblue" d="M1212.62,-216.12C1235.48,-222.15 1259.97,-228.61 1282.29,-234.5"/>
<polygon fill="midnightblue" stroke="midnightblue" points="1213.49,-212.73 1202.93,-213.56 1211.7,-219.49 1213.49,-212.73"/>
</g>
<!-- Node9 -->
<g id="node9" class="node">
<title>Node9</title>
<g id="a_node9"><a xlink:href="classitk_1_1GaussianExponentialDiffeomorphicTransformParametersAdaptor.html" target="_top" xlink:title="Helper class for multiresolution image registration.">
<polygon fill="white" stroke="black" points="1266,-174.5 1266,-215.5 1456,-215.5 1456,-174.5 1266,-174.5"/>
<text text-anchor="start" x="1274" y="-203.5" font-family="Helvetica,sans-Serif" font-size="10.00">itk::GaussianExponential</text>
<text text-anchor="start" x="1274" y="-192.5" font-family="Helvetica,sans-Serif" font-size="10.00">DiffeomorphicTransformParameters</text>
<text text-anchor="middle" x="1361" y="-181.5" font-family="Helvetica,sans-Serif" font-size="10.00">Adaptor&lt; TTransform &gt;</text>
</a>
</g>
</g>
<!-- Node7&#45;&gt;Node9 -->
<g id="edge8" class="edge">
<title>Node7&#45;&gt;Node9</title>
<path fill="none" stroke="midnightblue" d="M1213.96,-193.76C1230.84,-193.9 1248.55,-194.05 1265.59,-194.2"/>
<polygon fill="midnightblue" stroke="midnightblue" points="1213.61,-190.25 1203.58,-193.67 1213.55,-197.25 1213.61,-190.25"/>
</g>
<!-- Node11 -->
<g id="node11" class="node">
<title>Node11</title>
<g id="a_node11"><a xlink:href="classitk_1_1BSplineSmoothingOnUpdateDisplacementFieldTransformParametersAdaptor.html" target="_top" xlink:title="Helper class for multiresolution image registration.">
<polygon fill="white" stroke="black" points="1255,-114.5 1255,-155.5 1467,-155.5 1467,-114.5 1255,-114.5"/>
<text text-anchor="start" x="1263" y="-143.5" font-family="Helvetica,sans-Serif" font-size="10.00">itk::BSplineSmoothingOnUpdate</text>
<text text-anchor="start" x="1263" y="-132.5" font-family="Helvetica,sans-Serif" font-size="10.00">DisplacementFieldTransformParameters</text>
<text text-anchor="middle" x="1361" y="-121.5" font-family="Helvetica,sans-Serif" font-size="10.00">Adaptor&lt; TTransform &gt;</text>
</a>
</g>
</g>
<!-- Node10&#45;&gt;Node11 -->
<g id="edge10" class="edge">
<title>Node10&#45;&gt;Node11</title>
<path fill="none" stroke="midnightblue" d="M1228.45,-135.56C1237.22,-135.52 1246.1,-135.48 1254.88,-135.45"/>
<polygon fill="midnightblue" stroke="midnightblue" points="1228.2,-132.06 1218.22,-135.6 1228.23,-139.06 1228.2,-132.06"/>
</g>
<!-- Node12 -->
<g id="node12" class="node">
<title>Node12</title>
<g id="a_node12"><a xlink:href="classitk_1_1GaussianSmoothingOnUpdateDisplacementFieldTransformParametersAdaptor.html" target="_top" xlink:title="Helper class for multiresolution image registration.">
<polygon fill="white" stroke="black" points="1265.5,-54.5 1265.5,-95.5 1456.5,-95.5 1456.5,-54.5 1265.5,-54.5"/>
<text text-anchor="start" x="1273.5" y="-83.5" font-family="Helvetica,sans-Serif" font-size="10.00">itk::GaussianSmoothingOn</text>
<text text-anchor="start" x="1273.5" y="-72.5" font-family="Helvetica,sans-Serif" font-size="10.00">UpdateDisplacementFieldTransform</text>
<text text-anchor="middle" x="1361" y="-61.5" font-family="Helvetica,sans-Serif" font-size="10.00">ParametersAdaptor&lt; TTransform &gt;</text>
</a>
</g>
</g>
<!-- Node10&#45;&gt;Node12 -->
<g id="edge11" class="edge">
<title>Node10&#45;&gt;Node12</title>
<path fill="none" stroke="midnightblue" d="M1192.7,-118.43C1220.17,-111.3 1252.11,-103.01 1280.67,-95.59"/>
<polygon fill="midnightblue" stroke="midnightblue" points="1191.59,-115.1 1182.79,-121 1193.35,-121.87 1191.59,-115.1"/>
</g>
</g>
</svg>
