<?xml version="1.0" encoding="UTF-8" standalone="no"?>
<!DOCTYPE svg PUBLIC "-//W3C//DTD SVG 1.1//EN"
 "http://www.w3.org/Graphics/SVG/1.1/DTD/svg11.dtd">
<!-- Generated by graphviz version 2.43.0 (0)
 -->
<!-- Title: itk::ScaleVersor3DTransform&lt; TParametersValueType &gt; Pages: 1 -->
<svg width="1048pt" height="944pt"
 viewBox="0.00 0.00 1047.50 944.00" xmlns="http://www.w3.org/2000/svg" xmlns:xlink="http://www.w3.org/1999/xlink">
<g id="graph0" class="graph" transform="scale(1 1) rotate(0) translate(4 940)">
<title>itk::ScaleVersor3DTransform&lt; TParametersValueType &gt;</title>
<polygon fill="white" stroke="transparent" points="-4,4 -4,-940 1043.5,-940 1043.5,4 -4,4"/>
<!-- Node1 -->
<g id="node1" class="node">
<title>Node1</title>
<g id="a_node1"><a xlink:title="This transform applies a Versor rotation, translation and anisotropic scale to the space.">
<polygon fill="#bfbfbf" stroke="black" points="735,-0.5 735,-30.5 890,-30.5 890,-0.5 735,-0.5"/>
<text text-anchor="start" x="743" y="-18.5" font-family="Helvetica,sans-Serif" font-size="10.00">itk::ScaleVersor3DTransform</text>
<text text-anchor="middle" x="812.5" y="-7.5" font-family="Helvetica,sans-Serif" font-size="10.00">&lt; TParametersValueType &gt;</text>
</a>
</g>
</g>
<!-- Node2 -->
<g id="node2" class="node">
<title>Node2</title>
<g id="a_node2"><a xlink:href="classitk_1_1VersorRigid3DTransform.html" target="_top" xlink:title=" ">
<polygon fill="white" stroke="black" points="684,-68.5 684,-98.5 837,-98.5 837,-68.5 684,-68.5"/>
<text text-anchor="start" x="692" y="-86.5" font-family="Helvetica,sans-Serif" font-size="10.00">itk::VersorRigid3DTransform</text>
<text text-anchor="middle" x="760.5" y="-75.5" font-family="Helvetica,sans-Serif" font-size="10.00">&lt; double &gt;</text>
</a>
</g>
</g>
<!-- Node2&#45;&gt;Node1 -->
<g id="edge1" class="edge">
<title>Node2&#45;&gt;Node1</title>
<path fill="none" stroke="midnightblue" d="M778.14,-60.11C785.78,-50.41 794.5,-39.35 801.24,-30.79"/>
<polygon fill="midnightblue" stroke="midnightblue" points="775.22,-58.16 771.78,-68.18 780.72,-62.49 775.22,-58.16"/>
</g>
<!-- Node3 -->
<g id="node3" class="node">
<title>Node3</title>
<g id="a_node3"><a xlink:href="classitk_1_1VersorTransform.html" target="_top" xlink:title=" ">
<polygon fill="white" stroke="black" points="701,-136.5 701,-166.5 816,-166.5 816,-136.5 701,-136.5"/>
<text text-anchor="start" x="709" y="-154.5" font-family="Helvetica,sans-Serif" font-size="10.00">itk::VersorTransform</text>
<text text-anchor="middle" x="758.5" y="-143.5" font-family="Helvetica,sans-Serif" font-size="10.00">&lt; double &gt;</text>
</a>
</g>
</g>
<!-- Node3&#45;&gt;Node2 -->
<g id="edge2" class="edge">
<title>Node3&#45;&gt;Node2</title>
<path fill="none" stroke="midnightblue" d="M759.24,-126.03C759.52,-116.86 759.83,-106.74 760.07,-98.79"/>
<polygon fill="midnightblue" stroke="midnightblue" points="755.74,-126.08 758.93,-136.18 762.74,-126.29 755.74,-126.08"/>
</g>
<!-- Node4 -->
<g id="node4" class="node">
<title>Node4</title>
<g id="a_node4"><a xlink:href="classitk_1_1Rigid3DTransform.html" target="_top" xlink:title=" ">
<polygon fill="white" stroke="black" points="451.5,-214.5 451.5,-244.5 573.5,-244.5 573.5,-214.5 451.5,-214.5"/>
<text text-anchor="start" x="459.5" y="-232.5" font-family="Helvetica,sans-Serif" font-size="10.00">itk::Rigid3DTransform</text>
<text text-anchor="middle" x="512.5" y="-221.5" font-family="Helvetica,sans-Serif" font-size="10.00">&lt; double &gt;</text>
</a>
</g>
</g>
<!-- Node4&#45;&gt;Node3 -->
<g id="edge3" class="edge">
<title>Node4&#45;&gt;Node3</title>
<path fill="none" stroke="midnightblue" d="M567.54,-211.5C611.32,-197.97 671.85,-179.27 712.94,-166.57"/>
<polygon fill="midnightblue" stroke="midnightblue" points="566.43,-208.18 557.91,-214.47 568.49,-214.86 566.43,-208.18"/>
</g>
<!-- Node5 -->
<g id="node5" class="node">
<title>Node5</title>
<g id="a_node5"><a xlink:href="classitk_1_1MatrixOffsetTransformBase.html" target="_top" xlink:title=" ">
<polygon fill="white" stroke="black" points="440,-282.5 440,-312.5 585,-312.5 585,-282.5 440,-282.5"/>
<text text-anchor="start" x="448" y="-300.5" font-family="Helvetica,sans-Serif" font-size="10.00">itk::MatrixOffsetTransform</text>
<text text-anchor="middle" x="512.5" y="-289.5" font-family="Helvetica,sans-Serif" font-size="10.00">Base&lt; double, 3, 3 &gt;</text>
</a>
</g>
</g>
<!-- Node5&#45;&gt;Node4 -->
<g id="edge4" class="edge">
<title>Node5&#45;&gt;Node4</title>
<path fill="none" stroke="midnightblue" d="M512.5,-272.03C512.5,-262.86 512.5,-252.74 512.5,-244.79"/>
<polygon fill="midnightblue" stroke="midnightblue" points="509,-272.18 512.5,-282.18 516,-272.18 509,-272.18"/>
</g>
<!-- Node6 -->
<g id="node6" class="node">
<title>Node6</title>
<g id="a_node6"><a xlink:href="classitk_1_1Transform.html" target="_top" xlink:title=" ">
<polygon fill="white" stroke="black" points="406,-377 406,-407 619,-407 619,-377 406,-377"/>
<text text-anchor="start" x="414" y="-395" font-family="Helvetica,sans-Serif" font-size="10.00">itk::Transform&lt; double,</text>
<text text-anchor="middle" x="512.5" y="-384" font-family="Helvetica,sans-Serif" font-size="10.00"> VInputDimension, VOutputDimension &gt;</text>
</a>
</g>
</g>
<!-- Node6&#45;&gt;Node5 -->
<g id="edge5" class="edge">
<title>Node6&#45;&gt;Node5</title>
<path fill="none" stroke="midnightblue" d="M512.5,-366.55C512.5,-349.37 512.5,-326.99 512.5,-312.68"/>
<polygon fill="midnightblue" stroke="midnightblue" points="509,-366.95 512.5,-376.95 516,-366.95 509,-366.95"/>
</g>
<!-- Node7 -->
<g id="node7" class="node">
<title>Node7</title>
<g id="a_node7"><a xlink:href="classitk_1_1TransformBaseTemplate.html" target="_top" xlink:title=" ">
<polygon fill="white" stroke="black" points="462,-450.5 462,-480.5 615,-480.5 615,-450.5 462,-450.5"/>
<text text-anchor="start" x="470" y="-468.5" font-family="Helvetica,sans-Serif" font-size="10.00">itk::TransformBaseTemplate</text>
<text text-anchor="middle" x="538.5" y="-457.5" font-family="Helvetica,sans-Serif" font-size="10.00">&lt; double &gt;</text>
</a>
</g>
</g>
<!-- Node7&#45;&gt;Node6 -->
<g id="edge6" class="edge">
<title>Node7&#45;&gt;Node6</title>
<path fill="none" stroke="midnightblue" d="M529.87,-440.77C525.81,-429.61 521.11,-416.69 517.63,-407.1"/>
<polygon fill="midnightblue" stroke="midnightblue" points="526.66,-442.17 533.36,-450.37 533.24,-439.78 526.66,-442.17"/>
</g>
<!-- Node8 -->
<g id="node8" class="node">
<title>Node8</title>
<g id="a_node8"><a xlink:href="classitk_1_1Object.html" target="_top" xlink:title="Base class for most ITK classes.">
<polygon fill="white" stroke="black" points="511,-539.5 511,-558.5 578,-558.5 578,-539.5 511,-539.5"/>
<text text-anchor="middle" x="544.5" y="-546.5" font-family="Helvetica,sans-Serif" font-size="10.00">itk::Object</text>
</a>
</g>
</g>
<!-- Node8&#45;&gt;Node7 -->
<g id="edge7" class="edge">
<title>Node8&#45;&gt;Node7</title>
<path fill="none" stroke="midnightblue" d="M543.12,-529.23C542.03,-514.41 540.53,-494.05 539.54,-480.6"/>
<polygon fill="midnightblue" stroke="midnightblue" points="539.63,-529.56 543.86,-539.28 546.61,-529.05 539.63,-529.56"/>
</g>
<!-- Node9 -->
<g id="node9" class="node">
<title>Node9</title>
<g id="a_node9"><a xlink:href="classitk_1_1LightObject.html" target="_top" xlink:title="Light weight base class for most itk classes.">
<polygon fill="white" stroke="black" points="634,-612 634,-631 725,-631 725,-612 634,-612"/>
<text text-anchor="middle" x="679.5" y="-619" font-family="Helvetica,sans-Serif" font-size="10.00">itk::LightObject</text>
</a>
</g>
</g>
<!-- Node9&#45;&gt;Node8 -->
<g id="edge8" class="edge">
<title>Node9&#45;&gt;Node8</title>
<path fill="none" stroke="midnightblue" d="M677.72,-601.73C675.94,-593.06 672.42,-583.32 665.5,-577 652.86,-565.47 609.24,-557.85 578.01,-553.72"/>
<polygon fill="midnightblue" stroke="midnightblue" points="674.28,-602.4 679.17,-611.8 681.2,-601.4 674.28,-602.4"/>
</g>
<!-- Node10 -->
<g id="node10" class="node">
<title>Node10</title>
<g id="a_node10"><a xlink:title=" ">
<polygon fill="white" stroke="black" points="627,-690 627,-709 734,-709 734,-690 627,-690"/>
<text text-anchor="middle" x="680.5" y="-697" font-family="Helvetica,sans-Serif" font-size="10.00">std::atomic&lt; int &gt;</text>
</a>
</g>
</g>
<!-- Node10&#45;&gt;Node9 -->
<g id="edge9" class="edge">
<title>Node10&#45;&gt;Node9</title>
<path fill="none" stroke="#9a32cd" stroke-dasharray="5,2" d="M680.25,-679.72C680.05,-664.2 679.77,-642.86 679.61,-631.12"/>
<polygon fill="#9a32cd" stroke="#9a32cd" points="676.75,-679.83 680.39,-689.78 683.75,-679.74 676.75,-679.83"/>
<text text-anchor="middle" x="729" y="-658" font-family="Helvetica,sans-Serif" font-size="10.00"> m_ReferenceCount</text>
</g>
<!-- Node11 -->
<g id="node11" class="node">
<title>Node11</title>
<g id="a_node11"><a xlink:href="classitk_1_1TimeStamp.html" target="_top" xlink:title="Generate a unique, increasing time value.">
<polygon fill="white" stroke="black" points="265.5,-612 265.5,-631 357.5,-631 357.5,-612 265.5,-612"/>
<text text-anchor="middle" x="311.5" y="-619" font-family="Helvetica,sans-Serif" font-size="10.00">itk::TimeStamp</text>
</a>
</g>
</g>
<!-- Node11&#45;&gt;Node5 -->
<g id="edge31" class="edge">
<title>Node11&#45;&gt;Node5</title>
<path fill="none" stroke="#9a32cd" stroke-dasharray="5,2" d="M255.52,-610.28C223.44,-600.83 189.5,-583.03 189.5,-550 189.5,-550 189.5,-550 189.5,-391 189.5,-339.3 344.34,-314.85 439.61,-304.7"/>
<polygon fill="#9a32cd" stroke="#9a32cd" points="254.81,-613.71 265.38,-612.95 256.64,-606.96 254.81,-613.71"/>
<text text-anchor="middle" x="249.5" y="-468.5" font-family="Helvetica,sans-Serif" font-size="10.00"> m_InverseMatrixMTime</text>
<text text-anchor="middle" x="249.5" y="-457.5" font-family="Helvetica,sans-Serif" font-size="10.00">m_MatrixMTime</text>
</g>
<!-- Node11&#45;&gt;Node8 -->
<g id="edge10" class="edge">
<title>Node11&#45;&gt;Node8</title>
<path fill="none" stroke="#9a32cd" stroke-dasharray="5,2" d="M332.74,-606.27C348.15,-596.6 369.83,-584.28 390.5,-577 430.57,-562.9 479.2,-555.95 510.95,-552.67"/>
<polygon fill="#9a32cd" stroke="#9a32cd" points="330.54,-603.53 324.02,-611.89 334.33,-609.42 330.54,-603.53"/>
<text text-anchor="middle" x="416.5" y="-580" font-family="Helvetica,sans-Serif" font-size="10.00"> m_MTime</text>
</g>
<!-- Node12 -->
<g id="node12" class="node">
<title>Node12</title>
<g id="a_node12"><a xlink:title=" ">
<polygon fill="white" stroke="black" points="273.5,-811.5 273.5,-830.5 373.5,-830.5 373.5,-811.5 273.5,-811.5"/>
<text text-anchor="middle" x="323.5" y="-818.5" font-family="Helvetica,sans-Serif" font-size="10.00">std::atomic&lt; T &gt;</text>
</a>
</g>
</g>
<!-- Node12&#45;&gt;Node11 -->
<g id="edge11" class="edge">
<title>Node12&#45;&gt;Node11</title>
<path fill="none" stroke="#9a32cd" stroke-dasharray="5,2" d="M322.35,-801.11C319.82,-759.42 313.83,-660.87 312.02,-631.14"/>
<polygon fill="#9a32cd" stroke="#9a32cd" points="318.87,-801.49 322.97,-811.26 325.86,-801.06 318.87,-801.49"/>
<text text-anchor="middle" x="372.5" y="-736" font-family="Helvetica,sans-Serif" font-size="10.00"> m_GlobalTimeStamp</text>
</g>
<!-- Node13 -->
<g id="node13" class="node">
<title>Node13</title>
<g id="a_node13"><a xlink:title=" ">
<polygon fill="white" stroke="black" points="337,-916.5 337,-935.5 366,-935.5 366,-916.5 337,-916.5"/>
<text text-anchor="middle" x="351.5" y="-923.5" font-family="Helvetica,sans-Serif" font-size="10.00">T</text>
</a>
</g>
</g>
<!-- Node13&#45;&gt;Node12 -->
<g id="edge12" class="edge">
<title>Node13&#45;&gt;Node12</title>
<path fill="none" stroke="#9a32cd" stroke-dasharray="5,2" d="M346.48,-906.55C340.41,-884.2 330.42,-847.46 325.88,-830.76"/>
<polygon fill="#9a32cd" stroke="#9a32cd" points="343.11,-907.49 349.11,-916.22 349.87,-905.65 343.11,-907.49"/>
<text text-anchor="middle" x="353" y="-890" font-family="Helvetica,sans-Serif" font-size="10.00"> ptr</text>
</g>
<!-- Node18 -->
<g id="node18" class="node">
<title>Node18</title>
<g id="a_node18"><a xlink:title=" ">
<polygon fill="white" stroke="black" points="412,-849.5 412,-868.5 513,-868.5 513,-849.5 412,-849.5"/>
<text text-anchor="middle" x="462.5" y="-856.5" font-family="Helvetica,sans-Serif" font-size="10.00">std::map&lt; K, T &gt;</text>
</a>
</g>
</g>
<!-- Node13&#45;&gt;Node18 -->
<g id="edge19" class="edge">
<title>Node13&#45;&gt;Node18</title>
<path fill="none" stroke="#9a32cd" stroke-dasharray="5,2" d="M372.13,-910.7C383.06,-903.33 396.81,-894.36 409.5,-887 420.93,-880.37 434.18,-873.62 444.58,-868.53"/>
<polygon fill="#9a32cd" stroke="#9a32cd" points="369.99,-907.92 363.7,-916.45 373.93,-913.7 369.99,-907.92"/>
<text text-anchor="middle" x="434" y="-890" font-family="Helvetica,sans-Serif" font-size="10.00"> elements</text>
</g>
<!-- Node14 -->
<g id="node14" class="node">
<title>Node14</title>
<g id="a_node14"><a xlink:title=" ">
<polygon fill="white" stroke="black" points="743,-606.5 743,-636.5 880,-636.5 880,-606.5 743,-606.5"/>
<text text-anchor="start" x="751" y="-624.5" font-family="Helvetica,sans-Serif" font-size="10.00">std::unique_ptr&lt; Subject</text>
<text text-anchor="middle" x="811.5" y="-613.5" font-family="Helvetica,sans-Serif" font-size="10.00">Implementation &gt;</text>
</a>
</g>
</g>
<!-- Node14&#45;&gt;Node8 -->
<g id="edge13" class="edge">
<title>Node14&#45;&gt;Node8</title>
<path fill="none" stroke="#9a32cd" stroke-dasharray="5,2" d="M765.06,-603.02C740.97,-594.39 710.91,-584.28 683.5,-577 647.98,-567.56 606.54,-559.94 578.21,-555.23"/>
<polygon fill="#9a32cd" stroke="#9a32cd" points="764.07,-606.38 774.66,-606.49 766.45,-599.8 764.07,-606.38"/>
<text text-anchor="middle" x="786" y="-580" font-family="Helvetica,sans-Serif" font-size="10.00"> m_SubjectImplementation</text>
</g>
<!-- Node15 -->
<g id="node15" class="node">
<title>Node15</title>
<g id="a_node15"><a xlink:title=" ">
<polygon fill="white" stroke="black" points="478.5,-606.5 478.5,-636.5 610.5,-636.5 610.5,-606.5 478.5,-606.5"/>
<text text-anchor="start" x="486.5" y="-624.5" font-family="Helvetica,sans-Serif" font-size="10.00">std::unique_ptr&lt; itk</text>
<text text-anchor="middle" x="544.5" y="-613.5" font-family="Helvetica,sans-Serif" font-size="10.00">::MetaDataDictionary &gt;</text>
</a>
</g>
</g>
<!-- Node15&#45;&gt;Node8 -->
<g id="edge14" class="edge">
<title>Node15&#45;&gt;Node8</title>
<path fill="none" stroke="#9a32cd" stroke-dasharray="5,2" d="M544.5,-596.09C544.5,-583.21 544.5,-568.2 544.5,-558.89"/>
<polygon fill="#9a32cd" stroke="#9a32cd" points="541,-596.23 544.5,-606.23 548,-596.23 541,-596.23"/>
<text text-anchor="middle" x="603" y="-580" font-family="Helvetica,sans-Serif" font-size="10.00"> m_MetaDataDictionary</text>
</g>
<!-- Node16 -->
<g id="node16" class="node">
<title>Node16</title>
<g id="a_node16"><a xlink:href="classitk_1_1MetaDataDictionary.html" target="_top" xlink:title="Provides a mechanism for storing a collection of arbitrary data types.">
<polygon fill="white" stroke="black" points="474.5,-690 474.5,-709 608.5,-709 608.5,-690 474.5,-690"/>
<text text-anchor="middle" x="541.5" y="-697" font-family="Helvetica,sans-Serif" font-size="10.00">itk::MetaDataDictionary</text>
</a>
</g>
</g>
<!-- Node16&#45;&gt;Node15 -->
<g id="edge15" class="edge">
<title>Node16&#45;&gt;Node15</title>
<path fill="none" stroke="#9a32cd" stroke-dasharray="5,2" d="M542.24,-679.78C542.77,-666.4 543.47,-648.69 543.95,-636.52"/>
<polygon fill="#9a32cd" stroke="#9a32cd" points="538.74,-679.65 541.84,-689.78 545.74,-679.93 538.74,-679.65"/>
<text text-anchor="middle" x="552" y="-658" font-family="Helvetica,sans-Serif" font-size="10.00"> ptr</text>
</g>
<!-- Node17 -->
<g id="node17" class="node">
<title>Node17</title>
<g id="a_node17"><a xlink:title=" ">
<polygon fill="white" stroke="black" points="416,-762.5 416,-792.5 565,-792.5 565,-762.5 416,-762.5"/>
<text text-anchor="start" x="424" y="-780.5" font-family="Helvetica,sans-Serif" font-size="10.00">std::shared_ptr&lt; MetaData</text>
<text text-anchor="middle" x="490.5" y="-769.5" font-family="Helvetica,sans-Serif" font-size="10.00">DictionaryMapType &gt;</text>
</a>
</g>
</g>
<!-- Node17&#45;&gt;Node16 -->
<g id="edge16" class="edge">
<title>Node17&#45;&gt;Node16</title>
<path fill="none" stroke="#9a32cd" stroke-dasharray="5,2" d="M505.69,-753.87C515.8,-738.8 528.51,-719.85 535.75,-709.06"/>
<polygon fill="#9a32cd" stroke="#9a32cd" points="502.76,-751.95 500.09,-762.2 508.57,-755.85 502.76,-751.95"/>
<text text-anchor="middle" x="554" y="-736" font-family="Helvetica,sans-Serif" font-size="10.00"> m_Dictionary</text>
</g>
<!-- Node18&#45;&gt;Node17 -->
<g id="edge17" class="edge">
<title>Node18&#45;&gt;Node17</title>
<path fill="none" stroke="#9a32cd" stroke-dasharray="5,2" d="M468.93,-839.75C473.98,-825.4 480.93,-805.69 485.55,-792.54"/>
<polygon fill="#9a32cd" stroke="#9a32cd" points="465.52,-838.9 465.5,-849.49 472.12,-841.22 465.52,-838.9"/>
<text text-anchor="middle" x="488" y="-818.5" font-family="Helvetica,sans-Serif" font-size="10.00"> ptr</text>
</g>
<!-- Node19 -->
<g id="node19" class="node">
<title>Node19</title>
<g id="a_node19"><a xlink:title=" ">
<polygon fill="white" stroke="black" points="448,-916.5 448,-935.5 477,-935.5 477,-916.5 448,-916.5"/>
<text text-anchor="middle" x="462.5" y="-923.5" font-family="Helvetica,sans-Serif" font-size="10.00">K</text>
</a>
</g>
</g>
<!-- Node19&#45;&gt;Node18 -->
<g id="edge18" class="edge">
<title>Node19&#45;&gt;Node18</title>
<path fill="none" stroke="#9a32cd" stroke-dasharray="5,2" d="M462.5,-906.04C462.5,-893.67 462.5,-878.12 462.5,-868.63"/>
<polygon fill="#9a32cd" stroke="#9a32cd" points="459,-906.23 462.5,-916.23 466,-906.23 459,-906.23"/>
<text text-anchor="middle" x="475.5" y="-890" font-family="Helvetica,sans-Serif" font-size="10.00"> keys</text>
</g>
<!-- Node20 -->
<g id="node20" class="node">
<title>Node20</title>
<g id="a_node20"><a xlink:title=" ">
<polygon fill="white" stroke="black" points="376,-612 376,-631 441,-631 441,-612 376,-612"/>
<text text-anchor="middle" x="408.5" y="-619" font-family="Helvetica,sans-Serif" font-size="10.00">std::string</text>
</a>
</g>
</g>
<!-- Node20&#45;&gt;Node6 -->
<g id="edge22" class="edge">
<title>Node20&#45;&gt;Node6</title>
<path fill="none" stroke="#9a32cd" stroke-dasharray="5,2" d="M379.13,-606.82C367.89,-599.42 358.59,-589.27 362.5,-577 386.63,-501.21 459.63,-435.11 494.1,-407.17"/>
<polygon fill="#9a32cd" stroke="#9a32cd" points="377.51,-609.93 387.92,-611.93 381.03,-603.88 377.51,-609.93"/>
<text text-anchor="middle" x="457" y="-513" font-family="Helvetica,sans-Serif" font-size="10.00"> m_InputSpaceName</text>
<text text-anchor="middle" x="457" y="-502" font-family="Helvetica,sans-Serif" font-size="10.00">m_OutputSpaceName</text>
</g>
<!-- Node20&#45;&gt;Node8 -->
<g id="edge20" class="edge">
<title>Node20&#45;&gt;Node8</title>
<path fill="none" stroke="#9a32cd" stroke-dasharray="5,2" d="M424.59,-604.59C434.54,-595.48 447.96,-584.41 461.5,-577 476.79,-568.63 495.09,-562.33 510.61,-557.93"/>
<polygon fill="#9a32cd" stroke="#9a32cd" points="421.97,-602.25 417.12,-611.67 426.79,-607.33 421.97,-602.25"/>
<text text-anchor="middle" x="501" y="-580" font-family="Helvetica,sans-Serif" font-size="10.00"> m_ObjectName</text>
</g>
<!-- Node21 -->
<g id="node21" class="node">
<title>Node21</title>
<g id="a_node21"><a xlink:title=" ">
<polygon fill="white" stroke="black" points="352.5,-684.5 352.5,-714.5 456.5,-714.5 456.5,-684.5 352.5,-684.5"/>
<text text-anchor="start" x="360.5" y="-702.5" font-family="Helvetica,sans-Serif" font-size="10.00">std::basic_string&lt;</text>
<text text-anchor="middle" x="404.5" y="-691.5" font-family="Helvetica,sans-Serif" font-size="10.00"> Char &gt;</text>
</a>
</g>
</g>
<!-- Node21&#45;&gt;Node20 -->
<g id="edge21" class="edge">
<title>Node21&#45;&gt;Node20</title>
<path fill="none" stroke="midnightblue" d="M405.78,-674.17C406.56,-659.4 407.5,-641.45 408.05,-631.06"/>
<polygon fill="midnightblue" stroke="midnightblue" points="402.28,-674.03 405.25,-684.2 409.27,-674.4 402.28,-674.03"/>
</g>
<!-- Node22 -->
<g id="node22" class="node">
<title>Node22</title>
<g id="a_node22"><a xlink:href="classitk_1_1Matrix.html" target="_top" xlink:title=" ">
<polygon fill="white" stroke="black" points="0,-371.5 0,-412.5 161,-412.5 161,-371.5 0,-371.5"/>
<text text-anchor="start" x="8" y="-400.5" font-family="Helvetica,sans-Serif" font-size="10.00">itk::Matrix&lt; double,</text>
<text text-anchor="start" x="8" y="-389.5" font-family="Helvetica,sans-Serif" font-size="10.00"> Self::OutputSpaceDimension,</text>
<text text-anchor="middle" x="80.5" y="-378.5" font-family="Helvetica,sans-Serif" font-size="10.00"> Self::InputSpaceDimension &gt;</text>
</a>
</g>
</g>
<!-- Node22&#45;&gt;Node5 -->
<g id="edge23" class="edge">
<title>Node22&#45;&gt;Node5</title>
<path fill="none" stroke="#9a32cd" stroke-dasharray="5,2" d="M94.86,-362.47C102.32,-350.69 112.61,-338.14 125.5,-331 177.71,-302.1 342.72,-297.63 439.6,-297.62"/>
<polygon fill="#9a32cd" stroke="#9a32cd" points="91.76,-360.84 89.7,-371.23 97.79,-364.39 91.76,-360.84"/>
<text text-anchor="middle" x="150.5" y="-339.5" font-family="Helvetica,sans-Serif" font-size="10.00"> m_Matrix</text>
</g>
<!-- Node23 -->
<g id="node23" class="node">
<title>Node23</title>
<g id="a_node23"><a xlink:href="classitk_1_1Vector.html" target="_top" xlink:title=" ">
<polygon fill="white" stroke="black" points="816.5,-377 816.5,-407 986.5,-407 986.5,-377 816.5,-377"/>
<text text-anchor="start" x="824.5" y="-395" font-family="Helvetica,sans-Serif" font-size="10.00">itk::Vector&lt; double,</text>
<text text-anchor="middle" x="901.5" y="-384" font-family="Helvetica,sans-Serif" font-size="10.00"> Self::OutputSpaceDimension &gt;</text>
</a>
</g>
</g>
<!-- Node23&#45;&gt;Node5 -->
<g id="edge24" class="edge">
<title>Node23&#45;&gt;Node5</title>
<path fill="none" stroke="#9a32cd" stroke-dasharray="5,2" d="M844.69,-374.12C800.67,-361.36 738.01,-343.89 682.5,-331 650.74,-323.63 615.37,-316.66 585.15,-311.09"/>
<polygon fill="#9a32cd" stroke="#9a32cd" points="843.77,-377.5 854.35,-376.93 845.73,-370.77 843.77,-377.5"/>
<text text-anchor="middle" x="801" y="-345" font-family="Helvetica,sans-Serif" font-size="10.00"> m_Offset</text>
<text text-anchor="middle" x="801" y="-334" font-family="Helvetica,sans-Serif" font-size="10.00">m_Translation</text>
</g>
<!-- Node24 -->
<g id="node24" class="node">
<title>Node24</title>
<g id="a_node24"><a xlink:href="classitk_1_1FixedArray.html" target="_top" xlink:title=" ">
<polygon fill="white" stroke="black" points="834.5,-450.5 834.5,-480.5 968.5,-480.5 968.5,-450.5 834.5,-450.5"/>
<text text-anchor="start" x="842.5" y="-468.5" font-family="Helvetica,sans-Serif" font-size="10.00">itk::FixedArray&lt; double,</text>
<text text-anchor="middle" x="901.5" y="-457.5" font-family="Helvetica,sans-Serif" font-size="10.00"> VVectorDimension &gt;</text>
</a>
</g>
</g>
<!-- Node24&#45;&gt;Node23 -->
<g id="edge25" class="edge">
<title>Node24&#45;&gt;Node23</title>
<path fill="none" stroke="midnightblue" d="M901.5,-440.09C901.5,-429.09 901.5,-416.49 901.5,-407.1"/>
<polygon fill="midnightblue" stroke="midnightblue" points="898,-440.37 901.5,-450.37 905,-440.37 898,-440.37"/>
</g>
<!-- Node30 -->
<g id="node30" class="node">
<title>Node30</title>
<g id="a_node30"><a xlink:href="classitk_1_1Vector.html" target="_top" xlink:title=" ">
<polygon fill="white" stroke="black" points="905.5,-332.5 905.5,-351.5 1039.5,-351.5 1039.5,-332.5 905.5,-332.5"/>
<text text-anchor="middle" x="972.5" y="-339.5" font-family="Helvetica,sans-Serif" font-size="10.00">itk::Vector&lt; double, 3 &gt;</text>
</a>
</g>
</g>
<!-- Node24&#45;&gt;Node30 -->
<g id="edge34" class="edge">
<title>Node24&#45;&gt;Node30</title>
<path fill="none" stroke="midnightblue" d="M957.92,-445.86C972.73,-438.11 986.94,-427.45 995.5,-413 1005.01,-396.94 1001.79,-388.57 995.5,-371 992.87,-363.66 987.39,-356.86 982.44,-351.8"/>
<polygon fill="midnightblue" stroke="midnightblue" points="956.15,-442.83 948.66,-450.32 959.19,-449.14 956.15,-442.83"/>
</g>
<!-- Node25 -->
<g id="node25" class="node">
<title>Node25</title>
<g id="a_node25"><a xlink:href="classVLength.html" target="_top" xlink:title=" ">
<polygon fill="white" stroke="black" points="797.5,-539.5 797.5,-558.5 853.5,-558.5 853.5,-539.5 797.5,-539.5"/>
<text text-anchor="middle" x="825.5" y="-546.5" font-family="Helvetica,sans-Serif" font-size="10.00">VLength</text>
</a>
</g>
</g>
<!-- Node25&#45;&gt;Node24 -->
<g id="edge26" class="edge">
<title>Node25&#45;&gt;Node24</title>
<path fill="none" stroke="#9a32cd" stroke-dasharray="5,2" d="M840.62,-531.78C854.57,-516.83 875.07,-494.84 888.35,-480.6"/>
<polygon fill="#9a32cd" stroke="#9a32cd" points="837.89,-529.58 833.63,-539.28 843.01,-534.35 837.89,-529.58"/>
<text text-anchor="middle" x="910.5" y="-507.5" font-family="Helvetica,sans-Serif" font-size="10.00"> m_InternalArray</text>
</g>
<!-- Node28 -->
<g id="node28" class="node">
<title>Node28</title>
<g id="a_node28"><a xlink:href="classitk_1_1FixedArray.html" target="_top" xlink:title=" ">
<polygon fill="white" stroke="black" points="674.5,-450.5 674.5,-480.5 808.5,-480.5 808.5,-450.5 674.5,-450.5"/>
<text text-anchor="start" x="682.5" y="-468.5" font-family="Helvetica,sans-Serif" font-size="10.00">itk::FixedArray&lt; double,</text>
<text text-anchor="middle" x="741.5" y="-457.5" font-family="Helvetica,sans-Serif" font-size="10.00"> VPointDimension &gt;</text>
</a>
</g>
</g>
<!-- Node25&#45;&gt;Node28 -->
<g id="edge30" class="edge">
<title>Node25&#45;&gt;Node28</title>
<path fill="none" stroke="#9a32cd" stroke-dasharray="5,2" d="M787.8,-536.11C779.72,-532.25 771.74,-527.3 765.5,-521 754.43,-509.84 748.05,-492.72 744.68,-480.65"/>
<polygon fill="#9a32cd" stroke="#9a32cd" points="786.67,-539.43 797.24,-540.14 789.42,-533 786.67,-539.43"/>
<text text-anchor="middle" x="806.5" y="-507.5" font-family="Helvetica,sans-Serif" font-size="10.00"> m_InternalArray</text>
</g>
<!-- Node26 -->
<g id="node26" class="node">
<title>Node26</title>
<g id="a_node26"><a xlink:href="classitk_1_1Matrix.html" target="_top" xlink:title=" ">
<polygon fill="white" stroke="black" points="217.5,-371.5 217.5,-412.5 387.5,-412.5 387.5,-371.5 217.5,-371.5"/>
<text text-anchor="start" x="225.5" y="-400.5" font-family="Helvetica,sans-Serif" font-size="10.00">itk::Matrix&lt; double,</text>
<text text-anchor="start" x="225.5" y="-389.5" font-family="Helvetica,sans-Serif" font-size="10.00"> Self::InputSpaceDimension,</text>
<text text-anchor="middle" x="302.5" y="-378.5" font-family="Helvetica,sans-Serif" font-size="10.00"> Self::OutputSpaceDimension &gt;</text>
</a>
</g>
</g>
<!-- Node26&#45;&gt;Node5 -->
<g id="edge27" class="edge">
<title>Node26&#45;&gt;Node5</title>
<path fill="none" stroke="#9a32cd" stroke-dasharray="5,2" d="M347.62,-366.87C369.88,-355.37 397.29,-341.81 422.5,-331 437.92,-324.39 455.18,-317.93 470.43,-312.54"/>
<polygon fill="#9a32cd" stroke="#9a32cd" points="346,-363.77 338.74,-371.49 349.23,-369.98 346,-363.77"/>
<text text-anchor="middle" x="465.5" y="-339.5" font-family="Helvetica,sans-Serif" font-size="10.00"> m_InverseMatrix</text>
</g>
<!-- Node27 -->
<g id="node27" class="node">
<title>Node27</title>
<g id="a_node27"><a xlink:href="classitk_1_1Point.html" target="_top" xlink:title=" ">
<polygon fill="white" stroke="black" points="637,-377 637,-407 798,-407 798,-377 637,-377"/>
<text text-anchor="start" x="645" y="-395" font-family="Helvetica,sans-Serif" font-size="10.00">itk::Point&lt; double,</text>
<text text-anchor="middle" x="717.5" y="-384" font-family="Helvetica,sans-Serif" font-size="10.00"> Self::InputSpaceDimension &gt;</text>
</a>
</g>
</g>
<!-- Node27&#45;&gt;Node5 -->
<g id="edge28" class="edge">
<title>Node27&#45;&gt;Node5</title>
<path fill="none" stroke="#9a32cd" stroke-dasharray="5,2" d="M676.84,-372.65C637.65,-354.97 579.2,-328.59 543.59,-312.53"/>
<polygon fill="#9a32cd" stroke="#9a32cd" points="675.81,-376.03 686.36,-376.95 678.69,-369.65 675.81,-376.03"/>
<text text-anchor="middle" x="653" y="-339.5" font-family="Helvetica,sans-Serif" font-size="10.00"> m_Center</text>
</g>
<!-- Node28&#45;&gt;Node27 -->
<g id="edge29" class="edge">
<title>Node28&#45;&gt;Node27</title>
<path fill="none" stroke="midnightblue" d="M733.53,-440.77C729.79,-429.61 725.45,-416.69 722.23,-407.1"/>
<polygon fill="midnightblue" stroke="midnightblue" points="730.26,-442.01 736.76,-450.37 736.89,-439.78 730.26,-442.01"/>
</g>
<!-- Node29 -->
<g id="node29" class="node">
<title>Node29</title>
<g id="a_node29"><a xlink:href="classitk_1_1Versor.html" target="_top" xlink:title=" ">
<polygon fill="white" stroke="black" points="697.5,-220 697.5,-239 819.5,-239 819.5,-220 697.5,-220"/>
<text text-anchor="middle" x="758.5" y="-227" font-family="Helvetica,sans-Serif" font-size="10.00">itk::Versor&lt; double &gt;</text>
</a>
</g>
</g>
<!-- Node29&#45;&gt;Node3 -->
<g id="edge32" class="edge">
<title>Node29&#45;&gt;Node3</title>
<path fill="none" stroke="#9a32cd" stroke-dasharray="5,2" d="M758.5,-209.78C758.5,-196.4 758.5,-178.69 758.5,-166.52"/>
<polygon fill="#9a32cd" stroke="#9a32cd" points="755,-209.78 758.5,-219.78 762,-209.78 755,-209.78"/>
<text text-anchor="middle" x="783" y="-188" font-family="Helvetica,sans-Serif" font-size="10.00"> m_Versor</text>
</g>
<!-- Node30&#45;&gt;Node1 -->
<g id="edge33" class="edge">
<title>Node30&#45;&gt;Node1</title>
<path fill="none" stroke="#9a32cd" stroke-dasharray="5,2" d="M930.32,-329.12C900.39,-317.81 865.5,-297.46 865.5,-264 865.5,-264 865.5,-264 865.5,-82.5 865.5,-61.04 848.26,-42.59 833.45,-30.7"/>
<polygon fill="#9a32cd" stroke="#9a32cd" points="929.22,-332.44 939.82,-332.48 931.55,-325.84 929.22,-332.44"/>
<text text-anchor="middle" x="888" y="-188" font-family="Helvetica,sans-Serif" font-size="10.00"> m_Scale</text>
</g>
</g>
</svg>
