<?xml version="1.0" encoding="UTF-8" standalone="no"?>
<!DOCTYPE svg PUBLIC "-//W3C//DTD SVG 1.1//EN"
 "http://www.w3.org/Graphics/SVG/1.1/DTD/svg11.dtd">
<!-- Generated by graphviz version 2.43.0 (0)
 -->
<!-- Title: itk::LaplacianDeformationQuadEdgeMeshFilterWithHardConstraints&lt; TInputMesh, TOutputMesh, TSolverTraits &gt; Pages: 1 -->
<svg width="2884pt" height="579pt"
 viewBox="0.00 0.00 2884.00 578.50" xmlns="http://www.w3.org/2000/svg" xmlns:xlink="http://www.w3.org/1999/xlink">
<g id="graph0" class="graph" transform="scale(1 1) rotate(0) translate(4 574.5)">
<title>itk::LaplacianDeformationQuadEdgeMeshFilterWithHardConstraints&lt; TInputMesh, TOutputMesh, TSolverTraits &gt;</title>
<polygon fill="white" stroke="transparent" points="-4,4 -4,-574.5 2880,-574.5 2880,4 -4,4"/>
<!-- Node1 -->
<g id="node1" class="node">
<title>Node1</title>
<g id="a_node1"><a xlink:title="Laplacian mesh deformation with hard constraints (interpolating displacement for some handle points)">
<polygon fill="#bfbfbf" stroke="black" points="2640,-149 2640,-190 2876,-190 2876,-149 2640,-149"/>
<text text-anchor="start" x="2648" y="-178" font-family="Helvetica,sans-Serif" font-size="10.00">itk::LaplacianDeformation</text>
<text text-anchor="start" x="2648" y="-167" font-family="Helvetica,sans-Serif" font-size="10.00">QuadEdgeMeshFilterWithHardConstraints</text>
<text text-anchor="middle" x="2758" y="-156" font-family="Helvetica,sans-Serif" font-size="10.00">&lt; TInputMesh, TOutputMesh, TSolverTraits &gt;</text>
</a>
</g>
</g>
<!-- Node2 -->
<g id="node2" class="node">
<title>Node2</title>
<g id="a_node2"><a xlink:href="classitk_1_1LaplacianDeformationQuadEdgeMeshFilter.html" target="_top" xlink:title="(abstract) base class for laplacian surface mesh deformation.">
<polygon fill="white" stroke="black" points="2415,-149 2415,-190 2603,-190 2603,-149 2415,-149"/>
<text text-anchor="start" x="2423" y="-178" font-family="Helvetica,sans-Serif" font-size="10.00">itk::LaplacianDeformation</text>
<text text-anchor="start" x="2423" y="-167" font-family="Helvetica,sans-Serif" font-size="10.00">QuadEdgeMeshFilter&lt; TInputMesh,</text>
<text text-anchor="middle" x="2509" y="-156" font-family="Helvetica,sans-Serif" font-size="10.00"> TOutputMesh, TSolverTraits &gt;</text>
</a>
</g>
</g>
<!-- Node2&#45;&gt;Node1 -->
<g id="edge1" class="edge">
<title>Node2&#45;&gt;Node1</title>
<path fill="none" stroke="midnightblue" d="M2613.27,-169.5C2622.06,-169.5 2630.98,-169.5 2639.87,-169.5"/>
<polygon fill="midnightblue" stroke="midnightblue" points="2613.03,-166 2603.03,-169.5 2613.03,-173 2613.03,-166"/>
</g>
<!-- Node3 -->
<g id="node3" class="node">
<title>Node3</title>
<g id="a_node3"><a xlink:href="classitk_1_1QuadEdgeMeshToQuadEdgeMeshFilter.html" target="_top" xlink:title="Duplicates the content of a Mesh.">
<polygon fill="white" stroke="black" points="2095,-302 2095,-343 2266,-343 2266,-302 2095,-302"/>
<text text-anchor="start" x="2103" y="-331" font-family="Helvetica,sans-Serif" font-size="10.00">itk::QuadEdgeMeshToQuadEdge</text>
<text text-anchor="start" x="2103" y="-320" font-family="Helvetica,sans-Serif" font-size="10.00">MeshFilter&lt; TInputMesh,</text>
<text text-anchor="middle" x="2180.5" y="-309" font-family="Helvetica,sans-Serif" font-size="10.00"> TOutputMesh &gt;</text>
</a>
</g>
</g>
<!-- Node3&#45;&gt;Node2 -->
<g id="edge2" class="edge">
<title>Node3&#45;&gt;Node2</title>
<path fill="none" stroke="midnightblue" d="M2273.85,-299.11C2312.99,-287.43 2358.37,-271.48 2397,-251.5 2429.77,-234.55 2463.29,-208.32 2484.79,-190.11"/>
<polygon fill="midnightblue" stroke="midnightblue" points="2272.66,-295.81 2264.05,-301.99 2274.63,-302.53 2272.66,-295.81"/>
</g>
<!-- Node4 -->
<g id="node4" class="node">
<title>Node4</title>
<g id="a_node4"><a xlink:href="classitk_1_1MeshToMeshFilter.html" target="_top" xlink:title="MeshToMeshFilter is the base class for all process objects that output mesh data, and require mesh da...">
<polygon fill="white" stroke="black" points="1891,-307.5 1891,-337.5 2058,-337.5 2058,-307.5 1891,-307.5"/>
<text text-anchor="start" x="1899" y="-325.5" font-family="Helvetica,sans-Serif" font-size="10.00">itk::MeshToMeshFilter</text>
<text text-anchor="middle" x="1974.5" y="-314.5" font-family="Helvetica,sans-Serif" font-size="10.00">&lt; TInputMesh, TOutputMesh &gt;</text>
</a>
</g>
</g>
<!-- Node4&#45;&gt;Node3 -->
<g id="edge3" class="edge">
<title>Node4&#45;&gt;Node3</title>
<path fill="none" stroke="midnightblue" d="M2068.41,-322.5C2077.17,-322.5 2086.03,-322.5 2094.71,-322.5"/>
<polygon fill="midnightblue" stroke="midnightblue" points="2068.18,-319 2058.18,-322.5 2068.18,-326 2068.18,-319"/>
</g>
<!-- Node5 -->
<g id="node5" class="node">
<title>Node5</title>
<g id="a_node5"><a xlink:href="classitk_1_1MeshSource.html" target="_top" xlink:title="Base class for all process objects that output mesh data.">
<polygon fill="white" stroke="black" points="1709,-307.5 1709,-337.5 1854,-337.5 1854,-307.5 1709,-307.5"/>
<text text-anchor="start" x="1717" y="-325.5" font-family="Helvetica,sans-Serif" font-size="10.00">itk::MeshSource&lt; TOutput</text>
<text text-anchor="middle" x="1781.5" y="-314.5" font-family="Helvetica,sans-Serif" font-size="10.00">Mesh &gt;</text>
</a>
</g>
</g>
<!-- Node5&#45;&gt;Node4 -->
<g id="edge4" class="edge">
<title>Node5&#45;&gt;Node4</title>
<path fill="none" stroke="midnightblue" d="M1864.37,-322.5C1873.13,-322.5 1882.05,-322.5 1890.83,-322.5"/>
<polygon fill="midnightblue" stroke="midnightblue" points="1864.16,-319 1854.16,-322.5 1864.16,-326 1864.16,-319"/>
</g>
<!-- Node6 -->
<g id="node6" class="node">
<title>Node6</title>
<g id="a_node6"><a xlink:href="classitk_1_1ProcessObject.html" target="_top" xlink:title="The base class for all process objects (source, filters, mappers) in the Insight data processing pipe...">
<polygon fill="white" stroke="black" points="1568,-313 1568,-332 1672,-332 1672,-313 1568,-313"/>
<text text-anchor="middle" x="1620" y="-320" font-family="Helvetica,sans-Serif" font-size="10.00">itk::ProcessObject</text>
</a>
</g>
</g>
<!-- Node6&#45;&gt;Node5 -->
<g id="edge5" class="edge">
<title>Node6&#45;&gt;Node5</title>
<path fill="none" stroke="midnightblue" d="M1682.37,-322.5C1691.06,-322.5 1700.06,-322.5 1708.91,-322.5"/>
<polygon fill="midnightblue" stroke="midnightblue" points="1682.34,-319 1672.34,-322.5 1682.34,-326 1682.34,-319"/>
</g>
<!-- Node7 -->
<g id="node7" class="node">
<title>Node7</title>
<g id="a_node7"><a xlink:href="classitk_1_1Object.html" target="_top" xlink:title="Base class for most ITK classes.">
<polygon fill="white" stroke="black" points="1272,-452 1272,-471 1339,-471 1339,-452 1272,-452"/>
<text text-anchor="middle" x="1305.5" y="-459" font-family="Helvetica,sans-Serif" font-size="10.00">itk::Object</text>
</a>
</g>
</g>
<!-- Node7&#45;&gt;Node6 -->
<g id="edge6" class="edge">
<title>Node7&#45;&gt;Node6</title>
<path fill="none" stroke="midnightblue" d="M1349.39,-459.86C1400.63,-456.13 1487.27,-444.1 1550,-405.5 1580.48,-386.74 1603.89,-349.77 1613.81,-332.21"/>
<polygon fill="midnightblue" stroke="midnightblue" points="1349.08,-456.37 1339.33,-460.52 1349.53,-463.36 1349.08,-456.37"/>
</g>
<!-- Node8 -->
<g id="node8" class="node">
<title>Node8</title>
<g id="a_node8"><a xlink:href="classitk_1_1LightObject.html" target="_top" xlink:title="Light weight base class for most itk classes.">
<polygon fill="white" stroke="black" points="935,-414 935,-433 1026,-433 1026,-414 935,-414"/>
<text text-anchor="middle" x="980.5" y="-421" font-family="Helvetica,sans-Serif" font-size="10.00">itk::LightObject</text>
</a>
</g>
</g>
<!-- Node8&#45;&gt;Node7 -->
<g id="edge7" class="edge">
<title>Node8&#45;&gt;Node7</title>
<path fill="none" stroke="midnightblue" d="M1036.09,-429.92C1103.55,-437.86 1216.2,-451.11 1271.64,-457.63"/>
<polygon fill="midnightblue" stroke="midnightblue" points="1036.41,-426.44 1026.07,-428.74 1035.6,-433.39 1036.41,-426.44"/>
</g>
<!-- Node9 -->
<g id="node9" class="node">
<title>Node9</title>
<g id="a_node9"><a xlink:title=" ">
<polygon fill="white" stroke="black" points="655.5,-414 655.5,-433 762.5,-433 762.5,-414 655.5,-414"/>
<text text-anchor="middle" x="709" y="-421" font-family="Helvetica,sans-Serif" font-size="10.00">std::atomic&lt; int &gt;</text>
</a>
</g>
</g>
<!-- Node9&#45;&gt;Node8 -->
<g id="edge8" class="edge">
<title>Node9&#45;&gt;Node8</title>
<path fill="none" stroke="#9a32cd" stroke-dasharray="5,2" d="M772.89,-423.5C822.48,-423.5 890.42,-423.5 934.63,-423.5"/>
<polygon fill="#9a32cd" stroke="#9a32cd" points="772.6,-420 762.6,-423.5 772.6,-427 772.6,-420"/>
<text text-anchor="middle" x="842.5" y="-426.5" font-family="Helvetica,sans-Serif" font-size="10.00"> m_ReferenceCount</text>
</g>
<!-- Node10 -->
<g id="node10" class="node">
<title>Node10</title>
<g id="a_node10"><a xlink:href="classitk_1_1TimeStamp.html" target="_top" xlink:title="Generate a unique, increasing time value.">
<polygon fill="white" stroke="black" points="934.5,-551 934.5,-570 1026.5,-570 1026.5,-551 934.5,-551"/>
<text text-anchor="middle" x="980.5" y="-558" font-family="Helvetica,sans-Serif" font-size="10.00">itk::TimeStamp</text>
</a>
</g>
</g>
<!-- Node10&#45;&gt;Node6 -->
<g id="edge21" class="edge">
<title>Node10&#45;&gt;Node6</title>
<path fill="none" stroke="#9a32cd" stroke-dasharray="5,2" d="M1037.02,-564.7C1147.52,-570 1397.42,-566.36 1550,-442.5 1587.69,-411.9 1608.86,-354.88 1616.12,-332.18"/>
<polygon fill="#9a32cd" stroke="#9a32cd" points="1036.94,-561.19 1026.77,-564.16 1036.58,-568.18 1036.94,-561.19"/>
<text text-anchor="middle" x="1305.5" y="-562.5" font-family="Helvetica,sans-Serif" font-size="10.00"> m_OutputInformationMTime</text>
</g>
<!-- Node10&#45;&gt;Node7 -->
<g id="edge9" class="edge">
<title>Node10&#45;&gt;Node7</title>
<path fill="none" stroke="#9a32cd" stroke-dasharray="5,2" d="M1036.76,-550.42C1097.18,-539.25 1187.53,-522.08 1203,-516.5 1235.8,-504.66 1270.9,-483.51 1290.03,-471.17"/>
<polygon fill="#9a32cd" stroke="#9a32cd" points="1035.79,-547.04 1026.59,-552.29 1037.06,-553.92 1035.79,-547.04"/>
<text text-anchor="middle" x="1136.5" y="-546.5" font-family="Helvetica,sans-Serif" font-size="10.00"> m_MTime</text>
</g>
<!-- Node11 -->
<g id="node11" class="node">
<title>Node11</title>
<g id="a_node11"><a xlink:title=" ">
<polygon fill="white" stroke="black" points="233,-549 233,-568 333,-568 333,-549 233,-549"/>
<text text-anchor="middle" x="283" y="-556" font-family="Helvetica,sans-Serif" font-size="10.00">std::atomic&lt; T &gt;</text>
</a>
</g>
</g>
<!-- Node11&#45;&gt;Node10 -->
<g id="edge10" class="edge">
<title>Node11&#45;&gt;Node10</title>
<path fill="none" stroke="#9a32cd" stroke-dasharray="5,2" d="M343.44,-558.67C479.86,-559.06 813,-560.02 934.35,-560.37"/>
<polygon fill="#9a32cd" stroke="#9a32cd" points="343.19,-555.17 333.18,-558.64 343.17,-562.17 343.19,-555.17"/>
<text text-anchor="middle" x="571" y="-561.5" font-family="Helvetica,sans-Serif" font-size="10.00"> m_GlobalTimeStamp</text>
</g>
<!-- Node12 -->
<g id="node12" class="node">
<title>Node12</title>
<g id="a_node12"><a xlink:title=" ">
<polygon fill="white" stroke="black" points="0,-534 0,-553 29,-553 29,-534 0,-534"/>
<text text-anchor="middle" x="14.5" y="-541" font-family="Helvetica,sans-Serif" font-size="10.00">T</text>
</a>
</g>
</g>
<!-- Node12&#45;&gt;Node11 -->
<g id="edge11" class="edge">
<title>Node12&#45;&gt;Node11</title>
<path fill="none" stroke="#9a32cd" stroke-dasharray="5,2" d="M39.23,-544.84C82.59,-547.28 175.47,-552.5 232.94,-555.74"/>
<polygon fill="#9a32cd" stroke="#9a32cd" points="39.26,-541.33 29.08,-544.26 38.87,-548.32 39.26,-541.33"/>
<text text-anchor="middle" x="71.5" y="-550.5" font-family="Helvetica,sans-Serif" font-size="10.00"> ptr</text>
</g>
<!-- Node17 -->
<g id="node17" class="node">
<title>Node17</title>
<g id="a_node17"><a xlink:title=" ">
<polygon fill="white" stroke="black" points="114,-481 114,-500 215,-500 215,-481 114,-481"/>
<text text-anchor="middle" x="164.5" y="-488" font-family="Helvetica,sans-Serif" font-size="10.00">std::map&lt; K, T &gt;</text>
</a>
</g>
</g>
<!-- Node12&#45;&gt;Node17 -->
<g id="edge18" class="edge">
<title>Node12&#45;&gt;Node17</title>
<path fill="none" stroke="#9a32cd" stroke-dasharray="5,2" d="M38.18,-529.74C41.1,-528.21 44.08,-526.75 47,-525.5 71.84,-514.84 100.96,-506.09 123.88,-500"/>
<polygon fill="#9a32cd" stroke="#9a32cd" points="36.28,-526.79 29.26,-534.73 39.7,-532.9 36.28,-526.79"/>
<text text-anchor="middle" x="71.5" y="-528.5" font-family="Helvetica,sans-Serif" font-size="10.00"> elements</text>
</g>
<!-- Node13 -->
<g id="node13" class="node">
<title>Node13</title>
<g id="a_node13"><a xlink:title=" ">
<polygon fill="white" stroke="black" points="912,-501.5 912,-531.5 1049,-531.5 1049,-501.5 912,-501.5"/>
<text text-anchor="start" x="920" y="-519.5" font-family="Helvetica,sans-Serif" font-size="10.00">std::unique_ptr&lt; Subject</text>
<text text-anchor="middle" x="980.5" y="-508.5" font-family="Helvetica,sans-Serif" font-size="10.00">Implementation &gt;</text>
</a>
</g>
</g>
<!-- Node13&#45;&gt;Node7 -->
<g id="edge12" class="edge">
<title>Node13&#45;&gt;Node7</title>
<path fill="none" stroke="#9a32cd" stroke-dasharray="5,2" d="M1059.43,-504.3C1101.91,-497.53 1155.39,-488.82 1203,-480.5 1225.96,-476.49 1251.77,-471.65 1271.62,-467.86"/>
<polygon fill="#9a32cd" stroke="#9a32cd" points="1058.76,-500.86 1049.43,-505.89 1059.86,-507.78 1058.76,-500.86"/>
<text text-anchor="middle" x="1136.5" y="-504.5" font-family="Helvetica,sans-Serif" font-size="10.00"> m_SubjectImplementation</text>
</g>
<!-- Node14 -->
<g id="node14" class="node">
<title>Node14</title>
<g id="a_node14"><a xlink:title=" ">
<polygon fill="white" stroke="black" points="914.5,-452.5 914.5,-482.5 1046.5,-482.5 1046.5,-452.5 914.5,-452.5"/>
<text text-anchor="start" x="922.5" y="-470.5" font-family="Helvetica,sans-Serif" font-size="10.00">std::unique_ptr&lt; itk</text>
<text text-anchor="middle" x="980.5" y="-459.5" font-family="Helvetica,sans-Serif" font-size="10.00">::MetaDataDictionary &gt;</text>
</a>
</g>
</g>
<!-- Node14&#45;&gt;Node7 -->
<g id="edge13" class="edge">
<title>Node14&#45;&gt;Node7</title>
<path fill="none" stroke="#9a32cd" stroke-dasharray="5,2" d="M1057.1,-466.1C1125.12,-464.83 1221.81,-463.04 1271.78,-462.11"/>
<polygon fill="#9a32cd" stroke="#9a32cd" points="1056.8,-462.6 1046.86,-466.29 1056.93,-469.6 1056.8,-462.6"/>
<text text-anchor="middle" x="1136.5" y="-468.5" font-family="Helvetica,sans-Serif" font-size="10.00"> m_MetaDataDictionary</text>
</g>
<!-- Node15 -->
<g id="node15" class="node">
<title>Node15</title>
<g id="a_node15"><a xlink:href="classitk_1_1MetaDataDictionary.html" target="_top" xlink:title="Provides a mechanism for storing a collection of arbitrary data types.">
<polygon fill="white" stroke="black" points="642,-458 642,-477 776,-477 776,-458 642,-458"/>
<text text-anchor="middle" x="709" y="-465" font-family="Helvetica,sans-Serif" font-size="10.00">itk::MetaDataDictionary</text>
</a>
</g>
</g>
<!-- Node15&#45;&gt;Node14 -->
<g id="edge14" class="edge">
<title>Node15&#45;&gt;Node14</title>
<path fill="none" stroke="#9a32cd" stroke-dasharray="5,2" d="M786.35,-467.5C826.75,-467.5 875.84,-467.5 914.42,-467.5"/>
<polygon fill="#9a32cd" stroke="#9a32cd" points="786.27,-464 776.27,-467.5 786.27,-471 786.27,-464"/>
<text text-anchor="middle" x="842.5" y="-470.5" font-family="Helvetica,sans-Serif" font-size="10.00"> ptr</text>
</g>
<!-- Node16 -->
<g id="node16" class="node">
<title>Node16</title>
<g id="a_node16"><a xlink:title=" ">
<polygon fill="white" stroke="black" points="351,-457.5 351,-487.5 500,-487.5 500,-457.5 351,-457.5"/>
<text text-anchor="start" x="359" y="-475.5" font-family="Helvetica,sans-Serif" font-size="10.00">std::shared_ptr&lt; MetaData</text>
<text text-anchor="middle" x="425.5" y="-464.5" font-family="Helvetica,sans-Serif" font-size="10.00">DictionaryMapType &gt;</text>
</a>
</g>
</g>
<!-- Node16&#45;&gt;Node15 -->
<g id="edge15" class="edge">
<title>Node16&#45;&gt;Node15</title>
<path fill="none" stroke="#9a32cd" stroke-dasharray="5,2" d="M510.29,-471.01C552.24,-470.27 602.31,-469.38 641.57,-468.68"/>
<polygon fill="#9a32cd" stroke="#9a32cd" points="510.03,-467.52 500.09,-471.19 510.15,-474.51 510.03,-467.52"/>
<text text-anchor="middle" x="571" y="-473.5" font-family="Helvetica,sans-Serif" font-size="10.00"> m_Dictionary</text>
</g>
<!-- Node17&#45;&gt;Node16 -->
<g id="edge16" class="edge">
<title>Node17&#45;&gt;Node16</title>
<path fill="none" stroke="#9a32cd" stroke-dasharray="5,2" d="M225.34,-486.34C262.61,-483.75 310.86,-480.4 350.52,-477.64"/>
<polygon fill="#9a32cd" stroke="#9a32cd" points="224.86,-482.87 215.13,-487.05 225.35,-489.85 224.86,-482.87"/>
<text text-anchor="middle" x="283" y="-488.5" font-family="Helvetica,sans-Serif" font-size="10.00"> ptr</text>
</g>
<!-- Node18 -->
<g id="node18" class="node">
<title>Node18</title>
<g id="a_node18"><a xlink:title=" ">
<polygon fill="white" stroke="black" points="0,-481 0,-500 29,-500 29,-481 0,-481"/>
<text text-anchor="middle" x="14.5" y="-488" font-family="Helvetica,sans-Serif" font-size="10.00">K</text>
</a>
</g>
</g>
<!-- Node18&#45;&gt;Node17 -->
<g id="edge17" class="edge">
<title>Node18&#45;&gt;Node17</title>
<path fill="none" stroke="#9a32cd" stroke-dasharray="5,2" d="M39.24,-490.5C59.28,-490.5 88.63,-490.5 113.78,-490.5"/>
<polygon fill="#9a32cd" stroke="#9a32cd" points="39.16,-487 29.16,-490.5 39.16,-494 39.16,-487"/>
<text text-anchor="middle" x="71.5" y="-493.5" font-family="Helvetica,sans-Serif" font-size="10.00"> keys</text>
</g>
<!-- Node19 -->
<g id="node19" class="node">
<title>Node19</title>
<g id="a_node19"><a xlink:title=" ">
<polygon fill="white" stroke="black" points="948,-358 948,-377 1013,-377 1013,-358 948,-358"/>
<text text-anchor="middle" x="980.5" y="-365" font-family="Helvetica,sans-Serif" font-size="10.00">std::string</text>
</a>
</g>
</g>
<!-- Node19&#45;&gt;Node7 -->
<g id="edge19" class="edge">
<title>Node19&#45;&gt;Node7</title>
<path fill="none" stroke="#9a32cd" stroke-dasharray="5,2" d="M1019.74,-380.17C1035.23,-385.04 1053.36,-390.41 1070,-394.5 1128.41,-408.85 1145.35,-402.35 1203,-419.5 1232.25,-428.2 1264.58,-442.43 1284.72,-451.88"/>
<polygon fill="#9a32cd" stroke="#9a32cd" points="1020.57,-376.76 1009.97,-377.06 1018.44,-383.43 1020.57,-376.76"/>
<text text-anchor="middle" x="1136.5" y="-422.5" font-family="Helvetica,sans-Serif" font-size="10.00"> m_ObjectName</text>
</g>
<!-- Node21 -->
<g id="node21" class="node">
<title>Node21</title>
<g id="a_node21"><a xlink:title=" ">
<polygon fill="white" stroke="black" points="1221,-282.5 1221,-312.5 1390,-312.5 1390,-282.5 1221,-282.5"/>
<text text-anchor="start" x="1229" y="-300.5" font-family="Helvetica,sans-Serif" font-size="10.00">std::map&lt; DataObjectIdentifier</text>
<text text-anchor="middle" x="1305.5" y="-289.5" font-family="Helvetica,sans-Serif" font-size="10.00">Type, DataObjectPointer &gt;</text>
</a>
</g>
</g>
<!-- Node19&#45;&gt;Node21 -->
<g id="edge23" class="edge">
<title>Node19&#45;&gt;Node21</title>
<path fill="none" stroke="#9a32cd" stroke-dasharray="5,2" d="M1008.63,-353.14C1025.77,-344.68 1048.65,-334.48 1070,-328.5 1119.03,-314.76 1175.58,-307.06 1220.86,-302.77"/>
<polygon fill="#9a32cd" stroke="#9a32cd" points="1006.59,-350.24 999.25,-357.88 1009.75,-356.49 1006.59,-350.24"/>
<text text-anchor="middle" x="1136.5" y="-331.5" font-family="Helvetica,sans-Serif" font-size="10.00"> keys</text>
</g>
<!-- Node25 -->
<g id="node25" class="node">
<title>Node25</title>
<g id="a_node25"><a xlink:title=" ">
<polygon fill="white" stroke="black" points="1221,-331.5 1221,-361.5 1390,-361.5 1390,-331.5 1221,-331.5"/>
<text text-anchor="start" x="1229" y="-349.5" font-family="Helvetica,sans-Serif" font-size="10.00">std::map&lt; DataObjectIdentifier</text>
<text text-anchor="middle" x="1305.5" y="-338.5" font-family="Helvetica,sans-Serif" font-size="10.00">Type, bool &gt;</text>
</a>
</g>
</g>
<!-- Node19&#45;&gt;Node25 -->
<g id="edge28" class="edge">
<title>Node19&#45;&gt;Node25</title>
<path fill="none" stroke="#9a32cd" stroke-dasharray="5,2" d="M1023.06,-357.37C1037.79,-354.23 1054.55,-351.16 1070,-349.5 1119.9,-344.15 1176.1,-343.26 1220.98,-343.77"/>
<polygon fill="#9a32cd" stroke="#9a32cd" points="1022.24,-353.97 1013.23,-359.54 1023.74,-360.8 1022.24,-353.97"/>
<text text-anchor="middle" x="1136.5" y="-352.5" font-family="Helvetica,sans-Serif" font-size="10.00"> keys</text>
</g>
<!-- Node26 -->
<g id="node26" class="node">
<title>Node26</title>
<g id="a_node26"><a xlink:title=" ">
<polygon fill="white" stroke="black" points="1224.5,-380.5 1224.5,-410.5 1386.5,-410.5 1386.5,-380.5 1224.5,-380.5"/>
<text text-anchor="start" x="1232.5" y="-398.5" font-family="Helvetica,sans-Serif" font-size="10.00">std::set&lt; DataObjectIdentifier</text>
<text text-anchor="middle" x="1305.5" y="-387.5" font-family="Helvetica,sans-Serif" font-size="10.00">Type &gt;</text>
</a>
</g>
</g>
<!-- Node19&#45;&gt;Node26 -->
<g id="edge30" class="edge">
<title>Node19&#45;&gt;Node26</title>
<path fill="none" stroke="#9a32cd" stroke-dasharray="5,2" d="M1023.24,-369.95C1067.8,-372.69 1140.46,-377.55 1203,-383.5 1209.98,-384.16 1217.22,-384.91 1224.47,-385.69"/>
<polygon fill="#9a32cd" stroke="#9a32cd" points="1023.28,-366.44 1013.08,-369.33 1022.85,-373.43 1023.28,-366.44"/>
<text text-anchor="middle" x="1136.5" y="-386.5" font-family="Helvetica,sans-Serif" font-size="10.00"> keys</text>
</g>
<!-- Node20 -->
<g id="node20" class="node">
<title>Node20</title>
<g id="a_node20"><a xlink:title=" ">
<polygon fill="white" stroke="black" points="657,-352.5 657,-382.5 761,-382.5 761,-352.5 657,-352.5"/>
<text text-anchor="start" x="665" y="-370.5" font-family="Helvetica,sans-Serif" font-size="10.00">std::basic_string&lt;</text>
<text text-anchor="middle" x="709" y="-359.5" font-family="Helvetica,sans-Serif" font-size="10.00"> Char &gt;</text>
</a>
</g>
</g>
<!-- Node20&#45;&gt;Node19 -->
<g id="edge20" class="edge">
<title>Node20&#45;&gt;Node19</title>
<path fill="none" stroke="midnightblue" d="M771.31,-367.5C826.18,-367.5 904.43,-367.5 947.69,-367.5"/>
<polygon fill="midnightblue" stroke="midnightblue" points="771.01,-364 761.01,-367.5 771.01,-371 771.01,-364"/>
</g>
<!-- Node21&#45;&gt;Node6 -->
<g id="edge22" class="edge">
<title>Node21&#45;&gt;Node6</title>
<path fill="none" stroke="#9a32cd" stroke-dasharray="5,2" d="M1400.25,-292.97C1445.72,-292.31 1500.98,-293.79 1550,-301.5 1564.84,-303.83 1580.93,-308.59 1593.84,-312.99"/>
<polygon fill="#9a32cd" stroke="#9a32cd" points="1400.04,-289.47 1390.11,-293.15 1400.17,-296.47 1400.04,-289.47"/>
<text text-anchor="middle" x="1479" y="-315.5" font-family="Helvetica,sans-Serif" font-size="10.00"> m_Inputs</text>
<text text-anchor="middle" x="1479" y="-304.5" font-family="Helvetica,sans-Serif" font-size="10.00">m_Outputs</text>
</g>
<!-- Node22 -->
<g id="node22" class="node">
<title>Node22</title>
<g id="a_node22"><a xlink:href="classitk_1_1SmartPointer.html" target="_top" xlink:title=" ">
<polygon fill="white" stroke="black" points="927,-267.5 927,-297.5 1034,-297.5 1034,-267.5 927,-267.5"/>
<text text-anchor="start" x="935" y="-285.5" font-family="Helvetica,sans-Serif" font-size="10.00">itk::SmartPointer&lt;</text>
<text text-anchor="middle" x="980.5" y="-274.5" font-family="Helvetica,sans-Serif" font-size="10.00"> Self &gt;</text>
</a>
</g>
</g>
<!-- Node22&#45;&gt;Node21 -->
<g id="edge24" class="edge">
<title>Node22&#45;&gt;Node21</title>
<path fill="none" stroke="#9a32cd" stroke-dasharray="5,2" d="M1044.39,-281.7C1053,-281.62 1061.72,-281.55 1070,-281.5 1129.11,-281.17 1144.07,-276.88 1203,-281.5 1208.87,-281.96 1214.91,-282.57 1220.99,-283.28"/>
<polygon fill="#9a32cd" stroke="#9a32cd" points="1044.34,-278.2 1034.38,-281.8 1044.42,-285.2 1044.34,-278.2"/>
<text text-anchor="middle" x="1136.5" y="-284.5" font-family="Helvetica,sans-Serif" font-size="10.00"> elements</text>
</g>
<!-- Node23 -->
<g id="node23" class="node">
<title>Node23</title>
<g id="a_node23"><a xlink:title=" ">
<polygon fill="white" stroke="black" points="1221,-233.5 1221,-263.5 1390,-263.5 1390,-233.5 1221,-233.5"/>
<text text-anchor="start" x="1229" y="-251.5" font-family="Helvetica,sans-Serif" font-size="10.00">std::vector&lt; DataObjectPointer</text>
<text text-anchor="middle" x="1305.5" y="-240.5" font-family="Helvetica,sans-Serif" font-size="10.00">Map::iterator &gt;</text>
</a>
</g>
</g>
<!-- Node23&#45;&gt;Node6 -->
<g id="edge25" class="edge">
<title>Node23&#45;&gt;Node6</title>
<path fill="none" stroke="#9a32cd" stroke-dasharray="5,2" d="M1400.22,-242.46C1446.75,-242.65 1502.92,-247.82 1550,-266.5 1575.53,-276.63 1598.91,-299.75 1610.8,-312.89"/>
<polygon fill="#9a32cd" stroke="#9a32cd" points="1400.13,-238.96 1390.14,-242.49 1400.15,-245.96 1400.13,-238.96"/>
<text text-anchor="middle" x="1479" y="-280.5" font-family="Helvetica,sans-Serif" font-size="10.00"> m_IndexedInputs</text>
<text text-anchor="middle" x="1479" y="-269.5" font-family="Helvetica,sans-Serif" font-size="10.00">m_IndexedOutputs</text>
</g>
<!-- Node24 -->
<g id="node24" class="node">
<title>Node24</title>
<g id="a_node24"><a xlink:title=" ">
<polygon fill="white" stroke="black" points="909,-229 909,-248 1052,-248 1052,-229 909,-229"/>
<text text-anchor="middle" x="980.5" y="-236" font-family="Helvetica,sans-Serif" font-size="10.00">std::map&lt; K, T &gt;::iterator</text>
</a>
</g>
</g>
<!-- Node24&#45;&gt;Node23 -->
<g id="edge26" class="edge">
<title>Node24&#45;&gt;Node23</title>
<path fill="none" stroke="#9a32cd" stroke-dasharray="5,2" d="M1062.49,-241.01C1110.84,-242.5 1172.12,-244.4 1220.92,-245.91"/>
<polygon fill="#9a32cd" stroke="#9a32cd" points="1062.49,-237.51 1052.38,-240.69 1062.27,-244.5 1062.49,-237.51"/>
<text text-anchor="middle" x="1136.5" y="-247.5" font-family="Helvetica,sans-Serif" font-size="10.00"> elements</text>
</g>
<!-- Node25&#45;&gt;Node6 -->
<g id="edge27" class="edge">
<title>Node25&#45;&gt;Node6</title>
<path fill="none" stroke="#9a32cd" stroke-dasharray="5,2" d="M1400.35,-339.29C1455.29,-335.07 1522.54,-329.91 1567.84,-326.43"/>
<polygon fill="#9a32cd" stroke="#9a32cd" points="1399.95,-335.81 1390.24,-340.07 1400.48,-342.79 1399.95,-335.81"/>
<text text-anchor="start" x="1408" y="-351.5" font-family="Helvetica,sans-Serif" font-size="10.00"> m_CachedInputReleaseData</text>
<text text-anchor="middle" x="1479" y="-340.5" font-family="Helvetica,sans-Serif" font-size="10.00">Flags</text>
</g>
<!-- Node26&#45;&gt;Node6 -->
<g id="edge29" class="edge">
<title>Node26&#45;&gt;Node6</title>
<path fill="none" stroke="#9a32cd" stroke-dasharray="5,2" d="M1396.89,-392.33C1443.64,-388.53 1501.02,-380.46 1550,-363.5 1571.33,-356.11 1593.3,-341.66 1606.55,-332.04"/>
<polygon fill="#9a32cd" stroke="#9a32cd" points="1396.48,-388.85 1386.78,-393.1 1397.01,-395.83 1396.48,-388.85"/>
<text text-anchor="middle" x="1479" y="-393.5" font-family="Helvetica,sans-Serif" font-size="10.00"> m_RequiredInputNames</text>
</g>
<!-- Node27 -->
<g id="node27" class="node">
<title>Node27</title>
<g id="a_node27"><a xlink:title=" ">
<polygon fill="white" stroke="black" points="1238.5,-195 1238.5,-214 1372.5,-214 1372.5,-195 1238.5,-195"/>
<text text-anchor="middle" x="1305.5" y="-202" font-family="Helvetica,sans-Serif" font-size="10.00">std::atomic&lt; uint32_t &gt;</text>
</a>
</g>
</g>
<!-- Node27&#45;&gt;Node6 -->
<g id="edge31" class="edge">
<title>Node27&#45;&gt;Node6</title>
<path fill="none" stroke="#9a32cd" stroke-dasharray="5,2" d="M1382.87,-196.1C1433.46,-194.13 1499.53,-198.71 1550,-227.5 1584.88,-247.4 1606.94,-292.93 1615.25,-312.86"/>
<polygon fill="#9a32cd" stroke="#9a32cd" points="1382.46,-192.61 1372.65,-196.59 1382.8,-199.6 1382.46,-192.61"/>
<text text-anchor="middle" x="1479" y="-230.5" font-family="Helvetica,sans-Serif" font-size="10.00"> m_Progress</text>
</g>
<!-- Node28 -->
<g id="node28" class="node">
<title>Node28</title>
<g id="a_node28"><a xlink:title=" ">
<polygon fill="white" stroke="black" points="952.5,-191 952.5,-210 1008.5,-210 1008.5,-191 952.5,-191"/>
<text text-anchor="middle" x="980.5" y="-198" font-family="Helvetica,sans-Serif" font-size="10.00">uint32_t</text>
</a>
</g>
</g>
<!-- Node28&#45;&gt;Node27 -->
<g id="edge32" class="edge">
<title>Node28&#45;&gt;Node27</title>
<path fill="none" stroke="#9a32cd" stroke-dasharray="5,2" d="M1018.85,-200.96C1072.45,-201.63 1172.04,-202.86 1238.31,-203.68"/>
<polygon fill="#9a32cd" stroke="#9a32cd" points="1018.8,-197.46 1008.76,-200.84 1018.72,-204.46 1018.8,-197.46"/>
<text text-anchor="middle" x="1136.5" y="-205.5" font-family="Helvetica,sans-Serif" font-size="10.00"> ptr</text>
</g>
<!-- Node29 -->
<g id="node29" class="node">
<title>Node29</title>
<g id="a_node29"><a xlink:href="classitk_1_1SmartPointer.html" target="_top" xlink:title=" ">
<polygon fill="white" stroke="black" points="1234.5,-145.5 1234.5,-175.5 1376.5,-175.5 1376.5,-145.5 1234.5,-145.5"/>
<text text-anchor="start" x="1242.5" y="-163.5" font-family="Helvetica,sans-Serif" font-size="10.00">itk::SmartPointer&lt;</text>
<text text-anchor="middle" x="1305.5" y="-152.5" font-family="Helvetica,sans-Serif" font-size="10.00"> itk::MultiThreaderBase &gt;</text>
</a>
</g>
</g>
<!-- Node29&#45;&gt;Node6 -->
<g id="edge33" class="edge">
<title>Node29&#45;&gt;Node6</title>
<path fill="none" stroke="#9a32cd" stroke-dasharray="5,2" d="M1386.6,-148C1437.62,-144.36 1502.75,-148.16 1550,-180.5 1597.05,-212.7 1613.19,-286.32 1617.59,-312.79"/>
<polygon fill="#9a32cd" stroke="#9a32cd" points="1386.28,-144.52 1376.6,-148.82 1386.85,-151.5 1386.28,-144.52"/>
<text text-anchor="middle" x="1479" y="-183.5" font-family="Helvetica,sans-Serif" font-size="10.00"> m_MultiThreader</text>
</g>
<!-- Node30 -->
<g id="node30" class="node">
<title>Node30</title>
<g id="a_node30"><a xlink:title=" ">
<polygon fill="white" stroke="black" points="2114.5,-242 2114.5,-283 2246.5,-283 2246.5,-242 2114.5,-242"/>
<text text-anchor="start" x="2122.5" y="-271" font-family="Helvetica,sans-Serif" font-size="10.00">std::unordered_map</text>
<text text-anchor="start" x="2122.5" y="-260" font-family="Helvetica,sans-Serif" font-size="10.00">&lt; OutputPointIdentifier,</text>
<text text-anchor="middle" x="2180.5" y="-249" font-family="Helvetica,sans-Serif" font-size="10.00"> OutputPointIdentifier &gt;</text>
</a>
</g>
</g>
<!-- Node30&#45;&gt;Node2 -->
<g id="edge34" class="edge">
<title>Node30&#45;&gt;Node2</title>
<path fill="none" stroke="#9a32cd" stroke-dasharray="5,2" d="M2256.66,-244.29C2298.22,-233.89 2350.68,-220.22 2397,-206.5 2413.94,-201.48 2432.19,-195.6 2448.9,-190.02"/>
<polygon fill="#9a32cd" stroke="#9a32cd" points="2255.74,-240.91 2246.89,-246.73 2257.43,-247.71 2255.74,-240.91"/>
<text text-anchor="middle" x="2340.5" y="-239.5" font-family="Helvetica,sans-Serif" font-size="10.00"> m_InternalMap</text>
</g>
<!-- Node31 -->
<g id="node31" class="node">
<title>Node31</title>
<g id="a_node31"><a xlink:title=" ">
<polygon fill="white" stroke="black" points="2114.5,-182 2114.5,-223 2246.5,-223 2246.5,-182 2114.5,-182"/>
<text text-anchor="start" x="2122.5" y="-211" font-family="Helvetica,sans-Serif" font-size="10.00">std::unordered_map</text>
<text text-anchor="start" x="2122.5" y="-200" font-family="Helvetica,sans-Serif" font-size="10.00">&lt; OutputPointIdentifier,</text>
<text text-anchor="middle" x="2180.5" y="-189" font-family="Helvetica,sans-Serif" font-size="10.00"> OutputVectorType &gt;</text>
</a>
</g>
</g>
<!-- Node31&#45;&gt;Node2 -->
<g id="edge35" class="edge">
<title>Node31&#45;&gt;Node2</title>
<path fill="none" stroke="#9a32cd" stroke-dasharray="5,2" d="M2256.92,-194.88C2303.99,-190.12 2364.94,-183.96 2415,-178.9"/>
<polygon fill="#9a32cd" stroke="#9a32cd" points="2256.38,-191.41 2246.79,-195.9 2257.09,-198.38 2256.38,-191.41"/>
<text text-anchor="middle" x="2340.5" y="-194.5" font-family="Helvetica,sans-Serif" font-size="10.00"> m_Constraints</text>
</g>
<!-- Node32 -->
<g id="node32" class="node">
<title>Node32</title>
<g id="a_node32"><a xlink:title=" ">
<polygon fill="white" stroke="black" points="2113.5,-110.5 2113.5,-162.5 2247.5,-162.5 2247.5,-110.5 2113.5,-110.5"/>
<text text-anchor="start" x="2121.5" y="-150.5" font-family="Helvetica,sans-Serif" font-size="10.00">std::unordered_map</text>
<text text-anchor="start" x="2121.5" y="-139.5" font-family="Helvetica,sans-Serif" font-size="10.00">&lt; OutputQEPrimal *,</text>
<text text-anchor="start" x="2121.5" y="-128.5" font-family="Helvetica,sans-Serif" font-size="10.00"> OutputCoordRepType,</text>
<text text-anchor="middle" x="2180.5" y="-117.5" font-family="Helvetica,sans-Serif" font-size="10.00"> HashOutputQEPrimal &gt;</text>
</a>
</g>
</g>
<!-- Node32&#45;&gt;Node2 -->
<g id="edge36" class="edge">
<title>Node32&#45;&gt;Node2</title>
<path fill="none" stroke="#9a32cd" stroke-dasharray="5,2" d="M2257.67,-144.2C2304.58,-148.94 2365.05,-155.05 2414.81,-160.08"/>
<polygon fill="#9a32cd" stroke="#9a32cd" points="2257.87,-140.7 2247.57,-143.18 2257.17,-147.67 2257.87,-140.7"/>
<text text-anchor="middle" x="2340.5" y="-160.5" font-family="Helvetica,sans-Serif" font-size="10.00"> m_CoefficientMap</text>
</g>
<!-- Node33 -->
<g id="node33" class="node">
<title>Node33</title>
<g id="a_node33"><a xlink:title=" ">
<polygon fill="white" stroke="black" points="2113.5,-50 2113.5,-91 2247.5,-91 2247.5,-50 2113.5,-50"/>
<text text-anchor="start" x="2121.5" y="-79" font-family="Helvetica,sans-Serif" font-size="10.00">std::unordered_map</text>
<text text-anchor="start" x="2121.5" y="-68" font-family="Helvetica,sans-Serif" font-size="10.00">&lt; OutputPointIdentifier,</text>
<text text-anchor="middle" x="2180.5" y="-57" font-family="Helvetica,sans-Serif" font-size="10.00"> OutputCoordRepType &gt;</text>
</a>
</g>
</g>
<!-- Node33&#45;&gt;Node2 -->
<g id="edge37" class="edge">
<title>Node33&#45;&gt;Node2</title>
<path fill="none" stroke="#9a32cd" stroke-dasharray="5,2" d="M2257.54,-90.95C2298.93,-102.35 2350.96,-117.11 2397,-131.5 2414.3,-136.91 2432.99,-143.15 2450.01,-148.99"/>
<polygon fill="#9a32cd" stroke="#9a32cd" points="2258.36,-87.54 2247.79,-88.27 2256.51,-94.29 2258.36,-87.54"/>
<text text-anchor="middle" x="2340.5" y="-134.5" font-family="Helvetica,sans-Serif" font-size="10.00"> m_MixedAreaMap</text>
</g>
<!-- Node34 -->
<g id="node34" class="node">
<title>Node34</title>
<g id="a_node34"><a xlink:href="classitk_1_1MatrixCoefficients.html" target="_top" xlink:title="Superclass for all the matrix coefficients computation classes.">
<polygon fill="white" stroke="black" points="2118,-0.5 2118,-30.5 2243,-30.5 2243,-0.5 2118,-0.5"/>
<text text-anchor="start" x="2126" y="-18.5" font-family="Helvetica,sans-Serif" font-size="10.00">itk::MatrixCoefficients</text>
<text text-anchor="middle" x="2180.5" y="-7.5" font-family="Helvetica,sans-Serif" font-size="10.00">&lt; TInputMesh &gt;</text>
</a>
</g>
</g>
<!-- Node34&#45;&gt;Node2 -->
<g id="edge38" class="edge">
<title>Node34&#45;&gt;Node2</title>
<path fill="none" stroke="#9a32cd" stroke-dasharray="5,2" d="M2243.12,-33.5C2250.83,-35.82 2258.61,-38.19 2266,-40.5 2324.5,-58.75 2342.88,-54.76 2397,-83.5 2430.8,-101.45 2464.89,-129.73 2486.2,-148.92"/>
<polygon fill="#9a32cd" stroke="#9a32cd" points="2243.99,-30.11 2233.41,-30.6 2241.99,-36.82 2243.99,-30.11"/>
<text text-anchor="middle" x="2340.5" y="-86.5" font-family="Helvetica,sans-Serif" font-size="10.00"> m_CoefficientsMethod</text>
</g>
</g>
</svg>
