<?xml version="1.0" encoding="UTF-8" standalone="no"?>
<!DOCTYPE svg PUBLIC "-//W3C//DTD SVG 1.1//EN"
 "http://www.w3.org/Graphics/SVG/1.1/DTD/svg11.dtd">
<!-- Generated by graphviz version 2.43.0 (0)
 -->
<!-- Title: itk::HeavisideStepFunction&lt; TInput, TOutput &gt; Pages: 1 -->
<svg width="1219pt" height="61pt"
 viewBox="0.00 0.00 1219.00 61.00" xmlns="http://www.w3.org/2000/svg" xmlns:xlink="http://www.w3.org/1999/xlink">
<g id="graph0" class="graph" transform="scale(1 1) rotate(0) translate(4 57)">
<title>itk::HeavisideStepFunction&lt; TInput, TOutput &gt;</title>
<polygon fill="white" stroke="transparent" points="-4,4 -4,-57 1215,-57 1215,4 -4,4"/>
<!-- Node1 -->
<g id="node1" class="node">
<title>Node1</title>
<g id="a_node1"><a xlink:title="Implementation of the classical Heaviside step function.">
<polygon fill="#bfbfbf" stroke="black" points="1064,-22.5 1064,-52.5 1211,-52.5 1211,-22.5 1064,-22.5"/>
<text text-anchor="start" x="1072" y="-40.5" font-family="Helvetica,sans-Serif" font-size="10.00">itk::HeavisideStepFunction</text>
<text text-anchor="middle" x="1137.5" y="-29.5" font-family="Helvetica,sans-Serif" font-size="10.00">&lt; TInput, TOutput &gt;</text>
</a>
</g>
</g>
<!-- Node2 -->
<g id="node2" class="node">
<title>Node2</title>
<g id="a_node2"><a xlink:href="classitk_1_1HeavisideStepFunctionBase.html" target="_top" xlink:title=" ">
<polygon fill="white" stroke="black" points="880,-22.5 880,-52.5 1027,-52.5 1027,-22.5 880,-22.5"/>
<text text-anchor="start" x="888" y="-40.5" font-family="Helvetica,sans-Serif" font-size="10.00">itk::HeavisideStepFunction</text>
<text text-anchor="middle" x="953.5" y="-29.5" font-family="Helvetica,sans-Serif" font-size="10.00">Base&lt; float, double &gt;</text>
</a>
</g>
</g>
<!-- Node2&#45;&gt;Node1 -->
<g id="edge1" class="edge">
<title>Node2&#45;&gt;Node1</title>
<path fill="none" stroke="midnightblue" d="M1037.49,-37.5C1046.31,-37.5 1055.22,-37.5 1063.9,-37.5"/>
<polygon fill="midnightblue" stroke="midnightblue" points="1037.22,-34 1027.22,-37.5 1037.22,-41 1037.22,-34"/>
</g>
<!-- Node3 -->
<g id="node3" class="node">
<title>Node3</title>
<g id="a_node3"><a xlink:href="classitk_1_1FunctionBase.html" target="_top" xlink:title=" ">
<polygon fill="white" stroke="black" points="464,-22.5 464,-52.5 573,-52.5 573,-22.5 464,-22.5"/>
<text text-anchor="start" x="472" y="-40.5" font-family="Helvetica,sans-Serif" font-size="10.00">itk::FunctionBase&lt;</text>
<text text-anchor="middle" x="518.5" y="-29.5" font-family="Helvetica,sans-Serif" font-size="10.00"> float, double &gt;</text>
</a>
</g>
</g>
<!-- Node3&#45;&gt;Node2 -->
<g id="edge2" class="edge">
<title>Node3&#45;&gt;Node2</title>
<path fill="none" stroke="midnightblue" d="M583.37,-42.14C585.95,-42.27 588.5,-42.39 591,-42.5 711.34,-47.69 741.67,-50.81 862,-45.5 867.83,-45.24 873.87,-44.89 879.93,-44.48"/>
<polygon fill="midnightblue" stroke="midnightblue" points="583.54,-38.64 573.36,-41.58 583.15,-45.63 583.54,-38.64"/>
</g>
<!-- Node7 -->
<g id="node7" class="node">
<title>Node7</title>
<g id="a_node7"><a xlink:href="classitk_1_1HeavisideStepFunctionBase.html" target="_top" xlink:title="Base class of the Heaviside function.">
<polygon fill="white" stroke="black" points="610,-0.5 610,-30.5 757,-30.5 757,-0.5 610,-0.5"/>
<text text-anchor="start" x="618" y="-18.5" font-family="Helvetica,sans-Serif" font-size="10.00">itk::HeavisideStepFunction</text>
<text text-anchor="middle" x="683.5" y="-7.5" font-family="Helvetica,sans-Serif" font-size="10.00">Base&lt; TInput, TOutput &gt;</text>
</a>
</g>
</g>
<!-- Node3&#45;&gt;Node7 -->
<g id="edge8" class="edge">
<title>Node3&#45;&gt;Node7</title>
<path fill="none" stroke="midnightblue" d="M583.36,-28.88C592.04,-27.71 601.01,-26.5 609.83,-25.31"/>
<polygon fill="midnightblue" stroke="midnightblue" points="582.77,-25.43 573.32,-30.24 583.7,-32.37 582.77,-25.43"/>
</g>
<!-- Node4 -->
<g id="node4" class="node">
<title>Node4</title>
<g id="a_node4"><a xlink:href="classitk_1_1Object.html" target="_top" xlink:title="Base class for most ITK classes.">
<polygon fill="white" stroke="black" points="128,-28 128,-47 195,-47 195,-28 128,-28"/>
<text text-anchor="middle" x="161.5" y="-35" font-family="Helvetica,sans-Serif" font-size="10.00">itk::Object</text>
</a>
</g>
</g>
<!-- Node4&#45;&gt;Node3 -->
<g id="edge3" class="edge">
<title>Node4&#45;&gt;Node3</title>
<path fill="none" stroke="midnightblue" d="M205.22,-41.97C207.85,-42.17 210.46,-42.35 213,-42.5 316.38,-48.67 342.6,-51.27 446,-45.5 451.74,-45.18 457.72,-44.72 463.68,-44.17"/>
<polygon fill="midnightblue" stroke="midnightblue" points="205.33,-38.46 195.07,-41.1 204.74,-45.44 205.33,-38.46"/>
</g>
<!-- Node6 -->
<g id="node6" class="node">
<title>Node6</title>
<g id="a_node6"><a xlink:href="classitk_1_1FunctionBase.html" target="_top" xlink:title="Base class for all ITK function objects.">
<polygon fill="white" stroke="black" points="232,-0.5 232,-30.5 341,-30.5 341,-0.5 232,-0.5"/>
<text text-anchor="start" x="240" y="-18.5" font-family="Helvetica,sans-Serif" font-size="10.00">itk::FunctionBase&lt;</text>
<text text-anchor="middle" x="286.5" y="-7.5" font-family="Helvetica,sans-Serif" font-size="10.00"> TInput, TOutput &gt;</text>
</a>
</g>
</g>
<!-- Node4&#45;&gt;Node6 -->
<g id="edge6" class="edge">
<title>Node4&#45;&gt;Node6</title>
<path fill="none" stroke="midnightblue" d="M205.26,-29.85C213.81,-28.32 222.9,-26.7 231.77,-25.11"/>
<polygon fill="midnightblue" stroke="midnightblue" points="204.37,-26.46 195.14,-31.66 205.6,-33.35 204.37,-26.46"/>
</g>
<!-- Node5 -->
<g id="node5" class="node">
<title>Node5</title>
<g id="a_node5"><a xlink:href="classitk_1_1LightObject.html" target="_top" xlink:title="Light weight base class for most itk classes.">
<polygon fill="white" stroke="black" points="0,-28 0,-47 91,-47 91,-28 0,-28"/>
<text text-anchor="middle" x="45.5" y="-35" font-family="Helvetica,sans-Serif" font-size="10.00">itk::LightObject</text>
</a>
</g>
</g>
<!-- Node5&#45;&gt;Node4 -->
<g id="edge4" class="edge">
<title>Node5&#45;&gt;Node4</title>
<path fill="none" stroke="midnightblue" d="M101.39,-37.5C110.45,-37.5 119.59,-37.5 127.88,-37.5"/>
<polygon fill="midnightblue" stroke="midnightblue" points="101.23,-34 91.23,-37.5 101.23,-41 101.23,-34"/>
</g>
<!-- Node6&#45;&gt;Node3 -->
<g id="edge5" class="edge">
<title>Node6&#45;&gt;Node3</title>
<path fill="none" stroke="orange" stroke-dasharray="5,2" d="M351.35,-21.61C386.71,-24.99 430.18,-29.15 463.78,-32.36"/>
<polygon fill="orange" stroke="orange" points="351.42,-18.1 341.13,-20.63 350.76,-25.07 351.42,-18.1"/>
<text text-anchor="middle" x="402.5" y="-33.5" font-family="Helvetica,sans-Serif" font-size="10.00"> &lt; float, double &gt;</text>
</g>
<!-- Node7&#45;&gt;Node2 -->
<g id="edge7" class="edge">
<title>Node7&#45;&gt;Node2</title>
<path fill="none" stroke="orange" stroke-dasharray="5,2" d="M767.03,-22.28C803.11,-25.24 845.05,-28.68 879.92,-31.54"/>
<polygon fill="orange" stroke="orange" points="767.28,-18.78 757.02,-21.45 766.7,-25.76 767.28,-18.78"/>
<text text-anchor="middle" x="818.5" y="-33.5" font-family="Helvetica,sans-Serif" font-size="10.00"> &lt; float, double &gt;</text>
</g>
</g>
</svg>
