<?xml version="1.0" encoding="UTF-8" standalone="no"?>
<!DOCTYPE svg PUBLIC "-//W3C//DTD SVG 1.1//EN"
 "http://www.w3.org/Graphics/SVG/1.1/DTD/svg11.dtd">
<!-- Generated by graphviz version 2.43.0 (0)
 -->
<!-- Title: itk::JointHistogramMutualInformationComputeJointPDFThreader&lt; ThreadedIndexedContainerPartitioner, TJointHistogramMetric &gt; Pages: 1 -->
<svg width="2743pt" height="263pt"
 viewBox="0.00 0.00 2743.00 263.00" xmlns="http://www.w3.org/2000/svg" xmlns:xlink="http://www.w3.org/1999/xlink">
<g id="graph0" class="graph" transform="scale(1 1) rotate(0) translate(4 259)">
<title>itk::JointHistogramMutualInformationComputeJointPDFThreader&lt; ThreadedIndexedContainerPartitioner, TJointHistogramMetric &gt;</title>
<polygon fill="white" stroke="transparent" points="-4,4 -4,-259 2739,-259 2739,4 -4,4"/>
<!-- Node1 -->
<g id="node1" class="node">
<title>Node1</title>
<g id="a_node1"><a xlink:title=" ">
<polygon fill="#bfbfbf" stroke="black" points="2523,-165 2523,-217 2735,-217 2735,-165 2523,-165"/>
<text text-anchor="start" x="2531" y="-205" font-family="Helvetica,sans-Serif" font-size="10.00">itk::JointHistogramMutual</text>
<text text-anchor="start" x="2531" y="-194" font-family="Helvetica,sans-Serif" font-size="10.00">InformationComputeJointPDFThreader</text>
<text text-anchor="start" x="2531" y="-183" font-family="Helvetica,sans-Serif" font-size="10.00">&lt; ThreadedIndexedContainerPartitioner,</text>
<text text-anchor="middle" x="2629" y="-172" font-family="Helvetica,sans-Serif" font-size="10.00"> TJointHistogramMetric &gt;</text>
</a>
</g>
</g>
<!-- Node2 -->
<g id="node2" class="node">
<title>Node2</title>
<g id="a_node2"><a xlink:href="classitk_1_1JointHistogramMutualInformationComputeJointPDFThreaderBase.html" target="_top" xlink:title=" ">
<polygon fill="white" stroke="black" points="2250,-165 2250,-217 2486,-217 2486,-165 2250,-165"/>
<text text-anchor="start" x="2258" y="-205" font-family="Helvetica,sans-Serif" font-size="10.00">itk::JointHistogramMutual</text>
<text text-anchor="start" x="2258" y="-194" font-family="Helvetica,sans-Serif" font-size="10.00">InformationComputeJointPDFThreader</text>
<text text-anchor="start" x="2258" y="-183" font-family="Helvetica,sans-Serif" font-size="10.00">Base&lt; ThreadedIndexedContainerPartitioner,</text>
<text text-anchor="middle" x="2368" y="-172" font-family="Helvetica,sans-Serif" font-size="10.00"> TJointHistogramMetric &gt;</text>
</a>
</g>
</g>
<!-- Node2&#45;&gt;Node1 -->
<g id="edge1" class="edge">
<title>Node2&#45;&gt;Node1</title>
<path fill="none" stroke="midnightblue" d="M2496.39,-191C2505.27,-191 2514.17,-191 2522.91,-191"/>
<polygon fill="midnightblue" stroke="midnightblue" points="2496.38,-187.5 2486.38,-191 2496.38,-194.5 2496.38,-187.5"/>
</g>
<!-- Node3 -->
<g id="node3" class="node">
<title>Node3</title>
<g id="a_node3"><a xlink:href="classitk_1_1DomainThreader.html" target="_top" xlink:title=" ">
<polygon fill="white" stroke="black" points="1574,-203.5 1574,-244.5 1768,-244.5 1768,-203.5 1574,-203.5"/>
<text text-anchor="start" x="1582" y="-232.5" font-family="Helvetica,sans-Serif" font-size="10.00">itk::DomainThreader</text>
<text text-anchor="start" x="1582" y="-221.5" font-family="Helvetica,sans-Serif" font-size="10.00">&lt; ThreadedIndexedContainer</text>
<text text-anchor="middle" x="1671" y="-210.5" font-family="Helvetica,sans-Serif" font-size="10.00">Partitioner, TJointHistogramMetric &gt;</text>
</a>
</g>
</g>
<!-- Node3&#45;&gt;Node2 -->
<g id="edge2" class="edge">
<title>Node3&#45;&gt;Node2</title>
<path fill="none" stroke="midnightblue" d="M1778.23,-222.59C1890.95,-220.58 2074.21,-215.85 2232,-205 2237.88,-204.6 2243.89,-204.14 2249.97,-203.64"/>
<polygon fill="midnightblue" stroke="midnightblue" points="1778.16,-219.09 1768.22,-222.76 1778.28,-226.09 1778.16,-219.09"/>
</g>
<!-- Node4 -->
<g id="node4" class="node">
<title>Node4</title>
<g id="a_node4"><a xlink:href="classitk_1_1Object.html" target="_top" xlink:title="Base class for most ITK classes.">
<polygon fill="white" stroke="black" points="1025,-93.5 1025,-112.5 1092,-112.5 1092,-93.5 1025,-93.5"/>
<text text-anchor="middle" x="1058.5" y="-100.5" font-family="Helvetica,sans-Serif" font-size="10.00">itk::Object</text>
</a>
</g>
</g>
<!-- Node4&#45;&gt;Node3 -->
<g id="edge3" class="edge">
<title>Node4&#45;&gt;Node3</title>
<path fill="none" stroke="midnightblue" d="M1102.39,-103C1208.8,-103.74 1481.67,-110.46 1556,-159 1569.34,-167.71 1561.74,-179.83 1574,-190 1580.26,-195.19 1587.37,-199.62 1594.82,-203.38"/>
<polygon fill="midnightblue" stroke="midnightblue" points="1102.35,-99.5 1092.33,-102.94 1102.31,-106.5 1102.35,-99.5"/>
</g>
<!-- Node19 -->
<g id="node19" class="node">
<title>Node19</title>
<g id="a_node19"><a xlink:href="classitk_1_1DomainThreader.html" target="_top" xlink:title="Multi&#45;threaded processing on a domain by processing sub&#45;domains per thread.">
<polygon fill="white" stroke="black" points="1235,-180.5 1235,-221.5 1360,-221.5 1360,-180.5 1235,-180.5"/>
<text text-anchor="start" x="1243" y="-209.5" font-family="Helvetica,sans-Serif" font-size="10.00">itk::DomainThreader</text>
<text text-anchor="start" x="1243" y="-198.5" font-family="Helvetica,sans-Serif" font-size="10.00">&lt; TDomainPartitioner,</text>
<text text-anchor="middle" x="1297.5" y="-187.5" font-family="Helvetica,sans-Serif" font-size="10.00"> TAssociate &gt;</text>
</a>
</g>
</g>
<!-- Node4&#45;&gt;Node19 -->
<g id="edge22" class="edge">
<title>Node4&#45;&gt;Node19</title>
<path fill="none" stroke="midnightblue" d="M1091.94,-116.41C1131.93,-132.95 1200.31,-161.23 1246.91,-180.49"/>
<polygon fill="midnightblue" stroke="midnightblue" points="1093.23,-113.16 1082.66,-112.58 1090.56,-119.63 1093.23,-113.16"/>
</g>
<!-- Node21 -->
<g id="node21" class="node">
<title>Node21</title>
<g id="a_node21"><a xlink:href="classitk_1_1DomainThreader.html" target="_top" xlink:title=" ">
<polygon fill="white" stroke="black" points="1601,-139.5 1601,-180.5 1741,-180.5 1741,-139.5 1601,-139.5"/>
<text text-anchor="start" x="1609" y="-168.5" font-family="Helvetica,sans-Serif" font-size="10.00">itk::DomainThreader</text>
<text text-anchor="start" x="1609" y="-157.5" font-family="Helvetica,sans-Serif" font-size="10.00">&lt; TDomainPartitioner,</text>
<text text-anchor="middle" x="1671" y="-146.5" font-family="Helvetica,sans-Serif" font-size="10.00"> TJointHistogramMetric &gt;</text>
</a>
</g>
</g>
<!-- Node4&#45;&gt;Node21 -->
<g id="edge26" class="edge">
<title>Node4&#45;&gt;Node21</title>
<path fill="none" stroke="midnightblue" d="M1102.09,-93.33C1189.31,-75.34 1393.71,-42.59 1556,-89 1590.08,-98.74 1623.88,-121.95 1645.71,-139.19"/>
<polygon fill="midnightblue" stroke="midnightblue" points="1101.36,-89.9 1092.29,-95.39 1102.8,-96.75 1101.36,-89.9"/>
</g>
<!-- Node5 -->
<g id="node5" class="node">
<title>Node5</title>
<g id="a_node5"><a xlink:href="classitk_1_1LightObject.html" target="_top" xlink:title="Light weight base class for most itk classes.">
<polygon fill="white" stroke="black" points="739.5,-140.5 739.5,-159.5 830.5,-159.5 830.5,-140.5 739.5,-140.5"/>
<text text-anchor="middle" x="785" y="-147.5" font-family="Helvetica,sans-Serif" font-size="10.00">itk::LightObject</text>
</a>
</g>
</g>
<!-- Node5&#45;&gt;Node4 -->
<g id="edge4" class="edge">
<title>Node5&#45;&gt;Node4</title>
<path fill="none" stroke="midnightblue" d="M840.67,-145.86C881.35,-142.14 938.05,-135.59 987,-125 1001.66,-121.83 1017.65,-116.96 1030.68,-112.61"/>
<polygon fill="midnightblue" stroke="midnightblue" points="840.35,-142.37 830.69,-146.75 840.96,-149.35 840.35,-142.37"/>
</g>
<!-- Node6 -->
<g id="node6" class="node">
<title>Node6</title>
<g id="a_node6"><a xlink:title=" ">
<polygon fill="white" stroke="#bfbfbf" points="457,-140.5 457,-159.5 564,-159.5 564,-140.5 457,-140.5"/>
<text text-anchor="middle" x="510.5" y="-147.5" font-family="Helvetica,sans-Serif" font-size="10.00">std::atomic&lt; int &gt;</text>
</a>
</g>
</g>
<!-- Node6&#45;&gt;Node5 -->
<g id="edge5" class="edge">
<title>Node6&#45;&gt;Node5</title>
<path fill="none" stroke="#9a32cd" stroke-dasharray="5,2" d="M574.18,-150C624.64,-150 694.33,-150 739.29,-150"/>
<polygon fill="#9a32cd" stroke="#9a32cd" points="574.04,-146.5 564.04,-150 574.04,-153.5 574.04,-146.5"/>
<text text-anchor="middle" x="651.5" y="-153" font-family="Helvetica,sans-Serif" font-size="10.00"> m_ReferenceCount</text>
</g>
<!-- Node7 -->
<g id="node7" class="node">
<title>Node7</title>
<g id="a_node7"><a xlink:title="STL class.">
<polygon fill="white" stroke="#bfbfbf" points="123,-105.5 123,-124.5 223,-124.5 223,-105.5 123,-105.5"/>
<text text-anchor="middle" x="173" y="-112.5" font-family="Helvetica,sans-Serif" font-size="10.00">std::atomic&lt; T &gt;</text>
</a>
</g>
</g>
<!-- Node7&#45;&gt;Node6 -->
<g id="edge6" class="edge">
<title>Node7&#45;&gt;Node6</title>
<path fill="none" stroke="orange" stroke-dasharray="5,2" d="M233.19,-123.87C238.86,-124.63 244.54,-125.35 250,-126 321.44,-134.47 404.24,-141.68 456.73,-145.92"/>
<polygon fill="orange" stroke="orange" points="233.39,-120.36 223.01,-122.47 232.44,-127.3 233.39,-120.36"/>
<text text-anchor="middle" x="334" y="-145" font-family="Helvetica,sans-Serif" font-size="10.00"> &lt; int &gt;</text>
</g>
<!-- Node16 -->
<g id="node16" class="node">
<title>Node16</title>
<g id="a_node16"><a xlink:href="classitk_1_1TimeStamp.html" target="_top" xlink:title="Generate a unique, increasing time value.">
<polygon fill="white" stroke="black" points="605.5,-101.5 605.5,-120.5 697.5,-120.5 697.5,-101.5 605.5,-101.5"/>
<text text-anchor="middle" x="651.5" y="-108.5" font-family="Helvetica,sans-Serif" font-size="10.00">itk::TimeStamp</text>
</a>
</g>
</g>
<!-- Node7&#45;&gt;Node16 -->
<g id="edge18" class="edge">
<title>Node7&#45;&gt;Node16</title>
<path fill="none" stroke="#9a32cd" stroke-dasharray="5,2" d="M233.21,-111.58C238.89,-111.34 244.55,-111.14 250,-111 378.94,-107.61 531.3,-109.13 605.44,-110.23"/>
<polygon fill="#9a32cd" stroke="#9a32cd" points="232.88,-108.09 223.04,-112.04 233.19,-115.09 232.88,-108.09"/>
<text text-anchor="middle" x="334" y="-114" font-family="Helvetica,sans-Serif" font-size="10.00"> m_GlobalTimeStamp</text>
</g>
<!-- Node8 -->
<g id="node8" class="node">
<title>Node8</title>
<g id="a_node8"><a xlink:title=" ">
<polygon fill="white" stroke="#bfbfbf" points="0,-68.5 0,-87.5 29,-87.5 29,-68.5 0,-68.5"/>
<text text-anchor="middle" x="14.5" y="-75.5" font-family="Helvetica,sans-Serif" font-size="10.00">T</text>
</a>
</g>
</g>
<!-- Node8&#45;&gt;Node7 -->
<g id="edge7" class="edge">
<title>Node8&#45;&gt;Node7</title>
<path fill="none" stroke="#9a32cd" stroke-dasharray="5,2" d="M38.37,-88.91C41.23,-90.06 44.16,-91.12 47,-92 71.56,-99.6 99.65,-105.05 122.98,-108.72"/>
<polygon fill="#9a32cd" stroke="#9a32cd" points="39.6,-85.63 29.03,-84.86 36.81,-92.05 39.6,-85.63"/>
<text text-anchor="middle" x="71.5" y="-106" font-family="Helvetica,sans-Serif" font-size="10.00"> ptr</text>
</g>
<!-- Node13 -->
<g id="node13" class="node">
<title>Node13</title>
<g id="a_node13"><a xlink:title="STL class.">
<polygon fill="white" stroke="#bfbfbf" points="122.5,-67.5 122.5,-86.5 223.5,-86.5 223.5,-67.5 122.5,-67.5"/>
<text text-anchor="middle" x="173" y="-74.5" font-family="Helvetica,sans-Serif" font-size="10.00">std::map&lt; K, T &gt;</text>
</a>
</g>
</g>
<!-- Node8&#45;&gt;Node13 -->
<g id="edge14" class="edge">
<title>Node8&#45;&gt;Node13</title>
<path fill="none" stroke="#9a32cd" stroke-dasharray="5,2" d="M39.19,-77.85C61.16,-77.71 94.54,-77.49 122.35,-77.32"/>
<polygon fill="#9a32cd" stroke="#9a32cd" points="39.09,-74.35 29.11,-77.91 39.14,-81.35 39.09,-74.35"/>
<text text-anchor="middle" x="71.5" y="-80" font-family="Helvetica,sans-Serif" font-size="10.00"> elements</text>
</g>
<!-- Node15 -->
<g id="node15" class="node">
<title>Node15</title>
<g id="a_node15"><a xlink:title="STL class.">
<polygon fill="white" stroke="#bfbfbf" points="114,-29.5 114,-48.5 232,-48.5 232,-29.5 114,-29.5"/>
<text text-anchor="middle" x="173" y="-36.5" font-family="Helvetica,sans-Serif" font-size="10.00">std::shared_ptr&lt; T &gt;</text>
</a>
</g>
</g>
<!-- Node8&#45;&gt;Node15 -->
<g id="edge16" class="edge">
<title>Node8&#45;&gt;Node15</title>
<path fill="none" stroke="#9a32cd" stroke-dasharray="5,2" d="M38.44,-65.4C41.27,-64.13 44.17,-62.96 47,-62 68.32,-54.79 92.5,-49.68 113.87,-46.13"/>
<polygon fill="#9a32cd" stroke="#9a32cd" points="36.66,-62.38 29.24,-69.94 39.75,-68.66 36.66,-62.38"/>
<text text-anchor="middle" x="71.5" y="-65" font-family="Helvetica,sans-Serif" font-size="10.00"> ptr</text>
</g>
<!-- Node9 -->
<g id="node9" class="node">
<title>Node9</title>
<g id="a_node9"><a xlink:title="STL class.">
<polygon fill="white" stroke="#bfbfbf" points="752.5,-13.5 752.5,-32.5 817.5,-32.5 817.5,-13.5 752.5,-13.5"/>
<text text-anchor="middle" x="785" y="-20.5" font-family="Helvetica,sans-Serif" font-size="10.00">std::string</text>
</a>
</g>
</g>
<!-- Node9&#45;&gt;Node4 -->
<g id="edge8" class="edge">
<title>Node9&#45;&gt;Node4</title>
<path fill="none" stroke="#9a32cd" stroke-dasharray="5,2" d="M827.79,-24.72C869.42,-27.6 934.53,-35.32 987,-56 1009.99,-65.06 1033.17,-82.47 1046.39,-93.37"/>
<polygon fill="#9a32cd" stroke="#9a32cd" points="827.94,-21.22 817.74,-24.08 827.5,-28.21 827.94,-21.22"/>
<text text-anchor="middle" x="928.5" y="-59" font-family="Helvetica,sans-Serif" font-size="10.00"> m_ObjectName</text>
</g>
<!-- Node10 -->
<g id="node10" class="node">
<title>Node10</title>
<g id="a_node10"><a xlink:title="STL class.">
<polygon fill="white" stroke="#bfbfbf" points="458.5,-3 458.5,-33 562.5,-33 562.5,-3 458.5,-3"/>
<text text-anchor="start" x="466.5" y="-21" font-family="Helvetica,sans-Serif" font-size="10.00">std::basic_string&lt;</text>
<text text-anchor="middle" x="510.5" y="-10" font-family="Helvetica,sans-Serif" font-size="10.00"> char &gt;</text>
</a>
</g>
</g>
<!-- Node10&#45;&gt;Node9 -->
<g id="edge9" class="edge">
<title>Node10&#45;&gt;Node9</title>
<path fill="none" stroke="midnightblue" d="M572.85,-19.13C628.49,-20.15 708.3,-21.61 752.14,-22.42"/>
<polygon fill="midnightblue" stroke="midnightblue" points="572.82,-15.62 562.76,-18.94 572.69,-22.62 572.82,-15.62"/>
</g>
<!-- Node11 -->
<g id="node11" class="node">
<title>Node11</title>
<g id="a_node11"><a xlink:href="classitk_1_1MetaDataDictionary.html" target="_top" xlink:title="Provides a mechanism for storing a collection of arbitrary data types.">
<polygon fill="white" stroke="black" points="718,-55.5 718,-74.5 852,-74.5 852,-55.5 718,-55.5"/>
<text text-anchor="middle" x="785" y="-62.5" font-family="Helvetica,sans-Serif" font-size="10.00">itk::MetaDataDictionary</text>
</a>
</g>
</g>
<!-- Node11&#45;&gt;Node4 -->
<g id="edge10" class="edge">
<title>Node11&#45;&gt;Node4</title>
<path fill="none" stroke="#9a32cd" stroke-dasharray="5,2" d="M862.77,-70.62C900.37,-73.98 946.23,-78.99 987,-86 999.41,-88.13 1012.88,-91.2 1024.69,-94.13"/>
<polygon fill="#9a32cd" stroke="#9a32cd" points="862.66,-67.09 852.39,-69.71 862.05,-74.07 862.66,-67.09"/>
<text text-anchor="middle" x="928.5" y="-89" font-family="Helvetica,sans-Serif" font-size="10.00"> m_MetaDataDictionary</text>
</g>
<!-- Node12 -->
<g id="node12" class="node">
<title>Node12</title>
<g id="a_node12"><a xlink:title=" ">
<polygon fill="white" stroke="#bfbfbf" points="436,-52 436,-82 585,-82 585,-52 436,-52"/>
<text text-anchor="start" x="444" y="-70" font-family="Helvetica,sans-Serif" font-size="10.00">std::shared_ptr&lt; MetaData</text>
<text text-anchor="middle" x="510.5" y="-59" font-family="Helvetica,sans-Serif" font-size="10.00">DictionaryMapType &gt;</text>
</a>
</g>
</g>
<!-- Node12&#45;&gt;Node11 -->
<g id="edge11" class="edge">
<title>Node12&#45;&gt;Node11</title>
<path fill="none" stroke="#9a32cd" stroke-dasharray="5,2" d="M595.34,-66.38C634.65,-66.1 680.82,-65.76 717.65,-65.49"/>
<polygon fill="#9a32cd" stroke="#9a32cd" points="595.22,-62.89 585.24,-66.46 595.27,-69.89 595.22,-62.89"/>
<text text-anchor="middle" x="651.5" y="-69" font-family="Helvetica,sans-Serif" font-size="10.00"> m_Dictionary</text>
</g>
<!-- Node13&#45;&gt;Node12 -->
<g id="edge12" class="edge">
<title>Node13&#45;&gt;Node12</title>
<path fill="none" stroke="#9a32cd" stroke-dasharray="5,2" d="M233.71,-75.22C290.23,-73.54 375.21,-71 435.9,-69.19"/>
<polygon fill="#9a32cd" stroke="#9a32cd" points="233.4,-71.73 223.5,-75.52 233.6,-78.72 233.4,-71.73"/>
<text text-anchor="middle" x="334" y="-77" font-family="Helvetica,sans-Serif" font-size="10.00"> ptr</text>
</g>
<!-- Node14 -->
<g id="node14" class="node">
<title>Node14</title>
<g id="a_node14"><a xlink:title=" ">
<polygon fill="white" stroke="#bfbfbf" points="0,-0.5 0,-19.5 29,-19.5 29,-0.5 0,-0.5"/>
<text text-anchor="middle" x="14.5" y="-7.5" font-family="Helvetica,sans-Serif" font-size="10.00">K</text>
</a>
</g>
</g>
<!-- Node14&#45;&gt;Node13 -->
<g id="edge13" class="edge">
<title>Node14&#45;&gt;Node13</title>
<path fill="none" stroke="#9a32cd" stroke-dasharray="5,2" d="M39.39,-13.06C56.39,-16.15 79.12,-22.24 96,-34 106.94,-41.62 103.16,-50.23 114,-58 119.34,-61.83 125.49,-64.92 131.76,-67.4"/>
<polygon fill="#9a32cd" stroke="#9a32cd" points="39.59,-9.54 29.17,-11.42 38.49,-16.46 39.59,-9.54"/>
<text text-anchor="middle" x="71.5" y="-37" font-family="Helvetica,sans-Serif" font-size="10.00"> keys</text>
</g>
<!-- Node15&#45;&gt;Node12 -->
<g id="edge15" class="edge">
<title>Node15&#45;&gt;Node12</title>
<path fill="none" stroke="orange" stroke-dasharray="5,2" d="M242.44,-41.75C291.42,-44.07 358.87,-47.99 418,-54 423.75,-54.58 429.69,-55.26 435.65,-55.99"/>
<polygon fill="orange" stroke="orange" points="242.43,-38.24 232.28,-41.28 242.11,-45.23 242.43,-38.24"/>
<text text-anchor="middle" x="334" y="-57" font-family="Helvetica,sans-Serif" font-size="10.00"> &lt; MetaDataDictionaryMapType &gt;</text>
</g>
<!-- Node16&#45;&gt;Node4 -->
<g id="edge17" class="edge">
<title>Node16&#45;&gt;Node4</title>
<path fill="none" stroke="#9a32cd" stroke-dasharray="5,2" d="M707.85,-109.91C793.59,-108.21 955.84,-105.01 1024.97,-103.64"/>
<polygon fill="#9a32cd" stroke="#9a32cd" points="707.71,-106.41 697.78,-110.11 707.85,-113.41 707.71,-106.41"/>
<text text-anchor="middle" x="785" y="-112" font-family="Helvetica,sans-Serif" font-size="10.00"> m_MTime</text>
</g>
<!-- Node17 -->
<g id="node17" class="node">
<title>Node17</title>
<g id="a_node17"><a xlink:href="classitk_1_1SmartPointer.html" target="_top" xlink:title=" ">
<polygon fill="white" stroke="black" points="1005,-186 1005,-216 1112,-216 1112,-186 1005,-186"/>
<text text-anchor="start" x="1013" y="-204" font-family="Helvetica,sans-Serif" font-size="10.00">itk::SmartPointer&lt;</text>
<text text-anchor="middle" x="1058.5" y="-193" font-family="Helvetica,sans-Serif" font-size="10.00"> Self &gt;</text>
</a>
</g>
</g>
<!-- Node17&#45;&gt;Node3 -->
<g id="edge19" class="edge">
<title>Node17&#45;&gt;Node3</title>
<path fill="none" stroke="#9a32cd" stroke-dasharray="5,2" d="M1122,-214.53C1124.7,-215.04 1127.38,-215.53 1130,-216 1176.41,-224.24 1188.16,-225.69 1235,-231 1376.86,-247.07 1413.72,-254.78 1556,-243 1561.8,-242.52 1567.75,-241.91 1573.74,-241.19"/>
<polygon fill="#9a32cd" stroke="#9a32cd" points="1122.65,-211.09 1112.16,-212.61 1121.31,-217.96 1122.65,-211.09"/>
<text text-anchor="middle" x="1297.5" y="-247" font-family="Helvetica,sans-Serif" font-size="10.00"> m_MultiThreader</text>
</g>
<!-- Node17&#45;&gt;Node19 -->
<g id="edge23" class="edge">
<title>Node17&#45;&gt;Node19</title>
<path fill="none" stroke="#9a32cd" stroke-dasharray="5,2" d="M1122.15,-201C1156.98,-201 1200.15,-201 1234.82,-201"/>
<polygon fill="#9a32cd" stroke="#9a32cd" points="1122.1,-197.5 1112.1,-201 1122.1,-204.5 1122.1,-197.5"/>
<text text-anchor="middle" x="1173.5" y="-204" font-family="Helvetica,sans-Serif" font-size="10.00"> m_MultiThreader</text>
</g>
<!-- Node17&#45;&gt;Node21 -->
<g id="edge27" class="edge">
<title>Node17&#45;&gt;Node21</title>
<path fill="none" stroke="#9a32cd" stroke-dasharray="5,2" d="M1119.69,-183.33C1153.29,-174.38 1196.1,-164.48 1235,-160 1363.48,-145.19 1514.72,-150.2 1600.78,-155.13"/>
<polygon fill="#9a32cd" stroke="#9a32cd" points="1118.76,-179.95 1110.03,-185.94 1120.59,-186.71 1118.76,-179.95"/>
<text text-anchor="middle" x="1297.5" y="-163" font-family="Helvetica,sans-Serif" font-size="10.00"> m_MultiThreader</text>
</g>
<!-- Node18 -->
<g id="node18" class="node">
<title>Node18</title>
<g id="a_node18"><a xlink:href="classitk_1_1SmartPointer.html" target="_top" xlink:title="Implements transparent reference counting.">
<polygon fill="white" stroke="black" points="731.5,-186 731.5,-216 838.5,-216 838.5,-186 731.5,-186"/>
<text text-anchor="start" x="739.5" y="-204" font-family="Helvetica,sans-Serif" font-size="10.00">itk::SmartPointer&lt;</text>
<text text-anchor="middle" x="785" y="-193" font-family="Helvetica,sans-Serif" font-size="10.00"> TObjectType &gt;</text>
</a>
</g>
</g>
<!-- Node18&#45;&gt;Node17 -->
<g id="edge20" class="edge">
<title>Node18&#45;&gt;Node17</title>
<path fill="none" stroke="orange" stroke-dasharray="5,2" d="M848.81,-201C896.15,-201 960.34,-201 1004.98,-201"/>
<polygon fill="orange" stroke="orange" points="848.67,-197.5 838.67,-201 848.67,-204.5 848.67,-197.5"/>
<text text-anchor="middle" x="928.5" y="-204" font-family="Helvetica,sans-Serif" font-size="10.00"> &lt; Self &gt;</text>
</g>
<!-- Node19&#45;&gt;Node3 -->
<g id="edge21" class="edge">
<title>Node19&#45;&gt;Node3</title>
<path fill="none" stroke="orange" stroke-dasharray="5,2" d="M1370.27,-206.47C1372.88,-206.65 1375.46,-206.83 1378,-207 1443.36,-211.37 1517,-215.65 1573.97,-218.83"/>
<polygon fill="orange" stroke="orange" points="1370.34,-202.97 1360.12,-205.76 1369.85,-209.95 1370.34,-202.97"/>
<text text-anchor="start" x="1378" y="-231" font-family="Helvetica,sans-Serif" font-size="10.00"> &lt; ThreadedIndexedContainer</text>
<text text-anchor="middle" x="1467" y="-220" font-family="Helvetica,sans-Serif" font-size="10.00">Partitioner, TJointHistogramMetric &gt;</text>
</g>
<!-- Node19&#45;&gt;Node21 -->
<g id="edge28" class="edge">
<title>Node19&#45;&gt;Node21</title>
<path fill="none" stroke="orange" stroke-dasharray="5,2" d="M1370.34,-182.33C1372.92,-181.85 1375.48,-181.4 1378,-181 1453.65,-168.86 1541.46,-163.74 1600.88,-161.57"/>
<polygon fill="orange" stroke="orange" points="1369.46,-178.94 1360.34,-184.33 1370.84,-185.8 1369.46,-178.94"/>
<text text-anchor="start" x="1405" y="-195" font-family="Helvetica,sans-Serif" font-size="10.00"> &lt; TDomainPartitioner,</text>
<text text-anchor="middle" x="1467" y="-184" font-family="Helvetica,sans-Serif" font-size="10.00"> TJointHistogramMetric &gt;</text>
</g>
<!-- Node20 -->
<g id="node20" class="node">
<title>Node20</title>
<g id="a_node20"><a xlink:href="classitk_1_1JointHistogramMutualInformationComputeJointPDFThreaderBase.html" target="_top" xlink:title="Compute the JointPDF image.">
<polygon fill="white" stroke="black" points="1805,-137 1805,-189 2036,-189 2036,-137 1805,-137"/>
<text text-anchor="start" x="1813" y="-177" font-family="Helvetica,sans-Serif" font-size="10.00">itk::JointHistogramMutual</text>
<text text-anchor="start" x="1813" y="-166" font-family="Helvetica,sans-Serif" font-size="10.00">InformationComputeJointPDFThreader</text>
<text text-anchor="start" x="1813" y="-155" font-family="Helvetica,sans-Serif" font-size="10.00">Base&lt; TDomainPartitioner, TJointHistogram</text>
<text text-anchor="middle" x="1920.5" y="-144" font-family="Helvetica,sans-Serif" font-size="10.00">Metric &gt;</text>
</a>
</g>
</g>
<!-- Node20&#45;&gt;Node2 -->
<g id="edge24" class="edge">
<title>Node20&#45;&gt;Node2</title>
<path fill="none" stroke="orange" stroke-dasharray="5,2" d="M2046.35,-170.85C2110.14,-174.86 2187.3,-179.71 2249.95,-183.64"/>
<polygon fill="orange" stroke="orange" points="2046.43,-167.34 2036.23,-170.21 2045.99,-174.33 2046.43,-167.34"/>
<text text-anchor="start" x="2054" y="-195" font-family="Helvetica,sans-Serif" font-size="10.00"> &lt; ThreadedIndexedContainer</text>
<text text-anchor="middle" x="2143" y="-184" font-family="Helvetica,sans-Serif" font-size="10.00">Partitioner, TJointHistogramMetric &gt;</text>
</g>
<!-- Node21&#45;&gt;Node20 -->
<g id="edge25" class="edge">
<title>Node21&#45;&gt;Node20</title>
<path fill="none" stroke="midnightblue" d="M1751.64,-160.97C1768.57,-161.17 1786.78,-161.39 1804.73,-161.61"/>
<polygon fill="midnightblue" stroke="midnightblue" points="1751.31,-157.46 1741.27,-160.84 1751.23,-164.46 1751.31,-157.46"/>
</g>
</g>
</svg>
