<?xml version="1.0" encoding="UTF-8" standalone="no"?>
<!DOCTYPE svg PUBLIC "-//W3C//DTD SVG 1.1//EN"
 "http://www.w3.org/Graphics/SVG/1.1/DTD/svg11.dtd">
<!-- Generated by graphviz version 2.43.0 (0)
 -->
<!-- Title: itk::InvalidRequestedRegionError Pages: 1 -->
<svg width="1788pt" height="274pt"
 viewBox="0.00 0.00 1788.00 273.50" xmlns="http://www.w3.org/2000/svg" xmlns:xlink="http://www.w3.org/1999/xlink">
<g id="graph0" class="graph" transform="scale(1 1) rotate(0) translate(4 269.5)">
<title>itk::InvalidRequestedRegionError</title>
<polygon fill="white" stroke="transparent" points="-4,4 -4,-269.5 1784,-269.5 1784,4 -4,4"/>
<!-- Node1 -->
<g id="node1" class="node">
<title>Node1</title>
<g id="a_node1"><a xlink:title=" ">
<polygon fill="#bfbfbf" stroke="black" points="1626,-109.5 1626,-139.5 1780,-139.5 1780,-109.5 1626,-109.5"/>
<text text-anchor="start" x="1634" y="-127.5" font-family="Helvetica,sans-Serif" font-size="10.00">itk::InvalidRequestedRegion</text>
<text text-anchor="middle" x="1703" y="-116.5" font-family="Helvetica,sans-Serif" font-size="10.00">Error</text>
</a>
</g>
</g>
<!-- Node2 -->
<g id="node2" class="node">
<title>Node2</title>
<g id="a_node2"><a xlink:href="classitk_1_1DataObjectError.html" target="_top" xlink:title="Exception object for DataObject exceptions.">
<polygon fill="white" stroke="black" points="1476,-115 1476,-134 1589,-134 1589,-115 1476,-115"/>
<text text-anchor="middle" x="1532.5" y="-122" font-family="Helvetica,sans-Serif" font-size="10.00">itk::DataObjectError</text>
</a>
</g>
</g>
<!-- Node2&#45;&gt;Node1 -->
<g id="edge1" class="edge">
<title>Node2&#45;&gt;Node1</title>
<path fill="none" stroke="midnightblue" d="M1599.27,-124.5C1608.02,-124.5 1617.06,-124.5 1625.97,-124.5"/>
<polygon fill="midnightblue" stroke="midnightblue" points="1599.14,-121 1589.14,-124.5 1599.14,-128 1599.14,-121"/>
</g>
<!-- Node3 -->
<g id="node3" class="node">
<title>Node3</title>
<g id="a_node3"><a xlink:title=" ">
<polygon fill="white" stroke="#bfbfbf" points="1271,-134 1271,-153 1367,-153 1367,-134 1271,-134"/>
<text text-anchor="middle" x="1319" y="-141" font-family="Helvetica,sans-Serif" font-size="10.00">ExceptionObject</text>
</a>
</g>
</g>
<!-- Node3&#45;&gt;Node2 -->
<g id="edge2" class="edge">
<title>Node3&#45;&gt;Node2</title>
<path fill="none" stroke="midnightblue" d="M1377.3,-138.35C1407.92,-135.6 1445.45,-132.23 1475.82,-129.5"/>
<polygon fill="midnightblue" stroke="midnightblue" points="1376.85,-134.88 1367.2,-139.26 1377.47,-141.85 1376.85,-134.88"/>
</g>
<!-- Node4 -->
<g id="node4" class="node">
<title>Node4</title>
<g id="a_node4"><a xlink:href="classitk_1_1DataObject.html" target="_top" xlink:title="Base class for all data objects in ITK.">
<polygon fill="white" stroke="black" points="1274,-96 1274,-115 1364,-115 1364,-96 1274,-96"/>
<text text-anchor="middle" x="1319" y="-103" font-family="Helvetica,sans-Serif" font-size="10.00">itk::DataObject</text>
</a>
</g>
</g>
<!-- Node4&#45;&gt;Node2 -->
<g id="edge3" class="edge">
<title>Node4&#45;&gt;Node2</title>
<path fill="none" stroke="#9a32cd" stroke-dasharray="5,2" d="M1374.36,-108.82C1399.79,-110.53 1430.47,-112.82 1458,-115.5 1463.76,-116.06 1469.76,-116.7 1475.75,-117.38"/>
<polygon fill="#9a32cd" stroke="#9a32cd" points="1374.38,-105.31 1364.17,-108.14 1373.92,-112.29 1374.38,-105.31"/>
<text text-anchor="middle" x="1421.5" y="-118.5" font-family="Helvetica,sans-Serif" font-size="10.00"> m_DataObject</text>
</g>
<!-- Node5 -->
<g id="node5" class="node">
<title>Node5</title>
<g id="a_node5"><a xlink:href="classitk_1_1Object.html" target="_top" xlink:title="Base class for most ITK classes.">
<polygon fill="white" stroke="black" points="1044,-163 1044,-182 1111,-182 1111,-163 1044,-163"/>
<text text-anchor="middle" x="1077.5" y="-170" font-family="Helvetica,sans-Serif" font-size="10.00">itk::Object</text>
</a>
</g>
</g>
<!-- Node5&#45;&gt;Node4 -->
<g id="edge4" class="edge">
<title>Node5&#45;&gt;Node4</title>
<path fill="none" stroke="midnightblue" d="M1121.05,-160.6C1167.45,-147.62 1240.79,-127.1 1283.66,-115.11"/>
<polygon fill="midnightblue" stroke="midnightblue" points="1119.99,-157.26 1111.3,-163.32 1121.87,-164 1119.99,-157.26"/>
</g>
<!-- Node6 -->
<g id="node6" class="node">
<title>Node6</title>
<g id="a_node6"><a xlink:href="classitk_1_1LightObject.html" target="_top" xlink:title="Light weight base class for most itk classes.">
<polygon fill="white" stroke="black" points="745.5,-198 745.5,-217 836.5,-217 836.5,-198 745.5,-198"/>
<text text-anchor="middle" x="791" y="-205" font-family="Helvetica,sans-Serif" font-size="10.00">itk::LightObject</text>
</a>
</g>
</g>
<!-- Node6&#45;&gt;Node5 -->
<g id="edge5" class="edge">
<title>Node6&#45;&gt;Node5</title>
<path fill="none" stroke="midnightblue" d="M846.86,-202.05C888.62,-197.75 947.51,-191.34 999,-184.5 1013.71,-182.54 1029.94,-180.08 1043.74,-177.89"/>
<polygon fill="midnightblue" stroke="midnightblue" points="846.48,-198.57 836.89,-203.07 847.19,-205.54 846.48,-198.57"/>
</g>
<!-- Node7 -->
<g id="node7" class="node">
<title>Node7</title>
<g id="a_node7"><a xlink:title=" ">
<polygon fill="white" stroke="#bfbfbf" points="457,-200 457,-219 564,-219 564,-200 457,-200"/>
<text text-anchor="middle" x="510.5" y="-207" font-family="Helvetica,sans-Serif" font-size="10.00">std::atomic&lt; int &gt;</text>
</a>
</g>
</g>
<!-- Node7&#45;&gt;Node6 -->
<g id="edge6" class="edge">
<title>Node7&#45;&gt;Node6</title>
<path fill="none" stroke="#9a32cd" stroke-dasharray="5,2" d="M574.33,-209.05C626.37,-208.68 699.05,-208.15 745.31,-207.82"/>
<polygon fill="#9a32cd" stroke="#9a32cd" points="574.19,-205.55 564.21,-209.12 574.24,-212.55 574.19,-205.55"/>
<text text-anchor="middle" x="651.5" y="-211.5" font-family="Helvetica,sans-Serif" font-size="10.00"> m_ReferenceCount</text>
</g>
<!-- Node8 -->
<g id="node8" class="node">
<title>Node8</title>
<g id="a_node8"><a xlink:title="STL class.">
<polygon fill="white" stroke="#bfbfbf" points="123,-212 123,-231 223,-231 223,-212 123,-212"/>
<text text-anchor="middle" x="173" y="-219" font-family="Helvetica,sans-Serif" font-size="10.00">std::atomic&lt; T &gt;</text>
</a>
</g>
</g>
<!-- Node8&#45;&gt;Node7 -->
<g id="edge7" class="edge">
<title>Node8&#45;&gt;Node7</title>
<path fill="none" stroke="orange" stroke-dasharray="5,2" d="M233.38,-219.38C296.77,-217.11 396.25,-213.55 456.9,-211.38"/>
<polygon fill="orange" stroke="orange" points="233.01,-215.89 223.14,-219.74 233.26,-222.88 233.01,-215.89"/>
<text text-anchor="middle" x="334" y="-221.5" font-family="Helvetica,sans-Serif" font-size="10.00"> &lt; int &gt;</text>
</g>
<!-- Node17 -->
<g id="node17" class="node">
<title>Node17</title>
<g id="a_node17"><a xlink:href="classitk_1_1TimeStamp.html" target="_top" xlink:title="Generate a unique, increasing time value.">
<polygon fill="white" stroke="black" points="745,-246 745,-265 837,-265 837,-246 745,-246"/>
<text text-anchor="middle" x="791" y="-253" font-family="Helvetica,sans-Serif" font-size="10.00">itk::TimeStamp</text>
</a>
</g>
</g>
<!-- Node8&#45;&gt;Node17 -->
<g id="edge19" class="edge">
<title>Node8&#45;&gt;Node17</title>
<path fill="none" stroke="#9a32cd" stroke-dasharray="5,2" d="M233.4,-231.55C239,-232.3 244.6,-232.97 250,-233.5 432.77,-251.59 651.76,-254.88 744.72,-255.42"/>
<polygon fill="#9a32cd" stroke="#9a32cd" points="233.75,-228.07 223.36,-230.14 232.78,-235 233.75,-228.07"/>
<text text-anchor="middle" x="510.5" y="-255.5" font-family="Helvetica,sans-Serif" font-size="10.00"> m_GlobalTimeStamp</text>
</g>
<!-- Node9 -->
<g id="node9" class="node">
<title>Node9</title>
<g id="a_node9"><a xlink:title=" ">
<polygon fill="white" stroke="#bfbfbf" points="0,-175 0,-194 29,-194 29,-175 0,-175"/>
<text text-anchor="middle" x="14.5" y="-182" font-family="Helvetica,sans-Serif" font-size="10.00">T</text>
</a>
</g>
</g>
<!-- Node9&#45;&gt;Node8 -->
<g id="edge8" class="edge">
<title>Node9&#45;&gt;Node8</title>
<path fill="none" stroke="#9a32cd" stroke-dasharray="5,2" d="M38.37,-195.41C41.23,-196.56 44.16,-197.62 47,-198.5 71.56,-206.1 99.65,-211.55 122.98,-215.22"/>
<polygon fill="#9a32cd" stroke="#9a32cd" points="39.6,-192.13 29.03,-191.36 36.81,-198.55 39.6,-192.13"/>
<text text-anchor="middle" x="71.5" y="-212.5" font-family="Helvetica,sans-Serif" font-size="10.00"> ptr</text>
</g>
<!-- Node14 -->
<g id="node14" class="node">
<title>Node14</title>
<g id="a_node14"><a xlink:title="STL class.">
<polygon fill="white" stroke="#bfbfbf" points="122.5,-136 122.5,-155 223.5,-155 223.5,-136 122.5,-136"/>
<text text-anchor="middle" x="173" y="-143" font-family="Helvetica,sans-Serif" font-size="10.00">std::map&lt; K, T &gt;</text>
</a>
</g>
</g>
<!-- Node9&#45;&gt;Node14 -->
<g id="edge15" class="edge">
<title>Node9&#45;&gt;Node14</title>
<path fill="none" stroke="#9a32cd" stroke-dasharray="5,2" d="M38.44,-171.9C41.27,-170.63 44.17,-169.46 47,-168.5 71.25,-160.3 99.19,-154.81 122.49,-151.26"/>
<polygon fill="#9a32cd" stroke="#9a32cd" points="36.66,-168.88 29.24,-176.44 39.75,-175.16 36.66,-168.88"/>
<text text-anchor="middle" x="71.5" y="-171.5" font-family="Helvetica,sans-Serif" font-size="10.00"> elements</text>
</g>
<!-- Node16 -->
<g id="node16" class="node">
<title>Node16</title>
<g id="a_node16"><a xlink:title="STL class.">
<polygon fill="white" stroke="#bfbfbf" points="114,-174 114,-193 232,-193 232,-174 114,-174"/>
<text text-anchor="middle" x="173" y="-181" font-family="Helvetica,sans-Serif" font-size="10.00">std::shared_ptr&lt; T &gt;</text>
</a>
</g>
</g>
<!-- Node9&#45;&gt;Node16 -->
<g id="edge17" class="edge">
<title>Node9&#45;&gt;Node16</title>
<path fill="none" stroke="#9a32cd" stroke-dasharray="5,2" d="M39.32,-184.35C59.06,-184.22 87.96,-184.04 113.75,-183.87"/>
<polygon fill="#9a32cd" stroke="#9a32cd" points="39.09,-180.85 29.11,-184.41 39.14,-187.85 39.09,-180.85"/>
<text text-anchor="middle" x="71.5" y="-186.5" font-family="Helvetica,sans-Serif" font-size="10.00"> ptr</text>
</g>
<!-- Node10 -->
<g id="node10" class="node">
<title>Node10</title>
<g id="a_node10"><a xlink:title="STL class.">
<polygon fill="white" stroke="#bfbfbf" points="758.5,-103 758.5,-122 823.5,-122 823.5,-103 758.5,-103"/>
<text text-anchor="middle" x="791" y="-110" font-family="Helvetica,sans-Serif" font-size="10.00">std::string</text>
</a>
</g>
</g>
<!-- Node10&#45;&gt;Node4 -->
<g id="edge21" class="edge">
<title>Node10&#45;&gt;Node4</title>
<path fill="none" stroke="#9a32cd" stroke-dasharray="5,2" d="M833.8,-111.94C931.4,-110.64 1173.6,-107.42 1273.66,-106.09"/>
<polygon fill="#9a32cd" stroke="#9a32cd" points="833.67,-108.45 823.72,-112.08 833.76,-115.44 833.67,-108.45"/>
<text text-anchor="middle" x="1077.5" y="-111.5" font-family="Helvetica,sans-Serif" font-size="10.00"> m_SourceOutputName</text>
</g>
<!-- Node10&#45;&gt;Node5 -->
<g id="edge9" class="edge">
<title>Node10&#45;&gt;Node5</title>
<path fill="none" stroke="#9a32cd" stroke-dasharray="5,2" d="M833.53,-119.75C875.44,-127.24 941.93,-139.64 999,-152.5 1013.78,-155.83 1030.02,-159.95 1043.8,-163.58"/>
<polygon fill="#9a32cd" stroke="#9a32cd" points="834.15,-116.3 823.69,-118 832.92,-123.19 834.15,-116.3"/>
<text text-anchor="middle" x="940.5" y="-155.5" font-family="Helvetica,sans-Serif" font-size="10.00"> m_ObjectName</text>
</g>
<!-- Node11 -->
<g id="node11" class="node">
<title>Node11</title>
<g id="a_node11"><a xlink:title="STL class.">
<polygon fill="white" stroke="#bfbfbf" points="458.5,-97.5 458.5,-127.5 562.5,-127.5 562.5,-97.5 458.5,-97.5"/>
<text text-anchor="start" x="466.5" y="-115.5" font-family="Helvetica,sans-Serif" font-size="10.00">std::basic_string&lt;</text>
<text text-anchor="middle" x="510.5" y="-104.5" font-family="Helvetica,sans-Serif" font-size="10.00"> char &gt;</text>
</a>
</g>
</g>
<!-- Node11&#45;&gt;Node10 -->
<g id="edge10" class="edge">
<title>Node11&#45;&gt;Node10</title>
<path fill="none" stroke="midnightblue" d="M572.6,-112.5C629.89,-112.5 713.28,-112.5 758.31,-112.5"/>
<polygon fill="midnightblue" stroke="midnightblue" points="572.58,-109 562.58,-112.5 572.58,-116 572.58,-109"/>
</g>
<!-- Node12 -->
<g id="node12" class="node">
<title>Node12</title>
<g id="a_node12"><a xlink:href="classitk_1_1MetaDataDictionary.html" target="_top" xlink:title="Provides a mechanism for storing a collection of arbitrary data types.">
<polygon fill="white" stroke="black" points="724,-157 724,-176 858,-176 858,-157 724,-157"/>
<text text-anchor="middle" x="791" y="-164" font-family="Helvetica,sans-Serif" font-size="10.00">itk::MetaDataDictionary</text>
</a>
</g>
</g>
<!-- Node12&#45;&gt;Node5 -->
<g id="edge11" class="edge">
<title>Node12&#45;&gt;Node5</title>
<path fill="none" stroke="#9a32cd" stroke-dasharray="5,2" d="M868.47,-168.11C925.84,-169.32 1001.52,-170.92 1043.98,-171.81"/>
<polygon fill="#9a32cd" stroke="#9a32cd" points="868.42,-164.61 858.34,-167.9 868.27,-171.61 868.42,-164.61"/>
<text text-anchor="middle" x="940.5" y="-173.5" font-family="Helvetica,sans-Serif" font-size="10.00"> m_MetaDataDictionary</text>
</g>
<!-- Node13 -->
<g id="node13" class="node">
<title>Node13</title>
<g id="a_node13"><a xlink:title=" ">
<polygon fill="white" stroke="#bfbfbf" points="436,-150.5 436,-180.5 585,-180.5 585,-150.5 436,-150.5"/>
<text text-anchor="start" x="444" y="-168.5" font-family="Helvetica,sans-Serif" font-size="10.00">std::shared_ptr&lt; MetaData</text>
<text text-anchor="middle" x="510.5" y="-157.5" font-family="Helvetica,sans-Serif" font-size="10.00">DictionaryMapType &gt;</text>
</a>
</g>
</g>
<!-- Node13&#45;&gt;Node12 -->
<g id="edge12" class="edge">
<title>Node13&#45;&gt;Node12</title>
<path fill="none" stroke="#9a32cd" stroke-dasharray="5,2" d="M595.05,-165.8C636.2,-165.95 685.13,-166.12 723.68,-166.26"/>
<polygon fill="#9a32cd" stroke="#9a32cd" points="595.05,-162.3 585.04,-165.76 595.02,-169.3 595.05,-162.3"/>
<text text-anchor="middle" x="651.5" y="-168.5" font-family="Helvetica,sans-Serif" font-size="10.00"> m_Dictionary</text>
</g>
<!-- Node14&#45;&gt;Node13 -->
<g id="edge13" class="edge">
<title>Node14&#45;&gt;Node13</title>
<path fill="none" stroke="#9a32cd" stroke-dasharray="5,2" d="M233.79,-146.82C283.23,-148.18 355.24,-150.79 418,-155.5 423.74,-155.93 429.67,-156.44 435.63,-156.99"/>
<polygon fill="#9a32cd" stroke="#9a32cd" points="233.68,-143.31 223.59,-146.55 233.5,-150.31 233.68,-143.31"/>
<text text-anchor="middle" x="334" y="-158.5" font-family="Helvetica,sans-Serif" font-size="10.00"> ptr</text>
</g>
<!-- Node15 -->
<g id="node15" class="node">
<title>Node15</title>
<g id="a_node15"><a xlink:title=" ">
<polygon fill="white" stroke="#bfbfbf" points="0,-107 0,-126 29,-126 29,-107 0,-107"/>
<text text-anchor="middle" x="14.5" y="-114" font-family="Helvetica,sans-Serif" font-size="10.00">K</text>
</a>
</g>
</g>
<!-- Node15&#45;&gt;Node14 -->
<g id="edge14" class="edge">
<title>Node15&#45;&gt;Node14</title>
<path fill="none" stroke="#9a32cd" stroke-dasharray="5,2" d="M39.2,-114.7C55.34,-113.98 77.13,-114.01 96,-117.5 115.63,-121.13 136.87,-129.35 151.89,-135.95"/>
<polygon fill="#9a32cd" stroke="#9a32cd" points="38.81,-111.21 29.02,-115.28 39.21,-118.2 38.81,-111.21"/>
<text text-anchor="middle" x="71.5" y="-120.5" font-family="Helvetica,sans-Serif" font-size="10.00"> keys</text>
</g>
<!-- Node16&#45;&gt;Node13 -->
<g id="edge16" class="edge">
<title>Node16&#45;&gt;Node13</title>
<path fill="none" stroke="orange" stroke-dasharray="5,2" d="M242.27,-179.84C298.5,-176.82 378.06,-172.55 435.74,-169.46"/>
<polygon fill="orange" stroke="orange" points="241.85,-176.35 232.06,-180.39 242.23,-183.34 241.85,-176.35"/>
<text text-anchor="middle" x="334" y="-181.5" font-family="Helvetica,sans-Serif" font-size="10.00"> &lt; MetaDataDictionaryMapType &gt;</text>
</g>
<!-- Node17&#45;&gt;Node4 -->
<g id="edge22" class="edge">
<title>Node17&#45;&gt;Node4</title>
<path fill="none" stroke="#9a32cd" stroke-dasharray="5,2" d="M847.35,-256.66C889.37,-256.49 948.36,-254 999,-243.5 1116.71,-219.09 1157.89,-224.03 1253,-150.5 1264.12,-141.9 1260.02,-133.28 1271,-124.5 1275.67,-120.76 1281.18,-117.67 1286.75,-115.14"/>
<polygon fill="#9a32cd" stroke="#9a32cd" points="847.32,-253.16 837.32,-256.66 847.32,-260.16 847.32,-253.16"/>
<text text-anchor="middle" x="1077.5" y="-242.5" font-family="Helvetica,sans-Serif" font-size="10.00"> m_UpdateMTime</text>
</g>
<!-- Node17&#45;&gt;Node5 -->
<g id="edge18" class="edge">
<title>Node17&#45;&gt;Node5</title>
<path fill="none" stroke="#9a32cd" stroke-dasharray="5,2" d="M838.62,-243.44C852.56,-239.87 867.89,-235.99 882,-232.5 933.9,-219.66 948.13,-220.98 999,-204.5 1018.66,-198.13 1040.36,-188.98 1055.78,-182.1"/>
<polygon fill="#9a32cd" stroke="#9a32cd" points="837.57,-240.1 828.75,-245.97 839.31,-246.88 837.57,-240.1"/>
<text text-anchor="middle" x="940.5" y="-235.5" font-family="Helvetica,sans-Serif" font-size="10.00"> m_MTime</text>
</g>
<!-- Node18 -->
<g id="node18" class="node">
<title>Node18</title>
<g id="a_node18"><a xlink:href="classitk_1_1RealTimeStamp.html" target="_top" xlink:title="The RealTimeStamp is a data structure for representing time with high precision and a large dynamic r...">
<polygon fill="white" stroke="black" points="1021,-50 1021,-69 1134,-69 1134,-50 1021,-50"/>
<text text-anchor="middle" x="1077.5" y="-57" font-family="Helvetica,sans-Serif" font-size="10.00">itk::RealTimeStamp</text>
</a>
</g>
</g>
<!-- Node18&#45;&gt;Node4 -->
<g id="edge20" class="edge">
<title>Node18&#45;&gt;Node4</title>
<path fill="none" stroke="#9a32cd" stroke-dasharray="5,2" d="M1144.14,-63.54C1177.15,-66.54 1217.57,-71.7 1253,-80.5 1268.14,-84.26 1284.52,-90.58 1297.06,-95.92"/>
<polygon fill="#9a32cd" stroke="#9a32cd" points="1144.41,-60.05 1134.15,-62.67 1143.81,-67.02 1144.41,-60.05"/>
<text text-anchor="middle" x="1204.5" y="-83.5" font-family="Helvetica,sans-Serif" font-size="10.00"> m_RealTimeStamp</text>
</g>
<!-- Node19 -->
<g id="node19" class="node">
<title>Node19</title>
<g id="a_node19"><a xlink:href="classitk_1_1WeakPointer.html" target="_top" xlink:title=" ">
<polygon fill="white" stroke="black" points="1017,-0.5 1017,-30.5 1138,-30.5 1138,-0.5 1017,-0.5"/>
<text text-anchor="start" x="1025" y="-18.5" font-family="Helvetica,sans-Serif" font-size="10.00">itk::WeakPointer&lt; itk</text>
<text text-anchor="middle" x="1077.5" y="-7.5" font-family="Helvetica,sans-Serif" font-size="10.00">::ProcessObject &gt;</text>
</a>
</g>
</g>
<!-- Node19&#45;&gt;Node4 -->
<g id="edge23" class="edge">
<title>Node19&#45;&gt;Node4</title>
<path fill="none" stroke="#9a32cd" stroke-dasharray="5,2" d="M1148.31,-20.75C1181.33,-25.29 1220.54,-33.75 1253,-49.5 1276.59,-60.95 1298.46,-83.12 1309.83,-95.86"/>
<polygon fill="#9a32cd" stroke="#9a32cd" points="1148.64,-17.27 1138.28,-19.47 1147.75,-24.21 1148.64,-17.27"/>
<text text-anchor="middle" x="1204.5" y="-52.5" font-family="Helvetica,sans-Serif" font-size="10.00"> m_Source</text>
</g>
<!-- Node20 -->
<g id="node20" class="node">
<title>Node20</title>
<g id="a_node20"><a xlink:href="classitk_1_1WeakPointer.html" target="_top" xlink:title="Implements a weak reference to an object.">
<polygon fill="white" stroke="black" points="718,-0.5 718,-30.5 864,-30.5 864,-0.5 718,-0.5"/>
<text text-anchor="start" x="726" y="-18.5" font-family="Helvetica,sans-Serif" font-size="10.00">itk::WeakPointer&lt; TObject</text>
<text text-anchor="middle" x="791" y="-7.5" font-family="Helvetica,sans-Serif" font-size="10.00">Type &gt;</text>
</a>
</g>
</g>
<!-- Node20&#45;&gt;Node19 -->
<g id="edge24" class="edge">
<title>Node20&#45;&gt;Node19</title>
<path fill="none" stroke="orange" stroke-dasharray="5,2" d="M874.32,-15.5C919.9,-15.5 975.53,-15.5 1016.89,-15.5"/>
<polygon fill="orange" stroke="orange" points="874.16,-12 864.16,-15.5 874.16,-19 874.16,-12"/>
<text text-anchor="middle" x="940.5" y="-18.5" font-family="Helvetica,sans-Serif" font-size="10.00"> &lt; itk::ProcessObject &gt;</text>
</g>
</g>
</svg>
