<?xml version="1.0" encoding="UTF-8" standalone="no"?>
<!DOCTYPE svg PUBLIC "-//W3C//DTD SVG 1.1//EN"
 "http://www.w3.org/Graphics/SVG/1.1/DTD/svg11.dtd">
<!-- Generated by graphviz version 2.43.0 (0)
 -->
<!-- Title: itk::ElasticBodyReciprocalSplineKernelTransform&lt; TParametersValueType, VDimension &gt; Pages: 1 -->
<svg width="1675pt" height="125pt"
 viewBox="0.00 0.00 1675.00 124.50" xmlns="http://www.w3.org/2000/svg" xmlns:xlink="http://www.w3.org/1999/xlink">
<g id="graph0" class="graph" transform="scale(1 1) rotate(0) translate(4 120.5)">
<title>itk::ElasticBodyReciprocalSplineKernelTransform&lt; TParametersValueType, VDimension &gt;</title>
<polygon fill="white" stroke="transparent" points="-4,4 -4,-120.5 1671,-120.5 1671,4 -4,4"/>
<!-- Node1 -->
<g id="node1" class="node">
<title>Node1</title>
<g id="a_node1"><a xlink:title=" ">
<polygon fill="#bfbfbf" stroke="black" points="1460,-25.5 1460,-66.5 1667,-66.5 1667,-25.5 1460,-25.5"/>
<text text-anchor="start" x="1468" y="-54.5" font-family="Helvetica,sans-Serif" font-size="10.00">itk::ElasticBodyReciprocal</text>
<text text-anchor="start" x="1468" y="-43.5" font-family="Helvetica,sans-Serif" font-size="10.00">SplineKernelTransform&lt;</text>
<text text-anchor="middle" x="1563.5" y="-32.5" font-family="Helvetica,sans-Serif" font-size="10.00"> TParametersValueType, VDimension &gt;</text>
</a>
</g>
</g>
<!-- Node2 -->
<g id="node2" class="node">
<title>Node2</title>
<g id="a_node2"><a xlink:href="classitk_1_1KernelTransform.html" target="_top" xlink:title=" ">
<polygon fill="white" stroke="black" points="1308,-31 1308,-61 1423,-61 1423,-31 1308,-31"/>
<text text-anchor="start" x="1316" y="-49" font-family="Helvetica,sans-Serif" font-size="10.00">itk::KernelTransform</text>
<text text-anchor="middle" x="1365.5" y="-38" font-family="Helvetica,sans-Serif" font-size="10.00">&lt; double, 3 &gt;</text>
</a>
</g>
</g>
<!-- Node2&#45;&gt;Node1 -->
<g id="edge1" class="edge">
<title>Node2&#45;&gt;Node1</title>
<path fill="none" stroke="midnightblue" d="M1433.41,-46C1441.94,-46 1450.82,-46 1459.76,-46"/>
<polygon fill="midnightblue" stroke="midnightblue" points="1433.19,-42.5 1423.19,-46 1433.19,-49.5 1433.19,-42.5"/>
</g>
<!-- Node3 -->
<g id="node3" class="node">
<title>Node3</title>
<g id="a_node3"><a xlink:href="classitk_1_1Transform.html" target="_top" xlink:title=" ">
<polygon fill="white" stroke="black" points="840.5,-55 840.5,-85 995.5,-85 995.5,-55 840.5,-55"/>
<text text-anchor="start" x="848.5" y="-73" font-family="Helvetica,sans-Serif" font-size="10.00">itk::Transform&lt; double,</text>
<text text-anchor="middle" x="918" y="-62" font-family="Helvetica,sans-Serif" font-size="10.00"> VDimension, VDimension &gt;</text>
</a>
</g>
</g>
<!-- Node3&#45;&gt;Node2 -->
<g id="edge2" class="edge">
<title>Node3&#45;&gt;Node2</title>
<path fill="none" stroke="midnightblue" d="M1006.17,-67.18C1081.4,-64.47 1192.94,-59.78 1290,-53 1295.83,-52.59 1301.92,-52.11 1307.98,-51.6"/>
<polygon fill="midnightblue" stroke="midnightblue" points="1005.67,-63.7 995.8,-67.55 1005.92,-70.7 1005.67,-63.7"/>
</g>
<!-- Node4 -->
<g id="node4" class="node">
<title>Node4</title>
<g id="a_node4"><a xlink:href="classitk_1_1TransformBaseTemplate.html" target="_top" xlink:title=" ">
<polygon fill="white" stroke="black" points="483,-86 483,-116 636,-116 636,-86 483,-86"/>
<text text-anchor="start" x="491" y="-104" font-family="Helvetica,sans-Serif" font-size="10.00">itk::TransformBaseTemplate</text>
<text text-anchor="middle" x="559.5" y="-93" font-family="Helvetica,sans-Serif" font-size="10.00">&lt; double &gt;</text>
</a>
</g>
</g>
<!-- Node4&#45;&gt;Node3 -->
<g id="edge3" class="edge">
<title>Node4&#45;&gt;Node3</title>
<path fill="none" stroke="midnightblue" d="M646.43,-97.55C691.1,-95.34 746.56,-91.93 796,-87 810.35,-85.57 825.62,-83.7 840.3,-81.72"/>
<polygon fill="midnightblue" stroke="midnightblue" points="646.01,-94.07 636.19,-98.04 646.35,-101.06 646.01,-94.07"/>
</g>
<!-- Node5 -->
<g id="node5" class="node">
<title>Node5</title>
<g id="a_node5"><a xlink:href="classitk_1_1Object.html" target="_top" xlink:title="Base class for most ITK classes.">
<polygon fill="white" stroke="black" points="128,-65.5 128,-84.5 195,-84.5 195,-65.5 128,-65.5"/>
<text text-anchor="middle" x="161.5" y="-72.5" font-family="Helvetica,sans-Serif" font-size="10.00">itk::Object</text>
</a>
</g>
</g>
<!-- Node5&#45;&gt;Node4 -->
<g id="edge4" class="edge">
<title>Node5&#45;&gt;Node4</title>
<path fill="none" stroke="midnightblue" d="M205.22,-80.26C207.85,-80.53 210.46,-80.78 213,-81 305.77,-89.19 412.86,-94.79 482.92,-97.94"/>
<polygon fill="midnightblue" stroke="midnightblue" points="205.39,-76.76 195.07,-79.16 204.64,-83.72 205.39,-76.76"/>
</g>
<!-- Node7 -->
<g id="node7" class="node">
<title>Node7</title>
<g id="a_node7"><a xlink:href="classitk_1_1TransformBaseTemplate.html" target="_top" xlink:title=" ">
<polygon fill="white" stroke="black" points="232,-35 232,-65 385,-65 385,-35 232,-35"/>
<text text-anchor="start" x="240" y="-53" font-family="Helvetica,sans-Serif" font-size="10.00">itk::TransformBaseTemplate</text>
<text text-anchor="middle" x="308.5" y="-42" font-family="Helvetica,sans-Serif" font-size="10.00">&lt; TParametersValueType &gt;</text>
</a>
</g>
</g>
<!-- Node5&#45;&gt;Node7 -->
<g id="edge7" class="edge">
<title>Node5&#45;&gt;Node7</title>
<path fill="none" stroke="midnightblue" d="M205.01,-67.67C213.48,-66.21 222.62,-64.63 231.82,-63.05"/>
<polygon fill="midnightblue" stroke="midnightblue" points="204.3,-64.24 195.04,-69.39 205.49,-71.14 204.3,-64.24"/>
</g>
<!-- Node6 -->
<g id="node6" class="node">
<title>Node6</title>
<g id="a_node6"><a xlink:href="classitk_1_1LightObject.html" target="_top" xlink:title="Light weight base class for most itk classes.">
<polygon fill="white" stroke="black" points="0,-65.5 0,-84.5 91,-84.5 91,-65.5 0,-65.5"/>
<text text-anchor="middle" x="45.5" y="-72.5" font-family="Helvetica,sans-Serif" font-size="10.00">itk::LightObject</text>
</a>
</g>
</g>
<!-- Node6&#45;&gt;Node5 -->
<g id="edge5" class="edge">
<title>Node6&#45;&gt;Node5</title>
<path fill="none" stroke="midnightblue" d="M101.39,-75C110.45,-75 119.59,-75 127.88,-75"/>
<polygon fill="midnightblue" stroke="midnightblue" points="101.23,-71.5 91.23,-75 101.23,-78.5 101.23,-71.5"/>
</g>
<!-- Node7&#45;&gt;Node4 -->
<g id="edge6" class="edge">
<title>Node7&#45;&gt;Node4</title>
<path fill="none" stroke="orange" stroke-dasharray="5,2" d="M395.28,-63.32C417.11,-67.06 440.48,-71.39 462,-76 475.62,-78.92 490.22,-82.48 503.83,-85.98"/>
<polygon fill="orange" stroke="orange" points="395.82,-59.86 385.37,-61.64 394.64,-66.76 395.82,-59.86"/>
<text text-anchor="middle" x="432.5" y="-79" font-family="Helvetica,sans-Serif" font-size="10.00"> &lt; double &gt;</text>
</g>
<!-- Node8 -->
<g id="node8" class="node">
<title>Node8</title>
<g id="a_node8"><a xlink:href="classitk_1_1Transform.html" target="_top" xlink:title="Transform points and vectors from an input space to an output space.">
<polygon fill="white" stroke="black" points="480,-21.5 480,-62.5 639,-62.5 639,-21.5 480,-21.5"/>
<text text-anchor="start" x="488" y="-50.5" font-family="Helvetica,sans-Serif" font-size="10.00">itk::Transform&lt; TParameters</text>
<text text-anchor="start" x="488" y="-39.5" font-family="Helvetica,sans-Serif" font-size="10.00">ValueType, VInputDimension,</text>
<text text-anchor="middle" x="559.5" y="-28.5" font-family="Helvetica,sans-Serif" font-size="10.00"> VOutputDimension &gt;</text>
</a>
</g>
</g>
<!-- Node7&#45;&gt;Node8 -->
<g id="edge9" class="edge">
<title>Node7&#45;&gt;Node8</title>
<path fill="none" stroke="midnightblue" d="M395.54,-47.24C422.86,-46.36 452.91,-45.39 479.69,-44.53"/>
<polygon fill="midnightblue" stroke="midnightblue" points="395.1,-43.75 385.22,-47.57 395.33,-50.74 395.1,-43.75"/>
</g>
<!-- Node10 -->
<g id="node10" class="node">
<title>Node10</title>
<g id="a_node10"><a xlink:href="classitk_1_1Transform.html" target="_top" xlink:title=" ">
<polygon fill="white" stroke="black" points="814,-6 814,-36 1022,-36 1022,-6 814,-6"/>
<text text-anchor="start" x="822" y="-24" font-family="Helvetica,sans-Serif" font-size="10.00">itk::Transform&lt; TParameters</text>
<text text-anchor="middle" x="918" y="-13" font-family="Helvetica,sans-Serif" font-size="10.00">ValueType, VDimension, VDimension &gt;</text>
</a>
</g>
</g>
<!-- Node7&#45;&gt;Node10 -->
<g id="edge12" class="edge">
<title>Node7&#45;&gt;Node10</title>
<path fill="none" stroke="midnightblue" d="M372.82,-32.41C404.69,-24.45 444.09,-15.95 480,-12 593.71,0.52 725.03,-4.83 813.8,-11.34"/>
<polygon fill="midnightblue" stroke="midnightblue" points="371.58,-29.12 362.75,-34.97 373.3,-35.9 371.58,-29.12"/>
</g>
<!-- Node8&#45;&gt;Node3 -->
<g id="edge8" class="edge">
<title>Node8&#45;&gt;Node3</title>
<path fill="none" stroke="orange" stroke-dasharray="5,2" d="M649.19,-48.97C707.95,-53.58 784.24,-59.57 840.36,-63.98"/>
<polygon fill="orange" stroke="orange" points="649.42,-45.47 639.18,-48.18 648.87,-52.45 649.42,-45.47"/>
<text text-anchor="start" x="668.5" y="-75" font-family="Helvetica,sans-Serif" font-size="10.00"> &lt; double, VDimension,</text>
<text text-anchor="middle" x="726.5" y="-64" font-family="Helvetica,sans-Serif" font-size="10.00"> VDimension &gt;</text>
</g>
<!-- Node8&#45;&gt;Node10 -->
<g id="edge13" class="edge">
<title>Node8&#45;&gt;Node10</title>
<path fill="none" stroke="orange" stroke-dasharray="5,2" d="M649.23,-24.85C651.85,-24.54 654.44,-24.25 657,-24 708.55,-18.93 766.13,-17.81 813.97,-18.1"/>
<polygon fill="orange" stroke="orange" points="648.53,-21.41 639.07,-26.18 649.44,-28.35 648.53,-21.41"/>
<text text-anchor="start" x="657" y="-38" font-family="Helvetica,sans-Serif" font-size="10.00"> &lt; TParametersValueType,</text>
<text text-anchor="middle" x="726.5" y="-27" font-family="Helvetica,sans-Serif" font-size="10.00"> VDimension, VDimension &gt;</text>
</g>
<!-- Node9 -->
<g id="node9" class="node">
<title>Node9</title>
<g id="a_node9"><a xlink:href="classitk_1_1KernelTransform.html" target="_top" xlink:title=" ">
<polygon fill="white" stroke="black" points="1059,-0.5 1059,-41.5 1201,-41.5 1201,-0.5 1059,-0.5"/>
<text text-anchor="start" x="1067" y="-29.5" font-family="Helvetica,sans-Serif" font-size="10.00">itk::KernelTransform</text>
<text text-anchor="start" x="1067" y="-18.5" font-family="Helvetica,sans-Serif" font-size="10.00">&lt; TParametersValueType,</text>
<text text-anchor="middle" x="1130" y="-7.5" font-family="Helvetica,sans-Serif" font-size="10.00"> VDimension &gt;</text>
</a>
</g>
</g>
<!-- Node9&#45;&gt;Node2 -->
<g id="edge10" class="edge">
<title>Node9&#45;&gt;Node2</title>
<path fill="none" stroke="orange" stroke-dasharray="5,2" d="M1211.22,-29.59C1243.01,-32.99 1278.81,-36.83 1307.81,-39.93"/>
<polygon fill="orange" stroke="orange" points="1211.37,-26.09 1201.06,-28.5 1210.63,-33.05 1211.37,-26.09"/>
<text text-anchor="middle" x="1254.5" y="-41" font-family="Helvetica,sans-Serif" font-size="10.00"> &lt; double, 3 &gt;</text>
</g>
<!-- Node10&#45;&gt;Node9 -->
<g id="edge11" class="edge">
<title>Node10&#45;&gt;Node9</title>
<path fill="none" stroke="midnightblue" d="M1032.36,-21C1041.38,-21 1050.31,-21 1058.9,-21"/>
<polygon fill="midnightblue" stroke="midnightblue" points="1032.15,-17.5 1022.15,-21 1032.15,-24.5 1032.15,-17.5"/>
</g>
</g>
</svg>
