<?xml version="1.0" encoding="UTF-8" standalone="no"?>
<!DOCTYPE svg PUBLIC "-//W3C//DTD SVG 1.1//EN"
 "http://www.w3.org/Graphics/SVG/1.1/DTD/svg11.dtd">
<!-- Generated by graphviz version 2.43.0 (0)
 -->
<!-- Title: itk::SpatialObjectToPointSetFilter&lt; TPointBasedSpatialObject, TOutputPointSet &gt; Pages: 1 -->
<svg width="264pt" height="367pt"
 viewBox="0.00 0.00 264.00 367.00" xmlns="http://www.w3.org/2000/svg" xmlns:xlink="http://www.w3.org/1999/xlink">
<g id="graph0" class="graph" transform="scale(1 1) rotate(0) translate(4 363)">
<title>itk::SpatialObjectToPointSetFilter&lt; TPointBasedSpatialObject, TOutputPointSet &gt;</title>
<polygon fill="white" stroke="transparent" points="-4,4 -4,-363 260,-363 260,4 -4,4"/>
<!-- Node1 -->
<g id="node1" class="node">
<title>Node1</title>
<g id="a_node1"><a xlink:title="Base class for filters that take a SpatialObject as input and produce a PointSet as output....">
<polygon fill="#bfbfbf" stroke="black" points="0,-0.5 0,-41.5 197,-41.5 197,-0.5 0,-0.5"/>
<text text-anchor="start" x="8" y="-29.5" font-family="Helvetica,sans-Serif" font-size="10.00">itk::SpatialObjectToPoint</text>
<text text-anchor="start" x="8" y="-18.5" font-family="Helvetica,sans-Serif" font-size="10.00">SetFilter&lt; TPointBasedSpatialObject,</text>
<text text-anchor="middle" x="98.5" y="-7.5" font-family="Helvetica,sans-Serif" font-size="10.00"> TOutputPointSet &gt;</text>
</a>
</g>
</g>
<!-- Node2 -->
<g id="node2" class="node">
<title>Node2</title>
<g id="a_node2"><a xlink:href="classitk_1_1MeshSource.html" target="_top" xlink:title=" ">
<polygon fill="white" stroke="black" points="26,-79.5 26,-109.5 171,-109.5 171,-79.5 26,-79.5"/>
<text text-anchor="start" x="34" y="-97.5" font-family="Helvetica,sans-Serif" font-size="10.00">itk::MeshSource&lt; TOutput</text>
<text text-anchor="middle" x="98.5" y="-86.5" font-family="Helvetica,sans-Serif" font-size="10.00">PointSet &gt;</text>
</a>
</g>
</g>
<!-- Node2&#45;&gt;Node1 -->
<g id="edge1" class="edge">
<title>Node2&#45;&gt;Node1</title>
<path fill="none" stroke="midnightblue" d="M98.5,-69.1C98.5,-60.1 98.5,-50.02 98.5,-41.51"/>
<polygon fill="midnightblue" stroke="midnightblue" points="95,-69.37 98.5,-79.37 102,-69.37 95,-69.37"/>
</g>
<!-- Node3 -->
<g id="node3" class="node">
<title>Node3</title>
<g id="a_node3"><a xlink:href="classitk_1_1ProcessObject.html" target="_top" xlink:title="The base class for all process objects (source, filters, mappers) in the Insight data processing pipe...">
<polygon fill="white" stroke="black" points="42.5,-225.5 42.5,-244.5 146.5,-244.5 146.5,-225.5 42.5,-225.5"/>
<text text-anchor="middle" x="94.5" y="-232.5" font-family="Helvetica,sans-Serif" font-size="10.00">itk::ProcessObject</text>
</a>
</g>
</g>
<!-- Node3&#45;&gt;Node2 -->
<g id="edge2" class="edge">
<title>Node3&#45;&gt;Node2</title>
<path fill="none" stroke="midnightblue" d="M95.04,-215.25C95.85,-187.19 97.36,-134.88 98.09,-109.73"/>
<polygon fill="midnightblue" stroke="midnightblue" points="91.54,-215.24 94.75,-225.34 98.54,-215.44 91.54,-215.24"/>
</g>
<!-- Node6 -->
<g id="node6" class="node">
<title>Node6</title>
<g id="a_node6"><a xlink:href="classitk_1_1MeshSource.html" target="_top" xlink:title="Base class for all process objects that output mesh data.">
<polygon fill="white" stroke="black" points="111,-157.5 111,-187.5 256,-187.5 256,-157.5 111,-157.5"/>
<text text-anchor="start" x="119" y="-175.5" font-family="Helvetica,sans-Serif" font-size="10.00">itk::MeshSource&lt; TOutput</text>
<text text-anchor="middle" x="183.5" y="-164.5" font-family="Helvetica,sans-Serif" font-size="10.00">Mesh &gt;</text>
</a>
</g>
</g>
<!-- Node3&#45;&gt;Node6 -->
<g id="edge6" class="edge">
<title>Node3&#45;&gt;Node6</title>
<path fill="none" stroke="midnightblue" d="M115.89,-219.46C130.15,-209.77 148.77,-197.11 162.87,-187.53"/>
<polygon fill="midnightblue" stroke="midnightblue" points="113.55,-216.82 107.25,-225.33 117.49,-222.6 113.55,-216.82"/>
</g>
<!-- Node4 -->
<g id="node4" class="node">
<title>Node4</title>
<g id="a_node4"><a xlink:href="classitk_1_1Object.html" target="_top" xlink:title="Base class for most ITK classes.">
<polygon fill="white" stroke="black" points="61,-282.5 61,-301.5 128,-301.5 128,-282.5 61,-282.5"/>
<text text-anchor="middle" x="94.5" y="-289.5" font-family="Helvetica,sans-Serif" font-size="10.00">itk::Object</text>
</a>
</g>
</g>
<!-- Node4&#45;&gt;Node3 -->
<g id="edge3" class="edge">
<title>Node4&#45;&gt;Node3</title>
<path fill="none" stroke="midnightblue" d="M94.5,-272.12C94.5,-262.82 94.5,-252.06 94.5,-244.71"/>
<polygon fill="midnightblue" stroke="midnightblue" points="91,-272.41 94.5,-282.41 98,-272.41 91,-272.41"/>
</g>
<!-- Node5 -->
<g id="node5" class="node">
<title>Node5</title>
<g id="a_node5"><a xlink:href="classitk_1_1LightObject.html" target="_top" xlink:title="Light weight base class for most itk classes.">
<polygon fill="white" stroke="black" points="49,-339.5 49,-358.5 140,-358.5 140,-339.5 49,-339.5"/>
<text text-anchor="middle" x="94.5" y="-346.5" font-family="Helvetica,sans-Serif" font-size="10.00">itk::LightObject</text>
</a>
</g>
</g>
<!-- Node5&#45;&gt;Node4 -->
<g id="edge4" class="edge">
<title>Node5&#45;&gt;Node4</title>
<path fill="none" stroke="midnightblue" d="M94.5,-329.12C94.5,-319.82 94.5,-309.06 94.5,-301.71"/>
<polygon fill="midnightblue" stroke="midnightblue" points="91,-329.41 94.5,-339.41 98,-329.41 91,-329.41"/>
</g>
<!-- Node6&#45;&gt;Node2 -->
<g id="edge5" class="edge">
<title>Node6&#45;&gt;Node2</title>
<path fill="none" stroke="orange" stroke-dasharray="5,2" d="M159.89,-150.39C145.4,-137.43 127.22,-121.18 114.42,-109.73"/>
<polygon fill="orange" stroke="orange" points="157.72,-153.15 167.51,-157.2 162.39,-147.93 157.72,-153.15"/>
<text text-anchor="middle" x="198.5" y="-131" font-family="Helvetica,sans-Serif" font-size="10.00"> &lt; TOutputPointSet &gt;</text>
</g>
</g>
</svg>
