<?xml version="1.0" encoding="UTF-8" standalone="no"?>
<!DOCTYPE svg PUBLIC "-//W3C//DTD SVG 1.1//EN"
 "http://www.w3.org/Graphics/SVG/1.1/DTD/svg11.dtd">
<!-- Generated by graphviz version 2.43.0 (0)
 -->
<!-- Title: itk::MinPriorityQueueElementWrapper&lt; TElement, TElementPriority, TElementIdentifier &gt; Pages: 1 -->
<svg width="827pt" height="68pt"
 viewBox="0.00 0.00 827.00 67.50" xmlns="http://www.w3.org/2000/svg" xmlns:xlink="http://www.w3.org/1999/xlink">
<g id="graph0" class="graph" transform="scale(1 1) rotate(0) translate(4 63.5)">
<title>itk::MinPriorityQueueElementWrapper&lt; TElement, TElementPriority, TElementIdentifier &gt;</title>
<polygon fill="white" stroke="transparent" points="-4,4 -4,-63.5 823,-63.5 823,4 -4,4"/>
<!-- Node1 -->
<g id="node1" class="node">
<title>Node1</title>
<g id="a_node1"><a xlink:title=" ">
<polygon fill="#bfbfbf" stroke="black" points="613,-6 613,-47 819,-47 819,-6 613,-6"/>
<text text-anchor="start" x="621" y="-35" font-family="Helvetica,sans-Serif" font-size="10.00">itk::MinPriorityQueueElement</text>
<text text-anchor="start" x="621" y="-24" font-family="Helvetica,sans-Serif" font-size="10.00">Wrapper&lt; TElement, TElementPriority,</text>
<text text-anchor="middle" x="716" y="-13" font-family="Helvetica,sans-Serif" font-size="10.00"> TElementIdentifier &gt;</text>
</a>
</g>
</g>
<!-- Node2 -->
<g id="node2" class="node">
<title>Node2</title>
<g id="a_node2"><a xlink:href="classitk_1_1ElementWrapperInterface.html" target="_top" xlink:title=" ">
<polygon fill="white" stroke="black" points="382,-0.5 382,-52.5 576,-52.5 576,-0.5 382,-0.5"/>
<text text-anchor="start" x="390" y="-40.5" font-family="Helvetica,sans-Serif" font-size="10.00">itk::ElementWrapperInterface</text>
<text text-anchor="start" x="390" y="-29.5" font-family="Helvetica,sans-Serif" font-size="10.00">&lt; MinPriorityQueueElementWrapper</text>
<text text-anchor="start" x="390" y="-18.5" font-family="Helvetica,sans-Serif" font-size="10.00">&lt; TElement, double, IdentifierType</text>
<text text-anchor="middle" x="479" y="-7.5" font-family="Helvetica,sans-Serif" font-size="10.00"> &gt;, IdentifierType &gt;</text>
</a>
</g>
</g>
<!-- Node2&#45;&gt;Node1 -->
<g id="edge1" class="edge">
<title>Node2&#45;&gt;Node1</title>
<path fill="none" stroke="midnightblue" d="M586.48,-26.5C595.23,-26.5 604.06,-26.5 612.78,-26.5"/>
<polygon fill="midnightblue" stroke="midnightblue" points="586.26,-23 576.26,-26.5 586.26,-30 586.26,-23"/>
</g>
<!-- Node3 -->
<g id="node3" class="node">
<title>Node3</title>
<g id="a_node3"><a xlink:href="classitk_1_1ElementWrapperInterface.html" target="_top" xlink:title=" ">
<polygon fill="white" stroke="black" points="0,-11.5 0,-41.5 182,-41.5 182,-11.5 0,-11.5"/>
<text text-anchor="start" x="8" y="-29.5" font-family="Helvetica,sans-Serif" font-size="10.00">itk::ElementWrapperInterface</text>
<text text-anchor="middle" x="91" y="-18.5" font-family="Helvetica,sans-Serif" font-size="10.00">&lt; TElement, TElementIdentifier &gt;</text>
</a>
</g>
</g>
<!-- Node3&#45;&gt;Node2 -->
<g id="edge2" class="edge">
<title>Node3&#45;&gt;Node2</title>
<path fill="none" stroke="orange" stroke-dasharray="5,2" d="M192.37,-26.5C250.79,-26.5 324.06,-26.5 381.77,-26.5"/>
<polygon fill="orange" stroke="orange" points="192.01,-23 182.01,-26.5 192.01,-30 192.01,-23"/>
<text text-anchor="start" x="200" y="-51.5" font-family="Helvetica,sans-Serif" font-size="10.00"> &lt; MinPriorityQueueElement</text>
<text text-anchor="start" x="200" y="-40.5" font-family="Helvetica,sans-Serif" font-size="10.00">Wrapper&lt; TElement, double,</text>
<text text-anchor="middle" x="282" y="-29.5" font-family="Helvetica,sans-Serif" font-size="10.00"> IdentifierType &gt;, IdentifierType &gt;</text>
</g>
</g>
</svg>
