<?xml version="1.0" encoding="UTF-8" standalone="no"?>
<!DOCTYPE svg PUBLIC "-//W3C//DTD SVG 1.1//EN"
 "http://www.w3.org/Graphics/SVG/1.1/DTD/svg11.dtd">
<!-- Generated by graphviz version 2.43.0 (0)
 -->
<!-- Title: itk::Statistics::ManhattanDistanceMetric&lt; TVector &gt; Pages: 1 -->
<svg width="1950pt" height="236pt"
 viewBox="0.00 0.00 1950.00 236.00" xmlns="http://www.w3.org/2000/svg" xmlns:xlink="http://www.w3.org/1999/xlink">
<g id="graph0" class="graph" transform="scale(1 1) rotate(0) translate(4 232)">
<title>itk::Statistics::ManhattanDistanceMetric&lt; TVector &gt;</title>
<polygon fill="white" stroke="transparent" points="-4,4 -4,-232 1946,-232 1946,4 -4,4"/>
<!-- Node1 -->
<g id="node1" class="node">
<title>Node1</title>
<g id="a_node1"><a xlink:title="Euclidean distance function.">
<polygon fill="#bfbfbf" stroke="black" points="1793,-55 1793,-85 1942,-85 1942,-55 1793,-55"/>
<text text-anchor="start" x="1801" y="-73" font-family="Helvetica,sans-Serif" font-size="10.00">itk::Statistics::Manhattan</text>
<text text-anchor="middle" x="1867.5" y="-62" font-family="Helvetica,sans-Serif" font-size="10.00">DistanceMetric&lt; TVector &gt;</text>
</a>
</g>
</g>
<!-- Node2 -->
<g id="node2" class="node">
<title>Node2</title>
<g id="a_node2"><a xlink:href="classitk_1_1Statistics_1_1DistanceMetric.html" target="_top" xlink:title="this class declares common interfaces for distance functions.">
<polygon fill="white" stroke="black" points="1627,-55 1627,-85 1756,-85 1756,-55 1627,-55"/>
<text text-anchor="start" x="1635" y="-73" font-family="Helvetica,sans-Serif" font-size="10.00">itk::Statistics::Distance</text>
<text text-anchor="middle" x="1691.5" y="-62" font-family="Helvetica,sans-Serif" font-size="10.00">Metric&lt; TVector &gt;</text>
</a>
</g>
</g>
<!-- Node2&#45;&gt;Node1 -->
<g id="edge1" class="edge">
<title>Node2&#45;&gt;Node1</title>
<path fill="none" stroke="midnightblue" d="M1766.5,-70C1775.27,-70 1784.22,-70 1792.99,-70"/>
<polygon fill="midnightblue" stroke="midnightblue" points="1766.3,-66.5 1756.3,-70 1766.3,-73.5 1766.3,-66.5"/>
</g>
<!-- Node3 -->
<g id="node3" class="node">
<title>Node3</title>
<g id="a_node3"><a xlink:href="classitk_1_1FunctionBase.html" target="_top" xlink:title=" ">
<polygon fill="white" stroke="black" points="1430,-77 1430,-107 1539,-107 1539,-77 1430,-77"/>
<text text-anchor="start" x="1438" y="-95" font-family="Helvetica,sans-Serif" font-size="10.00">itk::FunctionBase&lt;</text>
<text text-anchor="middle" x="1484.5" y="-84" font-family="Helvetica,sans-Serif" font-size="10.00"> TVector, double &gt;</text>
</a>
</g>
</g>
<!-- Node3&#45;&gt;Node2 -->
<g id="edge2" class="edge">
<title>Node3&#45;&gt;Node2</title>
<path fill="none" stroke="midnightblue" d="M1549.07,-85.18C1573.74,-82.53 1601.95,-79.5 1626.65,-76.85"/>
<polygon fill="midnightblue" stroke="midnightblue" points="1548.66,-81.7 1539.09,-86.25 1549.41,-88.66 1548.66,-81.7"/>
</g>
<!-- Node4 -->
<g id="node4" class="node">
<title>Node4</title>
<g id="a_node4"><a xlink:href="classitk_1_1Object.html" target="_top" xlink:title="Base class for most ITK classes.">
<polygon fill="white" stroke="black" points="1033,-113.5 1033,-132.5 1100,-132.5 1100,-113.5 1033,-113.5"/>
<text text-anchor="middle" x="1066.5" y="-120.5" font-family="Helvetica,sans-Serif" font-size="10.00">itk::Object</text>
</a>
</g>
</g>
<!-- Node4&#45;&gt;Node3 -->
<g id="edge3" class="edge">
<title>Node4&#45;&gt;Node3</title>
<path fill="none" stroke="midnightblue" d="M1110.29,-123.41C1175.04,-123.48 1301.63,-121.5 1408,-107 1415.02,-106.04 1422.37,-104.84 1429.61,-103.53"/>
<polygon fill="midnightblue" stroke="midnightblue" points="1110.08,-119.91 1100.07,-123.38 1110.06,-126.91 1110.08,-119.91"/>
</g>
<!-- Node17 -->
<g id="node17" class="node">
<title>Node17</title>
<g id="a_node17"><a xlink:href="classitk_1_1FunctionBase.html" target="_top" xlink:title="Base class for all ITK function objects.">
<polygon fill="white" stroke="black" points="1172,-77 1172,-107 1281,-107 1281,-77 1172,-77"/>
<text text-anchor="start" x="1180" y="-95" font-family="Helvetica,sans-Serif" font-size="10.00">itk::FunctionBase&lt;</text>
<text text-anchor="middle" x="1226.5" y="-84" font-family="Helvetica,sans-Serif" font-size="10.00"> TInput, TOutput &gt;</text>
</a>
</g>
</g>
<!-- Node4&#45;&gt;Node17 -->
<g id="edge20" class="edge">
<title>Node4&#45;&gt;Node17</title>
<path fill="none" stroke="midnightblue" d="M1110.12,-114.64C1129.16,-110.9 1151.8,-106.46 1171.97,-102.5"/>
<polygon fill="midnightblue" stroke="midnightblue" points="1109.38,-111.22 1100.24,-116.58 1110.72,-118.09 1109.38,-111.22"/>
</g>
<!-- Node5 -->
<g id="node5" class="node">
<title>Node5</title>
<g id="a_node5"><a xlink:href="classitk_1_1LightObject.html" target="_top" xlink:title="Light weight base class for most itk classes.">
<polygon fill="white" stroke="black" points="739.5,-136.5 739.5,-155.5 830.5,-155.5 830.5,-136.5 739.5,-136.5"/>
<text text-anchor="middle" x="785" y="-143.5" font-family="Helvetica,sans-Serif" font-size="10.00">itk::LightObject</text>
</a>
</g>
</g>
<!-- Node5&#45;&gt;Node4 -->
<g id="edge4" class="edge">
<title>Node5&#45;&gt;Node4</title>
<path fill="none" stroke="midnightblue" d="M840.9,-141.48C898.07,-136.78 985.74,-129.56 1032.85,-125.69"/>
<polygon fill="midnightblue" stroke="midnightblue" points="840.28,-138.02 830.6,-142.33 840.85,-145 840.28,-138.02"/>
</g>
<!-- Node6 -->
<g id="node6" class="node">
<title>Node6</title>
<g id="a_node6"><a xlink:title=" ">
<polygon fill="white" stroke="#bfbfbf" points="457,-135.5 457,-154.5 564,-154.5 564,-135.5 457,-135.5"/>
<text text-anchor="middle" x="510.5" y="-142.5" font-family="Helvetica,sans-Serif" font-size="10.00">std::atomic&lt; int &gt;</text>
</a>
</g>
</g>
<!-- Node6&#45;&gt;Node5 -->
<g id="edge5" class="edge">
<title>Node6&#45;&gt;Node5</title>
<path fill="none" stroke="#9a32cd" stroke-dasharray="5,2" d="M574.18,-145.23C624.64,-145.42 694.33,-145.67 739.29,-145.84"/>
<polygon fill="#9a32cd" stroke="#9a32cd" points="574.05,-141.73 564.04,-145.19 574.03,-148.73 574.05,-141.73"/>
<text text-anchor="middle" x="651.5" y="-148" font-family="Helvetica,sans-Serif" font-size="10.00"> m_ReferenceCount</text>
</g>
<!-- Node7 -->
<g id="node7" class="node">
<title>Node7</title>
<g id="a_node7"><a xlink:title="STL class.">
<polygon fill="white" stroke="#bfbfbf" points="123,-132.5 123,-151.5 223,-151.5 223,-132.5 123,-132.5"/>
<text text-anchor="middle" x="173" y="-139.5" font-family="Helvetica,sans-Serif" font-size="10.00">std::atomic&lt; T &gt;</text>
</a>
</g>
</g>
<!-- Node7&#45;&gt;Node6 -->
<g id="edge6" class="edge">
<title>Node7&#45;&gt;Node6</title>
<path fill="none" stroke="orange" stroke-dasharray="5,2" d="M233.38,-142.53C296.77,-143.1 396.25,-143.99 456.9,-144.53"/>
<polygon fill="orange" stroke="orange" points="233.17,-139.03 223.14,-142.44 233.11,-146.03 233.17,-139.03"/>
<text text-anchor="middle" x="334" y="-147" font-family="Helvetica,sans-Serif" font-size="10.00"> &lt; int &gt;</text>
</g>
<!-- Node16 -->
<g id="node16" class="node">
<title>Node16</title>
<g id="a_node16"><a xlink:href="classitk_1_1TimeStamp.html" target="_top" xlink:title="Generate a unique, increasing time value.">
<polygon fill="white" stroke="black" points="605.5,-97.5 605.5,-116.5 697.5,-116.5 697.5,-97.5 605.5,-97.5"/>
<text text-anchor="middle" x="651.5" y="-104.5" font-family="Helvetica,sans-Serif" font-size="10.00">itk::TimeStamp</text>
</a>
</g>
</g>
<!-- Node7&#45;&gt;Node16 -->
<g id="edge18" class="edge">
<title>Node7&#45;&gt;Node16</title>
<path fill="none" stroke="#9a32cd" stroke-dasharray="5,2" d="M226.31,-130.64C234.22,-129.23 242.3,-127.95 250,-127 378.18,-111.24 530.88,-107.82 605.27,-107.13"/>
<polygon fill="#9a32cd" stroke="#9a32cd" points="225.62,-127.21 216.43,-132.5 226.91,-134.09 225.62,-127.21"/>
<text text-anchor="middle" x="334" y="-130" font-family="Helvetica,sans-Serif" font-size="10.00"> m_GlobalTimeStamp</text>
</g>
<!-- Node8 -->
<g id="node8" class="node">
<title>Node8</title>
<g id="a_node8"><a xlink:title=" ">
<polygon fill="white" stroke="#bfbfbf" points="0,-171.5 0,-190.5 29,-190.5 29,-171.5 0,-171.5"/>
<text text-anchor="middle" x="14.5" y="-178.5" font-family="Helvetica,sans-Serif" font-size="10.00">T</text>
</a>
</g>
</g>
<!-- Node8&#45;&gt;Node7 -->
<g id="edge7" class="edge">
<title>Node8&#45;&gt;Node7</title>
<path fill="none" stroke="#9a32cd" stroke-dasharray="5,2" d="M38.44,-168.4C41.27,-167.13 44.17,-165.96 47,-165 71.35,-156.77 99.43,-151.27 122.79,-147.71"/>
<polygon fill="#9a32cd" stroke="#9a32cd" points="36.66,-165.38 29.24,-172.94 39.75,-171.66 36.66,-165.38"/>
<text text-anchor="middle" x="71.5" y="-168" font-family="Helvetica,sans-Serif" font-size="10.00"> ptr</text>
</g>
<!-- Node13 -->
<g id="node13" class="node">
<title>Node13</title>
<g id="a_node13"><a xlink:title="STL class.">
<polygon fill="white" stroke="#bfbfbf" points="122.5,-170.5 122.5,-189.5 223.5,-189.5 223.5,-170.5 122.5,-170.5"/>
<text text-anchor="middle" x="173" y="-177.5" font-family="Helvetica,sans-Serif" font-size="10.00">std::map&lt; K, T &gt;</text>
</a>
</g>
</g>
<!-- Node8&#45;&gt;Node13 -->
<g id="edge14" class="edge">
<title>Node8&#45;&gt;Node13</title>
<path fill="none" stroke="#9a32cd" stroke-dasharray="5,2" d="M39.19,-180.85C61.16,-180.71 94.54,-180.49 122.35,-180.32"/>
<polygon fill="#9a32cd" stroke="#9a32cd" points="39.09,-177.35 29.11,-180.91 39.14,-184.35 39.09,-177.35"/>
<text text-anchor="middle" x="71.5" y="-183" font-family="Helvetica,sans-Serif" font-size="10.00"> elements</text>
</g>
<!-- Node15 -->
<g id="node15" class="node">
<title>Node15</title>
<g id="a_node15"><a xlink:title="STL class.">
<polygon fill="white" stroke="#bfbfbf" points="114,-208.5 114,-227.5 232,-227.5 232,-208.5 114,-208.5"/>
<text text-anchor="middle" x="173" y="-215.5" font-family="Helvetica,sans-Serif" font-size="10.00">std::shared_ptr&lt; T &gt;</text>
</a>
</g>
</g>
<!-- Node8&#45;&gt;Node15 -->
<g id="edge16" class="edge">
<title>Node8&#45;&gt;Node15</title>
<path fill="none" stroke="#9a32cd" stroke-dasharray="5,2" d="M38.37,-191.91C41.23,-193.06 44.16,-194.12 47,-195 68.4,-201.62 92.48,-206.61 113.75,-210.21"/>
<polygon fill="#9a32cd" stroke="#9a32cd" points="39.6,-188.63 29.03,-187.86 36.81,-195.05 39.6,-188.63"/>
<text text-anchor="middle" x="71.5" y="-209" font-family="Helvetica,sans-Serif" font-size="10.00"> ptr</text>
</g>
<!-- Node9 -->
<g id="node9" class="node">
<title>Node9</title>
<g id="a_node9"><a xlink:title="STL class.">
<polygon fill="white" stroke="#bfbfbf" points="752.5,-51.5 752.5,-70.5 817.5,-70.5 817.5,-51.5 752.5,-51.5"/>
<text text-anchor="middle" x="785" y="-58.5" font-family="Helvetica,sans-Serif" font-size="10.00">std::string</text>
</a>
</g>
</g>
<!-- Node9&#45;&gt;Node4 -->
<g id="edge8" class="edge">
<title>Node9&#45;&gt;Node4</title>
<path fill="none" stroke="#9a32cd" stroke-dasharray="5,2" d="M827.94,-60.83C869.24,-61.72 933.69,-65.93 987,-82 1010.85,-89.19 1035.95,-103.7 1051.17,-113.38"/>
<polygon fill="#9a32cd" stroke="#9a32cd" points="827.76,-57.33 817.71,-60.67 827.65,-64.33 827.76,-57.33"/>
<text text-anchor="middle" x="928.5" y="-85" font-family="Helvetica,sans-Serif" font-size="10.00"> m_ObjectName</text>
</g>
<!-- Node10 -->
<g id="node10" class="node">
<title>Node10</title>
<g id="a_node10"><a xlink:title="STL class.">
<polygon fill="white" stroke="#bfbfbf" points="458.5,-46 458.5,-76 562.5,-76 562.5,-46 458.5,-46"/>
<text text-anchor="start" x="466.5" y="-64" font-family="Helvetica,sans-Serif" font-size="10.00">std::basic_string&lt;</text>
<text text-anchor="middle" x="510.5" y="-53" font-family="Helvetica,sans-Serif" font-size="10.00"> char &gt;</text>
</a>
</g>
</g>
<!-- Node10&#45;&gt;Node9 -->
<g id="edge9" class="edge">
<title>Node10&#45;&gt;Node9</title>
<path fill="none" stroke="midnightblue" d="M572.85,-61C628.49,-61 708.3,-61 752.14,-61"/>
<polygon fill="midnightblue" stroke="midnightblue" points="572.76,-57.5 562.76,-61 572.76,-64.5 572.76,-57.5"/>
</g>
<!-- Node11 -->
<g id="node11" class="node">
<title>Node11</title>
<g id="a_node11"><a xlink:href="classitk_1_1MetaDataDictionary.html" target="_top" xlink:title="Provides a mechanism for storing a collection of arbitrary data types.">
<polygon fill="white" stroke="black" points="718,-176.5 718,-195.5 852,-195.5 852,-176.5 718,-176.5"/>
<text text-anchor="middle" x="785" y="-183.5" font-family="Helvetica,sans-Serif" font-size="10.00">itk::MetaDataDictionary</text>
</a>
</g>
</g>
<!-- Node11&#45;&gt;Node4 -->
<g id="edge10" class="edge">
<title>Node11&#45;&gt;Node4</title>
<path fill="none" stroke="#9a32cd" stroke-dasharray="5,2" d="M860.31,-174.83C898.46,-168.47 945.51,-159.64 987,-149 1004.8,-144.44 1024.43,-137.94 1039.6,-132.58"/>
<polygon fill="#9a32cd" stroke="#9a32cd" points="859.61,-171.4 850.31,-176.48 860.74,-178.31 859.61,-171.4"/>
<text text-anchor="middle" x="928.5" y="-175" font-family="Helvetica,sans-Serif" font-size="10.00"> m_MetaDataDictionary</text>
</g>
<!-- Node12 -->
<g id="node12" class="node">
<title>Node12</title>
<g id="a_node12"><a xlink:title=" ">
<polygon fill="white" stroke="#bfbfbf" points="436,-174 436,-204 585,-204 585,-174 436,-174"/>
<text text-anchor="start" x="444" y="-192" font-family="Helvetica,sans-Serif" font-size="10.00">std::shared_ptr&lt; MetaData</text>
<text text-anchor="middle" x="510.5" y="-181" font-family="Helvetica,sans-Serif" font-size="10.00">DictionaryMapType &gt;</text>
</a>
</g>
</g>
<!-- Node12&#45;&gt;Node11 -->
<g id="edge11" class="edge">
<title>Node12&#45;&gt;Node11</title>
<path fill="none" stroke="#9a32cd" stroke-dasharray="5,2" d="M595.34,-188.08C634.65,-187.64 680.82,-187.14 717.65,-186.73"/>
<polygon fill="#9a32cd" stroke="#9a32cd" points="595.2,-184.58 585.24,-188.19 595.28,-191.58 595.2,-184.58"/>
<text text-anchor="middle" x="651.5" y="-190" font-family="Helvetica,sans-Serif" font-size="10.00"> m_Dictionary</text>
</g>
<!-- Node13&#45;&gt;Node12 -->
<g id="edge12" class="edge">
<title>Node13&#45;&gt;Node12</title>
<path fill="none" stroke="#9a32cd" stroke-dasharray="5,2" d="M233.74,-180.34C283.15,-180.78 355.15,-181.77 418,-184 423.72,-184.2 429.65,-184.45 435.6,-184.72"/>
<polygon fill="#9a32cd" stroke="#9a32cd" points="233.58,-176.84 223.55,-180.26 233.52,-183.84 233.58,-176.84"/>
<text text-anchor="middle" x="334" y="-187" font-family="Helvetica,sans-Serif" font-size="10.00"> ptr</text>
</g>
<!-- Node14 -->
<g id="node14" class="node">
<title>Node14</title>
<g id="a_node14"><a xlink:title=" ">
<polygon fill="white" stroke="#bfbfbf" points="0,-103.5 0,-122.5 29,-122.5 29,-103.5 0,-103.5"/>
<text text-anchor="middle" x="14.5" y="-110.5" font-family="Helvetica,sans-Serif" font-size="10.00">K</text>
</a>
</g>
</g>
<!-- Node14&#45;&gt;Node13 -->
<g id="edge13" class="edge">
<title>Node14&#45;&gt;Node13</title>
<path fill="none" stroke="#9a32cd" stroke-dasharray="5,2" d="M39.39,-116.06C56.39,-119.15 79.12,-125.24 96,-137 106.94,-144.62 103.16,-153.23 114,-161 119.34,-164.83 125.49,-167.92 131.76,-170.4"/>
<polygon fill="#9a32cd" stroke="#9a32cd" points="39.59,-112.54 29.17,-114.42 38.49,-119.46 39.59,-112.54"/>
<text text-anchor="middle" x="71.5" y="-140" font-family="Helvetica,sans-Serif" font-size="10.00"> keys</text>
</g>
<!-- Node15&#45;&gt;Node12 -->
<g id="edge15" class="edge">
<title>Node15&#45;&gt;Node12</title>
<path fill="none" stroke="orange" stroke-dasharray="5,2" d="M242.27,-212.1C298.5,-207.24 378.06,-200.36 435.74,-195.38"/>
<polygon fill="orange" stroke="orange" points="241.72,-208.63 232.06,-212.98 242.32,-215.61 241.72,-208.63"/>
<text text-anchor="middle" x="334" y="-213" font-family="Helvetica,sans-Serif" font-size="10.00"> &lt; MetaDataDictionaryMapType &gt;</text>
</g>
<!-- Node16&#45;&gt;Node4 -->
<g id="edge17" class="edge">
<title>Node16&#45;&gt;Node4</title>
<path fill="none" stroke="#9a32cd" stroke-dasharray="5,2" d="M708.13,-109.16C795.52,-112.54 962.24,-119 1032.73,-121.73"/>
<polygon fill="#9a32cd" stroke="#9a32cd" points="708.01,-105.65 697.88,-108.76 707.74,-112.64 708.01,-105.65"/>
<text text-anchor="middle" x="785" y="-118" font-family="Helvetica,sans-Serif" font-size="10.00"> m_MTime</text>
</g>
<!-- Node17&#45;&gt;Node3 -->
<g id="edge19" class="edge">
<title>Node17&#45;&gt;Node3</title>
<path fill="none" stroke="orange" stroke-dasharray="5,2" d="M1291.17,-92C1333.87,-92 1389.47,-92 1429.9,-92"/>
<polygon fill="orange" stroke="orange" points="1291.17,-88.5 1281.17,-92 1291.17,-95.5 1291.17,-88.5"/>
<text text-anchor="middle" x="1357" y="-95" font-family="Helvetica,sans-Serif" font-size="10.00"> &lt; TVector, double &gt;</text>
</g>
<!-- Node18 -->
<g id="node18" class="node">
<title>Node18</title>
<g id="a_node18"><a xlink:href="classitk_1_1Array.html" target="_top" xlink:title=" ">
<polygon fill="white" stroke="black" points="1426,-38.5 1426,-57.5 1543,-57.5 1543,-38.5 1426,-38.5"/>
<text text-anchor="middle" x="1484.5" y="-45.5" font-family="Helvetica,sans-Serif" font-size="10.00">itk::Array&lt; double &gt;</text>
</a>
</g>
</g>
<!-- Node18&#45;&gt;Node2 -->
<g id="edge21" class="edge">
<title>Node18&#45;&gt;Node2</title>
<path fill="none" stroke="#9a32cd" stroke-dasharray="5,2" d="M1553.13,-55.26C1576.86,-57.8 1603.41,-60.65 1626.81,-63.16"/>
<polygon fill="#9a32cd" stroke="#9a32cd" points="1553.47,-51.77 1543.15,-54.19 1552.72,-58.73 1553.47,-51.77"/>
<text text-anchor="middle" x="1585" y="-64" font-family="Helvetica,sans-Serif" font-size="10.00"> m_Origin</text>
</g>
<!-- Node19 -->
<g id="node19" class="node">
<title>Node19</title>
<g id="a_node19"><a xlink:title=" ">
<polygon fill="white" stroke="#bfbfbf" points="1165,-38.5 1165,-57.5 1288,-57.5 1288,-38.5 1165,-38.5"/>
<text text-anchor="middle" x="1226.5" y="-45.5" font-family="Helvetica,sans-Serif" font-size="10.00">vnl_vector&lt; double &gt;</text>
</a>
</g>
</g>
<!-- Node19&#45;&gt;Node18 -->
<g id="edge22" class="edge">
<title>Node19&#45;&gt;Node18</title>
<path fill="none" stroke="midnightblue" d="M1298.17,-48C1338.38,-48 1388.09,-48 1425.9,-48"/>
<polygon fill="midnightblue" stroke="midnightblue" points="1298.17,-44.5 1288.17,-48 1298.17,-51.5 1298.17,-44.5"/>
</g>
<!-- Node20 -->
<g id="node20" class="node">
<title>Node20</title>
<g id="a_node20"><a xlink:href="classitk_1_1Array.html" target="_top" xlink:title="Array class with size defined at construction time.">
<polygon fill="white" stroke="black" points="1168,-0.5 1168,-19.5 1285,-19.5 1285,-0.5 1168,-0.5"/>
<text text-anchor="middle" x="1226.5" y="-7.5" font-family="Helvetica,sans-Serif" font-size="10.00">itk::Array&lt; TValue &gt;</text>
</a>
</g>
</g>
<!-- Node20&#45;&gt;Node18 -->
<g id="edge23" class="edge">
<title>Node20&#45;&gt;Node18</title>
<path fill="none" stroke="orange" stroke-dasharray="5,2" d="M1295.61,-17.55C1329.48,-21.59 1370.98,-26.97 1408,-33 1417.76,-34.59 1428.19,-36.51 1438.08,-38.45"/>
<polygon fill="orange" stroke="orange" points="1295.7,-14.03 1285.36,-16.34 1294.88,-20.99 1295.7,-14.03"/>
<text text-anchor="middle" x="1357" y="-36" font-family="Helvetica,sans-Serif" font-size="10.00"> &lt; double &gt;</text>
</g>
<!-- Node21 -->
<g id="node21" class="node">
<title>Node21</title>
<g id="a_node21"><a xlink:title=" ">
<polygon fill="white" stroke="#bfbfbf" points="1005,-0.5 1005,-19.5 1128,-19.5 1128,-0.5 1005,-0.5"/>
<text text-anchor="middle" x="1066.5" y="-7.5" font-family="Helvetica,sans-Serif" font-size="10.00">vnl_vector&lt; TValue &gt;</text>
</a>
</g>
</g>
<!-- Node21&#45;&gt;Node20 -->
<g id="edge24" class="edge">
<title>Node21&#45;&gt;Node20</title>
<path fill="none" stroke="midnightblue" d="M1138.35,-10C1148.23,-10 1158.29,-10 1167.89,-10"/>
<polygon fill="midnightblue" stroke="midnightblue" points="1138.14,-6.5 1128.14,-10 1138.14,-13.5 1138.14,-6.5"/>
</g>
</g>
</svg>
