<?xml version="1.0" encoding="UTF-8" standalone="no"?>
<!DOCTYPE svg PUBLIC "-//W3C//DTD SVG 1.1//EN"
 "http://www.w3.org/Graphics/SVG/1.1/DTD/svg11.dtd">
<!-- Generated by graphviz version 2.43.0 (0)
 -->
<!-- Title: itk::DOMReader&lt; TOutput &gt; Pages: 1 -->
<svg width="1414pt" height="219pt"
 viewBox="0.00 0.00 1414.00 218.50" xmlns="http://www.w3.org/2000/svg" xmlns:xlink="http://www.w3.org/1999/xlink">
<g id="graph0" class="graph" transform="scale(1 1) rotate(0) translate(4 214.5)">
<title>itk::DOMReader&lt; TOutput &gt;</title>
<polygon fill="white" stroke="transparent" points="-4,4 -4,-214.5 1410,-214.5 1410,4 -4,4"/>
<!-- Node1 -->
<g id="node1" class="node">
<title>Node1</title>
<g id="a_node1"><a xlink:title="Class to read an ITK object from an XML file or a DOM object, using the DOM APIs.">
<polygon fill="#bfbfbf" stroke="black" points="1251,-113.5 1251,-132.5 1406,-132.5 1406,-113.5 1251,-113.5"/>
<text text-anchor="middle" x="1328.5" y="-120.5" font-family="Helvetica,sans-Serif" font-size="10.00">itk::DOMReader&lt; TOutput &gt;</text>
</a>
</g>
</g>
<!-- Node2 -->
<g id="node2" class="node">
<title>Node2</title>
<g id="a_node2"><a xlink:href="classitk_1_1Object.html" target="_top" xlink:title="Base class for most ITK classes.">
<polygon fill="white" stroke="black" points="1025,-113.5 1025,-132.5 1092,-132.5 1092,-113.5 1025,-113.5"/>
<text text-anchor="middle" x="1058.5" y="-120.5" font-family="Helvetica,sans-Serif" font-size="10.00">itk::Object</text>
</a>
</g>
</g>
<!-- Node2&#45;&gt;Node1 -->
<g id="edge1" class="edge">
<title>Node2&#45;&gt;Node1</title>
<path fill="none" stroke="midnightblue" d="M1102.28,-123C1142.2,-123 1202.68,-123 1250.92,-123"/>
<polygon fill="midnightblue" stroke="midnightblue" points="1102.09,-119.5 1092.09,-123 1102.09,-126.5 1102.09,-119.5"/>
</g>
<!-- Node3 -->
<g id="node3" class="node">
<title>Node3</title>
<g id="a_node3"><a xlink:href="classitk_1_1LightObject.html" target="_top" xlink:title="Light weight base class for most itk classes.">
<polygon fill="white" stroke="black" points="739.5,-140.5 739.5,-159.5 830.5,-159.5 830.5,-140.5 739.5,-140.5"/>
<text text-anchor="middle" x="785" y="-147.5" font-family="Helvetica,sans-Serif" font-size="10.00">itk::LightObject</text>
</a>
</g>
</g>
<!-- Node3&#45;&gt;Node2 -->
<g id="edge2" class="edge">
<title>Node3&#45;&gt;Node2</title>
<path fill="none" stroke="midnightblue" d="M840.49,-144.58C895.69,-139.09 979.24,-130.78 1024.9,-126.24"/>
<polygon fill="midnightblue" stroke="midnightblue" points="840.13,-141.1 830.53,-145.57 840.83,-148.06 840.13,-141.1"/>
</g>
<!-- Node4 -->
<g id="node4" class="node">
<title>Node4</title>
<g id="a_node4"><a xlink:title=" ">
<polygon fill="white" stroke="#bfbfbf" points="457,-140.5 457,-159.5 564,-159.5 564,-140.5 457,-140.5"/>
<text text-anchor="middle" x="510.5" y="-147.5" font-family="Helvetica,sans-Serif" font-size="10.00">std::atomic&lt; int &gt;</text>
</a>
</g>
</g>
<!-- Node4&#45;&gt;Node3 -->
<g id="edge3" class="edge">
<title>Node4&#45;&gt;Node3</title>
<path fill="none" stroke="#9a32cd" stroke-dasharray="5,2" d="M574.18,-150C624.64,-150 694.33,-150 739.29,-150"/>
<polygon fill="#9a32cd" stroke="#9a32cd" points="574.04,-146.5 564.04,-150 574.04,-153.5 574.04,-146.5"/>
<text text-anchor="middle" x="651.5" y="-153" font-family="Helvetica,sans-Serif" font-size="10.00"> m_ReferenceCount</text>
</g>
<!-- Node5 -->
<g id="node5" class="node">
<title>Node5</title>
<g id="a_node5"><a xlink:title="STL class.">
<polygon fill="white" stroke="#bfbfbf" points="123,-105.5 123,-124.5 223,-124.5 223,-105.5 123,-105.5"/>
<text text-anchor="middle" x="173" y="-112.5" font-family="Helvetica,sans-Serif" font-size="10.00">std::atomic&lt; T &gt;</text>
</a>
</g>
</g>
<!-- Node5&#45;&gt;Node4 -->
<g id="edge4" class="edge">
<title>Node5&#45;&gt;Node4</title>
<path fill="none" stroke="orange" stroke-dasharray="5,2" d="M233.19,-123.87C238.86,-124.63 244.54,-125.35 250,-126 321.44,-134.47 404.24,-141.68 456.73,-145.92"/>
<polygon fill="orange" stroke="orange" points="233.39,-120.36 223.01,-122.47 232.44,-127.3 233.39,-120.36"/>
<text text-anchor="middle" x="334" y="-146" font-family="Helvetica,sans-Serif" font-size="10.00"> &lt; int &gt;</text>
</g>
<!-- Node14 -->
<g id="node14" class="node">
<title>Node14</title>
<g id="a_node14"><a xlink:href="classitk_1_1TimeStamp.html" target="_top" xlink:title="Generate a unique, increasing time value.">
<polygon fill="white" stroke="black" points="605.5,-102.5 605.5,-121.5 697.5,-121.5 697.5,-102.5 605.5,-102.5"/>
<text text-anchor="middle" x="651.5" y="-109.5" font-family="Helvetica,sans-Serif" font-size="10.00">itk::TimeStamp</text>
</a>
</g>
</g>
<!-- Node5&#45;&gt;Node14 -->
<g id="edge16" class="edge">
<title>Node5&#45;&gt;Node14</title>
<path fill="none" stroke="#9a32cd" stroke-dasharray="5,2" d="M233.21,-111.58C238.89,-111.34 244.55,-111.14 250,-111 378.94,-107.61 531.3,-109.66 605.44,-111.04"/>
<polygon fill="#9a32cd" stroke="#9a32cd" points="232.88,-108.09 223.04,-112.04 233.19,-115.09 232.88,-108.09"/>
<text text-anchor="middle" x="334" y="-114" font-family="Helvetica,sans-Serif" font-size="10.00"> m_GlobalTimeStamp</text>
</g>
<!-- Node6 -->
<g id="node6" class="node">
<title>Node6</title>
<g id="a_node6"><a xlink:title=" ">
<polygon fill="white" stroke="#bfbfbf" points="0,-68.5 0,-87.5 29,-87.5 29,-68.5 0,-68.5"/>
<text text-anchor="middle" x="14.5" y="-75.5" font-family="Helvetica,sans-Serif" font-size="10.00">T</text>
</a>
</g>
</g>
<!-- Node6&#45;&gt;Node5 -->
<g id="edge5" class="edge">
<title>Node6&#45;&gt;Node5</title>
<path fill="none" stroke="#9a32cd" stroke-dasharray="5,2" d="M38.37,-88.91C41.23,-90.06 44.16,-91.12 47,-92 71.56,-99.6 99.65,-105.05 122.98,-108.72"/>
<polygon fill="#9a32cd" stroke="#9a32cd" points="39.6,-85.63 29.03,-84.86 36.81,-92.05 39.6,-85.63"/>
<text text-anchor="middle" x="71.5" y="-107" font-family="Helvetica,sans-Serif" font-size="10.00"> ptr</text>
</g>
<!-- Node11 -->
<g id="node11" class="node">
<title>Node11</title>
<g id="a_node11"><a xlink:title="STL class.">
<polygon fill="white" stroke="#bfbfbf" points="122.5,-67.5 122.5,-86.5 223.5,-86.5 223.5,-67.5 122.5,-67.5"/>
<text text-anchor="middle" x="173" y="-74.5" font-family="Helvetica,sans-Serif" font-size="10.00">std::map&lt; K, T &gt;</text>
</a>
</g>
</g>
<!-- Node6&#45;&gt;Node11 -->
<g id="edge12" class="edge">
<title>Node6&#45;&gt;Node11</title>
<path fill="none" stroke="#9a32cd" stroke-dasharray="5,2" d="M39.19,-77.85C61.16,-77.71 94.54,-77.49 122.35,-77.32"/>
<polygon fill="#9a32cd" stroke="#9a32cd" points="39.09,-74.35 29.11,-77.91 39.14,-81.35 39.09,-74.35"/>
<text text-anchor="middle" x="71.5" y="-81" font-family="Helvetica,sans-Serif" font-size="10.00"> elements</text>
</g>
<!-- Node13 -->
<g id="node13" class="node">
<title>Node13</title>
<g id="a_node13"><a xlink:title="STL class.">
<polygon fill="white" stroke="#bfbfbf" points="114,-29.5 114,-48.5 232,-48.5 232,-29.5 114,-29.5"/>
<text text-anchor="middle" x="173" y="-36.5" font-family="Helvetica,sans-Serif" font-size="10.00">std::shared_ptr&lt; T &gt;</text>
</a>
</g>
</g>
<!-- Node6&#45;&gt;Node13 -->
<g id="edge14" class="edge">
<title>Node6&#45;&gt;Node13</title>
<path fill="none" stroke="#9a32cd" stroke-dasharray="5,2" d="M38.49,-66.23C41.31,-65.03 44.19,-63.92 47,-63 68.42,-55.97 92.61,-50.74 113.97,-46.98"/>
<polygon fill="#9a32cd" stroke="#9a32cd" points="36.9,-63.11 29.3,-70.49 39.84,-69.47 36.9,-63.11"/>
<text text-anchor="middle" x="71.5" y="-66" font-family="Helvetica,sans-Serif" font-size="10.00"> ptr</text>
</g>
<!-- Node7 -->
<g id="node7" class="node">
<title>Node7</title>
<g id="a_node7"><a xlink:title="STL class.">
<polygon fill="white" stroke="#bfbfbf" points="752.5,-185.5 752.5,-204.5 817.5,-204.5 817.5,-185.5 752.5,-185.5"/>
<text text-anchor="middle" x="785" y="-192.5" font-family="Helvetica,sans-Serif" font-size="10.00">std::string</text>
</a>
</g>
</g>
<!-- Node7&#45;&gt;Node1 -->
<g id="edge19" class="edge">
<title>Node7&#45;&gt;Node1</title>
<path fill="none" stroke="#9a32cd" stroke-dasharray="5,2" d="M827.87,-193.3C868.61,-191.35 932.2,-187.56 987,-181 1092.54,-168.37 1215.16,-145.42 1280.62,-132.5"/>
<polygon fill="#9a32cd" stroke="#9a32cd" points="827.6,-189.8 817.77,-193.76 827.92,-196.8 827.6,-189.8"/>
<text text-anchor="middle" x="1058.5" y="-181" font-family="Helvetica,sans-Serif" font-size="10.00"> m_FileName</text>
</g>
<!-- Node7&#45;&gt;Node2 -->
<g id="edge6" class="edge">
<title>Node7&#45;&gt;Node2</title>
<path fill="none" stroke="#9a32cd" stroke-dasharray="5,2" d="M825.54,-182.39C839.51,-178.16 855.38,-173.6 870,-170 921.45,-157.32 935.8,-160.68 987,-147 1002.11,-142.96 1018.69,-137.38 1031.97,-132.61"/>
<polygon fill="#9a32cd" stroke="#9a32cd" points="824.28,-179.11 815.75,-185.4 826.33,-185.81 824.28,-179.11"/>
<text text-anchor="middle" x="928.5" y="-173" font-family="Helvetica,sans-Serif" font-size="10.00"> m_ObjectName</text>
</g>
<!-- Node8 -->
<g id="node8" class="node">
<title>Node8</title>
<g id="a_node8"><a xlink:title="STL class.">
<polygon fill="white" stroke="#bfbfbf" points="458.5,-180 458.5,-210 562.5,-210 562.5,-180 458.5,-180"/>
<text text-anchor="start" x="466.5" y="-198" font-family="Helvetica,sans-Serif" font-size="10.00">std::basic_string&lt;</text>
<text text-anchor="middle" x="510.5" y="-187" font-family="Helvetica,sans-Serif" font-size="10.00"> char &gt;</text>
</a>
</g>
</g>
<!-- Node8&#45;&gt;Node7 -->
<g id="edge7" class="edge">
<title>Node8&#45;&gt;Node7</title>
<path fill="none" stroke="midnightblue" d="M572.85,-195C628.49,-195 708.3,-195 752.14,-195"/>
<polygon fill="midnightblue" stroke="midnightblue" points="572.76,-191.5 562.76,-195 572.76,-198.5 572.76,-191.5"/>
</g>
<!-- Node9 -->
<g id="node9" class="node">
<title>Node9</title>
<g id="a_node9"><a xlink:href="classitk_1_1MetaDataDictionary.html" target="_top" xlink:title="Provides a mechanism for storing a collection of arbitrary data types.">
<polygon fill="white" stroke="black" points="718,-55.5 718,-74.5 852,-74.5 852,-55.5 718,-55.5"/>
<text text-anchor="middle" x="785" y="-62.5" font-family="Helvetica,sans-Serif" font-size="10.00">itk::MetaDataDictionary</text>
</a>
</g>
</g>
<!-- Node9&#45;&gt;Node2 -->
<g id="edge8" class="edge">
<title>Node9&#45;&gt;Node2</title>
<path fill="none" stroke="#9a32cd" stroke-dasharray="5,2" d="M862.42,-66.2C900.53,-68.49 946.92,-73.88 987,-86 1007.77,-92.28 1029.58,-104.78 1043.34,-113.5"/>
<polygon fill="#9a32cd" stroke="#9a32cd" points="862.59,-62.71 852.42,-65.66 862.21,-69.69 862.59,-62.71"/>
<text text-anchor="middle" x="928.5" y="-89" font-family="Helvetica,sans-Serif" font-size="10.00"> m_MetaDataDictionary</text>
</g>
<!-- Node10 -->
<g id="node10" class="node">
<title>Node10</title>
<g id="a_node10"><a xlink:title=" ">
<polygon fill="white" stroke="#bfbfbf" points="436,-50 436,-80 585,-80 585,-50 436,-50"/>
<text text-anchor="start" x="444" y="-68" font-family="Helvetica,sans-Serif" font-size="10.00">std::shared_ptr&lt; MetaData</text>
<text text-anchor="middle" x="510.5" y="-57" font-family="Helvetica,sans-Serif" font-size="10.00">DictionaryMapType &gt;</text>
</a>
</g>
</g>
<!-- Node10&#45;&gt;Node9 -->
<g id="edge9" class="edge">
<title>Node10&#45;&gt;Node9</title>
<path fill="none" stroke="#9a32cd" stroke-dasharray="5,2" d="M595.34,-65C634.65,-65 680.82,-65 717.65,-65"/>
<polygon fill="#9a32cd" stroke="#9a32cd" points="595.24,-61.5 585.24,-65 595.24,-68.5 595.24,-61.5"/>
<text text-anchor="middle" x="651.5" y="-68" font-family="Helvetica,sans-Serif" font-size="10.00"> m_Dictionary</text>
</g>
<!-- Node11&#45;&gt;Node10 -->
<g id="edge10" class="edge">
<title>Node11&#45;&gt;Node10</title>
<path fill="none" stroke="#9a32cd" stroke-dasharray="5,2" d="M233.71,-74.86C290.23,-72.84 375.21,-69.8 435.9,-67.63"/>
<polygon fill="#9a32cd" stroke="#9a32cd" points="233.37,-71.37 223.5,-75.23 233.62,-78.37 233.37,-71.37"/>
<text text-anchor="middle" x="334" y="-78" font-family="Helvetica,sans-Serif" font-size="10.00"> ptr</text>
</g>
<!-- Node12 -->
<g id="node12" class="node">
<title>Node12</title>
<g id="a_node12"><a xlink:title=" ">
<polygon fill="white" stroke="#bfbfbf" points="0,-0.5 0,-19.5 29,-19.5 29,-0.5 0,-0.5"/>
<text text-anchor="middle" x="14.5" y="-7.5" font-family="Helvetica,sans-Serif" font-size="10.00">K</text>
</a>
</g>
</g>
<!-- Node12&#45;&gt;Node11 -->
<g id="edge11" class="edge">
<title>Node12&#45;&gt;Node11</title>
<path fill="none" stroke="#9a32cd" stroke-dasharray="5,2" d="M39.25,-13.95C56.18,-17.62 78.88,-24.32 96,-36 106.44,-43.12 103.58,-50.86 114,-58 119.59,-61.83 126.02,-64.94 132.5,-67.44"/>
<polygon fill="#9a32cd" stroke="#9a32cd" points="39.56,-10.45 29.07,-11.96 38.22,-17.32 39.56,-10.45"/>
<text text-anchor="middle" x="71.5" y="-39" font-family="Helvetica,sans-Serif" font-size="10.00"> keys</text>
</g>
<!-- Node13&#45;&gt;Node10 -->
<g id="edge13" class="edge">
<title>Node13&#45;&gt;Node10</title>
<path fill="none" stroke="orange" stroke-dasharray="5,2" d="M242.4,-42.14C291.36,-44.64 358.81,-48.63 418,-54 423.74,-54.52 429.67,-55.11 435.63,-55.75"/>
<polygon fill="orange" stroke="orange" points="242.41,-38.63 232.25,-41.63 242.06,-45.62 242.41,-38.63"/>
<text text-anchor="middle" x="334" y="-57" font-family="Helvetica,sans-Serif" font-size="10.00"> &lt; MetaDataDictionaryMapType &gt;</text>
</g>
<!-- Node14&#45;&gt;Node2 -->
<g id="edge15" class="edge">
<title>Node14&#45;&gt;Node2</title>
<path fill="none" stroke="#9a32cd" stroke-dasharray="5,2" d="M707.85,-113.5C793.59,-115.83 955.84,-120.24 1024.97,-122.12"/>
<polygon fill="#9a32cd" stroke="#9a32cd" points="707.87,-110 697.78,-113.23 707.68,-117 707.87,-110"/>
<text text-anchor="middle" x="785" y="-121" font-family="Helvetica,sans-Serif" font-size="10.00"> m_MTime</text>
</g>
<!-- Node15 -->
<g id="node15" class="node">
<title>Node15</title>
<g id="a_node15"><a xlink:href="classitk_1_1SmartPointer.html" target="_top" xlink:title=" ">
<polygon fill="white" stroke="black" points="1005,-29 1005,-59 1112,-59 1112,-29 1005,-29"/>
<text text-anchor="start" x="1013" y="-47" font-family="Helvetica,sans-Serif" font-size="10.00">itk::SmartPointer&lt;</text>
<text text-anchor="middle" x="1058.5" y="-36" font-family="Helvetica,sans-Serif" font-size="10.00"> Self &gt;</text>
</a>
</g>
</g>
<!-- Node15&#45;&gt;Node1 -->
<g id="edge17" class="edge">
<title>Node15&#45;&gt;Node1</title>
<path fill="none" stroke="#9a32cd" stroke-dasharray="5,2" d="M1122.06,-56.99C1155.31,-64.43 1196.7,-74.56 1233,-86 1258.37,-94 1286.69,-105.43 1305.65,-113.47"/>
<polygon fill="#9a32cd" stroke="#9a32cd" points="1122.53,-53.51 1112.01,-54.77 1121.02,-60.34 1122.53,-53.51"/>
<text text-anchor="middle" x="1181.5" y="-111" font-family="Helvetica,sans-Serif" font-size="10.00"> m_Logger</text>
<text text-anchor="middle" x="1181.5" y="-100" font-family="Helvetica,sans-Serif" font-size="10.00">m_OutputHolder</text>
<text text-anchor="middle" x="1181.5" y="-89" font-family="Helvetica,sans-Serif" font-size="10.00">m_IntermediateDOM</text>
</g>
<!-- Node16 -->
<g id="node16" class="node">
<title>Node16</title>
<g id="a_node16"><a xlink:href="classitk_1_1SmartPointer.html" target="_top" xlink:title="Implements transparent reference counting.">
<polygon fill="white" stroke="black" points="731.5,-6 731.5,-36 838.5,-36 838.5,-6 731.5,-6"/>
<text text-anchor="start" x="739.5" y="-24" font-family="Helvetica,sans-Serif" font-size="10.00">itk::SmartPointer&lt;</text>
<text text-anchor="middle" x="785" y="-13" font-family="Helvetica,sans-Serif" font-size="10.00"> TObjectType &gt;</text>
</a>
</g>
</g>
<!-- Node16&#45;&gt;Node15 -->
<g id="edge18" class="edge">
<title>Node16&#45;&gt;Node15</title>
<path fill="none" stroke="orange" stroke-dasharray="5,2" d="M848.81,-26.32C896.15,-30.33 960.34,-35.77 1004.98,-39.55"/>
<polygon fill="orange" stroke="orange" points="848.93,-22.82 838.67,-25.46 848.34,-29.79 848.93,-22.82"/>
<text text-anchor="middle" x="928.5" y="-41" font-family="Helvetica,sans-Serif" font-size="10.00"> &lt; Self &gt;</text>
</g>
</g>
</svg>
