<?xml version="1.0" encoding="UTF-8" standalone="no"?>
<!DOCTYPE svg PUBLIC "-//W3C//DTD SVG 1.1//EN"
 "http://www.w3.org/Graphics/SVG/1.1/DTD/svg11.dtd">
<!-- Generated by graphviz version 2.43.0 (0)
 -->
<!-- Title: itk::CoxDeBoorBSplineKernelFunction&lt; VSplineOrder, TRealValueType &gt; Pages: 1 -->
<svg width="231pt" height="456pt"
 viewBox="0.00 0.00 230.50 456.00" xmlns="http://www.w3.org/2000/svg" xmlns:xlink="http://www.w3.org/1999/xlink">
<g id="graph0" class="graph" transform="scale(1 1) rotate(0) translate(4 452)">
<title>itk::CoxDeBoorBSplineKernelFunction&lt; VSplineOrder, TRealValueType &gt;</title>
<polygon fill="white" stroke="transparent" points="-4,4 -4,-452 226.5,-452 226.5,4 -4,4"/>
<!-- Node1 -->
<g id="node1" class="node">
<title>Node1</title>
<g id="a_node1"><a xlink:title="BSpline kernel used for density estimation and nonparametric regression.">
<polygon fill="#bfbfbf" stroke="black" points="0,-0.5 0,-41.5 158,-41.5 158,-0.5 0,-0.5"/>
<text text-anchor="start" x="8" y="-29.5" font-family="Helvetica,sans-Serif" font-size="10.00">itk::CoxDeBoorBSplineKernel</text>
<text text-anchor="start" x="8" y="-18.5" font-family="Helvetica,sans-Serif" font-size="10.00">Function&lt; VSplineOrder,</text>
<text text-anchor="middle" x="79" y="-7.5" font-family="Helvetica,sans-Serif" font-size="10.00"> TRealValueType &gt;</text>
</a>
</g>
</g>
<!-- Node2 -->
<g id="node2" class="node">
<title>Node2</title>
<g id="a_node2"><a xlink:href="classitk_1_1KernelFunctionBase.html" target="_top" xlink:title=" ">
<polygon fill="white" stroke="black" points="13.5,-79.5 13.5,-109.5 144.5,-109.5 144.5,-79.5 13.5,-79.5"/>
<text text-anchor="start" x="21.5" y="-97.5" font-family="Helvetica,sans-Serif" font-size="10.00">itk::KernelFunctionBase</text>
<text text-anchor="middle" x="79" y="-86.5" font-family="Helvetica,sans-Serif" font-size="10.00">&lt; double &gt;</text>
</a>
</g>
</g>
<!-- Node2&#45;&gt;Node1 -->
<g id="edge1" class="edge">
<title>Node2&#45;&gt;Node1</title>
<path fill="none" stroke="midnightblue" d="M79,-69.1C79,-60.1 79,-50.02 79,-41.51"/>
<polygon fill="midnightblue" stroke="midnightblue" points="75.5,-69.37 79,-79.37 82.5,-69.37 75.5,-69.37"/>
</g>
<!-- Node3 -->
<g id="node3" class="node">
<title>Node3</title>
<g id="a_node3"><a xlink:href="classitk_1_1FunctionBase.html" target="_top" xlink:title=" ">
<polygon fill="white" stroke="black" points="20.5,-225.5 20.5,-255.5 129.5,-255.5 129.5,-225.5 20.5,-225.5"/>
<text text-anchor="start" x="28.5" y="-243.5" font-family="Helvetica,sans-Serif" font-size="10.00">itk::FunctionBase&lt;</text>
<text text-anchor="middle" x="75" y="-232.5" font-family="Helvetica,sans-Serif" font-size="10.00"> double, double &gt;</text>
</a>
</g>
</g>
<!-- Node3&#45;&gt;Node2 -->
<g id="edge2" class="edge">
<title>Node3&#45;&gt;Node2</title>
<path fill="none" stroke="midnightblue" d="M75.67,-215.32C76.51,-185.14 77.92,-134.49 78.6,-109.84"/>
<polygon fill="midnightblue" stroke="midnightblue" points="72.17,-215.34 75.39,-225.43 79.17,-215.53 72.17,-215.34"/>
</g>
<!-- Node7 -->
<g id="node7" class="node">
<title>Node7</title>
<g id="a_node7"><a xlink:href="classitk_1_1KernelFunctionBase.html" target="_top" xlink:title="Kernel used for density estimation and nonparametric regression.">
<polygon fill="white" stroke="black" points="91.5,-157.5 91.5,-187.5 222.5,-187.5 222.5,-157.5 91.5,-157.5"/>
<text text-anchor="start" x="99.5" y="-175.5" font-family="Helvetica,sans-Serif" font-size="10.00">itk::KernelFunctionBase</text>
<text text-anchor="middle" x="157" y="-164.5" font-family="Helvetica,sans-Serif" font-size="10.00">&lt; TRealValueType &gt;</text>
</a>
</g>
</g>
<!-- Node3&#45;&gt;Node7 -->
<g id="edge8" class="edge">
<title>Node3&#45;&gt;Node7</title>
<path fill="none" stroke="midnightblue" d="M100.71,-218.81C113.34,-208.64 128.23,-196.66 139.52,-187.57"/>
<polygon fill="midnightblue" stroke="midnightblue" points="98.39,-216.18 92.79,-225.18 102.78,-221.64 98.39,-216.18"/>
</g>
<!-- Node4 -->
<g id="node4" class="node">
<title>Node4</title>
<g id="a_node4"><a xlink:href="classitk_1_1Object.html" target="_top" xlink:title="Base class for most ITK classes.">
<polygon fill="white" stroke="black" points="37.5,-371.5 37.5,-390.5 104.5,-390.5 104.5,-371.5 37.5,-371.5"/>
<text text-anchor="middle" x="71" y="-378.5" font-family="Helvetica,sans-Serif" font-size="10.00">itk::Object</text>
</a>
</g>
</g>
<!-- Node4&#45;&gt;Node3 -->
<g id="edge3" class="edge">
<title>Node4&#45;&gt;Node3</title>
<path fill="none" stroke="midnightblue" d="M71.54,-361.25C72.35,-333.19 73.86,-280.88 74.59,-255.73"/>
<polygon fill="midnightblue" stroke="midnightblue" points="68.04,-361.24 71.25,-371.34 75.04,-361.44 68.04,-361.24"/>
</g>
<!-- Node6 -->
<g id="node6" class="node">
<title>Node6</title>
<g id="a_node6"><a xlink:href="classitk_1_1FunctionBase.html" target="_top" xlink:title="Base class for all ITK function objects.">
<polygon fill="white" stroke="black" points="87.5,-303.5 87.5,-333.5 196.5,-333.5 196.5,-303.5 87.5,-303.5"/>
<text text-anchor="start" x="95.5" y="-321.5" font-family="Helvetica,sans-Serif" font-size="10.00">itk::FunctionBase&lt;</text>
<text text-anchor="middle" x="142" y="-310.5" font-family="Helvetica,sans-Serif" font-size="10.00"> TInput, TOutput &gt;</text>
</a>
</g>
</g>
<!-- Node4&#45;&gt;Node6 -->
<g id="edge6" class="edge">
<title>Node4&#45;&gt;Node6</title>
<path fill="none" stroke="midnightblue" d="M89.05,-364.62C100.28,-355.05 114.62,-342.83 125.54,-333.53"/>
<polygon fill="midnightblue" stroke="midnightblue" points="86.51,-362.18 81.17,-371.33 91.05,-367.51 86.51,-362.18"/>
</g>
<!-- Node5 -->
<g id="node5" class="node">
<title>Node5</title>
<g id="a_node5"><a xlink:href="classitk_1_1LightObject.html" target="_top" xlink:title="Light weight base class for most itk classes.">
<polygon fill="white" stroke="black" points="25.5,-428.5 25.5,-447.5 116.5,-447.5 116.5,-428.5 25.5,-428.5"/>
<text text-anchor="middle" x="71" y="-435.5" font-family="Helvetica,sans-Serif" font-size="10.00">itk::LightObject</text>
</a>
</g>
</g>
<!-- Node5&#45;&gt;Node4 -->
<g id="edge4" class="edge">
<title>Node5&#45;&gt;Node4</title>
<path fill="none" stroke="midnightblue" d="M71,-418.12C71,-408.82 71,-398.06 71,-390.71"/>
<polygon fill="midnightblue" stroke="midnightblue" points="67.5,-418.41 71,-428.41 74.5,-418.41 67.5,-418.41"/>
</g>
<!-- Node6&#45;&gt;Node3 -->
<g id="edge5" class="edge">
<title>Node6&#45;&gt;Node3</title>
<path fill="none" stroke="orange" stroke-dasharray="5,2" d="M122.76,-295.67C111.44,-282.83 97.45,-266.97 87.55,-255.73"/>
<polygon fill="orange" stroke="orange" points="120.16,-298.02 129.4,-303.2 125.41,-293.39 120.16,-298.02"/>
<text text-anchor="middle" x="161" y="-277" font-family="Helvetica,sans-Serif" font-size="10.00"> &lt; double, double &gt;</text>
</g>
<!-- Node7&#45;&gt;Node2 -->
<g id="edge7" class="edge">
<title>Node7&#45;&gt;Node2</title>
<path fill="none" stroke="orange" stroke-dasharray="5,2" d="M134.97,-150.03C121.73,-137.13 105.24,-121.07 93.61,-109.73"/>
<polygon fill="orange" stroke="orange" points="132.72,-152.73 142.33,-157.2 137.61,-147.72 132.72,-152.73"/>
<text text-anchor="middle" x="151.5" y="-131" font-family="Helvetica,sans-Serif" font-size="10.00"> &lt; double &gt;</text>
</g>
</g>
</svg>
