<?xml version="1.0" encoding="UTF-8" standalone="no"?>
<!DOCTYPE svg PUBLIC "-//W3C//DTD SVG 1.1//EN"
 "http://www.w3.org/Graphics/SVG/1.1/DTD/svg11.dtd">
<!-- Generated by graphviz version 2.43.0 (0)
 -->
<!-- Title: itk::MattesMutualInformationImageToImageMetricv4&lt; TFixedImage, TMovingImage, TVirtualImage, TInternalComputationValueType, TMetricTraits &gt;::DerivativeBufferManager Pages: 1 -->
<svg width="944pt" height="204pt"
 viewBox="0.00 0.00 944.00 203.50" xmlns="http://www.w3.org/2000/svg" xmlns:xlink="http://www.w3.org/1999/xlink">
<g id="graph0" class="graph" transform="scale(1 1) rotate(0) translate(4 199.5)">
<title>itk::MattesMutualInformationImageToImageMetricv4&lt; TFixedImage, TMovingImage, TVirtualImage, TInternalComputationValueType, TMetricTraits &gt;::DerivativeBufferManager</title>
<polygon fill="white" stroke="transparent" points="-4,4 -4,-199.5 940,-199.5 940,4 -4,4"/>
<!-- Node1 -->
<g id="node1" class="node">
<title>Node1</title>
<g id="a_node1"><a xlink:title=" ">
<polygon fill="#bfbfbf" stroke="black" points="713,-73 713,-136 936,-136 936,-73 713,-73"/>
<text text-anchor="start" x="721" y="-124" font-family="Helvetica,sans-Serif" font-size="10.00">itk::MattesMutualInformation</text>
<text text-anchor="start" x="721" y="-113" font-family="Helvetica,sans-Serif" font-size="10.00">ImageToImageMetricv4&lt; TFixedImage,</text>
<text text-anchor="start" x="721" y="-102" font-family="Helvetica,sans-Serif" font-size="10.00"> TMovingImage, TVirtualImage,</text>
<text text-anchor="start" x="721" y="-91" font-family="Helvetica,sans-Serif" font-size="10.00"> TInternalComputationValueType,</text>
<text text-anchor="middle" x="824.5" y="-80" font-family="Helvetica,sans-Serif" font-size="10.00"> TMetricTraits &gt;::DerivativeBufferManager</text>
</a>
</g>
</g>
<!-- Node2 -->
<g id="node2" class="node">
<title>Node2</title>
<g id="a_node2"><a xlink:title=" ">
<polygon fill="white" stroke="#bfbfbf" points="366,-176 366,-195 526,-195 526,-176 366,-176"/>
<text text-anchor="middle" x="446" y="-183" font-family="Helvetica,sans-Serif" font-size="10.00">std::vector&lt; PDFValueType &gt;</text>
</a>
</g>
</g>
<!-- Node2&#45;&gt;Node1 -->
<g id="edge1" class="edge">
<title>Node2&#45;&gt;Node1</title>
<path fill="none" stroke="#9a32cd" stroke-dasharray="5,2" d="M534.93,-174.57C582.63,-167.83 642.43,-158.05 695,-145.5 706.5,-142.75 718.47,-139.5 730.26,-136.03"/>
<polygon fill="#9a32cd" stroke="#9a32cd" points="534.36,-171.11 524.94,-175.96 535.33,-178.05 534.36,-171.11"/>
<text text-anchor="middle" x="621.5" y="-175.5" font-family="Helvetica,sans-Serif" font-size="10.00"> m_MemoryBlock</text>
</g>
<!-- Node3 -->
<g id="node3" class="node">
<title>Node3</title>
<g id="a_node3"><a xlink:title="STL class.">
<polygon fill="white" stroke="#bfbfbf" points="119,-132 119,-151 216,-151 216,-132 119,-132"/>
<text text-anchor="middle" x="167.5" y="-139" font-family="Helvetica,sans-Serif" font-size="10.00">std::vector&lt; T &gt;</text>
</a>
</g>
</g>
<!-- Node3&#45;&gt;Node2 -->
<g id="edge2" class="edge">
<title>Node3&#45;&gt;Node2</title>
<path fill="none" stroke="orange" stroke-dasharray="5,2" d="M221.01,-153.09C227.06,-154.3 233.16,-155.47 239,-156.5 281.5,-164 329.21,-170.82 368.01,-175.96"/>
<polygon fill="orange" stroke="orange" points="221.41,-149.6 210.91,-151.02 220,-156.46 221.41,-149.6"/>
<text text-anchor="middle" x="291.5" y="-174.5" font-family="Helvetica,sans-Serif" font-size="10.00"> &lt; PDFValueType &gt;</text>
</g>
<!-- Node6 -->
<g id="node6" class="node">
<title>Node6</title>
<g id="a_node6"><a xlink:title=" ">
<polygon fill="white" stroke="#bfbfbf" points="378,-126.5 378,-156.5 514,-156.5 514,-126.5 378,-126.5"/>
<text text-anchor="start" x="386" y="-144.5" font-family="Helvetica,sans-Serif" font-size="10.00">std::vector&lt; OffsetValue</text>
<text text-anchor="middle" x="446" y="-133.5" font-family="Helvetica,sans-Serif" font-size="10.00">Type &gt;</text>
</a>
</g>
</g>
<!-- Node3&#45;&gt;Node6 -->
<g id="edge6" class="edge">
<title>Node3&#45;&gt;Node6</title>
<path fill="none" stroke="orange" stroke-dasharray="5,2" d="M226.04,-141.5C270.28,-141.5 331.47,-141.5 377.93,-141.5"/>
<polygon fill="orange" stroke="orange" points="226.03,-138 216.03,-141.5 226.03,-145 226.03,-138"/>
<text text-anchor="middle" x="291.5" y="-144.5" font-family="Helvetica,sans-Serif" font-size="10.00"> &lt; OffsetValueType &gt;</text>
</g>
<!-- Node9 -->
<g id="node9" class="node">
<title>Node9</title>
<g id="a_node9"><a xlink:title=" ">
<polygon fill="white" stroke="#bfbfbf" points="362,-88 362,-107 530,-107 530,-88 362,-88"/>
<text text-anchor="middle" x="446" y="-95" font-family="Helvetica,sans-Serif" font-size="10.00">std::vector&lt; PDFValueType * &gt;</text>
</a>
</g>
</g>
<!-- Node3&#45;&gt;Node9 -->
<g id="edge10" class="edge">
<title>Node3&#45;&gt;Node9</title>
<path fill="none" stroke="orange" stroke-dasharray="5,2" d="M221.01,-129.91C227.06,-128.7 233.16,-127.53 239,-126.5 281.5,-119 329.21,-112.18 368.01,-107.04"/>
<polygon fill="orange" stroke="orange" points="220,-126.54 210.91,-131.98 221.41,-133.4 220,-126.54"/>
<text text-anchor="middle" x="291.5" y="-129.5" font-family="Helvetica,sans-Serif" font-size="10.00"> &lt; PDFValueType * &gt;</text>
</g>
<!-- Node4 -->
<g id="node4" class="node">
<title>Node4</title>
<g id="a_node4"><a xlink:title=" ">
<polygon fill="white" stroke="#bfbfbf" points="0,-132 0,-151 29,-151 29,-132 0,-132"/>
<text text-anchor="middle" x="14.5" y="-139" font-family="Helvetica,sans-Serif" font-size="10.00">T</text>
</a>
</g>
</g>
<!-- Node4&#45;&gt;Node3 -->
<g id="edge3" class="edge">
<title>Node4&#45;&gt;Node3</title>
<path fill="none" stroke="#9a32cd" stroke-dasharray="5,2" d="M39.26,-141.5C60.56,-141.5 92.45,-141.5 118.97,-141.5"/>
<polygon fill="#9a32cd" stroke="#9a32cd" points="39.17,-138 29.17,-141.5 39.17,-145 39.17,-138"/>
<text text-anchor="middle" x="71.5" y="-144.5" font-family="Helvetica,sans-Serif" font-size="10.00"> elements</text>
</g>
<!-- Node5 -->
<g id="node5" class="node">
<title>Node5</title>
<g id="a_node5"><a xlink:title="STL class.">
<polygon fill="white" stroke="#bfbfbf" points="411.5,-50 411.5,-69 480.5,-69 480.5,-50 411.5,-50"/>
<text text-anchor="middle" x="446" y="-57" font-family="Helvetica,sans-Serif" font-size="10.00">std::mutex</text>
</a>
</g>
</g>
<!-- Node5&#45;&gt;Node1 -->
<g id="edge4" class="edge">
<title>Node5&#45;&gt;Node1</title>
<path fill="none" stroke="#9a32cd" stroke-dasharray="5,2" d="M490.98,-59.6C540.75,-60.26 624.1,-63.03 695,-73.5 700.79,-74.35 706.7,-75.35 712.65,-76.44"/>
<polygon fill="#9a32cd" stroke="#9a32cd" points="490.93,-56.1 480.89,-59.49 490.85,-63.09 490.93,-56.1"/>
<text text-anchor="start" x="548" y="-87.5" font-family="Helvetica,sans-Serif" font-size="10.00"> m_ParentJointPDFDerivatives</text>
<text text-anchor="middle" x="621.5" y="-76.5" font-family="Helvetica,sans-Serif" font-size="10.00">LockPtr</text>
</g>
<!-- Node6&#45;&gt;Node1 -->
<g id="edge5" class="edge">
<title>Node6&#45;&gt;Node1</title>
<path fill="none" stroke="#9a32cd" stroke-dasharray="5,2" d="M524.57,-133.88C578.93,-128.53 652.38,-121.32 712.87,-115.37"/>
<polygon fill="#9a32cd" stroke="#9a32cd" points="523.92,-130.42 514.31,-134.89 524.61,-137.39 523.92,-130.42"/>
<text text-anchor="middle" x="621.5" y="-133.5" font-family="Helvetica,sans-Serif" font-size="10.00"> m_BufferOffsetContainer</text>
</g>
<!-- Node7 -->
<g id="node7" class="node">
<title>Node7</title>
<g id="a_node7"><a xlink:href="classitk_1_1SmartPointer.html" target="_top" xlink:title=" ">
<polygon fill="white" stroke="black" points="392.5,-0.5 392.5,-30.5 499.5,-30.5 499.5,-0.5 392.5,-0.5"/>
<text text-anchor="start" x="400.5" y="-18.5" font-family="Helvetica,sans-Serif" font-size="10.00">itk::SmartPointer&lt;</text>
<text text-anchor="middle" x="446" y="-7.5" font-family="Helvetica,sans-Serif" font-size="10.00"> Self &gt;</text>
</a>
</g>
</g>
<!-- Node7&#45;&gt;Node1 -->
<g id="edge7" class="edge">
<title>Node7&#45;&gt;Node1</title>
<path fill="none" stroke="#9a32cd" stroke-dasharray="5,2" d="M509.87,-17.73C560.64,-20.81 633.5,-28.12 695,-45.5 718.62,-52.18 743.4,-62.64 764.82,-72.91"/>
<polygon fill="#9a32cd" stroke="#9a32cd" points="509.88,-14.23 499.7,-17.16 509.48,-21.22 509.88,-14.23"/>
<text text-anchor="middle" x="621.5" y="-48.5" font-family="Helvetica,sans-Serif" font-size="10.00"> m_ParentJointPDFDerivatives</text>
</g>
<!-- Node8 -->
<g id="node8" class="node">
<title>Node8</title>
<g id="a_node8"><a xlink:href="classitk_1_1SmartPointer.html" target="_top" xlink:title="Implements transparent reference counting.">
<polygon fill="white" stroke="black" points="114,-0.5 114,-30.5 221,-30.5 221,-0.5 114,-0.5"/>
<text text-anchor="start" x="122" y="-18.5" font-family="Helvetica,sans-Serif" font-size="10.00">itk::SmartPointer&lt;</text>
<text text-anchor="middle" x="167.5" y="-7.5" font-family="Helvetica,sans-Serif" font-size="10.00"> TObjectType &gt;</text>
</a>
</g>
</g>
<!-- Node8&#45;&gt;Node7 -->
<g id="edge8" class="edge">
<title>Node8&#45;&gt;Node7</title>
<path fill="none" stroke="orange" stroke-dasharray="5,2" d="M231.23,-15.5C279.76,-15.5 346.2,-15.5 392.07,-15.5"/>
<polygon fill="orange" stroke="orange" points="231.16,-12 221.16,-15.5 231.16,-19 231.16,-12"/>
<text text-anchor="middle" x="291.5" y="-18.5" font-family="Helvetica,sans-Serif" font-size="10.00"> &lt; Self &gt;</text>
</g>
<!-- Node9&#45;&gt;Node1 -->
<g id="edge9" class="edge">
<title>Node9&#45;&gt;Node1</title>
<path fill="none" stroke="#9a32cd" stroke-dasharray="5,2" d="M540.35,-99.24C592.56,-100.21 657.97,-101.42 712.76,-102.44"/>
<polygon fill="#9a32cd" stroke="#9a32cd" points="540.15,-95.73 530.09,-99.04 540.02,-102.73 540.15,-95.73"/>
<text text-anchor="middle" x="621.5" y="-104.5" font-family="Helvetica,sans-Serif" font-size="10.00"> m_BufferPDFValuesContainer</text>
</g>
</g>
</svg>
