<?xml version="1.0" encoding="UTF-8" standalone="no"?>
<!DOCTYPE svg PUBLIC "-//W3C//DTD SVG 1.1//EN"
 "http://www.w3.org/Graphics/SVG/1.1/DTD/svg11.dtd">
<!-- Generated by graphviz version 2.43.0 (0)
 -->
<!-- Title: itk::TimeVaryingVelocityFieldTransform&lt; TParametersValueType, VDimension &gt; Pages: 1 -->
<svg width="1860pt" height="80pt"
 viewBox="0.00 0.00 1860.00 79.50" xmlns="http://www.w3.org/2000/svg" xmlns:xlink="http://www.w3.org/1999/xlink">
<g id="graph0" class="graph" transform="scale(1 1) rotate(0) translate(4 75.5)">
<title>itk::TimeVaryingVelocityFieldTransform&lt; TParametersValueType, VDimension &gt;</title>
<polygon fill="white" stroke="transparent" points="-4,4 -4,-75.5 1856,-75.5 1856,4 -4,4"/>
<!-- Node1 -->
<g id="node1" class="node">
<title>Node1</title>
<g id="a_node1"><a xlink:title="Transform objects based on integration of a time&#45;varying velocity field.">
<polygon fill="#bfbfbf" stroke="black" points="1436,-24.5 1436,-65.5 1624,-65.5 1624,-24.5 1436,-24.5"/>
<text text-anchor="start" x="1444" y="-53.5" font-family="Helvetica,sans-Serif" font-size="10.00">itk::TimeVaryingVelocity</text>
<text text-anchor="start" x="1444" y="-42.5" font-family="Helvetica,sans-Serif" font-size="10.00">FieldTransform&lt; TParametersValue</text>
<text text-anchor="middle" x="1530" y="-31.5" font-family="Helvetica,sans-Serif" font-size="10.00">Type, VDimension &gt;</text>
</a>
</g>
</g>
<!-- Node9 -->
<g id="node9" class="node">
<title>Node9</title>
<g id="a_node9"><a xlink:href="classitk_1_1GaussianSmoothingOnUpdateTimeVaryingVelocityFieldTransform.html" target="_top" xlink:title="Modifies the UpdateTransformParameters method to peform a Gaussian smoothing of the velocity field af...">
<polygon fill="white" stroke="black" points="1661,-19 1661,-71 1852,-71 1852,-19 1661,-19"/>
<text text-anchor="start" x="1669" y="-59" font-family="Helvetica,sans-Serif" font-size="10.00">itk::GaussianSmoothingOn</text>
<text text-anchor="start" x="1669" y="-48" font-family="Helvetica,sans-Serif" font-size="10.00">UpdateTimeVaryingVelocityField</text>
<text text-anchor="start" x="1669" y="-37" font-family="Helvetica,sans-Serif" font-size="10.00">Transform&lt; TParametersValueType,</text>
<text text-anchor="middle" x="1756.5" y="-26" font-family="Helvetica,sans-Serif" font-size="10.00"> VDimension &gt;</text>
</a>
</g>
</g>
<!-- Node1&#45;&gt;Node9 -->
<g id="edge9" class="edge">
<title>Node1&#45;&gt;Node9</title>
<path fill="none" stroke="midnightblue" d="M1634.48,-45C1643.23,-45 1652.05,-45 1660.72,-45"/>
<polygon fill="midnightblue" stroke="midnightblue" points="1634.26,-41.5 1624.26,-45 1634.26,-48.5 1634.26,-41.5"/>
</g>
<!-- Node2 -->
<g id="node2" class="node">
<title>Node2</title>
<g id="a_node2"><a xlink:href="classitk_1_1VelocityFieldTransform.html" target="_top" xlink:title="Provides local/dense/high&#45;dimensionality transformation via a a velocity field.">
<polygon fill="white" stroke="black" points="1253,-24.5 1253,-65.5 1399,-65.5 1399,-24.5 1253,-24.5"/>
<text text-anchor="start" x="1261" y="-53.5" font-family="Helvetica,sans-Serif" font-size="10.00">itk::VelocityFieldTransform</text>
<text text-anchor="start" x="1261" y="-42.5" font-family="Helvetica,sans-Serif" font-size="10.00">&lt; TParametersValueType,</text>
<text text-anchor="middle" x="1326" y="-31.5" font-family="Helvetica,sans-Serif" font-size="10.00"> VDimension &gt;</text>
</a>
</g>
</g>
<!-- Node2&#45;&gt;Node1 -->
<g id="edge1" class="edge">
<title>Node2&#45;&gt;Node1</title>
<path fill="none" stroke="midnightblue" d="M1409.23,-45C1417.98,-45 1426.92,-45 1435.78,-45"/>
<polygon fill="midnightblue" stroke="midnightblue" points="1409.07,-41.5 1399.07,-45 1409.07,-48.5 1409.07,-41.5"/>
</g>
<!-- Node3 -->
<g id="node3" class="node">
<title>Node3</title>
<g id="a_node3"><a xlink:href="classitk_1_1DisplacementFieldTransform.html" target="_top" xlink:title="Provides local/dense/high&#45;dimensionality transformation via a a displacement field.">
<polygon fill="white" stroke="black" points="1001,-30 1001,-60 1216,-60 1216,-30 1001,-30"/>
<text text-anchor="start" x="1009" y="-48" font-family="Helvetica,sans-Serif" font-size="10.00">itk::DisplacementFieldTransform</text>
<text text-anchor="middle" x="1108.5" y="-37" font-family="Helvetica,sans-Serif" font-size="10.00">&lt; TParametersValueType, VDimension &gt;</text>
</a>
</g>
</g>
<!-- Node3&#45;&gt;Node2 -->
<g id="edge2" class="edge">
<title>Node3&#45;&gt;Node2</title>
<path fill="none" stroke="midnightblue" d="M1226.45,-45C1235.42,-45 1244.3,-45 1252.85,-45"/>
<polygon fill="midnightblue" stroke="midnightblue" points="1226.3,-41.5 1216.3,-45 1226.3,-48.5 1226.3,-41.5"/>
</g>
<!-- Node4 -->
<g id="node4" class="node">
<title>Node4</title>
<g id="a_node4"><a xlink:href="classitk_1_1Transform.html" target="_top" xlink:title=" ">
<polygon fill="white" stroke="black" points="756,-30 756,-60 964,-60 964,-30 756,-30"/>
<text text-anchor="start" x="764" y="-48" font-family="Helvetica,sans-Serif" font-size="10.00">itk::Transform&lt; TParameters</text>
<text text-anchor="middle" x="860" y="-37" font-family="Helvetica,sans-Serif" font-size="10.00">ValueType, VDimension, VDimension &gt;</text>
</a>
</g>
</g>
<!-- Node4&#45;&gt;Node3 -->
<g id="edge3" class="edge">
<title>Node4&#45;&gt;Node3</title>
<path fill="none" stroke="midnightblue" d="M974.12,-45C983.02,-45 991.98,-45 1000.84,-45"/>
<polygon fill="midnightblue" stroke="midnightblue" points="974.11,-41.5 964.11,-45 974.11,-48.5 974.11,-41.5"/>
</g>
<!-- Node5 -->
<g id="node5" class="node">
<title>Node5</title>
<g id="a_node5"><a xlink:href="classitk_1_1TransformBaseTemplate.html" target="_top" xlink:title=" ">
<polygon fill="white" stroke="black" points="232,-30 232,-60 385,-60 385,-30 232,-30"/>
<text text-anchor="start" x="240" y="-48" font-family="Helvetica,sans-Serif" font-size="10.00">itk::TransformBaseTemplate</text>
<text text-anchor="middle" x="308.5" y="-37" font-family="Helvetica,sans-Serif" font-size="10.00">&lt; TParametersValueType &gt;</text>
</a>
</g>
</g>
<!-- Node5&#45;&gt;Node4 -->
<g id="edge4" class="edge">
<title>Node5&#45;&gt;Node4</title>
<path fill="none" stroke="midnightblue" d="M395.03,-50.76C481.55,-55.76 619.12,-61.39 738,-56 743.79,-55.74 749.74,-55.4 755.74,-55.02"/>
<polygon fill="midnightblue" stroke="midnightblue" points="395.19,-47.27 385,-50.18 394.78,-54.26 395.19,-47.27"/>
</g>
<!-- Node8 -->
<g id="node8" class="node">
<title>Node8</title>
<g id="a_node8"><a xlink:href="classitk_1_1Transform.html" target="_top" xlink:title="Transform points and vectors from an input space to an output space.">
<polygon fill="white" stroke="black" points="422,-0.5 422,-41.5 581,-41.5 581,-0.5 422,-0.5"/>
<text text-anchor="start" x="430" y="-29.5" font-family="Helvetica,sans-Serif" font-size="10.00">itk::Transform&lt; TParameters</text>
<text text-anchor="start" x="430" y="-18.5" font-family="Helvetica,sans-Serif" font-size="10.00">ValueType, VInputDimension,</text>
<text text-anchor="middle" x="501.5" y="-7.5" font-family="Helvetica,sans-Serif" font-size="10.00"> VOutputDimension &gt;</text>
</a>
</g>
</g>
<!-- Node5&#45;&gt;Node8 -->
<g id="edge8" class="edge">
<title>Node5&#45;&gt;Node8</title>
<path fill="none" stroke="midnightblue" d="M395.45,-34.2C404.19,-33.1 413.04,-31.99 421.7,-30.9"/>
<polygon fill="midnightblue" stroke="midnightblue" points="394.75,-30.76 385.26,-35.48 395.62,-37.71 394.75,-30.76"/>
</g>
<!-- Node6 -->
<g id="node6" class="node">
<title>Node6</title>
<g id="a_node6"><a xlink:href="classitk_1_1Object.html" target="_top" xlink:title="Base class for most ITK classes.">
<polygon fill="white" stroke="black" points="128,-35.5 128,-54.5 195,-54.5 195,-35.5 128,-35.5"/>
<text text-anchor="middle" x="161.5" y="-42.5" font-family="Helvetica,sans-Serif" font-size="10.00">itk::Object</text>
</a>
</g>
</g>
<!-- Node6&#45;&gt;Node5 -->
<g id="edge5" class="edge">
<title>Node6&#45;&gt;Node5</title>
<path fill="none" stroke="midnightblue" d="M205.29,-45C213.68,-45 222.72,-45 231.82,-45"/>
<polygon fill="midnightblue" stroke="midnightblue" points="205.04,-41.5 195.04,-45 205.04,-48.5 205.04,-41.5"/>
</g>
<!-- Node7 -->
<g id="node7" class="node">
<title>Node7</title>
<g id="a_node7"><a xlink:href="classitk_1_1LightObject.html" target="_top" xlink:title="Light weight base class for most itk classes.">
<polygon fill="white" stroke="black" points="0,-35.5 0,-54.5 91,-54.5 91,-35.5 0,-35.5"/>
<text text-anchor="middle" x="45.5" y="-42.5" font-family="Helvetica,sans-Serif" font-size="10.00">itk::LightObject</text>
</a>
</g>
</g>
<!-- Node7&#45;&gt;Node6 -->
<g id="edge6" class="edge">
<title>Node7&#45;&gt;Node6</title>
<path fill="none" stroke="midnightblue" d="M101.39,-45C110.45,-45 119.59,-45 127.88,-45"/>
<polygon fill="midnightblue" stroke="midnightblue" points="101.23,-41.5 91.23,-45 101.23,-48.5 101.23,-41.5"/>
</g>
<!-- Node8&#45;&gt;Node4 -->
<g id="edge7" class="edge">
<title>Node8&#45;&gt;Node4</title>
<path fill="none" stroke="orange" stroke-dasharray="5,2" d="M591.17,-25.15C635.33,-27.41 689.5,-30.46 738,-34 743.79,-34.42 749.72,-34.88 755.72,-35.36"/>
<polygon fill="orange" stroke="orange" points="591.21,-21.65 581.04,-24.64 590.85,-28.64 591.21,-21.65"/>
<text text-anchor="start" x="599" y="-48" font-family="Helvetica,sans-Serif" font-size="10.00"> &lt; TParametersValueType,</text>
<text text-anchor="middle" x="668.5" y="-37" font-family="Helvetica,sans-Serif" font-size="10.00"> VDimension, VDimension &gt;</text>
</g>
</g>
</svg>
