<?xml version="1.0" encoding="UTF-8" standalone="no"?>
<!DOCTYPE svg PUBLIC "-//W3C//DTD SVG 1.1//EN"
 "http://www.w3.org/Graphics/SVG/1.1/DTD/svg11.dtd">
<!-- Generated by graphviz version 2.43.0 (0)
 -->
<!-- Title: itk::MetaDataObjectBase Pages: 1 -->
<svg width="175pt" height="286pt"
 viewBox="0.00 0.00 174.50 286.00" xmlns="http://www.w3.org/2000/svg" xmlns:xlink="http://www.w3.org/1999/xlink">
<g id="graph0" class="graph" transform="scale(1 1) rotate(0) translate(4 282)">
<title>itk::MetaDataObjectBase</title>
<polygon fill="white" stroke="transparent" points="-4,4 -4,-282 170.5,-282 170.5,4 -4,4"/>
<!-- Node1 -->
<g id="node1" class="node">
<title>Node1</title>
<g id="a_node1"><a xlink:title="The common interface for MetaDataObject&#39;s.">
<polygon fill="#bfbfbf" stroke="black" points="0,-0.5 0,-19.5 139,-19.5 139,-0.5 0,-0.5"/>
<text text-anchor="middle" x="69.5" y="-7.5" font-family="Helvetica,sans-Serif" font-size="10.00">itk::MetaDataObjectBase</text>
</a>
</g>
</g>
<!-- Node2 -->
<g id="node2" class="node">
<title>Node2</title>
<g id="a_node2"><a xlink:href="classitk_1_1LightObject.html" target="_top" xlink:title="Light weight base class for most itk classes.">
<polygon fill="white" stroke="black" points="24,-57.5 24,-76.5 115,-76.5 115,-57.5 24,-57.5"/>
<text text-anchor="middle" x="69.5" y="-64.5" font-family="Helvetica,sans-Serif" font-size="10.00">itk::LightObject</text>
</a>
</g>
</g>
<!-- Node2&#45;&gt;Node1 -->
<g id="edge1" class="edge">
<title>Node2&#45;&gt;Node1</title>
<path fill="none" stroke="midnightblue" d="M69.5,-47.12C69.5,-37.82 69.5,-27.06 69.5,-19.71"/>
<polygon fill="midnightblue" stroke="midnightblue" points="66,-47.41 69.5,-57.41 73,-47.41 66,-47.41"/>
</g>
<!-- Node3 -->
<g id="node3" class="node">
<title>Node3</title>
<g id="a_node3"><a xlink:title=" ">
<polygon fill="white" stroke="#bfbfbf" points="16,-124.5 16,-143.5 123,-143.5 123,-124.5 16,-124.5"/>
<text text-anchor="middle" x="69.5" y="-131.5" font-family="Helvetica,sans-Serif" font-size="10.00">std::atomic&lt; int &gt;</text>
</a>
</g>
</g>
<!-- Node3&#45;&gt;Node2 -->
<g id="edge2" class="edge">
<title>Node3&#45;&gt;Node2</title>
<path fill="none" stroke="#9a32cd" stroke-dasharray="5,2" d="M69.5,-114.04C69.5,-101.67 69.5,-86.12 69.5,-76.63"/>
<polygon fill="#9a32cd" stroke="#9a32cd" points="66,-114.23 69.5,-124.23 73,-114.23 66,-114.23"/>
<text text-anchor="middle" x="118" y="-98" font-family="Helvetica,sans-Serif" font-size="10.00"> m_ReferenceCount</text>
</g>
<!-- Node4 -->
<g id="node4" class="node">
<title>Node4</title>
<g id="a_node4"><a xlink:title="STL class.">
<polygon fill="white" stroke="#bfbfbf" points="19.5,-191.5 19.5,-210.5 119.5,-210.5 119.5,-191.5 19.5,-191.5"/>
<text text-anchor="middle" x="69.5" y="-198.5" font-family="Helvetica,sans-Serif" font-size="10.00">std::atomic&lt; T &gt;</text>
</a>
</g>
</g>
<!-- Node4&#45;&gt;Node3 -->
<g id="edge3" class="edge">
<title>Node4&#45;&gt;Node3</title>
<path fill="none" stroke="orange" stroke-dasharray="5,2" d="M69.5,-181.04C69.5,-168.67 69.5,-153.12 69.5,-143.63"/>
<polygon fill="orange" stroke="orange" points="66,-181.23 69.5,-191.23 73,-181.23 66,-181.23"/>
<text text-anchor="middle" x="89" y="-165" font-family="Helvetica,sans-Serif" font-size="10.00"> &lt; int &gt;</text>
</g>
<!-- Node5 -->
<g id="node5" class="node">
<title>Node5</title>
<g id="a_node5"><a xlink:title=" ">
<polygon fill="white" stroke="#bfbfbf" points="55,-258.5 55,-277.5 84,-277.5 84,-258.5 55,-258.5"/>
<text text-anchor="middle" x="69.5" y="-265.5" font-family="Helvetica,sans-Serif" font-size="10.00">T</text>
</a>
</g>
</g>
<!-- Node5&#45;&gt;Node4 -->
<g id="edge4" class="edge">
<title>Node5&#45;&gt;Node4</title>
<path fill="none" stroke="#9a32cd" stroke-dasharray="5,2" d="M69.5,-248.04C69.5,-235.67 69.5,-220.12 69.5,-210.63"/>
<polygon fill="#9a32cd" stroke="#9a32cd" points="66,-248.23 69.5,-258.23 73,-248.23 66,-248.23"/>
<text text-anchor="middle" x="78" y="-232" font-family="Helvetica,sans-Serif" font-size="10.00"> ptr</text>
</g>
</g>
</svg>
