<?xml version="1.0" encoding="UTF-8" standalone="no"?>
<!DOCTYPE svg PUBLIC "-//W3C//DTD SVG 1.1//EN"
 "http://www.w3.org/Graphics/SVG/1.1/DTD/svg11.dtd">
<!-- Generated by graphviz version 2.43.0 (0)
 -->
<!-- Title: itk::ShapeLabelObject&lt; TLabel, VImageDimension &gt; Pages: 1 -->
<svg width="1933pt" height="389pt"
 viewBox="0.00 0.00 1933.00 388.83" xmlns="http://www.w3.org/2000/svg" xmlns:xlink="http://www.w3.org/1999/xlink">
<g id="graph0" class="graph" transform="scale(1 1) rotate(0) translate(4 384.83)">
<title>itk::ShapeLabelObject&lt; TLabel, VImageDimension &gt;</title>
<polygon fill="white" stroke="transparent" points="-4,4 -4,-384.83 1929,-384.83 1929,4 -4,4"/>
<!-- Node1 -->
<g id="node1" class="node">
<title>Node1</title>
<g id="a_node1"><a xlink:title="A Label object to store the common attributes related to the shape of the object.">
<polygon fill="#bfbfbf" stroke="black" points="1758,-141.83 1758,-171.83 1925,-171.83 1925,-141.83 1758,-141.83"/>
<text text-anchor="start" x="1766" y="-159.83" font-family="Helvetica,sans-Serif" font-size="10.00">itk::ShapeLabelObject</text>
<text text-anchor="middle" x="1841.5" y="-148.83" font-family="Helvetica,sans-Serif" font-size="10.00">&lt; TLabel, VImageDimension &gt;</text>
</a>
</g>
</g>
<!-- Node2 -->
<g id="node2" class="node">
<title>Node2</title>
<g id="a_node2"><a xlink:href="classitk_1_1LabelObject.html" target="_top" xlink:title="The base class for the representation of an labeled binary object in an image.">
<polygon fill="white" stroke="black" points="1389.5,-282.83 1389.5,-312.83 1529.5,-312.83 1529.5,-282.83 1389.5,-282.83"/>
<text text-anchor="start" x="1397.5" y="-300.83" font-family="Helvetica,sans-Serif" font-size="10.00">itk::LabelObject&lt; TLabel,</text>
<text text-anchor="middle" x="1459.5" y="-289.83" font-family="Helvetica,sans-Serif" font-size="10.00"> VImageDimension &gt;</text>
</a>
</g>
</g>
<!-- Node2&#45;&gt;Node1 -->
<g id="edge1" class="edge">
<title>Node2&#45;&gt;Node1</title>
<path fill="none" stroke="midnightblue" d="M1529.98,-280.19C1587.34,-264.69 1670.34,-240.07 1740,-210.83 1766.66,-199.64 1795.6,-183.65 1815.55,-171.98"/>
<polygon fill="midnightblue" stroke="midnightblue" points="1529.04,-276.82 1520.29,-282.79 1530.85,-283.58 1529.04,-276.82"/>
</g>
<!-- Node3 -->
<g id="node3" class="node">
<title>Node3</title>
<g id="a_node3"><a xlink:href="classitk_1_1LightObject.html" target="_top" xlink:title="Light weight base class for most itk classes.">
<polygon fill="white" stroke="black" points="1019,-348.33 1019,-367.33 1110,-367.33 1110,-348.33 1019,-348.33"/>
<text text-anchor="middle" x="1064.5" y="-355.33" font-family="Helvetica,sans-Serif" font-size="10.00">itk::LightObject</text>
</a>
</g>
</g>
<!-- Node3&#45;&gt;Node2 -->
<g id="edge2" class="edge">
<title>Node3&#45;&gt;Node2</title>
<path fill="none" stroke="midnightblue" d="M1120.19,-349.48C1190.53,-338.75 1312.75,-320.09 1389.44,-308.38"/>
<polygon fill="midnightblue" stroke="midnightblue" points="1119.56,-346.04 1110.2,-351.01 1120.61,-352.96 1119.56,-346.04"/>
</g>
<!-- Node4 -->
<g id="node4" class="node">
<title>Node4</title>
<g id="a_node4"><a xlink:title=" ">
<polygon fill="white" stroke="#bfbfbf" points="695.5,-360.33 695.5,-379.33 802.5,-379.33 802.5,-360.33 695.5,-360.33"/>
<text text-anchor="middle" x="749" y="-367.33" font-family="Helvetica,sans-Serif" font-size="10.00">std::atomic&lt; int &gt;</text>
</a>
</g>
</g>
<!-- Node4&#45;&gt;Node3 -->
<g id="edge3" class="edge">
<title>Node4&#45;&gt;Node3</title>
<path fill="none" stroke="#9a32cd" stroke-dasharray="5,2" d="M813.09,-367.42C874,-365.09 964.71,-361.62 1018.6,-359.55"/>
<polygon fill="#9a32cd" stroke="#9a32cd" points="812.69,-363.93 802.83,-367.81 812.95,-370.93 812.69,-363.93"/>
<text text-anchor="middle" x="902.5" y="-367.83" font-family="Helvetica,sans-Serif" font-size="10.00"> m_ReferenceCount</text>
</g>
<!-- Node5 -->
<g id="node5" class="node">
<title>Node5</title>
<g id="a_node5"><a xlink:title="STL class.">
<polygon fill="white" stroke="#bfbfbf" points="333.5,-360.33 333.5,-379.33 433.5,-379.33 433.5,-360.33 333.5,-360.33"/>
<text text-anchor="middle" x="383.5" y="-367.33" font-family="Helvetica,sans-Serif" font-size="10.00">std::atomic&lt; T &gt;</text>
</a>
</g>
</g>
<!-- Node5&#45;&gt;Node4 -->
<g id="edge4" class="edge">
<title>Node5&#45;&gt;Node4</title>
<path fill="none" stroke="orange" stroke-dasharray="5,2" d="M443.91,-369.83C513.75,-369.83 628.57,-369.83 695.35,-369.83"/>
<polygon fill="orange" stroke="orange" points="443.52,-366.33 433.52,-369.83 443.52,-373.33 443.52,-366.33"/>
<text text-anchor="middle" x="566.5" y="-372.83" font-family="Helvetica,sans-Serif" font-size="10.00"> &lt; int &gt;</text>
</g>
<!-- Node6 -->
<g id="node6" class="node">
<title>Node6</title>
<g id="a_node6"><a xlink:title=" ">
<polygon fill="white" stroke="#bfbfbf" points="57.5,-339.33 57.5,-358.33 86.5,-358.33 86.5,-339.33 57.5,-339.33"/>
<text text-anchor="middle" x="72" y="-346.33" font-family="Helvetica,sans-Serif" font-size="10.00">T</text>
</a>
</g>
</g>
<!-- Node6&#45;&gt;Node5 -->
<g id="edge5" class="edge">
<title>Node6&#45;&gt;Node5</title>
<path fill="none" stroke="#9a32cd" stroke-dasharray="5,2" d="M96.95,-350.46C147.49,-353.89 265.92,-361.92 333.31,-366.5"/>
<polygon fill="#9a32cd" stroke="#9a32cd" points="96.91,-346.95 86.7,-349.76 96.44,-353.93 96.91,-346.95"/>
<text text-anchor="middle" x="220" y="-364.83" font-family="Helvetica,sans-Serif" font-size="10.00"> ptr</text>
</g>
<!-- Node11 -->
<g id="node11" class="node">
<title>Node11</title>
<g id="a_node11"><a xlink:title="STL class.">
<polygon fill="white" stroke="#bfbfbf" points="518.5,-322.33 518.5,-341.33 614.5,-341.33 614.5,-322.33 518.5,-322.33"/>
<text text-anchor="middle" x="566.5" y="-329.33" font-family="Helvetica,sans-Serif" font-size="10.00">std::deque&lt; T &gt;</text>
</a>
</g>
</g>
<!-- Node6&#45;&gt;Node11 -->
<g id="edge11" class="edge">
<title>Node6&#45;&gt;Node11</title>
<path fill="none" stroke="#9a32cd" stroke-dasharray="5,2" d="M96.66,-345.92C114.57,-343.83 139.79,-341.17 162,-339.83 290.69,-332.06 442.84,-331.33 518.24,-331.53"/>
<polygon fill="#9a32cd" stroke="#9a32cd" points="96.06,-342.46 86.54,-347.12 96.89,-349.41 96.06,-342.46"/>
<text text-anchor="middle" x="220" y="-342.83" font-family="Helvetica,sans-Serif" font-size="10.00"> elements</text>
</g>
<!-- Node7 -->
<g id="node7" class="node">
<title>Node7</title>
<g id="a_node7"><a xlink:title=" ">
<polygon fill="white" stroke="#bfbfbf" points="998,-288.33 998,-307.33 1131,-307.33 1131,-288.33 998,-288.33"/>
<text text-anchor="middle" x="1064.5" y="-295.33" font-family="Helvetica,sans-Serif" font-size="10.00">std::deque&lt; LineType &gt;</text>
</a>
</g>
</g>
<!-- Node7&#45;&gt;Node2 -->
<g id="edge6" class="edge">
<title>Node7&#45;&gt;Node2</title>
<path fill="none" stroke="#9a32cd" stroke-dasharray="5,2" d="M1141.6,-297.83C1213.3,-297.83 1319.8,-297.83 1389.2,-297.83"/>
<polygon fill="#9a32cd" stroke="#9a32cd" points="1141.28,-294.33 1131.28,-297.83 1141.28,-301.33 1141.28,-294.33"/>
<text text-anchor="middle" x="1255.5" y="-300.83" font-family="Helvetica,sans-Serif" font-size="10.00"> m_LineContainer</text>
</g>
<!-- Node8 -->
<g id="node8" class="node">
<title>Node8</title>
<g id="a_node8"><a xlink:href="classitk_1_1LabelObjectLine.html" target="_top" xlink:title=" ">
<polygon fill="white" stroke="black" points="684.5,-263.83 684.5,-293.83 813.5,-293.83 813.5,-263.83 684.5,-263.83"/>
<text text-anchor="start" x="692.5" y="-281.83" font-family="Helvetica,sans-Serif" font-size="10.00">itk::LabelObjectLine</text>
<text text-anchor="middle" x="749" y="-270.83" font-family="Helvetica,sans-Serif" font-size="10.00">&lt; VImageDimension &gt;</text>
</a>
</g>
</g>
<!-- Node8&#45;&gt;Node7 -->
<g id="edge7" class="edge">
<title>Node8&#45;&gt;Node7</title>
<path fill="none" stroke="#9a32cd" stroke-dasharray="5,2" d="M824.13,-283.33C876.89,-286.52 947.15,-290.78 997.88,-293.86"/>
<polygon fill="#9a32cd" stroke="#9a32cd" points="824.01,-279.81 813.82,-282.7 823.59,-286.8 824.01,-279.81"/>
<text text-anchor="middle" x="902.5" y="-292.83" font-family="Helvetica,sans-Serif" font-size="10.00"> elements</text>
</g>
<!-- Node9 -->
<g id="node9" class="node">
<title>Node9</title>
<g id="a_node9"><a xlink:href="structitk_1_1Index.html" target="_top" xlink:title=" ">
<polygon fill="white" stroke="black" points="296,-277.33 296,-296.33 471,-296.33 471,-277.33 296,-277.33"/>
<text text-anchor="middle" x="383.5" y="-284.33" font-family="Helvetica,sans-Serif" font-size="10.00">itk::Index&lt; VImageDimension &gt;</text>
</a>
</g>
</g>
<!-- Node9&#45;&gt;Node8 -->
<g id="edge8" class="edge">
<title>Node9&#45;&gt;Node8</title>
<path fill="none" stroke="#9a32cd" stroke-dasharray="5,2" d="M481.26,-284.7C545.53,-283.29 628.12,-281.47 684.25,-280.24"/>
<polygon fill="#9a32cd" stroke="#9a32cd" points="481.03,-281.21 471.11,-284.93 481.18,-288.21 481.03,-281.21"/>
<text text-anchor="middle" x="566.5" y="-286.83" font-family="Helvetica,sans-Serif" font-size="10.00"> m_Index</text>
</g>
<!-- Node10 -->
<g id="node10" class="node">
<title>Node10</title>
<g id="a_node10"><a xlink:href="structitk_1_1Index.html" target="_top" xlink:title="Represent a n&#45;dimensional index in a n&#45;dimensional image.">
<polygon fill="white" stroke="black" points="0,-277.33 0,-296.33 144,-296.33 144,-277.33 0,-277.33"/>
<text text-anchor="middle" x="72" y="-284.33" font-family="Helvetica,sans-Serif" font-size="10.00">itk::Index&lt; VDimension &gt;</text>
</a>
</g>
</g>
<!-- Node10&#45;&gt;Node9 -->
<g id="edge9" class="edge">
<title>Node10&#45;&gt;Node9</title>
<path fill="none" stroke="orange" stroke-dasharray="5,2" d="M154.27,-286.83C197.82,-286.83 251.48,-286.83 295.82,-286.83"/>
<polygon fill="orange" stroke="orange" points="154.01,-283.33 144.01,-286.83 154.01,-290.33 154.01,-283.33"/>
<text text-anchor="middle" x="220" y="-289.83" font-family="Helvetica,sans-Serif" font-size="10.00"> &lt; VImageDimension &gt;</text>
</g>
<!-- Node11&#45;&gt;Node7 -->
<g id="edge10" class="edge">
<title>Node11&#45;&gt;Node7</title>
<path fill="none" stroke="orange" stroke-dasharray="5,2" d="M624.64,-327.92C717.27,-321.57 899.71,-309.06 997.65,-302.35"/>
<polygon fill="orange" stroke="orange" points="624.35,-324.43 614.61,-328.6 624.83,-331.41 624.35,-324.43"/>
<text text-anchor="middle" x="749" y="-327.83" font-family="Helvetica,sans-Serif" font-size="10.00"> &lt; LineType &gt;</text>
</g>
<!-- Node12 -->
<g id="node12" class="node">
<title>Node12</title>
<g id="a_node12"><a xlink:href="classitk_1_1Point.html" target="_top" xlink:title=" ">
<polygon fill="white" stroke="black" points="1399,-118.83 1399,-148.83 1520,-148.83 1520,-118.83 1399,-118.83"/>
<text text-anchor="start" x="1407" y="-136.83" font-family="Helvetica,sans-Serif" font-size="10.00">itk::Point&lt; double,</text>
<text text-anchor="middle" x="1459.5" y="-125.83" font-family="Helvetica,sans-Serif" font-size="10.00"> VImageDimension &gt;</text>
</a>
</g>
</g>
<!-- Node12&#45;&gt;Node1 -->
<g id="edge12" class="edge">
<title>Node12&#45;&gt;Node1</title>
<path fill="none" stroke="#9a32cd" stroke-dasharray="5,2" d="M1530.38,-131.5C1587.03,-130.41 1668.86,-130.65 1740,-137.83 1749.54,-138.8 1759.53,-140.2 1769.35,-141.81"/>
<polygon fill="#9a32cd" stroke="#9a32cd" points="1530.03,-128.01 1520.1,-131.72 1530.17,-135.01 1530.03,-128.01"/>
<text text-anchor="middle" x="1663" y="-151.83" font-family="Helvetica,sans-Serif" font-size="10.00"> m_OrientedBoundingBoxOrigin</text>
<text text-anchor="middle" x="1663" y="-140.83" font-family="Helvetica,sans-Serif" font-size="10.00">m_Centroid</text>
</g>
<!-- Node13 -->
<g id="node13" class="node">
<title>Node13</title>
<g id="a_node13"><a xlink:href="classitk_1_1FixedArray.html" target="_top" xlink:title=" ">
<polygon fill="white" stroke="black" points="682,-118.83 682,-148.83 816,-148.83 816,-118.83 682,-118.83"/>
<text text-anchor="start" x="690" y="-136.83" font-family="Helvetica,sans-Serif" font-size="10.00">itk::FixedArray&lt; double,</text>
<text text-anchor="middle" x="749" y="-125.83" font-family="Helvetica,sans-Serif" font-size="10.00"> VPointDimension &gt;</text>
</a>
</g>
</g>
<!-- Node13&#45;&gt;Node12 -->
<g id="edge13" class="edge">
<title>Node13&#45;&gt;Node12</title>
<path fill="none" stroke="midnightblue" d="M826.38,-133.83C968.49,-133.83 1270.7,-133.83 1398.95,-133.83"/>
<polygon fill="midnightblue" stroke="midnightblue" points="826.02,-130.33 816.02,-133.83 826.02,-137.33 826.02,-130.33"/>
</g>
<!-- Node14 -->
<g id="node14" class="node">
<title>Node14</title>
<g id="a_node14"><a xlink:title=" ">
<polygon fill="white" stroke="#bfbfbf" points="355.5,-87.33 355.5,-106.33 411.5,-106.33 411.5,-87.33 355.5,-87.33"/>
<text text-anchor="middle" x="383.5" y="-94.33" font-family="Helvetica,sans-Serif" font-size="10.00">VLength</text>
</a>
</g>
</g>
<!-- Node14&#45;&gt;Node13 -->
<g id="edge14" class="edge">
<title>Node14&#45;&gt;Node13</title>
<path fill="none" stroke="#9a32cd" stroke-dasharray="5,2" d="M407.93,-82.08C456.68,-53.45 570.6,2.43 644,-49.83 663.92,-64.02 644.91,-84.34 662,-101.83 668.9,-108.9 677.51,-114.42 686.58,-118.73"/>
<polygon fill="#9a32cd" stroke="#9a32cd" points="406.11,-79.09 399.34,-87.24 409.72,-85.09 406.11,-79.09"/>
<text text-anchor="middle" x="566.5" y="-52.83" font-family="Helvetica,sans-Serif" font-size="10.00"> m_InternalArray</text>
</g>
<!-- Node17 -->
<g id="node17" class="node">
<title>Node17</title>
<g id="a_node17"><a xlink:href="classitk_1_1FixedArray.html" target="_top" xlink:title=" ">
<polygon fill="white" stroke="black" points="662,-73.33 662,-92.33 836,-92.33 836,-73.33 662,-73.33"/>
<text text-anchor="middle" x="749" y="-80.33" font-family="Helvetica,sans-Serif" font-size="10.00">itk::FixedArray&lt; TCoordRep, 3 &gt;</text>
</a>
</g>
</g>
<!-- Node14&#45;&gt;Node17 -->
<g id="edge18" class="edge">
<title>Node14&#45;&gt;Node17</title>
<path fill="none" stroke="#9a32cd" stroke-dasharray="5,2" d="M399.58,-79.7C418.26,-59.9 452.16,-28.44 489,-15.83 554.18,6.47 577.91,3.61 644,-15.83 682.53,-27.17 720.26,-57.7 737.8,-73.33"/>
<polygon fill="#9a32cd" stroke="#9a32cd" points="396.94,-77.4 392.76,-87.14 402.09,-82.13 396.94,-77.4"/>
<text text-anchor="middle" x="566.5" y="-18.83" font-family="Helvetica,sans-Serif" font-size="10.00"> m_InternalArray</text>
</g>
<!-- Node21 -->
<g id="node21" class="node">
<title>Node21</title>
<g id="a_node21"><a xlink:href="classitk_1_1FixedArray.html" target="_top" xlink:title=" ">
<polygon fill="white" stroke="black" points="682,-208.83 682,-238.83 816,-238.83 816,-208.83 682,-208.83"/>
<text text-anchor="start" x="690" y="-226.83" font-family="Helvetica,sans-Serif" font-size="10.00">itk::FixedArray&lt; double,</text>
<text text-anchor="middle" x="749" y="-215.83" font-family="Helvetica,sans-Serif" font-size="10.00"> VVectorDimension &gt;</text>
</a>
</g>
</g>
<!-- Node14&#45;&gt;Node21 -->
<g id="edge24" class="edge">
<title>Node14&#45;&gt;Node21</title>
<path fill="none" stroke="#9a32cd" stroke-dasharray="5,2" d="M414.48,-110.86C431.74,-119.55 453.41,-131.57 471,-144.83 480.03,-151.64 478.86,-157.81 489,-162.83 551.29,-193.7 580.37,-155.82 644,-183.83 653.53,-188.03 652.81,-193.94 662,-198.83 669.14,-202.63 676.93,-205.92 684.8,-208.74"/>
<polygon fill="#9a32cd" stroke="#9a32cd" points="415.92,-107.67 405.41,-106.38 412.83,-113.94 415.92,-107.67"/>
<text text-anchor="middle" x="566.5" y="-186.83" font-family="Helvetica,sans-Serif" font-size="10.00"> m_InternalArray</text>
</g>
<!-- Node23 -->
<g id="node23" class="node">
<title>Node23</title>
<g id="a_node23"><a xlink:href="classitk_1_1FixedArray.html" target="_top" xlink:title=" ">
<polygon fill="white" stroke="black" points="685,-170.33 685,-189.33 813,-189.33 813,-170.33 685,-170.33"/>
<text text-anchor="middle" x="749" y="-177.33" font-family="Helvetica,sans-Serif" font-size="10.00">itk::FixedArray&lt; T, 3 &gt;</text>
</a>
</g>
</g>
<!-- Node14&#45;&gt;Node23 -->
<g id="edge28" class="edge">
<title>Node14&#45;&gt;Node23</title>
<path fill="none" stroke="#9a32cd" stroke-dasharray="5,2" d="M422.11,-96.49C485.15,-96.61 608.69,-100 644,-123.83 658.17,-133.4 648.57,-147.25 662,-157.83 668.78,-163.17 676.71,-167.23 684.96,-170.31"/>
<polygon fill="#9a32cd" stroke="#9a32cd" points="421.81,-92.99 411.81,-96.5 421.81,-99.99 421.81,-92.99"/>
<text text-anchor="middle" x="566.5" y="-126.83" font-family="Helvetica,sans-Serif" font-size="10.00"> m_InternalArray</text>
</g>
<!-- Node15 -->
<g id="node15" class="node">
<title>Node15</title>
<g id="a_node15"><a xlink:href="classitk_1_1FixedArray.html" target="_top" xlink:title="Simulate a standard C array with copy semantics.">
<polygon fill="white" stroke="black" points="316.5,-154.83 316.5,-184.83 450.5,-184.83 450.5,-154.83 316.5,-154.83"/>
<text text-anchor="start" x="324.5" y="-172.83" font-family="Helvetica,sans-Serif" font-size="10.00">itk::FixedArray&lt; TValue,</text>
<text text-anchor="middle" x="383.5" y="-161.83" font-family="Helvetica,sans-Serif" font-size="10.00"> VLength &gt;</text>
</a>
</g>
</g>
<!-- Node15&#45;&gt;Node13 -->
<g id="edge15" class="edge">
<title>Node15&#45;&gt;Node13</title>
<path fill="none" stroke="orange" stroke-dasharray="5,2" d="M460.58,-155.81C470.13,-154.32 479.78,-152.95 489,-151.83 554.33,-143.96 629.39,-139.21 681.82,-136.59"/>
<polygon fill="orange" stroke="orange" points="460.01,-152.35 450.69,-157.39 461.12,-159.27 460.01,-152.35"/>
<text text-anchor="middle" x="566.5" y="-154.83" font-family="Helvetica,sans-Serif" font-size="10.00"> &lt; double, VPointDimension &gt;</text>
</g>
<!-- Node15&#45;&gt;Node17 -->
<g id="edge19" class="edge">
<title>Node15&#45;&gt;Node17</title>
<path fill="none" stroke="orange" stroke-dasharray="5,2" d="M425.74,-149.75C441.2,-140.85 458.12,-129.32 471,-115.83 482.27,-104.04 474.93,-92.1 489,-83.83 517.4,-67.15 598.11,-69.23 661.97,-74.07"/>
<polygon fill="orange" stroke="orange" points="423.89,-146.77 416.84,-154.68 427.29,-152.89 423.89,-146.77"/>
<text text-anchor="middle" x="566.5" y="-86.83" font-family="Helvetica,sans-Serif" font-size="10.00"> &lt; TCoordRep, 3 &gt;</text>
</g>
<!-- Node15&#45;&gt;Node21 -->
<g id="edge25" class="edge">
<title>Node15&#45;&gt;Node21</title>
<path fill="none" stroke="orange" stroke-dasharray="5,2" d="M418.59,-189.8C438.42,-200.29 464.31,-212.14 489,-217.83 553.31,-232.68 629,-232.48 681.89,-229.6"/>
<polygon fill="orange" stroke="orange" points="420.11,-186.64 409.65,-184.94 416.77,-192.79 420.11,-186.64"/>
<text text-anchor="middle" x="566.5" y="-233.83" font-family="Helvetica,sans-Serif" font-size="10.00"> &lt; double, VVectorDimension &gt;</text>
</g>
<!-- Node15&#45;&gt;Node23 -->
<g id="edge29" class="edge">
<title>Node15&#45;&gt;Node23</title>
<path fill="none" stroke="orange" stroke-dasharray="5,2" d="M441.89,-187.44C457.06,-191.32 473.52,-194.87 489,-196.83 557.34,-205.52 575.34,-202.41 644,-196.83 662.42,-195.34 682.49,-192.38 700.05,-189.34"/>
<polygon fill="orange" stroke="orange" points="442.69,-184.03 432.13,-184.85 440.9,-190.79 442.69,-184.03"/>
<text text-anchor="middle" x="566.5" y="-205.83" font-family="Helvetica,sans-Serif" font-size="10.00"> &lt; T, 3 &gt;</text>
</g>
<!-- Node16 -->
<g id="node16" class="node">
<title>Node16</title>
<g id="a_node16"><a xlink:href="classitk_1_1Point.html" target="_top" xlink:title="A templated class holding a geometric point in n&#45;Dimensional space.">
<polygon fill="white" stroke="black" points="1001,-74.83 1001,-104.83 1128,-104.83 1128,-74.83 1001,-74.83"/>
<text text-anchor="start" x="1009" y="-92.83" font-family="Helvetica,sans-Serif" font-size="10.00">itk::Point&lt; TCoordRep,</text>
<text text-anchor="middle" x="1064.5" y="-81.83" font-family="Helvetica,sans-Serif" font-size="10.00"> VPointDimension &gt;</text>
</a>
</g>
</g>
<!-- Node16&#45;&gt;Node12 -->
<g id="edge16" class="edge">
<title>Node16&#45;&gt;Node12</title>
<path fill="none" stroke="orange" stroke-dasharray="5,2" d="M1138.31,-92.53C1192.24,-95.13 1267.44,-100.01 1333,-108.83 1354.58,-111.74 1378.03,-116.08 1398.75,-120.34"/>
<polygon fill="orange" stroke="orange" points="1138.31,-89.03 1128.15,-92.06 1137.98,-96.02 1138.31,-89.03"/>
<text text-anchor="middle" x="1255.5" y="-111.83" font-family="Helvetica,sans-Serif" font-size="10.00"> &lt; double, VImageDimension &gt;</text>
</g>
<!-- Node17&#45;&gt;Node16 -->
<g id="edge17" class="edge">
<title>Node17&#45;&gt;Node16</title>
<path fill="none" stroke="midnightblue" d="M846.33,-84.98C896.64,-86.11 956.76,-87.45 1000.98,-88.44"/>
<polygon fill="midnightblue" stroke="midnightblue" points="846.16,-81.48 836.08,-84.76 846,-88.48 846.16,-81.48"/>
</g>
<!-- Node18 -->
<g id="node18" class="node">
<title>Node18</title>
<g id="a_node18"><a xlink:href="classitk_1_1Matrix.html" target="_top" xlink:title=" ">
<polygon fill="white" stroke="black" points="1351,-47.83 1351,-77.83 1568,-77.83 1568,-47.83 1351,-47.83"/>
<text text-anchor="start" x="1359" y="-65.83" font-family="Helvetica,sans-Serif" font-size="10.00">itk::Matrix&lt; double,</text>
<text text-anchor="middle" x="1459.5" y="-54.83" font-family="Helvetica,sans-Serif" font-size="10.00"> VImageDimension, VImageDimension &gt;</text>
</a>
</g>
</g>
<!-- Node18&#45;&gt;Node1 -->
<g id="edge20" class="edge">
<title>Node18&#45;&gt;Node1</title>
<path fill="none" stroke="#9a32cd" stroke-dasharray="5,2" d="M1572.99,-79.6C1624.44,-88.53 1685.86,-100.98 1740,-116.83 1762.89,-123.54 1787.8,-133.43 1807.1,-141.7"/>
<polygon fill="#9a32cd" stroke="#9a32cd" points="1573.28,-76.1 1562.83,-77.86 1572.1,-83 1573.28,-76.1"/>
<text text-anchor="middle" x="1663" y="-119.83" font-family="Helvetica,sans-Serif" font-size="10.00"> m_PrincipalAxes</text>
</g>
<!-- Node19 -->
<g id="node19" class="node">
<title>Node19</title>
<g id="a_node19"><a xlink:href="classitk_1_1Matrix.html" target="_top" xlink:title="A templated class holding a M x N size Matrix.">
<polygon fill="white" stroke="black" points="1001.5,-25.83 1001.5,-55.83 1127.5,-55.83 1127.5,-25.83 1001.5,-25.83"/>
<text text-anchor="start" x="1009.5" y="-43.83" font-family="Helvetica,sans-Serif" font-size="10.00">itk::Matrix&lt; T, VRows,</text>
<text text-anchor="middle" x="1064.5" y="-32.83" font-family="Helvetica,sans-Serif" font-size="10.00"> VColumns &gt;</text>
</a>
</g>
</g>
<!-- Node19&#45;&gt;Node18 -->
<g id="edge21" class="edge">
<title>Node19&#45;&gt;Node18</title>
<path fill="none" stroke="orange" stroke-dasharray="5,2" d="M1137.8,-44.4C1191.64,-47.1 1266.92,-51 1333,-54.83 1338.78,-55.17 1344.7,-55.52 1350.68,-55.88"/>
<polygon fill="orange" stroke="orange" points="1137.83,-40.89 1127.67,-43.89 1137.48,-47.88 1137.83,-40.89"/>
<text text-anchor="start" x="1182" y="-68.83" font-family="Helvetica,sans-Serif" font-size="10.00"> &lt; double, VImageDimension,</text>
<text text-anchor="middle" x="1255.5" y="-57.83" font-family="Helvetica,sans-Serif" font-size="10.00"> VImageDimension &gt;</text>
</g>
<!-- Node20 -->
<g id="node20" class="node">
<title>Node20</title>
<g id="a_node20"><a xlink:href="classitk_1_1Vector.html" target="_top" xlink:title=" ">
<polygon fill="white" stroke="black" points="1399,-167.83 1399,-197.83 1520,-197.83 1520,-167.83 1399,-167.83"/>
<text text-anchor="start" x="1407" y="-185.83" font-family="Helvetica,sans-Serif" font-size="10.00">itk::Vector&lt; double,</text>
<text text-anchor="middle" x="1459.5" y="-174.83" font-family="Helvetica,sans-Serif" font-size="10.00"> VImageDimension &gt;</text>
</a>
</g>
</g>
<!-- Node20&#45;&gt;Node1 -->
<g id="edge22" class="edge">
<title>Node20&#45;&gt;Node1</title>
<path fill="none" stroke="#9a32cd" stroke-dasharray="5,2" d="M1530.32,-178.06C1594.52,-173.66 1689.77,-167.15 1757.77,-162.49"/>
<polygon fill="#9a32cd" stroke="#9a32cd" points="1530.03,-174.57 1520.29,-178.74 1530.51,-181.55 1530.03,-174.57"/>
<text text-anchor="middle" x="1663" y="-198.83" font-family="Helvetica,sans-Serif" font-size="10.00"> m_PrincipalMoments</text>
<text text-anchor="middle" x="1663" y="-187.83" font-family="Helvetica,sans-Serif" font-size="10.00">m_EquivalentEllipsoidDiameter</text>
<text text-anchor="middle" x="1663" y="-176.83" font-family="Helvetica,sans-Serif" font-size="10.00">m_OrientedBoundingBoxSize</text>
</g>
<!-- Node21&#45;&gt;Node20 -->
<g id="edge23" class="edge">
<title>Node21&#45;&gt;Node20</title>
<path fill="none" stroke="midnightblue" d="M826.25,-222.24C937.71,-219.5 1151.6,-212.7 1333,-197.83 1354.54,-196.07 1378.09,-193.44 1398.9,-190.88"/>
<polygon fill="midnightblue" stroke="midnightblue" points="826.02,-218.75 816.11,-222.49 826.19,-225.74 826.02,-218.75"/>
</g>
<!-- Node22 -->
<g id="node22" class="node">
<title>Node22</title>
<g id="a_node22"><a xlink:href="classitk_1_1Vector.html" target="_top" xlink:title="A templated class holding a n&#45;Dimensional vector.">
<polygon fill="white" stroke="black" points="969,-171.33 969,-190.33 1160,-190.33 1160,-171.33 969,-171.33"/>
<text text-anchor="middle" x="1064.5" y="-178.33" font-family="Helvetica,sans-Serif" font-size="10.00">itk::Vector&lt; T, VVectorDimension &gt;</text>
</a>
</g>
</g>
<!-- Node22&#45;&gt;Node20 -->
<g id="edge26" class="edge">
<title>Node22&#45;&gt;Node20</title>
<path fill="none" stroke="orange" stroke-dasharray="5,2" d="M1170.3,-181.37C1243.41,-181.74 1338.36,-182.22 1398.88,-182.53"/>
<polygon fill="orange" stroke="orange" points="1170.15,-177.87 1160.13,-181.32 1170.12,-184.87 1170.15,-177.87"/>
<text text-anchor="middle" x="1255.5" y="-185.83" font-family="Helvetica,sans-Serif" font-size="10.00"> &lt; double, VImageDimension &gt;</text>
</g>
<!-- Node23&#45;&gt;Node22 -->
<g id="edge27" class="edge">
<title>Node23&#45;&gt;Node22</title>
<path fill="none" stroke="midnightblue" d="M823.27,-180.07C866.73,-180.21 922.27,-180.38 969,-180.53"/>
<polygon fill="midnightblue" stroke="midnightblue" points="823.08,-176.57 813.06,-180.04 823.05,-183.57 823.08,-176.57"/>
</g>
</g>
</svg>
