<?xml version="1.0" encoding="UTF-8" standalone="no"?>
<!DOCTYPE svg PUBLIC "-//W3C//DTD SVG 1.1//EN"
 "http://www.w3.org/Graphics/SVG/1.1/DTD/svg11.dtd">
<!-- Generated by graphviz version 2.43.0 (0)
 -->
<!-- Title: itk::CorrelationImageToImageMetricv4HelperThreader&lt; TDomainPartitioner, TImageToImageMetric, TCorrelationMetric &gt; Pages: 1 -->
<svg width="601pt" height="110pt"
 viewBox="0.00 0.00 601.00 110.00" xmlns="http://www.w3.org/2000/svg" xmlns:xlink="http://www.w3.org/1999/xlink">
<g id="graph0" class="graph" transform="scale(1 1) rotate(0) translate(4 106)">
<title>itk::CorrelationImageToImageMetricv4HelperThreader&lt; TDomainPartitioner, TImageToImageMetric, TCorrelationMetric &gt;</title>
<polygon fill="white" stroke="transparent" points="-4,4 -4,-106 597,-106 597,4 -4,4"/>
<!-- Node1 -->
<g id="node1" class="node">
<title>Node1</title>
<g id="a_node1"><a xlink:title=" ">
<polygon fill="#bfbfbf" stroke="black" points="395,-19.5 395,-71.5 593,-71.5 593,-19.5 395,-19.5"/>
<text text-anchor="start" x="403" y="-59.5" font-family="Helvetica,sans-Serif" font-size="10.00">itk::CorrelationImageToImage</text>
<text text-anchor="start" x="403" y="-48.5" font-family="Helvetica,sans-Serif" font-size="10.00">Metricv4HelperThreader&lt;</text>
<text text-anchor="start" x="403" y="-37.5" font-family="Helvetica,sans-Serif" font-size="10.00"> TDomainPartitioner, TImageToImage</text>
<text text-anchor="middle" x="494" y="-26.5" font-family="Helvetica,sans-Serif" font-size="10.00">Metric, TCorrelationMetric &gt;</text>
</a>
</g>
</g>
<!-- Node2 -->
<g id="node2" class="node">
<title>Node2</title>
<g id="a_node2"><a xlink:href="classitk_1_1ImageToImageMetricv4GetValueAndDerivativeThreader.html" target="_top" xlink:title=" ">
<polygon fill="white" stroke="black" points="0,-49.5 0,-101.5 206,-101.5 206,-49.5 0,-49.5"/>
<text text-anchor="start" x="8" y="-89.5" font-family="Helvetica,sans-Serif" font-size="10.00">itk::ImageToImageMetricv4</text>
<text text-anchor="start" x="8" y="-78.5" font-family="Helvetica,sans-Serif" font-size="10.00">GetValueAndDerivativeThreader</text>
<text text-anchor="start" x="8" y="-67.5" font-family="Helvetica,sans-Serif" font-size="10.00">&lt; TDomainPartitioner, TImageToImage</text>
<text text-anchor="middle" x="103" y="-56.5" font-family="Helvetica,sans-Serif" font-size="10.00">Metric &gt;</text>
</a>
</g>
</g>
<!-- Node2&#45;&gt;Node1 -->
<g id="edge1" class="edge">
<title>Node2&#45;&gt;Node1</title>
<path fill="none" stroke="midnightblue" d="M216.25,-66.84C272.7,-62.49 340.48,-57.26 394.83,-53.07"/>
<polygon fill="midnightblue" stroke="midnightblue" points="215.91,-63.36 206.21,-67.62 216.44,-70.34 215.91,-63.36"/>
</g>
<!-- Node3 -->
<g id="node3" class="node">
<title>Node3</title>
<g id="a_node3"><a xlink:title=" ">
<polygon fill="white" stroke="black" points="5.5,-0.5 5.5,-30.5 200.5,-30.5 200.5,-0.5 5.5,-0.5"/>
<text text-anchor="start" x="13.5" y="-18.5" font-family="Helvetica,sans-Serif" font-size="10.00">std::unique_ptr&lt; Aligned</text>
<text text-anchor="middle" x="103" y="-7.5" font-family="Helvetica,sans-Serif" font-size="10.00">CorrelationMetricPerThreadStruct[]&gt;</text>
</a>
</g>
</g>
<!-- Node3&#45;&gt;Node1 -->
<g id="edge2" class="edge">
<title>Node3&#45;&gt;Node1</title>
<path fill="none" stroke="#9a32cd" stroke-dasharray="5,2" d="M210.78,-18.16C261.26,-20.04 322.32,-23.2 377,-28.5 382.88,-29.07 388.91,-29.73 394.99,-30.45"/>
<polygon fill="#9a32cd" stroke="#9a32cd" points="210.62,-14.65 200.5,-17.79 210.37,-21.65 210.62,-14.65"/>
<text text-anchor="start" x="224" y="-42.5" font-family="Helvetica,sans-Serif" font-size="10.00"> m_CorrelationMetricPerThread</text>
<text text-anchor="middle" x="300.5" y="-31.5" font-family="Helvetica,sans-Serif" font-size="10.00">Variables</text>
</g>
</g>
</svg>
