<?xml version="1.0" encoding="UTF-8" standalone="no"?>
<!DOCTYPE svg PUBLIC "-//W3C//DTD SVG 1.1//EN"
 "http://www.w3.org/Graphics/SVG/1.1/DTD/svg11.dtd">
<!-- Generated by graphviz version 2.43.0 (0)
 -->
<!-- Title: itk::BMPImageIO Pages: 1 -->
<svg width="2191pt" height="676pt"
 viewBox="0.00 0.00 2191.00 675.50" xmlns="http://www.w3.org/2000/svg" xmlns:xlink="http://www.w3.org/1999/xlink">
<g id="graph0" class="graph" transform="scale(1 1) rotate(0) translate(4 671.5)">
<title>itk::BMPImageIO</title>
<polygon fill="white" stroke="transparent" points="-4,4 -4,-671.5 2187,-671.5 2187,4 -4,4"/>
<!-- Node1 -->
<g id="node1" class="node">
<title>Node1</title>
<g id="a_node1"><a xlink:title="Read BMPImage file format.">
<polygon fill="#bfbfbf" stroke="black" points="2085,-77 2085,-96 2183,-96 2183,-77 2085,-77"/>
<text text-anchor="middle" x="2134" y="-84" font-family="Helvetica,sans-Serif" font-size="10.00">itk::BMPImageIO</text>
</a>
</g>
</g>
<!-- Node2 -->
<g id="node2" class="node">
<title>Node2</title>
<g id="a_node2"><a xlink:href="classitk_1_1ImageIOBase.html" target="_top" xlink:title="Abstract superclass defines image IO interface.">
<polygon fill="white" stroke="black" points="1841.5,-302 1841.5,-321 1942.5,-321 1942.5,-302 1841.5,-302"/>
<text text-anchor="middle" x="1892" y="-309" font-family="Helvetica,sans-Serif" font-size="10.00">itk::ImageIOBase</text>
</a>
</g>
</g>
<!-- Node2&#45;&gt;Node1 -->
<g id="edge1" class="edge">
<title>Node2&#45;&gt;Node1</title>
<path fill="none" stroke="midnightblue" d="M1910.65,-294.95C1957.79,-250.76 2085.55,-130.98 2122.73,-96.13"/>
<polygon fill="midnightblue" stroke="midnightblue" points="1908.21,-292.44 1903.31,-301.83 1913,-297.55 1908.21,-292.44"/>
</g>
<!-- Node3 -->
<g id="node3" class="node">
<title>Node3</title>
<g id="a_node3"><a xlink:href="classitk_1_1LightProcessObject.html" target="_top" xlink:title="LightProcessObject is the base class for all process objects (source, filters, mappers) in the Insigh...">
<polygon fill="white" stroke="black" points="1568,-533 1568,-552 1696,-552 1696,-533 1568,-533"/>
<text text-anchor="middle" x="1632" y="-540" font-family="Helvetica,sans-Serif" font-size="10.00">itk::LightProcessObject</text>
</a>
</g>
</g>
<!-- Node3&#45;&gt;Node2 -->
<g id="edge2" class="edge">
<title>Node3&#45;&gt;Node2</title>
<path fill="none" stroke="midnightblue" d="M1703.57,-530.56C1734.32,-522.52 1769.16,-509.24 1795,-487.5 1851.47,-440 1880.25,-350.47 1888.47,-321.1"/>
<polygon fill="midnightblue" stroke="midnightblue" points="1702.61,-527.19 1693.74,-532.99 1704.29,-533.99 1702.61,-527.19"/>
</g>
<!-- Node4 -->
<g id="node4" class="node">
<title>Node4</title>
<g id="a_node4"><a xlink:href="classitk_1_1Object.html" target="_top" xlink:title="Base class for most ITK classes.">
<polygon fill="white" stroke="black" points="1257,-557 1257,-576 1324,-576 1324,-557 1257,-557"/>
<text text-anchor="middle" x="1290.5" y="-564" font-family="Helvetica,sans-Serif" font-size="10.00">itk::Object</text>
</a>
</g>
</g>
<!-- Node4&#45;&gt;Node3 -->
<g id="edge3" class="edge">
<title>Node4&#45;&gt;Node3</title>
<path fill="none" stroke="midnightblue" d="M1334.12,-563.49C1393.02,-559.32 1499.7,-551.78 1567.86,-546.96"/>
<polygon fill="midnightblue" stroke="midnightblue" points="1333.78,-560 1324.05,-564.2 1334.27,-566.98 1333.78,-560"/>
</g>
<!-- Node5 -->
<g id="node5" class="node">
<title>Node5</title>
<g id="a_node5"><a xlink:href="classitk_1_1LightObject.html" target="_top" xlink:title="Light weight base class for most itk classes.">
<polygon fill="white" stroke="black" points="924,-647 924,-666 1015,-666 1015,-647 924,-647"/>
<text text-anchor="middle" x="969.5" y="-654" font-family="Helvetica,sans-Serif" font-size="10.00">itk::LightObject</text>
</a>
</g>
</g>
<!-- Node5&#45;&gt;Node4 -->
<g id="edge4" class="edge">
<title>Node5&#45;&gt;Node4</title>
<path fill="none" stroke="midnightblue" d="M1025.58,-657.5C1070.75,-656.68 1135.7,-651.67 1189,-632.5 1225.14,-619.5 1261.25,-591.09 1278.7,-576.14"/>
<polygon fill="midnightblue" stroke="midnightblue" points="1025.35,-654.01 1015.4,-657.62 1025.44,-661 1025.35,-654.01"/>
</g>
<!-- Node6 -->
<g id="node6" class="node">
<title>Node6</title>
<g id="a_node6"><a xlink:title=" ">
<polygon fill="white" stroke="black" points="647.5,-647 647.5,-666 754.5,-666 754.5,-647 647.5,-647"/>
<text text-anchor="middle" x="701" y="-654" font-family="Helvetica,sans-Serif" font-size="10.00">std::atomic&lt; int &gt;</text>
</a>
</g>
</g>
<!-- Node6&#45;&gt;Node5 -->
<g id="edge5" class="edge">
<title>Node6&#45;&gt;Node5</title>
<path fill="none" stroke="#9a32cd" stroke-dasharray="5,2" d="M764.8,-656.5C813.7,-656.5 880.37,-656.5 923.92,-656.5"/>
<polygon fill="#9a32cd" stroke="#9a32cd" points="764.65,-653 754.65,-656.5 764.65,-660 764.65,-653"/>
<text text-anchor="middle" x="834.5" y="-659.5" font-family="Helvetica,sans-Serif" font-size="10.00"> m_ReferenceCount</text>
</g>
<!-- Node7 -->
<g id="node7" class="node">
<title>Node7</title>
<g id="a_node7"><a xlink:href="classitk_1_1TimeStamp.html" target="_top" xlink:title="Generate a unique, increasing time value.">
<polygon fill="white" stroke="black" points="524,-609 524,-628 616,-628 616,-609 524,-609"/>
<text text-anchor="middle" x="570" y="-616" font-family="Helvetica,sans-Serif" font-size="10.00">itk::TimeStamp</text>
</a>
</g>
</g>
<!-- Node7&#45;&gt;Node4 -->
<g id="edge6" class="edge">
<title>Node7&#45;&gt;Node4</title>
<path fill="none" stroke="#9a32cd" stroke-dasharray="5,2" d="M626.3,-618.94C734.78,-619.07 982.91,-615.79 1189,-586.5 1211.72,-583.27 1237.06,-578.22 1256.61,-574"/>
<polygon fill="#9a32cd" stroke="#9a32cd" points="626.25,-615.44 616.24,-618.92 626.23,-622.44 626.25,-615.44"/>
<text text-anchor="middle" x="834.5" y="-619.5" font-family="Helvetica,sans-Serif" font-size="10.00"> m_MTime</text>
</g>
<!-- Node8 -->
<g id="node8" class="node">
<title>Node8</title>
<g id="a_node8"><a xlink:title=" ">
<polygon fill="white" stroke="black" points="114.5,-609 114.5,-628 214.5,-628 214.5,-609 114.5,-609"/>
<text text-anchor="middle" x="164.5" y="-616" font-family="Helvetica,sans-Serif" font-size="10.00">std::atomic&lt; T &gt;</text>
</a>
</g>
</g>
<!-- Node8&#45;&gt;Node7 -->
<g id="edge7" class="edge">
<title>Node8&#45;&gt;Node7</title>
<path fill="none" stroke="#9a32cd" stroke-dasharray="5,2" d="M224.66,-618.5C306.06,-618.5 450.8,-618.5 523.98,-618.5"/>
<polygon fill="#9a32cd" stroke="#9a32cd" points="224.57,-615 214.57,-618.5 224.57,-622 224.57,-615"/>
<text text-anchor="middle" x="286" y="-621.5" font-family="Helvetica,sans-Serif" font-size="10.00"> m_GlobalTimeStamp</text>
</g>
<!-- Node9 -->
<g id="node9" class="node">
<title>Node9</title>
<g id="a_node9"><a xlink:title=" ">
<polygon fill="white" stroke="black" points="0,-594 0,-613 29,-613 29,-594 0,-594"/>
<text text-anchor="middle" x="14.5" y="-601" font-family="Helvetica,sans-Serif" font-size="10.00">T</text>
</a>
</g>
</g>
<!-- Node9&#45;&gt;Node8 -->
<g id="edge8" class="edge">
<title>Node9&#45;&gt;Node8</title>
<path fill="none" stroke="#9a32cd" stroke-dasharray="5,2" d="M39.33,-605.92C59.54,-607.96 89.19,-610.97 114.45,-613.53"/>
<polygon fill="#9a32cd" stroke="#9a32cd" points="39.46,-602.41 29.16,-604.88 38.75,-609.37 39.46,-602.41"/>
<text text-anchor="middle" x="71.5" y="-613.5" font-family="Helvetica,sans-Serif" font-size="10.00"> ptr</text>
</g>
<!-- Node14 -->
<g id="node14" class="node">
<title>Node14</title>
<g id="a_node14"><a xlink:title=" ">
<polygon fill="white" stroke="black" points="114,-565 114,-584 215,-584 215,-565 114,-565"/>
<text text-anchor="middle" x="164.5" y="-572" font-family="Helvetica,sans-Serif" font-size="10.00">std::map&lt; K, T &gt;</text>
</a>
</g>
</g>
<!-- Node9&#45;&gt;Node14 -->
<g id="edge15" class="edge">
<title>Node9&#45;&gt;Node14</title>
<path fill="none" stroke="#9a32cd" stroke-dasharray="5,2" d="M38.7,-594.01C41.47,-593.07 44.28,-592.21 47,-591.5 68.66,-585.87 93.11,-581.94 113.99,-579.3"/>
<polygon fill="#9a32cd" stroke="#9a32cd" points="37.25,-590.82 29.09,-597.58 39.68,-597.38 37.25,-590.82"/>
<text text-anchor="middle" x="71.5" y="-594.5" font-family="Helvetica,sans-Serif" font-size="10.00"> elements</text>
</g>
<!-- Node10 -->
<g id="node10" class="node">
<title>Node10</title>
<g id="a_node10"><a xlink:title=" ">
<polygon fill="white" stroke="black" points="901,-510.5 901,-540.5 1038,-540.5 1038,-510.5 901,-510.5"/>
<text text-anchor="start" x="909" y="-528.5" font-family="Helvetica,sans-Serif" font-size="10.00">std::unique_ptr&lt; Subject</text>
<text text-anchor="middle" x="969.5" y="-517.5" font-family="Helvetica,sans-Serif" font-size="10.00">Implementation &gt;</text>
</a>
</g>
</g>
<!-- Node10&#45;&gt;Node4 -->
<g id="edge9" class="edge">
<title>Node10&#45;&gt;Node4</title>
<path fill="none" stroke="#9a32cd" stroke-dasharray="5,2" d="M1048.5,-535.47C1090.19,-540.81 1142.39,-547.5 1189,-553.5 1211.68,-556.42 1237.25,-559.73 1256.91,-562.27"/>
<polygon fill="#9a32cd" stroke="#9a32cd" points="1048.78,-531.98 1038.41,-534.18 1047.89,-538.92 1048.78,-531.98"/>
<text text-anchor="middle" x="1122.5" y="-556.5" font-family="Helvetica,sans-Serif" font-size="10.00"> m_SubjectImplementation</text>
</g>
<!-- Node11 -->
<g id="node11" class="node">
<title>Node11</title>
<g id="a_node11"><a xlink:title=" ">
<polygon fill="white" stroke="black" points="903.5,-559.5 903.5,-589.5 1035.5,-589.5 1035.5,-559.5 903.5,-559.5"/>
<text text-anchor="start" x="911.5" y="-577.5" font-family="Helvetica,sans-Serif" font-size="10.00">std::unique_ptr&lt; itk</text>
<text text-anchor="middle" x="969.5" y="-566.5" font-family="Helvetica,sans-Serif" font-size="10.00">::MetaDataDictionary &gt;</text>
</a>
</g>
</g>
<!-- Node11&#45;&gt;Node4 -->
<g id="edge10" class="edge">
<title>Node11&#45;&gt;Node4</title>
<path fill="none" stroke="#9a32cd" stroke-dasharray="5,2" d="M1045.92,-572.61C1112.93,-570.93 1207.69,-568.55 1256.93,-567.32"/>
<polygon fill="#9a32cd" stroke="#9a32cd" points="1045.73,-569.11 1035.82,-572.86 1045.91,-576.11 1045.73,-569.11"/>
<text text-anchor="middle" x="1122.5" y="-574.5" font-family="Helvetica,sans-Serif" font-size="10.00"> m_MetaDataDictionary</text>
</g>
<!-- Node12 -->
<g id="node12" class="node">
<title>Node12</title>
<g id="a_node12"><a xlink:href="classitk_1_1MetaDataDictionary.html" target="_top" xlink:title="Provides a mechanism for storing a collection of arbitrary data types.">
<polygon fill="white" stroke="black" points="634,-565 634,-584 768,-584 768,-565 634,-565"/>
<text text-anchor="middle" x="701" y="-572" font-family="Helvetica,sans-Serif" font-size="10.00">itk::MetaDataDictionary</text>
</a>
</g>
</g>
<!-- Node12&#45;&gt;Node11 -->
<g id="edge11" class="edge">
<title>Node12&#45;&gt;Node11</title>
<path fill="none" stroke="#9a32cd" stroke-dasharray="5,2" d="M778.32,-574.5C817.74,-574.5 865.36,-574.5 903.08,-574.5"/>
<polygon fill="#9a32cd" stroke="#9a32cd" points="778.22,-571 768.22,-574.5 778.22,-578 778.22,-571"/>
<text text-anchor="middle" x="834.5" y="-577.5" font-family="Helvetica,sans-Serif" font-size="10.00"> ptr</text>
</g>
<!-- Node13 -->
<g id="node13" class="node">
<title>Node13</title>
<g id="a_node13"><a xlink:title=" ">
<polygon fill="white" stroke="black" points="357,-559.5 357,-589.5 506,-589.5 506,-559.5 357,-559.5"/>
<text text-anchor="start" x="365" y="-577.5" font-family="Helvetica,sans-Serif" font-size="10.00">std::shared_ptr&lt; MetaData</text>
<text text-anchor="middle" x="431.5" y="-566.5" font-family="Helvetica,sans-Serif" font-size="10.00">DictionaryMapType &gt;</text>
</a>
</g>
</g>
<!-- Node13&#45;&gt;Node12 -->
<g id="edge12" class="edge">
<title>Node13&#45;&gt;Node12</title>
<path fill="none" stroke="#9a32cd" stroke-dasharray="5,2" d="M516.78,-574.5C554.53,-574.5 598.4,-574.5 633.74,-574.5"/>
<polygon fill="#9a32cd" stroke="#9a32cd" points="516.3,-571 506.3,-574.5 516.3,-578 516.3,-571"/>
<text text-anchor="middle" x="570" y="-577.5" font-family="Helvetica,sans-Serif" font-size="10.00"> m_Dictionary</text>
</g>
<!-- Node14&#45;&gt;Node13 -->
<g id="edge13" class="edge">
<title>Node14&#45;&gt;Node13</title>
<path fill="none" stroke="#9a32cd" stroke-dasharray="5,2" d="M225.18,-574.5C264.19,-574.5 315.41,-574.5 356.93,-574.5"/>
<polygon fill="#9a32cd" stroke="#9a32cd" points="225.03,-571 215.03,-574.5 225.03,-578 225.03,-571"/>
<text text-anchor="middle" x="286" y="-577.5" font-family="Helvetica,sans-Serif" font-size="10.00"> ptr</text>
</g>
<!-- Node15 -->
<g id="node15" class="node">
<title>Node15</title>
<g id="a_node15"><a xlink:title=" ">
<polygon fill="white" stroke="black" points="0,-541 0,-560 29,-560 29,-541 0,-541"/>
<text text-anchor="middle" x="14.5" y="-548" font-family="Helvetica,sans-Serif" font-size="10.00">K</text>
</a>
</g>
</g>
<!-- Node15&#45;&gt;Node14 -->
<g id="edge14" class="edge">
<title>Node15&#45;&gt;Node14</title>
<path fill="none" stroke="#9a32cd" stroke-dasharray="5,2" d="M39.17,-548.85C55.3,-548.19 77.09,-548.25 96,-551.5 111.5,-554.17 128.23,-559.85 141.16,-564.9"/>
<polygon fill="#9a32cd" stroke="#9a32cd" points="38.81,-545.36 29.01,-549.38 39.18,-552.35 38.81,-545.36"/>
<text text-anchor="middle" x="71.5" y="-554.5" font-family="Helvetica,sans-Serif" font-size="10.00"> keys</text>
</g>
<!-- Node16 -->
<g id="node16" class="node">
<title>Node16</title>
<g id="a_node16"><a xlink:title=" ">
<polygon fill="white" stroke="black" points="937,-464 937,-483 1002,-483 1002,-464 937,-464"/>
<text text-anchor="middle" x="969.5" y="-471" font-family="Helvetica,sans-Serif" font-size="10.00">std::string</text>
</a>
</g>
</g>
<!-- Node16&#45;&gt;Node2 -->
<g id="edge18" class="edge">
<title>Node16&#45;&gt;Node2</title>
<path fill="none" stroke="#9a32cd" stroke-dasharray="5,2" d="M1012.16,-474.68C1148.93,-478.07 1582.96,-484.91 1714,-439.5 1787.81,-413.92 1857.45,-346.63 1881.83,-321.31"/>
<polygon fill="#9a32cd" stroke="#9a32cd" points="1012.17,-471.18 1002.08,-474.42 1011.99,-478.18 1012.17,-471.18"/>
<text text-anchor="middle" x="1462" y="-488.5" font-family="Helvetica,sans-Serif" font-size="10.00"> m_Compressor</text>
<text text-anchor="middle" x="1462" y="-477.5" font-family="Helvetica,sans-Serif" font-size="10.00">m_FileName</text>
</g>
<!-- Node16&#45;&gt;Node4 -->
<g id="edge16" class="edge">
<title>Node16&#45;&gt;Node4</title>
<path fill="none" stroke="#9a32cd" stroke-dasharray="5,2" d="M1012.02,-480.01C1056.49,-487.58 1128.78,-501.63 1189,-521.5 1218.59,-531.26 1251.24,-546.84 1271.06,-556.86"/>
<polygon fill="#9a32cd" stroke="#9a32cd" points="1012.6,-476.56 1002.16,-478.36 1011.44,-483.46 1012.6,-476.56"/>
<text text-anchor="middle" x="1122.5" y="-524.5" font-family="Helvetica,sans-Serif" font-size="10.00"> m_ObjectName</text>
</g>
<!-- Node26 -->
<g id="node26" class="node">
<title>Node26</title>
<g id="a_node26"><a xlink:title=" ">
<polygon fill="white" stroke="black" points="1392,-414 1392,-433 1532,-433 1532,-414 1392,-414"/>
<text text-anchor="middle" x="1462" y="-421" font-family="Helvetica,sans-Serif" font-size="10.00">std::vector&lt; std::string &gt;</text>
</a>
</g>
</g>
<!-- Node16&#45;&gt;Node26 -->
<g id="edge30" class="edge">
<title>Node16&#45;&gt;Node26</title>
<path fill="none" stroke="#9a32cd" stroke-dasharray="5,2" d="M1007.35,-460.77C1022.27,-456.13 1039.79,-451.33 1056,-448.5 1172.58,-428.12 1310.57,-423.72 1391.66,-423.11"/>
<polygon fill="#9a32cd" stroke="#9a32cd" points="1005.93,-457.55 997.47,-463.93 1008.06,-464.22 1005.93,-457.55"/>
<text text-anchor="middle" x="1122.5" y="-451.5" font-family="Helvetica,sans-Serif" font-size="10.00"> elements</text>
</g>
<!-- Node17 -->
<g id="node17" class="node">
<title>Node17</title>
<g id="a_node17"><a xlink:title=" ">
<polygon fill="white" stroke="black" points="649,-458.5 649,-488.5 753,-488.5 753,-458.5 649,-458.5"/>
<text text-anchor="start" x="657" y="-476.5" font-family="Helvetica,sans-Serif" font-size="10.00">std::basic_string&lt;</text>
<text text-anchor="middle" x="701" y="-465.5" font-family="Helvetica,sans-Serif" font-size="10.00"> Char &gt;</text>
</a>
</g>
</g>
<!-- Node17&#45;&gt;Node16 -->
<g id="edge17" class="edge">
<title>Node17&#45;&gt;Node16</title>
<path fill="none" stroke="midnightblue" d="M763.24,-473.5C817.37,-473.5 894.16,-473.5 936.82,-473.5"/>
<polygon fill="midnightblue" stroke="midnightblue" points="763.07,-470 753.07,-473.5 763.07,-477 763.07,-470"/>
</g>
<!-- Node18 -->
<g id="node18" class="node">
<title>Node18</title>
<g id="a_node18"><a xlink:href="classitk_1_1ImageIORegion.html" target="_top" xlink:title="An ImageIORegion represents a structured region of data.">
<polygon fill="white" stroke="black" points="1577,-355 1577,-374 1687,-374 1687,-355 1577,-355"/>
<text text-anchor="middle" x="1632" y="-362" font-family="Helvetica,sans-Serif" font-size="10.00">itk::ImageIORegion</text>
</a>
</g>
</g>
<!-- Node18&#45;&gt;Node2 -->
<g id="edge19" class="edge">
<title>Node18&#45;&gt;Node2</title>
<path fill="none" stroke="#9a32cd" stroke-dasharray="5,2" d="M1689.34,-352.93C1735.82,-343.38 1800.97,-329.99 1844.52,-321.05"/>
<polygon fill="#9a32cd" stroke="#9a32cd" points="1688.51,-349.52 1679.42,-354.96 1689.92,-356.38 1688.51,-349.52"/>
<text text-anchor="middle" x="1763.5" y="-345.5" font-family="Helvetica,sans-Serif" font-size="10.00"> m_IORegion</text>
</g>
<!-- Node19 -->
<g id="node19" class="node">
<title>Node19</title>
<g id="a_node19"><a xlink:href="classitk_1_1Region.html" target="_top" xlink:title="A region represents some portion or piece of data.">
<polygon fill="white" stroke="black" points="1256,-388 1256,-407 1325,-407 1325,-388 1256,-388"/>
<text text-anchor="middle" x="1290.5" y="-395" font-family="Helvetica,sans-Serif" font-size="10.00">itk::Region</text>
</a>
</g>
</g>
<!-- Node19&#45;&gt;Node18 -->
<g id="edge20" class="edge">
<title>Node19&#45;&gt;Node18</title>
<path fill="none" stroke="midnightblue" d="M1335.09,-394.5C1383.32,-391.04 1463.3,-384.86 1532,-377.5 1546.56,-375.94 1562.3,-373.99 1576.85,-372.08"/>
<polygon fill="midnightblue" stroke="midnightblue" points="1334.73,-391.02 1325.01,-395.22 1335.23,-398 1334.73,-391.02"/>
</g>
<!-- Node20 -->
<g id="node20" class="node">
<title>Node20</title>
<g id="a_node20"><a xlink:title=" ">
<polygon fill="white" stroke="black" points="1207,-350 1207,-369 1374,-369 1374,-350 1207,-350"/>
<text text-anchor="middle" x="1290.5" y="-357" font-family="Helvetica,sans-Serif" font-size="10.00">std::vector&lt; IndexValueType &gt;</text>
</a>
</g>
</g>
<!-- Node20&#45;&gt;Node18 -->
<g id="edge21" class="edge">
<title>Node20&#45;&gt;Node18</title>
<path fill="none" stroke="#9a32cd" stroke-dasharray="5,2" d="M1384.28,-360.87C1446.11,-361.78 1525.24,-362.94 1576.98,-363.7"/>
<polygon fill="#9a32cd" stroke="#9a32cd" points="1384.17,-357.36 1374.12,-360.72 1384.06,-364.36 1384.17,-357.36"/>
<text text-anchor="middle" x="1462" y="-365.5" font-family="Helvetica,sans-Serif" font-size="10.00"> m_Index</text>
</g>
<!-- Node21 -->
<g id="node21" class="node">
<title>Node21</title>
<g id="a_node21"><a xlink:title=" ">
<polygon fill="white" stroke="black" points="1210,-304 1210,-323 1371,-323 1371,-304 1210,-304"/>
<text text-anchor="middle" x="1290.5" y="-311" font-family="Helvetica,sans-Serif" font-size="10.00">std::vector&lt; SizeValueType &gt;</text>
</a>
</g>
</g>
<!-- Node21&#45;&gt;Node2 -->
<g id="edge23" class="edge">
<title>Node21&#45;&gt;Node2</title>
<path fill="none" stroke="#9a32cd" stroke-dasharray="5,2" d="M1381.28,-313.2C1509.36,-312.77 1740.17,-312 1841.28,-311.67"/>
<polygon fill="#9a32cd" stroke="#9a32cd" points="1381.1,-309.7 1371.11,-313.23 1381.12,-316.7 1381.1,-309.7"/>
<text text-anchor="middle" x="1632" y="-315.5" font-family="Helvetica,sans-Serif" font-size="10.00"> m_Dimensions</text>
</g>
<!-- Node21&#45;&gt;Node18 -->
<g id="edge22" class="edge">
<title>Node21&#45;&gt;Node18</title>
<path fill="none" stroke="#9a32cd" stroke-dasharray="5,2" d="M1381.11,-324.18C1426.43,-329.9 1482.23,-337.42 1532,-345.5 1549.1,-348.28 1567.78,-351.75 1584.26,-354.96"/>
<polygon fill="#9a32cd" stroke="#9a32cd" points="1381.37,-320.69 1371.01,-322.92 1380.5,-327.63 1381.37,-320.69"/>
<text text-anchor="middle" x="1462" y="-348.5" font-family="Helvetica,sans-Serif" font-size="10.00"> m_Size</text>
</g>
<!-- Node22 -->
<g id="node22" class="node">
<title>Node22</title>
<g id="a_node22"><a xlink:title=" ">
<polygon fill="white" stroke="black" points="1228.5,-231 1228.5,-250 1352.5,-250 1352.5,-231 1228.5,-231"/>
<text text-anchor="middle" x="1290.5" y="-238" font-family="Helvetica,sans-Serif" font-size="10.00">std::vector&lt; double &gt;</text>
</a>
</g>
</g>
<!-- Node22&#45;&gt;Node2 -->
<g id="edge24" class="edge">
<title>Node22&#45;&gt;Node2</title>
<path fill="none" stroke="#9a32cd" stroke-dasharray="5,2" d="M1363.02,-247.24C1447.12,-255.37 1590.89,-269.91 1714,-285.5 1757.14,-290.96 1806.03,-298.23 1841.48,-303.69"/>
<polygon fill="#9a32cd" stroke="#9a32cd" points="1363.1,-243.73 1352.81,-246.26 1362.43,-250.7 1363.1,-243.73"/>
<text text-anchor="middle" x="1632" y="-299.5" font-family="Helvetica,sans-Serif" font-size="10.00"> m_Origin</text>
<text text-anchor="middle" x="1632" y="-288.5" font-family="Helvetica,sans-Serif" font-size="10.00">m_Spacing</text>
</g>
<!-- Node23 -->
<g id="node23" class="node">
<title>Node23</title>
<g id="a_node23"><a xlink:title=" ">
<polygon fill="white" stroke="black" points="1566.5,-186.5 1566.5,-216.5 1697.5,-216.5 1697.5,-186.5 1566.5,-186.5"/>
<text text-anchor="start" x="1574.5" y="-204.5" font-family="Helvetica,sans-Serif" font-size="10.00">std::vector&lt; std::vector</text>
<text text-anchor="middle" x="1632" y="-193.5" font-family="Helvetica,sans-Serif" font-size="10.00">&lt; double &gt; &gt;</text>
</a>
</g>
</g>
<!-- Node22&#45;&gt;Node23 -->
<g id="edge26" class="edge">
<title>Node22&#45;&gt;Node23</title>
<path fill="none" stroke="#9a32cd" stroke-dasharray="5,2" d="M1362.77,-231.93C1372.59,-230.77 1382.54,-229.6 1392,-228.5 1451,-221.64 1518.23,-214.07 1566.32,-208.69"/>
<polygon fill="#9a32cd" stroke="#9a32cd" points="1362.13,-228.48 1352.61,-233.14 1362.95,-235.44 1362.13,-228.48"/>
<text text-anchor="middle" x="1462" y="-231.5" font-family="Helvetica,sans-Serif" font-size="10.00"> elements</text>
</g>
<!-- Node23&#45;&gt;Node2 -->
<g id="edge25" class="edge">
<title>Node23&#45;&gt;Node2</title>
<path fill="none" stroke="#9a32cd" stroke-dasharray="5,2" d="M1707.96,-205.4C1736.27,-209.05 1768.11,-215.87 1795,-228.5 1833.29,-246.48 1868.15,-284.18 1883.18,-301.9"/>
<polygon fill="#9a32cd" stroke="#9a32cd" points="1708.05,-201.89 1697.71,-204.19 1707.23,-208.84 1708.05,-201.89"/>
<text text-anchor="middle" x="1763.5" y="-231.5" font-family="Helvetica,sans-Serif" font-size="10.00"> m_Direction</text>
</g>
<!-- Node24 -->
<g id="node24" class="node">
<title>Node24</title>
<g id="a_node24"><a xlink:title=" ">
<polygon fill="white" stroke="black" points="1565,-148 1565,-167 1699,-167 1699,-148 1565,-148"/>
<text text-anchor="middle" x="1632" y="-155" font-family="Helvetica,sans-Serif" font-size="10.00">std::vector&lt; SizeType &gt;</text>
</a>
</g>
</g>
<!-- Node24&#45;&gt;Node2 -->
<g id="edge27" class="edge">
<title>Node24&#45;&gt;Node2</title>
<path fill="none" stroke="#9a32cd" stroke-dasharray="5,2" d="M1708.99,-164.35C1737.57,-169.53 1769.32,-178.61 1795,-194.5 1840.13,-222.43 1873.81,-279.13 1886.01,-301.81"/>
<polygon fill="#9a32cd" stroke="#9a32cd" points="1709.47,-160.88 1699.03,-162.67 1708.31,-167.78 1709.47,-160.88"/>
<text text-anchor="middle" x="1763.5" y="-197.5" font-family="Helvetica,sans-Serif" font-size="10.00"> m_Strides</text>
</g>
<!-- Node25 -->
<g id="node25" class="node">
<title>Node25</title>
<g id="a_node25"><a xlink:title=" ">
<polygon fill="white" stroke="black" points="1260.5,-148 1260.5,-167 1320.5,-167 1320.5,-148 1260.5,-148"/>
<text text-anchor="middle" x="1290.5" y="-155" font-family="Helvetica,sans-Serif" font-size="10.00">intmax_t</text>
</a>
</g>
</g>
<!-- Node25&#45;&gt;Node24 -->
<g id="edge28" class="edge">
<title>Node25&#45;&gt;Node24</title>
<path fill="none" stroke="#9a32cd" stroke-dasharray="5,2" d="M1330.83,-157.5C1388.09,-157.5 1495.15,-157.5 1564.72,-157.5"/>
<polygon fill="#9a32cd" stroke="#9a32cd" points="1330.74,-154 1320.74,-157.5 1330.74,-161 1330.74,-154"/>
<text text-anchor="middle" x="1462" y="-160.5" font-family="Helvetica,sans-Serif" font-size="10.00"> elements</text>
</g>
<!-- Node26&#45;&gt;Node2 -->
<g id="edge29" class="edge">
<title>Node26&#45;&gt;Node2</title>
<path fill="none" stroke="#9a32cd" stroke-dasharray="5,2" d="M1542.48,-415.94C1611.22,-407.48 1712.29,-390.41 1795,-357.5 1822.82,-346.43 1853.87,-330.95 1872.93,-321.07"/>
<polygon fill="#9a32cd" stroke="#9a32cd" points="1541.67,-412.51 1532.16,-417.17 1542.5,-419.46 1541.67,-412.51"/>
<text text-anchor="middle" x="1632" y="-427.5" font-family="Helvetica,sans-Serif" font-size="10.00"> m_SupportedReadExtensions</text>
<text text-anchor="middle" x="1632" y="-416.5" font-family="Helvetica,sans-Serif" font-size="10.00">m_SupportedWriteExtensions</text>
</g>
<!-- Node27 -->
<g id="node27" class="node">
<title>Node27</title>
<g id="a_node27"><a xlink:title=" ">
<polygon fill="white" stroke="black" points="1852.5,-98 1852.5,-117 1931.5,-117 1931.5,-98 1852.5,-98"/>
<text text-anchor="middle" x="1892" y="-105" font-family="Helvetica,sans-Serif" font-size="10.00">std::ifstream</text>
</a>
</g>
</g>
<!-- Node27&#45;&gt;Node1 -->
<g id="edge31" class="edge">
<title>Node27&#45;&gt;Node1</title>
<path fill="none" stroke="#9a32cd" stroke-dasharray="5,2" d="M1941.74,-103.24C1983.4,-99.59 2043.03,-94.37 2084.59,-90.74"/>
<polygon fill="#9a32cd" stroke="#9a32cd" points="1941.22,-99.77 1931.56,-104.13 1941.83,-106.74 1941.22,-99.77"/>
<text text-anchor="middle" x="2028" y="-101.5" font-family="Helvetica,sans-Serif" font-size="10.00"> m_Ifstream</text>
</g>
<!-- Node28 -->
<g id="node28" class="node">
<title>Node28</title>
<g id="a_node28"><a xlink:title=" ">
<polygon fill="white" stroke="black" points="1577,-98.5 1577,-128.5 1687,-128.5 1687,-98.5 1577,-98.5"/>
<text text-anchor="start" x="1585" y="-116.5" font-family="Helvetica,sans-Serif" font-size="10.00">std::basic_ifstream</text>
<text text-anchor="middle" x="1632" y="-105.5" font-family="Helvetica,sans-Serif" font-size="10.00">&lt; Char &gt;</text>
</a>
</g>
</g>
<!-- Node28&#45;&gt;Node27 -->
<g id="edge32" class="edge">
<title>Node28&#45;&gt;Node27</title>
<path fill="none" stroke="midnightblue" d="M1697.23,-112.01C1746.03,-110.87 1811.52,-109.35 1852.49,-108.4"/>
<polygon fill="midnightblue" stroke="midnightblue" points="1697,-108.51 1687.09,-112.24 1697.16,-115.51 1697,-108.51"/>
</g>
<!-- Node29 -->
<g id="node29" class="node">
<title>Node29</title>
<g id="a_node29"><a xlink:title=" ">
<polygon fill="white" stroke="black" points="1237.5,-98.5 1237.5,-128.5 1343.5,-128.5 1343.5,-98.5 1237.5,-98.5"/>
<text text-anchor="start" x="1245.5" y="-116.5" font-family="Helvetica,sans-Serif" font-size="10.00">std::basic_istream</text>
<text text-anchor="middle" x="1290.5" y="-105.5" font-family="Helvetica,sans-Serif" font-size="10.00">&lt; Char &gt;</text>
</a>
</g>
</g>
<!-- Node29&#45;&gt;Node28 -->
<g id="edge33" class="edge">
<title>Node29&#45;&gt;Node28</title>
<path fill="none" stroke="midnightblue" d="M1354.15,-113.5C1418.1,-113.5 1516.32,-113.5 1576.95,-113.5"/>
<polygon fill="midnightblue" stroke="midnightblue" points="1353.8,-110 1343.8,-113.5 1353.8,-117 1353.8,-110"/>
</g>
<!-- Node30 -->
<g id="node30" class="node">
<title>Node30</title>
<g id="a_node30"><a xlink:title=" ">
<polygon fill="white" stroke="black" points="905.5,-79 905.5,-98 1033.5,-98 1033.5,-79 905.5,-79"/>
<text text-anchor="middle" x="969.5" y="-86" font-family="Helvetica,sans-Serif" font-size="10.00">std::basic_ios&lt; Char &gt;</text>
</a>
</g>
</g>
<!-- Node30&#45;&gt;Node29 -->
<g id="edge34" class="edge">
<title>Node30&#45;&gt;Node29</title>
<path fill="none" stroke="midnightblue" d="M1043.56,-94.23C1102.75,-98.86 1184.7,-105.29 1237.41,-109.42"/>
<polygon fill="midnightblue" stroke="midnightblue" points="1043.77,-90.73 1033.52,-93.44 1043.22,-97.71 1043.77,-90.73"/>
</g>
<!-- Node34 -->
<g id="node34" class="node">
<title>Node34</title>
<g id="a_node34"><a xlink:title=" ">
<polygon fill="white" stroke="black" points="1236,-49.5 1236,-79.5 1345,-79.5 1345,-49.5 1236,-49.5"/>
<text text-anchor="start" x="1244" y="-67.5" font-family="Helvetica,sans-Serif" font-size="10.00">std::basic_ostream</text>
<text text-anchor="middle" x="1290.5" y="-56.5" font-family="Helvetica,sans-Serif" font-size="10.00">&lt; Char &gt;</text>
</a>
</g>
</g>
<!-- Node30&#45;&gt;Node34 -->
<g id="edge39" class="edge">
<title>Node30&#45;&gt;Node34</title>
<path fill="none" stroke="midnightblue" d="M1043.83,-82.98C1102.43,-78.57 1183.2,-72.5 1235.88,-68.53"/>
<polygon fill="midnightblue" stroke="midnightblue" points="1043.23,-79.52 1033.52,-83.76 1043.76,-86.5 1043.23,-79.52"/>
</g>
<!-- Node31 -->
<g id="node31" class="node">
<title>Node31</title>
<g id="a_node31"><a xlink:title=" ">
<polygon fill="white" stroke="black" points="661,-79 661,-98 741,-98 741,-79 661,-79"/>
<text text-anchor="middle" x="701" y="-86" font-family="Helvetica,sans-Serif" font-size="10.00">std::ios_base</text>
</a>
</g>
</g>
<!-- Node31&#45;&gt;Node30 -->
<g id="edge35" class="edge">
<title>Node31&#45;&gt;Node30</title>
<path fill="none" stroke="midnightblue" d="M751.07,-88.5C794.5,-88.5 858.13,-88.5 905.34,-88.5"/>
<polygon fill="midnightblue" stroke="midnightblue" points="751.04,-85 741.04,-88.5 751.04,-92 751.04,-85"/>
</g>
<!-- Node32 -->
<g id="node32" class="node">
<title>Node32</title>
<g id="a_node32"><a xlink:title=" ">
<polygon fill="white" stroke="black" points="1851,-58 1851,-77 1933,-77 1933,-58 1851,-58"/>
<text text-anchor="middle" x="1892" y="-65" font-family="Helvetica,sans-Serif" font-size="10.00">std::ofstream</text>
</a>
</g>
</g>
<!-- Node32&#45;&gt;Node1 -->
<g id="edge36" class="edge">
<title>Node32&#45;&gt;Node1</title>
<path fill="none" stroke="#9a32cd" stroke-dasharray="5,2" d="M1943.62,-66.55C1978.43,-66.49 2025.66,-67.56 2067,-72.5 2075.72,-73.54 2085,-75.17 2093.76,-76.96"/>
<polygon fill="#9a32cd" stroke="#9a32cd" points="1943.22,-63.06 1933.23,-66.61 1943.25,-70.06 1943.22,-63.06"/>
<text text-anchor="middle" x="2028" y="-75.5" font-family="Helvetica,sans-Serif" font-size="10.00"> m_Ofstream</text>
</g>
<!-- Node33 -->
<g id="node33" class="node">
<title>Node33</title>
<g id="a_node33"><a xlink:title=" ">
<polygon fill="white" stroke="black" points="1575.5,-49.5 1575.5,-79.5 1688.5,-79.5 1688.5,-49.5 1575.5,-49.5"/>
<text text-anchor="start" x="1583.5" y="-67.5" font-family="Helvetica,sans-Serif" font-size="10.00">std::basic_ofstream</text>
<text text-anchor="middle" x="1632" y="-56.5" font-family="Helvetica,sans-Serif" font-size="10.00">&lt; Char &gt;</text>
</a>
</g>
</g>
<!-- Node33&#45;&gt;Node32 -->
<g id="edge37" class="edge">
<title>Node33&#45;&gt;Node32</title>
<path fill="none" stroke="midnightblue" d="M1698.94,-65.27C1746.8,-65.82 1810.03,-66.56 1850.61,-67.03"/>
<polygon fill="midnightblue" stroke="midnightblue" points="1698.7,-61.76 1688.66,-65.15 1698.62,-68.76 1698.7,-61.76"/>
</g>
<!-- Node34&#45;&gt;Node33 -->
<g id="edge38" class="edge">
<title>Node34&#45;&gt;Node33</title>
<path fill="none" stroke="midnightblue" d="M1355.58,-64.5C1419.03,-64.5 1515.19,-64.5 1575.48,-64.5"/>
<polygon fill="midnightblue" stroke="midnightblue" points="1355.29,-61 1345.29,-64.5 1355.29,-68 1355.29,-61"/>
</g>
<!-- Node35 -->
<g id="node35" class="node">
<title>Node35</title>
<g id="a_node35"><a xlink:title=" ">
<polygon fill="white" stroke="black" points="1813,-17 1813,-36 1971,-36 1971,-17 1813,-17"/>
<text text-anchor="middle" x="1892" y="-24" font-family="Helvetica,sans-Serif" font-size="10.00">std::vector&lt; RGBPixelType &gt;</text>
</a>
</g>
</g>
<!-- Node35&#45;&gt;Node1 -->
<g id="edge40" class="edge">
<title>Node35&#45;&gt;Node1</title>
<path fill="none" stroke="#9a32cd" stroke-dasharray="5,2" d="M1981.51,-33.24C2009.34,-36.93 2039.87,-42.65 2067,-51.5 2085.74,-57.61 2105.5,-68.8 2118.45,-76.89"/>
<polygon fill="#9a32cd" stroke="#9a32cd" points="1981.76,-29.74 1971.4,-31.97 1980.88,-36.69 1981.76,-29.74"/>
<text text-anchor="middle" x="2028" y="-54.5" font-family="Helvetica,sans-Serif" font-size="10.00"> m_ColorPalette</text>
</g>
<!-- Node36 -->
<g id="node36" class="node">
<title>Node36</title>
<g id="a_node36"><a xlink:href="classitk_1_1RGBPixel.html" target="_top" xlink:title="Represent Red, Green and Blue components for color images.">
<polygon fill="white" stroke="black" points="1550,-9 1550,-28 1714,-28 1714,-9 1550,-9"/>
<text text-anchor="middle" x="1632" y="-16" font-family="Helvetica,sans-Serif" font-size="10.00">itk::RGBPixel&lt; TComponent &gt;</text>
</a>
</g>
</g>
<!-- Node36&#45;&gt;Node35 -->
<g id="edge41" class="edge">
<title>Node36&#45;&gt;Node35</title>
<path fill="none" stroke="#9a32cd" stroke-dasharray="5,2" d="M1724.37,-21.33C1753.25,-22.23 1784.9,-23.21 1812.77,-24.07"/>
<polygon fill="#9a32cd" stroke="#9a32cd" points="1724.38,-17.83 1714.28,-21.02 1724.17,-24.83 1724.38,-17.83"/>
<text text-anchor="middle" x="1763.5" y="-26.5" font-family="Helvetica,sans-Serif" font-size="10.00"> elements</text>
</g>
<!-- Node37 -->
<g id="node37" class="node">
<title>Node37</title>
<g id="a_node37"><a xlink:href="classitk_1_1FixedArray.html" target="_top" xlink:title=" ">
<polygon fill="white" stroke="black" points="1219,-0.5 1219,-30.5 1362,-30.5 1362,-0.5 1219,-0.5"/>
<text text-anchor="start" x="1227" y="-18.5" font-family="Helvetica,sans-Serif" font-size="10.00">itk::FixedArray&lt; unsigned</text>
<text text-anchor="middle" x="1290.5" y="-7.5" font-family="Helvetica,sans-Serif" font-size="10.00"> short, 3 &gt;</text>
</a>
</g>
</g>
<!-- Node37&#45;&gt;Node36 -->
<g id="edge42" class="edge">
<title>Node37&#45;&gt;Node36</title>
<path fill="none" stroke="midnightblue" d="M1372.42,-16.22C1426.07,-16.69 1496.21,-17.31 1549.9,-17.78"/>
<polygon fill="midnightblue" stroke="midnightblue" points="1372.29,-12.71 1362.26,-16.13 1372.23,-19.71 1372.29,-12.71"/>
</g>
<!-- Node38 -->
<g id="node38" class="node">
<title>Node38</title>
<g id="a_node38"><a xlink:href="classVLength.html" target="_top" xlink:title=" ">
<polygon fill="white" stroke="black" points="941.5,-6 941.5,-25 997.5,-25 997.5,-6 941.5,-6"/>
<text text-anchor="middle" x="969.5" y="-13" font-family="Helvetica,sans-Serif" font-size="10.00">VLength</text>
</a>
</g>
</g>
<!-- Node38&#45;&gt;Node37 -->
<g id="edge43" class="edge">
<title>Node38&#45;&gt;Node37</title>
<path fill="none" stroke="#9a32cd" stroke-dasharray="5,2" d="M1007.73,-15.5C1059.34,-15.5 1153.61,-15.5 1218.81,-15.5"/>
<polygon fill="#9a32cd" stroke="#9a32cd" points="1007.7,-12 997.7,-15.5 1007.7,-19 1007.7,-12"/>
<text text-anchor="middle" x="1122.5" y="-18.5" font-family="Helvetica,sans-Serif" font-size="10.00"> m_InternalArray</text>
</g>
</g>
</svg>
