<?xml version="1.0" encoding="UTF-8" standalone="no"?>
<!DOCTYPE svg PUBLIC "-//W3C//DTD SVG 1.1//EN"
 "http://www.w3.org/Graphics/SVG/1.1/DTD/svg11.dtd">
<!-- Generated by graphviz version 2.43.0 (0)
 -->
<!-- Title: itk::ImageToImageMetric&lt; TFixedImage, TMovingImage &gt;::ConstantPointerWrapper Pages: 1 -->
<svg width="2858pt" height="873pt"
 viewBox="0.00 0.00 2858.00 873.50" xmlns="http://www.w3.org/2000/svg" xmlns:xlink="http://www.w3.org/1999/xlink">
<g id="graph0" class="graph" transform="scale(1 1) rotate(0) translate(4 869.5)">
<title>itk::ImageToImageMetric&lt; TFixedImage, TMovingImage &gt;::ConstantPointerWrapper</title>
<polygon fill="white" stroke="transparent" points="-4,4 -4,-869.5 2854,-869.5 2854,4 -4,4"/>
<!-- Node1 -->
<g id="node1" class="node">
<title>Node1</title>
<g id="a_node1"><a xlink:title=" ">
<polygon fill="#bfbfbf" stroke="black" points="2475,-424 2475,-465 2644,-465 2644,-424 2475,-424"/>
<text text-anchor="start" x="2483" y="-453" font-family="Helvetica,sans-Serif" font-size="10.00">itk::ImageToImageMetric</text>
<text text-anchor="start" x="2483" y="-442" font-family="Helvetica,sans-Serif" font-size="10.00">&lt; TFixedImage, TMovingImage</text>
<text text-anchor="middle" x="2559.5" y="-431" font-family="Helvetica,sans-Serif" font-size="10.00"> &gt;::ConstantPointerWrapper</text>
</a>
</g>
</g>
<!-- Node2 -->
<g id="node2" class="node">
<title>Node2</title>
<g id="a_node2"><a xlink:href="classitk_1_1ImageToImageMetric.html" target="_top" xlink:title="Computes similarity between regions of two images.">
<polygon fill="white" stroke="black" points="2147,-369.5 2147,-399.5 2327,-399.5 2327,-369.5 2147,-369.5"/>
<text text-anchor="start" x="2155" y="-387.5" font-family="Helvetica,sans-Serif" font-size="10.00">itk::ImageToImageMetric</text>
<text text-anchor="middle" x="2237" y="-376.5" font-family="Helvetica,sans-Serif" font-size="10.00">&lt; TFixedImage, TMovingImage &gt;</text>
</a>
</g>
</g>
<!-- Node2&#45;&gt;Node1 -->
<g id="edge1" class="edge">
<title>Node2&#45;&gt;Node1</title>
<path fill="none" stroke="#9a32cd" stroke-dasharray="5,2" d="M2328.42,-401.43C2374.42,-410.04 2429.94,-420.43 2474.93,-428.85"/>
<polygon fill="#9a32cd" stroke="#9a32cd" points="2328.94,-397.96 2318.46,-399.56 2327.65,-404.84 2328.94,-397.96"/>
<text text-anchor="middle" x="2401" y="-427.5" font-family="Helvetica,sans-Serif" font-size="10.00"> m_ConstMetricPointer</text>
</g>
<!-- Node40 -->
<g id="node40" class="node">
<title>Node40</title>
<g id="a_node40"><a xlink:href="classitk_1_1ImageToImageMetric_1_1ConstantPointerWrapper.html" target="_top" xlink:title=" ">
<polygon fill="white" stroke="black" points="2475,-364 2475,-405 2644,-405 2644,-364 2475,-364"/>
<text text-anchor="start" x="2483" y="-393" font-family="Helvetica,sans-Serif" font-size="10.00">itk::ImageToImageMetric</text>
<text text-anchor="start" x="2483" y="-382" font-family="Helvetica,sans-Serif" font-size="10.00">&lt; TFixedImage, TMovingImage</text>
<text text-anchor="middle" x="2559.5" y="-371" font-family="Helvetica,sans-Serif" font-size="10.00"> &gt;::ConstantPointerWrapper</text>
</a>
</g>
</g>
<!-- Node2&#45;&gt;Node40 -->
<g id="edge42" class="edge">
<title>Node2&#45;&gt;Node40</title>
<path fill="none" stroke="#9a32cd" stroke-dasharray="5,2" d="M2337.44,-384.5C2381.54,-384.5 2432.85,-384.5 2474.93,-384.5"/>
<polygon fill="#9a32cd" stroke="#9a32cd" points="2337.28,-381 2327.28,-384.5 2337.28,-388 2337.28,-381"/>
<text text-anchor="middle" x="2401" y="-387.5" font-family="Helvetica,sans-Serif" font-size="10.00"> m_ConstMetricPointer</text>
</g>
<!-- Node3 -->
<g id="node3" class="node">
<title>Node3</title>
<g id="a_node3"><a xlink:href="classitk_1_1SingleValuedCostFunction.html" target="_top" xlink:title="This class is a base for the CostFunctions returning a single value.">
<polygon fill="white" stroke="black" points="1786,-747 1786,-766 1947,-766 1947,-747 1786,-747"/>
<text text-anchor="middle" x="1866.5" y="-754" font-family="Helvetica,sans-Serif" font-size="10.00">itk::SingleValuedCostFunction</text>
</a>
</g>
</g>
<!-- Node3&#45;&gt;Node2 -->
<g id="edge2" class="edge">
<title>Node3&#45;&gt;Node2</title>
<path fill="none" stroke="midnightblue" d="M1933.15,-767.06C1991.18,-772.53 2074.81,-770.44 2129,-725.5 2232.64,-639.55 2237.46,-454.29 2236.52,-399.84"/>
<polygon fill="midnightblue" stroke="midnightblue" points="1933.29,-763.56 1922.98,-766 1932.56,-770.52 1933.29,-763.56"/>
</g>
<!-- Node4 -->
<g id="node4" class="node">
<title>Node4</title>
<g id="a_node4"><a xlink:href="classitk_1_1CostFunctionTemplate.html" target="_top" xlink:title=" ">
<polygon fill="white" stroke="black" points="1570.5,-756 1570.5,-775 1650.5,-775 1650.5,-756 1570.5,-756"/>
<text text-anchor="middle" x="1610.5" y="-763" font-family="Helvetica,sans-Serif" font-size="10.00">CostFunction</text>
</a>
</g>
</g>
<!-- Node4&#45;&gt;Node3 -->
<g id="edge3" class="edge">
<title>Node4&#45;&gt;Node3</title>
<path fill="none" stroke="midnightblue" d="M1660.73,-763.75C1696.21,-762.5 1744.86,-760.77 1785.83,-759.32"/>
<polygon fill="midnightblue" stroke="midnightblue" points="1660.5,-760.26 1650.63,-764.11 1660.75,-767.25 1660.5,-760.26"/>
</g>
<!-- Node5 -->
<g id="node5" class="node">
<title>Node5</title>
<g id="a_node5"><a xlink:href="classitk_1_1Object.html" target="_top" xlink:title="Base class for most ITK classes.">
<polygon fill="white" stroke="black" points="1365,-758 1365,-777 1432,-777 1432,-758 1365,-758"/>
<text text-anchor="middle" x="1398.5" y="-765" font-family="Helvetica,sans-Serif" font-size="10.00">itk::Object</text>
</a>
</g>
</g>
<!-- Node5&#45;&gt;Node4 -->
<g id="edge4" class="edge">
<title>Node5&#45;&gt;Node4</title>
<path fill="none" stroke="midnightblue" d="M1442.44,-767.09C1480.02,-766.73 1534.13,-766.22 1570.49,-765.87"/>
<polygon fill="midnightblue" stroke="midnightblue" points="1442.28,-763.59 1432.31,-767.18 1442.35,-770.59 1442.28,-763.59"/>
</g>
<!-- Node6 -->
<g id="node6" class="node">
<title>Node6</title>
<g id="a_node6"><a xlink:href="classitk_1_1LightObject.html" target="_top" xlink:title="Light weight base class for most itk classes.">
<polygon fill="white" stroke="black" points="942.5,-845 942.5,-864 1033.5,-864 1033.5,-845 942.5,-845"/>
<text text-anchor="middle" x="988" y="-852" font-family="Helvetica,sans-Serif" font-size="10.00">itk::LightObject</text>
</a>
</g>
</g>
<!-- Node6&#45;&gt;Node5 -->
<g id="edge5" class="edge">
<title>Node6&#45;&gt;Node5</title>
<path fill="none" stroke="midnightblue" d="M1044.07,-860C1111,-864.57 1226.25,-865.54 1317,-830.5 1347.13,-818.86 1375.11,-791.93 1388.76,-777.33"/>
<polygon fill="midnightblue" stroke="midnightblue" points="1043.98,-856.48 1033.75,-859.24 1043.47,-863.46 1043.98,-856.48"/>
</g>
<!-- Node7 -->
<g id="node7" class="node">
<title>Node7</title>
<g id="a_node7"><a xlink:title=" ">
<polygon fill="white" stroke="black" points="647.5,-845 647.5,-864 754.5,-864 754.5,-845 647.5,-845"/>
<text text-anchor="middle" x="701" y="-852" font-family="Helvetica,sans-Serif" font-size="10.00">std::atomic&lt; int &gt;</text>
</a>
</g>
</g>
<!-- Node7&#45;&gt;Node6 -->
<g id="edge6" class="edge">
<title>Node7&#45;&gt;Node6</title>
<path fill="none" stroke="#9a32cd" stroke-dasharray="5,2" d="M764.7,-854.5C818.4,-854.5 894.43,-854.5 942.2,-854.5"/>
<polygon fill="#9a32cd" stroke="#9a32cd" points="764.61,-851 754.61,-854.5 764.61,-858 764.61,-851"/>
<text text-anchor="middle" x="834.5" y="-857.5" font-family="Helvetica,sans-Serif" font-size="10.00"> m_ReferenceCount</text>
</g>
<!-- Node8 -->
<g id="node8" class="node">
<title>Node8</title>
<g id="a_node8"><a xlink:href="classitk_1_1TimeStamp.html" target="_top" xlink:title="Generate a unique, increasing time value.">
<polygon fill="white" stroke="black" points="524,-807 524,-826 616,-826 616,-807 524,-807"/>
<text text-anchor="middle" x="570" y="-814" font-family="Helvetica,sans-Serif" font-size="10.00">itk::TimeStamp</text>
</a>
</g>
</g>
<!-- Node8&#45;&gt;Node5 -->
<g id="edge7" class="edge">
<title>Node8&#45;&gt;Node5</title>
<path fill="none" stroke="#9a32cd" stroke-dasharray="5,2" d="M626.27,-817.71C750.41,-819.66 1060.56,-820.27 1317,-785.5 1332.89,-783.34 1350.29,-779.63 1364.83,-776.13"/>
<polygon fill="#9a32cd" stroke="#9a32cd" points="626.3,-814.21 616.25,-817.54 626.19,-821.21 626.3,-814.21"/>
<text text-anchor="middle" x="834.5" y="-820.5" font-family="Helvetica,sans-Serif" font-size="10.00"> m_MTime</text>
</g>
<!-- Node9 -->
<g id="node9" class="node">
<title>Node9</title>
<g id="a_node9"><a xlink:title=" ">
<polygon fill="white" stroke="black" points="114.5,-807 114.5,-826 214.5,-826 214.5,-807 114.5,-807"/>
<text text-anchor="middle" x="164.5" y="-814" font-family="Helvetica,sans-Serif" font-size="10.00">std::atomic&lt; T &gt;</text>
</a>
</g>
</g>
<!-- Node9&#45;&gt;Node8 -->
<g id="edge8" class="edge">
<title>Node9&#45;&gt;Node8</title>
<path fill="none" stroke="#9a32cd" stroke-dasharray="5,2" d="M224.66,-816.5C306.06,-816.5 450.8,-816.5 523.98,-816.5"/>
<polygon fill="#9a32cd" stroke="#9a32cd" points="224.57,-813 214.57,-816.5 224.57,-820 224.57,-813"/>
<text text-anchor="middle" x="286" y="-819.5" font-family="Helvetica,sans-Serif" font-size="10.00"> m_GlobalTimeStamp</text>
</g>
<!-- Node10 -->
<g id="node10" class="node">
<title>Node10</title>
<g id="a_node10"><a xlink:title=" ">
<polygon fill="white" stroke="black" points="0,-792 0,-811 29,-811 29,-792 0,-792"/>
<text text-anchor="middle" x="14.5" y="-799" font-family="Helvetica,sans-Serif" font-size="10.00">T</text>
</a>
</g>
</g>
<!-- Node10&#45;&gt;Node9 -->
<g id="edge9" class="edge">
<title>Node10&#45;&gt;Node9</title>
<path fill="none" stroke="#9a32cd" stroke-dasharray="5,2" d="M39.33,-803.91C59.54,-805.96 89.19,-808.97 114.45,-811.53"/>
<polygon fill="#9a32cd" stroke="#9a32cd" points="39.46,-800.41 29.16,-802.88 38.75,-807.37 39.46,-800.41"/>
<text text-anchor="middle" x="71.5" y="-811.5" font-family="Helvetica,sans-Serif" font-size="10.00"> ptr</text>
</g>
<!-- Node15 -->
<g id="node15" class="node">
<title>Node15</title>
<g id="a_node15"><a xlink:title=" ">
<polygon fill="white" stroke="black" points="114,-763 114,-782 215,-782 215,-763 114,-763"/>
<text text-anchor="middle" x="164.5" y="-770" font-family="Helvetica,sans-Serif" font-size="10.00">std::map&lt; K, T &gt;</text>
</a>
</g>
</g>
<!-- Node10&#45;&gt;Node15 -->
<g id="edge16" class="edge">
<title>Node10&#45;&gt;Node15</title>
<path fill="none" stroke="#9a32cd" stroke-dasharray="5,2" d="M38.7,-792.01C41.47,-791.07 44.28,-790.2 47,-789.5 68.66,-783.86 93.11,-779.94 113.99,-777.29"/>
<polygon fill="#9a32cd" stroke="#9a32cd" points="37.25,-788.81 29.09,-795.57 39.68,-795.38 37.25,-788.81"/>
<text text-anchor="middle" x="71.5" y="-792.5" font-family="Helvetica,sans-Serif" font-size="10.00"> elements</text>
</g>
<!-- Node11 -->
<g id="node11" class="node">
<title>Node11</title>
<g id="a_node11"><a xlink:title=" ">
<polygon fill="white" stroke="black" points="919.5,-708.5 919.5,-738.5 1056.5,-738.5 1056.5,-708.5 919.5,-708.5"/>
<text text-anchor="start" x="927.5" y="-726.5" font-family="Helvetica,sans-Serif" font-size="10.00">std::unique_ptr&lt; Subject</text>
<text text-anchor="middle" x="988" y="-715.5" font-family="Helvetica,sans-Serif" font-size="10.00">Implementation &gt;</text>
</a>
</g>
</g>
<!-- Node11&#45;&gt;Node5 -->
<g id="edge10" class="edge">
<title>Node11&#45;&gt;Node5</title>
<path fill="none" stroke="#9a32cd" stroke-dasharray="5,2" d="M1066.71,-728.82C1133.29,-733.81 1231.67,-742.19 1317,-753.5 1332.75,-755.58 1350.13,-758.52 1364.69,-761.17"/>
<polygon fill="#9a32cd" stroke="#9a32cd" points="1066.94,-725.33 1056.71,-728.08 1066.42,-732.31 1066.94,-725.33"/>
<text text-anchor="middle" x="1205" y="-756.5" font-family="Helvetica,sans-Serif" font-size="10.00"> m_SubjectImplementation</text>
</g>
<!-- Node12 -->
<g id="node12" class="node">
<title>Node12</title>
<g id="a_node12"><a xlink:title=" ">
<polygon fill="white" stroke="black" points="922,-757.5 922,-787.5 1054,-787.5 1054,-757.5 922,-757.5"/>
<text text-anchor="start" x="930" y="-775.5" font-family="Helvetica,sans-Serif" font-size="10.00">std::unique_ptr&lt; itk</text>
<text text-anchor="middle" x="988" y="-764.5" font-family="Helvetica,sans-Serif" font-size="10.00">::MetaDataDictionary &gt;</text>
</a>
</g>
</g>
<!-- Node12&#45;&gt;Node5 -->
<g id="edge11" class="edge">
<title>Node12&#45;&gt;Node5</title>
<path fill="none" stroke="#9a32cd" stroke-dasharray="5,2" d="M1064.3,-771.58C1154.08,-770.48 1300.1,-768.69 1364.83,-767.9"/>
<polygon fill="#9a32cd" stroke="#9a32cd" points="1064.14,-768.08 1054.18,-771.7 1064.22,-775.08 1064.14,-768.08"/>
<text text-anchor="middle" x="1205" y="-773.5" font-family="Helvetica,sans-Serif" font-size="10.00"> m_MetaDataDictionary</text>
</g>
<!-- Node13 -->
<g id="node13" class="node">
<title>Node13</title>
<g id="a_node13"><a xlink:href="classitk_1_1MetaDataDictionary.html" target="_top" xlink:title="Provides a mechanism for storing a collection of arbitrary data types.">
<polygon fill="white" stroke="black" points="634,-763 634,-782 768,-782 768,-763 634,-763"/>
<text text-anchor="middle" x="701" y="-770" font-family="Helvetica,sans-Serif" font-size="10.00">itk::MetaDataDictionary</text>
</a>
</g>
</g>
<!-- Node13&#45;&gt;Node12 -->
<g id="edge12" class="edge">
<title>Node13&#45;&gt;Node12</title>
<path fill="none" stroke="#9a32cd" stroke-dasharray="5,2" d="M778.35,-772.5C823.11,-772.5 879.06,-772.5 921.75,-772.5"/>
<polygon fill="#9a32cd" stroke="#9a32cd" points="778.1,-769 768.1,-772.5 778.1,-776 778.1,-769"/>
<text text-anchor="middle" x="834.5" y="-775.5" font-family="Helvetica,sans-Serif" font-size="10.00"> ptr</text>
</g>
<!-- Node14 -->
<g id="node14" class="node">
<title>Node14</title>
<g id="a_node14"><a xlink:title=" ">
<polygon fill="white" stroke="black" points="357,-757.5 357,-787.5 506,-787.5 506,-757.5 357,-757.5"/>
<text text-anchor="start" x="365" y="-775.5" font-family="Helvetica,sans-Serif" font-size="10.00">std::shared_ptr&lt; MetaData</text>
<text text-anchor="middle" x="431.5" y="-764.5" font-family="Helvetica,sans-Serif" font-size="10.00">DictionaryMapType &gt;</text>
</a>
</g>
</g>
<!-- Node14&#45;&gt;Node13 -->
<g id="edge13" class="edge">
<title>Node14&#45;&gt;Node13</title>
<path fill="none" stroke="#9a32cd" stroke-dasharray="5,2" d="M516.78,-772.5C554.53,-772.5 598.4,-772.5 633.74,-772.5"/>
<polygon fill="#9a32cd" stroke="#9a32cd" points="516.3,-769 506.3,-772.5 516.3,-776 516.3,-769"/>
<text text-anchor="middle" x="570" y="-775.5" font-family="Helvetica,sans-Serif" font-size="10.00"> m_Dictionary</text>
</g>
<!-- Node15&#45;&gt;Node14 -->
<g id="edge14" class="edge">
<title>Node15&#45;&gt;Node14</title>
<path fill="none" stroke="#9a32cd" stroke-dasharray="5,2" d="M225.18,-772.5C264.19,-772.5 315.41,-772.5 356.93,-772.5"/>
<polygon fill="#9a32cd" stroke="#9a32cd" points="225.03,-769 215.03,-772.5 225.03,-776 225.03,-769"/>
<text text-anchor="middle" x="286" y="-775.5" font-family="Helvetica,sans-Serif" font-size="10.00"> ptr</text>
</g>
<!-- Node16 -->
<g id="node16" class="node">
<title>Node16</title>
<g id="a_node16"><a xlink:title=" ">
<polygon fill="white" stroke="black" points="0,-739 0,-758 29,-758 29,-739 0,-739"/>
<text text-anchor="middle" x="14.5" y="-746" font-family="Helvetica,sans-Serif" font-size="10.00">K</text>
</a>
</g>
</g>
<!-- Node16&#45;&gt;Node15 -->
<g id="edge15" class="edge">
<title>Node16&#45;&gt;Node15</title>
<path fill="none" stroke="#9a32cd" stroke-dasharray="5,2" d="M39.17,-746.84C55.3,-746.19 77.09,-746.24 96,-749.5 111.5,-752.16 128.23,-757.85 141.16,-762.89"/>
<polygon fill="#9a32cd" stroke="#9a32cd" points="38.81,-743.36 29.01,-747.38 39.18,-750.35 38.81,-743.36"/>
<text text-anchor="middle" x="71.5" y="-752.5" font-family="Helvetica,sans-Serif" font-size="10.00"> keys</text>
</g>
<!-- Node17 -->
<g id="node17" class="node">
<title>Node17</title>
<g id="a_node17"><a xlink:title=" ">
<polygon fill="white" stroke="black" points="955.5,-670 955.5,-689 1020.5,-689 1020.5,-670 955.5,-670"/>
<text text-anchor="middle" x="988" y="-677" font-family="Helvetica,sans-Serif" font-size="10.00">std::string</text>
</a>
</g>
</g>
<!-- Node17&#45;&gt;Node5 -->
<g id="edge17" class="edge">
<title>Node17&#45;&gt;Node5</title>
<path fill="none" stroke="#9a32cd" stroke-dasharray="5,2" d="M1030.88,-678.03C1094.59,-677.12 1218.82,-680.61 1317,-715.5 1344.28,-725.19 1371.66,-745.73 1386.41,-757.89"/>
<polygon fill="#9a32cd" stroke="#9a32cd" points="1030.75,-674.53 1020.82,-678.22 1030.88,-681.53 1030.75,-674.53"/>
<text text-anchor="middle" x="1205" y="-718.5" font-family="Helvetica,sans-Serif" font-size="10.00"> m_ObjectName</text>
</g>
<!-- Node18 -->
<g id="node18" class="node">
<title>Node18</title>
<g id="a_node18"><a xlink:title=" ">
<polygon fill="white" stroke="black" points="649,-664.5 649,-694.5 753,-694.5 753,-664.5 649,-664.5"/>
<text text-anchor="start" x="657" y="-682.5" font-family="Helvetica,sans-Serif" font-size="10.00">std::basic_string&lt;</text>
<text text-anchor="middle" x="701" y="-671.5" font-family="Helvetica,sans-Serif" font-size="10.00"> Char &gt;</text>
</a>
</g>
</g>
<!-- Node18&#45;&gt;Node17 -->
<g id="edge18" class="edge">
<title>Node18&#45;&gt;Node17</title>
<path fill="none" stroke="midnightblue" d="M763.58,-679.5C822.47,-679.5 908.94,-679.5 955.13,-679.5"/>
<polygon fill="midnightblue" stroke="midnightblue" points="763.28,-676 753.28,-679.5 763.28,-683 763.28,-676"/>
</g>
<!-- Node19 -->
<g id="node19" class="node">
<title>Node19</title>
<g id="a_node19"><a xlink:title=" ">
<polygon fill="white" stroke="black" points="1785,-681.5 1785,-711.5 1948,-711.5 1948,-681.5 1785,-681.5"/>
<text text-anchor="start" x="1793" y="-699.5" font-family="Helvetica,sans-Serif" font-size="10.00">std::vector&lt; FixedImageIndex</text>
<text text-anchor="middle" x="1866.5" y="-688.5" font-family="Helvetica,sans-Serif" font-size="10.00">Type &gt;</text>
</a>
</g>
</g>
<!-- Node19&#45;&gt;Node2 -->
<g id="edge19" class="edge">
<title>Node19&#45;&gt;Node2</title>
<path fill="none" stroke="#9a32cd" stroke-dasharray="5,2" d="M1958.16,-710.78C2012.91,-714.33 2081.12,-709.15 2129,-672.5 2219.64,-603.12 2233.51,-448.48 2235.62,-399.61"/>
<polygon fill="#9a32cd" stroke="#9a32cd" points="1958.33,-707.29 1948.1,-710.02 1957.81,-714.27 1958.33,-707.29"/>
<text text-anchor="middle" x="2050" y="-714.5" font-family="Helvetica,sans-Serif" font-size="10.00"> m_FixedImageIndexes</text>
</g>
<!-- Node20 -->
<g id="node20" class="node">
<title>Node20</title>
<g id="a_node20"><a xlink:title=" ">
<polygon fill="white" stroke="black" points="1780,-632.5 1780,-662.5 1953,-662.5 1953,-632.5 1780,-632.5"/>
<text text-anchor="start" x="1788" y="-650.5" font-family="Helvetica,sans-Serif" font-size="10.00">std::vector&lt; FixedImageSample</text>
<text text-anchor="middle" x="1866.5" y="-639.5" font-family="Helvetica,sans-Serif" font-size="10.00">Point &gt;</text>
</a>
</g>
</g>
<!-- Node20&#45;&gt;Node2 -->
<g id="edge20" class="edge">
<title>Node20&#45;&gt;Node2</title>
<path fill="none" stroke="#9a32cd" stroke-dasharray="5,2" d="M1963.32,-658.26C2016.75,-659.27 2081.82,-651.7 2129,-617.5 2204.32,-562.89 2227.97,-442.15 2234.12,-399.65"/>
<polygon fill="#9a32cd" stroke="#9a32cd" points="1963.24,-654.75 1953.14,-657.96 1963.04,-661.75 1963.24,-654.75"/>
<text text-anchor="middle" x="2050" y="-660.5" font-family="Helvetica,sans-Serif" font-size="10.00"> m_FixedImageSamples</text>
</g>
<!-- Node21 -->
<g id="node21" class="node">
<title>Node21</title>
<g id="a_node21"><a xlink:href="classitk_1_1ImageToImageMetric_1_1FixedImageSamplePoint.html" target="_top" xlink:title=" ">
<polygon fill="white" stroke="black" points="1526,-633 1526,-674 1695,-674 1695,-633 1526,-633"/>
<text text-anchor="start" x="1534" y="-662" font-family="Helvetica,sans-Serif" font-size="10.00">itk::ImageToImageMetric</text>
<text text-anchor="start" x="1534" y="-651" font-family="Helvetica,sans-Serif" font-size="10.00">&lt; TFixedImage, TMovingImage</text>
<text text-anchor="middle" x="1610.5" y="-640" font-family="Helvetica,sans-Serif" font-size="10.00"> &gt;::FixedImageSamplePoint</text>
</a>
</g>
</g>
<!-- Node21&#45;&gt;Node20 -->
<g id="edge21" class="edge">
<title>Node21&#45;&gt;Node20</title>
<path fill="none" stroke="#9a32cd" stroke-dasharray="5,2" d="M1705.02,-651.29C1729.48,-650.71 1755.72,-650.09 1779.75,-649.52"/>
<polygon fill="#9a32cd" stroke="#9a32cd" points="1704.94,-647.79 1695.02,-651.52 1705.1,-654.79 1704.94,-647.79"/>
<text text-anchor="middle" x="1737.5" y="-653.5" font-family="Helvetica,sans-Serif" font-size="10.00"> elements</text>
</g>
<!-- Node22 -->
<g id="node22" class="node">
<title>Node22</title>
<g id="a_node22"><a xlink:href="classitk_1_1Point.html" target="_top" xlink:title="A templated class holding a geometric point in n&#45;Dimensional space.">
<polygon fill="white" stroke="black" points="1335,-634.5 1335,-664.5 1462,-664.5 1462,-634.5 1335,-634.5"/>
<text text-anchor="start" x="1343" y="-652.5" font-family="Helvetica,sans-Serif" font-size="10.00">itk::Point&lt; TCoordRep,</text>
<text text-anchor="middle" x="1398.5" y="-641.5" font-family="Helvetica,sans-Serif" font-size="10.00"> VPointDimension &gt;</text>
</a>
</g>
</g>
<!-- Node22&#45;&gt;Node21 -->
<g id="edge22" class="edge">
<title>Node22&#45;&gt;Node21</title>
<path fill="none" stroke="#9a32cd" stroke-dasharray="5,2" d="M1472.7,-650.89C1489.82,-651.22 1508.19,-651.57 1525.73,-651.9"/>
<polygon fill="#9a32cd" stroke="#9a32cd" points="1472.29,-647.38 1462.22,-650.69 1472.15,-654.38 1472.29,-647.38"/>
<text text-anchor="middle" x="1494" y="-654.5" font-family="Helvetica,sans-Serif" font-size="10.00"> point</text>
</g>
<!-- Node23 -->
<g id="node23" class="node">
<title>Node23</title>
<g id="a_node23"><a xlink:href="classitk_1_1FixedArray.html" target="_top" xlink:title=" ">
<polygon fill="white" stroke="black" points="901,-632 901,-651 1075,-651 1075,-632 901,-632"/>
<text text-anchor="middle" x="988" y="-639" font-family="Helvetica,sans-Serif" font-size="10.00">itk::FixedArray&lt; TCoordRep, 3 &gt;</text>
</a>
</g>
</g>
<!-- Node23&#45;&gt;Node22 -->
<g id="edge23" class="edge">
<title>Node23&#45;&gt;Node22</title>
<path fill="none" stroke="midnightblue" d="M1085.34,-643.38C1162.43,-644.89 1268.31,-646.97 1334.8,-648.27"/>
<polygon fill="midnightblue" stroke="midnightblue" points="1085.2,-639.88 1075.13,-643.18 1085.06,-646.88 1085.2,-639.88"/>
</g>
<!-- Node24 -->
<g id="node24" class="node">
<title>Node24</title>
<g id="a_node24"><a xlink:href="classVLength.html" target="_top" xlink:title=" ">
<polygon fill="white" stroke="black" points="673,-610 673,-629 729,-629 729,-610 673,-610"/>
<text text-anchor="middle" x="701" y="-617" font-family="Helvetica,sans-Serif" font-size="10.00">VLength</text>
</a>
</g>
</g>
<!-- Node24&#45;&gt;Node23 -->
<g id="edge24" class="edge">
<title>Node24&#45;&gt;Node23</title>
<path fill="none" stroke="#9a32cd" stroke-dasharray="5,2" d="M739.09,-622.36C779.85,-625.51 846.69,-630.67 900.71,-634.84"/>
<polygon fill="#9a32cd" stroke="#9a32cd" points="739.31,-618.87 729.07,-621.59 738.77,-625.85 739.31,-618.87"/>
<text text-anchor="middle" x="834.5" y="-635.5" font-family="Helvetica,sans-Serif" font-size="10.00"> m_InternalArray</text>
</g>
<!-- Node35 -->
<g id="node35" class="node">
<title>Node35</title>
<g id="a_node35"><a xlink:href="classitk_1_1FixedArray.html" target="_top" xlink:title=" ">
<polygon fill="white" stroke="black" points="1093,-588.5 1093,-618.5 1317,-618.5 1317,-588.5 1093,-588.5"/>
<text text-anchor="start" x="1101" y="-606.5" font-family="Helvetica,sans-Serif" font-size="10.00">itk::FixedArray&lt; SizeValue</text>
<text text-anchor="middle" x="1205" y="-595.5" font-family="Helvetica,sans-Serif" font-size="10.00">Type, FixedImageType::ImageDimension &gt;</text>
</a>
</g>
</g>
<!-- Node24&#45;&gt;Node35 -->
<g id="edge36" class="edge">
<title>Node24&#45;&gt;Node35</title>
<path fill="none" stroke="#9a32cd" stroke-dasharray="5,2" d="M739.32,-614.77C753.86,-613.12 770.69,-611.44 786,-610.5 889.77,-604.08 1008.29,-602.65 1092.56,-602.64"/>
<polygon fill="#9a32cd" stroke="#9a32cd" points="738.71,-611.32 729.19,-615.96 739.52,-618.27 738.71,-611.32"/>
<text text-anchor="middle" x="834.5" y="-613.5" font-family="Helvetica,sans-Serif" font-size="10.00"> m_InternalArray</text>
</g>
<!-- Node25 -->
<g id="node25" class="node">
<title>Node25</title>
<g id="a_node25"><a xlink:href="classitk_1_1SmartPointer.html" target="_top" xlink:title="Implements transparent reference counting.">
<polygon fill="white" stroke="black" points="1813,-544.5 1813,-574.5 1920,-574.5 1920,-544.5 1813,-544.5"/>
<text text-anchor="start" x="1821" y="-562.5" font-family="Helvetica,sans-Serif" font-size="10.00">itk::SmartPointer&lt;</text>
<text text-anchor="middle" x="1866.5" y="-551.5" font-family="Helvetica,sans-Serif" font-size="10.00"> TObjectType &gt;</text>
</a>
</g>
</g>
<!-- Node25&#45;&gt;Node2 -->
<g id="edge25" class="edge">
<title>Node25&#45;&gt;Node2</title>
<path fill="none" stroke="#9a32cd" stroke-dasharray="5,2" d="M1930.18,-550.97C2006.17,-540.55 2124.7,-523.99 2129,-521.5 2179.63,-492.1 2214.97,-428.58 2229.12,-399.54"/>
<polygon fill="#9a32cd" stroke="#9a32cd" points="1929.65,-547.51 1920.22,-552.34 1930.6,-554.45 1929.65,-547.51"/>
<text text-anchor="middle" x="2050" y="-580.5" font-family="Helvetica,sans-Serif" font-size="10.00"> m_FixedImageMask</text>
<text text-anchor="middle" x="2050" y="-569.5" font-family="Helvetica,sans-Serif" font-size="10.00">m_Interpolator</text>
<text text-anchor="middle" x="2050" y="-558.5" font-family="Helvetica,sans-Serif" font-size="10.00">m_MovingImageMask</text>
<text text-anchor="middle" x="2050" y="-547.5" font-family="Helvetica,sans-Serif" font-size="10.00">m_Transform</text>
</g>
<!-- Node26 -->
<g id="node26" class="node">
<title>Node26</title>
<g id="a_node26"><a xlink:title=" ">
<polygon fill="white" stroke="black" points="1792,-495.5 1792,-525.5 1941,-525.5 1941,-495.5 1792,-495.5"/>
<text text-anchor="start" x="1800" y="-513.5" font-family="Helvetica,sans-Serif" font-size="10.00">std::unique_ptr&lt; Transform</text>
<text text-anchor="middle" x="1866.5" y="-502.5" font-family="Helvetica,sans-Serif" font-size="10.00">Pointer[]&gt;</text>
</a>
</g>
</g>
<!-- Node26&#45;&gt;Node2 -->
<g id="edge26" class="edge">
<title>Node26&#45;&gt;Node2</title>
<path fill="none" stroke="#9a32cd" stroke-dasharray="5,2" d="M1951.33,-507.96C2015.56,-504.95 2098.23,-498.44 2129,-484.5 2171.38,-465.3 2207.85,-422.45 2225.2,-399.57"/>
<polygon fill="#9a32cd" stroke="#9a32cd" points="1951.03,-504.47 1941.19,-508.42 1951.34,-511.47 1951.03,-504.47"/>
<text text-anchor="middle" x="2050" y="-509.5" font-family="Helvetica,sans-Serif" font-size="10.00"> m_ThreaderTransform</text>
</g>
<!-- Node27 -->
<g id="node27" class="node">
<title>Node27</title>
<g id="a_node27"><a xlink:href="classitk_1_1SmartPointer.html" target="_top" xlink:title=" ">
<polygon fill="white" stroke="black" points="1803.5,-446.5 1803.5,-476.5 1929.5,-476.5 1929.5,-446.5 1803.5,-446.5"/>
<text text-anchor="start" x="1811.5" y="-464.5" font-family="Helvetica,sans-Serif" font-size="10.00">itk::SmartPointer&lt;</text>
<text text-anchor="middle" x="1866.5" y="-453.5" font-family="Helvetica,sans-Serif" font-size="10.00"> GradientImageType &gt;</text>
</a>
</g>
</g>
<!-- Node27&#45;&gt;Node2 -->
<g id="edge27" class="edge">
<title>Node27&#45;&gt;Node2</title>
<path fill="none" stroke="#9a32cd" stroke-dasharray="5,2" d="M1939.84,-468.59C1993.29,-471.49 2067.2,-470.53 2129,-451.5 2163.77,-440.79 2198.44,-415.79 2218.52,-399.55"/>
<polygon fill="#9a32cd" stroke="#9a32cd" points="1939.96,-465.09 1929.76,-467.99 1939.54,-472.08 1939.96,-465.09"/>
<text text-anchor="middle" x="2050" y="-472.5" font-family="Helvetica,sans-Serif" font-size="10.00"> m_GradientImage</text>
</g>
<!-- Node28 -->
<g id="node28" class="node">
<title>Node28</title>
<g id="a_node28"><a xlink:href="classitk_1_1SmartPointer.html" target="_top" xlink:title=" ">
<polygon fill="white" stroke="black" points="1813,-397.5 1813,-427.5 1920,-427.5 1920,-397.5 1813,-397.5"/>
<text text-anchor="start" x="1821" y="-415.5" font-family="Helvetica,sans-Serif" font-size="10.00">itk::SmartPointer&lt;</text>
<text text-anchor="middle" x="1866.5" y="-404.5" font-family="Helvetica,sans-Serif" font-size="10.00"> Self &gt;</text>
</a>
</g>
</g>
<!-- Node28&#45;&gt;Node2 -->
<g id="edge28" class="edge">
<title>Node28&#45;&gt;Node2</title>
<path fill="none" stroke="#9a32cd" stroke-dasharray="5,2" d="M1930.3,-407.73C1989.79,-403.21 2079.71,-396.37 2146.66,-391.29"/>
<polygon fill="#9a32cd" stroke="#9a32cd" points="1930,-404.24 1920.3,-408.49 1930.53,-411.22 1930,-404.24"/>
<text text-anchor="middle" x="2050" y="-439.5" font-family="Helvetica,sans-Serif" font-size="10.00"> m_BSplineInterpolator</text>
<text text-anchor="middle" x="2050" y="-428.5" font-family="Helvetica,sans-Serif" font-size="10.00">m_BSplineTransform</text>
<text text-anchor="middle" x="2050" y="-417.5" font-family="Helvetica,sans-Serif" font-size="10.00">m_DerivativeCalculator</text>
<text text-anchor="middle" x="2050" y="-406.5" font-family="Helvetica,sans-Serif" font-size="10.00">m_Threader</text>
</g>
<!-- Node29 -->
<g id="node29" class="node">
<title>Node29</title>
<g id="a_node29"><a xlink:href="classitk_1_1Array2D.html" target="_top" xlink:title=" ">
<polygon fill="white" stroke="black" points="1790.5,-348.5 1790.5,-378.5 1942.5,-378.5 1942.5,-348.5 1790.5,-348.5"/>
<text text-anchor="start" x="1798.5" y="-366.5" font-family="Helvetica,sans-Serif" font-size="10.00">itk::Array2D&lt; WeightsValue</text>
<text text-anchor="middle" x="1866.5" y="-355.5" font-family="Helvetica,sans-Serif" font-size="10.00">Type &gt;</text>
</a>
</g>
</g>
<!-- Node29&#45;&gt;Node2 -->
<g id="edge29" class="edge">
<title>Node29&#45;&gt;Node2</title>
<path fill="none" stroke="#9a32cd" stroke-dasharray="5,2" d="M1952.68,-359.34C2003.9,-357.88 2070.33,-357.79 2129,-363.5 2142.38,-364.8 2156.57,-366.99 2170.08,-369.48"/>
<polygon fill="#9a32cd" stroke="#9a32cd" points="1952.53,-355.85 1942.65,-359.65 1952.75,-362.84 1952.53,-355.85"/>
<text text-anchor="start" x="1978.5" y="-377.5" font-family="Helvetica,sans-Serif" font-size="10.00"> m_BSplineTransformWeights</text>
<text text-anchor="middle" x="2050" y="-366.5" font-family="Helvetica,sans-Serif" font-size="10.00">Array</text>
</g>
<!-- Node30 -->
<g id="node30" class="node">
<title>Node30</title>
<g id="a_node30"><a xlink:title=" ">
<polygon fill="white" stroke="black" points="1537.5,-348.5 1537.5,-378.5 1683.5,-378.5 1683.5,-348.5 1537.5,-348.5"/>
<text text-anchor="start" x="1545.5" y="-366.5" font-family="Helvetica,sans-Serif" font-size="10.00">vnl_matrix&lt; WeightsValue</text>
<text text-anchor="middle" x="1610.5" y="-355.5" font-family="Helvetica,sans-Serif" font-size="10.00">Type &gt;</text>
</a>
</g>
</g>
<!-- Node30&#45;&gt;Node29 -->
<g id="edge30" class="edge">
<title>Node30&#45;&gt;Node29</title>
<path fill="none" stroke="midnightblue" d="M1693.93,-363.5C1724.87,-363.5 1759.85,-363.5 1790.11,-363.5"/>
<polygon fill="midnightblue" stroke="midnightblue" points="1693.61,-360 1683.61,-363.5 1693.61,-367 1693.61,-360"/>
</g>
<!-- Node31 -->
<g id="node31" class="node">
<title>Node31</title>
<g id="a_node31"><a xlink:href="classitk_1_1Array2D.html" target="_top" xlink:title=" ">
<polygon fill="white" stroke="black" points="1796.5,-299.5 1796.5,-329.5 1936.5,-329.5 1936.5,-299.5 1796.5,-299.5"/>
<text text-anchor="start" x="1804.5" y="-317.5" font-family="Helvetica,sans-Serif" font-size="10.00">itk::Array2D&lt; IndexValue</text>
<text text-anchor="middle" x="1866.5" y="-306.5" font-family="Helvetica,sans-Serif" font-size="10.00">Type &gt;</text>
</a>
</g>
</g>
<!-- Node31&#45;&gt;Node2 -->
<g id="edge31" class="edge">
<title>Node31&#45;&gt;Node2</title>
<path fill="none" stroke="#9a32cd" stroke-dasharray="5,2" d="M1946.93,-312.15C1999.44,-312.49 2069.33,-316.59 2129,-332.5 2159.13,-340.53 2190.95,-357.18 2211.97,-369.48"/>
<polygon fill="#9a32cd" stroke="#9a32cd" points="1946.68,-308.65 1936.67,-312.13 1946.66,-315.65 1946.68,-308.65"/>
<text text-anchor="start" x="1980.5" y="-346.5" font-family="Helvetica,sans-Serif" font-size="10.00"> m_BSplineTransformIndices</text>
<text text-anchor="middle" x="2050" y="-335.5" font-family="Helvetica,sans-Serif" font-size="10.00">Array</text>
</g>
<!-- Node32 -->
<g id="node32" class="node">
<title>Node32</title>
<g id="a_node32"><a xlink:title=" ">
<polygon fill="white" stroke="black" points="1526.5,-305 1526.5,-324 1694.5,-324 1694.5,-305 1526.5,-305"/>
<text text-anchor="middle" x="1610.5" y="-312" font-family="Helvetica,sans-Serif" font-size="10.00">vnl_matrix&lt; IndexValueType &gt;</text>
</a>
</g>
</g>
<!-- Node32&#45;&gt;Node31 -->
<g id="edge32" class="edge">
<title>Node32&#45;&gt;Node31</title>
<path fill="none" stroke="midnightblue" d="M1704.8,-314.5C1735.03,-314.5 1768,-314.5 1796.16,-314.5"/>
<polygon fill="midnightblue" stroke="midnightblue" points="1704.67,-311 1694.67,-314.5 1704.67,-318 1704.67,-311"/>
</g>
<!-- Node33 -->
<g id="node33" class="node">
<title>Node33</title>
<g id="a_node33"><a xlink:title=" ">
<polygon fill="white" stroke="black" points="1793.5,-250.5 1793.5,-280.5 1939.5,-280.5 1939.5,-250.5 1793.5,-250.5"/>
<text text-anchor="start" x="1801.5" y="-268.5" font-family="Helvetica,sans-Serif" font-size="10.00">std::vector&lt; MovingImage</text>
<text text-anchor="middle" x="1866.5" y="-257.5" font-family="Helvetica,sans-Serif" font-size="10.00">PointType &gt;</text>
</a>
</g>
</g>
<!-- Node33&#45;&gt;Node2 -->
<g id="edge33" class="edge">
<title>Node33&#45;&gt;Node2</title>
<path fill="none" stroke="#9a32cd" stroke-dasharray="5,2" d="M1949.7,-258.68C2002.94,-257.44 2072.61,-261.93 2129,-286.5 2171.03,-304.81 2207.38,-346.61 2224.88,-369.26"/>
<polygon fill="#9a32cd" stroke="#9a32cd" points="1949.51,-255.18 1939.62,-258.99 1949.72,-262.18 1949.51,-255.18"/>
<text text-anchor="start" x="1975" y="-300.5" font-family="Helvetica,sans-Serif" font-size="10.00"> m_BSplinePreTransformPoints</text>
<text text-anchor="middle" x="2050" y="-289.5" font-family="Helvetica,sans-Serif" font-size="10.00">Array</text>
</g>
<!-- Node34 -->
<g id="node34" class="node">
<title>Node34</title>
<g id="a_node34"><a xlink:title=" ">
<polygon fill="white" stroke="black" points="1810.5,-212 1810.5,-231 1922.5,-231 1922.5,-212 1810.5,-212"/>
<text text-anchor="middle" x="1866.5" y="-219" font-family="Helvetica,sans-Serif" font-size="10.00">std::vector&lt; bool &gt;</text>
</a>
</g>
</g>
<!-- Node34&#45;&gt;Node2 -->
<g id="edge34" class="edge">
<title>Node34&#45;&gt;Node2</title>
<path fill="none" stroke="#9a32cd" stroke-dasharray="5,2" d="M1922.79,-210.36C1978.44,-202.1 2064.98,-197.55 2129,-232.5 2185.08,-263.12 2218.42,-337.3 2230.65,-369.34"/>
<polygon fill="#9a32cd" stroke="#9a32cd" points="1922.1,-206.92 1912.77,-211.94 1923.19,-213.84 1922.1,-206.92"/>
<text text-anchor="start" x="1971" y="-246.5" font-family="Helvetica,sans-Serif" font-size="10.00"> m_WithinBSplineSupportRegion</text>
<text text-anchor="middle" x="2050" y="-235.5" font-family="Helvetica,sans-Serif" font-size="10.00">Array</text>
</g>
<!-- Node35&#45;&gt;Node2 -->
<g id="edge35" class="edge">
<title>Node35&#45;&gt;Node2</title>
<path fill="none" stroke="#9a32cd" stroke-dasharray="5,2" d="M1327.19,-603.5C1378.36,-603.5 1438.58,-603.5 1493,-603.5 1493,-603.5 1493,-603.5 1867.5,-603.5 1925.69,-603.5 2080.06,-620.98 2129,-589.5 2198.55,-544.76 2225.45,-439.28 2233.31,-399.78"/>
<polygon fill="#9a32cd" stroke="#9a32cd" points="1327.08,-600 1317.08,-603.5 1327.08,-607 1327.08,-600"/>
<text text-anchor="middle" x="1610.5" y="-606.5" font-family="Helvetica,sans-Serif" font-size="10.00"> m_BSplineParametersOffset</text>
</g>
<!-- Node36 -->
<g id="node36" class="node">
<title>Node36</title>
<g id="a_node36"><a xlink:href="classitk_1_1FixedArray.html" target="_top" xlink:title="Simulate a standard C array with copy semantics.">
<polygon fill="white" stroke="black" points="1799.5,-162.5 1799.5,-192.5 1933.5,-192.5 1933.5,-162.5 1799.5,-162.5"/>
<text text-anchor="start" x="1807.5" y="-180.5" font-family="Helvetica,sans-Serif" font-size="10.00">itk::FixedArray&lt; TValue,</text>
<text text-anchor="middle" x="1866.5" y="-169.5" font-family="Helvetica,sans-Serif" font-size="10.00"> VLength &gt;</text>
</a>
</g>
</g>
<!-- Node36&#45;&gt;Node2 -->
<g id="edge37" class="edge">
<title>Node36&#45;&gt;Node2</title>
<path fill="none" stroke="#9a32cd" stroke-dasharray="5,2" d="M1943.85,-162.26C1999.36,-155.4 2074.08,-155.27 2129,-189.5 2196.18,-231.37 2224.38,-331.23 2232.95,-369.35"/>
<polygon fill="#9a32cd" stroke="#9a32cd" points="1943.17,-158.82 1933.72,-163.62 1944.09,-165.76 1943.17,-158.82"/>
<text text-anchor="middle" x="2050" y="-192.5" font-family="Helvetica,sans-Serif" font-size="10.00"> m_BSplineTransformIndices</text>
</g>
<!-- Node37 -->
<g id="node37" class="node">
<title>Node37</title>
<g id="a_node37"><a xlink:title=" ">
<polygon fill="white" stroke="black" points="1795,-113.5 1795,-143.5 1938,-143.5 1938,-113.5 1795,-113.5"/>
<text text-anchor="start" x="1803" y="-131.5" font-family="Helvetica,sans-Serif" font-size="10.00">std::unique_ptr&lt; BSpline</text>
<text text-anchor="middle" x="1866.5" y="-120.5" font-family="Helvetica,sans-Serif" font-size="10.00">TransformWeightsType[]&gt;</text>
</a>
</g>
</g>
<!-- Node37&#45;&gt;Node2 -->
<g id="edge38" class="edge">
<title>Node37&#45;&gt;Node2</title>
<path fill="none" stroke="#9a32cd" stroke-dasharray="5,2" d="M1948.51,-120.34C2014.23,-115.42 2100.48,-113.31 2129,-132.5 2212.4,-188.62 2231.03,-324.01 2234.99,-369.39"/>
<polygon fill="#9a32cd" stroke="#9a32cd" points="1947.85,-116.89 1938.15,-121.16 1948.4,-123.86 1947.85,-116.89"/>
<text text-anchor="start" x="1976" y="-146.5" font-family="Helvetica,sans-Serif" font-size="10.00"> m_ThreaderBSplineTransform</text>
<text text-anchor="middle" x="2050" y="-135.5" font-family="Helvetica,sans-Serif" font-size="10.00">Weights</text>
</g>
<!-- Node38 -->
<g id="node38" class="node">
<title>Node38</title>
<g id="a_node38"><a xlink:title=" ">
<polygon fill="white" stroke="black" points="1788,-64.5 1788,-94.5 1945,-94.5 1945,-64.5 1788,-64.5"/>
<text text-anchor="start" x="1796" y="-82.5" font-family="Helvetica,sans-Serif" font-size="10.00">std::unique_ptr&lt; BSpline</text>
<text text-anchor="middle" x="1866.5" y="-71.5" font-family="Helvetica,sans-Serif" font-size="10.00">TransformIndexArrayType[]&gt;</text>
</a>
</g>
</g>
<!-- Node38&#45;&gt;Node2 -->
<g id="edge39" class="edge">
<title>Node38&#45;&gt;Node2</title>
<path fill="none" stroke="#9a32cd" stroke-dasharray="5,2" d="M1937.67,-62.71C1994.69,-53.34 2074.35,-50.49 2129,-90.5 2223.01,-159.32 2234.6,-319.22 2235.89,-369.25"/>
<polygon fill="#9a32cd" stroke="#9a32cd" points="1936.9,-59.29 1927.66,-64.46 1938.11,-66.18 1936.9,-59.29"/>
<text text-anchor="start" x="1976" y="-104.5" font-family="Helvetica,sans-Serif" font-size="10.00"> m_ThreaderBSplineTransform</text>
<text text-anchor="middle" x="2050" y="-93.5" font-family="Helvetica,sans-Serif" font-size="10.00">Indices</text>
</g>
<!-- Node39 -->
<g id="node39" class="node">
<title>Node39</title>
<g id="a_node39"><a xlink:title=" ">
<polygon fill="white" stroke="black" points="2697,-330 2697,-371 2850,-371 2850,-330 2697,-330"/>
<text text-anchor="start" x="2705" y="-359" font-family="Helvetica,sans-Serif" font-size="10.00">std::unique_ptr&lt; itk</text>
<text text-anchor="start" x="2705" y="-348" font-family="Helvetica,sans-Serif" font-size="10.00">::ImageToImageMetric</text>
<text text-anchor="middle" x="2773.5" y="-337" font-family="Helvetica,sans-Serif" font-size="10.00">::ConstantPointerWrapper &gt;</text>
</a>
</g>
</g>
<!-- Node39&#45;&gt;Node2 -->
<g id="edge40" class="edge">
<title>Node39&#45;&gt;Node2</title>
<path fill="none" stroke="#9a32cd" stroke-dasharray="5,2" d="M2686.51,-345.16C2672.32,-344.47 2657.75,-343.87 2644,-343.5 2568.92,-341.45 2549.84,-337.07 2475,-343.5 2417.69,-348.42 2353.44,-359.91 2306.3,-369.48"/>
<polygon fill="#9a32cd" stroke="#9a32cd" points="2686.6,-348.67 2696.77,-345.68 2686.96,-341.68 2686.6,-348.67"/>
<text text-anchor="middle" x="2559.5" y="-346.5" font-family="Helvetica,sans-Serif" font-size="10.00"> m_ConstSelfWrapper</text>
</g>
<!-- Node40&#45;&gt;Node39 -->
<g id="edge41" class="edge">
<title>Node40&#45;&gt;Node39</title>
<path fill="none" stroke="#9a32cd" stroke-dasharray="5,2" d="M2654.54,-369.42C2668.71,-367.14 2683.17,-364.82 2696.89,-362.62"/>
<polygon fill="#9a32cd" stroke="#9a32cd" points="2653.61,-366.02 2644.29,-371.06 2654.72,-372.93 2653.61,-366.02"/>
<text text-anchor="middle" x="2670.5" y="-370.5" font-family="Helvetica,sans-Serif" font-size="10.00"> ptr</text>
</g>
<!-- Node41 -->
<g id="node41" class="node">
<title>Node41</title>
<g id="a_node41"><a xlink:title=" ">
<polygon fill="white" stroke="black" points="1794,-15.5 1794,-45.5 1939,-45.5 1939,-15.5 1794,-15.5"/>
<text text-anchor="start" x="1802" y="-33.5" font-family="Helvetica,sans-Serif" font-size="10.00">std::unique_ptr&lt; unsigned</text>
<text text-anchor="middle" x="1866.5" y="-22.5" font-family="Helvetica,sans-Serif" font-size="10.00"> int[]&gt;</text>
</a>
</g>
</g>
<!-- Node41&#45;&gt;Node2 -->
<g id="edge43" class="edge">
<title>Node41&#45;&gt;Node2</title>
<path fill="none" stroke="#9a32cd" stroke-dasharray="5,2" d="M1924.25,-12.85C1981.72,1.26 2070.26,12.25 2129,-31.5 2185.88,-73.86 2224.43,-307.18 2233.79,-369.3"/>
<polygon fill="#9a32cd" stroke="#9a32cd" points="1923.07,-9.54 1914.25,-15.42 1924.81,-16.32 1923.07,-9.54"/>
<text text-anchor="start" x="1976" y="-45.5" font-family="Helvetica,sans-Serif" font-size="10.00"> m_ThreaderNumberOfMoving</text>
<text text-anchor="middle" x="2050" y="-34.5" font-family="Helvetica,sans-Serif" font-size="10.00">ImageSamples</text>
</g>
</g>
</svg>
