<?xml version="1.0" encoding="UTF-8" standalone="no"?>
<!DOCTYPE svg PUBLIC "-//W3C//DTD SVG 1.1//EN"
 "http://www.w3.org/Graphics/SVG/1.1/DTD/svg11.dtd">
<!-- Generated by graphviz version 2.43.0 (0)
 -->
<!-- Title: itk::DerivativeOperator&lt; TPixel, VDimension, TAllocator &gt; Pages: 1 -->
<svg width="1512pt" height="160pt"
 viewBox="0.00 0.00 1512.00 160.00" xmlns="http://www.w3.org/2000/svg" xmlns:xlink="http://www.w3.org/1999/xlink">
<g id="graph0" class="graph" transform="scale(1 1) rotate(0) translate(4 156)">
<title>itk::DerivativeOperator&lt; TPixel, VDimension, TAllocator &gt;</title>
<polygon fill="white" stroke="transparent" points="-4,4 -4,-156 1508,-156 1508,4 -4,4"/>
<!-- Node1 -->
<g id="node1" class="node">
<title>Node1</title>
<g id="a_node1"><a xlink:title="A NeighborhoodOperator for taking an n&#45;th order derivative at a pixel.">
<polygon fill="#bfbfbf" stroke="black" points="1014,-55.5 1014,-96.5 1143,-96.5 1143,-55.5 1014,-55.5"/>
<text text-anchor="start" x="1022" y="-84.5" font-family="Helvetica,sans-Serif" font-size="10.00">itk::DerivativeOperator</text>
<text text-anchor="start" x="1022" y="-73.5" font-family="Helvetica,sans-Serif" font-size="10.00">&lt; TPixel, VDimension,</text>
<text text-anchor="middle" x="1078.5" y="-62.5" font-family="Helvetica,sans-Serif" font-size="10.00"> TAllocator &gt;</text>
</a>
</g>
</g>
<!-- Node6 -->
<g id="node6" class="node">
<title>Node6</title>
<g id="a_node6"><a xlink:href="classitk_1_1DerivativeOperator.html" target="_top" xlink:title=" ">
<polygon fill="white" stroke="black" points="1339,-110.5 1339,-151.5 1471,-151.5 1471,-110.5 1339,-110.5"/>
<text text-anchor="start" x="1347" y="-139.5" font-family="Helvetica,sans-Serif" font-size="10.00">itk::DerivativeOperator</text>
<text text-anchor="start" x="1347" y="-128.5" font-family="Helvetica,sans-Serif" font-size="10.00">&lt; ScalarValueType, Self</text>
<text text-anchor="middle" x="1405" y="-117.5" font-family="Helvetica,sans-Serif" font-size="10.00">::ImageDimension &gt;</text>
</a>
</g>
</g>
<!-- Node1&#45;&gt;Node6 -->
<g id="edge6" class="edge">
<title>Node1&#45;&gt;Node6</title>
<path fill="none" stroke="orange" stroke-dasharray="5,2" d="M1149.4,-99.24C1153.3,-100.24 1157.19,-101.17 1161,-102 1220.58,-114.94 1289.72,-122.48 1338.98,-126.62"/>
<polygon fill="orange" stroke="orange" points="1150.25,-95.84 1139.68,-96.61 1148.42,-102.6 1150.25,-95.84"/>
<text text-anchor="start" x="1163.5" y="-135" font-family="Helvetica,sans-Serif" font-size="10.00"> &lt; ScalarValueType,</text>
<text text-anchor="middle" x="1224.5" y="-124" font-family="Helvetica,sans-Serif" font-size="10.00"> Self::ImageDimension &gt;</text>
</g>
<!-- Node7 -->
<g id="node7" class="node">
<title>Node7</title>
<g id="a_node7"><a xlink:href="classitk_1_1DerivativeOperator.html" target="_top" xlink:title=" ">
<polygon fill="white" stroke="black" points="1306,-61 1306,-91 1504,-91 1504,-61 1306,-61"/>
<text text-anchor="start" x="1314" y="-79" font-family="Helvetica,sans-Serif" font-size="10.00">itk::DerivativeOperator</text>
<text text-anchor="middle" x="1405" y="-68" font-family="Helvetica,sans-Serif" font-size="10.00">&lt; PixelType, Self::ImageDimension &gt;</text>
</a>
</g>
</g>
<!-- Node1&#45;&gt;Node7 -->
<g id="edge7" class="edge">
<title>Node1&#45;&gt;Node7</title>
<path fill="none" stroke="orange" stroke-dasharray="5,2" d="M1153.24,-76C1198.44,-76 1256.84,-76 1305.91,-76"/>
<polygon fill="orange" stroke="orange" points="1153.22,-72.5 1143.22,-76 1153.22,-79.5 1153.22,-72.5"/>
<text text-anchor="start" x="1177" y="-90" font-family="Helvetica,sans-Serif" font-size="10.00"> &lt; PixelType, Self::</text>
<text text-anchor="middle" x="1224.5" y="-79" font-family="Helvetica,sans-Serif" font-size="10.00">ImageDimension &gt;</text>
</g>
<!-- Node8 -->
<g id="node8" class="node">
<title>Node8</title>
<g id="a_node8"><a xlink:href="classitk_1_1DerivativeOperator.html" target="_top" xlink:title=" ">
<polygon fill="white" stroke="black" points="1335,-0.5 1335,-41.5 1475,-41.5 1475,-0.5 1335,-0.5"/>
<text text-anchor="start" x="1343" y="-29.5" font-family="Helvetica,sans-Serif" font-size="10.00">itk::DerivativeOperator</text>
<text text-anchor="start" x="1343" y="-18.5" font-family="Helvetica,sans-Serif" font-size="10.00">&lt; OutputImagePixelType,</text>
<text text-anchor="middle" x="1405" y="-7.5" font-family="Helvetica,sans-Serif" font-size="10.00"> Self::ImageDimension &gt;</text>
</a>
</g>
</g>
<!-- Node1&#45;&gt;Node8 -->
<g id="edge8" class="edge">
<title>Node1&#45;&gt;Node8</title>
<path fill="none" stroke="orange" stroke-dasharray="5,2" d="M1149.4,-52.76C1153.3,-51.76 1157.19,-50.83 1161,-50 1218.92,-37.42 1285.87,-29.94 1334.81,-25.74"/>
<polygon fill="orange" stroke="orange" points="1148.42,-49.4 1139.68,-55.39 1150.25,-56.16 1148.42,-49.4"/>
<text text-anchor="start" x="1161" y="-64" font-family="Helvetica,sans-Serif" font-size="10.00"> &lt; OutputImagePixelType,</text>
<text text-anchor="middle" x="1224.5" y="-53" font-family="Helvetica,sans-Serif" font-size="10.00"> Self::ImageDimension &gt;</text>
</g>
<!-- Node2 -->
<g id="node2" class="node">
<title>Node2</title>
<g id="a_node2"><a xlink:href="classitk_1_1NeighborhoodOperator.html" target="_top" xlink:title=" ">
<polygon fill="white" stroke="black" points="790,-55.5 790,-96.5 977,-96.5 977,-55.5 790,-55.5"/>
<text text-anchor="start" x="798" y="-84.5" font-family="Helvetica,sans-Serif" font-size="10.00">itk::NeighborhoodOperator</text>
<text text-anchor="start" x="798" y="-73.5" font-family="Helvetica,sans-Serif" font-size="10.00">&lt; TPixel, 2, NeighborhoodAllocator</text>
<text text-anchor="middle" x="883.5" y="-62.5" font-family="Helvetica,sans-Serif" font-size="10.00">&lt; TPixel &gt; &gt;</text>
</a>
</g>
</g>
<!-- Node2&#45;&gt;Node1 -->
<g id="edge1" class="edge">
<title>Node2&#45;&gt;Node1</title>
<path fill="none" stroke="midnightblue" d="M987.28,-76C996.34,-76 1005.32,-76 1013.91,-76"/>
<polygon fill="midnightblue" stroke="midnightblue" points="987.04,-72.5 977.04,-76 987.04,-79.5 987.04,-72.5"/>
</g>
<!-- Node3 -->
<g id="node3" class="node">
<title>Node3</title>
<g id="a_node3"><a xlink:href="classitk_1_1Neighborhood.html" target="_top" xlink:title=" ">
<polygon fill="white" stroke="black" points="268,-50 268,-102 399,-102 399,-50 268,-50"/>
<text text-anchor="start" x="276" y="-90" font-family="Helvetica,sans-Serif" font-size="10.00">itk::Neighborhood&lt;</text>
<text text-anchor="start" x="276" y="-79" font-family="Helvetica,sans-Serif" font-size="10.00"> TPixel, VDimension,</text>
<text text-anchor="start" x="276" y="-68" font-family="Helvetica,sans-Serif" font-size="10.00"> NeighborhoodAllocator</text>
<text text-anchor="middle" x="333.5" y="-57" font-family="Helvetica,sans-Serif" font-size="10.00">&lt; TPixel &gt; &gt;</text>
</a>
</g>
</g>
<!-- Node3&#45;&gt;Node2 -->
<g id="edge2" class="edge">
<title>Node3&#45;&gt;Node2</title>
<path fill="none" stroke="midnightblue" d="M409.36,-80.69C411.94,-80.8 414.49,-80.91 417,-81 574.68,-86.83 614.32,-89.7 772,-84 777.86,-83.79 783.9,-83.51 789.98,-83.19"/>
<polygon fill="midnightblue" stroke="midnightblue" points="409.49,-77.19 399.34,-80.22 409.16,-84.19 409.49,-77.19"/>
</g>
<!-- Node5 -->
<g id="node5" class="node">
<title>Node5</title>
<g id="a_node5"><a xlink:href="classitk_1_1NeighborhoodOperator.html" target="_top" xlink:title="Virtual class that defines a common interface to all neighborhood operator subtypes.">
<polygon fill="white" stroke="black" points="436,-39 436,-69 624,-69 624,-39 436,-39"/>
<text text-anchor="start" x="444" y="-57" font-family="Helvetica,sans-Serif" font-size="10.00">itk::NeighborhoodOperator</text>
<text text-anchor="middle" x="530" y="-46" font-family="Helvetica,sans-Serif" font-size="10.00">&lt; TPixel, VDimension, TAllocator &gt;</text>
</a>
</g>
</g>
<!-- Node3&#45;&gt;Node5 -->
<g id="edge5" class="edge">
<title>Node3&#45;&gt;Node5</title>
<path fill="none" stroke="midnightblue" d="M409.3,-67.54C417.96,-66.56 426.87,-65.55 435.74,-64.55"/>
<polygon fill="midnightblue" stroke="midnightblue" points="408.81,-64.07 399.27,-68.67 409.6,-71.03 408.81,-64.07"/>
</g>
<!-- Node4 -->
<g id="node4" class="node">
<title>Node4</title>
<g id="a_node4"><a xlink:href="classitk_1_1Neighborhood.html" target="_top" xlink:title="A light&#45;weight container object for storing an N&#45;dimensional neighborhood of values.">
<polygon fill="white" stroke="black" points="0,-55.5 0,-96.5 117,-96.5 117,-55.5 0,-55.5"/>
<text text-anchor="start" x="8" y="-84.5" font-family="Helvetica,sans-Serif" font-size="10.00">itk::Neighborhood&lt;</text>
<text text-anchor="start" x="8" y="-73.5" font-family="Helvetica,sans-Serif" font-size="10.00"> TPixel, VDimension,</text>
<text text-anchor="middle" x="58.5" y="-62.5" font-family="Helvetica,sans-Serif" font-size="10.00"> TAllocator &gt;</text>
</a>
</g>
</g>
<!-- Node4&#45;&gt;Node3 -->
<g id="edge3" class="edge">
<title>Node4&#45;&gt;Node3</title>
<path fill="none" stroke="orange" stroke-dasharray="5,2" d="M127.15,-76C170.13,-76 225.45,-76 267.84,-76"/>
<polygon fill="orange" stroke="orange" points="127.06,-72.5 117.06,-76 127.06,-79.5 127.06,-72.5"/>
<text text-anchor="start" x="135" y="-101" font-family="Helvetica,sans-Serif" font-size="10.00"> &lt; TPixel, VDimension,</text>
<text text-anchor="start" x="135" y="-90" font-family="Helvetica,sans-Serif" font-size="10.00"> NeighborhoodAllocator</text>
<text text-anchor="middle" x="192.5" y="-79" font-family="Helvetica,sans-Serif" font-size="10.00">&lt; TPixel &gt; &gt;</text>
</g>
<!-- Node5&#45;&gt;Node2 -->
<g id="edge4" class="edge">
<title>Node5&#45;&gt;Node2</title>
<path fill="none" stroke="orange" stroke-dasharray="5,2" d="M634.22,-55.32C676.92,-56.42 726.9,-58.4 772,-62 777.78,-62.46 783.73,-63.01 789.72,-63.61"/>
<polygon fill="orange" stroke="orange" points="634.18,-51.82 624.1,-55.08 634.01,-58.82 634.18,-51.82"/>
<text text-anchor="start" x="642" y="-76" font-family="Helvetica,sans-Serif" font-size="10.00"> &lt; TPixel, 2, Neighborhood</text>
<text text-anchor="middle" x="707" y="-65" font-family="Helvetica,sans-Serif" font-size="10.00">Allocator&lt; TPixel &gt; &gt;</text>
</g>
</g>
</svg>
