<?xml version="1.0" encoding="UTF-8" standalone="no"?>
<!DOCTYPE svg PUBLIC "-//W3C//DTD SVG 1.1//EN"
 "http://www.w3.org/Graphics/SVG/1.1/DTD/svg11.dtd">
<!-- Generated by graphviz version 2.43.0 (0)
 -->
<!-- Title: itk::BinaryImageToLevelSetImageAdaptorBase&lt; TInputImage, TLevelSet &gt; Pages: 1 -->
<svg width="2148pt" height="281pt"
 viewBox="0.00 0.00 2148.00 280.50" xmlns="http://www.w3.org/2000/svg" xmlns:xlink="http://www.w3.org/1999/xlink">
<g id="graph0" class="graph" transform="scale(1 1) rotate(0) translate(4 276.5)">
<title>itk::BinaryImageToLevelSetImageAdaptorBase&lt; TInputImage, TLevelSet &gt;</title>
<polygon fill="white" stroke="transparent" points="-4,4 -4,-276.5 2144,-276.5 2144,4 -4,4"/>
<!-- Node1 -->
<g id="node1" class="node">
<title>Node1</title>
<g id="a_node1"><a xlink:title=" ">
<polygon fill="#bfbfbf" stroke="black" points="232,-107.5 232,-148.5 417,-148.5 417,-107.5 232,-107.5"/>
<text text-anchor="start" x="240" y="-136.5" font-family="Helvetica,sans-Serif" font-size="10.00">itk::BinaryImageToLevelSet</text>
<text text-anchor="start" x="240" y="-125.5" font-family="Helvetica,sans-Serif" font-size="10.00">ImageAdaptorBase&lt; TInputImage,</text>
<text text-anchor="middle" x="324.5" y="-114.5" font-family="Helvetica,sans-Serif" font-size="10.00"> TLevelSet &gt;</text>
</a>
</g>
</g>
<!-- Node4 -->
<g id="node4" class="node">
<title>Node4</title>
<g id="a_node4"><a xlink:href="classitk_1_1BinaryImageToLevelSetImageAdaptorBase.html" target="_top" xlink:title=" ">
<polygon fill="white" stroke="black" points="694.5,-158.5 694.5,-199.5 849.5,-199.5 849.5,-158.5 694.5,-158.5"/>
<text text-anchor="start" x="702.5" y="-187.5" font-family="Helvetica,sans-Serif" font-size="10.00">itk::BinaryImageToLevelSet</text>
<text text-anchor="start" x="702.5" y="-176.5" font-family="Helvetica,sans-Serif" font-size="10.00">ImageAdaptorBase&lt; TInput,</text>
<text text-anchor="middle" x="772" y="-165.5" font-family="Helvetica,sans-Serif" font-size="10.00"> TOutput &gt;</text>
</a>
</g>
</g>
<!-- Node1&#45;&gt;Node4 -->
<g id="edge3" class="edge">
<title>Node1&#45;&gt;Node4</title>
<path fill="none" stroke="orange" stroke-dasharray="5,2" d="M415.15,-150.5C421.84,-151.81 428.51,-153 435,-154 523.3,-167.68 625.85,-173.93 694.21,-176.76"/>
<polygon fill="orange" stroke="orange" points="415.84,-147.07 405.35,-148.51 414.45,-153.93 415.84,-147.07"/>
<text text-anchor="middle" x="535.5" y="-176" font-family="Helvetica,sans-Serif" font-size="10.00"> &lt; TInput, TOutput &gt;</text>
</g>
<!-- Node12 -->
<g id="node12" class="node">
<title>Node12</title>
<g id="a_node12"><a xlink:href="classitk_1_1BinaryImageToLevelSetImageAdaptorBase.html" target="_top" xlink:title=" ">
<polygon fill="white" stroke="black" points="654,-4.5 654,-45.5 890,-45.5 890,-4.5 654,-4.5"/>
<text text-anchor="start" x="662" y="-33.5" font-family="Helvetica,sans-Serif" font-size="10.00">itk::BinaryImageToLevelSet</text>
<text text-anchor="start" x="662" y="-22.5" font-family="Helvetica,sans-Serif" font-size="10.00">ImageAdaptorBase&lt; TInputImage,</text>
<text text-anchor="middle" x="772" y="-11.5" font-family="Helvetica,sans-Serif" font-size="10.00"> LevelSetDenseImage&lt; TLevelSetImage &gt; &gt;</text>
</a>
</g>
</g>
<!-- Node1&#45;&gt;Node12 -->
<g id="edge11" class="edge">
<title>Node1&#45;&gt;Node12</title>
<path fill="none" stroke="orange" stroke-dasharray="5,2" d="M349.26,-99.64C369.51,-77.78 400.72,-49.13 435,-36 504.22,-9.49 587.45,-6.58 653.76,-10.37"/>
<polygon fill="orange" stroke="orange" points="346.41,-97.58 342.31,-107.35 351.61,-102.27 346.41,-97.58"/>
<text text-anchor="start" x="458" y="-50" font-family="Helvetica,sans-Serif" font-size="10.00"> &lt; TInputImage, LevelSetDense</text>
<text text-anchor="middle" x="535.5" y="-39" font-family="Helvetica,sans-Serif" font-size="10.00">Image&lt; TLevelSetImage &gt; &gt;</text>
</g>
<!-- Node14 -->
<g id="node14" class="node">
<title>Node14</title>
<g id="a_node14"><a xlink:href="classitk_1_1BinaryImageToLevelSetImageAdaptorBase.html" target="_top" xlink:title=" ">
<polygon fill="white" stroke="black" points="908,-203 908,-255 1123,-255 1123,-203 908,-203"/>
<text text-anchor="start" x="916" y="-243" font-family="Helvetica,sans-Serif" font-size="10.00">itk::BinaryImageToLevelSet</text>
<text text-anchor="start" x="916" y="-232" font-family="Helvetica,sans-Serif" font-size="10.00">ImageAdaptorBase&lt; TInput,</text>
<text text-anchor="start" x="916" y="-221" font-family="Helvetica,sans-Serif" font-size="10.00"> WhitakerSparseLevelSetImage</text>
<text text-anchor="middle" x="1015.5" y="-210" font-family="Helvetica,sans-Serif" font-size="10.00">&lt; TOutput, TInput::ImageDimension &gt; &gt;</text>
</a>
</g>
</g>
<!-- Node1&#45;&gt;Node14 -->
<g id="edge13" class="edge">
<title>Node1&#45;&gt;Node14</title>
<path fill="none" stroke="orange" stroke-dasharray="5,2" d="M363.78,-154C384.06,-166.44 409.91,-180.28 435,-188 594.42,-237.04 789.7,-239.83 907.99,-235.66"/>
<polygon fill="orange" stroke="orange" points="365.49,-150.94 355.16,-148.59 361.77,-156.87 365.49,-150.94"/>
<text text-anchor="start" x="462.5" y="-252" font-family="Helvetica,sans-Serif" font-size="10.00"> &lt; TInput, WhitakerSparse</text>
<text text-anchor="start" x="462.5" y="-241" font-family="Helvetica,sans-Serif" font-size="10.00">LevelSetImage&lt; TOutput,</text>
<text text-anchor="middle" x="535.5" y="-230" font-family="Helvetica,sans-Serif" font-size="10.00"> TInput::ImageDimension &gt; &gt;</text>
</g>
<!-- Node15 -->
<g id="node15" class="node">
<title>Node15</title>
<g id="a_node15"><a xlink:href="classitk_1_1BinaryImageToLevelSetImageAdaptorBase.html" target="_top" xlink:title=" ">
<polygon fill="white" stroke="black" points="930.5,-102 930.5,-154 1100.5,-154 1100.5,-102 930.5,-102"/>
<text text-anchor="start" x="938.5" y="-142" font-family="Helvetica,sans-Serif" font-size="10.00">itk::BinaryImageToLevelSet</text>
<text text-anchor="start" x="938.5" y="-131" font-family="Helvetica,sans-Serif" font-size="10.00">ImageAdaptorBase&lt; TInput,</text>
<text text-anchor="start" x="938.5" y="-120" font-family="Helvetica,sans-Serif" font-size="10.00"> MalcolmSparseLevelSetImage</text>
<text text-anchor="middle" x="1015.5" y="-109" font-family="Helvetica,sans-Serif" font-size="10.00">&lt; TInput::ImageDimension &gt; &gt;</text>
</a>
</g>
</g>
<!-- Node1&#45;&gt;Node15 -->
<g id="edge15" class="edge">
<title>Node1&#45;&gt;Node15</title>
<path fill="none" stroke="orange" stroke-dasharray="5,2" d="M427.4,-128C563.87,-128 803.5,-128 930.3,-128"/>
<polygon fill="orange" stroke="orange" points="427.35,-124.5 417.35,-128 427.35,-131.5 427.35,-124.5"/>
<text text-anchor="start" x="435" y="-142" font-family="Helvetica,sans-Serif" font-size="10.00"> &lt; TInput, MalcolmSparseLevel</text>
<text text-anchor="middle" x="535.5" y="-131" font-family="Helvetica,sans-Serif" font-size="10.00">SetImage&lt; TInput::ImageDimension &gt; &gt;</text>
</g>
<!-- Node16 -->
<g id="node16" class="node">
<title>Node16</title>
<g id="a_node16"><a xlink:href="classitk_1_1BinaryImageToLevelSetImageAdaptorBase.html" target="_top" xlink:title=" ">
<polygon fill="white" stroke="black" points="934.5,-44 934.5,-96 1096.5,-96 1096.5,-44 934.5,-44"/>
<text text-anchor="start" x="942.5" y="-84" font-family="Helvetica,sans-Serif" font-size="10.00">itk::BinaryImageToLevelSet</text>
<text text-anchor="start" x="942.5" y="-73" font-family="Helvetica,sans-Serif" font-size="10.00">ImageAdaptorBase&lt; TInput,</text>
<text text-anchor="start" x="942.5" y="-62" font-family="Helvetica,sans-Serif" font-size="10.00"> ShiSparseLevelSetImage&lt;</text>
<text text-anchor="middle" x="1015.5" y="-51" font-family="Helvetica,sans-Serif" font-size="10.00"> TInput::ImageDimension &gt; &gt;</text>
</a>
</g>
</g>
<!-- Node1&#45;&gt;Node16 -->
<g id="edge17" class="edge">
<title>Node1&#45;&gt;Node16</title>
<path fill="none" stroke="orange" stroke-dasharray="5,2" d="M414.73,-105.44C421.56,-104.13 428.37,-102.96 435,-102 612,-76.31 822.14,-70.86 934.38,-69.93"/>
<polygon fill="orange" stroke="orange" points="413.84,-102.04 404.72,-107.44 415.22,-108.91 413.84,-102.04"/>
<text text-anchor="start" x="435" y="-116" font-family="Helvetica,sans-Serif" font-size="10.00"> &lt; TInput, ShiSparseLevel</text>
<text text-anchor="middle" x="535.5" y="-105" font-family="Helvetica,sans-Serif" font-size="10.00">SetImage&lt; TInput::ImageDimension &gt; &gt;</text>
</g>
<!-- Node2 -->
<g id="node2" class="node">
<title>Node2</title>
<g id="a_node2"><a xlink:href="classitk_1_1Object.html" target="_top" xlink:title="Base class for most ITK classes.">
<polygon fill="white" stroke="black" points="128,-118.5 128,-137.5 195,-137.5 195,-118.5 128,-118.5"/>
<text text-anchor="middle" x="161.5" y="-125.5" font-family="Helvetica,sans-Serif" font-size="10.00">itk::Object</text>
</a>
</g>
</g>
<!-- Node2&#45;&gt;Node1 -->
<g id="edge1" class="edge">
<title>Node2&#45;&gt;Node1</title>
<path fill="none" stroke="midnightblue" d="M205.27,-128C213.64,-128 222.72,-128 231.99,-128"/>
<polygon fill="midnightblue" stroke="midnightblue" points="205.08,-124.5 195.08,-128 205.08,-131.5 205.08,-124.5"/>
</g>
<!-- Node3 -->
<g id="node3" class="node">
<title>Node3</title>
<g id="a_node3"><a xlink:href="classitk_1_1LightObject.html" target="_top" xlink:title="Light weight base class for most itk classes.">
<polygon fill="white" stroke="black" points="0,-118.5 0,-137.5 91,-137.5 91,-118.5 0,-118.5"/>
<text text-anchor="middle" x="45.5" y="-125.5" font-family="Helvetica,sans-Serif" font-size="10.00">itk::LightObject</text>
</a>
</g>
</g>
<!-- Node3&#45;&gt;Node2 -->
<g id="edge2" class="edge">
<title>Node3&#45;&gt;Node2</title>
<path fill="none" stroke="midnightblue" d="M101.39,-128C110.45,-128 119.59,-128 127.88,-128"/>
<polygon fill="midnightblue" stroke="midnightblue" points="101.23,-124.5 91.23,-128 101.23,-131.5 101.23,-124.5"/>
</g>
<!-- Node5 -->
<g id="node5" class="node">
<title>Node5</title>
<g id="a_node5"><a xlink:href="classitk_1_1BinaryImageToSparseLevelSetImageAdaptorBase.html" target="_top" xlink:title="Abstract class for converting binary image to sparse level&#45;set.">
<polygon fill="white" stroke="black" points="1183,-164.5 1183,-205.5 1335,-205.5 1335,-164.5 1183,-164.5"/>
<text text-anchor="start" x="1191" y="-193.5" font-family="Helvetica,sans-Serif" font-size="10.00">itk::BinaryImageToSparse</text>
<text text-anchor="start" x="1191" y="-182.5" font-family="Helvetica,sans-Serif" font-size="10.00">LevelSetImageAdaptorBase</text>
<text text-anchor="middle" x="1259" y="-171.5" font-family="Helvetica,sans-Serif" font-size="10.00">&lt; TInput, TOutput &gt;</text>
</a>
</g>
</g>
<!-- Node4&#45;&gt;Node5 -->
<g id="edge4" class="edge">
<title>Node4&#45;&gt;Node5</title>
<path fill="none" stroke="midnightblue" d="M859.69,-180.07C951.59,-181.21 1095.27,-182.99 1182.62,-184.07"/>
<polygon fill="midnightblue" stroke="midnightblue" points="859.62,-176.57 849.58,-179.95 859.54,-183.57 859.62,-176.57"/>
</g>
<!-- Node6 -->
<g id="node6" class="node">
<title>Node6</title>
<g id="a_node6"><a xlink:href="classitk_1_1BinaryImageToSparseLevelSetImageAdaptorBase.html" target="_top" xlink:title=" ">
<polygon fill="white" stroke="black" points="1614,-220 1614,-272 1860,-272 1860,-220 1614,-220"/>
<text text-anchor="start" x="1622" y="-260" font-family="Helvetica,sans-Serif" font-size="10.00">itk::BinaryImageToSparse</text>
<text text-anchor="start" x="1622" y="-249" font-family="Helvetica,sans-Serif" font-size="10.00">LevelSetImageAdaptorBase</text>
<text text-anchor="start" x="1622" y="-238" font-family="Helvetica,sans-Serif" font-size="10.00">&lt; TInput, WhitakerSparseLevelSet</text>
<text text-anchor="middle" x="1737" y="-227" font-family="Helvetica,sans-Serif" font-size="10.00">Image&lt; TOutput, TInput::ImageDimension &gt; &gt;</text>
</a>
</g>
</g>
<!-- Node5&#45;&gt;Node6 -->
<g id="edge5" class="edge">
<title>Node5&#45;&gt;Node6</title>
<path fill="none" stroke="orange" stroke-dasharray="5,2" d="M1345.4,-198.78C1361.84,-201.29 1378.94,-203.81 1395,-206 1467.5,-215.89 1548.87,-225.49 1613.94,-232.81"/>
<polygon fill="orange" stroke="orange" points="1345.67,-195.28 1335.26,-197.22 1344.61,-202.2 1345.67,-195.28"/>
<text text-anchor="start" x="1422.5" y="-254" font-family="Helvetica,sans-Serif" font-size="10.00"> &lt; TInput, WhitakerSparse</text>
<text text-anchor="start" x="1422.5" y="-243" font-family="Helvetica,sans-Serif" font-size="10.00">LevelSetImage&lt; TOutput,</text>
<text text-anchor="middle" x="1495.5" y="-232" font-family="Helvetica,sans-Serif" font-size="10.00"> TInput::ImageDimension &gt; &gt;</text>
</g>
<!-- Node8 -->
<g id="node8" class="node">
<title>Node8</title>
<g id="a_node8"><a xlink:href="classitk_1_1BinaryImageToSparseLevelSetImageAdaptorBase.html" target="_top" xlink:title=" ">
<polygon fill="white" stroke="black" points="1636.5,-144 1636.5,-196 1837.5,-196 1837.5,-144 1636.5,-144"/>
<text text-anchor="start" x="1644.5" y="-184" font-family="Helvetica,sans-Serif" font-size="10.00">itk::BinaryImageToSparse</text>
<text text-anchor="start" x="1644.5" y="-173" font-family="Helvetica,sans-Serif" font-size="10.00">LevelSetImageAdaptorBase</text>
<text text-anchor="start" x="1644.5" y="-162" font-family="Helvetica,sans-Serif" font-size="10.00">&lt; TInput, MalcolmSparseLevelSet</text>
<text text-anchor="middle" x="1737" y="-151" font-family="Helvetica,sans-Serif" font-size="10.00">Image&lt; TInput::ImageDimension &gt; &gt;</text>
</a>
</g>
</g>
<!-- Node5&#45;&gt;Node8 -->
<g id="edge7" class="edge">
<title>Node5&#45;&gt;Node8</title>
<path fill="none" stroke="orange" stroke-dasharray="5,2" d="M1345.41,-182.31C1427.11,-179.73 1550.29,-175.85 1636.41,-173.14"/>
<polygon fill="orange" stroke="orange" points="1345.05,-178.82 1335.16,-182.63 1345.27,-185.81 1345.05,-178.82"/>
<text text-anchor="start" x="1395" y="-194" font-family="Helvetica,sans-Serif" font-size="10.00"> &lt; TInput, MalcolmSparseLevel</text>
<text text-anchor="middle" x="1495.5" y="-183" font-family="Helvetica,sans-Serif" font-size="10.00">SetImage&lt; TInput::ImageDimension &gt; &gt;</text>
</g>
<!-- Node10 -->
<g id="node10" class="node">
<title>Node10</title>
<g id="a_node10"><a xlink:href="classitk_1_1BinaryImageToSparseLevelSetImageAdaptorBase.html" target="_top" xlink:title=" ">
<polygon fill="white" stroke="black" points="1644.5,-64 1644.5,-116 1829.5,-116 1829.5,-64 1644.5,-64"/>
<text text-anchor="start" x="1652.5" y="-104" font-family="Helvetica,sans-Serif" font-size="10.00">itk::BinaryImageToSparse</text>
<text text-anchor="start" x="1652.5" y="-93" font-family="Helvetica,sans-Serif" font-size="10.00">LevelSetImageAdaptorBase</text>
<text text-anchor="start" x="1652.5" y="-82" font-family="Helvetica,sans-Serif" font-size="10.00">&lt; TInput, ShiSparseLevelSetImage</text>
<text text-anchor="middle" x="1737" y="-71" font-family="Helvetica,sans-Serif" font-size="10.00">&lt; TInput::ImageDimension &gt; &gt;</text>
</a>
</g>
</g>
<!-- Node5&#45;&gt;Node10 -->
<g id="edge9" class="edge">
<title>Node5&#45;&gt;Node10</title>
<path fill="none" stroke="orange" stroke-dasharray="5,2" d="M1339.42,-161.83C1357.6,-156.92 1376.9,-152.01 1395,-148 1478.84,-129.43 1575.42,-113.51 1644.34,-103.07"/>
<polygon fill="orange" stroke="orange" points="1338.46,-158.46 1329.74,-164.47 1340.31,-165.21 1338.46,-158.46"/>
<text text-anchor="start" x="1395" y="-162" font-family="Helvetica,sans-Serif" font-size="10.00"> &lt; TInput, ShiSparseLevel</text>
<text text-anchor="middle" x="1495.5" y="-151" font-family="Helvetica,sans-Serif" font-size="10.00">SetImage&lt; TInput::ImageDimension &gt; &gt;</text>
</g>
<!-- Node7 -->
<g id="node7" class="node">
<title>Node7</title>
<g id="a_node7"><a xlink:href="classitk_1_1BinaryImageToLevelSetImageAdaptor_3_01TInput_00_01WhitakerSparseLevelSetImage_3_01TOb1e2d1dc9f9dc74a9ed19d866ce89514.html" target="_top" xlink:title="Partial template specialization for WhitakerSparseLevelSetImage.">
<polygon fill="white" stroke="black" points="1930,-220 1930,-272 2107,-272 2107,-220 1930,-220"/>
<text text-anchor="start" x="1938" y="-260" font-family="Helvetica,sans-Serif" font-size="10.00">itk::BinaryImageToLevelSet</text>
<text text-anchor="start" x="1938" y="-249" font-family="Helvetica,sans-Serif" font-size="10.00">ImageAdaptor&lt; TInput, Whitaker</text>
<text text-anchor="start" x="1938" y="-238" font-family="Helvetica,sans-Serif" font-size="10.00">SparseLevelSetImage&lt; TOutput,</text>
<text text-anchor="middle" x="2018.5" y="-227" font-family="Helvetica,sans-Serif" font-size="10.00"> TInput::ImageDimension &gt; &gt;</text>
</a>
</g>
</g>
<!-- Node6&#45;&gt;Node7 -->
<g id="edge6" class="edge">
<title>Node6&#45;&gt;Node7</title>
<path fill="none" stroke="midnightblue" d="M1870.41,-246C1890.63,-246 1911.06,-246 1930,-246"/>
<polygon fill="midnightblue" stroke="midnightblue" points="1870.19,-242.5 1860.19,-246 1870.19,-249.5 1870.19,-242.5"/>
</g>
<!-- Node9 -->
<g id="node9" class="node">
<title>Node9</title>
<g id="a_node9"><a xlink:href="classitk_1_1BinaryImageToLevelSetImageAdaptor_3_01TInput_00_01MalcolmSparseLevelSetImage_3_01TInput_1_1ImageDimension_01_4_01_4.html" target="_top" xlink:title="Partial template specialization for MalcolmSparseLevelSetImage.">
<polygon fill="white" stroke="black" points="1897,-149.5 1897,-190.5 2140,-190.5 2140,-149.5 1897,-149.5"/>
<text text-anchor="start" x="1905" y="-178.5" font-family="Helvetica,sans-Serif" font-size="10.00">itk::BinaryImageToLevelSet</text>
<text text-anchor="start" x="1905" y="-167.5" font-family="Helvetica,sans-Serif" font-size="10.00">ImageAdaptor&lt; TInput, MalcolmSparse</text>
<text text-anchor="middle" x="2018.5" y="-156.5" font-family="Helvetica,sans-Serif" font-size="10.00">LevelSetImage&lt; TInput::ImageDimension &gt; &gt;</text>
</a>
</g>
</g>
<!-- Node8&#45;&gt;Node9 -->
<g id="edge8" class="edge">
<title>Node8&#45;&gt;Node9</title>
<path fill="none" stroke="midnightblue" d="M1848.13,-170C1864.1,-170 1880.61,-170 1896.77,-170"/>
<polygon fill="midnightblue" stroke="midnightblue" points="1847.72,-166.5 1837.72,-170 1847.72,-173.5 1847.72,-166.5"/>
</g>
<!-- Node11 -->
<g id="node11" class="node">
<title>Node11</title>
<g id="a_node11"><a xlink:href="classitk_1_1BinaryImageToLevelSetImageAdaptor_3_01TInput_00_01ShiSparseLevelSetImage_3_01TInput_1_1ImageDimension_01_4_01_4.html" target="_top" xlink:title="Partial template specialization for ShiSparseLevelSetImage.">
<polygon fill="white" stroke="black" points="1897,-69.5 1897,-110.5 2140,-110.5 2140,-69.5 1897,-69.5"/>
<text text-anchor="start" x="1905" y="-98.5" font-family="Helvetica,sans-Serif" font-size="10.00">itk::BinaryImageToLevelSet</text>
<text text-anchor="start" x="1905" y="-87.5" font-family="Helvetica,sans-Serif" font-size="10.00">ImageAdaptor&lt; TInput, ShiSparse</text>
<text text-anchor="middle" x="2018.5" y="-76.5" font-family="Helvetica,sans-Serif" font-size="10.00">LevelSetImage&lt; TInput::ImageDimension &gt; &gt;</text>
</a>
</g>
</g>
<!-- Node10&#45;&gt;Node11 -->
<g id="edge10" class="edge">
<title>Node10&#45;&gt;Node11</title>
<path fill="none" stroke="midnightblue" d="M1839.71,-90C1858.25,-90 1877.76,-90 1896.79,-90"/>
<polygon fill="midnightblue" stroke="midnightblue" points="1839.52,-86.5 1829.52,-90 1839.52,-93.5 1839.52,-86.5"/>
</g>
<!-- Node13 -->
<g id="node13" class="node">
<title>Node13</title>
<g id="a_node13"><a xlink:href="classitk_1_1BinaryImageToLevelSetImageAdaptor_3_01TInputImage_00_01LevelSetDenseImage_3_01TLevelSetImage_01_4_01_4.html" target="_top" xlink:title="Partial template specialization for LevelSetDenseImage.">
<polygon fill="white" stroke="black" points="1141,-0.5 1141,-41.5 1377,-41.5 1377,-0.5 1141,-0.5"/>
<text text-anchor="start" x="1149" y="-29.5" font-family="Helvetica,sans-Serif" font-size="10.00">itk::BinaryImageToLevelSet</text>
<text text-anchor="start" x="1149" y="-18.5" font-family="Helvetica,sans-Serif" font-size="10.00">ImageAdaptor&lt; TInputImage,</text>
<text text-anchor="middle" x="1259" y="-7.5" font-family="Helvetica,sans-Serif" font-size="10.00"> LevelSetDenseImage&lt; TLevelSetImage &gt; &gt;</text>
</a>
</g>
</g>
<!-- Node12&#45;&gt;Node13 -->
<g id="edge12" class="edge">
<title>Node12&#45;&gt;Node13</title>
<path fill="none" stroke="midnightblue" d="M900.47,-23.95C974.88,-23.34 1068.1,-22.57 1140.69,-21.97"/>
<polygon fill="midnightblue" stroke="midnightblue" points="900.07,-20.45 890.1,-24.03 900.12,-27.45 900.07,-20.45"/>
</g>
<!-- Node14&#45;&gt;Node6 -->
<g id="edge14" class="edge">
<title>Node14&#45;&gt;Node6</title>
<path fill="none" stroke="midnightblue" d="M1133.12,-245.11C1250.16,-259.2 1435.61,-275.83 1596,-265 1601.87,-264.6 1607.88,-264.11 1613.93,-263.55"/>
<polygon fill="midnightblue" stroke="midnightblue" points="1133.41,-241.62 1123.06,-243.89 1132.57,-248.57 1133.41,-241.62"/>
</g>
<!-- Node15&#45;&gt;Node8 -->
<g id="edge16" class="edge">
<title>Node15&#45;&gt;Node8</title>
<path fill="none" stroke="midnightblue" d="M1110.91,-116.97C1226.25,-105.8 1426.93,-93.82 1596,-122 1622.36,-126.39 1650.41,-135.14 1674.42,-143.98"/>
<polygon fill="midnightblue" stroke="midnightblue" points="1110.31,-113.52 1100.7,-117.98 1111,-120.48 1110.31,-113.52"/>
</g>
<!-- Node16&#45;&gt;Node10 -->
<g id="edge18" class="edge">
<title>Node16&#45;&gt;Node10</title>
<path fill="none" stroke="midnightblue" d="M1106.7,-72.51C1244.46,-76.34 1505.83,-83.6 1644.41,-87.45"/>
<polygon fill="midnightblue" stroke="midnightblue" points="1106.69,-69.01 1096.59,-72.23 1106.49,-76 1106.69,-69.01"/>
</g>
</g>
</svg>
