<?xml version="1.0" encoding="UTF-8" standalone="no"?>
<!DOCTYPE svg PUBLIC "-//W3C//DTD SVG 1.1//EN"
 "http://www.w3.org/Graphics/SVG/1.1/DTD/svg11.dtd">
<!-- Generated by graphviz version 2.43.0 (0)
 -->
<!-- Title: itk::LabelOverlayImageFilter&lt; TInputImage, TLabelImage, TOutputImage &gt; Pages: 1 -->
<svg width="2685pt" height="239pt"
 viewBox="0.00 0.00 2685.00 239.08" xmlns="http://www.w3.org/2000/svg" xmlns:xlink="http://www.w3.org/1999/xlink">
<g id="graph0" class="graph" transform="scale(1 1) rotate(0) translate(4 235.08)">
<title>itk::LabelOverlayImageFilter&lt; TInputImage, TLabelImage, TOutputImage &gt;</title>
<polygon fill="white" stroke="transparent" points="-4,4 -4,-235.08 2681,-235.08 2681,4 -4,4"/>
<!-- Node1 -->
<g id="node1" class="node">
<title>Node1</title>
<g id="a_node1"><a xlink:title="Apply a colormap to a label image and put it on top of the input image.">
<polygon fill="#bfbfbf" stroke="black" points="2516,-78.58 2516,-119.58 2677,-119.58 2677,-78.58 2516,-78.58"/>
<text text-anchor="start" x="2524" y="-107.58" font-family="Helvetica,sans-Serif" font-size="10.00">itk::LabelOverlayImageFilter</text>
<text text-anchor="start" x="2524" y="-96.58" font-family="Helvetica,sans-Serif" font-size="10.00">&lt; TInputImage, TLabelImage,</text>
<text text-anchor="middle" x="2596.5" y="-85.58" font-family="Helvetica,sans-Serif" font-size="10.00"> TOutputImage &gt;</text>
</a>
</g>
</g>
<!-- Node2 -->
<g id="node2" class="node">
<title>Node2</title>
<g id="a_node2"><a xlink:href="classitk_1_1BinaryGeneratorImageFilter.html" target="_top" xlink:title=" ">
<polygon fill="white" stroke="black" points="2293,-78.58 2293,-119.58 2479,-119.58 2479,-78.58 2293,-78.58"/>
<text text-anchor="start" x="2301" y="-107.58" font-family="Helvetica,sans-Serif" font-size="10.00">itk::BinaryGeneratorImage</text>
<text text-anchor="start" x="2301" y="-96.58" font-family="Helvetica,sans-Serif" font-size="10.00">Filter&lt; TInputImage, TLabelImage,</text>
<text text-anchor="middle" x="2386" y="-85.58" font-family="Helvetica,sans-Serif" font-size="10.00"> TOutputImage &gt;</text>
</a>
</g>
</g>
<!-- Node2&#45;&gt;Node1 -->
<g id="edge1" class="edge">
<title>Node2&#45;&gt;Node1</title>
<path fill="none" stroke="midnightblue" d="M2489.12,-99.08C2498.05,-99.08 2507,-99.08 2515.71,-99.08"/>
<polygon fill="midnightblue" stroke="midnightblue" points="2489.06,-95.58 2479.06,-99.08 2489.06,-102.58 2489.06,-95.58"/>
</g>
<!-- Node3 -->
<g id="node3" class="node">
<title>Node3</title>
<g id="a_node3"><a xlink:href="classitk_1_1InPlaceImageFilter.html" target="_top" xlink:title="Base class for filters that take an image as input and overwrite that image as the output.">
<polygon fill="white" stroke="black" points="1312,-109.08 1312,-139.08 1488,-139.08 1488,-109.08 1312,-109.08"/>
<text text-anchor="start" x="1320" y="-127.08" font-family="Helvetica,sans-Serif" font-size="10.00">itk::InPlaceImageFilter</text>
<text text-anchor="middle" x="1400" y="-116.08" font-family="Helvetica,sans-Serif" font-size="10.00">&lt; TInputImage, TOutputImage &gt;</text>
</a>
</g>
</g>
<!-- Node3&#45;&gt;Node2 -->
<g id="edge2" class="edge">
<title>Node3&#45;&gt;Node2</title>
<path fill="none" stroke="midnightblue" d="M1498.63,-125.17C1660.25,-126.39 1993.52,-126.38 2275,-110.08 2280.84,-109.74 2286.86,-109.33 2292.92,-108.86"/>
<polygon fill="midnightblue" stroke="midnightblue" points="1498.26,-121.67 1488.24,-125.09 1498.21,-128.67 1498.26,-121.67"/>
</g>
<!-- Node14 -->
<g id="node14" class="node">
<title>Node14</title>
<g id="a_node14"><a xlink:href="classitk_1_1InPlaceImageFilter.html" target="_top" xlink:title=" ">
<polygon fill="white" stroke="black" points="1693,-60.08 1693,-90.08 1875,-90.08 1875,-60.08 1693,-60.08"/>
<text text-anchor="start" x="1701" y="-78.08" font-family="Helvetica,sans-Serif" font-size="10.00">itk::InPlaceImageFilter</text>
<text text-anchor="middle" x="1784" y="-67.08" font-family="Helvetica,sans-Serif" font-size="10.00">&lt; TInputImage1, TOutputImage &gt;</text>
</a>
</g>
</g>
<!-- Node3&#45;&gt;Node14 -->
<g id="edge22" class="edge">
<title>Node3&#45;&gt;Node14</title>
<path fill="none" stroke="orange" stroke-dasharray="5,2" d="M1467.44,-106.7C1480.17,-103.81 1493.45,-101.1 1506,-99.08 1567.95,-89.07 1638.41,-83.04 1692.77,-79.53"/>
<polygon fill="orange" stroke="orange" points="1466.31,-103.37 1457.37,-109.04 1467.9,-110.19 1466.31,-103.37"/>
<text text-anchor="middle" x="1590.5" y="-102.08" font-family="Helvetica,sans-Serif" font-size="10.00"> &lt; TInputImage1, TOutputImage &gt;</text>
</g>
<!-- Node4 -->
<g id="node4" class="node">
<title>Node4</title>
<g id="a_node4"><a xlink:href="classitk_1_1ImageToImageFilter.html" target="_top" xlink:title=" ">
<polygon fill="white" stroke="black" points="1100,-109.08 1100,-139.08 1268,-139.08 1268,-109.08 1100,-109.08"/>
<text text-anchor="start" x="1108" y="-127.08" font-family="Helvetica,sans-Serif" font-size="10.00">itk::ImageToImageFilter</text>
<text text-anchor="middle" x="1184" y="-116.08" font-family="Helvetica,sans-Serif" font-size="10.00">&lt; TInputImage, TInputImage &gt;</text>
</a>
</g>
</g>
<!-- Node4&#45;&gt;Node3 -->
<g id="edge3" class="edge">
<title>Node4&#45;&gt;Node3</title>
<path fill="none" stroke="midnightblue" d="M1278.21,-124.08C1289.35,-124.08 1300.7,-124.08 1311.76,-124.08"/>
<polygon fill="midnightblue" stroke="midnightblue" points="1278.04,-120.58 1268.04,-124.08 1278.04,-127.58 1278.04,-120.58"/>
</g>
<!-- Node5 -->
<g id="node5" class="node">
<title>Node5</title>
<g id="a_node5"><a xlink:href="classitk_1_1ImageSource.html" target="_top" xlink:title=" ">
<polygon fill="white" stroke="black" points="729.5,-174.08 729.5,-204.08 870.5,-204.08 870.5,-174.08 729.5,-174.08"/>
<text text-anchor="start" x="737.5" y="-192.08" font-family="Helvetica,sans-Serif" font-size="10.00">itk::ImageSource&lt; TInput</text>
<text text-anchor="middle" x="800" y="-181.08" font-family="Helvetica,sans-Serif" font-size="10.00">Image &gt;</text>
</a>
</g>
</g>
<!-- Node5&#45;&gt;Node4 -->
<g id="edge4" class="edge">
<title>Node5&#45;&gt;Node4</title>
<path fill="none" stroke="midnightblue" d="M880.61,-180.32C935.49,-173.73 1009.98,-163.68 1075,-151.08 1092.27,-147.73 1110.9,-143.35 1127.76,-139.1"/>
<polygon fill="midnightblue" stroke="midnightblue" points="880.11,-176.86 870.59,-181.51 880.94,-183.81 880.11,-176.86"/>
</g>
<!-- Node6 -->
<g id="node6" class="node">
<title>Node6</title>
<g id="a_node6"><a xlink:href="classitk_1_1ProcessObject.html" target="_top" xlink:title="The base class for all process objects (source, filters, mappers) in the Insight data processing pipe...">
<polygon fill="white" stroke="black" points="251.5,-211.58 251.5,-230.58 355.5,-230.58 355.5,-211.58 251.5,-211.58"/>
<text text-anchor="middle" x="303.5" y="-218.58" font-family="Helvetica,sans-Serif" font-size="10.00">itk::ProcessObject</text>
</a>
</g>
</g>
<!-- Node6&#45;&gt;Node5 -->
<g id="edge5" class="edge">
<title>Node6&#45;&gt;Node5</title>
<path fill="none" stroke="midnightblue" d="M366.01,-217.95C442.8,-213.93 578.17,-206.46 694,-198.08 705.41,-197.25 717.5,-196.29 729.27,-195.32"/>
<polygon fill="midnightblue" stroke="midnightblue" points="365.37,-214.48 355.57,-218.49 365.74,-221.47 365.37,-214.48"/>
</g>
<!-- Node10 -->
<g id="node10" class="node">
<title>Node10</title>
<g id="a_node10"><a xlink:href="classitk_1_1ImageSource.html" target="_top" xlink:title="Base class for all process objects that output image data.">
<polygon fill="white" stroke="black" points="425.5,-131.08 425.5,-161.08 574.5,-161.08 574.5,-131.08 425.5,-131.08"/>
<text text-anchor="start" x="433.5" y="-149.08" font-family="Helvetica,sans-Serif" font-size="10.00">itk::ImageSource&lt; TOutput</text>
<text text-anchor="middle" x="500" y="-138.08" font-family="Helvetica,sans-Serif" font-size="10.00">Image &gt;</text>
</a>
</g>
</g>
<!-- Node6&#45;&gt;Node10 -->
<g id="edge10" class="edge">
<title>Node6&#45;&gt;Node10</title>
<path fill="none" stroke="midnightblue" d="M339.02,-207.77C372.92,-194.69 424.57,-174.78 459.96,-161.13"/>
<polygon fill="midnightblue" stroke="midnightblue" points="337.6,-204.56 329.53,-211.43 340.12,-211.09 337.6,-204.56"/>
</g>
<!-- Node7 -->
<g id="node7" class="node">
<title>Node7</title>
<g id="a_node7"><a xlink:href="classitk_1_1Object.html" target="_top" xlink:title="Base class for most ITK classes.">
<polygon fill="white" stroke="black" points="128,-211.58 128,-230.58 195,-230.58 195,-211.58 128,-211.58"/>
<text text-anchor="middle" x="161.5" y="-218.58" font-family="Helvetica,sans-Serif" font-size="10.00">itk::Object</text>
</a>
</g>
</g>
<!-- Node7&#45;&gt;Node6 -->
<g id="edge6" class="edge">
<title>Node7&#45;&gt;Node6</title>
<path fill="none" stroke="midnightblue" d="M205.49,-221.08C219.95,-221.08 236.22,-221.08 251.25,-221.08"/>
<polygon fill="midnightblue" stroke="midnightblue" points="205.32,-217.58 195.32,-221.08 205.32,-224.58 205.32,-217.58"/>
</g>
<!-- Node8 -->
<g id="node8" class="node">
<title>Node8</title>
<g id="a_node8"><a xlink:href="classitk_1_1LightObject.html" target="_top" xlink:title="Light weight base class for most itk classes.">
<polygon fill="white" stroke="black" points="0,-211.58 0,-230.58 91,-230.58 91,-211.58 0,-211.58"/>
<text text-anchor="middle" x="45.5" y="-218.58" font-family="Helvetica,sans-Serif" font-size="10.00">itk::LightObject</text>
</a>
</g>
</g>
<!-- Node8&#45;&gt;Node7 -->
<g id="edge7" class="edge">
<title>Node8&#45;&gt;Node7</title>
<path fill="none" stroke="midnightblue" d="M101.39,-221.08C110.45,-221.08 119.59,-221.08 127.88,-221.08"/>
<polygon fill="midnightblue" stroke="midnightblue" points="101.23,-217.58 91.23,-221.08 101.23,-224.58 101.23,-217.58"/>
</g>
<!-- Node9 -->
<g id="node9" class="node">
<title>Node9</title>
<g id="a_node9"><a xlink:href="structitk_1_1ImageSourceCommon.html" target="_top" xlink:title="Secondary base class of ImageSource common between templates.">
<polygon fill="white" stroke="black" points="232,-161.58 232,-180.58 375,-180.58 375,-161.58 232,-161.58"/>
<text text-anchor="middle" x="303.5" y="-168.58" font-family="Helvetica,sans-Serif" font-size="10.00">itk::ImageSourceCommon</text>
</a>
</g>
</g>
<!-- Node9&#45;&gt;Node5 -->
<g id="edge8" class="edge">
<title>Node9&#45;&gt;Node5</title>
<path fill="none" stroke="#8b1a1a" d="M385.45,-174.04C446.15,-176.25 531.28,-179.36 606,-182.08 646.88,-183.56 692.63,-185.22 729.32,-186.55"/>
<polygon fill="#8b1a1a" stroke="#8b1a1a" points="385.29,-170.53 375.17,-173.66 385.03,-177.52 385.29,-170.53"/>
</g>
<!-- Node9&#45;&gt;Node10 -->
<g id="edge11" class="edge">
<title>Node9&#45;&gt;Node10</title>
<path fill="none" stroke="#8b1a1a" d="M385.31,-160.69C398.58,-158.99 412.26,-157.23 425.34,-155.55"/>
<polygon fill="#8b1a1a" stroke="#8b1a1a" points="384.74,-157.23 375.27,-161.98 385.63,-164.18 384.74,-157.23"/>
</g>
<!-- Node10&#45;&gt;Node5 -->
<g id="edge9" class="edge">
<title>Node10&#45;&gt;Node5</title>
<path fill="none" stroke="orange" stroke-dasharray="5,2" d="M585.19,-156.22C619.05,-160.5 658.42,-165.73 694,-171.08 705.43,-172.8 717.54,-174.75 729.31,-176.72"/>
<polygon fill="orange" stroke="orange" points="585.23,-152.7 574.88,-154.93 584.36,-159.65 585.23,-152.7"/>
<text text-anchor="middle" x="650" y="-174.08" font-family="Helvetica,sans-Serif" font-size="10.00"> &lt; TInputImage &gt;</text>
</g>
<!-- Node12 -->
<g id="node12" class="node">
<title>Node12</title>
<g id="a_node12"><a xlink:href="classitk_1_1ImageToImageFilter.html" target="_top" xlink:title="Base class for filters that take an image as input and produce an image as output.">
<polygon fill="white" stroke="black" points="712,-76.08 712,-106.08 888,-106.08 888,-76.08 712,-76.08"/>
<text text-anchor="start" x="720" y="-94.08" font-family="Helvetica,sans-Serif" font-size="10.00">itk::ImageToImageFilter</text>
<text text-anchor="middle" x="800" y="-83.08" font-family="Helvetica,sans-Serif" font-size="10.00">&lt; TInputImage, TOutputImage &gt;</text>
</a>
</g>
</g>
<!-- Node10&#45;&gt;Node12 -->
<g id="edge14" class="edge">
<title>Node10&#45;&gt;Node12</title>
<path fill="none" stroke="midnightblue" d="M584.76,-130.62C626.31,-122.95 676.3,-113.72 717.54,-106.11"/>
<polygon fill="midnightblue" stroke="midnightblue" points="583.86,-127.23 574.66,-132.48 585.13,-134.11 583.86,-127.23"/>
</g>
<!-- Node15 -->
<g id="node15" class="node">
<title>Node15</title>
<g id="a_node15"><a xlink:href="classitk_1_1ImageToImageFilter.html" target="_top" xlink:title=" ">
<polygon fill="white" stroke="black" points="1093,-43.08 1093,-73.08 1275,-73.08 1275,-43.08 1093,-43.08"/>
<text text-anchor="start" x="1101" y="-61.08" font-family="Helvetica,sans-Serif" font-size="10.00">itk::ImageToImageFilter</text>
<text text-anchor="middle" x="1184" y="-50.08" font-family="Helvetica,sans-Serif" font-size="10.00">&lt; TInputImage1, TOutputImage &gt;</text>
</a>
</g>
</g>
<!-- Node10&#45;&gt;Node15 -->
<g id="edge19" class="edge">
<title>Node10&#45;&gt;Node15</title>
<path fill="none" stroke="midnightblue" d="M545.44,-127.16C597.06,-105.54 679.31,-72.35 712,-66.08 842.51,-41.02 997.11,-44.55 1092.64,-50.47"/>
<polygon fill="midnightblue" stroke="midnightblue" points="544.04,-123.95 536.17,-131.05 546.75,-130.4 544.04,-123.95"/>
</g>
<!-- Node11 -->
<g id="node11" class="node">
<title>Node11</title>
<g id="a_node11"><a xlink:href="classitk_1_1ImageToImageFilterCommon.html" target="_top" xlink:title="Secondary base class of ImageToImageFilter common between templates.">
<polygon fill="white" stroke="black" points="412,-77.58 412,-96.58 588,-96.58 588,-77.58 412,-77.58"/>
<text text-anchor="middle" x="500" y="-84.58" font-family="Helvetica,sans-Serif" font-size="10.00">itk::ImageToImageFilterCommon</text>
</a>
</g>
</g>
<!-- Node11&#45;&gt;Node4 -->
<g id="edge12" class="edge">
<title>Node11&#45;&gt;Node4</title>
<path fill="none" stroke="#8b1a1a" d="M571.05,-98.14C582.71,-99.87 594.69,-101.58 606,-103.08 653,-109.32 664.73,-111.43 712,-115.08 847.57,-125.53 1005.69,-126.2 1099.91,-125.39"/>
<polygon fill="#8b1a1a" stroke="#8b1a1a" points="571.32,-94.64 560.91,-96.61 570.28,-101.56 571.32,-94.64"/>
</g>
<!-- Node11&#45;&gt;Node12 -->
<g id="edge15" class="edge">
<title>Node11&#45;&gt;Node12</title>
<path fill="none" stroke="#8b1a1a" d="M598.57,-88.39C635.1,-88.88 676.33,-89.43 711.86,-89.91"/>
<polygon fill="#8b1a1a" stroke="#8b1a1a" points="598.44,-84.89 588.4,-88.25 598.35,-91.88 598.44,-84.89"/>
</g>
<!-- Node11&#45;&gt;Node15 -->
<g id="edge20" class="edge">
<title>Node11&#45;&gt;Node15</title>
<path fill="none" stroke="#8b1a1a" d="M521.88,-71.64C542.18,-57.66 574.48,-38.08 606,-30.08 808.03,21.22 868.23,-3.71 1075,-30.08 1095.18,-32.65 1116.97,-37.82 1135.66,-43.03"/>
<polygon fill="#8b1a1a" stroke="#8b1a1a" points="519.85,-68.79 513.7,-77.42 523.89,-74.51 519.85,-68.79"/>
</g>
<!-- Node12&#45;&gt;Node4 -->
<g id="edge13" class="edge">
<title>Node12&#45;&gt;Node4</title>
<path fill="none" stroke="orange" stroke-dasharray="5,2" d="M898.36,-97.73C950.74,-101.51 1016.44,-106.58 1075,-112.08 1083.08,-112.84 1091.49,-113.68 1099.89,-114.55"/>
<polygon fill="orange" stroke="orange" points="898.29,-94.21 888.06,-96.99 897.79,-101.19 898.29,-94.21"/>
<text text-anchor="middle" x="990.5" y="-115.08" font-family="Helvetica,sans-Serif" font-size="10.00"> &lt; TInputImage, TInputImage &gt;</text>
</g>
<!-- Node12&#45;&gt;Node15 -->
<g id="edge21" class="edge">
<title>Node12&#45;&gt;Node15</title>
<path fill="none" stroke="orange" stroke-dasharray="5,2" d="M898.38,-82.67C958.25,-77.49 1034.42,-70.91 1092.9,-65.86"/>
<polygon fill="orange" stroke="orange" points="897.82,-79.2 888.16,-83.55 898.42,-86.17 897.82,-79.2"/>
<text text-anchor="middle" x="990.5" y="-85.08" font-family="Helvetica,sans-Serif" font-size="10.00"> &lt; TInputImage1, TOutputImage &gt;</text>
</g>
<!-- Node13 -->
<g id="node13" class="node">
<title>Node13</title>
<g id="a_node13"><a xlink:href="classitk_1_1BinaryGeneratorImageFilter.html" target="_top" xlink:title="Implements pixel&#45;wise generic operation of two images, or of an image and a constant.">
<polygon fill="white" stroke="black" points="1912,-54.58 1912,-95.58 2109,-95.58 2109,-54.58 1912,-54.58"/>
<text text-anchor="start" x="1920" y="-83.58" font-family="Helvetica,sans-Serif" font-size="10.00">itk::BinaryGeneratorImage</text>
<text text-anchor="start" x="1920" y="-72.58" font-family="Helvetica,sans-Serif" font-size="10.00">Filter&lt; TInputImage1, TInputImage2,</text>
<text text-anchor="middle" x="2010.5" y="-61.58" font-family="Helvetica,sans-Serif" font-size="10.00"> TOutputImage &gt;</text>
</a>
</g>
</g>
<!-- Node13&#45;&gt;Node2 -->
<g id="edge16" class="edge">
<title>Node13&#45;&gt;Node2</title>
<path fill="none" stroke="orange" stroke-dasharray="5,2" d="M2119.23,-79.16C2166.98,-81.29 2223.83,-84.26 2275,-88.08 2280.84,-88.51 2286.85,-89 2292.9,-89.52"/>
<polygon fill="orange" stroke="orange" points="2119.32,-75.67 2109.18,-78.72 2119.02,-82.66 2119.32,-75.67"/>
<text text-anchor="start" x="2127" y="-102.08" font-family="Helvetica,sans-Serif" font-size="10.00"> &lt; TInputImage, TLabelImage,</text>
<text text-anchor="middle" x="2201" y="-91.08" font-family="Helvetica,sans-Serif" font-size="10.00"> TOutputImage &gt;</text>
</g>
<!-- Node14&#45;&gt;Node13 -->
<g id="edge17" class="edge">
<title>Node14&#45;&gt;Node13</title>
<path fill="none" stroke="midnightblue" d="M1885.28,-75.08C1894.07,-75.08 1902.96,-75.08 1911.73,-75.08"/>
<polygon fill="midnightblue" stroke="midnightblue" points="1885.02,-71.58 1875.02,-75.08 1885.02,-78.58 1885.02,-71.58"/>
</g>
<!-- Node15&#45;&gt;Node14 -->
<g id="edge18" class="edge">
<title>Node15&#45;&gt;Node14</title>
<path fill="none" stroke="midnightblue" d="M1285.28,-60.93C1399.08,-64.16 1583.04,-69.39 1692.58,-72.51"/>
<polygon fill="midnightblue" stroke="midnightblue" points="1285.27,-57.43 1275.17,-60.64 1285.07,-64.42 1285.27,-57.43"/>
</g>
</g>
</svg>
