<?xml version="1.0" encoding="UTF-8" standalone="no"?>
<!DOCTYPE svg PUBLIC "-//W3C//DTD SVG 1.1//EN"
 "http://www.w3.org/Graphics/SVG/1.1/DTD/svg11.dtd">
<!-- Generated by graphviz version 2.43.0 (0)
 -->
<!-- Title: itk::FiniteDifferenceSparseImageFunction&lt; TSparseImageType &gt; Pages: 1 -->
<svg width="277pt" height="378pt"
 viewBox="0.00 0.00 276.50 378.00" xmlns="http://www.w3.org/2000/svg" xmlns:xlink="http://www.w3.org/1999/xlink">
<g id="graph0" class="graph" transform="scale(1 1) rotate(0) translate(4 374)">
<title>itk::FiniteDifferenceSparseImageFunction&lt; TSparseImageType &gt;</title>
<polygon fill="white" stroke="transparent" points="-4,4 -4,-374 272.5,-374 272.5,4 -4,4"/>
<!-- Node1 -->
<g id="node1" class="node">
<title>Node1</title>
<g id="a_node1"><a xlink:title="This is the base class for function classes that can be used with filters derived from FiniteDifferen...">
<polygon fill="#bfbfbf" stroke="black" points="0,-136.5 0,-166.5 203,-166.5 203,-136.5 0,-136.5"/>
<text text-anchor="start" x="8" y="-154.5" font-family="Helvetica,sans-Serif" font-size="10.00">itk::FiniteDifferenceSparse</text>
<text text-anchor="middle" x="101.5" y="-143.5" font-family="Helvetica,sans-Serif" font-size="10.00">ImageFunction&lt; TSparseImageType &gt;</text>
</a>
</g>
</g>
<!-- Node5 -->
<g id="node5" class="node">
<title>Node5</title>
<g id="a_node5"><a xlink:href="classitk_1_1NormalVectorFunctionBase.html" target="_top" xlink:title="This class defines the common functionality for Sparse Image neighborhoods of unit vectors.">
<polygon fill="white" stroke="black" points="24,-68.5 24,-98.5 179,-98.5 179,-68.5 24,-68.5"/>
<text text-anchor="start" x="32" y="-86.5" font-family="Helvetica,sans-Serif" font-size="10.00">itk::NormalVectorFunction</text>
<text text-anchor="middle" x="101.5" y="-75.5" font-family="Helvetica,sans-Serif" font-size="10.00">Base&lt; TSparseImageType &gt;</text>
</a>
</g>
</g>
<!-- Node1&#45;&gt;Node5 -->
<g id="edge5" class="edge">
<title>Node1&#45;&gt;Node5</title>
<path fill="none" stroke="midnightblue" d="M101.5,-126.03C101.5,-116.86 101.5,-106.74 101.5,-98.79"/>
<polygon fill="midnightblue" stroke="midnightblue" points="98,-126.18 101.5,-136.18 105,-126.18 98,-126.18"/>
</g>
<!-- Node2 -->
<g id="node2" class="node">
<title>Node2</title>
<g id="a_node2"><a xlink:href="classitk_1_1FiniteDifferenceFunction.html" target="_top" xlink:title=" ">
<polygon fill="white" stroke="black" points="24.5,-204.5 24.5,-234.5 178.5,-234.5 178.5,-204.5 24.5,-204.5"/>
<text text-anchor="start" x="32.5" y="-222.5" font-family="Helvetica,sans-Serif" font-size="10.00">itk::FiniteDifferenceFunction</text>
<text text-anchor="middle" x="101.5" y="-211.5" font-family="Helvetica,sans-Serif" font-size="10.00">&lt; TSparseImageType &gt;</text>
</a>
</g>
</g>
<!-- Node2&#45;&gt;Node1 -->
<g id="edge1" class="edge">
<title>Node2&#45;&gt;Node1</title>
<path fill="none" stroke="midnightblue" d="M101.5,-194.03C101.5,-184.86 101.5,-174.74 101.5,-166.79"/>
<polygon fill="midnightblue" stroke="midnightblue" points="98,-194.18 101.5,-204.18 105,-194.18 98,-194.18"/>
</g>
<!-- Node3 -->
<g id="node3" class="node">
<title>Node3</title>
<g id="a_node3"><a xlink:href="classitk_1_1LightObject.html" target="_top" xlink:title="Light weight base class for most itk classes.">
<polygon fill="white" stroke="black" points="52,-350.5 52,-369.5 143,-369.5 143,-350.5 52,-350.5"/>
<text text-anchor="middle" x="97.5" y="-357.5" font-family="Helvetica,sans-Serif" font-size="10.00">itk::LightObject</text>
</a>
</g>
</g>
<!-- Node3&#45;&gt;Node2 -->
<g id="edge2" class="edge">
<title>Node3&#45;&gt;Node2</title>
<path fill="none" stroke="midnightblue" d="M98.04,-340.25C98.85,-312.19 100.36,-259.88 101.09,-234.73"/>
<polygon fill="midnightblue" stroke="midnightblue" points="94.54,-340.24 97.75,-350.34 101.54,-340.44 94.54,-340.24"/>
</g>
<!-- Node4 -->
<g id="node4" class="node">
<title>Node4</title>
<g id="a_node4"><a xlink:href="classitk_1_1FiniteDifferenceFunction.html" target="_top" xlink:title=" ">
<polygon fill="white" stroke="black" points="113.5,-282.5 113.5,-312.5 267.5,-312.5 267.5,-282.5 113.5,-282.5"/>
<text text-anchor="start" x="121.5" y="-300.5" font-family="Helvetica,sans-Serif" font-size="10.00">itk::FiniteDifferenceFunction</text>
<text text-anchor="middle" x="190.5" y="-289.5" font-family="Helvetica,sans-Serif" font-size="10.00">&lt; TImageType &gt;</text>
</a>
</g>
</g>
<!-- Node3&#45;&gt;Node4 -->
<g id="edge4" class="edge">
<title>Node3&#45;&gt;Node4</title>
<path fill="none" stroke="midnightblue" d="M119.43,-344.73C134.38,-335.01 154.07,-322.2 168.94,-312.53"/>
<polygon fill="midnightblue" stroke="midnightblue" points="117.3,-341.94 110.82,-350.33 121.12,-347.81 117.3,-341.94"/>
</g>
<!-- Node4&#45;&gt;Node2 -->
<g id="edge3" class="edge">
<title>Node4&#45;&gt;Node2</title>
<path fill="none" stroke="orange" stroke-dasharray="5,2" d="M165.78,-275.39C150.6,-262.43 131.57,-246.18 118.17,-234.73"/>
<polygon fill="orange" stroke="orange" points="163.88,-278.37 173.76,-282.2 168.43,-273.05 163.88,-278.37"/>
<text text-anchor="middle" x="209.5" y="-256" font-family="Helvetica,sans-Serif" font-size="10.00"> &lt; TSparseImageType &gt;</text>
</g>
<!-- Node6 -->
<g id="node6" class="node">
<title>Node6</title>
<g id="a_node6"><a xlink:href="classitk_1_1NormalVectorDiffusionFunction.html" target="_top" xlink:title="This class defines all the necessary functionality for performing isotropic and anisotropic diffusion...">
<polygon fill="white" stroke="black" points="15,-0.5 15,-30.5 188,-30.5 188,-0.5 15,-0.5"/>
<text text-anchor="start" x="23" y="-18.5" font-family="Helvetica,sans-Serif" font-size="10.00">itk::NormalVectorDiffusion</text>
<text text-anchor="middle" x="101.5" y="-7.5" font-family="Helvetica,sans-Serif" font-size="10.00">Function&lt; TSparseImageType &gt;</text>
</a>
</g>
</g>
<!-- Node5&#45;&gt;Node6 -->
<g id="edge6" class="edge">
<title>Node5&#45;&gt;Node6</title>
<path fill="none" stroke="midnightblue" d="M101.5,-58.03C101.5,-48.86 101.5,-38.74 101.5,-30.79"/>
<polygon fill="midnightblue" stroke="midnightblue" points="98,-58.18 101.5,-68.18 105,-58.18 98,-58.18"/>
</g>
</g>
</svg>
