<?xml version="1.0" encoding="UTF-8" standalone="no"?>
<!DOCTYPE svg PUBLIC "-//W3C//DTD SVG 1.1//EN"
 "http://www.w3.org/Graphics/SVG/1.1/DTD/svg11.dtd">
<!-- Generated by graphviz version 2.43.0 (0)
 -->
<!-- Title: itk::PhasedArray3DSpecialCoordinatesImage&lt; TPixel &gt; Pages: 1 -->
<svg width="2567pt" height="465pt"
 viewBox="0.00 0.00 2567.00 464.70" xmlns="http://www.w3.org/2000/svg" xmlns:xlink="http://www.w3.org/1999/xlink">
<g id="graph0" class="graph" transform="scale(1 1) rotate(0) translate(4 460.7)">
<title>itk::PhasedArray3DSpecialCoordinatesImage&lt; TPixel &gt;</title>
<polygon fill="white" stroke="transparent" points="-4,4 -4,-460.7 2563,-460.7 2563,4 -4,4"/>
<!-- Node1 -->
<g id="node1" class="node">
<title>Node1</title>
<g id="a_node1"><a xlink:title="Templated 3D nonrectilinear&#45;coordinate image class for phased&#45;array &quot;range&quot; images.">
<polygon fill="#bfbfbf" stroke="black" points="2401,-57.2 2401,-87.2 2559,-87.2 2559,-57.2 2401,-57.2"/>
<text text-anchor="start" x="2409" y="-75.2" font-family="Helvetica,sans-Serif" font-size="10.00">itk::PhasedArray3DSpecial</text>
<text text-anchor="middle" x="2480" y="-64.2" font-family="Helvetica,sans-Serif" font-size="10.00">CoordinatesImage&lt; TPixel &gt;</text>
</a>
</g>
</g>
<!-- Node2 -->
<g id="node2" class="node">
<title>Node2</title>
<g id="a_node2"><a xlink:href="classitk_1_1SpecialCoordinatesImage.html" target="_top" xlink:title=" ">
<polygon fill="white" stroke="black" points="2204,-57.2 2204,-87.2 2364,-87.2 2364,-57.2 2204,-57.2"/>
<text text-anchor="start" x="2212" y="-75.2" font-family="Helvetica,sans-Serif" font-size="10.00">itk::SpecialCoordinatesImage</text>
<text text-anchor="middle" x="2284" y="-64.2" font-family="Helvetica,sans-Serif" font-size="10.00">&lt; TPixel, 3 &gt;</text>
</a>
</g>
</g>
<!-- Node2&#45;&gt;Node1 -->
<g id="edge1" class="edge">
<title>Node2&#45;&gt;Node1</title>
<path fill="none" stroke="midnightblue" d="M2374.43,-72.2C2383.2,-72.2 2392.05,-72.2 2400.69,-72.2"/>
<polygon fill="midnightblue" stroke="midnightblue" points="2374.19,-68.7 2364.19,-72.2 2374.19,-75.7 2374.19,-68.7"/>
</g>
<!-- Node3 -->
<g id="node3" class="node">
<title>Node3</title>
<g id="a_node3"><a xlink:href="classitk_1_1ImageBase.html" target="_top" xlink:title=" ">
<polygon fill="white" stroke="black" points="1917,-93.7 1917,-112.7 2120,-112.7 2120,-93.7 1917,-93.7"/>
<text text-anchor="middle" x="2018.5" y="-100.7" font-family="Helvetica,sans-Serif" font-size="10.00">itk::ImageBase&lt; VImageDimension &gt;</text>
</a>
</g>
</g>
<!-- Node3&#45;&gt;Node2 -->
<g id="edge2" class="edge">
<title>Node3&#45;&gt;Node2</title>
<path fill="none" stroke="midnightblue" d="M2110.5,-92.5C2140.81,-88.93 2174.31,-84.99 2203.66,-81.54"/>
<polygon fill="midnightblue" stroke="midnightblue" points="2109.87,-89.05 2100.35,-93.69 2110.69,-96 2109.87,-89.05"/>
</g>
<!-- Node4 -->
<g id="node4" class="node">
<title>Node4</title>
<g id="a_node4"><a xlink:href="classitk_1_1DataObject.html" target="_top" xlink:title="Base class for all data objects in ITK.">
<polygon fill="white" stroke="black" points="1597,-318.7 1597,-337.7 1687,-337.7 1687,-318.7 1597,-318.7"/>
<text text-anchor="middle" x="1642" y="-325.7" font-family="Helvetica,sans-Serif" font-size="10.00">itk::DataObject</text>
</a>
</g>
</g>
<!-- Node4&#45;&gt;Node3 -->
<g id="edge3" class="edge">
<title>Node4&#45;&gt;Node3</title>
<path fill="none" stroke="midnightblue" d="M1667.87,-313.26C1739.13,-270.45 1942.75,-148.11 2001.47,-112.83"/>
<polygon fill="midnightblue" stroke="midnightblue" points="1665.86,-310.38 1659.09,-318.53 1669.47,-316.38 1665.86,-310.38"/>
</g>
<!-- Node5 -->
<g id="node5" class="node">
<title>Node5</title>
<g id="a_node5"><a xlink:href="classitk_1_1Object.html" target="_top" xlink:title="Base class for most ITK classes.">
<polygon fill="white" stroke="black" points="1268,-269.7 1268,-288.7 1335,-288.7 1335,-269.7 1268,-269.7"/>
<text text-anchor="middle" x="1301.5" y="-276.7" font-family="Helvetica,sans-Serif" font-size="10.00">itk::Object</text>
</a>
</g>
</g>
<!-- Node5&#45;&gt;Node4 -->
<g id="edge4" class="edge">
<title>Node5&#45;&gt;Node4</title>
<path fill="none" stroke="midnightblue" d="M1345.5,-285.43C1410.1,-294.78 1531.54,-312.36 1596.82,-321.81"/>
<polygon fill="midnightblue" stroke="midnightblue" points="1345.66,-281.91 1335.26,-283.95 1344.66,-288.84 1345.66,-281.91"/>
</g>
<!-- Node6 -->
<g id="node6" class="node">
<title>Node6</title>
<g id="a_node6"><a xlink:href="classitk_1_1LightObject.html" target="_top" xlink:title="Light weight base class for most itk classes.">
<polygon fill="white" stroke="black" points="932,-210.7 932,-229.7 1023,-229.7 1023,-210.7 932,-210.7"/>
<text text-anchor="middle" x="977.5" y="-217.7" font-family="Helvetica,sans-Serif" font-size="10.00">itk::LightObject</text>
</a>
</g>
</g>
<!-- Node6&#45;&gt;Node5 -->
<g id="edge5" class="edge">
<title>Node6&#45;&gt;Node5</title>
<path fill="none" stroke="midnightblue" d="M1033.35,-228.84C1077.61,-235.97 1141.43,-246.6 1197,-257.2 1220.82,-261.75 1247.59,-267.46 1267.94,-271.92"/>
<polygon fill="midnightblue" stroke="midnightblue" points="1033.8,-225.37 1023.37,-227.24 1032.69,-232.28 1033.8,-225.37"/>
</g>
<!-- Node7 -->
<g id="node7" class="node">
<title>Node7</title>
<g id="a_node7"><a xlink:title=" ">
<polygon fill="white" stroke="black" points="655.5,-210.7 655.5,-229.7 762.5,-229.7 762.5,-210.7 655.5,-210.7"/>
<text text-anchor="middle" x="709" y="-217.7" font-family="Helvetica,sans-Serif" font-size="10.00">std::atomic&lt; int &gt;</text>
</a>
</g>
</g>
<!-- Node7&#45;&gt;Node6 -->
<g id="edge6" class="edge">
<title>Node7&#45;&gt;Node6</title>
<path fill="none" stroke="#9a32cd" stroke-dasharray="5,2" d="M772.8,-220.2C821.7,-220.2 888.37,-220.2 931.92,-220.2"/>
<polygon fill="#9a32cd" stroke="#9a32cd" points="772.65,-216.7 762.65,-220.2 772.65,-223.7 772.65,-216.7"/>
<text text-anchor="middle" x="842.5" y="-223.2" font-family="Helvetica,sans-Serif" font-size="10.00"> m_ReferenceCount</text>
</g>
<!-- Node8 -->
<g id="node8" class="node">
<title>Node8</title>
<g id="a_node8"><a xlink:href="classitk_1_1TimeStamp.html" target="_top" xlink:title="Generate a unique, increasing time value.">
<polygon fill="white" stroke="black" points="931.5,-347.7 931.5,-366.7 1023.5,-366.7 1023.5,-347.7 931.5,-347.7"/>
<text text-anchor="middle" x="977.5" y="-354.7" font-family="Helvetica,sans-Serif" font-size="10.00">itk::TimeStamp</text>
</a>
</g>
</g>
<!-- Node8&#45;&gt;Node4 -->
<g id="edge21" class="edge">
<title>Node8&#45;&gt;Node4</title>
<path fill="none" stroke="#9a32cd" stroke-dasharray="5,2" d="M1033.53,-354.79C1162.02,-349.17 1479.75,-335.26 1596.79,-330.14"/>
<polygon fill="#9a32cd" stroke="#9a32cd" points="1033.35,-351.3 1023.52,-355.23 1033.66,-358.29 1033.35,-351.3"/>
<text text-anchor="middle" x="1301.5" y="-349.2" font-family="Helvetica,sans-Serif" font-size="10.00"> m_UpdateMTime</text>
</g>
<!-- Node8&#45;&gt;Node5 -->
<g id="edge7" class="edge">
<title>Node8&#45;&gt;Node5</title>
<path fill="none" stroke="#9a32cd" stroke-dasharray="5,2" d="M1022.17,-344.89C1042.64,-339.13 1062.83,-333.47 1064,-333.2 1122.51,-319.97 1138.61,-323.94 1197,-310.2 1222.56,-304.19 1251.12,-295.48 1271.75,-288.82"/>
<polygon fill="#9a32cd" stroke="#9a32cd" points="1021.18,-341.54 1012.5,-347.62 1023.07,-348.28 1021.18,-341.54"/>
<text text-anchor="middle" x="1130.5" y="-336.2" font-family="Helvetica,sans-Serif" font-size="10.00"> m_MTime</text>
</g>
<!-- Node9 -->
<g id="node9" class="node">
<title>Node9</title>
<g id="a_node9"><a xlink:title=" ">
<polygon fill="white" stroke="black" points="233,-347.7 233,-366.7 333,-366.7 333,-347.7 233,-347.7"/>
<text text-anchor="middle" x="283" y="-354.7" font-family="Helvetica,sans-Serif" font-size="10.00">std::atomic&lt; T &gt;</text>
</a>
</g>
</g>
<!-- Node9&#45;&gt;Node8 -->
<g id="edge8" class="edge">
<title>Node9&#45;&gt;Node8</title>
<path fill="none" stroke="#9a32cd" stroke-dasharray="5,2" d="M343.46,-357.2C479.32,-357.2 810.08,-357.2 931.14,-357.2"/>
<polygon fill="#9a32cd" stroke="#9a32cd" points="343.25,-353.7 333.25,-357.2 343.25,-360.7 343.25,-353.7"/>
<text text-anchor="middle" x="571" y="-360.2" font-family="Helvetica,sans-Serif" font-size="10.00"> m_GlobalTimeStamp</text>
</g>
<!-- Node10 -->
<g id="node10" class="node">
<title>Node10</title>
<g id="a_node10"><a xlink:title=" ">
<polygon fill="white" stroke="black" points="0,-332.7 0,-351.7 29,-351.7 29,-332.7 0,-332.7"/>
<text text-anchor="middle" x="14.5" y="-339.7" font-family="Helvetica,sans-Serif" font-size="10.00">T</text>
</a>
</g>
</g>
<!-- Node10&#45;&gt;Node9 -->
<g id="edge9" class="edge">
<title>Node10&#45;&gt;Node9</title>
<path fill="none" stroke="#9a32cd" stroke-dasharray="5,2" d="M39.23,-343.54C82.59,-345.98 175.47,-351.21 232.94,-354.44"/>
<polygon fill="#9a32cd" stroke="#9a32cd" points="39.26,-340.03 29.08,-342.97 38.87,-347.02 39.26,-340.03"/>
<text text-anchor="middle" x="71.5" y="-349.2" font-family="Helvetica,sans-Serif" font-size="10.00"> ptr</text>
</g>
<!-- Node15 -->
<g id="node15" class="node">
<title>Node15</title>
<g id="a_node15"><a xlink:title=" ">
<polygon fill="white" stroke="black" points="114,-303.7 114,-322.7 215,-322.7 215,-303.7 114,-303.7"/>
<text text-anchor="middle" x="164.5" y="-310.7" font-family="Helvetica,sans-Serif" font-size="10.00">std::map&lt; K, T &gt;</text>
</a>
</g>
</g>
<!-- Node10&#45;&gt;Node15 -->
<g id="edge16" class="edge">
<title>Node10&#45;&gt;Node15</title>
<path fill="none" stroke="#9a32cd" stroke-dasharray="5,2" d="M37.97,-327.87C40.92,-326.44 43.98,-325.16 47,-324.2 68.3,-317.46 92.81,-314.48 113.83,-313.27"/>
<polygon fill="#9a32cd" stroke="#9a32cd" points="36.1,-324.91 29.02,-332.79 39.47,-331.04 36.1,-324.91"/>
<text text-anchor="middle" x="71.5" y="-327.2" font-family="Helvetica,sans-Serif" font-size="10.00"> elements</text>
</g>
<!-- Node11 -->
<g id="node11" class="node">
<title>Node11</title>
<g id="a_node11"><a xlink:title=" ">
<polygon fill="white" stroke="black" points="909,-249.2 909,-279.2 1046,-279.2 1046,-249.2 909,-249.2"/>
<text text-anchor="start" x="917" y="-267.2" font-family="Helvetica,sans-Serif" font-size="10.00">std::unique_ptr&lt; Subject</text>
<text text-anchor="middle" x="977.5" y="-256.2" font-family="Helvetica,sans-Serif" font-size="10.00">Implementation &gt;</text>
</a>
</g>
</g>
<!-- Node11&#45;&gt;Node5 -->
<g id="edge10" class="edge">
<title>Node11&#45;&gt;Node5</title>
<path fill="none" stroke="#9a32cd" stroke-dasharray="5,2" d="M1056.12,-262.11C1097.91,-261.6 1150.33,-261.95 1197,-265.2 1220.88,-266.86 1247.65,-270.53 1267.98,-273.7"/>
<polygon fill="#9a32cd" stroke="#9a32cd" points="1055.96,-258.61 1046.01,-262.25 1056.06,-265.61 1055.96,-258.61"/>
<text text-anchor="middle" x="1130.5" y="-268.2" font-family="Helvetica,sans-Serif" font-size="10.00"> m_SubjectImplementation</text>
</g>
<!-- Node12 -->
<g id="node12" class="node">
<title>Node12</title>
<g id="a_node12"><a xlink:title=" ">
<polygon fill="white" stroke="black" points="911.5,-298.2 911.5,-328.2 1043.5,-328.2 1043.5,-298.2 911.5,-298.2"/>
<text text-anchor="start" x="919.5" y="-316.2" font-family="Helvetica,sans-Serif" font-size="10.00">std::unique_ptr&lt; itk</text>
<text text-anchor="middle" x="977.5" y="-305.2" font-family="Helvetica,sans-Serif" font-size="10.00">::MetaDataDictionary &gt;</text>
</a>
</g>
</g>
<!-- Node12&#45;&gt;Node5 -->
<g id="edge11" class="edge">
<title>Node12&#45;&gt;Node5</title>
<path fill="none" stroke="#9a32cd" stroke-dasharray="5,2" d="M1053.98,-300.51C1057.37,-300.05 1060.72,-299.61 1064,-299.2 1136.58,-290.2 1222.21,-284.07 1267.9,-281.15"/>
<polygon fill="#9a32cd" stroke="#9a32cd" points="1053.18,-297.09 1043.78,-301.98 1054.17,-304.02 1053.18,-297.09"/>
<text text-anchor="middle" x="1130.5" y="-302.2" font-family="Helvetica,sans-Serif" font-size="10.00"> m_MetaDataDictionary</text>
</g>
<!-- Node13 -->
<g id="node13" class="node">
<title>Node13</title>
<g id="a_node13"><a xlink:href="classitk_1_1MetaDataDictionary.html" target="_top" xlink:title="Provides a mechanism for storing a collection of arbitrary data types.">
<polygon fill="white" stroke="black" points="642,-303.7 642,-322.7 776,-322.7 776,-303.7 642,-303.7"/>
<text text-anchor="middle" x="709" y="-310.7" font-family="Helvetica,sans-Serif" font-size="10.00">itk::MetaDataDictionary</text>
</a>
</g>
</g>
<!-- Node13&#45;&gt;Node12 -->
<g id="edge12" class="edge">
<title>Node13&#45;&gt;Node12</title>
<path fill="none" stroke="#9a32cd" stroke-dasharray="5,2" d="M786.32,-313.2C825.74,-313.2 873.36,-313.2 911.08,-313.2"/>
<polygon fill="#9a32cd" stroke="#9a32cd" points="786.22,-309.7 776.22,-313.2 786.22,-316.7 786.22,-309.7"/>
<text text-anchor="middle" x="842.5" y="-316.2" font-family="Helvetica,sans-Serif" font-size="10.00"> ptr</text>
</g>
<!-- Node14 -->
<g id="node14" class="node">
<title>Node14</title>
<g id="a_node14"><a xlink:title=" ">
<polygon fill="white" stroke="black" points="351,-298.2 351,-328.2 500,-328.2 500,-298.2 351,-298.2"/>
<text text-anchor="start" x="359" y="-316.2" font-family="Helvetica,sans-Serif" font-size="10.00">std::shared_ptr&lt; MetaData</text>
<text text-anchor="middle" x="425.5" y="-305.2" font-family="Helvetica,sans-Serif" font-size="10.00">DictionaryMapType &gt;</text>
</a>
</g>
</g>
<!-- Node14&#45;&gt;Node13 -->
<g id="edge13" class="edge">
<title>Node14&#45;&gt;Node13</title>
<path fill="none" stroke="#9a32cd" stroke-dasharray="5,2" d="M510.29,-313.2C552.24,-313.2 602.31,-313.2 641.57,-313.2"/>
<polygon fill="#9a32cd" stroke="#9a32cd" points="510.09,-309.7 500.09,-313.2 510.09,-316.7 510.09,-309.7"/>
<text text-anchor="middle" x="571" y="-316.2" font-family="Helvetica,sans-Serif" font-size="10.00"> m_Dictionary</text>
</g>
<!-- Node15&#45;&gt;Node14 -->
<g id="edge14" class="edge">
<title>Node15&#45;&gt;Node14</title>
<path fill="none" stroke="#9a32cd" stroke-dasharray="5,2" d="M225.34,-313.2C262.61,-313.2 310.86,-313.2 350.52,-313.2"/>
<polygon fill="#9a32cd" stroke="#9a32cd" points="225.13,-309.7 215.13,-313.2 225.13,-316.7 225.13,-309.7"/>
<text text-anchor="middle" x="283" y="-316.2" font-family="Helvetica,sans-Serif" font-size="10.00"> ptr</text>
</g>
<!-- Node16 -->
<g id="node16" class="node">
<title>Node16</title>
<g id="a_node16"><a xlink:title=" ">
<polygon fill="white" stroke="black" points="0,-279.7 0,-298.7 29,-298.7 29,-279.7 0,-279.7"/>
<text text-anchor="middle" x="14.5" y="-286.7" font-family="Helvetica,sans-Serif" font-size="10.00">K</text>
</a>
</g>
</g>
<!-- Node16&#45;&gt;Node15 -->
<g id="edge15" class="edge">
<title>Node16&#45;&gt;Node15</title>
<path fill="none" stroke="#9a32cd" stroke-dasharray="5,2" d="M39.17,-287.55C55.3,-286.9 77.09,-286.95 96,-290.2 111.5,-292.87 128.23,-298.55 141.16,-303.6"/>
<polygon fill="#9a32cd" stroke="#9a32cd" points="38.81,-284.06 29.01,-288.08 39.18,-291.05 38.81,-284.06"/>
<text text-anchor="middle" x="71.5" y="-293.2" font-family="Helvetica,sans-Serif" font-size="10.00"> keys</text>
</g>
<!-- Node17 -->
<g id="node17" class="node">
<title>Node17</title>
<g id="a_node17"><a xlink:title=" ">
<polygon fill="white" stroke="black" points="945,-164.7 945,-183.7 1010,-183.7 1010,-164.7 945,-164.7"/>
<text text-anchor="middle" x="977.5" y="-171.7" font-family="Helvetica,sans-Serif" font-size="10.00">std::string</text>
</a>
</g>
</g>
<!-- Node17&#45;&gt;Node4 -->
<g id="edge20" class="edge">
<title>Node17&#45;&gt;Node4</title>
<path fill="none" stroke="#9a32cd" stroke-dasharray="5,2" d="M1020.37,-173.36C1064.63,-173.2 1136.3,-175.02 1197,-186.2 1363.34,-216.85 1554.01,-292.1 1618.42,-318.7"/>
<polygon fill="#9a32cd" stroke="#9a32cd" points="1020.25,-169.86 1010.28,-173.43 1020.3,-176.86 1020.25,-169.86"/>
<text text-anchor="middle" x="1301.5" y="-236.2" font-family="Helvetica,sans-Serif" font-size="10.00"> m_SourceOutputName</text>
</g>
<!-- Node17&#45;&gt;Node5 -->
<g id="edge17" class="edge">
<title>Node17&#45;&gt;Node5</title>
<path fill="none" stroke="#9a32cd" stroke-dasharray="5,2" d="M1020.09,-178.72C1064.9,-184.51 1137.74,-196.61 1197,-219.2 1231.54,-232.37 1268.09,-256.24 1287.15,-269.55"/>
<polygon fill="#9a32cd" stroke="#9a32cd" points="1020.5,-175.25 1010.15,-177.48 1019.64,-182.19 1020.5,-175.25"/>
<text text-anchor="middle" x="1130.5" y="-222.2" font-family="Helvetica,sans-Serif" font-size="10.00"> m_ObjectName</text>
</g>
<!-- Node18 -->
<g id="node18" class="node">
<title>Node18</title>
<g id="a_node18"><a xlink:title=" ">
<polygon fill="white" stroke="black" points="657,-159.2 657,-189.2 761,-189.2 761,-159.2 657,-159.2"/>
<text text-anchor="start" x="665" y="-177.2" font-family="Helvetica,sans-Serif" font-size="10.00">std::basic_string&lt;</text>
<text text-anchor="middle" x="709" y="-166.2" font-family="Helvetica,sans-Serif" font-size="10.00"> Char &gt;</text>
</a>
</g>
</g>
<!-- Node18&#45;&gt;Node17 -->
<g id="edge18" class="edge">
<title>Node18&#45;&gt;Node17</title>
<path fill="none" stroke="midnightblue" d="M771.24,-174.2C825.37,-174.2 902.16,-174.2 944.82,-174.2"/>
<polygon fill="midnightblue" stroke="midnightblue" points="771.07,-170.7 761.07,-174.2 771.07,-177.7 771.07,-170.7"/>
</g>
<!-- Node19 -->
<g id="node19" class="node">
<title>Node19</title>
<g id="a_node19"><a xlink:href="classitk_1_1WeakPointer.html" target="_top" xlink:title=" ">
<polygon fill="white" stroke="black" points="1241,-426.2 1241,-456.2 1362,-456.2 1362,-426.2 1241,-426.2"/>
<text text-anchor="start" x="1249" y="-444.2" font-family="Helvetica,sans-Serif" font-size="10.00">itk::WeakPointer&lt; itk</text>
<text text-anchor="middle" x="1301.5" y="-433.2" font-family="Helvetica,sans-Serif" font-size="10.00">::ProcessObject &gt;</text>
</a>
</g>
</g>
<!-- Node19&#45;&gt;Node4 -->
<g id="edge19" class="edge">
<title>Node19&#45;&gt;Node4</title>
<path fill="none" stroke="#9a32cd" stroke-dasharray="5,2" d="M1372.08,-432.91C1411.3,-426.95 1460.75,-417.25 1503,-402.2 1550.89,-385.15 1602.45,-353.52 1626.77,-337.71"/>
<polygon fill="#9a32cd" stroke="#9a32cd" points="1371.47,-429.47 1362.08,-434.39 1372.49,-436.39 1371.47,-429.47"/>
<text text-anchor="middle" x="1454.5" y="-428.2" font-family="Helvetica,sans-Serif" font-size="10.00"> m_Source</text>
</g>
<!-- Node20 -->
<g id="node20" class="node">
<title>Node20</title>
<g id="a_node20"><a xlink:href="classitk_1_1RealTimeStamp.html" target="_top" xlink:title="The RealTimeStamp is a data structure for representing time with high precision and a large dynamic r...">
<polygon fill="white" stroke="black" points="1245,-387.7 1245,-406.7 1358,-406.7 1358,-387.7 1245,-387.7"/>
<text text-anchor="middle" x="1301.5" y="-394.7" font-family="Helvetica,sans-Serif" font-size="10.00">itk::RealTimeStamp</text>
</a>
</g>
</g>
<!-- Node20&#45;&gt;Node4 -->
<g id="edge22" class="edge">
<title>Node20&#45;&gt;Node4</title>
<path fill="none" stroke="#9a32cd" stroke-dasharray="5,2" d="M1368.3,-392.08C1407.68,-388.26 1458.56,-381.97 1503,-372.2 1543.28,-363.35 1588.59,-347.78 1615.95,-337.74"/>
<polygon fill="#9a32cd" stroke="#9a32cd" points="1367.91,-388.6 1358.28,-393.03 1368.57,-395.57 1367.91,-388.6"/>
<text text-anchor="middle" x="1454.5" y="-390.2" font-family="Helvetica,sans-Serif" font-size="10.00"> m_RealTimeStamp</text>
</g>
<!-- Node21 -->
<g id="node21" class="node">
<title>Node21</title>
<g id="a_node21"><a xlink:title=" ">
<polygon fill="white" stroke="black" points="949.5,-387.7 949.5,-406.7 1005.5,-406.7 1005.5,-387.7 949.5,-387.7"/>
<text text-anchor="middle" x="977.5" y="-394.7" font-family="Helvetica,sans-Serif" font-size="10.00">uint64_t</text>
</a>
</g>
</g>
<!-- Node21&#45;&gt;Node20 -->
<g id="edge23" class="edge">
<title>Node21&#45;&gt;Node20</title>
<path fill="none" stroke="#9a32cd" stroke-dasharray="5,2" d="M1015.91,-397.2C1072.25,-397.2 1179.23,-397.2 1244.77,-397.2"/>
<polygon fill="#9a32cd" stroke="#9a32cd" points="1015.68,-393.7 1005.68,-397.2 1015.68,-400.7 1015.68,-393.7"/>
<text text-anchor="middle" x="1130.5" y="-411.2" font-family="Helvetica,sans-Serif" font-size="10.00"> m_MicroSeconds</text>
<text text-anchor="middle" x="1130.5" y="-400.2" font-family="Helvetica,sans-Serif" font-size="10.00">m_Seconds</text>
</g>
<!-- Node22 -->
<g id="node22" class="node">
<title>Node22</title>
<g id="a_node22"><a xlink:href="classitk_1_1Vector.html" target="_top" xlink:title=" ">
<polygon fill="white" stroke="black" points="1569,-105.2 1569,-135.2 1715,-135.2 1715,-105.2 1569,-105.2"/>
<text text-anchor="start" x="1577" y="-123.2" font-family="Helvetica,sans-Serif" font-size="10.00">itk::Vector&lt; SpacingValue</text>
<text text-anchor="middle" x="1642" y="-112.2" font-family="Helvetica,sans-Serif" font-size="10.00">Type, VImageDimension &gt;</text>
</a>
</g>
</g>
<!-- Node22&#45;&gt;Node3 -->
<g id="edge24" class="edge">
<title>Node22&#45;&gt;Node3</title>
<path fill="none" stroke="#9a32cd" stroke-dasharray="5,2" d="M1725.51,-116.46C1781.89,-113.9 1856.95,-110.49 1916.85,-107.77"/>
<polygon fill="#9a32cd" stroke="#9a32cd" points="1725.04,-112.97 1715.21,-116.92 1725.36,-119.97 1725.04,-112.97"/>
<text text-anchor="middle" x="1840" y="-116.2" font-family="Helvetica,sans-Serif" font-size="10.00"> m_Spacing</text>
</g>
<!-- Node23 -->
<g id="node23" class="node">
<title>Node23</title>
<g id="a_node23"><a xlink:href="classitk_1_1FixedArray.html" target="_top" xlink:title=" ">
<polygon fill="white" stroke="black" points="1215,-105.2 1215,-135.2 1388,-135.2 1388,-105.2 1215,-105.2"/>
<text text-anchor="start" x="1223" y="-123.2" font-family="Helvetica,sans-Serif" font-size="10.00">itk::FixedArray&lt; Spacing</text>
<text text-anchor="middle" x="1301.5" y="-112.2" font-family="Helvetica,sans-Serif" font-size="10.00">ValueType, VVectorDimension &gt;</text>
</a>
</g>
</g>
<!-- Node23&#45;&gt;Node22 -->
<g id="edge25" class="edge">
<title>Node23&#45;&gt;Node22</title>
<path fill="none" stroke="midnightblue" d="M1398.66,-120.2C1452.82,-120.2 1519.33,-120.2 1568.97,-120.2"/>
<polygon fill="midnightblue" stroke="midnightblue" points="1398.36,-116.7 1388.36,-120.2 1398.36,-123.7 1398.36,-116.7"/>
</g>
<!-- Node24 -->
<g id="node24" class="node">
<title>Node24</title>
<g id="a_node24"><a xlink:href="classVLength.html" target="_top" xlink:title=" ">
<polygon fill="white" stroke="black" points="949.5,-84.7 949.5,-103.7 1005.5,-103.7 1005.5,-84.7 949.5,-84.7"/>
<text text-anchor="middle" x="977.5" y="-91.7" font-family="Helvetica,sans-Serif" font-size="10.00">VLength</text>
</a>
</g>
</g>
<!-- Node24&#45;&gt;Node23 -->
<g id="edge26" class="edge">
<title>Node24&#45;&gt;Node23</title>
<path fill="none" stroke="#9a32cd" stroke-dasharray="5,2" d="M1015.69,-97.2C1064.03,-101.11 1149.95,-108.05 1214.81,-113.28"/>
<polygon fill="#9a32cd" stroke="#9a32cd" points="1015.93,-93.71 1005.68,-96.4 1015.36,-100.69 1015.93,-93.71"/>
<text text-anchor="middle" x="1130.5" y="-114.2" font-family="Helvetica,sans-Serif" font-size="10.00"> m_InternalArray</text>
</g>
<!-- Node26 -->
<g id="node26" class="node">
<title>Node26</title>
<g id="a_node26"><a xlink:href="classitk_1_1FixedArray.html" target="_top" xlink:title=" ">
<polygon fill="white" stroke="black" points="1226.5,-56.2 1226.5,-86.2 1376.5,-86.2 1376.5,-56.2 1226.5,-56.2"/>
<text text-anchor="start" x="1234.5" y="-74.2" font-family="Helvetica,sans-Serif" font-size="10.00">itk::FixedArray&lt; PointValue</text>
<text text-anchor="middle" x="1301.5" y="-63.2" font-family="Helvetica,sans-Serif" font-size="10.00">Type, VPointDimension &gt;</text>
</a>
</g>
</g>
<!-- Node24&#45;&gt;Node26 -->
<g id="edge29" class="edge">
<title>Node24&#45;&gt;Node26</title>
<path fill="none" stroke="#9a32cd" stroke-dasharray="5,2" d="M1015.64,-87.09C1030.61,-84.49 1048.07,-81.8 1064,-80.2 1118.17,-74.76 1179.62,-72.54 1226.3,-71.66"/>
<polygon fill="#9a32cd" stroke="#9a32cd" points="1014.95,-83.66 1005.72,-88.86 1016.18,-90.55 1014.95,-83.66"/>
<text text-anchor="middle" x="1130.5" y="-83.2" font-family="Helvetica,sans-Serif" font-size="10.00"> m_InternalArray</text>
</g>
<!-- Node25 -->
<g id="node25" class="node">
<title>Node25</title>
<g id="a_node25"><a xlink:href="classitk_1_1Point.html" target="_top" xlink:title=" ">
<polygon fill="white" stroke="black" points="1567.5,-56.2 1567.5,-86.2 1716.5,-86.2 1716.5,-56.2 1567.5,-56.2"/>
<text text-anchor="start" x="1575.5" y="-74.2" font-family="Helvetica,sans-Serif" font-size="10.00">itk::Point&lt; PointValueType,</text>
<text text-anchor="middle" x="1642" y="-63.2" font-family="Helvetica,sans-Serif" font-size="10.00"> VImageDimension &gt;</text>
</a>
</g>
</g>
<!-- Node25&#45;&gt;Node3 -->
<g id="edge27" class="edge">
<title>Node25&#45;&gt;Node3</title>
<path fill="none" stroke="#9a32cd" stroke-dasharray="5,2" d="M1726.82,-78.36C1783.05,-83.17 1857.41,-89.52 1916.84,-94.6"/>
<polygon fill="#9a32cd" stroke="#9a32cd" points="1726.8,-74.85 1716.54,-77.49 1726.21,-81.82 1726.8,-74.85"/>
<text text-anchor="middle" x="1840" y="-95.2" font-family="Helvetica,sans-Serif" font-size="10.00"> m_Origin</text>
</g>
<!-- Node26&#45;&gt;Node25 -->
<g id="edge28" class="edge">
<title>Node26&#45;&gt;Node25</title>
<path fill="none" stroke="midnightblue" d="M1386.95,-71.2C1442.44,-71.2 1514.33,-71.2 1567.47,-71.2"/>
<polygon fill="midnightblue" stroke="midnightblue" points="1386.79,-67.7 1376.79,-71.2 1386.79,-74.7 1386.79,-67.7"/>
</g>
<!-- Node27 -->
<g id="node27" class="node">
<title>Node27</title>
<g id="a_node27"><a xlink:href="classitk_1_1Matrix.html" target="_top" xlink:title=" ">
<polygon fill="white" stroke="black" points="1521,-4.2 1521,-34.2 1763,-34.2 1763,-4.2 1521,-4.2"/>
<text text-anchor="start" x="1529" y="-22.2" font-family="Helvetica,sans-Serif" font-size="10.00">itk::Matrix&lt; SpacePrecision</text>
<text text-anchor="middle" x="1642" y="-11.2" font-family="Helvetica,sans-Serif" font-size="10.00">Type, VImageDimension, VImageDimension &gt;</text>
</a>
</g>
</g>
<!-- Node27&#45;&gt;Node3 -->
<g id="edge30" class="edge">
<title>Node27&#45;&gt;Node3</title>
<path fill="none" stroke="#9a32cd" stroke-dasharray="5,2" d="M1723.89,-2.94C1778.55,3.32 1849.51,1.69 1899,-35.2 1917.6,-49.07 1899.3,-69.21 1917,-84.2 1921.47,-87.99 1926.46,-91.12 1931.76,-93.69"/>
<polygon fill="#9a32cd" stroke="#9a32cd" points="1723.37,0.52 1713.88,-4.19 1724.24,-6.42 1723.37,0.52"/>
<text text-anchor="middle" x="1840" y="-71.2" font-family="Helvetica,sans-Serif" font-size="10.00"> m_Direction</text>
<text text-anchor="middle" x="1840" y="-60.2" font-family="Helvetica,sans-Serif" font-size="10.00">m_IndexToPhysicalPoint</text>
<text text-anchor="middle" x="1840" y="-49.2" font-family="Helvetica,sans-Serif" font-size="10.00">m_InverseDirection</text>
<text text-anchor="middle" x="1840" y="-38.2" font-family="Helvetica,sans-Serif" font-size="10.00">m_PhysicalPointToIndex</text>
</g>
<!-- Node28 -->
<g id="node28" class="node">
<title>Node28</title>
<g id="a_node28"><a xlink:href="classitk_1_1SmartPointer.html" target="_top" xlink:title=" ">
<polygon fill="white" stroke="black" points="1965,-44.2 1965,-74.2 2072,-74.2 2072,-44.2 1965,-44.2"/>
<text text-anchor="start" x="1973" y="-62.2" font-family="Helvetica,sans-Serif" font-size="10.00">itk::SmartPointer&lt;</text>
<text text-anchor="middle" x="2018.5" y="-51.2" font-family="Helvetica,sans-Serif" font-size="10.00"> Self &gt;</text>
</a>
</g>
</g>
<!-- Node28&#45;&gt;Node2 -->
<g id="edge31" class="edge">
<title>Node28&#45;&gt;Node2</title>
<path fill="none" stroke="#9a32cd" stroke-dasharray="5,2" d="M2082.2,-62.3C2118.66,-64.09 2164.95,-66.38 2203.9,-68.3"/>
<polygon fill="#9a32cd" stroke="#9a32cd" points="2082.35,-58.8 2072.19,-61.8 2082.01,-65.79 2082.35,-58.8"/>
<text text-anchor="middle" x="2162" y="-70.2" font-family="Helvetica,sans-Serif" font-size="10.00"> m_Buffer</text>
</g>
</g>
</svg>
