<?xml version="1.0" encoding="UTF-8" standalone="no"?>
<!DOCTYPE svg PUBLIC "-//W3C//DTD SVG 1.1//EN"
 "http://www.w3.org/Graphics/SVG/1.1/DTD/svg11.dtd">
<!-- Generated by graphviz version 2.43.0 (0)
 -->
<!-- Title: itk::LBFGSBOptimizerv4 Pages: 1 -->
<svg width="2597pt" height="521pt"
 viewBox="0.00 0.00 2597.00 520.50" xmlns="http://www.w3.org/2000/svg" xmlns:xlink="http://www.w3.org/1999/xlink">
<g id="graph0" class="graph" transform="scale(1 1) rotate(0) translate(4 516.5)">
<title>itk::LBFGSBOptimizerv4</title>
<polygon fill="white" stroke="transparent" points="-4,4 -4,-516.5 2593,-516.5 2593,4 -4,4"/>
<!-- Node1 -->
<g id="node1" class="node">
<title>Node1</title>
<g id="a_node1"><a xlink:title="Limited memory Broyden Fletcher Goldfarb Shannon minimization with simple bounds.">
<polygon fill="#bfbfbf" stroke="black" points="2455,-75.5 2455,-94.5 2589,-94.5 2589,-75.5 2455,-75.5"/>
<text text-anchor="middle" x="2522" y="-82.5" font-family="Helvetica,sans-Serif" font-size="10.00">itk::LBFGSBOptimizerv4</text>
</a>
</g>
</g>
<!-- Node2 -->
<g id="node2" class="node">
<title>Node2</title>
<g id="a_node2"><a xlink:href="classitk_1_1LBFGSOptimizerBasev4.html" target="_top" xlink:title=" ">
<polygon fill="white" stroke="black" points="2174,-70 2174,-100 2325,-100 2325,-70 2174,-70"/>
<text text-anchor="start" x="2182" y="-88" font-family="Helvetica,sans-Serif" font-size="10.00">itk::LBFGSOptimizerBasev4</text>
<text text-anchor="middle" x="2249.5" y="-77" font-family="Helvetica,sans-Serif" font-size="10.00">&lt; vnl_lbfgsb &gt;</text>
</a>
</g>
</g>
<!-- Node2&#45;&gt;Node1 -->
<g id="edge1" class="edge">
<title>Node2&#45;&gt;Node1</title>
<path fill="none" stroke="midnightblue" d="M2335.31,-85C2373.9,-85 2418.88,-85 2454.91,-85"/>
<polygon fill="midnightblue" stroke="midnightblue" points="2335.13,-81.5 2325.13,-85 2335.13,-88.5 2335.13,-81.5"/>
</g>
<!-- Node3 -->
<g id="node3" class="node">
<title>Node3</title>
<g id="a_node3"><a xlink:href="classitk_1_1SingleValuedNonLinearVnlOptimizerv4.html" target="_top" xlink:title="This is a base for the ITKv4 Optimization methods using the vnl library.">
<polygon fill="white" stroke="black" points="1848,-248 1848,-278 1996,-278 1996,-248 1848,-248"/>
<text text-anchor="start" x="1856" y="-266" font-family="Helvetica,sans-Serif" font-size="10.00">itk::SingleValuedNonLinear</text>
<text text-anchor="middle" x="1922" y="-255" font-family="Helvetica,sans-Serif" font-size="10.00">VnlOptimizerv4</text>
</a>
</g>
</g>
<!-- Node3&#45;&gt;Node2 -->
<g id="edge2" class="edge">
<title>Node3&#45;&gt;Node2</title>
<path fill="none" stroke="midnightblue" d="M1959.64,-242.96C2025.41,-207 2162.08,-132.26 2220.76,-100.17"/>
<polygon fill="midnightblue" stroke="midnightblue" points="1957.57,-240.11 1950.47,-247.98 1960.92,-246.25 1957.57,-240.11"/>
</g>
<!-- Node4 -->
<g id="node4" class="node">
<title>Node4</title>
<g id="a_node4"><a xlink:href="classitk_1_1ObjectToObjectOptimizerBaseTemplate.html" target="_top" xlink:title=" ">
<polygon fill="white" stroke="black" points="1535,-335 1535,-365 1692,-365 1692,-335 1535,-335"/>
<text text-anchor="start" x="1543" y="-353" font-family="Helvetica,sans-Serif" font-size="10.00">itk::ObjectToObjectOptimizer</text>
<text text-anchor="middle" x="1613.5" y="-342" font-family="Helvetica,sans-Serif" font-size="10.00">BaseTemplate&lt; double &gt;</text>
</a>
</g>
</g>
<!-- Node4&#45;&gt;Node3 -->
<g id="edge3" class="edge">
<title>Node4&#45;&gt;Node3</title>
<path fill="none" stroke="midnightblue" d="M1694.36,-332.69C1735.24,-323.25 1785.62,-310.7 1830,-297 1847.89,-291.48 1867.37,-284.35 1883.71,-278.05"/>
<polygon fill="midnightblue" stroke="midnightblue" points="1693.42,-329.32 1684.46,-334.97 1694.98,-336.14 1693.42,-329.32"/>
</g>
<!-- Node5 -->
<g id="node5" class="node">
<title>Node5</title>
<g id="a_node5"><a xlink:href="classitk_1_1Object.html" target="_top" xlink:title="Base class for most ITK classes.">
<polygon fill="white" stroke="black" points="1301,-400.5 1301,-419.5 1368,-419.5 1368,-400.5 1301,-400.5"/>
<text text-anchor="middle" x="1334.5" y="-407.5" font-family="Helvetica,sans-Serif" font-size="10.00">itk::Object</text>
</a>
</g>
</g>
<!-- Node5&#45;&gt;Node4 -->
<g id="edge4" class="edge">
<title>Node5&#45;&gt;Node4</title>
<path fill="none" stroke="midnightblue" d="M1378.02,-407.14C1415.13,-404 1470.22,-397.74 1517,-386 1537.79,-380.78 1560.27,-372.45 1578.19,-365.12"/>
<polygon fill="midnightblue" stroke="midnightblue" points="1377.74,-403.66 1368.05,-407.95 1378.3,-410.63 1377.74,-403.66"/>
</g>
<!-- Node6 -->
<g id="node6" class="node">
<title>Node6</title>
<g id="a_node6"><a xlink:href="classitk_1_1LightObject.html" target="_top" xlink:title="Light weight base class for most itk classes.">
<polygon fill="white" stroke="black" points="964.5,-362.5 964.5,-381.5 1055.5,-381.5 1055.5,-362.5 964.5,-362.5"/>
<text text-anchor="middle" x="1010" y="-369.5" font-family="Helvetica,sans-Serif" font-size="10.00">itk::LightObject</text>
</a>
</g>
</g>
<!-- Node6&#45;&gt;Node5 -->
<g id="edge5" class="edge">
<title>Node6&#45;&gt;Node5</title>
<path fill="none" stroke="midnightblue" d="M1065.81,-376.71C1113.5,-381.02 1184.44,-387.94 1246,-396 1264.15,-398.38 1284.34,-401.57 1300.74,-404.31"/>
<polygon fill="midnightblue" stroke="midnightblue" points="1065.97,-373.21 1055.7,-375.8 1065.35,-380.18 1065.97,-373.21"/>
</g>
<!-- Node7 -->
<g id="node7" class="node">
<title>Node7</title>
<g id="a_node7"><a xlink:title=" ">
<polygon fill="white" stroke="black" points="659.5,-362.5 659.5,-381.5 766.5,-381.5 766.5,-362.5 659.5,-362.5"/>
<text text-anchor="middle" x="713" y="-369.5" font-family="Helvetica,sans-Serif" font-size="10.00">std::atomic&lt; int &gt;</text>
</a>
</g>
</g>
<!-- Node7&#45;&gt;Node6 -->
<g id="edge6" class="edge">
<title>Node7&#45;&gt;Node6</title>
<path fill="none" stroke="#9a32cd" stroke-dasharray="5,2" d="M776.96,-372C833.32,-372 914.54,-372 964.43,-372"/>
<polygon fill="#9a32cd" stroke="#9a32cd" points="776.74,-368.5 766.74,-372 776.74,-375.5 776.74,-368.5"/>
<text text-anchor="middle" x="858.5" y="-375" font-family="Helvetica,sans-Serif" font-size="10.00"> m_ReferenceCount</text>
</g>
<!-- Node8 -->
<g id="node8" class="node">
<title>Node8</title>
<g id="a_node8"><a xlink:href="classitk_1_1TimeStamp.html" target="_top" xlink:title="Generate a unique, increasing time value.">
<polygon fill="white" stroke="black" points="524,-401.5 524,-420.5 616,-420.5 616,-401.5 524,-401.5"/>
<text text-anchor="middle" x="570" y="-408.5" font-family="Helvetica,sans-Serif" font-size="10.00">itk::TimeStamp</text>
</a>
</g>
</g>
<!-- Node8&#45;&gt;Node5 -->
<g id="edge7" class="edge">
<title>Node8&#45;&gt;Node5</title>
<path fill="none" stroke="#9a32cd" stroke-dasharray="5,2" d="M626.42,-410.93C775.64,-410.73 1182.52,-410.2 1300.83,-410.04"/>
<polygon fill="#9a32cd" stroke="#9a32cd" points="626.13,-407.43 616.13,-410.94 626.14,-414.43 626.13,-407.43"/>
<text text-anchor="middle" x="858.5" y="-413" font-family="Helvetica,sans-Serif" font-size="10.00"> m_MTime</text>
</g>
<!-- Node9 -->
<g id="node9" class="node">
<title>Node9</title>
<g id="a_node9"><a xlink:title=" ">
<polygon fill="white" stroke="black" points="114.5,-408.5 114.5,-427.5 214.5,-427.5 214.5,-408.5 114.5,-408.5"/>
<text text-anchor="middle" x="164.5" y="-415.5" font-family="Helvetica,sans-Serif" font-size="10.00">std::atomic&lt; T &gt;</text>
</a>
</g>
</g>
<!-- Node9&#45;&gt;Node8 -->
<g id="edge8" class="edge">
<title>Node9&#45;&gt;Node8</title>
<path fill="none" stroke="#9a32cd" stroke-dasharray="5,2" d="M224.66,-416.97C306.06,-415.56 450.8,-413.05 523.98,-411.78"/>
<polygon fill="#9a32cd" stroke="#9a32cd" points="224.51,-413.48 214.57,-417.15 224.63,-420.47 224.51,-413.48"/>
<text text-anchor="middle" x="286" y="-419" font-family="Helvetica,sans-Serif" font-size="10.00"> m_GlobalTimeStamp</text>
</g>
<!-- Node10 -->
<g id="node10" class="node">
<title>Node10</title>
<g id="a_node10"><a xlink:title=" ">
<polygon fill="white" stroke="black" points="0,-433.5 0,-452.5 29,-452.5 29,-433.5 0,-433.5"/>
<text text-anchor="middle" x="14.5" y="-440.5" font-family="Helvetica,sans-Serif" font-size="10.00">T</text>
</a>
</g>
</g>
<!-- Node10&#45;&gt;Node9 -->
<g id="edge9" class="edge">
<title>Node10&#45;&gt;Node9</title>
<path fill="none" stroke="#9a32cd" stroke-dasharray="5,2" d="M38.46,-431.78C41.29,-430.7 44.18,-429.74 47,-429 68.72,-423.31 93.39,-420.48 114.42,-419.11"/>
<polygon fill="#9a32cd" stroke="#9a32cd" points="37.08,-428.57 29.26,-435.72 39.83,-435 37.08,-428.57"/>
<text text-anchor="middle" x="71.5" y="-432" font-family="Helvetica,sans-Serif" font-size="10.00"> ptr</text>
</g>
<!-- Node15 -->
<g id="node15" class="node">
<title>Node15</title>
<g id="a_node15"><a xlink:title=" ">
<polygon fill="white" stroke="black" points="114,-486.5 114,-505.5 215,-505.5 215,-486.5 114,-486.5"/>
<text text-anchor="middle" x="164.5" y="-493.5" font-family="Helvetica,sans-Serif" font-size="10.00">std::map&lt; K, T &gt;</text>
</a>
</g>
</g>
<!-- Node10&#45;&gt;Node15 -->
<g id="edge16" class="edge">
<title>Node10&#45;&gt;Node15</title>
<path fill="none" stroke="#9a32cd" stroke-dasharray="5,2" d="M38.78,-451.34C65.36,-460.85 108.76,-476.4 136.72,-486.41"/>
<polygon fill="#9a32cd" stroke="#9a32cd" points="39.75,-447.97 29.16,-447.89 37.39,-454.56 39.75,-447.97"/>
<text text-anchor="middle" x="71.5" y="-474" font-family="Helvetica,sans-Serif" font-size="10.00"> elements</text>
</g>
<!-- Node11 -->
<g id="node11" class="node">
<title>Node11</title>
<g id="a_node11"><a xlink:title=" ">
<polygon fill="white" stroke="black" points="941.5,-313 941.5,-343 1078.5,-343 1078.5,-313 941.5,-313"/>
<text text-anchor="start" x="949.5" y="-331" font-family="Helvetica,sans-Serif" font-size="10.00">std::unique_ptr&lt; Subject</text>
<text text-anchor="middle" x="1010" y="-320" font-family="Helvetica,sans-Serif" font-size="10.00">Implementation &gt;</text>
</a>
</g>
</g>
<!-- Node11&#45;&gt;Node5 -->
<g id="edge10" class="edge">
<title>Node11&#45;&gt;Node5</title>
<path fill="none" stroke="#9a32cd" stroke-dasharray="5,2" d="M1088.69,-325.85C1137.17,-327.91 1199.06,-336.99 1246,-366 1257.65,-373.2 1252.75,-383.19 1264,-391 1274.79,-398.49 1288.42,-403.03 1300.75,-405.78"/>
<polygon fill="#9a32cd" stroke="#9a32cd" points="1088.66,-322.35 1078.55,-325.51 1088.43,-329.35 1088.66,-322.35"/>
<text text-anchor="middle" x="1179.5" y="-369" font-family="Helvetica,sans-Serif" font-size="10.00"> m_SubjectImplementation</text>
</g>
<!-- Node12 -->
<g id="node12" class="node">
<title>Node12</title>
<g id="a_node12"><a xlink:title=" ">
<polygon fill="white" stroke="black" points="944,-481 944,-511 1076,-511 1076,-481 944,-481"/>
<text text-anchor="start" x="952" y="-499" font-family="Helvetica,sans-Serif" font-size="10.00">std::unique_ptr&lt; itk</text>
<text text-anchor="middle" x="1010" y="-488" font-family="Helvetica,sans-Serif" font-size="10.00">::MetaDataDictionary &gt;</text>
</a>
</g>
</g>
<!-- Node12&#45;&gt;Node5 -->
<g id="edge11" class="edge">
<title>Node12&#45;&gt;Node5</title>
<path fill="none" stroke="#9a32cd" stroke-dasharray="5,2" d="M1086.09,-487.63C1132.89,-481.11 1193.9,-470.2 1246,-453 1272.04,-444.4 1300.16,-429.47 1317.3,-419.66"/>
<polygon fill="#9a32cd" stroke="#9a32cd" points="1085.47,-484.18 1076.03,-489 1086.41,-491.12 1085.47,-484.18"/>
<text text-anchor="middle" x="1179.5" y="-486" font-family="Helvetica,sans-Serif" font-size="10.00"> m_MetaDataDictionary</text>
</g>
<!-- Node13 -->
<g id="node13" class="node">
<title>Node13</title>
<g id="a_node13"><a xlink:href="classitk_1_1MetaDataDictionary.html" target="_top" xlink:title="Provides a mechanism for storing a collection of arbitrary data types.">
<polygon fill="white" stroke="black" points="646,-488.5 646,-507.5 780,-507.5 780,-488.5 646,-488.5"/>
<text text-anchor="middle" x="713" y="-495.5" font-family="Helvetica,sans-Serif" font-size="10.00">itk::MetaDataDictionary</text>
</a>
</g>
</g>
<!-- Node13&#45;&gt;Node12 -->
<g id="edge12" class="edge">
<title>Node13&#45;&gt;Node12</title>
<path fill="none" stroke="#9a32cd" stroke-dasharray="5,2" d="M790.45,-497.48C838,-497.16 898.5,-496.75 943.78,-496.44"/>
<polygon fill="#9a32cd" stroke="#9a32cd" points="790.18,-493.98 780.2,-497.55 790.23,-500.98 790.18,-493.98"/>
<text text-anchor="middle" x="858.5" y="-500" font-family="Helvetica,sans-Serif" font-size="10.00"> ptr</text>
</g>
<!-- Node14 -->
<g id="node14" class="node">
<title>Node14</title>
<g id="a_node14"><a xlink:title=" ">
<polygon fill="white" stroke="black" points="357,-482 357,-512 506,-512 506,-482 357,-482"/>
<text text-anchor="start" x="365" y="-500" font-family="Helvetica,sans-Serif" font-size="10.00">std::shared_ptr&lt; MetaData</text>
<text text-anchor="middle" x="431.5" y="-489" font-family="Helvetica,sans-Serif" font-size="10.00">DictionaryMapType &gt;</text>
</a>
</g>
</g>
<!-- Node14&#45;&gt;Node13 -->
<g id="edge13" class="edge">
<title>Node14&#45;&gt;Node13</title>
<path fill="none" stroke="#9a32cd" stroke-dasharray="5,2" d="M516.39,-497.3C557.85,-497.45 607.17,-497.62 645.91,-497.76"/>
<polygon fill="#9a32cd" stroke="#9a32cd" points="516.31,-493.8 506.3,-497.26 516.29,-500.8 516.31,-493.8"/>
<text text-anchor="middle" x="570" y="-500" font-family="Helvetica,sans-Serif" font-size="10.00"> m_Dictionary</text>
</g>
<!-- Node15&#45;&gt;Node14 -->
<g id="edge14" class="edge">
<title>Node15&#45;&gt;Node14</title>
<path fill="none" stroke="#9a32cd" stroke-dasharray="5,2" d="M225.18,-496.23C264.19,-496.37 315.41,-496.57 356.93,-496.72"/>
<polygon fill="#9a32cd" stroke="#9a32cd" points="225.05,-492.72 215.03,-496.19 225.02,-499.72 225.05,-492.72"/>
<text text-anchor="middle" x="286" y="-499" font-family="Helvetica,sans-Serif" font-size="10.00"> ptr</text>
</g>
<!-- Node16 -->
<g id="node16" class="node">
<title>Node16</title>
<g id="a_node16"><a xlink:title=" ">
<polygon fill="white" stroke="black" points="0,-486.5 0,-505.5 29,-505.5 29,-486.5 0,-486.5"/>
<text text-anchor="middle" x="14.5" y="-493.5" font-family="Helvetica,sans-Serif" font-size="10.00">K</text>
</a>
</g>
</g>
<!-- Node16&#45;&gt;Node15 -->
<g id="edge15" class="edge">
<title>Node16&#45;&gt;Node15</title>
<path fill="none" stroke="#9a32cd" stroke-dasharray="5,2" d="M39.24,-496C59.28,-496 88.63,-496 113.78,-496"/>
<polygon fill="#9a32cd" stroke="#9a32cd" points="39.16,-492.5 29.16,-496 39.16,-499.5 39.16,-492.5"/>
<text text-anchor="middle" x="71.5" y="-499" font-family="Helvetica,sans-Serif" font-size="10.00"> keys</text>
</g>
<!-- Node17 -->
<g id="node17" class="node">
<title>Node17</title>
<g id="a_node17"><a xlink:title=" ">
<polygon fill="white" stroke="black" points="977.5,-441.5 977.5,-460.5 1042.5,-460.5 1042.5,-441.5 977.5,-441.5"/>
<text text-anchor="middle" x="1010" y="-448.5" font-family="Helvetica,sans-Serif" font-size="10.00">std::string</text>
</a>
</g>
</g>
<!-- Node17&#45;&gt;Node5 -->
<g id="edge17" class="edge">
<title>Node17&#45;&gt;Node5</title>
<path fill="none" stroke="#9a32cd" stroke-dasharray="5,2" d="M1052.69,-446.4C1099.7,-441.13 1178.42,-432.04 1246,-423 1264.11,-420.58 1284.29,-417.6 1300.71,-415.1"/>
<polygon fill="#9a32cd" stroke="#9a32cd" points="1052.13,-442.94 1042.59,-447.53 1052.91,-449.9 1052.13,-442.94"/>
<text text-anchor="middle" x="1179.5" y="-441" font-family="Helvetica,sans-Serif" font-size="10.00"> m_ObjectName</text>
</g>
<!-- Node18 -->
<g id="node18" class="node">
<title>Node18</title>
<g id="a_node18"><a xlink:title=" ">
<polygon fill="white" stroke="black" points="661,-439 661,-469 765,-469 765,-439 661,-439"/>
<text text-anchor="start" x="669" y="-457" font-family="Helvetica,sans-Serif" font-size="10.00">std::basic_string&lt;</text>
<text text-anchor="middle" x="713" y="-446" font-family="Helvetica,sans-Serif" font-size="10.00"> Char &gt;</text>
</a>
</g>
</g>
<!-- Node18&#45;&gt;Node17 -->
<g id="edge18" class="edge">
<title>Node18&#45;&gt;Node17</title>
<path fill="none" stroke="midnightblue" d="M775.4,-453.38C836.88,-452.75 929.08,-451.81 977.19,-451.32"/>
<polygon fill="midnightblue" stroke="midnightblue" points="775.01,-449.88 765.05,-453.48 775.08,-456.88 775.01,-449.88"/>
</g>
<!-- Node19 -->
<g id="node19" class="node">
<title>Node19</title>
<g id="a_node19"><a xlink:href="classitk_1_1SmartPointer.html" target="_top" xlink:title="Implements transparent reference counting.">
<polygon fill="white" stroke="black" points="1281,-302 1281,-332 1388,-332 1388,-302 1281,-302"/>
<text text-anchor="start" x="1289" y="-320" font-family="Helvetica,sans-Serif" font-size="10.00">itk::SmartPointer&lt;</text>
<text text-anchor="middle" x="1334.5" y="-309" font-family="Helvetica,sans-Serif" font-size="10.00"> TObjectType &gt;</text>
</a>
</g>
</g>
<!-- Node19&#45;&gt;Node4 -->
<g id="edge19" class="edge">
<title>Node19&#45;&gt;Node4</title>
<path fill="none" stroke="#9a32cd" stroke-dasharray="5,2" d="M1398.23,-318.82C1433.3,-320.42 1477.73,-323.42 1517,-329 1527.92,-330.55 1539.46,-332.67 1550.59,-334.97"/>
<polygon fill="#9a32cd" stroke="#9a32cd" points="1398.28,-315.32 1388.14,-318.39 1397.98,-322.31 1398.28,-315.32"/>
<text text-anchor="middle" x="1470" y="-343" font-family="Helvetica,sans-Serif" font-size="10.00"> m_Metric</text>
<text text-anchor="middle" x="1470" y="-332" font-family="Helvetica,sans-Serif" font-size="10.00">m_ScalesEstimator</text>
</g>
<!-- Node20 -->
<g id="node20" class="node">
<title>Node20</title>
<g id="a_node20"><a xlink:href="classitk_1_1OptimizerParameters.html" target="_top" xlink:title=" ">
<polygon fill="white" stroke="black" points="1265,-351 1265,-381 1404,-381 1404,-351 1265,-351"/>
<text text-anchor="start" x="1273" y="-369" font-family="Helvetica,sans-Serif" font-size="10.00">itk::OptimizerParameters</text>
<text text-anchor="middle" x="1334.5" y="-358" font-family="Helvetica,sans-Serif" font-size="10.00">&lt; double &gt;</text>
</a>
</g>
</g>
<!-- Node20&#45;&gt;Node4 -->
<g id="edge20" class="edge">
<title>Node20&#45;&gt;Node4</title>
<path fill="none" stroke="#9a32cd" stroke-dasharray="5,2" d="M1414.75,-361.42C1452.41,-359.25 1497.27,-356.66 1534.73,-354.49"/>
<polygon fill="#9a32cd" stroke="#9a32cd" points="1414.11,-357.95 1404.33,-362.02 1414.51,-364.94 1414.11,-357.95"/>
<text text-anchor="middle" x="1470" y="-374" font-family="Helvetica,sans-Serif" font-size="10.00"> m_Scales</text>
<text text-anchor="middle" x="1470" y="-363" font-family="Helvetica,sans-Serif" font-size="10.00">m_Weights</text>
</g>
<!-- Node21 -->
<g id="node21" class="node">
<title>Node21</title>
<g id="a_node21"><a xlink:href="classitk_1_1Array.html" target="_top" xlink:title=" ">
<polygon fill="white" stroke="black" points="951.5,-217.5 951.5,-236.5 1068.5,-236.5 1068.5,-217.5 951.5,-217.5"/>
<text text-anchor="middle" x="1010" y="-224.5" font-family="Helvetica,sans-Serif" font-size="10.00">itk::Array&lt; double &gt;</text>
</a>
</g>
</g>
<!-- Node21&#45;&gt;Node1 -->
<g id="edge40" class="edge">
<title>Node21&#45;&gt;Node1</title>
<path fill="none" stroke="#9a32cd" stroke-dasharray="5,2" d="M1058.14,-214.89C1070.17,-211.73 1083.08,-208.29 1095,-205 1201.37,-175.65 1223.15,-136 1333.5,-136 1333.5,-136 1333.5,-136 2250.5,-136 2338.91,-136 2440.8,-109.37 2490.52,-94.59"/>
<polygon fill="#9a32cd" stroke="#9a32cd" points="1057.06,-211.55 1048.27,-217.46 1058.83,-218.32 1057.06,-211.55"/>
<text text-anchor="middle" x="1770" y="-150" font-family="Helvetica,sans-Serif" font-size="10.00"> m_LowerBound</text>
<text text-anchor="middle" x="1770" y="-139" font-family="Helvetica,sans-Serif" font-size="10.00">m_UpperBound</text>
</g>
<!-- Node21&#45;&gt;Node20 -->
<g id="edge21" class="edge">
<title>Node21&#45;&gt;Node20</title>
<path fill="none" stroke="midnightblue" d="M1078.88,-235.02C1143.88,-243.31 1233.82,-256.6 1246,-268 1270.71,-291.13 1241.22,-316.97 1264,-342 1267.09,-345.4 1270.69,-348.32 1274.59,-350.82"/>
<polygon fill="midnightblue" stroke="midnightblue" points="1079.04,-231.51 1068.68,-233.74 1078.17,-238.46 1079.04,-231.51"/>
</g>
<!-- Node22 -->
<g id="node22" class="node">
<title>Node22</title>
<g id="a_node22"><a xlink:title=" ">
<polygon fill="white" stroke="black" points="651.5,-217.5 651.5,-236.5 774.5,-236.5 774.5,-217.5 651.5,-217.5"/>
<text text-anchor="middle" x="713" y="-224.5" font-family="Helvetica,sans-Serif" font-size="10.00">vnl_vector&lt; double &gt;</text>
</a>
</g>
</g>
<!-- Node22&#45;&gt;Node21 -->
<g id="edge22" class="edge">
<title>Node22&#45;&gt;Node21</title>
<path fill="none" stroke="midnightblue" d="M785.04,-227C835.98,-227 903.72,-227 951.32,-227"/>
<polygon fill="midnightblue" stroke="midnightblue" points="784.77,-223.5 774.77,-227 784.77,-230.5 784.77,-223.5"/>
</g>
<!-- Node23 -->
<g id="node23" class="node">
<title>Node23</title>
<g id="a_node23"><a xlink:title=" ">
<polygon fill="white" stroke="black" points="925,-261 925,-291 1095,-291 1095,-261 925,-261"/>
<text text-anchor="start" x="933" y="-279" font-family="Helvetica,sans-Serif" font-size="10.00">std::unique_ptr&lt; itk</text>
<text text-anchor="middle" x="1010" y="-268" font-family="Helvetica,sans-Serif" font-size="10.00">::OptimizerParametersHelper &gt;</text>
</a>
</g>
</g>
<!-- Node23&#45;&gt;Node20 -->
<g id="edge23" class="edge">
<title>Node23&#45;&gt;Node20</title>
<path fill="none" stroke="#9a32cd" stroke-dasharray="5,2" d="M1105.3,-272.35C1151.15,-274.85 1205.06,-284.52 1246,-312 1258.91,-320.67 1251.92,-332.21 1264,-342 1268.26,-345.46 1273.05,-348.43 1278.08,-350.98"/>
<polygon fill="#9a32cd" stroke="#9a32cd" points="1105.19,-268.84 1095.04,-271.9 1104.88,-275.83 1105.19,-268.84"/>
<text text-anchor="middle" x="1179.5" y="-315" font-family="Helvetica,sans-Serif" font-size="10.00"> m_Helper</text>
</g>
<!-- Node27 -->
<g id="node27" class="node">
<title>Node27</title>
<g id="a_node27"><a xlink:href="classitk_1_1OptimizerParameters.html" target="_top" xlink:title=" ">
<polygon fill="white" stroke="black" points="1264,-165 1264,-195 1405,-195 1405,-165 1264,-165"/>
<text text-anchor="start" x="1272" y="-183" font-family="Helvetica,sans-Serif" font-size="10.00">itk::OptimizerParameters</text>
<text text-anchor="middle" x="1334.5" y="-172" font-family="Helvetica,sans-Serif" font-size="10.00">&lt; InternalMeasureType &gt;</text>
</a>
</g>
</g>
<!-- Node23&#45;&gt;Node27 -->
<g id="edge30" class="edge">
<title>Node23&#45;&gt;Node27</title>
<path fill="none" stroke="#9a32cd" stroke-dasharray="5,2" d="M1071.64,-257.95C1132.72,-239.77 1225.88,-212.04 1283.05,-195.02"/>
<polygon fill="#9a32cd" stroke="#9a32cd" points="1070.33,-254.69 1061.75,-260.89 1072.33,-261.4 1070.33,-254.69"/>
<text text-anchor="middle" x="1179.5" y="-247" font-family="Helvetica,sans-Serif" font-size="10.00"> m_Helper</text>
</g>
<!-- Node24 -->
<g id="node24" class="node">
<title>Node24</title>
<g id="a_node24"><a xlink:href="classitk_1_1OptimizerParametersHelper.html" target="_top" xlink:title="Basic helper class to manage parameter data as an Array type, the default type.">
<polygon fill="white" stroke="black" points="643.5,-261 643.5,-291 782.5,-291 782.5,-261 643.5,-261"/>
<text text-anchor="start" x="651.5" y="-279" font-family="Helvetica,sans-Serif" font-size="10.00">itk::OptimizerParameters</text>
<text text-anchor="middle" x="713" y="-268" font-family="Helvetica,sans-Serif" font-size="10.00">Helper&lt; TValue &gt;</text>
</a>
</g>
</g>
<!-- Node24&#45;&gt;Node23 -->
<g id="edge24" class="edge">
<title>Node24&#45;&gt;Node23</title>
<path fill="none" stroke="#9a32cd" stroke-dasharray="5,2" d="M792.94,-276C833.67,-276 883.36,-276 924.82,-276"/>
<polygon fill="#9a32cd" stroke="#9a32cd" points="792.79,-272.5 782.79,-276 792.79,-279.5 792.79,-272.5"/>
<text text-anchor="middle" x="858.5" y="-279" font-family="Helvetica,sans-Serif" font-size="10.00"> ptr</text>
</g>
<!-- Node25 -->
<g id="node25" class="node">
<title>Node25</title>
<g id="a_node25"><a xlink:href="classitk_1_1SingleValuedVnlCostFunctionAdaptorv4.html" target="_top" xlink:title="This class is an Adaptor that allows to pass itk::ObjectToObjectMetricBase objects to vnl_optimizers ...">
<polygon fill="white" stroke="black" points="1545.5,-213 1545.5,-243 1681.5,-243 1681.5,-213 1545.5,-213"/>
<text text-anchor="start" x="1553.5" y="-231" font-family="Helvetica,sans-Serif" font-size="10.00">itk::SingleValuedVnlCost</text>
<text text-anchor="middle" x="1613.5" y="-220" font-family="Helvetica,sans-Serif" font-size="10.00">FunctionAdaptorv4</text>
</a>
</g>
</g>
<!-- Node25&#45;&gt;Node3 -->
<g id="edge25" class="edge">
<title>Node25&#45;&gt;Node3</title>
<path fill="none" stroke="#9a32cd" stroke-dasharray="5,2" d="M1691.76,-236.82C1739.6,-242.29 1800.66,-249.26 1847.73,-254.63"/>
<polygon fill="#9a32cd" stroke="#9a32cd" points="1692.1,-233.34 1681.76,-235.68 1691.3,-240.29 1692.1,-233.34"/>
<text text-anchor="middle" x="1770" y="-254" font-family="Helvetica,sans-Serif" font-size="10.00"> m_CostFunctionAdaptor</text>
</g>
<!-- Node26 -->
<g id="node26" class="node">
<title>Node26</title>
<g id="a_node26"><a xlink:title=" ">
<polygon fill="white" stroke="black" points="1283.5,-214.5 1283.5,-233.5 1385.5,-233.5 1385.5,-214.5 1283.5,-214.5"/>
<text text-anchor="middle" x="1334.5" y="-221.5" font-family="Helvetica,sans-Serif" font-size="10.00">vnl_cost_function</text>
</a>
</g>
</g>
<!-- Node26&#45;&gt;Node25 -->
<g id="edge26" class="edge">
<title>Node26&#45;&gt;Node25</title>
<path fill="none" stroke="midnightblue" d="M1395.66,-224.87C1439.74,-225.51 1499.59,-226.37 1545.25,-227.03"/>
<polygon fill="midnightblue" stroke="midnightblue" points="1395.71,-221.37 1385.66,-224.72 1395.61,-228.37 1395.71,-221.37"/>
</g>
<!-- Node27&#45;&gt;Node25 -->
<g id="edge27" class="edge">
<title>Node27&#45;&gt;Node25</title>
<path fill="none" stroke="#9a32cd" stroke-dasharray="5,2" d="M1415.46,-192.82C1447.11,-198 1483.8,-204.13 1517,-210 1526.22,-211.63 1535.93,-213.4 1545.49,-215.17"/>
<polygon fill="#9a32cd" stroke="#9a32cd" points="1415.81,-189.33 1405.38,-191.17 1414.68,-196.24 1415.81,-189.33"/>
<text text-anchor="middle" x="1470" y="-213" font-family="Helvetica,sans-Serif" font-size="10.00"> m_Scales</text>
</g>
<!-- Node28 -->
<g id="node28" class="node">
<title>Node28</title>
<g id="a_node28"><a xlink:href="classitk_1_1Array.html" target="_top" xlink:title=" ">
<polygon fill="white" stroke="black" points="934,-165 934,-195 1086,-195 1086,-165 934,-165"/>
<text text-anchor="start" x="942" y="-183" font-family="Helvetica,sans-Serif" font-size="10.00">itk::Array&lt; InternalMeasure</text>
<text text-anchor="middle" x="1010" y="-172" font-family="Helvetica,sans-Serif" font-size="10.00">Type &gt;</text>
</a>
</g>
</g>
<!-- Node28&#45;&gt;Node27 -->
<g id="edge28" class="edge">
<title>Node28&#45;&gt;Node27</title>
<path fill="none" stroke="midnightblue" d="M1096.47,-180C1148.79,-180 1214.88,-180 1263.97,-180"/>
<polygon fill="midnightblue" stroke="midnightblue" points="1096.2,-176.5 1086.2,-180 1096.2,-183.5 1096.2,-176.5"/>
</g>
<!-- Node29 -->
<g id="node29" class="node">
<title>Node29</title>
<g id="a_node29"><a xlink:title=" ">
<polygon fill="white" stroke="black" points="634,-165 634,-195 792,-195 792,-165 634,-165"/>
<text text-anchor="start" x="642" y="-183" font-family="Helvetica,sans-Serif" font-size="10.00">vnl_vector&lt; InternalMeasure</text>
<text text-anchor="middle" x="713" y="-172" font-family="Helvetica,sans-Serif" font-size="10.00">Type &gt;</text>
</a>
</g>
</g>
<!-- Node29&#45;&gt;Node28 -->
<g id="edge29" class="edge">
<title>Node29&#45;&gt;Node28</title>
<path fill="none" stroke="midnightblue" d="M802.48,-180C844.38,-180 893.88,-180 933.92,-180"/>
<polygon fill="midnightblue" stroke="midnightblue" points="802.28,-176.5 792.28,-180 802.28,-183.5 802.28,-176.5"/>
</g>
<!-- Node30 -->
<g id="node30" class="node">
<title>Node30</title>
<g id="a_node30"><a xlink:href="classitk_1_1SmartPointer.html" target="_top" xlink:title=" ">
<polygon fill="white" stroke="black" points="1281,-253 1281,-283 1388,-283 1388,-253 1281,-253"/>
<text text-anchor="start" x="1289" y="-271" font-family="Helvetica,sans-Serif" font-size="10.00">itk::SmartPointer&lt;</text>
<text text-anchor="middle" x="1334.5" y="-260" font-family="Helvetica,sans-Serif" font-size="10.00"> Self &gt;</text>
</a>
</g>
</g>
<!-- Node30&#45;&gt;Node3 -->
<g id="edge32" class="edge">
<title>Node30&#45;&gt;Node3</title>
<path fill="none" stroke="#9a32cd" stroke-dasharray="5,2" d="M1398.3,-268.8C1406.61,-268.89 1415.01,-268.95 1423,-269 1603.89,-270.03 1649.15,-269.85 1830,-266 1835.85,-265.88 1841.91,-265.72 1847.99,-265.56"/>
<polygon fill="#9a32cd" stroke="#9a32cd" points="1398.28,-265.3 1388.25,-268.7 1398.21,-272.3 1398.28,-265.3"/>
<text text-anchor="middle" x="1613.5" y="-272" font-family="Helvetica,sans-Serif" font-size="10.00"> m_Command</text>
</g>
<!-- Node30&#45;&gt;Node25 -->
<g id="edge31" class="edge">
<title>Node30&#45;&gt;Node25</title>
<path fill="none" stroke="#9a32cd" stroke-dasharray="5,2" d="M1398.23,-258.94C1442.12,-252.6 1500.67,-244.15 1545.47,-237.68"/>
<polygon fill="#9a32cd" stroke="#9a32cd" points="1397.65,-255.49 1388.25,-260.38 1398.65,-262.42 1397.65,-255.49"/>
<text text-anchor="middle" x="1470" y="-258" font-family="Helvetica,sans-Serif" font-size="10.00"> m_Reporter</text>
</g>
<!-- Node31 -->
<g id="node31" class="node">
<title>Node31</title>
<g id="a_node31"><a xlink:title=" ">
<polygon fill="white" stroke="black" points="1853,-77 1853,-107 1991,-107 1991,-77 1853,-77"/>
<text text-anchor="start" x="1861" y="-95" font-family="Helvetica,sans-Serif" font-size="10.00">std::unique_ptr&lt; Internal</text>
<text text-anchor="middle" x="1922" y="-84" font-family="Helvetica,sans-Serif" font-size="10.00">OptimizerType &gt;</text>
</a>
</g>
</g>
<!-- Node31&#45;&gt;Node2 -->
<g id="edge33" class="edge">
<title>Node31&#45;&gt;Node2</title>
<path fill="none" stroke="#9a32cd" stroke-dasharray="5,2" d="M2001.2,-86.53C2005.53,-86.33 2009.82,-86.15 2014,-86 2067.4,-84.13 2127.69,-83.91 2173.76,-84.15"/>
<polygon fill="#9a32cd" stroke="#9a32cd" points="2000.86,-83.05 1991.05,-87.05 2001.22,-90.04 2000.86,-83.05"/>
<text text-anchor="middle" x="2085" y="-89" font-family="Helvetica,sans-Serif" font-size="10.00"> m_VnlOptimizer</text>
</g>
<!-- Node32 -->
<g id="node32" class="node">
<title>Node32</title>
<g id="a_node32"><a xlink:href="classLBFGSBOptimizerHelperv4.html" target="_top" xlink:title="Wrapper helper around vnl_lbfgsb.">
<polygon fill="white" stroke="black" points="1540,-82.5 1540,-101.5 1687,-101.5 1687,-82.5 1540,-82.5"/>
<text text-anchor="middle" x="1613.5" y="-89.5" font-family="Helvetica,sans-Serif" font-size="10.00">LBFGSBOptimizerHelperv4</text>
</a>
</g>
</g>
<!-- Node32&#45;&gt;Node31 -->
<g id="edge34" class="edge">
<title>Node32&#45;&gt;Node31</title>
<path fill="none" stroke="#9a32cd" stroke-dasharray="5,2" d="M1697.34,-92C1746.05,-92 1806.9,-92 1852.82,-92"/>
<polygon fill="#9a32cd" stroke="#9a32cd" points="1697.14,-88.5 1687.14,-92 1697.14,-95.5 1697.14,-88.5"/>
<text text-anchor="middle" x="1770" y="-95" font-family="Helvetica,sans-Serif" font-size="10.00"> ptr</text>
</g>
<!-- Node33 -->
<g id="node33" class="node">
<title>Node33</title>
<g id="a_node33"><a xlink:title=" ">
<polygon fill="white" stroke="black" points="1869,-38.5 1869,-57.5 1975,-57.5 1975,-38.5 1869,-38.5"/>
<text text-anchor="middle" x="1922" y="-45.5" font-family="Helvetica,sans-Serif" font-size="10.00">std::ostringstream</text>
</a>
</g>
</g>
<!-- Node33&#45;&gt;Node2 -->
<g id="edge35" class="edge">
<title>Node33&#45;&gt;Node2</title>
<path fill="none" stroke="#9a32cd" stroke-dasharray="5,2" d="M1985.45,-52.24C2032.45,-55.77 2098.41,-61.44 2156,-69 2161.82,-69.76 2167.83,-70.63 2173.86,-71.55"/>
<polygon fill="#9a32cd" stroke="#9a32cd" points="1985.65,-48.75 1975.42,-51.5 1985.13,-55.73 1985.65,-48.75"/>
<text text-anchor="middle" x="2085" y="-72" font-family="Helvetica,sans-Serif" font-size="10.00"> m_StopConditionDescription</text>
</g>
<!-- Node34 -->
<g id="node34" class="node">
<title>Node34</title>
<g id="a_node34"><a xlink:title=" ">
<polygon fill="white" stroke="black" points="1545,-33 1545,-63 1682,-63 1682,-33 1545,-33"/>
<text text-anchor="start" x="1553" y="-51" font-family="Helvetica,sans-Serif" font-size="10.00">std::basic_ostringstream</text>
<text text-anchor="middle" x="1613.5" y="-40" font-family="Helvetica,sans-Serif" font-size="10.00">&lt; Char &gt;</text>
</a>
</g>
</g>
<!-- Node34&#45;&gt;Node33 -->
<g id="edge36" class="edge">
<title>Node34&#45;&gt;Node33</title>
<path fill="none" stroke="midnightblue" d="M1692.25,-48C1747.53,-48 1820.28,-48 1868.74,-48"/>
<polygon fill="midnightblue" stroke="midnightblue" points="1692.14,-44.5 1682.14,-48 1692.14,-51.5 1692.14,-44.5"/>
</g>
<!-- Node35 -->
<g id="node35" class="node">
<title>Node35</title>
<g id="a_node35"><a xlink:title=" ">
<polygon fill="white" stroke="black" points="1280,-33 1280,-63 1389,-63 1389,-33 1280,-33"/>
<text text-anchor="start" x="1288" y="-51" font-family="Helvetica,sans-Serif" font-size="10.00">std::basic_ostream</text>
<text text-anchor="middle" x="1334.5" y="-40" font-family="Helvetica,sans-Serif" font-size="10.00">&lt; Char &gt;</text>
</a>
</g>
</g>
<!-- Node35&#45;&gt;Node34 -->
<g id="edge37" class="edge">
<title>Node35&#45;&gt;Node34</title>
<path fill="none" stroke="midnightblue" d="M1399.43,-48C1443,-48 1500.6,-48 1544.93,-48"/>
<polygon fill="midnightblue" stroke="midnightblue" points="1399.24,-44.5 1389.24,-48 1399.24,-51.5 1399.24,-44.5"/>
</g>
<!-- Node36 -->
<g id="node36" class="node">
<title>Node36</title>
<g id="a_node36"><a xlink:title=" ">
<polygon fill="white" stroke="black" points="946,-38.5 946,-57.5 1074,-57.5 1074,-38.5 946,-38.5"/>
<text text-anchor="middle" x="1010" y="-45.5" font-family="Helvetica,sans-Serif" font-size="10.00">std::basic_ios&lt; Char &gt;</text>
</a>
</g>
</g>
<!-- Node36&#45;&gt;Node35 -->
<g id="edge38" class="edge">
<title>Node36&#45;&gt;Node35</title>
<path fill="none" stroke="midnightblue" d="M1084.42,-48C1143.96,-48 1226.49,-48 1279.94,-48"/>
<polygon fill="midnightblue" stroke="midnightblue" points="1084.33,-44.5 1074.33,-48 1084.33,-51.5 1084.33,-44.5"/>
</g>
<!-- Node37 -->
<g id="node37" class="node">
<title>Node37</title>
<g id="a_node37"><a xlink:title=" ">
<polygon fill="white" stroke="black" points="673,-38.5 673,-57.5 753,-57.5 753,-38.5 673,-38.5"/>
<text text-anchor="middle" x="713" y="-45.5" font-family="Helvetica,sans-Serif" font-size="10.00">std::ios_base</text>
</a>
</g>
</g>
<!-- Node37&#45;&gt;Node36 -->
<g id="edge39" class="edge">
<title>Node37&#45;&gt;Node36</title>
<path fill="none" stroke="midnightblue" d="M763.43,-48C813.57,-48 891.34,-48 945.89,-48"/>
<polygon fill="midnightblue" stroke="midnightblue" points="763.17,-44.5 753.17,-48 763.17,-51.5 763.17,-44.5"/>
</g>
<!-- Node38 -->
<g id="node38" class="node">
<title>Node38</title>
<g id="a_node38"><a xlink:href="classitk_1_1Array.html" target="_top" xlink:title=" ">
<polygon fill="white" stroke="black" points="2197,-16.5 2197,-35.5 2302,-35.5 2302,-16.5 2197,-16.5"/>
<text text-anchor="middle" x="2249.5" y="-23.5" font-family="Helvetica,sans-Serif" font-size="10.00">itk::Array&lt; long &gt;</text>
</a>
</g>
</g>
<!-- Node38&#45;&gt;Node1 -->
<g id="edge41" class="edge">
<title>Node38&#45;&gt;Node1</title>
<path fill="none" stroke="#9a32cd" stroke-dasharray="5,2" d="M2304.07,-37.68C2354.81,-48.75 2430.09,-65.17 2477.3,-75.47"/>
<polygon fill="#9a32cd" stroke="#9a32cd" points="2304.78,-34.26 2294.26,-35.54 2303.29,-41.1 2304.78,-34.26"/>
<text text-anchor="middle" x="2390" y="-68" font-family="Helvetica,sans-Serif" font-size="10.00"> m_BoundSelection</text>
</g>
<!-- Node39 -->
<g id="node39" class="node">
<title>Node39</title>
<g id="a_node39"><a xlink:title=" ">
<polygon fill="white" stroke="black" points="1866.5,-0.5 1866.5,-19.5 1977.5,-19.5 1977.5,-0.5 1866.5,-0.5"/>
<text text-anchor="middle" x="1922" y="-7.5" font-family="Helvetica,sans-Serif" font-size="10.00">vnl_vector&lt; long &gt;</text>
</a>
</g>
</g>
<!-- Node39&#45;&gt;Node38 -->
<g id="edge42" class="edge">
<title>Node39&#45;&gt;Node38</title>
<path fill="none" stroke="midnightblue" d="M1988.2,-13.2C2049.62,-16.22 2140.4,-20.69 2196.92,-23.46"/>
<polygon fill="midnightblue" stroke="midnightblue" points="1988.01,-9.69 1977.85,-12.7 1987.66,-16.68 1988.01,-9.69"/>
</g>
</g>
</svg>
