<?xml version="1.0" encoding="UTF-8" standalone="no"?>
<!DOCTYPE svg PUBLIC "-//W3C//DTD SVG 1.1//EN"
 "http://www.w3.org/Graphics/SVG/1.1/DTD/svg11.dtd">
<!-- Generated by graphviz version 2.43.0 (0)
 -->
<!-- Title: itk::FiniteDifferenceImageFilter&lt; TInputImage, TOutputImage &gt; Pages: 1 -->
<svg width="3497pt" height="673pt"
 viewBox="0.00 0.00 3497.00 673.00" xmlns="http://www.w3.org/2000/svg" xmlns:xlink="http://www.w3.org/1999/xlink">
<g id="graph0" class="graph" transform="scale(1 1) rotate(0) translate(4 669)">
<title>itk::FiniteDifferenceImageFilter&lt; TInputImage, TOutputImage &gt;</title>
<polygon fill="white" stroke="transparent" points="-4,4 -4,-669 3493,-669 3493,4 -4,4"/>
<!-- Node1 -->
<g id="node1" class="node">
<title>Node1</title>
<g id="a_node1"><a xlink:title=" ">
<polygon fill="#bfbfbf" stroke="black" points="1045,-311 1045,-341 1246,-341 1246,-311 1045,-311"/>
<text text-anchor="start" x="1053" y="-329" font-family="Helvetica,sans-Serif" font-size="10.00">itk::FiniteDifferenceImage</text>
<text text-anchor="middle" x="1145.5" y="-318" font-family="Helvetica,sans-Serif" font-size="10.00">Filter&lt; TInputImage, TOutputImage &gt;</text>
</a>
</g>
</g>
<!-- Node10 -->
<g id="node10" class="node">
<title>Node10</title>
<g id="a_node10"><a xlink:href="classitk_1_1GPUImageToImageFilter.html" target="_top" xlink:title=" ">
<polygon fill="white" stroke="black" points="1288,-503 1288,-555 1476,-555 1476,-503 1288,-503"/>
<text text-anchor="start" x="1296" y="-543" font-family="Helvetica,sans-Serif" font-size="10.00">itk::GPUImageToImageFilter</text>
<text text-anchor="start" x="1296" y="-532" font-family="Helvetica,sans-Serif" font-size="10.00">&lt; TInputImage, TOutputImage,</text>
<text text-anchor="start" x="1296" y="-521" font-family="Helvetica,sans-Serif" font-size="10.00"> FiniteDifferenceImageFilter</text>
<text text-anchor="middle" x="1382" y="-510" font-family="Helvetica,sans-Serif" font-size="10.00">&lt; TInputImage, TOutputImage &gt; &gt;</text>
</a>
</g>
</g>
<!-- Node1&#45;&gt;Node10 -->
<g id="edge9" class="edge">
<title>Node1&#45;&gt;Node10</title>
<path fill="none" stroke="midnightblue" d="M1171.7,-347.81C1215.21,-385.48 1304.23,-462.54 1350.91,-502.95"/>
<polygon fill="midnightblue" stroke="midnightblue" points="1173.98,-345.16 1164.13,-341.26 1169.4,-350.45 1173.98,-345.16"/>
</g>
<!-- Node13 -->
<g id="node13" class="node">
<title>Node13</title>
<g id="a_node13"><a xlink:href="classitk_1_1DenseFiniteDifferenceImageFilter.html" target="_top" xlink:title=" ">
<polygon fill="white" stroke="black" points="1308,-360.5 1308,-401.5 1456,-401.5 1456,-360.5 1308,-360.5"/>
<text text-anchor="start" x="1316" y="-389.5" font-family="Helvetica,sans-Serif" font-size="10.00">itk::DenseFiniteDifference</text>
<text text-anchor="start" x="1316" y="-378.5" font-family="Helvetica,sans-Serif" font-size="10.00">ImageFilter&lt; TInputImage,</text>
<text text-anchor="middle" x="1382" y="-367.5" font-family="Helvetica,sans-Serif" font-size="10.00"> TOutputImage &gt;</text>
</a>
</g>
</g>
<!-- Node1&#45;&gt;Node13 -->
<g id="edge12" class="edge">
<title>Node1&#45;&gt;Node13</title>
<path fill="none" stroke="midnightblue" d="M1220.66,-343.39C1248.51,-349.93 1280.13,-357.34 1307.89,-363.85"/>
<polygon fill="midnightblue" stroke="midnightblue" points="1221.11,-339.9 1210.58,-341.03 1219.51,-346.72 1221.11,-339.9"/>
</g>
<!-- Node37 -->
<g id="node37" class="node">
<title>Node37</title>
<g id="a_node37"><a xlink:href="classitk_1_1NarrowBandImageFilterBase.html" target="_top" xlink:title="This class implements a multi&#45;threaded finite difference image to image solver that can be applied to...">
<polygon fill="white" stroke="black" points="1282,-311 1282,-341 1482,-341 1482,-311 1282,-311"/>
<text text-anchor="start" x="1290" y="-329" font-family="Helvetica,sans-Serif" font-size="10.00">itk::NarrowBandImageFilter</text>
<text text-anchor="middle" x="1382" y="-318" font-family="Helvetica,sans-Serif" font-size="10.00">Base&lt; TInputImage, TOutputImage &gt;</text>
</a>
</g>
</g>
<!-- Node1&#45;&gt;Node37 -->
<g id="edge36" class="edge">
<title>Node1&#45;&gt;Node37</title>
<path fill="none" stroke="midnightblue" d="M1256.5,-326C1264.9,-326 1273.35,-326 1281.67,-326"/>
<polygon fill="midnightblue" stroke="midnightblue" points="1256.29,-322.5 1246.29,-326 1256.29,-329.5 1256.29,-322.5"/>
</g>
<!-- Node38 -->
<g id="node38" class="node">
<title>Node38</title>
<g id="a_node38"><a xlink:href="classitk_1_1ParallelSparseFieldLevelSetImageFilter.html" target="_top" xlink:title="This class implements a finite difference partial differential equation solver for evolving surfaces ...">
<polygon fill="white" stroke="black" points="1287,-250.5 1287,-291.5 1477,-291.5 1477,-250.5 1287,-250.5"/>
<text text-anchor="start" x="1295" y="-279.5" font-family="Helvetica,sans-Serif" font-size="10.00">itk::ParallelSparseField</text>
<text text-anchor="start" x="1295" y="-268.5" font-family="Helvetica,sans-Serif" font-size="10.00">LevelSetImageFilter&lt; TInputImage,</text>
<text text-anchor="middle" x="1382" y="-257.5" font-family="Helvetica,sans-Serif" font-size="10.00"> TOutputImage &gt;</text>
</a>
</g>
</g>
<!-- Node1&#45;&gt;Node38 -->
<g id="edge37" class="edge">
<title>Node1&#45;&gt;Node38</title>
<path fill="none" stroke="midnightblue" d="M1220.33,-308.68C1243.47,-303.26 1269.25,-297.21 1293.26,-291.58"/>
<polygon fill="midnightblue" stroke="midnightblue" points="1219.51,-305.28 1210.58,-310.97 1221.11,-312.1 1219.51,-305.28"/>
</g>
<!-- Node39 -->
<g id="node39" class="node">
<title>Node39</title>
<g id="a_node39"><a xlink:href="classitk_1_1SparseFieldLevelSetImageFilter.html" target="_top" xlink:title="This class implements a finite difference partial differential equation solver for evolving surfaces ...">
<polygon fill="white" stroke="black" points="1308,-155.5 1308,-196.5 1456,-196.5 1456,-155.5 1308,-155.5"/>
<text text-anchor="start" x="1316" y="-184.5" font-family="Helvetica,sans-Serif" font-size="10.00">itk::SparseFieldLevelSet</text>
<text text-anchor="start" x="1316" y="-173.5" font-family="Helvetica,sans-Serif" font-size="10.00">ImageFilter&lt; TInputImage,</text>
<text text-anchor="middle" x="1382" y="-162.5" font-family="Helvetica,sans-Serif" font-size="10.00"> TOutputImage &gt;</text>
</a>
</g>
</g>
<!-- Node1&#45;&gt;Node39 -->
<g id="edge38" class="edge">
<title>Node1&#45;&gt;Node39</title>
<path fill="none" stroke="midnightblue" d="M1178.72,-305.39C1223.42,-276.8 1303.79,-225.39 1348.59,-196.73"/>
<polygon fill="midnightblue" stroke="midnightblue" points="1176.81,-302.45 1170.28,-310.79 1180.59,-308.35 1176.81,-302.45"/>
</g>
<!-- Node2 -->
<g id="node2" class="node">
<title>Node2</title>
<g id="a_node2"><a xlink:href="classitk_1_1InPlaceImageFilter.html" target="_top" xlink:title=" ">
<polygon fill="white" stroke="black" points="833,-311 833,-341 1009,-341 1009,-311 833,-311"/>
<text text-anchor="start" x="841" y="-329" font-family="Helvetica,sans-Serif" font-size="10.00">itk::InPlaceImageFilter</text>
<text text-anchor="middle" x="921" y="-318" font-family="Helvetica,sans-Serif" font-size="10.00">&lt; TInputImage, TOutputImage &gt;</text>
</a>
</g>
</g>
<!-- Node2&#45;&gt;Node1 -->
<g id="edge1" class="edge">
<title>Node2&#45;&gt;Node1</title>
<path fill="none" stroke="midnightblue" d="M1019.51,-326C1027.94,-326 1036.48,-326 1044.92,-326"/>
<polygon fill="midnightblue" stroke="midnightblue" points="1019.3,-322.5 1009.3,-326 1019.3,-329.5 1019.3,-322.5"/>
</g>
<!-- Node3 -->
<g id="node3" class="node">
<title>Node3</title>
<g id="a_node3"><a xlink:href="classitk_1_1ImageToImageFilter.html" target="_top" xlink:title="Base class for filters that take an image as input and produce an image as output.">
<polygon fill="white" stroke="black" points="621,-311 621,-341 797,-341 797,-311 621,-311"/>
<text text-anchor="start" x="629" y="-329" font-family="Helvetica,sans-Serif" font-size="10.00">itk::ImageToImageFilter</text>
<text text-anchor="middle" x="709" y="-318" font-family="Helvetica,sans-Serif" font-size="10.00">&lt; TInputImage, TOutputImage &gt;</text>
</a>
</g>
</g>
<!-- Node3&#45;&gt;Node2 -->
<g id="edge2" class="edge">
<title>Node3&#45;&gt;Node2</title>
<path fill="none" stroke="midnightblue" d="M807.46,-326C815.88,-326 824.37,-326 832.7,-326"/>
<polygon fill="midnightblue" stroke="midnightblue" points="807.23,-322.5 797.23,-326 807.23,-329.5 807.23,-322.5"/>
</g>
<!-- Node4 -->
<g id="node4" class="node">
<title>Node4</title>
<g id="a_node4"><a xlink:href="classitk_1_1ImageSource.html" target="_top" xlink:title="Base class for all process objects that output image data.">
<polygon fill="white" stroke="black" points="422.5,-333 422.5,-363 571.5,-363 571.5,-333 422.5,-333"/>
<text text-anchor="start" x="430.5" y="-351" font-family="Helvetica,sans-Serif" font-size="10.00">itk::ImageSource&lt; TOutput</text>
<text text-anchor="middle" x="497" y="-340" font-family="Helvetica,sans-Serif" font-size="10.00">Image &gt;</text>
</a>
</g>
</g>
<!-- Node4&#45;&gt;Node3 -->
<g id="edge3" class="edge">
<title>Node4&#45;&gt;Node3</title>
<path fill="none" stroke="midnightblue" d="M581.89,-339.21C594.67,-337.87 607.9,-336.49 620.75,-335.14"/>
<polygon fill="midnightblue" stroke="midnightblue" points="581.32,-335.75 571.74,-340.27 582.05,-342.71 581.32,-335.75"/>
</g>
<!-- Node5 -->
<g id="node5" class="node">
<title>Node5</title>
<g id="a_node5"><a xlink:href="classitk_1_1ProcessObject.html" target="_top" xlink:title="The base class for all process objects (source, filters, mappers) in the Insight data processing pipe...">
<polygon fill="white" stroke="black" points="249.5,-357.5 249.5,-376.5 353.5,-376.5 353.5,-357.5 249.5,-357.5"/>
<text text-anchor="middle" x="301.5" y="-364.5" font-family="Helvetica,sans-Serif" font-size="10.00">itk::ProcessObject</text>
</a>
</g>
</g>
<!-- Node5&#45;&gt;Node4 -->
<g id="edge4" class="edge">
<title>Node5&#45;&gt;Node4</title>
<path fill="none" stroke="midnightblue" d="M363.71,-360.99C382.35,-359.16 403.02,-357.13 422.38,-355.23"/>
<polygon fill="midnightblue" stroke="midnightblue" points="363.2,-357.52 353.59,-361.98 363.89,-364.49 363.2,-357.52"/>
</g>
<!-- Node6 -->
<g id="node6" class="node">
<title>Node6</title>
<g id="a_node6"><a xlink:href="classitk_1_1Object.html" target="_top" xlink:title="Base class for most ITK classes.">
<polygon fill="white" stroke="black" points="127,-357.5 127,-376.5 194,-376.5 194,-357.5 127,-357.5"/>
<text text-anchor="middle" x="160.5" y="-364.5" font-family="Helvetica,sans-Serif" font-size="10.00">itk::Object</text>
</a>
</g>
</g>
<!-- Node6&#45;&gt;Node5 -->
<g id="edge5" class="edge">
<title>Node6&#45;&gt;Node5</title>
<path fill="none" stroke="midnightblue" d="M204.13,-367C218.41,-367 234.48,-367 249.35,-367"/>
<polygon fill="midnightblue" stroke="midnightblue" points="204.09,-363.5 194.09,-367 204.09,-370.5 204.09,-363.5"/>
</g>
<!-- Node7 -->
<g id="node7" class="node">
<title>Node7</title>
<g id="a_node7"><a xlink:href="classitk_1_1LightObject.html" target="_top" xlink:title="Light weight base class for most itk classes.">
<polygon fill="white" stroke="black" points="0,-357.5 0,-376.5 91,-376.5 91,-357.5 0,-357.5"/>
<text text-anchor="middle" x="45.5" y="-364.5" font-family="Helvetica,sans-Serif" font-size="10.00">itk::LightObject</text>
</a>
</g>
</g>
<!-- Node7&#45;&gt;Node6 -->
<g id="edge6" class="edge">
<title>Node7&#45;&gt;Node6</title>
<path fill="none" stroke="midnightblue" d="M101.28,-367C109.96,-367 118.69,-367 126.66,-367"/>
<polygon fill="midnightblue" stroke="midnightblue" points="101.16,-363.5 91.16,-367 101.16,-370.5 101.16,-363.5"/>
</g>
<!-- Node8 -->
<g id="node8" class="node">
<title>Node8</title>
<g id="a_node8"><a xlink:href="structitk_1_1ImageSourceCommon.html" target="_top" xlink:title="Secondary base class of ImageSource common between templates.">
<polygon fill="white" stroke="black" points="230,-319.5 230,-338.5 373,-338.5 373,-319.5 230,-319.5"/>
<text text-anchor="middle" x="301.5" y="-326.5" font-family="Helvetica,sans-Serif" font-size="10.00">itk::ImageSourceCommon</text>
</a>
</g>
</g>
<!-- Node8&#45;&gt;Node4 -->
<g id="edge7" class="edge">
<title>Node8&#45;&gt;Node4</title>
<path fill="none" stroke="#8b1a1a" d="M383.41,-336.94C396.29,-338.21 409.56,-339.51 422.26,-340.76"/>
<polygon fill="#8b1a1a" stroke="#8b1a1a" points="383.47,-333.43 373.18,-335.94 382.79,-340.4 383.47,-333.43"/>
</g>
<!-- Node9 -->
<g id="node9" class="node">
<title>Node9</title>
<g id="a_node9"><a xlink:href="classitk_1_1ImageToImageFilterCommon.html" target="_top" xlink:title="Secondary base class of ImageToImageFilter common between templates.">
<polygon fill="white" stroke="black" points="409,-294.5 409,-313.5 585,-313.5 585,-294.5 409,-294.5"/>
<text text-anchor="middle" x="497" y="-301.5" font-family="Helvetica,sans-Serif" font-size="10.00">itk::ImageToImageFilterCommon</text>
</a>
</g>
</g>
<!-- Node9&#45;&gt;Node3 -->
<g id="edge8" class="edge">
<title>Node9&#45;&gt;Node3</title>
<path fill="none" stroke="#8b1a1a" d="M595.18,-314.18C603.69,-315.07 612.27,-315.97 620.7,-316.85"/>
<polygon fill="#8b1a1a" stroke="#8b1a1a" points="595.54,-310.7 585.23,-313.14 594.82,-317.66 595.54,-310.7"/>
</g>
<!-- Node11 -->
<g id="node11" class="node">
<title>Node11</title>
<g id="a_node11"><a xlink:href="classitk_1_1GPUInPlaceImageFilter.html" target="_top" xlink:title=" ">
<polygon fill="white" stroke="black" points="1524.5,-586 1524.5,-638 1712.5,-638 1712.5,-586 1524.5,-586"/>
<text text-anchor="start" x="1532.5" y="-626" font-family="Helvetica,sans-Serif" font-size="10.00">itk::GPUInPlaceImageFilter</text>
<text text-anchor="start" x="1532.5" y="-615" font-family="Helvetica,sans-Serif" font-size="10.00">&lt; TInputImage, TOutputImage,</text>
<text text-anchor="start" x="1532.5" y="-604" font-family="Helvetica,sans-Serif" font-size="10.00"> FiniteDifferenceImageFilter</text>
<text text-anchor="middle" x="1618.5" y="-593" font-family="Helvetica,sans-Serif" font-size="10.00">&lt; TInputImage, TOutputImage &gt; &gt;</text>
</a>
</g>
</g>
<!-- Node10&#45;&gt;Node11 -->
<g id="edge10" class="edge">
<title>Node10&#45;&gt;Node11</title>
<path fill="none" stroke="midnightblue" d="M1466.14,-558.43C1491.47,-567.39 1519.14,-577.19 1543.8,-585.92"/>
<polygon fill="midnightblue" stroke="midnightblue" points="1467.15,-555.07 1456.55,-555.03 1464.81,-561.67 1467.15,-555.07"/>
</g>
<!-- Node12 -->
<g id="node12" class="node">
<title>Node12</title>
<g id="a_node12"><a xlink:href="classitk_1_1GPUFiniteDifferenceImageFilter.html" target="_top" xlink:title="Base class for GPU Finite Difference Image Filters.">
<polygon fill="white" stroke="black" points="1755,-623.5 1755,-664.5 1954,-664.5 1954,-623.5 1755,-623.5"/>
<text text-anchor="start" x="1763" y="-652.5" font-family="Helvetica,sans-Serif" font-size="10.00">itk::GPUFiniteDifference</text>
<text text-anchor="start" x="1763" y="-641.5" font-family="Helvetica,sans-Serif" font-size="10.00">ImageFilter&lt; TInputImage,</text>
<text text-anchor="middle" x="1854.5" y="-630.5" font-family="Helvetica,sans-Serif" font-size="10.00"> TOutputImage, TParentImageFilter &gt;</text>
</a>
</g>
</g>
<!-- Node11&#45;&gt;Node12 -->
<g id="edge11" class="edge">
<title>Node11&#45;&gt;Node12</title>
<path fill="none" stroke="midnightblue" d="M1722.82,-626.13C1733.48,-627.59 1744.3,-629.07 1754.91,-630.52"/>
<polygon fill="midnightblue" stroke="midnightblue" points="1723.04,-622.63 1712.66,-624.74 1722.09,-629.56 1723.04,-622.63"/>
</g>
<!-- Node14 -->
<g id="node14" class="node">
<title>Node14</title>
<g id="a_node14"><a xlink:href="classitk_1_1GPUImageToImageFilter.html" target="_top" xlink:title=" ">
<polygon fill="white" stroke="black" points="1524.5,-484 1524.5,-536 1712.5,-536 1712.5,-484 1524.5,-484"/>
<text text-anchor="start" x="1532.5" y="-524" font-family="Helvetica,sans-Serif" font-size="10.00">itk::GPUImageToImageFilter</text>
<text text-anchor="start" x="1532.5" y="-513" font-family="Helvetica,sans-Serif" font-size="10.00">&lt; TInputImage, TOutputImage,</text>
<text text-anchor="start" x="1532.5" y="-502" font-family="Helvetica,sans-Serif" font-size="10.00"> DenseFiniteDifferenceImageFilter</text>
<text text-anchor="middle" x="1618.5" y="-491" font-family="Helvetica,sans-Serif" font-size="10.00">&lt; TInputImage, TOutputImage &gt; &gt;</text>
</a>
</g>
</g>
<!-- Node13&#45;&gt;Node14 -->
<g id="edge13" class="edge">
<title>Node13&#45;&gt;Node14</title>
<path fill="none" stroke="midnightblue" d="M1429.33,-406.48C1470.05,-428.89 1529.05,-461.34 1570.09,-483.92"/>
<polygon fill="midnightblue" stroke="midnightblue" points="1430.87,-403.34 1420.42,-401.58 1427.49,-409.47 1430.87,-403.34"/>
</g>
<!-- Node18 -->
<g id="node18" class="node">
<title>Node18</title>
<g id="a_node18"><a xlink:href="classitk_1_1AnisotropicDiffusionImageFilter.html" target="_top" xlink:title=" ">
<polygon fill="white" stroke="black" points="1544.5,-360.5 1544.5,-401.5 1692.5,-401.5 1692.5,-360.5 1544.5,-360.5"/>
<text text-anchor="start" x="1552.5" y="-389.5" font-family="Helvetica,sans-Serif" font-size="10.00">itk::AnisotropicDiffusion</text>
<text text-anchor="start" x="1552.5" y="-378.5" font-family="Helvetica,sans-Serif" font-size="10.00">ImageFilter&lt; TInputImage,</text>
<text text-anchor="middle" x="1618.5" y="-367.5" font-family="Helvetica,sans-Serif" font-size="10.00"> TOutputImage &gt;</text>
</a>
</g>
</g>
<!-- Node13&#45;&gt;Node18 -->
<g id="edge17" class="edge">
<title>Node13&#45;&gt;Node18</title>
<path fill="none" stroke="midnightblue" d="M1466.26,-381C1491.77,-381 1519.64,-381 1544.42,-381"/>
<polygon fill="midnightblue" stroke="midnightblue" points="1466.23,-377.5 1456.23,-381 1466.23,-384.5 1466.23,-377.5"/>
</g>
<!-- Node34 -->
<g id="node34" class="node">
<title>Node34</title>
<g id="a_node34"><a xlink:href="classitk_1_1CurvatureFlowImageFilter.html" target="_top" xlink:title="Denoise an image using curvature driven flow.">
<polygon fill="white" stroke="black" points="1530.5,-214 1530.5,-244 1706.5,-244 1706.5,-214 1530.5,-214"/>
<text text-anchor="start" x="1538.5" y="-232" font-family="Helvetica,sans-Serif" font-size="10.00">itk::CurvatureFlowImageFilter</text>
<text text-anchor="middle" x="1618.5" y="-221" font-family="Helvetica,sans-Serif" font-size="10.00">&lt; TInputImage, TOutputImage &gt;</text>
</a>
</g>
</g>
<!-- Node13&#45;&gt;Node34 -->
<g id="edge33" class="edge">
<title>Node13&#45;&gt;Node34</title>
<path fill="none" stroke="midnightblue" d="M1465.73,-358.09C1471.35,-355.62 1476.83,-352.93 1482,-350 1533.29,-320.89 1581.95,-269.74 1604.45,-244.29"/>
<polygon fill="midnightblue" stroke="midnightblue" points="1464.07,-354.99 1456.15,-362.02 1466.73,-361.46 1464.07,-354.99"/>
</g>
<!-- Node15 -->
<g id="node15" class="node">
<title>Node15</title>
<g id="a_node15"><a xlink:href="classitk_1_1GPUInPlaceImageFilter.html" target="_top" xlink:title=" ">
<polygon fill="white" stroke="black" points="1760.5,-552 1760.5,-604 1948.5,-604 1948.5,-552 1760.5,-552"/>
<text text-anchor="start" x="1768.5" y="-592" font-family="Helvetica,sans-Serif" font-size="10.00">itk::GPUInPlaceImageFilter</text>
<text text-anchor="start" x="1768.5" y="-581" font-family="Helvetica,sans-Serif" font-size="10.00">&lt; TInputImage, TOutputImage,</text>
<text text-anchor="start" x="1768.5" y="-570" font-family="Helvetica,sans-Serif" font-size="10.00"> DenseFiniteDifferenceImageFilter</text>
<text text-anchor="middle" x="1854.5" y="-559" font-family="Helvetica,sans-Serif" font-size="10.00">&lt; TInputImage, TOutputImage &gt; &gt;</text>
</a>
</g>
</g>
<!-- Node14&#45;&gt;Node15 -->
<g id="edge14" class="edge">
<title>Node14&#45;&gt;Node15</title>
<path fill="none" stroke="midnightblue" d="M1719.04,-538.92C1733.95,-543.26 1749.25,-547.71 1763.94,-551.97"/>
<polygon fill="midnightblue" stroke="midnightblue" points="1719.88,-535.53 1709.3,-536.1 1717.93,-542.25 1719.88,-535.53"/>
</g>
<!-- Node16 -->
<g id="node16" class="node">
<title>Node16</title>
<g id="a_node16"><a xlink:href="classitk_1_1GPUFiniteDifferenceImageFilter.html" target="_top" xlink:title=" ">
<polygon fill="white" stroke="black" points="1990,-552 1990,-604 2233,-604 2233,-552 1990,-552"/>
<text text-anchor="start" x="1998" y="-592" font-family="Helvetica,sans-Serif" font-size="10.00">itk::GPUFiniteDifference</text>
<text text-anchor="start" x="1998" y="-581" font-family="Helvetica,sans-Serif" font-size="10.00">ImageFilter&lt; TInputImage,</text>
<text text-anchor="start" x="1998" y="-570" font-family="Helvetica,sans-Serif" font-size="10.00"> TOutputImage, DenseFiniteDifference</text>
<text text-anchor="middle" x="2111.5" y="-559" font-family="Helvetica,sans-Serif" font-size="10.00">ImageFilter&lt; TInputImage, TOutputImage &gt; &gt;</text>
</a>
</g>
</g>
<!-- Node15&#45;&gt;Node16 -->
<g id="edge15" class="edge">
<title>Node15&#45;&gt;Node16</title>
<path fill="none" stroke="midnightblue" d="M1958.77,-578C1968.97,-578 1979.39,-578 1989.75,-578"/>
<polygon fill="midnightblue" stroke="midnightblue" points="1958.64,-574.5 1948.64,-578 1958.64,-581.5 1958.64,-574.5"/>
</g>
<!-- Node17 -->
<g id="node17" class="node">
<title>Node17</title>
<g id="a_node17"><a xlink:href="classitk_1_1GPUDenseFiniteDifferenceImageFilter.html" target="_top" xlink:title=" ">
<polygon fill="white" stroke="black" points="2291,-557.5 2291,-598.5 2490,-598.5 2490,-557.5 2291,-557.5"/>
<text text-anchor="start" x="2299" y="-586.5" font-family="Helvetica,sans-Serif" font-size="10.00">itk::GPUDenseFiniteDifference</text>
<text text-anchor="start" x="2299" y="-575.5" font-family="Helvetica,sans-Serif" font-size="10.00">ImageFilter&lt; TInputImage,</text>
<text text-anchor="middle" x="2390.5" y="-564.5" font-family="Helvetica,sans-Serif" font-size="10.00"> TOutputImage, TParentImageFilter &gt;</text>
</a>
</g>
</g>
<!-- Node16&#45;&gt;Node17 -->
<g id="edge16" class="edge">
<title>Node16&#45;&gt;Node17</title>
<path fill="none" stroke="midnightblue" d="M2243.6,-578C2259.48,-578 2275.5,-578 2290.8,-578"/>
<polygon fill="midnightblue" stroke="midnightblue" points="2243.19,-574.5 2233.19,-578 2243.19,-581.5 2243.19,-574.5"/>
</g>
<!-- Node19 -->
<g id="node19" class="node">
<title>Node19</title>
<g id="a_node19"><a xlink:href="classitk_1_1GPUImageToImageFilter.html" target="_top" xlink:title=" ">
<polygon fill="white" stroke="black" points="1760.5,-481 1760.5,-533 1948.5,-533 1948.5,-481 1760.5,-481"/>
<text text-anchor="start" x="1768.5" y="-521" font-family="Helvetica,sans-Serif" font-size="10.00">itk::GPUImageToImageFilter</text>
<text text-anchor="start" x="1768.5" y="-510" font-family="Helvetica,sans-Serif" font-size="10.00">&lt; TInputImage, TOutputImage,</text>
<text text-anchor="start" x="1768.5" y="-499" font-family="Helvetica,sans-Serif" font-size="10.00"> AnisotropicDiffusionImageFilter</text>
<text text-anchor="middle" x="1854.5" y="-488" font-family="Helvetica,sans-Serif" font-size="10.00">&lt; TInputImage, TOutputImage &gt; &gt;</text>
</a>
</g>
</g>
<!-- Node18&#45;&gt;Node19 -->
<g id="edge18" class="edge">
<title>Node18&#45;&gt;Node19</title>
<path fill="none" stroke="midnightblue" d="M1654.57,-407.64C1681.14,-426.98 1719.07,-452.82 1755,-471 1761.9,-474.49 1769.23,-477.82 1776.65,-480.94"/>
<polygon fill="midnightblue" stroke="midnightblue" points="1656.49,-404.71 1646.36,-401.61 1652.35,-410.36 1656.49,-404.71"/>
</g>
<!-- Node24 -->
<g id="node24" class="node">
<title>Node24</title>
<g id="a_node24"><a xlink:href="classitk_1_1CurvatureAnisotropicDiffusionImageFilter.html" target="_top" xlink:title="This filter performs anisotropic diffusion on a scalar itk::Image using the modified curvature diffus...">
<polygon fill="white" stroke="black" points="1759,-420.5 1759,-461.5 1950,-461.5 1950,-420.5 1759,-420.5"/>
<text text-anchor="start" x="1767" y="-449.5" font-family="Helvetica,sans-Serif" font-size="10.00">itk::CurvatureAnisotropic</text>
<text text-anchor="start" x="1767" y="-438.5" font-family="Helvetica,sans-Serif" font-size="10.00">DiffusionImageFilter&lt; TInputImage,</text>
<text text-anchor="middle" x="1854.5" y="-427.5" font-family="Helvetica,sans-Serif" font-size="10.00"> TOutputImage &gt;</text>
</a>
</g>
</g>
<!-- Node18&#45;&gt;Node24 -->
<g id="edge23" class="edge">
<title>Node18&#45;&gt;Node24</title>
<path fill="none" stroke="midnightblue" d="M1702.32,-402.24C1725.37,-408.15 1750.36,-414.55 1773.26,-420.42"/>
<polygon fill="midnightblue" stroke="midnightblue" points="1703.13,-398.83 1692.58,-399.74 1701.39,-405.61 1703.13,-398.83"/>
</g>
<!-- Node25 -->
<g id="node25" class="node">
<title>Node25</title>
<g id="a_node25"><a xlink:href="classitk_1_1GradientAnisotropicDiffusionImageFilter.html" target="_top" xlink:title="This filter performs anisotropic diffusion on a scalar itk::Image using the classic Perona&#45;Malik,...">
<polygon fill="white" stroke="black" points="1770.5,-360.5 1770.5,-401.5 1938.5,-401.5 1938.5,-360.5 1770.5,-360.5"/>
<text text-anchor="start" x="1778.5" y="-389.5" font-family="Helvetica,sans-Serif" font-size="10.00">itk::GradientAnisotropic</text>
<text text-anchor="start" x="1778.5" y="-378.5" font-family="Helvetica,sans-Serif" font-size="10.00">DiffusionImageFilter&lt;</text>
<text text-anchor="middle" x="1854.5" y="-367.5" font-family="Helvetica,sans-Serif" font-size="10.00"> TInputImage, TOutputImage &gt;</text>
</a>
</g>
</g>
<!-- Node18&#45;&gt;Node25 -->
<g id="edge24" class="edge">
<title>Node18&#45;&gt;Node25</title>
<path fill="none" stroke="midnightblue" d="M1702.85,-381C1724.79,-381 1748.45,-381 1770.37,-381"/>
<polygon fill="midnightblue" stroke="midnightblue" points="1702.58,-377.5 1692.58,-381 1702.58,-384.5 1702.58,-377.5"/>
</g>
<!-- Node32 -->
<g id="node32" class="node">
<title>Node32</title>
<g id="a_node32"><a xlink:href="classitk_1_1VectorCurvatureAnisotropicDiffusionImageFilter.html" target="_top" xlink:title=" ">
<polygon fill="white" stroke="black" points="1759,-300.5 1759,-341.5 1950,-341.5 1950,-300.5 1759,-300.5"/>
<text text-anchor="start" x="1767" y="-329.5" font-family="Helvetica,sans-Serif" font-size="10.00">itk::VectorCurvatureAnisotropic</text>
<text text-anchor="start" x="1767" y="-318.5" font-family="Helvetica,sans-Serif" font-size="10.00">DiffusionImageFilter&lt; TInputImage,</text>
<text text-anchor="middle" x="1854.5" y="-307.5" font-family="Helvetica,sans-Serif" font-size="10.00"> TOutputImage &gt;</text>
</a>
</g>
</g>
<!-- Node18&#45;&gt;Node32 -->
<g id="edge31" class="edge">
<title>Node18&#45;&gt;Node32</title>
<path fill="none" stroke="midnightblue" d="M1702.32,-359.76C1725.37,-353.85 1750.36,-347.45 1773.26,-341.58"/>
<polygon fill="midnightblue" stroke="midnightblue" points="1701.39,-356.39 1692.58,-362.26 1703.13,-363.17 1701.39,-356.39"/>
</g>
<!-- Node33 -->
<g id="node33" class="node">
<title>Node33</title>
<g id="a_node33"><a xlink:href="classitk_1_1VectorGradientAnisotropicDiffusionImageFilter.html" target="_top" xlink:title=" ">
<polygon fill="white" stroke="black" points="1759,-240.5 1759,-281.5 1950,-281.5 1950,-240.5 1759,-240.5"/>
<text text-anchor="start" x="1767" y="-269.5" font-family="Helvetica,sans-Serif" font-size="10.00">itk::VectorGradientAnisotropic</text>
<text text-anchor="start" x="1767" y="-258.5" font-family="Helvetica,sans-Serif" font-size="10.00">DiffusionImageFilter&lt; TInputImage,</text>
<text text-anchor="middle" x="1854.5" y="-247.5" font-family="Helvetica,sans-Serif" font-size="10.00"> TOutputImage &gt;</text>
</a>
</g>
</g>
<!-- Node18&#45;&gt;Node33 -->
<g id="edge32" class="edge">
<title>Node18&#45;&gt;Node33</title>
<path fill="none" stroke="midnightblue" d="M1653.79,-354.14C1680.23,-334.47 1718.36,-308.29 1755,-291 1762.27,-287.57 1770.04,-284.41 1777.89,-281.55"/>
<polygon fill="midnightblue" stroke="midnightblue" points="1651.51,-351.47 1645.63,-360.28 1655.72,-357.07 1651.51,-351.47"/>
</g>
<!-- Node20 -->
<g id="node20" class="node">
<title>Node20</title>
<g id="a_node20"><a xlink:href="classitk_1_1GPUInPlaceImageFilter.html" target="_top" xlink:title=" ">
<polygon fill="white" stroke="black" points="2017.5,-481 2017.5,-533 2205.5,-533 2205.5,-481 2017.5,-481"/>
<text text-anchor="start" x="2025.5" y="-521" font-family="Helvetica,sans-Serif" font-size="10.00">itk::GPUInPlaceImageFilter</text>
<text text-anchor="start" x="2025.5" y="-510" font-family="Helvetica,sans-Serif" font-size="10.00">&lt; TInputImage, TOutputImage,</text>
<text text-anchor="start" x="2025.5" y="-499" font-family="Helvetica,sans-Serif" font-size="10.00"> AnisotropicDiffusionImageFilter</text>
<text text-anchor="middle" x="2111.5" y="-488" font-family="Helvetica,sans-Serif" font-size="10.00">&lt; TInputImage, TOutputImage &gt; &gt;</text>
</a>
</g>
</g>
<!-- Node19&#45;&gt;Node20 -->
<g id="edge19" class="edge">
<title>Node19&#45;&gt;Node20</title>
<path fill="none" stroke="midnightblue" d="M1958.68,-507C1978.03,-507 1998.15,-507 2017.18,-507"/>
<polygon fill="midnightblue" stroke="midnightblue" points="1958.64,-503.5 1948.64,-507 1958.64,-510.5 1958.64,-503.5"/>
</g>
<!-- Node21 -->
<g id="node21" class="node">
<title>Node21</title>
<g id="a_node21"><a xlink:href="classitk_1_1GPUFiniteDifferenceImageFilter.html" target="_top" xlink:title=" ">
<polygon fill="white" stroke="black" points="2269,-481 2269,-533 2512,-533 2512,-481 2269,-481"/>
<text text-anchor="start" x="2277" y="-521" font-family="Helvetica,sans-Serif" font-size="10.00">itk::GPUFiniteDifference</text>
<text text-anchor="start" x="2277" y="-510" font-family="Helvetica,sans-Serif" font-size="10.00">ImageFilter&lt; TInputImage,</text>
<text text-anchor="start" x="2277" y="-499" font-family="Helvetica,sans-Serif" font-size="10.00"> TOutputImage, AnisotropicDiffusion</text>
<text text-anchor="middle" x="2390.5" y="-488" font-family="Helvetica,sans-Serif" font-size="10.00">ImageFilter&lt; TInputImage, TOutputImage &gt; &gt;</text>
</a>
</g>
</g>
<!-- Node20&#45;&gt;Node21 -->
<g id="edge20" class="edge">
<title>Node20&#45;&gt;Node21</title>
<path fill="none" stroke="midnightblue" d="M2215.6,-507C2232.9,-507 2251,-507 2268.7,-507"/>
<polygon fill="midnightblue" stroke="midnightblue" points="2215.51,-503.5 2205.51,-507 2215.51,-510.5 2215.51,-503.5"/>
</g>
<!-- Node22 -->
<g id="node22" class="node">
<title>Node22</title>
<g id="a_node22"><a xlink:href="classitk_1_1GPUDenseFiniteDifferenceImageFilter.html" target="_top" xlink:title=" ">
<polygon fill="white" stroke="black" points="2548,-481 2548,-533 2791,-533 2791,-481 2548,-481"/>
<text text-anchor="start" x="2556" y="-521" font-family="Helvetica,sans-Serif" font-size="10.00">itk::GPUDenseFiniteDifference</text>
<text text-anchor="start" x="2556" y="-510" font-family="Helvetica,sans-Serif" font-size="10.00">ImageFilter&lt; TInputImage,</text>
<text text-anchor="start" x="2556" y="-499" font-family="Helvetica,sans-Serif" font-size="10.00"> TOutputImage, AnisotropicDiffusion</text>
<text text-anchor="middle" x="2669.5" y="-488" font-family="Helvetica,sans-Serif" font-size="10.00">ImageFilter&lt; TInputImage, TOutputImage &gt; &gt;</text>
</a>
</g>
</g>
<!-- Node21&#45;&gt;Node22 -->
<g id="edge21" class="edge">
<title>Node21&#45;&gt;Node22</title>
<path fill="none" stroke="midnightblue" d="M2522.47,-507C2530.91,-507 2539.4,-507 2547.79,-507"/>
<polygon fill="midnightblue" stroke="midnightblue" points="2522.19,-503.5 2512.19,-507 2522.19,-510.5 2522.19,-503.5"/>
</g>
<!-- Node23 -->
<g id="node23" class="node">
<title>Node23</title>
<g id="a_node23"><a xlink:href="classitk_1_1GPUAnisotropicDiffusionImageFilter.html" target="_top" xlink:title=" ">
<polygon fill="white" stroke="black" points="2827,-486.5 2827,-527.5 3026,-527.5 3026,-486.5 2827,-486.5"/>
<text text-anchor="start" x="2835" y="-515.5" font-family="Helvetica,sans-Serif" font-size="10.00">itk::GPUAnisotropicDiffusion</text>
<text text-anchor="start" x="2835" y="-504.5" font-family="Helvetica,sans-Serif" font-size="10.00">ImageFilter&lt; TInputImage,</text>
<text text-anchor="middle" x="2926.5" y="-493.5" font-family="Helvetica,sans-Serif" font-size="10.00"> TOutputImage, TParentImageFilter &gt;</text>
</a>
</g>
</g>
<!-- Node22&#45;&gt;Node23 -->
<g id="edge22" class="edge">
<title>Node22&#45;&gt;Node23</title>
<path fill="none" stroke="midnightblue" d="M2801.28,-507C2809.8,-507 2818.3,-507 2826.63,-507"/>
<polygon fill="midnightblue" stroke="midnightblue" points="2801.28,-503.5 2791.28,-507 2801.28,-510.5 2801.28,-503.5"/>
</g>
<!-- Node26 -->
<g id="node26" class="node">
<title>Node26</title>
<g id="a_node26"><a xlink:href="classitk_1_1GPUImageToImageFilter.html" target="_top" xlink:title=" ">
<polygon fill="white" stroke="black" points="2004,-355 2004,-407 2219,-407 2219,-355 2004,-355"/>
<text text-anchor="start" x="2012" y="-395" font-family="Helvetica,sans-Serif" font-size="10.00">itk::GPUImageToImageFilter</text>
<text text-anchor="start" x="2012" y="-384" font-family="Helvetica,sans-Serif" font-size="10.00">&lt; TInputImage, TOutputImage,</text>
<text text-anchor="start" x="2012" y="-373" font-family="Helvetica,sans-Serif" font-size="10.00"> GradientAnisotropicDiffusionImageFilter</text>
<text text-anchor="middle" x="2111.5" y="-362" font-family="Helvetica,sans-Serif" font-size="10.00">&lt; TInputImage, TOutputImage &gt; &gt;</text>
</a>
</g>
</g>
<!-- Node25&#45;&gt;Node26 -->
<g id="edge25" class="edge">
<title>Node25&#45;&gt;Node26</title>
<path fill="none" stroke="midnightblue" d="M1949.01,-381C1966.81,-381 1985.58,-381 2003.76,-381"/>
<polygon fill="midnightblue" stroke="midnightblue" points="1948.64,-377.5 1938.64,-381 1948.64,-384.5 1948.64,-377.5"/>
</g>
<!-- Node27 -->
<g id="node27" class="node">
<title>Node27</title>
<g id="a_node27"><a xlink:href="classitk_1_1GPUInPlaceImageFilter.html" target="_top" xlink:title=" ">
<polygon fill="white" stroke="black" points="2283,-355 2283,-407 2498,-407 2498,-355 2283,-355"/>
<text text-anchor="start" x="2291" y="-395" font-family="Helvetica,sans-Serif" font-size="10.00">itk::GPUInPlaceImageFilter</text>
<text text-anchor="start" x="2291" y="-384" font-family="Helvetica,sans-Serif" font-size="10.00">&lt; TInputImage, TOutputImage,</text>
<text text-anchor="start" x="2291" y="-373" font-family="Helvetica,sans-Serif" font-size="10.00"> GradientAnisotropicDiffusionImageFilter</text>
<text text-anchor="middle" x="2390.5" y="-362" font-family="Helvetica,sans-Serif" font-size="10.00">&lt; TInputImage, TOutputImage &gt; &gt;</text>
</a>
</g>
</g>
<!-- Node26&#45;&gt;Node27 -->
<g id="edge26" class="edge">
<title>Node26&#45;&gt;Node27</title>
<path fill="none" stroke="midnightblue" d="M2229.55,-381C2247.24,-381 2265.4,-381 2282.86,-381"/>
<polygon fill="midnightblue" stroke="midnightblue" points="2229.2,-377.5 2219.2,-381 2229.2,-384.5 2229.2,-377.5"/>
</g>
<!-- Node28 -->
<g id="node28" class="node">
<title>Node28</title>
<g id="a_node28"><a xlink:href="classitk_1_1GPUFiniteDifferenceImageFilter.html" target="_top" xlink:title=" ">
<polygon fill="white" stroke="black" points="2573.5,-349.5 2573.5,-412.5 2765.5,-412.5 2765.5,-349.5 2573.5,-349.5"/>
<text text-anchor="start" x="2581.5" y="-400.5" font-family="Helvetica,sans-Serif" font-size="10.00">itk::GPUFiniteDifference</text>
<text text-anchor="start" x="2581.5" y="-389.5" font-family="Helvetica,sans-Serif" font-size="10.00">ImageFilter&lt; TInputImage,</text>
<text text-anchor="start" x="2581.5" y="-378.5" font-family="Helvetica,sans-Serif" font-size="10.00"> TOutputImage, GradientAnisotropic</text>
<text text-anchor="start" x="2581.5" y="-367.5" font-family="Helvetica,sans-Serif" font-size="10.00">DiffusionImageFilter&lt; TInputImage,</text>
<text text-anchor="middle" x="2669.5" y="-356.5" font-family="Helvetica,sans-Serif" font-size="10.00"> TOutputImage &gt; &gt;</text>
</a>
</g>
</g>
<!-- Node27&#45;&gt;Node28 -->
<g id="edge27" class="edge">
<title>Node27&#45;&gt;Node28</title>
<path fill="none" stroke="midnightblue" d="M2508.4,-381C2529.99,-381 2552.31,-381 2573.17,-381"/>
<polygon fill="midnightblue" stroke="midnightblue" points="2508.2,-377.5 2498.2,-381 2508.2,-384.5 2508.2,-377.5"/>
</g>
<!-- Node29 -->
<g id="node29" class="node">
<title>Node29</title>
<g id="a_node29"><a xlink:href="classitk_1_1GPUDenseFiniteDifferenceImageFilter.html" target="_top" xlink:title=" ">
<polygon fill="white" stroke="black" points="2830.5,-349.5 2830.5,-412.5 3022.5,-412.5 3022.5,-349.5 2830.5,-349.5"/>
<text text-anchor="start" x="2838.5" y="-400.5" font-family="Helvetica,sans-Serif" font-size="10.00">itk::GPUDenseFiniteDifference</text>
<text text-anchor="start" x="2838.5" y="-389.5" font-family="Helvetica,sans-Serif" font-size="10.00">ImageFilter&lt; TInputImage,</text>
<text text-anchor="start" x="2838.5" y="-378.5" font-family="Helvetica,sans-Serif" font-size="10.00"> TOutputImage, GradientAnisotropic</text>
<text text-anchor="start" x="2838.5" y="-367.5" font-family="Helvetica,sans-Serif" font-size="10.00">DiffusionImageFilter&lt; TInputImage,</text>
<text text-anchor="middle" x="2926.5" y="-356.5" font-family="Helvetica,sans-Serif" font-size="10.00"> TOutputImage &gt; &gt;</text>
</a>
</g>
</g>
<!-- Node28&#45;&gt;Node29 -->
<g id="edge28" class="edge">
<title>Node28&#45;&gt;Node29</title>
<path fill="none" stroke="midnightblue" d="M2776.03,-381C2794.01,-381 2812.6,-381 2830.3,-381"/>
<polygon fill="midnightblue" stroke="midnightblue" points="2775.82,-377.5 2765.82,-381 2775.82,-384.5 2775.82,-377.5"/>
</g>
<!-- Node30 -->
<g id="node30" class="node">
<title>Node30</title>
<g id="a_node30"><a xlink:href="classitk_1_1GPUAnisotropicDiffusionImageFilter.html" target="_top" xlink:title=" ">
<polygon fill="white" stroke="black" points="3062,-349.5 3062,-412.5 3254,-412.5 3254,-349.5 3062,-349.5"/>
<text text-anchor="start" x="3070" y="-400.5" font-family="Helvetica,sans-Serif" font-size="10.00">itk::GPUAnisotropicDiffusion</text>
<text text-anchor="start" x="3070" y="-389.5" font-family="Helvetica,sans-Serif" font-size="10.00">ImageFilter&lt; TInputImage,</text>
<text text-anchor="start" x="3070" y="-378.5" font-family="Helvetica,sans-Serif" font-size="10.00"> TOutputImage, GradientAnisotropic</text>
<text text-anchor="start" x="3070" y="-367.5" font-family="Helvetica,sans-Serif" font-size="10.00">DiffusionImageFilter&lt; TInputImage,</text>
<text text-anchor="middle" x="3158" y="-356.5" font-family="Helvetica,sans-Serif" font-size="10.00"> TOutputImage &gt; &gt;</text>
</a>
</g>
</g>
<!-- Node29&#45;&gt;Node30 -->
<g id="edge29" class="edge">
<title>Node29&#45;&gt;Node30</title>
<path fill="none" stroke="midnightblue" d="M3032.57,-381C3042.28,-381 3052.08,-381 3061.7,-381"/>
<polygon fill="midnightblue" stroke="midnightblue" points="3032.5,-377.5 3022.5,-381 3032.5,-384.5 3032.5,-377.5"/>
</g>
<!-- Node31 -->
<g id="node31" class="node">
<title>Node31</title>
<g id="a_node31"><a xlink:href="classitk_1_1GPUGradientAnisotropicDiffusionImageFilter.html" target="_top" xlink:title=" ">
<polygon fill="white" stroke="black" points="3290,-360.5 3290,-401.5 3489,-401.5 3489,-360.5 3290,-360.5"/>
<text text-anchor="start" x="3298" y="-389.5" font-family="Helvetica,sans-Serif" font-size="10.00">itk::GPUGradientAnisotropic</text>
<text text-anchor="start" x="3298" y="-378.5" font-family="Helvetica,sans-Serif" font-size="10.00">DiffusionImageFilter&lt; TInputImage,</text>
<text text-anchor="middle" x="3389.5" y="-367.5" font-family="Helvetica,sans-Serif" font-size="10.00"> TOutputImage, TParentImageFilter &gt;</text>
</a>
</g>
</g>
<!-- Node30&#45;&gt;Node31 -->
<g id="edge30" class="edge">
<title>Node30&#45;&gt;Node31</title>
<path fill="none" stroke="midnightblue" d="M3264.05,-381C3272.64,-381 3281.31,-381 3289.86,-381"/>
<polygon fill="midnightblue" stroke="midnightblue" points="3264,-377.5 3254,-381 3264,-384.5 3264,-377.5"/>
</g>
<!-- Node35 -->
<g id="node35" class="node">
<title>Node35</title>
<g id="a_node35"><a xlink:href="classitk_1_1MinMaxCurvatureFlowImageFilter.html" target="_top" xlink:title="Denoise an image using min/max curvature flow.">
<polygon fill="white" stroke="black" points="1780.5,-180.5 1780.5,-221.5 1928.5,-221.5 1928.5,-180.5 1780.5,-180.5"/>
<text text-anchor="start" x="1788.5" y="-209.5" font-family="Helvetica,sans-Serif" font-size="10.00">itk::MinMaxCurvatureFlow</text>
<text text-anchor="start" x="1788.5" y="-198.5" font-family="Helvetica,sans-Serif" font-size="10.00">ImageFilter&lt; TInputImage,</text>
<text text-anchor="middle" x="1854.5" y="-187.5" font-family="Helvetica,sans-Serif" font-size="10.00"> TOutputImage &gt;</text>
</a>
</g>
</g>
<!-- Node34&#45;&gt;Node35 -->
<g id="edge34" class="edge">
<title>Node34&#45;&gt;Node35</title>
<path fill="none" stroke="midnightblue" d="M1716.69,-217.37C1738.03,-214.82 1760.27,-212.16 1780.47,-209.74"/>
<polygon fill="midnightblue" stroke="midnightblue" points="1716.15,-213.91 1706.63,-218.57 1716.98,-220.86 1716.15,-213.91"/>
</g>
<!-- Node36 -->
<g id="node36" class="node">
<title>Node36</title>
<g id="a_node36"><a xlink:href="classitk_1_1BinaryMinMaxCurvatureFlowImageFilter.html" target="_top" xlink:title="Denoise a binary image using min/max curvature flow.">
<polygon fill="white" stroke="black" points="2026,-180.5 2026,-221.5 2197,-221.5 2197,-180.5 2026,-180.5"/>
<text text-anchor="start" x="2034" y="-209.5" font-family="Helvetica,sans-Serif" font-size="10.00">itk::BinaryMinMaxCurvature</text>
<text text-anchor="start" x="2034" y="-198.5" font-family="Helvetica,sans-Serif" font-size="10.00">FlowImageFilter&lt; TInputImage,</text>
<text text-anchor="middle" x="2111.5" y="-187.5" font-family="Helvetica,sans-Serif" font-size="10.00"> TOutputImage &gt;</text>
</a>
</g>
</g>
<!-- Node35&#45;&gt;Node36 -->
<g id="edge35" class="edge">
<title>Node35&#45;&gt;Node36</title>
<path fill="none" stroke="midnightblue" d="M1938.69,-201C1966.58,-201 1997.7,-201 2025.71,-201"/>
<polygon fill="midnightblue" stroke="midnightblue" points="1938.57,-197.5 1928.57,-201 1938.57,-204.5 1938.57,-197.5"/>
</g>
<!-- Node40 -->
<g id="node40" class="node">
<title>Node40</title>
<g id="a_node40"><a xlink:href="classitk_1_1AntiAliasBinaryImageFilter.html" target="_top" xlink:title="A method for estimation of a surface from a binary volume.">
<polygon fill="white" stroke="black" points="1518,-161 1518,-191 1719,-191 1719,-161 1518,-161"/>
<text text-anchor="start" x="1526" y="-179" font-family="Helvetica,sans-Serif" font-size="10.00">itk::AntiAliasBinaryImage</text>
<text text-anchor="middle" x="1618.5" y="-168" font-family="Helvetica,sans-Serif" font-size="10.00">Filter&lt; TInputImage, TOutputImage &gt;</text>
</a>
</g>
</g>
<!-- Node39&#45;&gt;Node40 -->
<g id="edge39" class="edge">
<title>Node39&#45;&gt;Node40</title>
<path fill="none" stroke="midnightblue" d="M1466.43,-176C1483.05,-176 1500.65,-176 1517.74,-176"/>
<polygon fill="midnightblue" stroke="midnightblue" points="1466.23,-172.5 1456.23,-176 1466.23,-179.5 1466.23,-172.5"/>
</g>
<!-- Node41 -->
<g id="node41" class="node">
<title>Node41</title>
<g id="a_node41"><a xlink:href="classitk_1_1SparseFieldFourthOrderLevelSetImageFilter.html" target="_top" xlink:title="This class implements the fourth order level set PDE framework.">
<polygon fill="white" stroke="black" points="1523.5,-92.5 1523.5,-133.5 1713.5,-133.5 1713.5,-92.5 1523.5,-92.5"/>
<text text-anchor="start" x="1531.5" y="-121.5" font-family="Helvetica,sans-Serif" font-size="10.00">itk::SparseFieldFourthOrder</text>
<text text-anchor="start" x="1531.5" y="-110.5" font-family="Helvetica,sans-Serif" font-size="10.00">LevelSetImageFilter&lt; TInputImage,</text>
<text text-anchor="middle" x="1618.5" y="-99.5" font-family="Helvetica,sans-Serif" font-size="10.00"> TOutputImage &gt;</text>
</a>
</g>
</g>
<!-- Node39&#45;&gt;Node41 -->
<g id="edge40" class="edge">
<title>Node39&#45;&gt;Node41</title>
<path fill="none" stroke="midnightblue" d="M1466.19,-153.65C1490.62,-147.09 1517.2,-139.95 1541.18,-133.5"/>
<polygon fill="midnightblue" stroke="midnightblue" points="1464.98,-150.35 1456.23,-156.33 1466.8,-157.11 1464.98,-150.35"/>
</g>
<!-- Node42 -->
<g id="node42" class="node">
<title>Node42</title>
<g id="a_node42"><a xlink:href="classitk_1_1AnisotropicFourthOrderLevelSetImageFilter.html" target="_top" xlink:title="This class implements the 4th&#45;order level set anisotropic diffusion (smoothing) PDE.">
<polygon fill="white" stroke="black" points="1759.5,-120.5 1759.5,-161.5 1949.5,-161.5 1949.5,-120.5 1759.5,-120.5"/>
<text text-anchor="start" x="1767.5" y="-149.5" font-family="Helvetica,sans-Serif" font-size="10.00">itk::AnisotropicFourthOrder</text>
<text text-anchor="start" x="1767.5" y="-138.5" font-family="Helvetica,sans-Serif" font-size="10.00">LevelSetImageFilter&lt; TInputImage,</text>
<text text-anchor="middle" x="1854.5" y="-127.5" font-family="Helvetica,sans-Serif" font-size="10.00"> TOutputImage &gt;</text>
</a>
</g>
</g>
<!-- Node41&#45;&gt;Node42 -->
<g id="edge41" class="edge">
<title>Node41&#45;&gt;Node42</title>
<path fill="none" stroke="midnightblue" d="M1723.92,-125.49C1735.65,-126.9 1747.55,-128.32 1759.15,-129.71"/>
<polygon fill="midnightblue" stroke="midnightblue" points="1724.01,-121.98 1713.67,-124.27 1723.18,-128.93 1724.01,-121.98"/>
</g>
<!-- Node43 -->
<g id="node43" class="node">
<title>Node43</title>
<g id="a_node43"><a xlink:href="classitk_1_1IsotropicFourthOrderLevelSetImageFilter.html" target="_top" xlink:title="This class implements the 4th&#45;order level set isotropic diffusion (smoothing) PDE.">
<polygon fill="white" stroke="black" points="1759.5,-60.5 1759.5,-101.5 1949.5,-101.5 1949.5,-60.5 1759.5,-60.5"/>
<text text-anchor="start" x="1767.5" y="-89.5" font-family="Helvetica,sans-Serif" font-size="10.00">itk::IsotropicFourthOrder</text>
<text text-anchor="start" x="1767.5" y="-78.5" font-family="Helvetica,sans-Serif" font-size="10.00">LevelSetImageFilter&lt; TInputImage,</text>
<text text-anchor="middle" x="1854.5" y="-67.5" font-family="Helvetica,sans-Serif" font-size="10.00"> TOutputImage &gt;</text>
</a>
</g>
</g>
<!-- Node41&#45;&gt;Node43 -->
<g id="edge42" class="edge">
<title>Node41&#45;&gt;Node43</title>
<path fill="none" stroke="midnightblue" d="M1723.92,-98.72C1735.65,-97.12 1747.55,-95.49 1759.15,-93.9"/>
<polygon fill="midnightblue" stroke="midnightblue" points="1723.1,-95.3 1713.67,-100.12 1724.05,-102.24 1723.1,-95.3"/>
</g>
<!-- Node44 -->
<g id="node44" class="node">
<title>Node44</title>
<g id="a_node44"><a xlink:href="classitk_1_1UnsharpMaskLevelSetImageFilter.html" target="_top" xlink:title="This class implements a detail enhancing filter by making use of the 4th&#45;order level set isotropic di...">
<polygon fill="white" stroke="black" points="1780.5,-0.5 1780.5,-41.5 1928.5,-41.5 1928.5,-0.5 1780.5,-0.5"/>
<text text-anchor="start" x="1788.5" y="-29.5" font-family="Helvetica,sans-Serif" font-size="10.00">itk::UnsharpMaskLevelSet</text>
<text text-anchor="start" x="1788.5" y="-18.5" font-family="Helvetica,sans-Serif" font-size="10.00">ImageFilter&lt; TInputImage,</text>
<text text-anchor="middle" x="1854.5" y="-7.5" font-family="Helvetica,sans-Serif" font-size="10.00"> TOutputImage &gt;</text>
</a>
</g>
</g>
<!-- Node41&#45;&gt;Node44 -->
<g id="edge43" class="edge">
<title>Node41&#45;&gt;Node44</title>
<path fill="none" stroke="midnightblue" d="M1670.05,-87.92C1695.24,-75.93 1726.36,-61.86 1755,-51 1763.69,-47.7 1772.92,-44.51 1782.1,-41.51"/>
<polygon fill="midnightblue" stroke="midnightblue" points="1668.2,-84.93 1660.7,-92.41 1671.23,-91.24 1668.2,-84.93"/>
</g>
</g>
</svg>
