<?xml version="1.0" encoding="UTF-8" standalone="no"?>
<!DOCTYPE svg PUBLIC "-//W3C//DTD SVG 1.1//EN"
 "http://www.w3.org/Graphics/SVG/1.1/DTD/svg11.dtd">
<!-- Generated by graphviz version 2.43.0 (0)
 -->
<!-- Title: itk::Point&lt; TCoordinate, VPointDimension &gt; Pages: 1 -->
<svg width="188pt" height="163pt"
 viewBox="0.00 0.00 188.00 163.00" xmlns="http://www.w3.org/2000/svg" xmlns:xlink="http://www.w3.org/1999/xlink">
<g id="graph0" class="graph" transform="scale(1 1) rotate(0) translate(4 159)">
<title>itk::Point&lt; TCoordinate, VPointDimension &gt;</title>
<polygon fill="white" stroke="transparent" points="-4,4 -4,-159 184,-159 184,4 -4,4"/>
<!-- Node1 -->
<g id="node1" class="node">
<title>Node1</title>
<g id="a_node1"><a xlink:title="A templated class holding a geometric point in n&#45;Dimensional space.">
<polygon fill="#bfbfbf" stroke="black" points="23.5,-0.5 23.5,-30.5 156.5,-30.5 156.5,-0.5 23.5,-0.5"/>
<text text-anchor="start" x="31.5" y="-18.5" font-family="Helvetica,sans-Serif" font-size="10.00">itk::Point&lt; TCoordinate,</text>
<text text-anchor="middle" x="90" y="-7.5" font-family="Helvetica,sans-Serif" font-size="10.00"> VPointDimension &gt;</text>
</a>
</g>
</g>
<!-- Node2 -->
<g id="node2" class="node">
<title>Node2</title>
<g id="a_node2"><a xlink:href="classitk_1_1FixedArray.html" target="_top" xlink:title=" ">
<polygon fill="white" stroke="black" points="0,-68.5 0,-87.5 180,-87.5 180,-68.5 0,-68.5"/>
<text text-anchor="middle" x="90" y="-75.5" font-family="Helvetica,sans-Serif" font-size="10.00">itk::FixedArray&lt; TCoordinate, 3 &gt;</text>
</a>
</g>
</g>
<!-- Node2&#45;&gt;Node1 -->
<g id="edge1" class="edge">
<title>Node2&#45;&gt;Node1</title>
<path fill="none" stroke="midnightblue" d="M90,-58.22C90,-49.36 90,-38.96 90,-30.76"/>
<polygon fill="midnightblue" stroke="midnightblue" points="86.5,-58.33 90,-68.33 93.5,-58.33 86.5,-58.33"/>
</g>
<!-- Node3 -->
<g id="node3" class="node">
<title>Node3</title>
<g id="a_node3"><a xlink:href="classVLength.html" target="_top" xlink:title=" ">
<polygon fill="white" stroke="black" points="62,-135.5 62,-154.5 118,-154.5 118,-135.5 62,-135.5"/>
<text text-anchor="middle" x="90" y="-142.5" font-family="Helvetica,sans-Serif" font-size="10.00">VLength</text>
</a>
</g>
</g>
<!-- Node3&#45;&gt;Node2 -->
<g id="edge2" class="edge">
<title>Node3&#45;&gt;Node2</title>
<path fill="none" stroke="#9a32cd" stroke-dasharray="5,2" d="M90,-125.04C90,-112.67 90,-97.12 90,-87.63"/>
<polygon fill="#9a32cd" stroke="#9a32cd" points="86.5,-125.23 90,-135.23 93.5,-125.23 86.5,-125.23"/>
<text text-anchor="middle" x="131" y="-109" font-family="Helvetica,sans-Serif" font-size="10.00"> m_InternalArray</text>
</g>
</g>
</svg>
