<?xml version="1.0" encoding="UTF-8" standalone="no"?>
<!DOCTYPE svg PUBLIC "-//W3C//DTD SVG 1.1//EN"
 "http://www.w3.org/Graphics/SVG/1.1/DTD/svg11.dtd">
<!-- Generated by graphviz version 2.43.0 (0)
 -->
<!-- Title: itk::VectorImageToImageAdaptor&lt; TPixelType, Dimension &gt; Pages: 1 -->
<svg width="1716pt" height="104pt"
 viewBox="0.00 0.00 1716.00 103.50" xmlns="http://www.w3.org/2000/svg" xmlns:xlink="http://www.w3.org/1999/xlink">
<g id="graph0" class="graph" transform="scale(1 1) rotate(0) translate(4 99.5)">
<title>itk::VectorImageToImageAdaptor&lt; TPixelType, Dimension &gt;</title>
<polygon fill="white" stroke="transparent" points="-4,4 -4,-99.5 1712,-99.5 1712,4 -4,4"/>
<!-- Node1 -->
<g id="node1" class="node">
<title>Node1</title>
<g id="a_node1"><a xlink:title="Presents a VectorImage and extracts a component from it into an image.">
<polygon fill="#bfbfbf" stroke="black" points="1532,-29.5 1532,-59.5 1708,-59.5 1708,-29.5 1532,-29.5"/>
<text text-anchor="start" x="1540" y="-47.5" font-family="Helvetica,sans-Serif" font-size="10.00">itk::VectorImageToImageAdaptor</text>
<text text-anchor="middle" x="1620" y="-36.5" font-family="Helvetica,sans-Serif" font-size="10.00">&lt; TPixelType, Dimension &gt;</text>
</a>
</g>
</g>
<!-- Node2 -->
<g id="node2" class="node">
<title>Node2</title>
<g id="a_node2"><a xlink:href="classitk_1_1ImageAdaptor.html" target="_top" xlink:title=" ">
<polygon fill="white" stroke="black" points="1303,-13 1303,-76 1495,-76 1495,-13 1303,-13"/>
<text text-anchor="start" x="1311" y="-64" font-family="Helvetica,sans-Serif" font-size="10.00">itk::ImageAdaptor&lt;</text>
<text text-anchor="start" x="1311" y="-53" font-family="Helvetica,sans-Serif" font-size="10.00"> VectorImage&lt; TPixelType,</text>
<text text-anchor="start" x="1311" y="-42" font-family="Helvetica,sans-Serif" font-size="10.00"> Dimension &gt;, Accessor</text>
<text text-anchor="start" x="1311" y="-31" font-family="Helvetica,sans-Serif" font-size="10.00">::VectorImageToImagePixelAccessor</text>
<text text-anchor="middle" x="1399" y="-20" font-family="Helvetica,sans-Serif" font-size="10.00">&lt; TPixelType &gt; &gt;</text>
</a>
</g>
</g>
<!-- Node2&#45;&gt;Node1 -->
<g id="edge1" class="edge">
<title>Node2&#45;&gt;Node1</title>
<path fill="none" stroke="midnightblue" d="M1505.18,-44.5C1514.13,-44.5 1523.13,-44.5 1531.92,-44.5"/>
<polygon fill="midnightblue" stroke="midnightblue" points="1505.1,-41 1495.1,-44.5 1505.1,-48 1505.1,-41"/>
</g>
<!-- Node3 -->
<g id="node3" class="node">
<title>Node3</title>
<g id="a_node3"><a xlink:href="classitk_1_1ImageBase.html" target="_top" xlink:title=" ">
<polygon fill="white" stroke="black" points="769,-54 769,-95 932,-95 932,-54 769,-54"/>
<text text-anchor="start" x="777" y="-83" font-family="Helvetica,sans-Serif" font-size="10.00">itk::ImageBase&lt; VectorImage</text>
<text text-anchor="start" x="777" y="-72" font-family="Helvetica,sans-Serif" font-size="10.00">&lt; TPixelType, Dimension</text>
<text text-anchor="middle" x="850.5" y="-61" font-family="Helvetica,sans-Serif" font-size="10.00"> &gt; ::ImageDimension &gt;</text>
</a>
</g>
</g>
<!-- Node3&#45;&gt;Node2 -->
<g id="edge2" class="edge">
<title>Node3&#45;&gt;Node2</title>
<path fill="none" stroke="midnightblue" d="M942.55,-74.42C1030.39,-73.67 1167.02,-70.73 1285,-60.5 1290.82,-60 1296.8,-59.39 1302.83,-58.73"/>
<polygon fill="midnightblue" stroke="midnightblue" points="942.32,-70.92 932.35,-74.5 942.38,-77.92 942.32,-70.92"/>
</g>
<!-- Node4 -->
<g id="node4" class="node">
<title>Node4</title>
<g id="a_node4"><a xlink:href="classitk_1_1DataObject.html" target="_top" xlink:title="Base class for all data objects in ITK.">
<polygon fill="white" stroke="black" points="232,-38 232,-57 322,-57 322,-38 232,-38"/>
<text text-anchor="middle" x="277" y="-45" font-family="Helvetica,sans-Serif" font-size="10.00">itk::DataObject</text>
</a>
</g>
</g>
<!-- Node4&#45;&gt;Node3 -->
<g id="edge3" class="edge">
<title>Node4&#45;&gt;Node3</title>
<path fill="none" stroke="midnightblue" d="M323.52,-59.39C335.03,-62.07 347.42,-64.65 359,-66.5 531.25,-93.96 576.84,-95.19 751,-85.5 756.84,-85.17 762.87,-84.74 768.93,-84.24"/>
<polygon fill="midnightblue" stroke="midnightblue" points="324.21,-55.96 313.67,-57.04 322.58,-62.77 324.21,-55.96"/>
</g>
<!-- Node7 -->
<g id="node7" class="node">
<title>Node7</title>
<g id="a_node7"><a xlink:href="classitk_1_1ImageBase.html" target="_top" xlink:title="Base class for templated image classes.">
<polygon fill="white" stroke="black" points="359,-38 359,-57 562,-57 562,-38 359,-38"/>
<text text-anchor="middle" x="460.5" y="-45" font-family="Helvetica,sans-Serif" font-size="10.00">itk::ImageBase&lt; VImageDimension &gt;</text>
</a>
</g>
</g>
<!-- Node4&#45;&gt;Node7 -->
<g id="edge7" class="edge">
<title>Node4&#45;&gt;Node7</title>
<path fill="none" stroke="midnightblue" d="M332.44,-47.5C340.89,-47.5 349.85,-47.5 358.94,-47.5"/>
<polygon fill="midnightblue" stroke="midnightblue" points="332.4,-44 322.4,-47.5 332.4,-51 332.4,-44"/>
</g>
<!-- Node9 -->
<g id="node9" class="node">
<title>Node9</title>
<g id="a_node9"><a xlink:href="classitk_1_1ImageBase.html" target="_top" xlink:title=" ">
<polygon fill="white" stroke="black" points="781.5,-0.5 781.5,-30.5 919.5,-30.5 919.5,-0.5 781.5,-0.5"/>
<text text-anchor="start" x="789.5" y="-18.5" font-family="Helvetica,sans-Serif" font-size="10.00">itk::ImageBase&lt; TImage</text>
<text text-anchor="middle" x="850.5" y="-7.5" font-family="Helvetica,sans-Serif" font-size="10.00">::ImageDimension &gt;</text>
</a>
</g>
</g>
<!-- Node4&#45;&gt;Node9 -->
<g id="edge10" class="edge">
<title>Node4&#45;&gt;Node9</title>
<path fill="none" stroke="midnightblue" d="M321.79,-35.59C333.77,-32.78 346.81,-30.13 359,-28.5 508.65,-8.43 686.21,-9.92 781.29,-12.74"/>
<polygon fill="midnightblue" stroke="midnightblue" points="320.9,-32.2 312.02,-37.97 322.56,-39.01 320.9,-32.2"/>
</g>
<!-- Node5 -->
<g id="node5" class="node">
<title>Node5</title>
<g id="a_node5"><a xlink:href="classitk_1_1Object.html" target="_top" xlink:title="Base class for most ITK classes.">
<polygon fill="white" stroke="black" points="128,-38 128,-57 195,-57 195,-38 128,-38"/>
<text text-anchor="middle" x="161.5" y="-45" font-family="Helvetica,sans-Serif" font-size="10.00">itk::Object</text>
</a>
</g>
</g>
<!-- Node5&#45;&gt;Node4 -->
<g id="edge4" class="edge">
<title>Node5&#45;&gt;Node4</title>
<path fill="none" stroke="midnightblue" d="M205.25,-47.5C213.87,-47.5 222.95,-47.5 231.63,-47.5"/>
<polygon fill="midnightblue" stroke="midnightblue" points="205.02,-44 195.02,-47.5 205.02,-51 205.02,-44"/>
</g>
<!-- Node6 -->
<g id="node6" class="node">
<title>Node6</title>
<g id="a_node6"><a xlink:href="classitk_1_1LightObject.html" target="_top" xlink:title="Light weight base class for most itk classes.">
<polygon fill="white" stroke="black" points="0,-38 0,-57 91,-57 91,-38 0,-38"/>
<text text-anchor="middle" x="45.5" y="-45" font-family="Helvetica,sans-Serif" font-size="10.00">itk::LightObject</text>
</a>
</g>
</g>
<!-- Node6&#45;&gt;Node5 -->
<g id="edge5" class="edge">
<title>Node6&#45;&gt;Node5</title>
<path fill="none" stroke="midnightblue" d="M101.39,-47.5C110.45,-47.5 119.59,-47.5 127.88,-47.5"/>
<polygon fill="midnightblue" stroke="midnightblue" points="101.23,-44 91.23,-47.5 101.23,-51 101.23,-44"/>
</g>
<!-- Node7&#45;&gt;Node3 -->
<g id="edge6" class="edge">
<title>Node7&#45;&gt;Node3</title>
<path fill="none" stroke="orange" stroke-dasharray="5,2" d="M572.36,-52.17C626.31,-54.81 692.09,-58.59 751,-63.5 756.83,-63.99 762.85,-64.54 768.9,-65.13"/>
<polygon fill="orange" stroke="orange" points="572.24,-48.66 562.08,-51.67 571.9,-55.65 572.24,-48.66"/>
<text text-anchor="start" x="580" y="-77.5" font-family="Helvetica,sans-Serif" font-size="10.00"> &lt; VectorImage&lt; TPixelType,</text>
<text text-anchor="middle" x="665.5" y="-66.5" font-family="Helvetica,sans-Serif" font-size="10.00"> Dimension &gt; ::ImageDimension &gt;</text>
</g>
<!-- Node7&#45;&gt;Node9 -->
<g id="edge11" class="edge">
<title>Node7&#45;&gt;Node9</title>
<path fill="none" stroke="orange" stroke-dasharray="5,2" d="M572.42,-38.35C639.79,-32.8 723.64,-25.88 781.35,-21.12"/>
<polygon fill="orange" stroke="orange" points="571.86,-34.89 562.18,-39.2 572.43,-41.86 571.86,-34.89"/>
<text text-anchor="middle" x="665.5" y="-40.5" font-family="Helvetica,sans-Serif" font-size="10.00"> &lt; TImage::ImageDimension &gt;</text>
</g>
<!-- Node8 -->
<g id="node8" class="node">
<title>Node8</title>
<g id="a_node8"><a xlink:href="classitk_1_1ImageAdaptor.html" target="_top" xlink:title="Give access to partial aspects of voxels from an Image.">
<polygon fill="white" stroke="black" points="969,-0.5 969,-30.5 1091,-30.5 1091,-0.5 969,-0.5"/>
<text text-anchor="start" x="977" y="-18.5" font-family="Helvetica,sans-Serif" font-size="10.00">itk::ImageAdaptor&lt;</text>
<text text-anchor="middle" x="1030" y="-7.5" font-family="Helvetica,sans-Serif" font-size="10.00"> TImage, TAccessor &gt;</text>
</a>
</g>
</g>
<!-- Node8&#45;&gt;Node2 -->
<g id="edge8" class="edge">
<title>Node8&#45;&gt;Node2</title>
<path fill="none" stroke="orange" stroke-dasharray="5,2" d="M1101.33,-11.29C1152.47,-9.32 1223.28,-8.84 1285,-16.5 1290.82,-17.22 1296.77,-18.14 1302.74,-19.2"/>
<polygon fill="orange" stroke="orange" points="1100.89,-7.81 1091.04,-11.72 1101.18,-14.8 1100.89,-7.81"/>
<text text-anchor="start" x="1109" y="-52.5" font-family="Helvetica,sans-Serif" font-size="10.00"> &lt; VectorImage&lt; TPixelType,</text>
<text text-anchor="start" x="1109" y="-41.5" font-family="Helvetica,sans-Serif" font-size="10.00"> Dimension &gt;, Accessor</text>
<text text-anchor="start" x="1109" y="-30.5" font-family="Helvetica,sans-Serif" font-size="10.00">::VectorImageToImagePixelAccessor</text>
<text text-anchor="middle" x="1197" y="-19.5" font-family="Helvetica,sans-Serif" font-size="10.00">&lt; TPixelType &gt; &gt;</text>
</g>
<!-- Node9&#45;&gt;Node8 -->
<g id="edge9" class="edge">
<title>Node9&#45;&gt;Node8</title>
<path fill="none" stroke="midnightblue" d="M930,-15.5C943.04,-15.5 956.39,-15.5 968.89,-15.5"/>
<polygon fill="midnightblue" stroke="midnightblue" points="929.62,-12 919.62,-15.5 929.62,-19 929.62,-12"/>
</g>
</g>
</svg>
