<?xml version="1.0" encoding="UTF-8" standalone="no"?>
<!DOCTYPE svg PUBLIC "-//W3C//DTD SVG 1.1//EN"
 "http://www.w3.org/Graphics/SVG/1.1/DTD/svg11.dtd">
<!-- Generated by graphviz version 2.43.0 (0)
 -->
<!-- Title: itk::LineSpatialObject&lt; TDimension &gt; Pages: 1 -->
<svg width="2684pt" height="709pt"
 viewBox="0.00 0.00 2684.00 708.50" xmlns="http://www.w3.org/2000/svg" xmlns:xlink="http://www.w3.org/1999/xlink">
<g id="graph0" class="graph" transform="scale(1 1) rotate(0) translate(4 704.5)">
<title>itk::LineSpatialObject&lt; TDimension &gt;</title>
<polygon fill="white" stroke="transparent" points="-4,4 -4,-704.5 2680,-704.5 2680,4 -4,4"/>
<!-- Node1 -->
<g id="node1" class="node">
<title>Node1</title>
<g id="a_node1"><a xlink:title="Representation of a Line based on the spatial object classes.">
<polygon fill="#bfbfbf" stroke="black" points="2555,-207.5 2555,-237.5 2676,-237.5 2676,-207.5 2555,-207.5"/>
<text text-anchor="start" x="2563" y="-225.5" font-family="Helvetica,sans-Serif" font-size="10.00">itk::LineSpatialObject</text>
<text text-anchor="middle" x="2615.5" y="-214.5" font-family="Helvetica,sans-Serif" font-size="10.00">&lt; TDimension &gt;</text>
</a>
</g>
</g>
<!-- Node2 -->
<g id="node2" class="node">
<title>Node2</title>
<g id="a_node2"><a xlink:href="classitk_1_1PointBasedSpatialObject.html" target="_top" xlink:title=" ">
<polygon fill="white" stroke="black" points="2328,-207.5 2328,-237.5 2518,-237.5 2518,-207.5 2328,-207.5"/>
<text text-anchor="start" x="2336" y="-225.5" font-family="Helvetica,sans-Serif" font-size="10.00">itk::PointBasedSpatialObject</text>
<text text-anchor="middle" x="2423" y="-214.5" font-family="Helvetica,sans-Serif" font-size="10.00">&lt; 3, LineSpatialObjectPoint&lt; 3 &gt; &gt;</text>
</a>
</g>
</g>
<!-- Node2&#45;&gt;Node1 -->
<g id="edge1" class="edge">
<title>Node2&#45;&gt;Node1</title>
<path fill="none" stroke="midnightblue" d="M2528.35,-222.5C2537.37,-222.5 2546.28,-222.5 2554.76,-222.5"/>
<polygon fill="midnightblue" stroke="midnightblue" points="2528.13,-219 2518.13,-222.5 2528.13,-226 2528.13,-219"/>
</g>
<!-- Node3 -->
<g id="node3" class="node">
<title>Node3</title>
<g id="a_node3"><a xlink:href="classitk_1_1SpatialObject.html" target="_top" xlink:title=" ">
<polygon fill="white" stroke="black" points="2120,-243.5 2120,-273.5 2221,-273.5 2221,-243.5 2120,-243.5"/>
<text text-anchor="start" x="2128" y="-261.5" font-family="Helvetica,sans-Serif" font-size="10.00">itk::SpatialObject</text>
<text text-anchor="middle" x="2170.5" y="-250.5" font-family="Helvetica,sans-Serif" font-size="10.00">&lt; TDimension &gt;</text>
</a>
</g>
</g>
<!-- Node3&#45;&gt;Node2 -->
<g id="edge2" class="edge">
<title>Node3&#45;&gt;Node2</title>
<path fill="none" stroke="midnightblue" d="M2231.23,-249.92C2260.14,-245.76 2295.53,-240.68 2327.95,-236.02"/>
<polygon fill="midnightblue" stroke="midnightblue" points="2230.69,-246.46 2221.29,-251.34 2231.69,-253.39 2230.69,-246.46"/>
</g>
<!-- Node4 -->
<g id="node4" class="node">
<title>Node4</title>
<g id="a_node4"><a xlink:href="classitk_1_1DataObject.html" target="_top" xlink:title="Base class for all data objects in ITK.">
<polygon fill="white" stroke="black" points="1589,-473 1589,-492 1679,-492 1679,-473 1589,-473"/>
<text text-anchor="middle" x="1634" y="-480" font-family="Helvetica,sans-Serif" font-size="10.00">itk::DataObject</text>
</a>
</g>
</g>
<!-- Node4&#45;&gt;Node3 -->
<g id="edge3" class="edge">
<title>Node4&#45;&gt;Node3</title>
<path fill="none" stroke="midnightblue" d="M1689.39,-486.77C1778.91,-491.03 1959.36,-487.61 2080,-405.5 2128.41,-372.55 2155.16,-303.89 2165.03,-273.51"/>
<polygon fill="midnightblue" stroke="midnightblue" points="1689.36,-483.27 1679.19,-486.24 1689,-490.26 1689.36,-483.27"/>
</g>
<!-- Node28 -->
<g id="node28" class="node">
<title>Node28</title>
<g id="a_node28"><a xlink:href="classitk_1_1SpatialObject.html" target="_top" xlink:title="Implementation of the composite pattern.">
<polygon fill="white" stroke="black" points="1899.5,-183.5 1899.5,-213.5 2000.5,-213.5 2000.5,-183.5 1899.5,-183.5"/>
<text text-anchor="start" x="1907.5" y="-201.5" font-family="Helvetica,sans-Serif" font-size="10.00">itk::SpatialObject</text>
<text text-anchor="middle" x="1950" y="-190.5" font-family="Helvetica,sans-Serif" font-size="10.00">&lt; VDimension &gt;</text>
</a>
</g>
</g>
<!-- Node4&#45;&gt;Node28 -->
<g id="edge35" class="edge">
<title>Node4&#45;&gt;Node28</title>
<path fill="none" stroke="midnightblue" d="M1655,-466.07C1673.39,-450.85 1701.32,-427.47 1725,-406.5 1766.42,-369.82 1888.96,-254.91 1933,-213.54"/>
<polygon fill="midnightblue" stroke="midnightblue" points="1652.29,-463.77 1646.8,-472.84 1656.74,-469.17 1652.29,-463.77"/>
</g>
<!-- Node5 -->
<g id="node5" class="node">
<title>Node5</title>
<g id="a_node5"><a xlink:href="classitk_1_1Object.html" target="_top" xlink:title="Base class for most ITK classes.">
<polygon fill="white" stroke="black" points="1287,-560 1287,-579 1354,-579 1354,-560 1287,-560"/>
<text text-anchor="middle" x="1320.5" y="-567" font-family="Helvetica,sans-Serif" font-size="10.00">itk::Object</text>
</a>
</g>
</g>
<!-- Node5&#45;&gt;Node4 -->
<g id="edge4" class="edge">
<title>Node5&#45;&gt;Node4</title>
<path fill="none" stroke="midnightblue" d="M1364.4,-562.36C1405.95,-554.95 1470.5,-542.12 1525,-525.5 1555.89,-516.08 1590.35,-501.64 1611.86,-492.13"/>
<polygon fill="midnightblue" stroke="midnightblue" points="1363.6,-558.95 1354.35,-564.13 1364.81,-565.85 1363.6,-558.95"/>
</g>
<!-- Node6 -->
<g id="node6" class="node">
<title>Node6</title>
<g id="a_node6"><a xlink:href="classitk_1_1LightObject.html" target="_top" xlink:title="Light weight base class for most itk classes.">
<polygon fill="white" stroke="black" points="941,-575 941,-594 1032,-594 1032,-575 941,-575"/>
<text text-anchor="middle" x="986.5" y="-582" font-family="Helvetica,sans-Serif" font-size="10.00">itk::LightObject</text>
</a>
</g>
</g>
<!-- Node6&#45;&gt;Node5 -->
<g id="edge5" class="edge">
<title>Node6&#45;&gt;Node5</title>
<path fill="none" stroke="midnightblue" d="M1042.61,-582.01C1112.32,-578.86 1230.08,-573.54 1286.9,-570.97"/>
<polygon fill="midnightblue" stroke="midnightblue" points="1042.11,-578.53 1032.27,-582.48 1042.42,-585.52 1042.11,-578.53"/>
</g>
<!-- Node7 -->
<g id="node7" class="node">
<title>Node7</title>
<g id="a_node7"><a xlink:title=" ">
<polygon fill="white" stroke="black" points="655.5,-575 655.5,-594 762.5,-594 762.5,-575 655.5,-575"/>
<text text-anchor="middle" x="709" y="-582" font-family="Helvetica,sans-Serif" font-size="10.00">std::atomic&lt; int &gt;</text>
</a>
</g>
</g>
<!-- Node7&#45;&gt;Node6 -->
<g id="edge6" class="edge">
<title>Node7&#45;&gt;Node6</title>
<path fill="none" stroke="#9a32cd" stroke-dasharray="5,2" d="M773.07,-584.5C824.24,-584.5 895.1,-584.5 940.63,-584.5"/>
<polygon fill="#9a32cd" stroke="#9a32cd" points="772.79,-581 762.79,-584.5 772.79,-588 772.79,-581"/>
<text text-anchor="middle" x="842.5" y="-587.5" font-family="Helvetica,sans-Serif" font-size="10.00"> m_ReferenceCount</text>
</g>
<!-- Node8 -->
<g id="node8" class="node">
<title>Node8</title>
<g id="a_node8"><a xlink:href="classitk_1_1TimeStamp.html" target="_top" xlink:title="Generate a unique, increasing time value.">
<polygon fill="white" stroke="black" points="940.5,-613 940.5,-632 1032.5,-632 1032.5,-613 940.5,-613"/>
<text text-anchor="middle" x="986.5" y="-620" font-family="Helvetica,sans-Serif" font-size="10.00">itk::TimeStamp</text>
</a>
</g>
</g>
<!-- Node8&#45;&gt;Node4 -->
<g id="edge21" class="edge">
<title>Node8&#45;&gt;Node4</title>
<path fill="none" stroke="#9a32cd" stroke-dasharray="5,2" d="M1042.74,-634.58C1050.02,-636.86 1057.28,-639.49 1064,-642.5 1072.77,-646.44 1072.8,-651.71 1082,-654.5 1138.57,-671.63 1156.66,-664.02 1215,-654.5 1358.43,-631.08 1393.69,-612.77 1525,-550.5 1561.24,-533.32 1600.22,-506.44 1619.95,-492.17"/>
<polygon fill="#9a32cd" stroke="#9a32cd" points="1043.43,-631.14 1032.85,-631.7 1041.48,-637.86 1043.43,-631.14"/>
<text text-anchor="middle" x="1320.5" y="-653.5" font-family="Helvetica,sans-Serif" font-size="10.00"> m_UpdateMTime</text>
</g>
<!-- Node8&#45;&gt;Node5 -->
<g id="edge7" class="edge">
<title>Node8&#45;&gt;Node5</title>
<path fill="none" stroke="#9a32cd" stroke-dasharray="5,2" d="M1042.91,-613.8C1088.98,-606.55 1156.27,-595.92 1215,-586.5 1238.96,-582.66 1265.99,-578.26 1286.56,-574.9"/>
<polygon fill="#9a32cd" stroke="#9a32cd" points="1042.17,-610.37 1032.83,-615.39 1043.25,-617.29 1042.17,-610.37"/>
<text text-anchor="middle" x="1148.5" y="-609.5" font-family="Helvetica,sans-Serif" font-size="10.00"> m_MTime</text>
</g>
<!-- Node9 -->
<g id="node9" class="node">
<title>Node9</title>
<g id="a_node9"><a xlink:title=" ">
<polygon fill="white" stroke="black" points="233,-613 233,-632 333,-632 333,-613 233,-613"/>
<text text-anchor="middle" x="283" y="-620" font-family="Helvetica,sans-Serif" font-size="10.00">std::atomic&lt; T &gt;</text>
</a>
</g>
</g>
<!-- Node9&#45;&gt;Node8 -->
<g id="edge8" class="edge">
<title>Node9&#45;&gt;Node8</title>
<path fill="none" stroke="#9a32cd" stroke-dasharray="5,2" d="M343.37,-622.5C480.73,-622.5 818.04,-622.5 940.31,-622.5"/>
<polygon fill="#9a32cd" stroke="#9a32cd" points="343.05,-619 333.05,-622.5 343.05,-626 343.05,-619"/>
<text text-anchor="middle" x="571" y="-625.5" font-family="Helvetica,sans-Serif" font-size="10.00"> m_GlobalTimeStamp</text>
</g>
<!-- Node10 -->
<g id="node10" class="node">
<title>Node10</title>
<g id="a_node10"><a xlink:title=" ">
<polygon fill="white" stroke="black" points="0,-628 0,-647 29,-647 29,-628 0,-628"/>
<text text-anchor="middle" x="14.5" y="-635" font-family="Helvetica,sans-Serif" font-size="10.00">T</text>
</a>
</g>
</g>
<!-- Node10&#45;&gt;Node9 -->
<g id="edge9" class="edge">
<title>Node10&#45;&gt;Node9</title>
<path fill="none" stroke="#9a32cd" stroke-dasharray="5,2" d="M39.03,-630.08C41.7,-629.45 44.39,-628.9 47,-628.5 110.54,-618.77 184.85,-618.74 232.62,-620.16"/>
<polygon fill="#9a32cd" stroke="#9a32cd" points="37.85,-626.77 29.13,-632.79 39.7,-633.53 37.85,-626.77"/>
<text text-anchor="middle" x="71.5" y="-631.5" font-family="Helvetica,sans-Serif" font-size="10.00"> ptr</text>
</g>
<!-- Node15 -->
<g id="node15" class="node">
<title>Node15</title>
<g id="a_node15"><a xlink:title=" ">
<polygon fill="white" stroke="black" points="114,-657 114,-676 215,-676 215,-657 114,-657"/>
<text text-anchor="middle" x="164.5" y="-664" font-family="Helvetica,sans-Serif" font-size="10.00">std::map&lt; K, T &gt;</text>
</a>
</g>
</g>
<!-- Node10&#45;&gt;Node15 -->
<g id="edge16" class="edge">
<title>Node10&#45;&gt;Node15</title>
<path fill="none" stroke="#9a32cd" stroke-dasharray="5,2" d="M39.09,-642.12C59.39,-646.1 89.35,-651.97 114.78,-656.95"/>
<polygon fill="#9a32cd" stroke="#9a32cd" points="39.64,-638.66 29.16,-640.18 38.3,-645.53 39.64,-638.66"/>
<text text-anchor="middle" x="71.5" y="-655.5" font-family="Helvetica,sans-Serif" font-size="10.00"> elements</text>
</g>
<!-- Node11 -->
<g id="node11" class="node">
<title>Node11</title>
<g id="a_node11"><a xlink:title=" ">
<polygon fill="white" stroke="black" points="918,-525.5 918,-555.5 1055,-555.5 1055,-525.5 918,-525.5"/>
<text text-anchor="start" x="926" y="-543.5" font-family="Helvetica,sans-Serif" font-size="10.00">std::unique_ptr&lt; Subject</text>
<text text-anchor="middle" x="986.5" y="-532.5" font-family="Helvetica,sans-Serif" font-size="10.00">Implementation &gt;</text>
</a>
</g>
</g>
<!-- Node11&#45;&gt;Node5 -->
<g id="edge10" class="edge">
<title>Node11&#45;&gt;Node5</title>
<path fill="none" stroke="#9a32cd" stroke-dasharray="5,2" d="M1065.28,-546.15C1109.25,-549.47 1165.22,-553.91 1215,-558.5 1238.98,-560.71 1266.01,-563.57 1286.58,-565.81"/>
<polygon fill="#9a32cd" stroke="#9a32cd" points="1065.47,-542.66 1055.23,-545.4 1064.94,-549.64 1065.47,-542.66"/>
<text text-anchor="middle" x="1148.5" y="-561.5" font-family="Helvetica,sans-Serif" font-size="10.00"> m_SubjectImplementation</text>
</g>
<!-- Node12 -->
<g id="node12" class="node">
<title>Node12</title>
<g id="a_node12"><a xlink:title=" ">
<polygon fill="white" stroke="black" points="920.5,-651.5 920.5,-681.5 1052.5,-681.5 1052.5,-651.5 920.5,-651.5"/>
<text text-anchor="start" x="928.5" y="-669.5" font-family="Helvetica,sans-Serif" font-size="10.00">std::unique_ptr&lt; itk</text>
<text text-anchor="middle" x="986.5" y="-658.5" font-family="Helvetica,sans-Serif" font-size="10.00">::MetaDataDictionary &gt;</text>
</a>
</g>
</g>
<!-- Node12&#45;&gt;Node5 -->
<g id="edge11" class="edge">
<title>Node12&#45;&gt;Node5</title>
<path fill="none" stroke="#9a32cd" stroke-dasharray="5,2" d="M1062.85,-656.21C1107.77,-648.86 1165.51,-637.27 1215,-620.5 1247.5,-609.48 1282.92,-590.61 1303.05,-579.17"/>
<polygon fill="#9a32cd" stroke="#9a32cd" points="1062.21,-652.76 1052.89,-657.8 1063.31,-659.68 1062.21,-652.76"/>
<text text-anchor="middle" x="1148.5" y="-654.5" font-family="Helvetica,sans-Serif" font-size="10.00"> m_MetaDataDictionary</text>
</g>
<!-- Node13 -->
<g id="node13" class="node">
<title>Node13</title>
<g id="a_node13"><a xlink:href="classitk_1_1MetaDataDictionary.html" target="_top" xlink:title="Provides a mechanism for storing a collection of arbitrary data types.">
<polygon fill="white" stroke="black" points="642,-657 642,-676 776,-676 776,-657 642,-657"/>
<text text-anchor="middle" x="709" y="-664" font-family="Helvetica,sans-Serif" font-size="10.00">itk::MetaDataDictionary</text>
</a>
</g>
</g>
<!-- Node13&#45;&gt;Node12 -->
<g id="edge12" class="edge">
<title>Node13&#45;&gt;Node12</title>
<path fill="none" stroke="#9a32cd" stroke-dasharray="5,2" d="M786.53,-666.5C828.55,-666.5 880.11,-666.5 920.21,-666.5"/>
<polygon fill="#9a32cd" stroke="#9a32cd" points="786.34,-663 776.34,-666.5 786.34,-670 786.34,-663"/>
<text text-anchor="middle" x="842.5" y="-669.5" font-family="Helvetica,sans-Serif" font-size="10.00"> ptr</text>
</g>
<!-- Node14 -->
<g id="node14" class="node">
<title>Node14</title>
<g id="a_node14"><a xlink:title=" ">
<polygon fill="white" stroke="black" points="351,-651.5 351,-681.5 500,-681.5 500,-651.5 351,-651.5"/>
<text text-anchor="start" x="359" y="-669.5" font-family="Helvetica,sans-Serif" font-size="10.00">std::shared_ptr&lt; MetaData</text>
<text text-anchor="middle" x="425.5" y="-658.5" font-family="Helvetica,sans-Serif" font-size="10.00">DictionaryMapType &gt;</text>
</a>
</g>
</g>
<!-- Node14&#45;&gt;Node13 -->
<g id="edge13" class="edge">
<title>Node14&#45;&gt;Node13</title>
<path fill="none" stroke="#9a32cd" stroke-dasharray="5,2" d="M510.29,-666.5C552.24,-666.5 602.31,-666.5 641.57,-666.5"/>
<polygon fill="#9a32cd" stroke="#9a32cd" points="510.09,-663 500.09,-666.5 510.09,-670 510.09,-663"/>
<text text-anchor="middle" x="571" y="-669.5" font-family="Helvetica,sans-Serif" font-size="10.00"> m_Dictionary</text>
</g>
<!-- Node15&#45;&gt;Node14 -->
<g id="edge14" class="edge">
<title>Node15&#45;&gt;Node14</title>
<path fill="none" stroke="#9a32cd" stroke-dasharray="5,2" d="M225.34,-666.5C262.61,-666.5 310.86,-666.5 350.52,-666.5"/>
<polygon fill="#9a32cd" stroke="#9a32cd" points="225.13,-663 215.13,-666.5 225.13,-670 225.13,-663"/>
<text text-anchor="middle" x="283" y="-669.5" font-family="Helvetica,sans-Serif" font-size="10.00"> ptr</text>
</g>
<!-- Node16 -->
<g id="node16" class="node">
<title>Node16</title>
<g id="a_node16"><a xlink:title=" ">
<polygon fill="white" stroke="black" points="0,-681 0,-700 29,-700 29,-681 0,-681"/>
<text text-anchor="middle" x="14.5" y="-688" font-family="Helvetica,sans-Serif" font-size="10.00">K</text>
</a>
</g>
</g>
<!-- Node16&#45;&gt;Node15 -->
<g id="edge15" class="edge">
<title>Node16&#45;&gt;Node15</title>
<path fill="none" stroke="#9a32cd" stroke-dasharray="5,2" d="M39.24,-686.65C59.28,-683.4 88.63,-678.64 113.78,-674.56"/>
<polygon fill="#9a32cd" stroke="#9a32cd" points="38.47,-683.23 29.16,-688.29 39.59,-690.14 38.47,-683.23"/>
<text text-anchor="middle" x="71.5" y="-687.5" font-family="Helvetica,sans-Serif" font-size="10.00"> keys</text>
</g>
<!-- Node17 -->
<g id="node17" class="node">
<title>Node17</title>
<g id="a_node17"><a xlink:title=" ">
<polygon fill="white" stroke="black" points="954,-338 954,-357 1019,-357 1019,-338 954,-338"/>
<text text-anchor="middle" x="986.5" y="-345" font-family="Helvetica,sans-Serif" font-size="10.00">std::string</text>
</a>
</g>
</g>
<!-- Node17&#45;&gt;Node3 -->
<g id="edge24" class="edge">
<title>Node17&#45;&gt;Node3</title>
<path fill="none" stroke="#9a32cd" stroke-dasharray="5,2" d="M1029.27,-356.63C1091.97,-369.52 1214.3,-391.5 1319.5,-391.5 1319.5,-391.5 1319.5,-391.5 1951,-391.5 2040.71,-391.5 2124.89,-308.69 2156.41,-273.76"/>
<polygon fill="#9a32cd" stroke="#9a32cd" points="1029.87,-353.18 1019.36,-354.57 1028.44,-360.03 1029.87,-353.18"/>
<text text-anchor="middle" x="1634" y="-394.5" font-family="Helvetica,sans-Serif" font-size="10.00"> m_TypeName</text>
</g>
<!-- Node17&#45;&gt;Node4 -->
<g id="edge20" class="edge">
<title>Node17&#45;&gt;Node4</title>
<path fill="none" stroke="#9a32cd" stroke-dasharray="5,2" d="M1007.61,-363.36C1025.91,-376.9 1054.23,-395.7 1082,-405.5 1219.76,-454.12 1263.37,-426.94 1408,-447.5 1470.82,-456.43 1543.31,-467.92 1588.65,-475.25"/>
<polygon fill="#9a32cd" stroke="#9a32cd" points="1009.56,-360.45 999.47,-357.2 1005.33,-366.03 1009.56,-360.45"/>
<text text-anchor="middle" x="1320.5" y="-450.5" font-family="Helvetica,sans-Serif" font-size="10.00"> m_SourceOutputName</text>
</g>
<!-- Node17&#45;&gt;Node5 -->
<g id="edge17" class="edge">
<title>Node17&#45;&gt;Node5</title>
<path fill="none" stroke="#9a32cd" stroke-dasharray="5,2" d="M1002.25,-364.91C1018.72,-384.91 1045.48,-419.13 1064,-451.5 1074.08,-469.13 1066.81,-480.02 1082,-493.5 1128.08,-534.38 1159.68,-505.41 1215,-532.5 1223.86,-536.84 1224.11,-541.22 1233,-545.5 1250,-553.67 1270.25,-559.48 1286.88,-563.33"/>
<polygon fill="#9a32cd" stroke="#9a32cd" points="1004.77,-362.46 995.68,-357.02 999.39,-366.94 1004.77,-362.46"/>
<text text-anchor="middle" x="1148.5" y="-535.5" font-family="Helvetica,sans-Serif" font-size="10.00"> m_ObjectName</text>
</g>
<!-- Node22 -->
<g id="node22" class="node">
<title>Node22</title>
<g id="a_node22"><a xlink:href="classitk_1_1SpatialObjectProperty.html" target="_top" xlink:title=" ">
<polygon fill="white" stroke="black" points="1563,-259 1563,-278 1705,-278 1705,-259 1563,-259"/>
<text text-anchor="middle" x="1634" y="-266" font-family="Helvetica,sans-Serif" font-size="10.00">itk::SpatialObjectProperty</text>
</a>
</g>
</g>
<!-- Node17&#45;&gt;Node22 -->
<g id="edge29" class="edge">
<title>Node17&#45;&gt;Node22</title>
<path fill="none" stroke="#9a32cd" stroke-dasharray="5,2" d="M1013.5,-333.09C1032.14,-323.19 1058.09,-310.31 1082,-301.5 1147.04,-277.55 1164.24,-271.24 1233,-262.5 1310.16,-252.7 1330.23,-261.46 1408,-262.5 1459.87,-263.19 1518.45,-264.78 1562.83,-266.15"/>
<polygon fill="#9a32cd" stroke="#9a32cd" points="1011.61,-330.13 1004.46,-337.95 1014.93,-336.3 1011.61,-330.13"/>
<text text-anchor="middle" x="1320.5" y="-265.5" font-family="Helvetica,sans-Serif" font-size="10.00"> m_Name</text>
</g>
<!-- Node26 -->
<g id="node26" class="node">
<title>Node26</title>
<g id="a_node26"><a xlink:title=" ">
<polygon fill="white" stroke="black" points="1259.5,-332.5 1259.5,-362.5 1381.5,-362.5 1381.5,-332.5 1259.5,-332.5"/>
<text text-anchor="start" x="1267.5" y="-350.5" font-family="Helvetica,sans-Serif" font-size="10.00">std::map&lt; std::string,</text>
<text text-anchor="middle" x="1320.5" y="-339.5" font-family="Helvetica,sans-Serif" font-size="10.00"> double &gt;</text>
</a>
</g>
</g>
<!-- Node17&#45;&gt;Node26 -->
<g id="edge31" class="edge">
<title>Node17&#45;&gt;Node26</title>
<path fill="none" stroke="#9a32cd" stroke-dasharray="5,2" d="M1029.31,-347.5C1087.44,-347.5 1192.98,-347.5 1259.5,-347.5"/>
<polygon fill="#9a32cd" stroke="#9a32cd" points="1029.03,-344 1019.03,-347.5 1029.03,-351 1029.03,-344"/>
<text text-anchor="middle" x="1148.5" y="-350.5" font-family="Helvetica,sans-Serif" font-size="10.00"> keys</text>
</g>
<!-- Node27 -->
<g id="node27" class="node">
<title>Node27</title>
<g id="a_node27"><a xlink:title=" ">
<polygon fill="white" stroke="black" points="1259.5,-283.5 1259.5,-313.5 1381.5,-313.5 1381.5,-283.5 1259.5,-283.5"/>
<text text-anchor="start" x="1267.5" y="-301.5" font-family="Helvetica,sans-Serif" font-size="10.00">std::map&lt; std::string,</text>
<text text-anchor="middle" x="1320.5" y="-290.5" font-family="Helvetica,sans-Serif" font-size="10.00"> std::string &gt;</text>
</a>
</g>
</g>
<!-- Node17&#45;&gt;Node27 -->
<g id="edge33" class="edge">
<title>Node17&#45;&gt;Node27</title>
<path fill="none" stroke="#9a32cd" stroke-dasharray="5,2" d="M1027.01,-335C1043.81,-330.11 1063.71,-324.88 1082,-321.5 1141.68,-310.48 1210.83,-304.54 1259.07,-301.48"/>
<polygon fill="#9a32cd" stroke="#9a32cd" points="1025.58,-331.77 1016.99,-337.98 1027.57,-338.48 1025.58,-331.77"/>
<text text-anchor="middle" x="1148.5" y="-335.5" font-family="Helvetica,sans-Serif" font-size="10.00"> elements</text>
<text text-anchor="middle" x="1148.5" y="-324.5" font-family="Helvetica,sans-Serif" font-size="10.00">keys</text>
</g>
<!-- Node17&#45;&gt;Node28 -->
<g id="edge36" class="edge">
<title>Node17&#45;&gt;Node28</title>
<path fill="none" stroke="#9a32cd" stroke-dasharray="5,2" d="M998.83,-328.99C1029.5,-280.83 1119.48,-151.76 1233,-99.5 1431.7,-8.03 1513.49,-56.71 1725,-112.5 1800.01,-132.29 1814.23,-150.6 1887,-177.5 1892.33,-179.47 1897.94,-181.47 1903.52,-183.42"/>
<polygon fill="#9a32cd" stroke="#9a32cd" points="995.7,-327.41 993.35,-337.74 1001.63,-331.12 995.7,-327.41"/>
<text text-anchor="middle" x="1475.5" y="-62.5" font-family="Helvetica,sans-Serif" font-size="10.00"> m_TypeName</text>
</g>
<!-- Node18 -->
<g id="node18" class="node">
<title>Node18</title>
<g id="a_node18"><a xlink:title=" ">
<polygon fill="white" stroke="black" points="657,-332.5 657,-362.5 761,-362.5 761,-332.5 657,-332.5"/>
<text text-anchor="start" x="665" y="-350.5" font-family="Helvetica,sans-Serif" font-size="10.00">std::basic_string&lt;</text>
<text text-anchor="middle" x="709" y="-339.5" font-family="Helvetica,sans-Serif" font-size="10.00"> Char &gt;</text>
</a>
</g>
</g>
<!-- Node18&#45;&gt;Node17 -->
<g id="edge18" class="edge">
<title>Node18&#45;&gt;Node17</title>
<path fill="none" stroke="midnightblue" d="M771.42,-347.5C827.96,-347.5 909.57,-347.5 953.91,-347.5"/>
<polygon fill="midnightblue" stroke="midnightblue" points="771.17,-344 761.17,-347.5 771.17,-351 771.17,-344"/>
</g>
<!-- Node19 -->
<g id="node19" class="node">
<title>Node19</title>
<g id="a_node19"><a xlink:href="classitk_1_1WeakPointer.html" target="_top" xlink:title=" ">
<polygon fill="white" stroke="black" points="1260,-467.5 1260,-497.5 1381,-497.5 1381,-467.5 1260,-467.5"/>
<text text-anchor="start" x="1268" y="-485.5" font-family="Helvetica,sans-Serif" font-size="10.00">itk::WeakPointer&lt; itk</text>
<text text-anchor="middle" x="1320.5" y="-474.5" font-family="Helvetica,sans-Serif" font-size="10.00">::ProcessObject &gt;</text>
</a>
</g>
</g>
<!-- Node19&#45;&gt;Node4 -->
<g id="edge19" class="edge">
<title>Node19&#45;&gt;Node4</title>
<path fill="none" stroke="#9a32cd" stroke-dasharray="5,2" d="M1391.41,-482.5C1451.78,-482.5 1537.18,-482.5 1588.61,-482.5"/>
<polygon fill="#9a32cd" stroke="#9a32cd" points="1391.19,-479 1381.19,-482.5 1391.19,-486 1391.19,-479"/>
<text text-anchor="middle" x="1475.5" y="-485.5" font-family="Helvetica,sans-Serif" font-size="10.00"> m_Source</text>
</g>
<!-- Node20 -->
<g id="node20" class="node">
<title>Node20</title>
<g id="a_node20"><a xlink:href="classitk_1_1RealTimeStamp.html" target="_top" xlink:title="The RealTimeStamp is a data structure for representing time with high precision and a large dynamic r...">
<polygon fill="white" stroke="black" points="1264,-517 1264,-536 1377,-536 1377,-517 1264,-517"/>
<text text-anchor="middle" x="1320.5" y="-524" font-family="Helvetica,sans-Serif" font-size="10.00">itk::RealTimeStamp</text>
</a>
</g>
</g>
<!-- Node20&#45;&gt;Node4 -->
<g id="edge22" class="edge">
<title>Node20&#45;&gt;Node4</title>
<path fill="none" stroke="#9a32cd" stroke-dasharray="5,2" d="M1387.43,-517.19C1448.07,-508.62 1536.32,-496.16 1588.86,-488.73"/>
<polygon fill="#9a32cd" stroke="#9a32cd" points="1386.6,-513.77 1377.19,-518.63 1387.58,-520.7 1386.6,-513.77"/>
<text text-anchor="middle" x="1475.5" y="-513.5" font-family="Helvetica,sans-Serif" font-size="10.00"> m_RealTimeStamp</text>
</g>
<!-- Node21 -->
<g id="node21" class="node">
<title>Node21</title>
<g id="a_node21"><a xlink:title=" ">
<polygon fill="white" stroke="black" points="958.5,-461 958.5,-480 1014.5,-480 1014.5,-461 958.5,-461"/>
<text text-anchor="middle" x="986.5" y="-468" font-family="Helvetica,sans-Serif" font-size="10.00">uint64_t</text>
</a>
</g>
</g>
<!-- Node21&#45;&gt;Node20 -->
<g id="edge23" class="edge">
<title>Node21&#45;&gt;Node20</title>
<path fill="none" stroke="#9a32cd" stroke-dasharray="5,2" d="M1024.78,-466.07C1081.02,-460.13 1184.27,-452.41 1215,-471.5 1230.2,-480.94 1218.89,-496.51 1233,-507.5 1241.86,-514.4 1252.69,-518.9 1263.66,-521.83"/>
<polygon fill="#9a32cd" stroke="#9a32cd" points="1024.09,-462.62 1014.52,-467.18 1024.84,-469.58 1024.09,-462.62"/>
<text text-anchor="middle" x="1148.5" y="-485.5" font-family="Helvetica,sans-Serif" font-size="10.00"> m_MicroSeconds</text>
<text text-anchor="middle" x="1148.5" y="-474.5" font-family="Helvetica,sans-Serif" font-size="10.00">m_Seconds</text>
</g>
<!-- Node22&#45;&gt;Node3 -->
<g id="edge25" class="edge">
<title>Node22&#45;&gt;Node3</title>
<path fill="none" stroke="#9a32cd" stroke-dasharray="5,2" d="M1715.17,-267.68C1760.36,-267.17 1817.83,-266.42 1869,-265.5 1957.31,-263.91 2060.2,-261.36 2119.79,-259.82"/>
<polygon fill="#9a32cd" stroke="#9a32cd" points="1715.1,-264.18 1705.14,-267.79 1715.18,-271.18 1715.1,-264.18"/>
<text text-anchor="middle" x="1950" y="-268.5" font-family="Helvetica,sans-Serif" font-size="10.00"> m_Property</text>
</g>
<!-- Node22&#45;&gt;Node28 -->
<g id="edge37" class="edge">
<title>Node22&#45;&gt;Node28</title>
<path fill="none" stroke="#9a32cd" stroke-dasharray="5,2" d="M1715.07,-257.88C1771.07,-250.06 1840.71,-239.45 1869,-231.5 1885.34,-226.91 1902.85,-219.94 1917.3,-213.59"/>
<polygon fill="#9a32cd" stroke="#9a32cd" points="1714.57,-254.41 1705.15,-259.25 1715.53,-261.35 1714.57,-254.41"/>
<text text-anchor="middle" x="1806" y="-257.5" font-family="Helvetica,sans-Serif" font-size="10.00"> m_Property</text>
</g>
<!-- Node23 -->
<g id="node23" class="node">
<title>Node23</title>
<g id="a_node23"><a xlink:href="classitk_1_1RGBAPixel.html" target="_top" xlink:title=" ">
<polygon fill="white" stroke="black" points="1249.5,-198 1249.5,-217 1391.5,-217 1391.5,-198 1249.5,-198"/>
<text text-anchor="middle" x="1320.5" y="-205" font-family="Helvetica,sans-Serif" font-size="10.00">itk::RGBAPixel&lt; double &gt;</text>
</a>
</g>
</g>
<!-- Node23&#45;&gt;Node22 -->
<g id="edge26" class="edge">
<title>Node23&#45;&gt;Node22</title>
<path fill="none" stroke="#9a32cd" stroke-dasharray="5,2" d="M1401.96,-217.49C1439.53,-222.74 1484.75,-229.88 1525,-238.5 1551.45,-244.17 1581.02,-252.52 1602.52,-258.98"/>
<polygon fill="#9a32cd" stroke="#9a32cd" points="1401.96,-213.96 1391.57,-216.07 1401,-220.9 1401.96,-213.96"/>
<text text-anchor="middle" x="1475.5" y="-241.5" font-family="Helvetica,sans-Serif" font-size="10.00"> m_Color</text>
</g>
<!-- Node24 -->
<g id="node24" class="node">
<title>Node24</title>
<g id="a_node24"><a xlink:href="classitk_1_1FixedArray.html" target="_top" xlink:title=" ">
<polygon fill="white" stroke="black" points="909,-198 909,-217 1064,-217 1064,-198 909,-198"/>
<text text-anchor="middle" x="986.5" y="-205" font-family="Helvetica,sans-Serif" font-size="10.00">itk::FixedArray&lt; double, 4 &gt;</text>
</a>
</g>
</g>
<!-- Node24&#45;&gt;Node23 -->
<g id="edge27" class="edge">
<title>Node24&#45;&gt;Node23</title>
<path fill="none" stroke="midnightblue" d="M1074.09,-207.5C1128.63,-207.5 1198.14,-207.5 1249.25,-207.5"/>
<polygon fill="midnightblue" stroke="midnightblue" points="1074.08,-204 1064.08,-207.5 1074.08,-211 1074.08,-204"/>
</g>
<!-- Node25 -->
<g id="node25" class="node">
<title>Node25</title>
<g id="a_node25"><a xlink:href="classVLength.html" target="_top" xlink:title=" ">
<polygon fill="white" stroke="black" points="681,-198 681,-217 737,-217 737,-198 681,-198"/>
<text text-anchor="middle" x="709" y="-205" font-family="Helvetica,sans-Serif" font-size="10.00">VLength</text>
</a>
</g>
</g>
<!-- Node25&#45;&gt;Node24 -->
<g id="edge28" class="edge">
<title>Node25&#45;&gt;Node24</title>
<path fill="none" stroke="#9a32cd" stroke-dasharray="5,2" d="M747.31,-207.5C788.54,-207.5 856.07,-207.5 908.72,-207.5"/>
<polygon fill="#9a32cd" stroke="#9a32cd" points="747.17,-204 737.17,-207.5 747.17,-211 747.17,-204"/>
<text text-anchor="middle" x="842.5" y="-210.5" font-family="Helvetica,sans-Serif" font-size="10.00"> m_InternalArray</text>
</g>
<!-- Node26&#45;&gt;Node22 -->
<g id="edge30" class="edge">
<title>Node26&#45;&gt;Node22</title>
<path fill="none" stroke="#9a32cd" stroke-dasharray="5,2" d="M1391.59,-334.16C1431.02,-326.2 1481.01,-315.35 1525,-303.5 1552.98,-295.96 1584.43,-285.54 1606.15,-278.03"/>
<polygon fill="#9a32cd" stroke="#9a32cd" points="1390.66,-330.77 1381.54,-336.17 1392.03,-337.64 1390.66,-330.77"/>
<text text-anchor="middle" x="1475.5" y="-329.5" font-family="Helvetica,sans-Serif" font-size="10.00"> m_ScalarDictionary</text>
</g>
<!-- Node27&#45;&gt;Node22 -->
<g id="edge32" class="edge">
<title>Node27&#45;&gt;Node22</title>
<path fill="none" stroke="#9a32cd" stroke-dasharray="5,2" d="M1391.53,-291.76C1442.64,-286.83 1511.63,-280.19 1562.78,-275.26"/>
<polygon fill="#9a32cd" stroke="#9a32cd" points="1391.18,-288.27 1381.56,-292.72 1391.85,-295.24 1391.18,-288.27"/>
<text text-anchor="middle" x="1475.5" y="-291.5" font-family="Helvetica,sans-Serif" font-size="10.00"> m_StringDictionary</text>
</g>
<!-- Node28&#45;&gt;Node3 -->
<g id="edge34" class="edge">
<title>Node28&#45;&gt;Node3</title>
<path fill="none" stroke="#9a32cd" stroke-dasharray="5,2" d="M2010.46,-214.83C2044.71,-224.23 2087.27,-235.92 2119.74,-244.84"/>
<polygon fill="#9a32cd" stroke="#9a32cd" points="2011.15,-211.39 2000.58,-212.11 2009.3,-218.14 2011.15,-211.39"/>
<text text-anchor="middle" x="2055.5" y="-237.5" font-family="Helvetica,sans-Serif" font-size="10.00"> m_Parent</text>
</g>
<!-- Node28&#45;&gt;Node28 -->
<g id="edge38" class="edge">
<title>Node28&#45;&gt;Node28</title>
<path fill="none" stroke="#9a32cd" stroke-dasharray="5,2" d="M1931.52,-223.96C1933.81,-228.68 1939.97,-232 1950,-232 1966.45,-232 1972.49,-223.06 1968.12,-213.66"/>
<polygon fill="#9a32cd" stroke="#9a32cd" points="1935.03,-223.77 1931.88,-213.66 1928.03,-223.53 1935.03,-223.77"/>
<text text-anchor="middle" x="1950" y="-235" font-family="Helvetica,sans-Serif" font-size="10.00"> m_Parent</text>
</g>
<!-- Node29 -->
<g id="node29" class="node">
<title>Node29</title>
<g id="a_node29"><a xlink:href="classitk_1_1ImageRegion.html" target="_top" xlink:title=" ">
<polygon fill="white" stroke="black" points="1570,-188 1570,-207 1698,-207 1698,-188 1570,-188"/>
<text text-anchor="middle" x="1634" y="-195" font-family="Helvetica,sans-Serif" font-size="10.00">itk::ImageRegion&lt; 3 &gt;</text>
</a>
</g>
</g>
<!-- Node29&#45;&gt;Node28 -->
<g id="edge39" class="edge">
<title>Node29&#45;&gt;Node28</title>
<path fill="none" stroke="#9a32cd" stroke-dasharray="5,2" d="M1708.5,-197.73C1767.25,-197.92 1847.99,-198.18 1899.35,-198.34"/>
<polygon fill="#9a32cd" stroke="#9a32cd" points="1708.18,-194.23 1698.16,-197.7 1708.15,-201.23 1708.18,-194.23"/>
<text text-anchor="middle" x="1806" y="-223.5" font-family="Helvetica,sans-Serif" font-size="10.00"> m_BufferedRegion</text>
<text text-anchor="middle" x="1806" y="-212.5" font-family="Helvetica,sans-Serif" font-size="10.00">m_LargestPossibleRegion</text>
<text text-anchor="middle" x="1806" y="-201.5" font-family="Helvetica,sans-Serif" font-size="10.00">m_RequestedRegion</text>
</g>
<!-- Node30 -->
<g id="node30" class="node">
<title>Node30</title>
<g id="a_node30"><a xlink:href="structitk_1_1Index.html" target="_top" xlink:title=" ">
<polygon fill="white" stroke="black" points="1233,-109 1233,-128 1408,-128 1408,-109 1233,-109"/>
<text text-anchor="middle" x="1320.5" y="-116" font-family="Helvetica,sans-Serif" font-size="10.00">itk::Index&lt; VImageDimension &gt;</text>
</a>
</g>
</g>
<!-- Node30&#45;&gt;Node29 -->
<g id="edge40" class="edge">
<title>Node30&#45;&gt;Node29</title>
<path fill="none" stroke="#9a32cd" stroke-dasharray="5,2" d="M1418.25,-113.55C1453.08,-114.98 1491.91,-120.41 1525,-134.5 1534.85,-138.69 1534.19,-144.42 1543,-150.5 1564.91,-165.62 1592.28,-179.25 1611.06,-187.89"/>
<polygon fill="#9a32cd" stroke="#9a32cd" points="1418.17,-110.05 1408.07,-113.24 1417.95,-117.04 1418.17,-110.05"/>
<text text-anchor="middle" x="1475.5" y="-137.5" font-family="Helvetica,sans-Serif" font-size="10.00"> m_Index</text>
</g>
<!-- Node34 -->
<g id="node34" class="node">
<title>Node34</title>
<g id="a_node34"><a xlink:href="classitk_1_1ImageRegion.html" target="_top" xlink:title=" ">
<polygon fill="white" stroke="black" points="1543,-122 1543,-141 1725,-141 1725,-122 1543,-122"/>
<text text-anchor="middle" x="1634" y="-129" font-family="Helvetica,sans-Serif" font-size="10.00">itk::ImageRegion&lt; VDimension &gt;</text>
</a>
</g>
</g>
<!-- Node30&#45;&gt;Node34 -->
<g id="edge45" class="edge">
<title>Node30&#45;&gt;Node34</title>
<path fill="none" stroke="#9a32cd" stroke-dasharray="5,2" d="M1380.2,-107.4C1420.94,-101.27 1476.42,-96.09 1525,-102.5 1552.91,-106.18 1583.85,-115 1605.44,-121.95"/>
<polygon fill="#9a32cd" stroke="#9a32cd" points="1379.51,-103.96 1370.17,-108.97 1380.59,-110.88 1379.51,-103.96"/>
<text text-anchor="middle" x="1475.5" y="-105.5" font-family="Helvetica,sans-Serif" font-size="10.00"> m_Index</text>
</g>
<!-- Node31 -->
<g id="node31" class="node">
<title>Node31</title>
<g id="a_node31"><a xlink:href="structitk_1_1Size.html" target="_top" xlink:title=" ">
<polygon fill="white" stroke="black" points="1236.5,-160 1236.5,-179 1404.5,-179 1404.5,-160 1236.5,-160"/>
<text text-anchor="middle" x="1320.5" y="-167" font-family="Helvetica,sans-Serif" font-size="10.00">itk::Size&lt; VImageDimension &gt;</text>
</a>
</g>
</g>
<!-- Node31&#45;&gt;Node29 -->
<g id="edge41" class="edge">
<title>Node31&#45;&gt;Node29</title>
<path fill="none" stroke="#9a32cd" stroke-dasharray="5,2" d="M1411.64,-180.06C1416.49,-180.57 1421.3,-181.05 1426,-181.5 1474.26,-186.13 1528.95,-190.32 1569.99,-193.24"/>
<polygon fill="#9a32cd" stroke="#9a32cd" points="1411.94,-176.58 1401.63,-179.01 1411.21,-183.54 1411.94,-176.58"/>
<text text-anchor="middle" x="1475.5" y="-193.5" font-family="Helvetica,sans-Serif" font-size="10.00"> m_Size</text>
</g>
<!-- Node31&#45;&gt;Node34 -->
<g id="edge46" class="edge">
<title>Node31&#45;&gt;Node34</title>
<path fill="none" stroke="#9a32cd" stroke-dasharray="5,2" d="M1414.86,-160.19C1449.49,-156.53 1489.07,-152.1 1525,-147.5 1540.13,-145.56 1556.43,-143.26 1571.66,-141.02"/>
<polygon fill="#9a32cd" stroke="#9a32cd" points="1414.34,-156.72 1404.76,-161.25 1415.07,-163.68 1414.34,-156.72"/>
<text text-anchor="middle" x="1475.5" y="-162.5" font-family="Helvetica,sans-Serif" font-size="10.00"> m_Size</text>
</g>
<!-- Node32 -->
<g id="node32" class="node">
<title>Node32</title>
<g id="a_node32"><a xlink:title=" ">
<polygon fill="white" stroke="black" points="1579,-6 1579,-25 1689,-25 1689,-6 1579,-6"/>
<text text-anchor="middle" x="1634" y="-13" font-family="Helvetica,sans-Serif" font-size="10.00">std::list&lt; Pointer &gt;</text>
</a>
</g>
</g>
<!-- Node32&#45;&gt;Node3 -->
<g id="edge47" class="edge">
<title>Node32&#45;&gt;Node3</title>
<path fill="none" stroke="#9a32cd" stroke-dasharray="5,2" d="M1699.53,-9.95C1747.12,-7.65 1813.04,-8.24 1869,-22.5 1975.51,-49.65 2022.99,-57.53 2080,-151.5 2099.35,-183.4 2073.25,-205.58 2098,-233.5 2103.84,-240.09 2111.53,-244.95 2119.69,-248.52"/>
<polygon fill="#9a32cd" stroke="#9a32cd" points="1699.16,-6.47 1689.37,-10.5 1699.54,-13.46 1699.16,-6.47"/>
<text text-anchor="middle" x="1950" y="-76.5" font-family="Helvetica,sans-Serif" font-size="10.00"> m_ChildrenList</text>
</g>
<!-- Node32&#45;&gt;Node28 -->
<g id="edge42" class="edge">
<title>Node32&#45;&gt;Node28</title>
<path fill="none" stroke="#9a32cd" stroke-dasharray="5,2" d="M1699.31,-18.93C1764.36,-23.02 1856.99,-30.81 1869,-42.5 1909.54,-81.96 1853.63,-122.82 1887,-168.5 1891.44,-174.58 1897.46,-179.49 1903.99,-183.43"/>
<polygon fill="#9a32cd" stroke="#9a32cd" points="1699.32,-15.42 1689.13,-18.3 1698.9,-22.41 1699.32,-15.42"/>
<text text-anchor="middle" x="1806" y="-45.5" font-family="Helvetica,sans-Serif" font-size="10.00"> m_ChildrenList</text>
</g>
<!-- Node33 -->
<g id="node33" class="node">
<title>Node33</title>
<g id="a_node33"><a xlink:href="classitk_1_1SmartPointer.html" target="_top" xlink:title="Implements transparent reference counting.">
<polygon fill="white" stroke="black" points="1267,-0.5 1267,-30.5 1374,-30.5 1374,-0.5 1267,-0.5"/>
<text text-anchor="start" x="1275" y="-18.5" font-family="Helvetica,sans-Serif" font-size="10.00">itk::SmartPointer&lt;</text>
<text text-anchor="middle" x="1320.5" y="-7.5" font-family="Helvetica,sans-Serif" font-size="10.00"> TObjectType &gt;</text>
</a>
</g>
</g>
<!-- Node33&#45;&gt;Node32 -->
<g id="edge43" class="edge">
<title>Node33&#45;&gt;Node32</title>
<path fill="none" stroke="#9a32cd" stroke-dasharray="5,2" d="M1384.68,-15.5C1441.73,-15.5 1524.78,-15.5 1578.85,-15.5"/>
<polygon fill="#9a32cd" stroke="#9a32cd" points="1384.34,-12 1374.34,-15.5 1384.34,-19 1384.34,-12"/>
<text text-anchor="middle" x="1475.5" y="-18.5" font-family="Helvetica,sans-Serif" font-size="10.00"> elements</text>
</g>
<!-- Node34&#45;&gt;Node3 -->
<g id="edge44" class="edge">
<title>Node34&#45;&gt;Node3</title>
<path fill="none" stroke="#9a32cd" stroke-dasharray="5,2" d="M1688.81,-120.1C1764.87,-106.72 1906.43,-92.01 2013,-140.5 2038.48,-152.1 2074.63,-218.08 2098,-233.5 2104.7,-237.92 2112.26,-241.65 2119.9,-244.77"/>
<polygon fill="#9a32cd" stroke="#9a32cd" points="1687.73,-116.74 1678.52,-121.97 1688.99,-123.63 1687.73,-116.74"/>
<text text-anchor="middle" x="1950" y="-165.5" font-family="Helvetica,sans-Serif" font-size="10.00"> m_BufferedRegion</text>
<text text-anchor="middle" x="1950" y="-154.5" font-family="Helvetica,sans-Serif" font-size="10.00">m_LargestPossibleRegion</text>
<text text-anchor="middle" x="1950" y="-143.5" font-family="Helvetica,sans-Serif" font-size="10.00">m_RequestedRegion</text>
</g>
<!-- Node35 -->
<g id="node35" class="node">
<title>Node35</title>
<g id="a_node35"><a xlink:title=" ">
<polygon fill="white" stroke="black" points="2098,-194.5 2098,-224.5 2243,-224.5 2243,-194.5 2098,-194.5"/>
<text text-anchor="start" x="2106" y="-212.5" font-family="Helvetica,sans-Serif" font-size="10.00">std::vector&lt; SpatialObject</text>
<text text-anchor="middle" x="2170.5" y="-201.5" font-family="Helvetica,sans-Serif" font-size="10.00">PointType &gt;</text>
</a>
</g>
</g>
<!-- Node35&#45;&gt;Node2 -->
<g id="edge48" class="edge">
<title>Node35&#45;&gt;Node2</title>
<path fill="none" stroke="#9a32cd" stroke-dasharray="5,2" d="M2253.32,-213.75C2277.11,-214.98 2303.28,-216.34 2327.77,-217.61"/>
<polygon fill="#9a32cd" stroke="#9a32cd" points="2253.45,-210.25 2243.28,-213.23 2253.09,-217.24 2253.45,-210.25"/>
<text text-anchor="middle" x="2285.5" y="-219.5" font-family="Helvetica,sans-Serif" font-size="10.00"> m_Points</text>
</g>
</g>
</svg>
