<?xml version="1.0" encoding="UTF-8" standalone="no"?>
<!DOCTYPE svg PUBLIC "-//W3C//DTD SVG 1.1//EN"
 "http://www.w3.org/Graphics/SVG/1.1/DTD/svg11.dtd">
<!-- Generated by graphviz version 2.43.0 (0)
 -->
<!-- Title: itk::AnisotropicDiffusionFunction&lt; TImage &gt; Pages: 1 -->
<svg width="182pt" height="231pt"
 viewBox="0.00 0.00 182.00 231.00" xmlns="http://www.w3.org/2000/svg" xmlns:xlink="http://www.w3.org/1999/xlink">
<g id="graph0" class="graph" transform="scale(1 1) rotate(0) translate(4 227)">
<title>itk::AnisotropicDiffusionFunction&lt; TImage &gt;</title>
<polygon fill="white" stroke="transparent" points="-4,4 -4,-227 178,-227 178,4 -4,4"/>
<!-- Node1 -->
<g id="node1" class="node">
<title>Node1</title>
<g id="a_node1"><a xlink:title=" ">
<polygon fill="#bfbfbf" stroke="black" points="10,-0.5 10,-30.5 144,-30.5 144,-0.5 10,-0.5"/>
<text text-anchor="start" x="18" y="-18.5" font-family="Helvetica,sans-Serif" font-size="10.00">itk::AnisotropicDiffusion</text>
<text text-anchor="middle" x="77" y="-7.5" font-family="Helvetica,sans-Serif" font-size="10.00">Function&lt; TImage &gt;</text>
</a>
</g>
</g>
<!-- Node2 -->
<g id="node2" class="node">
<title>Node2</title>
<g id="a_node2"><a xlink:href="classitk_1_1FiniteDifferenceFunction.html" target="_top" xlink:title=" ">
<polygon fill="white" stroke="black" points="0,-68.5 0,-98.5 154,-98.5 154,-68.5 0,-68.5"/>
<text text-anchor="start" x="8" y="-86.5" font-family="Helvetica,sans-Serif" font-size="10.00">itk::FiniteDifferenceFunction</text>
<text text-anchor="middle" x="77" y="-75.5" font-family="Helvetica,sans-Serif" font-size="10.00">&lt; TImage &gt;</text>
</a>
</g>
</g>
<!-- Node2&#45;&gt;Node1 -->
<g id="edge1" class="edge">
<title>Node2&#45;&gt;Node1</title>
<path fill="none" stroke="midnightblue" d="M77,-58.03C77,-48.86 77,-38.74 77,-30.79"/>
<polygon fill="midnightblue" stroke="midnightblue" points="73.5,-58.18 77,-68.18 80.5,-58.18 73.5,-58.18"/>
</g>
<!-- Node3 -->
<g id="node3" class="node">
<title>Node3</title>
<g id="a_node3"><a xlink:href="classitk_1_1LightObject.html" target="_top" xlink:title="Light weight base class for most itk classes.">
<polygon fill="white" stroke="black" points="31.5,-136.5 31.5,-155.5 122.5,-155.5 122.5,-136.5 31.5,-136.5"/>
<text text-anchor="middle" x="77" y="-143.5" font-family="Helvetica,sans-Serif" font-size="10.00">itk::LightObject</text>
</a>
</g>
</g>
<!-- Node3&#45;&gt;Node2 -->
<g id="edge2" class="edge">
<title>Node3&#45;&gt;Node2</title>
<path fill="none" stroke="midnightblue" d="M77,-126.22C77,-117.36 77,-106.96 77,-98.76"/>
<polygon fill="midnightblue" stroke="midnightblue" points="73.5,-126.33 77,-136.33 80.5,-126.33 73.5,-126.33"/>
</g>
<!-- Node4 -->
<g id="node4" class="node">
<title>Node4</title>
<g id="a_node4"><a xlink:title=" ">
<polygon fill="white" stroke="black" points="23.5,-203.5 23.5,-222.5 130.5,-222.5 130.5,-203.5 23.5,-203.5"/>
<text text-anchor="middle" x="77" y="-210.5" font-family="Helvetica,sans-Serif" font-size="10.00">std::atomic&lt; int &gt;</text>
</a>
</g>
</g>
<!-- Node4&#45;&gt;Node3 -->
<g id="edge3" class="edge">
<title>Node4&#45;&gt;Node3</title>
<path fill="none" stroke="#9a32cd" stroke-dasharray="5,2" d="M77,-193.04C77,-180.67 77,-165.12 77,-155.63"/>
<polygon fill="#9a32cd" stroke="#9a32cd" points="73.5,-193.23 77,-203.23 80.5,-193.23 73.5,-193.23"/>
<text text-anchor="middle" x="125.5" y="-177" font-family="Helvetica,sans-Serif" font-size="10.00"> m_ReferenceCount</text>
</g>
</g>
</svg>
