<?xml version="1.0" encoding="UTF-8" standalone="no"?>
<!DOCTYPE svg PUBLIC "-//W3C//DTD SVG 1.1//EN"
 "http://www.w3.org/Graphics/SVG/1.1/DTD/svg11.dtd">
<!-- Generated by graphviz version 2.43.0 (0)
 -->
<!-- Title: itk::CompareHistogramImageToImageMetric&lt; TFixedImage, TMovingImage &gt; Pages: 1 -->
<svg width="1692pt" height="67pt"
 viewBox="0.00 0.00 1692.00 66.50" xmlns="http://www.w3.org/2000/svg" xmlns:xlink="http://www.w3.org/1999/xlink">
<g id="graph0" class="graph" transform="scale(1 1) rotate(0) translate(4 62.5)">
<title>itk::CompareHistogramImageToImageMetric&lt; TFixedImage, TMovingImage &gt;</title>
<polygon fill="white" stroke="transparent" points="-4,4 -4,-62.5 1688,-62.5 1688,4 -4,4"/>
<!-- Node1 -->
<g id="node1" class="node">
<title>Node1</title>
<g id="a_node1"><a xlink:title="Compares Histograms between two images to be registered to a Training Histogram.">
<polygon fill="#bfbfbf" stroke="black" points="1302,-17 1302,-58 1467,-58 1467,-17 1302,-17"/>
<text text-anchor="start" x="1310" y="-46" font-family="Helvetica,sans-Serif" font-size="10.00">itk::CompareHistogramImage</text>
<text text-anchor="start" x="1310" y="-35" font-family="Helvetica,sans-Serif" font-size="10.00">ToImageMetric&lt; TFixedImage,</text>
<text text-anchor="middle" x="1384.5" y="-24" font-family="Helvetica,sans-Serif" font-size="10.00"> TMovingImage &gt;</text>
</a>
</g>
</g>
<!-- Node9 -->
<g id="node9" class="node">
<title>Node9</title>
<g id="a_node9"><a xlink:href="classitk_1_1KullbackLeiblerCompareHistogramImageToImageMetric.html" target="_top" xlink:title="Computes the Kubler Lieblach(KL) metric between the histogram of the two images to be registered and ...">
<polygon fill="white" stroke="black" points="1504,-17 1504,-58 1684,-58 1684,-17 1504,-17"/>
<text text-anchor="start" x="1512" y="-46" font-family="Helvetica,sans-Serif" font-size="10.00">itk::KullbackLeiblerCompare</text>
<text text-anchor="start" x="1512" y="-35" font-family="Helvetica,sans-Serif" font-size="10.00">HistogramImageToImageMetric</text>
<text text-anchor="middle" x="1594" y="-24" font-family="Helvetica,sans-Serif" font-size="10.00">&lt; TFixedImage, TMovingImage &gt;</text>
</a>
</g>
</g>
<!-- Node1&#45;&gt;Node9 -->
<g id="edge9" class="edge">
<title>Node1&#45;&gt;Node9</title>
<path fill="none" stroke="midnightblue" d="M1477.44,-37.5C1486.21,-37.5 1495.09,-37.5 1503.83,-37.5"/>
<polygon fill="midnightblue" stroke="midnightblue" points="1477.21,-34 1467.21,-37.5 1477.21,-41 1477.21,-34"/>
</g>
<!-- Node2 -->
<g id="node2" class="node">
<title>Node2</title>
<g id="a_node2"><a xlink:href="classitk_1_1HistogramImageToImageMetric.html" target="_top" xlink:title="Computes similarity between two objects to be registered.">
<polygon fill="white" stroke="black" points="1054,-22.5 1054,-52.5 1265,-52.5 1265,-22.5 1054,-22.5"/>
<text text-anchor="start" x="1062" y="-40.5" font-family="Helvetica,sans-Serif" font-size="10.00">itk::HistogramImageToImage</text>
<text text-anchor="middle" x="1159.5" y="-29.5" font-family="Helvetica,sans-Serif" font-size="10.00">Metric&lt; TFixedImage, TMovingImage &gt;</text>
</a>
</g>
</g>
<!-- Node2&#45;&gt;Node1 -->
<g id="edge1" class="edge">
<title>Node2&#45;&gt;Node1</title>
<path fill="none" stroke="midnightblue" d="M1275.28,-37.5C1284.25,-37.5 1293.19,-37.5 1301.88,-37.5"/>
<polygon fill="midnightblue" stroke="midnightblue" points="1275.14,-34 1265.14,-37.5 1275.14,-41 1275.14,-34"/>
</g>
<!-- Node3 -->
<g id="node3" class="node">
<title>Node3</title>
<g id="a_node3"><a xlink:href="classitk_1_1ImageToImageMetric.html" target="_top" xlink:title="Computes similarity between regions of two images.">
<polygon fill="white" stroke="black" points="837,-22.5 837,-52.5 1017,-52.5 1017,-22.5 837,-22.5"/>
<text text-anchor="start" x="845" y="-40.5" font-family="Helvetica,sans-Serif" font-size="10.00">itk::ImageToImageMetric</text>
<text text-anchor="middle" x="927" y="-29.5" font-family="Helvetica,sans-Serif" font-size="10.00">&lt; TFixedImage, TMovingImage &gt;</text>
</a>
</g>
</g>
<!-- Node3&#45;&gt;Node2 -->
<g id="edge2" class="edge">
<title>Node3&#45;&gt;Node2</title>
<path fill="none" stroke="midnightblue" d="M1027.35,-37.5C1036.14,-37.5 1045.04,-37.5 1053.86,-37.5"/>
<polygon fill="midnightblue" stroke="midnightblue" points="1027.12,-34 1017.12,-37.5 1027.12,-41 1027.12,-34"/>
</g>
<!-- Node4 -->
<g id="node4" class="node">
<title>Node4</title>
<g id="a_node4"><a xlink:href="classitk_1_1SingleValuedCostFunction.html" target="_top" xlink:title="This class is a base for the CostFunctions returning a single value.">
<polygon fill="white" stroke="black" points="639,-28 639,-47 800,-47 800,-28 639,-28"/>
<text text-anchor="middle" x="719.5" y="-35" font-family="Helvetica,sans-Serif" font-size="10.00">itk::SingleValuedCostFunction</text>
</a>
</g>
</g>
<!-- Node4&#45;&gt;Node3 -->
<g id="edge3" class="edge">
<title>Node4&#45;&gt;Node3</title>
<path fill="none" stroke="midnightblue" d="M810.42,-37.5C819.16,-37.5 828.02,-37.5 836.74,-37.5"/>
<polygon fill="midnightblue" stroke="midnightblue" points="810.25,-34 800.25,-37.5 810.25,-41 810.25,-34"/>
</g>
<!-- Node5 -->
<g id="node5" class="node">
<title>Node5</title>
<g id="a_node5"><a xlink:href="classitk_1_1CostFunctionTemplate.html" target="_top" xlink:title=" ">
<polygon fill="white" stroke="black" points="522,-28 522,-47 602,-47 602,-28 522,-28"/>
<text text-anchor="middle" x="562" y="-35" font-family="Helvetica,sans-Serif" font-size="10.00">CostFunction</text>
</a>
</g>
</g>
<!-- Node5&#45;&gt;Node4 -->
<g id="edge4" class="edge">
<title>Node5&#45;&gt;Node4</title>
<path fill="none" stroke="midnightblue" d="M612.32,-37.5C620.82,-37.5 629.86,-37.5 638.92,-37.5"/>
<polygon fill="midnightblue" stroke="midnightblue" points="612.24,-34 602.24,-37.5 612.24,-41 612.24,-34"/>
</g>
<!-- Node6 -->
<g id="node6" class="node">
<title>Node6</title>
<g id="a_node6"><a xlink:href="classitk_1_1Object.html" target="_top" xlink:title="Base class for most ITK classes.">
<polygon fill="white" stroke="black" points="128,-28 128,-47 195,-47 195,-28 128,-28"/>
<text text-anchor="middle" x="161.5" y="-35" font-family="Helvetica,sans-Serif" font-size="10.00">itk::Object</text>
</a>
</g>
</g>
<!-- Node6&#45;&gt;Node5 -->
<g id="edge5" class="edge">
<title>Node6&#45;&gt;Node5</title>
<path fill="none" stroke="midnightblue" d="M205.18,-44.74C207.82,-45.04 210.44,-45.3 213,-45.5 341.93,-55.65 374.98,-54.51 504,-45.5 509.78,-45.1 515.87,-44.46 521.83,-43.73"/>
<polygon fill="midnightblue" stroke="midnightblue" points="205.38,-41.24 195.01,-43.42 204.47,-48.18 205.38,-41.24"/>
</g>
<!-- Node8 -->
<g id="node8" class="node">
<title>Node8</title>
<g id="a_node8"><a xlink:href="classitk_1_1CostFunctionTemplate.html" target="_top" xlink:title=" ">
<polygon fill="white" stroke="black" points="232,-0.5 232,-30.5 427,-30.5 427,-0.5 232,-0.5"/>
<text text-anchor="start" x="240" y="-18.5" font-family="Helvetica,sans-Serif" font-size="10.00">itk::CostFunctionTemplate</text>
<text text-anchor="middle" x="329.5" y="-7.5" font-family="Helvetica,sans-Serif" font-size="10.00">&lt; TInternalComputationValueType &gt;</text>
</a>
</g>
</g>
<!-- Node6&#45;&gt;Node8 -->
<g id="edge8" class="edge">
<title>Node6&#45;&gt;Node8</title>
<path fill="none" stroke="midnightblue" d="M205.33,-31.82C213.58,-30.73 222.52,-29.55 231.69,-28.33"/>
<polygon fill="midnightblue" stroke="midnightblue" points="204.75,-28.37 195.3,-33.15 205.67,-35.31 204.75,-28.37"/>
</g>
<!-- Node7 -->
<g id="node7" class="node">
<title>Node7</title>
<g id="a_node7"><a xlink:href="classitk_1_1LightObject.html" target="_top" xlink:title="Light weight base class for most itk classes.">
<polygon fill="white" stroke="black" points="0,-28 0,-47 91,-47 91,-28 0,-28"/>
<text text-anchor="middle" x="45.5" y="-35" font-family="Helvetica,sans-Serif" font-size="10.00">itk::LightObject</text>
</a>
</g>
</g>
<!-- Node7&#45;&gt;Node6 -->
<g id="edge6" class="edge">
<title>Node7&#45;&gt;Node6</title>
<path fill="none" stroke="midnightblue" d="M101.39,-37.5C110.45,-37.5 119.59,-37.5 127.88,-37.5"/>
<polygon fill="midnightblue" stroke="midnightblue" points="101.23,-34 91.23,-37.5 101.23,-41 101.23,-34"/>
</g>
<!-- Node8&#45;&gt;Node5 -->
<g id="edge7" class="edge">
<title>Node8&#45;&gt;Node5</title>
<path fill="none" stroke="orange" stroke-dasharray="5,2" d="M437.44,-25.71C467.6,-28.59 498.53,-31.54 521.9,-33.77"/>
<polygon fill="orange" stroke="orange" points="437.54,-22.2 427.25,-24.73 436.87,-29.17 437.54,-22.2"/>
<text text-anchor="middle" x="474.5" y="-35.5" font-family="Helvetica,sans-Serif" font-size="10.00"> &lt; double &gt;</text>
</g>
</g>
</svg>
