<?xml version="1.0" encoding="UTF-8" standalone="no"?>
<!DOCTYPE svg PUBLIC "-//W3C//DTD SVG 1.1//EN"
 "http://www.w3.org/Graphics/SVG/1.1/DTD/svg11.dtd">
<!-- Generated by graphviz version 2.43.0 (0)
 -->
<!-- Title: itk::MaskedRankImageFilter&lt; TInputImage, TMaskImage, TOutputImage, TKernel &gt; Pages: 1 -->
<svg width="2776pt" height="164pt"
 viewBox="0.00 0.00 2776.00 163.50" xmlns="http://www.w3.org/2000/svg" xmlns:xlink="http://www.w3.org/1999/xlink">
<g id="graph0" class="graph" transform="scale(1 1) rotate(0) translate(4 159.5)">
<title>itk::MaskedRankImageFilter&lt; TInputImage, TMaskImage, TOutputImage, TKernel &gt;</title>
<polygon fill="white" stroke="transparent" points="-4,4 -4,-159.5 2772,-159.5 2772,4 -4,4"/>
<!-- Node1 -->
<g id="node1" class="node">
<title>Node1</title>
<g id="a_node1"><a xlink:title="Rank filter of a greyscale image.">
<polygon fill="#bfbfbf" stroke="black" points="2607,-41 2607,-82 2768,-82 2768,-41 2607,-41"/>
<text text-anchor="start" x="2615" y="-70" font-family="Helvetica,sans-Serif" font-size="10.00">itk::MaskedRankImageFilter</text>
<text text-anchor="start" x="2615" y="-59" font-family="Helvetica,sans-Serif" font-size="10.00">&lt; TInputImage, TMaskImage,</text>
<text text-anchor="middle" x="2687.5" y="-48" font-family="Helvetica,sans-Serif" font-size="10.00"> TOutputImage, TKernel &gt;</text>
</a>
</g>
</g>
<!-- Node2 -->
<g id="node2" class="node">
<title>Node2</title>
<g id="a_node2"><a xlink:href="classitk_1_1MaskedMovingHistogramImageFilter.html" target="_top" xlink:title=" ">
<polygon fill="white" stroke="black" points="2324,-24.5 2324,-98.5 2570,-98.5 2570,-24.5 2324,-24.5"/>
<text text-anchor="start" x="2332" y="-86.5" font-family="Helvetica,sans-Serif" font-size="10.00">itk::MaskedMovingHistogram</text>
<text text-anchor="start" x="2332" y="-75.5" font-family="Helvetica,sans-Serif" font-size="10.00">ImageFilter&lt; TInputImage,</text>
<text text-anchor="start" x="2332" y="-64.5" font-family="Helvetica,sans-Serif" font-size="10.00"> TMaskImage, TOutputImage,</text>
<text text-anchor="start" x="2332" y="-53.5" font-family="Helvetica,sans-Serif" font-size="10.00"> FlatStructuringElement&lt; TInputImage</text>
<text text-anchor="start" x="2332" y="-42.5" font-family="Helvetica,sans-Serif" font-size="10.00">::ImageDimension &gt;, Function::RankHistogram</text>
<text text-anchor="middle" x="2447" y="-31.5" font-family="Helvetica,sans-Serif" font-size="10.00">&lt; TInputImage::PixelType &gt; &gt;</text>
</a>
</g>
</g>
<!-- Node2&#45;&gt;Node1 -->
<g id="edge1" class="edge">
<title>Node2&#45;&gt;Node1</title>
<path fill="none" stroke="midnightblue" d="M2580.27,-61.5C2589.3,-61.5 2598.23,-61.5 2606.85,-61.5"/>
<polygon fill="midnightblue" stroke="midnightblue" points="2580.04,-58 2570.04,-61.5 2580.04,-65 2580.04,-58"/>
</g>
<!-- Node3 -->
<g id="node3" class="node">
<title>Node3</title>
<g id="a_node3"><a xlink:href="classitk_1_1MovingHistogramImageFilterBase.html" target="_top" xlink:title=" ">
<polygon fill="white" stroke="black" points="1866,-71.5 1866,-123.5 2074,-123.5 2074,-71.5 1866,-71.5"/>
<text text-anchor="start" x="1874" y="-111.5" font-family="Helvetica,sans-Serif" font-size="10.00">itk::MovingHistogramImage</text>
<text text-anchor="start" x="1874" y="-100.5" font-family="Helvetica,sans-Serif" font-size="10.00">FilterBase&lt; TInputImage,</text>
<text text-anchor="start" x="1874" y="-89.5" font-family="Helvetica,sans-Serif" font-size="10.00"> TOutputImage, FlatStructuringElement</text>
<text text-anchor="middle" x="1970" y="-78.5" font-family="Helvetica,sans-Serif" font-size="10.00">&lt; TInputImage::ImageDimension &gt; &gt;</text>
</a>
</g>
</g>
<!-- Node3&#45;&gt;Node2 -->
<g id="edge2" class="edge">
<title>Node3&#45;&gt;Node2</title>
<path fill="none" stroke="midnightblue" d="M2084.47,-95.35C2149.44,-93.39 2232.43,-89.64 2306,-82.5 2311.87,-81.93 2317.87,-81.28 2323.93,-80.58"/>
<polygon fill="midnightblue" stroke="midnightblue" points="2084.09,-91.86 2074.2,-95.65 2084.3,-98.86 2084.09,-91.86"/>
</g>
<!-- Node4 -->
<g id="node4" class="node">
<title>Node4</title>
<g id="a_node4"><a xlink:href="classitk_1_1KernelImageFilter.html" target="_top" xlink:title=" ">
<polygon fill="white" stroke="black" points="1440,-81.5 1440,-133.5 1645,-133.5 1645,-81.5 1440,-81.5"/>
<text text-anchor="start" x="1448" y="-121.5" font-family="Helvetica,sans-Serif" font-size="10.00">itk::KernelImageFilter</text>
<text text-anchor="start" x="1448" y="-110.5" font-family="Helvetica,sans-Serif" font-size="10.00">&lt; TInputImage, TOutputImage,</text>
<text text-anchor="start" x="1448" y="-99.5" font-family="Helvetica,sans-Serif" font-size="10.00"> FlatStructuringElement&lt; TInputImage</text>
<text text-anchor="middle" x="1542.5" y="-88.5" font-family="Helvetica,sans-Serif" font-size="10.00">::ImageDimension &gt; &gt;</text>
</a>
</g>
</g>
<!-- Node4&#45;&gt;Node3 -->
<g id="edge3" class="edge">
<title>Node4&#45;&gt;Node3</title>
<path fill="none" stroke="midnightblue" d="M1655.47,-104.87C1720.68,-103.34 1802.32,-101.42 1865.94,-99.92"/>
<polygon fill="midnightblue" stroke="midnightblue" points="1655.06,-101.38 1645.15,-105.11 1655.23,-108.38 1655.06,-101.38"/>
</g>
<!-- Node5 -->
<g id="node5" class="node">
<title>Node5</title>
<g id="a_node5"><a xlink:href="classitk_1_1BoxImageFilter.html" target="_top" xlink:title="A base class for all the filters working on a box neighborhood.">
<polygon fill="white" stroke="black" points="838,-75.5 838,-105.5 1014,-105.5 1014,-75.5 838,-75.5"/>
<text text-anchor="start" x="846" y="-93.5" font-family="Helvetica,sans-Serif" font-size="10.00">itk::BoxImageFilter</text>
<text text-anchor="middle" x="926" y="-82.5" font-family="Helvetica,sans-Serif" font-size="10.00">&lt; TInputImage, TOutputImage &gt;</text>
</a>
</g>
</g>
<!-- Node5&#45;&gt;Node4 -->
<g id="edge4" class="edge">
<title>Node5&#45;&gt;Node4</title>
<path fill="none" stroke="midnightblue" d="M1024.25,-95.4C1033.29,-95.8 1042.32,-96.17 1051,-96.5 1185.27,-101.55 1340.32,-104.56 1439.55,-106.12"/>
<polygon fill="midnightblue" stroke="midnightblue" points="1024.19,-91.9 1014.05,-94.95 1023.88,-98.89 1024.19,-91.9"/>
</g>
<!-- Node13 -->
<g id="node13" class="node">
<title>Node13</title>
<g id="a_node13"><a xlink:href="classitk_1_1KernelImageFilter.html" target="_top" xlink:title="A base class for all the filters working on an arbitrary shaped neighborhood.">
<polygon fill="white" stroke="black" points="1051,-46 1051,-87 1219,-87 1219,-46 1051,-46"/>
<text text-anchor="start" x="1059" y="-75" font-family="Helvetica,sans-Serif" font-size="10.00">itk::KernelImageFilter</text>
<text text-anchor="start" x="1059" y="-64" font-family="Helvetica,sans-Serif" font-size="10.00">&lt; TInputImage, TOutputImage,</text>
<text text-anchor="middle" x="1135" y="-53" font-family="Helvetica,sans-Serif" font-size="10.00"> TKernel &gt;</text>
</a>
</g>
</g>
<!-- Node5&#45;&gt;Node13 -->
<g id="edge13" class="edge">
<title>Node5&#45;&gt;Node13</title>
<path fill="none" stroke="midnightblue" d="M1024.21,-79.23C1033.13,-78.2 1042.1,-77.15 1050.88,-76.14"/>
<polygon fill="midnightblue" stroke="midnightblue" points="1023.72,-75.76 1014.19,-80.39 1024.52,-82.72 1023.72,-75.76"/>
</g>
<!-- Node6 -->
<g id="node6" class="node">
<title>Node6</title>
<g id="a_node6"><a xlink:href="classitk_1_1ImageToImageFilter.html" target="_top" xlink:title="Base class for filters that take an image as input and produce an image as output.">
<polygon fill="white" stroke="black" points="625,-75.5 625,-105.5 801,-105.5 801,-75.5 625,-75.5"/>
<text text-anchor="start" x="633" y="-93.5" font-family="Helvetica,sans-Serif" font-size="10.00">itk::ImageToImageFilter</text>
<text text-anchor="middle" x="713" y="-82.5" font-family="Helvetica,sans-Serif" font-size="10.00">&lt; TInputImage, TOutputImage &gt;</text>
</a>
</g>
</g>
<!-- Node6&#45;&gt;Node5 -->
<g id="edge5" class="edge">
<title>Node6&#45;&gt;Node5</title>
<path fill="none" stroke="midnightblue" d="M811.07,-90.5C819.99,-90.5 828.99,-90.5 837.82,-90.5"/>
<polygon fill="midnightblue" stroke="midnightblue" points="811.04,-87 801.04,-90.5 811.04,-94 811.04,-87"/>
</g>
<!-- Node7 -->
<g id="node7" class="node">
<title>Node7</title>
<g id="a_node7"><a xlink:href="classitk_1_1ImageSource.html" target="_top" xlink:title="Base class for all process objects that output image data.">
<polygon fill="white" stroke="black" points="425.5,-107.5 425.5,-137.5 574.5,-137.5 574.5,-107.5 425.5,-107.5"/>
<text text-anchor="start" x="433.5" y="-125.5" font-family="Helvetica,sans-Serif" font-size="10.00">itk::ImageSource&lt; TOutput</text>
<text text-anchor="middle" x="500" y="-114.5" font-family="Helvetica,sans-Serif" font-size="10.00">Image &gt;</text>
</a>
</g>
</g>
<!-- Node7&#45;&gt;Node6 -->
<g id="edge6" class="edge">
<title>Node7&#45;&gt;Node6</title>
<path fill="none" stroke="midnightblue" d="M584.55,-109.83C597.85,-107.81 611.62,-105.72 624.99,-103.7"/>
<polygon fill="midnightblue" stroke="midnightblue" points="583.86,-106.39 574.5,-111.35 584.91,-113.31 583.86,-106.39"/>
</g>
<!-- Node8 -->
<g id="node8" class="node">
<title>Node8</title>
<g id="a_node8"><a xlink:href="classitk_1_1ProcessObject.html" target="_top" xlink:title="The base class for all process objects (source, filters, mappers) in the Insight data processing pipe...">
<polygon fill="white" stroke="black" points="251.5,-136 251.5,-155 355.5,-155 355.5,-136 251.5,-136"/>
<text text-anchor="middle" x="303.5" y="-143" font-family="Helvetica,sans-Serif" font-size="10.00">itk::ProcessObject</text>
</a>
</g>
</g>
<!-- Node8&#45;&gt;Node7 -->
<g id="edge7" class="edge">
<title>Node8&#45;&gt;Node7</title>
<path fill="none" stroke="midnightblue" d="M365.57,-138.28C384.48,-136.04 405.52,-133.55 425.19,-131.23"/>
<polygon fill="midnightblue" stroke="midnightblue" points="365.12,-134.81 355.6,-139.46 365.94,-141.76 365.12,-134.81"/>
</g>
<!-- Node9 -->
<g id="node9" class="node">
<title>Node9</title>
<g id="a_node9"><a xlink:href="classitk_1_1Object.html" target="_top" xlink:title="Base class for most ITK classes.">
<polygon fill="white" stroke="black" points="128,-136 128,-155 195,-155 195,-136 128,-136"/>
<text text-anchor="middle" x="161.5" y="-143" font-family="Helvetica,sans-Serif" font-size="10.00">itk::Object</text>
</a>
</g>
</g>
<!-- Node9&#45;&gt;Node8 -->
<g id="edge8" class="edge">
<title>Node9&#45;&gt;Node8</title>
<path fill="none" stroke="midnightblue" d="M205.49,-145.5C219.95,-145.5 236.22,-145.5 251.25,-145.5"/>
<polygon fill="midnightblue" stroke="midnightblue" points="205.32,-142 195.32,-145.5 205.32,-149 205.32,-142"/>
</g>
<!-- Node10 -->
<g id="node10" class="node">
<title>Node10</title>
<g id="a_node10"><a xlink:href="classitk_1_1LightObject.html" target="_top" xlink:title="Light weight base class for most itk classes.">
<polygon fill="white" stroke="black" points="0,-136 0,-155 91,-155 91,-136 0,-136"/>
<text text-anchor="middle" x="45.5" y="-143" font-family="Helvetica,sans-Serif" font-size="10.00">itk::LightObject</text>
</a>
</g>
</g>
<!-- Node10&#45;&gt;Node9 -->
<g id="edge9" class="edge">
<title>Node10&#45;&gt;Node9</title>
<path fill="none" stroke="midnightblue" d="M101.39,-145.5C110.45,-145.5 119.59,-145.5 127.88,-145.5"/>
<polygon fill="midnightblue" stroke="midnightblue" points="101.23,-142 91.23,-145.5 101.23,-149 101.23,-142"/>
</g>
<!-- Node11 -->
<g id="node11" class="node">
<title>Node11</title>
<g id="a_node11"><a xlink:href="structitk_1_1ImageSourceCommon.html" target="_top" xlink:title="Secondary base class of ImageSource common between templates.">
<polygon fill="white" stroke="black" points="232,-98 232,-117 375,-117 375,-98 232,-98"/>
<text text-anchor="middle" x="303.5" y="-105" font-family="Helvetica,sans-Serif" font-size="10.00">itk::ImageSourceCommon</text>
</a>
</g>
</g>
<!-- Node11&#45;&gt;Node7 -->
<g id="edge10" class="edge">
<title>Node11&#45;&gt;Node7</title>
<path fill="none" stroke="#8b1a1a" d="M385.31,-113.73C398.58,-114.76 412.26,-115.81 425.34,-116.82"/>
<polygon fill="#8b1a1a" stroke="#8b1a1a" points="385.51,-110.24 375.27,-112.96 384.97,-117.22 385.51,-110.24"/>
</g>
<!-- Node12 -->
<g id="node12" class="node">
<title>Node12</title>
<g id="a_node12"><a xlink:href="classitk_1_1ImageToImageFilterCommon.html" target="_top" xlink:title="Secondary base class of ImageToImageFilter common between templates.">
<polygon fill="white" stroke="black" points="412,-69 412,-88 588,-88 588,-69 412,-69"/>
<text text-anchor="middle" x="500" y="-76" font-family="Helvetica,sans-Serif" font-size="10.00">itk::ImageToImageFilterCommon</text>
</a>
</g>
</g>
<!-- Node12&#45;&gt;Node6 -->
<g id="edge11" class="edge">
<title>Node12&#45;&gt;Node6</title>
<path fill="none" stroke="#8b1a1a" d="M598.07,-84.02C606.99,-84.53 615.99,-85.04 624.82,-85.54"/>
<polygon fill="#8b1a1a" stroke="#8b1a1a" points="598.22,-80.52 588.04,-83.45 597.83,-87.51 598.22,-80.52"/>
</g>
<!-- Node13&#45;&gt;Node4 -->
<g id="edge12" class="edge">
<title>Node13&#45;&gt;Node4</title>
<path fill="none" stroke="orange" stroke-dasharray="5,2" d="M1229.46,-59.94C1285.63,-57.78 1358.33,-58.14 1422,-68.5 1439.12,-71.29 1457.14,-76.1 1473.84,-81.42"/>
<polygon fill="orange" stroke="orange" points="1229.01,-56.46 1219.17,-60.37 1229.3,-63.45 1229.01,-56.46"/>
<text text-anchor="start" x="1237" y="-93.5" font-family="Helvetica,sans-Serif" font-size="10.00"> &lt; TInputImage, TOutputImage,</text>
<text text-anchor="start" x="1237" y="-82.5" font-family="Helvetica,sans-Serif" font-size="10.00"> FlatStructuringElement</text>
<text text-anchor="middle" x="1329.5" y="-71.5" font-family="Helvetica,sans-Serif" font-size="10.00">&lt; TInputImage::ImageDimension &gt; &gt;</text>
</g>
<!-- Node14 -->
<g id="node14" class="node">
<title>Node14</title>
<g id="a_node14"><a xlink:href="classitk_1_1MovingHistogramImageFilterBase.html" target="_top" xlink:title="Implements a generic moving histogram algorithm.">
<polygon fill="white" stroke="black" points="1466,-14 1466,-55 1619,-55 1619,-14 1466,-14"/>
<text text-anchor="start" x="1474" y="-43" font-family="Helvetica,sans-Serif" font-size="10.00">itk::MovingHistogramImage</text>
<text text-anchor="start" x="1474" y="-32" font-family="Helvetica,sans-Serif" font-size="10.00">FilterBase&lt; TInputImage,</text>
<text text-anchor="middle" x="1542.5" y="-21" font-family="Helvetica,sans-Serif" font-size="10.00"> TOutputImage, TKernel &gt;</text>
</a>
</g>
</g>
<!-- Node13&#45;&gt;Node14 -->
<g id="edge15" class="edge">
<title>Node13&#45;&gt;Node14</title>
<path fill="none" stroke="midnightblue" d="M1229.25,-49.43C1231.86,-49.1 1234.44,-48.79 1237,-48.5 1314.71,-39.83 1404.15,-36.5 1465.89,-35.24"/>
<polygon fill="midnightblue" stroke="midnightblue" points="1228.54,-45.99 1219.1,-50.8 1229.48,-52.93 1228.54,-45.99"/>
</g>
<!-- Node14&#45;&gt;Node3 -->
<g id="edge14" class="edge">
<title>Node14&#45;&gt;Node3</title>
<path fill="none" stroke="orange" stroke-dasharray="5,2" d="M1629.13,-38.55C1690.46,-42.45 1774.81,-49.85 1848,-63.5 1859.58,-65.66 1871.66,-68.42 1883.52,-71.44"/>
<polygon fill="orange" stroke="orange" points="1629.3,-35.06 1619.1,-37.93 1628.87,-42.04 1629.3,-35.06"/>
<text text-anchor="start" x="1663" y="-88.5" font-family="Helvetica,sans-Serif" font-size="10.00"> &lt; TInputImage, TOutputImage,</text>
<text text-anchor="start" x="1663" y="-77.5" font-family="Helvetica,sans-Serif" font-size="10.00"> FlatStructuringElement</text>
<text text-anchor="middle" x="1755.5" y="-66.5" font-family="Helvetica,sans-Serif" font-size="10.00">&lt; TInputImage::ImageDimension &gt; &gt;</text>
</g>
<!-- Node15 -->
<g id="node15" class="node">
<title>Node15</title>
<g id="a_node15"><a xlink:href="classitk_1_1MaskedMovingHistogramImageFilter.html" target="_top" xlink:title=" ">
<polygon fill="white" stroke="black" points="1889.5,-0.5 1889.5,-52.5 2050.5,-52.5 2050.5,-0.5 1889.5,-0.5"/>
<text text-anchor="start" x="1897.5" y="-40.5" font-family="Helvetica,sans-Serif" font-size="10.00">itk::MaskedMovingHistogram</text>
<text text-anchor="start" x="1897.5" y="-29.5" font-family="Helvetica,sans-Serif" font-size="10.00">ImageFilter&lt; TInputImage,</text>
<text text-anchor="start" x="1897.5" y="-18.5" font-family="Helvetica,sans-Serif" font-size="10.00"> TMaskImage, TOutputImage,</text>
<text text-anchor="middle" x="1970" y="-7.5" font-family="Helvetica,sans-Serif" font-size="10.00"> TKernel, THistogram &gt;</text>
</a>
</g>
</g>
<!-- Node14&#45;&gt;Node15 -->
<g id="edge17" class="edge">
<title>Node14&#45;&gt;Node15</title>
<path fill="none" stroke="midnightblue" d="M1629.1,-32.89C1705.11,-31.46 1815.31,-29.39 1889.43,-28"/>
<polygon fill="midnightblue" stroke="midnightblue" points="1629.01,-29.39 1619.08,-33.08 1629.14,-36.39 1629.01,-29.39"/>
</g>
<!-- Node15&#45;&gt;Node2 -->
<g id="edge16" class="edge">
<title>Node15&#45;&gt;Node2</title>
<path fill="none" stroke="orange" stroke-dasharray="5,2" d="M2060.72,-21.07C2128.38,-18.36 2223.35,-17.48 2306,-27.5 2311.84,-28.21 2317.78,-29.07 2323.76,-30.06"/>
<polygon fill="orange" stroke="orange" points="2060.36,-17.58 2050.52,-21.5 2060.66,-24.58 2060.36,-17.58"/>
<text text-anchor="start" x="2092" y="-74.5" font-family="Helvetica,sans-Serif" font-size="10.00"> &lt; TInputImage, TMaskImage,</text>
<text text-anchor="start" x="2092" y="-63.5" font-family="Helvetica,sans-Serif" font-size="10.00"> TOutputImage, FlatStructuring</text>
<text text-anchor="start" x="2092" y="-52.5" font-family="Helvetica,sans-Serif" font-size="10.00">Element&lt; TInputImage::ImageDimension</text>
<text text-anchor="start" x="2092" y="-41.5" font-family="Helvetica,sans-Serif" font-size="10.00"> &gt;, Function::RankHistogram&lt; TInputImage</text>
<text text-anchor="middle" x="2199" y="-30.5" font-family="Helvetica,sans-Serif" font-size="10.00">::PixelType &gt; &gt;</text>
</g>
</g>
</svg>
