<?xml version="1.0" encoding="UTF-8" standalone="no"?>
<!DOCTYPE svg PUBLIC "-//W3C//DTD SVG 1.1//EN"
 "http://www.w3.org/Graphics/SVG/1.1/DTD/svg11.dtd">
<!-- Generated by graphviz version 2.43.0 (0)
 -->
<!-- Title: itk::TriangleMeshToSimplexMeshFilter&lt; TInputMesh, TOutputMesh &gt; Pages: 1 -->
<svg width="2433pt" height="567pt"
 viewBox="0.00 0.00 2433.00 566.50" xmlns="http://www.w3.org/2000/svg" xmlns:xlink="http://www.w3.org/1999/xlink">
<g id="graph0" class="graph" transform="scale(1 1) rotate(0) translate(4 562.5)">
<title>itk::TriangleMeshToSimplexMeshFilter&lt; TInputMesh, TOutputMesh &gt;</title>
<polygon fill="white" stroke="transparent" points="-4,4 -4,-562.5 2429,-562.5 2429,4 -4,4"/>
<!-- Node1 -->
<g id="node1" class="node">
<title>Node1</title>
<g id="a_node1"><a xlink:title="This filter converts a triangle mesh into a 2&#45;simplex mesh.">
<polygon fill="#bfbfbf" stroke="black" points="2275,-58 2275,-99 2425,-99 2425,-58 2275,-58"/>
<text text-anchor="start" x="2283" y="-87" font-family="Helvetica,sans-Serif" font-size="10.00">itk::TriangleMeshToSimplex</text>
<text text-anchor="start" x="2283" y="-76" font-family="Helvetica,sans-Serif" font-size="10.00">MeshFilter&lt; TInputMesh,</text>
<text text-anchor="middle" x="2350" y="-65" font-family="Helvetica,sans-Serif" font-size="10.00"> TOutputMesh &gt;</text>
</a>
</g>
</g>
<!-- Node2 -->
<g id="node2" class="node">
<title>Node2</title>
<g id="a_node2"><a xlink:href="classitk_1_1MeshToMeshFilter.html" target="_top" xlink:title="MeshToMeshFilter is the base class for all process objects that output mesh data, and require mesh da...">
<polygon fill="white" stroke="black" points="1975,-169.5 1975,-199.5 2142,-199.5 2142,-169.5 1975,-169.5"/>
<text text-anchor="start" x="1983" y="-187.5" font-family="Helvetica,sans-Serif" font-size="10.00">itk::MeshToMeshFilter</text>
<text text-anchor="middle" x="2058.5" y="-176.5" font-family="Helvetica,sans-Serif" font-size="10.00">&lt; TInputMesh, TOutputMesh &gt;</text>
</a>
</g>
</g>
<!-- Node2&#45;&gt;Node1 -->
<g id="edge1" class="edge">
<title>Node2&#45;&gt;Node1</title>
<path fill="none" stroke="midnightblue" d="M2110.64,-165.93C2150.53,-151.42 2207.31,-130.74 2257,-112.5 2268.83,-108.16 2281.51,-103.49 2293.55,-99.04"/>
<polygon fill="midnightblue" stroke="midnightblue" points="2109.33,-162.68 2101.13,-169.38 2111.73,-169.26 2109.33,-162.68"/>
</g>
<!-- Node3 -->
<g id="node3" class="node">
<title>Node3</title>
<g id="a_node3"><a xlink:href="classitk_1_1MeshSource.html" target="_top" xlink:title="Base class for all process objects that output mesh data.">
<polygon fill="white" stroke="black" points="1793,-272.5 1793,-302.5 1938,-302.5 1938,-272.5 1793,-272.5"/>
<text text-anchor="start" x="1801" y="-290.5" font-family="Helvetica,sans-Serif" font-size="10.00">itk::MeshSource&lt; TOutput</text>
<text text-anchor="middle" x="1865.5" y="-279.5" font-family="Helvetica,sans-Serif" font-size="10.00">Mesh &gt;</text>
</a>
</g>
</g>
<!-- Node3&#45;&gt;Node2 -->
<g id="edge2" class="edge">
<title>Node3&#45;&gt;Node2</title>
<path fill="none" stroke="midnightblue" d="M1903.63,-267.48C1940.5,-247.59 1996.21,-217.55 2029.51,-199.59"/>
<polygon fill="midnightblue" stroke="midnightblue" points="1901.82,-264.47 1894.68,-272.3 1905.15,-270.64 1901.82,-264.47"/>
</g>
<!-- Node4 -->
<g id="node4" class="node">
<title>Node4</title>
<g id="a_node4"><a xlink:href="classitk_1_1ProcessObject.html" target="_top" xlink:title="The base class for all process objects (source, filters, mappers) in the Insight data processing pipe...">
<polygon fill="white" stroke="black" points="1544,-296 1544,-315 1648,-315 1648,-296 1544,-296"/>
<text text-anchor="middle" x="1596" y="-303" font-family="Helvetica,sans-Serif" font-size="10.00">itk::ProcessObject</text>
</a>
</g>
</g>
<!-- Node4&#45;&gt;Node3 -->
<g id="edge3" class="edge">
<title>Node4&#45;&gt;Node3</title>
<path fill="none" stroke="midnightblue" d="M1658.43,-301.37C1698.51,-298.67 1750.98,-295.14 1792.95,-292.31"/>
<polygon fill="midnightblue" stroke="midnightblue" points="1658,-297.89 1648.26,-302.05 1658.47,-304.87 1658,-297.89"/>
</g>
<!-- Node5 -->
<g id="node5" class="node">
<title>Node5</title>
<g id="a_node5"><a xlink:href="classitk_1_1Object.html" target="_top" xlink:title="Base class for most ITK classes.">
<polygon fill="white" stroke="black" points="1248,-346 1248,-365 1315,-365 1315,-346 1248,-346"/>
<text text-anchor="middle" x="1281.5" y="-353" font-family="Helvetica,sans-Serif" font-size="10.00">itk::Object</text>
</a>
</g>
</g>
<!-- Node5&#45;&gt;Node4 -->
<g id="edge4" class="edge">
<title>Node5&#45;&gt;Node4</title>
<path fill="none" stroke="midnightblue" d="M1325.49,-350.26C1374.26,-344.1 1456.1,-333.1 1526,-320.5 1534.93,-318.89 1544.46,-316.96 1553.5,-315.02"/>
<polygon fill="midnightblue" stroke="midnightblue" points="1324.8,-346.82 1315.31,-351.54 1325.67,-353.77 1324.8,-346.82"/>
</g>
<!-- Node6 -->
<g id="node6" class="node">
<title>Node6</title>
<g id="a_node6"><a xlink:href="classitk_1_1LightObject.html" target="_top" xlink:title="Light weight base class for most itk classes.">
<polygon fill="white" stroke="black" points="911,-292 911,-311 1002,-311 1002,-292 911,-292"/>
<text text-anchor="middle" x="956.5" y="-299" font-family="Helvetica,sans-Serif" font-size="10.00">itk::LightObject</text>
</a>
</g>
</g>
<!-- Node6&#45;&gt;Node5 -->
<g id="edge5" class="edge">
<title>Node6&#45;&gt;Node5</title>
<path fill="none" stroke="midnightblue" d="M1012.09,-310.63C1079.55,-321.9 1192.2,-340.74 1247.64,-350.01"/>
<polygon fill="midnightblue" stroke="midnightblue" points="1012.51,-307.15 1002.07,-308.95 1011.36,-314.05 1012.51,-307.15"/>
</g>
<!-- Node7 -->
<g id="node7" class="node">
<title>Node7</title>
<g id="a_node7"><a xlink:title=" ">
<polygon fill="white" stroke="black" points="631.5,-292 631.5,-311 738.5,-311 738.5,-292 631.5,-292"/>
<text text-anchor="middle" x="685" y="-299" font-family="Helvetica,sans-Serif" font-size="10.00">std::atomic&lt; int &gt;</text>
</a>
</g>
</g>
<!-- Node7&#45;&gt;Node6 -->
<g id="edge6" class="edge">
<title>Node7&#45;&gt;Node6</title>
<path fill="none" stroke="#9a32cd" stroke-dasharray="5,2" d="M748.89,-301.5C798.48,-301.5 866.42,-301.5 910.63,-301.5"/>
<polygon fill="#9a32cd" stroke="#9a32cd" points="748.6,-298 738.6,-301.5 748.6,-305 748.6,-298"/>
<text text-anchor="middle" x="818.5" y="-304.5" font-family="Helvetica,sans-Serif" font-size="10.00"> m_ReferenceCount</text>
</g>
<!-- Node8 -->
<g id="node8" class="node">
<title>Node8</title>
<g id="a_node8"><a xlink:href="classitk_1_1TimeStamp.html" target="_top" xlink:title="Generate a unique, increasing time value.">
<polygon fill="white" stroke="black" points="910.5,-429 910.5,-448 1002.5,-448 1002.5,-429 910.5,-429"/>
<text text-anchor="middle" x="956.5" y="-436" font-family="Helvetica,sans-Serif" font-size="10.00">itk::TimeStamp</text>
</a>
</g>
</g>
<!-- Node8&#45;&gt;Node4 -->
<g id="edge19" class="edge">
<title>Node8&#45;&gt;Node4</title>
<path fill="none" stroke="#9a32cd" stroke-dasharray="5,2" d="M1012.83,-443.34C1057.81,-446.24 1122.78,-448.06 1179,-440.5 1337.47,-419.2 1378.5,-407.22 1526,-345.5 1546.05,-337.11 1567.46,-323.97 1581.02,-315.05"/>
<polygon fill="#9a32cd" stroke="#9a32cd" points="1012.92,-439.84 1002.7,-442.65 1012.44,-446.83 1012.92,-439.84"/>
<text text-anchor="middle" x="1281.5" y="-440.5" font-family="Helvetica,sans-Serif" font-size="10.00"> m_OutputInformationMTime</text>
</g>
<!-- Node8&#45;&gt;Node5 -->
<g id="edge7" class="edge">
<title>Node8&#45;&gt;Node5</title>
<path fill="none" stroke="#9a32cd" stroke-dasharray="5,2" d="M1012.61,-431.57C1057.89,-425.1 1123.39,-413.95 1179,-397.5 1208.26,-388.84 1240.59,-374.6 1260.73,-365.14"/>
<polygon fill="#9a32cd" stroke="#9a32cd" points="1012.11,-428.11 1002.7,-432.96 1013.08,-435.04 1012.11,-428.11"/>
<text text-anchor="middle" x="1112.5" y="-428.5" font-family="Helvetica,sans-Serif" font-size="10.00"> m_MTime</text>
</g>
<!-- Node9 -->
<g id="node9" class="node">
<title>Node9</title>
<g id="a_node9"><a xlink:title=" ">
<polygon fill="white" stroke="black" points="500,-393 500,-412 600,-412 600,-393 500,-393"/>
<text text-anchor="middle" x="550" y="-400" font-family="Helvetica,sans-Serif" font-size="10.00">std::atomic&lt; T &gt;</text>
</a>
</g>
</g>
<!-- Node9&#45;&gt;Node8 -->
<g id="edge8" class="edge">
<title>Node9&#45;&gt;Node8</title>
<path fill="none" stroke="#9a32cd" stroke-dasharray="5,2" d="M610.31,-407.78C691.9,-415.04 837.01,-427.95 910.37,-434.48"/>
<polygon fill="#9a32cd" stroke="#9a32cd" points="610.47,-404.28 600.2,-406.88 609.85,-411.25 610.47,-404.28"/>
<text text-anchor="middle" x="685" y="-422.5" font-family="Helvetica,sans-Serif" font-size="10.00"> m_GlobalTimeStamp</text>
</g>
<!-- Node10 -->
<g id="node10" class="node">
<title>Node10</title>
<g id="a_node10"><a xlink:title=" ">
<polygon fill="white" stroke="black" points="0,-351 0,-370 29,-370 29,-351 0,-351"/>
<text text-anchor="middle" x="14.5" y="-358" font-family="Helvetica,sans-Serif" font-size="10.00">T</text>
</a>
</g>
</g>
<!-- Node10&#45;&gt;Node9 -->
<g id="edge9" class="edge">
<title>Node10&#45;&gt;Node9</title>
<path fill="none" stroke="#9a32cd" stroke-dasharray="5,2" d="M38.65,-370.22C41.43,-371.12 44.25,-371.91 47,-372.5 210.03,-407.56 409.23,-407 499.88,-404.46"/>
<polygon fill="#9a32cd" stroke="#9a32cd" points="39.62,-366.85 29.02,-366.69 37.21,-373.42 39.62,-366.85"/>
<text text-anchor="middle" x="164.5" y="-399.5" font-family="Helvetica,sans-Serif" font-size="10.00"> ptr</text>
</g>
<!-- Node15 -->
<g id="node15" class="node">
<title>Node15</title>
<g id="a_node15"><a xlink:title=" ">
<polygon fill="white" stroke="black" points="114,-336 114,-355 215,-355 215,-336 114,-336"/>
<text text-anchor="middle" x="164.5" y="-343" font-family="Helvetica,sans-Serif" font-size="10.00">std::map&lt; K, T &gt;</text>
</a>
</g>
</g>
<!-- Node10&#45;&gt;Node15 -->
<g id="edge16" class="edge">
<title>Node10&#45;&gt;Node15</title>
<path fill="none" stroke="#9a32cd" stroke-dasharray="5,2" d="M39.24,-358.09C59.28,-356.06 88.63,-353.09 113.78,-350.54"/>
<polygon fill="#9a32cd" stroke="#9a32cd" points="38.75,-354.63 29.16,-359.12 39.46,-361.59 38.75,-354.63"/>
<text text-anchor="middle" x="71.5" y="-360.5" font-family="Helvetica,sans-Serif" font-size="10.00"> elements</text>
</g>
<!-- Node11 -->
<g id="node11" class="node">
<title>Node11</title>
<g id="a_node11"><a xlink:title=" ">
<polygon fill="white" stroke="black" points="888,-379.5 888,-409.5 1025,-409.5 1025,-379.5 888,-379.5"/>
<text text-anchor="start" x="896" y="-397.5" font-family="Helvetica,sans-Serif" font-size="10.00">std::unique_ptr&lt; Subject</text>
<text text-anchor="middle" x="956.5" y="-386.5" font-family="Helvetica,sans-Serif" font-size="10.00">Implementation &gt;</text>
</a>
</g>
</g>
<!-- Node11&#45;&gt;Node5 -->
<g id="edge10" class="edge">
<title>Node11&#45;&gt;Node5</title>
<path fill="none" stroke="#9a32cd" stroke-dasharray="5,2" d="M1035.45,-385.09C1103.36,-376.89 1198.48,-365.4 1247.86,-359.44"/>
<polygon fill="#9a32cd" stroke="#9a32cd" points="1034.72,-381.65 1025.21,-386.32 1035.56,-388.6 1034.72,-381.65"/>
<text text-anchor="middle" x="1112.5" y="-385.5" font-family="Helvetica,sans-Serif" font-size="10.00"> m_SubjectImplementation</text>
</g>
<!-- Node12 -->
<g id="node12" class="node">
<title>Node12</title>
<g id="a_node12"><a xlink:title=" ">
<polygon fill="white" stroke="black" points="890.5,-330.5 890.5,-360.5 1022.5,-360.5 1022.5,-330.5 890.5,-330.5"/>
<text text-anchor="start" x="898.5" y="-348.5" font-family="Helvetica,sans-Serif" font-size="10.00">std::unique_ptr&lt; itk</text>
<text text-anchor="middle" x="956.5" y="-337.5" font-family="Helvetica,sans-Serif" font-size="10.00">::MetaDataDictionary &gt;</text>
</a>
</g>
</g>
<!-- Node12&#45;&gt;Node5 -->
<g id="edge11" class="edge">
<title>Node12&#45;&gt;Node5</title>
<path fill="none" stroke="#9a32cd" stroke-dasharray="5,2" d="M1033.1,-347.84C1101.12,-349.95 1197.81,-352.94 1247.78,-354.49"/>
<polygon fill="#9a32cd" stroke="#9a32cd" points="1032.97,-344.33 1022.86,-347.52 1032.75,-351.33 1032.97,-344.33"/>
<text text-anchor="middle" x="1112.5" y="-355.5" font-family="Helvetica,sans-Serif" font-size="10.00"> m_MetaDataDictionary</text>
</g>
<!-- Node13 -->
<g id="node13" class="node">
<title>Node13</title>
<g id="a_node13"><a xlink:href="classitk_1_1MetaDataDictionary.html" target="_top" xlink:title="Provides a mechanism for storing a collection of arbitrary data types.">
<polygon fill="white" stroke="black" points="618,-336 618,-355 752,-355 752,-336 618,-336"/>
<text text-anchor="middle" x="685" y="-343" font-family="Helvetica,sans-Serif" font-size="10.00">itk::MetaDataDictionary</text>
</a>
</g>
</g>
<!-- Node13&#45;&gt;Node12 -->
<g id="edge12" class="edge">
<title>Node13&#45;&gt;Node12</title>
<path fill="none" stroke="#9a32cd" stroke-dasharray="5,2" d="M762.35,-345.5C802.75,-345.5 851.84,-345.5 890.42,-345.5"/>
<polygon fill="#9a32cd" stroke="#9a32cd" points="762.27,-342 752.27,-345.5 762.27,-349 762.27,-342"/>
<text text-anchor="middle" x="818.5" y="-348.5" font-family="Helvetica,sans-Serif" font-size="10.00"> ptr</text>
</g>
<!-- Node14 -->
<g id="node14" class="node">
<title>Node14</title>
<g id="a_node14"><a xlink:title=" ">
<polygon fill="white" stroke="black" points="333,-330.5 333,-360.5 482,-360.5 482,-330.5 333,-330.5"/>
<text text-anchor="start" x="341" y="-348.5" font-family="Helvetica,sans-Serif" font-size="10.00">std::shared_ptr&lt; MetaData</text>
<text text-anchor="middle" x="407.5" y="-337.5" font-family="Helvetica,sans-Serif" font-size="10.00">DictionaryMapType &gt;</text>
</a>
</g>
</g>
<!-- Node14&#45;&gt;Node13 -->
<g id="edge13" class="edge">
<title>Node14&#45;&gt;Node13</title>
<path fill="none" stroke="#9a32cd" stroke-dasharray="5,2" d="M492.41,-345.5C532.7,-345.5 580.3,-345.5 617.97,-345.5"/>
<polygon fill="#9a32cd" stroke="#9a32cd" points="492.33,-342 482.33,-345.5 492.33,-349 492.33,-342"/>
<text text-anchor="middle" x="550" y="-348.5" font-family="Helvetica,sans-Serif" font-size="10.00"> m_Dictionary</text>
</g>
<!-- Node15&#45;&gt;Node14 -->
<g id="edge14" class="edge">
<title>Node15&#45;&gt;Node14</title>
<path fill="none" stroke="#9a32cd" stroke-dasharray="5,2" d="M225.39,-345.5C257.86,-345.5 298.26,-345.5 332.67,-345.5"/>
<polygon fill="#9a32cd" stroke="#9a32cd" points="225.14,-342 215.14,-345.5 225.14,-349 225.14,-342"/>
<text text-anchor="middle" x="274" y="-348.5" font-family="Helvetica,sans-Serif" font-size="10.00"> ptr</text>
</g>
<!-- Node16 -->
<g id="node16" class="node">
<title>Node16</title>
<g id="a_node16"><a xlink:title=" ">
<polygon fill="white" stroke="black" points="0,-298 0,-317 29,-317 29,-298 0,-298"/>
<text text-anchor="middle" x="14.5" y="-305" font-family="Helvetica,sans-Serif" font-size="10.00">K</text>
</a>
</g>
</g>
<!-- Node16&#45;&gt;Node15 -->
<g id="edge15" class="edge">
<title>Node16&#45;&gt;Node15</title>
<path fill="none" stroke="#9a32cd" stroke-dasharray="5,2" d="M38.96,-313.52C62.45,-319.56 98.97,-328.93 126.39,-335.97"/>
<polygon fill="#9a32cd" stroke="#9a32cd" points="39.71,-310.1 29.16,-311.01 37.97,-316.88 39.71,-310.1"/>
<text text-anchor="middle" x="71.5" y="-331.5" font-family="Helvetica,sans-Serif" font-size="10.00"> keys</text>
</g>
<!-- Node28 -->
<g id="node28" class="node">
<title>Node28</title>
<g id="a_node28"><a xlink:title=" ">
<polygon fill="white" stroke="black" points="233,-91 233,-110 315,-110 315,-91 233,-91"/>
<text text-anchor="middle" x="274" y="-98" font-family="Helvetica,sans-Serif" font-size="10.00">std::set&lt; K &gt;</text>
</a>
</g>
</g>
<!-- Node16&#45;&gt;Node28 -->
<g id="edge33" class="edge">
<title>Node16&#45;&gt;Node28</title>
<path fill="none" stroke="#9a32cd" stroke-dasharray="5,2" d="M35.57,-291.37C86.59,-250.36 220.1,-143.02 260.95,-110.19"/>
<polygon fill="#9a32cd" stroke="#9a32cd" points="33.18,-288.8 27.57,-297.79 37.56,-294.26 33.18,-288.8"/>
<text text-anchor="middle" x="71.5" y="-283.5" font-family="Helvetica,sans-Serif" font-size="10.00"> keys</text>
</g>
<!-- Node17 -->
<g id="node17" class="node">
<title>Node17</title>
<g id="a_node17"><a xlink:title=" ">
<polygon fill="white" stroke="black" points="924,-236 924,-255 989,-255 989,-236 924,-236"/>
<text text-anchor="middle" x="956.5" y="-243" font-family="Helvetica,sans-Serif" font-size="10.00">std::string</text>
</a>
</g>
</g>
<!-- Node17&#45;&gt;Node5 -->
<g id="edge17" class="edge">
<title>Node17&#45;&gt;Node5</title>
<path fill="none" stroke="#9a32cd" stroke-dasharray="5,2" d="M988.24,-259.02C1005.04,-265.97 1026.37,-274.09 1046,-279.5 1103.83,-295.44 1128.72,-269.77 1179,-302.5 1191.09,-310.37 1185.45,-320.86 1197,-329.5 1211.71,-340.51 1231.17,-346.92 1247.6,-350.62"/>
<polygon fill="#9a32cd" stroke="#9a32cd" points="989.5,-255.75 978.92,-255.09 986.78,-262.2 989.5,-255.75"/>
<text text-anchor="middle" x="1112.5" y="-305.5" font-family="Helvetica,sans-Serif" font-size="10.00"> m_ObjectName</text>
</g>
<!-- Node19 -->
<g id="node19" class="node">
<title>Node19</title>
<g id="a_node19"><a xlink:title=" ">
<polygon fill="white" stroke="black" points="1197,-192.5 1197,-222.5 1366,-222.5 1366,-192.5 1197,-192.5"/>
<text text-anchor="start" x="1205" y="-210.5" font-family="Helvetica,sans-Serif" font-size="10.00">std::map&lt; DataObjectIdentifier</text>
<text text-anchor="middle" x="1281.5" y="-199.5" font-family="Helvetica,sans-Serif" font-size="10.00">Type, DataObjectPointer &gt;</text>
</a>
</g>
</g>
<!-- Node17&#45;&gt;Node19 -->
<g id="edge21" class="edge">
<title>Node17&#45;&gt;Node19</title>
<path fill="none" stroke="#9a32cd" stroke-dasharray="5,2" d="M990.38,-232.3C1006.81,-226.34 1027.15,-219.88 1046,-216.5 1095.53,-207.62 1151.84,-205.21 1196.87,-205.1"/>
<polygon fill="#9a32cd" stroke="#9a32cd" points="988.84,-229.14 980.71,-235.92 991.3,-235.7 988.84,-229.14"/>
<text text-anchor="middle" x="1112.5" y="-219.5" font-family="Helvetica,sans-Serif" font-size="10.00"> keys</text>
</g>
<!-- Node23 -->
<g id="node23" class="node">
<title>Node23</title>
<g id="a_node23"><a xlink:title=" ">
<polygon fill="white" stroke="black" points="1197,-241.5 1197,-271.5 1366,-271.5 1366,-241.5 1197,-241.5"/>
<text text-anchor="start" x="1205" y="-259.5" font-family="Helvetica,sans-Serif" font-size="10.00">std::map&lt; DataObjectIdentifier</text>
<text text-anchor="middle" x="1281.5" y="-248.5" font-family="Helvetica,sans-Serif" font-size="10.00">Type, bool &gt;</text>
</a>
</g>
</g>
<!-- Node17&#45;&gt;Node23 -->
<g id="edge26" class="edge">
<title>Node17&#45;&gt;Node23</title>
<path fill="none" stroke="#9a32cd" stroke-dasharray="5,2" d="M999.64,-239.18C1014.28,-237.28 1030.83,-235.44 1046,-234.5 1105,-230.85 1120.23,-228.2 1179,-234.5 1192.89,-235.99 1207.68,-238.59 1221.54,-241.5"/>
<polygon fill="#9a32cd" stroke="#9a32cd" points="998.8,-235.76 989.36,-240.57 999.74,-242.7 998.8,-235.76"/>
<text text-anchor="middle" x="1112.5" y="-237.5" font-family="Helvetica,sans-Serif" font-size="10.00"> keys</text>
</g>
<!-- Node24 -->
<g id="node24" class="node">
<title>Node24</title>
<g id="a_node24"><a xlink:title=" ">
<polygon fill="white" stroke="black" points="1200.5,-290.5 1200.5,-320.5 1362.5,-320.5 1362.5,-290.5 1200.5,-290.5"/>
<text text-anchor="start" x="1208.5" y="-308.5" font-family="Helvetica,sans-Serif" font-size="10.00">std::set&lt; DataObjectIdentifier</text>
<text text-anchor="middle" x="1281.5" y="-297.5" font-family="Helvetica,sans-Serif" font-size="10.00">Type &gt;</text>
</a>
</g>
</g>
<!-- Node17&#45;&gt;Node24 -->
<g id="edge28" class="edge">
<title>Node17&#45;&gt;Node24</title>
<path fill="none" stroke="#9a32cd" stroke-dasharray="5,2" d="M999.36,-247.45C1054.15,-250.41 1146.96,-256.96 1179,-268.5 1188.05,-271.76 1188.3,-276.41 1197,-280.5 1204.94,-284.23 1213.57,-287.56 1222.17,-290.47"/>
<polygon fill="#9a32cd" stroke="#9a32cd" points="999.43,-243.95 989.27,-246.92 999.07,-250.94 999.43,-243.95"/>
<text text-anchor="middle" x="1112.5" y="-271.5" font-family="Helvetica,sans-Serif" font-size="10.00"> keys</text>
</g>
<!-- Node18 -->
<g id="node18" class="node">
<title>Node18</title>
<g id="a_node18"><a xlink:title=" ">
<polygon fill="white" stroke="black" points="633,-230.5 633,-260.5 737,-260.5 737,-230.5 633,-230.5"/>
<text text-anchor="start" x="641" y="-248.5" font-family="Helvetica,sans-Serif" font-size="10.00">std::basic_string&lt;</text>
<text text-anchor="middle" x="685" y="-237.5" font-family="Helvetica,sans-Serif" font-size="10.00"> Char &gt;</text>
</a>
</g>
</g>
<!-- Node18&#45;&gt;Node17 -->
<g id="edge18" class="edge">
<title>Node18&#45;&gt;Node17</title>
<path fill="none" stroke="midnightblue" d="M747.31,-245.5C802.18,-245.5 880.43,-245.5 923.69,-245.5"/>
<polygon fill="midnightblue" stroke="midnightblue" points="747.01,-242 737.01,-245.5 747.01,-249 747.01,-242"/>
</g>
<!-- Node19&#45;&gt;Node4 -->
<g id="edge20" class="edge">
<title>Node19&#45;&gt;Node4</title>
<path fill="none" stroke="#9a32cd" stroke-dasharray="5,2" d="M1376.35,-203.26C1423.4,-204.68 1480,-211.99 1526,-234.5 1554.87,-248.63 1578.38,-280 1588.96,-295.89"/>
<polygon fill="#9a32cd" stroke="#9a32cd" points="1376.23,-199.75 1366.15,-203.03 1376.07,-206.75 1376.23,-199.75"/>
<text text-anchor="middle" x="1455" y="-248.5" font-family="Helvetica,sans-Serif" font-size="10.00"> m_Inputs</text>
<text text-anchor="middle" x="1455" y="-237.5" font-family="Helvetica,sans-Serif" font-size="10.00">m_Outputs</text>
</g>
<!-- Node20 -->
<g id="node20" class="node">
<title>Node20</title>
<g id="a_node20"><a xlink:href="classitk_1_1SmartPointer.html" target="_top" xlink:title=" ">
<polygon fill="white" stroke="black" points="903,-97.5 903,-127.5 1010,-127.5 1010,-97.5 903,-97.5"/>
<text text-anchor="start" x="911" y="-115.5" font-family="Helvetica,sans-Serif" font-size="10.00">itk::SmartPointer&lt;</text>
<text text-anchor="middle" x="956.5" y="-104.5" font-family="Helvetica,sans-Serif" font-size="10.00"> Self &gt;</text>
</a>
</g>
</g>
<!-- Node20&#45;&gt;Node1 -->
<g id="edge34" class="edge">
<title>Node20&#45;&gt;Node1</title>
<path fill="none" stroke="#9a32cd" stroke-dasharray="5,2" d="M1020.15,-108.18C1085.2,-104.06 1189.93,-98.5 1280.5,-98.5 1280.5,-98.5 1280.5,-98.5 2059.5,-98.5 2132.8,-98.5 2216.3,-92.04 2274.72,-86.46"/>
<polygon fill="#9a32cd" stroke="#9a32cd" points="1019.81,-104.69 1010.06,-108.82 1020.26,-111.68 1019.81,-104.69"/>
<text text-anchor="middle" x="1720.5" y="-134.5" font-family="Helvetica,sans-Serif" font-size="10.00"> m_EdgeNeighborList</text>
<text text-anchor="middle" x="1720.5" y="-123.5" font-family="Helvetica,sans-Serif" font-size="10.00">m_Edges</text>
<text text-anchor="middle" x="1720.5" y="-112.5" font-family="Helvetica,sans-Serif" font-size="10.00">m_LineCellIndices</text>
<text text-anchor="middle" x="1720.5" y="-101.5" font-family="Helvetica,sans-Serif" font-size="10.00">m_VertexNeighborList</text>
</g>
<!-- Node20&#45;&gt;Node19 -->
<g id="edge22" class="edge">
<title>Node20&#45;&gt;Node19</title>
<path fill="none" stroke="#9a32cd" stroke-dasharray="5,2" d="M1020.46,-115.77C1076.85,-119.83 1154.36,-128.54 1179,-146.5 1193.46,-157.04 1183.31,-170.99 1197,-182.5 1201.63,-186.39 1206.86,-189.68 1212.37,-192.46"/>
<polygon fill="#9a32cd" stroke="#9a32cd" points="1020.41,-112.26 1010.19,-115.07 1019.93,-119.24 1020.41,-112.26"/>
<text text-anchor="middle" x="1112.5" y="-149.5" font-family="Helvetica,sans-Serif" font-size="10.00"> elements</text>
</g>
<!-- Node21 -->
<g id="node21" class="node">
<title>Node21</title>
<g id="a_node21"><a xlink:title=" ">
<polygon fill="white" stroke="black" points="1197,-143.5 1197,-173.5 1366,-173.5 1366,-143.5 1197,-143.5"/>
<text text-anchor="start" x="1205" y="-161.5" font-family="Helvetica,sans-Serif" font-size="10.00">std::vector&lt; DataObjectPointer</text>
<text text-anchor="middle" x="1281.5" y="-150.5" font-family="Helvetica,sans-Serif" font-size="10.00">Map::iterator &gt;</text>
</a>
</g>
</g>
<!-- Node21&#45;&gt;Node4 -->
<g id="edge23" class="edge">
<title>Node21&#45;&gt;Node4</title>
<path fill="none" stroke="#9a32cd" stroke-dasharray="5,2" d="M1376.26,-146.01C1424.59,-144.31 1482.37,-150.07 1526,-178.5 1569.1,-206.58 1587.42,-271.13 1593.01,-295.73"/>
<polygon fill="#9a32cd" stroke="#9a32cd" points="1375.93,-142.52 1366.1,-146.48 1376.25,-149.52 1375.93,-142.52"/>
<text text-anchor="middle" x="1455" y="-192.5" font-family="Helvetica,sans-Serif" font-size="10.00"> m_IndexedInputs</text>
<text text-anchor="middle" x="1455" y="-181.5" font-family="Helvetica,sans-Serif" font-size="10.00">m_IndexedOutputs</text>
</g>
<!-- Node22 -->
<g id="node22" class="node">
<title>Node22</title>
<g id="a_node22"><a xlink:title=" ">
<polygon fill="white" stroke="black" points="885,-156 885,-175 1028,-175 1028,-156 885,-156"/>
<text text-anchor="middle" x="956.5" y="-163" font-family="Helvetica,sans-Serif" font-size="10.00">std::map&lt; K, T &gt;::iterator</text>
</a>
</g>
</g>
<!-- Node22&#45;&gt;Node21 -->
<g id="edge24" class="edge">
<title>Node22&#45;&gt;Node21</title>
<path fill="none" stroke="#9a32cd" stroke-dasharray="5,2" d="M1038.49,-163.74C1086.84,-162.7 1148.12,-161.37 1196.92,-160.31"/>
<polygon fill="#9a32cd" stroke="#9a32cd" points="1038.31,-160.25 1028.38,-163.96 1038.46,-167.25 1038.31,-160.25"/>
<text text-anchor="middle" x="1112.5" y="-166.5" font-family="Helvetica,sans-Serif" font-size="10.00"> elements</text>
</g>
<!-- Node23&#45;&gt;Node4 -->
<g id="edge25" class="edge">
<title>Node23&#45;&gt;Node4</title>
<path fill="none" stroke="#9a32cd" stroke-dasharray="5,2" d="M1376.39,-259.53C1422.01,-262.48 1477.35,-268.25 1526,-279.5 1542.59,-283.34 1560.56,-290.2 1574.01,-295.92"/>
<polygon fill="#9a32cd" stroke="#9a32cd" points="1376.41,-256.03 1366.21,-258.91 1375.98,-263.01 1376.41,-256.03"/>
<text text-anchor="start" x="1384" y="-293.5" font-family="Helvetica,sans-Serif" font-size="10.00"> m_CachedInputReleaseData</text>
<text text-anchor="middle" x="1455" y="-282.5" font-family="Helvetica,sans-Serif" font-size="10.00">Flags</text>
</g>
<!-- Node24&#45;&gt;Node4 -->
<g id="edge27" class="edge">
<title>Node24&#45;&gt;Node4</title>
<path fill="none" stroke="#9a32cd" stroke-dasharray="5,2" d="M1372.76,-305.5C1428.22,-305.5 1497.26,-305.5 1543.55,-305.5"/>
<polygon fill="#9a32cd" stroke="#9a32cd" points="1372.57,-302 1362.57,-305.5 1372.57,-309 1372.57,-302"/>
<text text-anchor="middle" x="1455" y="-308.5" font-family="Helvetica,sans-Serif" font-size="10.00"> m_RequiredInputNames</text>
</g>
<!-- Node25 -->
<g id="node25" class="node">
<title>Node25</title>
<g id="a_node25"><a xlink:title=" ">
<polygon fill="white" stroke="black" points="1214.5,-484 1214.5,-503 1348.5,-503 1348.5,-484 1214.5,-484"/>
<text text-anchor="middle" x="1281.5" y="-491" font-family="Helvetica,sans-Serif" font-size="10.00">std::atomic&lt; uint32_t &gt;</text>
</a>
</g>
</g>
<!-- Node25&#45;&gt;Node4 -->
<g id="edge29" class="edge">
<title>Node25&#45;&gt;Node4</title>
<path fill="none" stroke="#9a32cd" stroke-dasharray="5,2" d="M1358.66,-493.96C1420.02,-492.84 1500.18,-487.58 1526,-468.5 1578.15,-429.97 1591.21,-344.22 1594.19,-315.27"/>
<polygon fill="#9a32cd" stroke="#9a32cd" points="1358.54,-490.46 1348.59,-494.11 1358.65,-497.46 1358.54,-490.46"/>
<text text-anchor="middle" x="1455" y="-495.5" font-family="Helvetica,sans-Serif" font-size="10.00"> m_Progress</text>
</g>
<!-- Node26 -->
<g id="node26" class="node">
<title>Node26</title>
<g id="a_node26"><a xlink:title=" ">
<polygon fill="white" stroke="black" points="928.5,-484 928.5,-503 984.5,-503 984.5,-484 928.5,-484"/>
<text text-anchor="middle" x="956.5" y="-491" font-family="Helvetica,sans-Serif" font-size="10.00">uint32_t</text>
</a>
</g>
</g>
<!-- Node26&#45;&gt;Node25 -->
<g id="edge30" class="edge">
<title>Node26&#45;&gt;Node25</title>
<path fill="none" stroke="#9a32cd" stroke-dasharray="5,2" d="M994.85,-493.5C1048.45,-493.5 1148.04,-493.5 1214.31,-493.5"/>
<polygon fill="#9a32cd" stroke="#9a32cd" points="994.76,-490 984.76,-493.5 994.76,-497 994.76,-490"/>
<text text-anchor="middle" x="1112.5" y="-496.5" font-family="Helvetica,sans-Serif" font-size="10.00"> ptr</text>
</g>
<!-- Node27 -->
<g id="node27" class="node">
<title>Node27</title>
<g id="a_node27"><a xlink:href="classitk_1_1SmartPointer.html" target="_top" xlink:title=" ">
<polygon fill="white" stroke="black" points="1210.5,-522.5 1210.5,-552.5 1352.5,-552.5 1352.5,-522.5 1210.5,-522.5"/>
<text text-anchor="start" x="1218.5" y="-540.5" font-family="Helvetica,sans-Serif" font-size="10.00">itk::SmartPointer&lt;</text>
<text text-anchor="middle" x="1281.5" y="-529.5" font-family="Helvetica,sans-Serif" font-size="10.00"> itk::MultiThreaderBase &gt;</text>
</a>
</g>
</g>
<!-- Node27&#45;&gt;Node4 -->
<g id="edge31" class="edge">
<title>Node27&#45;&gt;Node4</title>
<path fill="none" stroke="#9a32cd" stroke-dasharray="5,2" d="M1362.75,-547.96C1414.73,-550.24 1480.9,-544.13 1526,-507.5 1588.14,-457.04 1594.54,-347.92 1595.02,-315.06"/>
<polygon fill="#9a32cd" stroke="#9a32cd" points="1362.73,-544.45 1352.55,-547.4 1362.34,-551.44 1362.73,-544.45"/>
<text text-anchor="middle" x="1455" y="-550.5" font-family="Helvetica,sans-Serif" font-size="10.00"> m_MultiThreader</text>
</g>
<!-- Node28&#45;&gt;Node1 -->
<g id="edge32" class="edge">
<title>Node28&#45;&gt;Node1</title>
<path fill="none" stroke="#9a32cd" stroke-dasharray="5,2" d="M323.83,-88.72C378.37,-76.6 469.47,-59.5 549,-59.5 549,-59.5 549,-59.5 2059.5,-59.5 2132.79,-59.5 2216.28,-65.64 2274.71,-70.94"/>
<polygon fill="#9a32cd" stroke="#9a32cd" points="322.73,-85.38 313.75,-90.99 324.27,-92.2 322.73,-85.38"/>
<text text-anchor="middle" x="1281.5" y="-62.5" font-family="Helvetica,sans-Serif" font-size="10.00"> m_FaceSet</text>
</g>
<!-- Node29 -->
<g id="node29" class="node">
<title>Node29</title>
<g id="a_node29"><a xlink:href="classitk_1_1SmartPointer.html" target="_top" xlink:title="Implements transparent reference counting.">
<polygon fill="white" stroke="black" points="2005,-0.5 2005,-30.5 2112,-30.5 2112,-0.5 2005,-0.5"/>
<text text-anchor="start" x="2013" y="-18.5" font-family="Helvetica,sans-Serif" font-size="10.00">itk::SmartPointer&lt;</text>
<text text-anchor="middle" x="2058.5" y="-7.5" font-family="Helvetica,sans-Serif" font-size="10.00"> TObjectType &gt;</text>
</a>
</g>
</g>
<!-- Node29&#45;&gt;Node1 -->
<g id="edge35" class="edge">
<title>Node29&#45;&gt;Node1</title>
<path fill="none" stroke="#9a32cd" stroke-dasharray="5,2" d="M2122.62,-15.98C2161.9,-17.64 2213.13,-22.31 2257,-34.5 2276.45,-39.9 2296.82,-49.22 2313.43,-57.89"/>
<polygon fill="#9a32cd" stroke="#9a32cd" points="2122.51,-12.47 2112.39,-15.6 2122.25,-19.47 2122.51,-12.47"/>
<text text-anchor="middle" x="2208.5" y="-37.5" font-family="Helvetica,sans-Serif" font-size="10.00"> m_HandledEdgeIds</text>
</g>
</g>
</svg>
