<?xml version="1.0" encoding="UTF-8" standalone="no"?>
<!DOCTYPE svg PUBLIC "-//W3C//DTD SVG 1.1//EN"
 "http://www.w3.org/Graphics/SVG/1.1/DTD/svg11.dtd">
<!-- Generated by graphviz version 2.43.0 (0)
 -->
<!-- Title: itk::LineSpatialObjectPoint&lt; TPointDimension &gt; Pages: 1 -->
<svg width="1887pt" height="458pt"
 viewBox="0.00 0.00 1887.00 457.64" xmlns="http://www.w3.org/2000/svg" xmlns:xlink="http://www.w3.org/1999/xlink">
<g id="graph0" class="graph" transform="scale(1 1) rotate(0) translate(4 453.64)">
<title>itk::LineSpatialObjectPoint&lt; TPointDimension &gt;</title>
<polygon fill="white" stroke="transparent" points="-4,4 -4,-453.64 1883,-453.64 1883,4 -4,4"/>
<!-- Node1 -->
<g id="node1" class="node">
<title>Node1</title>
<g id="a_node1"><a xlink:title="Point used for a line definition.">
<polygon fill="#bfbfbf" stroke="black" points="1733,-66.14 1733,-96.14 1879,-96.14 1879,-66.14 1733,-66.14"/>
<text text-anchor="start" x="1741" y="-84.14" font-family="Helvetica,sans-Serif" font-size="10.00">itk::LineSpatialObjectPoint</text>
<text text-anchor="middle" x="1806" y="-73.14" font-family="Helvetica,sans-Serif" font-size="10.00">&lt; TPointDimension &gt;</text>
</a>
</g>
</g>
<!-- Node2 -->
<g id="node2" class="node">
<title>Node2</title>
<g id="a_node2"><a xlink:href="classitk_1_1SpatialObjectPoint.html" target="_top" xlink:title=" ">
<polygon fill="white" stroke="black" points="1542,-264.64 1542,-283.64 1696,-283.64 1696,-264.64 1542,-264.64"/>
<text text-anchor="middle" x="1619" y="-271.64" font-family="Helvetica,sans-Serif" font-size="10.00">itk::SpatialObjectPoint&lt; 3 &gt;</text>
</a>
</g>
</g>
<!-- Node2&#45;&gt;Node1 -->
<g id="edge1" class="edge">
<title>Node2&#45;&gt;Node1</title>
<path fill="none" stroke="midnightblue" d="M1636.4,-257.03C1672.11,-219.78 1756.4,-131.83 1790.4,-96.36"/>
<polygon fill="midnightblue" stroke="midnightblue" points="1633.57,-254.93 1629.17,-264.57 1638.62,-259.77 1633.57,-254.93"/>
</g>
<!-- Node3 -->
<g id="node3" class="node">
<title>Node3</title>
<g id="a_node3"><a xlink:href="classitk_1_1Point.html" target="_top" xlink:title=" ">
<polygon fill="white" stroke="black" points="1032,-170.14 1032,-200.14 1146,-200.14 1146,-170.14 1032,-170.14"/>
<text text-anchor="start" x="1040" y="-188.14" font-family="Helvetica,sans-Serif" font-size="10.00">itk::Point&lt; double,</text>
<text text-anchor="middle" x="1089" y="-177.14" font-family="Helvetica,sans-Serif" font-size="10.00"> TPointDimension &gt;</text>
</a>
</g>
</g>
<!-- Node3&#45;&gt;Node2 -->
<g id="edge2" class="edge">
<title>Node3&#45;&gt;Node2</title>
<path fill="none" stroke="#9a32cd" stroke-dasharray="5,2" d="M1156.29,-196.05C1232.85,-208.68 1362.57,-230.18 1474,-249.14 1503.64,-254.18 1536.7,-259.91 1563.65,-264.61"/>
<polygon fill="#9a32cd" stroke="#9a32cd" points="1156.74,-192.57 1146.3,-194.4 1155.6,-199.48 1156.74,-192.57"/>
<text text-anchor="middle" x="1410.5" y="-252.14" font-family="Helvetica,sans-Serif" font-size="10.00"> m_PositionInObjectSpace</text>
</g>
<!-- Node4 -->
<g id="node4" class="node">
<title>Node4</title>
<g id="a_node4"><a xlink:href="classitk_1_1FixedArray.html" target="_top" xlink:title=" ">
<polygon fill="white" stroke="black" points="512,-194.14 512,-224.14 646,-224.14 646,-194.14 512,-194.14"/>
<text text-anchor="start" x="520" y="-212.14" font-family="Helvetica,sans-Serif" font-size="10.00">itk::FixedArray&lt; double,</text>
<text text-anchor="middle" x="579" y="-201.14" font-family="Helvetica,sans-Serif" font-size="10.00"> NPointDimension &gt;</text>
</a>
</g>
</g>
<!-- Node4&#45;&gt;Node3 -->
<g id="edge3" class="edge">
<title>Node4&#45;&gt;Node3</title>
<path fill="none" stroke="midnightblue" d="M656.17,-205.54C759.07,-200.68 940.15,-192.12 1031.67,-187.8"/>
<polygon fill="midnightblue" stroke="midnightblue" points="655.98,-202.04 646.15,-206.01 656.31,-209.04 655.98,-202.04"/>
</g>
<!-- Node22 -->
<g id="node22" class="node">
<title>Node22</title>
<g id="a_node22"><a xlink:href="classitk_1_1Point.html" target="_top" xlink:title=" ">
<polygon fill="white" stroke="black" points="1025,-219.64 1025,-238.64 1153,-238.64 1153,-219.64 1025,-219.64"/>
<text text-anchor="middle" x="1089" y="-226.64" font-family="Helvetica,sans-Serif" font-size="10.00">itk::Point&lt; double, 3 &gt;</text>
</a>
</g>
</g>
<!-- Node4&#45;&gt;Node22 -->
<g id="edge28" class="edge">
<title>Node4&#45;&gt;Node22</title>
<path fill="none" stroke="midnightblue" d="M656.22,-212.14C756.59,-216.09 931.23,-222.97 1024.7,-226.65"/>
<polygon fill="midnightblue" stroke="midnightblue" points="656.28,-208.64 646.15,-211.74 656.01,-215.63 656.28,-208.64"/>
</g>
<!-- Node5 -->
<g id="node5" class="node">
<title>Node5</title>
<g id="a_node5"><a xlink:title=" ">
<polygon fill="white" stroke="#bfbfbf" points="39,-216.64 39,-235.64 95,-235.64 95,-216.64 39,-216.64"/>
<text text-anchor="middle" x="67" y="-223.64" font-family="Helvetica,sans-Serif" font-size="10.00">VLength</text>
</a>
</g>
</g>
<!-- Node5&#45;&gt;Node4 -->
<g id="edge4" class="edge">
<title>Node5&#45;&gt;Node4</title>
<path fill="none" stroke="#9a32cd" stroke-dasharray="5,2" d="M105.09,-224.9C190.69,-222.05 402.97,-214.97 511.62,-211.35"/>
<polygon fill="#9a32cd" stroke="#9a32cd" points="104.94,-221.4 95.06,-225.24 105.17,-228.4 104.94,-221.4"/>
<text text-anchor="middle" x="227" y="-226.14" font-family="Helvetica,sans-Serif" font-size="10.00"> m_InternalArray</text>
</g>
<!-- Node8 -->
<g id="node8" class="node">
<title>Node8</title>
<g id="a_node8"><a xlink:href="classitk_1_1FixedArray.html" target="_top" xlink:title=" ">
<polygon fill="white" stroke="black" points="320,-76.64 320,-95.64 494,-95.64 494,-76.64 320,-76.64"/>
<text text-anchor="middle" x="407" y="-83.64" font-family="Helvetica,sans-Serif" font-size="10.00">itk::FixedArray&lt; TCoordRep, 3 &gt;</text>
</a>
</g>
</g>
<!-- Node5&#45;&gt;Node8 -->
<g id="edge8" class="edge">
<title>Node5&#45;&gt;Node8</title>
<path fill="none" stroke="#9a32cd" stroke-dasharray="5,2" d="M84.03,-209C99.76,-193.33 125.23,-170.86 152,-159.14 213.78,-132.08 237.57,-156.08 302,-136.14 334.73,-126.01 370.14,-107.1 390.04,-95.66"/>
<polygon fill="#9a32cd" stroke="#9a32cd" points="81.21,-206.88 76.73,-216.49 86.22,-211.77 81.21,-206.88"/>
<text text-anchor="middle" x="227" y="-162.14" font-family="Helvetica,sans-Serif" font-size="10.00"> m_InternalArray</text>
</g>
<!-- Node18 -->
<g id="node18" class="node">
<title>Node18</title>
<g id="a_node18"><a xlink:href="classitk_1_1FixedArray.html" target="_top" xlink:title=" ">
<polygon fill="white" stroke="black" points="329.5,-254.64 329.5,-273.64 484.5,-273.64 484.5,-254.64 329.5,-254.64"/>
<text text-anchor="middle" x="407" y="-261.64" font-family="Helvetica,sans-Serif" font-size="10.00">itk::FixedArray&lt; double, 4 &gt;</text>
</a>
</g>
</g>
<!-- Node5&#45;&gt;Node18 -->
<g id="edge20" class="edge">
<title>Node5&#45;&gt;Node18</title>
<path fill="none" stroke="#9a32cd" stroke-dasharray="5,2" d="M88.75,-241.38C105.03,-252.34 128.76,-266.19 152,-272.14 221.46,-289.91 305.08,-281.9 356.9,-273.67"/>
<polygon fill="#9a32cd" stroke="#9a32cd" points="90.73,-238.49 80.52,-235.65 86.73,-244.24 90.73,-238.49"/>
<text text-anchor="middle" x="227" y="-285.14" font-family="Helvetica,sans-Serif" font-size="10.00"> m_InternalArray</text>
</g>
<!-- Node20 -->
<g id="node20" class="node">
<title>Node20</title>
<g id="a_node20"><a xlink:href="classitk_1_1FixedArray.html" target="_top" xlink:title=" ">
<polygon fill="white" stroke="black" points="335.5,-293.14 335.5,-323.14 478.5,-323.14 478.5,-293.14 335.5,-293.14"/>
<text text-anchor="start" x="343.5" y="-311.14" font-family="Helvetica,sans-Serif" font-size="10.00">itk::FixedArray&lt; unsigned</text>
<text text-anchor="middle" x="407" y="-300.14" font-family="Helvetica,sans-Serif" font-size="10.00"> short, 4 &gt;</text>
</a>
</g>
</g>
<!-- Node5&#45;&gt;Node20 -->
<g id="edge24" class="edge">
<title>Node5&#45;&gt;Node20</title>
<path fill="none" stroke="#9a32cd" stroke-dasharray="5,2" d="M82.13,-243.41C97.34,-260.58 123.27,-285.91 152,-297.14 210.69,-320.07 282.9,-320.85 335.31,-317.05"/>
<polygon fill="#9a32cd" stroke="#9a32cd" points="84.72,-241.06 75.55,-235.74 79.4,-245.61 84.72,-241.06"/>
<text text-anchor="middle" x="227" y="-321.14" font-family="Helvetica,sans-Serif" font-size="10.00"> m_InternalArray</text>
</g>
<!-- Node23 -->
<g id="node23" class="node">
<title>Node23</title>
<g id="a_node23"><a xlink:href="classitk_1_1FixedArray.html" target="_top" xlink:title=" ">
<polygon fill="white" stroke="black" points="334,-27.14 334,-57.14 480,-57.14 480,-27.14 334,-27.14"/>
<text text-anchor="start" x="342" y="-45.14" font-family="Helvetica,sans-Serif" font-size="10.00">itk::FixedArray&lt; Covariant</text>
<text text-anchor="middle" x="407" y="-34.14" font-family="Helvetica,sans-Serif" font-size="10.00">VectorType, 3 &#45; 1 &gt;</text>
</a>
</g>
</g>
<!-- Node5&#45;&gt;Node23 -->
<g id="edge34" class="edge">
<title>Node5&#45;&gt;Node23</title>
<path fill="none" stroke="#9a32cd" stroke-dasharray="5,2" d="M85.91,-209.13C100.65,-194.27 121.13,-171.47 134,-148.14 146.83,-124.88 131.83,-108.42 152,-91.14 177.61,-69.19 268.94,-74.79 302,-68.14 317.6,-65 334.38,-61.06 349.81,-57.2"/>
<polygon fill="#9a32cd" stroke="#9a32cd" points="83.07,-207.02 78.4,-216.53 87.98,-212.01 83.07,-207.02"/>
<text text-anchor="middle" x="227" y="-94.14" font-family="Helvetica,sans-Serif" font-size="10.00"> m_InternalArray</text>
</g>
<!-- Node6 -->
<g id="node6" class="node">
<title>Node6</title>
<g id="a_node6"><a xlink:href="classitk_1_1FixedArray.html" target="_top" xlink:title="Simulate a standard C array with copy semantics.">
<polygon fill="white" stroke="black" points="0,-109.14 0,-139.14 134,-139.14 134,-109.14 0,-109.14"/>
<text text-anchor="start" x="8" y="-127.14" font-family="Helvetica,sans-Serif" font-size="10.00">itk::FixedArray&lt; TValue,</text>
<text text-anchor="middle" x="67" y="-116.14" font-family="Helvetica,sans-Serif" font-size="10.00"> VLength &gt;</text>
</a>
</g>
</g>
<!-- Node6&#45;&gt;Node4 -->
<g id="edge5" class="edge">
<title>Node6&#45;&gt;Node4</title>
<path fill="none" stroke="orange" stroke-dasharray="5,2" d="M144.23,-123.19C146.85,-123.17 149.45,-123.15 152,-123.14 218.67,-122.74 236.09,-113.11 302,-123.14 390.57,-136.62 489.81,-173.11 541.78,-193.97"/>
<polygon fill="orange" stroke="orange" points="144,-119.69 134.03,-123.28 144.06,-126.69 144,-119.69"/>
<text text-anchor="middle" x="227" y="-126.14" font-family="Helvetica,sans-Serif" font-size="10.00"> &lt; double, NPointDimension &gt;</text>
</g>
<!-- Node6&#45;&gt;Node8 -->
<g id="edge9" class="edge">
<title>Node6&#45;&gt;Node8</title>
<path fill="none" stroke="orange" stroke-dasharray="5,2" d="M88.05,-101.54C103.67,-85.73 126.88,-65.93 152,-57.14 214.92,-35.12 237.12,-41.82 302,-57.14 310.71,-59.19 311.59,-63.1 320,-66.14 331.39,-70.25 343.94,-73.72 355.85,-76.57"/>
<polygon fill="orange" stroke="orange" points="85.38,-99.26 81.01,-108.91 90.45,-104.09 85.38,-99.26"/>
<text text-anchor="middle" x="227" y="-60.14" font-family="Helvetica,sans-Serif" font-size="10.00"> &lt; TCoordRep, 3 &gt;</text>
</g>
<!-- Node6&#45;&gt;Node18 -->
<g id="edge21" class="edge">
<title>Node6&#45;&gt;Node18</title>
<path fill="none" stroke="orange" stroke-dasharray="5,2" d="M99.09,-144.57C114.44,-153.75 133.57,-163.9 152,-170.14 215.88,-191.77 239.26,-168.4 302,-193.14 339.83,-208.05 377.59,-238.78 395.41,-254.46"/>
<polygon fill="orange" stroke="orange" points="100.88,-141.56 90.53,-139.31 97.22,-147.53 100.88,-141.56"/>
<text text-anchor="middle" x="227" y="-196.14" font-family="Helvetica,sans-Serif" font-size="10.00"> &lt; double, 4 &gt;</text>
</g>
<!-- Node6&#45;&gt;Node20 -->
<g id="edge25" class="edge">
<title>Node6&#45;&gt;Node20</title>
<path fill="none" stroke="orange" stroke-dasharray="5,2" d="M87.77,-147.13C101.41,-163.41 119.59,-186.03 134,-207.14 142.98,-220.3 138.78,-229.25 152,-238.14 207.86,-275.7 244.03,-224.92 302,-259.14 313.48,-265.91 309.03,-275.55 320,-283.14 325.63,-287.03 331.86,-290.32 338.32,-293.11"/>
<polygon fill="orange" stroke="orange" points="90.23,-144.61 81.1,-139.23 84.88,-149.13 90.23,-144.61"/>
<text text-anchor="middle" x="227" y="-262.14" font-family="Helvetica,sans-Serif" font-size="10.00"> &lt; unsigned short, 4 &gt;</text>
</g>
<!-- Node6&#45;&gt;Node23 -->
<g id="edge35" class="edge">
<title>Node6&#45;&gt;Node23</title>
<path fill="none" stroke="orange" stroke-dasharray="5,2" d="M79.03,-99.62C92.21,-73.67 116.97,-34.17 152,-17.14 222.93,17.36 318.02,-8.21 369.38,-26.98"/>
<polygon fill="orange" stroke="orange" points="75.78,-98.3 74.55,-108.82 82.07,-101.36 75.78,-98.3"/>
<text text-anchor="start" x="168" y="-31.14" font-family="Helvetica,sans-Serif" font-size="10.00"> &lt; CovariantVectorType,</text>
<text text-anchor="middle" x="227" y="-20.14" font-family="Helvetica,sans-Serif" font-size="10.00"> 3 &#45; 1 &gt;</text>
</g>
<!-- Node7 -->
<g id="node7" class="node">
<title>Node7</title>
<g id="a_node7"><a xlink:href="classitk_1_1Point.html" target="_top" xlink:title="A templated class holding a geometric point in n&#45;Dimensional space.">
<polygon fill="white" stroke="black" points="685.5,-116.14 685.5,-146.14 812.5,-146.14 812.5,-116.14 685.5,-116.14"/>
<text text-anchor="start" x="693.5" y="-134.14" font-family="Helvetica,sans-Serif" font-size="10.00">itk::Point&lt; TCoordRep,</text>
<text text-anchor="middle" x="749" y="-123.14" font-family="Helvetica,sans-Serif" font-size="10.00"> NPointDimension &gt;</text>
</a>
</g>
</g>
<!-- Node7&#45;&gt;Node3 -->
<g id="edge6" class="edge">
<title>Node7&#45;&gt;Node3</title>
<path fill="none" stroke="orange" stroke-dasharray="5,2" d="M822.86,-121.35C873.5,-116.97 942.03,-115.9 1000,-132.14 1026.45,-139.54 1052.92,-157.22 1069.82,-170.13"/>
<polygon fill="orange" stroke="orange" points="822.29,-117.89 812.65,-122.3 822.94,-124.86 822.29,-117.89"/>
<text text-anchor="middle" x="926" y="-135.14" font-family="Helvetica,sans-Serif" font-size="10.00"> &lt; double, TPointDimension &gt;</text>
</g>
<!-- Node7&#45;&gt;Node22 -->
<g id="edge29" class="edge">
<title>Node7&#45;&gt;Node22</title>
<path fill="none" stroke="orange" stroke-dasharray="5,2" d="M811.17,-149.03C865.47,-164.9 946.99,-188.66 1018,-209.14 1029.9,-212.57 1042.95,-216.3 1054.52,-219.61"/>
<polygon fill="orange" stroke="orange" points="811.94,-145.61 801.36,-146.17 809.97,-152.33 811.94,-145.61"/>
<text text-anchor="middle" x="926" y="-206.14" font-family="Helvetica,sans-Serif" font-size="10.00"> &lt; double, 3 &gt;</text>
</g>
<!-- Node8&#45;&gt;Node7 -->
<g id="edge7" class="edge">
<title>Node8&#45;&gt;Node7</title>
<path fill="none" stroke="midnightblue" d="M490.32,-97.03C550.38,-104.98 630.55,-115.59 685.42,-122.86"/>
<polygon fill="midnightblue" stroke="midnightblue" points="490.48,-93.52 480.11,-95.68 489.56,-100.46 490.48,-93.52"/>
</g>
<!-- Node9 -->
<g id="node9" class="node">
<title>Node9</title>
<g id="a_node9"><a xlink:href="classitk_1_1WeakPointer.html" target="_top" xlink:title=" ">
<polygon fill="white" stroke="black" points="1028.5,-396.14 1028.5,-426.14 1149.5,-426.14 1149.5,-396.14 1028.5,-396.14"/>
<text text-anchor="start" x="1036.5" y="-414.14" font-family="Helvetica,sans-Serif" font-size="10.00">itk::WeakPointer&lt; itk</text>
<text text-anchor="middle" x="1089" y="-403.14" font-family="Helvetica,sans-Serif" font-size="10.00">::SpatialObject &gt;</text>
</a>
</g>
</g>
<!-- Node9&#45;&gt;Node2 -->
<g id="edge10" class="edge">
<title>Node9&#45;&gt;Node2</title>
<path fill="none" stroke="#9a32cd" stroke-dasharray="5,2" d="M1160.02,-412.01C1239.19,-410.65 1370.53,-401.18 1474,-358.14 1524.77,-337.02 1579.5,-300.98 1604.35,-283.8"/>
<polygon fill="#9a32cd" stroke="#9a32cd" points="1159.63,-408.52 1149.68,-412.15 1159.72,-415.52 1159.63,-408.52"/>
<text text-anchor="middle" x="1410.5" y="-396.14" font-family="Helvetica,sans-Serif" font-size="10.00"> m_SpatialObject</text>
</g>
<!-- Node21 -->
<g id="node21" class="node">
<title>Node21</title>
<g id="a_node21"><a xlink:href="classitk_1_1SpatialObjectPoint.html" target="_top" xlink:title="Point used for spatial objets.">
<polygon fill="white" stroke="black" points="1348,-285.14 1348,-315.14 1473,-315.14 1473,-285.14 1348,-285.14"/>
<text text-anchor="start" x="1356" y="-303.14" font-family="Helvetica,sans-Serif" font-size="10.00">itk::SpatialObjectPoint</text>
<text text-anchor="middle" x="1410.5" y="-292.14" font-family="Helvetica,sans-Serif" font-size="10.00">&lt; TPointDimension &gt;</text>
</a>
</g>
</g>
<!-- Node9&#45;&gt;Node21 -->
<g id="edge30" class="edge">
<title>Node9&#45;&gt;Node21</title>
<path fill="none" stroke="#9a32cd" stroke-dasharray="5,2" d="M1152.98,-393.21C1222.39,-373.41 1324.87,-344.05 1329,-342.14 1337.72,-338.09 1338.65,-334.9 1347,-330.14 1356.2,-324.9 1366.46,-319.71 1375.97,-315.17"/>
<polygon fill="#9a32cd" stroke="#9a32cd" points="1151.65,-389.95 1142.99,-396.05 1153.57,-396.68 1151.65,-389.95"/>
<text text-anchor="middle" x="1253.5" y="-388.14" font-family="Helvetica,sans-Serif" font-size="10.00"> m_SpatialObject</text>
</g>
<!-- Node10 -->
<g id="node10" class="node">
<title>Node10</title>
<g id="a_node10"><a xlink:href="classitk_1_1WeakPointer.html" target="_top" xlink:title="Implements a weak reference to an object.">
<polygon fill="white" stroke="black" points="676,-419.14 676,-449.14 822,-449.14 822,-419.14 676,-419.14"/>
<text text-anchor="start" x="684" y="-437.14" font-family="Helvetica,sans-Serif" font-size="10.00">itk::WeakPointer&lt; TObject</text>
<text text-anchor="middle" x="749" y="-426.14" font-family="Helvetica,sans-Serif" font-size="10.00">Type &gt;</text>
</a>
</g>
</g>
<!-- Node10&#45;&gt;Node9 -->
<g id="edge11" class="edge">
<title>Node10&#45;&gt;Node9</title>
<path fill="none" stroke="orange" stroke-dasharray="5,2" d="M832.4,-428.53C893.01,-424.41 973.99,-418.9 1028.41,-415.19"/>
<polygon fill="orange" stroke="orange" points="831.83,-425.06 822.09,-429.23 832.31,-432.04 831.83,-425.06"/>
<text text-anchor="middle" x="926" y="-429.14" font-family="Helvetica,sans-Serif" font-size="10.00"> &lt; itk::SpatialObject &gt;</text>
</g>
<!-- Node11 -->
<g id="node11" class="node">
<title>Node11</title>
<g id="a_node11"><a xlink:title=" ">
<polygon fill="white" stroke="#bfbfbf" points="1028,-337.14 1028,-367.14 1150,-367.14 1150,-337.14 1028,-337.14"/>
<text text-anchor="start" x="1036" y="-355.14" font-family="Helvetica,sans-Serif" font-size="10.00">std::map&lt; std::string,</text>
<text text-anchor="middle" x="1089" y="-344.14" font-family="Helvetica,sans-Serif" font-size="10.00"> double &gt;</text>
</a>
</g>
</g>
<!-- Node11&#45;&gt;Node2 -->
<g id="edge12" class="edge">
<title>Node11&#45;&gt;Node2</title>
<path fill="none" stroke="#9a32cd" stroke-dasharray="5,2" d="M1160.44,-353.24C1238.12,-353.06 1366.36,-348.63 1474,-325.14 1518.83,-315.35 1568.83,-295.5 1596.54,-283.66"/>
<polygon fill="#9a32cd" stroke="#9a32cd" points="1160.29,-349.74 1150.29,-353.24 1160.29,-356.74 1160.29,-349.74"/>
<text text-anchor="middle" x="1410.5" y="-346.14" font-family="Helvetica,sans-Serif" font-size="10.00"> m_ScalarDictionary</text>
</g>
<!-- Node11&#45;&gt;Node21 -->
<g id="edge31" class="edge">
<title>Node11&#45;&gt;Node21</title>
<path fill="none" stroke="#9a32cd" stroke-dasharray="5,2" d="M1147.55,-334.36C1157.63,-331.66 1168.07,-329.11 1178,-327.14 1234.95,-315.8 1300.79,-308.69 1347.67,-304.63"/>
<polygon fill="#9a32cd" stroke="#9a32cd" points="1146.32,-331.07 1137.62,-337.1 1148.19,-337.81 1146.32,-331.07"/>
<text text-anchor="middle" x="1253.5" y="-330.14" font-family="Helvetica,sans-Serif" font-size="10.00"> m_ScalarDictionary</text>
</g>
<!-- Node12 -->
<g id="node12" class="node">
<title>Node12</title>
<g id="a_node12"><a xlink:title="STL class.">
<polygon fill="white" stroke="#bfbfbf" points="716.5,-380.64 716.5,-399.64 781.5,-399.64 781.5,-380.64 716.5,-380.64"/>
<text text-anchor="middle" x="749" y="-387.64" font-family="Helvetica,sans-Serif" font-size="10.00">std::string</text>
</a>
</g>
</g>
<!-- Node12&#45;&gt;Node11 -->
<g id="edge13" class="edge">
<title>Node12&#45;&gt;Node11</title>
<path fill="none" stroke="#9a32cd" stroke-dasharray="5,2" d="M791.69,-386.93C841.39,-382.93 926.91,-375.45 1000,-366.14 1009.05,-364.98 1018.61,-363.62 1027.95,-362.2"/>
<polygon fill="#9a32cd" stroke="#9a32cd" points="791.33,-383.45 781.64,-387.73 791.89,-390.43 791.33,-383.45"/>
<text text-anchor="middle" x="926" y="-384.14" font-family="Helvetica,sans-Serif" font-size="10.00"> keys</text>
</g>
<!-- Node13 -->
<g id="node13" class="node">
<title>Node13</title>
<g id="a_node13"><a xlink:title="STL class.">
<polygon fill="white" stroke="#bfbfbf" points="355,-419.14 355,-449.14 459,-449.14 459,-419.14 355,-419.14"/>
<text text-anchor="start" x="363" y="-437.14" font-family="Helvetica,sans-Serif" font-size="10.00">std::basic_string&lt;</text>
<text text-anchor="middle" x="407" y="-426.14" font-family="Helvetica,sans-Serif" font-size="10.00"> char &gt;</text>
</a>
</g>
</g>
<!-- Node13&#45;&gt;Node12 -->
<g id="edge14" class="edge">
<title>Node13&#45;&gt;Node12</title>
<path fill="none" stroke="midnightblue" d="M469.19,-426.22C541.76,-416.83 659.95,-401.53 716.24,-394.25"/>
<polygon fill="midnightblue" stroke="midnightblue" points="468.74,-422.75 459.27,-427.5 469.64,-429.69 468.74,-422.75"/>
</g>
<!-- Node14 -->
<g id="node14" class="node">
<title>Node14</title>
<g id="a_node14"><a xlink:title="STL class.">
<polygon fill="white" stroke="#bfbfbf" points="698.5,-342.64 698.5,-361.64 799.5,-361.64 799.5,-342.64 698.5,-342.64"/>
<text text-anchor="middle" x="749" y="-349.64" font-family="Helvetica,sans-Serif" font-size="10.00">std::map&lt; K, T &gt;</text>
</a>
</g>
</g>
<!-- Node14&#45;&gt;Node11 -->
<g id="edge15" class="edge">
<title>Node14&#45;&gt;Node11</title>
<path fill="none" stroke="orange" stroke-dasharray="5,2" d="M809.82,-352.14C871.22,-352.14 966.24,-352.14 1027.79,-352.14"/>
<polygon fill="orange" stroke="orange" points="809.51,-348.64 799.51,-352.14 809.51,-355.64 809.51,-348.64"/>
<text text-anchor="middle" x="926" y="-355.14" font-family="Helvetica,sans-Serif" font-size="10.00"> &lt; std::string, double &gt;</text>
</g>
<!-- Node15 -->
<g id="node15" class="node">
<title>Node15</title>
<g id="a_node15"><a xlink:title=" ">
<polygon fill="white" stroke="#bfbfbf" points="392.5,-380.64 392.5,-399.64 421.5,-399.64 421.5,-380.64 392.5,-380.64"/>
<text text-anchor="middle" x="407" y="-387.64" font-family="Helvetica,sans-Serif" font-size="10.00">K</text>
</a>
</g>
</g>
<!-- Node15&#45;&gt;Node14 -->
<g id="edge16" class="edge">
<title>Node15&#45;&gt;Node14</title>
<path fill="none" stroke="#9a32cd" stroke-dasharray="5,2" d="M431.71,-388.24C474.56,-384.72 567.72,-376.67 646,-367.14 663.06,-365.06 681.66,-362.43 698.26,-359.96"/>
<polygon fill="#9a32cd" stroke="#9a32cd" points="431.39,-384.75 421.71,-389.05 431.96,-391.73 431.39,-384.75"/>
<text text-anchor="middle" x="579" y="-383.14" font-family="Helvetica,sans-Serif" font-size="10.00"> keys</text>
</g>
<!-- Node16 -->
<g id="node16" class="node">
<title>Node16</title>
<g id="a_node16"><a xlink:title=" ">
<polygon fill="white" stroke="#bfbfbf" points="392.5,-342.64 392.5,-361.64 421.5,-361.64 421.5,-342.64 392.5,-342.64"/>
<text text-anchor="middle" x="407" y="-349.64" font-family="Helvetica,sans-Serif" font-size="10.00">T</text>
</a>
</g>
</g>
<!-- Node16&#45;&gt;Node14 -->
<g id="edge17" class="edge">
<title>Node16&#45;&gt;Node14</title>
<path fill="none" stroke="#9a32cd" stroke-dasharray="5,2" d="M431.93,-352.14C487.06,-352.14 623.96,-352.14 698.21,-352.14"/>
<polygon fill="#9a32cd" stroke="#9a32cd" points="431.75,-348.64 421.75,-352.14 431.75,-355.64 431.75,-348.64"/>
<text text-anchor="middle" x="579" y="-355.14" font-family="Helvetica,sans-Serif" font-size="10.00"> elements</text>
</g>
<!-- Node17 -->
<g id="node17" class="node">
<title>Node17</title>
<g id="a_node17"><a xlink:href="classitk_1_1RGBAPixel.html" target="_top" xlink:title=" ">
<polygon fill="white" stroke="black" points="1018,-268.64 1018,-287.64 1160,-287.64 1160,-268.64 1018,-268.64"/>
<text text-anchor="middle" x="1089" y="-275.64" font-family="Helvetica,sans-Serif" font-size="10.00">itk::RGBAPixel&lt; double &gt;</text>
</a>
</g>
</g>
<!-- Node17&#45;&gt;Node2 -->
<g id="edge18" class="edge">
<title>Node17&#45;&gt;Node2</title>
<path fill="none" stroke="#9a32cd" stroke-dasharray="5,2" d="M1170.26,-272.38C1247.95,-267.53 1369.04,-261.86 1474,-265.14 1496.03,-265.83 1519.93,-267.1 1541.81,-268.49"/>
<polygon fill="#9a32cd" stroke="#9a32cd" points="1169.83,-268.9 1160.07,-273.03 1170.27,-275.89 1169.83,-268.9"/>
<text text-anchor="middle" x="1410.5" y="-268.14" font-family="Helvetica,sans-Serif" font-size="10.00"> m_Color</text>
</g>
<!-- Node17&#45;&gt;Node21 -->
<g id="edge32" class="edge">
<title>Node17&#45;&gt;Node21</title>
<path fill="none" stroke="#9a32cd" stroke-dasharray="5,2" d="M1170.12,-282.02C1216.55,-284.47 1276.11,-287.96 1329,-292.14 1335.16,-292.62 1341.58,-293.18 1347.99,-293.77"/>
<polygon fill="#9a32cd" stroke="#9a32cd" points="1170.29,-278.52 1160.12,-281.5 1169.92,-285.51 1170.29,-278.52"/>
<text text-anchor="middle" x="1253.5" y="-295.14" font-family="Helvetica,sans-Serif" font-size="10.00"> m_Color</text>
</g>
<!-- Node18&#45;&gt;Node17 -->
<g id="edge19" class="edge">
<title>Node18&#45;&gt;Node17</title>
<path fill="none" stroke="midnightblue" d="M495.09,-265.93C631.51,-268.74 892.93,-274.12 1017.99,-276.7"/>
<polygon fill="midnightblue" stroke="midnightblue" points="494.75,-262.42 484.68,-265.72 494.61,-269.42 494.75,-262.42"/>
</g>
<!-- Node19 -->
<g id="node19" class="node">
<title>Node19</title>
<g id="a_node19"><a xlink:href="classitk_1_1RGBAPixel.html" target="_top" xlink:title="Represent Red, Green, Blue and Alpha components for color images.">
<polygon fill="white" stroke="black" points="664,-297.64 664,-316.64 834,-316.64 834,-297.64 664,-297.64"/>
<text text-anchor="middle" x="749" y="-304.64" font-family="Helvetica,sans-Serif" font-size="10.00">itk::RGBAPixel&lt; TComponent &gt;</text>
</a>
</g>
</g>
<!-- Node19&#45;&gt;Node17 -->
<g id="edge22" class="edge">
<title>Node19&#45;&gt;Node17</title>
<path fill="none" stroke="orange" stroke-dasharray="5,2" d="M844.52,-299.03C899.47,-294.31 967.56,-288.47 1017.75,-284.16"/>
<polygon fill="orange" stroke="orange" points="844.08,-295.55 834.42,-299.89 844.68,-302.53 844.08,-295.55"/>
<text text-anchor="middle" x="926" y="-300.14" font-family="Helvetica,sans-Serif" font-size="10.00"> &lt; double &gt;</text>
</g>
<!-- Node20&#45;&gt;Node19 -->
<g id="edge23" class="edge">
<title>Node20&#45;&gt;Node19</title>
<path fill="none" stroke="midnightblue" d="M489.18,-307.9C541.88,-307.74 610.41,-307.54 663.71,-307.39"/>
<polygon fill="midnightblue" stroke="midnightblue" points="488.85,-304.4 478.86,-307.93 488.87,-311.4 488.85,-304.4"/>
</g>
<!-- Node21&#45;&gt;Node2 -->
<g id="edge26" class="edge">
<title>Node21&#45;&gt;Node2</title>
<path fill="none" stroke="orange" stroke-dasharray="5,2" d="M1483.31,-291.1C1502.41,-288.69 1523.1,-286.09 1542.4,-283.66"/>
<polygon fill="orange" stroke="orange" points="1482.66,-287.65 1473.18,-292.37 1483.54,-294.6 1482.66,-287.65"/>
<text text-anchor="middle" x="1508" y="-292.14" font-family="Helvetica,sans-Serif" font-size="10.00"> &lt; 3 &gt;</text>
</g>
<!-- Node22&#45;&gt;Node21 -->
<g id="edge27" class="edge">
<title>Node22&#45;&gt;Node21</title>
<path fill="none" stroke="#9a32cd" stroke-dasharray="5,2" d="M1162.96,-236.3C1210.78,-242.08 1274.33,-251.81 1329,-267.14 1345.43,-271.75 1363.04,-278.72 1377.59,-285.06"/>
<polygon fill="#9a32cd" stroke="#9a32cd" points="1163.34,-232.82 1153,-235.13 1162.52,-239.77 1163.34,-232.82"/>
<text text-anchor="middle" x="1253.5" y="-270.14" font-family="Helvetica,sans-Serif" font-size="10.00"> m_PositionInObjectSpace</text>
</g>
<!-- Node23&#45;&gt;Node1 -->
<g id="edge33" class="edge">
<title>Node23&#45;&gt;Node1</title>
<path fill="none" stroke="#9a32cd" stroke-dasharray="5,2" d="M490.5,-52.37C559.26,-60.01 659.86,-69.14 748,-69.14 748,-69.14 748,-69.14 1620,-69.14 1657.17,-69.14 1698.46,-71.58 1732.59,-74.26"/>
<polygon fill="#9a32cd" stroke="#9a32cd" points="490.49,-48.84 480.16,-51.2 489.71,-55.8 490.49,-48.84"/>
<text text-anchor="middle" x="1253.5" y="-72.14" font-family="Helvetica,sans-Serif" font-size="10.00"> m_NormalArrayInObjectSpace</text>
</g>
</g>
</svg>
