<?xml version="1.0" encoding="UTF-8" standalone="no"?>
<!DOCTYPE svg PUBLIC "-//W3C//DTD SVG 1.1//EN"
 "http://www.w3.org/Graphics/SVG/1.1/DTD/svg11.dtd">
<!-- Generated by graphviz version 2.43.0 (0)
 -->
<!-- Title: itk::ChainCodePath&lt; VDimension &gt; Pages: 1 -->
<svg width="287pt" height="502pt"
 viewBox="0.00 0.00 287.00 502.00" xmlns="http://www.w3.org/2000/svg" xmlns:xlink="http://www.w3.org/1999/xlink">
<g id="graph0" class="graph" transform="scale(1 1) rotate(0) translate(4 498)">
<title>itk::ChainCodePath&lt; VDimension &gt;</title>
<polygon fill="white" stroke="transparent" points="-4,4 -4,-498 283,-498 283,4 -4,4"/>
<!-- Node1 -->
<g id="node1" class="node">
<title>Node1</title>
<g id="a_node1"><a xlink:title="Represent a path as a sequence of connected image index offsets.">
<polygon fill="#bfbfbf" stroke="black" points="14.5,-124.5 14.5,-154.5 123.5,-154.5 123.5,-124.5 14.5,-124.5"/>
<text text-anchor="start" x="22.5" y="-142.5" font-family="Helvetica,sans-Serif" font-size="10.00">itk::ChainCodePath</text>
<text text-anchor="middle" x="69" y="-131.5" font-family="Helvetica,sans-Serif" font-size="10.00">&lt; VDimension &gt;</text>
</a>
</g>
</g>
<!-- Node7 -->
<g id="node7" class="node">
<title>Node7</title>
<g id="a_node7"><a xlink:href="classitk_1_1ChainCodePath.html" target="_top" xlink:title=" ">
<polygon fill="white" stroke="black" points="0.5,-57.5 0.5,-76.5 137.5,-76.5 137.5,-57.5 0.5,-57.5"/>
<text text-anchor="middle" x="69" y="-64.5" font-family="Helvetica,sans-Serif" font-size="10.00">itk::ChainCodePath&lt; 2 &gt;</text>
</a>
</g>
</g>
<!-- Node1&#45;&gt;Node7 -->
<g id="edge7" class="edge">
<title>Node1&#45;&gt;Node7</title>
<path fill="none" stroke="orange" stroke-dasharray="5,2" d="M69,-114.09C69,-101.21 69,-86.2 69,-76.89"/>
<polygon fill="orange" stroke="orange" points="65.5,-114.23 69,-124.23 72.5,-114.23 65.5,-114.23"/>
<text text-anchor="middle" x="85" y="-98" font-family="Helvetica,sans-Serif" font-size="10.00"> &lt; 2 &gt;</text>
</g>
<!-- Node2 -->
<g id="node2" class="node">
<title>Node2</title>
<g id="a_node2"><a xlink:href="classitk_1_1Path.html" target="_top" xlink:title=" ">
<polygon fill="white" stroke="black" points="0,-192.5 0,-233.5 138,-233.5 138,-192.5 0,-192.5"/>
<text text-anchor="start" x="8" y="-221.5" font-family="Helvetica,sans-Serif" font-size="10.00">itk::Path&lt; unsigned</text>
<text text-anchor="start" x="8" y="-210.5" font-family="Helvetica,sans-Serif" font-size="10.00"> int, Offset&lt; VDimension</text>
<text text-anchor="middle" x="69" y="-199.5" font-family="Helvetica,sans-Serif" font-size="10.00"> &gt;, VDimension &gt;</text>
</a>
</g>
</g>
<!-- Node2&#45;&gt;Node1 -->
<g id="edge1" class="edge">
<title>Node2&#45;&gt;Node1</title>
<path fill="none" stroke="midnightblue" d="M69,-182.16C69,-172.69 69,-162.65 69,-154.8"/>
<polygon fill="midnightblue" stroke="midnightblue" points="65.5,-182.46 69,-192.46 72.5,-182.46 65.5,-182.46"/>
</g>
<!-- Node3 -->
<g id="node3" class="node">
<title>Node3</title>
<g id="a_node3"><a xlink:href="classitk_1_1DataObject.html" target="_top" xlink:title="Base class for all data objects in ITK.">
<polygon fill="white" stroke="black" points="20,-360.5 20,-379.5 110,-379.5 110,-360.5 20,-360.5"/>
<text text-anchor="middle" x="65" y="-367.5" font-family="Helvetica,sans-Serif" font-size="10.00">itk::DataObject</text>
</a>
</g>
</g>
<!-- Node3&#45;&gt;Node2 -->
<g id="edge2" class="edge">
<title>Node3&#45;&gt;Node2</title>
<path fill="none" stroke="midnightblue" d="M65.49,-350C66.25,-320.38 67.72,-263.51 68.5,-233.56"/>
<polygon fill="midnightblue" stroke="midnightblue" points="61.99,-350.14 65.23,-360.22 68.98,-350.32 61.99,-350.14"/>
</g>
<!-- Node6 -->
<g id="node6" class="node">
<title>Node6</title>
<g id="a_node6"><a xlink:href="classitk_1_1Path.html" target="_top" xlink:title="Represent a path through ND Space.">
<polygon fill="white" stroke="black" points="81.5,-292.5 81.5,-322.5 216.5,-322.5 216.5,-292.5 81.5,-292.5"/>
<text text-anchor="start" x="89.5" y="-310.5" font-family="Helvetica,sans-Serif" font-size="10.00">itk::Path&lt; TInput,</text>
<text text-anchor="middle" x="149" y="-299.5" font-family="Helvetica,sans-Serif" font-size="10.00"> TOutput, VDimension &gt;</text>
</a>
</g>
</g>
<!-- Node3&#45;&gt;Node6 -->
<g id="edge6" class="edge">
<title>Node3&#45;&gt;Node6</title>
<path fill="none" stroke="midnightblue" d="M85.19,-354.46C98.64,-344.77 116.22,-332.11 129.53,-322.53"/>
<polygon fill="midnightblue" stroke="midnightblue" points="83.1,-351.65 77.04,-360.33 87.2,-357.33 83.1,-351.65"/>
</g>
<!-- Node4 -->
<g id="node4" class="node">
<title>Node4</title>
<g id="a_node4"><a xlink:href="classitk_1_1Object.html" target="_top" xlink:title="Base class for most ITK classes.">
<polygon fill="white" stroke="black" points="31.5,-417.5 31.5,-436.5 98.5,-436.5 98.5,-417.5 31.5,-417.5"/>
<text text-anchor="middle" x="65" y="-424.5" font-family="Helvetica,sans-Serif" font-size="10.00">itk::Object</text>
</a>
</g>
</g>
<!-- Node4&#45;&gt;Node3 -->
<g id="edge3" class="edge">
<title>Node4&#45;&gt;Node3</title>
<path fill="none" stroke="midnightblue" d="M65,-407.12C65,-397.82 65,-387.06 65,-379.71"/>
<polygon fill="midnightblue" stroke="midnightblue" points="61.5,-407.41 65,-417.41 68.5,-407.41 61.5,-407.41"/>
</g>
<!-- Node5 -->
<g id="node5" class="node">
<title>Node5</title>
<g id="a_node5"><a xlink:href="classitk_1_1LightObject.html" target="_top" xlink:title="Light weight base class for most itk classes.">
<polygon fill="white" stroke="black" points="19.5,-474.5 19.5,-493.5 110.5,-493.5 110.5,-474.5 19.5,-474.5"/>
<text text-anchor="middle" x="65" y="-481.5" font-family="Helvetica,sans-Serif" font-size="10.00">itk::LightObject</text>
</a>
</g>
</g>
<!-- Node5&#45;&gt;Node4 -->
<g id="edge4" class="edge">
<title>Node5&#45;&gt;Node4</title>
<path fill="none" stroke="midnightblue" d="M65,-464.12C65,-454.82 65,-444.06 65,-436.71"/>
<polygon fill="midnightblue" stroke="midnightblue" points="61.5,-464.41 65,-474.41 68.5,-464.41 61.5,-464.41"/>
</g>
<!-- Node6&#45;&gt;Node2 -->
<g id="edge5" class="edge">
<title>Node6&#45;&gt;Node2</title>
<path fill="none" stroke="orange" stroke-dasharray="5,2" d="M130.31,-284.88C116.91,-269.4 99.02,-248.71 86.02,-233.68"/>
<polygon fill="orange" stroke="orange" points="127.66,-287.18 136.85,-292.45 132.96,-282.6 127.66,-287.18"/>
<text text-anchor="start" x="120" y="-266" font-family="Helvetica,sans-Serif" font-size="10.00"> &lt; unsigned int, Offset</text>
<text text-anchor="middle" x="199.5" y="-255" font-family="Helvetica,sans-Serif" font-size="10.00">&lt; VDimension &gt;, VDimension &gt;</text>
</g>
<!-- Node8 -->
<g id="node8" class="node">
<title>Node8</title>
<g id="a_node8"><a xlink:href="classitk_1_1ChainCodePath2D.html" target="_top" xlink:title="Represent a 2D path as a sequence of connected image index offsets.">
<polygon fill="white" stroke="black" points="8,-0.5 8,-19.5 130,-19.5 130,-0.5 8,-0.5"/>
<text text-anchor="middle" x="69" y="-7.5" font-family="Helvetica,sans-Serif" font-size="10.00">itk::ChainCodePath2D</text>
</a>
</g>
</g>
<!-- Node7&#45;&gt;Node8 -->
<g id="edge8" class="edge">
<title>Node7&#45;&gt;Node8</title>
<path fill="none" stroke="midnightblue" d="M69,-47.12C69,-37.82 69,-27.06 69,-19.71"/>
<polygon fill="midnightblue" stroke="midnightblue" points="65.5,-47.41 69,-57.41 72.5,-47.41 65.5,-47.41"/>
</g>
</g>
</svg>
