<?xml version="1.0" encoding="UTF-8" standalone="no"?>
<!DOCTYPE svg PUBLIC "-//W3C//DTD SVG 1.1//EN"
 "http://www.w3.org/Graphics/SVG/1.1/DTD/svg11.dtd">
<!-- Generated by graphviz version 2.43.0 (0)
 -->
<!-- Title: itk::watershed::SegmentTreeGenerator&lt; TScalar &gt; Pages: 1 -->
<svg width="1777pt" height="540pt"
 viewBox="0.00 0.00 1777.00 540.12" xmlns="http://www.w3.org/2000/svg" xmlns:xlink="http://www.w3.org/1999/xlink">
<g id="graph0" class="graph" transform="scale(1 1) rotate(0) translate(4 536.12)">
<title>itk::watershed::SegmentTreeGenerator&lt; TScalar &gt;</title>
<polygon fill="white" stroke="transparent" points="-4,4 -4,-536.12 1773,-536.12 1773,4 -4,4"/>
<!-- Node1 -->
<g id="node1" class="node">
<title>Node1</title>
<g id="a_node1"><a xlink:title=" ">
<polygon fill="#bfbfbf" stroke="black" points="1613,-80.12 1613,-110.12 1769,-110.12 1769,-80.12 1613,-80.12"/>
<text text-anchor="start" x="1621" y="-98.12" font-family="Helvetica,sans-Serif" font-size="10.00">itk::watershed::SegmentTree</text>
<text text-anchor="middle" x="1691" y="-87.12" font-family="Helvetica,sans-Serif" font-size="10.00">Generator&lt; TScalar &gt;</text>
</a>
</g>
</g>
<!-- Node2 -->
<g id="node2" class="node">
<title>Node2</title>
<g id="a_node2"><a xlink:href="classitk_1_1ProcessObject.html" target="_top" xlink:title="The base class for all process objects (source, filters, mappers) in the Insight data processing pipe...">
<polygon fill="white" stroke="black" points="1472,-251.62 1472,-270.62 1576,-270.62 1576,-251.62 1472,-251.62"/>
<text text-anchor="middle" x="1524" y="-258.62" font-family="Helvetica,sans-Serif" font-size="10.00">itk::ProcessObject</text>
</a>
</g>
</g>
<!-- Node2&#45;&gt;Node1 -->
<g id="edge1" class="edge">
<title>Node2&#45;&gt;Node1</title>
<path fill="none" stroke="midnightblue" d="M1542.23,-243.79C1574.66,-211.16 1644.28,-141.12 1674.96,-110.25"/>
<polygon fill="midnightblue" stroke="midnightblue" points="1539.39,-241.67 1534.83,-251.23 1544.36,-246.6 1539.39,-241.67"/>
</g>
<!-- Node3 -->
<g id="node3" class="node">
<title>Node3</title>
<g id="a_node3"><a xlink:href="classitk_1_1Object.html" target="_top" xlink:title="Base class for most ITK classes.">
<polygon fill="white" stroke="black" points="1176,-312.62 1176,-331.62 1243,-331.62 1243,-312.62 1176,-312.62"/>
<text text-anchor="middle" x="1209.5" y="-319.62" font-family="Helvetica,sans-Serif" font-size="10.00">itk::Object</text>
</a>
</g>
</g>
<!-- Node3&#45;&gt;Node2 -->
<g id="edge2" class="edge">
<title>Node3&#45;&gt;Node2</title>
<path fill="none" stroke="midnightblue" d="M1253.11,-314.43C1301.77,-305.57 1383.74,-290.39 1454,-276.12 1462.41,-274.41 1471.38,-272.51 1479.97,-270.66"/>
<polygon fill="midnightblue" stroke="midnightblue" points="1252.46,-310.99 1243.25,-316.22 1253.71,-317.88 1252.46,-310.99"/>
</g>
<!-- Node4 -->
<g id="node4" class="node">
<title>Node4</title>
<g id="a_node4"><a xlink:href="classitk_1_1LightObject.html" target="_top" xlink:title="Light weight base class for most itk classes.">
<polygon fill="white" stroke="black" points="834.5,-349.62 834.5,-368.62 925.5,-368.62 925.5,-349.62 834.5,-349.62"/>
<text text-anchor="middle" x="880" y="-356.62" font-family="Helvetica,sans-Serif" font-size="10.00">itk::LightObject</text>
</a>
</g>
</g>
<!-- Node4&#45;&gt;Node3 -->
<g id="edge3" class="edge">
<title>Node4&#45;&gt;Node3</title>
<path fill="none" stroke="midnightblue" d="M935.62,-353.19C981.4,-348.2 1048.48,-340.81 1107,-334.12 1129.92,-331.49 1155.73,-328.44 1175.59,-326.07"/>
<polygon fill="midnightblue" stroke="midnightblue" points="935.17,-349.72 925.61,-354.28 935.93,-356.68 935.17,-349.72"/>
</g>
<!-- Node5 -->
<g id="node5" class="node">
<title>Node5</title>
<g id="a_node5"><a xlink:title=" ">
<polygon fill="white" stroke="#bfbfbf" points="492,-351.62 492,-370.62 599,-370.62 599,-351.62 492,-351.62"/>
<text text-anchor="middle" x="545.5" y="-358.62" font-family="Helvetica,sans-Serif" font-size="10.00">std::atomic&lt; int &gt;</text>
</a>
</g>
</g>
<!-- Node5&#45;&gt;Node4 -->
<g id="edge4" class="edge">
<title>Node5&#45;&gt;Node4</title>
<path fill="none" stroke="#9a32cd" stroke-dasharray="5,2" d="M609.41,-360.74C675.06,-360.34 776.36,-359.73 834.28,-359.39"/>
<polygon fill="#9a32cd" stroke="#9a32cd" points="609.16,-357.24 599.19,-360.8 609.21,-364.24 609.16,-357.24"/>
<text text-anchor="middle" x="721.5" y="-364.12" font-family="Helvetica,sans-Serif" font-size="10.00"> m_ReferenceCount</text>
</g>
<!-- Node6 -->
<g id="node6" class="node">
<title>Node6</title>
<g id="a_node6"><a xlink:title="STL class.">
<polygon fill="white" stroke="#bfbfbf" points="135.5,-383.62 135.5,-402.62 235.5,-402.62 235.5,-383.62 135.5,-383.62"/>
<text text-anchor="middle" x="185.5" y="-390.62" font-family="Helvetica,sans-Serif" font-size="10.00">std::atomic&lt; T &gt;</text>
</a>
</g>
</g>
<!-- Node6&#45;&gt;Node5 -->
<g id="edge5" class="edge">
<title>Node6&#45;&gt;Node5</title>
<path fill="none" stroke="orange" stroke-dasharray="5,2" d="M245.68,-385.38C255.46,-384.21 265.51,-383.08 275,-382.12 350.17,-374.52 437.39,-368.17 491.76,-364.51"/>
<polygon fill="orange" stroke="orange" points="245.11,-381.92 235.61,-386.61 245.96,-388.87 245.11,-381.92"/>
<text text-anchor="middle" x="359" y="-385.12" font-family="Helvetica,sans-Serif" font-size="10.00"> &lt; int &gt;</text>
</g>
<!-- Node15 -->
<g id="node15" class="node">
<title>Node15</title>
<g id="a_node15"><a xlink:href="classitk_1_1TimeStamp.html" target="_top" xlink:title="Generate a unique, increasing time value.">
<polygon fill="white" stroke="black" points="834,-397.62 834,-416.62 926,-416.62 926,-397.62 834,-397.62"/>
<text text-anchor="middle" x="880" y="-404.62" font-family="Helvetica,sans-Serif" font-size="10.00">itk::TimeStamp</text>
</a>
</g>
</g>
<!-- Node6&#45;&gt;Node15 -->
<g id="edge17" class="edge">
<title>Node6&#45;&gt;Node15</title>
<path fill="none" stroke="#9a32cd" stroke-dasharray="5,2" d="M245.96,-394.32C381.82,-397.07 712.58,-403.75 833.64,-406.2"/>
<polygon fill="#9a32cd" stroke="#9a32cd" points="245.82,-390.82 235.75,-394.11 245.67,-397.81 245.82,-390.82"/>
<text text-anchor="middle" x="545.5" y="-405.12" font-family="Helvetica,sans-Serif" font-size="10.00"> m_GlobalTimeStamp</text>
</g>
<!-- Node19 -->
<g id="node19" class="node">
<title>Node19</title>
<g id="a_node19"><a xlink:title=" ">
<polygon fill="white" stroke="#bfbfbf" points="654.5,-436.62 654.5,-455.62 788.5,-455.62 788.5,-436.62 654.5,-436.62"/>
<text text-anchor="middle" x="721.5" y="-443.62" font-family="Helvetica,sans-Serif" font-size="10.00">std::atomic&lt; uint32_t &gt;</text>
</a>
</g>
</g>
<!-- Node6&#45;&gt;Node19 -->
<g id="edge26" class="edge">
<title>Node6&#45;&gt;Node19</title>
<path fill="none" stroke="orange" stroke-dasharray="5,2" d="M220.48,-406.07C236.74,-411.69 256.62,-417.75 275,-421.12 407.96,-445.48 566.65,-448.25 654.22,-447.54"/>
<polygon fill="orange" stroke="orange" points="221.47,-402.7 210.88,-402.65 219.13,-409.3 221.47,-402.7"/>
<text text-anchor="middle" x="359" y="-444.12" font-family="Helvetica,sans-Serif" font-size="10.00"> &lt; uint32_t &gt;</text>
</g>
<!-- Node7 -->
<g id="node7" class="node">
<title>Node7</title>
<g id="a_node7"><a xlink:title=" ">
<polygon fill="white" stroke="#bfbfbf" points="0,-355.62 0,-374.62 29,-374.62 29,-355.62 0,-355.62"/>
<text text-anchor="middle" x="14.5" y="-362.62" font-family="Helvetica,sans-Serif" font-size="10.00">T</text>
</a>
</g>
</g>
<!-- Node7&#45;&gt;Node6 -->
<g id="edge6" class="edge">
<title>Node7&#45;&gt;Node6</title>
<path fill="none" stroke="#9a32cd" stroke-dasharray="5,2" d="M39,-369.01C63.8,-373.12 103.63,-379.72 135.35,-384.97"/>
<polygon fill="#9a32cd" stroke="#9a32cd" points="39.48,-365.54 29.04,-367.36 38.34,-372.45 39.48,-365.54"/>
<text text-anchor="middle" x="71.5" y="-382.12" font-family="Helvetica,sans-Serif" font-size="10.00"> ptr</text>
</g>
<!-- Node12 -->
<g id="node12" class="node">
<title>Node12</title>
<g id="a_node12"><a xlink:title="STL class.">
<polygon fill="white" stroke="#bfbfbf" points="135,-225.62 135,-244.62 236,-244.62 236,-225.62 135,-225.62"/>
<text text-anchor="middle" x="185.5" y="-232.62" font-family="Helvetica,sans-Serif" font-size="10.00">std::map&lt; K, T &gt;</text>
</a>
</g>
</g>
<!-- Node7&#45;&gt;Node12 -->
<g id="edge13" class="edge">
<title>Node7&#45;&gt;Node12</title>
<path fill="none" stroke="#9a32cd" stroke-dasharray="5,2" d="M30.01,-347.4C35.11,-341.61 41.06,-335.34 47,-330.12 87.31,-294.67 141.17,-260.84 167.94,-244.81"/>
<polygon fill="#9a32cd" stroke="#9a32cd" points="27.06,-345.46 23.24,-355.34 32.39,-350 27.06,-345.46"/>
<text text-anchor="middle" x="71.5" y="-333.12" font-family="Helvetica,sans-Serif" font-size="10.00"> elements</text>
</g>
<!-- Node14 -->
<g id="node14" class="node">
<title>Node14</title>
<g id="a_node14"><a xlink:title="STL class.">
<polygon fill="white" stroke="#bfbfbf" points="126.5,-328.62 126.5,-347.62 244.5,-347.62 244.5,-328.62 126.5,-328.62"/>
<text text-anchor="middle" x="185.5" y="-335.62" font-family="Helvetica,sans-Serif" font-size="10.00">std::shared_ptr&lt; T &gt;</text>
</a>
</g>
</g>
<!-- Node7&#45;&gt;Node14 -->
<g id="edge15" class="edge">
<title>Node7&#45;&gt;Node14</title>
<path fill="none" stroke="#9a32cd" stroke-dasharray="5,2" d="M38.68,-355.53C41.45,-354.61 44.27,-353.78 47,-353.12 72.68,-346.93 101.68,-343.29 126.4,-341.15"/>
<polygon fill="#9a32cd" stroke="#9a32cd" points="37.23,-352.33 29.06,-359.08 39.65,-358.9 37.23,-352.33"/>
<text text-anchor="middle" x="71.5" y="-356.12" font-family="Helvetica,sans-Serif" font-size="10.00"> ptr</text>
</g>
<!-- Node22 -->
<g id="node22" class="node">
<title>Node22</title>
<g id="a_node22"><a xlink:title="STL class.">
<polygon fill="white" stroke="#bfbfbf" points="137,-507.62 137,-526.62 234,-526.62 234,-507.62 137,-507.62"/>
<text text-anchor="middle" x="185.5" y="-514.62" font-family="Helvetica,sans-Serif" font-size="10.00">std::vector&lt; T &gt;</text>
</a>
</g>
</g>
<!-- Node7&#45;&gt;Node22 -->
<g id="edge30" class="edge">
<title>Node7&#45;&gt;Node22</title>
<path fill="none" stroke="#9a32cd" stroke-dasharray="5,2" d="M24.27,-383.99C38.76,-413.03 70.46,-468.44 114,-498.12 120.81,-502.76 128.7,-506.27 136.7,-508.92"/>
<polygon fill="#9a32cd" stroke="#9a32cd" points="27.38,-382.38 19.88,-374.9 21.08,-385.43 27.38,-382.38"/>
<text text-anchor="middle" x="71.5" y="-485.12" font-family="Helvetica,sans-Serif" font-size="10.00"> elements</text>
</g>
<!-- Node8 -->
<g id="node8" class="node">
<title>Node8</title>
<g id="a_node8"><a xlink:title="STL class.">
<polygon fill="white" stroke="#bfbfbf" points="847.5,-202.62 847.5,-221.62 912.5,-221.62 912.5,-202.62 847.5,-202.62"/>
<text text-anchor="middle" x="880" y="-209.62" font-family="Helvetica,sans-Serif" font-size="10.00">std::string</text>
</a>
</g>
</g>
<!-- Node8&#45;&gt;Node3 -->
<g id="edge7" class="edge">
<title>Node8&#45;&gt;Node3</title>
<path fill="none" stroke="#9a32cd" stroke-dasharray="5,2" d="M918.26,-225.08C932.83,-230.12 949.69,-235.93 965,-241.12 1042.22,-267.29 1133.47,-297.43 1179.23,-312.5"/>
<polygon fill="#9a32cd" stroke="#9a32cd" points="919.19,-221.7 908.59,-221.73 916.89,-228.31 919.19,-221.7"/>
<text text-anchor="middle" x="1036" y="-291.12" font-family="Helvetica,sans-Serif" font-size="10.00"> m_ObjectName</text>
</g>
<!-- Node16 -->
<g id="node16" class="node">
<title>Node16</title>
<g id="a_node16"><a xlink:title=" ">
<polygon fill="white" stroke="#bfbfbf" points="1128.5,-246.12 1128.5,-276.12 1290.5,-276.12 1290.5,-246.12 1128.5,-246.12"/>
<text text-anchor="start" x="1136.5" y="-264.12" font-family="Helvetica,sans-Serif" font-size="10.00">std::set&lt; DataObjectIdentifier</text>
<text text-anchor="middle" x="1209.5" y="-253.12" font-family="Helvetica,sans-Serif" font-size="10.00">Type &gt;</text>
</a>
</g>
</g>
<!-- Node8&#45;&gt;Node16 -->
<g id="edge19" class="edge">
<title>Node8&#45;&gt;Node16</title>
<path fill="none" stroke="#9a32cd" stroke-dasharray="5,2" d="M922.84,-212.74C968.48,-214.05 1043.5,-218.04 1107,-230.12 1126.91,-233.9 1148.45,-240.16 1166.54,-246.06"/>
<polygon fill="#9a32cd" stroke="#9a32cd" points="922.82,-209.24 912.73,-212.48 922.64,-216.24 922.82,-209.24"/>
<text text-anchor="middle" x="1036" y="-233.12" font-family="Helvetica,sans-Serif" font-size="10.00"> keys</text>
</g>
<!-- Node18 -->
<g id="node18" class="node">
<title>Node18</title>
<g id="a_node18"><a xlink:title=" ">
<polygon fill="white" stroke="#bfbfbf" points="1125,-180.12 1125,-210.12 1294,-210.12 1294,-180.12 1125,-180.12"/>
<text text-anchor="start" x="1133" y="-198.12" font-family="Helvetica,sans-Serif" font-size="10.00">std::map&lt; DataObjectIdentifier</text>
<text text-anchor="middle" x="1209.5" y="-187.12" font-family="Helvetica,sans-Serif" font-size="10.00">Type, bool &gt;</text>
</a>
</g>
</g>
<!-- Node8&#45;&gt;Node18 -->
<g id="edge23" class="edge">
<title>Node8&#45;&gt;Node18</title>
<path fill="none" stroke="#9a32cd" stroke-dasharray="5,2" d="M922.64,-202.62C936.08,-199.97 951.11,-197.46 965,-196.12 1018.02,-191 1077.84,-190.68 1124.91,-191.67"/>
<polygon fill="#9a32cd" stroke="#9a32cd" points="921.81,-199.21 912.71,-204.65 923.21,-206.07 921.81,-199.21"/>
<text text-anchor="middle" x="1036" y="-199.12" font-family="Helvetica,sans-Serif" font-size="10.00"> keys</text>
</g>
<!-- Node23 -->
<g id="node23" class="node">
<title>Node23</title>
<g id="a_node23"><a xlink:title=" ">
<polygon fill="white" stroke="#bfbfbf" points="1125,-66.12 1125,-96.12 1294,-96.12 1294,-66.12 1125,-66.12"/>
<text text-anchor="start" x="1133" y="-84.12" font-family="Helvetica,sans-Serif" font-size="10.00">std::map&lt; DataObjectIdentifier</text>
<text text-anchor="middle" x="1209.5" y="-73.12" font-family="Helvetica,sans-Serif" font-size="10.00">Type, DataObjectPointer &gt;</text>
</a>
</g>
</g>
<!-- Node8&#45;&gt;Node23 -->
<g id="edge34" class="edge">
<title>Node8&#45;&gt;Node23</title>
<path fill="none" stroke="#9a32cd" stroke-dasharray="5,2" d="M913.01,-198.61C928.66,-192.05 947.78,-184.1 965,-177.12 970.03,-175.08 1103.1,-122.64 1170.35,-96.15"/>
<polygon fill="#9a32cd" stroke="#9a32cd" points="911.63,-195.39 903.77,-202.49 914.34,-201.85 911.63,-195.39"/>
<text text-anchor="middle" x="1036" y="-180.12" font-family="Helvetica,sans-Serif" font-size="10.00"> keys</text>
</g>
<!-- Node9 -->
<g id="node9" class="node">
<title>Node9</title>
<g id="a_node9"><a xlink:title="STL class.">
<polygon fill="white" stroke="#bfbfbf" points="493.5,-197.12 493.5,-227.12 597.5,-227.12 597.5,-197.12 493.5,-197.12"/>
<text text-anchor="start" x="501.5" y="-215.12" font-family="Helvetica,sans-Serif" font-size="10.00">std::basic_string&lt;</text>
<text text-anchor="middle" x="545.5" y="-204.12" font-family="Helvetica,sans-Serif" font-size="10.00"> char &gt;</text>
</a>
</g>
</g>
<!-- Node9&#45;&gt;Node8 -->
<g id="edge8" class="edge">
<title>Node9&#45;&gt;Node8</title>
<path fill="none" stroke="midnightblue" d="M607.85,-212.12C678.64,-212.12 792.34,-212.12 847.27,-212.12"/>
<polygon fill="midnightblue" stroke="midnightblue" points="607.72,-208.62 597.72,-212.12 607.72,-215.62 607.72,-208.62"/>
</g>
<!-- Node10 -->
<g id="node10" class="node">
<title>Node10</title>
<g id="a_node10"><a xlink:href="classitk_1_1MetaDataDictionary.html" target="_top" xlink:title="Provides a mechanism for storing a collection of arbitrary data types.">
<polygon fill="white" stroke="black" points="813,-308.62 813,-327.62 947,-327.62 947,-308.62 813,-308.62"/>
<text text-anchor="middle" x="880" y="-315.62" font-family="Helvetica,sans-Serif" font-size="10.00">itk::MetaDataDictionary</text>
</a>
</g>
</g>
<!-- Node10&#45;&gt;Node3 -->
<g id="edge9" class="edge">
<title>Node10&#45;&gt;Node3</title>
<path fill="none" stroke="#9a32cd" stroke-dasharray="5,2" d="M957.68,-319.05C1026.84,-319.9 1125.22,-321.1 1175.75,-321.72"/>
<polygon fill="#9a32cd" stroke="#9a32cd" points="957.32,-315.55 947.27,-318.93 957.23,-322.55 957.32,-315.55"/>
<text text-anchor="middle" x="1036" y="-324.12" font-family="Helvetica,sans-Serif" font-size="10.00"> m_MetaDataDictionary</text>
</g>
<!-- Node11 -->
<g id="node11" class="node">
<title>Node11</title>
<g id="a_node11"><a xlink:title=" ">
<polygon fill="white" stroke="#bfbfbf" points="471,-302.12 471,-332.12 620,-332.12 620,-302.12 471,-302.12"/>
<text text-anchor="start" x="479" y="-320.12" font-family="Helvetica,sans-Serif" font-size="10.00">std::shared_ptr&lt; MetaData</text>
<text text-anchor="middle" x="545.5" y="-309.12" font-family="Helvetica,sans-Serif" font-size="10.00">DictionaryMapType &gt;</text>
</a>
</g>
</g>
<!-- Node11&#45;&gt;Node10 -->
<g id="edge10" class="edge">
<title>Node11&#45;&gt;Node10</title>
<path fill="none" stroke="#9a32cd" stroke-dasharray="5,2" d="M630.63,-317.37C687.09,-317.54 760.43,-317.76 812.74,-317.92"/>
<polygon fill="#9a32cd" stroke="#9a32cd" points="630.3,-313.87 620.29,-317.34 630.28,-320.87 630.3,-313.87"/>
<text text-anchor="middle" x="721.5" y="-321.12" font-family="Helvetica,sans-Serif" font-size="10.00"> m_Dictionary</text>
</g>
<!-- Node12&#45;&gt;Node11 -->
<g id="edge11" class="edge">
<title>Node12&#45;&gt;Node11</title>
<path fill="none" stroke="#9a32cd" stroke-dasharray="5,2" d="M246.54,-227.2C299.69,-222.45 378.6,-221.02 443,-243.12 478.27,-255.22 511.71,-284.17 530.03,-302.06"/>
<polygon fill="#9a32cd" stroke="#9a32cd" points="245.88,-223.74 236.26,-228.18 246.55,-230.71 245.88,-223.74"/>
<text text-anchor="middle" x="359" y="-246.12" font-family="Helvetica,sans-Serif" font-size="10.00"> ptr</text>
</g>
<!-- Node12&#45;&gt;Node18 -->
<g id="edge24" class="edge">
<title>Node12&#45;&gt;Node18</title>
<path fill="none" stroke="orange" stroke-dasharray="5,2" d="M243.89,-223.63C299.28,-212.89 385.59,-197.06 461,-187.12 683.96,-157.72 740.33,-152.13 965,-142.12 1028.05,-139.31 1047.66,-120.63 1107,-142.12 1116.79,-145.66 1116.18,-151.58 1125,-157.12 1138.89,-165.84 1155.12,-173.7 1169.56,-179.97"/>
<polygon fill="orange" stroke="orange" points="243.07,-220.23 233.92,-225.58 244.4,-227.1 243.07,-220.23"/>
<text text-anchor="start" x="652" y="-178.12" font-family="Helvetica,sans-Serif" font-size="10.00"> &lt; DataObjectIdentifierType,</text>
<text text-anchor="middle" x="721.5" y="-167.12" font-family="Helvetica,sans-Serif" font-size="10.00"> bool &gt;</text>
</g>
<!-- Node12&#45;&gt;Node23 -->
<g id="edge35" class="edge">
<title>Node12&#45;&gt;Node23</title>
<path fill="none" stroke="orange" stroke-dasharray="5,2" d="M203.83,-218.2C244.62,-179.58 351.52,-85.17 461,-45.12 664.04,29.16 731.45,-7.38 947,-24.12 1018.76,-29.69 1036.92,-32.69 1107,-49.12 1126.43,-53.67 1147.53,-60.08 1165.43,-65.96"/>
<polygon fill="orange" stroke="orange" points="201.16,-215.91 196.36,-225.35 206.01,-220.96 201.16,-215.91"/>
<text text-anchor="start" x="652" y="-22.12" font-family="Helvetica,sans-Serif" font-size="10.00"> &lt; DataObjectIdentifierType,</text>
<text text-anchor="middle" x="721.5" y="-11.12" font-family="Helvetica,sans-Serif" font-size="10.00"> DataObjectPointer &gt;</text>
</g>
<!-- Node13 -->
<g id="node13" class="node">
<title>Node13</title>
<g id="a_node13"><a xlink:title=" ">
<polygon fill="white" stroke="#bfbfbf" points="0,-245.62 0,-264.62 29,-264.62 29,-245.62 0,-245.62"/>
<text text-anchor="middle" x="14.5" y="-252.62" font-family="Helvetica,sans-Serif" font-size="10.00">K</text>
</a>
</g>
</g>
<!-- Node13&#45;&gt;Node12 -->
<g id="edge12" class="edge">
<title>Node13&#45;&gt;Node12</title>
<path fill="none" stroke="#9a32cd" stroke-dasharray="5,2" d="M38.37,-242.92C41.21,-241.8 44.13,-240.82 47,-240.12 75.54,-233.12 108.39,-231.69 134.83,-232.1"/>
<polygon fill="#9a32cd" stroke="#9a32cd" points="36.81,-239.79 29.16,-247.12 39.71,-246.16 36.81,-239.79"/>
<text text-anchor="middle" x="71.5" y="-243.12" font-family="Helvetica,sans-Serif" font-size="10.00"> keys</text>
</g>
<!-- Node17 -->
<g id="node17" class="node">
<title>Node17</title>
<g id="a_node17"><a xlink:title="STL class.">
<polygon fill="white" stroke="#bfbfbf" points="318,-263.62 318,-282.62 400,-282.62 400,-263.62 318,-263.62"/>
<text text-anchor="middle" x="359" y="-270.62" font-family="Helvetica,sans-Serif" font-size="10.00">std::set&lt; K &gt;</text>
</a>
</g>
</g>
<!-- Node13&#45;&gt;Node17 -->
<g id="edge21" class="edge">
<title>Node13&#45;&gt;Node17</title>
<path fill="none" stroke="#9a32cd" stroke-dasharray="5,2" d="M39.38,-256.37C97.31,-259.42 245.82,-267.22 317.76,-271"/>
<polygon fill="#9a32cd" stroke="#9a32cd" points="39.52,-252.87 29.35,-255.84 39.15,-259.86 39.52,-252.87"/>
<text text-anchor="middle" x="71.5" y="-263.12" font-family="Helvetica,sans-Serif" font-size="10.00"> keys</text>
</g>
<!-- Node14&#45;&gt;Node11 -->
<g id="edge14" class="edge">
<title>Node14&#45;&gt;Node11</title>
<path fill="none" stroke="orange" stroke-dasharray="5,2" d="M254.85,-334.11C316.62,-330.48 407.3,-325.17 470.69,-321.45"/>
<polygon fill="orange" stroke="orange" points="254.59,-330.62 244.82,-334.7 255,-337.6 254.59,-330.62"/>
<text text-anchor="middle" x="359" y="-336.12" font-family="Helvetica,sans-Serif" font-size="10.00"> &lt; MetaDataDictionaryMapType &gt;</text>
</g>
<!-- Node15&#45;&gt;Node2 -->
<g id="edge38" class="edge">
<title>Node15&#45;&gt;Node2</title>
<path fill="none" stroke="#9a32cd" stroke-dasharray="5,2" d="M936.35,-406.6C982.3,-405.48 1049.24,-402.23 1107,-393.12 1264.27,-368.31 1307.61,-366.73 1454,-304.12 1474.76,-295.24 1496.53,-280.66 1509.93,-270.98"/>
<polygon fill="#9a32cd" stroke="#9a32cd" points="936.22,-403.1 926.3,-406.82 936.37,-410.1 936.22,-403.1"/>
<text text-anchor="middle" x="1209.5" y="-393.12" font-family="Helvetica,sans-Serif" font-size="10.00"> m_OutputInformationMTime</text>
</g>
<!-- Node15&#45;&gt;Node3 -->
<g id="edge16" class="edge">
<title>Node15&#45;&gt;Node3</title>
<path fill="none" stroke="#9a32cd" stroke-dasharray="5,2" d="M920.17,-394.5C934.22,-390.23 950.24,-385.65 965,-382.12 1027.39,-367.17 1044.87,-372.12 1107,-356.12 1133.45,-349.3 1162.99,-339.1 1183.35,-331.65"/>
<polygon fill="#9a32cd" stroke="#9a32cd" points="918.86,-391.24 910.33,-397.54 920.92,-397.93 918.86,-391.24"/>
<text text-anchor="middle" x="1036" y="-385.12" font-family="Helvetica,sans-Serif" font-size="10.00"> m_MTime</text>
</g>
<!-- Node16&#45;&gt;Node2 -->
<g id="edge18" class="edge">
<title>Node16&#45;&gt;Node2</title>
<path fill="none" stroke="#9a32cd" stroke-dasharray="5,2" d="M1300.76,-261.12C1356.22,-261.12 1425.26,-261.12 1471.55,-261.12"/>
<polygon fill="#9a32cd" stroke="#9a32cd" points="1300.57,-257.62 1290.57,-261.12 1300.57,-264.62 1300.57,-257.62"/>
<text text-anchor="middle" x="1383" y="-264.12" font-family="Helvetica,sans-Serif" font-size="10.00"> m_RequiredInputNames</text>
</g>
<!-- Node17&#45;&gt;Node16 -->
<g id="edge20" class="edge">
<title>Node17&#45;&gt;Node16</title>
<path fill="none" stroke="orange" stroke-dasharray="5,2" d="M410.55,-273.34C514.42,-273.79 759.37,-274.78 965,-275.12 1028.11,-275.22 1044.04,-279.44 1107,-275.12 1113.92,-274.64 1121.09,-273.99 1128.27,-273.22"/>
<polygon fill="orange" stroke="orange" points="410.37,-269.84 400.36,-273.3 410.34,-276.84 410.37,-269.84"/>
<text text-anchor="middle" x="721.5" y="-278.12" font-family="Helvetica,sans-Serif" font-size="10.00"> &lt; DataObjectIdentifierType &gt;</text>
</g>
<!-- Node18&#45;&gt;Node2 -->
<g id="edge22" class="edge">
<title>Node18&#45;&gt;Node2</title>
<path fill="none" stroke="#9a32cd" stroke-dasharray="5,2" d="M1304.38,-206.12C1349.99,-212.59 1405.33,-222.09 1454,-235.12 1470.08,-239.42 1487.62,-246.06 1500.99,-251.55"/>
<polygon fill="#9a32cd" stroke="#9a32cd" points="1304.59,-202.62 1294.2,-204.71 1303.62,-209.55 1304.59,-202.62"/>
<text text-anchor="start" x="1312" y="-249.12" font-family="Helvetica,sans-Serif" font-size="10.00"> m_CachedInputReleaseData</text>
<text text-anchor="middle" x="1383" y="-238.12" font-family="Helvetica,sans-Serif" font-size="10.00">Flags</text>
</g>
<!-- Node19&#45;&gt;Node2 -->
<g id="edge25" class="edge">
<title>Node19&#45;&gt;Node2</title>
<path fill="none" stroke="#9a32cd" stroke-dasharray="5,2" d="M798.58,-447.66C909.07,-448.34 1119.77,-443.7 1294,-405.12 1368.3,-388.66 1392.09,-388.38 1454,-344.12 1482.96,-323.41 1506.94,-287.72 1517.38,-270.69"/>
<polygon fill="#9a32cd" stroke="#9a32cd" points="798.56,-444.16 788.53,-447.59 798.51,-451.16 798.56,-444.16"/>
<text text-anchor="middle" x="1036" y="-448.12" font-family="Helvetica,sans-Serif" font-size="10.00"> m_Progress</text>
</g>
<!-- Node20 -->
<g id="node20" class="node">
<title>Node20</title>
<g id="a_node20"><a xlink:title=" ">
<polygon fill="white" stroke="#bfbfbf" points="461,-475.12 461,-505.12 630,-505.12 630,-475.12 461,-475.12"/>
<text text-anchor="start" x="469" y="-493.12" font-family="Helvetica,sans-Serif" font-size="10.00">std::vector&lt; DataObjectPointer</text>
<text text-anchor="middle" x="545.5" y="-482.12" font-family="Helvetica,sans-Serif" font-size="10.00">Map::iterator &gt;</text>
</a>
</g>
</g>
<!-- Node20&#45;&gt;Node2 -->
<g id="edge27" class="edge">
<title>Node20&#45;&gt;Node2</title>
<path fill="none" stroke="#9a32cd" stroke-dasharray="5,2" d="M640.27,-491.06C783.03,-490.68 1062.71,-482.82 1294,-433.12 1366.34,-417.57 1396.23,-433.35 1454,-387.12 1493.73,-355.33 1513.95,-294.19 1520.53,-270.67"/>
<polygon fill="#9a32cd" stroke="#9a32cd" points="640.23,-487.56 630.23,-491.07 640.24,-494.56 640.23,-487.56"/>
<text text-anchor="middle" x="1036" y="-493.12" font-family="Helvetica,sans-Serif" font-size="10.00"> m_IndexedOutputs</text>
<text text-anchor="middle" x="1036" y="-482.12" font-family="Helvetica,sans-Serif" font-size="10.00">m_IndexedInputs</text>
</g>
<!-- Node21 -->
<g id="node21" class="node">
<title>Node21</title>
<g id="a_node21"><a xlink:title="STL iterator class.">
<polygon fill="white" stroke="#bfbfbf" points="114,-469.62 114,-488.62 257,-488.62 257,-469.62 114,-469.62"/>
<text text-anchor="middle" x="185.5" y="-476.62" font-family="Helvetica,sans-Serif" font-size="10.00">std::map&lt; K, T &gt;::iterator</text>
</a>
</g>
</g>
<!-- Node21&#45;&gt;Node20 -->
<g id="edge28" class="edge">
<title>Node21&#45;&gt;Node20</title>
<path fill="none" stroke="#9a32cd" stroke-dasharray="5,2" d="M267.23,-479.28C317.76,-479.65 384.2,-480.63 443,-483.12 448.82,-483.36 454.83,-483.66 460.88,-484"/>
<polygon fill="#9a32cd" stroke="#9a32cd" points="267.05,-475.77 257.02,-479.21 267,-482.77 267.05,-475.77"/>
<text text-anchor="middle" x="359" y="-486.12" font-family="Helvetica,sans-Serif" font-size="10.00"> elements</text>
</g>
<!-- Node22&#45;&gt;Node20 -->
<g id="edge29" class="edge">
<title>Node22&#45;&gt;Node20</title>
<path fill="none" stroke="orange" stroke-dasharray="5,2" d="M244.23,-512.76C302.82,-508.34 394.14,-501.46 460.7,-496.44"/>
<polygon fill="orange" stroke="orange" points="243.75,-509.29 234.04,-513.53 244.27,-516.27 243.75,-509.29"/>
<text text-anchor="start" x="296.5" y="-524.12" font-family="Helvetica,sans-Serif" font-size="10.00"> &lt; DataObjectPointerMap</text>
<text text-anchor="middle" x="359" y="-513.12" font-family="Helvetica,sans-Serif" font-size="10.00">::iterator &gt;</text>
</g>
<!-- Node23&#45;&gt;Node2 -->
<g id="edge31" class="edge">
<title>Node23&#45;&gt;Node2</title>
<path fill="none" stroke="#9a32cd" stroke-dasharray="5,2" d="M1304.29,-70.5C1353.16,-69.83 1411.45,-77.17 1454,-108.12 1503.49,-144.11 1518.22,-224.01 1521.91,-251.56"/>
<polygon fill="#9a32cd" stroke="#9a32cd" points="1303.92,-67.01 1294.01,-70.76 1304.1,-74.01 1303.92,-67.01"/>
<text text-anchor="middle" x="1383" y="-122.12" font-family="Helvetica,sans-Serif" font-size="10.00"> m_Outputs</text>
<text text-anchor="middle" x="1383" y="-111.12" font-family="Helvetica,sans-Serif" font-size="10.00">m_Inputs</text>
</g>
<!-- Node24 -->
<g id="node24" class="node">
<title>Node24</title>
<g id="a_node24"><a xlink:href="classitk_1_1SmartPointer.html" target="_top" xlink:title=" ">
<polygon fill="white" stroke="black" points="826.5,-34.12 826.5,-64.12 933.5,-64.12 933.5,-34.12 826.5,-34.12"/>
<text text-anchor="start" x="834.5" y="-52.12" font-family="Helvetica,sans-Serif" font-size="10.00">itk::SmartPointer&lt;</text>
<text text-anchor="middle" x="880" y="-41.12" font-family="Helvetica,sans-Serif" font-size="10.00"> Self &gt;</text>
</a>
</g>
</g>
<!-- Node24&#45;&gt;Node1 -->
<g id="edge39" class="edge">
<title>Node24&#45;&gt;Node1</title>
<path fill="none" stroke="#9a32cd" stroke-dasharray="5,2" d="M943.79,-48.78C989.14,-48.62 1051.86,-48.56 1107,-49.12 1261.25,-50.67 1300.4,-41.95 1454,-56.12 1508.59,-61.15 1569.62,-71.36 1615.95,-80.07"/>
<polygon fill="#9a32cd" stroke="#9a32cd" points="943.5,-45.28 933.52,-48.82 943.53,-52.28 943.5,-45.28"/>
<text text-anchor="middle" x="1383" y="-59.12" font-family="Helvetica,sans-Serif" font-size="10.00"> m_MergedSegmentsTable</text>
</g>
<!-- Node24&#45;&gt;Node23 -->
<g id="edge32" class="edge">
<title>Node24&#45;&gt;Node23</title>
<path fill="none" stroke="#9a32cd" stroke-dasharray="5,2" d="M943.65,-51.6C989.1,-53.8 1051.99,-57.7 1107,-64.12 1112.86,-64.8 1118.89,-65.59 1124.96,-66.45"/>
<polygon fill="#9a32cd" stroke="#9a32cd" points="943.8,-48.1 933.65,-51.12 943.47,-55.09 943.8,-48.1"/>
<text text-anchor="middle" x="1036" y="-67.12" font-family="Helvetica,sans-Serif" font-size="10.00"> elements</text>
</g>
<!-- Node25 -->
<g id="node25" class="node">
<title>Node25</title>
<g id="a_node25"><a xlink:href="classitk_1_1SmartPointer.html" target="_top" xlink:title="Implements transparent reference counting.">
<polygon fill="white" stroke="black" points="492,-55.12 492,-85.12 599,-85.12 599,-55.12 492,-55.12"/>
<text text-anchor="start" x="500" y="-73.12" font-family="Helvetica,sans-Serif" font-size="10.00">itk::SmartPointer&lt;</text>
<text text-anchor="middle" x="545.5" y="-62.12" font-family="Helvetica,sans-Serif" font-size="10.00"> TObjectType &gt;</text>
</a>
</g>
</g>
<!-- Node25&#45;&gt;Node24 -->
<g id="edge33" class="edge">
<title>Node25&#45;&gt;Node24</title>
<path fill="none" stroke="orange" stroke-dasharray="5,2" d="M609.26,-63.43C622.06,-62.21 635.46,-61.03 648,-60.12 709.07,-55.66 779.35,-52.61 826.2,-50.87"/>
<polygon fill="orange" stroke="orange" points="608.75,-59.97 599.14,-64.42 609.43,-66.93 608.75,-59.97"/>
<text text-anchor="middle" x="721.5" y="-63.12" font-family="Helvetica,sans-Serif" font-size="10.00"> &lt; Self &gt;</text>
</g>
<!-- Node26 -->
<g id="node26" class="node">
<title>Node26</title>
<g id="a_node26"><a xlink:href="classitk_1_1SmartPointer.html" target="_top" xlink:title=" ">
<polygon fill="white" stroke="black" points="965,-82.12 965,-112.12 1107,-112.12 1107,-82.12 965,-82.12"/>
<text text-anchor="start" x="973" y="-100.12" font-family="Helvetica,sans-Serif" font-size="10.00">itk::SmartPointer&lt;</text>
<text text-anchor="middle" x="1036" y="-89.12" font-family="Helvetica,sans-Serif" font-size="10.00"> itk::MultiThreaderBase &gt;</text>
</a>
</g>
</g>
<!-- Node25&#45;&gt;Node26 -->
<g id="edge37" class="edge">
<title>Node25&#45;&gt;Node26</title>
<path fill="none" stroke="orange" stroke-dasharray="5,2" d="M609.45,-73.6C700.81,-78.65 869.59,-87.97 964.83,-93.24"/>
<polygon fill="orange" stroke="orange" points="609.42,-70.09 599.24,-73.03 609.03,-77.08 609.42,-70.09"/>
<text text-anchor="middle" x="721.5" y="-87.12" font-family="Helvetica,sans-Serif" font-size="10.00"> &lt; itk::MultiThreaderBase &gt;</text>
</g>
<!-- Node26&#45;&gt;Node2 -->
<g id="edge36" class="edge">
<title>Node26&#45;&gt;Node2</title>
<path fill="none" stroke="#9a32cd" stroke-dasharray="5,2" d="M1117.39,-106.56C1204.39,-119.26 1345.24,-147.18 1454,-204.12 1478.23,-216.8 1501.76,-238.99 1514.09,-251.61"/>
<polygon fill="#9a32cd" stroke="#9a32cd" points="1117.71,-103.07 1107.32,-105.12 1116.72,-110 1117.71,-103.07"/>
<text text-anchor="middle" x="1209.5" y="-145.12" font-family="Helvetica,sans-Serif" font-size="10.00"> m_MultiThreader</text>
</g>
</g>
</svg>
