<?xml version="1.0" encoding="UTF-8" standalone="no"?>
<!DOCTYPE svg PUBLIC "-//W3C//DTD SVG 1.1//EN"
 "http://www.w3.org/Graphics/SVG/1.1/DTD/svg11.dtd">
<!-- Generated by graphviz version 2.43.0 (0)
 -->
<!-- Title: itk::Rigid3DPerspectiveTransform&lt; TParametersValueType &gt; Pages: 1 -->
<svg width="1007pt" height="257pt"
 viewBox="0.00 0.00 1007.00 257.00" xmlns="http://www.w3.org/2000/svg" xmlns:xlink="http://www.w3.org/1999/xlink">
<g id="graph0" class="graph" transform="scale(1 1) rotate(0) translate(4 253)">
<title>itk::Rigid3DPerspectiveTransform&lt; TParametersValueType &gt;</title>
<polygon fill="white" stroke="transparent" points="-4,4 -4,-253 1003,-253 1003,4 -4,4"/>
<!-- Node1 -->
<g id="node1" class="node">
<title>Node1</title>
<g id="a_node1"><a xlink:title="Rigid3DTramsform of a vector space (e.g. space coordinates)">
<polygon fill="#bfbfbf" stroke="black" points="820,-99 820,-129 999,-129 999,-99 820,-99"/>
<text text-anchor="start" x="828" y="-117" font-family="Helvetica,sans-Serif" font-size="10.00">itk::Rigid3DPerspectiveTransform</text>
<text text-anchor="middle" x="909.5" y="-106" font-family="Helvetica,sans-Serif" font-size="10.00">&lt; TParametersValueType &gt;</text>
</a>
</g>
</g>
<!-- Node2 -->
<g id="node2" class="node">
<title>Node2</title>
<g id="a_node2"><a xlink:href="classitk_1_1Transform.html" target="_top" xlink:title=" ">
<polygon fill="white" stroke="black" points="535,-197 535,-227 666,-227 666,-197 535,-197"/>
<text text-anchor="start" x="543" y="-215" font-family="Helvetica,sans-Serif" font-size="10.00">itk::Transform&lt; double,</text>
<text text-anchor="middle" x="600.5" y="-204" font-family="Helvetica,sans-Serif" font-size="10.00"> 3, 2 &gt;</text>
</a>
</g>
</g>
<!-- Node2&#45;&gt;Node1 -->
<g id="edge1" class="edge">
<title>Node2&#45;&gt;Node1</title>
<path fill="none" stroke="midnightblue" d="M676.16,-203.17C714.55,-197.22 761.62,-187.69 802,-173 832.79,-161.8 865.34,-142.53 886.23,-129.07"/>
<polygon fill="midnightblue" stroke="midnightblue" points="675.46,-199.73 666.09,-204.68 676.5,-206.66 675.46,-199.73"/>
</g>
<!-- Node3 -->
<g id="node3" class="node">
<title>Node3</title>
<g id="a_node3"><a xlink:href="classTransformBaseTemplate.html" target="_top" xlink:title=" ">
<polygon fill="white" stroke="black" points="349,-197 349,-227 483,-227 483,-197 349,-197"/>
<text text-anchor="start" x="357" y="-215" font-family="Helvetica,sans-Serif" font-size="10.00">TransformBaseTemplate</text>
<text text-anchor="middle" x="416" y="-204" font-family="Helvetica,sans-Serif" font-size="10.00">&lt; double &gt;</text>
</a>
</g>
</g>
<!-- Node3&#45;&gt;Node2 -->
<g id="edge2" class="edge">
<title>Node3&#45;&gt;Node2</title>
<path fill="none" stroke="midnightblue" d="M493.53,-212C507.26,-212 521.45,-212 534.8,-212"/>
<polygon fill="midnightblue" stroke="midnightblue" points="493.14,-208.5 483.14,-212 493.14,-215.5 493.14,-208.5"/>
</g>
<!-- Node4 -->
<g id="node4" class="node">
<title>Node4</title>
<g id="a_node4"><a xlink:title=" ">
<polygon fill="white" stroke="black" points="149.5,-229.5 149.5,-248.5 197.5,-248.5 197.5,-229.5 149.5,-229.5"/>
<text text-anchor="middle" x="173.5" y="-236.5" font-family="Helvetica,sans-Serif" font-size="10.00">Object</text>
</a>
</g>
</g>
<!-- Node4&#45;&gt;Node3 -->
<g id="edge3" class="edge">
<title>Node4&#45;&gt;Node3</title>
<path fill="none" stroke="midnightblue" d="M207.67,-236.65C239.4,-234.26 288.55,-230.18 331,-225 336.71,-224.3 342.63,-223.52 348.57,-222.68"/>
<polygon fill="midnightblue" stroke="midnightblue" points="207.33,-233.17 197.62,-237.4 207.85,-240.15 207.33,-233.17"/>
</g>
<!-- Node5 -->
<g id="node5" class="node">
<title>Node5</title>
<g id="a_node5"><a xlink:title=" ">
<polygon fill="white" stroke="black" points="141,-191.5 141,-210.5 206,-210.5 206,-191.5 141,-191.5"/>
<text text-anchor="middle" x="173.5" y="-198.5" font-family="Helvetica,sans-Serif" font-size="10.00">std::string</text>
</a>
</g>
</g>
<!-- Node5&#45;&gt;Node3 -->
<g id="edge4" class="edge">
<title>Node5&#45;&gt;Node3</title>
<path fill="none" stroke="#9a32cd" stroke-dasharray="5,2" d="M216.19,-200.47C247.74,-200.33 292.13,-200.67 331,-203 336.71,-203.34 342.63,-203.79 348.56,-204.3"/>
<polygon fill="#9a32cd" stroke="#9a32cd" points="215.98,-196.97 206.01,-200.53 216.03,-203.97 215.98,-196.97"/>
<text text-anchor="middle" x="277.5" y="-217" font-family="Helvetica,sans-Serif" font-size="10.00"> m_InputSpaceName</text>
<text text-anchor="middle" x="277.5" y="-206" font-family="Helvetica,sans-Serif" font-size="10.00">m_OutputSpaceName</text>
</g>
<!-- Node6 -->
<g id="node6" class="node">
<title>Node6</title>
<g id="a_node6"><a xlink:title=" ">
<polygon fill="white" stroke="black" points="0,-186 0,-216 104,-216 104,-186 0,-186"/>
<text text-anchor="start" x="8" y="-204" font-family="Helvetica,sans-Serif" font-size="10.00">std::basic_string&lt;</text>
<text text-anchor="middle" x="52" y="-193" font-family="Helvetica,sans-Serif" font-size="10.00"> Char &gt;</text>
</a>
</g>
</g>
<!-- Node6&#45;&gt;Node5 -->
<g id="edge5" class="edge">
<title>Node6&#45;&gt;Node5</title>
<path fill="none" stroke="midnightblue" d="M114.1,-201C123.41,-201 132.68,-201 141,-201"/>
<polygon fill="midnightblue" stroke="midnightblue" points="114.03,-197.5 104.03,-201 114.03,-204.5 114.03,-197.5"/>
</g>
<!-- Node7 -->
<g id="node7" class="node">
<title>Node7</title>
<g id="a_node7"><a xlink:href="classitk_1_1Vector.html" target="_top" xlink:title=" ">
<polygon fill="white" stroke="black" points="520,-148 520,-178 681,-178 681,-148 520,-148"/>
<text text-anchor="start" x="528" y="-166" font-family="Helvetica,sans-Serif" font-size="10.00">itk::Vector&lt; double,</text>
<text text-anchor="middle" x="600.5" y="-155" font-family="Helvetica,sans-Serif" font-size="10.00"> Self::InputSpaceDimension &gt;</text>
</a>
</g>
</g>
<!-- Node7&#45;&gt;Node1 -->
<g id="edge6" class="edge">
<title>Node7&#45;&gt;Node1</title>
<path fill="none" stroke="#9a32cd" stroke-dasharray="5,2" d="M691.48,-148.64C731.94,-142.18 779.55,-134.58 819.85,-128.15"/>
<polygon fill="#9a32cd" stroke="#9a32cd" points="690.68,-145.22 681.36,-150.25 691.79,-152.13 690.68,-145.22"/>
<text text-anchor="middle" x="750.5" y="-161" font-family="Helvetica,sans-Serif" font-size="10.00"> m_FixedOffset</text>
<text text-anchor="middle" x="750.5" y="-150" font-family="Helvetica,sans-Serif" font-size="10.00">m_Offset</text>
</g>
<!-- Node8 -->
<g id="node8" class="node">
<title>Node8</title>
<g id="a_node8"><a xlink:href="classitk_1_1FixedArray.html" target="_top" xlink:title=" ">
<polygon fill="white" stroke="black" points="349,-148 349,-178 483,-178 483,-148 349,-148"/>
<text text-anchor="start" x="357" y="-166" font-family="Helvetica,sans-Serif" font-size="10.00">itk::FixedArray&lt; double,</text>
<text text-anchor="middle" x="416" y="-155" font-family="Helvetica,sans-Serif" font-size="10.00"> VVectorDimension &gt;</text>
</a>
</g>
</g>
<!-- Node8&#45;&gt;Node7 -->
<g id="edge7" class="edge">
<title>Node8&#45;&gt;Node7</title>
<path fill="none" stroke="midnightblue" d="M493.34,-163C502.12,-163 511.09,-163 519.91,-163"/>
<polygon fill="midnightblue" stroke="midnightblue" points="493.14,-159.5 483.14,-163 493.14,-166.5 493.14,-159.5"/>
</g>
<!-- Node9 -->
<g id="node9" class="node">
<title>Node9</title>
<g id="a_node9"><a xlink:href="classVLength.html" target="_top" xlink:title=" ">
<polygon fill="white" stroke="black" points="145.5,-139.5 145.5,-158.5 201.5,-158.5 201.5,-139.5 145.5,-139.5"/>
<text text-anchor="middle" x="173.5" y="-146.5" font-family="Helvetica,sans-Serif" font-size="10.00">VLength</text>
</a>
</g>
</g>
<!-- Node9&#45;&gt;Node8 -->
<g id="edge8" class="edge">
<title>Node9&#45;&gt;Node8</title>
<path fill="none" stroke="#9a32cd" stroke-dasharray="5,2" d="M211.82,-151.17C248.31,-153.3 304.67,-156.58 348.78,-159.15"/>
<polygon fill="#9a32cd" stroke="#9a32cd" points="211.81,-147.67 201.62,-150.58 211.4,-154.65 211.81,-147.67"/>
<text text-anchor="middle" x="277.5" y="-161" font-family="Helvetica,sans-Serif" font-size="10.00"> m_InternalArray</text>
</g>
<!-- Node13 -->
<g id="node13" class="node">
<title>Node13</title>
<g id="a_node13"><a xlink:href="classitk_1_1FixedArray.html" target="_top" xlink:title=" ">
<polygon fill="white" stroke="black" points="349,-99 349,-129 483,-129 483,-99 349,-99"/>
<text text-anchor="start" x="357" y="-117" font-family="Helvetica,sans-Serif" font-size="10.00">itk::FixedArray&lt; double,</text>
<text text-anchor="middle" x="416" y="-106" font-family="Helvetica,sans-Serif" font-size="10.00"> VPointDimension &gt;</text>
</a>
</g>
</g>
<!-- Node9&#45;&gt;Node13 -->
<g id="edge13" class="edge">
<title>Node9&#45;&gt;Node13</title>
<path fill="none" stroke="#9a32cd" stroke-dasharray="5,2" d="M211.36,-139.56C215.61,-138.62 219.89,-137.74 224,-137 265.25,-129.54 311.96,-123.87 348.86,-120.02"/>
<polygon fill="#9a32cd" stroke="#9a32cd" points="210.56,-136.15 201.61,-141.82 212.14,-142.97 210.56,-136.15"/>
<text text-anchor="middle" x="277.5" y="-140" font-family="Helvetica,sans-Serif" font-size="10.00"> m_InternalArray</text>
</g>
<!-- Node10 -->
<g id="node10" class="node">
<title>Node10</title>
<g id="a_node10"><a xlink:href="classitk_1_1Versor.html" target="_top" xlink:title=" ">
<polygon fill="white" stroke="black" points="539.5,-60.5 539.5,-79.5 661.5,-79.5 661.5,-60.5 539.5,-60.5"/>
<text text-anchor="middle" x="600.5" y="-67.5" font-family="Helvetica,sans-Serif" font-size="10.00">itk::Versor&lt; double &gt;</text>
</a>
</g>
</g>
<!-- Node10&#45;&gt;Node1 -->
<g id="edge9" class="edge">
<title>Node10&#45;&gt;Node1</title>
<path fill="none" stroke="#9a32cd" stroke-dasharray="5,2" d="M671.81,-80.08C715.78,-86.38 772.8,-94.55 819.85,-101.29"/>
<polygon fill="#9a32cd" stroke="#9a32cd" points="672.18,-76.59 661.79,-78.64 671.19,-83.52 672.18,-76.59"/>
<text text-anchor="middle" x="750.5" y="-102" font-family="Helvetica,sans-Serif" font-size="10.00"> m_Versor</text>
</g>
<!-- Node11 -->
<g id="node11" class="node">
<title>Node11</title>
<g id="a_node11"><a xlink:href="classitk_1_1Matrix.html" target="_top" xlink:title=" ">
<polygon fill="white" stroke="black" points="520,-0.5 520,-41.5 681,-41.5 681,-0.5 520,-0.5"/>
<text text-anchor="start" x="528" y="-29.5" font-family="Helvetica,sans-Serif" font-size="10.00">itk::Matrix&lt; double,</text>
<text text-anchor="start" x="528" y="-18.5" font-family="Helvetica,sans-Serif" font-size="10.00"> Self::InputSpaceDimension,</text>
<text text-anchor="middle" x="600.5" y="-7.5" font-family="Helvetica,sans-Serif" font-size="10.00"> Self::InputSpaceDimension &gt;</text>
</a>
</g>
</g>
<!-- Node11&#45;&gt;Node1 -->
<g id="edge10" class="edge">
<title>Node11&#45;&gt;Node1</title>
<path fill="none" stroke="#9a32cd" stroke-dasharray="5,2" d="M691.48,-39.92C726.33,-48.04 766.35,-58.35 802,-70 827.1,-78.2 854.63,-89.64 875.41,-98.8"/>
<polygon fill="#9a32cd" stroke="#9a32cd" points="691.85,-36.41 681.32,-37.57 690.28,-43.23 691.85,-36.41"/>
<text text-anchor="middle" x="750.5" y="-73" font-family="Helvetica,sans-Serif" font-size="10.00"> m_RotationMatrix</text>
</g>
<!-- Node12 -->
<g id="node12" class="node">
<title>Node12</title>
<g id="a_node12"><a xlink:href="classitk_1_1Point.html" target="_top" xlink:title=" ">
<polygon fill="white" stroke="black" points="520,-99 520,-129 681,-129 681,-99 520,-99"/>
<text text-anchor="start" x="528" y="-117" font-family="Helvetica,sans-Serif" font-size="10.00">itk::Point&lt; double,</text>
<text text-anchor="middle" x="600.5" y="-106" font-family="Helvetica,sans-Serif" font-size="10.00"> Self::InputSpaceDimension &gt;</text>
</a>
</g>
</g>
<!-- Node12&#45;&gt;Node1 -->
<g id="edge11" class="edge">
<title>Node12&#45;&gt;Node1</title>
<path fill="none" stroke="#9a32cd" stroke-dasharray="5,2" d="M691.48,-114C731.94,-114 779.55,-114 819.85,-114"/>
<polygon fill="#9a32cd" stroke="#9a32cd" points="691.36,-110.5 681.36,-114 691.36,-117.5 691.36,-110.5"/>
<text text-anchor="middle" x="750.5" y="-117" font-family="Helvetica,sans-Serif" font-size="10.00"> m_CenterOfRotation</text>
</g>
<!-- Node13&#45;&gt;Node12 -->
<g id="edge12" class="edge">
<title>Node13&#45;&gt;Node12</title>
<path fill="none" stroke="midnightblue" d="M493.34,-114C502.12,-114 511.09,-114 519.91,-114"/>
<polygon fill="midnightblue" stroke="midnightblue" points="493.14,-110.5 483.14,-114 493.14,-117.5 493.14,-110.5"/>
</g>
</g>
</svg>
