<?xml version="1.0" encoding="UTF-8" standalone="no"?>
<!DOCTYPE svg PUBLIC "-//W3C//DTD SVG 1.1//EN"
 "http://www.w3.org/Graphics/SVG/1.1/DTD/svg11.dtd">
<!-- Generated by graphviz version 2.43.0 (0)
 -->
<!-- Title: itk::HistogramToIntensityImageFilter&lt; THistogram, TImage &gt; Pages: 1 -->
<svg width="3105pt" height="523pt"
 viewBox="0.00 0.00 3105.00 522.50" xmlns="http://www.w3.org/2000/svg" xmlns:xlink="http://www.w3.org/1999/xlink">
<g id="graph0" class="graph" transform="scale(1 1) rotate(0) translate(4 518.5)">
<title>itk::HistogramToIntensityImageFilter&lt; THistogram, TImage &gt;</title>
<polygon fill="white" stroke="transparent" points="-4,4 -4,-518.5 3101,-518.5 3101,4 -4,4"/>
<!-- Node1 -->
<g id="node1" class="node">
<title>Node1</title>
<g id="a_node1"><a xlink:title="The class takes a histogram as an input and produces an image as the output. A pixel,...">
<polygon fill="#bfbfbf" stroke="black" points="2954,-242 2954,-283 3097,-283 3097,-242 2954,-242"/>
<text text-anchor="start" x="2962" y="-271" font-family="Helvetica,sans-Serif" font-size="10.00">itk::HistogramToIntensity</text>
<text text-anchor="start" x="2962" y="-260" font-family="Helvetica,sans-Serif" font-size="10.00">ImageFilter&lt; THistogram,</text>
<text text-anchor="middle" x="3025.5" y="-249" font-family="Helvetica,sans-Serif" font-size="10.00"> TImage &gt;</text>
</a>
</g>
</g>
<!-- Node2 -->
<g id="node2" class="node">
<title>Node2</title>
<g id="a_node2"><a xlink:href="classitk_1_1HistogramToImageFilter.html" target="_top" xlink:title=" ">
<polygon fill="white" stroke="black" points="2692,-231 2692,-294 2917,-294 2917,-231 2692,-231"/>
<text text-anchor="start" x="2700" y="-282" font-family="Helvetica,sans-Serif" font-size="10.00">itk::HistogramToImageFilter</text>
<text text-anchor="start" x="2700" y="-271" font-family="Helvetica,sans-Serif" font-size="10.00">&lt; THistogram, Image&lt; SizeValueType,</text>
<text text-anchor="start" x="2700" y="-260" font-family="Helvetica,sans-Serif" font-size="10.00"> 3 &gt;, Function::HistogramIntensityFunction</text>
<text text-anchor="start" x="2700" y="-249" font-family="Helvetica,sans-Serif" font-size="10.00">&lt; SizeValueType, Image&lt; SizeValueType,</text>
<text text-anchor="middle" x="2804.5" y="-238" font-family="Helvetica,sans-Serif" font-size="10.00"> 3 &gt; ::PixelType &gt; &gt;</text>
</a>
</g>
</g>
<!-- Node2&#45;&gt;Node1 -->
<g id="edge1" class="edge">
<title>Node2&#45;&gt;Node1</title>
<path fill="none" stroke="midnightblue" d="M2927.43,-262.5C2936.42,-262.5 2945.3,-262.5 2953.82,-262.5"/>
<polygon fill="midnightblue" stroke="midnightblue" points="2927.25,-259 2917.25,-262.5 2927.25,-266 2927.25,-259"/>
</g>
<!-- Node3 -->
<g id="node3" class="node">
<title>Node3</title>
<g id="a_node3"><a xlink:href="classitk_1_1ImageSource.html" target="_top" xlink:title=" ">
<polygon fill="white" stroke="black" points="1975.5,-284.5 1975.5,-314.5 2116.5,-314.5 2116.5,-284.5 1975.5,-284.5"/>
<text text-anchor="start" x="1983.5" y="-302.5" font-family="Helvetica,sans-Serif" font-size="10.00">itk::ImageSource&lt; Image</text>
<text text-anchor="middle" x="2046" y="-291.5" font-family="Helvetica,sans-Serif" font-size="10.00">&lt; SizeValueType, 3 &gt; &gt;</text>
</a>
</g>
</g>
<!-- Node3&#45;&gt;Node2 -->
<g id="edge2" class="edge">
<title>Node3&#45;&gt;Node2</title>
<path fill="none" stroke="midnightblue" d="M2126.74,-296.58C2245.88,-292.07 2477.39,-282.75 2674,-271.5 2679.85,-271.17 2685.85,-270.81 2691.9,-270.43"/>
<polygon fill="midnightblue" stroke="midnightblue" points="2126.48,-293.09 2116.62,-296.96 2126.74,-300.08 2126.48,-293.09"/>
</g>
<!-- Node4 -->
<g id="node4" class="node">
<title>Node4</title>
<g id="a_node4"><a xlink:href="classitk_1_1ProcessObject.html" target="_top" xlink:title="The base class for all process objects (source, filters, mappers) in the Insight data processing pipe...">
<polygon fill="white" stroke="black" points="1491.5,-275 1491.5,-294 1595.5,-294 1595.5,-275 1491.5,-275"/>
<text text-anchor="middle" x="1543.5" y="-282" font-family="Helvetica,sans-Serif" font-size="10.00">itk::ProcessObject</text>
</a>
</g>
</g>
<!-- Node4&#45;&gt;Node3 -->
<g id="edge3" class="edge">
<title>Node4&#45;&gt;Node3</title>
<path fill="none" stroke="midnightblue" d="M1605.96,-295.06C1615.01,-296.37 1624.23,-297.57 1633,-298.5 1772.74,-313.27 1808.64,-315.07 1949,-308.5 1957.53,-308.1 1966.47,-307.5 1975.32,-306.8"/>
<polygon fill="midnightblue" stroke="midnightblue" points="1606.27,-291.57 1595.86,-293.54 1605.23,-298.49 1606.27,-291.57"/>
</g>
<!-- Node30 -->
<g id="node30" class="node">
<title>Node30</title>
<g id="a_node30"><a xlink:href="classitk_1_1ImageSource.html" target="_top" xlink:title="Base class for all process objects that output image data.">
<polygon fill="white" stroke="black" points="1652,-187.5 1652,-217.5 1801,-217.5 1801,-187.5 1652,-187.5"/>
<text text-anchor="start" x="1660" y="-205.5" font-family="Helvetica,sans-Serif" font-size="10.00">itk::ImageSource&lt; TOutput</text>
<text text-anchor="middle" x="1726.5" y="-194.5" font-family="Helvetica,sans-Serif" font-size="10.00">Image &gt;</text>
</a>
</g>
</g>
<!-- Node4&#45;&gt;Node30 -->
<g id="edge43" class="edge">
<title>Node4&#45;&gt;Node30</title>
<path fill="none" stroke="midnightblue" d="M1575.06,-270.66C1607.55,-255.94 1658.78,-232.73 1692.26,-217.56"/>
<polygon fill="midnightblue" stroke="midnightblue" points="1573.28,-267.62 1565.62,-274.93 1576.17,-273.99 1573.28,-267.62"/>
</g>
<!-- Node34 -->
<g id="node34" class="node">
<title>Node34</title>
<g id="a_node34"><a xlink:href="classitk_1_1ImageSource.html" target="_top" xlink:title=" ">
<polygon fill="white" stroke="black" points="1967,-183 1967,-202 2125,-202 2125,-183 1967,-183"/>
<text text-anchor="middle" x="2046" y="-190" font-family="Helvetica,sans-Serif" font-size="10.00">itk::ImageSource&lt; TImage &gt;</text>
</a>
</g>
</g>
<!-- Node4&#45;&gt;Node34 -->
<g id="edge49" class="edge">
<title>Node4&#45;&gt;Node34</title>
<path fill="none" stroke="midnightblue" d="M1606.07,-287.84C1705.46,-292 1895.51,-294.49 1949,-256.5 1965.56,-244.74 1951.74,-227.9 1967,-214.5 1973.03,-209.21 1980.24,-205.18 1987.8,-202.12"/>
<polygon fill="midnightblue" stroke="midnightblue" points="1606.02,-284.33 1595.87,-287.39 1605.71,-291.33 1606.02,-284.33"/>
</g>
<!-- Node5 -->
<g id="node5" class="node">
<title>Node5</title>
<g id="a_node5"><a xlink:href="classitk_1_1Object.html" target="_top" xlink:title="Base class for most ITK classes.">
<polygon fill="white" stroke="black" points="1176,-297 1176,-316 1243,-316 1243,-297 1176,-297"/>
<text text-anchor="middle" x="1209.5" y="-304" font-family="Helvetica,sans-Serif" font-size="10.00">itk::Object</text>
</a>
</g>
</g>
<!-- Node5&#45;&gt;Node4 -->
<g id="edge4" class="edge">
<title>Node5&#45;&gt;Node4</title>
<path fill="none" stroke="midnightblue" d="M1253.35,-303.71C1301.98,-300.54 1383.7,-295.19 1454,-290.5 1466.14,-289.69 1479.21,-288.81 1491.49,-287.98"/>
<polygon fill="midnightblue" stroke="midnightblue" points="1252.94,-300.23 1243.19,-304.37 1253.4,-307.22 1252.94,-300.23"/>
</g>
<!-- Node6 -->
<g id="node6" class="node">
<title>Node6</title>
<g id="a_node6"><a xlink:href="classitk_1_1LightObject.html" target="_top" xlink:title="Light weight base class for most itk classes.">
<polygon fill="white" stroke="black" points="834.5,-330 834.5,-349 925.5,-349 925.5,-330 834.5,-330"/>
<text text-anchor="middle" x="880" y="-337" font-family="Helvetica,sans-Serif" font-size="10.00">itk::LightObject</text>
</a>
</g>
</g>
<!-- Node6&#45;&gt;Node5 -->
<g id="edge5" class="edge">
<title>Node6&#45;&gt;Node5</title>
<path fill="none" stroke="midnightblue" d="M935.69,-333.99C1004.33,-327.07 1119.84,-315.43 1175.95,-309.78"/>
<polygon fill="midnightblue" stroke="midnightblue" points="935.11,-330.53 925.51,-335.02 935.81,-337.49 935.11,-330.53"/>
</g>
<!-- Node7 -->
<g id="node7" class="node">
<title>Node7</title>
<g id="a_node7"><a xlink:title=" ">
<polygon fill="white" stroke="#bfbfbf" points="492,-331 492,-350 599,-350 599,-331 492,-331"/>
<text text-anchor="middle" x="545.5" y="-338" font-family="Helvetica,sans-Serif" font-size="10.00">std::atomic&lt; int &gt;</text>
</a>
</g>
</g>
<!-- Node7&#45;&gt;Node6 -->
<g id="edge6" class="edge">
<title>Node7&#45;&gt;Node6</title>
<path fill="none" stroke="#9a32cd" stroke-dasharray="5,2" d="M609.41,-340.31C675.06,-340.11 776.36,-339.81 834.28,-339.63"/>
<polygon fill="#9a32cd" stroke="#9a32cd" points="609.18,-336.81 599.19,-340.34 609.2,-343.81 609.18,-336.81"/>
<text text-anchor="middle" x="721.5" y="-342.5" font-family="Helvetica,sans-Serif" font-size="10.00"> m_ReferenceCount</text>
</g>
<!-- Node8 -->
<g id="node8" class="node">
<title>Node8</title>
<g id="a_node8"><a xlink:title="STL class.">
<polygon fill="white" stroke="#bfbfbf" points="135.5,-363 135.5,-382 235.5,-382 235.5,-363 135.5,-363"/>
<text text-anchor="middle" x="185.5" y="-370" font-family="Helvetica,sans-Serif" font-size="10.00">std::atomic&lt; T &gt;</text>
</a>
</g>
</g>
<!-- Node8&#45;&gt;Node7 -->
<g id="edge7" class="edge">
<title>Node8&#45;&gt;Node7</title>
<path fill="none" stroke="orange" stroke-dasharray="5,2" d="M245.68,-364.76C255.46,-363.59 265.51,-362.46 275,-361.5 350.17,-353.9 437.39,-347.56 491.76,-343.89"/>
<polygon fill="orange" stroke="orange" points="245.11,-361.31 235.61,-365.99 245.96,-368.25 245.11,-361.31"/>
<text text-anchor="middle" x="359" y="-364.5" font-family="Helvetica,sans-Serif" font-size="10.00"> &lt; int &gt;</text>
</g>
<!-- Node17 -->
<g id="node17" class="node">
<title>Node17</title>
<g id="a_node17"><a xlink:href="classitk_1_1TimeStamp.html" target="_top" xlink:title="Generate a unique, increasing time value.">
<polygon fill="white" stroke="black" points="834,-377 834,-396 926,-396 926,-377 834,-377"/>
<text text-anchor="middle" x="880" y="-384" font-family="Helvetica,sans-Serif" font-size="10.00">itk::TimeStamp</text>
</a>
</g>
</g>
<!-- Node8&#45;&gt;Node17 -->
<g id="edge19" class="edge">
<title>Node8&#45;&gt;Node17</title>
<path fill="none" stroke="#9a32cd" stroke-dasharray="5,2" d="M245.96,-373.7C381.82,-376.45 712.58,-383.14 833.64,-385.58"/>
<polygon fill="#9a32cd" stroke="#9a32cd" points="245.82,-370.2 235.75,-373.5 245.67,-377.2 245.82,-370.2"/>
<text text-anchor="middle" x="545.5" y="-383.5" font-family="Helvetica,sans-Serif" font-size="10.00"> m_GlobalTimeStamp</text>
</g>
<!-- Node21 -->
<g id="node21" class="node">
<title>Node21</title>
<g id="a_node21"><a xlink:title=" ">
<polygon fill="white" stroke="#bfbfbf" points="654.5,-416 654.5,-435 788.5,-435 788.5,-416 654.5,-416"/>
<text text-anchor="middle" x="721.5" y="-423" font-family="Helvetica,sans-Serif" font-size="10.00">std::atomic&lt; uint32_t &gt;</text>
</a>
</g>
</g>
<!-- Node8&#45;&gt;Node21 -->
<g id="edge28" class="edge">
<title>Node8&#45;&gt;Node21</title>
<path fill="none" stroke="orange" stroke-dasharray="5,2" d="M220.48,-385.45C236.74,-391.07 256.62,-397.13 275,-400.5 407.96,-424.87 566.65,-427.63 654.22,-426.92"/>
<polygon fill="orange" stroke="orange" points="221.47,-382.09 210.88,-382.03 219.13,-388.68 221.47,-382.09"/>
<text text-anchor="middle" x="359" y="-422.5" font-family="Helvetica,sans-Serif" font-size="10.00"> &lt; uint32_t &gt;</text>
</g>
<!-- Node9 -->
<g id="node9" class="node">
<title>Node9</title>
<g id="a_node9"><a xlink:title=" ">
<polygon fill="white" stroke="#bfbfbf" points="0,-338 0,-357 29,-357 29,-338 0,-338"/>
<text text-anchor="middle" x="14.5" y="-345" font-family="Helvetica,sans-Serif" font-size="10.00">T</text>
</a>
</g>
</g>
<!-- Node9&#45;&gt;Node8 -->
<g id="edge8" class="edge">
<title>Node9&#45;&gt;Node8</title>
<path fill="none" stroke="#9a32cd" stroke-dasharray="5,2" d="M39,-350.98C63.8,-354.65 103.63,-360.54 135.35,-365.23"/>
<polygon fill="#9a32cd" stroke="#9a32cd" points="39.45,-347.5 29.04,-349.5 38.42,-354.43 39.45,-347.5"/>
<text text-anchor="middle" x="71.5" y="-361.5" font-family="Helvetica,sans-Serif" font-size="10.00"> ptr</text>
</g>
<!-- Node14 -->
<g id="node14" class="node">
<title>Node14</title>
<g id="a_node14"><a xlink:title="STL class.">
<polygon fill="white" stroke="#bfbfbf" points="135,-243 135,-262 236,-262 236,-243 135,-243"/>
<text text-anchor="middle" x="185.5" y="-250" font-family="Helvetica,sans-Serif" font-size="10.00">std::map&lt; K, T &gt;</text>
</a>
</g>
</g>
<!-- Node9&#45;&gt;Node14 -->
<g id="edge15" class="edge">
<title>Node9&#45;&gt;Node14</title>
<path fill="none" stroke="#9a32cd" stroke-dasharray="5,2" d="M27,-328.93C32.34,-321.48 39.24,-313.31 47,-307.5 76.75,-285.25 116.73,-270.6 145.9,-262.05"/>
<polygon fill="#9a32cd" stroke="#9a32cd" points="23.76,-327.48 21.11,-337.74 29.58,-331.37 23.76,-327.48"/>
<text text-anchor="middle" x="71.5" y="-310.5" font-family="Helvetica,sans-Serif" font-size="10.00"> elements</text>
</g>
<!-- Node16 -->
<g id="node16" class="node">
<title>Node16</title>
<g id="a_node16"><a xlink:title="STL class.">
<polygon fill="white" stroke="#bfbfbf" points="126.5,-314 126.5,-333 244.5,-333 244.5,-314 126.5,-314"/>
<text text-anchor="middle" x="185.5" y="-321" font-family="Helvetica,sans-Serif" font-size="10.00">std::shared_ptr&lt; T &gt;</text>
</a>
</g>
</g>
<!-- Node9&#45;&gt;Node16 -->
<g id="edge17" class="edge">
<title>Node9&#45;&gt;Node16</title>
<path fill="none" stroke="#9a32cd" stroke-dasharray="5,2" d="M38.33,-334.55C41.18,-333.34 44.11,-332.28 47,-331.5 72.51,-324.6 101.61,-322.17 126.46,-321.63"/>
<polygon fill="#9a32cd" stroke="#9a32cd" points="36.58,-331.52 29.11,-339.04 39.64,-337.81 36.58,-331.52"/>
<text text-anchor="middle" x="71.5" y="-334.5" font-family="Helvetica,sans-Serif" font-size="10.00"> ptr</text>
</g>
<!-- Node24 -->
<g id="node24" class="node">
<title>Node24</title>
<g id="a_node24"><a xlink:title="STL class.">
<polygon fill="white" stroke="#bfbfbf" points="137,-419 137,-438 234,-438 234,-419 137,-419"/>
<text text-anchor="middle" x="185.5" y="-426" font-family="Helvetica,sans-Serif" font-size="10.00">std::vector&lt; T &gt;</text>
</a>
</g>
</g>
<!-- Node9&#45;&gt;Node24 -->
<g id="edge32" class="edge">
<title>Node9&#45;&gt;Node24</title>
<path fill="none" stroke="#9a32cd" stroke-dasharray="5,2" d="M33.11,-363.64C37.46,-367.16 42.24,-370.68 47,-373.5 81.17,-393.76 124.17,-409.6 152.91,-418.97"/>
<polygon fill="#9a32cd" stroke="#9a32cd" points="35.27,-360.88 25.39,-357.03 30.71,-366.19 35.27,-360.88"/>
<text text-anchor="middle" x="71.5" y="-399.5" font-family="Helvetica,sans-Serif" font-size="10.00"> elements</text>
</g>
<!-- Node10 -->
<g id="node10" class="node">
<title>Node10</title>
<g id="a_node10"><a xlink:title="STL class.">
<polygon fill="white" stroke="#bfbfbf" points="847.5,-199 847.5,-218 912.5,-218 912.5,-199 847.5,-199"/>
<text text-anchor="middle" x="880" y="-206" font-family="Helvetica,sans-Serif" font-size="10.00">std::string</text>
</a>
</g>
</g>
<!-- Node10&#45;&gt;Node5 -->
<g id="edge9" class="edge">
<title>Node10&#45;&gt;Node5</title>
<path fill="none" stroke="#9a32cd" stroke-dasharray="5,2" d="M917.36,-221.4C964.77,-237.96 1050.45,-266.99 1125,-287.5 1141.63,-292.07 1160.33,-296.4 1175.82,-299.77"/>
<polygon fill="#9a32cd" stroke="#9a32cd" points="918.44,-218.07 907.84,-218.06 916.12,-224.67 918.44,-218.07"/>
<text text-anchor="middle" x="1036" y="-284.5" font-family="Helvetica,sans-Serif" font-size="10.00"> m_ObjectName</text>
</g>
<!-- Node18 -->
<g id="node18" class="node">
<title>Node18</title>
<g id="a_node18"><a xlink:title=" ">
<polygon fill="white" stroke="#bfbfbf" points="1128.5,-159.5 1128.5,-189.5 1290.5,-189.5 1290.5,-159.5 1128.5,-159.5"/>
<text text-anchor="start" x="1136.5" y="-177.5" font-family="Helvetica,sans-Serif" font-size="10.00">std::set&lt; DataObjectIdentifier</text>
<text text-anchor="middle" x="1209.5" y="-166.5" font-family="Helvetica,sans-Serif" font-size="10.00">Type &gt;</text>
</a>
</g>
</g>
<!-- Node10&#45;&gt;Node18 -->
<g id="edge21" class="edge">
<title>Node10&#45;&gt;Node18</title>
<path fill="none" stroke="#9a32cd" stroke-dasharray="5,2" d="M908.72,-194.61C924.73,-187.36 945.5,-179.23 965,-175.5 1018.77,-165.2 1080.45,-165.07 1128.28,-167.45"/>
<polygon fill="#9a32cd" stroke="#9a32cd" points="906.99,-191.55 899.42,-198.96 909.96,-197.89 906.99,-191.55"/>
<text text-anchor="middle" x="1036" y="-178.5" font-family="Helvetica,sans-Serif" font-size="10.00"> keys</text>
</g>
<!-- Node20 -->
<g id="node20" class="node">
<title>Node20</title>
<g id="a_node20"><a xlink:title=" ">
<polygon fill="white" stroke="#bfbfbf" points="1125,-247.5 1125,-277.5 1294,-277.5 1294,-247.5 1125,-247.5"/>
<text text-anchor="start" x="1133" y="-265.5" font-family="Helvetica,sans-Serif" font-size="10.00">std::map&lt; DataObjectIdentifier</text>
<text text-anchor="middle" x="1209.5" y="-254.5" font-family="Helvetica,sans-Serif" font-size="10.00">Type, bool &gt;</text>
</a>
</g>
</g>
<!-- Node10&#45;&gt;Node20 -->
<g id="edge25" class="edge">
<title>Node10&#45;&gt;Node20</title>
<path fill="none" stroke="#9a32cd" stroke-dasharray="5,2" d="M922.82,-202.86C968.74,-198 1044.28,-193.96 1107,-209.5 1136.72,-216.86 1167.41,-234.55 1187.15,-247.47"/>
<polygon fill="#9a32cd" stroke="#9a32cd" points="922.2,-199.41 912.65,-204 922.98,-206.36 922.2,-199.41"/>
<text text-anchor="middle" x="1036" y="-212.5" font-family="Helvetica,sans-Serif" font-size="10.00"> keys</text>
</g>
<!-- Node25 -->
<g id="node25" class="node">
<title>Node25</title>
<g id="a_node25"><a xlink:title=" ">
<polygon fill="white" stroke="#bfbfbf" points="1125,-86.5 1125,-116.5 1294,-116.5 1294,-86.5 1125,-86.5"/>
<text text-anchor="start" x="1133" y="-104.5" font-family="Helvetica,sans-Serif" font-size="10.00">std::map&lt; DataObjectIdentifier</text>
<text text-anchor="middle" x="1209.5" y="-93.5" font-family="Helvetica,sans-Serif" font-size="10.00">Type, DataObjectPointer &gt;</text>
</a>
</g>
</g>
<!-- Node10&#45;&gt;Node25 -->
<g id="edge36" class="edge">
<title>Node10&#45;&gt;Node25</title>
<path fill="none" stroke="#9a32cd" stroke-dasharray="5,2" d="M900.24,-192.17C916.48,-179.23 940.89,-161.68 965,-151.5 1015.89,-130.02 1076.77,-117.52 1124.92,-110.39"/>
<polygon fill="#9a32cd" stroke="#9a32cd" points="897.64,-189.78 892.11,-198.81 902.07,-195.2 897.64,-189.78"/>
<text text-anchor="middle" x="1036" y="-154.5" font-family="Helvetica,sans-Serif" font-size="10.00"> keys</text>
</g>
<!-- Node11 -->
<g id="node11" class="node">
<title>Node11</title>
<g id="a_node11"><a xlink:title="STL class.">
<polygon fill="white" stroke="#bfbfbf" points="493.5,-193.5 493.5,-223.5 597.5,-223.5 597.5,-193.5 493.5,-193.5"/>
<text text-anchor="start" x="501.5" y="-211.5" font-family="Helvetica,sans-Serif" font-size="10.00">std::basic_string&lt;</text>
<text text-anchor="middle" x="545.5" y="-200.5" font-family="Helvetica,sans-Serif" font-size="10.00"> char &gt;</text>
</a>
</g>
</g>
<!-- Node11&#45;&gt;Node10 -->
<g id="edge10" class="edge">
<title>Node11&#45;&gt;Node10</title>
<path fill="none" stroke="midnightblue" d="M607.85,-208.5C678.64,-208.5 792.34,-208.5 847.27,-208.5"/>
<polygon fill="midnightblue" stroke="midnightblue" points="607.72,-205 597.72,-208.5 607.72,-212 607.72,-205"/>
</g>
<!-- Node12 -->
<g id="node12" class="node">
<title>Node12</title>
<g id="a_node12"><a xlink:href="classitk_1_1MetaDataDictionary.html" target="_top" xlink:title="Provides a mechanism for storing a collection of arbitrary data types.">
<polygon fill="white" stroke="black" points="813,-291 813,-310 947,-310 947,-291 813,-291"/>
<text text-anchor="middle" x="880" y="-298" font-family="Helvetica,sans-Serif" font-size="10.00">itk::MetaDataDictionary</text>
</a>
</g>
</g>
<!-- Node12&#45;&gt;Node5 -->
<g id="edge11" class="edge">
<title>Node12&#45;&gt;Node5</title>
<path fill="none" stroke="#9a32cd" stroke-dasharray="5,2" d="M957.27,-300.6C1001.08,-300.8 1057.14,-301.3 1107,-302.5 1129.92,-303.05 1155.74,-304.08 1175.6,-304.95"/>
<polygon fill="#9a32cd" stroke="#9a32cd" points="957.28,-297.1 947.27,-300.55 957.25,-304.1 957.28,-297.1"/>
<text text-anchor="middle" x="1036" y="-305.5" font-family="Helvetica,sans-Serif" font-size="10.00"> m_MetaDataDictionary</text>
</g>
<!-- Node13 -->
<g id="node13" class="node">
<title>Node13</title>
<g id="a_node13"><a xlink:title=" ">
<polygon fill="white" stroke="#bfbfbf" points="471,-281.5 471,-311.5 620,-311.5 620,-281.5 471,-281.5"/>
<text text-anchor="start" x="479" y="-299.5" font-family="Helvetica,sans-Serif" font-size="10.00">std::shared_ptr&lt; MetaData</text>
<text text-anchor="middle" x="545.5" y="-288.5" font-family="Helvetica,sans-Serif" font-size="10.00">DictionaryMapType &gt;</text>
</a>
</g>
</g>
<!-- Node13&#45;&gt;Node12 -->
<g id="edge12" class="edge">
<title>Node13&#45;&gt;Node12</title>
<path fill="none" stroke="#9a32cd" stroke-dasharray="5,2" d="M630.63,-297.51C687.09,-298.19 760.43,-299.07 812.74,-299.7"/>
<polygon fill="#9a32cd" stroke="#9a32cd" points="630.33,-294.01 620.29,-297.39 630.25,-301.01 630.33,-294.01"/>
<text text-anchor="middle" x="721.5" y="-301.5" font-family="Helvetica,sans-Serif" font-size="10.00"> m_Dictionary</text>
</g>
<!-- Node14&#45;&gt;Node13 -->
<g id="edge13" class="edge">
<title>Node14&#45;&gt;Node13</title>
<path fill="none" stroke="#9a32cd" stroke-dasharray="5,2" d="M246.07,-259.92C255.74,-261.12 265.65,-262.35 275,-263.5 341.2,-271.67 416.55,-280.89 470.72,-287.5"/>
<polygon fill="#9a32cd" stroke="#9a32cd" points="246.47,-256.44 236.11,-258.68 245.61,-263.39 246.47,-256.44"/>
<text text-anchor="middle" x="359" y="-286.5" font-family="Helvetica,sans-Serif" font-size="10.00"> ptr</text>
</g>
<!-- Node14&#45;&gt;Node20 -->
<g id="edge26" class="edge">
<title>Node14&#45;&gt;Node20</title>
<path fill="none" stroke="orange" stroke-dasharray="5,2" d="M246.36,-253.09C419.95,-254.78 923.95,-259.72 1124.63,-261.68"/>
<polygon fill="orange" stroke="orange" points="246.17,-249.58 236.14,-252.99 246.1,-256.58 246.17,-249.58"/>
<text text-anchor="start" x="652" y="-271.5" font-family="Helvetica,sans-Serif" font-size="10.00"> &lt; DataObjectIdentifierType,</text>
<text text-anchor="middle" x="721.5" y="-260.5" font-family="Helvetica,sans-Serif" font-size="10.00"> bool &gt;</text>
</g>
<!-- Node14&#45;&gt;Node25 -->
<g id="edge37" class="edge">
<title>Node14&#45;&gt;Node25</title>
<path fill="none" stroke="orange" stroke-dasharray="5,2" d="M229.01,-240.11C282.66,-224.86 377.97,-199.1 461,-183.5 608.04,-155.88 647.13,-164.26 795,-141.5 870.91,-129.82 888.65,-118.83 965,-110.5 1017.99,-104.72 1077.8,-102.45 1124.89,-101.63"/>
<polygon fill="orange" stroke="orange" points="227.83,-236.81 219.17,-242.92 229.75,-243.54 227.83,-236.81"/>
<text text-anchor="start" x="652" y="-173.5" font-family="Helvetica,sans-Serif" font-size="10.00"> &lt; DataObjectIdentifierType,</text>
<text text-anchor="middle" x="721.5" y="-162.5" font-family="Helvetica,sans-Serif" font-size="10.00"> DataObjectPointer &gt;</text>
</g>
<!-- Node15 -->
<g id="node15" class="node">
<title>Node15</title>
<g id="a_node15"><a xlink:title=" ">
<polygon fill="white" stroke="#bfbfbf" points="0,-193 0,-212 29,-212 29,-193 0,-193"/>
<text text-anchor="middle" x="14.5" y="-200" font-family="Helvetica,sans-Serif" font-size="10.00">K</text>
</a>
</g>
</g>
<!-- Node15&#45;&gt;Node14 -->
<g id="edge14" class="edge">
<title>Node15&#45;&gt;Node14</title>
<path fill="none" stroke="#9a32cd" stroke-dasharray="5,2" d="M38.87,-209.41C68.35,-218.14 119.21,-233.18 152.34,-242.99"/>
<polygon fill="#9a32cd" stroke="#9a32cd" points="39.63,-205.99 29.04,-206.51 37.64,-212.7 39.63,-205.99"/>
<text text-anchor="middle" x="71.5" y="-229.5" font-family="Helvetica,sans-Serif" font-size="10.00"> keys</text>
</g>
<!-- Node19 -->
<g id="node19" class="node">
<title>Node19</title>
<g id="a_node19"><a xlink:title="STL class.">
<polygon fill="white" stroke="#bfbfbf" points="318,-124 318,-143 400,-143 400,-124 318,-124"/>
<text text-anchor="middle" x="359" y="-131" font-family="Helvetica,sans-Serif" font-size="10.00">std::set&lt; K &gt;</text>
</a>
</g>
</g>
<!-- Node15&#45;&gt;Node19 -->
<g id="edge23" class="edge">
<title>Node15&#45;&gt;Node19</title>
<path fill="none" stroke="#9a32cd" stroke-dasharray="5,2" d="M39.38,-197.69C97.31,-186.02 245.82,-156.1 317.76,-141.61"/>
<polygon fill="#9a32cd" stroke="#9a32cd" points="38.46,-194.3 29.35,-199.71 39.84,-201.17 38.46,-194.3"/>
<text text-anchor="middle" x="71.5" y="-198.5" font-family="Helvetica,sans-Serif" font-size="10.00"> keys</text>
</g>
<!-- Node16&#45;&gt;Node13 -->
<g id="edge16" class="edge">
<title>Node16&#45;&gt;Node13</title>
<path fill="none" stroke="orange" stroke-dasharray="5,2" d="M254.85,-318.34C316.62,-313.69 407.3,-306.85 470.69,-302.07"/>
<polygon fill="orange" stroke="orange" points="254.52,-314.86 244.82,-319.1 255.05,-321.84 254.52,-314.86"/>
<text text-anchor="middle" x="359" y="-318.5" font-family="Helvetica,sans-Serif" font-size="10.00"> &lt; MetaDataDictionaryMapType &gt;</text>
</g>
<!-- Node17&#45;&gt;Node4 -->
<g id="edge40" class="edge">
<title>Node17&#45;&gt;Node4</title>
<path fill="none" stroke="#9a32cd" stroke-dasharray="5,2" d="M936.2,-384.94C982.07,-383.2 1048.96,-379.62 1107,-372.5 1262.66,-353.4 1301.08,-343.27 1454,-308.5 1472.63,-304.26 1493.24,-298.73 1509.88,-294.04"/>
<polygon fill="#9a32cd" stroke="#9a32cd" points="936.04,-381.44 926.17,-385.3 936.29,-388.44 936.04,-381.44"/>
<text text-anchor="middle" x="1209.5" y="-372.5" font-family="Helvetica,sans-Serif" font-size="10.00"> m_OutputInformationMTime</text>
</g>
<!-- Node17&#45;&gt;Node5 -->
<g id="edge18" class="edge">
<title>Node17&#45;&gt;Node5</title>
<path fill="none" stroke="#9a32cd" stroke-dasharray="5,2" d="M919.8,-373.88C933.93,-369.57 950.09,-364.96 965,-361.5 1027.34,-347.01 1044.71,-352.21 1107,-337.5 1132.28,-331.53 1160.51,-322.73 1180.76,-316.03"/>
<polygon fill="#9a32cd" stroke="#9a32cd" points="918.44,-370.64 909.92,-376.94 920.51,-377.32 918.44,-370.64"/>
<text text-anchor="middle" x="1036" y="-364.5" font-family="Helvetica,sans-Serif" font-size="10.00"> m_MTime</text>
</g>
<!-- Node18&#45;&gt;Node4 -->
<g id="edge20" class="edge">
<title>Node18&#45;&gt;Node4</title>
<path fill="none" stroke="#9a32cd" stroke-dasharray="5,2" d="M1285.63,-191.95C1334.31,-204.11 1398.71,-221.83 1454,-242.5 1479.17,-251.91 1506.98,-265.7 1524.59,-274.88"/>
<polygon fill="#9a32cd" stroke="#9a32cd" points="1286.35,-188.52 1275.8,-189.51 1284.67,-195.32 1286.35,-188.52"/>
<text text-anchor="middle" x="1383" y="-245.5" font-family="Helvetica,sans-Serif" font-size="10.00"> m_RequiredInputNames</text>
</g>
<!-- Node19&#45;&gt;Node18 -->
<g id="edge22" class="edge">
<title>Node19&#45;&gt;Node18</title>
<path fill="none" stroke="orange" stroke-dasharray="5,2" d="M410.33,-132.82C467.81,-132.07 564.68,-130.93 648,-130.5 713.33,-130.16 729.75,-127.16 795,-130.5 934.21,-137.62 968.45,-147.21 1107,-162.5 1113.97,-163.27 1121.2,-164.09 1128.45,-164.92"/>
<polygon fill="orange" stroke="orange" points="410.02,-129.32 400.07,-132.95 410.11,-136.32 410.02,-129.32"/>
<text text-anchor="middle" x="721.5" y="-133.5" font-family="Helvetica,sans-Serif" font-size="10.00"> &lt; DataObjectIdentifierType &gt;</text>
</g>
<!-- Node20&#45;&gt;Node4 -->
<g id="edge24" class="edge">
<title>Node20&#45;&gt;Node4</title>
<path fill="none" stroke="#9a32cd" stroke-dasharray="5,2" d="M1304.29,-258.6C1349.65,-257.9 1404.81,-258.81 1454,-264.5 1472.15,-266.6 1492.02,-270.9 1508.33,-274.98"/>
<polygon fill="#9a32cd" stroke="#9a32cd" points="1304.1,-255.1 1294.17,-258.79 1304.23,-262.1 1304.1,-255.1"/>
<text text-anchor="start" x="1312" y="-278.5" font-family="Helvetica,sans-Serif" font-size="10.00"> m_CachedInputReleaseData</text>
<text text-anchor="middle" x="1383" y="-267.5" font-family="Helvetica,sans-Serif" font-size="10.00">Flags</text>
</g>
<!-- Node21&#45;&gt;Node4 -->
<g id="edge27" class="edge">
<title>Node21&#45;&gt;Node4</title>
<path fill="none" stroke="#9a32cd" stroke-dasharray="5,2" d="M798.66,-425.2C908.81,-423.59 1118.62,-416.17 1294,-384.5 1366.94,-371.33 1386.11,-367.22 1454,-337.5 1482.05,-325.22 1512.12,-305.7 1528.99,-294.09"/>
<polygon fill="#9a32cd" stroke="#9a32cd" points="798.59,-421.7 788.64,-425.33 798.68,-428.7 798.59,-421.7"/>
<text text-anchor="middle" x="1036" y="-421.5" font-family="Helvetica,sans-Serif" font-size="10.00"> m_Progress</text>
</g>
<!-- Node22 -->
<g id="node22" class="node">
<title>Node22</title>
<g id="a_node22"><a xlink:title=" ">
<polygon fill="white" stroke="#bfbfbf" points="461,-454.5 461,-484.5 630,-484.5 630,-454.5 461,-454.5"/>
<text text-anchor="start" x="469" y="-472.5" font-family="Helvetica,sans-Serif" font-size="10.00">std::vector&lt; DataObjectPointer</text>
<text text-anchor="middle" x="545.5" y="-461.5" font-family="Helvetica,sans-Serif" font-size="10.00">Map::iterator &gt;</text>
</a>
</g>
</g>
<!-- Node22&#45;&gt;Node4 -->
<g id="edge29" class="edge">
<title>Node22&#45;&gt;Node4</title>
<path fill="none" stroke="#9a32cd" stroke-dasharray="5,2" d="M640.15,-467.82C782.46,-463.96 1061.23,-451.24 1294,-409.5 1365.84,-396.62 1390.12,-407.81 1454,-372.5 1490.6,-352.27 1522.32,-312.53 1535.71,-294.19"/>
<polygon fill="#9a32cd" stroke="#9a32cd" points="640.04,-464.32 630.14,-468.08 640.23,-471.32 640.04,-464.32"/>
<text text-anchor="middle" x="1036" y="-463.5" font-family="Helvetica,sans-Serif" font-size="10.00"> m_IndexedOutputs</text>
<text text-anchor="middle" x="1036" y="-452.5" font-family="Helvetica,sans-Serif" font-size="10.00">m_IndexedInputs</text>
</g>
<!-- Node23 -->
<g id="node23" class="node">
<title>Node23</title>
<g id="a_node23"><a xlink:title="STL iterator class.">
<polygon fill="white" stroke="#bfbfbf" points="114,-495 114,-514 257,-514 257,-495 114,-495"/>
<text text-anchor="middle" x="185.5" y="-502" font-family="Helvetica,sans-Serif" font-size="10.00">std::map&lt; K, T &gt;::iterator</text>
</a>
</g>
</g>
<!-- Node23&#45;&gt;Node22 -->
<g id="edge30" class="edge">
<title>Node23&#45;&gt;Node22</title>
<path fill="none" stroke="#9a32cd" stroke-dasharray="5,2" d="M267.28,-498.44C317.83,-494.44 384.27,-488.78 443,-482.5 448.83,-481.88 454.84,-481.2 460.9,-480.49"/>
<polygon fill="#9a32cd" stroke="#9a32cd" points="266.76,-494.97 257.07,-499.25 267.31,-501.95 266.76,-494.97"/>
<text text-anchor="middle" x="359" y="-500.5" font-family="Helvetica,sans-Serif" font-size="10.00"> elements</text>
</g>
<!-- Node24&#45;&gt;Node22 -->
<g id="edge31" class="edge">
<title>Node24&#45;&gt;Node22</title>
<path fill="none" stroke="orange" stroke-dasharray="5,2" d="M244.31,-434.5C296.32,-439.97 374.81,-448.41 443,-456.5 448.82,-457.19 454.83,-457.92 460.88,-458.66"/>
<polygon fill="orange" stroke="orange" points="244.59,-431.01 234.28,-433.45 243.86,-437.97 244.59,-431.01"/>
<text text-anchor="start" x="296.5" y="-470.5" font-family="Helvetica,sans-Serif" font-size="10.00"> &lt; DataObjectPointerMap</text>
<text text-anchor="middle" x="359" y="-459.5" font-family="Helvetica,sans-Serif" font-size="10.00">::iterator &gt;</text>
</g>
<!-- Node25&#45;&gt;Node4 -->
<g id="edge33" class="edge">
<title>Node25&#45;&gt;Node4</title>
<path fill="none" stroke="#9a32cd" stroke-dasharray="5,2" d="M1304.33,-109.72C1354.22,-118.58 1413.45,-136.86 1454,-174.5 1470.39,-189.72 1459.3,-203.08 1472,-221.5 1487.47,-243.93 1512.52,-263.76 1528.22,-274.93"/>
<polygon fill="#9a32cd" stroke="#9a32cd" points="1304.6,-106.22 1294.16,-108.02 1303.45,-113.13 1304.6,-106.22"/>
<text text-anchor="middle" x="1383" y="-188.5" font-family="Helvetica,sans-Serif" font-size="10.00"> m_Outputs</text>
<text text-anchor="middle" x="1383" y="-177.5" font-family="Helvetica,sans-Serif" font-size="10.00">m_Inputs</text>
</g>
<!-- Node26 -->
<g id="node26" class="node">
<title>Node26</title>
<g id="a_node26"><a xlink:href="classitk_1_1SmartPointer.html" target="_top" xlink:title=" ">
<polygon fill="white" stroke="black" points="826.5,-42.5 826.5,-72.5 933.5,-72.5 933.5,-42.5 826.5,-42.5"/>
<text text-anchor="start" x="834.5" y="-60.5" font-family="Helvetica,sans-Serif" font-size="10.00">itk::SmartPointer&lt;</text>
<text text-anchor="middle" x="880" y="-49.5" font-family="Helvetica,sans-Serif" font-size="10.00"> Self &gt;</text>
</a>
</g>
</g>
<!-- Node26&#45;&gt;Node25 -->
<g id="edge34" class="edge">
<title>Node26&#45;&gt;Node25</title>
<path fill="none" stroke="#9a32cd" stroke-dasharray="5,2" d="M943.75,-50.72C989.49,-47.41 1052.71,-46.24 1107,-57.5 1133.7,-63.04 1162.01,-75.97 1181.93,-86.39"/>
<polygon fill="#9a32cd" stroke="#9a32cd" points="943.38,-47.24 933.68,-51.5 943.92,-54.22 943.38,-47.24"/>
<text text-anchor="middle" x="1036" y="-60.5" font-family="Helvetica,sans-Serif" font-size="10.00"> elements</text>
</g>
<!-- Node27 -->
<g id="node27" class="node">
<title>Node27</title>
<g id="a_node27"><a xlink:href="classitk_1_1SmartPointer.html" target="_top" xlink:title="Implements transparent reference counting.">
<polygon fill="white" stroke="black" points="492,-15.5 492,-45.5 599,-45.5 599,-15.5 492,-15.5"/>
<text text-anchor="start" x="500" y="-33.5" font-family="Helvetica,sans-Serif" font-size="10.00">itk::SmartPointer&lt;</text>
<text text-anchor="middle" x="545.5" y="-22.5" font-family="Helvetica,sans-Serif" font-size="10.00"> TObjectType &gt;</text>
</a>
</g>
</g>
<!-- Node27&#45;&gt;Node26 -->
<g id="edge35" class="edge">
<title>Node27&#45;&gt;Node26</title>
<path fill="none" stroke="orange" stroke-dasharray="5,2" d="M609.35,-35.6C672.08,-40.7 767.39,-48.44 826.29,-53.22"/>
<polygon fill="orange" stroke="orange" points="609.44,-32.1 599.19,-34.78 608.87,-39.08 609.44,-32.1"/>
<text text-anchor="middle" x="721.5" y="-53.5" font-family="Helvetica,sans-Serif" font-size="10.00"> &lt; Self &gt;</text>
</g>
<!-- Node28 -->
<g id="node28" class="node">
<title>Node28</title>
<g id="a_node28"><a xlink:href="classitk_1_1SmartPointer.html" target="_top" xlink:title=" ">
<polygon fill="white" stroke="black" points="965,-0.5 965,-30.5 1107,-30.5 1107,-0.5 965,-0.5"/>
<text text-anchor="start" x="973" y="-18.5" font-family="Helvetica,sans-Serif" font-size="10.00">itk::SmartPointer&lt;</text>
<text text-anchor="middle" x="1036" y="-7.5" font-family="Helvetica,sans-Serif" font-size="10.00"> itk::MultiThreaderBase &gt;</text>
</a>
</g>
</g>
<!-- Node27&#45;&gt;Node28 -->
<g id="edge39" class="edge">
<title>Node27&#45;&gt;Node28</title>
<path fill="none" stroke="orange" stroke-dasharray="5,2" d="M609.28,-26.44C622.09,-25.71 635.47,-25.02 648,-24.5 758.63,-19.95 887.15,-17.53 964.71,-16.38"/>
<polygon fill="orange" stroke="orange" points="608.94,-22.95 599.16,-27.03 609.35,-29.94 608.94,-22.95"/>
<text text-anchor="middle" x="721.5" y="-27.5" font-family="Helvetica,sans-Serif" font-size="10.00"> &lt; itk::MultiThreaderBase &gt;</text>
</g>
<!-- Node28&#45;&gt;Node4 -->
<g id="edge38" class="edge">
<title>Node28&#45;&gt;Node4</title>
<path fill="none" stroke="#9a32cd" stroke-dasharray="5,2" d="M1117.44,-8.05C1212.76,-4.1 1369.31,-13.87 1454,-107.5 1488.41,-145.54 1447.45,-176.46 1472,-221.5 1484.81,-244.99 1509.89,-264.11 1526.42,-274.9"/>
<polygon fill="#9a32cd" stroke="#9a32cd" points="1117.09,-4.56 1107.27,-8.53 1117.43,-11.55 1117.09,-4.56"/>
<text text-anchor="middle" x="1209.5" y="-25.5" font-family="Helvetica,sans-Serif" font-size="10.00"> m_MultiThreader</text>
</g>
<!-- Node29 -->
<g id="node29" class="node">
<title>Node29</title>
<g id="a_node29"><a xlink:href="structitk_1_1ImageSourceCommon.html" target="_top" xlink:title="Secondary base class of ImageSource common between templates.">
<polygon fill="white" stroke="black" points="1472,-193 1472,-212 1615,-212 1615,-193 1472,-193"/>
<text text-anchor="middle" x="1543.5" y="-200" font-family="Helvetica,sans-Serif" font-size="10.00">itk::ImageSourceCommon</text>
</a>
</g>
</g>
<!-- Node29&#45;&gt;Node3 -->
<g id="edge41" class="edge">
<title>Node29&#45;&gt;Node3</title>
<path fill="none" stroke="#8b1a1a" d="M1580.71,-215.45C1632.71,-233.47 1731.86,-265.66 1819,-281.5 1870.89,-290.93 1930.38,-295.42 1975.3,-297.56"/>
<polygon fill="#8b1a1a" stroke="#8b1a1a" points="1581.56,-212.04 1570.96,-212.05 1579.25,-218.65 1581.56,-212.04"/>
</g>
<!-- Node29&#45;&gt;Node30 -->
<g id="edge44" class="edge">
<title>Node29&#45;&gt;Node30</title>
<path fill="none" stroke="#8b1a1a" d="M1625.48,-202.5C1634.24,-202.5 1643.13,-202.5 1651.81,-202.5"/>
<polygon fill="#8b1a1a" stroke="#8b1a1a" points="1625.26,-199 1615.26,-202.5 1625.26,-206 1625.26,-199"/>
</g>
<!-- Node29&#45;&gt;Node34 -->
<g id="edge50" class="edge">
<title>Node29&#45;&gt;Node34</title>
<path fill="none" stroke="#8b1a1a" d="M1586.95,-190.27C1606.56,-185.23 1630.28,-179.99 1652,-177.5 1762.57,-164.81 1891.66,-174.36 1970.86,-182.98"/>
<polygon fill="#8b1a1a" stroke="#8b1a1a" points="1585.87,-186.93 1577.09,-192.87 1587.66,-193.7 1585.87,-186.93"/>
</g>
<!-- Node30&#45;&gt;Node3 -->
<g id="edge42" class="edge">
<title>Node30&#45;&gt;Node3</title>
<path fill="none" stroke="orange" stroke-dasharray="5,2" d="M1811.08,-214.95C1853.96,-223.54 1906.05,-237.5 1949,-259.5 1958.27,-264.25 1957.87,-269.49 1967,-274.5 1973.85,-278.27 1981.36,-281.57 1988.93,-284.43"/>
<polygon fill="orange" stroke="orange" points="1811.73,-211.51 1801.24,-213.04 1810.39,-218.38 1811.73,-211.51"/>
<text text-anchor="start" x="1819" y="-273.5" font-family="Helvetica,sans-Serif" font-size="10.00"> &lt; Image&lt; SizeValueType,</text>
<text text-anchor="middle" x="1884" y="-262.5" font-family="Helvetica,sans-Serif" font-size="10.00"> 3 &gt; &gt;</text>
</g>
<!-- Node30&#45;&gt;Node34 -->
<g id="edge51" class="edge">
<title>Node30&#45;&gt;Node34</title>
<path fill="none" stroke="orange" stroke-dasharray="5,2" d="M1811.67,-199.73C1814.14,-199.66 1816.59,-199.58 1819,-199.5 1868.14,-197.93 1923.3,-196.22 1966.82,-194.89"/>
<polygon fill="orange" stroke="orange" points="1811.29,-196.24 1801.41,-200.07 1811.52,-203.24 1811.29,-196.24"/>
<text text-anchor="middle" x="1884" y="-202.5" font-family="Helvetica,sans-Serif" font-size="10.00"> &lt; TImage &gt;</text>
</g>
<!-- Node31 -->
<g id="node31" class="node">
<title>Node31</title>
<g id="a_node31"><a xlink:href="classitk_1_1Function_1_1HistogramIntensityFunction.html" target="_top" xlink:title=" ">
<polygon fill="white" stroke="black" points="2298,-218.5 2298,-270.5 2458,-270.5 2458,-218.5 2298,-218.5"/>
<text text-anchor="start" x="2306" y="-258.5" font-family="Helvetica,sans-Serif" font-size="10.00">itk::Function::Histogram</text>
<text text-anchor="start" x="2306" y="-247.5" font-family="Helvetica,sans-Serif" font-size="10.00">IntensityFunction&lt; SizeValue</text>
<text text-anchor="start" x="2306" y="-236.5" font-family="Helvetica,sans-Serif" font-size="10.00">Type, Image&lt; SizeValueType,</text>
<text text-anchor="middle" x="2378" y="-225.5" font-family="Helvetica,sans-Serif" font-size="10.00"> 3 &gt; ::PixelType &gt;</text>
</a>
</g>
</g>
<!-- Node31&#45;&gt;Node2 -->
<g id="edge45" class="edge">
<title>Node31&#45;&gt;Node2</title>
<path fill="none" stroke="#9a32cd" stroke-dasharray="5,2" d="M2468.58,-248.3C2533.62,-251.06 2622.05,-254.81 2691.72,-257.76"/>
<polygon fill="#9a32cd" stroke="#9a32cd" points="2468.49,-244.79 2458.35,-247.86 2468.19,-251.79 2468.49,-244.79"/>
<text text-anchor="middle" x="2583" y="-259.5" font-family="Helvetica,sans-Serif" font-size="10.00"> m_Functor</text>
</g>
<!-- Node32 -->
<g id="node32" class="node">
<title>Node32</title>
<g id="a_node32"><a xlink:href="classitk_1_1Function_1_1HistogramIntensityFunction.html" target="_top" xlink:title=" ">
<polygon fill="white" stroke="black" points="1973,-224 1973,-265 2119,-265 2119,-224 1973,-224"/>
<text text-anchor="start" x="1981" y="-253" font-family="Helvetica,sans-Serif" font-size="10.00">itk::Function::Histogram</text>
<text text-anchor="start" x="1981" y="-242" font-family="Helvetica,sans-Serif" font-size="10.00">IntensityFunction&lt; TInput,</text>
<text text-anchor="middle" x="2046" y="-231" font-family="Helvetica,sans-Serif" font-size="10.00"> TOutput &gt;</text>
</a>
</g>
</g>
<!-- Node32&#45;&gt;Node31 -->
<g id="edge46" class="edge">
<title>Node32&#45;&gt;Node31</title>
<path fill="none" stroke="orange" stroke-dasharray="5,2" d="M2129.13,-244.5C2180.72,-244.5 2246.92,-244.5 2297.92,-244.5"/>
<polygon fill="orange" stroke="orange" points="2129.01,-241 2119.01,-244.5 2129.01,-248 2129.01,-241"/>
<text text-anchor="start" x="2143" y="-269.5" font-family="Helvetica,sans-Serif" font-size="10.00"> &lt; SizeValueType, Image</text>
<text text-anchor="start" x="2143" y="-258.5" font-family="Helvetica,sans-Serif" font-size="10.00">&lt; SizeValueType, 3 &gt; </text>
<text text-anchor="middle" x="2203.5" y="-247.5" font-family="Helvetica,sans-Serif" font-size="10.00">::PixelType &gt;</text>
</g>
<!-- Node33 -->
<g id="node33" class="node">
<title>Node33</title>
<g id="a_node33"><a xlink:href="classitk_1_1HistogramToImageFilter.html" target="_top" xlink:title="This class takes a histogram as an input and returns an image of type specified by the functor.">
<polygon fill="white" stroke="black" points="2282,-169.5 2282,-199.5 2474,-199.5 2474,-169.5 2282,-169.5"/>
<text text-anchor="start" x="2290" y="-187.5" font-family="Helvetica,sans-Serif" font-size="10.00">itk::HistogramToImageFilter</text>
<text text-anchor="middle" x="2378" y="-176.5" font-family="Helvetica,sans-Serif" font-size="10.00">&lt; THistogram, TImage, TFunction &gt;</text>
</a>
</g>
</g>
<!-- Node33&#45;&gt;Node2 -->
<g id="edge47" class="edge">
<title>Node33&#45;&gt;Node2</title>
<path fill="none" stroke="orange" stroke-dasharray="5,2" d="M2484.45,-173.85C2541.52,-171.16 2612.68,-172.85 2674,-189.5 2704.88,-197.89 2736.23,-215.27 2760.35,-230.98"/>
<polygon fill="orange" stroke="orange" points="2484.13,-170.36 2474.33,-174.37 2484.5,-177.35 2484.13,-170.36"/>
<text text-anchor="start" x="2492" y="-236.5" font-family="Helvetica,sans-Serif" font-size="10.00"> &lt; THistogram, Image</text>
<text text-anchor="start" x="2492" y="-225.5" font-family="Helvetica,sans-Serif" font-size="10.00">&lt; SizeValueType, 3 &gt;</text>
<text text-anchor="start" x="2492" y="-214.5" font-family="Helvetica,sans-Serif" font-size="10.00">, Function::HistogramIntensity</text>
<text text-anchor="start" x="2492" y="-203.5" font-family="Helvetica,sans-Serif" font-size="10.00">Function&lt; SizeValueType, Image</text>
<text text-anchor="middle" x="2583" y="-192.5" font-family="Helvetica,sans-Serif" font-size="10.00">&lt; SizeValueType, 3 &gt; ::PixelType &gt; &gt;</text>
</g>
<!-- Node34&#45;&gt;Node33 -->
<g id="edge48" class="edge">
<title>Node34&#45;&gt;Node33</title>
<path fill="none" stroke="midnightblue" d="M2135.3,-190.36C2180.59,-189.26 2235.79,-187.92 2282,-186.8"/>
<polygon fill="midnightblue" stroke="midnightblue" points="2135.12,-186.86 2125.21,-190.6 2135.29,-193.86 2135.12,-186.86"/>
</g>
</g>
</svg>
