<?xml version="1.0" encoding="UTF-8" standalone="no"?>
<!DOCTYPE svg PUBLIC "-//W3C//DTD SVG 1.1//EN"
 "http://www.w3.org/Graphics/SVG/1.1/DTD/svg11.dtd">
<!-- Generated by graphviz version 2.43.0 (0)
 -->
<!-- Title: itk::Functor::GreaterEqual&lt; TInput1, TInput2, TOutput &gt; Pages: 1 -->
<svg width="187pt" height="196pt"
 viewBox="0.00 0.00 187.00 196.00" xmlns="http://www.w3.org/2000/svg" xmlns:xlink="http://www.w3.org/1999/xlink">
<g id="graph0" class="graph" transform="scale(1 1) rotate(0) translate(4 192)">
<title>itk::Functor::GreaterEqual&lt; TInput1, TInput2, TOutput &gt;</title>
<polygon fill="white" stroke="transparent" points="-4,4 -4,-192 183,-192 183,4 -4,4"/>
<!-- Node1 -->
<g id="node1" class="node">
<title>Node1</title>
<g id="a_node1"><a xlink:title="Functor for &gt;= operation on images and constants.">
<polygon fill="#bfbfbf" stroke="black" points="0,-0.5 0,-30.5 164,-30.5 164,-0.5 0,-0.5"/>
<text text-anchor="start" x="8" y="-18.5" font-family="Helvetica,sans-Serif" font-size="10.00">itk::Functor::GreaterEqual</text>
<text text-anchor="middle" x="82" y="-7.5" font-family="Helvetica,sans-Serif" font-size="10.00">&lt; TInput1, TInput2, TOutput &gt;</text>
</a>
</g>
</g>
<!-- Node2 -->
<g id="node2" class="node">
<title>Node2</title>
<g id="a_node2"><a xlink:href="classitk_1_1Functor_1_1LogicOpBase.html" target="_top" xlink:title=" ">
<polygon fill="white" stroke="black" points="1.5,-68.5 1.5,-98.5 162.5,-98.5 162.5,-68.5 1.5,-68.5"/>
<text text-anchor="start" x="9.5" y="-86.5" font-family="Helvetica,sans-Serif" font-size="10.00">itk::Functor::LogicOpBase</text>
<text text-anchor="middle" x="82" y="-75.5" font-family="Helvetica,sans-Serif" font-size="10.00">&lt; TInput1, TInput1, TInput1 &gt;</text>
</a>
</g>
</g>
<!-- Node2&#45;&gt;Node1 -->
<g id="edge1" class="edge">
<title>Node2&#45;&gt;Node1</title>
<path fill="none" stroke="midnightblue" d="M82,-58.03C82,-48.86 82,-38.74 82,-30.79"/>
<polygon fill="midnightblue" stroke="midnightblue" points="78.5,-58.18 82,-68.18 85.5,-58.18 78.5,-58.18"/>
</g>
<!-- Node3 -->
<g id="node3" class="node">
<title>Node3</title>
<g id="a_node3"><a xlink:href="classitk_1_1Functor_1_1LogicOpBase.html" target="_top" xlink:title="Base class for some logic functors. Provides the Foreground and background setting methods.">
<polygon fill="white" stroke="black" points="0,-157.5 0,-187.5 164,-187.5 164,-157.5 0,-157.5"/>
<text text-anchor="start" x="8" y="-175.5" font-family="Helvetica,sans-Serif" font-size="10.00">itk::Functor::LogicOpBase</text>
<text text-anchor="middle" x="82" y="-164.5" font-family="Helvetica,sans-Serif" font-size="10.00">&lt; TInput1, TInput2, TOutput &gt;</text>
</a>
</g>
</g>
<!-- Node3&#45;&gt;Node2 -->
<g id="edge2" class="edge">
<title>Node3&#45;&gt;Node2</title>
<path fill="none" stroke="orange" stroke-dasharray="5,2" d="M82,-147.09C82,-131.44 82,-111.68 82,-98.6"/>
<polygon fill="orange" stroke="orange" points="78.5,-147.13 82,-157.13 85.5,-147.13 78.5,-147.13"/>
<text text-anchor="start" x="82" y="-131" font-family="Helvetica,sans-Serif" font-size="10.00"> &lt; TInput1, TInput1,</text>
<text text-anchor="middle" x="130.5" y="-120" font-family="Helvetica,sans-Serif" font-size="10.00"> TInput1 &gt;</text>
</g>
</g>
</svg>
