<?xml version="1.0" encoding="UTF-8" standalone="no"?>
<!DOCTYPE svg PUBLIC "-//W3C//DTD SVG 1.1//EN"
 "http://www.w3.org/Graphics/SVG/1.1/DTD/svg11.dtd">
<!-- Generated by graphviz version 2.43.0 (0)
 -->
<!-- Title: itk::Function::WindowConvergenceMonitoringFunction&lt; TScalar &gt; Pages: 1 -->
<svg width="2069pt" height="208pt"
 viewBox="0.00 0.00 2069.00 208.00" xmlns="http://www.w3.org/2000/svg" xmlns:xlink="http://www.w3.org/1999/xlink">
<g id="graph0" class="graph" transform="scale(1 1) rotate(0) translate(4 204)">
<title>itk::Function::WindowConvergenceMonitoringFunction&lt; TScalar &gt;</title>
<polygon fill="white" stroke="transparent" points="-4,4 -4,-204 2065,-204 2065,4 -4,4"/>
<!-- Node1 -->
<g id="node1" class="node">
<title>Node1</title>
<g id="a_node1"><a xlink:title="Class which monitors convergence during the course of optimization.">
<polygon fill="#bfbfbf" stroke="black" points="1876,-66 1876,-96 2061,-96 2061,-66 1876,-66"/>
<text text-anchor="start" x="1884" y="-84" font-family="Helvetica,sans-Serif" font-size="10.00">itk::Function::WindowConvergence</text>
<text text-anchor="middle" x="1968.5" y="-73" font-family="Helvetica,sans-Serif" font-size="10.00">MonitoringFunction&lt; TScalar &gt;</text>
</a>
</g>
</g>
<!-- Node2 -->
<g id="node2" class="node">
<title>Node2</title>
<g id="a_node2"><a xlink:href="classitk_1_1Function_1_1ConvergenceMonitoringFunction.html" target="_top" xlink:title=" ">
<polygon fill="white" stroke="black" points="1606,-107.5 1606,-148.5 1764,-148.5 1764,-107.5 1606,-107.5"/>
<text text-anchor="start" x="1614" y="-136.5" font-family="Helvetica,sans-Serif" font-size="10.00">itk::Function::Convergence</text>
<text text-anchor="start" x="1614" y="-125.5" font-family="Helvetica,sans-Serif" font-size="10.00">MonitoringFunction&lt; double,</text>
<text text-anchor="middle" x="1685" y="-114.5" font-family="Helvetica,sans-Serif" font-size="10.00"> double &gt;</text>
</a>
</g>
</g>
<!-- Node2&#45;&gt;Node1 -->
<g id="edge1" class="edge">
<title>Node2&#45;&gt;Node1</title>
<path fill="none" stroke="midnightblue" d="M1774.11,-113.29C1807.06,-107.79 1844.51,-101.54 1877.61,-96.01"/>
<polygon fill="midnightblue" stroke="midnightblue" points="1773.33,-109.87 1764.04,-114.97 1774.48,-116.78 1773.33,-109.87"/>
</g>
<!-- Node3 -->
<g id="node3" class="node">
<title>Node3</title>
<g id="a_node3"><a xlink:href="classitk_1_1Object.html" target="_top" xlink:title="Base class for most ITK classes.">
<polygon fill="white" stroke="black" points="1070,-89.5 1070,-108.5 1137,-108.5 1137,-89.5 1070,-89.5"/>
<text text-anchor="middle" x="1103.5" y="-96.5" font-family="Helvetica,sans-Serif" font-size="10.00">itk::Object</text>
</a>
</g>
</g>
<!-- Node3&#45;&gt;Node2 -->
<g id="edge2" class="edge">
<title>Node3&#45;&gt;Node2</title>
<path fill="none" stroke="midnightblue" d="M1147.6,-101.07C1216.25,-104.38 1354.67,-111.08 1472,-117 1516.35,-119.24 1565.92,-121.81 1605.97,-123.9"/>
<polygon fill="midnightblue" stroke="midnightblue" points="1147.35,-97.55 1137.2,-100.57 1147.02,-104.55 1147.35,-97.55"/>
</g>
<!-- Node18 -->
<g id="node18" class="node">
<title>Node18</title>
<g id="a_node18"><a xlink:href="classitk_1_1Function_1_1ConvergenceMonitoringFunction.html" target="_top" xlink:title="Abstract base class which monitors convergence during the course of optimization.">
<polygon fill="white" stroke="black" points="1311,-126.5 1311,-167.5 1472,-167.5 1472,-126.5 1311,-126.5"/>
<text text-anchor="start" x="1319" y="-155.5" font-family="Helvetica,sans-Serif" font-size="10.00">itk::Function::Convergence</text>
<text text-anchor="start" x="1319" y="-144.5" font-family="Helvetica,sans-Serif" font-size="10.00">MonitoringFunction&lt; TScalar,</text>
<text text-anchor="middle" x="1391.5" y="-133.5" font-family="Helvetica,sans-Serif" font-size="10.00"> TEnergyValue &gt;</text>
</a>
</g>
</g>
<!-- Node3&#45;&gt;Node18 -->
<g id="edge22" class="edge">
<title>Node3&#45;&gt;Node18</title>
<path fill="none" stroke="midnightblue" d="M1147.16,-106.16C1190.21,-113.38 1257.71,-124.71 1310.72,-133.61"/>
<polygon fill="midnightblue" stroke="midnightblue" points="1147.47,-102.66 1137.03,-104.46 1146.31,-109.57 1147.47,-102.66"/>
</g>
<!-- Node4 -->
<g id="node4" class="node">
<title>Node4</title>
<g id="a_node4"><a xlink:href="classitk_1_1LightObject.html" target="_top" xlink:title="Light weight base class for most itk classes.">
<polygon fill="white" stroke="black" points="751.5,-142.5 751.5,-161.5 842.5,-161.5 842.5,-142.5 751.5,-142.5"/>
<text text-anchor="middle" x="797" y="-149.5" font-family="Helvetica,sans-Serif" font-size="10.00">itk::LightObject</text>
</a>
</g>
</g>
<!-- Node4&#45;&gt;Node3 -->
<g id="edge3" class="edge">
<title>Node4&#45;&gt;Node3</title>
<path fill="none" stroke="midnightblue" d="M852.56,-147.31C893.18,-143.3 949.85,-136.65 999,-127 1023.66,-122.16 1051.09,-114.63 1071.52,-108.61"/>
<polygon fill="midnightblue" stroke="midnightblue" points="852.21,-143.82 842.59,-148.27 852.88,-150.79 852.21,-143.82"/>
</g>
<!-- Node5 -->
<g id="node5" class="node">
<title>Node5</title>
<g id="a_node5"><a xlink:title=" ">
<polygon fill="white" stroke="#bfbfbf" points="457,-142.5 457,-161.5 564,-161.5 564,-142.5 457,-142.5"/>
<text text-anchor="middle" x="510.5" y="-149.5" font-family="Helvetica,sans-Serif" font-size="10.00">std::atomic&lt; int &gt;</text>
</a>
</g>
</g>
<!-- Node5&#45;&gt;Node4 -->
<g id="edge4" class="edge">
<title>Node5&#45;&gt;Node4</title>
<path fill="none" stroke="#9a32cd" stroke-dasharray="5,2" d="M574.09,-152C627.7,-152 703.59,-152 751.28,-152"/>
<polygon fill="#9a32cd" stroke="#9a32cd" points="574.01,-148.5 564.01,-152 574.01,-155.5 574.01,-148.5"/>
<text text-anchor="middle" x="657.5" y="-155" font-family="Helvetica,sans-Serif" font-size="10.00"> m_ReferenceCount</text>
</g>
<!-- Node6 -->
<g id="node6" class="node">
<title>Node6</title>
<g id="a_node6"><a xlink:title="STL class.">
<polygon fill="white" stroke="#bfbfbf" points="123,-129.5 123,-148.5 223,-148.5 223,-129.5 123,-129.5"/>
<text text-anchor="middle" x="173" y="-136.5" font-family="Helvetica,sans-Serif" font-size="10.00">std::atomic&lt; T &gt;</text>
</a>
</g>
</g>
<!-- Node6&#45;&gt;Node5 -->
<g id="edge5" class="edge">
<title>Node6&#45;&gt;Node5</title>
<path fill="none" stroke="orange" stroke-dasharray="5,2" d="M233.38,-141.3C296.77,-143.76 396.25,-147.61 456.9,-149.96"/>
<polygon fill="orange" stroke="orange" points="233.27,-137.79 223.14,-140.9 233,-144.79 233.27,-137.79"/>
<text text-anchor="middle" x="334" y="-151" font-family="Helvetica,sans-Serif" font-size="10.00"> &lt; int &gt;</text>
</g>
<!-- Node15 -->
<g id="node15" class="node">
<title>Node15</title>
<g id="a_node15"><a xlink:href="classitk_1_1TimeStamp.html" target="_top" xlink:title="Generate a unique, increasing time value.">
<polygon fill="white" stroke="black" points="611.5,-103.5 611.5,-122.5 703.5,-122.5 703.5,-103.5 611.5,-103.5"/>
<text text-anchor="middle" x="657.5" y="-110.5" font-family="Helvetica,sans-Serif" font-size="10.00">itk::TimeStamp</text>
</a>
</g>
</g>
<!-- Node6&#45;&gt;Node15 -->
<g id="edge17" class="edge">
<title>Node6&#45;&gt;Node15</title>
<path fill="none" stroke="#9a32cd" stroke-dasharray="5,2" d="M233.4,-128.91C239,-128.17 244.6,-127.52 250,-127 380.74,-114.47 536.09,-112.76 611.27,-112.76"/>
<polygon fill="#9a32cd" stroke="#9a32cd" points="232.78,-125.46 223.36,-130.31 233.74,-132.39 232.78,-125.46"/>
<text text-anchor="middle" x="334" y="-130" font-family="Helvetica,sans-Serif" font-size="10.00"> m_GlobalTimeStamp</text>
</g>
<!-- Node7 -->
<g id="node7" class="node">
<title>Node7</title>
<g id="a_node7"><a xlink:title=" ">
<polygon fill="white" stroke="#bfbfbf" points="0,-112.5 0,-131.5 29,-131.5 29,-112.5 0,-112.5"/>
<text text-anchor="middle" x="14.5" y="-119.5" font-family="Helvetica,sans-Serif" font-size="10.00">T</text>
</a>
</g>
</g>
<!-- Node7&#45;&gt;Node6 -->
<g id="edge6" class="edge">
<title>Node7&#45;&gt;Node6</title>
<path fill="none" stroke="#9a32cd" stroke-dasharray="5,2" d="M39.23,-124.58C61.29,-126.97 94.84,-130.62 122.7,-133.64"/>
<polygon fill="#9a32cd" stroke="#9a32cd" points="39.43,-121.08 29.11,-123.48 38.68,-128.04 39.43,-121.08"/>
<text text-anchor="middle" x="71.5" y="-133" font-family="Helvetica,sans-Serif" font-size="10.00"> ptr</text>
</g>
<!-- Node12 -->
<g id="node12" class="node">
<title>Node12</title>
<g id="a_node12"><a xlink:title="STL class.">
<polygon fill="white" stroke="#bfbfbf" points="122.5,-36.5 122.5,-55.5 223.5,-55.5 223.5,-36.5 122.5,-36.5"/>
<text text-anchor="middle" x="173" y="-43.5" font-family="Helvetica,sans-Serif" font-size="10.00">std::map&lt; K, T &gt;</text>
</a>
</g>
</g>
<!-- Node7&#45;&gt;Node12 -->
<g id="edge13" class="edge">
<title>Node7&#45;&gt;Node12</title>
<path fill="none" stroke="#9a32cd" stroke-dasharray="5,2" d="M27.92,-104.1C33.16,-97.64 39.74,-90.76 47,-86 69.67,-71.12 98.27,-61.43 122.39,-55.32"/>
<polygon fill="#9a32cd" stroke="#9a32cd" points="24.86,-102.34 21.65,-112.43 30.46,-106.55 24.86,-102.34"/>
<text text-anchor="middle" x="71.5" y="-89" font-family="Helvetica,sans-Serif" font-size="10.00"> elements</text>
</g>
<!-- Node14 -->
<g id="node14" class="node">
<title>Node14</title>
<g id="a_node14"><a xlink:title="STL class.">
<polygon fill="white" stroke="#bfbfbf" points="114,-85.5 114,-104.5 232,-104.5 232,-85.5 114,-85.5"/>
<text text-anchor="middle" x="173" y="-92.5" font-family="Helvetica,sans-Serif" font-size="10.00">std::shared_ptr&lt; T &gt;</text>
</a>
</g>
</g>
<!-- Node7&#45;&gt;Node14 -->
<g id="edge15" class="edge">
<title>Node7&#45;&gt;Node14</title>
<path fill="none" stroke="#9a32cd" stroke-dasharray="5,2" d="M38.69,-112.44C41.46,-111.52 44.27,-110.67 47,-110 68.54,-104.69 92.65,-101.23 113.9,-98.99"/>
<polygon fill="#9a32cd" stroke="#9a32cd" points="37.23,-109.25 29.07,-116 39.66,-115.81 37.23,-109.25"/>
<text text-anchor="middle" x="71.5" y="-113" font-family="Helvetica,sans-Serif" font-size="10.00"> ptr</text>
</g>
<!-- Node17 -->
<g id="node17" class="node">
<title>Node17</title>
<g id="a_node17"><a xlink:title="STL class.">
<polygon fill="white" stroke="#bfbfbf" points="286,-173.5 286,-192.5 382,-192.5 382,-173.5 286,-173.5"/>
<text text-anchor="middle" x="334" y="-180.5" font-family="Helvetica,sans-Serif" font-size="10.00">std::deque&lt; T &gt;</text>
</a>
</g>
</g>
<!-- Node7&#45;&gt;Node17 -->
<g id="edge20" class="edge">
<title>Node7&#45;&gt;Node17</title>
<path fill="none" stroke="#9a32cd" stroke-dasharray="5,2" d="M34.25,-137.72C38.27,-140.49 42.62,-143.09 47,-145 125.74,-179.33 227.34,-184.72 285.83,-184.53"/>
<polygon fill="#9a32cd" stroke="#9a32cd" points="36.22,-134.82 26.13,-131.59 32.01,-140.41 36.22,-134.82"/>
<text text-anchor="middle" x="71.5" y="-164" font-family="Helvetica,sans-Serif" font-size="10.00"> elements</text>
</g>
<!-- Node8 -->
<g id="node8" class="node">
<title>Node8</title>
<g id="a_node8"><a xlink:title="STL class.">
<polygon fill="white" stroke="#bfbfbf" points="764.5,-14.5 764.5,-33.5 829.5,-33.5 829.5,-14.5 764.5,-14.5"/>
<text text-anchor="middle" x="797" y="-21.5" font-family="Helvetica,sans-Serif" font-size="10.00">std::string</text>
</a>
</g>
</g>
<!-- Node8&#45;&gt;Node3 -->
<g id="edge7" class="edge">
<title>Node8&#45;&gt;Node3</title>
<path fill="none" stroke="#9a32cd" stroke-dasharray="5,2" d="M839.57,-29.91C880.52,-36.19 944.66,-47.25 999,-62 1026.99,-69.6 1058.23,-81.22 1078.99,-89.4"/>
<polygon fill="#9a32cd" stroke="#9a32cd" points="840.09,-26.45 829.68,-28.42 839.05,-33.37 840.09,-26.45"/>
<text text-anchor="middle" x="940.5" y="-65" font-family="Helvetica,sans-Serif" font-size="10.00"> m_ObjectName</text>
</g>
<!-- Node9 -->
<g id="node9" class="node">
<title>Node9</title>
<g id="a_node9"><a xlink:title="STL class.">
<polygon fill="white" stroke="#bfbfbf" points="458.5,-5 458.5,-35 562.5,-35 562.5,-5 458.5,-5"/>
<text text-anchor="start" x="466.5" y="-23" font-family="Helvetica,sans-Serif" font-size="10.00">std::basic_string&lt;</text>
<text text-anchor="middle" x="510.5" y="-12" font-family="Helvetica,sans-Serif" font-size="10.00"> char &gt;</text>
</a>
</g>
</g>
<!-- Node9&#45;&gt;Node8 -->
<g id="edge8" class="edge">
<title>Node9&#45;&gt;Node8</title>
<path fill="none" stroke="midnightblue" d="M572.97,-20.86C631.75,-21.69 718.07,-22.9 764.19,-23.55"/>
<polygon fill="midnightblue" stroke="midnightblue" points="572.74,-17.36 562.69,-20.72 572.64,-24.36 572.74,-17.36"/>
</g>
<!-- Node10 -->
<g id="node10" class="node">
<title>Node10</title>
<g id="a_node10"><a xlink:href="classitk_1_1MetaDataDictionary.html" target="_top" xlink:title="Provides a mechanism for storing a collection of arbitrary data types.">
<polygon fill="white" stroke="black" points="730,-57.5 730,-76.5 864,-76.5 864,-57.5 730,-57.5"/>
<text text-anchor="middle" x="797" y="-64.5" font-family="Helvetica,sans-Serif" font-size="10.00">itk::MetaDataDictionary</text>
</a>
</g>
</g>
<!-- Node10&#45;&gt;Node3 -->
<g id="edge9" class="edge">
<title>Node10&#45;&gt;Node3</title>
<path fill="none" stroke="#9a32cd" stroke-dasharray="5,2" d="M874.44,-74.95C911.97,-78.87 957.86,-83.66 999,-88 1022.72,-90.5 1049.5,-93.35 1069.87,-95.52"/>
<polygon fill="#9a32cd" stroke="#9a32cd" points="874.4,-71.43 864.09,-73.87 873.67,-78.39 874.4,-71.43"/>
<text text-anchor="middle" x="940.5" y="-91" font-family="Helvetica,sans-Serif" font-size="10.00"> m_MetaDataDictionary</text>
</g>
<!-- Node11 -->
<g id="node11" class="node">
<title>Node11</title>
<g id="a_node11"><a xlink:title=" ">
<polygon fill="white" stroke="#bfbfbf" points="436,-54 436,-84 585,-84 585,-54 436,-54"/>
<text text-anchor="start" x="444" y="-72" font-family="Helvetica,sans-Serif" font-size="10.00">std::shared_ptr&lt; MetaData</text>
<text text-anchor="middle" x="510.5" y="-61" font-family="Helvetica,sans-Serif" font-size="10.00">DictionaryMapType &gt;</text>
</a>
</g>
</g>
<!-- Node11&#45;&gt;Node10 -->
<g id="edge10" class="edge">
<title>Node11&#45;&gt;Node10</title>
<path fill="none" stroke="#9a32cd" stroke-dasharray="5,2" d="M595.29,-68.41C638.26,-68.11 689.85,-67.75 729.96,-67.46"/>
<polygon fill="#9a32cd" stroke="#9a32cd" points="595.11,-64.91 585.14,-68.48 595.16,-71.91 595.11,-64.91"/>
<text text-anchor="middle" x="657.5" y="-72" font-family="Helvetica,sans-Serif" font-size="10.00"> m_Dictionary</text>
</g>
<!-- Node12&#45;&gt;Node11 -->
<g id="edge11" class="edge">
<title>Node12&#45;&gt;Node11</title>
<path fill="none" stroke="#9a32cd" stroke-dasharray="5,2" d="M233.96,-42.39C283.5,-40.34 355.57,-39.47 418,-47 430.49,-48.51 443.74,-51.1 456.17,-53.98"/>
<polygon fill="#9a32cd" stroke="#9a32cd" points="233.58,-38.91 223.74,-42.85 233.89,-45.9 233.58,-38.91"/>
<text text-anchor="middle" x="334" y="-50" font-family="Helvetica,sans-Serif" font-size="10.00"> ptr</text>
</g>
<!-- Node13 -->
<g id="node13" class="node">
<title>Node13</title>
<g id="a_node13"><a xlink:title=" ">
<polygon fill="white" stroke="#bfbfbf" points="0,-27.5 0,-46.5 29,-46.5 29,-27.5 0,-27.5"/>
<text text-anchor="middle" x="14.5" y="-34.5" font-family="Helvetica,sans-Serif" font-size="10.00">K</text>
</a>
</g>
</g>
<!-- Node13&#45;&gt;Node12 -->
<g id="edge12" class="edge">
<title>Node13&#45;&gt;Node12</title>
<path fill="none" stroke="#9a32cd" stroke-dasharray="5,2" d="M39.3,-36.72C55.33,-36.67 76.95,-36.88 96,-38 104.48,-38.5 113.46,-39.25 122.18,-40.09"/>
<polygon fill="#9a32cd" stroke="#9a32cd" points="39.16,-33.22 29.19,-36.79 39.21,-40.22 39.16,-33.22"/>
<text text-anchor="middle" x="71.5" y="-41" font-family="Helvetica,sans-Serif" font-size="10.00"> keys</text>
</g>
<!-- Node14&#45;&gt;Node11 -->
<g id="edge14" class="edge">
<title>Node14&#45;&gt;Node11</title>
<path fill="none" stroke="orange" stroke-dasharray="5,2" d="M230.35,-83.74C236.96,-82.68 243.61,-81.73 250,-81 312.39,-73.84 383.69,-70.92 435.74,-69.75"/>
<polygon fill="orange" stroke="orange" points="229.35,-80.36 220.07,-85.48 230.51,-87.26 229.35,-80.36"/>
<text text-anchor="middle" x="334" y="-84" font-family="Helvetica,sans-Serif" font-size="10.00"> &lt; MetaDataDictionaryMapType &gt;</text>
</g>
<!-- Node15&#45;&gt;Node3 -->
<g id="edge16" class="edge">
<title>Node15&#45;&gt;Node3</title>
<path fill="none" stroke="#9a32cd" stroke-dasharray="5,2" d="M713.63,-111.26C807.21,-108.31 994.29,-102.41 1069.79,-100.03"/>
<polygon fill="#9a32cd" stroke="#9a32cd" points="713.4,-107.77 703.52,-111.58 713.62,-114.76 713.4,-107.77"/>
<text text-anchor="middle" x="797" y="-113" font-family="Helvetica,sans-Serif" font-size="10.00"> m_MTime</text>
</g>
<!-- Node16 -->
<g id="node16" class="node">
<title>Node16</title>
<g id="a_node16"><a xlink:title=" ">
<polygon fill="white" stroke="#bfbfbf" points="1017,-180.5 1017,-199.5 1190,-199.5 1190,-180.5 1017,-180.5"/>
<text text-anchor="middle" x="1103.5" y="-187.5" font-family="Helvetica,sans-Serif" font-size="10.00">std::deque&lt; EnergyValueType &gt;</text>
</a>
</g>
</g>
<!-- Node16&#45;&gt;Node2 -->
<g id="edge18" class="edge">
<title>Node16&#45;&gt;Node2</title>
<path fill="none" stroke="#9a32cd" stroke-dasharray="5,2" d="M1200.72,-189.92C1230.32,-189.64 1263.01,-189.08 1293,-188 1424.84,-183.25 1459.57,-185.18 1588,-155 1596.34,-153.04 1605.05,-150.83 1613.66,-148.54"/>
<polygon fill="#9a32cd" stroke="#9a32cd" points="1200.35,-186.42 1190.38,-190.01 1200.41,-193.42 1200.35,-186.42"/>
<text text-anchor="middle" x="1391.5" y="-190" font-family="Helvetica,sans-Serif" font-size="10.00"> m_EnergyValues</text>
</g>
<!-- Node16&#45;&gt;Node18 -->
<g id="edge23" class="edge">
<title>Node16&#45;&gt;Node18</title>
<path fill="none" stroke="#9a32cd" stroke-dasharray="5,2" d="M1178.08,-178.94C1218.73,-172.83 1269.26,-165.23 1310.83,-158.98"/>
<polygon fill="#9a32cd" stroke="#9a32cd" points="1177.34,-175.51 1167.97,-180.46 1178.38,-182.43 1177.34,-175.51"/>
<text text-anchor="middle" x="1250.5" y="-176" font-family="Helvetica,sans-Serif" font-size="10.00"> m_EnergyValues</text>
</g>
<!-- Node17&#45;&gt;Node16 -->
<g id="edge19" class="edge">
<title>Node17&#45;&gt;Node16</title>
<path fill="none" stroke="orange" stroke-dasharray="5,2" d="M392.17,-183.52C525.76,-184.74 858.99,-187.78 1016.91,-189.22"/>
<polygon fill="orange" stroke="orange" points="392.17,-180.02 382.14,-183.43 392.11,-187.02 392.17,-180.02"/>
<text text-anchor="middle" x="657.5" y="-189" font-family="Helvetica,sans-Serif" font-size="10.00"> &lt; EnergyValueType &gt;</text>
</g>
<!-- Node18&#45;&gt;Node2 -->
<g id="edge21" class="edge">
<title>Node18&#45;&gt;Node2</title>
<path fill="none" stroke="orange" stroke-dasharray="5,2" d="M1482.32,-141.15C1521.86,-138.57 1567.87,-135.57 1605.96,-133.09"/>
<polygon fill="orange" stroke="orange" points="1481.9,-137.67 1472.15,-141.81 1482.36,-144.65 1481.9,-137.67"/>
<text text-anchor="middle" x="1539" y="-143" font-family="Helvetica,sans-Serif" font-size="10.00"> &lt; double, double &gt;</text>
</g>
<!-- Node19 -->
<g id="node19" class="node">
<title>Node19</title>
<g id="a_node19"><a xlink:href="classitk_1_1NumericTraits.html" target="_top" xlink:title=" ">
<polygon fill="white" stroke="black" points="1633.5,-39 1633.5,-69 1736.5,-69 1736.5,-39 1633.5,-39"/>
<text text-anchor="start" x="1641.5" y="-57" font-family="Helvetica,sans-Serif" font-size="10.00">itk::NumericTraits</text>
<text text-anchor="middle" x="1685" y="-46" font-family="Helvetica,sans-Serif" font-size="10.00">&lt; ScalarType &gt;</text>
</a>
</g>
</g>
<!-- Node19&#45;&gt;Node1 -->
<g id="edge24" class="edge">
<title>Node19&#45;&gt;Node1</title>
<path fill="none" stroke="#9a32cd" stroke-dasharray="5,2" d="M1746.96,-59.85C1784.64,-63.46 1833.71,-68.17 1876,-72.22"/>
<polygon fill="#9a32cd" stroke="#9a32cd" points="1746.94,-56.33 1736.65,-58.86 1746.27,-63.3 1746.94,-56.33"/>
<text text-anchor="middle" x="1820" y="-73" font-family="Helvetica,sans-Serif" font-size="10.00"> m_TotalEnergy</text>
</g>
<!-- Node20 -->
<g id="node20" class="node">
<title>Node20</title>
<g id="a_node20"><a xlink:title=" ">
<polygon fill="white" stroke="#bfbfbf" points="1336.5,-39 1336.5,-69 1446.5,-69 1446.5,-39 1336.5,-39"/>
<text text-anchor="start" x="1344.5" y="-57" font-family="Helvetica,sans-Serif" font-size="10.00">std::numeric_limits</text>
<text text-anchor="middle" x="1391.5" y="-46" font-family="Helvetica,sans-Serif" font-size="10.00">&lt; ScalarType &gt;</text>
</a>
</g>
</g>
<!-- Node20&#45;&gt;Node19 -->
<g id="edge25" class="edge">
<title>Node20&#45;&gt;Node19</title>
<path fill="none" stroke="midnightblue" d="M1456.96,-54C1509.99,-54 1584.13,-54 1633.07,-54"/>
<polygon fill="midnightblue" stroke="midnightblue" points="1456.65,-50.5 1446.65,-54 1456.65,-57.5 1456.65,-50.5"/>
</g>
<!-- Node21 -->
<g id="node21" class="node">
<title>Node21</title>
<g id="a_node21"><a xlink:href="classitk_1_1NumericTraits.html" target="_top" xlink:title="Define additional traits for native types such as int or float.">
<polygon fill="white" stroke="black" points="1326,-0.5 1326,-19.5 1457,-19.5 1457,-0.5 1326,-0.5"/>
<text text-anchor="middle" x="1391.5" y="-7.5" font-family="Helvetica,sans-Serif" font-size="10.00">itk::NumericTraits&lt; T &gt;</text>
</a>
</g>
</g>
<!-- Node21&#45;&gt;Node19 -->
<g id="edge26" class="edge">
<title>Node21&#45;&gt;Node19</title>
<path fill="none" stroke="orange" stroke-dasharray="5,2" d="M1467.29,-20.96C1503.72,-26.33 1548.16,-32.93 1588,-39 1602.68,-41.23 1618.61,-43.71 1633.19,-45.99"/>
<polygon fill="orange" stroke="orange" points="1467.64,-17.47 1457.24,-19.48 1466.62,-24.4 1467.64,-17.47"/>
<text text-anchor="middle" x="1539" y="-42" font-family="Helvetica,sans-Serif" font-size="10.00"> &lt; ScalarType &gt;</text>
</g>
<!-- Node22 -->
<g id="node22" class="node">
<title>Node22</title>
<g id="a_node22"><a xlink:title=" ">
<polygon fill="white" stroke="#bfbfbf" points="1034,-0.5 1034,-19.5 1173,-19.5 1173,-0.5 1034,-0.5"/>
<text text-anchor="middle" x="1103.5" y="-7.5" font-family="Helvetica,sans-Serif" font-size="10.00">std::numeric_limits&lt; T &gt;</text>
</a>
</g>
</g>
<!-- Node22&#45;&gt;Node21 -->
<g id="edge27" class="edge">
<title>Node22&#45;&gt;Node21</title>
<path fill="none" stroke="midnightblue" d="M1183,-10C1227.94,-10 1283.62,-10 1325.99,-10"/>
<polygon fill="midnightblue" stroke="midnightblue" points="1183,-6.5 1173,-10 1183,-13.5 1183,-6.5"/>
</g>
</g>
</svg>
