<?xml version="1.0" encoding="UTF-8" standalone="no"?>
<!DOCTYPE svg PUBLIC "-//W3C//DTD SVG 1.1//EN"
 "http://www.w3.org/Graphics/SVG/1.1/DTD/svg11.dtd">
<!-- Generated by graphviz version 2.43.0 (0)
 -->
<!-- Title: itk::PolygonGroupSpatialObjectXMLFileReader Pages: 1 -->
<svg width="3037pt" height="914pt"
 viewBox="0.00 0.00 3037.00 913.50" xmlns="http://www.w3.org/2000/svg" xmlns:xlink="http://www.w3.org/1999/xlink">
<g id="graph0" class="graph" transform="scale(1 1) rotate(0) translate(4 909.5)">
<title>itk::PolygonGroupSpatialObjectXMLFileReader</title>
<polygon fill="white" stroke="transparent" points="-4,4 -4,-909.5 3033,-909.5 3033,4 -4,4"/>
<!-- Node1 -->
<g id="node1" class="node">
<title>Node1</title>
<g id="a_node1"><a xlink:title=" ">
<polygon fill="#bfbfbf" stroke="black" points="2892,-121.5 2892,-151.5 3029,-151.5 3029,-121.5 2892,-121.5"/>
<text text-anchor="start" x="2900" y="-139.5" font-family="Helvetica,sans-Serif" font-size="10.00">itk::PolygonGroupSpatial</text>
<text text-anchor="middle" x="2960.5" y="-128.5" font-family="Helvetica,sans-Serif" font-size="10.00">ObjectXMLFileReader</text>
</a>
</g>
</g>
<!-- Node2 -->
<g id="node2" class="node">
<title>Node2</title>
<g id="a_node2"><a xlink:href="classitk_1_1XMLReader.html" target="_top" xlink:title=" ">
<polygon fill="white" stroke="black" points="2635,-359.5 2635,-389.5 2800,-389.5 2800,-359.5 2635,-359.5"/>
<text text-anchor="start" x="2643" y="-377.5" font-family="Helvetica,sans-Serif" font-size="10.00">itk::XMLReader&lt; GroupSpatial</text>
<text text-anchor="middle" x="2717.5" y="-366.5" font-family="Helvetica,sans-Serif" font-size="10.00">Object&lt; 3 &gt; &gt;</text>
</a>
</g>
</g>
<!-- Node2&#45;&gt;Node1 -->
<g id="edge1" class="edge">
<title>Node2&#45;&gt;Node1</title>
<path fill="none" stroke="midnightblue" d="M2741.17,-352.11C2789.79,-304.09 2903.02,-192.28 2944.19,-151.62"/>
<polygon fill="midnightblue" stroke="midnightblue" points="2738.6,-349.73 2733.94,-359.25 2743.52,-354.71 2738.6,-349.73"/>
</g>
<!-- Node3 -->
<g id="node3" class="node">
<title>Node3</title>
<g id="a_node3"><a xlink:href="classitk_1_1XMLReaderBase.html" target="_top" xlink:title=" ">
<polygon fill="white" stroke="black" points="1920.5,-597 1920.5,-616 2035.5,-616 2035.5,-597 1920.5,-597"/>
<text text-anchor="middle" x="1978" y="-604" font-family="Helvetica,sans-Serif" font-size="10.00">itk::XMLReaderBase</text>
</a>
</g>
</g>
<!-- Node3&#45;&gt;Node2 -->
<g id="edge2" class="edge">
<title>Node3&#45;&gt;Node2</title>
<path fill="none" stroke="midnightblue" d="M2018.92,-593.94C2144.73,-554.37 2532.66,-432.33 2668.73,-389.53"/>
<polygon fill="midnightblue" stroke="midnightblue" points="2017.77,-590.63 2009.29,-596.97 2019.88,-597.31 2017.77,-590.63"/>
</g>
<!-- Node4 -->
<g id="node4" class="node">
<title>Node4</title>
<g id="a_node4"><a xlink:href="classitk_1_1LightProcessObject.html" target="_top" xlink:title="LightProcessObject is the base class for all process objects (source, filters, mappers) in the Insigh...">
<polygon fill="white" stroke="black" points="1598,-739 1598,-758 1726,-758 1726,-739 1598,-739"/>
<text text-anchor="middle" x="1662" y="-746" font-family="Helvetica,sans-Serif" font-size="10.00">itk::LightProcessObject</text>
</a>
</g>
</g>
<!-- Node4&#45;&gt;Node3 -->
<g id="edge3" class="edge">
<title>Node4&#45;&gt;Node3</title>
<path fill="none" stroke="midnightblue" d="M1693.53,-734.69C1756.84,-706.06 1901.07,-640.84 1955.59,-616.18"/>
<polygon fill="midnightblue" stroke="midnightblue" points="1691.76,-731.65 1684.09,-738.96 1694.64,-738.03 1691.76,-731.65"/>
</g>
<!-- Node5 -->
<g id="node5" class="node">
<title>Node5</title>
<g id="a_node5"><a xlink:href="classitk_1_1Object.html" target="_top" xlink:title="Base class for most ITK classes.">
<polygon fill="white" stroke="black" points="1287,-790 1287,-809 1354,-809 1354,-790 1287,-790"/>
<text text-anchor="middle" x="1320.5" y="-797" font-family="Helvetica,sans-Serif" font-size="10.00">itk::Object</text>
</a>
</g>
</g>
<!-- Node5&#45;&gt;Node4 -->
<g id="edge4" class="edge">
<title>Node5&#45;&gt;Node4</title>
<path fill="none" stroke="midnightblue" d="M1364.13,-800.34C1410.91,-800.47 1488,-798.35 1553,-785.5 1583.53,-779.46 1617.23,-766.91 1638.73,-758.11"/>
<polygon fill="midnightblue" stroke="midnightblue" points="1364.08,-796.84 1354.06,-800.27 1364.03,-803.84 1364.08,-796.84"/>
</g>
<!-- Node21 -->
<g id="node21" class="node">
<title>Node21</title>
<g id="a_node21"><a xlink:href="classitk_1_1DataObject.html" target="_top" xlink:title="Base class for all data objects in ITK.">
<polygon fill="white" stroke="black" points="1617,-650 1617,-669 1707,-669 1707,-650 1617,-650"/>
<text text-anchor="middle" x="1662" y="-657" font-family="Helvetica,sans-Serif" font-size="10.00">itk::DataObject</text>
</a>
</g>
</g>
<!-- Node5&#45;&gt;Node21 -->
<g id="edge23" class="edge">
<title>Node5&#45;&gt;Node21</title>
<path fill="none" stroke="midnightblue" d="M1364.17,-794.3C1426.76,-786.38 1537.73,-771.08 1553,-760.5 1566.1,-751.43 1560.52,-741.5 1571,-729.5 1593.27,-704.01 1625.94,-681.34 1645.19,-669.09"/>
<polygon fill="midnightblue" stroke="midnightblue" points="1363.67,-790.83 1354.19,-795.55 1364.55,-797.78 1363.67,-790.83"/>
</g>
<!-- Node6 -->
<g id="node6" class="node">
<title>Node6</title>
<g id="a_node6"><a xlink:href="classitk_1_1LightObject.html" target="_top" xlink:title="Light weight base class for most itk classes.">
<polygon fill="white" stroke="black" points="941,-885 941,-904 1032,-904 1032,-885 941,-885"/>
<text text-anchor="middle" x="986.5" y="-892" font-family="Helvetica,sans-Serif" font-size="10.00">itk::LightObject</text>
</a>
</g>
</g>
<!-- Node6&#45;&gt;Node5 -->
<g id="edge5" class="edge">
<title>Node6&#45;&gt;Node5</title>
<path fill="none" stroke="midnightblue" d="M1042.31,-887.6C1089.01,-880.79 1157.51,-868.6 1215,-849.5 1247.26,-838.78 1282.47,-820.43 1302.67,-809.19"/>
<polygon fill="midnightblue" stroke="midnightblue" points="1041.8,-884.14 1032.39,-889.01 1042.78,-891.07 1041.8,-884.14"/>
</g>
<!-- Node7 -->
<g id="node7" class="node">
<title>Node7</title>
<g id="a_node7"><a xlink:title=" ">
<polygon fill="white" stroke="black" points="655.5,-885 655.5,-904 762.5,-904 762.5,-885 655.5,-885"/>
<text text-anchor="middle" x="709" y="-892" font-family="Helvetica,sans-Serif" font-size="10.00">std::atomic&lt; int &gt;</text>
</a>
</g>
</g>
<!-- Node7&#45;&gt;Node6 -->
<g id="edge6" class="edge">
<title>Node7&#45;&gt;Node6</title>
<path fill="none" stroke="#9a32cd" stroke-dasharray="5,2" d="M773.07,-894.5C824.24,-894.5 895.1,-894.5 940.63,-894.5"/>
<polygon fill="#9a32cd" stroke="#9a32cd" points="772.79,-891 762.79,-894.5 772.79,-898 772.79,-891"/>
<text text-anchor="middle" x="842.5" y="-897.5" font-family="Helvetica,sans-Serif" font-size="10.00"> m_ReferenceCount</text>
</g>
<!-- Node8 -->
<g id="node8" class="node">
<title>Node8</title>
<g id="a_node8"><a xlink:href="classitk_1_1TimeStamp.html" target="_top" xlink:title="Generate a unique, increasing time value.">
<polygon fill="white" stroke="black" points="940.5,-744 940.5,-763 1032.5,-763 1032.5,-744 940.5,-744"/>
<text text-anchor="middle" x="986.5" y="-751" font-family="Helvetica,sans-Serif" font-size="10.00">itk::TimeStamp</text>
</a>
</g>
</g>
<!-- Node8&#45;&gt;Node5 -->
<g id="edge7" class="edge">
<title>Node8&#45;&gt;Node5</title>
<path fill="none" stroke="#9a32cd" stroke-dasharray="5,2" d="M1042.91,-760.94C1088.99,-767.15 1156.28,-776.28 1215,-784.5 1238.96,-787.85 1265.99,-791.74 1286.56,-794.71"/>
<polygon fill="#9a32cd" stroke="#9a32cd" points="1043.21,-757.45 1032.84,-759.58 1042.28,-764.38 1043.21,-757.45"/>
<text text-anchor="middle" x="1148.5" y="-787.5" font-family="Helvetica,sans-Serif" font-size="10.00"> m_MTime</text>
</g>
<!-- Node8&#45;&gt;Node21 -->
<g id="edge26" class="edge">
<title>Node8&#45;&gt;Node21</title>
<path fill="none" stroke="#9a32cd" stroke-dasharray="5,2" d="M1042.88,-755.13C1145.41,-756.76 1370.94,-753.87 1553,-705.5 1585.89,-696.76 1621.83,-679.85 1642.84,-669.14"/>
<polygon fill="#9a32cd" stroke="#9a32cd" points="1042.82,-751.63 1032.76,-754.95 1042.7,-758.63 1042.82,-751.63"/>
<text text-anchor="middle" x="1320.5" y="-753.5" font-family="Helvetica,sans-Serif" font-size="10.00"> m_UpdateMTime</text>
</g>
<!-- Node9 -->
<g id="node9" class="node">
<title>Node9</title>
<g id="a_node9"><a xlink:title=" ">
<polygon fill="white" stroke="black" points="233,-744 233,-763 333,-763 333,-744 233,-744"/>
<text text-anchor="middle" x="283" y="-751" font-family="Helvetica,sans-Serif" font-size="10.00">std::atomic&lt; T &gt;</text>
</a>
</g>
</g>
<!-- Node9&#45;&gt;Node8 -->
<g id="edge8" class="edge">
<title>Node9&#45;&gt;Node8</title>
<path fill="none" stroke="#9a32cd" stroke-dasharray="5,2" d="M343.37,-753.5C480.73,-753.5 818.04,-753.5 940.31,-753.5"/>
<polygon fill="#9a32cd" stroke="#9a32cd" points="343.05,-750 333.05,-753.5 343.05,-757 343.05,-750"/>
<text text-anchor="middle" x="571" y="-756.5" font-family="Helvetica,sans-Serif" font-size="10.00"> m_GlobalTimeStamp</text>
</g>
<!-- Node10 -->
<g id="node10" class="node">
<title>Node10</title>
<g id="a_node10"><a xlink:title=" ">
<polygon fill="white" stroke="black" points="0,-759 0,-778 29,-778 29,-759 0,-759"/>
<text text-anchor="middle" x="14.5" y="-766" font-family="Helvetica,sans-Serif" font-size="10.00">T</text>
</a>
</g>
</g>
<!-- Node10&#45;&gt;Node9 -->
<g id="edge9" class="edge">
<title>Node10&#45;&gt;Node9</title>
<path fill="none" stroke="#9a32cd" stroke-dasharray="5,2" d="M39.06,-761.92C41.72,-761.36 44.41,-760.86 47,-760.5 110.66,-751.58 184.94,-750.98 232.68,-751.85"/>
<polygon fill="#9a32cd" stroke="#9a32cd" points="38.06,-758.57 29.17,-764.33 39.71,-765.37 38.06,-758.57"/>
<text text-anchor="middle" x="71.5" y="-763.5" font-family="Helvetica,sans-Serif" font-size="10.00"> ptr</text>
</g>
<!-- Node15 -->
<g id="node15" class="node">
<title>Node15</title>
<g id="a_node15"><a xlink:title=" ">
<polygon fill="white" stroke="black" points="114,-792 114,-811 215,-811 215,-792 114,-792"/>
<text text-anchor="middle" x="164.5" y="-799" font-family="Helvetica,sans-Serif" font-size="10.00">std::map&lt; K, T &gt;</text>
</a>
</g>
</g>
<!-- Node10&#45;&gt;Node15 -->
<g id="edge16" class="edge">
<title>Node10&#45;&gt;Node15</title>
<path fill="none" stroke="#9a32cd" stroke-dasharray="5,2" d="M38.92,-773.72C60.82,-778.61 94.06,-786.02 120.69,-791.96"/>
<polygon fill="#9a32cd" stroke="#9a32cd" points="39.68,-770.31 29.16,-771.55 38.16,-777.14 39.68,-770.31"/>
<text text-anchor="middle" x="71.5" y="-788.5" font-family="Helvetica,sans-Serif" font-size="10.00"> elements</text>
</g>
<!-- Node11 -->
<g id="node11" class="node">
<title>Node11</title>
<g id="a_node11"><a xlink:title=" ">
<polygon fill="white" stroke="black" points="918,-835.5 918,-865.5 1055,-865.5 1055,-835.5 918,-835.5"/>
<text text-anchor="start" x="926" y="-853.5" font-family="Helvetica,sans-Serif" font-size="10.00">std::unique_ptr&lt; Subject</text>
<text text-anchor="middle" x="986.5" y="-842.5" font-family="Helvetica,sans-Serif" font-size="10.00">Implementation &gt;</text>
</a>
</g>
</g>
<!-- Node11&#45;&gt;Node5 -->
<g id="edge10" class="edge">
<title>Node11&#45;&gt;Node5</title>
<path fill="none" stroke="#9a32cd" stroke-dasharray="5,2" d="M1065.24,-838.56C1135.59,-827.75 1235.75,-812.37 1286.82,-804.52"/>
<polygon fill="#9a32cd" stroke="#9a32cd" points="1064.44,-835.14 1055.09,-840.12 1065.5,-842.06 1064.44,-835.14"/>
<text text-anchor="middle" x="1148.5" y="-837.5" font-family="Helvetica,sans-Serif" font-size="10.00"> m_SubjectImplementation</text>
</g>
<!-- Node12 -->
<g id="node12" class="node">
<title>Node12</title>
<g id="a_node12"><a xlink:title=" ">
<polygon fill="white" stroke="black" points="920.5,-786.5 920.5,-816.5 1052.5,-816.5 1052.5,-786.5 920.5,-786.5"/>
<text text-anchor="start" x="928.5" y="-804.5" font-family="Helvetica,sans-Serif" font-size="10.00">std::unique_ptr&lt; itk</text>
<text text-anchor="middle" x="986.5" y="-793.5" font-family="Helvetica,sans-Serif" font-size="10.00">::MetaDataDictionary &gt;</text>
</a>
</g>
</g>
<!-- Node12&#45;&gt;Node5 -->
<g id="edge11" class="edge">
<title>Node12&#45;&gt;Node5</title>
<path fill="none" stroke="#9a32cd" stroke-dasharray="5,2" d="M1062.85,-801.05C1133.27,-800.62 1235.09,-800.01 1286.76,-799.7"/>
<polygon fill="#9a32cd" stroke="#9a32cd" points="1062.68,-797.55 1052.7,-801.11 1062.72,-804.55 1062.68,-797.55"/>
<text text-anchor="middle" x="1148.5" y="-803.5" font-family="Helvetica,sans-Serif" font-size="10.00"> m_MetaDataDictionary</text>
</g>
<!-- Node13 -->
<g id="node13" class="node">
<title>Node13</title>
<g id="a_node13"><a xlink:href="classitk_1_1MetaDataDictionary.html" target="_top" xlink:title="Provides a mechanism for storing a collection of arbitrary data types.">
<polygon fill="white" stroke="black" points="642,-792 642,-811 776,-811 776,-792 642,-792"/>
<text text-anchor="middle" x="709" y="-799" font-family="Helvetica,sans-Serif" font-size="10.00">itk::MetaDataDictionary</text>
</a>
</g>
</g>
<!-- Node13&#45;&gt;Node12 -->
<g id="edge12" class="edge">
<title>Node13&#45;&gt;Node12</title>
<path fill="none" stroke="#9a32cd" stroke-dasharray="5,2" d="M786.53,-801.5C828.55,-801.5 880.11,-801.5 920.21,-801.5"/>
<polygon fill="#9a32cd" stroke="#9a32cd" points="786.34,-798 776.34,-801.5 786.34,-805 786.34,-798"/>
<text text-anchor="middle" x="842.5" y="-804.5" font-family="Helvetica,sans-Serif" font-size="10.00"> ptr</text>
</g>
<!-- Node14 -->
<g id="node14" class="node">
<title>Node14</title>
<g id="a_node14"><a xlink:title=" ">
<polygon fill="white" stroke="black" points="351,-786.5 351,-816.5 500,-816.5 500,-786.5 351,-786.5"/>
<text text-anchor="start" x="359" y="-804.5" font-family="Helvetica,sans-Serif" font-size="10.00">std::shared_ptr&lt; MetaData</text>
<text text-anchor="middle" x="425.5" y="-793.5" font-family="Helvetica,sans-Serif" font-size="10.00">DictionaryMapType &gt;</text>
</a>
</g>
</g>
<!-- Node14&#45;&gt;Node13 -->
<g id="edge13" class="edge">
<title>Node14&#45;&gt;Node13</title>
<path fill="none" stroke="#9a32cd" stroke-dasharray="5,2" d="M510.29,-801.5C552.24,-801.5 602.31,-801.5 641.57,-801.5"/>
<polygon fill="#9a32cd" stroke="#9a32cd" points="510.09,-798 500.09,-801.5 510.09,-805 510.09,-798"/>
<text text-anchor="middle" x="571" y="-804.5" font-family="Helvetica,sans-Serif" font-size="10.00"> m_Dictionary</text>
</g>
<!-- Node15&#45;&gt;Node14 -->
<g id="edge14" class="edge">
<title>Node15&#45;&gt;Node14</title>
<path fill="none" stroke="#9a32cd" stroke-dasharray="5,2" d="M225.34,-801.5C262.61,-801.5 310.86,-801.5 350.52,-801.5"/>
<polygon fill="#9a32cd" stroke="#9a32cd" points="225.13,-798 215.13,-801.5 225.13,-805 225.13,-798"/>
<text text-anchor="middle" x="283" y="-804.5" font-family="Helvetica,sans-Serif" font-size="10.00"> ptr</text>
</g>
<!-- Node16 -->
<g id="node16" class="node">
<title>Node16</title>
<g id="a_node16"><a xlink:title=" ">
<polygon fill="white" stroke="black" points="0,-812 0,-831 29,-831 29,-812 0,-812"/>
<text text-anchor="middle" x="14.5" y="-819" font-family="Helvetica,sans-Serif" font-size="10.00">K</text>
</a>
</g>
</g>
<!-- Node16&#45;&gt;Node15 -->
<g id="edge15" class="edge">
<title>Node16&#45;&gt;Node15</title>
<path fill="none" stroke="#9a32cd" stroke-dasharray="5,2" d="M39.24,-818.29C59.28,-815.58 88.63,-811.62 113.78,-808.22"/>
<polygon fill="#9a32cd" stroke="#9a32cd" points="38.6,-814.85 29.16,-819.65 39.54,-821.78 38.6,-814.85"/>
<text text-anchor="middle" x="71.5" y="-819.5" font-family="Helvetica,sans-Serif" font-size="10.00"> keys</text>
</g>
<!-- Node17 -->
<g id="node17" class="node">
<title>Node17</title>
<g id="a_node17"><a xlink:title=" ">
<polygon fill="white" stroke="black" points="954,-330 954,-349 1019,-349 1019,-330 954,-330"/>
<text text-anchor="middle" x="986.5" y="-337" font-family="Helvetica,sans-Serif" font-size="10.00">std::string</text>
</a>
</g>
</g>
<!-- Node17&#45;&gt;Node1 -->
<g id="edge62" class="edge">
<title>Node17&#45;&gt;Node1</title>
<path fill="none" stroke="#9a32cd" stroke-dasharray="5,2" d="M993.74,-320C1005.34,-287.2 1033.57,-221.53 1082,-190.5 1171.68,-133.05 1212.99,-158.5 1319.5,-158.5 1319.5,-158.5 1319.5,-158.5 2718.5,-158.5 2777.21,-158.5 2843.64,-151.94 2891.87,-145.99"/>
<polygon fill="#9a32cd" stroke="#9a32cd" points="990.32,-319.18 990.44,-329.77 996.95,-321.42 990.32,-319.18"/>
<text text-anchor="middle" x="2130.5" y="-161.5" font-family="Helvetica,sans-Serif" font-size="10.00"> m_CurCharacterData</text>
</g>
<!-- Node17&#45;&gt;Node3 -->
<g id="edge19" class="edge">
<title>Node17&#45;&gt;Node3</title>
<path fill="none" stroke="#9a32cd" stroke-dasharray="5,2" d="M1000.77,-357.24C1034.09,-400.12 1126.31,-508.9 1233,-549.5 1358.54,-597.28 1768.9,-605.05 1920.26,-606.28"/>
<polygon fill="#9a32cd" stroke="#9a32cd" points="1003.43,-354.95 994.57,-349.13 997.87,-359.2 1003.43,-354.95"/>
<text text-anchor="middle" x="1489.5" y="-596.5" font-family="Helvetica,sans-Serif" font-size="10.00"> m_Filename</text>
</g>
<!-- Node17&#45;&gt;Node5 -->
<g id="edge17" class="edge">
<title>Node17&#45;&gt;Node5</title>
<path fill="none" stroke="#9a32cd" stroke-dasharray="5,2" d="M992.05,-358.93C1009.27,-432.19 1070.09,-688.27 1082,-701.5 1124.27,-748.42 1159.36,-721.64 1215,-751.5 1223.7,-756.17 1224.36,-759.73 1233,-764.5 1251.57,-774.77 1273.79,-783.69 1291.05,-789.96"/>
<polygon fill="#9a32cd" stroke="#9a32cd" points="995.44,-358.08 989.75,-349.15 988.63,-359.68 995.44,-358.08"/>
<text text-anchor="middle" x="1148.5" y="-754.5" font-family="Helvetica,sans-Serif" font-size="10.00"> m_ObjectName</text>
</g>
<!-- Node20 -->
<g id="node20" class="node">
<title>Node20</title>
<g id="a_node20"><a xlink:href="classitk_1_1SpatialObject.html" target="_top" xlink:title=" ">
<polygon fill="white" stroke="black" points="2220,-359.5 2220,-389.5 2321,-389.5 2321,-359.5 2220,-359.5"/>
<text text-anchor="start" x="2228" y="-377.5" font-family="Helvetica,sans-Serif" font-size="10.00">itk::SpatialObject</text>
<text text-anchor="middle" x="2270.5" y="-366.5" font-family="Helvetica,sans-Serif" font-size="10.00">&lt; TDimension &gt;</text>
</a>
</g>
</g>
<!-- Node17&#45;&gt;Node20 -->
<g id="edge29" class="edge">
<title>Node17&#45;&gt;Node20</title>
<path fill="none" stroke="#9a32cd" stroke-dasharray="5,2" d="M1015.74,-325.5C1034.14,-317.05 1058.94,-306.9 1082,-301.5 1372.84,-233.42 1455.19,-240.42 1753,-263.5 1954.36,-279.1 2012.3,-264.2 2202,-333.5 2219,-339.71 2236.41,-350.42 2249.3,-359.33"/>
<polygon fill="#9a32cd" stroke="#9a32cd" points="1014.04,-322.43 1006.48,-329.86 1017.02,-328.77 1014.04,-322.43"/>
<text text-anchor="middle" x="1662" y="-266.5" font-family="Helvetica,sans-Serif" font-size="10.00"> m_TypeName</text>
</g>
<!-- Node17&#45;&gt;Node21 -->
<g id="edge25" class="edge">
<title>Node17&#45;&gt;Node21</title>
<path fill="none" stroke="#9a32cd" stroke-dasharray="5,2" d="M988.68,-359.31C992.65,-406.51 1009.71,-525.93 1082,-582.5 1139.52,-627.52 1335.6,-614.83 1408,-624.5 1481.18,-634.28 1566.19,-646.14 1616.69,-653.24"/>
<polygon fill="#9a32cd" stroke="#9a32cd" points="992.16,-358.9 987.94,-349.18 985.18,-359.4 992.16,-358.9"/>
<text text-anchor="middle" x="1320.5" y="-627.5" font-family="Helvetica,sans-Serif" font-size="10.00"> m_SourceOutputName</text>
</g>
<!-- Node25 -->
<g id="node25" class="node">
<title>Node25</title>
<g id="a_node25"><a xlink:href="classitk_1_1SpatialObjectProperty.html" target="_top" xlink:title=" ">
<polygon fill="white" stroke="black" points="1591,-284 1591,-303 1733,-303 1733,-284 1591,-284"/>
<text text-anchor="middle" x="1662" y="-291" font-family="Helvetica,sans-Serif" font-size="10.00">itk::SpatialObjectProperty</text>
</a>
</g>
</g>
<!-- Node17&#45;&gt;Node25 -->
<g id="edge34" class="edge">
<title>Node17&#45;&gt;Node25</title>
<path fill="none" stroke="#9a32cd" stroke-dasharray="5,2" d="M1029.3,-332.03C1078.02,-323.68 1161.06,-310.53 1233,-304.5 1358.73,-293.96 1505.91,-292.56 1590.8,-292.81"/>
<polygon fill="#9a32cd" stroke="#9a32cd" points="1028.4,-328.64 1019.15,-333.79 1029.6,-335.53 1028.4,-328.64"/>
<text text-anchor="middle" x="1320.5" y="-307.5" font-family="Helvetica,sans-Serif" font-size="10.00"> m_Name</text>
</g>
<!-- Node29 -->
<g id="node29" class="node">
<title>Node29</title>
<g id="a_node29"><a xlink:title=" ">
<polygon fill="white" stroke="black" points="1259.5,-189.5 1259.5,-219.5 1381.5,-219.5 1381.5,-189.5 1259.5,-189.5"/>
<text text-anchor="start" x="1267.5" y="-207.5" font-family="Helvetica,sans-Serif" font-size="10.00">std::map&lt; std::string,</text>
<text text-anchor="middle" x="1320.5" y="-196.5" font-family="Helvetica,sans-Serif" font-size="10.00"> double &gt;</text>
</a>
</g>
</g>
<!-- Node17&#45;&gt;Node29 -->
<g id="edge36" class="edge">
<title>Node17&#45;&gt;Node29</title>
<path fill="none" stroke="#9a32cd" stroke-dasharray="5,2" d="M996.59,-320.65C1010.7,-293.76 1040.6,-245.24 1082,-223.5 1136.93,-194.66 1209.03,-193.09 1259.32,-196.74"/>
<polygon fill="#9a32cd" stroke="#9a32cd" points="993.36,-319.29 991.97,-329.79 999.61,-322.45 993.36,-319.29"/>
<text text-anchor="middle" x="1148.5" y="-226.5" font-family="Helvetica,sans-Serif" font-size="10.00"> keys</text>
</g>
<!-- Node30 -->
<g id="node30" class="node">
<title>Node30</title>
<g id="a_node30"><a xlink:title=" ">
<polygon fill="white" stroke="black" points="1259.5,-324.5 1259.5,-354.5 1381.5,-354.5 1381.5,-324.5 1259.5,-324.5"/>
<text text-anchor="start" x="1267.5" y="-342.5" font-family="Helvetica,sans-Serif" font-size="10.00">std::map&lt; std::string,</text>
<text text-anchor="middle" x="1320.5" y="-331.5" font-family="Helvetica,sans-Serif" font-size="10.00"> std::string &gt;</text>
</a>
</g>
</g>
<!-- Node17&#45;&gt;Node30 -->
<g id="edge38" class="edge">
<title>Node17&#45;&gt;Node30</title>
<path fill="none" stroke="#9a32cd" stroke-dasharray="5,2" d="M1029.31,-339.5C1087.44,-339.5 1192.98,-339.5 1259.5,-339.5"/>
<polygon fill="#9a32cd" stroke="#9a32cd" points="1029.03,-336 1019.03,-339.5 1029.03,-343 1029.03,-336"/>
<text text-anchor="middle" x="1148.5" y="-353.5" font-family="Helvetica,sans-Serif" font-size="10.00"> elements</text>
<text text-anchor="middle" x="1148.5" y="-342.5" font-family="Helvetica,sans-Serif" font-size="10.00">keys</text>
</g>
<!-- Node31 -->
<g id="node31" class="node">
<title>Node31</title>
<g id="a_node31"><a xlink:href="classitk_1_1SpatialObject.html" target="_top" xlink:title="Implementation of the composite pattern.">
<polygon fill="white" stroke="black" points="1927.5,-415.5 1927.5,-445.5 2028.5,-445.5 2028.5,-415.5 1927.5,-415.5"/>
<text text-anchor="start" x="1935.5" y="-433.5" font-family="Helvetica,sans-Serif" font-size="10.00">itk::SpatialObject</text>
<text text-anchor="middle" x="1978" y="-422.5" font-family="Helvetica,sans-Serif" font-size="10.00">&lt; VDimension &gt;</text>
</a>
</g>
</g>
<!-- Node17&#45;&gt;Node31 -->
<g id="edge41" class="edge">
<title>Node17&#45;&gt;Node31</title>
<path fill="none" stroke="#9a32cd" stroke-dasharray="5,2" d="M1011.24,-354.56C1053.71,-380.51 1146.39,-432.68 1233,-451.5 1302.5,-466.6 1561.55,-478.75 1897,-445.5 1906.84,-444.52 1917.29,-442.96 1927.26,-441.2"/>
<polygon fill="#9a32cd" stroke="#9a32cd" points="1012.83,-351.43 1002.49,-349.14 1009.15,-357.38 1012.83,-351.43"/>
<text text-anchor="middle" x="1489.5" y="-469.5" font-family="Helvetica,sans-Serif" font-size="10.00"> m_TypeName</text>
</g>
<!-- Node18 -->
<g id="node18" class="node">
<title>Node18</title>
<g id="a_node18"><a xlink:title=" ">
<polygon fill="white" stroke="black" points="657,-324.5 657,-354.5 761,-354.5 761,-324.5 657,-324.5"/>
<text text-anchor="start" x="665" y="-342.5" font-family="Helvetica,sans-Serif" font-size="10.00">std::basic_string&lt;</text>
<text text-anchor="middle" x="709" y="-331.5" font-family="Helvetica,sans-Serif" font-size="10.00"> Char &gt;</text>
</a>
</g>
</g>
<!-- Node18&#45;&gt;Node17 -->
<g id="edge18" class="edge">
<title>Node18&#45;&gt;Node17</title>
<path fill="none" stroke="midnightblue" d="M771.42,-339.5C827.96,-339.5 909.57,-339.5 953.91,-339.5"/>
<polygon fill="midnightblue" stroke="midnightblue" points="771.17,-336 761.17,-339.5 771.17,-343 771.17,-336"/>
</g>
<!-- Node19 -->
<g id="node19" class="node">
<title>Node19</title>
<g id="a_node19"><a xlink:href="classitk_1_1GroupSpatialObject.html" target="_top" xlink:title=" ">
<polygon fill="white" stroke="black" points="2358,-365 2358,-384 2516,-384 2516,-365 2358,-365"/>
<text text-anchor="middle" x="2437" y="-372" font-family="Helvetica,sans-Serif" font-size="10.00">itk::GroupSpatialObject&lt; 3 &gt;</text>
</a>
</g>
</g>
<!-- Node19&#45;&gt;Node2 -->
<g id="edge20" class="edge">
<title>Node19&#45;&gt;Node2</title>
<path fill="none" stroke="#9a32cd" stroke-dasharray="5,2" d="M2526.46,-374.5C2561.2,-374.5 2600.84,-374.5 2634.89,-374.5"/>
<polygon fill="#9a32cd" stroke="#9a32cd" points="2526.32,-371 2516.32,-374.5 2526.32,-378 2526.32,-371"/>
<text text-anchor="middle" x="2575.5" y="-377.5" font-family="Helvetica,sans-Serif" font-size="10.00"> m_OutputObject</text>
</g>
<!-- Node20&#45;&gt;Node19 -->
<g id="edge21" class="edge">
<title>Node20&#45;&gt;Node19</title>
<path fill="none" stroke="midnightblue" d="M2331.53,-374.5C2340.08,-374.5 2348.98,-374.5 2357.82,-374.5"/>
<polygon fill="midnightblue" stroke="midnightblue" points="2331.3,-371 2321.3,-374.5 2331.3,-378 2331.3,-371"/>
</g>
<!-- Node21&#45;&gt;Node20 -->
<g id="edge22" class="edge">
<title>Node21&#45;&gt;Node20</title>
<path fill="none" stroke="midnightblue" d="M1708.91,-647.23C1823.92,-615.89 2120.98,-531.02 2202,-469.5 2230.68,-447.72 2252.11,-410.3 2262.51,-389.52"/>
<polygon fill="midnightblue" stroke="midnightblue" points="1707.73,-643.92 1699,-649.92 1709.57,-650.68 1707.73,-643.92"/>
</g>
<!-- Node21&#45;&gt;Node31 -->
<g id="edge40" class="edge">
<title>Node21&#45;&gt;Node31</title>
<path fill="none" stroke="midnightblue" d="M1677.16,-641.96C1696.35,-619.16 1732.65,-579.33 1771,-554.5 1821.57,-521.76 1846.02,-536.61 1897,-504.5 1923.41,-487.86 1949.01,-461.93 1963.87,-445.6"/>
<polygon fill="midnightblue" stroke="midnightblue" points="1674.35,-639.86 1670.67,-649.8 1679.75,-644.33 1674.35,-639.86"/>
</g>
<!-- Node22 -->
<g id="node22" class="node">
<title>Node22</title>
<g id="a_node22"><a xlink:href="classitk_1_1WeakPointer.html" target="_top" xlink:title=" ">
<polygon fill="white" stroke="black" points="1260,-644.5 1260,-674.5 1381,-674.5 1381,-644.5 1260,-644.5"/>
<text text-anchor="start" x="1268" y="-662.5" font-family="Helvetica,sans-Serif" font-size="10.00">itk::WeakPointer&lt; itk</text>
<text text-anchor="middle" x="1320.5" y="-651.5" font-family="Helvetica,sans-Serif" font-size="10.00">::ProcessObject &gt;</text>
</a>
</g>
</g>
<!-- Node22&#45;&gt;Node21 -->
<g id="edge24" class="edge">
<title>Node22&#45;&gt;Node21</title>
<path fill="none" stroke="#9a32cd" stroke-dasharray="5,2" d="M1391.18,-659.5C1458.9,-659.5 1559.66,-659.5 1616.96,-659.5"/>
<polygon fill="#9a32cd" stroke="#9a32cd" points="1391.02,-656 1381.02,-659.5 1391.02,-663 1391.02,-656"/>
<text text-anchor="middle" x="1489.5" y="-662.5" font-family="Helvetica,sans-Serif" font-size="10.00"> m_Source</text>
</g>
<!-- Node23 -->
<g id="node23" class="node">
<title>Node23</title>
<g id="a_node23"><a xlink:href="classitk_1_1RealTimeStamp.html" target="_top" xlink:title="The RealTimeStamp is a data structure for representing time with high precision and a large dynamic r...">
<polygon fill="white" stroke="black" points="1264,-694 1264,-713 1377,-713 1377,-694 1264,-694"/>
<text text-anchor="middle" x="1320.5" y="-701" font-family="Helvetica,sans-Serif" font-size="10.00">itk::RealTimeStamp</text>
</a>
</g>
</g>
<!-- Node23&#45;&gt;Node21 -->
<g id="edge27" class="edge">
<title>Node23&#45;&gt;Node21</title>
<path fill="none" stroke="#9a32cd" stroke-dasharray="5,2" d="M1387.4,-695.48C1433.74,-689.79 1497.19,-681.87 1553,-674.5 1574.02,-671.72 1597.32,-668.51 1616.88,-665.76"/>
<polygon fill="#9a32cd" stroke="#9a32cd" points="1386.69,-692.04 1377.19,-696.74 1387.54,-698.99 1386.69,-692.04"/>
<text text-anchor="middle" x="1489.5" y="-693.5" font-family="Helvetica,sans-Serif" font-size="10.00"> m_RealTimeStamp</text>
</g>
<!-- Node24 -->
<g id="node24" class="node">
<title>Node24</title>
<g id="a_node24"><a xlink:title=" ">
<polygon fill="white" stroke="black" points="958.5,-669 958.5,-688 1014.5,-688 1014.5,-669 958.5,-669"/>
<text text-anchor="middle" x="986.5" y="-676" font-family="Helvetica,sans-Serif" font-size="10.00">uint64_t</text>
</a>
</g>
</g>
<!-- Node24&#45;&gt;Node23 -->
<g id="edge28" class="edge">
<title>Node24&#45;&gt;Node23</title>
<path fill="none" stroke="#9a32cd" stroke-dasharray="5,2" d="M1024.85,-675.64C1070.1,-672.86 1148.54,-670.29 1215,-679.5 1223.22,-680.64 1224.94,-682.5 1233,-684.5 1246.13,-687.76 1260.46,-691.03 1273.6,-693.91"/>
<polygon fill="#9a32cd" stroke="#9a32cd" points="1024.38,-672.16 1014.63,-676.3 1024.84,-679.15 1024.38,-672.16"/>
<text text-anchor="middle" x="1148.5" y="-693.5" font-family="Helvetica,sans-Serif" font-size="10.00"> m_MicroSeconds</text>
<text text-anchor="middle" x="1148.5" y="-682.5" font-family="Helvetica,sans-Serif" font-size="10.00">m_Seconds</text>
</g>
<!-- Node25&#45;&gt;Node20 -->
<g id="edge30" class="edge">
<title>Node25&#45;&gt;Node20</title>
<path fill="none" stroke="#9a32cd" stroke-dasharray="5,2" d="M1743.35,-300.89C1848.99,-311.16 2040.15,-331.67 2202,-359.5 2207.8,-360.5 2213.85,-361.66 2219.84,-362.89"/>
<polygon fill="#9a32cd" stroke="#9a32cd" points="1743.38,-297.37 1733.09,-299.89 1742.71,-304.34 1743.38,-297.37"/>
<text text-anchor="middle" x="1978" y="-337.5" font-family="Helvetica,sans-Serif" font-size="10.00"> m_Property</text>
</g>
<!-- Node25&#45;&gt;Node31 -->
<g id="edge42" class="edge">
<title>Node25&#45;&gt;Node31</title>
<path fill="none" stroke="#9a32cd" stroke-dasharray="5,2" d="M1701.61,-306.39C1717.63,-311.95 1736.33,-318.73 1753,-325.5 1818.23,-351.99 1833.35,-361.41 1897,-391.5 1913.34,-399.23 1931.46,-408.04 1946.31,-415.33"/>
<polygon fill="#9a32cd" stroke="#9a32cd" points="1702.62,-303.03 1692.02,-303.09 1700.34,-309.65 1702.62,-303.03"/>
<text text-anchor="middle" x="1834" y="-394.5" font-family="Helvetica,sans-Serif" font-size="10.00"> m_Property</text>
</g>
<!-- Node26 -->
<g id="node26" class="node">
<title>Node26</title>
<g id="a_node26"><a xlink:href="classitk_1_1RGBAPixel.html" target="_top" xlink:title=" ">
<polygon fill="white" stroke="black" points="1249.5,-99 1249.5,-118 1391.5,-118 1391.5,-99 1249.5,-99"/>
<text text-anchor="middle" x="1320.5" y="-106" font-family="Helvetica,sans-Serif" font-size="10.00">itk::RGBAPixel&lt; double &gt;</text>
</a>
</g>
</g>
<!-- Node26&#45;&gt;Node25 -->
<g id="edge31" class="edge">
<title>Node26&#45;&gt;Node25</title>
<path fill="none" stroke="#9a32cd" stroke-dasharray="5,2" d="M1343.36,-123.73C1363.88,-137.41 1395.84,-157.19 1426,-169.5 1479.89,-191.5 1511.36,-160.82 1553,-201.5 1574.44,-222.45 1550.03,-245.08 1571,-266.5 1578.65,-274.31 1588.45,-279.88 1598.77,-283.85"/>
<polygon fill="#9a32cd" stroke="#9a32cd" points="1345.29,-120.81 1335.05,-118.1 1341.37,-126.61 1345.29,-120.81"/>
<text text-anchor="middle" x="1489.5" y="-204.5" font-family="Helvetica,sans-Serif" font-size="10.00"> m_Color</text>
</g>
<!-- Node40 -->
<g id="node40" class="node">
<title>Node40</title>
<g id="a_node40"><a xlink:href="classitk_1_1SpatialObjectPoint.html" target="_top" xlink:title=" ">
<polygon fill="white" stroke="black" points="1585,-61 1585,-80 1739,-80 1739,-61 1585,-61"/>
<text text-anchor="middle" x="1662" y="-68" font-family="Helvetica,sans-Serif" font-size="10.00">itk::SpatialObjectPoint&lt; 3 &gt;</text>
</a>
</g>
</g>
<!-- Node26&#45;&gt;Node40 -->
<g id="edge59" class="edge">
<title>Node26&#45;&gt;Node40</title>
<path fill="none" stroke="#9a32cd" stroke-dasharray="5,2" d="M1401.97,-99.49C1457.34,-93.3 1530.42,-85.12 1584.84,-79.02"/>
<polygon fill="#9a32cd" stroke="#9a32cd" points="1401.39,-96.04 1391.84,-100.63 1402.17,-102.99 1401.39,-96.04"/>
<text text-anchor="middle" x="1489.5" y="-98.5" font-family="Helvetica,sans-Serif" font-size="10.00"> m_Color</text>
</g>
<!-- Node27 -->
<g id="node27" class="node">
<title>Node27</title>
<g id="a_node27"><a xlink:href="classitk_1_1FixedArray.html" target="_top" xlink:title=" ">
<polygon fill="white" stroke="black" points="909,-72 909,-91 1064,-91 1064,-72 909,-72"/>
<text text-anchor="middle" x="986.5" y="-79" font-family="Helvetica,sans-Serif" font-size="10.00">itk::FixedArray&lt; double, 4 &gt;</text>
</a>
</g>
</g>
<!-- Node27&#45;&gt;Node26 -->
<g id="edge32" class="edge">
<title>Node27&#45;&gt;Node26</title>
<path fill="none" stroke="midnightblue" d="M1074.09,-88.54C1128.63,-92.98 1198.14,-98.63 1249.25,-102.79"/>
<polygon fill="midnightblue" stroke="midnightblue" points="1074.34,-85.05 1064.08,-87.73 1073.77,-92.03 1074.34,-85.05"/>
</g>
<!-- Node28 -->
<g id="node28" class="node">
<title>Node28</title>
<g id="a_node28"><a xlink:href="classVLength.html" target="_top" xlink:title=" ">
<polygon fill="white" stroke="black" points="681,-49 681,-68 737,-68 737,-49 681,-49"/>
<text text-anchor="middle" x="709" y="-56" font-family="Helvetica,sans-Serif" font-size="10.00">VLength</text>
</a>
</g>
</g>
<!-- Node28&#45;&gt;Node27 -->
<g id="edge33" class="edge">
<title>Node28&#45;&gt;Node27</title>
<path fill="none" stroke="#9a32cd" stroke-dasharray="5,2" d="M747.31,-61.61C788.54,-65.06 856.07,-70.69 908.72,-75.09"/>
<polygon fill="#9a32cd" stroke="#9a32cd" points="747.43,-58.11 737.17,-60.77 746.84,-65.09 747.43,-58.11"/>
<text text-anchor="middle" x="842.5" y="-76.5" font-family="Helvetica,sans-Serif" font-size="10.00"> m_InternalArray</text>
</g>
<!-- Node42 -->
<g id="node42" class="node">
<title>Node42</title>
<g id="a_node42"><a xlink:href="classitk_1_1FixedArray.html" target="_top" xlink:title=" ">
<polygon fill="white" stroke="black" points="919.5,-16.5 919.5,-46.5 1053.5,-46.5 1053.5,-16.5 919.5,-16.5"/>
<text text-anchor="start" x="927.5" y="-34.5" font-family="Helvetica,sans-Serif" font-size="10.00">itk::FixedArray&lt; double,</text>
<text text-anchor="middle" x="986.5" y="-23.5" font-family="Helvetica,sans-Serif" font-size="10.00"> VPointDimension &gt;</text>
</a>
</g>
</g>
<!-- Node28&#45;&gt;Node42 -->
<g id="edge58" class="edge">
<title>Node28&#45;&gt;Node42</title>
<path fill="none" stroke="#9a32cd" stroke-dasharray="5,2" d="M747.16,-54.86C791.22,-50.54 865.47,-43.26 919.41,-37.98"/>
<polygon fill="#9a32cd" stroke="#9a32cd" points="746.78,-51.38 737.17,-55.84 747.46,-58.35 746.78,-51.38"/>
<text text-anchor="middle" x="842.5" y="-53.5" font-family="Helvetica,sans-Serif" font-size="10.00"> m_InternalArray</text>
</g>
<!-- Node29&#45;&gt;Node25 -->
<g id="edge35" class="edge">
<title>Node29&#45;&gt;Node25</title>
<path fill="none" stroke="#9a32cd" stroke-dasharray="5,2" d="M1392.02,-210.69C1439.29,-216.84 1501.97,-228.93 1553,-252.5 1562.2,-256.75 1561.99,-261.85 1571,-266.5 1585.5,-273.98 1602.4,-279.73 1617.62,-283.97"/>
<polygon fill="#9a32cd" stroke="#9a32cd" points="1392.23,-207.19 1381.88,-209.43 1391.37,-214.14 1392.23,-207.19"/>
<text text-anchor="middle" x="1489.5" y="-255.5" font-family="Helvetica,sans-Serif" font-size="10.00"> m_ScalarDictionary</text>
</g>
<!-- Node29&#45;&gt;Node40 -->
<g id="edge60" class="edge">
<title>Node29&#45;&gt;Node40</title>
<path fill="none" stroke="#9a32cd" stroke-dasharray="5,2" d="M1363.94,-185.17C1382.84,-176.73 1405.42,-166.87 1426,-158.5 1446.18,-150.29 1578.26,-101.2 1635.08,-80.11"/>
<polygon fill="#9a32cd" stroke="#9a32cd" points="1362.4,-182.02 1354.71,-189.31 1365.27,-188.41 1362.4,-182.02"/>
<text text-anchor="middle" x="1489.5" y="-161.5" font-family="Helvetica,sans-Serif" font-size="10.00"> m_ScalarDictionary</text>
</g>
<!-- Node30&#45;&gt;Node25 -->
<g id="edge37" class="edge">
<title>Node30&#45;&gt;Node25</title>
<path fill="none" stroke="#9a32cd" stroke-dasharray="5,2" d="M1392.03,-329.94C1450.27,-322.05 1532.52,-310.91 1590.7,-303.03"/>
<polygon fill="#9a32cd" stroke="#9a32cd" points="1391.24,-326.52 1381.8,-331.33 1392.18,-333.45 1391.24,-326.52"/>
<text text-anchor="middle" x="1489.5" y="-327.5" font-family="Helvetica,sans-Serif" font-size="10.00"> m_StringDictionary</text>
</g>
<!-- Node31&#45;&gt;Node20 -->
<g id="edge39" class="edge">
<title>Node31&#45;&gt;Node20</title>
<path fill="none" stroke="#9a32cd" stroke-dasharray="5,2" d="M2038.62,-419.01C2092.01,-408.71 2169.42,-393.79 2219.61,-384.12"/>
<polygon fill="#9a32cd" stroke="#9a32cd" points="2037.77,-415.61 2028.61,-420.94 2039.09,-422.48 2037.77,-415.61"/>
<text text-anchor="middle" x="2130.5" y="-416.5" font-family="Helvetica,sans-Serif" font-size="10.00"> m_Parent</text>
</g>
<!-- Node31&#45;&gt;Node31 -->
<g id="edge43" class="edge">
<title>Node31&#45;&gt;Node31</title>
<path fill="none" stroke="#9a32cd" stroke-dasharray="5,2" d="M1952.41,-455.96C1955.59,-460.68 1964.12,-464 1978,-464 2000.78,-464 2009.15,-455.06 2003.09,-445.66"/>
<polygon fill="#9a32cd" stroke="#9a32cd" points="1955.92,-455.81 1952.91,-445.66 1948.93,-455.48 1955.92,-455.81"/>
<text text-anchor="middle" x="1978" y="-467" font-family="Helvetica,sans-Serif" font-size="10.00"> m_Parent</text>
</g>
<!-- Node32 -->
<g id="node32" class="node">
<title>Node32</title>
<g id="a_node32"><a xlink:href="classitk_1_1ImageRegion.html" target="_top" xlink:title=" ">
<polygon fill="white" stroke="black" points="1598,-402 1598,-421 1726,-421 1726,-402 1598,-402"/>
<text text-anchor="middle" x="1662" y="-409" font-family="Helvetica,sans-Serif" font-size="10.00">itk::ImageRegion&lt; 3 &gt;</text>
</a>
</g>
</g>
<!-- Node32&#45;&gt;Node31 -->
<g id="edge44" class="edge">
<title>Node32&#45;&gt;Node31</title>
<path fill="none" stroke="#9a32cd" stroke-dasharray="5,2" d="M1736.51,-407.74C1782.73,-406.39 1843.52,-406.44 1897,-412.5 1906.9,-413.62 1917.37,-415.48 1927.35,-417.58"/>
<polygon fill="#9a32cd" stroke="#9a32cd" points="1736.16,-404.25 1726.28,-408.07 1736.39,-411.25 1736.16,-404.25"/>
<text text-anchor="middle" x="1834" y="-437.5" font-family="Helvetica,sans-Serif" font-size="10.00"> m_BufferedRegion</text>
<text text-anchor="middle" x="1834" y="-426.5" font-family="Helvetica,sans-Serif" font-size="10.00">m_LargestPossibleRegion</text>
<text text-anchor="middle" x="1834" y="-415.5" font-family="Helvetica,sans-Serif" font-size="10.00">m_RequestedRegion</text>
</g>
<!-- Node33 -->
<g id="node33" class="node">
<title>Node33</title>
<g id="a_node33"><a xlink:href="structitk_1_1Index.html" target="_top" xlink:title=" ">
<polygon fill="white" stroke="black" points="1233,-423 1233,-442 1408,-442 1408,-423 1233,-423"/>
<text text-anchor="middle" x="1320.5" y="-430" font-family="Helvetica,sans-Serif" font-size="10.00">itk::Index&lt; VImageDimension &gt;</text>
</a>
</g>
</g>
<!-- Node33&#45;&gt;Node32 -->
<g id="edge45" class="edge">
<title>Node33&#45;&gt;Node32</title>
<path fill="none" stroke="#9a32cd" stroke-dasharray="5,2" d="M1418.28,-430.99C1459.8,-429.87 1508.83,-427.92 1553,-424.5 1567.59,-423.37 1583.25,-421.74 1597.98,-420"/>
<polygon fill="#9a32cd" stroke="#9a32cd" points="1418.08,-427.5 1408.17,-431.26 1418.26,-434.5 1418.08,-427.5"/>
<text text-anchor="middle" x="1489.5" y="-433.5" font-family="Helvetica,sans-Serif" font-size="10.00"> m_Index</text>
</g>
<!-- Node37 -->
<g id="node37" class="node">
<title>Node37</title>
<g id="a_node37"><a xlink:href="classitk_1_1ImageRegion.html" target="_top" xlink:title=" ">
<polygon fill="white" stroke="black" points="1571,-335 1571,-354 1753,-354 1753,-335 1571,-335"/>
<text text-anchor="middle" x="1662" y="-342" font-family="Helvetica,sans-Serif" font-size="10.00">itk::ImageRegion&lt; VDimension &gt;</text>
</a>
</g>
</g>
<!-- Node33&#45;&gt;Node37 -->
<g id="edge50" class="edge">
<title>Node33&#45;&gt;Node37</title>
<path fill="none" stroke="#9a32cd" stroke-dasharray="5,2" d="M1377.32,-420.91C1393.04,-417.75 1410.17,-414.4 1426,-411.5 1482.28,-401.2 1498.07,-406.49 1553,-390.5 1585.48,-381.04 1621.25,-364.51 1642.38,-354.05"/>
<polygon fill="#9a32cd" stroke="#9a32cd" points="1376.32,-417.54 1367.22,-422.96 1377.71,-424.4 1376.32,-417.54"/>
<text text-anchor="middle" x="1489.5" y="-414.5" font-family="Helvetica,sans-Serif" font-size="10.00"> m_Index</text>
</g>
<!-- Node34 -->
<g id="node34" class="node">
<title>Node34</title>
<g id="a_node34"><a xlink:href="structitk_1_1Size.html" target="_top" xlink:title=" ">
<polygon fill="white" stroke="black" points="1236.5,-374 1236.5,-393 1404.5,-393 1404.5,-374 1236.5,-374"/>
<text text-anchor="middle" x="1320.5" y="-381" font-family="Helvetica,sans-Serif" font-size="10.00">itk::Size&lt; VImageDimension &gt;</text>
</a>
</g>
</g>
<!-- Node34&#45;&gt;Node32 -->
<g id="edge46" class="edge">
<title>Node34&#45;&gt;Node32</title>
<path fill="none" stroke="#9a32cd" stroke-dasharray="5,2" d="M1414.71,-375.08C1457.1,-373 1507.79,-372.94 1553,-379.5 1582.22,-383.74 1614.55,-394.11 1636.15,-401.91"/>
<polygon fill="#9a32cd" stroke="#9a32cd" points="1414.48,-371.59 1404.68,-375.62 1414.85,-378.58 1414.48,-371.59"/>
<text text-anchor="middle" x="1489.5" y="-382.5" font-family="Helvetica,sans-Serif" font-size="10.00"> m_Size</text>
</g>
<!-- Node34&#45;&gt;Node37 -->
<g id="edge51" class="edge">
<title>Node34&#45;&gt;Node37</title>
<path fill="none" stroke="#9a32cd" stroke-dasharray="5,2" d="M1379.24,-371.7C1388.89,-369.48 1398.76,-367.05 1408,-364.5 1416.13,-362.26 1417.72,-360.1 1426,-358.5 1473.25,-349.38 1526.76,-345.69 1570.76,-344.36"/>
<polygon fill="#9a32cd" stroke="#9a32cd" points="1378.3,-368.33 1369.31,-373.94 1379.84,-375.16 1378.3,-368.33"/>
<text text-anchor="middle" x="1489.5" y="-361.5" font-family="Helvetica,sans-Serif" font-size="10.00"> m_Size</text>
</g>
<!-- Node35 -->
<g id="node35" class="node">
<title>Node35</title>
<g id="a_node35"><a xlink:title=" ">
<polygon fill="white" stroke="black" points="1607,-515 1607,-534 1717,-534 1717,-515 1607,-515"/>
<text text-anchor="middle" x="1662" y="-522" font-family="Helvetica,sans-Serif" font-size="10.00">std::list&lt; Pointer &gt;</text>
</a>
</g>
</g>
<!-- Node35&#45;&gt;Node20 -->
<g id="edge52" class="edge">
<title>Node35&#45;&gt;Node20</title>
<path fill="none" stroke="#9a32cd" stroke-dasharray="5,2" d="M1727.47,-526.07C1833.27,-525.91 2047.41,-513.91 2202,-428.5 2221.31,-417.83 2240.7,-401.61 2253.71,-389.73"/>
<polygon fill="#9a32cd" stroke="#9a32cd" points="1727.28,-522.57 1717.27,-526.05 1727.26,-529.57 1727.28,-522.57"/>
<text text-anchor="middle" x="1978" y="-515.5" font-family="Helvetica,sans-Serif" font-size="10.00"> m_ChildrenList</text>
</g>
<!-- Node35&#45;&gt;Node31 -->
<g id="edge47" class="edge">
<title>Node35&#45;&gt;Node31</title>
<path fill="none" stroke="#9a32cd" stroke-dasharray="5,2" d="M1703.31,-511.9C1723.51,-505.85 1748.42,-498.79 1771,-493.5 1826.43,-480.52 1843,-488.52 1897,-470.5 1916,-464.16 1936.17,-454.05 1951.5,-445.58"/>
<polygon fill="#9a32cd" stroke="#9a32cd" points="1702.07,-508.62 1693.51,-514.87 1704.1,-515.32 1702.07,-508.62"/>
<text text-anchor="middle" x="1834" y="-496.5" font-family="Helvetica,sans-Serif" font-size="10.00"> m_ChildrenList</text>
</g>
<!-- Node36 -->
<g id="node36" class="node">
<title>Node36</title>
<g id="a_node36"><a xlink:href="classitk_1_1SmartPointer.html" target="_top" xlink:title="Implements transparent reference counting.">
<polygon fill="white" stroke="black" points="1267,-509.5 1267,-539.5 1374,-539.5 1374,-509.5 1267,-509.5"/>
<text text-anchor="start" x="1275" y="-527.5" font-family="Helvetica,sans-Serif" font-size="10.00">itk::SmartPointer&lt;</text>
<text text-anchor="middle" x="1320.5" y="-516.5" font-family="Helvetica,sans-Serif" font-size="10.00"> TObjectType &gt;</text>
</a>
</g>
</g>
<!-- Node36&#45;&gt;Node35 -->
<g id="edge48" class="edge">
<title>Node36&#45;&gt;Node35</title>
<path fill="none" stroke="#9a32cd" stroke-dasharray="5,2" d="M1384.52,-524.5C1448.42,-524.5 1546.26,-524.5 1606.8,-524.5"/>
<polygon fill="#9a32cd" stroke="#9a32cd" points="1384.17,-521 1374.17,-524.5 1384.17,-528 1384.17,-521"/>
<text text-anchor="middle" x="1489.5" y="-527.5" font-family="Helvetica,sans-Serif" font-size="10.00"> elements</text>
</g>
<!-- Node37&#45;&gt;Node20 -->
<g id="edge49" class="edge">
<title>Node37&#45;&gt;Node20</title>
<path fill="none" stroke="#9a32cd" stroke-dasharray="5,2" d="M1763.22,-349.46C1894.67,-355.96 2120.25,-367.12 2219.8,-372.04"/>
<polygon fill="#9a32cd" stroke="#9a32cd" points="1763.31,-345.96 1753.14,-348.96 1762.96,-352.95 1763.31,-345.96"/>
<text text-anchor="middle" x="1978" y="-387.5" font-family="Helvetica,sans-Serif" font-size="10.00"> m_BufferedRegion</text>
<text text-anchor="middle" x="1978" y="-376.5" font-family="Helvetica,sans-Serif" font-size="10.00">m_LargestPossibleRegion</text>
<text text-anchor="middle" x="1978" y="-365.5" font-family="Helvetica,sans-Serif" font-size="10.00">m_RequestedRegion</text>
</g>
<!-- Node38 -->
<g id="node38" class="node">
<title>Node38</title>
<g id="a_node38"><a xlink:href="classitk_1_1SmartPointer.html" target="_top" xlink:title=" ">
<polygon fill="white" stroke="black" points="2664,-99.5 2664,-129.5 2771,-129.5 2771,-99.5 2664,-99.5"/>
<text text-anchor="start" x="2672" y="-117.5" font-family="Helvetica,sans-Serif" font-size="10.00">itk::SmartPointer&lt;</text>
<text text-anchor="middle" x="2717.5" y="-106.5" font-family="Helvetica,sans-Serif" font-size="10.00"> Self &gt;</text>
</a>
</g>
</g>
<!-- Node38&#45;&gt;Node1 -->
<g id="edge53" class="edge">
<title>Node38&#45;&gt;Node1</title>
<path fill="none" stroke="#9a32cd" stroke-dasharray="5,2" d="M2781.35,-120.24C2815.3,-123.34 2857.23,-127.16 2891.89,-130.33"/>
<polygon fill="#9a32cd" stroke="#9a32cd" points="2781.37,-116.72 2771.09,-119.3 2780.73,-123.7 2781.37,-116.72"/>
<text text-anchor="middle" x="2846" y="-130.5" font-family="Helvetica,sans-Serif" font-size="10.00"> m_CurPoly</text>
</g>
<!-- Node39 -->
<g id="node39" class="node">
<title>Node39</title>
<g id="a_node39"><a xlink:title=" ">
<polygon fill="white" stroke="black" points="2059,-55.5 2059,-85.5 2202,-85.5 2202,-55.5 2059,-55.5"/>
<text text-anchor="start" x="2067" y="-73.5" font-family="Helvetica,sans-Serif" font-size="10.00">std::vector&lt; PolygonPoint</text>
<text text-anchor="middle" x="2130.5" y="-62.5" font-family="Helvetica,sans-Serif" font-size="10.00">Type &gt;</text>
</a>
</g>
</g>
<!-- Node39&#45;&gt;Node1 -->
<g id="edge54" class="edge">
<title>Node39&#45;&gt;Node1</title>
<path fill="none" stroke="#9a32cd" stroke-dasharray="5,2" d="M2212.18,-70.5C2250.59,-70.5 2297.17,-70.5 2339,-70.5 2339,-70.5 2339,-70.5 2718.5,-70.5 2795.07,-70.5 2880.61,-101.87 2926.36,-121.36"/>
<polygon fill="#9a32cd" stroke="#9a32cd" points="2212.09,-67 2202.09,-70.5 2212.09,-74 2212.09,-67"/>
<text text-anchor="middle" x="2437" y="-73.5" font-family="Helvetica,sans-Serif" font-size="10.00"> m_CurPointList</text>
</g>
<!-- Node40&#45;&gt;Node39 -->
<g id="edge55" class="edge">
<title>Node40&#45;&gt;Node39</title>
<path fill="none" stroke="#9a32cd" stroke-dasharray="5,2" d="M1749.34,-70.5C1838.54,-70.5 1976.08,-70.5 2058.98,-70.5"/>
<polygon fill="#9a32cd" stroke="#9a32cd" points="1749.25,-67 1739.25,-70.5 1749.25,-74 1749.25,-67"/>
<text text-anchor="middle" x="1834" y="-73.5" font-family="Helvetica,sans-Serif" font-size="10.00"> elements</text>
</g>
<!-- Node41 -->
<g id="node41" class="node">
<title>Node41</title>
<g id="a_node41"><a xlink:href="classitk_1_1Point.html" target="_top" xlink:title=" ">
<polygon fill="white" stroke="black" points="1263.5,-0.5 1263.5,-30.5 1377.5,-30.5 1377.5,-0.5 1263.5,-0.5"/>
<text text-anchor="start" x="1271.5" y="-18.5" font-family="Helvetica,sans-Serif" font-size="10.00">itk::Point&lt; double,</text>
<text text-anchor="middle" x="1320.5" y="-7.5" font-family="Helvetica,sans-Serif" font-size="10.00"> TPointDimension &gt;</text>
</a>
</g>
</g>
<!-- Node41&#45;&gt;Node40 -->
<g id="edge56" class="edge">
<title>Node41&#45;&gt;Node40</title>
<path fill="none" stroke="#9a32cd" stroke-dasharray="5,2" d="M1387.67,-24.39C1434.04,-30.82 1497.41,-40.02 1553,-49.5 1573.24,-52.95 1595.53,-57.21 1614.57,-60.98"/>
<polygon fill="#9a32cd" stroke="#9a32cd" points="1388.13,-20.92 1377.75,-23.02 1387.18,-27.86 1388.13,-20.92"/>
<text text-anchor="middle" x="1489.5" y="-52.5" font-family="Helvetica,sans-Serif" font-size="10.00"> m_PositionInObjectSpace</text>
</g>
<!-- Node42&#45;&gt;Node41 -->
<g id="edge57" class="edge">
<title>Node42&#45;&gt;Node41</title>
<path fill="none" stroke="midnightblue" d="M1064.21,-27.8C1125.07,-24.87 1208.72,-20.84 1263.43,-18.2"/>
<polygon fill="midnightblue" stroke="midnightblue" points="1063.71,-24.32 1053.89,-28.3 1064.04,-31.32 1063.71,-24.32"/>
</g>
<!-- Node43 -->
<g id="node43" class="node">
<title>Node43</title>
<g id="a_node43"><a xlink:href="classitk_1_1WeakPointer.html" target="_top" xlink:title=" ">
<polygon fill="white" stroke="black" points="1260,-49.5 1260,-79.5 1381,-79.5 1381,-49.5 1260,-49.5"/>
<text text-anchor="start" x="1268" y="-67.5" font-family="Helvetica,sans-Serif" font-size="10.00">itk::WeakPointer&lt; itk</text>
<text text-anchor="middle" x="1320.5" y="-56.5" font-family="Helvetica,sans-Serif" font-size="10.00">::SpatialObject &gt;</text>
</a>
</g>
</g>
<!-- Node43&#45;&gt;Node40 -->
<g id="edge61" class="edge">
<title>Node43&#45;&gt;Node40</title>
<path fill="none" stroke="#9a32cd" stroke-dasharray="5,2" d="M1391.61,-64.04C1437.52,-63.93 1498.84,-64.13 1553,-65.5 1563.32,-65.76 1574.19,-66.14 1584.9,-66.58"/>
<polygon fill="#9a32cd" stroke="#9a32cd" points="1391.46,-60.54 1381.47,-64.07 1391.48,-67.54 1391.46,-60.54"/>
<text text-anchor="middle" x="1489.5" y="-68.5" font-family="Helvetica,sans-Serif" font-size="10.00"> m_SpatialObject</text>
</g>
</g>
</svg>
