<?xml version="1.0" encoding="UTF-8" standalone="no"?>
<!DOCTYPE svg PUBLIC "-//W3C//DTD SVG 1.1//EN"
 "http://www.w3.org/Graphics/SVG/1.1/DTD/svg11.dtd">
<!-- Generated by graphviz version 2.43.0 (0)
 -->
<!-- Title: itk::ShapeSignedDistanceFunction&lt; TCoordRep, VSpaceDimension &gt; Pages: 1 -->
<svg width="1228pt" height="100pt"
 viewBox="0.00 0.00 1228.00 99.50" xmlns="http://www.w3.org/2000/svg" xmlns:xlink="http://www.w3.org/1999/xlink">
<g id="graph0" class="graph" transform="scale(1 1) rotate(0) translate(4 95.5)">
<title>itk::ShapeSignedDistanceFunction&lt; TCoordRep, VSpaceDimension &gt;</title>
<polygon fill="white" stroke="transparent" points="-4,4 -4,-95.5 1224,-95.5 1224,4 -4,4"/>
<!-- Node1 -->
<g id="node1" class="node">
<title>Node1</title>
<g id="a_node1"><a xlink:title="Base class for functions which evaluates the signed distance from a shape.">
<polygon fill="#bfbfbf" stroke="black" points="730,-27.5 730,-57.5 957,-57.5 957,-27.5 730,-27.5"/>
<text text-anchor="start" x="738" y="-45.5" font-family="Helvetica,sans-Serif" font-size="10.00">itk::ShapeSignedDistance</text>
<text text-anchor="middle" x="843.5" y="-34.5" font-family="Helvetica,sans-Serif" font-size="10.00">Function&lt; TCoordRep, VSpaceDimension &gt;</text>
</a>
</g>
</g>
<!-- Node6 -->
<g id="node6" class="node">
<title>Node6</title>
<g id="a_node6"><a xlink:href="classitk_1_1PCAShapeSignedDistanceFunction.html" target="_top" xlink:title="Compute the signed distance from a N&#45;dimensional PCA Shape.">
<polygon fill="white" stroke="black" points="997,-50 997,-91 1216,-91 1216,-50 997,-50"/>
<text text-anchor="start" x="1005" y="-79" font-family="Helvetica,sans-Serif" font-size="10.00">itk::PCAShapeSignedDistance</text>
<text text-anchor="start" x="1005" y="-68" font-family="Helvetica,sans-Serif" font-size="10.00">Function&lt; TCoordRep, VSpaceDimension,</text>
<text text-anchor="middle" x="1106.5" y="-57" font-family="Helvetica,sans-Serif" font-size="10.00"> TImage &gt;</text>
</a>
</g>
</g>
<!-- Node1&#45;&gt;Node6 -->
<g id="edge5" class="edge">
<title>Node1&#45;&gt;Node6</title>
<path fill="none" stroke="midnightblue" d="M967.26,-55.67C977.05,-56.72 986.91,-57.78 996.6,-58.82"/>
<polygon fill="midnightblue" stroke="midnightblue" points="967.4,-52.16 957.08,-54.58 966.65,-59.12 967.4,-52.16"/>
</g>
<!-- Node7 -->
<g id="node7" class="node">
<title>Node7</title>
<g id="a_node7"><a xlink:href="classitk_1_1SphereSignedDistanceFunction.html" target="_top" xlink:title="Compute the signed distance from a N&#45;dimensional sphere.">
<polygon fill="white" stroke="black" points="993,-0.5 993,-30.5 1220,-30.5 1220,-0.5 993,-0.5"/>
<text text-anchor="start" x="1001" y="-18.5" font-family="Helvetica,sans-Serif" font-size="10.00">itk::SphereSignedDistance</text>
<text text-anchor="middle" x="1106.5" y="-7.5" font-family="Helvetica,sans-Serif" font-size="10.00">Function&lt; TCoordRep, VSpaceDimension &gt;</text>
</a>
</g>
</g>
<!-- Node1&#45;&gt;Node7 -->
<g id="edge6" class="edge">
<title>Node1&#45;&gt;Node7</title>
<path fill="none" stroke="midnightblue" d="M967.13,-29.81C975.72,-28.93 984.35,-28.03 992.88,-27.15"/>
<polygon fill="midnightblue" stroke="midnightblue" points="966.67,-26.34 957.08,-30.85 967.39,-33.31 966.67,-26.34"/>
</g>
<!-- Node2 -->
<g id="node2" class="node">
<title>Node2</title>
<g id="a_node2"><a xlink:href="classitk_1_1SpatialFunction.html" target="_top" xlink:title=" ">
<polygon fill="white" stroke="black" points="469,-22 469,-63 694,-63 694,-22 469,-22"/>
<text text-anchor="start" x="477" y="-51" font-family="Helvetica,sans-Serif" font-size="10.00">itk::SpatialFunction</text>
<text text-anchor="start" x="477" y="-40" font-family="Helvetica,sans-Serif" font-size="10.00">&lt; double, VSpaceDimension,</text>
<text text-anchor="middle" x="581.5" y="-29" font-family="Helvetica,sans-Serif" font-size="10.00"> Point&lt; TCoordRep, VSpaceDimension &gt; &gt;</text>
</a>
</g>
</g>
<!-- Node2&#45;&gt;Node1 -->
<g id="edge1" class="edge">
<title>Node2&#45;&gt;Node1</title>
<path fill="none" stroke="midnightblue" d="M704.3,-42.5C712.87,-42.5 721.48,-42.5 730,-42.5"/>
<polygon fill="midnightblue" stroke="midnightblue" points="704.27,-39 694.27,-42.5 704.27,-46 704.27,-39"/>
</g>
<!-- Node3 -->
<g id="node3" class="node">
<title>Node3</title>
<g id="a_node3"><a xlink:href="classitk_1_1FunctionBase.html" target="_top" xlink:title=" ">
<polygon fill="white" stroke="black" points="230,-22 230,-63 433,-63 433,-22 230,-22"/>
<text text-anchor="start" x="238" y="-51" font-family="Helvetica,sans-Serif" font-size="10.00">itk::FunctionBase&lt;</text>
<text text-anchor="start" x="238" y="-40" font-family="Helvetica,sans-Serif" font-size="10.00"> Point&lt; TCoordRep, VSpaceDimension</text>
<text text-anchor="middle" x="331.5" y="-29" font-family="Helvetica,sans-Serif" font-size="10.00"> &gt;, double &gt;</text>
</a>
</g>
</g>
<!-- Node3&#45;&gt;Node2 -->
<g id="edge2" class="edge">
<title>Node3&#45;&gt;Node2</title>
<path fill="none" stroke="midnightblue" d="M443.04,-42.5C451.63,-42.5 460.3,-42.5 468.9,-42.5"/>
<polygon fill="midnightblue" stroke="midnightblue" points="443.01,-39 433.01,-42.5 443.01,-46 443.01,-39"/>
</g>
<!-- Node4 -->
<g id="node4" class="node">
<title>Node4</title>
<g id="a_node4"><a xlink:href="classitk_1_1Object.html" target="_top" xlink:title="Base class for most ITK classes.">
<polygon fill="white" stroke="black" points="127,-33 127,-52 194,-52 194,-33 127,-33"/>
<text text-anchor="middle" x="160.5" y="-40" font-family="Helvetica,sans-Serif" font-size="10.00">itk::Object</text>
</a>
</g>
</g>
<!-- Node4&#45;&gt;Node3 -->
<g id="edge3" class="edge">
<title>Node4&#45;&gt;Node3</title>
<path fill="none" stroke="midnightblue" d="M204.18,-42.5C212.19,-42.5 220.86,-42.5 229.78,-42.5"/>
<polygon fill="midnightblue" stroke="midnightblue" points="204.08,-39 194.08,-42.5 204.08,-46 204.08,-39"/>
</g>
<!-- Node5 -->
<g id="node5" class="node">
<title>Node5</title>
<g id="a_node5"><a xlink:href="classitk_1_1LightObject.html" target="_top" xlink:title="Light weight base class for most itk classes.">
<polygon fill="white" stroke="black" points="0,-33 0,-52 91,-52 91,-33 0,-33"/>
<text text-anchor="middle" x="45.5" y="-40" font-family="Helvetica,sans-Serif" font-size="10.00">itk::LightObject</text>
</a>
</g>
</g>
<!-- Node5&#45;&gt;Node4 -->
<g id="edge4" class="edge">
<title>Node5&#45;&gt;Node4</title>
<path fill="none" stroke="midnightblue" d="M101.28,-42.5C109.96,-42.5 118.69,-42.5 126.66,-42.5"/>
<polygon fill="midnightblue" stroke="midnightblue" points="101.16,-39 91.16,-42.5 101.16,-46 101.16,-39"/>
</g>
</g>
</svg>
