<?xml version="1.0" encoding="UTF-8" standalone="no"?>
<!DOCTYPE svg PUBLIC "-//W3C//DTD SVG 1.1//EN"
 "http://www.w3.org/Graphics/SVG/1.1/DTD/svg11.dtd">
<!-- Generated by graphviz version 2.43.0 (0)
 -->
<!-- Title: itk::Function::RankHistogram&lt; TInputPixel &gt; Pages: 1 -->
<svg width="209pt" height="262pt"
 viewBox="0.00 0.00 209.00 262.00" xmlns="http://www.w3.org/2000/svg" xmlns:xlink="http://www.w3.org/1999/xlink">
<g id="graph0" class="graph" transform="scale(1 1) rotate(0) translate(4 258)">
<title>itk::Function::RankHistogram&lt; TInputPixel &gt;</title>
<polygon fill="white" stroke="transparent" points="-4,4 -4,-258 205,-258 205,4 -4,4"/>
<!-- Node1 -->
<g id="node1" class="node">
<title>Node1</title>
<g id="a_node1"><a xlink:title=" ">
<polygon fill="#bfbfbf" stroke="black" points="0,-0.5 0,-30.5 158,-30.5 158,-0.5 0,-0.5"/>
<text text-anchor="start" x="8" y="-18.5" font-family="Helvetica,sans-Serif" font-size="10.00">itk::Function::RankHistogram</text>
<text text-anchor="middle" x="79" y="-7.5" font-family="Helvetica,sans-Serif" font-size="10.00">&lt; TInputPixel &gt;</text>
</a>
</g>
</g>
<!-- Node2 -->
<g id="node2" class="node">
<title>Node2</title>
<g id="a_node2"><a xlink:title=" ">
<polygon fill="white" stroke="#bfbfbf" points="3.5,-78.5 3.5,-108.5 154.5,-108.5 154.5,-78.5 3.5,-78.5"/>
<text text-anchor="start" x="11.5" y="-96.5" font-family="Helvetica,sans-Serif" font-size="10.00">std::map&lt; TInputPixel,</text>
<text text-anchor="middle" x="79" y="-85.5" font-family="Helvetica,sans-Serif" font-size="10.00"> SizeValueType, Compare &gt;</text>
</a>
</g>
</g>
<!-- Node2&#45;&gt;Node1 -->
<g id="edge1" class="edge">
<title>Node2&#45;&gt;Node1</title>
<path fill="none" stroke="#9a32cd" stroke-dasharray="5,2" d="M79,-68.09C79,-55.76 79,-41.22 79,-30.73"/>
<polygon fill="#9a32cd" stroke="#9a32cd" points="75.5,-68.2 79,-78.2 82.5,-68.21 75.5,-68.2"/>
<text text-anchor="middle" x="99" y="-52" font-family="Helvetica,sans-Serif" font-size="10.00"> m_Map</text>
</g>
<!-- Node3 -->
<g id="node3" class="node">
<title>Node3</title>
<g id="a_node3"><a xlink:title="STL class.">
<polygon fill="white" stroke="#bfbfbf" points="28.5,-167.5 28.5,-186.5 129.5,-186.5 129.5,-167.5 28.5,-167.5"/>
<text text-anchor="middle" x="79" y="-174.5" font-family="Helvetica,sans-Serif" font-size="10.00">std::map&lt; K, T &gt;</text>
</a>
</g>
</g>
<!-- Node3&#45;&gt;Node2 -->
<g id="edge2" class="edge">
<title>Node3&#45;&gt;Node2</title>
<path fill="none" stroke="orange" stroke-dasharray="5,2" d="M79,-157.23C79,-142.41 79,-122.05 79,-108.6"/>
<polygon fill="orange" stroke="orange" points="75.5,-157.28 79,-167.28 82.5,-157.28 75.5,-157.28"/>
<text text-anchor="start" x="79" y="-141" font-family="Helvetica,sans-Serif" font-size="10.00"> &lt; TInputPixel, SizeValue</text>
<text text-anchor="middle" x="140" y="-130" font-family="Helvetica,sans-Serif" font-size="10.00">Type, Compare &gt;</text>
</g>
<!-- Node4 -->
<g id="node4" class="node">
<title>Node4</title>
<g id="a_node4"><a xlink:title=" ">
<polygon fill="white" stroke="#bfbfbf" points="40.5,-234.5 40.5,-253.5 69.5,-253.5 69.5,-234.5 40.5,-234.5"/>
<text text-anchor="middle" x="55" y="-241.5" font-family="Helvetica,sans-Serif" font-size="10.00">K</text>
</a>
</g>
</g>
<!-- Node4&#45;&gt;Node3 -->
<g id="edge3" class="edge">
<title>Node4&#45;&gt;Node3</title>
<path fill="none" stroke="#9a32cd" stroke-dasharray="5,2" d="M53.03,-224C53.02,-217.77 53.73,-210.93 56,-205 58.64,-198.1 63.86,-191.74 68.66,-186.92"/>
<polygon fill="#9a32cd" stroke="#9a32cd" points="49.55,-224.45 53.62,-234.23 56.53,-224.04 49.55,-224.45"/>
<text text-anchor="middle" x="69" y="-208" font-family="Helvetica,sans-Serif" font-size="10.00"> keys</text>
</g>
<!-- Node5 -->
<g id="node5" class="node">
<title>Node5</title>
<g id="a_node5"><a xlink:title=" ">
<polygon fill="white" stroke="#bfbfbf" points="89.5,-234.5 89.5,-253.5 118.5,-253.5 118.5,-234.5 89.5,-234.5"/>
<text text-anchor="middle" x="104" y="-241.5" font-family="Helvetica,sans-Serif" font-size="10.00">T</text>
</a>
</g>
</g>
<!-- Node5&#45;&gt;Node3 -->
<g id="edge4" class="edge">
<title>Node5&#45;&gt;Node3</title>
<path fill="none" stroke="#9a32cd" stroke-dasharray="5,2" d="M97,-224.79C92.2,-212.31 86.04,-196.31 82.32,-186.63"/>
<polygon fill="#9a32cd" stroke="#9a32cd" points="93.77,-226.16 100.63,-234.23 100.31,-223.64 93.77,-226.16"/>
<text text-anchor="middle" x="116.5" y="-208" font-family="Helvetica,sans-Serif" font-size="10.00"> elements</text>
</g>
</g>
</svg>
