<?xml version="1.0" encoding="UTF-8" standalone="no"?>
<!DOCTYPE svg PUBLIC "-//W3C//DTD SVG 1.1//EN"
 "http://www.w3.org/Graphics/SVG/1.1/DTD/svg11.dtd">
<!-- Generated by graphviz version 2.43.0 (0)
 -->
<!-- Title: itk::CleanQuadEdgeMeshFilter&lt; TInputMesh, TOutputMesh &gt; Pages: 1 -->
<svg width="2969pt" height="540pt"
 viewBox="0.00 0.00 2969.00 540.12" xmlns="http://www.w3.org/2000/svg" xmlns:xlink="http://www.w3.org/1999/xlink">
<g id="graph0" class="graph" transform="scale(1 1) rotate(0) translate(4 536.12)">
<title>itk::CleanQuadEdgeMeshFilter&lt; TInputMesh, TOutputMesh &gt;</title>
<polygon fill="white" stroke="transparent" points="-4,4 -4,-536.12 2965,-536.12 2965,4 -4,4"/>
<!-- Node1 -->
<g id="node1" class="node">
<title>Node1</title>
<g id="a_node1"><a xlink:title="TODO.">
<polygon fill="#bfbfbf" stroke="black" points="2794,-51.12 2794,-81.12 2961,-81.12 2961,-51.12 2794,-51.12"/>
<text text-anchor="start" x="2802" y="-69.12" font-family="Helvetica,sans-Serif" font-size="10.00">itk::CleanQuadEdgeMeshFilter</text>
<text text-anchor="middle" x="2877.5" y="-58.12" font-family="Helvetica,sans-Serif" font-size="10.00">&lt; TInputMesh, TOutputMesh &gt;</text>
</a>
</g>
</g>
<!-- Node2 -->
<g id="node2" class="node">
<title>Node2</title>
<g id="a_node2"><a xlink:href="classitk_1_1QuadEdgeMeshToQuadEdgeMeshFilter.html" target="_top" xlink:title=" ">
<polygon fill="white" stroke="black" points="2586,-131.62 2586,-172.62 2757,-172.62 2757,-131.62 2586,-131.62"/>
<text text-anchor="start" x="2594" y="-160.62" font-family="Helvetica,sans-Serif" font-size="10.00">itk::QuadEdgeMeshToQuadEdge</text>
<text text-anchor="start" x="2594" y="-149.62" font-family="Helvetica,sans-Serif" font-size="10.00">MeshFilter&lt; TInputMesh,</text>
<text text-anchor="middle" x="2671.5" y="-138.62" font-family="Helvetica,sans-Serif" font-size="10.00"> TInputMesh &gt;</text>
</a>
</g>
</g>
<!-- Node2&#45;&gt;Node1 -->
<g id="edge1" class="edge">
<title>Node2&#45;&gt;Node1</title>
<path fill="none" stroke="midnightblue" d="M2730.66,-127.6C2766.16,-112.63 2810.42,-93.97 2840.81,-81.16"/>
<polygon fill="midnightblue" stroke="midnightblue" points="2729.22,-124.41 2721.36,-131.52 2731.94,-130.86 2729.22,-124.41"/>
</g>
<!-- Node3 -->
<g id="node3" class="node">
<title>Node3</title>
<g id="a_node3"><a xlink:href="classitk_1_1MeshToMeshFilter.html" target="_top" xlink:title=" ">
<polygon fill="white" stroke="black" points="2239,-192.12 2239,-222.12 2398,-222.12 2398,-192.12 2239,-192.12"/>
<text text-anchor="start" x="2247" y="-210.12" font-family="Helvetica,sans-Serif" font-size="10.00">itk::MeshToMeshFilter</text>
<text text-anchor="middle" x="2318.5" y="-199.12" font-family="Helvetica,sans-Serif" font-size="10.00">&lt; TInputMesh, TInputMesh &gt;</text>
</a>
</g>
</g>
<!-- Node3&#45;&gt;Node2 -->
<g id="edge2" class="edge">
<title>Node3&#45;&gt;Node2</title>
<path fill="none" stroke="midnightblue" d="M2408.27,-193.21C2462.76,-184.67 2532.15,-173.8 2585.86,-165.38"/>
<polygon fill="midnightblue" stroke="midnightblue" points="2407.61,-189.77 2398.27,-194.77 2408.69,-196.68 2407.61,-189.77"/>
</g>
<!-- Node4 -->
<g id="node4" class="node">
<title>Node4</title>
<g id="a_node4"><a xlink:href="classitk_1_1MeshSource.html" target="_top" xlink:title=" ">
<polygon fill="white" stroke="black" points="1877,-221.62 1877,-240.62 2051,-240.62 2051,-221.62 1877,-221.62"/>
<text text-anchor="middle" x="1964" y="-228.62" font-family="Helvetica,sans-Serif" font-size="10.00">itk::MeshSource&lt; TInputMesh &gt;</text>
</a>
</g>
</g>
<!-- Node4&#45;&gt;Node3 -->
<g id="edge3" class="edge">
<title>Node4&#45;&gt;Node3</title>
<path fill="none" stroke="midnightblue" d="M2061.47,-224.55C2117.18,-220.76 2186.38,-216.04 2238.78,-212.48"/>
<polygon fill="midnightblue" stroke="midnightblue" points="2060.97,-221.07 2051.23,-225.25 2061.45,-228.06 2060.97,-221.07"/>
</g>
<!-- Node5 -->
<g id="node5" class="node">
<title>Node5</title>
<g id="a_node5"><a xlink:href="classitk_1_1ProcessObject.html" target="_top" xlink:title="The base class for all process objects (source, filters, mappers) in the Insight data processing pipe...">
<polygon fill="white" stroke="black" points="1472,-251.62 1472,-270.62 1576,-270.62 1576,-251.62 1472,-251.62"/>
<text text-anchor="middle" x="1524" y="-258.62" font-family="Helvetica,sans-Serif" font-size="10.00">itk::ProcessObject</text>
</a>
</g>
</g>
<!-- Node5&#45;&gt;Node4 -->
<g id="edge4" class="edge">
<title>Node5&#45;&gt;Node4</title>
<path fill="none" stroke="midnightblue" d="M1586.63,-258.09C1653.69,-254.65 1764.03,-248.52 1859,-241.12 1864.79,-240.67 1870.75,-240.17 1876.76,-239.65"/>
<polygon fill="midnightblue" stroke="midnightblue" points="1586.06,-254.62 1576.25,-258.62 1586.42,-261.61 1586.06,-254.62"/>
</g>
<!-- Node30 -->
<g id="node30" class="node">
<title>Node30</title>
<g id="a_node30"><a xlink:href="classitk_1_1MeshSource.html" target="_top" xlink:title="Base class for all process objects that output mesh data.">
<polygon fill="white" stroke="black" points="1613,-202.12 1613,-232.12 1758,-232.12 1758,-202.12 1613,-202.12"/>
<text text-anchor="start" x="1621" y="-220.12" font-family="Helvetica,sans-Serif" font-size="10.00">itk::MeshSource&lt; TOutput</text>
<text text-anchor="middle" x="1685.5" y="-209.12" font-family="Helvetica,sans-Serif" font-size="10.00">Mesh &gt;</text>
</a>
</g>
</g>
<!-- Node5&#45;&gt;Node30 -->
<g id="edge43" class="edge">
<title>Node5&#45;&gt;Node30</title>
<path fill="none" stroke="midnightblue" d="M1569.37,-248.88C1588.12,-243.7 1610.15,-237.63 1629.89,-232.18"/>
<polygon fill="midnightblue" stroke="midnightblue" points="1568.32,-245.54 1559.61,-251.57 1570.18,-252.28 1568.32,-245.54"/>
</g>
<!-- Node6 -->
<g id="node6" class="node">
<title>Node6</title>
<g id="a_node6"><a xlink:href="classitk_1_1Object.html" target="_top" xlink:title="Base class for most ITK classes.">
<polygon fill="white" stroke="black" points="1176,-312.62 1176,-331.62 1243,-331.62 1243,-312.62 1176,-312.62"/>
<text text-anchor="middle" x="1209.5" y="-319.62" font-family="Helvetica,sans-Serif" font-size="10.00">itk::Object</text>
</a>
</g>
</g>
<!-- Node6&#45;&gt;Node5 -->
<g id="edge5" class="edge">
<title>Node6&#45;&gt;Node5</title>
<path fill="none" stroke="midnightblue" d="M1253.11,-314.43C1301.77,-305.57 1383.74,-290.39 1454,-276.12 1462.41,-274.41 1471.38,-272.51 1479.97,-270.66"/>
<polygon fill="midnightblue" stroke="midnightblue" points="1252.46,-310.99 1243.25,-316.22 1253.71,-317.88 1252.46,-310.99"/>
</g>
<!-- Node7 -->
<g id="node7" class="node">
<title>Node7</title>
<g id="a_node7"><a xlink:href="classitk_1_1LightObject.html" target="_top" xlink:title="Light weight base class for most itk classes.">
<polygon fill="white" stroke="black" points="834.5,-349.62 834.5,-368.62 925.5,-368.62 925.5,-349.62 834.5,-349.62"/>
<text text-anchor="middle" x="880" y="-356.62" font-family="Helvetica,sans-Serif" font-size="10.00">itk::LightObject</text>
</a>
</g>
</g>
<!-- Node7&#45;&gt;Node6 -->
<g id="edge6" class="edge">
<title>Node7&#45;&gt;Node6</title>
<path fill="none" stroke="midnightblue" d="M935.62,-353.19C981.4,-348.2 1048.48,-340.81 1107,-334.12 1129.92,-331.49 1155.73,-328.44 1175.59,-326.07"/>
<polygon fill="midnightblue" stroke="midnightblue" points="935.17,-349.72 925.61,-354.28 935.93,-356.68 935.17,-349.72"/>
</g>
<!-- Node8 -->
<g id="node8" class="node">
<title>Node8</title>
<g id="a_node8"><a xlink:title=" ">
<polygon fill="white" stroke="#bfbfbf" points="492,-351.62 492,-370.62 599,-370.62 599,-351.62 492,-351.62"/>
<text text-anchor="middle" x="545.5" y="-358.62" font-family="Helvetica,sans-Serif" font-size="10.00">std::atomic&lt; int &gt;</text>
</a>
</g>
</g>
<!-- Node8&#45;&gt;Node7 -->
<g id="edge7" class="edge">
<title>Node8&#45;&gt;Node7</title>
<path fill="none" stroke="#9a32cd" stroke-dasharray="5,2" d="M609.41,-360.74C675.06,-360.34 776.36,-359.73 834.28,-359.39"/>
<polygon fill="#9a32cd" stroke="#9a32cd" points="609.16,-357.24 599.19,-360.8 609.21,-364.24 609.16,-357.24"/>
<text text-anchor="middle" x="721.5" y="-364.12" font-family="Helvetica,sans-Serif" font-size="10.00"> m_ReferenceCount</text>
</g>
<!-- Node9 -->
<g id="node9" class="node">
<title>Node9</title>
<g id="a_node9"><a xlink:title="STL class.">
<polygon fill="white" stroke="#bfbfbf" points="135.5,-384.62 135.5,-403.62 235.5,-403.62 235.5,-384.62 135.5,-384.62"/>
<text text-anchor="middle" x="185.5" y="-391.62" font-family="Helvetica,sans-Serif" font-size="10.00">std::atomic&lt; T &gt;</text>
</a>
</g>
</g>
<!-- Node9&#45;&gt;Node8 -->
<g id="edge8" class="edge">
<title>Node9&#45;&gt;Node8</title>
<path fill="none" stroke="orange" stroke-dasharray="5,2" d="M245.66,-385.62C255.45,-384.35 265.5,-383.13 275,-382.12 350.25,-374.09 437.63,-367.84 492,-364.32"/>
<polygon fill="orange" stroke="orange" points="245.05,-382.17 235.59,-386.95 245.96,-389.11 245.05,-382.17"/>
<text text-anchor="middle" x="359" y="-385.12" font-family="Helvetica,sans-Serif" font-size="10.00"> &lt; int &gt;</text>
</g>
<!-- Node18 -->
<g id="node18" class="node">
<title>Node18</title>
<g id="a_node18"><a xlink:href="classitk_1_1TimeStamp.html" target="_top" xlink:title="Generate a unique, increasing time value.">
<polygon fill="white" stroke="black" points="834,-397.62 834,-416.62 926,-416.62 926,-397.62 834,-397.62"/>
<text text-anchor="middle" x="880" y="-404.62" font-family="Helvetica,sans-Serif" font-size="10.00">itk::TimeStamp</text>
</a>
</g>
</g>
<!-- Node9&#45;&gt;Node18 -->
<g id="edge20" class="edge">
<title>Node9&#45;&gt;Node18</title>
<path fill="none" stroke="#9a32cd" stroke-dasharray="5,2" d="M245.96,-395.23C381.82,-397.78 712.58,-403.99 833.64,-406.27"/>
<polygon fill="#9a32cd" stroke="#9a32cd" points="245.81,-391.73 235.75,-395.04 245.68,-398.73 245.81,-391.73"/>
<text text-anchor="middle" x="545.5" y="-406.12" font-family="Helvetica,sans-Serif" font-size="10.00"> m_GlobalTimeStamp</text>
</g>
<!-- Node22 -->
<g id="node22" class="node">
<title>Node22</title>
<g id="a_node22"><a xlink:title=" ">
<polygon fill="white" stroke="#bfbfbf" points="654.5,-436.62 654.5,-455.62 788.5,-455.62 788.5,-436.62 654.5,-436.62"/>
<text text-anchor="middle" x="721.5" y="-443.62" font-family="Helvetica,sans-Serif" font-size="10.00">std::atomic&lt; uint32_t &gt;</text>
</a>
</g>
</g>
<!-- Node9&#45;&gt;Node22 -->
<g id="edge29" class="edge">
<title>Node9&#45;&gt;Node22</title>
<path fill="none" stroke="orange" stroke-dasharray="5,2" d="M221.57,-406.94C237.64,-412.26 257.06,-417.92 275,-421.12 408.09,-444.8 566.73,-447.81 654.26,-447.33"/>
<polygon fill="orange" stroke="orange" points="222.64,-403.61 212.05,-403.7 220.38,-410.23 222.64,-403.61"/>
<text text-anchor="middle" x="359" y="-444.12" font-family="Helvetica,sans-Serif" font-size="10.00"> &lt; uint32_t &gt;</text>
</g>
<!-- Node10 -->
<g id="node10" class="node">
<title>Node10</title>
<g id="a_node10"><a xlink:title=" ">
<polygon fill="white" stroke="#bfbfbf" points="0,-352.62 0,-371.62 29,-371.62 29,-352.62 0,-352.62"/>
<text text-anchor="middle" x="14.5" y="-359.62" font-family="Helvetica,sans-Serif" font-size="10.00">T</text>
</a>
</g>
</g>
<!-- Node10&#45;&gt;Node9 -->
<g id="edge9" class="edge">
<title>Node10&#45;&gt;Node9</title>
<path fill="none" stroke="#9a32cd" stroke-dasharray="5,2" d="M39,-366.57C63.8,-371.26 103.63,-378.8 135.35,-384.81"/>
<polygon fill="#9a32cd" stroke="#9a32cd" points="39.52,-363.1 29.04,-364.68 38.22,-369.98 39.52,-363.1"/>
<text text-anchor="middle" x="71.5" y="-381.12" font-family="Helvetica,sans-Serif" font-size="10.00"> ptr</text>
</g>
<!-- Node15 -->
<g id="node15" class="node">
<title>Node15</title>
<g id="a_node15"><a xlink:title="STL class.">
<polygon fill="white" stroke="#bfbfbf" points="135,-225.62 135,-244.62 236,-244.62 236,-225.62 135,-225.62"/>
<text text-anchor="middle" x="185.5" y="-232.62" font-family="Helvetica,sans-Serif" font-size="10.00">std::map&lt; K, T &gt;</text>
</a>
</g>
</g>
<!-- Node10&#45;&gt;Node15 -->
<g id="edge16" class="edge">
<title>Node10&#45;&gt;Node15</title>
<path fill="none" stroke="#9a32cd" stroke-dasharray="5,2" d="M28.36,-344.38C33.71,-337.63 40.24,-330.12 47,-324.12 67.72,-305.7 136.66,-263.7 168.33,-244.73"/>
<polygon fill="#9a32cd" stroke="#9a32cd" points="25.56,-342.28 22.29,-352.36 31.13,-346.52 25.56,-342.28"/>
<text text-anchor="middle" x="71.5" y="-327.12" font-family="Helvetica,sans-Serif" font-size="10.00"> elements</text>
</g>
<!-- Node17 -->
<g id="node17" class="node">
<title>Node17</title>
<g id="a_node17"><a xlink:title="STL class.">
<polygon fill="white" stroke="#bfbfbf" points="126.5,-328.62 126.5,-347.62 244.5,-347.62 244.5,-328.62 126.5,-328.62"/>
<text text-anchor="middle" x="185.5" y="-335.62" font-family="Helvetica,sans-Serif" font-size="10.00">std::shared_ptr&lt; T &gt;</text>
</a>
</g>
</g>
<!-- Node10&#45;&gt;Node17 -->
<g id="edge18" class="edge">
<title>Node10&#45;&gt;Node17</title>
<path fill="none" stroke="#9a32cd" stroke-dasharray="5,2" d="M38.39,-350.01C41.23,-348.87 44.14,-347.86 47,-347.12 72.46,-340.48 101.43,-337.89 126.19,-337.09"/>
<polygon fill="#9a32cd" stroke="#9a32cd" points="36.82,-346.87 29.18,-354.21 39.73,-353.24 36.82,-346.87"/>
<text text-anchor="middle" x="71.5" y="-350.12" font-family="Helvetica,sans-Serif" font-size="10.00"> ptr</text>
</g>
<!-- Node25 -->
<g id="node25" class="node">
<title>Node25</title>
<g id="a_node25"><a xlink:title="STL class.">
<polygon fill="white" stroke="#bfbfbf" points="137,-507.62 137,-526.62 234,-526.62 234,-507.62 137,-507.62"/>
<text text-anchor="middle" x="185.5" y="-514.62" font-family="Helvetica,sans-Serif" font-size="10.00">std::vector&lt; T &gt;</text>
</a>
</g>
</g>
<!-- Node10&#45;&gt;Node25 -->
<g id="edge33" class="edge">
<title>Node10&#45;&gt;Node25</title>
<path fill="none" stroke="#9a32cd" stroke-dasharray="5,2" d="M23.95,-380.98C38.18,-410.56 69.77,-467.62 114,-498.12 120.78,-502.79 128.67,-506.32 136.66,-508.98"/>
<polygon fill="#9a32cd" stroke="#9a32cd" points="27.04,-379.34 19.65,-371.75 20.7,-382.3 27.04,-379.34"/>
<text text-anchor="middle" x="71.5" y="-484.12" font-family="Helvetica,sans-Serif" font-size="10.00"> elements</text>
</g>
<!-- Node11 -->
<g id="node11" class="node">
<title>Node11</title>
<g id="a_node11"><a xlink:title="STL class.">
<polygon fill="white" stroke="#bfbfbf" points="847.5,-202.62 847.5,-221.62 912.5,-221.62 912.5,-202.62 847.5,-202.62"/>
<text text-anchor="middle" x="880" y="-209.62" font-family="Helvetica,sans-Serif" font-size="10.00">std::string</text>
</a>
</g>
</g>
<!-- Node11&#45;&gt;Node6 -->
<g id="edge10" class="edge">
<title>Node11&#45;&gt;Node6</title>
<path fill="none" stroke="#9a32cd" stroke-dasharray="5,2" d="M918.26,-225.08C932.83,-230.12 949.69,-235.93 965,-241.12 1042.22,-267.29 1133.47,-297.43 1179.23,-312.5"/>
<polygon fill="#9a32cd" stroke="#9a32cd" points="919.19,-221.7 908.59,-221.73 916.89,-228.31 919.19,-221.7"/>
<text text-anchor="middle" x="1036" y="-291.12" font-family="Helvetica,sans-Serif" font-size="10.00"> m_ObjectName</text>
</g>
<!-- Node19 -->
<g id="node19" class="node">
<title>Node19</title>
<g id="a_node19"><a xlink:title=" ">
<polygon fill="white" stroke="#bfbfbf" points="1128.5,-246.12 1128.5,-276.12 1290.5,-276.12 1290.5,-246.12 1128.5,-246.12"/>
<text text-anchor="start" x="1136.5" y="-264.12" font-family="Helvetica,sans-Serif" font-size="10.00">std::set&lt; DataObjectIdentifier</text>
<text text-anchor="middle" x="1209.5" y="-253.12" font-family="Helvetica,sans-Serif" font-size="10.00">Type &gt;</text>
</a>
</g>
</g>
<!-- Node11&#45;&gt;Node19 -->
<g id="edge22" class="edge">
<title>Node11&#45;&gt;Node19</title>
<path fill="none" stroke="#9a32cd" stroke-dasharray="5,2" d="M922.84,-212.74C968.48,-214.05 1043.5,-218.04 1107,-230.12 1126.91,-233.9 1148.45,-240.16 1166.54,-246.06"/>
<polygon fill="#9a32cd" stroke="#9a32cd" points="922.82,-209.24 912.73,-212.48 922.64,-216.24 922.82,-209.24"/>
<text text-anchor="middle" x="1036" y="-233.12" font-family="Helvetica,sans-Serif" font-size="10.00"> keys</text>
</g>
<!-- Node21 -->
<g id="node21" class="node">
<title>Node21</title>
<g id="a_node21"><a xlink:title=" ">
<polygon fill="white" stroke="#bfbfbf" points="1125,-180.12 1125,-210.12 1294,-210.12 1294,-180.12 1125,-180.12"/>
<text text-anchor="start" x="1133" y="-198.12" font-family="Helvetica,sans-Serif" font-size="10.00">std::map&lt; DataObjectIdentifier</text>
<text text-anchor="middle" x="1209.5" y="-187.12" font-family="Helvetica,sans-Serif" font-size="10.00">Type, bool &gt;</text>
</a>
</g>
</g>
<!-- Node11&#45;&gt;Node21 -->
<g id="edge26" class="edge">
<title>Node11&#45;&gt;Node21</title>
<path fill="none" stroke="#9a32cd" stroke-dasharray="5,2" d="M922.64,-202.62C936.08,-199.97 951.11,-197.46 965,-196.12 1018.02,-191 1077.84,-190.68 1124.91,-191.67"/>
<polygon fill="#9a32cd" stroke="#9a32cd" points="921.81,-199.21 912.71,-204.65 923.21,-206.07 921.81,-199.21"/>
<text text-anchor="middle" x="1036" y="-199.12" font-family="Helvetica,sans-Serif" font-size="10.00"> keys</text>
</g>
<!-- Node26 -->
<g id="node26" class="node">
<title>Node26</title>
<g id="a_node26"><a xlink:title=" ">
<polygon fill="white" stroke="#bfbfbf" points="1125,-67.12 1125,-97.12 1294,-97.12 1294,-67.12 1125,-67.12"/>
<text text-anchor="start" x="1133" y="-85.12" font-family="Helvetica,sans-Serif" font-size="10.00">std::map&lt; DataObjectIdentifier</text>
<text text-anchor="middle" x="1209.5" y="-74.12" font-family="Helvetica,sans-Serif" font-size="10.00">Type, DataObjectPointer &gt;</text>
</a>
</g>
</g>
<!-- Node11&#45;&gt;Node26 -->
<g id="edge37" class="edge">
<title>Node11&#45;&gt;Node26</title>
<path fill="none" stroke="#9a32cd" stroke-dasharray="5,2" d="M913,-198.58C928.65,-192.02 947.77,-184.07 965,-177.12 1036.75,-148.18 1120.94,-115.65 1169.17,-97.14"/>
<polygon fill="#9a32cd" stroke="#9a32cd" points="911.62,-195.37 903.76,-202.47 914.33,-201.82 911.62,-195.37"/>
<text text-anchor="middle" x="1036" y="-180.12" font-family="Helvetica,sans-Serif" font-size="10.00"> keys</text>
</g>
<!-- Node12 -->
<g id="node12" class="node">
<title>Node12</title>
<g id="a_node12"><a xlink:title="STL class.">
<polygon fill="white" stroke="#bfbfbf" points="493.5,-197.12 493.5,-227.12 597.5,-227.12 597.5,-197.12 493.5,-197.12"/>
<text text-anchor="start" x="501.5" y="-215.12" font-family="Helvetica,sans-Serif" font-size="10.00">std::basic_string&lt;</text>
<text text-anchor="middle" x="545.5" y="-204.12" font-family="Helvetica,sans-Serif" font-size="10.00"> char &gt;</text>
</a>
</g>
</g>
<!-- Node12&#45;&gt;Node11 -->
<g id="edge11" class="edge">
<title>Node12&#45;&gt;Node11</title>
<path fill="none" stroke="midnightblue" d="M607.85,-212.12C678.64,-212.12 792.34,-212.12 847.27,-212.12"/>
<polygon fill="midnightblue" stroke="midnightblue" points="607.72,-208.62 597.72,-212.12 607.72,-215.62 607.72,-208.62"/>
</g>
<!-- Node13 -->
<g id="node13" class="node">
<title>Node13</title>
<g id="a_node13"><a xlink:href="classitk_1_1MetaDataDictionary.html" target="_top" xlink:title="Provides a mechanism for storing a collection of arbitrary data types.">
<polygon fill="white" stroke="black" points="813,-309.62 813,-328.62 947,-328.62 947,-309.62 813,-309.62"/>
<text text-anchor="middle" x="880" y="-316.62" font-family="Helvetica,sans-Serif" font-size="10.00">itk::MetaDataDictionary</text>
</a>
</g>
</g>
<!-- Node13&#45;&gt;Node6 -->
<g id="edge12" class="edge">
<title>Node13&#45;&gt;Node6</title>
<path fill="none" stroke="#9a32cd" stroke-dasharray="5,2" d="M957.68,-319.82C1026.84,-320.45 1125.22,-321.35 1175.75,-321.82"/>
<polygon fill="#9a32cd" stroke="#9a32cd" points="957.31,-316.32 947.27,-319.72 957.24,-323.32 957.31,-316.32"/>
<text text-anchor="middle" x="1036" y="-325.12" font-family="Helvetica,sans-Serif" font-size="10.00"> m_MetaDataDictionary</text>
</g>
<!-- Node14 -->
<g id="node14" class="node">
<title>Node14</title>
<g id="a_node14"><a xlink:title=" ">
<polygon fill="white" stroke="#bfbfbf" points="471,-302.12 471,-332.12 620,-332.12 620,-302.12 471,-302.12"/>
<text text-anchor="start" x="479" y="-320.12" font-family="Helvetica,sans-Serif" font-size="10.00">std::shared_ptr&lt; MetaData</text>
<text text-anchor="middle" x="545.5" y="-309.12" font-family="Helvetica,sans-Serif" font-size="10.00">DictionaryMapType &gt;</text>
</a>
</g>
</g>
<!-- Node14&#45;&gt;Node13 -->
<g id="edge13" class="edge">
<title>Node14&#45;&gt;Node13</title>
<path fill="none" stroke="#9a32cd" stroke-dasharray="5,2" d="M630.63,-317.62C687.09,-317.96 760.43,-318.4 812.74,-318.72"/>
<polygon fill="#9a32cd" stroke="#9a32cd" points="630.31,-314.12 620.29,-317.56 630.27,-321.12 630.31,-314.12"/>
<text text-anchor="middle" x="721.5" y="-322.12" font-family="Helvetica,sans-Serif" font-size="10.00"> m_Dictionary</text>
</g>
<!-- Node15&#45;&gt;Node14 -->
<g id="edge14" class="edge">
<title>Node15&#45;&gt;Node14</title>
<path fill="none" stroke="#9a32cd" stroke-dasharray="5,2" d="M246.54,-227.2C299.69,-222.45 378.6,-221.02 443,-243.12 478.27,-255.22 511.71,-284.17 530.03,-302.06"/>
<polygon fill="#9a32cd" stroke="#9a32cd" points="245.88,-223.74 236.26,-228.18 246.55,-230.71 245.88,-223.74"/>
<text text-anchor="middle" x="359" y="-246.12" font-family="Helvetica,sans-Serif" font-size="10.00"> ptr</text>
</g>
<!-- Node15&#45;&gt;Node21 -->
<g id="edge27" class="edge">
<title>Node15&#45;&gt;Node21</title>
<path fill="none" stroke="orange" stroke-dasharray="5,2" d="M243.89,-223.63C299.28,-212.89 385.59,-197.06 461,-187.12 683.96,-157.72 740.33,-152.13 965,-142.12 1028.05,-139.31 1047.66,-120.63 1107,-142.12 1116.79,-145.66 1116.18,-151.58 1125,-157.12 1138.89,-165.84 1155.12,-173.7 1169.56,-179.97"/>
<polygon fill="orange" stroke="orange" points="243.07,-220.23 233.92,-225.58 244.4,-227.1 243.07,-220.23"/>
<text text-anchor="start" x="652" y="-178.12" font-family="Helvetica,sans-Serif" font-size="10.00"> &lt; DataObjectIdentifierType,</text>
<text text-anchor="middle" x="721.5" y="-167.12" font-family="Helvetica,sans-Serif" font-size="10.00"> bool &gt;</text>
</g>
<!-- Node15&#45;&gt;Node26 -->
<g id="edge38" class="edge">
<title>Node15&#45;&gt;Node26</title>
<path fill="none" stroke="orange" stroke-dasharray="5,2" d="M203.83,-218.2C244.62,-179.58 351.52,-85.17 461,-45.12 664.04,29.16 731.45,-7.38 947,-24.12 1018.76,-29.69 1037,-32.38 1107,-49.12 1127,-53.9 1148.74,-60.74 1166.95,-66.95"/>
<polygon fill="orange" stroke="orange" points="201.16,-215.91 196.36,-225.35 206.01,-220.96 201.16,-215.91"/>
<text text-anchor="start" x="652" y="-22.12" font-family="Helvetica,sans-Serif" font-size="10.00"> &lt; DataObjectIdentifierType,</text>
<text text-anchor="middle" x="721.5" y="-11.12" font-family="Helvetica,sans-Serif" font-size="10.00"> DataObjectPointer &gt;</text>
</g>
<!-- Node16 -->
<g id="node16" class="node">
<title>Node16</title>
<g id="a_node16"><a xlink:title=" ">
<polygon fill="white" stroke="#bfbfbf" points="0,-245.62 0,-264.62 29,-264.62 29,-245.62 0,-245.62"/>
<text text-anchor="middle" x="14.5" y="-252.62" font-family="Helvetica,sans-Serif" font-size="10.00">K</text>
</a>
</g>
</g>
<!-- Node16&#45;&gt;Node15 -->
<g id="edge15" class="edge">
<title>Node16&#45;&gt;Node15</title>
<path fill="none" stroke="#9a32cd" stroke-dasharray="5,2" d="M38.37,-242.92C41.21,-241.8 44.13,-240.82 47,-240.12 75.54,-233.12 108.39,-231.69 134.83,-232.1"/>
<polygon fill="#9a32cd" stroke="#9a32cd" points="36.81,-239.79 29.16,-247.12 39.71,-246.16 36.81,-239.79"/>
<text text-anchor="middle" x="71.5" y="-243.12" font-family="Helvetica,sans-Serif" font-size="10.00"> keys</text>
</g>
<!-- Node20 -->
<g id="node20" class="node">
<title>Node20</title>
<g id="a_node20"><a xlink:title="STL class.">
<polygon fill="white" stroke="#bfbfbf" points="318,-263.62 318,-282.62 400,-282.62 400,-263.62 318,-263.62"/>
<text text-anchor="middle" x="359" y="-270.62" font-family="Helvetica,sans-Serif" font-size="10.00">std::set&lt; K &gt;</text>
</a>
</g>
</g>
<!-- Node16&#45;&gt;Node20 -->
<g id="edge24" class="edge">
<title>Node16&#45;&gt;Node20</title>
<path fill="none" stroke="#9a32cd" stroke-dasharray="5,2" d="M39.38,-256.37C97.31,-259.42 245.82,-267.22 317.76,-271"/>
<polygon fill="#9a32cd" stroke="#9a32cd" points="39.52,-252.87 29.35,-255.84 39.15,-259.86 39.52,-252.87"/>
<text text-anchor="middle" x="71.5" y="-263.12" font-family="Helvetica,sans-Serif" font-size="10.00"> keys</text>
</g>
<!-- Node17&#45;&gt;Node14 -->
<g id="edge17" class="edge">
<title>Node17&#45;&gt;Node14</title>
<path fill="none" stroke="orange" stroke-dasharray="5,2" d="M254.85,-334.11C316.62,-330.48 407.3,-325.17 470.69,-321.45"/>
<polygon fill="orange" stroke="orange" points="254.59,-330.62 244.82,-334.7 255,-337.6 254.59,-330.62"/>
<text text-anchor="middle" x="359" y="-336.12" font-family="Helvetica,sans-Serif" font-size="10.00"> &lt; MetaDataDictionaryMapType &gt;</text>
</g>
<!-- Node18&#45;&gt;Node5 -->
<g id="edge41" class="edge">
<title>Node18&#45;&gt;Node5</title>
<path fill="none" stroke="#9a32cd" stroke-dasharray="5,2" d="M936.35,-406.6C982.3,-405.48 1049.24,-402.23 1107,-393.12 1264.27,-368.31 1307.61,-366.73 1454,-304.12 1474.76,-295.24 1496.53,-280.66 1509.93,-270.98"/>
<polygon fill="#9a32cd" stroke="#9a32cd" points="936.22,-403.1 926.3,-406.82 936.37,-410.1 936.22,-403.1"/>
<text text-anchor="middle" x="1209.5" y="-393.12" font-family="Helvetica,sans-Serif" font-size="10.00"> m_OutputInformationMTime</text>
</g>
<!-- Node18&#45;&gt;Node6 -->
<g id="edge19" class="edge">
<title>Node18&#45;&gt;Node6</title>
<path fill="none" stroke="#9a32cd" stroke-dasharray="5,2" d="M920.17,-394.5C934.22,-390.23 950.24,-385.65 965,-382.12 1027.39,-367.17 1044.87,-372.12 1107,-356.12 1133.45,-349.3 1162.99,-339.1 1183.35,-331.65"/>
<polygon fill="#9a32cd" stroke="#9a32cd" points="918.86,-391.24 910.33,-397.54 920.92,-397.93 918.86,-391.24"/>
<text text-anchor="middle" x="1036" y="-385.12" font-family="Helvetica,sans-Serif" font-size="10.00"> m_MTime</text>
</g>
<!-- Node19&#45;&gt;Node5 -->
<g id="edge21" class="edge">
<title>Node19&#45;&gt;Node5</title>
<path fill="none" stroke="#9a32cd" stroke-dasharray="5,2" d="M1300.76,-261.12C1356.22,-261.12 1425.26,-261.12 1471.55,-261.12"/>
<polygon fill="#9a32cd" stroke="#9a32cd" points="1300.57,-257.62 1290.57,-261.12 1300.57,-264.62 1300.57,-257.62"/>
<text text-anchor="middle" x="1383" y="-264.12" font-family="Helvetica,sans-Serif" font-size="10.00"> m_RequiredInputNames</text>
</g>
<!-- Node20&#45;&gt;Node19 -->
<g id="edge23" class="edge">
<title>Node20&#45;&gt;Node19</title>
<path fill="none" stroke="orange" stroke-dasharray="5,2" d="M410.55,-273.34C514.42,-273.79 759.37,-274.78 965,-275.12 1028.11,-275.22 1044.04,-279.44 1107,-275.12 1113.92,-274.64 1121.09,-273.99 1128.27,-273.22"/>
<polygon fill="orange" stroke="orange" points="410.37,-269.84 400.36,-273.3 410.34,-276.84 410.37,-269.84"/>
<text text-anchor="middle" x="721.5" y="-278.12" font-family="Helvetica,sans-Serif" font-size="10.00"> &lt; DataObjectIdentifierType &gt;</text>
</g>
<!-- Node21&#45;&gt;Node5 -->
<g id="edge25" class="edge">
<title>Node21&#45;&gt;Node5</title>
<path fill="none" stroke="#9a32cd" stroke-dasharray="5,2" d="M1304.38,-206.12C1349.99,-212.59 1405.33,-222.09 1454,-235.12 1470.08,-239.42 1487.62,-246.06 1500.99,-251.55"/>
<polygon fill="#9a32cd" stroke="#9a32cd" points="1304.59,-202.62 1294.2,-204.71 1303.62,-209.55 1304.59,-202.62"/>
<text text-anchor="start" x="1312" y="-249.12" font-family="Helvetica,sans-Serif" font-size="10.00"> m_CachedInputReleaseData</text>
<text text-anchor="middle" x="1383" y="-238.12" font-family="Helvetica,sans-Serif" font-size="10.00">Flags</text>
</g>
<!-- Node22&#45;&gt;Node5 -->
<g id="edge28" class="edge">
<title>Node22&#45;&gt;Node5</title>
<path fill="none" stroke="#9a32cd" stroke-dasharray="5,2" d="M798.58,-447.66C909.07,-448.34 1119.77,-443.7 1294,-405.12 1368.3,-388.66 1392.09,-388.38 1454,-344.12 1482.96,-323.41 1506.94,-287.72 1517.38,-270.69"/>
<polygon fill="#9a32cd" stroke="#9a32cd" points="798.56,-444.16 788.53,-447.59 798.51,-451.16 798.56,-444.16"/>
<text text-anchor="middle" x="1036" y="-448.12" font-family="Helvetica,sans-Serif" font-size="10.00"> m_Progress</text>
</g>
<!-- Node23 -->
<g id="node23" class="node">
<title>Node23</title>
<g id="a_node23"><a xlink:title=" ">
<polygon fill="white" stroke="#bfbfbf" points="461,-475.12 461,-505.12 630,-505.12 630,-475.12 461,-475.12"/>
<text text-anchor="start" x="469" y="-493.12" font-family="Helvetica,sans-Serif" font-size="10.00">std::vector&lt; DataObjectPointer</text>
<text text-anchor="middle" x="545.5" y="-482.12" font-family="Helvetica,sans-Serif" font-size="10.00">Map::iterator &gt;</text>
</a>
</g>
</g>
<!-- Node23&#45;&gt;Node5 -->
<g id="edge30" class="edge">
<title>Node23&#45;&gt;Node5</title>
<path fill="none" stroke="#9a32cd" stroke-dasharray="5,2" d="M640.27,-491.06C783.03,-490.68 1062.71,-482.82 1294,-433.12 1366.34,-417.57 1396.23,-433.35 1454,-387.12 1493.73,-355.33 1513.95,-294.19 1520.53,-270.67"/>
<polygon fill="#9a32cd" stroke="#9a32cd" points="640.23,-487.56 630.23,-491.07 640.24,-494.56 640.23,-487.56"/>
<text text-anchor="middle" x="1036" y="-493.12" font-family="Helvetica,sans-Serif" font-size="10.00"> m_IndexedOutputs</text>
<text text-anchor="middle" x="1036" y="-482.12" font-family="Helvetica,sans-Serif" font-size="10.00">m_IndexedInputs</text>
</g>
<!-- Node24 -->
<g id="node24" class="node">
<title>Node24</title>
<g id="a_node24"><a xlink:title="STL iterator class.">
<polygon fill="white" stroke="#bfbfbf" points="114,-469.62 114,-488.62 257,-488.62 257,-469.62 114,-469.62"/>
<text text-anchor="middle" x="185.5" y="-476.62" font-family="Helvetica,sans-Serif" font-size="10.00">std::map&lt; K, T &gt;::iterator</text>
</a>
</g>
</g>
<!-- Node24&#45;&gt;Node23 -->
<g id="edge31" class="edge">
<title>Node24&#45;&gt;Node23</title>
<path fill="none" stroke="#9a32cd" stroke-dasharray="5,2" d="M267.23,-479.28C317.76,-479.65 384.2,-480.63 443,-483.12 448.82,-483.36 454.83,-483.66 460.88,-484"/>
<polygon fill="#9a32cd" stroke="#9a32cd" points="267.05,-475.77 257.02,-479.21 267,-482.77 267.05,-475.77"/>
<text text-anchor="middle" x="359" y="-486.12" font-family="Helvetica,sans-Serif" font-size="10.00"> elements</text>
</g>
<!-- Node25&#45;&gt;Node23 -->
<g id="edge32" class="edge">
<title>Node25&#45;&gt;Node23</title>
<path fill="none" stroke="orange" stroke-dasharray="5,2" d="M244.23,-512.76C302.82,-508.34 394.14,-501.46 460.7,-496.44"/>
<polygon fill="orange" stroke="orange" points="243.75,-509.29 234.04,-513.53 244.27,-516.27 243.75,-509.29"/>
<text text-anchor="start" x="296.5" y="-524.12" font-family="Helvetica,sans-Serif" font-size="10.00"> &lt; DataObjectPointerMap</text>
<text text-anchor="middle" x="359" y="-513.12" font-family="Helvetica,sans-Serif" font-size="10.00">::iterator &gt;</text>
</g>
<!-- Node26&#45;&gt;Node5 -->
<g id="edge34" class="edge">
<title>Node26&#45;&gt;Node5</title>
<path fill="none" stroke="#9a32cd" stroke-dasharray="5,2" d="M1304.53,-71.54C1353.35,-70.91 1411.49,-78.28 1454,-109.12 1503.03,-144.68 1517.99,-223.49 1521.83,-251.22"/>
<polygon fill="#9a32cd" stroke="#9a32cd" points="1304.18,-68.05 1294.27,-71.79 1304.35,-75.05 1304.18,-68.05"/>
<text text-anchor="middle" x="1383" y="-123.12" font-family="Helvetica,sans-Serif" font-size="10.00"> m_Outputs</text>
<text text-anchor="middle" x="1383" y="-112.12" font-family="Helvetica,sans-Serif" font-size="10.00">m_Inputs</text>
</g>
<!-- Node27 -->
<g id="node27" class="node">
<title>Node27</title>
<g id="a_node27"><a xlink:href="classitk_1_1SmartPointer.html" target="_top" xlink:title=" ">
<polygon fill="white" stroke="black" points="826.5,-34.12 826.5,-64.12 933.5,-64.12 933.5,-34.12 826.5,-34.12"/>
<text text-anchor="start" x="834.5" y="-52.12" font-family="Helvetica,sans-Serif" font-size="10.00">itk::SmartPointer&lt;</text>
<text text-anchor="middle" x="880" y="-41.12" font-family="Helvetica,sans-Serif" font-size="10.00"> Self &gt;</text>
</a>
</g>
</g>
<!-- Node27&#45;&gt;Node1 -->
<g id="edge48" class="edge">
<title>Node27&#45;&gt;Node1</title>
<path fill="none" stroke="#9a32cd" stroke-dasharray="5,2" d="M943.93,-43.91C1009.83,-38.91 1116.36,-32.12 1208.5,-32.12 1208.5,-32.12 1208.5,-32.12 2672.5,-32.12 2722.05,-32.12 2777.46,-42 2818.01,-51.11"/>
<polygon fill="#9a32cd" stroke="#9a32cd" points="943.41,-40.44 933.71,-44.69 943.95,-47.42 943.41,-40.44"/>
<text text-anchor="middle" x="1817.5" y="-57.12" font-family="Helvetica,sans-Serif" font-size="10.00"> m_BoundingBox</text>
<text text-anchor="middle" x="1817.5" y="-46.12" font-family="Helvetica,sans-Serif" font-size="10.00">m_Decimation</text>
<text text-anchor="middle" x="1817.5" y="-35.12" font-family="Helvetica,sans-Serif" font-size="10.00">m_Criterion</text>
</g>
<!-- Node27&#45;&gt;Node26 -->
<g id="edge35" class="edge">
<title>Node27&#45;&gt;Node26</title>
<path fill="none" stroke="#9a32cd" stroke-dasharray="5,2" d="M943.67,-51.44C989.13,-53.57 1052.02,-57.44 1107,-64.12 1114.02,-64.97 1121.29,-65.99 1128.56,-67.1"/>
<polygon fill="#9a32cd" stroke="#9a32cd" points="943.82,-47.94 933.67,-50.98 943.5,-54.93 943.82,-47.94"/>
<text text-anchor="middle" x="1036" y="-67.12" font-family="Helvetica,sans-Serif" font-size="10.00"> elements</text>
</g>
<!-- Node28 -->
<g id="node28" class="node">
<title>Node28</title>
<g id="a_node28"><a xlink:href="classitk_1_1SmartPointer.html" target="_top" xlink:title="Implements transparent reference counting.">
<polygon fill="white" stroke="black" points="492,-55.12 492,-85.12 599,-85.12 599,-55.12 492,-55.12"/>
<text text-anchor="start" x="500" y="-73.12" font-family="Helvetica,sans-Serif" font-size="10.00">itk::SmartPointer&lt;</text>
<text text-anchor="middle" x="545.5" y="-62.12" font-family="Helvetica,sans-Serif" font-size="10.00"> TObjectType &gt;</text>
</a>
</g>
</g>
<!-- Node28&#45;&gt;Node27 -->
<g id="edge36" class="edge">
<title>Node28&#45;&gt;Node27</title>
<path fill="none" stroke="orange" stroke-dasharray="5,2" d="M609.26,-63.43C622.06,-62.21 635.46,-61.03 648,-60.12 709.07,-55.66 779.35,-52.61 826.2,-50.87"/>
<polygon fill="orange" stroke="orange" points="608.75,-59.97 599.14,-64.42 609.43,-66.93 608.75,-59.97"/>
<text text-anchor="middle" x="721.5" y="-63.12" font-family="Helvetica,sans-Serif" font-size="10.00"> &lt; Self &gt;</text>
</g>
<!-- Node29 -->
<g id="node29" class="node">
<title>Node29</title>
<g id="a_node29"><a xlink:href="classitk_1_1SmartPointer.html" target="_top" xlink:title=" ">
<polygon fill="white" stroke="black" points="965,-82.12 965,-112.12 1107,-112.12 1107,-82.12 965,-82.12"/>
<text text-anchor="start" x="973" y="-100.12" font-family="Helvetica,sans-Serif" font-size="10.00">itk::SmartPointer&lt;</text>
<text text-anchor="middle" x="1036" y="-89.12" font-family="Helvetica,sans-Serif" font-size="10.00"> itk::MultiThreaderBase &gt;</text>
</a>
</g>
</g>
<!-- Node28&#45;&gt;Node29 -->
<g id="edge40" class="edge">
<title>Node28&#45;&gt;Node29</title>
<path fill="none" stroke="orange" stroke-dasharray="5,2" d="M609.45,-73.6C700.81,-78.65 869.59,-87.97 964.83,-93.24"/>
<polygon fill="orange" stroke="orange" points="609.42,-70.09 599.24,-73.03 609.03,-77.08 609.42,-70.09"/>
<text text-anchor="middle" x="721.5" y="-87.12" font-family="Helvetica,sans-Serif" font-size="10.00"> &lt; itk::MultiThreaderBase &gt;</text>
</g>
<!-- Node29&#45;&gt;Node5 -->
<g id="edge39" class="edge">
<title>Node29&#45;&gt;Node5</title>
<path fill="none" stroke="#9a32cd" stroke-dasharray="5,2" d="M1117.39,-106.56C1204.39,-119.26 1345.24,-147.18 1454,-204.12 1478.23,-216.8 1501.76,-238.99 1514.09,-251.61"/>
<polygon fill="#9a32cd" stroke="#9a32cd" points="1117.71,-103.07 1107.32,-105.12 1116.72,-110 1117.71,-103.07"/>
<text text-anchor="middle" x="1209.5" y="-145.12" font-family="Helvetica,sans-Serif" font-size="10.00"> m_MultiThreader</text>
</g>
<!-- Node30&#45;&gt;Node4 -->
<g id="edge42" class="edge">
<title>Node30&#45;&gt;Node4</title>
<path fill="none" stroke="orange" stroke-dasharray="5,2" d="M1768.48,-221.27C1802.66,-223 1842.36,-225.01 1876.96,-226.76"/>
<polygon fill="orange" stroke="orange" points="1768.23,-217.75 1758.07,-220.74 1767.88,-224.74 1768.23,-217.75"/>
<text text-anchor="middle" x="1817.5" y="-229.12" font-family="Helvetica,sans-Serif" font-size="10.00"> &lt; TInputMesh &gt;</text>
</g>
<!-- Node31 -->
<g id="node31" class="node">
<title>Node31</title>
<g id="a_node31"><a xlink:href="classitk_1_1MeshToMeshFilter.html" target="_top" xlink:title="MeshToMeshFilter is the base class for all process objects that output mesh data, and require mesh da...">
<polygon fill="white" stroke="black" points="1880.5,-172.12 1880.5,-202.12 2047.5,-202.12 2047.5,-172.12 1880.5,-172.12"/>
<text text-anchor="start" x="1888.5" y="-190.12" font-family="Helvetica,sans-Serif" font-size="10.00">itk::MeshToMeshFilter</text>
<text text-anchor="middle" x="1964" y="-179.12" font-family="Helvetica,sans-Serif" font-size="10.00">&lt; TInputMesh, TOutputMesh &gt;</text>
</a>
</g>
</g>
<!-- Node30&#45;&gt;Node31 -->
<g id="edge45" class="edge">
<title>Node30&#45;&gt;Node31</title>
<path fill="none" stroke="midnightblue" d="M1768.35,-208.24C1803.72,-204.4 1845.03,-199.92 1880.47,-196.07"/>
<polygon fill="midnightblue" stroke="midnightblue" points="1767.63,-204.79 1758.07,-209.35 1768.38,-211.75 1767.63,-204.79"/>
</g>
<!-- Node31&#45;&gt;Node3 -->
<g id="edge44" class="edge">
<title>Node31&#45;&gt;Node3</title>
<path fill="none" stroke="orange" stroke-dasharray="5,2" d="M2057.94,-192.27C2105.01,-194.89 2163.04,-198.14 2215,-201.12 2222.74,-201.56 2230.81,-202.03 2238.88,-202.49"/>
<polygon fill="orange" stroke="orange" points="2057.95,-188.76 2047.77,-191.7 2057.56,-195.75 2057.95,-188.76"/>
<text text-anchor="middle" x="2142" y="-204.12" font-family="Helvetica,sans-Serif" font-size="10.00"> &lt; TInputMesh, TInputMesh &gt;</text>
</g>
<!-- Node32 -->
<g id="node32" class="node">
<title>Node32</title>
<g id="a_node32"><a xlink:href="classitk_1_1QuadEdgeMeshToQuadEdgeMeshFilter.html" target="_top" xlink:title="Duplicates the content of a Mesh.">
<polygon fill="white" stroke="black" points="2233,-131.62 2233,-172.62 2404,-172.62 2404,-131.62 2233,-131.62"/>
<text text-anchor="start" x="2241" y="-160.62" font-family="Helvetica,sans-Serif" font-size="10.00">itk::QuadEdgeMeshToQuadEdge</text>
<text text-anchor="start" x="2241" y="-149.62" font-family="Helvetica,sans-Serif" font-size="10.00">MeshFilter&lt; TInputMesh,</text>
<text text-anchor="middle" x="2318.5" y="-138.62" font-family="Helvetica,sans-Serif" font-size="10.00"> TOutputMesh &gt;</text>
</a>
</g>
</g>
<!-- Node31&#45;&gt;Node32 -->
<g id="edge47" class="edge">
<title>Node31&#45;&gt;Node32</title>
<path fill="none" stroke="midnightblue" d="M2057.62,-177.92C2111.94,-172.53 2180.06,-165.76 2232.92,-160.51"/>
<polygon fill="midnightblue" stroke="midnightblue" points="2057.25,-174.44 2047.65,-178.91 2057.94,-181.41 2057.25,-174.44"/>
</g>
<!-- Node32&#45;&gt;Node2 -->
<g id="edge46" class="edge">
<title>Node32&#45;&gt;Node2</title>
<path fill="none" stroke="orange" stroke-dasharray="5,2" d="M2414.2,-152.12C2467.7,-152.12 2534.03,-152.12 2585.8,-152.12"/>
<polygon fill="orange" stroke="orange" points="2414.02,-148.62 2404.02,-152.12 2414.02,-155.62 2414.02,-148.62"/>
<text text-anchor="middle" x="2495" y="-155.12" font-family="Helvetica,sans-Serif" font-size="10.00"> &lt; TInputMesh, TInputMesh &gt;</text>
</g>
</g>
</svg>
