<?xml version="1.0" encoding="UTF-8" standalone="no"?>
<!DOCTYPE svg PUBLIC "-//W3C//DTD SVG 1.1//EN"
 "http://www.w3.org/Graphics/SVG/1.1/DTD/svg11.dtd">
<!-- Generated by graphviz version 2.43.0 (0)
 -->
<!-- Title: itk::LevenbergMarquardtOptimizer Pages: 1 -->
<svg width="2855pt" height="393pt"
 viewBox="0.00 0.00 2855.00 393.00" xmlns="http://www.w3.org/2000/svg" xmlns:xlink="http://www.w3.org/1999/xlink">
<g id="graph0" class="graph" transform="scale(1 1) rotate(0) translate(4 389)">
<title>itk::LevenbergMarquardtOptimizer</title>
<polygon fill="white" stroke="transparent" points="-4,4 -4,-389 2851,-389 2851,4 -4,4"/>
<!-- Node1 -->
<g id="node1" class="node">
<title>Node1</title>
<g id="a_node1"><a xlink:title="Wrap of the vnl_levenberg_marquardt algorithm.">
<polygon fill="#bfbfbf" stroke="black" points="2662,-137.5 2662,-156.5 2847,-156.5 2847,-137.5 2662,-137.5"/>
<text text-anchor="middle" x="2754.5" y="-144.5" font-family="Helvetica,sans-Serif" font-size="10.00">itk::LevenbergMarquardtOptimizer</text>
</a>
</g>
</g>
<!-- Node2 -->
<g id="node2" class="node">
<title>Node2</title>
<g id="a_node2"><a xlink:href="classitk_1_1MultipleValuedNonLinearVnlOptimizer.html" target="_top" xlink:title="This class is a base for the Optimization methods that optimize a multi&#45;valued function.">
<polygon fill="white" stroke="black" points="2386,-176 2386,-206 2544,-206 2544,-176 2386,-176"/>
<text text-anchor="start" x="2394" y="-194" font-family="Helvetica,sans-Serif" font-size="10.00">itk::MultipleValuedNonLinear</text>
<text text-anchor="middle" x="2465" y="-183" font-family="Helvetica,sans-Serif" font-size="10.00">VnlOptimizer</text>
</a>
</g>
</g>
<!-- Node2&#45;&gt;Node1 -->
<g id="edge1" class="edge">
<title>Node2&#45;&gt;Node1</title>
<path fill="none" stroke="midnightblue" d="M2554.09,-177.52C2598.45,-170.73 2651.18,-162.66 2691.26,-156.52"/>
<polygon fill="midnightblue" stroke="midnightblue" points="2553.54,-174.06 2544.18,-179.03 2554.6,-180.98 2553.54,-174.06"/>
</g>
<!-- Node3 -->
<g id="node3" class="node">
<title>Node3</title>
<g id="a_node3"><a xlink:href="classitk_1_1MultipleValuedNonLinearOptimizer.html" target="_top" xlink:title="This class is a base for the Optimization methods that optimize a multiple valued function.">
<polygon fill="white" stroke="black" points="2064,-132 2064,-162 2222,-162 2222,-132 2064,-132"/>
<text text-anchor="start" x="2072" y="-150" font-family="Helvetica,sans-Serif" font-size="10.00">itk::MultipleValuedNonLinear</text>
<text text-anchor="middle" x="2143" y="-139" font-family="Helvetica,sans-Serif" font-size="10.00">Optimizer</text>
</a>
</g>
</g>
<!-- Node3&#45;&gt;Node2 -->
<g id="edge2" class="edge">
<title>Node3&#45;&gt;Node2</title>
<path fill="none" stroke="midnightblue" d="M2232.07,-158.55C2273.36,-164.03 2323.22,-170.74 2368,-177 2373.84,-177.82 2379.87,-178.67 2385.95,-179.54"/>
<polygon fill="midnightblue" stroke="midnightblue" points="2232.41,-155.07 2222.04,-157.22 2231.49,-162.01 2232.41,-155.07"/>
</g>
<!-- Node4 -->
<g id="node4" class="node">
<title>Node4</title>
<g id="a_node4"><a xlink:href="classitk_1_1NonLinearOptimizer.html" target="_top" xlink:title="Wrap of the vnl_nonlinear_minimizer to be adapted.">
<polygon fill="white" stroke="black" points="1811.5,-96.5 1811.5,-115.5 1944.5,-115.5 1944.5,-96.5 1811.5,-96.5"/>
<text text-anchor="middle" x="1878" y="-103.5" font-family="Helvetica,sans-Serif" font-size="10.00">itk::NonLinearOptimizer</text>
</a>
</g>
</g>
<!-- Node4&#45;&gt;Node3 -->
<g id="edge3" class="edge">
<title>Node4&#45;&gt;Node3</title>
<path fill="none" stroke="midnightblue" d="M1950.18,-117.1C1985.32,-122.57 2027.8,-129.2 2063.85,-134.82"/>
<polygon fill="midnightblue" stroke="midnightblue" points="1950.42,-113.59 1940,-115.51 1949.34,-120.51 1950.42,-113.59"/>
</g>
<!-- Node5 -->
<g id="node5" class="node">
<title>Node5</title>
<g id="a_node5"><a xlink:href="classitk_1_1Optimizer.html" target="_top" xlink:title="Generic representation for an optimization method.">
<polygon fill="white" stroke="black" points="1547,-116.5 1547,-135.5 1630,-135.5 1630,-116.5 1547,-116.5"/>
<text text-anchor="middle" x="1588.5" y="-123.5" font-family="Helvetica,sans-Serif" font-size="10.00">itk::Optimizer</text>
</a>
</g>
</g>
<!-- Node5&#45;&gt;Node4 -->
<g id="edge4" class="edge">
<title>Node5&#45;&gt;Node4</title>
<path fill="none" stroke="midnightblue" d="M1640.17,-122.48C1687.83,-119.16 1759.43,-114.18 1811.43,-110.56"/>
<polygon fill="midnightblue" stroke="midnightblue" points="1639.81,-118.99 1630.08,-123.18 1640.3,-125.97 1639.81,-118.99"/>
</g>
<!-- Node6 -->
<g id="node6" class="node">
<title>Node6</title>
<g id="a_node6"><a xlink:href="classitk_1_1Object.html" target="_top" xlink:title="Base class for most ITK classes.">
<polygon fill="white" stroke="black" points="1281,-94.5 1281,-113.5 1348,-113.5 1348,-94.5 1281,-94.5"/>
<text text-anchor="middle" x="1314.5" y="-101.5" font-family="Helvetica,sans-Serif" font-size="10.00">itk::Object</text>
</a>
</g>
</g>
<!-- Node6&#45;&gt;Node5 -->
<g id="edge5" class="edge">
<title>Node6&#45;&gt;Node5</title>
<path fill="none" stroke="midnightblue" d="M1358.2,-107.45C1409.89,-111.63 1496.27,-118.62 1546.96,-122.72"/>
<polygon fill="midnightblue" stroke="midnightblue" points="1358.29,-103.95 1348.04,-106.63 1357.72,-110.93 1358.29,-103.95"/>
</g>
<!-- Node7 -->
<g id="node7" class="node">
<title>Node7</title>
<g id="a_node7"><a xlink:href="classitk_1_1LightObject.html" target="_top" xlink:title="Light weight base class for most itk classes.">
<polygon fill="white" stroke="black" points="945.5,-3.5 945.5,-22.5 1036.5,-22.5 1036.5,-3.5 945.5,-3.5"/>
<text text-anchor="middle" x="991" y="-10.5" font-family="Helvetica,sans-Serif" font-size="10.00">itk::LightObject</text>
</a>
</g>
</g>
<!-- Node7&#45;&gt;Node6 -->
<g id="edge6" class="edge">
<title>Node7&#45;&gt;Node6</title>
<path fill="none" stroke="midnightblue" d="M1046.6,-20.04C1094.92,-27.23 1166.9,-40.32 1227,-61 1252.69,-69.84 1280.51,-84.71 1297.47,-94.44"/>
<polygon fill="midnightblue" stroke="midnightblue" points="1047.06,-16.57 1036.66,-18.6 1046.05,-23.5 1047.06,-16.57"/>
</g>
<!-- Node8 -->
<g id="node8" class="node">
<title>Node8</title>
<g id="a_node8"><a xlink:title=" ">
<polygon fill="white" stroke="black" points="650,-0.5 650,-19.5 757,-19.5 757,-0.5 650,-0.5"/>
<text text-anchor="middle" x="703.5" y="-7.5" font-family="Helvetica,sans-Serif" font-size="10.00">std::atomic&lt; int &gt;</text>
</a>
</g>
</g>
<!-- Node8&#45;&gt;Node7 -->
<g id="edge7" class="edge">
<title>Node8&#45;&gt;Node7</title>
<path fill="none" stroke="#9a32cd" stroke-dasharray="5,2" d="M767.31,-10.66C821.11,-11.23 897.26,-12.03 945.12,-12.53"/>
<polygon fill="#9a32cd" stroke="#9a32cd" points="767.23,-7.16 757.2,-10.55 767.16,-14.16 767.23,-7.16"/>
<text text-anchor="middle" x="839.5" y="-15" font-family="Helvetica,sans-Serif" font-size="10.00"> m_ReferenceCount</text>
</g>
<!-- Node9 -->
<g id="node9" class="node">
<title>Node9</title>
<g id="a_node9"><a xlink:href="classitk_1_1TimeStamp.html" target="_top" xlink:title="Generate a unique, increasing time value.">
<polygon fill="white" stroke="black" points="524,-179.5 524,-198.5 616,-198.5 616,-179.5 524,-179.5"/>
<text text-anchor="middle" x="570" y="-186.5" font-family="Helvetica,sans-Serif" font-size="10.00">itk::TimeStamp</text>
</a>
</g>
</g>
<!-- Node9&#45;&gt;Node6 -->
<g id="edge8" class="edge">
<title>Node9&#45;&gt;Node6</title>
<path fill="none" stroke="#9a32cd" stroke-dasharray="5,2" d="M626.4,-194.29C741.42,-203.41 1013.22,-215.16 1227,-148 1253.52,-139.67 1281.79,-123.8 1298.53,-113.57"/>
<polygon fill="#9a32cd" stroke="#9a32cd" points="626.34,-190.78 616.09,-193.45 625.77,-197.75 626.34,-190.78"/>
<text text-anchor="middle" x="839.5" y="-205" font-family="Helvetica,sans-Serif" font-size="10.00"> m_MTime</text>
</g>
<!-- Node10 -->
<g id="node10" class="node">
<title>Node10</title>
<g id="a_node10"><a xlink:title=" ">
<polygon fill="white" stroke="black" points="114.5,-179.5 114.5,-198.5 214.5,-198.5 214.5,-179.5 114.5,-179.5"/>
<text text-anchor="middle" x="164.5" y="-186.5" font-family="Helvetica,sans-Serif" font-size="10.00">std::atomic&lt; T &gt;</text>
</a>
</g>
</g>
<!-- Node10&#45;&gt;Node9 -->
<g id="edge9" class="edge">
<title>Node10&#45;&gt;Node9</title>
<path fill="none" stroke="#9a32cd" stroke-dasharray="5,2" d="M224.66,-189C306.06,-189 450.8,-189 523.98,-189"/>
<polygon fill="#9a32cd" stroke="#9a32cd" points="224.57,-185.5 214.57,-189 224.57,-192.5 224.57,-185.5"/>
<text text-anchor="middle" x="286" y="-192" font-family="Helvetica,sans-Serif" font-size="10.00"> m_GlobalTimeStamp</text>
</g>
<!-- Node11 -->
<g id="node11" class="node">
<title>Node11</title>
<g id="a_node11"><a xlink:title=" ">
<polygon fill="white" stroke="black" points="0,-164.5 0,-183.5 29,-183.5 29,-164.5 0,-164.5"/>
<text text-anchor="middle" x="14.5" y="-171.5" font-family="Helvetica,sans-Serif" font-size="10.00">T</text>
</a>
</g>
</g>
<!-- Node11&#45;&gt;Node10 -->
<g id="edge10" class="edge">
<title>Node11&#45;&gt;Node10</title>
<path fill="none" stroke="#9a32cd" stroke-dasharray="5,2" d="M39.33,-176.42C59.54,-178.46 89.19,-181.47 114.45,-184.03"/>
<polygon fill="#9a32cd" stroke="#9a32cd" points="39.46,-172.91 29.16,-175.38 38.75,-179.87 39.46,-172.91"/>
<text text-anchor="middle" x="71.5" y="-185" font-family="Helvetica,sans-Serif" font-size="10.00"> ptr</text>
</g>
<!-- Node16 -->
<g id="node16" class="node">
<title>Node16</title>
<g id="a_node16"><a xlink:title=" ">
<polygon fill="white" stroke="black" points="114,-135.5 114,-154.5 215,-154.5 215,-135.5 114,-135.5"/>
<text text-anchor="middle" x="164.5" y="-142.5" font-family="Helvetica,sans-Serif" font-size="10.00">std::map&lt; K, T &gt;</text>
</a>
</g>
</g>
<!-- Node11&#45;&gt;Node16 -->
<g id="edge17" class="edge">
<title>Node11&#45;&gt;Node16</title>
<path fill="none" stroke="#9a32cd" stroke-dasharray="5,2" d="M38.74,-165.35C41.51,-164.48 44.3,-163.67 47,-163 68.64,-157.6 92.98,-153.53 113.78,-150.64"/>
<polygon fill="#9a32cd" stroke="#9a32cd" points="37.47,-162.09 29.13,-168.63 39.73,-168.71 37.47,-162.09"/>
<text text-anchor="middle" x="71.5" y="-166" font-family="Helvetica,sans-Serif" font-size="10.00"> elements</text>
</g>
<!-- Node12 -->
<g id="node12" class="node">
<title>Node12</title>
<g id="a_node12"><a xlink:title=" ">
<polygon fill="white" stroke="black" points="922.5,-81 922.5,-111 1059.5,-111 1059.5,-81 922.5,-81"/>
<text text-anchor="start" x="930.5" y="-99" font-family="Helvetica,sans-Serif" font-size="10.00">std::unique_ptr&lt; Subject</text>
<text text-anchor="middle" x="991" y="-88" font-family="Helvetica,sans-Serif" font-size="10.00">Implementation &gt;</text>
</a>
</g>
</g>
<!-- Node12&#45;&gt;Node6 -->
<g id="edge11" class="edge">
<title>Node12&#45;&gt;Node6</title>
<path fill="none" stroke="#9a32cd" stroke-dasharray="5,2" d="M1069.95,-97.94C1137.37,-99.62 1231.51,-101.96 1280.67,-103.18"/>
<polygon fill="#9a32cd" stroke="#9a32cd" points="1069.87,-94.44 1059.79,-97.69 1069.7,-101.43 1069.87,-94.44"/>
<text text-anchor="middle" x="1160.5" y="-105" font-family="Helvetica,sans-Serif" font-size="10.00"> m_SubjectImplementation</text>
</g>
<!-- Node13 -->
<g id="node13" class="node">
<title>Node13</title>
<g id="a_node13"><a xlink:title=" ">
<polygon fill="white" stroke="black" points="925,-130 925,-160 1057,-160 1057,-130 925,-130"/>
<text text-anchor="start" x="933" y="-148" font-family="Helvetica,sans-Serif" font-size="10.00">std::unique_ptr&lt; itk</text>
<text text-anchor="middle" x="991" y="-137" font-family="Helvetica,sans-Serif" font-size="10.00">::MetaDataDictionary &gt;</text>
</a>
</g>
</g>
<!-- Node13&#45;&gt;Node6 -->
<g id="edge12" class="edge">
<title>Node13&#45;&gt;Node6</title>
<path fill="none" stroke="#9a32cd" stroke-dasharray="5,2" d="M1067.33,-136C1113.46,-130.41 1173.66,-122.99 1227,-116 1244.74,-113.68 1264.5,-110.94 1280.66,-108.68"/>
<polygon fill="#9a32cd" stroke="#9a32cd" points="1066.63,-132.56 1057.12,-137.23 1067.47,-139.51 1066.63,-132.56"/>
<text text-anchor="middle" x="1160.5" y="-136" font-family="Helvetica,sans-Serif" font-size="10.00"> m_MetaDataDictionary</text>
</g>
<!-- Node14 -->
<g id="node14" class="node">
<title>Node14</title>
<g id="a_node14"><a xlink:href="classitk_1_1MetaDataDictionary.html" target="_top" xlink:title="Provides a mechanism for storing a collection of arbitrary data types.">
<polygon fill="white" stroke="black" points="636.5,-135.5 636.5,-154.5 770.5,-154.5 770.5,-135.5 636.5,-135.5"/>
<text text-anchor="middle" x="703.5" y="-142.5" font-family="Helvetica,sans-Serif" font-size="10.00">itk::MetaDataDictionary</text>
</a>
</g>
</g>
<!-- Node14&#45;&gt;Node13 -->
<g id="edge13" class="edge">
<title>Node14&#45;&gt;Node13</title>
<path fill="none" stroke="#9a32cd" stroke-dasharray="5,2" d="M780.98,-145C825.82,-145 881.87,-145 924.63,-145"/>
<polygon fill="#9a32cd" stroke="#9a32cd" points="780.72,-141.5 770.72,-145 780.72,-148.5 780.72,-141.5"/>
<text text-anchor="middle" x="839.5" y="-148" font-family="Helvetica,sans-Serif" font-size="10.00"> ptr</text>
</g>
<!-- Node15 -->
<g id="node15" class="node">
<title>Node15</title>
<g id="a_node15"><a xlink:title=" ">
<polygon fill="white" stroke="black" points="357,-130 357,-160 506,-160 506,-130 357,-130"/>
<text text-anchor="start" x="365" y="-148" font-family="Helvetica,sans-Serif" font-size="10.00">std::shared_ptr&lt; MetaData</text>
<text text-anchor="middle" x="431.5" y="-137" font-family="Helvetica,sans-Serif" font-size="10.00">DictionaryMapType &gt;</text>
</a>
</g>
</g>
<!-- Node15&#45;&gt;Node14 -->
<g id="edge14" class="edge">
<title>Node15&#45;&gt;Node14</title>
<path fill="none" stroke="#9a32cd" stroke-dasharray="5,2" d="M516.45,-145C555,-145 600.07,-145 636.19,-145"/>
<polygon fill="#9a32cd" stroke="#9a32cd" points="516.28,-141.5 506.28,-145 516.28,-148.5 516.28,-141.5"/>
<text text-anchor="middle" x="570" y="-148" font-family="Helvetica,sans-Serif" font-size="10.00"> m_Dictionary</text>
</g>
<!-- Node16&#45;&gt;Node15 -->
<g id="edge15" class="edge">
<title>Node16&#45;&gt;Node15</title>
<path fill="none" stroke="#9a32cd" stroke-dasharray="5,2" d="M225.18,-145C264.19,-145 315.41,-145 356.93,-145"/>
<polygon fill="#9a32cd" stroke="#9a32cd" points="225.03,-141.5 215.03,-145 225.03,-148.5 225.03,-141.5"/>
<text text-anchor="middle" x="286" y="-148" font-family="Helvetica,sans-Serif" font-size="10.00"> ptr</text>
</g>
<!-- Node17 -->
<g id="node17" class="node">
<title>Node17</title>
<g id="a_node17"><a xlink:title=" ">
<polygon fill="white" stroke="black" points="0,-111.5 0,-130.5 29,-130.5 29,-111.5 0,-111.5"/>
<text text-anchor="middle" x="14.5" y="-118.5" font-family="Helvetica,sans-Serif" font-size="10.00">K</text>
</a>
</g>
</g>
<!-- Node17&#45;&gt;Node16 -->
<g id="edge16" class="edge">
<title>Node17&#45;&gt;Node16</title>
<path fill="none" stroke="#9a32cd" stroke-dasharray="5,2" d="M39.17,-119.35C55.3,-118.69 77.09,-118.75 96,-122 111.5,-124.67 128.23,-130.35 141.16,-135.4"/>
<polygon fill="#9a32cd" stroke="#9a32cd" points="38.81,-115.86 29.01,-119.88 39.18,-122.85 38.81,-115.86"/>
<text text-anchor="middle" x="71.5" y="-125" font-family="Helvetica,sans-Serif" font-size="10.00"> keys</text>
</g>
<!-- Node18 -->
<g id="node18" class="node">
<title>Node18</title>
<g id="a_node18"><a xlink:title=" ">
<polygon fill="white" stroke="black" points="958.5,-42.5 958.5,-61.5 1023.5,-61.5 1023.5,-42.5 958.5,-42.5"/>
<text text-anchor="middle" x="991" y="-49.5" font-family="Helvetica,sans-Serif" font-size="10.00">std::string</text>
</a>
</g>
</g>
<!-- Node18&#45;&gt;Node6 -->
<g id="edge18" class="edge">
<title>Node18&#45;&gt;Node6</title>
<path fill="none" stroke="#9a32cd" stroke-dasharray="5,2" d="M1033.83,-56.52C1080.97,-61.89 1159.79,-71.68 1227,-84 1244.89,-87.28 1264.67,-91.78 1280.79,-95.69"/>
<polygon fill="#9a32cd" stroke="#9a32cd" points="1034.02,-53.02 1023.7,-55.38 1033.24,-59.98 1034.02,-53.02"/>
<text text-anchor="middle" x="1160.5" y="-87" font-family="Helvetica,sans-Serif" font-size="10.00"> m_ObjectName</text>
</g>
<!-- Node19 -->
<g id="node19" class="node">
<title>Node19</title>
<g id="a_node19"><a xlink:title=" ">
<polygon fill="white" stroke="black" points="651.5,-39 651.5,-69 755.5,-69 755.5,-39 651.5,-39"/>
<text text-anchor="start" x="659.5" y="-57" font-family="Helvetica,sans-Serif" font-size="10.00">std::basic_string&lt;</text>
<text text-anchor="middle" x="703.5" y="-46" font-family="Helvetica,sans-Serif" font-size="10.00"> Char &gt;</text>
</a>
</g>
</g>
<!-- Node19&#45;&gt;Node18 -->
<g id="edge19" class="edge">
<title>Node19&#45;&gt;Node18</title>
<path fill="none" stroke="midnightblue" d="M765.88,-53.57C825.01,-53.16 912.12,-52.55 958.4,-52.22"/>
<polygon fill="midnightblue" stroke="midnightblue" points="765.52,-50.07 755.54,-53.64 765.57,-57.07 765.52,-50.07"/>
</g>
<!-- Node20 -->
<g id="node20" class="node">
<title>Node20</title>
<g id="a_node20"><a xlink:href="classitk_1_1OptimizerParameters.html" target="_top" xlink:title=" ">
<polygon fill="white" stroke="black" points="1245,-213 1245,-243 1384,-243 1384,-213 1245,-213"/>
<text text-anchor="start" x="1253" y="-231" font-family="Helvetica,sans-Serif" font-size="10.00">itk::OptimizerParameters</text>
<text text-anchor="middle" x="1314.5" y="-220" font-family="Helvetica,sans-Serif" font-size="10.00">&lt; double &gt;</text>
</a>
</g>
</g>
<!-- Node20&#45;&gt;Node2 -->
<g id="edge35" class="edge">
<title>Node20&#45;&gt;Node2</title>
<path fill="none" stroke="#9a32cd" stroke-dasharray="5,2" d="M1394.31,-239.54C1448.51,-246.49 1522.21,-254 1587.5,-254 1587.5,-254 1587.5,-254 2144,-254 2242.95,-254 2355.92,-224.64 2417.66,-206.01"/>
<polygon fill="#9a32cd" stroke="#9a32cd" points="1394.45,-236.02 1384.08,-238.2 1393.54,-242.97 1394.45,-236.02"/>
<text text-anchor="middle" x="1878" y="-257" font-family="Helvetica,sans-Serif" font-size="10.00"> m_CachedCurrentPosition</text>
</g>
<!-- Node20&#45;&gt;Node5 -->
<g id="edge20" class="edge">
<title>Node20&#45;&gt;Node5</title>
<path fill="none" stroke="#9a32cd" stroke-dasharray="5,2" d="M1365.33,-209.31C1423.38,-187.55 1517.03,-152.43 1561.91,-135.6"/>
<polygon fill="#9a32cd" stroke="#9a32cd" points="1363.77,-206.16 1355.63,-212.95 1366.23,-212.72 1363.77,-206.16"/>
<text text-anchor="middle" x="1449" y="-210" font-family="Helvetica,sans-Serif" font-size="10.00"> m_CurrentPosition</text>
<text text-anchor="middle" x="1449" y="-199" font-family="Helvetica,sans-Serif" font-size="10.00">m_InitialPosition</text>
</g>
<!-- Node21 -->
<g id="node21" class="node">
<title>Node21</title>
<g id="a_node21"><a xlink:href="classitk_1_1Array.html" target="_top" xlink:title=" ">
<polygon fill="white" stroke="black" points="932.5,-270.5 932.5,-289.5 1049.5,-289.5 1049.5,-270.5 932.5,-270.5"/>
<text text-anchor="middle" x="991" y="-277.5" font-family="Helvetica,sans-Serif" font-size="10.00">itk::Array&lt; double &gt;</text>
</a>
</g>
</g>
<!-- Node21&#45;&gt;Node5 -->
<g id="edge25" class="edge">
<title>Node21&#45;&gt;Node5</title>
<path fill="none" stroke="#9a32cd" stroke-dasharray="5,2" d="M1059.72,-282.06C1182.74,-284.27 1435.76,-281.25 1496,-222 1516.76,-201.58 1494.94,-181.02 1514,-159 1523.43,-148.11 1537.17,-140.64 1550.23,-135.6"/>
<polygon fill="#9a32cd" stroke="#9a32cd" points="1059.73,-278.56 1049.66,-281.86 1059.59,-285.56 1059.73,-278.56"/>
<text text-anchor="middle" x="1314.5" y="-292" font-family="Helvetica,sans-Serif" font-size="10.00"> m_InverseScales</text>
<text text-anchor="middle" x="1314.5" y="-281" font-family="Helvetica,sans-Serif" font-size="10.00">m_Scales</text>
</g>
<!-- Node21&#45;&gt;Node20 -->
<g id="edge21" class="edge">
<title>Node21&#45;&gt;Node20</title>
<path fill="none" stroke="midnightblue" d="M1059.75,-269.04C1114.19,-260.24 1190.31,-247.93 1244.95,-239.09"/>
<polygon fill="midnightblue" stroke="midnightblue" points="1059.16,-265.59 1049.85,-270.64 1060.28,-272.5 1059.16,-265.59"/>
</g>
<!-- Node27 -->
<g id="node27" class="node">
<title>Node27</title>
<g id="a_node27"><a xlink:href="classitk_1_1MultipleValuedVnlCostFunctionAdaptor.html" target="_top" xlink:title="This class is an Adaptor that allows to pass itk::MultipleValuedCostFunctions to vnl_optimizers expec...">
<polygon fill="white" stroke="black" points="1805,-288 1805,-318 1951,-318 1951,-288 1805,-288"/>
<text text-anchor="start" x="1813" y="-306" font-family="Helvetica,sans-Serif" font-size="10.00">itk::MultipleValuedVnlCost</text>
<text text-anchor="middle" x="1878" y="-295" font-family="Helvetica,sans-Serif" font-size="10.00">FunctionAdaptor</text>
</a>
</g>
</g>
<!-- Node21&#45;&gt;Node27 -->
<g id="edge31" class="edge">
<title>Node21&#45;&gt;Node27</title>
<path fill="none" stroke="#9a32cd" stroke-dasharray="5,2" d="M1027.81,-293.03C1076.27,-309.9 1165.8,-338.39 1245,-349 1429.13,-373.66 1477.65,-361.65 1663,-349 1718.5,-345.21 1732.76,-344.36 1787,-332 1803.01,-328.35 1820.24,-323.13 1835.3,-318.12"/>
<polygon fill="#9a32cd" stroke="#9a32cd" points="1028.71,-289.63 1018.11,-289.61 1026.38,-296.23 1028.71,-289.63"/>
<text text-anchor="middle" x="1449" y="-377" font-family="Helvetica,sans-Serif" font-size="10.00"> m_CachedValue</text>
<text text-anchor="middle" x="1449" y="-366" font-family="Helvetica,sans-Serif" font-size="10.00">m_InverseScales</text>
</g>
<!-- Node22 -->
<g id="node22" class="node">
<title>Node22</title>
<g id="a_node22"><a xlink:title=" ">
<polygon fill="white" stroke="black" points="642,-270.5 642,-289.5 765,-289.5 765,-270.5 642,-270.5"/>
<text text-anchor="middle" x="703.5" y="-277.5" font-family="Helvetica,sans-Serif" font-size="10.00">vnl_vector&lt; double &gt;</text>
</a>
</g>
</g>
<!-- Node22&#45;&gt;Node21 -->
<g id="edge22" class="edge">
<title>Node22&#45;&gt;Node21</title>
<path fill="none" stroke="midnightblue" d="M775.15,-280C823.6,-280 887.09,-280 932.46,-280"/>
<polygon fill="midnightblue" stroke="midnightblue" points="775.05,-276.5 765.05,-280 775.05,-283.5 775.05,-276.5"/>
</g>
<!-- Node23 -->
<g id="node23" class="node">
<title>Node23</title>
<g id="a_node23"><a xlink:title=" ">
<polygon fill="white" stroke="black" points="906,-218 906,-248 1076,-248 1076,-218 906,-218"/>
<text text-anchor="start" x="914" y="-236" font-family="Helvetica,sans-Serif" font-size="10.00">std::unique_ptr&lt; itk</text>
<text text-anchor="middle" x="991" y="-225" font-family="Helvetica,sans-Serif" font-size="10.00">::OptimizerParametersHelper &gt;</text>
</a>
</g>
</g>
<!-- Node23&#45;&gt;Node20 -->
<g id="edge23" class="edge">
<title>Node23&#45;&gt;Node20</title>
<path fill="none" stroke="#9a32cd" stroke-dasharray="5,2" d="M1086.23,-230.16C1088.85,-230.1 1091.44,-230.05 1094,-230 1144.49,-229.03 1201.51,-228.53 1244.78,-228.27"/>
<polygon fill="#9a32cd" stroke="#9a32cd" points="1085.96,-226.66 1076.05,-230.39 1086.12,-233.66 1085.96,-226.66"/>
<text text-anchor="middle" x="1160.5" y="-233" font-family="Helvetica,sans-Serif" font-size="10.00"> m_Helper</text>
</g>
<!-- Node24 -->
<g id="node24" class="node">
<title>Node24</title>
<g id="a_node24"><a xlink:href="classitk_1_1OptimizerParametersHelper.html" target="_top" xlink:title="Basic helper class to manage parameter data as an Array type, the default type.">
<polygon fill="white" stroke="black" points="634,-218 634,-248 773,-248 773,-218 634,-218"/>
<text text-anchor="start" x="642" y="-236" font-family="Helvetica,sans-Serif" font-size="10.00">itk::OptimizerParameters</text>
<text text-anchor="middle" x="703.5" y="-225" font-family="Helvetica,sans-Serif" font-size="10.00">Helper&lt; TValue &gt;</text>
</a>
</g>
</g>
<!-- Node24&#45;&gt;Node23 -->
<g id="edge24" class="edge">
<title>Node24&#45;&gt;Node23</title>
<path fill="none" stroke="#9a32cd" stroke-dasharray="5,2" d="M783.26,-233C821.32,-233 867.04,-233 905.79,-233"/>
<polygon fill="#9a32cd" stroke="#9a32cd" points="783.25,-229.5 773.25,-233 783.25,-236.5 783.25,-229.5"/>
<text text-anchor="middle" x="839.5" y="-236" font-family="Helvetica,sans-Serif" font-size="10.00"> ptr</text>
</g>
<!-- Node25 -->
<g id="node25" class="node">
<title>Node25</title>
<g id="a_node25"><a xlink:href="classitk_1_1SmartPointer.html" target="_top" xlink:title=" ">
<polygon fill="white" stroke="black" points="1535,-169 1535,-199 1642,-199 1642,-169 1535,-169"/>
<text text-anchor="start" x="1543" y="-187" font-family="Helvetica,sans-Serif" font-size="10.00">itk::SmartPointer&lt;</text>
<text text-anchor="middle" x="1588.5" y="-176" font-family="Helvetica,sans-Serif" font-size="10.00"> Self &gt;</text>
</a>
</g>
</g>
<!-- Node25&#45;&gt;Node2 -->
<g id="edge34" class="edge">
<title>Node25&#45;&gt;Node2</title>
<path fill="none" stroke="#9a32cd" stroke-dasharray="5,2" d="M1652.62,-184.51C1809.07,-185.76 2214.45,-189 2385.76,-190.37"/>
<polygon fill="#9a32cd" stroke="#9a32cd" points="1652.26,-181 1642.23,-184.42 1652.21,-188 1652.26,-181"/>
<text text-anchor="middle" x="2003.5" y="-191" font-family="Helvetica,sans-Serif" font-size="10.00"> m_Command</text>
</g>
<!-- Node25&#45;&gt;Node3 -->
<g id="edge26" class="edge">
<title>Node25&#45;&gt;Node3</title>
<path fill="none" stroke="#9a32cd" stroke-dasharray="5,2" d="M1652.08,-173.56C1661.75,-172.2 1671.63,-170.95 1681,-170 1815.14,-156.43 1972.09,-150.76 2063.92,-148.47"/>
<polygon fill="#9a32cd" stroke="#9a32cd" points="1651.51,-170.1 1642.12,-175.01 1652.52,-177.03 1651.51,-170.1"/>
<text text-anchor="middle" x="1878" y="-163" font-family="Helvetica,sans-Serif" font-size="10.00"> m_CostFunction</text>
</g>
<!-- Node25&#45;&gt;Node27 -->
<g id="edge30" class="edge">
<title>Node25&#45;&gt;Node27</title>
<path fill="none" stroke="#9a32cd" stroke-dasharray="5,2" d="M1635.38,-202.99C1692.31,-226.55 1788.21,-266.25 1840.43,-287.86"/>
<polygon fill="#9a32cd" stroke="#9a32cd" points="1636.49,-199.66 1625.91,-199.07 1633.81,-206.13 1636.49,-199.66"/>
<text text-anchor="middle" x="1734" y="-279" font-family="Helvetica,sans-Serif" font-size="10.00"> m_CostFunction</text>
<text text-anchor="middle" x="1734" y="-268" font-family="Helvetica,sans-Serif" font-size="10.00">m_Reporter</text>
</g>
<!-- Node26 -->
<g id="node26" class="node">
<title>Node26</title>
<g id="a_node26"><a xlink:title=" ">
<polygon fill="white" stroke="black" points="2056,-282.5 2056,-323.5 2230,-323.5 2230,-282.5 2056,-282.5"/>
<text text-anchor="start" x="2064" y="-311.5" font-family="Helvetica,sans-Serif" font-size="10.00">std::unique_ptr&lt; itk</text>
<text text-anchor="start" x="2064" y="-300.5" font-family="Helvetica,sans-Serif" font-size="10.00">::MultipleValuedVnlCostFunction</text>
<text text-anchor="middle" x="2143" y="-289.5" font-family="Helvetica,sans-Serif" font-size="10.00">Adaptor &gt;</text>
</a>
</g>
</g>
<!-- Node26&#45;&gt;Node2 -->
<g id="edge27" class="edge">
<title>Node26&#45;&gt;Node2</title>
<path fill="none" stroke="#9a32cd" stroke-dasharray="5,2" d="M2240.12,-298.96C2280.92,-294.5 2328.16,-285.58 2368,-268 2401.23,-253.34 2432.66,-224.19 2450.03,-206.27"/>
<polygon fill="#9a32cd" stroke="#9a32cd" points="2239.76,-295.48 2230.17,-299.98 2240.47,-302.45 2239.76,-295.48"/>
<text text-anchor="middle" x="2308" y="-300" font-family="Helvetica,sans-Serif" font-size="10.00"> m_CostFunctionAdaptor</text>
</g>
<!-- Node27&#45;&gt;Node26 -->
<g id="edge28" class="edge">
<title>Node27&#45;&gt;Node26</title>
<path fill="none" stroke="#9a32cd" stroke-dasharray="5,2" d="M1961.26,-303C1991.37,-303 2025.5,-303 2055.94,-303"/>
<polygon fill="#9a32cd" stroke="#9a32cd" points="1961.21,-299.5 1951.21,-303 1961.21,-306.5 1961.21,-299.5"/>
<text text-anchor="middle" x="2003.5" y="-306" font-family="Helvetica,sans-Serif" font-size="10.00"> ptr</text>
</g>
<!-- Node28 -->
<g id="node28" class="node">
<title>Node28</title>
<g id="a_node28"><a xlink:title=" ">
<polygon fill="white" stroke="black" points="1514,-320.5 1514,-339.5 1663,-339.5 1663,-320.5 1514,-320.5"/>
<text text-anchor="middle" x="1588.5" y="-327.5" font-family="Helvetica,sans-Serif" font-size="10.00">vnl_least_squares_function</text>
</a>
</g>
</g>
<!-- Node28&#45;&gt;Node27 -->
<g id="edge29" class="edge">
<title>Node28&#45;&gt;Node27</title>
<path fill="none" stroke="midnightblue" d="M1673.4,-323.96C1708.53,-321.24 1749.78,-317.78 1787,-314 1792.79,-313.41 1798.79,-312.76 1804.82,-312.08"/>
<polygon fill="midnightblue" stroke="midnightblue" points="1672.89,-320.49 1663.19,-324.75 1673.43,-327.47 1672.89,-320.49"/>
</g>
<!-- Node29 -->
<g id="node29" class="node">
<title>Node29</title>
<g id="a_node29"><a xlink:href="classitk_1_1Array2D.html" target="_top" xlink:title="Array2D class representing a 2D array.">
<polygon fill="white" stroke="black" points="1523,-282.5 1523,-301.5 1654,-301.5 1654,-282.5 1523,-282.5"/>
<text text-anchor="middle" x="1588.5" y="-289.5" font-family="Helvetica,sans-Serif" font-size="10.00">itk::Array2D&lt; TValue &gt;</text>
</a>
</g>
</g>
<!-- Node29&#45;&gt;Node27 -->
<g id="edge32" class="edge">
<title>Node29&#45;&gt;Node27</title>
<path fill="none" stroke="#9a32cd" stroke-dasharray="5,2" d="M1664.23,-294.86C1707.59,-296.52 1761.95,-298.6 1804.86,-300.24"/>
<polygon fill="#9a32cd" stroke="#9a32cd" points="1664.15,-291.35 1654.02,-294.47 1663.88,-298.35 1664.15,-291.35"/>
<text text-anchor="middle" x="1734" y="-302" font-family="Helvetica,sans-Serif" font-size="10.00"> m_CachedDerivative</text>
</g>
<!-- Node30 -->
<g id="node30" class="node">
<title>Node30</title>
<g id="a_node30"><a xlink:title=" ">
<polygon fill="white" stroke="black" points="1252,-320.5 1252,-339.5 1377,-339.5 1377,-320.5 1252,-320.5"/>
<text text-anchor="middle" x="1314.5" y="-327.5" font-family="Helvetica,sans-Serif" font-size="10.00">vnl_matrix&lt; TValue &gt;</text>
</a>
</g>
</g>
<!-- Node30&#45;&gt;Node29 -->
<g id="edge33" class="edge">
<title>Node30&#45;&gt;Node29</title>
<path fill="none" stroke="midnightblue" d="M1387.38,-319.96C1429.39,-314.09 1481.98,-306.74 1522.71,-301.05"/>
<polygon fill="midnightblue" stroke="midnightblue" points="1386.64,-316.53 1377.22,-321.38 1387.61,-323.46 1386.64,-316.53"/>
</g>
<!-- Node31 -->
<g id="node31" class="node">
<title>Node31</title>
<g id="a_node31"><a xlink:title=" ">
<polygon fill="white" stroke="black" points="2396,-108 2396,-138 2534,-138 2534,-108 2396,-108"/>
<text text-anchor="start" x="2404" y="-126" font-family="Helvetica,sans-Serif" font-size="10.00">std::unique_ptr&lt; Internal</text>
<text text-anchor="middle" x="2465" y="-115" font-family="Helvetica,sans-Serif" font-size="10.00">OptimizerType &gt;</text>
</a>
</g>
</g>
<!-- Node31&#45;&gt;Node1 -->
<g id="edge36" class="edge">
<title>Node31&#45;&gt;Node1</title>
<path fill="none" stroke="#9a32cd" stroke-dasharray="5,2" d="M2544.19,-129.53C2580.55,-132.56 2624.03,-136.19 2661.92,-139.36"/>
<polygon fill="#9a32cd" stroke="#9a32cd" points="2544.39,-126.03 2534.13,-128.69 2543.81,-133.01 2544.39,-126.03"/>
<text text-anchor="middle" x="2603" y="-141" font-family="Helvetica,sans-Serif" font-size="10.00"> m_VnlOptimizer</text>
</g>
<!-- Node32 -->
<g id="node32" class="node">
<title>Node32</title>
<g id="a_node32"><a xlink:href="classLBFGSBOptimizerHelperv4.html" target="_top" xlink:title="Wrapper helper around vnl_lbfgsb.">
<polygon fill="white" stroke="black" points="2069.5,-93.5 2069.5,-112.5 2216.5,-112.5 2216.5,-93.5 2069.5,-93.5"/>
<text text-anchor="middle" x="2143" y="-100.5" font-family="Helvetica,sans-Serif" font-size="10.00">LBFGSBOptimizerHelperv4</text>
</a>
</g>
</g>
<!-- Node32&#45;&gt;Node31 -->
<g id="edge37" class="edge">
<title>Node32&#45;&gt;Node31</title>
<path fill="none" stroke="#9a32cd" stroke-dasharray="5,2" d="M2226.9,-108.18C2279.38,-111.46 2346.39,-115.65 2395.78,-118.74"/>
<polygon fill="#9a32cd" stroke="#9a32cd" points="2226.81,-104.67 2216.61,-107.54 2226.38,-111.66 2226.81,-104.67"/>
<text text-anchor="middle" x="2308" y="-120" font-family="Helvetica,sans-Serif" font-size="10.00"> ptr</text>
</g>
</g>
</svg>
