<?xml version="1.0" encoding="UTF-8" standalone="no"?>
<!DOCTYPE svg PUBLIC "-//W3C//DTD SVG 1.1//EN"
 "http://www.w3.org/Graphics/SVG/1.1/DTD/svg11.dtd">
<!-- Generated by graphviz version 2.43.0 (0)
 -->
<!-- Title: itk::VideoToVideoFilter&lt; TInputVideoStream, TOutputVideoStream &gt; Pages: 1 -->
<svg width="1587pt" height="242pt"
 viewBox="0.00 0.00 1587.00 241.50" xmlns="http://www.w3.org/2000/svg" xmlns:xlink="http://www.w3.org/1999/xlink">
<g id="graph0" class="graph" transform="scale(1 1) rotate(0) translate(4 237.5)">
<title>itk::VideoToVideoFilter&lt; TInputVideoStream, TOutputVideoStream &gt;</title>
<polygon fill="white" stroke="transparent" points="-4,4 -4,-237.5 1583,-237.5 1583,4 -4,4"/>
<!-- Node1 -->
<g id="node1" class="node">
<title>Node1</title>
<g id="a_node1"><a xlink:title="Base class for filters that use a VideoStream as input and output.">
<polygon fill="#bfbfbf" stroke="black" points="742,-96 742,-137 909,-137 909,-96 742,-96"/>
<text text-anchor="start" x="750" y="-125" font-family="Helvetica,sans-Serif" font-size="10.00">itk::VideoToVideoFilter</text>
<text text-anchor="start" x="750" y="-114" font-family="Helvetica,sans-Serif" font-size="10.00">&lt; TInputVideoStream, TOutput</text>
<text text-anchor="middle" x="825.5" y="-103" font-family="Helvetica,sans-Serif" font-size="10.00">VideoStream &gt;</text>
</a>
</g>
</g>
<!-- Node7 -->
<g id="node7" class="node">
<title>Node7</title>
<g id="a_node7"><a xlink:href="classitk_1_1FrameAverageVideoFilter.html" target="_top" xlink:title="Average frames over a designated range in a video.">
<polygon fill="white" stroke="black" points="1147,-192 1147,-233 1341,-233 1341,-192 1147,-192"/>
<text text-anchor="start" x="1155" y="-221" font-family="Helvetica,sans-Serif" font-size="10.00">itk::FrameAverageVideoFilter</text>
<text text-anchor="start" x="1155" y="-210" font-family="Helvetica,sans-Serif" font-size="10.00">&lt; TInputVideoStream, TOutputVideo</text>
<text text-anchor="middle" x="1244" y="-199" font-family="Helvetica,sans-Serif" font-size="10.00">Stream &gt;</text>
</a>
</g>
</g>
<!-- Node1&#45;&gt;Node7 -->
<g id="edge6" class="edge">
<title>Node1&#45;&gt;Node7</title>
<path fill="none" stroke="midnightblue" d="M879,-141.08C894.23,-147.48 911.06,-153.87 927,-158.5 999.29,-179.49 1083.4,-193.37 1146.66,-201.8"/>
<polygon fill="midnightblue" stroke="midnightblue" points="880.32,-137.83 869.75,-137.1 877.56,-144.27 880.32,-137.83"/>
</g>
<!-- Node8 -->
<g id="node8" class="node">
<title>Node8</title>
<g id="a_node8"><a xlink:href="classitk_1_1FrameDifferenceVideoFilter.html" target="_top" xlink:title="Compute the squared intensity difference between frame x and frame x+n.">
<polygon fill="white" stroke="black" points="1169.5,-132 1169.5,-173 1318.5,-173 1318.5,-132 1169.5,-132"/>
<text text-anchor="start" x="1177.5" y="-161" font-family="Helvetica,sans-Serif" font-size="10.00">itk::FrameDifferenceVideo</text>
<text text-anchor="start" x="1177.5" y="-150" font-family="Helvetica,sans-Serif" font-size="10.00">Filter&lt; TInputVideoStream,</text>
<text text-anchor="middle" x="1244" y="-139" font-family="Helvetica,sans-Serif" font-size="10.00"> TOutputVideoStream &gt;</text>
</a>
</g>
</g>
<!-- Node1&#45;&gt;Node8 -->
<g id="edge7" class="edge">
<title>Node1&#45;&gt;Node8</title>
<path fill="none" stroke="midnightblue" d="M919.25,-137.41C921.85,-137.8 924.44,-138.17 927,-138.5 1009.5,-149.28 1105.02,-152.2 1169.26,-152.79"/>
<polygon fill="midnightblue" stroke="midnightblue" points="919.55,-133.91 909.12,-135.76 918.43,-140.82 919.55,-133.91"/>
</g>
<!-- Node9 -->
<g id="node9" class="node">
<title>Node9</title>
<g id="a_node9"><a xlink:href="classitk_1_1VideoToVideoFilter.html" target="_top" xlink:title=" ">
<polygon fill="white" stroke="black" points="1129,-50 1129,-113 1359,-113 1359,-50 1129,-50"/>
<text text-anchor="start" x="1137" y="-101" font-family="Helvetica,sans-Serif" font-size="10.00">itk::VideoToVideoFilter</text>
<text text-anchor="start" x="1137" y="-90" font-family="Helvetica,sans-Serif" font-size="10.00">&lt; itk::VideoStream&lt; TImageTo</text>
<text text-anchor="start" x="1137" y="-79" font-family="Helvetica,sans-Serif" font-size="10.00">ImageFilter::InputImageType</text>
<text text-anchor="start" x="1137" y="-68" font-family="Helvetica,sans-Serif" font-size="10.00"> &gt;, itk::VideoStream&lt; TImageToImageFilter</text>
<text text-anchor="middle" x="1244" y="-57" font-family="Helvetica,sans-Serif" font-size="10.00">::OutputImageType &gt; &gt;</text>
</a>
</g>
</g>
<!-- Node1&#45;&gt;Node9 -->
<g id="edge8" class="edge">
<title>Node1&#45;&gt;Node9</title>
<path fill="none" stroke="orange" stroke-dasharray="5,2" d="M888.56,-92.8C901.11,-88.96 914.34,-85.57 927,-83.5 993.33,-72.67 1068.54,-71.75 1128.94,-73.73"/>
<polygon fill="orange" stroke="orange" points="887.13,-89.59 878.67,-95.97 889.26,-96.26 887.13,-89.59"/>
<text text-anchor="start" x="927" y="-130.5" font-family="Helvetica,sans-Serif" font-size="10.00"> &lt; itk::VideoStream</text>
<text text-anchor="start" x="927" y="-119.5" font-family="Helvetica,sans-Serif" font-size="10.00">&lt; TImageToImageFilter</text>
<text text-anchor="start" x="927" y="-108.5" font-family="Helvetica,sans-Serif" font-size="10.00">::InputImageType &gt;, itk</text>
<text text-anchor="start" x="927" y="-97.5" font-family="Helvetica,sans-Serif" font-size="10.00">::VideoStream&lt; TImageToImageFilter</text>
<text text-anchor="middle" x="1019" y="-86.5" font-family="Helvetica,sans-Serif" font-size="10.00">::OutputImageType &gt; &gt;</text>
</g>
<!-- Node11 -->
<g id="node11" class="node">
<title>Node11</title>
<g id="a_node11"><a xlink:href="classitk_1_1VideoToVideoFilter.html" target="_top" xlink:title=" ">
<polygon fill="white" stroke="black" points="1152.5,-0.5 1152.5,-30.5 1335.5,-30.5 1335.5,-0.5 1152.5,-0.5"/>
<text text-anchor="start" x="1160.5" y="-18.5" font-family="Helvetica,sans-Serif" font-size="10.00">itk::VideoToVideoFilter</text>
<text text-anchor="middle" x="1244" y="-7.5" font-family="Helvetica,sans-Serif" font-size="10.00">&lt; TVideoStream, TVideoStream &gt;</text>
</a>
</g>
</g>
<!-- Node1&#45;&gt;Node11 -->
<g id="edge10" class="edge">
<title>Node1&#45;&gt;Node11</title>
<path fill="none" stroke="orange" stroke-dasharray="5,2" d="M863.95,-90.22C882.17,-78.68 904.88,-66.06 927,-58.5 1000.35,-33.43 1087.98,-22.92 1152.33,-18.54"/>
<polygon fill="orange" stroke="orange" points="861.87,-87.39 855.38,-95.77 865.68,-93.27 861.87,-87.39"/>
<text text-anchor="middle" x="1019" y="-61.5" font-family="Helvetica,sans-Serif" font-size="10.00"> &lt; TVideoStream, TVideoStream &gt;</text>
</g>
<!-- Node2 -->
<g id="node2" class="node">
<title>Node2</title>
<g id="a_node2"><a xlink:href="classitk_1_1VideoSource.html" target="_top" xlink:title="A TemporalProcessObject that produces a VideoStream.">
<polygon fill="white" stroke="black" points="559,-101.5 559,-131.5 705,-131.5 705,-101.5 559,-101.5"/>
<text text-anchor="start" x="567" y="-119.5" font-family="Helvetica,sans-Serif" font-size="10.00">itk::VideoSource&lt; TOutput</text>
<text text-anchor="middle" x="632" y="-108.5" font-family="Helvetica,sans-Serif" font-size="10.00">VideoStream &gt;</text>
</a>
</g>
</g>
<!-- Node2&#45;&gt;Node1 -->
<g id="edge1" class="edge">
<title>Node2&#45;&gt;Node1</title>
<path fill="none" stroke="midnightblue" d="M715.34,-116.5C724.12,-116.5 733.05,-116.5 741.83,-116.5"/>
<polygon fill="midnightblue" stroke="midnightblue" points="715.13,-113 705.13,-116.5 715.13,-120 715.13,-113"/>
</g>
<!-- Node3 -->
<g id="node3" class="node">
<title>Node3</title>
<g id="a_node3"><a xlink:href="classitk_1_1TemporalProcessObject.html" target="_top" xlink:title="TemporalProcessObject implements a ProcessObject for the itk pipeline with the notion of a temporal r...">
<polygon fill="white" stroke="black" points="373,-107 373,-126 522,-126 522,-107 373,-107"/>
<text text-anchor="middle" x="447.5" y="-114" font-family="Helvetica,sans-Serif" font-size="10.00">itk::TemporalProcessObject</text>
</a>
</g>
</g>
<!-- Node3&#45;&gt;Node2 -->
<g id="edge2" class="edge">
<title>Node3&#45;&gt;Node2</title>
<path fill="none" stroke="midnightblue" d="M532.47,-116.5C541.26,-116.5 550.15,-116.5 558.8,-116.5"/>
<polygon fill="midnightblue" stroke="midnightblue" points="532.2,-113 522.2,-116.5 532.2,-120 532.2,-113"/>
</g>
<!-- Node4 -->
<g id="node4" class="node">
<title>Node4</title>
<g id="a_node4"><a xlink:href="classitk_1_1ProcessObject.html" target="_top" xlink:title="The base class for all process objects (source, filters, mappers) in the Insight data processing pipe...">
<polygon fill="white" stroke="black" points="232,-107 232,-126 336,-126 336,-107 232,-107"/>
<text text-anchor="middle" x="284" y="-114" font-family="Helvetica,sans-Serif" font-size="10.00">itk::ProcessObject</text>
</a>
</g>
</g>
<!-- Node4&#45;&gt;Node3 -->
<g id="edge3" class="edge">
<title>Node4&#45;&gt;Node3</title>
<path fill="none" stroke="midnightblue" d="M346.12,-116.5C354.81,-116.5 363.82,-116.5 372.72,-116.5"/>
<polygon fill="midnightblue" stroke="midnightblue" points="346.1,-113 336.1,-116.5 346.1,-120 346.1,-113"/>
</g>
<!-- Node5 -->
<g id="node5" class="node">
<title>Node5</title>
<g id="a_node5"><a xlink:href="classitk_1_1Object.html" target="_top" xlink:title="Base class for most ITK classes.">
<polygon fill="white" stroke="black" points="128,-107 128,-126 195,-126 195,-107 128,-107"/>
<text text-anchor="middle" x="161.5" y="-114" font-family="Helvetica,sans-Serif" font-size="10.00">itk::Object</text>
</a>
</g>
</g>
<!-- Node5&#45;&gt;Node4 -->
<g id="edge4" class="edge">
<title>Node5&#45;&gt;Node4</title>
<path fill="none" stroke="midnightblue" d="M205.26,-116.5C213.84,-116.5 222.94,-116.5 231.77,-116.5"/>
<polygon fill="midnightblue" stroke="midnightblue" points="205.11,-113 195.11,-116.5 205.11,-120 205.11,-113"/>
</g>
<!-- Node6 -->
<g id="node6" class="node">
<title>Node6</title>
<g id="a_node6"><a xlink:href="classitk_1_1LightObject.html" target="_top" xlink:title="Light weight base class for most itk classes.">
<polygon fill="white" stroke="black" points="0,-107 0,-126 91,-126 91,-107 0,-107"/>
<text text-anchor="middle" x="45.5" y="-114" font-family="Helvetica,sans-Serif" font-size="10.00">itk::LightObject</text>
</a>
</g>
</g>
<!-- Node6&#45;&gt;Node5 -->
<g id="edge5" class="edge">
<title>Node6&#45;&gt;Node5</title>
<path fill="none" stroke="midnightblue" d="M101.39,-116.5C110.45,-116.5 119.59,-116.5 127.88,-116.5"/>
<polygon fill="midnightblue" stroke="midnightblue" points="101.23,-113 91.23,-116.5 101.23,-120 101.23,-113"/>
</g>
<!-- Node10 -->
<g id="node10" class="node">
<title>Node10</title>
<g id="a_node10"><a xlink:href="classitk_1_1ImageFilterToVideoFilterWrapper.html" target="_top" xlink:title="Wrap an ImageToImageFilter as a VideoToVideoFilter that operates on a single frame at a time.">
<polygon fill="white" stroke="black" points="1396,-66.5 1396,-96.5 1579,-96.5 1579,-66.5 1396,-66.5"/>
<text text-anchor="start" x="1404" y="-84.5" font-family="Helvetica,sans-Serif" font-size="10.00">itk::ImageFilterToVideoFilter</text>
<text text-anchor="middle" x="1487.5" y="-73.5" font-family="Helvetica,sans-Serif" font-size="10.00">Wrapper&lt; TImageToImageFilter &gt;</text>
</a>
</g>
</g>
<!-- Node9&#45;&gt;Node10 -->
<g id="edge9" class="edge">
<title>Node9&#45;&gt;Node10</title>
<path fill="none" stroke="midnightblue" d="M1369.16,-81.5C1378.13,-81.5 1387.08,-81.5 1395.8,-81.5"/>
<polygon fill="midnightblue" stroke="midnightblue" points="1369.03,-78 1359.03,-81.5 1369.03,-85 1369.03,-78"/>
</g>
<!-- Node12 -->
<g id="node12" class="node">
<title>Node12</title>
<g id="a_node12"><a xlink:href="classitk_1_1DecimateFramesVideoFilter.html" target="_top" xlink:title="Reduce a video&#39;s frame&#45;rate by keeping every Nth frame.">
<polygon fill="white" stroke="black" points="1414.5,-0.5 1414.5,-30.5 1560.5,-30.5 1560.5,-0.5 1414.5,-0.5"/>
<text text-anchor="start" x="1422.5" y="-18.5" font-family="Helvetica,sans-Serif" font-size="10.00">itk::DecimateFramesVideo</text>
<text text-anchor="middle" x="1487.5" y="-7.5" font-family="Helvetica,sans-Serif" font-size="10.00">Filter&lt; TVideoStream &gt;</text>
</a>
</g>
</g>
<!-- Node11&#45;&gt;Node12 -->
<g id="edge11" class="edge">
<title>Node11&#45;&gt;Node12</title>
<path fill="none" stroke="midnightblue" d="M1345.74,-15.5C1368.73,-15.5 1392.71,-15.5 1414.23,-15.5"/>
<polygon fill="midnightblue" stroke="midnightblue" points="1345.61,-12 1335.61,-15.5 1345.61,-19 1345.61,-12"/>
</g>
</g>
</svg>
