<?xml version="1.0" encoding="UTF-8" standalone="no"?>
<!DOCTYPE svg PUBLIC "-//W3C//DTD SVG 1.1//EN"
 "http://www.w3.org/Graphics/SVG/1.1/DTD/svg11.dtd">
<!-- Generated by graphviz version 2.43.0 (0)
 -->
<!-- Title: itk::RegionBasedLevelSetFunctionData&lt; TInputImage, TFeatureImage &gt; Pages: 1 -->
<svg width="184pt" height="174pt"
 viewBox="0.00 0.00 183.50 174.00" xmlns="http://www.w3.org/2000/svg" xmlns:xlink="http://www.w3.org/1999/xlink">
<g id="graph0" class="graph" transform="scale(1 1) rotate(0) translate(4 170)">
<title>itk::RegionBasedLevelSetFunctionData&lt; TInputImage, TFeatureImage &gt;</title>
<polygon fill="white" stroke="transparent" points="-4,4 -4,-170 179.5,-170 179.5,4 -4,4"/>
<!-- Node1 -->
<g id="node1" class="node">
<title>Node1</title>
<g id="a_node1"><a xlink:title="Helper class used to share data in the ScalarChanAndVeseLevelSetFunction.">
<polygon fill="#bfbfbf" stroke="black" points="0,-0.5 0,-41.5 157,-41.5 157,-0.5 0,-0.5"/>
<text text-anchor="start" x="8" y="-29.5" font-family="Helvetica,sans-Serif" font-size="10.00">itk::RegionBasedLevelSet</text>
<text text-anchor="start" x="8" y="-18.5" font-family="Helvetica,sans-Serif" font-size="10.00">FunctionData&lt; TInputImage,</text>
<text text-anchor="middle" x="78.5" y="-7.5" font-family="Helvetica,sans-Serif" font-size="10.00"> TFeatureImage &gt;</text>
</a>
</g>
</g>
<!-- Node2 -->
<g id="node2" class="node">
<title>Node2</title>
<g id="a_node2"><a xlink:href="classitk_1_1LightObject.html" target="_top" xlink:title="Light weight base class for most itk classes.">
<polygon fill="white" stroke="black" points="33,-79.5 33,-98.5 124,-98.5 124,-79.5 33,-79.5"/>
<text text-anchor="middle" x="78.5" y="-86.5" font-family="Helvetica,sans-Serif" font-size="10.00">itk::LightObject</text>
</a>
</g>
</g>
<!-- Node2&#45;&gt;Node1 -->
<g id="edge1" class="edge">
<title>Node2&#45;&gt;Node1</title>
<path fill="none" stroke="midnightblue" d="M78.5,-69.25C78.5,-60.65 78.5,-50.45 78.5,-41.74"/>
<polygon fill="midnightblue" stroke="midnightblue" points="75,-69.37 78.5,-79.37 82,-69.37 75,-69.37"/>
</g>
<!-- Node3 -->
<g id="node3" class="node">
<title>Node3</title>
<g id="a_node3"><a xlink:title=" ">
<polygon fill="white" stroke="black" points="25,-146.5 25,-165.5 132,-165.5 132,-146.5 25,-146.5"/>
<text text-anchor="middle" x="78.5" y="-153.5" font-family="Helvetica,sans-Serif" font-size="10.00">std::atomic&lt; int &gt;</text>
</a>
</g>
</g>
<!-- Node3&#45;&gt;Node2 -->
<g id="edge2" class="edge">
<title>Node3&#45;&gt;Node2</title>
<path fill="none" stroke="#9a32cd" stroke-dasharray="5,2" d="M78.5,-136.04C78.5,-123.67 78.5,-108.12 78.5,-98.63"/>
<polygon fill="#9a32cd" stroke="#9a32cd" points="75,-136.23 78.5,-146.23 82,-136.23 75,-136.23"/>
<text text-anchor="middle" x="127" y="-120" font-family="Helvetica,sans-Serif" font-size="10.00"> m_ReferenceCount</text>
</g>
</g>
</svg>
