<?xml version="1.0" encoding="UTF-8" standalone="no"?>
<!DOCTYPE svg PUBLIC "-//W3C//DTD SVG 1.1//EN"
 "http://www.w3.org/Graphics/SVG/1.1/DTD/svg11.dtd">
<!-- Generated by graphviz version 2.43.0 (0)
 -->
<!-- Title: itk::FFTWForward1DFFTImageFilter&lt; TInputImage, TOutputImage &gt; Pages: 1 -->
<svg width="3791pt" height="641pt"
 viewBox="0.00 0.00 3791.00 641.34" xmlns="http://www.w3.org/2000/svg" xmlns:xlink="http://www.w3.org/1999/xlink">
<g id="graph0" class="graph" transform="scale(1 1) rotate(0) translate(4 637.34)">
<title>itk::FFTWForward1DFFTImageFilter&lt; TInputImage, TOutputImage &gt;</title>
<polygon fill="white" stroke="transparent" points="-4,4 -4,-637.34 3787,-637.34 3787,4 -4,4"/>
<!-- Node1 -->
<g id="node1" class="node">
<title>Node1</title>
<g id="a_node1"><a xlink:title="only do FFT along one dimension using FFTW as a backend.">
<polygon fill="#bfbfbf" stroke="black" points="3582,-163.34 3582,-193.34 3783,-193.34 3783,-163.34 3582,-163.34"/>
<text text-anchor="start" x="3590" y="-181.34" font-family="Helvetica,sans-Serif" font-size="10.00">itk::FFTWForward1DFFTImage</text>
<text text-anchor="middle" x="3682.5" y="-170.34" font-family="Helvetica,sans-Serif" font-size="10.00">Filter&lt; TInputImage, TOutputImage &gt;</text>
</a>
</g>
</g>
<!-- Node2 -->
<g id="node2" class="node">
<title>Node2</title>
<g id="a_node2"><a xlink:href="classitk_1_1Forward1DFFTImageFilter.html" target="_top" xlink:title=" ">
<polygon fill="white" stroke="black" points="3286,-268.34 3286,-320.34 3545,-320.34 3545,-268.34 3286,-268.34"/>
<text text-anchor="start" x="3294" y="-308.34" font-family="Helvetica,sans-Serif" font-size="10.00">itk::Forward1DFFTImageFilter</text>
<text text-anchor="start" x="3294" y="-297.34" font-family="Helvetica,sans-Serif" font-size="10.00">&lt; TInputImage, Image&lt; std</text>
<text text-anchor="start" x="3294" y="-286.34" font-family="Helvetica,sans-Serif" font-size="10.00">::complex&lt; typename TInputImage</text>
<text text-anchor="middle" x="3415.5" y="-275.34" font-family="Helvetica,sans-Serif" font-size="10.00">::PixelType &gt;, TInputImage::ImageDimension &gt; &gt;</text>
</a>
</g>
</g>
<!-- Node2&#45;&gt;Node1 -->
<g id="edge1" class="edge">
<title>Node2&#45;&gt;Node1</title>
<path fill="none" stroke="midnightblue" d="M3485.45,-264.16C3537.3,-241.46 3606.17,-211.31 3646.97,-193.45"/>
<polygon fill="midnightblue" stroke="midnightblue" points="3483.73,-261.09 3475.97,-268.31 3486.54,-267.5 3483.73,-261.09"/>
</g>
<!-- Node3 -->
<g id="node3" class="node">
<title>Node3</title>
<g id="a_node3"><a xlink:href="classitk_1_1ImageToImageFilter.html" target="_top" xlink:title=" ">
<polygon fill="white" stroke="black" points="2639,-321.84 2639,-384.84 2846,-384.84 2846,-321.84 2639,-321.84"/>
<text text-anchor="start" x="2647" y="-372.84" font-family="Helvetica,sans-Serif" font-size="10.00">itk::ImageToImageFilter</text>
<text text-anchor="start" x="2647" y="-361.84" font-family="Helvetica,sans-Serif" font-size="10.00">&lt; TInputImage, Image&lt;</text>
<text text-anchor="start" x="2647" y="-350.84" font-family="Helvetica,sans-Serif" font-size="10.00"> std::complex&lt; typename</text>
<text text-anchor="start" x="2647" y="-339.84" font-family="Helvetica,sans-Serif" font-size="10.00"> TInputImage::PixelType</text>
<text text-anchor="middle" x="2742.5" y="-328.84" font-family="Helvetica,sans-Serif" font-size="10.00"> &gt;, TInputImage::ImageDimension &gt; &gt;</text>
</a>
</g>
</g>
<!-- Node3&#45;&gt;Node2 -->
<g id="edge2" class="edge">
<title>Node3&#45;&gt;Node2</title>
<path fill="none" stroke="midnightblue" d="M2856.44,-359.1C2963.23,-362.48 3127.58,-362.34 3268,-339.34 3293.08,-335.23 3319.83,-327.93 3343.52,-320.38"/>
<polygon fill="midnightblue" stroke="midnightblue" points="2856.4,-355.6 2846.29,-358.76 2856.17,-362.59 2856.4,-355.6"/>
</g>
<!-- Node34 -->
<g id="node34" class="node">
<title>Node34</title>
<g id="a_node34"><a xlink:href="classitk_1_1Forward1DFFTImageFilter.html" target="_top" xlink:title="Perform the Fast Fourier Transform, in the forward direction, with real inputs, but only along one di...">
<polygon fill="white" stroke="black" points="2883,-287.34 2883,-317.34 3059,-317.34 3059,-287.34 2883,-287.34"/>
<text text-anchor="start" x="2891" y="-305.34" font-family="Helvetica,sans-Serif" font-size="10.00">itk::Forward1DFFTImageFilter</text>
<text text-anchor="middle" x="2971" y="-294.34" font-family="Helvetica,sans-Serif" font-size="10.00">&lt; TInputImage, TOutputImage &gt;</text>
</a>
</g>
</g>
<!-- Node3&#45;&gt;Node34 -->
<g id="edge51" class="edge">
<title>Node3&#45;&gt;Node34</title>
<path fill="none" stroke="midnightblue" d="M2856.19,-327.96C2872.34,-324.33 2888.51,-320.69 2903.38,-317.34"/>
<polygon fill="midnightblue" stroke="midnightblue" points="2855.13,-324.62 2846.15,-330.23 2856.67,-331.44 2855.13,-324.62"/>
</g>
<!-- Node4 -->
<g id="node4" class="node">
<title>Node4</title>
<g id="a_node4"><a xlink:href="classitk_1_1ImageSource.html" target="_top" xlink:title=" ">
<polygon fill="white" stroke="black" points="2205,-296.34 2205,-348.34 2412,-348.34 2412,-296.34 2205,-296.34"/>
<text text-anchor="start" x="2213" y="-336.34" font-family="Helvetica,sans-Serif" font-size="10.00">itk::ImageSource&lt; Image</text>
<text text-anchor="start" x="2213" y="-325.34" font-family="Helvetica,sans-Serif" font-size="10.00">&lt; std::complex&lt; typename</text>
<text text-anchor="start" x="2213" y="-314.34" font-family="Helvetica,sans-Serif" font-size="10.00"> TInputImage::PixelType</text>
<text text-anchor="middle" x="2308.5" y="-303.34" font-family="Helvetica,sans-Serif" font-size="10.00"> &gt;, TInputImage::ImageDimension &gt; &gt;</text>
</a>
</g>
</g>
<!-- Node4&#45;&gt;Node3 -->
<g id="edge3" class="edge">
<title>Node4&#45;&gt;Node3</title>
<path fill="none" stroke="midnightblue" d="M2422.33,-330.44C2489.36,-335.25 2573.71,-341.3 2638.86,-345.97"/>
<polygon fill="midnightblue" stroke="midnightblue" points="2422.38,-326.93 2412.15,-329.71 2421.88,-333.91 2422.38,-326.93"/>
</g>
<!-- Node5 -->
<g id="node5" class="node">
<title>Node5</title>
<g id="a_node5"><a xlink:href="classitk_1_1ProcessObject.html" target="_top" xlink:title="The base class for all process objects (source, filters, mappers) in the Insight data processing pipe...">
<polygon fill="white" stroke="black" points="1531.5,-340.84 1531.5,-359.84 1635.5,-359.84 1635.5,-340.84 1531.5,-340.84"/>
<text text-anchor="middle" x="1583.5" y="-347.84" font-family="Helvetica,sans-Serif" font-size="10.00">itk::ProcessObject</text>
</a>
</g>
</g>
<!-- Node5&#45;&gt;Node4 -->
<g id="edge4" class="edge">
<title>Node5&#45;&gt;Node4</title>
<path fill="none" stroke="midnightblue" d="M1645.7,-343.68C1701.87,-337.89 1787.43,-329.89 1862,-326.34 1979.43,-320.74 2114.47,-320.38 2204.81,-321.01"/>
<polygon fill="midnightblue" stroke="midnightblue" points="1645.15,-340.22 1635.57,-344.73 1645.87,-347.18 1645.15,-340.22"/>
</g>
<!-- Node31 -->
<g id="node31" class="node">
<title>Node31</title>
<g id="a_node31"><a xlink:href="classitk_1_1ImageSource.html" target="_top" xlink:title="Base class for all process objects that output image data.">
<polygon fill="white" stroke="black" points="1875.5,-335.34 1875.5,-365.34 2024.5,-365.34 2024.5,-335.34 1875.5,-335.34"/>
<text text-anchor="start" x="1883.5" y="-353.34" font-family="Helvetica,sans-Serif" font-size="10.00">itk::ImageSource&lt; TOutput</text>
<text text-anchor="middle" x="1950" y="-342.34" font-family="Helvetica,sans-Serif" font-size="10.00">Image &gt;</text>
</a>
</g>
</g>
<!-- Node5&#45;&gt;Node31 -->
<g id="edge44" class="edge">
<title>Node5&#45;&gt;Node31</title>
<path fill="none" stroke="midnightblue" d="M1645.79,-350.34C1709.06,-350.34 1807.78,-350.34 1875.27,-350.34"/>
<polygon fill="midnightblue" stroke="midnightblue" points="1645.57,-346.84 1635.57,-350.34 1645.57,-353.84 1645.57,-346.84"/>
</g>
<!-- Node6 -->
<g id="node6" class="node">
<title>Node6</title>
<g id="a_node6"><a xlink:href="classitk_1_1Object.html" target="_top" xlink:title="Base class for most ITK classes.">
<polygon fill="white" stroke="black" points="1156,-340.84 1156,-359.84 1223,-359.84 1223,-340.84 1156,-340.84"/>
<text text-anchor="middle" x="1189.5" y="-347.84" font-family="Helvetica,sans-Serif" font-size="10.00">itk::Object</text>
</a>
</g>
</g>
<!-- Node6&#45;&gt;Node5 -->
<g id="edge5" class="edge">
<title>Node6&#45;&gt;Node5</title>
<path fill="none" stroke="midnightblue" d="M1233.42,-350.34C1306.16,-350.34 1453.31,-350.34 1531.3,-350.34"/>
<polygon fill="midnightblue" stroke="midnightblue" points="1233.25,-346.84 1223.25,-350.34 1233.25,-353.84 1233.25,-346.84"/>
</g>
<!-- Node7 -->
<g id="node7" class="node">
<title>Node7</title>
<g id="a_node7"><a xlink:href="classitk_1_1LightObject.html" target="_top" xlink:title="Light weight base class for most itk classes.">
<polygon fill="white" stroke="black" points="794,-295.84 794,-314.84 885,-314.84 885,-295.84 794,-295.84"/>
<text text-anchor="middle" x="839.5" y="-302.84" font-family="Helvetica,sans-Serif" font-size="10.00">itk::LightObject</text>
</a>
</g>
</g>
<!-- Node7&#45;&gt;Node6 -->
<g id="edge6" class="edge">
<title>Node7&#45;&gt;Node6</title>
<path fill="none" stroke="midnightblue" d="M895.35,-296.1C945.86,-289.45 1022.51,-284.05 1087,-299.34 1120.58,-307.3 1155.68,-328.21 1174.53,-340.64"/>
<polygon fill="midnightblue" stroke="midnightblue" points="894.72,-292.66 885.29,-297.49 895.68,-299.59 894.72,-292.66"/>
</g>
<!-- Node8 -->
<g id="node8" class="node">
<title>Node8</title>
<g id="a_node8"><a xlink:title=" ">
<polygon fill="white" stroke="#bfbfbf" points="457,-296.84 457,-315.84 564,-315.84 564,-296.84 457,-296.84"/>
<text text-anchor="middle" x="510.5" y="-303.84" font-family="Helvetica,sans-Serif" font-size="10.00">std::atomic&lt; int &gt;</text>
</a>
</g>
</g>
<!-- Node8&#45;&gt;Node7 -->
<g id="edge7" class="edge">
<title>Node8&#45;&gt;Node7</title>
<path fill="none" stroke="#9a32cd" stroke-dasharray="5,2" d="M574.06,-306.15C638.45,-305.95 737.13,-305.65 793.97,-305.48"/>
<polygon fill="#9a32cd" stroke="#9a32cd" points="574.03,-302.65 564.04,-306.18 574.05,-309.65 574.03,-302.65"/>
<text text-anchor="middle" x="676.5" y="-308.34" font-family="Helvetica,sans-Serif" font-size="10.00"> m_ReferenceCount</text>
</g>
<!-- Node9 -->
<g id="node9" class="node">
<title>Node9</title>
<g id="a_node9"><a xlink:title="STL class.">
<polygon fill="white" stroke="#bfbfbf" points="123,-307.84 123,-326.84 223,-326.84 223,-307.84 123,-307.84"/>
<text text-anchor="middle" x="173" y="-314.84" font-family="Helvetica,sans-Serif" font-size="10.00">std::atomic&lt; T &gt;</text>
</a>
</g>
</g>
<!-- Node9&#45;&gt;Node8 -->
<g id="edge8" class="edge">
<title>Node9&#45;&gt;Node8</title>
<path fill="none" stroke="orange" stroke-dasharray="5,2" d="M233.21,-313.2C238.88,-312.87 244.55,-312.58 250,-312.34 321.58,-309.16 404.35,-307.61 456.79,-306.9"/>
<polygon fill="orange" stroke="orange" points="232.82,-309.72 223.04,-313.8 233.23,-316.7 232.82,-309.72"/>
<text text-anchor="middle" x="334" y="-315.34" font-family="Helvetica,sans-Serif" font-size="10.00"> &lt; int &gt;</text>
</g>
<!-- Node18 -->
<g id="node18" class="node">
<title>Node18</title>
<g id="a_node18"><a xlink:href="classitk_1_1TimeStamp.html" target="_top" xlink:title="Generate a unique, increasing time value.">
<polygon fill="white" stroke="black" points="793.5,-207.84 793.5,-226.84 885.5,-226.84 885.5,-207.84 793.5,-207.84"/>
<text text-anchor="middle" x="839.5" y="-214.84" font-family="Helvetica,sans-Serif" font-size="10.00">itk::TimeStamp</text>
</a>
</g>
</g>
<!-- Node9&#45;&gt;Node18 -->
<g id="edge20" class="edge">
<title>Node9&#45;&gt;Node18</title>
<path fill="none" stroke="#9a32cd" stroke-dasharray="5,2" d="M233.19,-306.21C238.87,-305.21 244.54,-304.24 250,-303.34 332.42,-289.77 353.23,-287.62 436,-276.34 575.4,-257.34 611.32,-260.01 750,-236.34 765.65,-233.67 782.72,-230.15 797.66,-226.86"/>
<polygon fill="#9a32cd" stroke="#9a32cd" points="232.24,-302.82 223.01,-308.03 233.47,-309.71 232.24,-302.82"/>
<text text-anchor="middle" x="510.5" y="-279.34" font-family="Helvetica,sans-Serif" font-size="10.00"> m_GlobalTimeStamp</text>
</g>
<!-- Node22 -->
<g id="node22" class="node">
<title>Node22</title>
<g id="a_node22"><a xlink:title=" ">
<polygon fill="white" stroke="#bfbfbf" points="609.5,-347.84 609.5,-366.84 743.5,-366.84 743.5,-347.84 609.5,-347.84"/>
<text text-anchor="middle" x="676.5" y="-354.84" font-family="Helvetica,sans-Serif" font-size="10.00">std::atomic&lt; uint32_t &gt;</text>
</a>
</g>
</g>
<!-- Node9&#45;&gt;Node22 -->
<g id="edge29" class="edge">
<title>Node9&#45;&gt;Node22</title>
<path fill="none" stroke="orange" stroke-dasharray="5,2" d="M233.68,-322.1C327.97,-329.62 510.77,-344.2 609.09,-352.04"/>
<polygon fill="orange" stroke="orange" points="233.7,-318.59 223.46,-321.28 233.15,-325.57 233.7,-318.59"/>
<text text-anchor="middle" x="334" y="-339.34" font-family="Helvetica,sans-Serif" font-size="10.00"> &lt; uint32_t &gt;</text>
</g>
<!-- Node10 -->
<g id="node10" class="node">
<title>Node10</title>
<g id="a_node10"><a xlink:title=" ">
<polygon fill="white" stroke="#bfbfbf" points="0,-344.84 0,-363.84 29,-363.84 29,-344.84 0,-344.84"/>
<text text-anchor="middle" x="14.5" y="-351.84" font-family="Helvetica,sans-Serif" font-size="10.00">T</text>
</a>
</g>
</g>
<!-- Node10&#45;&gt;Node9 -->
<g id="edge9" class="edge">
<title>Node10&#45;&gt;Node9</title>
<path fill="none" stroke="#9a32cd" stroke-dasharray="5,2" d="M38.82,-346.67C41.56,-345.84 44.34,-345.05 47,-344.34 71.78,-337.74 99.65,-331.61 122.77,-326.85"/>
<polygon fill="#9a32cd" stroke="#9a32cd" points="37.71,-343.34 29.22,-349.67 39.81,-350.02 37.71,-343.34"/>
<text text-anchor="middle" x="71.5" y="-347.34" font-family="Helvetica,sans-Serif" font-size="10.00"> ptr</text>
</g>
<!-- Node15 -->
<g id="node15" class="node">
<title>Node15</title>
<g id="a_node15"><a xlink:title="STL class.">
<polygon fill="white" stroke="#bfbfbf" points="122.5,-436.84 122.5,-455.84 223.5,-455.84 223.5,-436.84 122.5,-436.84"/>
<text text-anchor="middle" x="173" y="-443.84" font-family="Helvetica,sans-Serif" font-size="10.00">std::map&lt; K, T &gt;</text>
</a>
</g>
</g>
<!-- Node10&#45;&gt;Node15 -->
<g id="edge16" class="edge">
<title>Node10&#45;&gt;Node15</title>
<path fill="none" stroke="#9a32cd" stroke-dasharray="5,2" d="M33.26,-370.79C37.6,-374.46 42.34,-378.19 47,-381.34 81.05,-404.34 124.24,-425.15 149.91,-436.73"/>
<polygon fill="#9a32cd" stroke="#9a32cd" points="35.34,-367.95 25.52,-363.97 30.71,-373.21 35.34,-367.95"/>
<text text-anchor="middle" x="71.5" y="-411.34" font-family="Helvetica,sans-Serif" font-size="10.00"> elements</text>
</g>
<!-- Node17 -->
<g id="node17" class="node">
<title>Node17</title>
<g id="a_node17"><a xlink:title="STL class.">
<polygon fill="white" stroke="#bfbfbf" points="114,-368.84 114,-387.84 232,-387.84 232,-368.84 114,-368.84"/>
<text text-anchor="middle" x="173" y="-375.84" font-family="Helvetica,sans-Serif" font-size="10.00">std::shared_ptr&lt; T &gt;</text>
</a>
</g>
</g>
<!-- Node10&#45;&gt;Node17 -->
<g id="edge18" class="edge">
<title>Node10&#45;&gt;Node17</title>
<path fill="none" stroke="#9a32cd" stroke-dasharray="5,2" d="M39.05,-357.95C58.79,-360.98 87.84,-365.43 113.75,-369.41"/>
<polygon fill="#9a32cd" stroke="#9a32cd" points="39.53,-354.48 29.11,-356.43 38.47,-361.4 39.53,-354.48"/>
<text text-anchor="middle" x="71.5" y="-369.34" font-family="Helvetica,sans-Serif" font-size="10.00"> ptr</text>
</g>
<!-- Node25 -->
<g id="node25" class="node">
<title>Node25</title>
<g id="a_node25"><a xlink:title="STL class.">
<polygon fill="white" stroke="#bfbfbf" points="791,-60.84 791,-79.84 888,-79.84 888,-60.84 791,-60.84"/>
<text text-anchor="middle" x="839.5" y="-67.84" font-family="Helvetica,sans-Serif" font-size="10.00">std::vector&lt; T &gt;</text>
</a>
</g>
</g>
<!-- Node10&#45;&gt;Node25 -->
<g id="edge33" class="edge">
<title>Node10&#45;&gt;Node25</title>
<path fill="none" stroke="#9a32cd" stroke-dasharray="5,2" d="M33.46,-338.27C37.75,-334.79 42.42,-331.28 47,-328.34 208.65,-224.7 253.2,-199.13 436,-140.34 560.58,-100.27 714.65,-81.6 791,-74.29"/>
<polygon fill="#9a32cd" stroke="#9a32cd" points="31.17,-335.63 25.8,-344.76 35.69,-340.97 31.17,-335.63"/>
<text text-anchor="middle" x="334" y="-211.34" font-family="Helvetica,sans-Serif" font-size="10.00"> elements</text>
</g>
<!-- Node11 -->
<g id="node11" class="node">
<title>Node11</title>
<g id="a_node11"><a xlink:title="STL class.">
<polygon fill="white" stroke="#bfbfbf" points="807,-527.84 807,-546.84 872,-546.84 872,-527.84 807,-527.84"/>
<text text-anchor="middle" x="839.5" y="-534.84" font-family="Helvetica,sans-Serif" font-size="10.00">std::string</text>
</a>
</g>
</g>
<!-- Node11&#45;&gt;Node6 -->
<g id="edge10" class="edge">
<title>Node11&#45;&gt;Node6</title>
<path fill="none" stroke="#9a32cd" stroke-dasharray="5,2" d="M853.3,-519.21C868.12,-497.8 892.84,-460.87 911,-427.34 920.28,-410.2 913.42,-399.06 929,-387.34 930.13,-386.49 1086.31,-364.6 1155.8,-354.9"/>
<polygon fill="#9a32cd" stroke="#9a32cd" points="850.27,-517.42 847.42,-527.63 856.01,-521.43 850.27,-517.42"/>
<text text-anchor="middle" x="1008" y="-390.34" font-family="Helvetica,sans-Serif" font-size="10.00"> m_ObjectName</text>
</g>
<!-- Node19 -->
<g id="node19" class="node">
<title>Node19</title>
<g id="a_node19"><a xlink:title=" ">
<polygon fill="white" stroke="#bfbfbf" points="1108.5,-489.34 1108.5,-519.34 1270.5,-519.34 1270.5,-489.34 1108.5,-489.34"/>
<text text-anchor="start" x="1116.5" y="-507.34" font-family="Helvetica,sans-Serif" font-size="10.00">std::set&lt; DataObjectIdentifier</text>
<text text-anchor="middle" x="1189.5" y="-496.34" font-family="Helvetica,sans-Serif" font-size="10.00">Type &gt;</text>
</a>
</g>
</g>
<!-- Node11&#45;&gt;Node19 -->
<g id="edge22" class="edge">
<title>Node11&#45;&gt;Node19</title>
<path fill="none" stroke="#9a32cd" stroke-dasharray="5,2" d="M882.27,-534.2C931.33,-530.41 1015.15,-523.65 1087,-516.34 1093.97,-515.63 1101.21,-514.85 1108.47,-514.05"/>
<polygon fill="#9a32cd" stroke="#9a32cd" points="881.75,-530.73 872.05,-534.98 882.29,-537.71 881.75,-530.73"/>
<text text-anchor="middle" x="1008" y="-532.34" font-family="Helvetica,sans-Serif" font-size="10.00"> keys</text>
</g>
<!-- Node21 -->
<g id="node21" class="node">
<title>Node21</title>
<g id="a_node21"><a xlink:title=" ">
<polygon fill="white" stroke="#bfbfbf" points="1105,-557.34 1105,-587.34 1274,-587.34 1274,-557.34 1105,-557.34"/>
<text text-anchor="start" x="1113" y="-575.34" font-family="Helvetica,sans-Serif" font-size="10.00">std::map&lt; DataObjectIdentifier</text>
<text text-anchor="middle" x="1189.5" y="-564.34" font-family="Helvetica,sans-Serif" font-size="10.00">Type, bool &gt;</text>
</a>
</g>
</g>
<!-- Node11&#45;&gt;Node21 -->
<g id="edge26" class="edge">
<title>Node11&#45;&gt;Node21</title>
<path fill="none" stroke="#9a32cd" stroke-dasharray="5,2" d="M882.35,-541.55C937.14,-547.06 1034.47,-556.85 1104.69,-563.91"/>
<polygon fill="#9a32cd" stroke="#9a32cd" points="882.61,-538.06 872.31,-540.54 881.9,-545.02 882.61,-538.06"/>
<text text-anchor="middle" x="1008" y="-564.34" font-family="Helvetica,sans-Serif" font-size="10.00"> keys</text>
</g>
<!-- Node26 -->
<g id="node26" class="node">
<title>Node26</title>
<g id="a_node26"><a xlink:title=" ">
<polygon fill="white" stroke="#bfbfbf" points="1105,-440.34 1105,-470.34 1274,-470.34 1274,-440.34 1105,-440.34"/>
<text text-anchor="start" x="1113" y="-458.34" font-family="Helvetica,sans-Serif" font-size="10.00">std::map&lt; DataObjectIdentifier</text>
<text text-anchor="middle" x="1189.5" y="-447.34" font-family="Helvetica,sans-Serif" font-size="10.00">Type, DataObjectPointer &gt;</text>
</a>
</g>
</g>
<!-- Node11&#45;&gt;Node26 -->
<g id="edge37" class="edge">
<title>Node11&#45;&gt;Node26</title>
<path fill="none" stroke="#9a32cd" stroke-dasharray="5,2" d="M871.27,-523.91C888.08,-516.99 909.4,-508.87 929,-503.34 986.88,-487.02 1053.62,-474.82 1104.92,-466.8"/>
<polygon fill="#9a32cd" stroke="#9a32cd" points="869.82,-520.73 861.94,-527.82 872.52,-527.18 869.82,-520.73"/>
<text text-anchor="middle" x="1008" y="-506.34" font-family="Helvetica,sans-Serif" font-size="10.00"> keys</text>
</g>
<!-- Node12 -->
<g id="node12" class="node">
<title>Node12</title>
<g id="a_node12"><a xlink:title="STL class.">
<polygon fill="white" stroke="#bfbfbf" points="458.5,-522.34 458.5,-552.34 562.5,-552.34 562.5,-522.34 458.5,-522.34"/>
<text text-anchor="start" x="466.5" y="-540.34" font-family="Helvetica,sans-Serif" font-size="10.00">std::basic_string&lt;</text>
<text text-anchor="middle" x="510.5" y="-529.34" font-family="Helvetica,sans-Serif" font-size="10.00"> char &gt;</text>
</a>
</g>
</g>
<!-- Node12&#45;&gt;Node11 -->
<g id="edge11" class="edge">
<title>Node12&#45;&gt;Node11</title>
<path fill="none" stroke="midnightblue" d="M572.97,-537.34C642.54,-537.34 753.16,-537.34 807,-537.34"/>
<polygon fill="midnightblue" stroke="midnightblue" points="572.59,-533.84 562.59,-537.34 572.59,-540.84 572.59,-533.84"/>
</g>
<!-- Node13 -->
<g id="node13" class="node">
<title>Node13</title>
<g id="a_node13"><a xlink:href="classitk_1_1MetaDataDictionary.html" target="_top" xlink:title="Provides a mechanism for storing a collection of arbitrary data types.">
<polygon fill="white" stroke="black" points="772.5,-398.84 772.5,-417.84 906.5,-417.84 906.5,-398.84 772.5,-398.84"/>
<text text-anchor="middle" x="839.5" y="-405.84" font-family="Helvetica,sans-Serif" font-size="10.00">itk::MetaDataDictionary</text>
</a>
</g>
</g>
<!-- Node13&#45;&gt;Node6 -->
<g id="edge12" class="edge">
<title>Node13&#45;&gt;Node6</title>
<path fill="none" stroke="#9a32cd" stroke-dasharray="5,2" d="M859.52,-392.18C876.5,-378.88 902.68,-361.02 929,-353.34 1007.72,-330.38 1105.67,-338.55 1155.72,-345.19"/>
<polygon fill="#9a32cd" stroke="#9a32cd" points="857.11,-389.64 851.53,-398.64 861.51,-395.08 857.11,-389.64"/>
<text text-anchor="middle" x="1008" y="-356.34" font-family="Helvetica,sans-Serif" font-size="10.00"> m_MetaDataDictionary</text>
</g>
<!-- Node14 -->
<g id="node14" class="node">
<title>Node14</title>
<g id="a_node14"><a xlink:title=" ">
<polygon fill="white" stroke="#bfbfbf" points="436,-387.34 436,-417.34 585,-417.34 585,-387.34 436,-387.34"/>
<text text-anchor="start" x="444" y="-405.34" font-family="Helvetica,sans-Serif" font-size="10.00">std::shared_ptr&lt; MetaData</text>
<text text-anchor="middle" x="510.5" y="-394.34" font-family="Helvetica,sans-Serif" font-size="10.00">DictionaryMapType &gt;</text>
</a>
</g>
</g>
<!-- Node14&#45;&gt;Node13 -->
<g id="edge13" class="edge">
<title>Node14&#45;&gt;Node13</title>
<path fill="none" stroke="#9a32cd" stroke-dasharray="5,2" d="M595.38,-403.88C650.44,-404.89 721.43,-406.19 772.47,-407.13"/>
<polygon fill="#9a32cd" stroke="#9a32cd" points="595.36,-400.38 585.29,-403.69 595.23,-407.38 595.36,-400.38"/>
<text text-anchor="middle" x="676.5" y="-409.34" font-family="Helvetica,sans-Serif" font-size="10.00"> m_Dictionary</text>
</g>
<!-- Node15&#45;&gt;Node14 -->
<g id="edge14" class="edge">
<title>Node15&#45;&gt;Node14</title>
<path fill="none" stroke="#9a32cd" stroke-dasharray="5,2" d="M207.43,-433.38C220.52,-428.83 235.78,-424.15 250,-421.34 311.93,-409.08 383.57,-404.54 435.88,-402.95"/>
<polygon fill="#9a32cd" stroke="#9a32cd" points="206.13,-430.13 197.9,-436.81 208.49,-436.72 206.13,-430.13"/>
<text text-anchor="middle" x="334" y="-424.34" font-family="Helvetica,sans-Serif" font-size="10.00"> ptr</text>
</g>
<!-- Node15&#45;&gt;Node21 -->
<g id="edge27" class="edge">
<title>Node15&#45;&gt;Node21</title>
<path fill="none" stroke="orange" stroke-dasharray="5,2" d="M198.56,-461.15C243.67,-487.43 343.6,-541.42 436,-562.34 673.66,-616.13 964.42,-596.85 1104.78,-582.42"/>
<polygon fill="orange" stroke="orange" points="200.18,-458.04 189.79,-455.98 196.63,-464.07 200.18,-458.04"/>
<text text-anchor="start" x="607" y="-610.34" font-family="Helvetica,sans-Serif" font-size="10.00"> &lt; DataObjectIdentifierType,</text>
<text text-anchor="middle" x="676.5" y="-599.34" font-family="Helvetica,sans-Serif" font-size="10.00"> bool &gt;</text>
</g>
<!-- Node15&#45;&gt;Node26 -->
<g id="edge38" class="edge">
<title>Node15&#45;&gt;Node26</title>
<path fill="none" stroke="orange" stroke-dasharray="5,2" d="M233.78,-446.87C406.35,-448.4 905.7,-452.83 1104.96,-454.6"/>
<polygon fill="orange" stroke="orange" points="233.65,-443.37 223.62,-446.78 233.59,-450.37 233.65,-443.37"/>
<text text-anchor="start" x="607" y="-465.34" font-family="Helvetica,sans-Serif" font-size="10.00"> &lt; DataObjectIdentifierType,</text>
<text text-anchor="middle" x="676.5" y="-454.34" font-family="Helvetica,sans-Serif" font-size="10.00"> DataObjectPointer &gt;</text>
</g>
<!-- Node16 -->
<g id="node16" class="node">
<title>Node16</title>
<g id="a_node16"><a xlink:title=" ">
<polygon fill="white" stroke="#bfbfbf" points="0,-490.84 0,-509.84 29,-509.84 29,-490.84 0,-490.84"/>
<text text-anchor="middle" x="14.5" y="-497.84" font-family="Helvetica,sans-Serif" font-size="10.00">K</text>
</a>
</g>
</g>
<!-- Node16&#45;&gt;Node15 -->
<g id="edge15" class="edge">
<title>Node16&#45;&gt;Node15</title>
<path fill="none" stroke="#9a32cd" stroke-dasharray="5,2" d="M38.89,-492.27C67.04,-482.56 114.23,-466.27 144.21,-455.93"/>
<polygon fill="#9a32cd" stroke="#9a32cd" points="37.43,-489.07 29.11,-495.64 39.71,-495.69 37.43,-489.07"/>
<text text-anchor="middle" x="71.5" y="-491.34" font-family="Helvetica,sans-Serif" font-size="10.00"> keys</text>
</g>
<!-- Node20 -->
<g id="node20" class="node">
<title>Node20</title>
<g id="a_node20"><a xlink:title="STL class.">
<polygon fill="white" stroke="#bfbfbf" points="293,-613.84 293,-632.84 375,-632.84 375,-613.84 293,-613.84"/>
<text text-anchor="middle" x="334" y="-620.84" font-family="Helvetica,sans-Serif" font-size="10.00">std::set&lt; K &gt;</text>
</a>
</g>
</g>
<!-- Node16&#45;&gt;Node20 -->
<g id="edge24" class="edge">
<title>Node16&#45;&gt;Node20</title>
<path fill="none" stroke="#9a32cd" stroke-dasharray="5,2" d="M38.12,-513.37C79.03,-536.36 168.63,-584.07 250,-609.34 263.68,-613.59 279.05,-616.63 292.81,-618.78"/>
<polygon fill="#9a32cd" stroke="#9a32cd" points="39.67,-510.23 29.25,-508.34 36.22,-516.32 39.67,-510.23"/>
<text text-anchor="middle" x="71.5" y="-546.34" font-family="Helvetica,sans-Serif" font-size="10.00"> keys</text>
</g>
<!-- Node17&#45;&gt;Node14 -->
<g id="edge17" class="edge">
<title>Node17&#45;&gt;Node14</title>
<path fill="none" stroke="orange" stroke-dasharray="5,2" d="M242.48,-378.57C291.47,-379.29 358.93,-381.43 418,-387.34 423.77,-387.92 429.72,-388.63 435.7,-389.42"/>
<polygon fill="orange" stroke="orange" points="242.36,-375.07 232.31,-378.44 242.27,-382.07 242.36,-375.07"/>
<text text-anchor="middle" x="334" y="-390.34" font-family="Helvetica,sans-Serif" font-size="10.00"> &lt; MetaDataDictionaryMapType &gt;</text>
</g>
<!-- Node18&#45;&gt;Node5 -->
<g id="edge41" class="edge">
<title>Node18&#45;&gt;Node5</title>
<path fill="none" stroke="#9a32cd" stroke-dasharray="5,2" d="M896.02,-214.17C946.17,-212.21 1021.86,-211.53 1087,-220.34 1133.77,-226.66 1443.6,-311.86 1548.13,-340.8"/>
<polygon fill="#9a32cd" stroke="#9a32cd" points="895.57,-210.68 885.72,-214.6 895.86,-217.68 895.57,-210.68"/>
<text text-anchor="middle" x="1189.5" y="-267.34" font-family="Helvetica,sans-Serif" font-size="10.00"> m_OutputInformationMTime</text>
</g>
<!-- Node18&#45;&gt;Node6 -->
<g id="edge19" class="edge">
<title>Node18&#45;&gt;Node6</title>
<path fill="none" stroke="#9a32cd" stroke-dasharray="5,2" d="M895.9,-220.61C948.31,-225.81 1027.58,-239.31 1087,-274.34 1097.3,-280.41 1095.97,-286.5 1105,-294.34 1126.36,-312.86 1154.13,-330.37 1171.63,-340.73"/>
<polygon fill="#9a32cd" stroke="#9a32cd" points="896.06,-217.11 885.79,-219.67 895.42,-224.08 896.06,-217.11"/>
<text text-anchor="middle" x="1008" y="-277.34" font-family="Helvetica,sans-Serif" font-size="10.00"> m_MTime</text>
</g>
<!-- Node19&#45;&gt;Node5 -->
<g id="edge21" class="edge">
<title>Node19&#45;&gt;Node5</title>
<path fill="none" stroke="#9a32cd" stroke-dasharray="5,2" d="M1280.81,-504.61C1356.94,-503.34 1458.91,-497.69 1494,-477.34 1541.66,-449.7 1569.74,-384.89 1579.04,-360.16"/>
<polygon fill="#9a32cd" stroke="#9a32cd" points="1280.67,-501.11 1270.72,-504.76 1280.77,-508.11 1280.67,-501.11"/>
<text text-anchor="middle" x="1393" y="-506.34" font-family="Helvetica,sans-Serif" font-size="10.00"> m_RequiredInputNames</text>
</g>
<!-- Node20&#45;&gt;Node19 -->
<g id="edge23" class="edge">
<title>Node20&#45;&gt;Node19</title>
<path fill="none" stroke="orange" stroke-dasharray="5,2" d="M345.5,-604.91C361.35,-579.13 394.03,-533.22 436,-513.34 535.17,-466.36 819.31,-488.45 929,-485.34 999.19,-483.35 1017.08,-478.85 1087,-485.34 1096.91,-486.26 1107.29,-487.67 1117.47,-489.32"/>
<polygon fill="orange" stroke="orange" points="342.37,-603.33 340.27,-613.71 348.39,-606.91 342.37,-603.33"/>
<text text-anchor="middle" x="676.5" y="-487.34" font-family="Helvetica,sans-Serif" font-size="10.00"> &lt; DataObjectIdentifierType &gt;</text>
</g>
<!-- Node21&#45;&gt;Node5 -->
<g id="edge25" class="edge">
<title>Node21&#45;&gt;Node5</title>
<path fill="none" stroke="#9a32cd" stroke-dasharray="5,2" d="M1284.35,-576.33C1348.97,-574.47 1433.7,-562.4 1494,-518.34 1550.43,-477.11 1574.09,-388.95 1580.56,-359.87"/>
<polygon fill="#9a32cd" stroke="#9a32cd" points="1284.09,-572.84 1274.16,-576.55 1284.23,-579.84 1284.09,-572.84"/>
<text text-anchor="start" x="1322" y="-589.34" font-family="Helvetica,sans-Serif" font-size="10.00"> m_CachedInputReleaseData</text>
<text text-anchor="middle" x="1393" y="-578.34" font-family="Helvetica,sans-Serif" font-size="10.00">Flags</text>
</g>
<!-- Node22&#45;&gt;Node5 -->
<g id="edge28" class="edge">
<title>Node22&#45;&gt;Node5</title>
<path fill="none" stroke="#9a32cd" stroke-dasharray="5,2" d="M753.63,-361.46C799.94,-365.51 859.83,-373.52 911,-389.34 919.54,-391.98 920.29,-396.28 929,-398.34 997.34,-414.47 1016.84,-401.26 1087,-398.34 1268.36,-390.78 1313.79,-386.09 1494,-364.34 1506.05,-362.88 1518.97,-361.02 1531.11,-359.12"/>
<polygon fill="#9a32cd" stroke="#9a32cd" points="753.92,-357.97 743.66,-360.63 753.34,-364.95 753.92,-357.97"/>
<text text-anchor="middle" x="1008" y="-408.34" font-family="Helvetica,sans-Serif" font-size="10.00"> m_Progress</text>
</g>
<!-- Node23 -->
<g id="node23" class="node">
<title>Node23</title>
<g id="a_node23"><a xlink:title=" ">
<polygon fill="white" stroke="#bfbfbf" points="1105,-160.34 1105,-190.34 1274,-190.34 1274,-160.34 1105,-160.34"/>
<text text-anchor="start" x="1113" y="-178.34" font-family="Helvetica,sans-Serif" font-size="10.00">std::vector&lt; DataObjectPointer</text>
<text text-anchor="middle" x="1189.5" y="-167.34" font-family="Helvetica,sans-Serif" font-size="10.00">Map::iterator &gt;</text>
</a>
</g>
</g>
<!-- Node23&#45;&gt;Node5 -->
<g id="edge30" class="edge">
<title>Node23&#45;&gt;Node5</title>
<path fill="none" stroke="#9a32cd" stroke-dasharray="5,2" d="M1284.54,-175.82C1350.03,-180.87 1435.75,-197.49 1494,-246.34 1509.56,-259.39 1500.08,-271.9 1512,-288.34 1527.78,-310.11 1552.51,-329.58 1568.09,-340.66"/>
<polygon fill="#9a32cd" stroke="#9a32cd" points="1284.43,-172.31 1274.21,-175.11 1283.94,-179.29 1284.43,-172.31"/>
<text text-anchor="middle" x="1393" y="-260.34" font-family="Helvetica,sans-Serif" font-size="10.00"> m_IndexedOutputs</text>
<text text-anchor="middle" x="1393" y="-249.34" font-family="Helvetica,sans-Serif" font-size="10.00">m_IndexedInputs</text>
</g>
<!-- Node24 -->
<g id="node24" class="node">
<title>Node24</title>
<g id="a_node24"><a xlink:title="STL iterator class.">
<polygon fill="white" stroke="#bfbfbf" points="768,-165.84 768,-184.84 911,-184.84 911,-165.84 768,-165.84"/>
<text text-anchor="middle" x="839.5" y="-172.84" font-family="Helvetica,sans-Serif" font-size="10.00">std::map&lt; K, T &gt;::iterator</text>
</a>
</g>
</g>
<!-- Node24&#45;&gt;Node23 -->
<g id="edge31" class="edge">
<title>Node24&#45;&gt;Node23</title>
<path fill="none" stroke="#9a32cd" stroke-dasharray="5,2" d="M921.42,-175.34C976.5,-175.34 1049.24,-175.34 1104.89,-175.34"/>
<polygon fill="#9a32cd" stroke="#9a32cd" points="921.34,-171.84 911.34,-175.34 921.34,-178.84 921.34,-171.84"/>
<text text-anchor="middle" x="1008" y="-178.34" font-family="Helvetica,sans-Serif" font-size="10.00"> elements</text>
</g>
<!-- Node25&#45;&gt;Node23 -->
<g id="edge32" class="edge">
<title>Node25&#45;&gt;Node23</title>
<path fill="none" stroke="orange" stroke-dasharray="5,2" d="M869.94,-84.32C886.94,-92.06 908.89,-101.47 929,-108.34 933.84,-109.99 1054.68,-141.04 1129.73,-160.28"/>
<polygon fill="orange" stroke="orange" points="871.09,-81 860.54,-79.99 868.16,-87.36 871.09,-81"/>
<text text-anchor="start" x="945.5" y="-162.34" font-family="Helvetica,sans-Serif" font-size="10.00"> &lt; DataObjectPointerMap</text>
<text text-anchor="middle" x="1008" y="-151.34" font-family="Helvetica,sans-Serif" font-size="10.00">::iterator &gt;</text>
</g>
<!-- Node35 -->
<g id="node35" class="node">
<title>Node35</title>
<g id="a_node35"><a xlink:title=" ">
<polygon fill="white" stroke="#bfbfbf" points="1292,-3.34 1292,-33.34 1494,-33.34 1494,-3.34 1292,-3.34"/>
<text text-anchor="start" x="1300" y="-21.34" font-family="Helvetica,sans-Serif" font-size="10.00">std::vector&lt; typename</text>
<text text-anchor="middle" x="1393" y="-10.34" font-family="Helvetica,sans-Serif" font-size="10.00"> FFTW1DProxyType::ComplexType * &gt;</text>
</a>
</g>
</g>
<!-- Node25&#45;&gt;Node35 -->
<g id="edge53" class="edge">
<title>Node25&#45;&gt;Node35</title>
<path fill="none" stroke="orange" stroke-dasharray="5,2" d="M862.81,-54.99C880.03,-44.1 904.91,-30.39 929,-24.34 1051.02,6.32 1196.88,1.73 1291.84,-6.46"/>
<polygon fill="orange" stroke="orange" points="860.55,-52.29 854.09,-60.68 864.37,-58.15 860.55,-52.29"/>
<text text-anchor="start" x="929" y="-38.34" font-family="Helvetica,sans-Serif" font-size="10.00"> &lt; typename FFTW1DProxyType</text>
<text text-anchor="middle" x="1008" y="-27.34" font-family="Helvetica,sans-Serif" font-size="10.00">::ComplexType * &gt;</text>
</g>
<!-- Node36 -->
<g id="node36" class="node">
<title>Node36</title>
<g id="a_node36"><a xlink:title=" ">
<polygon fill="white" stroke="#bfbfbf" points="1673,-66.34 1673,-96.34 1844,-96.34 1844,-66.34 1673,-66.34"/>
<text text-anchor="start" x="1681" y="-84.34" font-family="Helvetica,sans-Serif" font-size="10.00">std::vector&lt; typename</text>
<text text-anchor="middle" x="1758.5" y="-73.34" font-family="Helvetica,sans-Serif" font-size="10.00"> FFTW1DProxyType::PlanType &gt;</text>
</a>
</g>
</g>
<!-- Node25&#45;&gt;Node36 -->
<g id="edge56" class="edge">
<title>Node25&#45;&gt;Node36</title>
<path fill="none" stroke="orange" stroke-dasharray="5,2" d="M898.61,-70.06C952.2,-69.81 1033.97,-69.47 1105,-69.34 1180.11,-69.2 1198.89,-68.41 1274,-69.34 1413.79,-71.07 1576.27,-75.63 1672.79,-78.6"/>
<polygon fill="orange" stroke="orange" points="898.27,-66.56 888.28,-70.1 898.3,-73.56 898.27,-66.56"/>
<text text-anchor="start" x="1110.5" y="-83.34" font-family="Helvetica,sans-Serif" font-size="10.00"> &lt; typename FFTW1DProxyType</text>
<text text-anchor="middle" x="1189.5" y="-72.34" font-family="Helvetica,sans-Serif" font-size="10.00">::PlanType &gt;</text>
</g>
<!-- Node26&#45;&gt;Node5 -->
<g id="edge34" class="edge">
<title>Node26&#45;&gt;Node5</title>
<path fill="none" stroke="#9a32cd" stroke-dasharray="5,2" d="M1284.43,-452.15C1359.28,-448.49 1457.39,-440.85 1494,-425.34 1529.05,-410.49 1560.58,-376.69 1574.69,-360.01"/>
<polygon fill="#9a32cd" stroke="#9a32cd" points="1283.85,-448.67 1274.03,-452.64 1284.18,-455.67 1283.85,-448.67"/>
<text text-anchor="middle" x="1393" y="-465.34" font-family="Helvetica,sans-Serif" font-size="10.00"> m_Outputs</text>
<text text-anchor="middle" x="1393" y="-454.34" font-family="Helvetica,sans-Serif" font-size="10.00">m_Inputs</text>
</g>
<!-- Node27 -->
<g id="node27" class="node">
<title>Node27</title>
<g id="a_node27"><a xlink:href="classitk_1_1SmartPointer.html" target="_top" xlink:title=" ">
<polygon fill="white" stroke="black" points="786,-246.34 786,-276.34 893,-276.34 893,-246.34 786,-246.34"/>
<text text-anchor="start" x="794" y="-264.34" font-family="Helvetica,sans-Serif" font-size="10.00">itk::SmartPointer&lt;</text>
<text text-anchor="middle" x="839.5" y="-253.34" font-family="Helvetica,sans-Serif" font-size="10.00"> Self &gt;</text>
</a>
</g>
</g>
<!-- Node27&#45;&gt;Node1 -->
<g id="edge54" class="edge">
<title>Node27&#45;&gt;Node1</title>
<path fill="none" stroke="#9a32cd" stroke-dasharray="5,2" d="M903.45,-265.77C954.18,-267.39 1026.73,-265.29 1087,-246.34 1095.94,-243.53 1096.04,-238.09 1105,-235.34 1308.08,-172.89 1370.03,-212.34 1582.5,-212.34 1582.5,-212.34 1582.5,-212.34 3416.5,-212.34 3480.51,-212.34 3552.52,-202.46 3605.3,-193.35"/>
<polygon fill="#9a32cd" stroke="#9a32cd" points="903.41,-262.26 893.29,-265.38 903.15,-269.26 903.41,-262.26"/>
<text text-anchor="middle" x="2308.5" y="-215.34" font-family="Helvetica,sans-Serif" font-size="10.00"> m_ImageRegionSplitter</text>
</g>
<!-- Node27&#45;&gt;Node26 -->
<g id="edge35" class="edge">
<title>Node27&#45;&gt;Node26</title>
<path fill="none" stroke="#9a32cd" stroke-dasharray="5,2" d="M903.21,-270.13C966.93,-280.21 1060,-298.47 1087,-322.34 1103.76,-337.15 1092.96,-350.49 1105,-369.34 1123.03,-397.58 1151.41,-424.31 1169.99,-440.27"/>
<polygon fill="#9a32cd" stroke="#9a32cd" points="903.67,-266.66 893.25,-268.58 902.59,-273.57 903.67,-266.66"/>
<text text-anchor="middle" x="1008" y="-325.34" font-family="Helvetica,sans-Serif" font-size="10.00"> elements</text>
</g>
<!-- Node28 -->
<g id="node28" class="node">
<title>Node28</title>
<g id="a_node28"><a xlink:href="classitk_1_1SmartPointer.html" target="_top" xlink:title="Implements transparent reference counting.">
<polygon fill="white" stroke="black" points="457,-149.34 457,-179.34 564,-179.34 564,-149.34 457,-149.34"/>
<text text-anchor="start" x="465" y="-167.34" font-family="Helvetica,sans-Serif" font-size="10.00">itk::SmartPointer&lt;</text>
<text text-anchor="middle" x="510.5" y="-156.34" font-family="Helvetica,sans-Serif" font-size="10.00"> TObjectType &gt;</text>
</a>
</g>
</g>
<!-- Node28&#45;&gt;Node27 -->
<g id="edge36" class="edge">
<title>Node28&#45;&gt;Node27</title>
<path fill="none" stroke="orange" stroke-dasharray="5,2" d="M571.9,-182.26C634.02,-200.68 729.66,-229.05 787.92,-246.33"/>
<polygon fill="orange" stroke="orange" points="572.82,-178.88 562.23,-179.39 570.83,-185.59 572.82,-178.88"/>
<text text-anchor="middle" x="676.5" y="-235.34" font-family="Helvetica,sans-Serif" font-size="10.00"> &lt; Self &gt;</text>
</g>
<!-- Node29 -->
<g id="node29" class="node">
<title>Node29</title>
<g id="a_node29"><a xlink:href="classitk_1_1SmartPointer.html" target="_top" xlink:title=" ">
<polygon fill="white" stroke="black" points="937,-76.34 937,-106.34 1079,-106.34 1079,-76.34 937,-76.34"/>
<text text-anchor="start" x="945" y="-94.34" font-family="Helvetica,sans-Serif" font-size="10.00">itk::SmartPointer&lt;</text>
<text text-anchor="middle" x="1008" y="-83.34" font-family="Helvetica,sans-Serif" font-size="10.00"> itk::MultiThreaderBase &gt;</text>
</a>
</g>
</g>
<!-- Node28&#45;&gt;Node29 -->
<g id="edge40" class="edge">
<title>Node28&#45;&gt;Node29</title>
<path fill="none" stroke="orange" stroke-dasharray="5,2" d="M574.13,-155.11C666.81,-141.46 839.91,-115.96 936.77,-101.69"/>
<polygon fill="orange" stroke="orange" points="573.44,-151.68 564.06,-156.6 574.46,-158.6 573.44,-151.68"/>
<text text-anchor="middle" x="676.5" y="-152.34" font-family="Helvetica,sans-Serif" font-size="10.00"> &lt; itk::MultiThreaderBase &gt;</text>
</g>
<!-- Node29&#45;&gt;Node5 -->
<g id="edge39" class="edge">
<title>Node29&#45;&gt;Node5</title>
<path fill="none" stroke="#9a32cd" stroke-dasharray="5,2" d="M1089.26,-93.7C1212.21,-99.06 1438.76,-116.46 1494,-172.34 1530.68,-209.44 1486.91,-242.6 1512,-288.34 1524.7,-311.49 1549.56,-330.17 1566.1,-340.76"/>
<polygon fill="#9a32cd" stroke="#9a32cd" points="1089.28,-90.19 1079.14,-93.27 1088.99,-97.19 1089.28,-90.19"/>
<text text-anchor="middle" x="1189.5" y="-111.34" font-family="Helvetica,sans-Serif" font-size="10.00"> m_MultiThreader</text>
</g>
<!-- Node30 -->
<g id="node30" class="node">
<title>Node30</title>
<g id="a_node30"><a xlink:href="structitk_1_1ImageSourceCommon.html" target="_top" xlink:title="Secondary base class of ImageSource common between templates.">
<polygon fill="white" stroke="black" points="1512,-259.84 1512,-278.84 1655,-278.84 1655,-259.84 1512,-259.84"/>
<text text-anchor="middle" x="1583.5" y="-266.84" font-family="Helvetica,sans-Serif" font-size="10.00">itk::ImageSourceCommon</text>
</a>
</g>
</g>
<!-- Node30&#45;&gt;Node4 -->
<g id="edge42" class="edge">
<title>Node30&#45;&gt;Node4</title>
<path fill="none" stroke="#8b1a1a" d="M1665.03,-274.36C1716.28,-277.62 1784.05,-282.05 1844,-286.34 1968.18,-295.23 2110.99,-306.48 2204.89,-314.01"/>
<polygon fill="#8b1a1a" stroke="#8b1a1a" points="1665.21,-270.87 1655,-273.73 1664.76,-277.85 1665.21,-270.87"/>
</g>
<!-- Node30&#45;&gt;Node31 -->
<g id="edge45" class="edge">
<title>Node30&#45;&gt;Node31</title>
<path fill="none" stroke="#8b1a1a" d="M1637.33,-281.08C1701.72,-295.39 1810.67,-319.6 1881.2,-335.27"/>
<polygon fill="#8b1a1a" stroke="#8b1a1a" points="1637.91,-277.62 1627.38,-278.87 1636.39,-284.45 1637.91,-277.62"/>
</g>
<!-- Node31&#45;&gt;Node4 -->
<g id="edge43" class="edge">
<title>Node31&#45;&gt;Node4</title>
<path fill="none" stroke="orange" stroke-dasharray="5,2" d="M2035.07,-342.16C2042.15,-341.52 2049.2,-340.91 2056,-340.34 2104.97,-336.26 2159.35,-332.29 2204.98,-329.13"/>
<polygon fill="orange" stroke="orange" points="2034.34,-338.71 2024.7,-343.1 2034.97,-345.68 2034.34,-338.71"/>
<text text-anchor="start" x="2056" y="-376.34" font-family="Helvetica,sans-Serif" font-size="10.00"> &lt; Image&lt; std::complex</text>
<text text-anchor="start" x="2056" y="-365.34" font-family="Helvetica,sans-Serif" font-size="10.00">&lt; typename TInputImage</text>
<text text-anchor="start" x="2056" y="-354.34" font-family="Helvetica,sans-Serif" font-size="10.00">::PixelType &gt;, TInputImage</text>
<text text-anchor="middle" x="2121.5" y="-343.34" font-family="Helvetica,sans-Serif" font-size="10.00">::ImageDimension &gt; &gt;</text>
</g>
<!-- Node33 -->
<g id="node33" class="node">
<title>Node33</title>
<g id="a_node33"><a xlink:href="classitk_1_1ImageToImageFilter.html" target="_top" xlink:title="Base class for filters that take an image as input and produce an image as output.">
<polygon fill="white" stroke="black" points="2220.5,-383.34 2220.5,-413.34 2396.5,-413.34 2396.5,-383.34 2220.5,-383.34"/>
<text text-anchor="start" x="2228.5" y="-401.34" font-family="Helvetica,sans-Serif" font-size="10.00">itk::ImageToImageFilter</text>
<text text-anchor="middle" x="2308.5" y="-390.34" font-family="Helvetica,sans-Serif" font-size="10.00">&lt; TInputImage, TOutputImage &gt;</text>
</a>
</g>
</g>
<!-- Node31&#45;&gt;Node33 -->
<g id="edge48" class="edge">
<title>Node31&#45;&gt;Node33</title>
<path fill="none" stroke="midnightblue" d="M1998.81,-368.69C2016.52,-374.72 2036.93,-380.78 2056,-384.34 2110.06,-394.42 2171.69,-397.98 2220.42,-398.98"/>
<polygon fill="midnightblue" stroke="midnightblue" points="1999.87,-365.35 1989.28,-365.36 1997.56,-371.96 1999.87,-365.35"/>
</g>
<!-- Node32 -->
<g id="node32" class="node">
<title>Node32</title>
<g id="a_node32"><a xlink:href="classitk_1_1ImageToImageFilterCommon.html" target="_top" xlink:title="Secondary base class of ImageToImageFilter common between templates.">
<polygon fill="white" stroke="black" points="1862,-425.84 1862,-444.84 2038,-444.84 2038,-425.84 1862,-425.84"/>
<text text-anchor="middle" x="1950" y="-432.84" font-family="Helvetica,sans-Serif" font-size="10.00">itk::ImageToImageFilterCommon</text>
</a>
</g>
</g>
<!-- Node32&#45;&gt;Node3 -->
<g id="edge46" class="edge">
<title>Node32&#45;&gt;Node3</title>
<path fill="none" stroke="#8b1a1a" d="M2013.02,-446.53C2133.36,-465.78 2405.62,-497.17 2621,-432.34 2652.26,-422.93 2682.96,-402.58 2705.55,-384.9"/>
<polygon fill="#8b1a1a" stroke="#8b1a1a" points="2013.32,-443.03 2002.89,-444.88 2012.2,-449.94 2013.32,-443.03"/>
</g>
<!-- Node32&#45;&gt;Node33 -->
<g id="edge49" class="edge">
<title>Node32&#45;&gt;Node33</title>
<path fill="none" stroke="#8b1a1a" d="M2048.43,-425.23C2102.14,-419.65 2168.26,-412.79 2220.26,-407.39"/>
<polygon fill="#8b1a1a" stroke="#8b1a1a" points="2047.79,-421.77 2038.21,-426.29 2048.52,-428.74 2047.79,-421.77"/>
</g>
<!-- Node33&#45;&gt;Node3 -->
<g id="edge47" class="edge">
<title>Node33&#45;&gt;Node3</title>
<path fill="none" stroke="orange" stroke-dasharray="5,2" d="M2406.69,-388.22C2475.83,-381.01 2568.56,-371.35 2638.9,-364.03"/>
<polygon fill="orange" stroke="orange" points="2406.25,-384.74 2396.66,-389.26 2406.97,-391.7 2406.25,-384.74"/>
<text text-anchor="start" x="2430" y="-420.34" font-family="Helvetica,sans-Serif" font-size="10.00"> &lt; TInputImage, Image</text>
<text text-anchor="start" x="2430" y="-409.34" font-family="Helvetica,sans-Serif" font-size="10.00">&lt; std::complex&lt; typename</text>
<text text-anchor="start" x="2430" y="-398.34" font-family="Helvetica,sans-Serif" font-size="10.00"> TInputImage::PixelType</text>
<text text-anchor="middle" x="2525.5" y="-387.34" font-family="Helvetica,sans-Serif" font-size="10.00"> &gt;, TInputImage::ImageDimension &gt; &gt;</text>
</g>
<!-- Node34&#45;&gt;Node2 -->
<g id="edge50" class="edge">
<title>Node34&#45;&gt;Node2</title>
<path fill="none" stroke="orange" stroke-dasharray="5,2" d="M3069.24,-295.64C3071.85,-295.53 3074.44,-295.43 3077,-295.34 3145.95,-292.94 3222.88,-292.54 3285.85,-292.8"/>
<polygon fill="orange" stroke="orange" points="3068.9,-292.15 3059.07,-296.11 3069.22,-299.14 3068.9,-292.15"/>
<text text-anchor="start" x="3077" y="-331.34" font-family="Helvetica,sans-Serif" font-size="10.00"> &lt; TInputImage, Image</text>
<text text-anchor="start" x="3077" y="-320.34" font-family="Helvetica,sans-Serif" font-size="10.00">&lt; std::complex&lt; typename</text>
<text text-anchor="start" x="3077" y="-309.34" font-family="Helvetica,sans-Serif" font-size="10.00"> TInputImage::PixelType</text>
<text text-anchor="middle" x="3172.5" y="-298.34" font-family="Helvetica,sans-Serif" font-size="10.00"> &gt;, TInputImage::ImageDimension &gt; &gt;</text>
</g>
<!-- Node35&#45;&gt;Node1 -->
<g id="edge52" class="edge">
<title>Node35&#45;&gt;Node1</title>
<path fill="none" stroke="#9a32cd" stroke-dasharray="5,2" d="M1504.29,-19.26C1576.35,-19.79 1672.51,-20.34 1757.5,-20.34 1757.5,-20.34 1757.5,-20.34 3416.5,-20.34 3527.38,-20.34 3632.21,-123.64 3668.28,-163.19"/>
<polygon fill="#9a32cd" stroke="#9a32cd" points="1504.31,-15.76 1494.29,-19.19 1504.26,-22.76 1504.31,-15.76"/>
<text text-anchor="middle" x="2525.5" y="-34.34" font-family="Helvetica,sans-Serif" font-size="10.00"> m_InputBufferArray</text>
<text text-anchor="middle" x="2525.5" y="-23.34" font-family="Helvetica,sans-Serif" font-size="10.00">m_OutputBufferArray</text>
</g>
<!-- Node36&#45;&gt;Node1 -->
<g id="edge55" class="edge">
<title>Node36&#45;&gt;Node1</title>
<path fill="none" stroke="#9a32cd" stroke-dasharray="5,2" d="M1854.09,-89.85C1926.87,-95.67 2029.96,-102.34 2120.5,-102.34 2120.5,-102.34 2120.5,-102.34 3416.5,-102.34 3504.09,-102.34 3601.87,-141.18 3650.51,-163.32"/>
<polygon fill="#9a32cd" stroke="#9a32cd" points="1854.28,-86.36 1844.03,-89.04 1853.72,-93.34 1854.28,-86.36"/>
<text text-anchor="middle" x="2742.5" y="-105.34" font-family="Helvetica,sans-Serif" font-size="10.00"> m_PlanArray</text>
</g>
</g>
</svg>
