<?xml version="1.0" encoding="UTF-8" standalone="no"?>
<!DOCTYPE svg PUBLIC "-//W3C//DTD SVG 1.1//EN"
 "http://www.w3.org/Graphics/SVG/1.1/DTD/svg11.dtd">
<!-- Generated by graphviz version 2.43.0 (0)
 -->
<!-- Title: itk::LevelSetEvolutionComputeIterationThreader&lt; WhitakerSparseLevelSetImage&lt; TOutput, VDimension &gt;, ThreadedIteratorRangePartitioner&lt; WhitakerSparseLevelSetImage&lt; TOutput, VDimension &gt;::LayerConstIterator &gt;, TLevelSetEvolution &gt; Pages: 1 -->
<svg width="2147pt" height="218pt"
 viewBox="0.00 0.00 2147.00 217.50" xmlns="http://www.w3.org/2000/svg" xmlns:xlink="http://www.w3.org/1999/xlink">
<g id="graph0" class="graph" transform="scale(1 1) rotate(0) translate(4 213.5)">
<title>itk::LevelSetEvolutionComputeIterationThreader&lt; WhitakerSparseLevelSetImage&lt; TOutput, VDimension &gt;, ThreadedIteratorRangePartitioner&lt; WhitakerSparseLevelSetImage&lt; TOutput, VDimension &gt;::LayerConstIterator &gt;, TLevelSetEvolution &gt;</title>
<polygon fill="white" stroke="transparent" points="-4,4 -4,-213.5 2143,-213.5 2143,4 -4,4"/>
<!-- Node1 -->
<g id="node1" class="node">
<title>Node1</title>
<g id="a_node1"><a xlink:title=" ">
<polygon fill="#bfbfbf" stroke="black" points="1830,-0.5 1830,-74.5 2139,-74.5 2139,-0.5 1830,-0.5"/>
<text text-anchor="start" x="1838" y="-62.5" font-family="Helvetica,sans-Serif" font-size="10.00">itk::LevelSetEvolutionCompute</text>
<text text-anchor="start" x="1838" y="-51.5" font-family="Helvetica,sans-Serif" font-size="10.00">IterationThreader&lt; WhitakerSparse</text>
<text text-anchor="start" x="1838" y="-40.5" font-family="Helvetica,sans-Serif" font-size="10.00">LevelSetImage&lt; TOutput, VDimension</text>
<text text-anchor="start" x="1838" y="-29.5" font-family="Helvetica,sans-Serif" font-size="10.00"> &gt;, ThreadedIteratorRangePartitioner</text>
<text text-anchor="start" x="1838" y="-18.5" font-family="Helvetica,sans-Serif" font-size="10.00">&lt; WhitakerSparseLevelSetImage&lt; TOutput,</text>
<text text-anchor="middle" x="1984.5" y="-7.5" font-family="Helvetica,sans-Serif" font-size="10.00"> VDimension &gt;::LayerConstIterator &gt;, TLevelSetEvolution &gt;</text>
</a>
</g>
</g>
<!-- Node2 -->
<g id="node2" class="node">
<title>Node2</title>
<g id="a_node2"><a xlink:href="classitk_1_1DomainThreader.html" target="_top" xlink:title=" ">
<polygon fill="white" stroke="black" points="1437,-59 1437,-122 1677,-122 1677,-59 1437,-59"/>
<text text-anchor="start" x="1445" y="-110" font-family="Helvetica,sans-Serif" font-size="10.00">itk::DomainThreader</text>
<text text-anchor="start" x="1445" y="-99" font-family="Helvetica,sans-Serif" font-size="10.00">&lt; ThreadedIteratorRangePartitioner</text>
<text text-anchor="start" x="1445" y="-88" font-family="Helvetica,sans-Serif" font-size="10.00">&lt; WhitakerSparseLevelSetImage</text>
<text text-anchor="start" x="1445" y="-77" font-family="Helvetica,sans-Serif" font-size="10.00">&lt; TOutput, VDimension &gt;::LayerConstIterator</text>
<text text-anchor="middle" x="1557" y="-66" font-family="Helvetica,sans-Serif" font-size="10.00"> &gt;, TLevelSetEvolution &gt;</text>
</a>
</g>
</g>
<!-- Node2&#45;&gt;Node1 -->
<g id="edge1" class="edge">
<title>Node2&#45;&gt;Node1</title>
<path fill="none" stroke="midnightblue" d="M1687.18,-74.41C1732.14,-68.81 1783.01,-62.47 1829.75,-56.65"/>
<polygon fill="midnightblue" stroke="midnightblue" points="1686.58,-70.96 1677.09,-75.67 1687.45,-77.9 1686.58,-70.96"/>
</g>
<!-- Node3 -->
<g id="node3" class="node">
<title>Node3</title>
<g id="a_node3"><a xlink:href="classitk_1_1Object.html" target="_top" xlink:title="Base class for most ITK classes.">
<polygon fill="white" stroke="black" points="1227,-107 1227,-126 1294,-126 1294,-107 1227,-107"/>
<text text-anchor="middle" x="1260.5" y="-114" font-family="Helvetica,sans-Serif" font-size="10.00">itk::Object</text>
</a>
</g>
</g>
<!-- Node3&#45;&gt;Node2 -->
<g id="edge2" class="edge">
<title>Node3&#45;&gt;Node2</title>
<path fill="none" stroke="midnightblue" d="M1304.41,-112.71C1339.21,-109.64 1390.02,-105.15 1436.88,-101.02"/>
<polygon fill="midnightblue" stroke="midnightblue" points="1303.8,-109.25 1294.14,-113.62 1304.41,-116.23 1303.8,-109.25"/>
</g>
<!-- Node4 -->
<g id="node4" class="node">
<title>Node4</title>
<g id="a_node4"><a xlink:href="classitk_1_1LightObject.html" target="_top" xlink:title="Light weight base class for most itk classes.">
<polygon fill="white" stroke="black" points="924,-189 924,-208 1015,-208 1015,-189 924,-189"/>
<text text-anchor="middle" x="969.5" y="-196" font-family="Helvetica,sans-Serif" font-size="10.00">itk::LightObject</text>
</a>
</g>
</g>
<!-- Node4&#45;&gt;Node3 -->
<g id="edge3" class="edge">
<title>Node4&#45;&gt;Node3</title>
<path fill="none" stroke="midnightblue" d="M1025.31,-201C1070.86,-201.11 1136.47,-196.64 1189,-174.5 1215,-163.54 1238.93,-139.78 1251.09,-126.32"/>
<polygon fill="midnightblue" stroke="midnightblue" points="1025.08,-197.5 1015.05,-200.9 1025.01,-204.5 1025.08,-197.5"/>
</g>
<!-- Node5 -->
<g id="node5" class="node">
<title>Node5</title>
<g id="a_node5"><a xlink:title=" ">
<polygon fill="white" stroke="black" points="647.5,-189 647.5,-208 754.5,-208 754.5,-189 647.5,-189"/>
<text text-anchor="middle" x="701" y="-196" font-family="Helvetica,sans-Serif" font-size="10.00">std::atomic&lt; int &gt;</text>
</a>
</g>
</g>
<!-- Node5&#45;&gt;Node4 -->
<g id="edge4" class="edge">
<title>Node5&#45;&gt;Node4</title>
<path fill="none" stroke="#9a32cd" stroke-dasharray="5,2" d="M764.8,-198.5C813.7,-198.5 880.37,-198.5 923.92,-198.5"/>
<polygon fill="#9a32cd" stroke="#9a32cd" points="764.65,-195 754.65,-198.5 764.65,-202 764.65,-195"/>
<text text-anchor="middle" x="834.5" y="-201.5" font-family="Helvetica,sans-Serif" font-size="10.00"> m_ReferenceCount</text>
</g>
<!-- Node6 -->
<g id="node6" class="node">
<title>Node6</title>
<g id="a_node6"><a xlink:href="classitk_1_1TimeStamp.html" target="_top" xlink:title="Generate a unique, increasing time value.">
<polygon fill="white" stroke="black" points="524,-151 524,-170 616,-170 616,-151 524,-151"/>
<text text-anchor="middle" x="570" y="-158" font-family="Helvetica,sans-Serif" font-size="10.00">itk::TimeStamp</text>
</a>
</g>
</g>
<!-- Node6&#45;&gt;Node3 -->
<g id="edge5" class="edge">
<title>Node6&#45;&gt;Node3</title>
<path fill="none" stroke="#9a32cd" stroke-dasharray="5,2" d="M626.32,-158.71C713.77,-155.77 889.28,-149.45 1038,-141.5 1105.16,-137.91 1122.38,-140.74 1189,-131.5 1201.39,-129.78 1214.86,-127.11 1226.68,-124.51"/>
<polygon fill="#9a32cd" stroke="#9a32cd" points="625.98,-155.21 616.1,-159.05 626.21,-162.21 625.98,-155.21"/>
<text text-anchor="middle" x="834.5" y="-155.5" font-family="Helvetica,sans-Serif" font-size="10.00"> m_MTime</text>
</g>
<!-- Node7 -->
<g id="node7" class="node">
<title>Node7</title>
<g id="a_node7"><a xlink:title=" ">
<polygon fill="white" stroke="black" points="114.5,-151 114.5,-170 214.5,-170 214.5,-151 114.5,-151"/>
<text text-anchor="middle" x="164.5" y="-158" font-family="Helvetica,sans-Serif" font-size="10.00">std::atomic&lt; T &gt;</text>
</a>
</g>
</g>
<!-- Node7&#45;&gt;Node6 -->
<g id="edge6" class="edge">
<title>Node7&#45;&gt;Node6</title>
<path fill="none" stroke="#9a32cd" stroke-dasharray="5,2" d="M224.66,-160.5C306.06,-160.5 450.8,-160.5 523.98,-160.5"/>
<polygon fill="#9a32cd" stroke="#9a32cd" points="224.57,-157 214.57,-160.5 224.57,-164 224.57,-157"/>
<text text-anchor="middle" x="286" y="-163.5" font-family="Helvetica,sans-Serif" font-size="10.00"> m_GlobalTimeStamp</text>
</g>
<!-- Node8 -->
<g id="node8" class="node">
<title>Node8</title>
<g id="a_node8"><a xlink:title=" ">
<polygon fill="white" stroke="black" points="0,-136 0,-155 29,-155 29,-136 0,-136"/>
<text text-anchor="middle" x="14.5" y="-143" font-family="Helvetica,sans-Serif" font-size="10.00">T</text>
</a>
</g>
</g>
<!-- Node8&#45;&gt;Node7 -->
<g id="edge7" class="edge">
<title>Node8&#45;&gt;Node7</title>
<path fill="none" stroke="#9a32cd" stroke-dasharray="5,2" d="M39.33,-147.92C59.54,-149.96 89.19,-152.97 114.45,-155.53"/>
<polygon fill="#9a32cd" stroke="#9a32cd" points="39.46,-144.41 29.16,-146.88 38.75,-151.37 39.46,-144.41"/>
<text text-anchor="middle" x="71.5" y="-155.5" font-family="Helvetica,sans-Serif" font-size="10.00"> ptr</text>
</g>
<!-- Node13 -->
<g id="node13" class="node">
<title>Node13</title>
<g id="a_node13"><a xlink:title=" ">
<polygon fill="white" stroke="black" points="114,-107 114,-126 215,-126 215,-107 114,-107"/>
<text text-anchor="middle" x="164.5" y="-114" font-family="Helvetica,sans-Serif" font-size="10.00">std::map&lt; K, T &gt;</text>
</a>
</g>
</g>
<!-- Node8&#45;&gt;Node13 -->
<g id="edge14" class="edge">
<title>Node8&#45;&gt;Node13</title>
<path fill="none" stroke="#9a32cd" stroke-dasharray="5,2" d="M38.7,-136.01C41.47,-135.07 44.28,-134.21 47,-133.5 68.66,-127.87 93.11,-123.94 113.99,-121.3"/>
<polygon fill="#9a32cd" stroke="#9a32cd" points="37.25,-132.82 29.09,-139.58 39.68,-139.38 37.25,-132.82"/>
<text text-anchor="middle" x="71.5" y="-136.5" font-family="Helvetica,sans-Serif" font-size="10.00"> elements</text>
</g>
<!-- Node9 -->
<g id="node9" class="node">
<title>Node9</title>
<g id="a_node9"><a xlink:title=" ">
<polygon fill="white" stroke="black" points="901,-52.5 901,-82.5 1038,-82.5 1038,-52.5 901,-52.5"/>
<text text-anchor="start" x="909" y="-70.5" font-family="Helvetica,sans-Serif" font-size="10.00">std::unique_ptr&lt; Subject</text>
<text text-anchor="middle" x="969.5" y="-59.5" font-family="Helvetica,sans-Serif" font-size="10.00">Implementation &gt;</text>
</a>
</g>
</g>
<!-- Node9&#45;&gt;Node3 -->
<g id="edge8" class="edge">
<title>Node9&#45;&gt;Node3</title>
<path fill="none" stroke="#9a32cd" stroke-dasharray="5,2" d="M1048.21,-78.52C1090.02,-84.73 1142.43,-92.93 1189,-101.5 1201.43,-103.79 1215.03,-106.6 1226.93,-109.18"/>
<polygon fill="#9a32cd" stroke="#9a32cd" points="1048.49,-75.03 1038.09,-77.03 1047.47,-81.95 1048.49,-75.03"/>
<text text-anchor="middle" x="1122.5" y="-104.5" font-family="Helvetica,sans-Serif" font-size="10.00"> m_SubjectImplementation</text>
</g>
<!-- Node10 -->
<g id="node10" class="node">
<title>Node10</title>
<g id="a_node10"><a xlink:title=" ">
<polygon fill="white" stroke="black" points="903.5,-101.5 903.5,-131.5 1035.5,-131.5 1035.5,-101.5 903.5,-101.5"/>
<text text-anchor="start" x="911.5" y="-119.5" font-family="Helvetica,sans-Serif" font-size="10.00">std::unique_ptr&lt; itk</text>
<text text-anchor="middle" x="969.5" y="-108.5" font-family="Helvetica,sans-Serif" font-size="10.00">::MetaDataDictionary &gt;</text>
</a>
</g>
</g>
<!-- Node10&#45;&gt;Node3 -->
<g id="edge9" class="edge">
<title>Node10&#45;&gt;Node3</title>
<path fill="none" stroke="#9a32cd" stroke-dasharray="5,2" d="M1046.05,-116.5C1104.69,-116.5 1183.12,-116.5 1226.73,-116.5"/>
<polygon fill="#9a32cd" stroke="#9a32cd" points="1045.72,-113 1035.72,-116.5 1045.72,-120 1045.72,-113"/>
<text text-anchor="middle" x="1122.5" y="-119.5" font-family="Helvetica,sans-Serif" font-size="10.00"> m_MetaDataDictionary</text>
</g>
<!-- Node11 -->
<g id="node11" class="node">
<title>Node11</title>
<g id="a_node11"><a xlink:href="classitk_1_1MetaDataDictionary.html" target="_top" xlink:title="Provides a mechanism for storing a collection of arbitrary data types.">
<polygon fill="white" stroke="black" points="634,-107 634,-126 768,-126 768,-107 634,-107"/>
<text text-anchor="middle" x="701" y="-114" font-family="Helvetica,sans-Serif" font-size="10.00">itk::MetaDataDictionary</text>
</a>
</g>
</g>
<!-- Node11&#45;&gt;Node10 -->
<g id="edge10" class="edge">
<title>Node11&#45;&gt;Node10</title>
<path fill="none" stroke="#9a32cd" stroke-dasharray="5,2" d="M778.32,-116.5C817.74,-116.5 865.36,-116.5 903.08,-116.5"/>
<polygon fill="#9a32cd" stroke="#9a32cd" points="778.22,-113 768.22,-116.5 778.22,-120 778.22,-113"/>
<text text-anchor="middle" x="834.5" y="-119.5" font-family="Helvetica,sans-Serif" font-size="10.00"> ptr</text>
</g>
<!-- Node12 -->
<g id="node12" class="node">
<title>Node12</title>
<g id="a_node12"><a xlink:title=" ">
<polygon fill="white" stroke="black" points="357,-101.5 357,-131.5 506,-131.5 506,-101.5 357,-101.5"/>
<text text-anchor="start" x="365" y="-119.5" font-family="Helvetica,sans-Serif" font-size="10.00">std::shared_ptr&lt; MetaData</text>
<text text-anchor="middle" x="431.5" y="-108.5" font-family="Helvetica,sans-Serif" font-size="10.00">DictionaryMapType &gt;</text>
</a>
</g>
</g>
<!-- Node12&#45;&gt;Node11 -->
<g id="edge11" class="edge">
<title>Node12&#45;&gt;Node11</title>
<path fill="none" stroke="#9a32cd" stroke-dasharray="5,2" d="M516.78,-116.5C554.53,-116.5 598.4,-116.5 633.74,-116.5"/>
<polygon fill="#9a32cd" stroke="#9a32cd" points="516.3,-113 506.3,-116.5 516.3,-120 516.3,-113"/>
<text text-anchor="middle" x="570" y="-119.5" font-family="Helvetica,sans-Serif" font-size="10.00"> m_Dictionary</text>
</g>
<!-- Node13&#45;&gt;Node12 -->
<g id="edge12" class="edge">
<title>Node13&#45;&gt;Node12</title>
<path fill="none" stroke="#9a32cd" stroke-dasharray="5,2" d="M225.18,-116.5C264.19,-116.5 315.41,-116.5 356.93,-116.5"/>
<polygon fill="#9a32cd" stroke="#9a32cd" points="225.03,-113 215.03,-116.5 225.03,-120 225.03,-113"/>
<text text-anchor="middle" x="286" y="-119.5" font-family="Helvetica,sans-Serif" font-size="10.00"> ptr</text>
</g>
<!-- Node14 -->
<g id="node14" class="node">
<title>Node14</title>
<g id="a_node14"><a xlink:title=" ">
<polygon fill="white" stroke="black" points="0,-83 0,-102 29,-102 29,-83 0,-83"/>
<text text-anchor="middle" x="14.5" y="-90" font-family="Helvetica,sans-Serif" font-size="10.00">K</text>
</a>
</g>
</g>
<!-- Node14&#45;&gt;Node13 -->
<g id="edge13" class="edge">
<title>Node14&#45;&gt;Node13</title>
<path fill="none" stroke="#9a32cd" stroke-dasharray="5,2" d="M39.17,-90.85C55.3,-90.19 77.09,-90.25 96,-93.5 111.5,-96.17 128.23,-101.85 141.16,-106.9"/>
<polygon fill="#9a32cd" stroke="#9a32cd" points="38.81,-87.36 29.01,-91.38 39.18,-94.35 38.81,-87.36"/>
<text text-anchor="middle" x="71.5" y="-96.5" font-family="Helvetica,sans-Serif" font-size="10.00"> keys</text>
</g>
<!-- Node15 -->
<g id="node15" class="node">
<title>Node15</title>
<g id="a_node15"><a xlink:title=" ">
<polygon fill="white" stroke="black" points="937,-14 937,-33 1002,-33 1002,-14 937,-14"/>
<text text-anchor="middle" x="969.5" y="-21" font-family="Helvetica,sans-Serif" font-size="10.00">std::string</text>
</a>
</g>
</g>
<!-- Node15&#45;&gt;Node3 -->
<g id="edge15" class="edge">
<title>Node15&#45;&gt;Node3</title>
<path fill="none" stroke="#9a32cd" stroke-dasharray="5,2" d="M1012.56,-21.18C1059.88,-20.71 1136.9,-26.63 1189,-64.5 1202.51,-74.32 1194.32,-86.62 1207,-97.5 1212.74,-102.42 1219.85,-106.11 1226.97,-108.86"/>
<polygon fill="#9a32cd" stroke="#9a32cd" points="1012.29,-17.68 1002.36,-21.38 1012.43,-24.68 1012.29,-17.68"/>
<text text-anchor="middle" x="1122.5" y="-67.5" font-family="Helvetica,sans-Serif" font-size="10.00"> m_ObjectName</text>
</g>
<!-- Node16 -->
<g id="node16" class="node">
<title>Node16</title>
<g id="a_node16"><a xlink:title=" ">
<polygon fill="white" stroke="black" points="649,-8.5 649,-38.5 753,-38.5 753,-8.5 649,-8.5"/>
<text text-anchor="start" x="657" y="-26.5" font-family="Helvetica,sans-Serif" font-size="10.00">std::basic_string&lt;</text>
<text text-anchor="middle" x="701" y="-15.5" font-family="Helvetica,sans-Serif" font-size="10.00"> Char &gt;</text>
</a>
</g>
</g>
<!-- Node16&#45;&gt;Node15 -->
<g id="edge16" class="edge">
<title>Node16&#45;&gt;Node15</title>
<path fill="none" stroke="midnightblue" d="M763.24,-23.5C817.37,-23.5 894.16,-23.5 936.82,-23.5"/>
<polygon fill="midnightblue" stroke="midnightblue" points="763.07,-20 753.07,-23.5 763.07,-27 763.07,-20"/>
</g>
<!-- Node17 -->
<g id="node17" class="node">
<title>Node17</title>
<g id="a_node17"><a xlink:href="classitk_1_1SmartPointer.html" target="_top" xlink:title=" ">
<polygon fill="white" stroke="black" points="1207,-57.5 1207,-87.5 1314,-87.5 1314,-57.5 1207,-57.5"/>
<text text-anchor="start" x="1215" y="-75.5" font-family="Helvetica,sans-Serif" font-size="10.00">itk::SmartPointer&lt;</text>
<text text-anchor="middle" x="1260.5" y="-64.5" font-family="Helvetica,sans-Serif" font-size="10.00"> Self &gt;</text>
</a>
</g>
</g>
<!-- Node17&#45;&gt;Node2 -->
<g id="edge17" class="edge">
<title>Node17&#45;&gt;Node2</title>
<path fill="none" stroke="#9a32cd" stroke-dasharray="5,2" d="M1324.48,-76.35C1357.26,-78.35 1398.43,-80.87 1436.93,-83.22"/>
<polygon fill="#9a32cd" stroke="#9a32cd" points="1324.35,-72.83 1314.15,-75.72 1323.92,-79.82 1324.35,-72.83"/>
<text text-anchor="middle" x="1375.5" y="-84.5" font-family="Helvetica,sans-Serif" font-size="10.00"> m_MultiThreader</text>
</g>
<!-- Node18 -->
<g id="node18" class="node">
<title>Node18</title>
<g id="a_node18"><a xlink:title=" ">
<polygon fill="white" stroke="black" points="1491.5,-9.5 1491.5,-39.5 1622.5,-39.5 1622.5,-9.5 1491.5,-9.5"/>
<text text-anchor="start" x="1499.5" y="-27.5" font-family="Helvetica,sans-Serif" font-size="10.00">std::vector&lt; std::vector</text>
<text text-anchor="middle" x="1557" y="-16.5" font-family="Helvetica,sans-Serif" font-size="10.00">&lt; NodePairType &gt; &gt;</text>
</a>
</g>
</g>
<!-- Node18&#45;&gt;Node1 -->
<g id="edge18" class="edge">
<title>Node18&#45;&gt;Node1</title>
<path fill="none" stroke="#9a32cd" stroke-dasharray="5,2" d="M1632.87,-26.79C1687.26,-28.45 1762.77,-30.76 1829.79,-32.8"/>
<polygon fill="#9a32cd" stroke="#9a32cd" points="1632.73,-23.28 1622.62,-26.47 1632.51,-30.28 1632.73,-23.28"/>
<text text-anchor="middle" x="1753.5" y="-35.5" font-family="Helvetica,sans-Serif" font-size="10.00"> m_NodePairsPerThread</text>
</g>
</g>
</svg>
