<?xml version="1.0" encoding="UTF-8" standalone="no"?>
<!DOCTYPE svg PUBLIC "-//W3C//DTD SVG 1.1//EN"
 "http://www.w3.org/Graphics/SVG/1.1/DTD/svg11.dtd">
<!-- Generated by graphviz version 2.43.0 (0)
 -->
<!-- Title: itk::RelabelComponentImageFilter&lt; TInputImage, TOutputImage &gt; Pages: 1 -->
<svg width="3194pt" height="639pt"
 viewBox="0.00 0.00 3194.00 639.00" xmlns="http://www.w3.org/2000/svg" xmlns:xlink="http://www.w3.org/1999/xlink">
<g id="graph0" class="graph" transform="scale(1 1) rotate(0) translate(4 635)">
<title>itk::RelabelComponentImageFilter&lt; TInputImage, TOutputImage &gt;</title>
<polygon fill="white" stroke="transparent" points="-4,4 -4,-635 3190,-635 3190,4 -4,4"/>
<!-- Node1 -->
<g id="node1" class="node">
<title>Node1</title>
<g id="a_node1"><a xlink:title="Relabel the components in an image such that consecutive labels are used.">
<polygon fill="#bfbfbf" stroke="black" points="2985,-439 2985,-469 3186,-469 3186,-439 2985,-439"/>
<text text-anchor="start" x="2993" y="-457" font-family="Helvetica,sans-Serif" font-size="10.00">itk::RelabelComponentImage</text>
<text text-anchor="middle" x="3085.5" y="-446" font-family="Helvetica,sans-Serif" font-size="10.00">Filter&lt; TInputImage, TOutputImage &gt;</text>
</a>
</g>
</g>
<!-- Node2 -->
<g id="node2" class="node">
<title>Node2</title>
<g id="a_node2"><a xlink:href="classitk_1_1InPlaceImageFilter.html" target="_top" xlink:title="Base class for filters that take an image as input and overwrite that image as the output.">
<polygon fill="white" stroke="black" points="2724,-439 2724,-469 2900,-469 2900,-439 2724,-439"/>
<text text-anchor="start" x="2732" y="-457" font-family="Helvetica,sans-Serif" font-size="10.00">itk::InPlaceImageFilter</text>
<text text-anchor="middle" x="2812" y="-446" font-family="Helvetica,sans-Serif" font-size="10.00">&lt; TInputImage, TOutputImage &gt;</text>
</a>
</g>
</g>
<!-- Node2&#45;&gt;Node1 -->
<g id="edge1" class="edge">
<title>Node2&#45;&gt;Node1</title>
<path fill="none" stroke="midnightblue" d="M2910.27,-454C2934.47,-454 2960.44,-454 2984.75,-454"/>
<polygon fill="midnightblue" stroke="midnightblue" points="2910.02,-450.5 2900.02,-454 2910.02,-457.5 2910.02,-450.5"/>
</g>
<!-- Node3 -->
<g id="node3" class="node">
<title>Node3</title>
<g id="a_node3"><a xlink:href="classitk_1_1ImageToImageFilter.html" target="_top" xlink:title=" ">
<polygon fill="white" stroke="black" points="2519,-346 2519,-376 2687,-376 2687,-346 2519,-346"/>
<text text-anchor="start" x="2527" y="-364" font-family="Helvetica,sans-Serif" font-size="10.00">itk::ImageToImageFilter</text>
<text text-anchor="middle" x="2603" y="-353" font-family="Helvetica,sans-Serif" font-size="10.00">&lt; TInputImage, TInputImage &gt;</text>
</a>
</g>
</g>
<!-- Node3&#45;&gt;Node2 -->
<g id="edge2" class="edge">
<title>Node3&#45;&gt;Node2</title>
<path fill="none" stroke="midnightblue" d="M2635.61,-381.65C2659.22,-396.38 2692.68,-415.84 2724,-429 2732.69,-432.65 2742.09,-435.97 2751.38,-438.9"/>
<polygon fill="midnightblue" stroke="midnightblue" points="2637.39,-378.64 2627.07,-376.26 2633.65,-384.55 2637.39,-378.64"/>
</g>
<!-- Node4 -->
<g id="node4" class="node">
<title>Node4</title>
<g id="a_node4"><a xlink:href="classitk_1_1ImageSource.html" target="_top" xlink:title=" ">
<polygon fill="white" stroke="black" points="2169.5,-378 2169.5,-408 2310.5,-408 2310.5,-378 2169.5,-378"/>
<text text-anchor="start" x="2177.5" y="-396" font-family="Helvetica,sans-Serif" font-size="10.00">itk::ImageSource&lt; TInput</text>
<text text-anchor="middle" x="2240" y="-385" font-family="Helvetica,sans-Serif" font-size="10.00">Image &gt;</text>
</a>
</g>
</g>
<!-- Node4&#45;&gt;Node3 -->
<g id="edge3" class="edge">
<title>Node4&#45;&gt;Node3</title>
<path fill="none" stroke="midnightblue" d="M2320.6,-385.94C2379.44,-380.73 2459.36,-373.64 2519,-368.36"/>
<polygon fill="midnightblue" stroke="midnightblue" points="2320.26,-382.46 2310.6,-386.83 2320.87,-389.43 2320.26,-382.46"/>
</g>
<!-- Node5 -->
<g id="node5" class="node">
<title>Node5</title>
<g id="a_node5"><a xlink:href="classitk_1_1ProcessObject.html" target="_top" xlink:title="The base class for all process objects (source, filters, mappers) in the Insight data processing pipe...">
<polygon fill="white" stroke="black" points="1579.5,-349.5 1579.5,-368.5 1683.5,-368.5 1683.5,-349.5 1579.5,-349.5"/>
<text text-anchor="middle" x="1631.5" y="-356.5" font-family="Helvetica,sans-Serif" font-size="10.00">itk::ProcessObject</text>
</a>
</g>
</g>
<!-- Node5&#45;&gt;Node4 -->
<g id="edge4" class="edge">
<title>Node5&#45;&gt;Node4</title>
<path fill="none" stroke="midnightblue" d="M1693.81,-361.8C1771.57,-365.42 1909.77,-372.09 2028,-379 2075.1,-381.75 2128.07,-385.27 2169.16,-388.09"/>
<polygon fill="midnightblue" stroke="midnightblue" points="1693.86,-358.3 1683.71,-361.33 1693.54,-365.29 1693.86,-358.3"/>
</g>
<!-- Node31 -->
<g id="node31" class="node">
<title>Node31</title>
<g id="a_node31"><a xlink:href="classitk_1_1ImageSource.html" target="_top" xlink:title="Base class for all process objects that output image data.">
<polygon fill="white" stroke="black" points="1865.5,-388 1865.5,-418 2014.5,-418 2014.5,-388 1865.5,-388"/>
<text text-anchor="start" x="1873.5" y="-406" font-family="Helvetica,sans-Serif" font-size="10.00">itk::ImageSource&lt; TOutput</text>
<text text-anchor="middle" x="1940" y="-395" font-family="Helvetica,sans-Serif" font-size="10.00">Image &gt;</text>
</a>
</g>
</g>
<!-- Node5&#45;&gt;Node31 -->
<g id="edge44" class="edge">
<title>Node5&#45;&gt;Node31</title>
<path fill="none" stroke="midnightblue" d="M1694.05,-368.9C1703.08,-370.31 1712.28,-371.71 1721,-373 1769,-380.1 1823.02,-387.54 1865.29,-393.23"/>
<polygon fill="midnightblue" stroke="midnightblue" points="1694.37,-365.41 1683.95,-367.32 1693.29,-372.32 1694.37,-365.41"/>
</g>
<!-- Node6 -->
<g id="node6" class="node">
<title>Node6</title>
<g id="a_node6"><a xlink:href="classitk_1_1Object.html" target="_top" xlink:title="Base class for most ITK classes.">
<polygon fill="white" stroke="black" points="1241,-196.5 1241,-215.5 1308,-215.5 1308,-196.5 1241,-196.5"/>
<text text-anchor="middle" x="1274.5" y="-203.5" font-family="Helvetica,sans-Serif" font-size="10.00">itk::Object</text>
</a>
</g>
</g>
<!-- Node6&#45;&gt;Node5 -->
<g id="edge5" class="edge">
<title>Node6&#45;&gt;Node5</title>
<path fill="none" stroke="midnightblue" d="M1316.85,-218.62C1370.12,-235.49 1465.03,-267.65 1542,-305 1569.53,-318.36 1599.52,-337.79 1616.57,-349.33"/>
<polygon fill="midnightblue" stroke="midnightblue" points="1317.67,-215.21 1307.08,-215.55 1315.57,-221.89 1317.67,-215.21"/>
</g>
<!-- Node7 -->
<g id="node7" class="node">
<title>Node7</title>
<g id="a_node7"><a xlink:href="classitk_1_1LightObject.html" target="_top" xlink:title="Light weight base class for most itk classes.">
<polygon fill="white" stroke="black" points="895,-163.5 895,-182.5 986,-182.5 986,-163.5 895,-163.5"/>
<text text-anchor="middle" x="940.5" y="-170.5" font-family="Helvetica,sans-Serif" font-size="10.00">itk::LightObject</text>
</a>
</g>
</g>
<!-- Node7&#45;&gt;Node6 -->
<g id="edge6" class="edge">
<title>Node7&#45;&gt;Node6</title>
<path fill="none" stroke="midnightblue" d="M996.61,-178.48C1066.32,-185.41 1184.08,-197.11 1240.9,-202.76"/>
<polygon fill="midnightblue" stroke="midnightblue" points="996.57,-174.96 986.27,-177.45 995.88,-181.92 996.57,-174.96"/>
</g>
<!-- Node8 -->
<g id="node8" class="node">
<title>Node8</title>
<g id="a_node8"><a xlink:title=" ">
<polygon fill="white" stroke="#bfbfbf" points="543.5,-164.5 543.5,-183.5 650.5,-183.5 650.5,-164.5 543.5,-164.5"/>
<text text-anchor="middle" x="597" y="-171.5" font-family="Helvetica,sans-Serif" font-size="10.00">std::atomic&lt; int &gt;</text>
</a>
</g>
</g>
<!-- Node8&#45;&gt;Node7 -->
<g id="edge7" class="edge">
<title>Node8&#45;&gt;Node7</title>
<path fill="none" stroke="#9a32cd" stroke-dasharray="5,2" d="M660.75,-173.82C728.66,-173.62 835.21,-173.31 894.99,-173.13"/>
<polygon fill="#9a32cd" stroke="#9a32cd" points="660.6,-170.32 650.61,-173.85 660.62,-177.32 660.6,-170.32"/>
<text text-anchor="middle" x="777.5" y="-177" font-family="Helvetica,sans-Serif" font-size="10.00"> m_ReferenceCount</text>
</g>
<!-- Node9 -->
<g id="node9" class="node">
<title>Node9</title>
<g id="a_node9"><a xlink:title="STL class.">
<polygon fill="white" stroke="#bfbfbf" points="159,-119.5 159,-138.5 259,-138.5 259,-119.5 159,-119.5"/>
<text text-anchor="middle" x="209" y="-126.5" font-family="Helvetica,sans-Serif" font-size="10.00">std::atomic&lt; T &gt;</text>
</a>
</g>
</g>
<!-- Node9&#45;&gt;Node8 -->
<g id="edge8" class="edge">
<title>Node9&#45;&gt;Node8</title>
<path fill="none" stroke="orange" stroke-dasharray="5,2" d="M244.42,-141.94C266.3,-149.54 295.42,-158.51 322,-163 398.16,-175.87 487.85,-176.85 543.32,-175.83"/>
<polygon fill="orange" stroke="orange" points="245.51,-138.61 234.91,-138.57 243.17,-145.21 245.51,-138.61"/>
<text text-anchor="middle" x="406" y="-179" font-family="Helvetica,sans-Serif" font-size="10.00"> &lt; int &gt;</text>
</g>
<!-- Node18 -->
<g id="node18" class="node">
<title>Node18</title>
<g id="a_node18"><a xlink:href="classitk_1_1TimeStamp.html" target="_top" xlink:title="Generate a unique, increasing time value.">
<polygon fill="white" stroke="black" points="894.5,-64.5 894.5,-83.5 986.5,-83.5 986.5,-64.5 894.5,-64.5"/>
<text text-anchor="middle" x="940.5" y="-71.5" font-family="Helvetica,sans-Serif" font-size="10.00">itk::TimeStamp</text>
</a>
</g>
</g>
<!-- Node9&#45;&gt;Node18 -->
<g id="edge20" class="edge">
<title>Node9&#45;&gt;Node18</title>
<path fill="none" stroke="#9a32cd" stroke-dasharray="5,2" d="M243.99,-116C265.92,-108.21 295.24,-98.9 322,-94 533.28,-55.34 791.86,-64.92 894.46,-70.93"/>
<polygon fill="#9a32cd" stroke="#9a32cd" points="242.68,-112.75 234.47,-119.45 245.07,-119.33 242.68,-112.75"/>
<text text-anchor="middle" x="597" y="-75" font-family="Helvetica,sans-Serif" font-size="10.00"> m_GlobalTimeStamp</text>
</g>
<!-- Node22 -->
<g id="node22" class="node">
<title>Node22</title>
<g id="a_node22"><a xlink:title=" ">
<polygon fill="white" stroke="#bfbfbf" points="710.5,-103.5 710.5,-122.5 844.5,-122.5 844.5,-103.5 710.5,-103.5"/>
<text text-anchor="middle" x="777.5" y="-110.5" font-family="Helvetica,sans-Serif" font-size="10.00">std::atomic&lt; uint32_t &gt;</text>
</a>
</g>
</g>
<!-- Node9&#45;&gt;Node22 -->
<g id="edge29" class="edge">
<title>Node9&#45;&gt;Node22</title>
<path fill="none" stroke="orange" stroke-dasharray="5,2" d="M255.15,-117.05C275.43,-112.28 299.75,-107.36 322,-105 459.53,-90.43 621.76,-99.56 710.42,-106.77"/>
<polygon fill="orange" stroke="orange" points="254.15,-113.69 245.25,-119.45 255.79,-120.5 254.15,-113.69"/>
<text text-anchor="middle" x="406" y="-108" font-family="Helvetica,sans-Serif" font-size="10.00"> &lt; uint32_t &gt;</text>
</g>
<!-- Node10 -->
<g id="node10" class="node">
<title>Node10</title>
<g id="a_node10"><a xlink:title=" ">
<polygon fill="white" stroke="#bfbfbf" points="0,-240.5 0,-259.5 29,-259.5 29,-240.5 0,-240.5"/>
<text text-anchor="middle" x="14.5" y="-247.5" font-family="Helvetica,sans-Serif" font-size="10.00">T</text>
</a>
</g>
</g>
<!-- Node10&#45;&gt;Node9 -->
<g id="edge9" class="edge">
<title>Node10&#45;&gt;Node9</title>
<path fill="none" stroke="#9a32cd" stroke-dasharray="5,2" d="M30.71,-232.75C35.63,-227.67 41.29,-222.33 47,-218 92.92,-183.15 154.13,-153.2 186.23,-138.56"/>
<polygon fill="#9a32cd" stroke="#9a32cd" points="27.92,-230.6 23.69,-240.31 33.05,-235.36 27.92,-230.6"/>
<text text-anchor="middle" x="71.5" y="-221" font-family="Helvetica,sans-Serif" font-size="10.00"> ptr</text>
</g>
<!-- Node15 -->
<g id="node15" class="node">
<title>Node15</title>
<g id="a_node15"><a xlink:title="STL class.">
<polygon fill="white" stroke="#bfbfbf" points="158.5,-264.5 158.5,-283.5 259.5,-283.5 259.5,-264.5 158.5,-264.5"/>
<text text-anchor="middle" x="209" y="-271.5" font-family="Helvetica,sans-Serif" font-size="10.00">std::map&lt; K, T &gt;</text>
</a>
</g>
</g>
<!-- Node10&#45;&gt;Node15 -->
<g id="edge16" class="edge">
<title>Node10&#45;&gt;Node15</title>
<path fill="none" stroke="#9a32cd" stroke-dasharray="5,2" d="M39.23,-252.96C68.8,-256.64 120.08,-263.04 158.38,-267.81"/>
<polygon fill="#9a32cd" stroke="#9a32cd" points="39.39,-249.45 29.04,-251.69 38.53,-256.4 39.39,-249.45"/>
<text text-anchor="middle" x="71.5" y="-263" font-family="Helvetica,sans-Serif" font-size="10.00"> elements</text>
</g>
<!-- Node17 -->
<g id="node17" class="node">
<title>Node17</title>
<g id="a_node17"><a xlink:title="STL class.">
<polygon fill="white" stroke="#bfbfbf" points="150,-215.5 150,-234.5 268,-234.5 268,-215.5 150,-215.5"/>
<text text-anchor="middle" x="209" y="-222.5" font-family="Helvetica,sans-Serif" font-size="10.00">std::shared_ptr&lt; T &gt;</text>
</a>
</g>
</g>
<!-- Node10&#45;&gt;Node17 -->
<g id="edge18" class="edge">
<title>Node10&#45;&gt;Node17</title>
<path fill="none" stroke="#9a32cd" stroke-dasharray="5,2" d="M38.74,-242.01C41.5,-241.24 44.3,-240.55 47,-240 80.7,-233.16 119.02,-229.43 149.81,-227.41"/>
<polygon fill="#9a32cd" stroke="#9a32cd" points="37.66,-238.68 29.13,-244.97 39.72,-245.37 37.66,-238.68"/>
<text text-anchor="middle" x="71.5" y="-243" font-family="Helvetica,sans-Serif" font-size="10.00"> ptr</text>
</g>
<!-- Node25 -->
<g id="node25" class="node">
<title>Node25</title>
<g id="a_node25"><a xlink:title="STL class.">
<polygon fill="white" stroke="#bfbfbf" points="892,-540.5 892,-559.5 989,-559.5 989,-540.5 892,-540.5"/>
<text text-anchor="middle" x="940.5" y="-547.5" font-family="Helvetica,sans-Serif" font-size="10.00">std::vector&lt; T &gt;</text>
</a>
</g>
</g>
<!-- Node10&#45;&gt;Node25 -->
<g id="edge33" class="edge">
<title>Node10&#45;&gt;Node25</title>
<path fill="none" stroke="#9a32cd" stroke-dasharray="5,2" d="M33.97,-265.97C38.11,-269.17 42.59,-272.36 47,-275 238.5,-389.58 294.21,-409.99 508,-474 644.08,-514.75 811.25,-536.49 891.73,-545.27"/>
<polygon fill="#9a32cd" stroke="#9a32cd" points="36.03,-263.13 26.06,-259.54 31.61,-268.57 36.03,-263.13"/>
<text text-anchor="middle" x="406" y="-471" font-family="Helvetica,sans-Serif" font-size="10.00"> elements</text>
</g>
<!-- Node11 -->
<g id="node11" class="node">
<title>Node11</title>
<g id="a_node11"><a xlink:title="STL class.">
<polygon fill="white" stroke="#bfbfbf" points="908,-304.5 908,-323.5 973,-323.5 973,-304.5 908,-304.5"/>
<text text-anchor="middle" x="940.5" y="-311.5" font-family="Helvetica,sans-Serif" font-size="10.00">std::string</text>
</a>
</g>
</g>
<!-- Node11&#45;&gt;Node6 -->
<g id="edge10" class="edge">
<title>Node11&#45;&gt;Node6</title>
<path fill="none" stroke="#9a32cd" stroke-dasharray="5,2" d="M975.82,-300.67C992.15,-294.47 1012,-287.12 1030,-281 1104.75,-255.57 1193.64,-229.14 1240.62,-215.47"/>
<polygon fill="#9a32cd" stroke="#9a32cd" points="974.25,-297.53 966.16,-304.37 976.75,-304.07 974.25,-297.53"/>
<text text-anchor="middle" x="1101" y="-284" font-family="Helvetica,sans-Serif" font-size="10.00"> m_ObjectName</text>
</g>
<!-- Node19 -->
<g id="node19" class="node">
<title>Node19</title>
<g id="a_node19"><a xlink:title=" ">
<polygon fill="white" stroke="#bfbfbf" points="1193.5,-499 1193.5,-529 1355.5,-529 1355.5,-499 1193.5,-499"/>
<text text-anchor="start" x="1201.5" y="-517" font-family="Helvetica,sans-Serif" font-size="10.00">std::set&lt; DataObjectIdentifier</text>
<text text-anchor="middle" x="1274.5" y="-506" font-family="Helvetica,sans-Serif" font-size="10.00">Type &gt;</text>
</a>
</g>
</g>
<!-- Node11&#45;&gt;Node19 -->
<g id="edge22" class="edge">
<title>Node11&#45;&gt;Node19</title>
<path fill="none" stroke="#9a32cd" stroke-dasharray="5,2" d="M963.87,-329.56C979.42,-341.45 999.52,-359.14 1012,-379 1026.59,-402.21 1009.22,-420.11 1030,-438 1078.35,-479.62 1117.5,-425.83 1172,-459 1183.7,-466.12 1179.07,-475.76 1190,-484 1198,-490.03 1207.31,-494.93 1216.77,-498.88"/>
<polygon fill="#9a32cd" stroke="#9a32cd" points="965.9,-326.7 955.77,-323.57 961.73,-332.33 965.9,-326.7"/>
<text text-anchor="middle" x="1101" y="-462" font-family="Helvetica,sans-Serif" font-size="10.00"> keys</text>
</g>
<!-- Node21 -->
<g id="node21" class="node">
<title>Node21</title>
<g id="a_node21"><a xlink:title=" ">
<polygon fill="white" stroke="#bfbfbf" points="1190,-284 1190,-314 1359,-314 1359,-284 1190,-284"/>
<text text-anchor="start" x="1198" y="-302" font-family="Helvetica,sans-Serif" font-size="10.00">std::map&lt; DataObjectIdentifier</text>
<text text-anchor="middle" x="1274.5" y="-291" font-family="Helvetica,sans-Serif" font-size="10.00">Type, bool &gt;</text>
</a>
</g>
</g>
<!-- Node11&#45;&gt;Node21 -->
<g id="edge26" class="edge">
<title>Node11&#45;&gt;Node21</title>
<path fill="none" stroke="#9a32cd" stroke-dasharray="5,2" d="M983.58,-306C998.22,-303.57 1014.78,-301.23 1030,-300 1083.09,-295.72 1142.91,-295.41 1189.97,-296.2"/>
<polygon fill="#9a32cd" stroke="#9a32cd" points="982.57,-302.62 973.31,-307.76 983.76,-309.52 982.57,-302.62"/>
<text text-anchor="middle" x="1101" y="-303" font-family="Helvetica,sans-Serif" font-size="10.00"> keys</text>
</g>
<!-- Node26 -->
<g id="node26" class="node">
<title>Node26</title>
<g id="a_node26"><a xlink:title=" ">
<polygon fill="white" stroke="#bfbfbf" points="1190,-344 1190,-374 1359,-374 1359,-344 1190,-344"/>
<text text-anchor="start" x="1198" y="-362" font-family="Helvetica,sans-Serif" font-size="10.00">std::map&lt; DataObjectIdentifier</text>
<text text-anchor="middle" x="1274.5" y="-351" font-family="Helvetica,sans-Serif" font-size="10.00">Type, DataObjectPointer &gt;</text>
</a>
</g>
</g>
<!-- Node11&#45;&gt;Node26 -->
<g id="edge37" class="edge">
<title>Node11&#45;&gt;Node26</title>
<path fill="none" stroke="#9a32cd" stroke-dasharray="5,2" d="M983.27,-315.68C1029.63,-317.99 1106.56,-323.17 1172,-334 1187.4,-336.55 1203.91,-340.21 1219.04,-343.94"/>
<polygon fill="#9a32cd" stroke="#9a32cd" points="983.17,-312.17 973.01,-315.19 982.83,-319.16 983.17,-312.17"/>
<text text-anchor="middle" x="1101" y="-337" font-family="Helvetica,sans-Serif" font-size="10.00"> keys</text>
</g>
<!-- Node12 -->
<g id="node12" class="node">
<title>Node12</title>
<g id="a_node12"><a xlink:title="STL class.">
<polygon fill="white" stroke="#bfbfbf" points="545,-299 545,-329 649,-329 649,-299 545,-299"/>
<text text-anchor="start" x="553" y="-317" font-family="Helvetica,sans-Serif" font-size="10.00">std::basic_string&lt;</text>
<text text-anchor="middle" x="597" y="-306" font-family="Helvetica,sans-Serif" font-size="10.00"> char &gt;</text>
</a>
</g>
</g>
<!-- Node12&#45;&gt;Node11 -->
<g id="edge11" class="edge">
<title>Node12&#45;&gt;Node11</title>
<path fill="none" stroke="midnightblue" d="M659.56,-314C732.62,-314 851.62,-314 907.99,-314"/>
<polygon fill="midnightblue" stroke="midnightblue" points="659.13,-310.5 649.13,-314 659.13,-317.5 659.13,-310.5"/>
</g>
<!-- Node13 -->
<g id="node13" class="node">
<title>Node13</title>
<g id="a_node13"><a xlink:href="classitk_1_1MetaDataDictionary.html" target="_top" xlink:title="Provides a mechanism for storing a collection of arbitrary data types.">
<polygon fill="white" stroke="black" points="873.5,-203.5 873.5,-222.5 1007.5,-222.5 1007.5,-203.5 873.5,-203.5"/>
<text text-anchor="middle" x="940.5" y="-210.5" font-family="Helvetica,sans-Serif" font-size="10.00">itk::MetaDataDictionary</text>
</a>
</g>
</g>
<!-- Node13&#45;&gt;Node6 -->
<g id="edge12" class="edge">
<title>Node13&#45;&gt;Node6</title>
<path fill="none" stroke="#9a32cd" stroke-dasharray="5,2" d="M1017.9,-207.51C1021.99,-207.32 1026.04,-207.14 1030,-207 1105.41,-204.29 1194.04,-204.87 1240.8,-205.47"/>
<polygon fill="#9a32cd" stroke="#9a32cd" points="1017.49,-204.03 1007.68,-208.05 1017.85,-211.02 1017.49,-204.03"/>
<text text-anchor="middle" x="1101" y="-210" font-family="Helvetica,sans-Serif" font-size="10.00"> m_MetaDataDictionary</text>
</g>
<!-- Node14 -->
<g id="node14" class="node">
<title>Node14</title>
<g id="a_node14"><a xlink:title=" ">
<polygon fill="white" stroke="#bfbfbf" points="522.5,-204 522.5,-234 671.5,-234 671.5,-204 522.5,-204"/>
<text text-anchor="start" x="530.5" y="-222" font-family="Helvetica,sans-Serif" font-size="10.00">std::shared_ptr&lt; MetaData</text>
<text text-anchor="middle" x="597" y="-211" font-family="Helvetica,sans-Serif" font-size="10.00">DictionaryMapType &gt;</text>
</a>
</g>
</g>
<!-- Node14&#45;&gt;Node13 -->
<g id="edge13" class="edge">
<title>Node14&#45;&gt;Node13</title>
<path fill="none" stroke="#9a32cd" stroke-dasharray="5,2" d="M681.73,-217.53C740.78,-216.49 818.79,-215.12 873.46,-214.16"/>
<polygon fill="#9a32cd" stroke="#9a32cd" points="681.62,-214.03 671.68,-217.71 681.74,-221.03 681.62,-214.03"/>
<text text-anchor="middle" x="777.5" y="-221" font-family="Helvetica,sans-Serif" font-size="10.00"> m_Dictionary</text>
</g>
<!-- Node15&#45;&gt;Node14 -->
<g id="edge14" class="edge">
<title>Node15&#45;&gt;Node14</title>
<path fill="none" stroke="#9a32cd" stroke-dasharray="5,2" d="M269.8,-262.75C286.66,-259.74 305.02,-256.6 322,-254 389.67,-243.64 467.07,-233.95 522.3,-227.41"/>
<polygon fill="#9a32cd" stroke="#9a32cd" points="268.75,-259.39 259.53,-264.61 270,-266.28 268.75,-259.39"/>
<text text-anchor="middle" x="406" y="-257" font-family="Helvetica,sans-Serif" font-size="10.00"> ptr</text>
</g>
<!-- Node15&#45;&gt;Node21 -->
<g id="edge27" class="edge">
<title>Node15&#45;&gt;Node21</title>
<path fill="none" stroke="orange" stroke-dasharray="5,2" d="M270.04,-274.08C421.43,-274.5 830.98,-277.06 1172,-292 1177.82,-292.26 1183.83,-292.56 1189.88,-292.9"/>
<polygon fill="orange" stroke="orange" points="269.6,-270.58 259.59,-274.05 269.58,-277.58 269.6,-270.58"/>
<text text-anchor="start" x="708" y="-296" font-family="Helvetica,sans-Serif" font-size="10.00"> &lt; DataObjectIdentifierType,</text>
<text text-anchor="middle" x="777.5" y="-285" font-family="Helvetica,sans-Serif" font-size="10.00"> bool &gt;</text>
</g>
<!-- Node15&#45;&gt;Node26 -->
<g id="edge38" class="edge">
<title>Node15&#45;&gt;Node26</title>
<path fill="none" stroke="orange" stroke-dasharray="5,2" d="M254.42,-286.23C312.28,-301.53 416.8,-327.05 508,-338 754.51,-367.6 1048.73,-365.19 1189.88,-361.72"/>
<polygon fill="orange" stroke="orange" points="255.08,-282.78 244.52,-283.59 253.28,-289.54 255.08,-282.78"/>
<text text-anchor="start" x="708" y="-376" font-family="Helvetica,sans-Serif" font-size="10.00"> &lt; DataObjectIdentifierType,</text>
<text text-anchor="middle" x="777.5" y="-365" font-family="Helvetica,sans-Serif" font-size="10.00"> DataObjectPointer &gt;</text>
</g>
<!-- Node34 -->
<g id="node34" class="node">
<title>Node34</title>
<g id="a_node34"><a xlink:title=" ">
<polygon fill="white" stroke="#bfbfbf" points="508,-6 508,-36 686,-36 686,-6 508,-6"/>
<text text-anchor="start" x="516" y="-24" font-family="Helvetica,sans-Serif" font-size="10.00">std::map&lt; LabelType,</text>
<text text-anchor="middle" x="597" y="-13" font-family="Helvetica,sans-Serif" font-size="10.00"> RelabelComponentObjectType &gt;</text>
</a>
</g>
</g>
<!-- Node15&#45;&gt;Node34 -->
<g id="edge52" class="edge">
<title>Node15&#45;&gt;Node34</title>
<path fill="none" stroke="orange" stroke-dasharray="5,2" d="M269.62,-265.59C282.57,-261.11 295.06,-254.31 304,-244 335.59,-207.56 286.99,-170.17 322,-137 376.55,-85.32 433.04,-167.01 490,-118 513.37,-97.89 486.93,-73.51 508,-51 513.74,-44.87 520.77,-40 528.34,-36.12"/>
<polygon fill="orange" stroke="orange" points="268.25,-262.35 259.68,-268.58 270.26,-269.05 268.25,-262.35"/>
<text text-anchor="start" x="324.5" y="-151" font-family="Helvetica,sans-Serif" font-size="10.00"> &lt; LabelType, RelabelComponent</text>
<text text-anchor="middle" x="406" y="-140" font-family="Helvetica,sans-Serif" font-size="10.00">ObjectType &gt;</text>
</g>
<!-- Node16 -->
<g id="node16" class="node">
<title>Node16</title>
<g id="a_node16"><a xlink:title=" ">
<polygon fill="white" stroke="#bfbfbf" points="0,-567.5 0,-586.5 29,-586.5 29,-567.5 0,-567.5"/>
<text text-anchor="middle" x="14.5" y="-574.5" font-family="Helvetica,sans-Serif" font-size="10.00">K</text>
</a>
</g>
</g>
<!-- Node16&#45;&gt;Node15 -->
<g id="edge15" class="edge">
<title>Node16&#45;&gt;Node15</title>
<path fill="none" stroke="#9a32cd" stroke-dasharray="5,2" d="M27.26,-558.5C63.82,-500.94 174.74,-326.35 201.93,-283.55"/>
<polygon fill="#9a32cd" stroke="#9a32cd" points="24.1,-556.94 21.69,-567.26 30,-560.7 24.1,-556.94"/>
<text text-anchor="middle" x="71.5" y="-529" font-family="Helvetica,sans-Serif" font-size="10.00"> keys</text>
</g>
<!-- Node20 -->
<g id="node20" class="node">
<title>Node20</title>
<g id="a_node20"><a xlink:title="STL class.">
<polygon fill="white" stroke="#bfbfbf" points="365,-591.5 365,-610.5 447,-610.5 447,-591.5 365,-591.5"/>
<text text-anchor="middle" x="406" y="-598.5" font-family="Helvetica,sans-Serif" font-size="10.00">std::set&lt; K &gt;</text>
</a>
</g>
</g>
<!-- Node16&#45;&gt;Node20 -->
<g id="edge24" class="edge">
<title>Node16&#45;&gt;Node20</title>
<path fill="none" stroke="#9a32cd" stroke-dasharray="5,2" d="M39.43,-578.47C104.29,-582.47 284.05,-593.55 364.8,-598.52"/>
<polygon fill="#9a32cd" stroke="#9a32cd" points="39.56,-574.98 29.36,-577.85 39.13,-581.96 39.56,-574.98"/>
<text text-anchor="middle" x="71.5" y="-584" font-family="Helvetica,sans-Serif" font-size="10.00"> keys</text>
</g>
<!-- Node17&#45;&gt;Node14 -->
<g id="edge17" class="edge">
<title>Node17&#45;&gt;Node14</title>
<path fill="none" stroke="orange" stroke-dasharray="5,2" d="M278.44,-221.5C292.83,-220.89 307.91,-220.34 322,-220 389.89,-218.36 467.26,-218.24 522.43,-218.45"/>
<polygon fill="orange" stroke="orange" points="277.95,-218.02 268.11,-221.95 278.26,-225.01 277.95,-218.02"/>
<text text-anchor="middle" x="406" y="-223" font-family="Helvetica,sans-Serif" font-size="10.00"> &lt; MetaDataDictionaryMapType &gt;</text>
</g>
<!-- Node18&#45;&gt;Node5 -->
<g id="edge41" class="edge">
<title>Node18&#45;&gt;Node5</title>
<path fill="none" stroke="#9a32cd" stroke-dasharray="5,2" d="M997.22,-68.51C1129.52,-56.69 1457.77,-34.79 1542,-99 1625.8,-162.89 1630.87,-310.24 1630.69,-349.33"/>
<polygon fill="#9a32cd" stroke="#9a32cd" points="996.56,-65.06 986.91,-69.45 997.19,-72.03 996.56,-65.06"/>
<text text-anchor="middle" x="1274.5" y="-61" font-family="Helvetica,sans-Serif" font-size="10.00"> m_OutputInformationMTime</text>
</g>
<!-- Node18&#45;&gt;Node6 -->
<g id="edge19" class="edge">
<title>Node18&#45;&gt;Node6</title>
<path fill="none" stroke="#9a32cd" stroke-dasharray="5,2" d="M964.53,-89.29C981.95,-100.35 1006.76,-115.03 1030,-125 1090.48,-150.94 1109.68,-145.85 1172,-167 1199.17,-176.22 1229.86,-188.24 1250.31,-196.49"/>
<polygon fill="#9a32cd" stroke="#9a32cd" points="965.97,-86.05 955.67,-83.57 962.18,-91.94 965.97,-86.05"/>
<text text-anchor="middle" x="1101" y="-170" font-family="Helvetica,sans-Serif" font-size="10.00"> m_MTime</text>
</g>
<!-- Node19&#45;&gt;Node5 -->
<g id="edge21" class="edge">
<title>Node19&#45;&gt;Node5</title>
<path fill="none" stroke="#9a32cd" stroke-dasharray="5,2" d="M1365.96,-514.12C1432.72,-512.3 1516.26,-505.38 1542,-483 1565.92,-462.2 1542.59,-440.48 1560,-414 1573.22,-393.9 1596.28,-377.97 1612.41,-368.54"/>
<polygon fill="#9a32cd" stroke="#9a32cd" points="1365.73,-510.63 1355.82,-514.37 1365.9,-517.63 1365.73,-510.63"/>
<text text-anchor="middle" x="1459.5" y="-516" font-family="Helvetica,sans-Serif" font-size="10.00"> m_RequiredInputNames</text>
</g>
<!-- Node20&#45;&gt;Node19 -->
<g id="edge23" class="edge">
<title>Node20&#45;&gt;Node19</title>
<path fill="none" stroke="orange" stroke-dasharray="5,2" d="M456.96,-606.75C580.86,-619.37 911.13,-642.85 1172,-570 1202.24,-561.56 1233.31,-542.61 1252.98,-529.09"/>
<polygon fill="orange" stroke="orange" points="457.31,-603.27 447,-605.72 456.59,-610.23 457.31,-603.27"/>
<text text-anchor="middle" x="777.5" y="-623" font-family="Helvetica,sans-Serif" font-size="10.00"> &lt; DataObjectIdentifierType &gt;</text>
</g>
<!-- Node21&#45;&gt;Node5 -->
<g id="edge25" class="edge">
<title>Node21&#45;&gt;Node5</title>
<path fill="none" stroke="#9a32cd" stroke-dasharray="5,2" d="M1369.28,-307.29C1420.63,-312.74 1485.18,-321.11 1542,-333 1562.38,-337.26 1584.88,-343.9 1602.1,-349.4"/>
<polygon fill="#9a32cd" stroke="#9a32cd" points="1369.5,-303.79 1359.19,-306.23 1368.78,-310.75 1369.5,-303.79"/>
<text text-anchor="start" x="1388.5" y="-347" font-family="Helvetica,sans-Serif" font-size="10.00"> m_CachedInputReleaseData</text>
<text text-anchor="middle" x="1459.5" y="-336" font-family="Helvetica,sans-Serif" font-size="10.00">Flags</text>
</g>
<!-- Node22&#45;&gt;Node5 -->
<g id="edge28" class="edge">
<title>Node22&#45;&gt;Node5</title>
<path fill="none" stroke="#9a32cd" stroke-dasharray="5,2" d="M855.26,-105.43C935,-99.29 1063.11,-94.24 1172,-112 1343.17,-139.92 1402.4,-133.09 1542,-236 1584.99,-267.69 1615.45,-326.46 1626.22,-349.44"/>
<polygon fill="#9a32cd" stroke="#9a32cd" points="854.51,-101.98 844.82,-106.26 855.07,-108.96 854.51,-101.98"/>
<text text-anchor="middle" x="1101" y="-115" font-family="Helvetica,sans-Serif" font-size="10.00"> m_Progress</text>
</g>
<!-- Node23 -->
<g id="node23" class="node">
<title>Node23</title>
<g id="a_node23"><a xlink:title=" ">
<polygon fill="white" stroke="#bfbfbf" points="1190,-402 1190,-432 1359,-432 1359,-402 1190,-402"/>
<text text-anchor="start" x="1198" y="-420" font-family="Helvetica,sans-Serif" font-size="10.00">std::vector&lt; DataObjectPointer</text>
<text text-anchor="middle" x="1274.5" y="-409" font-family="Helvetica,sans-Serif" font-size="10.00">Map::iterator &gt;</text>
</a>
</g>
</g>
<!-- Node23&#45;&gt;Node5 -->
<g id="edge30" class="edge">
<title>Node23&#45;&gt;Node5</title>
<path fill="none" stroke="#9a32cd" stroke-dasharray="5,2" d="M1369.29,-409.58C1420.63,-404.56 1485.19,-396.67 1542,-385 1562.55,-380.78 1585.24,-374.07 1602.5,-368.52"/>
<polygon fill="#9a32cd" stroke="#9a32cd" points="1368.82,-406.11 1359.2,-410.55 1369.49,-413.08 1368.82,-406.11"/>
<text text-anchor="middle" x="1459.5" y="-422" font-family="Helvetica,sans-Serif" font-size="10.00"> m_IndexedOutputs</text>
<text text-anchor="middle" x="1459.5" y="-411" font-family="Helvetica,sans-Serif" font-size="10.00">m_IndexedInputs</text>
</g>
<!-- Node24 -->
<g id="node24" class="node">
<title>Node24</title>
<g id="a_node24"><a xlink:title="STL iterator class.">
<polygon fill="white" stroke="#bfbfbf" points="869,-437.5 869,-456.5 1012,-456.5 1012,-437.5 869,-437.5"/>
<text text-anchor="middle" x="940.5" y="-444.5" font-family="Helvetica,sans-Serif" font-size="10.00">std::map&lt; K, T &gt;::iterator</text>
</a>
</g>
</g>
<!-- Node24&#45;&gt;Node23 -->
<g id="edge31" class="edge">
<title>Node24&#45;&gt;Node23</title>
<path fill="none" stroke="#9a32cd" stroke-dasharray="5,2" d="M986.72,-435.12C1000.52,-431.95 1015.8,-428.88 1030,-427 1082.85,-420 1142.66,-417.47 1189.78,-416.7"/>
<polygon fill="#9a32cd" stroke="#9a32cd" points="985.9,-431.72 976.97,-437.44 987.51,-438.53 985.9,-431.72"/>
<text text-anchor="middle" x="1101" y="-430" font-family="Helvetica,sans-Serif" font-size="10.00"> elements</text>
</g>
<!-- Node25&#45;&gt;Node23 -->
<g id="edge32" class="edge">
<title>Node25&#45;&gt;Node23</title>
<path fill="none" stroke="orange" stroke-dasharray="5,2" d="M960.3,-533.72C977.31,-519.95 1003.66,-500.93 1030,-491 1089.58,-468.54 1117.38,-504.73 1172,-472 1183.74,-464.96 1179.07,-455.24 1190,-447 1198,-440.97 1207.31,-436.07 1216.77,-432.12"/>
<polygon fill="orange" stroke="orange" points="957.76,-531.28 952.31,-540.36 962.24,-536.66 957.76,-531.28"/>
<text text-anchor="start" x="1038.5" y="-505" font-family="Helvetica,sans-Serif" font-size="10.00"> &lt; DataObjectPointerMap</text>
<text text-anchor="middle" x="1101" y="-494" font-family="Helvetica,sans-Serif" font-size="10.00">::iterator &gt;</text>
</g>
<!-- Node36 -->
<g id="node36" class="node">
<title>Node36</title>
<g id="a_node36"><a xlink:title=" ">
<polygon fill="white" stroke="#bfbfbf" points="1377,-545.5 1377,-564.5 1542,-564.5 1542,-545.5 1377,-545.5"/>
<text text-anchor="middle" x="1459.5" y="-552.5" font-family="Helvetica,sans-Serif" font-size="10.00">std::vector&lt; ObjectSizeType &gt;</text>
</a>
</g>
</g>
<!-- Node25&#45;&gt;Node36 -->
<g id="edge54" class="edge">
<title>Node25&#45;&gt;Node36</title>
<path fill="none" stroke="orange" stroke-dasharray="5,2" d="M999.33,-552.97C1009.54,-553.39 1020.08,-553.76 1030,-554 1150.67,-556.87 1290.5,-556.5 1376.74,-555.85"/>
<polygon fill="orange" stroke="orange" points="999.4,-549.47 989.25,-552.53 999.09,-556.46 999.4,-549.47"/>
<text text-anchor="middle" x="1101" y="-558" font-family="Helvetica,sans-Serif" font-size="10.00"> &lt; ObjectSizeType &gt;</text>
</g>
<!-- Node38 -->
<g id="node38" class="node">
<title>Node38</title>
<g id="a_node38"><a xlink:title=" ">
<polygon fill="white" stroke="#bfbfbf" points="1721,-600.5 1721,-619.5 1834,-619.5 1834,-600.5 1721,-600.5"/>
<text text-anchor="middle" x="1777.5" y="-607.5" font-family="Helvetica,sans-Serif" font-size="10.00">std::vector&lt; float &gt;</text>
</a>
</g>
</g>
<!-- Node25&#45;&gt;Node38 -->
<g id="edge57" class="edge">
<title>Node25&#45;&gt;Node38</title>
<path fill="none" stroke="orange" stroke-dasharray="5,2" d="M987.51,-561.94C1001.1,-565.05 1016.07,-568.07 1030,-570 1286.47,-605.59 1596.56,-610 1720.94,-610.22"/>
<polygon fill="orange" stroke="orange" points="987.95,-558.45 977.42,-559.56 986.35,-565.27 987.95,-558.45"/>
<text text-anchor="middle" x="1274.5" y="-602" font-family="Helvetica,sans-Serif" font-size="10.00"> &lt; float &gt;</text>
</g>
<!-- Node26&#45;&gt;Node5 -->
<g id="edge34" class="edge">
<title>Node26&#45;&gt;Node5</title>
<path fill="none" stroke="#9a32cd" stroke-dasharray="5,2" d="M1369.37,-359C1436.68,-359 1524.77,-359 1579.49,-359"/>
<polygon fill="#9a32cd" stroke="#9a32cd" points="1369.18,-355.5 1359.18,-359 1369.18,-362.5 1369.18,-355.5"/>
<text text-anchor="middle" x="1459.5" y="-373" font-family="Helvetica,sans-Serif" font-size="10.00"> m_Outputs</text>
<text text-anchor="middle" x="1459.5" y="-362" font-family="Helvetica,sans-Serif" font-size="10.00">m_Inputs</text>
</g>
<!-- Node27 -->
<g id="node27" class="node">
<title>Node27</title>
<g id="a_node27"><a xlink:href="classitk_1_1SmartPointer.html" target="_top" xlink:title=" ">
<polygon fill="white" stroke="black" points="887,-388 887,-418 994,-418 994,-388 887,-388"/>
<text text-anchor="start" x="895" y="-406" font-family="Helvetica,sans-Serif" font-size="10.00">itk::SmartPointer&lt;</text>
<text text-anchor="middle" x="940.5" y="-395" font-family="Helvetica,sans-Serif" font-size="10.00"> Self &gt;</text>
</a>
</g>
</g>
<!-- Node27&#45;&gt;Node26 -->
<g id="edge35" class="edge">
<title>Node27&#45;&gt;Node26</title>
<path fill="none" stroke="#9a32cd" stroke-dasharray="5,2" d="M1004.29,-394.68C1056.8,-387.72 1132.14,-377.73 1189.78,-370.1"/>
<polygon fill="#9a32cd" stroke="#9a32cd" points="1003.56,-391.24 994.11,-396.03 1004.48,-398.18 1003.56,-391.24"/>
<text text-anchor="middle" x="1101" y="-394" font-family="Helvetica,sans-Serif" font-size="10.00"> elements</text>
</g>
<!-- Node28 -->
<g id="node28" class="node">
<title>Node28</title>
<g id="a_node28"><a xlink:href="classitk_1_1SmartPointer.html" target="_top" xlink:title="Implements transparent reference counting.">
<polygon fill="white" stroke="black" points="543.5,-434 543.5,-464 650.5,-464 650.5,-434 543.5,-434"/>
<text text-anchor="start" x="551.5" y="-452" font-family="Helvetica,sans-Serif" font-size="10.00">itk::SmartPointer&lt;</text>
<text text-anchor="middle" x="597" y="-441" font-family="Helvetica,sans-Serif" font-size="10.00"> TObjectType &gt;</text>
</a>
</g>
</g>
<!-- Node28&#45;&gt;Node27 -->
<g id="edge36" class="edge">
<title>Node28&#45;&gt;Node27</title>
<path fill="none" stroke="orange" stroke-dasharray="5,2" d="M660.71,-440.55C725.63,-431.81 825.89,-418.3 886.83,-410.09"/>
<polygon fill="orange" stroke="orange" points="660.05,-437.11 650.61,-441.91 660.99,-444.05 660.05,-437.11"/>
<text text-anchor="middle" x="777.5" y="-437" font-family="Helvetica,sans-Serif" font-size="10.00"> &lt; Self &gt;</text>
</g>
<!-- Node29 -->
<g id="node29" class="node">
<title>Node29</title>
<g id="a_node29"><a xlink:href="classitk_1_1SmartPointer.html" target="_top" xlink:title=" ">
<polygon fill="white" stroke="black" points="1030,-522 1030,-552 1172,-552 1172,-522 1030,-522"/>
<text text-anchor="start" x="1038" y="-540" font-family="Helvetica,sans-Serif" font-size="10.00">itk::SmartPointer&lt;</text>
<text text-anchor="middle" x="1101" y="-529" font-family="Helvetica,sans-Serif" font-size="10.00"> itk::MultiThreaderBase &gt;</text>
</a>
</g>
</g>
<!-- Node28&#45;&gt;Node29 -->
<g id="edge40" class="edge">
<title>Node28&#45;&gt;Node29</title>
<path fill="none" stroke="orange" stroke-dasharray="5,2" d="M660.72,-459.99C754.78,-476.48 931.79,-507.51 1029.96,-524.72"/>
<polygon fill="orange" stroke="orange" points="661.23,-456.53 650.77,-458.25 660.02,-463.43 661.23,-456.53"/>
<text text-anchor="middle" x="777.5" y="-496" font-family="Helvetica,sans-Serif" font-size="10.00"> &lt; itk::MultiThreaderBase &gt;</text>
</g>
<!-- Node29&#45;&gt;Node5 -->
<g id="edge39" class="edge">
<title>Node29&#45;&gt;Node5</title>
<path fill="none" stroke="#9a32cd" stroke-dasharray="5,2" d="M1172.34,-514.88C1183.58,-500.79 1177,-488.43 1190,-479 1317.65,-386.36 1402.29,-507.19 1542,-434 1552.59,-428.45 1551.25,-422.15 1560,-414 1578.51,-396.75 1602.03,-379.17 1616.68,-368.67"/>
<polygon fill="#9a32cd" stroke="#9a32cd" points="1169.86,-512.4 1165.22,-521.93 1174.79,-517.37 1169.86,-512.4"/>
<text text-anchor="middle" x="1274.5" y="-482" font-family="Helvetica,sans-Serif" font-size="10.00"> m_MultiThreader</text>
</g>
<!-- Node30 -->
<g id="node30" class="node">
<title>Node30</title>
<g id="a_node30"><a xlink:href="structitk_1_1ImageSourceCommon.html" target="_top" xlink:title="Secondary base class of ImageSource common between templates.">
<polygon fill="white" stroke="black" points="1560,-423.5 1560,-442.5 1703,-442.5 1703,-423.5 1560,-423.5"/>
<text text-anchor="middle" x="1631.5" y="-430.5" font-family="Helvetica,sans-Serif" font-size="10.00">itk::ImageSourceCommon</text>
</a>
</g>
</g>
<!-- Node30&#45;&gt;Node4 -->
<g id="edge42" class="edge">
<title>Node30&#45;&gt;Node4</title>
<path fill="none" stroke="#8b1a1a" d="M1713.54,-432.89C1750.31,-432.76 1794.35,-432.51 1834,-432 1920.23,-430.9 1942.01,-434.55 2028,-428 2075.38,-424.39 2087.12,-421.78 2134,-414 2145.46,-412.1 2157.59,-409.87 2169.37,-407.6"/>
<polygon fill="#8b1a1a" stroke="#8b1a1a" points="1713.36,-429.39 1703.37,-432.92 1713.39,-436.39 1713.36,-429.39"/>
</g>
<!-- Node30&#45;&gt;Node31 -->
<g id="edge45" class="edge">
<title>Node30&#45;&gt;Node31</title>
<path fill="none" stroke="#8b1a1a" d="M1713.38,-425.08C1760.56,-420.47 1819.6,-414.69 1865.45,-410.2"/>
<polygon fill="#8b1a1a" stroke="#8b1a1a" points="1712.81,-421.62 1703.2,-426.08 1713.5,-428.59 1712.81,-421.62"/>
</g>
<!-- Node31&#45;&gt;Node4 -->
<g id="edge43" class="edge">
<title>Node31&#45;&gt;Node4</title>
<path fill="none" stroke="orange" stroke-dasharray="5,2" d="M2024.82,-400.19C2070.38,-398.66 2126.08,-396.79 2169.26,-395.34"/>
<polygon fill="orange" stroke="orange" points="2024.54,-396.69 2014.66,-400.53 2024.77,-403.69 2024.54,-396.69"/>
<text text-anchor="middle" x="2090" y="-402" font-family="Helvetica,sans-Serif" font-size="10.00"> &lt; TInputImage &gt;</text>
</g>
<!-- Node33 -->
<g id="node33" class="node">
<title>Node33</title>
<g id="a_node33"><a xlink:href="classitk_1_1ImageToImageFilter.html" target="_top" xlink:title="Base class for filters that take an image as input and produce an image as output.">
<polygon fill="white" stroke="black" points="2152,-322 2152,-352 2328,-352 2328,-322 2152,-322"/>
<text text-anchor="start" x="2160" y="-340" font-family="Helvetica,sans-Serif" font-size="10.00">itk::ImageToImageFilter</text>
<text text-anchor="middle" x="2240" y="-329" font-family="Helvetica,sans-Serif" font-size="10.00">&lt; TInputImage, TOutputImage &gt;</text>
</a>
</g>
</g>
<!-- Node31&#45;&gt;Node33 -->
<g id="edge48" class="edge">
<title>Node31&#45;&gt;Node33</title>
<path fill="none" stroke="midnightblue" d="M2018.87,-385.75C2066.08,-375.3 2125.74,-362.08 2171.04,-352.05"/>
<polygon fill="midnightblue" stroke="midnightblue" points="2018,-382.36 2008.99,-387.94 2019.51,-389.2 2018,-382.36"/>
</g>
<!-- Node32 -->
<g id="node32" class="node">
<title>Node32</title>
<g id="a_node32"><a xlink:href="classitk_1_1ImageToImageFilterCommon.html" target="_top" xlink:title="Secondary base class of ImageToImageFilter common between templates.">
<polygon fill="white" stroke="black" points="1852,-290.5 1852,-309.5 2028,-309.5 2028,-290.5 1852,-290.5"/>
<text text-anchor="middle" x="1940" y="-297.5" font-family="Helvetica,sans-Serif" font-size="10.00">itk::ImageToImageFilterCommon</text>
</a>
</g>
</g>
<!-- Node32&#45;&gt;Node3 -->
<g id="edge46" class="edge">
<title>Node32&#45;&gt;Node3</title>
<path fill="none" stroke="#8b1a1a" d="M2038.39,-299.54C2116.78,-300 2229.7,-302.56 2328,-312 2405.53,-319.44 2424.41,-325.85 2501,-340 2510.95,-341.84 2521.43,-343.89 2531.72,-345.97"/>
<polygon fill="#8b1a1a" stroke="#8b1a1a" points="2038.06,-296.04 2028.04,-299.49 2038.03,-303.04 2038.06,-296.04"/>
</g>
<!-- Node32&#45;&gt;Node33 -->
<g id="edge49" class="edge">
<title>Node32&#45;&gt;Node33</title>
<path fill="none" stroke="#8b1a1a" d="M2028.03,-310.81C2067.05,-315.65 2112.97,-321.35 2151.99,-326.2"/>
<polygon fill="#8b1a1a" stroke="#8b1a1a" points="2028.1,-307.29 2017.74,-309.53 2027.23,-314.23 2028.1,-307.29"/>
</g>
<!-- Node33&#45;&gt;Node3 -->
<g id="edge47" class="edge">
<title>Node33&#45;&gt;Node3</title>
<path fill="none" stroke="orange" stroke-dasharray="5,2" d="M2338.52,-342.59C2387.33,-345.5 2447.3,-349.22 2501,-353 2506.79,-353.41 2512.77,-353.84 2518.78,-354.29"/>
<polygon fill="orange" stroke="orange" points="2338.47,-339.09 2328.28,-341.99 2338.06,-346.07 2338.47,-339.09"/>
<text text-anchor="middle" x="2423.5" y="-356" font-family="Helvetica,sans-Serif" font-size="10.00"> &lt; TInputImage, TInputImage &gt;</text>
</g>
<!-- Node34&#45;&gt;Node1 -->
<g id="edge50" class="edge">
<title>Node34&#45;&gt;Node1</title>
<path fill="none" stroke="#9a32cd" stroke-dasharray="5,2" d="M696.39,-22.76C764.62,-23.83 857.58,-25 939.5,-25 939.5,-25 939.5,-25 2813,-25 3013.3,-25 3071.93,-363.05 3082.58,-438.98"/>
<polygon fill="#9a32cd" stroke="#9a32cd" points="696.14,-19.26 686.09,-22.6 696.03,-26.26 696.14,-19.26"/>
<text text-anchor="middle" x="1940" y="-28" font-family="Helvetica,sans-Serif" font-size="10.00"> m_SizeMap</text>
</g>
<!-- Node35 -->
<g id="node35" class="node">
<title>Node35</title>
<g id="a_node35"><a xlink:href="structitk_1_1RelabelComponentImageFilter_1_1RelabelComponentObjectType.html" target="_top" xlink:title=" ">
<polygon fill="white" stroke="black" points="114,-0.5 114,-41.5 304,-41.5 304,-0.5 114,-0.5"/>
<text text-anchor="start" x="122" y="-29.5" font-family="Helvetica,sans-Serif" font-size="10.00">itk::RelabelComponentImage</text>
<text text-anchor="start" x="122" y="-18.5" font-family="Helvetica,sans-Serif" font-size="10.00">Filter&lt; TInputImage, TOutputImage</text>
<text text-anchor="middle" x="209" y="-7.5" font-family="Helvetica,sans-Serif" font-size="10.00"> &gt;::RelabelComponentObjectType</text>
</a>
</g>
</g>
<!-- Node35&#45;&gt;Node34 -->
<g id="edge51" class="edge">
<title>Node35&#45;&gt;Node34</title>
<path fill="none" stroke="#9a32cd" stroke-dasharray="5,2" d="M314.77,-21C375.23,-21 450.42,-21 507.84,-21"/>
<polygon fill="#9a32cd" stroke="#9a32cd" points="314.43,-17.5 304.43,-21 314.43,-24.5 314.43,-17.5"/>
<text text-anchor="middle" x="406" y="-24" font-family="Helvetica,sans-Serif" font-size="10.00"> elements</text>
</g>
<!-- Node36&#45;&gt;Node1 -->
<g id="edge53" class="edge">
<title>Node36&#45;&gt;Node1</title>
<path fill="none" stroke="#9a32cd" stroke-dasharray="5,2" d="M1523.58,-543.87C1587.2,-533.62 1688.35,-520 1776.5,-520 1776.5,-520 1776.5,-520 2813,-520 2898.62,-520 2995.23,-488.63 3046.98,-469.14"/>
<polygon fill="#9a32cd" stroke="#9a32cd" points="1523,-540.42 1513.7,-545.48 1524.13,-547.33 1523,-540.42"/>
<text text-anchor="middle" x="2240" y="-523" font-family="Helvetica,sans-Serif" font-size="10.00"> m_SizeOfObjectsInPixels</text>
</g>
<!-- Node37 -->
<g id="node37" class="node">
<title>Node37</title>
<g id="a_node37"><a xlink:title="STL class.">
<polygon fill="white" stroke="#bfbfbf" points="2777.5,-400.5 2777.5,-419.5 2846.5,-419.5 2846.5,-400.5 2777.5,-400.5"/>
<text text-anchor="middle" x="2812" y="-407.5" font-family="Helvetica,sans-Serif" font-size="10.00">std::mutex</text>
</a>
</g>
</g>
<!-- Node37&#45;&gt;Node1 -->
<g id="edge55" class="edge">
<title>Node37&#45;&gt;Node1</title>
<path fill="none" stroke="#9a32cd" stroke-dasharray="5,2" d="M2856.83,-417.1C2893.2,-423 2946.18,-431.58 2991.88,-438.99"/>
<polygon fill="#9a32cd" stroke="#9a32cd" points="2856.99,-413.58 2846.56,-415.44 2855.87,-420.49 2856.99,-413.58"/>
<text text-anchor="middle" x="2942.5" y="-437" font-family="Helvetica,sans-Serif" font-size="10.00"> m_Mutex</text>
</g>
<!-- Node38&#45;&gt;Node1 -->
<g id="edge56" class="edge">
<title>Node38&#45;&gt;Node1</title>
<path fill="none" stroke="#9a32cd" stroke-dasharray="5,2" d="M1844.42,-604.3C1907.24,-599.36 2004.49,-593 2089,-593 2089,-593 2089,-593 2813,-593 2920.76,-593 3028.76,-505.17 3068.52,-469.14"/>
<polygon fill="#9a32cd" stroke="#9a32cd" points="1843.95,-600.82 1834.26,-605.11 1844.51,-607.8 1843.95,-600.82"/>
<text text-anchor="start" x="2355.5" y="-607" font-family="Helvetica,sans-Serif" font-size="10.00"> m_SizeOfObjectsInPhysical</text>
<text text-anchor="middle" x="2423.5" y="-596" font-family="Helvetica,sans-Serif" font-size="10.00">Units</text>
</g>
</g>
</svg>
