<?xml version="1.0" encoding="UTF-8" standalone="no"?>
<!DOCTYPE svg PUBLIC "-//W3C//DTD SVG 1.1//EN"
 "http://www.w3.org/Graphics/SVG/1.1/DTD/svg11.dtd">
<!-- Generated by graphviz version 2.43.0 (0)
 -->
<!-- Title: itk::MultiLabelSTAPLEImageFilter&lt; TInputImage, TOutputImage, TWeights &gt; Pages: 1 -->
<svg width="2577pt" height="444pt"
 viewBox="0.00 0.00 2577.00 444.39" xmlns="http://www.w3.org/2000/svg" xmlns:xlink="http://www.w3.org/1999/xlink">
<g id="graph0" class="graph" transform="scale(1 1) rotate(0) translate(4 440.39)">
<title>itk::MultiLabelSTAPLEImageFilter&lt; TInputImage, TOutputImage, TWeights &gt;</title>
<polygon fill="white" stroke="transparent" points="-4,4 -4,-440.39 2573,-440.39 2573,4 -4,4"/>
<!-- Node1 -->
<g id="node1" class="node">
<title>Node1</title>
<g id="a_node1"><a xlink:title="This filter performs a pixelwise combination of an arbitrary number of input images,...">
<polygon fill="#bfbfbf" stroke="black" points="2376,-63.89 2376,-104.89 2569,-104.89 2569,-63.89 2376,-63.89"/>
<text text-anchor="start" x="2384" y="-92.89" font-family="Helvetica,sans-Serif" font-size="10.00">itk::MultiLabelSTAPLEImage</text>
<text text-anchor="start" x="2384" y="-81.89" font-family="Helvetica,sans-Serif" font-size="10.00">Filter&lt; TInputImage, TOutputImage,</text>
<text text-anchor="middle" x="2472.5" y="-70.89" font-family="Helvetica,sans-Serif" font-size="10.00"> TWeights &gt;</text>
</a>
</g>
</g>
<!-- Node2 -->
<g id="node2" class="node">
<title>Node2</title>
<g id="a_node2"><a xlink:href="classitk_1_1ImageToImageFilter.html" target="_top" xlink:title=" ">
<polygon fill="white" stroke="black" points="2009,-109.39 2009,-139.39 2177,-139.39 2177,-109.39 2009,-109.39"/>
<text text-anchor="start" x="2017" y="-127.39" font-family="Helvetica,sans-Serif" font-size="10.00">itk::ImageToImageFilter</text>
<text text-anchor="middle" x="2093" y="-116.39" font-family="Helvetica,sans-Serif" font-size="10.00">&lt; TInputImage, TInputImage &gt;</text>
</a>
</g>
</g>
<!-- Node2&#45;&gt;Node1 -->
<g id="edge1" class="edge">
<title>Node2&#45;&gt;Node1</title>
<path fill="none" stroke="midnightblue" d="M2187.51,-115.1C2238.01,-110.02 2301.44,-103.52 2358,-97.39 2363.82,-96.76 2369.8,-96.1 2375.83,-95.43"/>
<polygon fill="midnightblue" stroke="midnightblue" points="2186.86,-111.65 2177.26,-116.13 2187.56,-118.62 2186.86,-111.65"/>
</g>
<!-- Node3 -->
<g id="node3" class="node">
<title>Node3</title>
<g id="a_node3"><a xlink:href="classitk_1_1ImageSource.html" target="_top" xlink:title=" ">
<polygon fill="white" stroke="black" points="1765.5,-150.39 1765.5,-180.39 1906.5,-180.39 1906.5,-150.39 1765.5,-150.39"/>
<text text-anchor="start" x="1773.5" y="-168.39" font-family="Helvetica,sans-Serif" font-size="10.00">itk::ImageSource&lt; TInput</text>
<text text-anchor="middle" x="1836" y="-157.39" font-family="Helvetica,sans-Serif" font-size="10.00">Image &gt;</text>
</a>
</g>
</g>
<!-- Node3&#45;&gt;Node2 -->
<g id="edge2" class="edge">
<title>Node3&#45;&gt;Node2</title>
<path fill="none" stroke="midnightblue" d="M1916.85,-152.55C1946.11,-147.85 1979.27,-142.51 2008.81,-137.76"/>
<polygon fill="midnightblue" stroke="midnightblue" points="1916,-149.14 1906.68,-154.18 1917.11,-156.05 1916,-149.14"/>
</g>
<!-- Node4 -->
<g id="node4" class="node">
<title>Node4</title>
<g id="a_node4"><a xlink:href="classitk_1_1ProcessObject.html" target="_top" xlink:title="The base class for all process objects (source, filters, mappers) in the Insight data processing pipe...">
<polygon fill="white" stroke="black" points="1587.5,-177.89 1587.5,-196.89 1691.5,-196.89 1691.5,-177.89 1587.5,-177.89"/>
<text text-anchor="middle" x="1639.5" y="-184.89" font-family="Helvetica,sans-Serif" font-size="10.00">itk::ProcessObject</text>
</a>
</g>
</g>
<!-- Node4&#45;&gt;Node3 -->
<g id="edge3" class="edge">
<title>Node4&#45;&gt;Node3</title>
<path fill="none" stroke="midnightblue" d="M1701.61,-180.48C1721.81,-178.19 1744.43,-175.63 1765.23,-173.28"/>
<polygon fill="midnightblue" stroke="midnightblue" points="1701.15,-177.01 1691.6,-181.61 1701.93,-183.96 1701.15,-177.01"/>
</g>
<!-- Node5 -->
<g id="node5" class="node">
<title>Node5</title>
<g id="a_node5"><a xlink:href="classitk_1_1Object.html" target="_top" xlink:title="Base class for most ITK classes.">
<polygon fill="white" stroke="black" points="1272,-318.89 1272,-337.89 1339,-337.89 1339,-318.89 1272,-318.89"/>
<text text-anchor="middle" x="1305.5" y="-325.89" font-family="Helvetica,sans-Serif" font-size="10.00">itk::Object</text>
</a>
</g>
</g>
<!-- Node5&#45;&gt;Node4 -->
<g id="edge4" class="edge">
<title>Node5&#45;&gt;Node4</title>
<path fill="none" stroke="midnightblue" d="M1349.33,-324.62C1399.87,-318.72 1485.23,-304.14 1550,-269.39 1585.25,-250.47 1617.17,-214.14 1631.1,-196.9"/>
<polygon fill="midnightblue" stroke="midnightblue" points="1348.65,-321.17 1339.09,-325.75 1349.41,-328.13 1348.65,-321.17"/>
</g>
<!-- Node6 -->
<g id="node6" class="node">
<title>Node6</title>
<g id="a_node6"><a xlink:href="classitk_1_1LightObject.html" target="_top" xlink:title="Light weight base class for most itk classes.">
<polygon fill="white" stroke="black" points="935,-279.89 935,-298.89 1026,-298.89 1026,-279.89 935,-279.89"/>
<text text-anchor="middle" x="980.5" y="-286.89" font-family="Helvetica,sans-Serif" font-size="10.00">itk::LightObject</text>
</a>
</g>
</g>
<!-- Node6&#45;&gt;Node5 -->
<g id="edge5" class="edge">
<title>Node6&#45;&gt;Node5</title>
<path fill="none" stroke="midnightblue" d="M1036.09,-295.98C1103.55,-304.12 1216.2,-317.73 1271.64,-324.42"/>
<polygon fill="midnightblue" stroke="midnightblue" points="1036.42,-292.49 1026.07,-294.77 1035.58,-299.44 1036.42,-292.49"/>
</g>
<!-- Node7 -->
<g id="node7" class="node">
<title>Node7</title>
<g id="a_node7"><a xlink:title=" ">
<polygon fill="white" stroke="black" points="655.5,-279.89 655.5,-298.89 762.5,-298.89 762.5,-279.89 655.5,-279.89"/>
<text text-anchor="middle" x="709" y="-286.89" font-family="Helvetica,sans-Serif" font-size="10.00">std::atomic&lt; int &gt;</text>
</a>
</g>
</g>
<!-- Node7&#45;&gt;Node6 -->
<g id="edge6" class="edge">
<title>Node7&#45;&gt;Node6</title>
<path fill="none" stroke="#9a32cd" stroke-dasharray="5,2" d="M772.89,-289.39C822.48,-289.39 890.42,-289.39 934.63,-289.39"/>
<polygon fill="#9a32cd" stroke="#9a32cd" points="772.6,-285.89 762.6,-289.39 772.6,-292.89 772.6,-285.89"/>
<text text-anchor="middle" x="842.5" y="-292.39" font-family="Helvetica,sans-Serif" font-size="10.00"> m_ReferenceCount</text>
</g>
<!-- Node8 -->
<g id="node8" class="node">
<title>Node8</title>
<g id="a_node8"><a xlink:href="classitk_1_1TimeStamp.html" target="_top" xlink:title="Generate a unique, increasing time value.">
<polygon fill="white" stroke="black" points="934.5,-416.89 934.5,-435.89 1026.5,-435.89 1026.5,-416.89 934.5,-416.89"/>
<text text-anchor="middle" x="980.5" y="-423.89" font-family="Helvetica,sans-Serif" font-size="10.00">itk::TimeStamp</text>
</a>
</g>
</g>
<!-- Node8&#45;&gt;Node4 -->
<g id="edge19" class="edge">
<title>Node8&#45;&gt;Node4</title>
<path fill="none" stroke="#9a32cd" stroke-dasharray="5,2" d="M1036.67,-428.83C1145.49,-430.86 1390.99,-421.28 1550,-306.39 1592.16,-275.93 1622.89,-219.45 1633.98,-196.97"/>
<polygon fill="#9a32cd" stroke="#9a32cd" points="1036.65,-425.33 1026.57,-428.6 1036.49,-432.33 1036.65,-425.33"/>
<text text-anchor="middle" x="1305.5" y="-421.39" font-family="Helvetica,sans-Serif" font-size="10.00"> m_OutputInformationMTime</text>
</g>
<!-- Node8&#45;&gt;Node5 -->
<g id="edge7" class="edge">
<title>Node8&#45;&gt;Node5</title>
<path fill="none" stroke="#9a32cd" stroke-dasharray="5,2" d="M1036.75,-416.28C1097.17,-405.1 1187.51,-387.91 1203,-382.39 1235.53,-370.79 1270.44,-350.21 1289.67,-338.08"/>
<polygon fill="#9a32cd" stroke="#9a32cd" points="1035.78,-412.9 1026.59,-418.16 1037.06,-419.79 1035.78,-412.9"/>
<text text-anchor="middle" x="1136.5" y="-412.39" font-family="Helvetica,sans-Serif" font-size="10.00"> m_MTime</text>
</g>
<!-- Node9 -->
<g id="node9" class="node">
<title>Node9</title>
<g id="a_node9"><a xlink:title=" ">
<polygon fill="white" stroke="black" points="233,-414.89 233,-433.89 333,-433.89 333,-414.89 233,-414.89"/>
<text text-anchor="middle" x="283" y="-421.89" font-family="Helvetica,sans-Serif" font-size="10.00">std::atomic&lt; T &gt;</text>
</a>
</g>
</g>
<!-- Node9&#45;&gt;Node8 -->
<g id="edge8" class="edge">
<title>Node9&#45;&gt;Node8</title>
<path fill="none" stroke="#9a32cd" stroke-dasharray="5,2" d="M343.44,-424.56C479.86,-424.95 813,-425.91 934.35,-426.26"/>
<polygon fill="#9a32cd" stroke="#9a32cd" points="343.19,-421.06 333.18,-424.53 343.17,-428.06 343.19,-421.06"/>
<text text-anchor="middle" x="571" y="-427.39" font-family="Helvetica,sans-Serif" font-size="10.00"> m_GlobalTimeStamp</text>
</g>
<!-- Node10 -->
<g id="node10" class="node">
<title>Node10</title>
<g id="a_node10"><a xlink:title=" ">
<polygon fill="white" stroke="black" points="0,-399.89 0,-418.89 29,-418.89 29,-399.89 0,-399.89"/>
<text text-anchor="middle" x="14.5" y="-406.89" font-family="Helvetica,sans-Serif" font-size="10.00">T</text>
</a>
</g>
</g>
<!-- Node10&#45;&gt;Node9 -->
<g id="edge9" class="edge">
<title>Node10&#45;&gt;Node9</title>
<path fill="none" stroke="#9a32cd" stroke-dasharray="5,2" d="M39.23,-410.72C82.59,-413.16 175.47,-418.39 232.94,-421.63"/>
<polygon fill="#9a32cd" stroke="#9a32cd" points="39.26,-407.22 29.08,-410.15 38.87,-414.21 39.26,-407.22"/>
<text text-anchor="middle" x="71.5" y="-416.39" font-family="Helvetica,sans-Serif" font-size="10.00"> ptr</text>
</g>
<!-- Node15 -->
<g id="node15" class="node">
<title>Node15</title>
<g id="a_node15"><a xlink:title=" ">
<polygon fill="white" stroke="black" points="114,-346.89 114,-365.89 215,-365.89 215,-346.89 114,-346.89"/>
<text text-anchor="middle" x="164.5" y="-353.89" font-family="Helvetica,sans-Serif" font-size="10.00">std::map&lt; K, T &gt;</text>
</a>
</g>
</g>
<!-- Node10&#45;&gt;Node15 -->
<g id="edge16" class="edge">
<title>Node10&#45;&gt;Node15</title>
<path fill="none" stroke="#9a32cd" stroke-dasharray="5,2" d="M38.18,-395.63C41.1,-394.1 44.08,-392.64 47,-391.39 71.84,-380.72 100.96,-371.97 123.88,-365.89"/>
<polygon fill="#9a32cd" stroke="#9a32cd" points="36.28,-392.68 29.26,-400.62 39.7,-398.79 36.28,-392.68"/>
<text text-anchor="middle" x="71.5" y="-394.39" font-family="Helvetica,sans-Serif" font-size="10.00"> elements</text>
</g>
<!-- Node11 -->
<g id="node11" class="node">
<title>Node11</title>
<g id="a_node11"><a xlink:title=" ">
<polygon fill="white" stroke="black" points="912,-367.39 912,-397.39 1049,-397.39 1049,-367.39 912,-367.39"/>
<text text-anchor="start" x="920" y="-385.39" font-family="Helvetica,sans-Serif" font-size="10.00">std::unique_ptr&lt; Subject</text>
<text text-anchor="middle" x="980.5" y="-374.39" font-family="Helvetica,sans-Serif" font-size="10.00">Implementation &gt;</text>
</a>
</g>
</g>
<!-- Node11&#45;&gt;Node5 -->
<g id="edge10" class="edge">
<title>Node11&#45;&gt;Node5</title>
<path fill="none" stroke="#9a32cd" stroke-dasharray="5,2" d="M1059.4,-370.01C1101.87,-363.19 1155.35,-354.48 1203,-346.39 1225.94,-342.49 1251.75,-337.91 1271.61,-334.34"/>
<polygon fill="#9a32cd" stroke="#9a32cd" points="1058.72,-366.57 1049.4,-371.61 1059.83,-373.48 1058.72,-366.57"/>
<text text-anchor="middle" x="1136.5" y="-370.39" font-family="Helvetica,sans-Serif" font-size="10.00"> m_SubjectImplementation</text>
</g>
<!-- Node12 -->
<g id="node12" class="node">
<title>Node12</title>
<g id="a_node12"><a xlink:title=" ">
<polygon fill="white" stroke="black" points="914.5,-318.39 914.5,-348.39 1046.5,-348.39 1046.5,-318.39 914.5,-318.39"/>
<text text-anchor="start" x="922.5" y="-336.39" font-family="Helvetica,sans-Serif" font-size="10.00">std::unique_ptr&lt; itk</text>
<text text-anchor="middle" x="980.5" y="-325.39" font-family="Helvetica,sans-Serif" font-size="10.00">::MetaDataDictionary &gt;</text>
</a>
</g>
</g>
<!-- Node12&#45;&gt;Node5 -->
<g id="edge11" class="edge">
<title>Node12&#45;&gt;Node5</title>
<path fill="none" stroke="#9a32cd" stroke-dasharray="5,2" d="M1057.1,-332.22C1125.12,-331.16 1221.81,-329.67 1271.78,-328.89"/>
<polygon fill="#9a32cd" stroke="#9a32cd" points="1056.81,-328.72 1046.86,-332.38 1056.92,-335.72 1056.81,-328.72"/>
<text text-anchor="middle" x="1136.5" y="-334.39" font-family="Helvetica,sans-Serif" font-size="10.00"> m_MetaDataDictionary</text>
</g>
<!-- Node13 -->
<g id="node13" class="node">
<title>Node13</title>
<g id="a_node13"><a xlink:href="classitk_1_1MetaDataDictionary.html" target="_top" xlink:title="Provides a mechanism for storing a collection of arbitrary data types.">
<polygon fill="white" stroke="black" points="642,-323.89 642,-342.89 776,-342.89 776,-323.89 642,-323.89"/>
<text text-anchor="middle" x="709" y="-330.89" font-family="Helvetica,sans-Serif" font-size="10.00">itk::MetaDataDictionary</text>
</a>
</g>
</g>
<!-- Node13&#45;&gt;Node12 -->
<g id="edge12" class="edge">
<title>Node13&#45;&gt;Node12</title>
<path fill="none" stroke="#9a32cd" stroke-dasharray="5,2" d="M786.35,-333.39C826.75,-333.39 875.84,-333.39 914.42,-333.39"/>
<polygon fill="#9a32cd" stroke="#9a32cd" points="786.27,-329.89 776.27,-333.39 786.27,-336.89 786.27,-329.89"/>
<text text-anchor="middle" x="842.5" y="-336.39" font-family="Helvetica,sans-Serif" font-size="10.00"> ptr</text>
</g>
<!-- Node14 -->
<g id="node14" class="node">
<title>Node14</title>
<g id="a_node14"><a xlink:title=" ">
<polygon fill="white" stroke="black" points="351,-323.39 351,-353.39 500,-353.39 500,-323.39 351,-323.39"/>
<text text-anchor="start" x="359" y="-341.39" font-family="Helvetica,sans-Serif" font-size="10.00">std::shared_ptr&lt; MetaData</text>
<text text-anchor="middle" x="425.5" y="-330.39" font-family="Helvetica,sans-Serif" font-size="10.00">DictionaryMapType &gt;</text>
</a>
</g>
</g>
<!-- Node14&#45;&gt;Node13 -->
<g id="edge13" class="edge">
<title>Node14&#45;&gt;Node13</title>
<path fill="none" stroke="#9a32cd" stroke-dasharray="5,2" d="M510.29,-336.9C552.24,-336.15 602.31,-335.27 641.57,-334.57"/>
<polygon fill="#9a32cd" stroke="#9a32cd" points="510.03,-333.4 500.09,-337.08 510.15,-340.4 510.03,-333.4"/>
<text text-anchor="middle" x="571" y="-339.39" font-family="Helvetica,sans-Serif" font-size="10.00"> m_Dictionary</text>
</g>
<!-- Node15&#45;&gt;Node14 -->
<g id="edge14" class="edge">
<title>Node15&#45;&gt;Node14</title>
<path fill="none" stroke="#9a32cd" stroke-dasharray="5,2" d="M225.34,-352.23C262.61,-349.64 310.86,-346.29 350.52,-343.53"/>
<polygon fill="#9a32cd" stroke="#9a32cd" points="224.86,-348.75 215.13,-352.94 225.35,-355.74 224.86,-348.75"/>
<text text-anchor="middle" x="283" y="-354.39" font-family="Helvetica,sans-Serif" font-size="10.00"> ptr</text>
</g>
<!-- Node16 -->
<g id="node16" class="node">
<title>Node16</title>
<g id="a_node16"><a xlink:title=" ">
<polygon fill="white" stroke="black" points="0,-346.89 0,-365.89 29,-365.89 29,-346.89 0,-346.89"/>
<text text-anchor="middle" x="14.5" y="-353.89" font-family="Helvetica,sans-Serif" font-size="10.00">K</text>
</a>
</g>
</g>
<!-- Node16&#45;&gt;Node15 -->
<g id="edge15" class="edge">
<title>Node16&#45;&gt;Node15</title>
<path fill="none" stroke="#9a32cd" stroke-dasharray="5,2" d="M39.24,-356.39C59.28,-356.39 88.63,-356.39 113.78,-356.39"/>
<polygon fill="#9a32cd" stroke="#9a32cd" points="39.16,-352.89 29.16,-356.39 39.16,-359.89 39.16,-352.89"/>
<text text-anchor="middle" x="71.5" y="-359.39" font-family="Helvetica,sans-Serif" font-size="10.00"> keys</text>
</g>
<!-- Node17 -->
<g id="node17" class="node">
<title>Node17</title>
<g id="a_node17"><a xlink:title=" ">
<polygon fill="white" stroke="black" points="948,-219.89 948,-238.89 1013,-238.89 1013,-219.89 948,-219.89"/>
<text text-anchor="middle" x="980.5" y="-226.89" font-family="Helvetica,sans-Serif" font-size="10.00">std::string</text>
</a>
</g>
</g>
<!-- Node17&#45;&gt;Node5 -->
<g id="edge17" class="edge">
<title>Node17&#45;&gt;Node5</title>
<path fill="none" stroke="#9a32cd" stroke-dasharray="5,2" d="M1015.26,-242.56C1031.61,-248.6 1051.64,-255.48 1070,-260.39 1128.1,-275.93 1145.42,-268 1203,-285.39 1232.68,-294.35 1265.44,-309.19 1285.5,-318.88"/>
<polygon fill="#9a32cd" stroke="#9a32cd" points="1016.2,-239.18 1005.61,-238.94 1013.74,-245.73 1016.2,-239.18"/>
<text text-anchor="middle" x="1136.5" y="-288.39" font-family="Helvetica,sans-Serif" font-size="10.00"> m_ObjectName</text>
</g>
<!-- Node19 -->
<g id="node19" class="node">
<title>Node19</title>
<g id="a_node19"><a xlink:title=" ">
<polygon fill="white" stroke="black" points="1221,-148.39 1221,-178.39 1390,-178.39 1390,-148.39 1221,-148.39"/>
<text text-anchor="start" x="1229" y="-166.39" font-family="Helvetica,sans-Serif" font-size="10.00">std::map&lt; DataObjectIdentifier</text>
<text text-anchor="middle" x="1305.5" y="-155.39" font-family="Helvetica,sans-Serif" font-size="10.00">Type, DataObjectPointer &gt;</text>
</a>
</g>
</g>
<!-- Node17&#45;&gt;Node19 -->
<g id="edge21" class="edge">
<title>Node17&#45;&gt;Node19</title>
<path fill="none" stroke="#9a32cd" stroke-dasharray="5,2" d="M1011.49,-215.87C1028.37,-208.78 1050.01,-200.52 1070,-195.39 1119.25,-182.75 1175.68,-174.85 1220.85,-170.07"/>
<polygon fill="#9a32cd" stroke="#9a32cd" points="1009.96,-212.72 1002.15,-219.88 1012.72,-219.15 1009.96,-212.72"/>
<text text-anchor="middle" x="1136.5" y="-198.39" font-family="Helvetica,sans-Serif" font-size="10.00"> keys</text>
</g>
<!-- Node23 -->
<g id="node23" class="node">
<title>Node23</title>
<g id="a_node23"><a xlink:title=" ">
<polygon fill="white" stroke="black" points="1221,-197.39 1221,-227.39 1390,-227.39 1390,-197.39 1221,-197.39"/>
<text text-anchor="start" x="1229" y="-215.39" font-family="Helvetica,sans-Serif" font-size="10.00">std::map&lt; DataObjectIdentifier</text>
<text text-anchor="middle" x="1305.5" y="-204.39" font-family="Helvetica,sans-Serif" font-size="10.00">Type, bool &gt;</text>
</a>
</g>
</g>
<!-- Node17&#45;&gt;Node23 -->
<g id="edge26" class="edge">
<title>Node17&#45;&gt;Node23</title>
<path fill="none" stroke="#9a32cd" stroke-dasharray="5,2" d="M1023.59,-221.46C1038.22,-219.04 1054.78,-216.68 1070,-215.39 1119.9,-211.14 1175.98,-210.29 1220.79,-210.54"/>
<polygon fill="#9a32cd" stroke="#9a32cd" points="1022.58,-218.08 1013.32,-223.22 1023.76,-224.98 1022.58,-218.08"/>
<text text-anchor="middle" x="1136.5" y="-218.39" font-family="Helvetica,sans-Serif" font-size="10.00"> keys</text>
</g>
<!-- Node24 -->
<g id="node24" class="node">
<title>Node24</title>
<g id="a_node24"><a xlink:title=" ">
<polygon fill="white" stroke="black" points="1224.5,-246.39 1224.5,-276.39 1386.5,-276.39 1386.5,-246.39 1224.5,-246.39"/>
<text text-anchor="start" x="1232.5" y="-264.39" font-family="Helvetica,sans-Serif" font-size="10.00">std::set&lt; DataObjectIdentifier</text>
<text text-anchor="middle" x="1305.5" y="-253.39" font-family="Helvetica,sans-Serif" font-size="10.00">Type &gt;</text>
</a>
</g>
</g>
<!-- Node17&#45;&gt;Node24 -->
<g id="edge28" class="edge">
<title>Node17&#45;&gt;Node24</title>
<path fill="none" stroke="#9a32cd" stroke-dasharray="5,2" d="M1023.23,-232.81C1067.78,-236.54 1140.43,-242.87 1203,-249.39 1209.97,-250.11 1217.21,-250.9 1224.46,-251.72"/>
<polygon fill="#9a32cd" stroke="#9a32cd" points="1023.33,-229.31 1013.07,-231.96 1022.75,-236.28 1023.33,-229.31"/>
<text text-anchor="middle" x="1136.5" y="-252.39" font-family="Helvetica,sans-Serif" font-size="10.00"> keys</text>
</g>
<!-- Node18 -->
<g id="node18" class="node">
<title>Node18</title>
<g id="a_node18"><a xlink:title=" ">
<polygon fill="white" stroke="black" points="657,-214.39 657,-244.39 761,-244.39 761,-214.39 657,-214.39"/>
<text text-anchor="start" x="665" y="-232.39" font-family="Helvetica,sans-Serif" font-size="10.00">std::basic_string&lt;</text>
<text text-anchor="middle" x="709" y="-221.39" font-family="Helvetica,sans-Serif" font-size="10.00"> Char &gt;</text>
</a>
</g>
</g>
<!-- Node18&#45;&gt;Node17 -->
<g id="edge18" class="edge">
<title>Node18&#45;&gt;Node17</title>
<path fill="none" stroke="midnightblue" d="M771.31,-229.39C826.18,-229.39 904.43,-229.39 947.69,-229.39"/>
<polygon fill="midnightblue" stroke="midnightblue" points="771.01,-225.89 761.01,-229.39 771.01,-232.89 771.01,-225.89"/>
</g>
<!-- Node19&#45;&gt;Node4 -->
<g id="edge20" class="edge">
<title>Node19&#45;&gt;Node4</title>
<path fill="none" stroke="#9a32cd" stroke-dasharray="5,2" d="M1400.3,-160.44C1445.67,-160.15 1500.83,-161.49 1550,-167.39 1567.99,-169.54 1587.67,-173.8 1603.9,-177.83"/>
<polygon fill="#9a32cd" stroke="#9a32cd" points="1400.15,-156.94 1390.18,-160.53 1400.21,-163.94 1400.15,-156.94"/>
<text text-anchor="middle" x="1479" y="-181.39" font-family="Helvetica,sans-Serif" font-size="10.00"> m_Inputs</text>
<text text-anchor="middle" x="1479" y="-170.39" font-family="Helvetica,sans-Serif" font-size="10.00">m_Outputs</text>
</g>
<!-- Node20 -->
<g id="node20" class="node">
<title>Node20</title>
<g id="a_node20"><a xlink:href="classitk_1_1SmartPointer.html" target="_top" xlink:title=" ">
<polygon fill="white" stroke="black" points="927,-133.39 927,-163.39 1034,-163.39 1034,-133.39 927,-133.39"/>
<text text-anchor="start" x="935" y="-151.39" font-family="Helvetica,sans-Serif" font-size="10.00">itk::SmartPointer&lt;</text>
<text text-anchor="middle" x="980.5" y="-140.39" font-family="Helvetica,sans-Serif" font-size="10.00"> Self &gt;</text>
</a>
</g>
</g>
<!-- Node20&#45;&gt;Node19 -->
<g id="edge22" class="edge">
<title>Node20&#45;&gt;Node19</title>
<path fill="none" stroke="#9a32cd" stroke-dasharray="5,2" d="M1044.39,-147.59C1053,-147.51 1061.72,-147.43 1070,-147.39 1129.11,-147.05 1144.07,-142.77 1203,-147.39 1208.87,-147.85 1214.91,-148.45 1220.99,-149.16"/>
<polygon fill="#9a32cd" stroke="#9a32cd" points="1044.34,-144.09 1034.38,-147.69 1044.42,-151.09 1044.34,-144.09"/>
<text text-anchor="middle" x="1136.5" y="-150.39" font-family="Helvetica,sans-Serif" font-size="10.00"> elements</text>
</g>
<!-- Node21 -->
<g id="node21" class="node">
<title>Node21</title>
<g id="a_node21"><a xlink:title=" ">
<polygon fill="white" stroke="black" points="1221,-99.39 1221,-129.39 1390,-129.39 1390,-99.39 1221,-99.39"/>
<text text-anchor="start" x="1229" y="-117.39" font-family="Helvetica,sans-Serif" font-size="10.00">std::vector&lt; DataObjectPointer</text>
<text text-anchor="middle" x="1305.5" y="-106.39" font-family="Helvetica,sans-Serif" font-size="10.00">Map::iterator &gt;</text>
</a>
</g>
</g>
<!-- Node21&#45;&gt;Node4 -->
<g id="edge23" class="edge">
<title>Node21&#45;&gt;Node4</title>
<path fill="none" stroke="#9a32cd" stroke-dasharray="5,2" d="M1400.39,-101.71C1448.75,-99.95 1506.53,-105.72 1550,-134.39 1564.27,-143.8 1554.64,-157.72 1568,-168.39 1573.65,-172.9 1580.28,-176.34 1587.17,-178.96"/>
<polygon fill="#9a32cd" stroke="#9a32cd" points="1400.04,-98.22 1390.22,-102.19 1400.37,-105.21 1400.04,-98.22"/>
<text text-anchor="middle" x="1479" y="-148.39" font-family="Helvetica,sans-Serif" font-size="10.00"> m_IndexedInputs</text>
<text text-anchor="middle" x="1479" y="-137.39" font-family="Helvetica,sans-Serif" font-size="10.00">m_IndexedOutputs</text>
</g>
<!-- Node22 -->
<g id="node22" class="node">
<title>Node22</title>
<g id="a_node22"><a xlink:title=" ">
<polygon fill="white" stroke="black" points="909,-94.89 909,-113.89 1052,-113.89 1052,-94.89 909,-94.89"/>
<text text-anchor="middle" x="980.5" y="-101.89" font-family="Helvetica,sans-Serif" font-size="10.00">std::map&lt; K, T &gt;::iterator</text>
</a>
</g>
</g>
<!-- Node22&#45;&gt;Node21 -->
<g id="edge24" class="edge">
<title>Node22&#45;&gt;Node21</title>
<path fill="none" stroke="#9a32cd" stroke-dasharray="5,2" d="M1062.49,-106.9C1110.84,-108.39 1172.12,-110.29 1220.92,-111.8"/>
<polygon fill="#9a32cd" stroke="#9a32cd" points="1062.49,-103.39 1052.38,-106.58 1062.27,-110.39 1062.49,-103.39"/>
<text text-anchor="middle" x="1136.5" y="-113.39" font-family="Helvetica,sans-Serif" font-size="10.00"> elements</text>
</g>
<!-- Node23&#45;&gt;Node4 -->
<g id="edge25" class="edge">
<title>Node23&#45;&gt;Node4</title>
<path fill="none" stroke="#9a32cd" stroke-dasharray="5,2" d="M1400.26,-205.33C1460.95,-200.76 1537.64,-194.98 1587.36,-191.24"/>
<polygon fill="#9a32cd" stroke="#9a32cd" points="1399.99,-201.84 1390.28,-206.08 1400.51,-208.82 1399.99,-201.84"/>
<text text-anchor="start" x="1408" y="-217.39" font-family="Helvetica,sans-Serif" font-size="10.00"> m_CachedInputReleaseData</text>
<text text-anchor="middle" x="1479" y="-206.39" font-family="Helvetica,sans-Serif" font-size="10.00">Flags</text>
</g>
<!-- Node24&#45;&gt;Node4 -->
<g id="edge27" class="edge">
<title>Node24&#45;&gt;Node4</title>
<path fill="none" stroke="#9a32cd" stroke-dasharray="5,2" d="M1396.81,-256.27C1443.3,-251.95 1500.47,-244 1550,-229.39 1576.43,-221.59 1604.85,-206.84 1622.15,-197.06"/>
<polygon fill="#9a32cd" stroke="#9a32cd" points="1396.41,-252.79 1386.76,-257.16 1397.03,-259.76 1396.41,-252.79"/>
<text text-anchor="middle" x="1479" y="-257.39" font-family="Helvetica,sans-Serif" font-size="10.00"> m_RequiredInputNames</text>
</g>
<!-- Node25 -->
<g id="node25" class="node">
<title>Node25</title>
<g id="a_node25"><a xlink:title=" ">
<polygon fill="white" stroke="black" points="1238.5,-60.89 1238.5,-79.89 1372.5,-79.89 1372.5,-60.89 1238.5,-60.89"/>
<text text-anchor="middle" x="1305.5" y="-67.89" font-family="Helvetica,sans-Serif" font-size="10.00">std::atomic&lt; uint32_t &gt;</text>
</a>
</g>
</g>
<!-- Node25&#45;&gt;Node4 -->
<g id="edge29" class="edge">
<title>Node25&#45;&gt;Node4</title>
<path fill="none" stroke="#9a32cd" stroke-dasharray="5,2" d="M1351.95,-58.7C1405.89,-47.79 1495.38,-39.42 1550,-86.39 1578.29,-110.71 1542.25,-141.39 1568,-168.39 1573.34,-173.98 1580.13,-177.99 1587.39,-180.85"/>
<polygon fill="#9a32cd" stroke="#9a32cd" points="1351.03,-55.32 1341.98,-60.83 1352.49,-62.17 1351.03,-55.32"/>
<text text-anchor="middle" x="1479" y="-89.39" font-family="Helvetica,sans-Serif" font-size="10.00"> m_Progress</text>
</g>
<!-- Node26 -->
<g id="node26" class="node">
<title>Node26</title>
<g id="a_node26"><a xlink:title=" ">
<polygon fill="white" stroke="black" points="952.5,-56.89 952.5,-75.89 1008.5,-75.89 1008.5,-56.89 952.5,-56.89"/>
<text text-anchor="middle" x="980.5" y="-63.89" font-family="Helvetica,sans-Serif" font-size="10.00">uint32_t</text>
</a>
</g>
</g>
<!-- Node26&#45;&gt;Node25 -->
<g id="edge30" class="edge">
<title>Node26&#45;&gt;Node25</title>
<path fill="none" stroke="#9a32cd" stroke-dasharray="5,2" d="M1018.85,-66.85C1072.45,-67.51 1172.04,-68.75 1238.31,-69.57"/>
<polygon fill="#9a32cd" stroke="#9a32cd" points="1018.8,-63.35 1008.76,-66.73 1018.72,-70.35 1018.8,-63.35"/>
<text text-anchor="middle" x="1136.5" y="-71.39" font-family="Helvetica,sans-Serif" font-size="10.00"> ptr</text>
</g>
<!-- Node27 -->
<g id="node27" class="node">
<title>Node27</title>
<g id="a_node27"><a xlink:href="classitk_1_1SmartPointer.html" target="_top" xlink:title=" ">
<polygon fill="white" stroke="black" points="1234.5,-11.39 1234.5,-41.39 1376.5,-41.39 1376.5,-11.39 1234.5,-11.39"/>
<text text-anchor="start" x="1242.5" y="-29.39" font-family="Helvetica,sans-Serif" font-size="10.00">itk::SmartPointer&lt;</text>
<text text-anchor="middle" x="1305.5" y="-18.39" font-family="Helvetica,sans-Serif" font-size="10.00"> itk::MultiThreaderBase &gt;</text>
</a>
</g>
</g>
<!-- Node27&#45;&gt;Node4 -->
<g id="edge31" class="edge">
<title>Node27&#45;&gt;Node4</title>
<path fill="none" stroke="#9a32cd" stroke-dasharray="5,2" d="M1366.77,-9.1C1421.59,2.6 1501.18,8.89 1550,-35.39 1594.19,-75.46 1528.62,-123.58 1568,-168.39 1573.19,-174.29 1580,-178.45 1587.34,-181.36"/>
<polygon fill="#9a32cd" stroke="#9a32cd" points="1365.82,-5.72 1356.83,-11.33 1367.36,-12.55 1365.82,-5.72"/>
<text text-anchor="middle" x="1479" y="-38.39" font-family="Helvetica,sans-Serif" font-size="10.00"> m_MultiThreader</text>
</g>
<!-- Node28 -->
<g id="node28" class="node">
<title>Node28</title>
<g id="a_node28"><a xlink:href="structitk_1_1ImageSourceCommon.html" target="_top" xlink:title="Secondary base class of ImageSource common between templates.">
<polygon fill="white" stroke="black" points="1568,-139.89 1568,-158.89 1711,-158.89 1711,-139.89 1568,-139.89"/>
<text text-anchor="middle" x="1639.5" y="-146.89" font-family="Helvetica,sans-Serif" font-size="10.00">itk::ImageSourceCommon</text>
</a>
</g>
</g>
<!-- Node28&#45;&gt;Node3 -->
<g id="edge32" class="edge">
<title>Node28&#45;&gt;Node3</title>
<path fill="none" stroke="#8b1a1a" d="M1721.28,-156.03C1735.89,-157.23 1751,-158.48 1765.26,-159.65"/>
<polygon fill="#8b1a1a" stroke="#8b1a1a" points="1721.52,-152.54 1711.27,-155.21 1720.95,-159.52 1721.52,-152.54"/>
</g>
<!-- Node29 -->
<g id="node29" class="node">
<title>Node29</title>
<g id="a_node29"><a xlink:href="classitk_1_1ImageToImageFilterCommon.html" target="_top" xlink:title="Secondary base class of ImageToImageFilter common between templates.">
<polygon fill="white" stroke="black" points="1748,-111.89 1748,-130.89 1924,-130.89 1924,-111.89 1748,-111.89"/>
<text text-anchor="middle" x="1836" y="-118.89" font-family="Helvetica,sans-Serif" font-size="10.00">itk::ImageToImageFilterCommon</text>
</a>
</g>
</g>
<!-- Node29&#45;&gt;Node2 -->
<g id="edge33" class="edge">
<title>Node29&#45;&gt;Node2</title>
<path fill="none" stroke="#8b1a1a" d="M1934.11,-122.53C1958.73,-122.82 1984.94,-123.13 2008.79,-123.41"/>
<polygon fill="#8b1a1a" stroke="#8b1a1a" points="1934.08,-119.03 1924.04,-122.41 1934,-126.03 1934.08,-119.03"/>
</g>
<!-- Node30 -->
<g id="node30" class="node">
<title>Node30</title>
<g id="a_node30"><a xlink:href="classitk_1_1Array.html" target="_top" xlink:title=" ">
<polygon fill="white" stroke="black" points="2020,-70.89 2020,-89.89 2166,-89.89 2166,-70.89 2020,-70.89"/>
<text text-anchor="middle" x="2093" y="-77.89" font-family="Helvetica,sans-Serif" font-size="10.00">itk::Array&lt; WeightsType &gt;</text>
</a>
</g>
</g>
<!-- Node30&#45;&gt;Node1 -->
<g id="edge34" class="edge">
<title>Node30&#45;&gt;Node1</title>
<path fill="none" stroke="#9a32cd" stroke-dasharray="5,2" d="M2176.69,-81.26C2235.4,-81.89 2314.4,-82.72 2375.83,-83.37"/>
<polygon fill="#9a32cd" stroke="#9a32cd" points="2176.38,-77.76 2166.34,-81.15 2176.3,-84.76 2176.38,-77.76"/>
<text text-anchor="middle" x="2276.5" y="-85.39" font-family="Helvetica,sans-Serif" font-size="10.00"> m_PriorProbabilities</text>
</g>
<!-- Node31 -->
<g id="node31" class="node">
<title>Node31</title>
<g id="a_node31"><a xlink:title=" ">
<polygon fill="white" stroke="black" points="1760,-70.89 1760,-89.89 1912,-89.89 1912,-70.89 1760,-70.89"/>
<text text-anchor="middle" x="1836" y="-77.89" font-family="Helvetica,sans-Serif" font-size="10.00">vnl_vector&lt; WeightsType &gt;</text>
</a>
</g>
</g>
<!-- Node31&#45;&gt;Node30 -->
<g id="edge35" class="edge">
<title>Node31&#45;&gt;Node30</title>
<path fill="none" stroke="midnightblue" d="M1922.23,-80.39C1953.8,-80.39 1989.28,-80.39 2019.6,-80.39"/>
<polygon fill="midnightblue" stroke="midnightblue" points="1922.13,-76.89 1912.13,-80.39 1922.13,-83.89 1922.13,-76.89"/>
</g>
<!-- Node32 -->
<g id="node32" class="node">
<title>Node32</title>
<g id="a_node32"><a xlink:title=" ">
<polygon fill="white" stroke="black" points="2018.5,-29.89 2018.5,-48.89 2167.5,-48.89 2167.5,-29.89 2018.5,-29.89"/>
<text text-anchor="middle" x="2093" y="-36.89" font-family="Helvetica,sans-Serif" font-size="10.00">std::vector&lt; itk::Array2D &gt;</text>
</a>
</g>
</g>
<!-- Node32&#45;&gt;Node1 -->
<g id="edge36" class="edge">
<title>Node32&#45;&gt;Node1</title>
<path fill="none" stroke="#9a32cd" stroke-dasharray="5,2" d="M2177.72,-40.41C2229.85,-42.05 2298.14,-46.01 2358,-55.39 2371.56,-57.51 2385.86,-60.53 2399.57,-63.83"/>
<polygon fill="#9a32cd" stroke="#9a32cd" points="2177.62,-36.91 2167.52,-40.12 2177.41,-43.91 2177.62,-36.91"/>
<text text-anchor="middle" x="2276.5" y="-69.39" font-family="Helvetica,sans-Serif" font-size="10.00"> m_ConfusionMatrixArray</text>
<text text-anchor="middle" x="2276.5" y="-58.39" font-family="Helvetica,sans-Serif" font-size="10.00">m_UpdatedConfusionMatrixArray</text>
</g>
<!-- Node33 -->
<g id="node33" class="node">
<title>Node33</title>
<g id="a_node33"><a xlink:href="classitk_1_1Array2D.html" target="_top" xlink:title="Array2D class representing a 2D array with size defined at construction time.">
<polygon fill="white" stroke="black" points="1770.5,-29.89 1770.5,-48.89 1901.5,-48.89 1901.5,-29.89 1770.5,-29.89"/>
<text text-anchor="middle" x="1836" y="-36.89" font-family="Helvetica,sans-Serif" font-size="10.00">itk::Array2D&lt; TValue &gt;</text>
</a>
</g>
</g>
<!-- Node33&#45;&gt;Node32 -->
<g id="edge37" class="edge">
<title>Node33&#45;&gt;Node32</title>
<path fill="none" stroke="#9a32cd" stroke-dasharray="5,2" d="M1911.89,-39.39C1945.47,-39.39 1984.95,-39.39 2018.37,-39.39"/>
<polygon fill="#9a32cd" stroke="#9a32cd" points="1911.68,-35.89 1901.68,-39.39 1911.68,-42.89 1911.68,-35.89"/>
<text text-anchor="middle" x="1966.5" y="-42.39" font-family="Helvetica,sans-Serif" font-size="10.00"> elements</text>
</g>
<!-- Node34 -->
<g id="node34" class="node">
<title>Node34</title>
<g id="a_node34"><a xlink:title=" ">
<polygon fill="white" stroke="black" points="1577,-29.89 1577,-48.89 1702,-48.89 1702,-29.89 1577,-29.89"/>
<text text-anchor="middle" x="1639.5" y="-36.89" font-family="Helvetica,sans-Serif" font-size="10.00">vnl_matrix&lt; TValue &gt;</text>
</a>
</g>
</g>
<!-- Node34&#45;&gt;Node33 -->
<g id="edge38" class="edge">
<title>Node34&#45;&gt;Node33</title>
<path fill="none" stroke="midnightblue" d="M1712.13,-39.39C1731.14,-39.39 1751.55,-39.39 1770.17,-39.39"/>
<polygon fill="midnightblue" stroke="midnightblue" points="1712.04,-35.89 1702.04,-39.39 1712.04,-42.89 1712.04,-35.89"/>
</g>
</g>
</svg>
