<?xml version="1.0" encoding="UTF-8" standalone="no"?>
<!DOCTYPE svg PUBLIC "-//W3C//DTD SVG 1.1//EN"
 "http://www.w3.org/Graphics/SVG/1.1/DTD/svg11.dtd">
<!-- Generated by graphviz version 2.43.0 (0)
 -->
<!-- Title: itk::LevelSetEquationChanAndVeseInternalTerm&lt; TInput, TLevelSetContainer &gt; Pages: 1 -->
<svg width="344pt" height="389pt"
 viewBox="0.00 0.00 343.50 389.00" xmlns="http://www.w3.org/2000/svg" xmlns:xlink="http://www.w3.org/1999/xlink">
<g id="graph0" class="graph" transform="scale(1 1) rotate(0) translate(4 385)">
<title>itk::LevelSetEquationChanAndVeseInternalTerm&lt; TInput, TLevelSetContainer &gt;</title>
<polygon fill="white" stroke="transparent" points="-4,4 -4,-385 339.5,-385 339.5,4 -4,4"/>
<!-- Node1 -->
<g id="node1" class="node">
<title>Node1</title>
<g id="a_node1"><a xlink:title="Class to represent the internal energy Chan And Vese term.">
<polygon fill="#bfbfbf" stroke="black" points="15,-79.5 15,-120.5 180,-120.5 180,-79.5 15,-79.5"/>
<text text-anchor="start" x="23" y="-108.5" font-family="Helvetica,sans-Serif" font-size="10.00">itk::LevelSetEquationChan</text>
<text text-anchor="start" x="23" y="-97.5" font-family="Helvetica,sans-Serif" font-size="10.00">AndVeseInternalTerm&lt; TInput,</text>
<text text-anchor="middle" x="97.5" y="-86.5" font-family="Helvetica,sans-Serif" font-size="10.00"> TLevelSetContainer &gt;</text>
</a>
</g>
</g>
<!-- Node6 -->
<g id="node6" class="node">
<title>Node6</title>
<g id="a_node6"><a xlink:href="classitk_1_1LevelSetEquationChanAndVeseExternalTerm.html" target="_top" xlink:title="Class to represent the external energy Chan And Vese term.">
<polygon fill="white" stroke="black" points="13.5,-0.5 13.5,-41.5 181.5,-41.5 181.5,-0.5 13.5,-0.5"/>
<text text-anchor="start" x="21.5" y="-29.5" font-family="Helvetica,sans-Serif" font-size="10.00">itk::LevelSetEquationChan</text>
<text text-anchor="start" x="21.5" y="-18.5" font-family="Helvetica,sans-Serif" font-size="10.00">AndVeseExternalTerm&lt; TInput,</text>
<text text-anchor="middle" x="97.5" y="-7.5" font-family="Helvetica,sans-Serif" font-size="10.00"> TLevelSetContainer &gt;</text>
</a>
</g>
</g>
<!-- Node1&#45;&gt;Node6 -->
<g id="edge6" class="edge">
<title>Node1&#45;&gt;Node6</title>
<path fill="none" stroke="midnightblue" d="M97.5,-68.91C97.5,-59.79 97.5,-50.02 97.5,-41.76"/>
<polygon fill="midnightblue" stroke="midnightblue" points="94,-69.17 97.5,-79.17 101,-69.17 94,-69.17"/>
</g>
<!-- Node2 -->
<g id="node2" class="node">
<title>Node2</title>
<g id="a_node2"><a xlink:href="classitk_1_1LevelSetEquationTermBase.html" target="_top" xlink:title=" ">
<polygon fill="white" stroke="black" points="0,-158.5 0,-188.5 195,-188.5 195,-158.5 0,-158.5"/>
<text text-anchor="start" x="8" y="-176.5" font-family="Helvetica,sans-Serif" font-size="10.00">itk::LevelSetEquationTerm</text>
<text text-anchor="middle" x="97.5" y="-165.5" font-family="Helvetica,sans-Serif" font-size="10.00">Base&lt; TInput, TLevelSetContainer &gt;</text>
</a>
</g>
</g>
<!-- Node2&#45;&gt;Node1 -->
<g id="edge1" class="edge">
<title>Node2&#45;&gt;Node1</title>
<path fill="none" stroke="midnightblue" d="M97.5,-148.1C97.5,-139.1 97.5,-129.02 97.5,-120.51"/>
<polygon fill="midnightblue" stroke="midnightblue" points="94,-148.37 97.5,-158.37 101,-148.37 94,-148.37"/>
</g>
<!-- Node3 -->
<g id="node3" class="node">
<title>Node3</title>
<g id="a_node3"><a xlink:href="classitk_1_1Object.html" target="_top" xlink:title="Base class for most ITK classes.">
<polygon fill="white" stroke="black" points="60,-304.5 60,-323.5 127,-323.5 127,-304.5 60,-304.5"/>
<text text-anchor="middle" x="93.5" y="-311.5" font-family="Helvetica,sans-Serif" font-size="10.00">itk::Object</text>
</a>
</g>
</g>
<!-- Node3&#45;&gt;Node2 -->
<g id="edge2" class="edge">
<title>Node3&#45;&gt;Node2</title>
<path fill="none" stroke="midnightblue" d="M94.04,-294.25C94.85,-266.19 96.36,-213.88 97.09,-188.73"/>
<polygon fill="midnightblue" stroke="midnightblue" points="90.54,-294.24 93.75,-304.34 97.54,-294.44 90.54,-294.24"/>
</g>
<!-- Node5 -->
<g id="node5" class="node">
<title>Node5</title>
<g id="a_node5"><a xlink:href="classitk_1_1LevelSetEquationTermBase.html" target="_top" xlink:title="Abstract class to represents a term in the level&#45;set evolution PDE.">
<polygon fill="white" stroke="black" points="109.5,-236.5 109.5,-266.5 335.5,-266.5 335.5,-236.5 109.5,-236.5"/>
<text text-anchor="start" x="117.5" y="-254.5" font-family="Helvetica,sans-Serif" font-size="10.00">itk::LevelSetEquationTerm</text>
<text text-anchor="middle" x="222.5" y="-243.5" font-family="Helvetica,sans-Serif" font-size="10.00">Base&lt; TInputImage, TLevelSetContainer &gt;</text>
</a>
</g>
</g>
<!-- Node3&#45;&gt;Node5 -->
<g id="edge5" class="edge">
<title>Node3&#45;&gt;Node5</title>
<path fill="none" stroke="midnightblue" d="M121.03,-300.09C142.01,-290.25 170.88,-276.71 192.46,-266.59"/>
<polygon fill="midnightblue" stroke="midnightblue" points="119.28,-297.05 111.71,-304.46 122.25,-303.38 119.28,-297.05"/>
</g>
<!-- Node4 -->
<g id="node4" class="node">
<title>Node4</title>
<g id="a_node4"><a xlink:href="classitk_1_1LightObject.html" target="_top" xlink:title="Light weight base class for most itk classes.">
<polygon fill="white" stroke="black" points="48,-361.5 48,-380.5 139,-380.5 139,-361.5 48,-361.5"/>
<text text-anchor="middle" x="93.5" y="-368.5" font-family="Helvetica,sans-Serif" font-size="10.00">itk::LightObject</text>
</a>
</g>
</g>
<!-- Node4&#45;&gt;Node3 -->
<g id="edge3" class="edge">
<title>Node4&#45;&gt;Node3</title>
<path fill="none" stroke="midnightblue" d="M93.5,-351.12C93.5,-341.82 93.5,-331.06 93.5,-323.71"/>
<polygon fill="midnightblue" stroke="midnightblue" points="90,-351.41 93.5,-361.41 97,-351.41 90,-351.41"/>
</g>
<!-- Node5&#45;&gt;Node2 -->
<g id="edge4" class="edge">
<title>Node5&#45;&gt;Node2</title>
<path fill="none" stroke="orange" stroke-dasharray="5,2" d="M190.67,-231.14C168.8,-217.85 140.29,-200.52 120.59,-188.54"/>
<polygon fill="orange" stroke="orange" points="188.92,-234.18 199.28,-236.38 192.56,-228.2 188.92,-234.18"/>
<text text-anchor="middle" x="245.5" y="-210" font-family="Helvetica,sans-Serif" font-size="10.00"> &lt; TInput, TLevelSetContainer &gt;</text>
</g>
</g>
</svg>
