<?xml version="1.0" encoding="UTF-8" standalone="no"?>
<!DOCTYPE svg PUBLIC "-//W3C//DTD SVG 1.1//EN"
 "http://www.w3.org/Graphics/SVG/1.1/DTD/svg11.dtd">
<!-- Generated by graphviz version 2.43.0 (0)
 -->
<!-- Title: itk::KullbackLeiblerCompareHistogramImageToImageMetric&lt; TFixedImage, TMovingImage &gt; Pages: 1 -->
<svg width="320pt" height="571pt"
 viewBox="0.00 0.00 320.00 571.00" xmlns="http://www.w3.org/2000/svg" xmlns:xlink="http://www.w3.org/1999/xlink">
<g id="graph0" class="graph" transform="scale(1 1) rotate(0) translate(4 567)">
<title>itk::KullbackLeiblerCompareHistogramImageToImageMetric&lt; TFixedImage, TMovingImage &gt;</title>
<polygon fill="white" stroke="transparent" points="-4,4 -4,-567 316,-567 316,4 -4,4"/>
<!-- Node1 -->
<g id="node1" class="node">
<title>Node1</title>
<g id="a_node1"><a xlink:title="Computes the Kubler Lieblach(KL) metric between the histogram of the two images to be registered and ...">
<polygon fill="#bfbfbf" stroke="black" points="15.5,-0.5 15.5,-41.5 195.5,-41.5 195.5,-0.5 15.5,-0.5"/>
<text text-anchor="start" x="23.5" y="-29.5" font-family="Helvetica,sans-Serif" font-size="10.00">itk::KullbackLeiblerCompare</text>
<text text-anchor="start" x="23.5" y="-18.5" font-family="Helvetica,sans-Serif" font-size="10.00">HistogramImageToImageMetric</text>
<text text-anchor="middle" x="105.5" y="-7.5" font-family="Helvetica,sans-Serif" font-size="10.00">&lt; TFixedImage, TMovingImage &gt;</text>
</a>
</g>
</g>
<!-- Node2 -->
<g id="node2" class="node">
<title>Node2</title>
<g id="a_node2"><a xlink:href="classitk_1_1CompareHistogramImageToImageMetric.html" target="_top" xlink:title="Compares Histograms between two images to be registered to a Training Histogram.">
<polygon fill="white" stroke="black" points="23,-79.5 23,-120.5 188,-120.5 188,-79.5 23,-79.5"/>
<text text-anchor="start" x="31" y="-108.5" font-family="Helvetica,sans-Serif" font-size="10.00">itk::CompareHistogramImage</text>
<text text-anchor="start" x="31" y="-97.5" font-family="Helvetica,sans-Serif" font-size="10.00">ToImageMetric&lt; TFixedImage,</text>
<text text-anchor="middle" x="105.5" y="-86.5" font-family="Helvetica,sans-Serif" font-size="10.00"> TMovingImage &gt;</text>
</a>
</g>
</g>
<!-- Node2&#45;&gt;Node1 -->
<g id="edge1" class="edge">
<title>Node2&#45;&gt;Node1</title>
<path fill="none" stroke="midnightblue" d="M105.5,-68.91C105.5,-59.79 105.5,-50.02 105.5,-41.76"/>
<polygon fill="midnightblue" stroke="midnightblue" points="102,-69.17 105.5,-79.17 109,-69.17 102,-69.17"/>
</g>
<!-- Node3 -->
<g id="node3" class="node">
<title>Node3</title>
<g id="a_node3"><a xlink:href="classitk_1_1HistogramImageToImageMetric.html" target="_top" xlink:title="Computes similarity between two objects to be registered.">
<polygon fill="white" stroke="black" points="0,-158.5 0,-188.5 211,-188.5 211,-158.5 0,-158.5"/>
<text text-anchor="start" x="8" y="-176.5" font-family="Helvetica,sans-Serif" font-size="10.00">itk::HistogramImageToImage</text>
<text text-anchor="middle" x="105.5" y="-165.5" font-family="Helvetica,sans-Serif" font-size="10.00">Metric&lt; TFixedImage, TMovingImage &gt;</text>
</a>
</g>
</g>
<!-- Node3&#45;&gt;Node2 -->
<g id="edge2" class="edge">
<title>Node3&#45;&gt;Node2</title>
<path fill="none" stroke="midnightblue" d="M105.5,-148.1C105.5,-139.1 105.5,-129.02 105.5,-120.51"/>
<polygon fill="midnightblue" stroke="midnightblue" points="102,-148.37 105.5,-158.37 109,-148.37 102,-148.37"/>
</g>
<!-- Node4 -->
<g id="node4" class="node">
<title>Node4</title>
<g id="a_node4"><a xlink:href="classitk_1_1ImageToImageMetric.html" target="_top" xlink:title="Computes similarity between regions of two images.">
<polygon fill="white" stroke="black" points="15.5,-226.5 15.5,-256.5 195.5,-256.5 195.5,-226.5 15.5,-226.5"/>
<text text-anchor="start" x="23.5" y="-244.5" font-family="Helvetica,sans-Serif" font-size="10.00">itk::ImageToImageMetric</text>
<text text-anchor="middle" x="105.5" y="-233.5" font-family="Helvetica,sans-Serif" font-size="10.00">&lt; TFixedImage, TMovingImage &gt;</text>
</a>
</g>
</g>
<!-- Node4&#45;&gt;Node3 -->
<g id="edge3" class="edge">
<title>Node4&#45;&gt;Node3</title>
<path fill="none" stroke="midnightblue" d="M105.5,-216.03C105.5,-206.86 105.5,-196.74 105.5,-188.79"/>
<polygon fill="midnightblue" stroke="midnightblue" points="102,-216.18 105.5,-226.18 109,-216.18 102,-216.18"/>
</g>
<!-- Node5 -->
<g id="node5" class="node">
<title>Node5</title>
<g id="a_node5"><a xlink:href="classitk_1_1SingleValuedCostFunction.html" target="_top" xlink:title="This class is a base for the CostFunctions returning a single value.">
<polygon fill="white" stroke="black" points="25,-294.5 25,-313.5 186,-313.5 186,-294.5 25,-294.5"/>
<text text-anchor="middle" x="105.5" y="-301.5" font-family="Helvetica,sans-Serif" font-size="10.00">itk::SingleValuedCostFunction</text>
</a>
</g>
</g>
<!-- Node5&#45;&gt;Node4 -->
<g id="edge4" class="edge">
<title>Node5&#45;&gt;Node4</title>
<path fill="none" stroke="midnightblue" d="M105.5,-284.22C105.5,-275.36 105.5,-264.96 105.5,-256.76"/>
<polygon fill="midnightblue" stroke="midnightblue" points="102,-284.33 105.5,-294.33 109,-284.33 102,-284.33"/>
</g>
<!-- Node6 -->
<g id="node6" class="node">
<title>Node6</title>
<g id="a_node6"><a xlink:href="classitk_1_1CostFunctionTemplate.html" target="_top" xlink:title=" ">
<polygon fill="white" stroke="black" points="65.5,-351.5 65.5,-370.5 145.5,-370.5 145.5,-351.5 65.5,-351.5"/>
<text text-anchor="middle" x="105.5" y="-358.5" font-family="Helvetica,sans-Serif" font-size="10.00">CostFunction</text>
</a>
</g>
</g>
<!-- Node6&#45;&gt;Node5 -->
<g id="edge5" class="edge">
<title>Node6&#45;&gt;Node5</title>
<path fill="none" stroke="midnightblue" d="M105.5,-341.12C105.5,-331.82 105.5,-321.06 105.5,-313.71"/>
<polygon fill="midnightblue" stroke="midnightblue" points="102,-341.41 105.5,-351.41 109,-341.41 102,-341.41"/>
</g>
<!-- Node7 -->
<g id="node7" class="node">
<title>Node7</title>
<g id="a_node7"><a xlink:href="classitk_1_1Object.html" target="_top" xlink:title="Base class for most ITK classes.">
<polygon fill="white" stroke="black" points="68,-486.5 68,-505.5 135,-505.5 135,-486.5 68,-486.5"/>
<text text-anchor="middle" x="101.5" y="-493.5" font-family="Helvetica,sans-Serif" font-size="10.00">itk::Object</text>
</a>
</g>
</g>
<!-- Node7&#45;&gt;Node6 -->
<g id="edge6" class="edge">
<title>Node7&#45;&gt;Node6</title>
<path fill="none" stroke="midnightblue" d="M102.07,-476.13C102.95,-446.88 104.6,-391.76 105.24,-370.59"/>
<polygon fill="midnightblue" stroke="midnightblue" points="98.56,-476.17 101.76,-486.27 105.56,-476.38 98.56,-476.17"/>
</g>
<!-- Node9 -->
<g id="node9" class="node">
<title>Node9</title>
<g id="a_node9"><a xlink:href="classitk_1_1CostFunctionTemplate.html" target="_top" xlink:title=" ">
<polygon fill="white" stroke="black" points="117,-418.5 117,-448.5 312,-448.5 312,-418.5 117,-418.5"/>
<text text-anchor="start" x="125" y="-436.5" font-family="Helvetica,sans-Serif" font-size="10.00">itk::CostFunctionTemplate</text>
<text text-anchor="middle" x="214.5" y="-425.5" font-family="Helvetica,sans-Serif" font-size="10.00">&lt; TInternalComputationValueType &gt;</text>
</a>
</g>
</g>
<!-- Node7&#45;&gt;Node9 -->
<g id="edge9" class="edge">
<title>Node7&#45;&gt;Node9</title>
<path fill="none" stroke="midnightblue" d="M126.62,-481.55C144.95,-471.74 169.73,-458.47 188.3,-448.53"/>
<polygon fill="midnightblue" stroke="midnightblue" points="124.85,-478.53 117.69,-486.33 128.16,-484.7 124.85,-478.53"/>
</g>
<!-- Node8 -->
<g id="node8" class="node">
<title>Node8</title>
<g id="a_node8"><a xlink:href="classitk_1_1LightObject.html" target="_top" xlink:title="Light weight base class for most itk classes.">
<polygon fill="white" stroke="black" points="56,-543.5 56,-562.5 147,-562.5 147,-543.5 56,-543.5"/>
<text text-anchor="middle" x="101.5" y="-550.5" font-family="Helvetica,sans-Serif" font-size="10.00">itk::LightObject</text>
</a>
</g>
</g>
<!-- Node8&#45;&gt;Node7 -->
<g id="edge7" class="edge">
<title>Node8&#45;&gt;Node7</title>
<path fill="none" stroke="midnightblue" d="M101.5,-533.12C101.5,-523.82 101.5,-513.06 101.5,-505.71"/>
<polygon fill="midnightblue" stroke="midnightblue" points="98,-533.41 101.5,-543.41 105,-533.41 98,-533.41"/>
</g>
<!-- Node9&#45;&gt;Node6 -->
<g id="edge8" class="edge">
<title>Node9&#45;&gt;Node6</title>
<path fill="none" stroke="orange" stroke-dasharray="5,2" d="M184.21,-412.91C162.69,-398.99 134.84,-380.98 118.69,-370.53"/>
<polygon fill="orange" stroke="orange" points="182.41,-415.91 192.7,-418.4 186.21,-410.03 182.41,-415.91"/>
<text text-anchor="middle" x="192" y="-392" font-family="Helvetica,sans-Serif" font-size="10.00"> &lt; double &gt;</text>
</g>
</g>
</svg>
