<?xml version="1.0" encoding="UTF-8" standalone="no"?>
<!DOCTYPE svg PUBLIC "-//W3C//DTD SVG 1.1//EN"
 "http://www.w3.org/Graphics/SVG/1.1/DTD/svg11.dtd">
<!-- Generated by graphviz version 2.43.0 (0)
 -->
<!-- Title: itk::ResourceProbe&lt; ValueType, MeanType &gt; Pages: 1 -->
<svg width="276pt" height="273pt"
 viewBox="0.00 0.00 276.00 273.00" xmlns="http://www.w3.org/2000/svg" xmlns:xlink="http://www.w3.org/1999/xlink">
<g id="graph0" class="graph" transform="scale(1 1) rotate(0) translate(4 269)">
<title>itk::ResourceProbe&lt; ValueType, MeanType &gt;</title>
<polygon fill="white" stroke="transparent" points="-4,4 -4,-269 272,-269 272,4 -4,4"/>
<!-- Node1 -->
<g id="node1" class="node">
<title>Node1</title>
<g id="a_node1"><a xlink:title="Computes the change of a value between two points in code.">
<polygon fill="#bfbfbf" stroke="black" points="58,-0.5 58,-30.5 202,-30.5 202,-0.5 58,-0.5"/>
<text text-anchor="start" x="66" y="-18.5" font-family="Helvetica,sans-Serif" font-size="10.00">itk::ResourceProbe</text>
<text text-anchor="middle" x="130" y="-7.5" font-family="Helvetica,sans-Serif" font-size="10.00">&lt; ValueType, MeanType &gt;</text>
</a>
</g>
</g>
<!-- Node2 -->
<g id="node2" class="node">
<title>Node2</title>
<g id="a_node2"><a xlink:title=" ">
<polygon fill="white" stroke="#bfbfbf" points="0,-100.5 0,-119.5 140,-119.5 140,-100.5 0,-100.5"/>
<text text-anchor="middle" x="70" y="-107.5" font-family="Helvetica,sans-Serif" font-size="10.00">std::vector&lt; ValueType &gt;</text>
</a>
</g>
</g>
<!-- Node2&#45;&gt;Node1 -->
<g id="edge1" class="edge">
<title>Node2&#45;&gt;Node1</title>
<path fill="none" stroke="#9a32cd" stroke-dasharray="5,2" d="M67.72,-90.24C67.14,-77.64 68.28,-61.19 76,-49 80.8,-41.42 88.06,-35.36 95.72,-30.63"/>
<polygon fill="#9a32cd" stroke="#9a32cd" points="64.26,-90.82 68.61,-100.49 71.23,-90.22 64.26,-90.82"/>
<text text-anchor="middle" x="121.5" y="-63" font-family="Helvetica,sans-Serif" font-size="10.00"> m_ProbeValueList</text>
</g>
<!-- Node3 -->
<g id="node3" class="node">
<title>Node3</title>
<g id="a_node3"><a xlink:title="STL class.">
<polygon fill="white" stroke="#bfbfbf" points="21.5,-173 21.5,-192 118.5,-192 118.5,-173 21.5,-173"/>
<text text-anchor="middle" x="70" y="-180" font-family="Helvetica,sans-Serif" font-size="10.00">std::vector&lt; T &gt;</text>
</a>
</g>
</g>
<!-- Node3&#45;&gt;Node2 -->
<g id="edge2" class="edge">
<title>Node3&#45;&gt;Node2</title>
<path fill="none" stroke="orange" stroke-dasharray="5,2" d="M70,-162.44C70,-148.53 70,-130.32 70,-119.72"/>
<polygon fill="orange" stroke="orange" points="66.5,-162.86 70,-172.86 73.5,-162.86 66.5,-162.86"/>
<text text-anchor="middle" x="108" y="-141" font-family="Helvetica,sans-Serif" font-size="10.00"> &lt; ValueType &gt;</text>
</g>
<!-- Node4 -->
<g id="node4" class="node">
<title>Node4</title>
<g id="a_node4"><a xlink:title=" ">
<polygon fill="white" stroke="#bfbfbf" points="55.5,-245.5 55.5,-264.5 84.5,-264.5 84.5,-245.5 55.5,-245.5"/>
<text text-anchor="middle" x="70" y="-252.5" font-family="Helvetica,sans-Serif" font-size="10.00">T</text>
</a>
</g>
</g>
<!-- Node4&#45;&gt;Node3 -->
<g id="edge3" class="edge">
<title>Node4&#45;&gt;Node3</title>
<path fill="none" stroke="#9a32cd" stroke-dasharray="5,2" d="M70,-234.94C70,-221.03 70,-202.82 70,-192.22"/>
<polygon fill="#9a32cd" stroke="#9a32cd" points="66.5,-235.36 70,-245.36 73.5,-235.36 66.5,-235.36"/>
<text text-anchor="middle" x="94.5" y="-219" font-family="Helvetica,sans-Serif" font-size="10.00"> elements</text>
</g>
<!-- Node5 -->
<g id="node5" class="node">
<title>Node5</title>
<g id="a_node5"><a xlink:title="STL class.">
<polygon fill="white" stroke="#bfbfbf" points="158.5,-100.5 158.5,-119.5 223.5,-119.5 223.5,-100.5 158.5,-100.5"/>
<text text-anchor="middle" x="191" y="-107.5" font-family="Helvetica,sans-Serif" font-size="10.00">std::string</text>
</a>
</g>
</g>
<!-- Node5&#45;&gt;Node1 -->
<g id="edge4" class="edge">
<title>Node5&#45;&gt;Node1</title>
<path fill="none" stroke="#9a32cd" stroke-dasharray="5,2" d="M186.07,-90.48C182.18,-78.01 175.91,-61.61 167,-49 162.16,-42.16 155.61,-35.79 149.36,-30.54"/>
<polygon fill="#9a32cd" stroke="#9a32cd" points="182.75,-91.59 188.88,-100.23 189.47,-89.65 182.75,-91.59"/>
<text text-anchor="middle" x="226" y="-74" font-family="Helvetica,sans-Serif" font-size="10.00"> m_TypeString</text>
<text text-anchor="middle" x="226" y="-63" font-family="Helvetica,sans-Serif" font-size="10.00">m_UnitString</text>
<text text-anchor="middle" x="226" y="-52" font-family="Helvetica,sans-Serif" font-size="10.00">m_NameOfProbe</text>
</g>
<!-- Node6 -->
<g id="node6" class="node">
<title>Node6</title>
<g id="a_node6"><a xlink:title="STL class.">
<polygon fill="white" stroke="#bfbfbf" points="139,-167.5 139,-197.5 243,-197.5 243,-167.5 139,-167.5"/>
<text text-anchor="start" x="147" y="-185.5" font-family="Helvetica,sans-Serif" font-size="10.00">std::basic_string&lt;</text>
<text text-anchor="middle" x="191" y="-174.5" font-family="Helvetica,sans-Serif" font-size="10.00"> char &gt;</text>
</a>
</g>
</g>
<!-- Node6&#45;&gt;Node5 -->
<g id="edge5" class="edge">
<title>Node6&#45;&gt;Node5</title>
<path fill="none" stroke="midnightblue" d="M191,-157.09C191,-144.21 191,-129.2 191,-119.89"/>
<polygon fill="midnightblue" stroke="midnightblue" points="187.5,-157.23 191,-167.23 194.5,-157.23 187.5,-157.23"/>
</g>
</g>
</svg>
