<?xml version="1.0" encoding="UTF-8" standalone="no"?>
<!DOCTYPE svg PUBLIC "-//W3C//DTD SVG 1.1//EN"
 "http://www.w3.org/Graphics/SVG/1.1/DTD/svg11.dtd">
<!-- Generated by graphviz version 2.43.0 (0)
 -->
<!-- Title: itk::EdgeDecimationQuadEdgeMeshFilter&lt; TInput, TOutput, TCriterion &gt; Pages: 1 -->
<svg width="2841pt" height="512pt"
 viewBox="0.00 0.00 2841.00 511.50" xmlns="http://www.w3.org/2000/svg" xmlns:xlink="http://www.w3.org/1999/xlink">
<g id="graph0" class="graph" transform="scale(1 1) rotate(0) translate(4 507.5)">
<title>itk::EdgeDecimationQuadEdgeMeshFilter&lt; TInput, TOutput, TCriterion &gt;</title>
<polygon fill="white" stroke="transparent" points="-4,4 -4,-507.5 2837,-507.5 2837,4 -4,4"/>
<!-- Node1 -->
<g id="node1" class="node">
<title>Node1</title>
<g id="a_node1"><a xlink:title=" ">
<polygon fill="#bfbfbf" stroke="black" points="2668,-39 2668,-80 2833,-80 2833,-39 2668,-39"/>
<text text-anchor="start" x="2676" y="-68" font-family="Helvetica,sans-Serif" font-size="10.00">itk::EdgeDecimationQuadEdge</text>
<text text-anchor="start" x="2676" y="-57" font-family="Helvetica,sans-Serif" font-size="10.00">MeshFilter&lt; TInput, TOutput,</text>
<text text-anchor="middle" x="2750.5" y="-46" font-family="Helvetica,sans-Serif" font-size="10.00"> TCriterion &gt;</text>
</a>
</g>
</g>
<!-- Node2 -->
<g id="node2" class="node">
<title>Node2</title>
<g id="a_node2"><a xlink:href="classitk_1_1DecimationQuadEdgeMeshFilter.html" target="_top" xlink:title=" ">
<polygon fill="white" stroke="black" points="2378,-159 2378,-200 2545,-200 2545,-159 2378,-159"/>
<text text-anchor="start" x="2386" y="-188" font-family="Helvetica,sans-Serif" font-size="10.00">itk::DecimationQuadEdgeMesh</text>
<text text-anchor="start" x="2386" y="-177" font-family="Helvetica,sans-Serif" font-size="10.00">Filter&lt; TInput, TOutput,</text>
<text text-anchor="middle" x="2461.5" y="-166" font-family="Helvetica,sans-Serif" font-size="10.00"> TCriterion &gt;</text>
</a>
</g>
</g>
<!-- Node2&#45;&gt;Node1 -->
<g id="edge1" class="edge">
<title>Node2&#45;&gt;Node1</title>
<path fill="none" stroke="midnightblue" d="M2521.08,-155.01C2573.88,-132.93 2650.65,-100.83 2700.33,-80.06"/>
<polygon fill="midnightblue" stroke="midnightblue" points="2519.71,-151.78 2511.84,-158.87 2522.41,-158.24 2519.71,-151.78"/>
</g>
<!-- Node3 -->
<g id="node3" class="node">
<title>Node3</title>
<g id="a_node3"><a xlink:href="classitk_1_1QuadEdgeMeshToQuadEdgeMeshFilter.html" target="_top" xlink:title=" ">
<polygon fill="white" stroke="black" points="2170,-177.5 2170,-207.5 2341,-207.5 2341,-177.5 2170,-177.5"/>
<text text-anchor="start" x="2178" y="-195.5" font-family="Helvetica,sans-Serif" font-size="10.00">itk::QuadEdgeMeshToQuadEdge</text>
<text text-anchor="middle" x="2255.5" y="-184.5" font-family="Helvetica,sans-Serif" font-size="10.00">MeshFilter&lt; TInput, TOutput &gt;</text>
</a>
</g>
</g>
<!-- Node3&#45;&gt;Node2 -->
<g id="edge2" class="edge">
<title>Node3&#45;&gt;Node2</title>
<path fill="none" stroke="midnightblue" d="M2351.27,-186.46C2360.19,-185.89 2369.19,-185.32 2377.99,-184.76"/>
<polygon fill="midnightblue" stroke="midnightblue" points="2351,-182.97 2341.24,-187.1 2351.44,-189.96 2351,-182.97"/>
</g>
<!-- Node4 -->
<g id="node4" class="node">
<title>Node4</title>
<g id="a_node4"><a xlink:href="classitk_1_1MeshToMeshFilter.html" target="_top" xlink:title=" ">
<polygon fill="white" stroke="black" points="2010,-197.5 2010,-227.5 2133,-227.5 2133,-197.5 2010,-197.5"/>
<text text-anchor="start" x="2018" y="-215.5" font-family="Helvetica,sans-Serif" font-size="10.00">itk::MeshToMeshFilter</text>
<text text-anchor="middle" x="2071.5" y="-204.5" font-family="Helvetica,sans-Serif" font-size="10.00">&lt; TInput, TOutput &gt;</text>
</a>
</g>
</g>
<!-- Node4&#45;&gt;Node3 -->
<g id="edge3" class="edge">
<title>Node4&#45;&gt;Node3</title>
<path fill="none" stroke="midnightblue" d="M2143.21,-204.73C2151.94,-203.77 2160.94,-202.78 2169.85,-201.8"/>
<polygon fill="midnightblue" stroke="midnightblue" points="2142.66,-201.27 2133.1,-205.84 2143.43,-208.23 2142.66,-201.27"/>
</g>
<!-- Node5 -->
<g id="node5" class="node">
<title>Node5</title>
<g id="a_node5"><a xlink:href="classitk_1_1MeshSource.html" target="_top" xlink:title=" ">
<polygon fill="white" stroke="black" points="1709,-239 1709,-258 1865,-258 1865,-239 1709,-239"/>
<text text-anchor="middle" x="1787" y="-246" font-family="Helvetica,sans-Serif" font-size="10.00">itk::MeshSource&lt; TOutput &gt;</text>
</a>
</g>
</g>
<!-- Node5&#45;&gt;Node4 -->
<g id="edge4" class="edge">
<title>Node5&#45;&gt;Node4</title>
<path fill="none" stroke="midnightblue" d="M1872.73,-237.7C1916.85,-232.08 1969.78,-225.33 2009.78,-220.24"/>
<polygon fill="midnightblue" stroke="midnightblue" points="1872.07,-234.26 1862.59,-238.99 1872.96,-241.2 1872.07,-234.26"/>
</g>
<!-- Node6 -->
<g id="node6" class="node">
<title>Node6</title>
<g id="a_node6"><a xlink:href="classitk_1_1ProcessObject.html" target="_top" xlink:title="The base class for all process objects (source, filters, mappers) in the Insight data processing pipe...">
<polygon fill="white" stroke="black" points="1568,-241 1568,-260 1672,-260 1672,-241 1568,-241"/>
<text text-anchor="middle" x="1620" y="-248" font-family="Helvetica,sans-Serif" font-size="10.00">itk::ProcessObject</text>
</a>
</g>
</g>
<!-- Node6&#45;&gt;Node5 -->
<g id="edge5" class="edge">
<title>Node6&#45;&gt;Node5</title>
<path fill="none" stroke="midnightblue" d="M1682.33,-249.76C1691.02,-249.65 1700.04,-249.54 1708.99,-249.43"/>
<polygon fill="midnightblue" stroke="midnightblue" points="1682.26,-246.26 1672.3,-249.88 1682.34,-253.26 1682.26,-246.26"/>
</g>
<!-- Node7 -->
<g id="node7" class="node">
<title>Node7</title>
<g id="a_node7"><a xlink:href="classitk_1_1Object.html" target="_top" xlink:title="Base class for most ITK classes.">
<polygon fill="white" stroke="black" points="1272,-285 1272,-304 1339,-304 1339,-285 1272,-285"/>
<text text-anchor="middle" x="1305.5" y="-292" font-family="Helvetica,sans-Serif" font-size="10.00">itk::Object</text>
</a>
</g>
</g>
<!-- Node7&#45;&gt;Node6 -->
<g id="edge6" class="edge">
<title>Node7&#45;&gt;Node6</title>
<path fill="none" stroke="midnightblue" d="M1349.47,-295.01C1398.55,-294.75 1480.97,-291.72 1550,-276.5 1566.75,-272.81 1584.87,-265.86 1598.34,-260.07"/>
<polygon fill="midnightblue" stroke="midnightblue" points="1349.22,-291.51 1339.23,-295.03 1349.23,-298.51 1349.22,-291.51"/>
</g>
<!-- Node8 -->
<g id="node8" class="node">
<title>Node8</title>
<g id="a_node8"><a xlink:href="classitk_1_1LightObject.html" target="_top" xlink:title="Light weight base class for most itk classes.">
<polygon fill="white" stroke="black" points="935,-233 935,-252 1026,-252 1026,-233 935,-233"/>
<text text-anchor="middle" x="980.5" y="-240" font-family="Helvetica,sans-Serif" font-size="10.00">itk::LightObject</text>
</a>
</g>
</g>
<!-- Node8&#45;&gt;Node7 -->
<g id="edge7" class="edge">
<title>Node8&#45;&gt;Node7</title>
<path fill="none" stroke="midnightblue" d="M1036.09,-251.29C1103.55,-262.15 1216.2,-280.28 1271.64,-289.21"/>
<polygon fill="midnightblue" stroke="midnightblue" points="1036.5,-247.81 1026.07,-249.68 1035.39,-254.72 1036.5,-247.81"/>
</g>
<!-- Node9 -->
<g id="node9" class="node">
<title>Node9</title>
<g id="a_node9"><a xlink:title=" ">
<polygon fill="white" stroke="black" points="655.5,-233 655.5,-252 762.5,-252 762.5,-233 655.5,-233"/>
<text text-anchor="middle" x="709" y="-240" font-family="Helvetica,sans-Serif" font-size="10.00">std::atomic&lt; int &gt;</text>
</a>
</g>
</g>
<!-- Node9&#45;&gt;Node8 -->
<g id="edge8" class="edge">
<title>Node9&#45;&gt;Node8</title>
<path fill="none" stroke="#9a32cd" stroke-dasharray="5,2" d="M772.89,-242.5C822.48,-242.5 890.42,-242.5 934.63,-242.5"/>
<polygon fill="#9a32cd" stroke="#9a32cd" points="772.6,-239 762.6,-242.5 772.6,-246 772.6,-239"/>
<text text-anchor="middle" x="842.5" y="-245.5" font-family="Helvetica,sans-Serif" font-size="10.00"> m_ReferenceCount</text>
</g>
<!-- Node10 -->
<g id="node10" class="node">
<title>Node10</title>
<g id="a_node10"><a xlink:href="classitk_1_1TimeStamp.html" target="_top" xlink:title="Generate a unique, increasing time value.">
<polygon fill="white" stroke="black" points="934.5,-370 934.5,-389 1026.5,-389 1026.5,-370 934.5,-370"/>
<text text-anchor="middle" x="980.5" y="-377" font-family="Helvetica,sans-Serif" font-size="10.00">itk::TimeStamp</text>
</a>
</g>
</g>
<!-- Node10&#45;&gt;Node6 -->
<g id="edge21" class="edge">
<title>Node10&#45;&gt;Node6</title>
<path fill="none" stroke="#9a32cd" stroke-dasharray="5,2" d="M1036.77,-381.2C1081.71,-381.87 1146.66,-381.24 1203,-374.5 1359.76,-355.74 1405.31,-361.68 1550,-298.5 1572.47,-288.69 1595.16,-271.08 1608.11,-260.14"/>
<polygon fill="#9a32cd" stroke="#9a32cd" points="1036.71,-377.7 1026.65,-381.02 1036.58,-384.7 1036.71,-377.7"/>
<text text-anchor="middle" x="1305.5" y="-374.5" font-family="Helvetica,sans-Serif" font-size="10.00"> m_OutputInformationMTime</text>
</g>
<!-- Node10&#45;&gt;Node7 -->
<g id="edge9" class="edge">
<title>Node10&#45;&gt;Node7</title>
<path fill="none" stroke="#9a32cd" stroke-dasharray="5,2" d="M1036.7,-369.34C1099.67,-357.7 1195.03,-339.91 1203,-337.5 1232.67,-328.51 1265.44,-313.68 1285.5,-304"/>
<polygon fill="#9a32cd" stroke="#9a32cd" points="1035.7,-365.96 1026.51,-371.22 1036.97,-372.85 1035.7,-365.96"/>
<text text-anchor="middle" x="1136.5" y="-364.5" font-family="Helvetica,sans-Serif" font-size="10.00"> m_MTime</text>
</g>
<!-- Node11 -->
<g id="node11" class="node">
<title>Node11</title>
<g id="a_node11"><a xlink:title=" ">
<polygon fill="white" stroke="black" points="233,-369 233,-388 333,-388 333,-369 233,-369"/>
<text text-anchor="middle" x="283" y="-376" font-family="Helvetica,sans-Serif" font-size="10.00">std::atomic&lt; T &gt;</text>
</a>
</g>
</g>
<!-- Node11&#45;&gt;Node10 -->
<g id="edge10" class="edge">
<title>Node11&#45;&gt;Node10</title>
<path fill="none" stroke="#9a32cd" stroke-dasharray="5,2" d="M343.44,-378.59C479.86,-378.78 813,-379.26 934.35,-379.44"/>
<polygon fill="#9a32cd" stroke="#9a32cd" points="343.19,-375.09 333.18,-378.57 343.18,-382.09 343.19,-375.09"/>
<text text-anchor="middle" x="571" y="-381.5" font-family="Helvetica,sans-Serif" font-size="10.00"> m_GlobalTimeStamp</text>
</g>
<!-- Node12 -->
<g id="node12" class="node">
<title>Node12</title>
<g id="a_node12"><a xlink:title=" ">
<polygon fill="white" stroke="black" points="0,-354 0,-373 29,-373 29,-354 0,-354"/>
<text text-anchor="middle" x="14.5" y="-361" font-family="Helvetica,sans-Serif" font-size="10.00">T</text>
</a>
</g>
</g>
<!-- Node12&#45;&gt;Node11 -->
<g id="edge11" class="edge">
<title>Node12&#45;&gt;Node11</title>
<path fill="none" stroke="#9a32cd" stroke-dasharray="5,2" d="M39.23,-364.84C82.59,-367.28 175.47,-372.5 232.94,-375.74"/>
<polygon fill="#9a32cd" stroke="#9a32cd" points="39.26,-361.33 29.08,-364.26 38.87,-368.32 39.26,-361.33"/>
<text text-anchor="middle" x="71.5" y="-370.5" font-family="Helvetica,sans-Serif" font-size="10.00"> ptr</text>
</g>
<!-- Node17 -->
<g id="node17" class="node">
<title>Node17</title>
<g id="a_node17"><a xlink:title=" ">
<polygon fill="white" stroke="black" points="114,-301 114,-320 215,-320 215,-301 114,-301"/>
<text text-anchor="middle" x="164.5" y="-308" font-family="Helvetica,sans-Serif" font-size="10.00">std::map&lt; K, T &gt;</text>
</a>
</g>
</g>
<!-- Node12&#45;&gt;Node17 -->
<g id="edge18" class="edge">
<title>Node12&#45;&gt;Node17</title>
<path fill="none" stroke="#9a32cd" stroke-dasharray="5,2" d="M38.18,-349.74C41.1,-348.21 44.08,-346.75 47,-345.5 71.84,-334.84 100.96,-326.09 123.88,-320"/>
<polygon fill="#9a32cd" stroke="#9a32cd" points="36.28,-346.79 29.26,-354.73 39.7,-352.9 36.28,-346.79"/>
<text text-anchor="middle" x="71.5" y="-348.5" font-family="Helvetica,sans-Serif" font-size="10.00"> elements</text>
</g>
<!-- Node13 -->
<g id="node13" class="node">
<title>Node13</title>
<g id="a_node13"><a xlink:title=" ">
<polygon fill="white" stroke="black" points="912,-320.5 912,-350.5 1049,-350.5 1049,-320.5 912,-320.5"/>
<text text-anchor="start" x="920" y="-338.5" font-family="Helvetica,sans-Serif" font-size="10.00">std::unique_ptr&lt; Subject</text>
<text text-anchor="middle" x="980.5" y="-327.5" font-family="Helvetica,sans-Serif" font-size="10.00">Implementation &gt;</text>
</a>
</g>
</g>
<!-- Node13&#45;&gt;Node7 -->
<g id="edge12" class="edge">
<title>Node13&#45;&gt;Node7</title>
<path fill="none" stroke="#9a32cd" stroke-dasharray="5,2" d="M1059.45,-325.61C1127.36,-316.99 1222.48,-304.91 1271.86,-298.64"/>
<polygon fill="#9a32cd" stroke="#9a32cd" points="1058.69,-322.17 1049.21,-326.91 1059.57,-329.12 1058.69,-322.17"/>
<text text-anchor="middle" x="1136.5" y="-325.5" font-family="Helvetica,sans-Serif" font-size="10.00"> m_SubjectImplementation</text>
</g>
<!-- Node14 -->
<g id="node14" class="node">
<title>Node14</title>
<g id="a_node14"><a xlink:title=" ">
<polygon fill="white" stroke="black" points="914.5,-271.5 914.5,-301.5 1046.5,-301.5 1046.5,-271.5 914.5,-271.5"/>
<text text-anchor="start" x="922.5" y="-289.5" font-family="Helvetica,sans-Serif" font-size="10.00">std::unique_ptr&lt; itk</text>
<text text-anchor="middle" x="980.5" y="-278.5" font-family="Helvetica,sans-Serif" font-size="10.00">::MetaDataDictionary &gt;</text>
</a>
</g>
</g>
<!-- Node14&#45;&gt;Node7 -->
<g id="edge13" class="edge">
<title>Node14&#45;&gt;Node7</title>
<path fill="none" stroke="#9a32cd" stroke-dasharray="5,2" d="M1057.1,-288.37C1125.12,-290.06 1221.81,-292.45 1271.78,-293.69"/>
<polygon fill="#9a32cd" stroke="#9a32cd" points="1056.95,-284.87 1046.86,-288.12 1056.77,-291.87 1056.95,-284.87"/>
<text text-anchor="middle" x="1136.5" y="-294.5" font-family="Helvetica,sans-Serif" font-size="10.00"> m_MetaDataDictionary</text>
</g>
<!-- Node15 -->
<g id="node15" class="node">
<title>Node15</title>
<g id="a_node15"><a xlink:href="classitk_1_1MetaDataDictionary.html" target="_top" xlink:title="Provides a mechanism for storing a collection of arbitrary data types.">
<polygon fill="white" stroke="black" points="642,-289 642,-308 776,-308 776,-289 642,-289"/>
<text text-anchor="middle" x="709" y="-296" font-family="Helvetica,sans-Serif" font-size="10.00">itk::MetaDataDictionary</text>
</a>
</g>
</g>
<!-- Node15&#45;&gt;Node14 -->
<g id="edge14" class="edge">
<title>Node15&#45;&gt;Node14</title>
<path fill="none" stroke="#9a32cd" stroke-dasharray="5,2" d="M786.35,-295.1C826.75,-293.3 875.84,-291.12 914.42,-289.4"/>
<polygon fill="#9a32cd" stroke="#9a32cd" points="786.11,-291.61 776.27,-295.55 786.42,-298.6 786.11,-291.61"/>
<text text-anchor="middle" x="842.5" y="-297.5" font-family="Helvetica,sans-Serif" font-size="10.00"> ptr</text>
</g>
<!-- Node16 -->
<g id="node16" class="node">
<title>Node16</title>
<g id="a_node16"><a xlink:title=" ">
<polygon fill="white" stroke="black" points="351,-286.5 351,-316.5 500,-316.5 500,-286.5 351,-286.5"/>
<text text-anchor="start" x="359" y="-304.5" font-family="Helvetica,sans-Serif" font-size="10.00">std::shared_ptr&lt; MetaData</text>
<text text-anchor="middle" x="425.5" y="-293.5" font-family="Helvetica,sans-Serif" font-size="10.00">DictionaryMapType &gt;</text>
</a>
</g>
</g>
<!-- Node16&#45;&gt;Node15 -->
<g id="edge15" class="edge">
<title>Node16&#45;&gt;Node15</title>
<path fill="none" stroke="#9a32cd" stroke-dasharray="5,2" d="M510.29,-300.61C552.24,-300.16 602.31,-299.63 641.57,-299.21"/>
<polygon fill="#9a32cd" stroke="#9a32cd" points="510.06,-297.11 500.09,-300.72 510.13,-304.11 510.06,-297.11"/>
<text text-anchor="middle" x="571" y="-302.5" font-family="Helvetica,sans-Serif" font-size="10.00"> m_Dictionary</text>
</g>
<!-- Node17&#45;&gt;Node16 -->
<g id="edge16" class="edge">
<title>Node17&#45;&gt;Node16</title>
<path fill="none" stroke="#9a32cd" stroke-dasharray="5,2" d="M225.34,-308.42C262.61,-307.13 310.86,-305.45 350.52,-304.07"/>
<polygon fill="#9a32cd" stroke="#9a32cd" points="225,-304.93 215.13,-308.78 225.25,-311.93 225,-304.93"/>
<text text-anchor="middle" x="283" y="-310.5" font-family="Helvetica,sans-Serif" font-size="10.00"> ptr</text>
</g>
<!-- Node18 -->
<g id="node18" class="node">
<title>Node18</title>
<g id="a_node18"><a xlink:title=" ">
<polygon fill="white" stroke="black" points="0,-301 0,-320 29,-320 29,-301 0,-301"/>
<text text-anchor="middle" x="14.5" y="-308" font-family="Helvetica,sans-Serif" font-size="10.00">K</text>
</a>
</g>
</g>
<!-- Node18&#45;&gt;Node17 -->
<g id="edge17" class="edge">
<title>Node18&#45;&gt;Node17</title>
<path fill="none" stroke="#9a32cd" stroke-dasharray="5,2" d="M39.24,-310.5C59.28,-310.5 88.63,-310.5 113.78,-310.5"/>
<polygon fill="#9a32cd" stroke="#9a32cd" points="39.16,-307 29.16,-310.5 39.16,-314 39.16,-307"/>
<text text-anchor="middle" x="71.5" y="-313.5" font-family="Helvetica,sans-Serif" font-size="10.00"> keys</text>
</g>
<!-- Node19 -->
<g id="node19" class="node">
<title>Node19</title>
<g id="a_node19"><a xlink:title=" ">
<polygon fill="white" stroke="black" points="948,-177 948,-196 1013,-196 1013,-177 948,-177"/>
<text text-anchor="middle" x="980.5" y="-184" font-family="Helvetica,sans-Serif" font-size="10.00">std::string</text>
</a>
</g>
</g>
<!-- Node19&#45;&gt;Node7 -->
<g id="edge19" class="edge">
<title>Node19&#45;&gt;Node7</title>
<path fill="none" stroke="#9a32cd" stroke-dasharray="5,2" d="M1020.51,-199.15C1035.86,-203.93 1053.68,-209.24 1070,-213.5 1128.54,-228.78 1154.58,-206.22 1203,-242.5 1216.37,-252.52 1207.68,-265.42 1221,-275.5 1235.47,-286.44 1255.11,-291.27 1271.71,-293.33"/>
<polygon fill="#9a32cd" stroke="#9a32cd" points="1021.42,-195.77 1010.83,-196.1 1019.32,-202.44 1021.42,-195.77"/>
<text text-anchor="middle" x="1136.5" y="-245.5" font-family="Helvetica,sans-Serif" font-size="10.00"> m_ObjectName</text>
</g>
<!-- Node21 -->
<g id="node21" class="node">
<title>Node21</title>
<g id="a_node21"><a xlink:title=" ">
<polygon fill="white" stroke="black" points="1221,-137.5 1221,-167.5 1390,-167.5 1390,-137.5 1221,-137.5"/>
<text text-anchor="start" x="1229" y="-155.5" font-family="Helvetica,sans-Serif" font-size="10.00">std::map&lt; DataObjectIdentifier</text>
<text text-anchor="middle" x="1305.5" y="-144.5" font-family="Helvetica,sans-Serif" font-size="10.00">Type, DataObjectPointer &gt;</text>
</a>
</g>
</g>
<!-- Node19&#45;&gt;Node21 -->
<g id="edge23" class="edge">
<title>Node19&#45;&gt;Node21</title>
<path fill="none" stroke="#9a32cd" stroke-dasharray="5,2" d="M1005.94,-172.04C1023.18,-162.7 1047.19,-151.41 1070,-146.5 1119.27,-135.88 1175.7,-136.93 1220.86,-140.85"/>
<polygon fill="#9a32cd" stroke="#9a32cd" points="1004.13,-169.04 997.1,-176.97 1007.54,-175.15 1004.13,-169.04"/>
<text text-anchor="middle" x="1136.5" y="-149.5" font-family="Helvetica,sans-Serif" font-size="10.00"> keys</text>
</g>
<!-- Node25 -->
<g id="node25" class="node">
<title>Node25</title>
<g id="a_node25"><a xlink:title=" ">
<polygon fill="white" stroke="black" points="1221,-235.5 1221,-265.5 1390,-265.5 1390,-235.5 1221,-235.5"/>
<text text-anchor="start" x="1229" y="-253.5" font-family="Helvetica,sans-Serif" font-size="10.00">std::map&lt; DataObjectIdentifier</text>
<text text-anchor="middle" x="1305.5" y="-242.5" font-family="Helvetica,sans-Serif" font-size="10.00">Type, bool &gt;</text>
</a>
</g>
</g>
<!-- Node19&#45;&gt;Node25 -->
<g id="edge28" class="edge">
<title>Node19&#45;&gt;Node25</title>
<path fill="none" stroke="#9a32cd" stroke-dasharray="5,2" d="M1023.57,-185.46C1079.04,-184.77 1173.12,-186.19 1203,-202.5 1214.7,-208.89 1210.02,-218.93 1221,-226.5 1225.97,-229.92 1231.42,-232.86 1237.09,-235.39"/>
<polygon fill="#9a32cd" stroke="#9a32cd" points="1023.29,-181.96 1013.35,-185.61 1023.4,-188.96 1023.29,-181.96"/>
<text text-anchor="middle" x="1136.5" y="-205.5" font-family="Helvetica,sans-Serif" font-size="10.00"> keys</text>
</g>
<!-- Node26 -->
<g id="node26" class="node">
<title>Node26</title>
<g id="a_node26"><a xlink:title=" ">
<polygon fill="white" stroke="black" points="1224.5,-186.5 1224.5,-216.5 1386.5,-216.5 1386.5,-186.5 1224.5,-186.5"/>
<text text-anchor="start" x="1232.5" y="-204.5" font-family="Helvetica,sans-Serif" font-size="10.00">std::set&lt; DataObjectIdentifier</text>
<text text-anchor="middle" x="1305.5" y="-193.5" font-family="Helvetica,sans-Serif" font-size="10.00">Type &gt;</text>
</a>
</g>
</g>
<!-- Node19&#45;&gt;Node26 -->
<g id="edge30" class="edge">
<title>Node19&#45;&gt;Node26</title>
<path fill="none" stroke="#9a32cd" stroke-dasharray="5,2" d="M1023.11,-175.52C1068.06,-165.4 1141.51,-153.99 1203,-168.5 1211.71,-170.55 1212.67,-174.25 1221,-177.5 1229.29,-180.73 1238.2,-183.75 1246.99,-186.48"/>
<polygon fill="#9a32cd" stroke="#9a32cd" points="1022.08,-172.16 1013.14,-177.84 1023.68,-178.98 1022.08,-172.16"/>
<text text-anchor="middle" x="1136.5" y="-171.5" font-family="Helvetica,sans-Serif" font-size="10.00"> keys</text>
</g>
<!-- Node20 -->
<g id="node20" class="node">
<title>Node20</title>
<g id="a_node20"><a xlink:title=" ">
<polygon fill="white" stroke="black" points="657,-171.5 657,-201.5 761,-201.5 761,-171.5 657,-171.5"/>
<text text-anchor="start" x="665" y="-189.5" font-family="Helvetica,sans-Serif" font-size="10.00">std::basic_string&lt;</text>
<text text-anchor="middle" x="709" y="-178.5" font-family="Helvetica,sans-Serif" font-size="10.00"> Char &gt;</text>
</a>
</g>
</g>
<!-- Node20&#45;&gt;Node19 -->
<g id="edge20" class="edge">
<title>Node20&#45;&gt;Node19</title>
<path fill="none" stroke="midnightblue" d="M771.31,-186.5C826.18,-186.5 904.43,-186.5 947.69,-186.5"/>
<polygon fill="midnightblue" stroke="midnightblue" points="771.01,-183 761.01,-186.5 771.01,-190 771.01,-183"/>
</g>
<!-- Node21&#45;&gt;Node6 -->
<g id="edge22" class="edge">
<title>Node21&#45;&gt;Node6</title>
<path fill="none" stroke="#9a32cd" stroke-dasharray="5,2" d="M1400.2,-153.09C1447.09,-156.52 1503.59,-165.57 1550,-187.5 1576.69,-200.11 1600.31,-226.63 1611.73,-240.91"/>
<polygon fill="#9a32cd" stroke="#9a32cd" points="1400.25,-149.58 1390.04,-152.42 1399.79,-156.57 1400.25,-149.58"/>
<text text-anchor="middle" x="1479" y="-201.5" font-family="Helvetica,sans-Serif" font-size="10.00"> m_Inputs</text>
<text text-anchor="middle" x="1479" y="-190.5" font-family="Helvetica,sans-Serif" font-size="10.00">m_Outputs</text>
</g>
<!-- Node22 -->
<g id="node22" class="node">
<title>Node22</title>
<g id="a_node22"><a xlink:href="classitk_1_1SmartPointer.html" target="_top" xlink:title=" ">
<polygon fill="white" stroke="black" points="927,-63.5 927,-93.5 1034,-93.5 1034,-63.5 927,-63.5"/>
<text text-anchor="start" x="935" y="-81.5" font-family="Helvetica,sans-Serif" font-size="10.00">itk::SmartPointer&lt;</text>
<text text-anchor="middle" x="980.5" y="-70.5" font-family="Helvetica,sans-Serif" font-size="10.00"> Self &gt;</text>
</a>
</g>
</g>
<!-- Node22&#45;&gt;Node1 -->
<g id="edge34" class="edge">
<title>Node22&#45;&gt;Node1</title>
<path fill="none" stroke="#9a32cd" stroke-dasharray="5,2" d="M1044.12,-72.63C1109.15,-67.05 1213.85,-59.5 1304.5,-59.5 1304.5,-59.5 1304.5,-59.5 2462.5,-59.5 2531.76,-59.5 2610.42,-59.5 2667.85,-59.5"/>
<polygon fill="#9a32cd" stroke="#9a32cd" points="1043.69,-69.15 1034.03,-73.51 1044.3,-76.13 1043.69,-69.15"/>
<text text-anchor="middle" x="1937.5" y="-73.5" font-family="Helvetica,sans-Serif" font-size="10.00"> m_JoinVertexFunction</text>
<text text-anchor="middle" x="1937.5" y="-62.5" font-family="Helvetica,sans-Serif" font-size="10.00">m_PriorityQueue</text>
</g>
<!-- Node22&#45;&gt;Node21 -->
<g id="edge24" class="edge">
<title>Node22&#45;&gt;Node21</title>
<path fill="none" stroke="#9a32cd" stroke-dasharray="5,2" d="M1044.4,-88.82C1089,-96.67 1150.08,-108.48 1203,-122.5 1211.15,-124.66 1212.95,-126 1221,-128.5 1230.65,-131.49 1240.97,-134.57 1250.95,-137.47"/>
<polygon fill="#9a32cd" stroke="#9a32cd" points="1044.74,-85.33 1034.29,-87.06 1043.54,-92.23 1044.74,-85.33"/>
<text text-anchor="middle" x="1136.5" y="-125.5" font-family="Helvetica,sans-Serif" font-size="10.00"> elements</text>
</g>
<!-- Node23 -->
<g id="node23" class="node">
<title>Node23</title>
<g id="a_node23"><a xlink:title=" ">
<polygon fill="white" stroke="black" points="1221,-456.5 1221,-486.5 1390,-486.5 1390,-456.5 1221,-456.5"/>
<text text-anchor="start" x="1229" y="-474.5" font-family="Helvetica,sans-Serif" font-size="10.00">std::vector&lt; DataObjectPointer</text>
<text text-anchor="middle" x="1305.5" y="-463.5" font-family="Helvetica,sans-Serif" font-size="10.00">Map::iterator &gt;</text>
</a>
</g>
</g>
<!-- Node23&#45;&gt;Node6 -->
<g id="edge25" class="edge">
<title>Node23&#45;&gt;Node6</title>
<path fill="none" stroke="#9a32cd" stroke-dasharray="5,2" d="M1400.24,-482.06C1449.67,-482.59 1508.49,-474.61 1550,-441.5 1608.98,-394.45 1617.57,-292.59 1618.8,-260.44"/>
<polygon fill="#9a32cd" stroke="#9a32cd" points="1400.24,-478.56 1390.16,-481.83 1400.08,-485.56 1400.24,-478.56"/>
<text text-anchor="middle" x="1479" y="-495.5" font-family="Helvetica,sans-Serif" font-size="10.00"> m_IndexedInputs</text>
<text text-anchor="middle" x="1479" y="-484.5" font-family="Helvetica,sans-Serif" font-size="10.00">m_IndexedOutputs</text>
</g>
<!-- Node24 -->
<g id="node24" class="node">
<title>Node24</title>
<g id="a_node24"><a xlink:title=" ">
<polygon fill="white" stroke="black" points="909,-462 909,-481 1052,-481 1052,-462 909,-462"/>
<text text-anchor="middle" x="980.5" y="-469" font-family="Helvetica,sans-Serif" font-size="10.00">std::map&lt; K, T &gt;::iterator</text>
</a>
</g>
</g>
<!-- Node24&#45;&gt;Node23 -->
<g id="edge26" class="edge">
<title>Node24&#45;&gt;Node23</title>
<path fill="none" stroke="#9a32cd" stroke-dasharray="5,2" d="M1062.49,-471.5C1110.84,-471.5 1172.12,-471.5 1220.92,-471.5"/>
<polygon fill="#9a32cd" stroke="#9a32cd" points="1062.38,-468 1052.38,-471.5 1062.38,-475 1062.38,-468"/>
<text text-anchor="middle" x="1136.5" y="-474.5" font-family="Helvetica,sans-Serif" font-size="10.00"> elements</text>
</g>
<!-- Node25&#45;&gt;Node6 -->
<g id="edge27" class="edge">
<title>Node25&#45;&gt;Node6</title>
<path fill="none" stroke="#9a32cd" stroke-dasharray="5,2" d="M1400.35,-250.5C1455.29,-250.5 1522.54,-250.5 1567.84,-250.5"/>
<polygon fill="#9a32cd" stroke="#9a32cd" points="1400.24,-247 1390.24,-250.5 1400.24,-254 1400.24,-247"/>
<text text-anchor="start" x="1408" y="-264.5" font-family="Helvetica,sans-Serif" font-size="10.00"> m_CachedInputReleaseData</text>
<text text-anchor="middle" x="1479" y="-253.5" font-family="Helvetica,sans-Serif" font-size="10.00">Flags</text>
</g>
<!-- Node26&#45;&gt;Node6 -->
<g id="edge29" class="edge">
<title>Node26&#45;&gt;Node6</title>
<path fill="none" stroke="#9a32cd" stroke-dasharray="5,2" d="M1396.48,-212.42C1442.53,-218.42 1499.4,-226.48 1550,-235.5 1558.93,-237.09 1568.46,-239.02 1577.51,-240.95"/>
<polygon fill="#9a32cd" stroke="#9a32cd" points="1396.89,-208.94 1386.52,-211.13 1395.99,-215.89 1396.89,-208.94"/>
<text text-anchor="middle" x="1479" y="-238.5" font-family="Helvetica,sans-Serif" font-size="10.00"> m_RequiredInputNames</text>
</g>
<!-- Node27 -->
<g id="node27" class="node">
<title>Node27</title>
<g id="a_node27"><a xlink:title=" ">
<polygon fill="white" stroke="black" points="1238.5,-418 1238.5,-437 1372.5,-437 1372.5,-418 1238.5,-418"/>
<text text-anchor="middle" x="1305.5" y="-425" font-family="Helvetica,sans-Serif" font-size="10.00">std::atomic&lt; uint32_t &gt;</text>
</a>
</g>
</g>
<!-- Node27&#45;&gt;Node6 -->
<g id="edge31" class="edge">
<title>Node27&#45;&gt;Node6</title>
<path fill="none" stroke="#9a32cd" stroke-dasharray="5,2" d="M1382.82,-427.78C1444.07,-426.55 1523.98,-421.22 1550,-402.5 1599.41,-366.97 1614.19,-287.45 1617.9,-260.02"/>
<polygon fill="#9a32cd" stroke="#9a32cd" points="1382.72,-424.28 1372.78,-427.95 1382.84,-431.28 1382.72,-424.28"/>
<text text-anchor="middle" x="1479" y="-429.5" font-family="Helvetica,sans-Serif" font-size="10.00"> m_Progress</text>
</g>
<!-- Node28 -->
<g id="node28" class="node">
<title>Node28</title>
<g id="a_node28"><a xlink:title=" ">
<polygon fill="white" stroke="black" points="952.5,-418 952.5,-437 1008.5,-437 1008.5,-418 952.5,-418"/>
<text text-anchor="middle" x="980.5" y="-425" font-family="Helvetica,sans-Serif" font-size="10.00">uint32_t</text>
</a>
</g>
</g>
<!-- Node28&#45;&gt;Node27 -->
<g id="edge32" class="edge">
<title>Node28&#45;&gt;Node27</title>
<path fill="none" stroke="#9a32cd" stroke-dasharray="5,2" d="M1018.85,-427.5C1072.45,-427.5 1172.04,-427.5 1238.31,-427.5"/>
<polygon fill="#9a32cd" stroke="#9a32cd" points="1018.76,-424 1008.76,-427.5 1018.76,-431 1018.76,-424"/>
<text text-anchor="middle" x="1136.5" y="-430.5" font-family="Helvetica,sans-Serif" font-size="10.00"> ptr</text>
</g>
<!-- Node29 -->
<g id="node29" class="node">
<title>Node29</title>
<g id="a_node29"><a xlink:href="classitk_1_1SmartPointer.html" target="_top" xlink:title=" ">
<polygon fill="white" stroke="black" points="1234.5,-88.5 1234.5,-118.5 1376.5,-118.5 1376.5,-88.5 1234.5,-88.5"/>
<text text-anchor="start" x="1242.5" y="-106.5" font-family="Helvetica,sans-Serif" font-size="10.00">itk::SmartPointer&lt;</text>
<text text-anchor="middle" x="1305.5" y="-95.5" font-family="Helvetica,sans-Serif" font-size="10.00"> itk::MultiThreaderBase &gt;</text>
</a>
</g>
</g>
<!-- Node29&#45;&gt;Node6 -->
<g id="edge33" class="edge">
<title>Node29&#45;&gt;Node6</title>
<path fill="none" stroke="#9a32cd" stroke-dasharray="5,2" d="M1386.81,-98.38C1437.44,-98.96 1502.06,-107.04 1550,-138.5 1588.38,-163.68 1609.03,-218.37 1616.13,-240.7"/>
<polygon fill="#9a32cd" stroke="#9a32cd" points="1386.56,-94.87 1376.56,-98.36 1386.55,-101.87 1386.56,-94.87"/>
<text text-anchor="middle" x="1479" y="-141.5" font-family="Helvetica,sans-Serif" font-size="10.00"> m_MultiThreader</text>
</g>
<!-- Node30 -->
<g id="node30" class="node">
<title>Node30</title>
<g id="a_node30"><a xlink:title=" ">
<polygon fill="white" stroke="black" points="2380.5,-0.5 2380.5,-30.5 2542.5,-30.5 2542.5,-0.5 2380.5,-0.5"/>
<text text-anchor="start" x="2388.5" y="-18.5" font-family="Helvetica,sans-Serif" font-size="10.00">std::map&lt; OutputQEType</text>
<text text-anchor="middle" x="2461.5" y="-7.5" font-family="Helvetica,sans-Serif" font-size="10.00"> *, PriorityQueueItemType * &gt;</text>
</a>
</g>
</g>
<!-- Node30&#45;&gt;Node1 -->
<g id="edge35" class="edge">
<title>Node30&#45;&gt;Node1</title>
<path fill="none" stroke="#9a32cd" stroke-dasharray="5,2" d="M2553.01,-22C2583.91,-24.92 2618.58,-28.99 2650,-34.5 2657.28,-35.78 2664.82,-37.3 2672.33,-38.95"/>
<polygon fill="#9a32cd" stroke="#9a32cd" points="2552.96,-18.48 2542.68,-21.05 2552.32,-25.45 2552.96,-18.48"/>
<text text-anchor="middle" x="2606.5" y="-37.5" font-family="Helvetica,sans-Serif" font-size="10.00"> m_QueueMapper</text>
</g>
</g>
</svg>
