<?xml version="1.0" encoding="UTF-8" standalone="no"?>
<!DOCTYPE svg PUBLIC "-//W3C//DTD SVG 1.1//EN"
 "http://www.w3.org/Graphics/SVG/1.1/DTD/svg11.dtd">
<!-- Generated by graphviz version 2.43.0 (0)
 -->
<!-- Title: itk::Statistics::MahalanobisDistanceMembershipFunction&lt; TVector &gt; Pages: 1 -->
<svg width="228pt" height="378pt"
 viewBox="0.00 0.00 227.50 378.00" xmlns="http://www.w3.org/2000/svg" xmlns:xlink="http://www.w3.org/1999/xlink">
<g id="graph0" class="graph" transform="scale(1 1) rotate(0) translate(4 374)">
<title>itk::Statistics::MahalanobisDistanceMembershipFunction&lt; TVector &gt;</title>
<polygon fill="white" stroke="transparent" points="-4,4 -4,-374 223.5,-374 223.5,4 -4,4"/>
<!-- Node1 -->
<g id="node1" class="node">
<title>Node1</title>
<g id="a_node1"><a xlink:title="MahalanobisDistanceMembershipFunction models class membership using Mahalanobis distance.">
<polygon fill="#bfbfbf" stroke="black" points="0,-0.5 0,-41.5 161,-41.5 161,-0.5 0,-0.5"/>
<text text-anchor="start" x="8" y="-29.5" font-family="Helvetica,sans-Serif" font-size="10.00">itk::Statistics::Mahalanobis</text>
<text text-anchor="start" x="8" y="-18.5" font-family="Helvetica,sans-Serif" font-size="10.00">DistanceMembershipFunction</text>
<text text-anchor="middle" x="80.5" y="-7.5" font-family="Helvetica,sans-Serif" font-size="10.00">&lt; TVector &gt;</text>
</a>
</g>
</g>
<!-- Node2 -->
<g id="node2" class="node">
<title>Node2</title>
<g id="a_node2"><a xlink:href="classitk_1_1Statistics_1_1MembershipFunctionBase.html" target="_top" xlink:title="MembershipFunctionBase defines common interfaces for membership functions.">
<polygon fill="white" stroke="black" points="7,-79.5 7,-109.5 154,-109.5 154,-79.5 7,-79.5"/>
<text text-anchor="start" x="15" y="-97.5" font-family="Helvetica,sans-Serif" font-size="10.00">itk::Statistics::Membership</text>
<text text-anchor="middle" x="80.5" y="-86.5" font-family="Helvetica,sans-Serif" font-size="10.00">FunctionBase&lt; TVector &gt;</text>
</a>
</g>
</g>
<!-- Node2&#45;&gt;Node1 -->
<g id="edge1" class="edge">
<title>Node2&#45;&gt;Node1</title>
<path fill="none" stroke="midnightblue" d="M80.5,-69.1C80.5,-60.1 80.5,-50.02 80.5,-41.51"/>
<polygon fill="midnightblue" stroke="midnightblue" points="77,-69.37 80.5,-79.37 84,-69.37 77,-69.37"/>
</g>
<!-- Node3 -->
<g id="node3" class="node">
<title>Node3</title>
<g id="a_node3"><a xlink:href="classitk_1_1FunctionBase.html" target="_top" xlink:title=" ">
<polygon fill="white" stroke="black" points="26,-147.5 26,-177.5 135,-177.5 135,-147.5 26,-147.5"/>
<text text-anchor="start" x="34" y="-165.5" font-family="Helvetica,sans-Serif" font-size="10.00">itk::FunctionBase&lt;</text>
<text text-anchor="middle" x="80.5" y="-154.5" font-family="Helvetica,sans-Serif" font-size="10.00"> TVector, double &gt;</text>
</a>
</g>
</g>
<!-- Node3&#45;&gt;Node2 -->
<g id="edge2" class="edge">
<title>Node3&#45;&gt;Node2</title>
<path fill="none" stroke="midnightblue" d="M80.5,-137.03C80.5,-127.86 80.5,-117.74 80.5,-109.79"/>
<polygon fill="midnightblue" stroke="midnightblue" points="77,-137.18 80.5,-147.18 84,-137.18 77,-137.18"/>
</g>
<!-- Node4 -->
<g id="node4" class="node">
<title>Node4</title>
<g id="a_node4"><a xlink:href="classitk_1_1Object.html" target="_top" xlink:title="Base class for most ITK classes.">
<polygon fill="white" stroke="black" points="43,-293.5 43,-312.5 110,-312.5 110,-293.5 43,-293.5"/>
<text text-anchor="middle" x="76.5" y="-300.5" font-family="Helvetica,sans-Serif" font-size="10.00">itk::Object</text>
</a>
</g>
</g>
<!-- Node4&#45;&gt;Node3 -->
<g id="edge3" class="edge">
<title>Node4&#45;&gt;Node3</title>
<path fill="none" stroke="midnightblue" d="M77.04,-283.25C77.85,-255.19 79.36,-202.88 80.09,-177.73"/>
<polygon fill="midnightblue" stroke="midnightblue" points="73.54,-283.24 76.75,-293.34 80.54,-283.44 73.54,-283.24"/>
</g>
<!-- Node6 -->
<g id="node6" class="node">
<title>Node6</title>
<g id="a_node6"><a xlink:href="classitk_1_1FunctionBase.html" target="_top" xlink:title="Base class for all ITK function objects.">
<polygon fill="white" stroke="black" points="93,-225.5 93,-255.5 202,-255.5 202,-225.5 93,-225.5"/>
<text text-anchor="start" x="101" y="-243.5" font-family="Helvetica,sans-Serif" font-size="10.00">itk::FunctionBase&lt;</text>
<text text-anchor="middle" x="147.5" y="-232.5" font-family="Helvetica,sans-Serif" font-size="10.00"> TInput, TOutput &gt;</text>
</a>
</g>
</g>
<!-- Node4&#45;&gt;Node6 -->
<g id="edge6" class="edge">
<title>Node4&#45;&gt;Node6</title>
<path fill="none" stroke="midnightblue" d="M94.55,-286.62C105.78,-277.05 120.12,-264.83 131.04,-255.53"/>
<polygon fill="midnightblue" stroke="midnightblue" points="92.01,-284.18 86.67,-293.33 96.55,-289.51 92.01,-284.18"/>
</g>
<!-- Node5 -->
<g id="node5" class="node">
<title>Node5</title>
<g id="a_node5"><a xlink:href="classitk_1_1LightObject.html" target="_top" xlink:title="Light weight base class for most itk classes.">
<polygon fill="white" stroke="black" points="31,-350.5 31,-369.5 122,-369.5 122,-350.5 31,-350.5"/>
<text text-anchor="middle" x="76.5" y="-357.5" font-family="Helvetica,sans-Serif" font-size="10.00">itk::LightObject</text>
</a>
</g>
</g>
<!-- Node5&#45;&gt;Node4 -->
<g id="edge4" class="edge">
<title>Node5&#45;&gt;Node4</title>
<path fill="none" stroke="midnightblue" d="M76.5,-340.12C76.5,-330.82 76.5,-320.06 76.5,-312.71"/>
<polygon fill="midnightblue" stroke="midnightblue" points="73,-340.41 76.5,-350.41 80,-340.41 73,-340.41"/>
</g>
<!-- Node6&#45;&gt;Node3 -->
<g id="edge5" class="edge">
<title>Node6&#45;&gt;Node3</title>
<path fill="none" stroke="orange" stroke-dasharray="5,2" d="M128.26,-217.67C116.94,-204.83 102.95,-188.97 93.05,-177.73"/>
<polygon fill="orange" stroke="orange" points="125.66,-220.02 134.9,-225.2 130.91,-215.39 125.66,-220.02"/>
<text text-anchor="middle" x="168.5" y="-199" font-family="Helvetica,sans-Serif" font-size="10.00"> &lt; TVector, double &gt;</text>
</g>
</g>
</svg>
