<?xml version="1.0" encoding="UTF-8" standalone="no"?>
<!DOCTYPE svg PUBLIC "-//W3C//DTD SVG 1.1//EN"
 "http://www.w3.org/Graphics/SVG/1.1/DTD/svg11.dtd">
<!-- Generated by graphviz version 2.43.0 (0)
 -->
<!-- Title: itk::QuadEdgeMeshScalarDataVTKPolyDataWriter&lt; TMesh &gt; Pages: 1 -->
<svg width="1735pt" height="239pt"
 viewBox="0.00 0.00 1735.00 238.50" xmlns="http://www.w3.org/2000/svg" xmlns:xlink="http://www.w3.org/1999/xlink">
<g id="graph0" class="graph" transform="scale(1 1) rotate(0) translate(4 234.5)">
<title>itk::QuadEdgeMeshScalarDataVTKPolyDataWriter&lt; TMesh &gt;</title>
<polygon fill="white" stroke="transparent" points="-4,4 -4,-234.5 1731,-234.5 1731,4 -4,4"/>
<!-- Node1 -->
<g id="node1" class="node">
<title>Node1</title>
<g id="a_node1"><a xlink:title=" ">
<polygon fill="#bfbfbf" stroke="black" points="1562,-0.5 1562,-30.5 1727,-30.5 1727,-0.5 1562,-0.5"/>
<text text-anchor="start" x="1570" y="-18.5" font-family="Helvetica,sans-Serif" font-size="10.00">itk::QuadEdgeMeshScalarData</text>
<text text-anchor="middle" x="1644.5" y="-7.5" font-family="Helvetica,sans-Serif" font-size="10.00">VTKPolyDataWriter&lt; TMesh &gt;</text>
</a>
</g>
</g>
<!-- Node2 -->
<g id="node2" class="node">
<title>Node2</title>
<g id="a_node2"><a xlink:href="classitk_1_1VTKPolyDataWriter.html" target="_top" xlink:title=" ">
<polygon fill="white" stroke="black" points="1396,-95.5 1396,-125.5 1525,-125.5 1525,-95.5 1396,-95.5"/>
<text text-anchor="start" x="1404" y="-113.5" font-family="Helvetica,sans-Serif" font-size="10.00">itk::VTKPolyDataWriter</text>
<text text-anchor="middle" x="1460.5" y="-102.5" font-family="Helvetica,sans-Serif" font-size="10.00">&lt; TMesh &gt;</text>
</a>
</g>
</g>
<!-- Node2&#45;&gt;Node1 -->
<g id="edge1" class="edge">
<title>Node2&#45;&gt;Node1</title>
<path fill="none" stroke="midnightblue" d="M1499.56,-90.63C1533.8,-72.76 1583.37,-46.89 1614.5,-30.64"/>
<polygon fill="midnightblue" stroke="midnightblue" points="1497.58,-87.72 1490.34,-95.45 1500.82,-93.92 1497.58,-87.72"/>
</g>
<!-- Node3 -->
<g id="node3" class="node">
<title>Node3</title>
<g id="a_node3"><a xlink:href="classitk_1_1Object.html" target="_top" xlink:title="Base class for most ITK classes.">
<polygon fill="white" stroke="black" points="1005,-157 1005,-176 1072,-176 1072,-157 1005,-157"/>
<text text-anchor="middle" x="1038.5" y="-164" font-family="Helvetica,sans-Serif" font-size="10.00">itk::Object</text>
</a>
</g>
</g>
<!-- Node3&#45;&gt;Node2 -->
<g id="edge2" class="edge">
<title>Node3&#45;&gt;Node2</title>
<path fill="none" stroke="midnightblue" d="M1082.23,-167.78C1134.38,-168.72 1225.11,-168.31 1302,-157.5 1336.48,-152.65 1344.62,-148.39 1378,-138.5 1391.05,-134.63 1405.13,-129.98 1417.84,-125.58"/>
<polygon fill="midnightblue" stroke="midnightblue" points="1082.09,-164.28 1072.02,-167.57 1081.95,-171.28 1082.09,-164.28"/>
</g>
<!-- Node16 -->
<g id="node16" class="node">
<title>Node16</title>
<g id="a_node16"><a xlink:href="classitk_1_1VTKPolyDataWriter.html" target="_top" xlink:title="Writes an itkMesh to a file in VTK file format.">
<polygon fill="white" stroke="black" points="1173,-117.5 1173,-147.5 1302,-147.5 1302,-117.5 1173,-117.5"/>
<text text-anchor="start" x="1181" y="-135.5" font-family="Helvetica,sans-Serif" font-size="10.00">itk::VTKPolyDataWriter</text>
<text text-anchor="middle" x="1237.5" y="-124.5" font-family="Helvetica,sans-Serif" font-size="10.00">&lt; TInputMesh &gt;</text>
</a>
</g>
</g>
<!-- Node3&#45;&gt;Node16 -->
<g id="edge20" class="edge">
<title>Node3&#45;&gt;Node16</title>
<path fill="none" stroke="midnightblue" d="M1082.12,-159.14C1108.61,-154.57 1143.15,-148.61 1172.84,-143.49"/>
<polygon fill="midnightblue" stroke="midnightblue" points="1081.29,-155.74 1072.03,-160.89 1082.48,-162.63 1081.29,-155.74"/>
</g>
<!-- Node4 -->
<g id="node4" class="node">
<title>Node4</title>
<g id="a_node4"><a xlink:href="classitk_1_1LightObject.html" target="_top" xlink:title="Light weight base class for most itk classes.">
<polygon fill="white" stroke="black" points="739.5,-211 739.5,-230 830.5,-230 830.5,-211 739.5,-211"/>
<text text-anchor="middle" x="785" y="-218" font-family="Helvetica,sans-Serif" font-size="10.00">itk::LightObject</text>
</a>
</g>
</g>
<!-- Node4&#45;&gt;Node3 -->
<g id="edge3" class="edge">
<title>Node4&#45;&gt;Node3</title>
<path fill="none" stroke="midnightblue" d="M840.73,-219.52C881.9,-217.4 939.19,-211.48 987,-195.5 1000.42,-191.01 1014.27,-182.76 1024.06,-176.2"/>
<polygon fill="midnightblue" stroke="midnightblue" points="840.46,-216.03 830.63,-219.98 840.78,-223.02 840.46,-216.03"/>
</g>
<!-- Node5 -->
<g id="node5" class="node">
<title>Node5</title>
<g id="a_node5"><a xlink:title=" ">
<polygon fill="white" stroke="#bfbfbf" points="457,-210 457,-229 564,-229 564,-210 457,-210"/>
<text text-anchor="middle" x="510.5" y="-217" font-family="Helvetica,sans-Serif" font-size="10.00">std::atomic&lt; int &gt;</text>
</a>
</g>
</g>
<!-- Node5&#45;&gt;Node4 -->
<g id="edge4" class="edge">
<title>Node5&#45;&gt;Node4</title>
<path fill="none" stroke="#9a32cd" stroke-dasharray="5,2" d="M574.18,-219.73C624.64,-219.92 694.33,-220.17 739.29,-220.34"/>
<polygon fill="#9a32cd" stroke="#9a32cd" points="574.05,-216.23 564.04,-219.69 574.03,-223.23 574.05,-216.23"/>
<text text-anchor="middle" x="651.5" y="-222.5" font-family="Helvetica,sans-Serif" font-size="10.00"> m_ReferenceCount</text>
</g>
<!-- Node6 -->
<g id="node6" class="node">
<title>Node6</title>
<g id="a_node6"><a xlink:title="STL class.">
<polygon fill="white" stroke="#bfbfbf" points="123,-174 123,-193 223,-193 223,-174 123,-174"/>
<text text-anchor="middle" x="173" y="-181" font-family="Helvetica,sans-Serif" font-size="10.00">std::atomic&lt; T &gt;</text>
</a>
</g>
</g>
<!-- Node6&#45;&gt;Node5 -->
<g id="edge5" class="edge">
<title>Node6&#45;&gt;Node5</title>
<path fill="none" stroke="orange" stroke-dasharray="5,2" d="M233.43,-193.26C239.03,-194.06 244.62,-194.83 250,-195.5 321.38,-204.43 404.2,-211.52 456.71,-215.62"/>
<polygon fill="orange" stroke="orange" points="233.81,-189.78 223.4,-191.77 232.78,-196.7 233.81,-189.78"/>
<text text-anchor="middle" x="334" y="-214.5" font-family="Helvetica,sans-Serif" font-size="10.00"> &lt; int &gt;</text>
</g>
<!-- Node15 -->
<g id="node15" class="node">
<title>Node15</title>
<g id="a_node15"><a xlink:href="classitk_1_1TimeStamp.html" target="_top" xlink:title="Generate a unique, increasing time value.">
<polygon fill="white" stroke="black" points="605.5,-172 605.5,-191 697.5,-191 697.5,-172 605.5,-172"/>
<text text-anchor="middle" x="651.5" y="-179" font-family="Helvetica,sans-Serif" font-size="10.00">itk::TimeStamp</text>
</a>
</g>
</g>
<!-- Node6&#45;&gt;Node15 -->
<g id="edge17" class="edge">
<title>Node6&#45;&gt;Node15</title>
<path fill="none" stroke="#9a32cd" stroke-dasharray="5,2" d="M233.22,-180.94C238.89,-180.76 244.55,-180.61 250,-180.5 378.96,-177.96 531.31,-179.62 605.45,-180.74"/>
<polygon fill="#9a32cd" stroke="#9a32cd" points="232.93,-177.44 223.05,-181.28 233.16,-184.44 232.93,-177.44"/>
<text text-anchor="middle" x="334" y="-183.5" font-family="Helvetica,sans-Serif" font-size="10.00"> m_GlobalTimeStamp</text>
</g>
<!-- Node7 -->
<g id="node7" class="node">
<title>Node7</title>
<g id="a_node7"><a xlink:title=" ">
<polygon fill="white" stroke="#bfbfbf" points="0,-137 0,-156 29,-156 29,-137 0,-137"/>
<text text-anchor="middle" x="14.5" y="-144" font-family="Helvetica,sans-Serif" font-size="10.00">T</text>
</a>
</g>
</g>
<!-- Node7&#45;&gt;Node6 -->
<g id="edge6" class="edge">
<title>Node7&#45;&gt;Node6</title>
<path fill="none" stroke="#9a32cd" stroke-dasharray="5,2" d="M38.37,-157.41C41.23,-158.56 44.16,-159.62 47,-160.5 71.56,-168.1 99.65,-173.55 122.98,-177.22"/>
<polygon fill="#9a32cd" stroke="#9a32cd" points="39.6,-154.13 29.03,-153.36 36.81,-160.55 39.6,-154.13"/>
<text text-anchor="middle" x="71.5" y="-174.5" font-family="Helvetica,sans-Serif" font-size="10.00"> ptr</text>
</g>
<!-- Node12 -->
<g id="node12" class="node">
<title>Node12</title>
<g id="a_node12"><a xlink:title="STL class.">
<polygon fill="white" stroke="#bfbfbf" points="122.5,-98 122.5,-117 223.5,-117 223.5,-98 122.5,-98"/>
<text text-anchor="middle" x="173" y="-105" font-family="Helvetica,sans-Serif" font-size="10.00">std::map&lt; K, T &gt;</text>
</a>
</g>
</g>
<!-- Node7&#45;&gt;Node12 -->
<g id="edge13" class="edge">
<title>Node7&#45;&gt;Node12</title>
<path fill="none" stroke="#9a32cd" stroke-dasharray="5,2" d="M38.44,-133.9C41.27,-132.63 44.17,-131.46 47,-130.5 71.25,-122.3 99.19,-116.81 122.49,-113.26"/>
<polygon fill="#9a32cd" stroke="#9a32cd" points="36.66,-130.88 29.24,-138.44 39.75,-137.16 36.66,-130.88"/>
<text text-anchor="middle" x="71.5" y="-133.5" font-family="Helvetica,sans-Serif" font-size="10.00"> elements</text>
</g>
<!-- Node14 -->
<g id="node14" class="node">
<title>Node14</title>
<g id="a_node14"><a xlink:title="STL class.">
<polygon fill="white" stroke="#bfbfbf" points="114,-136 114,-155 232,-155 232,-136 114,-136"/>
<text text-anchor="middle" x="173" y="-143" font-family="Helvetica,sans-Serif" font-size="10.00">std::shared_ptr&lt; T &gt;</text>
</a>
</g>
</g>
<!-- Node7&#45;&gt;Node14 -->
<g id="edge15" class="edge">
<title>Node7&#45;&gt;Node14</title>
<path fill="none" stroke="#9a32cd" stroke-dasharray="5,2" d="M39.32,-146.35C59.06,-146.22 87.96,-146.04 113.75,-145.87"/>
<polygon fill="#9a32cd" stroke="#9a32cd" points="39.09,-142.85 29.11,-146.41 39.14,-149.85 39.09,-142.85"/>
<text text-anchor="middle" x="71.5" y="-148.5" font-family="Helvetica,sans-Serif" font-size="10.00"> ptr</text>
</g>
<!-- Node8 -->
<g id="node8" class="node">
<title>Node8</title>
<g id="a_node8"><a xlink:title="STL class.">
<polygon fill="white" stroke="#bfbfbf" points="752.5,-59 752.5,-78 817.5,-78 817.5,-59 752.5,-59"/>
<text text-anchor="middle" x="785" y="-66" font-family="Helvetica,sans-Serif" font-size="10.00">std::string</text>
</a>
</g>
</g>
<!-- Node8&#45;&gt;Node1 -->
<g id="edge22" class="edge">
<title>Node8&#45;&gt;Node1</title>
<path fill="none" stroke="#9a32cd" stroke-dasharray="5,2" d="M817,-55.07C863.83,-36.04 955.82,-3.5 1037.5,-3.5 1037.5,-3.5 1037.5,-3.5 1461.5,-3.5 1494.27,-3.5 1530.3,-5.46 1561.58,-7.8"/>
<polygon fill="#9a32cd" stroke="#9a32cd" points="815.62,-51.85 807.71,-58.91 818.29,-58.32 815.62,-51.85"/>
<text text-anchor="middle" x="1237.5" y="-17.5" font-family="Helvetica,sans-Serif" font-size="10.00"> m_CellDataName</text>
<text text-anchor="middle" x="1237.5" y="-6.5" font-family="Helvetica,sans-Serif" font-size="10.00">m_PointDataName</text>
</g>
<!-- Node8&#45;&gt;Node2 -->
<g id="edge18" class="edge">
<title>Node8&#45;&gt;Node2</title>
<path fill="none" stroke="#9a32cd" stroke-dasharray="5,2" d="M827.65,-71.1C941.7,-78.21 1259.56,-98.03 1395.99,-106.54"/>
<polygon fill="#9a32cd" stroke="#9a32cd" points="827.78,-67.6 817.58,-70.47 827.34,-74.59 827.78,-67.6"/>
<text text-anchor="middle" x="1122.5" y="-94.5" font-family="Helvetica,sans-Serif" font-size="10.00"> m_FileName</text>
</g>
<!-- Node8&#45;&gt;Node3 -->
<g id="edge7" class="edge">
<title>Node8&#45;&gt;Node3</title>
<path fill="none" stroke="#9a32cd" stroke-dasharray="5,2" d="M819.2,-81.79C834.52,-87.65 853.04,-94.36 870,-99.5 921.17,-115.01 938.77,-104.42 987,-127.5 1002.59,-134.96 1017.93,-147.81 1027.54,-156.71"/>
<polygon fill="#9a32cd" stroke="#9a32cd" points="820.23,-78.43 809.64,-78.08 817.7,-84.96 820.23,-78.43"/>
<text text-anchor="middle" x="928.5" y="-130.5" font-family="Helvetica,sans-Serif" font-size="10.00"> m_ObjectName</text>
</g>
<!-- Node8&#45;&gt;Node16 -->
<g id="edge21" class="edge">
<title>Node8&#45;&gt;Node16</title>
<path fill="none" stroke="#9a32cd" stroke-dasharray="5,2" d="M828,-59.3C898.12,-45.89 1042.42,-26.63 1155,-66.5 1183.32,-76.53 1208.99,-101.05 1223.66,-117.21"/>
<polygon fill="#9a32cd" stroke="#9a32cd" points="826.94,-55.95 817.8,-61.31 828.29,-62.81 826.94,-55.95"/>
<text text-anchor="middle" x="1038.5" y="-50.5" font-family="Helvetica,sans-Serif" font-size="10.00"> m_FileName</text>
</g>
<!-- Node9 -->
<g id="node9" class="node">
<title>Node9</title>
<g id="a_node9"><a xlink:title="STL class.">
<polygon fill="white" stroke="#bfbfbf" points="458.5,-53.5 458.5,-83.5 562.5,-83.5 562.5,-53.5 458.5,-53.5"/>
<text text-anchor="start" x="466.5" y="-71.5" font-family="Helvetica,sans-Serif" font-size="10.00">std::basic_string&lt;</text>
<text text-anchor="middle" x="510.5" y="-60.5" font-family="Helvetica,sans-Serif" font-size="10.00"> char &gt;</text>
</a>
</g>
</g>
<!-- Node9&#45;&gt;Node8 -->
<g id="edge8" class="edge">
<title>Node9&#45;&gt;Node8</title>
<path fill="none" stroke="midnightblue" d="M572.85,-68.5C628.49,-68.5 708.3,-68.5 752.14,-68.5"/>
<polygon fill="midnightblue" stroke="midnightblue" points="572.76,-65 562.76,-68.5 572.76,-72 572.76,-65"/>
</g>
<!-- Node10 -->
<g id="node10" class="node">
<title>Node10</title>
<g id="a_node10"><a xlink:href="classitk_1_1MetaDataDictionary.html" target="_top" xlink:title="Provides a mechanism for storing a collection of arbitrary data types.">
<polygon fill="white" stroke="black" points="718,-126 718,-145 852,-145 852,-126 718,-126"/>
<text text-anchor="middle" x="785" y="-133" font-family="Helvetica,sans-Serif" font-size="10.00">itk::MetaDataDictionary</text>
</a>
</g>
</g>
<!-- Node10&#45;&gt;Node3 -->
<g id="edge9" class="edge">
<title>Node10&#45;&gt;Node3</title>
<path fill="none" stroke="#9a32cd" stroke-dasharray="5,2" d="M862.65,-141.85C900.23,-145.38 946.09,-150.33 987,-156.5 992.83,-157.38 999.01,-158.47 1004.98,-159.61"/>
<polygon fill="#9a32cd" stroke="#9a32cd" points="862.56,-138.33 852.28,-140.89 861.91,-145.3 862.56,-138.33"/>
<text text-anchor="middle" x="928.5" y="-159.5" font-family="Helvetica,sans-Serif" font-size="10.00"> m_MetaDataDictionary</text>
</g>
<!-- Node11 -->
<g id="node11" class="node">
<title>Node11</title>
<g id="a_node11"><a xlink:title=" ">
<polygon fill="white" stroke="#bfbfbf" points="436,-120.5 436,-150.5 585,-150.5 585,-120.5 436,-120.5"/>
<text text-anchor="start" x="444" y="-138.5" font-family="Helvetica,sans-Serif" font-size="10.00">std::shared_ptr&lt; MetaData</text>
<text text-anchor="middle" x="510.5" y="-127.5" font-family="Helvetica,sans-Serif" font-size="10.00">DictionaryMapType &gt;</text>
</a>
</g>
</g>
<!-- Node11&#45;&gt;Node10 -->
<g id="edge10" class="edge">
<title>Node11&#45;&gt;Node10</title>
<path fill="none" stroke="#9a32cd" stroke-dasharray="5,2" d="M595.34,-135.5C634.65,-135.5 680.82,-135.5 717.65,-135.5"/>
<polygon fill="#9a32cd" stroke="#9a32cd" points="595.24,-132 585.24,-135.5 595.24,-139 595.24,-132"/>
<text text-anchor="middle" x="651.5" y="-138.5" font-family="Helvetica,sans-Serif" font-size="10.00"> m_Dictionary</text>
</g>
<!-- Node12&#45;&gt;Node11 -->
<g id="edge11" class="edge">
<title>Node12&#45;&gt;Node11</title>
<path fill="none" stroke="#9a32cd" stroke-dasharray="5,2" d="M233.83,-109.85C283.29,-112.1 355.32,-116.13 418,-122.5 423.75,-123.08 429.69,-123.76 435.65,-124.49"/>
<polygon fill="#9a32cd" stroke="#9a32cd" points="233.78,-106.34 223.63,-109.39 233.46,-113.33 233.78,-106.34"/>
<text text-anchor="middle" x="334" y="-125.5" font-family="Helvetica,sans-Serif" font-size="10.00"> ptr</text>
</g>
<!-- Node13 -->
<g id="node13" class="node">
<title>Node13</title>
<g id="a_node13"><a xlink:title=" ">
<polygon fill="white" stroke="#bfbfbf" points="0,-69 0,-88 29,-88 29,-69 0,-69"/>
<text text-anchor="middle" x="14.5" y="-76" font-family="Helvetica,sans-Serif" font-size="10.00">K</text>
</a>
</g>
</g>
<!-- Node13&#45;&gt;Node12 -->
<g id="edge12" class="edge">
<title>Node13&#45;&gt;Node12</title>
<path fill="none" stroke="#9a32cd" stroke-dasharray="5,2" d="M39.2,-76.7C55.34,-75.98 77.13,-76.01 96,-79.5 115.63,-83.13 136.87,-91.35 151.89,-97.95"/>
<polygon fill="#9a32cd" stroke="#9a32cd" points="38.81,-73.21 29.02,-77.28 39.21,-80.2 38.81,-73.21"/>
<text text-anchor="middle" x="71.5" y="-82.5" font-family="Helvetica,sans-Serif" font-size="10.00"> keys</text>
</g>
<!-- Node14&#45;&gt;Node11 -->
<g id="edge14" class="edge">
<title>Node14&#45;&gt;Node11</title>
<path fill="none" stroke="orange" stroke-dasharray="5,2" d="M242.27,-143.47C298.5,-141.79 378.06,-139.42 435.74,-137.7"/>
<polygon fill="orange" stroke="orange" points="241.95,-139.97 232.06,-143.77 242.16,-146.97 241.95,-139.97"/>
<text text-anchor="middle" x="334" y="-145.5" font-family="Helvetica,sans-Serif" font-size="10.00"> &lt; MetaDataDictionaryMapType &gt;</text>
</g>
<!-- Node15&#45;&gt;Node3 -->
<g id="edge16" class="edge">
<title>Node15&#45;&gt;Node3</title>
<path fill="none" stroke="#9a32cd" stroke-dasharray="5,2" d="M707.87,-179.34C789.37,-176.17 939.09,-170.33 1004.95,-167.77"/>
<polygon fill="#9a32cd" stroke="#9a32cd" points="707.65,-175.85 697.8,-179.74 707.93,-182.84 707.65,-175.85"/>
<text text-anchor="middle" x="785" y="-181.5" font-family="Helvetica,sans-Serif" font-size="10.00"> m_MTime</text>
</g>
<!-- Node16&#45;&gt;Node2 -->
<g id="edge19" class="edge">
<title>Node16&#45;&gt;Node2</title>
<path fill="none" stroke="orange" stroke-dasharray="5,2" d="M1312.33,-125.15C1339.42,-122.45 1369.83,-119.43 1395.94,-116.83"/>
<polygon fill="orange" stroke="orange" points="1311.73,-121.69 1302.13,-126.17 1312.42,-128.66 1311.73,-121.69"/>
<text text-anchor="middle" x="1349" y="-126.5" font-family="Helvetica,sans-Serif" font-size="10.00"> &lt; TMesh &gt;</text>
</g>
</g>
</svg>
