<?xml version="1.0" encoding="UTF-8" standalone="no"?>
<!DOCTYPE svg PUBLIC "-//W3C//DTD SVG 1.1//EN"
 "http://www.w3.org/Graphics/SVG/1.1/DTD/svg11.dtd">
<!-- Generated by graphviz version 2.43.0 (0)
 -->
<!-- Title: itk::QuadEdgeMeshConstIteratorGeom&lt; TGeometricalQuadEdge &gt; Pages: 1 -->
<svg width="1106pt" height="88pt"
 viewBox="0.00 0.00 1106.00 88.00" xmlns="http://www.w3.org/2000/svg" xmlns:xlink="http://www.w3.org/1999/xlink">
<g id="graph0" class="graph" transform="scale(1 1) rotate(0) translate(4 84)">
<title>itk::QuadEdgeMeshConstIteratorGeom&lt; TGeometricalQuadEdge &gt;</title>
<polygon fill="white" stroke="transparent" points="-4,4 -4,-84 1102,-84 1102,4 -4,4"/>
<!-- Node1 -->
<g id="node1" class="node">
<title>Node1</title>
<g id="a_node1"><a xlink:title="Const geometrical iterator.">
<polygon fill="#bfbfbf" stroke="black" points="914,-27.5 914,-57.5 1098,-57.5 1098,-27.5 914,-27.5"/>
<text text-anchor="start" x="922" y="-45.5" font-family="Helvetica,sans-Serif" font-size="10.00">itk::QuadEdgeMeshConstIterator</text>
<text text-anchor="middle" x="1006" y="-34.5" font-family="Helvetica,sans-Serif" font-size="10.00">Geom&lt; TGeometricalQuadEdge &gt;</text>
</a>
</g>
</g>
<!-- Node2 -->
<g id="node2" class="node">
<title>Node2</title>
<g id="a_node2"><a xlink:href="classitk_1_1QuadEdgeMeshConstIterator.html" target="_top" xlink:title=" ">
<polygon fill="white" stroke="black" points="702,-27.5 702,-57.5 877,-57.5 877,-27.5 702,-27.5"/>
<text text-anchor="start" x="710" y="-45.5" font-family="Helvetica,sans-Serif" font-size="10.00">itk::QuadEdgeMeshConstIterator</text>
<text text-anchor="middle" x="789.5" y="-34.5" font-family="Helvetica,sans-Serif" font-size="10.00">&lt; TGeometricalQuadEdge &gt;</text>
</a>
</g>
</g>
<!-- Node2&#45;&gt;Node1 -->
<g id="edge1" class="edge">
<title>Node2&#45;&gt;Node1</title>
<path fill="none" stroke="midnightblue" d="M887.4,-42.5C896.2,-42.5 905.1,-42.5 913.85,-42.5"/>
<polygon fill="midnightblue" stroke="midnightblue" points="887.13,-39 877.13,-42.5 887.13,-46 887.13,-39"/>
</g>
<!-- Node3 -->
<g id="node3" class="node">
<title>Node3</title>
<g id="a_node3"><a xlink:href="classitk_1_1QuadEdgeMeshBaseIterator.html" target="_top" xlink:title=" ">
<polygon fill="white" stroke="black" points="351,-49.5 351,-79.5 522,-79.5 522,-49.5 351,-49.5"/>
<text text-anchor="start" x="359" y="-67.5" font-family="Helvetica,sans-Serif" font-size="10.00">itk::QuadEdgeMeshBaseIterator</text>
<text text-anchor="middle" x="436.5" y="-56.5" font-family="Helvetica,sans-Serif" font-size="10.00">&lt; TGeometricalQuadEdge &gt;</text>
</a>
</g>
</g>
<!-- Node3&#45;&gt;Node2 -->
<g id="edge2" class="edge">
<title>Node3&#45;&gt;Node2</title>
<path fill="none" stroke="midnightblue" d="M532.08,-58.57C584.98,-55.26 650.43,-51.15 701.97,-47.92"/>
<polygon fill="midnightblue" stroke="midnightblue" points="531.78,-55.08 522.02,-59.2 532.22,-62.07 531.78,-55.08"/>
</g>
<!-- Node4 -->
<g id="node4" class="node">
<title>Node4</title>
<g id="a_node4"><a xlink:href="classitk_1_1QuadEdgeMeshBaseIterator.html" target="_top" xlink:title="Base iterator class for QuadEdgeMesh.">
<polygon fill="white" stroke="black" points="0,-24.5 0,-54.5 171,-54.5 171,-24.5 0,-24.5"/>
<text text-anchor="start" x="8" y="-42.5" font-family="Helvetica,sans-Serif" font-size="10.00">itk::QuadEdgeMeshBaseIterator</text>
<text text-anchor="middle" x="85.5" y="-31.5" font-family="Helvetica,sans-Serif" font-size="10.00">&lt; TQuadEdge &gt;</text>
</a>
</g>
</g>
<!-- Node4&#45;&gt;Node3 -->
<g id="edge3" class="edge">
<title>Node4&#45;&gt;Node3</title>
<path fill="none" stroke="orange" stroke-dasharray="5,2" d="M181.49,-46.3C234.38,-50.09 299.66,-54.77 350.8,-58.43"/>
<polygon fill="orange" stroke="orange" points="181.65,-42.81 171.43,-45.58 181.15,-49.79 181.65,-42.81"/>
<text text-anchor="middle" x="260" y="-58.5" font-family="Helvetica,sans-Serif" font-size="10.00"> &lt; TGeometricalQuadEdge &gt;</text>
</g>
<!-- Node5 -->
<g id="node5" class="node">
<title>Node5</title>
<g id="a_node5"><a xlink:href="classitk_1_1QuadEdgeMeshConstIterator.html" target="_top" xlink:title="Const iterator for QuadEdgeMesh.">
<polygon fill="white" stroke="black" points="349,-0.5 349,-30.5 524,-30.5 524,-0.5 349,-0.5"/>
<text text-anchor="start" x="357" y="-18.5" font-family="Helvetica,sans-Serif" font-size="10.00">itk::QuadEdgeMeshConstIterator</text>
<text text-anchor="middle" x="436.5" y="-7.5" font-family="Helvetica,sans-Serif" font-size="10.00">&lt; TQuadEdge &gt;</text>
</a>
</g>
</g>
<!-- Node4&#45;&gt;Node5 -->
<g id="edge5" class="edge">
<title>Node4&#45;&gt;Node5</title>
<path fill="none" stroke="midnightblue" d="M181.71,-32.95C233.93,-29.36 298.18,-24.94 348.98,-21.45"/>
<polygon fill="midnightblue" stroke="midnightblue" points="181.17,-29.48 171.43,-33.66 181.65,-36.47 181.17,-29.48"/>
</g>
<!-- Node5&#45;&gt;Node2 -->
<g id="edge4" class="edge">
<title>Node5&#45;&gt;Node2</title>
<path fill="none" stroke="orange" stroke-dasharray="5,2" d="M534.25,-22.94C586.71,-26.98 651.01,-31.92 701.82,-35.83"/>
<polygon fill="orange" stroke="orange" points="534.5,-19.45 524.26,-22.17 533.97,-26.43 534.5,-19.45"/>
<text text-anchor="middle" x="613" y="-36.5" font-family="Helvetica,sans-Serif" font-size="10.00"> &lt; TGeometricalQuadEdge &gt;</text>
</g>
</g>
</svg>
