<?xml version="1.0" encoding="UTF-8" standalone="no"?>
<!DOCTYPE svg PUBLIC "-//W3C//DTD SVG 1.1//EN"
 "http://www.w3.org/Graphics/SVG/1.1/DTD/svg11.dtd">
<!-- Generated by graphviz version 2.43.0 (0)
 -->
<!-- Title: itk::CumulativeGaussianCostFunction Pages: 1 -->
<svg width="2096pt" height="209pt"
 viewBox="0.00 0.00 2096.00 209.00" xmlns="http://www.w3.org/2000/svg" xmlns:xlink="http://www.w3.org/1999/xlink">
<g id="graph0" class="graph" transform="scale(1 1) rotate(0) translate(4 205)">
<title>itk::CumulativeGaussianCostFunction</title>
<polygon fill="white" stroke="transparent" points="-4,4 -4,-205 2092,-205 2092,4 -4,4"/>
<!-- Node1 -->
<g id="node1" class="node">
<title>Node1</title>
<g id="a_node1"><a xlink:title="Cost function for the Cumulative Gaussian Optimizer.">
<polygon fill="#bfbfbf" stroke="black" points="1930,-52 1930,-82 2088,-82 2088,-52 1930,-52"/>
<text text-anchor="start" x="1938" y="-70" font-family="Helvetica,sans-Serif" font-size="10.00">itk::CumulativeGaussianCost</text>
<text text-anchor="middle" x="2009" y="-59" font-family="Helvetica,sans-Serif" font-size="10.00">Function</text>
</a>
</g>
</g>
<!-- Node2 -->
<g id="node2" class="node">
<title>Node2</title>
<g id="a_node2"><a xlink:href="classitk_1_1MultipleValuedCostFunction.html" target="_top" xlink:title="This class is a base for the CostFunctions returning a multiple values.">
<polygon fill="white" stroke="black" points="1617,-81.5 1617,-100.5 1788,-100.5 1788,-81.5 1617,-81.5"/>
<text text-anchor="middle" x="1702.5" y="-88.5" font-family="Helvetica,sans-Serif" font-size="10.00">itk::MultipleValuedCostFunction</text>
</a>
</g>
</g>
<!-- Node2&#45;&gt;Node1 -->
<g id="edge1" class="edge">
<title>Node2&#45;&gt;Node1</title>
<path fill="none" stroke="midnightblue" d="M1798.4,-85.37C1834.05,-83.06 1874.91,-80.18 1912,-77 1917.84,-76.5 1923.88,-75.95 1929.96,-75.37"/>
<polygon fill="midnightblue" stroke="midnightblue" points="1797.76,-81.9 1788.01,-86.03 1798.21,-88.89 1797.76,-81.9"/>
</g>
<!-- Node3 -->
<g id="node3" class="node">
<title>Node3</title>
<g id="a_node3"><a xlink:href="classitk_1_1CostFunctionTemplate.html" target="_top" xlink:title=" ">
<polygon fill="white" stroke="black" points="1420.5,-81.5 1420.5,-100.5 1500.5,-100.5 1500.5,-81.5 1420.5,-81.5"/>
<text text-anchor="middle" x="1460.5" y="-88.5" font-family="Helvetica,sans-Serif" font-size="10.00">CostFunction</text>
</a>
</g>
</g>
<!-- Node3&#45;&gt;Node2 -->
<g id="edge2" class="edge">
<title>Node3&#45;&gt;Node2</title>
<path fill="none" stroke="midnightblue" d="M1510.97,-91C1541.49,-91 1581.44,-91 1616.88,-91"/>
<polygon fill="midnightblue" stroke="midnightblue" points="1510.59,-87.5 1500.59,-91 1510.59,-94.5 1510.59,-87.5"/>
</g>
<!-- Node4 -->
<g id="node4" class="node">
<title>Node4</title>
<g id="a_node4"><a xlink:href="classitk_1_1Object.html" target="_top" xlink:title="Base class for most ITK classes.">
<polygon fill="white" stroke="black" points="1005,-82.5 1005,-101.5 1072,-101.5 1072,-82.5 1005,-82.5"/>
<text text-anchor="middle" x="1038.5" y="-89.5" font-family="Helvetica,sans-Serif" font-size="10.00">itk::Object</text>
</a>
</g>
</g>
<!-- Node4&#45;&gt;Node3 -->
<g id="edge3" class="edge">
<title>Node4&#45;&gt;Node3</title>
<path fill="none" stroke="midnightblue" d="M1082.18,-99.24C1084.82,-99.54 1087.44,-99.8 1090,-100 1218.93,-110.15 1251.88,-107.38 1381,-100 1393.87,-99.26 1407.88,-97.86 1420.45,-96.37"/>
<polygon fill="midnightblue" stroke="midnightblue" points="1082.38,-95.74 1072.01,-97.92 1081.47,-102.68 1082.38,-95.74"/>
</g>
<!-- Node17 -->
<g id="node17" class="node">
<title>Node17</title>
<g id="a_node17"><a xlink:href="classitk_1_1CostFunctionTemplate.html" target="_top" xlink:title=" ">
<polygon fill="white" stroke="black" points="1109,-55 1109,-85 1304,-85 1304,-55 1109,-55"/>
<text text-anchor="start" x="1117" y="-73" font-family="Helvetica,sans-Serif" font-size="10.00">itk::CostFunctionTemplate</text>
<text text-anchor="middle" x="1206.5" y="-62" font-family="Helvetica,sans-Serif" font-size="10.00">&lt; TInternalComputationValueType &gt;</text>
</a>
</g>
</g>
<!-- Node4&#45;&gt;Node17 -->
<g id="edge20" class="edge">
<title>Node4&#45;&gt;Node17</title>
<path fill="none" stroke="midnightblue" d="M1082.33,-86.32C1090.58,-85.23 1099.52,-84.05 1108.69,-82.83"/>
<polygon fill="midnightblue" stroke="midnightblue" points="1081.75,-82.87 1072.3,-87.65 1082.67,-89.81 1081.75,-82.87"/>
</g>
<!-- Node5 -->
<g id="node5" class="node">
<title>Node5</title>
<g id="a_node5"><a xlink:href="classitk_1_1LightObject.html" target="_top" xlink:title="Light weight base class for most itk classes.">
<polygon fill="white" stroke="black" points="739.5,-109.5 739.5,-128.5 830.5,-128.5 830.5,-109.5 739.5,-109.5"/>
<text text-anchor="middle" x="785" y="-116.5" font-family="Helvetica,sans-Serif" font-size="10.00">itk::LightObject</text>
</a>
</g>
</g>
<!-- Node5&#45;&gt;Node4 -->
<g id="edge4" class="edge">
<title>Node5&#45;&gt;Node4</title>
<path fill="none" stroke="midnightblue" d="M840.69,-113.13C890.77,-107.75 963.25,-99.97 1004.84,-95.51"/>
<polygon fill="midnightblue" stroke="midnightblue" points="840.24,-109.66 830.67,-114.2 840.99,-116.62 840.24,-109.66"/>
</g>
<!-- Node6 -->
<g id="node6" class="node">
<title>Node6</title>
<g id="a_node6"><a xlink:title=" ">
<polygon fill="white" stroke="#bfbfbf" points="457,-108.5 457,-127.5 564,-127.5 564,-108.5 457,-108.5"/>
<text text-anchor="middle" x="510.5" y="-115.5" font-family="Helvetica,sans-Serif" font-size="10.00">std::atomic&lt; int &gt;</text>
</a>
</g>
</g>
<!-- Node6&#45;&gt;Node5 -->
<g id="edge5" class="edge">
<title>Node6&#45;&gt;Node5</title>
<path fill="none" stroke="#9a32cd" stroke-dasharray="5,2" d="M574.18,-118.23C624.64,-118.42 694.33,-118.67 739.29,-118.84"/>
<polygon fill="#9a32cd" stroke="#9a32cd" points="574.05,-114.73 564.04,-118.19 574.03,-121.73 574.05,-114.73"/>
<text text-anchor="middle" x="651.5" y="-122" font-family="Helvetica,sans-Serif" font-size="10.00"> m_ReferenceCount</text>
</g>
<!-- Node7 -->
<g id="node7" class="node">
<title>Node7</title>
<g id="a_node7"><a xlink:title="STL class.">
<polygon fill="white" stroke="#bfbfbf" points="123,-105.5 123,-124.5 223,-124.5 223,-105.5 123,-105.5"/>
<text text-anchor="middle" x="173" y="-112.5" font-family="Helvetica,sans-Serif" font-size="10.00">std::atomic&lt; T &gt;</text>
</a>
</g>
</g>
<!-- Node7&#45;&gt;Node6 -->
<g id="edge6" class="edge">
<title>Node7&#45;&gt;Node6</title>
<path fill="none" stroke="orange" stroke-dasharray="5,2" d="M233.38,-115.53C296.77,-116.1 396.25,-116.99 456.9,-117.53"/>
<polygon fill="orange" stroke="orange" points="233.17,-112.03 223.14,-115.44 233.11,-119.03 233.17,-112.03"/>
<text text-anchor="middle" x="334" y="-121" font-family="Helvetica,sans-Serif" font-size="10.00"> &lt; int &gt;</text>
</g>
<!-- Node16 -->
<g id="node16" class="node">
<title>Node16</title>
<g id="a_node16"><a xlink:href="classitk_1_1TimeStamp.html" target="_top" xlink:title="Generate a unique, increasing time value.">
<polygon fill="white" stroke="black" points="605.5,-70.5 605.5,-89.5 697.5,-89.5 697.5,-70.5 605.5,-70.5"/>
<text text-anchor="middle" x="651.5" y="-77.5" font-family="Helvetica,sans-Serif" font-size="10.00">itk::TimeStamp</text>
</a>
</g>
</g>
<!-- Node7&#45;&gt;Node16 -->
<g id="edge18" class="edge">
<title>Node7&#45;&gt;Node16</title>
<path fill="none" stroke="#9a32cd" stroke-dasharray="5,2" d="M230.63,-103.73C237.14,-102.69 243.7,-101.74 250,-101 378.27,-85.89 530.93,-81.65 605.29,-80.46"/>
<polygon fill="#9a32cd" stroke="#9a32cd" points="229.75,-100.33 220.48,-105.45 230.92,-107.23 229.75,-100.33"/>
<text text-anchor="middle" x="334" y="-104" font-family="Helvetica,sans-Serif" font-size="10.00"> m_GlobalTimeStamp</text>
</g>
<!-- Node8 -->
<g id="node8" class="node">
<title>Node8</title>
<g id="a_node8"><a xlink:title=" ">
<polygon fill="white" stroke="#bfbfbf" points="0,-144.5 0,-163.5 29,-163.5 29,-144.5 0,-144.5"/>
<text text-anchor="middle" x="14.5" y="-151.5" font-family="Helvetica,sans-Serif" font-size="10.00">T</text>
</a>
</g>
</g>
<!-- Node8&#45;&gt;Node7 -->
<g id="edge7" class="edge">
<title>Node8&#45;&gt;Node7</title>
<path fill="none" stroke="#9a32cd" stroke-dasharray="5,2" d="M38.44,-141.4C41.27,-140.13 44.17,-138.96 47,-138 71.35,-129.77 99.43,-124.27 122.79,-120.71"/>
<polygon fill="#9a32cd" stroke="#9a32cd" points="36.66,-138.38 29.24,-145.94 39.75,-144.66 36.66,-138.38"/>
<text text-anchor="middle" x="71.5" y="-141" font-family="Helvetica,sans-Serif" font-size="10.00"> ptr</text>
</g>
<!-- Node13 -->
<g id="node13" class="node">
<title>Node13</title>
<g id="a_node13"><a xlink:title="STL class.">
<polygon fill="white" stroke="#bfbfbf" points="122.5,-143.5 122.5,-162.5 223.5,-162.5 223.5,-143.5 122.5,-143.5"/>
<text text-anchor="middle" x="173" y="-150.5" font-family="Helvetica,sans-Serif" font-size="10.00">std::map&lt; K, T &gt;</text>
</a>
</g>
</g>
<!-- Node8&#45;&gt;Node13 -->
<g id="edge14" class="edge">
<title>Node8&#45;&gt;Node13</title>
<path fill="none" stroke="#9a32cd" stroke-dasharray="5,2" d="M39.19,-153.85C61.16,-153.71 94.54,-153.49 122.35,-153.32"/>
<polygon fill="#9a32cd" stroke="#9a32cd" points="39.09,-150.35 29.11,-153.91 39.14,-157.35 39.09,-150.35"/>
<text text-anchor="middle" x="71.5" y="-156" font-family="Helvetica,sans-Serif" font-size="10.00"> elements</text>
</g>
<!-- Node15 -->
<g id="node15" class="node">
<title>Node15</title>
<g id="a_node15"><a xlink:title="STL class.">
<polygon fill="white" stroke="#bfbfbf" points="114,-181.5 114,-200.5 232,-200.5 232,-181.5 114,-181.5"/>
<text text-anchor="middle" x="173" y="-188.5" font-family="Helvetica,sans-Serif" font-size="10.00">std::shared_ptr&lt; T &gt;</text>
</a>
</g>
</g>
<!-- Node8&#45;&gt;Node15 -->
<g id="edge16" class="edge">
<title>Node8&#45;&gt;Node15</title>
<path fill="none" stroke="#9a32cd" stroke-dasharray="5,2" d="M38.37,-164.91C41.23,-166.06 44.16,-167.12 47,-168 68.4,-174.62 92.48,-179.61 113.75,-183.21"/>
<polygon fill="#9a32cd" stroke="#9a32cd" points="39.6,-161.63 29.03,-160.86 36.81,-168.05 39.6,-161.63"/>
<text text-anchor="middle" x="71.5" y="-182" font-family="Helvetica,sans-Serif" font-size="10.00"> ptr</text>
</g>
<!-- Node9 -->
<g id="node9" class="node">
<title>Node9</title>
<g id="a_node9"><a xlink:title="STL class.">
<polygon fill="white" stroke="#bfbfbf" points="752.5,-24.5 752.5,-43.5 817.5,-43.5 817.5,-24.5 752.5,-24.5"/>
<text text-anchor="middle" x="785" y="-31.5" font-family="Helvetica,sans-Serif" font-size="10.00">std::string</text>
</a>
</g>
</g>
<!-- Node9&#45;&gt;Node4 -->
<g id="edge8" class="edge">
<title>Node9&#45;&gt;Node4</title>
<path fill="none" stroke="#9a32cd" stroke-dasharray="5,2" d="M827.91,-32.12C869.63,-31.66 934.79,-34.86 987,-55 1002.82,-61.1 1018.11,-73.51 1027.64,-82.27"/>
<polygon fill="#9a32cd" stroke="#9a32cd" points="827.76,-28.62 817.83,-32.3 827.89,-35.62 827.76,-28.62"/>
<text text-anchor="middle" x="928.5" y="-58" font-family="Helvetica,sans-Serif" font-size="10.00"> m_ObjectName</text>
</g>
<!-- Node10 -->
<g id="node10" class="node">
<title>Node10</title>
<g id="a_node10"><a xlink:title="STL class.">
<polygon fill="white" stroke="#bfbfbf" points="458.5,-19 458.5,-49 562.5,-49 562.5,-19 458.5,-19"/>
<text text-anchor="start" x="466.5" y="-37" font-family="Helvetica,sans-Serif" font-size="10.00">std::basic_string&lt;</text>
<text text-anchor="middle" x="510.5" y="-26" font-family="Helvetica,sans-Serif" font-size="10.00"> char &gt;</text>
</a>
</g>
</g>
<!-- Node10&#45;&gt;Node9 -->
<g id="edge9" class="edge">
<title>Node10&#45;&gt;Node9</title>
<path fill="none" stroke="midnightblue" d="M572.85,-34C628.49,-34 708.3,-34 752.14,-34"/>
<polygon fill="midnightblue" stroke="midnightblue" points="572.76,-30.5 562.76,-34 572.76,-37.5 572.76,-30.5"/>
</g>
<!-- Node11 -->
<g id="node11" class="node">
<title>Node11</title>
<g id="a_node11"><a xlink:href="classitk_1_1MetaDataDictionary.html" target="_top" xlink:title="Provides a mechanism for storing a collection of arbitrary data types.">
<polygon fill="white" stroke="black" points="718,-149.5 718,-168.5 852,-168.5 852,-149.5 718,-149.5"/>
<text text-anchor="middle" x="785" y="-156.5" font-family="Helvetica,sans-Serif" font-size="10.00">itk::MetaDataDictionary</text>
</a>
</g>
</g>
<!-- Node11&#45;&gt;Node4 -->
<g id="edge10" class="edge">
<title>Node11&#45;&gt;Node4</title>
<path fill="none" stroke="#9a32cd" stroke-dasharray="5,2" d="M862.41,-148.48C900.52,-141.97 946.91,-132.11 987,-118 999.09,-113.74 1011.93,-107.11 1021.63,-101.6"/>
<polygon fill="#9a32cd" stroke="#9a32cd" points="861.69,-145.05 852.4,-150.15 862.84,-151.96 861.69,-145.05"/>
<text text-anchor="middle" x="928.5" y="-149" font-family="Helvetica,sans-Serif" font-size="10.00"> m_MetaDataDictionary</text>
</g>
<!-- Node12 -->
<g id="node12" class="node">
<title>Node12</title>
<g id="a_node12"><a xlink:title=" ">
<polygon fill="white" stroke="#bfbfbf" points="436,-147 436,-177 585,-177 585,-147 436,-147"/>
<text text-anchor="start" x="444" y="-165" font-family="Helvetica,sans-Serif" font-size="10.00">std::shared_ptr&lt; MetaData</text>
<text text-anchor="middle" x="510.5" y="-154" font-family="Helvetica,sans-Serif" font-size="10.00">DictionaryMapType &gt;</text>
</a>
</g>
</g>
<!-- Node12&#45;&gt;Node11 -->
<g id="edge11" class="edge">
<title>Node12&#45;&gt;Node11</title>
<path fill="none" stroke="#9a32cd" stroke-dasharray="5,2" d="M595.34,-161.08C634.65,-160.64 680.82,-160.14 717.65,-159.73"/>
<polygon fill="#9a32cd" stroke="#9a32cd" points="595.2,-157.58 585.24,-161.19 595.28,-164.58 595.2,-157.58"/>
<text text-anchor="middle" x="651.5" y="-163" font-family="Helvetica,sans-Serif" font-size="10.00"> m_Dictionary</text>
</g>
<!-- Node13&#45;&gt;Node12 -->
<g id="edge12" class="edge">
<title>Node13&#45;&gt;Node12</title>
<path fill="none" stroke="#9a32cd" stroke-dasharray="5,2" d="M233.74,-153.34C283.15,-153.78 355.15,-154.77 418,-157 423.72,-157.2 429.65,-157.45 435.6,-157.72"/>
<polygon fill="#9a32cd" stroke="#9a32cd" points="233.58,-149.84 223.55,-153.26 233.52,-156.84 233.58,-149.84"/>
<text text-anchor="middle" x="334" y="-160" font-family="Helvetica,sans-Serif" font-size="10.00"> ptr</text>
</g>
<!-- Node14 -->
<g id="node14" class="node">
<title>Node14</title>
<g id="a_node14"><a xlink:title=" ">
<polygon fill="white" stroke="#bfbfbf" points="0,-76.5 0,-95.5 29,-95.5 29,-76.5 0,-76.5"/>
<text text-anchor="middle" x="14.5" y="-83.5" font-family="Helvetica,sans-Serif" font-size="10.00">K</text>
</a>
</g>
</g>
<!-- Node14&#45;&gt;Node13 -->
<g id="edge13" class="edge">
<title>Node14&#45;&gt;Node13</title>
<path fill="none" stroke="#9a32cd" stroke-dasharray="5,2" d="M39.32,-89.5C56.29,-92.88 79,-99.27 96,-111 106.68,-118.37 103.37,-126.55 114,-134 119.47,-137.83 125.75,-140.93 132.13,-143.42"/>
<polygon fill="#9a32cd" stroke="#9a32cd" points="39.58,-85.99 29.12,-87.69 38.36,-92.88 39.58,-85.99"/>
<text text-anchor="middle" x="71.5" y="-114" font-family="Helvetica,sans-Serif" font-size="10.00"> keys</text>
</g>
<!-- Node15&#45;&gt;Node12 -->
<g id="edge15" class="edge">
<title>Node15&#45;&gt;Node12</title>
<path fill="none" stroke="orange" stroke-dasharray="5,2" d="M242.27,-185.1C298.5,-180.24 378.06,-173.36 435.74,-168.38"/>
<polygon fill="orange" stroke="orange" points="241.72,-181.63 232.06,-185.98 242.32,-188.61 241.72,-181.63"/>
<text text-anchor="middle" x="334" y="-186" font-family="Helvetica,sans-Serif" font-size="10.00"> &lt; MetaDataDictionaryMapType &gt;</text>
</g>
<!-- Node16&#45;&gt;Node4 -->
<g id="edge17" class="edge">
<title>Node16&#45;&gt;Node4</title>
<path fill="none" stroke="#9a32cd" stroke-dasharray="5,2" d="M707.87,-81.73C789.37,-84.27 939.09,-88.93 1004.95,-90.99"/>
<polygon fill="#9a32cd" stroke="#9a32cd" points="707.9,-78.23 697.8,-81.41 707.68,-85.22 707.9,-78.23"/>
<text text-anchor="middle" x="785" y="-89" font-family="Helvetica,sans-Serif" font-size="10.00"> m_MTime</text>
</g>
<!-- Node17&#45;&gt;Node3 -->
<g id="edge19" class="edge">
<title>Node17&#45;&gt;Node3</title>
<path fill="none" stroke="orange" stroke-dasharray="5,2" d="M1314.22,-78.89C1351.83,-82.03 1391.79,-85.36 1420.25,-87.73"/>
<polygon fill="orange" stroke="orange" points="1314.47,-75.4 1304.21,-78.06 1313.88,-82.38 1314.47,-75.4"/>
<text text-anchor="middle" x="1351.5" y="-88" font-family="Helvetica,sans-Serif" font-size="10.00"> &lt; double &gt;</text>
</g>
<!-- Node18 -->
<g id="node18" class="node">
<title>Node18</title>
<g id="a_node18"><a xlink:href="classitk_1_1Array.html" target="_top" xlink:title=" ">
<polygon fill="white" stroke="black" points="1644,-33.5 1644,-52.5 1761,-52.5 1761,-33.5 1644,-33.5"/>
<text text-anchor="middle" x="1702.5" y="-40.5" font-family="Helvetica,sans-Serif" font-size="10.00">itk::Array&lt; double &gt;</text>
</a>
</g>
</g>
<!-- Node18&#45;&gt;Node1 -->
<g id="edge21" class="edge">
<title>Node18&#45;&gt;Node1</title>
<path fill="none" stroke="#9a32cd" stroke-dasharray="5,2" d="M1771.44,-36.86C1812.35,-34.44 1865.38,-33.57 1912,-40 1929.32,-42.39 1947.92,-47.1 1964.09,-51.92"/>
<polygon fill="#9a32cd" stroke="#9a32cd" points="1771.07,-33.38 1761.31,-37.5 1771.51,-40.36 1771.07,-33.38"/>
<text text-anchor="middle" x="1859" y="-65" font-family="Helvetica,sans-Serif" font-size="10.00"> m_OriginalDataArray</text>
<text text-anchor="middle" x="1859" y="-54" font-family="Helvetica,sans-Serif" font-size="10.00">m_Measure</text>
<text text-anchor="middle" x="1859" y="-43" font-family="Helvetica,sans-Serif" font-size="10.00">m_MeasurePointer</text>
</g>
<!-- Node19 -->
<g id="node19" class="node">
<title>Node19</title>
<g id="a_node19"><a xlink:title=" ">
<polygon fill="white" stroke="#bfbfbf" points="1399,-38.5 1399,-57.5 1522,-57.5 1522,-38.5 1399,-38.5"/>
<text text-anchor="middle" x="1460.5" y="-45.5" font-family="Helvetica,sans-Serif" font-size="10.00">vnl_vector&lt; double &gt;</text>
</a>
</g>
</g>
<!-- Node19&#45;&gt;Node18 -->
<g id="edge22" class="edge">
<title>Node19&#45;&gt;Node18</title>
<path fill="none" stroke="midnightblue" d="M1532.36,-46.52C1567.89,-45.78 1610.36,-44.9 1643.85,-44.2"/>
<polygon fill="midnightblue" stroke="midnightblue" points="1531.99,-43.03 1522.06,-46.74 1532.13,-50.03 1531.99,-43.03"/>
</g>
<!-- Node20 -->
<g id="node20" class="node">
<title>Node20</title>
<g id="a_node20"><a xlink:href="classitk_1_1Array.html" target="_top" xlink:title="Array class with size defined at construction time.">
<polygon fill="white" stroke="black" points="1402,-0.5 1402,-19.5 1519,-19.5 1519,-0.5 1402,-0.5"/>
<text text-anchor="middle" x="1460.5" y="-7.5" font-family="Helvetica,sans-Serif" font-size="10.00">itk::Array&lt; TValue &gt;</text>
</a>
</g>
</g>
<!-- Node20&#45;&gt;Node18 -->
<g id="edge23" class="edge">
<title>Node20&#45;&gt;Node18</title>
<path fill="none" stroke="orange" stroke-dasharray="5,2" d="M1529.25,-19.32C1565.37,-24.28 1609.33,-30.33 1643.79,-35.07"/>
<polygon fill="orange" stroke="orange" points="1529.67,-15.84 1519.29,-17.95 1528.72,-22.78 1529.67,-15.84"/>
<text text-anchor="middle" x="1569.5" y="-32" font-family="Helvetica,sans-Serif" font-size="10.00"> &lt; double &gt;</text>
</g>
<!-- Node21 -->
<g id="node21" class="node">
<title>Node21</title>
<g id="a_node21"><a xlink:title=" ">
<polygon fill="white" stroke="#bfbfbf" points="1145,-0.5 1145,-19.5 1268,-19.5 1268,-0.5 1145,-0.5"/>
<text text-anchor="middle" x="1206.5" y="-7.5" font-family="Helvetica,sans-Serif" font-size="10.00">vnl_vector&lt; TValue &gt;</text>
</a>
</g>
</g>
<!-- Node21&#45;&gt;Node20 -->
<g id="edge24" class="edge">
<title>Node21&#45;&gt;Node20</title>
<path fill="none" stroke="midnightblue" d="M1278.42,-10C1317.45,-10 1365.25,-10 1401.94,-10"/>
<polygon fill="midnightblue" stroke="midnightblue" points="1278.18,-6.5 1268.18,-10 1278.18,-13.5 1278.18,-6.5"/>
</g>
</g>
</svg>
