<?xml version="1.0" encoding="UTF-8" standalone="no"?>
<!DOCTYPE svg PUBLIC "-//W3C//DTD SVG 1.1//EN"
 "http://www.w3.org/Graphics/SVG/1.1/DTD/svg11.dtd">
<!-- Generated by graphviz version 2.43.0 (0)
 -->
<!-- Title: itk::GaussianSpatialObject&lt; TDimension &gt; Pages: 1 -->
<svg width="195pt" height="345pt"
 viewBox="0.00 0.00 194.50 345.00" xmlns="http://www.w3.org/2000/svg" xmlns:xlink="http://www.w3.org/1999/xlink">
<g id="graph0" class="graph" transform="scale(1 1) rotate(0) translate(4 341)">
<title>itk::GaussianSpatialObject&lt; TDimension &gt;</title>
<polygon fill="white" stroke="transparent" points="-4,4 -4,-341 190.5,-341 190.5,4 -4,4"/>
<!-- Node1 -->
<g id="node1" class="node">
<title>Node1</title>
<g id="a_node1"><a xlink:title="Represents a multivariate Gaussian function.">
<polygon fill="#bfbfbf" stroke="black" points="0,-0.5 0,-30.5 146,-30.5 146,-0.5 0,-0.5"/>
<text text-anchor="start" x="8" y="-18.5" font-family="Helvetica,sans-Serif" font-size="10.00">itk::GaussianSpatialObject</text>
<text text-anchor="middle" x="73" y="-7.5" font-family="Helvetica,sans-Serif" font-size="10.00">&lt; TDimension &gt;</text>
</a>
</g>
</g>
<!-- Node2 -->
<g id="node2" class="node">
<title>Node2</title>
<g id="a_node2"><a xlink:href="classitk_1_1SpatialObject.html" target="_top" xlink:title=" ">
<polygon fill="white" stroke="black" points="8.5,-68.5 8.5,-87.5 137.5,-87.5 137.5,-68.5 8.5,-68.5"/>
<text text-anchor="middle" x="73" y="-75.5" font-family="Helvetica,sans-Serif" font-size="10.00">itk::SpatialObject&lt; 3 &gt;</text>
</a>
</g>
</g>
<!-- Node2&#45;&gt;Node1 -->
<g id="edge1" class="edge">
<title>Node2&#45;&gt;Node1</title>
<path fill="none" stroke="midnightblue" d="M73,-58.22C73,-49.36 73,-38.96 73,-30.76"/>
<polygon fill="midnightblue" stroke="midnightblue" points="69.5,-58.33 73,-68.33 76.5,-58.33 69.5,-58.33"/>
</g>
<!-- Node3 -->
<g id="node3" class="node">
<title>Node3</title>
<g id="a_node3"><a xlink:href="classitk_1_1DataObject.html" target="_top" xlink:title="Base class for all data objects in ITK.">
<polygon fill="white" stroke="black" points="24,-203.5 24,-222.5 114,-222.5 114,-203.5 24,-203.5"/>
<text text-anchor="middle" x="69" y="-210.5" font-family="Helvetica,sans-Serif" font-size="10.00">itk::DataObject</text>
</a>
</g>
</g>
<!-- Node3&#45;&gt;Node2 -->
<g id="edge2" class="edge">
<title>Node3&#45;&gt;Node2</title>
<path fill="none" stroke="midnightblue" d="M69.57,-193.13C70.45,-163.88 72.1,-108.76 72.74,-87.59"/>
<polygon fill="midnightblue" stroke="midnightblue" points="66.06,-193.17 69.26,-203.27 73.06,-193.38 66.06,-193.17"/>
</g>
<!-- Node6 -->
<g id="node6" class="node">
<title>Node6</title>
<g id="a_node6"><a xlink:href="classitk_1_1SpatialObject.html" target="_top" xlink:title="Implementation of the composite pattern.">
<polygon fill="white" stroke="black" points="85.5,-135.5 85.5,-165.5 186.5,-165.5 186.5,-135.5 85.5,-135.5"/>
<text text-anchor="start" x="93.5" y="-153.5" font-family="Helvetica,sans-Serif" font-size="10.00">itk::SpatialObject</text>
<text text-anchor="middle" x="136" y="-142.5" font-family="Helvetica,sans-Serif" font-size="10.00">&lt; VDimension &gt;</text>
</a>
</g>
</g>
<!-- Node3&#45;&gt;Node6 -->
<g id="edge6" class="edge">
<title>Node3&#45;&gt;Node6</title>
<path fill="none" stroke="midnightblue" d="M86.03,-196.62C96.63,-187.05 110.16,-174.83 120.47,-165.53"/>
<polygon fill="midnightblue" stroke="midnightblue" points="83.68,-194.03 78.6,-203.33 88.37,-199.23 83.68,-194.03"/>
</g>
<!-- Node4 -->
<g id="node4" class="node">
<title>Node4</title>
<g id="a_node4"><a xlink:href="classitk_1_1Object.html" target="_top" xlink:title="Base class for most ITK classes.">
<polygon fill="white" stroke="black" points="35.5,-260.5 35.5,-279.5 102.5,-279.5 102.5,-260.5 35.5,-260.5"/>
<text text-anchor="middle" x="69" y="-267.5" font-family="Helvetica,sans-Serif" font-size="10.00">itk::Object</text>
</a>
</g>
</g>
<!-- Node4&#45;&gt;Node3 -->
<g id="edge3" class="edge">
<title>Node4&#45;&gt;Node3</title>
<path fill="none" stroke="midnightblue" d="M69,-250.12C69,-240.82 69,-230.06 69,-222.71"/>
<polygon fill="midnightblue" stroke="midnightblue" points="65.5,-250.41 69,-260.41 72.5,-250.41 65.5,-250.41"/>
</g>
<!-- Node5 -->
<g id="node5" class="node">
<title>Node5</title>
<g id="a_node5"><a xlink:href="classitk_1_1LightObject.html" target="_top" xlink:title="Light weight base class for most itk classes.">
<polygon fill="white" stroke="black" points="23.5,-317.5 23.5,-336.5 114.5,-336.5 114.5,-317.5 23.5,-317.5"/>
<text text-anchor="middle" x="69" y="-324.5" font-family="Helvetica,sans-Serif" font-size="10.00">itk::LightObject</text>
</a>
</g>
</g>
<!-- Node5&#45;&gt;Node4 -->
<g id="edge4" class="edge">
<title>Node5&#45;&gt;Node4</title>
<path fill="none" stroke="midnightblue" d="M69,-307.12C69,-297.82 69,-287.06 69,-279.71"/>
<polygon fill="midnightblue" stroke="midnightblue" points="65.5,-307.41 69,-317.41 72.5,-307.41 65.5,-307.41"/>
</g>
<!-- Node6&#45;&gt;Node2 -->
<g id="edge5" class="edge">
<title>Node6&#45;&gt;Node2</title>
<path fill="none" stroke="orange" stroke-dasharray="5,2" d="M116.57,-127.76C104.58,-114.34 89.84,-97.85 80.95,-87.89"/>
<polygon fill="orange" stroke="orange" points="113.98,-130.11 123.25,-135.23 119.2,-125.44 113.98,-130.11"/>
<text text-anchor="middle" x="122" y="-109" font-family="Helvetica,sans-Serif" font-size="10.00"> &lt; 3 &gt;</text>
</g>
</g>
</svg>
