<?xml version="1.0" encoding="UTF-8" standalone="no"?>
<!DOCTYPE svg PUBLIC "-//W3C//DTD SVG 1.1//EN"
 "http://www.w3.org/Graphics/SVG/1.1/DTD/svg11.dtd">
<!-- Generated by graphviz version 2.43.0 (0)
 -->
<!-- Title: itk::SyNImageRegistrationMethod&lt; TFixedImage, TMovingImage, TOutputTransform, TVirtualImage, TPointSet &gt; Pages: 1 -->
<svg width="2084pt" height="117pt"
 viewBox="0.00 0.00 2084.00 116.50" xmlns="http://www.w3.org/2000/svg" xmlns:xlink="http://www.w3.org/1999/xlink">
<g id="graph0" class="graph" transform="scale(1 1) rotate(0) translate(4 112.5)">
<title>itk::SyNImageRegistrationMethod&lt; TFixedImage, TMovingImage, TOutputTransform, TVirtualImage, TPointSet &gt;</title>
<polygon fill="white" stroke="transparent" points="-4,4 -4,-112.5 2080,-112.5 2080,4 -4,4"/>
<!-- Node1 -->
<g id="node1" class="node">
<title>Node1</title>
<g id="a_node1"><a xlink:title="Interface method for the performing greedy SyN image registration.">
<polygon fill="#bfbfbf" stroke="black" points="1051,-27.5 1051,-79.5 1260,-79.5 1260,-27.5 1051,-27.5"/>
<text text-anchor="start" x="1059" y="-67.5" font-family="Helvetica,sans-Serif" font-size="10.00">itk::SyNImageRegistration</text>
<text text-anchor="start" x="1059" y="-56.5" font-family="Helvetica,sans-Serif" font-size="10.00">Method&lt; TFixedImage, TMovingImage,</text>
<text text-anchor="start" x="1059" y="-45.5" font-family="Helvetica,sans-Serif" font-size="10.00"> TOutputTransform, TVirtualImage,</text>
<text text-anchor="middle" x="1155.5" y="-34.5" font-family="Helvetica,sans-Serif" font-size="10.00"> TPointSet &gt;</text>
</a>
</g>
</g>
<!-- Node7 -->
<g id="node7" class="node">
<title>Node7</title>
<g id="a_node7"><a xlink:href="classitk_1_1SyNImageRegistrationMethod.html" target="_top" xlink:title=" ">
<polygon fill="white" stroke="black" points="1548,-16.5 1548,-90.5 1830,-90.5 1830,-16.5 1548,-16.5"/>
<text text-anchor="start" x="1556" y="-78.5" font-family="Helvetica,sans-Serif" font-size="10.00">itk::SyNImageRegistration</text>
<text text-anchor="start" x="1556" y="-67.5" font-family="Helvetica,sans-Serif" font-size="10.00">Method&lt; TFixedImage, TMovingImage,</text>
<text text-anchor="start" x="1556" y="-56.5" font-family="Helvetica,sans-Serif" font-size="10.00"> BSplineSmoothingOnUpdateDisplacementField</text>
<text text-anchor="start" x="1556" y="-45.5" font-family="Helvetica,sans-Serif" font-size="10.00">Transform&lt; double, TFixedImage::ImageDimension</text>
<text text-anchor="start" x="1556" y="-34.5" font-family="Helvetica,sans-Serif" font-size="10.00"> &gt;, TFixedImage, PointSet&lt; unsigned int, TFixedImage</text>
<text text-anchor="middle" x="1689" y="-23.5" font-family="Helvetica,sans-Serif" font-size="10.00">::ImageDimension &gt; &gt;</text>
</a>
</g>
</g>
<!-- Node1&#45;&gt;Node7 -->
<g id="edge7" class="edge">
<title>Node1&#45;&gt;Node7</title>
<path fill="none" stroke="orange" stroke-dasharray="5,2" d="M1270.5,-53.5C1351.68,-53.5 1461.28,-53.5 1547.81,-53.5"/>
<polygon fill="orange" stroke="orange" points="1270.24,-50 1260.24,-53.5 1270.24,-57 1270.24,-50"/>
<text text-anchor="start" x="1278" y="-100.5" font-family="Helvetica,sans-Serif" font-size="10.00"> &lt; TFixedImage, TMovingImage,</text>
<text text-anchor="start" x="1278" y="-89.5" font-family="Helvetica,sans-Serif" font-size="10.00"> BSplineSmoothingOnUpdateDisplacement</text>
<text text-anchor="start" x="1278" y="-78.5" font-family="Helvetica,sans-Serif" font-size="10.00">FieldTransform&lt; double, TFixedImage</text>
<text text-anchor="start" x="1278" y="-67.5" font-family="Helvetica,sans-Serif" font-size="10.00">::ImageDimension &gt;, TFixedImage, PointSet</text>
<text text-anchor="middle" x="1404" y="-56.5" font-family="Helvetica,sans-Serif" font-size="10.00">&lt; unsigned int, TFixedImage::ImageDimension &gt; &gt;</text>
</g>
<!-- Node2 -->
<g id="node2" class="node">
<title>Node2</title>
<g id="a_node2"><a xlink:href="classitk_1_1ImageRegistrationMethodv4.html" target="_top" xlink:title=" ">
<polygon fill="white" stroke="black" points="796,-16.5 796,-90.5 1014,-90.5 1014,-16.5 796,-16.5"/>
<text text-anchor="start" x="804" y="-78.5" font-family="Helvetica,sans-Serif" font-size="10.00">itk::ImageRegistrationMethodv4</text>
<text text-anchor="start" x="804" y="-67.5" font-family="Helvetica,sans-Serif" font-size="10.00">&lt; TFixedImage, TMovingImage,</text>
<text text-anchor="start" x="804" y="-56.5" font-family="Helvetica,sans-Serif" font-size="10.00"> DisplacementFieldTransform</text>
<text text-anchor="start" x="804" y="-45.5" font-family="Helvetica,sans-Serif" font-size="10.00">&lt; double, TFixedImage::ImageDimension</text>
<text text-anchor="start" x="804" y="-34.5" font-family="Helvetica,sans-Serif" font-size="10.00"> &gt;, TFixedImage, PointSet&lt; unsigned</text>
<text text-anchor="middle" x="905" y="-23.5" font-family="Helvetica,sans-Serif" font-size="10.00"> int, TFixedImage::ImageDimension &gt; &gt;</text>
</a>
</g>
</g>
<!-- Node2&#45;&gt;Node1 -->
<g id="edge1" class="edge">
<title>Node2&#45;&gt;Node1</title>
<path fill="none" stroke="midnightblue" d="M1024.29,-53.5C1033.18,-53.5 1042.12,-53.5 1050.91,-53.5"/>
<polygon fill="midnightblue" stroke="midnightblue" points="1024.27,-50 1014.27,-53.5 1024.27,-57 1024.27,-50"/>
</g>
<!-- Node3 -->
<g id="node3" class="node">
<title>Node3</title>
<g id="a_node3"><a xlink:href="classitk_1_1ProcessObject.html" target="_top" xlink:title="The base class for all process objects (source, filters, mappers) in the Insight data processing pipe...">
<polygon fill="white" stroke="black" points="232,-48 232,-67 336,-67 336,-48 232,-48"/>
<text text-anchor="middle" x="284" y="-55" font-family="Helvetica,sans-Serif" font-size="10.00">itk::ProcessObject</text>
</a>
</g>
</g>
<!-- Node3&#45;&gt;Node2 -->
<g id="edge2" class="edge">
<title>Node3&#45;&gt;Node2</title>
<path fill="none" stroke="midnightblue" d="M346.31,-64.21C439.65,-73.39 622.93,-87.33 778,-74.5 783.86,-74.02 789.85,-73.41 795.89,-72.7"/>
<polygon fill="midnightblue" stroke="midnightblue" points="346.49,-60.71 336.19,-63.2 345.8,-67.68 346.49,-60.71"/>
</g>
<!-- Node6 -->
<g id="node6" class="node">
<title>Node6</title>
<g id="a_node6"><a xlink:href="classitk_1_1ImageRegistrationMethodv4.html" target="_top" xlink:title="Interface method for the current registration framework.">
<polygon fill="white" stroke="black" points="373,-0.5 373,-52.5 558,-52.5 558,-0.5 373,-0.5"/>
<text text-anchor="start" x="381" y="-40.5" font-family="Helvetica,sans-Serif" font-size="10.00">itk::ImageRegistrationMethodv4</text>
<text text-anchor="start" x="381" y="-29.5" font-family="Helvetica,sans-Serif" font-size="10.00">&lt; TFixedImage, TMovingImage,</text>
<text text-anchor="start" x="381" y="-18.5" font-family="Helvetica,sans-Serif" font-size="10.00"> TOutputTransform, TVirtualImage,</text>
<text text-anchor="middle" x="465.5" y="-7.5" font-family="Helvetica,sans-Serif" font-size="10.00"> TPointSet &gt;</text>
</a>
</g>
</g>
<!-- Node3&#45;&gt;Node6 -->
<g id="edge6" class="edge">
<title>Node3&#45;&gt;Node6</title>
<path fill="none" stroke="midnightblue" d="M346.55,-46.87C355.01,-45.41 363.85,-43.88 372.71,-42.35"/>
<polygon fill="midnightblue" stroke="midnightblue" points="345.7,-43.47 336.44,-48.62 346.89,-50.36 345.7,-43.47"/>
</g>
<!-- Node4 -->
<g id="node4" class="node">
<title>Node4</title>
<g id="a_node4"><a xlink:href="classitk_1_1Object.html" target="_top" xlink:title="Base class for most ITK classes.">
<polygon fill="white" stroke="black" points="128,-48 128,-67 195,-67 195,-48 128,-48"/>
<text text-anchor="middle" x="161.5" y="-55" font-family="Helvetica,sans-Serif" font-size="10.00">itk::Object</text>
</a>
</g>
</g>
<!-- Node4&#45;&gt;Node3 -->
<g id="edge3" class="edge">
<title>Node4&#45;&gt;Node3</title>
<path fill="none" stroke="midnightblue" d="M205.26,-57.5C213.84,-57.5 222.94,-57.5 231.77,-57.5"/>
<polygon fill="midnightblue" stroke="midnightblue" points="205.11,-54 195.11,-57.5 205.11,-61 205.11,-54"/>
</g>
<!-- Node5 -->
<g id="node5" class="node">
<title>Node5</title>
<g id="a_node5"><a xlink:href="classitk_1_1LightObject.html" target="_top" xlink:title="Light weight base class for most itk classes.">
<polygon fill="white" stroke="black" points="0,-48 0,-67 91,-67 91,-48 0,-48"/>
<text text-anchor="middle" x="45.5" y="-55" font-family="Helvetica,sans-Serif" font-size="10.00">itk::LightObject</text>
</a>
</g>
</g>
<!-- Node5&#45;&gt;Node4 -->
<g id="edge4" class="edge">
<title>Node5&#45;&gt;Node4</title>
<path fill="none" stroke="midnightblue" d="M101.39,-57.5C110.45,-57.5 119.59,-57.5 127.88,-57.5"/>
<polygon fill="midnightblue" stroke="midnightblue" points="101.23,-54 91.23,-57.5 101.23,-61 101.23,-54"/>
</g>
<!-- Node6&#45;&gt;Node2 -->
<g id="edge5" class="edge">
<title>Node6&#45;&gt;Node2</title>
<path fill="none" stroke="orange" stroke-dasharray="5,2" d="M568.25,-16.35C629.32,-12.2 708.41,-10.28 778,-19.5 783.84,-20.27 789.79,-21.24 795.78,-22.36"/>
<polygon fill="orange" stroke="orange" points="567.95,-12.86 558.23,-17.06 568.45,-19.84 567.95,-12.86"/>
<text text-anchor="start" x="576" y="-66.5" font-family="Helvetica,sans-Serif" font-size="10.00"> &lt; TFixedImage, TMovingImage,</text>
<text text-anchor="start" x="576" y="-55.5" font-family="Helvetica,sans-Serif" font-size="10.00"> DisplacementFieldTransform</text>
<text text-anchor="start" x="576" y="-44.5" font-family="Helvetica,sans-Serif" font-size="10.00">&lt; double, TFixedImage::ImageDimension</text>
<text text-anchor="start" x="576" y="-33.5" font-family="Helvetica,sans-Serif" font-size="10.00"> &gt;, TFixedImage, PointSet&lt; unsigned</text>
<text text-anchor="middle" x="677" y="-22.5" font-family="Helvetica,sans-Serif" font-size="10.00"> int, TFixedImage::ImageDimension &gt; &gt;</text>
</g>
<!-- Node8 -->
<g id="node8" class="node">
<title>Node8</title>
<g id="a_node8"><a xlink:href="classitk_1_1BSplineSyNImageRegistrationMethod.html" target="_top" xlink:title="Interface method for the performing greedy B&#45;spline SyN image registration.">
<polygon fill="white" stroke="black" points="1867,-27.5 1867,-79.5 2076,-79.5 2076,-27.5 1867,-27.5"/>
<text text-anchor="start" x="1875" y="-67.5" font-family="Helvetica,sans-Serif" font-size="10.00">itk::BSplineSyNImageRegistration</text>
<text text-anchor="start" x="1875" y="-56.5" font-family="Helvetica,sans-Serif" font-size="10.00">Method&lt; TFixedImage, TMovingImage,</text>
<text text-anchor="start" x="1875" y="-45.5" font-family="Helvetica,sans-Serif" font-size="10.00"> TOutputTransform, TVirtualImage,</text>
<text text-anchor="middle" x="1971.5" y="-34.5" font-family="Helvetica,sans-Serif" font-size="10.00"> TPointSet &gt;</text>
</a>
</g>
</g>
<!-- Node7&#45;&gt;Node8 -->
<g id="edge8" class="edge">
<title>Node7&#45;&gt;Node8</title>
<path fill="none" stroke="midnightblue" d="M1840.35,-53.5C1849.29,-53.5 1858.17,-53.5 1866.85,-53.5"/>
<polygon fill="midnightblue" stroke="midnightblue" points="1840.25,-50 1830.25,-53.5 1840.25,-57 1840.25,-50"/>
</g>
</g>
</svg>
