<?xml version="1.0" encoding="UTF-8" standalone="no"?>
<!DOCTYPE svg PUBLIC "-//W3C//DTD SVG 1.1//EN"
 "http://www.w3.org/Graphics/SVG/1.1/DTD/svg11.dtd">
<!-- Generated by graphviz version 2.43.0 (0)
 -->
<!-- Title: itk::ImageToImageFilterDetail::ExtractImageFilterRegionCopier&lt; T1, T2 &gt; Pages: 1 -->
<svg width="186pt" height="196pt"
 viewBox="0.00 0.00 186.00 196.00" xmlns="http://www.w3.org/2000/svg" xmlns:xlink="http://www.w3.org/1999/xlink">
<g id="graph0" class="graph" transform="scale(1 1) rotate(0) translate(4 192)">
<title>itk::ImageToImageFilterDetail::ExtractImageFilterRegionCopier&lt; T1, T2 &gt;</title>
<polygon fill="white" stroke="transparent" points="-4,4 -4,-192 182,-192 182,4 -4,4"/>
<!-- Node1 -->
<g id="node1" class="node">
<title>Node1</title>
<g id="a_node1"><a xlink:title="A special variation of ImageRegionCopier for when the output image has fewer dimensions than the inpu...">
<polygon fill="#bfbfbf" stroke="black" points="0,-0.5 0,-41.5 178,-41.5 178,-0.5 0,-0.5"/>
<text text-anchor="start" x="8" y="-29.5" font-family="Helvetica,sans-Serif" font-size="10.00">itk::ImageToImageFilterDetail</text>
<text text-anchor="start" x="8" y="-18.5" font-family="Helvetica,sans-Serif" font-size="10.00">::ExtractImageFilterRegionCopier</text>
<text text-anchor="middle" x="89" y="-7.5" font-family="Helvetica,sans-Serif" font-size="10.00">&lt; T1, T2 &gt;</text>
</a>
</g>
</g>
<!-- Node2 -->
<g id="node2" class="node">
<title>Node2</title>
<g id="a_node2"><a xlink:href="classitk_1_1ImageToImageFilterDetail_1_1ImageRegionCopier.html" target="_top" xlink:title=" ">
<polygon fill="white" stroke="black" points="3.5,-79.5 3.5,-109.5 174.5,-109.5 174.5,-79.5 3.5,-79.5"/>
<text text-anchor="start" x="11.5" y="-97.5" font-family="Helvetica,sans-Serif" font-size="10.00">itk::ImageToImageFilterDetail</text>
<text text-anchor="middle" x="89" y="-86.5" font-family="Helvetica,sans-Serif" font-size="10.00">::ImageRegionCopier&lt; T1, T2 &gt;</text>
</a>
</g>
</g>
<!-- Node2&#45;&gt;Node1 -->
<g id="edge1" class="edge">
<title>Node2&#45;&gt;Node1</title>
<path fill="none" stroke="midnightblue" d="M89,-69.1C89,-60.1 89,-50.02 89,-41.51"/>
<polygon fill="midnightblue" stroke="midnightblue" points="85.5,-69.37 89,-79.37 92.5,-69.37 85.5,-69.37"/>
</g>
<!-- Node3 -->
<g id="node3" class="node">
<title>Node3</title>
<g id="a_node3"><a xlink:href="classitk_1_1ImageToImageFilterDetail_1_1ImageRegionCopier.html" target="_top" xlink:title="A Function object used to dispatching to a routine to copy a region (start index and size).">
<polygon fill="white" stroke="black" points="2,-157.5 2,-187.5 176,-187.5 176,-157.5 2,-157.5"/>
<text text-anchor="start" x="10" y="-175.5" font-family="Helvetica,sans-Serif" font-size="10.00">itk::ImageToImageFilterDetail</text>
<text text-anchor="middle" x="89" y="-164.5" font-family="Helvetica,sans-Serif" font-size="10.00">::ImageRegionCopier&lt; D1, D2 &gt;</text>
</a>
</g>
</g>
<!-- Node3&#45;&gt;Node2 -->
<g id="edge2" class="edge">
<title>Node3&#45;&gt;Node2</title>
<path fill="none" stroke="orange" stroke-dasharray="5,2" d="M89,-147.09C89,-134.76 89,-120.22 89,-109.73"/>
<polygon fill="orange" stroke="orange" points="85.5,-147.2 89,-157.2 92.5,-147.21 85.5,-147.2"/>
<text text-anchor="middle" x="117" y="-131" font-family="Helvetica,sans-Serif" font-size="10.00"> &lt; T1, T2 &gt;</text>
</g>
</g>
</svg>
