<?xml version="1.0" encoding="UTF-8" standalone="no"?>
<!DOCTYPE svg PUBLIC "-//W3C//DTD SVG 1.1//EN"
 "http://www.w3.org/Graphics/SVG/1.1/DTD/svg11.dtd">
<!-- Generated by graphviz version 2.43.0 (0)
 -->
<!-- Title: itk::VersorTransform&lt; TParametersValueType &gt; Pages: 1 -->
<svg width="3532pt" height="598pt"
 viewBox="0.00 0.00 3532.00 598.03" xmlns="http://www.w3.org/2000/svg" xmlns:xlink="http://www.w3.org/1999/xlink">
<g id="graph0" class="graph" transform="scale(1 1) rotate(0) translate(4 594.03)">
<title>itk::VersorTransform&lt; TParametersValueType &gt;</title>
<polygon fill="white" stroke="transparent" points="-4,4 -4,-594.03 3528,-594.03 3528,4 -4,4"/>
<!-- Node1 -->
<g id="node1" class="node">
<title>Node1</title>
<g id="a_node1"><a xlink:title=" ">
<polygon fill="#bfbfbf" stroke="black" points="3374,-511.03 3374,-541.03 3524,-541.03 3524,-511.03 3374,-511.03"/>
<text text-anchor="start" x="3382" y="-529.03" font-family="Helvetica,sans-Serif" font-size="10.00">itk::VersorTransform</text>
<text text-anchor="middle" x="3449" y="-518.03" font-family="Helvetica,sans-Serif" font-size="10.00">&lt; TParametersValueType &gt;</text>
</a>
</g>
</g>
<!-- Node2 -->
<g id="node2" class="node">
<title>Node2</title>
<g id="a_node2"><a xlink:href="classitk_1_1Rigid3DTransform.html" target="_top" xlink:title=" ">
<polygon fill="white" stroke="black" points="3215,-415.03 3215,-445.03 3337,-445.03 3337,-415.03 3215,-415.03"/>
<text text-anchor="start" x="3223" y="-433.03" font-family="Helvetica,sans-Serif" font-size="10.00">itk::Rigid3DTransform</text>
<text text-anchor="middle" x="3276" y="-422.03" font-family="Helvetica,sans-Serif" font-size="10.00">&lt; double &gt;</text>
</a>
</g>
</g>
<!-- Node2&#45;&gt;Node1 -->
<g id="edge1" class="edge">
<title>Node2&#45;&gt;Node1</title>
<path fill="none" stroke="midnightblue" d="M3313.2,-450.36C3345.46,-468.47 3391.94,-494.56 3421.03,-510.89"/>
<polygon fill="midnightblue" stroke="midnightblue" points="3314.53,-447.09 3304.1,-445.24 3311.1,-453.19 3314.53,-447.09"/>
</g>
<!-- Node3 -->
<g id="node3" class="node">
<title>Node3</title>
<g id="a_node3"><a xlink:href="classitk_1_1MatrixOffsetTransformBase.html" target="_top" xlink:title=" ">
<polygon fill="white" stroke="black" points="2788,-371.03 2788,-401.03 2933,-401.03 2933,-371.03 2788,-371.03"/>
<text text-anchor="start" x="2796" y="-389.03" font-family="Helvetica,sans-Serif" font-size="10.00">itk::MatrixOffsetTransform</text>
<text text-anchor="middle" x="2860.5" y="-378.03" font-family="Helvetica,sans-Serif" font-size="10.00">Base&lt; double, 3, 3 &gt;</text>
</a>
</g>
</g>
<!-- Node3&#45;&gt;Node2 -->
<g id="edge2" class="edge">
<title>Node3&#45;&gt;Node2</title>
<path fill="none" stroke="midnightblue" d="M2943.52,-390.77C2994.42,-394.11 3061.12,-399.21 3120,-406.03 3151.38,-409.67 3186.14,-414.94 3214.79,-419.61"/>
<polygon fill="midnightblue" stroke="midnightblue" points="2943.44,-387.26 2933.24,-390.11 2942.99,-394.24 2943.44,-387.26"/>
</g>
<!-- Node36 -->
<g id="node36" class="node">
<title>Node36</title>
<g id="a_node36"><a xlink:href="classitk_1_1Rigid3DTransform.html" target="_top" xlink:title="Rigid3DTransform of a vector space (e.g. space coordinates)">
<polygon fill="white" stroke="black" points="2970,-415.03 2970,-445.03 3120,-445.03 3120,-415.03 2970,-415.03"/>
<text text-anchor="start" x="2978" y="-433.03" font-family="Helvetica,sans-Serif" font-size="10.00">itk::Rigid3DTransform</text>
<text text-anchor="middle" x="3045" y="-422.03" font-family="Helvetica,sans-Serif" font-size="10.00">&lt; TParametersValueType &gt;</text>
</a>
</g>
</g>
<!-- Node3&#45;&gt;Node36 -->
<g id="edge56" class="edge">
<title>Node3&#45;&gt;Node36</title>
<path fill="none" stroke="midnightblue" d="M2933.57,-403.41C2949.48,-407.24 2966.2,-411.27 2981.68,-415.01"/>
<polygon fill="midnightblue" stroke="midnightblue" points="2934.34,-399.99 2923.8,-401.05 2932.7,-406.8 2934.34,-399.99"/>
</g>
<!-- Node4 -->
<g id="node4" class="node">
<title>Node4</title>
<g id="a_node4"><a xlink:href="classitk_1_1Transform.html" target="_top" xlink:title=" ">
<polygon fill="white" stroke="black" points="2121,-312.03 2121,-342.03 2334,-342.03 2334,-312.03 2121,-312.03"/>
<text text-anchor="start" x="2129" y="-330.03" font-family="Helvetica,sans-Serif" font-size="10.00">itk::Transform&lt; double,</text>
<text text-anchor="middle" x="2227.5" y="-319.03" font-family="Helvetica,sans-Serif" font-size="10.00"> VInputDimension, VOutputDimension &gt;</text>
</a>
</g>
</g>
<!-- Node4&#45;&gt;Node3 -->
<g id="edge3" class="edge">
<title>Node4&#45;&gt;Node3</title>
<path fill="none" stroke="midnightblue" d="M2344.08,-337.84C2473.68,-349.96 2679.8,-369.23 2787.93,-379.34"/>
<polygon fill="midnightblue" stroke="midnightblue" points="2344.4,-334.35 2334.12,-336.91 2343.75,-341.32 2344.4,-334.35"/>
</g>
<!-- Node5 -->
<g id="node5" class="node">
<title>Node5</title>
<g id="a_node5"><a xlink:href="classitk_1_1TransformBaseTemplate.html" target="_top" xlink:title=" ">
<polygon fill="white" stroke="black" points="1704,-265.03 1704,-295.03 1857,-295.03 1857,-265.03 1704,-265.03"/>
<text text-anchor="start" x="1712" y="-283.03" font-family="Helvetica,sans-Serif" font-size="10.00">itk::TransformBaseTemplate</text>
<text text-anchor="middle" x="1780.5" y="-272.03" font-family="Helvetica,sans-Serif" font-size="10.00">&lt; double &gt;</text>
</a>
</g>
</g>
<!-- Node5&#45;&gt;Node4 -->
<g id="edge4" class="edge">
<title>Node5&#45;&gt;Node4</title>
<path fill="none" stroke="midnightblue" d="M1867.34,-276.89C1932.66,-276.28 2024.4,-279.25 2103,-296.03 2111.39,-297.82 2112.79,-300.52 2121,-303.03 2131.51,-306.25 2142.72,-309.25 2153.77,-311.97"/>
<polygon fill="midnightblue" stroke="midnightblue" points="1867.04,-273.39 1857.09,-277.02 1867.13,-280.39 1867.04,-273.39"/>
</g>
<!-- Node35 -->
<g id="node35" class="node">
<title>Node35</title>
<g id="a_node35"><a xlink:href="classitk_1_1Transform.html" target="_top" xlink:title=" ">
<polygon fill="white" stroke="black" points="2162,-263.03 2162,-293.03 2293,-293.03 2293,-263.03 2162,-263.03"/>
<text text-anchor="start" x="2170" y="-281.03" font-family="Helvetica,sans-Serif" font-size="10.00">itk::Transform&lt; double,</text>
<text text-anchor="middle" x="2227.5" y="-270.03" font-family="Helvetica,sans-Serif" font-size="10.00"> 3, 3 &gt;</text>
</a>
</g>
</g>
<!-- Node5&#45;&gt;Node35 -->
<g id="edge48" class="edge">
<title>Node5&#45;&gt;Node35</title>
<path fill="none" stroke="midnightblue" d="M1867.25,-272.46C1876.28,-271.87 1885.32,-271.38 1894,-271.03 1986.81,-267.33 2010.15,-268.4 2103,-271.03 2122.11,-271.57 2142.85,-272.58 2161.79,-273.67"/>
<polygon fill="midnightblue" stroke="midnightblue" points="1866.83,-268.98 1857.09,-273.15 1867.31,-275.96 1866.83,-268.98"/>
</g>
<!-- Node6 -->
<g id="node6" class="node">
<title>Node6</title>
<g id="a_node6"><a xlink:href="classitk_1_1Object.html" target="_top" xlink:title="Base class for most ITK classes.">
<polygon fill="white" stroke="black" points="1063.5,-294.53 1063.5,-313.53 1130.5,-313.53 1130.5,-294.53 1063.5,-294.53"/>
<text text-anchor="middle" x="1097" y="-301.53" font-family="Helvetica,sans-Serif" font-size="10.00">itk::Object</text>
</a>
</g>
</g>
<!-- Node6&#45;&gt;Node5 -->
<g id="edge5" class="edge">
<title>Node6&#45;&gt;Node5</title>
<path fill="none" stroke="midnightblue" d="M1140.87,-302.52C1253.82,-298.54 1560.69,-287.74 1703.95,-282.69"/>
<polygon fill="midnightblue" stroke="midnightblue" points="1140.74,-299.02 1130.87,-302.87 1140.99,-306.02 1140.74,-299.02"/>
</g>
<!-- Node19 -->
<g id="node19" class="node">
<title>Node19</title>
<g id="a_node19"><a xlink:href="classitk_1_1TransformBaseTemplate.html" target="_top" xlink:title=" ">
<polygon fill="white" stroke="black" points="1365.5,-308.03 1365.5,-338.03 1518.5,-338.03 1518.5,-308.03 1365.5,-308.03"/>
<text text-anchor="start" x="1373.5" y="-326.03" font-family="Helvetica,sans-Serif" font-size="10.00">itk::TransformBaseTemplate</text>
<text text-anchor="middle" x="1442" y="-315.03" font-family="Helvetica,sans-Serif" font-size="10.00">&lt; TParametersValueType &gt;</text>
</a>
</g>
</g>
<!-- Node6&#45;&gt;Node19 -->
<g id="edge22" class="edge">
<title>Node6&#45;&gt;Node19</title>
<path fill="none" stroke="midnightblue" d="M1140.88,-306.41C1197.03,-309.52 1296.41,-315.02 1365.36,-318.84"/>
<polygon fill="midnightblue" stroke="midnightblue" points="1140.76,-302.9 1130.58,-305.84 1140.37,-309.88 1140.76,-302.9"/>
</g>
<!-- Node7 -->
<g id="node7" class="node">
<title>Node7</title>
<g id="a_node7"><a xlink:href="classitk_1_1LightObject.html" target="_top" xlink:title="Light weight base class for most itk classes.">
<polygon fill="white" stroke="black" points="764.5,-241.53 764.5,-260.53 855.5,-260.53 855.5,-241.53 764.5,-241.53"/>
<text text-anchor="middle" x="810" y="-248.53" font-family="Helvetica,sans-Serif" font-size="10.00">itk::LightObject</text>
</a>
</g>
</g>
<!-- Node7&#45;&gt;Node6 -->
<g id="edge6" class="edge">
<title>Node7&#45;&gt;Node6</title>
<path fill="none" stroke="midnightblue" d="M865.73,-259.97C906.21,-266.73 962.63,-276.45 1012,-286.03 1028.98,-289.33 1047.82,-293.33 1063.35,-296.73"/>
<polygon fill="midnightblue" stroke="midnightblue" points="866.24,-256.51 855.8,-258.32 865.09,-263.42 866.24,-256.51"/>
</g>
<!-- Node8 -->
<g id="node8" class="node">
<title>Node8</title>
<g id="a_node8"><a xlink:title=" ">
<polygon fill="white" stroke="#bfbfbf" points="457,-238.53 457,-257.53 564,-257.53 564,-238.53 457,-238.53"/>
<text text-anchor="middle" x="510.5" y="-245.53" font-family="Helvetica,sans-Serif" font-size="10.00">std::atomic&lt; int &gt;</text>
</a>
</g>
</g>
<!-- Node8&#45;&gt;Node7 -->
<g id="edge7" class="edge">
<title>Node8&#45;&gt;Node7</title>
<path fill="none" stroke="#9a32cd" stroke-dasharray="5,2" d="M574.33,-248.67C631.28,-249.24 713.82,-250.07 764.3,-250.58"/>
<polygon fill="#9a32cd" stroke="#9a32cd" points="574.04,-245.16 564,-248.56 573.97,-252.16 574.04,-245.16"/>
<text text-anchor="middle" x="664" y="-253.03" font-family="Helvetica,sans-Serif" font-size="10.00"> m_ReferenceCount</text>
</g>
<!-- Node9 -->
<g id="node9" class="node">
<title>Node9</title>
<g id="a_node9"><a xlink:title="STL class.">
<polygon fill="white" stroke="#bfbfbf" points="123,-374.53 123,-393.53 223,-393.53 223,-374.53 123,-374.53"/>
<text text-anchor="middle" x="173" y="-381.53" font-family="Helvetica,sans-Serif" font-size="10.00">std::atomic&lt; T &gt;</text>
</a>
</g>
</g>
<!-- Node9&#45;&gt;Node8 -->
<g id="edge8" class="edge">
<title>Node9&#45;&gt;Node8</title>
<path fill="none" stroke="orange" stroke-dasharray="5,2" d="M226.38,-372.49C234.28,-370.9 242.34,-369.36 250,-368.03 287.13,-361.59 390.14,-370.4 418,-345.03 443.99,-321.37 411.6,-293.33 436,-268.03 441.69,-262.13 448.94,-257.92 456.65,-254.91"/>
<polygon fill="orange" stroke="orange" points="225.59,-369.08 216.5,-374.52 227,-375.94 225.59,-369.08"/>
<text text-anchor="middle" x="334" y="-371.03" font-family="Helvetica,sans-Serif" font-size="10.00"> &lt; int &gt;</text>
</g>
<!-- Node18 -->
<g id="node18" class="node">
<title>Node18</title>
<g id="a_node18"><a xlink:href="classitk_1_1TimeStamp.html" target="_top" xlink:title="Generate a unique, increasing time value.">
<polygon fill="white" stroke="black" points="764,-380.53 764,-399.53 856,-399.53 856,-380.53 764,-380.53"/>
<text text-anchor="middle" x="810" y="-387.53" font-family="Helvetica,sans-Serif" font-size="10.00">itk::TimeStamp</text>
</a>
</g>
</g>
<!-- Node9&#45;&gt;Node18 -->
<g id="edge20" class="edge">
<title>Node9&#45;&gt;Node18</title>
<path fill="none" stroke="#9a32cd" stroke-dasharray="5,2" d="M233.27,-384.59C359.33,-385.78 651.69,-388.55 763.97,-389.61"/>
<polygon fill="#9a32cd" stroke="#9a32cd" points="233.07,-381.09 223.04,-384.5 233,-388.09 233.07,-381.09"/>
<text text-anchor="middle" x="510.5" y="-390.03" font-family="Helvetica,sans-Serif" font-size="10.00"> m_GlobalTimeStamp</text>
</g>
<!-- Node10 -->
<g id="node10" class="node">
<title>Node10</title>
<g id="a_node10"><a xlink:title=" ">
<polygon fill="white" stroke="#bfbfbf" points="0,-391.53 0,-410.53 29,-410.53 29,-391.53 0,-391.53"/>
<text text-anchor="middle" x="14.5" y="-398.53" font-family="Helvetica,sans-Serif" font-size="10.00">T</text>
</a>
</g>
</g>
<!-- Node10&#45;&gt;Node9 -->
<g id="edge9" class="edge">
<title>Node10&#45;&gt;Node9</title>
<path fill="none" stroke="#9a32cd" stroke-dasharray="5,2" d="M38.3,-387.94C41.15,-386.76 44.09,-385.74 47,-385.03 71.56,-379.05 99.66,-378.3 122.98,-379.27"/>
<polygon fill="#9a32cd" stroke="#9a32cd" points="36.55,-384.9 29.07,-392.41 39.6,-391.2 36.55,-384.9"/>
<text text-anchor="middle" x="71.5" y="-388.03" font-family="Helvetica,sans-Serif" font-size="10.00"> ptr</text>
</g>
<!-- Node15 -->
<g id="node15" class="node">
<title>Node15</title>
<g id="a_node15"><a xlink:title="STL class.">
<polygon fill="white" stroke="#bfbfbf" points="122.5,-416.53 122.5,-435.53 223.5,-435.53 223.5,-416.53 122.5,-416.53"/>
<text text-anchor="middle" x="173" y="-423.53" font-family="Helvetica,sans-Serif" font-size="10.00">std::map&lt; K, T &gt;</text>
</a>
</g>
</g>
<!-- Node10&#45;&gt;Node15 -->
<g id="edge16" class="edge">
<title>Node10&#45;&gt;Node15</title>
<path fill="none" stroke="#9a32cd" stroke-dasharray="5,2" d="M39.19,-404.82C61.16,-408.33 94.54,-413.66 122.35,-418.1"/>
<polygon fill="#9a32cd" stroke="#9a32cd" points="39.54,-401.33 29.11,-403.21 38.44,-408.24 39.54,-401.33"/>
<text text-anchor="middle" x="71.5" y="-416.03" font-family="Helvetica,sans-Serif" font-size="10.00"> elements</text>
</g>
<!-- Node17 -->
<g id="node17" class="node">
<title>Node17</title>
<g id="a_node17"><a xlink:title="STL class.">
<polygon fill="white" stroke="#bfbfbf" points="114,-328.53 114,-347.53 232,-347.53 232,-328.53 114,-328.53"/>
<text text-anchor="middle" x="173" y="-335.53" font-family="Helvetica,sans-Serif" font-size="10.00">std::shared_ptr&lt; T &gt;</text>
</a>
</g>
</g>
<!-- Node10&#45;&gt;Node17 -->
<g id="edge18" class="edge">
<title>Node10&#45;&gt;Node17</title>
<path fill="none" stroke="#9a32cd" stroke-dasharray="5,2" d="M27.01,-382.95C32.3,-376.03 39.14,-368.69 47,-364.03 67.02,-352.16 91.64,-345.65 113.73,-342.11"/>
<polygon fill="#9a32cd" stroke="#9a32cd" points="24.07,-381.05 21.2,-391.25 29.8,-385.07 24.07,-381.05"/>
<text text-anchor="middle" x="71.5" y="-367.03" font-family="Helvetica,sans-Serif" font-size="10.00"> ptr</text>
</g>
<!-- Node38 -->
<g id="node38" class="node">
<title>Node38</title>
<g id="a_node38"><a xlink:href="classitk_1_1Versor.html" target="_top" xlink:title="A templated class holding a unit quaternion.">
<polygon fill="white" stroke="black" points="125.5,-482.53 125.5,-501.53 220.5,-501.53 220.5,-482.53 125.5,-482.53"/>
<text text-anchor="middle" x="173" y="-489.53" font-family="Helvetica,sans-Serif" font-size="10.00">itk::Versor&lt; T &gt;</text>
</a>
</g>
</g>
<!-- Node10&#45;&gt;Node38 -->
<g id="edge59" class="edge">
<title>Node10&#45;&gt;Node38</title>
<path fill="none" stroke="#9a32cd" stroke-dasharray="5,2" d="M33.24,-417.51C37.58,-421.18 42.33,-424.91 47,-428.03 67.31,-441.64 74.24,-441.9 96,-453.03 115.54,-463.03 137.89,-474.5 153.27,-482.4"/>
<polygon fill="#9a32cd" stroke="#9a32cd" points="35.32,-414.67 25.51,-410.68 30.69,-419.92 35.32,-414.67"/>
<text text-anchor="middle" x="71.5" y="-489.03" font-family="Helvetica,sans-Serif" font-size="10.00"> m_X</text>
<text text-anchor="middle" x="71.5" y="-478.03" font-family="Helvetica,sans-Serif" font-size="10.00">m_Y</text>
<text text-anchor="middle" x="71.5" y="-467.03" font-family="Helvetica,sans-Serif" font-size="10.00">m_Z</text>
<text text-anchor="middle" x="71.5" y="-456.03" font-family="Helvetica,sans-Serif" font-size="10.00">m_W</text>
</g>
<!-- Node11 -->
<g id="node11" class="node">
<title>Node11</title>
<g id="a_node11"><a xlink:title="STL class.">
<polygon fill="white" stroke="#bfbfbf" points="777.5,-282.53 777.5,-301.53 842.5,-301.53 842.5,-282.53 777.5,-282.53"/>
<text text-anchor="middle" x="810" y="-289.53" font-family="Helvetica,sans-Serif" font-size="10.00">std::string</text>
</a>
</g>
</g>
<!-- Node11&#45;&gt;Node6 -->
<g id="edge10" class="edge">
<title>Node11&#45;&gt;Node6</title>
<path fill="none" stroke="#9a32cd" stroke-dasharray="5,2" d="M852.81,-290.72C893.51,-289.8 957.07,-289.31 1012,-293.03 1029.02,-294.18 1047.87,-296.55 1063.38,-298.79"/>
<polygon fill="#9a32cd" stroke="#9a32cd" points="852.64,-287.22 842.72,-290.97 852.81,-294.22 852.64,-287.22"/>
<text text-anchor="middle" x="953.5" y="-296.03" font-family="Helvetica,sans-Serif" font-size="10.00"> m_ObjectName</text>
</g>
<!-- Node12 -->
<g id="node12" class="node">
<title>Node12</title>
<g id="a_node12"><a xlink:title="STL class.">
<polygon fill="white" stroke="#bfbfbf" points="458.5,-277.03 458.5,-307.03 562.5,-307.03 562.5,-277.03 458.5,-277.03"/>
<text text-anchor="start" x="466.5" y="-295.03" font-family="Helvetica,sans-Serif" font-size="10.00">std::basic_string&lt;</text>
<text text-anchor="middle" x="510.5" y="-284.03" font-family="Helvetica,sans-Serif" font-size="10.00"> char &gt;</text>
</a>
</g>
</g>
<!-- Node12&#45;&gt;Node11 -->
<g id="edge11" class="edge">
<title>Node12&#45;&gt;Node11</title>
<path fill="none" stroke="midnightblue" d="M572.71,-292.03C634.86,-292.03 728.65,-292.03 777.26,-292.03"/>
<polygon fill="midnightblue" stroke="midnightblue" points="572.64,-288.53 562.64,-292.03 572.64,-295.53 572.64,-288.53"/>
</g>
<!-- Node13 -->
<g id="node13" class="node">
<title>Node13</title>
<g id="a_node13"><a xlink:href="classitk_1_1MetaDataDictionary.html" target="_top" xlink:title="Provides a mechanism for storing a collection of arbitrary data types.">
<polygon fill="white" stroke="black" points="743,-323.53 743,-342.53 877,-342.53 877,-323.53 743,-323.53"/>
<text text-anchor="middle" x="810" y="-330.53" font-family="Helvetica,sans-Serif" font-size="10.00">itk::MetaDataDictionary</text>
</a>
</g>
</g>
<!-- Node13&#45;&gt;Node6 -->
<g id="edge12" class="edge">
<title>Node13&#45;&gt;Node6</title>
<path fill="none" stroke="#9a32cd" stroke-dasharray="5,2" d="M887.24,-325.27C944.72,-319.43 1020.7,-311.69 1063.34,-307.36"/>
<polygon fill="#9a32cd" stroke="#9a32cd" points="886.7,-321.81 877.1,-326.31 887.4,-328.78 886.7,-321.81"/>
<text text-anchor="middle" x="953.5" y="-327.03" font-family="Helvetica,sans-Serif" font-size="10.00"> m_MetaDataDictionary</text>
</g>
<!-- Node14 -->
<g id="node14" class="node">
<title>Node14</title>
<g id="a_node14"><a xlink:title=" ">
<polygon fill="white" stroke="#bfbfbf" points="436,-326.03 436,-356.03 585,-356.03 585,-326.03 436,-326.03"/>
<text text-anchor="start" x="444" y="-344.03" font-family="Helvetica,sans-Serif" font-size="10.00">std::shared_ptr&lt; MetaData</text>
<text text-anchor="middle" x="510.5" y="-333.03" font-family="Helvetica,sans-Serif" font-size="10.00">DictionaryMapType &gt;</text>
</a>
</g>
</g>
<!-- Node14&#45;&gt;Node13 -->
<g id="edge13" class="edge">
<title>Node14&#45;&gt;Node13</title>
<path fill="none" stroke="#9a32cd" stroke-dasharray="5,2" d="M595.15,-338.78C641.89,-337.53 699.33,-335.98 742.9,-334.81"/>
<polygon fill="#9a32cd" stroke="#9a32cd" points="594.94,-335.29 585.04,-339.05 595.13,-342.28 594.94,-335.29"/>
<text text-anchor="middle" x="664" y="-341.03" font-family="Helvetica,sans-Serif" font-size="10.00"> m_Dictionary</text>
</g>
<!-- Node15&#45;&gt;Node14 -->
<g id="edge14" class="edge">
<title>Node15&#45;&gt;Node14</title>
<path fill="none" stroke="#9a32cd" stroke-dasharray="5,2" d="M233.66,-421.47C284.1,-416.17 357.59,-405.01 418,-382.03 426.76,-378.7 427.63,-375.26 436,-371.03 446.58,-365.68 458.34,-360.54 469.31,-356.08"/>
<polygon fill="#9a32cd" stroke="#9a32cd" points="233.17,-418 223.58,-422.49 233.88,-424.97 233.17,-418"/>
<text text-anchor="middle" x="334" y="-422.03" font-family="Helvetica,sans-Serif" font-size="10.00"> ptr</text>
</g>
<!-- Node16 -->
<g id="node16" class="node">
<title>Node16</title>
<g id="a_node16"><a xlink:title=" ">
<polygon fill="white" stroke="#bfbfbf" points="0,-509.53 0,-528.53 29,-528.53 29,-509.53 0,-509.53"/>
<text text-anchor="middle" x="14.5" y="-516.53" font-family="Helvetica,sans-Serif" font-size="10.00">K</text>
</a>
</g>
</g>
<!-- Node16&#45;&gt;Node15 -->
<g id="edge15" class="edge">
<title>Node16&#45;&gt;Node15</title>
<path fill="none" stroke="#9a32cd" stroke-dasharray="5,2" d="M39.38,-516.66C56.37,-514.03 79.09,-508.52 96,-497.03 107.03,-489.54 104.75,-482.64 114,-473.03 127.85,-458.66 146.02,-444.57 158.31,-435.62"/>
<polygon fill="#9a32cd" stroke="#9a32cd" points="38.61,-513.23 29.16,-518.01 39.53,-520.17 38.61,-513.23"/>
<text text-anchor="middle" x="71.5" y="-518.03" font-family="Helvetica,sans-Serif" font-size="10.00"> keys</text>
</g>
<!-- Node17&#45;&gt;Node14 -->
<g id="edge17" class="edge">
<title>Node17&#45;&gt;Node14</title>
<path fill="none" stroke="orange" stroke-dasharray="5,2" d="M242.25,-334.27C244.87,-334.18 247.46,-334.1 250,-334.03 324.64,-332.07 343.39,-331.18 418,-334.03 423.73,-334.25 429.66,-334.55 435.62,-334.89"/>
<polygon fill="orange" stroke="orange" points="241.94,-330.78 232.08,-334.66 242.21,-337.77 241.94,-330.78"/>
<text text-anchor="middle" x="334" y="-337.03" font-family="Helvetica,sans-Serif" font-size="10.00"> &lt; MetaDataDictionaryMapType &gt;</text>
</g>
<!-- Node18&#45;&gt;Node3 -->
<g id="edge43" class="edge">
<title>Node18&#45;&gt;Node3</title>
<path fill="none" stroke="#9a32cd" stroke-dasharray="5,2" d="M829.13,-406.22C872.13,-442.86 985.04,-529.03 1096,-529.03 1096,-529.03 1096,-529.03 2563.5,-529.03 2680.21,-529.03 2799.34,-437.78 2842.55,-401.07"/>
<polygon fill="#9a32cd" stroke="#9a32cd" points="831.33,-403.49 821.48,-399.59 826.75,-408.78 831.33,-403.49"/>
<text text-anchor="middle" x="1780.5" y="-543.03" font-family="Helvetica,sans-Serif" font-size="10.00"> m_InverseMatrixMTime</text>
<text text-anchor="middle" x="1780.5" y="-532.03" font-family="Helvetica,sans-Serif" font-size="10.00">m_MatrixMTime</text>
</g>
<!-- Node18&#45;&gt;Node6 -->
<g id="edge19" class="edge">
<title>Node18&#45;&gt;Node6</title>
<path fill="none" stroke="#9a32cd" stroke-dasharray="5,2" d="M845.17,-377.03C860.29,-371.59 878.38,-365.51 895,-361.03 946.17,-347.24 961.21,-353.15 1012,-338.03 1034.32,-331.39 1058.9,-321.06 1075.68,-313.53"/>
<polygon fill="#9a32cd" stroke="#9a32cd" points="843.9,-373.77 835.71,-380.49 846.31,-380.34 843.9,-373.77"/>
<text text-anchor="middle" x="953.5" y="-364.03" font-family="Helvetica,sans-Serif" font-size="10.00"> m_MTime</text>
</g>
<!-- Node34 -->
<g id="node34" class="node">
<title>Node34</title>
<g id="a_node34"><a xlink:href="classitk_1_1MatrixOffsetTransformBase.html" target="_top" xlink:title="Matrix and Offset transformation of a vector space (e.g. space coordinates)">
<polygon fill="white" stroke="black" points="2456,-274.53 2456,-315.53 2669,-315.53 2669,-274.53 2456,-274.53"/>
<text text-anchor="start" x="2464" y="-303.53" font-family="Helvetica,sans-Serif" font-size="10.00">itk::MatrixOffsetTransform</text>
<text text-anchor="start" x="2464" y="-292.53" font-family="Helvetica,sans-Serif" font-size="10.00">Base&lt; TParametersValueType,</text>
<text text-anchor="middle" x="2562.5" y="-281.53" font-family="Helvetica,sans-Serif" font-size="10.00"> VInputDimension, VOutputDimension &gt;</text>
</a>
</g>
</g>
<!-- Node18&#45;&gt;Node34 -->
<g id="edge53" class="edge">
<title>Node18&#45;&gt;Node34</title>
<path fill="none" stroke="#9a32cd" stroke-dasharray="5,2" d="M866.72,-388.79C924.17,-387.61 1016.34,-386.03 1096,-386.03 1096,-386.03 1096,-386.03 1781.5,-386.03 2027.52,-386.03 2090.87,-389.64 2334,-352.03 2388.32,-343.63 2448.62,-328.24 2493.48,-315.56"/>
<polygon fill="#9a32cd" stroke="#9a32cd" points="866.33,-385.3 856.41,-389 866.48,-392.29 866.33,-385.3"/>
<text text-anchor="middle" x="1607" y="-400.03" font-family="Helvetica,sans-Serif" font-size="10.00"> m_InverseMatrixMTime</text>
<text text-anchor="middle" x="1607" y="-389.03" font-family="Helvetica,sans-Serif" font-size="10.00">m_MatrixMTime</text>
</g>
<!-- Node19&#45;&gt;Node5 -->
<g id="edge21" class="edge">
<title>Node19&#45;&gt;Node5</title>
<path fill="none" stroke="orange" stroke-dasharray="5,2" d="M1528.77,-312.07C1582.82,-305.16 1651.96,-296.33 1703.94,-289.69"/>
<polygon fill="orange" stroke="orange" points="1527.99,-308.64 1518.52,-313.38 1528.88,-315.59 1527.99,-308.64"/>
<text text-anchor="middle" x="1607" y="-312.03" font-family="Helvetica,sans-Serif" font-size="10.00"> &lt; double &gt;</text>
</g>
<!-- Node20 -->
<g id="node20" class="node">
<title>Node20</title>
<g id="a_node20"><a xlink:href="classitk_1_1Transform.html" target="_top" xlink:title="Transform points and vectors from an input space to an output space.">
<polygon fill="white" stroke="black" points="1701,-316.53 1701,-357.53 1860,-357.53 1860,-316.53 1701,-316.53"/>
<text text-anchor="start" x="1709" y="-345.53" font-family="Helvetica,sans-Serif" font-size="10.00">itk::Transform&lt; TParameters</text>
<text text-anchor="start" x="1709" y="-334.53" font-family="Helvetica,sans-Serif" font-size="10.00">ValueType, VInputDimension,</text>
<text text-anchor="middle" x="1780.5" y="-323.53" font-family="Helvetica,sans-Serif" font-size="10.00"> VOutputDimension &gt;</text>
</a>
</g>
</g>
<!-- Node19&#45;&gt;Node20 -->
<g id="edge24" class="edge">
<title>Node19&#45;&gt;Node20</title>
<path fill="none" stroke="midnightblue" d="M1528.57,-326.59C1581.54,-328.8 1649.07,-331.61 1700.73,-333.75"/>
<polygon fill="midnightblue" stroke="midnightblue" points="1528.65,-323.09 1518.52,-326.17 1528.36,-330.09 1528.65,-323.09"/>
</g>
<!-- Node20&#45;&gt;Node4 -->
<g id="edge23" class="edge">
<title>Node20&#45;&gt;Node4</title>
<path fill="none" stroke="orange" stroke-dasharray="5,2" d="M1870.45,-335.03C1942.6,-333.41 2044.48,-331.12 2120.78,-329.41"/>
<polygon fill="orange" stroke="orange" points="1869.95,-331.54 1860.03,-335.27 1870.11,-338.54 1869.95,-331.54"/>
<text text-anchor="start" x="1928" y="-348.03" font-family="Helvetica,sans-Serif" font-size="10.00"> &lt; double, VInputDimension,</text>
<text text-anchor="middle" x="1998.5" y="-337.03" font-family="Helvetica,sans-Serif" font-size="10.00"> VOutputDimension &gt;</text>
</g>
<!-- Node20&#45;&gt;Node35 -->
<g id="edge49" class="edge">
<title>Node20&#45;&gt;Node35</title>
<path fill="none" stroke="orange" stroke-dasharray="5,2" d="M1869.91,-318.15C1878.03,-316.65 1886.16,-315.26 1894,-314.03 1986.65,-299.58 2094.73,-289.03 2161.9,-283.22"/>
<polygon fill="orange" stroke="orange" points="1869.19,-314.72 1860.01,-320 1870.48,-321.6 1869.19,-314.72"/>
<text text-anchor="middle" x="1998.5" y="-317.03" font-family="Helvetica,sans-Serif" font-size="10.00"> &lt; double, 3, 3 &gt;</text>
</g>
<!-- Node21 -->
<g id="node21" class="node">
<title>Node21</title>
<g id="a_node21"><a xlink:href="classitk_1_1Matrix.html" target="_top" xlink:title=" ">
<polygon fill="white" stroke="black" points="2147,-399.53 2147,-440.53 2308,-440.53 2308,-399.53 2147,-399.53"/>
<text text-anchor="start" x="2155" y="-428.53" font-family="Helvetica,sans-Serif" font-size="10.00">itk::Matrix&lt; double,</text>
<text text-anchor="start" x="2155" y="-417.53" font-family="Helvetica,sans-Serif" font-size="10.00"> Self::OutputSpaceDimension,</text>
<text text-anchor="middle" x="2227.5" y="-406.53" font-family="Helvetica,sans-Serif" font-size="10.00"> Self::InputSpaceDimension &gt;</text>
</a>
</g>
</g>
<!-- Node21&#45;&gt;Node3 -->
<g id="edge25" class="edge">
<title>Node21&#45;&gt;Node3</title>
<path fill="none" stroke="#9a32cd" stroke-dasharray="5,2" d="M2318.39,-418.2C2355.44,-417.25 2398.8,-415.89 2438,-414.03 2561.07,-408.18 2704.14,-397.95 2787.95,-391.61"/>
<polygon fill="#9a32cd" stroke="#9a32cd" points="2318.02,-414.71 2308.11,-418.46 2318.2,-421.71 2318.02,-414.71"/>
<text text-anchor="middle" x="2562.5" y="-416.03" font-family="Helvetica,sans-Serif" font-size="10.00"> m_Matrix</text>
</g>
<!-- Node21&#45;&gt;Node34 -->
<g id="edge50" class="edge">
<title>Node21&#45;&gt;Node34</title>
<path fill="none" stroke="#9a32cd" stroke-dasharray="5,2" d="M2318.28,-406.65C2364.82,-398.96 2416.35,-389.07 2438,-380.03 2475.95,-364.18 2514.1,-335.52 2537.74,-315.89"/>
<polygon fill="#9a32cd" stroke="#9a32cd" points="2317.43,-403.24 2308.13,-408.3 2318.56,-410.15 2317.43,-403.24"/>
<text text-anchor="middle" x="2395" y="-402.03" font-family="Helvetica,sans-Serif" font-size="10.00"> m_Matrix</text>
</g>
<!-- Node22 -->
<g id="node22" class="node">
<title>Node22</title>
<g id="a_node22"><a xlink:href="classitk_1_1Matrix.html" target="_top" xlink:title="A templated class holding a M x N size Matrix.">
<polygon fill="white" stroke="black" points="1717.5,-440.03 1717.5,-470.03 1843.5,-470.03 1843.5,-440.03 1717.5,-440.03"/>
<text text-anchor="start" x="1725.5" y="-458.03" font-family="Helvetica,sans-Serif" font-size="10.00">itk::Matrix&lt; T, VRows,</text>
<text text-anchor="middle" x="1780.5" y="-447.03" font-family="Helvetica,sans-Serif" font-size="10.00"> VColumns &gt;</text>
</a>
</g>
</g>
<!-- Node22&#45;&gt;Node21 -->
<g id="edge26" class="edge">
<title>Node22&#45;&gt;Node21</title>
<path fill="none" stroke="orange" stroke-dasharray="5,2" d="M1853.83,-440.73C1867.15,-438.51 1880.96,-436.48 1894,-435.03 1980.15,-425.47 2079.5,-421.97 2147,-420.7"/>
<polygon fill="orange" stroke="orange" points="1853.03,-437.32 1843.77,-442.46 1854.22,-444.22 1853.03,-437.32"/>
<text text-anchor="start" x="1898" y="-449.03" font-family="Helvetica,sans-Serif" font-size="10.00"> &lt; double, Self::OutputSpace</text>
<text text-anchor="middle" x="1998.5" y="-438.03" font-family="Helvetica,sans-Serif" font-size="10.00">Dimension, Self::InputSpaceDimension &gt;</text>
</g>
<!-- Node33 -->
<g id="node33" class="node">
<title>Node33</title>
<g id="a_node33"><a xlink:href="classitk_1_1Matrix.html" target="_top" xlink:title=" ">
<polygon fill="white" stroke="black" points="2142.5,-459.53 2142.5,-500.53 2312.5,-500.53 2312.5,-459.53 2142.5,-459.53"/>
<text text-anchor="start" x="2150.5" y="-488.53" font-family="Helvetica,sans-Serif" font-size="10.00">itk::Matrix&lt; double,</text>
<text text-anchor="start" x="2150.5" y="-477.53" font-family="Helvetica,sans-Serif" font-size="10.00"> Self::InputSpaceDimension,</text>
<text text-anchor="middle" x="2227.5" y="-466.53" font-family="Helvetica,sans-Serif" font-size="10.00"> Self::OutputSpaceDimension &gt;</text>
</a>
</g>
</g>
<!-- Node22&#45;&gt;Node33 -->
<g id="edge45" class="edge">
<title>Node22&#45;&gt;Node33</title>
<path fill="none" stroke="orange" stroke-dasharray="5,2" d="M1854.18,-459.12C1933.09,-463.55 2058.96,-470.62 2142.16,-475.29"/>
<polygon fill="orange" stroke="orange" points="1854.02,-455.6 1843.84,-458.53 1853.63,-462.59 1854.02,-455.6"/>
<text text-anchor="start" x="1894" y="-486.03" font-family="Helvetica,sans-Serif" font-size="10.00"> &lt; double, Self::InputSpace</text>
<text text-anchor="middle" x="1998.5" y="-475.03" font-family="Helvetica,sans-Serif" font-size="10.00">Dimension, Self::OutputSpaceDimension &gt;</text>
</g>
<!-- Node23 -->
<g id="node23" class="node">
<title>Node23</title>
<g id="a_node23"><a xlink:href="classitk_1_1Point.html" target="_top" xlink:title=" ">
<polygon fill="white" stroke="black" points="2147,-214.03 2147,-244.03 2308,-244.03 2308,-214.03 2147,-214.03"/>
<text text-anchor="start" x="2155" y="-232.03" font-family="Helvetica,sans-Serif" font-size="10.00">itk::Point&lt; double,</text>
<text text-anchor="middle" x="2227.5" y="-221.03" font-family="Helvetica,sans-Serif" font-size="10.00"> Self::InputSpaceDimension &gt;</text>
</a>
</g>
</g>
<!-- Node23&#45;&gt;Node3 -->
<g id="edge27" class="edge">
<title>Node23&#45;&gt;Node3</title>
<path fill="none" stroke="#9a32cd" stroke-dasharray="5,2" d="M2318.47,-225.8C2408.3,-224.51 2549.79,-227.76 2669,-254.03 2716.15,-264.42 2729.83,-267.25 2770,-294.03 2802.44,-315.67 2832.35,-350.71 2848.03,-370.73"/>
<polygon fill="#9a32cd" stroke="#9a32cd" points="2318.25,-222.3 2308.31,-225.97 2318.37,-229.3 2318.25,-222.3"/>
<text text-anchor="middle" x="2562.5" y="-257.03" font-family="Helvetica,sans-Serif" font-size="10.00"> m_Center</text>
</g>
<!-- Node23&#45;&gt;Node34 -->
<g id="edge51" class="edge">
<title>Node23&#45;&gt;Node34</title>
<path fill="none" stroke="#9a32cd" stroke-dasharray="5,2" d="M2318.43,-245.82C2355.49,-252.84 2398.84,-261.17 2438,-269.03 2446.7,-270.78 2455.74,-272.62 2464.79,-274.49"/>
<polygon fill="#9a32cd" stroke="#9a32cd" points="2318.63,-242.29 2308.15,-243.88 2317.33,-249.17 2318.63,-242.29"/>
<text text-anchor="middle" x="2395" y="-272.03" font-family="Helvetica,sans-Serif" font-size="10.00"> m_Center</text>
</g>
<!-- Node24 -->
<g id="node24" class="node">
<title>Node24</title>
<g id="a_node24"><a xlink:href="classitk_1_1FixedArray.html" target="_top" xlink:title=" ">
<polygon fill="white" stroke="black" points="1375,-217.03 1375,-247.03 1509,-247.03 1509,-217.03 1375,-217.03"/>
<text text-anchor="start" x="1383" y="-235.03" font-family="Helvetica,sans-Serif" font-size="10.00">itk::FixedArray&lt; double,</text>
<text text-anchor="middle" x="1442" y="-224.03" font-family="Helvetica,sans-Serif" font-size="10.00"> VPointDimension &gt;</text>
</a>
</g>
</g>
<!-- Node24&#45;&gt;Node23 -->
<g id="edge28" class="edge">
<title>Node24&#45;&gt;Node23</title>
<path fill="none" stroke="midnightblue" d="M1519.53,-231.74C1668.35,-231.17 1995.38,-229.92 2146.74,-229.34"/>
<polygon fill="midnightblue" stroke="midnightblue" points="1519.11,-228.24 1509.13,-231.78 1519.14,-235.24 1519.11,-228.24"/>
</g>
<!-- Node25 -->
<g id="node25" class="node">
<title>Node25</title>
<g id="a_node25"><a xlink:title=" ">
<polygon fill="white" stroke="#bfbfbf" points="1069,-180.53 1069,-199.53 1125,-199.53 1125,-180.53 1069,-180.53"/>
<text text-anchor="middle" x="1097" y="-187.53" font-family="Helvetica,sans-Serif" font-size="10.00">VLength</text>
</a>
</g>
</g>
<!-- Node25&#45;&gt;Node24 -->
<g id="edge29" class="edge">
<title>Node25&#45;&gt;Node24</title>
<path fill="none" stroke="#9a32cd" stroke-dasharray="5,2" d="M1134.9,-202.38C1149.43,-206.76 1166.34,-211.28 1182,-214.03 1246.93,-225.43 1322.2,-229.68 1374.81,-231.23"/>
<polygon fill="#9a32cd" stroke="#9a32cd" points="1135.87,-199.01 1125.28,-199.39 1133.79,-205.7 1135.87,-199.01"/>
<text text-anchor="middle" x="1259.5" y="-232.03" font-family="Helvetica,sans-Serif" font-size="10.00"> m_InternalArray</text>
</g>
<!-- Node28 -->
<g id="node28" class="node">
<title>Node28</title>
<g id="a_node28"><a xlink:href="classitk_1_1FixedArray.html" target="_top" xlink:title=" ">
<polygon fill="white" stroke="black" points="1355,-178.53 1355,-197.53 1529,-197.53 1529,-178.53 1355,-178.53"/>
<text text-anchor="middle" x="1442" y="-185.53" font-family="Helvetica,sans-Serif" font-size="10.00">itk::FixedArray&lt; TCoordRep, 3 &gt;</text>
</a>
</g>
</g>
<!-- Node25&#45;&gt;Node28 -->
<g id="edge33" class="edge">
<title>Node25&#45;&gt;Node28</title>
<path fill="none" stroke="#9a32cd" stroke-dasharray="5,2" d="M1135.34,-193.81C1149.88,-195.11 1166.7,-196.4 1182,-197.03 1250.83,-199.89 1268.18,-200 1337,-197.03 1342.79,-196.78 1348.76,-196.45 1354.78,-196.07"/>
<polygon fill="#9a32cd" stroke="#9a32cd" points="1135.48,-190.31 1125.2,-192.88 1134.84,-197.28 1135.48,-190.31"/>
<text text-anchor="middle" x="1259.5" y="-202.03" font-family="Helvetica,sans-Serif" font-size="10.00"> m_InternalArray</text>
</g>
<!-- Node30 -->
<g id="node30" class="node">
<title>Node30</title>
<g id="a_node30"><a xlink:href="classitk_1_1FixedArray.html" target="_top" xlink:title=" ">
<polygon fill="white" stroke="black" points="1375,-68.03 1375,-98.03 1509,-98.03 1509,-68.03 1375,-68.03"/>
<text text-anchor="start" x="1383" y="-86.03" font-family="Helvetica,sans-Serif" font-size="10.00">itk::FixedArray&lt; double,</text>
<text text-anchor="middle" x="1442" y="-75.03" font-family="Helvetica,sans-Serif" font-size="10.00"> VVectorDimension &gt;</text>
</a>
</g>
</g>
<!-- Node25&#45;&gt;Node30 -->
<g id="edge37" class="edge">
<title>Node25&#45;&gt;Node30</title>
<path fill="none" stroke="#9a32cd" stroke-dasharray="5,2" d="M1112.23,-172.63C1125.77,-155.97 1146.59,-130.03 1164,-107.03 1172.26,-96.12 1169.81,-88.27 1182,-82.03 1214.42,-65.43 1309.52,-70.24 1375,-76.01"/>
<polygon fill="#9a32cd" stroke="#9a32cd" points="1109.48,-170.47 1105.87,-180.44 1114.9,-174.9 1109.48,-170.47"/>
<text text-anchor="middle" x="1259.5" y="-85.03" font-family="Helvetica,sans-Serif" font-size="10.00"> m_InternalArray</text>
</g>
<!-- Node32 -->
<g id="node32" class="node">
<title>Node32</title>
<g id="a_node32"><a xlink:href="classitk_1_1FixedArray.html" target="_top" xlink:title=" ">
<polygon fill="white" stroke="black" points="1378,-134.53 1378,-153.53 1506,-153.53 1506,-134.53 1378,-134.53"/>
<text text-anchor="middle" x="1442" y="-141.53" font-family="Helvetica,sans-Serif" font-size="10.00">itk::FixedArray&lt; T, 3 &gt;</text>
</a>
</g>
</g>
<!-- Node25&#45;&gt;Node32 -->
<g id="edge41" class="edge">
<title>Node25&#45;&gt;Node32</title>
<path fill="none" stroke="#9a32cd" stroke-dasharray="5,2" d="M1122.9,-175.62C1139.15,-167.02 1161.15,-156.87 1182,-152.03 1247.52,-136.84 1324.84,-136.66 1377.84,-139.15"/>
<polygon fill="#9a32cd" stroke="#9a32cd" points="1121.16,-172.59 1114.05,-180.45 1124.51,-178.73 1121.16,-172.59"/>
<text text-anchor="middle" x="1259.5" y="-155.03" font-family="Helvetica,sans-Serif" font-size="10.00"> m_InternalArray</text>
</g>
<!-- Node26 -->
<g id="node26" class="node">
<title>Node26</title>
<g id="a_node26"><a xlink:href="classitk_1_1FixedArray.html" target="_top" xlink:title="Simulate a standard C array with copy semantics.">
<polygon fill="white" stroke="black" points="1030,-68.03 1030,-98.03 1164,-98.03 1164,-68.03 1030,-68.03"/>
<text text-anchor="start" x="1038" y="-86.03" font-family="Helvetica,sans-Serif" font-size="10.00">itk::FixedArray&lt; TValue,</text>
<text text-anchor="middle" x="1097" y="-75.03" font-family="Helvetica,sans-Serif" font-size="10.00"> VLength &gt;</text>
</a>
</g>
</g>
<!-- Node26&#45;&gt;Node24 -->
<g id="edge30" class="edge">
<title>Node26&#45;&gt;Node24</title>
<path fill="none" stroke="orange" stroke-dasharray="5,2" d="M1115.27,-106.08C1130.6,-124.73 1154.77,-149.95 1182,-163.03 1244.66,-193.13 1276.7,-149.45 1337,-184.03 1348.26,-190.49 1344.25,-199.76 1355,-207.03 1361.05,-211.13 1367.78,-214.56 1374.73,-217.44"/>
<polygon fill="orange" stroke="orange" points="1117.83,-103.69 1108.86,-98.05 1112.36,-108.05 1117.83,-103.69"/>
<text text-anchor="middle" x="1259.5" y="-187.03" font-family="Helvetica,sans-Serif" font-size="10.00"> &lt; double, VPointDimension &gt;</text>
</g>
<!-- Node26&#45;&gt;Node28 -->
<g id="edge34" class="edge">
<title>Node26&#45;&gt;Node28</title>
<path fill="none" stroke="orange" stroke-dasharray="5,2" d="M1174.22,-94.59C1242.92,-105.15 1333.71,-119.48 1337,-122.03 1352.73,-134.22 1340.04,-149.91 1355,-163.03 1362.83,-169.9 1372.46,-174.89 1382.4,-178.51"/>
<polygon fill="orange" stroke="orange" points="1174.67,-91.12 1164.26,-93.06 1173.61,-98.04 1174.67,-91.12"/>
<text text-anchor="middle" x="1259.5" y="-125.03" font-family="Helvetica,sans-Serif" font-size="10.00"> &lt; TCoordRep, 3 &gt;</text>
</g>
<!-- Node26&#45;&gt;Node30 -->
<g id="edge38" class="edge">
<title>Node26&#45;&gt;Node30</title>
<path fill="none" stroke="orange" stroke-dasharray="5,2" d="M1118.05,-60.43C1133.67,-44.62 1156.88,-24.82 1182,-16.03 1247.02,6.72 1270.91,3.41 1337,-16.03 1371.2,-26.1 1404.78,-51.28 1424.16,-67.74"/>
<polygon fill="orange" stroke="orange" points="1115.38,-58.15 1111.01,-67.8 1120.45,-62.99 1115.38,-58.15"/>
<text text-anchor="middle" x="1259.5" y="-19.03" font-family="Helvetica,sans-Serif" font-size="10.00"> &lt; double, VVectorDimension &gt;</text>
</g>
<!-- Node26&#45;&gt;Node32 -->
<g id="edge42" class="edge">
<title>Node26&#45;&gt;Node32</title>
<path fill="none" stroke="orange" stroke-dasharray="5,2" d="M1134.27,-63.44C1184.78,-39.14 1276.85,-5.95 1337,-50.03 1358.43,-65.74 1337.18,-87.33 1355,-107.03 1366.88,-120.17 1384.24,-128.83 1400.25,-134.44"/>
<polygon fill="orange" stroke="orange" points="1132.45,-60.44 1125.04,-68.01 1135.56,-66.71 1132.45,-60.44"/>
<text text-anchor="middle" x="1259.5" y="-53.03" font-family="Helvetica,sans-Serif" font-size="10.00"> &lt; T, 3 &gt;</text>
</g>
<!-- Node27 -->
<g id="node27" class="node">
<title>Node27</title>
<g id="a_node27"><a xlink:href="classitk_1_1Point.html" target="_top" xlink:title="A templated class holding a geometric point in n&#45;Dimensional space.">
<polygon fill="white" stroke="black" points="1717,-173.03 1717,-203.03 1844,-203.03 1844,-173.03 1717,-173.03"/>
<text text-anchor="start" x="1725" y="-191.03" font-family="Helvetica,sans-Serif" font-size="10.00">itk::Point&lt; TCoordRep,</text>
<text text-anchor="middle" x="1780.5" y="-180.03" font-family="Helvetica,sans-Serif" font-size="10.00"> VPointDimension &gt;</text>
</a>
</g>
</g>
<!-- Node27&#45;&gt;Node23 -->
<g id="edge31" class="edge">
<title>Node27&#45;&gt;Node23</title>
<path fill="none" stroke="orange" stroke-dasharray="5,2" d="M1854.31,-184.97C1919.74,-183.38 2018.28,-183.83 2103,-196.03 2129.14,-199.8 2157.66,-207.19 2180.71,-214.03"/>
<polygon fill="orange" stroke="orange" points="1854,-181.48 1844.1,-185.24 1854.19,-188.48 1854,-181.48"/>
<text text-anchor="start" x="1932.5" y="-210.03" font-family="Helvetica,sans-Serif" font-size="10.00"> &lt; double, Self::InputSpace</text>
<text text-anchor="middle" x="1998.5" y="-199.03" font-family="Helvetica,sans-Serif" font-size="10.00">Dimension &gt;</text>
</g>
<!-- Node28&#45;&gt;Node27 -->
<g id="edge32" class="edge">
<title>Node28&#45;&gt;Node27</title>
<path fill="none" stroke="midnightblue" d="M1539.34,-188.03C1596.39,-188.03 1667.02,-188.03 1716.88,-188.03"/>
<polygon fill="midnightblue" stroke="midnightblue" points="1539.22,-184.53 1529.22,-188.03 1539.22,-191.53 1539.22,-184.53"/>
</g>
<!-- Node29 -->
<g id="node29" class="node">
<title>Node29</title>
<g id="a_node29"><a xlink:href="classitk_1_1Vector.html" target="_top" xlink:title=" ">
<polygon fill="white" stroke="black" points="2142.5,-140.03 2142.5,-170.03 2312.5,-170.03 2312.5,-140.03 2142.5,-140.03"/>
<text text-anchor="start" x="2150.5" y="-158.03" font-family="Helvetica,sans-Serif" font-size="10.00">itk::Vector&lt; double,</text>
<text text-anchor="middle" x="2227.5" y="-147.03" font-family="Helvetica,sans-Serif" font-size="10.00"> Self::OutputSpaceDimension &gt;</text>
</a>
</g>
</g>
<!-- Node29&#45;&gt;Node3 -->
<g id="edge35" class="edge">
<title>Node29&#45;&gt;Node3</title>
<path fill="none" stroke="#9a32cd" stroke-dasharray="5,2" d="M2322.95,-155.14C2413.51,-157.55 2553.18,-167.36 2669,-202.03 2717.37,-216.51 2732.22,-220.54 2770,-254.03 2809.16,-288.74 2839.28,-344.15 2852.36,-370.77"/>
<polygon fill="#9a32cd" stroke="#9a32cd" points="2322.78,-151.63 2312.7,-154.89 2322.61,-158.63 2322.78,-151.63"/>
<text text-anchor="middle" x="2562.5" y="-216.03" font-family="Helvetica,sans-Serif" font-size="10.00"> m_Offset</text>
<text text-anchor="middle" x="2562.5" y="-205.03" font-family="Helvetica,sans-Serif" font-size="10.00">m_Translation</text>
</g>
<!-- Node29&#45;&gt;Node34 -->
<g id="edge52" class="edge">
<title>Node29&#45;&gt;Node34</title>
<path fill="none" stroke="#9a32cd" stroke-dasharray="5,2" d="M2308.44,-172.77C2349.32,-184.18 2398.63,-201.7 2438,-227.03 2447.78,-233.33 2446.56,-239.24 2456,-246.03 2471.49,-257.18 2489.92,-266.77 2507.01,-274.44"/>
<polygon fill="#9a32cd" stroke="#9a32cd" points="2309.34,-169.39 2298.78,-170.14 2307.51,-176.14 2309.34,-169.39"/>
<text text-anchor="middle" x="2395" y="-241.03" font-family="Helvetica,sans-Serif" font-size="10.00"> m_Offset</text>
<text text-anchor="middle" x="2395" y="-230.03" font-family="Helvetica,sans-Serif" font-size="10.00">m_Translation</text>
</g>
<!-- Node30&#45;&gt;Node29 -->
<g id="edge36" class="edge">
<title>Node30&#45;&gt;Node29</title>
<path fill="none" stroke="midnightblue" d="M1519.18,-88.75C1642.13,-98.17 1891.87,-118.1 2103,-140.03 2115.67,-141.35 2129.07,-142.86 2142.17,-144.39"/>
<polygon fill="midnightblue" stroke="midnightblue" points="1519.35,-85.25 1509.12,-87.98 1518.82,-92.23 1519.35,-85.25"/>
</g>
<!-- Node31 -->
<g id="node31" class="node">
<title>Node31</title>
<g id="a_node31"><a xlink:href="classitk_1_1Vector.html" target="_top" xlink:title="A templated class holding a n&#45;Dimensional vector.">
<polygon fill="white" stroke="black" points="1685,-134.53 1685,-153.53 1876,-153.53 1876,-134.53 1685,-134.53"/>
<text text-anchor="middle" x="1780.5" y="-141.53" font-family="Helvetica,sans-Serif" font-size="10.00">itk::Vector&lt; T, VVectorDimension &gt;</text>
</a>
</g>
</g>
<!-- Node31&#45;&gt;Node29 -->
<g id="edge39" class="edge">
<title>Node31&#45;&gt;Node29</title>
<path fill="none" stroke="orange" stroke-dasharray="5,2" d="M1886.44,-144.79C1949.28,-145.46 2030.73,-146.72 2103,-149.03 2115.77,-149.44 2129.27,-149.98 2142.48,-150.58"/>
<polygon fill="orange" stroke="orange" points="1886.16,-141.29 1876.12,-144.68 1886.09,-148.29 1886.16,-141.29"/>
<text text-anchor="start" x="1928.5" y="-163.03" font-family="Helvetica,sans-Serif" font-size="10.00"> &lt; double, Self::OutputSpace</text>
<text text-anchor="middle" x="1998.5" y="-152.03" font-family="Helvetica,sans-Serif" font-size="10.00">Dimension &gt;</text>
</g>
<!-- Node32&#45;&gt;Node31 -->
<g id="edge40" class="edge">
<title>Node32&#45;&gt;Node31</title>
<path fill="none" stroke="midnightblue" d="M1516.59,-144.03C1566.05,-144.03 1631.68,-144.03 1685,-144.03"/>
<polygon fill="midnightblue" stroke="midnightblue" points="1516.29,-140.53 1506.29,-144.03 1516.29,-147.53 1516.29,-140.53"/>
</g>
<!-- Node33&#45;&gt;Node3 -->
<g id="edge44" class="edge">
<title>Node33&#45;&gt;Node3</title>
<path fill="none" stroke="#9a32cd" stroke-dasharray="5,2" d="M2322.55,-475.05C2358.71,-472.68 2400.34,-469.39 2438,-465.03 2586.65,-447.84 2623.93,-441.5 2770,-409.03 2780.81,-406.63 2792.29,-403.85 2803.3,-401.07"/>
<polygon fill="#9a32cd" stroke="#9a32cd" points="2322.26,-471.57 2312.5,-475.7 2322.71,-478.55 2322.26,-471.57"/>
<text text-anchor="middle" x="2562.5" y="-465.03" font-family="Helvetica,sans-Serif" font-size="10.00"> m_InverseMatrix</text>
</g>
<!-- Node33&#45;&gt;Node34 -->
<g id="edge54" class="edge">
<title>Node33&#45;&gt;Node34</title>
<path fill="none" stroke="#9a32cd" stroke-dasharray="5,2" d="M2322.54,-460.91C2360.23,-450.63 2402.94,-435.53 2438,-414.03 2481.91,-387.11 2522.87,-342.23 2544.82,-315.96"/>
<polygon fill="#9a32cd" stroke="#9a32cd" points="2321.34,-457.6 2312.57,-463.55 2323.13,-464.37 2321.34,-457.6"/>
<text text-anchor="middle" x="2395" y="-453.03" font-family="Helvetica,sans-Serif" font-size="10.00"> m_InverseMatrix</text>
</g>
<!-- Node34&#45;&gt;Node3 -->
<g id="edge46" class="edge">
<title>Node34&#45;&gt;Node3</title>
<path fill="none" stroke="orange" stroke-dasharray="5,2" d="M2679.26,-297.72C2709.58,-301.3 2741.68,-307.75 2770,-319.03 2799.57,-330.81 2827.99,-355 2844.59,-370.86"/>
<polygon fill="orange" stroke="orange" points="2679.38,-294.21 2669.06,-296.61 2678.62,-301.17 2679.38,-294.21"/>
<text text-anchor="middle" x="2728.5" y="-322.03" font-family="Helvetica,sans-Serif" font-size="10.00"> &lt; double, 3, 3 &gt;</text>
</g>
<!-- Node35&#45;&gt;Node34 -->
<g id="edge47" class="edge">
<title>Node35&#45;&gt;Node34</title>
<path fill="none" stroke="midnightblue" d="M2303.36,-281.85C2348.32,-284.15 2406.23,-287.11 2455.8,-289.64"/>
<polygon fill="midnightblue" stroke="midnightblue" points="2303.27,-278.34 2293.1,-281.33 2302.91,-285.34 2303.27,-278.34"/>
</g>
<!-- Node36&#45;&gt;Node2 -->
<g id="edge55" class="edge">
<title>Node36&#45;&gt;Node2</title>
<path fill="none" stroke="orange" stroke-dasharray="5,2" d="M3130.26,-430.03C3158.36,-430.03 3189.09,-430.03 3214.97,-430.03"/>
<polygon fill="orange" stroke="orange" points="3130.03,-426.53 3120.03,-430.03 3130.03,-433.53 3130.03,-426.53"/>
<text text-anchor="middle" x="3167.5" y="-433.03" font-family="Helvetica,sans-Serif" font-size="10.00"> &lt; double &gt;</text>
</g>
<!-- Node37 -->
<g id="node37" class="node">
<title>Node37</title>
<g id="a_node37"><a xlink:href="classitk_1_1Versor.html" target="_top" xlink:title=" ">
<polygon fill="white" stroke="black" points="603,-552.53 603,-571.53 725,-571.53 725,-552.53 603,-552.53"/>
<text text-anchor="middle" x="664" y="-559.53" font-family="Helvetica,sans-Serif" font-size="10.00">itk::Versor&lt; double &gt;</text>
</a>
</g>
</g>
<!-- Node37&#45;&gt;Node1 -->
<g id="edge57" class="edge">
<title>Node37&#45;&gt;Node1</title>
<path fill="none" stroke="#9a32cd" stroke-dasharray="5,2" d="M735.42,-568.52C793.58,-573.32 878.33,-579.03 952.5,-579.03 952.5,-579.03 952.5,-579.03 3277,-579.03 3328.59,-579.03 3385.18,-556.75 3418.59,-541.08"/>
<polygon fill="#9a32cd" stroke="#9a32cd" points="735.49,-565.02 725.24,-567.67 734.91,-571.99 735.49,-565.02"/>
<text text-anchor="middle" x="2227.5" y="-582.03" font-family="Helvetica,sans-Serif" font-size="10.00"> m_Versor</text>
</g>
<!-- Node38&#45;&gt;Node37 -->
<g id="edge58" class="edge">
<title>Node38&#45;&gt;Node37</title>
<path fill="none" stroke="orange" stroke-dasharray="5,2" d="M230.95,-500.18C323.94,-513.5 507.51,-539.77 602.65,-553.39"/>
<polygon fill="orange" stroke="orange" points="231.28,-496.7 220.89,-498.74 230.29,-503.63 231.28,-496.7"/>
<text text-anchor="middle" x="334" y="-528.03" font-family="Helvetica,sans-Serif" font-size="10.00"> &lt; double &gt;</text>
</g>
</g>
</svg>
