<?xml version="1.0" encoding="UTF-8" standalone="no"?>
<!DOCTYPE svg PUBLIC "-//W3C//DTD SVG 1.1//EN"
 "http://www.w3.org/Graphics/SVG/1.1/DTD/svg11.dtd">
<!-- Generated by graphviz version 2.43.0 (0)
 -->
<!-- Title: itk::KLMSegmentationBorder Pages: 1 -->
<svg width="2235pt" height="238pt"
 viewBox="0.00 0.00 2235.00 237.50" xmlns="http://www.w3.org/2000/svg" xmlns:xlink="http://www.w3.org/1999/xlink">
<g id="graph0" class="graph" transform="scale(1 1) rotate(0) translate(4 233.5)">
<title>itk::KLMSegmentationBorder</title>
<polygon fill="white" stroke="transparent" points="-4,4 -4,-233.5 2231,-233.5 2231,4 -4,4"/>
<!-- Node1 -->
<g id="node1" class="node">
<title>Node1</title>
<g id="a_node1"><a xlink:title="Base class for KLMSegmentationBorder object.">
<polygon fill="#bfbfbf" stroke="black" points="1507,-148.5 1507,-167.5 1664,-167.5 1664,-148.5 1507,-148.5"/>
<text text-anchor="middle" x="1585.5" y="-155.5" font-family="Helvetica,sans-Serif" font-size="10.00">itk::KLMSegmentationBorder</text>
</a>
</g>
</g>
<!-- Node18 -->
<g id="node18" class="node">
<title>Node18</title>
<g id="a_node18"><a xlink:title=" ">
<polygon fill="white" stroke="#bfbfbf" points="1749,-199 1749,-229 1918,-229 1918,-199 1749,-199"/>
<text text-anchor="start" x="1757" y="-217" font-family="Helvetica,sans-Serif" font-size="10.00">std::vector&lt; KLMSegmentation</text>
<text text-anchor="middle" x="1833.5" y="-206" font-family="Helvetica,sans-Serif" font-size="10.00">Border * &gt;</text>
</a>
</g>
</g>
<!-- Node1&#45;&gt;Node18 -->
<g id="edge22" class="edge">
<title>Node1&#45;&gt;Node18</title>
<path fill="none" stroke="#9a32cd" stroke-dasharray="5,2" d="M1638.66,-169.87C1675.97,-178.37 1726.47,-189.86 1766.57,-198.99"/>
<polygon fill="#9a32cd" stroke="#9a32cd" points="1639.04,-166.37 1628.51,-167.56 1637.48,-173.2 1639.04,-166.37"/>
<text text-anchor="middle" x="1706.5" y="-192" font-family="Helvetica,sans-Serif" font-size="10.00"> elements</text>
</g>
<!-- Node2 -->
<g id="node2" class="node">
<title>Node2</title>
<g id="a_node2"><a xlink:href="classitk_1_1SegmentationBorder.html" target="_top" xlink:title="Base class for SegmentationBorder object.">
<polygon fill="white" stroke="black" points="1198,-147.5 1198,-166.5 1334,-166.5 1334,-147.5 1198,-147.5"/>
<text text-anchor="middle" x="1266" y="-154.5" font-family="Helvetica,sans-Serif" font-size="10.00">itk::SegmentationBorder</text>
</a>
</g>
</g>
<!-- Node2&#45;&gt;Node1 -->
<g id="edge1" class="edge">
<title>Node2&#45;&gt;Node1</title>
<path fill="none" stroke="midnightblue" d="M1344.63,-157.24C1393.97,-157.4 1457.6,-157.6 1506.93,-157.76"/>
<polygon fill="midnightblue" stroke="midnightblue" points="1344.34,-153.74 1334.33,-157.21 1344.32,-160.74 1344.34,-153.74"/>
</g>
<!-- Node3 -->
<g id="node3" class="node">
<title>Node3</title>
<g id="a_node3"><a xlink:href="classitk_1_1Object.html" target="_top" xlink:title="Base class for most ITK classes.">
<polygon fill="white" stroke="black" points="1049.5,-117.5 1049.5,-136.5 1116.5,-136.5 1116.5,-117.5 1049.5,-117.5"/>
<text text-anchor="middle" x="1083" y="-124.5" font-family="Helvetica,sans-Serif" font-size="10.00">itk::Object</text>
</a>
</g>
</g>
<!-- Node3&#45;&gt;Node2 -->
<g id="edge2" class="edge">
<title>Node3&#45;&gt;Node2</title>
<path fill="none" stroke="midnightblue" d="M1126.7,-134.08C1150.85,-138.08 1181.35,-143.14 1207.57,-147.48"/>
<polygon fill="midnightblue" stroke="midnightblue" points="1127.22,-130.62 1116.78,-132.43 1126.07,-137.52 1127.22,-130.62"/>
</g>
<!-- Node17 -->
<g id="node17" class="node">
<title>Node17</title>
<g id="a_node17"><a xlink:href="classitk_1_1SegmentationRegion.html" target="_top" xlink:title="Base class for SegmentationRegion object.">
<polygon fill="white" stroke="black" points="1352,-104.5 1352,-123.5 1489,-123.5 1489,-104.5 1352,-104.5"/>
<text text-anchor="middle" x="1420.5" y="-111.5" font-family="Helvetica,sans-Serif" font-size="10.00">itk::SegmentationRegion</text>
</a>
</g>
</g>
<!-- Node3&#45;&gt;Node17 -->
<g id="edge20" class="edge">
<title>Node3&#45;&gt;Node17</title>
<path fill="none" stroke="midnightblue" d="M1126.87,-125.34C1183.73,-123.14 1284.73,-119.22 1351.92,-116.62"/>
<polygon fill="midnightblue" stroke="midnightblue" points="1126.64,-121.85 1116.78,-125.73 1126.91,-128.84 1126.64,-121.85"/>
</g>
<!-- Node4 -->
<g id="node4" class="node">
<title>Node4</title>
<g id="a_node4"><a xlink:href="classitk_1_1LightObject.html" target="_top" xlink:title="Light weight base class for most itk classes.">
<polygon fill="white" stroke="black" points="739.5,-120.5 739.5,-139.5 830.5,-139.5 830.5,-120.5 739.5,-120.5"/>
<text text-anchor="middle" x="785" y="-127.5" font-family="Helvetica,sans-Serif" font-size="10.00">itk::LightObject</text>
</a>
</g>
</g>
<!-- Node4&#45;&gt;Node3 -->
<g id="edge3" class="edge">
<title>Node4&#45;&gt;Node3</title>
<path fill="none" stroke="midnightblue" d="M840.88,-129.44C902.09,-128.82 999.09,-127.84 1049.37,-127.33"/>
<polygon fill="midnightblue" stroke="midnightblue" points="840.6,-125.95 830.63,-129.55 840.67,-132.95 840.6,-125.95"/>
</g>
<!-- Node5 -->
<g id="node5" class="node">
<title>Node5</title>
<g id="a_node5"><a xlink:title=" ">
<polygon fill="white" stroke="#bfbfbf" points="457,-119.5 457,-138.5 564,-138.5 564,-119.5 457,-119.5"/>
<text text-anchor="middle" x="510.5" y="-126.5" font-family="Helvetica,sans-Serif" font-size="10.00">std::atomic&lt; int &gt;</text>
</a>
</g>
</g>
<!-- Node5&#45;&gt;Node4 -->
<g id="edge4" class="edge">
<title>Node5&#45;&gt;Node4</title>
<path fill="none" stroke="#9a32cd" stroke-dasharray="5,2" d="M574.18,-129.23C624.64,-129.42 694.33,-129.67 739.29,-129.84"/>
<polygon fill="#9a32cd" stroke="#9a32cd" points="574.05,-125.73 564.04,-129.19 574.03,-132.73 574.05,-125.73"/>
<text text-anchor="middle" x="651.5" y="-133" font-family="Helvetica,sans-Serif" font-size="10.00"> m_ReferenceCount</text>
</g>
<!-- Node6 -->
<g id="node6" class="node">
<title>Node6</title>
<g id="a_node6"><a xlink:title="STL class.">
<polygon fill="white" stroke="#bfbfbf" points="123,-102.5 123,-121.5 223,-121.5 223,-102.5 123,-102.5"/>
<text text-anchor="middle" x="173" y="-109.5" font-family="Helvetica,sans-Serif" font-size="10.00">std::atomic&lt; T &gt;</text>
</a>
</g>
</g>
<!-- Node6&#45;&gt;Node5 -->
<g id="edge5" class="edge">
<title>Node6&#45;&gt;Node5</title>
<path fill="none" stroke="orange" stroke-dasharray="5,2" d="M233.38,-115.01C296.77,-118.22 396.25,-123.26 456.9,-126.33"/>
<polygon fill="orange" stroke="orange" points="233.31,-111.5 223.14,-114.49 232.95,-118.49 233.31,-111.5"/>
<text text-anchor="middle" x="334" y="-127" font-family="Helvetica,sans-Serif" font-size="10.00"> &lt; int &gt;</text>
</g>
<!-- Node15 -->
<g id="node15" class="node">
<title>Node15</title>
<g id="a_node15"><a xlink:href="classitk_1_1TimeStamp.html" target="_top" xlink:title="Generate a unique, increasing time value.">
<polygon fill="white" stroke="black" points="605.5,-81.5 605.5,-100.5 697.5,-100.5 697.5,-81.5 605.5,-81.5"/>
<text text-anchor="middle" x="651.5" y="-88.5" font-family="Helvetica,sans-Serif" font-size="10.00">itk::TimeStamp</text>
</a>
</g>
</g>
<!-- Node6&#45;&gt;Node15 -->
<g id="edge17" class="edge">
<title>Node6&#45;&gt;Node15</title>
<path fill="none" stroke="#9a32cd" stroke-dasharray="5,2" d="M233.42,-103.58C239.02,-102.97 244.61,-102.43 250,-102 378.63,-91.8 531.13,-90.61 605.37,-90.72"/>
<polygon fill="#9a32cd" stroke="#9a32cd" points="232.92,-100.12 223.39,-104.75 233.73,-107.07 232.92,-100.12"/>
<text text-anchor="middle" x="334" y="-105" font-family="Helvetica,sans-Serif" font-size="10.00"> m_GlobalTimeStamp</text>
</g>
<!-- Node7 -->
<g id="node7" class="node">
<title>Node7</title>
<g id="a_node7"><a xlink:title=" ">
<polygon fill="white" stroke="#bfbfbf" points="0,-85.5 0,-104.5 29,-104.5 29,-85.5 0,-85.5"/>
<text text-anchor="middle" x="14.5" y="-92.5" font-family="Helvetica,sans-Serif" font-size="10.00">T</text>
</a>
</g>
</g>
<!-- Node7&#45;&gt;Node6 -->
<g id="edge6" class="edge">
<title>Node7&#45;&gt;Node6</title>
<path fill="none" stroke="#9a32cd" stroke-dasharray="5,2" d="M39.23,-97.58C61.29,-99.97 94.84,-103.62 122.7,-106.64"/>
<polygon fill="#9a32cd" stroke="#9a32cd" points="39.43,-94.08 29.11,-96.48 38.68,-101.04 39.43,-94.08"/>
<text text-anchor="middle" x="71.5" y="-107" font-family="Helvetica,sans-Serif" font-size="10.00"> ptr</text>
</g>
<!-- Node12 -->
<g id="node12" class="node">
<title>Node12</title>
<g id="a_node12"><a xlink:title="STL class.">
<polygon fill="white" stroke="#bfbfbf" points="122.5,-13.5 122.5,-32.5 223.5,-32.5 223.5,-13.5 122.5,-13.5"/>
<text text-anchor="middle" x="173" y="-20.5" font-family="Helvetica,sans-Serif" font-size="10.00">std::map&lt; K, T &gt;</text>
</a>
</g>
</g>
<!-- Node7&#45;&gt;Node12 -->
<g id="edge13" class="edge">
<title>Node7&#45;&gt;Node12</title>
<path fill="none" stroke="#9a32cd" stroke-dasharray="5,2" d="M28.82,-77.17C33.95,-71.32 40.22,-65.25 47,-61 69.78,-46.74 98.26,-37.54 122.27,-31.77"/>
<polygon fill="#9a32cd" stroke="#9a32cd" points="25.79,-75.36 22.2,-85.33 31.22,-79.77 25.79,-75.36"/>
<text text-anchor="middle" x="71.5" y="-64" font-family="Helvetica,sans-Serif" font-size="10.00"> elements</text>
</g>
<!-- Node14 -->
<g id="node14" class="node">
<title>Node14</title>
<g id="a_node14"><a xlink:title="STL class.">
<polygon fill="white" stroke="#bfbfbf" points="114,-60.5 114,-79.5 232,-79.5 232,-60.5 114,-60.5"/>
<text text-anchor="middle" x="173" y="-67.5" font-family="Helvetica,sans-Serif" font-size="10.00">std::shared_ptr&lt; T &gt;</text>
</a>
</g>
</g>
<!-- Node7&#45;&gt;Node14 -->
<g id="edge15" class="edge">
<title>Node7&#45;&gt;Node14</title>
<path fill="none" stroke="#9a32cd" stroke-dasharray="5,2" d="M38.72,-86.24C41.48,-85.39 44.29,-84.62 47,-84 68.61,-79.08 92.74,-75.86 113.98,-73.77"/>
<polygon fill="#9a32cd" stroke="#9a32cd" points="37.45,-82.97 29.1,-89.5 39.7,-89.6 37.45,-82.97"/>
<text text-anchor="middle" x="71.5" y="-87" font-family="Helvetica,sans-Serif" font-size="10.00"> ptr</text>
</g>
<!-- Node19 -->
<g id="node19" class="node">
<title>Node19</title>
<g id="a_node19"><a xlink:title="STL class.">
<polygon fill="white" stroke="#bfbfbf" points="285.5,-174.5 285.5,-193.5 382.5,-193.5 382.5,-174.5 285.5,-174.5"/>
<text text-anchor="middle" x="334" y="-181.5" font-family="Helvetica,sans-Serif" font-size="10.00">std::vector&lt; T &gt;</text>
</a>
</g>
</g>
<!-- Node7&#45;&gt;Node19 -->
<g id="edge24" class="edge">
<title>Node7&#45;&gt;Node19</title>
<path fill="none" stroke="#9a32cd" stroke-dasharray="5,2" d="M33.7,-110.92C37.86,-113.96 42.41,-116.86 47,-119 125.88,-155.87 226.99,-172.49 285.44,-179.46"/>
<polygon fill="#9a32cd" stroke="#9a32cd" points="35.84,-108.15 25.83,-104.68 31.49,-113.64 35.84,-108.15"/>
<text text-anchor="middle" x="71.5" y="-142" font-family="Helvetica,sans-Serif" font-size="10.00"> elements</text>
</g>
<!-- Node8 -->
<g id="node8" class="node">
<title>Node8</title>
<g id="a_node8"><a xlink:title="STL class.">
<polygon fill="white" stroke="#bfbfbf" points="752.5,-161.5 752.5,-180.5 817.5,-180.5 817.5,-161.5 752.5,-161.5"/>
<text text-anchor="middle" x="785" y="-168.5" font-family="Helvetica,sans-Serif" font-size="10.00">std::string</text>
</a>
</g>
</g>
<!-- Node8&#45;&gt;Node3 -->
<g id="edge7" class="edge">
<title>Node8&#45;&gt;Node3</title>
<path fill="none" stroke="#9a32cd" stroke-dasharray="5,2" d="M827.81,-165.53C868.5,-160.12 932.06,-151.45 987,-143 1007.66,-139.82 1030.8,-135.93 1049.06,-132.78"/>
<polygon fill="#9a32cd" stroke="#9a32cd" points="827.17,-162.08 817.72,-166.86 828.09,-169.02 827.17,-162.08"/>
<text text-anchor="middle" x="928.5" y="-163" font-family="Helvetica,sans-Serif" font-size="10.00"> m_ObjectName</text>
</g>
<!-- Node9 -->
<g id="node9" class="node">
<title>Node9</title>
<g id="a_node9"><a xlink:title="STL class.">
<polygon fill="white" stroke="#bfbfbf" points="458.5,-158 458.5,-188 562.5,-188 562.5,-158 458.5,-158"/>
<text text-anchor="start" x="466.5" y="-176" font-family="Helvetica,sans-Serif" font-size="10.00">std::basic_string&lt;</text>
<text text-anchor="middle" x="510.5" y="-165" font-family="Helvetica,sans-Serif" font-size="10.00"> char &gt;</text>
</a>
</g>
</g>
<!-- Node9&#45;&gt;Node8 -->
<g id="edge8" class="edge">
<title>Node9&#45;&gt;Node8</title>
<path fill="none" stroke="midnightblue" d="M572.85,-172.55C628.49,-172.14 708.3,-171.56 752.14,-171.23"/>
<polygon fill="midnightblue" stroke="midnightblue" points="572.73,-169.05 562.76,-172.62 572.78,-176.05 572.73,-169.05"/>
</g>
<!-- Node10 -->
<g id="node10" class="node">
<title>Node10</title>
<g id="a_node10"><a xlink:href="classitk_1_1MetaDataDictionary.html" target="_top" xlink:title="Provides a mechanism for storing a collection of arbitrary data types.">
<polygon fill="white" stroke="black" points="718,-35.5 718,-54.5 852,-54.5 852,-35.5 718,-35.5"/>
<text text-anchor="middle" x="785" y="-42.5" font-family="Helvetica,sans-Serif" font-size="10.00">itk::MetaDataDictionary</text>
</a>
</g>
</g>
<!-- Node10&#45;&gt;Node3 -->
<g id="edge9" class="edge">
<title>Node10&#45;&gt;Node3</title>
<path fill="none" stroke="#9a32cd" stroke-dasharray="5,2" d="M862.47,-44.69C900.78,-46.59 947.34,-52.08 987,-66 1020.48,-77.75 1054.1,-103.38 1070.94,-117.39"/>
<polygon fill="#9a32cd" stroke="#9a32cd" points="862.55,-41.19 852.41,-44.26 862.25,-48.18 862.55,-41.19"/>
<text text-anchor="middle" x="928.5" y="-69" font-family="Helvetica,sans-Serif" font-size="10.00"> m_MetaDataDictionary</text>
</g>
<!-- Node11 -->
<g id="node11" class="node">
<title>Node11</title>
<g id="a_node11"><a xlink:title=" ">
<polygon fill="white" stroke="#bfbfbf" points="436,-30 436,-60 585,-60 585,-30 436,-30"/>
<text text-anchor="start" x="444" y="-48" font-family="Helvetica,sans-Serif" font-size="10.00">std::shared_ptr&lt; MetaData</text>
<text text-anchor="middle" x="510.5" y="-37" font-family="Helvetica,sans-Serif" font-size="10.00">DictionaryMapType &gt;</text>
</a>
</g>
</g>
<!-- Node11&#45;&gt;Node10 -->
<g id="edge10" class="edge">
<title>Node11&#45;&gt;Node10</title>
<path fill="none" stroke="#9a32cd" stroke-dasharray="5,2" d="M595.34,-45C634.65,-45 680.82,-45 717.65,-45"/>
<polygon fill="#9a32cd" stroke="#9a32cd" points="595.24,-41.5 585.24,-45 595.24,-48.5 595.24,-41.5"/>
<text text-anchor="middle" x="651.5" y="-48" font-family="Helvetica,sans-Serif" font-size="10.00"> m_Dictionary</text>
</g>
<!-- Node12&#45;&gt;Node11 -->
<g id="edge11" class="edge">
<title>Node12&#45;&gt;Node11</title>
<path fill="none" stroke="#9a32cd" stroke-dasharray="5,2" d="M233.94,-19.57C283.47,-17.61 355.53,-16.79 418,-24 429.33,-25.31 441.31,-27.47 452.73,-29.92"/>
<polygon fill="#9a32cd" stroke="#9a32cd" points="233.57,-16.08 223.73,-20 233.87,-23.07 233.57,-16.08"/>
<text text-anchor="middle" x="334" y="-27" font-family="Helvetica,sans-Serif" font-size="10.00"> ptr</text>
</g>
<!-- Node13 -->
<g id="node13" class="node">
<title>Node13</title>
<g id="a_node13"><a xlink:title=" ">
<polygon fill="white" stroke="#bfbfbf" points="0,-0.5 0,-19.5 29,-19.5 29,-0.5 0,-0.5"/>
<text text-anchor="middle" x="14.5" y="-7.5" font-family="Helvetica,sans-Serif" font-size="10.00">K</text>
</a>
</g>
</g>
<!-- Node13&#45;&gt;Node12 -->
<g id="edge12" class="edge">
<title>Node13&#45;&gt;Node12</title>
<path fill="none" stroke="#9a32cd" stroke-dasharray="5,2" d="M39.32,-9.4C55.37,-9.21 76.99,-9.39 96,-11 104.52,-11.72 113.53,-12.83 122.25,-14.09"/>
<polygon fill="#9a32cd" stroke="#9a32cd" points="39.14,-5.9 29.2,-9.57 39.26,-12.9 39.14,-5.9"/>
<text text-anchor="middle" x="71.5" y="-14" font-family="Helvetica,sans-Serif" font-size="10.00"> keys</text>
</g>
<!-- Node14&#45;&gt;Node11 -->
<g id="edge14" class="edge">
<title>Node14&#45;&gt;Node11</title>
<path fill="none" stroke="orange" stroke-dasharray="5,2" d="M240.06,-59.14C243.42,-58.72 246.74,-58.34 250,-58 312.48,-51.52 383.77,-48.24 435.8,-46.6"/>
<polygon fill="orange" stroke="orange" points="239.4,-55.69 229.94,-60.47 240.32,-62.63 239.4,-55.69"/>
<text text-anchor="middle" x="334" y="-61" font-family="Helvetica,sans-Serif" font-size="10.00"> &lt; MetaDataDictionaryMapType &gt;</text>
</g>
<!-- Node15&#45;&gt;Node3 -->
<g id="edge16" class="edge">
<title>Node15&#45;&gt;Node3</title>
<path fill="none" stroke="#9a32cd" stroke-dasharray="5,2" d="M707.82,-92.43C747.9,-93.73 803.36,-96.05 852,-100 922.53,-105.72 1004.79,-116.34 1049.32,-122.41"/>
<polygon fill="#9a32cd" stroke="#9a32cd" points="707.83,-88.93 697.72,-92.11 707.61,-95.93 707.83,-88.93"/>
<text text-anchor="middle" x="785" y="-103" font-family="Helvetica,sans-Serif" font-size="10.00"> m_MTime</text>
</g>
<!-- Node16 -->
<g id="node16" class="node">
<title>Node16</title>
<g id="a_node16"><a xlink:href="classitk_1_1KLMSegmentationRegion.html" target="_top" xlink:title="Base class for KLMSegmentationRegion object.">
<polygon fill="white" stroke="black" points="2069,-148.5 2069,-167.5 2227,-167.5 2227,-148.5 2069,-148.5"/>
<text text-anchor="middle" x="2148" y="-155.5" font-family="Helvetica,sans-Serif" font-size="10.00">itk::KLMSegmentationRegion</text>
</a>
</g>
</g>
<!-- Node16&#45;&gt;Node1 -->
<g id="edge18" class="edge">
<title>Node16&#45;&gt;Node1</title>
<path fill="none" stroke="#9a32cd" stroke-dasharray="5,2" d="M2058.46,-158C1949.86,-158 1767.5,-158 1664.14,-158"/>
<polygon fill="#9a32cd" stroke="#9a32cd" points="2058.73,-161.5 2068.73,-158 2058.73,-154.5 2058.73,-161.5"/>
<text text-anchor="middle" x="1833.5" y="-172" font-family="Helvetica,sans-Serif" font-size="10.00"> m_Region1</text>
<text text-anchor="middle" x="1833.5" y="-161" font-family="Helvetica,sans-Serif" font-size="10.00">m_Region2</text>
</g>
<!-- Node17&#45;&gt;Node16 -->
<g id="edge19" class="edge">
<title>Node17&#45;&gt;Node16</title>
<path fill="none" stroke="midnightblue" d="M1499.28,-118.72C1638.65,-127.17 1929.41,-144.8 2068.97,-153.27"/>
<polygon fill="midnightblue" stroke="midnightblue" points="1499.3,-115.21 1489.1,-118.1 1498.87,-122.2 1499.3,-115.21"/>
</g>
<!-- Node18&#45;&gt;Node16 -->
<g id="edge21" class="edge">
<title>Node18&#45;&gt;Node16</title>
<path fill="none" stroke="#9a32cd" stroke-dasharray="5,2" d="M1928.22,-197.21C1982.44,-187.49 2048.68,-175.62 2093.98,-167.5"/>
<polygon fill="#9a32cd" stroke="#9a32cd" points="1927.47,-193.78 1918.24,-198.99 1928.7,-200.67 1927.47,-193.78"/>
<text text-anchor="middle" x="1993.5" y="-197" font-family="Helvetica,sans-Serif" font-size="10.00"> m_RegionBorderVector</text>
</g>
<!-- Node19&#45;&gt;Node18 -->
<g id="edge23" class="edge">
<title>Node19&#45;&gt;Node18</title>
<path fill="none" stroke="orange" stroke-dasharray="5,2" d="M392.83,-193.7C455.96,-203.44 560.12,-217 650.5,-217 650.5,-217 650.5,-217 1586.5,-217 1640.53,-217 1701.23,-216.27 1748.82,-215.53"/>
<polygon fill="orange" stroke="orange" points="393.1,-190.2 382.68,-192.11 392.02,-197.12 393.1,-190.2"/>
<text text-anchor="middle" x="1083" y="-220" font-family="Helvetica,sans-Serif" font-size="10.00"> &lt; KLMSegmentationBorder * &gt;</text>
</g>
</g>
</svg>
