<?xml version="1.0" encoding="UTF-8" standalone="no"?>
<!DOCTYPE svg PUBLIC "-//W3C//DTD SVG 1.1//EN"
 "http://www.w3.org/Graphics/SVG/1.1/DTD/svg11.dtd">
<!-- Generated by graphviz version 2.43.0 (0)
 -->
<!-- Title: itk::IsoDataThresholdImageFilter&lt; TInputImage, TOutputImage, TMaskImage &gt; Pages: 1 -->
<svg width="2960pt" height="604pt"
 viewBox="0.00 0.00 2960.00 604.00" xmlns="http://www.w3.org/2000/svg" xmlns:xlink="http://www.w3.org/1999/xlink">
<g id="graph0" class="graph" transform="scale(1 1) rotate(0) translate(4 600)">
<title>itk::IsoDataThresholdImageFilter&lt; TInputImage, TOutputImage, TMaskImage &gt;</title>
<polygon fill="white" stroke="transparent" points="-4,4 -4,-600 2956,-600 2956,4 -4,4"/>
<!-- Node1 -->
<g id="node1" class="node">
<title>Node1</title>
<g id="a_node1"><a xlink:title="Threshold an image using the IsoData Threshold.">
<polygon fill="#bfbfbf" stroke="black" points="2759,-49.5 2759,-90.5 2952,-90.5 2952,-49.5 2759,-49.5"/>
<text text-anchor="start" x="2767" y="-78.5" font-family="Helvetica,sans-Serif" font-size="10.00">itk::IsoDataThresholdImage</text>
<text text-anchor="start" x="2767" y="-67.5" font-family="Helvetica,sans-Serif" font-size="10.00">Filter&lt; TInputImage, TOutputImage,</text>
<text text-anchor="middle" x="2855.5" y="-56.5" font-family="Helvetica,sans-Serif" font-size="10.00"> TMaskImage &gt;</text>
</a>
</g>
</g>
<!-- Node2 -->
<g id="node2" class="node">
<title>Node2</title>
<g id="a_node2"><a xlink:href="classitk_1_1HistogramThresholdImageFilter.html" target="_top" xlink:title=" ">
<polygon fill="white" stroke="black" points="2529,-49.5 2529,-90.5 2722,-90.5 2722,-49.5 2529,-49.5"/>
<text text-anchor="start" x="2537" y="-78.5" font-family="Helvetica,sans-Serif" font-size="10.00">itk::HistogramThresholdImage</text>
<text text-anchor="start" x="2537" y="-67.5" font-family="Helvetica,sans-Serif" font-size="10.00">Filter&lt; TInputImage, TOutputImage,</text>
<text text-anchor="middle" x="2625.5" y="-56.5" font-family="Helvetica,sans-Serif" font-size="10.00"> TOutputImage &gt;</text>
</a>
</g>
</g>
<!-- Node2&#45;&gt;Node1 -->
<g id="edge1" class="edge">
<title>Node2&#45;&gt;Node1</title>
<path fill="none" stroke="midnightblue" d="M2732.44,-70C2741.19,-70 2750.01,-70 2758.68,-70"/>
<polygon fill="midnightblue" stroke="midnightblue" points="2732.2,-66.5 2722.2,-70 2732.2,-73.5 2732.2,-66.5"/>
</g>
<!-- Node3 -->
<g id="node3" class="node">
<title>Node3</title>
<g id="a_node3"><a xlink:href="classitk_1_1ImageToImageFilter.html" target="_top" xlink:title="Base class for filters that take an image as input and produce an image as output.">
<polygon fill="white" stroke="black" points="1932,-105 1932,-135 2108,-135 2108,-105 1932,-105"/>
<text text-anchor="start" x="1940" y="-123" font-family="Helvetica,sans-Serif" font-size="10.00">itk::ImageToImageFilter</text>
<text text-anchor="middle" x="2020" y="-112" font-family="Helvetica,sans-Serif" font-size="10.00">&lt; TInputImage, TOutputImage &gt;</text>
</a>
</g>
</g>
<!-- Node3&#45;&gt;Node2 -->
<g id="edge2" class="edge">
<title>Node3&#45;&gt;Node2</title>
<path fill="none" stroke="midnightblue" d="M2118.28,-114.27C2217.24,-108.11 2374.97,-97.38 2511,-84 2516.83,-83.43 2522.82,-82.8 2528.86,-82.14"/>
<polygon fill="midnightblue" stroke="midnightblue" points="2118.06,-110.78 2108.3,-114.89 2118.49,-117.77 2118.06,-110.78"/>
</g>
<!-- Node32 -->
<g id="node32" class="node">
<title>Node32</title>
<g id="a_node32"><a xlink:href="classitk_1_1HistogramThresholdImageFilter.html" target="_top" xlink:title="Threshold an image using a HistogramThresholdCalculator.">
<polygon fill="white" stroke="black" points="2145,-0.5 2145,-41.5 2338,-41.5 2338,-0.5 2145,-0.5"/>
<text text-anchor="start" x="2153" y="-29.5" font-family="Helvetica,sans-Serif" font-size="10.00">itk::HistogramThresholdImage</text>
<text text-anchor="start" x="2153" y="-18.5" font-family="Helvetica,sans-Serif" font-size="10.00">Filter&lt; TInputImage, TOutputImage,</text>
<text text-anchor="middle" x="2241.5" y="-7.5" font-family="Helvetica,sans-Serif" font-size="10.00"> TMaskImage &gt;</text>
</a>
</g>
</g>
<!-- Node3&#45;&gt;Node32 -->
<g id="edge46" class="edge">
<title>Node3&#45;&gt;Node32</title>
<path fill="none" stroke="midnightblue" d="M2063.55,-100.81C2101.32,-83.77 2156.37,-58.95 2195,-41.52"/>
<polygon fill="midnightblue" stroke="midnightblue" points="2062.01,-97.66 2054.34,-104.96 2064.89,-104.04 2062.01,-97.66"/>
</g>
<!-- Node4 -->
<g id="node4" class="node">
<title>Node4</title>
<g id="a_node4"><a xlink:href="classitk_1_1ImageSource.html" target="_top" xlink:title="Base class for all process objects that output image data.">
<polygon fill="white" stroke="black" points="1732.5,-218 1732.5,-248 1881.5,-248 1881.5,-218 1732.5,-218"/>
<text text-anchor="start" x="1740.5" y="-236" font-family="Helvetica,sans-Serif" font-size="10.00">itk::ImageSource&lt; TOutput</text>
<text text-anchor="middle" x="1807" y="-225" font-family="Helvetica,sans-Serif" font-size="10.00">Image &gt;</text>
</a>
</g>
</g>
<!-- Node4&#45;&gt;Node3 -->
<g id="edge3" class="edge">
<title>Node4&#45;&gt;Node3</title>
<path fill="none" stroke="midnightblue" d="M1845.01,-213.18C1886.63,-190.89 1953.29,-155.19 1990.86,-135.07"/>
<polygon fill="midnightblue" stroke="midnightblue" points="1843.18,-210.19 1836.02,-217.99 1846.49,-216.36 1843.18,-210.19"/>
</g>
<!-- Node5 -->
<g id="node5" class="node">
<title>Node5</title>
<g id="a_node5"><a xlink:href="classitk_1_1ProcessObject.html" target="_top" xlink:title="The base class for all process objects (source, filters, mappers) in the Insight data processing pipe...">
<polygon fill="white" stroke="black" points="1491.5,-320.5 1491.5,-339.5 1595.5,-339.5 1595.5,-320.5 1491.5,-320.5"/>
<text text-anchor="middle" x="1543.5" y="-327.5" font-family="Helvetica,sans-Serif" font-size="10.00">itk::ProcessObject</text>
</a>
</g>
</g>
<!-- Node5&#45;&gt;Node4 -->
<g id="edge4" class="edge">
<title>Node5&#45;&gt;Node4</title>
<path fill="none" stroke="midnightblue" d="M1579.93,-316.86C1628.17,-298.97 1714.29,-267.02 1765.17,-248.14"/>
<polygon fill="midnightblue" stroke="midnightblue" points="1578.69,-313.59 1570.53,-320.34 1581.12,-320.15 1578.69,-313.59"/>
</g>
<!-- Node6 -->
<g id="node6" class="node">
<title>Node6</title>
<g id="a_node6"><a xlink:href="classitk_1_1Object.html" target="_top" xlink:title="Base class for most ITK classes.">
<polygon fill="white" stroke="black" points="1176,-375.5 1176,-394.5 1243,-394.5 1243,-375.5 1176,-375.5"/>
<text text-anchor="middle" x="1209.5" y="-382.5" font-family="Helvetica,sans-Serif" font-size="10.00">itk::Object</text>
</a>
</g>
</g>
<!-- Node6&#45;&gt;Node5 -->
<g id="edge5" class="edge">
<title>Node6&#45;&gt;Node5</title>
<path fill="none" stroke="midnightblue" d="M1253.36,-378.03C1302,-370.1 1383.73,-356.73 1454,-345 1466.14,-342.97 1479.22,-340.77 1491.5,-338.69"/>
<polygon fill="midnightblue" stroke="midnightblue" points="1252.51,-374.62 1243.2,-379.68 1253.63,-381.53 1252.51,-374.62"/>
</g>
<!-- Node7 -->
<g id="node7" class="node">
<title>Node7</title>
<g id="a_node7"><a xlink:href="classitk_1_1LightObject.html" target="_top" xlink:title="Light weight base class for most itk classes.">
<polygon fill="white" stroke="black" points="834.5,-412.5 834.5,-431.5 925.5,-431.5 925.5,-412.5 834.5,-412.5"/>
<text text-anchor="middle" x="880" y="-419.5" font-family="Helvetica,sans-Serif" font-size="10.00">itk::LightObject</text>
</a>
</g>
</g>
<!-- Node7&#45;&gt;Node6 -->
<g id="edge6" class="edge">
<title>Node7&#45;&gt;Node6</title>
<path fill="none" stroke="midnightblue" d="M935.62,-416.07C981.4,-411.08 1048.48,-403.7 1107,-397 1129.92,-394.38 1155.73,-391.32 1175.59,-388.95"/>
<polygon fill="midnightblue" stroke="midnightblue" points="935.17,-412.6 925.61,-417.17 935.93,-419.56 935.17,-412.6"/>
</g>
<!-- Node8 -->
<g id="node8" class="node">
<title>Node8</title>
<g id="a_node8"><a xlink:title=" ">
<polygon fill="white" stroke="#bfbfbf" points="492,-416.5 492,-435.5 599,-435.5 599,-416.5 492,-416.5"/>
<text text-anchor="middle" x="545.5" y="-423.5" font-family="Helvetica,sans-Serif" font-size="10.00">std::atomic&lt; int &gt;</text>
</a>
</g>
</g>
<!-- Node8&#45;&gt;Node7 -->
<g id="edge7" class="edge">
<title>Node8&#45;&gt;Node7</title>
<path fill="none" stroke="#9a32cd" stroke-dasharray="5,2" d="M609.41,-425.24C675.06,-424.45 776.36,-423.23 834.28,-422.54"/>
<polygon fill="#9a32cd" stroke="#9a32cd" points="609.14,-421.75 599.19,-425.37 609.23,-428.75 609.14,-421.75"/>
<text text-anchor="middle" x="721.5" y="-427" font-family="Helvetica,sans-Serif" font-size="10.00"> m_ReferenceCount</text>
</g>
<!-- Node9 -->
<g id="node9" class="node">
<title>Node9</title>
<g id="a_node9"><a xlink:title="STL class.">
<polygon fill="white" stroke="#bfbfbf" points="135.5,-453.5 135.5,-472.5 235.5,-472.5 235.5,-453.5 135.5,-453.5"/>
<text text-anchor="middle" x="185.5" y="-460.5" font-family="Helvetica,sans-Serif" font-size="10.00">std::atomic&lt; T &gt;</text>
</a>
</g>
</g>
<!-- Node9&#45;&gt;Node8 -->
<g id="edge8" class="edge">
<title>Node9&#45;&gt;Node8</title>
<path fill="none" stroke="orange" stroke-dasharray="5,2" d="M244.21,-451.7C254.44,-449.94 265.01,-448.29 275,-447 350.05,-437.32 437.48,-431.5 491.92,-428.52"/>
<polygon fill="orange" stroke="orange" points="243.37,-448.29 234.13,-453.48 244.59,-455.19 243.37,-448.29"/>
<text text-anchor="middle" x="359" y="-450" font-family="Helvetica,sans-Serif" font-size="10.00"> &lt; int &gt;</text>
</g>
<!-- Node18 -->
<g id="node18" class="node">
<title>Node18</title>
<g id="a_node18"><a xlink:href="classitk_1_1TimeStamp.html" target="_top" xlink:title="Generate a unique, increasing time value.">
<polygon fill="white" stroke="black" points="834,-460.5 834,-479.5 926,-479.5 926,-460.5 834,-460.5"/>
<text text-anchor="middle" x="880" y="-467.5" font-family="Helvetica,sans-Serif" font-size="10.00">itk::TimeStamp</text>
</a>
</g>
</g>
<!-- Node9&#45;&gt;Node18 -->
<g id="edge20" class="edge">
<title>Node9&#45;&gt;Node18</title>
<path fill="none" stroke="#9a32cd" stroke-dasharray="5,2" d="M245.96,-463.6C381.82,-464.97 712.58,-468.32 833.64,-469.54"/>
<polygon fill="#9a32cd" stroke="#9a32cd" points="245.78,-460.1 235.75,-463.5 245.71,-467.1 245.78,-460.1"/>
<text text-anchor="middle" x="545.5" y="-470" font-family="Helvetica,sans-Serif" font-size="10.00"> m_GlobalTimeStamp</text>
</g>
<!-- Node22 -->
<g id="node22" class="node">
<title>Node22</title>
<g id="a_node22"><a xlink:title=" ">
<polygon fill="white" stroke="#bfbfbf" points="654.5,-500.5 654.5,-519.5 788.5,-519.5 788.5,-500.5 654.5,-500.5"/>
<text text-anchor="middle" x="721.5" y="-507.5" font-family="Helvetica,sans-Serif" font-size="10.00">std::atomic&lt; uint32_t &gt;</text>
</a>
</g>
</g>
<!-- Node9&#45;&gt;Node22 -->
<g id="edge29" class="edge">
<title>Node9&#45;&gt;Node22</title>
<path fill="none" stroke="orange" stroke-dasharray="5,2" d="M226.87,-475.31C241.85,-479.4 259.07,-483.53 275,-486 408.56,-506.74 567.03,-510.36 654.4,-510.56"/>
<polygon fill="orange" stroke="orange" points="227.48,-471.85 216.9,-472.51 225.58,-478.59 227.48,-471.85"/>
<text text-anchor="middle" x="359" y="-506" font-family="Helvetica,sans-Serif" font-size="10.00"> &lt; uint32_t &gt;</text>
</g>
<!-- Node10 -->
<g id="node10" class="node">
<title>Node10</title>
<g id="a_node10"><a xlink:title=" ">
<polygon fill="white" stroke="#bfbfbf" points="0,-434.5 0,-453.5 29,-453.5 29,-434.5 0,-434.5"/>
<text text-anchor="middle" x="14.5" y="-441.5" font-family="Helvetica,sans-Serif" font-size="10.00">T</text>
</a>
</g>
</g>
<!-- Node10&#45;&gt;Node9 -->
<g id="edge9" class="edge">
<title>Node10&#45;&gt;Node9</title>
<path fill="none" stroke="#9a32cd" stroke-dasharray="5,2" d="M39,-446.64C63.8,-449.43 103.63,-453.91 135.35,-457.47"/>
<polygon fill="#9a32cd" stroke="#9a32cd" points="39.37,-443.16 29.04,-445.52 38.59,-450.12 39.37,-443.16"/>
<text text-anchor="middle" x="71.5" y="-455" font-family="Helvetica,sans-Serif" font-size="10.00"> ptr</text>
</g>
<!-- Node15 -->
<g id="node15" class="node">
<title>Node15</title>
<g id="a_node15"><a xlink:title="STL class.">
<polygon fill="white" stroke="#bfbfbf" points="135,-304.5 135,-323.5 236,-323.5 236,-304.5 135,-304.5"/>
<text text-anchor="middle" x="185.5" y="-311.5" font-family="Helvetica,sans-Serif" font-size="10.00">std::map&lt; K, T &gt;</text>
</a>
</g>
</g>
<!-- Node10&#45;&gt;Node15 -->
<g id="edge16" class="edge">
<title>Node10&#45;&gt;Node15</title>
<path fill="none" stroke="#9a32cd" stroke-dasharray="5,2" d="M28.41,-426.32C33.76,-419.57 40.29,-412.06 47,-406 86.02,-370.79 139.52,-338.9 166.85,-323.59"/>
<polygon fill="#9a32cd" stroke="#9a32cd" points="25.61,-424.21 22.32,-434.28 31.17,-428.46 25.61,-424.21"/>
<text text-anchor="middle" x="71.5" y="-409" font-family="Helvetica,sans-Serif" font-size="10.00"> elements</text>
</g>
<!-- Node17 -->
<g id="node17" class="node">
<title>Node17</title>
<g id="a_node17"><a xlink:title="STL class.">
<polygon fill="white" stroke="#bfbfbf" points="126.5,-400.5 126.5,-419.5 244.5,-419.5 244.5,-400.5 126.5,-400.5"/>
<text text-anchor="middle" x="185.5" y="-407.5" font-family="Helvetica,sans-Serif" font-size="10.00">std::shared_ptr&lt; T &gt;</text>
</a>
</g>
</g>
<!-- Node10&#45;&gt;Node17 -->
<g id="edge18" class="edge">
<title>Node10&#45;&gt;Node17</title>
<path fill="none" stroke="#9a32cd" stroke-dasharray="5,2" d="M38.71,-434.55C41.48,-433.6 44.28,-432.73 47,-432 72.69,-425.13 101.69,-420.1 126.41,-416.6"/>
<polygon fill="#9a32cd" stroke="#9a32cd" points="37.25,-431.36 29.1,-438.12 39.69,-437.92 37.25,-431.36"/>
<text text-anchor="middle" x="71.5" y="-435" font-family="Helvetica,sans-Serif" font-size="10.00"> ptr</text>
</g>
<!-- Node25 -->
<g id="node25" class="node">
<title>Node25</title>
<g id="a_node25"><a xlink:title="STL class.">
<polygon fill="white" stroke="#bfbfbf" points="137,-572.5 137,-591.5 234,-591.5 234,-572.5 137,-572.5"/>
<text text-anchor="middle" x="185.5" y="-579.5" font-family="Helvetica,sans-Serif" font-size="10.00">std::vector&lt; T &gt;</text>
</a>
</g>
</g>
<!-- Node10&#45;&gt;Node25 -->
<g id="edge33" class="edge">
<title>Node10&#45;&gt;Node25</title>
<path fill="none" stroke="#9a32cd" stroke-dasharray="5,2" d="M25.88,-462.72C41.51,-489.14 73.59,-537.02 114,-563 120.93,-567.46 128.89,-570.87 136.9,-573.49"/>
<polygon fill="#9a32cd" stroke="#9a32cd" points="28.74,-460.66 20.72,-453.74 22.67,-464.15 28.74,-460.66"/>
<text text-anchor="middle" x="71.5" y="-550" font-family="Helvetica,sans-Serif" font-size="10.00"> elements</text>
</g>
<!-- Node11 -->
<g id="node11" class="node">
<title>Node11</title>
<g id="a_node11"><a xlink:title="STL class.">
<polygon fill="white" stroke="#bfbfbf" points="847.5,-231.5 847.5,-250.5 912.5,-250.5 912.5,-231.5 847.5,-231.5"/>
<text text-anchor="middle" x="880" y="-238.5" font-family="Helvetica,sans-Serif" font-size="10.00">std::string</text>
</a>
</g>
</g>
<!-- Node11&#45;&gt;Node6 -->
<g id="edge10" class="edge">
<title>Node11&#45;&gt;Node6</title>
<path fill="none" stroke="#9a32cd" stroke-dasharray="5,2" d="M899.03,-257.26C915.3,-271.24 940.38,-291.11 965,-304 1036.05,-341.2 1127.57,-366.13 1175.64,-377.66"/>
<polygon fill="#9a32cd" stroke="#9a32cd" points="901.21,-254.52 891.38,-250.56 896.6,-259.78 901.21,-254.52"/>
<text text-anchor="middle" x="1036" y="-362" font-family="Helvetica,sans-Serif" font-size="10.00"> m_ObjectName</text>
</g>
<!-- Node19 -->
<g id="node19" class="node">
<title>Node19</title>
<g id="a_node19"><a xlink:title=" ">
<polygon fill="white" stroke="#bfbfbf" points="1128.5,-315 1128.5,-345 1290.5,-345 1290.5,-315 1128.5,-315"/>
<text text-anchor="start" x="1136.5" y="-333" font-family="Helvetica,sans-Serif" font-size="10.00">std::set&lt; DataObjectIdentifier</text>
<text text-anchor="middle" x="1209.5" y="-322" font-family="Helvetica,sans-Serif" font-size="10.00">Type &gt;</text>
</a>
</g>
</g>
<!-- Node11&#45;&gt;Node19 -->
<g id="edge22" class="edge">
<title>Node11&#45;&gt;Node19</title>
<path fill="none" stroke="#9a32cd" stroke-dasharray="5,2" d="M922.59,-248.97C968.24,-258.08 1043.47,-274.19 1107,-293 1128.4,-299.34 1151.84,-307.78 1170.79,-315"/>
<polygon fill="#9a32cd" stroke="#9a32cd" points="923.25,-245.53 912.76,-247.02 921.89,-252.39 923.25,-245.53"/>
<text text-anchor="middle" x="1036" y="-296" font-family="Helvetica,sans-Serif" font-size="10.00"> keys</text>
</g>
<!-- Node21 -->
<g id="node21" class="node">
<title>Node21</title>
<g id="a_node21"><a xlink:title=" ">
<polygon fill="white" stroke="#bfbfbf" points="1125,-184 1125,-214 1294,-214 1294,-184 1125,-184"/>
<text text-anchor="start" x="1133" y="-202" font-family="Helvetica,sans-Serif" font-size="10.00">std::map&lt; DataObjectIdentifier</text>
<text text-anchor="middle" x="1209.5" y="-191" font-family="Helvetica,sans-Serif" font-size="10.00">Type, bool &gt;</text>
</a>
</g>
</g>
<!-- Node11&#45;&gt;Node21 -->
<g id="edge26" class="edge">
<title>Node11&#45;&gt;Node21</title>
<path fill="none" stroke="#9a32cd" stroke-dasharray="5,2" d="M914.68,-228.05C929.83,-222.78 948.08,-217.19 965,-214 1017.55,-204.1 1077.49,-200.31 1124.75,-199.02"/>
<polygon fill="#9a32cd" stroke="#9a32cd" points="913.44,-224.77 905.21,-231.44 915.8,-231.37 913.44,-224.77"/>
<text text-anchor="middle" x="1036" y="-217" font-family="Helvetica,sans-Serif" font-size="10.00"> keys</text>
</g>
<!-- Node26 -->
<g id="node26" class="node">
<title>Node26</title>
<g id="a_node26"><a xlink:title=" ">
<polygon fill="white" stroke="#bfbfbf" points="1125,-244 1125,-274 1294,-274 1294,-244 1125,-244"/>
<text text-anchor="start" x="1133" y="-262" font-family="Helvetica,sans-Serif" font-size="10.00">std::map&lt; DataObjectIdentifier</text>
<text text-anchor="middle" x="1209.5" y="-251" font-family="Helvetica,sans-Serif" font-size="10.00">Type, DataObjectPointer &gt;</text>
</a>
</g>
</g>
<!-- Node11&#45;&gt;Node26 -->
<g id="edge37" class="edge">
<title>Node11&#45;&gt;Node26</title>
<path fill="none" stroke="#9a32cd" stroke-dasharray="5,2" d="M923.21,-236.79C936.56,-235.65 951.39,-234.57 965,-234 1028.06,-231.38 1044.35,-226.4 1107,-234 1123.75,-236.03 1141.73,-239.89 1157.83,-243.97"/>
<polygon fill="#9a32cd" stroke="#9a32cd" points="922.52,-233.34 912.87,-237.72 923.14,-240.31 922.52,-233.34"/>
<text text-anchor="middle" x="1036" y="-237" font-family="Helvetica,sans-Serif" font-size="10.00"> keys</text>
</g>
<!-- Node12 -->
<g id="node12" class="node">
<title>Node12</title>
<g id="a_node12"><a xlink:title="STL class.">
<polygon fill="white" stroke="#bfbfbf" points="493.5,-226 493.5,-256 597.5,-256 597.5,-226 493.5,-226"/>
<text text-anchor="start" x="501.5" y="-244" font-family="Helvetica,sans-Serif" font-size="10.00">std::basic_string&lt;</text>
<text text-anchor="middle" x="545.5" y="-233" font-family="Helvetica,sans-Serif" font-size="10.00"> char &gt;</text>
</a>
</g>
</g>
<!-- Node12&#45;&gt;Node11 -->
<g id="edge11" class="edge">
<title>Node12&#45;&gt;Node11</title>
<path fill="none" stroke="midnightblue" d="M607.85,-241C678.64,-241 792.34,-241 847.27,-241"/>
<polygon fill="midnightblue" stroke="midnightblue" points="607.72,-237.5 597.72,-241 607.72,-244.5 607.72,-237.5"/>
</g>
<!-- Node13 -->
<g id="node13" class="node">
<title>Node13</title>
<g id="a_node13"><a xlink:href="classitk_1_1MetaDataDictionary.html" target="_top" xlink:title="Provides a mechanism for storing a collection of arbitrary data types.">
<polygon fill="white" stroke="black" points="813,-373.5 813,-392.5 947,-392.5 947,-373.5 813,-373.5"/>
<text text-anchor="middle" x="880" y="-380.5" font-family="Helvetica,sans-Serif" font-size="10.00">itk::MetaDataDictionary</text>
</a>
</g>
</g>
<!-- Node13&#45;&gt;Node6 -->
<g id="edge12" class="edge">
<title>Node13&#45;&gt;Node6</title>
<path fill="none" stroke="#9a32cd" stroke-dasharray="5,2" d="M957.68,-383.47C1026.84,-383.89 1125.22,-384.49 1175.75,-384.8"/>
<polygon fill="#9a32cd" stroke="#9a32cd" points="957.3,-379.97 947.27,-383.4 957.25,-386.97 957.3,-379.97"/>
<text text-anchor="middle" x="1036" y="-387" font-family="Helvetica,sans-Serif" font-size="10.00"> m_MetaDataDictionary</text>
</g>
<!-- Node14 -->
<g id="node14" class="node">
<title>Node14</title>
<g id="a_node14"><a xlink:title=" ">
<polygon fill="white" stroke="#bfbfbf" points="471,-367 471,-397 620,-397 620,-367 471,-367"/>
<text text-anchor="start" x="479" y="-385" font-family="Helvetica,sans-Serif" font-size="10.00">std::shared_ptr&lt; MetaData</text>
<text text-anchor="middle" x="545.5" y="-374" font-family="Helvetica,sans-Serif" font-size="10.00">DictionaryMapType &gt;</text>
</a>
</g>
</g>
<!-- Node14&#45;&gt;Node13 -->
<g id="edge13" class="edge">
<title>Node14&#45;&gt;Node13</title>
<path fill="none" stroke="#9a32cd" stroke-dasharray="5,2" d="M630.63,-382.25C687.09,-382.42 760.43,-382.64 812.74,-382.8"/>
<polygon fill="#9a32cd" stroke="#9a32cd" points="630.3,-378.75 620.29,-382.22 630.28,-385.75 630.3,-378.75"/>
<text text-anchor="middle" x="721.5" y="-385" font-family="Helvetica,sans-Serif" font-size="10.00"> m_Dictionary</text>
</g>
<!-- Node15&#45;&gt;Node14 -->
<g id="edge14" class="edge">
<title>Node15&#45;&gt;Node14</title>
<path fill="none" stroke="#9a32cd" stroke-dasharray="5,2" d="M246.48,-308.81C299.28,-306.05 377.69,-306.41 443,-325 473.52,-333.69 504.78,-353.16 524.39,-366.92"/>
<polygon fill="#9a32cd" stroke="#9a32cd" points="246.06,-305.33 236.28,-309.4 246.46,-312.31 246.06,-305.33"/>
<text text-anchor="middle" x="359" y="-328" font-family="Helvetica,sans-Serif" font-size="10.00"> ptr</text>
</g>
<!-- Node15&#45;&gt;Node21 -->
<g id="edge27" class="edge">
<title>Node15&#45;&gt;Node21</title>
<path fill="none" stroke="orange" stroke-dasharray="5,2" d="M218.19,-300.45C268.65,-279.43 370.78,-239.06 461,-217 680.74,-163.27 739.34,-161.82 965,-146 1027.96,-141.59 1045.71,-130.96 1107,-146 1136.73,-153.3 1167.42,-170.99 1187.16,-183.94"/>
<polygon fill="orange" stroke="orange" points="216.68,-297.29 208.81,-304.39 219.39,-303.75 216.68,-297.29"/>
<text text-anchor="start" x="652" y="-190" font-family="Helvetica,sans-Serif" font-size="10.00"> &lt; DataObjectIdentifierType,</text>
<text text-anchor="middle" x="721.5" y="-179" font-family="Helvetica,sans-Serif" font-size="10.00"> bool &gt;</text>
</g>
<!-- Node15&#45;&gt;Node26 -->
<g id="edge38" class="edge">
<title>Node15&#45;&gt;Node26</title>
<path fill="none" stroke="orange" stroke-dasharray="5,2" d="M246.35,-308.9C255.93,-308.19 265.73,-307.52 275,-307 644.4,-286.19 739.42,-321.12 1107,-279 1117.8,-277.76 1129.16,-275.99 1140.21,-274.01"/>
<polygon fill="orange" stroke="orange" points="245.79,-305.43 236.09,-309.68 246.33,-312.41 245.79,-305.43"/>
<text text-anchor="start" x="652" y="-315" font-family="Helvetica,sans-Serif" font-size="10.00"> &lt; DataObjectIdentifierType,</text>
<text text-anchor="middle" x="721.5" y="-304" font-family="Helvetica,sans-Serif" font-size="10.00"> DataObjectPointer &gt;</text>
</g>
<!-- Node16 -->
<g id="node16" class="node">
<title>Node16</title>
<g id="a_node16"><a xlink:title=" ">
<polygon fill="white" stroke="#bfbfbf" points="0,-324.5 0,-343.5 29,-343.5 29,-324.5 0,-324.5"/>
<text text-anchor="middle" x="14.5" y="-331.5" font-family="Helvetica,sans-Serif" font-size="10.00">K</text>
</a>
</g>
</g>
<!-- Node16&#45;&gt;Node15 -->
<g id="edge15" class="edge">
<title>Node16&#45;&gt;Node15</title>
<path fill="none" stroke="#9a32cd" stroke-dasharray="5,2" d="M38.37,-321.81C41.21,-320.68 44.13,-319.7 47,-319 75.54,-312.01 108.39,-310.58 134.83,-310.98"/>
<polygon fill="#9a32cd" stroke="#9a32cd" points="36.81,-318.67 29.16,-326 39.71,-325.04 36.81,-318.67"/>
<text text-anchor="middle" x="71.5" y="-322" font-family="Helvetica,sans-Serif" font-size="10.00"> keys</text>
</g>
<!-- Node20 -->
<g id="node20" class="node">
<title>Node20</title>
<g id="a_node20"><a xlink:title="STL class.">
<polygon fill="white" stroke="#bfbfbf" points="318,-342.5 318,-361.5 400,-361.5 400,-342.5 318,-342.5"/>
<text text-anchor="middle" x="359" y="-349.5" font-family="Helvetica,sans-Serif" font-size="10.00">std::set&lt; K &gt;</text>
</a>
</g>
</g>
<!-- Node16&#45;&gt;Node20 -->
<g id="edge24" class="edge">
<title>Node16&#45;&gt;Node20</title>
<path fill="none" stroke="#9a32cd" stroke-dasharray="5,2" d="M39.38,-335.25C97.31,-338.3 245.82,-346.1 317.76,-349.88"/>
<polygon fill="#9a32cd" stroke="#9a32cd" points="39.52,-331.76 29.35,-334.73 39.15,-338.75 39.52,-331.76"/>
<text text-anchor="middle" x="71.5" y="-341" font-family="Helvetica,sans-Serif" font-size="10.00"> keys</text>
</g>
<!-- Node17&#45;&gt;Node14 -->
<g id="edge17" class="edge">
<title>Node17&#45;&gt;Node14</title>
<path fill="none" stroke="orange" stroke-dasharray="5,2" d="M254.63,-404.6C261.51,-404.06 268.39,-403.52 275,-403 341.2,-397.8 416.56,-391.93 470.72,-387.73"/>
<polygon fill="orange" stroke="orange" points="254.27,-401.12 244.58,-405.4 254.82,-408.1 254.27,-401.12"/>
<text text-anchor="middle" x="359" y="-406" font-family="Helvetica,sans-Serif" font-size="10.00"> &lt; MetaDataDictionaryMapType &gt;</text>
</g>
<!-- Node18&#45;&gt;Node5 -->
<g id="edge41" class="edge">
<title>Node18&#45;&gt;Node5</title>
<path fill="none" stroke="#9a32cd" stroke-dasharray="5,2" d="M936.33,-469.36C982.27,-468.17 1049.2,-464.88 1107,-456 1264.05,-431.88 1303.88,-422.05 1454,-370 1478.85,-361.38 1506.28,-348.42 1523.91,-339.6"/>
<polygon fill="#9a32cd" stroke="#9a32cd" points="936.19,-465.86 926.28,-469.6 936.36,-472.86 936.19,-465.86"/>
<text text-anchor="middle" x="1209.5" y="-455" font-family="Helvetica,sans-Serif" font-size="10.00"> m_OutputInformationMTime</text>
</g>
<!-- Node18&#45;&gt;Node6 -->
<g id="edge19" class="edge">
<title>Node18&#45;&gt;Node6</title>
<path fill="none" stroke="#9a32cd" stroke-dasharray="5,2" d="M920.18,-457.44C934.23,-453.18 950.25,-448.59 965,-445 1027.42,-429.82 1044.77,-433.96 1107,-418 1132.85,-411.37 1161.73,-401.76 1182.06,-394.62"/>
<polygon fill="#9a32cd" stroke="#9a32cd" points="918.87,-454.18 910.35,-460.47 920.93,-460.87 918.87,-454.18"/>
<text text-anchor="middle" x="1036" y="-448" font-family="Helvetica,sans-Serif" font-size="10.00"> m_MTime</text>
</g>
<!-- Node19&#45;&gt;Node5 -->
<g id="edge21" class="edge">
<title>Node19&#45;&gt;Node5</title>
<path fill="none" stroke="#9a32cd" stroke-dasharray="5,2" d="M1300.91,-330C1362.07,-330 1440.64,-330 1491.28,-330"/>
<polygon fill="#9a32cd" stroke="#9a32cd" points="1300.87,-326.5 1290.87,-330 1300.87,-333.5 1300.87,-326.5"/>
<text text-anchor="middle" x="1383" y="-333" font-family="Helvetica,sans-Serif" font-size="10.00"> m_RequiredInputNames</text>
</g>
<!-- Node20&#45;&gt;Node19 -->
<g id="edge23" class="edge">
<title>Node20&#45;&gt;Node19</title>
<path fill="none" stroke="orange" stroke-dasharray="5,2" d="M410.13,-352.1C530.4,-352.1 844.84,-350.78 1107,-338 1113.97,-337.66 1121.21,-337.23 1128.47,-336.76"/>
<polygon fill="orange" stroke="orange" points="410.11,-348.6 400.11,-352.09 410.11,-355.6 410.11,-348.6"/>
<text text-anchor="middle" x="721.5" y="-353" font-family="Helvetica,sans-Serif" font-size="10.00"> &lt; DataObjectIdentifierType &gt;</text>
</g>
<!-- Node21&#45;&gt;Node5 -->
<g id="edge25" class="edge">
<title>Node21&#45;&gt;Node5</title>
<path fill="none" stroke="#9a32cd" stroke-dasharray="5,2" d="M1304.33,-206.95C1351.25,-213.78 1407.74,-226.46 1454,-250 1489.07,-267.85 1520.83,-303.27 1534.88,-320.35"/>
<polygon fill="#9a32cd" stroke="#9a32cd" points="1304.55,-203.45 1294.16,-205.54 1303.58,-210.38 1304.55,-203.45"/>
<text text-anchor="start" x="1312" y="-264" font-family="Helvetica,sans-Serif" font-size="10.00"> m_CachedInputReleaseData</text>
<text text-anchor="middle" x="1383" y="-253" font-family="Helvetica,sans-Serif" font-size="10.00">Flags</text>
</g>
<!-- Node22&#45;&gt;Node5 -->
<g id="edge28" class="edge">
<title>Node22&#45;&gt;Node5</title>
<path fill="none" stroke="#9a32cd" stroke-dasharray="5,2" d="M798.59,-511.2C909.09,-511.39 1119.79,-505.9 1294,-467 1368.28,-450.42 1388.6,-444.93 1454,-406 1486.37,-386.73 1518.42,-355.34 1533.53,-339.62"/>
<polygon fill="#9a32cd" stroke="#9a32cd" points="798.55,-507.7 788.54,-511.17 798.53,-514.7 798.55,-507.7"/>
<text text-anchor="middle" x="1036" y="-510" font-family="Helvetica,sans-Serif" font-size="10.00"> m_Progress</text>
</g>
<!-- Node23 -->
<g id="node23" class="node">
<title>Node23</title>
<g id="a_node23"><a xlink:title=" ">
<polygon fill="white" stroke="#bfbfbf" points="461,-540 461,-570 630,-570 630,-540 461,-540"/>
<text text-anchor="start" x="469" y="-558" font-family="Helvetica,sans-Serif" font-size="10.00">std::vector&lt; DataObjectPointer</text>
<text text-anchor="middle" x="545.5" y="-547" font-family="Helvetica,sans-Serif" font-size="10.00">Map::iterator &gt;</text>
</a>
</g>
</g>
<!-- Node23&#45;&gt;Node5 -->
<g id="edge30" class="edge">
<title>Node23&#45;&gt;Node5</title>
<path fill="none" stroke="#9a32cd" stroke-dasharray="5,2" d="M640.28,-555.28C783.05,-553.94 1062.75,-544.33 1294,-494 1366.3,-478.27 1393.08,-490 1454,-448 1496.59,-418.64 1527.07,-362.14 1538.03,-339.62"/>
<polygon fill="#9a32cd" stroke="#9a32cd" points="640.21,-551.78 630.24,-555.37 640.27,-558.78 640.21,-551.78"/>
<text text-anchor="middle" x="1036" y="-554" font-family="Helvetica,sans-Serif" font-size="10.00"> m_IndexedOutputs</text>
<text text-anchor="middle" x="1036" y="-543" font-family="Helvetica,sans-Serif" font-size="10.00">m_IndexedInputs</text>
</g>
<!-- Node24 -->
<g id="node24" class="node">
<title>Node24</title>
<g id="a_node24"><a xlink:title="STL iterator class.">
<polygon fill="white" stroke="#bfbfbf" points="114,-534.5 114,-553.5 257,-553.5 257,-534.5 114,-534.5"/>
<text text-anchor="middle" x="185.5" y="-541.5" font-family="Helvetica,sans-Serif" font-size="10.00">std::map&lt; K, T &gt;::iterator</text>
</a>
</g>
</g>
<!-- Node24&#45;&gt;Node23 -->
<g id="edge31" class="edge">
<title>Node24&#45;&gt;Node23</title>
<path fill="none" stroke="#9a32cd" stroke-dasharray="5,2" d="M267.23,-544.16C317.76,-544.53 384.2,-545.52 443,-548 448.82,-548.25 454.83,-548.54 460.88,-548.88"/>
<polygon fill="#9a32cd" stroke="#9a32cd" points="267.05,-540.66 257.02,-544.09 267,-547.66 267.05,-540.66"/>
<text text-anchor="middle" x="359" y="-551" font-family="Helvetica,sans-Serif" font-size="10.00"> elements</text>
</g>
<!-- Node25&#45;&gt;Node23 -->
<g id="edge32" class="edge">
<title>Node25&#45;&gt;Node23</title>
<path fill="none" stroke="orange" stroke-dasharray="5,2" d="M244.23,-577.65C302.82,-573.23 394.14,-566.34 460.7,-561.32"/>
<polygon fill="orange" stroke="orange" points="243.75,-574.17 234.04,-578.41 244.27,-581.15 243.75,-574.17"/>
<text text-anchor="start" x="296.5" y="-588" font-family="Helvetica,sans-Serif" font-size="10.00"> &lt; DataObjectPointerMap</text>
<text text-anchor="middle" x="359" y="-577" font-family="Helvetica,sans-Serif" font-size="10.00">::iterator &gt;</text>
</g>
<!-- Node26&#45;&gt;Node5 -->
<g id="edge34" class="edge">
<title>Node26&#45;&gt;Node5</title>
<path fill="none" stroke="#9a32cd" stroke-dasharray="5,2" d="M1304.2,-273.99C1349.66,-281.86 1404.92,-292.29 1454,-304 1473.78,-308.72 1495.72,-315.16 1512.8,-320.44"/>
<polygon fill="#9a32cd" stroke="#9a32cd" points="1304.51,-270.49 1294.06,-272.25 1303.33,-277.39 1304.51,-270.49"/>
<text text-anchor="middle" x="1383" y="-318" font-family="Helvetica,sans-Serif" font-size="10.00"> m_Outputs</text>
<text text-anchor="middle" x="1383" y="-307" font-family="Helvetica,sans-Serif" font-size="10.00">m_Inputs</text>
</g>
<!-- Node27 -->
<g id="node27" class="node">
<title>Node27</title>
<g id="a_node27"><a xlink:href="classitk_1_1SmartPointer.html" target="_top" xlink:title=" ">
<polygon fill="white" stroke="black" points="826.5,-35 826.5,-65 933.5,-65 933.5,-35 826.5,-35"/>
<text text-anchor="start" x="834.5" y="-53" font-family="Helvetica,sans-Serif" font-size="10.00">itk::SmartPointer&lt;</text>
<text text-anchor="middle" x="880" y="-42" font-family="Helvetica,sans-Serif" font-size="10.00"> Self &gt;</text>
</a>
</g>
</g>
<!-- Node27&#45;&gt;Node2 -->
<g id="edge44" class="edge">
<title>Node27&#45;&gt;Node2</title>
<path fill="none" stroke="#9a32cd" stroke-dasharray="5,2" d="M943.91,-56.13C1009.79,-62.01 1116.31,-70 1208.5,-70 1208.5,-70 1208.5,-70 2242.5,-70 2339.99,-70 2451.47,-70 2528.74,-70"/>
<polygon fill="#9a32cd" stroke="#9a32cd" points="943.97,-52.62 933.69,-55.2 943.34,-59.59 943.97,-52.62"/>
<text text-anchor="middle" x="1807" y="-73" font-family="Helvetica,sans-Serif" font-size="10.00"> m_Calculator</text>
</g>
<!-- Node27&#45;&gt;Node26 -->
<g id="edge35" class="edge">
<title>Node27&#45;&gt;Node26</title>
<path fill="none" stroke="#9a32cd" stroke-dasharray="5,2" d="M902.22,-72.65C918.29,-88.82 941.53,-110.24 965,-125 1022.85,-161.38 1057.98,-136.38 1107,-184 1120.98,-197.58 1111.04,-210.39 1125,-224 1133.67,-232.45 1144.68,-238.98 1155.83,-243.98"/>
<polygon fill="#9a32cd" stroke="#9a32cd" points="904.43,-69.9 894.94,-65.18 899.42,-74.79 904.43,-69.9"/>
<text text-anchor="middle" x="1036" y="-187" font-family="Helvetica,sans-Serif" font-size="10.00"> elements</text>
</g>
<!-- Node27&#45;&gt;Node32 -->
<g id="edge47" class="edge">
<title>Node27&#45;&gt;Node32</title>
<path fill="none" stroke="#9a32cd" stroke-dasharray="5,2" d="M943.85,-41.73C1009.69,-33.79 1116.17,-23 1208.5,-23 1208.5,-23 1208.5,-23 2021,-23 2061.59,-23 2106.39,-22.65 2144.88,-22.25"/>
<polygon fill="#9a32cd" stroke="#9a32cd" points="943.14,-38.29 933.64,-42.98 943.99,-45.24 943.14,-38.29"/>
<text text-anchor="middle" x="1667" y="-26" font-family="Helvetica,sans-Serif" font-size="10.00"> m_Calculator</text>
</g>
<!-- Node28 -->
<g id="node28" class="node">
<title>Node28</title>
<g id="a_node28"><a xlink:href="classitk_1_1SmartPointer.html" target="_top" xlink:title="Implements transparent reference counting.">
<polygon fill="white" stroke="black" points="492,-59 492,-89 599,-89 599,-59 492,-59"/>
<text text-anchor="start" x="500" y="-77" font-family="Helvetica,sans-Serif" font-size="10.00">itk::SmartPointer&lt;</text>
<text text-anchor="middle" x="545.5" y="-66" font-family="Helvetica,sans-Serif" font-size="10.00"> TObjectType &gt;</text>
</a>
</g>
</g>
<!-- Node28&#45;&gt;Node27 -->
<g id="edge36" class="edge">
<title>Node28&#45;&gt;Node27</title>
<path fill="none" stroke="orange" stroke-dasharray="5,2" d="M609.21,-65.17C622.03,-63.59 635.43,-62.1 648,-61 708.99,-55.65 779.29,-52.77 826.17,-51.32"/>
<polygon fill="orange" stroke="orange" points="608.58,-61.73 599.09,-66.45 609.45,-68.67 608.58,-61.73"/>
<text text-anchor="middle" x="721.5" y="-64" font-family="Helvetica,sans-Serif" font-size="10.00"> &lt; Self &gt;</text>
</g>
<!-- Node29 -->
<g id="node29" class="node">
<title>Node29</title>
<g id="a_node29"><a xlink:href="classitk_1_1SmartPointer.html" target="_top" xlink:title=" ">
<polygon fill="white" stroke="black" points="965,-86 965,-116 1107,-116 1107,-86 965,-86"/>
<text text-anchor="start" x="973" y="-104" font-family="Helvetica,sans-Serif" font-size="10.00">itk::SmartPointer&lt;</text>
<text text-anchor="middle" x="1036" y="-93" font-family="Helvetica,sans-Serif" font-size="10.00"> itk::MultiThreaderBase &gt;</text>
</a>
</g>
</g>
<!-- Node28&#45;&gt;Node29 -->
<g id="edge40" class="edge">
<title>Node28&#45;&gt;Node29</title>
<path fill="none" stroke="orange" stroke-dasharray="5,2" d="M609.45,-77.48C700.81,-82.53 869.59,-91.86 964.83,-97.12"/>
<polygon fill="orange" stroke="orange" points="609.42,-73.97 599.24,-76.92 609.03,-80.96 609.42,-73.97"/>
<text text-anchor="middle" x="721.5" y="-91" font-family="Helvetica,sans-Serif" font-size="10.00"> &lt; itk::MultiThreaderBase &gt;</text>
</g>
<!-- Node29&#45;&gt;Node5 -->
<g id="edge39" class="edge">
<title>Node29&#45;&gt;Node5</title>
<path fill="none" stroke="#9a32cd" stroke-dasharray="5,2" d="M1117.49,-99.57C1209.8,-102.26 1360.41,-120.5 1454,-204 1471,-219.17 1460.15,-232.54 1472,-252 1488.9,-279.75 1516.38,-306.62 1531.56,-320.42"/>
<polygon fill="#9a32cd" stroke="#9a32cd" points="1117.44,-96.07 1107.36,-99.33 1117.27,-103.07 1117.44,-96.07"/>
<text text-anchor="middle" x="1209.5" y="-126" font-family="Helvetica,sans-Serif" font-size="10.00"> m_MultiThreader</text>
</g>
<!-- Node30 -->
<g id="node30" class="node">
<title>Node30</title>
<g id="a_node30"><a xlink:href="structitk_1_1ImageSourceCommon.html" target="_top" xlink:title="Secondary base class of ImageSource common between templates.">
<polygon fill="white" stroke="black" points="1472,-223.5 1472,-242.5 1615,-242.5 1615,-223.5 1472,-223.5"/>
<text text-anchor="middle" x="1543.5" y="-230.5" font-family="Helvetica,sans-Serif" font-size="10.00">itk::ImageSourceCommon</text>
</a>
</g>
</g>
<!-- Node30&#45;&gt;Node4 -->
<g id="edge42" class="edge">
<title>Node30&#45;&gt;Node4</title>
<path fill="none" stroke="#8b1a1a" d="M1625.67,-233C1659.79,-233 1699.19,-233 1732.44,-233"/>
<polygon fill="#8b1a1a" stroke="#8b1a1a" points="1625.27,-229.5 1615.27,-233 1625.27,-236.5 1625.27,-229.5"/>
</g>
<!-- Node31 -->
<g id="node31" class="node">
<title>Node31</title>
<g id="a_node31"><a xlink:href="classitk_1_1ImageToImageFilterCommon.html" target="_top" xlink:title="Secondary base class of ImageToImageFilter common between templates.">
<polygon fill="white" stroke="black" points="1719,-110.5 1719,-129.5 1895,-129.5 1895,-110.5 1719,-110.5"/>
<text text-anchor="middle" x="1807" y="-117.5" font-family="Helvetica,sans-Serif" font-size="10.00">itk::ImageToImageFilterCommon</text>
</a>
</g>
</g>
<!-- Node31&#45;&gt;Node3 -->
<g id="edge43" class="edge">
<title>Node31&#45;&gt;Node3</title>
<path fill="none" stroke="#8b1a1a" d="M1905.07,-120C1913.99,-120 1922.99,-120 1931.82,-120"/>
<polygon fill="#8b1a1a" stroke="#8b1a1a" points="1905.04,-116.5 1895.04,-120 1905.04,-123.5 1905.04,-116.5"/>
</g>
<!-- Node32&#45;&gt;Node2 -->
<g id="edge45" class="edge">
<title>Node32&#45;&gt;Node2</title>
<path fill="none" stroke="orange" stroke-dasharray="5,2" d="M2348.36,-19.84C2398.07,-20.89 2457.93,-24.47 2511,-34 2530.43,-37.49 2551.16,-43.39 2569.51,-49.41"/>
<polygon fill="orange" stroke="orange" points="2348.3,-16.33 2338.24,-19.65 2348.17,-23.33 2348.3,-16.33"/>
<text text-anchor="start" x="2356" y="-48" font-family="Helvetica,sans-Serif" font-size="10.00"> &lt; TInputImage, TOutputImage,</text>
<text text-anchor="middle" x="2433.5" y="-37" font-family="Helvetica,sans-Serif" font-size="10.00"> TOutputImage &gt;</text>
</g>
</g>
</svg>
