<?xml version="1.0" encoding="UTF-8" standalone="no"?>
<!DOCTYPE svg PUBLIC "-//W3C//DTD SVG 1.1//EN"
 "http://www.w3.org/Graphics/SVG/1.1/DTD/svg11.dtd">
<!-- Generated by graphviz version 2.43.0 (0)
 -->
<!-- Title: itk::ThreadLogger Pages: 1 -->
<svg width="2149pt" height="363pt"
 viewBox="0.00 0.00 2149.00 363.00" xmlns="http://www.w3.org/2000/svg" xmlns:xlink="http://www.w3.org/1999/xlink">
<g id="graph0" class="graph" transform="scale(1 1) rotate(0) translate(4 359)">
<title>itk::ThreadLogger</title>
<polygon fill="white" stroke="transparent" points="-4,4 -4,-359 2145,-359 2145,4 -4,4"/>
<!-- Node1 -->
<g id="node1" class="node">
<title>Node1</title>
<g id="a_node1"><a xlink:title="Providing logging service as a separate thread.">
<polygon fill="#bfbfbf" stroke="black" points="2039,-156.5 2039,-175.5 2141,-175.5 2141,-156.5 2039,-156.5"/>
<text text-anchor="middle" x="2090" y="-163.5" font-family="Helvetica,sans-Serif" font-size="10.00">itk::ThreadLogger</text>
</a>
</g>
</g>
<!-- Node2 -->
<g id="node2" class="node">
<title>Node2</title>
<g id="a_node2"><a xlink:href="classitk_1_1Logger.html" target="_top" xlink:title="Used for logging information during a run.">
<polygon fill="white" stroke="black" points="1760.5,-251.5 1760.5,-270.5 1828.5,-270.5 1828.5,-251.5 1760.5,-251.5"/>
<text text-anchor="middle" x="1794.5" y="-258.5" font-family="Helvetica,sans-Serif" font-size="10.00">itk::Logger</text>
</a>
</g>
</g>
<!-- Node2&#45;&gt;Node1 -->
<g id="edge1" class="edge">
<title>Node2&#45;&gt;Node1</title>
<path fill="none" stroke="midnightblue" d="M1838.8,-262.69C1885.91,-262.84 1962.33,-258.04 2021,-230 2047.62,-217.28 2070.76,-190.3 2081.91,-175.76"/>
<polygon fill="midnightblue" stroke="midnightblue" points="1838.68,-259.19 1828.64,-262.58 1838.6,-266.19 1838.68,-259.19"/>
</g>
<!-- Node3 -->
<g id="node3" class="node">
<title>Node3</title>
<g id="a_node3"><a xlink:href="classitk_1_1LoggerBase.html" target="_top" xlink:title="Used for logging information during a run.">
<polygon fill="white" stroke="black" points="1516,-238.5 1516,-257.5 1608,-257.5 1608,-238.5 1516,-238.5"/>
<text text-anchor="middle" x="1562" y="-245.5" font-family="Helvetica,sans-Serif" font-size="10.00">itk::LoggerBase</text>
</a>
</g>
</g>
<!-- Node3&#45;&gt;Node2 -->
<g id="edge2" class="edge">
<title>Node3&#45;&gt;Node2</title>
<path fill="none" stroke="midnightblue" d="M1618.29,-251.12C1662.56,-253.62 1723.18,-257.03 1760.28,-259.13"/>
<polygon fill="midnightblue" stroke="midnightblue" points="1618.45,-247.62 1608.26,-250.55 1618.05,-254.61 1618.45,-247.62"/>
</g>
<!-- Node4 -->
<g id="node4" class="node">
<title>Node4</title>
<g id="a_node4"><a xlink:href="classitk_1_1Object.html" target="_top" xlink:title="Base class for most ITK classes.">
<polygon fill="white" stroke="black" points="1240.5,-184.5 1240.5,-203.5 1307.5,-203.5 1307.5,-184.5 1240.5,-184.5"/>
<text text-anchor="middle" x="1274" y="-191.5" font-family="Helvetica,sans-Serif" font-size="10.00">itk::Object</text>
</a>
</g>
</g>
<!-- Node4&#45;&gt;Node3 -->
<g id="edge3" class="edge">
<title>Node4&#45;&gt;Node3</title>
<path fill="none" stroke="midnightblue" d="M1317.46,-201.97C1362.33,-210.4 1435.16,-224.1 1498,-236 1503.8,-237.1 1509.9,-238.26 1515.92,-239.4"/>
<polygon fill="midnightblue" stroke="midnightblue" points="1317.98,-198.51 1307.5,-200.1 1316.69,-205.39 1317.98,-198.51"/>
</g>
<!-- Node5 -->
<g id="node5" class="node">
<title>Node5</title>
<g id="a_node5"><a xlink:href="classitk_1_1LightObject.html" target="_top" xlink:title="Light weight base class for most itk classes.">
<polygon fill="white" stroke="black" points="924,-224.5 924,-243.5 1015,-243.5 1015,-224.5 924,-224.5"/>
<text text-anchor="middle" x="969.5" y="-231.5" font-family="Helvetica,sans-Serif" font-size="10.00">itk::LightObject</text>
</a>
</g>
</g>
<!-- Node5&#45;&gt;Node4 -->
<g id="edge4" class="edge">
<title>Node5&#45;&gt;Node4</title>
<path fill="none" stroke="midnightblue" d="M1025.39,-229.18C1069.67,-225 1133.5,-218.32 1189,-210 1206.03,-207.45 1224.87,-203.92 1240.39,-200.83"/>
<polygon fill="midnightblue" stroke="midnightblue" points="1025.04,-225.7 1015.41,-230.11 1025.69,-232.67 1025.04,-225.7"/>
</g>
<!-- Node6 -->
<g id="node6" class="node">
<title>Node6</title>
<g id="a_node6"><a xlink:title=" ">
<polygon fill="white" stroke="black" points="647.5,-224.5 647.5,-243.5 754.5,-243.5 754.5,-224.5 647.5,-224.5"/>
<text text-anchor="middle" x="701" y="-231.5" font-family="Helvetica,sans-Serif" font-size="10.00">std::atomic&lt; int &gt;</text>
</a>
</g>
</g>
<!-- Node6&#45;&gt;Node5 -->
<g id="edge5" class="edge">
<title>Node6&#45;&gt;Node5</title>
<path fill="none" stroke="#9a32cd" stroke-dasharray="5,2" d="M764.8,-234C813.7,-234 880.37,-234 923.92,-234"/>
<polygon fill="#9a32cd" stroke="#9a32cd" points="764.65,-230.5 754.65,-234 764.65,-237.5 764.65,-230.5"/>
<text text-anchor="middle" x="834.5" y="-237" font-family="Helvetica,sans-Serif" font-size="10.00"> m_ReferenceCount</text>
</g>
<!-- Node7 -->
<g id="node7" class="node">
<title>Node7</title>
<g id="a_node7"><a xlink:href="classitk_1_1TimeStamp.html" target="_top" xlink:title="Generate a unique, increasing time value.">
<polygon fill="white" stroke="black" points="524,-186.5 524,-205.5 616,-205.5 616,-186.5 524,-186.5"/>
<text text-anchor="middle" x="570" y="-193.5" font-family="Helvetica,sans-Serif" font-size="10.00">itk::TimeStamp</text>
</a>
</g>
</g>
<!-- Node7&#45;&gt;Node4 -->
<g id="edge6" class="edge">
<title>Node7&#45;&gt;Node4</title>
<path fill="none" stroke="#9a32cd" stroke-dasharray="5,2" d="M626.3,-195.84C765.89,-195.44 1129.26,-194.41 1240.3,-194.09"/>
<polygon fill="#9a32cd" stroke="#9a32cd" points="626.24,-192.34 616.25,-195.87 626.26,-199.34 626.24,-192.34"/>
<text text-anchor="middle" x="834.5" y="-198" font-family="Helvetica,sans-Serif" font-size="10.00"> m_MTime</text>
</g>
<!-- Node8 -->
<g id="node8" class="node">
<title>Node8</title>
<g id="a_node8"><a xlink:title=" ">
<polygon fill="white" stroke="black" points="114.5,-186.5 114.5,-205.5 214.5,-205.5 214.5,-186.5 114.5,-186.5"/>
<text text-anchor="middle" x="164.5" y="-193.5" font-family="Helvetica,sans-Serif" font-size="10.00">std::atomic&lt; T &gt;</text>
</a>
</g>
</g>
<!-- Node8&#45;&gt;Node7 -->
<g id="edge7" class="edge">
<title>Node8&#45;&gt;Node7</title>
<path fill="none" stroke="#9a32cd" stroke-dasharray="5,2" d="M224.66,-196C306.06,-196 450.8,-196 523.98,-196"/>
<polygon fill="#9a32cd" stroke="#9a32cd" points="224.57,-192.5 214.57,-196 224.57,-199.5 224.57,-192.5"/>
<text text-anchor="middle" x="286" y="-199" font-family="Helvetica,sans-Serif" font-size="10.00"> m_GlobalTimeStamp</text>
</g>
<!-- Node9 -->
<g id="node9" class="node">
<title>Node9</title>
<g id="a_node9"><a xlink:title=" ">
<polygon fill="white" stroke="black" points="0,-171.5 0,-190.5 29,-190.5 29,-171.5 0,-171.5"/>
<text text-anchor="middle" x="14.5" y="-178.5" font-family="Helvetica,sans-Serif" font-size="10.00">T</text>
</a>
</g>
</g>
<!-- Node9&#45;&gt;Node8 -->
<g id="edge8" class="edge">
<title>Node9&#45;&gt;Node8</title>
<path fill="none" stroke="#9a32cd" stroke-dasharray="5,2" d="M39.33,-183.42C59.54,-185.46 89.19,-188.47 114.45,-191.03"/>
<polygon fill="#9a32cd" stroke="#9a32cd" points="39.46,-179.91 29.16,-182.38 38.75,-186.87 39.46,-179.91"/>
<text text-anchor="middle" x="71.5" y="-191" font-family="Helvetica,sans-Serif" font-size="10.00"> ptr</text>
</g>
<!-- Node14 -->
<g id="node14" class="node">
<title>Node14</title>
<g id="a_node14"><a xlink:title=" ">
<polygon fill="white" stroke="black" points="114,-142.5 114,-161.5 215,-161.5 215,-142.5 114,-142.5"/>
<text text-anchor="middle" x="164.5" y="-149.5" font-family="Helvetica,sans-Serif" font-size="10.00">std::map&lt; K, T &gt;</text>
</a>
</g>
</g>
<!-- Node9&#45;&gt;Node14 -->
<g id="edge15" class="edge">
<title>Node9&#45;&gt;Node14</title>
<path fill="none" stroke="#9a32cd" stroke-dasharray="5,2" d="M38.7,-171.51C41.47,-170.57 44.28,-169.71 47,-169 68.66,-163.37 93.11,-159.44 113.99,-156.8"/>
<polygon fill="#9a32cd" stroke="#9a32cd" points="37.25,-168.32 29.09,-175.08 39.68,-174.88 37.25,-168.32"/>
<text text-anchor="middle" x="71.5" y="-172" font-family="Helvetica,sans-Serif" font-size="10.00"> elements</text>
</g>
<!-- Node10 -->
<g id="node10" class="node">
<title>Node10</title>
<g id="a_node10"><a xlink:title=" ">
<polygon fill="white" stroke="black" points="901,-88 901,-118 1038,-118 1038,-88 901,-88"/>
<text text-anchor="start" x="909" y="-106" font-family="Helvetica,sans-Serif" font-size="10.00">std::unique_ptr&lt; Subject</text>
<text text-anchor="middle" x="969.5" y="-95" font-family="Helvetica,sans-Serif" font-size="10.00">Implementation &gt;</text>
</a>
</g>
</g>
<!-- Node10&#45;&gt;Node4 -->
<g id="edge9" class="edge">
<title>Node10&#45;&gt;Node4</title>
<path fill="none" stroke="#9a32cd" stroke-dasharray="5,2" d="M1048.33,-109.09C1090.95,-114.24 1144.09,-123.71 1189,-141 1217,-151.78 1245.74,-172.39 1261.28,-184.49"/>
<polygon fill="#9a32cd" stroke="#9a32cd" points="1048.62,-105.6 1038.29,-107.93 1047.82,-112.55 1048.62,-105.6"/>
<text text-anchor="middle" x="1122.5" y="-144" font-family="Helvetica,sans-Serif" font-size="10.00"> m_SubjectImplementation</text>
</g>
<!-- Node11 -->
<g id="node11" class="node">
<title>Node11</title>
<g id="a_node11"><a xlink:title=" ">
<polygon fill="white" stroke="black" points="903.5,-137 903.5,-167 1035.5,-167 1035.5,-137 903.5,-137"/>
<text text-anchor="start" x="911.5" y="-155" font-family="Helvetica,sans-Serif" font-size="10.00">std::unique_ptr&lt; itk</text>
<text text-anchor="middle" x="969.5" y="-144" font-family="Helvetica,sans-Serif" font-size="10.00">::MetaDataDictionary &gt;</text>
</a>
</g>
</g>
<!-- Node11&#45;&gt;Node4 -->
<g id="edge10" class="edge">
<title>Node11&#45;&gt;Node4</title>
<path fill="none" stroke="#9a32cd" stroke-dasharray="5,2" d="M1046.14,-155.21C1088.41,-157.84 1141.91,-162.58 1189,-171 1207.31,-174.27 1227.41,-179.71 1243.36,-184.48"/>
<polygon fill="#9a32cd" stroke="#9a32cd" points="1046.11,-151.7 1035.92,-154.6 1045.69,-158.69 1046.11,-151.7"/>
<text text-anchor="middle" x="1122.5" y="-174" font-family="Helvetica,sans-Serif" font-size="10.00"> m_MetaDataDictionary</text>
</g>
<!-- Node12 -->
<g id="node12" class="node">
<title>Node12</title>
<g id="a_node12"><a xlink:href="classitk_1_1MetaDataDictionary.html" target="_top" xlink:title="Provides a mechanism for storing a collection of arbitrary data types.">
<polygon fill="white" stroke="black" points="634,-142.5 634,-161.5 768,-161.5 768,-142.5 634,-142.5"/>
<text text-anchor="middle" x="701" y="-149.5" font-family="Helvetica,sans-Serif" font-size="10.00">itk::MetaDataDictionary</text>
</a>
</g>
</g>
<!-- Node12&#45;&gt;Node11 -->
<g id="edge11" class="edge">
<title>Node12&#45;&gt;Node11</title>
<path fill="none" stroke="#9a32cd" stroke-dasharray="5,2" d="M778.32,-152C817.74,-152 865.36,-152 903.08,-152"/>
<polygon fill="#9a32cd" stroke="#9a32cd" points="778.22,-148.5 768.22,-152 778.22,-155.5 778.22,-148.5"/>
<text text-anchor="middle" x="834.5" y="-155" font-family="Helvetica,sans-Serif" font-size="10.00"> ptr</text>
</g>
<!-- Node13 -->
<g id="node13" class="node">
<title>Node13</title>
<g id="a_node13"><a xlink:title=" ">
<polygon fill="white" stroke="black" points="357,-137 357,-167 506,-167 506,-137 357,-137"/>
<text text-anchor="start" x="365" y="-155" font-family="Helvetica,sans-Serif" font-size="10.00">std::shared_ptr&lt; MetaData</text>
<text text-anchor="middle" x="431.5" y="-144" font-family="Helvetica,sans-Serif" font-size="10.00">DictionaryMapType &gt;</text>
</a>
</g>
</g>
<!-- Node13&#45;&gt;Node12 -->
<g id="edge12" class="edge">
<title>Node13&#45;&gt;Node12</title>
<path fill="none" stroke="#9a32cd" stroke-dasharray="5,2" d="M516.78,-152C554.53,-152 598.4,-152 633.74,-152"/>
<polygon fill="#9a32cd" stroke="#9a32cd" points="516.3,-148.5 506.3,-152 516.3,-155.5 516.3,-148.5"/>
<text text-anchor="middle" x="570" y="-155" font-family="Helvetica,sans-Serif" font-size="10.00"> m_Dictionary</text>
</g>
<!-- Node14&#45;&gt;Node13 -->
<g id="edge13" class="edge">
<title>Node14&#45;&gt;Node13</title>
<path fill="none" stroke="#9a32cd" stroke-dasharray="5,2" d="M225.18,-152C264.19,-152 315.41,-152 356.93,-152"/>
<polygon fill="#9a32cd" stroke="#9a32cd" points="225.03,-148.5 215.03,-152 225.03,-155.5 225.03,-148.5"/>
<text text-anchor="middle" x="286" y="-155" font-family="Helvetica,sans-Serif" font-size="10.00"> ptr</text>
</g>
<!-- Node15 -->
<g id="node15" class="node">
<title>Node15</title>
<g id="a_node15"><a xlink:title=" ">
<polygon fill="white" stroke="black" points="0,-118.5 0,-137.5 29,-137.5 29,-118.5 0,-118.5"/>
<text text-anchor="middle" x="14.5" y="-125.5" font-family="Helvetica,sans-Serif" font-size="10.00">K</text>
</a>
</g>
</g>
<!-- Node15&#45;&gt;Node14 -->
<g id="edge14" class="edge">
<title>Node15&#45;&gt;Node14</title>
<path fill="none" stroke="#9a32cd" stroke-dasharray="5,2" d="M39.17,-126.35C55.3,-125.69 77.09,-125.75 96,-129 111.5,-131.67 128.23,-137.35 141.16,-142.4"/>
<polygon fill="#9a32cd" stroke="#9a32cd" points="38.81,-122.86 29.01,-126.88 39.18,-129.85 38.81,-122.86"/>
<text text-anchor="middle" x="71.5" y="-132" font-family="Helvetica,sans-Serif" font-size="10.00"> keys</text>
</g>
<!-- Node16 -->
<g id="node16" class="node">
<title>Node16</title>
<g id="a_node16"><a xlink:title=" ">
<polygon fill="white" stroke="black" points="937,-280.5 937,-299.5 1002,-299.5 1002,-280.5 937,-280.5"/>
<text text-anchor="middle" x="969.5" y="-287.5" font-family="Helvetica,sans-Serif" font-size="10.00">std::string</text>
</a>
</g>
</g>
<!-- Node16&#45;&gt;Node3 -->
<g id="edge19" class="edge">
<title>Node16&#45;&gt;Node3</title>
<path fill="none" stroke="#9a32cd" stroke-dasharray="5,2" d="M1012.19,-290.18C1119.87,-290.38 1405.3,-289.12 1498,-271 1512.4,-268.19 1527.89,-262.57 1539.9,-257.59"/>
<polygon fill="#9a32cd" stroke="#9a32cd" points="1012.05,-286.68 1002.04,-290.16 1012.03,-293.68 1012.05,-286.68"/>
<text text-anchor="middle" x="1274" y="-302" font-family="Helvetica,sans-Serif" font-size="10.00"> m_HumanReadableFormat</text>
<text text-anchor="middle" x="1274" y="-291" font-family="Helvetica,sans-Serif" font-size="10.00">m_Name</text>
</g>
<!-- Node16&#45;&gt;Node4 -->
<g id="edge16" class="edge">
<title>Node16&#45;&gt;Node4</title>
<path fill="none" stroke="#9a32cd" stroke-dasharray="5,2" d="M1011.92,-277.58C1025.89,-273.47 1041.6,-268.95 1056,-265 1114.84,-248.88 1135.56,-260.44 1189,-231 1198.64,-225.69 1197.48,-219.52 1207,-214 1217.15,-208.11 1229.2,-203.8 1240.21,-200.72"/>
<polygon fill="#9a32cd" stroke="#9a32cd" points="1010.7,-274.29 1002.1,-280.48 1012.68,-281 1010.7,-274.29"/>
<text text-anchor="middle" x="1122.5" y="-268" font-family="Helvetica,sans-Serif" font-size="10.00"> m_ObjectName</text>
</g>
<!-- Node22 -->
<g id="node22" class="node">
<title>Node22</title>
<g id="a_node22"><a xlink:title=" ">
<polygon fill="white" stroke="black" points="1359,-317.5 1359,-336.5 1498,-336.5 1498,-317.5 1359,-317.5"/>
<text text-anchor="middle" x="1428.5" y="-324.5" font-family="Helvetica,sans-Serif" font-size="10.00">std::queue&lt; std::string &gt;</text>
</a>
</g>
</g>
<!-- Node16&#45;&gt;Node22 -->
<g id="edge24" class="edge">
<title>Node16&#45;&gt;Node22</title>
<path fill="none" stroke="#9a32cd" stroke-dasharray="5,2" d="M1012.31,-297.56C1026.18,-299.87 1041.72,-302.27 1056,-304 1161.2,-316.77 1284.08,-322.62 1358.81,-325.17"/>
<polygon fill="#9a32cd" stroke="#9a32cd" points="1012.53,-294.04 1002.08,-295.81 1011.35,-300.95 1012.53,-294.04"/>
<text text-anchor="middle" x="1122.5" y="-319" font-family="Helvetica,sans-Serif" font-size="10.00"> elements</text>
</g>
<!-- Node17 -->
<g id="node17" class="node">
<title>Node17</title>
<g id="a_node17"><a xlink:title=" ">
<polygon fill="white" stroke="black" points="649,-275 649,-305 753,-305 753,-275 649,-275"/>
<text text-anchor="start" x="657" y="-293" font-family="Helvetica,sans-Serif" font-size="10.00">std::basic_string&lt;</text>
<text text-anchor="middle" x="701" y="-282" font-family="Helvetica,sans-Serif" font-size="10.00"> Char &gt;</text>
</a>
</g>
</g>
<!-- Node17&#45;&gt;Node16 -->
<g id="edge17" class="edge">
<title>Node17&#45;&gt;Node16</title>
<path fill="none" stroke="midnightblue" d="M763.24,-290C817.37,-290 894.16,-290 936.82,-290"/>
<polygon fill="midnightblue" stroke="midnightblue" points="763.07,-286.5 753.07,-290 763.07,-293.5 763.07,-286.5"/>
</g>
<!-- Node18 -->
<g id="node18" class="node">
<title>Node18</title>
<g id="a_node18"><a xlink:href="classitk_1_1SmartPointer.html" target="_top" xlink:title=" ">
<polygon fill="white" stroke="black" points="1220.5,-223 1220.5,-253 1327.5,-253 1327.5,-223 1220.5,-223"/>
<text text-anchor="start" x="1228.5" y="-241" font-family="Helvetica,sans-Serif" font-size="10.00">itk::SmartPointer&lt;</text>
<text text-anchor="middle" x="1274" y="-230" font-family="Helvetica,sans-Serif" font-size="10.00"> Self &gt;</text>
</a>
</g>
</g>
<!-- Node18&#45;&gt;Node3 -->
<g id="edge18" class="edge">
<title>Node18&#45;&gt;Node3</title>
<path fill="none" stroke="#9a32cd" stroke-dasharray="5,2" d="M1337.89,-240.2C1391.61,-242.08 1467.61,-244.73 1515.58,-246.41"/>
<polygon fill="#9a32cd" stroke="#9a32cd" points="1337.91,-236.7 1327.79,-239.85 1337.66,-243.69 1337.91,-236.7"/>
<text text-anchor="middle" x="1428.5" y="-259" font-family="Helvetica,sans-Serif" font-size="10.00"> m_Clock</text>
<text text-anchor="middle" x="1428.5" y="-248" font-family="Helvetica,sans-Serif" font-size="10.00">m_Output</text>
</g>
<!-- Node19 -->
<g id="node19" class="node">
<title>Node19</title>
<g id="a_node19"><a xlink:title=" ">
<polygon fill="white" stroke="black" points="1760,-213.5 1760,-232.5 1829,-232.5 1829,-213.5 1760,-213.5"/>
<text text-anchor="middle" x="1794.5" y="-220.5" font-family="Helvetica,sans-Serif" font-size="10.00">std::thread</text>
</a>
</g>
</g>
<!-- Node19&#45;&gt;Node1 -->
<g id="edge20" class="edge">
<title>Node19&#45;&gt;Node1</title>
<path fill="none" stroke="#9a32cd" stroke-dasharray="5,2" d="M1839.44,-220.36C1885.33,-216.86 1959.13,-209.13 2021,-193 2037.47,-188.7 2055.33,-181.51 2068.61,-175.62"/>
<polygon fill="#9a32cd" stroke="#9a32cd" points="1838.96,-216.89 1829.24,-221.1 1839.46,-223.87 1838.96,-216.89"/>
<text text-anchor="middle" x="1957" y="-218" font-family="Helvetica,sans-Serif" font-size="10.00"> m_Thread</text>
</g>
<!-- Node20 -->
<g id="node20" class="node">
<title>Node20</title>
<g id="a_node20"><a xlink:title=" ">
<polygon fill="white" stroke="black" points="1737,-175.5 1737,-194.5 1852,-194.5 1852,-175.5 1737,-175.5"/>
<text text-anchor="middle" x="1794.5" y="-182.5" font-family="Helvetica,sans-Serif" font-size="10.00">std::atomic&lt; bool &gt;</text>
</a>
</g>
</g>
<!-- Node20&#45;&gt;Node1 -->
<g id="edge21" class="edge">
<title>Node20&#45;&gt;Node1</title>
<path fill="none" stroke="#9a32cd" stroke-dasharray="5,2" d="M1862.2,-180.68C1915.91,-177.2 1990.23,-172.39 2038.94,-169.24"/>
<polygon fill="#9a32cd" stroke="#9a32cd" points="1861.84,-177.2 1852.09,-181.34 1862.29,-184.18 1861.84,-177.2"/>
<text text-anchor="middle" x="1957" y="-181" font-family="Helvetica,sans-Serif" font-size="10.00"> m_TerminationRequested</text>
</g>
<!-- Node21 -->
<g id="node21" class="node">
<title>Node21</title>
<g id="a_node21"><a xlink:title=" ">
<polygon fill="white" stroke="black" points="1714,-137.5 1714,-156.5 1875,-156.5 1875,-137.5 1714,-137.5"/>
<text text-anchor="middle" x="1794.5" y="-144.5" font-family="Helvetica,sans-Serif" font-size="10.00">std::queue&lt; OperationType &gt;</text>
</a>
</g>
</g>
<!-- Node21&#45;&gt;Node1 -->
<g id="edge22" class="edge">
<title>Node21&#45;&gt;Node1</title>
<path fill="none" stroke="#9a32cd" stroke-dasharray="5,2" d="M1885.3,-147.62C1926.7,-148.56 1976.43,-150.62 2021,-155 2026.83,-155.57 2032.92,-156.33 2038.96,-157.18"/>
<polygon fill="#9a32cd" stroke="#9a32cd" points="1885.31,-144.12 1875.24,-147.4 1885.16,-151.11 1885.31,-144.12"/>
<text text-anchor="middle" x="1957" y="-158" font-family="Helvetica,sans-Serif" font-size="10.00"> m_OperationQ</text>
</g>
<!-- Node22&#45;&gt;Node1 -->
<g id="edge23" class="edge">
<title>Node22&#45;&gt;Node1</title>
<path fill="none" stroke="#9a32cd" stroke-dasharray="5,2" d="M1508.4,-337.49C1628.33,-349.38 1859.58,-356.01 2021,-259 2054.6,-238.81 2076.61,-195.02 2085.08,-175.6"/>
<polygon fill="#9a32cd" stroke="#9a32cd" points="1508.51,-333.99 1498.2,-336.44 1507.79,-340.95 1508.51,-333.99"/>
<text text-anchor="middle" x="1661" y="-347" font-family="Helvetica,sans-Serif" font-size="10.00"> m_MessageQ</text>
</g>
<!-- Node23 -->
<g id="node23" class="node">
<title>Node23</title>
<g id="a_node23"><a xlink:title=" ">
<polygon fill="white" stroke="black" points="1724.5,-88 1724.5,-118 1864.5,-118 1864.5,-88 1724.5,-88"/>
<text text-anchor="start" x="1732.5" y="-106" font-family="Helvetica,sans-Serif" font-size="10.00">std::queue&lt; PriorityLevel</text>
<text text-anchor="middle" x="1794.5" y="-95" font-family="Helvetica,sans-Serif" font-size="10.00">Enum &gt;</text>
</a>
</g>
</g>
<!-- Node23&#45;&gt;Node1 -->
<g id="edge25" class="edge">
<title>Node23&#45;&gt;Node1</title>
<path fill="none" stroke="#9a32cd" stroke-dasharray="5,2" d="M1874.64,-106.67C1918.52,-110.31 1973.62,-117.56 2021,-132 2040.07,-137.81 2060.3,-148.59 2073.69,-156.46"/>
<polygon fill="#9a32cd" stroke="#9a32cd" points="1874.84,-103.18 1864.6,-105.88 1874.29,-110.15 1874.84,-103.18"/>
<text text-anchor="middle" x="1957" y="-135" font-family="Helvetica,sans-Serif" font-size="10.00"> m_LevelQ</text>
</g>
<!-- Node24 -->
<g id="node24" class="node">
<title>Node24</title>
<g id="a_node24"><a xlink:title=" ">
<polygon fill="white" stroke="black" points="1727.5,-39 1727.5,-69 1861.5,-69 1861.5,-39 1727.5,-39"/>
<text text-anchor="start" x="1735.5" y="-57" font-family="Helvetica,sans-Serif" font-size="10.00">std::queue&lt; OutputType</text>
<text text-anchor="middle" x="1794.5" y="-46" font-family="Helvetica,sans-Serif" font-size="10.00">::Pointer &gt;</text>
</a>
</g>
</g>
<!-- Node24&#45;&gt;Node1 -->
<g id="edge26" class="edge">
<title>Node24&#45;&gt;Node1</title>
<path fill="none" stroke="#9a32cd" stroke-dasharray="5,2" d="M1871.7,-55.11C1917.38,-58.62 1975.28,-68.26 2021,-93 2049.49,-108.42 2072.64,-140.26 2083.05,-156.31"/>
<polygon fill="#9a32cd" stroke="#9a32cd" points="1871.77,-51.6 1861.56,-54.41 1871.29,-58.59 1871.77,-51.6"/>
<text text-anchor="middle" x="1957" y="-96" font-family="Helvetica,sans-Serif" font-size="10.00"> m_OutputQ</text>
</g>
<!-- Node25 -->
<g id="node25" class="node">
<title>Node25</title>
<g id="a_node25"><a xlink:title=" ">
<polygon fill="white" stroke="black" points="1760,-0.5 1760,-19.5 1829,-19.5 1829,-0.5 1760,-0.5"/>
<text text-anchor="middle" x="1794.5" y="-7.5" font-family="Helvetica,sans-Serif" font-size="10.00">std::mutex</text>
</a>
</g>
</g>
<!-- Node25&#45;&gt;Node1 -->
<g id="edge27" class="edge">
<title>Node25&#45;&gt;Node1</title>
<path fill="none" stroke="#9a32cd" stroke-dasharray="5,2" d="M1839.24,-5.26C1887.94,-2.28 1966.92,-4.6 2021,-42 2062.19,-70.49 2080.92,-132.32 2086.82,-156.26"/>
<polygon fill="#9a32cd" stroke="#9a32cd" points="1838.75,-1.78 1829.03,-5.98 1839.25,-8.76 1838.75,-1.78"/>
<text text-anchor="middle" x="1957" y="-45" font-family="Helvetica,sans-Serif" font-size="10.00"> m_Mutex</text>
</g>
</g>
</svg>
