<?xml version="1.0" encoding="UTF-8" standalone="no"?>
<!DOCTYPE svg PUBLIC "-//W3C//DTD SVG 1.1//EN"
 "http://www.w3.org/Graphics/SVG/1.1/DTD/svg11.dtd">
<!-- Generated by graphviz version 2.43.0 (0)
 -->
<!-- Title: itk::FileOutputWindow Pages: 1 -->
<svg width="1549pt" height="216pt"
 viewBox="0.00 0.00 1549.00 215.50" xmlns="http://www.w3.org/2000/svg" xmlns:xlink="http://www.w3.org/1999/xlink">
<g id="graph0" class="graph" transform="scale(1 1) rotate(0) translate(4 211.5)">
<title>itk::FileOutputWindow</title>
<polygon fill="white" stroke="transparent" points="-4,4 -4,-211.5 1545,-211.5 1545,4 -4,4"/>
<!-- Node1 -->
<g id="node1" class="node">
<title>Node1</title>
<g id="a_node1"><a xlink:title="Messages sent from the system are sent to a file.">
<polygon fill="#bfbfbf" stroke="black" points="1416,-50 1416,-69 1541,-69 1541,-50 1416,-50"/>
<text text-anchor="middle" x="1478.5" y="-57" font-family="Helvetica,sans-Serif" font-size="10.00">itk::FileOutputWindow</text>
</a>
</g>
</g>
<!-- Node2 -->
<g id="node2" class="node">
<title>Node2</title>
<g id="a_node2"><a xlink:href="classitk_1_1OutputWindow.html" target="_top" xlink:title="Messages sent from the system are collected by this object.">
<polygon fill="white" stroke="black" points="1219,-102 1219,-121 1326,-121 1326,-102 1219,-102"/>
<text text-anchor="middle" x="1272.5" y="-109" font-family="Helvetica,sans-Serif" font-size="10.00">itk::OutputWindow</text>
</a>
</g>
</g>
<!-- Node2&#45;&gt;Node1 -->
<g id="edge1" class="edge">
<title>Node2&#45;&gt;Node1</title>
<path fill="none" stroke="midnightblue" d="M1320.77,-99.45C1357.03,-90.21 1406.4,-77.62 1439.98,-69.07"/>
<polygon fill="midnightblue" stroke="midnightblue" points="1319.74,-96.1 1310.92,-101.96 1321.47,-102.88 1319.74,-96.1"/>
</g>
<!-- Node3 -->
<g id="node3" class="node">
<title>Node3</title>
<g id="a_node3"><a xlink:href="classitk_1_1Object.html" target="_top" xlink:title="Base class for most ITK classes.">
<polygon fill="white" stroke="black" points="1028,-117 1028,-136 1095,-136 1095,-117 1028,-117"/>
<text text-anchor="middle" x="1061.5" y="-124" font-family="Helvetica,sans-Serif" font-size="10.00">itk::Object</text>
</a>
</g>
</g>
<!-- Node3&#45;&gt;Node2 -->
<g id="edge2" class="edge">
<title>Node3&#45;&gt;Node2</title>
<path fill="none" stroke="midnightblue" d="M1105.35,-123.42C1138.19,-121.07 1183.68,-117.8 1218.76,-115.29"/>
<polygon fill="midnightblue" stroke="midnightblue" points="1104.88,-119.95 1095.16,-124.16 1105.38,-126.93 1104.88,-119.95"/>
</g>
<!-- Node4 -->
<g id="node4" class="node">
<title>Node4</title>
<g id="a_node4"><a xlink:href="classitk_1_1LightObject.html" target="_top" xlink:title="Light weight base class for most itk classes.">
<polygon fill="white" stroke="black" points="739.5,-143 739.5,-162 830.5,-162 830.5,-143 739.5,-143"/>
<text text-anchor="middle" x="785" y="-150" font-family="Helvetica,sans-Serif" font-size="10.00">itk::LightObject</text>
</a>
</g>
</g>
<!-- Node4&#45;&gt;Node3 -->
<g id="edge3" class="edge">
<title>Node4&#45;&gt;Node3</title>
<path fill="none" stroke="midnightblue" d="M840.98,-149.5C881.44,-147.02 937.73,-143.02 987,-137.5 1000.34,-136.01 1014.97,-133.91 1027.64,-131.95"/>
<polygon fill="midnightblue" stroke="midnightblue" points="840.57,-146.02 830.79,-150.11 840.99,-153 840.57,-146.02"/>
</g>
<!-- Node5 -->
<g id="node5" class="node">
<title>Node5</title>
<g id="a_node5"><a xlink:title=" ">
<polygon fill="white" stroke="#bfbfbf" points="457,-150 457,-169 564,-169 564,-150 457,-150"/>
<text text-anchor="middle" x="510.5" y="-157" font-family="Helvetica,sans-Serif" font-size="10.00">std::atomic&lt; int &gt;</text>
</a>
</g>
</g>
<!-- Node5&#45;&gt;Node4 -->
<g id="edge4" class="edge">
<title>Node5&#45;&gt;Node4</title>
<path fill="none" stroke="#9a32cd" stroke-dasharray="5,2" d="M574.18,-157.89C624.64,-156.59 694.33,-154.8 739.29,-153.65"/>
<polygon fill="#9a32cd" stroke="#9a32cd" points="573.95,-154.39 564.04,-158.15 574.13,-161.39 573.95,-154.39"/>
<text text-anchor="middle" x="651.5" y="-159.5" font-family="Helvetica,sans-Serif" font-size="10.00"> m_ReferenceCount</text>
</g>
<!-- Node6 -->
<g id="node6" class="node">
<title>Node6</title>
<g id="a_node6"><a xlink:title="STL class.">
<polygon fill="white" stroke="#bfbfbf" points="123,-155 123,-174 223,-174 223,-155 123,-155"/>
<text text-anchor="middle" x="173" y="-162" font-family="Helvetica,sans-Serif" font-size="10.00">std::atomic&lt; T &gt;</text>
</a>
</g>
</g>
<!-- Node6&#45;&gt;Node5 -->
<g id="edge5" class="edge">
<title>Node6&#45;&gt;Node5</title>
<path fill="none" stroke="orange" stroke-dasharray="5,2" d="M233.38,-163.62C296.77,-162.67 396.25,-161.19 456.9,-160.28"/>
<polygon fill="orange" stroke="orange" points="233.09,-160.12 223.14,-163.77 233.19,-167.12 233.09,-160.12"/>
<text text-anchor="middle" x="334" y="-165.5" font-family="Helvetica,sans-Serif" font-size="10.00"> &lt; int &gt;</text>
</g>
<!-- Node15 -->
<g id="node15" class="node">
<title>Node15</title>
<g id="a_node15"><a xlink:href="classitk_1_1TimeStamp.html" target="_top" xlink:title="Generate a unique, increasing time value.">
<polygon fill="white" stroke="black" points="605.5,-188 605.5,-207 697.5,-207 697.5,-188 605.5,-188"/>
<text text-anchor="middle" x="651.5" y="-195" font-family="Helvetica,sans-Serif" font-size="10.00">itk::TimeStamp</text>
</a>
</g>
</g>
<!-- Node6&#45;&gt;Node15 -->
<g id="edge17" class="edge">
<title>Node6&#45;&gt;Node15</title>
<path fill="none" stroke="#9a32cd" stroke-dasharray="5,2" d="M233.42,-173.62C239.02,-174.32 244.61,-174.96 250,-175.5 378.54,-188.31 531.08,-194.11 605.35,-196.33"/>
<polygon fill="#9a32cd" stroke="#9a32cd" points="233.76,-170.13 223.39,-172.3 232.85,-177.07 233.76,-170.13"/>
<text text-anchor="middle" x="334" y="-190.5" font-family="Helvetica,sans-Serif" font-size="10.00"> m_GlobalTimeStamp</text>
</g>
<!-- Node7 -->
<g id="node7" class="node">
<title>Node7</title>
<g id="a_node7"><a xlink:title=" ">
<polygon fill="white" stroke="#bfbfbf" points="0,-118 0,-137 29,-137 29,-118 0,-118"/>
<text text-anchor="middle" x="14.5" y="-125" font-family="Helvetica,sans-Serif" font-size="10.00">T</text>
</a>
</g>
</g>
<!-- Node7&#45;&gt;Node6 -->
<g id="edge6" class="edge">
<title>Node7&#45;&gt;Node6</title>
<path fill="none" stroke="#9a32cd" stroke-dasharray="5,2" d="M38.37,-138.41C41.23,-139.56 44.16,-140.62 47,-141.5 71.56,-149.1 99.65,-154.55 122.98,-158.22"/>
<polygon fill="#9a32cd" stroke="#9a32cd" points="39.6,-135.13 29.03,-134.36 36.81,-141.55 39.6,-135.13"/>
<text text-anchor="middle" x="71.5" y="-155.5" font-family="Helvetica,sans-Serif" font-size="10.00"> ptr</text>
</g>
<!-- Node12 -->
<g id="node12" class="node">
<title>Node12</title>
<g id="a_node12"><a xlink:title="STL class.">
<polygon fill="white" stroke="#bfbfbf" points="122.5,-79 122.5,-98 223.5,-98 223.5,-79 122.5,-79"/>
<text text-anchor="middle" x="173" y="-86" font-family="Helvetica,sans-Serif" font-size="10.00">std::map&lt; K, T &gt;</text>
</a>
</g>
</g>
<!-- Node7&#45;&gt;Node12 -->
<g id="edge13" class="edge">
<title>Node7&#45;&gt;Node12</title>
<path fill="none" stroke="#9a32cd" stroke-dasharray="5,2" d="M38.44,-114.9C41.27,-113.63 44.17,-112.46 47,-111.5 71.25,-103.3 99.19,-97.81 122.49,-94.26"/>
<polygon fill="#9a32cd" stroke="#9a32cd" points="36.66,-111.88 29.24,-119.44 39.75,-118.16 36.66,-111.88"/>
<text text-anchor="middle" x="71.5" y="-114.5" font-family="Helvetica,sans-Serif" font-size="10.00"> elements</text>
</g>
<!-- Node14 -->
<g id="node14" class="node">
<title>Node14</title>
<g id="a_node14"><a xlink:title="STL class.">
<polygon fill="white" stroke="#bfbfbf" points="114,-117 114,-136 232,-136 232,-117 114,-117"/>
<text text-anchor="middle" x="173" y="-124" font-family="Helvetica,sans-Serif" font-size="10.00">std::shared_ptr&lt; T &gt;</text>
</a>
</g>
</g>
<!-- Node7&#45;&gt;Node14 -->
<g id="edge15" class="edge">
<title>Node7&#45;&gt;Node14</title>
<path fill="none" stroke="#9a32cd" stroke-dasharray="5,2" d="M39.32,-127.35C59.06,-127.22 87.96,-127.04 113.75,-126.87"/>
<polygon fill="#9a32cd" stroke="#9a32cd" points="39.09,-123.85 29.11,-127.41 39.14,-130.85 39.09,-123.85"/>
<text text-anchor="middle" x="71.5" y="-129.5" font-family="Helvetica,sans-Serif" font-size="10.00"> ptr</text>
</g>
<!-- Node8 -->
<g id="node8" class="node">
<title>Node8</title>
<g id="a_node8"><a xlink:title="STL class.">
<polygon fill="white" stroke="#bfbfbf" points="752.5,-53 752.5,-72 817.5,-72 817.5,-53 752.5,-53"/>
<text text-anchor="middle" x="785" y="-60" font-family="Helvetica,sans-Serif" font-size="10.00">std::string</text>
</a>
</g>
</g>
<!-- Node8&#45;&gt;Node1 -->
<g id="edge18" class="edge">
<title>Node8&#45;&gt;Node1</title>
<path fill="none" stroke="#9a32cd" stroke-dasharray="5,2" d="M827.85,-62.32C945.12,-61.81 1277.35,-60.37 1415.77,-59.77"/>
<polygon fill="#9a32cd" stroke="#9a32cd" points="827.49,-58.82 817.51,-62.36 827.52,-65.82 827.49,-58.82"/>
<text text-anchor="middle" x="1168.5" y="-63.5" font-family="Helvetica,sans-Serif" font-size="10.00"> m_FileName</text>
</g>
<!-- Node8&#45;&gt;Node3 -->
<g id="edge7" class="edge">
<title>Node8&#45;&gt;Node3</title>
<path fill="none" stroke="#9a32cd" stroke-dasharray="5,2" d="M827.47,-69.26C868.34,-76.28 932.42,-88.21 987,-102.5 1002.71,-106.61 1019.99,-112.2 1033.85,-116.95"/>
<polygon fill="#9a32cd" stroke="#9a32cd" points="828.04,-65.81 817.6,-67.59 826.87,-72.71 828.04,-65.81"/>
<text text-anchor="middle" x="928.5" y="-105.5" font-family="Helvetica,sans-Serif" font-size="10.00"> m_ObjectName</text>
</g>
<!-- Node9 -->
<g id="node9" class="node">
<title>Node9</title>
<g id="a_node9"><a xlink:title="STL class.">
<polygon fill="white" stroke="#bfbfbf" points="458.5,-47.5 458.5,-77.5 562.5,-77.5 562.5,-47.5 458.5,-47.5"/>
<text text-anchor="start" x="466.5" y="-65.5" font-family="Helvetica,sans-Serif" font-size="10.00">std::basic_string&lt;</text>
<text text-anchor="middle" x="510.5" y="-54.5" font-family="Helvetica,sans-Serif" font-size="10.00"> char &gt;</text>
</a>
</g>
</g>
<!-- Node9&#45;&gt;Node8 -->
<g id="edge8" class="edge">
<title>Node9&#45;&gt;Node8</title>
<path fill="none" stroke="midnightblue" d="M572.85,-62.5C628.49,-62.5 708.3,-62.5 752.14,-62.5"/>
<polygon fill="midnightblue" stroke="midnightblue" points="572.76,-59 562.76,-62.5 572.76,-66 572.76,-59"/>
</g>
<!-- Node10 -->
<g id="node10" class="node">
<title>Node10</title>
<g id="a_node10"><a xlink:href="classitk_1_1MetaDataDictionary.html" target="_top" xlink:title="Provides a mechanism for storing a collection of arbitrary data types.">
<polygon fill="white" stroke="black" points="718,-105 718,-124 852,-124 852,-105 718,-105"/>
<text text-anchor="middle" x="785" y="-112" font-family="Helvetica,sans-Serif" font-size="10.00">itk::MetaDataDictionary</text>
</a>
</g>
</g>
<!-- Node10&#45;&gt;Node3 -->
<g id="edge9" class="edge">
<title>Node10&#45;&gt;Node3</title>
<path fill="none" stroke="#9a32cd" stroke-dasharray="5,2" d="M862.41,-117.84C916.82,-120.22 987.23,-123.3 1027.79,-125.07"/>
<polygon fill="#9a32cd" stroke="#9a32cd" points="862.24,-114.33 852.1,-117.39 861.94,-121.32 862.24,-114.33"/>
<text text-anchor="middle" x="928.5" y="-125.5" font-family="Helvetica,sans-Serif" font-size="10.00"> m_MetaDataDictionary</text>
</g>
<!-- Node11 -->
<g id="node11" class="node">
<title>Node11</title>
<g id="a_node11"><a xlink:title=" ">
<polygon fill="white" stroke="#bfbfbf" points="436,-99.5 436,-129.5 585,-129.5 585,-99.5 436,-99.5"/>
<text text-anchor="start" x="444" y="-117.5" font-family="Helvetica,sans-Serif" font-size="10.00">std::shared_ptr&lt; MetaData</text>
<text text-anchor="middle" x="510.5" y="-106.5" font-family="Helvetica,sans-Serif" font-size="10.00">DictionaryMapType &gt;</text>
</a>
</g>
</g>
<!-- Node11&#45;&gt;Node10 -->
<g id="edge10" class="edge">
<title>Node11&#45;&gt;Node10</title>
<path fill="none" stroke="#9a32cd" stroke-dasharray="5,2" d="M595.34,-114.5C634.65,-114.5 680.82,-114.5 717.65,-114.5"/>
<polygon fill="#9a32cd" stroke="#9a32cd" points="595.24,-111 585.24,-114.5 595.24,-118 595.24,-111"/>
<text text-anchor="middle" x="651.5" y="-117.5" font-family="Helvetica,sans-Serif" font-size="10.00"> m_Dictionary</text>
</g>
<!-- Node12&#45;&gt;Node11 -->
<g id="edge11" class="edge">
<title>Node12&#45;&gt;Node11</title>
<path fill="none" stroke="#9a32cd" stroke-dasharray="5,2" d="M233.81,-90.71C283.27,-92.83 355.29,-96.6 418,-102.5 423.74,-103.04 429.68,-103.67 435.64,-104.34"/>
<polygon fill="#9a32cd" stroke="#9a32cd" points="233.75,-87.21 223.62,-90.28 233.46,-94.2 233.75,-87.21"/>
<text text-anchor="middle" x="334" y="-105.5" font-family="Helvetica,sans-Serif" font-size="10.00"> ptr</text>
</g>
<!-- Node13 -->
<g id="node13" class="node">
<title>Node13</title>
<g id="a_node13"><a xlink:title=" ">
<polygon fill="white" stroke="#bfbfbf" points="0,-50 0,-69 29,-69 29,-50 0,-50"/>
<text text-anchor="middle" x="14.5" y="-57" font-family="Helvetica,sans-Serif" font-size="10.00">K</text>
</a>
</g>
</g>
<!-- Node13&#45;&gt;Node12 -->
<g id="edge12" class="edge">
<title>Node13&#45;&gt;Node12</title>
<path fill="none" stroke="#9a32cd" stroke-dasharray="5,2" d="M39.2,-57.7C55.34,-56.98 77.13,-57.01 96,-60.5 115.63,-64.13 136.87,-72.35 151.89,-78.95"/>
<polygon fill="#9a32cd" stroke="#9a32cd" points="38.81,-54.21 29.02,-58.28 39.21,-61.2 38.81,-54.21"/>
<text text-anchor="middle" x="71.5" y="-63.5" font-family="Helvetica,sans-Serif" font-size="10.00"> keys</text>
</g>
<!-- Node14&#45;&gt;Node11 -->
<g id="edge14" class="edge">
<title>Node14&#45;&gt;Node11</title>
<path fill="none" stroke="orange" stroke-dasharray="5,2" d="M242.27,-124.06C298.5,-122.05 378.06,-119.2 435.74,-117.14"/>
<polygon fill="orange" stroke="orange" points="241.93,-120.57 232.06,-124.42 242.18,-127.56 241.93,-120.57"/>
<text text-anchor="middle" x="334" y="-126.5" font-family="Helvetica,sans-Serif" font-size="10.00"> &lt; MetaDataDictionaryMapType &gt;</text>
</g>
<!-- Node15&#45;&gt;Node3 -->
<g id="edge16" class="edge">
<title>Node15&#45;&gt;Node3</title>
<path fill="none" stroke="#9a32cd" stroke-dasharray="5,2" d="M707.86,-194.8C774.85,-190.57 890.65,-180.14 987,-155.5 1005.61,-150.74 1025.84,-142.51 1040.36,-136.04"/>
<polygon fill="#9a32cd" stroke="#9a32cd" points="707.3,-191.33 697.53,-195.43 707.73,-198.32 707.3,-191.33"/>
<text text-anchor="middle" x="785" y="-196.5" font-family="Helvetica,sans-Serif" font-size="10.00"> m_MTime</text>
</g>
<!-- Node16 -->
<g id="node16" class="node">
<title>Node16</title>
<g id="a_node16"><a xlink:title="STL class.">
<polygon fill="white" stroke="#bfbfbf" points="1231.5,-11 1231.5,-30 1313.5,-30 1313.5,-11 1231.5,-11"/>
<text text-anchor="middle" x="1272.5" y="-18" font-family="Helvetica,sans-Serif" font-size="10.00">std::ofstream</text>
</a>
</g>
</g>
<!-- Node16&#45;&gt;Node1 -->
<g id="edge19" class="edge">
<title>Node16&#45;&gt;Node1</title>
<path fill="none" stroke="#9a32cd" stroke-dasharray="5,2" d="M1323.77,-23.93C1346.59,-26.06 1373.82,-29.39 1398,-34.5 1416.26,-38.36 1436.3,-44.68 1451.7,-50"/>
<polygon fill="#9a32cd" stroke="#9a32cd" points="1323.89,-20.43 1313.62,-23.04 1323.28,-27.4 1323.89,-20.43"/>
<text text-anchor="middle" x="1371" y="-37.5" font-family="Helvetica,sans-Serif" font-size="10.00"> m_Stream</text>
</g>
<!-- Node17 -->
<g id="node17" class="node">
<title>Node17</title>
<g id="a_node17"><a xlink:title="STL class.">
<polygon fill="white" stroke="#bfbfbf" points="1005,-0.5 1005,-30.5 1118,-30.5 1118,-0.5 1005,-0.5"/>
<text text-anchor="start" x="1013" y="-18.5" font-family="Helvetica,sans-Serif" font-size="10.00">std::basic_ofstream</text>
<text text-anchor="middle" x="1061.5" y="-7.5" font-family="Helvetica,sans-Serif" font-size="10.00">&lt; char &gt;</text>
</a>
</g>
</g>
<!-- Node17&#45;&gt;Node16 -->
<g id="edge20" class="edge">
<title>Node17&#45;&gt;Node16</title>
<path fill="none" stroke="midnightblue" d="M1128.51,-17.08C1162.31,-17.89 1202.36,-18.85 1231.47,-19.54"/>
<polygon fill="midnightblue" stroke="midnightblue" points="1128.31,-13.57 1118.23,-16.83 1128.15,-20.57 1128.31,-13.57"/>
</g>
<!-- Node18 -->
<g id="node18" class="node">
<title>Node18</title>
<g id="a_node18"><a xlink:title="STL class.">
<polygon fill="white" stroke="#bfbfbf" points="730.5,-0.5 730.5,-30.5 839.5,-30.5 839.5,-0.5 730.5,-0.5"/>
<text text-anchor="start" x="738.5" y="-18.5" font-family="Helvetica,sans-Serif" font-size="10.00">std::basic_ostream</text>
<text text-anchor="middle" x="785" y="-7.5" font-family="Helvetica,sans-Serif" font-size="10.00">&lt; Char &gt;</text>
</a>
</g>
</g>
<!-- Node18&#45;&gt;Node17 -->
<g id="edge21" class="edge">
<title>Node18&#45;&gt;Node17</title>
<path fill="none" stroke="midnightblue" d="M849.63,-15.5C896.54,-15.5 959.75,-15.5 1004.7,-15.5"/>
<polygon fill="midnightblue" stroke="midnightblue" points="849.58,-12 839.58,-15.5 849.58,-19 849.58,-12"/>
</g>
<!-- Node19 -->
<g id="node19" class="node">
<title>Node19</title>
<g id="a_node19"><a xlink:title="STL class.">
<polygon fill="white" stroke="#bfbfbf" points="446.5,-6 446.5,-25 574.5,-25 574.5,-6 446.5,-6"/>
<text text-anchor="middle" x="510.5" y="-13" font-family="Helvetica,sans-Serif" font-size="10.00">std::basic_ios&lt; Char &gt;</text>
</a>
</g>
</g>
<!-- Node19&#45;&gt;Node18 -->
<g id="edge22" class="edge">
<title>Node19&#45;&gt;Node18</title>
<path fill="none" stroke="midnightblue" d="M584.88,-15.5C630.74,-15.5 688.76,-15.5 730.33,-15.5"/>
<polygon fill="midnightblue" stroke="midnightblue" points="584.7,-12 574.7,-15.5 584.7,-19 584.7,-12"/>
</g>
<!-- Node20 -->
<g id="node20" class="node">
<title>Node20</title>
<g id="a_node20"><a xlink:title="STL class.">
<polygon fill="white" stroke="#bfbfbf" points="133,-6 133,-25 213,-25 213,-6 133,-6"/>
<text text-anchor="middle" x="173" y="-13" font-family="Helvetica,sans-Serif" font-size="10.00">std::ios_base</text>
</a>
</g>
</g>
<!-- Node20&#45;&gt;Node19 -->
<g id="edge23" class="edge">
<title>Node20&#45;&gt;Node19</title>
<path fill="none" stroke="midnightblue" d="M223.34,-15.5C282.48,-15.5 381.66,-15.5 446.34,-15.5"/>
<polygon fill="midnightblue" stroke="midnightblue" points="223.14,-12 213.14,-15.5 223.14,-19 223.14,-12"/>
</g>
</g>
</svg>
