<?xml version="1.0" encoding="UTF-8" standalone="no"?>
<!DOCTYPE svg PUBLIC "-//W3C//DTD SVG 1.1//EN"
 "http://www.w3.org/Graphics/SVG/1.1/DTD/svg11.dtd">
<!-- Generated by graphviz version 2.43.0 (0)
 -->
<!-- Title: itk::Mesh&lt; TPixelType, VDimension, TMeshTraits &gt; Pages: 1 -->
<svg width="2165pt" height="322pt"
 viewBox="0.00 0.00 2165.00 321.50" xmlns="http://www.w3.org/2000/svg" xmlns:xlink="http://www.w3.org/1999/xlink">
<g id="graph0" class="graph" transform="scale(1 1) rotate(0) translate(4 317.5)">
<title>itk::Mesh&lt; TPixelType, VDimension, TMeshTraits &gt;</title>
<polygon fill="white" stroke="transparent" points="-4,4 -4,-317.5 2161,-317.5 2161,4 -4,4"/>
<!-- Node1 -->
<g id="node1" class="node">
<title>Node1</title>
<g id="a_node1"><a xlink:title="Implements the N&#45;dimensional mesh structure.">
<polygon fill="#bfbfbf" stroke="black" points="2002,-49.5 2002,-79.5 2157,-79.5 2157,-49.5 2002,-49.5"/>
<text text-anchor="start" x="2010" y="-67.5" font-family="Helvetica,sans-Serif" font-size="10.00">itk::Mesh&lt; TPixelType,</text>
<text text-anchor="middle" x="2079.5" y="-56.5" font-family="Helvetica,sans-Serif" font-size="10.00"> VDimension, TMeshTraits &gt;</text>
</a>
</g>
</g>
<!-- Node2 -->
<g id="node2" class="node">
<title>Node2</title>
<g id="a_node2"><a xlink:href="classitk_1_1PointSet.html" target="_top" xlink:title=" ">
<polygon fill="white" stroke="black" points="1616.5,-99 1616.5,-140 1764.5,-140 1764.5,-99 1616.5,-99"/>
<text text-anchor="start" x="1624.5" y="-128" font-family="Helvetica,sans-Serif" font-size="10.00">itk::PointSet&lt; TPixelType,</text>
<text text-anchor="start" x="1624.5" y="-117" font-family="Helvetica,sans-Serif" font-size="10.00"> 3, DefaultStaticMeshTraits</text>
<text text-anchor="middle" x="1690.5" y="-106" font-family="Helvetica,sans-Serif" font-size="10.00">&lt; TPixelType, 3, 3 &gt; &gt;</text>
</a>
</g>
</g>
<!-- Node2&#45;&gt;Node1 -->
<g id="edge1" class="edge">
<title>Node2&#45;&gt;Node1</title>
<path fill="none" stroke="midnightblue" d="M1774.53,-108.63C1833.12,-100.84 1913.42,-89.93 1984,-79.5 1989.83,-78.64 1995.87,-77.73 2001.93,-76.8"/>
<polygon fill="midnightblue" stroke="midnightblue" points="1774.04,-105.16 1764.59,-109.95 1774.96,-112.1 1774.04,-105.16"/>
</g>
<!-- Node3 -->
<g id="node3" class="node">
<title>Node3</title>
<g id="a_node3"><a xlink:href="classitk_1_1DataObject.html" target="_top" xlink:title="Base class for all data objects in ITK.">
<polygon fill="white" stroke="black" points="1469,-110 1469,-129 1559,-129 1559,-110 1469,-110"/>
<text text-anchor="middle" x="1514" y="-117" font-family="Helvetica,sans-Serif" font-size="10.00">itk::DataObject</text>
</a>
</g>
</g>
<!-- Node3&#45;&gt;Node2 -->
<g id="edge2" class="edge">
<title>Node3&#45;&gt;Node2</title>
<path fill="none" stroke="midnightblue" d="M1569.1,-119.5C1584.02,-119.5 1600.47,-119.5 1616.29,-119.5"/>
<polygon fill="midnightblue" stroke="midnightblue" points="1569.03,-116 1559.03,-119.5 1569.03,-123 1569.03,-116"/>
</g>
<!-- Node4 -->
<g id="node4" class="node">
<title>Node4</title>
<g id="a_node4"><a xlink:href="classitk_1_1Object.html" target="_top" xlink:title="Base class for most ITK classes.">
<polygon fill="white" stroke="black" points="1242,-186 1242,-205 1309,-205 1309,-186 1242,-186"/>
<text text-anchor="middle" x="1275.5" y="-193" font-family="Helvetica,sans-Serif" font-size="10.00">itk::Object</text>
</a>
</g>
</g>
<!-- Node4&#45;&gt;Node3 -->
<g id="edge3" class="edge">
<title>Node4&#45;&gt;Node3</title>
<path fill="none" stroke="midnightblue" d="M1316.03,-182.8C1363.19,-167.64 1440.95,-142.65 1483.29,-129.05"/>
<polygon fill="midnightblue" stroke="midnightblue" points="1314.9,-179.48 1306.45,-185.87 1317.04,-186.15 1314.9,-179.48"/>
</g>
<!-- Node5 -->
<g id="node5" class="node">
<title>Node5</title>
<g id="a_node5"><a xlink:href="classitk_1_1LightObject.html" target="_top" xlink:title="Light weight base class for most itk classes.">
<polygon fill="white" stroke="black" points="932,-157 932,-176 1023,-176 1023,-157 932,-157"/>
<text text-anchor="middle" x="977.5" y="-164" font-family="Helvetica,sans-Serif" font-size="10.00">itk::LightObject</text>
</a>
</g>
</g>
<!-- Node5&#45;&gt;Node4 -->
<g id="edge4" class="edge">
<title>Node5&#45;&gt;Node4</title>
<path fill="none" stroke="midnightblue" d="M1033.38,-171.88C1094.59,-177.87 1191.59,-187.38 1241.87,-192.3"/>
<polygon fill="midnightblue" stroke="midnightblue" points="1033.43,-168.36 1023.13,-170.87 1032.75,-175.33 1033.43,-168.36"/>
</g>
<!-- Node6 -->
<g id="node6" class="node">
<title>Node6</title>
<g id="a_node6"><a xlink:title=" ">
<polygon fill="white" stroke="black" points="655.5,-157 655.5,-176 762.5,-176 762.5,-157 655.5,-157"/>
<text text-anchor="middle" x="709" y="-164" font-family="Helvetica,sans-Serif" font-size="10.00">std::atomic&lt; int &gt;</text>
</a>
</g>
</g>
<!-- Node6&#45;&gt;Node5 -->
<g id="edge5" class="edge">
<title>Node6&#45;&gt;Node5</title>
<path fill="none" stroke="#9a32cd" stroke-dasharray="5,2" d="M772.8,-166.5C821.7,-166.5 888.37,-166.5 931.92,-166.5"/>
<polygon fill="#9a32cd" stroke="#9a32cd" points="772.65,-163 762.65,-166.5 772.65,-170 772.65,-163"/>
<text text-anchor="middle" x="842.5" y="-169.5" font-family="Helvetica,sans-Serif" font-size="10.00"> m_ReferenceCount</text>
</g>
<!-- Node7 -->
<g id="node7" class="node">
<title>Node7</title>
<g id="a_node7"><a xlink:href="classitk_1_1TimeStamp.html" target="_top" xlink:title="Generate a unique, increasing time value.">
<polygon fill="white" stroke="black" points="931.5,-294 931.5,-313 1023.5,-313 1023.5,-294 931.5,-294"/>
<text text-anchor="middle" x="977.5" y="-301" font-family="Helvetica,sans-Serif" font-size="10.00">itk::TimeStamp</text>
</a>
</g>
</g>
<!-- Node7&#45;&gt;Node3 -->
<g id="edge20" class="edge">
<title>Node7&#45;&gt;Node3</title>
<path fill="none" stroke="#9a32cd" stroke-dasharray="5,2" d="M1033.74,-306.46C1078.49,-307.44 1142.76,-305.61 1197,-291.5 1318.58,-259.87 1344.33,-233.85 1451,-167.5 1469.96,-155.71 1490.07,-139.33 1502.08,-129.07"/>
<polygon fill="#9a32cd" stroke="#9a32cd" points="1033.75,-302.96 1023.66,-306.19 1033.56,-309.96 1033.75,-302.96"/>
<text text-anchor="middle" x="1275.5" y="-288.5" font-family="Helvetica,sans-Serif" font-size="10.00"> m_UpdateMTime</text>
</g>
<!-- Node7&#45;&gt;Node4 -->
<g id="edge6" class="edge">
<title>Node7&#45;&gt;Node4</title>
<path fill="none" stroke="#9a32cd" stroke-dasharray="5,2" d="M1020.87,-291.28C1034.57,-287.55 1049.87,-283.62 1064,-280.5 1122.58,-267.58 1142.3,-282.12 1197,-257.5 1225.28,-244.77 1252.11,-219.29 1265.54,-205.28"/>
<polygon fill="#9a32cd" stroke="#9a32cd" points="1019.92,-287.91 1011.21,-293.95 1021.78,-294.66 1019.92,-287.91"/>
<text text-anchor="middle" x="1130.5" y="-283.5" font-family="Helvetica,sans-Serif" font-size="10.00"> m_MTime</text>
</g>
<!-- Node8 -->
<g id="node8" class="node">
<title>Node8</title>
<g id="a_node8"><a xlink:title=" ">
<polygon fill="white" stroke="black" points="233,-293 233,-312 333,-312 333,-293 233,-293"/>
<text text-anchor="middle" x="283" y="-300" font-family="Helvetica,sans-Serif" font-size="10.00">std::atomic&lt; T &gt;</text>
</a>
</g>
</g>
<!-- Node8&#45;&gt;Node7 -->
<g id="edge7" class="edge">
<title>Node8&#45;&gt;Node7</title>
<path fill="none" stroke="#9a32cd" stroke-dasharray="5,2" d="M343.46,-302.59C479.32,-302.78 810.08,-303.26 931.14,-303.43"/>
<polygon fill="#9a32cd" stroke="#9a32cd" points="343.25,-299.09 333.25,-302.57 343.24,-306.09 343.25,-299.09"/>
<text text-anchor="middle" x="571" y="-305.5" font-family="Helvetica,sans-Serif" font-size="10.00"> m_GlobalTimeStamp</text>
</g>
<!-- Node9 -->
<g id="node9" class="node">
<title>Node9</title>
<g id="a_node9"><a xlink:title=" ">
<polygon fill="white" stroke="black" points="0,-278 0,-297 29,-297 29,-278 0,-278"/>
<text text-anchor="middle" x="14.5" y="-285" font-family="Helvetica,sans-Serif" font-size="10.00">T</text>
</a>
</g>
</g>
<!-- Node9&#45;&gt;Node8 -->
<g id="edge8" class="edge">
<title>Node9&#45;&gt;Node8</title>
<path fill="none" stroke="#9a32cd" stroke-dasharray="5,2" d="M39.23,-288.84C82.59,-291.28 175.47,-296.5 232.94,-299.74"/>
<polygon fill="#9a32cd" stroke="#9a32cd" points="39.26,-285.33 29.08,-288.26 38.87,-292.32 39.26,-285.33"/>
<text text-anchor="middle" x="71.5" y="-294.5" font-family="Helvetica,sans-Serif" font-size="10.00"> ptr</text>
</g>
<!-- Node14 -->
<g id="node14" class="node">
<title>Node14</title>
<g id="a_node14"><a xlink:title=" ">
<polygon fill="white" stroke="black" points="114,-225 114,-244 215,-244 215,-225 114,-225"/>
<text text-anchor="middle" x="164.5" y="-232" font-family="Helvetica,sans-Serif" font-size="10.00">std::map&lt; K, T &gt;</text>
</a>
</g>
</g>
<!-- Node9&#45;&gt;Node14 -->
<g id="edge15" class="edge">
<title>Node9&#45;&gt;Node14</title>
<path fill="none" stroke="#9a32cd" stroke-dasharray="5,2" d="M38.18,-273.74C41.1,-272.21 44.08,-270.75 47,-269.5 71.84,-258.84 100.96,-250.09 123.88,-244"/>
<polygon fill="#9a32cd" stroke="#9a32cd" points="36.28,-270.79 29.26,-278.73 39.7,-276.9 36.28,-270.79"/>
<text text-anchor="middle" x="71.5" y="-272.5" font-family="Helvetica,sans-Serif" font-size="10.00"> elements</text>
</g>
<!-- Node10 -->
<g id="node10" class="node">
<title>Node10</title>
<g id="a_node10"><a xlink:title=" ">
<polygon fill="white" stroke="black" points="909,-244.5 909,-274.5 1046,-274.5 1046,-244.5 909,-244.5"/>
<text text-anchor="start" x="917" y="-262.5" font-family="Helvetica,sans-Serif" font-size="10.00">std::unique_ptr&lt; Subject</text>
<text text-anchor="middle" x="977.5" y="-251.5" font-family="Helvetica,sans-Serif" font-size="10.00">Implementation &gt;</text>
</a>
</g>
</g>
<!-- Node10&#45;&gt;Node4 -->
<g id="edge9" class="edge">
<title>Node10&#45;&gt;Node4</title>
<path fill="none" stroke="#9a32cd" stroke-dasharray="5,2" d="M1056.4,-246.74C1108,-238.06 1170.84,-227.02 1197,-220.5 1214.15,-216.22 1233.03,-210.16 1247.86,-205.08"/>
<polygon fill="#9a32cd" stroke="#9a32cd" points="1055.52,-243.34 1046.24,-248.44 1056.68,-250.24 1055.52,-243.34"/>
<text text-anchor="middle" x="1130.5" y="-246.5" font-family="Helvetica,sans-Serif" font-size="10.00"> m_SubjectImplementation</text>
</g>
<!-- Node11 -->
<g id="node11" class="node">
<title>Node11</title>
<g id="a_node11"><a xlink:title=" ">
<polygon fill="white" stroke="black" points="911.5,-195.5 911.5,-225.5 1043.5,-225.5 1043.5,-195.5 911.5,-195.5"/>
<text text-anchor="start" x="919.5" y="-213.5" font-family="Helvetica,sans-Serif" font-size="10.00">std::unique_ptr&lt; itk</text>
<text text-anchor="middle" x="977.5" y="-202.5" font-family="Helvetica,sans-Serif" font-size="10.00">::MetaDataDictionary &gt;</text>
</a>
</g>
</g>
<!-- Node11&#45;&gt;Node4 -->
<g id="edge10" class="edge">
<title>Node11&#45;&gt;Node4</title>
<path fill="none" stroke="#9a32cd" stroke-dasharray="5,2" d="M1054.12,-206.67C1114.74,-203.6 1196.86,-199.43 1241.79,-197.16"/>
<polygon fill="#9a32cd" stroke="#9a32cd" points="1053.63,-203.19 1043.82,-207.19 1053.99,-210.18 1053.63,-203.19"/>
<text text-anchor="middle" x="1130.5" y="-208.5" font-family="Helvetica,sans-Serif" font-size="10.00"> m_MetaDataDictionary</text>
</g>
<!-- Node12 -->
<g id="node12" class="node">
<title>Node12</title>
<g id="a_node12"><a xlink:href="classitk_1_1MetaDataDictionary.html" target="_top" xlink:title="Provides a mechanism for storing a collection of arbitrary data types.">
<polygon fill="white" stroke="black" points="642,-213 642,-232 776,-232 776,-213 642,-213"/>
<text text-anchor="middle" x="709" y="-220" font-family="Helvetica,sans-Serif" font-size="10.00">itk::MetaDataDictionary</text>
</a>
</g>
</g>
<!-- Node12&#45;&gt;Node11 -->
<g id="edge11" class="edge">
<title>Node12&#45;&gt;Node11</title>
<path fill="none" stroke="#9a32cd" stroke-dasharray="5,2" d="M786.32,-219.06C825.74,-217.29 873.36,-215.14 911.08,-213.45"/>
<polygon fill="#9a32cd" stroke="#9a32cd" points="786.05,-215.57 776.22,-219.52 786.37,-222.56 786.05,-215.57"/>
<text text-anchor="middle" x="842.5" y="-221.5" font-family="Helvetica,sans-Serif" font-size="10.00"> ptr</text>
</g>
<!-- Node13 -->
<g id="node13" class="node">
<title>Node13</title>
<g id="a_node13"><a xlink:title=" ">
<polygon fill="white" stroke="black" points="351,-210.5 351,-240.5 500,-240.5 500,-210.5 351,-210.5"/>
<text text-anchor="start" x="359" y="-228.5" font-family="Helvetica,sans-Serif" font-size="10.00">std::shared_ptr&lt; MetaData</text>
<text text-anchor="middle" x="425.5" y="-217.5" font-family="Helvetica,sans-Serif" font-size="10.00">DictionaryMapType &gt;</text>
</a>
</g>
</g>
<!-- Node13&#45;&gt;Node12 -->
<g id="edge12" class="edge">
<title>Node13&#45;&gt;Node12</title>
<path fill="none" stroke="#9a32cd" stroke-dasharray="5,2" d="M510.29,-224.61C552.24,-224.16 602.31,-223.63 641.57,-223.21"/>
<polygon fill="#9a32cd" stroke="#9a32cd" points="510.06,-221.11 500.09,-224.72 510.13,-228.11 510.06,-221.11"/>
<text text-anchor="middle" x="571" y="-226.5" font-family="Helvetica,sans-Serif" font-size="10.00"> m_Dictionary</text>
</g>
<!-- Node14&#45;&gt;Node13 -->
<g id="edge13" class="edge">
<title>Node14&#45;&gt;Node13</title>
<path fill="none" stroke="#9a32cd" stroke-dasharray="5,2" d="M225.34,-232.42C262.61,-231.13 310.86,-229.45 350.52,-228.07"/>
<polygon fill="#9a32cd" stroke="#9a32cd" points="225,-228.93 215.13,-232.78 225.25,-235.93 225,-228.93"/>
<text text-anchor="middle" x="283" y="-234.5" font-family="Helvetica,sans-Serif" font-size="10.00"> ptr</text>
</g>
<!-- Node15 -->
<g id="node15" class="node">
<title>Node15</title>
<g id="a_node15"><a xlink:title=" ">
<polygon fill="white" stroke="black" points="0,-225 0,-244 29,-244 29,-225 0,-225"/>
<text text-anchor="middle" x="14.5" y="-232" font-family="Helvetica,sans-Serif" font-size="10.00">K</text>
</a>
</g>
</g>
<!-- Node15&#45;&gt;Node14 -->
<g id="edge14" class="edge">
<title>Node15&#45;&gt;Node14</title>
<path fill="none" stroke="#9a32cd" stroke-dasharray="5,2" d="M39.24,-234.5C59.28,-234.5 88.63,-234.5 113.78,-234.5"/>
<polygon fill="#9a32cd" stroke="#9a32cd" points="39.16,-231 29.16,-234.5 39.16,-238 39.16,-231"/>
<text text-anchor="middle" x="71.5" y="-237.5" font-family="Helvetica,sans-Serif" font-size="10.00"> keys</text>
</g>
<!-- Node16 -->
<g id="node16" class="node">
<title>Node16</title>
<g id="a_node16"><a xlink:title=" ">
<polygon fill="white" stroke="black" points="945,-112 945,-131 1010,-131 1010,-112 945,-112"/>
<text text-anchor="middle" x="977.5" y="-119" font-family="Helvetica,sans-Serif" font-size="10.00">std::string</text>
</a>
</g>
</g>
<!-- Node16&#45;&gt;Node3 -->
<g id="edge19" class="edge">
<title>Node16&#45;&gt;Node3</title>
<path fill="none" stroke="#9a32cd" stroke-dasharray="5,2" d="M1020.57,-121.34C1119.7,-120.97 1367.24,-120.05 1468.63,-119.67"/>
<polygon fill="#9a32cd" stroke="#9a32cd" points="1020.32,-117.84 1010.33,-121.38 1020.35,-124.84 1020.32,-117.84"/>
<text text-anchor="middle" x="1275.5" y="-123.5" font-family="Helvetica,sans-Serif" font-size="10.00"> m_SourceOutputName</text>
</g>
<!-- Node16&#45;&gt;Node4 -->
<g id="edge16" class="edge">
<title>Node16&#45;&gt;Node4</title>
<path fill="none" stroke="#9a32cd" stroke-dasharray="5,2" d="M1020.4,-125.48C1064.96,-130.47 1137.13,-140.75 1197,-159.5 1218.52,-166.24 1241.81,-177.67 1257.18,-185.84"/>
<polygon fill="#9a32cd" stroke="#9a32cd" points="1020.55,-121.98 1010.23,-124.38 1019.8,-128.94 1020.55,-121.98"/>
<text text-anchor="middle" x="1130.5" y="-162.5" font-family="Helvetica,sans-Serif" font-size="10.00"> m_ObjectName</text>
</g>
<!-- Node17 -->
<g id="node17" class="node">
<title>Node17</title>
<g id="a_node17"><a xlink:title=" ">
<polygon fill="white" stroke="black" points="657,-106.5 657,-136.5 761,-136.5 761,-106.5 657,-106.5"/>
<text text-anchor="start" x="665" y="-124.5" font-family="Helvetica,sans-Serif" font-size="10.00">std::basic_string&lt;</text>
<text text-anchor="middle" x="709" y="-113.5" font-family="Helvetica,sans-Serif" font-size="10.00"> Char &gt;</text>
</a>
</g>
</g>
<!-- Node17&#45;&gt;Node16 -->
<g id="edge17" class="edge">
<title>Node17&#45;&gt;Node16</title>
<path fill="none" stroke="midnightblue" d="M771.24,-121.5C825.37,-121.5 902.16,-121.5 944.82,-121.5"/>
<polygon fill="midnightblue" stroke="midnightblue" points="771.07,-118 761.07,-121.5 771.07,-125 771.07,-118"/>
</g>
<!-- Node18 -->
<g id="node18" class="node">
<title>Node18</title>
<g id="a_node18"><a xlink:href="classitk_1_1WeakPointer.html" target="_top" xlink:title=" ">
<polygon fill="white" stroke="black" points="1215,-52.5 1215,-82.5 1336,-82.5 1336,-52.5 1215,-52.5"/>
<text text-anchor="start" x="1223" y="-70.5" font-family="Helvetica,sans-Serif" font-size="10.00">itk::WeakPointer&lt; itk</text>
<text text-anchor="middle" x="1275.5" y="-59.5" font-family="Helvetica,sans-Serif" font-size="10.00">::ProcessObject &gt;</text>
</a>
</g>
</g>
<!-- Node18&#45;&gt;Node3 -->
<g id="edge18" class="edge">
<title>Node18&#45;&gt;Node3</title>
<path fill="none" stroke="#9a32cd" stroke-dasharray="5,2" d="M1346.4,-74.59C1378.61,-78.8 1417.13,-85.18 1451,-94.5 1465.32,-98.44 1480.82,-104.69 1492.74,-109.95"/>
<polygon fill="#9a32cd" stroke="#9a32cd" points="1346.54,-71.08 1336.18,-73.29 1345.66,-78.02 1346.54,-71.08"/>
<text text-anchor="middle" x="1402.5" y="-97.5" font-family="Helvetica,sans-Serif" font-size="10.00"> m_Source</text>
</g>
<!-- Node19 -->
<g id="node19" class="node">
<title>Node19</title>
<g id="a_node19"><a xlink:href="classitk_1_1RealTimeStamp.html" target="_top" xlink:title="The RealTimeStamp is a data structure for representing time with high precision and a large dynamic r...">
<polygon fill="white" stroke="black" points="1219,-14 1219,-33 1332,-33 1332,-14 1219,-14"/>
<text text-anchor="middle" x="1275.5" y="-21" font-family="Helvetica,sans-Serif" font-size="10.00">itk::RealTimeStamp</text>
</a>
</g>
</g>
<!-- Node19&#45;&gt;Node3 -->
<g id="edge21" class="edge">
<title>Node19&#45;&gt;Node3</title>
<path fill="none" stroke="#9a32cd" stroke-dasharray="5,2" d="M1342.49,-28.84C1376.45,-33.68 1417.6,-42.91 1451,-60.5 1474.4,-72.83 1495.23,-96.53 1505.76,-109.84"/>
<polygon fill="#9a32cd" stroke="#9a32cd" points="1342.58,-25.32 1332.21,-27.48 1341.66,-32.26 1342.58,-25.32"/>
<text text-anchor="middle" x="1402.5" y="-63.5" font-family="Helvetica,sans-Serif" font-size="10.00"> m_RealTimeStamp</text>
</g>
<!-- Node20 -->
<g id="node20" class="node">
<title>Node20</title>
<g id="a_node20"><a xlink:title=" ">
<polygon fill="white" stroke="black" points="949.5,-14 949.5,-33 1005.5,-33 1005.5,-14 949.5,-14"/>
<text text-anchor="middle" x="977.5" y="-21" font-family="Helvetica,sans-Serif" font-size="10.00">uint64_t</text>
</a>
</g>
</g>
<!-- Node20&#45;&gt;Node19 -->
<g id="edge22" class="edge">
<title>Node20&#45;&gt;Node19</title>
<path fill="none" stroke="#9a32cd" stroke-dasharray="5,2" d="M1015.83,-23.5C1067.04,-23.5 1159.47,-23.5 1218.86,-23.5"/>
<polygon fill="#9a32cd" stroke="#9a32cd" points="1015.55,-20 1005.55,-23.5 1015.55,-27 1015.55,-20"/>
<text text-anchor="middle" x="1130.5" y="-37.5" font-family="Helvetica,sans-Serif" font-size="10.00"> m_MicroSeconds</text>
<text text-anchor="middle" x="1130.5" y="-26.5" font-family="Helvetica,sans-Serif" font-size="10.00">m_Seconds</text>
</g>
<!-- Node21 -->
<g id="node21" class="node">
<title>Node21</title>
<g id="a_node21"><a xlink:title=" ">
<polygon fill="white" stroke="black" points="1596,-49.5 1596,-79.5 1785,-79.5 1785,-49.5 1596,-49.5"/>
<text text-anchor="start" x="1604" y="-67.5" font-family="Helvetica,sans-Serif" font-size="10.00">std::vector&lt; BoundaryAssignments</text>
<text text-anchor="middle" x="1690.5" y="-56.5" font-family="Helvetica,sans-Serif" font-size="10.00">ContainerPointer &gt;</text>
</a>
</g>
</g>
<!-- Node21&#45;&gt;Node1 -->
<g id="edge23" class="edge">
<title>Node21&#45;&gt;Node1</title>
<path fill="none" stroke="#9a32cd" stroke-dasharray="5,2" d="M1795.46,-64.5C1860.5,-64.5 1942.84,-64.5 2001.92,-64.5"/>
<polygon fill="#9a32cd" stroke="#9a32cd" points="1795.18,-61 1785.18,-64.5 1795.18,-68 1795.18,-61"/>
<text text-anchor="middle" x="1893.5" y="-67.5" font-family="Helvetica,sans-Serif" font-size="10.00"> m_BoundaryAssignmentsContainers</text>
</g>
<!-- Node22 -->
<g id="node22" class="node">
<title>Node22</title>
<g id="a_node22"><a xlink:href="classitk_1_1SmartPointer.html" target="_top" xlink:title=" ">
<polygon fill="white" stroke="black" points="1637,-0.5 1637,-30.5 1744,-30.5 1744,-0.5 1637,-0.5"/>
<text text-anchor="start" x="1645" y="-18.5" font-family="Helvetica,sans-Serif" font-size="10.00">itk::SmartPointer&lt;</text>
<text text-anchor="middle" x="1690.5" y="-7.5" font-family="Helvetica,sans-Serif" font-size="10.00"> Self &gt;</text>
</a>
</g>
</g>
<!-- Node22&#45;&gt;Node1 -->
<g id="edge24" class="edge">
<title>Node22&#45;&gt;Node1</title>
<path fill="none" stroke="#9a32cd" stroke-dasharray="5,2" d="M1754.12,-22.01C1813.41,-28.36 1904.88,-38.63 1984,-49.5 1989.84,-50.3 1995.88,-51.17 2001.95,-52.07"/>
<polygon fill="#9a32cd" stroke="#9a32cd" points="1754.47,-18.53 1744.16,-20.95 1753.73,-25.49 1754.47,-18.53"/>
<text text-anchor="middle" x="1893.5" y="-52.5" font-family="Helvetica,sans-Serif" font-size="10.00"> m_BoundingBox</text>
</g>
</g>
</svg>
