<?xml version="1.0" encoding="UTF-8" standalone="no"?>
<!DOCTYPE svg PUBLIC "-//W3C//DTD SVG 1.1//EN"
 "http://www.w3.org/Graphics/SVG/1.1/DTD/svg11.dtd">
<!-- Generated by graphviz version 2.43.0 (0)
 -->
<!-- Title: itk::VTKPolyDataReader&lt; TOutputMesh &gt; Pages: 1 -->
<svg width="1937pt" height="552pt"
 viewBox="0.00 0.00 1937.00 551.50" xmlns="http://www.w3.org/2000/svg" xmlns:xlink="http://www.w3.org/1999/xlink">
<g id="graph0" class="graph" transform="scale(1 1) rotate(0) translate(4 547.5)">
<title>itk::VTKPolyDataReader&lt; TOutputMesh &gt;</title>
<polygon fill="white" stroke="transparent" points="-4,4 -4,-547.5 1933,-547.5 1933,4 -4,4"/>
<!-- Node1 -->
<g id="node1" class="node">
<title>Node1</title>
<g id="a_node1"><a xlink:title="Reads a vtkPolyData file and create an itkMesh.">
<polygon fill="#bfbfbf" stroke="black" points="1795,-146.5 1795,-176.5 1929,-176.5 1929,-146.5 1795,-146.5"/>
<text text-anchor="start" x="1803" y="-164.5" font-family="Helvetica,sans-Serif" font-size="10.00">itk::VTKPolyDataReader</text>
<text text-anchor="middle" x="1862" y="-153.5" font-family="Helvetica,sans-Serif" font-size="10.00">&lt; TOutputMesh &gt;</text>
</a>
</g>
</g>
<!-- Node2 -->
<g id="node2" class="node">
<title>Node2</title>
<g id="a_node2"><a xlink:href="classitk_1_1MeshSource.html" target="_top" xlink:title="Base class for all process objects that output mesh data.">
<polygon fill="white" stroke="black" points="1613,-212.5 1613,-242.5 1758,-242.5 1758,-212.5 1613,-212.5"/>
<text text-anchor="start" x="1621" y="-230.5" font-family="Helvetica,sans-Serif" font-size="10.00">itk::MeshSource&lt; TOutput</text>
<text text-anchor="middle" x="1685.5" y="-219.5" font-family="Helvetica,sans-Serif" font-size="10.00">Mesh &gt;</text>
</a>
</g>
</g>
<!-- Node2&#45;&gt;Node1 -->
<g id="edge1" class="edge">
<title>Node2&#45;&gt;Node1</title>
<path fill="none" stroke="midnightblue" d="M1736.16,-208.72C1763.09,-198.53 1795.92,-186.12 1821.15,-176.57"/>
<polygon fill="midnightblue" stroke="midnightblue" points="1734.65,-205.55 1726.53,-212.36 1737.13,-212.09 1734.65,-205.55"/>
</g>
<!-- Node3 -->
<g id="node3" class="node">
<title>Node3</title>
<g id="a_node3"><a xlink:href="classitk_1_1ProcessObject.html" target="_top" xlink:title="The base class for all process objects (source, filters, mappers) in the Insight data processing pipe...">
<polygon fill="white" stroke="black" points="1472,-270 1472,-289 1576,-289 1576,-270 1472,-270"/>
<text text-anchor="middle" x="1524" y="-277" font-family="Helvetica,sans-Serif" font-size="10.00">itk::ProcessObject</text>
</a>
</g>
</g>
<!-- Node3&#45;&gt;Node2 -->
<g id="edge2" class="edge">
<title>Node3&#45;&gt;Node2</title>
<path fill="none" stroke="midnightblue" d="M1563.79,-266.85C1586.23,-259.54 1614.61,-250.29 1638.21,-242.59"/>
<polygon fill="midnightblue" stroke="midnightblue" points="1562.68,-263.54 1554.25,-269.96 1564.85,-270.19 1562.68,-263.54"/>
</g>
<!-- Node4 -->
<g id="node4" class="node">
<title>Node4</title>
<g id="a_node4"><a xlink:href="classitk_1_1Object.html" target="_top" xlink:title="Base class for most ITK classes.">
<polygon fill="white" stroke="black" points="1176,-361 1176,-380 1243,-380 1243,-361 1176,-361"/>
<text text-anchor="middle" x="1209.5" y="-368" font-family="Helvetica,sans-Serif" font-size="10.00">itk::Object</text>
</a>
</g>
</g>
<!-- Node4&#45;&gt;Node3 -->
<g id="edge3" class="edge">
<title>Node4&#45;&gt;Node3</title>
<path fill="none" stroke="midnightblue" d="M1253.39,-365.72C1302.97,-359.24 1386.41,-345.4 1454,-319.5 1474.43,-311.67 1495.92,-298.27 1509.39,-289.16"/>
<polygon fill="midnightblue" stroke="midnightblue" points="1252.82,-362.26 1243.34,-366.99 1253.7,-369.21 1252.82,-362.26"/>
</g>
<!-- Node5 -->
<g id="node5" class="node">
<title>Node5</title>
<g id="a_node5"><a xlink:href="classitk_1_1LightObject.html" target="_top" xlink:title="Light weight base class for most itk classes.">
<polygon fill="white" stroke="black" points="834.5,-416 834.5,-435 925.5,-435 925.5,-416 834.5,-416"/>
<text text-anchor="middle" x="880" y="-423" font-family="Helvetica,sans-Serif" font-size="10.00">itk::LightObject</text>
</a>
</g>
</g>
<!-- Node5&#45;&gt;Node4 -->
<g id="edge4" class="edge">
<title>Node5&#45;&gt;Node4</title>
<path fill="none" stroke="midnightblue" d="M935.68,-423.5C981.76,-421.03 1049.24,-415.55 1107,-403.5 1134.03,-397.86 1163.98,-387.61 1184.29,-380.02"/>
<polygon fill="midnightblue" stroke="midnightblue" points="935.41,-420.01 925.6,-424.02 935.77,-427 935.41,-420.01"/>
</g>
<!-- Node6 -->
<g id="node6" class="node">
<title>Node6</title>
<g id="a_node6"><a xlink:title=" ">
<polygon fill="white" stroke="#bfbfbf" points="492,-407 492,-426 599,-426 599,-407 492,-407"/>
<text text-anchor="middle" x="545.5" y="-414" font-family="Helvetica,sans-Serif" font-size="10.00">std::atomic&lt; int &gt;</text>
</a>
</g>
</g>
<!-- Node6&#45;&gt;Node5 -->
<g id="edge5" class="edge">
<title>Node6&#45;&gt;Node5</title>
<path fill="none" stroke="#9a32cd" stroke-dasharray="5,2" d="M609.41,-418.2C675.06,-419.98 776.36,-422.72 834.28,-424.29"/>
<polygon fill="#9a32cd" stroke="#9a32cd" points="609.28,-414.7 599.19,-417.93 609.09,-421.7 609.28,-414.7"/>
<text text-anchor="middle" x="721.5" y="-426.5" font-family="Helvetica,sans-Serif" font-size="10.00"> m_ReferenceCount</text>
</g>
<!-- Node7 -->
<g id="node7" class="node">
<title>Node7</title>
<g id="a_node7"><a xlink:title="STL class.">
<polygon fill="white" stroke="#bfbfbf" points="135.5,-400 135.5,-419 235.5,-419 235.5,-400 135.5,-400"/>
<text text-anchor="middle" x="185.5" y="-407" font-family="Helvetica,sans-Serif" font-size="10.00">std::atomic&lt; T &gt;</text>
</a>
</g>
</g>
<!-- Node7&#45;&gt;Node6 -->
<g id="edge6" class="edge">
<title>Node7&#45;&gt;Node6</title>
<path fill="none" stroke="orange" stroke-dasharray="5,2" d="M245.74,-410.66C314.37,-412 426.38,-414.19 492,-415.47"/>
<polygon fill="orange" stroke="orange" points="245.59,-407.15 235.53,-410.46 245.46,-414.15 245.59,-407.15"/>
<text text-anchor="middle" x="359" y="-417.5" font-family="Helvetica,sans-Serif" font-size="10.00"> &lt; int &gt;</text>
</g>
<!-- Node16 -->
<g id="node16" class="node">
<title>Node16</title>
<g id="a_node16"><a xlink:href="classitk_1_1TimeStamp.html" target="_top" xlink:title="Generate a unique, increasing time value.">
<polygon fill="white" stroke="black" points="834,-340 834,-359 926,-359 926,-340 834,-340"/>
<text text-anchor="middle" x="880" y="-347" font-family="Helvetica,sans-Serif" font-size="10.00">itk::TimeStamp</text>
</a>
</g>
</g>
<!-- Node7&#45;&gt;Node16 -->
<g id="edge18" class="edge">
<title>Node7&#45;&gt;Node16</title>
<path fill="none" stroke="#9a32cd" stroke-dasharray="5,2" d="M245.59,-404.29C301.17,-399.46 386.71,-392.17 461,-386.5 609.36,-375.18 647.22,-380.86 795,-363.5 807.63,-362.02 821.25,-359.95 833.78,-357.86"/>
<polygon fill="#9a32cd" stroke="#9a32cd" points="245.23,-400.81 235.57,-405.17 245.84,-407.79 245.23,-400.81"/>
<text text-anchor="middle" x="545.5" y="-389.5" font-family="Helvetica,sans-Serif" font-size="10.00"> m_GlobalTimeStamp</text>
</g>
<!-- Node20 -->
<g id="node20" class="node">
<title>Node20</title>
<g id="a_node20"><a xlink:title=" ">
<polygon fill="white" stroke="#bfbfbf" points="654.5,-449 654.5,-468 788.5,-468 788.5,-449 654.5,-449"/>
<text text-anchor="middle" x="721.5" y="-456" font-family="Helvetica,sans-Serif" font-size="10.00">std::atomic&lt; uint32_t &gt;</text>
</a>
</g>
</g>
<!-- Node7&#45;&gt;Node20 -->
<g id="edge27" class="edge">
<title>Node7&#45;&gt;Node20</title>
<path fill="none" stroke="orange" stroke-dasharray="5,2" d="M232.88,-421.42C246.38,-424.5 261.21,-427.51 275,-429.5 408.86,-448.86 567.22,-455.3 654.49,-457.44"/>
<polygon fill="orange" stroke="orange" points="233.39,-417.95 222.86,-419.07 231.79,-424.76 233.39,-417.95"/>
<text text-anchor="middle" x="359" y="-450.5" font-family="Helvetica,sans-Serif" font-size="10.00"> &lt; uint32_t &gt;</text>
</g>
<!-- Node8 -->
<g id="node8" class="node">
<title>Node8</title>
<g id="a_node8"><a xlink:title=" ">
<polygon fill="white" stroke="#bfbfbf" points="0,-371 0,-390 29,-390 29,-371 0,-371"/>
<text text-anchor="middle" x="14.5" y="-378" font-family="Helvetica,sans-Serif" font-size="10.00">T</text>
</a>
</g>
</g>
<!-- Node8&#45;&gt;Node7 -->
<g id="edge7" class="edge">
<title>Node8&#45;&gt;Node7</title>
<path fill="none" stroke="#9a32cd" stroke-dasharray="5,2" d="M39,-384.53C63.8,-388.79 103.63,-395.62 135.35,-401.07"/>
<polygon fill="#9a32cd" stroke="#9a32cd" points="39.49,-381.07 29.04,-382.82 38.31,-387.97 39.49,-381.07"/>
<text text-anchor="middle" x="71.5" y="-397.5" font-family="Helvetica,sans-Serif" font-size="10.00"> ptr</text>
</g>
<!-- Node13 -->
<g id="node13" class="node">
<title>Node13</title>
<g id="a_node13"><a xlink:title="STL class.">
<polygon fill="white" stroke="#bfbfbf" points="135,-231 135,-250 236,-250 236,-231 135,-231"/>
<text text-anchor="middle" x="185.5" y="-238" font-family="Helvetica,sans-Serif" font-size="10.00">std::map&lt; K, T &gt;</text>
</a>
</g>
</g>
<!-- Node8&#45;&gt;Node13 -->
<g id="edge14" class="edge">
<title>Node8&#45;&gt;Node13</title>
<path fill="none" stroke="#9a32cd" stroke-dasharray="5,2" d="M31.37,-363.58C36.26,-358.59 41.74,-353.21 47,-348.5 90.45,-309.65 146.07,-268.33 171.16,-250.09"/>
<polygon fill="#9a32cd" stroke="#9a32cd" points="28.7,-361.3 24.3,-370.94 33.75,-366.15 28.7,-361.3"/>
<text text-anchor="middle" x="71.5" y="-351.5" font-family="Helvetica,sans-Serif" font-size="10.00"> elements</text>
</g>
<!-- Node15 -->
<g id="node15" class="node">
<title>Node15</title>
<g id="a_node15"><a xlink:title="STL class.">
<polygon fill="white" stroke="#bfbfbf" points="126.5,-344 126.5,-363 244.5,-363 244.5,-344 126.5,-344"/>
<text text-anchor="middle" x="185.5" y="-351" font-family="Helvetica,sans-Serif" font-size="10.00">std::shared_ptr&lt; T &gt;</text>
</a>
</g>
</g>
<!-- Node8&#45;&gt;Node15 -->
<g id="edge16" class="edge">
<title>Node8&#45;&gt;Node15</title>
<path fill="none" stroke="#9a32cd" stroke-dasharray="5,2" d="M39.08,-373.36C41.74,-372.67 44.42,-372.03 47,-371.5 72.81,-366.15 101.7,-362.09 126.31,-359.18"/>
<polygon fill="#9a32cd" stroke="#9a32cd" points="37.88,-370.05 29.19,-376.11 39.76,-376.8 37.88,-370.05"/>
<text text-anchor="middle" x="71.5" y="-374.5" font-family="Helvetica,sans-Serif" font-size="10.00"> ptr</text>
</g>
<!-- Node23 -->
<g id="node23" class="node">
<title>Node23</title>
<g id="a_node23"><a xlink:title="STL class.">
<polygon fill="white" stroke="#bfbfbf" points="137,-466 137,-485 234,-485 234,-466 137,-466"/>
<text text-anchor="middle" x="185.5" y="-473" font-family="Helvetica,sans-Serif" font-size="10.00">std::vector&lt; T &gt;</text>
</a>
</g>
</g>
<!-- Node8&#45;&gt;Node23 -->
<g id="edge31" class="edge">
<title>Node8&#45;&gt;Node23</title>
<path fill="none" stroke="#9a32cd" stroke-dasharray="5,2" d="M31.75,-397.16C36.44,-401.48 41.72,-405.92 47,-409.5 83.38,-434.17 130.4,-454.59 158.96,-465.91"/>
<polygon fill="#9a32cd" stroke="#9a32cd" points="34.15,-394.61 24.53,-390.17 29.28,-399.64 34.15,-394.61"/>
<text text-anchor="middle" x="71.5" y="-440.5" font-family="Helvetica,sans-Serif" font-size="10.00"> elements</text>
</g>
<!-- Node9 -->
<g id="node9" class="node">
<title>Node9</title>
<g id="a_node9"><a xlink:title="STL class.">
<polygon fill="white" stroke="#bfbfbf" points="847.5,-217 847.5,-236 912.5,-236 912.5,-217 847.5,-217"/>
<text text-anchor="middle" x="880" y="-224" font-family="Helvetica,sans-Serif" font-size="10.00">std::string</text>
</a>
</g>
</g>
<!-- Node9&#45;&gt;Node1 -->
<g id="edge40" class="edge">
<title>Node9&#45;&gt;Node1</title>
<path fill="none" stroke="#9a32cd" stroke-dasharray="5,2" d="M922.74,-215.98C936.19,-212.75 951.19,-209.31 965,-206.5 1035.67,-192.14 1053.46,-188.58 1125,-179.5 1370.51,-148.33 1665.68,-154.02 1794.94,-158.63"/>
<polygon fill="#9a32cd" stroke="#9a32cd" points="921.69,-212.64 912.8,-218.4 923.34,-219.44 921.69,-212.64"/>
<text text-anchor="middle" x="1524" y="-181.5" font-family="Helvetica,sans-Serif" font-size="10.00"> m_FileName</text>
<text text-anchor="middle" x="1524" y="-170.5" font-family="Helvetica,sans-Serif" font-size="10.00">m_Version</text>
<text text-anchor="middle" x="1524" y="-159.5" font-family="Helvetica,sans-Serif" font-size="10.00">m_Header</text>
</g>
<!-- Node9&#45;&gt;Node4 -->
<g id="edge8" class="edge">
<title>Node9&#45;&gt;Node4</title>
<path fill="none" stroke="#9a32cd" stroke-dasharray="5,2" d="M912.18,-240.21C978.01,-269.15 1129.79,-335.89 1186.55,-360.85"/>
<polygon fill="#9a32cd" stroke="#9a32cd" points="913.3,-236.88 902.74,-236.06 910.49,-243.29 913.3,-236.88"/>
<text text-anchor="middle" x="1036" y="-327.5" font-family="Helvetica,sans-Serif" font-size="10.00"> m_ObjectName</text>
</g>
<!-- Node17 -->
<g id="node17" class="node">
<title>Node17</title>
<g id="a_node17"><a xlink:title=" ">
<polygon fill="white" stroke="#bfbfbf" points="1128.5,-238.5 1128.5,-268.5 1290.5,-268.5 1290.5,-238.5 1128.5,-238.5"/>
<text text-anchor="start" x="1136.5" y="-256.5" font-family="Helvetica,sans-Serif" font-size="10.00">std::set&lt; DataObjectIdentifier</text>
<text text-anchor="middle" x="1209.5" y="-245.5" font-family="Helvetica,sans-Serif" font-size="10.00">Type &gt;</text>
</a>
</g>
</g>
<!-- Node9&#45;&gt;Node17 -->
<g id="edge20" class="edge">
<title>Node9&#45;&gt;Node17</title>
<path fill="none" stroke="#9a32cd" stroke-dasharray="5,2" d="M922.82,-229.95C974.42,-234.2 1063.3,-241.53 1128.25,-246.88"/>
<polygon fill="#9a32cd" stroke="#9a32cd" points="922.95,-226.45 912.7,-229.11 922.38,-233.42 922.95,-226.45"/>
<text text-anchor="middle" x="1036" y="-248.5" font-family="Helvetica,sans-Serif" font-size="10.00"> keys</text>
</g>
<!-- Node19 -->
<g id="node19" class="node">
<title>Node19</title>
<g id="a_node19"><a xlink:title=" ">
<polygon fill="white" stroke="#bfbfbf" points="1125,-189.5 1125,-219.5 1294,-219.5 1294,-189.5 1125,-189.5"/>
<text text-anchor="start" x="1133" y="-207.5" font-family="Helvetica,sans-Serif" font-size="10.00">std::map&lt; DataObjectIdentifier</text>
<text text-anchor="middle" x="1209.5" y="-196.5" font-family="Helvetica,sans-Serif" font-size="10.00">Type, bool &gt;</text>
</a>
</g>
</g>
<!-- Node9&#45;&gt;Node19 -->
<g id="edge24" class="edge">
<title>Node9&#45;&gt;Node19</title>
<path fill="none" stroke="#9a32cd" stroke-dasharray="5,2" d="M923.24,-222.8C936.59,-221.68 951.41,-220.48 965,-219.5 1018.12,-215.65 1077.81,-211.96 1124.79,-209.21"/>
<polygon fill="#9a32cd" stroke="#9a32cd" points="922.57,-219.35 912.9,-223.68 923.16,-226.32 922.57,-219.35"/>
<text text-anchor="middle" x="1036" y="-222.5" font-family="Helvetica,sans-Serif" font-size="10.00"> keys</text>
</g>
<!-- Node24 -->
<g id="node24" class="node">
<title>Node24</title>
<g id="a_node24"><a xlink:title=" ">
<polygon fill="white" stroke="#bfbfbf" points="1125,-101.5 1125,-131.5 1294,-131.5 1294,-101.5 1125,-101.5"/>
<text text-anchor="start" x="1133" y="-119.5" font-family="Helvetica,sans-Serif" font-size="10.00">std::map&lt; DataObjectIdentifier</text>
<text text-anchor="middle" x="1209.5" y="-108.5" font-family="Helvetica,sans-Serif" font-size="10.00">Type, DataObjectPointer &gt;</text>
</a>
</g>
</g>
<!-- Node9&#45;&gt;Node24 -->
<g id="edge35" class="edge">
<title>Node9&#45;&gt;Node24</title>
<path fill="none" stroke="#9a32cd" stroke-dasharray="5,2" d="M891.76,-208.27C905.64,-186.65 931.97,-151.52 965,-135.5 992.42,-122.2 1065.82,-117.84 1124.92,-116.58"/>
<polygon fill="#9a32cd" stroke="#9a32cd" points="888.72,-206.53 886.43,-216.88 894.67,-210.22 888.72,-206.53"/>
<text text-anchor="middle" x="1036" y="-138.5" font-family="Helvetica,sans-Serif" font-size="10.00"> keys</text>
</g>
<!-- Node10 -->
<g id="node10" class="node">
<title>Node10</title>
<g id="a_node10"><a xlink:title="STL class.">
<polygon fill="white" stroke="#bfbfbf" points="493.5,-214.5 493.5,-244.5 597.5,-244.5 597.5,-214.5 493.5,-214.5"/>
<text text-anchor="start" x="501.5" y="-232.5" font-family="Helvetica,sans-Serif" font-size="10.00">std::basic_string&lt;</text>
<text text-anchor="middle" x="545.5" y="-221.5" font-family="Helvetica,sans-Serif" font-size="10.00"> char &gt;</text>
</a>
</g>
</g>
<!-- Node10&#45;&gt;Node9 -->
<g id="edge9" class="edge">
<title>Node10&#45;&gt;Node9</title>
<path fill="none" stroke="midnightblue" d="M607.85,-228.95C678.64,-228.31 792.34,-227.28 847.27,-226.79"/>
<polygon fill="midnightblue" stroke="midnightblue" points="607.69,-225.45 597.72,-229.04 607.76,-232.45 607.69,-225.45"/>
</g>
<!-- Node11 -->
<g id="node11" class="node">
<title>Node11</title>
<g id="a_node11"><a xlink:href="classitk_1_1MetaDataDictionary.html" target="_top" xlink:title="Provides a mechanism for storing a collection of arbitrary data types.">
<polygon fill="white" stroke="black" points="813,-378 813,-397 947,-397 947,-378 813,-378"/>
<text text-anchor="middle" x="880" y="-385" font-family="Helvetica,sans-Serif" font-size="10.00">itk::MetaDataDictionary</text>
</a>
</g>
</g>
<!-- Node11&#45;&gt;Node4 -->
<g id="edge10" class="edge">
<title>Node11&#45;&gt;Node4</title>
<path fill="none" stroke="#9a32cd" stroke-dasharray="5,2" d="M957.35,-387.62C1001.18,-387.24 1057.24,-385.98 1107,-382.5 1130.01,-380.89 1155.83,-377.82 1175.66,-375.19"/>
<polygon fill="#9a32cd" stroke="#9a32cd" points="957.31,-384.12 947.33,-387.7 957.36,-391.12 957.31,-384.12"/>
<text text-anchor="middle" x="1036" y="-391.5" font-family="Helvetica,sans-Serif" font-size="10.00"> m_MetaDataDictionary</text>
</g>
<!-- Node12 -->
<g id="node12" class="node">
<title>Node12</title>
<g id="a_node12"><a xlink:title=" ">
<polygon fill="white" stroke="#bfbfbf" points="471,-310.5 471,-340.5 620,-340.5 620,-310.5 471,-310.5"/>
<text text-anchor="start" x="479" y="-328.5" font-family="Helvetica,sans-Serif" font-size="10.00">std::shared_ptr&lt; MetaData</text>
<text text-anchor="middle" x="545.5" y="-317.5" font-family="Helvetica,sans-Serif" font-size="10.00">DictionaryMapType &gt;</text>
</a>
</g>
</g>
<!-- Node12&#45;&gt;Node11 -->
<g id="edge11" class="edge">
<title>Node12&#45;&gt;Node11</title>
<path fill="none" stroke="#9a32cd" stroke-dasharray="5,2" d="M630.47,-341.16C692.63,-352.75 775.31,-368.16 827.85,-377.96"/>
<polygon fill="#9a32cd" stroke="#9a32cd" points="630.76,-337.65 620.29,-339.26 629.48,-344.53 630.76,-337.65"/>
<text text-anchor="middle" x="721.5" y="-374.5" font-family="Helvetica,sans-Serif" font-size="10.00"> m_Dictionary</text>
</g>
<!-- Node13&#45;&gt;Node12 -->
<g id="edge12" class="edge">
<title>Node13&#45;&gt;Node12</title>
<path fill="none" stroke="#9a32cd" stroke-dasharray="5,2" d="M207.07,-255.9C224.28,-267.94 249.99,-284.03 275,-292.5 310.1,-304.39 403.77,-314.12 470.8,-319.86"/>
<polygon fill="#9a32cd" stroke="#9a32cd" points="209.05,-253.01 198.88,-250.03 204.97,-258.7 209.05,-253.01"/>
<text text-anchor="middle" x="359" y="-320.5" font-family="Helvetica,sans-Serif" font-size="10.00"> ptr</text>
</g>
<!-- Node13&#45;&gt;Node19 -->
<g id="edge25" class="edge">
<title>Node13&#45;&gt;Node19</title>
<path fill="none" stroke="orange" stroke-dasharray="5,2" d="M246.42,-230.63C301.89,-221.98 386.77,-209.95 461,-204.5 701.41,-186.87 986.48,-194.82 1124.84,-200.52"/>
<polygon fill="orange" stroke="orange" points="245.75,-227.2 236.41,-232.21 246.84,-234.11 245.75,-227.2"/>
<text text-anchor="start" x="652" y="-210.5" font-family="Helvetica,sans-Serif" font-size="10.00"> &lt; DataObjectIdentifierType,</text>
<text text-anchor="middle" x="721.5" y="-199.5" font-family="Helvetica,sans-Serif" font-size="10.00"> bool &gt;</text>
</g>
<!-- Node13&#45;&gt;Node24 -->
<g id="edge36" class="edge">
<title>Node13&#45;&gt;Node24</title>
<path fill="none" stroke="orange" stroke-dasharray="5,2" d="M213.98,-226.32C231.1,-218.1 253.82,-208.26 275,-202.5 573.26,-121.4 656.51,-134.87 965,-115.5 1018.06,-112.17 1077.74,-112.35 1124.74,-113.4"/>
<polygon fill="orange" stroke="orange" points="212.03,-223.38 204.6,-230.94 215.12,-229.66 212.03,-223.38"/>
<text text-anchor="start" x="652" y="-147.5" font-family="Helvetica,sans-Serif" font-size="10.00"> &lt; DataObjectIdentifierType,</text>
<text text-anchor="middle" x="721.5" y="-136.5" font-family="Helvetica,sans-Serif" font-size="10.00"> DataObjectPointer &gt;</text>
</g>
<!-- Node14 -->
<g id="node14" class="node">
<title>Node14</title>
<g id="a_node14"><a xlink:title=" ">
<polygon fill="white" stroke="#bfbfbf" points="0,-251 0,-270 29,-270 29,-251 0,-251"/>
<text text-anchor="middle" x="14.5" y="-258" font-family="Helvetica,sans-Serif" font-size="10.00">K</text>
</a>
</g>
</g>
<!-- Node14&#45;&gt;Node13 -->
<g id="edge13" class="edge">
<title>Node14&#45;&gt;Node13</title>
<path fill="none" stroke="#9a32cd" stroke-dasharray="5,2" d="M38.37,-248.31C41.21,-247.18 44.13,-246.2 47,-245.5 75.54,-238.51 108.39,-237.08 134.83,-237.48"/>
<polygon fill="#9a32cd" stroke="#9a32cd" points="36.81,-245.17 29.16,-252.5 39.71,-251.54 36.81,-245.17"/>
<text text-anchor="middle" x="71.5" y="-248.5" font-family="Helvetica,sans-Serif" font-size="10.00"> keys</text>
</g>
<!-- Node18 -->
<g id="node18" class="node">
<title>Node18</title>
<g id="a_node18"><a xlink:title="STL class.">
<polygon fill="white" stroke="#bfbfbf" points="318,-269 318,-288 400,-288 400,-269 318,-269"/>
<text text-anchor="middle" x="359" y="-276" font-family="Helvetica,sans-Serif" font-size="10.00">std::set&lt; K &gt;</text>
</a>
</g>
</g>
<!-- Node14&#45;&gt;Node18 -->
<g id="edge22" class="edge">
<title>Node14&#45;&gt;Node18</title>
<path fill="none" stroke="#9a32cd" stroke-dasharray="5,2" d="M39.38,-261.75C97.31,-264.8 245.82,-272.6 317.76,-276.38"/>
<polygon fill="#9a32cd" stroke="#9a32cd" points="39.52,-258.26 29.35,-261.23 39.15,-265.25 39.52,-258.26"/>
<text text-anchor="middle" x="71.5" y="-268.5" font-family="Helvetica,sans-Serif" font-size="10.00"> keys</text>
</g>
<!-- Node15&#45;&gt;Node12 -->
<g id="edge15" class="edge">
<title>Node15&#45;&gt;Node12</title>
<path fill="none" stroke="orange" stroke-dasharray="5,2" d="M254.85,-348.15C316.62,-343.32 407.3,-336.23 470.69,-331.27"/>
<polygon fill="orange" stroke="orange" points="254.51,-344.67 244.82,-348.94 255.06,-351.65 254.51,-344.67"/>
<text text-anchor="middle" x="359" y="-349.5" font-family="Helvetica,sans-Serif" font-size="10.00"> &lt; MetaDataDictionaryMapType &gt;</text>
</g>
<!-- Node16&#45;&gt;Node3 -->
<g id="edge39" class="edge">
<title>Node16&#45;&gt;Node3</title>
<path fill="none" stroke="#9a32cd" stroke-dasharray="5,2" d="M910.11,-335.89C925.98,-329.12 946.17,-321.54 965,-317.5 1177.86,-271.77 1237.26,-309.04 1454,-288.5 1459.77,-287.95 1465.81,-287.29 1471.8,-286.59"/>
<polygon fill="#9a32cd" stroke="#9a32cd" points="908.59,-332.74 900.84,-339.96 911.41,-339.15 908.59,-332.74"/>
<text text-anchor="middle" x="1209.5" y="-298.5" font-family="Helvetica,sans-Serif" font-size="10.00"> m_OutputInformationMTime</text>
</g>
<!-- Node16&#45;&gt;Node4 -->
<g id="edge17" class="edge">
<title>Node16&#45;&gt;Node4</title>
<path fill="none" stroke="#9a32cd" stroke-dasharray="5,2" d="M936.38,-353.05C1004.97,-357.45 1119.61,-364.8 1175.64,-368.39"/>
<polygon fill="#9a32cd" stroke="#9a32cd" points="936.4,-349.55 926.19,-352.4 935.95,-356.53 936.4,-349.55"/>
<text text-anchor="middle" x="1036" y="-367.5" font-family="Helvetica,sans-Serif" font-size="10.00"> m_MTime</text>
</g>
<!-- Node17&#45;&gt;Node3 -->
<g id="edge19" class="edge">
<title>Node17&#45;&gt;Node3</title>
<path fill="none" stroke="#9a32cd" stroke-dasharray="5,2" d="M1300.76,-261.01C1356.22,-265.62 1425.26,-271.37 1471.55,-275.22"/>
<polygon fill="#9a32cd" stroke="#9a32cd" points="1300.83,-257.5 1290.57,-260.16 1300.25,-264.48 1300.83,-257.5"/>
<text text-anchor="middle" x="1383" y="-276.5" font-family="Helvetica,sans-Serif" font-size="10.00"> m_RequiredInputNames</text>
</g>
<!-- Node18&#45;&gt;Node17 -->
<g id="edge21" class="edge">
<title>Node18&#45;&gt;Node17</title>
<path fill="none" stroke="orange" stroke-dasharray="5,2" d="M410.12,-278.07C530.38,-276.86 844.78,-272.7 1107,-260.5 1113.97,-260.18 1121.2,-259.79 1128.46,-259.36"/>
<polygon fill="orange" stroke="orange" points="410.07,-274.57 400.11,-278.16 410.14,-281.57 410.07,-274.57"/>
<text text-anchor="middle" x="721.5" y="-278.5" font-family="Helvetica,sans-Serif" font-size="10.00"> &lt; DataObjectIdentifierType &gt;</text>
</g>
<!-- Node19&#45;&gt;Node3 -->
<g id="edge23" class="edge">
<title>Node19&#45;&gt;Node3</title>
<path fill="none" stroke="#9a32cd" stroke-dasharray="5,2" d="M1304.21,-213.21C1360.73,-219.24 1426.88,-227.88 1454,-237.5 1475.41,-245.09 1497.36,-259.89 1510.58,-269.74"/>
<polygon fill="#9a32cd" stroke="#9a32cd" points="1304.45,-209.72 1294.14,-212.15 1303.72,-216.68 1304.45,-209.72"/>
<text text-anchor="start" x="1312" y="-251.5" font-family="Helvetica,sans-Serif" font-size="10.00"> m_CachedInputReleaseData</text>
<text text-anchor="middle" x="1383" y="-240.5" font-family="Helvetica,sans-Serif" font-size="10.00">Flags</text>
</g>
<!-- Node20&#45;&gt;Node3 -->
<g id="edge26" class="edge">
<title>Node20&#45;&gt;Node3</title>
<path fill="none" stroke="#9a32cd" stroke-dasharray="5,2" d="M799.08,-454.67C842.51,-452.26 897.84,-448.8 947,-444.5 1175.14,-424.57 1255.3,-466.37 1454,-352.5 1482.29,-336.28 1506.07,-304.81 1516.83,-289.02"/>
<polygon fill="#9a32cd" stroke="#9a32cd" points="798.67,-451.19 788.87,-455.23 799.05,-458.18 798.67,-451.19"/>
<text text-anchor="middle" x="1036" y="-446.5" font-family="Helvetica,sans-Serif" font-size="10.00"> m_Progress</text>
</g>
<!-- Node21 -->
<g id="node21" class="node">
<title>Node21</title>
<g id="a_node21"><a xlink:title=" ">
<polygon fill="white" stroke="#bfbfbf" points="461,-486.5 461,-516.5 630,-516.5 630,-486.5 461,-486.5"/>
<text text-anchor="start" x="469" y="-504.5" font-family="Helvetica,sans-Serif" font-size="10.00">std::vector&lt; DataObjectPointer</text>
<text text-anchor="middle" x="545.5" y="-493.5" font-family="Helvetica,sans-Serif" font-size="10.00">Map::iterator &gt;</text>
</a>
</g>
</g>
<!-- Node21&#45;&gt;Node3 -->
<g id="edge28" class="edge">
<title>Node21&#45;&gt;Node3</title>
<path fill="none" stroke="#9a32cd" stroke-dasharray="5,2" d="M640.16,-500.21C782.48,-496.9 1061.27,-485.15 1294,-443.5 1366.71,-430.49 1395.63,-443.78 1454,-398.5 1492.12,-368.93 1513.04,-311.93 1520.17,-289.2"/>
<polygon fill="#9a32cd" stroke="#9a32cd" points="640.07,-496.71 630.15,-500.43 640.22,-503.7 640.07,-496.71"/>
<text text-anchor="middle" x="1036" y="-497.5" font-family="Helvetica,sans-Serif" font-size="10.00"> m_IndexedOutputs</text>
<text text-anchor="middle" x="1036" y="-486.5" font-family="Helvetica,sans-Serif" font-size="10.00">m_IndexedInputs</text>
</g>
<!-- Node22 -->
<g id="node22" class="node">
<title>Node22</title>
<g id="a_node22"><a xlink:title="STL iterator class.">
<polygon fill="white" stroke="#bfbfbf" points="114,-524 114,-543 257,-543 257,-524 114,-524"/>
<text text-anchor="middle" x="185.5" y="-531" font-family="Helvetica,sans-Serif" font-size="10.00">std::map&lt; K, T &gt;::iterator</text>
</a>
</g>
</g>
<!-- Node22&#45;&gt;Node21 -->
<g id="edge29" class="edge">
<title>Node22&#45;&gt;Node21</title>
<path fill="none" stroke="#9a32cd" stroke-dasharray="5,2" d="M267.22,-526.84C317.75,-522.61 384.19,-516.92 443,-511.5 448.82,-510.96 454.82,-510.4 460.87,-509.82"/>
<polygon fill="#9a32cd" stroke="#9a32cd" points="266.69,-523.37 257.01,-527.69 267.27,-530.35 266.69,-523.37"/>
<text text-anchor="middle" x="359" y="-529.5" font-family="Helvetica,sans-Serif" font-size="10.00"> elements</text>
</g>
<!-- Node23&#45;&gt;Node21 -->
<g id="edge30" class="edge">
<title>Node23&#45;&gt;Node21</title>
<path fill="none" stroke="orange" stroke-dasharray="5,2" d="M244.35,-477.61C296.39,-479.76 374.89,-483.62 443,-489.5 448.83,-490 454.85,-490.58 460.91,-491.19"/>
<polygon fill="orange" stroke="orange" points="244.44,-474.11 234.31,-477.21 244.16,-481.11 244.44,-474.11"/>
<text text-anchor="start" x="296.5" y="-503.5" font-family="Helvetica,sans-Serif" font-size="10.00"> &lt; DataObjectPointerMap</text>
<text text-anchor="middle" x="359" y="-492.5" font-family="Helvetica,sans-Serif" font-size="10.00">::iterator &gt;</text>
</g>
<!-- Node24&#45;&gt;Node3 -->
<g id="edge32" class="edge">
<title>Node24&#45;&gt;Node3</title>
<path fill="none" stroke="#9a32cd" stroke-dasharray="5,2" d="M1243.7,-136.57C1262.99,-147.36 1288.14,-159.96 1312,-167.5 1372.83,-186.73 1399.1,-156 1454,-188.5 1487.27,-208.19 1509.89,-250.68 1518.78,-269.82"/>
<polygon fill="#9a32cd" stroke="#9a32cd" points="1245.42,-133.53 1235,-131.61 1241.95,-139.61 1245.42,-133.53"/>
<text text-anchor="middle" x="1383" y="-202.5" font-family="Helvetica,sans-Serif" font-size="10.00"> m_Outputs</text>
<text text-anchor="middle" x="1383" y="-191.5" font-family="Helvetica,sans-Serif" font-size="10.00">m_Inputs</text>
</g>
<!-- Node25 -->
<g id="node25" class="node">
<title>Node25</title>
<g id="a_node25"><a xlink:href="classitk_1_1SmartPointer.html" target="_top" xlink:title=" ">
<polygon fill="white" stroke="black" points="826.5,-42.5 826.5,-72.5 933.5,-72.5 933.5,-42.5 826.5,-42.5"/>
<text text-anchor="start" x="834.5" y="-60.5" font-family="Helvetica,sans-Serif" font-size="10.00">itk::SmartPointer&lt;</text>
<text text-anchor="middle" x="880" y="-49.5" font-family="Helvetica,sans-Serif" font-size="10.00"> Self &gt;</text>
</a>
</g>
</g>
<!-- Node25&#45;&gt;Node24 -->
<g id="edge33" class="edge">
<title>Node25&#45;&gt;Node24</title>
<path fill="none" stroke="#9a32cd" stroke-dasharray="5,2" d="M943.93,-55.76C990.03,-56.17 1053.6,-60.24 1107,-76.5 1115.76,-79.17 1116.67,-82.72 1125,-86.5 1136.92,-91.91 1150.13,-97.04 1162.46,-101.47"/>
<polygon fill="#9a32cd" stroke="#9a32cd" points="943.8,-52.26 933.78,-55.73 943.77,-59.26 943.8,-52.26"/>
<text text-anchor="middle" x="1036" y="-79.5" font-family="Helvetica,sans-Serif" font-size="10.00"> elements</text>
</g>
<!-- Node26 -->
<g id="node26" class="node">
<title>Node26</title>
<g id="a_node26"><a xlink:href="classitk_1_1SmartPointer.html" target="_top" xlink:title="Implements transparent reference counting.">
<polygon fill="white" stroke="black" points="492,-18.5 492,-48.5 599,-48.5 599,-18.5 492,-18.5"/>
<text text-anchor="start" x="500" y="-36.5" font-family="Helvetica,sans-Serif" font-size="10.00">itk::SmartPointer&lt;</text>
<text text-anchor="middle" x="545.5" y="-25.5" font-family="Helvetica,sans-Serif" font-size="10.00"> TObjectType &gt;</text>
</a>
</g>
</g>
<!-- Node26&#45;&gt;Node25 -->
<g id="edge34" class="edge">
<title>Node26&#45;&gt;Node25</title>
<path fill="none" stroke="orange" stroke-dasharray="5,2" d="M609.35,-38.04C672.08,-42.56 767.39,-49.44 826.29,-53.7"/>
<polygon fill="orange" stroke="orange" points="609.41,-34.53 599.19,-37.3 608.91,-41.51 609.41,-34.53"/>
<text text-anchor="middle" x="721.5" y="-54.5" font-family="Helvetica,sans-Serif" font-size="10.00"> &lt; Self &gt;</text>
</g>
<!-- Node27 -->
<g id="node27" class="node">
<title>Node27</title>
<g id="a_node27"><a xlink:href="classitk_1_1SmartPointer.html" target="_top" xlink:title=" ">
<polygon fill="white" stroke="black" points="965,-0.5 965,-30.5 1107,-30.5 1107,-0.5 965,-0.5"/>
<text text-anchor="start" x="973" y="-18.5" font-family="Helvetica,sans-Serif" font-size="10.00">itk::SmartPointer&lt;</text>
<text text-anchor="middle" x="1036" y="-7.5" font-family="Helvetica,sans-Serif" font-size="10.00"> itk::MultiThreaderBase &gt;</text>
</a>
</g>
</g>
<!-- Node26&#45;&gt;Node27 -->
<g id="edge38" class="edge">
<title>Node26&#45;&gt;Node27</title>
<path fill="none" stroke="orange" stroke-dasharray="5,2" d="M609.28,-28.77C622.08,-27.92 635.47,-27.11 648,-26.5 758.61,-21.12 887.13,-18.11 964.7,-16.64"/>
<polygon fill="orange" stroke="orange" points="608.9,-25.29 599.16,-29.46 609.37,-32.27 608.9,-25.29"/>
<text text-anchor="middle" x="721.5" y="-29.5" font-family="Helvetica,sans-Serif" font-size="10.00"> &lt; itk::MultiThreaderBase &gt;</text>
</g>
<!-- Node27&#45;&gt;Node3 -->
<g id="edge37" class="edge">
<title>Node27&#45;&gt;Node3</title>
<path fill="none" stroke="#9a32cd" stroke-dasharray="5,2" d="M1117.27,-26.13C1209.37,-42.24 1359.79,-81.06 1454,-170.5 1486.16,-201.03 1509.85,-249.54 1518.93,-269.95"/>
<polygon fill="#9a32cd" stroke="#9a32cd" points="1117.61,-22.64 1107.16,-24.41 1116.43,-29.54 1117.61,-22.64"/>
<text text-anchor="middle" x="1209.5" y="-77.5" font-family="Helvetica,sans-Serif" font-size="10.00"> m_MultiThreader</text>
</g>
</g>
</svg>
