<?xml version="1.0" encoding="UTF-8" standalone="no"?>
<!DOCTYPE svg PUBLIC "-//W3C//DTD SVG 1.1//EN"
 "http://www.w3.org/Graphics/SVG/1.1/DTD/svg11.dtd">
<!-- Generated by graphviz version 2.43.0 (0)
 -->
<!-- Title: itk::SymmetricEllipsoidInteriorExteriorSpatialFunction&lt; VDimension, TInput &gt; Pages: 1 -->
<svg width="2987pt" height="348pt"
 viewBox="0.00 0.00 2987.00 348.05" xmlns="http://www.w3.org/2000/svg" xmlns:xlink="http://www.w3.org/1999/xlink">
<g id="graph0" class="graph" transform="scale(1 1) rotate(0) translate(4 344.05)">
<title>itk::SymmetricEllipsoidInteriorExteriorSpatialFunction&lt; VDimension, TInput &gt;</title>
<polygon fill="white" stroke="transparent" points="-4,4 -4,-344.05 2983,-344.05 2983,4 -4,4"/>
<!-- Node1 -->
<g id="node1" class="node">
<title>Node1</title>
<g id="a_node1"><a xlink:title="Function implementation of an ellipsoid.">
<polygon fill="#bfbfbf" stroke="black" points="2776,-111.55 2776,-152.55 2979,-152.55 2979,-111.55 2776,-111.55"/>
<text text-anchor="start" x="2784" y="-140.55" font-family="Helvetica,sans-Serif" font-size="10.00">itk::SymmetricEllipsoidInterior</text>
<text text-anchor="start" x="2784" y="-129.55" font-family="Helvetica,sans-Serif" font-size="10.00">ExteriorSpatialFunction&lt; VDimension,</text>
<text text-anchor="middle" x="2877.5" y="-118.55" font-family="Helvetica,sans-Serif" font-size="10.00"> TInput &gt;</text>
</a>
</g>
</g>
<!-- Node2 -->
<g id="node2" class="node">
<title>Node2</title>
<g id="a_node2"><a xlink:href="classitk_1_1InteriorExteriorSpatialFunction.html" target="_top" xlink:title=" ">
<polygon fill="white" stroke="black" points="2482,-145.05 2482,-175.05 2667,-175.05 2667,-145.05 2482,-145.05"/>
<text text-anchor="start" x="2490" y="-163.05" font-family="Helvetica,sans-Serif" font-size="10.00">itk::InteriorExteriorSpatial</text>
<text text-anchor="middle" x="2574.5" y="-152.05" font-family="Helvetica,sans-Serif" font-size="10.00">Function&lt; 3, Point&lt; double, 3 &gt; &gt;</text>
</a>
</g>
</g>
<!-- Node2&#45;&gt;Node1 -->
<g id="edge1" class="edge">
<title>Node2&#45;&gt;Node1</title>
<path fill="none" stroke="midnightblue" d="M2677.25,-150.58C2709.09,-147.62 2744.2,-144.36 2775.96,-141.4"/>
<polygon fill="midnightblue" stroke="midnightblue" points="2676.67,-147.12 2667.04,-151.53 2677.32,-154.09 2676.67,-147.12"/>
</g>
<!-- Node3 -->
<g id="node3" class="node">
<title>Node3</title>
<g id="a_node3"><a xlink:href="classitk_1_1SpatialFunction.html" target="_top" xlink:title=" ">
<polygon fill="white" stroke="black" points="1974,-199.55 1974,-240.55 2119,-240.55 2119,-199.55 1974,-199.55"/>
<text text-anchor="start" x="1982" y="-228.55" font-family="Helvetica,sans-Serif" font-size="10.00">itk::SpatialFunction</text>
<text text-anchor="start" x="1982" y="-217.55" font-family="Helvetica,sans-Serif" font-size="10.00">&lt; bool, VDimension, Point</text>
<text text-anchor="middle" x="2046.5" y="-206.55" font-family="Helvetica,sans-Serif" font-size="10.00">&lt; double, 3 &gt; &gt;</text>
</a>
</g>
</g>
<!-- Node3&#45;&gt;Node2 -->
<g id="edge2" class="edge">
<title>Node3&#45;&gt;Node2</title>
<path fill="none" stroke="midnightblue" d="M2129.03,-217.05C2213.31,-213.1 2348.5,-204.37 2464,-186.05 2481.56,-183.26 2500.47,-179.17 2517.56,-175.06"/>
<polygon fill="midnightblue" stroke="midnightblue" points="2128.84,-213.56 2119.01,-217.51 2129.16,-220.55 2128.84,-213.56"/>
</g>
<!-- Node4 -->
<g id="node4" class="node">
<title>Node4</title>
<g id="a_node4"><a xlink:href="classitk_1_1FunctionBase.html" target="_top" xlink:title=" ">
<polygon fill="white" stroke="black" points="1483,-242.55 1483,-283.55 1598,-283.55 1598,-242.55 1483,-242.55"/>
<text text-anchor="start" x="1491" y="-271.55" font-family="Helvetica,sans-Serif" font-size="10.00">itk::FunctionBase&lt;</text>
<text text-anchor="start" x="1491" y="-260.55" font-family="Helvetica,sans-Serif" font-size="10.00"> Point&lt; double, 3 &gt;,</text>
<text text-anchor="middle" x="1540.5" y="-249.55" font-family="Helvetica,sans-Serif" font-size="10.00"> bool &gt;</text>
</a>
</g>
</g>
<!-- Node4&#45;&gt;Node3 -->
<g id="edge3" class="edge">
<title>Node4&#45;&gt;Node3</title>
<path fill="none" stroke="midnightblue" d="M1608.28,-267.3C1690.75,-271.14 1834.95,-273.23 1956,-251.05 1968.78,-248.71 1982.19,-244.86 1994.63,-240.66"/>
<polygon fill="midnightblue" stroke="midnightblue" points="1608.21,-263.79 1598.05,-266.8 1607.87,-270.78 1608.21,-263.79"/>
</g>
<!-- Node22 -->
<g id="node22" class="node">
<title>Node22</title>
<g id="a_node22"><a xlink:href="classitk_1_1SpatialFunction.html" target="_top" xlink:title=" ">
<polygon fill="white" stroke="black" points="1977,-139.55 1977,-180.55 2116,-180.55 2116,-139.55 1977,-139.55"/>
<text text-anchor="start" x="1985" y="-168.55" font-family="Helvetica,sans-Serif" font-size="10.00">itk::SpatialFunction</text>
<text text-anchor="start" x="1985" y="-157.55" font-family="Helvetica,sans-Serif" font-size="10.00">&lt; bool, 3, Point&lt; double,</text>
<text text-anchor="middle" x="2046.5" y="-146.55" font-family="Helvetica,sans-Serif" font-size="10.00"> 3 &gt; &gt;</text>
</a>
</g>
</g>
<!-- Node4&#45;&gt;Node22 -->
<g id="edge28" class="edge">
<title>Node4&#45;&gt;Node22</title>
<path fill="none" stroke="midnightblue" d="M1608.33,-260.02C1718.2,-254.52 1927.7,-241.74 1956,-223.05 1969.94,-213.84 1961.6,-201.25 1974,-190.05 1977.9,-186.53 1982.27,-183.39 1986.87,-180.59"/>
<polygon fill="midnightblue" stroke="midnightblue" points="1608.15,-256.52 1598.34,-260.51 1608.5,-263.51 1608.15,-256.52"/>
</g>
<!-- Node5 -->
<g id="node5" class="node">
<title>Node5</title>
<g id="a_node5"><a xlink:href="classitk_1_1Object.html" target="_top" xlink:title="Base class for most ITK classes.">
<polygon fill="white" stroke="black" points="1005,-221.55 1005,-240.55 1072,-240.55 1072,-221.55 1005,-221.55"/>
<text text-anchor="middle" x="1038.5" y="-228.55" font-family="Helvetica,sans-Serif" font-size="10.00">itk::Object</text>
</a>
</g>
</g>
<!-- Node5&#45;&gt;Node4 -->
<g id="edge4" class="edge">
<title>Node5&#45;&gt;Node4</title>
<path fill="none" stroke="midnightblue" d="M1071.28,-244.26C1082.96,-248.64 1096.41,-253.13 1109,-256.05 1240.08,-286.4 1399.66,-277.53 1482.86,-269.59"/>
<polygon fill="midnightblue" stroke="midnightblue" points="1072.53,-240.99 1061.94,-240.65 1070.01,-247.52 1072.53,-240.99"/>
</g>
<!-- Node18 -->
<g id="node18" class="node">
<title>Node18</title>
<g id="a_node18"><a xlink:href="classitk_1_1FunctionBase.html" target="_top" xlink:title="Base class for all ITK function objects.">
<polygon fill="white" stroke="black" points="1109,-216.05 1109,-246.05 1218,-246.05 1218,-216.05 1109,-216.05"/>
<text text-anchor="start" x="1117" y="-234.05" font-family="Helvetica,sans-Serif" font-size="10.00">itk::FunctionBase&lt;</text>
<text text-anchor="middle" x="1163.5" y="-223.05" font-family="Helvetica,sans-Serif" font-size="10.00"> TInput, TOutput &gt;</text>
</a>
</g>
</g>
<!-- Node5&#45;&gt;Node18 -->
<g id="edge21" class="edge">
<title>Node5&#45;&gt;Node18</title>
<path fill="none" stroke="midnightblue" d="M1082.26,-231.05C1090.81,-231.05 1099.9,-231.05 1108.77,-231.05"/>
<polygon fill="midnightblue" stroke="midnightblue" points="1082.14,-227.55 1072.14,-231.05 1082.14,-234.55 1082.14,-227.55"/>
</g>
<!-- Node20 -->
<g id="node20" class="node">
<title>Node20</title>
<g id="a_node20"><a xlink:href="classitk_1_1FunctionBase.html" target="_top" xlink:title=" ">
<polygon fill="white" stroke="black" points="1350,-167.55 1350,-208.55 1465,-208.55 1465,-167.55 1350,-167.55"/>
<text text-anchor="start" x="1358" y="-196.55" font-family="Helvetica,sans-Serif" font-size="10.00">itk::FunctionBase&lt;</text>
<text text-anchor="start" x="1358" y="-185.55" font-family="Helvetica,sans-Serif" font-size="10.00"> Point&lt; double, 3 &gt;,</text>
<text text-anchor="middle" x="1407.5" y="-174.55" font-family="Helvetica,sans-Serif" font-size="10.00"> TOutput &gt;</text>
</a>
</g>
</g>
<!-- Node5&#45;&gt;Node20 -->
<g id="edge24" class="edge">
<title>Node5&#45;&gt;Node20</title>
<path fill="none" stroke="midnightblue" d="M1073.08,-218C1084.36,-214.01 1097.1,-209.92 1109,-207.05 1191.13,-187.24 1289.5,-184.97 1349.99,-185.92"/>
<polygon fill="midnightblue" stroke="midnightblue" points="1071.81,-214.74 1063.61,-221.45 1074.2,-221.32 1071.81,-214.74"/>
</g>
<!-- Node6 -->
<g id="node6" class="node">
<title>Node6</title>
<g id="a_node6"><a xlink:href="classitk_1_1LightObject.html" target="_top" xlink:title="Light weight base class for most itk classes.">
<polygon fill="white" stroke="black" points="739.5,-248.55 739.5,-267.55 830.5,-267.55 830.5,-248.55 739.5,-248.55"/>
<text text-anchor="middle" x="785" y="-255.55" font-family="Helvetica,sans-Serif" font-size="10.00">itk::LightObject</text>
</a>
</g>
</g>
<!-- Node6&#45;&gt;Node5 -->
<g id="edge5" class="edge">
<title>Node6&#45;&gt;Node5</title>
<path fill="none" stroke="midnightblue" d="M840.69,-252.18C890.77,-246.8 963.25,-239.02 1004.84,-234.56"/>
<polygon fill="midnightblue" stroke="midnightblue" points="840.24,-248.71 830.67,-253.25 840.99,-255.67 840.24,-248.71"/>
</g>
<!-- Node7 -->
<g id="node7" class="node">
<title>Node7</title>
<g id="a_node7"><a xlink:title=" ">
<polygon fill="white" stroke="#bfbfbf" points="457,-247.55 457,-266.55 564,-266.55 564,-247.55 457,-247.55"/>
<text text-anchor="middle" x="510.5" y="-254.55" font-family="Helvetica,sans-Serif" font-size="10.00">std::atomic&lt; int &gt;</text>
</a>
</g>
</g>
<!-- Node7&#45;&gt;Node6 -->
<g id="edge6" class="edge">
<title>Node7&#45;&gt;Node6</title>
<path fill="none" stroke="#9a32cd" stroke-dasharray="5,2" d="M574.18,-257.28C624.64,-257.47 694.33,-257.72 739.29,-257.89"/>
<polygon fill="#9a32cd" stroke="#9a32cd" points="574.05,-253.78 564.04,-257.24 574.03,-260.78 574.05,-253.78"/>
<text text-anchor="middle" x="651.5" y="-260.05" font-family="Helvetica,sans-Serif" font-size="10.00"> m_ReferenceCount</text>
</g>
<!-- Node8 -->
<g id="node8" class="node">
<title>Node8</title>
<g id="a_node8"><a xlink:title="STL class.">
<polygon fill="white" stroke="#bfbfbf" points="123,-244.55 123,-263.55 223,-263.55 223,-244.55 123,-244.55"/>
<text text-anchor="middle" x="173" y="-251.55" font-family="Helvetica,sans-Serif" font-size="10.00">std::atomic&lt; T &gt;</text>
</a>
</g>
</g>
<!-- Node8&#45;&gt;Node7 -->
<g id="edge7" class="edge">
<title>Node8&#45;&gt;Node7</title>
<path fill="none" stroke="orange" stroke-dasharray="5,2" d="M233.38,-254.58C296.77,-255.15 396.25,-256.04 456.9,-256.58"/>
<polygon fill="orange" stroke="orange" points="233.17,-251.08 223.14,-254.49 233.11,-258.08 233.17,-251.08"/>
<text text-anchor="middle" x="334" y="-259.05" font-family="Helvetica,sans-Serif" font-size="10.00"> &lt; int &gt;</text>
</g>
<!-- Node17 -->
<g id="node17" class="node">
<title>Node17</title>
<g id="a_node17"><a xlink:href="classitk_1_1TimeStamp.html" target="_top" xlink:title="Generate a unique, increasing time value.">
<polygon fill="white" stroke="black" points="605.5,-209.55 605.5,-228.55 697.5,-228.55 697.5,-209.55 605.5,-209.55"/>
<text text-anchor="middle" x="651.5" y="-216.55" font-family="Helvetica,sans-Serif" font-size="10.00">itk::TimeStamp</text>
</a>
</g>
</g>
<!-- Node8&#45;&gt;Node17 -->
<g id="edge19" class="edge">
<title>Node8&#45;&gt;Node17</title>
<path fill="none" stroke="#9a32cd" stroke-dasharray="5,2" d="M226.31,-242.69C234.22,-241.28 242.3,-240 250,-239.05 378.18,-223.29 530.88,-219.87 605.27,-219.18"/>
<polygon fill="#9a32cd" stroke="#9a32cd" points="225.62,-239.26 216.43,-244.55 226.91,-246.14 225.62,-239.26"/>
<text text-anchor="middle" x="334" y="-242.05" font-family="Helvetica,sans-Serif" font-size="10.00"> m_GlobalTimeStamp</text>
</g>
<!-- Node9 -->
<g id="node9" class="node">
<title>Node9</title>
<g id="a_node9"><a xlink:title=" ">
<polygon fill="white" stroke="#bfbfbf" points="0,-283.55 0,-302.55 29,-302.55 29,-283.55 0,-283.55"/>
<text text-anchor="middle" x="14.5" y="-290.55" font-family="Helvetica,sans-Serif" font-size="10.00">T</text>
</a>
</g>
</g>
<!-- Node9&#45;&gt;Node8 -->
<g id="edge8" class="edge">
<title>Node9&#45;&gt;Node8</title>
<path fill="none" stroke="#9a32cd" stroke-dasharray="5,2" d="M38.44,-280.45C41.27,-279.18 44.17,-278.01 47,-277.05 71.35,-268.82 99.43,-263.32 122.79,-259.76"/>
<polygon fill="#9a32cd" stroke="#9a32cd" points="36.66,-277.43 29.24,-284.99 39.75,-283.71 36.66,-277.43"/>
<text text-anchor="middle" x="71.5" y="-280.05" font-family="Helvetica,sans-Serif" font-size="10.00"> ptr</text>
</g>
<!-- Node14 -->
<g id="node14" class="node">
<title>Node14</title>
<g id="a_node14"><a xlink:title="STL class.">
<polygon fill="white" stroke="#bfbfbf" points="122.5,-282.55 122.5,-301.55 223.5,-301.55 223.5,-282.55 122.5,-282.55"/>
<text text-anchor="middle" x="173" y="-289.55" font-family="Helvetica,sans-Serif" font-size="10.00">std::map&lt; K, T &gt;</text>
</a>
</g>
</g>
<!-- Node9&#45;&gt;Node14 -->
<g id="edge15" class="edge">
<title>Node9&#45;&gt;Node14</title>
<path fill="none" stroke="#9a32cd" stroke-dasharray="5,2" d="M39.19,-292.9C61.16,-292.76 94.54,-292.54 122.35,-292.37"/>
<polygon fill="#9a32cd" stroke="#9a32cd" points="39.09,-289.4 29.11,-292.96 39.14,-296.4 39.09,-289.4"/>
<text text-anchor="middle" x="71.5" y="-295.05" font-family="Helvetica,sans-Serif" font-size="10.00"> elements</text>
</g>
<!-- Node16 -->
<g id="node16" class="node">
<title>Node16</title>
<g id="a_node16"><a xlink:title="STL class.">
<polygon fill="white" stroke="#bfbfbf" points="114,-320.55 114,-339.55 232,-339.55 232,-320.55 114,-320.55"/>
<text text-anchor="middle" x="173" y="-327.55" font-family="Helvetica,sans-Serif" font-size="10.00">std::shared_ptr&lt; T &gt;</text>
</a>
</g>
</g>
<!-- Node9&#45;&gt;Node16 -->
<g id="edge17" class="edge">
<title>Node9&#45;&gt;Node16</title>
<path fill="none" stroke="#9a32cd" stroke-dasharray="5,2" d="M38.37,-303.96C41.23,-305.11 44.16,-306.17 47,-307.05 68.4,-313.67 92.48,-318.66 113.75,-322.26"/>
<polygon fill="#9a32cd" stroke="#9a32cd" points="39.6,-300.68 29.03,-299.91 36.81,-307.1 39.6,-300.68"/>
<text text-anchor="middle" x="71.5" y="-321.05" font-family="Helvetica,sans-Serif" font-size="10.00"> ptr</text>
</g>
<!-- Node10 -->
<g id="node10" class="node">
<title>Node10</title>
<g id="a_node10"><a xlink:title="STL class.">
<polygon fill="white" stroke="#bfbfbf" points="752.5,-163.55 752.5,-182.55 817.5,-182.55 817.5,-163.55 752.5,-163.55"/>
<text text-anchor="middle" x="785" y="-170.55" font-family="Helvetica,sans-Serif" font-size="10.00">std::string</text>
</a>
</g>
</g>
<!-- Node10&#45;&gt;Node5 -->
<g id="edge9" class="edge">
<title>Node10&#45;&gt;Node5</title>
<path fill="none" stroke="#9a32cd" stroke-dasharray="5,2" d="M827.91,-171.17C869.63,-170.71 934.79,-173.91 987,-194.05 1002.82,-200.15 1018.11,-212.56 1027.64,-221.32"/>
<polygon fill="#9a32cd" stroke="#9a32cd" points="827.76,-167.67 817.83,-171.35 827.89,-174.67 827.76,-167.67"/>
<text text-anchor="middle" x="928.5" y="-197.05" font-family="Helvetica,sans-Serif" font-size="10.00"> m_ObjectName</text>
</g>
<!-- Node11 -->
<g id="node11" class="node">
<title>Node11</title>
<g id="a_node11"><a xlink:title="STL class.">
<polygon fill="white" stroke="#bfbfbf" points="458.5,-158.05 458.5,-188.05 562.5,-188.05 562.5,-158.05 458.5,-158.05"/>
<text text-anchor="start" x="466.5" y="-176.05" font-family="Helvetica,sans-Serif" font-size="10.00">std::basic_string&lt;</text>
<text text-anchor="middle" x="510.5" y="-165.05" font-family="Helvetica,sans-Serif" font-size="10.00"> char &gt;</text>
</a>
</g>
</g>
<!-- Node11&#45;&gt;Node10 -->
<g id="edge10" class="edge">
<title>Node11&#45;&gt;Node10</title>
<path fill="none" stroke="midnightblue" d="M572.85,-173.05C628.49,-173.05 708.3,-173.05 752.14,-173.05"/>
<polygon fill="midnightblue" stroke="midnightblue" points="572.76,-169.55 562.76,-173.05 572.76,-176.55 572.76,-169.55"/>
</g>
<!-- Node12 -->
<g id="node12" class="node">
<title>Node12</title>
<g id="a_node12"><a xlink:href="classitk_1_1MetaDataDictionary.html" target="_top" xlink:title="Provides a mechanism for storing a collection of arbitrary data types.">
<polygon fill="white" stroke="black" points="718,-288.55 718,-307.55 852,-307.55 852,-288.55 718,-288.55"/>
<text text-anchor="middle" x="785" y="-295.55" font-family="Helvetica,sans-Serif" font-size="10.00">itk::MetaDataDictionary</text>
</a>
</g>
</g>
<!-- Node12&#45;&gt;Node5 -->
<g id="edge11" class="edge">
<title>Node12&#45;&gt;Node5</title>
<path fill="none" stroke="#9a32cd" stroke-dasharray="5,2" d="M862.31,-286.8C900.39,-280.02 946.79,-269.95 987,-256.05 998.65,-252.02 1011.07,-245.9 1020.67,-240.73"/>
<polygon fill="#9a32cd" stroke="#9a32cd" points="861.56,-283.38 852.31,-288.55 862.76,-290.28 861.56,-283.38"/>
<text text-anchor="middle" x="928.5" y="-287.05" font-family="Helvetica,sans-Serif" font-size="10.00"> m_MetaDataDictionary</text>
</g>
<!-- Node13 -->
<g id="node13" class="node">
<title>Node13</title>
<g id="a_node13"><a xlink:title=" ">
<polygon fill="white" stroke="#bfbfbf" points="436,-286.05 436,-316.05 585,-316.05 585,-286.05 436,-286.05"/>
<text text-anchor="start" x="444" y="-304.05" font-family="Helvetica,sans-Serif" font-size="10.00">std::shared_ptr&lt; MetaData</text>
<text text-anchor="middle" x="510.5" y="-293.05" font-family="Helvetica,sans-Serif" font-size="10.00">DictionaryMapType &gt;</text>
</a>
</g>
</g>
<!-- Node13&#45;&gt;Node12 -->
<g id="edge12" class="edge">
<title>Node13&#45;&gt;Node12</title>
<path fill="none" stroke="#9a32cd" stroke-dasharray="5,2" d="M595.34,-300.13C634.65,-299.69 680.82,-299.19 717.65,-298.78"/>
<polygon fill="#9a32cd" stroke="#9a32cd" points="595.2,-296.63 585.24,-300.24 595.28,-303.63 595.2,-296.63"/>
<text text-anchor="middle" x="651.5" y="-302.05" font-family="Helvetica,sans-Serif" font-size="10.00"> m_Dictionary</text>
</g>
<!-- Node14&#45;&gt;Node13 -->
<g id="edge13" class="edge">
<title>Node14&#45;&gt;Node13</title>
<path fill="none" stroke="#9a32cd" stroke-dasharray="5,2" d="M233.74,-292.39C283.15,-292.83 355.15,-293.82 418,-296.05 423.72,-296.25 429.65,-296.5 435.6,-296.77"/>
<polygon fill="#9a32cd" stroke="#9a32cd" points="233.58,-288.89 223.55,-292.31 233.52,-295.89 233.58,-288.89"/>
<text text-anchor="middle" x="334" y="-299.05" font-family="Helvetica,sans-Serif" font-size="10.00"> ptr</text>
</g>
<!-- Node15 -->
<g id="node15" class="node">
<title>Node15</title>
<g id="a_node15"><a xlink:title=" ">
<polygon fill="white" stroke="#bfbfbf" points="0,-215.55 0,-234.55 29,-234.55 29,-215.55 0,-215.55"/>
<text text-anchor="middle" x="14.5" y="-222.55" font-family="Helvetica,sans-Serif" font-size="10.00">K</text>
</a>
</g>
</g>
<!-- Node15&#45;&gt;Node14 -->
<g id="edge14" class="edge">
<title>Node15&#45;&gt;Node14</title>
<path fill="none" stroke="#9a32cd" stroke-dasharray="5,2" d="M39.39,-228.11C56.39,-231.2 79.12,-237.29 96,-249.05 106.94,-256.67 103.16,-265.28 114,-273.05 119.34,-276.88 125.49,-279.97 131.76,-282.45"/>
<polygon fill="#9a32cd" stroke="#9a32cd" points="39.59,-224.59 29.17,-226.47 38.49,-231.51 39.59,-224.59"/>
<text text-anchor="middle" x="71.5" y="-252.05" font-family="Helvetica,sans-Serif" font-size="10.00"> keys</text>
</g>
<!-- Node16&#45;&gt;Node13 -->
<g id="edge16" class="edge">
<title>Node16&#45;&gt;Node13</title>
<path fill="none" stroke="orange" stroke-dasharray="5,2" d="M242.27,-324.15C298.5,-319.29 378.06,-312.41 435.74,-307.43"/>
<polygon fill="orange" stroke="orange" points="241.72,-320.68 232.06,-325.03 242.32,-327.66 241.72,-320.68"/>
<text text-anchor="middle" x="334" y="-325.05" font-family="Helvetica,sans-Serif" font-size="10.00"> &lt; MetaDataDictionaryMapType &gt;</text>
</g>
<!-- Node17&#45;&gt;Node5 -->
<g id="edge18" class="edge">
<title>Node17&#45;&gt;Node5</title>
<path fill="none" stroke="#9a32cd" stroke-dasharray="5,2" d="M707.87,-220.78C789.37,-223.32 939.09,-227.98 1004.95,-230.04"/>
<polygon fill="#9a32cd" stroke="#9a32cd" points="707.9,-217.28 697.8,-220.46 707.68,-224.27 707.9,-217.28"/>
<text text-anchor="middle" x="785" y="-228.05" font-family="Helvetica,sans-Serif" font-size="10.00"> m_MTime</text>
</g>
<!-- Node18&#45;&gt;Node4 -->
<g id="edge20" class="edge">
<title>Node18&#45;&gt;Node4</title>
<path fill="none" stroke="orange" stroke-dasharray="5,2" d="M1228.44,-236.51C1299.88,-242.6 1414.45,-252.38 1482.8,-258.21"/>
<polygon fill="orange" stroke="orange" points="1228.49,-233 1218.23,-235.63 1227.89,-239.97 1228.49,-233"/>
<text text-anchor="start" x="1236" y="-258.05" font-family="Helvetica,sans-Serif" font-size="10.00"> &lt; Point&lt; double, 3</text>
<text text-anchor="middle" x="1284" y="-247.05" font-family="Helvetica,sans-Serif" font-size="10.00"> &gt;, bool &gt;</text>
</g>
<!-- Node18&#45;&gt;Node20 -->
<g id="edge25" class="edge">
<title>Node18&#45;&gt;Node20</title>
<path fill="none" stroke="orange" stroke-dasharray="5,2" d="M1214.24,-212.85C1221.47,-210.65 1228.88,-208.62 1236,-207.05 1273.52,-198.76 1316.52,-194 1349.95,-191.32"/>
<polygon fill="orange" stroke="orange" points="1213,-209.57 1204.54,-215.94 1215.13,-216.24 1213,-209.57"/>
<text text-anchor="start" x="1236" y="-221.05" font-family="Helvetica,sans-Serif" font-size="10.00"> &lt; Point&lt; double, 3</text>
<text text-anchor="middle" x="1284" y="-210.05" font-family="Helvetica,sans-Serif" font-size="10.00"> &gt;, TOutput &gt;</text>
</g>
<!-- Node19 -->
<g id="node19" class="node">
<title>Node19</title>
<g id="a_node19"><a xlink:href="classitk_1_1SpatialFunction.html" target="_top" xlink:title="N&#45;dimensional spatial function class.">
<polygon fill="white" stroke="black" points="1616,-167.55 1616,-208.55 1782,-208.55 1782,-167.55 1616,-167.55"/>
<text text-anchor="start" x="1624" y="-196.55" font-family="Helvetica,sans-Serif" font-size="10.00">itk::SpatialFunction</text>
<text text-anchor="start" x="1624" y="-185.55" font-family="Helvetica,sans-Serif" font-size="10.00">&lt; TOutput, VImageDimension,</text>
<text text-anchor="middle" x="1699" y="-174.55" font-family="Helvetica,sans-Serif" font-size="10.00"> TInput &gt;</text>
</a>
</g>
</g>
<!-- Node19&#45;&gt;Node3 -->
<g id="edge22" class="edge">
<title>Node19&#45;&gt;Node3</title>
<path fill="none" stroke="orange" stroke-dasharray="5,2" d="M1792.4,-196.61C1849.3,-201.88 1921.16,-208.53 1973.76,-213.41"/>
<polygon fill="orange" stroke="orange" points="1792.6,-193.11 1782.32,-195.67 1791.95,-200.08 1792.6,-193.11"/>
<text text-anchor="start" x="1824.5" y="-225.05" font-family="Helvetica,sans-Serif" font-size="10.00"> &lt; bool, VDimension,</text>
<text text-anchor="middle" x="1878" y="-214.05" font-family="Helvetica,sans-Serif" font-size="10.00"> Point&lt; double, 3 &gt; &gt;</text>
</g>
<!-- Node19&#45;&gt;Node22 -->
<g id="edge29" class="edge">
<title>Node19&#45;&gt;Node22</title>
<path fill="none" stroke="orange" stroke-dasharray="5,2" d="M1763.62,-164.46C1775.56,-160.97 1788.04,-157.92 1800,-156.05 1859.17,-146.81 1927.34,-148.92 1976.81,-152.7"/>
<polygon fill="orange" stroke="orange" points="1762.29,-161.21 1753.76,-167.49 1764.34,-167.91 1762.29,-161.21"/>
<text text-anchor="start" x="1815" y="-170.05" font-family="Helvetica,sans-Serif" font-size="10.00"> &lt; bool, 3, Point&lt; double,</text>
<text text-anchor="middle" x="1878" y="-159.05" font-family="Helvetica,sans-Serif" font-size="10.00"> 3 &gt; &gt;</text>
</g>
<!-- Node20&#45;&gt;Node19 -->
<g id="edge23" class="edge">
<title>Node20&#45;&gt;Node19</title>
<path fill="none" stroke="midnightblue" d="M1475.1,-188.05C1516.98,-188.05 1571.33,-188.05 1615.88,-188.05"/>
<polygon fill="midnightblue" stroke="midnightblue" points="1475.01,-184.55 1465.01,-188.05 1475.01,-191.55 1475.01,-184.55"/>
</g>
<!-- Node21 -->
<g id="node21" class="node">
<title>Node21</title>
<g id="a_node21"><a xlink:href="classitk_1_1InteriorExteriorSpatialFunction.html" target="_top" xlink:title="Returns whether or not a location is &quot;inside&quot; or &quot;outside&quot; a function.">
<polygon fill="white" stroke="black" points="2163.5,-145.05 2163.5,-175.05 2339.5,-175.05 2339.5,-145.05 2163.5,-145.05"/>
<text text-anchor="start" x="2171.5" y="-163.05" font-family="Helvetica,sans-Serif" font-size="10.00">itk::InteriorExteriorSpatial</text>
<text text-anchor="middle" x="2251.5" y="-152.05" font-family="Helvetica,sans-Serif" font-size="10.00">Function&lt; VDimension, TInput &gt;</text>
</a>
</g>
</g>
<!-- Node21&#45;&gt;Node2 -->
<g id="edge26" class="edge">
<title>Node21&#45;&gt;Node2</title>
<path fill="none" stroke="orange" stroke-dasharray="5,2" d="M2350,-160.05C2391.87,-160.05 2440.53,-160.05 2481.74,-160.05"/>
<polygon fill="orange" stroke="orange" points="2349.79,-156.55 2339.79,-160.05 2349.79,-163.55 2349.79,-156.55"/>
<text text-anchor="start" x="2365" y="-174.05" font-family="Helvetica,sans-Serif" font-size="10.00"> &lt; 3, Point&lt; double,</text>
<text text-anchor="middle" x="2414.5" y="-163.05" font-family="Helvetica,sans-Serif" font-size="10.00"> 3 &gt; &gt;</text>
</g>
<!-- Node22&#45;&gt;Node21 -->
<g id="edge27" class="edge">
<title>Node22&#45;&gt;Node21</title>
<path fill="none" stroke="midnightblue" d="M2126.33,-160.05C2138.51,-160.05 2151.15,-160.05 2163.49,-160.05"/>
<polygon fill="midnightblue" stroke="midnightblue" points="2126.23,-156.55 2116.23,-160.05 2126.23,-163.55 2126.23,-156.55"/>
</g>
<!-- Node23 -->
<g id="node23" class="node">
<title>Node23</title>
<g id="a_node23"><a xlink:href="classitk_1_1Vector.html" target="_top" xlink:title=" ">
<polygon fill="white" stroke="black" points="2507.5,-95.55 2507.5,-114.55 2641.5,-114.55 2641.5,-95.55 2507.5,-95.55"/>
<text text-anchor="middle" x="2574.5" y="-102.55" font-family="Helvetica,sans-Serif" font-size="10.00">itk::Vector&lt; double, 3 &gt;</text>
</a>
</g>
</g>
<!-- Node23&#45;&gt;Node1 -->
<g id="edge30" class="edge">
<title>Node23&#45;&gt;Node1</title>
<path fill="none" stroke="#9a32cd" stroke-dasharray="5,2" d="M2651.95,-111.91C2689.6,-115.29 2735.5,-119.4 2775.96,-123.03"/>
<polygon fill="#9a32cd" stroke="#9a32cd" points="2651.83,-108.38 2641.56,-110.98 2651.2,-115.35 2651.83,-108.38"/>
<text text-anchor="middle" x="2721.5" y="-123.05" font-family="Helvetica,sans-Serif" font-size="10.00"> m_Orientation</text>
</g>
<!-- Node24 -->
<g id="node24" class="node">
<title>Node24</title>
<g id="a_node24"><a xlink:href="classitk_1_1FixedArray.html" target="_top" xlink:title=" ">
<polygon fill="white" stroke="black" points="1979.5,-90.05 1979.5,-120.05 2113.5,-120.05 2113.5,-90.05 1979.5,-90.05"/>
<text text-anchor="start" x="1987.5" y="-108.05" font-family="Helvetica,sans-Serif" font-size="10.00">itk::FixedArray&lt; double,</text>
<text text-anchor="middle" x="2046.5" y="-97.05" font-family="Helvetica,sans-Serif" font-size="10.00"> NVectorDimension &gt;</text>
</a>
</g>
</g>
<!-- Node24&#45;&gt;Node23 -->
<g id="edge31" class="edge">
<title>Node24&#45;&gt;Node23</title>
<path fill="none" stroke="midnightblue" d="M2123.63,-105.05C2226.83,-105.05 2409.45,-105.05 2507.27,-105.05"/>
<polygon fill="midnightblue" stroke="midnightblue" points="2123.59,-101.55 2113.59,-105.05 2123.59,-108.55 2123.59,-101.55"/>
</g>
<!-- Node25 -->
<g id="node25" class="node">
<title>Node25</title>
<g id="a_node25"><a xlink:title=" ">
<polygon fill="white" stroke="#bfbfbf" points="1671,-89.55 1671,-108.55 1727,-108.55 1727,-89.55 1671,-89.55"/>
<text text-anchor="middle" x="1699" y="-96.55" font-family="Helvetica,sans-Serif" font-size="10.00">VLength</text>
</a>
</g>
</g>
<!-- Node25&#45;&gt;Node24 -->
<g id="edge32" class="edge">
<title>Node25&#45;&gt;Node24</title>
<path fill="none" stroke="#9a32cd" stroke-dasharray="5,2" d="M1737.27,-99.7C1795.19,-100.7 1907.61,-102.66 1979.48,-103.9"/>
<polygon fill="#9a32cd" stroke="#9a32cd" points="1737.17,-96.2 1727.11,-99.52 1737.05,-103.19 1737.17,-96.2"/>
<text text-anchor="middle" x="1878" y="-106.05" font-family="Helvetica,sans-Serif" font-size="10.00"> m_InternalArray</text>
</g>
<!-- Node28 -->
<g id="node28" class="node">
<title>Node28</title>
<g id="a_node28"><a xlink:href="classitk_1_1FixedArray.html" target="_top" xlink:title=" ">
<polygon fill="white" stroke="black" points="1982.5,-51.55 1982.5,-70.55 2110.5,-70.55 2110.5,-51.55 1982.5,-51.55"/>
<text text-anchor="middle" x="2046.5" y="-58.55" font-family="Helvetica,sans-Serif" font-size="10.00">itk::FixedArray&lt; T, 3 &gt;</text>
</a>
</g>
</g>
<!-- Node25&#45;&gt;Node28 -->
<g id="edge36" class="edge">
<title>Node25&#45;&gt;Node28</title>
<path fill="none" stroke="#9a32cd" stroke-dasharray="5,2" d="M1737.08,-93.48C1755.9,-90.75 1779.14,-87.53 1800,-85.05 1861.87,-77.7 1932.72,-70.95 1982.35,-66.49"/>
<polygon fill="#9a32cd" stroke="#9a32cd" points="1736.51,-90.03 1727.12,-94.94 1737.53,-96.96 1736.51,-90.03"/>
<text text-anchor="middle" x="1878" y="-88.05" font-family="Helvetica,sans-Serif" font-size="10.00"> m_InternalArray</text>
</g>
<!-- Node26 -->
<g id="node26" class="node">
<title>Node26</title>
<g id="a_node26"><a xlink:href="classitk_1_1FixedArray.html" target="_top" xlink:title="Simulate a standard C array with copy semantics.">
<polygon fill="white" stroke="black" points="1632,-11.05 1632,-41.05 1766,-41.05 1766,-11.05 1632,-11.05"/>
<text text-anchor="start" x="1640" y="-29.05" font-family="Helvetica,sans-Serif" font-size="10.00">itk::FixedArray&lt; TValue,</text>
<text text-anchor="middle" x="1699" y="-18.05" font-family="Helvetica,sans-Serif" font-size="10.00"> VLength &gt;</text>
</a>
</g>
</g>
<!-- Node26&#45;&gt;Node24 -->
<g id="edge33" class="edge">
<title>Node26&#45;&gt;Node24</title>
<path fill="none" stroke="orange" stroke-dasharray="5,2" d="M1776.33,-27.49C1840.58,-29.94 1926.56,-36.52 1956,-54.05 1968.08,-61.24 1962.82,-71.54 1974,-80.05 1979.02,-83.87 1984.67,-87.14 1990.54,-89.93"/>
<polygon fill="orange" stroke="orange" points="1776.33,-23.99 1766.22,-27.13 1776.09,-30.98 1776.33,-23.99"/>
<text text-anchor="middle" x="1878" y="-57.05" font-family="Helvetica,sans-Serif" font-size="10.00"> &lt; double, NVectorDimension &gt;</text>
</g>
<!-- Node26&#45;&gt;Node28 -->
<g id="edge37" class="edge">
<title>Node26&#45;&gt;Node28</title>
<path fill="none" stroke="orange" stroke-dasharray="5,2" d="M1773.54,-9.23C1825.38,-0.32 1895.97,5.85 1956,-10.05 1986.25,-18.06 2016.97,-38.95 2033.38,-51.37"/>
<polygon fill="orange" stroke="orange" points="1772.66,-5.84 1763.43,-11.05 1773.89,-12.73 1772.66,-5.84"/>
<text text-anchor="middle" x="1878" y="-13.05" font-family="Helvetica,sans-Serif" font-size="10.00"> &lt; T, 3 &gt;</text>
</g>
<!-- Node27 -->
<g id="node27" class="node">
<title>Node27</title>
<g id="a_node27"><a xlink:href="classitk_1_1Vector.html" target="_top" xlink:title="A templated class holding a n&#45;Dimensional vector.">
<polygon fill="white" stroke="black" points="2156,-56.55 2156,-75.55 2347,-75.55 2347,-56.55 2156,-56.55"/>
<text text-anchor="middle" x="2251.5" y="-63.55" font-family="Helvetica,sans-Serif" font-size="10.00">itk::Vector&lt; T, NVectorDimension &gt;</text>
</a>
</g>
</g>
<!-- Node27&#45;&gt;Node23 -->
<g id="edge34" class="edge">
<title>Node27&#45;&gt;Node23</title>
<path fill="none" stroke="orange" stroke-dasharray="5,2" d="M2357.07,-69.68C2391.28,-71.75 2429.37,-74.98 2464,-80.05 2489.08,-83.72 2516.93,-90.11 2538.26,-95.51"/>
<polygon fill="orange" stroke="orange" points="2357.25,-66.19 2347.07,-69.11 2356.85,-73.18 2357.25,-66.19"/>
<text text-anchor="middle" x="2414.5" y="-83.05" font-family="Helvetica,sans-Serif" font-size="10.00"> &lt; double, 3 &gt;</text>
</g>
<!-- Node28&#45;&gt;Node27 -->
<g id="edge35" class="edge">
<title>Node28&#45;&gt;Node27</title>
<path fill="none" stroke="midnightblue" d="M2120.86,-62.86C2132.19,-63.14 2144.03,-63.43 2155.75,-63.72"/>
<polygon fill="midnightblue" stroke="midnightblue" points="2120.7,-59.35 2110.62,-62.6 2120.53,-66.35 2120.7,-59.35"/>
</g>
</g>
</svg>
