<?xml version="1.0" encoding="UTF-8" standalone="no"?>
<!DOCTYPE svg PUBLIC "-//W3C//DTD SVG 1.1//EN"
 "http://www.w3.org/Graphics/SVG/1.1/DTD/svg11.dtd">
<!-- Generated by graphviz version 2.43.0 (0)
 -->
<!-- Title: itk::RawImageIO&lt; TPixel, VImageDimension &gt; Pages: 1 -->
<svg width="2082pt" height="557pt"
 viewBox="0.00 0.00 2082.00 556.50" xmlns="http://www.w3.org/2000/svg" xmlns:xlink="http://www.w3.org/1999/xlink">
<g id="graph0" class="graph" transform="scale(1 1) rotate(0) translate(4 552.5)">
<title>itk::RawImageIO&lt; TPixel, VImageDimension &gt;</title>
<polygon fill="white" stroke="transparent" points="-4,4 -4,-552.5 2078,-552.5 2078,4 -4,4"/>
<!-- Node1 -->
<g id="node1" class="node">
<title>Node1</title>
<g id="a_node1"><a xlink:title="Read and write raw binary images.">
<polygon fill="#bfbfbf" stroke="black" points="1933,-0.5 1933,-30.5 2074,-30.5 2074,-0.5 1933,-0.5"/>
<text text-anchor="start" x="1941" y="-18.5" font-family="Helvetica,sans-Serif" font-size="10.00">itk::RawImageIO&lt; TPixel,</text>
<text text-anchor="middle" x="2003.5" y="-7.5" font-family="Helvetica,sans-Serif" font-size="10.00"> VImageDimension &gt;</text>
</a>
</g>
</g>
<!-- Node2 -->
<g id="node2" class="node">
<title>Node2</title>
<g id="a_node2"><a xlink:href="classitk_1_1ImageIOBase.html" target="_top" xlink:title="Abstract superclass defines image IO interface.">
<polygon fill="white" stroke="black" points="1795,-187 1795,-206 1896,-206 1896,-187 1795,-187"/>
<text text-anchor="middle" x="1845.5" y="-194" font-family="Helvetica,sans-Serif" font-size="10.00">itk::ImageIOBase</text>
</a>
</g>
</g>
<!-- Node2&#45;&gt;Node1 -->
<g id="edge1" class="edge">
<title>Node2&#45;&gt;Node1</title>
<path fill="none" stroke="midnightblue" d="M1861.43,-179.18C1891.87,-143.86 1960.65,-64.05 1989.44,-30.65"/>
<polygon fill="midnightblue" stroke="midnightblue" points="1858.76,-176.91 1854.89,-186.77 1864.07,-181.48 1858.76,-176.91"/>
</g>
<!-- Node3 -->
<g id="node3" class="node">
<title>Node3</title>
<g id="a_node3"><a xlink:href="classitk_1_1LightProcessObject.html" target="_top" xlink:title="LightProcessObject is the base class for all process objects (source, filters, mappers) in the Insigh...">
<polygon fill="white" stroke="black" points="1559,-397 1559,-416 1687,-416 1687,-397 1559,-397"/>
<text text-anchor="middle" x="1623" y="-404" font-family="Helvetica,sans-Serif" font-size="10.00">itk::LightProcessObject</text>
</a>
</g>
</g>
<!-- Node3&#45;&gt;Node2 -->
<g id="edge2" class="edge">
<title>Node3&#45;&gt;Node2</title>
<path fill="none" stroke="midnightblue" d="M1697.23,-402.42C1724.97,-397.52 1755.1,-387.71 1777,-368.5 1828.12,-323.65 1840.86,-235.13 1843.73,-206.02"/>
<polygon fill="midnightblue" stroke="midnightblue" points="1696.47,-398.99 1687.14,-404.01 1697.56,-405.91 1696.47,-398.99"/>
</g>
<!-- Node4 -->
<g id="node4" class="node">
<title>Node4</title>
<g id="a_node4"><a xlink:href="classitk_1_1Object.html" target="_top" xlink:title="Base class for most ITK classes.">
<polygon fill="white" stroke="black" points="1257,-429 1257,-448 1324,-448 1324,-429 1257,-429"/>
<text text-anchor="middle" x="1290.5" y="-436" font-family="Helvetica,sans-Serif" font-size="10.00">itk::Object</text>
</a>
</g>
</g>
<!-- Node4&#45;&gt;Node3 -->
<g id="edge3" class="edge">
<title>Node4&#45;&gt;Node3</title>
<path fill="none" stroke="midnightblue" d="M1334.21,-434.36C1391.26,-428.84 1492.79,-419.01 1558.74,-412.63"/>
<polygon fill="midnightblue" stroke="midnightblue" points="1333.71,-430.9 1324.09,-435.34 1334.38,-437.86 1333.71,-430.9"/>
</g>
<!-- Node5 -->
<g id="node5" class="node">
<title>Node5</title>
<g id="a_node5"><a xlink:href="classitk_1_1LightObject.html" target="_top" xlink:title="Light weight base class for most itk classes.">
<polygon fill="white" stroke="black" points="924,-528 924,-547 1015,-547 1015,-528 924,-528"/>
<text text-anchor="middle" x="969.5" y="-535" font-family="Helvetica,sans-Serif" font-size="10.00">itk::LightObject</text>
</a>
</g>
</g>
<!-- Node5&#45;&gt;Node4 -->
<g id="edge4" class="edge">
<title>Node5&#45;&gt;Node4</title>
<path fill="none" stroke="midnightblue" d="M1025.47,-539.35C1070.84,-539.05 1136.13,-534.33 1189,-513.5 1227.28,-498.42 1263.82,-464.73 1280.32,-448.12"/>
<polygon fill="midnightblue" stroke="midnightblue" points="1025.24,-535.85 1015.24,-539.34 1025.24,-542.85 1025.24,-535.85"/>
</g>
<!-- Node6 -->
<g id="node6" class="node">
<title>Node6</title>
<g id="a_node6"><a xlink:title=" ">
<polygon fill="white" stroke="black" points="647.5,-528 647.5,-547 754.5,-547 754.5,-528 647.5,-528"/>
<text text-anchor="middle" x="701" y="-535" font-family="Helvetica,sans-Serif" font-size="10.00">std::atomic&lt; int &gt;</text>
</a>
</g>
</g>
<!-- Node6&#45;&gt;Node5 -->
<g id="edge5" class="edge">
<title>Node6&#45;&gt;Node5</title>
<path fill="none" stroke="#9a32cd" stroke-dasharray="5,2" d="M764.8,-537.5C813.7,-537.5 880.37,-537.5 923.92,-537.5"/>
<polygon fill="#9a32cd" stroke="#9a32cd" points="764.65,-534 754.65,-537.5 764.65,-541 764.65,-534"/>
<text text-anchor="middle" x="834.5" y="-540.5" font-family="Helvetica,sans-Serif" font-size="10.00"> m_ReferenceCount</text>
</g>
<!-- Node7 -->
<g id="node7" class="node">
<title>Node7</title>
<g id="a_node7"><a xlink:href="classitk_1_1TimeStamp.html" target="_top" xlink:title="Generate a unique, increasing time value.">
<polygon fill="white" stroke="black" points="524,-490 524,-509 616,-509 616,-490 524,-490"/>
<text text-anchor="middle" x="570" y="-497" font-family="Helvetica,sans-Serif" font-size="10.00">itk::TimeStamp</text>
</a>
</g>
</g>
<!-- Node7&#45;&gt;Node4 -->
<g id="edge6" class="edge">
<title>Node7&#45;&gt;Node4</title>
<path fill="none" stroke="#9a32cd" stroke-dasharray="5,2" d="M626.12,-501.08C734.79,-503.18 983.94,-502.97 1189,-465.5 1212.81,-461.15 1239.23,-453.95 1259.01,-448.09"/>
<polygon fill="#9a32cd" stroke="#9a32cd" points="626.12,-497.58 616.05,-500.87 625.97,-504.57 626.12,-497.58"/>
<text text-anchor="middle" x="834.5" y="-503.5" font-family="Helvetica,sans-Serif" font-size="10.00"> m_MTime</text>
</g>
<!-- Node8 -->
<g id="node8" class="node">
<title>Node8</title>
<g id="a_node8"><a xlink:title=" ">
<polygon fill="white" stroke="black" points="114.5,-490 114.5,-509 214.5,-509 214.5,-490 114.5,-490"/>
<text text-anchor="middle" x="164.5" y="-497" font-family="Helvetica,sans-Serif" font-size="10.00">std::atomic&lt; T &gt;</text>
</a>
</g>
</g>
<!-- Node8&#45;&gt;Node7 -->
<g id="edge7" class="edge">
<title>Node8&#45;&gt;Node7</title>
<path fill="none" stroke="#9a32cd" stroke-dasharray="5,2" d="M224.66,-499.5C306.06,-499.5 450.8,-499.5 523.98,-499.5"/>
<polygon fill="#9a32cd" stroke="#9a32cd" points="224.57,-496 214.57,-499.5 224.57,-503 224.57,-496"/>
<text text-anchor="middle" x="286" y="-502.5" font-family="Helvetica,sans-Serif" font-size="10.00"> m_GlobalTimeStamp</text>
</g>
<!-- Node9 -->
<g id="node9" class="node">
<title>Node9</title>
<g id="a_node9"><a xlink:title=" ">
<polygon fill="white" stroke="black" points="0,-475 0,-494 29,-494 29,-475 0,-475"/>
<text text-anchor="middle" x="14.5" y="-482" font-family="Helvetica,sans-Serif" font-size="10.00">T</text>
</a>
</g>
</g>
<!-- Node9&#45;&gt;Node8 -->
<g id="edge8" class="edge">
<title>Node9&#45;&gt;Node8</title>
<path fill="none" stroke="#9a32cd" stroke-dasharray="5,2" d="M39.33,-486.92C59.54,-488.96 89.19,-491.97 114.45,-494.53"/>
<polygon fill="#9a32cd" stroke="#9a32cd" points="39.46,-483.41 29.16,-485.88 38.75,-490.37 39.46,-483.41"/>
<text text-anchor="middle" x="71.5" y="-494.5" font-family="Helvetica,sans-Serif" font-size="10.00"> ptr</text>
</g>
<!-- Node14 -->
<g id="node14" class="node">
<title>Node14</title>
<g id="a_node14"><a xlink:title=" ">
<polygon fill="white" stroke="black" points="114,-422 114,-441 215,-441 215,-422 114,-422"/>
<text text-anchor="middle" x="164.5" y="-429" font-family="Helvetica,sans-Serif" font-size="10.00">std::map&lt; K, T &gt;</text>
</a>
</g>
</g>
<!-- Node9&#45;&gt;Node14 -->
<g id="edge15" class="edge">
<title>Node9&#45;&gt;Node14</title>
<path fill="none" stroke="#9a32cd" stroke-dasharray="5,2" d="M38.86,-475.52C41.6,-474.49 44.36,-473.47 47,-472.5 77.2,-461.44 112.01,-449.26 135.65,-441.08"/>
<polygon fill="#9a32cd" stroke="#9a32cd" points="37.38,-472.34 29.27,-479.17 39.86,-478.89 37.38,-472.34"/>
<text text-anchor="middle" x="71.5" y="-475.5" font-family="Helvetica,sans-Serif" font-size="10.00"> elements</text>
</g>
<!-- Node10 -->
<g id="node10" class="node">
<title>Node10</title>
<g id="a_node10"><a xlink:title=" ">
<polygon fill="white" stroke="black" points="901,-440.5 901,-470.5 1038,-470.5 1038,-440.5 901,-440.5"/>
<text text-anchor="start" x="909" y="-458.5" font-family="Helvetica,sans-Serif" font-size="10.00">std::unique_ptr&lt; Subject</text>
<text text-anchor="middle" x="969.5" y="-447.5" font-family="Helvetica,sans-Serif" font-size="10.00">Implementation &gt;</text>
</a>
</g>
</g>
<!-- Node10&#45;&gt;Node4 -->
<g id="edge9" class="edge">
<title>Node10&#45;&gt;Node4</title>
<path fill="none" stroke="#9a32cd" stroke-dasharray="5,2" d="M1048.21,-451.36C1114.93,-447.8 1207.82,-442.85 1256.59,-440.25"/>
<polygon fill="#9a32cd" stroke="#9a32cd" points="1047.95,-447.87 1038.15,-451.89 1048.32,-454.86 1047.95,-447.87"/>
<text text-anchor="middle" x="1122.5" y="-453.5" font-family="Helvetica,sans-Serif" font-size="10.00"> m_SubjectImplementation</text>
</g>
<!-- Node11 -->
<g id="node11" class="node">
<title>Node11</title>
<g id="a_node11"><a xlink:title=" ">
<polygon fill="white" stroke="black" points="903.5,-391.5 903.5,-421.5 1035.5,-421.5 1035.5,-391.5 903.5,-391.5"/>
<text text-anchor="start" x="911.5" y="-409.5" font-family="Helvetica,sans-Serif" font-size="10.00">std::unique_ptr&lt; itk</text>
<text text-anchor="middle" x="969.5" y="-398.5" font-family="Helvetica,sans-Serif" font-size="10.00">::MetaDataDictionary &gt;</text>
</a>
</g>
</g>
<!-- Node11&#45;&gt;Node4 -->
<g id="edge10" class="edge">
<title>Node11&#45;&gt;Node4</title>
<path fill="none" stroke="#9a32cd" stroke-dasharray="5,2" d="M1045.92,-414.07C1112.93,-420.79 1207.69,-430.29 1256.93,-435.23"/>
<polygon fill="#9a32cd" stroke="#9a32cd" points="1046.12,-410.57 1035.82,-413.05 1045.42,-417.53 1046.12,-410.57"/>
<text text-anchor="middle" x="1122.5" y="-430.5" font-family="Helvetica,sans-Serif" font-size="10.00"> m_MetaDataDictionary</text>
</g>
<!-- Node12 -->
<g id="node12" class="node">
<title>Node12</title>
<g id="a_node12"><a xlink:href="classitk_1_1MetaDataDictionary.html" target="_top" xlink:title="Provides a mechanism for storing a collection of arbitrary data types.">
<polygon fill="white" stroke="black" points="634,-410 634,-429 768,-429 768,-410 634,-410"/>
<text text-anchor="middle" x="701" y="-417" font-family="Helvetica,sans-Serif" font-size="10.00">itk::MetaDataDictionary</text>
</a>
</g>
</g>
<!-- Node12&#45;&gt;Node11 -->
<g id="edge11" class="edge">
<title>Node12&#45;&gt;Node11</title>
<path fill="none" stroke="#9a32cd" stroke-dasharray="5,2" d="M778.32,-415.78C817.74,-413.85 865.36,-411.53 903.08,-409.69"/>
<polygon fill="#9a32cd" stroke="#9a32cd" points="778.04,-412.29 768.22,-416.27 778.38,-419.28 778.04,-412.29"/>
<text text-anchor="middle" x="834.5" y="-417.5" font-family="Helvetica,sans-Serif" font-size="10.00"> ptr</text>
</g>
<!-- Node13 -->
<g id="node13" class="node">
<title>Node13</title>
<g id="a_node13"><a xlink:title=" ">
<polygon fill="white" stroke="black" points="357,-407.5 357,-437.5 506,-437.5 506,-407.5 357,-407.5"/>
<text text-anchor="start" x="365" y="-425.5" font-family="Helvetica,sans-Serif" font-size="10.00">std::shared_ptr&lt; MetaData</text>
<text text-anchor="middle" x="431.5" y="-414.5" font-family="Helvetica,sans-Serif" font-size="10.00">DictionaryMapType &gt;</text>
</a>
</g>
</g>
<!-- Node13&#45;&gt;Node12 -->
<g id="edge12" class="edge">
<title>Node13&#45;&gt;Node12</title>
<path fill="none" stroke="#9a32cd" stroke-dasharray="5,2" d="M516.78,-421.55C554.53,-421.13 598.4,-420.64 633.74,-420.24"/>
<polygon fill="#9a32cd" stroke="#9a32cd" points="516.26,-418.06 506.3,-421.67 516.34,-425.06 516.26,-418.06"/>
<text text-anchor="middle" x="570" y="-423.5" font-family="Helvetica,sans-Serif" font-size="10.00"> m_Dictionary</text>
</g>
<!-- Node14&#45;&gt;Node13 -->
<g id="edge13" class="edge">
<title>Node14&#45;&gt;Node13</title>
<path fill="none" stroke="#9a32cd" stroke-dasharray="5,2" d="M225.18,-429.47C264.19,-428.15 315.41,-426.41 356.93,-425"/>
<polygon fill="#9a32cd" stroke="#9a32cd" points="224.91,-425.98 215.03,-429.82 225.15,-432.98 224.91,-425.98"/>
<text text-anchor="middle" x="286" y="-431.5" font-family="Helvetica,sans-Serif" font-size="10.00"> ptr</text>
</g>
<!-- Node15 -->
<g id="node15" class="node">
<title>Node15</title>
<g id="a_node15"><a xlink:title=" ">
<polygon fill="white" stroke="black" points="0,-422 0,-441 29,-441 29,-422 0,-422"/>
<text text-anchor="middle" x="14.5" y="-429" font-family="Helvetica,sans-Serif" font-size="10.00">K</text>
</a>
</g>
</g>
<!-- Node15&#45;&gt;Node14 -->
<g id="edge14" class="edge">
<title>Node15&#45;&gt;Node14</title>
<path fill="none" stroke="#9a32cd" stroke-dasharray="5,2" d="M39.24,-431.5C59.28,-431.5 88.63,-431.5 113.78,-431.5"/>
<polygon fill="#9a32cd" stroke="#9a32cd" points="39.16,-428 29.16,-431.5 39.16,-435 39.16,-428"/>
<text text-anchor="middle" x="71.5" y="-434.5" font-family="Helvetica,sans-Serif" font-size="10.00"> keys</text>
</g>
<!-- Node16 -->
<g id="node16" class="node">
<title>Node16</title>
<g id="a_node16"><a xlink:title=" ">
<polygon fill="white" stroke="black" points="937,-197 937,-216 1002,-216 1002,-197 937,-197"/>
<text text-anchor="middle" x="969.5" y="-204" font-family="Helvetica,sans-Serif" font-size="10.00">std::string</text>
</a>
</g>
</g>
<!-- Node16&#45;&gt;Node1 -->
<g id="edge31" class="edge">
<title>Node16&#45;&gt;Node1</title>
<path fill="none" stroke="#9a32cd" stroke-dasharray="5,2" d="M979,-187.65C991.94,-160.99 1019.03,-112.42 1056,-84.5 1143.66,-18.31 1179.66,-3.5 1289.5,-3.5 1289.5,-3.5 1289.5,-3.5 1846.5,-3.5 1874.75,-3.5 1905.79,-5.48 1932.7,-7.83"/>
<polygon fill="#9a32cd" stroke="#9a32cd" points="975.83,-186.17 974.74,-196.71 982.16,-189.15 975.83,-186.17"/>
<text text-anchor="middle" x="1623" y="-6.5" font-family="Helvetica,sans-Serif" font-size="10.00"> m_InternalFileName</text>
</g>
<!-- Node16&#45;&gt;Node2 -->
<g id="edge18" class="edge">
<title>Node16&#45;&gt;Node2</title>
<path fill="none" stroke="#9a32cd" stroke-dasharray="5,2" d="M990.87,-222.29C1030.05,-251.56 1119.78,-313.26 1207,-335.5 1329.94,-366.85 1669.72,-370.25 1777,-302.5 1813.89,-279.2 1834.34,-227.61 1841.52,-206.15"/>
<polygon fill="#9a32cd" stroke="#9a32cd" points="992.95,-219.48 982.87,-216.24 988.73,-225.06 992.95,-219.48"/>
<text text-anchor="middle" x="1462" y="-370.5" font-family="Helvetica,sans-Serif" font-size="10.00"> m_Compressor</text>
<text text-anchor="middle" x="1462" y="-359.5" font-family="Helvetica,sans-Serif" font-size="10.00">m_FileName</text>
</g>
<!-- Node16&#45;&gt;Node4 -->
<g id="edge16" class="edge">
<title>Node16&#45;&gt;Node4</title>
<path fill="none" stroke="#9a32cd" stroke-dasharray="5,2" d="M975.47,-226.15C985.06,-259.97 1009.42,-329.06 1056,-365.5 1104.05,-403.09 1130.9,-380.87 1189,-399.5 1216.27,-408.24 1246.84,-420.46 1267.03,-428.89"/>
<polygon fill="#9a32cd" stroke="#9a32cd" points="978.75,-224.87 972.77,-216.13 971.99,-226.69 978.75,-224.87"/>
<text text-anchor="middle" x="1122.5" y="-402.5" font-family="Helvetica,sans-Serif" font-size="10.00"> m_ObjectName</text>
</g>
<!-- Node26 -->
<g id="node26" class="node">
<title>Node26</title>
<g id="a_node26"><a xlink:title=" ">
<polygon fill="white" stroke="black" points="1392,-44 1392,-63 1532,-63 1532,-44 1392,-44"/>
<text text-anchor="middle" x="1462" y="-51" font-family="Helvetica,sans-Serif" font-size="10.00">std::vector&lt; std::string &gt;</text>
</a>
</g>
</g>
<!-- Node16&#45;&gt;Node26 -->
<g id="edge30" class="edge">
<title>Node16&#45;&gt;Node26</title>
<path fill="none" stroke="#9a32cd" stroke-dasharray="5,2" d="M992.36,-191.28C1032.68,-164.06 1122.39,-107.49 1207,-81.5 1267.75,-62.84 1340.05,-56.3 1391.94,-54.15"/>
<polygon fill="#9a32cd" stroke="#9a32cd" points="990.37,-188.4 984.08,-196.92 994.32,-194.18 990.37,-188.4"/>
<text text-anchor="middle" x="1122.5" y="-152.5" font-family="Helvetica,sans-Serif" font-size="10.00"> elements</text>
</g>
<!-- Node17 -->
<g id="node17" class="node">
<title>Node17</title>
<g id="a_node17"><a xlink:title=" ">
<polygon fill="white" stroke="black" points="649,-191.5 649,-221.5 753,-221.5 753,-191.5 649,-191.5"/>
<text text-anchor="start" x="657" y="-209.5" font-family="Helvetica,sans-Serif" font-size="10.00">std::basic_string&lt;</text>
<text text-anchor="middle" x="701" y="-198.5" font-family="Helvetica,sans-Serif" font-size="10.00"> Char &gt;</text>
</a>
</g>
</g>
<!-- Node17&#45;&gt;Node16 -->
<g id="edge17" class="edge">
<title>Node17&#45;&gt;Node16</title>
<path fill="none" stroke="midnightblue" d="M763.24,-206.5C817.37,-206.5 894.16,-206.5 936.82,-206.5"/>
<polygon fill="midnightblue" stroke="midnightblue" points="763.07,-203 753.07,-206.5 763.07,-210 763.07,-203"/>
</g>
<!-- Node18 -->
<g id="node18" class="node">
<title>Node18</title>
<g id="a_node18"><a xlink:href="classitk_1_1ImageIORegion.html" target="_top" xlink:title="An ImageIORegion represents a structured region of data.">
<polygon fill="white" stroke="black" points="1568,-284 1568,-303 1678,-303 1678,-284 1568,-284"/>
<text text-anchor="middle" x="1623" y="-291" font-family="Helvetica,sans-Serif" font-size="10.00">itk::ImageIORegion</text>
</a>
</g>
</g>
<!-- Node18&#45;&gt;Node2 -->
<g id="edge19" class="edge">
<title>Node18&#45;&gt;Node2</title>
<path fill="none" stroke="#9a32cd" stroke-dasharray="5,2" d="M1688.34,-292.25C1716.88,-289.42 1750.03,-282.88 1777,-268.5 1805.27,-253.43 1828.26,-221.96 1838.59,-206.09"/>
<polygon fill="#9a32cd" stroke="#9a32cd" points="1687.72,-288.79 1678.06,-293.13 1688.32,-295.76 1687.72,-288.79"/>
<text text-anchor="middle" x="1745.5" y="-290.5" font-family="Helvetica,sans-Serif" font-size="10.00"> m_IORegion</text>
</g>
<!-- Node19 -->
<g id="node19" class="node">
<title>Node19</title>
<g id="a_node19"><a xlink:href="classitk_1_1Region.html" target="_top" xlink:title="A region represents some portion or piece of data.">
<polygon fill="white" stroke="black" points="1256,-307 1256,-326 1325,-326 1325,-307 1256,-307"/>
<text text-anchor="middle" x="1290.5" y="-314" font-family="Helvetica,sans-Serif" font-size="10.00">itk::Region</text>
</a>
</g>
</g>
<!-- Node19&#45;&gt;Node18 -->
<g id="edge20" class="edge">
<title>Node19&#45;&gt;Node18</title>
<path fill="none" stroke="midnightblue" d="M1335.08,-314.89C1383.3,-312.93 1463.28,-309.17 1532,-303.5 1543.59,-302.54 1556.01,-301.3 1567.79,-300.03"/>
<polygon fill="midnightblue" stroke="midnightblue" points="1334.85,-311.39 1325,-315.29 1335.13,-318.39 1334.85,-311.39"/>
</g>
<!-- Node20 -->
<g id="node20" class="node">
<title>Node20</title>
<g id="a_node20"><a xlink:title=" ">
<polygon fill="white" stroke="black" points="1207,-269 1207,-288 1374,-288 1374,-269 1207,-269"/>
<text text-anchor="middle" x="1290.5" y="-276" font-family="Helvetica,sans-Serif" font-size="10.00">std::vector&lt; IndexValueType &gt;</text>
</a>
</g>
</g>
<!-- Node20&#45;&gt;Node18 -->
<g id="edge21" class="edge">
<title>Node20&#45;&gt;Node18</title>
<path fill="none" stroke="#9a32cd" stroke-dasharray="5,2" d="M1384.16,-282.71C1443.39,-285.39 1518.14,-288.79 1567.87,-291.04"/>
<polygon fill="#9a32cd" stroke="#9a32cd" points="1384.19,-279.2 1374.05,-282.25 1383.88,-286.2 1384.19,-279.2"/>
<text text-anchor="middle" x="1462" y="-291.5" font-family="Helvetica,sans-Serif" font-size="10.00"> m_Index</text>
</g>
<!-- Node21 -->
<g id="node21" class="node">
<title>Node21</title>
<g id="a_node21"><a xlink:title=" ">
<polygon fill="white" stroke="black" points="1210,-224 1210,-243 1371,-243 1371,-224 1210,-224"/>
<text text-anchor="middle" x="1290.5" y="-231" font-family="Helvetica,sans-Serif" font-size="10.00">std::vector&lt; SizeValueType &gt;</text>
</a>
</g>
</g>
<!-- Node21&#45;&gt;Node2 -->
<g id="edge23" class="edge">
<title>Node21&#45;&gt;Node2</title>
<path fill="none" stroke="#9a32cd" stroke-dasharray="5,2" d="M1381.12,-232.41C1463.19,-230.82 1587.96,-226.95 1696,-217.5 1729.07,-214.61 1766.04,-209.39 1794.81,-204.87"/>
<polygon fill="#9a32cd" stroke="#9a32cd" points="1381.01,-228.91 1371.08,-232.59 1381.14,-235.91 1381.01,-228.91"/>
<text text-anchor="middle" x="1623" y="-229.5" font-family="Helvetica,sans-Serif" font-size="10.00"> m_Dimensions</text>
</g>
<!-- Node21&#45;&gt;Node18 -->
<g id="edge22" class="edge">
<title>Node21&#45;&gt;Node18</title>
<path fill="none" stroke="#9a32cd" stroke-dasharray="5,2" d="M1381.19,-243.14C1426.65,-248.79 1482.55,-256.92 1532,-267.5 1552.52,-271.89 1575.21,-278.46 1592.67,-283.89"/>
<polygon fill="#9a32cd" stroke="#9a32cd" points="1381.42,-239.64 1371.07,-241.9 1380.57,-246.58 1381.42,-239.64"/>
<text text-anchor="middle" x="1462" y="-270.5" font-family="Helvetica,sans-Serif" font-size="10.00"> m_Size</text>
</g>
<!-- Node22 -->
<g id="node22" class="node">
<title>Node22</title>
<g id="a_node22"><a xlink:title=" ">
<polygon fill="white" stroke="black" points="1228.5,-168 1228.5,-187 1352.5,-187 1352.5,-168 1228.5,-168"/>
<text text-anchor="middle" x="1290.5" y="-175" font-family="Helvetica,sans-Serif" font-size="10.00">std::vector&lt; double &gt;</text>
</a>
</g>
</g>
<!-- Node22&#45;&gt;Node2 -->
<g id="edge24" class="edge">
<title>Node22&#45;&gt;Node2</title>
<path fill="none" stroke="#9a32cd" stroke-dasharray="5,2" d="M1362.77,-180.4C1372.59,-180.78 1382.55,-181.16 1392,-181.5 1538.5,-186.84 1711.7,-192.36 1794.95,-194.97"/>
<polygon fill="#9a32cd" stroke="#9a32cd" points="1362.75,-176.89 1352.62,-180 1362.47,-183.89 1362.75,-176.89"/>
<text text-anchor="middle" x="1623" y="-205.5" font-family="Helvetica,sans-Serif" font-size="10.00"> m_Origin</text>
<text text-anchor="middle" x="1623" y="-194.5" font-family="Helvetica,sans-Serif" font-size="10.00">m_Spacing</text>
</g>
<!-- Node23 -->
<g id="node23" class="node">
<title>Node23</title>
<g id="a_node23"><a xlink:title=" ">
<polygon fill="white" stroke="black" points="1557.5,-129.5 1557.5,-159.5 1688.5,-159.5 1688.5,-129.5 1557.5,-129.5"/>
<text text-anchor="start" x="1565.5" y="-147.5" font-family="Helvetica,sans-Serif" font-size="10.00">std::vector&lt; std::vector</text>
<text text-anchor="middle" x="1623" y="-136.5" font-family="Helvetica,sans-Serif" font-size="10.00">&lt; double &gt; &gt;</text>
</a>
</g>
</g>
<!-- Node22&#45;&gt;Node23 -->
<g id="edge26" class="edge">
<title>Node22&#45;&gt;Node23</title>
<path fill="none" stroke="#9a32cd" stroke-dasharray="5,2" d="M1362.66,-170.39C1420.5,-164.62 1501.4,-156.54 1557.4,-150.95"/>
<polygon fill="#9a32cd" stroke="#9a32cd" points="1362.11,-166.93 1352.5,-171.41 1362.8,-173.9 1362.11,-166.93"/>
<text text-anchor="middle" x="1462" y="-169.5" font-family="Helvetica,sans-Serif" font-size="10.00"> elements</text>
</g>
<!-- Node23&#45;&gt;Node2 -->
<g id="edge25" class="edge">
<title>Node23&#45;&gt;Node2</title>
<path fill="none" stroke="#9a32cd" stroke-dasharray="5,2" d="M1698.77,-154.93C1723.85,-159.16 1751.83,-164.68 1777,-171.5 1792.2,-175.62 1808.79,-181.74 1821.72,-186.89"/>
<polygon fill="#9a32cd" stroke="#9a32cd" points="1699.02,-151.42 1688.59,-153.25 1697.89,-158.33 1699.02,-151.42"/>
<text text-anchor="middle" x="1745.5" y="-174.5" font-family="Helvetica,sans-Serif" font-size="10.00"> m_Direction</text>
</g>
<!-- Node24 -->
<g id="node24" class="node">
<title>Node24</title>
<g id="a_node24"><a xlink:title=" ">
<polygon fill="white" stroke="black" points="1556,-91 1556,-110 1690,-110 1690,-91 1556,-91"/>
<text text-anchor="middle" x="1623" y="-98" font-family="Helvetica,sans-Serif" font-size="10.00">std::vector&lt; SizeType &gt;</text>
</a>
</g>
</g>
<!-- Node24&#45;&gt;Node2 -->
<g id="edge27" class="edge">
<title>Node24&#45;&gt;Node2</title>
<path fill="none" stroke="#9a32cd" stroke-dasharray="5,2" d="M1689.52,-112.32C1717.44,-118.9 1749.79,-128.63 1777,-142.5 1800,-154.22 1822.56,-174.57 1834.9,-186.66"/>
<polygon fill="#9a32cd" stroke="#9a32cd" points="1689.98,-108.83 1679.45,-110.03 1688.43,-115.66 1689.98,-108.83"/>
<text text-anchor="middle" x="1745.5" y="-145.5" font-family="Helvetica,sans-Serif" font-size="10.00"> m_Strides</text>
</g>
<!-- Node25 -->
<g id="node25" class="node">
<title>Node25</title>
<g id="a_node25"><a xlink:title=" ">
<polygon fill="white" stroke="black" points="1260.5,-91 1260.5,-110 1320.5,-110 1320.5,-91 1260.5,-91"/>
<text text-anchor="middle" x="1290.5" y="-98" font-family="Helvetica,sans-Serif" font-size="10.00">intmax_t</text>
</a>
</g>
</g>
<!-- Node25&#45;&gt;Node24 -->
<g id="edge28" class="edge">
<title>Node25&#45;&gt;Node24</title>
<path fill="none" stroke="#9a32cd" stroke-dasharray="5,2" d="M1330.67,-100.5C1386.16,-100.5 1488.41,-100.5 1555.81,-100.5"/>
<polygon fill="#9a32cd" stroke="#9a32cd" points="1330.54,-97 1320.54,-100.5 1330.54,-104 1330.54,-97"/>
<text text-anchor="middle" x="1462" y="-103.5" font-family="Helvetica,sans-Serif" font-size="10.00"> elements</text>
</g>
<!-- Node26&#45;&gt;Node2 -->
<g id="edge29" class="edge">
<title>Node26&#45;&gt;Node2</title>
<path fill="none" stroke="#9a32cd" stroke-dasharray="5,2" d="M1542.45,-44.61C1588.38,-42.14 1646.67,-43.64 1696,-59.5 1765.79,-81.94 1820.6,-159.05 1838.38,-186.61"/>
<polygon fill="#9a32cd" stroke="#9a32cd" points="1542.02,-41.13 1532.25,-45.24 1542.44,-48.12 1542.02,-41.13"/>
<text text-anchor="middle" x="1623" y="-73.5" font-family="Helvetica,sans-Serif" font-size="10.00"> m_SupportedReadExtensions</text>
<text text-anchor="middle" x="1623" y="-62.5" font-family="Helvetica,sans-Serif" font-size="10.00">m_SupportedWriteExtensions</text>
</g>
</g>
</svg>
