<?xml version="1.0" encoding="UTF-8" standalone="no"?>
<!DOCTYPE svg PUBLIC "-//W3C//DTD SVG 1.1//EN"
 "http://www.w3.org/Graphics/SVG/1.1/DTD/svg11.dtd">
<!-- Generated by graphviz version 2.43.0 (0)
 -->
<!-- Title: itk::LevelSetDomainPartitionMesh&lt; TMesh &gt; Pages: 1 -->
<svg width="1739pt" height="218pt"
 viewBox="0.00 0.00 1739.00 217.50" xmlns="http://www.w3.org/2000/svg" xmlns:xlink="http://www.w3.org/1999/xlink">
<g id="graph0" class="graph" transform="scale(1 1) rotate(0) translate(4 213.5)">
<title>itk::LevelSetDomainPartitionMesh&lt; TMesh &gt;</title>
<polygon fill="white" stroke="transparent" points="-4,4 -4,-213.5 1735,-213.5 1735,4 -4,4"/>
<!-- Node1 -->
<g id="node1" class="node">
<title>Node1</title>
<g id="a_node1"><a xlink:title="Helper class used to partition domain and efficiently compute overlap.">
<polygon fill="#bfbfbf" stroke="black" points="1575,-19.5 1575,-49.5 1731,-49.5 1731,-19.5 1575,-19.5"/>
<text text-anchor="start" x="1583" y="-37.5" font-family="Helvetica,sans-Serif" font-size="10.00">itk::LevelSetDomainPartition</text>
<text text-anchor="middle" x="1653" y="-26.5" font-family="Helvetica,sans-Serif" font-size="10.00">Mesh&lt; TMesh &gt;</text>
</a>
</g>
</g>
<!-- Node2 -->
<g id="node2" class="node">
<title>Node2</title>
<g id="a_node2"><a xlink:href="classitk_1_1LevelSetDomainPartitionBase.html" target="_top" xlink:title=" ">
<polygon fill="white" stroke="black" points="1382,-55.5 1382,-85.5 1538,-85.5 1538,-55.5 1382,-55.5"/>
<text text-anchor="start" x="1390" y="-73.5" font-family="Helvetica,sans-Serif" font-size="10.00">itk::LevelSetDomainPartition</text>
<text text-anchor="middle" x="1460" y="-62.5" font-family="Helvetica,sans-Serif" font-size="10.00">Base&lt; TMesh &gt;</text>
</a>
</g>
</g>
<!-- Node2&#45;&gt;Node1 -->
<g id="edge1" class="edge">
<title>Node2&#45;&gt;Node1</title>
<path fill="none" stroke="midnightblue" d="M1548.15,-54.07C1557.07,-52.39 1566.09,-50.69 1574.89,-49.03"/>
<polygon fill="midnightblue" stroke="midnightblue" points="1547.32,-50.67 1538.14,-55.96 1548.61,-57.55 1547.32,-50.67"/>
</g>
<!-- Node3 -->
<g id="node3" class="node">
<title>Node3</title>
<g id="a_node3"><a xlink:href="classitk_1_1Object.html" target="_top" xlink:title="Base class for most ITK classes.">
<polygon fill="white" stroke="black" points="1028,-105 1028,-124 1095,-124 1095,-105 1028,-105"/>
<text text-anchor="middle" x="1061.5" y="-112" font-family="Helvetica,sans-Serif" font-size="10.00">itk::Object</text>
</a>
</g>
</g>
<!-- Node3&#45;&gt;Node2 -->
<g id="edge2" class="edge">
<title>Node3&#45;&gt;Node2</title>
<path fill="none" stroke="midnightblue" d="M1093.39,-101.24C1105.25,-96.72 1119.04,-92.15 1132,-89.5 1216.27,-72.27 1315.11,-68.77 1381.88,-68.79"/>
<polygon fill="midnightblue" stroke="midnightblue" points="1091.96,-98.04 1083.95,-104.97 1094.54,-104.55 1091.96,-98.04"/>
</g>
<!-- Node16 -->
<g id="node16" class="node">
<title>Node16</title>
<g id="a_node16"><a xlink:href="classitk_1_1LevelSetDomainPartitionBase.html" target="_top" xlink:title="Helper class used to partition domain and efficiently compute overlap.">
<polygon fill="white" stroke="black" points="1132,-99.5 1132,-129.5 1288,-129.5 1288,-99.5 1132,-99.5"/>
<text text-anchor="start" x="1140" y="-117.5" font-family="Helvetica,sans-Serif" font-size="10.00">itk::LevelSetDomainPartition</text>
<text text-anchor="middle" x="1210" y="-106.5" font-family="Helvetica,sans-Serif" font-size="10.00">Base&lt; TDomain &gt;</text>
</a>
</g>
</g>
<!-- Node3&#45;&gt;Node16 -->
<g id="edge19" class="edge">
<title>Node3&#45;&gt;Node16</title>
<path fill="none" stroke="midnightblue" d="M1105.28,-114.5C1113.7,-114.5 1122.77,-114.5 1131.93,-114.5"/>
<polygon fill="midnightblue" stroke="midnightblue" points="1105.01,-111 1095.01,-114.5 1105.01,-118 1105.01,-111"/>
</g>
<!-- Node4 -->
<g id="node4" class="node">
<title>Node4</title>
<g id="a_node4"><a xlink:href="classitk_1_1LightObject.html" target="_top" xlink:title="Light weight base class for most itk classes.">
<polygon fill="white" stroke="black" points="739.5,-143 739.5,-162 830.5,-162 830.5,-143 739.5,-143"/>
<text text-anchor="middle" x="785" y="-150" font-family="Helvetica,sans-Serif" font-size="10.00">itk::LightObject</text>
</a>
</g>
</g>
<!-- Node4&#45;&gt;Node3 -->
<g id="edge3" class="edge">
<title>Node4&#45;&gt;Node3</title>
<path fill="none" stroke="midnightblue" d="M840.83,-149.73C886.44,-146.74 952.9,-140.81 1010,-129.5 1017.18,-128.08 1024.8,-126.08 1031.89,-124.01"/>
<polygon fill="midnightblue" stroke="midnightblue" points="840.32,-146.25 830.56,-150.38 840.76,-153.24 840.32,-146.25"/>
</g>
<!-- Node5 -->
<g id="node5" class="node">
<title>Node5</title>
<g id="a_node5"><a xlink:title=" ">
<polygon fill="white" stroke="#bfbfbf" points="457,-151 457,-170 564,-170 564,-151 457,-151"/>
<text text-anchor="middle" x="510.5" y="-158" font-family="Helvetica,sans-Serif" font-size="10.00">std::atomic&lt; int &gt;</text>
</a>
</g>
</g>
<!-- Node5&#45;&gt;Node4 -->
<g id="edge4" class="edge">
<title>Node5&#45;&gt;Node4</title>
<path fill="none" stroke="#9a32cd" stroke-dasharray="5,2" d="M574.18,-158.66C624.64,-157.18 694.33,-155.13 739.29,-153.81"/>
<polygon fill="#9a32cd" stroke="#9a32cd" points="573.93,-155.17 564.04,-158.96 574.14,-162.16 573.93,-155.17"/>
<text text-anchor="middle" x="651.5" y="-160.5" font-family="Helvetica,sans-Serif" font-size="10.00"> m_ReferenceCount</text>
</g>
<!-- Node6 -->
<g id="node6" class="node">
<title>Node6</title>
<g id="a_node6"><a xlink:title="STL class.">
<polygon fill="white" stroke="#bfbfbf" points="123,-151 123,-170 223,-170 223,-151 123,-151"/>
<text text-anchor="middle" x="173" y="-158" font-family="Helvetica,sans-Serif" font-size="10.00">std::atomic&lt; T &gt;</text>
</a>
</g>
</g>
<!-- Node6&#45;&gt;Node5 -->
<g id="edge5" class="edge">
<title>Node6&#45;&gt;Node5</title>
<path fill="none" stroke="orange" stroke-dasharray="5,2" d="M233.38,-160.5C296.77,-160.5 396.25,-160.5 456.9,-160.5"/>
<polygon fill="orange" stroke="orange" points="233.14,-157 223.14,-160.5 233.14,-164 233.14,-157"/>
<text text-anchor="middle" x="334" y="-163.5" font-family="Helvetica,sans-Serif" font-size="10.00"> &lt; int &gt;</text>
</g>
<!-- Node15 -->
<g id="node15" class="node">
<title>Node15</title>
<g id="a_node15"><a xlink:href="classitk_1_1TimeStamp.html" target="_top" xlink:title="Generate a unique, increasing time value.">
<polygon fill="white" stroke="black" points="605.5,-189 605.5,-208 697.5,-208 697.5,-189 605.5,-189"/>
<text text-anchor="middle" x="651.5" y="-196" font-family="Helvetica,sans-Serif" font-size="10.00">itk::TimeStamp</text>
</a>
</g>
</g>
<!-- Node6&#45;&gt;Node15 -->
<g id="edge17" class="edge">
<title>Node6&#45;&gt;Node15</title>
<path fill="none" stroke="#9a32cd" stroke-dasharray="5,2" d="M226.87,-171.9C234.6,-173.29 242.49,-174.55 250,-175.5 378.17,-191.75 530.88,-196.53 605.27,-197.92"/>
<polygon fill="#9a32cd" stroke="#9a32cd" points="227.31,-168.42 216.84,-170.02 226.02,-175.31 227.31,-168.42"/>
<text text-anchor="middle" x="334" y="-192.5" font-family="Helvetica,sans-Serif" font-size="10.00"> m_GlobalTimeStamp</text>
</g>
<!-- Node7 -->
<g id="node7" class="node">
<title>Node7</title>
<g id="a_node7"><a xlink:title=" ">
<polygon fill="white" stroke="#bfbfbf" points="0,-106 0,-125 29,-125 29,-106 0,-106"/>
<text text-anchor="middle" x="14.5" y="-113" font-family="Helvetica,sans-Serif" font-size="10.00">T</text>
</a>
</g>
</g>
<!-- Node7&#45;&gt;Node6 -->
<g id="edge6" class="edge">
<title>Node7&#45;&gt;Node6</title>
<path fill="none" stroke="#9a32cd" stroke-dasharray="5,2" d="M38.37,-127.07C41.24,-128.32 44.16,-129.5 47,-130.5 71.51,-139.17 99.6,-146.16 122.94,-151.21"/>
<polygon fill="#9a32cd" stroke="#9a32cd" points="39.58,-123.77 29.04,-122.71 36.62,-130.11 39.58,-123.77"/>
<text text-anchor="middle" x="71.5" y="-147.5" font-family="Helvetica,sans-Serif" font-size="10.00"> ptr</text>
</g>
<!-- Node12 -->
<g id="node12" class="node">
<title>Node12</title>
<g id="a_node12"><a xlink:title="STL class.">
<polygon fill="white" stroke="#bfbfbf" points="122.5,-42 122.5,-61 223.5,-61 223.5,-42 122.5,-42"/>
<text text-anchor="middle" x="173" y="-49" font-family="Helvetica,sans-Serif" font-size="10.00">std::map&lt; K, T &gt;</text>
</a>
</g>
</g>
<!-- Node7&#45;&gt;Node12 -->
<g id="edge13" class="edge">
<title>Node7&#45;&gt;Node12</title>
<path fill="none" stroke="#9a32cd" stroke-dasharray="5,2" d="M38.14,-102.81C41.09,-101.3 44.1,-99.82 47,-98.5 79.28,-83.8 117.63,-69.88 143.26,-61.06"/>
<polygon fill="#9a32cd" stroke="#9a32cd" points="36.27,-99.84 29.1,-107.64 39.57,-106.02 36.27,-99.84"/>
<text text-anchor="middle" x="71.5" y="-101.5" font-family="Helvetica,sans-Serif" font-size="10.00"> elements</text>
</g>
<!-- Node14 -->
<g id="node14" class="node">
<title>Node14</title>
<g id="a_node14"><a xlink:title="STL class.">
<polygon fill="white" stroke="#bfbfbf" points="114,-102 114,-121 232,-121 232,-102 114,-102"/>
<text text-anchor="middle" x="173" y="-109" font-family="Helvetica,sans-Serif" font-size="10.00">std::shared_ptr&lt; T &gt;</text>
</a>
</g>
</g>
<!-- Node7&#45;&gt;Node14 -->
<g id="edge15" class="edge">
<title>Node7&#45;&gt;Node14</title>
<path fill="none" stroke="#9a32cd" stroke-dasharray="5,2" d="M39.32,-114.89C59.06,-114.39 87.96,-113.65 113.75,-112.99"/>
<polygon fill="#9a32cd" stroke="#9a32cd" points="39.02,-111.4 29.11,-115.15 39.2,-118.4 39.02,-111.4"/>
<text text-anchor="middle" x="71.5" y="-118.5" font-family="Helvetica,sans-Serif" font-size="10.00"> ptr</text>
</g>
<!-- Node8 -->
<g id="node8" class="node">
<title>Node8</title>
<g id="a_node8"><a xlink:title="STL class.">
<polygon fill="white" stroke="#bfbfbf" points="752.5,-105 752.5,-124 817.5,-124 817.5,-105 752.5,-105"/>
<text text-anchor="middle" x="785" y="-112" font-family="Helvetica,sans-Serif" font-size="10.00">std::string</text>
</a>
</g>
</g>
<!-- Node8&#45;&gt;Node3 -->
<g id="edge7" class="edge">
<title>Node8&#45;&gt;Node3</title>
<path fill="none" stroke="#9a32cd" stroke-dasharray="5,2" d="M827.84,-114.5C882.7,-114.5 977.83,-114.5 1027.75,-114.5"/>
<polygon fill="#9a32cd" stroke="#9a32cd" points="827.76,-111 817.76,-114.5 827.76,-118 827.76,-111"/>
<text text-anchor="middle" x="940" y="-117.5" font-family="Helvetica,sans-Serif" font-size="10.00"> m_ObjectName</text>
</g>
<!-- Node9 -->
<g id="node9" class="node">
<title>Node9</title>
<g id="a_node9"><a xlink:title="STL class.">
<polygon fill="white" stroke="#bfbfbf" points="458.5,-101.5 458.5,-131.5 562.5,-131.5 562.5,-101.5 458.5,-101.5"/>
<text text-anchor="start" x="466.5" y="-119.5" font-family="Helvetica,sans-Serif" font-size="10.00">std::basic_string&lt;</text>
<text text-anchor="middle" x="510.5" y="-108.5" font-family="Helvetica,sans-Serif" font-size="10.00"> char &gt;</text>
</a>
</g>
</g>
<!-- Node9&#45;&gt;Node8 -->
<g id="edge8" class="edge">
<title>Node9&#45;&gt;Node8</title>
<path fill="none" stroke="midnightblue" d="M572.85,-116.05C628.49,-115.64 708.3,-115.06 752.14,-114.73"/>
<polygon fill="midnightblue" stroke="midnightblue" points="572.73,-112.55 562.76,-116.12 572.78,-119.55 572.73,-112.55"/>
</g>
<!-- Node10 -->
<g id="node10" class="node">
<title>Node10</title>
<g id="a_node10"><a xlink:href="classitk_1_1MetaDataDictionary.html" target="_top" xlink:title="Provides a mechanism for storing a collection of arbitrary data types.">
<polygon fill="white" stroke="black" points="718,-63 718,-82 852,-82 852,-63 718,-63"/>
<text text-anchor="middle" x="785" y="-70" font-family="Helvetica,sans-Serif" font-size="10.00">itk::MetaDataDictionary</text>
</a>
</g>
</g>
<!-- Node10&#45;&gt;Node3 -->
<g id="edge9" class="edge">
<title>Node10&#45;&gt;Node3</title>
<path fill="none" stroke="#9a32cd" stroke-dasharray="5,2" d="M862.1,-78.46C905.69,-82.67 961.25,-89.4 1010,-99.5 1016.99,-100.95 1024.4,-102.91 1031.34,-104.93"/>
<polygon fill="#9a32cd" stroke="#9a32cd" points="862.43,-74.97 852.14,-77.52 861.77,-81.94 862.43,-74.97"/>
<text text-anchor="middle" x="940" y="-102.5" font-family="Helvetica,sans-Serif" font-size="10.00"> m_MetaDataDictionary</text>
</g>
<!-- Node11 -->
<g id="node11" class="node">
<title>Node11</title>
<g id="a_node11"><a xlink:title=" ">
<polygon fill="white" stroke="#bfbfbf" points="436,-52.5 436,-82.5 585,-82.5 585,-52.5 436,-52.5"/>
<text text-anchor="start" x="444" y="-70.5" font-family="Helvetica,sans-Serif" font-size="10.00">std::shared_ptr&lt; MetaData</text>
<text text-anchor="middle" x="510.5" y="-59.5" font-family="Helvetica,sans-Serif" font-size="10.00">DictionaryMapType &gt;</text>
</a>
</g>
</g>
<!-- Node11&#45;&gt;Node10 -->
<g id="edge10" class="edge">
<title>Node11&#45;&gt;Node10</title>
<path fill="none" stroke="#9a32cd" stroke-dasharray="5,2" d="M595.34,-69.04C634.65,-69.76 680.82,-70.61 717.65,-71.28"/>
<polygon fill="#9a32cd" stroke="#9a32cd" points="595.3,-65.54 585.24,-68.85 595.18,-72.54 595.3,-65.54"/>
<text text-anchor="middle" x="651.5" y="-74.5" font-family="Helvetica,sans-Serif" font-size="10.00"> m_Dictionary</text>
</g>
<!-- Node12&#45;&gt;Node11 -->
<g id="edge11" class="edge">
<title>Node12&#45;&gt;Node11</title>
<path fill="none" stroke="#9a32cd" stroke-dasharray="5,2" d="M233.71,-54.35C290.23,-57.04 375.21,-61.1 435.9,-63.99"/>
<polygon fill="#9a32cd" stroke="#9a32cd" points="233.66,-50.84 223.5,-53.86 233.33,-57.83 233.66,-50.84"/>
<text text-anchor="middle" x="334" y="-66.5" font-family="Helvetica,sans-Serif" font-size="10.00"> ptr</text>
</g>
<!-- Node17 -->
<g id="node17" class="node">
<title>Node17</title>
<g id="a_node17"><a xlink:title=" ">
<polygon fill="white" stroke="#bfbfbf" points="870,-0.5 870,-30.5 1010,-30.5 1010,-0.5 870,-0.5"/>
<text text-anchor="start" x="878" y="-18.5" font-family="Helvetica,sans-Serif" font-size="10.00">std::map&lt; PointIdentifier</text>
<text text-anchor="middle" x="940" y="-7.5" font-family="Helvetica,sans-Serif" font-size="10.00">Type, IdentifierListType &gt;</text>
</a>
</g>
</g>
<!-- Node12&#45;&gt;Node17 -->
<g id="edge21" class="edge">
<title>Node12&#45;&gt;Node17</title>
<path fill="none" stroke="orange" stroke-dasharray="5,2" d="M233.5,-42.61C286.49,-35.13 366.22,-24.96 436,-20.5 590.7,-10.61 772.69,-12.03 869.75,-13.83"/>
<polygon fill="orange" stroke="orange" points="233,-39.14 223.59,-44.02 233.99,-46.07 233,-39.14"/>
<text text-anchor="start" x="456" y="-34.5" font-family="Helvetica,sans-Serif" font-size="10.00"> &lt; PointIdentifierType,</text>
<text text-anchor="middle" x="510.5" y="-23.5" font-family="Helvetica,sans-Serif" font-size="10.00"> IdentifierListType &gt;</text>
</g>
<!-- Node13 -->
<g id="node13" class="node">
<title>Node13</title>
<g id="a_node13"><a xlink:title=" ">
<polygon fill="white" stroke="#bfbfbf" points="0,-38 0,-57 29,-57 29,-38 0,-38"/>
<text text-anchor="middle" x="14.5" y="-45" font-family="Helvetica,sans-Serif" font-size="10.00">K</text>
</a>
</g>
</g>
<!-- Node13&#45;&gt;Node12 -->
<g id="edge12" class="edge">
<title>Node13&#45;&gt;Node12</title>
<path fill="none" stroke="#9a32cd" stroke-dasharray="5,2" d="M39.28,-47.63C55.31,-47.75 76.93,-48.01 96,-48.5 104.45,-48.72 113.42,-49.02 122.13,-49.34"/>
<polygon fill="#9a32cd" stroke="#9a32cd" points="39.2,-44.13 29.18,-47.56 39.15,-51.13 39.2,-44.13"/>
<text text-anchor="middle" x="71.5" y="-51.5" font-family="Helvetica,sans-Serif" font-size="10.00"> keys</text>
</g>
<!-- Node14&#45;&gt;Node11 -->
<g id="edge14" class="edge">
<title>Node14&#45;&gt;Node11</title>
<path fill="none" stroke="orange" stroke-dasharray="5,2" d="M242.27,-102.55C298.5,-95.17 378.06,-84.74 435.74,-77.17"/>
<polygon fill="orange" stroke="orange" points="241.52,-99.12 232.06,-103.89 242.43,-106.06 241.52,-99.12"/>
<text text-anchor="middle" x="334" y="-104.5" font-family="Helvetica,sans-Serif" font-size="10.00"> &lt; MetaDataDictionaryMapType &gt;</text>
</g>
<!-- Node15&#45;&gt;Node3 -->
<g id="edge16" class="edge">
<title>Node15&#45;&gt;Node3</title>
<path fill="none" stroke="#9a32cd" stroke-dasharray="5,2" d="M707.99,-199.61C780.16,-199.19 908.94,-192.04 1010,-151.5 1025.74,-145.19 1041.05,-132.83 1050.61,-124.14"/>
<polygon fill="#9a32cd" stroke="#9a32cd" points="707.76,-196.11 697.77,-199.62 707.77,-203.11 707.76,-196.11"/>
<text text-anchor="middle" x="785" y="-201.5" font-family="Helvetica,sans-Serif" font-size="10.00"> m_MTime</text>
</g>
<!-- Node16&#45;&gt;Node2 -->
<g id="edge18" class="edge">
<title>Node16&#45;&gt;Node2</title>
<path fill="none" stroke="orange" stroke-dasharray="5,2" d="M1298.05,-99.06C1325.38,-94.21 1355.35,-88.89 1381.94,-84.17"/>
<polygon fill="orange" stroke="orange" points="1297.34,-95.63 1288.11,-100.82 1298.57,-102.52 1297.34,-95.63"/>
<text text-anchor="middle" x="1335" y="-99.5" font-family="Helvetica,sans-Serif" font-size="10.00"> &lt; TMesh &gt;</text>
</g>
<!-- Node17&#45;&gt;Node1 -->
<g id="edge20" class="edge">
<title>Node17&#45;&gt;Node1</title>
<path fill="none" stroke="#9a32cd" stroke-dasharray="5,2" d="M1020.15,-20.07C1049.33,-21.4 1082.66,-22.5 1113,-22.5 1113,-22.5 1113,-22.5 1461,-22.5 1498.54,-22.5 1540.16,-24.84 1574.93,-27.45"/>
<polygon fill="#9a32cd" stroke="#9a32cd" points="1020.17,-16.57 1010.02,-19.59 1019.84,-23.56 1020.17,-16.57"/>
<text text-anchor="middle" x="1210" y="-25.5" font-family="Helvetica,sans-Serif" font-size="10.00"> m_ListDomain</text>
</g>
</g>
</svg>
