<?xml version="1.0" encoding="UTF-8" standalone="no"?>
<!DOCTYPE svg PUBLIC "-//W3C//DTD SVG 1.1//EN"
 "http://www.w3.org/Graphics/SVG/1.1/DTD/svg11.dtd">
<!-- Generated by graphviz version 2.43.0 (0)
 -->
<!-- Title: itk::MatrixOffsetTransformBase&lt; TParametersValueType, VInputDimension, VOutputDimension &gt; Pages: 1 -->
<svg width="2143pt" height="324pt"
 viewBox="0.00 0.00 2143.00 323.50" xmlns="http://www.w3.org/2000/svg" xmlns:xlink="http://www.w3.org/1999/xlink">
<g id="graph0" class="graph" transform="scale(1 1) rotate(0) translate(4 319.5)">
<title>itk::MatrixOffsetTransformBase&lt; TParametersValueType, VInputDimension, VOutputDimension &gt;</title>
<polygon fill="white" stroke="transparent" points="-4,4 -4,-319.5 2139,-319.5 2139,4 -4,4"/>
<!-- Node1 -->
<g id="node1" class="node">
<title>Node1</title>
<g id="a_node1"><a xlink:title="Matrix and Offset transformation of a vector space (e.g. space coordinates)">
<polygon fill="#bfbfbf" stroke="black" points="1922,-137 1922,-178 2135,-178 2135,-137 1922,-137"/>
<text text-anchor="start" x="1930" y="-166" font-family="Helvetica,sans-Serif" font-size="10.00">itk::MatrixOffsetTransform</text>
<text text-anchor="start" x="1930" y="-155" font-family="Helvetica,sans-Serif" font-size="10.00">Base&lt; TParametersValueType,</text>
<text text-anchor="middle" x="2028.5" y="-144" font-family="Helvetica,sans-Serif" font-size="10.00"> VInputDimension, VOutputDimension &gt;</text>
</a>
</g>
</g>
<!-- Node2 -->
<g id="node2" class="node">
<title>Node2</title>
<g id="a_node2"><a xlink:href="classitk_1_1Transform.html" target="_top" xlink:title=" ">
<polygon fill="white" stroke="black" points="1649.5,-220.5 1649.5,-250.5 1780.5,-250.5 1780.5,-220.5 1649.5,-220.5"/>
<text text-anchor="start" x="1657.5" y="-238.5" font-family="Helvetica,sans-Serif" font-size="10.00">itk::Transform&lt; double,</text>
<text text-anchor="middle" x="1715" y="-227.5" font-family="Helvetica,sans-Serif" font-size="10.00"> 3, 3 &gt;</text>
</a>
</g>
</g>
<!-- Node2&#45;&gt;Node1 -->
<g id="edge1" class="edge">
<title>Node2&#45;&gt;Node1</title>
<path fill="none" stroke="midnightblue" d="M1785.91,-217.99C1833.22,-206.15 1895.89,-190.46 1945.54,-178.02"/>
<polygon fill="midnightblue" stroke="midnightblue" points="1784.91,-214.64 1776.06,-220.46 1786.61,-221.43 1784.91,-214.64"/>
</g>
<!-- Node3 -->
<g id="node3" class="node">
<title>Node3</title>
<g id="a_node3"><a xlink:href="classitk_1_1TransformBaseTemplate.html" target="_top" xlink:title=" ">
<polygon fill="white" stroke="black" points="1440,-184.5 1440,-214.5 1593,-214.5 1593,-184.5 1440,-184.5"/>
<text text-anchor="start" x="1448" y="-202.5" font-family="Helvetica,sans-Serif" font-size="10.00">itk::TransformBaseTemplate</text>
<text text-anchor="middle" x="1516.5" y="-191.5" font-family="Helvetica,sans-Serif" font-size="10.00">&lt; double &gt;</text>
</a>
</g>
</g>
<!-- Node3&#45;&gt;Node2 -->
<g id="edge2" class="edge">
<title>Node3&#45;&gt;Node2</title>
<path fill="none" stroke="midnightblue" d="M1603.25,-215.21C1618.67,-218.04 1634.51,-220.94 1649.22,-223.63"/>
<polygon fill="midnightblue" stroke="midnightblue" points="1603.66,-211.73 1593.19,-213.37 1602.4,-218.61 1603.66,-211.73"/>
</g>
<!-- Node4 -->
<g id="node4" class="node">
<title>Node4</title>
<g id="a_node4"><a xlink:href="classitk_1_1Object.html" target="_top" xlink:title="Base class for most ITK classes.">
<polygon fill="white" stroke="black" points="1235,-190 1235,-209 1302,-209 1302,-190 1235,-190"/>
<text text-anchor="middle" x="1268.5" y="-197" font-family="Helvetica,sans-Serif" font-size="10.00">itk::Object</text>
</a>
</g>
</g>
<!-- Node4&#45;&gt;Node3 -->
<g id="edge3" class="edge">
<title>Node4&#45;&gt;Node3</title>
<path fill="none" stroke="midnightblue" d="M1312.55,-199.5C1347.66,-199.5 1398.12,-199.5 1439.93,-199.5"/>
<polygon fill="midnightblue" stroke="midnightblue" points="1312.17,-196 1302.17,-199.5 1312.17,-203 1312.17,-196"/>
</g>
<!-- Node5 -->
<g id="node5" class="node">
<title>Node5</title>
<g id="a_node5"><a xlink:href="classitk_1_1LightObject.html" target="_top" xlink:title="Light weight base class for most itk classes.">
<polygon fill="white" stroke="black" points="932,-145 932,-164 1023,-164 1023,-145 932,-145"/>
<text text-anchor="middle" x="977.5" y="-152" font-family="Helvetica,sans-Serif" font-size="10.00">itk::LightObject</text>
</a>
</g>
</g>
<!-- Node5&#45;&gt;Node4 -->
<g id="edge4" class="edge">
<title>Node5&#45;&gt;Node4</title>
<path fill="none" stroke="midnightblue" d="M1032.98,-162.98C1092.37,-172.23 1185.49,-186.73 1234.61,-194.38"/>
<polygon fill="midnightblue" stroke="midnightblue" points="1033.44,-159.51 1023.02,-161.43 1032.37,-166.43 1033.44,-159.51"/>
</g>
<!-- Node6 -->
<g id="node6" class="node">
<title>Node6</title>
<g id="a_node6"><a xlink:title=" ">
<polygon fill="white" stroke="black" points="655.5,-145 655.5,-164 762.5,-164 762.5,-145 655.5,-145"/>
<text text-anchor="middle" x="709" y="-152" font-family="Helvetica,sans-Serif" font-size="10.00">std::atomic&lt; int &gt;</text>
</a>
</g>
</g>
<!-- Node6&#45;&gt;Node5 -->
<g id="edge5" class="edge">
<title>Node6&#45;&gt;Node5</title>
<path fill="none" stroke="#9a32cd" stroke-dasharray="5,2" d="M772.8,-154.5C821.7,-154.5 888.37,-154.5 931.92,-154.5"/>
<polygon fill="#9a32cd" stroke="#9a32cd" points="772.65,-151 762.65,-154.5 772.65,-158 772.65,-151"/>
<text text-anchor="middle" x="842.5" y="-157.5" font-family="Helvetica,sans-Serif" font-size="10.00"> m_ReferenceCount</text>
</g>
<!-- Node7 -->
<g id="node7" class="node">
<title>Node7</title>
<g id="a_node7"><a xlink:href="classitk_1_1TimeStamp.html" target="_top" xlink:title="Generate a unique, increasing time value.">
<polygon fill="white" stroke="black" points="931.5,-282 931.5,-301 1023.5,-301 1023.5,-282 931.5,-282"/>
<text text-anchor="middle" x="977.5" y="-289" font-family="Helvetica,sans-Serif" font-size="10.00">itk::TimeStamp</text>
</a>
</g>
</g>
<!-- Node7&#45;&gt;Node1 -->
<g id="edge27" class="edge">
<title>Node7&#45;&gt;Node1</title>
<path fill="none" stroke="#9a32cd" stroke-dasharray="5,2" d="M1033.62,-292.11C1091.78,-292.7 1186.09,-293.5 1267.5,-293.5 1267.5,-293.5 1267.5,-293.5 1716,-293.5 1829.89,-293.5 1949.1,-216.2 2000.88,-178.16"/>
<polygon fill="#9a32cd" stroke="#9a32cd" points="1033.59,-288.61 1023.55,-292 1033.52,-295.61 1033.59,-288.61"/>
<text text-anchor="middle" x="1516.5" y="-307.5" font-family="Helvetica,sans-Serif" font-size="10.00"> m_InverseMatrixMTime</text>
<text text-anchor="middle" x="1516.5" y="-296.5" font-family="Helvetica,sans-Serif" font-size="10.00">m_MatrixMTime</text>
</g>
<!-- Node7&#45;&gt;Node4 -->
<g id="edge6" class="edge">
<title>Node7&#45;&gt;Node4</title>
<path fill="none" stroke="#9a32cd" stroke-dasharray="5,2" d="M1020.87,-279.28C1034.57,-275.55 1049.87,-271.62 1064,-268.5 1122.58,-255.58 1141.17,-267.45 1197,-245.5 1219.58,-236.62 1242.52,-219.92 1255.86,-209.27"/>
<polygon fill="#9a32cd" stroke="#9a32cd" points="1019.92,-275.91 1011.21,-281.95 1021.78,-282.66 1019.92,-275.91"/>
<text text-anchor="middle" x="1130.5" y="-271.5" font-family="Helvetica,sans-Serif" font-size="10.00"> m_MTime</text>
</g>
<!-- Node8 -->
<g id="node8" class="node">
<title>Node8</title>
<g id="a_node8"><a xlink:title=" ">
<polygon fill="white" stroke="black" points="233,-281 233,-300 333,-300 333,-281 233,-281"/>
<text text-anchor="middle" x="283" y="-288" font-family="Helvetica,sans-Serif" font-size="10.00">std::atomic&lt; T &gt;</text>
</a>
</g>
</g>
<!-- Node8&#45;&gt;Node7 -->
<g id="edge7" class="edge">
<title>Node8&#45;&gt;Node7</title>
<path fill="none" stroke="#9a32cd" stroke-dasharray="5,2" d="M343.46,-290.59C479.32,-290.78 810.08,-291.26 931.14,-291.43"/>
<polygon fill="#9a32cd" stroke="#9a32cd" points="343.25,-287.09 333.25,-290.57 343.24,-294.09 343.25,-287.09"/>
<text text-anchor="middle" x="571" y="-293.5" font-family="Helvetica,sans-Serif" font-size="10.00"> m_GlobalTimeStamp</text>
</g>
<!-- Node9 -->
<g id="node9" class="node">
<title>Node9</title>
<g id="a_node9"><a xlink:title=" ">
<polygon fill="white" stroke="black" points="0,-266 0,-285 29,-285 29,-266 0,-266"/>
<text text-anchor="middle" x="14.5" y="-273" font-family="Helvetica,sans-Serif" font-size="10.00">T</text>
</a>
</g>
</g>
<!-- Node9&#45;&gt;Node8 -->
<g id="edge8" class="edge">
<title>Node9&#45;&gt;Node8</title>
<path fill="none" stroke="#9a32cd" stroke-dasharray="5,2" d="M39.23,-276.84C82.59,-279.28 175.47,-284.5 232.94,-287.74"/>
<polygon fill="#9a32cd" stroke="#9a32cd" points="39.26,-273.33 29.08,-276.26 38.87,-280.32 39.26,-273.33"/>
<text text-anchor="middle" x="71.5" y="-282.5" font-family="Helvetica,sans-Serif" font-size="10.00"> ptr</text>
</g>
<!-- Node14 -->
<g id="node14" class="node">
<title>Node14</title>
<g id="a_node14"><a xlink:title=" ">
<polygon fill="white" stroke="black" points="114,-213 114,-232 215,-232 215,-213 114,-213"/>
<text text-anchor="middle" x="164.5" y="-220" font-family="Helvetica,sans-Serif" font-size="10.00">std::map&lt; K, T &gt;</text>
</a>
</g>
</g>
<!-- Node9&#45;&gt;Node14 -->
<g id="edge15" class="edge">
<title>Node9&#45;&gt;Node14</title>
<path fill="none" stroke="#9a32cd" stroke-dasharray="5,2" d="M38.18,-261.74C41.1,-260.21 44.08,-258.75 47,-257.5 71.84,-246.84 100.96,-238.09 123.88,-232"/>
<polygon fill="#9a32cd" stroke="#9a32cd" points="36.28,-258.79 29.26,-266.73 39.7,-264.9 36.28,-258.79"/>
<text text-anchor="middle" x="71.5" y="-260.5" font-family="Helvetica,sans-Serif" font-size="10.00"> elements</text>
</g>
<!-- Node10 -->
<g id="node10" class="node">
<title>Node10</title>
<g id="a_node10"><a xlink:title=" ">
<polygon fill="white" stroke="black" points="909,-232.5 909,-262.5 1046,-262.5 1046,-232.5 909,-232.5"/>
<text text-anchor="start" x="917" y="-250.5" font-family="Helvetica,sans-Serif" font-size="10.00">std::unique_ptr&lt; Subject</text>
<text text-anchor="middle" x="977.5" y="-239.5" font-family="Helvetica,sans-Serif" font-size="10.00">Implementation &gt;</text>
</a>
</g>
</g>
<!-- Node10&#45;&gt;Node4 -->
<g id="edge9" class="edge">
<title>Node10&#45;&gt;Node4</title>
<path fill="none" stroke="#9a32cd" stroke-dasharray="5,2" d="M1056.52,-234.75C1098.21,-227.91 1150.41,-219.3 1197,-211.5 1209.37,-209.43 1222.95,-207.12 1234.86,-205.09"/>
<polygon fill="#9a32cd" stroke="#9a32cd" points="1055.73,-231.33 1046.43,-236.4 1056.86,-238.24 1055.73,-231.33"/>
<text text-anchor="middle" x="1130.5" y="-235.5" font-family="Helvetica,sans-Serif" font-size="10.00"> m_SubjectImplementation</text>
</g>
<!-- Node11 -->
<g id="node11" class="node">
<title>Node11</title>
<g id="a_node11"><a xlink:title=" ">
<polygon fill="white" stroke="black" points="911.5,-183.5 911.5,-213.5 1043.5,-213.5 1043.5,-183.5 911.5,-183.5"/>
<text text-anchor="start" x="919.5" y="-201.5" font-family="Helvetica,sans-Serif" font-size="10.00">std::unique_ptr&lt; itk</text>
<text text-anchor="middle" x="977.5" y="-190.5" font-family="Helvetica,sans-Serif" font-size="10.00">::MetaDataDictionary &gt;</text>
</a>
</g>
</g>
<!-- Node11&#45;&gt;Node4 -->
<g id="edge10" class="edge">
<title>Node11&#45;&gt;Node4</title>
<path fill="none" stroke="#9a32cd" stroke-dasharray="5,2" d="M1054.05,-198.76C1112.69,-198.96 1191.12,-199.24 1234.73,-199.39"/>
<polygon fill="#9a32cd" stroke="#9a32cd" points="1053.73,-195.26 1043.72,-198.73 1053.71,-202.26 1053.73,-195.26"/>
<text text-anchor="middle" x="1130.5" y="-201.5" font-family="Helvetica,sans-Serif" font-size="10.00"> m_MetaDataDictionary</text>
</g>
<!-- Node12 -->
<g id="node12" class="node">
<title>Node12</title>
<g id="a_node12"><a xlink:href="classitk_1_1MetaDataDictionary.html" target="_top" xlink:title="Provides a mechanism for storing a collection of arbitrary data types.">
<polygon fill="white" stroke="black" points="642,-201 642,-220 776,-220 776,-201 642,-201"/>
<text text-anchor="middle" x="709" y="-208" font-family="Helvetica,sans-Serif" font-size="10.00">itk::MetaDataDictionary</text>
</a>
</g>
</g>
<!-- Node12&#45;&gt;Node11 -->
<g id="edge11" class="edge">
<title>Node12&#45;&gt;Node11</title>
<path fill="none" stroke="#9a32cd" stroke-dasharray="5,2" d="M786.32,-207.06C825.74,-205.29 873.36,-203.14 911.08,-201.45"/>
<polygon fill="#9a32cd" stroke="#9a32cd" points="786.05,-203.57 776.22,-207.52 786.37,-210.56 786.05,-203.57"/>
<text text-anchor="middle" x="842.5" y="-209.5" font-family="Helvetica,sans-Serif" font-size="10.00"> ptr</text>
</g>
<!-- Node13 -->
<g id="node13" class="node">
<title>Node13</title>
<g id="a_node13"><a xlink:title=" ">
<polygon fill="white" stroke="black" points="351,-198.5 351,-228.5 500,-228.5 500,-198.5 351,-198.5"/>
<text text-anchor="start" x="359" y="-216.5" font-family="Helvetica,sans-Serif" font-size="10.00">std::shared_ptr&lt; MetaData</text>
<text text-anchor="middle" x="425.5" y="-205.5" font-family="Helvetica,sans-Serif" font-size="10.00">DictionaryMapType &gt;</text>
</a>
</g>
</g>
<!-- Node13&#45;&gt;Node12 -->
<g id="edge12" class="edge">
<title>Node13&#45;&gt;Node12</title>
<path fill="none" stroke="#9a32cd" stroke-dasharray="5,2" d="M510.29,-212.61C552.24,-212.16 602.31,-211.63 641.57,-211.21"/>
<polygon fill="#9a32cd" stroke="#9a32cd" points="510.06,-209.11 500.09,-212.72 510.13,-216.11 510.06,-209.11"/>
<text text-anchor="middle" x="571" y="-214.5" font-family="Helvetica,sans-Serif" font-size="10.00"> m_Dictionary</text>
</g>
<!-- Node14&#45;&gt;Node13 -->
<g id="edge13" class="edge">
<title>Node14&#45;&gt;Node13</title>
<path fill="none" stroke="#9a32cd" stroke-dasharray="5,2" d="M225.34,-220.42C262.61,-219.13 310.86,-217.45 350.52,-216.07"/>
<polygon fill="#9a32cd" stroke="#9a32cd" points="225,-216.93 215.13,-220.78 225.25,-223.93 225,-216.93"/>
<text text-anchor="middle" x="283" y="-222.5" font-family="Helvetica,sans-Serif" font-size="10.00"> ptr</text>
</g>
<!-- Node15 -->
<g id="node15" class="node">
<title>Node15</title>
<g id="a_node15"><a xlink:title=" ">
<polygon fill="white" stroke="black" points="0,-213 0,-232 29,-232 29,-213 0,-213"/>
<text text-anchor="middle" x="14.5" y="-220" font-family="Helvetica,sans-Serif" font-size="10.00">K</text>
</a>
</g>
</g>
<!-- Node15&#45;&gt;Node14 -->
<g id="edge14" class="edge">
<title>Node15&#45;&gt;Node14</title>
<path fill="none" stroke="#9a32cd" stroke-dasharray="5,2" d="M39.24,-222.5C59.28,-222.5 88.63,-222.5 113.78,-222.5"/>
<polygon fill="#9a32cd" stroke="#9a32cd" points="39.16,-219 29.16,-222.5 39.16,-226 39.16,-219"/>
<text text-anchor="middle" x="71.5" y="-225.5" font-family="Helvetica,sans-Serif" font-size="10.00"> keys</text>
</g>
<!-- Node16 -->
<g id="node16" class="node">
<title>Node16</title>
<g id="a_node16"><a xlink:title=" ">
<polygon fill="white" stroke="black" points="945,-99 945,-118 1010,-118 1010,-99 945,-99"/>
<text text-anchor="middle" x="977.5" y="-106" font-family="Helvetica,sans-Serif" font-size="10.00">std::string</text>
</a>
</g>
</g>
<!-- Node16&#45;&gt;Node3 -->
<g id="edge18" class="edge">
<title>Node16&#45;&gt;Node3</title>
<path fill="none" stroke="#9a32cd" stroke-dasharray="5,2" d="M1020.24,-108.75C1064.38,-109.53 1135.95,-112.29 1197,-121.5 1293.68,-136.09 1403.99,-166.21 1466.13,-184.46"/>
<polygon fill="#9a32cd" stroke="#9a32cd" points="1020.22,-105.25 1010.17,-108.6 1020.11,-112.25 1020.22,-105.25"/>
<text text-anchor="middle" x="1268.5" y="-159.5" font-family="Helvetica,sans-Serif" font-size="10.00"> m_InputSpaceName</text>
<text text-anchor="middle" x="1268.5" y="-148.5" font-family="Helvetica,sans-Serif" font-size="10.00">m_OutputSpaceName</text>
</g>
<!-- Node16&#45;&gt;Node4 -->
<g id="edge16" class="edge">
<title>Node16&#45;&gt;Node4</title>
<path fill="none" stroke="#9a32cd" stroke-dasharray="5,2" d="M1020.33,-112.41C1065.34,-117.69 1138.36,-129.35 1197,-153.5 1219.43,-162.74 1242.42,-179.34 1255.8,-189.87"/>
<polygon fill="#9a32cd" stroke="#9a32cd" points="1020.67,-108.93 1010.34,-111.29 1019.89,-115.88 1020.67,-108.93"/>
<text text-anchor="middle" x="1130.5" y="-156.5" font-family="Helvetica,sans-Serif" font-size="10.00"> m_ObjectName</text>
</g>
<!-- Node17 -->
<g id="node17" class="node">
<title>Node17</title>
<g id="a_node17"><a xlink:title=" ">
<polygon fill="white" stroke="black" points="657,-93.5 657,-123.5 761,-123.5 761,-93.5 657,-93.5"/>
<text text-anchor="start" x="665" y="-111.5" font-family="Helvetica,sans-Serif" font-size="10.00">std::basic_string&lt;</text>
<text text-anchor="middle" x="709" y="-100.5" font-family="Helvetica,sans-Serif" font-size="10.00"> Char &gt;</text>
</a>
</g>
</g>
<!-- Node17&#45;&gt;Node16 -->
<g id="edge17" class="edge">
<title>Node17&#45;&gt;Node16</title>
<path fill="none" stroke="midnightblue" d="M771.24,-108.5C825.37,-108.5 902.16,-108.5 944.82,-108.5"/>
<polygon fill="midnightblue" stroke="midnightblue" points="771.07,-105 761.07,-108.5 771.07,-112 771.07,-105"/>
</g>
<!-- Node18 -->
<g id="node18" class="node">
<title>Node18</title>
<g id="a_node18"><a xlink:href="classitk_1_1Matrix.html" target="_top" xlink:title=" ">
<polygon fill="white" stroke="black" points="1634.5,-160 1634.5,-201 1795.5,-201 1795.5,-160 1634.5,-160"/>
<text text-anchor="start" x="1642.5" y="-189" font-family="Helvetica,sans-Serif" font-size="10.00">itk::Matrix&lt; double,</text>
<text text-anchor="start" x="1642.5" y="-178" font-family="Helvetica,sans-Serif" font-size="10.00"> Self::OutputSpaceDimension,</text>
<text text-anchor="middle" x="1715" y="-167" font-family="Helvetica,sans-Serif" font-size="10.00"> Self::InputSpaceDimension &gt;</text>
</a>
</g>
</g>
<!-- Node18&#45;&gt;Node1 -->
<g id="edge19" class="edge">
<title>Node18&#45;&gt;Node1</title>
<path fill="none" stroke="#9a32cd" stroke-dasharray="5,2" d="M1805.86,-173.86C1842.06,-171.19 1884.08,-168.09 1921.74,-165.31"/>
<polygon fill="#9a32cd" stroke="#9a32cd" points="1805.53,-170.38 1795.81,-174.61 1806.05,-177.36 1805.53,-170.38"/>
<text text-anchor="middle" x="1861" y="-174.5" font-family="Helvetica,sans-Serif" font-size="10.00"> m_Matrix</text>
</g>
<!-- Node19 -->
<g id="node19" class="node">
<title>Node19</title>
<g id="a_node19"><a xlink:href="classitk_1_1Vector.html" target="_top" xlink:title=" ">
<polygon fill="white" stroke="black" points="1630,-110.5 1630,-140.5 1800,-140.5 1800,-110.5 1630,-110.5"/>
<text text-anchor="start" x="1638" y="-128.5" font-family="Helvetica,sans-Serif" font-size="10.00">itk::Vector&lt; double,</text>
<text text-anchor="middle" x="1715" y="-117.5" font-family="Helvetica,sans-Serif" font-size="10.00"> Self::OutputSpaceDimension &gt;</text>
</a>
</g>
</g>
<!-- Node19&#45;&gt;Node1 -->
<g id="edge20" class="edge">
<title>Node19&#45;&gt;Node1</title>
<path fill="none" stroke="#9a32cd" stroke-dasharray="5,2" d="M1810.35,-131.97C1840.33,-134.31 1873.59,-137.2 1904,-140.5 1909.81,-141.13 1915.77,-141.82 1921.78,-142.54"/>
<polygon fill="#9a32cd" stroke="#9a32cd" points="1810.56,-128.47 1800.32,-131.2 1810.03,-135.45 1810.56,-128.47"/>
<text text-anchor="middle" x="1861" y="-154.5" font-family="Helvetica,sans-Serif" font-size="10.00"> m_Offset</text>
<text text-anchor="middle" x="1861" y="-143.5" font-family="Helvetica,sans-Serif" font-size="10.00">m_Translation</text>
</g>
<!-- Node20 -->
<g id="node20" class="node">
<title>Node20</title>
<g id="a_node20"><a xlink:href="classitk_1_1FixedArray.html" target="_top" xlink:title=" ">
<polygon fill="white" stroke="black" points="1449.5,-82.5 1449.5,-112.5 1583.5,-112.5 1583.5,-82.5 1449.5,-82.5"/>
<text text-anchor="start" x="1457.5" y="-100.5" font-family="Helvetica,sans-Serif" font-size="10.00">itk::FixedArray&lt; double,</text>
<text text-anchor="middle" x="1516.5" y="-89.5" font-family="Helvetica,sans-Serif" font-size="10.00"> VVectorDimension &gt;</text>
</a>
</g>
</g>
<!-- Node20&#45;&gt;Node19 -->
<g id="edge21" class="edge">
<title>Node20&#45;&gt;Node19</title>
<path fill="none" stroke="midnightblue" d="M1593.97,-108.4C1605.75,-110.08 1617.98,-111.82 1629.91,-113.52"/>
<polygon fill="midnightblue" stroke="midnightblue" points="1594.15,-104.89 1583.75,-106.94 1593.16,-111.82 1594.15,-104.89"/>
</g>
<!-- Node21 -->
<g id="node21" class="node">
<title>Node21</title>
<g id="a_node21"><a xlink:href="classVLength.html" target="_top" xlink:title=" ">
<polygon fill="white" stroke="black" points="1240.5,-45 1240.5,-64 1296.5,-64 1296.5,-45 1240.5,-45"/>
<text text-anchor="middle" x="1268.5" y="-52" font-family="Helvetica,sans-Serif" font-size="10.00">VLength</text>
</a>
</g>
</g>
<!-- Node21&#45;&gt;Node20 -->
<g id="edge22" class="edge">
<title>Node21&#45;&gt;Node20</title>
<path fill="none" stroke="#9a32cd" stroke-dasharray="5,2" d="M1306.81,-61.02C1344.52,-67.61 1403.6,-77.94 1449.28,-85.93"/>
<polygon fill="#9a32cd" stroke="#9a32cd" points="1307.22,-57.54 1296.77,-59.27 1306.01,-64.44 1307.22,-57.54"/>
<text text-anchor="middle" x="1381" y="-83.5" font-family="Helvetica,sans-Serif" font-size="10.00"> m_InternalArray</text>
</g>
<!-- Node24 -->
<g id="node24" class="node">
<title>Node24</title>
<g id="a_node24"><a xlink:href="classitk_1_1FixedArray.html" target="_top" xlink:title=" ">
<polygon fill="white" stroke="black" points="1449.5,-25.5 1449.5,-55.5 1583.5,-55.5 1583.5,-25.5 1449.5,-25.5"/>
<text text-anchor="start" x="1457.5" y="-43.5" font-family="Helvetica,sans-Serif" font-size="10.00">itk::FixedArray&lt; double,</text>
<text text-anchor="middle" x="1516.5" y="-32.5" font-family="Helvetica,sans-Serif" font-size="10.00"> VPointDimension &gt;</text>
</a>
</g>
</g>
<!-- Node21&#45;&gt;Node24 -->
<g id="edge26" class="edge">
<title>Node21&#45;&gt;Node24</title>
<path fill="none" stroke="#9a32cd" stroke-dasharray="5,2" d="M1306.54,-50.41C1317.32,-49.33 1329.12,-48.26 1340,-47.5 1376.05,-44.99 1416.33,-43.31 1449.2,-42.22"/>
<polygon fill="#9a32cd" stroke="#9a32cd" points="1306.17,-46.93 1296.59,-51.43 1306.89,-53.89 1306.17,-46.93"/>
<text text-anchor="middle" x="1381" y="-50.5" font-family="Helvetica,sans-Serif" font-size="10.00"> m_InternalArray</text>
</g>
<!-- Node22 -->
<g id="node22" class="node">
<title>Node22</title>
<g id="a_node22"><a xlink:href="classitk_1_1Matrix.html" target="_top" xlink:title=" ">
<polygon fill="white" stroke="black" points="1630,-50 1630,-91 1800,-91 1800,-50 1630,-50"/>
<text text-anchor="start" x="1638" y="-79" font-family="Helvetica,sans-Serif" font-size="10.00">itk::Matrix&lt; double,</text>
<text text-anchor="start" x="1638" y="-68" font-family="Helvetica,sans-Serif" font-size="10.00"> Self::InputSpaceDimension,</text>
<text text-anchor="middle" x="1715" y="-57" font-family="Helvetica,sans-Serif" font-size="10.00"> Self::OutputSpaceDimension &gt;</text>
</a>
</g>
</g>
<!-- Node22&#45;&gt;Node1 -->
<g id="edge23" class="edge">
<title>Node22&#45;&gt;Node1</title>
<path fill="none" stroke="#9a32cd" stroke-dasharray="5,2" d="M1810.16,-92.7C1840.26,-100.16 1873.64,-108.8 1904,-117.5 1924.58,-123.4 1946.9,-130.43 1966.82,-136.94"/>
<polygon fill="#9a32cd" stroke="#9a32cd" points="1810.63,-89.22 1800.09,-90.22 1808.96,-96.01 1810.63,-89.22"/>
<text text-anchor="middle" x="1861" y="-120.5" font-family="Helvetica,sans-Serif" font-size="10.00"> m_InverseMatrix</text>
</g>
<!-- Node23 -->
<g id="node23" class="node">
<title>Node23</title>
<g id="a_node23"><a xlink:href="classitk_1_1Point.html" target="_top" xlink:title=" ">
<polygon fill="white" stroke="black" points="1634.5,-0.5 1634.5,-30.5 1795.5,-30.5 1795.5,-0.5 1634.5,-0.5"/>
<text text-anchor="start" x="1642.5" y="-18.5" font-family="Helvetica,sans-Serif" font-size="10.00">itk::Point&lt; double,</text>
<text text-anchor="middle" x="1715" y="-7.5" font-family="Helvetica,sans-Serif" font-size="10.00"> Self::InputSpaceDimension &gt;</text>
</a>
</g>
</g>
<!-- Node23&#45;&gt;Node1 -->
<g id="edge24" class="edge">
<title>Node23&#45;&gt;Node1</title>
<path fill="none" stroke="#9a32cd" stroke-dasharray="5,2" d="M1778.81,-33.61C1785.98,-35.85 1793.17,-38.17 1800,-40.5 1846.88,-56.46 1859.68,-58.41 1904,-80.5 1937.47,-97.18 1973.52,-120.31 1997.98,-136.86"/>
<polygon fill="#9a32cd" stroke="#9a32cd" points="1779.66,-30.21 1769.07,-30.61 1777.6,-36.9 1779.66,-30.21"/>
<text text-anchor="middle" x="1861" y="-83.5" font-family="Helvetica,sans-Serif" font-size="10.00"> m_Center</text>
</g>
<!-- Node24&#45;&gt;Node23 -->
<g id="edge25" class="edge">
<title>Node24&#45;&gt;Node23</title>
<path fill="none" stroke="midnightblue" d="M1593.81,-30.79C1607.13,-29.1 1621.02,-27.33 1634.42,-25.62"/>
<polygon fill="midnightblue" stroke="midnightblue" points="1593.23,-27.34 1583.75,-32.07 1594.11,-34.28 1593.23,-27.34"/>
</g>
</g>
</svg>
