<?xml version="1.0" encoding="UTF-8" standalone="no"?>
<!DOCTYPE svg PUBLIC "-//W3C//DTD SVG 1.1//EN"
 "http://www.w3.org/Graphics/SVG/1.1/DTD/svg11.dtd">
<!-- Generated by graphviz version 2.43.0 (0)
 -->
<!-- Title: itk::LevelSetContainerBase&lt; TIdentifier, TLevelSet &gt; Pages: 1 -->
<svg width="948pt" height="100pt"
 viewBox="0.00 0.00 948.00 99.50" xmlns="http://www.w3.org/2000/svg" xmlns:xlink="http://www.w3.org/1999/xlink">
<g id="graph0" class="graph" transform="scale(1 1) rotate(0) translate(4 95.5)">
<title>itk::LevelSetContainerBase&lt; TIdentifier, TLevelSet &gt;</title>
<polygon fill="white" stroke="transparent" points="-4,4 -4,-95.5 944,-95.5 944,4 -4,4"/>
<!-- Node1 -->
<g id="node1" class="node">
<title>Node1</title>
<g id="a_node1"><a xlink:title="Container of level set.">
<polygon fill="#bfbfbf" stroke="black" points="232,-33 232,-63 381,-63 381,-33 232,-33"/>
<text text-anchor="start" x="240" y="-51" font-family="Helvetica,sans-Serif" font-size="10.00">itk::LevelSetContainerBase</text>
<text text-anchor="middle" x="306.5" y="-40" font-family="Helvetica,sans-Serif" font-size="10.00">&lt; TIdentifier, TLevelSet &gt;</text>
</a>
</g>
</g>
<!-- Node4 -->
<g id="node4" class="node">
<title>Node4</title>
<g id="a_node4"><a xlink:href="classitk_1_1LevelSetContainer.html" target="_top" xlink:title="Container of Level&#45;Sets.">
<polygon fill="white" stroke="black" points="582,-61 582,-91 725,-91 725,-61 582,-61"/>
<text text-anchor="start" x="590" y="-79" font-family="Helvetica,sans-Serif" font-size="10.00">itk::LevelSetContainer</text>
<text text-anchor="middle" x="653.5" y="-68" font-family="Helvetica,sans-Serif" font-size="10.00">&lt; TIdentifier, TLevelSet &gt;</text>
</a>
</g>
</g>
<!-- Node1&#45;&gt;Node4 -->
<g id="edge3" class="edge">
<title>Node1&#45;&gt;Node4</title>
<path fill="none" stroke="midnightblue" d="M391.35,-61.16C393.93,-61.46 396.48,-61.74 399,-62 460.6,-68.4 530.94,-71.99 581.87,-73.93"/>
<polygon fill="midnightblue" stroke="midnightblue" points="391.68,-57.67 381.33,-59.92 390.83,-64.62 391.68,-57.67"/>
</g>
<!-- Node5 -->
<g id="node5" class="node">
<title>Node5</title>
<g id="a_node5"><a xlink:href="classitk_1_1LevelSetContainerBase.html" target="_top" xlink:title=" ">
<polygon fill="white" stroke="black" points="560,-0.5 560,-41.5 747,-41.5 747,-0.5 560,-0.5"/>
<text text-anchor="start" x="568" y="-29.5" font-family="Helvetica,sans-Serif" font-size="10.00">itk::LevelSetContainerBase</text>
<text text-anchor="start" x="568" y="-18.5" font-family="Helvetica,sans-Serif" font-size="10.00">&lt; TIdentifier, LevelSetDenseImage</text>
<text text-anchor="middle" x="653.5" y="-7.5" font-family="Helvetica,sans-Serif" font-size="10.00">&lt; TImage &gt; &gt;</text>
</a>
</g>
</g>
<!-- Node1&#45;&gt;Node5 -->
<g id="edge4" class="edge">
<title>Node1&#45;&gt;Node5</title>
<path fill="none" stroke="orange" stroke-dasharray="5,2" d="M391.39,-40.62C393.96,-40.41 396.5,-40.2 399,-40 452.23,-35.68 511.77,-31.2 559.77,-27.67"/>
<polygon fill="orange" stroke="orange" points="391.08,-37.14 381.4,-41.46 391.66,-44.11 391.08,-37.14"/>
<text text-anchor="start" x="399" y="-54" font-family="Helvetica,sans-Serif" font-size="10.00"> &lt; TIdentifier, LevelSetDense</text>
<text text-anchor="middle" x="470.5" y="-43" font-family="Helvetica,sans-Serif" font-size="10.00">Image&lt; TImage &gt; &gt;</text>
</g>
<!-- Node2 -->
<g id="node2" class="node">
<title>Node2</title>
<g id="a_node2"><a xlink:href="classitk_1_1Object.html" target="_top" xlink:title="Base class for most ITK classes.">
<polygon fill="white" stroke="black" points="128,-38.5 128,-57.5 195,-57.5 195,-38.5 128,-38.5"/>
<text text-anchor="middle" x="161.5" y="-45.5" font-family="Helvetica,sans-Serif" font-size="10.00">itk::Object</text>
</a>
</g>
</g>
<!-- Node2&#45;&gt;Node1 -->
<g id="edge1" class="edge">
<title>Node2&#45;&gt;Node1</title>
<path fill="none" stroke="midnightblue" d="M205.49,-48C213.83,-48 222.78,-48 231.78,-48"/>
<polygon fill="midnightblue" stroke="midnightblue" points="205.31,-44.5 195.31,-48 205.31,-51.5 205.31,-44.5"/>
</g>
<!-- Node3 -->
<g id="node3" class="node">
<title>Node3</title>
<g id="a_node3"><a xlink:href="classitk_1_1LightObject.html" target="_top" xlink:title="Light weight base class for most itk classes.">
<polygon fill="white" stroke="black" points="0,-38.5 0,-57.5 91,-57.5 91,-38.5 0,-38.5"/>
<text text-anchor="middle" x="45.5" y="-45.5" font-family="Helvetica,sans-Serif" font-size="10.00">itk::LightObject</text>
</a>
</g>
</g>
<!-- Node3&#45;&gt;Node2 -->
<g id="edge2" class="edge">
<title>Node3&#45;&gt;Node2</title>
<path fill="none" stroke="midnightblue" d="M101.39,-48C110.45,-48 119.59,-48 127.88,-48"/>
<polygon fill="midnightblue" stroke="midnightblue" points="101.23,-44.5 91.23,-48 101.23,-51.5 101.23,-44.5"/>
</g>
<!-- Node6 -->
<g id="node6" class="node">
<title>Node6</title>
<g id="a_node6"><a xlink:href="classitk_1_1LevelSetContainer_3_01TIdentifier_00_01LevelSetDenseImage_3_01TImage_01_4_01_4.html" target="_top" xlink:title="Container class for dense level sets.">
<polygon fill="white" stroke="black" points="784,-0.5 784,-41.5 940,-41.5 940,-0.5 784,-0.5"/>
<text text-anchor="start" x="792" y="-29.5" font-family="Helvetica,sans-Serif" font-size="10.00">itk::LevelSetContainer</text>
<text text-anchor="start" x="792" y="-18.5" font-family="Helvetica,sans-Serif" font-size="10.00">&lt; TIdentifier, LevelSetDense</text>
<text text-anchor="middle" x="862" y="-7.5" font-family="Helvetica,sans-Serif" font-size="10.00">Image&lt; TImage &gt; &gt;</text>
</a>
</g>
</g>
<!-- Node5&#45;&gt;Node6 -->
<g id="edge5" class="edge">
<title>Node5&#45;&gt;Node6</title>
<path fill="none" stroke="midnightblue" d="M757.24,-21C766.16,-21 775.09,-21 783.75,-21"/>
<polygon fill="midnightblue" stroke="midnightblue" points="757.18,-17.5 747.18,-21 757.18,-24.5 757.18,-17.5"/>
</g>
</g>
</svg>
