<?xml version="1.0" encoding="UTF-8" standalone="no"?>
<!DOCTYPE svg PUBLIC "-//W3C//DTD SVG 1.1//EN"
 "http://www.w3.org/Graphics/SVG/1.1/DTD/svg11.dtd">
<!-- Generated by graphviz version 2.43.0 (0)
 -->
<!-- Title: itk::ContinuousIndex&lt; TCoordinate, VIndexDimension &gt; Pages: 1 -->
<svg width="198pt" height="162pt"
 viewBox="0.00 0.00 198.00 162.00" xmlns="http://www.w3.org/2000/svg" xmlns:xlink="http://www.w3.org/1999/xlink">
<g id="graph0" class="graph" transform="scale(1 1) rotate(0) translate(4 158)">
<title>itk::ContinuousIndex&lt; TCoordinate, VIndexDimension &gt;</title>
<polygon fill="white" stroke="transparent" points="-4,4 -4,-158 194,-158 194,4 -4,4"/>
<!-- Node1 -->
<g id="node1" class="node">
<title>Node1</title>
<g id="a_node1"><a xlink:title="A templated class holding a point in n&#45;Dimensional image space.">
<polygon fill="#bfbfbf" stroke="black" points="0,-0.5 0,-30.5 190,-30.5 190,-0.5 0,-0.5"/>
<text text-anchor="start" x="8" y="-18.5" font-family="Helvetica,sans-Serif" font-size="10.00">itk::ContinuousIndex</text>
<text text-anchor="middle" x="95" y="-7.5" font-family="Helvetica,sans-Serif" font-size="10.00">&lt; TCoordinate, VIndexDimension &gt;</text>
</a>
</g>
</g>
<!-- Node2 -->
<g id="node2" class="node">
<title>Node2</title>
<g id="a_node2"><a xlink:href="classitk_1_1Point.html" target="_top" xlink:title=" ">
<polygon fill="white" stroke="black" points="31,-67.5 31,-86.5 159,-86.5 159,-67.5 31,-67.5"/>
<text text-anchor="middle" x="95" y="-74.5" font-family="Helvetica,sans-Serif" font-size="10.00">itk::Point&lt; double, 2 &gt;</text>
</a>
</g>
</g>
<!-- Node2&#45;&gt;Node1 -->
<g id="edge1" class="edge">
<title>Node2&#45;&gt;Node1</title>
<path fill="none" stroke="midnightblue" d="M95,-57.23C95,-48.59 95,-38.5 95,-30.52"/>
<polygon fill="midnightblue" stroke="midnightblue" points="91.5,-57.48 95,-67.48 98.5,-57.48 91.5,-57.48"/>
</g>
<!-- Node3 -->
<g id="node3" class="node">
<title>Node3</title>
<g id="a_node3"><a xlink:href="classitk_1_1FixedArray.html" target="_top" xlink:title=" ">
<polygon fill="white" stroke="black" points="28,-123.5 28,-153.5 162,-153.5 162,-123.5 28,-123.5"/>
<text text-anchor="start" x="36" y="-141.5" font-family="Helvetica,sans-Serif" font-size="10.00">itk::FixedArray&lt; double,</text>
<text text-anchor="middle" x="95" y="-130.5" font-family="Helvetica,sans-Serif" font-size="10.00"> VPointDimension &gt;</text>
</a>
</g>
</g>
<!-- Node3&#45;&gt;Node2 -->
<g id="edge2" class="edge">
<title>Node3&#45;&gt;Node2</title>
<path fill="none" stroke="midnightblue" d="M95,-113.29C95,-103.86 95,-93.65 95,-86.66"/>
<polygon fill="midnightblue" stroke="midnightblue" points="91.5,-113.4 95,-123.4 98.5,-113.4 91.5,-113.4"/>
</g>
</g>
</svg>
