<?xml version="1.0" encoding="UTF-8" standalone="no"?>
<!DOCTYPE svg PUBLIC "-//W3C//DTD SVG 1.1//EN"
 "http://www.w3.org/Graphics/SVG/1.1/DTD/svg11.dtd">
<!-- Generated by graphviz version 2.43.0 (0)
 -->
<!-- Title: itk::Statistics::ImageToListSampleAdaptor&lt; TImage &gt;::Iterator Pages: 1 -->
<svg width="320pt" height="363pt"
 viewBox="0.00 0.00 320.00 363.00" xmlns="http://www.w3.org/2000/svg" xmlns:xlink="http://www.w3.org/1999/xlink">
<g id="graph0" class="graph" transform="scale(1 1) rotate(0) translate(4 359)">
<title>itk::Statistics::ImageToListSampleAdaptor&lt; TImage &gt;::Iterator</title>
<polygon fill="white" stroke="transparent" points="-4,4 -4,-359 316,-359 316,4 -4,4"/>
<!-- Node1 -->
<g id="node1" class="node">
<title>Node1</title>
<g id="a_node1"><a xlink:title="Iterator.">
<polygon fill="#bfbfbf" stroke="black" points="68.5,-0.5 68.5,-41.5 225.5,-41.5 225.5,-0.5 68.5,-0.5"/>
<text text-anchor="start" x="76.5" y="-29.5" font-family="Helvetica,sans-Serif" font-size="10.00">itk::Statistics::ImageTo</text>
<text text-anchor="start" x="76.5" y="-18.5" font-family="Helvetica,sans-Serif" font-size="10.00">ListSampleAdaptor&lt; TImage</text>
<text text-anchor="middle" x="147" y="-7.5" font-family="Helvetica,sans-Serif" font-size="10.00"> &gt;::Iterator</text>
</a>
</g>
</g>
<!-- Node2 -->
<g id="node2" class="node">
<title>Node2</title>
<g id="a_node2"><a xlink:href="classitk_1_1Statistics_1_1ImageToListSampleAdaptor_1_1ConstIterator.html" target="_top" xlink:title="Const Iterator.">
<polygon fill="white" stroke="black" points="68.5,-79.5 68.5,-120.5 225.5,-120.5 225.5,-79.5 68.5,-79.5"/>
<text text-anchor="start" x="76.5" y="-108.5" font-family="Helvetica,sans-Serif" font-size="10.00">itk::Statistics::ImageTo</text>
<text text-anchor="start" x="76.5" y="-97.5" font-family="Helvetica,sans-Serif" font-size="10.00">ListSampleAdaptor&lt; TImage</text>
<text text-anchor="middle" x="147" y="-86.5" font-family="Helvetica,sans-Serif" font-size="10.00"> &gt;::ConstIterator</text>
</a>
</g>
</g>
<!-- Node2&#45;&gt;Node1 -->
<g id="edge1" class="edge">
<title>Node2&#45;&gt;Node1</title>
<path fill="none" stroke="midnightblue" d="M147,-68.91C147,-59.79 147,-50.02 147,-41.76"/>
<polygon fill="midnightblue" stroke="midnightblue" points="143.5,-69.17 147,-79.17 150.5,-69.17 143.5,-69.17"/>
</g>
<!-- Node3 -->
<g id="node3" class="node">
<title>Node3</title>
<g id="a_node3"><a xlink:href="classitk_1_1ImageRegionConstIterator.html" target="_top" xlink:title=" ">
<polygon fill="white" stroke="black" points="65,-168.5 65,-198.5 229,-198.5 229,-168.5 65,-168.5"/>
<text text-anchor="start" x="73" y="-186.5" font-family="Helvetica,sans-Serif" font-size="10.00">itk::ImageRegionConstIterator</text>
<text text-anchor="middle" x="147" y="-175.5" font-family="Helvetica,sans-Serif" font-size="10.00">&lt; ImageType &gt;</text>
</a>
</g>
</g>
<!-- Node3&#45;&gt;Node2 -->
<g id="edge2" class="edge">
<title>Node3&#45;&gt;Node2</title>
<path fill="none" stroke="#9a32cd" stroke-dasharray="5,2" d="M147,-158.07C147,-146.06 147,-131.79 147,-120.53"/>
<polygon fill="#9a32cd" stroke="#9a32cd" points="143.5,-158.3 147,-168.3 150.5,-158.3 143.5,-158.3"/>
<text text-anchor="middle" x="164.5" y="-142" font-family="Helvetica,sans-Serif" font-size="10.00"> m_Iter</text>
</g>
<!-- Node4 -->
<g id="node4" class="node">
<title>Node4</title>
<g id="a_node4"><a xlink:href="classitk_1_1ImageConstIterator.html" target="_top" xlink:title=" ">
<polygon fill="white" stroke="black" points="0,-246.5 0,-276.5 130,-276.5 130,-246.5 0,-246.5"/>
<text text-anchor="start" x="8" y="-264.5" font-family="Helvetica,sans-Serif" font-size="10.00">itk::ImageConstIterator</text>
<text text-anchor="middle" x="65" y="-253.5" font-family="Helvetica,sans-Serif" font-size="10.00">&lt; ImageType &gt;</text>
</a>
</g>
</g>
<!-- Node4&#45;&gt;Node3 -->
<g id="edge3" class="edge">
<title>Node4&#45;&gt;Node3</title>
<path fill="none" stroke="midnightblue" d="M87.77,-239.39C101.76,-226.43 119.3,-210.18 131.65,-198.73"/>
<polygon fill="midnightblue" stroke="midnightblue" points="85.38,-236.84 80.42,-246.2 90.14,-241.97 85.38,-236.84"/>
</g>
<!-- Node5 -->
<g id="node5" class="node">
<title>Node5</title>
<g id="a_node5"><a xlink:href="classitk_1_1ImageConstIterator.html" target="_top" xlink:title="A multi&#45;dimensional image iterator templated over image type.">
<polygon fill="white" stroke="black" points="82,-324.5 82,-354.5 212,-354.5 212,-324.5 82,-324.5"/>
<text text-anchor="start" x="90" y="-342.5" font-family="Helvetica,sans-Serif" font-size="10.00">itk::ImageConstIterator</text>
<text text-anchor="middle" x="147" y="-331.5" font-family="Helvetica,sans-Serif" font-size="10.00">&lt; TImage &gt;</text>
</a>
</g>
</g>
<!-- Node5&#45;&gt;Node4 -->
<g id="edge4" class="edge">
<title>Node5&#45;&gt;Node4</title>
<path fill="none" stroke="orange" stroke-dasharray="5,2" d="M124.23,-317.39C110.24,-304.43 92.7,-288.18 80.35,-276.73"/>
<polygon fill="orange" stroke="orange" points="121.86,-319.97 131.58,-324.2 126.62,-314.84 121.86,-319.97"/>
<text text-anchor="middle" x="150.5" y="-298" font-family="Helvetica,sans-Serif" font-size="10.00"> &lt; ImageType &gt;</text>
</g>
<!-- Node6 -->
<g id="node6" class="node">
<title>Node6</title>
<g id="a_node6"><a xlink:href="classitk_1_1ImageRegionConstIterator.html" target="_top" xlink:title="A multi&#45;dimensional iterator templated over image type that walks a region of pixels.">
<polygon fill="white" stroke="black" points="148,-246.5 148,-276.5 312,-276.5 312,-246.5 148,-246.5"/>
<text text-anchor="start" x="156" y="-264.5" font-family="Helvetica,sans-Serif" font-size="10.00">itk::ImageRegionConstIterator</text>
<text text-anchor="middle" x="230" y="-253.5" font-family="Helvetica,sans-Serif" font-size="10.00">&lt; TImage &gt;</text>
</a>
</g>
</g>
<!-- Node5&#45;&gt;Node6 -->
<g id="edge6" class="edge">
<title>Node5&#45;&gt;Node6</title>
<path fill="none" stroke="midnightblue" d="M178.36,-318.61C183.78,-314.68 189.2,-310.4 194,-306 203.68,-297.12 213.09,-285.62 219.86,-276.67"/>
<polygon fill="midnightblue" stroke="midnightblue" points="176.15,-315.89 169.94,-324.47 180.15,-321.63 176.15,-315.89"/>
</g>
<!-- Node6&#45;&gt;Node3 -->
<g id="edge5" class="edge">
<title>Node6&#45;&gt;Node3</title>
<path fill="none" stroke="orange" stroke-dasharray="5,2" d="M206.95,-239.39C192.79,-226.43 175.04,-210.18 162.54,-198.73"/>
<polygon fill="orange" stroke="orange" points="204.65,-242.03 214.39,-246.2 209.38,-236.87 204.65,-242.03"/>
<text text-anchor="middle" x="232.5" y="-220" font-family="Helvetica,sans-Serif" font-size="10.00"> &lt; ImageType &gt;</text>
</g>
</g>
</svg>
