<?xml version="1.0" encoding="UTF-8" standalone="no"?>
<!DOCTYPE svg PUBLIC "-//W3C//DTD SVG 1.1//EN"
 "http://www.w3.org/Graphics/SVG/1.1/DTD/svg11.dtd">
<!-- Generated by graphviz version 2.43.0 (0)
 -->
<!-- Title: itk::SimplexMesh&lt; TPixelType, VDimension, TMeshTraits &gt; Pages: 1 -->
<svg width="2949pt" height="373pt"
 viewBox="0.00 0.00 2949.00 373.00" xmlns="http://www.w3.org/2000/svg" xmlns:xlink="http://www.w3.org/1999/xlink">
<g id="graph0" class="graph" transform="scale(1 1) rotate(0) translate(4 369)">
<title>itk::SimplexMesh&lt; TPixelType, VDimension, TMeshTraits &gt;</title>
<polygon fill="white" stroke="transparent" points="-4,4 -4,-369 2945,-369 2945,4 -4,4"/>
<!-- Node1 -->
<g id="node1" class="node">
<title>Node1</title>
<g id="a_node1"><a xlink:title="The class represents a 2&#45;simplex mesh.">
<polygon fill="#bfbfbf" stroke="black" points="2761,-0.5 2761,-30.5 2941,-30.5 2941,-0.5 2761,-0.5"/>
<text text-anchor="start" x="2769" y="-18.5" font-family="Helvetica,sans-Serif" font-size="10.00">itk::SimplexMesh&lt; TPixel</text>
<text text-anchor="middle" x="2851" y="-7.5" font-family="Helvetica,sans-Serif" font-size="10.00">Type, VDimension, TMeshTraits &gt;</text>
</a>
</g>
</g>
<!-- Node2 -->
<g id="node2" class="node">
<title>Node2</title>
<g id="a_node2"><a xlink:href="classitk_1_1Mesh.html" target="_top" xlink:title=" ">
<polygon fill="white" stroke="black" points="2560,-61.5 2560,-113.5 2724,-113.5 2724,-61.5 2560,-61.5"/>
<text text-anchor="start" x="2568" y="-101.5" font-family="Helvetica,sans-Serif" font-size="10.00">itk::Mesh&lt; TPixelType,</text>
<text text-anchor="start" x="2568" y="-90.5" font-family="Helvetica,sans-Serif" font-size="10.00"> 3, DefaultStaticMeshTraits</text>
<text text-anchor="start" x="2568" y="-79.5" font-family="Helvetica,sans-Serif" font-size="10.00">&lt; TPixelType, 3, 3, TPixelType,</text>
<text text-anchor="middle" x="2642" y="-68.5" font-family="Helvetica,sans-Serif" font-size="10.00"> TPixelType, TPixelType &gt; &gt;</text>
</a>
</g>
</g>
<!-- Node2&#45;&gt;Node1 -->
<g id="edge1" class="edge">
<title>Node2&#45;&gt;Node1</title>
<path fill="none" stroke="midnightblue" d="M2727.57,-58.08C2754.81,-48.61 2783.86,-38.5 2806.83,-30.52"/>
<polygon fill="midnightblue" stroke="midnightblue" points="2726.32,-54.81 2718.02,-61.4 2728.62,-61.43 2726.32,-54.81"/>
</g>
<!-- Node3 -->
<g id="node3" class="node">
<title>Node3</title>
<g id="a_node3"><a xlink:href="classitk_1_1PointSet.html" target="_top" xlink:title=" ">
<polygon fill="white" stroke="black" points="1788,-215.5 1788,-267.5 1979,-267.5 1979,-215.5 1788,-215.5"/>
<text text-anchor="start" x="1796" y="-255.5" font-family="Helvetica,sans-Serif" font-size="10.00">itk::PointSet&lt; TPixelType,</text>
<text text-anchor="start" x="1796" y="-244.5" font-family="Helvetica,sans-Serif" font-size="10.00"> VDimension, DefaultStaticMesh</text>
<text text-anchor="start" x="1796" y="-233.5" font-family="Helvetica,sans-Serif" font-size="10.00">Traits&lt; TPixelType, 3, 3, TPixelType,</text>
<text text-anchor="middle" x="1883.5" y="-222.5" font-family="Helvetica,sans-Serif" font-size="10.00"> TPixelType, TPixelType &gt; &gt;</text>
</a>
</g>
</g>
<!-- Node3&#45;&gt;Node2 -->
<g id="edge2" class="edge">
<title>Node3&#45;&gt;Node2</title>
<path fill="none" stroke="midnightblue" d="M1989.31,-243.11C2122.3,-241.78 2356.65,-228.1 2542,-156.5 2567.6,-146.61 2592.92,-128.77 2611.55,-113.71"/>
<polygon fill="midnightblue" stroke="midnightblue" points="1989.1,-239.61 1979.13,-243.19 1989.15,-246.61 1989.1,-239.61"/>
</g>
<!-- Node4 -->
<g id="node4" class="node">
<title>Node4</title>
<g id="a_node4"><a xlink:href="classitk_1_1DataObject.html" target="_top" xlink:title="Base class for all data objects in ITK.">
<polygon fill="white" stroke="black" points="1322,-234 1322,-253 1412,-253 1412,-234 1322,-234"/>
<text text-anchor="middle" x="1367" y="-241" font-family="Helvetica,sans-Serif" font-size="10.00">itk::DataObject</text>
</a>
</g>
</g>
<!-- Node4&#45;&gt;Node3 -->
<g id="edge3" class="edge">
<title>Node4&#45;&gt;Node3</title>
<path fill="none" stroke="midnightblue" d="M1408.75,-255.76C1481.73,-275.97 1639.33,-311.66 1770,-286.5 1790.04,-282.64 1811.04,-275.25 1829.4,-267.55"/>
<polygon fill="midnightblue" stroke="midnightblue" points="1409.6,-252.37 1399.03,-253.02 1407.7,-259.1 1409.6,-252.37"/>
</g>
<!-- Node21 -->
<g id="node21" class="node">
<title>Node21</title>
<g id="a_node21"><a xlink:href="classitk_1_1PointSet.html" target="_top" xlink:title="A superclass of the N&#45;dimensional mesh structure; supports point (geometric coordinate and attribute)...">
<polygon fill="white" stroke="black" points="1449,-226.5 1449,-256.5 1604,-256.5 1604,-226.5 1449,-226.5"/>
<text text-anchor="start" x="1457" y="-244.5" font-family="Helvetica,sans-Serif" font-size="10.00">itk::PointSet&lt; TPixelType,</text>
<text text-anchor="middle" x="1526.5" y="-233.5" font-family="Helvetica,sans-Serif" font-size="10.00"> VDimension, TMeshTraits &gt;</text>
</a>
</g>
</g>
<!-- Node4&#45;&gt;Node21 -->
<g id="edge26" class="edge">
<title>Node4&#45;&gt;Node21</title>
<path fill="none" stroke="midnightblue" d="M1422.42,-242.81C1430.92,-242.7 1439.85,-242.59 1448.73,-242.47"/>
<polygon fill="midnightblue" stroke="midnightblue" points="1422.25,-239.31 1412.29,-242.94 1422.34,-246.31 1422.25,-239.31"/>
</g>
<!-- Node27 -->
<g id="node27" class="node">
<title>Node27</title>
<g id="a_node27"><a xlink:href="classitk_1_1PointSet.html" target="_top" xlink:title=" ">
<polygon fill="white" stroke="black" points="1809.5,-151 1809.5,-192 1957.5,-192 1957.5,-151 1809.5,-151"/>
<text text-anchor="start" x="1817.5" y="-180" font-family="Helvetica,sans-Serif" font-size="10.00">itk::PointSet&lt; TPixelType,</text>
<text text-anchor="start" x="1817.5" y="-169" font-family="Helvetica,sans-Serif" font-size="10.00"> 3, DefaultStaticMeshTraits</text>
<text text-anchor="middle" x="1883.5" y="-158" font-family="Helvetica,sans-Serif" font-size="10.00">&lt; TPixelType, 3, 3 &gt; &gt;</text>
</a>
</g>
</g>
<!-- Node4&#45;&gt;Node27 -->
<g id="edge34" class="edge">
<title>Node4&#45;&gt;Node27</title>
<path fill="none" stroke="midnightblue" d="M1404.14,-230.64C1418.07,-225.9 1434.19,-220.67 1449,-216.5 1524.96,-195.11 1543.68,-186.2 1622,-176.5 1684.85,-168.72 1756.86,-167.95 1809.22,-168.86"/>
<polygon fill="midnightblue" stroke="midnightblue" points="1402.75,-227.42 1394.44,-233.98 1405.03,-234.04 1402.75,-227.42"/>
</g>
<!-- Node5 -->
<g id="node5" class="node">
<title>Node5</title>
<g id="a_node5"><a xlink:href="classitk_1_1Object.html" target="_top" xlink:title="Base class for most ITK classes.">
<polygon fill="white" stroke="black" points="1069.5,-190 1069.5,-209 1136.5,-209 1136.5,-190 1069.5,-190"/>
<text text-anchor="middle" x="1103" y="-197" font-family="Helvetica,sans-Serif" font-size="10.00">itk::Object</text>
</a>
</g>
</g>
<!-- Node5&#45;&gt;Node4 -->
<g id="edge4" class="edge">
<title>Node5&#45;&gt;Node4</title>
<path fill="none" stroke="midnightblue" d="M1146.68,-205.92C1187.22,-212.11 1249.85,-221.93 1304,-231.5 1309.72,-232.51 1315.73,-233.62 1321.67,-234.74"/>
<polygon fill="midnightblue" stroke="midnightblue" points="1147.03,-202.43 1136.62,-204.39 1145.98,-209.35 1147.03,-202.43"/>
</g>
<!-- Node6 -->
<g id="node6" class="node">
<title>Node6</title>
<g id="a_node6"><a xlink:href="classitk_1_1LightObject.html" target="_top" xlink:title="Light weight base class for most itk classes.">
<polygon fill="white" stroke="black" points="745.5,-186 745.5,-205 836.5,-205 836.5,-186 745.5,-186"/>
<text text-anchor="middle" x="791" y="-193" font-family="Helvetica,sans-Serif" font-size="10.00">itk::LightObject</text>
</a>
</g>
</g>
<!-- Node6&#45;&gt;Node5 -->
<g id="edge5" class="edge">
<title>Node6&#45;&gt;Node5</title>
<path fill="none" stroke="midnightblue" d="M847.12,-196.21C911.6,-197.04 1016.24,-198.39 1069.14,-199.08"/>
<polygon fill="midnightblue" stroke="midnightblue" points="846.79,-192.71 836.75,-196.08 846.7,-199.71 846.79,-192.71"/>
</g>
<!-- Node7 -->
<g id="node7" class="node">
<title>Node7</title>
<g id="a_node7"><a xlink:title=" ">
<polygon fill="white" stroke="#bfbfbf" points="457,-190 457,-209 564,-209 564,-190 457,-190"/>
<text text-anchor="middle" x="510.5" y="-197" font-family="Helvetica,sans-Serif" font-size="10.00">std::atomic&lt; int &gt;</text>
</a>
</g>
</g>
<!-- Node7&#45;&gt;Node6 -->
<g id="edge6" class="edge">
<title>Node7&#45;&gt;Node6</title>
<path fill="none" stroke="#9a32cd" stroke-dasharray="5,2" d="M574.33,-198.6C626.37,-197.85 699.05,-196.81 745.31,-196.14"/>
<polygon fill="#9a32cd" stroke="#9a32cd" points="574.16,-195.1 564.21,-198.74 574.26,-202.1 574.16,-195.1"/>
<text text-anchor="middle" x="651.5" y="-201.5" font-family="Helvetica,sans-Serif" font-size="10.00"> m_ReferenceCount</text>
</g>
<!-- Node8 -->
<g id="node8" class="node">
<title>Node8</title>
<g id="a_node8"><a xlink:title="STL class.">
<polygon fill="white" stroke="#bfbfbf" points="123,-216 123,-235 223,-235 223,-216 123,-216"/>
<text text-anchor="middle" x="173" y="-223" font-family="Helvetica,sans-Serif" font-size="10.00">std::atomic&lt; T &gt;</text>
</a>
</g>
</g>
<!-- Node8&#45;&gt;Node7 -->
<g id="edge7" class="edge">
<title>Node8&#45;&gt;Node7</title>
<path fill="none" stroke="orange" stroke-dasharray="5,2" d="M233.38,-220.9C296.77,-215.99 396.25,-208.28 456.9,-203.58"/>
<polygon fill="orange" stroke="orange" points="232.84,-217.43 223.14,-221.69 233.38,-224.41 232.84,-217.43"/>
<text text-anchor="middle" x="334" y="-222.5" font-family="Helvetica,sans-Serif" font-size="10.00"> &lt; int &gt;</text>
</g>
<!-- Node17 -->
<g id="node17" class="node">
<title>Node17</title>
<g id="a_node17"><a xlink:href="classitk_1_1TimeStamp.html" target="_top" xlink:title="Generate a unique, increasing time value.">
<polygon fill="white" stroke="black" points="745,-236 745,-255 837,-255 837,-236 745,-236"/>
<text text-anchor="middle" x="791" y="-243" font-family="Helvetica,sans-Serif" font-size="10.00">itk::TimeStamp</text>
</a>
</g>
</g>
<!-- Node8&#45;&gt;Node17 -->
<g id="edge19" class="edge">
<title>Node8&#45;&gt;Node17</title>
<path fill="none" stroke="#9a32cd" stroke-dasharray="5,2" d="M233.21,-230.48C238.88,-230.86 244.55,-231.21 250,-231.5 433.33,-241.11 652.02,-244.21 744.81,-245.13"/>
<polygon fill="#9a32cd" stroke="#9a32cd" points="233.26,-226.97 223.03,-229.75 232.76,-233.96 233.26,-226.97"/>
<text text-anchor="middle" x="510.5" y="-246.5" font-family="Helvetica,sans-Serif" font-size="10.00"> m_GlobalTimeStamp</text>
</g>
<!-- Node9 -->
<g id="node9" class="node">
<title>Node9</title>
<g id="a_node9"><a xlink:title=" ">
<polygon fill="white" stroke="#bfbfbf" points="0,-157 0,-176 29,-176 29,-157 0,-157"/>
<text text-anchor="middle" x="14.5" y="-164" font-family="Helvetica,sans-Serif" font-size="10.00">T</text>
</a>
</g>
</g>
<!-- Node9&#45;&gt;Node8 -->
<g id="edge8" class="edge">
<title>Node9&#45;&gt;Node8</title>
<path fill="none" stroke="#9a32cd" stroke-dasharray="5,2" d="M32.67,-182.9C37.08,-186.47 42,-189.94 47,-192.5 70.56,-204.59 98.96,-212.55 122.73,-217.61"/>
<polygon fill="#9a32cd" stroke="#9a32cd" points="34.75,-180.08 24.92,-176.14 30.15,-185.35 34.75,-180.08"/>
<text text-anchor="middle" x="71.5" y="-213.5" font-family="Helvetica,sans-Serif" font-size="10.00"> ptr</text>
</g>
<!-- Node14 -->
<g id="node14" class="node">
<title>Node14</title>
<g id="a_node14"><a xlink:title="STL class.">
<polygon fill="white" stroke="#bfbfbf" points="122.5,-178 122.5,-197 223.5,-197 223.5,-178 122.5,-178"/>
<text text-anchor="middle" x="173" y="-185" font-family="Helvetica,sans-Serif" font-size="10.00">std::map&lt; K, T &gt;</text>
</a>
</g>
</g>
<!-- Node9&#45;&gt;Node14 -->
<g id="edge15" class="edge">
<title>Node9&#45;&gt;Node14</title>
<path fill="none" stroke="#9a32cd" stroke-dasharray="5,2" d="M39.19,-169.68C61.16,-172.63 94.54,-177.11 122.35,-180.84"/>
<polygon fill="#9a32cd" stroke="#9a32cd" points="39.49,-166.19 29.11,-168.33 38.56,-173.13 39.49,-166.19"/>
<text text-anchor="middle" x="71.5" y="-180.5" font-family="Helvetica,sans-Serif" font-size="10.00"> elements</text>
</g>
<!-- Node16 -->
<g id="node16" class="node">
<title>Node16</title>
<g id="a_node16"><a xlink:title="STL class.">
<polygon fill="white" stroke="#bfbfbf" points="114,-140 114,-159 232,-159 232,-140 114,-140"/>
<text text-anchor="middle" x="173" y="-147" font-family="Helvetica,sans-Serif" font-size="10.00">std::shared_ptr&lt; T &gt;</text>
</a>
</g>
</g>
<!-- Node9&#45;&gt;Node16 -->
<g id="edge17" class="edge">
<title>Node9&#45;&gt;Node16</title>
<path fill="none" stroke="#9a32cd" stroke-dasharray="5,2" d="M38.3,-153.41C41.15,-152.23 44.09,-151.21 47,-150.5 68.4,-145.29 92.48,-144.05 113.75,-144.46"/>
<polygon fill="#9a32cd" stroke="#9a32cd" points="36.55,-150.37 29.07,-157.87 39.6,-156.67 36.55,-150.37"/>
<text text-anchor="middle" x="71.5" y="-153.5" font-family="Helvetica,sans-Serif" font-size="10.00"> ptr</text>
</g>
<!-- Node25 -->
<g id="node25" class="node">
<title>Node25</title>
<g id="a_node25"><a xlink:title="STL class.">
<polygon fill="white" stroke="#bfbfbf" points="285.5,-102 285.5,-121 382.5,-121 382.5,-102 285.5,-102"/>
<text text-anchor="middle" x="334" y="-109" font-family="Helvetica,sans-Serif" font-size="10.00">std::vector&lt; T &gt;</text>
</a>
</g>
</g>
<!-- Node9&#45;&gt;Node25 -->
<g id="edge31" class="edge">
<title>Node9&#45;&gt;Node25</title>
<path fill="none" stroke="#9a32cd" stroke-dasharray="5,2" d="M26.6,-148.62C31.88,-141.72 38.83,-134.54 47,-130.5 123.61,-92.62 226.16,-97.02 285.35,-104.01"/>
<polygon fill="#9a32cd" stroke="#9a32cd" points="23.66,-146.73 20.85,-156.94 29.42,-150.71 23.66,-146.73"/>
<text text-anchor="middle" x="71.5" y="-133.5" font-family="Helvetica,sans-Serif" font-size="10.00"> elements</text>
</g>
<!-- Node10 -->
<g id="node10" class="node">
<title>Node10</title>
<g id="a_node10"><a xlink:title="STL class.">
<polygon fill="white" stroke="#bfbfbf" points="758.5,-288 758.5,-307 823.5,-307 823.5,-288 758.5,-288"/>
<text text-anchor="middle" x="791" y="-295" font-family="Helvetica,sans-Serif" font-size="10.00">std::string</text>
</a>
</g>
</g>
<!-- Node10&#45;&gt;Node4 -->
<g id="edge21" class="edge">
<title>Node10&#45;&gt;Node4</title>
<path fill="none" stroke="#9a32cd" stroke-dasharray="5,2" d="M833.81,-296.99C921.56,-295.35 1131.16,-288.34 1304,-258.5 1312.51,-257.03 1321.59,-255.06 1330.11,-253.04"/>
<polygon fill="#9a32cd" stroke="#9a32cd" points="833.66,-293.5 823.72,-297.17 833.78,-300.5 833.66,-293.5"/>
<text text-anchor="middle" x="1103" y="-292.5" font-family="Helvetica,sans-Serif" font-size="10.00"> m_SourceOutputName</text>
</g>
<!-- Node10&#45;&gt;Node5 -->
<g id="edge9" class="edge">
<title>Node10&#45;&gt;Node5</title>
<path fill="none" stroke="#9a32cd" stroke-dasharray="5,2" d="M833.34,-288.94C876.1,-279.22 944.15,-261.29 999,-235.5 1007.7,-231.41 1008.27,-227.52 1017,-223.5 1033.57,-215.87 1053.11,-210.14 1069.26,-206.21"/>
<polygon fill="#9a32cd" stroke="#9a32cd" points="832.57,-285.53 823.57,-291.12 834.09,-292.36 832.57,-285.53"/>
<text text-anchor="middle" x="940.5" y="-279.5" font-family="Helvetica,sans-Serif" font-size="10.00"> m_ObjectName</text>
</g>
<!-- Node11 -->
<g id="node11" class="node">
<title>Node11</title>
<g id="a_node11"><a xlink:title="STL class.">
<polygon fill="white" stroke="#bfbfbf" points="458.5,-282.5 458.5,-312.5 562.5,-312.5 562.5,-282.5 458.5,-282.5"/>
<text text-anchor="start" x="466.5" y="-300.5" font-family="Helvetica,sans-Serif" font-size="10.00">std::basic_string&lt;</text>
<text text-anchor="middle" x="510.5" y="-289.5" font-family="Helvetica,sans-Serif" font-size="10.00"> char &gt;</text>
</a>
</g>
</g>
<!-- Node11&#45;&gt;Node10 -->
<g id="edge10" class="edge">
<title>Node11&#45;&gt;Node10</title>
<path fill="none" stroke="midnightblue" d="M572.6,-297.5C629.89,-297.5 713.28,-297.5 758.31,-297.5"/>
<polygon fill="midnightblue" stroke="midnightblue" points="572.58,-294 562.58,-297.5 572.58,-301 572.58,-294"/>
</g>
<!-- Node12 -->
<g id="node12" class="node">
<title>Node12</title>
<g id="a_node12"><a xlink:href="classitk_1_1MetaDataDictionary.html" target="_top" xlink:title="Provides a mechanism for storing a collection of arbitrary data types.">
<polygon fill="white" stroke="black" points="724,-147 724,-166 858,-166 858,-147 724,-147"/>
<text text-anchor="middle" x="791" y="-154" font-family="Helvetica,sans-Serif" font-size="10.00">itk::MetaDataDictionary</text>
</a>
</g>
</g>
<!-- Node12&#45;&gt;Node5 -->
<g id="edge11" class="edge">
<title>Node12&#45;&gt;Node5</title>
<path fill="none" stroke="#9a32cd" stroke-dasharray="5,2" d="M868.53,-165.4C907.61,-170.12 955.9,-176.24 999,-182.5 1022.5,-185.91 1048.92,-190.28 1069.12,-193.74"/>
<polygon fill="#9a32cd" stroke="#9a32cd" points="868.62,-161.88 858.28,-164.16 867.79,-168.83 868.62,-161.88"/>
<text text-anchor="middle" x="940.5" y="-185.5" font-family="Helvetica,sans-Serif" font-size="10.00"> m_MetaDataDictionary</text>
</g>
<!-- Node13 -->
<g id="node13" class="node">
<title>Node13</title>
<g id="a_node13"><a xlink:title=" ">
<polygon fill="white" stroke="#bfbfbf" points="436,-140.5 436,-170.5 585,-170.5 585,-140.5 436,-140.5"/>
<text text-anchor="start" x="444" y="-158.5" font-family="Helvetica,sans-Serif" font-size="10.00">std::shared_ptr&lt; MetaData</text>
<text text-anchor="middle" x="510.5" y="-147.5" font-family="Helvetica,sans-Serif" font-size="10.00">DictionaryMapType &gt;</text>
</a>
</g>
</g>
<!-- Node13&#45;&gt;Node12 -->
<g id="edge12" class="edge">
<title>Node13&#45;&gt;Node12</title>
<path fill="none" stroke="#9a32cd" stroke-dasharray="5,2" d="M595.05,-155.8C636.2,-155.95 685.13,-156.12 723.68,-156.26"/>
<polygon fill="#9a32cd" stroke="#9a32cd" points="595.05,-152.3 585.04,-155.76 595.02,-159.3 595.05,-152.3"/>
<text text-anchor="middle" x="651.5" y="-159.5" font-family="Helvetica,sans-Serif" font-size="10.00"> m_Dictionary</text>
</g>
<!-- Node14&#45;&gt;Node13 -->
<g id="edge13" class="edge">
<title>Node14&#45;&gt;Node13</title>
<path fill="none" stroke="#9a32cd" stroke-dasharray="5,2" d="M233.71,-181.8C290.23,-176.41 375.21,-168.31 435.9,-162.52"/>
<polygon fill="#9a32cd" stroke="#9a32cd" points="233.13,-178.34 223.5,-182.78 233.79,-185.31 233.13,-178.34"/>
<text text-anchor="middle" x="334" y="-183.5" font-family="Helvetica,sans-Serif" font-size="10.00"> ptr</text>
</g>
<!-- Node15 -->
<g id="node15" class="node">
<title>Node15</title>
<g id="a_node15"><a xlink:title=" ">
<polygon fill="white" stroke="#bfbfbf" points="0,-242 0,-261 29,-261 29,-242 0,-242"/>
<text text-anchor="middle" x="14.5" y="-249" font-family="Helvetica,sans-Serif" font-size="10.00">K</text>
</a>
</g>
</g>
<!-- Node15&#45;&gt;Node14 -->
<g id="edge14" class="edge">
<title>Node15&#45;&gt;Node14</title>
<path fill="none" stroke="#9a32cd" stroke-dasharray="5,2" d="M39.29,-247.1C56.07,-243.24 78.57,-236.49 96,-225.5 105.84,-219.3 104.17,-212.72 114,-206.5 120,-202.7 126.83,-199.59 133.65,-197.07"/>
<polygon fill="#9a32cd" stroke="#9a32cd" points="38.26,-243.74 29.2,-249.23 39.71,-250.59 38.26,-243.74"/>
<text text-anchor="middle" x="71.5" y="-248.5" font-family="Helvetica,sans-Serif" font-size="10.00"> keys</text>
</g>
<!-- Node16&#45;&gt;Node13 -->
<g id="edge16" class="edge">
<title>Node16&#45;&gt;Node13</title>
<path fill="none" stroke="orange" stroke-dasharray="5,2" d="M242.33,-149.41C291.26,-149.51 358.7,-149.96 418,-151.5 423.72,-151.65 429.64,-151.83 435.6,-152.04"/>
<polygon fill="orange" stroke="orange" points="242.19,-145.91 232.18,-149.4 242.18,-152.91 242.19,-145.91"/>
<text text-anchor="middle" x="334" y="-154.5" font-family="Helvetica,sans-Serif" font-size="10.00"> &lt; MetaDataDictionaryMapType &gt;</text>
</g>
<!-- Node17&#45;&gt;Node4 -->
<g id="edge22" class="edge">
<title>Node17&#45;&gt;Node4</title>
<path fill="none" stroke="#9a32cd" stroke-dasharray="5,2" d="M847.25,-245.31C960.85,-244.91 1218.63,-244.01 1321.96,-243.65"/>
<polygon fill="#9a32cd" stroke="#9a32cd" points="847.03,-241.81 837.04,-245.34 847.05,-248.81 847.03,-241.81"/>
<text text-anchor="middle" x="1103" y="-248.5" font-family="Helvetica,sans-Serif" font-size="10.00"> m_UpdateMTime</text>
</g>
<!-- Node17&#45;&gt;Node5 -->
<g id="edge18" class="edge">
<title>Node17&#45;&gt;Node5</title>
<path fill="none" stroke="#9a32cd" stroke-dasharray="5,2" d="M831.16,-233.01C846.82,-228.44 865.13,-223.62 882,-220.5 947.83,-208.31 1026.14,-202.98 1069.32,-200.82"/>
<polygon fill="#9a32cd" stroke="#9a32cd" points="829.87,-229.74 821.29,-235.96 831.87,-236.45 829.87,-229.74"/>
<text text-anchor="middle" x="940.5" y="-223.5" font-family="Helvetica,sans-Serif" font-size="10.00"> m_MTime</text>
</g>
<!-- Node18 -->
<g id="node18" class="node">
<title>Node18</title>
<g id="a_node18"><a xlink:href="classitk_1_1RealTimeStamp.html" target="_top" xlink:title="The RealTimeStamp is a data structure for representing time with high precision and a large dynamic r...">
<polygon fill="white" stroke="black" points="1046.5,-152 1046.5,-171 1159.5,-171 1159.5,-152 1046.5,-152"/>
<text text-anchor="middle" x="1103" y="-159" font-family="Helvetica,sans-Serif" font-size="10.00">itk::RealTimeStamp</text>
</a>
</g>
</g>
<!-- Node18&#45;&gt;Node4 -->
<g id="edge20" class="edge">
<title>Node18&#45;&gt;Node4</title>
<path fill="none" stroke="#9a32cd" stroke-dasharray="5,2" d="M1169.8,-167.98C1209.77,-173.52 1261.18,-183.58 1304,-201.5 1323.43,-209.63 1343.1,-224.29 1354.92,-233.96"/>
<polygon fill="#9a32cd" stroke="#9a32cd" points="1170.01,-164.47 1159.63,-166.63 1169.09,-171.41 1170.01,-164.47"/>
<text text-anchor="middle" x="1255.5" y="-204.5" font-family="Helvetica,sans-Serif" font-size="10.00"> m_RealTimeStamp</text>
</g>
<!-- Node19 -->
<g id="node19" class="node">
<title>Node19</title>
<g id="a_node19"><a xlink:href="classitk_1_1WeakPointer.html" target="_top" xlink:title=" ">
<polygon fill="white" stroke="black" points="1042.5,-334.5 1042.5,-364.5 1163.5,-364.5 1163.5,-334.5 1042.5,-334.5"/>
<text text-anchor="start" x="1050.5" y="-352.5" font-family="Helvetica,sans-Serif" font-size="10.00">itk::WeakPointer&lt; itk</text>
<text text-anchor="middle" x="1103" y="-341.5" font-family="Helvetica,sans-Serif" font-size="10.00">::ProcessObject &gt;</text>
</a>
</g>
</g>
<!-- Node19&#45;&gt;Node4 -->
<g id="edge23" class="edge">
<title>Node19&#45;&gt;Node4</title>
<path fill="none" stroke="#9a32cd" stroke-dasharray="5,2" d="M1173.68,-350.72C1214.07,-348.6 1264.58,-340.91 1304,-318.5 1331.61,-302.8 1352.11,-269.71 1361.04,-253.24"/>
<polygon fill="#9a32cd" stroke="#9a32cd" points="1173.48,-347.23 1163.64,-351.15 1173.78,-354.22 1173.48,-347.23"/>
<text text-anchor="middle" x="1255.5" y="-350.5" font-family="Helvetica,sans-Serif" font-size="10.00"> m_Source</text>
</g>
<!-- Node20 -->
<g id="node20" class="node">
<title>Node20</title>
<g id="a_node20"><a xlink:href="classitk_1_1WeakPointer.html" target="_top" xlink:title="Implements a weak reference to an object.">
<polygon fill="white" stroke="black" points="718,-334.5 718,-364.5 864,-364.5 864,-334.5 718,-334.5"/>
<text text-anchor="start" x="726" y="-352.5" font-family="Helvetica,sans-Serif" font-size="10.00">itk::WeakPointer&lt; TObject</text>
<text text-anchor="middle" x="791" y="-341.5" font-family="Helvetica,sans-Serif" font-size="10.00">Type &gt;</text>
</a>
</g>
</g>
<!-- Node20&#45;&gt;Node19 -->
<g id="edge24" class="edge">
<title>Node20&#45;&gt;Node19</title>
<path fill="none" stroke="orange" stroke-dasharray="5,2" d="M874.32,-349.5C927.19,-349.5 994.63,-349.5 1042.36,-349.5"/>
<polygon fill="orange" stroke="orange" points="874.29,-346 864.29,-349.5 874.29,-353 874.29,-346"/>
<text text-anchor="middle" x="940.5" y="-352.5" font-family="Helvetica,sans-Serif" font-size="10.00"> &lt; itk::ProcessObject &gt;</text>
</g>
<!-- Node21&#45;&gt;Node3 -->
<g id="edge25" class="edge">
<title>Node21&#45;&gt;Node3</title>
<path fill="none" stroke="orange" stroke-dasharray="5,2" d="M1614.39,-241.5C1666.89,-241.5 1733.83,-241.5 1787.69,-241.5"/>
<polygon fill="orange" stroke="orange" points="1614.09,-238 1604.09,-241.5 1614.09,-245 1614.09,-238"/>
<text text-anchor="start" x="1622" y="-277.5" font-family="Helvetica,sans-Serif" font-size="10.00"> &lt; TPixelType, VDimension,</text>
<text text-anchor="start" x="1622" y="-266.5" font-family="Helvetica,sans-Serif" font-size="10.00"> DefaultStaticMeshTraits</text>
<text text-anchor="start" x="1622" y="-255.5" font-family="Helvetica,sans-Serif" font-size="10.00">&lt; TPixelType, 3, 3, TPixelType,</text>
<text text-anchor="middle" x="1696" y="-244.5" font-family="Helvetica,sans-Serif" font-size="10.00"> TPixelType, TPixelType &gt; &gt;</text>
</g>
<!-- Node21&#45;&gt;Node27 -->
<g id="edge35" class="edge">
<title>Node21&#45;&gt;Node27</title>
<path fill="none" stroke="orange" stroke-dasharray="5,2" d="M1569.72,-222.39C1585.8,-215.81 1604.47,-208.97 1622,-204.5 1684.18,-188.65 1756.73,-180.25 1809.45,-175.91"/>
<polygon fill="orange" stroke="orange" points="1567.95,-219.34 1560.08,-226.44 1570.65,-225.8 1567.95,-219.34"/>
<text text-anchor="start" x="1622.5" y="-229.5" font-family="Helvetica,sans-Serif" font-size="10.00"> &lt; TPixelType, 3, Default</text>
<text text-anchor="start" x="1622.5" y="-218.5" font-family="Helvetica,sans-Serif" font-size="10.00">StaticMeshTraits&lt; TPixelType,</text>
<text text-anchor="middle" x="1696" y="-207.5" font-family="Helvetica,sans-Serif" font-size="10.00"> 3, 3 &gt; &gt;</text>
</g>
<!-- Node22 -->
<g id="node22" class="node">
<title>Node22</title>
<g id="a_node22"><a xlink:href="classitk_1_1SmartPointer.html" target="_top" xlink:title=" ">
<polygon fill="white" stroke="black" points="1830,-34.5 1830,-64.5 1937,-64.5 1937,-34.5 1830,-34.5"/>
<text text-anchor="start" x="1838" y="-52.5" font-family="Helvetica,sans-Serif" font-size="10.00">itk::SmartPointer&lt;</text>
<text text-anchor="middle" x="1883.5" y="-41.5" font-family="Helvetica,sans-Serif" font-size="10.00"> Self &gt;</text>
</a>
</g>
</g>
<!-- Node22&#45;&gt;Node1 -->
<g id="edge38" class="edge">
<title>Node22&#45;&gt;Node1</title>
<path fill="none" stroke="#9a32cd" stroke-dasharray="5,2" d="M1947.55,-47.25C1963.67,-46.68 1980.98,-46.07 1997,-45.5 2275.78,-35.64 2605.81,-24.06 2760.97,-18.62"/>
<polygon fill="#9a32cd" stroke="#9a32cd" points="1947.02,-43.77 1937.15,-47.62 1947.27,-50.77 1947.02,-43.77"/>
<text text-anchor="middle" x="2468.5" y="-34.5" font-family="Helvetica,sans-Serif" font-size="10.00"> m_GeometryData</text>
</g>
<!-- Node22&#45;&gt;Node2 -->
<g id="edge27" class="edge">
<title>Node22&#45;&gt;Node2</title>
<path fill="none" stroke="#9a32cd" stroke-dasharray="5,2" d="M1947.2,-48.82C2040.85,-48.22 2222.76,-48.64 2377,-58.5 2438.55,-62.43 2507.84,-70.17 2559.99,-76.67"/>
<polygon fill="#9a32cd" stroke="#9a32cd" points="1947.02,-45.32 1937.04,-48.89 1947.07,-52.32 1947.02,-45.32"/>
<text text-anchor="middle" x="2286.5" y="-61.5" font-family="Helvetica,sans-Serif" font-size="10.00"> m_BoundingBox</text>
</g>
<!-- Node26 -->
<g id="node26" class="node">
<title>Node26</title>
<g id="a_node26"><a xlink:href="classitk_1_1Mesh.html" target="_top" xlink:title="Implements the N&#45;dimensional mesh structure.">
<polygon fill="white" stroke="black" points="2209,-79.5 2209,-109.5 2364,-109.5 2364,-79.5 2209,-79.5"/>
<text text-anchor="start" x="2217" y="-97.5" font-family="Helvetica,sans-Serif" font-size="10.00">itk::Mesh&lt; TPixelType,</text>
<text text-anchor="middle" x="2286.5" y="-86.5" font-family="Helvetica,sans-Serif" font-size="10.00"> VDimension, TMeshTraits &gt;</text>
</a>
</g>
</g>
<!-- Node22&#45;&gt;Node26 -->
<g id="edge36" class="edge">
<title>Node22&#45;&gt;Node26</title>
<path fill="none" stroke="#9a32cd" stroke-dasharray="5,2" d="M1947.44,-56.56C2018.16,-64.5 2132.97,-77.38 2208.86,-85.9"/>
<polygon fill="#9a32cd" stroke="#9a32cd" points="1947.66,-53.07 1937.34,-55.43 1946.88,-60.02 1947.66,-53.07"/>
<text text-anchor="middle" x="2087.5" y="-85.5" font-family="Helvetica,sans-Serif" font-size="10.00"> m_BoundingBox</text>
</g>
<!-- Node23 -->
<g id="node23" class="node">
<title>Node23</title>
<g id="a_node23"><a xlink:href="classitk_1_1SmartPointer.html" target="_top" xlink:title="Implements transparent reference counting.">
<polygon fill="white" stroke="black" points="1473,-34.5 1473,-64.5 1580,-64.5 1580,-34.5 1473,-34.5"/>
<text text-anchor="start" x="1481" y="-52.5" font-family="Helvetica,sans-Serif" font-size="10.00">itk::SmartPointer&lt;</text>
<text text-anchor="middle" x="1526.5" y="-41.5" font-family="Helvetica,sans-Serif" font-size="10.00"> TObjectType &gt;</text>
</a>
</g>
</g>
<!-- Node23&#45;&gt;Node22 -->
<g id="edge28" class="edge">
<title>Node23&#45;&gt;Node22</title>
<path fill="none" stroke="orange" stroke-dasharray="5,2" d="M1590.43,-49.5C1658.52,-49.5 1765.89,-49.5 1829.74,-49.5"/>
<polygon fill="orange" stroke="orange" points="1590.26,-46 1580.26,-49.5 1590.26,-53 1590.26,-46"/>
<text text-anchor="middle" x="1696" y="-52.5" font-family="Helvetica,sans-Serif" font-size="10.00"> &lt; Self &gt;</text>
</g>
<!-- Node24 -->
<g id="node24" class="node">
<title>Node24</title>
<g id="a_node24"><a xlink:title=" ">
<polygon fill="white" stroke="#bfbfbf" points="1789,-101.5 1789,-131.5 1978,-131.5 1978,-101.5 1789,-101.5"/>
<text text-anchor="start" x="1797" y="-119.5" font-family="Helvetica,sans-Serif" font-size="10.00">std::vector&lt; BoundaryAssignments</text>
<text text-anchor="middle" x="1883.5" y="-108.5" font-family="Helvetica,sans-Serif" font-size="10.00">ContainerPointer &gt;</text>
</a>
</g>
</g>
<!-- Node24&#45;&gt;Node2 -->
<g id="edge29" class="edge">
<title>Node24&#45;&gt;Node2</title>
<path fill="none" stroke="#9a32cd" stroke-dasharray="5,2" d="M1981.52,-132.98C2110.99,-151.78 2346.64,-174.82 2542,-132.5 2559.9,-128.62 2578.45,-121.22 2594.58,-113.53"/>
<polygon fill="#9a32cd" stroke="#9a32cd" points="1982.03,-129.51 1971.62,-131.52 1981,-136.44 1982.03,-129.51"/>
<text text-anchor="middle" x="2286.5" y="-159.5" font-family="Helvetica,sans-Serif" font-size="10.00"> m_BoundaryAssignmentsContainers</text>
</g>
<!-- Node24&#45;&gt;Node26 -->
<g id="edge37" class="edge">
<title>Node24&#45;&gt;Node26</title>
<path fill="none" stroke="#9a32cd" stroke-dasharray="5,2" d="M1988.05,-110.82C2057.09,-107.03 2146.34,-102.13 2209,-98.7"/>
<polygon fill="#9a32cd" stroke="#9a32cd" points="1987.8,-107.33 1978.01,-111.37 1988.19,-114.32 1987.8,-107.33"/>
<text text-anchor="middle" x="2087.5" y="-113.5" font-family="Helvetica,sans-Serif" font-size="10.00"> m_BoundaryAssignmentsContainers</text>
</g>
<!-- Node25&#45;&gt;Node24 -->
<g id="edge30" class="edge">
<title>Node25&#45;&gt;Node24</title>
<path fill="none" stroke="orange" stroke-dasharray="5,2" d="M392.74,-111.5C456.01,-111.5 560.48,-111.5 650.5,-111.5 650.5,-111.5 650.5,-111.5 1527.5,-111.5 1616.1,-111.5 1717.14,-113.08 1788.7,-114.46"/>
<polygon fill="orange" stroke="orange" points="392.57,-108 382.57,-111.5 392.57,-115 392.57,-108"/>
<text text-anchor="start" x="1017" y="-125.5" font-family="Helvetica,sans-Serif" font-size="10.00"> &lt; BoundaryAssignmentsContainer</text>
<text text-anchor="middle" x="1103" y="-114.5" font-family="Helvetica,sans-Serif" font-size="10.00">Pointer &gt;</text>
</g>
<!-- Node26&#45;&gt;Node2 -->
<g id="edge32" class="edge">
<title>Node26&#45;&gt;Node2</title>
<path fill="none" stroke="orange" stroke-dasharray="5,2" d="M2374.35,-89.27C2381.33,-88.96 2388.28,-88.7 2395,-88.5 2449.96,-86.86 2511.86,-86.61 2559.82,-86.78"/>
<polygon fill="orange" stroke="orange" points="2373.94,-85.78 2364.11,-89.74 2374.26,-92.77 2373.94,-85.78"/>
<text text-anchor="start" x="2395" y="-124.5" font-family="Helvetica,sans-Serif" font-size="10.00"> &lt; TPixelType, 3, Default</text>
<text text-anchor="start" x="2395" y="-113.5" font-family="Helvetica,sans-Serif" font-size="10.00">StaticMeshTraits&lt; TPixelType,</text>
<text text-anchor="start" x="2395" y="-102.5" font-family="Helvetica,sans-Serif" font-size="10.00"> 3, 3, TPixelType, TPixelType,</text>
<text text-anchor="middle" x="2468.5" y="-91.5" font-family="Helvetica,sans-Serif" font-size="10.00"> TPixelType &gt; &gt;</text>
</g>
<!-- Node27&#45;&gt;Node26 -->
<g id="edge33" class="edge">
<title>Node27&#45;&gt;Node26</title>
<path fill="none" stroke="midnightblue" d="M1967.67,-161.29C2026.72,-153.36 2107.67,-141.09 2178,-125.5 2197.91,-121.09 2219.57,-115.08 2238.2,-109.53"/>
<polygon fill="midnightblue" stroke="midnightblue" points="1967.1,-157.84 1957.65,-162.63 1968.02,-164.78 1967.1,-157.84"/>
</g>
</g>
</svg>
