<?xml version="1.0" encoding="UTF-8" standalone="no"?>
<!DOCTYPE svg PUBLIC "-//W3C//DTD SVG 1.1//EN"
 "http://www.w3.org/Graphics/SVG/1.1/DTD/svg11.dtd">
<!-- Generated by graphviz version 2.43.0 (0)
 -->
<!-- Title: itk::ThinPlateR2LogRSplineKernelTransform&lt; TParametersValueType, VDimension &gt; Pages: 1 -->
<svg width="2710pt" height="253pt"
 viewBox="0.00 0.00 2710.00 252.50" xmlns="http://www.w3.org/2000/svg" xmlns:xlink="http://www.w3.org/1999/xlink">
<g id="graph0" class="graph" transform="scale(1 1) rotate(0) translate(4 248.5)">
<title>itk::ThinPlateR2LogRSplineKernelTransform&lt; TParametersValueType, VDimension &gt;</title>
<polygon fill="white" stroke="transparent" points="-4,4 -4,-248.5 2706,-248.5 2706,4 -4,4"/>
<!-- Node1 -->
<g id="node1" class="node">
<title>Node1</title>
<g id="a_node1"><a xlink:title=" ">
<polygon fill="#bfbfbf" stroke="black" points="2506,-161 2506,-202 2702,-202 2702,-161 2506,-161"/>
<text text-anchor="start" x="2514" y="-190" font-family="Helvetica,sans-Serif" font-size="10.00">itk::ThinPlateR2LogRSpline</text>
<text text-anchor="start" x="2514" y="-179" font-family="Helvetica,sans-Serif" font-size="10.00">KernelTransform&lt; TParametersValue</text>
<text text-anchor="middle" x="2604" y="-168" font-family="Helvetica,sans-Serif" font-size="10.00">Type, VDimension &gt;</text>
</a>
</g>
</g>
<!-- Node2 -->
<g id="node2" class="node">
<title>Node2</title>
<g id="a_node2"><a xlink:href="classitk_1_1KernelTransform.html" target="_top" xlink:title=" ">
<polygon fill="white" stroke="black" points="2307,-166.5 2307,-196.5 2469,-196.5 2469,-166.5 2307,-166.5"/>
<text text-anchor="start" x="2315" y="-184.5" font-family="Helvetica,sans-Serif" font-size="10.00">itk::KernelTransform</text>
<text text-anchor="middle" x="2388" y="-173.5" font-family="Helvetica,sans-Serif" font-size="10.00">&lt; TParametersValueType, 3 &gt;</text>
</a>
</g>
</g>
<!-- Node2&#45;&gt;Node1 -->
<g id="edge1" class="edge">
<title>Node2&#45;&gt;Node1</title>
<path fill="none" stroke="midnightblue" d="M2479.4,-181.5C2488.08,-181.5 2496.9,-181.5 2505.64,-181.5"/>
<polygon fill="midnightblue" stroke="midnightblue" points="2479.29,-178 2469.29,-181.5 2479.29,-185 2479.29,-178"/>
</g>
<!-- Node3 -->
<g id="node3" class="node">
<title>Node3</title>
<g id="a_node3"><a xlink:href="classitk_1_1Transform.html" target="_top" xlink:title=" ">
<polygon fill="white" stroke="black" points="1633,-69.5 1633,-99.5 1841,-99.5 1841,-69.5 1633,-69.5"/>
<text text-anchor="start" x="1641" y="-87.5" font-family="Helvetica,sans-Serif" font-size="10.00">itk::Transform&lt; TParameters</text>
<text text-anchor="middle" x="1737" y="-76.5" font-family="Helvetica,sans-Serif" font-size="10.00">ValueType, VDimension, VDimension &gt;</text>
</a>
</g>
</g>
<!-- Node3&#45;&gt;Node2 -->
<g id="edge2" class="edge">
<title>Node3&#45;&gt;Node2</title>
<path fill="none" stroke="midnightblue" d="M1851.29,-86.58C1928,-89.15 2031.48,-94.84 2122,-107.5 2197.29,-118.03 2216.14,-122.8 2289,-144.5 2309.74,-150.68 2332.37,-159.11 2350.66,-166.36"/>
<polygon fill="midnightblue" stroke="midnightblue" points="1851.23,-83.08 1841.12,-86.26 1851,-90.08 1851.23,-83.08"/>
</g>
<!-- Node21 -->
<g id="node21" class="node">
<title>Node21</title>
<g id="a_node21"><a xlink:href="classitk_1_1KernelTransform.html" target="_top" xlink:title=" ">
<polygon fill="white" stroke="black" points="1980,-117 1980,-158 2122,-158 2122,-117 1980,-117"/>
<text text-anchor="start" x="1988" y="-146" font-family="Helvetica,sans-Serif" font-size="10.00">itk::KernelTransform</text>
<text text-anchor="start" x="1988" y="-135" font-family="Helvetica,sans-Serif" font-size="10.00">&lt; TParametersValueType,</text>
<text text-anchor="middle" x="2051" y="-124" font-family="Helvetica,sans-Serif" font-size="10.00"> VDimension &gt;</text>
</a>
</g>
</g>
<!-- Node3&#45;&gt;Node21 -->
<g id="edge26" class="edge">
<title>Node3&#45;&gt;Node21</title>
<path fill="none" stroke="midnightblue" d="M1836.67,-101.26C1883.17,-109.16 1937.57,-118.4 1979.79,-125.57"/>
<polygon fill="midnightblue" stroke="midnightblue" points="1837.02,-97.77 1826.57,-99.55 1835.84,-104.67 1837.02,-97.77"/>
</g>
<!-- Node4 -->
<g id="node4" class="node">
<title>Node4</title>
<g id="a_node4"><a xlink:href="classitk_1_1TransformBaseTemplate.html" target="_top" xlink:title=" ">
<polygon fill="white" stroke="black" points="1109,-58.5 1109,-88.5 1262,-88.5 1262,-58.5 1109,-58.5"/>
<text text-anchor="start" x="1117" y="-76.5" font-family="Helvetica,sans-Serif" font-size="10.00">itk::TransformBaseTemplate</text>
<text text-anchor="middle" x="1185.5" y="-65.5" font-family="Helvetica,sans-Serif" font-size="10.00">&lt; TParametersValueType &gt;</text>
</a>
</g>
</g>
<!-- Node4&#45;&gt;Node3 -->
<g id="edge3" class="edge">
<title>Node4&#45;&gt;Node3</title>
<path fill="none" stroke="midnightblue" d="M1272.29,-78.3C1281.3,-78.74 1290.34,-79.15 1299,-79.5 1377.63,-82.71 1397.31,-83.39 1476,-84.5 1527.68,-85.23 1585.14,-85.31 1632.88,-85.17"/>
<polygon fill="midnightblue" stroke="midnightblue" points="1272.29,-74.79 1262.13,-77.79 1271.95,-81.79 1272.29,-74.79"/>
</g>
<!-- Node18 -->
<g id="node18" class="node">
<title>Node18</title>
<g id="a_node18"><a xlink:href="classitk_1_1Transform.html" target="_top" xlink:title="Transform points and vectors from an input space to an output space.">
<polygon fill="white" stroke="black" points="1299,-29 1299,-70 1458,-70 1458,-29 1299,-29"/>
<text text-anchor="start" x="1307" y="-58" font-family="Helvetica,sans-Serif" font-size="10.00">itk::Transform&lt; TParameters</text>
<text text-anchor="start" x="1307" y="-47" font-family="Helvetica,sans-Serif" font-size="10.00">ValueType, VInputDimension,</text>
<text text-anchor="middle" x="1378.5" y="-36" font-family="Helvetica,sans-Serif" font-size="10.00"> VOutputDimension &gt;</text>
</a>
</g>
</g>
<!-- Node4&#45;&gt;Node18 -->
<g id="edge21" class="edge">
<title>Node4&#45;&gt;Node18</title>
<path fill="none" stroke="midnightblue" d="M1272.45,-62.7C1281.19,-61.6 1290.04,-60.49 1298.7,-59.4"/>
<polygon fill="midnightblue" stroke="midnightblue" points="1271.75,-59.26 1262.26,-63.98 1272.62,-66.21 1271.75,-59.26"/>
</g>
<!-- Node5 -->
<g id="node5" class="node">
<title>Node5</title>
<g id="a_node5"><a xlink:href="classitk_1_1Object.html" target="_top" xlink:title="Base class for most ITK classes.">
<polygon fill="white" stroke="black" points="1005,-64 1005,-83 1072,-83 1072,-64 1005,-64"/>
<text text-anchor="middle" x="1038.5" y="-71" font-family="Helvetica,sans-Serif" font-size="10.00">itk::Object</text>
</a>
</g>
</g>
<!-- Node5&#45;&gt;Node4 -->
<g id="edge4" class="edge">
<title>Node5&#45;&gt;Node4</title>
<path fill="none" stroke="midnightblue" d="M1082.29,-73.5C1090.68,-73.5 1099.72,-73.5 1108.82,-73.5"/>
<polygon fill="midnightblue" stroke="midnightblue" points="1082.04,-70 1072.04,-73.5 1082.04,-77 1082.04,-70"/>
</g>
<!-- Node6 -->
<g id="node6" class="node">
<title>Node6</title>
<g id="a_node6"><a xlink:href="classitk_1_1LightObject.html" target="_top" xlink:title="Light weight base class for most itk classes.">
<polygon fill="white" stroke="black" points="739.5,-91 739.5,-110 830.5,-110 830.5,-91 739.5,-91"/>
<text text-anchor="middle" x="785" y="-98" font-family="Helvetica,sans-Serif" font-size="10.00">itk::LightObject</text>
</a>
</g>
</g>
<!-- Node6&#45;&gt;Node5 -->
<g id="edge5" class="edge">
<title>Node6&#45;&gt;Node5</title>
<path fill="none" stroke="midnightblue" d="M840.69,-94.63C890.77,-89.25 963.25,-81.47 1004.84,-77.01"/>
<polygon fill="midnightblue" stroke="midnightblue" points="840.24,-91.16 830.67,-95.7 840.99,-98.12 840.24,-91.16"/>
</g>
<!-- Node7 -->
<g id="node7" class="node">
<title>Node7</title>
<g id="a_node7"><a xlink:title=" ">
<polygon fill="white" stroke="#bfbfbf" points="457,-90 457,-109 564,-109 564,-90 457,-90"/>
<text text-anchor="middle" x="510.5" y="-97" font-family="Helvetica,sans-Serif" font-size="10.00">std::atomic&lt; int &gt;</text>
</a>
</g>
</g>
<!-- Node7&#45;&gt;Node6 -->
<g id="edge6" class="edge">
<title>Node7&#45;&gt;Node6</title>
<path fill="none" stroke="#9a32cd" stroke-dasharray="5,2" d="M574.18,-99.73C624.64,-99.92 694.33,-100.17 739.29,-100.34"/>
<polygon fill="#9a32cd" stroke="#9a32cd" points="574.05,-96.23 564.04,-99.69 574.03,-103.23 574.05,-96.23"/>
<text text-anchor="middle" x="651.5" y="-102.5" font-family="Helvetica,sans-Serif" font-size="10.00"> m_ReferenceCount</text>
</g>
<!-- Node8 -->
<g id="node8" class="node">
<title>Node8</title>
<g id="a_node8"><a xlink:title="STL class.">
<polygon fill="white" stroke="#bfbfbf" points="123,-87 123,-106 223,-106 223,-87 123,-87"/>
<text text-anchor="middle" x="173" y="-94" font-family="Helvetica,sans-Serif" font-size="10.00">std::atomic&lt; T &gt;</text>
</a>
</g>
</g>
<!-- Node8&#45;&gt;Node7 -->
<g id="edge7" class="edge">
<title>Node8&#45;&gt;Node7</title>
<path fill="none" stroke="orange" stroke-dasharray="5,2" d="M233.38,-97.03C296.77,-97.6 396.25,-98.49 456.9,-99.03"/>
<polygon fill="orange" stroke="orange" points="233.17,-93.53 223.14,-96.94 233.11,-100.53 233.17,-93.53"/>
<text text-anchor="middle" x="334" y="-101.5" font-family="Helvetica,sans-Serif" font-size="10.00"> &lt; int &gt;</text>
</g>
<!-- Node17 -->
<g id="node17" class="node">
<title>Node17</title>
<g id="a_node17"><a xlink:href="classitk_1_1TimeStamp.html" target="_top" xlink:title="Generate a unique, increasing time value.">
<polygon fill="white" stroke="black" points="605.5,-52 605.5,-71 697.5,-71 697.5,-52 605.5,-52"/>
<text text-anchor="middle" x="651.5" y="-59" font-family="Helvetica,sans-Serif" font-size="10.00">itk::TimeStamp</text>
</a>
</g>
</g>
<!-- Node8&#45;&gt;Node17 -->
<g id="edge19" class="edge">
<title>Node8&#45;&gt;Node17</title>
<path fill="none" stroke="#9a32cd" stroke-dasharray="5,2" d="M226.31,-85.14C234.22,-83.73 242.3,-82.45 250,-81.5 378.18,-65.74 530.88,-62.32 605.27,-61.63"/>
<polygon fill="#9a32cd" stroke="#9a32cd" points="225.62,-81.71 216.43,-87 226.91,-88.59 225.62,-81.71"/>
<text text-anchor="middle" x="334" y="-84.5" font-family="Helvetica,sans-Serif" font-size="10.00"> m_GlobalTimeStamp</text>
</g>
<!-- Node9 -->
<g id="node9" class="node">
<title>Node9</title>
<g id="a_node9"><a xlink:title=" ">
<polygon fill="white" stroke="#bfbfbf" points="0,-126 0,-145 29,-145 29,-126 0,-126"/>
<text text-anchor="middle" x="14.5" y="-133" font-family="Helvetica,sans-Serif" font-size="10.00">T</text>
</a>
</g>
</g>
<!-- Node9&#45;&gt;Node8 -->
<g id="edge8" class="edge">
<title>Node9&#45;&gt;Node8</title>
<path fill="none" stroke="#9a32cd" stroke-dasharray="5,2" d="M38.44,-122.9C41.27,-121.63 44.17,-120.46 47,-119.5 71.35,-111.27 99.43,-105.77 122.79,-102.21"/>
<polygon fill="#9a32cd" stroke="#9a32cd" points="36.66,-119.88 29.24,-127.44 39.75,-126.16 36.66,-119.88"/>
<text text-anchor="middle" x="71.5" y="-122.5" font-family="Helvetica,sans-Serif" font-size="10.00"> ptr</text>
</g>
<!-- Node14 -->
<g id="node14" class="node">
<title>Node14</title>
<g id="a_node14"><a xlink:title="STL class.">
<polygon fill="white" stroke="#bfbfbf" points="122.5,-125 122.5,-144 223.5,-144 223.5,-125 122.5,-125"/>
<text text-anchor="middle" x="173" y="-132" font-family="Helvetica,sans-Serif" font-size="10.00">std::map&lt; K, T &gt;</text>
</a>
</g>
</g>
<!-- Node9&#45;&gt;Node14 -->
<g id="edge15" class="edge">
<title>Node9&#45;&gt;Node14</title>
<path fill="none" stroke="#9a32cd" stroke-dasharray="5,2" d="M39.19,-135.35C61.16,-135.21 94.54,-134.99 122.35,-134.82"/>
<polygon fill="#9a32cd" stroke="#9a32cd" points="39.09,-131.85 29.11,-135.41 39.14,-138.85 39.09,-131.85"/>
<text text-anchor="middle" x="71.5" y="-137.5" font-family="Helvetica,sans-Serif" font-size="10.00"> elements</text>
</g>
<!-- Node16 -->
<g id="node16" class="node">
<title>Node16</title>
<g id="a_node16"><a xlink:title="STL class.">
<polygon fill="white" stroke="#bfbfbf" points="114,-163 114,-182 232,-182 232,-163 114,-163"/>
<text text-anchor="middle" x="173" y="-170" font-family="Helvetica,sans-Serif" font-size="10.00">std::shared_ptr&lt; T &gt;</text>
</a>
</g>
</g>
<!-- Node9&#45;&gt;Node16 -->
<g id="edge17" class="edge">
<title>Node9&#45;&gt;Node16</title>
<path fill="none" stroke="#9a32cd" stroke-dasharray="5,2" d="M38.37,-146.41C41.23,-147.56 44.16,-148.62 47,-149.5 68.4,-156.12 92.48,-161.11 113.75,-164.71"/>
<polygon fill="#9a32cd" stroke="#9a32cd" points="39.6,-143.13 29.03,-142.36 36.81,-149.55 39.6,-143.13"/>
<text text-anchor="middle" x="71.5" y="-163.5" font-family="Helvetica,sans-Serif" font-size="10.00"> ptr</text>
</g>
<!-- Node10 -->
<g id="node10" class="node">
<title>Node10</title>
<g id="a_node10"><a xlink:title="STL class.">
<polygon fill="white" stroke="#bfbfbf" points="752.5,-6 752.5,-25 817.5,-25 817.5,-6 752.5,-6"/>
<text text-anchor="middle" x="785" y="-13" font-family="Helvetica,sans-Serif" font-size="10.00">std::string</text>
</a>
</g>
</g>
<!-- Node10&#45;&gt;Node5 -->
<g id="edge9" class="edge">
<title>Node10&#45;&gt;Node5</title>
<path fill="none" stroke="#9a32cd" stroke-dasharray="5,2" d="M827.91,-13.62C869.63,-13.16 934.79,-16.36 987,-36.5 1002.82,-42.6 1018.11,-55.01 1027.64,-63.77"/>
<polygon fill="#9a32cd" stroke="#9a32cd" points="827.76,-10.12 817.83,-13.8 827.89,-17.12 827.76,-10.12"/>
<text text-anchor="middle" x="928.5" y="-39.5" font-family="Helvetica,sans-Serif" font-size="10.00"> m_ObjectName</text>
</g>
<!-- Node11 -->
<g id="node11" class="node">
<title>Node11</title>
<g id="a_node11"><a xlink:title="STL class.">
<polygon fill="white" stroke="#bfbfbf" points="458.5,-0.5 458.5,-30.5 562.5,-30.5 562.5,-0.5 458.5,-0.5"/>
<text text-anchor="start" x="466.5" y="-18.5" font-family="Helvetica,sans-Serif" font-size="10.00">std::basic_string&lt;</text>
<text text-anchor="middle" x="510.5" y="-7.5" font-family="Helvetica,sans-Serif" font-size="10.00"> char &gt;</text>
</a>
</g>
</g>
<!-- Node11&#45;&gt;Node10 -->
<g id="edge10" class="edge">
<title>Node11&#45;&gt;Node10</title>
<path fill="none" stroke="midnightblue" d="M572.85,-15.5C628.49,-15.5 708.3,-15.5 752.14,-15.5"/>
<polygon fill="midnightblue" stroke="midnightblue" points="572.76,-12 562.76,-15.5 572.76,-19 572.76,-12"/>
</g>
<!-- Node12 -->
<g id="node12" class="node">
<title>Node12</title>
<g id="a_node12"><a xlink:href="classitk_1_1MetaDataDictionary.html" target="_top" xlink:title="Provides a mechanism for storing a collection of arbitrary data types.">
<polygon fill="white" stroke="black" points="718,-131 718,-150 852,-150 852,-131 718,-131"/>
<text text-anchor="middle" x="785" y="-138" font-family="Helvetica,sans-Serif" font-size="10.00">itk::MetaDataDictionary</text>
</a>
</g>
</g>
<!-- Node12&#45;&gt;Node5 -->
<g id="edge11" class="edge">
<title>Node12&#45;&gt;Node5</title>
<path fill="none" stroke="#9a32cd" stroke-dasharray="5,2" d="M862.31,-129.25C900.39,-122.47 946.79,-112.4 987,-98.5 998.65,-94.47 1011.07,-88.35 1020.67,-83.18"/>
<polygon fill="#9a32cd" stroke="#9a32cd" points="861.56,-125.83 852.31,-131 862.76,-132.73 861.56,-125.83"/>
<text text-anchor="middle" x="928.5" y="-129.5" font-family="Helvetica,sans-Serif" font-size="10.00"> m_MetaDataDictionary</text>
</g>
<!-- Node13 -->
<g id="node13" class="node">
<title>Node13</title>
<g id="a_node13"><a xlink:title=" ">
<polygon fill="white" stroke="#bfbfbf" points="436,-128.5 436,-158.5 585,-158.5 585,-128.5 436,-128.5"/>
<text text-anchor="start" x="444" y="-146.5" font-family="Helvetica,sans-Serif" font-size="10.00">std::shared_ptr&lt; MetaData</text>
<text text-anchor="middle" x="510.5" y="-135.5" font-family="Helvetica,sans-Serif" font-size="10.00">DictionaryMapType &gt;</text>
</a>
</g>
</g>
<!-- Node13&#45;&gt;Node12 -->
<g id="edge12" class="edge">
<title>Node13&#45;&gt;Node12</title>
<path fill="none" stroke="#9a32cd" stroke-dasharray="5,2" d="M595.34,-142.58C634.65,-142.14 680.82,-141.64 717.65,-141.23"/>
<polygon fill="#9a32cd" stroke="#9a32cd" points="595.2,-139.08 585.24,-142.69 595.28,-146.08 595.2,-139.08"/>
<text text-anchor="middle" x="651.5" y="-144.5" font-family="Helvetica,sans-Serif" font-size="10.00"> m_Dictionary</text>
</g>
<!-- Node14&#45;&gt;Node13 -->
<g id="edge13" class="edge">
<title>Node14&#45;&gt;Node13</title>
<path fill="none" stroke="#9a32cd" stroke-dasharray="5,2" d="M233.74,-134.84C283.15,-135.28 355.15,-136.27 418,-138.5 423.72,-138.7 429.65,-138.95 435.6,-139.22"/>
<polygon fill="#9a32cd" stroke="#9a32cd" points="233.58,-131.34 223.55,-134.76 233.52,-138.34 233.58,-131.34"/>
<text text-anchor="middle" x="334" y="-141.5" font-family="Helvetica,sans-Serif" font-size="10.00"> ptr</text>
</g>
<!-- Node15 -->
<g id="node15" class="node">
<title>Node15</title>
<g id="a_node15"><a xlink:title=" ">
<polygon fill="white" stroke="#bfbfbf" points="0,-58 0,-77 29,-77 29,-58 0,-58"/>
<text text-anchor="middle" x="14.5" y="-65" font-family="Helvetica,sans-Serif" font-size="10.00">K</text>
</a>
</g>
</g>
<!-- Node15&#45;&gt;Node14 -->
<g id="edge14" class="edge">
<title>Node15&#45;&gt;Node14</title>
<path fill="none" stroke="#9a32cd" stroke-dasharray="5,2" d="M39.39,-70.56C56.39,-73.65 79.12,-79.74 96,-91.5 106.94,-99.12 103.16,-107.73 114,-115.5 119.34,-119.33 125.49,-122.42 131.76,-124.9"/>
<polygon fill="#9a32cd" stroke="#9a32cd" points="39.59,-67.04 29.17,-68.92 38.49,-73.96 39.59,-67.04"/>
<text text-anchor="middle" x="71.5" y="-94.5" font-family="Helvetica,sans-Serif" font-size="10.00"> keys</text>
</g>
<!-- Node16&#45;&gt;Node13 -->
<g id="edge16" class="edge">
<title>Node16&#45;&gt;Node13</title>
<path fill="none" stroke="orange" stroke-dasharray="5,2" d="M242.27,-166.6C298.5,-161.74 378.06,-154.86 435.74,-149.88"/>
<polygon fill="orange" stroke="orange" points="241.72,-163.13 232.06,-167.48 242.32,-170.11 241.72,-163.13"/>
<text text-anchor="middle" x="334" y="-167.5" font-family="Helvetica,sans-Serif" font-size="10.00"> &lt; MetaDataDictionaryMapType &gt;</text>
</g>
<!-- Node17&#45;&gt;Node5 -->
<g id="edge18" class="edge">
<title>Node17&#45;&gt;Node5</title>
<path fill="none" stroke="#9a32cd" stroke-dasharray="5,2" d="M707.87,-63.23C789.37,-65.77 939.09,-70.43 1004.95,-72.49"/>
<polygon fill="#9a32cd" stroke="#9a32cd" points="707.9,-59.73 697.8,-62.91 707.68,-66.72 707.9,-59.73"/>
<text text-anchor="middle" x="785" y="-70.5" font-family="Helvetica,sans-Serif" font-size="10.00"> m_MTime</text>
</g>
<!-- Node18&#45;&gt;Node3 -->
<g id="edge20" class="edge">
<title>Node18&#45;&gt;Node3</title>
<path fill="none" stroke="orange" stroke-dasharray="5,2" d="M1468.35,-51.79C1512.55,-53.59 1566.71,-56.8 1615,-62.5 1630.16,-64.29 1646.29,-66.8 1661.67,-69.48"/>
<polygon fill="orange" stroke="orange" points="1468.34,-48.28 1458.21,-51.39 1468.07,-55.28 1468.34,-48.28"/>
<text text-anchor="start" x="1476" y="-76.5" font-family="Helvetica,sans-Serif" font-size="10.00"> &lt; TParametersValueType,</text>
<text text-anchor="middle" x="1545.5" y="-65.5" font-family="Helvetica,sans-Serif" font-size="10.00"> VDimension, VDimension &gt;</text>
</g>
<!-- Node19 -->
<g id="node19" class="node">
<title>Node19</title>
<g id="a_node19"><a xlink:href="classitk_1_1SmartPointer.html" target="_top" xlink:title=" ">
<polygon fill="white" stroke="black" points="1683.5,-177.5 1683.5,-207.5 1790.5,-207.5 1790.5,-177.5 1683.5,-177.5"/>
<text text-anchor="start" x="1691.5" y="-195.5" font-family="Helvetica,sans-Serif" font-size="10.00">itk::SmartPointer&lt;</text>
<text text-anchor="middle" x="1737" y="-184.5" font-family="Helvetica,sans-Serif" font-size="10.00"> Self &gt;</text>
</a>
</g>
</g>
<!-- Node19&#45;&gt;Node2 -->
<g id="edge22" class="edge">
<title>Node19&#45;&gt;Node2</title>
<path fill="none" stroke="#9a32cd" stroke-dasharray="5,2" d="M1800.56,-191.44C1919.03,-189.43 2175.96,-185.08 2306.86,-182.86"/>
<polygon fill="#9a32cd" stroke="#9a32cd" points="1800.5,-187.94 1790.56,-191.61 1800.62,-194.94 1800.5,-187.94"/>
<text text-anchor="middle" x="2051" y="-190.5" font-family="Helvetica,sans-Serif" font-size="10.00"> m_Displacements</text>
</g>
<!-- Node19&#45;&gt;Node21 -->
<g id="edge27" class="edge">
<title>Node19&#45;&gt;Node21</title>
<path fill="none" stroke="#9a32cd" stroke-dasharray="5,2" d="M1800.61,-181.01C1819.38,-177.59 1840.02,-173.86 1859,-170.5 1898.93,-163.42 1943.58,-155.69 1979.67,-149.5"/>
<polygon fill="#9a32cd" stroke="#9a32cd" points="1799.9,-177.58 1790.69,-182.82 1801.16,-184.47 1799.9,-177.58"/>
<text text-anchor="middle" x="1910.5" y="-173.5" font-family="Helvetica,sans-Serif" font-size="10.00"> m_Displacements</text>
</g>
<!-- Node20 -->
<g id="node20" class="node">
<title>Node20</title>
<g id="a_node20"><a xlink:href="classitk_1_1SmartPointer.html" target="_top" xlink:title="Implements transparent reference counting.">
<polygon fill="white" stroke="black" points="1325,-177.5 1325,-207.5 1432,-207.5 1432,-177.5 1325,-177.5"/>
<text text-anchor="start" x="1333" y="-195.5" font-family="Helvetica,sans-Serif" font-size="10.00">itk::SmartPointer&lt;</text>
<text text-anchor="middle" x="1378.5" y="-184.5" font-family="Helvetica,sans-Serif" font-size="10.00"> TObjectType &gt;</text>
</a>
</g>
</g>
<!-- Node20&#45;&gt;Node2 -->
<g id="edge24" class="edge">
<title>Node20&#45;&gt;Node2</title>
<path fill="none" stroke="#9a32cd" stroke-dasharray="5,2" d="M1442.36,-203.11C1453.54,-204.76 1465.1,-206.31 1476,-207.5 1545.5,-215.1 1563.12,-215.28 1633,-217.5 1924.54,-226.78 1998.86,-227.56 2289,-197.5 2294.83,-196.9 2300.84,-196.17 2306.88,-195.37"/>
<polygon fill="#9a32cd" stroke="#9a32cd" points="1442.64,-199.62 1432.22,-201.58 1441.59,-206.54 1442.64,-199.62"/>
<text text-anchor="middle" x="1910.5" y="-236.5" font-family="Helvetica,sans-Serif" font-size="10.00"> m_TargetLandmarks</text>
<text text-anchor="middle" x="1910.5" y="-225.5" font-family="Helvetica,sans-Serif" font-size="10.00">m_SourceLandmarks</text>
</g>
<!-- Node20&#45;&gt;Node19 -->
<g id="edge23" class="edge">
<title>Node20&#45;&gt;Node19</title>
<path fill="none" stroke="orange" stroke-dasharray="5,2" d="M1442.33,-192.5C1510.85,-192.5 1619.3,-192.5 1683.47,-192.5"/>
<polygon fill="orange" stroke="orange" points="1442.1,-189 1432.1,-192.5 1442.1,-196 1442.1,-189"/>
<text text-anchor="middle" x="1545.5" y="-195.5" font-family="Helvetica,sans-Serif" font-size="10.00"> &lt; Self &gt;</text>
</g>
<!-- Node20&#45;&gt;Node21 -->
<g id="edge28" class="edge">
<title>Node20&#45;&gt;Node21</title>
<path fill="none" stroke="#9a32cd" stroke-dasharray="5,2" d="M1441.97,-178.32C1493.05,-167.41 1567.29,-153.13 1633,-146.5 1754.4,-134.25 1896.65,-134.23 1979.7,-135.64"/>
<polygon fill="#9a32cd" stroke="#9a32cd" points="1441.12,-174.92 1432.08,-180.45 1442.59,-181.77 1441.12,-174.92"/>
<text text-anchor="middle" x="1737" y="-160.5" font-family="Helvetica,sans-Serif" font-size="10.00"> m_TargetLandmarks</text>
<text text-anchor="middle" x="1737" y="-149.5" font-family="Helvetica,sans-Serif" font-size="10.00">m_SourceLandmarks</text>
</g>
<!-- Node21&#45;&gt;Node2 -->
<g id="edge25" class="edge">
<title>Node21&#45;&gt;Node2</title>
<path fill="none" stroke="orange" stroke-dasharray="5,2" d="M2132.24,-148.04C2185.09,-154.98 2254.03,-164.04 2306.87,-170.98"/>
<polygon fill="orange" stroke="orange" points="2132.6,-144.56 2122.23,-146.72 2131.69,-151.5 2132.6,-144.56"/>
<text text-anchor="middle" x="2214.5" y="-170.5" font-family="Helvetica,sans-Serif" font-size="10.00"> &lt; TParametersValueType, 3 &gt;</text>
</g>
</g>
</svg>
