<?xml version="1.0" encoding="UTF-8" standalone="no"?>
<!DOCTYPE svg PUBLIC "-//W3C//DTD SVG 1.1//EN"
 "http://www.w3.org/Graphics/SVG/1.1/DTD/svg11.dtd">
<!-- Generated by graphviz version 2.43.0 (0)
 -->
<!-- Title: itk::Statistics::Histogram&lt; TMeasurement, TFrequencyContainer &gt;::ConstIterator Pages: 1 -->
<svg width="2538pt" height="404pt"
 viewBox="0.00 0.00 2538.00 403.50" xmlns="http://www.w3.org/2000/svg" xmlns:xlink="http://www.w3.org/1999/xlink">
<g id="graph0" class="graph" transform="scale(1 1) rotate(0) translate(4 399.5)">
<title>itk::Statistics::Histogram&lt; TMeasurement, TFrequencyContainer &gt;::ConstIterator</title>
<polygon fill="white" stroke="transparent" points="-4,4 -4,-399.5 2534,-399.5 2534,4 -4,4"/>
<!-- Node1 -->
<g id="node1" class="node">
<title>Node1</title>
<g id="a_node1"><a xlink:title="class that walks through the elements of the histogram.">
<polygon fill="#bfbfbf" stroke="black" points="2319,-88 2319,-129 2530,-129 2530,-88 2319,-88"/>
<text text-anchor="start" x="2327" y="-117" font-family="Helvetica,sans-Serif" font-size="10.00">itk::Statistics::Histogram</text>
<text text-anchor="start" x="2327" y="-106" font-family="Helvetica,sans-Serif" font-size="10.00">&lt; TMeasurement, TFrequencyContainer</text>
<text text-anchor="middle" x="2424.5" y="-95" font-family="Helvetica,sans-Serif" font-size="10.00"> &gt;::ConstIterator</text>
</a>
</g>
</g>
<!-- Node2 -->
<g id="node2" class="node">
<title>Node2</title>
<g id="a_node2"><a xlink:href="classitk_1_1Statistics_1_1Histogram.html" target="_top" xlink:title="This class stores measurement vectors in the context of n&#45;dimensional histogram.">
<polygon fill="white" stroke="black" points="1991,-93.5 1991,-123.5 2213,-123.5 2213,-93.5 1991,-93.5"/>
<text text-anchor="start" x="1999" y="-111.5" font-family="Helvetica,sans-Serif" font-size="10.00">itk::Statistics::Histogram</text>
<text text-anchor="middle" x="2102" y="-100.5" font-family="Helvetica,sans-Serif" font-size="10.00">&lt; TMeasurement, TFrequencyContainer &gt;</text>
</a>
</g>
</g>
<!-- Node2&#45;&gt;Node1 -->
<g id="edge1" class="edge">
<title>Node2&#45;&gt;Node1</title>
<path fill="none" stroke="#9a32cd" stroke-dasharray="5,2" d="M2223.41,-108.5C2254.83,-108.5 2288.42,-108.5 2318.94,-108.5"/>
<polygon fill="#9a32cd" stroke="#9a32cd" points="2223.3,-105 2213.3,-108.5 2223.3,-112 2223.3,-105"/>
<text text-anchor="middle" x="2266" y="-111.5" font-family="Helvetica,sans-Serif" font-size="10.00"> m_Histogram</text>
</g>
<!-- Node3 -->
<g id="node3" class="node">
<title>Node3</title>
<g id="a_node3"><a xlink:href="classitk_1_1Statistics_1_1Sample.html" target="_top" xlink:title=" ">
<polygon fill="white" stroke="black" points="1732.5,-186.5 1732.5,-216.5 1855.5,-216.5 1855.5,-186.5 1732.5,-186.5"/>
<text text-anchor="start" x="1740.5" y="-204.5" font-family="Helvetica,sans-Serif" font-size="10.00">itk::Statistics::Sample</text>
<text text-anchor="middle" x="1794" y="-193.5" font-family="Helvetica,sans-Serif" font-size="10.00">&lt; Array&lt; float &gt; &gt;</text>
</a>
</g>
</g>
<!-- Node3&#45;&gt;Node2 -->
<g id="edge2" class="edge">
<title>Node3&#45;&gt;Node2</title>
<path fill="none" stroke="midnightblue" d="M1859.64,-183.74C1867.18,-181.65 1874.76,-179.53 1882,-177.5 1922.5,-166.13 1932.83,-163.98 1973,-151.5 2001.43,-142.67 2033.16,-132.02 2057.91,-123.52"/>
<polygon fill="midnightblue" stroke="midnightblue" points="1858.49,-180.43 1849.78,-186.47 1860.36,-187.17 1858.49,-180.43"/>
</g>
<!-- Node4 -->
<g id="node4" class="node">
<title>Node4</title>
<g id="a_node4"><a xlink:href="classitk_1_1DataObject.html" target="_top" xlink:title="Base class for all data objects in ITK.">
<polygon fill="white" stroke="black" points="1500,-192 1500,-211 1590,-211 1590,-192 1500,-192"/>
<text text-anchor="middle" x="1545" y="-199" font-family="Helvetica,sans-Serif" font-size="10.00">itk::DataObject</text>
</a>
</g>
</g>
<!-- Node4&#45;&gt;Node3 -->
<g id="edge3" class="edge">
<title>Node4&#45;&gt;Node3</title>
<path fill="none" stroke="midnightblue" d="M1600.25,-201.5C1639.19,-201.5 1691.68,-201.5 1732.06,-201.5"/>
<polygon fill="midnightblue" stroke="midnightblue" points="1600.16,-198 1590.16,-201.5 1600.16,-205 1600.16,-198"/>
</g>
<!-- Node5 -->
<g id="node5" class="node">
<title>Node5</title>
<g id="a_node5"><a xlink:href="classitk_1_1Object.html" target="_top" xlink:title="Base class for most ITK classes.">
<polygon fill="white" stroke="black" points="1242,-268 1242,-287 1309,-287 1309,-268 1242,-268"/>
<text text-anchor="middle" x="1275.5" y="-275" font-family="Helvetica,sans-Serif" font-size="10.00">itk::Object</text>
</a>
</g>
</g>
<!-- Node5&#45;&gt;Node4 -->
<g id="edge4" class="edge">
<title>Node5&#45;&gt;Node4</title>
<path fill="none" stroke="midnightblue" d="M1318.82,-265.48C1371.9,-250.4 1461.83,-224.84 1510.43,-211.04"/>
<polygon fill="midnightblue" stroke="midnightblue" points="1317.7,-262.16 1309.03,-268.26 1319.61,-268.89 1317.7,-262.16"/>
</g>
<!-- Node6 -->
<g id="node6" class="node">
<title>Node6</title>
<g id="a_node6"><a xlink:href="classitk_1_1LightObject.html" target="_top" xlink:title="Light weight base class for most itk classes.">
<polygon fill="white" stroke="black" points="932,-239 932,-258 1023,-258 1023,-239 932,-239"/>
<text text-anchor="middle" x="977.5" y="-246" font-family="Helvetica,sans-Serif" font-size="10.00">itk::LightObject</text>
</a>
</g>
</g>
<!-- Node6&#45;&gt;Node5 -->
<g id="edge5" class="edge">
<title>Node6&#45;&gt;Node5</title>
<path fill="none" stroke="midnightblue" d="M1033.38,-253.88C1094.59,-259.87 1191.59,-269.38 1241.87,-274.3"/>
<polygon fill="midnightblue" stroke="midnightblue" points="1033.43,-250.36 1023.13,-252.87 1032.75,-257.33 1033.43,-250.36"/>
</g>
<!-- Node7 -->
<g id="node7" class="node">
<title>Node7</title>
<g id="a_node7"><a xlink:title=" ">
<polygon fill="white" stroke="black" points="655.5,-239 655.5,-258 762.5,-258 762.5,-239 655.5,-239"/>
<text text-anchor="middle" x="709" y="-246" font-family="Helvetica,sans-Serif" font-size="10.00">std::atomic&lt; int &gt;</text>
</a>
</g>
</g>
<!-- Node7&#45;&gt;Node6 -->
<g id="edge6" class="edge">
<title>Node7&#45;&gt;Node6</title>
<path fill="none" stroke="#9a32cd" stroke-dasharray="5,2" d="M772.8,-248.5C821.7,-248.5 888.37,-248.5 931.92,-248.5"/>
<polygon fill="#9a32cd" stroke="#9a32cd" points="772.65,-245 762.65,-248.5 772.65,-252 772.65,-245"/>
<text text-anchor="middle" x="842.5" y="-251.5" font-family="Helvetica,sans-Serif" font-size="10.00"> m_ReferenceCount</text>
</g>
<!-- Node8 -->
<g id="node8" class="node">
<title>Node8</title>
<g id="a_node8"><a xlink:href="classitk_1_1TimeStamp.html" target="_top" xlink:title="Generate a unique, increasing time value.">
<polygon fill="white" stroke="black" points="931.5,-376 931.5,-395 1023.5,-395 1023.5,-376 931.5,-376"/>
<text text-anchor="middle" x="977.5" y="-383" font-family="Helvetica,sans-Serif" font-size="10.00">itk::TimeStamp</text>
</a>
</g>
</g>
<!-- Node8&#45;&gt;Node4 -->
<g id="edge21" class="edge">
<title>Node8&#45;&gt;Node4</title>
<path fill="none" stroke="#9a32cd" stroke-dasharray="5,2" d="M1033.67,-388.18C1078.37,-389 1142.63,-387.09 1197,-373.5 1336.6,-338.62 1485.29,-241.86 1530.32,-211.05"/>
<polygon fill="#9a32cd" stroke="#9a32cd" points="1033.68,-384.68 1023.6,-387.94 1033.51,-391.68 1033.68,-384.68"/>
<text text-anchor="middle" x="1275.5" y="-369.5" font-family="Helvetica,sans-Serif" font-size="10.00"> m_UpdateMTime</text>
</g>
<!-- Node8&#45;&gt;Node5 -->
<g id="edge7" class="edge">
<title>Node8&#45;&gt;Node5</title>
<path fill="none" stroke="#9a32cd" stroke-dasharray="5,2" d="M1020.87,-373.28C1034.57,-369.55 1049.87,-365.62 1064,-362.5 1122.58,-349.58 1142.3,-364.12 1197,-339.5 1225.28,-326.77 1252.11,-301.29 1265.54,-287.28"/>
<polygon fill="#9a32cd" stroke="#9a32cd" points="1019.92,-369.91 1011.21,-375.95 1021.78,-376.66 1019.92,-369.91"/>
<text text-anchor="middle" x="1130.5" y="-365.5" font-family="Helvetica,sans-Serif" font-size="10.00"> m_MTime</text>
</g>
<!-- Node9 -->
<g id="node9" class="node">
<title>Node9</title>
<g id="a_node9"><a xlink:title=" ">
<polygon fill="white" stroke="black" points="233,-375 233,-394 333,-394 333,-375 233,-375"/>
<text text-anchor="middle" x="283" y="-382" font-family="Helvetica,sans-Serif" font-size="10.00">std::atomic&lt; T &gt;</text>
</a>
</g>
</g>
<!-- Node9&#45;&gt;Node8 -->
<g id="edge8" class="edge">
<title>Node9&#45;&gt;Node8</title>
<path fill="none" stroke="#9a32cd" stroke-dasharray="5,2" d="M343.46,-384.59C479.32,-384.78 810.08,-385.26 931.14,-385.43"/>
<polygon fill="#9a32cd" stroke="#9a32cd" points="343.25,-381.09 333.25,-384.57 343.24,-388.09 343.25,-381.09"/>
<text text-anchor="middle" x="571" y="-387.5" font-family="Helvetica,sans-Serif" font-size="10.00"> m_GlobalTimeStamp</text>
</g>
<!-- Node10 -->
<g id="node10" class="node">
<title>Node10</title>
<g id="a_node10"><a xlink:title=" ">
<polygon fill="white" stroke="black" points="0,-360 0,-379 29,-379 29,-360 0,-360"/>
<text text-anchor="middle" x="14.5" y="-367" font-family="Helvetica,sans-Serif" font-size="10.00">T</text>
</a>
</g>
</g>
<!-- Node10&#45;&gt;Node9 -->
<g id="edge9" class="edge">
<title>Node10&#45;&gt;Node9</title>
<path fill="none" stroke="#9a32cd" stroke-dasharray="5,2" d="M39.23,-370.84C82.59,-373.28 175.47,-378.5 232.94,-381.74"/>
<polygon fill="#9a32cd" stroke="#9a32cd" points="39.26,-367.33 29.08,-370.26 38.87,-374.32 39.26,-367.33"/>
<text text-anchor="middle" x="71.5" y="-376.5" font-family="Helvetica,sans-Serif" font-size="10.00"> ptr</text>
</g>
<!-- Node15 -->
<g id="node15" class="node">
<title>Node15</title>
<g id="a_node15"><a xlink:title=" ">
<polygon fill="white" stroke="black" points="114,-307 114,-326 215,-326 215,-307 114,-307"/>
<text text-anchor="middle" x="164.5" y="-314" font-family="Helvetica,sans-Serif" font-size="10.00">std::map&lt; K, T &gt;</text>
</a>
</g>
</g>
<!-- Node10&#45;&gt;Node15 -->
<g id="edge16" class="edge">
<title>Node10&#45;&gt;Node15</title>
<path fill="none" stroke="#9a32cd" stroke-dasharray="5,2" d="M38.18,-355.74C41.1,-354.21 44.08,-352.75 47,-351.5 71.84,-340.84 100.96,-332.09 123.88,-326"/>
<polygon fill="#9a32cd" stroke="#9a32cd" points="36.28,-352.79 29.26,-360.73 39.7,-358.9 36.28,-352.79"/>
<text text-anchor="middle" x="71.5" y="-354.5" font-family="Helvetica,sans-Serif" font-size="10.00"> elements</text>
</g>
<!-- Node11 -->
<g id="node11" class="node">
<title>Node11</title>
<g id="a_node11"><a xlink:title=" ">
<polygon fill="white" stroke="black" points="909,-326.5 909,-356.5 1046,-356.5 1046,-326.5 909,-326.5"/>
<text text-anchor="start" x="917" y="-344.5" font-family="Helvetica,sans-Serif" font-size="10.00">std::unique_ptr&lt; Subject</text>
<text text-anchor="middle" x="977.5" y="-333.5" font-family="Helvetica,sans-Serif" font-size="10.00">Implementation &gt;</text>
</a>
</g>
</g>
<!-- Node11&#45;&gt;Node5 -->
<g id="edge10" class="edge">
<title>Node11&#45;&gt;Node5</title>
<path fill="none" stroke="#9a32cd" stroke-dasharray="5,2" d="M1056.4,-328.74C1108,-320.06 1170.84,-309.02 1197,-302.5 1214.15,-298.22 1233.03,-292.16 1247.86,-287.08"/>
<polygon fill="#9a32cd" stroke="#9a32cd" points="1055.52,-325.34 1046.24,-330.44 1056.68,-332.24 1055.52,-325.34"/>
<text text-anchor="middle" x="1130.5" y="-328.5" font-family="Helvetica,sans-Serif" font-size="10.00"> m_SubjectImplementation</text>
</g>
<!-- Node12 -->
<g id="node12" class="node">
<title>Node12</title>
<g id="a_node12"><a xlink:title=" ">
<polygon fill="white" stroke="black" points="911.5,-277.5 911.5,-307.5 1043.5,-307.5 1043.5,-277.5 911.5,-277.5"/>
<text text-anchor="start" x="919.5" y="-295.5" font-family="Helvetica,sans-Serif" font-size="10.00">std::unique_ptr&lt; itk</text>
<text text-anchor="middle" x="977.5" y="-284.5" font-family="Helvetica,sans-Serif" font-size="10.00">::MetaDataDictionary &gt;</text>
</a>
</g>
</g>
<!-- Node12&#45;&gt;Node5 -->
<g id="edge11" class="edge">
<title>Node12&#45;&gt;Node5</title>
<path fill="none" stroke="#9a32cd" stroke-dasharray="5,2" d="M1054.12,-288.67C1114.74,-285.6 1196.86,-281.43 1241.79,-279.16"/>
<polygon fill="#9a32cd" stroke="#9a32cd" points="1053.63,-285.19 1043.82,-289.19 1053.99,-292.18 1053.63,-285.19"/>
<text text-anchor="middle" x="1130.5" y="-290.5" font-family="Helvetica,sans-Serif" font-size="10.00"> m_MetaDataDictionary</text>
</g>
<!-- Node13 -->
<g id="node13" class="node">
<title>Node13</title>
<g id="a_node13"><a xlink:href="classitk_1_1MetaDataDictionary.html" target="_top" xlink:title="Provides a mechanism for storing a collection of arbitrary data types.">
<polygon fill="white" stroke="black" points="642,-295 642,-314 776,-314 776,-295 642,-295"/>
<text text-anchor="middle" x="709" y="-302" font-family="Helvetica,sans-Serif" font-size="10.00">itk::MetaDataDictionary</text>
</a>
</g>
</g>
<!-- Node13&#45;&gt;Node12 -->
<g id="edge12" class="edge">
<title>Node13&#45;&gt;Node12</title>
<path fill="none" stroke="#9a32cd" stroke-dasharray="5,2" d="M786.32,-301.06C825.74,-299.29 873.36,-297.14 911.08,-295.45"/>
<polygon fill="#9a32cd" stroke="#9a32cd" points="786.05,-297.57 776.22,-301.52 786.37,-304.56 786.05,-297.57"/>
<text text-anchor="middle" x="842.5" y="-303.5" font-family="Helvetica,sans-Serif" font-size="10.00"> ptr</text>
</g>
<!-- Node14 -->
<g id="node14" class="node">
<title>Node14</title>
<g id="a_node14"><a xlink:title=" ">
<polygon fill="white" stroke="black" points="351,-292.5 351,-322.5 500,-322.5 500,-292.5 351,-292.5"/>
<text text-anchor="start" x="359" y="-310.5" font-family="Helvetica,sans-Serif" font-size="10.00">std::shared_ptr&lt; MetaData</text>
<text text-anchor="middle" x="425.5" y="-299.5" font-family="Helvetica,sans-Serif" font-size="10.00">DictionaryMapType &gt;</text>
</a>
</g>
</g>
<!-- Node14&#45;&gt;Node13 -->
<g id="edge13" class="edge">
<title>Node14&#45;&gt;Node13</title>
<path fill="none" stroke="#9a32cd" stroke-dasharray="5,2" d="M510.29,-306.61C552.24,-306.16 602.31,-305.63 641.57,-305.21"/>
<polygon fill="#9a32cd" stroke="#9a32cd" points="510.06,-303.11 500.09,-306.72 510.13,-310.11 510.06,-303.11"/>
<text text-anchor="middle" x="571" y="-308.5" font-family="Helvetica,sans-Serif" font-size="10.00"> m_Dictionary</text>
</g>
<!-- Node15&#45;&gt;Node14 -->
<g id="edge14" class="edge">
<title>Node15&#45;&gt;Node14</title>
<path fill="none" stroke="#9a32cd" stroke-dasharray="5,2" d="M225.34,-314.42C262.61,-313.13 310.86,-311.45 350.52,-310.07"/>
<polygon fill="#9a32cd" stroke="#9a32cd" points="225,-310.93 215.13,-314.78 225.25,-317.93 225,-310.93"/>
<text text-anchor="middle" x="283" y="-316.5" font-family="Helvetica,sans-Serif" font-size="10.00"> ptr</text>
</g>
<!-- Node16 -->
<g id="node16" class="node">
<title>Node16</title>
<g id="a_node16"><a xlink:title=" ">
<polygon fill="white" stroke="black" points="0,-307 0,-326 29,-326 29,-307 0,-307"/>
<text text-anchor="middle" x="14.5" y="-314" font-family="Helvetica,sans-Serif" font-size="10.00">K</text>
</a>
</g>
</g>
<!-- Node16&#45;&gt;Node15 -->
<g id="edge15" class="edge">
<title>Node16&#45;&gt;Node15</title>
<path fill="none" stroke="#9a32cd" stroke-dasharray="5,2" d="M39.24,-316.5C59.28,-316.5 88.63,-316.5 113.78,-316.5"/>
<polygon fill="#9a32cd" stroke="#9a32cd" points="39.16,-313 29.16,-316.5 39.16,-320 39.16,-313"/>
<text text-anchor="middle" x="71.5" y="-319.5" font-family="Helvetica,sans-Serif" font-size="10.00"> keys</text>
</g>
<!-- Node17 -->
<g id="node17" class="node">
<title>Node17</title>
<g id="a_node17"><a xlink:title=" ">
<polygon fill="white" stroke="black" points="945,-194 945,-213 1010,-213 1010,-194 945,-194"/>
<text text-anchor="middle" x="977.5" y="-201" font-family="Helvetica,sans-Serif" font-size="10.00">std::string</text>
</a>
</g>
</g>
<!-- Node17&#45;&gt;Node4 -->
<g id="edge20" class="edge">
<title>Node17&#45;&gt;Node4</title>
<path fill="none" stroke="#9a32cd" stroke-dasharray="5,2" d="M1020.22,-203.35C1124.06,-202.99 1393.43,-202.03 1499.83,-201.66"/>
<polygon fill="#9a32cd" stroke="#9a32cd" points="1020.1,-199.85 1010.12,-203.39 1020.13,-206.85 1020.1,-199.85"/>
<text text-anchor="middle" x="1275.5" y="-205.5" font-family="Helvetica,sans-Serif" font-size="10.00"> m_SourceOutputName</text>
</g>
<!-- Node17&#45;&gt;Node5 -->
<g id="edge17" class="edge">
<title>Node17&#45;&gt;Node5</title>
<path fill="none" stroke="#9a32cd" stroke-dasharray="5,2" d="M1020.4,-207.48C1064.96,-212.47 1137.13,-222.75 1197,-241.5 1218.52,-248.24 1241.81,-259.67 1257.18,-267.84"/>
<polygon fill="#9a32cd" stroke="#9a32cd" points="1020.55,-203.98 1010.23,-206.38 1019.8,-210.94 1020.55,-203.98"/>
<text text-anchor="middle" x="1130.5" y="-244.5" font-family="Helvetica,sans-Serif" font-size="10.00"> m_ObjectName</text>
</g>
<!-- Node18 -->
<g id="node18" class="node">
<title>Node18</title>
<g id="a_node18"><a xlink:title=" ">
<polygon fill="white" stroke="black" points="657,-188.5 657,-218.5 761,-218.5 761,-188.5 657,-188.5"/>
<text text-anchor="start" x="665" y="-206.5" font-family="Helvetica,sans-Serif" font-size="10.00">std::basic_string&lt;</text>
<text text-anchor="middle" x="709" y="-195.5" font-family="Helvetica,sans-Serif" font-size="10.00"> Char &gt;</text>
</a>
</g>
</g>
<!-- Node18&#45;&gt;Node17 -->
<g id="edge18" class="edge">
<title>Node18&#45;&gt;Node17</title>
<path fill="none" stroke="midnightblue" d="M771.24,-203.5C825.37,-203.5 902.16,-203.5 944.82,-203.5"/>
<polygon fill="midnightblue" stroke="midnightblue" points="771.07,-200 761.07,-203.5 771.07,-207 771.07,-200"/>
</g>
<!-- Node19 -->
<g id="node19" class="node">
<title>Node19</title>
<g id="a_node19"><a xlink:href="classitk_1_1WeakPointer.html" target="_top" xlink:title=" ">
<polygon fill="white" stroke="black" points="1215,-134.5 1215,-164.5 1336,-164.5 1336,-134.5 1215,-134.5"/>
<text text-anchor="start" x="1223" y="-152.5" font-family="Helvetica,sans-Serif" font-size="10.00">itk::WeakPointer&lt; itk</text>
<text text-anchor="middle" x="1275.5" y="-141.5" font-family="Helvetica,sans-Serif" font-size="10.00">::ProcessObject &gt;</text>
</a>
</g>
</g>
<!-- Node19&#45;&gt;Node4 -->
<g id="edge19" class="edge">
<title>Node19&#45;&gt;Node4</title>
<path fill="none" stroke="#9a32cd" stroke-dasharray="5,2" d="M1346.32,-158.53C1378.36,-163.12 1416.76,-169.27 1451,-176.5 1471.45,-180.82 1494.1,-186.88 1511.93,-191.95"/>
<polygon fill="#9a32cd" stroke="#9a32cd" points="1346.55,-155.02 1336.16,-157.09 1345.57,-161.95 1346.55,-155.02"/>
<text text-anchor="middle" x="1402.5" y="-179.5" font-family="Helvetica,sans-Serif" font-size="10.00"> m_Source</text>
</g>
<!-- Node20 -->
<g id="node20" class="node">
<title>Node20</title>
<g id="a_node20"><a xlink:href="classitk_1_1RealTimeStamp.html" target="_top" xlink:title="The RealTimeStamp is a data structure for representing time with high precision and a large dynamic r...">
<polygon fill="white" stroke="black" points="1219,-96 1219,-115 1332,-115 1332,-96 1219,-96"/>
<text text-anchor="middle" x="1275.5" y="-103" font-family="Helvetica,sans-Serif" font-size="10.00">itk::RealTimeStamp</text>
</a>
</g>
</g>
<!-- Node20&#45;&gt;Node4 -->
<g id="edge22" class="edge">
<title>Node20&#45;&gt;Node4</title>
<path fill="none" stroke="#9a32cd" stroke-dasharray="5,2" d="M1342.35,-107.33C1377.58,-111.28 1419.97,-121.12 1451,-144.5 1464.34,-154.55 1456.12,-166.86 1469,-177.5 1477.85,-184.82 1488.97,-189.91 1499.91,-193.46"/>
<polygon fill="#9a32cd" stroke="#9a32cd" points="1342.44,-103.82 1332.14,-106.32 1341.75,-110.79 1342.44,-103.82"/>
<text text-anchor="middle" x="1402.5" y="-147.5" font-family="Helvetica,sans-Serif" font-size="10.00"> m_RealTimeStamp</text>
</g>
<!-- Node21 -->
<g id="node21" class="node">
<title>Node21</title>
<g id="a_node21"><a xlink:title=" ">
<polygon fill="white" stroke="black" points="949.5,-96 949.5,-115 1005.5,-115 1005.5,-96 949.5,-96"/>
<text text-anchor="middle" x="977.5" y="-103" font-family="Helvetica,sans-Serif" font-size="10.00">uint64_t</text>
</a>
</g>
</g>
<!-- Node21&#45;&gt;Node20 -->
<g id="edge23" class="edge">
<title>Node21&#45;&gt;Node20</title>
<path fill="none" stroke="#9a32cd" stroke-dasharray="5,2" d="M1015.83,-105.5C1067.04,-105.5 1159.47,-105.5 1218.86,-105.5"/>
<polygon fill="#9a32cd" stroke="#9a32cd" points="1015.55,-102 1005.55,-105.5 1015.55,-109 1015.55,-102"/>
<text text-anchor="middle" x="1130.5" y="-119.5" font-family="Helvetica,sans-Serif" font-size="10.00"> m_MicroSeconds</text>
<text text-anchor="middle" x="1130.5" y="-108.5" font-family="Helvetica,sans-Serif" font-size="10.00">m_Seconds</text>
</g>
<!-- Node22 -->
<g id="node22" class="node">
<title>Node22</title>
<g id="a_node22"><a xlink:href="classitk_1_1Array.html" target="_top" xlink:title=" ">
<polygon fill="white" stroke="black" points="1724.5,-137.5 1724.5,-167.5 1863.5,-167.5 1863.5,-137.5 1724.5,-137.5"/>
<text text-anchor="start" x="1732.5" y="-155.5" font-family="Helvetica,sans-Serif" font-size="10.00">itk::Array&lt; itk::SizeValue</text>
<text text-anchor="middle" x="1794" y="-144.5" font-family="Helvetica,sans-Serif" font-size="10.00">Type &gt;</text>
</a>
</g>
</g>
<!-- Node22&#45;&gt;Node2 -->
<g id="edge24" class="edge">
<title>Node22&#45;&gt;Node2</title>
<path fill="none" stroke="#9a32cd" stroke-dasharray="5,2" d="M1873.98,-141.14C1911.31,-135.78 1956.38,-129.3 1996.48,-123.53"/>
<polygon fill="#9a32cd" stroke="#9a32cd" points="1873.07,-137.74 1863.67,-142.63 1874.07,-144.67 1873.07,-137.74"/>
<text text-anchor="middle" x="1936.5" y="-139.5" font-family="Helvetica,sans-Serif" font-size="10.00"> m_Size</text>
</g>
<!-- Node23 -->
<g id="node23" class="node">
<title>Node23</title>
<g id="a_node23"><a xlink:title=" ">
<polygon fill="white" stroke="black" points="1472.5,-137.5 1472.5,-167.5 1617.5,-167.5 1617.5,-137.5 1472.5,-137.5"/>
<text text-anchor="start" x="1480.5" y="-155.5" font-family="Helvetica,sans-Serif" font-size="10.00">vnl_vector&lt; itk::SizeValue</text>
<text text-anchor="middle" x="1545" y="-144.5" font-family="Helvetica,sans-Serif" font-size="10.00">Type &gt;</text>
</a>
</g>
</g>
<!-- Node23&#45;&gt;Node22 -->
<g id="edge25" class="edge">
<title>Node23&#45;&gt;Node22</title>
<path fill="none" stroke="midnightblue" d="M1627.79,-152.5C1659.11,-152.5 1694.49,-152.5 1724.45,-152.5"/>
<polygon fill="midnightblue" stroke="midnightblue" points="1627.77,-149 1617.77,-152.5 1627.77,-156 1627.77,-149"/>
</g>
<!-- Node24 -->
<g id="node24" class="node">
<title>Node24</title>
<g id="a_node24"><a xlink:title=" ">
<polygon fill="white" stroke="black" points="1706,-99 1706,-118 1882,-118 1882,-99 1706,-99"/>
<text text-anchor="middle" x="1794" y="-106" font-family="Helvetica,sans-Serif" font-size="10.00">std::vector&lt; InstanceIdentifier &gt;</text>
</a>
</g>
</g>
<!-- Node24&#45;&gt;Node2 -->
<g id="edge26" class="edge">
<title>Node24&#45;&gt;Node2</title>
<path fill="none" stroke="#9a32cd" stroke-dasharray="5,2" d="M1892.33,-108.5C1923.71,-108.5 1958.72,-108.5 1990.95,-108.5"/>
<polygon fill="#9a32cd" stroke="#9a32cd" points="1892.28,-105 1882.28,-108.5 1892.28,-112 1892.28,-105"/>
<text text-anchor="middle" x="1936.5" y="-111.5" font-family="Helvetica,sans-Serif" font-size="10.00"> m_OffsetTable</text>
</g>
<!-- Node25 -->
<g id="node25" class="node">
<title>Node25</title>
<g id="a_node25"><a xlink:title=" ">
<polygon fill="white" stroke="black" points="1724,-49.5 1724,-79.5 1864,-79.5 1864,-49.5 1724,-49.5"/>
<text text-anchor="start" x="1732" y="-67.5" font-family="Helvetica,sans-Serif" font-size="10.00">std::vector&lt; std::vector</text>
<text text-anchor="middle" x="1794" y="-56.5" font-family="Helvetica,sans-Serif" font-size="10.00">&lt; MeasurementType &gt; &gt;</text>
</a>
</g>
</g>
<!-- Node25&#45;&gt;Node2 -->
<g id="edge27" class="edge">
<title>Node25&#45;&gt;Node2</title>
<path fill="none" stroke="#9a32cd" stroke-dasharray="5,2" d="M1874.37,-70.82C1905.24,-73.72 1940.86,-77.62 1973,-82.5 1992.73,-85.49 2014.02,-89.5 2033.47,-93.47"/>
<polygon fill="#9a32cd" stroke="#9a32cd" points="1874.37,-67.31 1864.09,-69.87 1873.73,-74.28 1874.37,-67.31"/>
<text text-anchor="middle" x="1936.5" y="-96.5" font-family="Helvetica,sans-Serif" font-size="10.00"> m_Max</text>
<text text-anchor="middle" x="1936.5" y="-85.5" font-family="Helvetica,sans-Serif" font-size="10.00">m_Min</text>
</g>
<!-- Node26 -->
<g id="node26" class="node">
<title>Node26</title>
<g id="a_node26"><a xlink:title=" ">
<polygon fill="white" stroke="black" points="1471.5,-49.5 1471.5,-79.5 1618.5,-79.5 1618.5,-49.5 1471.5,-49.5"/>
<text text-anchor="start" x="1479.5" y="-67.5" font-family="Helvetica,sans-Serif" font-size="10.00">std::vector&lt; Measurement</text>
<text text-anchor="middle" x="1545" y="-56.5" font-family="Helvetica,sans-Serif" font-size="10.00">Type &gt;</text>
</a>
</g>
</g>
<!-- Node26&#45;&gt;Node25 -->
<g id="edge28" class="edge">
<title>Node26&#45;&gt;Node25</title>
<path fill="none" stroke="#9a32cd" stroke-dasharray="5,2" d="M1629.04,-64.5C1659.8,-64.5 1694.31,-64.5 1723.71,-64.5"/>
<polygon fill="#9a32cd" stroke="#9a32cd" points="1628.77,-61 1618.77,-64.5 1628.77,-68 1628.77,-61"/>
<text text-anchor="middle" x="1663.5" y="-67.5" font-family="Helvetica,sans-Serif" font-size="10.00"> elements</text>
</g>
<!-- Node27 -->
<g id="node27" class="node">
<title>Node27</title>
<g id="a_node27"><a xlink:href="classitk_1_1Array.html" target="_top" xlink:title=" ">
<polygon fill="white" stroke="black" points="1721,-0.5 1721,-30.5 1867,-30.5 1867,-0.5 1721,-0.5"/>
<text text-anchor="start" x="1729" y="-18.5" font-family="Helvetica,sans-Serif" font-size="10.00">itk::Array&lt; itk::IndexValue</text>
<text text-anchor="middle" x="1794" y="-7.5" font-family="Helvetica,sans-Serif" font-size="10.00">Type &gt;</text>
</a>
</g>
</g>
<!-- Node27&#45;&gt;Node2 -->
<g id="edge29" class="edge">
<title>Node27&#45;&gt;Node2</title>
<path fill="none" stroke="#9a32cd" stroke-dasharray="5,2" d="M1877.19,-32.9C1907.54,-39.97 1942.07,-48.77 1973,-58.5 2005.09,-68.59 2040.66,-82.74 2066.14,-93.41"/>
<polygon fill="#9a32cd" stroke="#9a32cd" points="1877.59,-29.41 1867.06,-30.57 1876.02,-36.23 1877.59,-29.41"/>
<text text-anchor="middle" x="1936.5" y="-61.5" font-family="Helvetica,sans-Serif" font-size="10.00"> m_TempIndex</text>
</g>
<!-- Node28 -->
<g id="node28" class="node">
<title>Node28</title>
<g id="a_node28"><a xlink:title=" ">
<polygon fill="white" stroke="black" points="1469,-0.5 1469,-30.5 1621,-30.5 1621,-0.5 1469,-0.5"/>
<text text-anchor="start" x="1477" y="-18.5" font-family="Helvetica,sans-Serif" font-size="10.00">vnl_vector&lt; itk::IndexValue</text>
<text text-anchor="middle" x="1545" y="-7.5" font-family="Helvetica,sans-Serif" font-size="10.00">Type &gt;</text>
</a>
</g>
</g>
<!-- Node28&#45;&gt;Node27 -->
<g id="edge30" class="edge">
<title>Node28&#45;&gt;Node27</title>
<path fill="none" stroke="midnightblue" d="M1631.28,-15.5C1660.44,-15.5 1692.76,-15.5 1720.78,-15.5"/>
<polygon fill="midnightblue" stroke="midnightblue" points="1631.11,-12 1621.11,-15.5 1631.11,-19 1631.11,-12"/>
</g>
</g>
</svg>
