<?xml version="1.0" encoding="UTF-8" standalone="no"?>
<!DOCTYPE svg PUBLIC "-//W3C//DTD SVG 1.1//EN"
 "http://www.w3.org/Graphics/SVG/1.1/DTD/svg11.dtd">
<!-- Generated by graphviz version 2.43.0 (0)
 -->
<!-- Title: itk::MultipleValuedNonLinearVnlOptimizer Pages: 1 -->
<svg width="2552pt" height="424pt"
 viewBox="0.00 0.00 2552.00 424.00" xmlns="http://www.w3.org/2000/svg" xmlns:xlink="http://www.w3.org/1999/xlink">
<g id="graph0" class="graph" transform="scale(1 1) rotate(0) translate(4 420)">
<title>itk::MultipleValuedNonLinearVnlOptimizer</title>
<polygon fill="white" stroke="transparent" points="-4,4 -4,-420 2548,-420 2548,4 -4,4"/>
<!-- Node1 -->
<g id="node1" class="node">
<title>Node1</title>
<g id="a_node1"><a xlink:title="This class is a base for the Optimization methods that optimize a multi&#45;valued function.">
<polygon fill="#bfbfbf" stroke="black" points="2386,-282 2386,-312 2544,-312 2544,-282 2386,-282"/>
<text text-anchor="start" x="2394" y="-300" font-family="Helvetica,sans-Serif" font-size="10.00">itk::MultipleValuedNonLinear</text>
<text text-anchor="middle" x="2465" y="-289" font-family="Helvetica,sans-Serif" font-size="10.00">VnlOptimizer</text>
</a>
</g>
</g>
<!-- Node2 -->
<g id="node2" class="node">
<title>Node2</title>
<g id="a_node2"><a xlink:href="classitk_1_1MultipleValuedNonLinearOptimizer.html" target="_top" xlink:title="This class is a base for the Optimization methods that optimize a multiple valued function.">
<polygon fill="white" stroke="black" points="2064,-305 2064,-335 2222,-335 2222,-305 2064,-305"/>
<text text-anchor="start" x="2072" y="-323" font-family="Helvetica,sans-Serif" font-size="10.00">itk::MultipleValuedNonLinear</text>
<text text-anchor="middle" x="2143" y="-312" font-family="Helvetica,sans-Serif" font-size="10.00">Optimizer</text>
</a>
</g>
</g>
<!-- Node2&#45;&gt;Node1 -->
<g id="edge1" class="edge">
<title>Node2&#45;&gt;Node1</title>
<path fill="none" stroke="midnightblue" d="M2232.38,-313.65C2280.52,-310.19 2339.55,-305.94 2385.97,-302.61"/>
<polygon fill="midnightblue" stroke="midnightblue" points="2232,-310.17 2222.28,-314.37 2232.51,-317.15 2232,-310.17"/>
</g>
<!-- Node3 -->
<g id="node3" class="node">
<title>Node3</title>
<g id="a_node3"><a xlink:href="classitk_1_1NonLinearOptimizer.html" target="_top" xlink:title="Wrap of the vnl_nonlinear_minimizer to be adapted.">
<polygon fill="white" stroke="black" points="1811.5,-349.5 1811.5,-368.5 1944.5,-368.5 1944.5,-349.5 1811.5,-349.5"/>
<text text-anchor="middle" x="1878" y="-356.5" font-family="Helvetica,sans-Serif" font-size="10.00">itk::NonLinearOptimizer</text>
</a>
</g>
</g>
<!-- Node3&#45;&gt;Node2 -->
<g id="edge2" class="edge">
<title>Node3&#45;&gt;Node2</title>
<path fill="none" stroke="midnightblue" d="M1953.35,-347.98C1987.84,-342.86 2028.83,-336.78 2063.79,-331.6"/>
<polygon fill="midnightblue" stroke="midnightblue" points="1952.72,-344.53 1943.34,-349.46 1953.74,-351.45 1952.72,-344.53"/>
</g>
<!-- Node4 -->
<g id="node4" class="node">
<title>Node4</title>
<g id="a_node4"><a xlink:href="classitk_1_1Optimizer.html" target="_top" xlink:title="Generic representation for an optimization method.">
<polygon fill="white" stroke="black" points="1547,-337.5 1547,-356.5 1630,-356.5 1630,-337.5 1547,-337.5"/>
<text text-anchor="middle" x="1588.5" y="-344.5" font-family="Helvetica,sans-Serif" font-size="10.00">itk::Optimizer</text>
</a>
</g>
</g>
<!-- Node4&#45;&gt;Node3 -->
<g id="edge3" class="edge">
<title>Node4&#45;&gt;Node3</title>
<path fill="none" stroke="midnightblue" d="M1640.17,-349.11C1687.83,-351.1 1759.43,-354.09 1811.43,-356.26"/>
<polygon fill="midnightblue" stroke="midnightblue" points="1640.22,-345.61 1630.08,-348.69 1639.93,-352.61 1640.22,-345.61"/>
</g>
<!-- Node5 -->
<g id="node5" class="node">
<title>Node5</title>
<g id="a_node5"><a xlink:href="classitk_1_1Object.html" target="_top" xlink:title="Base class for most ITK classes.">
<polygon fill="white" stroke="black" points="1281,-135.5 1281,-154.5 1348,-154.5 1348,-135.5 1281,-135.5"/>
<text text-anchor="middle" x="1314.5" y="-142.5" font-family="Helvetica,sans-Serif" font-size="10.00">itk::Object</text>
</a>
</g>
</g>
<!-- Node5&#45;&gt;Node4 -->
<g id="edge4" class="edge">
<title>Node5&#45;&gt;Node4</title>
<path fill="none" stroke="midnightblue" d="M1328.75,-162.59C1344.64,-182.89 1372.79,-216.49 1402,-240 1431.04,-263.37 1528.38,-315.77 1569.22,-337.39"/>
<polygon fill="midnightblue" stroke="midnightblue" points="1331.42,-160.31 1322.54,-154.52 1325.87,-164.58 1331.42,-160.31"/>
</g>
<!-- Node6 -->
<g id="node6" class="node">
<title>Node6</title>
<g id="a_node6"><a xlink:href="classitk_1_1LightObject.html" target="_top" xlink:title="Light weight base class for most itk classes.">
<polygon fill="white" stroke="black" points="945.5,-3.5 945.5,-22.5 1036.5,-22.5 1036.5,-3.5 945.5,-3.5"/>
<text text-anchor="middle" x="991" y="-10.5" font-family="Helvetica,sans-Serif" font-size="10.00">itk::LightObject</text>
</a>
</g>
</g>
<!-- Node6&#45;&gt;Node5 -->
<g id="edge5" class="edge">
<title>Node6&#45;&gt;Node5</title>
<path fill="none" stroke="midnightblue" d="M1047,-5.39C1099.94,-1.34 1178.86,-4.46 1227,-49 1252.8,-72.87 1220.66,-100.65 1245,-126 1254.32,-135.7 1268.12,-140.59 1280.89,-143"/>
<polygon fill="midnightblue" stroke="midnightblue" points="1046.43,-1.92 1036.77,-6.28 1047.04,-8.89 1046.43,-1.92"/>
</g>
<!-- Node7 -->
<g id="node7" class="node">
<title>Node7</title>
<g id="a_node7"><a xlink:title=" ">
<polygon fill="white" stroke="black" points="650,-0.5 650,-19.5 757,-19.5 757,-0.5 650,-0.5"/>
<text text-anchor="middle" x="703.5" y="-7.5" font-family="Helvetica,sans-Serif" font-size="10.00">std::atomic&lt; int &gt;</text>
</a>
</g>
</g>
<!-- Node7&#45;&gt;Node6 -->
<g id="edge6" class="edge">
<title>Node7&#45;&gt;Node6</title>
<path fill="none" stroke="#9a32cd" stroke-dasharray="5,2" d="M767.31,-10.66C821.11,-11.23 897.26,-12.03 945.12,-12.53"/>
<polygon fill="#9a32cd" stroke="#9a32cd" points="767.23,-7.16 757.2,-10.55 767.16,-14.16 767.23,-7.16"/>
<text text-anchor="middle" x="839.5" y="-15" font-family="Helvetica,sans-Serif" font-size="10.00"> m_ReferenceCount</text>
</g>
<!-- Node8 -->
<g id="node8" class="node">
<title>Node8</title>
<g id="a_node8"><a xlink:href="classitk_1_1TimeStamp.html" target="_top" xlink:title="Generate a unique, increasing time value.">
<polygon fill="white" stroke="black" points="524,-178.5 524,-197.5 616,-197.5 616,-178.5 524,-178.5"/>
<text text-anchor="middle" x="570" y="-185.5" font-family="Helvetica,sans-Serif" font-size="10.00">itk::TimeStamp</text>
</a>
</g>
</g>
<!-- Node8&#45;&gt;Node5 -->
<g id="edge7" class="edge">
<title>Node8&#45;&gt;Node5</title>
<path fill="none" stroke="#9a32cd" stroke-dasharray="5,2" d="M626.26,-188.35C739.41,-188.48 1005.47,-185.73 1227,-160 1244.86,-157.93 1264.64,-154.58 1280.77,-151.57"/>
<polygon fill="#9a32cd" stroke="#9a32cd" points="626.12,-184.85 616.12,-188.33 626.11,-191.85 626.12,-184.85"/>
<text text-anchor="middle" x="839.5" y="-190" font-family="Helvetica,sans-Serif" font-size="10.00"> m_MTime</text>
</g>
<!-- Node9 -->
<g id="node9" class="node">
<title>Node9</title>
<g id="a_node9"><a xlink:title=" ">
<polygon fill="white" stroke="black" points="114.5,-175.5 114.5,-194.5 214.5,-194.5 214.5,-175.5 114.5,-175.5"/>
<text text-anchor="middle" x="164.5" y="-182.5" font-family="Helvetica,sans-Serif" font-size="10.00">std::atomic&lt; T &gt;</text>
</a>
</g>
</g>
<!-- Node9&#45;&gt;Node8 -->
<g id="edge8" class="edge">
<title>Node9&#45;&gt;Node8</title>
<path fill="none" stroke="#9a32cd" stroke-dasharray="5,2" d="M224.66,-185.44C306.06,-186.05 450.8,-187.12 523.98,-187.67"/>
<polygon fill="#9a32cd" stroke="#9a32cd" points="224.6,-181.94 214.57,-185.36 224.55,-188.94 224.6,-181.94"/>
<text text-anchor="middle" x="286" y="-190" font-family="Helvetica,sans-Serif" font-size="10.00"> m_GlobalTimeStamp</text>
</g>
<!-- Node10 -->
<g id="node10" class="node">
<title>Node10</title>
<g id="a_node10"><a xlink:title=" ">
<polygon fill="white" stroke="black" points="0,-159.5 0,-178.5 29,-178.5 29,-159.5 0,-159.5"/>
<text text-anchor="middle" x="14.5" y="-166.5" font-family="Helvetica,sans-Serif" font-size="10.00">T</text>
</a>
</g>
</g>
<!-- Node10&#45;&gt;Node9 -->
<g id="edge9" class="edge">
<title>Node10&#45;&gt;Node9</title>
<path fill="none" stroke="#9a32cd" stroke-dasharray="5,2" d="M39.33,-171.58C59.54,-173.76 89.19,-176.97 114.45,-179.7"/>
<polygon fill="#9a32cd" stroke="#9a32cd" points="39.48,-168.07 29.16,-170.48 38.72,-175.03 39.48,-168.07"/>
<text text-anchor="middle" x="71.5" y="-181" font-family="Helvetica,sans-Serif" font-size="10.00"> ptr</text>
</g>
<!-- Node15 -->
<g id="node15" class="node">
<title>Node15</title>
<g id="a_node15"><a xlink:title=" ">
<polygon fill="white" stroke="black" points="114,-106.5 114,-125.5 215,-125.5 215,-106.5 114,-106.5"/>
<text text-anchor="middle" x="164.5" y="-113.5" font-family="Helvetica,sans-Serif" font-size="10.00">std::map&lt; K, T &gt;</text>
</a>
</g>
</g>
<!-- Node10&#45;&gt;Node15 -->
<g id="edge16" class="edge">
<title>Node10&#45;&gt;Node15</title>
<path fill="none" stroke="#9a32cd" stroke-dasharray="5,2" d="M38.78,-160.66C65.36,-151.15 108.76,-135.6 136.72,-125.59"/>
<polygon fill="#9a32cd" stroke="#9a32cd" points="37.39,-157.44 29.16,-164.11 39.75,-164.03 37.39,-157.44"/>
<text text-anchor="middle" x="71.5" y="-161" font-family="Helvetica,sans-Serif" font-size="10.00"> elements</text>
</g>
<!-- Node11 -->
<g id="node11" class="node">
<title>Node11</title>
<g id="a_node11"><a xlink:title=" ">
<polygon fill="white" stroke="black" points="922.5,-130 922.5,-160 1059.5,-160 1059.5,-130 922.5,-130"/>
<text text-anchor="start" x="930.5" y="-148" font-family="Helvetica,sans-Serif" font-size="10.00">std::unique_ptr&lt; Subject</text>
<text text-anchor="middle" x="991" y="-137" font-family="Helvetica,sans-Serif" font-size="10.00">Implementation &gt;</text>
</a>
</g>
</g>
<!-- Node11&#45;&gt;Node5 -->
<g id="edge10" class="edge">
<title>Node11&#45;&gt;Node5</title>
<path fill="none" stroke="#9a32cd" stroke-dasharray="5,2" d="M1069.95,-145C1137.37,-145 1231.51,-145 1280.67,-145"/>
<polygon fill="#9a32cd" stroke="#9a32cd" points="1069.79,-141.5 1059.79,-145 1069.79,-148.5 1069.79,-141.5"/>
<text text-anchor="middle" x="1160.5" y="-148" font-family="Helvetica,sans-Serif" font-size="10.00"> m_SubjectImplementation</text>
</g>
<!-- Node12 -->
<g id="node12" class="node">
<title>Node12</title>
<g id="a_node12"><a xlink:title=" ">
<polygon fill="white" stroke="black" points="925,-81 925,-111 1057,-111 1057,-81 925,-81"/>
<text text-anchor="start" x="933" y="-99" font-family="Helvetica,sans-Serif" font-size="10.00">std::unique_ptr&lt; itk</text>
<text text-anchor="middle" x="991" y="-88" font-family="Helvetica,sans-Serif" font-size="10.00">::MetaDataDictionary &gt;</text>
</a>
</g>
</g>
<!-- Node12&#45;&gt;Node5 -->
<g id="edge11" class="edge">
<title>Node12&#45;&gt;Node5</title>
<path fill="none" stroke="#9a32cd" stroke-dasharray="5,2" d="M1067.09,-106.32C1113.26,-112.8 1173.62,-121.51 1227,-130 1244.76,-132.82 1264.53,-136.23 1280.68,-139.09"/>
<polygon fill="#9a32cd" stroke="#9a32cd" points="1067.55,-102.85 1057.16,-104.93 1066.58,-109.78 1067.55,-102.85"/>
<text text-anchor="middle" x="1160.5" y="-133" font-family="Helvetica,sans-Serif" font-size="10.00"> m_MetaDataDictionary</text>
</g>
<!-- Node13 -->
<g id="node13" class="node">
<title>Node13</title>
<g id="a_node13"><a xlink:href="classitk_1_1MetaDataDictionary.html" target="_top" xlink:title="Provides a mechanism for storing a collection of arbitrary data types.">
<polygon fill="white" stroke="black" points="636.5,-89.5 636.5,-108.5 770.5,-108.5 770.5,-89.5 636.5,-89.5"/>
<text text-anchor="middle" x="703.5" y="-96.5" font-family="Helvetica,sans-Serif" font-size="10.00">itk::MetaDataDictionary</text>
</a>
</g>
</g>
<!-- Node13&#45;&gt;Node12 -->
<g id="edge12" class="edge">
<title>Node13&#45;&gt;Node12</title>
<path fill="none" stroke="#9a32cd" stroke-dasharray="5,2" d="M780.98,-98.2C825.82,-97.73 881.87,-97.14 924.63,-96.69"/>
<polygon fill="#9a32cd" stroke="#9a32cd" points="780.68,-94.7 770.72,-98.3 780.75,-101.7 780.68,-94.7"/>
<text text-anchor="middle" x="839.5" y="-102" font-family="Helvetica,sans-Serif" font-size="10.00"> ptr</text>
</g>
<!-- Node14 -->
<g id="node14" class="node">
<title>Node14</title>
<g id="a_node14"><a xlink:title=" ">
<polygon fill="white" stroke="black" points="357,-87 357,-117 506,-117 506,-87 357,-87"/>
<text text-anchor="start" x="365" y="-105" font-family="Helvetica,sans-Serif" font-size="10.00">std::shared_ptr&lt; MetaData</text>
<text text-anchor="middle" x="431.5" y="-94" font-family="Helvetica,sans-Serif" font-size="10.00">DictionaryMapType &gt;</text>
</a>
</g>
</g>
<!-- Node14&#45;&gt;Node13 -->
<g id="edge13" class="edge">
<title>Node14&#45;&gt;Node13</title>
<path fill="none" stroke="#9a32cd" stroke-dasharray="5,2" d="M516.45,-101.07C555,-100.64 600.07,-100.14 636.19,-99.74"/>
<polygon fill="#9a32cd" stroke="#9a32cd" points="516.24,-97.57 506.28,-101.18 516.32,-104.57 516.24,-97.57"/>
<text text-anchor="middle" x="570" y="-104" font-family="Helvetica,sans-Serif" font-size="10.00"> m_Dictionary</text>
</g>
<!-- Node15&#45;&gt;Node14 -->
<g id="edge14" class="edge">
<title>Node15&#45;&gt;Node14</title>
<path fill="none" stroke="#9a32cd" stroke-dasharray="5,2" d="M225.18,-112.85C264.19,-110.79 315.41,-108.08 356.93,-105.89"/>
<polygon fill="#9a32cd" stroke="#9a32cd" points="224.83,-109.36 215.03,-113.38 225.2,-116.35 224.83,-109.36"/>
<text text-anchor="middle" x="286" y="-116" font-family="Helvetica,sans-Serif" font-size="10.00"> ptr</text>
</g>
<!-- Node16 -->
<g id="node16" class="node">
<title>Node16</title>
<g id="a_node16"><a xlink:title=" ">
<polygon fill="white" stroke="black" points="0,-106.5 0,-125.5 29,-125.5 29,-106.5 0,-106.5"/>
<text text-anchor="middle" x="14.5" y="-113.5" font-family="Helvetica,sans-Serif" font-size="10.00">K</text>
</a>
</g>
</g>
<!-- Node16&#45;&gt;Node15 -->
<g id="edge15" class="edge">
<title>Node16&#45;&gt;Node15</title>
<path fill="none" stroke="#9a32cd" stroke-dasharray="5,2" d="M39.24,-116C59.28,-116 88.63,-116 113.78,-116"/>
<polygon fill="#9a32cd" stroke="#9a32cd" points="39.16,-112.5 29.16,-116 39.16,-119.5 39.16,-112.5"/>
<text text-anchor="middle" x="71.5" y="-119" font-family="Helvetica,sans-Serif" font-size="10.00"> keys</text>
</g>
<!-- Node17 -->
<g id="node17" class="node">
<title>Node17</title>
<g id="a_node17"><a xlink:title=" ">
<polygon fill="white" stroke="black" points="958.5,-42.5 958.5,-61.5 1023.5,-61.5 1023.5,-42.5 958.5,-42.5"/>
<text text-anchor="middle" x="991" y="-49.5" font-family="Helvetica,sans-Serif" font-size="10.00">std::string</text>
</a>
</g>
</g>
<!-- Node17&#45;&gt;Node5 -->
<g id="edge17" class="edge">
<title>Node17&#45;&gt;Node5</title>
<path fill="none" stroke="#9a32cd" stroke-dasharray="5,2" d="M1033.79,-49.92C1084.07,-49.5 1168.94,-55.62 1227,-96 1239.77,-104.88 1232.63,-116.58 1245,-126 1255.31,-133.85 1268.69,-138.45 1280.88,-141.16"/>
<polygon fill="#9a32cd" stroke="#9a32cd" points="1033.55,-46.43 1023.61,-50.1 1033.67,-53.42 1033.55,-46.43"/>
<text text-anchor="middle" x="1160.5" y="-99" font-family="Helvetica,sans-Serif" font-size="10.00"> m_ObjectName</text>
</g>
<!-- Node18 -->
<g id="node18" class="node">
<title>Node18</title>
<g id="a_node18"><a xlink:title=" ">
<polygon fill="white" stroke="black" points="651.5,-39 651.5,-69 755.5,-69 755.5,-39 651.5,-39"/>
<text text-anchor="start" x="659.5" y="-57" font-family="Helvetica,sans-Serif" font-size="10.00">std::basic_string&lt;</text>
<text text-anchor="middle" x="703.5" y="-46" font-family="Helvetica,sans-Serif" font-size="10.00"> Char &gt;</text>
</a>
</g>
</g>
<!-- Node18&#45;&gt;Node17 -->
<g id="edge18" class="edge">
<title>Node18&#45;&gt;Node17</title>
<path fill="none" stroke="midnightblue" d="M765.88,-53.57C825.01,-53.16 912.12,-52.55 958.4,-52.22"/>
<polygon fill="midnightblue" stroke="midnightblue" points="765.52,-50.07 755.54,-53.64 765.57,-57.07 765.52,-50.07"/>
</g>
<!-- Node19 -->
<g id="node19" class="node">
<title>Node19</title>
<g id="a_node19"><a xlink:href="classitk_1_1OptimizerParameters.html" target="_top" xlink:title=" ">
<polygon fill="white" stroke="black" points="1245,-356 1245,-386 1384,-386 1384,-356 1245,-356"/>
<text text-anchor="start" x="1253" y="-374" font-family="Helvetica,sans-Serif" font-size="10.00">itk::OptimizerParameters</text>
<text text-anchor="middle" x="1314.5" y="-363" font-family="Helvetica,sans-Serif" font-size="10.00">&lt; double &gt;</text>
</a>
</g>
</g>
<!-- Node19&#45;&gt;Node1 -->
<g id="edge34" class="edge">
<title>Node19&#45;&gt;Node1</title>
<path fill="none" stroke="#9a32cd" stroke-dasharray="5,2" d="M1389.46,-387.94C1393.69,-388.69 1397.89,-389.39 1402,-390 1483.8,-402.23 1504.79,-405 1587.5,-405 1587.5,-405 1587.5,-405 2144,-405 2258.92,-405 2385.45,-341.69 2438.44,-312.02"/>
<polygon fill="#9a32cd" stroke="#9a32cd" points="1390.04,-384.48 1379.56,-386.08 1388.75,-391.36 1390.04,-384.48"/>
<text text-anchor="middle" x="1878" y="-408" font-family="Helvetica,sans-Serif" font-size="10.00"> m_CachedCurrentPosition</text>
</g>
<!-- Node19&#45;&gt;Node4 -->
<g id="edge19" class="edge">
<title>Node19&#45;&gt;Node4</title>
<path fill="none" stroke="#9a32cd" stroke-dasharray="5,2" d="M1394.26,-364.05C1444.16,-359.65 1506.63,-354.14 1546.8,-350.59"/>
<polygon fill="#9a32cd" stroke="#9a32cd" points="1393.79,-360.58 1384.14,-364.94 1394.41,-367.55 1393.79,-360.58"/>
<text text-anchor="middle" x="1449" y="-378" font-family="Helvetica,sans-Serif" font-size="10.00"> m_CurrentPosition</text>
<text text-anchor="middle" x="1449" y="-367" font-family="Helvetica,sans-Serif" font-size="10.00">m_InitialPosition</text>
</g>
<!-- Node20 -->
<g id="node20" class="node">
<title>Node20</title>
<g id="a_node20"><a xlink:href="classitk_1_1Array.html" target="_top" xlink:title=" ">
<polygon fill="white" stroke="black" points="932.5,-304.5 932.5,-323.5 1049.5,-323.5 1049.5,-304.5 932.5,-304.5"/>
<text text-anchor="middle" x="991" y="-311.5" font-family="Helvetica,sans-Serif" font-size="10.00">itk::Array&lt; double &gt;</text>
</a>
</g>
</g>
<!-- Node20&#45;&gt;Node4 -->
<g id="edge24" class="edge">
<title>Node20&#45;&gt;Node4</title>
<path fill="none" stroke="#9a32cd" stroke-dasharray="5,2" d="M1059.73,-313.94C1137.94,-314.29 1270.42,-316.15 1384,-324 1440.57,-327.91 1505.65,-335.88 1546.67,-341.33"/>
<polygon fill="#9a32cd" stroke="#9a32cd" points="1059.54,-310.44 1049.53,-313.9 1059.52,-317.44 1059.54,-310.44"/>
<text text-anchor="middle" x="1314.5" y="-338" font-family="Helvetica,sans-Serif" font-size="10.00"> m_InverseScales</text>
<text text-anchor="middle" x="1314.5" y="-327" font-family="Helvetica,sans-Serif" font-size="10.00">m_Scales</text>
</g>
<!-- Node20&#45;&gt;Node19 -->
<g id="edge20" class="edge">
<title>Node20&#45;&gt;Node19</title>
<path fill="none" stroke="midnightblue" d="M1055.73,-325.3C1110.38,-334.99 1188.93,-348.91 1244.93,-358.84"/>
<polygon fill="midnightblue" stroke="midnightblue" points="1056.27,-321.84 1045.81,-323.54 1055.05,-328.73 1056.27,-321.84"/>
</g>
<!-- Node26 -->
<g id="node26" class="node">
<title>Node26</title>
<g id="a_node26"><a xlink:href="classitk_1_1MultipleValuedVnlCostFunctionAdaptor.html" target="_top" xlink:title="This class is an Adaptor that allows to pass itk::MultipleValuedCostFunctions to vnl_optimizers expec...">
<polygon fill="white" stroke="black" points="1805,-192 1805,-222 1951,-222 1951,-192 1805,-192"/>
<text text-anchor="start" x="1813" y="-210" font-family="Helvetica,sans-Serif" font-size="10.00">itk::MultipleValuedVnlCost</text>
<text text-anchor="middle" x="1878" y="-199" font-family="Helvetica,sans-Serif" font-size="10.00">FunctionAdaptor</text>
</a>
</g>
</g>
<!-- Node20&#45;&gt;Node26 -->
<g id="edge30" class="edge">
<title>Node20&#45;&gt;Node26</title>
<path fill="none" stroke="#9a32cd" stroke-dasharray="5,2" d="M1059.98,-303.38C1183.41,-284.42 1452.69,-244.54 1681,-221 1721.89,-216.78 1767.71,-213.44 1804.76,-211.07"/>
<polygon fill="#9a32cd" stroke="#9a32cd" points="1059.28,-299.95 1049.93,-304.93 1060.34,-306.87 1059.28,-299.95"/>
<text text-anchor="middle" x="1449" y="-269" font-family="Helvetica,sans-Serif" font-size="10.00"> m_CachedValue</text>
<text text-anchor="middle" x="1449" y="-258" font-family="Helvetica,sans-Serif" font-size="10.00">m_InverseScales</text>
</g>
<!-- Node21 -->
<g id="node21" class="node">
<title>Node21</title>
<g id="a_node21"><a xlink:title=" ">
<polygon fill="white" stroke="black" points="642,-304.5 642,-323.5 765,-323.5 765,-304.5 642,-304.5"/>
<text text-anchor="middle" x="703.5" y="-311.5" font-family="Helvetica,sans-Serif" font-size="10.00">vnl_vector&lt; double &gt;</text>
</a>
</g>
</g>
<!-- Node21&#45;&gt;Node20 -->
<g id="edge21" class="edge">
<title>Node21&#45;&gt;Node20</title>
<path fill="none" stroke="midnightblue" d="M775.15,-314C823.6,-314 887.09,-314 932.46,-314"/>
<polygon fill="midnightblue" stroke="midnightblue" points="775.05,-310.5 765.05,-314 775.05,-317.5 775.05,-310.5"/>
</g>
<!-- Node22 -->
<g id="node22" class="node">
<title>Node22</title>
<g id="a_node22"><a xlink:title=" ">
<polygon fill="white" stroke="black" points="906,-357 906,-387 1076,-387 1076,-357 906,-357"/>
<text text-anchor="start" x="914" y="-375" font-family="Helvetica,sans-Serif" font-size="10.00">std::unique_ptr&lt; itk</text>
<text text-anchor="middle" x="991" y="-364" font-family="Helvetica,sans-Serif" font-size="10.00">::OptimizerParametersHelper &gt;</text>
</a>
</g>
</g>
<!-- Node22&#45;&gt;Node19 -->
<g id="edge22" class="edge">
<title>Node22&#45;&gt;Node19</title>
<path fill="none" stroke="#9a32cd" stroke-dasharray="5,2" d="M1086.06,-371.71C1136.9,-371.55 1198.54,-371.36 1244.82,-371.21"/>
<polygon fill="#9a32cd" stroke="#9a32cd" points="1086.04,-368.21 1076.05,-371.74 1086.06,-375.21 1086.04,-368.21"/>
<text text-anchor="middle" x="1160.5" y="-374" font-family="Helvetica,sans-Serif" font-size="10.00"> m_Helper</text>
</g>
<!-- Node23 -->
<g id="node23" class="node">
<title>Node23</title>
<g id="a_node23"><a xlink:href="classitk_1_1OptimizerParametersHelper.html" target="_top" xlink:title="Basic helper class to manage parameter data as an Array type, the default type.">
<polygon fill="white" stroke="black" points="634,-357 634,-387 773,-387 773,-357 634,-357"/>
<text text-anchor="start" x="642" y="-375" font-family="Helvetica,sans-Serif" font-size="10.00">itk::OptimizerParameters</text>
<text text-anchor="middle" x="703.5" y="-364" font-family="Helvetica,sans-Serif" font-size="10.00">Helper&lt; TValue &gt;</text>
</a>
</g>
</g>
<!-- Node23&#45;&gt;Node22 -->
<g id="edge23" class="edge">
<title>Node23&#45;&gt;Node22</title>
<path fill="none" stroke="#9a32cd" stroke-dasharray="5,2" d="M783.26,-372C821.32,-372 867.04,-372 905.79,-372"/>
<polygon fill="#9a32cd" stroke="#9a32cd" points="783.25,-368.5 773.25,-372 783.25,-375.5 783.25,-368.5"/>
<text text-anchor="middle" x="839.5" y="-375" font-family="Helvetica,sans-Serif" font-size="10.00"> ptr</text>
</g>
<!-- Node24 -->
<g id="node24" class="node">
<title>Node24</title>
<g id="a_node24"><a xlink:href="classitk_1_1SmartPointer.html" target="_top" xlink:title=" ">
<polygon fill="white" stroke="black" points="1535,-262 1535,-292 1642,-292 1642,-262 1535,-262"/>
<text text-anchor="start" x="1543" y="-280" font-family="Helvetica,sans-Serif" font-size="10.00">itk::SmartPointer&lt;</text>
<text text-anchor="middle" x="1588.5" y="-269" font-family="Helvetica,sans-Serif" font-size="10.00"> Self &gt;</text>
</a>
</g>
</g>
<!-- Node24&#45;&gt;Node1 -->
<g id="edge33" class="edge">
<title>Node24&#45;&gt;Node1</title>
<path fill="none" stroke="#9a32cd" stroke-dasharray="5,2" d="M1652.62,-278.44C1809.07,-282.02 2214.45,-291.29 2385.76,-295.21"/>
<polygon fill="#9a32cd" stroke="#9a32cd" points="1652.31,-274.94 1642.23,-278.21 1652.15,-281.93 1652.31,-274.94"/>
<text text-anchor="middle" x="2003.5" y="-291" font-family="Helvetica,sans-Serif" font-size="10.00"> m_Command</text>
</g>
<!-- Node24&#45;&gt;Node2 -->
<g id="edge25" class="edge">
<title>Node24&#45;&gt;Node2</title>
<path fill="none" stroke="#9a32cd" stroke-dasharray="5,2" d="M1652.09,-287.33C1661.76,-288.71 1671.63,-289.99 1681,-291 1815.15,-305.45 1972.09,-313.43 2063.92,-317.21"/>
<polygon fill="#9a32cd" stroke="#9a32cd" points="1652.54,-283.86 1642.13,-285.87 1651.52,-290.79 1652.54,-283.86"/>
<text text-anchor="middle" x="1878" y="-315" font-family="Helvetica,sans-Serif" font-size="10.00"> m_CostFunction</text>
</g>
<!-- Node24&#45;&gt;Node26 -->
<g id="edge29" class="edge">
<title>Node24&#45;&gt;Node26</title>
<path fill="none" stroke="#9a32cd" stroke-dasharray="5,2" d="M1632.43,-258.03C1647.55,-251.91 1664.82,-245.54 1681,-241 1721.24,-229.72 1767.23,-221.51 1804.54,-215.98"/>
<polygon fill="#9a32cd" stroke="#9a32cd" points="1630.74,-254.94 1622.83,-262 1633.41,-261.41 1630.74,-254.94"/>
<text text-anchor="middle" x="1734" y="-255" font-family="Helvetica,sans-Serif" font-size="10.00"> m_CostFunction</text>
<text text-anchor="middle" x="1734" y="-244" font-family="Helvetica,sans-Serif" font-size="10.00">m_Reporter</text>
</g>
<!-- Node25 -->
<g id="node25" class="node">
<title>Node25</title>
<g id="a_node25"><a xlink:title=" ">
<polygon fill="white" stroke="black" points="2056,-199.5 2056,-240.5 2230,-240.5 2230,-199.5 2056,-199.5"/>
<text text-anchor="start" x="2064" y="-228.5" font-family="Helvetica,sans-Serif" font-size="10.00">std::unique_ptr&lt; itk</text>
<text text-anchor="start" x="2064" y="-217.5" font-family="Helvetica,sans-Serif" font-size="10.00">::MultipleValuedVnlCostFunction</text>
<text text-anchor="middle" x="2143" y="-206.5" font-family="Helvetica,sans-Serif" font-size="10.00">Adaptor &gt;</text>
</a>
</g>
</g>
<!-- Node25&#45;&gt;Node1 -->
<g id="edge26" class="edge">
<title>Node25&#45;&gt;Node1</title>
<path fill="none" stroke="#9a32cd" stroke-dasharray="5,2" d="M2240.3,-225.36C2280.43,-229.41 2327.11,-236.52 2368,-249 2393.66,-256.83 2420.83,-271.04 2439.69,-281.97"/>
<polygon fill="#9a32cd" stroke="#9a32cd" points="2240.54,-221.87 2230.25,-224.4 2239.87,-228.84 2240.54,-221.87"/>
<text text-anchor="middle" x="2308" y="-252" font-family="Helvetica,sans-Serif" font-size="10.00"> m_CostFunctionAdaptor</text>
</g>
<!-- Node26&#45;&gt;Node25 -->
<g id="edge27" class="edge">
<title>Node26&#45;&gt;Node25</title>
<path fill="none" stroke="#9a32cd" stroke-dasharray="5,2" d="M1961.26,-211.07C1991.37,-212.55 2025.5,-214.24 2055.94,-215.75"/>
<polygon fill="#9a32cd" stroke="#9a32cd" points="1961.37,-207.57 1951.21,-210.57 1961.03,-214.56 1961.37,-207.57"/>
<text text-anchor="middle" x="2003.5" y="-218" font-family="Helvetica,sans-Serif" font-size="10.00"> ptr</text>
</g>
<!-- Node27 -->
<g id="node27" class="node">
<title>Node27</title>
<g id="a_node27"><a xlink:title=" ">
<polygon fill="white" stroke="black" points="1514,-166.5 1514,-185.5 1663,-185.5 1663,-166.5 1514,-166.5"/>
<text text-anchor="middle" x="1588.5" y="-173.5" font-family="Helvetica,sans-Serif" font-size="10.00">vnl_least_squares_function</text>
</a>
</g>
</g>
<!-- Node27&#45;&gt;Node26 -->
<g id="edge28" class="edge">
<title>Node27&#45;&gt;Node26</title>
<path fill="none" stroke="midnightblue" d="M1673.47,-181.95C1708.6,-184.77 1749.84,-188.52 1787,-193 1792.81,-193.7 1798.82,-194.49 1804.85,-195.33"/>
<polygon fill="midnightblue" stroke="midnightblue" points="1673.49,-178.44 1663.25,-181.14 1672.94,-185.42 1673.49,-178.44"/>
</g>
<!-- Node28 -->
<g id="node28" class="node">
<title>Node28</title>
<g id="a_node28"><a xlink:href="classitk_1_1Array2D.html" target="_top" xlink:title="Array2D class representing a 2D array.">
<polygon fill="white" stroke="black" points="1523,-113.5 1523,-132.5 1654,-132.5 1654,-113.5 1523,-113.5"/>
<text text-anchor="middle" x="1588.5" y="-120.5" font-family="Helvetica,sans-Serif" font-size="10.00">itk::Array2D&lt; TValue &gt;</text>
</a>
</g>
</g>
<!-- Node28&#45;&gt;Node26 -->
<g id="edge31" class="edge">
<title>Node28&#45;&gt;Node26</title>
<path fill="none" stroke="#9a32cd" stroke-dasharray="5,2" d="M1654.05,-134.57C1693.03,-142.33 1743.44,-153.73 1787,-168 1807.07,-174.57 1828.81,-183.93 1845.9,-191.83"/>
<polygon fill="#9a32cd" stroke="#9a32cd" points="1654.37,-131.07 1643.88,-132.58 1653.02,-137.94 1654.37,-131.07"/>
<text text-anchor="middle" x="1734" y="-171" font-family="Helvetica,sans-Serif" font-size="10.00"> m_CachedDerivative</text>
</g>
<!-- Node29 -->
<g id="node29" class="node">
<title>Node29</title>
<g id="a_node29"><a xlink:title=" ">
<polygon fill="white" stroke="black" points="1252,-97.5 1252,-116.5 1377,-116.5 1377,-97.5 1252,-97.5"/>
<text text-anchor="middle" x="1314.5" y="-104.5" font-family="Helvetica,sans-Serif" font-size="10.00">vnl_matrix&lt; TValue &gt;</text>
</a>
</g>
</g>
<!-- Node29&#45;&gt;Node28 -->
<g id="edge32" class="edge">
<title>Node29&#45;&gt;Node28</title>
<path fill="none" stroke="midnightblue" d="M1387.38,-111.23C1429.39,-113.7 1481.98,-116.79 1522.71,-119.19"/>
<polygon fill="midnightblue" stroke="midnightblue" points="1387.41,-107.72 1377.22,-110.63 1387,-114.71 1387.41,-107.72"/>
</g>
</g>
</svg>
