<?xml version="1.0" encoding="UTF-8" standalone="no"?>
<!DOCTYPE svg PUBLIC "-//W3C//DTD SVG 1.1//EN"
 "http://www.w3.org/Graphics/SVG/1.1/DTD/svg11.dtd">
<!-- Generated by graphviz version 2.43.0 (0)
 -->
<!-- Title: itk::ChainCodePath2D Pages: 1 -->
<svg width="1345pt" height="67pt"
 viewBox="0.00 0.00 1345.00 66.50" xmlns="http://www.w3.org/2000/svg" xmlns:xlink="http://www.w3.org/1999/xlink">
<g id="graph0" class="graph" transform="scale(1 1) rotate(0) translate(4 62.5)">
<title>itk::ChainCodePath2D</title>
<polygon fill="white" stroke="transparent" points="-4,4 -4,-62.5 1341,-62.5 1341,4 -4,4"/>
<!-- Node1 -->
<g id="node1" class="node">
<title>Node1</title>
<g id="a_node1"><a xlink:title="Represent a 2D path as a sequence of connected image index offsets.">
<polygon fill="#bfbfbf" stroke="black" points="1215,-28 1215,-47 1337,-47 1337,-28 1215,-28"/>
<text text-anchor="middle" x="1276" y="-35" font-family="Helvetica,sans-Serif" font-size="10.00">itk::ChainCodePath2D</text>
</a>
</g>
</g>
<!-- Node2 -->
<g id="node2" class="node">
<title>Node2</title>
<g id="a_node2"><a xlink:href="classitk_1_1ChainCodePath.html" target="_top" xlink:title=" ">
<polygon fill="white" stroke="black" points="1041,-28 1041,-47 1178,-47 1178,-28 1041,-28"/>
<text text-anchor="middle" x="1109.5" y="-35" font-family="Helvetica,sans-Serif" font-size="10.00">itk::ChainCodePath&lt; 2 &gt;</text>
</a>
</g>
</g>
<!-- Node2&#45;&gt;Node1 -->
<g id="edge1" class="edge">
<title>Node2&#45;&gt;Node1</title>
<path fill="none" stroke="midnightblue" d="M1188.38,-37.5C1197.3,-37.5 1206.29,-37.5 1214.93,-37.5"/>
<polygon fill="midnightblue" stroke="midnightblue" points="1188.36,-34 1178.36,-37.5 1188.36,-41 1188.36,-34"/>
</g>
<!-- Node3 -->
<g id="node3" class="node">
<title>Node3</title>
<g id="a_node3"><a xlink:href="classitk_1_1Path.html" target="_top" xlink:title=" ">
<polygon fill="white" stroke="black" points="689,-17 689,-58 827,-58 827,-17 689,-17"/>
<text text-anchor="start" x="697" y="-46" font-family="Helvetica,sans-Serif" font-size="10.00">itk::Path&lt; unsigned</text>
<text text-anchor="start" x="697" y="-35" font-family="Helvetica,sans-Serif" font-size="10.00"> int, Offset&lt; VDimension</text>
<text text-anchor="middle" x="758" y="-24" font-family="Helvetica,sans-Serif" font-size="10.00"> &gt;, VDimension &gt;</text>
</a>
</g>
</g>
<!-- Node3&#45;&gt;Node2 -->
<g id="edge2" class="edge">
<title>Node3&#45;&gt;Node2</title>
<path fill="none" stroke="midnightblue" d="M837.36,-40.96C889.89,-42.79 960.6,-44.32 1023,-42.5 1028.8,-42.33 1034.81,-42.1 1040.84,-41.82"/>
<polygon fill="midnightblue" stroke="midnightblue" points="837.23,-37.45 827.11,-40.59 836.98,-44.45 837.23,-37.45"/>
</g>
<!-- Node8 -->
<g id="node8" class="node">
<title>Node8</title>
<g id="a_node8"><a xlink:href="classitk_1_1ChainCodePath.html" target="_top" xlink:title="Represent a path as a sequence of connected image index offsets.">
<polygon fill="white" stroke="black" points="864,-0.5 864,-30.5 973,-30.5 973,-0.5 864,-0.5"/>
<text text-anchor="start" x="872" y="-18.5" font-family="Helvetica,sans-Serif" font-size="10.00">itk::ChainCodePath</text>
<text text-anchor="middle" x="918.5" y="-7.5" font-family="Helvetica,sans-Serif" font-size="10.00">&lt; VDimension &gt;</text>
</a>
</g>
</g>
<!-- Node3&#45;&gt;Node8 -->
<g id="edge9" class="edge">
<title>Node3&#45;&gt;Node8</title>
<path fill="none" stroke="midnightblue" d="M837.24,-26.64C846.22,-25.39 855.22,-24.14 863.77,-22.96"/>
<polygon fill="midnightblue" stroke="midnightblue" points="836.56,-23.2 827.14,-28.04 837.52,-30.13 836.56,-23.2"/>
</g>
<!-- Node4 -->
<g id="node4" class="node">
<title>Node4</title>
<g id="a_node4"><a xlink:href="classitk_1_1DataObject.html" target="_top" xlink:title="Base class for all data objects in ITK.">
<polygon fill="white" stroke="black" points="232,-28 232,-47 322,-47 322,-28 232,-28"/>
<text text-anchor="middle" x="277" y="-35" font-family="Helvetica,sans-Serif" font-size="10.00">itk::DataObject</text>
</a>
</g>
</g>
<!-- Node4&#45;&gt;Node3 -->
<g id="edge3" class="edge">
<title>Node4&#45;&gt;Node3</title>
<path fill="none" stroke="midnightblue" d="M332.21,-42.07C334.85,-42.23 337.45,-42.38 340,-42.5 486.94,-49.7 524.04,-52.32 671,-45.5 676.84,-45.23 682.9,-44.85 688.97,-44.42"/>
<polygon fill="midnightblue" stroke="midnightblue" points="332.22,-38.56 322.01,-41.39 331.75,-45.55 332.22,-38.56"/>
</g>
<!-- Node7 -->
<g id="node7" class="node">
<title>Node7</title>
<g id="a_node7"><a xlink:href="classitk_1_1Path.html" target="_top" xlink:title="Represent a path through ND Space.">
<polygon fill="white" stroke="black" points="359,-0.5 359,-30.5 494,-30.5 494,-0.5 359,-0.5"/>
<text text-anchor="start" x="367" y="-18.5" font-family="Helvetica,sans-Serif" font-size="10.00">itk::Path&lt; TInput,</text>
<text text-anchor="middle" x="426.5" y="-7.5" font-family="Helvetica,sans-Serif" font-size="10.00"> TOutput, VDimension &gt;</text>
</a>
</g>
</g>
<!-- Node4&#45;&gt;Node7 -->
<g id="edge7" class="edge">
<title>Node4&#45;&gt;Node7</title>
<path fill="none" stroke="midnightblue" d="M332.23,-29.41C340.91,-28.12 349.98,-26.76 358.91,-25.43"/>
<polygon fill="midnightblue" stroke="midnightblue" points="331.63,-25.96 322.25,-30.9 332.66,-32.89 331.63,-25.96"/>
</g>
<!-- Node5 -->
<g id="node5" class="node">
<title>Node5</title>
<g id="a_node5"><a xlink:href="classitk_1_1Object.html" target="_top" xlink:title="Base class for most ITK classes.">
<polygon fill="white" stroke="black" points="128,-28 128,-47 195,-47 195,-28 128,-28"/>
<text text-anchor="middle" x="161.5" y="-35" font-family="Helvetica,sans-Serif" font-size="10.00">itk::Object</text>
</a>
</g>
</g>
<!-- Node5&#45;&gt;Node4 -->
<g id="edge4" class="edge">
<title>Node5&#45;&gt;Node4</title>
<path fill="none" stroke="midnightblue" d="M205.25,-37.5C213.87,-37.5 222.95,-37.5 231.63,-37.5"/>
<polygon fill="midnightblue" stroke="midnightblue" points="205.02,-34 195.02,-37.5 205.02,-41 205.02,-34"/>
</g>
<!-- Node6 -->
<g id="node6" class="node">
<title>Node6</title>
<g id="a_node6"><a xlink:href="classitk_1_1LightObject.html" target="_top" xlink:title="Light weight base class for most itk classes.">
<polygon fill="white" stroke="black" points="0,-28 0,-47 91,-47 91,-28 0,-28"/>
<text text-anchor="middle" x="45.5" y="-35" font-family="Helvetica,sans-Serif" font-size="10.00">itk::LightObject</text>
</a>
</g>
</g>
<!-- Node6&#45;&gt;Node5 -->
<g id="edge5" class="edge">
<title>Node6&#45;&gt;Node5</title>
<path fill="none" stroke="midnightblue" d="M101.39,-37.5C110.45,-37.5 119.59,-37.5 127.88,-37.5"/>
<polygon fill="midnightblue" stroke="midnightblue" points="101.23,-34 91.23,-37.5 101.23,-41 101.23,-34"/>
</g>
<!-- Node7&#45;&gt;Node3 -->
<g id="edge6" class="edge">
<title>Node7&#45;&gt;Node3</title>
<path fill="none" stroke="orange" stroke-dasharray="5,2" d="M504.06,-15.5C552.11,-16.12 615.29,-18.07 671,-23.5 676.72,-24.06 682.64,-24.76 688.57,-25.55"/>
<polygon fill="orange" stroke="orange" points="504.09,-12 494.05,-15.38 504.01,-19 504.09,-12"/>
<text text-anchor="start" x="512" y="-37.5" font-family="Helvetica,sans-Serif" font-size="10.00"> &lt; unsigned int, Offset</text>
<text text-anchor="middle" x="591.5" y="-26.5" font-family="Helvetica,sans-Serif" font-size="10.00">&lt; VDimension &gt;, VDimension &gt;</text>
</g>
<!-- Node8&#45;&gt;Node2 -->
<g id="edge8" class="edge">
<title>Node8&#45;&gt;Node2</title>
<path fill="none" stroke="orange" stroke-dasharray="5,2" d="M983.25,-22.92C1001.79,-25.08 1022.11,-27.44 1040.88,-29.63"/>
<polygon fill="orange" stroke="orange" points="983.49,-19.43 973.15,-21.75 982.68,-26.38 983.49,-19.43"/>
<text text-anchor="middle" x="1007" y="-30.5" font-family="Helvetica,sans-Serif" font-size="10.00"> &lt; 2 &gt;</text>
</g>
</g>
</svg>
