<?xml version="1.0" encoding="UTF-8" standalone="no"?>
<!DOCTYPE svg PUBLIC "-//W3C//DTD SVG 1.1//EN"
 "http://www.w3.org/Graphics/SVG/1.1/DTD/svg11.dtd">
<!-- Generated by graphviz version 2.43.0 (0)
 -->
<!-- Title: itk::DiscreteMaximumCurvatureQuadEdgeMeshFilter&lt; TInputMesh, TOutputMesh &gt; Pages: 1 -->
<svg width="4130pt" height="523pt"
 viewBox="0.00 0.00 4130.00 522.50" xmlns="http://www.w3.org/2000/svg" xmlns:xlink="http://www.w3.org/1999/xlink">
<g id="graph0" class="graph" transform="scale(1 1) rotate(0) translate(4 518.5)">
<title>itk::DiscreteMaximumCurvatureQuadEdgeMeshFilter&lt; TInputMesh, TOutputMesh &gt;</title>
<polygon fill="white" stroke="transparent" points="-4,4 -4,-518.5 4126,-518.5 4126,4 -4,4"/>
<!-- Node1 -->
<g id="node1" class="node">
<title>Node1</title>
<g id="a_node1"><a xlink:title="FIXME Add documentation here.">
<polygon fill="#bfbfbf" stroke="black" points="3934,-243 3934,-284 4122,-284 4122,-243 3934,-243"/>
<text text-anchor="start" x="3942" y="-272" font-family="Helvetica,sans-Serif" font-size="10.00">itk::DiscreteMaximumCurvature</text>
<text text-anchor="start" x="3942" y="-261" font-family="Helvetica,sans-Serif" font-size="10.00">QuadEdgeMeshFilter&lt; TInputMesh,</text>
<text text-anchor="middle" x="4028" y="-250" font-family="Helvetica,sans-Serif" font-size="10.00"> TOutputMesh &gt;</text>
</a>
</g>
</g>
<!-- Node2 -->
<g id="node2" class="node">
<title>Node2</title>
<g id="a_node2"><a xlink:href="classitk_1_1DiscretePrincipalCurvaturesQuadEdgeMeshFilter.html" target="_top" xlink:title=" ">
<polygon fill="white" stroke="black" points="3709,-243 3709,-284 3897,-284 3897,-243 3709,-243"/>
<text text-anchor="start" x="3717" y="-272" font-family="Helvetica,sans-Serif" font-size="10.00">itk::DiscretePrincipalCurvatures</text>
<text text-anchor="start" x="3717" y="-261" font-family="Helvetica,sans-Serif" font-size="10.00">QuadEdgeMeshFilter&lt; TInputMesh,</text>
<text text-anchor="middle" x="3803" y="-250" font-family="Helvetica,sans-Serif" font-size="10.00"> TInputMesh &gt;</text>
</a>
</g>
</g>
<!-- Node2&#45;&gt;Node1 -->
<g id="edge1" class="edge">
<title>Node2&#45;&gt;Node1</title>
<path fill="none" stroke="midnightblue" d="M3907.51,-263.5C3916.26,-263.5 3925.07,-263.5 3933.74,-263.5"/>
<polygon fill="midnightblue" stroke="midnightblue" points="3907.28,-260 3897.28,-263.5 3907.28,-267 3907.28,-260"/>
</g>
<!-- Node3 -->
<g id="node3" class="node">
<title>Node3</title>
<g id="a_node3"><a xlink:href="classitk_1_1DiscreteCurvatureQuadEdgeMeshFilter.html" target="_top" xlink:title=" ">
<polygon fill="white" stroke="black" points="3139,-242 3139,-283 3302,-283 3302,-242 3139,-242"/>
<text text-anchor="start" x="3147" y="-271" font-family="Helvetica,sans-Serif" font-size="10.00">itk::DiscreteCurvatureQuad</text>
<text text-anchor="start" x="3147" y="-260" font-family="Helvetica,sans-Serif" font-size="10.00">EdgeMeshFilter&lt; TInputMesh,</text>
<text text-anchor="middle" x="3220.5" y="-249" font-family="Helvetica,sans-Serif" font-size="10.00"> TInputMesh &gt;</text>
</a>
</g>
</g>
<!-- Node3&#45;&gt;Node2 -->
<g id="edge2" class="edge">
<title>Node3&#45;&gt;Node2</title>
<path fill="none" stroke="midnightblue" d="M3312.25,-267.51C3321.29,-267.89 3330.32,-268.24 3339,-268.5 3495.37,-273.25 3534.63,-275.43 3691,-270.5 3696.79,-270.32 3702.75,-270.08 3708.75,-269.81"/>
<polygon fill="midnightblue" stroke="midnightblue" points="3312.22,-264 3302.07,-267.06 3311.91,-271 3312.22,-264"/>
</g>
<!-- Node36 -->
<g id="node36" class="node">
<title>Node36</title>
<g id="a_node36"><a xlink:href="classitk_1_1DiscretePrincipalCurvaturesQuadEdgeMeshFilter.html" target="_top" xlink:title="FIXME add documentation here.">
<polygon fill="white" stroke="black" points="3339,-218 3339,-259 3527,-259 3527,-218 3339,-218"/>
<text text-anchor="start" x="3347" y="-247" font-family="Helvetica,sans-Serif" font-size="10.00">itk::DiscretePrincipalCurvatures</text>
<text text-anchor="start" x="3347" y="-236" font-family="Helvetica,sans-Serif" font-size="10.00">QuadEdgeMeshFilter&lt; TInputMesh,</text>
<text text-anchor="middle" x="3433" y="-225" font-family="Helvetica,sans-Serif" font-size="10.00"> TOutputMesh &gt;</text>
</a>
</g>
</g>
<!-- Node3&#45;&gt;Node36 -->
<g id="edge53" class="edge">
<title>Node3&#45;&gt;Node36</title>
<path fill="none" stroke="midnightblue" d="M3312.45,-252.13C3321.18,-251.14 3330.03,-250.13 3338.78,-249.13"/>
<polygon fill="midnightblue" stroke="midnightblue" points="3311.82,-248.68 3302.28,-253.29 3312.61,-255.63 3311.82,-248.68"/>
</g>
<!-- Node4 -->
<g id="node4" class="node">
<title>Node4</title>
<g id="a_node4"><a xlink:href="classitk_1_1QuadEdgeMeshToQuadEdgeMeshFilter.html" target="_top" xlink:title=" ">
<polygon fill="white" stroke="black" points="2586,-241 2586,-282 2757,-282 2757,-241 2586,-241"/>
<text text-anchor="start" x="2594" y="-270" font-family="Helvetica,sans-Serif" font-size="10.00">itk::QuadEdgeMeshToQuadEdge</text>
<text text-anchor="start" x="2594" y="-259" font-family="Helvetica,sans-Serif" font-size="10.00">MeshFilter&lt; TInputMesh,</text>
<text text-anchor="middle" x="2671.5" y="-248" font-family="Helvetica,sans-Serif" font-size="10.00"> TInputMesh &gt;</text>
</a>
</g>
</g>
<!-- Node4&#45;&gt;Node3 -->
<g id="edge3" class="edge">
<title>Node4&#45;&gt;Node3</title>
<path fill="none" stroke="midnightblue" d="M2767.3,-266.48C2776.32,-266.87 2785.34,-267.21 2794,-267.5 2939.26,-272.29 2975.78,-276.39 3121,-270.5 3126.83,-270.26 3132.85,-269.95 3138.9,-269.58"/>
<polygon fill="midnightblue" stroke="midnightblue" points="2767.27,-262.98 2757.13,-266.04 2766.97,-269.97 2767.27,-262.98"/>
</g>
<!-- Node35 -->
<g id="node35" class="node">
<title>Node35</title>
<g id="a_node35"><a xlink:href="classitk_1_1DiscreteCurvatureQuadEdgeMeshFilter.html" target="_top" xlink:title="FIXME.">
<polygon fill="white" stroke="black" points="2794,-217 2794,-258 2957,-258 2957,-217 2794,-217"/>
<text text-anchor="start" x="2802" y="-246" font-family="Helvetica,sans-Serif" font-size="10.00">itk::DiscreteCurvatureQuad</text>
<text text-anchor="start" x="2802" y="-235" font-family="Helvetica,sans-Serif" font-size="10.00">EdgeMeshFilter&lt; TInputMesh,</text>
<text text-anchor="middle" x="2875.5" y="-224" font-family="Helvetica,sans-Serif" font-size="10.00"> TOutputMesh &gt;</text>
</a>
</g>
</g>
<!-- Node4&#45;&gt;Node35 -->
<g id="edge51" class="edge">
<title>Node4&#45;&gt;Node35</title>
<path fill="none" stroke="midnightblue" d="M2767.26,-250.24C2776.14,-249.19 2785.08,-248.12 2793.8,-247.09"/>
<polygon fill="midnightblue" stroke="midnightblue" points="2766.81,-246.77 2757.29,-251.43 2767.63,-253.72 2766.81,-246.77"/>
</g>
<!-- Node5 -->
<g id="node5" class="node">
<title>Node5</title>
<g id="a_node5"><a xlink:href="classitk_1_1MeshToMeshFilter.html" target="_top" xlink:title=" ">
<polygon fill="white" stroke="black" points="2239,-274.5 2239,-304.5 2398,-304.5 2398,-274.5 2239,-274.5"/>
<text text-anchor="start" x="2247" y="-292.5" font-family="Helvetica,sans-Serif" font-size="10.00">itk::MeshToMeshFilter</text>
<text text-anchor="middle" x="2318.5" y="-281.5" font-family="Helvetica,sans-Serif" font-size="10.00">&lt; TInputMesh, TInputMesh &gt;</text>
</a>
</g>
</g>
<!-- Node5&#45;&gt;Node4 -->
<g id="edge4" class="edge">
<title>Node5&#45;&gt;Node4</title>
<path fill="none" stroke="midnightblue" d="M2408.27,-282.42C2462.76,-278.07 2532.15,-272.54 2585.86,-268.25"/>
<polygon fill="midnightblue" stroke="midnightblue" points="2407.96,-278.93 2398.27,-283.22 2408.52,-285.91 2407.96,-278.93"/>
</g>
<!-- Node6 -->
<g id="node6" class="node">
<title>Node6</title>
<g id="a_node6"><a xlink:href="classitk_1_1MeshSource.html" target="_top" xlink:title=" ">
<polygon fill="white" stroke="black" points="1877,-284 1877,-303 2051,-303 2051,-284 1877,-284"/>
<text text-anchor="middle" x="1964" y="-291" font-family="Helvetica,sans-Serif" font-size="10.00">itk::MeshSource&lt; TInputMesh &gt;</text>
</a>
</g>
</g>
<!-- Node6&#45;&gt;Node5 -->
<g id="edge5" class="edge">
<title>Node6&#45;&gt;Node5</title>
<path fill="none" stroke="midnightblue" d="M2061.47,-292.41C2117.18,-291.77 2186.38,-290.99 2238.78,-290.39"/>
<polygon fill="midnightblue" stroke="midnightblue" points="2061.19,-288.91 2051.23,-292.52 2061.27,-295.91 2061.19,-288.91"/>
</g>
<!-- Node7 -->
<g id="node7" class="node">
<title>Node7</title>
<g id="a_node7"><a xlink:href="classitk_1_1ProcessObject.html" target="_top" xlink:title="The base class for all process objects (source, filters, mappers) in the Insight data processing pipe...">
<polygon fill="white" stroke="black" points="1472,-278 1472,-297 1576,-297 1576,-278 1472,-278"/>
<text text-anchor="middle" x="1524" y="-285" font-family="Helvetica,sans-Serif" font-size="10.00">itk::ProcessObject</text>
</a>
</g>
</g>
<!-- Node7&#45;&gt;Node6 -->
<g id="edge6" class="edge">
<title>Node7&#45;&gt;Node6</title>
<path fill="none" stroke="midnightblue" d="M1586.42,-288.34C1662.14,-289.38 1791.27,-291.15 1876.87,-292.32"/>
<polygon fill="midnightblue" stroke="midnightblue" points="1586.15,-284.84 1576.1,-288.2 1586.05,-291.84 1586.15,-284.84"/>
</g>
<!-- Node32 -->
<g id="node32" class="node">
<title>Node32</title>
<g id="a_node32"><a xlink:href="classitk_1_1MeshSource.html" target="_top" xlink:title="Base class for all process objects that output mesh data.">
<polygon fill="white" stroke="black" points="1613,-241.5 1613,-271.5 1758,-271.5 1758,-241.5 1613,-241.5"/>
<text text-anchor="start" x="1621" y="-259.5" font-family="Helvetica,sans-Serif" font-size="10.00">itk::MeshSource&lt; TOutput</text>
<text text-anchor="middle" x="1685.5" y="-248.5" font-family="Helvetica,sans-Serif" font-size="10.00">Mesh &gt;</text>
</a>
</g>
</g>
<!-- Node7&#45;&gt;Node32 -->
<g id="edge45" class="edge">
<title>Node7&#45;&gt;Node32</title>
<path fill="none" stroke="midnightblue" d="M1584.14,-276C1593.52,-274.18 1603.31,-272.28 1612.93,-270.41"/>
<polygon fill="midnightblue" stroke="midnightblue" points="1583.31,-272.6 1574.16,-277.95 1584.64,-279.47 1583.31,-272.6"/>
</g>
<!-- Node8 -->
<g id="node8" class="node">
<title>Node8</title>
<g id="a_node8"><a xlink:href="classitk_1_1Object.html" target="_top" xlink:title="Base class for most ITK classes.">
<polygon fill="white" stroke="black" points="1176,-298 1176,-317 1243,-317 1243,-298 1176,-298"/>
<text text-anchor="middle" x="1209.5" y="-305" font-family="Helvetica,sans-Serif" font-size="10.00">itk::Object</text>
</a>
</g>
</g>
<!-- Node8&#45;&gt;Node7 -->
<g id="edge7" class="edge">
<title>Node8&#45;&gt;Node7</title>
<path fill="none" stroke="midnightblue" d="M1253.17,-304.77C1310.17,-301.12 1411.03,-294.67 1471.98,-290.77"/>
<polygon fill="midnightblue" stroke="midnightblue" points="1252.81,-301.28 1243.06,-305.42 1253.26,-308.27 1252.81,-301.28"/>
</g>
<!-- Node9 -->
<g id="node9" class="node">
<title>Node9</title>
<g id="a_node9"><a xlink:href="classitk_1_1LightObject.html" target="_top" xlink:title="Light weight base class for most itk classes.">
<polygon fill="white" stroke="black" points="834.5,-330 834.5,-349 925.5,-349 925.5,-330 834.5,-330"/>
<text text-anchor="middle" x="880" y="-337" font-family="Helvetica,sans-Serif" font-size="10.00">itk::LightObject</text>
</a>
</g>
</g>
<!-- Node9&#45;&gt;Node8 -->
<g id="edge8" class="edge">
<title>Node9&#45;&gt;Node8</title>
<path fill="none" stroke="midnightblue" d="M935.69,-334.16C1004.33,-327.45 1119.84,-316.16 1175.95,-310.68"/>
<polygon fill="midnightblue" stroke="midnightblue" points="935.12,-330.7 925.51,-335.15 935.8,-337.66 935.12,-330.7"/>
</g>
<!-- Node10 -->
<g id="node10" class="node">
<title>Node10</title>
<g id="a_node10"><a xlink:title=" ">
<polygon fill="white" stroke="#bfbfbf" points="492,-331 492,-350 599,-350 599,-331 492,-331"/>
<text text-anchor="middle" x="545.5" y="-338" font-family="Helvetica,sans-Serif" font-size="10.00">std::atomic&lt; int &gt;</text>
</a>
</g>
</g>
<!-- Node10&#45;&gt;Node9 -->
<g id="edge9" class="edge">
<title>Node10&#45;&gt;Node9</title>
<path fill="none" stroke="#9a32cd" stroke-dasharray="5,2" d="M609.41,-340.31C675.06,-340.11 776.36,-339.81 834.28,-339.63"/>
<polygon fill="#9a32cd" stroke="#9a32cd" points="609.18,-336.81 599.19,-340.34 609.2,-343.81 609.18,-336.81"/>
<text text-anchor="middle" x="721.5" y="-343.5" font-family="Helvetica,sans-Serif" font-size="10.00"> m_ReferenceCount</text>
</g>
<!-- Node11 -->
<g id="node11" class="node">
<title>Node11</title>
<g id="a_node11"><a xlink:title="STL class.">
<polygon fill="white" stroke="#bfbfbf" points="135.5,-363 135.5,-382 235.5,-382 235.5,-363 135.5,-363"/>
<text text-anchor="middle" x="185.5" y="-370" font-family="Helvetica,sans-Serif" font-size="10.00">std::atomic&lt; T &gt;</text>
</a>
</g>
</g>
<!-- Node11&#45;&gt;Node10 -->
<g id="edge10" class="edge">
<title>Node11&#45;&gt;Node10</title>
<path fill="none" stroke="orange" stroke-dasharray="5,2" d="M245.68,-364.76C255.46,-363.59 265.51,-362.46 275,-361.5 350.17,-353.9 437.39,-347.56 491.76,-343.89"/>
<polygon fill="orange" stroke="orange" points="245.11,-361.31 235.61,-365.99 245.96,-368.25 245.11,-361.31"/>
<text text-anchor="middle" x="359" y="-364.5" font-family="Helvetica,sans-Serif" font-size="10.00"> &lt; int &gt;</text>
</g>
<!-- Node20 -->
<g id="node20" class="node">
<title>Node20</title>
<g id="a_node20"><a xlink:href="classitk_1_1TimeStamp.html" target="_top" xlink:title="Generate a unique, increasing time value.">
<polygon fill="white" stroke="black" points="834,-377 834,-396 926,-396 926,-377 834,-377"/>
<text text-anchor="middle" x="880" y="-384" font-family="Helvetica,sans-Serif" font-size="10.00">itk::TimeStamp</text>
</a>
</g>
</g>
<!-- Node11&#45;&gt;Node20 -->
<g id="edge22" class="edge">
<title>Node11&#45;&gt;Node20</title>
<path fill="none" stroke="#9a32cd" stroke-dasharray="5,2" d="M245.96,-373.7C381.82,-376.45 712.58,-383.14 833.64,-385.58"/>
<polygon fill="#9a32cd" stroke="#9a32cd" points="245.82,-370.2 235.75,-373.5 245.67,-377.2 245.82,-370.2"/>
<text text-anchor="middle" x="545.5" y="-384.5" font-family="Helvetica,sans-Serif" font-size="10.00"> m_GlobalTimeStamp</text>
</g>
<!-- Node24 -->
<g id="node24" class="node">
<title>Node24</title>
<g id="a_node24"><a xlink:title=" ">
<polygon fill="white" stroke="#bfbfbf" points="654.5,-416 654.5,-435 788.5,-435 788.5,-416 654.5,-416"/>
<text text-anchor="middle" x="721.5" y="-423" font-family="Helvetica,sans-Serif" font-size="10.00">std::atomic&lt; uint32_t &gt;</text>
</a>
</g>
</g>
<!-- Node11&#45;&gt;Node24 -->
<g id="edge31" class="edge">
<title>Node11&#45;&gt;Node24</title>
<path fill="none" stroke="orange" stroke-dasharray="5,2" d="M220.48,-385.45C236.74,-391.07 256.62,-397.13 275,-400.5 407.96,-424.87 566.65,-427.63 654.22,-426.92"/>
<polygon fill="orange" stroke="orange" points="221.47,-382.09 210.88,-382.03 219.13,-388.68 221.47,-382.09"/>
<text text-anchor="middle" x="359" y="-423.5" font-family="Helvetica,sans-Serif" font-size="10.00"> &lt; uint32_t &gt;</text>
</g>
<!-- Node12 -->
<g id="node12" class="node">
<title>Node12</title>
<g id="a_node12"><a xlink:title=" ">
<polygon fill="white" stroke="#bfbfbf" points="0,-337 0,-356 29,-356 29,-337 0,-337"/>
<text text-anchor="middle" x="14.5" y="-344" font-family="Helvetica,sans-Serif" font-size="10.00">T</text>
</a>
</g>
</g>
<!-- Node12&#45;&gt;Node11 -->
<g id="edge11" class="edge">
<title>Node12&#45;&gt;Node11</title>
<path fill="none" stroke="#9a32cd" stroke-dasharray="5,2" d="M39,-350.11C63.8,-353.93 103.63,-360.06 135.35,-364.94"/>
<polygon fill="#9a32cd" stroke="#9a32cd" points="39.46,-346.65 29.04,-348.58 38.4,-353.56 39.46,-346.65"/>
<text text-anchor="middle" x="71.5" y="-362.5" font-family="Helvetica,sans-Serif" font-size="10.00"> ptr</text>
</g>
<!-- Node17 -->
<g id="node17" class="node">
<title>Node17</title>
<g id="a_node17"><a xlink:title="STL class.">
<polygon fill="white" stroke="#bfbfbf" points="135,-243 135,-262 236,-262 236,-243 135,-243"/>
<text text-anchor="middle" x="185.5" y="-250" font-family="Helvetica,sans-Serif" font-size="10.00">std::map&lt; K, T &gt;</text>
</a>
</g>
</g>
<!-- Node12&#45;&gt;Node17 -->
<g id="edge18" class="edge">
<title>Node12&#45;&gt;Node17</title>
<path fill="none" stroke="#9a32cd" stroke-dasharray="5,2" d="M27.39,-328.62C32.73,-321.63 39.52,-313.99 47,-308.5 77.66,-286.02 118.64,-270.85 147.86,-262.04"/>
<polygon fill="#9a32cd" stroke="#9a32cd" points="24.42,-326.76 21.45,-336.93 30.11,-330.83 24.42,-326.76"/>
<text text-anchor="middle" x="71.5" y="-311.5" font-family="Helvetica,sans-Serif" font-size="10.00"> elements</text>
</g>
<!-- Node19 -->
<g id="node19" class="node">
<title>Node19</title>
<g id="a_node19"><a xlink:title="STL class.">
<polygon fill="white" stroke="#bfbfbf" points="126.5,-315 126.5,-334 244.5,-334 244.5,-315 126.5,-315"/>
<text text-anchor="middle" x="185.5" y="-322" font-family="Helvetica,sans-Serif" font-size="10.00">std::shared_ptr&lt; T &gt;</text>
</a>
</g>
</g>
<!-- Node12&#45;&gt;Node19 -->
<g id="edge20" class="edge">
<title>Node12&#45;&gt;Node19</title>
<path fill="none" stroke="#9a32cd" stroke-dasharray="5,2" d="M38.32,-333.51C41.17,-332.31 44.11,-331.26 47,-330.5 72.54,-323.79 101.65,-321.76 126.49,-321.61"/>
<polygon fill="#9a32cd" stroke="#9a32cd" points="36.57,-330.47 29.1,-337.99 39.63,-336.77 36.57,-330.47"/>
<text text-anchor="middle" x="71.5" y="-333.5" font-family="Helvetica,sans-Serif" font-size="10.00"> ptr</text>
</g>
<!-- Node27 -->
<g id="node27" class="node">
<title>Node27</title>
<g id="a_node27"><a xlink:title="STL class.">
<polygon fill="white" stroke="#bfbfbf" points="137,-419 137,-438 234,-438 234,-419 137,-419"/>
<text text-anchor="middle" x="185.5" y="-426" font-family="Helvetica,sans-Serif" font-size="10.00">std::vector&lt; T &gt;</text>
</a>
</g>
</g>
<!-- Node12&#45;&gt;Node27 -->
<g id="edge35" class="edge">
<title>Node12&#45;&gt;Node27</title>
<path fill="none" stroke="#9a32cd" stroke-dasharray="5,2" d="M32,-363.12C36.6,-367.19 41.78,-371.29 47,-374.5 80.01,-394.76 121.91,-409.9 150.74,-418.92"/>
<polygon fill="#9a32cd" stroke="#9a32cd" points="34.13,-360.32 24.45,-356.02 29.34,-365.42 34.13,-360.32"/>
<text text-anchor="middle" x="71.5" y="-401.5" font-family="Helvetica,sans-Serif" font-size="10.00"> elements</text>
</g>
<!-- Node13 -->
<g id="node13" class="node">
<title>Node13</title>
<g id="a_node13"><a xlink:title="STL class.">
<polygon fill="white" stroke="#bfbfbf" points="847.5,-199 847.5,-218 912.5,-218 912.5,-199 847.5,-199"/>
<text text-anchor="middle" x="880" y="-206" font-family="Helvetica,sans-Serif" font-size="10.00">std::string</text>
</a>
</g>
</g>
<!-- Node13&#45;&gt;Node8 -->
<g id="edge12" class="edge">
<title>Node13&#45;&gt;Node8</title>
<path fill="none" stroke="#9a32cd" stroke-dasharray="5,2" d="M917.78,-221.4C965.31,-237.84 1050.77,-266.63 1125,-287.5 1141.65,-292.18 1160.35,-296.73 1175.83,-300.3"/>
<polygon fill="#9a32cd" stroke="#9a32cd" points="918.83,-218.06 908.23,-218.09 916.53,-224.67 918.83,-218.06"/>
<text text-anchor="middle" x="1036" y="-285.5" font-family="Helvetica,sans-Serif" font-size="10.00"> m_ObjectName</text>
</g>
<!-- Node21 -->
<g id="node21" class="node">
<title>Node21</title>
<g id="a_node21"><a xlink:title=" ">
<polygon fill="white" stroke="#bfbfbf" points="1128.5,-159.5 1128.5,-189.5 1290.5,-189.5 1290.5,-159.5 1128.5,-159.5"/>
<text text-anchor="start" x="1136.5" y="-177.5" font-family="Helvetica,sans-Serif" font-size="10.00">std::set&lt; DataObjectIdentifier</text>
<text text-anchor="middle" x="1209.5" y="-166.5" font-family="Helvetica,sans-Serif" font-size="10.00">Type &gt;</text>
</a>
</g>
</g>
<!-- Node13&#45;&gt;Node21 -->
<g id="edge24" class="edge">
<title>Node13&#45;&gt;Node21</title>
<path fill="none" stroke="#9a32cd" stroke-dasharray="5,2" d="M908.72,-194.61C924.73,-187.36 945.5,-179.23 965,-175.5 1018.77,-165.2 1080.45,-165.07 1128.28,-167.45"/>
<polygon fill="#9a32cd" stroke="#9a32cd" points="906.99,-191.55 899.42,-198.96 909.96,-197.89 906.99,-191.55"/>
<text text-anchor="middle" x="1036" y="-178.5" font-family="Helvetica,sans-Serif" font-size="10.00"> keys</text>
</g>
<!-- Node23 -->
<g id="node23" class="node">
<title>Node23</title>
<g id="a_node23"><a xlink:title=" ">
<polygon fill="white" stroke="#bfbfbf" points="1125,-248.5 1125,-278.5 1294,-278.5 1294,-248.5 1125,-248.5"/>
<text text-anchor="start" x="1133" y="-266.5" font-family="Helvetica,sans-Serif" font-size="10.00">std::map&lt; DataObjectIdentifier</text>
<text text-anchor="middle" x="1209.5" y="-255.5" font-family="Helvetica,sans-Serif" font-size="10.00">Type, bool &gt;</text>
</a>
</g>
</g>
<!-- Node13&#45;&gt;Node23 -->
<g id="edge28" class="edge">
<title>Node13&#45;&gt;Node23</title>
<path fill="none" stroke="#9a32cd" stroke-dasharray="5,2" d="M922.84,-202.77C968.78,-197.83 1044.34,-193.72 1107,-209.5 1137,-217.05 1167.88,-235.26 1187.58,-248.44"/>
<polygon fill="#9a32cd" stroke="#9a32cd" points="922.21,-199.32 912.67,-203.93 923,-206.27 922.21,-199.32"/>
<text text-anchor="middle" x="1036" y="-212.5" font-family="Helvetica,sans-Serif" font-size="10.00"> keys</text>
</g>
<!-- Node28 -->
<g id="node28" class="node">
<title>Node28</title>
<g id="a_node28"><a xlink:title=" ">
<polygon fill="white" stroke="#bfbfbf" points="1125,-86.5 1125,-116.5 1294,-116.5 1294,-86.5 1125,-86.5"/>
<text text-anchor="start" x="1133" y="-104.5" font-family="Helvetica,sans-Serif" font-size="10.00">std::map&lt; DataObjectIdentifier</text>
<text text-anchor="middle" x="1209.5" y="-93.5" font-family="Helvetica,sans-Serif" font-size="10.00">Type, DataObjectPointer &gt;</text>
</a>
</g>
</g>
<!-- Node13&#45;&gt;Node28 -->
<g id="edge39" class="edge">
<title>Node13&#45;&gt;Node28</title>
<path fill="none" stroke="#9a32cd" stroke-dasharray="5,2" d="M900.24,-192.17C916.48,-179.23 940.89,-161.68 965,-151.5 1015.89,-130.02 1076.77,-117.52 1124.92,-110.39"/>
<polygon fill="#9a32cd" stroke="#9a32cd" points="897.64,-189.78 892.11,-198.81 902.07,-195.2 897.64,-189.78"/>
<text text-anchor="middle" x="1036" y="-154.5" font-family="Helvetica,sans-Serif" font-size="10.00"> keys</text>
</g>
<!-- Node14 -->
<g id="node14" class="node">
<title>Node14</title>
<g id="a_node14"><a xlink:title="STL class.">
<polygon fill="white" stroke="#bfbfbf" points="493.5,-193.5 493.5,-223.5 597.5,-223.5 597.5,-193.5 493.5,-193.5"/>
<text text-anchor="start" x="501.5" y="-211.5" font-family="Helvetica,sans-Serif" font-size="10.00">std::basic_string&lt;</text>
<text text-anchor="middle" x="545.5" y="-200.5" font-family="Helvetica,sans-Serif" font-size="10.00"> char &gt;</text>
</a>
</g>
</g>
<!-- Node14&#45;&gt;Node13 -->
<g id="edge13" class="edge">
<title>Node14&#45;&gt;Node13</title>
<path fill="none" stroke="midnightblue" d="M607.85,-208.5C678.64,-208.5 792.34,-208.5 847.27,-208.5"/>
<polygon fill="midnightblue" stroke="midnightblue" points="607.72,-205 597.72,-208.5 607.72,-212 607.72,-205"/>
</g>
<!-- Node15 -->
<g id="node15" class="node">
<title>Node15</title>
<g id="a_node15"><a xlink:href="classitk_1_1MetaDataDictionary.html" target="_top" xlink:title="Provides a mechanism for storing a collection of arbitrary data types.">
<polygon fill="white" stroke="black" points="813,-291 813,-310 947,-310 947,-291 813,-291"/>
<text text-anchor="middle" x="880" y="-298" font-family="Helvetica,sans-Serif" font-size="10.00">itk::MetaDataDictionary</text>
</a>
</g>
</g>
<!-- Node15&#45;&gt;Node8 -->
<g id="edge14" class="edge">
<title>Node15&#45;&gt;Node8</title>
<path fill="none" stroke="#9a32cd" stroke-dasharray="5,2" d="M957.28,-300.41C1001.09,-300.55 1057.15,-301.05 1107,-302.5 1129.93,-303.17 1155.74,-304.44 1175.6,-305.54"/>
<polygon fill="#9a32cd" stroke="#9a32cd" points="957.28,-296.91 947.27,-300.38 957.26,-303.91 957.28,-296.91"/>
<text text-anchor="middle" x="1036" y="-305.5" font-family="Helvetica,sans-Serif" font-size="10.00"> m_MetaDataDictionary</text>
</g>
<!-- Node16 -->
<g id="node16" class="node">
<title>Node16</title>
<g id="a_node16"><a xlink:title=" ">
<polygon fill="white" stroke="#bfbfbf" points="471,-281.5 471,-311.5 620,-311.5 620,-281.5 471,-281.5"/>
<text text-anchor="start" x="479" y="-299.5" font-family="Helvetica,sans-Serif" font-size="10.00">std::shared_ptr&lt; MetaData</text>
<text text-anchor="middle" x="545.5" y="-288.5" font-family="Helvetica,sans-Serif" font-size="10.00">DictionaryMapType &gt;</text>
</a>
</g>
</g>
<!-- Node16&#45;&gt;Node15 -->
<g id="edge15" class="edge">
<title>Node16&#45;&gt;Node15</title>
<path fill="none" stroke="#9a32cd" stroke-dasharray="5,2" d="M630.63,-297.51C687.09,-298.19 760.43,-299.07 812.74,-299.7"/>
<polygon fill="#9a32cd" stroke="#9a32cd" points="630.33,-294.01 620.29,-297.39 630.25,-301.01 630.33,-294.01"/>
<text text-anchor="middle" x="721.5" y="-302.5" font-family="Helvetica,sans-Serif" font-size="10.00"> m_Dictionary</text>
</g>
<!-- Node17&#45;&gt;Node16 -->
<g id="edge16" class="edge">
<title>Node17&#45;&gt;Node16</title>
<path fill="none" stroke="#9a32cd" stroke-dasharray="5,2" d="M246.07,-259.92C255.74,-261.12 265.65,-262.35 275,-263.5 341.2,-271.67 416.55,-280.89 470.72,-287.5"/>
<polygon fill="#9a32cd" stroke="#9a32cd" points="246.47,-256.44 236.11,-258.68 245.61,-263.39 246.47,-256.44"/>
<text text-anchor="middle" x="359" y="-287.5" font-family="Helvetica,sans-Serif" font-size="10.00"> ptr</text>
</g>
<!-- Node17&#45;&gt;Node23 -->
<g id="edge29" class="edge">
<title>Node17&#45;&gt;Node23</title>
<path fill="none" stroke="orange" stroke-dasharray="5,2" d="M246.36,-253.14C419.95,-255.01 923.95,-260.44 1124.63,-262.6"/>
<polygon fill="orange" stroke="orange" points="246.18,-249.64 236.14,-253.03 246.1,-256.64 246.18,-249.64"/>
<text text-anchor="start" x="652" y="-273.5" font-family="Helvetica,sans-Serif" font-size="10.00"> &lt; DataObjectIdentifierType,</text>
<text text-anchor="middle" x="721.5" y="-262.5" font-family="Helvetica,sans-Serif" font-size="10.00"> bool &gt;</text>
</g>
<!-- Node17&#45;&gt;Node28 -->
<g id="edge40" class="edge">
<title>Node17&#45;&gt;Node28</title>
<path fill="none" stroke="orange" stroke-dasharray="5,2" d="M229.01,-240.11C282.66,-224.86 377.97,-199.1 461,-183.5 608.04,-155.88 647.13,-164.26 795,-141.5 870.91,-129.82 888.65,-118.83 965,-110.5 1017.99,-104.72 1077.8,-102.45 1124.89,-101.63"/>
<polygon fill="orange" stroke="orange" points="227.83,-236.81 219.17,-242.92 229.75,-243.54 227.83,-236.81"/>
<text text-anchor="start" x="652" y="-173.5" font-family="Helvetica,sans-Serif" font-size="10.00"> &lt; DataObjectIdentifierType,</text>
<text text-anchor="middle" x="721.5" y="-162.5" font-family="Helvetica,sans-Serif" font-size="10.00"> DataObjectPointer &gt;</text>
</g>
<!-- Node18 -->
<g id="node18" class="node">
<title>Node18</title>
<g id="a_node18"><a xlink:title=" ">
<polygon fill="white" stroke="#bfbfbf" points="0,-195 0,-214 29,-214 29,-195 0,-195"/>
<text text-anchor="middle" x="14.5" y="-202" font-family="Helvetica,sans-Serif" font-size="10.00">K</text>
</a>
</g>
</g>
<!-- Node18&#45;&gt;Node17 -->
<g id="edge17" class="edge">
<title>Node18&#45;&gt;Node17</title>
<path fill="none" stroke="#9a32cd" stroke-dasharray="5,2" d="M38.74,-211.1C67.82,-219.36 117.82,-233.56 151.02,-242.99"/>
<polygon fill="#9a32cd" stroke="#9a32cd" points="39.62,-207.71 29.04,-208.35 37.71,-214.45 39.62,-207.71"/>
<text text-anchor="middle" x="71.5" y="-230.5" font-family="Helvetica,sans-Serif" font-size="10.00"> keys</text>
</g>
<!-- Node22 -->
<g id="node22" class="node">
<title>Node22</title>
<g id="a_node22"><a xlink:title="STL class.">
<polygon fill="white" stroke="#bfbfbf" points="318,-124 318,-143 400,-143 400,-124 318,-124"/>
<text text-anchor="middle" x="359" y="-131" font-family="Helvetica,sans-Serif" font-size="10.00">std::set&lt; K &gt;</text>
</a>
</g>
</g>
<!-- Node18&#45;&gt;Node22 -->
<g id="edge26" class="edge">
<title>Node18&#45;&gt;Node22</title>
<path fill="none" stroke="#9a32cd" stroke-dasharray="5,2" d="M39.05,-199.57C84.61,-190.05 187.99,-168.46 275,-150.5 288.97,-147.62 304.27,-144.48 317.89,-141.69"/>
<polygon fill="#9a32cd" stroke="#9a32cd" points="38.08,-196.2 29,-201.67 39.51,-203.05 38.08,-196.2"/>
<text text-anchor="middle" x="71.5" y="-200.5" font-family="Helvetica,sans-Serif" font-size="10.00"> keys</text>
</g>
<!-- Node19&#45;&gt;Node16 -->
<g id="edge19" class="edge">
<title>Node19&#45;&gt;Node16</title>
<path fill="none" stroke="orange" stroke-dasharray="5,2" d="M254.85,-319.15C316.62,-314.32 407.3,-307.23 470.69,-302.27"/>
<polygon fill="orange" stroke="orange" points="254.51,-315.67 244.82,-319.94 255.06,-322.65 254.51,-315.67"/>
<text text-anchor="middle" x="359" y="-320.5" font-family="Helvetica,sans-Serif" font-size="10.00"> &lt; MetaDataDictionaryMapType &gt;</text>
</g>
<!-- Node20&#45;&gt;Node7 -->
<g id="edge43" class="edge">
<title>Node20&#45;&gt;Node7</title>
<path fill="none" stroke="#9a32cd" stroke-dasharray="5,2" d="M936.19,-384.85C982.05,-383.06 1048.94,-379.46 1107,-372.5 1262.55,-353.85 1302.18,-349.15 1454,-310.5 1468.56,-306.79 1484.5,-301.56 1497.38,-297.03"/>
<polygon fill="#9a32cd" stroke="#9a32cd" points="936.02,-381.36 926.16,-385.23 936.29,-388.35 936.02,-381.36"/>
<text text-anchor="middle" x="1209.5" y="-373.5" font-family="Helvetica,sans-Serif" font-size="10.00"> m_OutputInformationMTime</text>
</g>
<!-- Node20&#45;&gt;Node8 -->
<g id="edge21" class="edge">
<title>Node20&#45;&gt;Node8</title>
<path fill="none" stroke="#9a32cd" stroke-dasharray="5,2" d="M919.79,-373.82C933.92,-369.5 950.08,-364.91 965,-361.5 1027.32,-347.24 1044.73,-352.98 1107,-338.5 1132.3,-332.62 1160.53,-323.81 1180.77,-317.08"/>
<polygon fill="#9a32cd" stroke="#9a32cd" points="918.42,-370.58 909.91,-376.89 920.5,-377.26 918.42,-370.58"/>
<text text-anchor="middle" x="1036" y="-364.5" font-family="Helvetica,sans-Serif" font-size="10.00"> m_MTime</text>
</g>
<!-- Node21&#45;&gt;Node7 -->
<g id="edge23" class="edge">
<title>Node21&#45;&gt;Node7</title>
<path fill="none" stroke="#9a32cd" stroke-dasharray="5,2" d="M1294.4,-191.88C1342.35,-203.37 1402.92,-220.57 1454,-243.5 1475,-252.92 1497.05,-268.04 1510.42,-277.87"/>
<polygon fill="#9a32cd" stroke="#9a32cd" points="1294.91,-188.4 1284.37,-189.51 1293.3,-195.22 1294.91,-188.4"/>
<text text-anchor="middle" x="1383" y="-246.5" font-family="Helvetica,sans-Serif" font-size="10.00"> m_RequiredInputNames</text>
</g>
<!-- Node22&#45;&gt;Node21 -->
<g id="edge25" class="edge">
<title>Node22&#45;&gt;Node21</title>
<path fill="none" stroke="orange" stroke-dasharray="5,2" d="M410.33,-132.82C467.81,-132.07 564.68,-130.93 648,-130.5 713.33,-130.16 729.75,-127.16 795,-130.5 934.21,-137.62 968.45,-147.21 1107,-162.5 1113.97,-163.27 1121.2,-164.09 1128.45,-164.92"/>
<polygon fill="orange" stroke="orange" points="410.02,-129.32 400.07,-132.95 410.11,-136.32 410.02,-129.32"/>
<text text-anchor="middle" x="721.5" y="-133.5" font-family="Helvetica,sans-Serif" font-size="10.00"> &lt; DataObjectIdentifierType &gt;</text>
</g>
<!-- Node23&#45;&gt;Node7 -->
<g id="edge27" class="edge">
<title>Node23&#45;&gt;Node7</title>
<path fill="none" stroke="#9a32cd" stroke-dasharray="5,2" d="M1304.24,-258.5C1349.71,-257.63 1404.96,-258.89 1454,-266.5 1468.85,-268.8 1484.94,-273.56 1497.84,-277.97"/>
<polygon fill="#9a32cd" stroke="#9a32cd" points="1304.02,-255 1294.1,-258.73 1304.18,-262 1304.02,-255"/>
<text text-anchor="start" x="1312" y="-280.5" font-family="Helvetica,sans-Serif" font-size="10.00"> m_CachedInputReleaseData</text>
<text text-anchor="middle" x="1383" y="-269.5" font-family="Helvetica,sans-Serif" font-size="10.00">Flags</text>
</g>
<!-- Node24&#45;&gt;Node7 -->
<g id="edge30" class="edge">
<title>Node24&#45;&gt;Node7</title>
<path fill="none" stroke="#9a32cd" stroke-dasharray="5,2" d="M798.59,-424.96C908.65,-423.1 1118.35,-415.49 1294,-385.5 1366.7,-373.09 1388.12,-374.65 1454,-341.5 1477.37,-329.74 1500.49,-309.41 1513.14,-297.33"/>
<polygon fill="#9a32cd" stroke="#9a32cd" points="798.52,-421.46 788.57,-425.12 798.63,-428.46 798.52,-421.46"/>
<text text-anchor="middle" x="1036" y="-422.5" font-family="Helvetica,sans-Serif" font-size="10.00"> m_Progress</text>
</g>
<!-- Node25 -->
<g id="node25" class="node">
<title>Node25</title>
<g id="a_node25"><a xlink:title=" ">
<polygon fill="white" stroke="#bfbfbf" points="461,-454.5 461,-484.5 630,-484.5 630,-454.5 461,-454.5"/>
<text text-anchor="start" x="469" y="-472.5" font-family="Helvetica,sans-Serif" font-size="10.00">std::vector&lt; DataObjectPointer</text>
<text text-anchor="middle" x="545.5" y="-461.5" font-family="Helvetica,sans-Serif" font-size="10.00">Map::iterator &gt;</text>
</a>
</g>
</g>
<!-- Node25&#45;&gt;Node7 -->
<g id="edge32" class="edge">
<title>Node25&#45;&gt;Node7</title>
<path fill="none" stroke="#9a32cd" stroke-dasharray="5,2" d="M640.06,-467.5C782.26,-463.24 1060.89,-450.16 1294,-410.5 1365.67,-398.31 1392.42,-415.14 1454,-376.5 1486.13,-356.34 1509.19,-315.62 1518.47,-297.09"/>
<polygon fill="#9a32cd" stroke="#9a32cd" points="639.96,-464 630.06,-467.79 640.16,-470.99 639.96,-464"/>
<text text-anchor="middle" x="1036" y="-463.5" font-family="Helvetica,sans-Serif" font-size="10.00"> m_IndexedOutputs</text>
<text text-anchor="middle" x="1036" y="-452.5" font-family="Helvetica,sans-Serif" font-size="10.00">m_IndexedInputs</text>
</g>
<!-- Node26 -->
<g id="node26" class="node">
<title>Node26</title>
<g id="a_node26"><a xlink:title="STL iterator class.">
<polygon fill="white" stroke="#bfbfbf" points="114,-495 114,-514 257,-514 257,-495 114,-495"/>
<text text-anchor="middle" x="185.5" y="-502" font-family="Helvetica,sans-Serif" font-size="10.00">std::map&lt; K, T &gt;::iterator</text>
</a>
</g>
</g>
<!-- Node26&#45;&gt;Node25 -->
<g id="edge33" class="edge">
<title>Node26&#45;&gt;Node25</title>
<path fill="none" stroke="#9a32cd" stroke-dasharray="5,2" d="M267.28,-498.44C317.83,-494.44 384.27,-488.78 443,-482.5 448.83,-481.88 454.84,-481.2 460.9,-480.49"/>
<polygon fill="#9a32cd" stroke="#9a32cd" points="266.76,-494.97 257.07,-499.25 267.31,-501.95 266.76,-494.97"/>
<text text-anchor="middle" x="359" y="-501.5" font-family="Helvetica,sans-Serif" font-size="10.00"> elements</text>
</g>
<!-- Node27&#45;&gt;Node25 -->
<g id="edge34" class="edge">
<title>Node27&#45;&gt;Node25</title>
<path fill="none" stroke="orange" stroke-dasharray="5,2" d="M244.31,-434.5C296.32,-439.97 374.81,-448.41 443,-456.5 448.82,-457.19 454.83,-457.92 460.88,-458.66"/>
<polygon fill="orange" stroke="orange" points="244.59,-431.01 234.28,-433.45 243.86,-437.97 244.59,-431.01"/>
<text text-anchor="start" x="296.5" y="-470.5" font-family="Helvetica,sans-Serif" font-size="10.00"> &lt; DataObjectPointerMap</text>
<text text-anchor="middle" x="359" y="-459.5" font-family="Helvetica,sans-Serif" font-size="10.00">::iterator &gt;</text>
</g>
<!-- Node28&#45;&gt;Node7 -->
<g id="edge36" class="edge">
<title>Node28&#45;&gt;Node7</title>
<path fill="none" stroke="#9a32cd" stroke-dasharray="5,2" d="M1304.07,-112.18C1352.76,-121.59 1410.94,-139.29 1454,-172.5 1491.06,-201.08 1512.46,-255.68 1519.95,-277.81"/>
<polygon fill="#9a32cd" stroke="#9a32cd" points="1304.62,-108.72 1294.15,-110.35 1303.35,-115.6 1304.62,-108.72"/>
<text text-anchor="middle" x="1383" y="-186.5" font-family="Helvetica,sans-Serif" font-size="10.00"> m_Outputs</text>
<text text-anchor="middle" x="1383" y="-175.5" font-family="Helvetica,sans-Serif" font-size="10.00">m_Inputs</text>
</g>
<!-- Node29 -->
<g id="node29" class="node">
<title>Node29</title>
<g id="a_node29"><a xlink:href="classitk_1_1SmartPointer.html" target="_top" xlink:title=" ">
<polygon fill="white" stroke="black" points="826.5,-42.5 826.5,-72.5 933.5,-72.5 933.5,-42.5 826.5,-42.5"/>
<text text-anchor="start" x="834.5" y="-60.5" font-family="Helvetica,sans-Serif" font-size="10.00">itk::SmartPointer&lt;</text>
<text text-anchor="middle" x="880" y="-49.5" font-family="Helvetica,sans-Serif" font-size="10.00"> Self &gt;</text>
</a>
</g>
</g>
<!-- Node29&#45;&gt;Node28 -->
<g id="edge37" class="edge">
<title>Node29&#45;&gt;Node28</title>
<path fill="none" stroke="#9a32cd" stroke-dasharray="5,2" d="M943.75,-50.72C989.49,-47.41 1052.71,-46.24 1107,-57.5 1133.7,-63.04 1162.01,-75.97 1181.93,-86.39"/>
<polygon fill="#9a32cd" stroke="#9a32cd" points="943.38,-47.24 933.68,-51.5 943.92,-54.22 943.38,-47.24"/>
<text text-anchor="middle" x="1036" y="-60.5" font-family="Helvetica,sans-Serif" font-size="10.00"> elements</text>
</g>
<!-- Node30 -->
<g id="node30" class="node">
<title>Node30</title>
<g id="a_node30"><a xlink:href="classitk_1_1SmartPointer.html" target="_top" xlink:title="Implements transparent reference counting.">
<polygon fill="white" stroke="black" points="492,-18.5 492,-48.5 599,-48.5 599,-18.5 492,-18.5"/>
<text text-anchor="start" x="500" y="-36.5" font-family="Helvetica,sans-Serif" font-size="10.00">itk::SmartPointer&lt;</text>
<text text-anchor="middle" x="545.5" y="-25.5" font-family="Helvetica,sans-Serif" font-size="10.00"> TObjectType &gt;</text>
</a>
</g>
</g>
<!-- Node30&#45;&gt;Node29 -->
<g id="edge38" class="edge">
<title>Node30&#45;&gt;Node29</title>
<path fill="none" stroke="orange" stroke-dasharray="5,2" d="M609.35,-38.04C672.08,-42.56 767.39,-49.44 826.29,-53.7"/>
<polygon fill="orange" stroke="orange" points="609.41,-34.53 599.19,-37.3 608.91,-41.51 609.41,-34.53"/>
<text text-anchor="middle" x="721.5" y="-54.5" font-family="Helvetica,sans-Serif" font-size="10.00"> &lt; Self &gt;</text>
</g>
<!-- Node31 -->
<g id="node31" class="node">
<title>Node31</title>
<g id="a_node31"><a xlink:href="classitk_1_1SmartPointer.html" target="_top" xlink:title=" ">
<polygon fill="white" stroke="black" points="965,-0.5 965,-30.5 1107,-30.5 1107,-0.5 965,-0.5"/>
<text text-anchor="start" x="973" y="-18.5" font-family="Helvetica,sans-Serif" font-size="10.00">itk::SmartPointer&lt;</text>
<text text-anchor="middle" x="1036" y="-7.5" font-family="Helvetica,sans-Serif" font-size="10.00"> itk::MultiThreaderBase &gt;</text>
</a>
</g>
</g>
<!-- Node30&#45;&gt;Node31 -->
<g id="edge42" class="edge">
<title>Node30&#45;&gt;Node31</title>
<path fill="none" stroke="orange" stroke-dasharray="5,2" d="M609.28,-28.77C622.08,-27.92 635.47,-27.11 648,-26.5 758.61,-21.12 887.13,-18.11 964.7,-16.64"/>
<polygon fill="orange" stroke="orange" points="608.9,-25.29 599.16,-29.46 609.37,-32.27 608.9,-25.29"/>
<text text-anchor="middle" x="721.5" y="-29.5" font-family="Helvetica,sans-Serif" font-size="10.00"> &lt; itk::MultiThreaderBase &gt;</text>
</g>
<!-- Node31&#45;&gt;Node7 -->
<g id="edge41" class="edge">
<title>Node31&#45;&gt;Node7</title>
<path fill="none" stroke="#9a32cd" stroke-dasharray="5,2" d="M1117.51,-11.94C1210.18,-12.31 1361.47,-27.26 1454,-111.5 1505.45,-158.34 1519.01,-248.3 1522.15,-277.84"/>
<polygon fill="#9a32cd" stroke="#9a32cd" points="1117.34,-8.44 1107.34,-11.96 1117.35,-15.44 1117.34,-8.44"/>
<text text-anchor="middle" x="1209.5" y="-35.5" font-family="Helvetica,sans-Serif" font-size="10.00"> m_MultiThreader</text>
</g>
<!-- Node32&#45;&gt;Node6 -->
<g id="edge44" class="edge">
<title>Node32&#45;&gt;Node6</title>
<path fill="none" stroke="orange" stroke-dasharray="5,2" d="M1768.37,-264.47C1797.08,-267.55 1829.51,-271.33 1859,-275.5 1876.24,-277.94 1895,-281.05 1911.79,-283.99"/>
<polygon fill="orange" stroke="orange" points="1768.69,-260.99 1758.38,-263.42 1767.96,-267.95 1768.69,-260.99"/>
<text text-anchor="middle" x="1817.5" y="-278.5" font-family="Helvetica,sans-Serif" font-size="10.00"> &lt; TInputMesh &gt;</text>
</g>
<!-- Node33 -->
<g id="node33" class="node">
<title>Node33</title>
<g id="a_node33"><a xlink:href="classitk_1_1MeshToMeshFilter.html" target="_top" xlink:title="MeshToMeshFilter is the base class for all process objects that output mesh data, and require mesh da...">
<polygon fill="white" stroke="black" points="1880.5,-226.5 1880.5,-256.5 2047.5,-256.5 2047.5,-226.5 1880.5,-226.5"/>
<text text-anchor="start" x="1888.5" y="-244.5" font-family="Helvetica,sans-Serif" font-size="10.00">itk::MeshToMeshFilter</text>
<text text-anchor="middle" x="1964" y="-233.5" font-family="Helvetica,sans-Serif" font-size="10.00">&lt; TInputMesh, TOutputMesh &gt;</text>
</a>
</g>
</g>
<!-- Node32&#45;&gt;Node33 -->
<g id="edge47" class="edge">
<title>Node32&#45;&gt;Node33</title>
<path fill="none" stroke="midnightblue" d="M1768.35,-252.06C1803.72,-250.14 1845.03,-247.9 1880.47,-245.98"/>
<polygon fill="midnightblue" stroke="midnightblue" points="1767.86,-248.58 1758.07,-252.62 1768.24,-255.57 1767.86,-248.58"/>
</g>
<!-- Node33&#45;&gt;Node5 -->
<g id="edge46" class="edge">
<title>Node33&#45;&gt;Node5</title>
<path fill="none" stroke="orange" stroke-dasharray="5,2" d="M2057.62,-254.11C2113.94,-261.78 2185.09,-271.47 2238.7,-278.77"/>
<polygon fill="orange" stroke="orange" points="2058.03,-250.64 2047.65,-252.75 2057.08,-257.57 2058.03,-250.64"/>
<text text-anchor="middle" x="2142" y="-278.5" font-family="Helvetica,sans-Serif" font-size="10.00"> &lt; TInputMesh, TInputMesh &gt;</text>
</g>
<!-- Node34 -->
<g id="node34" class="node">
<title>Node34</title>
<g id="a_node34"><a xlink:href="classitk_1_1QuadEdgeMeshToQuadEdgeMeshFilter.html" target="_top" xlink:title="Duplicates the content of a Mesh.">
<polygon fill="white" stroke="black" points="2233,-214 2233,-255 2404,-255 2404,-214 2233,-214"/>
<text text-anchor="start" x="2241" y="-243" font-family="Helvetica,sans-Serif" font-size="10.00">itk::QuadEdgeMeshToQuadEdge</text>
<text text-anchor="start" x="2241" y="-232" font-family="Helvetica,sans-Serif" font-size="10.00">MeshFilter&lt; TInputMesh,</text>
<text text-anchor="middle" x="2318.5" y="-221" font-family="Helvetica,sans-Serif" font-size="10.00"> TOutputMesh &gt;</text>
</a>
</g>
</g>
<!-- Node33&#45;&gt;Node34 -->
<g id="edge49" class="edge">
<title>Node33&#45;&gt;Node34</title>
<path fill="none" stroke="midnightblue" d="M2057.96,-239.65C2112.22,-238.58 2180.17,-237.23 2232.92,-236.18"/>
<polygon fill="midnightblue" stroke="midnightblue" points="2057.57,-236.16 2047.65,-239.86 2057.71,-243.16 2057.57,-236.16"/>
</g>
<!-- Node34&#45;&gt;Node4 -->
<g id="edge48" class="edge">
<title>Node34&#45;&gt;Node4</title>
<path fill="none" stroke="orange" stroke-dasharray="5,2" d="M2414.2,-241.78C2467.7,-245.9 2534.03,-251 2585.8,-254.98"/>
<polygon fill="orange" stroke="orange" points="2414.26,-238.28 2404.02,-241 2413.72,-245.26 2414.26,-238.28"/>
<text text-anchor="middle" x="2495" y="-257.5" font-family="Helvetica,sans-Serif" font-size="10.00"> &lt; TInputMesh, TInputMesh &gt;</text>
</g>
<!-- Node35&#45;&gt;Node3 -->
<g id="edge50" class="edge">
<title>Node35&#45;&gt;Node3</title>
<path fill="none" stroke="orange" stroke-dasharray="5,2" d="M2967.48,-244.13C3020.78,-248.02 3087.5,-252.88 3138.89,-256.62"/>
<polygon fill="orange" stroke="orange" points="2967.58,-240.63 2957.35,-243.39 2967.07,-247.61 2967.58,-240.63"/>
<text text-anchor="middle" x="3048" y="-258.5" font-family="Helvetica,sans-Serif" font-size="10.00"> &lt; TInputMesh, TInputMesh &gt;</text>
</g>
<!-- Node36&#45;&gt;Node2 -->
<g id="edge52" class="edge">
<title>Node36&#45;&gt;Node2</title>
<path fill="none" stroke="orange" stroke-dasharray="5,2" d="M3537.59,-245.54C3591.37,-249.19 3656.57,-253.62 3708.76,-257.17"/>
<polygon fill="orange" stroke="orange" points="3537.55,-242.03 3527.34,-244.84 3537.08,-249.01 3537.55,-242.03"/>
<text text-anchor="middle" x="3618" y="-258.5" font-family="Helvetica,sans-Serif" font-size="10.00"> &lt; TInputMesh, TInputMesh &gt;</text>
</g>
</g>
</svg>
