<?xml version="1.0" encoding="UTF-8" standalone="no"?>
<!DOCTYPE svg PUBLIC "-//W3C//DTD SVG 1.1//EN"
 "http://www.w3.org/Graphics/SVG/1.1/DTD/svg11.dtd">
<!-- Generated by graphviz version 2.43.0 (0)
 -->
<!-- Title: itk::BoundingBox&lt; TPointIdentifier, VPointDimension, TCoordinate, TPointsContainer &gt; Pages: 1 -->
<svg width="187pt" height="162pt"
 viewBox="0.00 0.00 187.00 162.00" xmlns="http://www.w3.org/2000/svg" xmlns:xlink="http://www.w3.org/1999/xlink">
<g id="graph0" class="graph" transform="scale(1 1) rotate(0) translate(4 158)">
<title>itk::BoundingBox&lt; TPointIdentifier, VPointDimension, TCoordinate, TPointsContainer &gt;</title>
<polygon fill="white" stroke="transparent" points="-4,4 -4,-158 183,-158 183,4 -4,4"/>
<!-- Node1 -->
<g id="node1" class="node">
<title>Node1</title>
<g id="a_node1"><a xlink:title="Represent and compute information about bounding boxes.">
<polygon fill="#bfbfbf" stroke="black" points="0,-0.5 0,-41.5 179,-41.5 179,-0.5 0,-0.5"/>
<text text-anchor="start" x="8" y="-29.5" font-family="Helvetica,sans-Serif" font-size="10.00">itk::BoundingBox&lt; TPoint</text>
<text text-anchor="start" x="8" y="-18.5" font-family="Helvetica,sans-Serif" font-size="10.00">Identifier, VPointDimension,</text>
<text text-anchor="middle" x="89.5" y="-7.5" font-family="Helvetica,sans-Serif" font-size="10.00"> TCoordinate, TPointsContainer &gt;</text>
</a>
</g>
</g>
<!-- Node2 -->
<g id="node2" class="node">
<title>Node2</title>
<g id="a_node2"><a xlink:href="classitk_1_1Object.html" target="_top" xlink:title="Base class for most ITK classes.">
<polygon fill="white" stroke="black" points="56,-78.5 56,-97.5 123,-97.5 123,-78.5 56,-78.5"/>
<text text-anchor="middle" x="89.5" y="-85.5" font-family="Helvetica,sans-Serif" font-size="10.00">itk::Object</text>
</a>
</g>
</g>
<!-- Node2&#45;&gt;Node1 -->
<g id="edge1" class="edge">
<title>Node2&#45;&gt;Node1</title>
<path fill="none" stroke="midnightblue" d="M89.5,-68.04C89.5,-59.71 89.5,-49.94 89.5,-41.54"/>
<polygon fill="midnightblue" stroke="midnightblue" points="86,-68.23 89.5,-78.23 93,-68.23 86,-68.23"/>
</g>
<!-- Node3 -->
<g id="node3" class="node">
<title>Node3</title>
<g id="a_node3"><a xlink:href="classitk_1_1LightObject.html" target="_top" xlink:title="Light weight base class for most itk classes.">
<polygon fill="white" stroke="black" points="44,-134.5 44,-153.5 135,-153.5 135,-134.5 44,-134.5"/>
<text text-anchor="middle" x="89.5" y="-141.5" font-family="Helvetica,sans-Serif" font-size="10.00">itk::LightObject</text>
</a>
</g>
</g>
<!-- Node3&#45;&gt;Node2 -->
<g id="edge2" class="edge">
<title>Node3&#45;&gt;Node2</title>
<path fill="none" stroke="midnightblue" d="M89.5,-123.8C89.5,-114.91 89.5,-104.78 89.5,-97.75"/>
<polygon fill="midnightblue" stroke="midnightblue" points="86,-124.08 89.5,-134.08 93,-124.08 86,-124.08"/>
</g>
</g>
</svg>
