<?xml version="1.0" encoding="UTF-8" standalone="no"?>
<!DOCTYPE svg PUBLIC "-//W3C//DTD SVG 1.1//EN"
 "http://www.w3.org/Graphics/SVG/1.1/DTD/svg11.dtd">
<!-- Generated by graphviz version 2.43.0 (0)
 -->
<!-- Title: itk::SingleValuedNonLinearVnlOptimizerv4 Pages: 1 -->
<svg width="2128pt" height="476pt"
 viewBox="0.00 0.00 2128.00 475.50" xmlns="http://www.w3.org/2000/svg" xmlns:xlink="http://www.w3.org/1999/xlink">
<g id="graph0" class="graph" transform="scale(1 1) rotate(0) translate(4 471.5)">
<title>itk::SingleValuedNonLinearVnlOptimizerv4</title>
<polygon fill="white" stroke="transparent" points="-4,4 -4,-471.5 2124,-471.5 2124,4 -4,4"/>
<!-- Node1 -->
<g id="node1" class="node">
<title>Node1</title>
<g id="a_node1"><a xlink:title="This is a base for the ITKv4 Optimization methods using the vnl library.">
<polygon fill="#bfbfbf" stroke="black" points="1972,-85.5 1972,-115.5 2120,-115.5 2120,-85.5 1972,-85.5"/>
<text text-anchor="start" x="1980" y="-103.5" font-family="Helvetica,sans-Serif" font-size="10.00">itk::SingleValuedNonLinear</text>
<text text-anchor="middle" x="2046" y="-92.5" font-family="Helvetica,sans-Serif" font-size="10.00">VnlOptimizerv4</text>
</a>
</g>
</g>
<!-- Node2 -->
<g id="node2" class="node">
<title>Node2</title>
<g id="a_node2"><a xlink:href="classitk_1_1ObjectToObjectOptimizerBaseTemplate.html" target="_top" xlink:title=" ">
<polygon fill="white" stroke="black" points="1778,-193.5 1778,-223.5 1935,-223.5 1935,-193.5 1778,-193.5"/>
<text text-anchor="start" x="1786" y="-211.5" font-family="Helvetica,sans-Serif" font-size="10.00">itk::ObjectToObjectOptimizer</text>
<text text-anchor="middle" x="1856.5" y="-200.5" font-family="Helvetica,sans-Serif" font-size="10.00">BaseTemplate&lt; double &gt;</text>
</a>
</g>
</g>
<!-- Node2&#45;&gt;Node1 -->
<g id="edge1" class="edge">
<title>Node2&#45;&gt;Node1</title>
<path fill="none" stroke="midnightblue" d="M1892.43,-188.38C1929.09,-167.26 1985.88,-134.55 2018.85,-115.56"/>
<polygon fill="midnightblue" stroke="midnightblue" points="1890.49,-185.46 1883.57,-193.48 1893.98,-191.52 1890.49,-185.46"/>
</g>
<!-- Node3 -->
<g id="node3" class="node">
<title>Node3</title>
<g id="a_node3"><a xlink:href="classitk_1_1Object.html" target="_top" xlink:title="Base class for most ITK classes.">
<polygon fill="white" stroke="black" points="1233,-358 1233,-377 1300,-377 1300,-358 1233,-358"/>
<text text-anchor="middle" x="1266.5" y="-365" font-family="Helvetica,sans-Serif" font-size="10.00">itk::Object</text>
</a>
</g>
</g>
<!-- Node3&#45;&gt;Node2 -->
<g id="edge2" class="edge">
<title>Node3&#45;&gt;Node2</title>
<path fill="none" stroke="midnightblue" d="M1310.07,-367.68C1385.02,-366.93 1544.74,-360.51 1673,-322.5 1740.7,-302.44 1807.91,-249.86 1838.45,-223.72"/>
<polygon fill="midnightblue" stroke="midnightblue" points="1310.04,-364.18 1300.07,-367.75 1310.09,-371.18 1310.04,-364.18"/>
</g>
<!-- Node29 -->
<g id="node29" class="node">
<title>Node29</title>
<g id="a_node29"><a xlink:href="classitk_1_1ObjectToObjectOptimizerBaseTemplate.html" target="_top" xlink:title="Abstract base for object&#45;to&#45;object optimizers.">
<polygon fill="white" stroke="black" points="1470,-272 1470,-313 1673,-313 1673,-272 1470,-272"/>
<text text-anchor="start" x="1478" y="-301" font-family="Helvetica,sans-Serif" font-size="10.00">itk::ObjectToObjectOptimizer</text>
<text text-anchor="start" x="1478" y="-290" font-family="Helvetica,sans-Serif" font-size="10.00">BaseTemplate&lt; TInternalComputation</text>
<text text-anchor="middle" x="1571.5" y="-279" font-family="Helvetica,sans-Serif" font-size="10.00">ValueType &gt;</text>
</a>
</g>
</g>
<!-- Node3&#45;&gt;Node29 -->
<g id="edge36" class="edge">
<title>Node3&#45;&gt;Node29</title>
<path fill="none" stroke="midnightblue" d="M1310.11,-356.95C1355.97,-345.6 1430.03,-327.27 1487.47,-313.05"/>
<polygon fill="midnightblue" stroke="midnightblue" points="1309.08,-353.6 1300.21,-359.4 1310.76,-360.4 1309.08,-353.6"/>
</g>
<!-- Node4 -->
<g id="node4" class="node">
<title>Node4</title>
<g id="a_node4"><a xlink:href="classitk_1_1LightObject.html" target="_top" xlink:title="Light weight base class for most itk classes.">
<polygon fill="white" stroke="black" points="911.5,-444 911.5,-463 1002.5,-463 1002.5,-444 911.5,-444"/>
<text text-anchor="middle" x="957" y="-451" font-family="Helvetica,sans-Serif" font-size="10.00">itk::LightObject</text>
</a>
</g>
</g>
<!-- Node4&#45;&gt;Node3 -->
<g id="edge3" class="edge">
<title>Node4&#45;&gt;Node3</title>
<path fill="none" stroke="midnightblue" d="M1012.73,-449.55C1058.06,-445.04 1123.6,-435.65 1178,-416.5 1205.92,-406.67 1235.34,-388.29 1251.96,-377.05"/>
<polygon fill="midnightblue" stroke="midnightblue" points="1012.15,-446.09 1002.53,-450.51 1012.81,-453.06 1012.15,-446.09"/>
</g>
<!-- Node5 -->
<g id="node5" class="node">
<title>Node5</title>
<g id="a_node5"><a xlink:title=" ">
<polygon fill="white" stroke="#bfbfbf" points="610.5,-448 610.5,-467 717.5,-467 717.5,-448 610.5,-448"/>
<text text-anchor="middle" x="664" y="-455" font-family="Helvetica,sans-Serif" font-size="10.00">std::atomic&lt; int &gt;</text>
</a>
</g>
</g>
<!-- Node5&#45;&gt;Node4 -->
<g id="edge4" class="edge">
<title>Node5&#45;&gt;Node4</title>
<path fill="none" stroke="#9a32cd" stroke-dasharray="5,2" d="M727.73,-456.64C783.03,-455.88 862.23,-454.79 911.32,-454.11"/>
<polygon fill="#9a32cd" stroke="#9a32cd" points="727.65,-453.14 717.7,-456.78 727.75,-460.14 727.65,-453.14"/>
<text text-anchor="middle" x="815.5" y="-458.5" font-family="Helvetica,sans-Serif" font-size="10.00"> m_ReferenceCount</text>
</g>
<!-- Node6 -->
<g id="node6" class="node">
<title>Node6</title>
<g id="a_node6"><a xlink:title="STL class.">
<polygon fill="white" stroke="#bfbfbf" points="241.5,-368 241.5,-387 341.5,-387 341.5,-368 241.5,-368"/>
<text text-anchor="middle" x="291.5" y="-375" font-family="Helvetica,sans-Serif" font-size="10.00">std::atomic&lt; T &gt;</text>
</a>
</g>
</g>
<!-- Node6&#45;&gt;Node5 -->
<g id="edge5" class="edge">
<title>Node6&#45;&gt;Node5</title>
<path fill="none" stroke="orange" stroke-dasharray="5,2" d="M346.84,-389.23C420.58,-405.15 550.91,-433.3 618.91,-447.98"/>
<polygon fill="orange" stroke="orange" points="347.34,-385.76 336.82,-387.07 345.86,-392.6 347.34,-385.76"/>
<text text-anchor="middle" x="477" y="-436.5" font-family="Helvetica,sans-Serif" font-size="10.00"> &lt; int &gt;</text>
</g>
<!-- Node15 -->
<g id="node15" class="node">
<title>Node15</title>
<g id="a_node15"><a xlink:href="classitk_1_1TimeStamp.html" target="_top" xlink:title="Generate a unique, increasing time value.">
<polygon fill="white" stroke="black" points="769.5,-360 769.5,-379 861.5,-379 861.5,-360 769.5,-360"/>
<text text-anchor="middle" x="815.5" y="-367" font-family="Helvetica,sans-Serif" font-size="10.00">itk::TimeStamp</text>
</a>
</g>
</g>
<!-- Node6&#45;&gt;Node15 -->
<g id="edge17" class="edge">
<title>Node6&#45;&gt;Node15</title>
<path fill="none" stroke="#9a32cd" stroke-dasharray="5,2" d="M351.75,-376.59C457.13,-374.98 674.91,-371.64 769.26,-370.19"/>
<polygon fill="#9a32cd" stroke="#9a32cd" points="351.55,-373.09 341.61,-376.75 351.66,-380.09 351.55,-373.09"/>
<text text-anchor="middle" x="477" y="-379.5" font-family="Helvetica,sans-Serif" font-size="10.00"> m_GlobalTimeStamp</text>
</g>
<!-- Node7 -->
<g id="node7" class="node">
<title>Node7</title>
<g id="a_node7"><a xlink:title=" ">
<polygon fill="white" stroke="#bfbfbf" points="47,-315 47,-334 76,-334 76,-315 47,-315"/>
<text text-anchor="middle" x="61.5" y="-322" font-family="Helvetica,sans-Serif" font-size="10.00">T</text>
</a>
</g>
</g>
<!-- Node7&#45;&gt;Node6 -->
<g id="edge6" class="edge">
<title>Node7&#45;&gt;Node6</title>
<path fill="none" stroke="#9a32cd" stroke-dasharray="5,2" d="M85.82,-331.91C101.36,-336.71 122.29,-342.89 141,-347.5 174.29,-355.7 212.15,-363.28 241.45,-368.77"/>
<polygon fill="#9a32cd" stroke="#9a32cd" points="86.61,-328.49 76.02,-328.85 84.52,-335.17 86.61,-328.49"/>
<text text-anchor="middle" x="165.5" y="-361.5" font-family="Helvetica,sans-Serif" font-size="10.00"> ptr</text>
</g>
<!-- Node12 -->
<g id="node12" class="node">
<title>Node12</title>
<g id="a_node12"><a xlink:title="STL class.">
<polygon fill="white" stroke="#bfbfbf" points="241,-292 241,-311 342,-311 342,-292 241,-292"/>
<text text-anchor="middle" x="291.5" y="-299" font-family="Helvetica,sans-Serif" font-size="10.00">std::map&lt; K, T &gt;</text>
</a>
</g>
</g>
<!-- Node7&#45;&gt;Node12 -->
<g id="edge13" class="edge">
<title>Node7&#45;&gt;Node12</title>
<path fill="none" stroke="#9a32cd" stroke-dasharray="5,2" d="M86.4,-321.63C101.95,-319.79 122.66,-317.41 141,-315.5 174.32,-312.03 211.86,-308.52 240.98,-305.88"/>
<polygon fill="#9a32cd" stroke="#9a32cd" points="85.62,-318.2 76.1,-322.85 86.45,-325.15 85.62,-318.2"/>
<text text-anchor="middle" x="165.5" y="-318.5" font-family="Helvetica,sans-Serif" font-size="10.00"> elements</text>
</g>
<!-- Node14 -->
<g id="node14" class="node">
<title>Node14</title>
<g id="a_node14"><a xlink:title="STL class.">
<polygon fill="white" stroke="#bfbfbf" points="232.5,-330 232.5,-349 350.5,-349 350.5,-330 232.5,-330"/>
<text text-anchor="middle" x="291.5" y="-337" font-family="Helvetica,sans-Serif" font-size="10.00">std::shared_ptr&lt; T &gt;</text>
</a>
</g>
</g>
<!-- Node7&#45;&gt;Node14 -->
<g id="edge15" class="edge">
<title>Node7&#45;&gt;Node14</title>
<path fill="none" stroke="#9a32cd" stroke-dasharray="5,2" d="M86.07,-326.05C120.32,-328.3 184.91,-332.55 232.36,-335.67"/>
<polygon fill="#9a32cd" stroke="#9a32cd" points="86.29,-322.56 76.08,-325.39 85.83,-329.54 86.29,-322.56"/>
<text text-anchor="middle" x="165.5" y="-335.5" font-family="Helvetica,sans-Serif" font-size="10.00"> ptr</text>
</g>
<!-- Node25 -->
<g id="node25" class="node">
<title>Node25</title>
<g id="a_node25"><a xlink:title="STL class.">
<polygon fill="white" stroke="#bfbfbf" points="232.5,-166 232.5,-185 350.5,-185 350.5,-166 232.5,-166"/>
<text text-anchor="middle" x="291.5" y="-173" font-family="Helvetica,sans-Serif" font-size="10.00">std::unique_ptr&lt; T &gt;</text>
</a>
</g>
</g>
<!-- Node7&#45;&gt;Node25 -->
<g id="edge29" class="edge">
<title>Node7&#45;&gt;Node25</title>
<path fill="none" stroke="#9a32cd" stroke-dasharray="5,2" d="M85.74,-314.16C97.61,-308.23 111.86,-300.06 123,-290.5 132.85,-282.05 132.6,-277.4 141,-267.5 169.48,-233.91 169.94,-216.66 208,-194.5 215.49,-190.14 223.92,-186.77 232.44,-184.19"/>
<polygon fill="#9a32cd" stroke="#9a32cd" points="83.97,-311.13 76.45,-318.59 86.99,-317.44 83.97,-311.13"/>
<text text-anchor="middle" x="165.5" y="-270.5" font-family="Helvetica,sans-Serif" font-size="10.00"> ptr</text>
</g>
<!-- Node8 -->
<g id="node8" class="node">
<title>Node8</title>
<g id="a_node8"><a xlink:title="STL class.">
<polygon fill="white" stroke="#bfbfbf" points="924.5,-402 924.5,-421 989.5,-421 989.5,-402 924.5,-402"/>
<text text-anchor="middle" x="957" y="-409" font-family="Helvetica,sans-Serif" font-size="10.00">std::string</text>
</a>
</g>
</g>
<!-- Node8&#45;&gt;Node3 -->
<g id="edge7" class="edge">
<title>Node8&#45;&gt;Node3</title>
<path fill="none" stroke="#9a32cd" stroke-dasharray="5,2" d="M999.91,-407.24C1044.26,-402.52 1116.25,-394.28 1178,-384.5 1196.19,-381.62 1216.37,-377.74 1232.77,-374.42"/>
<polygon fill="#9a32cd" stroke="#9a32cd" points="999.37,-403.77 989.79,-408.3 1000.1,-410.74 999.37,-403.77"/>
<text text-anchor="middle" x="1114" y="-404.5" font-family="Helvetica,sans-Serif" font-size="10.00"> m_ObjectName</text>
</g>
<!-- Node9 -->
<g id="node9" class="node">
<title>Node9</title>
<g id="a_node9"><a xlink:title="STL class.">
<polygon fill="white" stroke="#bfbfbf" points="612,-398.5 612,-428.5 716,-428.5 716,-398.5 612,-398.5"/>
<text text-anchor="start" x="620" y="-416.5" font-family="Helvetica,sans-Serif" font-size="10.00">std::basic_string&lt;</text>
<text text-anchor="middle" x="664" y="-405.5" font-family="Helvetica,sans-Serif" font-size="10.00"> char &gt;</text>
</a>
</g>
</g>
<!-- Node9&#45;&gt;Node8 -->
<g id="edge8" class="edge">
<title>Node9&#45;&gt;Node8</title>
<path fill="none" stroke="midnightblue" d="M726.22,-413.08C786.76,-412.66 877.01,-412.04 924.37,-411.72"/>
<polygon fill="midnightblue" stroke="midnightblue" points="726,-409.58 716.02,-413.15 726.05,-416.58 726,-409.58"/>
</g>
<!-- Node10 -->
<g id="node10" class="node">
<title>Node10</title>
<g id="a_node10"><a xlink:href="classitk_1_1MetaDataDictionary.html" target="_top" xlink:title="Provides a mechanism for storing a collection of arbitrary data types.">
<polygon fill="white" stroke="black" points="890,-315 890,-334 1024,-334 1024,-315 890,-315"/>
<text text-anchor="middle" x="957" y="-322" font-family="Helvetica,sans-Serif" font-size="10.00">itk::MetaDataDictionary</text>
</a>
</g>
</g>
<!-- Node10&#45;&gt;Node3 -->
<g id="edge9" class="edge">
<title>Node10&#45;&gt;Node3</title>
<path fill="none" stroke="#9a32cd" stroke-dasharray="5,2" d="M1034.29,-328.93C1076.8,-332.12 1130.57,-337.32 1178,-345.5 1196.37,-348.67 1216.57,-353.64 1232.93,-358.06"/>
<polygon fill="#9a32cd" stroke="#9a32cd" points="1034.52,-325.44 1024.29,-328.21 1034.01,-332.42 1034.52,-325.44"/>
<text text-anchor="middle" x="1114" y="-348.5" font-family="Helvetica,sans-Serif" font-size="10.00"> m_MetaDataDictionary</text>
</g>
<!-- Node11 -->
<g id="node11" class="node">
<title>Node11</title>
<g id="a_node11"><a xlink:title=" ">
<polygon fill="white" stroke="#bfbfbf" points="589.5,-309.5 589.5,-339.5 738.5,-339.5 738.5,-309.5 589.5,-309.5"/>
<text text-anchor="start" x="597.5" y="-327.5" font-family="Helvetica,sans-Serif" font-size="10.00">std::shared_ptr&lt; MetaData</text>
<text text-anchor="middle" x="664" y="-316.5" font-family="Helvetica,sans-Serif" font-size="10.00">DictionaryMapType &gt;</text>
</a>
</g>
</g>
<!-- Node11&#45;&gt;Node10 -->
<g id="edge10" class="edge">
<title>Node11&#45;&gt;Node10</title>
<path fill="none" stroke="#9a32cd" stroke-dasharray="5,2" d="M749.08,-324.5C793.8,-324.5 848.01,-324.5 889.73,-324.5"/>
<polygon fill="#9a32cd" stroke="#9a32cd" points="748.81,-321 738.81,-324.5 748.81,-328 748.81,-321"/>
<text text-anchor="middle" x="815.5" y="-327.5" font-family="Helvetica,sans-Serif" font-size="10.00"> m_Dictionary</text>
</g>
<!-- Node12&#45;&gt;Node11 -->
<g id="edge11" class="edge">
<title>Node12&#45;&gt;Node11</title>
<path fill="none" stroke="#9a32cd" stroke-dasharray="5,2" d="M352.2,-303.55C406.64,-305.61 489.29,-309.25 561,-314.5 570.23,-315.18 579.92,-315.99 589.5,-316.86"/>
<polygon fill="#9a32cd" stroke="#9a32cd" points="352.15,-300.04 342.03,-303.17 351.89,-307.04 352.15,-300.04"/>
<text text-anchor="middle" x="477" y="-317.5" font-family="Helvetica,sans-Serif" font-size="10.00"> ptr</text>
</g>
<!-- Node13 -->
<g id="node13" class="node">
<title>Node13</title>
<g id="a_node13"><a xlink:title=" ">
<polygon fill="white" stroke="#bfbfbf" points="47,-262 47,-281 76,-281 76,-262 47,-262"/>
<text text-anchor="middle" x="61.5" y="-269" font-family="Helvetica,sans-Serif" font-size="10.00">K</text>
</a>
</g>
</g>
<!-- Node13&#45;&gt;Node12 -->
<g id="edge12" class="edge">
<title>Node13&#45;&gt;Node12</title>
<path fill="none" stroke="#9a32cd" stroke-dasharray="5,2" d="M86.22,-274.62C122.63,-279.41 193.08,-288.68 240.95,-294.98"/>
<polygon fill="#9a32cd" stroke="#9a32cd" points="86.45,-271.12 76.08,-273.29 85.54,-278.06 86.45,-271.12"/>
<text text-anchor="middle" x="165.5" y="-290.5" font-family="Helvetica,sans-Serif" font-size="10.00"> keys</text>
</g>
<!-- Node14&#45;&gt;Node11 -->
<g id="edge14" class="edge">
<title>Node14&#45;&gt;Node11</title>
<path fill="none" stroke="orange" stroke-dasharray="5,2" d="M360.92,-336.73C425.78,-334.1 522.91,-330.17 589.42,-327.48"/>
<polygon fill="orange" stroke="orange" points="360.65,-333.24 350.8,-337.14 360.93,-340.23 360.65,-333.24"/>
<text text-anchor="middle" x="477" y="-338.5" font-family="Helvetica,sans-Serif" font-size="10.00"> &lt; MetaDataDictionaryMapType &gt;</text>
</g>
<!-- Node15&#45;&gt;Node3 -->
<g id="edge16" class="edge">
<title>Node15&#45;&gt;Node3</title>
<path fill="none" stroke="#9a32cd" stroke-dasharray="5,2" d="M871.84,-369.25C966.54,-368.83 1156.8,-367.98 1232.93,-367.65"/>
<polygon fill="#9a32cd" stroke="#9a32cd" points="871.59,-365.75 861.61,-369.3 871.62,-372.75 871.59,-365.75"/>
<text text-anchor="middle" x="957" y="-372.5" font-family="Helvetica,sans-Serif" font-size="10.00"> m_MTime</text>
</g>
<!-- Node16 -->
<g id="node16" class="node">
<title>Node16</title>
<g id="a_node16"><a xlink:href="classitk_1_1SmartPointer.html" target="_top" xlink:title=" ">
<polygon fill="white" stroke="black" points="1213,-114.5 1213,-144.5 1320,-144.5 1320,-114.5 1213,-114.5"/>
<text text-anchor="start" x="1221" y="-132.5" font-family="Helvetica,sans-Serif" font-size="10.00">itk::SmartPointer&lt;</text>
<text text-anchor="middle" x="1266.5" y="-121.5" font-family="Helvetica,sans-Serif" font-size="10.00"> Self &gt;</text>
</a>
</g>
</g>
<!-- Node16&#45;&gt;Node1 -->
<g id="edge49" class="edge">
<title>Node16&#45;&gt;Node1</title>
<path fill="none" stroke="#9a32cd" stroke-dasharray="5,2" d="M1330.29,-125.74C1338.6,-125.3 1347,-124.87 1355,-124.5 1579.81,-114.17 1846,-106.08 1971.96,-102.5"/>
<polygon fill="#9a32cd" stroke="#9a32cd" points="1330.03,-122.25 1320.24,-126.3 1330.42,-129.24 1330.03,-122.25"/>
<text text-anchor="middle" x="1725.5" y="-114.5" font-family="Helvetica,sans-Serif" font-size="10.00"> m_Command</text>
</g>
<!-- Node16&#45;&gt;Node2 -->
<g id="edge18" class="edge">
<title>Node16&#45;&gt;Node2</title>
<path fill="none" stroke="#9a32cd" stroke-dasharray="5,2" d="M1330.45,-128.4C1425.15,-128.18 1609.25,-133.38 1760,-171.5 1781.38,-176.91 1804.45,-185.76 1822.56,-193.44"/>
<polygon fill="#9a32cd" stroke="#9a32cd" points="1330.16,-124.9 1320.18,-128.44 1330.2,-131.9 1330.16,-124.9"/>
<text text-anchor="middle" x="1571.5" y="-156.5" font-family="Helvetica,sans-Serif" font-size="10.00"> m_ScalesEstimator</text>
</g>
<!-- Node16&#45;&gt;Node29 -->
<g id="edge37" class="edge">
<title>Node16&#45;&gt;Node29</title>
<path fill="none" stroke="#9a32cd" stroke-dasharray="5,2" d="M1330.2,-137.52C1380.19,-144.49 1443.24,-154.8 1452,-163.5 1482.18,-193.47 1442.19,-225.31 1470,-257.5 1474.83,-263.09 1480.61,-267.79 1486.91,-271.74"/>
<polygon fill="#9a32cd" stroke="#9a32cd" points="1330.46,-134.02 1320.07,-136.13 1329.5,-140.96 1330.46,-134.02"/>
<text text-anchor="middle" x="1403.5" y="-166.5" font-family="Helvetica,sans-Serif" font-size="10.00"> m_ScalesEstimator</text>
</g>
<!-- Node30 -->
<g id="node30" class="node">
<title>Node30</title>
<g id="a_node30"><a xlink:href="classitk_1_1SingleValuedVnlCostFunctionAdaptorv4.html" target="_top" xlink:title="This class is an Adaptor that allows to pass itk::ObjectToObjectMetricBase objects to vnl_optimizers ...">
<polygon fill="white" stroke="black" points="1503.5,-35.5 1503.5,-65.5 1639.5,-65.5 1639.5,-35.5 1503.5,-35.5"/>
<text text-anchor="start" x="1511.5" y="-53.5" font-family="Helvetica,sans-Serif" font-size="10.00">itk::SingleValuedVnlCost</text>
<text text-anchor="middle" x="1571.5" y="-42.5" font-family="Helvetica,sans-Serif" font-size="10.00">FunctionAdaptorv4</text>
</a>
</g>
</g>
<!-- Node16&#45;&gt;Node30 -->
<g id="edge48" class="edge">
<title>Node16&#45;&gt;Node30</title>
<path fill="none" stroke="#9a32cd" stroke-dasharray="5,2" d="M1299.74,-108.9C1319.73,-96.49 1343.69,-82.35 1355,-78.5 1403.03,-62.13 1460.08,-55.23 1503.41,-52.37"/>
<polygon fill="#9a32cd" stroke="#9a32cd" points="1297.8,-105.99 1291.18,-114.26 1301.51,-111.92 1297.8,-105.99"/>
<text text-anchor="middle" x="1403.5" y="-81.5" font-family="Helvetica,sans-Serif" font-size="10.00"> m_Reporter</text>
</g>
<!-- Node17 -->
<g id="node17" class="node">
<title>Node17</title>
<g id="a_node17"><a xlink:href="classitk_1_1SmartPointer.html" target="_top" xlink:title="Implements transparent reference counting.">
<polygon fill="white" stroke="black" points="903.5,-180.5 903.5,-210.5 1010.5,-210.5 1010.5,-180.5 903.5,-180.5"/>
<text text-anchor="start" x="911.5" y="-198.5" font-family="Helvetica,sans-Serif" font-size="10.00">itk::SmartPointer&lt;</text>
<text text-anchor="middle" x="957" y="-187.5" font-family="Helvetica,sans-Serif" font-size="10.00"> TObjectType &gt;</text>
</a>
</g>
</g>
<!-- Node17&#45;&gt;Node2 -->
<g id="edge20" class="edge">
<title>Node17&#45;&gt;Node2</title>
<path fill="none" stroke="#9a32cd" stroke-dasharray="5,2" d="M1020.95,-196.41C1180.96,-198.73 1602.98,-204.84 1777.87,-207.38"/>
<polygon fill="#9a32cd" stroke="#9a32cd" points="1020.84,-192.91 1010.79,-196.26 1020.74,-199.91 1020.84,-192.91"/>
<text text-anchor="middle" x="1403.5" y="-206.5" font-family="Helvetica,sans-Serif" font-size="10.00"> m_Metric</text>
</g>
<!-- Node17&#45;&gt;Node16 -->
<g id="edge19" class="edge">
<title>Node17&#45;&gt;Node16</title>
<path fill="none" stroke="orange" stroke-dasharray="5,2" d="M1020.57,-178.48C1030.39,-176.01 1040.45,-173.6 1050,-171.5 1106.45,-159.08 1121.3,-159.75 1178,-148.5 1189.28,-146.26 1201.35,-143.73 1212.82,-141.26"/>
<polygon fill="orange" stroke="orange" points="1019.68,-175.1 1010.86,-180.96 1021.41,-181.88 1019.68,-175.1"/>
<text text-anchor="middle" x="1114" y="-174.5" font-family="Helvetica,sans-Serif" font-size="10.00"> &lt; Self &gt;</text>
</g>
<!-- Node17&#45;&gt;Node29 -->
<g id="edge38" class="edge">
<title>Node17&#45;&gt;Node29</title>
<path fill="none" stroke="#9a32cd" stroke-dasharray="5,2" d="M1020.45,-212.07C1024.37,-213.2 1028.24,-214.35 1032,-215.5 1105.66,-238 1120.75,-255.09 1196,-271.5 1265.39,-286.63 1284.11,-283.12 1355,-287.5 1392.45,-289.81 1433.61,-291.08 1469.84,-291.77"/>
<polygon fill="#9a32cd" stroke="#9a32cd" points="1021.25,-208.66 1010.67,-209.28 1019.33,-215.39 1021.25,-208.66"/>
<text text-anchor="middle" x="1266.5" y="-289.5" font-family="Helvetica,sans-Serif" font-size="10.00"> m_Metric</text>
</g>
<!-- Node18 -->
<g id="node18" class="node">
<title>Node18</title>
<g id="a_node18"><a xlink:href="classitk_1_1OptimizerParameters.html" target="_top" xlink:title=" ">
<polygon fill="white" stroke="black" points="1197,-232.5 1197,-262.5 1336,-262.5 1336,-232.5 1197,-232.5"/>
<text text-anchor="start" x="1205" y="-250.5" font-family="Helvetica,sans-Serif" font-size="10.00">itk::OptimizerParameters</text>
<text text-anchor="middle" x="1266.5" y="-239.5" font-family="Helvetica,sans-Serif" font-size="10.00">&lt; double &gt;</text>
</a>
</g>
</g>
<!-- Node18&#45;&gt;Node2 -->
<g id="edge21" class="edge">
<title>Node18&#45;&gt;Node2</title>
<path fill="none" stroke="#9a32cd" stroke-dasharray="5,2" d="M1346.39,-242.27C1459.18,-234.79 1665.29,-221.12 1777.56,-213.67"/>
<polygon fill="#9a32cd" stroke="#9a32cd" points="1345.85,-238.8 1336.1,-242.95 1346.31,-245.78 1345.85,-238.8"/>
<text text-anchor="middle" x="1571.5" y="-248.5" font-family="Helvetica,sans-Serif" font-size="10.00"> m_Scales</text>
<text text-anchor="middle" x="1571.5" y="-237.5" font-family="Helvetica,sans-Serif" font-size="10.00">m_Weights</text>
</g>
<!-- Node18&#45;&gt;Node29 -->
<g id="edge39" class="edge">
<title>Node18&#45;&gt;Node29</title>
<path fill="none" stroke="#9a32cd" stroke-dasharray="5,2" d="M1346.11,-252.96C1378.96,-255.81 1417.45,-259.9 1452,-265.5 1463.14,-267.31 1474.8,-269.54 1486.28,-271.93"/>
<polygon fill="#9a32cd" stroke="#9a32cd" points="1346.37,-249.47 1336.11,-252.11 1345.78,-256.44 1346.37,-249.47"/>
<text text-anchor="middle" x="1403.5" y="-279.5" font-family="Helvetica,sans-Serif" font-size="10.00"> m_Scales</text>
<text text-anchor="middle" x="1403.5" y="-268.5" font-family="Helvetica,sans-Serif" font-size="10.00">m_Weights</text>
</g>
<!-- Node19 -->
<g id="node19" class="node">
<title>Node19</title>
<g id="a_node19"><a xlink:href="classitk_1_1Array.html" target="_top" xlink:title=" ">
<polygon fill="white" stroke="black" points="605.5,-254 605.5,-273 722.5,-273 722.5,-254 605.5,-254"/>
<text text-anchor="middle" x="664" y="-261" font-family="Helvetica,sans-Serif" font-size="10.00">itk::Array&lt; double &gt;</text>
</a>
</g>
</g>
<!-- Node19&#45;&gt;Node18 -->
<g id="edge22" class="edge">
<title>Node19&#45;&gt;Node18</title>
<path fill="none" stroke="midnightblue" d="M732.93,-266.63C831.28,-270.4 1018.98,-274.69 1178,-261.5 1184.13,-260.99 1190.49,-260.3 1196.84,-259.5"/>
<polygon fill="midnightblue" stroke="midnightblue" points="732.96,-263.13 722.83,-266.24 732.68,-270.13 732.96,-263.13"/>
</g>
<!-- Node20 -->
<g id="node20" class="node">
<title>Node20</title>
<g id="a_node20"><a xlink:title=" ">
<polygon fill="white" stroke="#bfbfbf" points="230,-254 230,-273 353,-273 353,-254 230,-254"/>
<text text-anchor="middle" x="291.5" y="-261" font-family="Helvetica,sans-Serif" font-size="10.00">vnl_vector&lt; double &gt;</text>
</a>
</g>
</g>
<!-- Node20&#45;&gt;Node19 -->
<g id="edge23" class="edge">
<title>Node20&#45;&gt;Node19</title>
<path fill="none" stroke="midnightblue" d="M363.36,-263.5C433.62,-263.5 539.96,-263.5 605.25,-263.5"/>
<polygon fill="midnightblue" stroke="midnightblue" points="363.27,-260 353.27,-263.5 363.27,-267 363.27,-260"/>
</g>
<!-- Node21 -->
<g id="node21" class="node">
<title>Node21</title>
<g id="a_node21"><a xlink:href="classitk_1_1Array.html" target="_top" xlink:title="Array class with size defined at construction time.">
<polygon fill="white" stroke="black" points="233,-109 233,-128 350,-128 350,-109 233,-109"/>
<text text-anchor="middle" x="291.5" y="-116" font-family="Helvetica,sans-Serif" font-size="10.00">itk::Array&lt; TValue &gt;</text>
</a>
</g>
</g>
<!-- Node21&#45;&gt;Node19 -->
<g id="edge24" class="edge">
<title>Node21&#45;&gt;Node19</title>
<path fill="none" stroke="orange" stroke-dasharray="5,2" d="M360.45,-121.9C429.4,-126.59 530.24,-137.28 561,-160.5 576.23,-172 567.05,-184.61 579,-199.5 597.93,-223.1 627.35,-242.86 645.88,-253.93"/>
<polygon fill="orange" stroke="orange" points="360.3,-118.38 350.09,-121.22 359.85,-125.36 360.3,-118.38"/>
<text text-anchor="middle" x="477" y="-163.5" font-family="Helvetica,sans-Serif" font-size="10.00"> &lt; double &gt;</text>
</g>
<!-- Node27 -->
<g id="node27" class="node">
<title>Node27</title>
<g id="a_node27"><a xlink:href="classitk_1_1Array.html" target="_top" xlink:title=" ">
<polygon fill="white" stroke="black" points="583.5,-92.5 583.5,-122.5 744.5,-122.5 744.5,-92.5 583.5,-92.5"/>
<text text-anchor="start" x="591.5" y="-110.5" font-family="Helvetica,sans-Serif" font-size="10.00">itk::Array&lt; TParametersValue</text>
<text text-anchor="middle" x="664" y="-99.5" font-family="Helvetica,sans-Serif" font-size="10.00">Type &gt;</text>
</a>
</g>
</g>
<!-- Node21&#45;&gt;Node27 -->
<g id="edge33" class="edge">
<title>Node21&#45;&gt;Node27</title>
<path fill="none" stroke="orange" stroke-dasharray="5,2" d="M360.08,-110.88C371.07,-109.9 382.34,-109.05 393,-108.5 457.02,-105.2 529.68,-105.14 583.49,-105.8"/>
<polygon fill="orange" stroke="orange" points="359.72,-107.4 350.09,-111.82 360.37,-114.37 359.72,-107.4"/>
<text text-anchor="middle" x="477" y="-111.5" font-family="Helvetica,sans-Serif" font-size="10.00"> &lt; TParametersValueType &gt;</text>
</g>
<!-- Node33 -->
<g id="node33" class="node">
<title>Node33</title>
<g id="a_node33"><a xlink:href="classitk_1_1Array.html" target="_top" xlink:title=" ">
<polygon fill="white" stroke="black" points="588,-8.5 588,-38.5 740,-38.5 740,-8.5 588,-8.5"/>
<text text-anchor="start" x="596" y="-26.5" font-family="Helvetica,sans-Serif" font-size="10.00">itk::Array&lt; InternalMeasure</text>
<text text-anchor="middle" x="664" y="-15.5" font-family="Helvetica,sans-Serif" font-size="10.00">Type &gt;</text>
</a>
</g>
</g>
<!-- Node21&#45;&gt;Node33 -->
<g id="edge45" class="edge">
<title>Node21&#45;&gt;Node33</title>
<path fill="none" stroke="orange" stroke-dasharray="5,2" d="M348.06,-106.49C357.14,-104.11 366.39,-101.43 375,-98.5 383.29,-95.68 384.72,-93.34 393,-90.5 457.52,-68.35 533.04,-50.24 587.78,-38.46"/>
<polygon fill="orange" stroke="orange" points="347.15,-103.11 338.31,-108.95 348.86,-109.89 347.15,-103.11"/>
<text text-anchor="middle" x="477" y="-93.5" font-family="Helvetica,sans-Serif" font-size="10.00"> &lt; InternalMeasureType &gt;</text>
</g>
<!-- Node22 -->
<g id="node22" class="node">
<title>Node22</title>
<g id="a_node22"><a xlink:title=" ">
<polygon fill="white" stroke="#bfbfbf" points="0,-109 0,-128 123,-128 123,-109 0,-109"/>
<text text-anchor="middle" x="61.5" y="-116" font-family="Helvetica,sans-Serif" font-size="10.00">vnl_vector&lt; TValue &gt;</text>
</a>
</g>
</g>
<!-- Node22&#45;&gt;Node21 -->
<g id="edge25" class="edge">
<title>Node22&#45;&gt;Node21</title>
<path fill="none" stroke="midnightblue" d="M133.19,-118.5C165.21,-118.5 202.58,-118.5 232.86,-118.5"/>
<polygon fill="midnightblue" stroke="midnightblue" points="133,-115 123,-118.5 133,-122 133,-115"/>
</g>
<!-- Node23 -->
<g id="node23" class="node">
<title>Node23</title>
<g id="a_node23"><a xlink:title=" ">
<polygon fill="white" stroke="#bfbfbf" points="579,-160.5 579,-190.5 749,-190.5 749,-160.5 579,-160.5"/>
<text text-anchor="start" x="587" y="-178.5" font-family="Helvetica,sans-Serif" font-size="10.00">std::unique_ptr&lt; itk</text>
<text text-anchor="middle" x="664" y="-167.5" font-family="Helvetica,sans-Serif" font-size="10.00">::OptimizerParametersHelper &gt;</text>
</a>
</g>
</g>
<!-- Node23&#45;&gt;Node18 -->
<g id="edge26" class="edge">
<title>Node23&#45;&gt;Node18</title>
<path fill="none" stroke="#9a32cd" stroke-dasharray="5,2" d="M738.09,-192.74C779.99,-202.01 833.7,-212.87 882,-219.5 991.62,-234.55 1120.06,-241.85 1196.99,-245.13"/>
<polygon fill="#9a32cd" stroke="#9a32cd" points="738.78,-189.3 728.25,-190.54 737.25,-196.13 738.78,-189.3"/>
<text text-anchor="middle" x="957" y="-238.5" font-family="Helvetica,sans-Serif" font-size="10.00"> m_Helper</text>
</g>
<!-- Node26 -->
<g id="node26" class="node">
<title>Node26</title>
<g id="a_node26"><a xlink:href="classitk_1_1OptimizerParameters.html" target="_top" xlink:title="Class to hold and manage different parameter types used during optimization.">
<polygon fill="white" stroke="black" points="882,-110.5 882,-140.5 1032,-140.5 1032,-110.5 882,-110.5"/>
<text text-anchor="start" x="890" y="-128.5" font-family="Helvetica,sans-Serif" font-size="10.00">itk::OptimizerParameters</text>
<text text-anchor="middle" x="957" y="-117.5" font-family="Helvetica,sans-Serif" font-size="10.00">&lt; TParametersValueType &gt;</text>
</a>
</g>
</g>
<!-- Node23&#45;&gt;Node26 -->
<g id="edge34" class="edge">
<title>Node23&#45;&gt;Node26</title>
<path fill="none" stroke="#9a32cd" stroke-dasharray="5,2" d="M759.15,-159.32C798.93,-152.49 844.59,-144.64 881.92,-138.23"/>
<polygon fill="#9a32cd" stroke="#9a32cd" points="758.43,-155.89 749.17,-161.04 759.62,-162.79 758.43,-155.89"/>
<text text-anchor="middle" x="815.5" y="-161.5" font-family="Helvetica,sans-Serif" font-size="10.00"> m_Helper</text>
</g>
<!-- Node32 -->
<g id="node32" class="node">
<title>Node32</title>
<g id="a_node32"><a xlink:href="classitk_1_1OptimizerParameters.html" target="_top" xlink:title=" ">
<polygon fill="white" stroke="black" points="1196,-47.5 1196,-77.5 1337,-77.5 1337,-47.5 1196,-47.5"/>
<text text-anchor="start" x="1204" y="-65.5" font-family="Helvetica,sans-Serif" font-size="10.00">itk::OptimizerParameters</text>
<text text-anchor="middle" x="1266.5" y="-54.5" font-family="Helvetica,sans-Serif" font-size="10.00">&lt; InternalMeasureType &gt;</text>
</a>
</g>
</g>
<!-- Node23&#45;&gt;Node32 -->
<g id="edge46" class="edge">
<title>Node23&#45;&gt;Node32</title>
<path fill="none" stroke="#9a32cd" stroke-dasharray="5,2" d="M703.76,-155.91C746.29,-135.43 817.16,-104.26 882,-89.5 989.71,-64.98 1118.43,-60.88 1195.99,-61.05"/>
<polygon fill="#9a32cd" stroke="#9a32cd" points="702.07,-152.84 694.61,-160.36 705.13,-159.13 702.07,-152.84"/>
<text text-anchor="middle" x="957" y="-92.5" font-family="Helvetica,sans-Serif" font-size="10.00"> m_Helper</text>
</g>
<!-- Node24 -->
<g id="node24" class="node">
<title>Node24</title>
<g id="a_node24"><a xlink:href="classitk_1_1OptimizerParametersHelper.html" target="_top" xlink:title="Basic helper class to manage parameter data as an Array type, the default type.">
<polygon fill="white" stroke="black" points="222,-204.5 222,-234.5 361,-234.5 361,-204.5 222,-204.5"/>
<text text-anchor="start" x="230" y="-222.5" font-family="Helvetica,sans-Serif" font-size="10.00">itk::OptimizerParameters</text>
<text text-anchor="middle" x="291.5" y="-211.5" font-family="Helvetica,sans-Serif" font-size="10.00">Helper&lt; TValue &gt;</text>
</a>
</g>
</g>
<!-- Node24&#45;&gt;Node23 -->
<g id="edge27" class="edge">
<title>Node24&#45;&gt;Node23</title>
<path fill="none" stroke="#9a32cd" stroke-dasharray="5,2" d="M371.37,-216.32C425.05,-213.42 497.59,-208.08 561,-198.5 574.73,-196.43 589.36,-193.54 603.13,-190.51"/>
<polygon fill="#9a32cd" stroke="#9a32cd" points="371.03,-212.83 361.23,-216.85 371.4,-219.82 371.03,-212.83"/>
<text text-anchor="middle" x="477" y="-218.5" font-family="Helvetica,sans-Serif" font-size="10.00"> ptr</text>
</g>
<!-- Node25&#45;&gt;Node23 -->
<g id="edge28" class="edge">
<title>Node25&#45;&gt;Node23</title>
<path fill="none" stroke="orange" stroke-dasharray="5,2" d="M361.17,-175.5C422.68,-175.5 513.06,-175.5 578.89,-175.5"/>
<polygon fill="orange" stroke="orange" points="360.8,-172 350.8,-175.5 360.8,-179 360.8,-172"/>
<text text-anchor="start" x="408.5" y="-189.5" font-family="Helvetica,sans-Serif" font-size="10.00"> &lt; itk::OptimizerParameters</text>
<text text-anchor="middle" x="477" y="-178.5" font-family="Helvetica,sans-Serif" font-size="10.00">Helper &gt;</text>
</g>
<!-- Node26&#45;&gt;Node18 -->
<g id="edge30" class="edge">
<title>Node26&#45;&gt;Node18</title>
<path fill="none" stroke="orange" stroke-dasharray="5,2" d="M1042.28,-122.17C1094.1,-121.49 1154.87,-123.56 1178,-135.5 1188.69,-141.02 1233.86,-203.11 1254.78,-232.39"/>
<polygon fill="orange" stroke="orange" points="1041.98,-118.68 1032.04,-122.34 1042.1,-125.68 1041.98,-118.68"/>
<text text-anchor="middle" x="1114" y="-138.5" font-family="Helvetica,sans-Serif" font-size="10.00"> &lt; double &gt;</text>
</g>
<!-- Node26&#45;&gt;Node32 -->
<g id="edge47" class="edge">
<title>Node26&#45;&gt;Node32</title>
<path fill="none" stroke="orange" stroke-dasharray="5,2" d="M1028.57,-108.19C1035.8,-106.55 1043.04,-104.96 1050,-103.5 1106.57,-91.66 1121.24,-91.44 1178,-80.5 1183.79,-79.39 1189.78,-78.2 1195.8,-77"/>
<polygon fill="orange" stroke="orange" points="1027.72,-104.8 1018.76,-110.45 1029.29,-111.62 1027.72,-104.8"/>
<text text-anchor="middle" x="1114" y="-106.5" font-family="Helvetica,sans-Serif" font-size="10.00"> &lt; InternalMeasureType &gt;</text>
</g>
<!-- Node27&#45;&gt;Node26 -->
<g id="edge31" class="edge">
<title>Node27&#45;&gt;Node26</title>
<path fill="none" stroke="midnightblue" d="M754.7,-113.05C795.38,-115.56 842.92,-118.51 881.58,-120.9"/>
<polygon fill="midnightblue" stroke="midnightblue" points="754.71,-109.54 744.52,-112.42 754.28,-116.53 754.71,-109.54"/>
</g>
<!-- Node28 -->
<g id="node28" class="node">
<title>Node28</title>
<g id="a_node28"><a xlink:title=" ">
<polygon fill="white" stroke="#bfbfbf" points="208,-59.5 208,-89.5 375,-89.5 375,-59.5 208,-59.5"/>
<text text-anchor="start" x="216" y="-77.5" font-family="Helvetica,sans-Serif" font-size="10.00">vnl_vector&lt; TParametersValue</text>
<text text-anchor="middle" x="291.5" y="-66.5" font-family="Helvetica,sans-Serif" font-size="10.00">Type &gt;</text>
</a>
</g>
</g>
<!-- Node28&#45;&gt;Node27 -->
<g id="edge32" class="edge">
<title>Node28&#45;&gt;Node27</title>
<path fill="none" stroke="midnightblue" d="M385.2,-82.76C446.22,-88.19 525.26,-95.23 583.43,-100.41"/>
<polygon fill="midnightblue" stroke="midnightblue" points="385.46,-79.27 375.19,-81.86 384.84,-86.24 385.46,-79.27"/>
</g>
<!-- Node29&#45;&gt;Node2 -->
<g id="edge35" class="edge">
<title>Node29&#45;&gt;Node2</title>
<path fill="none" stroke="orange" stroke-dasharray="5,2" d="M1674.03,-269.49C1702.08,-262.47 1732.39,-254.27 1760,-245.5 1780,-239.15 1801.85,-230.79 1819.6,-223.63"/>
<polygon fill="orange" stroke="orange" points="1673.08,-266.12 1664.21,-271.92 1674.76,-272.91 1673.08,-266.12"/>
<text text-anchor="middle" x="1725.5" y="-267.5" font-family="Helvetica,sans-Serif" font-size="10.00"> &lt; double &gt;</text>
</g>
<!-- Node30&#45;&gt;Node1 -->
<g id="edge40" class="edge">
<title>Node30&#45;&gt;Node1</title>
<path fill="none" stroke="#9a32cd" stroke-dasharray="5,2" d="M1649.76,-52.37C1723.41,-54.97 1837.24,-61.11 1935,-75.5 1951.86,-77.98 1969.96,-81.66 1986.52,-85.44"/>
<polygon fill="#9a32cd" stroke="#9a32cd" points="1649.76,-48.87 1639.64,-52.03 1649.52,-55.86 1649.76,-48.87"/>
<text text-anchor="middle" x="1856.5" y="-78.5" font-family="Helvetica,sans-Serif" font-size="10.00"> m_CostFunctionAdaptor</text>
</g>
<!-- Node31 -->
<g id="node31" class="node">
<title>Node31</title>
<g id="a_node31"><a xlink:title=" ">
<polygon fill="white" stroke="#bfbfbf" points="1215.5,-1 1215.5,-20 1317.5,-20 1317.5,-1 1215.5,-1"/>
<text text-anchor="middle" x="1266.5" y="-8" font-family="Helvetica,sans-Serif" font-size="10.00">vnl_cost_function</text>
</a>
</g>
</g>
<!-- Node31&#45;&gt;Node30 -->
<g id="edge41" class="edge">
<title>Node31&#45;&gt;Node30</title>
<path fill="none" stroke="midnightblue" d="M1327.69,-18.45C1378.37,-25.14 1450.81,-34.7 1503.36,-41.64"/>
<polygon fill="midnightblue" stroke="midnightblue" points="1327.91,-14.94 1317.53,-17.11 1326.99,-21.88 1327.91,-14.94"/>
</g>
<!-- Node32&#45;&gt;Node30 -->
<g id="edge42" class="edge">
<title>Node32&#45;&gt;Node30</title>
<path fill="none" stroke="#9a32cd" stroke-dasharray="5,2" d="M1343.16,-45.95C1347.16,-45.39 1351.12,-44.9 1355,-44.5 1404.52,-39.46 1460.75,-41.28 1503.36,-44.18"/>
<polygon fill="#9a32cd" stroke="#9a32cd" points="1342.56,-42.5 1333.21,-47.49 1343.63,-49.42 1342.56,-42.5"/>
<text text-anchor="middle" x="1403.5" y="-47.5" font-family="Helvetica,sans-Serif" font-size="10.00"> m_Scales</text>
</g>
<!-- Node33&#45;&gt;Node32 -->
<g id="edge43" class="edge">
<title>Node33&#45;&gt;Node32</title>
<path fill="none" stroke="midnightblue" d="M750.45,-28.37C852.3,-34.28 1027.62,-44.8 1178,-55.5 1183.78,-55.91 1189.77,-56.35 1195.78,-56.81"/>
<polygon fill="midnightblue" stroke="midnightblue" points="750.41,-24.86 740.22,-27.78 750,-31.85 750.41,-24.86"/>
</g>
<!-- Node34 -->
<g id="node34" class="node">
<title>Node34</title>
<g id="a_node34"><a xlink:title=" ">
<polygon fill="white" stroke="#bfbfbf" points="212.5,-0.5 212.5,-30.5 370.5,-30.5 370.5,-0.5 212.5,-0.5"/>
<text text-anchor="start" x="220.5" y="-18.5" font-family="Helvetica,sans-Serif" font-size="10.00">vnl_vector&lt; InternalMeasure</text>
<text text-anchor="middle" x="291.5" y="-7.5" font-family="Helvetica,sans-Serif" font-size="10.00">Type &gt;</text>
</a>
</g>
</g>
<!-- Node34&#45;&gt;Node33 -->
<g id="edge44" class="edge">
<title>Node34&#45;&gt;Node33</title>
<path fill="none" stroke="midnightblue" d="M380.96,-17.41C444.05,-18.77 527.97,-20.58 587.83,-21.88"/>
<polygon fill="midnightblue" stroke="midnightblue" points="380.69,-13.9 370.62,-17.19 380.54,-20.9 380.69,-13.9"/>
</g>
</g>
</svg>
