<?xml version="1.0" encoding="UTF-8" standalone="no"?>
<!DOCTYPE svg PUBLIC "-//W3C//DTD SVG 1.1//EN"
 "http://www.w3.org/Graphics/SVG/1.1/DTD/svg11.dtd">
<!-- Generated by graphviz version 2.43.0 (0)
 -->
<!-- Title: itk::MovingHistogramMorphologicalGradientImageFilter&lt; TInputImage, TOutputImage, TKernel &gt; Pages: 1 -->
<svg width="2298pt" height="121pt"
 viewBox="0.00 0.00 2298.00 121.00" xmlns="http://www.w3.org/2000/svg" xmlns:xlink="http://www.w3.org/1999/xlink">
<g id="graph0" class="graph" transform="scale(1 1) rotate(0) translate(4 117)">
<title>itk::MovingHistogramMorphologicalGradientImageFilter&lt; TInputImage, TOutputImage, TKernel &gt;</title>
<polygon fill="white" stroke="transparent" points="-4,4 -4,-117 2294,-117 2294,4 -4,4"/>
<!-- Node1 -->
<g id="node1" class="node">
<title>Node1</title>
<g id="a_node1"><a xlink:title="Morphological gradients enhance the variation of pixel intensity in a given neighborhood.">
<polygon fill="#bfbfbf" stroke="black" points="2099,-24.5 2099,-65.5 2290,-65.5 2290,-24.5 2099,-24.5"/>
<text text-anchor="start" x="2107" y="-53.5" font-family="Helvetica,sans-Serif" font-size="10.00">itk::MovingHistogramMorphological</text>
<text text-anchor="start" x="2107" y="-42.5" font-family="Helvetica,sans-Serif" font-size="10.00">GradientImageFilter&lt; TInputImage,</text>
<text text-anchor="middle" x="2194.5" y="-31.5" font-family="Helvetica,sans-Serif" font-size="10.00"> TOutputImage, TKernel &gt;</text>
</a>
</g>
</g>
<!-- Node2 -->
<g id="node2" class="node">
<title>Node2</title>
<g id="a_node2"><a xlink:href="classitk_1_1MovingHistogramImageFilter.html" target="_top" xlink:title=" ">
<polygon fill="white" stroke="black" points="1841,-19 1841,-71 2062,-71 2062,-19 1841,-19"/>
<text text-anchor="start" x="1849" y="-59" font-family="Helvetica,sans-Serif" font-size="10.00">itk::MovingHistogramImage</text>
<text text-anchor="start" x="1849" y="-48" font-family="Helvetica,sans-Serif" font-size="10.00">Filter&lt; TInputImage, TOutputImage,</text>
<text text-anchor="start" x="1849" y="-37" font-family="Helvetica,sans-Serif" font-size="10.00"> TKernel, Function::MorphologicalGradient</text>
<text text-anchor="middle" x="1951.5" y="-26" font-family="Helvetica,sans-Serif" font-size="10.00">Histogram&lt; TInputImage::PixelType &gt; &gt;</text>
</a>
</g>
</g>
<!-- Node2&#45;&gt;Node1 -->
<g id="edge1" class="edge">
<title>Node2&#45;&gt;Node1</title>
<path fill="none" stroke="midnightblue" d="M2072.19,-45C2081.17,-45 2090.15,-45 2098.94,-45"/>
<polygon fill="midnightblue" stroke="midnightblue" points="2072.07,-41.5 2062.07,-45 2072.07,-48.5 2072.07,-41.5"/>
</g>
<!-- Node3 -->
<g id="node3" class="node">
<title>Node3</title>
<g id="a_node3"><a xlink:href="classitk_1_1MovingHistogramImageFilterBase.html" target="_top" xlink:title="Implements a generic moving histogram algorithm.">
<polygon fill="white" stroke="black" points="1256,-27.5 1256,-68.5 1409,-68.5 1409,-27.5 1256,-27.5"/>
<text text-anchor="start" x="1264" y="-56.5" font-family="Helvetica,sans-Serif" font-size="10.00">itk::MovingHistogramImage</text>
<text text-anchor="start" x="1264" y="-45.5" font-family="Helvetica,sans-Serif" font-size="10.00">FilterBase&lt; TInputImage,</text>
<text text-anchor="middle" x="1332.5" y="-34.5" font-family="Helvetica,sans-Serif" font-size="10.00"> TOutputImage, TKernel &gt;</text>
</a>
</g>
</g>
<!-- Node3&#45;&gt;Node2 -->
<g id="edge2" class="edge">
<title>Node3&#45;&gt;Node2</title>
<path fill="none" stroke="midnightblue" d="M1419.17,-54.88C1516.95,-61.66 1681.64,-69.83 1823,-61 1828.79,-60.64 1834.72,-60.18 1840.7,-59.66"/>
<polygon fill="midnightblue" stroke="midnightblue" points="1419.27,-51.38 1409.05,-54.17 1418.77,-58.36 1419.27,-51.38"/>
</g>
<!-- Node13 -->
<g id="node13" class="node">
<title>Node13</title>
<g id="a_node13"><a xlink:href="classitk_1_1MovingHistogramImageFilter.html" target="_top" xlink:title="Implements a generic moving histogram algorithm.">
<polygon fill="white" stroke="black" points="1446,-0.5 1446,-41.5 1639,-41.5 1639,-0.5 1446,-0.5"/>
<text text-anchor="start" x="1454" y="-29.5" font-family="Helvetica,sans-Serif" font-size="10.00">itk::MovingHistogramImage</text>
<text text-anchor="start" x="1454" y="-18.5" font-family="Helvetica,sans-Serif" font-size="10.00">Filter&lt; TInputImage, TOutputImage,</text>
<text text-anchor="middle" x="1542.5" y="-7.5" font-family="Helvetica,sans-Serif" font-size="10.00"> TKernel, THistogram &gt;</text>
</a>
</g>
</g>
<!-- Node3&#45;&gt;Node13 -->
<g id="edge13" class="edge">
<title>Node3&#45;&gt;Node13</title>
<path fill="none" stroke="midnightblue" d="M1419.1,-36.89C1427.97,-35.74 1437.03,-34.56 1446,-33.4"/>
<polygon fill="midnightblue" stroke="midnightblue" points="1418.65,-33.42 1409.18,-38.18 1419.55,-40.36 1418.65,-33.42"/>
</g>
<!-- Node4 -->
<g id="node4" class="node">
<title>Node4</title>
<g id="a_node4"><a xlink:href="classitk_1_1KernelImageFilter.html" target="_top" xlink:title="A base class for all the filters working on an arbitrary shaped neighborhood.">
<polygon fill="white" stroke="black" points="1051,-27.5 1051,-68.5 1219,-68.5 1219,-27.5 1051,-27.5"/>
<text text-anchor="start" x="1059" y="-56.5" font-family="Helvetica,sans-Serif" font-size="10.00">itk::KernelImageFilter</text>
<text text-anchor="start" x="1059" y="-45.5" font-family="Helvetica,sans-Serif" font-size="10.00">&lt; TInputImage, TOutputImage,</text>
<text text-anchor="middle" x="1135" y="-34.5" font-family="Helvetica,sans-Serif" font-size="10.00"> TKernel &gt;</text>
</a>
</g>
</g>
<!-- Node4&#45;&gt;Node3 -->
<g id="edge3" class="edge">
<title>Node4&#45;&gt;Node3</title>
<path fill="none" stroke="midnightblue" d="M1229.22,-48C1238.14,-48 1247.1,-48 1255.82,-48"/>
<polygon fill="midnightblue" stroke="midnightblue" points="1229.19,-44.5 1219.19,-48 1229.19,-51.5 1229.19,-44.5"/>
</g>
<!-- Node5 -->
<g id="node5" class="node">
<title>Node5</title>
<g id="a_node5"><a xlink:href="classitk_1_1BoxImageFilter.html" target="_top" xlink:title="A base class for all the filters working on a box neighborhood.">
<polygon fill="white" stroke="black" points="838,-33 838,-63 1014,-63 1014,-33 838,-33"/>
<text text-anchor="start" x="846" y="-51" font-family="Helvetica,sans-Serif" font-size="10.00">itk::BoxImageFilter</text>
<text text-anchor="middle" x="926" y="-40" font-family="Helvetica,sans-Serif" font-size="10.00">&lt; TInputImage, TOutputImage &gt;</text>
</a>
</g>
</g>
<!-- Node5&#45;&gt;Node4 -->
<g id="edge4" class="edge">
<title>Node5&#45;&gt;Node4</title>
<path fill="none" stroke="midnightblue" d="M1024.21,-48C1033.13,-48 1042.1,-48 1050.88,-48"/>
<polygon fill="midnightblue" stroke="midnightblue" points="1024.19,-44.5 1014.19,-48 1024.19,-51.5 1024.19,-44.5"/>
</g>
<!-- Node6 -->
<g id="node6" class="node">
<title>Node6</title>
<g id="a_node6"><a xlink:href="classitk_1_1ImageToImageFilter.html" target="_top" xlink:title="Base class for filters that take an image as input and produce an image as output.">
<polygon fill="white" stroke="black" points="625,-33 625,-63 801,-63 801,-33 625,-33"/>
<text text-anchor="start" x="633" y="-51" font-family="Helvetica,sans-Serif" font-size="10.00">itk::ImageToImageFilter</text>
<text text-anchor="middle" x="713" y="-40" font-family="Helvetica,sans-Serif" font-size="10.00">&lt; TInputImage, TOutputImage &gt;</text>
</a>
</g>
</g>
<!-- Node6&#45;&gt;Node5 -->
<g id="edge5" class="edge">
<title>Node6&#45;&gt;Node5</title>
<path fill="none" stroke="midnightblue" d="M811.07,-48C819.99,-48 828.99,-48 837.82,-48"/>
<polygon fill="midnightblue" stroke="midnightblue" points="811.04,-44.5 801.04,-48 811.04,-51.5 811.04,-44.5"/>
</g>
<!-- Node7 -->
<g id="node7" class="node">
<title>Node7</title>
<g id="a_node7"><a xlink:href="classitk_1_1ImageSource.html" target="_top" xlink:title="Base class for all process objects that output image data.">
<polygon fill="white" stroke="black" points="425.5,-65 425.5,-95 574.5,-95 574.5,-65 425.5,-65"/>
<text text-anchor="start" x="433.5" y="-83" font-family="Helvetica,sans-Serif" font-size="10.00">itk::ImageSource&lt; TOutput</text>
<text text-anchor="middle" x="500" y="-72" font-family="Helvetica,sans-Serif" font-size="10.00">Image &gt;</text>
</a>
</g>
</g>
<!-- Node7&#45;&gt;Node6 -->
<g id="edge6" class="edge">
<title>Node7&#45;&gt;Node6</title>
<path fill="none" stroke="midnightblue" d="M584.55,-67.33C597.85,-65.31 611.62,-63.22 624.99,-61.2"/>
<polygon fill="midnightblue" stroke="midnightblue" points="583.86,-63.89 574.5,-68.85 584.91,-70.81 583.86,-63.89"/>
</g>
<!-- Node8 -->
<g id="node8" class="node">
<title>Node8</title>
<g id="a_node8"><a xlink:href="classitk_1_1ProcessObject.html" target="_top" xlink:title="The base class for all process objects (source, filters, mappers) in the Insight data processing pipe...">
<polygon fill="white" stroke="black" points="251.5,-93.5 251.5,-112.5 355.5,-112.5 355.5,-93.5 251.5,-93.5"/>
<text text-anchor="middle" x="303.5" y="-100.5" font-family="Helvetica,sans-Serif" font-size="10.00">itk::ProcessObject</text>
</a>
</g>
</g>
<!-- Node8&#45;&gt;Node7 -->
<g id="edge7" class="edge">
<title>Node8&#45;&gt;Node7</title>
<path fill="none" stroke="midnightblue" d="M365.57,-95.78C384.48,-93.54 405.52,-91.05 425.19,-88.73"/>
<polygon fill="midnightblue" stroke="midnightblue" points="365.12,-92.31 355.6,-96.96 365.94,-99.26 365.12,-92.31"/>
</g>
<!-- Node9 -->
<g id="node9" class="node">
<title>Node9</title>
<g id="a_node9"><a xlink:href="classitk_1_1Object.html" target="_top" xlink:title="Base class for most ITK classes.">
<polygon fill="white" stroke="black" points="128,-93.5 128,-112.5 195,-112.5 195,-93.5 128,-93.5"/>
<text text-anchor="middle" x="161.5" y="-100.5" font-family="Helvetica,sans-Serif" font-size="10.00">itk::Object</text>
</a>
</g>
</g>
<!-- Node9&#45;&gt;Node8 -->
<g id="edge8" class="edge">
<title>Node9&#45;&gt;Node8</title>
<path fill="none" stroke="midnightblue" d="M205.49,-103C219.95,-103 236.22,-103 251.25,-103"/>
<polygon fill="midnightblue" stroke="midnightblue" points="205.32,-99.5 195.32,-103 205.32,-106.5 205.32,-99.5"/>
</g>
<!-- Node10 -->
<g id="node10" class="node">
<title>Node10</title>
<g id="a_node10"><a xlink:href="classitk_1_1LightObject.html" target="_top" xlink:title="Light weight base class for most itk classes.">
<polygon fill="white" stroke="black" points="0,-93.5 0,-112.5 91,-112.5 91,-93.5 0,-93.5"/>
<text text-anchor="middle" x="45.5" y="-100.5" font-family="Helvetica,sans-Serif" font-size="10.00">itk::LightObject</text>
</a>
</g>
</g>
<!-- Node10&#45;&gt;Node9 -->
<g id="edge9" class="edge">
<title>Node10&#45;&gt;Node9</title>
<path fill="none" stroke="midnightblue" d="M101.39,-103C110.45,-103 119.59,-103 127.88,-103"/>
<polygon fill="midnightblue" stroke="midnightblue" points="101.23,-99.5 91.23,-103 101.23,-106.5 101.23,-99.5"/>
</g>
<!-- Node11 -->
<g id="node11" class="node">
<title>Node11</title>
<g id="a_node11"><a xlink:href="structitk_1_1ImageSourceCommon.html" target="_top" xlink:title="Secondary base class of ImageSource common between templates.">
<polygon fill="white" stroke="black" points="232,-55.5 232,-74.5 375,-74.5 375,-55.5 232,-55.5"/>
<text text-anchor="middle" x="303.5" y="-62.5" font-family="Helvetica,sans-Serif" font-size="10.00">itk::ImageSourceCommon</text>
</a>
</g>
</g>
<!-- Node11&#45;&gt;Node7 -->
<g id="edge10" class="edge">
<title>Node11&#45;&gt;Node7</title>
<path fill="none" stroke="#8b1a1a" d="M385.31,-71.23C398.58,-72.26 412.26,-73.31 425.34,-74.32"/>
<polygon fill="#8b1a1a" stroke="#8b1a1a" points="385.51,-67.74 375.27,-70.46 384.97,-74.72 385.51,-67.74"/>
</g>
<!-- Node12 -->
<g id="node12" class="node">
<title>Node12</title>
<g id="a_node12"><a xlink:href="classitk_1_1ImageToImageFilterCommon.html" target="_top" xlink:title="Secondary base class of ImageToImageFilter common between templates.">
<polygon fill="white" stroke="black" points="412,-26.5 412,-45.5 588,-45.5 588,-26.5 412,-26.5"/>
<text text-anchor="middle" x="500" y="-33.5" font-family="Helvetica,sans-Serif" font-size="10.00">itk::ImageToImageFilterCommon</text>
</a>
</g>
</g>
<!-- Node12&#45;&gt;Node6 -->
<g id="edge11" class="edge">
<title>Node12&#45;&gt;Node6</title>
<path fill="none" stroke="#8b1a1a" d="M598.07,-41.52C606.99,-42.03 615.99,-42.54 624.82,-43.04"/>
<polygon fill="#8b1a1a" stroke="#8b1a1a" points="598.22,-38.02 588.04,-40.95 597.83,-45.01 598.22,-38.02"/>
</g>
<!-- Node13&#45;&gt;Node2 -->
<g id="edge12" class="edge">
<title>Node13&#45;&gt;Node2</title>
<path fill="none" stroke="orange" stroke-dasharray="5,2" d="M1649.28,-17.15C1651.88,-17.1 1654.46,-17.04 1657,-17 1730.77,-15.7 1749.65,-9.04 1823,-17 1828.86,-17.64 1834.84,-18.43 1840.86,-19.35"/>
<polygon fill="orange" stroke="orange" points="1649.08,-13.65 1639.17,-17.39 1649.25,-20.65 1649.08,-13.65"/>
<text text-anchor="start" x="1657" y="-53" font-family="Helvetica,sans-Serif" font-size="10.00"> &lt; TInputImage, TOutputImage,</text>
<text text-anchor="start" x="1657" y="-42" font-family="Helvetica,sans-Serif" font-size="10.00"> TKernel, Function::Morphological</text>
<text text-anchor="start" x="1657" y="-31" font-family="Helvetica,sans-Serif" font-size="10.00">GradientHistogram&lt; TInputImage</text>
<text text-anchor="middle" x="1740" y="-20" font-family="Helvetica,sans-Serif" font-size="10.00">::PixelType &gt; &gt;</text>
</g>
</g>
</svg>
