<?xml version="1.0" encoding="UTF-8" standalone="no"?>
<!DOCTYPE svg PUBLIC "-//W3C//DTD SVG 1.1//EN"
 "http://www.w3.org/Graphics/SVG/1.1/DTD/svg11.dtd">
<!-- Generated by graphviz version 2.43.0 (0)
 -->
<!-- Title: itk::InverseFFTImageFilter&lt; TInputImage, TOutputImage &gt; Pages: 1 -->
<svg width="2888pt" height="525pt"
 viewBox="0.00 0.00 2888.00 524.50" xmlns="http://www.w3.org/2000/svg" xmlns:xlink="http://www.w3.org/1999/xlink">
<g id="graph0" class="graph" transform="scale(1 1) rotate(0) translate(4 520.5)">
<title>itk::InverseFFTImageFilter&lt; TInputImage, TOutputImage &gt;</title>
<polygon fill="white" stroke="transparent" points="-4,4 -4,-520.5 2884,-520.5 2884,4 -4,4"/>
<!-- Node1 -->
<g id="node1" class="node">
<title>Node1</title>
<g id="a_node1"><a xlink:title="Base class for inverse Fast Fourier Transform.">
<polygon fill="#bfbfbf" stroke="black" points="2704,-161.5 2704,-191.5 2880,-191.5 2880,-161.5 2704,-161.5"/>
<text text-anchor="start" x="2712" y="-179.5" font-family="Helvetica,sans-Serif" font-size="10.00">itk::InverseFFTImageFilter</text>
<text text-anchor="middle" x="2792" y="-168.5" font-family="Helvetica,sans-Serif" font-size="10.00">&lt; TInputImage, TOutputImage &gt;</text>
</a>
</g>
</g>
<!-- Node2 -->
<g id="node2" class="node">
<title>Node2</title>
<g id="a_node2"><a xlink:href="classitk_1_1ImageToImageFilter.html" target="_top" xlink:title=" ">
<polygon fill="white" stroke="black" points="2477,-145 2477,-208 2667,-208 2667,-145 2477,-145"/>
<text text-anchor="start" x="2485" y="-196" font-family="Helvetica,sans-Serif" font-size="10.00">itk::ImageToImageFilter</text>
<text text-anchor="start" x="2485" y="-185" font-family="Helvetica,sans-Serif" font-size="10.00">&lt; TInputImage, Image&lt;</text>
<text text-anchor="start" x="2485" y="-174" font-family="Helvetica,sans-Serif" font-size="10.00"> typename TInputImage::</text>
<text text-anchor="start" x="2485" y="-163" font-family="Helvetica,sans-Serif" font-size="10.00">PixelType::value_type, TInputImage</text>
<text text-anchor="middle" x="2572" y="-152" font-family="Helvetica,sans-Serif" font-size="10.00">::ImageDimension &gt; &gt;</text>
</a>
</g>
</g>
<!-- Node2&#45;&gt;Node1 -->
<g id="edge1" class="edge">
<title>Node2&#45;&gt;Node1</title>
<path fill="none" stroke="midnightblue" d="M2677.1,-176.5C2686.04,-176.5 2695.03,-176.5 2703.82,-176.5"/>
<polygon fill="midnightblue" stroke="midnightblue" points="2677.03,-173 2667.03,-176.5 2677.03,-180 2677.03,-173"/>
</g>
<!-- Node3 -->
<g id="node3" class="node">
<title>Node3</title>
<g id="a_node3"><a xlink:href="classitk_1_1ImageSource.html" target="_top" xlink:title=" ">
<polygon fill="white" stroke="black" points="2071,-222.5 2071,-274.5 2264,-274.5 2264,-222.5 2071,-222.5"/>
<text text-anchor="start" x="2079" y="-262.5" font-family="Helvetica,sans-Serif" font-size="10.00">itk::ImageSource&lt; Image</text>
<text text-anchor="start" x="2079" y="-251.5" font-family="Helvetica,sans-Serif" font-size="10.00">&lt; typename TInputImage</text>
<text text-anchor="start" x="2079" y="-240.5" font-family="Helvetica,sans-Serif" font-size="10.00">::PixelType::value_type,</text>
<text text-anchor="middle" x="2167.5" y="-229.5" font-family="Helvetica,sans-Serif" font-size="10.00"> TInputImage::ImageDimension &gt; &gt;</text>
</a>
</g>
</g>
<!-- Node3&#45;&gt;Node2 -->
<g id="edge2" class="edge">
<title>Node3&#45;&gt;Node2</title>
<path fill="none" stroke="midnightblue" d="M2274.51,-247.91C2330.13,-245.56 2399.01,-239.41 2459,-224.5 2475.01,-220.52 2491.67,-214.51 2507.08,-208.07"/>
<polygon fill="midnightblue" stroke="midnightblue" points="2274.14,-244.42 2264.28,-248.3 2274.41,-251.41 2274.14,-244.42"/>
</g>
<!-- Node4 -->
<g id="node4" class="node">
<title>Node4</title>
<g id="a_node4"><a xlink:href="classitk_1_1ProcessObject.html" target="_top" xlink:title="The base class for all process objects (source, filters, mappers) in the Insight data processing pipe...">
<polygon fill="white" stroke="black" points="1491.5,-276 1491.5,-295 1595.5,-295 1595.5,-276 1491.5,-276"/>
<text text-anchor="middle" x="1543.5" y="-283" font-family="Helvetica,sans-Serif" font-size="10.00">itk::ProcessObject</text>
</a>
</g>
</g>
<!-- Node4&#45;&gt;Node3 -->
<g id="edge3" class="edge">
<title>Node4&#45;&gt;Node3</title>
<path fill="none" stroke="midnightblue" d="M1605.91,-284.26C1701.59,-281.98 1891.99,-276.05 2053,-262.5 2058.84,-262.01 2064.83,-261.44 2070.88,-260.83"/>
<polygon fill="midnightblue" stroke="midnightblue" points="1605.75,-280.76 1595.83,-284.49 1605.91,-287.76 1605.75,-280.76"/>
</g>
<!-- Node30 -->
<g id="node30" class="node">
<title>Node30</title>
<g id="a_node30"><a xlink:href="classitk_1_1ImageSource.html" target="_top" xlink:title="Base class for all process objects that output image data.">
<polygon fill="white" stroke="black" points="1665.5,-196.5 1665.5,-226.5 1814.5,-226.5 1814.5,-196.5 1665.5,-196.5"/>
<text text-anchor="start" x="1673.5" y="-214.5" font-family="Helvetica,sans-Serif" font-size="10.00">itk::ImageSource&lt; TOutput</text>
<text text-anchor="middle" x="1740" y="-203.5" font-family="Helvetica,sans-Serif" font-size="10.00">Image &gt;</text>
</a>
</g>
</g>
<!-- Node4&#45;&gt;Node30 -->
<g id="edge43" class="edge">
<title>Node4&#45;&gt;Node30</title>
<path fill="none" stroke="midnightblue" d="M1578.96,-272.39C1612.63,-259.58 1663.85,-240.09 1699.23,-226.63"/>
<polygon fill="midnightblue" stroke="midnightblue" points="1577.63,-269.15 1569.53,-275.98 1580.12,-275.69 1577.63,-269.15"/>
</g>
<!-- Node5 -->
<g id="node5" class="node">
<title>Node5</title>
<g id="a_node5"><a xlink:href="classitk_1_1Object.html" target="_top" xlink:title="Base class for most ITK classes.">
<polygon fill="white" stroke="black" points="1176,-298 1176,-317 1243,-317 1243,-298 1176,-298"/>
<text text-anchor="middle" x="1209.5" y="-305" font-family="Helvetica,sans-Serif" font-size="10.00">itk::Object</text>
</a>
</g>
</g>
<!-- Node5&#45;&gt;Node4 -->
<g id="edge4" class="edge">
<title>Node5&#45;&gt;Node4</title>
<path fill="none" stroke="midnightblue" d="M1253.3,-304.66C1314.33,-300.62 1426.16,-293.21 1491.43,-288.88"/>
<polygon fill="midnightblue" stroke="midnightblue" points="1252.99,-301.18 1243.24,-305.33 1253.45,-308.16 1252.99,-301.18"/>
</g>
<!-- Node6 -->
<g id="node6" class="node">
<title>Node6</title>
<g id="a_node6"><a xlink:href="classitk_1_1LightObject.html" target="_top" xlink:title="Light weight base class for most itk classes.">
<polygon fill="white" stroke="black" points="834.5,-332 834.5,-351 925.5,-351 925.5,-332 834.5,-332"/>
<text text-anchor="middle" x="880" y="-339" font-family="Helvetica,sans-Serif" font-size="10.00">itk::LightObject</text>
</a>
</g>
</g>
<!-- Node6&#45;&gt;Node5 -->
<g id="edge5" class="edge">
<title>Node6&#45;&gt;Node5</title>
<path fill="none" stroke="midnightblue" d="M935.69,-335.82C1004.33,-328.7 1119.84,-316.7 1175.95,-310.88"/>
<polygon fill="midnightblue" stroke="midnightblue" points="935.09,-332.37 925.51,-336.88 935.82,-339.33 935.09,-332.37"/>
</g>
<!-- Node7 -->
<g id="node7" class="node">
<title>Node7</title>
<g id="a_node7"><a xlink:title=" ">
<polygon fill="white" stroke="#bfbfbf" points="492,-333 492,-352 599,-352 599,-333 492,-333"/>
<text text-anchor="middle" x="545.5" y="-340" font-family="Helvetica,sans-Serif" font-size="10.00">std::atomic&lt; int &gt;</text>
</a>
</g>
</g>
<!-- Node7&#45;&gt;Node6 -->
<g id="edge6" class="edge">
<title>Node7&#45;&gt;Node6</title>
<path fill="none" stroke="#9a32cd" stroke-dasharray="5,2" d="M609.41,-342.31C675.06,-342.11 776.36,-341.81 834.28,-341.63"/>
<polygon fill="#9a32cd" stroke="#9a32cd" points="609.18,-338.81 599.19,-342.34 609.2,-345.81 609.18,-338.81"/>
<text text-anchor="middle" x="721.5" y="-345.5" font-family="Helvetica,sans-Serif" font-size="10.00"> m_ReferenceCount</text>
</g>
<!-- Node8 -->
<g id="node8" class="node">
<title>Node8</title>
<g id="a_node8"><a xlink:title="STL class.">
<polygon fill="white" stroke="#bfbfbf" points="135.5,-361 135.5,-380 235.5,-380 235.5,-361 135.5,-361"/>
<text text-anchor="middle" x="185.5" y="-368" font-family="Helvetica,sans-Serif" font-size="10.00">std::atomic&lt; T &gt;</text>
</a>
</g>
</g>
<!-- Node8&#45;&gt;Node7 -->
<g id="edge7" class="edge">
<title>Node8&#45;&gt;Node7</title>
<path fill="none" stroke="orange" stroke-dasharray="5,2" d="M245.72,-365.81C255.5,-365.03 265.53,-364.24 275,-363.5 350.33,-357.59 437.5,-350.8 491.83,-346.59"/>
<polygon fill="orange" stroke="orange" points="245.34,-362.33 235.65,-366.6 245.9,-369.3 245.34,-362.33"/>
<text text-anchor="middle" x="359" y="-366.5" font-family="Helvetica,sans-Serif" font-size="10.00"> &lt; int &gt;</text>
</g>
<!-- Node17 -->
<g id="node17" class="node">
<title>Node17</title>
<g id="a_node17"><a xlink:href="classitk_1_1TimeStamp.html" target="_top" xlink:title="Generate a unique, increasing time value.">
<polygon fill="white" stroke="black" points="834,-378 834,-397 926,-397 926,-378 834,-378"/>
<text text-anchor="middle" x="880" y="-385" font-family="Helvetica,sans-Serif" font-size="10.00">itk::TimeStamp</text>
</a>
</g>
</g>
<!-- Node8&#45;&gt;Node17 -->
<g id="edge19" class="edge">
<title>Node8&#45;&gt;Node17</title>
<path fill="none" stroke="#9a32cd" stroke-dasharray="5,2" d="M245.71,-373.37C255.49,-373.79 265.53,-374.18 275,-374.5 483.87,-381.47 733.5,-385.46 833.91,-386.89"/>
<polygon fill="#9a32cd" stroke="#9a32cd" points="245.79,-369.87 235.64,-372.93 245.48,-376.86 245.79,-369.87"/>
<text text-anchor="middle" x="545.5" y="-386.5" font-family="Helvetica,sans-Serif" font-size="10.00"> m_GlobalTimeStamp</text>
</g>
<!-- Node21 -->
<g id="node21" class="node">
<title>Node21</title>
<g id="a_node21"><a xlink:title=" ">
<polygon fill="white" stroke="#bfbfbf" points="654.5,-417 654.5,-436 788.5,-436 788.5,-417 654.5,-417"/>
<text text-anchor="middle" x="721.5" y="-424" font-family="Helvetica,sans-Serif" font-size="10.00">std::atomic&lt; uint32_t &gt;</text>
</a>
</g>
</g>
<!-- Node8&#45;&gt;Node21 -->
<g id="edge28" class="edge">
<title>Node8&#45;&gt;Node21</title>
<path fill="none" stroke="orange" stroke-dasharray="5,2" d="M216.76,-383.94C233.57,-390.77 255.06,-398.45 275,-402.5 407.65,-429.44 566.79,-430.79 654.44,-428.92"/>
<polygon fill="orange" stroke="orange" points="218.03,-380.68 207.45,-380.06 215.34,-387.14 218.03,-380.68"/>
<text text-anchor="middle" x="359" y="-427.5" font-family="Helvetica,sans-Serif" font-size="10.00"> &lt; uint32_t &gt;</text>
</g>
<!-- Node9 -->
<g id="node9" class="node">
<title>Node9</title>
<g id="a_node9"><a xlink:title=" ">
<polygon fill="white" stroke="#bfbfbf" points="0,-337 0,-356 29,-356 29,-337 0,-337"/>
<text text-anchor="middle" x="14.5" y="-344" font-family="Helvetica,sans-Serif" font-size="10.00">T</text>
</a>
</g>
</g>
<!-- Node9&#45;&gt;Node8 -->
<g id="edge8" class="edge">
<title>Node9&#45;&gt;Node8</title>
<path fill="none" stroke="#9a32cd" stroke-dasharray="5,2" d="M39,-349.84C63.8,-353.36 103.63,-359.02 135.35,-363.52"/>
<polygon fill="#9a32cd" stroke="#9a32cd" points="39.44,-346.36 29.04,-348.42 38.45,-353.29 39.44,-346.36"/>
<text text-anchor="middle" x="71.5" y="-361.5" font-family="Helvetica,sans-Serif" font-size="10.00"> ptr</text>
</g>
<!-- Node14 -->
<g id="node14" class="node">
<title>Node14</title>
<g id="a_node14"><a xlink:title="STL class.">
<polygon fill="white" stroke="#bfbfbf" points="135,-245 135,-264 236,-264 236,-245 135,-245"/>
<text text-anchor="middle" x="185.5" y="-252" font-family="Helvetica,sans-Serif" font-size="10.00">std::map&lt; K, T &gt;</text>
</a>
</g>
</g>
<!-- Node9&#45;&gt;Node14 -->
<g id="edge15" class="edge">
<title>Node9&#45;&gt;Node14</title>
<path fill="none" stroke="#9a32cd" stroke-dasharray="5,2" d="M27.35,-328.58C32.69,-321.58 39.48,-313.94 47,-308.5 76.92,-286.85 116.68,-272.47 145.75,-264.03"/>
<polygon fill="#9a32cd" stroke="#9a32cd" points="24.38,-326.72 21.43,-336.89 30.08,-330.78 24.38,-326.72"/>
<text text-anchor="middle" x="71.5" y="-311.5" font-family="Helvetica,sans-Serif" font-size="10.00"> elements</text>
</g>
<!-- Node16 -->
<g id="node16" class="node">
<title>Node16</title>
<g id="a_node16"><a xlink:title="STL class.">
<polygon fill="white" stroke="#bfbfbf" points="126.5,-316 126.5,-335 244.5,-335 244.5,-316 126.5,-316"/>
<text text-anchor="middle" x="185.5" y="-323" font-family="Helvetica,sans-Serif" font-size="10.00">std::shared_ptr&lt; T &gt;</text>
</a>
</g>
</g>
<!-- Node9&#45;&gt;Node16 -->
<g id="edge17" class="edge">
<title>Node9&#45;&gt;Node16</title>
<path fill="none" stroke="#9a32cd" stroke-dasharray="5,2" d="M38.32,-333.49C41.17,-332.29 44.11,-331.25 47,-330.5 72.44,-323.92 101.4,-322.07 126.17,-322.1"/>
<polygon fill="#9a32cd" stroke="#9a32cd" points="36.56,-330.45 29.1,-337.97 39.62,-336.75 36.56,-330.45"/>
<text text-anchor="middle" x="71.5" y="-333.5" font-family="Helvetica,sans-Serif" font-size="10.00"> ptr</text>
</g>
<!-- Node24 -->
<g id="node24" class="node">
<title>Node24</title>
<g id="a_node24"><a xlink:title="STL class.">
<polygon fill="white" stroke="#bfbfbf" points="137,-421 137,-440 234,-440 234,-421 137,-421"/>
<text text-anchor="middle" x="185.5" y="-428" font-family="Helvetica,sans-Serif" font-size="10.00">std::vector&lt; T &gt;</text>
</a>
</g>
</g>
<!-- Node9&#45;&gt;Node24 -->
<g id="edge32" class="edge">
<title>Node9&#45;&gt;Node24</title>
<path fill="none" stroke="#9a32cd" stroke-dasharray="5,2" d="M32.86,-363.07C37.27,-366.79 42.14,-370.51 47,-373.5 81.46,-394.67 125.17,-411.26 153.95,-420.95"/>
<polygon fill="#9a32cd" stroke="#9a32cd" points="34.87,-360.17 25.08,-356.12 30.21,-365.39 34.87,-360.17"/>
<text text-anchor="middle" x="71.5" y="-401.5" font-family="Helvetica,sans-Serif" font-size="10.00"> elements</text>
</g>
<!-- Node10 -->
<g id="node10" class="node">
<title>Node10</title>
<g id="a_node10"><a xlink:title="STL class.">
<polygon fill="white" stroke="#bfbfbf" points="847.5,-200 847.5,-219 912.5,-219 912.5,-200 847.5,-200"/>
<text text-anchor="middle" x="880" y="-207" font-family="Helvetica,sans-Serif" font-size="10.00">std::string</text>
</a>
</g>
</g>
<!-- Node10&#45;&gt;Node5 -->
<g id="edge9" class="edge">
<title>Node10&#45;&gt;Node5</title>
<path fill="none" stroke="#9a32cd" stroke-dasharray="5,2" d="M918.18,-222.34C965.8,-238.56 1051.02,-266.85 1125,-287.5 1141.65,-292.15 1160.36,-296.69 1175.84,-300.27"/>
<polygon fill="#9a32cd" stroke="#9a32cd" points="919.2,-218.99 908.61,-219.07 916.94,-225.61 919.2,-218.99"/>
<text text-anchor="middle" x="1036" y="-285.5" font-family="Helvetica,sans-Serif" font-size="10.00"> m_ObjectName</text>
</g>
<!-- Node18 -->
<g id="node18" class="node">
<title>Node18</title>
<g id="a_node18"><a xlink:title=" ">
<polygon fill="white" stroke="#bfbfbf" points="1128.5,-160.5 1128.5,-190.5 1290.5,-190.5 1290.5,-160.5 1128.5,-160.5"/>
<text text-anchor="start" x="1136.5" y="-178.5" font-family="Helvetica,sans-Serif" font-size="10.00">std::set&lt; DataObjectIdentifier</text>
<text text-anchor="middle" x="1209.5" y="-167.5" font-family="Helvetica,sans-Serif" font-size="10.00">Type &gt;</text>
</a>
</g>
</g>
<!-- Node10&#45;&gt;Node18 -->
<g id="edge21" class="edge">
<title>Node10&#45;&gt;Node18</title>
<path fill="none" stroke="#9a32cd" stroke-dasharray="5,2" d="M908.72,-195.61C924.73,-188.36 945.5,-180.23 965,-176.5 1018.77,-166.2 1080.45,-166.07 1128.28,-168.45"/>
<polygon fill="#9a32cd" stroke="#9a32cd" points="906.99,-192.55 899.42,-199.96 909.96,-198.89 906.99,-192.55"/>
<text text-anchor="middle" x="1036" y="-179.5" font-family="Helvetica,sans-Serif" font-size="10.00"> keys</text>
</g>
<!-- Node20 -->
<g id="node20" class="node">
<title>Node20</title>
<g id="a_node20"><a xlink:title=" ">
<polygon fill="white" stroke="#bfbfbf" points="1125,-248.5 1125,-278.5 1294,-278.5 1294,-248.5 1125,-248.5"/>
<text text-anchor="start" x="1133" y="-266.5" font-family="Helvetica,sans-Serif" font-size="10.00">std::map&lt; DataObjectIdentifier</text>
<text text-anchor="middle" x="1209.5" y="-255.5" font-family="Helvetica,sans-Serif" font-size="10.00">Type, bool &gt;</text>
</a>
</g>
</g>
<!-- Node10&#45;&gt;Node20 -->
<g id="edge25" class="edge">
<title>Node10&#45;&gt;Node20</title>
<path fill="none" stroke="#9a32cd" stroke-dasharray="5,2" d="M922.82,-203.86C968.74,-199 1044.28,-194.96 1107,-210.5 1136.72,-217.86 1167.41,-235.55 1187.15,-248.47"/>
<polygon fill="#9a32cd" stroke="#9a32cd" points="922.2,-200.41 912.65,-205 922.98,-207.36 922.2,-200.41"/>
<text text-anchor="middle" x="1036" y="-213.5" font-family="Helvetica,sans-Serif" font-size="10.00"> keys</text>
</g>
<!-- Node25 -->
<g id="node25" class="node">
<title>Node25</title>
<g id="a_node25"><a xlink:title=" ">
<polygon fill="white" stroke="#bfbfbf" points="1125,-87.5 1125,-117.5 1294,-117.5 1294,-87.5 1125,-87.5"/>
<text text-anchor="start" x="1133" y="-105.5" font-family="Helvetica,sans-Serif" font-size="10.00">std::map&lt; DataObjectIdentifier</text>
<text text-anchor="middle" x="1209.5" y="-94.5" font-family="Helvetica,sans-Serif" font-size="10.00">Type, DataObjectPointer &gt;</text>
</a>
</g>
</g>
<!-- Node10&#45;&gt;Node25 -->
<g id="edge36" class="edge">
<title>Node10&#45;&gt;Node25</title>
<path fill="none" stroke="#9a32cd" stroke-dasharray="5,2" d="M900.24,-193.17C916.48,-180.23 940.89,-162.68 965,-152.5 1015.89,-131.02 1076.77,-118.52 1124.92,-111.39"/>
<polygon fill="#9a32cd" stroke="#9a32cd" points="897.64,-190.78 892.11,-199.81 902.07,-196.2 897.64,-190.78"/>
<text text-anchor="middle" x="1036" y="-155.5" font-family="Helvetica,sans-Serif" font-size="10.00"> keys</text>
</g>
<!-- Node11 -->
<g id="node11" class="node">
<title>Node11</title>
<g id="a_node11"><a xlink:title="STL class.">
<polygon fill="white" stroke="#bfbfbf" points="493.5,-195.5 493.5,-225.5 597.5,-225.5 597.5,-195.5 493.5,-195.5"/>
<text text-anchor="start" x="501.5" y="-213.5" font-family="Helvetica,sans-Serif" font-size="10.00">std::basic_string&lt;</text>
<text text-anchor="middle" x="545.5" y="-202.5" font-family="Helvetica,sans-Serif" font-size="10.00"> char &gt;</text>
</a>
</g>
</g>
<!-- Node11&#45;&gt;Node10 -->
<g id="edge10" class="edge">
<title>Node11&#45;&gt;Node10</title>
<path fill="none" stroke="midnightblue" d="M607.85,-210.32C678.64,-210.1 792.34,-209.76 847.27,-209.6"/>
<polygon fill="midnightblue" stroke="midnightblue" points="607.71,-206.82 597.72,-210.35 607.73,-213.82 607.71,-206.82"/>
</g>
<!-- Node12 -->
<g id="node12" class="node">
<title>Node12</title>
<g id="a_node12"><a xlink:href="classitk_1_1MetaDataDictionary.html" target="_top" xlink:title="Provides a mechanism for storing a collection of arbitrary data types.">
<polygon fill="white" stroke="black" points="813,-293 813,-312 947,-312 947,-293 813,-293"/>
<text text-anchor="middle" x="880" y="-300" font-family="Helvetica,sans-Serif" font-size="10.00">itk::MetaDataDictionary</text>
</a>
</g>
</g>
<!-- Node12&#45;&gt;Node5 -->
<g id="edge11" class="edge">
<title>Node12&#45;&gt;Node5</title>
<path fill="none" stroke="#9a32cd" stroke-dasharray="5,2" d="M957.27,-302.17C1001.08,-302.15 1057.14,-302.41 1107,-303.5 1129.92,-304 1155.74,-305.03 1175.6,-305.91"/>
<polygon fill="#9a32cd" stroke="#9a32cd" points="957.26,-298.67 947.26,-302.18 957.27,-305.67 957.26,-298.67"/>
<text text-anchor="middle" x="1036" y="-306.5" font-family="Helvetica,sans-Serif" font-size="10.00"> m_MetaDataDictionary</text>
</g>
<!-- Node13 -->
<g id="node13" class="node">
<title>Node13</title>
<g id="a_node13"><a xlink:title=" ">
<polygon fill="white" stroke="#bfbfbf" points="471,-283.5 471,-313.5 620,-313.5 620,-283.5 471,-283.5"/>
<text text-anchor="start" x="479" y="-301.5" font-family="Helvetica,sans-Serif" font-size="10.00">std::shared_ptr&lt; MetaData</text>
<text text-anchor="middle" x="545.5" y="-290.5" font-family="Helvetica,sans-Serif" font-size="10.00">DictionaryMapType &gt;</text>
</a>
</g>
</g>
<!-- Node13&#45;&gt;Node12 -->
<g id="edge12" class="edge">
<title>Node13&#45;&gt;Node12</title>
<path fill="none" stroke="#9a32cd" stroke-dasharray="5,2" d="M630.63,-299.51C687.09,-300.19 760.43,-301.07 812.74,-301.7"/>
<polygon fill="#9a32cd" stroke="#9a32cd" points="630.33,-296.01 620.29,-299.39 630.25,-303.01 630.33,-296.01"/>
<text text-anchor="middle" x="721.5" y="-304.5" font-family="Helvetica,sans-Serif" font-size="10.00"> m_Dictionary</text>
</g>
<!-- Node14&#45;&gt;Node13 -->
<g id="edge13" class="edge">
<title>Node14&#45;&gt;Node13</title>
<path fill="none" stroke="#9a32cd" stroke-dasharray="5,2" d="M246.07,-261.92C255.74,-263.12 265.65,-264.35 275,-265.5 341.2,-273.67 416.55,-282.89 470.72,-289.5"/>
<polygon fill="#9a32cd" stroke="#9a32cd" points="246.47,-258.44 236.11,-260.68 245.61,-265.39 246.47,-258.44"/>
<text text-anchor="middle" x="359" y="-289.5" font-family="Helvetica,sans-Serif" font-size="10.00"> ptr</text>
</g>
<!-- Node14&#45;&gt;Node20 -->
<g id="edge26" class="edge">
<title>Node14&#45;&gt;Node20</title>
<path fill="none" stroke="orange" stroke-dasharray="5,2" d="M246.36,-255.03C419.95,-256.56 923.95,-260.99 1124.63,-262.76"/>
<polygon fill="orange" stroke="orange" points="246.17,-251.53 236.14,-254.94 246.11,-258.53 246.17,-251.53"/>
<text text-anchor="start" x="652" y="-274.5" font-family="Helvetica,sans-Serif" font-size="10.00"> &lt; DataObjectIdentifierType,</text>
<text text-anchor="middle" x="721.5" y="-263.5" font-family="Helvetica,sans-Serif" font-size="10.00"> bool &gt;</text>
</g>
<!-- Node14&#45;&gt;Node25 -->
<g id="edge37" class="edge">
<title>Node14&#45;&gt;Node25</title>
<path fill="none" stroke="orange" stroke-dasharray="5,2" d="M229.01,-242.11C282.66,-226.86 377.97,-201.1 461,-185.5 608.04,-157.88 647.19,-166.68 795,-143.5 870.95,-131.59 888.59,-120.05 965,-111.5 1017.97,-105.57 1077.79,-103.3 1124.88,-102.52"/>
<polygon fill="orange" stroke="orange" points="227.83,-238.81 219.17,-244.92 229.75,-245.54 227.83,-238.81"/>
<text text-anchor="start" x="652" y="-175.5" font-family="Helvetica,sans-Serif" font-size="10.00"> &lt; DataObjectIdentifierType,</text>
<text text-anchor="middle" x="721.5" y="-164.5" font-family="Helvetica,sans-Serif" font-size="10.00"> DataObjectPointer &gt;</text>
</g>
<!-- Node15 -->
<g id="node15" class="node">
<title>Node15</title>
<g id="a_node15"><a xlink:title=" ">
<polygon fill="white" stroke="#bfbfbf" points="0,-194 0,-213 29,-213 29,-194 0,-194"/>
<text text-anchor="middle" x="14.5" y="-201" font-family="Helvetica,sans-Serif" font-size="10.00">K</text>
</a>
</g>
</g>
<!-- Node15&#45;&gt;Node14 -->
<g id="edge14" class="edge">
<title>Node15&#45;&gt;Node14</title>
<path fill="none" stroke="#9a32cd" stroke-dasharray="5,2" d="M38.93,-210.57C68.62,-219.53 119.91,-235.01 153,-244.99"/>
<polygon fill="#9a32cd" stroke="#9a32cd" points="39.63,-207.13 29.04,-207.59 37.61,-213.83 39.63,-207.13"/>
<text text-anchor="middle" x="71.5" y="-230.5" font-family="Helvetica,sans-Serif" font-size="10.00"> keys</text>
</g>
<!-- Node19 -->
<g id="node19" class="node">
<title>Node19</title>
<g id="a_node19"><a xlink:title="STL class.">
<polygon fill="white" stroke="#bfbfbf" points="318,-126 318,-145 400,-145 400,-126 318,-126"/>
<text text-anchor="middle" x="359" y="-133" font-family="Helvetica,sans-Serif" font-size="10.00">std::set&lt; K &gt;</text>
</a>
</g>
</g>
<!-- Node15&#45;&gt;Node19 -->
<g id="edge23" class="edge">
<title>Node15&#45;&gt;Node19</title>
<path fill="none" stroke="#9a32cd" stroke-dasharray="5,2" d="M39.38,-198.76C97.31,-187.26 245.82,-157.77 317.76,-143.49"/>
<polygon fill="#9a32cd" stroke="#9a32cd" points="38.48,-195.37 29.35,-200.75 39.84,-202.24 38.48,-195.37"/>
<text text-anchor="middle" x="71.5" y="-199.5" font-family="Helvetica,sans-Serif" font-size="10.00"> keys</text>
</g>
<!-- Node16&#45;&gt;Node13 -->
<g id="edge16" class="edge">
<title>Node16&#45;&gt;Node13</title>
<path fill="none" stroke="orange" stroke-dasharray="5,2" d="M254.85,-320.34C316.62,-315.69 407.3,-308.85 470.69,-304.07"/>
<polygon fill="orange" stroke="orange" points="254.52,-316.86 244.82,-321.1 255.05,-323.84 254.52,-316.86"/>
<text text-anchor="middle" x="359" y="-321.5" font-family="Helvetica,sans-Serif" font-size="10.00"> &lt; MetaDataDictionaryMapType &gt;</text>
</g>
<!-- Node17&#45;&gt;Node4 -->
<g id="edge40" class="edge">
<title>Node17&#45;&gt;Node4</title>
<path fill="none" stroke="#9a32cd" stroke-dasharray="5,2" d="M936.2,-385.9C982.06,-384.13 1048.95,-380.54 1107,-373.5 1262.6,-354.62 1301.29,-345.85 1454,-310.5 1473.29,-306.04 1494.65,-300.03 1511.56,-295.02"/>
<polygon fill="#9a32cd" stroke="#9a32cd" points="936.03,-382.4 926.17,-386.27 936.29,-389.39 936.03,-382.4"/>
<text text-anchor="middle" x="1209.5" y="-374.5" font-family="Helvetica,sans-Serif" font-size="10.00"> m_OutputInformationMTime</text>
</g>
<!-- Node17&#45;&gt;Node5 -->
<g id="edge18" class="edge">
<title>Node17&#45;&gt;Node5</title>
<path fill="none" stroke="#9a32cd" stroke-dasharray="5,2" d="M919.79,-374.82C933.92,-370.5 950.08,-365.91 965,-362.5 1027.32,-348.24 1044.79,-354.26 1107,-339.5 1132.71,-333.4 1161.37,-324.13 1181.66,-317.13"/>
<polygon fill="#9a32cd" stroke="#9a32cd" points="918.42,-371.58 909.91,-377.89 920.5,-378.26 918.42,-371.58"/>
<text text-anchor="middle" x="1036" y="-365.5" font-family="Helvetica,sans-Serif" font-size="10.00"> m_MTime</text>
</g>
<!-- Node18&#45;&gt;Node4 -->
<g id="edge20" class="edge">
<title>Node18&#45;&gt;Node4</title>
<path fill="none" stroke="#9a32cd" stroke-dasharray="5,2" d="M1289.17,-192.89C1337.64,-204.8 1400.52,-222.42 1454,-244.5 1462.46,-247.99 1463.8,-250.43 1472,-254.5 1487.57,-262.23 1505.51,-270.1 1519.39,-275.98"/>
<polygon fill="#9a32cd" stroke="#9a32cd" points="1289.91,-189.47 1279.36,-190.51 1288.26,-196.27 1289.91,-189.47"/>
<text text-anchor="middle" x="1383" y="-247.5" font-family="Helvetica,sans-Serif" font-size="10.00"> m_RequiredInputNames</text>
</g>
<!-- Node19&#45;&gt;Node18 -->
<g id="edge22" class="edge">
<title>Node19&#45;&gt;Node18</title>
<path fill="none" stroke="orange" stroke-dasharray="5,2" d="M410.33,-134.82C467.81,-134.07 564.68,-132.93 648,-132.5 713.33,-132.16 729.75,-129.27 795,-132.5 934.18,-139.4 968.47,-148.43 1107,-163.5 1113.97,-164.26 1121.2,-165.07 1128.45,-165.9"/>
<polygon fill="orange" stroke="orange" points="410.02,-131.32 400.07,-134.95 410.11,-138.32 410.02,-131.32"/>
<text text-anchor="middle" x="721.5" y="-135.5" font-family="Helvetica,sans-Serif" font-size="10.00"> &lt; DataObjectIdentifierType &gt;</text>
</g>
<!-- Node20&#45;&gt;Node4 -->
<g id="edge24" class="edge">
<title>Node20&#45;&gt;Node4</title>
<path fill="none" stroke="#9a32cd" stroke-dasharray="5,2" d="M1304.29,-259.6C1349.65,-258.9 1404.81,-259.81 1454,-265.5 1472.15,-267.6 1492.02,-271.9 1508.33,-275.98"/>
<polygon fill="#9a32cd" stroke="#9a32cd" points="1304.1,-256.1 1294.17,-259.79 1304.23,-263.1 1304.1,-256.1"/>
<text text-anchor="start" x="1312" y="-279.5" font-family="Helvetica,sans-Serif" font-size="10.00"> m_CachedInputReleaseData</text>
<text text-anchor="middle" x="1383" y="-268.5" font-family="Helvetica,sans-Serif" font-size="10.00">Flags</text>
</g>
<!-- Node21&#45;&gt;Node4 -->
<g id="edge27" class="edge">
<title>Node21&#45;&gt;Node4</title>
<path fill="none" stroke="#9a32cd" stroke-dasharray="5,2" d="M798.63,-426.23C908.76,-424.71 1118.53,-417.51 1294,-386.5 1366.86,-373.62 1386.38,-370.54 1454,-340.5 1482.6,-327.8 1512.96,-307.14 1529.64,-295.09"/>
<polygon fill="#9a32cd" stroke="#9a32cd" points="798.57,-422.73 788.62,-426.36 798.66,-429.73 798.57,-422.73"/>
<text text-anchor="middle" x="1036" y="-423.5" font-family="Helvetica,sans-Serif" font-size="10.00"> m_Progress</text>
</g>
<!-- Node22 -->
<g id="node22" class="node">
<title>Node22</title>
<g id="a_node22"><a xlink:title=" ">
<polygon fill="white" stroke="#bfbfbf" points="461,-456.5 461,-486.5 630,-486.5 630,-456.5 461,-456.5"/>
<text text-anchor="start" x="469" y="-474.5" font-family="Helvetica,sans-Serif" font-size="10.00">std::vector&lt; DataObjectPointer</text>
<text text-anchor="middle" x="545.5" y="-463.5" font-family="Helvetica,sans-Serif" font-size="10.00">Map::iterator &gt;</text>
</a>
</g>
</g>
<!-- Node22&#45;&gt;Node4 -->
<g id="edge29" class="edge">
<title>Node22&#45;&gt;Node4</title>
<path fill="none" stroke="#9a32cd" stroke-dasharray="5,2" d="M640.09,-469.47C782.32,-465.15 1060.99,-451.86 1294,-411.5 1365.72,-399.08 1390.38,-411.87 1454,-376.5 1491.37,-355.73 1522.92,-314.18 1536.02,-295.27"/>
<polygon fill="#9a32cd" stroke="#9a32cd" points="639.98,-465.97 630.08,-469.76 640.18,-472.97 639.98,-465.97"/>
<text text-anchor="middle" x="1036" y="-465.5" font-family="Helvetica,sans-Serif" font-size="10.00"> m_IndexedOutputs</text>
<text text-anchor="middle" x="1036" y="-454.5" font-family="Helvetica,sans-Serif" font-size="10.00">m_IndexedInputs</text>
</g>
<!-- Node23 -->
<g id="node23" class="node">
<title>Node23</title>
<g id="a_node23"><a xlink:title="STL iterator class.">
<polygon fill="white" stroke="#bfbfbf" points="114,-497 114,-516 257,-516 257,-497 114,-497"/>
<text text-anchor="middle" x="185.5" y="-504" font-family="Helvetica,sans-Serif" font-size="10.00">std::map&lt; K, T &gt;::iterator</text>
</a>
</g>
</g>
<!-- Node23&#45;&gt;Node22 -->
<g id="edge30" class="edge">
<title>Node23&#45;&gt;Node22</title>
<path fill="none" stroke="#9a32cd" stroke-dasharray="5,2" d="M267.28,-500.44C317.83,-496.44 384.27,-490.78 443,-484.5 448.83,-483.88 454.84,-483.2 460.9,-482.49"/>
<polygon fill="#9a32cd" stroke="#9a32cd" points="266.76,-496.97 257.07,-501.25 267.31,-503.95 266.76,-496.97"/>
<text text-anchor="middle" x="359" y="-503.5" font-family="Helvetica,sans-Serif" font-size="10.00"> elements</text>
</g>
<!-- Node24&#45;&gt;Node22 -->
<g id="edge31" class="edge">
<title>Node24&#45;&gt;Node22</title>
<path fill="none" stroke="orange" stroke-dasharray="5,2" d="M244.31,-436.5C296.32,-441.97 374.81,-450.41 443,-458.5 448.82,-459.19 454.83,-459.92 460.88,-460.66"/>
<polygon fill="orange" stroke="orange" points="244.59,-433.01 234.28,-435.45 243.86,-439.97 244.59,-433.01"/>
<text text-anchor="start" x="296.5" y="-472.5" font-family="Helvetica,sans-Serif" font-size="10.00"> &lt; DataObjectPointerMap</text>
<text text-anchor="middle" x="359" y="-461.5" font-family="Helvetica,sans-Serif" font-size="10.00">::iterator &gt;</text>
</g>
<!-- Node25&#45;&gt;Node4 -->
<g id="edge33" class="edge">
<title>Node25&#45;&gt;Node4</title>
<path fill="none" stroke="#9a32cd" stroke-dasharray="5,2" d="M1304.21,-107.73C1355.26,-115.51 1415.66,-133.54 1454,-174.5 1478.9,-201.11 1448.83,-226.37 1472,-254.5 1480.16,-264.41 1492.11,-271.24 1503.87,-275.92"/>
<polygon fill="#9a32cd" stroke="#9a32cd" points="1304.53,-104.24 1294.14,-106.31 1303.55,-111.18 1304.53,-104.24"/>
<text text-anchor="middle" x="1383" y="-188.5" font-family="Helvetica,sans-Serif" font-size="10.00"> m_Outputs</text>
<text text-anchor="middle" x="1383" y="-177.5" font-family="Helvetica,sans-Serif" font-size="10.00">m_Inputs</text>
</g>
<!-- Node26 -->
<g id="node26" class="node">
<title>Node26</title>
<g id="a_node26"><a xlink:href="classitk_1_1SmartPointer.html" target="_top" xlink:title=" ">
<polygon fill="white" stroke="black" points="826.5,-43.5 826.5,-73.5 933.5,-73.5 933.5,-43.5 826.5,-43.5"/>
<text text-anchor="start" x="834.5" y="-61.5" font-family="Helvetica,sans-Serif" font-size="10.00">itk::SmartPointer&lt;</text>
<text text-anchor="middle" x="880" y="-50.5" font-family="Helvetica,sans-Serif" font-size="10.00"> Self &gt;</text>
</a>
</g>
</g>
<!-- Node26&#45;&gt;Node25 -->
<g id="edge34" class="edge">
<title>Node26&#45;&gt;Node25</title>
<path fill="none" stroke="#9a32cd" stroke-dasharray="5,2" d="M943.75,-51.72C989.49,-48.41 1052.71,-47.24 1107,-58.5 1133.7,-64.04 1162.01,-76.97 1181.93,-87.39"/>
<polygon fill="#9a32cd" stroke="#9a32cd" points="943.38,-48.24 933.68,-52.5 943.92,-55.22 943.38,-48.24"/>
<text text-anchor="middle" x="1036" y="-61.5" font-family="Helvetica,sans-Serif" font-size="10.00"> elements</text>
</g>
<!-- Node27 -->
<g id="node27" class="node">
<title>Node27</title>
<g id="a_node27"><a xlink:href="classitk_1_1SmartPointer.html" target="_top" xlink:title="Implements transparent reference counting.">
<polygon fill="white" stroke="black" points="492,-19.5 492,-49.5 599,-49.5 599,-19.5 492,-19.5"/>
<text text-anchor="start" x="500" y="-37.5" font-family="Helvetica,sans-Serif" font-size="10.00">itk::SmartPointer&lt;</text>
<text text-anchor="middle" x="545.5" y="-26.5" font-family="Helvetica,sans-Serif" font-size="10.00"> TObjectType &gt;</text>
</a>
</g>
</g>
<!-- Node27&#45;&gt;Node26 -->
<g id="edge35" class="edge">
<title>Node27&#45;&gt;Node26</title>
<path fill="none" stroke="orange" stroke-dasharray="5,2" d="M609.35,-39.04C672.08,-43.56 767.39,-50.44 826.29,-54.7"/>
<polygon fill="orange" stroke="orange" points="609.41,-35.53 599.19,-38.3 608.91,-42.51 609.41,-35.53"/>
<text text-anchor="middle" x="721.5" y="-55.5" font-family="Helvetica,sans-Serif" font-size="10.00"> &lt; Self &gt;</text>
</g>
<!-- Node28 -->
<g id="node28" class="node">
<title>Node28</title>
<g id="a_node28"><a xlink:href="classitk_1_1SmartPointer.html" target="_top" xlink:title=" ">
<polygon fill="white" stroke="black" points="965,-0.5 965,-30.5 1107,-30.5 1107,-0.5 965,-0.5"/>
<text text-anchor="start" x="973" y="-18.5" font-family="Helvetica,sans-Serif" font-size="10.00">itk::SmartPointer&lt;</text>
<text text-anchor="middle" x="1036" y="-7.5" font-family="Helvetica,sans-Serif" font-size="10.00"> itk::MultiThreaderBase &gt;</text>
</a>
</g>
</g>
<!-- Node27&#45;&gt;Node28 -->
<g id="edge39" class="edge">
<title>Node27&#45;&gt;Node28</title>
<path fill="none" stroke="orange" stroke-dasharray="5,2" d="M609.28,-29.8C622.08,-28.94 635.47,-28.13 648,-27.5 758.61,-21.97 887.13,-18.59 964.7,-16.88"/>
<polygon fill="orange" stroke="orange" points="608.9,-26.32 599.16,-30.49 609.37,-33.3 608.9,-26.32"/>
<text text-anchor="middle" x="721.5" y="-30.5" font-family="Helvetica,sans-Serif" font-size="10.00"> &lt; itk::MultiThreaderBase &gt;</text>
</g>
<!-- Node28&#45;&gt;Node4 -->
<g id="edge38" class="edge">
<title>Node28&#45;&gt;Node4</title>
<path fill="none" stroke="#9a32cd" stroke-dasharray="5,2" d="M1117.43,-7.49C1213.1,-2.88 1370.35,-11.78 1454,-106.5 1497.86,-156.17 1432.49,-201.3 1472,-254.5 1479.41,-264.48 1490.75,-271.3 1502.17,-275.94"/>
<polygon fill="#9a32cd" stroke="#9a32cd" points="1117.02,-4 1107.22,-8.04 1117.4,-10.99 1117.02,-4"/>
<text text-anchor="middle" x="1209.5" y="-23.5" font-family="Helvetica,sans-Serif" font-size="10.00"> m_MultiThreader</text>
</g>
<!-- Node29 -->
<g id="node29" class="node">
<title>Node29</title>
<g id="a_node29"><a xlink:href="structitk_1_1ImageSourceCommon.html" target="_top" xlink:title="Secondary base class of ImageSource common between templates.">
<polygon fill="white" stroke="black" points="1472,-226 1472,-245 1615,-245 1615,-226 1472,-226"/>
<text text-anchor="middle" x="1543.5" y="-233" font-family="Helvetica,sans-Serif" font-size="10.00">itk::ImageSourceCommon</text>
</a>
</g>
</g>
<!-- Node29&#45;&gt;Node3 -->
<g id="edge41" class="edge">
<title>Node29&#45;&gt;Node3</title>
<path fill="none" stroke="#8b1a1a" d="M1625.43,-239.12C1686.12,-241.67 1771.25,-244.9 1846,-246.5 1921.52,-248.11 2007.07,-248.58 2070.77,-248.66"/>
<polygon fill="#8b1a1a" stroke="#8b1a1a" points="1625.29,-235.61 1615.15,-238.68 1624.99,-242.6 1625.29,-235.61"/>
</g>
<!-- Node29&#45;&gt;Node30 -->
<g id="edge44" class="edge">
<title>Node29&#45;&gt;Node30</title>
<path fill="none" stroke="#8b1a1a" d="M1625.23,-225.46C1627.85,-225.14 1630.45,-224.82 1633,-224.5 1643.49,-223.21 1654.56,-221.84 1665.44,-220.51"/>
<polygon fill="#8b1a1a" stroke="#8b1a1a" points="1624.52,-222.02 1615.03,-226.72 1625.38,-228.97 1624.52,-222.02"/>
</g>
<!-- Node30&#45;&gt;Node3 -->
<g id="edge42" class="edge">
<title>Node30&#45;&gt;Node3</title>
<path fill="none" stroke="orange" stroke-dasharray="5,2" d="M1824.91,-205.44C1888.02,-202.47 1976.42,-201.71 2053,-213.5 2066.15,-215.52 2079.87,-218.75 2093.05,-222.44"/>
<polygon fill="orange" stroke="orange" points="1824.42,-201.96 1814.61,-205.95 1824.77,-208.95 1824.42,-201.96"/>
<text text-anchor="start" x="1846" y="-238.5" font-family="Helvetica,sans-Serif" font-size="10.00"> &lt; Image&lt; typename TInput</text>
<text text-anchor="start" x="1846" y="-227.5" font-family="Helvetica,sans-Serif" font-size="10.00">Image::PixelType::value</text>
<text text-anchor="middle" x="1949.5" y="-216.5" font-family="Helvetica,sans-Serif" font-size="10.00">_type, TInputImage::ImageDimension &gt; &gt;</text>
</g>
<!-- Node32 -->
<g id="node32" class="node">
<title>Node32</title>
<g id="a_node32"><a xlink:href="classitk_1_1ImageToImageFilter.html" target="_top" xlink:title="Base class for filters that take an image as input and produce an image as output.">
<polygon fill="white" stroke="black" points="2079.5,-161.5 2079.5,-191.5 2255.5,-191.5 2255.5,-161.5 2079.5,-161.5"/>
<text text-anchor="start" x="2087.5" y="-179.5" font-family="Helvetica,sans-Serif" font-size="10.00">itk::ImageToImageFilter</text>
<text text-anchor="middle" x="2167.5" y="-168.5" font-family="Helvetica,sans-Serif" font-size="10.00">&lt; TInputImage, TOutputImage &gt;</text>
</a>
</g>
</g>
<!-- Node30&#45;&gt;Node32 -->
<g id="edge47" class="edge">
<title>Node30&#45;&gt;Node32</title>
<path fill="none" stroke="midnightblue" d="M1824.46,-196.28C1831.73,-195.23 1838.99,-194.28 1846,-193.5 1924.63,-184.71 2014.64,-180.44 2079.22,-178.38"/>
<polygon fill="midnightblue" stroke="midnightblue" points="1823.93,-192.82 1814.56,-197.77 1824.97,-199.75 1823.93,-192.82"/>
</g>
<!-- Node31 -->
<g id="node31" class="node">
<title>Node31</title>
<g id="a_node31"><a xlink:href="classitk_1_1ImageToImageFilterCommon.html" target="_top" xlink:title="Secondary base class of ImageToImageFilter common between templates.">
<polygon fill="white" stroke="black" points="1652,-133 1652,-152 1828,-152 1828,-133 1652,-133"/>
<text text-anchor="middle" x="1740" y="-140" font-family="Helvetica,sans-Serif" font-size="10.00">itk::ImageToImageFilterCommon</text>
</a>
</g>
</g>
<!-- Node31&#45;&gt;Node2 -->
<g id="edge45" class="edge">
<title>Node31&#45;&gt;Node2</title>
<path fill="none" stroke="#8b1a1a" d="M1838.31,-142.31C1943.39,-142.55 2115.65,-144.19 2264,-151.5 2335.44,-155.02 2416.03,-161.69 2476.71,-167.25"/>
<polygon fill="#8b1a1a" stroke="#8b1a1a" points="1838.05,-138.81 1828.04,-142.3 1838.04,-145.81 1838.05,-138.81"/>
</g>
<!-- Node31&#45;&gt;Node32 -->
<g id="edge48" class="edge">
<title>Node31&#45;&gt;Node32</title>
<path fill="none" stroke="#8b1a1a" d="M1838.21,-150.27C1910.89,-156.08 2009.39,-163.95 2079.48,-169.55"/>
<polygon fill="#8b1a1a" stroke="#8b1a1a" points="1838.38,-146.77 1828.13,-149.46 1837.82,-153.75 1838.38,-146.77"/>
</g>
<!-- Node32&#45;&gt;Node2 -->
<g id="edge46" class="edge">
<title>Node32&#45;&gt;Node2</title>
<path fill="none" stroke="orange" stroke-dasharray="5,2" d="M2265.95,-176.5C2330.02,-176.5 2413.41,-176.5 2476.81,-176.5"/>
<polygon fill="orange" stroke="orange" points="2265.84,-173 2255.84,-176.5 2265.84,-180 2265.84,-173"/>
<text text-anchor="start" x="2282" y="-212.5" font-family="Helvetica,sans-Serif" font-size="10.00"> &lt; TInputImage, Image</text>
<text text-anchor="start" x="2282" y="-201.5" font-family="Helvetica,sans-Serif" font-size="10.00">&lt; typename TInputImage</text>
<text text-anchor="start" x="2282" y="-190.5" font-family="Helvetica,sans-Serif" font-size="10.00">::PixelType::value_type,</text>
<text text-anchor="middle" x="2370.5" y="-179.5" font-family="Helvetica,sans-Serif" font-size="10.00"> TInputImage::ImageDimension &gt; &gt;</text>
</g>
</g>
</svg>
