<?xml version="1.0" encoding="UTF-8" standalone="no"?>
<!DOCTYPE svg PUBLIC "-//W3C//DTD SVG 1.1//EN"
 "http://www.w3.org/Graphics/SVG/1.1/DTD/svg11.dtd">
<!-- Generated by graphviz version 2.43.0 (0)
 -->
<!-- Title: itk::MeanImageFunction&lt; TInputImage, TCoordRep &gt; Pages: 1 -->
<svg width="2938pt" height="433pt"
 viewBox="0.00 0.00 2938.00 432.50" xmlns="http://www.w3.org/2000/svg" xmlns:xlink="http://www.w3.org/1999/xlink">
<g id="graph0" class="graph" transform="scale(1 1) rotate(0) translate(4 428.5)">
<title>itk::MeanImageFunction&lt; TInputImage, TCoordRep &gt;</title>
<polygon fill="white" stroke="transparent" points="-4,4 -4,-428.5 2934,-428.5 2934,4 -4,4"/>
<!-- Node1 -->
<g id="node1" class="node">
<title>Node1</title>
<g id="a_node1"><a xlink:title="Calculate the mean value in the neighborhood of a pixel.">
<polygon fill="#bfbfbf" stroke="black" points="2771,-53 2771,-83 2930,-83 2930,-53 2771,-53"/>
<text text-anchor="start" x="2779" y="-71" font-family="Helvetica,sans-Serif" font-size="10.00">itk::MeanImageFunction</text>
<text text-anchor="middle" x="2850.5" y="-60" font-family="Helvetica,sans-Serif" font-size="10.00">&lt; TInputImage, TCoordRep &gt;</text>
</a>
</g>
</g>
<!-- Node2 -->
<g id="node2" class="node">
<title>Node2</title>
<g id="a_node2"><a xlink:href="classitk_1_1ImageFunction.html" target="_top" xlink:title=" ">
<polygon fill="white" stroke="black" points="2571,-149 2571,-201 2734,-201 2734,-149 2571,-149"/>
<text text-anchor="start" x="2579" y="-189" font-family="Helvetica,sans-Serif" font-size="10.00">itk::ImageFunction</text>
<text text-anchor="start" x="2579" y="-178" font-family="Helvetica,sans-Serif" font-size="10.00">&lt; TInputImage, NumericTraits</text>
<text text-anchor="start" x="2579" y="-167" font-family="Helvetica,sans-Serif" font-size="10.00">&lt; TInputImage::PixelType</text>
<text text-anchor="middle" x="2652.5" y="-156" font-family="Helvetica,sans-Serif" font-size="10.00"> &gt;::RealType, float &gt;</text>
</a>
</g>
</g>
<!-- Node2&#45;&gt;Node1 -->
<g id="edge1" class="edge">
<title>Node2&#45;&gt;Node1</title>
<path fill="none" stroke="midnightblue" d="M2710.3,-143.99C2746.98,-123.97 2793.07,-98.81 2821.91,-83.06"/>
<polygon fill="midnightblue" stroke="midnightblue" points="2708.3,-141.1 2701.2,-148.96 2711.65,-147.24 2708.3,-141.1"/>
</g>
<!-- Node3 -->
<g id="node3" class="node">
<title>Node3</title>
<g id="a_node3"><a xlink:href="classitk_1_1FunctionBase.html" target="_top" xlink:title=" ">
<polygon fill="white" stroke="black" points="1877,-276 1877,-328 2091,-328 2091,-276 1877,-276"/>
<text text-anchor="start" x="1885" y="-316" font-family="Helvetica,sans-Serif" font-size="10.00">itk::FunctionBase&lt;</text>
<text text-anchor="start" x="1885" y="-305" font-family="Helvetica,sans-Serif" font-size="10.00"> Point&lt; float, TInputImage</text>
<text text-anchor="start" x="1885" y="-294" font-family="Helvetica,sans-Serif" font-size="10.00">::ImageDimension &gt;, NumericTraits</text>
<text text-anchor="middle" x="1984" y="-283" font-family="Helvetica,sans-Serif" font-size="10.00">&lt; TInputImage::PixelType &gt;::RealType &gt;</text>
</a>
</g>
</g>
<!-- Node3&#45;&gt;Node2 -->
<g id="edge2" class="edge">
<title>Node3&#45;&gt;Node2</title>
<path fill="none" stroke="midnightblue" d="M2100.93,-286.59C2216.33,-270.22 2398.1,-241.66 2553,-205 2558.83,-203.62 2564.82,-202.09 2570.83,-200.47"/>
<polygon fill="midnightblue" stroke="midnightblue" points="2100.43,-283.12 2091.01,-287.99 2101.4,-290.06 2100.43,-283.12"/>
</g>
<!-- Node4 -->
<g id="node4" class="node">
<title>Node4</title>
<g id="a_node4"><a xlink:href="classitk_1_1Object.html" target="_top" xlink:title="Base class for most ITK classes.">
<polygon fill="white" stroke="black" points="1324.5,-311.5 1324.5,-330.5 1391.5,-330.5 1391.5,-311.5 1324.5,-311.5"/>
<text text-anchor="middle" x="1358" y="-318.5" font-family="Helvetica,sans-Serif" font-size="10.00">itk::Object</text>
</a>
</g>
</g>
<!-- Node4&#45;&gt;Node3 -->
<g id="edge3" class="edge">
<title>Node4&#45;&gt;Node3</title>
<path fill="none" stroke="midnightblue" d="M1401.64,-326.94C1488.26,-338 1690.9,-358.63 1859,-336 1872.38,-334.2 1886.37,-331.35 1899.92,-328.05"/>
<polygon fill="midnightblue" stroke="midnightblue" points="1402.02,-323.47 1391.66,-325.65 1401.12,-330.41 1402.02,-323.47"/>
</g>
<!-- Node17 -->
<g id="node17" class="node">
<title>Node17</title>
<g id="a_node17"><a xlink:href="classitk_1_1FunctionBase.html" target="_top" xlink:title="Base class for all ITK function objects.">
<polygon fill="white" stroke="black" points="1496.5,-287 1496.5,-317 1605.5,-317 1605.5,-287 1496.5,-287"/>
<text text-anchor="start" x="1504.5" y="-305" font-family="Helvetica,sans-Serif" font-size="10.00">itk::FunctionBase&lt;</text>
<text text-anchor="middle" x="1551" y="-294" font-family="Helvetica,sans-Serif" font-size="10.00"> TInput, TOutput &gt;</text>
</a>
</g>
</g>
<!-- Node4&#45;&gt;Node17 -->
<g id="edge20" class="edge">
<title>Node4&#45;&gt;Node17</title>
<path fill="none" stroke="midnightblue" d="M1402.07,-316.72C1429.98,-313.94 1466.53,-310.3 1496.32,-307.34"/>
<polygon fill="midnightblue" stroke="midnightblue" points="1401.44,-313.26 1391.83,-317.73 1402.13,-320.23 1401.44,-313.26"/>
</g>
<!-- Node29 -->
<g id="node29" class="node">
<title>Node29</title>
<g id="a_node29"><a xlink:href="classitk_1_1FunctionBase.html" target="_top" xlink:title=" ">
<polygon fill="white" stroke="black" points="1897.5,-205.5 1897.5,-246.5 2070.5,-246.5 2070.5,-205.5 1897.5,-205.5"/>
<text text-anchor="start" x="1905.5" y="-234.5" font-family="Helvetica,sans-Serif" font-size="10.00">itk::FunctionBase&lt;</text>
<text text-anchor="start" x="1905.5" y="-223.5" font-family="Helvetica,sans-Serif" font-size="10.00"> Point&lt; float, TInputImage</text>
<text text-anchor="middle" x="1984" y="-212.5" font-family="Helvetica,sans-Serif" font-size="10.00">::ImageDimension &gt;, TOutput &gt;</text>
</a>
</g>
</g>
<!-- Node4&#45;&gt;Node29 -->
<g id="edge38" class="edge">
<title>Node4&#45;&gt;Node29</title>
<path fill="none" stroke="midnightblue" d="M1386.32,-306.9C1406.06,-297.23 1433.6,-284.8 1459,-277 1608.42,-231.13 1792.02,-223.79 1897.47,-223.96"/>
<polygon fill="midnightblue" stroke="midnightblue" points="1384.69,-303.8 1377.3,-311.39 1387.81,-310.07 1384.69,-303.8"/>
</g>
<!-- Node5 -->
<g id="node5" class="node">
<title>Node5</title>
<g id="a_node5"><a xlink:href="classitk_1_1LightObject.html" target="_top" xlink:title="Light weight base class for most itk classes.">
<polygon fill="white" stroke="black" points="1005.5,-265.5 1005.5,-284.5 1096.5,-284.5 1096.5,-265.5 1005.5,-265.5"/>
<text text-anchor="middle" x="1051" y="-272.5" font-family="Helvetica,sans-Serif" font-size="10.00">itk::LightObject</text>
</a>
</g>
</g>
<!-- Node5&#45;&gt;Node4 -->
<g id="edge4" class="edge">
<title>Node5&#45;&gt;Node4</title>
<path fill="none" stroke="midnightblue" d="M1106.61,-282.35C1152.01,-288.56 1218.28,-297.89 1276,-307 1291.93,-309.51 1309.58,-312.54 1324.32,-315.13"/>
<polygon fill="midnightblue" stroke="midnightblue" points="1107.06,-278.88 1096.68,-280.99 1106.12,-285.81 1107.06,-278.88"/>
</g>
<!-- Node6 -->
<g id="node6" class="node">
<title>Node6</title>
<g id="a_node6"><a xlink:title=" ">
<polygon fill="white" stroke="#bfbfbf" points="710.5,-267.5 710.5,-286.5 817.5,-286.5 817.5,-267.5 710.5,-267.5"/>
<text text-anchor="middle" x="764" y="-274.5" font-family="Helvetica,sans-Serif" font-size="10.00">std::atomic&lt; int &gt;</text>
</a>
</g>
</g>
<!-- Node6&#45;&gt;Node5 -->
<g id="edge5" class="edge">
<title>Node6&#45;&gt;Node5</title>
<path fill="none" stroke="#9a32cd" stroke-dasharray="5,2" d="M827.7,-276.56C881.4,-276.18 957.43,-275.65 1005.2,-275.31"/>
<polygon fill="#9a32cd" stroke="#9a32cd" points="827.58,-273.06 817.61,-276.63 827.63,-280.06 827.58,-273.06"/>
<text text-anchor="middle" x="917.5" y="-280" font-family="Helvetica,sans-Serif" font-size="10.00"> m_ReferenceCount</text>
</g>
<!-- Node7 -->
<g id="node7" class="node">
<title>Node7</title>
<g id="a_node7"><a xlink:title="STL class.">
<polygon fill="white" stroke="#bfbfbf" points="326,-301.5 326,-320.5 426,-320.5 426,-301.5 326,-301.5"/>
<text text-anchor="middle" x="376" y="-308.5" font-family="Helvetica,sans-Serif" font-size="10.00">std::atomic&lt; T &gt;</text>
</a>
</g>
</g>
<!-- Node7&#45;&gt;Node6 -->
<g id="edge6" class="edge">
<title>Node7&#45;&gt;Node6</title>
<path fill="none" stroke="orange" stroke-dasharray="5,2" d="M414.54,-298.31C433.61,-292.47 457.28,-286.16 479,-283 559.04,-271.35 653.08,-272.17 710.34,-274.25"/>
<polygon fill="orange" stroke="orange" points="413.24,-295.05 404.75,-301.38 415.33,-301.73 413.24,-295.05"/>
<text text-anchor="middle" x="569" y="-286" font-family="Helvetica,sans-Serif" font-size="10.00"> &lt; int &gt;</text>
</g>
<!-- Node16 -->
<g id="node16" class="node">
<title>Node16</title>
<g id="a_node16"><a xlink:href="classitk_1_1TimeStamp.html" target="_top" xlink:title="Generate a unique, increasing time value.">
<polygon fill="white" stroke="black" points="871.5,-309.5 871.5,-328.5 963.5,-328.5 963.5,-309.5 871.5,-309.5"/>
<text text-anchor="middle" x="917.5" y="-316.5" font-family="Helvetica,sans-Serif" font-size="10.00">itk::TimeStamp</text>
</a>
</g>
</g>
<!-- Node7&#45;&gt;Node16 -->
<g id="edge18" class="edge">
<title>Node7&#45;&gt;Node16</title>
<path fill="none" stroke="#9a32cd" stroke-dasharray="5,2" d="M436.45,-311.88C545.26,-313.5 774.15,-316.89 871.33,-318.33"/>
<polygon fill="#9a32cd" stroke="#9a32cd" points="436.36,-308.38 426.31,-311.73 436.25,-315.38 436.36,-308.38"/>
<text text-anchor="middle" x="569" y="-319" font-family="Helvetica,sans-Serif" font-size="10.00"> m_GlobalTimeStamp</text>
</g>
<!-- Node8 -->
<g id="node8" class="node">
<title>Node8</title>
<g id="a_node8"><a xlink:title=" ">
<polygon fill="white" stroke="#bfbfbf" points="58.5,-318.5 58.5,-337.5 87.5,-337.5 87.5,-318.5 58.5,-318.5"/>
<text text-anchor="middle" x="73" y="-325.5" font-family="Helvetica,sans-Serif" font-size="10.00">T</text>
</a>
</g>
</g>
<!-- Node8&#45;&gt;Node7 -->
<g id="edge7" class="edge">
<title>Node8&#45;&gt;Node7</title>
<path fill="none" stroke="#9a32cd" stroke-dasharray="5,2" d="M97.56,-322.67C115.63,-318.86 141.25,-314.06 164,-312 219.27,-306.99 283.02,-307.56 325.86,-308.86"/>
<polygon fill="#9a32cd" stroke="#9a32cd" points="96.66,-319.29 87.62,-324.83 98.14,-326.13 96.66,-319.29"/>
<text text-anchor="middle" x="218.5" y="-315" font-family="Helvetica,sans-Serif" font-size="10.00"> ptr</text>
</g>
<!-- Node13 -->
<g id="node13" class="node">
<title>Node13</title>
<g id="a_node13"><a xlink:title="STL class.">
<polygon fill="white" stroke="#bfbfbf" points="325.5,-399.5 325.5,-418.5 426.5,-418.5 426.5,-399.5 325.5,-399.5"/>
<text text-anchor="middle" x="376" y="-406.5" font-family="Helvetica,sans-Serif" font-size="10.00">std::map&lt; K, T &gt;</text>
</a>
</g>
</g>
<!-- Node8&#45;&gt;Node13 -->
<g id="edge14" class="edge">
<title>Node8&#45;&gt;Node13</title>
<path fill="none" stroke="#9a32cd" stroke-dasharray="5,2" d="M97.32,-336.01C115.41,-342.1 141.16,-350.52 164,-357 221.89,-373.44 289.55,-389.58 332.33,-399.41"/>
<polygon fill="#9a32cd" stroke="#9a32cd" points="98.23,-332.62 87.63,-332.72 95.98,-339.25 98.23,-332.62"/>
<text text-anchor="middle" x="218.5" y="-388" font-family="Helvetica,sans-Serif" font-size="10.00"> elements</text>
</g>
<!-- Node15 -->
<g id="node15" class="node">
<title>Node15</title>
<g id="a_node15"><a xlink:title="STL class.">
<polygon fill="white" stroke="#bfbfbf" points="317,-348.5 317,-367.5 435,-367.5 435,-348.5 317,-348.5"/>
<text text-anchor="middle" x="376" y="-355.5" font-family="Helvetica,sans-Serif" font-size="10.00">std::shared_ptr&lt; T &gt;</text>
</a>
</g>
</g>
<!-- Node8&#45;&gt;Node15 -->
<g id="edge16" class="edge">
<title>Node8&#45;&gt;Node15</title>
<path fill="none" stroke="#9a32cd" stroke-dasharray="5,2" d="M97.87,-329.95C135.25,-333.05 209.84,-339.43 273,-346 287.19,-347.48 302.47,-349.2 316.78,-350.88"/>
<polygon fill="#9a32cd" stroke="#9a32cd" points="97.78,-326.43 87.52,-329.1 97.2,-333.41 97.78,-326.43"/>
<text text-anchor="middle" x="218.5" y="-349" font-family="Helvetica,sans-Serif" font-size="10.00"> ptr</text>
</g>
<!-- Node33 -->
<g id="node33" class="node">
<title>Node33</title>
<g id="a_node33"><a xlink:title="STL class.">
<polygon fill="white" stroke="#bfbfbf" points="327.5,-48.5 327.5,-67.5 424.5,-67.5 424.5,-48.5 327.5,-48.5"/>
<text text-anchor="middle" x="376" y="-55.5" font-family="Helvetica,sans-Serif" font-size="10.00">std::vector&lt; T &gt;</text>
</a>
</g>
</g>
<!-- Node8&#45;&gt;Node33 -->
<g id="edge45" class="edge">
<title>Node8&#45;&gt;Node33</title>
<path fill="none" stroke="#9a32cd" stroke-dasharray="5,2" d="M85.76,-309.47C115.02,-264.79 195.67,-150.15 291,-87 303.99,-78.39 319.81,-72.07 334.19,-67.56"/>
<polygon fill="#9a32cd" stroke="#9a32cd" points="82.65,-307.83 80.16,-318.13 88.53,-311.63 82.65,-307.83"/>
<text text-anchor="middle" x="218.5" y="-203" font-family="Helvetica,sans-Serif" font-size="10.00"> elements</text>
</g>
<!-- Node9 -->
<g id="node9" class="node">
<title>Node9</title>
<g id="a_node9"><a xlink:title="STL class.">
<polygon fill="white" stroke="#bfbfbf" points="1018.5,-350.5 1018.5,-369.5 1083.5,-369.5 1083.5,-350.5 1018.5,-350.5"/>
<text text-anchor="middle" x="1051" y="-357.5" font-family="Helvetica,sans-Serif" font-size="10.00">std::string</text>
</a>
</g>
</g>
<!-- Node9&#45;&gt;Node4 -->
<g id="edge8" class="edge">
<title>Node9&#45;&gt;Node4</title>
<path fill="none" stroke="#9a32cd" stroke-dasharray="5,2" d="M1093.59,-356.11C1138.63,-351.72 1212.56,-344.01 1276,-335 1291.97,-332.73 1309.62,-329.74 1324.36,-327.1"/>
<polygon fill="#9a32cd" stroke="#9a32cd" points="1093.22,-352.63 1083.61,-357.08 1093.9,-359.6 1093.22,-352.63"/>
<text text-anchor="middle" x="1206" y="-355" font-family="Helvetica,sans-Serif" font-size="10.00"> m_ObjectName</text>
</g>
<!-- Node10 -->
<g id="node10" class="node">
<title>Node10</title>
<g id="a_node10"><a xlink:title="STL class.">
<polygon fill="white" stroke="#bfbfbf" points="712,-345 712,-375 816,-375 816,-345 712,-345"/>
<text text-anchor="start" x="720" y="-363" font-family="Helvetica,sans-Serif" font-size="10.00">std::basic_string&lt;</text>
<text text-anchor="middle" x="764" y="-352" font-family="Helvetica,sans-Serif" font-size="10.00"> char &gt;</text>
</a>
</g>
</g>
<!-- Node10&#45;&gt;Node9 -->
<g id="edge9" class="edge">
<title>Node10&#45;&gt;Node9</title>
<path fill="none" stroke="midnightblue" d="M826.58,-360C885.47,-360 971.94,-360 1018.13,-360"/>
<polygon fill="midnightblue" stroke="midnightblue" points="826.28,-356.5 816.28,-360 826.28,-363.5 826.28,-356.5"/>
</g>
<!-- Node11 -->
<g id="node11" class="node">
<title>Node11</title>
<g id="a_node11"><a xlink:href="classitk_1_1MetaDataDictionary.html" target="_top" xlink:title="Provides a mechanism for storing a collection of arbitrary data types.">
<polygon fill="white" stroke="black" points="984,-393.5 984,-412.5 1118,-412.5 1118,-393.5 984,-393.5"/>
<text text-anchor="middle" x="1051" y="-400.5" font-family="Helvetica,sans-Serif" font-size="10.00">itk::MetaDataDictionary</text>
</a>
</g>
</g>
<!-- Node11&#45;&gt;Node4 -->
<g id="edge10" class="edge">
<title>Node11&#45;&gt;Node4</title>
<path fill="none" stroke="#9a32cd" stroke-dasharray="5,2" d="M1128.3,-397.54C1172.41,-392.72 1228.42,-383.72 1276,-367 1301.48,-358.05 1328.19,-341.2 1343.68,-330.57"/>
<polygon fill="#9a32cd" stroke="#9a32cd" points="1127.8,-394.07 1118.22,-398.59 1128.52,-401.03 1127.8,-394.07"/>
<text text-anchor="middle" x="1206" y="-399" font-family="Helvetica,sans-Serif" font-size="10.00"> m_MetaDataDictionary</text>
</g>
<!-- Node12 -->
<g id="node12" class="node">
<title>Node12</title>
<g id="a_node12"><a xlink:title=" ">
<polygon fill="white" stroke="#bfbfbf" points="689.5,-394 689.5,-424 838.5,-424 838.5,-394 689.5,-394"/>
<text text-anchor="start" x="697.5" y="-412" font-family="Helvetica,sans-Serif" font-size="10.00">std::shared_ptr&lt; MetaData</text>
<text text-anchor="middle" x="764" y="-401" font-family="Helvetica,sans-Serif" font-size="10.00">DictionaryMapType &gt;</text>
</a>
</g>
</g>
<!-- Node12&#45;&gt;Node11 -->
<g id="edge11" class="edge">
<title>Node12&#45;&gt;Node11</title>
<path fill="none" stroke="#9a32cd" stroke-dasharray="5,2" d="M848.94,-407.23C891.99,-406.33 943.66,-405.24 983.84,-404.39"/>
<polygon fill="#9a32cd" stroke="#9a32cd" points="848.69,-403.74 838.77,-407.45 848.84,-410.74 848.69,-403.74"/>
<text text-anchor="middle" x="917.5" y="-409" font-family="Helvetica,sans-Serif" font-size="10.00"> m_Dictionary</text>
</g>
<!-- Node13&#45;&gt;Node12 -->
<g id="edge12" class="edge">
<title>Node13&#45;&gt;Node12</title>
<path fill="none" stroke="#9a32cd" stroke-dasharray="5,2" d="M436.8,-409C504.88,-409 616.11,-409 689.43,-409"/>
<polygon fill="#9a32cd" stroke="#9a32cd" points="436.67,-405.5 426.67,-409 436.67,-412.5 436.67,-405.5"/>
<text text-anchor="middle" x="569" y="-412" font-family="Helvetica,sans-Serif" font-size="10.00"> ptr</text>
</g>
<!-- Node14 -->
<g id="node14" class="node">
<title>Node14</title>
<g id="a_node14"><a xlink:title=" ">
<polygon fill="white" stroke="#bfbfbf" points="58.5,-403.5 58.5,-422.5 87.5,-422.5 87.5,-403.5 58.5,-403.5"/>
<text text-anchor="middle" x="73" y="-410.5" font-family="Helvetica,sans-Serif" font-size="10.00">K</text>
</a>
</g>
</g>
<!-- Node14&#45;&gt;Node13 -->
<g id="edge13" class="edge">
<title>Node14&#45;&gt;Node13</title>
<path fill="none" stroke="#9a32cd" stroke-dasharray="5,2" d="M97.97,-412.68C147.03,-412.03 259.78,-410.53 325.32,-409.66"/>
<polygon fill="#9a32cd" stroke="#9a32cd" points="97.67,-409.19 87.72,-412.82 97.76,-416.18 97.67,-409.19"/>
<text text-anchor="middle" x="218.5" y="-414" font-family="Helvetica,sans-Serif" font-size="10.00"> keys</text>
</g>
<!-- Node15&#45;&gt;Node12 -->
<g id="edge15" class="edge">
<title>Node15&#45;&gt;Node12</title>
<path fill="none" stroke="orange" stroke-dasharray="5,2" d="M445.09,-366.38C502.23,-373.48 585.99,-384.08 659,-394 668.85,-395.34 679.22,-396.79 689.44,-398.24"/>
<polygon fill="orange" stroke="orange" points="445.45,-362.9 435.1,-365.14 444.59,-369.84 445.45,-362.9"/>
<text text-anchor="middle" x="569" y="-397" font-family="Helvetica,sans-Serif" font-size="10.00"> &lt; MetaDataDictionaryMapType &gt;</text>
</g>
<!-- Node16&#45;&gt;Node4 -->
<g id="edge17" class="edge">
<title>Node16&#45;&gt;Node4</title>
<path fill="none" stroke="#9a32cd" stroke-dasharray="5,2" d="M973.79,-319.25C1066.3,-319.67 1249.66,-320.51 1324.27,-320.85"/>
<polygon fill="#9a32cd" stroke="#9a32cd" points="973.79,-315.75 963.78,-319.21 973.76,-322.75 973.79,-315.75"/>
<text text-anchor="middle" x="1051" y="-323" font-family="Helvetica,sans-Serif" font-size="10.00"> m_MTime</text>
</g>
<!-- Node17&#45;&gt;Node3 -->
<g id="edge19" class="edge">
<title>Node17&#45;&gt;Node3</title>
<path fill="none" stroke="orange" stroke-dasharray="5,2" d="M1615.96,-302C1684.71,-302 1795.11,-302 1876.9,-302"/>
<polygon fill="orange" stroke="orange" points="1615.72,-298.5 1605.71,-302 1615.71,-305.5 1615.72,-298.5"/>
<text text-anchor="start" x="1661" y="-327" font-family="Helvetica,sans-Serif" font-size="10.00"> &lt; Point&lt; float, TInputImage</text>
<text text-anchor="start" x="1661" y="-316" font-family="Helvetica,sans-Serif" font-size="10.00">::ImageDimension &gt;, NumericTraits</text>
<text text-anchor="middle" x="1760" y="-305" font-family="Helvetica,sans-Serif" font-size="10.00">&lt; TInputImage::PixelType &gt;::RealType &gt;</text>
</g>
<!-- Node17&#45;&gt;Node29 -->
<g id="edge39" class="edge">
<title>Node17&#45;&gt;Node29</title>
<path fill="none" stroke="orange" stroke-dasharray="5,2" d="M1615.68,-285.91C1630.51,-282.41 1646.27,-278.9 1661,-276 1740.66,-260.34 1832.19,-246.53 1897.25,-237.41"/>
<polygon fill="orange" stroke="orange" points="1614.51,-282.59 1605.59,-288.31 1616.13,-289.4 1614.51,-282.59"/>
<text text-anchor="start" x="1681.5" y="-290" font-family="Helvetica,sans-Serif" font-size="10.00"> &lt; Point&lt; float, TInputImage</text>
<text text-anchor="middle" x="1760" y="-279" font-family="Helvetica,sans-Serif" font-size="10.00">::ImageDimension &gt;, TOutput &gt;</text>
</g>
<!-- Node18 -->
<g id="node18" class="node">
<title>Node18</title>
<g id="a_node18"><a xlink:href="classitk_1_1ContinuousIndex.html" target="_top" xlink:title=" ">
<polygon fill="white" stroke="black" points="1897,-156 1897,-186 2071,-186 2071,-156 1897,-156"/>
<text text-anchor="start" x="1905" y="-174" font-family="Helvetica,sans-Serif" font-size="10.00">itk::ContinuousIndex</text>
<text text-anchor="middle" x="1984" y="-163" font-family="Helvetica,sans-Serif" font-size="10.00">&lt; float, Self::ImageDimension &gt;</text>
</a>
</g>
</g>
<!-- Node18&#45;&gt;Node2 -->
<g id="edge21" class="edge">
<title>Node18&#45;&gt;Node2</title>
<path fill="none" stroke="#9a32cd" stroke-dasharray="5,2" d="M2081.35,-184.66C2090.68,-185.61 2100.01,-186.42 2109,-187 2305.93,-199.65 2356.03,-198.95 2553,-187 2558.85,-186.65 2564.88,-186.17 2570.94,-185.62"/>
<polygon fill="#9a32cd" stroke="#9a32cd" points="2081.56,-181.16 2071.25,-183.57 2080.82,-188.12 2081.56,-181.16"/>
<text text-anchor="middle" x="2316.5" y="-211" font-family="Helvetica,sans-Serif" font-size="10.00"> m_EndContinuousIndex</text>
<text text-anchor="middle" x="2316.5" y="-200" font-family="Helvetica,sans-Serif" font-size="10.00">m_StartContinuousIndex</text>
</g>
<!-- Node28 -->
<g id="node28" class="node">
<title>Node28</title>
<g id="a_node28"><a xlink:href="classitk_1_1ImageFunction.html" target="_top" xlink:title="Evaluates a function of an image at specified position.">
<polygon fill="white" stroke="black" points="2248,-123.5 2248,-164.5 2385,-164.5 2385,-123.5 2248,-123.5"/>
<text text-anchor="start" x="2256" y="-152.5" font-family="Helvetica,sans-Serif" font-size="10.00">itk::ImageFunction</text>
<text text-anchor="start" x="2256" y="-141.5" font-family="Helvetica,sans-Serif" font-size="10.00">&lt; TInputImage, TOutput,</text>
<text text-anchor="middle" x="2316.5" y="-130.5" font-family="Helvetica,sans-Serif" font-size="10.00"> TCoordRep &gt;</text>
</a>
</g>
</g>
<!-- Node18&#45;&gt;Node28 -->
<g id="edge40" class="edge">
<title>Node18&#45;&gt;Node28</title>
<path fill="none" stroke="#9a32cd" stroke-dasharray="5,2" d="M2081.57,-163.11C2134.93,-158.75 2199.92,-153.44 2247.85,-149.53"/>
<polygon fill="#9a32cd" stroke="#9a32cd" points="2081.09,-159.64 2071.4,-163.94 2081.66,-166.62 2081.09,-159.64"/>
<text text-anchor="middle" x="2169.5" y="-175" font-family="Helvetica,sans-Serif" font-size="10.00"> m_EndContinuousIndex</text>
<text text-anchor="middle" x="2169.5" y="-164" font-family="Helvetica,sans-Serif" font-size="10.00">m_StartContinuousIndex</text>
</g>
<!-- Node19 -->
<g id="node19" class="node">
<title>Node19</title>
<g id="a_node19"><a xlink:href="classitk_1_1Point.html" target="_top" xlink:title=" ">
<polygon fill="white" stroke="black" points="1299.5,-118 1299.5,-148 1416.5,-148 1416.5,-118 1299.5,-118"/>
<text text-anchor="start" x="1307.5" y="-136" font-family="Helvetica,sans-Serif" font-size="10.00">itk::Point&lt; float,</text>
<text text-anchor="middle" x="1358" y="-125" font-family="Helvetica,sans-Serif" font-size="10.00"> VIndexDimension &gt;</text>
</a>
</g>
</g>
<!-- Node19&#45;&gt;Node18 -->
<g id="edge22" class="edge">
<title>Node19&#45;&gt;Node18</title>
<path fill="none" stroke="midnightblue" d="M1426.6,-137.12C1540.73,-144.07 1771.47,-158.12 1896.97,-165.76"/>
<polygon fill="midnightblue" stroke="midnightblue" points="1426.78,-133.62 1416.59,-136.51 1426.35,-140.61 1426.78,-133.62"/>
</g>
<!-- Node20 -->
<g id="node20" class="node">
<title>Node20</title>
<g id="a_node20"><a xlink:href="classitk_1_1FixedArray.html" target="_top" xlink:title=" ">
<polygon fill="white" stroke="black" points="702.5,-90 702.5,-120 825.5,-120 825.5,-90 702.5,-90"/>
<text text-anchor="start" x="710.5" y="-108" font-family="Helvetica,sans-Serif" font-size="10.00">itk::FixedArray&lt; float,</text>
<text text-anchor="middle" x="764" y="-97" font-family="Helvetica,sans-Serif" font-size="10.00"> NPointDimension &gt;</text>
</a>
</g>
</g>
<!-- Node20&#45;&gt;Node19 -->
<g id="edge23" class="edge">
<title>Node20&#45;&gt;Node19</title>
<path fill="none" stroke="midnightblue" d="M835.71,-108.27C934.34,-112.84 1118.78,-121.43 1276,-129 1283.59,-129.37 1291.59,-129.76 1299.48,-130.14"/>
<polygon fill="midnightblue" stroke="midnightblue" points="835.72,-104.76 825.57,-107.8 835.4,-111.76 835.72,-104.76"/>
</g>
<!-- Node21 -->
<g id="node21" class="node">
<title>Node21</title>
<g id="a_node21"><a xlink:title=" ">
<polygon fill="white" stroke="#bfbfbf" points="348,-204.5 348,-223.5 404,-223.5 404,-204.5 348,-204.5"/>
<text text-anchor="middle" x="376" y="-211.5" font-family="Helvetica,sans-Serif" font-size="10.00">VLength</text>
</a>
</g>
</g>
<!-- Node21&#45;&gt;Node20 -->
<g id="edge24" class="edge">
<title>Node21&#45;&gt;Node20</title>
<path fill="none" stroke="#9a32cd" stroke-dasharray="5,2" d="M395.02,-197.81C414.3,-181.49 446.53,-157.06 479,-145 554.51,-116.97 579.34,-135.91 659,-124 673.07,-121.9 688.15,-119.33 702.34,-116.76"/>
<polygon fill="#9a32cd" stroke="#9a32cd" points="392.61,-195.26 387.35,-204.45 397.2,-200.55 392.61,-195.26"/>
<text text-anchor="middle" x="569" y="-148" font-family="Helvetica,sans-Serif" font-size="10.00"> m_InternalArray</text>
</g>
<!-- Node24 -->
<g id="node24" class="node">
<title>Node24</title>
<g id="a_node24"><a xlink:href="classitk_1_1FixedArray.html" target="_top" xlink:title=" ">
<polygon fill="white" stroke="black" points="677,-142.5 677,-161.5 851,-161.5 851,-142.5 677,-142.5"/>
<text text-anchor="middle" x="764" y="-149.5" font-family="Helvetica,sans-Serif" font-size="10.00">itk::FixedArray&lt; TCoordRep, 3 &gt;</text>
</a>
</g>
</g>
<!-- Node21&#45;&gt;Node24 -->
<g id="edge28" class="edge">
<title>Node21&#45;&gt;Node24</title>
<path fill="none" stroke="#9a32cd" stroke-dasharray="5,2" d="M414.78,-212.56C486.58,-209.6 637.5,-202.26 659,-192 669.5,-186.99 666.94,-178.84 677,-173 685.37,-168.14 694.83,-164.4 704.34,-161.52"/>
<polygon fill="#9a32cd" stroke="#9a32cd" points="414.23,-209.08 404.38,-212.98 414.51,-216.07 414.23,-209.08"/>
<text text-anchor="middle" x="569" y="-213" font-family="Helvetica,sans-Serif" font-size="10.00"> m_InternalArray</text>
</g>
<!-- Node27 -->
<g id="node27" class="node">
<title>Node27</title>
<g id="a_node27"><a xlink:href="classitk_1_1FixedArray.html" target="_top" xlink:title=" ">
<polygon fill="white" stroke="black" points="697,-183 697,-213 831,-213 831,-183 697,-183"/>
<text text-anchor="start" x="705" y="-201" font-family="Helvetica,sans-Serif" font-size="10.00">itk::FixedArray&lt; double,</text>
<text text-anchor="middle" x="764" y="-190" font-family="Helvetica,sans-Serif" font-size="10.00"> NPointDimension &gt;</text>
</a>
</g>
</g>
<!-- Node21&#45;&gt;Node27 -->
<g id="edge33" class="edge">
<title>Node21&#45;&gt;Node27</title>
<path fill="none" stroke="#9a32cd" stroke-dasharray="5,2" d="M414.53,-219.72C468.75,-227.04 572.01,-237.51 659,-226 678.46,-223.43 699.46,-218.25 717.45,-213.05"/>
<polygon fill="#9a32cd" stroke="#9a32cd" points="414.75,-216.21 404.36,-218.3 413.78,-223.15 414.75,-216.21"/>
<text text-anchor="middle" x="569" y="-235" font-family="Helvetica,sans-Serif" font-size="10.00"> m_InternalArray</text>
</g>
<!-- Node22 -->
<g id="node22" class="node">
<title>Node22</title>
<g id="a_node22"><a xlink:href="classitk_1_1FixedArray.html" target="_top" xlink:title="Simulate a standard C array with copy semantics.">
<polygon fill="white" stroke="black" points="309,-97 309,-127 443,-127 443,-97 309,-97"/>
<text text-anchor="start" x="317" y="-115" font-family="Helvetica,sans-Serif" font-size="10.00">itk::FixedArray&lt; TValue,</text>
<text text-anchor="middle" x="376" y="-104" font-family="Helvetica,sans-Serif" font-size="10.00"> VLength &gt;</text>
</a>
</g>
</g>
<!-- Node22&#45;&gt;Node20 -->
<g id="edge25" class="edge">
<title>Node22&#45;&gt;Node20</title>
<path fill="none" stroke="orange" stroke-dasharray="5,2" d="M423.83,-93.46C440.91,-87.61 460.56,-81.91 479,-79 558.02,-66.53 579.6,-69.23 659,-79 677.01,-81.22 696.39,-85.52 713.48,-89.99"/>
<polygon fill="orange" stroke="orange" points="422.36,-90.27 414.1,-96.9 424.69,-96.86 422.36,-90.27"/>
<text text-anchor="middle" x="569" y="-82" font-family="Helvetica,sans-Serif" font-size="10.00"> &lt; float, NPointDimension &gt;</text>
</g>
<!-- Node22&#45;&gt;Node24 -->
<g id="edge29" class="edge">
<title>Node22&#45;&gt;Node24</title>
<path fill="none" stroke="orange" stroke-dasharray="5,2" d="M453.48,-98C511.78,-90.67 592.99,-87.77 659,-113 669,-116.82 667.58,-123.93 677,-129 687.61,-134.72 699.74,-139.08 711.48,-142.39"/>
<polygon fill="orange" stroke="orange" points="452.69,-94.58 443.24,-99.37 453.61,-101.52 452.69,-94.58"/>
<text text-anchor="middle" x="569" y="-116" font-family="Helvetica,sans-Serif" font-size="10.00"> &lt; TCoordRep, 3 &gt;</text>
</g>
<!-- Node22&#45;&gt;Node27 -->
<g id="edge34" class="edge">
<title>Node22&#45;&gt;Node27</title>
<path fill="none" stroke="orange" stroke-dasharray="5,2" d="M413.2,-131.62C432.25,-141.08 456.31,-151.72 479,-158 556.63,-179.48 579.34,-167.09 659,-179 671.25,-180.83 684.27,-183.02 696.81,-185.25"/>
<polygon fill="orange" stroke="orange" points="414.78,-128.49 404.28,-127.09 411.61,-134.73 414.78,-128.49"/>
<text text-anchor="middle" x="569" y="-182" font-family="Helvetica,sans-Serif" font-size="10.00"> &lt; double, NPointDimension &gt;</text>
</g>
<!-- Node23 -->
<g id="node23" class="node">
<title>Node23</title>
<g id="a_node23"><a xlink:href="classitk_1_1Point.html" target="_top" xlink:title="A templated class holding a geometric point in n&#45;Dimensional space.">
<polygon fill="white" stroke="black" points="987.5,-137 987.5,-167 1114.5,-167 1114.5,-137 987.5,-137"/>
<text text-anchor="start" x="995.5" y="-155" font-family="Helvetica,sans-Serif" font-size="10.00">itk::Point&lt; TCoordRep,</text>
<text text-anchor="middle" x="1051" y="-144" font-family="Helvetica,sans-Serif" font-size="10.00"> NPointDimension &gt;</text>
</a>
</g>
</g>
<!-- Node23&#45;&gt;Node19 -->
<g id="edge26" class="edge">
<title>Node23&#45;&gt;Node19</title>
<path fill="none" stroke="orange" stroke-dasharray="5,2" d="M1124.79,-140.16C1128.58,-139.72 1132.33,-139.33 1136,-139 1191.24,-134 1254.53,-132.73 1299.18,-132.58"/>
<polygon fill="orange" stroke="orange" points="1124.23,-136.7 1114.73,-141.4 1125.09,-143.65 1124.23,-136.7"/>
<text text-anchor="middle" x="1206" y="-142" font-family="Helvetica,sans-Serif" font-size="10.00"> &lt; float, VIndexDimension &gt;</text>
</g>
<!-- Node26 -->
<g id="node26" class="node">
<title>Node26</title>
<g id="a_node26"><a xlink:href="classitk_1_1Point.html" target="_top" xlink:title=" ">
<polygon fill="white" stroke="black" points="1294,-167.5 1294,-186.5 1422,-186.5 1422,-167.5 1294,-167.5"/>
<text text-anchor="middle" x="1358" y="-174.5" font-family="Helvetica,sans-Serif" font-size="10.00">itk::Point&lt; double, 2 &gt;</text>
</a>
</g>
</g>
<!-- Node23&#45;&gt;Node26 -->
<g id="edge35" class="edge">
<title>Node23&#45;&gt;Node26</title>
<path fill="none" stroke="orange" stroke-dasharray="5,2" d="M1124.9,-157.98C1176.43,-162.2 1244.82,-167.8 1293.99,-171.84"/>
<polygon fill="orange" stroke="orange" points="1125.08,-154.48 1114.83,-157.15 1124.51,-161.46 1125.08,-154.48"/>
<text text-anchor="middle" x="1206" y="-174" font-family="Helvetica,sans-Serif" font-size="10.00"> &lt; double, 2 &gt;</text>
</g>
<!-- Node24&#45;&gt;Node23 -->
<g id="edge27" class="edge">
<title>Node24&#45;&gt;Node23</title>
<path fill="none" stroke="midnightblue" d="M861.42,-152C902.9,-152 950.23,-152 987.09,-152"/>
<polygon fill="midnightblue" stroke="midnightblue" points="861.28,-148.5 851.28,-152 861.28,-155.5 861.28,-148.5"/>
</g>
<!-- Node25 -->
<g id="node25" class="node">
<title>Node25</title>
<g id="a_node25"><a xlink:href="classitk_1_1ContinuousIndex.html" target="_top" xlink:title="A templated class holding a point in n&#45;Dimensional image space.">
<polygon fill="white" stroke="black" points="1459,-162 1459,-192 1643,-192 1643,-162 1459,-162"/>
<text text-anchor="start" x="1467" y="-180" font-family="Helvetica,sans-Serif" font-size="10.00">itk::ContinuousIndex</text>
<text text-anchor="middle" x="1551" y="-169" font-family="Helvetica,sans-Serif" font-size="10.00">&lt; TCoordRep, VIndexDimension &gt;</text>
</a>
</g>
</g>
<!-- Node25&#45;&gt;Node18 -->
<g id="edge30" class="edge">
<title>Node25&#45;&gt;Node18</title>
<path fill="none" stroke="orange" stroke-dasharray="5,2" d="M1653.41,-175.59C1727.39,-174.56 1826.58,-173.18 1896.76,-172.2"/>
<polygon fill="orange" stroke="orange" points="1653.09,-172.09 1643.14,-175.73 1653.19,-179.09 1653.09,-172.09"/>
<text text-anchor="middle" x="1760" y="-179" font-family="Helvetica,sans-Serif" font-size="10.00"> &lt; float, Self::ImageDimension &gt;</text>
</g>
<!-- Node26&#45;&gt;Node25 -->
<g id="edge31" class="edge">
<title>Node26&#45;&gt;Node25</title>
<path fill="none" stroke="midnightblue" d="M1432.13,-177C1440.82,-177 1449.76,-177 1458.67,-177"/>
<polygon fill="midnightblue" stroke="midnightblue" points="1432.07,-173.5 1422.07,-177 1432.07,-180.5 1432.07,-173.5"/>
</g>
<!-- Node27&#45;&gt;Node26 -->
<g id="edge32" class="edge">
<title>Node27&#45;&gt;Node26</title>
<path fill="none" stroke="midnightblue" d="M841.2,-197.31C941.11,-196.08 1121.81,-192.77 1276,-184 1281.78,-183.67 1287.78,-183.27 1293.79,-182.82"/>
<polygon fill="midnightblue" stroke="midnightblue" points="841.16,-193.81 831.2,-197.43 841.24,-200.81 841.16,-193.81"/>
</g>
<!-- Node28&#45;&gt;Node2 -->
<g id="edge36" class="edge">
<title>Node28&#45;&gt;Node2</title>
<path fill="none" stroke="orange" stroke-dasharray="5,2" d="M2395.21,-144.03C2441.25,-144.87 2500.63,-147.35 2553,-154 2558.81,-154.74 2564.79,-155.64 2570.79,-156.66"/>
<polygon fill="orange" stroke="orange" points="2395.06,-140.53 2385,-143.87 2394.95,-147.53 2395.06,-140.53"/>
<text text-anchor="start" x="2403" y="-179" font-family="Helvetica,sans-Serif" font-size="10.00"> &lt; TInputImage, NumericTraits</text>
<text text-anchor="start" x="2403" y="-168" font-family="Helvetica,sans-Serif" font-size="10.00">&lt; TInputImage::PixelType</text>
<text text-anchor="middle" x="2478" y="-157" font-family="Helvetica,sans-Serif" font-size="10.00"> &gt;::RealType, float &gt;</text>
</g>
<!-- Node29&#45;&gt;Node28 -->
<g id="edge37" class="edge">
<title>Node29&#45;&gt;Node28</title>
<path fill="none" stroke="midnightblue" d="M2080.65,-217.69C2126.6,-211.96 2181.98,-202.49 2230,-187 2235.02,-185.38 2256.1,-174.79 2276.07,-164.52"/>
<polygon fill="midnightblue" stroke="midnightblue" points="2080.21,-214.22 2070.7,-218.89 2081.05,-221.17 2080.21,-214.22"/>
</g>
<!-- Node30 -->
<g id="node30" class="node">
<title>Node30</title>
<g id="a_node30"><a xlink:title=" ">
<polygon fill="white" stroke="#bfbfbf" points="697,-29 697,-59 831,-59 831,-29 697,-29"/>
<text text-anchor="start" x="705" y="-47" font-family="Helvetica,sans-Serif" font-size="10.00">std::vector&lt; itk::Offset</text>
<text text-anchor="middle" x="764" y="-36" font-family="Helvetica,sans-Serif" font-size="10.00">&lt; ImageDimension &gt; &gt;</text>
</a>
</g>
</g>
<!-- Node30&#45;&gt;Node1 -->
<g id="edge41" class="edge">
<title>Node30&#45;&gt;Node1</title>
<path fill="none" stroke="#9a32cd" stroke-dasharray="5,2" d="M841.27,-48.96C898.64,-52.26 979.22,-56 1050,-56 1050,-56 1050,-56 2653.5,-56 2692.19,-56 2735.1,-58.36 2770.89,-60.98"/>
<polygon fill="#9a32cd" stroke="#9a32cd" points="841.38,-45.46 831.19,-48.37 840.97,-52.44 841.38,-45.46"/>
<text text-anchor="middle" x="1760" y="-59" font-family="Helvetica,sans-Serif" font-size="10.00"> m_NeighborhoodOffsets</text>
</g>
<!-- Node31 -->
<g id="node31" class="node">
<title>Node31</title>
<g id="a_node31"><a xlink:href="structitk_1_1Offset.html" target="_top" xlink:title=" ">
<polygon fill="white" stroke="black" points="291,-0.5 291,-19.5 461,-19.5 461,-0.5 291,-0.5"/>
<text text-anchor="middle" x="376" y="-7.5" font-family="Helvetica,sans-Serif" font-size="10.00">itk::Offset&lt; ImageDimension &gt;</text>
</a>
</g>
</g>
<!-- Node31&#45;&gt;Node30 -->
<g id="edge42" class="edge">
<title>Node31&#45;&gt;Node30</title>
<path fill="none" stroke="#9a32cd" stroke-dasharray="5,2" d="M471.29,-17.76C526.09,-22.34 596.46,-28.33 659,-34 671.28,-35.11 684.38,-36.34 696.99,-37.54"/>
<polygon fill="#9a32cd" stroke="#9a32cd" points="471.5,-14.27 461.24,-16.93 470.91,-21.25 471.5,-14.27"/>
<text text-anchor="middle" x="569" y="-37" font-family="Helvetica,sans-Serif" font-size="10.00"> elements</text>
</g>
<!-- Node32 -->
<g id="node32" class="node">
<title>Node32</title>
<g id="a_node32"><a xlink:href="structitk_1_1Offset.html" target="_top" xlink:title="Represent a n&#45;dimensional offset between two n&#45;dimensional indexes of n&#45;dimensional image.">
<polygon fill="white" stroke="black" points="0,-0.5 0,-19.5 146,-19.5 146,-0.5 0,-0.5"/>
<text text-anchor="middle" x="73" y="-7.5" font-family="Helvetica,sans-Serif" font-size="10.00">itk::Offset&lt; VDimension &gt;</text>
</a>
</g>
</g>
<!-- Node32&#45;&gt;Node31 -->
<g id="edge43" class="edge">
<title>Node32&#45;&gt;Node31</title>
<path fill="none" stroke="orange" stroke-dasharray="5,2" d="M156.25,-10C198.1,-10 248.86,-10 290.96,-10"/>
<polygon fill="orange" stroke="orange" points="156.1,-6.5 146.1,-10 156.1,-13.5 156.1,-6.5"/>
<text text-anchor="middle" x="218.5" y="-13" font-family="Helvetica,sans-Serif" font-size="10.00"> &lt; ImageDimension &gt;</text>
</g>
<!-- Node33&#45;&gt;Node30 -->
<g id="edge44" class="edge">
<title>Node33&#45;&gt;Node30</title>
<path fill="none" stroke="orange" stroke-dasharray="5,2" d="M434.72,-55.91C504.94,-53.36 623.23,-49.07 697,-46.39"/>
<polygon fill="orange" stroke="orange" points="434.58,-52.41 424.72,-56.27 434.84,-59.4 434.58,-52.41"/>
<text text-anchor="middle" x="569" y="-58" font-family="Helvetica,sans-Serif" font-size="10.00"> &lt; itk::Offset&lt; ImageDimension &gt; &gt;</text>
</g>
</g>
</svg>
