<?xml version="1.0" encoding="UTF-8" standalone="no"?>
<!DOCTYPE svg PUBLIC "-//W3C//DTD SVG 1.1//EN"
 "http://www.w3.org/Graphics/SVG/1.1/DTD/svg11.dtd">
<!-- Generated by graphviz version 2.43.0 (0)
 -->
<!-- Title: itk::ThinPlateSplineKernelTransform&lt; TParametersValueType, NDimensions &gt; Pages: 1 -->
<svg width="2672pt" height="256pt"
 viewBox="0.00 0.00 2672.00 255.50" xmlns="http://www.w3.org/2000/svg" xmlns:xlink="http://www.w3.org/1999/xlink">
<g id="graph0" class="graph" transform="scale(1 1) rotate(0) translate(4 251.5)">
<title>itk::ThinPlateSplineKernelTransform&lt; TParametersValueType, NDimensions &gt;</title>
<polygon fill="white" stroke="transparent" points="-4,4 -4,-251.5 2668,-251.5 2668,4 -4,4"/>
<!-- Node1 -->
<g id="node1" class="node">
<title>Node1</title>
<g id="a_node1"><a xlink:title=" ">
<polygon fill="#bfbfbf" stroke="black" points="2473,-164 2473,-205 2664,-205 2664,-164 2473,-164"/>
<text text-anchor="start" x="2481" y="-193" font-family="Helvetica,sans-Serif" font-size="10.00">itk::ThinPlateSplineKernel</text>
<text text-anchor="start" x="2481" y="-182" font-family="Helvetica,sans-Serif" font-size="10.00">Transform&lt; TParametersValueType,</text>
<text text-anchor="middle" x="2568.5" y="-171" font-family="Helvetica,sans-Serif" font-size="10.00"> NDimensions &gt;</text>
</a>
</g>
</g>
<!-- Node2 -->
<g id="node2" class="node">
<title>Node2</title>
<g id="a_node2"><a xlink:href="classitk_1_1KernelTransform.html" target="_top" xlink:title=" ">
<polygon fill="white" stroke="black" points="2274,-169.5 2274,-199.5 2436,-199.5 2436,-169.5 2274,-169.5"/>
<text text-anchor="start" x="2282" y="-187.5" font-family="Helvetica,sans-Serif" font-size="10.00">itk::KernelTransform</text>
<text text-anchor="middle" x="2355" y="-176.5" font-family="Helvetica,sans-Serif" font-size="10.00">&lt; TParametersValueType, 3 &gt;</text>
</a>
</g>
</g>
<!-- Node2&#45;&gt;Node1 -->
<g id="edge1" class="edge">
<title>Node2&#45;&gt;Node1</title>
<path fill="none" stroke="midnightblue" d="M2446.41,-184.5C2455.13,-184.5 2463.99,-184.5 2472.74,-184.5"/>
<polygon fill="midnightblue" stroke="midnightblue" points="2446.26,-181 2436.26,-184.5 2446.26,-188 2446.26,-181"/>
</g>
<!-- Node3 -->
<g id="node3" class="node">
<title>Node3</title>
<g id="a_node3"><a xlink:href="classitk_1_1Transform.html" target="_top" xlink:title=" ">
<polygon fill="white" stroke="black" points="1651,-62 1651,-103 1808,-103 1808,-62 1651,-62"/>
<text text-anchor="start" x="1659" y="-91" font-family="Helvetica,sans-Serif" font-size="10.00">itk::Transform&lt; TParameters</text>
<text text-anchor="start" x="1659" y="-80" font-family="Helvetica,sans-Serif" font-size="10.00">ValueType, NDimensions,</text>
<text text-anchor="middle" x="1729.5" y="-69" font-family="Helvetica,sans-Serif" font-size="10.00"> NDimensions &gt;</text>
</a>
</g>
</g>
<!-- Node3&#45;&gt;Node2 -->
<g id="edge2" class="edge">
<title>Node3&#45;&gt;Node2</title>
<path fill="none" stroke="midnightblue" d="M1818.18,-85.92C1891,-89.57 1997.15,-96.81 2089,-110.5 2164.19,-121.71 2183.14,-125.8 2256,-147.5 2276.74,-153.68 2299.37,-162.11 2317.66,-169.36"/>
<polygon fill="midnightblue" stroke="midnightblue" points="1818.29,-82.42 1808.13,-85.42 1817.94,-89.41 1818.29,-82.42"/>
</g>
<!-- Node21 -->
<g id="node21" class="node">
<title>Node21</title>
<g id="a_node21"><a xlink:href="classitk_1_1KernelTransform.html" target="_top" xlink:title=" ">
<polygon fill="white" stroke="black" points="1947,-120 1947,-161 2089,-161 2089,-120 1947,-120"/>
<text text-anchor="start" x="1955" y="-149" font-family="Helvetica,sans-Serif" font-size="10.00">itk::KernelTransform</text>
<text text-anchor="start" x="1955" y="-138" font-family="Helvetica,sans-Serif" font-size="10.00">&lt; TParametersValueType,</text>
<text text-anchor="middle" x="2018" y="-127" font-family="Helvetica,sans-Serif" font-size="10.00"> NDimensions &gt;</text>
</a>
</g>
</g>
<!-- Node3&#45;&gt;Node21 -->
<g id="edge26" class="edge">
<title>Node3&#45;&gt;Node21</title>
<path fill="none" stroke="midnightblue" d="M1818.08,-100.23C1859.36,-108.59 1907.94,-118.42 1946.76,-126.28"/>
<polygon fill="midnightblue" stroke="midnightblue" points="1818.53,-96.75 1808.03,-98.2 1817.14,-103.61 1818.53,-96.75"/>
</g>
<!-- Node4 -->
<g id="node4" class="node">
<title>Node4</title>
<g id="a_node4"><a xlink:href="classitk_1_1TransformBaseTemplate.html" target="_top" xlink:title=" ">
<polygon fill="white" stroke="black" points="1109,-58.5 1109,-88.5 1262,-88.5 1262,-58.5 1109,-58.5"/>
<text text-anchor="start" x="1117" y="-76.5" font-family="Helvetica,sans-Serif" font-size="10.00">itk::TransformBaseTemplate</text>
<text text-anchor="middle" x="1185.5" y="-65.5" font-family="Helvetica,sans-Serif" font-size="10.00">&lt; TParametersValueType &gt;</text>
</a>
</g>
</g>
<!-- Node4&#45;&gt;Node3 -->
<g id="edge3" class="edge">
<title>Node4&#45;&gt;Node3</title>
<path fill="none" stroke="midnightblue" d="M1272.29,-78.31C1281.3,-78.74 1290.34,-79.15 1299,-79.5 1447.34,-85.48 1484.55,-86.05 1633,-84.5 1638.8,-84.44 1644.81,-84.36 1650.84,-84.26"/>
<polygon fill="midnightblue" stroke="midnightblue" points="1272.29,-74.8 1262.13,-77.8 1271.95,-81.79 1272.29,-74.8"/>
</g>
<!-- Node18 -->
<g id="node18" class="node">
<title>Node18</title>
<g id="a_node18"><a xlink:href="classitk_1_1Transform.html" target="_top" xlink:title="Transform points and vectors from an input space to an output space.">
<polygon fill="white" stroke="black" points="1299,-29 1299,-70 1464,-70 1464,-29 1299,-29"/>
<text text-anchor="start" x="1307" y="-58" font-family="Helvetica,sans-Serif" font-size="10.00">itk::Transform&lt; TParameters</text>
<text text-anchor="start" x="1307" y="-47" font-family="Helvetica,sans-Serif" font-size="10.00">ValueType, NInputDimensions,</text>
<text text-anchor="middle" x="1381.5" y="-36" font-family="Helvetica,sans-Serif" font-size="10.00"> NOutputDimensions &gt;</text>
</a>
</g>
</g>
<!-- Node4&#45;&gt;Node18 -->
<g id="edge21" class="edge">
<title>Node4&#45;&gt;Node18</title>
<path fill="none" stroke="midnightblue" d="M1272.01,-62.92C1280.89,-61.82 1289.89,-60.71 1298.73,-59.62"/>
<polygon fill="midnightblue" stroke="midnightblue" points="1271.56,-59.45 1262.06,-64.15 1272.42,-66.4 1271.56,-59.45"/>
</g>
<!-- Node5 -->
<g id="node5" class="node">
<title>Node5</title>
<g id="a_node5"><a xlink:href="classitk_1_1Object.html" target="_top" xlink:title="Base class for most ITK classes.">
<polygon fill="white" stroke="black" points="1005,-64 1005,-83 1072,-83 1072,-64 1005,-64"/>
<text text-anchor="middle" x="1038.5" y="-71" font-family="Helvetica,sans-Serif" font-size="10.00">itk::Object</text>
</a>
</g>
</g>
<!-- Node5&#45;&gt;Node4 -->
<g id="edge4" class="edge">
<title>Node5&#45;&gt;Node4</title>
<path fill="none" stroke="midnightblue" d="M1082.29,-73.5C1090.68,-73.5 1099.72,-73.5 1108.82,-73.5"/>
<polygon fill="midnightblue" stroke="midnightblue" points="1082.04,-70 1072.04,-73.5 1082.04,-77 1082.04,-70"/>
</g>
<!-- Node6 -->
<g id="node6" class="node">
<title>Node6</title>
<g id="a_node6"><a xlink:href="classitk_1_1LightObject.html" target="_top" xlink:title="Light weight base class for most itk classes.">
<polygon fill="white" stroke="black" points="739.5,-91 739.5,-110 830.5,-110 830.5,-91 739.5,-91"/>
<text text-anchor="middle" x="785" y="-98" font-family="Helvetica,sans-Serif" font-size="10.00">itk::LightObject</text>
</a>
</g>
</g>
<!-- Node6&#45;&gt;Node5 -->
<g id="edge5" class="edge">
<title>Node6&#45;&gt;Node5</title>
<path fill="none" stroke="midnightblue" d="M840.69,-94.63C890.77,-89.25 963.25,-81.47 1004.84,-77.01"/>
<polygon fill="midnightblue" stroke="midnightblue" points="840.24,-91.16 830.67,-95.7 840.99,-98.12 840.24,-91.16"/>
</g>
<!-- Node7 -->
<g id="node7" class="node">
<title>Node7</title>
<g id="a_node7"><a xlink:title=" ">
<polygon fill="white" stroke="#bfbfbf" points="457,-90 457,-109 564,-109 564,-90 457,-90"/>
<text text-anchor="middle" x="510.5" y="-97" font-family="Helvetica,sans-Serif" font-size="10.00">std::atomic&lt; int &gt;</text>
</a>
</g>
</g>
<!-- Node7&#45;&gt;Node6 -->
<g id="edge6" class="edge">
<title>Node7&#45;&gt;Node6</title>
<path fill="none" stroke="#9a32cd" stroke-dasharray="5,2" d="M574.18,-99.73C624.64,-99.92 694.33,-100.17 739.29,-100.34"/>
<polygon fill="#9a32cd" stroke="#9a32cd" points="574.05,-96.23 564.04,-99.69 574.03,-103.23 574.05,-96.23"/>
<text text-anchor="middle" x="651.5" y="-102.5" font-family="Helvetica,sans-Serif" font-size="10.00"> m_ReferenceCount</text>
</g>
<!-- Node8 -->
<g id="node8" class="node">
<title>Node8</title>
<g id="a_node8"><a xlink:title="STL class.">
<polygon fill="white" stroke="#bfbfbf" points="123,-87 123,-106 223,-106 223,-87 123,-87"/>
<text text-anchor="middle" x="173" y="-94" font-family="Helvetica,sans-Serif" font-size="10.00">std::atomic&lt; T &gt;</text>
</a>
</g>
</g>
<!-- Node8&#45;&gt;Node7 -->
<g id="edge7" class="edge">
<title>Node8&#45;&gt;Node7</title>
<path fill="none" stroke="orange" stroke-dasharray="5,2" d="M233.38,-97.03C296.77,-97.6 396.25,-98.49 456.9,-99.03"/>
<polygon fill="orange" stroke="orange" points="233.17,-93.53 223.14,-96.94 233.11,-100.53 233.17,-93.53"/>
<text text-anchor="middle" x="334" y="-101.5" font-family="Helvetica,sans-Serif" font-size="10.00"> &lt; int &gt;</text>
</g>
<!-- Node17 -->
<g id="node17" class="node">
<title>Node17</title>
<g id="a_node17"><a xlink:href="classitk_1_1TimeStamp.html" target="_top" xlink:title="Generate a unique, increasing time value.">
<polygon fill="white" stroke="black" points="605.5,-52 605.5,-71 697.5,-71 697.5,-52 605.5,-52"/>
<text text-anchor="middle" x="651.5" y="-59" font-family="Helvetica,sans-Serif" font-size="10.00">itk::TimeStamp</text>
</a>
</g>
</g>
<!-- Node8&#45;&gt;Node17 -->
<g id="edge19" class="edge">
<title>Node8&#45;&gt;Node17</title>
<path fill="none" stroke="#9a32cd" stroke-dasharray="5,2" d="M226.31,-85.14C234.22,-83.73 242.3,-82.45 250,-81.5 378.18,-65.74 530.88,-62.32 605.27,-61.63"/>
<polygon fill="#9a32cd" stroke="#9a32cd" points="225.62,-81.71 216.43,-87 226.91,-88.59 225.62,-81.71"/>
<text text-anchor="middle" x="334" y="-84.5" font-family="Helvetica,sans-Serif" font-size="10.00"> m_GlobalTimeStamp</text>
</g>
<!-- Node9 -->
<g id="node9" class="node">
<title>Node9</title>
<g id="a_node9"><a xlink:title=" ">
<polygon fill="white" stroke="#bfbfbf" points="0,-126 0,-145 29,-145 29,-126 0,-126"/>
<text text-anchor="middle" x="14.5" y="-133" font-family="Helvetica,sans-Serif" font-size="10.00">T</text>
</a>
</g>
</g>
<!-- Node9&#45;&gt;Node8 -->
<g id="edge8" class="edge">
<title>Node9&#45;&gt;Node8</title>
<path fill="none" stroke="#9a32cd" stroke-dasharray="5,2" d="M38.44,-122.9C41.27,-121.63 44.17,-120.46 47,-119.5 71.35,-111.27 99.43,-105.77 122.79,-102.21"/>
<polygon fill="#9a32cd" stroke="#9a32cd" points="36.66,-119.88 29.24,-127.44 39.75,-126.16 36.66,-119.88"/>
<text text-anchor="middle" x="71.5" y="-122.5" font-family="Helvetica,sans-Serif" font-size="10.00"> ptr</text>
</g>
<!-- Node14 -->
<g id="node14" class="node">
<title>Node14</title>
<g id="a_node14"><a xlink:title="STL class.">
<polygon fill="white" stroke="#bfbfbf" points="122.5,-125 122.5,-144 223.5,-144 223.5,-125 122.5,-125"/>
<text text-anchor="middle" x="173" y="-132" font-family="Helvetica,sans-Serif" font-size="10.00">std::map&lt; K, T &gt;</text>
</a>
</g>
</g>
<!-- Node9&#45;&gt;Node14 -->
<g id="edge15" class="edge">
<title>Node9&#45;&gt;Node14</title>
<path fill="none" stroke="#9a32cd" stroke-dasharray="5,2" d="M39.19,-135.35C61.16,-135.21 94.54,-134.99 122.35,-134.82"/>
<polygon fill="#9a32cd" stroke="#9a32cd" points="39.09,-131.85 29.11,-135.41 39.14,-138.85 39.09,-131.85"/>
<text text-anchor="middle" x="71.5" y="-137.5" font-family="Helvetica,sans-Serif" font-size="10.00"> elements</text>
</g>
<!-- Node16 -->
<g id="node16" class="node">
<title>Node16</title>
<g id="a_node16"><a xlink:title="STL class.">
<polygon fill="white" stroke="#bfbfbf" points="114,-163 114,-182 232,-182 232,-163 114,-163"/>
<text text-anchor="middle" x="173" y="-170" font-family="Helvetica,sans-Serif" font-size="10.00">std::shared_ptr&lt; T &gt;</text>
</a>
</g>
</g>
<!-- Node9&#45;&gt;Node16 -->
<g id="edge17" class="edge">
<title>Node9&#45;&gt;Node16</title>
<path fill="none" stroke="#9a32cd" stroke-dasharray="5,2" d="M38.37,-146.41C41.23,-147.56 44.16,-148.62 47,-149.5 68.4,-156.12 92.48,-161.11 113.75,-164.71"/>
<polygon fill="#9a32cd" stroke="#9a32cd" points="39.6,-143.13 29.03,-142.36 36.81,-149.55 39.6,-143.13"/>
<text text-anchor="middle" x="71.5" y="-163.5" font-family="Helvetica,sans-Serif" font-size="10.00"> ptr</text>
</g>
<!-- Node10 -->
<g id="node10" class="node">
<title>Node10</title>
<g id="a_node10"><a xlink:title="STL class.">
<polygon fill="white" stroke="#bfbfbf" points="752.5,-6 752.5,-25 817.5,-25 817.5,-6 752.5,-6"/>
<text text-anchor="middle" x="785" y="-13" font-family="Helvetica,sans-Serif" font-size="10.00">std::string</text>
</a>
</g>
</g>
<!-- Node10&#45;&gt;Node5 -->
<g id="edge9" class="edge">
<title>Node10&#45;&gt;Node5</title>
<path fill="none" stroke="#9a32cd" stroke-dasharray="5,2" d="M827.91,-13.62C869.63,-13.16 934.79,-16.36 987,-36.5 1002.82,-42.6 1018.11,-55.01 1027.64,-63.77"/>
<polygon fill="#9a32cd" stroke="#9a32cd" points="827.76,-10.12 817.83,-13.8 827.89,-17.12 827.76,-10.12"/>
<text text-anchor="middle" x="928.5" y="-39.5" font-family="Helvetica,sans-Serif" font-size="10.00"> m_ObjectName</text>
</g>
<!-- Node11 -->
<g id="node11" class="node">
<title>Node11</title>
<g id="a_node11"><a xlink:title="STL class.">
<polygon fill="white" stroke="#bfbfbf" points="458.5,-0.5 458.5,-30.5 562.5,-30.5 562.5,-0.5 458.5,-0.5"/>
<text text-anchor="start" x="466.5" y="-18.5" font-family="Helvetica,sans-Serif" font-size="10.00">std::basic_string&lt;</text>
<text text-anchor="middle" x="510.5" y="-7.5" font-family="Helvetica,sans-Serif" font-size="10.00"> char &gt;</text>
</a>
</g>
</g>
<!-- Node11&#45;&gt;Node10 -->
<g id="edge10" class="edge">
<title>Node11&#45;&gt;Node10</title>
<path fill="none" stroke="midnightblue" d="M572.85,-15.5C628.49,-15.5 708.3,-15.5 752.14,-15.5"/>
<polygon fill="midnightblue" stroke="midnightblue" points="572.76,-12 562.76,-15.5 572.76,-19 572.76,-12"/>
</g>
<!-- Node12 -->
<g id="node12" class="node">
<title>Node12</title>
<g id="a_node12"><a xlink:href="classitk_1_1MetaDataDictionary.html" target="_top" xlink:title="Provides a mechanism for storing a collection of arbitrary data types.">
<polygon fill="white" stroke="black" points="718,-131 718,-150 852,-150 852,-131 718,-131"/>
<text text-anchor="middle" x="785" y="-138" font-family="Helvetica,sans-Serif" font-size="10.00">itk::MetaDataDictionary</text>
</a>
</g>
</g>
<!-- Node12&#45;&gt;Node5 -->
<g id="edge11" class="edge">
<title>Node12&#45;&gt;Node5</title>
<path fill="none" stroke="#9a32cd" stroke-dasharray="5,2" d="M862.31,-129.25C900.39,-122.47 946.79,-112.4 987,-98.5 998.65,-94.47 1011.07,-88.35 1020.67,-83.18"/>
<polygon fill="#9a32cd" stroke="#9a32cd" points="861.56,-125.83 852.31,-131 862.76,-132.73 861.56,-125.83"/>
<text text-anchor="middle" x="928.5" y="-129.5" font-family="Helvetica,sans-Serif" font-size="10.00"> m_MetaDataDictionary</text>
</g>
<!-- Node13 -->
<g id="node13" class="node">
<title>Node13</title>
<g id="a_node13"><a xlink:title=" ">
<polygon fill="white" stroke="#bfbfbf" points="436,-128.5 436,-158.5 585,-158.5 585,-128.5 436,-128.5"/>
<text text-anchor="start" x="444" y="-146.5" font-family="Helvetica,sans-Serif" font-size="10.00">std::shared_ptr&lt; MetaData</text>
<text text-anchor="middle" x="510.5" y="-135.5" font-family="Helvetica,sans-Serif" font-size="10.00">DictionaryMapType &gt;</text>
</a>
</g>
</g>
<!-- Node13&#45;&gt;Node12 -->
<g id="edge12" class="edge">
<title>Node13&#45;&gt;Node12</title>
<path fill="none" stroke="#9a32cd" stroke-dasharray="5,2" d="M595.34,-142.58C634.65,-142.14 680.82,-141.64 717.65,-141.23"/>
<polygon fill="#9a32cd" stroke="#9a32cd" points="595.2,-139.08 585.24,-142.69 595.28,-146.08 595.2,-139.08"/>
<text text-anchor="middle" x="651.5" y="-144.5" font-family="Helvetica,sans-Serif" font-size="10.00"> m_Dictionary</text>
</g>
<!-- Node14&#45;&gt;Node13 -->
<g id="edge13" class="edge">
<title>Node14&#45;&gt;Node13</title>
<path fill="none" stroke="#9a32cd" stroke-dasharray="5,2" d="M233.74,-134.84C283.15,-135.28 355.15,-136.27 418,-138.5 423.72,-138.7 429.65,-138.95 435.6,-139.22"/>
<polygon fill="#9a32cd" stroke="#9a32cd" points="233.58,-131.34 223.55,-134.76 233.52,-138.34 233.58,-131.34"/>
<text text-anchor="middle" x="334" y="-141.5" font-family="Helvetica,sans-Serif" font-size="10.00"> ptr</text>
</g>
<!-- Node15 -->
<g id="node15" class="node">
<title>Node15</title>
<g id="a_node15"><a xlink:title=" ">
<polygon fill="white" stroke="#bfbfbf" points="0,-58 0,-77 29,-77 29,-58 0,-58"/>
<text text-anchor="middle" x="14.5" y="-65" font-family="Helvetica,sans-Serif" font-size="10.00">K</text>
</a>
</g>
</g>
<!-- Node15&#45;&gt;Node14 -->
<g id="edge14" class="edge">
<title>Node15&#45;&gt;Node14</title>
<path fill="none" stroke="#9a32cd" stroke-dasharray="5,2" d="M39.39,-70.56C56.39,-73.65 79.12,-79.74 96,-91.5 106.94,-99.12 103.16,-107.73 114,-115.5 119.34,-119.33 125.49,-122.42 131.76,-124.9"/>
<polygon fill="#9a32cd" stroke="#9a32cd" points="39.59,-67.04 29.17,-68.92 38.49,-73.96 39.59,-67.04"/>
<text text-anchor="middle" x="71.5" y="-94.5" font-family="Helvetica,sans-Serif" font-size="10.00"> keys</text>
</g>
<!-- Node16&#45;&gt;Node13 -->
<g id="edge16" class="edge">
<title>Node16&#45;&gt;Node13</title>
<path fill="none" stroke="orange" stroke-dasharray="5,2" d="M242.27,-166.6C298.5,-161.74 378.06,-154.86 435.74,-149.88"/>
<polygon fill="orange" stroke="orange" points="241.72,-163.13 232.06,-167.48 242.32,-170.11 241.72,-163.13"/>
<text text-anchor="middle" x="334" y="-167.5" font-family="Helvetica,sans-Serif" font-size="10.00"> &lt; MetaDataDictionaryMapType &gt;</text>
</g>
<!-- Node17&#45;&gt;Node5 -->
<g id="edge18" class="edge">
<title>Node17&#45;&gt;Node5</title>
<path fill="none" stroke="#9a32cd" stroke-dasharray="5,2" d="M707.87,-63.23C789.37,-65.77 939.09,-70.43 1004.95,-72.49"/>
<polygon fill="#9a32cd" stroke="#9a32cd" points="707.9,-59.73 697.8,-62.91 707.68,-66.72 707.9,-59.73"/>
<text text-anchor="middle" x="785" y="-70.5" font-family="Helvetica,sans-Serif" font-size="10.00"> m_MTime</text>
</g>
<!-- Node18&#45;&gt;Node3 -->
<g id="edge20" class="edge">
<title>Node18&#45;&gt;Node3</title>
<path fill="none" stroke="orange" stroke-dasharray="5,2" d="M1474.29,-50.87C1521.82,-52.43 1580.7,-55.71 1633,-62.5 1638.8,-63.25 1644.76,-64.17 1650.75,-65.18"/>
<polygon fill="orange" stroke="orange" points="1474.12,-47.36 1464.01,-50.55 1473.9,-54.36 1474.12,-47.36"/>
<text text-anchor="start" x="1482" y="-76.5" font-family="Helvetica,sans-Serif" font-size="10.00"> &lt; TParametersValueType,</text>
<text text-anchor="middle" x="1557.5" y="-65.5" font-family="Helvetica,sans-Serif" font-size="10.00"> NDimensions, NDimensions &gt;</text>
</g>
<!-- Node19 -->
<g id="node19" class="node">
<title>Node19</title>
<g id="a_node19"><a xlink:href="classitk_1_1SmartPointer.html" target="_top" xlink:title=" ">
<polygon fill="white" stroke="black" points="1676,-180.5 1676,-210.5 1783,-210.5 1783,-180.5 1676,-180.5"/>
<text text-anchor="start" x="1684" y="-198.5" font-family="Helvetica,sans-Serif" font-size="10.00">itk::SmartPointer&lt;</text>
<text text-anchor="middle" x="1729.5" y="-187.5" font-family="Helvetica,sans-Serif" font-size="10.00"> Self &gt;</text>
</a>
</g>
</g>
<!-- Node19&#45;&gt;Node2 -->
<g id="edge22" class="edge">
<title>Node19&#45;&gt;Node2</title>
<path fill="none" stroke="#9a32cd" stroke-dasharray="5,2" d="M1793.43,-194.39C1907.48,-192.38 2148.13,-188.13 2273.79,-185.92"/>
<polygon fill="#9a32cd" stroke="#9a32cd" points="1793.06,-190.9 1783.12,-194.57 1793.18,-197.89 1793.06,-190.9"/>
<text text-anchor="middle" x="2018" y="-194.5" font-family="Helvetica,sans-Serif" font-size="10.00"> m_Displacements</text>
</g>
<!-- Node19&#45;&gt;Node21 -->
<g id="edge27" class="edge">
<title>Node19&#45;&gt;Node21</title>
<path fill="none" stroke="#9a32cd" stroke-dasharray="5,2" d="M1793.1,-180.56C1804.04,-178.09 1815.34,-175.65 1826,-173.5 1865.92,-165.46 1910.77,-157.65 1946.97,-151.65"/>
<polygon fill="#9a32cd" stroke="#9a32cd" points="1792.15,-177.18 1783.18,-182.82 1793.7,-184.01 1792.15,-177.18"/>
<text text-anchor="middle" x="1877.5" y="-176.5" font-family="Helvetica,sans-Serif" font-size="10.00"> m_Displacements</text>
</g>
<!-- Node20 -->
<g id="node20" class="node">
<title>Node20</title>
<g id="a_node20"><a xlink:href="classitk_1_1SmartPointer.html" target="_top" xlink:title="Implements transparent reference counting.">
<polygon fill="white" stroke="black" points="1328,-180.5 1328,-210.5 1435,-210.5 1435,-180.5 1328,-180.5"/>
<text text-anchor="start" x="1336" y="-198.5" font-family="Helvetica,sans-Serif" font-size="10.00">itk::SmartPointer&lt;</text>
<text text-anchor="middle" x="1381.5" y="-187.5" font-family="Helvetica,sans-Serif" font-size="10.00"> TObjectType &gt;</text>
</a>
</g>
</g>
<!-- Node20&#45;&gt;Node2 -->
<g id="edge24" class="edge">
<title>Node20&#45;&gt;Node2</title>
<path fill="none" stroke="#9a32cd" stroke-dasharray="5,2" d="M1445.15,-205.83C1457.35,-207.59 1470.06,-209.25 1482,-210.5 1556.83,-218.34 1575.79,-218.28 1651,-220.5 1919.9,-228.45 1988.52,-230.25 2256,-201.5 2261.84,-200.87 2267.85,-200.11 2273.9,-199.26"/>
<polygon fill="#9a32cd" stroke="#9a32cd" points="1445.46,-202.33 1435.06,-204.33 1444.44,-209.26 1445.46,-202.33"/>
<text text-anchor="middle" x="1877.5" y="-239.5" font-family="Helvetica,sans-Serif" font-size="10.00"> m_TargetLandmarks</text>
<text text-anchor="middle" x="1877.5" y="-228.5" font-family="Helvetica,sans-Serif" font-size="10.00">m_SourceLandmarks</text>
</g>
<!-- Node20&#45;&gt;Node19 -->
<g id="edge23" class="edge">
<title>Node20&#45;&gt;Node19</title>
<path fill="none" stroke="orange" stroke-dasharray="5,2" d="M1445.31,-195.5C1511.27,-195.5 1613.83,-195.5 1675.74,-195.5"/>
<polygon fill="orange" stroke="orange" points="1445.05,-192 1435.05,-195.5 1445.05,-199 1445.05,-192"/>
<text text-anchor="middle" x="1557.5" y="-198.5" font-family="Helvetica,sans-Serif" font-size="10.00"> &lt; Self &gt;</text>
</g>
<!-- Node20&#45;&gt;Node21 -->
<g id="edge28" class="edge">
<title>Node20&#45;&gt;Node21</title>
<path fill="none" stroke="#9a32cd" stroke-dasharray="5,2" d="M1444.98,-182.15C1499.18,-171.2 1579.88,-156.43 1651,-149.5 1753.64,-139.5 1873.19,-138.56 1946.99,-139.21"/>
<polygon fill="#9a32cd" stroke="#9a32cd" points="1444.28,-178.72 1435.18,-184.14 1445.67,-185.58 1444.28,-178.72"/>
<text text-anchor="middle" x="1729.5" y="-163.5" font-family="Helvetica,sans-Serif" font-size="10.00"> m_TargetLandmarks</text>
<text text-anchor="middle" x="1729.5" y="-152.5" font-family="Helvetica,sans-Serif" font-size="10.00">m_SourceLandmarks</text>
</g>
<!-- Node21&#45;&gt;Node2 -->
<g id="edge25" class="edge">
<title>Node21&#45;&gt;Node2</title>
<path fill="none" stroke="orange" stroke-dasharray="5,2" d="M2099.24,-151.04C2152.09,-157.98 2221.03,-167.04 2273.87,-173.98"/>
<polygon fill="orange" stroke="orange" points="2099.6,-147.56 2089.23,-149.72 2098.69,-154.5 2099.6,-147.56"/>
<text text-anchor="middle" x="2181.5" y="-173.5" font-family="Helvetica,sans-Serif" font-size="10.00"> &lt; TParametersValueType, 3 &gt;</text>
</g>
</g>
</svg>
