<?xml version="1.0" encoding="UTF-8" standalone="no"?>
<!DOCTYPE svg PUBLIC "-//W3C//DTD SVG 1.1//EN"
 "http://www.w3.org/Graphics/SVG/1.1/DTD/svg11.dtd">
<!-- Generated by graphviz version 2.43.0 (0)
 -->
<!-- Title: itk::GaussianOperator&lt; TPixel, VDimension, TAllocator &gt; Pages: 1 -->
<svg width="306pt" height="364pt"
 viewBox="0.00 0.00 305.50 364.00" xmlns="http://www.w3.org/2000/svg" xmlns:xlink="http://www.w3.org/1999/xlink">
<g id="graph0" class="graph" transform="scale(1 1) rotate(0) translate(4 360)">
<title>itk::GaussianOperator&lt; TPixel, VDimension, TAllocator &gt;</title>
<polygon fill="white" stroke="transparent" points="-4,4 -4,-360 301.5,-360 301.5,4 -4,4"/>
<!-- Node1 -->
<g id="node1" class="node">
<title>Node1</title>
<g id="a_node1"><a xlink:title="A NeighborhoodOperator whose coefficients are a one dimensional, discrete Gaussian kernel.">
<polygon fill="#bfbfbf" stroke="black" points="63,-0.5 63,-41.5 188,-41.5 188,-0.5 63,-0.5"/>
<text text-anchor="start" x="71" y="-29.5" font-family="Helvetica,sans-Serif" font-size="10.00">itk::GaussianOperator</text>
<text text-anchor="start" x="71" y="-18.5" font-family="Helvetica,sans-Serif" font-size="10.00">&lt; TPixel, VDimension,</text>
<text text-anchor="middle" x="125.5" y="-7.5" font-family="Helvetica,sans-Serif" font-size="10.00"> TAllocator &gt;</text>
</a>
</g>
</g>
<!-- Node2 -->
<g id="node2" class="node">
<title>Node2</title>
<g id="a_node2"><a xlink:href="classitk_1_1NeighborhoodOperator.html" target="_top" xlink:title=" ">
<polygon fill="white" stroke="black" points="32,-79.5 32,-120.5 219,-120.5 219,-79.5 32,-79.5"/>
<text text-anchor="start" x="40" y="-108.5" font-family="Helvetica,sans-Serif" font-size="10.00">itk::NeighborhoodOperator</text>
<text text-anchor="start" x="40" y="-97.5" font-family="Helvetica,sans-Serif" font-size="10.00">&lt; TPixel, 2, NeighborhoodAllocator</text>
<text text-anchor="middle" x="125.5" y="-86.5" font-family="Helvetica,sans-Serif" font-size="10.00">&lt; TPixel &gt; &gt;</text>
</a>
</g>
</g>
<!-- Node2&#45;&gt;Node1 -->
<g id="edge1" class="edge">
<title>Node2&#45;&gt;Node1</title>
<path fill="none" stroke="midnightblue" d="M125.5,-68.91C125.5,-59.79 125.5,-50.02 125.5,-41.76"/>
<polygon fill="midnightblue" stroke="midnightblue" points="122,-69.17 125.5,-79.17 129,-69.17 122,-69.17"/>
</g>
<!-- Node3 -->
<g id="node3" class="node">
<title>Node3</title>
<g id="a_node3"><a xlink:href="classitk_1_1Neighborhood.html" target="_top" xlink:title=" ">
<polygon fill="white" stroke="black" points="60,-158.5 60,-210.5 191,-210.5 191,-158.5 60,-158.5"/>
<text text-anchor="start" x="68" y="-198.5" font-family="Helvetica,sans-Serif" font-size="10.00">itk::Neighborhood&lt;</text>
<text text-anchor="start" x="68" y="-187.5" font-family="Helvetica,sans-Serif" font-size="10.00"> TPixel, VDimension,</text>
<text text-anchor="start" x="68" y="-176.5" font-family="Helvetica,sans-Serif" font-size="10.00"> NeighborhoodAllocator</text>
<text text-anchor="middle" x="125.5" y="-165.5" font-family="Helvetica,sans-Serif" font-size="10.00">&lt; TPixel &gt; &gt;</text>
</a>
</g>
</g>
<!-- Node3&#45;&gt;Node2 -->
<g id="edge2" class="edge">
<title>Node3&#45;&gt;Node2</title>
<path fill="none" stroke="midnightblue" d="M125.5,-148.27C125.5,-138.77 125.5,-128.84 125.5,-120.55"/>
<polygon fill="midnightblue" stroke="midnightblue" points="122,-148.3 125.5,-158.3 129,-148.3 122,-148.3"/>
</g>
<!-- Node4 -->
<g id="node4" class="node">
<title>Node4</title>
<g id="a_node4"><a xlink:href="structitk_1_1Size.html" target="_top" xlink:title=" ">
<polygon fill="white" stroke="black" points="0,-269.5 0,-288.5 137,-288.5 137,-269.5 0,-269.5"/>
<text text-anchor="middle" x="68.5" y="-276.5" font-family="Helvetica,sans-Serif" font-size="10.00">itk::Size&lt; VDimension &gt;</text>
</a>
</g>
</g>
<!-- Node4&#45;&gt;Node3 -->
<g id="edge3" class="edge">
<title>Node4&#45;&gt;Node3</title>
<path fill="none" stroke="#9a32cd" stroke-dasharray="5,2" d="M79.1,-260.8C87.79,-246.7 100.2,-226.56 110,-210.65"/>
<polygon fill="#9a32cd" stroke="#9a32cd" points="76.03,-259.11 73.76,-269.46 81.99,-262.79 76.03,-259.11"/>
<text text-anchor="middle" x="122.5" y="-243" font-family="Helvetica,sans-Serif" font-size="10.00"> m_Radius</text>
<text text-anchor="middle" x="122.5" y="-232" font-family="Helvetica,sans-Serif" font-size="10.00">m_Size</text>
</g>
<!-- Node5 -->
<g id="node5" class="node">
<title>Node5</title>
<g id="a_node5"><a xlink:title=" ">
<polygon fill="white" stroke="black" points="155,-269.5 155,-288.5 294,-288.5 294,-269.5 155,-269.5"/>
<text text-anchor="middle" x="224.5" y="-276.5" font-family="Helvetica,sans-Serif" font-size="10.00">std::vector&lt; itk::Offset &gt;</text>
</a>
</g>
</g>
<!-- Node5&#45;&gt;Node3 -->
<g id="edge4" class="edge">
<title>Node5&#45;&gt;Node3</title>
<path fill="none" stroke="#9a32cd" stroke-dasharray="5,2" d="M207.8,-262.4C192.67,-248.26 170.1,-227.17 152.42,-210.65"/>
<polygon fill="#9a32cd" stroke="#9a32cd" points="205.67,-265.19 215.36,-269.46 210.45,-260.08 205.67,-265.19"/>
<text text-anchor="middle" x="231" y="-237.5" font-family="Helvetica,sans-Serif" font-size="10.00"> m_OffsetTable</text>
</g>
<!-- Node6 -->
<g id="node6" class="node">
<title>Node6</title>
<g id="a_node6"><a xlink:href="structitk_1_1Offset.html" target="_top" xlink:title="Represent a n&#45;dimensional offset between two n&#45;dimensional indexes of n&#45;dimensional image.">
<polygon fill="white" stroke="black" points="151.5,-336.5 151.5,-355.5 297.5,-355.5 297.5,-336.5 151.5,-336.5"/>
<text text-anchor="middle" x="224.5" y="-343.5" font-family="Helvetica,sans-Serif" font-size="10.00">itk::Offset&lt; VDimension &gt;</text>
</a>
</g>
</g>
<!-- Node6&#45;&gt;Node5 -->
<g id="edge5" class="edge">
<title>Node6&#45;&gt;Node5</title>
<path fill="none" stroke="#9a32cd" stroke-dasharray="5,2" d="M224.5,-326.04C224.5,-313.67 224.5,-298.12 224.5,-288.63"/>
<polygon fill="#9a32cd" stroke="#9a32cd" points="221,-326.23 224.5,-336.23 228,-326.23 221,-326.23"/>
<text text-anchor="middle" x="249" y="-310" font-family="Helvetica,sans-Serif" font-size="10.00"> elements</text>
</g>
</g>
</svg>
