<?xml version="1.0" encoding="UTF-8" standalone="no"?>
<!DOCTYPE svg PUBLIC "-//W3C//DTD SVG 1.1//EN"
 "http://www.w3.org/Graphics/SVG/1.1/DTD/svg11.dtd">
<!-- Generated by graphviz version 2.43.0 (0)
 -->
<!-- Title: itk::TorusInteriorExteriorSpatialFunction&lt; VDimension, TInput &gt; Pages: 1 -->
<svg width="2832pt" height="199pt"
 viewBox="0.00 0.00 2832.00 198.53" xmlns="http://www.w3.org/2000/svg" xmlns:xlink="http://www.w3.org/1999/xlink">
<g id="graph0" class="graph" transform="scale(1 1) rotate(0) translate(4 194.53)">
<title>itk::TorusInteriorExteriorSpatialFunction&lt; VDimension, TInput &gt;</title>
<polygon fill="white" stroke="transparent" points="-4,4 -4,-194.53 2828,-194.53 2828,4 -4,4"/>
<!-- Node1 -->
<g id="node1" class="node">
<title>Node1</title>
<g id="a_node1"><a xlink:title="Spatial function implementation of torus symmetric about the z&#45;axis in 3D.">
<polygon fill="#bfbfbf" stroke="black" points="2659,-51.03 2659,-92.03 2824,-92.03 2824,-51.03 2659,-51.03"/>
<text text-anchor="start" x="2667" y="-80.03" font-family="Helvetica,sans-Serif" font-size="10.00">itk::TorusInteriorExterior</text>
<text text-anchor="start" x="2667" y="-69.03" font-family="Helvetica,sans-Serif" font-size="10.00">SpatialFunction&lt; VDimension,</text>
<text text-anchor="middle" x="2741.5" y="-58.03" font-family="Helvetica,sans-Serif" font-size="10.00"> TInput &gt;</text>
</a>
</g>
</g>
<!-- Node2 -->
<g id="node2" class="node">
<title>Node2</title>
<g id="a_node2"><a xlink:href="classitk_1_1InteriorExteriorSpatialFunction.html" target="_top" xlink:title=" ">
<polygon fill="white" stroke="black" points="2437,-56.53 2437,-86.53 2622,-86.53 2622,-56.53 2437,-56.53"/>
<text text-anchor="start" x="2445" y="-74.53" font-family="Helvetica,sans-Serif" font-size="10.00">itk::InteriorExteriorSpatial</text>
<text text-anchor="middle" x="2529.5" y="-63.53" font-family="Helvetica,sans-Serif" font-size="10.00">Function&lt; 3, Point&lt; double, 3 &gt; &gt;</text>
</a>
</g>
</g>
<!-- Node2&#45;&gt;Node1 -->
<g id="edge1" class="edge">
<title>Node2&#45;&gt;Node1</title>
<path fill="none" stroke="midnightblue" d="M2632.59,-71.53C2641.37,-71.53 2650.19,-71.53 2658.78,-71.53"/>
<polygon fill="midnightblue" stroke="midnightblue" points="2632.3,-68.03 2622.3,-71.53 2632.3,-75.03 2632.3,-68.03"/>
</g>
<!-- Node3 -->
<g id="node3" class="node">
<title>Node3</title>
<g id="a_node3"><a xlink:href="classitk_1_1SpatialFunction.html" target="_top" xlink:title=" ">
<polygon fill="white" stroke="black" points="1944,-75.03 1944,-116.03 2089,-116.03 2089,-75.03 1944,-75.03"/>
<text text-anchor="start" x="1952" y="-104.03" font-family="Helvetica,sans-Serif" font-size="10.00">itk::SpatialFunction</text>
<text text-anchor="start" x="1952" y="-93.03" font-family="Helvetica,sans-Serif" font-size="10.00">&lt; bool, VDimension, Point</text>
<text text-anchor="middle" x="2016.5" y="-82.03" font-family="Helvetica,sans-Serif" font-size="10.00">&lt; double, 3 &gt; &gt;</text>
</a>
</g>
</g>
<!-- Node3&#45;&gt;Node2 -->
<g id="edge2" class="edge">
<title>Node3&#45;&gt;Node2</title>
<path fill="none" stroke="midnightblue" d="M2099.49,-93.06C2180.66,-90.42 2308.46,-85.77 2419,-79.53 2424.8,-79.2 2430.78,-78.84 2436.8,-78.45"/>
<polygon fill="midnightblue" stroke="midnightblue" points="2099.22,-89.56 2089.34,-93.38 2099.44,-96.56 2099.22,-89.56"/>
</g>
<!-- Node4 -->
<g id="node4" class="node">
<title>Node4</title>
<g id="a_node4"><a xlink:href="classitk_1_1FunctionBase.html" target="_top" xlink:title=" ">
<polygon fill="white" stroke="black" points="1483,-93.03 1483,-134.03 1598,-134.03 1598,-93.03 1483,-93.03"/>
<text text-anchor="start" x="1491" y="-122.03" font-family="Helvetica,sans-Serif" font-size="10.00">itk::FunctionBase&lt;</text>
<text text-anchor="start" x="1491" y="-111.03" font-family="Helvetica,sans-Serif" font-size="10.00"> Point&lt; double, 3 &gt;,</text>
<text text-anchor="middle" x="1540.5" y="-100.03" font-family="Helvetica,sans-Serif" font-size="10.00"> bool &gt;</text>
</a>
</g>
</g>
<!-- Node4&#45;&gt;Node3 -->
<g id="edge3" class="edge">
<title>Node4&#45;&gt;Node3</title>
<path fill="none" stroke="midnightblue" d="M1608.21,-112.17C1684.92,-110.44 1814.6,-107 1926,-101.53 1931.76,-101.25 1937.72,-100.92 1943.7,-100.57"/>
<polygon fill="midnightblue" stroke="midnightblue" points="1608.12,-108.67 1598.2,-112.39 1608.28,-115.67 1608.12,-108.67"/>
</g>
<!-- Node22 -->
<g id="node22" class="node">
<title>Node22</title>
<g id="a_node22"><a xlink:href="classitk_1_1SpatialFunction.html" target="_top" xlink:title=" ">
<polygon fill="white" stroke="black" points="1947,-15.03 1947,-56.03 2086,-56.03 2086,-15.03 1947,-15.03"/>
<text text-anchor="start" x="1955" y="-44.03" font-family="Helvetica,sans-Serif" font-size="10.00">itk::SpatialFunction</text>
<text text-anchor="start" x="1955" y="-33.03" font-family="Helvetica,sans-Serif" font-size="10.00">&lt; bool, 3, Point&lt; double,</text>
<text text-anchor="middle" x="2016.5" y="-22.03" font-family="Helvetica,sans-Serif" font-size="10.00"> 3 &gt; &gt;</text>
</a>
</g>
</g>
<!-- Node4&#45;&gt;Node22 -->
<g id="edge28" class="edge">
<title>Node4&#45;&gt;Node22</title>
<path fill="none" stroke="midnightblue" d="M1607.94,-104.48C1610.66,-104.15 1613.36,-103.83 1616,-103.53 1753.51,-87.65 1792.14,-108.76 1926,-73.53 1934.47,-71.3 1935.96,-69 1944,-65.53 1951.17,-62.43 1958.76,-59.2 1966.21,-56.05"/>
<polygon fill="midnightblue" stroke="midnightblue" points="1607.51,-101.01 1598.01,-105.72 1608.37,-107.96 1607.51,-101.01"/>
</g>
<!-- Node5 -->
<g id="node5" class="node">
<title>Node5</title>
<g id="a_node5"><a xlink:href="classitk_1_1Object.html" target="_top" xlink:title="Base class for most ITK classes.">
<polygon fill="white" stroke="black" points="1005,-72.03 1005,-91.03 1072,-91.03 1072,-72.03 1005,-72.03"/>
<text text-anchor="middle" x="1038.5" y="-79.03" font-family="Helvetica,sans-Serif" font-size="10.00">itk::Object</text>
</a>
</g>
</g>
<!-- Node5&#45;&gt;Node4 -->
<g id="edge4" class="edge">
<title>Node5&#45;&gt;Node4</title>
<path fill="none" stroke="midnightblue" d="M1071.28,-94.74C1082.96,-99.12 1096.41,-103.61 1109,-106.53 1240.08,-136.88 1399.66,-128.01 1482.86,-120.07"/>
<polygon fill="midnightblue" stroke="midnightblue" points="1072.53,-91.47 1061.94,-91.13 1070.01,-98 1072.53,-91.47"/>
</g>
<!-- Node18 -->
<g id="node18" class="node">
<title>Node18</title>
<g id="a_node18"><a xlink:href="classitk_1_1FunctionBase.html" target="_top" xlink:title="Base class for all ITK function objects.">
<polygon fill="white" stroke="black" points="1109,-66.53 1109,-96.53 1218,-96.53 1218,-66.53 1109,-66.53"/>
<text text-anchor="start" x="1117" y="-84.53" font-family="Helvetica,sans-Serif" font-size="10.00">itk::FunctionBase&lt;</text>
<text text-anchor="middle" x="1163.5" y="-73.53" font-family="Helvetica,sans-Serif" font-size="10.00"> TInput, TOutput &gt;</text>
</a>
</g>
</g>
<!-- Node5&#45;&gt;Node18 -->
<g id="edge21" class="edge">
<title>Node5&#45;&gt;Node18</title>
<path fill="none" stroke="midnightblue" d="M1082.26,-81.53C1090.81,-81.53 1099.9,-81.53 1108.77,-81.53"/>
<polygon fill="midnightblue" stroke="midnightblue" points="1082.14,-78.03 1072.14,-81.53 1082.14,-85.03 1082.14,-78.03"/>
</g>
<!-- Node20 -->
<g id="node20" class="node">
<title>Node20</title>
<g id="a_node20"><a xlink:href="classitk_1_1FunctionBase.html" target="_top" xlink:title=" ">
<polygon fill="white" stroke="black" points="1350,-18.03 1350,-59.03 1465,-59.03 1465,-18.03 1350,-18.03"/>
<text text-anchor="start" x="1358" y="-47.03" font-family="Helvetica,sans-Serif" font-size="10.00">itk::FunctionBase&lt;</text>
<text text-anchor="start" x="1358" y="-36.03" font-family="Helvetica,sans-Serif" font-size="10.00"> Point&lt; double, 3 &gt;,</text>
<text text-anchor="middle" x="1407.5" y="-25.03" font-family="Helvetica,sans-Serif" font-size="10.00"> TOutput &gt;</text>
</a>
</g>
</g>
<!-- Node5&#45;&gt;Node20 -->
<g id="edge24" class="edge">
<title>Node5&#45;&gt;Node20</title>
<path fill="none" stroke="midnightblue" d="M1073.08,-68.48C1084.36,-64.49 1097.1,-60.4 1109,-57.53 1191.13,-37.72 1289.5,-35.45 1349.99,-36.4"/>
<polygon fill="midnightblue" stroke="midnightblue" points="1071.81,-65.22 1063.61,-71.93 1074.2,-71.8 1071.81,-65.22"/>
</g>
<!-- Node6 -->
<g id="node6" class="node">
<title>Node6</title>
<g id="a_node6"><a xlink:href="classitk_1_1LightObject.html" target="_top" xlink:title="Light weight base class for most itk classes.">
<polygon fill="white" stroke="black" points="739.5,-99.03 739.5,-118.03 830.5,-118.03 830.5,-99.03 739.5,-99.03"/>
<text text-anchor="middle" x="785" y="-106.03" font-family="Helvetica,sans-Serif" font-size="10.00">itk::LightObject</text>
</a>
</g>
</g>
<!-- Node6&#45;&gt;Node5 -->
<g id="edge5" class="edge">
<title>Node6&#45;&gt;Node5</title>
<path fill="none" stroke="midnightblue" d="M840.69,-102.66C890.77,-97.28 963.25,-89.5 1004.84,-85.03"/>
<polygon fill="midnightblue" stroke="midnightblue" points="840.24,-99.18 830.67,-103.73 840.99,-106.14 840.24,-99.18"/>
</g>
<!-- Node7 -->
<g id="node7" class="node">
<title>Node7</title>
<g id="a_node7"><a xlink:title=" ">
<polygon fill="white" stroke="#bfbfbf" points="457,-98.03 457,-117.03 564,-117.03 564,-98.03 457,-98.03"/>
<text text-anchor="middle" x="510.5" y="-105.03" font-family="Helvetica,sans-Serif" font-size="10.00">std::atomic&lt; int &gt;</text>
</a>
</g>
</g>
<!-- Node7&#45;&gt;Node6 -->
<g id="edge6" class="edge">
<title>Node7&#45;&gt;Node6</title>
<path fill="none" stroke="#9a32cd" stroke-dasharray="5,2" d="M574.18,-107.76C624.64,-107.94 694.33,-108.2 739.29,-108.36"/>
<polygon fill="#9a32cd" stroke="#9a32cd" points="574.05,-104.26 564.04,-107.72 574.03,-111.26 574.05,-104.26"/>
<text text-anchor="middle" x="651.5" y="-110.53" font-family="Helvetica,sans-Serif" font-size="10.00"> m_ReferenceCount</text>
</g>
<!-- Node8 -->
<g id="node8" class="node">
<title>Node8</title>
<g id="a_node8"><a xlink:title="STL class.">
<polygon fill="white" stroke="#bfbfbf" points="123,-95.03 123,-114.03 223,-114.03 223,-95.03 123,-95.03"/>
<text text-anchor="middle" x="173" y="-102.03" font-family="Helvetica,sans-Serif" font-size="10.00">std::atomic&lt; T &gt;</text>
</a>
</g>
</g>
<!-- Node8&#45;&gt;Node7 -->
<g id="edge7" class="edge">
<title>Node8&#45;&gt;Node7</title>
<path fill="none" stroke="orange" stroke-dasharray="5,2" d="M233.38,-105.06C296.77,-105.63 396.25,-106.52 456.9,-107.06"/>
<polygon fill="orange" stroke="orange" points="233.17,-101.56 223.14,-104.97 233.11,-108.56 233.17,-101.56"/>
<text text-anchor="middle" x="334" y="-109.53" font-family="Helvetica,sans-Serif" font-size="10.00"> &lt; int &gt;</text>
</g>
<!-- Node17 -->
<g id="node17" class="node">
<title>Node17</title>
<g id="a_node17"><a xlink:href="classitk_1_1TimeStamp.html" target="_top" xlink:title="Generate a unique, increasing time value.">
<polygon fill="white" stroke="black" points="605.5,-60.03 605.5,-79.03 697.5,-79.03 697.5,-60.03 605.5,-60.03"/>
<text text-anchor="middle" x="651.5" y="-67.03" font-family="Helvetica,sans-Serif" font-size="10.00">itk::TimeStamp</text>
</a>
</g>
</g>
<!-- Node8&#45;&gt;Node17 -->
<g id="edge19" class="edge">
<title>Node8&#45;&gt;Node17</title>
<path fill="none" stroke="#9a32cd" stroke-dasharray="5,2" d="M226.31,-93.17C234.22,-91.76 242.3,-90.47 250,-89.53 378.18,-73.76 530.88,-70.34 605.27,-69.66"/>
<polygon fill="#9a32cd" stroke="#9a32cd" points="225.62,-89.74 216.43,-95.03 226.91,-96.62 225.62,-89.74"/>
<text text-anchor="middle" x="334" y="-92.53" font-family="Helvetica,sans-Serif" font-size="10.00"> m_GlobalTimeStamp</text>
</g>
<!-- Node9 -->
<g id="node9" class="node">
<title>Node9</title>
<g id="a_node9"><a xlink:title=" ">
<polygon fill="white" stroke="#bfbfbf" points="0,-134.03 0,-153.03 29,-153.03 29,-134.03 0,-134.03"/>
<text text-anchor="middle" x="14.5" y="-141.03" font-family="Helvetica,sans-Serif" font-size="10.00">T</text>
</a>
</g>
</g>
<!-- Node9&#45;&gt;Node8 -->
<g id="edge8" class="edge">
<title>Node9&#45;&gt;Node8</title>
<path fill="none" stroke="#9a32cd" stroke-dasharray="5,2" d="M38.44,-130.93C41.27,-129.66 44.17,-128.49 47,-127.53 71.35,-119.3 99.43,-113.79 122.79,-110.24"/>
<polygon fill="#9a32cd" stroke="#9a32cd" points="36.66,-127.91 29.24,-135.47 39.75,-134.18 36.66,-127.91"/>
<text text-anchor="middle" x="71.5" y="-130.53" font-family="Helvetica,sans-Serif" font-size="10.00"> ptr</text>
</g>
<!-- Node14 -->
<g id="node14" class="node">
<title>Node14</title>
<g id="a_node14"><a xlink:title="STL class.">
<polygon fill="white" stroke="#bfbfbf" points="122.5,-133.03 122.5,-152.03 223.5,-152.03 223.5,-133.03 122.5,-133.03"/>
<text text-anchor="middle" x="173" y="-140.03" font-family="Helvetica,sans-Serif" font-size="10.00">std::map&lt; K, T &gt;</text>
</a>
</g>
</g>
<!-- Node9&#45;&gt;Node14 -->
<g id="edge15" class="edge">
<title>Node9&#45;&gt;Node14</title>
<path fill="none" stroke="#9a32cd" stroke-dasharray="5,2" d="M39.19,-143.38C61.16,-143.24 94.54,-143.02 122.35,-142.85"/>
<polygon fill="#9a32cd" stroke="#9a32cd" points="39.09,-139.88 29.11,-143.44 39.14,-146.88 39.09,-139.88"/>
<text text-anchor="middle" x="71.5" y="-145.53" font-family="Helvetica,sans-Serif" font-size="10.00"> elements</text>
</g>
<!-- Node16 -->
<g id="node16" class="node">
<title>Node16</title>
<g id="a_node16"><a xlink:title="STL class.">
<polygon fill="white" stroke="#bfbfbf" points="114,-171.03 114,-190.03 232,-190.03 232,-171.03 114,-171.03"/>
<text text-anchor="middle" x="173" y="-178.03" font-family="Helvetica,sans-Serif" font-size="10.00">std::shared_ptr&lt; T &gt;</text>
</a>
</g>
</g>
<!-- Node9&#45;&gt;Node16 -->
<g id="edge17" class="edge">
<title>Node9&#45;&gt;Node16</title>
<path fill="none" stroke="#9a32cd" stroke-dasharray="5,2" d="M38.37,-154.44C41.23,-155.58 44.16,-156.65 47,-157.53 68.4,-164.15 92.48,-169.14 113.75,-172.74"/>
<polygon fill="#9a32cd" stroke="#9a32cd" points="39.6,-151.16 29.03,-150.38 36.81,-157.58 39.6,-151.16"/>
<text text-anchor="middle" x="71.5" y="-171.53" font-family="Helvetica,sans-Serif" font-size="10.00"> ptr</text>
</g>
<!-- Node10 -->
<g id="node10" class="node">
<title>Node10</title>
<g id="a_node10"><a xlink:title="STL class.">
<polygon fill="white" stroke="#bfbfbf" points="752.5,-14.03 752.5,-33.03 817.5,-33.03 817.5,-14.03 752.5,-14.03"/>
<text text-anchor="middle" x="785" y="-21.03" font-family="Helvetica,sans-Serif" font-size="10.00">std::string</text>
</a>
</g>
</g>
<!-- Node10&#45;&gt;Node5 -->
<g id="edge9" class="edge">
<title>Node10&#45;&gt;Node5</title>
<path fill="none" stroke="#9a32cd" stroke-dasharray="5,2" d="M827.91,-21.64C869.63,-21.19 934.79,-24.39 987,-44.53 1002.82,-50.63 1018.11,-63.04 1027.64,-71.8"/>
<polygon fill="#9a32cd" stroke="#9a32cd" points="827.76,-18.15 817.83,-21.83 827.89,-25.14 827.76,-18.15"/>
<text text-anchor="middle" x="928.5" y="-47.53" font-family="Helvetica,sans-Serif" font-size="10.00"> m_ObjectName</text>
</g>
<!-- Node11 -->
<g id="node11" class="node">
<title>Node11</title>
<g id="a_node11"><a xlink:title="STL class.">
<polygon fill="white" stroke="#bfbfbf" points="458.5,-8.53 458.5,-38.53 562.5,-38.53 562.5,-8.53 458.5,-8.53"/>
<text text-anchor="start" x="466.5" y="-26.53" font-family="Helvetica,sans-Serif" font-size="10.00">std::basic_string&lt;</text>
<text text-anchor="middle" x="510.5" y="-15.53" font-family="Helvetica,sans-Serif" font-size="10.00"> char &gt;</text>
</a>
</g>
</g>
<!-- Node11&#45;&gt;Node10 -->
<g id="edge10" class="edge">
<title>Node11&#45;&gt;Node10</title>
<path fill="none" stroke="midnightblue" d="M572.85,-23.53C628.49,-23.53 708.3,-23.53 752.14,-23.53"/>
<polygon fill="midnightblue" stroke="midnightblue" points="572.76,-20.03 562.76,-23.53 572.76,-27.03 572.76,-20.03"/>
</g>
<!-- Node12 -->
<g id="node12" class="node">
<title>Node12</title>
<g id="a_node12"><a xlink:href="classitk_1_1MetaDataDictionary.html" target="_top" xlink:title="Provides a mechanism for storing a collection of arbitrary data types.">
<polygon fill="white" stroke="black" points="718,-139.03 718,-158.03 852,-158.03 852,-139.03 718,-139.03"/>
<text text-anchor="middle" x="785" y="-146.03" font-family="Helvetica,sans-Serif" font-size="10.00">itk::MetaDataDictionary</text>
</a>
</g>
</g>
<!-- Node12&#45;&gt;Node5 -->
<g id="edge11" class="edge">
<title>Node12&#45;&gt;Node5</title>
<path fill="none" stroke="#9a32cd" stroke-dasharray="5,2" d="M862.31,-137.28C900.39,-130.5 946.79,-120.43 987,-106.53 998.65,-102.5 1011.07,-96.38 1020.67,-91.21"/>
<polygon fill="#9a32cd" stroke="#9a32cd" points="861.56,-133.86 852.31,-139.02 862.76,-140.76 861.56,-133.86"/>
<text text-anchor="middle" x="928.5" y="-137.53" font-family="Helvetica,sans-Serif" font-size="10.00"> m_MetaDataDictionary</text>
</g>
<!-- Node13 -->
<g id="node13" class="node">
<title>Node13</title>
<g id="a_node13"><a xlink:title=" ">
<polygon fill="white" stroke="#bfbfbf" points="436,-136.53 436,-166.53 585,-166.53 585,-136.53 436,-136.53"/>
<text text-anchor="start" x="444" y="-154.53" font-family="Helvetica,sans-Serif" font-size="10.00">std::shared_ptr&lt; MetaData</text>
<text text-anchor="middle" x="510.5" y="-143.53" font-family="Helvetica,sans-Serif" font-size="10.00">DictionaryMapType &gt;</text>
</a>
</g>
</g>
<!-- Node13&#45;&gt;Node12 -->
<g id="edge12" class="edge">
<title>Node13&#45;&gt;Node12</title>
<path fill="none" stroke="#9a32cd" stroke-dasharray="5,2" d="M595.34,-150.61C634.65,-150.17 680.82,-149.66 717.65,-149.26"/>
<polygon fill="#9a32cd" stroke="#9a32cd" points="595.2,-147.11 585.24,-150.72 595.28,-154.11 595.2,-147.11"/>
<text text-anchor="middle" x="651.5" y="-152.53" font-family="Helvetica,sans-Serif" font-size="10.00"> m_Dictionary</text>
</g>
<!-- Node14&#45;&gt;Node13 -->
<g id="edge13" class="edge">
<title>Node14&#45;&gt;Node13</title>
<path fill="none" stroke="#9a32cd" stroke-dasharray="5,2" d="M233.74,-142.87C283.15,-143.31 355.15,-144.3 418,-146.53 423.72,-146.73 429.65,-146.98 435.6,-147.25"/>
<polygon fill="#9a32cd" stroke="#9a32cd" points="233.58,-139.37 223.55,-142.79 233.52,-146.37 233.58,-139.37"/>
<text text-anchor="middle" x="334" y="-149.53" font-family="Helvetica,sans-Serif" font-size="10.00"> ptr</text>
</g>
<!-- Node15 -->
<g id="node15" class="node">
<title>Node15</title>
<g id="a_node15"><a xlink:title=" ">
<polygon fill="white" stroke="#bfbfbf" points="0,-66.03 0,-85.03 29,-85.03 29,-66.03 0,-66.03"/>
<text text-anchor="middle" x="14.5" y="-73.03" font-family="Helvetica,sans-Serif" font-size="10.00">K</text>
</a>
</g>
</g>
<!-- Node15&#45;&gt;Node14 -->
<g id="edge14" class="edge">
<title>Node15&#45;&gt;Node14</title>
<path fill="none" stroke="#9a32cd" stroke-dasharray="5,2" d="M39.39,-78.58C56.39,-81.68 79.12,-87.77 96,-99.53 106.94,-107.15 103.16,-115.76 114,-123.53 119.34,-127.36 125.49,-130.44 131.76,-132.93"/>
<polygon fill="#9a32cd" stroke="#9a32cd" points="39.59,-75.07 29.17,-76.95 38.49,-81.98 39.59,-75.07"/>
<text text-anchor="middle" x="71.5" y="-102.53" font-family="Helvetica,sans-Serif" font-size="10.00"> keys</text>
</g>
<!-- Node16&#45;&gt;Node13 -->
<g id="edge16" class="edge">
<title>Node16&#45;&gt;Node13</title>
<path fill="none" stroke="orange" stroke-dasharray="5,2" d="M242.27,-174.63C298.5,-169.77 378.06,-162.89 435.74,-157.9"/>
<polygon fill="orange" stroke="orange" points="241.72,-171.16 232.06,-175.51 242.32,-178.14 241.72,-171.16"/>
<text text-anchor="middle" x="334" y="-175.53" font-family="Helvetica,sans-Serif" font-size="10.00"> &lt; MetaDataDictionaryMapType &gt;</text>
</g>
<!-- Node17&#45;&gt;Node5 -->
<g id="edge18" class="edge">
<title>Node17&#45;&gt;Node5</title>
<path fill="none" stroke="#9a32cd" stroke-dasharray="5,2" d="M707.87,-71.25C789.37,-73.79 939.09,-78.46 1004.95,-80.51"/>
<polygon fill="#9a32cd" stroke="#9a32cd" points="707.9,-67.75 697.8,-70.94 707.68,-74.75 707.9,-67.75"/>
<text text-anchor="middle" x="785" y="-78.53" font-family="Helvetica,sans-Serif" font-size="10.00"> m_MTime</text>
</g>
<!-- Node18&#45;&gt;Node4 -->
<g id="edge20" class="edge">
<title>Node18&#45;&gt;Node4</title>
<path fill="none" stroke="orange" stroke-dasharray="5,2" d="M1228.44,-86.98C1299.88,-93.08 1414.45,-102.86 1482.8,-108.69"/>
<polygon fill="orange" stroke="orange" points="1228.49,-83.48 1218.23,-86.11 1227.89,-90.45 1228.49,-83.48"/>
<text text-anchor="start" x="1236" y="-108.53" font-family="Helvetica,sans-Serif" font-size="10.00"> &lt; Point&lt; double, 3</text>
<text text-anchor="middle" x="1284" y="-97.53" font-family="Helvetica,sans-Serif" font-size="10.00"> &gt;, bool &gt;</text>
</g>
<!-- Node18&#45;&gt;Node20 -->
<g id="edge25" class="edge">
<title>Node18&#45;&gt;Node20</title>
<path fill="none" stroke="orange" stroke-dasharray="5,2" d="M1214.24,-63.33C1221.47,-61.13 1228.88,-59.1 1236,-57.53 1273.52,-49.24 1316.52,-44.48 1349.95,-41.8"/>
<polygon fill="orange" stroke="orange" points="1213,-60.05 1204.54,-66.42 1215.13,-66.72 1213,-60.05"/>
<text text-anchor="start" x="1236" y="-71.53" font-family="Helvetica,sans-Serif" font-size="10.00"> &lt; Point&lt; double, 3</text>
<text text-anchor="middle" x="1284" y="-60.53" font-family="Helvetica,sans-Serif" font-size="10.00"> &gt;, TOutput &gt;</text>
</g>
<!-- Node19 -->
<g id="node19" class="node">
<title>Node19</title>
<g id="a_node19"><a xlink:href="classitk_1_1SpatialFunction.html" target="_top" xlink:title="N&#45;dimensional spatial function class.">
<polygon fill="white" stroke="black" points="1616,-18.03 1616,-59.03 1782,-59.03 1782,-18.03 1616,-18.03"/>
<text text-anchor="start" x="1624" y="-47.03" font-family="Helvetica,sans-Serif" font-size="10.00">itk::SpatialFunction</text>
<text text-anchor="start" x="1624" y="-36.03" font-family="Helvetica,sans-Serif" font-size="10.00">&lt; TOutput, VImageDimension,</text>
<text text-anchor="middle" x="1699" y="-25.03" font-family="Helvetica,sans-Serif" font-size="10.00"> TInput &gt;</text>
</a>
</g>
</g>
<!-- Node19&#45;&gt;Node3 -->
<g id="edge22" class="edge">
<title>Node19&#45;&gt;Node3</title>
<path fill="none" stroke="orange" stroke-dasharray="5,2" d="M1791.92,-55.13C1840.31,-63.88 1898.76,-74.44 1943.77,-82.57"/>
<polygon fill="orange" stroke="orange" points="1792.53,-51.69 1782.07,-53.36 1791.29,-58.58 1792.53,-51.69"/>
<text text-anchor="start" x="1809.5" y="-92.53" font-family="Helvetica,sans-Serif" font-size="10.00"> &lt; bool, VDimension,</text>
<text text-anchor="middle" x="1863" y="-81.53" font-family="Helvetica,sans-Serif" font-size="10.00"> Point&lt; double, 3 &gt; &gt;</text>
</g>
<!-- Node19&#45;&gt;Node22 -->
<g id="edge29" class="edge">
<title>Node19&#45;&gt;Node22</title>
<path fill="none" stroke="orange" stroke-dasharray="5,2" d="M1763.62,-14.94C1775.56,-11.45 1788.04,-8.4 1800,-6.53 1855.33,2.11 1870.69,2.21 1926,-6.53 1937.62,-8.36 1949.78,-11.46 1961.26,-14.96"/>
<polygon fill="orange" stroke="orange" points="1762.29,-11.69 1753.76,-17.97 1764.34,-18.38 1762.29,-11.69"/>
<text text-anchor="start" x="1800" y="-20.53" font-family="Helvetica,sans-Serif" font-size="10.00"> &lt; bool, 3, Point&lt; double,</text>
<text text-anchor="middle" x="1863" y="-9.53" font-family="Helvetica,sans-Serif" font-size="10.00"> 3 &gt; &gt;</text>
</g>
<!-- Node20&#45;&gt;Node19 -->
<g id="edge23" class="edge">
<title>Node20&#45;&gt;Node19</title>
<path fill="none" stroke="midnightblue" d="M1475.1,-38.53C1516.98,-38.53 1571.33,-38.53 1615.88,-38.53"/>
<polygon fill="midnightblue" stroke="midnightblue" points="1475.01,-35.03 1465.01,-38.53 1475.01,-42.03 1475.01,-35.03"/>
</g>
<!-- Node21 -->
<g id="node21" class="node">
<title>Node21</title>
<g id="a_node21"><a xlink:href="classitk_1_1InteriorExteriorSpatialFunction.html" target="_top" xlink:title="Returns whether or not a location is &quot;inside&quot; or &quot;outside&quot; a function.">
<polygon fill="white" stroke="black" points="2126,-32.53 2126,-62.53 2302,-62.53 2302,-32.53 2126,-32.53"/>
<text text-anchor="start" x="2134" y="-50.53" font-family="Helvetica,sans-Serif" font-size="10.00">itk::InteriorExteriorSpatial</text>
<text text-anchor="middle" x="2214" y="-39.53" font-family="Helvetica,sans-Serif" font-size="10.00">Function&lt; VDimension, TInput &gt;</text>
</a>
</g>
</g>
<!-- Node21&#45;&gt;Node2 -->
<g id="edge26" class="edge">
<title>Node21&#45;&gt;Node2</title>
<path fill="none" stroke="orange" stroke-dasharray="5,2" d="M2312.54,-50.76C2346.3,-52.29 2384.35,-54.47 2419,-57.53 2424.82,-58.04 2430.81,-58.63 2436.85,-59.27"/>
<polygon fill="orange" stroke="orange" points="2312.36,-47.24 2302.21,-50.3 2312.05,-54.24 2312.36,-47.24"/>
<text text-anchor="start" x="2320" y="-71.53" font-family="Helvetica,sans-Serif" font-size="10.00"> &lt; 3, Point&lt; double,</text>
<text text-anchor="middle" x="2369.5" y="-60.53" font-family="Helvetica,sans-Serif" font-size="10.00"> 3 &gt; &gt;</text>
</g>
<!-- Node22&#45;&gt;Node21 -->
<g id="edge27" class="edge">
<title>Node22&#45;&gt;Node21</title>
<path fill="none" stroke="midnightblue" d="M2096.24,-40.36C2106.03,-40.96 2116.08,-41.58 2125.98,-42.19"/>
<polygon fill="midnightblue" stroke="midnightblue" points="2096.35,-36.86 2086.15,-39.74 2095.92,-43.85 2096.35,-36.86"/>
</g>
</g>
</svg>
