<?xml version="1.0" encoding="UTF-8" standalone="no"?>
<!DOCTYPE svg PUBLIC "-//W3C//DTD SVG 1.1//EN"
 "http://www.w3.org/Graphics/SVG/1.1/DTD/svg11.dtd">
<!-- Generated by graphviz version 2.43.0 (0)
 -->
<!-- Title: itk::ScaleTransform&lt; TParametersValueType, VDimension &gt; Pages: 1 -->
<svg width="1363pt" height="322pt"
 viewBox="0.00 0.00 1363.00 322.00" xmlns="http://www.w3.org/2000/svg" xmlns:xlink="http://www.w3.org/1999/xlink">
<g id="graph0" class="graph" transform="scale(1 1) rotate(0) translate(4 318)">
<title>itk::ScaleTransform&lt; TParametersValueType, VDimension &gt;</title>
<polygon fill="white" stroke="transparent" points="-4,4 -4,-318 1359,-318 1359,4 -4,4"/>
<!-- Node1 -->
<g id="node1" class="node">
<title>Node1</title>
<g id="a_node1"><a xlink:title="Scale transformation of a vector space (e.g. space coordinates)">
<polygon fill="#bfbfbf" stroke="black" points="1213,-18.5 1213,-59.5 1355,-59.5 1355,-18.5 1213,-18.5"/>
<text text-anchor="start" x="1221" y="-47.5" font-family="Helvetica,sans-Serif" font-size="10.00">itk::ScaleTransform</text>
<text text-anchor="start" x="1221" y="-36.5" font-family="Helvetica,sans-Serif" font-size="10.00">&lt; TParametersValueType,</text>
<text text-anchor="middle" x="1284" y="-25.5" font-family="Helvetica,sans-Serif" font-size="10.00"> VDimension &gt;</text>
</a>
</g>
</g>
<!-- Node2 -->
<g id="node2" class="node">
<title>Node2</title>
<g id="a_node2"><a xlink:href="classitk_1_1MatrixOffsetTransformBase.html" target="_top" xlink:title=" ">
<polygon fill="white" stroke="black" points="1031,-133 1031,-163 1176,-163 1176,-133 1031,-133"/>
<text text-anchor="start" x="1039" y="-151" font-family="Helvetica,sans-Serif" font-size="10.00">itk::MatrixOffsetTransform</text>
<text text-anchor="middle" x="1103.5" y="-140" font-family="Helvetica,sans-Serif" font-size="10.00">Base&lt; float, 3, 3 &gt;</text>
</a>
</g>
</g>
<!-- Node2&#45;&gt;Node1 -->
<g id="edge1" class="edge">
<title>Node2&#45;&gt;Node1</title>
<path fill="none" stroke="midnightblue" d="M1138.25,-127.39C1170.06,-107.97 1217.45,-79.03 1249.26,-59.61"/>
<polygon fill="midnightblue" stroke="midnightblue" points="1136.03,-124.65 1129.32,-132.84 1139.68,-130.62 1136.03,-124.65"/>
</g>
<!-- Node3 -->
<g id="node3" class="node">
<title>Node3</title>
<g id="a_node3"><a xlink:href="classitk_1_1Transform.html" target="_top" xlink:title=" ">
<polygon fill="white" stroke="black" points="662,-243 662,-273 875,-273 875,-243 662,-243"/>
<text text-anchor="start" x="670" y="-261" font-family="Helvetica,sans-Serif" font-size="10.00">itk::Transform&lt; float,</text>
<text text-anchor="middle" x="768.5" y="-250" font-family="Helvetica,sans-Serif" font-size="10.00"> VInputDimension, VOutputDimension &gt;</text>
</a>
</g>
</g>
<!-- Node3&#45;&gt;Node2 -->
<g id="edge2" class="edge">
<title>Node3&#45;&gt;Node2</title>
<path fill="none" stroke="midnightblue" d="M885.09,-243.7C926.49,-236.15 972.83,-224.82 1013,-208 1039.92,-196.73 1067.26,-176.91 1084.52,-163.15"/>
<polygon fill="midnightblue" stroke="midnightblue" points="884.48,-240.26 875.24,-245.45 885.7,-247.15 884.48,-240.26"/>
</g>
<!-- Node4 -->
<g id="node4" class="node">
<title>Node4</title>
<g id="a_node4"><a xlink:href="classTransformBaseTemplate.html" target="_top" xlink:title=" ">
<polygon fill="white" stroke="black" points="349,-243 349,-273 483,-273 483,-243 349,-243"/>
<text text-anchor="start" x="357" y="-261" font-family="Helvetica,sans-Serif" font-size="10.00">TransformBaseTemplate</text>
<text text-anchor="middle" x="416" y="-250" font-family="Helvetica,sans-Serif" font-size="10.00">&lt; float &gt;</text>
</a>
</g>
</g>
<!-- Node4&#45;&gt;Node3 -->
<g id="edge3" class="edge">
<title>Node4&#45;&gt;Node3</title>
<path fill="none" stroke="midnightblue" d="M493.61,-258C542.91,-258 607.65,-258 661.81,-258"/>
<polygon fill="midnightblue" stroke="midnightblue" points="493.34,-254.5 483.34,-258 493.34,-261.5 493.34,-254.5"/>
</g>
<!-- Node5 -->
<g id="node5" class="node">
<title>Node5</title>
<g id="a_node5"><a xlink:title=" ">
<polygon fill="white" stroke="black" points="149.5,-212.5 149.5,-231.5 197.5,-231.5 197.5,-212.5 149.5,-212.5"/>
<text text-anchor="middle" x="173.5" y="-219.5" font-family="Helvetica,sans-Serif" font-size="10.00">Object</text>
</a>
</g>
</g>
<!-- Node5&#45;&gt;Node4 -->
<g id="edge4" class="edge">
<title>Node5&#45;&gt;Node4</title>
<path fill="none" stroke="midnightblue" d="M207.6,-226.95C243.87,-232.38 302.99,-241.23 348.85,-248.1"/>
<polygon fill="midnightblue" stroke="midnightblue" points="207.97,-223.47 197.56,-225.45 206.93,-230.39 207.97,-223.47"/>
</g>
<!-- Node6 -->
<g id="node6" class="node">
<title>Node6</title>
<g id="a_node6"><a xlink:title=" ">
<polygon fill="white" stroke="black" points="141,-250.5 141,-269.5 206,-269.5 206,-250.5 141,-250.5"/>
<text text-anchor="middle" x="173.5" y="-257.5" font-family="Helvetica,sans-Serif" font-size="10.00">std::string</text>
</a>
</g>
</g>
<!-- Node6&#45;&gt;Node4 -->
<g id="edge5" class="edge">
<title>Node6&#45;&gt;Node4</title>
<path fill="none" stroke="#9a32cd" stroke-dasharray="5,2" d="M216.73,-259.65C253.25,-259.35 306.67,-258.9 348.86,-258.55"/>
<polygon fill="#9a32cd" stroke="#9a32cd" points="216.41,-256.15 206.44,-259.73 216.47,-263.15 216.41,-256.15"/>
<text text-anchor="middle" x="277.5" y="-274" font-family="Helvetica,sans-Serif" font-size="10.00"> m_InputSpaceName</text>
<text text-anchor="middle" x="277.5" y="-263" font-family="Helvetica,sans-Serif" font-size="10.00">m_OutputSpaceName</text>
</g>
<!-- Node7 -->
<g id="node7" class="node">
<title>Node7</title>
<g id="a_node7"><a xlink:title=" ">
<polygon fill="white" stroke="black" points="0,-245 0,-275 104,-275 104,-245 0,-245"/>
<text text-anchor="start" x="8" y="-263" font-family="Helvetica,sans-Serif" font-size="10.00">std::basic_string&lt;</text>
<text text-anchor="middle" x="52" y="-252" font-family="Helvetica,sans-Serif" font-size="10.00"> Char &gt;</text>
</a>
</g>
</g>
<!-- Node7&#45;&gt;Node6 -->
<g id="edge6" class="edge">
<title>Node7&#45;&gt;Node6</title>
<path fill="none" stroke="midnightblue" d="M114.1,-260C123.41,-260 132.68,-260 141,-260"/>
<polygon fill="midnightblue" stroke="midnightblue" points="114.03,-256.5 104.03,-260 114.03,-263.5 114.03,-256.5"/>
</g>
<!-- Node8 -->
<g id="node8" class="node">
<title>Node8</title>
<g id="a_node8"><a xlink:href="classitk_1_1Matrix.html" target="_top" xlink:title=" ">
<polygon fill="white" stroke="black" points="688,-182.5 688,-223.5 849,-223.5 849,-182.5 688,-182.5"/>
<text text-anchor="start" x="696" y="-211.5" font-family="Helvetica,sans-Serif" font-size="10.00">itk::Matrix&lt; float,</text>
<text text-anchor="start" x="696" y="-200.5" font-family="Helvetica,sans-Serif" font-size="10.00"> Self::OutputSpaceDimension,</text>
<text text-anchor="middle" x="768.5" y="-189.5" font-family="Helvetica,sans-Serif" font-size="10.00"> Self::InputSpaceDimension &gt;</text>
</a>
</g>
</g>
<!-- Node8&#45;&gt;Node2 -->
<g id="edge7" class="edge">
<title>Node8&#45;&gt;Node2</title>
<path fill="none" stroke="#9a32cd" stroke-dasharray="5,2" d="M859.25,-195.86C905.47,-191.29 962.57,-184.26 1013,-174 1027.11,-171.13 1042.23,-167.11 1055.95,-163.09"/>
<polygon fill="#9a32cd" stroke="#9a32cd" points="858.87,-192.38 849.26,-196.83 859.55,-199.35 858.87,-192.38"/>
<text text-anchor="middle" x="953" y="-196" font-family="Helvetica,sans-Serif" font-size="10.00"> m_Matrix</text>
</g>
<!-- Node9 -->
<g id="node9" class="node">
<title>Node9</title>
<g id="a_node9"><a xlink:href="classitk_1_1Vector.html" target="_top" xlink:title=" ">
<polygon fill="white" stroke="black" points="683.5,-133 683.5,-163 853.5,-163 853.5,-133 683.5,-133"/>
<text text-anchor="start" x="691.5" y="-151" font-family="Helvetica,sans-Serif" font-size="10.00">itk::Vector&lt; float,</text>
<text text-anchor="middle" x="768.5" y="-140" font-family="Helvetica,sans-Serif" font-size="10.00"> Self::OutputSpaceDimension &gt;</text>
</a>
</g>
</g>
<!-- Node9&#45;&gt;Node2 -->
<g id="edge8" class="edge">
<title>Node9&#45;&gt;Node2</title>
<path fill="none" stroke="#9a32cd" stroke-dasharray="5,2" d="M863.64,-148C916.73,-148 982.02,-148 1030.91,-148"/>
<polygon fill="#9a32cd" stroke="#9a32cd" points="863.53,-144.5 853.53,-148 863.53,-151.5 863.53,-144.5"/>
<text text-anchor="middle" x="953" y="-162" font-family="Helvetica,sans-Serif" font-size="10.00"> m_Offset</text>
<text text-anchor="middle" x="953" y="-151" font-family="Helvetica,sans-Serif" font-size="10.00">m_Translation</text>
</g>
<!-- Node10 -->
<g id="node10" class="node">
<title>Node10</title>
<g id="a_node10"><a xlink:href="classitk_1_1FixedArray.html" target="_top" xlink:title=" ">
<polygon fill="white" stroke="black" points="354.5,-133 354.5,-163 477.5,-163 477.5,-133 354.5,-133"/>
<text text-anchor="start" x="362.5" y="-151" font-family="Helvetica,sans-Serif" font-size="10.00">itk::FixedArray&lt; float,</text>
<text text-anchor="middle" x="416" y="-140" font-family="Helvetica,sans-Serif" font-size="10.00"> VVectorDimension &gt;</text>
</a>
</g>
</g>
<!-- Node10&#45;&gt;Node9 -->
<g id="edge9" class="edge">
<title>Node10&#45;&gt;Node9</title>
<path fill="none" stroke="midnightblue" d="M487.92,-148C544.41,-148 623.63,-148 683.33,-148"/>
<polygon fill="midnightblue" stroke="midnightblue" points="487.65,-144.5 477.65,-148 487.65,-151.5 487.65,-144.5"/>
</g>
<!-- Node11 -->
<g id="node11" class="node">
<title>Node11</title>
<g id="a_node11"><a xlink:href="classVLength.html" target="_top" xlink:title=" ">
<polygon fill="white" stroke="black" points="145.5,-89.5 145.5,-108.5 201.5,-108.5 201.5,-89.5 145.5,-89.5"/>
<text text-anchor="middle" x="173.5" y="-96.5" font-family="Helvetica,sans-Serif" font-size="10.00">VLength</text>
</a>
</g>
</g>
<!-- Node11&#45;&gt;Node10 -->
<g id="edge10" class="edge">
<title>Node11&#45;&gt;Node10</title>
<path fill="none" stroke="#9a32cd" stroke-dasharray="5,2" d="M211.33,-110.68C215.58,-111.88 219.87,-113.01 224,-114 267.23,-124.36 316.66,-133.08 354.41,-139.09"/>
<polygon fill="#9a32cd" stroke="#9a32cd" points="212.16,-107.28 201.58,-107.83 210.19,-114 212.16,-107.28"/>
<text text-anchor="middle" x="277.5" y="-138" font-family="Helvetica,sans-Serif" font-size="10.00"> m_InternalArray</text>
</g>
<!-- Node14 -->
<g id="node14" class="node">
<title>Node14</title>
<g id="a_node14"><a xlink:href="classitk_1_1FixedArray.html" target="_top" xlink:title=" ">
<polygon fill="white" stroke="black" points="354.5,-84 354.5,-114 477.5,-114 477.5,-84 354.5,-84"/>
<text text-anchor="start" x="362.5" y="-102" font-family="Helvetica,sans-Serif" font-size="10.00">itk::FixedArray&lt; float,</text>
<text text-anchor="middle" x="416" y="-91" font-family="Helvetica,sans-Serif" font-size="10.00"> VPointDimension &gt;</text>
</a>
</g>
</g>
<!-- Node11&#45;&gt;Node14 -->
<g id="edge14" class="edge">
<title>Node11&#45;&gt;Node14</title>
<path fill="none" stroke="#9a32cd" stroke-dasharray="5,2" d="M211.72,-99C249.67,-99 309.17,-99 354.01,-99"/>
<polygon fill="#9a32cd" stroke="#9a32cd" points="211.62,-95.5 201.62,-99 211.62,-102.5 211.62,-95.5"/>
<text text-anchor="middle" x="277.5" y="-102" font-family="Helvetica,sans-Serif" font-size="10.00"> m_InternalArray</text>
</g>
<!-- Node18 -->
<g id="node18" class="node">
<title>Node18</title>
<g id="a_node18"><a xlink:href="classitk_1_1FixedArray.html" target="_top" xlink:title=" ">
<polygon fill="white" stroke="black" points="501,-0.5 501,-19.5 644,-19.5 644,-0.5 501,-0.5"/>
<text text-anchor="middle" x="572.5" y="-7.5" font-family="Helvetica,sans-Serif" font-size="10.00">itk::FixedArray&lt; float, 3 &gt;</text>
</a>
</g>
</g>
<!-- Node11&#45;&gt;Node18 -->
<g id="edge19" class="edge">
<title>Node11&#45;&gt;Node18</title>
<path fill="none" stroke="#9a32cd" stroke-dasharray="5,2" d="M211.37,-87.45C215.61,-86.24 219.89,-85.06 224,-84 328.39,-57.12 452.18,-32.46 520.25,-19.51"/>
<polygon fill="#9a32cd" stroke="#9a32cd" points="210.22,-84.15 201.62,-90.33 212.2,-90.86 210.22,-84.15"/>
<text text-anchor="middle" x="277.5" y="-87" font-family="Helvetica,sans-Serif" font-size="10.00"> m_InternalArray</text>
</g>
<!-- Node12 -->
<g id="node12" class="node">
<title>Node12</title>
<g id="a_node12"><a xlink:href="classitk_1_1Matrix.html" target="_top" xlink:title=" ">
<polygon fill="white" stroke="black" points="683.5,-23.5 683.5,-64.5 853.5,-64.5 853.5,-23.5 683.5,-23.5"/>
<text text-anchor="start" x="691.5" y="-52.5" font-family="Helvetica,sans-Serif" font-size="10.00">itk::Matrix&lt; float,</text>
<text text-anchor="start" x="691.5" y="-41.5" font-family="Helvetica,sans-Serif" font-size="10.00"> Self::InputSpaceDimension,</text>
<text text-anchor="middle" x="768.5" y="-30.5" font-family="Helvetica,sans-Serif" font-size="10.00"> Self::OutputSpaceDimension &gt;</text>
</a>
</g>
</g>
<!-- Node12&#45;&gt;Node2 -->
<g id="edge11" class="edge">
<title>Node12&#45;&gt;Node2</title>
<path fill="none" stroke="#9a32cd" stroke-dasharray="5,2" d="M863.54,-60.22C909.43,-69.58 964.96,-83.1 1013,-101 1035.86,-109.52 1060.28,-122.64 1077.83,-132.86"/>
<polygon fill="#9a32cd" stroke="#9a32cd" points="864.09,-56.76 853.6,-58.22 862.72,-63.62 864.09,-56.76"/>
<text text-anchor="middle" x="953" y="-104" font-family="Helvetica,sans-Serif" font-size="10.00"> m_InverseMatrix</text>
</g>
<!-- Node13 -->
<g id="node13" class="node">
<title>Node13</title>
<g id="a_node13"><a xlink:href="classitk_1_1Point.html" target="_top" xlink:title=" ">
<polygon fill="white" stroke="black" points="688,-84 688,-114 849,-114 849,-84 688,-84"/>
<text text-anchor="start" x="696" y="-102" font-family="Helvetica,sans-Serif" font-size="10.00">itk::Point&lt; float,</text>
<text text-anchor="middle" x="768.5" y="-91" font-family="Helvetica,sans-Serif" font-size="10.00"> Self::InputSpaceDimension &gt;</text>
</a>
</g>
</g>
<!-- Node13&#45;&gt;Node2 -->
<g id="edge12" class="edge">
<title>Node13&#45;&gt;Node2</title>
<path fill="none" stroke="#9a32cd" stroke-dasharray="5,2" d="M859.04,-110.91C905.09,-117.18 962.1,-125.18 1013,-133 1018.76,-133.88 1024.73,-134.83 1030.72,-135.79"/>
<polygon fill="#9a32cd" stroke="#9a32cd" points="859.47,-107.43 849.09,-109.55 858.53,-114.37 859.47,-107.43"/>
<text text-anchor="middle" x="953" y="-136" font-family="Helvetica,sans-Serif" font-size="10.00"> m_Center</text>
</g>
<!-- Node14&#45;&gt;Node13 -->
<g id="edge13" class="edge">
<title>Node14&#45;&gt;Node13</title>
<path fill="none" stroke="midnightblue" d="M487.82,-99C545.76,-99 627.67,-99 687.88,-99"/>
<polygon fill="midnightblue" stroke="midnightblue" points="487.65,-95.5 477.65,-99 487.65,-102.5 487.65,-95.5"/>
</g>
<!-- Node15 -->
<g id="node15" class="node">
<title>Node15</title>
<g id="a_node15"><a xlink:href="classitk_1_1TimeStamp.html" target="_top" xlink:title="Generate a unique, increasing time value.">
<polygon fill="white" stroke="black" points="722.5,-292.5 722.5,-311.5 814.5,-311.5 814.5,-292.5 722.5,-292.5"/>
<text text-anchor="middle" x="768.5" y="-299.5" font-family="Helvetica,sans-Serif" font-size="10.00">itk::TimeStamp</text>
</a>
</g>
</g>
<!-- Node15&#45;&gt;Node2 -->
<g id="edge15" class="edge">
<title>Node15&#45;&gt;Node2</title>
<path fill="none" stroke="#9a32cd" stroke-dasharray="5,2" d="M824.76,-296.99C876.59,-290.23 954.64,-274.61 1013,-239 1046.29,-218.69 1076.11,-183.29 1091.5,-163.15"/>
<polygon fill="#9a32cd" stroke="#9a32cd" points="824.25,-293.52 814.76,-298.22 825.11,-300.47 824.25,-293.52"/>
<text text-anchor="middle" x="953" y="-298" font-family="Helvetica,sans-Serif" font-size="10.00"> m_InverseMatrixMTime</text>
<text text-anchor="middle" x="953" y="-287" font-family="Helvetica,sans-Serif" font-size="10.00">m_MatrixMTime</text>
</g>
<!-- Node16 -->
<g id="node16" class="node">
<title>Node16</title>
<g id="a_node16"><a xlink:title=" ">
<polygon fill="white" stroke="black" points="366,-293.5 366,-312.5 466,-312.5 466,-293.5 366,-293.5"/>
<text text-anchor="middle" x="416" y="-300.5" font-family="Helvetica,sans-Serif" font-size="10.00">std::atomic&lt; T &gt;</text>
</a>
</g>
</g>
<!-- Node16&#45;&gt;Node15 -->
<g id="edge16" class="edge">
<title>Node16&#45;&gt;Node15</title>
<path fill="none" stroke="#9a32cd" stroke-dasharray="5,2" d="M476.46,-302.83C546.01,-302.63 659.61,-302.31 722.34,-302.13"/>
<polygon fill="#9a32cd" stroke="#9a32cd" points="476.09,-299.33 466.1,-302.86 476.11,-306.33 476.09,-299.33"/>
<text text-anchor="middle" x="572.5" y="-306" font-family="Helvetica,sans-Serif" font-size="10.00"> m_GlobalTimeStamp</text>
</g>
<!-- Node17 -->
<g id="node17" class="node">
<title>Node17</title>
<g id="a_node17"><a xlink:title=" ">
<polygon fill="white" stroke="black" points="159,-293.5 159,-312.5 188,-312.5 188,-293.5 159,-293.5"/>
<text text-anchor="middle" x="173.5" y="-300.5" font-family="Helvetica,sans-Serif" font-size="10.00">T</text>
</a>
</g>
</g>
<!-- Node17&#45;&gt;Node16 -->
<g id="edge17" class="edge">
<title>Node17&#45;&gt;Node16</title>
<path fill="none" stroke="#9a32cd" stroke-dasharray="5,2" d="M198.43,-303C237.28,-303 314.86,-303 365.84,-303"/>
<polygon fill="#9a32cd" stroke="#9a32cd" points="198.12,-299.5 188.12,-303 198.12,-306.5 198.12,-299.5"/>
<text text-anchor="middle" x="277.5" y="-306" font-family="Helvetica,sans-Serif" font-size="10.00"> ptr</text>
</g>
<!-- Node18&#45;&gt;Node1 -->
<g id="edge18" class="edge">
<title>Node18&#45;&gt;Node1</title>
<path fill="none" stroke="#9a32cd" stroke-dasharray="5,2" d="M654.48,-10.02C715.19,-10.3 800.33,-11.22 875,-14 993.61,-18.42 1131.38,-27.73 1212.66,-33.66"/>
<polygon fill="#9a32cd" stroke="#9a32cd" points="654.2,-6.52 644.19,-9.98 654.18,-13.52 654.2,-6.52"/>
<text text-anchor="middle" x="953" y="-24" font-family="Helvetica,sans-Serif" font-size="10.00"> m_Scale</text>
</g>
</g>
</svg>
