<?xml version="1.0" encoding="UTF-8" standalone="no"?>
<!DOCTYPE svg PUBLIC "-//W3C//DTD SVG 1.1//EN"
 "http://www.w3.org/Graphics/SVG/1.1/DTD/svg11.dtd">
<!-- Generated by graphviz version 2.43.0 (0)
 -->
<!-- Title: itk::TubeSpatialObjectPoint&lt; TPointDimension &gt; Pages: 1 -->
<svg width="184pt" height="309pt"
 viewBox="0.00 0.00 184.00 309.00" xmlns="http://www.w3.org/2000/svg" xmlns:xlink="http://www.w3.org/1999/xlink">
<g id="graph0" class="graph" transform="scale(1 1) rotate(0) translate(4 305)">
<title>itk::TubeSpatialObjectPoint&lt; TPointDimension &gt;</title>
<polygon fill="white" stroke="transparent" points="-4,4 -4,-305 180,-305 180,4 -4,4"/>
<!-- Node1 -->
<g id="node1" class="node">
<title>Node1</title>
<g id="a_node1"><a xlink:title="Point used for a tube definition.">
<polygon fill="#bfbfbf" stroke="black" points="14,-135.5 14,-165.5 162,-165.5 162,-135.5 14,-135.5"/>
<text text-anchor="start" x="22" y="-153.5" font-family="Helvetica,sans-Serif" font-size="10.00">itk::TubeSpatialObjectPoint</text>
<text text-anchor="middle" x="88" y="-142.5" font-family="Helvetica,sans-Serif" font-size="10.00">&lt; TPointDimension &gt;</text>
</a>
</g>
</g>
<!-- Node4 -->
<g id="node4" class="node">
<title>Node4</title>
<g id="a_node4"><a xlink:href="classitk_1_1TubeSpatialObjectPoint.html" target="_top" xlink:title=" ">
<polygon fill="white" stroke="black" points="0,-68.5 0,-87.5 176,-87.5 176,-68.5 0,-68.5"/>
<text text-anchor="middle" x="88" y="-75.5" font-family="Helvetica,sans-Serif" font-size="10.00">itk::TubeSpatialObjectPoint&lt; 3 &gt;</text>
</a>
</g>
</g>
<!-- Node1&#45;&gt;Node4 -->
<g id="edge3" class="edge">
<title>Node1&#45;&gt;Node4</title>
<path fill="none" stroke="orange" stroke-dasharray="5,2" d="M88,-125.09C88,-112.21 88,-97.2 88,-87.89"/>
<polygon fill="orange" stroke="orange" points="84.5,-125.23 88,-135.23 91.5,-125.23 84.5,-125.23"/>
<text text-anchor="middle" x="104" y="-109" font-family="Helvetica,sans-Serif" font-size="10.00"> &lt; 3 &gt;</text>
</g>
<!-- Node2 -->
<g id="node2" class="node">
<title>Node2</title>
<g id="a_node2"><a xlink:href="classitk_1_1SpatialObjectPoint.html" target="_top" xlink:title=" ">
<polygon fill="white" stroke="black" points="11,-203.5 11,-222.5 165,-222.5 165,-203.5 11,-203.5"/>
<text text-anchor="middle" x="88" y="-210.5" font-family="Helvetica,sans-Serif" font-size="10.00">itk::SpatialObjectPoint&lt; 3 &gt;</text>
</a>
</g>
</g>
<!-- Node2&#45;&gt;Node1 -->
<g id="edge1" class="edge">
<title>Node2&#45;&gt;Node1</title>
<path fill="none" stroke="midnightblue" d="M88,-193.22C88,-184.36 88,-173.96 88,-165.76"/>
<polygon fill="midnightblue" stroke="midnightblue" points="84.5,-193.33 88,-203.33 91.5,-193.33 84.5,-193.33"/>
</g>
<!-- Node3 -->
<g id="node3" class="node">
<title>Node3</title>
<g id="a_node3"><a xlink:href="classitk_1_1SpatialObjectPoint.html" target="_top" xlink:title="Point used for spatial objets.">
<polygon fill="white" stroke="black" points="25.5,-270.5 25.5,-300.5 150.5,-300.5 150.5,-270.5 25.5,-270.5"/>
<text text-anchor="start" x="33.5" y="-288.5" font-family="Helvetica,sans-Serif" font-size="10.00">itk::SpatialObjectPoint</text>
<text text-anchor="middle" x="88" y="-277.5" font-family="Helvetica,sans-Serif" font-size="10.00">&lt; TPointDimension &gt;</text>
</a>
</g>
</g>
<!-- Node3&#45;&gt;Node2 -->
<g id="edge2" class="edge">
<title>Node3&#45;&gt;Node2</title>
<path fill="none" stroke="orange" stroke-dasharray="5,2" d="M88,-260.09C88,-247.21 88,-232.2 88,-222.89"/>
<polygon fill="orange" stroke="orange" points="84.5,-260.23 88,-270.23 91.5,-260.23 84.5,-260.23"/>
<text text-anchor="middle" x="104" y="-244" font-family="Helvetica,sans-Serif" font-size="10.00"> &lt; 3 &gt;</text>
</g>
<!-- Node5 -->
<g id="node5" class="node">
<title>Node5</title>
<g id="a_node5"><a xlink:href="classitk_1_1DTITubeSpatialObjectPoint.html" target="_top" xlink:title="Point used for a tube definition.">
<polygon fill="white" stroke="black" points="14.5,-0.5 14.5,-30.5 161.5,-30.5 161.5,-0.5 14.5,-0.5"/>
<text text-anchor="start" x="22.5" y="-18.5" font-family="Helvetica,sans-Serif" font-size="10.00">itk::DTITubeSpatialObject</text>
<text text-anchor="middle" x="88" y="-7.5" font-family="Helvetica,sans-Serif" font-size="10.00">Point&lt; TPointDimension &gt;</text>
</a>
</g>
</g>
<!-- Node4&#45;&gt;Node5 -->
<g id="edge4" class="edge">
<title>Node4&#45;&gt;Node5</title>
<path fill="none" stroke="midnightblue" d="M88,-58.22C88,-49.36 88,-38.96 88,-30.76"/>
<polygon fill="midnightblue" stroke="midnightblue" points="84.5,-58.33 88,-68.33 91.5,-58.33 84.5,-58.33"/>
</g>
</g>
</svg>
