<?xml version="1.0" encoding="UTF-8" standalone="no"?>
<!DOCTYPE svg PUBLIC "-//W3C//DTD SVG 1.1//EN"
 "http://www.w3.org/Graphics/SVG/1.1/DTD/svg11.dtd">
<!-- Generated by graphviz version 2.43.0 (0)
 -->
<!-- Title: itk::Function::ConvergenceMonitoringFunction&lt; TScalar, TEnergyValue &gt; Pages: 1 -->
<svg width="199pt" height="321pt"
 viewBox="0.00 0.00 198.50 321.00" xmlns="http://www.w3.org/2000/svg" xmlns:xlink="http://www.w3.org/1999/xlink">
<g id="graph0" class="graph" transform="scale(1 1) rotate(0) translate(4 317)">
<title>itk::Function::ConvergenceMonitoringFunction&lt; TScalar, TEnergyValue &gt;</title>
<polygon fill="white" stroke="transparent" points="-4,4 -4,-317 194.5,-317 194.5,4 -4,4"/>
<!-- Node1 -->
<g id="node1" class="node">
<title>Node1</title>
<g id="a_node1"><a xlink:title="Abstract base class which monitors convergence during the course of optimization.">
<polygon fill="#bfbfbf" stroke="black" points="12,-157.5 12,-198.5 173,-198.5 173,-157.5 12,-157.5"/>
<text text-anchor="start" x="20" y="-186.5" font-family="Helvetica,sans-Serif" font-size="10.00">itk::Function::Convergence</text>
<text text-anchor="start" x="20" y="-175.5" font-family="Helvetica,sans-Serif" font-size="10.00">MonitoringFunction&lt; TScalar,</text>
<text text-anchor="middle" x="92.5" y="-164.5" font-family="Helvetica,sans-Serif" font-size="10.00"> TEnergyValue &gt;</text>
</a>
</g>
</g>
<!-- Node4 -->
<g id="node4" class="node">
<title>Node4</title>
<g id="a_node4"><a xlink:href="classitk_1_1Function_1_1ConvergenceMonitoringFunction.html" target="_top" xlink:title=" ">
<polygon fill="white" stroke="black" points="13.5,-68.5 13.5,-109.5 171.5,-109.5 171.5,-68.5 13.5,-68.5"/>
<text text-anchor="start" x="21.5" y="-97.5" font-family="Helvetica,sans-Serif" font-size="10.00">itk::Function::Convergence</text>
<text text-anchor="start" x="21.5" y="-86.5" font-family="Helvetica,sans-Serif" font-size="10.00">MonitoringFunction&lt; double,</text>
<text text-anchor="middle" x="92.5" y="-75.5" font-family="Helvetica,sans-Serif" font-size="10.00"> double &gt;</text>
</a>
</g>
</g>
<!-- Node1&#45;&gt;Node4 -->
<g id="edge3" class="edge">
<title>Node1&#45;&gt;Node4</title>
<path fill="none" stroke="orange" stroke-dasharray="5,2" d="M92.5,-146.94C92.5,-134.6 92.5,-120.66 92.5,-109.66"/>
<polygon fill="orange" stroke="orange" points="89,-147.26 92.5,-157.26 96,-147.26 89,-147.26"/>
<text text-anchor="middle" x="141.5" y="-131" font-family="Helvetica,sans-Serif" font-size="10.00"> &lt; double, double &gt;</text>
</g>
<!-- Node2 -->
<g id="node2" class="node">
<title>Node2</title>
<g id="a_node2"><a xlink:href="classitk_1_1Object.html" target="_top" xlink:title="Base class for most ITK classes.">
<polygon fill="white" stroke="black" points="59,-236.5 59,-255.5 126,-255.5 126,-236.5 59,-236.5"/>
<text text-anchor="middle" x="92.5" y="-243.5" font-family="Helvetica,sans-Serif" font-size="10.00">itk::Object</text>
</a>
</g>
</g>
<!-- Node2&#45;&gt;Node1 -->
<g id="edge1" class="edge">
<title>Node2&#45;&gt;Node1</title>
<path fill="none" stroke="midnightblue" d="M92.5,-226.25C92.5,-217.65 92.5,-207.45 92.5,-198.74"/>
<polygon fill="midnightblue" stroke="midnightblue" points="89,-226.37 92.5,-236.37 96,-226.37 89,-226.37"/>
</g>
<!-- Node3 -->
<g id="node3" class="node">
<title>Node3</title>
<g id="a_node3"><a xlink:href="classitk_1_1LightObject.html" target="_top" xlink:title="Light weight base class for most itk classes.">
<polygon fill="white" stroke="black" points="47,-293.5 47,-312.5 138,-312.5 138,-293.5 47,-293.5"/>
<text text-anchor="middle" x="92.5" y="-300.5" font-family="Helvetica,sans-Serif" font-size="10.00">itk::LightObject</text>
</a>
</g>
</g>
<!-- Node3&#45;&gt;Node2 -->
<g id="edge2" class="edge">
<title>Node3&#45;&gt;Node2</title>
<path fill="none" stroke="midnightblue" d="M92.5,-283.12C92.5,-273.82 92.5,-263.06 92.5,-255.71"/>
<polygon fill="midnightblue" stroke="midnightblue" points="89,-283.41 92.5,-293.41 96,-283.41 89,-283.41"/>
</g>
<!-- Node5 -->
<g id="node5" class="node">
<title>Node5</title>
<g id="a_node5"><a xlink:href="classitk_1_1Function_1_1WindowConvergenceMonitoringFunction.html" target="_top" xlink:title="Class which monitors convergence during the course of optimization.">
<polygon fill="white" stroke="black" points="0,-0.5 0,-30.5 185,-30.5 185,-0.5 0,-0.5"/>
<text text-anchor="start" x="8" y="-18.5" font-family="Helvetica,sans-Serif" font-size="10.00">itk::Function::WindowConvergence</text>
<text text-anchor="middle" x="92.5" y="-7.5" font-family="Helvetica,sans-Serif" font-size="10.00">MonitoringFunction&lt; TScalar &gt;</text>
</a>
</g>
</g>
<!-- Node4&#45;&gt;Node5 -->
<g id="edge4" class="edge">
<title>Node4&#45;&gt;Node5</title>
<path fill="none" stroke="midnightblue" d="M92.5,-58.16C92.5,-48.69 92.5,-38.65 92.5,-30.8"/>
<polygon fill="midnightblue" stroke="midnightblue" points="89,-58.46 92.5,-68.46 96,-58.46 89,-58.46"/>
</g>
</g>
</svg>
