<?xml version="1.0" encoding="UTF-8" standalone="no"?>
<!DOCTYPE svg PUBLIC "-//W3C//DTD SVG 1.1//EN"
 "http://www.w3.org/Graphics/SVG/1.1/DTD/svg11.dtd">
<!-- Generated by graphviz version 2.43.0 (0)
 -->
<!-- Title: itk::Statistics::MahalanobisDistanceMetric&lt; TVector &gt; Pages: 1 -->
<svg width="222pt" height="367pt"
 viewBox="0.00 0.00 221.50 367.00" xmlns="http://www.w3.org/2000/svg" xmlns:xlink="http://www.w3.org/1999/xlink">
<g id="graph0" class="graph" transform="scale(1 1) rotate(0) translate(4 363)">
<title>itk::Statistics::MahalanobisDistanceMetric&lt; TVector &gt;</title>
<polygon fill="white" stroke="transparent" points="-4,4 -4,-363 217.5,-363 217.5,4 -4,4"/>
<!-- Node1 -->
<g id="node1" class="node">
<title>Node1</title>
<g id="a_node1"><a xlink:title="MahalanobisDistanceMetric class computes a Mahalanobis distance given a mean and covariance.">
<polygon fill="#bfbfbf" stroke="black" points="0,-0.5 0,-30.5 149,-30.5 149,-0.5 0,-0.5"/>
<text text-anchor="start" x="8" y="-18.5" font-family="Helvetica,sans-Serif" font-size="10.00">itk::Statistics::Mahalanobis</text>
<text text-anchor="middle" x="74.5" y="-7.5" font-family="Helvetica,sans-Serif" font-size="10.00">DistanceMetric&lt; TVector &gt;</text>
</a>
</g>
</g>
<!-- Node2 -->
<g id="node2" class="node">
<title>Node2</title>
<g id="a_node2"><a xlink:href="classitk_1_1Statistics_1_1DistanceMetric.html" target="_top" xlink:title="this class declares common interfaces for distance functions.">
<polygon fill="white" stroke="black" points="10,-68.5 10,-98.5 139,-98.5 139,-68.5 10,-68.5"/>
<text text-anchor="start" x="18" y="-86.5" font-family="Helvetica,sans-Serif" font-size="10.00">itk::Statistics::Distance</text>
<text text-anchor="middle" x="74.5" y="-75.5" font-family="Helvetica,sans-Serif" font-size="10.00">Metric&lt; TVector &gt;</text>
</a>
</g>
</g>
<!-- Node2&#45;&gt;Node1 -->
<g id="edge1" class="edge">
<title>Node2&#45;&gt;Node1</title>
<path fill="none" stroke="midnightblue" d="M74.5,-58.03C74.5,-48.86 74.5,-38.74 74.5,-30.79"/>
<polygon fill="midnightblue" stroke="midnightblue" points="71,-58.18 74.5,-68.18 78,-58.18 71,-58.18"/>
</g>
<!-- Node3 -->
<g id="node3" class="node">
<title>Node3</title>
<g id="a_node3"><a xlink:href="classitk_1_1FunctionBase.html" target="_top" xlink:title=" ">
<polygon fill="white" stroke="black" points="20,-136.5 20,-166.5 129,-166.5 129,-136.5 20,-136.5"/>
<text text-anchor="start" x="28" y="-154.5" font-family="Helvetica,sans-Serif" font-size="10.00">itk::FunctionBase&lt;</text>
<text text-anchor="middle" x="74.5" y="-143.5" font-family="Helvetica,sans-Serif" font-size="10.00"> TVector, double &gt;</text>
</a>
</g>
</g>
<!-- Node3&#45;&gt;Node2 -->
<g id="edge2" class="edge">
<title>Node3&#45;&gt;Node2</title>
<path fill="none" stroke="midnightblue" d="M74.5,-126.03C74.5,-116.86 74.5,-106.74 74.5,-98.79"/>
<polygon fill="midnightblue" stroke="midnightblue" points="71,-126.18 74.5,-136.18 78,-126.18 71,-126.18"/>
</g>
<!-- Node4 -->
<g id="node4" class="node">
<title>Node4</title>
<g id="a_node4"><a xlink:href="classitk_1_1Object.html" target="_top" xlink:title="Base class for most ITK classes.">
<polygon fill="white" stroke="black" points="37,-282.5 37,-301.5 104,-301.5 104,-282.5 37,-282.5"/>
<text text-anchor="middle" x="70.5" y="-289.5" font-family="Helvetica,sans-Serif" font-size="10.00">itk::Object</text>
</a>
</g>
</g>
<!-- Node4&#45;&gt;Node3 -->
<g id="edge3" class="edge">
<title>Node4&#45;&gt;Node3</title>
<path fill="none" stroke="midnightblue" d="M71.04,-272.25C71.85,-244.19 73.36,-191.88 74.09,-166.73"/>
<polygon fill="midnightblue" stroke="midnightblue" points="67.54,-272.24 70.75,-282.34 74.54,-272.44 67.54,-272.24"/>
</g>
<!-- Node6 -->
<g id="node6" class="node">
<title>Node6</title>
<g id="a_node6"><a xlink:href="classitk_1_1FunctionBase.html" target="_top" xlink:title="Base class for all ITK function objects.">
<polygon fill="white" stroke="black" points="87,-214.5 87,-244.5 196,-244.5 196,-214.5 87,-214.5"/>
<text text-anchor="start" x="95" y="-232.5" font-family="Helvetica,sans-Serif" font-size="10.00">itk::FunctionBase&lt;</text>
<text text-anchor="middle" x="141.5" y="-221.5" font-family="Helvetica,sans-Serif" font-size="10.00"> TInput, TOutput &gt;</text>
</a>
</g>
</g>
<!-- Node4&#45;&gt;Node6 -->
<g id="edge6" class="edge">
<title>Node4&#45;&gt;Node6</title>
<path fill="none" stroke="midnightblue" d="M88.55,-275.62C99.78,-266.05 114.12,-253.83 125.04,-244.53"/>
<polygon fill="midnightblue" stroke="midnightblue" points="86.01,-273.18 80.67,-282.33 90.55,-278.51 86.01,-273.18"/>
</g>
<!-- Node5 -->
<g id="node5" class="node">
<title>Node5</title>
<g id="a_node5"><a xlink:href="classitk_1_1LightObject.html" target="_top" xlink:title="Light weight base class for most itk classes.">
<polygon fill="white" stroke="black" points="25,-339.5 25,-358.5 116,-358.5 116,-339.5 25,-339.5"/>
<text text-anchor="middle" x="70.5" y="-346.5" font-family="Helvetica,sans-Serif" font-size="10.00">itk::LightObject</text>
</a>
</g>
</g>
<!-- Node5&#45;&gt;Node4 -->
<g id="edge4" class="edge">
<title>Node5&#45;&gt;Node4</title>
<path fill="none" stroke="midnightblue" d="M70.5,-329.12C70.5,-319.82 70.5,-309.06 70.5,-301.71"/>
<polygon fill="midnightblue" stroke="midnightblue" points="67,-329.41 70.5,-339.41 74,-329.41 67,-329.41"/>
</g>
<!-- Node6&#45;&gt;Node3 -->
<g id="edge5" class="edge">
<title>Node6&#45;&gt;Node3</title>
<path fill="none" stroke="orange" stroke-dasharray="5,2" d="M122.26,-206.67C110.94,-193.83 96.95,-177.97 87.05,-166.73"/>
<polygon fill="orange" stroke="orange" points="119.66,-209.02 128.9,-214.2 124.91,-204.39 119.66,-209.02"/>
<text text-anchor="middle" x="162.5" y="-188" font-family="Helvetica,sans-Serif" font-size="10.00"> &lt; TVector, double &gt;</text>
</g>
</g>
</svg>
