<?xml version="1.0" encoding="UTF-8" standalone="no"?>
<!DOCTYPE svg PUBLIC "-//W3C//DTD SVG 1.1//EN"
 "http://www.w3.org/Graphics/SVG/1.1/DTD/svg11.dtd">
<!-- Generated by graphviz version 2.43.0 (0)
 -->
<!-- Title: itk::QuadEdgeMeshIteratorGeom&lt; TGeometricalQuadEdge &gt; Pages: 1 -->
<svg width="1082pt" height="88pt"
 viewBox="0.00 0.00 1082.00 88.00" xmlns="http://www.w3.org/2000/svg" xmlns:xlink="http://www.w3.org/1999/xlink">
<g id="graph0" class="graph" transform="scale(1 1) rotate(0) translate(4 84)">
<title>itk::QuadEdgeMeshIteratorGeom&lt; TGeometricalQuadEdge &gt;</title>
<polygon fill="white" stroke="transparent" points="-4,4 -4,-84 1078,-84 1078,4 -4,4"/>
<!-- Node1 -->
<g id="node1" class="node">
<title>Node1</title>
<g id="a_node1"><a xlink:title="Non const geometrical iterator.">
<polygon fill="#bfbfbf" stroke="black" points="890,-27.5 890,-57.5 1074,-57.5 1074,-27.5 890,-27.5"/>
<text text-anchor="start" x="898" y="-45.5" font-family="Helvetica,sans-Serif" font-size="10.00">itk::QuadEdgeMeshIterator</text>
<text text-anchor="middle" x="982" y="-34.5" font-family="Helvetica,sans-Serif" font-size="10.00">Geom&lt; TGeometricalQuadEdge &gt;</text>
</a>
</g>
</g>
<!-- Node2 -->
<g id="node2" class="node">
<title>Node2</title>
<g id="a_node2"><a xlink:href="classitk_1_1QuadEdgeMeshIterator.html" target="_top" xlink:title=" ">
<polygon fill="white" stroke="black" points="698,-27.5 698,-57.5 853,-57.5 853,-27.5 698,-27.5"/>
<text text-anchor="start" x="706" y="-45.5" font-family="Helvetica,sans-Serif" font-size="10.00">itk::QuadEdgeMeshIterator</text>
<text text-anchor="middle" x="775.5" y="-34.5" font-family="Helvetica,sans-Serif" font-size="10.00">&lt; TGeometricalQuadEdge &gt;</text>
</a>
</g>
</g>
<!-- Node2&#45;&gt;Node1 -->
<g id="edge1" class="edge">
<title>Node2&#45;&gt;Node1</title>
<path fill="none" stroke="midnightblue" d="M863.37,-42.5C872.08,-42.5 880.95,-42.5 889.71,-42.5"/>
<polygon fill="midnightblue" stroke="midnightblue" points="863.23,-39 853.23,-42.5 863.23,-46 863.23,-39"/>
</g>
<!-- Node3 -->
<g id="node3" class="node">
<title>Node3</title>
<g id="a_node3"><a xlink:href="classitk_1_1QuadEdgeMeshBaseIterator.html" target="_top" xlink:title=" ">
<polygon fill="white" stroke="black" points="349,-49.5 349,-79.5 520,-79.5 520,-49.5 349,-49.5"/>
<text text-anchor="start" x="357" y="-67.5" font-family="Helvetica,sans-Serif" font-size="10.00">itk::QuadEdgeMeshBaseIterator</text>
<text text-anchor="middle" x="434.5" y="-56.5" font-family="Helvetica,sans-Serif" font-size="10.00">&lt; TGeometricalQuadEdge &gt;</text>
</a>
</g>
</g>
<!-- Node3&#45;&gt;Node2 -->
<g id="edge2" class="edge">
<title>Node3&#45;&gt;Node2</title>
<path fill="none" stroke="midnightblue" d="M530.24,-58.35C583.14,-54.92 648.18,-50.7 697.85,-47.47"/>
<polygon fill="midnightblue" stroke="midnightblue" points="529.92,-54.86 520.17,-59.01 530.38,-61.85 529.92,-54.86"/>
</g>
<!-- Node4 -->
<g id="node4" class="node">
<title>Node4</title>
<g id="a_node4"><a xlink:href="classitk_1_1QuadEdgeMeshBaseIterator.html" target="_top" xlink:title="Base iterator class for QuadEdgeMesh.">
<polygon fill="white" stroke="black" points="0,-24.5 0,-54.5 171,-54.5 171,-24.5 0,-24.5"/>
<text text-anchor="start" x="8" y="-42.5" font-family="Helvetica,sans-Serif" font-size="10.00">itk::QuadEdgeMeshBaseIterator</text>
<text text-anchor="middle" x="85.5" y="-31.5" font-family="Helvetica,sans-Serif" font-size="10.00">&lt; TQuadEdge &gt;</text>
</a>
</g>
</g>
<!-- Node4&#45;&gt;Node3 -->
<g id="edge3" class="edge">
<title>Node4&#45;&gt;Node3</title>
<path fill="none" stroke="orange" stroke-dasharray="5,2" d="M181.68,-46.36C234,-50.13 298.34,-54.76 348.89,-58.4"/>
<polygon fill="orange" stroke="orange" points="181.61,-42.84 171.39,-45.62 181.11,-49.83 181.61,-42.84"/>
<text text-anchor="middle" x="260" y="-59.5" font-family="Helvetica,sans-Serif" font-size="10.00"> &lt; TGeometricalQuadEdge &gt;</text>
</g>
<!-- Node5 -->
<g id="node5" class="node">
<title>Node5</title>
<g id="a_node5"><a xlink:href="classitk_1_1QuadEdgeMeshIterator.html" target="_top" xlink:title="Non const iterator for QuadMesh.">
<polygon fill="white" stroke="black" points="361,-0.5 361,-30.5 508,-30.5 508,-0.5 361,-0.5"/>
<text text-anchor="start" x="369" y="-18.5" font-family="Helvetica,sans-Serif" font-size="10.00">itk::QuadEdgeMeshIterator</text>
<text text-anchor="middle" x="434.5" y="-7.5" font-family="Helvetica,sans-Serif" font-size="10.00">&lt; TQuadEdge &gt;</text>
</a>
</g>
</g>
<!-- Node4&#45;&gt;Node5 -->
<g id="edge5" class="edge">
<title>Node4&#45;&gt;Node5</title>
<path fill="none" stroke="midnightblue" d="M181.42,-32.93C238.04,-29.02 308.8,-24.12 360.93,-20.52"/>
<polygon fill="midnightblue" stroke="midnightblue" points="181.12,-29.45 171.39,-33.63 181.6,-36.43 181.12,-29.45"/>
</g>
<!-- Node5&#45;&gt;Node2 -->
<g id="edge4" class="edge">
<title>Node5&#45;&gt;Node2</title>
<path fill="none" stroke="orange" stroke-dasharray="5,2" d="M518.22,-21.15C565.6,-24.49 626.16,-28.96 680,-33.5 685.83,-33.99 691.86,-34.52 697.92,-35.07"/>
<polygon fill="orange" stroke="orange" points="518.24,-17.64 508.01,-20.43 517.74,-24.62 518.24,-17.64"/>
<text text-anchor="middle" x="609" y="-36.5" font-family="Helvetica,sans-Serif" font-size="10.00"> &lt; TGeometricalQuadEdge &gt;</text>
</g>
</g>
</svg>
