<?xml version="1.0" encoding="UTF-8" standalone="no"?>
<!DOCTYPE svg PUBLIC "-//W3C//DTD SVG 1.1//EN"
 "http://www.w3.org/Graphics/SVG/1.1/DTD/svg11.dtd">
<!-- Generated by graphviz version 2.43.0 (0)
 -->
<!-- Title: itk::Statistics::ImageToNeighborhoodSampleAdaptor&lt; TImage, TBoundaryCondition &gt; Pages: 1 -->
<svg width="2859pt" height="477pt"
 viewBox="0.00 0.00 2859.00 476.50" xmlns="http://www.w3.org/2000/svg" xmlns:xlink="http://www.w3.org/1999/xlink">
<g id="graph0" class="graph" transform="scale(1 1) rotate(0) translate(4 472.5)">
<title>itk::Statistics::ImageToNeighborhoodSampleAdaptor&lt; TImage, TBoundaryCondition &gt;</title>
<polygon fill="white" stroke="transparent" points="-4,4 -4,-472.5 2855,-472.5 2855,4 -4,4"/>
<!-- Node1 -->
<g id="node1" class="node">
<title>Node1</title>
<g id="a_node1"><a xlink:title="This class provides ListSample interface to ITK Image.">
<polygon fill="#bfbfbf" stroke="black" points="2670,-104 2670,-145 2851,-145 2851,-104 2670,-104"/>
<text text-anchor="start" x="2678" y="-133" font-family="Helvetica,sans-Serif" font-size="10.00">itk::Statistics::ImageTo</text>
<text text-anchor="start" x="2678" y="-122" font-family="Helvetica,sans-Serif" font-size="10.00">NeighborhoodSampleAdaptor</text>
<text text-anchor="middle" x="2760.5" y="-111" font-family="Helvetica,sans-Serif" font-size="10.00">&lt; TImage, TBoundaryCondition &gt;</text>
</a>
</g>
</g>
<!-- Node2 -->
<g id="node2" class="node">
<title>Node2</title>
<g id="a_node2"><a xlink:href="classitk_1_1Statistics_1_1ListSample.html" target="_top" xlink:title=" ">
<polygon fill="white" stroke="black" points="2241,-132 2241,-173 2480,-173 2480,-132 2241,-132"/>
<text text-anchor="start" x="2249" y="-161" font-family="Helvetica,sans-Serif" font-size="10.00">itk::Statistics::ListSample</text>
<text text-anchor="start" x="2249" y="-150" font-family="Helvetica,sans-Serif" font-size="10.00">&lt; std::vector&lt; ConstNeighborhood</text>
<text text-anchor="middle" x="2360.5" y="-139" font-family="Helvetica,sans-Serif" font-size="10.00">Iterator&lt; TImage, TBoundaryCondition &gt; &gt; &gt;</text>
</a>
</g>
</g>
<!-- Node2&#45;&gt;Node1 -->
<g id="edge1" class="edge">
<title>Node2&#45;&gt;Node1</title>
<path fill="none" stroke="midnightblue" d="M2490.19,-143.45C2548.85,-139.32 2616.87,-134.53 2669.87,-130.81"/>
<polygon fill="midnightblue" stroke="midnightblue" points="2489.83,-139.96 2480.1,-144.16 2490.33,-146.95 2489.83,-139.96"/>
</g>
<!-- Node3 -->
<g id="node3" class="node">
<title>Node3</title>
<g id="a_node3"><a xlink:href="classitk_1_1Statistics_1_1Sample.html" target="_top" xlink:title=" ">
<polygon fill="white" stroke="black" points="1863,-132 1863,-173 2102,-173 2102,-132 1863,-132"/>
<text text-anchor="start" x="1871" y="-161" font-family="Helvetica,sans-Serif" font-size="10.00">itk::Statistics::Sample</text>
<text text-anchor="start" x="1871" y="-150" font-family="Helvetica,sans-Serif" font-size="10.00">&lt; std::vector&lt; ConstNeighborhood</text>
<text text-anchor="middle" x="1982.5" y="-139" font-family="Helvetica,sans-Serif" font-size="10.00">Iterator&lt; TImage, TBoundaryCondition &gt; &gt; &gt;</text>
</a>
</g>
</g>
<!-- Node3&#45;&gt;Node2 -->
<g id="edge2" class="edge">
<title>Node3&#45;&gt;Node2</title>
<path fill="none" stroke="midnightblue" d="M2112.41,-152.5C2154.04,-152.5 2199.98,-152.5 2240.83,-152.5"/>
<polygon fill="midnightblue" stroke="midnightblue" points="2112.21,-149 2102.21,-152.5 2112.21,-156 2112.21,-149"/>
</g>
<!-- Node4 -->
<g id="node4" class="node">
<title>Node4</title>
<g id="a_node4"><a xlink:href="classitk_1_1DataObject.html" target="_top" xlink:title="Base class for all data objects in ITK.">
<polygon fill="white" stroke="black" points="1577.5,-323 1577.5,-342 1667.5,-342 1667.5,-323 1577.5,-323"/>
<text text-anchor="middle" x="1622.5" y="-330" font-family="Helvetica,sans-Serif" font-size="10.00">itk::DataObject</text>
</a>
</g>
</g>
<!-- Node4&#45;&gt;Node3 -->
<g id="edge3" class="edge">
<title>Node4&#45;&gt;Node3</title>
<path fill="none" stroke="midnightblue" d="M1643.87,-316.83C1683.78,-286.82 1776.01,-220.92 1863,-183.5 1871.99,-179.63 1881.57,-176.16 1891.24,-173.05"/>
<polygon fill="midnightblue" stroke="midnightblue" points="1641.59,-314.16 1635.73,-322.99 1645.82,-319.74 1641.59,-314.16"/>
</g>
<!-- Node5 -->
<g id="node5" class="node">
<title>Node5</title>
<g id="a_node5"><a xlink:href="classitk_1_1Object.html" target="_top" xlink:title="Base class for most ITK classes.">
<polygon fill="white" stroke="black" points="1277,-224 1277,-243 1344,-243 1344,-224 1277,-224"/>
<text text-anchor="middle" x="1310.5" y="-231" font-family="Helvetica,sans-Serif" font-size="10.00">itk::Object</text>
</a>
</g>
</g>
<!-- Node5&#45;&gt;Node4 -->
<g id="edge4" class="edge">
<title>Node5&#45;&gt;Node4</title>
<path fill="none" stroke="midnightblue" d="M1352.24,-246.13C1392.78,-258.74 1456.76,-278.74 1512,-296.5 1539.43,-305.32 1570.65,-315.61 1592.72,-322.92"/>
<polygon fill="midnightblue" stroke="midnightblue" points="1353.04,-242.71 1342.45,-243.09 1350.96,-249.4 1353.04,-242.71"/>
</g>
<!-- Node6 -->
<g id="node6" class="node">
<title>Node6</title>
<g id="a_node6"><a xlink:href="classitk_1_1LightObject.html" target="_top" xlink:title="Light weight base class for most itk classes.">
<polygon fill="white" stroke="black" points="936.5,-183 936.5,-202 1027.5,-202 1027.5,-183 936.5,-183"/>
<text text-anchor="middle" x="982" y="-190" font-family="Helvetica,sans-Serif" font-size="10.00">itk::LightObject</text>
</a>
</g>
</g>
<!-- Node6&#45;&gt;Node5 -->
<g id="edge5" class="edge">
<title>Node6&#45;&gt;Node5</title>
<path fill="none" stroke="midnightblue" d="M1037.87,-193.91C1083.18,-195.68 1149.07,-199.64 1206,-208.5 1229.93,-212.22 1256.47,-218.68 1276.68,-224.1"/>
<polygon fill="midnightblue" stroke="midnightblue" points="1037.79,-190.4 1027.67,-193.54 1037.53,-197.4 1037.79,-190.4"/>
</g>
<!-- Node7 -->
<g id="node7" class="node">
<title>Node7</title>
<g id="a_node7"><a xlink:title=" ">
<polygon fill="white" stroke="black" points="655.5,-183 655.5,-202 762.5,-202 762.5,-183 655.5,-183"/>
<text text-anchor="middle" x="709" y="-190" font-family="Helvetica,sans-Serif" font-size="10.00">std::atomic&lt; int &gt;</text>
</a>
</g>
</g>
<!-- Node7&#45;&gt;Node6 -->
<g id="edge6" class="edge">
<title>Node7&#45;&gt;Node6</title>
<path fill="none" stroke="#9a32cd" stroke-dasharray="5,2" d="M772.63,-192.5C822.67,-192.5 891.58,-192.5 936.21,-192.5"/>
<polygon fill="#9a32cd" stroke="#9a32cd" points="772.57,-189 762.57,-192.5 772.57,-196 772.57,-189"/>
<text text-anchor="middle" x="842.5" y="-195.5" font-family="Helvetica,sans-Serif" font-size="10.00"> m_ReferenceCount</text>
</g>
<!-- Node8 -->
<g id="node8" class="node">
<title>Node8</title>
<g id="a_node8"><a xlink:href="classitk_1_1TimeStamp.html" target="_top" xlink:title="Generate a unique, increasing time value.">
<polygon fill="white" stroke="black" points="936,-315 936,-334 1028,-334 1028,-315 936,-315"/>
<text text-anchor="middle" x="982" y="-322" font-family="Helvetica,sans-Serif" font-size="10.00">itk::TimeStamp</text>
</a>
</g>
</g>
<!-- Node8&#45;&gt;Node4 -->
<g id="edge21" class="edge">
<title>Node8&#45;&gt;Node4</title>
<path fill="none" stroke="#9a32cd" stroke-dasharray="5,2" d="M1023.4,-336.88C1070.87,-350.72 1152.29,-372.28 1224,-380.5 1300.39,-389.26 1320.37,-386.79 1397,-380.5 1466.71,-374.78 1546.35,-354.34 1589.54,-342.06"/>
<polygon fill="#9a32cd" stroke="#9a32cd" points="1024.38,-333.52 1013.8,-334.05 1022.4,-340.23 1024.38,-333.52"/>
<text text-anchor="middle" x="1310.5" y="-388.5" font-family="Helvetica,sans-Serif" font-size="10.00"> m_UpdateMTime</text>
</g>
<!-- Node8&#45;&gt;Node5 -->
<g id="edge7" class="edge">
<title>Node8&#45;&gt;Node5</title>
<path fill="none" stroke="#9a32cd" stroke-dasharray="5,2" d="M1027.12,-312.26C1072.11,-299.77 1143.93,-279.82 1206,-262.5 1229.73,-255.88 1256.5,-248.37 1276.87,-242.66"/>
<polygon fill="#9a32cd" stroke="#9a32cd" points="1026.09,-308.92 1017.39,-314.96 1027.96,-315.66 1026.09,-308.92"/>
<text text-anchor="middle" x="1139.5" y="-301.5" font-family="Helvetica,sans-Serif" font-size="10.00"> m_MTime</text>
</g>
<!-- Node9 -->
<g id="node9" class="node">
<title>Node9</title>
<g id="a_node9"><a xlink:title=" ">
<polygon fill="white" stroke="black" points="233,-314 233,-333 333,-333 333,-314 233,-314"/>
<text text-anchor="middle" x="283" y="-321" font-family="Helvetica,sans-Serif" font-size="10.00">std::atomic&lt; T &gt;</text>
</a>
</g>
</g>
<!-- Node9&#45;&gt;Node8 -->
<g id="edge8" class="edge">
<title>Node9&#45;&gt;Node8</title>
<path fill="none" stroke="#9a32cd" stroke-dasharray="5,2" d="M343.27,-323.59C479.78,-323.78 813.97,-324.26 935.7,-324.44"/>
<polygon fill="#9a32cd" stroke="#9a32cd" points="343.02,-320.08 333.01,-323.57 343.01,-327.08 343.02,-320.08"/>
<text text-anchor="middle" x="571" y="-326.5" font-family="Helvetica,sans-Serif" font-size="10.00"> m_GlobalTimeStamp</text>
</g>
<!-- Node10 -->
<g id="node10" class="node">
<title>Node10</title>
<g id="a_node10"><a xlink:title=" ">
<polygon fill="white" stroke="black" points="0,-298 0,-317 29,-317 29,-298 0,-298"/>
<text text-anchor="middle" x="14.5" y="-305" font-family="Helvetica,sans-Serif" font-size="10.00">T</text>
</a>
</g>
</g>
<!-- Node10&#45;&gt;Node9 -->
<g id="edge9" class="edge">
<title>Node10&#45;&gt;Node9</title>
<path fill="none" stroke="#9a32cd" stroke-dasharray="5,2" d="M39.23,-308.92C82.59,-311.53 175.47,-317.1 232.94,-320.55"/>
<polygon fill="#9a32cd" stroke="#9a32cd" points="39.27,-305.42 29.08,-308.32 38.85,-312.41 39.27,-305.42"/>
<text text-anchor="middle" x="71.5" y="-314.5" font-family="Helvetica,sans-Serif" font-size="10.00"> ptr</text>
</g>
<!-- Node15 -->
<g id="node15" class="node">
<title>Node15</title>
<g id="a_node15"><a xlink:title=" ">
<polygon fill="white" stroke="black" points="114,-245 114,-264 215,-264 215,-245 114,-245"/>
<text text-anchor="middle" x="164.5" y="-252" font-family="Helvetica,sans-Serif" font-size="10.00">std::map&lt; K, T &gt;</text>
</a>
</g>
</g>
<!-- Node10&#45;&gt;Node15 -->
<g id="edge16" class="edge">
<title>Node10&#45;&gt;Node15</title>
<path fill="none" stroke="#9a32cd" stroke-dasharray="5,2" d="M38.07,-294.64C41.03,-293.16 44.06,-291.73 47,-290.5 72.77,-279.69 102.94,-270.45 126.12,-264.05"/>
<polygon fill="#9a32cd" stroke="#9a32cd" points="36.2,-291.67 29.01,-299.46 39.49,-297.85 36.2,-291.67"/>
<text text-anchor="middle" x="71.5" y="-293.5" font-family="Helvetica,sans-Serif" font-size="10.00"> elements</text>
</g>
<!-- Node11 -->
<g id="node11" class="node">
<title>Node11</title>
<g id="a_node11"><a xlink:title=" ">
<polygon fill="white" stroke="black" points="913.5,-133.5 913.5,-163.5 1050.5,-163.5 1050.5,-133.5 913.5,-133.5"/>
<text text-anchor="start" x="921.5" y="-151.5" font-family="Helvetica,sans-Serif" font-size="10.00">std::unique_ptr&lt; Subject</text>
<text text-anchor="middle" x="982" y="-140.5" font-family="Helvetica,sans-Serif" font-size="10.00">Implementation &gt;</text>
</a>
</g>
</g>
<!-- Node11&#45;&gt;Node5 -->
<g id="edge10" class="edge">
<title>Node11&#45;&gt;Node5</title>
<path fill="none" stroke="#9a32cd" stroke-dasharray="5,2" d="M1060.6,-153.3C1104.13,-157.56 1158.97,-165.54 1206,-180.5 1239.47,-191.15 1275.26,-211.8 1294.75,-223.95"/>
<polygon fill="#9a32cd" stroke="#9a32cd" points="1060.93,-149.82 1050.65,-152.38 1060.28,-156.79 1060.93,-149.82"/>
<text text-anchor="middle" x="1139.5" y="-183.5" font-family="Helvetica,sans-Serif" font-size="10.00"> m_SubjectImplementation</text>
</g>
<!-- Node12 -->
<g id="node12" class="node">
<title>Node12</title>
<g id="a_node12"><a xlink:title=" ">
<polygon fill="white" stroke="black" points="916,-221.5 916,-251.5 1048,-251.5 1048,-221.5 916,-221.5"/>
<text text-anchor="start" x="924" y="-239.5" font-family="Helvetica,sans-Serif" font-size="10.00">std::unique_ptr&lt; itk</text>
<text text-anchor="middle" x="982" y="-228.5" font-family="Helvetica,sans-Serif" font-size="10.00">::MetaDataDictionary &gt;</text>
</a>
</g>
</g>
<!-- Node12&#45;&gt;Node5 -->
<g id="edge11" class="edge">
<title>Node12&#45;&gt;Node5</title>
<path fill="none" stroke="#9a32cd" stroke-dasharray="5,2" d="M1056.29,-219.72C1061.92,-218.83 1067.54,-218.07 1073,-217.5 1131.79,-211.36 1147.06,-212.97 1206,-217.5 1229.75,-219.32 1256.29,-223.47 1276.56,-227.09"/>
<polygon fill="#9a32cd" stroke="#9a32cd" points="1055.44,-216.31 1046.17,-221.44 1056.61,-223.21 1055.44,-216.31"/>
<text text-anchor="middle" x="1139.5" y="-220.5" font-family="Helvetica,sans-Serif" font-size="10.00"> m_MetaDataDictionary</text>
</g>
<!-- Node13 -->
<g id="node13" class="node">
<title>Node13</title>
<g id="a_node13"><a xlink:href="classitk_1_1MetaDataDictionary.html" target="_top" xlink:title="Provides a mechanism for storing a collection of arbitrary data types.">
<polygon fill="white" stroke="black" points="642,-227 642,-246 776,-246 776,-227 642,-227"/>
<text text-anchor="middle" x="709" y="-234" font-family="Helvetica,sans-Serif" font-size="10.00">itk::MetaDataDictionary</text>
</a>
</g>
</g>
<!-- Node13&#45;&gt;Node12 -->
<g id="edge12" class="edge">
<title>Node13&#45;&gt;Node12</title>
<path fill="none" stroke="#9a32cd" stroke-dasharray="5,2" d="M786.46,-236.5C827.25,-236.5 876.92,-236.5 915.86,-236.5"/>
<polygon fill="#9a32cd" stroke="#9a32cd" points="786.29,-233 776.29,-236.5 786.29,-240 786.29,-233"/>
<text text-anchor="middle" x="842.5" y="-239.5" font-family="Helvetica,sans-Serif" font-size="10.00"> ptr</text>
</g>
<!-- Node14 -->
<g id="node14" class="node">
<title>Node14</title>
<g id="a_node14"><a xlink:title=" ">
<polygon fill="white" stroke="black" points="351,-224.5 351,-254.5 500,-254.5 500,-224.5 351,-224.5"/>
<text text-anchor="start" x="359" y="-242.5" font-family="Helvetica,sans-Serif" font-size="10.00">std::shared_ptr&lt; MetaData</text>
<text text-anchor="middle" x="425.5" y="-231.5" font-family="Helvetica,sans-Serif" font-size="10.00">DictionaryMapType &gt;</text>
</a>
</g>
</g>
<!-- Node14&#45;&gt;Node13 -->
<g id="edge13" class="edge">
<title>Node14&#45;&gt;Node13</title>
<path fill="none" stroke="#9a32cd" stroke-dasharray="5,2" d="M510.29,-238.61C552.24,-238.16 602.31,-237.63 641.57,-237.21"/>
<polygon fill="#9a32cd" stroke="#9a32cd" points="510.06,-235.11 500.09,-238.72 510.13,-242.11 510.06,-235.11"/>
<text text-anchor="middle" x="571" y="-240.5" font-family="Helvetica,sans-Serif" font-size="10.00"> m_Dictionary</text>
</g>
<!-- Node15&#45;&gt;Node14 -->
<g id="edge14" class="edge">
<title>Node15&#45;&gt;Node14</title>
<path fill="none" stroke="#9a32cd" stroke-dasharray="5,2" d="M225.34,-251.03C262.61,-248.88 310.86,-246.08 350.52,-243.78"/>
<polygon fill="#9a32cd" stroke="#9a32cd" points="224.91,-247.55 215.13,-251.63 225.32,-254.54 224.91,-247.55"/>
<text text-anchor="middle" x="283" y="-252.5" font-family="Helvetica,sans-Serif" font-size="10.00"> ptr</text>
</g>
<!-- Node16 -->
<g id="node16" class="node">
<title>Node16</title>
<g id="a_node16"><a xlink:title=" ">
<polygon fill="white" stroke="black" points="0,-245 0,-264 29,-264 29,-245 0,-245"/>
<text text-anchor="middle" x="14.5" y="-252" font-family="Helvetica,sans-Serif" font-size="10.00">K</text>
</a>
</g>
</g>
<!-- Node16&#45;&gt;Node15 -->
<g id="edge15" class="edge">
<title>Node16&#45;&gt;Node15</title>
<path fill="none" stroke="#9a32cd" stroke-dasharray="5,2" d="M39.24,-254.5C59.28,-254.5 88.63,-254.5 113.78,-254.5"/>
<polygon fill="#9a32cd" stroke="#9a32cd" points="39.16,-251 29.16,-254.5 39.16,-258 39.16,-251"/>
<text text-anchor="middle" x="71.5" y="-257.5" font-family="Helvetica,sans-Serif" font-size="10.00"> keys</text>
</g>
<!-- Node17 -->
<g id="node17" class="node">
<title>Node17</title>
<g id="a_node17"><a xlink:title=" ">
<polygon fill="white" stroke="black" points="949.5,-271 949.5,-290 1014.5,-290 1014.5,-271 949.5,-271"/>
<text text-anchor="middle" x="982" y="-278" font-family="Helvetica,sans-Serif" font-size="10.00">std::string</text>
</a>
</g>
</g>
<!-- Node17&#45;&gt;Node4 -->
<g id="edge20" class="edge">
<title>Node17&#45;&gt;Node4</title>
<path fill="none" stroke="#9a32cd" stroke-dasharray="5,2" d="M1024.64,-288.89C1039.81,-291.69 1057.13,-294.57 1073,-296.5 1170.34,-308.31 1464.85,-324.36 1577.25,-330.23"/>
<polygon fill="#9a32cd" stroke="#9a32cd" points="1025,-285.4 1014.53,-286.98 1023.71,-292.28 1025,-285.4"/>
<text text-anchor="middle" x="1310.5" y="-322.5" font-family="Helvetica,sans-Serif" font-size="10.00"> m_SourceOutputName</text>
</g>
<!-- Node17&#45;&gt;Node5 -->
<g id="edge17" class="edge">
<title>Node17&#45;&gt;Node5</title>
<path fill="none" stroke="#9a32cd" stroke-dasharray="5,2" d="M1024.6,-271.41C1034.71,-268.68 1045.38,-265.37 1055,-261.5 1063.49,-258.08 1064.23,-254.13 1073,-251.5 1143.4,-230.37 1230.61,-229.96 1276.96,-231.64"/>
<polygon fill="#9a32cd" stroke="#9a32cd" points="1023.56,-268.06 1014.74,-273.93 1025.29,-274.84 1023.56,-268.06"/>
<text text-anchor="middle" x="1139.5" y="-254.5" font-family="Helvetica,sans-Serif" font-size="10.00"> m_ObjectName</text>
</g>
<!-- Node18 -->
<g id="node18" class="node">
<title>Node18</title>
<g id="a_node18"><a xlink:title=" ">
<polygon fill="white" stroke="black" points="657,-265.5 657,-295.5 761,-295.5 761,-265.5 657,-265.5"/>
<text text-anchor="start" x="665" y="-283.5" font-family="Helvetica,sans-Serif" font-size="10.00">std::basic_string&lt;</text>
<text text-anchor="middle" x="709" y="-272.5" font-family="Helvetica,sans-Serif" font-size="10.00"> Char &gt;</text>
</a>
</g>
</g>
<!-- Node18&#45;&gt;Node17 -->
<g id="edge18" class="edge">
<title>Node18&#45;&gt;Node17</title>
<path fill="none" stroke="midnightblue" d="M771.34,-280.5C826.69,-280.5 905.9,-280.5 949.4,-280.5"/>
<polygon fill="midnightblue" stroke="midnightblue" points="771.29,-277 761.29,-280.5 771.29,-284 771.29,-277"/>
</g>
<!-- Node19 -->
<g id="node19" class="node">
<title>Node19</title>
<g id="a_node19"><a xlink:href="classitk_1_1WeakPointer.html" target="_top" xlink:title=" ">
<polygon fill="white" stroke="black" points="1250,-340.5 1250,-370.5 1371,-370.5 1371,-340.5 1250,-340.5"/>
<text text-anchor="start" x="1258" y="-358.5" font-family="Helvetica,sans-Serif" font-size="10.00">itk::WeakPointer&lt; itk</text>
<text text-anchor="middle" x="1310.5" y="-347.5" font-family="Helvetica,sans-Serif" font-size="10.00">::ProcessObject &gt;</text>
</a>
</g>
</g>
<!-- Node19&#45;&gt;Node4 -->
<g id="edge19" class="edge">
<title>Node19&#45;&gt;Node4</title>
<path fill="none" stroke="#9a32cd" stroke-dasharray="5,2" d="M1381.44,-350.31C1441.55,-345.85 1526.37,-339.56 1577.43,-335.77"/>
<polygon fill="#9a32cd" stroke="#9a32cd" points="1380.98,-346.83 1371.27,-351.07 1381.5,-353.82 1380.98,-346.83"/>
<text text-anchor="middle" x="1463.5" y="-349.5" font-family="Helvetica,sans-Serif" font-size="10.00"> m_Source</text>
</g>
<!-- Node20 -->
<g id="node20" class="node">
<title>Node20</title>
<g id="a_node20"><a xlink:href="classitk_1_1RealTimeStamp.html" target="_top" xlink:title="The RealTimeStamp is a data structure for representing time with high precision and a large dynamic r...">
<polygon fill="white" stroke="black" points="1254,-437 1254,-456 1367,-456 1367,-437 1254,-437"/>
<text text-anchor="middle" x="1310.5" y="-444" font-family="Helvetica,sans-Serif" font-size="10.00">itk::RealTimeStamp</text>
</a>
</g>
</g>
<!-- Node20&#45;&gt;Node4 -->
<g id="edge22" class="edge">
<title>Node20&#45;&gt;Node4</title>
<path fill="none" stroke="#9a32cd" stroke-dasharray="5,2" d="M1377.49,-447.36C1417.79,-445.71 1469.56,-439.61 1512,-421.5 1555.94,-402.75 1596.47,-360.93 1613.3,-342.06"/>
<polygon fill="#9a32cd" stroke="#9a32cd" points="1377.12,-443.87 1367.24,-447.69 1377.35,-450.86 1377.12,-443.87"/>
<text text-anchor="middle" x="1463.5" y="-446.5" font-family="Helvetica,sans-Serif" font-size="10.00"> m_RealTimeStamp</text>
</g>
<!-- Node21 -->
<g id="node21" class="node">
<title>Node21</title>
<g id="a_node21"><a xlink:title=" ">
<polygon fill="white" stroke="black" points="954,-437 954,-456 1010,-456 1010,-437 954,-437"/>
<text text-anchor="middle" x="982" y="-444" font-family="Helvetica,sans-Serif" font-size="10.00">uint64_t</text>
</a>
</g>
</g>
<!-- Node21&#45;&gt;Node20 -->
<g id="edge23" class="edge">
<title>Node21&#45;&gt;Node20</title>
<path fill="none" stroke="#9a32cd" stroke-dasharray="5,2" d="M1020.32,-446.5C1077.51,-446.5 1187.17,-446.5 1253.79,-446.5"/>
<polygon fill="#9a32cd" stroke="#9a32cd" points="1020.28,-443 1010.28,-446.5 1020.28,-450 1020.28,-443"/>
<text text-anchor="middle" x="1139.5" y="-460.5" font-family="Helvetica,sans-Serif" font-size="10.00"> m_MicroSeconds</text>
<text text-anchor="middle" x="1139.5" y="-449.5" font-family="Helvetica,sans-Serif" font-size="10.00">m_Seconds</text>
</g>
<!-- Node22 -->
<g id="node22" class="node">
<title>Node22</title>
<g id="a_node22"><a xlink:title=" ">
<polygon fill="white" stroke="black" points="1909,-192.5 1909,-222.5 2056,-222.5 2056,-192.5 1909,-192.5"/>
<text text-anchor="start" x="1917" y="-210.5" font-family="Helvetica,sans-Serif" font-size="10.00">std::vector&lt; Measurement</text>
<text text-anchor="middle" x="1982.5" y="-199.5" font-family="Helvetica,sans-Serif" font-size="10.00">VectorType &gt;</text>
</a>
</g>
</g>
<!-- Node22&#45;&gt;Node2 -->
<g id="edge24" class="edge">
<title>Node22&#45;&gt;Node2</title>
<path fill="none" stroke="#9a32cd" stroke-dasharray="5,2" d="M2066.47,-195.36C2117.68,-187.87 2184.19,-178.14 2240.9,-169.85"/>
<polygon fill="#9a32cd" stroke="#9a32cd" points="2065.83,-191.92 2056.44,-196.83 2066.84,-198.85 2065.83,-191.92"/>
<text text-anchor="middle" x="2171.5" y="-189.5" font-family="Helvetica,sans-Serif" font-size="10.00"> m_InternalContainer</text>
</g>
<!-- Node23 -->
<g id="node23" class="node">
<title>Node23</title>
<g id="a_node23"><a xlink:title=" ">
<polygon fill="white" stroke="black" points="2246.5,-82.5 2246.5,-112.5 2474.5,-112.5 2474.5,-82.5 2246.5,-82.5"/>
<text text-anchor="start" x="2254.5" y="-100.5" font-family="Helvetica,sans-Serif" font-size="10.00">std::vector&lt; ConstNeighborhood</text>
<text text-anchor="middle" x="2360.5" y="-89.5" font-family="Helvetica,sans-Serif" font-size="10.00">Iterator&lt; TImage, TBoundaryCondition &gt; &gt;</text>
</a>
</g>
</g>
<!-- Node23&#45;&gt;Node1 -->
<g id="edge25" class="edge">
<title>Node23&#45;&gt;Node1</title>
<path fill="none" stroke="#9a32cd" stroke-dasharray="5,2" d="M2485.01,-105.88C2544.77,-109.93 2615.18,-114.71 2669.73,-118.41"/>
<polygon fill="#9a32cd" stroke="#9a32cd" points="2484.97,-102.37 2474.75,-105.18 2484.49,-109.35 2484.97,-102.37"/>
<text text-anchor="middle" x="2575" y="-119.5" font-family="Helvetica,sans-Serif" font-size="10.00"> m_MeasurementVectorInternal</text>
</g>
<!-- Node24 -->
<g id="node24" class="node">
<title>Node24</title>
<g id="a_node24"><a xlink:href="classitk_1_1ConstNeighborhoodIterator.html" target="_top" xlink:title=" ">
<polygon fill="white" stroke="black" points="1892,-69.5 1892,-99.5 2073,-99.5 2073,-69.5 1892,-69.5"/>
<text text-anchor="start" x="1900" y="-87.5" font-family="Helvetica,sans-Serif" font-size="10.00">itk::ConstNeighborhoodIterator</text>
<text text-anchor="middle" x="1982.5" y="-76.5" font-family="Helvetica,sans-Serif" font-size="10.00">&lt; TImage, TBoundaryCondition &gt;</text>
</a>
</g>
</g>
<!-- Node24&#45;&gt;Node23 -->
<g id="edge26" class="edge">
<title>Node24&#45;&gt;Node23</title>
<path fill="none" stroke="#9a32cd" stroke-dasharray="5,2" d="M2083.29,-87.95C2133.44,-89.68 2194.43,-91.79 2246.33,-93.59"/>
<polygon fill="#9a32cd" stroke="#9a32cd" points="2083.2,-84.45 2073.08,-87.6 2082.96,-91.44 2083.2,-84.45"/>
<text text-anchor="middle" x="2171.5" y="-95.5" font-family="Helvetica,sans-Serif" font-size="10.00"> elements</text>
</g>
<!-- Node25 -->
<g id="node25" class="node">
<title>Node25</title>
<g id="a_node25"><a xlink:href="classitk_1_1Neighborhood.html" target="_top" xlink:title=" ">
<polygon fill="white" stroke="black" points="1538.5,-104 1538.5,-145 1706.5,-145 1706.5,-104 1538.5,-104"/>
<text text-anchor="start" x="1546.5" y="-133" font-family="Helvetica,sans-Serif" font-size="10.00">itk::Neighborhood&lt;</text>
<text text-anchor="start" x="1546.5" y="-122" font-family="Helvetica,sans-Serif" font-size="10.00"> TImage::InternalPixelType</text>
<text text-anchor="middle" x="1622.5" y="-111" font-family="Helvetica,sans-Serif" font-size="10.00"> *, TImage::ImageDimension &gt;</text>
</a>
</g>
</g>
<!-- Node25&#45;&gt;Node24 -->
<g id="edge27" class="edge">
<title>Node25&#45;&gt;Node24</title>
<path fill="none" stroke="midnightblue" d="M1716.61,-126.32C1722.16,-126.39 1727.65,-126.45 1733,-126.5 1782.78,-126.95 1795.78,-133.9 1845,-126.5 1854.16,-125.12 1899.18,-111.03 1935.04,-99.54"/>
<polygon fill="midnightblue" stroke="midnightblue" points="1716.65,-122.82 1706.6,-126.18 1716.55,-129.82 1716.65,-122.82"/>
</g>
<!-- Node26 -->
<g id="node26" class="node">
<title>Node26</title>
<g id="a_node26"><a xlink:href="structitk_1_1Size.html" target="_top" xlink:title=" ">
<polygon fill="white" stroke="black" points="1242,-134 1242,-153 1379,-153 1379,-134 1242,-134"/>
<text text-anchor="middle" x="1310.5" y="-141" font-family="Helvetica,sans-Serif" font-size="10.00">itk::Size&lt; VDimension &gt;</text>
</a>
</g>
</g>
<!-- Node26&#45;&gt;Node25 -->
<g id="edge28" class="edge">
<title>Node26&#45;&gt;Node25</title>
<path fill="none" stroke="#9a32cd" stroke-dasharray="5,2" d="M1389.24,-138.74C1434.64,-135.95 1491.93,-132.44 1538.25,-129.6"/>
<polygon fill="#9a32cd" stroke="#9a32cd" points="1388.91,-135.25 1379.15,-139.35 1389.34,-142.24 1388.91,-135.25"/>
<text text-anchor="middle" x="1463.5" y="-150.5" font-family="Helvetica,sans-Serif" font-size="10.00"> m_Radius</text>
<text text-anchor="middle" x="1463.5" y="-139.5" font-family="Helvetica,sans-Serif" font-size="10.00">m_Size</text>
</g>
<!-- Node27 -->
<g id="node27" class="node">
<title>Node27</title>
<g id="a_node27"><a xlink:href="classitk_1_1NeighborhoodAllocator.html" target="_top" xlink:title=" ">
<polygon fill="white" stroke="black" points="1224,-84.5 1224,-114.5 1397,-114.5 1397,-84.5 1224,-84.5"/>
<text text-anchor="start" x="1232" y="-102.5" font-family="Helvetica,sans-Serif" font-size="10.00">itk::NeighborhoodAllocator</text>
<text text-anchor="middle" x="1310.5" y="-91.5" font-family="Helvetica,sans-Serif" font-size="10.00">&lt; TImage::InternalPixelType * &gt;</text>
</a>
</g>
</g>
<!-- Node27&#45;&gt;Node25 -->
<g id="edge29" class="edge">
<title>Node27&#45;&gt;Node25</title>
<path fill="none" stroke="#9a32cd" stroke-dasharray="5,2" d="M1407.26,-107.22C1449.22,-110.61 1497.99,-114.54 1538.39,-117.8"/>
<polygon fill="#9a32cd" stroke="#9a32cd" points="1407.28,-103.71 1397.03,-106.4 1406.72,-110.69 1407.28,-103.71"/>
<text text-anchor="middle" x="1463.5" y="-117.5" font-family="Helvetica,sans-Serif" font-size="10.00"> m_DataBuffer</text>
</g>
<!-- Node28 -->
<g id="node28" class="node">
<title>Node28</title>
<g id="a_node28"><a xlink:title=" ">
<polygon fill="white" stroke="black" points="913.5,-84.5 913.5,-114.5 1050.5,-114.5 1050.5,-84.5 913.5,-84.5"/>
<text text-anchor="start" x="921.5" y="-102.5" font-family="Helvetica,sans-Serif" font-size="10.00">std::unique_ptr&lt; TImage</text>
<text text-anchor="middle" x="982" y="-91.5" font-family="Helvetica,sans-Serif" font-size="10.00">::InternalPixelType *[]&gt;</text>
</a>
</g>
</g>
<!-- Node28&#45;&gt;Node27 -->
<g id="edge30" class="edge">
<title>Node28&#45;&gt;Node27</title>
<path fill="none" stroke="#9a32cd" stroke-dasharray="5,2" d="M1060.9,-99.5C1109.98,-99.5 1173.39,-99.5 1223.88,-99.5"/>
<polygon fill="#9a32cd" stroke="#9a32cd" points="1060.65,-96 1050.65,-99.5 1060.65,-103 1060.65,-96"/>
<text text-anchor="middle" x="1139.5" y="-102.5" font-family="Helvetica,sans-Serif" font-size="10.00"> m_Data</text>
</g>
<!-- Node29 -->
<g id="node29" class="node">
<title>Node29</title>
<g id="a_node29"><a xlink:title=" ">
<polygon fill="white" stroke="black" points="1241,-46 1241,-65 1380,-65 1380,-46 1241,-46"/>
<text text-anchor="middle" x="1310.5" y="-53" font-family="Helvetica,sans-Serif" font-size="10.00">std::vector&lt; itk::Offset &gt;</text>
</a>
</g>
</g>
<!-- Node29&#45;&gt;Node25 -->
<g id="edge31" class="edge">
<title>Node29&#45;&gt;Node25</title>
<path fill="none" stroke="#9a32cd" stroke-dasharray="5,2" d="M1382.03,-66.71C1420.62,-73.29 1469.17,-82.32 1512,-92.5 1526.07,-95.84 1541.01,-99.88 1555.2,-103.95"/>
<polygon fill="#9a32cd" stroke="#9a32cd" points="1382.38,-63.22 1371.93,-65 1381.21,-70.12 1382.38,-63.22"/>
<text text-anchor="middle" x="1463.5" y="-95.5" font-family="Helvetica,sans-Serif" font-size="10.00"> m_OffsetTable</text>
</g>
<!-- Node30 -->
<g id="node30" class="node">
<title>Node30</title>
<g id="a_node30"><a xlink:href="structitk_1_1Offset.html" target="_top" xlink:title="Represent a n&#45;dimensional offset between two n&#45;dimensional indexes of n&#45;dimensional image.">
<polygon fill="white" stroke="black" points="909,-46 909,-65 1055,-65 1055,-46 909,-46"/>
<text text-anchor="middle" x="982" y="-53" font-family="Helvetica,sans-Serif" font-size="10.00">itk::Offset&lt; VDimension &gt;</text>
</a>
</g>
</g>
<!-- Node30&#45;&gt;Node29 -->
<g id="edge32" class="edge">
<title>Node30&#45;&gt;Node29</title>
<path fill="none" stroke="#9a32cd" stroke-dasharray="5,2" d="M1065.34,-55.5C1119.58,-55.5 1189.78,-55.5 1240.98,-55.5"/>
<polygon fill="#9a32cd" stroke="#9a32cd" points="1065.06,-52 1055.06,-55.5 1065.06,-59 1065.06,-52"/>
<text text-anchor="middle" x="1139.5" y="-58.5" font-family="Helvetica,sans-Serif" font-size="10.00"> elements</text>
</g>
<!-- Node31 -->
<g id="node31" class="node">
<title>Node31</title>
<g id="a_node31"><a xlink:href="structitk_1_1Index.html" target="_top" xlink:title=" ">
<polygon fill="white" stroke="black" points="1542,-50 1542,-69 1703,-69 1703,-50 1542,-50"/>
<text text-anchor="middle" x="1622.5" y="-57" font-family="Helvetica,sans-Serif" font-size="10.00">itk::Index&lt; Self::Dimension &gt;</text>
</a>
</g>
</g>
<!-- Node31&#45;&gt;Node24 -->
<g id="edge33" class="edge">
<title>Node31&#45;&gt;Node24</title>
<path fill="none" stroke="#9a32cd" stroke-dasharray="5,2" d="M1713.19,-56.46C1753.55,-55.98 1801.75,-56.63 1845,-60.5 1866.09,-62.39 1888.81,-65.81 1909.55,-69.5"/>
<polygon fill="#9a32cd" stroke="#9a32cd" points="1713.05,-52.96 1703.1,-56.61 1713.15,-59.96 1713.05,-52.96"/>
<text text-anchor="middle" x="1789" y="-118.5" font-family="Helvetica,sans-Serif" font-size="10.00"> m_BeginIndex</text>
<text text-anchor="middle" x="1789" y="-107.5" font-family="Helvetica,sans-Serif" font-size="10.00">m_Bound</text>
<text text-anchor="middle" x="1789" y="-96.5" font-family="Helvetica,sans-Serif" font-size="10.00">m_EndIndex</text>
<text text-anchor="middle" x="1789" y="-85.5" font-family="Helvetica,sans-Serif" font-size="10.00">m_InnerBoundsHigh</text>
<text text-anchor="middle" x="1789" y="-74.5" font-family="Helvetica,sans-Serif" font-size="10.00">m_InnerBoundsLow</text>
<text text-anchor="middle" x="1789" y="-63.5" font-family="Helvetica,sans-Serif" font-size="10.00">m_Loop</text>
</g>
<!-- Node32 -->
<g id="node32" class="node">
<title>Node32</title>
<g id="a_node32"><a xlink:href="classitk_1_1ImageBoundaryCondition.html" target="_top" xlink:title=" ">
<polygon fill="white" stroke="black" points="1530,-0.5 1530,-30.5 1715,-30.5 1715,-0.5 1530,-0.5"/>
<text text-anchor="start" x="1538" y="-18.5" font-family="Helvetica,sans-Serif" font-size="10.00">itk::ImageBoundaryCondition</text>
<text text-anchor="middle" x="1622.5" y="-7.5" font-family="Helvetica,sans-Serif" font-size="10.00">&lt; ImageType, OutputImageType &gt;</text>
</a>
</g>
</g>
<!-- Node32&#45;&gt;Node24 -->
<g id="edge34" class="edge">
<title>Node32&#45;&gt;Node24</title>
<path fill="none" stroke="#9a32cd" stroke-dasharray="5,2" d="M1725.24,-22.7C1763.11,-26.49 1806.28,-32.16 1845,-40.5 1878.35,-47.68 1915.09,-59.78 1942.05,-69.47"/>
<polygon fill="#9a32cd" stroke="#9a32cd" points="1725.52,-19.21 1715.23,-21.72 1724.84,-26.17 1725.52,-19.21"/>
<text text-anchor="middle" x="1789" y="-43.5" font-family="Helvetica,sans-Serif" font-size="10.00"> m_BoundaryCondition</text>
</g>
</g>
</svg>
