<?xml version="1.0" encoding="UTF-8" standalone="no"?>
<!DOCTYPE svg PUBLIC "-//W3C//DTD SVG 1.1//EN"
 "http://www.w3.org/Graphics/SVG/1.1/DTD/svg11.dtd">
<!-- Generated by graphviz version 2.43.0 (0)
 -->
<!-- Title: itk::UpdateMalcolmSparseLevelSet&lt; VDimension, TEquationContainer &gt; Pages: 1 -->
<svg width="1393pt" height="201pt"
 viewBox="0.00 0.00 1393.00 200.50" xmlns="http://www.w3.org/2000/svg" xmlns:xlink="http://www.w3.org/1999/xlink">
<g id="graph0" class="graph" transform="scale(1 1) rotate(0) translate(4 196.5)">
<title>itk::UpdateMalcolmSparseLevelSet&lt; VDimension, TEquationContainer &gt;</title>
<polygon fill="white" stroke="transparent" points="-4,4 -4,-196.5 1389,-196.5 1389,4 -4,4"/>
<!-- Node1 -->
<g id="node1" class="node">
<title>Node1</title>
<g id="a_node1"><a xlink:title="Base class for updating the Malcolm representation of level&#45;set function.">
<polygon fill="#bfbfbf" stroke="black" points="1239,-41 1239,-82 1385,-82 1385,-41 1239,-41"/>
<text text-anchor="start" x="1247" y="-70" font-family="Helvetica,sans-Serif" font-size="10.00">itk::UpdateMalcolmSparse</text>
<text text-anchor="start" x="1247" y="-59" font-family="Helvetica,sans-Serif" font-size="10.00">LevelSet&lt; VDimension,</text>
<text text-anchor="middle" x="1312" y="-48" font-family="Helvetica,sans-Serif" font-size="10.00"> TEquationContainer &gt;</text>
</a>
</g>
</g>
<!-- Node2 -->
<g id="node2" class="node">
<title>Node2</title>
<g id="a_node2"><a xlink:href="classitk_1_1Object.html" target="_top" xlink:title="Base class for most ITK classes.">
<polygon fill="white" stroke="black" points="1025,-88 1025,-107 1092,-107 1092,-88 1025,-88"/>
<text text-anchor="middle" x="1058.5" y="-95" font-family="Helvetica,sans-Serif" font-size="10.00">itk::Object</text>
</a>
</g>
</g>
<!-- Node2&#45;&gt;Node1 -->
<g id="edge1" class="edge">
<title>Node2&#45;&gt;Node1</title>
<path fill="none" stroke="midnightblue" d="M1102.37,-91.42C1134.91,-86.8 1180.78,-80.27 1221,-74.5 1226.78,-73.67 1232.77,-72.81 1238.79,-71.94"/>
<polygon fill="midnightblue" stroke="midnightblue" points="1101.7,-87.98 1092.29,-92.85 1102.68,-94.91 1101.7,-87.98"/>
</g>
<!-- Node3 -->
<g id="node3" class="node">
<title>Node3</title>
<g id="a_node3"><a xlink:href="classitk_1_1LightObject.html" target="_top" xlink:title="Light weight base class for most itk classes.">
<polygon fill="white" stroke="black" points="739.5,-173 739.5,-192 830.5,-192 830.5,-173 739.5,-173"/>
<text text-anchor="middle" x="785" y="-180" font-family="Helvetica,sans-Serif" font-size="10.00">itk::LightObject</text>
</a>
</g>
</g>
<!-- Node3&#45;&gt;Node2 -->
<g id="edge2" class="edge">
<title>Node3&#45;&gt;Node2</title>
<path fill="none" stroke="midnightblue" d="M840.9,-184.04C882.63,-183.27 940.56,-177.93 987,-157.5 1013.48,-145.85 1037.58,-120.92 1049.55,-107.14"/>
<polygon fill="midnightblue" stroke="midnightblue" points="840.62,-180.55 830.66,-184.15 840.7,-187.55 840.62,-180.55"/>
</g>
<!-- Node4 -->
<g id="node4" class="node">
<title>Node4</title>
<g id="a_node4"><a xlink:title=" ">
<polygon fill="white" stroke="#bfbfbf" points="457,-172 457,-191 564,-191 564,-172 457,-172"/>
<text text-anchor="middle" x="510.5" y="-179" font-family="Helvetica,sans-Serif" font-size="10.00">std::atomic&lt; int &gt;</text>
</a>
</g>
</g>
<!-- Node4&#45;&gt;Node3 -->
<g id="edge3" class="edge">
<title>Node4&#45;&gt;Node3</title>
<path fill="none" stroke="#9a32cd" stroke-dasharray="5,2" d="M574.18,-181.73C624.64,-181.92 694.33,-182.17 739.29,-182.34"/>
<polygon fill="#9a32cd" stroke="#9a32cd" points="574.05,-178.23 564.04,-181.69 574.03,-185.23 574.05,-178.23"/>
<text text-anchor="middle" x="651.5" y="-184.5" font-family="Helvetica,sans-Serif" font-size="10.00"> m_ReferenceCount</text>
</g>
<!-- Node5 -->
<g id="node5" class="node">
<title>Node5</title>
<g id="a_node5"><a xlink:title="STL class.">
<polygon fill="white" stroke="#bfbfbf" points="123,-134 123,-153 223,-153 223,-134 123,-134"/>
<text text-anchor="middle" x="173" y="-141" font-family="Helvetica,sans-Serif" font-size="10.00">std::atomic&lt; T &gt;</text>
</a>
</g>
</g>
<!-- Node5&#45;&gt;Node4 -->
<g id="edge4" class="edge">
<title>Node5&#45;&gt;Node4</title>
<path fill="none" stroke="orange" stroke-dasharray="5,2" d="M232.19,-154.77C238.19,-155.77 244.21,-156.7 250,-157.5 321.26,-167.34 404.11,-174.21 456.66,-178.01"/>
<polygon fill="orange" stroke="orange" points="232.59,-151.29 222.14,-153.04 231.4,-158.19 232.59,-151.29"/>
<text text-anchor="middle" x="334" y="-177.5" font-family="Helvetica,sans-Serif" font-size="10.00"> &lt; int &gt;</text>
</g>
<!-- Node14 -->
<g id="node14" class="node">
<title>Node14</title>
<g id="a_node14"><a xlink:href="classitk_1_1TimeStamp.html" target="_top" xlink:title="Generate a unique, increasing time value.">
<polygon fill="white" stroke="black" points="605.5,-134 605.5,-153 697.5,-153 697.5,-134 605.5,-134"/>
<text text-anchor="middle" x="651.5" y="-141" font-family="Helvetica,sans-Serif" font-size="10.00">itk::TimeStamp</text>
</a>
</g>
</g>
<!-- Node5&#45;&gt;Node14 -->
<g id="edge16" class="edge">
<title>Node5&#45;&gt;Node14</title>
<path fill="none" stroke="#9a32cd" stroke-dasharray="5,2" d="M233.23,-142.65C238.89,-142.59 244.56,-142.54 250,-142.5 378.98,-141.65 531.32,-142.56 605.45,-143.12"/>
<polygon fill="#9a32cd" stroke="#9a32cd" points="233.02,-139.15 223.06,-142.76 233.1,-146.15 233.02,-139.15"/>
<text text-anchor="middle" x="334" y="-145.5" font-family="Helvetica,sans-Serif" font-size="10.00"> m_GlobalTimeStamp</text>
</g>
<!-- Node6 -->
<g id="node6" class="node">
<title>Node6</title>
<g id="a_node6"><a xlink:title=" ">
<polygon fill="white" stroke="#bfbfbf" points="0,-94 0,-113 29,-113 29,-94 0,-94"/>
<text text-anchor="middle" x="14.5" y="-101" font-family="Helvetica,sans-Serif" font-size="10.00">T</text>
</a>
</g>
</g>
<!-- Node6&#45;&gt;Node5 -->
<g id="edge5" class="edge">
<title>Node6&#45;&gt;Node5</title>
<path fill="none" stroke="#9a32cd" stroke-dasharray="5,2" d="M38.39,-114.35C41.25,-115.5 44.17,-116.59 47,-117.5 71.58,-125.42 99.67,-131.51 123,-135.81"/>
<polygon fill="#9a32cd" stroke="#9a32cd" points="39.62,-111.06 29.05,-110.28 36.82,-117.48 39.62,-111.06"/>
<text text-anchor="middle" x="71.5" y="-132.5" font-family="Helvetica,sans-Serif" font-size="10.00"> ptr</text>
</g>
<!-- Node11 -->
<g id="node11" class="node">
<title>Node11</title>
<g id="a_node11"><a xlink:title="STL class.">
<polygon fill="white" stroke="#bfbfbf" points="122.5,-41 122.5,-60 223.5,-60 223.5,-41 122.5,-41"/>
<text text-anchor="middle" x="173" y="-48" font-family="Helvetica,sans-Serif" font-size="10.00">std::map&lt; K, T &gt;</text>
</a>
</g>
</g>
<!-- Node6&#45;&gt;Node11 -->
<g id="edge12" class="edge">
<title>Node6&#45;&gt;Node11</title>
<path fill="none" stroke="#9a32cd" stroke-dasharray="5,2" d="M38.21,-90.51C41.12,-89.06 44.1,-87.68 47,-86.5 74.18,-75.4 105.99,-66.29 130.72,-60.01"/>
<polygon fill="#9a32cd" stroke="#9a32cd" points="36.5,-87.45 29.3,-95.22 39.78,-93.64 36.5,-87.45"/>
<text text-anchor="middle" x="71.5" y="-89.5" font-family="Helvetica,sans-Serif" font-size="10.00"> elements</text>
</g>
<!-- Node13 -->
<g id="node13" class="node">
<title>Node13</title>
<g id="a_node13"><a xlink:title="STL class.">
<polygon fill="white" stroke="#bfbfbf" points="114,-91 114,-110 232,-110 232,-91 114,-91"/>
<text text-anchor="middle" x="173" y="-98" font-family="Helvetica,sans-Serif" font-size="10.00">std::shared_ptr&lt; T &gt;</text>
</a>
</g>
</g>
<!-- Node6&#45;&gt;Node13 -->
<g id="edge14" class="edge">
<title>Node6&#45;&gt;Node13</title>
<path fill="none" stroke="#9a32cd" stroke-dasharray="5,2" d="M39.32,-103.04C59.06,-102.66 87.96,-102.11 113.75,-101.62"/>
<polygon fill="#9a32cd" stroke="#9a32cd" points="39.05,-99.55 29.11,-103.24 39.18,-106.55 39.05,-99.55"/>
<text text-anchor="middle" x="71.5" y="-105.5" font-family="Helvetica,sans-Serif" font-size="10.00"> ptr</text>
</g>
<!-- Node7 -->
<g id="node7" class="node">
<title>Node7</title>
<g id="a_node7"><a xlink:title="STL class.">
<polygon fill="white" stroke="#bfbfbf" points="752.5,-88 752.5,-107 817.5,-107 817.5,-88 752.5,-88"/>
<text text-anchor="middle" x="785" y="-95" font-family="Helvetica,sans-Serif" font-size="10.00">std::string</text>
</a>
</g>
</g>
<!-- Node7&#45;&gt;Node2 -->
<g id="edge6" class="edge">
<title>Node7&#45;&gt;Node2</title>
<path fill="none" stroke="#9a32cd" stroke-dasharray="5,2" d="M827.98,-97.5C882.2,-97.5 975.47,-97.5 1024.76,-97.5"/>
<polygon fill="#9a32cd" stroke="#9a32cd" points="827.68,-94 817.68,-97.5 827.68,-101 827.68,-94"/>
<text text-anchor="middle" x="928.5" y="-100.5" font-family="Helvetica,sans-Serif" font-size="10.00"> m_ObjectName</text>
</g>
<!-- Node8 -->
<g id="node8" class="node">
<title>Node8</title>
<g id="a_node8"><a xlink:title="STL class.">
<polygon fill="white" stroke="#bfbfbf" points="458.5,-84.5 458.5,-114.5 562.5,-114.5 562.5,-84.5 458.5,-84.5"/>
<text text-anchor="start" x="466.5" y="-102.5" font-family="Helvetica,sans-Serif" font-size="10.00">std::basic_string&lt;</text>
<text text-anchor="middle" x="510.5" y="-91.5" font-family="Helvetica,sans-Serif" font-size="10.00"> char &gt;</text>
</a>
</g>
</g>
<!-- Node8&#45;&gt;Node7 -->
<g id="edge7" class="edge">
<title>Node8&#45;&gt;Node7</title>
<path fill="none" stroke="midnightblue" d="M572.85,-99.05C628.49,-98.64 708.3,-98.06 752.14,-97.73"/>
<polygon fill="midnightblue" stroke="midnightblue" points="572.73,-95.55 562.76,-99.12 572.78,-102.55 572.73,-95.55"/>
</g>
<!-- Node9 -->
<g id="node9" class="node">
<title>Node9</title>
<g id="a_node9"><a xlink:href="classitk_1_1MetaDataDictionary.html" target="_top" xlink:title="Provides a mechanism for storing a collection of arbitrary data types.">
<polygon fill="white" stroke="black" points="718,-50 718,-69 852,-69 852,-50 718,-50"/>
<text text-anchor="middle" x="785" y="-57" font-family="Helvetica,sans-Serif" font-size="10.00">itk::MetaDataDictionary</text>
</a>
</g>
</g>
<!-- Node9&#45;&gt;Node2 -->
<g id="edge8" class="edge">
<title>Node9&#45;&gt;Node2</title>
<path fill="none" stroke="#9a32cd" stroke-dasharray="5,2" d="M862.68,-66.53C900.26,-70.42 946.13,-75.83 987,-82.5 999.47,-84.54 1013.08,-87.3 1024.98,-89.9"/>
<polygon fill="#9a32cd" stroke="#9a32cd" points="862.61,-63.01 852.31,-65.48 861.9,-69.97 862.61,-63.01"/>
<text text-anchor="middle" x="928.5" y="-85.5" font-family="Helvetica,sans-Serif" font-size="10.00"> m_MetaDataDictionary</text>
</g>
<!-- Node10 -->
<g id="node10" class="node">
<title>Node10</title>
<g id="a_node10"><a xlink:title=" ">
<polygon fill="white" stroke="#bfbfbf" points="436,-35.5 436,-65.5 585,-65.5 585,-35.5 436,-35.5"/>
<text text-anchor="start" x="444" y="-53.5" font-family="Helvetica,sans-Serif" font-size="10.00">std::shared_ptr&lt; MetaData</text>
<text text-anchor="middle" x="510.5" y="-42.5" font-family="Helvetica,sans-Serif" font-size="10.00">DictionaryMapType &gt;</text>
</a>
</g>
</g>
<!-- Node10&#45;&gt;Node9 -->
<g id="edge9" class="edge">
<title>Node10&#45;&gt;Node9</title>
<path fill="none" stroke="#9a32cd" stroke-dasharray="5,2" d="M595.34,-53.27C634.65,-54.57 680.82,-56.09 717.65,-57.31"/>
<polygon fill="#9a32cd" stroke="#9a32cd" points="595.35,-49.77 585.24,-52.94 595.12,-56.76 595.35,-49.77"/>
<text text-anchor="middle" x="651.5" y="-60.5" font-family="Helvetica,sans-Serif" font-size="10.00"> m_Dictionary</text>
</g>
<!-- Node11&#45;&gt;Node10 -->
<g id="edge10" class="edge">
<title>Node11&#45;&gt;Node10</title>
<path fill="none" stroke="#9a32cd" stroke-dasharray="5,2" d="M233.71,-50.5C290.23,-50.5 375.21,-50.5 435.9,-50.5"/>
<polygon fill="#9a32cd" stroke="#9a32cd" points="233.5,-47 223.5,-50.5 233.5,-54 233.5,-47"/>
<text text-anchor="middle" x="334" y="-53.5" font-family="Helvetica,sans-Serif" font-size="10.00"> ptr</text>
</g>
<!-- Node12 -->
<g id="node12" class="node">
<title>Node12</title>
<g id="a_node12"><a xlink:title=" ">
<polygon fill="white" stroke="#bfbfbf" points="0,-26 0,-45 29,-45 29,-26 0,-26"/>
<text text-anchor="middle" x="14.5" y="-33" font-family="Helvetica,sans-Serif" font-size="10.00">K</text>
</a>
</g>
</g>
<!-- Node12&#45;&gt;Node11 -->
<g id="edge11" class="edge">
<title>Node12&#45;&gt;Node11</title>
<path fill="none" stroke="#9a32cd" stroke-dasharray="5,2" d="M39.33,-34.74C55.39,-34.49 77.01,-34.65 96,-36.5 106.15,-37.49 116.97,-39.13 127.17,-40.94"/>
<polygon fill="#9a32cd" stroke="#9a32cd" points="39.13,-31.24 29.21,-34.96 39.29,-38.24 39.13,-31.24"/>
<text text-anchor="middle" x="71.5" y="-39.5" font-family="Helvetica,sans-Serif" font-size="10.00"> keys</text>
</g>
<!-- Node13&#45;&gt;Node10 -->
<g id="edge13" class="edge">
<title>Node13&#45;&gt;Node10</title>
<path fill="none" stroke="orange" stroke-dasharray="5,2" d="M242.38,-91.06C291.32,-84.22 358.77,-74.6 418,-65.5 423.73,-64.62 429.65,-63.69 435.61,-62.74"/>
<polygon fill="orange" stroke="orange" points="241.64,-87.63 232.22,-92.48 242.61,-94.57 241.64,-87.63"/>
<text text-anchor="middle" x="334" y="-91.5" font-family="Helvetica,sans-Serif" font-size="10.00"> &lt; MetaDataDictionaryMapType &gt;</text>
</g>
<!-- Node14&#45;&gt;Node2 -->
<g id="edge15" class="edge">
<title>Node14&#45;&gt;Node2</title>
<path fill="none" stroke="#9a32cd" stroke-dasharray="5,2" d="M707.86,-140.36C774.4,-136.13 889.31,-127.37 987,-112.5 999.37,-110.62 1012.83,-107.92 1024.65,-105.32"/>
<polygon fill="#9a32cd" stroke="#9a32cd" points="707.37,-136.89 697.61,-141 707.81,-143.87 707.37,-136.89"/>
<text text-anchor="middle" x="785" y="-142.5" font-family="Helvetica,sans-Serif" font-size="10.00"> m_MTime</text>
</g>
<!-- Node15 -->
<g id="node15" class="node">
<title>Node15</title>
<g id="a_node15"><a xlink:href="classitk_1_1SmartPointer.html" target="_top" xlink:title=" ">
<polygon fill="white" stroke="black" points="1005,-5.5 1005,-35.5 1112,-35.5 1112,-5.5 1005,-5.5"/>
<text text-anchor="start" x="1013" y="-23.5" font-family="Helvetica,sans-Serif" font-size="10.00">itk::SmartPointer&lt;</text>
<text text-anchor="middle" x="1058.5" y="-12.5" font-family="Helvetica,sans-Serif" font-size="10.00"> Self &gt;</text>
</a>
</g>
</g>
<!-- Node15&#45;&gt;Node1 -->
<g id="edge17" class="edge">
<title>Node15&#45;&gt;Node1</title>
<path fill="none" stroke="#9a32cd" stroke-dasharray="5,2" d="M1122.49,-24.84C1152.49,-27.49 1188.76,-31.54 1221,-37.5 1226.72,-38.56 1232.62,-39.79 1238.52,-41.13"/>
<polygon fill="#9a32cd" stroke="#9a32cd" points="1122.43,-21.32 1112.17,-23.96 1121.83,-28.3 1122.43,-21.32"/>
<text text-anchor="middle" x="1175.5" y="-62.5" font-family="Helvetica,sans-Serif" font-size="10.00"> m_InternalImage</text>
<text text-anchor="middle" x="1175.5" y="-51.5" font-family="Helvetica,sans-Serif" font-size="10.00">m_InputLevelSet</text>
<text text-anchor="middle" x="1175.5" y="-40.5" font-family="Helvetica,sans-Serif" font-size="10.00">m_OutputLevelSet</text>
</g>
<!-- Node16 -->
<g id="node16" class="node">
<title>Node16</title>
<g id="a_node16"><a xlink:href="classitk_1_1SmartPointer.html" target="_top" xlink:title="Implements transparent reference counting.">
<polygon fill="white" stroke="black" points="731.5,-0.5 731.5,-30.5 838.5,-30.5 838.5,-0.5 731.5,-0.5"/>
<text text-anchor="start" x="739.5" y="-18.5" font-family="Helvetica,sans-Serif" font-size="10.00">itk::SmartPointer&lt;</text>
<text text-anchor="middle" x="785" y="-7.5" font-family="Helvetica,sans-Serif" font-size="10.00"> TObjectType &gt;</text>
</a>
</g>
</g>
<!-- Node16&#45;&gt;Node15 -->
<g id="edge18" class="edge">
<title>Node16&#45;&gt;Node15</title>
<path fill="none" stroke="orange" stroke-dasharray="5,2" d="M848.81,-16.66C896.15,-17.53 960.34,-18.71 1004.98,-19.53"/>
<polygon fill="orange" stroke="orange" points="848.73,-13.15 838.67,-16.47 848.6,-20.15 848.73,-13.15"/>
<text text-anchor="middle" x="928.5" y="-22.5" font-family="Helvetica,sans-Serif" font-size="10.00"> &lt; Self &gt;</text>
</g>
</g>
</svg>
