<?xml version="1.0" encoding="UTF-8" standalone="no"?>
<!DOCTYPE svg PUBLIC "-//W3C//DTD SVG 1.1//EN"
 "http://www.w3.org/Graphics/SVG/1.1/DTD/svg11.dtd">
<!-- Generated by graphviz version 2.43.0 (0)
 -->
<!-- Title: itk::Rigid3DTransform&lt; TParametersValueType &gt; Pages: 1 -->
<svg width="3103pt" height="308pt"
 viewBox="0.00 0.00 3103.00 308.12" xmlns="http://www.w3.org/2000/svg" xmlns:xlink="http://www.w3.org/1999/xlink">
<g id="graph0" class="graph" transform="scale(1 1) rotate(0) translate(4 304.12)">
<title>itk::Rigid3DTransform&lt; TParametersValueType &gt;</title>
<polygon fill="white" stroke="transparent" points="-4,4 -4,-304.12 3099,-304.12 3099,4 -4,4"/>
<!-- Node1 -->
<g id="node1" class="node">
<title>Node1</title>
<g id="a_node1"><a xlink:title="Rigid3DTransform of a vector space (e.g. space coordinates)">
<polygon fill="#bfbfbf" stroke="black" points="1616,-160.5 1616,-190.5 1766,-190.5 1766,-160.5 1616,-160.5"/>
<text text-anchor="start" x="1624" y="-178.5" font-family="Helvetica,sans-Serif" font-size="10.00">itk::Rigid3DTransform</text>
<text text-anchor="middle" x="1691" y="-167.5" font-family="Helvetica,sans-Serif" font-size="10.00">&lt; TParametersValueType &gt;</text>
</a>
</g>
</g>
<!-- Node11 -->
<g id="node11" class="node">
<title>Node11</title>
<g id="a_node11"><a xlink:href="classitk_1_1Rigid3DTransform.html" target="_top" xlink:title=" ">
<polygon fill="white" stroke="black" points="1861,-160.5 1861,-190.5 1983,-190.5 1983,-160.5 1861,-160.5"/>
<text text-anchor="start" x="1869" y="-178.5" font-family="Helvetica,sans-Serif" font-size="10.00">itk::Rigid3DTransform</text>
<text text-anchor="middle" x="1922" y="-167.5" font-family="Helvetica,sans-Serif" font-size="10.00">&lt; double &gt;</text>
</a>
</g>
</g>
<!-- Node1&#45;&gt;Node11 -->
<g id="edge14" class="edge">
<title>Node1&#45;&gt;Node11</title>
<path fill="none" stroke="orange" stroke-dasharray="5,2" d="M1776.26,-175.5C1804.36,-175.5 1835.09,-175.5 1860.97,-175.5"/>
<polygon fill="orange" stroke="orange" points="1776.03,-172 1766.03,-175.5 1776.03,-179 1776.03,-172"/>
<text text-anchor="middle" x="1813.5" y="-178.5" font-family="Helvetica,sans-Serif" font-size="10.00"> &lt; double &gt;</text>
</g>
<!-- Node2 -->
<g id="node2" class="node">
<title>Node2</title>
<g id="a_node2"><a xlink:href="classitk_1_1MatrixOffsetTransformBase.html" target="_top" xlink:title=" ">
<polygon fill="white" stroke="black" points="1434,-160.5 1434,-190.5 1579,-190.5 1579,-160.5 1434,-160.5"/>
<text text-anchor="start" x="1442" y="-178.5" font-family="Helvetica,sans-Serif" font-size="10.00">itk::MatrixOffsetTransform</text>
<text text-anchor="middle" x="1506.5" y="-167.5" font-family="Helvetica,sans-Serif" font-size="10.00">Base&lt; double, 3, 3 &gt;</text>
</a>
</g>
</g>
<!-- Node2&#45;&gt;Node1 -->
<g id="edge1" class="edge">
<title>Node2&#45;&gt;Node1</title>
<path fill="none" stroke="midnightblue" d="M1589.11,-175.5C1598.03,-175.5 1607.07,-175.5 1615.9,-175.5"/>
<polygon fill="midnightblue" stroke="midnightblue" points="1589.11,-172 1579.11,-175.5 1589.1,-179 1589.11,-172"/>
</g>
<!-- Node3 -->
<g id="node3" class="node">
<title>Node3</title>
<g id="a_node3"><a xlink:href="classitk_1_1Transform.html" target="_top" xlink:title=" ">
<polygon fill="white" stroke="black" points="828,-184.5 828,-214.5 1053,-214.5 1053,-184.5 828,-184.5"/>
<text text-anchor="start" x="836" y="-202.5" font-family="Helvetica,sans-Serif" font-size="10.00">itk::Transform&lt; double,</text>
<text text-anchor="middle" x="940.5" y="-191.5" font-family="Helvetica,sans-Serif" font-size="10.00"> NInputDimensions, NOutputDimensions &gt;</text>
</a>
</g>
</g>
<!-- Node3&#45;&gt;Node2 -->
<g id="edge2" class="edge">
<title>Node3&#45;&gt;Node2</title>
<path fill="none" stroke="midnightblue" d="M1063.28,-196.55C1159.17,-193.89 1296.18,-189.33 1416,-182.5 1421.76,-182.17 1427.72,-181.79 1433.71,-181.38"/>
<polygon fill="midnightblue" stroke="midnightblue" points="1063.15,-193.05 1053.25,-196.83 1063.35,-200.05 1063.15,-193.05"/>
</g>
<!-- Node4 -->
<g id="node4" class="node">
<title>Node4</title>
<g id="a_node4"><a xlink:href="classitk_1_1TransformBaseTemplate.html" target="_top" xlink:title=" ">
<polygon fill="white" stroke="black" points="486,-193.5 486,-223.5 639,-223.5 639,-193.5 486,-193.5"/>
<text text-anchor="start" x="494" y="-211.5" font-family="Helvetica,sans-Serif" font-size="10.00">itk::TransformBaseTemplate</text>
<text text-anchor="middle" x="562.5" y="-200.5" font-family="Helvetica,sans-Serif" font-size="10.00">&lt; double &gt;</text>
</a>
</g>
</g>
<!-- Node4&#45;&gt;Node3 -->
<g id="edge3" class="edge">
<title>Node4&#45;&gt;Node3</title>
<path fill="none" stroke="midnightblue" d="M649.24,-209.42C653.9,-209.45 658.51,-209.48 663,-209.5 728.33,-209.83 744.72,-212.02 810,-209.5 815.86,-209.27 821.86,-208.99 827.92,-208.66"/>
<polygon fill="midnightblue" stroke="midnightblue" points="649.04,-205.91 639.01,-209.34 648.99,-212.91 649.04,-205.91"/>
</g>
<!-- Node10 -->
<g id="node10" class="node">
<title>Node10</title>
<g id="a_node10"><a xlink:href="classitk_1_1Transform.html" target="_top" xlink:title=" ">
<polygon fill="white" stroke="black" points="875,-135.5 875,-165.5 1006,-165.5 1006,-135.5 875,-135.5"/>
<text text-anchor="start" x="883" y="-153.5" font-family="Helvetica,sans-Serif" font-size="10.00">itk::Transform&lt; double,</text>
<text text-anchor="middle" x="940.5" y="-142.5" font-family="Helvetica,sans-Serif" font-size="10.00"> 3, 3 &gt;</text>
</a>
</g>
</g>
<!-- Node4&#45;&gt;Node10 -->
<g id="edge12" class="edge">
<title>Node4&#45;&gt;Node10</title>
<path fill="none" stroke="midnightblue" d="M649.32,-208.7C697.5,-206.71 758.17,-200.65 810,-184.5 818.74,-181.78 819.43,-177.72 828,-174.5 842.83,-168.93 859.28,-164.49 874.89,-161.03"/>
<polygon fill="midnightblue" stroke="midnightblue" points="649.1,-205.21 639.23,-209.07 649.35,-212.2 649.1,-205.21"/>
</g>
<!-- Node5 -->
<g id="node5" class="node">
<title>Node5</title>
<g id="a_node5"><a xlink:href="classitk_1_1Object.html" target="_top" xlink:title="Base class for most ITK classes.">
<polygon fill="white" stroke="black" points="128,-188 128,-207 195,-207 195,-188 128,-188"/>
<text text-anchor="middle" x="161.5" y="-195" font-family="Helvetica,sans-Serif" font-size="10.00">itk::Object</text>
</a>
</g>
</g>
<!-- Node5&#45;&gt;Node4 -->
<g id="edge4" class="edge">
<title>Node5&#45;&gt;Node4</title>
<path fill="none" stroke="midnightblue" d="M205.34,-198.68C272.34,-200.53 402.84,-204.13 485.9,-206.42"/>
<polygon fill="midnightblue" stroke="midnightblue" points="205.24,-195.18 195.15,-198.4 205.05,-202.17 205.24,-195.18"/>
</g>
<!-- Node7 -->
<g id="node7" class="node">
<title>Node7</title>
<g id="a_node7"><a xlink:href="classitk_1_1TransformBaseTemplate.html" target="_top" xlink:title=" ">
<polygon fill="white" stroke="black" points="232,-151.5 232,-181.5 385,-181.5 385,-151.5 232,-151.5"/>
<text text-anchor="start" x="240" y="-169.5" font-family="Helvetica,sans-Serif" font-size="10.00">itk::TransformBaseTemplate</text>
<text text-anchor="middle" x="308.5" y="-158.5" font-family="Helvetica,sans-Serif" font-size="10.00">&lt; TParametersValueType &gt;</text>
</a>
</g>
</g>
<!-- Node5&#45;&gt;Node7 -->
<g id="edge7" class="edge">
<title>Node5&#45;&gt;Node7</title>
<path fill="none" stroke="midnightblue" d="M204.83,-188.45C214.98,-186.28 226.08,-183.91 237.13,-181.55"/>
<polygon fill="midnightblue" stroke="midnightblue" points="204.09,-185.03 195.04,-190.54 205.55,-191.87 204.09,-185.03"/>
</g>
<!-- Node6 -->
<g id="node6" class="node">
<title>Node6</title>
<g id="a_node6"><a xlink:href="classitk_1_1LightObject.html" target="_top" xlink:title="Light weight base class for most itk classes.">
<polygon fill="white" stroke="black" points="0,-188 0,-207 91,-207 91,-188 0,-188"/>
<text text-anchor="middle" x="45.5" y="-195" font-family="Helvetica,sans-Serif" font-size="10.00">itk::LightObject</text>
</a>
</g>
</g>
<!-- Node6&#45;&gt;Node5 -->
<g id="edge5" class="edge">
<title>Node6&#45;&gt;Node5</title>
<path fill="none" stroke="midnightblue" d="M101.39,-197.5C110.45,-197.5 119.59,-197.5 127.88,-197.5"/>
<polygon fill="midnightblue" stroke="midnightblue" points="101.23,-194 91.23,-197.5 101.23,-201 101.23,-194"/>
</g>
<!-- Node7&#45;&gt;Node4 -->
<g id="edge6" class="edge">
<title>Node7&#45;&gt;Node4</title>
<path fill="none" stroke="orange" stroke-dasharray="5,2" d="M395.56,-175.65C417.31,-178.39 440.57,-181.7 462,-185.5 474.66,-187.75 488.12,-190.56 500.93,-193.45"/>
<polygon fill="orange" stroke="orange" points="395.71,-172.14 385.36,-174.39 394.86,-179.09 395.71,-172.14"/>
<text text-anchor="middle" x="432.5" y="-188.5" font-family="Helvetica,sans-Serif" font-size="10.00"> &lt; double &gt;</text>
</g>
<!-- Node8 -->
<g id="node8" class="node">
<title>Node8</title>
<g id="a_node8"><a xlink:href="classitk_1_1Transform.html" target="_top" xlink:title="Transform points and vectors from an input space to an output space.">
<polygon fill="white" stroke="black" points="480,-131 480,-172 645,-172 645,-131 480,-131"/>
<text text-anchor="start" x="488" y="-160" font-family="Helvetica,sans-Serif" font-size="10.00">itk::Transform&lt; TParameters</text>
<text text-anchor="start" x="488" y="-149" font-family="Helvetica,sans-Serif" font-size="10.00">ValueType, NInputDimensions,</text>
<text text-anchor="middle" x="562.5" y="-138" font-family="Helvetica,sans-Serif" font-size="10.00"> NOutputDimensions &gt;</text>
</a>
</g>
</g>
<!-- Node7&#45;&gt;Node8 -->
<g id="edge9" class="edge">
<title>Node7&#45;&gt;Node8</title>
<path fill="none" stroke="midnightblue" d="M395.42,-161.39C422.71,-159.76 452.81,-157.97 479.8,-156.36"/>
<polygon fill="midnightblue" stroke="midnightblue" points="394.88,-157.91 385.11,-162 395.3,-164.9 394.88,-157.91"/>
</g>
<!-- Node8&#45;&gt;Node3 -->
<g id="edge8" class="edge">
<title>Node8&#45;&gt;Node3</title>
<path fill="none" stroke="orange" stroke-dasharray="5,2" d="M655.3,-163.22C707.32,-169.86 772.78,-178.22 827.76,-185.24"/>
<polygon fill="orange" stroke="orange" points="655.45,-159.71 645.09,-161.92 654.56,-166.65 655.45,-159.71"/>
<text text-anchor="start" x="663" y="-197.5" font-family="Helvetica,sans-Serif" font-size="10.00"> &lt; double, NInputDimensions,</text>
<text text-anchor="middle" x="736.5" y="-186.5" font-family="Helvetica,sans-Serif" font-size="10.00"> NOutputDimensions &gt;</text>
</g>
<!-- Node8&#45;&gt;Node10 -->
<g id="edge13" class="edge">
<title>Node8&#45;&gt;Node10</title>
<path fill="none" stroke="orange" stroke-dasharray="5,2" d="M655.29,-129.49C657.88,-129.12 660.46,-128.79 663,-128.5 727.91,-121.1 744.9,-123.01 810,-128.5 831.25,-130.29 854.25,-133.71 874.89,-137.33"/>
<polygon fill="orange" stroke="orange" points="654.57,-126.06 645.23,-131.06 655.65,-132.97 654.57,-126.06"/>
<text text-anchor="middle" x="736.5" y="-131.5" font-family="Helvetica,sans-Serif" font-size="10.00"> &lt; double, 3, 3 &gt;</text>
</g>
<!-- Node9 -->
<g id="node9" class="node">
<title>Node9</title>
<g id="a_node9"><a xlink:href="classitk_1_1MatrixOffsetTransformBase.html" target="_top" xlink:title="Matrix and Offset transformation of a vector space (e.g. space coordinates)">
<polygon fill="white" stroke="black" points="1090,-130 1090,-171 1315,-171 1315,-130 1090,-130"/>
<text text-anchor="start" x="1098" y="-159" font-family="Helvetica,sans-Serif" font-size="10.00">itk::MatrixOffsetTransform</text>
<text text-anchor="start" x="1098" y="-148" font-family="Helvetica,sans-Serif" font-size="10.00">Base&lt; TParametersValueType,</text>
<text text-anchor="middle" x="1202.5" y="-137" font-family="Helvetica,sans-Serif" font-size="10.00"> NInputDimensions, NOutputDimensions &gt;</text>
</a>
</g>
</g>
<!-- Node9&#45;&gt;Node2 -->
<g id="edge10" class="edge">
<title>Node9&#45;&gt;Node2</title>
<path fill="none" stroke="orange" stroke-dasharray="5,2" d="M1325.4,-160.59C1362.17,-163.64 1401.35,-166.88 1433.73,-169.56"/>
<polygon fill="orange" stroke="orange" points="1325.35,-157.08 1315.1,-159.74 1324.77,-164.05 1325.35,-157.08"/>
<text text-anchor="middle" x="1374.5" y="-170.5" font-family="Helvetica,sans-Serif" font-size="10.00"> &lt; double, 3, 3 &gt;</text>
</g>
<!-- Node10&#45;&gt;Node9 -->
<g id="edge11" class="edge">
<title>Node10&#45;&gt;Node9</title>
<path fill="none" stroke="midnightblue" d="M1016.12,-150.5C1039.11,-150.5 1064.96,-150.5 1089.88,-150.5"/>
<polygon fill="midnightblue" stroke="midnightblue" points="1016.1,-147 1006.1,-150.5 1016.1,-154 1016.1,-147"/>
</g>
<!-- Node12 -->
<g id="node12" class="node">
<title>Node12</title>
<g id="a_node12"><a xlink:href="classitk_1_1Euler3DTransform.html" target="_top" xlink:title=" ">
<polygon fill="white" stroke="black" points="2278,-260.5 2278,-290.5 2400,-290.5 2400,-260.5 2278,-260.5"/>
<text text-anchor="start" x="2286" y="-278.5" font-family="Helvetica,sans-Serif" font-size="10.00">itk::Euler3DTransform</text>
<text text-anchor="middle" x="2339" y="-267.5" font-family="Helvetica,sans-Serif" font-size="10.00">&lt; double &gt;</text>
</a>
</g>
</g>
<!-- Node11&#45;&gt;Node12 -->
<g id="edge15" class="edge">
<title>Node11&#45;&gt;Node12</title>
<path fill="none" stroke="midnightblue" d="M1938.1,-199.31C1954.82,-223.28 1984.22,-258.88 2020,-274.5 2103.61,-311 2211.78,-300.8 2277.97,-288.97"/>
<polygon fill="midnightblue" stroke="midnightblue" points="1940.82,-197.09 1932.32,-190.76 1935.02,-201.01 1940.82,-197.09"/>
</g>
<!-- Node14 -->
<g id="node14" class="node">
<title>Node14</title>
<g id="a_node14"><a xlink:href="classitk_1_1Euler3DTransform.html" target="_top" xlink:title="Euler3DTransform of a vector space (e.g. space coordinates)">
<polygon fill="white" stroke="black" points="2026.5,-234.5 2026.5,-264.5 2176.5,-264.5 2176.5,-234.5 2026.5,-234.5"/>
<text text-anchor="start" x="2034.5" y="-252.5" font-family="Helvetica,sans-Serif" font-size="10.00">itk::Euler3DTransform</text>
<text text-anchor="middle" x="2101.5" y="-241.5" font-family="Helvetica,sans-Serif" font-size="10.00">&lt; TParametersValueType &gt;</text>
</a>
</g>
</g>
<!-- Node11&#45;&gt;Node14 -->
<g id="edge17" class="edge">
<title>Node11&#45;&gt;Node14</title>
<path fill="none" stroke="midnightblue" d="M1959.01,-195.5C1977,-205.02 1999.3,-216.12 2020,-224.5 2028.82,-228.07 2038.35,-231.44 2047.66,-234.47"/>
<polygon fill="midnightblue" stroke="midnightblue" points="1960.5,-192.32 1950.03,-190.69 1957.19,-198.49 1960.5,-192.32"/>
</g>
<!-- Node15 -->
<g id="node15" class="node">
<title>Node15</title>
<g id="a_node15"><a xlink:href="classitk_1_1QuaternionRigidTransform.html" target="_top" xlink:title="QuaternionRigidTransform of a vector space (e.g. space coordinates).">
<polygon fill="white" stroke="black" points="2020,-185.5 2020,-215.5 2183,-215.5 2183,-185.5 2020,-185.5"/>
<text text-anchor="start" x="2028" y="-203.5" font-family="Helvetica,sans-Serif" font-size="10.00">itk::QuaternionRigidTransform</text>
<text text-anchor="middle" x="2101.5" y="-192.5" font-family="Helvetica,sans-Serif" font-size="10.00">&lt; TParametersValueType &gt;</text>
</a>
</g>
</g>
<!-- Node11&#45;&gt;Node15 -->
<g id="edge19" class="edge">
<title>Node11&#45;&gt;Node15</title>
<path fill="none" stroke="midnightblue" d="M1993.18,-185.38C2001.89,-186.61 2010.84,-187.87 2019.7,-189.12"/>
<polygon fill="midnightblue" stroke="midnightblue" points="1993.48,-181.89 1983.09,-183.96 1992.51,-188.82 1993.48,-181.89"/>
</g>
<!-- Node16 -->
<g id="node16" class="node">
<title>Node16</title>
<g id="a_node16"><a xlink:href="classitk_1_1v3_1_1Rigid3DTransform.html" target="_top" xlink:title="ITK3.x compatible Rigid3DTransform of a vector space (e.g. space coordinates)">
<polygon fill="white" stroke="black" points="2026.5,-136.5 2026.5,-166.5 2176.5,-166.5 2176.5,-136.5 2026.5,-136.5"/>
<text text-anchor="start" x="2034.5" y="-154.5" font-family="Helvetica,sans-Serif" font-size="10.00">itk::v3::Rigid3DTransform</text>
<text text-anchor="middle" x="2101.5" y="-143.5" font-family="Helvetica,sans-Serif" font-size="10.00">&lt; TParametersValueType &gt;</text>
</a>
</g>
</g>
<!-- Node11&#45;&gt;Node16 -->
<g id="edge20" class="edge">
<title>Node11&#45;&gt;Node16</title>
<path fill="none" stroke="midnightblue" d="M1993,-166.03C2003.94,-164.56 2015.27,-163.02 2026.3,-161.53"/>
<polygon fill="midnightblue" stroke="midnightblue" points="1992.53,-162.57 1983.09,-167.37 1993.47,-169.5 1992.53,-162.57"/>
</g>
<!-- Node17 -->
<g id="node17" class="node">
<title>Node17</title>
<g id="a_node17"><a xlink:href="classitk_1_1VersorTransform.html" target="_top" xlink:title=" ">
<polygon fill="white" stroke="black" points="2026.5,-48.5 2026.5,-78.5 2176.5,-78.5 2176.5,-48.5 2026.5,-48.5"/>
<text text-anchor="start" x="2034.5" y="-66.5" font-family="Helvetica,sans-Serif" font-size="10.00">itk::VersorTransform</text>
<text text-anchor="middle" x="2101.5" y="-55.5" font-family="Helvetica,sans-Serif" font-size="10.00">&lt; TParametersValueType &gt;</text>
</a>
</g>
</g>
<!-- Node11&#45;&gt;Node17 -->
<g id="edge21" class="edge">
<title>Node11&#45;&gt;Node17</title>
<path fill="none" stroke="midnightblue" d="M1940.02,-151.78C1954.35,-133.41 1976.41,-108.63 2001,-93.5 2010.91,-87.4 2022.14,-82.47 2033.4,-78.51"/>
<polygon fill="midnightblue" stroke="midnightblue" points="1936.88,-150.12 1933.62,-160.21 1942.45,-154.35 1936.88,-150.12"/>
</g>
<!-- Node18 -->
<g id="node18" class="node">
<title>Node18</title>
<g id="a_node18"><a xlink:href="classitk_1_1VersorTransform.html" target="_top" xlink:title=" ">
<polygon fill="white" stroke="black" points="2281.5,-79.5 2281.5,-109.5 2396.5,-109.5 2396.5,-79.5 2281.5,-79.5"/>
<text text-anchor="start" x="2289.5" y="-97.5" font-family="Helvetica,sans-Serif" font-size="10.00">itk::VersorTransform</text>
<text text-anchor="middle" x="2339" y="-86.5" font-family="Helvetica,sans-Serif" font-size="10.00">&lt; double &gt;</text>
</a>
</g>
</g>
<!-- Node11&#45;&gt;Node18 -->
<g id="edge30" class="edge">
<title>Node11&#45;&gt;Node18</title>
<path fill="none" stroke="midnightblue" d="M1955.46,-155.31C1973.74,-144.93 1997.38,-133.1 2020,-126.5 2108.82,-100.57 2216.85,-94.84 2281.38,-94"/>
<polygon fill="midnightblue" stroke="midnightblue" points="1953.57,-152.36 1946.69,-160.41 1957.09,-158.41 1953.57,-152.36"/>
</g>
<!-- Node13 -->
<g id="node13" class="node">
<title>Node13</title>
<g id="a_node13"><a xlink:href="classitk_1_1CenteredEuler3DTransform.html" target="_top" xlink:title="CenteredEuler3DTransform of a vector space (e.g. space coordinates)">
<polygon fill="white" stroke="black" points="2437,-260.5 2437,-290.5 2604,-290.5 2604,-260.5 2437,-260.5"/>
<text text-anchor="start" x="2445" y="-278.5" font-family="Helvetica,sans-Serif" font-size="10.00">itk::CenteredEuler3DTransform</text>
<text text-anchor="middle" x="2520.5" y="-267.5" font-family="Helvetica,sans-Serif" font-size="10.00">&lt; TParametersValueType &gt;</text>
</a>
</g>
</g>
<!-- Node12&#45;&gt;Node13 -->
<g id="edge16" class="edge">
<title>Node12&#45;&gt;Node13</title>
<path fill="none" stroke="midnightblue" d="M2410.31,-275.5C2418.98,-275.5 2427.91,-275.5 2436.74,-275.5"/>
<polygon fill="midnightblue" stroke="midnightblue" points="2410.27,-272 2400.27,-275.5 2410.27,-279 2410.27,-272"/>
</g>
<!-- Node14&#45;&gt;Node12 -->
<g id="edge18" class="edge">
<title>Node14&#45;&gt;Node12</title>
<path fill="none" stroke="orange" stroke-dasharray="5,2" d="M2186.78,-258.8C2216.93,-262.13 2250.27,-265.81 2277.96,-268.87"/>
<polygon fill="orange" stroke="orange" points="2187.01,-255.31 2176.69,-257.69 2186.25,-262.27 2187.01,-255.31"/>
<text text-anchor="middle" x="2230.5" y="-268.5" font-family="Helvetica,sans-Serif" font-size="10.00"> &lt; double &gt;</text>
</g>
<!-- Node17&#45;&gt;Node18 -->
<g id="edge22" class="edge">
<title>Node17&#45;&gt;Node18</title>
<path fill="none" stroke="orange" stroke-dasharray="5,2" d="M2186.7,-73.14C2210.43,-76 2236.24,-79.24 2260,-82.5 2266.92,-83.45 2274.18,-84.5 2281.37,-85.57"/>
<polygon fill="orange" stroke="orange" points="2187.02,-69.66 2176.68,-71.94 2186.19,-76.61 2187.02,-69.66"/>
<text text-anchor="middle" x="2230.5" y="-85.5" font-family="Helvetica,sans-Serif" font-size="10.00"> &lt; double &gt;</text>
</g>
<!-- Node19 -->
<g id="node19" class="node">
<title>Node19</title>
<g id="a_node19"><a xlink:href="classitk_1_1VersorRigid3DTransform.html" target="_top" xlink:title="VersorRigid3DTransform of a vector space (e.g. space coordinates)">
<polygon fill="white" stroke="black" points="2444,-101.5 2444,-131.5 2597,-131.5 2597,-101.5 2444,-101.5"/>
<text text-anchor="start" x="2452" y="-119.5" font-family="Helvetica,sans-Serif" font-size="10.00">itk::VersorRigid3DTransform</text>
<text text-anchor="middle" x="2520.5" y="-108.5" font-family="Helvetica,sans-Serif" font-size="10.00">&lt; TParametersValueType &gt;</text>
</a>
</g>
</g>
<!-- Node18&#45;&gt;Node19 -->
<g id="edge23" class="edge">
<title>Node18&#45;&gt;Node19</title>
<path fill="none" stroke="midnightblue" d="M2406.75,-102.68C2418.79,-104.16 2431.42,-105.71 2443.7,-107.21"/>
<polygon fill="midnightblue" stroke="midnightblue" points="2407.15,-99.2 2396.79,-101.46 2406.29,-106.15 2407.15,-99.2"/>
</g>
<!-- Node20 -->
<g id="node20" class="node">
<title>Node20</title>
<g id="a_node20"><a xlink:href="classitk_1_1VersorRigid3DTransform.html" target="_top" xlink:title=" ">
<polygon fill="white" stroke="black" points="2699,-73.5 2699,-103.5 2852,-103.5 2852,-73.5 2699,-73.5"/>
<text text-anchor="start" x="2707" y="-91.5" font-family="Helvetica,sans-Serif" font-size="10.00">itk::VersorRigid3DTransform</text>
<text text-anchor="middle" x="2775.5" y="-80.5" font-family="Helvetica,sans-Serif" font-size="10.00">&lt; double &gt;</text>
</a>
</g>
</g>
<!-- Node18&#45;&gt;Node20 -->
<g id="edge29" class="edge">
<title>Node18&#45;&gt;Node20</title>
<path fill="none" stroke="midnightblue" d="M2406.72,-92.24C2416.86,-91.96 2427.21,-91.69 2437,-91.5 2526.93,-89.71 2630.35,-88.99 2698.76,-88.7"/>
<polygon fill="midnightblue" stroke="midnightblue" points="2406.57,-88.75 2396.67,-92.54 2406.77,-95.74 2406.57,-88.75"/>
</g>
<!-- Node19&#45;&gt;Node20 -->
<g id="edge24" class="edge">
<title>Node19&#45;&gt;Node20</title>
<path fill="none" stroke="orange" stroke-dasharray="5,2" d="M2607.02,-107.04C2636.8,-103.74 2669.97,-100.07 2698.89,-96.87"/>
<polygon fill="orange" stroke="orange" points="2606.62,-103.56 2597.07,-108.14 2607.39,-110.52 2606.62,-103.56"/>
<text text-anchor="middle" x="2651.5" y="-108.5" font-family="Helvetica,sans-Serif" font-size="10.00"> &lt; double &gt;</text>
</g>
<!-- Node21 -->
<g id="node21" class="node">
<title>Node21</title>
<g id="a_node21"><a xlink:href="classitk_1_1ComposeScaleSkewVersor3DTransform.html" target="_top" xlink:title="ComposeScaleSkewVersor3DTransform of a vector space (space coords)">
<polygon fill="white" stroke="black" points="2889,-147.5 2889,-177.5 3095,-177.5 3095,-147.5 2889,-147.5"/>
<text text-anchor="start" x="2897" y="-165.5" font-family="Helvetica,sans-Serif" font-size="10.00">itk::ComposeScaleSkewVersor3</text>
<text text-anchor="middle" x="2992" y="-154.5" font-family="Helvetica,sans-Serif" font-size="10.00">DTransform&lt; TParametersValueType &gt;</text>
</a>
</g>
</g>
<!-- Node20&#45;&gt;Node21 -->
<g id="edge25" class="edge">
<title>Node20&#45;&gt;Node21</title>
<path fill="none" stroke="midnightblue" d="M2816.77,-108.03C2837.93,-117.78 2864.49,-129.23 2889,-137.5 2899.8,-141.14 2911.4,-144.5 2922.78,-147.49"/>
<polygon fill="midnightblue" stroke="midnightblue" points="2818,-104.74 2807.46,-103.69 2815.04,-111.09 2818,-104.74"/>
</g>
<!-- Node22 -->
<g id="node22" class="node">
<title>Node22</title>
<g id="a_node22"><a xlink:href="classitk_1_1ScaleSkewVersor3DTransform.html" target="_top" xlink:title="ScaleSkewVersor3DTransform of a vector space (e.g. space coordinates)">
<polygon fill="white" stroke="black" points="2902,-98.5 2902,-128.5 3082,-128.5 3082,-98.5 2902,-98.5"/>
<text text-anchor="start" x="2910" y="-116.5" font-family="Helvetica,sans-Serif" font-size="10.00">itk::ScaleSkewVersor3DTransform</text>
<text text-anchor="middle" x="2992" y="-105.5" font-family="Helvetica,sans-Serif" font-size="10.00">&lt; TParametersValueType &gt;</text>
</a>
</g>
</g>
<!-- Node20&#45;&gt;Node22 -->
<g id="edge26" class="edge">
<title>Node20&#45;&gt;Node22</title>
<path fill="none" stroke="midnightblue" d="M2862.4,-98.51C2875.35,-100.02 2888.72,-101.58 2901.74,-103.1"/>
<polygon fill="midnightblue" stroke="midnightblue" points="2862.46,-95 2852.12,-97.31 2861.65,-101.95 2862.46,-95"/>
</g>
<!-- Node23 -->
<g id="node23" class="node">
<title>Node23</title>
<g id="a_node23"><a xlink:href="classitk_1_1ScaleVersor3DTransform.html" target="_top" xlink:title="This transform applies a Versor rotation, translation and anisotropic scale to the space.">
<polygon fill="white" stroke="black" points="2914.5,-49.5 2914.5,-79.5 3069.5,-79.5 3069.5,-49.5 2914.5,-49.5"/>
<text text-anchor="start" x="2922.5" y="-67.5" font-family="Helvetica,sans-Serif" font-size="10.00">itk::ScaleVersor3DTransform</text>
<text text-anchor="middle" x="2992" y="-56.5" font-family="Helvetica,sans-Serif" font-size="10.00">&lt; TParametersValueType &gt;</text>
</a>
</g>
</g>
<!-- Node20&#45;&gt;Node23 -->
<g id="edge27" class="edge">
<title>Node20&#45;&gt;Node23</title>
<path fill="none" stroke="midnightblue" d="M2862.16,-78.92C2879.37,-76.99 2897.36,-74.98 2914.25,-73.09"/>
<polygon fill="midnightblue" stroke="midnightblue" points="2861.67,-75.45 2852.12,-80.04 2862.45,-82.4 2861.67,-75.45"/>
</g>
<!-- Node24 -->
<g id="node24" class="node">
<title>Node24</title>
<g id="a_node24"><a xlink:href="classitk_1_1Similarity3DTransform.html" target="_top" xlink:title="Similarity3DTransform of a vector space (e.g. space coordinates)">
<polygon fill="white" stroke="black" points="2917,-0.5 2917,-30.5 3067,-30.5 3067,-0.5 2917,-0.5"/>
<text text-anchor="start" x="2925" y="-18.5" font-family="Helvetica,sans-Serif" font-size="10.00">itk::Similarity3DTransform</text>
<text text-anchor="middle" x="2992" y="-7.5" font-family="Helvetica,sans-Serif" font-size="10.00">&lt; TParametersValueType &gt;</text>
</a>
</g>
</g>
<!-- Node20&#45;&gt;Node24 -->
<g id="edge28" class="edge">
<title>Node20&#45;&gt;Node24</title>
<path fill="none" stroke="midnightblue" d="M2816.29,-69.08C2837.51,-59.26 2864.28,-47.72 2889,-39.5 2898.84,-36.23 2909.35,-33.22 2919.76,-30.53"/>
<polygon fill="midnightblue" stroke="midnightblue" points="2814.52,-66.04 2806.95,-73.46 2817.49,-72.38 2814.52,-66.04"/>
</g>
</g>
</svg>
