<?xml version="1.0" encoding="UTF-8" standalone="no"?>
<!DOCTYPE svg PUBLIC "-//W3C//DTD SVG 1.1//EN"
 "http://www.w3.org/Graphics/SVG/1.1/DTD/svg11.dtd">
<!-- Generated by graphviz version 2.43.0 (0)
 -->
<!-- Title: itk::ConfidenceConnectedImageFilter&lt; TInputImage, TOutputImage &gt; Pages: 1 -->
<svg width="2384pt" height="525pt"
 viewBox="0.00 0.00 2384.00 524.50" xmlns="http://www.w3.org/2000/svg" xmlns:xlink="http://www.w3.org/1999/xlink">
<g id="graph0" class="graph" transform="scale(1 1) rotate(0) translate(4 520.5)">
<title>itk::ConfidenceConnectedImageFilter&lt; TInputImage, TOutputImage &gt;</title>
<polygon fill="white" stroke="transparent" points="-4,4 -4,-520.5 2380,-520.5 2380,4 -4,4"/>
<!-- Node1 -->
<g id="node1" class="node">
<title>Node1</title>
<g id="a_node1"><a xlink:title="Segment pixels with similar statistics using connectivity.">
<polygon fill="#bfbfbf" stroke="black" points="2228,-371 2228,-412 2376,-412 2376,-371 2228,-371"/>
<text text-anchor="start" x="2236" y="-400" font-family="Helvetica,sans-Serif" font-size="10.00">itk::ConfidenceConnected</text>
<text text-anchor="start" x="2236" y="-389" font-family="Helvetica,sans-Serif" font-size="10.00">ImageFilter&lt; TInputImage,</text>
<text text-anchor="middle" x="2302" y="-378" font-family="Helvetica,sans-Serif" font-size="10.00"> TOutputImage &gt;</text>
</a>
</g>
</g>
<!-- Node2 -->
<g id="node2" class="node">
<title>Node2</title>
<g id="a_node2"><a xlink:href="classitk_1_1ImageToImageFilter.html" target="_top" xlink:title="Base class for filters that take an image as input and produce an image as output.">
<polygon fill="white" stroke="black" points="1955,-376.5 1955,-406.5 2131,-406.5 2131,-376.5 1955,-376.5"/>
<text text-anchor="start" x="1963" y="-394.5" font-family="Helvetica,sans-Serif" font-size="10.00">itk::ImageToImageFilter</text>
<text text-anchor="middle" x="2043" y="-383.5" font-family="Helvetica,sans-Serif" font-size="10.00">&lt; TInputImage, TOutputImage &gt;</text>
</a>
</g>
</g>
<!-- Node2&#45;&gt;Node1 -->
<g id="edge1" class="edge">
<title>Node2&#45;&gt;Node1</title>
<path fill="none" stroke="midnightblue" d="M2141.07,-391.5C2169.83,-391.5 2200.81,-391.5 2227.78,-391.5"/>
<polygon fill="midnightblue" stroke="midnightblue" points="2141.01,-388 2131.01,-391.5 2141.01,-395 2141.01,-388"/>
</g>
<!-- Node3 -->
<g id="node3" class="node">
<title>Node3</title>
<g id="a_node3"><a xlink:href="classitk_1_1ImageSource.html" target="_top" xlink:title="Base class for all process objects that output image data.">
<polygon fill="white" stroke="black" points="1629.5,-349.5 1629.5,-379.5 1778.5,-379.5 1778.5,-349.5 1629.5,-349.5"/>
<text text-anchor="start" x="1637.5" y="-367.5" font-family="Helvetica,sans-Serif" font-size="10.00">itk::ImageSource&lt; TOutput</text>
<text text-anchor="middle" x="1704" y="-356.5" font-family="Helvetica,sans-Serif" font-size="10.00">Image &gt;</text>
</a>
</g>
</g>
<!-- Node3&#45;&gt;Node2 -->
<g id="edge2" class="edge">
<title>Node3&#45;&gt;Node2</title>
<path fill="none" stroke="midnightblue" d="M1788.79,-371.21C1839.37,-375.27 1903.72,-380.42 1954.89,-384.52"/>
<polygon fill="midnightblue" stroke="midnightblue" points="1788.79,-367.7 1778.54,-370.39 1788.23,-374.68 1788.79,-367.7"/>
</g>
<!-- Node4 -->
<g id="node4" class="node">
<title>Node4</title>
<g id="a_node4"><a xlink:href="classitk_1_1ProcessObject.html" target="_top" xlink:title="The base class for all process objects (source, filters, mappers) in the Insight data processing pipe...">
<polygon fill="white" stroke="black" points="1455.5,-309 1455.5,-328 1559.5,-328 1559.5,-309 1455.5,-309"/>
<text text-anchor="middle" x="1507.5" y="-316" font-family="Helvetica,sans-Serif" font-size="10.00">itk::ProcessObject</text>
</a>
</g>
</g>
<!-- Node4&#45;&gt;Node3 -->
<g id="edge3" class="edge">
<title>Node4&#45;&gt;Node3</title>
<path fill="none" stroke="midnightblue" d="M1558.65,-330.36C1583.27,-336.18 1613.19,-343.26 1639.4,-349.46"/>
<polygon fill="midnightblue" stroke="midnightblue" points="1559.34,-326.93 1548.8,-328.03 1557.73,-333.74 1559.34,-326.93"/>
</g>
<!-- Node5 -->
<g id="node5" class="node">
<title>Node5</title>
<g id="a_node5"><a xlink:href="classitk_1_1Object.html" target="_top" xlink:title="Base class for most ITK classes.">
<polygon fill="white" stroke="black" points="1140,-193 1140,-212 1207,-212 1207,-193 1140,-193"/>
<text text-anchor="middle" x="1173.5" y="-200" font-family="Helvetica,sans-Serif" font-size="10.00">itk::Object</text>
</a>
</g>
</g>
<!-- Node5&#45;&gt;Node4 -->
<g id="edge4" class="edge">
<title>Node5&#45;&gt;Node4</title>
<path fill="none" stroke="midnightblue" d="M1217.62,-202.93C1269.81,-205.5 1358.14,-216.66 1418,-260.5 1430.54,-269.69 1424.15,-280.43 1436,-290.5 1445.64,-298.69 1457.96,-304.67 1469.6,-308.95"/>
<polygon fill="midnightblue" stroke="midnightblue" points="1217.5,-199.42 1207.37,-202.51 1217.22,-206.41 1217.5,-199.42"/>
</g>
<!-- Node6 -->
<g id="node6" class="node">
<title>Node6</title>
<g id="a_node6"><a xlink:href="classitk_1_1LightObject.html" target="_top" xlink:title="Light weight base class for most itk classes.">
<polygon fill="white" stroke="black" points="794,-193 794,-212 885,-212 885,-193 794,-193"/>
<text text-anchor="middle" x="839.5" y="-200" font-family="Helvetica,sans-Serif" font-size="10.00">itk::LightObject</text>
</a>
</g>
</g>
<!-- Node6&#45;&gt;Node5 -->
<g id="edge5" class="edge">
<title>Node6&#45;&gt;Node5</title>
<path fill="none" stroke="midnightblue" d="M895.61,-202.5C965.32,-202.5 1083.08,-202.5 1139.9,-202.5"/>
<polygon fill="midnightblue" stroke="midnightblue" points="895.28,-199 885.27,-202.5 895.27,-206 895.28,-199"/>
</g>
<!-- Node7 -->
<g id="node7" class="node">
<title>Node7</title>
<g id="a_node7"><a xlink:title=" ">
<polygon fill="white" stroke="#bfbfbf" points="457,-244 457,-263 564,-263 564,-244 457,-244"/>
<text text-anchor="middle" x="510.5" y="-251" font-family="Helvetica,sans-Serif" font-size="10.00">std::atomic&lt; int &gt;</text>
</a>
</g>
</g>
<!-- Node7&#45;&gt;Node6 -->
<g id="edge6" class="edge">
<title>Node7&#45;&gt;Node6</title>
<path fill="none" stroke="#9a32cd" stroke-dasharray="5,2" d="M574.35,-255.04C622.91,-254.92 691.47,-251.87 750,-238.5 775.23,-232.74 802.57,-220.63 820.09,-212.05"/>
<polygon fill="#9a32cd" stroke="#9a32cd" points="574.31,-251.54 564.3,-255.03 574.3,-258.54 574.31,-251.54"/>
<text text-anchor="middle" x="676.5" y="-258.5" font-family="Helvetica,sans-Serif" font-size="10.00"> m_ReferenceCount</text>
</g>
<!-- Node8 -->
<g id="node8" class="node">
<title>Node8</title>
<g id="a_node8"><a xlink:title="STL class.">
<polygon fill="white" stroke="#bfbfbf" points="123,-267 123,-286 223,-286 223,-267 123,-267"/>
<text text-anchor="middle" x="173" y="-274" font-family="Helvetica,sans-Serif" font-size="10.00">std::atomic&lt; T &gt;</text>
</a>
</g>
</g>
<!-- Node8&#45;&gt;Node7 -->
<g id="edge7" class="edge">
<title>Node8&#45;&gt;Node7</title>
<path fill="none" stroke="orange" stroke-dasharray="5,2" d="M233.38,-272.43C296.77,-268.08 396.25,-261.26 456.9,-257.11"/>
<polygon fill="orange" stroke="orange" points="232.88,-268.96 223.14,-273.13 233.36,-275.94 232.88,-268.96"/>
<text text-anchor="middle" x="334" y="-274.5" font-family="Helvetica,sans-Serif" font-size="10.00"> &lt; int &gt;</text>
</g>
<!-- Node17 -->
<g id="node17" class="node">
<title>Node17</title>
<g id="a_node17"><a xlink:href="classitk_1_1TimeStamp.html" target="_top" xlink:title="Generate a unique, increasing time value.">
<polygon fill="white" stroke="black" points="793.5,-269 793.5,-288 885.5,-288 885.5,-269 793.5,-269"/>
<text text-anchor="middle" x="839.5" y="-276" font-family="Helvetica,sans-Serif" font-size="10.00">itk::TimeStamp</text>
</a>
</g>
</g>
<!-- Node8&#45;&gt;Node17 -->
<g id="edge19" class="edge">
<title>Node8&#45;&gt;Node17</title>
<path fill="none" stroke="#9a32cd" stroke-dasharray="5,2" d="M233.42,-284.22C239.02,-284.74 244.61,-285.18 250,-285.5 452.47,-297.45 694.78,-286.66 793.41,-281.21"/>
<polygon fill="#9a32cd" stroke="#9a32cd" points="233.69,-280.73 223.39,-283.2 232.99,-287.69 233.69,-280.73"/>
<text text-anchor="middle" x="510.5" y="-294.5" font-family="Helvetica,sans-Serif" font-size="10.00"> m_GlobalTimeStamp</text>
</g>
<!-- Node21 -->
<g id="node21" class="node">
<title>Node21</title>
<g id="a_node21"><a xlink:title=" ">
<polygon fill="white" stroke="#bfbfbf" points="609.5,-394 609.5,-413 743.5,-413 743.5,-394 609.5,-394"/>
<text text-anchor="middle" x="676.5" y="-401" font-family="Helvetica,sans-Serif" font-size="10.00">std::atomic&lt; uint32_t &gt;</text>
</a>
</g>
</g>
<!-- Node8&#45;&gt;Node21 -->
<g id="edge28" class="edge">
<title>Node8&#45;&gt;Node21</title>
<path fill="none" stroke="orange" stroke-dasharray="5,2" d="M201.05,-290.86C215.37,-298.16 233.39,-306.86 250,-313.5 330.54,-345.68 351.33,-353.75 436,-372.5 493.92,-385.33 560.98,-393.45 609.39,-398.14"/>
<polygon fill="orange" stroke="orange" points="202.28,-287.56 191.79,-286.08 199.06,-293.78 202.28,-287.56"/>
<text text-anchor="middle" x="334" y="-370.5" font-family="Helvetica,sans-Serif" font-size="10.00"> &lt; uint32_t &gt;</text>
</g>
<!-- Node9 -->
<g id="node9" class="node">
<title>Node9</title>
<g id="a_node9"><a xlink:title=" ">
<polygon fill="white" stroke="#bfbfbf" points="0,-239 0,-258 29,-258 29,-239 0,-239"/>
<text text-anchor="middle" x="14.5" y="-246" font-family="Helvetica,sans-Serif" font-size="10.00">T</text>
</a>
</g>
</g>
<!-- Node9&#45;&gt;Node8 -->
<g id="edge8" class="edge">
<title>Node9&#45;&gt;Node8</title>
<path fill="none" stroke="#9a32cd" stroke-dasharray="5,2" d="M39.23,-252.75C61.29,-256.69 94.84,-262.7 122.7,-267.68"/>
<polygon fill="#9a32cd" stroke="#9a32cd" points="39.57,-249.25 29.11,-250.94 38.34,-256.14 39.57,-249.25"/>
<text text-anchor="middle" x="71.5" y="-265.5" font-family="Helvetica,sans-Serif" font-size="10.00"> ptr</text>
</g>
<!-- Node14 -->
<g id="node14" class="node">
<title>Node14</title>
<g id="a_node14"><a xlink:title="STL class.">
<polygon fill="white" stroke="#bfbfbf" points="122.5,-184 122.5,-203 223.5,-203 223.5,-184 122.5,-184"/>
<text text-anchor="middle" x="173" y="-191" font-family="Helvetica,sans-Serif" font-size="10.00">std::map&lt; K, T &gt;</text>
</a>
</g>
</g>
<!-- Node9&#45;&gt;Node14 -->
<g id="edge15" class="edge">
<title>Node9&#45;&gt;Node14</title>
<path fill="none" stroke="#9a32cd" stroke-dasharray="5,2" d="M38.58,-240.39C66.87,-230.45 114.74,-213.62 144.79,-203.06"/>
<polygon fill="#9a32cd" stroke="#9a32cd" points="37.39,-237.1 29.11,-243.72 39.71,-243.7 37.39,-237.1"/>
<text text-anchor="middle" x="71.5" y="-240.5" font-family="Helvetica,sans-Serif" font-size="10.00"> elements</text>
</g>
<!-- Node16 -->
<g id="node16" class="node">
<title>Node16</title>
<g id="a_node16"><a xlink:title="STL class.">
<polygon fill="white" stroke="#bfbfbf" points="114,-146 114,-165 232,-165 232,-146 114,-146"/>
<text text-anchor="middle" x="173" y="-153" font-family="Helvetica,sans-Serif" font-size="10.00">std::shared_ptr&lt; T &gt;</text>
</a>
</g>
</g>
<!-- Node9&#45;&gt;Node16 -->
<g id="edge17" class="edge">
<title>Node9&#45;&gt;Node16</title>
<path fill="none" stroke="#9a32cd" stroke-dasharray="5,2" d="M20.38,-228.78C26.25,-206.8 36.61,-173.3 47,-165.5 65.8,-151.38 90.99,-147.4 113.82,-147.51"/>
<polygon fill="#9a32cd" stroke="#9a32cd" points="16.92,-228.2 17.81,-238.76 23.7,-229.95 16.92,-228.2"/>
<text text-anchor="middle" x="71.5" y="-168.5" font-family="Helvetica,sans-Serif" font-size="10.00"> ptr</text>
</g>
<!-- Node24 -->
<g id="node24" class="node">
<title>Node24</title>
<g id="a_node24"><a xlink:title="STL class.">
<polygon fill="white" stroke="#bfbfbf" points="791,-471 791,-490 888,-490 888,-471 791,-471"/>
<text text-anchor="middle" x="839.5" y="-478" font-family="Helvetica,sans-Serif" font-size="10.00">std::vector&lt; T &gt;</text>
</a>
</g>
</g>
<!-- Node9&#45;&gt;Node24 -->
<g id="edge32" class="edge">
<title>Node9&#45;&gt;Node24</title>
<path fill="none" stroke="#9a32cd" stroke-dasharray="5,2" d="M31.82,-265.05C36.51,-269.37 41.77,-273.84 47,-277.5 130.22,-335.75 153.62,-350.43 250,-382.5 444.1,-447.08 688.98,-470.34 790.76,-477.6"/>
<polygon fill="#9a32cd" stroke="#9a32cd" points="34.22,-262.5 24.58,-258.09 29.36,-267.55 34.22,-262.5"/>
<text text-anchor="middle" x="334" y="-428.5" font-family="Helvetica,sans-Serif" font-size="10.00"> elements</text>
</g>
<!-- Node10 -->
<g id="node10" class="node">
<title>Node10</title>
<g id="a_node10"><a xlink:title="STL class.">
<polygon fill="white" stroke="#bfbfbf" points="807,-48 807,-67 872,-67 872,-48 807,-48"/>
<text text-anchor="middle" x="839.5" y="-55" font-family="Helvetica,sans-Serif" font-size="10.00">std::string</text>
</a>
</g>
</g>
<!-- Node10&#45;&gt;Node5 -->
<g id="edge9" class="edge">
<title>Node10&#45;&gt;Node5</title>
<path fill="none" stroke="#9a32cd" stroke-dasharray="5,2" d="M882.24,-62.96C929.98,-70.44 1009.49,-86.73 1071,-118.5 1080.25,-123.28 1080.99,-126.85 1089,-133.5 1114.61,-154.76 1144.73,-179.6 1160.87,-192.92"/>
<polygon fill="#9a32cd" stroke="#9a32cd" points="882.67,-59.48 872.26,-61.45 881.63,-66.41 882.67,-59.48"/>
<text text-anchor="middle" x="1000" y="-121.5" font-family="Helvetica,sans-Serif" font-size="10.00"> m_ObjectName</text>
</g>
<!-- Node18 -->
<g id="node18" class="node">
<title>Node18</title>
<g id="a_node18"><a xlink:title=" ">
<polygon fill="white" stroke="#bfbfbf" points="1092.5,-0.5 1092.5,-30.5 1254.5,-30.5 1254.5,-0.5 1092.5,-0.5"/>
<text text-anchor="start" x="1100.5" y="-18.5" font-family="Helvetica,sans-Serif" font-size="10.00">std::set&lt; DataObjectIdentifier</text>
<text text-anchor="middle" x="1173.5" y="-7.5" font-family="Helvetica,sans-Serif" font-size="10.00">Type &gt;</text>
</a>
</g>
</g>
<!-- Node10&#45;&gt;Node18 -->
<g id="edge21" class="edge">
<title>Node10&#45;&gt;Node18</title>
<path fill="none" stroke="#9a32cd" stroke-dasharray="5,2" d="M864.58,-42.89C881.83,-33.3 905.99,-21.62 929,-16.5 982.54,-4.58 1044.36,-4.49 1092.31,-7.3"/>
<polygon fill="#9a32cd" stroke="#9a32cd" points="862.69,-39.93 855.76,-47.94 866.18,-46.01 862.69,-39.93"/>
<text text-anchor="middle" x="1000" y="-19.5" font-family="Helvetica,sans-Serif" font-size="10.00"> keys</text>
</g>
<!-- Node20 -->
<g id="node20" class="node">
<title>Node20</title>
<g id="a_node20"><a xlink:title=" ">
<polygon fill="white" stroke="#bfbfbf" points="1089,-94.5 1089,-124.5 1258,-124.5 1258,-94.5 1089,-94.5"/>
<text text-anchor="start" x="1097" y="-112.5" font-family="Helvetica,sans-Serif" font-size="10.00">std::map&lt; DataObjectIdentifier</text>
<text text-anchor="middle" x="1173.5" y="-101.5" font-family="Helvetica,sans-Serif" font-size="10.00">Type, bool &gt;</text>
</a>
</g>
</g>
<!-- Node10&#45;&gt;Node20 -->
<g id="edge25" class="edge">
<title>Node10&#45;&gt;Node20</title>
<path fill="none" stroke="#9a32cd" stroke-dasharray="5,2" d="M882.19,-49.09C929.01,-41.28 1006.85,-33.21 1071,-50.5 1102.49,-58.99 1134.26,-79.91 1153.67,-94.41"/>
<polygon fill="#9a32cd" stroke="#9a32cd" points="881.36,-45.68 872.11,-50.85 882.57,-52.58 881.36,-45.68"/>
<text text-anchor="middle" x="1000" y="-53.5" font-family="Helvetica,sans-Serif" font-size="10.00"> keys</text>
</g>
<!-- Node25 -->
<g id="node25" class="node">
<title>Node25</title>
<g id="a_node25"><a xlink:title=" ">
<polygon fill="white" stroke="#bfbfbf" points="1089,-249.5 1089,-279.5 1258,-279.5 1258,-249.5 1089,-249.5"/>
<text text-anchor="start" x="1097" y="-267.5" font-family="Helvetica,sans-Serif" font-size="10.00">std::map&lt; DataObjectIdentifier</text>
<text text-anchor="middle" x="1173.5" y="-256.5" font-family="Helvetica,sans-Serif" font-size="10.00">Type, DataObjectPointer &gt;</text>
</a>
</g>
</g>
<!-- Node10&#45;&gt;Node25 -->
<g id="edge36" class="edge">
<title>Node10&#45;&gt;Node25</title>
<path fill="none" stroke="#9a32cd" stroke-dasharray="5,2" d="M857.75,-74.64C872.33,-89.36 893.58,-111.34 911,-131.5 919.49,-141.32 918.64,-146.67 929,-154.5 983.38,-195.61 1009.05,-184.04 1071,-212.5 1074.65,-214.18 1114.57,-234.68 1143.23,-249.43"/>
<polygon fill="#9a32cd" stroke="#9a32cd" points="859.93,-71.88 850.39,-67.27 854.98,-76.82 859.93,-71.88"/>
<text text-anchor="middle" x="1000" y="-215.5" font-family="Helvetica,sans-Serif" font-size="10.00"> keys</text>
</g>
<!-- Node11 -->
<g id="node11" class="node">
<title>Node11</title>
<g id="a_node11"><a xlink:title="STL class.">
<polygon fill="white" stroke="#bfbfbf" points="458.5,-42.5 458.5,-72.5 562.5,-72.5 562.5,-42.5 458.5,-42.5"/>
<text text-anchor="start" x="466.5" y="-60.5" font-family="Helvetica,sans-Serif" font-size="10.00">std::basic_string&lt;</text>
<text text-anchor="middle" x="510.5" y="-49.5" font-family="Helvetica,sans-Serif" font-size="10.00"> char &gt;</text>
</a>
</g>
</g>
<!-- Node11&#45;&gt;Node10 -->
<g id="edge10" class="edge">
<title>Node11&#45;&gt;Node10</title>
<path fill="none" stroke="midnightblue" d="M572.97,-57.5C642.54,-57.5 753.16,-57.5 807,-57.5"/>
<polygon fill="midnightblue" stroke="midnightblue" points="572.59,-54 562.59,-57.5 572.59,-61 572.59,-54"/>
</g>
<!-- Node12 -->
<g id="node12" class="node">
<title>Node12</title>
<g id="a_node12"><a xlink:href="classitk_1_1MetaDataDictionary.html" target="_top" xlink:title="Provides a mechanism for storing a collection of arbitrary data types.">
<polygon fill="white" stroke="black" points="772.5,-141 772.5,-160 906.5,-160 906.5,-141 772.5,-141"/>
<text text-anchor="middle" x="839.5" y="-148" font-family="Helvetica,sans-Serif" font-size="10.00">itk::MetaDataDictionary</text>
</a>
</g>
</g>
<!-- Node12&#45;&gt;Node5 -->
<g id="edge11" class="edge">
<title>Node12&#45;&gt;Node5</title>
<path fill="none" stroke="#9a32cd" stroke-dasharray="5,2" d="M899.18,-139.47C946.42,-132.78 1014.1,-128.16 1071,-143.5 1106.82,-153.15 1143.01,-178.9 1160.94,-192.98"/>
<polygon fill="#9a32cd" stroke="#9a32cd" points="898.5,-136.03 889.12,-140.97 899.53,-142.96 898.5,-136.03"/>
<text text-anchor="middle" x="1000" y="-146.5" font-family="Helvetica,sans-Serif" font-size="10.00"> m_MetaDataDictionary</text>
</g>
<!-- Node13 -->
<g id="node13" class="node">
<title>Node13</title>
<g id="a_node13"><a xlink:title=" ">
<polygon fill="white" stroke="#bfbfbf" points="436,-140.5 436,-170.5 585,-170.5 585,-140.5 436,-140.5"/>
<text text-anchor="start" x="444" y="-158.5" font-family="Helvetica,sans-Serif" font-size="10.00">std::shared_ptr&lt; MetaData</text>
<text text-anchor="middle" x="510.5" y="-147.5" font-family="Helvetica,sans-Serif" font-size="10.00">DictionaryMapType &gt;</text>
</a>
</g>
</g>
<!-- Node13&#45;&gt;Node12 -->
<g id="edge12" class="edge">
<title>Node13&#45;&gt;Node12</title>
<path fill="none" stroke="#9a32cd" stroke-dasharray="5,2" d="M595.38,-154.22C650.44,-153.38 721.43,-152.29 772.47,-151.51"/>
<polygon fill="#9a32cd" stroke="#9a32cd" points="595.24,-150.72 585.29,-154.37 595.35,-157.72 595.24,-150.72"/>
<text text-anchor="middle" x="676.5" y="-157.5" font-family="Helvetica,sans-Serif" font-size="10.00"> m_Dictionary</text>
</g>
<!-- Node14&#45;&gt;Node13 -->
<g id="edge13" class="edge">
<title>Node14&#45;&gt;Node13</title>
<path fill="none" stroke="#9a32cd" stroke-dasharray="5,2" d="M233.77,-187.54C283.19,-182.51 355.2,-174.96 418,-167.5 423.73,-166.82 429.65,-166.09 435.61,-165.35"/>
<polygon fill="#9a32cd" stroke="#9a32cd" points="233.17,-184.08 223.58,-188.57 233.88,-191.05 233.17,-184.08"/>
<text text-anchor="middle" x="334" y="-188.5" font-family="Helvetica,sans-Serif" font-size="10.00"> ptr</text>
</g>
<!-- Node14&#45;&gt;Node20 -->
<g id="edge26" class="edge">
<title>Node14&#45;&gt;Node20</title>
<path fill="none" stroke="orange" stroke-dasharray="5,2" d="M223.28,-179.71C226.33,-178.15 229.27,-176.42 232,-174.5 242.63,-167.05 238.67,-157.83 250,-151.5 322.62,-110.92 353.01,-136.36 436,-130.5 672.38,-113.82 952.32,-110.28 1089,-109.6"/>
<polygon fill="orange" stroke="orange" points="221.57,-176.64 213.87,-183.92 224.43,-183.03 221.57,-176.64"/>
<text text-anchor="start" x="607" y="-135.5" font-family="Helvetica,sans-Serif" font-size="10.00"> &lt; DataObjectIdentifierType,</text>
<text text-anchor="middle" x="676.5" y="-124.5" font-family="Helvetica,sans-Serif" font-size="10.00"> bool &gt;</text>
</g>
<!-- Node14&#45;&gt;Node25 -->
<g id="edge37" class="edge">
<title>Node14&#45;&gt;Node25</title>
<path fill="none" stroke="orange" stroke-dasharray="5,2" d="M234.13,-199.42C239.49,-199.83 244.84,-200.2 250,-200.5 305.48,-203.72 696.07,-199.08 750,-212.5 758.68,-214.66 759.49,-218.76 768,-221.5 836.99,-243.74 857,-239.19 929,-247.5 982.04,-253.62 1041.86,-257.84 1088.93,-260.54"/>
<polygon fill="orange" stroke="orange" points="234.09,-195.9 223.84,-198.58 233.52,-202.88 234.09,-195.9"/>
<text text-anchor="start" x="607" y="-226.5" font-family="Helvetica,sans-Serif" font-size="10.00"> &lt; DataObjectIdentifierType,</text>
<text text-anchor="middle" x="676.5" y="-215.5" font-family="Helvetica,sans-Serif" font-size="10.00"> DataObjectPointer &gt;</text>
</g>
<!-- Node15 -->
<g id="node15" class="node">
<title>Node15</title>
<g id="a_node15"><a xlink:title=" ">
<polygon fill="white" stroke="#bfbfbf" points="0,-167 0,-186 29,-186 29,-167 0,-167"/>
<text text-anchor="middle" x="14.5" y="-174" font-family="Helvetica,sans-Serif" font-size="10.00">K</text>
</a>
</g>
</g>
<!-- Node15&#45;&gt;Node14 -->
<g id="edge14" class="edge">
<title>Node15&#45;&gt;Node14</title>
<path fill="none" stroke="#9a32cd" stroke-dasharray="5,2" d="M39.19,-179.07C61.16,-181.46 94.54,-185.09 122.35,-188.11"/>
<polygon fill="#9a32cd" stroke="#9a32cd" points="39.43,-175.58 29.11,-177.98 38.68,-182.54 39.43,-175.58"/>
<text text-anchor="middle" x="71.5" y="-188.5" font-family="Helvetica,sans-Serif" font-size="10.00"> keys</text>
</g>
<!-- Node19 -->
<g id="node19" class="node">
<title>Node19</title>
<g id="a_node19"><a xlink:title="STL class.">
<polygon fill="white" stroke="#bfbfbf" points="293,-24 293,-43 375,-43 375,-24 293,-24"/>
<text text-anchor="middle" x="334" y="-31" font-family="Helvetica,sans-Serif" font-size="10.00">std::set&lt; K &gt;</text>
</a>
</g>
</g>
<!-- Node15&#45;&gt;Node19 -->
<g id="edge23" class="edge">
<title>Node15&#45;&gt;Node19</title>
<path fill="none" stroke="#9a32cd" stroke-dasharray="5,2" d="M25.78,-158.22C31.18,-150.01 38.46,-140.77 47,-134.5 123.4,-78.4 233.76,-51.26 292.55,-40.09"/>
<polygon fill="#9a32cd" stroke="#9a32cd" points="22.73,-156.49 20.51,-166.85 28.71,-160.14 22.73,-156.49"/>
<text text-anchor="middle" x="71.5" y="-137.5" font-family="Helvetica,sans-Serif" font-size="10.00"> keys</text>
</g>
<!-- Node16&#45;&gt;Node13 -->
<g id="edge16" class="edge">
<title>Node16&#45;&gt;Node13</title>
<path fill="none" stroke="orange" stroke-dasharray="5,2" d="M242.27,-155.5C298.5,-155.5 378.06,-155.5 435.74,-155.5"/>
<polygon fill="orange" stroke="orange" points="242.06,-152 232.06,-155.5 242.06,-159 242.06,-152"/>
<text text-anchor="middle" x="334" y="-158.5" font-family="Helvetica,sans-Serif" font-size="10.00"> &lt; MetaDataDictionaryMapType &gt;</text>
</g>
<!-- Node17&#45;&gt;Node4 -->
<g id="edge40" class="edge">
<title>Node17&#45;&gt;Node4</title>
<path fill="none" stroke="#9a32cd" stroke-dasharray="5,2" d="M887.6,-290.86C895.48,-293.21 903.51,-295.79 911,-298.5 919.23,-301.48 920.46,-304.59 929,-306.5 1028.34,-328.66 1333.27,-323.22 1455.27,-320.02"/>
<polygon fill="#9a32cd" stroke="#9a32cd" points="888.35,-287.43 877.77,-288.01 886.4,-294.15 888.35,-287.43"/>
<text text-anchor="middle" x="1173.5" y="-325.5" font-family="Helvetica,sans-Serif" font-size="10.00"> m_OutputInformationMTime</text>
</g>
<!-- Node17&#45;&gt;Node5 -->
<g id="edge18" class="edge">
<title>Node17&#45;&gt;Node5</title>
<path fill="none" stroke="#9a32cd" stroke-dasharray="5,2" d="M892.02,-266.71C961.11,-250.89 1081.78,-223.27 1139.68,-210.01"/>
<polygon fill="#9a32cd" stroke="#9a32cd" points="891.18,-263.31 882.21,-268.95 892.74,-270.13 891.18,-263.31"/>
<text text-anchor="middle" x="1000" y="-261.5" font-family="Helvetica,sans-Serif" font-size="10.00"> m_MTime</text>
</g>
<!-- Node18&#45;&gt;Node4 -->
<g id="edge20" class="edge">
<title>Node18&#45;&gt;Node4</title>
<path fill="none" stroke="#9a32cd" stroke-dasharray="5,2" d="M1264.65,-24C1317.77,-34 1381.53,-55.66 1418,-102.5 1469.57,-168.73 1385.6,-223.38 1436,-290.5 1442.33,-298.92 1451.58,-304.82 1461.32,-308.94"/>
<polygon fill="#9a32cd" stroke="#9a32cd" points="1264.97,-20.5 1254.52,-22.21 1263.75,-27.4 1264.97,-20.5"/>
<text text-anchor="middle" x="1347" y="-105.5" font-family="Helvetica,sans-Serif" font-size="10.00"> m_RequiredInputNames</text>
</g>
<!-- Node19&#45;&gt;Node18 -->
<g id="edge22" class="edge">
<title>Node19&#45;&gt;Node18</title>
<path fill="none" stroke="orange" stroke-dasharray="5,2" d="M385.36,-29.98C487.7,-23.03 727.4,-7.76 929,-2.5 992.09,-0.85 1008.02,1.52 1071,-2.5 1077.91,-2.94 1085.08,-3.55 1092.25,-4.26"/>
<polygon fill="orange" stroke="orange" points="385.04,-26.5 375.3,-30.67 385.52,-33.48 385.04,-26.5"/>
<text text-anchor="middle" x="676.5" y="-19.5" font-family="Helvetica,sans-Serif" font-size="10.00"> &lt; DataObjectIdentifierType &gt;</text>
</g>
<!-- Node20&#45;&gt;Node4 -->
<g id="edge24" class="edge">
<title>Node20&#45;&gt;Node4</title>
<path fill="none" stroke="#9a32cd" stroke-dasharray="5,2" d="M1268.28,-114.65C1319.81,-122.54 1380.67,-141.04 1418,-183.5 1449.84,-219.72 1405.69,-252.99 1436,-290.5 1442.79,-298.9 1452.46,-304.79 1462.47,-308.92"/>
<polygon fill="#9a32cd" stroke="#9a32cd" points="1268.5,-111.15 1258.11,-113.21 1267.52,-118.08 1268.5,-111.15"/>
<text text-anchor="start" x="1276" y="-197.5" font-family="Helvetica,sans-Serif" font-size="10.00"> m_CachedInputReleaseData</text>
<text text-anchor="middle" x="1347" y="-186.5" font-family="Helvetica,sans-Serif" font-size="10.00">Flags</text>
</g>
<!-- Node21&#45;&gt;Node4 -->
<g id="edge27" class="edge">
<title>Node21&#45;&gt;Node4</title>
<path fill="none" stroke="#9a32cd" stroke-dasharray="5,2" d="M753.89,-401.64C865.03,-398.5 1077.71,-390.81 1258,-374.5 1329.43,-368.04 1348.96,-372.93 1418,-353.5 1426.43,-351.13 1427.91,-348.84 1436,-345.5 1450.66,-339.44 1467.21,-333.08 1480.59,-328.05"/>
<polygon fill="#9a32cd" stroke="#9a32cd" points="753.68,-398.15 743.79,-401.93 753.88,-405.15 753.68,-398.15"/>
<text text-anchor="middle" x="1000" y="-397.5" font-family="Helvetica,sans-Serif" font-size="10.00"> m_Progress</text>
</g>
<!-- Node22 -->
<g id="node22" class="node">
<title>Node22</title>
<g id="a_node22"><a xlink:title=" ">
<polygon fill="white" stroke="#bfbfbf" points="1089,-433.5 1089,-463.5 1258,-463.5 1258,-433.5 1089,-433.5"/>
<text text-anchor="start" x="1097" y="-451.5" font-family="Helvetica,sans-Serif" font-size="10.00">std::vector&lt; DataObjectPointer</text>
<text text-anchor="middle" x="1173.5" y="-440.5" font-family="Helvetica,sans-Serif" font-size="10.00">Map::iterator &gt;</text>
</a>
</g>
</g>
<!-- Node22&#45;&gt;Node4 -->
<g id="edge29" class="edge">
<title>Node22&#45;&gt;Node4</title>
<path fill="none" stroke="#9a32cd" stroke-dasharray="5,2" d="M1268.28,-447.68C1327.2,-445.18 1396.05,-437.98 1418,-418.5 1442.99,-396.32 1413.88,-370.55 1436,-345.5 1442.94,-337.64 1452.43,-332.06 1462.19,-328.09"/>
<polygon fill="#9a32cd" stroke="#9a32cd" points="1268.03,-444.18 1258.17,-448.06 1268.3,-451.18 1268.03,-444.18"/>
<text text-anchor="middle" x="1347" y="-460.5" font-family="Helvetica,sans-Serif" font-size="10.00"> m_IndexedOutputs</text>
<text text-anchor="middle" x="1347" y="-449.5" font-family="Helvetica,sans-Serif" font-size="10.00">m_IndexedInputs</text>
</g>
<!-- Node23 -->
<g id="node23" class="node">
<title>Node23</title>
<g id="a_node23"><a xlink:title="STL iterator class.">
<polygon fill="white" stroke="#bfbfbf" points="768,-433 768,-452 911,-452 911,-433 768,-433"/>
<text text-anchor="middle" x="839.5" y="-440" font-family="Helvetica,sans-Serif" font-size="10.00">std::map&lt; K, T &gt;::iterator</text>
</a>
</g>
</g>
<!-- Node23&#45;&gt;Node22 -->
<g id="edge30" class="edge">
<title>Node23&#45;&gt;Node22</title>
<path fill="none" stroke="#9a32cd" stroke-dasharray="5,2" d="M921.25,-441.96C965.48,-441.89 1021.27,-442.17 1071,-443.5 1076.82,-443.66 1082.83,-443.85 1088.87,-444.08"/>
<polygon fill="#9a32cd" stroke="#9a32cd" points="921.12,-438.46 911.13,-441.99 921.14,-445.46 921.12,-438.46"/>
<text text-anchor="middle" x="1000" y="-446.5" font-family="Helvetica,sans-Serif" font-size="10.00"> elements</text>
</g>
<!-- Node24&#45;&gt;Node22 -->
<g id="edge31" class="edge">
<title>Node24&#45;&gt;Node22</title>
<path fill="none" stroke="orange" stroke-dasharray="5,2" d="M898.24,-474.93C950.87,-469.86 1029.25,-462.31 1088.76,-456.57"/>
<polygon fill="orange" stroke="orange" points="897.69,-471.47 888.07,-475.92 898.36,-478.44 897.69,-471.47"/>
<text text-anchor="start" x="937.5" y="-485.5" font-family="Helvetica,sans-Serif" font-size="10.00"> &lt; DataObjectPointerMap</text>
<text text-anchor="middle" x="1000" y="-474.5" font-family="Helvetica,sans-Serif" font-size="10.00">::iterator &gt;</text>
</g>
<!-- Node31 -->
<g id="node31" class="node">
<title>Node31</title>
<g id="a_node31"><a xlink:title=" ">
<polygon fill="white" stroke="#bfbfbf" points="1277,-491 1277,-510 1417,-510 1417,-491 1277,-491"/>
<text text-anchor="middle" x="1347" y="-498" font-family="Helvetica,sans-Serif" font-size="10.00">std::vector&lt; IndexType &gt;</text>
</a>
</g>
</g>
<!-- Node24&#45;&gt;Node31 -->
<g id="edge44" class="edge">
<title>Node24&#45;&gt;Node31</title>
<path fill="none" stroke="orange" stroke-dasharray="5,2" d="M891.69,-491.98C903.85,-494.25 916.84,-496.3 929,-497.5 1050.94,-509.55 1193.91,-506.98 1276.81,-503.85"/>
<polygon fill="orange" stroke="orange" points="892.18,-488.51 881.69,-490.03 890.84,-495.38 892.18,-488.51"/>
<text text-anchor="middle" x="1000" y="-508.5" font-family="Helvetica,sans-Serif" font-size="10.00"> &lt; IndexType &gt;</text>
</g>
<!-- Node25&#45;&gt;Node4 -->
<g id="edge33" class="edge">
<title>Node25&#45;&gt;Node4</title>
<path fill="none" stroke="#9a32cd" stroke-dasharray="5,2" d="M1268.38,-263.94C1314.11,-265.56 1369.55,-270.34 1418,-282.5 1426.49,-284.63 1427.93,-287.11 1436,-290.5 1451.05,-296.83 1468.06,-303.6 1481.6,-308.89"/>
<polygon fill="#9a32cd" stroke="#9a32cd" points="1268.29,-260.44 1258.18,-263.63 1268.07,-267.43 1268.29,-260.44"/>
<text text-anchor="middle" x="1347" y="-296.5" font-family="Helvetica,sans-Serif" font-size="10.00"> m_Outputs</text>
<text text-anchor="middle" x="1347" y="-285.5" font-family="Helvetica,sans-Serif" font-size="10.00">m_Inputs</text>
</g>
<!-- Node26 -->
<g id="node26" class="node">
<title>Node26</title>
<g id="a_node26"><a xlink:href="classitk_1_1SmartPointer.html" target="_top" xlink:title=" ">
<polygon fill="white" stroke="black" points="786,-307.5 786,-337.5 893,-337.5 893,-307.5 786,-307.5"/>
<text text-anchor="start" x="794" y="-325.5" font-family="Helvetica,sans-Serif" font-size="10.00">itk::SmartPointer&lt;</text>
<text text-anchor="middle" x="839.5" y="-314.5" font-family="Helvetica,sans-Serif" font-size="10.00"> Self &gt;</text>
</a>
</g>
</g>
<!-- Node26&#45;&gt;Node25 -->
<g id="edge34" class="edge">
<title>Node26&#45;&gt;Node25</title>
<path fill="none" stroke="#9a32cd" stroke-dasharray="5,2" d="M902.96,-311.59C955.48,-302.41 1031.02,-289.22 1088.78,-279.13"/>
<polygon fill="#9a32cd" stroke="#9a32cd" points="902.35,-308.14 893.11,-313.31 903.56,-315.04 902.35,-308.14"/>
<text text-anchor="middle" x="1000" y="-309.5" font-family="Helvetica,sans-Serif" font-size="10.00"> elements</text>
</g>
<!-- Node27 -->
<g id="node27" class="node">
<title>Node27</title>
<g id="a_node27"><a xlink:href="classitk_1_1SmartPointer.html" target="_top" xlink:title="Implements transparent reference counting.">
<polygon fill="white" stroke="black" points="457,-332.5 457,-362.5 564,-362.5 564,-332.5 457,-332.5"/>
<text text-anchor="start" x="465" y="-350.5" font-family="Helvetica,sans-Serif" font-size="10.00">itk::SmartPointer&lt;</text>
<text text-anchor="middle" x="510.5" y="-339.5" font-family="Helvetica,sans-Serif" font-size="10.00"> TObjectType &gt;</text>
</a>
</g>
</g>
<!-- Node27&#45;&gt;Node26 -->
<g id="edge35" class="edge">
<title>Node27&#45;&gt;Node26</title>
<path fill="none" stroke="orange" stroke-dasharray="5,2" d="M574.08,-337.03C583.74,-335.67 593.62,-334.43 603,-333.5 665.52,-327.27 737.73,-324.56 785.54,-323.38"/>
<polygon fill="orange" stroke="orange" points="573.51,-333.58 564.12,-338.48 574.52,-340.5 573.51,-333.58"/>
<text text-anchor="middle" x="676.5" y="-336.5" font-family="Helvetica,sans-Serif" font-size="10.00"> &lt; Self &gt;</text>
</g>
<!-- Node28 -->
<g id="node28" class="node">
<title>Node28</title>
<g id="a_node28"><a xlink:href="classitk_1_1SmartPointer.html" target="_top" xlink:title=" ">
<polygon fill="white" stroke="black" points="929,-350.5 929,-380.5 1071,-380.5 1071,-350.5 929,-350.5"/>
<text text-anchor="start" x="937" y="-368.5" font-family="Helvetica,sans-Serif" font-size="10.00">itk::SmartPointer&lt;</text>
<text text-anchor="middle" x="1000" y="-357.5" font-family="Helvetica,sans-Serif" font-size="10.00"> itk::MultiThreaderBase &gt;</text>
</a>
</g>
</g>
<!-- Node27&#45;&gt;Node28 -->
<g id="edge39" class="edge">
<title>Node27&#45;&gt;Node28</title>
<path fill="none" stroke="orange" stroke-dasharray="5,2" d="M574.32,-349.82C665.49,-353.19 833.92,-359.4 928.98,-362.91"/>
<polygon fill="orange" stroke="orange" points="574.26,-346.31 564.13,-349.44 574,-353.31 574.26,-346.31"/>
<text text-anchor="middle" x="676.5" y="-358.5" font-family="Helvetica,sans-Serif" font-size="10.00"> &lt; itk::MultiThreaderBase &gt;</text>
</g>
<!-- Node28&#45;&gt;Node4 -->
<g id="edge38" class="edge">
<title>Node28&#45;&gt;Node4</title>
<path fill="none" stroke="#9a32cd" stroke-dasharray="5,2" d="M1081.25,-361.01C1165.35,-355.87 1301.23,-346.34 1418,-332.5 1430.05,-331.07 1442.97,-329.22 1455.12,-327.32"/>
<polygon fill="#9a32cd" stroke="#9a32cd" points="1081.03,-357.52 1071.26,-361.62 1081.45,-364.51 1081.03,-357.52"/>
<text text-anchor="middle" x="1173.5" y="-362.5" font-family="Helvetica,sans-Serif" font-size="10.00"> m_MultiThreader</text>
</g>
<!-- Node29 -->
<g id="node29" class="node">
<title>Node29</title>
<g id="a_node29"><a xlink:href="structitk_1_1ImageSourceCommon.html" target="_top" xlink:title="Secondary base class of ImageSource common between templates.">
<polygon fill="white" stroke="black" points="1436,-355 1436,-374 1579,-374 1579,-355 1436,-355"/>
<text text-anchor="middle" x="1507.5" y="-362" font-family="Helvetica,sans-Serif" font-size="10.00">itk::ImageSourceCommon</text>
</a>
</g>
</g>
<!-- Node29&#45;&gt;Node3 -->
<g id="edge41" class="edge">
<title>Node29&#45;&gt;Node3</title>
<path fill="none" stroke="#8b1a1a" d="M1589.31,-364.5C1602.58,-364.5 1616.26,-364.5 1629.34,-364.5"/>
<polygon fill="#8b1a1a" stroke="#8b1a1a" points="1589.27,-361 1579.27,-364.5 1589.27,-368 1589.27,-361"/>
</g>
<!-- Node30 -->
<g id="node30" class="node">
<title>Node30</title>
<g id="a_node30"><a xlink:href="classitk_1_1ImageToImageFilterCommon.html" target="_top" xlink:title="Secondary base class of ImageToImageFilter common between templates.">
<polygon fill="white" stroke="black" points="1616,-399 1616,-418 1792,-418 1792,-399 1616,-399"/>
<text text-anchor="middle" x="1704" y="-406" font-family="Helvetica,sans-Serif" font-size="10.00">itk::ImageToImageFilterCommon</text>
</a>
</g>
</g>
<!-- Node30&#45;&gt;Node2 -->
<g id="edge42" class="edge">
<title>Node30&#45;&gt;Node2</title>
<path fill="none" stroke="#8b1a1a" d="M1802.35,-403.59C1850.5,-401.16 1908.16,-398.25 1954.85,-395.9"/>
<polygon fill="#8b1a1a" stroke="#8b1a1a" points="1802.04,-400.1 1792.22,-404.1 1802.39,-407.09 1802.04,-400.1"/>
</g>
<!-- Node31&#45;&gt;Node1 -->
<g id="edge43" class="edge">
<title>Node31&#45;&gt;Node1</title>
<path fill="none" stroke="#9a32cd" stroke-dasharray="5,2" d="M1398.65,-488.83C1448.74,-478.31 1527.74,-464.5 1597,-464.5 1597,-464.5 1597,-464.5 2044,-464.5 2121.23,-464.5 2206.71,-433.62 2257.05,-412.03"/>
<polygon fill="#9a32cd" stroke="#9a32cd" points="1397.76,-485.44 1388.72,-490.95 1399.23,-492.28 1397.76,-485.44"/>
<text text-anchor="middle" x="1704" y="-467.5" font-family="Helvetica,sans-Serif" font-size="10.00"> m_Seeds</text>
</g>
<!-- Node32 -->
<g id="node32" class="node">
<title>Node32</title>
<g id="a_node32"><a xlink:href="classitk_1_1NumericTraits.html" target="_top" xlink:title=" ">
<polygon fill="white" stroke="black" points="1973,-300.5 1973,-330.5 2113,-330.5 2113,-300.5 1973,-300.5"/>
<text text-anchor="start" x="1981" y="-318.5" font-family="Helvetica,sans-Serif" font-size="10.00">itk::NumericTraits</text>
<text text-anchor="middle" x="2043" y="-307.5" font-family="Helvetica,sans-Serif" font-size="10.00">&lt; InputImagePixelType &gt;</text>
</a>
</g>
</g>
<!-- Node32&#45;&gt;Node1 -->
<g id="edge45" class="edge">
<title>Node32&#45;&gt;Node1</title>
<path fill="none" stroke="#9a32cd" stroke-dasharray="5,2" d="M2104.68,-333.44C2142.68,-344.68 2191.77,-359.2 2231.36,-370.91"/>
<polygon fill="#9a32cd" stroke="#9a32cd" points="2105.36,-329.99 2094.77,-330.52 2103.37,-336.71 2105.36,-329.99"/>
<text text-anchor="middle" x="2179.5" y="-376.5" font-family="Helvetica,sans-Serif" font-size="10.00"> m_Variance</text>
<text text-anchor="middle" x="2179.5" y="-365.5" font-family="Helvetica,sans-Serif" font-size="10.00">m_Mean</text>
</g>
<!-- Node33 -->
<g id="node33" class="node">
<title>Node33</title>
<g id="a_node33"><a xlink:title=" ">
<polygon fill="white" stroke="#bfbfbf" points="1634,-300.5 1634,-330.5 1774,-330.5 1774,-300.5 1634,-300.5"/>
<text text-anchor="start" x="1642" y="-318.5" font-family="Helvetica,sans-Serif" font-size="10.00">std::numeric_limits</text>
<text text-anchor="middle" x="1704" y="-307.5" font-family="Helvetica,sans-Serif" font-size="10.00">&lt; InputImagePixelType &gt;</text>
</a>
</g>
</g>
<!-- Node33&#45;&gt;Node32 -->
<g id="edge46" class="edge">
<title>Node33&#45;&gt;Node32</title>
<path fill="none" stroke="midnightblue" d="M1784.1,-315.5C1841.35,-315.5 1917.97,-315.5 1972.79,-315.5"/>
<polygon fill="midnightblue" stroke="midnightblue" points="1784.01,-312 1774.01,-315.5 1784.01,-319 1784.01,-312"/>
</g>
<!-- Node34 -->
<g id="node34" class="node">
<title>Node34</title>
<g id="a_node34"><a xlink:href="classitk_1_1NumericTraits.html" target="_top" xlink:title="Define additional traits for native types such as int or float.">
<polygon fill="white" stroke="black" points="1638.5,-262 1638.5,-281 1769.5,-281 1769.5,-262 1638.5,-262"/>
<text text-anchor="middle" x="1704" y="-269" font-family="Helvetica,sans-Serif" font-size="10.00">itk::NumericTraits&lt; T &gt;</text>
</a>
</g>
</g>
<!-- Node34&#45;&gt;Node32 -->
<g id="edge47" class="edge">
<title>Node34&#45;&gt;Node32</title>
<path fill="none" stroke="orange" stroke-dasharray="5,2" d="M1779.62,-280.49C1825.12,-286.06 1884.45,-293.46 1937,-300.5 1948.59,-302.05 1960.89,-303.76 1972.84,-305.44"/>
<polygon fill="orange" stroke="orange" points="1779.89,-277 1769.54,-279.26 1779.05,-283.95 1779.89,-277"/>
<text text-anchor="middle" x="1873.5" y="-303.5" font-family="Helvetica,sans-Serif" font-size="10.00"> &lt; InputImagePixelType &gt;</text>
</g>
<!-- Node35 -->
<g id="node35" class="node">
<title>Node35</title>
<g id="a_node35"><a xlink:title=" ">
<polygon fill="white" stroke="#bfbfbf" points="1438,-262 1438,-281 1577,-281 1577,-262 1438,-262"/>
<text text-anchor="middle" x="1507.5" y="-269" font-family="Helvetica,sans-Serif" font-size="10.00">std::numeric_limits&lt; T &gt;</text>
</a>
</g>
</g>
<!-- Node35&#45;&gt;Node34 -->
<g id="edge48" class="edge">
<title>Node35&#45;&gt;Node34</title>
<path fill="none" stroke="midnightblue" d="M1587.47,-271.5C1604.37,-271.5 1622.02,-271.5 1638.3,-271.5"/>
<polygon fill="midnightblue" stroke="midnightblue" points="1587.07,-268 1577.07,-271.5 1587.07,-275 1587.07,-268"/>
</g>
</g>
</svg>
