<?xml version="1.0" encoding="UTF-8" standalone="no"?>
<!DOCTYPE svg PUBLIC "-//W3C//DTD SVG 1.1//EN"
 "http://www.w3.org/Graphics/SVG/1.1/DTD/svg11.dtd">
<!-- Generated by graphviz version 2.43.0 (0)
 -->
<!-- Title: itk::BSplineInterpolationWeightFunction&lt; TCoordRep, VSpaceDimension, VSplineOrder &gt; Pages: 1 -->
<svg width="953pt" height="71pt"
 viewBox="0.00 0.00 953.00 71.00" xmlns="http://www.w3.org/2000/svg" xmlns:xlink="http://www.w3.org/1999/xlink">
<g id="graph0" class="graph" transform="scale(1 1) rotate(0) translate(4 67)">
<title>itk::BSplineInterpolationWeightFunction&lt; TCoordRep, VSpaceDimension, VSplineOrder &gt;</title>
<polygon fill="white" stroke="transparent" points="-4,4 -4,-67 949,-67 949,4 -4,4"/>
<!-- Node1 -->
<g id="node1" class="node">
<title>Node1</title>
<g id="a_node1"><a xlink:title="Returns the weights over the support region used for B&#45;spline interpolation/reconstruction.">
<polygon fill="#bfbfbf" stroke="black" points="756,-16 756,-57 945,-57 945,-16 756,-16"/>
<text text-anchor="start" x="764" y="-45" font-family="Helvetica,sans-Serif" font-size="10.00">itk::BSplineInterpolation</text>
<text text-anchor="start" x="764" y="-34" font-family="Helvetica,sans-Serif" font-size="10.00">WeightFunction&lt; TCoordRep,</text>
<text text-anchor="middle" x="850.5" y="-23" font-family="Helvetica,sans-Serif" font-size="10.00"> VSpaceDimension, VSplineOrder &gt;</text>
</a>
</g>
</g>
<!-- Node2 -->
<g id="node2" class="node">
<title>Node2</title>
<g id="a_node2"><a xlink:href="classitk_1_1FunctionBase.html" target="_top" xlink:title=" ">
<polygon fill="white" stroke="black" points="534,-10.5 534,-62.5 719,-62.5 719,-10.5 534,-10.5"/>
<text text-anchor="start" x="542" y="-50.5" font-family="Helvetica,sans-Serif" font-size="10.00">itk::FunctionBase&lt;</text>
<text text-anchor="start" x="542" y="-39.5" font-family="Helvetica,sans-Serif" font-size="10.00"> ContinuousIndex&lt; float,</text>
<text text-anchor="start" x="542" y="-28.5" font-family="Helvetica,sans-Serif" font-size="10.00"> 2 &gt;, FixedArray&lt; double,</text>
<text text-anchor="middle" x="626.5" y="-17.5" font-family="Helvetica,sans-Serif" font-size="10.00"> Math::UnsignedPower(3+1, 2)&gt; &gt;</text>
</a>
</g>
</g>
<!-- Node2&#45;&gt;Node1 -->
<g id="edge1" class="edge">
<title>Node2&#45;&gt;Node1</title>
<path fill="none" stroke="midnightblue" d="M729.13,-36.5C738.08,-36.5 747.11,-36.5 755.98,-36.5"/>
<polygon fill="midnightblue" stroke="midnightblue" points="729.08,-33 719.08,-36.5 729.08,-40 729.08,-33"/>
</g>
<!-- Node3 -->
<g id="node3" class="node">
<title>Node3</title>
<g id="a_node3"><a xlink:href="classitk_1_1Object.html" target="_top" xlink:title="Base class for most ITK classes.">
<polygon fill="white" stroke="black" points="128,-31 128,-50 195,-50 195,-31 128,-31"/>
<text text-anchor="middle" x="161.5" y="-38" font-family="Helvetica,sans-Serif" font-size="10.00">itk::Object</text>
</a>
</g>
</g>
<!-- Node3&#45;&gt;Node2 -->
<g id="edge2" class="edge">
<title>Node3&#45;&gt;Node2</title>
<path fill="none" stroke="midnightblue" d="M205.3,-44.89C271.84,-51.04 404.09,-60.63 516,-52.5 521.84,-52.08 527.85,-51.52 533.9,-50.88"/>
<polygon fill="midnightblue" stroke="midnightblue" points="205.48,-41.39 195.2,-43.93 204.82,-48.36 205.48,-41.39"/>
</g>
<!-- Node5 -->
<g id="node5" class="node">
<title>Node5</title>
<g id="a_node5"><a xlink:href="classitk_1_1FunctionBase.html" target="_top" xlink:title="Base class for all ITK function objects.">
<polygon fill="white" stroke="black" points="232,-0.5 232,-30.5 341,-30.5 341,-0.5 232,-0.5"/>
<text text-anchor="start" x="240" y="-18.5" font-family="Helvetica,sans-Serif" font-size="10.00">itk::FunctionBase&lt;</text>
<text text-anchor="middle" x="286.5" y="-7.5" font-family="Helvetica,sans-Serif" font-size="10.00"> TInput, TOutput &gt;</text>
</a>
</g>
</g>
<!-- Node3&#45;&gt;Node5 -->
<g id="edge5" class="edge">
<title>Node3&#45;&gt;Node5</title>
<path fill="none" stroke="midnightblue" d="M204.98,-31.87C213.61,-30.11 222.8,-28.24 231.77,-26.42"/>
<polygon fill="midnightblue" stroke="midnightblue" points="204.24,-28.44 195.14,-33.87 205.64,-35.3 204.24,-28.44"/>
</g>
<!-- Node4 -->
<g id="node4" class="node">
<title>Node4</title>
<g id="a_node4"><a xlink:href="classitk_1_1LightObject.html" target="_top" xlink:title="Light weight base class for most itk classes.">
<polygon fill="white" stroke="black" points="0,-31 0,-50 91,-50 91,-31 0,-31"/>
<text text-anchor="middle" x="45.5" y="-38" font-family="Helvetica,sans-Serif" font-size="10.00">itk::LightObject</text>
</a>
</g>
</g>
<!-- Node4&#45;&gt;Node3 -->
<g id="edge3" class="edge">
<title>Node4&#45;&gt;Node3</title>
<path fill="none" stroke="midnightblue" d="M101.39,-40.5C110.45,-40.5 119.59,-40.5 127.88,-40.5"/>
<polygon fill="midnightblue" stroke="midnightblue" points="101.23,-37 91.23,-40.5 101.23,-44 101.23,-37"/>
</g>
<!-- Node5&#45;&gt;Node2 -->
<g id="edge4" class="edge">
<title>Node5&#45;&gt;Node2</title>
<path fill="none" stroke="orange" stroke-dasharray="5,2" d="M351.36,-8.93C353.94,-8.77 356.49,-8.62 359,-8.5 428.69,-5.1 446.77,0.21 516,-8.5 521.84,-9.23 527.82,-10.18 533.81,-11.28"/>
<polygon fill="orange" stroke="orange" points="351.06,-5.45 341.34,-9.66 351.56,-12.43 351.06,-5.45"/>
<text text-anchor="start" x="359" y="-44.5" font-family="Helvetica,sans-Serif" font-size="10.00"> &lt; ContinuousIndex&lt;</text>
<text text-anchor="start" x="359" y="-33.5" font-family="Helvetica,sans-Serif" font-size="10.00"> float, 2 &gt;, FixedArray</text>
<text text-anchor="start" x="359" y="-22.5" font-family="Helvetica,sans-Serif" font-size="10.00">&lt; double, Math::UnsignedPower</text>
<text text-anchor="middle" x="437.5" y="-11.5" font-family="Helvetica,sans-Serif" font-size="10.00">(3+1, 2)&gt; &gt;</text>
</g>
</g>
</svg>
