<?xml version="1.0" encoding="UTF-8" standalone="no"?>
<!DOCTYPE svg PUBLIC "-//W3C//DTD SVG 1.1//EN"
 "http://www.w3.org/Graphics/SVG/1.1/DTD/svg11.dtd">
<!-- Generated by graphviz version 2.43.0 (0)
 -->
<!-- Title: itk::ImportImageFilter&lt; TPixel, VImageDimension &gt; Pages: 1 -->
<svg width="2248pt" height="550pt"
 viewBox="0.00 0.00 2248.00 549.50" xmlns="http://www.w3.org/2000/svg" xmlns:xlink="http://www.w3.org/1999/xlink">
<g id="graph0" class="graph" transform="scale(1 1) rotate(0) translate(4 545.5)">
<title>itk::ImportImageFilter&lt; TPixel, VImageDimension &gt;</title>
<polygon fill="white" stroke="transparent" points="-4,4 -4,-545.5 2244,-545.5 2244,4 -4,4"/>
<!-- Node1 -->
<g id="node1" class="node">
<title>Node1</title>
<g id="a_node1"><a xlink:title="Import data from a standard C array into an itk::Image.">
<polygon fill="#bfbfbf" stroke="black" points="2076,-73.5 2076,-103.5 2240,-103.5 2240,-73.5 2076,-73.5"/>
<text text-anchor="start" x="2084" y="-91.5" font-family="Helvetica,sans-Serif" font-size="10.00">itk::ImportImageFilter</text>
<text text-anchor="middle" x="2158" y="-80.5" font-family="Helvetica,sans-Serif" font-size="10.00">&lt; TPixel, VImageDimension &gt;</text>
</a>
</g>
</g>
<!-- Node2 -->
<g id="node2" class="node">
<title>Node2</title>
<g id="a_node2"><a xlink:href="classitk_1_1ImageSource.html" target="_top" xlink:title=" ">
<polygon fill="white" stroke="black" points="1830.5,-184.5 1830.5,-214.5 1971.5,-214.5 1971.5,-184.5 1830.5,-184.5"/>
<text text-anchor="start" x="1838.5" y="-202.5" font-family="Helvetica,sans-Serif" font-size="10.00">itk::ImageSource&lt; Image</text>
<text text-anchor="middle" x="1901" y="-191.5" font-family="Helvetica,sans-Serif" font-size="10.00">&lt; TPixel, 2 &gt; &gt;</text>
</a>
</g>
</g>
<!-- Node2&#45;&gt;Node1 -->
<g id="edge1" class="edge">
<title>Node2&#45;&gt;Node1</title>
<path fill="none" stroke="midnightblue" d="M1945.93,-180.38C1995.95,-158.6 2076.66,-123.47 2122.42,-103.55"/>
<polygon fill="midnightblue" stroke="midnightblue" points="1944.43,-177.21 1936.66,-184.41 1947.22,-183.63 1944.43,-177.21"/>
</g>
<!-- Node3 -->
<g id="node3" class="node">
<title>Node3</title>
<g id="a_node3"><a xlink:href="classitk_1_1ProcessObject.html" target="_top" xlink:title="The base class for all process objects (source, filters, mappers) in the Insight data processing pipe...">
<polygon fill="white" stroke="black" points="1603.5,-283 1603.5,-302 1707.5,-302 1707.5,-283 1603.5,-283"/>
<text text-anchor="middle" x="1655.5" y="-290" font-family="Helvetica,sans-Serif" font-size="10.00">itk::ProcessObject</text>
</a>
</g>
</g>
<!-- Node3&#45;&gt;Node2 -->
<g id="edge2" class="edge">
<title>Node3&#45;&gt;Node2</title>
<path fill="none" stroke="midnightblue" d="M1691.21,-279.24C1735.97,-262.15 1813.65,-232.48 1860.59,-214.55"/>
<polygon fill="midnightblue" stroke="midnightblue" points="1689.73,-276.06 1681.64,-282.9 1692.23,-282.6 1689.73,-276.06"/>
</g>
<!-- Node4 -->
<g id="node4" class="node">
<title>Node4</title>
<g id="a_node4"><a xlink:href="classitk_1_1Object.html" target="_top" xlink:title="Base class for most ITK classes.">
<polygon fill="white" stroke="black" points="1272,-327 1272,-346 1339,-346 1339,-327 1272,-327"/>
<text text-anchor="middle" x="1305.5" y="-334" font-family="Helvetica,sans-Serif" font-size="10.00">itk::Object</text>
</a>
</g>
</g>
<!-- Node4&#45;&gt;Node3 -->
<g id="edge3" class="edge">
<title>Node4&#45;&gt;Node3</title>
<path fill="none" stroke="midnightblue" d="M1349.19,-335.54C1398.01,-333.93 1480.2,-329.68 1550,-318.5 1574.55,-314.57 1601.8,-307.7 1622.31,-302.02"/>
<polygon fill="midnightblue" stroke="midnightblue" points="1348.89,-332.05 1339,-335.85 1349.1,-339.04 1348.89,-332.05"/>
</g>
<!-- Node5 -->
<g id="node5" class="node">
<title>Node5</title>
<g id="a_node5"><a xlink:href="classitk_1_1LightObject.html" target="_top" xlink:title="Light weight base class for most itk classes.">
<polygon fill="white" stroke="black" points="935,-275 935,-294 1026,-294 1026,-275 935,-275"/>
<text text-anchor="middle" x="980.5" y="-282" font-family="Helvetica,sans-Serif" font-size="10.00">itk::LightObject</text>
</a>
</g>
</g>
<!-- Node5&#45;&gt;Node4 -->
<g id="edge4" class="edge">
<title>Node5&#45;&gt;Node4</title>
<path fill="none" stroke="midnightblue" d="M1036.09,-293.29C1103.55,-304.15 1216.2,-322.28 1271.64,-331.21"/>
<polygon fill="midnightblue" stroke="midnightblue" points="1036.5,-289.81 1026.07,-291.68 1035.39,-296.72 1036.5,-289.81"/>
</g>
<!-- Node6 -->
<g id="node6" class="node">
<title>Node6</title>
<g id="a_node6"><a xlink:title=" ">
<polygon fill="white" stroke="black" points="655.5,-275 655.5,-294 762.5,-294 762.5,-275 655.5,-275"/>
<text text-anchor="middle" x="709" y="-282" font-family="Helvetica,sans-Serif" font-size="10.00">std::atomic&lt; int &gt;</text>
</a>
</g>
</g>
<!-- Node6&#45;&gt;Node5 -->
<g id="edge5" class="edge">
<title>Node6&#45;&gt;Node5</title>
<path fill="none" stroke="#9a32cd" stroke-dasharray="5,2" d="M772.89,-284.5C822.48,-284.5 890.42,-284.5 934.63,-284.5"/>
<polygon fill="#9a32cd" stroke="#9a32cd" points="772.6,-281 762.6,-284.5 772.6,-288 772.6,-281"/>
<text text-anchor="middle" x="842.5" y="-287.5" font-family="Helvetica,sans-Serif" font-size="10.00"> m_ReferenceCount</text>
</g>
<!-- Node7 -->
<g id="node7" class="node">
<title>Node7</title>
<g id="a_node7"><a xlink:href="classitk_1_1TimeStamp.html" target="_top" xlink:title="Generate a unique, increasing time value.">
<polygon fill="white" stroke="black" points="934.5,-412 934.5,-431 1026.5,-431 1026.5,-412 934.5,-412"/>
<text text-anchor="middle" x="980.5" y="-419" font-family="Helvetica,sans-Serif" font-size="10.00">itk::TimeStamp</text>
</a>
</g>
</g>
<!-- Node7&#45;&gt;Node3 -->
<g id="edge18" class="edge">
<title>Node7&#45;&gt;Node3</title>
<path fill="none" stroke="#9a32cd" stroke-dasharray="5,2" d="M1036.78,-423.24C1081.72,-423.94 1146.67,-423.32 1203,-416.5 1359.83,-397.52 1400.07,-389.27 1550,-339.5 1581.15,-329.16 1615.56,-312.62 1636.08,-302.17"/>
<polygon fill="#9a32cd" stroke="#9a32cd" points="1036.71,-419.74 1026.65,-423.06 1036.59,-426.74 1036.71,-419.74"/>
<text text-anchor="middle" x="1305.5" y="-416.5" font-family="Helvetica,sans-Serif" font-size="10.00"> m_OutputInformationMTime</text>
</g>
<!-- Node7&#45;&gt;Node4 -->
<g id="edge6" class="edge">
<title>Node7&#45;&gt;Node4</title>
<path fill="none" stroke="#9a32cd" stroke-dasharray="5,2" d="M1036.7,-411.34C1099.67,-399.7 1195.03,-381.91 1203,-379.5 1232.67,-370.51 1265.44,-355.68 1285.5,-346"/>
<polygon fill="#9a32cd" stroke="#9a32cd" points="1035.7,-407.96 1026.51,-413.22 1036.97,-414.85 1035.7,-407.96"/>
<text text-anchor="middle" x="1136.5" y="-406.5" font-family="Helvetica,sans-Serif" font-size="10.00"> m_MTime</text>
</g>
<!-- Node8 -->
<g id="node8" class="node">
<title>Node8</title>
<g id="a_node8"><a xlink:title=" ">
<polygon fill="white" stroke="black" points="233,-410 233,-429 333,-429 333,-410 233,-410"/>
<text text-anchor="middle" x="283" y="-417" font-family="Helvetica,sans-Serif" font-size="10.00">std::atomic&lt; T &gt;</text>
</a>
</g>
</g>
<!-- Node8&#45;&gt;Node7 -->
<g id="edge7" class="edge">
<title>Node8&#45;&gt;Node7</title>
<path fill="none" stroke="#9a32cd" stroke-dasharray="5,2" d="M343.44,-419.67C479.86,-420.06 813,-421.02 934.35,-421.37"/>
<polygon fill="#9a32cd" stroke="#9a32cd" points="343.19,-416.17 333.18,-419.64 343.17,-423.17 343.19,-416.17"/>
<text text-anchor="middle" x="571" y="-422.5" font-family="Helvetica,sans-Serif" font-size="10.00"> m_GlobalTimeStamp</text>
</g>
<!-- Node9 -->
<g id="node9" class="node">
<title>Node9</title>
<g id="a_node9"><a xlink:title=" ">
<polygon fill="white" stroke="black" points="0,-395 0,-414 29,-414 29,-395 0,-395"/>
<text text-anchor="middle" x="14.5" y="-402" font-family="Helvetica,sans-Serif" font-size="10.00">T</text>
</a>
</g>
</g>
<!-- Node9&#45;&gt;Node8 -->
<g id="edge8" class="edge">
<title>Node9&#45;&gt;Node8</title>
<path fill="none" stroke="#9a32cd" stroke-dasharray="5,2" d="M39.23,-405.84C82.59,-408.28 175.47,-413.5 232.94,-416.74"/>
<polygon fill="#9a32cd" stroke="#9a32cd" points="39.26,-402.33 29.08,-405.26 38.87,-409.32 39.26,-402.33"/>
<text text-anchor="middle" x="71.5" y="-411.5" font-family="Helvetica,sans-Serif" font-size="10.00"> ptr</text>
</g>
<!-- Node14 -->
<g id="node14" class="node">
<title>Node14</title>
<g id="a_node14"><a xlink:title=" ">
<polygon fill="white" stroke="black" points="114,-342 114,-361 215,-361 215,-342 114,-342"/>
<text text-anchor="middle" x="164.5" y="-349" font-family="Helvetica,sans-Serif" font-size="10.00">std::map&lt; K, T &gt;</text>
</a>
</g>
</g>
<!-- Node9&#45;&gt;Node14 -->
<g id="edge15" class="edge">
<title>Node9&#45;&gt;Node14</title>
<path fill="none" stroke="#9a32cd" stroke-dasharray="5,2" d="M38.18,-390.74C41.1,-389.21 44.08,-387.75 47,-386.5 71.84,-375.84 100.96,-367.09 123.88,-361"/>
<polygon fill="#9a32cd" stroke="#9a32cd" points="36.28,-387.79 29.26,-395.73 39.7,-393.9 36.28,-387.79"/>
<text text-anchor="middle" x="71.5" y="-389.5" font-family="Helvetica,sans-Serif" font-size="10.00"> elements</text>
</g>
<!-- Node10 -->
<g id="node10" class="node">
<title>Node10</title>
<g id="a_node10"><a xlink:title=" ">
<polygon fill="white" stroke="black" points="912,-362.5 912,-392.5 1049,-392.5 1049,-362.5 912,-362.5"/>
<text text-anchor="start" x="920" y="-380.5" font-family="Helvetica,sans-Serif" font-size="10.00">std::unique_ptr&lt; Subject</text>
<text text-anchor="middle" x="980.5" y="-369.5" font-family="Helvetica,sans-Serif" font-size="10.00">Implementation &gt;</text>
</a>
</g>
</g>
<!-- Node10&#45;&gt;Node4 -->
<g id="edge9" class="edge">
<title>Node10&#45;&gt;Node4</title>
<path fill="none" stroke="#9a32cd" stroke-dasharray="5,2" d="M1059.45,-367.61C1127.36,-358.99 1222.48,-346.91 1271.86,-340.64"/>
<polygon fill="#9a32cd" stroke="#9a32cd" points="1058.69,-364.17 1049.21,-368.91 1059.57,-371.12 1058.69,-364.17"/>
<text text-anchor="middle" x="1136.5" y="-367.5" font-family="Helvetica,sans-Serif" font-size="10.00"> m_SubjectImplementation</text>
</g>
<!-- Node11 -->
<g id="node11" class="node">
<title>Node11</title>
<g id="a_node11"><a xlink:title=" ">
<polygon fill="white" stroke="black" points="914.5,-313.5 914.5,-343.5 1046.5,-343.5 1046.5,-313.5 914.5,-313.5"/>
<text text-anchor="start" x="922.5" y="-331.5" font-family="Helvetica,sans-Serif" font-size="10.00">std::unique_ptr&lt; itk</text>
<text text-anchor="middle" x="980.5" y="-320.5" font-family="Helvetica,sans-Serif" font-size="10.00">::MetaDataDictionary &gt;</text>
</a>
</g>
</g>
<!-- Node11&#45;&gt;Node4 -->
<g id="edge10" class="edge">
<title>Node11&#45;&gt;Node4</title>
<path fill="none" stroke="#9a32cd" stroke-dasharray="5,2" d="M1057.1,-330.37C1125.12,-332.06 1221.81,-334.45 1271.78,-335.69"/>
<polygon fill="#9a32cd" stroke="#9a32cd" points="1056.95,-326.87 1046.86,-330.12 1056.77,-333.87 1056.95,-326.87"/>
<text text-anchor="middle" x="1136.5" y="-336.5" font-family="Helvetica,sans-Serif" font-size="10.00"> m_MetaDataDictionary</text>
</g>
<!-- Node12 -->
<g id="node12" class="node">
<title>Node12</title>
<g id="a_node12"><a xlink:href="classitk_1_1MetaDataDictionary.html" target="_top" xlink:title="Provides a mechanism for storing a collection of arbitrary data types.">
<polygon fill="white" stroke="black" points="642,-319 642,-338 776,-338 776,-319 642,-319"/>
<text text-anchor="middle" x="709" y="-326" font-family="Helvetica,sans-Serif" font-size="10.00">itk::MetaDataDictionary</text>
</a>
</g>
</g>
<!-- Node12&#45;&gt;Node11 -->
<g id="edge11" class="edge">
<title>Node12&#45;&gt;Node11</title>
<path fill="none" stroke="#9a32cd" stroke-dasharray="5,2" d="M786.35,-328.5C826.75,-328.5 875.84,-328.5 914.42,-328.5"/>
<polygon fill="#9a32cd" stroke="#9a32cd" points="786.27,-325 776.27,-328.5 786.27,-332 786.27,-325"/>
<text text-anchor="middle" x="842.5" y="-331.5" font-family="Helvetica,sans-Serif" font-size="10.00"> ptr</text>
</g>
<!-- Node13 -->
<g id="node13" class="node">
<title>Node13</title>
<g id="a_node13"><a xlink:title=" ">
<polygon fill="white" stroke="black" points="351,-318.5 351,-348.5 500,-348.5 500,-318.5 351,-318.5"/>
<text text-anchor="start" x="359" y="-336.5" font-family="Helvetica,sans-Serif" font-size="10.00">std::shared_ptr&lt; MetaData</text>
<text text-anchor="middle" x="425.5" y="-325.5" font-family="Helvetica,sans-Serif" font-size="10.00">DictionaryMapType &gt;</text>
</a>
</g>
</g>
<!-- Node13&#45;&gt;Node12 -->
<g id="edge12" class="edge">
<title>Node13&#45;&gt;Node12</title>
<path fill="none" stroke="#9a32cd" stroke-dasharray="5,2" d="M510.29,-332.01C552.24,-331.27 602.31,-330.38 641.57,-329.68"/>
<polygon fill="#9a32cd" stroke="#9a32cd" points="510.03,-328.52 500.09,-332.19 510.15,-335.51 510.03,-328.52"/>
<text text-anchor="middle" x="571" y="-334.5" font-family="Helvetica,sans-Serif" font-size="10.00"> m_Dictionary</text>
</g>
<!-- Node14&#45;&gt;Node13 -->
<g id="edge13" class="edge">
<title>Node14&#45;&gt;Node13</title>
<path fill="none" stroke="#9a32cd" stroke-dasharray="5,2" d="M225.34,-347.34C262.61,-344.75 310.86,-341.4 350.52,-338.64"/>
<polygon fill="#9a32cd" stroke="#9a32cd" points="224.86,-343.87 215.13,-348.05 225.35,-350.85 224.86,-343.87"/>
<text text-anchor="middle" x="283" y="-349.5" font-family="Helvetica,sans-Serif" font-size="10.00"> ptr</text>
</g>
<!-- Node15 -->
<g id="node15" class="node">
<title>Node15</title>
<g id="a_node15"><a xlink:title=" ">
<polygon fill="white" stroke="black" points="0,-342 0,-361 29,-361 29,-342 0,-342"/>
<text text-anchor="middle" x="14.5" y="-349" font-family="Helvetica,sans-Serif" font-size="10.00">K</text>
</a>
</g>
</g>
<!-- Node15&#45;&gt;Node14 -->
<g id="edge14" class="edge">
<title>Node15&#45;&gt;Node14</title>
<path fill="none" stroke="#9a32cd" stroke-dasharray="5,2" d="M39.24,-351.5C59.28,-351.5 88.63,-351.5 113.78,-351.5"/>
<polygon fill="#9a32cd" stroke="#9a32cd" points="39.16,-348 29.16,-351.5 39.16,-355 39.16,-348"/>
<text text-anchor="middle" x="71.5" y="-354.5" font-family="Helvetica,sans-Serif" font-size="10.00"> keys</text>
</g>
<!-- Node16 -->
<g id="node16" class="node">
<title>Node16</title>
<g id="a_node16"><a xlink:title=" ">
<polygon fill="white" stroke="black" points="948,-215 948,-234 1013,-234 1013,-215 948,-215"/>
<text text-anchor="middle" x="980.5" y="-222" font-family="Helvetica,sans-Serif" font-size="10.00">std::string</text>
</a>
</g>
</g>
<!-- Node16&#45;&gt;Node4 -->
<g id="edge16" class="edge">
<title>Node16&#45;&gt;Node4</title>
<path fill="none" stroke="#9a32cd" stroke-dasharray="5,2" d="M1015.68,-237.57C1031.98,-243.52 1051.84,-250.36 1070,-255.5 1128.21,-271.98 1154.58,-248.22 1203,-284.5 1216.37,-294.52 1207.68,-307.42 1221,-317.5 1235.47,-328.44 1255.11,-333.27 1271.71,-335.33"/>
<polygon fill="#9a32cd" stroke="#9a32cd" points="1016.63,-234.19 1006.04,-234 1014.2,-240.75 1016.63,-234.19"/>
<text text-anchor="middle" x="1136.5" y="-287.5" font-family="Helvetica,sans-Serif" font-size="10.00"> m_ObjectName</text>
</g>
<!-- Node18 -->
<g id="node18" class="node">
<title>Node18</title>
<g id="a_node18"><a xlink:title=" ">
<polygon fill="white" stroke="black" points="1221,-179.5 1221,-209.5 1390,-209.5 1390,-179.5 1221,-179.5"/>
<text text-anchor="start" x="1229" y="-197.5" font-family="Helvetica,sans-Serif" font-size="10.00">std::map&lt; DataObjectIdentifier</text>
<text text-anchor="middle" x="1305.5" y="-186.5" font-family="Helvetica,sans-Serif" font-size="10.00">Type, DataObjectPointer &gt;</text>
</a>
</g>
</g>
<!-- Node16&#45;&gt;Node18 -->
<g id="edge20" class="edge">
<title>Node16&#45;&gt;Node18</title>
<path fill="none" stroke="#9a32cd" stroke-dasharray="5,2" d="M1008.15,-210.08C1025.27,-201.66 1048.3,-191.85 1070,-187.5 1119.42,-177.59 1175.86,-178.89 1220.98,-182.89"/>
<polygon fill="#9a32cd" stroke="#9a32cd" points="1006.14,-207.18 998.81,-214.83 1009.31,-213.42 1006.14,-207.18"/>
<text text-anchor="middle" x="1136.5" y="-190.5" font-family="Helvetica,sans-Serif" font-size="10.00"> keys</text>
</g>
<!-- Node22 -->
<g id="node22" class="node">
<title>Node22</title>
<g id="a_node22"><a xlink:title=" ">
<polygon fill="white" stroke="black" points="1221,-277.5 1221,-307.5 1390,-307.5 1390,-277.5 1221,-277.5"/>
<text text-anchor="start" x="1229" y="-295.5" font-family="Helvetica,sans-Serif" font-size="10.00">std::map&lt; DataObjectIdentifier</text>
<text text-anchor="middle" x="1305.5" y="-284.5" font-family="Helvetica,sans-Serif" font-size="10.00">Type, bool &gt;</text>
</a>
</g>
</g>
<!-- Node16&#45;&gt;Node22 -->
<g id="edge25" class="edge">
<title>Node16&#45;&gt;Node22</title>
<path fill="none" stroke="#9a32cd" stroke-dasharray="5,2" d="M1023.6,-224.29C1079.1,-224.68 1173.22,-227.89 1203,-244.5 1214.65,-250.99 1210.02,-260.93 1221,-268.5 1225.97,-271.92 1231.42,-274.86 1237.09,-277.39"/>
<polygon fill="#9a32cd" stroke="#9a32cd" points="1023.39,-220.79 1013.37,-224.24 1023.36,-227.79 1023.39,-220.79"/>
<text text-anchor="middle" x="1136.5" y="-247.5" font-family="Helvetica,sans-Serif" font-size="10.00"> keys</text>
</g>
<!-- Node23 -->
<g id="node23" class="node">
<title>Node23</title>
<g id="a_node23"><a xlink:title=" ">
<polygon fill="white" stroke="black" points="1224.5,-228.5 1224.5,-258.5 1386.5,-258.5 1386.5,-228.5 1224.5,-228.5"/>
<text text-anchor="start" x="1232.5" y="-246.5" font-family="Helvetica,sans-Serif" font-size="10.00">std::set&lt; DataObjectIdentifier</text>
<text text-anchor="middle" x="1305.5" y="-235.5" font-family="Helvetica,sans-Serif" font-size="10.00">Type &gt;</text>
</a>
</g>
</g>
<!-- Node16&#45;&gt;Node23 -->
<g id="edge27" class="edge">
<title>Node16&#45;&gt;Node23</title>
<path fill="none" stroke="#9a32cd" stroke-dasharray="5,2" d="M1023.14,-214.71C1068.12,-205.78 1141.59,-196 1203,-210.5 1211.71,-212.55 1212.67,-216.25 1221,-219.5 1229.29,-222.73 1238.2,-225.75 1246.99,-228.48"/>
<polygon fill="#9a32cd" stroke="#9a32cd" points="1022.25,-211.32 1013.17,-216.77 1023.67,-218.17 1022.25,-211.32"/>
<text text-anchor="middle" x="1136.5" y="-213.5" font-family="Helvetica,sans-Serif" font-size="10.00"> keys</text>
</g>
<!-- Node17 -->
<g id="node17" class="node">
<title>Node17</title>
<g id="a_node17"><a xlink:title=" ">
<polygon fill="white" stroke="black" points="657,-209.5 657,-239.5 761,-239.5 761,-209.5 657,-209.5"/>
<text text-anchor="start" x="665" y="-227.5" font-family="Helvetica,sans-Serif" font-size="10.00">std::basic_string&lt;</text>
<text text-anchor="middle" x="709" y="-216.5" font-family="Helvetica,sans-Serif" font-size="10.00"> Char &gt;</text>
</a>
</g>
</g>
<!-- Node17&#45;&gt;Node16 -->
<g id="edge17" class="edge">
<title>Node17&#45;&gt;Node16</title>
<path fill="none" stroke="midnightblue" d="M771.31,-224.5C826.18,-224.5 904.43,-224.5 947.69,-224.5"/>
<polygon fill="midnightblue" stroke="midnightblue" points="771.01,-221 761.01,-224.5 771.01,-228 771.01,-221"/>
</g>
<!-- Node18&#45;&gt;Node3 -->
<g id="edge19" class="edge">
<title>Node18&#45;&gt;Node3</title>
<path fill="none" stroke="#9a32cd" stroke-dasharray="5,2" d="M1400.1,-200.41C1446.24,-205.4 1502.11,-214.58 1550,-231.5 1585.65,-244.1 1622.83,-269.14 1641.77,-282.89"/>
<polygon fill="#9a32cd" stroke="#9a32cd" points="1400.41,-196.93 1390.11,-199.38 1399.7,-203.89 1400.41,-196.93"/>
<text text-anchor="middle" x="1479" y="-245.5" font-family="Helvetica,sans-Serif" font-size="10.00"> m_Inputs</text>
<text text-anchor="middle" x="1479" y="-234.5" font-family="Helvetica,sans-Serif" font-size="10.00">m_Outputs</text>
</g>
<!-- Node19 -->
<g id="node19" class="node">
<title>Node19</title>
<g id="a_node19"><a xlink:href="classitk_1_1SmartPointer.html" target="_top" xlink:title=" ">
<polygon fill="white" stroke="black" points="927,-105.5 927,-135.5 1034,-135.5 1034,-105.5 927,-105.5"/>
<text text-anchor="start" x="935" y="-123.5" font-family="Helvetica,sans-Serif" font-size="10.00">itk::SmartPointer&lt;</text>
<text text-anchor="middle" x="980.5" y="-112.5" font-family="Helvetica,sans-Serif" font-size="10.00"> Self &gt;</text>
</a>
</g>
</g>
<!-- Node19&#45;&gt;Node1 -->
<g id="edge36" class="edge">
<title>Node19&#45;&gt;Node1</title>
<path fill="none" stroke="#9a32cd" stroke-dasharray="5,2" d="M1044.12,-114.63C1109.15,-109.05 1213.85,-101.5 1304.5,-101.5 1304.5,-101.5 1304.5,-101.5 1902,-101.5 1960.18,-101.5 2025.73,-98.08 2075.8,-94.75"/>
<polygon fill="#9a32cd" stroke="#9a32cd" points="1043.69,-111.15 1034.03,-115.51 1044.3,-118.13 1043.69,-111.15"/>
<text text-anchor="middle" x="1655.5" y="-104.5" font-family="Helvetica,sans-Serif" font-size="10.00"> m_ImportImageContainer</text>
</g>
<!-- Node19&#45;&gt;Node18 -->
<g id="edge21" class="edge">
<title>Node19&#45;&gt;Node18</title>
<path fill="none" stroke="#9a32cd" stroke-dasharray="5,2" d="M1044.4,-130.82C1089,-138.67 1150.08,-150.48 1203,-164.5 1211.15,-166.66 1212.95,-168 1221,-170.5 1230.65,-173.49 1240.97,-176.57 1250.95,-179.47"/>
<polygon fill="#9a32cd" stroke="#9a32cd" points="1044.74,-127.33 1034.29,-129.06 1043.54,-134.23 1044.74,-127.33"/>
<text text-anchor="middle" x="1136.5" y="-167.5" font-family="Helvetica,sans-Serif" font-size="10.00"> elements</text>
</g>
<!-- Node20 -->
<g id="node20" class="node">
<title>Node20</title>
<g id="a_node20"><a xlink:title=" ">
<polygon fill="white" stroke="black" points="1221,-498.5 1221,-528.5 1390,-528.5 1390,-498.5 1221,-498.5"/>
<text text-anchor="start" x="1229" y="-516.5" font-family="Helvetica,sans-Serif" font-size="10.00">std::vector&lt; DataObjectPointer</text>
<text text-anchor="middle" x="1305.5" y="-505.5" font-family="Helvetica,sans-Serif" font-size="10.00">Map::iterator &gt;</text>
</a>
</g>
</g>
<!-- Node20&#45;&gt;Node3 -->
<g id="edge22" class="edge">
<title>Node20&#45;&gt;Node3</title>
<path fill="none" stroke="#9a32cd" stroke-dasharray="5,2" d="M1400.29,-520.48C1448.76,-519.58 1506.66,-511.03 1550,-481.5 1616.3,-436.31 1644.78,-334.6 1652.34,-302.44"/>
<polygon fill="#9a32cd" stroke="#9a32cd" points="1400.07,-516.98 1390.1,-520.56 1400.12,-523.98 1400.07,-516.98"/>
<text text-anchor="middle" x="1479" y="-533.5" font-family="Helvetica,sans-Serif" font-size="10.00"> m_IndexedInputs</text>
<text text-anchor="middle" x="1479" y="-522.5" font-family="Helvetica,sans-Serif" font-size="10.00">m_IndexedOutputs</text>
</g>
<!-- Node21 -->
<g id="node21" class="node">
<title>Node21</title>
<g id="a_node21"><a xlink:title=" ">
<polygon fill="white" stroke="black" points="909,-504 909,-523 1052,-523 1052,-504 909,-504"/>
<text text-anchor="middle" x="980.5" y="-511" font-family="Helvetica,sans-Serif" font-size="10.00">std::map&lt; K, T &gt;::iterator</text>
</a>
</g>
</g>
<!-- Node21&#45;&gt;Node20 -->
<g id="edge23" class="edge">
<title>Node21&#45;&gt;Node20</title>
<path fill="none" stroke="#9a32cd" stroke-dasharray="5,2" d="M1062.49,-513.5C1110.84,-513.5 1172.12,-513.5 1220.92,-513.5"/>
<polygon fill="#9a32cd" stroke="#9a32cd" points="1062.38,-510 1052.38,-513.5 1062.38,-517 1062.38,-510"/>
<text text-anchor="middle" x="1136.5" y="-516.5" font-family="Helvetica,sans-Serif" font-size="10.00"> elements</text>
</g>
<!-- Node22&#45;&gt;Node3 -->
<g id="edge24" class="edge">
<title>Node22&#45;&gt;Node3</title>
<path fill="none" stroke="#9a32cd" stroke-dasharray="5,2" d="M1400.6,-292.5C1465.89,-292.5 1550.35,-292.5 1603.49,-292.5"/>
<polygon fill="#9a32cd" stroke="#9a32cd" points="1400.3,-289 1390.3,-292.5 1400.3,-296 1400.3,-289"/>
<text text-anchor="start" x="1408" y="-306.5" font-family="Helvetica,sans-Serif" font-size="10.00"> m_CachedInputReleaseData</text>
<text text-anchor="middle" x="1479" y="-295.5" font-family="Helvetica,sans-Serif" font-size="10.00">Flags</text>
</g>
<!-- Node23&#45;&gt;Node3 -->
<g id="edge26" class="edge">
<title>Node23&#45;&gt;Node3</title>
<path fill="none" stroke="#9a32cd" stroke-dasharray="5,2" d="M1396.5,-255.98C1442.44,-262.38 1499.21,-270.31 1550,-277.5 1567.42,-279.97 1586.47,-282.69 1603.48,-285.14"/>
<polygon fill="#9a32cd" stroke="#9a32cd" points="1396.96,-252.51 1386.57,-254.6 1395.99,-259.45 1396.96,-252.51"/>
<text text-anchor="middle" x="1479" y="-280.5" font-family="Helvetica,sans-Serif" font-size="10.00"> m_RequiredInputNames</text>
</g>
<!-- Node24 -->
<g id="node24" class="node">
<title>Node24</title>
<g id="a_node24"><a xlink:title=" ">
<polygon fill="white" stroke="black" points="1238.5,-460 1238.5,-479 1372.5,-479 1372.5,-460 1238.5,-460"/>
<text text-anchor="middle" x="1305.5" y="-467" font-family="Helvetica,sans-Serif" font-size="10.00">std::atomic&lt; uint32_t &gt;</text>
</a>
</g>
</g>
<!-- Node24&#45;&gt;Node3 -->
<g id="edge28" class="edge">
<title>Node24&#45;&gt;Node3</title>
<path fill="none" stroke="#9a32cd" stroke-dasharray="5,2" d="M1382.99,-468.56C1443.63,-466.55 1522.58,-460.77 1550,-444.5 1607.84,-410.19 1641.11,-329.89 1651.19,-302.14"/>
<polygon fill="#9a32cd" stroke="#9a32cd" points="1382.55,-465.07 1372.66,-468.87 1382.76,-472.07 1382.55,-465.07"/>
<text text-anchor="middle" x="1479" y="-469.5" font-family="Helvetica,sans-Serif" font-size="10.00"> m_Progress</text>
</g>
<!-- Node25 -->
<g id="node25" class="node">
<title>Node25</title>
<g id="a_node25"><a xlink:title=" ">
<polygon fill="white" stroke="black" points="952.5,-460 952.5,-479 1008.5,-479 1008.5,-460 952.5,-460"/>
<text text-anchor="middle" x="980.5" y="-467" font-family="Helvetica,sans-Serif" font-size="10.00">uint32_t</text>
</a>
</g>
</g>
<!-- Node25&#45;&gt;Node24 -->
<g id="edge29" class="edge">
<title>Node25&#45;&gt;Node24</title>
<path fill="none" stroke="#9a32cd" stroke-dasharray="5,2" d="M1018.85,-469.5C1072.45,-469.5 1172.04,-469.5 1238.31,-469.5"/>
<polygon fill="#9a32cd" stroke="#9a32cd" points="1018.76,-466 1008.76,-469.5 1018.76,-473 1018.76,-466"/>
<text text-anchor="middle" x="1136.5" y="-472.5" font-family="Helvetica,sans-Serif" font-size="10.00"> ptr</text>
</g>
<!-- Node26 -->
<g id="node26" class="node">
<title>Node26</title>
<g id="a_node26"><a xlink:href="classitk_1_1SmartPointer.html" target="_top" xlink:title=" ">
<polygon fill="white" stroke="black" points="1234.5,-130.5 1234.5,-160.5 1376.5,-160.5 1376.5,-130.5 1234.5,-130.5"/>
<text text-anchor="start" x="1242.5" y="-148.5" font-family="Helvetica,sans-Serif" font-size="10.00">itk::SmartPointer&lt;</text>
<text text-anchor="middle" x="1305.5" y="-137.5" font-family="Helvetica,sans-Serif" font-size="10.00"> itk::MultiThreaderBase &gt;</text>
</a>
</g>
</g>
<!-- Node26&#45;&gt;Node3 -->
<g id="edge30" class="edge">
<title>Node26&#45;&gt;Node3</title>
<path fill="none" stroke="#9a32cd" stroke-dasharray="5,2" d="M1386.54,-142.02C1437.52,-143.64 1502.65,-153.22 1550,-186.5 1563.35,-195.88 1557.64,-205.89 1568,-218.5 1589.95,-245.22 1622.31,-269.99 1640.59,-282.99"/>
<polygon fill="#9a32cd" stroke="#9a32cd" points="1386.61,-138.52 1376.54,-141.79 1386.46,-145.52 1386.61,-138.52"/>
<text text-anchor="middle" x="1479" y="-189.5" font-family="Helvetica,sans-Serif" font-size="10.00"> m_MultiThreader</text>
</g>
<!-- Node27 -->
<g id="node27" class="node">
<title>Node27</title>
<g id="a_node27"><a xlink:href="structitk_1_1ImageSourceCommon.html" target="_top" xlink:title="Secondary base class of ImageSource common between templates.">
<polygon fill="white" stroke="black" points="1584,-190 1584,-209 1727,-209 1727,-190 1584,-190"/>
<text text-anchor="middle" x="1655.5" y="-197" font-family="Helvetica,sans-Serif" font-size="10.00">itk::ImageSourceCommon</text>
</a>
</g>
</g>
<!-- Node27&#45;&gt;Node2 -->
<g id="edge31" class="edge">
<title>Node27&#45;&gt;Node2</title>
<path fill="none" stroke="#8b1a1a" d="M1737.31,-199.5C1767.42,-199.5 1801.31,-199.5 1830.33,-199.5"/>
<polygon fill="#8b1a1a" stroke="#8b1a1a" points="1737.26,-196 1727.26,-199.5 1737.26,-203 1737.26,-196"/>
</g>
<!-- Node28 -->
<g id="node28" class="node">
<title>Node28</title>
<g id="a_node28"><a xlink:href="classitk_1_1ImageRegion.html" target="_top" xlink:title=" ">
<polygon fill="white" stroke="black" points="1837,-50 1837,-69 1965,-69 1965,-50 1837,-50"/>
<text text-anchor="middle" x="1901" y="-57" font-family="Helvetica,sans-Serif" font-size="10.00">itk::ImageRegion&lt; 2 &gt;</text>
</a>
</g>
</g>
<!-- Node28&#45;&gt;Node1 -->
<g id="edge32" class="edge">
<title>Node28&#45;&gt;Node1</title>
<path fill="none" stroke="#9a32cd" stroke-dasharray="5,2" d="M1975.22,-67.3C2001.35,-70.13 2031,-73.39 2058,-76.5 2063.85,-77.17 2069.89,-77.88 2075.97,-78.6"/>
<polygon fill="#9a32cd" stroke="#9a32cd" points="1975.34,-63.79 1965.02,-66.19 1974.59,-70.75 1975.34,-63.79"/>
<text text-anchor="middle" x="2026.5" y="-79.5" font-family="Helvetica,sans-Serif" font-size="10.00"> m_Region</text>
</g>
<!-- Node29 -->
<g id="node29" class="node">
<title>Node29</title>
<g id="a_node29"><a xlink:href="structitk_1_1Index.html" target="_top" xlink:title=" ">
<polygon fill="white" stroke="black" points="1568,-46 1568,-65 1743,-65 1743,-46 1568,-46"/>
<text text-anchor="middle" x="1655.5" y="-53" font-family="Helvetica,sans-Serif" font-size="10.00">itk::Index&lt; VImageDimension &gt;</text>
</a>
</g>
</g>
<!-- Node29&#45;&gt;Node28 -->
<g id="edge33" class="edge">
<title>Node29&#45;&gt;Node28</title>
<path fill="none" stroke="#9a32cd" stroke-dasharray="5,2" d="M1753.28,-57.09C1781.34,-57.55 1811.26,-58.04 1836.7,-58.46"/>
<polygon fill="#9a32cd" stroke="#9a32cd" points="1753.09,-53.59 1743.03,-56.92 1752.98,-60.59 1753.09,-53.59"/>
<text text-anchor="middle" x="1784" y="-60.5" font-family="Helvetica,sans-Serif" font-size="10.00"> m_Index</text>
</g>
<!-- Node30 -->
<g id="node30" class="node">
<title>Node30</title>
<g id="a_node30"><a xlink:href="structitk_1_1Size.html" target="_top" xlink:title=" ">
<polygon fill="white" stroke="black" points="1571.5,-8 1571.5,-27 1739.5,-27 1739.5,-8 1571.5,-8"/>
<text text-anchor="middle" x="1655.5" y="-15" font-family="Helvetica,sans-Serif" font-size="10.00">itk::Size&lt; VImageDimension &gt;</text>
</a>
</g>
</g>
<!-- Node30&#45;&gt;Node28 -->
<g id="edge34" class="edge">
<title>Node30&#45;&gt;Node28</title>
<path fill="none" stroke="#9a32cd" stroke-dasharray="5,2" d="M1729.21,-28.6C1753.93,-32.5 1781.69,-37.03 1807,-41.5 1821.74,-44.1 1837.75,-47.13 1852.27,-49.95"/>
<polygon fill="#9a32cd" stroke="#9a32cd" points="1729.61,-25.12 1719.18,-27.02 1728.52,-32.03 1729.61,-25.12"/>
<text text-anchor="middle" x="1784" y="-44.5" font-family="Helvetica,sans-Serif" font-size="10.00"> m_Size</text>
</g>
<!-- Node31 -->
<g id="node31" class="node">
<title>Node31</title>
<g id="a_node31"><a xlink:href="classitk_1_1Matrix.html" target="_top" xlink:title=" ">
<polygon fill="white" stroke="black" points="1825,-0.5 1825,-30.5 1977,-30.5 1977,-0.5 1825,-0.5"/>
<text text-anchor="start" x="1833" y="-18.5" font-family="Helvetica,sans-Serif" font-size="10.00">itk::Matrix&lt; SpacePrecision</text>
<text text-anchor="middle" x="1901" y="-7.5" font-family="Helvetica,sans-Serif" font-size="10.00">Type, 2, 2 &gt;</text>
</a>
</g>
</g>
<!-- Node31&#45;&gt;Node1 -->
<g id="edge35" class="edge">
<title>Node31&#45;&gt;Node1</title>
<path fill="none" stroke="#9a32cd" stroke-dasharray="5,2" d="M1977.65,-33.03C2003.29,-39.33 2032.01,-46.8 2058,-54.5 2077.17,-60.18 2098.14,-67.25 2115.83,-73.48"/>
<polygon fill="#9a32cd" stroke="#9a32cd" points="1978.16,-29.55 1967.61,-30.58 1976.5,-36.35 1978.16,-29.55"/>
<text text-anchor="middle" x="2026.5" y="-57.5" font-family="Helvetica,sans-Serif" font-size="10.00"> m_Direction</text>
</g>
</g>
</svg>
