<?xml version="1.0" encoding="UTF-8" standalone="no"?>
<!DOCTYPE svg PUBLIC "-//W3C//DTD SVG 1.1//EN"
 "http://www.w3.org/Graphics/SVG/1.1/DTD/svg11.dtd">
<!-- Generated by graphviz version 2.43.0 (0)
 -->
<!-- Title: itk::StatisticsImageFilter&lt; TInputImage &gt; Pages: 1 -->
<svg width="2458pt" height="555pt"
 viewBox="0.00 0.00 2458.00 555.00" xmlns="http://www.w3.org/2000/svg" xmlns:xlink="http://www.w3.org/1999/xlink">
<g id="graph0" class="graph" transform="scale(1 1) rotate(0) translate(4 551)">
<title>itk::StatisticsImageFilter&lt; TInputImage &gt;</title>
<polygon fill="white" stroke="transparent" points="-4,4 -4,-551 2454,-551 2454,4 -4,4"/>
<!-- Node1 -->
<g id="node1" class="node">
<title>Node1</title>
<g id="a_node1"><a xlink:title="Compute min, max, variance and mean of an Image.">
<polygon fill="#bfbfbf" stroke="black" points="2314,-39 2314,-69 2450,-69 2450,-39 2314,-39"/>
<text text-anchor="start" x="2322" y="-57" font-family="Helvetica,sans-Serif" font-size="10.00">itk::StatisticsImageFilter</text>
<text text-anchor="middle" x="2382" y="-46" font-family="Helvetica,sans-Serif" font-size="10.00">&lt; TInputImage &gt;</text>
</a>
</g>
</g>
<!-- Node2 -->
<g id="node2" class="node">
<title>Node2</title>
<g id="a_node2"><a xlink:href="classitk_1_1ImageSink.html" target="_top" xlink:title=" ">
<polygon fill="white" stroke="black" points="2016,-103.5 2016,-122.5 2187,-122.5 2187,-103.5 2016,-103.5"/>
<text text-anchor="middle" x="2101.5" y="-110.5" font-family="Helvetica,sans-Serif" font-size="10.00">itk::ImageSink&lt; TInputImage &gt;</text>
</a>
</g>
</g>
<!-- Node2&#45;&gt;Node1 -->
<g id="edge1" class="edge">
<title>Node2&#45;&gt;Node1</title>
<path fill="none" stroke="midnightblue" d="M2181.66,-101.84C2216.88,-96.28 2258.73,-88.84 2296,-80 2308.91,-76.94 2322.74,-73 2335.42,-69.12"/>
<polygon fill="midnightblue" stroke="midnightblue" points="2180.78,-98.44 2171.44,-103.44 2181.86,-105.36 2180.78,-98.44"/>
</g>
<!-- Node3 -->
<g id="node3" class="node">
<title>Node3</title>
<g id="a_node3"><a xlink:href="classitk_1_1StreamingProcessObject.html" target="_top" xlink:title="Base class interface to process data on multiple requested input chunks.">
<polygon fill="white" stroke="black" points="1725.5,-115.5 1725.5,-134.5 1880.5,-134.5 1880.5,-115.5 1725.5,-115.5"/>
<text text-anchor="middle" x="1803" y="-122.5" font-family="Helvetica,sans-Serif" font-size="10.00">itk::StreamingProcessObject</text>
</a>
</g>
</g>
<!-- Node3&#45;&gt;Node2 -->
<g id="edge2" class="edge">
<title>Node3&#45;&gt;Node2</title>
<path fill="none" stroke="midnightblue" d="M1890.88,-121.48C1930.33,-119.89 1976.83,-118.01 2015.99,-116.42"/>
<polygon fill="midnightblue" stroke="midnightblue" points="1890.59,-117.99 1880.74,-121.89 1890.88,-124.99 1890.59,-117.99"/>
</g>
<!-- Node4 -->
<g id="node4" class="node">
<title>Node4</title>
<g id="a_node4"><a xlink:href="classitk_1_1ProcessObject.html" target="_top" xlink:title="The base class for all process objects (source, filters, mappers) in the Insight data processing pipe...">
<polygon fill="white" stroke="black" points="1571,-268.5 1571,-287.5 1675,-287.5 1675,-268.5 1571,-268.5"/>
<text text-anchor="middle" x="1623" y="-275.5" font-family="Helvetica,sans-Serif" font-size="10.00">itk::ProcessObject</text>
</a>
</g>
</g>
<!-- Node4&#45;&gt;Node3 -->
<g id="edge3" class="edge">
<title>Node4&#45;&gt;Node3</title>
<path fill="none" stroke="midnightblue" d="M1631.48,-258.79C1644.04,-229.2 1672.26,-172.9 1715,-144 1720.76,-140.1 1727.19,-136.99 1733.86,-134.5"/>
<polygon fill="midnightblue" stroke="midnightblue" points="1628.11,-257.79 1627.57,-268.38 1634.59,-260.44 1628.11,-257.79"/>
</g>
<!-- Node5 -->
<g id="node5" class="node">
<title>Node5</title>
<g id="a_node5"><a xlink:href="classitk_1_1Object.html" target="_top" xlink:title="Base class for most ITK classes.">
<polygon fill="white" stroke="black" points="1272,-371.5 1272,-390.5 1339,-390.5 1339,-371.5 1272,-371.5"/>
<text text-anchor="middle" x="1305.5" y="-378.5" font-family="Helvetica,sans-Serif" font-size="10.00">itk::Object</text>
</a>
</g>
</g>
<!-- Node5&#45;&gt;Node4 -->
<g id="edge4" class="edge">
<title>Node5&#45;&gt;Node4</title>
<path fill="none" stroke="midnightblue" d="M1349.35,-379.73C1399.57,-376.81 1484.28,-367.35 1550,-337 1576.12,-324.94 1600.72,-301.13 1613.29,-287.74"/>
<polygon fill="midnightblue" stroke="midnightblue" points="1348.98,-376.24 1339.18,-380.26 1349.34,-383.23 1348.98,-376.24"/>
</g>
<!-- Node6 -->
<g id="node6" class="node">
<title>Node6</title>
<g id="a_node6"><a xlink:href="classitk_1_1LightObject.html" target="_top" xlink:title="Light weight base class for most itk classes.">
<polygon fill="white" stroke="black" points="935,-384.5 935,-403.5 1026,-403.5 1026,-384.5 935,-384.5"/>
<text text-anchor="middle" x="980.5" y="-391.5" font-family="Helvetica,sans-Serif" font-size="10.00">itk::LightObject</text>
</a>
</g>
</g>
<!-- Node6&#45;&gt;Node5 -->
<g id="edge5" class="edge">
<title>Node6&#45;&gt;Node5</title>
<path fill="none" stroke="midnightblue" d="M1036.09,-391.8C1103.55,-389.09 1216.2,-384.55 1271.64,-382.32"/>
<polygon fill="midnightblue" stroke="midnightblue" points="1035.92,-388.31 1026.07,-392.21 1036.21,-395.3 1035.92,-388.31"/>
</g>
<!-- Node7 -->
<g id="node7" class="node">
<title>Node7</title>
<g id="a_node7"><a xlink:title=" ">
<polygon fill="white" stroke="black" points="655.5,-384.5 655.5,-403.5 762.5,-403.5 762.5,-384.5 655.5,-384.5"/>
<text text-anchor="middle" x="709" y="-391.5" font-family="Helvetica,sans-Serif" font-size="10.00">std::atomic&lt; int &gt;</text>
</a>
</g>
</g>
<!-- Node7&#45;&gt;Node6 -->
<g id="edge6" class="edge">
<title>Node7&#45;&gt;Node6</title>
<path fill="none" stroke="#9a32cd" stroke-dasharray="5,2" d="M772.89,-394C822.48,-394 890.42,-394 934.63,-394"/>
<polygon fill="#9a32cd" stroke="#9a32cd" points="772.6,-390.5 762.6,-394 772.6,-397.5 772.6,-390.5"/>
<text text-anchor="middle" x="842.5" y="-397" font-family="Helvetica,sans-Serif" font-size="10.00"> m_ReferenceCount</text>
</g>
<!-- Node8 -->
<g id="node8" class="node">
<title>Node8</title>
<g id="a_node8"><a xlink:href="classitk_1_1TimeStamp.html" target="_top" xlink:title="Generate a unique, increasing time value.">
<polygon fill="white" stroke="black" points="934.5,-422.5 934.5,-441.5 1026.5,-441.5 1026.5,-422.5 934.5,-422.5"/>
<text text-anchor="middle" x="980.5" y="-429.5" font-family="Helvetica,sans-Serif" font-size="10.00">itk::TimeStamp</text>
</a>
</g>
</g>
<!-- Node8&#45;&gt;Node4 -->
<g id="edge19" class="edge">
<title>Node8&#45;&gt;Node4</title>
<path fill="none" stroke="#9a32cd" stroke-dasharray="5,2" d="M1035.99,-444.39C1041.57,-446.55 1047.01,-449.07 1052,-452 1061.76,-457.73 1059.55,-465.67 1070,-470 1124.61,-492.62 1144.48,-478.34 1203,-470 1362.01,-447.33 1416.74,-458.68 1550,-369 1582.42,-347.18 1607.05,-306.17 1617.08,-287.59"/>
<polygon fill="#9a32cd" stroke="#9a32cd" points="1037.13,-441.08 1026.54,-441.07 1034.82,-447.68 1037.13,-441.08"/>
<text text-anchor="middle" x="1305.5" y="-470" font-family="Helvetica,sans-Serif" font-size="10.00"> m_OutputInformationMTime</text>
</g>
<!-- Node8&#45;&gt;Node5 -->
<g id="edge7" class="edge">
<title>Node8&#45;&gt;Node5</title>
<path fill="none" stroke="#9a32cd" stroke-dasharray="5,2" d="M1036.69,-425.14C1081.58,-419.35 1146.52,-410.51 1203,-401 1226.02,-397.12 1251.84,-392.03 1271.67,-387.95"/>
<polygon fill="#9a32cd" stroke="#9a32cd" points="1036.05,-421.69 1026.58,-426.44 1036.94,-428.64 1036.05,-421.69"/>
<text text-anchor="middle" x="1136.5" y="-423" font-family="Helvetica,sans-Serif" font-size="10.00"> m_MTime</text>
</g>
<!-- Node9 -->
<g id="node9" class="node">
<title>Node9</title>
<g id="a_node9"><a xlink:title=" ">
<polygon fill="white" stroke="black" points="233,-422.5 233,-441.5 333,-441.5 333,-422.5 233,-422.5"/>
<text text-anchor="middle" x="283" y="-429.5" font-family="Helvetica,sans-Serif" font-size="10.00">std::atomic&lt; T &gt;</text>
</a>
</g>
</g>
<!-- Node9&#45;&gt;Node8 -->
<g id="edge8" class="edge">
<title>Node9&#45;&gt;Node8</title>
<path fill="none" stroke="#9a32cd" stroke-dasharray="5,2" d="M343.44,-432C479.86,-432 813,-432 934.35,-432"/>
<polygon fill="#9a32cd" stroke="#9a32cd" points="343.18,-428.5 333.18,-432 343.18,-435.5 343.18,-428.5"/>
<text text-anchor="middle" x="571" y="-435" font-family="Helvetica,sans-Serif" font-size="10.00"> m_GlobalTimeStamp</text>
</g>
<!-- Node10 -->
<g id="node10" class="node">
<title>Node10</title>
<g id="a_node10"><a xlink:title=" ">
<polygon fill="white" stroke="black" points="0,-437.5 0,-456.5 29,-456.5 29,-437.5 0,-437.5"/>
<text text-anchor="middle" x="14.5" y="-444.5" font-family="Helvetica,sans-Serif" font-size="10.00">T</text>
</a>
</g>
</g>
<!-- Node10&#45;&gt;Node9 -->
<g id="edge9" class="edge">
<title>Node10&#45;&gt;Node9</title>
<path fill="none" stroke="#9a32cd" stroke-dasharray="5,2" d="M39.03,-439.58C41.7,-438.95 44.39,-438.4 47,-438 110.54,-428.27 184.85,-428.24 232.62,-429.66"/>
<polygon fill="#9a32cd" stroke="#9a32cd" points="37.85,-436.27 29.13,-442.29 39.7,-443.03 37.85,-436.27"/>
<text text-anchor="middle" x="71.5" y="-441" font-family="Helvetica,sans-Serif" font-size="10.00"> ptr</text>
</g>
<!-- Node15 -->
<g id="node15" class="node">
<title>Node15</title>
<g id="a_node15"><a xlink:title=" ">
<polygon fill="white" stroke="black" points="114,-466.5 114,-485.5 215,-485.5 215,-466.5 114,-466.5"/>
<text text-anchor="middle" x="164.5" y="-473.5" font-family="Helvetica,sans-Serif" font-size="10.00">std::map&lt; K, T &gt;</text>
</a>
</g>
</g>
<!-- Node10&#45;&gt;Node15 -->
<g id="edge16" class="edge">
<title>Node10&#45;&gt;Node15</title>
<path fill="none" stroke="#9a32cd" stroke-dasharray="5,2" d="M39.09,-451.62C59.39,-455.6 89.35,-461.47 114.78,-466.45"/>
<polygon fill="#9a32cd" stroke="#9a32cd" points="39.64,-448.16 29.16,-449.68 38.3,-455.03 39.64,-448.16"/>
<text text-anchor="middle" x="71.5" y="-465" font-family="Helvetica,sans-Serif" font-size="10.00"> elements</text>
</g>
<!-- Node11 -->
<g id="node11" class="node">
<title>Node11</title>
<g id="a_node11"><a xlink:title=" ">
<polygon fill="white" stroke="black" points="912,-335 912,-365 1049,-365 1049,-335 912,-335"/>
<text text-anchor="start" x="920" y="-353" font-family="Helvetica,sans-Serif" font-size="10.00">std::unique_ptr&lt; Subject</text>
<text text-anchor="middle" x="980.5" y="-342" font-family="Helvetica,sans-Serif" font-size="10.00">Implementation &gt;</text>
</a>
</g>
</g>
<!-- Node11&#45;&gt;Node5 -->
<g id="edge10" class="edge">
<title>Node11&#45;&gt;Node5</title>
<path fill="none" stroke="#9a32cd" stroke-dasharray="5,2" d="M1059.38,-356.69C1101.85,-360.42 1155.34,-365.27 1203,-370 1225.93,-372.28 1251.75,-375.08 1271.6,-377.28"/>
<polygon fill="#9a32cd" stroke="#9a32cd" points="1059.66,-353.2 1049.39,-355.81 1059.05,-360.17 1059.66,-353.2"/>
<text text-anchor="middle" x="1136.5" y="-373" font-family="Helvetica,sans-Serif" font-size="10.00"> m_SubjectImplementation</text>
</g>
<!-- Node12 -->
<g id="node12" class="node">
<title>Node12</title>
<g id="a_node12"><a xlink:title=" ">
<polygon fill="white" stroke="black" points="914.5,-461 914.5,-491 1046.5,-491 1046.5,-461 914.5,-461"/>
<text text-anchor="start" x="922.5" y="-479" font-family="Helvetica,sans-Serif" font-size="10.00">std::unique_ptr&lt; itk</text>
<text text-anchor="middle" x="980.5" y="-468" font-family="Helvetica,sans-Serif" font-size="10.00">::MetaDataDictionary &gt;</text>
</a>
</g>
</g>
<!-- Node12&#45;&gt;Node5 -->
<g id="edge11" class="edge">
<title>Node12&#45;&gt;Node5</title>
<path fill="none" stroke="#9a32cd" stroke-dasharray="5,2" d="M1056.78,-467.88C1100.34,-461.76 1155.73,-451.51 1203,-435 1235.79,-423.55 1270.9,-402.72 1290.02,-390.55"/>
<polygon fill="#9a32cd" stroke="#9a32cd" points="1056.26,-464.42 1046.82,-469.24 1057.2,-471.36 1056.26,-464.42"/>
<text text-anchor="middle" x="1136.5" y="-468" font-family="Helvetica,sans-Serif" font-size="10.00"> m_MetaDataDictionary</text>
</g>
<!-- Node13 -->
<g id="node13" class="node">
<title>Node13</title>
<g id="a_node13"><a xlink:href="classitk_1_1MetaDataDictionary.html" target="_top" xlink:title="Provides a mechanism for storing a collection of arbitrary data types.">
<polygon fill="white" stroke="black" points="642,-466.5 642,-485.5 776,-485.5 776,-466.5 642,-466.5"/>
<text text-anchor="middle" x="709" y="-473.5" font-family="Helvetica,sans-Serif" font-size="10.00">itk::MetaDataDictionary</text>
</a>
</g>
</g>
<!-- Node13&#45;&gt;Node12 -->
<g id="edge12" class="edge">
<title>Node13&#45;&gt;Node12</title>
<path fill="none" stroke="#9a32cd" stroke-dasharray="5,2" d="M786.35,-476C826.75,-476 875.84,-476 914.42,-476"/>
<polygon fill="#9a32cd" stroke="#9a32cd" points="786.27,-472.5 776.27,-476 786.27,-479.5 786.27,-472.5"/>
<text text-anchor="middle" x="842.5" y="-479" font-family="Helvetica,sans-Serif" font-size="10.00"> ptr</text>
</g>
<!-- Node14 -->
<g id="node14" class="node">
<title>Node14</title>
<g id="a_node14"><a xlink:title=" ">
<polygon fill="white" stroke="black" points="351,-461 351,-491 500,-491 500,-461 351,-461"/>
<text text-anchor="start" x="359" y="-479" font-family="Helvetica,sans-Serif" font-size="10.00">std::shared_ptr&lt; MetaData</text>
<text text-anchor="middle" x="425.5" y="-468" font-family="Helvetica,sans-Serif" font-size="10.00">DictionaryMapType &gt;</text>
</a>
</g>
</g>
<!-- Node14&#45;&gt;Node13 -->
<g id="edge13" class="edge">
<title>Node14&#45;&gt;Node13</title>
<path fill="none" stroke="#9a32cd" stroke-dasharray="5,2" d="M510.29,-476C552.24,-476 602.31,-476 641.57,-476"/>
<polygon fill="#9a32cd" stroke="#9a32cd" points="510.09,-472.5 500.09,-476 510.09,-479.5 510.09,-472.5"/>
<text text-anchor="middle" x="571" y="-479" font-family="Helvetica,sans-Serif" font-size="10.00"> m_Dictionary</text>
</g>
<!-- Node15&#45;&gt;Node14 -->
<g id="edge14" class="edge">
<title>Node15&#45;&gt;Node14</title>
<path fill="none" stroke="#9a32cd" stroke-dasharray="5,2" d="M225.34,-476C262.61,-476 310.86,-476 350.52,-476"/>
<polygon fill="#9a32cd" stroke="#9a32cd" points="225.13,-472.5 215.13,-476 225.13,-479.5 225.13,-472.5"/>
<text text-anchor="middle" x="283" y="-479" font-family="Helvetica,sans-Serif" font-size="10.00"> ptr</text>
</g>
<!-- Node16 -->
<g id="node16" class="node">
<title>Node16</title>
<g id="a_node16"><a xlink:title=" ">
<polygon fill="white" stroke="black" points="0,-490.5 0,-509.5 29,-509.5 29,-490.5 0,-490.5"/>
<text text-anchor="middle" x="14.5" y="-497.5" font-family="Helvetica,sans-Serif" font-size="10.00">K</text>
</a>
</g>
</g>
<!-- Node16&#45;&gt;Node15 -->
<g id="edge15" class="edge">
<title>Node16&#45;&gt;Node15</title>
<path fill="none" stroke="#9a32cd" stroke-dasharray="5,2" d="M39.24,-496.15C59.28,-492.9 88.63,-488.14 113.78,-484.06"/>
<polygon fill="#9a32cd" stroke="#9a32cd" points="38.47,-492.73 29.16,-497.79 39.59,-499.64 38.47,-492.73"/>
<text text-anchor="middle" x="71.5" y="-497" font-family="Helvetica,sans-Serif" font-size="10.00"> keys</text>
</g>
<!-- Node17 -->
<g id="node17" class="node">
<title>Node17</title>
<g id="a_node17"><a xlink:title=" ">
<polygon fill="white" stroke="black" points="948,-270.5 948,-289.5 1013,-289.5 1013,-270.5 948,-270.5"/>
<text text-anchor="middle" x="980.5" y="-277.5" font-family="Helvetica,sans-Serif" font-size="10.00">std::string</text>
</a>
</g>
</g>
<!-- Node17&#45;&gt;Node5 -->
<g id="edge17" class="edge">
<title>Node17&#45;&gt;Node5</title>
<path fill="none" stroke="#9a32cd" stroke-dasharray="5,2" d="M1018.73,-292.87C1034.47,-298.14 1053.05,-304.13 1070,-309 1128.53,-325.83 1146.33,-319.68 1203,-342 1211.52,-345.35 1212.65,-348.26 1221,-352 1237.67,-359.46 1256.88,-366.25 1272.68,-371.38"/>
<polygon fill="#9a32cd" stroke="#9a32cd" points="1019.44,-289.42 1008.85,-289.54 1017.2,-296.05 1019.44,-289.42"/>
<text text-anchor="middle" x="1136.5" y="-345" font-family="Helvetica,sans-Serif" font-size="10.00"> m_ObjectName</text>
</g>
<!-- Node19 -->
<g id="node19" class="node">
<title>Node19</title>
<g id="a_node19"><a xlink:title=" ">
<polygon fill="white" stroke="black" points="1221,-214 1221,-244 1390,-244 1390,-214 1221,-214"/>
<text text-anchor="start" x="1229" y="-232" font-family="Helvetica,sans-Serif" font-size="10.00">std::map&lt; DataObjectIdentifier</text>
<text text-anchor="middle" x="1305.5" y="-221" font-family="Helvetica,sans-Serif" font-size="10.00">Type, DataObjectPointer &gt;</text>
</a>
</g>
</g>
<!-- Node17&#45;&gt;Node19 -->
<g id="edge21" class="edge">
<title>Node17&#45;&gt;Node19</title>
<path fill="none" stroke="#9a32cd" stroke-dasharray="5,2" d="M1009.99,-266.13C1026.99,-258.51 1049.25,-249.69 1070,-245 1119.25,-233.86 1175.69,-229.75 1220.85,-228.48"/>
<polygon fill="#9a32cd" stroke="#9a32cd" points="1008.26,-263.07 1000.63,-270.43 1011.18,-269.43 1008.26,-263.07"/>
<text text-anchor="middle" x="1136.5" y="-248" font-family="Helvetica,sans-Serif" font-size="10.00"> keys</text>
</g>
<!-- Node23 -->
<g id="node23" class="node">
<title>Node23</title>
<g id="a_node23"><a xlink:title=" ">
<polygon fill="white" stroke="black" points="1221,-263 1221,-293 1390,-293 1390,-263 1221,-263"/>
<text text-anchor="start" x="1229" y="-281" font-family="Helvetica,sans-Serif" font-size="10.00">std::map&lt; DataObjectIdentifier</text>
<text text-anchor="middle" x="1305.5" y="-270" font-family="Helvetica,sans-Serif" font-size="10.00">Type, bool &gt;</text>
</a>
</g>
</g>
<!-- Node17&#45;&gt;Node23 -->
<g id="edge26" class="edge">
<title>Node17&#45;&gt;Node23</title>
<path fill="none" stroke="#9a32cd" stroke-dasharray="5,2" d="M1023.1,-270.9C1037.84,-268.09 1054.58,-265.38 1070,-264 1128.87,-258.72 1144.03,-259.95 1203,-264 1208.86,-264.4 1214.89,-264.93 1220.96,-265.55"/>
<polygon fill="#9a32cd" stroke="#9a32cd" points="1022.4,-267.47 1013.26,-272.84 1023.75,-274.34 1022.4,-267.47"/>
<text text-anchor="middle" x="1136.5" y="-267" font-family="Helvetica,sans-Serif" font-size="10.00"> keys</text>
</g>
<!-- Node24 -->
<g id="node24" class="node">
<title>Node24</title>
<g id="a_node24"><a xlink:title=" ">
<polygon fill="white" stroke="black" points="1224.5,-312 1224.5,-342 1386.5,-342 1386.5,-312 1224.5,-312"/>
<text text-anchor="start" x="1232.5" y="-330" font-family="Helvetica,sans-Serif" font-size="10.00">std::set&lt; DataObjectIdentifier</text>
<text text-anchor="middle" x="1305.5" y="-319" font-family="Helvetica,sans-Serif" font-size="10.00">Type &gt;</text>
</a>
</g>
</g>
<!-- Node17&#45;&gt;Node24 -->
<g id="edge28" class="edge">
<title>Node17&#45;&gt;Node24</title>
<path fill="none" stroke="#9a32cd" stroke-dasharray="5,2" d="M1023.51,-280.95C1068.3,-282.54 1141.15,-286.76 1203,-298 1204.39,-298.25 1228.06,-305.01 1252.19,-311.94"/>
<polygon fill="#9a32cd" stroke="#9a32cd" points="1023.41,-277.45 1013.3,-280.62 1023.18,-284.44 1023.41,-277.45"/>
<text text-anchor="middle" x="1136.5" y="-301" font-family="Helvetica,sans-Serif" font-size="10.00"> keys</text>
</g>
<!-- Node18 -->
<g id="node18" class="node">
<title>Node18</title>
<g id="a_node18"><a xlink:title=" ">
<polygon fill="white" stroke="black" points="657,-265 657,-295 761,-295 761,-265 657,-265"/>
<text text-anchor="start" x="665" y="-283" font-family="Helvetica,sans-Serif" font-size="10.00">std::basic_string&lt;</text>
<text text-anchor="middle" x="709" y="-272" font-family="Helvetica,sans-Serif" font-size="10.00"> Char &gt;</text>
</a>
</g>
</g>
<!-- Node18&#45;&gt;Node17 -->
<g id="edge18" class="edge">
<title>Node18&#45;&gt;Node17</title>
<path fill="none" stroke="midnightblue" d="M771.31,-280C826.18,-280 904.43,-280 947.69,-280"/>
<polygon fill="midnightblue" stroke="midnightblue" points="771.01,-276.5 761.01,-280 771.01,-283.5 771.01,-276.5"/>
</g>
<!-- Node19&#45;&gt;Node4 -->
<g id="edge20" class="edge">
<title>Node19&#45;&gt;Node4</title>
<path fill="none" stroke="#9a32cd" stroke-dasharray="5,2" d="M1400.32,-232.33C1445.92,-235.34 1501.27,-241.08 1550,-252 1567.25,-255.86 1586.01,-262.73 1600.05,-268.44"/>
<polygon fill="#9a32cd" stroke="#9a32cd" points="1400.35,-228.82 1390.15,-231.69 1399.91,-235.81 1400.35,-228.82"/>
<text text-anchor="middle" x="1479" y="-266" font-family="Helvetica,sans-Serif" font-size="10.00"> m_Inputs</text>
<text text-anchor="middle" x="1479" y="-255" font-family="Helvetica,sans-Serif" font-size="10.00">m_Outputs</text>
</g>
<!-- Node20 -->
<g id="node20" class="node">
<title>Node20</title>
<g id="a_node20"><a xlink:href="classitk_1_1SmartPointer.html" target="_top" xlink:title=" ">
<polygon fill="white" stroke="black" points="927,-180 927,-210 1034,-210 1034,-180 927,-180"/>
<text text-anchor="start" x="935" y="-198" font-family="Helvetica,sans-Serif" font-size="10.00">itk::SmartPointer&lt;</text>
<text text-anchor="middle" x="980.5" y="-187" font-family="Helvetica,sans-Serif" font-size="10.00"> Self &gt;</text>
</a>
</g>
</g>
<!-- Node20&#45;&gt;Node2 -->
<g id="edge33" class="edge">
<title>Node20&#45;&gt;Node2</title>
<path fill="none" stroke="#9a32cd" stroke-dasharray="5,2" d="M1043.45,-175.33C1046.42,-173.68 1049.29,-171.9 1052,-170 1062.33,-162.73 1059.4,-154.87 1070,-148 1160.37,-89.43 1196.81,-87 1304.5,-87 1304.5,-87 1304.5,-87 1804,-87 1882.03,-87 1971.16,-96.05 2031.16,-103.47"/>
<polygon fill="#9a32cd" stroke="#9a32cd" points="1041.67,-172.3 1034.3,-179.91 1044.81,-178.56 1041.67,-172.3"/>
<text text-anchor="middle" x="1623" y="-90" font-family="Helvetica,sans-Serif" font-size="10.00"> m_RegionSplitter</text>
</g>
<!-- Node20&#45;&gt;Node19 -->
<g id="edge22" class="edge">
<title>Node20&#45;&gt;Node19</title>
<path fill="none" stroke="#9a32cd" stroke-dasharray="5,2" d="M1044.38,-187.74C1089.22,-184.39 1150.6,-183.5 1203,-196 1211.7,-198.07 1212.67,-201.75 1221,-205 1229.29,-208.23 1238.2,-211.25 1246.99,-213.98"/>
<polygon fill="#9a32cd" stroke="#9a32cd" points="1043.9,-184.27 1034.21,-188.57 1044.46,-191.25 1043.9,-184.27"/>
<text text-anchor="middle" x="1136.5" y="-199" font-family="Helvetica,sans-Serif" font-size="10.00"> elements</text>
</g>
<!-- Node21 -->
<g id="node21" class="node">
<title>Node21</title>
<g id="a_node21"><a xlink:title=" ">
<polygon fill="white" stroke="black" points="1221,-165 1221,-195 1390,-195 1390,-165 1221,-165"/>
<text text-anchor="start" x="1229" y="-183" font-family="Helvetica,sans-Serif" font-size="10.00">std::vector&lt; DataObjectPointer</text>
<text text-anchor="middle" x="1305.5" y="-172" font-family="Helvetica,sans-Serif" font-size="10.00">Map::iterator &gt;</text>
</a>
</g>
</g>
<!-- Node21&#45;&gt;Node4 -->
<g id="edge23" class="edge">
<title>Node21&#45;&gt;Node4</title>
<path fill="none" stroke="#9a32cd" stroke-dasharray="5,2" d="M1400.42,-176.18C1447.36,-177.73 1503.85,-185.02 1550,-207 1579.64,-221.11 1604.4,-252.49 1615.59,-268.38"/>
<polygon fill="#9a32cd" stroke="#9a32cd" points="1400.33,-172.67 1390.25,-175.92 1400.16,-179.67 1400.33,-172.67"/>
<text text-anchor="middle" x="1479" y="-221" font-family="Helvetica,sans-Serif" font-size="10.00"> m_IndexedInputs</text>
<text text-anchor="middle" x="1479" y="-210" font-family="Helvetica,sans-Serif" font-size="10.00">m_IndexedOutputs</text>
</g>
<!-- Node22 -->
<g id="node22" class="node">
<title>Node22</title>
<g id="a_node22"><a xlink:title=" ">
<polygon fill="white" stroke="black" points="909,-141.5 909,-160.5 1052,-160.5 1052,-141.5 909,-141.5"/>
<text text-anchor="middle" x="980.5" y="-148.5" font-family="Helvetica,sans-Serif" font-size="10.00">std::map&lt; K, T &gt;::iterator</text>
</a>
</g>
</g>
<!-- Node22&#45;&gt;Node21 -->
<g id="edge24" class="edge">
<title>Node22&#45;&gt;Node21</title>
<path fill="none" stroke="#9a32cd" stroke-dasharray="5,2" d="M1062.2,-152.57C1104.28,-154 1156.52,-156.75 1203,-162 1210.29,-162.82 1217.85,-163.85 1225.4,-164.98"/>
<polygon fill="#9a32cd" stroke="#9a32cd" points="1062.12,-149.06 1052.01,-152.24 1061.89,-156.06 1062.12,-149.06"/>
<text text-anchor="middle" x="1136.5" y="-165" font-family="Helvetica,sans-Serif" font-size="10.00"> elements</text>
</g>
<!-- Node23&#45;&gt;Node4 -->
<g id="edge25" class="edge">
<title>Node23&#45;&gt;Node4</title>
<path fill="none" stroke="#9a32cd" stroke-dasharray="5,2" d="M1400.46,-278C1456.15,-278 1524.59,-278 1570.54,-278"/>
<polygon fill="#9a32cd" stroke="#9a32cd" points="1400.22,-274.5 1390.22,-278 1400.22,-281.5 1400.22,-274.5"/>
<text text-anchor="start" x="1408" y="-292" font-family="Helvetica,sans-Serif" font-size="10.00"> m_CachedInputReleaseData</text>
<text text-anchor="middle" x="1479" y="-281" font-family="Helvetica,sans-Serif" font-size="10.00">Flags</text>
</g>
<!-- Node24&#45;&gt;Node4 -->
<g id="edge27" class="edge">
<title>Node24&#45;&gt;Node4</title>
<path fill="none" stroke="#9a32cd" stroke-dasharray="5,2" d="M1396.75,-323.19C1442.99,-319.96 1499.94,-314 1550,-303 1566.8,-299.31 1585.11,-292.92 1599.05,-287.53"/>
<polygon fill="#9a32cd" stroke="#9a32cd" points="1396.5,-319.7 1386.75,-323.86 1396.96,-326.68 1396.5,-319.7"/>
<text text-anchor="middle" x="1479" y="-325" font-family="Helvetica,sans-Serif" font-size="10.00"> m_RequiredInputNames</text>
</g>
<!-- Node25 -->
<g id="node25" class="node">
<title>Node25</title>
<g id="a_node25"><a xlink:title=" ">
<polygon fill="white" stroke="black" points="1238.5,-513.5 1238.5,-532.5 1372.5,-532.5 1372.5,-513.5 1238.5,-513.5"/>
<text text-anchor="middle" x="1305.5" y="-520.5" font-family="Helvetica,sans-Serif" font-size="10.00">std::atomic&lt; uint32_t &gt;</text>
</a>
</g>
</g>
<!-- Node25&#45;&gt;Node4 -->
<g id="edge29" class="edge">
<title>Node25&#45;&gt;Node4</title>
<path fill="none" stroke="#9a32cd" stroke-dasharray="5,2" d="M1366.83,-533.75C1420.73,-539.78 1498.87,-539.21 1550,-498 1617.9,-443.27 1622.42,-323.25 1622.22,-287.95"/>
<polygon fill="#9a32cd" stroke="#9a32cd" points="1367.08,-530.26 1356.73,-532.52 1366.23,-537.21 1367.08,-530.26"/>
<text text-anchor="middle" x="1479" y="-539" font-family="Helvetica,sans-Serif" font-size="10.00"> m_Progress</text>
</g>
<!-- Node26 -->
<g id="node26" class="node">
<title>Node26</title>
<g id="a_node26"><a xlink:title=" ">
<polygon fill="white" stroke="black" points="952.5,-513.5 952.5,-532.5 1008.5,-532.5 1008.5,-513.5 952.5,-513.5"/>
<text text-anchor="middle" x="980.5" y="-520.5" font-family="Helvetica,sans-Serif" font-size="10.00">uint32_t</text>
</a>
</g>
</g>
<!-- Node26&#45;&gt;Node25 -->
<g id="edge30" class="edge">
<title>Node26&#45;&gt;Node25</title>
<path fill="none" stroke="#9a32cd" stroke-dasharray="5,2" d="M1018.85,-523C1072.45,-523 1172.04,-523 1238.31,-523"/>
<polygon fill="#9a32cd" stroke="#9a32cd" points="1018.76,-519.5 1008.76,-523 1018.76,-526.5 1018.76,-519.5"/>
<text text-anchor="middle" x="1136.5" y="-526" font-family="Helvetica,sans-Serif" font-size="10.00"> ptr</text>
</g>
<!-- Node27 -->
<g id="node27" class="node">
<title>Node27</title>
<g id="a_node27"><a xlink:href="classitk_1_1SmartPointer.html" target="_top" xlink:title=" ">
<polygon fill="white" stroke="black" points="1234.5,-116 1234.5,-146 1376.5,-146 1376.5,-116 1234.5,-116"/>
<text text-anchor="start" x="1242.5" y="-134" font-family="Helvetica,sans-Serif" font-size="10.00">itk::SmartPointer&lt;</text>
<text text-anchor="middle" x="1305.5" y="-123" font-family="Helvetica,sans-Serif" font-size="10.00"> itk::MultiThreaderBase &gt;</text>
</a>
</g>
</g>
<!-- Node27&#45;&gt;Node4 -->
<g id="edge31" class="edge">
<title>Node27&#45;&gt;Node4</title>
<path fill="none" stroke="#9a32cd" stroke-dasharray="5,2" d="M1386.95,-123.93C1437.49,-123.38 1501.97,-130.15 1550,-161 1590.74,-187.16 1612.14,-245.4 1619.26,-268.4"/>
<polygon fill="#9a32cd" stroke="#9a32cd" points="1386.64,-120.44 1376.72,-124.15 1386.79,-127.44 1386.64,-120.44"/>
<text text-anchor="middle" x="1479" y="-164" font-family="Helvetica,sans-Serif" font-size="10.00"> m_MultiThreader</text>
</g>
<!-- Node28 -->
<g id="node28" class="node">
<title>Node28</title>
<g id="a_node28"><a xlink:href="classitk_1_1ImageToImageFilterCommon.html" target="_top" xlink:title="Secondary base class of ImageToImageFilter common between templates.">
<polygon fill="white" stroke="black" points="1715,-153.5 1715,-172.5 1891,-172.5 1891,-153.5 1715,-153.5"/>
<text text-anchor="middle" x="1803" y="-160.5" font-family="Helvetica,sans-Serif" font-size="10.00">itk::ImageToImageFilterCommon</text>
</a>
</g>
</g>
<!-- Node28&#45;&gt;Node2 -->
<g id="edge32" class="edge">
<title>Node28&#45;&gt;Node2</title>
<path fill="none" stroke="#8b1a1a" d="M1876.17,-151.9C1912.71,-146.17 1957.75,-138.94 1998,-132 2015.12,-129.05 2033.82,-125.64 2050.5,-122.53"/>
<polygon fill="#8b1a1a" stroke="#8b1a1a" points="1875.44,-148.48 1866.1,-153.48 1876.52,-155.39 1875.44,-148.48"/>
</g>
<!-- Node29 -->
<g id="node29" class="node">
<title>Node29</title>
<g id="a_node29"><a xlink:href="classitk_1_1CompensatedSummation.html" target="_top" xlink:title=" ">
<polygon fill="white" stroke="black" points="2022,-39 2022,-69 2181,-69 2181,-39 2022,-39"/>
<text text-anchor="start" x="2030" y="-57" font-family="Helvetica,sans-Serif" font-size="10.00">itk::CompensatedSummation</text>
<text text-anchor="middle" x="2101.5" y="-46" font-family="Helvetica,sans-Serif" font-size="10.00">&lt; RealType &gt;</text>
</a>
</g>
</g>
<!-- Node29&#45;&gt;Node1 -->
<g id="edge34" class="edge">
<title>Node29&#45;&gt;Node1</title>
<path fill="none" stroke="#9a32cd" stroke-dasharray="5,2" d="M2191.4,-54C2231.09,-54 2277.08,-54 2313.83,-54"/>
<polygon fill="#9a32cd" stroke="#9a32cd" points="2191.19,-50.5 2181.19,-54 2191.19,-57.5 2191.19,-50.5"/>
<text text-anchor="middle" x="2250.5" y="-68" font-family="Helvetica,sans-Serif" font-size="10.00"> m_SumOfSquares</text>
<text text-anchor="middle" x="2250.5" y="-57" font-family="Helvetica,sans-Serif" font-size="10.00">m_ThreadSum</text>
</g>
<!-- Node30 -->
<g id="node30" class="node">
<title>Node30</title>
<g id="a_node30"><a xlink:href="classitk_1_1NumericTraits.html" target="_top" xlink:title=" ">
<polygon fill="white" stroke="black" points="1751.5,-24 1751.5,-54 1854.5,-54 1854.5,-24 1751.5,-24"/>
<text text-anchor="start" x="1759.5" y="-42" font-family="Helvetica,sans-Serif" font-size="10.00">itk::NumericTraits</text>
<text text-anchor="middle" x="1803" y="-31" font-family="Helvetica,sans-Serif" font-size="10.00">&lt; FloatType &gt;</text>
</a>
</g>
</g>
<!-- Node30&#45;&gt;Node29 -->
<g id="edge35" class="edge">
<title>Node30&#45;&gt;Node29</title>
<path fill="none" stroke="#9a32cd" stroke-dasharray="5,2" d="M1864.64,-42.07C1910.07,-44.37 1972.63,-47.53 2021.9,-50.02"/>
<polygon fill="#9a32cd" stroke="#9a32cd" points="1864.8,-38.57 1854.63,-41.56 1864.44,-45.56 1864.8,-38.57"/>
<text text-anchor="middle" x="1953.5" y="-62" font-family="Helvetica,sans-Serif" font-size="10.00"> m_Compensation</text>
<text text-anchor="middle" x="1953.5" y="-51" font-family="Helvetica,sans-Serif" font-size="10.00">m_Sum</text>
</g>
<!-- Node31 -->
<g id="node31" class="node">
<title>Node31</title>
<g id="a_node31"><a xlink:title=" ">
<polygon fill="white" stroke="black" points="1568,-20 1568,-50 1678,-50 1678,-20 1568,-20"/>
<text text-anchor="start" x="1576" y="-38" font-family="Helvetica,sans-Serif" font-size="10.00">std::numeric_limits</text>
<text text-anchor="middle" x="1623" y="-27" font-family="Helvetica,sans-Serif" font-size="10.00">&lt; FloatType &gt;</text>
</a>
</g>
</g>
<!-- Node31&#45;&gt;Node30 -->
<g id="edge36" class="edge">
<title>Node31&#45;&gt;Node30</title>
<path fill="none" stroke="midnightblue" d="M1688.65,-36.45C1709.28,-36.92 1731.81,-37.42 1751.3,-37.86"/>
<polygon fill="midnightblue" stroke="midnightblue" points="1688.45,-32.95 1678.37,-36.22 1688.29,-39.95 1688.45,-32.95"/>
</g>
<!-- Node32 -->
<g id="node32" class="node">
<title>Node32</title>
<g id="a_node32"><a xlink:title=" ">
<polygon fill="white" stroke="black" points="2067,-0.5 2067,-19.5 2136,-19.5 2136,-0.5 2067,-0.5"/>
<text text-anchor="middle" x="2101.5" y="-7.5" font-family="Helvetica,sans-Serif" font-size="10.00">std::mutex</text>
</a>
</g>
</g>
<!-- Node32&#45;&gt;Node1 -->
<g id="edge37" class="edge">
<title>Node32&#45;&gt;Node1</title>
<path fill="none" stroke="#9a32cd" stroke-dasharray="5,2" d="M2146.12,-16.21C2185.37,-21.87 2244.6,-30.62 2296,-39 2301.77,-39.94 2307.75,-40.94 2313.75,-41.97"/>
<polygon fill="#9a32cd" stroke="#9a32cd" points="2146.5,-12.73 2136.1,-14.77 2145.5,-19.65 2146.5,-12.73"/>
<text text-anchor="middle" x="2250.5" y="-42" font-family="Helvetica,sans-Serif" font-size="10.00"> m_Mutex</text>
</g>
</g>
</svg>
