<?xml version="1.0" encoding="UTF-8" standalone="no"?>
<!DOCTYPE svg PUBLIC "-//W3C//DTD SVG 1.1//EN"
 "http://www.w3.org/Graphics/SVG/1.1/DTD/svg11.dtd">
<!-- Generated by graphviz version 2.43.0 (0)
 -->
<!-- Title: itk::Functor::ThresholdLabeler&lt; TInput, TOutput &gt; Pages: 1 -->
<svg width="207pt" height="251pt"
 viewBox="0.00 0.00 206.50 251.00" xmlns="http://www.w3.org/2000/svg" xmlns:xlink="http://www.w3.org/1999/xlink">
<g id="graph0" class="graph" transform="scale(1 1) rotate(0) translate(4 247)">
<title>itk::Functor::ThresholdLabeler&lt; TInput, TOutput &gt;</title>
<polygon fill="white" stroke="transparent" points="-4,4 -4,-247 202.5,-247 202.5,4 -4,4"/>
<!-- Node1 -->
<g id="node1" class="node">
<title>Node1</title>
<g id="a_node1"><a xlink:title=" ">
<polygon fill="#bfbfbf" stroke="black" points="0,-0.5 0,-30.5 161,-30.5 161,-0.5 0,-0.5"/>
<text text-anchor="start" x="8" y="-18.5" font-family="Helvetica,sans-Serif" font-size="10.00">itk::Functor::ThresholdLabeler</text>
<text text-anchor="middle" x="80.5" y="-7.5" font-family="Helvetica,sans-Serif" font-size="10.00">&lt; TInput, TOutput &gt;</text>
</a>
</g>
</g>
<!-- Node2 -->
<g id="node2" class="node">
<title>Node2</title>
<g id="a_node2"><a xlink:title=" ">
<polygon fill="white" stroke="#bfbfbf" points="6,-78.5 6,-108.5 155,-108.5 155,-78.5 6,-78.5"/>
<text text-anchor="start" x="14" y="-96.5" font-family="Helvetica,sans-Serif" font-size="10.00">std::vector&lt; RealThreshold</text>
<text text-anchor="middle" x="80.5" y="-85.5" font-family="Helvetica,sans-Serif" font-size="10.00">Type &gt;</text>
</a>
</g>
</g>
<!-- Node2&#45;&gt;Node1 -->
<g id="edge1" class="edge">
<title>Node2&#45;&gt;Node1</title>
<path fill="none" stroke="#9a32cd" stroke-dasharray="5,2" d="M80.5,-68.09C80.5,-55.76 80.5,-41.22 80.5,-30.73"/>
<polygon fill="#9a32cd" stroke="#9a32cd" points="77,-68.2 80.5,-78.2 84,-68.21 77,-68.2"/>
<text text-anchor="middle" x="116.5" y="-52" font-family="Helvetica,sans-Serif" font-size="10.00"> m_Thresholds</text>
</g>
<!-- Node3 -->
<g id="node3" class="node">
<title>Node3</title>
<g id="a_node3"><a xlink:title="STL class.">
<polygon fill="white" stroke="#bfbfbf" points="32,-156.5 32,-175.5 129,-175.5 129,-156.5 32,-156.5"/>
<text text-anchor="middle" x="80.5" y="-163.5" font-family="Helvetica,sans-Serif" font-size="10.00">std::vector&lt; T &gt;</text>
</a>
</g>
</g>
<!-- Node3&#45;&gt;Node2 -->
<g id="edge2" class="edge">
<title>Node3&#45;&gt;Node2</title>
<path fill="none" stroke="orange" stroke-dasharray="5,2" d="M80.5,-146.24C80.5,-134.41 80.5,-119.38 80.5,-108.58"/>
<polygon fill="orange" stroke="orange" points="77,-146.36 80.5,-156.36 84,-146.36 77,-146.36"/>
<text text-anchor="middle" x="139.5" y="-130" font-family="Helvetica,sans-Serif" font-size="10.00"> &lt; RealThresholdType &gt;</text>
</g>
<!-- Node4 -->
<g id="node4" class="node">
<title>Node4</title>
<g id="a_node4"><a xlink:title=" ">
<polygon fill="white" stroke="#bfbfbf" points="66,-223.5 66,-242.5 95,-242.5 95,-223.5 66,-223.5"/>
<text text-anchor="middle" x="80.5" y="-230.5" font-family="Helvetica,sans-Serif" font-size="10.00">T</text>
</a>
</g>
</g>
<!-- Node4&#45;&gt;Node3 -->
<g id="edge3" class="edge">
<title>Node4&#45;&gt;Node3</title>
<path fill="none" stroke="#9a32cd" stroke-dasharray="5,2" d="M80.5,-213.04C80.5,-200.67 80.5,-185.12 80.5,-175.63"/>
<polygon fill="#9a32cd" stroke="#9a32cd" points="77,-213.23 80.5,-223.23 84,-213.23 77,-213.23"/>
<text text-anchor="middle" x="105" y="-197" font-family="Helvetica,sans-Serif" font-size="10.00"> elements</text>
</g>
</g>
</svg>
