<?xml version="1.0" encoding="UTF-8" standalone="no"?>
<!DOCTYPE svg PUBLIC "-//W3C//DTD SVG 1.1//EN"
 "http://www.w3.org/Graphics/SVG/1.1/DTD/svg11.dtd">
<!-- Generated by graphviz version 2.43.0 (0)
 -->
<!-- Title: itk::SymmetricSecondRankTensor&lt; TComponent, VDimension &gt; Pages: 1 -->
<svg width="213pt" height="342pt"
 viewBox="0.00 0.00 212.50 342.00" xmlns="http://www.w3.org/2000/svg" xmlns:xlink="http://www.w3.org/1999/xlink">
<g id="graph0" class="graph" transform="scale(1 1) rotate(0) translate(4 338)">
<title>itk::SymmetricSecondRankTensor&lt; TComponent, VDimension &gt;</title>
<polygon fill="white" stroke="transparent" points="-4,4 -4,-338 208.5,-338 208.5,4 -4,4"/>
<!-- Node1 -->
<g id="node1" class="node">
<title>Node1</title>
<g id="a_node1"><a xlink:title="Represent a symmetric tensor of second rank.">
<polygon fill="#bfbfbf" stroke="black" points="0,-146.5 0,-176.5 197,-176.5 197,-146.5 0,-146.5"/>
<text text-anchor="start" x="8" y="-164.5" font-family="Helvetica,sans-Serif" font-size="10.00">itk::SymmetricSecondRank</text>
<text text-anchor="middle" x="98.5" y="-153.5" font-family="Helvetica,sans-Serif" font-size="10.00">Tensor&lt; TComponent, VDimension &gt;</text>
</a>
</g>
</g>
<!-- Node4 -->
<g id="node4" class="node">
<title>Node4</title>
<g id="a_node4"><a xlink:href="classitk_1_1SymmetricSecondRankTensor.html" target="_top" xlink:title=" ">
<polygon fill="white" stroke="black" points="24,-68.5 24,-98.5 173,-98.5 173,-68.5 24,-68.5"/>
<text text-anchor="start" x="32" y="-86.5" font-family="Helvetica,sans-Serif" font-size="10.00">itk::SymmetricSecondRank</text>
<text text-anchor="middle" x="98.5" y="-75.5" font-family="Helvetica,sans-Serif" font-size="10.00">Tensor&lt; TComponent, 3 &gt;</text>
</a>
</g>
</g>
<!-- Node1&#45;&gt;Node4 -->
<g id="edge3" class="edge">
<title>Node1&#45;&gt;Node4</title>
<path fill="none" stroke="orange" stroke-dasharray="5,2" d="M98.5,-136.09C98.5,-123.76 98.5,-109.22 98.5,-98.73"/>
<polygon fill="orange" stroke="orange" points="95,-136.2 98.5,-146.2 102,-136.21 95,-136.2"/>
<text text-anchor="middle" x="148.5" y="-120" font-family="Helvetica,sans-Serif" font-size="10.00"> &lt; TComponent, 3 &gt;</text>
</g>
<!-- Node2 -->
<g id="node2" class="node">
<title>Node2</title>
<g id="a_node2"><a xlink:href="classitk_1_1FixedArray.html" target="_top" xlink:title=" ">
<polygon fill="white" stroke="black" points="17,-214.5 17,-244.5 180,-244.5 180,-214.5 17,-214.5"/>
<text text-anchor="start" x="25" y="-232.5" font-family="Helvetica,sans-Serif" font-size="10.00">itk::FixedArray&lt; TComponent,</text>
<text text-anchor="middle" x="98.5" y="-221.5" font-family="Helvetica,sans-Serif" font-size="10.00"> 3 *(3+1)/2 &gt;</text>
</a>
</g>
</g>
<!-- Node2&#45;&gt;Node1 -->
<g id="edge1" class="edge">
<title>Node2&#45;&gt;Node1</title>
<path fill="none" stroke="midnightblue" d="M98.5,-204.03C98.5,-194.86 98.5,-184.74 98.5,-176.79"/>
<polygon fill="midnightblue" stroke="midnightblue" points="95,-204.18 98.5,-214.18 102,-204.18 95,-204.18"/>
</g>
<!-- Node3 -->
<g id="node3" class="node">
<title>Node3</title>
<g id="a_node3"><a xlink:href="classitk_1_1FixedArray.html" target="_top" xlink:title="Simulate a standard C array with copy semantics.">
<polygon fill="white" stroke="black" points="31.5,-303.5 31.5,-333.5 165.5,-333.5 165.5,-303.5 31.5,-303.5"/>
<text text-anchor="start" x="39.5" y="-321.5" font-family="Helvetica,sans-Serif" font-size="10.00">itk::FixedArray&lt; TValue,</text>
<text text-anchor="middle" x="98.5" y="-310.5" font-family="Helvetica,sans-Serif" font-size="10.00"> VLength &gt;</text>
</a>
</g>
</g>
<!-- Node3&#45;&gt;Node2 -->
<g id="edge2" class="edge">
<title>Node3&#45;&gt;Node2</title>
<path fill="none" stroke="orange" stroke-dasharray="5,2" d="M98.5,-293.09C98.5,-277.44 98.5,-257.68 98.5,-244.6"/>
<polygon fill="orange" stroke="orange" points="95,-293.13 98.5,-303.13 102,-293.13 95,-293.13"/>
<text text-anchor="start" x="98.5" y="-277" font-family="Helvetica,sans-Serif" font-size="10.00"> &lt; TComponent, 3 *(3</text>
<text text-anchor="middle" x="151.5" y="-266" font-family="Helvetica,sans-Serif" font-size="10.00">+1)/2 &gt;</text>
</g>
<!-- Node5 -->
<g id="node5" class="node">
<title>Node5</title>
<g id="a_node5"><a xlink:href="classitk_1_1DiffusionTensor3D.html" target="_top" xlink:title="Represent a diffusion tensor as used in DTI images.">
<polygon fill="white" stroke="black" points="36.5,-0.5 36.5,-30.5 160.5,-30.5 160.5,-0.5 36.5,-0.5"/>
<text text-anchor="start" x="44.5" y="-18.5" font-family="Helvetica,sans-Serif" font-size="10.00">itk::DiffusionTensor3D</text>
<text text-anchor="middle" x="98.5" y="-7.5" font-family="Helvetica,sans-Serif" font-size="10.00">&lt; TComponent &gt;</text>
</a>
</g>
</g>
<!-- Node4&#45;&gt;Node5 -->
<g id="edge4" class="edge">
<title>Node4&#45;&gt;Node5</title>
<path fill="none" stroke="midnightblue" d="M98.5,-58.03C98.5,-48.86 98.5,-38.74 98.5,-30.79"/>
<polygon fill="midnightblue" stroke="midnightblue" points="95,-58.18 98.5,-68.18 102,-58.18 95,-58.18"/>
</g>
</g>
</svg>
