<?xml version="1.0" encoding="UTF-8" standalone="no"?>
<!DOCTYPE svg PUBLIC "-//W3C//DTD SVG 1.1//EN"
 "http://www.w3.org/Graphics/SVG/1.1/DTD/svg11.dtd">
<!-- Generated by graphviz version 2.43.0 (0)
 -->
<!-- Title: itk::DOMWriter&lt; TInput &gt; Pages: 1 -->
<svg width="1402pt" height="233pt"
 viewBox="0.00 0.00 1402.00 232.50" xmlns="http://www.w3.org/2000/svg" xmlns:xlink="http://www.w3.org/1999/xlink">
<g id="graph0" class="graph" transform="scale(1 1) rotate(0) translate(4 228.5)">
<title>itk::DOMWriter&lt; TInput &gt;</title>
<polygon fill="white" stroke="transparent" points="-4,4 -4,-228.5 1398,-228.5 1398,4 -4,4"/>
<!-- Node1 -->
<g id="node1" class="node">
<title>Node1</title>
<g id="a_node1"><a xlink:title="Class to write an ITK object to an XML file or a DOM object, using the DOM APIs.">
<polygon fill="#bfbfbf" stroke="black" points="1251,-94 1251,-113 1394,-113 1394,-94 1251,-94"/>
<text text-anchor="middle" x="1322.5" y="-101" font-family="Helvetica,sans-Serif" font-size="10.00">itk::DOMWriter&lt; TInput &gt;</text>
</a>
</g>
</g>
<!-- Node2 -->
<g id="node2" class="node">
<title>Node2</title>
<g id="a_node2"><a xlink:href="classitk_1_1Object.html" target="_top" xlink:title="Base class for most ITK classes.">
<polygon fill="white" stroke="black" points="1025,-146 1025,-165 1092,-165 1092,-146 1025,-146"/>
<text text-anchor="middle" x="1058.5" y="-153" font-family="Helvetica,sans-Serif" font-size="10.00">itk::Object</text>
</a>
</g>
</g>
<!-- Node2&#45;&gt;Node1 -->
<g id="edge1" class="edge">
<title>Node2&#45;&gt;Node1</title>
<path fill="none" stroke="midnightblue" d="M1102.03,-151.21C1137.36,-147.21 1188.8,-140.37 1233,-130.5 1253.69,-125.88 1276.58,-118.85 1293.89,-113.12"/>
<polygon fill="midnightblue" stroke="midnightblue" points="1101.62,-147.73 1092.07,-152.31 1102.39,-154.69 1101.62,-147.73"/>
</g>
<!-- Node3 -->
<g id="node3" class="node">
<title>Node3</title>
<g id="a_node3"><a xlink:href="classitk_1_1LightObject.html" target="_top" xlink:title="Light weight base class for most itk classes.">
<polygon fill="white" stroke="black" points="739.5,-205 739.5,-224 830.5,-224 830.5,-205 739.5,-205"/>
<text text-anchor="middle" x="785" y="-212" font-family="Helvetica,sans-Serif" font-size="10.00">itk::LightObject</text>
</a>
</g>
</g>
<!-- Node3&#45;&gt;Node2 -->
<g id="edge2" class="edge">
<title>Node3&#45;&gt;Node2</title>
<path fill="none" stroke="midnightblue" d="M840.81,-212.49C881.79,-209.84 938.8,-203.7 987,-189.5 1006.68,-183.7 1027.67,-172.91 1041.58,-165.04"/>
<polygon fill="midnightblue" stroke="midnightblue" points="840.53,-209 830.76,-213.09 840.95,-215.99 840.53,-209"/>
</g>
<!-- Node4 -->
<g id="node4" class="node">
<title>Node4</title>
<g id="a_node4"><a xlink:title=" ">
<polygon fill="white" stroke="#bfbfbf" points="457,-204 457,-223 564,-223 564,-204 457,-204"/>
<text text-anchor="middle" x="510.5" y="-211" font-family="Helvetica,sans-Serif" font-size="10.00">std::atomic&lt; int &gt;</text>
</a>
</g>
</g>
<!-- Node4&#45;&gt;Node3 -->
<g id="edge3" class="edge">
<title>Node4&#45;&gt;Node3</title>
<path fill="none" stroke="#9a32cd" stroke-dasharray="5,2" d="M574.18,-213.73C624.64,-213.92 694.33,-214.17 739.29,-214.34"/>
<polygon fill="#9a32cd" stroke="#9a32cd" points="574.05,-210.23 564.04,-213.69 574.03,-217.23 574.05,-210.23"/>
<text text-anchor="middle" x="651.5" y="-216.5" font-family="Helvetica,sans-Serif" font-size="10.00"> m_ReferenceCount</text>
</g>
<!-- Node5 -->
<g id="node5" class="node">
<title>Node5</title>
<g id="a_node5"><a xlink:title="STL class.">
<polygon fill="white" stroke="#bfbfbf" points="123,-166 123,-185 223,-185 223,-166 123,-166"/>
<text text-anchor="middle" x="173" y="-173" font-family="Helvetica,sans-Serif" font-size="10.00">std::atomic&lt; T &gt;</text>
</a>
</g>
</g>
<!-- Node5&#45;&gt;Node4 -->
<g id="edge4" class="edge">
<title>Node5&#45;&gt;Node4</title>
<path fill="none" stroke="orange" stroke-dasharray="5,2" d="M232.19,-186.77C238.19,-187.77 244.21,-188.7 250,-189.5 321.26,-199.34 404.11,-206.21 456.66,-210.01"/>
<polygon fill="orange" stroke="orange" points="232.59,-183.29 222.14,-185.04 231.4,-190.19 232.59,-183.29"/>
<text text-anchor="middle" x="334" y="-209.5" font-family="Helvetica,sans-Serif" font-size="10.00"> &lt; int &gt;</text>
</g>
<!-- Node14 -->
<g id="node14" class="node">
<title>Node14</title>
<g id="a_node14"><a xlink:href="classitk_1_1TimeStamp.html" target="_top" xlink:title="Generate a unique, increasing time value.">
<polygon fill="white" stroke="black" points="605.5,-166 605.5,-185 697.5,-185 697.5,-166 605.5,-166"/>
<text text-anchor="middle" x="651.5" y="-173" font-family="Helvetica,sans-Serif" font-size="10.00">itk::TimeStamp</text>
</a>
</g>
</g>
<!-- Node5&#45;&gt;Node14 -->
<g id="edge16" class="edge">
<title>Node5&#45;&gt;Node14</title>
<path fill="none" stroke="#9a32cd" stroke-dasharray="5,2" d="M233.23,-174.65C238.89,-174.59 244.56,-174.54 250,-174.5 378.98,-173.65 531.32,-174.56 605.45,-175.12"/>
<polygon fill="#9a32cd" stroke="#9a32cd" points="233.02,-171.15 223.06,-174.76 233.1,-178.15 233.02,-171.15"/>
<text text-anchor="middle" x="334" y="-177.5" font-family="Helvetica,sans-Serif" font-size="10.00"> m_GlobalTimeStamp</text>
</g>
<!-- Node6 -->
<g id="node6" class="node">
<title>Node6</title>
<g id="a_node6"><a xlink:title=" ">
<polygon fill="white" stroke="#bfbfbf" points="0,-126 0,-145 29,-145 29,-126 0,-126"/>
<text text-anchor="middle" x="14.5" y="-133" font-family="Helvetica,sans-Serif" font-size="10.00">T</text>
</a>
</g>
</g>
<!-- Node6&#45;&gt;Node5 -->
<g id="edge5" class="edge">
<title>Node6&#45;&gt;Node5</title>
<path fill="none" stroke="#9a32cd" stroke-dasharray="5,2" d="M38.39,-146.35C41.25,-147.5 44.17,-148.59 47,-149.5 71.58,-157.42 99.67,-163.51 123,-167.81"/>
<polygon fill="#9a32cd" stroke="#9a32cd" points="39.62,-143.06 29.05,-142.28 36.82,-149.48 39.62,-143.06"/>
<text text-anchor="middle" x="71.5" y="-164.5" font-family="Helvetica,sans-Serif" font-size="10.00"> ptr</text>
</g>
<!-- Node11 -->
<g id="node11" class="node">
<title>Node11</title>
<g id="a_node11"><a xlink:title="STL class.">
<polygon fill="white" stroke="#bfbfbf" points="122.5,-73 122.5,-92 223.5,-92 223.5,-73 122.5,-73"/>
<text text-anchor="middle" x="173" y="-80" font-family="Helvetica,sans-Serif" font-size="10.00">std::map&lt; K, T &gt;</text>
</a>
</g>
</g>
<!-- Node6&#45;&gt;Node11 -->
<g id="edge12" class="edge">
<title>Node6&#45;&gt;Node11</title>
<path fill="none" stroke="#9a32cd" stroke-dasharray="5,2" d="M38.21,-122.51C41.12,-121.06 44.1,-119.68 47,-118.5 74.18,-107.4 105.99,-98.29 130.72,-92.01"/>
<polygon fill="#9a32cd" stroke="#9a32cd" points="36.5,-119.45 29.3,-127.22 39.78,-125.64 36.5,-119.45"/>
<text text-anchor="middle" x="71.5" y="-121.5" font-family="Helvetica,sans-Serif" font-size="10.00"> elements</text>
</g>
<!-- Node13 -->
<g id="node13" class="node">
<title>Node13</title>
<g id="a_node13"><a xlink:title="STL class.">
<polygon fill="white" stroke="#bfbfbf" points="114,-123 114,-142 232,-142 232,-123 114,-123"/>
<text text-anchor="middle" x="173" y="-130" font-family="Helvetica,sans-Serif" font-size="10.00">std::shared_ptr&lt; T &gt;</text>
</a>
</g>
</g>
<!-- Node6&#45;&gt;Node13 -->
<g id="edge14" class="edge">
<title>Node6&#45;&gt;Node13</title>
<path fill="none" stroke="#9a32cd" stroke-dasharray="5,2" d="M39.32,-135.04C59.06,-134.66 87.96,-134.11 113.75,-133.62"/>
<polygon fill="#9a32cd" stroke="#9a32cd" points="39.05,-131.55 29.11,-135.24 39.18,-138.55 39.05,-131.55"/>
<text text-anchor="middle" x="71.5" y="-137.5" font-family="Helvetica,sans-Serif" font-size="10.00"> ptr</text>
</g>
<!-- Node7 -->
<g id="node7" class="node">
<title>Node7</title>
<g id="a_node7"><a xlink:title="STL class.">
<polygon fill="white" stroke="#bfbfbf" points="752.5,-120 752.5,-139 817.5,-139 817.5,-120 752.5,-120"/>
<text text-anchor="middle" x="785" y="-127" font-family="Helvetica,sans-Serif" font-size="10.00">std::string</text>
</a>
</g>
</g>
<!-- Node7&#45;&gt;Node1 -->
<g id="edge21" class="edge">
<title>Node7&#45;&gt;Node1</title>
<path fill="none" stroke="#9a32cd" stroke-dasharray="5,2" d="M827.89,-127.47C919.31,-123.03 1137.6,-112.43 1250.76,-106.93"/>
<polygon fill="#9a32cd" stroke="#9a32cd" points="827.71,-123.97 817.89,-127.95 828.05,-130.96 827.71,-123.97"/>
<text text-anchor="middle" x="1058.5" y="-121.5" font-family="Helvetica,sans-Serif" font-size="10.00"> m_FileName</text>
</g>
<!-- Node7&#45;&gt;Node2 -->
<g id="edge6" class="edge">
<title>Node7&#45;&gt;Node2</title>
<path fill="none" stroke="#9a32cd" stroke-dasharray="5,2" d="M827.64,-133.49C881.81,-138.68 975.36,-147.63 1024.76,-152.36"/>
<polygon fill="#9a32cd" stroke="#9a32cd" points="827.96,-130 817.68,-132.53 827.3,-136.97 827.96,-130"/>
<text text-anchor="middle" x="928.5" y="-151.5" font-family="Helvetica,sans-Serif" font-size="10.00"> m_ObjectName</text>
</g>
<!-- Node8 -->
<g id="node8" class="node">
<title>Node8</title>
<g id="a_node8"><a xlink:title="STL class.">
<polygon fill="white" stroke="#bfbfbf" points="458.5,-116.5 458.5,-146.5 562.5,-146.5 562.5,-116.5 458.5,-116.5"/>
<text text-anchor="start" x="466.5" y="-134.5" font-family="Helvetica,sans-Serif" font-size="10.00">std::basic_string&lt;</text>
<text text-anchor="middle" x="510.5" y="-123.5" font-family="Helvetica,sans-Serif" font-size="10.00"> char &gt;</text>
</a>
</g>
</g>
<!-- Node8&#45;&gt;Node7 -->
<g id="edge7" class="edge">
<title>Node8&#45;&gt;Node7</title>
<path fill="none" stroke="midnightblue" d="M572.85,-131.05C628.49,-130.64 708.3,-130.06 752.14,-129.73"/>
<polygon fill="midnightblue" stroke="midnightblue" points="572.73,-127.55 562.76,-131.12 572.78,-134.55 572.73,-127.55"/>
</g>
<!-- Node9 -->
<g id="node9" class="node">
<title>Node9</title>
<g id="a_node9"><a xlink:href="classitk_1_1MetaDataDictionary.html" target="_top" xlink:title="Provides a mechanism for storing a collection of arbitrary data types.">
<polygon fill="white" stroke="black" points="718,-78 718,-97 852,-97 852,-78 718,-78"/>
<text text-anchor="middle" x="785" y="-85" font-family="Helvetica,sans-Serif" font-size="10.00">itk::MetaDataDictionary</text>
</a>
</g>
</g>
<!-- Node9&#45;&gt;Node2 -->
<g id="edge8" class="edge">
<title>Node9&#45;&gt;Node2</title>
<path fill="none" stroke="#9a32cd" stroke-dasharray="5,2" d="M862.36,-95.47C900.45,-100.78 946.85,-109.28 987,-122.5 995.5,-125.3 996.93,-127.64 1005,-131.5 1015.22,-136.39 1026.64,-141.64 1036.22,-145.98"/>
<polygon fill="#9a32cd" stroke="#9a32cd" points="862.74,-91.99 852.36,-94.13 861.8,-98.93 862.74,-91.99"/>
<text text-anchor="middle" x="928.5" y="-125.5" font-family="Helvetica,sans-Serif" font-size="10.00"> m_MetaDataDictionary</text>
</g>
<!-- Node10 -->
<g id="node10" class="node">
<title>Node10</title>
<g id="a_node10"><a xlink:title=" ">
<polygon fill="white" stroke="#bfbfbf" points="436,-67.5 436,-97.5 585,-97.5 585,-67.5 436,-67.5"/>
<text text-anchor="start" x="444" y="-85.5" font-family="Helvetica,sans-Serif" font-size="10.00">std::shared_ptr&lt; MetaData</text>
<text text-anchor="middle" x="510.5" y="-74.5" font-family="Helvetica,sans-Serif" font-size="10.00">DictionaryMapType &gt;</text>
</a>
</g>
</g>
<!-- Node10&#45;&gt;Node9 -->
<g id="edge9" class="edge">
<title>Node10&#45;&gt;Node9</title>
<path fill="none" stroke="#9a32cd" stroke-dasharray="5,2" d="M595.34,-84.04C634.65,-84.76 680.82,-85.61 717.65,-86.28"/>
<polygon fill="#9a32cd" stroke="#9a32cd" points="595.3,-80.54 585.24,-83.85 595.18,-87.54 595.3,-80.54"/>
<text text-anchor="middle" x="651.5" y="-88.5" font-family="Helvetica,sans-Serif" font-size="10.00"> m_Dictionary</text>
</g>
<!-- Node11&#45;&gt;Node10 -->
<g id="edge10" class="edge">
<title>Node11&#45;&gt;Node10</title>
<path fill="none" stroke="#9a32cd" stroke-dasharray="5,2" d="M233.71,-82.5C290.23,-82.5 375.21,-82.5 435.9,-82.5"/>
<polygon fill="#9a32cd" stroke="#9a32cd" points="233.5,-79 223.5,-82.5 233.5,-86 233.5,-79"/>
<text text-anchor="middle" x="334" y="-85.5" font-family="Helvetica,sans-Serif" font-size="10.00"> ptr</text>
</g>
<!-- Node12 -->
<g id="node12" class="node">
<title>Node12</title>
<g id="a_node12"><a xlink:title=" ">
<polygon fill="white" stroke="#bfbfbf" points="0,-58 0,-77 29,-77 29,-58 0,-58"/>
<text text-anchor="middle" x="14.5" y="-65" font-family="Helvetica,sans-Serif" font-size="10.00">K</text>
</a>
</g>
</g>
<!-- Node12&#45;&gt;Node11 -->
<g id="edge11" class="edge">
<title>Node12&#45;&gt;Node11</title>
<path fill="none" stroke="#9a32cd" stroke-dasharray="5,2" d="M39.33,-66.74C55.39,-66.49 77.01,-66.65 96,-68.5 106.15,-69.49 116.97,-71.13 127.17,-72.94"/>
<polygon fill="#9a32cd" stroke="#9a32cd" points="39.13,-63.24 29.21,-66.96 39.29,-70.24 39.13,-63.24"/>
<text text-anchor="middle" x="71.5" y="-71.5" font-family="Helvetica,sans-Serif" font-size="10.00"> keys</text>
</g>
<!-- Node13&#45;&gt;Node10 -->
<g id="edge13" class="edge">
<title>Node13&#45;&gt;Node10</title>
<path fill="none" stroke="orange" stroke-dasharray="5,2" d="M242.38,-123.06C291.32,-116.22 358.77,-106.6 418,-97.5 423.73,-96.62 429.65,-95.69 435.61,-94.74"/>
<polygon fill="orange" stroke="orange" points="241.64,-119.63 232.22,-124.48 242.61,-126.57 241.64,-119.63"/>
<text text-anchor="middle" x="334" y="-123.5" font-family="Helvetica,sans-Serif" font-size="10.00"> &lt; MetaDataDictionaryMapType &gt;</text>
</g>
<!-- Node14&#45;&gt;Node2 -->
<g id="edge15" class="edge">
<title>Node14&#45;&gt;Node2</title>
<path fill="none" stroke="#9a32cd" stroke-dasharray="5,2" d="M707.94,-173.91C774.32,-171.84 888.85,-167.73 987,-161.5 999.38,-160.71 1012.97,-159.61 1024.88,-158.57"/>
<polygon fill="#9a32cd" stroke="#9a32cd" points="707.6,-170.42 697.71,-174.23 707.81,-177.42 707.6,-170.42"/>
<text text-anchor="middle" x="785" y="-176.5" font-family="Helvetica,sans-Serif" font-size="10.00"> m_MTime</text>
</g>
<!-- Node15 -->
<g id="node15" class="node">
<title>Node15</title>
<g id="a_node15"><a xlink:href="classitk_1_1SmartPointer.html" target="_top" xlink:title=" ">
<polygon fill="white" stroke="black" points="1005,-49.5 1005,-79.5 1112,-79.5 1112,-49.5 1005,-49.5"/>
<text text-anchor="start" x="1013" y="-67.5" font-family="Helvetica,sans-Serif" font-size="10.00">itk::SmartPointer&lt;</text>
<text text-anchor="middle" x="1058.5" y="-56.5" font-family="Helvetica,sans-Serif" font-size="10.00"> const Self &gt;</text>
</a>
</g>
</g>
<!-- Node15&#45;&gt;Node1 -->
<g id="edge17" class="edge">
<title>Node15&#45;&gt;Node1</title>
<path fill="none" stroke="#9a32cd" stroke-dasharray="5,2" d="M1122.3,-73.85C1163.13,-79.93 1216.2,-87.83 1257.3,-93.94"/>
<polygon fill="#9a32cd" stroke="#9a32cd" points="1122.61,-70.36 1112.2,-72.35 1121.58,-77.28 1122.61,-70.36"/>
<text text-anchor="middle" x="1181.5" y="-92.5" font-family="Helvetica,sans-Serif" font-size="10.00"> m_InputHolder</text>
</g>
<!-- Node16 -->
<g id="node16" class="node">
<title>Node16</title>
<g id="a_node16"><a xlink:href="classitk_1_1SmartPointer.html" target="_top" xlink:title="Implements transparent reference counting.">
<polygon fill="white" stroke="black" points="731.5,-20.5 731.5,-50.5 838.5,-50.5 838.5,-20.5 731.5,-20.5"/>
<text text-anchor="start" x="739.5" y="-38.5" font-family="Helvetica,sans-Serif" font-size="10.00">itk::SmartPointer&lt;</text>
<text text-anchor="middle" x="785" y="-27.5" font-family="Helvetica,sans-Serif" font-size="10.00"> TObjectType &gt;</text>
</a>
</g>
</g>
<!-- Node16&#45;&gt;Node15 -->
<g id="edge18" class="edge">
<title>Node16&#45;&gt;Node15</title>
<path fill="none" stroke="orange" stroke-dasharray="5,2" d="M848.96,-41.93C888.59,-46.02 940.8,-51.46 987,-56.5 992.76,-57.13 998.77,-57.79 1004.76,-58.46"/>
<polygon fill="orange" stroke="orange" points="849.22,-38.44 838.91,-40.9 848.5,-45.4 849.22,-38.44"/>
<text text-anchor="middle" x="928.5" y="-59.5" font-family="Helvetica,sans-Serif" font-size="10.00"> &lt; const Self &gt;</text>
</g>
<!-- Node17 -->
<g id="node17" class="node">
<title>Node17</title>
<g id="a_node17"><a xlink:href="classitk_1_1SmartPointer.html" target="_top" xlink:title=" ">
<polygon fill="white" stroke="black" points="1005,-0.5 1005,-30.5 1112,-30.5 1112,-0.5 1005,-0.5"/>
<text text-anchor="start" x="1013" y="-18.5" font-family="Helvetica,sans-Serif" font-size="10.00">itk::SmartPointer&lt;</text>
<text text-anchor="middle" x="1058.5" y="-7.5" font-family="Helvetica,sans-Serif" font-size="10.00"> Self &gt;</text>
</a>
</g>
</g>
<!-- Node16&#45;&gt;Node17 -->
<g id="edge20" class="edge">
<title>Node16&#45;&gt;Node17</title>
<path fill="none" stroke="orange" stroke-dasharray="5,2" d="M848.99,-23.2C856.06,-22.13 863.17,-21.2 870,-20.5 915.35,-15.87 967.18,-14.81 1004.83,-14.8"/>
<polygon fill="orange" stroke="orange" points="848.03,-19.81 838.7,-24.84 849.13,-26.72 848.03,-19.81"/>
<text text-anchor="middle" x="928.5" y="-23.5" font-family="Helvetica,sans-Serif" font-size="10.00"> &lt; Self &gt;</text>
</g>
<!-- Node17&#45;&gt;Node1 -->
<g id="edge19" class="edge">
<title>Node17&#45;&gt;Node1</title>
<path fill="none" stroke="#9a32cd" stroke-dasharray="5,2" d="M1122.26,-22.34C1155.91,-27.34 1197.61,-35.75 1233,-49.5 1262.19,-60.85 1292.59,-81.71 1309.06,-93.92"/>
<polygon fill="#9a32cd" stroke="#9a32cd" points="1122.49,-18.83 1112.09,-20.89 1121.5,-25.76 1122.49,-18.83"/>
<text text-anchor="middle" x="1181.5" y="-63.5" font-family="Helvetica,sans-Serif" font-size="10.00"> m_Logger</text>
<text text-anchor="middle" x="1181.5" y="-52.5" font-family="Helvetica,sans-Serif" font-size="10.00">m_IntermediateDOM</text>
</g>
</g>
</svg>
