<?xml version="1.0" encoding="UTF-8" standalone="no"?>
<!DOCTYPE svg PUBLIC "-//W3C//DTD SVG 1.1//EN"
 "http://www.w3.org/Graphics/SVG/1.1/DTD/svg11.dtd">
<!-- Generated by graphviz version 2.43.0 (0)
 -->
<!-- Title: itk::Statistics::ScalarImageToRunLengthMatrixFilter&lt; TImageType, THistogramFrequencyContainer &gt; Pages: 1 -->
<svg width="1907pt" height="614pt"
 viewBox="0.00 0.00 1907.00 613.50" xmlns="http://www.w3.org/2000/svg" xmlns:xlink="http://www.w3.org/1999/xlink">
<g id="graph0" class="graph" transform="scale(1 1) rotate(0) translate(4 609.5)">
<title>itk::Statistics::ScalarImageToRunLengthMatrixFilter&lt; TImageType, THistogramFrequencyContainer &gt;</title>
<polygon fill="white" stroke="transparent" points="-4,4 -4,-609.5 1903,-609.5 1903,4 -4,4"/>
<!-- Node1 -->
<g id="node1" class="node">
<title>Node1</title>
<g id="a_node1"><a xlink:title="This class computes a run length matrix (histogram) from a given image and a mask image if provided....">
<polygon fill="#bfbfbf" stroke="black" points="1699,-86.5 1699,-138.5 1899,-138.5 1899,-86.5 1699,-86.5"/>
<text text-anchor="start" x="1707" y="-126.5" font-family="Helvetica,sans-Serif" font-size="10.00">itk::Statistics::ScalarImage</text>
<text text-anchor="start" x="1707" y="-115.5" font-family="Helvetica,sans-Serif" font-size="10.00">ToRunLengthMatrixFilter</text>
<text text-anchor="start" x="1707" y="-104.5" font-family="Helvetica,sans-Serif" font-size="10.00">&lt; TImageType, THistogramFrequency</text>
<text text-anchor="middle" x="1799" y="-93.5" font-family="Helvetica,sans-Serif" font-size="10.00">Container &gt;</text>
</a>
</g>
</g>
<!-- Node2 -->
<g id="node2" class="node">
<title>Node2</title>
<g id="a_node2"><a xlink:href="classitk_1_1ProcessObject.html" target="_top" xlink:title="The base class for all process objects (source, filters, mappers) in the Insight data processing pipe...">
<polygon fill="white" stroke="black" points="1477,-354 1477,-373 1581,-373 1581,-354 1477,-354"/>
<text text-anchor="middle" x="1529" y="-361" font-family="Helvetica,sans-Serif" font-size="10.00">itk::ProcessObject</text>
</a>
</g>
</g>
<!-- Node2&#45;&gt;Node1 -->
<g id="edge1" class="edge">
<title>Node2&#45;&gt;Node1</title>
<path fill="none" stroke="midnightblue" d="M1547.5,-347.11C1592.93,-304.57 1714.88,-190.35 1770.12,-138.61"/>
<polygon fill="midnightblue" stroke="midnightblue" points="1545.08,-344.58 1540.18,-353.97 1549.87,-349.69 1545.08,-344.58"/>
</g>
<!-- Node3 -->
<g id="node3" class="node">
<title>Node3</title>
<g id="a_node3"><a xlink:href="classitk_1_1Object.html" target="_top" xlink:title="Base class for most ITK classes.">
<polygon fill="white" stroke="black" points="1181,-393 1181,-412 1248,-412 1248,-393 1181,-393"/>
<text text-anchor="middle" x="1214.5" y="-400" font-family="Helvetica,sans-Serif" font-size="10.00">itk::Object</text>
</a>
</g>
</g>
<!-- Node3&#45;&gt;Node2 -->
<g id="edge2" class="edge">
<title>Node3&#45;&gt;Node2</title>
<path fill="none" stroke="midnightblue" d="M1258.51,-399.36C1307.29,-395.51 1389.14,-388.15 1459,-377.5 1467.22,-376.25 1475.94,-374.67 1484.31,-373.04"/>
<polygon fill="midnightblue" stroke="midnightblue" points="1258.02,-395.89 1248.32,-400.16 1258.56,-402.87 1258.02,-395.89"/>
</g>
<!-- Node4 -->
<g id="node4" class="node">
<title>Node4</title>
<g id="a_node4"><a xlink:href="classitk_1_1LightObject.html" target="_top" xlink:title="Light weight base class for most itk classes.">
<polygon fill="white" stroke="black" points="837,-473 837,-492 928,-492 928,-473 837,-473"/>
<text text-anchor="middle" x="882.5" y="-480" font-family="Helvetica,sans-Serif" font-size="10.00">itk::LightObject</text>
</a>
</g>
</g>
<!-- Node4&#45;&gt;Node3 -->
<g id="edge3" class="edge">
<title>Node4&#45;&gt;Node3</title>
<path fill="none" stroke="midnightblue" d="M938.3,-478.22C985.15,-473.59 1053.99,-464.47 1112,-447.5 1120.19,-445.1 1165.57,-424.51 1192.81,-412.03"/>
<polygon fill="midnightblue" stroke="midnightblue" points="937.68,-474.76 928.06,-479.19 938.35,-481.73 937.68,-474.76"/>
</g>
<!-- Node5 -->
<g id="node5" class="node">
<title>Node5</title>
<g id="a_node5"><a xlink:title=" ">
<polygon fill="white" stroke="#bfbfbf" points="492,-473 492,-492 599,-492 599,-473 492,-473"/>
<text text-anchor="middle" x="545.5" y="-480" font-family="Helvetica,sans-Serif" font-size="10.00">std::atomic&lt; int &gt;</text>
</a>
</g>
</g>
<!-- Node5&#45;&gt;Node4 -->
<g id="edge4" class="edge">
<title>Node5&#45;&gt;Node4</title>
<path fill="none" stroke="#9a32cd" stroke-dasharray="5,2" d="M609.53,-482.5C675.83,-482.5 778.47,-482.5 836.86,-482.5"/>
<polygon fill="#9a32cd" stroke="#9a32cd" points="609.21,-479 599.21,-482.5 609.21,-486 609.21,-479"/>
<text text-anchor="middle" x="721.5" y="-485.5" font-family="Helvetica,sans-Serif" font-size="10.00"> m_ReferenceCount</text>
</g>
<!-- Node6 -->
<g id="node6" class="node">
<title>Node6</title>
<g id="a_node6"><a xlink:title="STL class.">
<polygon fill="white" stroke="#bfbfbf" points="135.5,-452 135.5,-471 235.5,-471 235.5,-452 135.5,-452"/>
<text text-anchor="middle" x="185.5" y="-459" font-family="Helvetica,sans-Serif" font-size="10.00">std::atomic&lt; T &gt;</text>
</a>
</g>
</g>
<!-- Node6&#45;&gt;Node5 -->
<g id="edge5" class="edge">
<title>Node6&#45;&gt;Node5</title>
<path fill="none" stroke="orange" stroke-dasharray="5,2" d="M245.74,-464.98C314.37,-469 426.38,-475.57 492,-479.42"/>
<polygon fill="orange" stroke="orange" points="245.72,-461.47 235.53,-464.38 245.31,-468.46 245.72,-461.47"/>
<text text-anchor="middle" x="359" y="-478.5" font-family="Helvetica,sans-Serif" font-size="10.00"> &lt; int &gt;</text>
</g>
<!-- Node15 -->
<g id="node15" class="node">
<title>Node15</title>
<g id="a_node15"><a xlink:href="classitk_1_1TimeStamp.html" target="_top" xlink:title="Generate a unique, increasing time value.">
<polygon fill="white" stroke="black" points="836.5,-434 836.5,-453 928.5,-453 928.5,-434 836.5,-434"/>
<text text-anchor="middle" x="882.5" y="-441" font-family="Helvetica,sans-Serif" font-size="10.00">itk::TimeStamp</text>
</a>
</g>
</g>
<!-- Node6&#45;&gt;Node15 -->
<g id="edge17" class="edge">
<title>Node6&#45;&gt;Node15</title>
<path fill="none" stroke="#9a32cd" stroke-dasharray="5,2" d="M245.61,-459.37C301.19,-457.41 386.74,-454.51 461,-452.5 597.68,-448.8 759.38,-445.7 836.38,-444.3"/>
<polygon fill="#9a32cd" stroke="#9a32cd" points="245.46,-455.87 235.59,-459.72 245.7,-462.87 245.46,-455.87"/>
<text text-anchor="middle" x="545.5" y="-455.5" font-family="Helvetica,sans-Serif" font-size="10.00"> m_GlobalTimeStamp</text>
</g>
<!-- Node19 -->
<g id="node19" class="node">
<title>Node19</title>
<g id="a_node19"><a xlink:title=" ">
<polygon fill="white" stroke="#bfbfbf" points="654.5,-511 654.5,-530 788.5,-530 788.5,-511 654.5,-511"/>
<text text-anchor="middle" x="721.5" y="-518" font-family="Helvetica,sans-Serif" font-size="10.00">std::atomic&lt; uint32_t &gt;</text>
</a>
</g>
</g>
<!-- Node6&#45;&gt;Node19 -->
<g id="edge26" class="edge">
<title>Node6&#45;&gt;Node19</title>
<path fill="none" stroke="orange" stroke-dasharray="5,2" d="M219.77,-474.58C236.14,-480.46 256.34,-486.87 275,-490.5 407.79,-516.31 566.54,-520.87 654.17,-521.16"/>
<polygon fill="orange" stroke="orange" points="220.7,-471.2 210.11,-471.02 218.28,-477.77 220.7,-471.2"/>
<text text-anchor="middle" x="359" y="-514.5" font-family="Helvetica,sans-Serif" font-size="10.00"> &lt; uint32_t &gt;</text>
</g>
<!-- Node7 -->
<g id="node7" class="node">
<title>Node7</title>
<g id="a_node7"><a xlink:title=" ">
<polygon fill="white" stroke="#bfbfbf" points="0,-426 0,-445 29,-445 29,-426 0,-426"/>
<text text-anchor="middle" x="14.5" y="-433" font-family="Helvetica,sans-Serif" font-size="10.00">T</text>
</a>
</g>
</g>
<!-- Node7&#45;&gt;Node6 -->
<g id="edge6" class="edge">
<title>Node7&#45;&gt;Node6</title>
<path fill="none" stroke="#9a32cd" stroke-dasharray="5,2" d="M39,-439.11C63.8,-442.93 103.63,-449.06 135.35,-453.94"/>
<polygon fill="#9a32cd" stroke="#9a32cd" points="39.46,-435.65 29.04,-437.58 38.4,-442.56 39.46,-435.65"/>
<text text-anchor="middle" x="71.5" y="-450.5" font-family="Helvetica,sans-Serif" font-size="10.00"> ptr</text>
</g>
<!-- Node12 -->
<g id="node12" class="node">
<title>Node12</title>
<g id="a_node12"><a xlink:title="STL class.">
<polygon fill="white" stroke="#bfbfbf" points="135,-321 135,-340 236,-340 236,-321 135,-321"/>
<text text-anchor="middle" x="185.5" y="-328" font-family="Helvetica,sans-Serif" font-size="10.00">std::map&lt; K, T &gt;</text>
</a>
</g>
</g>
<!-- Node7&#45;&gt;Node12 -->
<g id="edge13" class="edge">
<title>Node7&#45;&gt;Node12</title>
<path fill="none" stroke="#9a32cd" stroke-dasharray="5,2" d="M28.75,-417.67C33.97,-411.42 40.32,-404.67 47,-399.5 82.07,-372.37 129.47,-351.41 158.47,-340.03"/>
<polygon fill="#9a32cd" stroke="#9a32cd" points="25.86,-415.69 22.4,-425.7 31.35,-420.03 25.86,-415.69"/>
<text text-anchor="middle" x="71.5" y="-402.5" font-family="Helvetica,sans-Serif" font-size="10.00"> elements</text>
</g>
<!-- Node14 -->
<g id="node14" class="node">
<title>Node14</title>
<g id="a_node14"><a xlink:title="STL class.">
<polygon fill="white" stroke="#bfbfbf" points="126.5,-394 126.5,-413 244.5,-413 244.5,-394 126.5,-394"/>
<text text-anchor="middle" x="185.5" y="-401" font-family="Helvetica,sans-Serif" font-size="10.00">std::shared_ptr&lt; T &gt;</text>
</a>
</g>
</g>
<!-- Node7&#45;&gt;Node14 -->
<g id="edge15" class="edge">
<title>Node7&#45;&gt;Node14</title>
<path fill="none" stroke="#9a32cd" stroke-dasharray="5,2" d="M38.74,-426.85C41.5,-425.98 44.3,-425.17 47,-424.5 72.78,-418.09 101.79,-413.31 126.5,-409.94"/>
<polygon fill="#9a32cd" stroke="#9a32cd" points="37.47,-423.58 29.13,-430.12 39.73,-430.21 37.47,-423.58"/>
<text text-anchor="middle" x="71.5" y="-427.5" font-family="Helvetica,sans-Serif" font-size="10.00"> ptr</text>
</g>
<!-- Node22 -->
<g id="node22" class="node">
<title>Node22</title>
<g id="a_node22"><a xlink:title="STL class.">
<polygon fill="white" stroke="#bfbfbf" points="137,-582 137,-601 234,-601 234,-582 137,-582"/>
<text text-anchor="middle" x="185.5" y="-589" font-family="Helvetica,sans-Serif" font-size="10.00">std::vector&lt; T &gt;</text>
</a>
</g>
</g>
<!-- Node7&#45;&gt;Node22 -->
<g id="edge30" class="edge">
<title>Node7&#45;&gt;Node22</title>
<path fill="none" stroke="#9a32cd" stroke-dasharray="5,2" d="M23.91,-454.5C38.09,-484.3 69.61,-541.78 114,-572.5 120.78,-577.19 128.66,-580.72 136.64,-583.38"/>
<polygon fill="#9a32cd" stroke="#9a32cd" points="26.99,-452.82 19.63,-445.21 20.63,-455.75 26.99,-452.82"/>
<text text-anchor="middle" x="71.5" y="-557.5" font-family="Helvetica,sans-Serif" font-size="10.00"> elements</text>
</g>
<!-- Node8 -->
<g id="node8" class="node">
<title>Node8</title>
<g id="a_node8"><a xlink:title="STL class.">
<polygon fill="white" stroke="#bfbfbf" points="850,-234 850,-253 915,-253 915,-234 850,-234"/>
<text text-anchor="middle" x="882.5" y="-241" font-family="Helvetica,sans-Serif" font-size="10.00">std::string</text>
</a>
</g>
</g>
<!-- Node8&#45;&gt;Node3 -->
<g id="edge7" class="edge">
<title>Node8&#45;&gt;Node3</title>
<path fill="none" stroke="#9a32cd" stroke-dasharray="5,2" d="M910.95,-257.74C927.74,-266.14 949.81,-276.63 970,-284.5 1031.56,-308.49 1064.24,-282.85 1112,-328.5 1129.07,-344.82 1112.76,-362.36 1130,-378.5 1143.65,-391.28 1163.67,-397.31 1180.68,-400.13"/>
<polygon fill="#9a32cd" stroke="#9a32cd" points="912.23,-254.47 901.73,-253.07 909.07,-260.71 912.23,-254.47"/>
<text text-anchor="middle" x="1041" y="-331.5" font-family="Helvetica,sans-Serif" font-size="10.00"> m_ObjectName</text>
</g>
<!-- Node16 -->
<g id="node16" class="node">
<title>Node16</title>
<g id="a_node16"><a xlink:title=" ">
<polygon fill="white" stroke="#bfbfbf" points="1133.5,-155.5 1133.5,-185.5 1295.5,-185.5 1295.5,-155.5 1133.5,-155.5"/>
<text text-anchor="start" x="1141.5" y="-173.5" font-family="Helvetica,sans-Serif" font-size="10.00">std::set&lt; DataObjectIdentifier</text>
<text text-anchor="middle" x="1214.5" y="-162.5" font-family="Helvetica,sans-Serif" font-size="10.00">Type &gt;</text>
</a>
</g>
</g>
<!-- Node8&#45;&gt;Node16 -->
<g id="edge19" class="edge">
<title>Node8&#45;&gt;Node16</title>
<path fill="none" stroke="#9a32cd" stroke-dasharray="5,2" d="M925.04,-238.78C934.85,-235.95 944.6,-231.49 952,-224.5 970.08,-207.42 949.81,-186.03 970,-171.5 1026.79,-130.63 1111.92,-142.19 1165.01,-155.47"/>
<polygon fill="#9a32cd" stroke="#9a32cd" points="924.21,-235.38 915.3,-241.11 925.84,-242.19 924.21,-235.38"/>
<text text-anchor="middle" x="1041" y="-174.5" font-family="Helvetica,sans-Serif" font-size="10.00"> keys</text>
</g>
<!-- Node18 -->
<g id="node18" class="node">
<title>Node18</title>
<g id="a_node18"><a xlink:title=" ">
<polygon fill="white" stroke="#bfbfbf" points="1130,-223.5 1130,-253.5 1299,-253.5 1299,-223.5 1130,-223.5"/>
<text text-anchor="start" x="1138" y="-241.5" font-family="Helvetica,sans-Serif" font-size="10.00">std::map&lt; DataObjectIdentifier</text>
<text text-anchor="middle" x="1214.5" y="-230.5" font-family="Helvetica,sans-Serif" font-size="10.00">Type, bool &gt;</text>
</a>
</g>
</g>
<!-- Node8&#45;&gt;Node18 -->
<g id="edge23" class="edge">
<title>Node8&#45;&gt;Node18</title>
<path fill="none" stroke="#9a32cd" stroke-dasharray="5,2" d="M925.12,-241.22C939.35,-240.53 955.37,-239.87 970,-239.5 1023.14,-238.16 1082.83,-237.9 1129.81,-237.97"/>
<polygon fill="#9a32cd" stroke="#9a32cd" points="924.94,-237.72 915.12,-241.72 925.29,-244.72 924.94,-237.72"/>
<text text-anchor="middle" x="1041" y="-242.5" font-family="Helvetica,sans-Serif" font-size="10.00"> keys</text>
</g>
<!-- Node23 -->
<g id="node23" class="node">
<title>Node23</title>
<g id="a_node23"><a xlink:title=" ">
<polygon fill="white" stroke="#bfbfbf" points="1130,-284.5 1130,-314.5 1299,-314.5 1299,-284.5 1130,-284.5"/>
<text text-anchor="start" x="1138" y="-302.5" font-family="Helvetica,sans-Serif" font-size="10.00">std::map&lt; DataObjectIdentifier</text>
<text text-anchor="middle" x="1214.5" y="-291.5" font-family="Helvetica,sans-Serif" font-size="10.00">Type, DataObjectPointer &gt;</text>
</a>
</g>
</g>
<!-- Node8&#45;&gt;Node23 -->
<g id="edge34" class="edge">
<title>Node8&#45;&gt;Node23</title>
<path fill="none" stroke="#9a32cd" stroke-dasharray="5,2" d="M925.29,-247.46C971.29,-252.18 1047.31,-261.01 1112,-273.5 1127.63,-276.52 1144.43,-280.51 1159.78,-284.46"/>
<polygon fill="#9a32cd" stroke="#9a32cd" points="925.41,-243.96 915.11,-246.44 924.71,-250.92 925.41,-243.96"/>
<text text-anchor="middle" x="1041" y="-276.5" font-family="Helvetica,sans-Serif" font-size="10.00"> keys</text>
</g>
<!-- Node9 -->
<g id="node9" class="node">
<title>Node9</title>
<g id="a_node9"><a xlink:title="STL class.">
<polygon fill="white" stroke="#bfbfbf" points="493.5,-222.5 493.5,-252.5 597.5,-252.5 597.5,-222.5 493.5,-222.5"/>
<text text-anchor="start" x="501.5" y="-240.5" font-family="Helvetica,sans-Serif" font-size="10.00">std::basic_string&lt;</text>
<text text-anchor="middle" x="545.5" y="-229.5" font-family="Helvetica,sans-Serif" font-size="10.00"> char &gt;</text>
</a>
</g>
</g>
<!-- Node9&#45;&gt;Node8 -->
<g id="edge8" class="edge">
<title>Node9&#45;&gt;Node8</title>
<path fill="none" stroke="midnightblue" d="M607.96,-238.6C679.42,-239.88 794.62,-241.94 849.91,-242.93"/>
<polygon fill="midnightblue" stroke="midnightblue" points="607.81,-235.1 597.74,-238.42 607.68,-242.1 607.81,-235.1"/>
</g>
<!-- Node10 -->
<g id="node10" class="node">
<title>Node10</title>
<g id="a_node10"><a xlink:href="classitk_1_1MetaDataDictionary.html" target="_top" xlink:title="Provides a mechanism for storing a collection of arbitrary data types.">
<polygon fill="white" stroke="black" points="815.5,-396 815.5,-415 949.5,-415 949.5,-396 815.5,-396"/>
<text text-anchor="middle" x="882.5" y="-403" font-family="Helvetica,sans-Serif" font-size="10.00">itk::MetaDataDictionary</text>
</a>
</g>
</g>
<!-- Node10&#45;&gt;Node3 -->
<g id="edge9" class="edge">
<title>Node10&#45;&gt;Node3</title>
<path fill="none" stroke="#9a32cd" stroke-dasharray="5,2" d="M959.91,-403.65C963.32,-403.6 966.7,-403.54 970,-403.5 1045.45,-402.47 1134.07,-402.39 1180.81,-402.44"/>
<polygon fill="#9a32cd" stroke="#9a32cd" points="959.55,-400.16 949.62,-403.84 959.68,-407.16 959.55,-400.16"/>
<text text-anchor="middle" x="1041" y="-406.5" font-family="Helvetica,sans-Serif" font-size="10.00"> m_MetaDataDictionary</text>
</g>
<!-- Node11 -->
<g id="node11" class="node">
<title>Node11</title>
<g id="a_node11"><a xlink:title=" ">
<polygon fill="white" stroke="#bfbfbf" points="471,-376.5 471,-406.5 620,-406.5 620,-376.5 471,-376.5"/>
<text text-anchor="start" x="479" y="-394.5" font-family="Helvetica,sans-Serif" font-size="10.00">std::shared_ptr&lt; MetaData</text>
<text text-anchor="middle" x="545.5" y="-383.5" font-family="Helvetica,sans-Serif" font-size="10.00">DictionaryMapType &gt;</text>
</a>
</g>
</g>
<!-- Node11&#45;&gt;Node10 -->
<g id="edge10" class="edge">
<title>Node11&#45;&gt;Node10</title>
<path fill="none" stroke="#9a32cd" stroke-dasharray="5,2" d="M630.12,-394.99C687.34,-397.39 762.16,-400.51 815.25,-402.73"/>
<polygon fill="#9a32cd" stroke="#9a32cd" points="630.15,-391.49 620.02,-394.57 629.86,-398.49 630.15,-391.49"/>
<text text-anchor="middle" x="721.5" y="-404.5" font-family="Helvetica,sans-Serif" font-size="10.00"> m_Dictionary</text>
</g>
<!-- Node12&#45;&gt;Node11 -->
<g id="edge11" class="edge">
<title>Node12&#45;&gt;Node11</title>
<path fill="none" stroke="#9a32cd" stroke-dasharray="5,2" d="M246.26,-340.68C308.02,-351.21 404.52,-367.65 470.93,-378.96"/>
<polygon fill="#9a32cd" stroke="#9a32cd" points="246.72,-337.21 236.28,-338.98 245.55,-344.11 246.72,-337.21"/>
<text text-anchor="middle" x="359" y="-375.5" font-family="Helvetica,sans-Serif" font-size="10.00"> ptr</text>
</g>
<!-- Node12&#45;&gt;Node18 -->
<g id="edge24" class="edge">
<title>Node12&#45;&gt;Node18</title>
<path fill="none" stroke="orange" stroke-dasharray="5,2" d="M213.29,-316.04C261.38,-290.79 366.21,-238.93 461,-213.5 531.18,-194.68 1051.67,-111 1112,-151.5 1129.54,-163.28 1115.73,-179.92 1130,-195.5 1141.02,-207.52 1156.17,-216.71 1170.54,-223.45"/>
<polygon fill="orange" stroke="orange" points="211.38,-313.1 204.18,-320.87 214.66,-319.28 211.38,-313.1"/>
<text text-anchor="start" x="652" y="-192.5" font-family="Helvetica,sans-Serif" font-size="10.00"> &lt; DataObjectIdentifierType,</text>
<text text-anchor="middle" x="721.5" y="-181.5" font-family="Helvetica,sans-Serif" font-size="10.00"> bool &gt;</text>
</g>
<!-- Node12&#45;&gt;Node23 -->
<g id="edge35" class="edge">
<title>Node12&#45;&gt;Node23</title>
<path fill="none" stroke="orange" stroke-dasharray="5,2" d="M246.53,-333.28C394.21,-339.36 786.81,-350.8 1112,-318.5 1121.63,-317.54 1131.72,-316.14 1141.64,-314.53"/>
<polygon fill="orange" stroke="orange" points="246.47,-329.78 236.33,-332.86 246.17,-336.77 246.47,-329.78"/>
<text text-anchor="start" x="652" y="-353.5" font-family="Helvetica,sans-Serif" font-size="10.00"> &lt; DataObjectIdentifierType,</text>
<text text-anchor="middle" x="721.5" y="-342.5" font-family="Helvetica,sans-Serif" font-size="10.00"> DataObjectPointer &gt;</text>
</g>
<!-- Node13 -->
<g id="node13" class="node">
<title>Node13</title>
<g id="a_node13"><a xlink:title=" ">
<polygon fill="white" stroke="#bfbfbf" points="0,-238 0,-257 29,-257 29,-238 0,-238"/>
<text text-anchor="middle" x="14.5" y="-245" font-family="Helvetica,sans-Serif" font-size="10.00">K</text>
</a>
</g>
</g>
<!-- Node13&#45;&gt;Node12 -->
<g id="edge12" class="edge">
<title>Node13&#45;&gt;Node12</title>
<path fill="none" stroke="#9a32cd" stroke-dasharray="5,2" d="M38.04,-258.57C71.44,-274.97 133.51,-305.46 165.04,-320.94"/>
<polygon fill="#9a32cd" stroke="#9a32cd" points="39.56,-255.42 29.04,-254.15 36.48,-261.7 39.56,-255.42"/>
<text text-anchor="middle" x="71.5" y="-289.5" font-family="Helvetica,sans-Serif" font-size="10.00"> keys</text>
</g>
<!-- Node17 -->
<g id="node17" class="node">
<title>Node17</title>
<g id="a_node17"><a xlink:title="STL class.">
<polygon fill="white" stroke="#bfbfbf" points="318,-91 318,-110 400,-110 400,-91 318,-91"/>
<text text-anchor="middle" x="359" y="-98" font-family="Helvetica,sans-Serif" font-size="10.00">std::set&lt; K &gt;</text>
</a>
</g>
</g>
<!-- Node13&#45;&gt;Node17 -->
<g id="edge21" class="edge">
<title>Node13&#45;&gt;Node17</title>
<path fill="none" stroke="#9a32cd" stroke-dasharray="5,2" d="M37.98,-235.1C82.26,-211.03 184.38,-157.41 275,-123.5 288.72,-118.36 304.1,-113.79 317.86,-110.1"/>
<polygon fill="#9a32cd" stroke="#9a32cd" points="36.29,-232.03 29.19,-239.9 39.64,-238.17 36.29,-232.03"/>
<text text-anchor="middle" x="71.5" y="-231.5" font-family="Helvetica,sans-Serif" font-size="10.00"> keys</text>
</g>
<!-- Node14&#45;&gt;Node11 -->
<g id="edge14" class="edge">
<title>Node14&#45;&gt;Node11</title>
<path fill="none" stroke="orange" stroke-dasharray="5,2" d="M254.85,-401.21C316.62,-399.14 407.3,-396.1 470.69,-393.97"/>
<polygon fill="orange" stroke="orange" points="254.69,-397.71 244.82,-401.55 254.93,-404.71 254.69,-397.71"/>
<text text-anchor="middle" x="359" y="-402.5" font-family="Helvetica,sans-Serif" font-size="10.00"> &lt; MetaDataDictionaryMapType &gt;</text>
</g>
<!-- Node15&#45;&gt;Node2 -->
<g id="edge38" class="edge">
<title>Node15&#45;&gt;Node2</title>
<path fill="none" stroke="#9a32cd" stroke-dasharray="5,2" d="M938.98,-446.45C949.29,-446.89 959.97,-447.27 970,-447.5 1188.32,-452.55 1250.98,-465.95 1459,-399.5 1478.82,-393.17 1499.76,-381.43 1513.31,-373.08"/>
<polygon fill="#9a32cd" stroke="#9a32cd" points="938.97,-442.94 928.83,-445.99 938.66,-449.94 938.97,-442.94"/>
<text text-anchor="middle" x="1214.5" y="-454.5" font-family="Helvetica,sans-Serif" font-size="10.00"> m_OutputInformationMTime</text>
</g>
<!-- Node15&#45;&gt;Node3 -->
<g id="edge16" class="edge">
<title>Node15&#45;&gt;Node3</title>
<path fill="none" stroke="#9a32cd" stroke-dasharray="5,2" d="M938.97,-436.61C1008.21,-428.01 1124.37,-413.57 1180.78,-406.56"/>
<polygon fill="#9a32cd" stroke="#9a32cd" points="938.19,-433.18 928.69,-437.89 939.05,-440.13 938.19,-433.18"/>
<text text-anchor="middle" x="1041" y="-435.5" font-family="Helvetica,sans-Serif" font-size="10.00"> m_MTime</text>
</g>
<!-- Node16&#45;&gt;Node2 -->
<g id="edge18" class="edge">
<title>Node16&#45;&gt;Node2</title>
<path fill="none" stroke="#9a32cd" stroke-dasharray="5,2" d="M1305.72,-171.06C1355.47,-175.65 1415.73,-188.71 1459,-222.5 1503.46,-257.22 1521.13,-327.98 1526.27,-353.8"/>
<polygon fill="#9a32cd" stroke="#9a32cd" points="1305.85,-167.56 1295.59,-170.23 1305.27,-174.54 1305.85,-167.56"/>
<text text-anchor="middle" x="1388" y="-225.5" font-family="Helvetica,sans-Serif" font-size="10.00"> m_RequiredInputNames</text>
</g>
<!-- Node17&#45;&gt;Node16 -->
<g id="edge20" class="edge">
<title>Node17&#45;&gt;Node16</title>
<path fill="none" stroke="orange" stroke-dasharray="5,2" d="M410.58,-94.69C533.19,-82.18 855.09,-58.78 1112,-123.5 1139.12,-130.33 1167.84,-144.35 1187.79,-155.31"/>
<polygon fill="orange" stroke="orange" points="409.96,-91.24 400.38,-95.75 410.68,-98.2 409.96,-91.24"/>
<text text-anchor="middle" x="721.5" y="-85.5" font-family="Helvetica,sans-Serif" font-size="10.00"> &lt; DataObjectIdentifierType &gt;</text>
</g>
<!-- Node18&#45;&gt;Node2 -->
<g id="edge22" class="edge">
<title>Node18&#45;&gt;Node2</title>
<path fill="none" stroke="#9a32cd" stroke-dasharray="5,2" d="M1309.2,-237.27C1356.86,-240.43 1414.05,-250.31 1459,-276.5 1491.31,-295.33 1514.28,-335.58 1523.51,-353.98"/>
<polygon fill="#9a32cd" stroke="#9a32cd" points="1309.37,-233.77 1299.18,-236.69 1308.97,-240.76 1309.37,-233.77"/>
<text text-anchor="start" x="1317" y="-290.5" font-family="Helvetica,sans-Serif" font-size="10.00"> m_CachedInputReleaseData</text>
<text text-anchor="middle" x="1388" y="-279.5" font-family="Helvetica,sans-Serif" font-size="10.00">Flags</text>
</g>
<!-- Node19&#45;&gt;Node2 -->
<g id="edge25" class="edge">
<title>Node19&#45;&gt;Node2</title>
<path fill="none" stroke="#9a32cd" stroke-dasharray="5,2" d="M799,-514.51C843.64,-510.93 901.03,-506.18 952,-501.5 1178.52,-480.7 1259.02,-539.9 1459,-431.5 1486.21,-416.75 1509.95,-388.08 1521.15,-373.11"/>
<polygon fill="#9a32cd" stroke="#9a32cd" points="798.5,-511.04 788.81,-515.33 799.06,-518.02 798.5,-511.04"/>
<text text-anchor="middle" x="1041" y="-502.5" font-family="Helvetica,sans-Serif" font-size="10.00"> m_Progress</text>
</g>
<!-- Node20 -->
<g id="node20" class="node">
<title>Node20</title>
<g id="a_node20"><a xlink:title=" ">
<polygon fill="white" stroke="#bfbfbf" points="461,-549.5 461,-579.5 630,-579.5 630,-549.5 461,-549.5"/>
<text text-anchor="start" x="469" y="-567.5" font-family="Helvetica,sans-Serif" font-size="10.00">std::vector&lt; DataObjectPointer</text>
<text text-anchor="middle" x="545.5" y="-556.5" font-family="Helvetica,sans-Serif" font-size="10.00">Map::iterator &gt;</text>
</a>
</g>
</g>
<!-- Node20&#45;&gt;Node2 -->
<g id="edge27" class="edge">
<title>Node20&#45;&gt;Node2</title>
<path fill="none" stroke="#9a32cd" stroke-dasharray="5,2" d="M640.25,-562.29C783.12,-557.88 1063.58,-545.11 1299,-509.5 1371.17,-498.59 1399.46,-514.72 1459,-472.5 1495.54,-446.59 1517.1,-394.64 1524.78,-373.15"/>
<polygon fill="#9a32cd" stroke="#9a32cd" points="640.09,-558.79 630.2,-562.59 640.3,-565.79 640.09,-558.79"/>
<text text-anchor="middle" x="1041" y="-558.5" font-family="Helvetica,sans-Serif" font-size="10.00"> m_IndexedOutputs</text>
<text text-anchor="middle" x="1041" y="-547.5" font-family="Helvetica,sans-Serif" font-size="10.00">m_IndexedInputs</text>
</g>
<!-- Node21 -->
<g id="node21" class="node">
<title>Node21</title>
<g id="a_node21"><a xlink:title="STL iterator class.">
<polygon fill="white" stroke="#bfbfbf" points="114,-544 114,-563 257,-563 257,-544 114,-544"/>
<text text-anchor="middle" x="185.5" y="-551" font-family="Helvetica,sans-Serif" font-size="10.00">std::map&lt; K, T &gt;::iterator</text>
</a>
</g>
</g>
<!-- Node21&#45;&gt;Node20 -->
<g id="edge28" class="edge">
<title>Node21&#45;&gt;Node20</title>
<path fill="none" stroke="#9a32cd" stroke-dasharray="5,2" d="M267.23,-553.66C317.76,-554.03 384.2,-555.02 443,-557.5 448.82,-557.75 454.83,-558.04 460.88,-558.38"/>
<polygon fill="#9a32cd" stroke="#9a32cd" points="267.05,-550.16 257.02,-553.59 267,-557.16 267.05,-550.16"/>
<text text-anchor="middle" x="359" y="-560.5" font-family="Helvetica,sans-Serif" font-size="10.00"> elements</text>
</g>
<!-- Node22&#45;&gt;Node20 -->
<g id="edge29" class="edge">
<title>Node22&#45;&gt;Node20</title>
<path fill="none" stroke="orange" stroke-dasharray="5,2" d="M244.23,-587.15C302.82,-582.73 394.14,-575.84 460.7,-570.82"/>
<polygon fill="orange" stroke="orange" points="243.75,-583.67 234.04,-587.91 244.27,-590.65 243.75,-583.67"/>
<text text-anchor="start" x="296.5" y="-597.5" font-family="Helvetica,sans-Serif" font-size="10.00"> &lt; DataObjectPointerMap</text>
<text text-anchor="middle" x="359" y="-586.5" font-family="Helvetica,sans-Serif" font-size="10.00">::iterator &gt;</text>
</g>
<!-- Node23&#45;&gt;Node2 -->
<g id="edge31" class="edge">
<title>Node23&#45;&gt;Node2</title>
<path fill="none" stroke="#9a32cd" stroke-dasharray="5,2" d="M1309.29,-302.27C1355.23,-305.64 1410.87,-312.73 1459,-327.5 1479.02,-333.64 1500.09,-345.54 1513.6,-353.98"/>
<polygon fill="#9a32cd" stroke="#9a32cd" points="1309.25,-298.76 1299.04,-301.57 1308.78,-305.75 1309.25,-298.76"/>
<text text-anchor="middle" x="1388" y="-341.5" font-family="Helvetica,sans-Serif" font-size="10.00"> m_Outputs</text>
<text text-anchor="middle" x="1388" y="-330.5" font-family="Helvetica,sans-Serif" font-size="10.00">m_Inputs</text>
</g>
<!-- Node24 -->
<g id="node24" class="node">
<title>Node24</title>
<g id="a_node24"><a xlink:href="classitk_1_1SmartPointer.html" target="_top" xlink:title=" ">
<polygon fill="white" stroke="black" points="829,-184.5 829,-214.5 936,-214.5 936,-184.5 829,-184.5"/>
<text text-anchor="start" x="837" y="-202.5" font-family="Helvetica,sans-Serif" font-size="10.00">itk::SmartPointer&lt;</text>
<text text-anchor="middle" x="882.5" y="-191.5" font-family="Helvetica,sans-Serif" font-size="10.00"> Self &gt;</text>
</a>
</g>
</g>
<!-- Node24&#45;&gt;Node1 -->
<g id="edge43" class="edge">
<title>Node24&#45;&gt;Node1</title>
<path fill="none" stroke="#9a32cd" stroke-dasharray="5,2" d="M906.68,-177.42C923,-163.42 946.11,-146.49 970,-138.5 1102.22,-94.27 1509.06,-102.12 1698.74,-108.54"/>
<polygon fill="#9a32cd" stroke="#9a32cd" points="903.96,-175.16 898.8,-184.41 908.61,-180.39 903.96,-175.16"/>
<text text-anchor="middle" x="1388" y="-107.5" font-family="Helvetica,sans-Serif" font-size="10.00"> m_Offsets</text>
</g>
<!-- Node24&#45;&gt;Node23 -->
<g id="edge32" class="edge">
<title>Node24&#45;&gt;Node23</title>
<path fill="none" stroke="#9a32cd" stroke-dasharray="5,2" d="M946.37,-189.74C995.97,-185.55 1064.48,-187.95 1112,-222.5 1128.1,-234.2 1115.88,-249.47 1130,-263.5 1138.96,-272.4 1150.47,-279.25 1162.07,-284.47"/>
<polygon fill="#9a32cd" stroke="#9a32cd" points="946.02,-186.26 936.4,-190.69 946.68,-193.23 946.02,-186.26"/>
<text text-anchor="middle" x="1041" y="-225.5" font-family="Helvetica,sans-Serif" font-size="10.00"> elements</text>
</g>
<!-- Node25 -->
<g id="node25" class="node">
<title>Node25</title>
<g id="a_node25"><a xlink:href="classitk_1_1SmartPointer.html" target="_top" xlink:title="Implements transparent reference counting.">
<polygon fill="white" stroke="black" points="492,-271.5 492,-301.5 599,-301.5 599,-271.5 492,-271.5"/>
<text text-anchor="start" x="500" y="-289.5" font-family="Helvetica,sans-Serif" font-size="10.00">itk::SmartPointer&lt;</text>
<text text-anchor="middle" x="545.5" y="-278.5" font-family="Helvetica,sans-Serif" font-size="10.00"> TObjectType &gt;</text>
</a>
</g>
</g>
<!-- Node25&#45;&gt;Node24 -->
<g id="edge33" class="edge">
<title>Node25&#45;&gt;Node24</title>
<path fill="none" stroke="orange" stroke-dasharray="5,2" d="M609.08,-270.25C672.42,-253.8 769.28,-228.64 828.82,-213.18"/>
<polygon fill="orange" stroke="orange" points="608.01,-266.91 599.21,-272.81 609.77,-273.68 608.01,-266.91"/>
<text text-anchor="middle" x="721.5" y="-260.5" font-family="Helvetica,sans-Serif" font-size="10.00"> &lt; Self &gt;</text>
</g>
<!-- Node26 -->
<g id="node26" class="node">
<title>Node26</title>
<g id="a_node26"><a xlink:href="classitk_1_1SmartPointer.html" target="_top" xlink:title=" ">
<polygon fill="white" stroke="black" points="970,-348.5 970,-378.5 1112,-378.5 1112,-348.5 970,-348.5"/>
<text text-anchor="start" x="978" y="-366.5" font-family="Helvetica,sans-Serif" font-size="10.00">itk::SmartPointer&lt;</text>
<text text-anchor="middle" x="1041" y="-355.5" font-family="Helvetica,sans-Serif" font-size="10.00"> itk::MultiThreaderBase &gt;</text>
</a>
</g>
</g>
<!-- Node25&#45;&gt;Node26 -->
<g id="edge37" class="edge">
<title>Node25&#45;&gt;Node26</title>
<path fill="none" stroke="orange" stroke-dasharray="5,2" d="M609.29,-285.5C659.76,-285.6 732.32,-287.79 795,-297.5 813.94,-300.43 920.31,-329.87 986.52,-348.43"/>
<polygon fill="orange" stroke="orange" points="609.18,-282 599.19,-285.51 609.19,-289 609.18,-282"/>
<text text-anchor="middle" x="721.5" y="-300.5" font-family="Helvetica,sans-Serif" font-size="10.00"> &lt; itk::MultiThreaderBase &gt;</text>
</g>
<!-- Node26&#45;&gt;Node2 -->
<g id="edge36" class="edge">
<title>Node26&#45;&gt;Node2</title>
<path fill="none" stroke="#9a32cd" stroke-dasharray="5,2" d="M1122.26,-363.5C1222.86,-363.5 1392.3,-363.5 1476.83,-363.5"/>
<polygon fill="#9a32cd" stroke="#9a32cd" points="1122.15,-360 1112.15,-363.5 1122.15,-367 1122.15,-360"/>
<text text-anchor="middle" x="1214.5" y="-366.5" font-family="Helvetica,sans-Serif" font-size="10.00"> m_MultiThreader</text>
</g>
<!-- Node27 -->
<g id="node27" class="node">
<title>Node27</title>
<g id="a_node27"><a xlink:href="classitk_1_1NumericTraits.html" target="_top" xlink:title=" ">
<polygon fill="white" stroke="black" points="1477.5,-44.5 1477.5,-74.5 1580.5,-74.5 1580.5,-44.5 1477.5,-44.5"/>
<text text-anchor="start" x="1485.5" y="-62.5" font-family="Helvetica,sans-Serif" font-size="10.00">itk::NumericTraits</text>
<text text-anchor="middle" x="1529" y="-51.5" font-family="Helvetica,sans-Serif" font-size="10.00">&lt; PixelType &gt;</text>
</a>
</g>
</g>
<!-- Node27&#45;&gt;Node1 -->
<g id="edge39" class="edge">
<title>Node27&#45;&gt;Node1</title>
<path fill="none" stroke="#9a32cd" stroke-dasharray="5,2" d="M1591.03,-63.76C1618.68,-66.36 1651.69,-70.4 1681,-76.5 1693.9,-79.19 1707.41,-82.68 1720.49,-86.44"/>
<polygon fill="#9a32cd" stroke="#9a32cd" points="1590.98,-60.25 1580.71,-62.84 1590.35,-67.22 1590.98,-60.25"/>
<text text-anchor="middle" x="1640" y="-90.5" font-family="Helvetica,sans-Serif" font-size="10.00"> m_MaxDistance</text>
<text text-anchor="middle" x="1640" y="-79.5" font-family="Helvetica,sans-Serif" font-size="10.00">m_MinDistance</text>
</g>
<!-- Node28 -->
<g id="node28" class="node">
<title>Node28</title>
<g id="a_node28"><a xlink:title=" ">
<polygon fill="white" stroke="#bfbfbf" points="1159.5,-0.5 1159.5,-30.5 1269.5,-30.5 1269.5,-0.5 1159.5,-0.5"/>
<text text-anchor="start" x="1167.5" y="-18.5" font-family="Helvetica,sans-Serif" font-size="10.00">std::numeric_limits</text>
<text text-anchor="middle" x="1214.5" y="-7.5" font-family="Helvetica,sans-Serif" font-size="10.00">&lt; PixelType &gt;</text>
</a>
</g>
</g>
<!-- Node28&#45;&gt;Node27 -->
<g id="edge40" class="edge">
<title>Node28&#45;&gt;Node27</title>
<path fill="none" stroke="midnightblue" d="M1279.82,-24.56C1338.36,-32.8 1423.62,-44.8 1477.43,-52.38"/>
<polygon fill="midnightblue" stroke="midnightblue" points="1279.97,-21.04 1269.58,-23.11 1278.99,-27.97 1279.97,-21.04"/>
</g>
<!-- Node29 -->
<g id="node29" class="node">
<title>Node29</title>
<g id="a_node29"><a xlink:href="classitk_1_1NumericTraits.html" target="_top" xlink:title="Define additional traits for native types such as int or float.">
<polygon fill="white" stroke="black" points="1149,-50 1149,-69 1280,-69 1280,-50 1149,-50"/>
<text text-anchor="middle" x="1214.5" y="-57" font-family="Helvetica,sans-Serif" font-size="10.00">itk::NumericTraits&lt; T &gt;</text>
</a>
</g>
</g>
<!-- Node29&#45;&gt;Node27 -->
<g id="edge41" class="edge">
<title>Node29&#45;&gt;Node27</title>
<path fill="none" stroke="orange" stroke-dasharray="5,2" d="M1290.43,-59.5C1348.22,-59.5 1426.59,-59.5 1477.23,-59.5"/>
<polygon fill="orange" stroke="orange" points="1290.25,-56 1280.25,-59.5 1290.25,-63 1290.25,-56"/>
<text text-anchor="middle" x="1388" y="-62.5" font-family="Helvetica,sans-Serif" font-size="10.00"> &lt; PixelType &gt;</text>
</g>
<!-- Node30 -->
<g id="node30" class="node">
<title>Node30</title>
<g id="a_node30"><a xlink:title=" ">
<polygon fill="white" stroke="#bfbfbf" points="813,-40 813,-59 952,-59 952,-40 813,-40"/>
<text text-anchor="middle" x="882.5" y="-47" font-family="Helvetica,sans-Serif" font-size="10.00">std::numeric_limits&lt; T &gt;</text>
</a>
</g>
</g>
<!-- Node30&#45;&gt;Node29 -->
<g id="edge42" class="edge">
<title>Node30&#45;&gt;Node29</title>
<path fill="none" stroke="midnightblue" d="M962.32,-51.89C1019.29,-53.61 1095.3,-55.92 1148.74,-57.54"/>
<polygon fill="midnightblue" stroke="midnightblue" points="962.38,-48.39 952.28,-51.58 962.17,-55.39 962.38,-48.39"/>
</g>
</g>
</svg>
