<?xml version="1.0" encoding="UTF-8" standalone="no"?>
<!DOCTYPE svg PUBLIC "-//W3C//DTD SVG 1.1//EN"
 "http://www.w3.org/Graphics/SVG/1.1/DTD/svg11.dtd">
<!-- Generated by graphviz version 2.43.0 (0)
 -->
<!-- Title: itk::v3::Rigid3DTransform&lt; TParametersValueType &gt; Pages: 1 -->
<svg width="3507pt" height="534pt"
 viewBox="0.00 0.00 3507.00 534.00" xmlns="http://www.w3.org/2000/svg" xmlns:xlink="http://www.w3.org/1999/xlink">
<g id="graph0" class="graph" transform="scale(1 1) rotate(0) translate(4 530)">
<title>itk::v3::Rigid3DTransform&lt; TParametersValueType &gt;</title>
<polygon fill="white" stroke="transparent" points="-4,4 -4,-530 3503,-530 3503,4 -4,4"/>
<!-- Node1 -->
<g id="node1" class="node">
<title>Node1</title>
<g id="a_node1"><a xlink:title="ITK3.x compatible Rigid3DTransform of a vector space (e.g. space coordinates)">
<polygon fill="#bfbfbf" stroke="black" points="3349,-299 3349,-329 3499,-329 3499,-299 3349,-299"/>
<text text-anchor="start" x="3357" y="-317" font-family="Helvetica,sans-Serif" font-size="10.00">itk::v3::Rigid3DTransform</text>
<text text-anchor="middle" x="3424" y="-306" font-family="Helvetica,sans-Serif" font-size="10.00">&lt; TParametersValueType &gt;</text>
</a>
</g>
</g>
<!-- Node2 -->
<g id="node2" class="node">
<title>Node2</title>
<g id="a_node2"><a xlink:href="classitk_1_1Rigid3DTransform.html" target="_top" xlink:title=" ">
<polygon fill="white" stroke="black" points="3190,-299 3190,-329 3312,-329 3312,-299 3190,-299"/>
<text text-anchor="start" x="3198" y="-317" font-family="Helvetica,sans-Serif" font-size="10.00">itk::Rigid3DTransform</text>
<text text-anchor="middle" x="3251" y="-306" font-family="Helvetica,sans-Serif" font-size="10.00">&lt; double &gt;</text>
</a>
</g>
</g>
<!-- Node2&#45;&gt;Node1 -->
<g id="edge1" class="edge">
<title>Node2&#45;&gt;Node1</title>
<path fill="none" stroke="midnightblue" d="M3322.41,-314C3331.14,-314 3340.09,-314 3348.87,-314"/>
<polygon fill="midnightblue" stroke="midnightblue" points="3322.29,-310.5 3312.29,-314 3322.29,-317.5 3322.29,-310.5"/>
</g>
<!-- Node3 -->
<g id="node3" class="node">
<title>Node3</title>
<g id="a_node3"><a xlink:href="classitk_1_1MatrixOffsetTransformBase.html" target="_top" xlink:title=" ">
<polygon fill="white" stroke="black" points="2763,-299 2763,-329 2908,-329 2908,-299 2763,-299"/>
<text text-anchor="start" x="2771" y="-317" font-family="Helvetica,sans-Serif" font-size="10.00">itk::MatrixOffsetTransform</text>
<text text-anchor="middle" x="2835.5" y="-306" font-family="Helvetica,sans-Serif" font-size="10.00">Base&lt; double, 3, 3 &gt;</text>
</a>
</g>
</g>
<!-- Node3&#45;&gt;Node2 -->
<g id="edge2" class="edge">
<title>Node3&#45;&gt;Node2</title>
<path fill="none" stroke="midnightblue" d="M2918.35,-316.78C2920.93,-316.86 2923.48,-316.93 2926,-317 3035.31,-320 3062.76,-325.89 3172,-321 3177.84,-320.74 3183.92,-320.37 3189.99,-319.93"/>
<polygon fill="midnightblue" stroke="midnightblue" points="2918.41,-313.28 2908.31,-316.48 2918.2,-320.28 2918.41,-313.28"/>
</g>
<!-- Node36 -->
<g id="node36" class="node">
<title>Node36</title>
<g id="a_node36"><a xlink:href="classitk_1_1Rigid3DTransform.html" target="_top" xlink:title="Rigid3DTransform of a vector space (e.g. space coordinates)">
<polygon fill="white" stroke="black" points="2945,-277 2945,-307 3095,-307 3095,-277 2945,-277"/>
<text text-anchor="start" x="2953" y="-295" font-family="Helvetica,sans-Serif" font-size="10.00">itk::Rigid3DTransform</text>
<text text-anchor="middle" x="3020" y="-284" font-family="Helvetica,sans-Serif" font-size="10.00">&lt; TParametersValueType &gt;</text>
</a>
</g>
</g>
<!-- Node3&#45;&gt;Node36 -->
<g id="edge56" class="edge">
<title>Node3&#45;&gt;Node36</title>
<path fill="none" stroke="midnightblue" d="M2918.11,-304.16C2927.03,-303.09 2936.07,-302 2944.9,-300.93"/>
<polygon fill="midnightblue" stroke="midnightblue" points="2917.61,-300.7 2908.11,-305.37 2918.45,-307.65 2917.61,-300.7"/>
</g>
<!-- Node4 -->
<g id="node4" class="node">
<title>Node4</title>
<g id="a_node4"><a xlink:href="classitk_1_1Transform.html" target="_top" xlink:title=" ">
<polygon fill="white" stroke="black" points="2096,-375 2096,-405 2309,-405 2309,-375 2096,-375"/>
<text text-anchor="start" x="2104" y="-393" font-family="Helvetica,sans-Serif" font-size="10.00">itk::Transform&lt; double,</text>
<text text-anchor="middle" x="2202.5" y="-382" font-family="Helvetica,sans-Serif" font-size="10.00"> VInputDimension, VOutputDimension &gt;</text>
</a>
</g>
</g>
<!-- Node4&#45;&gt;Node3 -->
<g id="edge3" class="edge">
<title>Node4&#45;&gt;Node3</title>
<path fill="none" stroke="midnightblue" d="M2319.31,-380.78C2349.81,-378.15 2382.66,-375.14 2413,-372 2561,-356.68 2598.04,-352.23 2745,-329 2750.76,-328.09 2756.72,-327.13 2762.71,-326.15"/>
<polygon fill="midnightblue" stroke="midnightblue" points="2318.74,-377.31 2309.07,-381.65 2319.33,-384.29 2318.74,-377.31"/>
</g>
<!-- Node5 -->
<g id="node5" class="node">
<title>Node5</title>
<g id="a_node5"><a xlink:href="classitk_1_1TransformBaseTemplate.html" target="_top" xlink:title=" ">
<polygon fill="white" stroke="black" points="1679,-340 1679,-370 1832,-370 1832,-340 1679,-340"/>
<text text-anchor="start" x="1687" y="-358" font-family="Helvetica,sans-Serif" font-size="10.00">itk::TransformBaseTemplate</text>
<text text-anchor="middle" x="1755.5" y="-347" font-family="Helvetica,sans-Serif" font-size="10.00">&lt; double &gt;</text>
</a>
</g>
</g>
<!-- Node5&#45;&gt;Node4 -->
<g id="edge4" class="edge">
<title>Node5&#45;&gt;Node4</title>
<path fill="none" stroke="midnightblue" d="M1842.25,-365.35C1851.28,-366.31 1860.32,-367.21 1869,-368 1944.76,-374.88 2030.42,-380.5 2095.82,-384.33"/>
<polygon fill="midnightblue" stroke="midnightblue" points="1842.41,-361.85 1832.09,-364.25 1841.66,-368.81 1842.41,-361.85"/>
</g>
<!-- Node35 -->
<g id="node35" class="node">
<title>Node35</title>
<g id="a_node35"><a xlink:href="classitk_1_1Transform.html" target="_top" xlink:title=" ">
<polygon fill="white" stroke="black" points="2137,-326 2137,-356 2268,-356 2268,-326 2137,-326"/>
<text text-anchor="start" x="2145" y="-344" font-family="Helvetica,sans-Serif" font-size="10.00">itk::Transform&lt; double,</text>
<text text-anchor="middle" x="2202.5" y="-333" font-family="Helvetica,sans-Serif" font-size="10.00"> 3, 3 &gt;</text>
</a>
</g>
</g>
<!-- Node5&#45;&gt;Node35 -->
<g id="edge48" class="edge">
<title>Node5&#45;&gt;Node35</title>
<path fill="none" stroke="midnightblue" d="M1842.35,-339.83C1851.33,-338.67 1860.33,-337.69 1869,-337 1961.8,-329.62 2069.61,-333.13 2136.71,-336.73"/>
<polygon fill="midnightblue" stroke="midnightblue" points="1841.69,-336.39 1832.25,-341.2 1842.63,-343.32 1841.69,-336.39"/>
</g>
<!-- Node6 -->
<g id="node6" class="node">
<title>Node6</title>
<g id="a_node6"><a xlink:href="classitk_1_1Object.html" target="_top" xlink:title="Base class for most ITK classes.">
<polygon fill="white" stroke="black" points="1038.5,-365.5 1038.5,-384.5 1105.5,-384.5 1105.5,-365.5 1038.5,-365.5"/>
<text text-anchor="middle" x="1072" y="-372.5" font-family="Helvetica,sans-Serif" font-size="10.00">itk::Object</text>
</a>
</g>
</g>
<!-- Node6&#45;&gt;Node5 -->
<g id="edge5" class="edge">
<title>Node6&#45;&gt;Node5</title>
<path fill="none" stroke="midnightblue" d="M1115.82,-375.64C1210.69,-376.76 1445.72,-377.96 1642,-366 1653.95,-365.27 1666.59,-364.27 1678.92,-363.16"/>
<polygon fill="midnightblue" stroke="midnightblue" points="1115.8,-372.14 1105.75,-375.51 1115.71,-379.14 1115.8,-372.14"/>
</g>
<!-- Node19 -->
<g id="node19" class="node">
<title>Node19</title>
<g id="a_node19"><a xlink:href="classitk_1_1TransformBaseTemplate.html" target="_top" xlink:title=" ">
<polygon fill="white" stroke="black" points="1340.5,-329 1340.5,-359 1493.5,-359 1493.5,-329 1340.5,-329"/>
<text text-anchor="start" x="1348.5" y="-347" font-family="Helvetica,sans-Serif" font-size="10.00">itk::TransformBaseTemplate</text>
<text text-anchor="middle" x="1417" y="-336" font-family="Helvetica,sans-Serif" font-size="10.00">&lt; TParametersValueType &gt;</text>
</a>
</g>
</g>
<!-- Node6&#45;&gt;Node19 -->
<g id="edge22" class="edge">
<title>Node6&#45;&gt;Node19</title>
<path fill="none" stroke="midnightblue" d="M1115.88,-371.12C1172.03,-366.05 1271.41,-357.07 1340.36,-350.84"/>
<polygon fill="midnightblue" stroke="midnightblue" points="1115.22,-367.67 1105.58,-372.06 1115.85,-374.64 1115.22,-367.67"/>
</g>
<!-- Node7 -->
<g id="node7" class="node">
<title>Node7</title>
<g id="a_node7"><a xlink:href="classitk_1_1LightObject.html" target="_top" xlink:title="Light weight base class for most itk classes.">
<polygon fill="white" stroke="black" points="739.5,-379.5 739.5,-398.5 830.5,-398.5 830.5,-379.5 739.5,-379.5"/>
<text text-anchor="middle" x="785" y="-386.5" font-family="Helvetica,sans-Serif" font-size="10.00">itk::LightObject</text>
</a>
</g>
</g>
<!-- Node7&#45;&gt;Node6 -->
<g id="edge6" class="edge">
<title>Node7&#45;&gt;Node6</title>
<path fill="none" stroke="midnightblue" d="M840.7,-386.31C899.21,-383.44 990.06,-378.98 1038.31,-376.61"/>
<polygon fill="midnightblue" stroke="midnightblue" points="840.35,-382.83 830.53,-386.81 840.69,-389.82 840.35,-382.83"/>
</g>
<!-- Node8 -->
<g id="node8" class="node">
<title>Node8</title>
<g id="a_node8"><a xlink:title=" ">
<polygon fill="white" stroke="#bfbfbf" points="457,-379.5 457,-398.5 564,-398.5 564,-379.5 457,-379.5"/>
<text text-anchor="middle" x="510.5" y="-386.5" font-family="Helvetica,sans-Serif" font-size="10.00">std::atomic&lt; int &gt;</text>
</a>
</g>
</g>
<!-- Node8&#45;&gt;Node7 -->
<g id="edge7" class="edge">
<title>Node8&#45;&gt;Node7</title>
<path fill="none" stroke="#9a32cd" stroke-dasharray="5,2" d="M574.18,-389C624.64,-389 694.33,-389 739.29,-389"/>
<polygon fill="#9a32cd" stroke="#9a32cd" points="574.04,-385.5 564.04,-389 574.04,-392.5 574.04,-385.5"/>
<text text-anchor="middle" x="651.5" y="-392" font-family="Helvetica,sans-Serif" font-size="10.00"> m_ReferenceCount</text>
</g>
<!-- Node9 -->
<g id="node9" class="node">
<title>Node9</title>
<g id="a_node9"><a xlink:title="STL class.">
<polygon fill="white" stroke="#bfbfbf" points="123,-340.5 123,-359.5 223,-359.5 223,-340.5 123,-340.5"/>
<text text-anchor="middle" x="173" y="-347.5" font-family="Helvetica,sans-Serif" font-size="10.00">std::atomic&lt; T &gt;</text>
</a>
</g>
</g>
<!-- Node9&#45;&gt;Node8 -->
<g id="edge8" class="edge">
<title>Node9&#45;&gt;Node8</title>
<path fill="none" stroke="orange" stroke-dasharray="5,2" d="M233.38,-356.9C296.77,-364.27 396.25,-375.84 456.9,-382.89"/>
<polygon fill="orange" stroke="orange" points="233.48,-353.39 223.14,-355.71 232.67,-360.34 233.48,-353.39"/>
<text text-anchor="middle" x="334" y="-380" font-family="Helvetica,sans-Serif" font-size="10.00"> &lt; int &gt;</text>
</g>
<!-- Node18 -->
<g id="node18" class="node">
<title>Node18</title>
<g id="a_node18"><a xlink:href="classitk_1_1TimeStamp.html" target="_top" xlink:title="Generate a unique, increasing time value.">
<polygon fill="white" stroke="black" points="739,-289.5 739,-308.5 831,-308.5 831,-289.5 739,-289.5"/>
<text text-anchor="middle" x="785" y="-296.5" font-family="Helvetica,sans-Serif" font-size="10.00">itk::TimeStamp</text>
</a>
</g>
</g>
<!-- Node9&#45;&gt;Node18 -->
<g id="edge20" class="edge">
<title>Node9&#45;&gt;Node18</title>
<path fill="none" stroke="#9a32cd" stroke-dasharray="5,2" d="M232.93,-338.93C285.87,-329.49 365.83,-316.44 436,-310 544.35,-300.05 672.38,-298.66 738.85,-298.7"/>
<polygon fill="#9a32cd" stroke="#9a32cd" points="232.26,-335.5 223.04,-340.71 233.5,-342.39 232.26,-335.5"/>
<text text-anchor="middle" x="510.5" y="-313" font-family="Helvetica,sans-Serif" font-size="10.00"> m_GlobalTimeStamp</text>
</g>
<!-- Node10 -->
<g id="node10" class="node">
<title>Node10</title>
<g id="a_node10"><a xlink:title=" ">
<polygon fill="white" stroke="#bfbfbf" points="0,-412.5 0,-431.5 29,-431.5 29,-412.5 0,-412.5"/>
<text text-anchor="middle" x="14.5" y="-419.5" font-family="Helvetica,sans-Serif" font-size="10.00">T</text>
</a>
</g>
</g>
<!-- Node10&#45;&gt;Node9 -->
<g id="edge9" class="edge">
<title>Node10&#45;&gt;Node9</title>
<path fill="none" stroke="#9a32cd" stroke-dasharray="5,2" d="M28.21,-404.17C28.47,-403.77 28.74,-403.39 29,-403 37.29,-390.74 34.78,-383.33 47,-375 69.13,-359.91 98.26,-353.5 122.84,-350.94"/>
<polygon fill="#9a32cd" stroke="#9a32cd" points="25.32,-402.19 22.46,-412.39 31.05,-406.2 25.32,-402.19"/>
<text text-anchor="middle" x="71.5" y="-378" font-family="Helvetica,sans-Serif" font-size="10.00"> ptr</text>
</g>
<!-- Node15 -->
<g id="node15" class="node">
<title>Node15</title>
<g id="a_node15"><a xlink:title="STL class.">
<polygon fill="white" stroke="#bfbfbf" points="122.5,-404.5 122.5,-423.5 223.5,-423.5 223.5,-404.5 122.5,-404.5"/>
<text text-anchor="middle" x="173" y="-411.5" font-family="Helvetica,sans-Serif" font-size="10.00">std::map&lt; K, T &gt;</text>
</a>
</g>
</g>
<!-- Node10&#45;&gt;Node15 -->
<g id="edge16" class="edge">
<title>Node10&#45;&gt;Node15</title>
<path fill="none" stroke="#9a32cd" stroke-dasharray="5,2" d="M39.44,-419.58C41.99,-419.36 44.55,-419.17 47,-419 71.81,-417.32 99.43,-416.15 122.39,-415.36"/>
<polygon fill="#9a32cd" stroke="#9a32cd" points="38.92,-416.11 29.29,-420.52 39.57,-423.08 38.92,-416.11"/>
<text text-anchor="middle" x="71.5" y="-422" font-family="Helvetica,sans-Serif" font-size="10.00"> elements</text>
</g>
<!-- Node17 -->
<g id="node17" class="node">
<title>Node17</title>
<g id="a_node17"><a xlink:title="STL class.">
<polygon fill="white" stroke="#bfbfbf" points="114,-442.5 114,-461.5 232,-461.5 232,-442.5 114,-442.5"/>
<text text-anchor="middle" x="173" y="-449.5" font-family="Helvetica,sans-Serif" font-size="10.00">std::shared_ptr&lt; T &gt;</text>
</a>
</g>
</g>
<!-- Node10&#45;&gt;Node17 -->
<g id="edge18" class="edge">
<title>Node10&#45;&gt;Node17</title>
<path fill="none" stroke="#9a32cd" stroke-dasharray="5,2" d="M39.13,-428.2C41.78,-428.84 44.44,-429.45 47,-430 68.76,-434.67 92.81,-439.08 113.95,-442.71"/>
<polygon fill="#9a32cd" stroke="#9a32cd" points="39.8,-424.76 29.25,-425.73 38.1,-431.55 39.8,-424.76"/>
<text text-anchor="middle" x="71.5" y="-442" font-family="Helvetica,sans-Serif" font-size="10.00"> ptr</text>
</g>
<!-- Node11 -->
<g id="node11" class="node">
<title>Node11</title>
<g id="a_node11"><a xlink:title="STL class.">
<polygon fill="white" stroke="#bfbfbf" points="752.5,-338.5 752.5,-357.5 817.5,-357.5 817.5,-338.5 752.5,-338.5"/>
<text text-anchor="middle" x="785" y="-345.5" font-family="Helvetica,sans-Serif" font-size="10.00">std::string</text>
</a>
</g>
</g>
<!-- Node11&#45;&gt;Node6 -->
<g id="edge10" class="edge">
<title>Node11&#45;&gt;Node6</title>
<path fill="none" stroke="#9a32cd" stroke-dasharray="5,2" d="M827.81,-350.71C868.51,-353.49 932.08,-358.22 987,-364 1003.97,-365.79 1022.81,-368.21 1038.33,-370.33"/>
<polygon fill="#9a32cd" stroke="#9a32cd" points="827.94,-347.21 817.73,-350.03 827.47,-354.19 827.94,-347.21"/>
<text text-anchor="middle" x="928.5" y="-367" font-family="Helvetica,sans-Serif" font-size="10.00"> m_ObjectName</text>
</g>
<!-- Node12 -->
<g id="node12" class="node">
<title>Node12</title>
<g id="a_node12"><a xlink:title="STL class.">
<polygon fill="white" stroke="#bfbfbf" points="458.5,-330 458.5,-360 562.5,-360 562.5,-330 458.5,-330"/>
<text text-anchor="start" x="466.5" y="-348" font-family="Helvetica,sans-Serif" font-size="10.00">std::basic_string&lt;</text>
<text text-anchor="middle" x="510.5" y="-337" font-family="Helvetica,sans-Serif" font-size="10.00"> char &gt;</text>
</a>
</g>
</g>
<!-- Node12&#45;&gt;Node11 -->
<g id="edge11" class="edge">
<title>Node12&#45;&gt;Node11</title>
<path fill="none" stroke="midnightblue" d="M572.85,-345.68C628.49,-346.29 708.3,-347.17 752.14,-347.65"/>
<polygon fill="midnightblue" stroke="midnightblue" points="572.79,-342.17 562.76,-345.56 572.72,-349.17 572.79,-342.17"/>
</g>
<!-- Node13 -->
<g id="node13" class="node">
<title>Node13</title>
<g id="a_node13"><a xlink:href="classitk_1_1MetaDataDictionary.html" target="_top" xlink:title="Provides a mechanism for storing a collection of arbitrary data types.">
<polygon fill="white" stroke="black" points="718,-420.5 718,-439.5 852,-439.5 852,-420.5 718,-420.5"/>
<text text-anchor="middle" x="785" y="-427.5" font-family="Helvetica,sans-Serif" font-size="10.00">itk::MetaDataDictionary</text>
</a>
</g>
</g>
<!-- Node13&#45;&gt;Node6 -->
<g id="edge12" class="edge">
<title>Node13&#45;&gt;Node6</title>
<path fill="none" stroke="#9a32cd" stroke-dasharray="5,2" d="M860.04,-418.88C898.11,-412.81 945.18,-404.75 987,-396 1004.07,-392.43 1022.91,-387.78 1038.42,-383.77"/>
<polygon fill="#9a32cd" stroke="#9a32cd" points="859.39,-415.44 850.06,-420.46 860.48,-422.35 859.39,-415.44"/>
<text text-anchor="middle" x="928.5" y="-419" font-family="Helvetica,sans-Serif" font-size="10.00"> m_MetaDataDictionary</text>
</g>
<!-- Node14 -->
<g id="node14" class="node">
<title>Node14</title>
<g id="a_node14"><a xlink:title=" ">
<polygon fill="white" stroke="#bfbfbf" points="436,-418 436,-448 585,-448 585,-418 436,-418"/>
<text text-anchor="start" x="444" y="-436" font-family="Helvetica,sans-Serif" font-size="10.00">std::shared_ptr&lt; MetaData</text>
<text text-anchor="middle" x="510.5" y="-425" font-family="Helvetica,sans-Serif" font-size="10.00">DictionaryMapType &gt;</text>
</a>
</g>
</g>
<!-- Node14&#45;&gt;Node13 -->
<g id="edge13" class="edge">
<title>Node14&#45;&gt;Node13</title>
<path fill="none" stroke="#9a32cd" stroke-dasharray="5,2" d="M595.34,-432.08C634.65,-431.64 680.82,-431.14 717.65,-430.73"/>
<polygon fill="#9a32cd" stroke="#9a32cd" points="595.2,-428.58 585.24,-432.19 595.28,-435.58 595.2,-428.58"/>
<text text-anchor="middle" x="651.5" y="-434" font-family="Helvetica,sans-Serif" font-size="10.00"> m_Dictionary</text>
</g>
<!-- Node15&#45;&gt;Node14 -->
<g id="edge14" class="edge">
<title>Node15&#45;&gt;Node14</title>
<path fill="none" stroke="#9a32cd" stroke-dasharray="5,2" d="M233.85,-412.55C283.33,-411.93 355.36,-412.38 418,-418 423.77,-418.52 429.73,-419.19 435.71,-419.95"/>
<polygon fill="#9a32cd" stroke="#9a32cd" points="233.6,-409.05 223.65,-412.7 233.7,-416.05 233.6,-409.05"/>
<text text-anchor="middle" x="334" y="-421" font-family="Helvetica,sans-Serif" font-size="10.00"> ptr</text>
</g>
<!-- Node16 -->
<g id="node16" class="node">
<title>Node16</title>
<g id="a_node16"><a xlink:title=" ">
<polygon fill="white" stroke="#bfbfbf" points="0,-374.5 0,-393.5 29,-393.5 29,-374.5 0,-374.5"/>
<text text-anchor="middle" x="14.5" y="-381.5" font-family="Helvetica,sans-Serif" font-size="10.00">K</text>
</a>
</g>
</g>
<!-- Node16&#45;&gt;Node15 -->
<g id="edge15" class="edge">
<title>Node16&#45;&gt;Node15</title>
<path fill="none" stroke="#9a32cd" stroke-dasharray="5,2" d="M39.19,-388.54C61.16,-392.75 94.54,-399.15 122.35,-404.48"/>
<polygon fill="#9a32cd" stroke="#9a32cd" points="39.59,-385.06 29.11,-386.61 38.28,-391.93 39.59,-385.06"/>
<text text-anchor="middle" x="71.5" y="-402" font-family="Helvetica,sans-Serif" font-size="10.00"> keys</text>
</g>
<!-- Node17&#45;&gt;Node14 -->
<g id="edge17" class="edge">
<title>Node17&#45;&gt;Node14</title>
<path fill="none" stroke="orange" stroke-dasharray="5,2" d="M242.27,-448.13C298.5,-444.95 378.06,-440.44 435.74,-437.18"/>
<polygon fill="orange" stroke="orange" points="241.84,-444.65 232.06,-448.71 242.24,-451.64 241.84,-444.65"/>
<text text-anchor="middle" x="334" y="-450" font-family="Helvetica,sans-Serif" font-size="10.00"> &lt; MetaDataDictionaryMapType &gt;</text>
</g>
<!-- Node18&#45;&gt;Node3 -->
<g id="edge43" class="edge">
<title>Node18&#45;&gt;Node3</title>
<path fill="none" stroke="#9a32cd" stroke-dasharray="5,2" d="M793.19,-279.8C819.3,-213.75 915.78,0 1071,0 1071,0 1071,0 2538.5,0 2704.82,0 2805.27,-236.13 2829.02,-298.86"/>
<polygon fill="#9a32cd" stroke="#9a32cd" points="789.82,-278.8 789.49,-289.39 796.35,-281.32 789.82,-278.8"/>
<text text-anchor="middle" x="1755.5" y="-14" font-family="Helvetica,sans-Serif" font-size="10.00"> m_InverseMatrixMTime</text>
<text text-anchor="middle" x="1755.5" y="-3" font-family="Helvetica,sans-Serif" font-size="10.00">m_MatrixMTime</text>
</g>
<!-- Node18&#45;&gt;Node6 -->
<g id="edge19" class="edge">
<title>Node18&#45;&gt;Node6</title>
<path fill="none" stroke="#9a32cd" stroke-dasharray="5,2" d="M841.05,-306.29C881.91,-312.51 938.68,-322.88 987,-338 1010.27,-345.28 1035.73,-357.08 1052.45,-365.39"/>
<polygon fill="#9a32cd" stroke="#9a32cd" points="841.42,-302.81 831.02,-304.8 840.39,-309.73 841.42,-302.81"/>
<text text-anchor="middle" x="928.5" y="-341" font-family="Helvetica,sans-Serif" font-size="10.00"> m_MTime</text>
</g>
<!-- Node34 -->
<g id="node34" class="node">
<title>Node34</title>
<g id="a_node34"><a xlink:href="classitk_1_1MatrixOffsetTransformBase.html" target="_top" xlink:title="Matrix and Offset transformation of a vector space (e.g. space coordinates)">
<polygon fill="white" stroke="black" points="2431,-293.5 2431,-334.5 2644,-334.5 2644,-293.5 2431,-293.5"/>
<text text-anchor="start" x="2439" y="-322.5" font-family="Helvetica,sans-Serif" font-size="10.00">itk::MatrixOffsetTransform</text>
<text text-anchor="start" x="2439" y="-311.5" font-family="Helvetica,sans-Serif" font-size="10.00">Base&lt; TParametersValueType,</text>
<text text-anchor="middle" x="2537.5" y="-300.5" font-family="Helvetica,sans-Serif" font-size="10.00"> VInputDimension, VOutputDimension &gt;</text>
</a>
</g>
</g>
<!-- Node18&#45;&gt;Node34 -->
<g id="edge53" class="edge">
<title>Node18&#45;&gt;Node34</title>
<path fill="none" stroke="#9a32cd" stroke-dasharray="5,2" d="M841.72,-298.38C899.17,-297.79 991.35,-297 1071,-297 1071,-297 1071,-297 1974.5,-297 2133.61,-297 2317.94,-303.89 2430.88,-308.9"/>
<polygon fill="#9a32cd" stroke="#9a32cd" points="841.37,-294.88 831.41,-298.48 841.45,-301.88 841.37,-294.88"/>
<text text-anchor="middle" x="1582" y="-311" font-family="Helvetica,sans-Serif" font-size="10.00"> m_InverseMatrixMTime</text>
<text text-anchor="middle" x="1582" y="-300" font-family="Helvetica,sans-Serif" font-size="10.00">m_MatrixMTime</text>
</g>
<!-- Node19&#45;&gt;Node5 -->
<g id="edge21" class="edge">
<title>Node19&#45;&gt;Node5</title>
<path fill="none" stroke="orange" stroke-dasharray="5,2" d="M1503.77,-346.8C1557.82,-348.57 1626.96,-350.83 1678.94,-352.53"/>
<polygon fill="orange" stroke="orange" points="1503.63,-343.3 1493.52,-346.47 1503.4,-350.29 1503.63,-343.3"/>
<text text-anchor="middle" x="1582" y="-354" font-family="Helvetica,sans-Serif" font-size="10.00"> &lt; double &gt;</text>
</g>
<!-- Node20 -->
<g id="node20" class="node">
<title>Node20</title>
<g id="a_node20"><a xlink:href="classitk_1_1Transform.html" target="_top" xlink:title="Transform points and vectors from an input space to an output space.">
<polygon fill="white" stroke="black" points="1676,-392.5 1676,-433.5 1835,-433.5 1835,-392.5 1676,-392.5"/>
<text text-anchor="start" x="1684" y="-421.5" font-family="Helvetica,sans-Serif" font-size="10.00">itk::Transform&lt; TParameters</text>
<text text-anchor="start" x="1684" y="-410.5" font-family="Helvetica,sans-Serif" font-size="10.00">ValueType, VInputDimension,</text>
<text text-anchor="middle" x="1755.5" y="-399.5" font-family="Helvetica,sans-Serif" font-size="10.00"> VOutputDimension &gt;</text>
</a>
</g>
</g>
<!-- Node19&#45;&gt;Node20 -->
<g id="edge24" class="edge">
<title>Node19&#45;&gt;Node20</title>
<path fill="none" stroke="midnightblue" d="M1498.7,-361.15C1506.57,-362.8 1514.44,-364.44 1522,-366 1573.22,-376.59 1630.84,-388.24 1675.9,-397.29"/>
<polygon fill="midnightblue" stroke="midnightblue" points="1499.26,-357.69 1488.75,-359.06 1497.82,-364.54 1499.26,-357.69"/>
</g>
<!-- Node20&#45;&gt;Node4 -->
<g id="edge23" class="edge">
<title>Node20&#45;&gt;Node4</title>
<path fill="none" stroke="orange" stroke-dasharray="5,2" d="M1845.45,-408.4C1917.6,-404.67 2019.48,-399.41 2095.78,-395.46"/>
<polygon fill="orange" stroke="orange" points="1844.84,-404.93 1835.03,-408.94 1845.2,-411.92 1844.84,-404.93"/>
<text text-anchor="start" x="1903" y="-420" font-family="Helvetica,sans-Serif" font-size="10.00"> &lt; double, VInputDimension,</text>
<text text-anchor="middle" x="1973.5" y="-409" font-family="Helvetica,sans-Serif" font-size="10.00"> VOutputDimension &gt;</text>
</g>
<!-- Node20&#45;&gt;Node35 -->
<g id="edge49" class="edge">
<title>Node20&#45;&gt;Node35</title>
<path fill="none" stroke="orange" stroke-dasharray="5,2" d="M1831.89,-389.8C1844.21,-386.51 1856.9,-383.43 1869,-381 1961.2,-362.46 2069.63,-351.38 2136.97,-345.73"/>
<polygon fill="orange" stroke="orange" points="1830.83,-386.46 1822.11,-392.46 1832.67,-393.21 1830.83,-386.46"/>
<text text-anchor="middle" x="1973.5" y="-384" font-family="Helvetica,sans-Serif" font-size="10.00"> &lt; double, 3, 3 &gt;</text>
</g>
<!-- Node21 -->
<g id="node21" class="node">
<title>Node21</title>
<g id="a_node21"><a xlink:href="classitk_1_1Matrix.html" target="_top" xlink:title=" ">
<polygon fill="white" stroke="black" points="2122,-484.5 2122,-525.5 2283,-525.5 2283,-484.5 2122,-484.5"/>
<text text-anchor="start" x="2130" y="-513.5" font-family="Helvetica,sans-Serif" font-size="10.00">itk::Matrix&lt; double,</text>
<text text-anchor="start" x="2130" y="-502.5" font-family="Helvetica,sans-Serif" font-size="10.00"> Self::OutputSpaceDimension,</text>
<text text-anchor="middle" x="2202.5" y="-491.5" font-family="Helvetica,sans-Serif" font-size="10.00"> Self::InputSpaceDimension &gt;</text>
</a>
</g>
</g>
<!-- Node21&#45;&gt;Node3 -->
<g id="edge25" class="edge">
<title>Node21&#45;&gt;Node3</title>
<path fill="none" stroke="#9a32cd" stroke-dasharray="5,2" d="M2293.32,-503.66C2384.43,-499.69 2528.14,-486.13 2644,-442 2715.12,-414.91 2786.16,-356.99 2817.65,-329.33"/>
<polygon fill="#9a32cd" stroke="#9a32cd" points="2293.15,-500.17 2283.3,-504.07 2293.43,-507.16 2293.15,-500.17"/>
<text text-anchor="middle" x="2537.5" y="-494" font-family="Helvetica,sans-Serif" font-size="10.00"> m_Matrix</text>
</g>
<!-- Node21&#45;&gt;Node34 -->
<g id="edge50" class="edge">
<title>Node21&#45;&gt;Node34</title>
<path fill="none" stroke="#9a32cd" stroke-dasharray="5,2" d="M2292.71,-482C2298.3,-479.83 2303.77,-477.5 2309,-475 2390.4,-436.04 2473.94,-368.4 2513.3,-334.54"/>
<polygon fill="#9a32cd" stroke="#9a32cd" points="2291.4,-478.75 2283.22,-485.49 2293.81,-485.32 2291.4,-478.75"/>
<text text-anchor="middle" x="2370" y="-467" font-family="Helvetica,sans-Serif" font-size="10.00"> m_Matrix</text>
</g>
<!-- Node22 -->
<g id="node22" class="node">
<title>Node22</title>
<g id="a_node22"><a xlink:href="classitk_1_1Matrix.html" target="_top" xlink:title="A templated class holding a M x N size Matrix.">
<polygon fill="white" stroke="black" points="1692.5,-470 1692.5,-500 1818.5,-500 1818.5,-470 1692.5,-470"/>
<text text-anchor="start" x="1700.5" y="-488" font-family="Helvetica,sans-Serif" font-size="10.00">itk::Matrix&lt; T, VRows,</text>
<text text-anchor="middle" x="1755.5" y="-477" font-family="Helvetica,sans-Serif" font-size="10.00"> VColumns &gt;</text>
</a>
</g>
</g>
<!-- Node22&#45;&gt;Node21 -->
<g id="edge26" class="edge">
<title>Node22&#45;&gt;Node21</title>
<path fill="none" stroke="orange" stroke-dasharray="5,2" d="M1828.88,-488.25C1909.29,-491.87 2038.72,-497.68 2121.92,-501.42"/>
<polygon fill="orange" stroke="orange" points="1828.99,-484.75 1818.84,-487.8 1828.68,-491.75 1828.99,-484.75"/>
<text text-anchor="start" x="1873" y="-513" font-family="Helvetica,sans-Serif" font-size="10.00"> &lt; double, Self::OutputSpace</text>
<text text-anchor="middle" x="1973.5" y="-502" font-family="Helvetica,sans-Serif" font-size="10.00">Dimension, Self::InputSpaceDimension &gt;</text>
</g>
<!-- Node33 -->
<g id="node33" class="node">
<title>Node33</title>
<g id="a_node33"><a xlink:href="classitk_1_1Matrix.html" target="_top" xlink:title=" ">
<polygon fill="white" stroke="black" points="2117.5,-424.5 2117.5,-465.5 2287.5,-465.5 2287.5,-424.5 2117.5,-424.5"/>
<text text-anchor="start" x="2125.5" y="-453.5" font-family="Helvetica,sans-Serif" font-size="10.00">itk::Matrix&lt; double,</text>
<text text-anchor="start" x="2125.5" y="-442.5" font-family="Helvetica,sans-Serif" font-size="10.00"> Self::InputSpaceDimension,</text>
<text text-anchor="middle" x="2202.5" y="-431.5" font-family="Helvetica,sans-Serif" font-size="10.00"> Self::OutputSpaceDimension &gt;</text>
</a>
</g>
</g>
<!-- Node22&#45;&gt;Node33 -->
<g id="edge45" class="edge">
<title>Node22&#45;&gt;Node33</title>
<path fill="none" stroke="orange" stroke-dasharray="5,2" d="M1828.83,-470.09C1842.14,-467.75 1855.95,-465.58 1869,-464 1953.09,-453.79 2049.82,-449.04 2117.2,-446.85"/>
<polygon fill="orange" stroke="orange" points="1827.98,-466.69 1818.76,-471.91 1829.23,-473.58 1827.98,-466.69"/>
<text text-anchor="start" x="1869" y="-478" font-family="Helvetica,sans-Serif" font-size="10.00"> &lt; double, Self::InputSpace</text>
<text text-anchor="middle" x="1973.5" y="-467" font-family="Helvetica,sans-Serif" font-size="10.00">Dimension, Self::OutputSpaceDimension &gt;</text>
</g>
<!-- Node23 -->
<g id="node23" class="node">
<title>Node23</title>
<g id="a_node23"><a xlink:href="classitk_1_1Point.html" target="_top" xlink:title=" ">
<polygon fill="white" stroke="black" points="2122,-140 2122,-170 2283,-170 2283,-140 2122,-140"/>
<text text-anchor="start" x="2130" y="-158" font-family="Helvetica,sans-Serif" font-size="10.00">itk::Point&lt; double,</text>
<text text-anchor="middle" x="2202.5" y="-147" font-family="Helvetica,sans-Serif" font-size="10.00"> Self::InputSpaceDimension &gt;</text>
</a>
</g>
</g>
<!-- Node23&#45;&gt;Node3 -->
<g id="edge27" class="edge">
<title>Node23&#45;&gt;Node3</title>
<path fill="none" stroke="#9a32cd" stroke-dasharray="5,2" d="M2293.54,-152.19C2384.32,-152 2527.32,-159.06 2644,-198 2713.24,-221.11 2783.8,-273.08 2816.19,-298.88"/>
<polygon fill="#9a32cd" stroke="#9a32cd" points="2293.26,-148.69 2283.28,-152.24 2293.3,-155.69 2293.26,-148.69"/>
<text text-anchor="middle" x="2537.5" y="-201" font-family="Helvetica,sans-Serif" font-size="10.00"> m_Center</text>
</g>
<!-- Node23&#45;&gt;Node34 -->
<g id="edge51" class="edge">
<title>Node23&#45;&gt;Node34</title>
<path fill="none" stroke="#9a32cd" stroke-dasharray="5,2" d="M2266.79,-173.04C2309.28,-186.26 2365.88,-206.03 2413,-230 2448.59,-248.1 2486.06,-274.82 2510.26,-293.24"/>
<polygon fill="#9a32cd" stroke="#9a32cd" points="2267.71,-169.67 2257.13,-170.08 2265.66,-176.36 2267.71,-169.67"/>
<text text-anchor="middle" x="2370" y="-233" font-family="Helvetica,sans-Serif" font-size="10.00"> m_Center</text>
</g>
<!-- Node24 -->
<g id="node24" class="node">
<title>Node24</title>
<g id="a_node24"><a xlink:href="classitk_1_1FixedArray.html" target="_top" xlink:title=" ">
<polygon fill="white" stroke="black" points="1350,-142 1350,-172 1484,-172 1484,-142 1350,-142"/>
<text text-anchor="start" x="1358" y="-160" font-family="Helvetica,sans-Serif" font-size="10.00">itk::FixedArray&lt; double,</text>
<text text-anchor="middle" x="1417" y="-149" font-family="Helvetica,sans-Serif" font-size="10.00"> VPointDimension &gt;</text>
</a>
</g>
</g>
<!-- Node24&#45;&gt;Node23 -->
<g id="edge28" class="edge">
<title>Node24&#45;&gt;Node23</title>
<path fill="none" stroke="midnightblue" d="M1494.53,-156.8C1643.35,-156.42 1970.38,-155.59 2121.74,-155.2"/>
<polygon fill="midnightblue" stroke="midnightblue" points="1494.12,-153.31 1484.13,-156.83 1494.13,-160.31 1494.12,-153.31"/>
</g>
<!-- Node25 -->
<g id="node25" class="node">
<title>Node25</title>
<g id="a_node25"><a xlink:title=" ">
<polygon fill="white" stroke="#bfbfbf" points="1044,-176.5 1044,-195.5 1100,-195.5 1100,-176.5 1044,-176.5"/>
<text text-anchor="middle" x="1072" y="-183.5" font-family="Helvetica,sans-Serif" font-size="10.00">VLength</text>
</a>
</g>
</g>
<!-- Node25&#45;&gt;Node24 -->
<g id="edge29" class="edge">
<title>Node25&#45;&gt;Node24</title>
<path fill="none" stroke="#9a32cd" stroke-dasharray="5,2" d="M1110.32,-180.62C1124.87,-178.65 1141.69,-176.53 1157,-175 1222.48,-168.44 1297.51,-163.51 1349.91,-160.48"/>
<polygon fill="#9a32cd" stroke="#9a32cd" points="1109.62,-177.18 1100.19,-182.01 1110.57,-184.12 1109.62,-177.18"/>
<text text-anchor="middle" x="1234.5" y="-178" font-family="Helvetica,sans-Serif" font-size="10.00"> m_InternalArray</text>
</g>
<!-- Node28 -->
<g id="node28" class="node">
<title>Node28</title>
<g id="a_node28"><a xlink:href="classitk_1_1FixedArray.html" target="_top" xlink:title=" ">
<polygon fill="white" stroke="black" points="1330,-103.5 1330,-122.5 1504,-122.5 1504,-103.5 1330,-103.5"/>
<text text-anchor="middle" x="1417" y="-110.5" font-family="Helvetica,sans-Serif" font-size="10.00">itk::FixedArray&lt; TCoordRep, 3 &gt;</text>
</a>
</g>
</g>
<!-- Node25&#45;&gt;Node28 -->
<g id="edge33" class="edge">
<title>Node25&#45;&gt;Node28</title>
<path fill="none" stroke="#9a32cd" stroke-dasharray="5,2" d="M1099.02,-171.85C1115.24,-163.64 1136.81,-153.8 1157,-148 1213.37,-131.82 1278.84,-123.05 1329.85,-118.34"/>
<polygon fill="#9a32cd" stroke="#9a32cd" points="1097.4,-168.75 1090.13,-176.46 1100.62,-174.96 1097.4,-168.75"/>
<text text-anchor="middle" x="1234.5" y="-151" font-family="Helvetica,sans-Serif" font-size="10.00"> m_InternalArray</text>
</g>
<!-- Node30 -->
<g id="node30" class="node">
<title>Node30</title>
<g id="a_node30"><a xlink:href="classitk_1_1FixedArray.html" target="_top" xlink:title=" ">
<polygon fill="white" stroke="black" points="1350,-231 1350,-261 1484,-261 1484,-231 1350,-231"/>
<text text-anchor="start" x="1358" y="-249" font-family="Helvetica,sans-Serif" font-size="10.00">itk::FixedArray&lt; double,</text>
<text text-anchor="middle" x="1417" y="-238" font-family="Helvetica,sans-Serif" font-size="10.00"> VVectorDimension &gt;</text>
</a>
</g>
</g>
<!-- Node25&#45;&gt;Node30 -->
<g id="edge37" class="edge">
<title>Node25&#45;&gt;Node30</title>
<path fill="none" stroke="#9a32cd" stroke-dasharray="5,2" d="M1088.88,-203.01C1104.51,-218.39 1129.9,-239.97 1157,-249 1219.92,-269.97 1296.32,-265.78 1349.77,-258.46"/>
<polygon fill="#9a32cd" stroke="#9a32cd" points="1091.15,-200.32 1081.64,-195.63 1086.15,-205.22 1091.15,-200.32"/>
<text text-anchor="middle" x="1234.5" y="-267" font-family="Helvetica,sans-Serif" font-size="10.00"> m_InternalArray</text>
</g>
<!-- Node32 -->
<g id="node32" class="node">
<title>Node32</title>
<g id="a_node32"><a xlink:href="classitk_1_1FixedArray.html" target="_top" xlink:title=" ">
<polygon fill="white" stroke="black" points="1353,-192.5 1353,-211.5 1481,-211.5 1481,-192.5 1353,-192.5"/>
<text text-anchor="middle" x="1417" y="-199.5" font-family="Helvetica,sans-Serif" font-size="10.00">itk::FixedArray&lt; T, 3 &gt;</text>
</a>
</g>
</g>
<!-- Node25&#45;&gt;Node32 -->
<g id="edge41" class="edge">
<title>Node25&#45;&gt;Node32</title>
<path fill="none" stroke="#9a32cd" stroke-dasharray="5,2" d="M1110.43,-187.75C1168.72,-190.47 1281.87,-195.74 1352.93,-199.06"/>
<polygon fill="#9a32cd" stroke="#9a32cd" points="1110.35,-184.24 1100.2,-187.27 1110.03,-191.23 1110.35,-184.24"/>
<text text-anchor="middle" x="1234.5" y="-199" font-family="Helvetica,sans-Serif" font-size="10.00"> m_InternalArray</text>
</g>
<!-- Node26 -->
<g id="node26" class="node">
<title>Node26</title>
<g id="a_node26"><a xlink:href="classitk_1_1FixedArray.html" target="_top" xlink:title="Simulate a standard C array with copy semantics.">
<polygon fill="white" stroke="black" points="1005,-69 1005,-99 1139,-99 1139,-69 1005,-69"/>
<text text-anchor="start" x="1013" y="-87" font-family="Helvetica,sans-Serif" font-size="10.00">itk::FixedArray&lt; TValue,</text>
<text text-anchor="middle" x="1072" y="-76" font-family="Helvetica,sans-Serif" font-size="10.00"> VLength &gt;</text>
</a>
</g>
</g>
<!-- Node26&#45;&gt;Node24 -->
<g id="edge30" class="edge">
<title>Node26&#45;&gt;Node24</title>
<path fill="none" stroke="orange" stroke-dasharray="5,2" d="M1149.04,-68.38C1209.21,-57.91 1287.12,-49.15 1312,-68 1335.55,-85.84 1309.2,-111.02 1330,-132 1335.58,-137.63 1342.35,-142.01 1349.62,-145.42"/>
<polygon fill="orange" stroke="orange" points="1148.4,-64.94 1139.16,-70.15 1149.62,-71.84 1148.4,-64.94"/>
<text text-anchor="middle" x="1234.5" y="-71" font-family="Helvetica,sans-Serif" font-size="10.00"> &lt; double, VPointDimension &gt;</text>
</g>
<!-- Node26&#45;&gt;Node28 -->
<g id="edge34" class="edge">
<title>Node26&#45;&gt;Node28</title>
<path fill="none" stroke="orange" stroke-dasharray="5,2" d="M1099.82,-62.95C1115.53,-51.98 1136.29,-39.7 1157,-34 1223.42,-15.73 1246.71,-12.02 1312,-34 1353.26,-47.89 1391.13,-85.38 1407.49,-103.26"/>
<polygon fill="orange" stroke="orange" points="1097.71,-60.16 1091.65,-68.85 1101.81,-65.83 1097.71,-60.16"/>
<text text-anchor="middle" x="1234.5" y="-37" font-family="Helvetica,sans-Serif" font-size="10.00"> &lt; TCoordRep, 3 &gt;</text>
</g>
<!-- Node26&#45;&gt;Node30 -->
<g id="edge38" class="edge">
<title>Node26&#45;&gt;Node30</title>
<path fill="none" stroke="orange" stroke-dasharray="5,2" d="M1094.23,-106.99C1108.22,-122.97 1126.24,-145.22 1139,-167 1149.68,-185.23 1140.29,-198.07 1157,-211 1164.6,-216.88 1275.68,-230.32 1349.88,-238.73"/>
<polygon fill="orange" stroke="orange" points="1096.59,-104.38 1087.33,-99.24 1091.37,-109.04 1096.59,-104.38"/>
<text text-anchor="middle" x="1234.5" y="-236" font-family="Helvetica,sans-Serif" font-size="10.00"> &lt; double, VVectorDimension &gt;</text>
</g>
<!-- Node26&#45;&gt;Node32 -->
<g id="edge42" class="edge">
<title>Node26&#45;&gt;Node32</title>
<path fill="none" stroke="orange" stroke-dasharray="5,2" d="M1149.47,-81.67C1210.06,-81.49 1288.32,-85.5 1312,-106 1337.92,-128.44 1305.81,-156.71 1330,-181 1336.4,-187.42 1344.42,-192 1352.97,-195.25"/>
<polygon fill="orange" stroke="orange" points="1149.12,-78.17 1139.15,-81.74 1149.17,-85.17 1149.12,-78.17"/>
<text text-anchor="middle" x="1234.5" y="-109" font-family="Helvetica,sans-Serif" font-size="10.00"> &lt; T, 3 &gt;</text>
</g>
<!-- Node27 -->
<g id="node27" class="node">
<title>Node27</title>
<g id="a_node27"><a xlink:href="classitk_1_1Point.html" target="_top" xlink:title="A templated class holding a geometric point in n&#45;Dimensional space.">
<polygon fill="white" stroke="black" points="1692,-98 1692,-128 1819,-128 1819,-98 1692,-98"/>
<text text-anchor="start" x="1700" y="-116" font-family="Helvetica,sans-Serif" font-size="10.00">itk::Point&lt; TCoordRep,</text>
<text text-anchor="middle" x="1755.5" y="-105" font-family="Helvetica,sans-Serif" font-size="10.00"> VPointDimension &gt;</text>
</a>
</g>
</g>
<!-- Node27&#45;&gt;Node23 -->
<g id="edge31" class="edge">
<title>Node27&#45;&gt;Node23</title>
<path fill="none" stroke="orange" stroke-dasharray="5,2" d="M1829.33,-109.79C1894.78,-108.09 1993.33,-108.48 2078,-121 2104.73,-124.95 2133.91,-132.81 2157.19,-139.98"/>
<polygon fill="orange" stroke="orange" points="1829.02,-106.29 1819.12,-110.08 1829.21,-113.29 1829.02,-106.29"/>
<text text-anchor="start" x="1907.5" y="-135" font-family="Helvetica,sans-Serif" font-size="10.00"> &lt; double, Self::InputSpace</text>
<text text-anchor="middle" x="1973.5" y="-124" font-family="Helvetica,sans-Serif" font-size="10.00">Dimension &gt;</text>
</g>
<!-- Node28&#45;&gt;Node27 -->
<g id="edge32" class="edge">
<title>Node28&#45;&gt;Node27</title>
<path fill="none" stroke="midnightblue" d="M1514.34,-113C1571.39,-113 1642.02,-113 1691.88,-113"/>
<polygon fill="midnightblue" stroke="midnightblue" points="1514.22,-109.5 1504.22,-113 1514.22,-116.5 1514.22,-109.5"/>
</g>
<!-- Node29 -->
<g id="node29" class="node">
<title>Node29</title>
<g id="a_node29"><a xlink:href="classitk_1_1Vector.html" target="_top" xlink:title=" ">
<polygon fill="white" stroke="black" points="2117.5,-210 2117.5,-240 2287.5,-240 2287.5,-210 2117.5,-210"/>
<text text-anchor="start" x="2125.5" y="-228" font-family="Helvetica,sans-Serif" font-size="10.00">itk::Vector&lt; double,</text>
<text text-anchor="middle" x="2202.5" y="-217" font-family="Helvetica,sans-Serif" font-size="10.00"> Self::OutputSpaceDimension &gt;</text>
</a>
</g>
</g>
<!-- Node29&#45;&gt;Node3 -->
<g id="edge35" class="edge">
<title>Node29&#45;&gt;Node3</title>
<path fill="none" stroke="#9a32cd" stroke-dasharray="5,2" d="M2297.96,-214.03C2307.76,-213.2 2317.57,-212.49 2327,-212 2469.43,-204.52 2505.45,-228.12 2644,-262 2690.96,-273.48 2743.98,-288.09 2782.14,-298.9"/>
<polygon fill="#9a32cd" stroke="#9a32cd" points="2297.43,-210.56 2287.78,-214.94 2298.05,-217.54 2297.43,-210.56"/>
<text text-anchor="middle" x="2537.5" y="-276" font-family="Helvetica,sans-Serif" font-size="10.00"> m_Offset</text>
<text text-anchor="middle" x="2537.5" y="-265" font-family="Helvetica,sans-Serif" font-size="10.00">m_Translation</text>
</g>
<!-- Node29&#45;&gt;Node34 -->
<g id="edge52" class="edge">
<title>Node29&#45;&gt;Node34</title>
<path fill="none" stroke="#9a32cd" stroke-dasharray="5,2" d="M2297.76,-239.77C2334.12,-246.42 2375.82,-255.23 2413,-266 2438.74,-273.46 2466.63,-284.07 2489.38,-293.42"/>
<polygon fill="#9a32cd" stroke="#9a32cd" points="2298.12,-236.28 2287.66,-237.95 2296.88,-243.17 2298.12,-236.28"/>
<text text-anchor="middle" x="2370" y="-280" font-family="Helvetica,sans-Serif" font-size="10.00"> m_Offset</text>
<text text-anchor="middle" x="2370" y="-269" font-family="Helvetica,sans-Serif" font-size="10.00">m_Translation</text>
</g>
<!-- Node30&#45;&gt;Node29 -->
<g id="edge36" class="edge">
<title>Node30&#45;&gt;Node29</title>
<path fill="none" stroke="midnightblue" d="M1494.1,-244.2C1616.94,-241.27 1866.54,-235.15 2078,-229 2090.76,-228.63 2104.26,-228.21 2117.46,-227.8"/>
<polygon fill="midnightblue" stroke="midnightblue" points="1493.96,-240.71 1484.05,-244.44 1494.13,-247.7 1493.96,-240.71"/>
</g>
<!-- Node31 -->
<g id="node31" class="node">
<title>Node31</title>
<g id="a_node31"><a xlink:href="classitk_1_1Vector.html" target="_top" xlink:title="A templated class holding a n&#45;Dimensional vector.">
<polygon fill="white" stroke="black" points="1660,-193.5 1660,-212.5 1851,-212.5 1851,-193.5 1660,-193.5"/>
<text text-anchor="middle" x="1755.5" y="-200.5" font-family="Helvetica,sans-Serif" font-size="10.00">itk::Vector&lt; T, VVectorDimension &gt;</text>
</a>
</g>
</g>
<!-- Node31&#45;&gt;Node29 -->
<g id="edge39" class="edge">
<title>Node31&#45;&gt;Node29</title>
<path fill="none" stroke="orange" stroke-dasharray="5,2" d="M1861.58,-200.81C1924.46,-200.37 2005.91,-201.32 2078,-207 2090.74,-208 2104.17,-209.5 2117.3,-211.21"/>
<polygon fill="orange" stroke="orange" points="1861.23,-197.31 1851.25,-200.89 1861.28,-204.31 1861.23,-197.31"/>
<text text-anchor="start" x="1903.5" y="-221" font-family="Helvetica,sans-Serif" font-size="10.00"> &lt; double, Self::OutputSpace</text>
<text text-anchor="middle" x="1973.5" y="-210" font-family="Helvetica,sans-Serif" font-size="10.00">Dimension &gt;</text>
</g>
<!-- Node32&#45;&gt;Node31 -->
<g id="edge40" class="edge">
<title>Node32&#45;&gt;Node31</title>
<path fill="none" stroke="midnightblue" d="M1491.59,-202.22C1541.05,-202.37 1606.68,-202.56 1660,-202.72"/>
<polygon fill="midnightblue" stroke="midnightblue" points="1491.3,-198.72 1481.29,-202.19 1491.28,-205.72 1491.3,-198.72"/>
</g>
<!-- Node33&#45;&gt;Node3 -->
<g id="edge44" class="edge">
<title>Node33&#45;&gt;Node3</title>
<path fill="none" stroke="#9a32cd" stroke-dasharray="5,2" d="M2297.77,-442.22C2333.96,-440.23 2375.55,-436.83 2413,-431 2563.18,-407.62 2600.14,-395 2745,-349 2763.13,-343.24 2782.86,-335.67 2799.17,-329.05"/>
<polygon fill="#9a32cd" stroke="#9a32cd" points="2297.52,-438.73 2287.72,-442.74 2297.89,-445.72 2297.52,-438.73"/>
<text text-anchor="middle" x="2537.5" y="-430" font-family="Helvetica,sans-Serif" font-size="10.00"> m_InverseMatrix</text>
</g>
<!-- Node33&#45;&gt;Node34 -->
<g id="edge54" class="edge">
<title>Node33&#45;&gt;Node34</title>
<path fill="none" stroke="#9a32cd" stroke-dasharray="5,2" d="M2296.77,-422.87C2301.06,-420.51 2305.16,-417.89 2309,-415 2321.11,-405.87 2315.14,-395.46 2327,-386 2357.45,-361.72 2396.58,-345.39 2432.77,-334.51"/>
<polygon fill="#9a32cd" stroke="#9a32cd" points="2295.14,-419.77 2287.76,-427.37 2298.27,-426.04 2295.14,-419.77"/>
<text text-anchor="middle" x="2370" y="-389" font-family="Helvetica,sans-Serif" font-size="10.00"> m_InverseMatrix</text>
</g>
<!-- Node34&#45;&gt;Node3 -->
<g id="edge46" class="edge">
<title>Node34&#45;&gt;Node3</title>
<path fill="none" stroke="orange" stroke-dasharray="5,2" d="M2654.34,-314C2690.91,-314 2730.23,-314 2762.78,-314"/>
<polygon fill="orange" stroke="orange" points="2654.11,-310.5 2644.11,-314 2654.11,-317.5 2654.11,-310.5"/>
<text text-anchor="middle" x="2703.5" y="-317" font-family="Helvetica,sans-Serif" font-size="10.00"> &lt; double, 3, 3 &gt;</text>
</g>
<!-- Node35&#45;&gt;Node34 -->
<g id="edge47" class="edge">
<title>Node35&#45;&gt;Node34</title>
<path fill="none" stroke="midnightblue" d="M2278.08,-334.95C2323.08,-331.3 2381.13,-326.6 2430.8,-322.57"/>
<polygon fill="midnightblue" stroke="midnightblue" points="2277.78,-331.47 2268.1,-335.76 2278.35,-338.44 2277.78,-331.47"/>
</g>
<!-- Node36&#45;&gt;Node2 -->
<g id="edge55" class="edge">
<title>Node36&#45;&gt;Node2</title>
<path fill="none" stroke="orange" stroke-dasharray="5,2" d="M3105.26,-300.09C3133.36,-302.79 3164.09,-305.75 3189.97,-308.23"/>
<polygon fill="orange" stroke="orange" points="3105.32,-296.58 3095.03,-299.11 3104.65,-303.55 3105.32,-296.58"/>
<text text-anchor="middle" x="3142.5" y="-309" font-family="Helvetica,sans-Serif" font-size="10.00"> &lt; double &gt;</text>
</g>
</g>
</svg>
