<?xml version="1.0" encoding="UTF-8" standalone="no"?>
<!DOCTYPE svg PUBLIC "-//W3C//DTD SVG 1.1//EN"
 "http://www.w3.org/Graphics/SVG/1.1/DTD/svg11.dtd">
<!-- Generated by graphviz version 2.43.0 (0)
 -->
<!-- Title: itk::GPUFiniteDifferenceFunction&lt; TImageType &gt; Pages: 1 -->
<svg width="1589pt" height="246pt"
 viewBox="0.00 0.00 1589.00 245.50" xmlns="http://www.w3.org/2000/svg" xmlns:xlink="http://www.w3.org/1999/xlink">
<g id="graph0" class="graph" transform="scale(1 1) rotate(0) translate(4 241.5)">
<title>itk::GPUFiniteDifferenceFunction&lt; TImageType &gt;</title>
<polygon fill="white" stroke="transparent" points="-4,4 -4,-241.5 1585,-241.5 1585,4 -4,4"/>
<!-- Node1 -->
<g id="node1" class="node">
<title>Node1</title>
<g id="a_node1"><a xlink:title=" ">
<polygon fill="#bfbfbf" stroke="black" points="1441,-78.5 1441,-108.5 1581,-108.5 1581,-78.5 1441,-78.5"/>
<text text-anchor="start" x="1449" y="-96.5" font-family="Helvetica,sans-Serif" font-size="10.00">itk::GPUFiniteDifference</text>
<text text-anchor="middle" x="1511" y="-85.5" font-family="Helvetica,sans-Serif" font-size="10.00">Function&lt; TImageType &gt;</text>
</a>
</g>
</g>
<!-- Node2 -->
<g id="node2" class="node">
<title>Node2</title>
<g id="a_node2"><a xlink:href="classitk_1_1FiniteDifferenceFunction.html" target="_top" xlink:title=" ">
<polygon fill="white" stroke="black" points="1138,-114.5 1138,-144.5 1292,-144.5 1292,-114.5 1138,-114.5"/>
<text text-anchor="start" x="1146" y="-132.5" font-family="Helvetica,sans-Serif" font-size="10.00">itk::FiniteDifferenceFunction</text>
<text text-anchor="middle" x="1215" y="-121.5" font-family="Helvetica,sans-Serif" font-size="10.00">&lt; TImageType &gt;</text>
</a>
</g>
</g>
<!-- Node2&#45;&gt;Node1 -->
<g id="edge1" class="edge">
<title>Node2&#45;&gt;Node1</title>
<path fill="none" stroke="midnightblue" d="M1302.23,-118.94C1346.36,-113.54 1399.34,-107.05 1440.76,-101.98"/>
<polygon fill="midnightblue" stroke="midnightblue" points="1301.6,-115.49 1292.09,-120.18 1302.45,-122.44 1301.6,-115.49"/>
</g>
<!-- Node3 -->
<g id="node3" class="node">
<title>Node3</title>
<g id="a_node3"><a xlink:href="classitk_1_1LightObject.html" target="_top" xlink:title="Light weight base class for most itk classes.">
<polygon fill="white" stroke="black" points="921,-175 921,-194 1012,-194 1012,-175 921,-175"/>
<text text-anchor="middle" x="966.5" y="-182" font-family="Helvetica,sans-Serif" font-size="10.00">itk::LightObject</text>
</a>
</g>
</g>
<!-- Node3&#45;&gt;Node2 -->
<g id="edge2" class="edge">
<title>Node3&#45;&gt;Node2</title>
<path fill="none" stroke="midnightblue" d="M1020.19,-172.74C1057.04,-164.52 1106.56,-153.47 1146.33,-144.6"/>
<polygon fill="midnightblue" stroke="midnightblue" points="1019.15,-169.39 1010.16,-174.98 1020.68,-176.22 1019.15,-169.39"/>
</g>
<!-- Node4 -->
<g id="node4" class="node">
<title>Node4</title>
<g id="a_node4"><a xlink:title=" ">
<polygon fill="white" stroke="black" points="552,-218 552,-237 659,-237 659,-218 552,-218"/>
<text text-anchor="middle" x="605.5" y="-225" font-family="Helvetica,sans-Serif" font-size="10.00">std::atomic&lt; int &gt;</text>
</a>
</g>
</g>
<!-- Node4&#45;&gt;Node3 -->
<g id="edge3" class="edge">
<title>Node4&#45;&gt;Node3</title>
<path fill="none" stroke="#9a32cd" stroke-dasharray="5,2" d="M669.23,-221.9C721.65,-216.99 798.32,-209.28 865,-200.5 883.22,-198.1 903.22,-195.01 920.55,-192.19"/>
<polygon fill="#9a32cd" stroke="#9a32cd" points="668.71,-218.43 659.08,-222.84 669.36,-225.4 668.71,-218.43"/>
<text text-anchor="middle" x="790.5" y="-219.5" font-family="Helvetica,sans-Serif" font-size="10.00"> m_ReferenceCount</text>
</g>
<!-- Node5 -->
<g id="node5" class="node">
<title>Node5</title>
<g id="a_node5"><a xlink:href="classitk_1_1ConstNeighborhoodIterator.html" target="_top" xlink:title=" ">
<polygon fill="white" stroke="black" points="883,-90.5 883,-120.5 1050,-120.5 1050,-90.5 883,-90.5"/>
<text text-anchor="start" x="891" y="-108.5" font-family="Helvetica,sans-Serif" font-size="10.00">itk::ConstNeighborhoodIterator</text>
<text text-anchor="middle" x="966.5" y="-97.5" font-family="Helvetica,sans-Serif" font-size="10.00">&lt; TImageType &gt;</text>
</a>
</g>
</g>
<!-- Node5&#45;&gt;Node2 -->
<g id="edge4" class="edge">
<title>Node5&#45;&gt;Node2</title>
<path fill="none" stroke="#9a32cd" stroke-dasharray="5,2" d="M1060.42,-113.81C1080.1,-115.64 1100.74,-117.59 1120,-119.5 1125.8,-120.07 1131.8,-120.68 1137.83,-121.3"/>
<polygon fill="#9a32cd" stroke="#9a32cd" points="1060.51,-110.31 1050.23,-112.88 1059.86,-117.28 1060.51,-110.31"/>
<text text-anchor="middle" x="1094" y="-122.5" font-family="Helvetica,sans-Serif" font-size="10.00"> m_Radius</text>
</g>
<!-- Node6 -->
<g id="node6" class="node">
<title>Node6</title>
<g id="a_node6"><a xlink:href="classitk_1_1Neighborhood.html" target="_top" xlink:title=" ">
<polygon fill="white" stroke="black" points="521.5,-158 521.5,-199 689.5,-199 689.5,-158 521.5,-158"/>
<text text-anchor="start" x="529.5" y="-187" font-family="Helvetica,sans-Serif" font-size="10.00">itk::Neighborhood&lt;</text>
<text text-anchor="start" x="529.5" y="-176" font-family="Helvetica,sans-Serif" font-size="10.00"> TImage::InternalPixelType</text>
<text text-anchor="middle" x="605.5" y="-165" font-family="Helvetica,sans-Serif" font-size="10.00"> *, TImage::ImageDimension &gt;</text>
</a>
</g>
</g>
<!-- Node6&#45;&gt;Node5 -->
<g id="edge5" class="edge">
<title>Node6&#45;&gt;Node5</title>
<path fill="none" stroke="midnightblue" d="M699.8,-188.73C749.88,-191.17 812.03,-189.21 865,-172.5 898.2,-162.03 930.6,-136.96 949.28,-120.64"/>
<polygon fill="midnightblue" stroke="midnightblue" points="699.8,-185.23 689.63,-188.17 699.42,-192.22 699.8,-185.23"/>
</g>
<!-- Node7 -->
<g id="node7" class="node">
<title>Node7</title>
<g id="a_node7"><a xlink:href="structitk_1_1Size.html" target="_top" xlink:title=" ">
<polygon fill="white" stroke="black" points="249,-213 249,-232 386,-232 386,-213 249,-213"/>
<text text-anchor="middle" x="317.5" y="-220" font-family="Helvetica,sans-Serif" font-size="10.00">itk::Size&lt; VDimension &gt;</text>
</a>
</g>
</g>
<!-- Node7&#45;&gt;Node6 -->
<g id="edge6" class="edge">
<title>Node7&#45;&gt;Node6</title>
<path fill="none" stroke="#9a32cd" stroke-dasharray="5,2" d="M390.46,-211.43C430.27,-205.3 479.93,-197.66 521.4,-191.29"/>
<polygon fill="#9a32cd" stroke="#9a32cd" points="389.91,-207.97 380.56,-212.95 390.97,-214.89 389.91,-207.97"/>
<text text-anchor="middle" x="458.5" y="-219.5" font-family="Helvetica,sans-Serif" font-size="10.00"> m_Radius</text>
<text text-anchor="middle" x="458.5" y="-208.5" font-family="Helvetica,sans-Serif" font-size="10.00">m_Size</text>
</g>
<!-- Node8 -->
<g id="node8" class="node">
<title>Node8</title>
<g id="a_node8"><a xlink:href="classitk_1_1NeighborhoodAllocator.html" target="_top" xlink:title=" ">
<polygon fill="white" stroke="black" points="231,-163.5 231,-193.5 404,-193.5 404,-163.5 231,-163.5"/>
<text text-anchor="start" x="239" y="-181.5" font-family="Helvetica,sans-Serif" font-size="10.00">itk::NeighborhoodAllocator</text>
<text text-anchor="middle" x="317.5" y="-170.5" font-family="Helvetica,sans-Serif" font-size="10.00">&lt; TImage::InternalPixelType * &gt;</text>
</a>
</g>
</g>
<!-- Node8&#45;&gt;Node6 -->
<g id="edge7" class="edge">
<title>Node8&#45;&gt;Node6</title>
<path fill="none" stroke="#9a32cd" stroke-dasharray="5,2" d="M414.43,-178.5C449.03,-178.5 487.77,-178.5 521.21,-178.5"/>
<polygon fill="#9a32cd" stroke="#9a32cd" points="414.31,-175 404.31,-178.5 414.31,-182 414.31,-175"/>
<text text-anchor="middle" x="458.5" y="-181.5" font-family="Helvetica,sans-Serif" font-size="10.00"> m_DataBuffer</text>
</g>
<!-- Node9 -->
<g id="node9" class="node">
<title>Node9</title>
<g id="a_node9"><a xlink:title=" ">
<polygon fill="white" stroke="black" points="4.5,-163.5 4.5,-193.5 141.5,-193.5 141.5,-163.5 4.5,-163.5"/>
<text text-anchor="start" x="12.5" y="-181.5" font-family="Helvetica,sans-Serif" font-size="10.00">std::unique_ptr&lt; TImage</text>
<text text-anchor="middle" x="73" y="-170.5" font-family="Helvetica,sans-Serif" font-size="10.00">::InternalPixelType *[]&gt;</text>
</a>
</g>
</g>
<!-- Node9&#45;&gt;Node8 -->
<g id="edge8" class="edge">
<title>Node9&#45;&gt;Node8</title>
<path fill="none" stroke="#9a32cd" stroke-dasharray="5,2" d="M151.77,-178.5C176.93,-178.5 204.96,-178.5 230.67,-178.5"/>
<polygon fill="#9a32cd" stroke="#9a32cd" points="151.55,-175 141.55,-178.5 151.55,-182 151.55,-175"/>
<text text-anchor="middle" x="188.5" y="-181.5" font-family="Helvetica,sans-Serif" font-size="10.00"> m_Data</text>
</g>
<!-- Node10 -->
<g id="node10" class="node">
<title>Node10</title>
<g id="a_node10"><a xlink:title=" ">
<polygon fill="white" stroke="black" points="248,-125 248,-144 387,-144 387,-125 248,-125"/>
<text text-anchor="middle" x="317.5" y="-132" font-family="Helvetica,sans-Serif" font-size="10.00">std::vector&lt; itk::Offset &gt;</text>
</a>
</g>
</g>
<!-- Node10&#45;&gt;Node6 -->
<g id="edge9" class="edge">
<title>Node10&#45;&gt;Node6</title>
<path fill="none" stroke="#9a32cd" stroke-dasharray="5,2" d="M390.46,-145.57C430.27,-151.7 479.93,-159.34 521.4,-165.71"/>
<polygon fill="#9a32cd" stroke="#9a32cd" points="390.97,-142.11 380.56,-144.05 389.91,-149.03 390.97,-142.11"/>
<text text-anchor="middle" x="458.5" y="-162.5" font-family="Helvetica,sans-Serif" font-size="10.00"> m_OffsetTable</text>
</g>
<!-- Node11 -->
<g id="node11" class="node">
<title>Node11</title>
<g id="a_node11"><a xlink:href="structitk_1_1Offset.html" target="_top" xlink:title="Represent a n&#45;dimensional offset between two n&#45;dimensional indexes of n&#45;dimensional image.">
<polygon fill="white" stroke="black" points="0,-125 0,-144 146,-144 146,-125 0,-125"/>
<text text-anchor="middle" x="73" y="-132" font-family="Helvetica,sans-Serif" font-size="10.00">itk::Offset&lt; VDimension &gt;</text>
</a>
</g>
</g>
<!-- Node11&#45;&gt;Node10 -->
<g id="edge10" class="edge">
<title>Node11&#45;&gt;Node10</title>
<path fill="none" stroke="#9a32cd" stroke-dasharray="5,2" d="M156.43,-134.5C186.09,-134.5 219.21,-134.5 247.59,-134.5"/>
<polygon fill="#9a32cd" stroke="#9a32cd" points="156.1,-131 146.1,-134.5 156.1,-138 156.1,-131"/>
<text text-anchor="middle" x="188.5" y="-137.5" font-family="Helvetica,sans-Serif" font-size="10.00"> elements</text>
</g>
<!-- Node12 -->
<g id="node12" class="node">
<title>Node12</title>
<g id="a_node12"><a xlink:href="structitk_1_1Index.html" target="_top" xlink:title=" ">
<polygon fill="white" stroke="black" points="525,-99 525,-118 686,-118 686,-99 525,-99"/>
<text text-anchor="middle" x="605.5" y="-106" font-family="Helvetica,sans-Serif" font-size="10.00">itk::Index&lt; Self::Dimension &gt;</text>
</a>
</g>
</g>
<!-- Node12&#45;&gt;Node5 -->
<g id="edge11" class="edge">
<title>Node12&#45;&gt;Node5</title>
<path fill="none" stroke="#9a32cd" stroke-dasharray="5,2" d="M696.45,-106.75C703.07,-106.66 709.64,-106.57 716,-106.5 771.66,-105.88 834.3,-105.63 882.9,-105.54"/>
<polygon fill="#9a32cd" stroke="#9a32cd" points="695.99,-103.26 686.04,-106.91 696.09,-110.26 695.99,-103.26"/>
<text text-anchor="middle" x="790.5" y="-164.5" font-family="Helvetica,sans-Serif" font-size="10.00"> m_BeginIndex</text>
<text text-anchor="middle" x="790.5" y="-153.5" font-family="Helvetica,sans-Serif" font-size="10.00">m_Bound</text>
<text text-anchor="middle" x="790.5" y="-142.5" font-family="Helvetica,sans-Serif" font-size="10.00">m_EndIndex</text>
<text text-anchor="middle" x="790.5" y="-131.5" font-family="Helvetica,sans-Serif" font-size="10.00">m_InnerBoundsHigh</text>
<text text-anchor="middle" x="790.5" y="-120.5" font-family="Helvetica,sans-Serif" font-size="10.00">m_InnerBoundsLow</text>
<text text-anchor="middle" x="790.5" y="-109.5" font-family="Helvetica,sans-Serif" font-size="10.00">m_Loop</text>
</g>
<!-- Node13 -->
<g id="node13" class="node">
<title>Node13</title>
<g id="a_node13"><a xlink:href="classitk_1_1ZeroFluxNeumannBoundaryCondition.html" target="_top" xlink:title=" ">
<polygon fill="white" stroke="black" points="519,-49.5 519,-79.5 692,-79.5 692,-49.5 519,-49.5"/>
<text text-anchor="start" x="527" y="-67.5" font-family="Helvetica,sans-Serif" font-size="10.00">itk::ZeroFluxNeumannBoundary</text>
<text text-anchor="middle" x="605.5" y="-56.5" font-family="Helvetica,sans-Serif" font-size="10.00">Condition&lt; TImageType &gt;</text>
</a>
</g>
</g>
<!-- Node13&#45;&gt;Node5 -->
<g id="edge12" class="edge">
<title>Node13&#45;&gt;Node5</title>
<path fill="none" stroke="#9a32cd" stroke-dasharray="5,2" d="M702.42,-73.04C751.17,-77.67 811.31,-83.8 865,-90.5 870.78,-91.22 876.73,-92.01 882.73,-92.83"/>
<polygon fill="#9a32cd" stroke="#9a32cd" points="702.48,-69.53 692.19,-72.08 701.82,-76.5 702.48,-69.53"/>
<text text-anchor="middle" x="790.5" y="-93.5" font-family="Helvetica,sans-Serif" font-size="10.00"> m_InternalBoundaryCondition</text>
</g>
<!-- Node14 -->
<g id="node14" class="node">
<title>Node14</title>
<g id="a_node14"><a xlink:href="classitk_1_1ImageBoundaryCondition.html" target="_top" xlink:title=" ">
<polygon fill="white" stroke="black" points="235.5,-49.5 235.5,-79.5 399.5,-79.5 399.5,-49.5 235.5,-49.5"/>
<text text-anchor="start" x="243.5" y="-67.5" font-family="Helvetica,sans-Serif" font-size="10.00">itk::ImageBoundaryCondition</text>
<text text-anchor="middle" x="317.5" y="-56.5" font-family="Helvetica,sans-Serif" font-size="10.00">&lt; TImageType, TImageType &gt;</text>
</a>
</g>
</g>
<!-- Node14&#45;&gt;Node13 -->
<g id="edge13" class="edge">
<title>Node14&#45;&gt;Node13</title>
<path fill="none" stroke="midnightblue" d="M409.89,-64.5C444.82,-64.5 484.49,-64.5 518.86,-64.5"/>
<polygon fill="midnightblue" stroke="midnightblue" points="409.69,-61 399.69,-64.5 409.69,-68 409.69,-61"/>
</g>
<!-- Node15 -->
<g id="node15" class="node">
<title>Node15</title>
<g id="a_node15"><a xlink:href="classitk_1_1ImageBoundaryCondition.html" target="_top" xlink:title=" ">
<polygon fill="white" stroke="black" points="513,-0.5 513,-30.5 698,-30.5 698,-0.5 513,-0.5"/>
<text text-anchor="start" x="521" y="-18.5" font-family="Helvetica,sans-Serif" font-size="10.00">itk::ImageBoundaryCondition</text>
<text text-anchor="middle" x="605.5" y="-7.5" font-family="Helvetica,sans-Serif" font-size="10.00">&lt; ImageType, OutputImageType &gt;</text>
</a>
</g>
</g>
<!-- Node15&#45;&gt;Node5 -->
<g id="edge14" class="edge">
<title>Node15&#45;&gt;Node5</title>
<path fill="none" stroke="#9a32cd" stroke-dasharray="5,2" d="M708.24,-27.25C756.42,-34.32 814.37,-45.02 865,-60.5 890.05,-68.16 917.07,-80.51 936.78,-90.33"/>
<polygon fill="#9a32cd" stroke="#9a32cd" points="708.51,-23.76 698.12,-25.8 707.52,-30.68 708.51,-23.76"/>
<text text-anchor="middle" x="790.5" y="-63.5" font-family="Helvetica,sans-Serif" font-size="10.00"> m_BoundaryCondition</text>
</g>
<!-- Node16 -->
<g id="node16" class="node">
<title>Node16</title>
<g id="a_node16"><a xlink:href="classitk_1_1SmartPointer.html" target="_top" xlink:title=" ">
<polygon fill="white" stroke="black" points="1161.5,-65.5 1161.5,-95.5 1268.5,-95.5 1268.5,-65.5 1161.5,-65.5"/>
<text text-anchor="start" x="1169.5" y="-83.5" font-family="Helvetica,sans-Serif" font-size="10.00">itk::SmartPointer&lt;</text>
<text text-anchor="middle" x="1215" y="-72.5" font-family="Helvetica,sans-Serif" font-size="10.00"> Self &gt;</text>
</a>
</g>
</g>
<!-- Node16&#45;&gt;Node1 -->
<g id="edge15" class="edge">
<title>Node16&#45;&gt;Node1</title>
<path fill="none" stroke="#9a32cd" stroke-dasharray="5,2" d="M1278.73,-83.27C1326.3,-85.38 1391.65,-88.27 1440.75,-90.44"/>
<polygon fill="#9a32cd" stroke="#9a32cd" points="1278.71,-79.77 1268.56,-82.82 1278.4,-86.76 1278.71,-79.77"/>
<text text-anchor="middle" x="1366.5" y="-92.5" font-family="Helvetica,sans-Serif" font-size="10.00"> m_GPUKernelManager</text>
</g>
</g>
</svg>
