<?xml version="1.0" encoding="UTF-8" standalone="no"?>
<!DOCTYPE svg PUBLIC "-//W3C//DTD SVG 1.1//EN"
 "http://www.w3.org/Graphics/SVG/1.1/DTD/svg11.dtd">
<!-- Generated by graphviz version 2.43.0 (0)
 -->
<!-- Title: itk::ScaleTransform&lt; TParametersValueType, VDimension &gt; Pages: 1 -->
<svg width="2424pt" height="392pt"
 viewBox="0.00 0.00 2424.00 392.00" xmlns="http://www.w3.org/2000/svg" xmlns:xlink="http://www.w3.org/1999/xlink">
<g id="graph0" class="graph" transform="scale(1 1) rotate(0) translate(4 388)">
<title>itk::ScaleTransform&lt; TParametersValueType, VDimension &gt;</title>
<polygon fill="white" stroke="transparent" points="-4,4 -4,-388 2420,-388 2420,4 -4,4"/>
<!-- Node1 -->
<g id="node1" class="node">
<title>Node1</title>
<g id="a_node1"><a xlink:title="Scale transformation of a vector space (e.g. space coordinates)">
<polygon fill="#bfbfbf" stroke="black" points="2274,-22.5 2274,-63.5 2416,-63.5 2416,-22.5 2274,-22.5"/>
<text text-anchor="start" x="2282" y="-51.5" font-family="Helvetica,sans-Serif" font-size="10.00">itk::ScaleTransform</text>
<text text-anchor="start" x="2282" y="-40.5" font-family="Helvetica,sans-Serif" font-size="10.00">&lt; TParametersValueType,</text>
<text text-anchor="middle" x="2345" y="-29.5" font-family="Helvetica,sans-Serif" font-size="10.00"> VDimension &gt;</text>
</a>
</g>
</g>
<!-- Node2 -->
<g id="node2" class="node">
<title>Node2</title>
<g id="a_node2"><a xlink:href="classitk_1_1MatrixOffsetTransformBase.html" target="_top" xlink:title=" ">
<polygon fill="white" stroke="black" points="2092,-137 2092,-167 2237,-167 2237,-137 2092,-137"/>
<text text-anchor="start" x="2100" y="-155" font-family="Helvetica,sans-Serif" font-size="10.00">itk::MatrixOffsetTransform</text>
<text text-anchor="middle" x="2164.5" y="-144" font-family="Helvetica,sans-Serif" font-size="10.00">Base&lt; float, 3, 3 &gt;</text>
</a>
</g>
</g>
<!-- Node2&#45;&gt;Node1 -->
<g id="edge1" class="edge">
<title>Node2&#45;&gt;Node1</title>
<path fill="none" stroke="midnightblue" d="M2199.25,-131.39C2231.06,-111.97 2278.45,-83.03 2310.26,-63.61"/>
<polygon fill="midnightblue" stroke="midnightblue" points="2197.03,-128.65 2190.32,-136.84 2200.68,-134.62 2197.03,-128.65"/>
</g>
<!-- Node3 -->
<g id="node3" class="node">
<title>Node3</title>
<g id="a_node3"><a xlink:href="classitk_1_1Transform.html" target="_top" xlink:title=" ">
<polygon fill="white" stroke="black" points="1757,-186 1757,-216 1970,-216 1970,-186 1757,-186"/>
<text text-anchor="start" x="1765" y="-204" font-family="Helvetica,sans-Serif" font-size="10.00">itk::Transform&lt; float,</text>
<text text-anchor="middle" x="1863.5" y="-193" font-family="Helvetica,sans-Serif" font-size="10.00"> VInputDimension, VOutputDimension &gt;</text>
</a>
</g>
</g>
<!-- Node3&#45;&gt;Node2 -->
<g id="edge2" class="edge">
<title>Node3&#45;&gt;Node2</title>
<path fill="none" stroke="midnightblue" d="M1980.3,-191.91C2010.93,-188.52 2043.85,-183.99 2074,-178 2088.28,-175.16 2103.59,-171.11 2117.43,-167.04"/>
<polygon fill="midnightblue" stroke="midnightblue" points="1979.58,-188.47 1970.01,-193.02 1980.33,-195.43 1979.58,-188.47"/>
</g>
<!-- Node4 -->
<g id="node4" class="node">
<title>Node4</title>
<g id="a_node4"><a xlink:href="classitk_1_1TransformBaseTemplate.html" target="_top" xlink:title=" ">
<polygon fill="white" stroke="black" points="1425,-203 1425,-233 1578,-233 1578,-203 1425,-203"/>
<text text-anchor="start" x="1433" y="-221" font-family="Helvetica,sans-Serif" font-size="10.00">itk::TransformBaseTemplate</text>
<text text-anchor="middle" x="1501.5" y="-210" font-family="Helvetica,sans-Serif" font-size="10.00">&lt; float &gt;</text>
</a>
</g>
</g>
<!-- Node4&#45;&gt;Node3 -->
<g id="edge3" class="edge">
<title>Node4&#45;&gt;Node3</title>
<path fill="none" stroke="midnightblue" d="M1588.65,-213.93C1639.19,-211.55 1703.44,-208.51 1757,-205.98"/>
<polygon fill="midnightblue" stroke="midnightblue" points="1588.23,-210.45 1578.41,-214.42 1588.56,-217.44 1588.23,-210.45"/>
</g>
<!-- Node5 -->
<g id="node5" class="node">
<title>Node5</title>
<g id="a_node5"><a xlink:href="classitk_1_1Object.html" target="_top" xlink:title="Base class for most ITK classes.">
<polygon fill="white" stroke="black" points="1215,-229.5 1215,-248.5 1282,-248.5 1282,-229.5 1215,-229.5"/>
<text text-anchor="middle" x="1248.5" y="-236.5" font-family="Helvetica,sans-Serif" font-size="10.00">itk::Object</text>
</a>
</g>
</g>
<!-- Node5&#45;&gt;Node4 -->
<g id="edge4" class="edge">
<title>Node5&#45;&gt;Node4</title>
<path fill="none" stroke="midnightblue" d="M1292.28,-235.42C1328.53,-232.39 1381.38,-227.97 1424.76,-224.34"/>
<polygon fill="midnightblue" stroke="midnightblue" points="1291.73,-231.95 1282.06,-236.28 1292.31,-238.93 1291.73,-231.95"/>
</g>
<!-- Node6 -->
<g id="node6" class="node">
<title>Node6</title>
<g id="a_node6"><a xlink:href="classitk_1_1LightObject.html" target="_top" xlink:title="Light weight base class for most itk classes.">
<polygon fill="white" stroke="black" points="932,-258.5 932,-277.5 1023,-277.5 1023,-258.5 932,-258.5"/>
<text text-anchor="middle" x="977.5" y="-265.5" font-family="Helvetica,sans-Serif" font-size="10.00">itk::LightObject</text>
</a>
</g>
</g>
<!-- Node6&#45;&gt;Node5 -->
<g id="edge5" class="edge">
<title>Node6&#45;&gt;Node5</title>
<path fill="none" stroke="midnightblue" d="M1033.42,-262.08C1088.02,-256.19 1169.93,-247.36 1214.96,-242.51"/>
<polygon fill="midnightblue" stroke="midnightblue" points="1032.79,-258.63 1023.22,-263.18 1033.54,-265.59 1032.79,-258.63"/>
</g>
<!-- Node7 -->
<g id="node7" class="node">
<title>Node7</title>
<g id="a_node7"><a xlink:title=" ">
<polygon fill="white" stroke="black" points="655.5,-258.5 655.5,-277.5 762.5,-277.5 762.5,-258.5 655.5,-258.5"/>
<text text-anchor="middle" x="709" y="-265.5" font-family="Helvetica,sans-Serif" font-size="10.00">std::atomic&lt; int &gt;</text>
</a>
</g>
</g>
<!-- Node7&#45;&gt;Node6 -->
<g id="edge6" class="edge">
<title>Node7&#45;&gt;Node6</title>
<path fill="none" stroke="#9a32cd" stroke-dasharray="5,2" d="M772.8,-268C821.7,-268 888.37,-268 931.92,-268"/>
<polygon fill="#9a32cd" stroke="#9a32cd" points="772.65,-264.5 762.65,-268 772.65,-271.5 772.65,-264.5"/>
<text text-anchor="middle" x="842.5" y="-271" font-family="Helvetica,sans-Serif" font-size="10.00"> m_ReferenceCount</text>
</g>
<!-- Node8 -->
<g id="node8" class="node">
<title>Node8</title>
<g id="a_node8"><a xlink:href="classitk_1_1TimeStamp.html" target="_top" xlink:title="Generate a unique, increasing time value.">
<polygon fill="white" stroke="black" points="931.5,-296.5 931.5,-315.5 1023.5,-315.5 1023.5,-296.5 931.5,-296.5"/>
<text text-anchor="middle" x="977.5" y="-303.5" font-family="Helvetica,sans-Serif" font-size="10.00">itk::TimeStamp</text>
</a>
</g>
</g>
<!-- Node8&#45;&gt;Node2 -->
<g id="edge28" class="edge">
<title>Node8&#45;&gt;Node2</title>
<path fill="none" stroke="#9a32cd" stroke-dasharray="5,2" d="M1033.83,-307.63C1088.21,-309.09 1173.56,-311 1247.5,-311 1247.5,-311 1247.5,-311 1864.5,-311 1962.67,-311 1992.73,-296.07 2074,-241 2105.38,-219.74 2135.22,-186.57 2151.27,-167.29"/>
<polygon fill="#9a32cd" stroke="#9a32cd" points="1033.8,-304.13 1023.71,-307.35 1033.61,-311.12 1033.8,-304.13"/>
<text text-anchor="middle" x="1501.5" y="-325" font-family="Helvetica,sans-Serif" font-size="10.00"> m_InverseMatrixMTime</text>
<text text-anchor="middle" x="1501.5" y="-314" font-family="Helvetica,sans-Serif" font-size="10.00">m_MatrixMTime</text>
</g>
<!-- Node8&#45;&gt;Node5 -->
<g id="edge7" class="edge">
<title>Node8&#45;&gt;Node5</title>
<path fill="none" stroke="#9a32cd" stroke-dasharray="5,2" d="M1027.01,-294.13C1039.07,-291.33 1051.98,-288.44 1064,-286 1122.79,-274.05 1139.82,-281.15 1197,-263 1208.47,-259.36 1220.68,-253.61 1230.22,-248.66"/>
<polygon fill="#9a32cd" stroke="#9a32cd" points="1026.06,-290.76 1017.13,-296.46 1027.66,-297.57 1026.06,-290.76"/>
<text text-anchor="middle" x="1130.5" y="-289" font-family="Helvetica,sans-Serif" font-size="10.00"> m_MTime</text>
</g>
<!-- Node9 -->
<g id="node9" class="node">
<title>Node9</title>
<g id="a_node9"><a xlink:title=" ">
<polygon fill="white" stroke="black" points="233,-296.5 233,-315.5 333,-315.5 333,-296.5 233,-296.5"/>
<text text-anchor="middle" x="283" y="-303.5" font-family="Helvetica,sans-Serif" font-size="10.00">std::atomic&lt; T &gt;</text>
</a>
</g>
</g>
<!-- Node9&#45;&gt;Node8 -->
<g id="edge8" class="edge">
<title>Node9&#45;&gt;Node8</title>
<path fill="none" stroke="#9a32cd" stroke-dasharray="5,2" d="M343.46,-306C479.32,-306 810.08,-306 931.14,-306"/>
<polygon fill="#9a32cd" stroke="#9a32cd" points="343.25,-302.5 333.25,-306 343.25,-309.5 343.25,-302.5"/>
<text text-anchor="middle" x="571" y="-309" font-family="Helvetica,sans-Serif" font-size="10.00"> m_GlobalTimeStamp</text>
</g>
<!-- Node10 -->
<g id="node10" class="node">
<title>Node10</title>
<g id="a_node10"><a xlink:title=" ">
<polygon fill="white" stroke="black" points="0,-311.5 0,-330.5 29,-330.5 29,-311.5 0,-311.5"/>
<text text-anchor="middle" x="14.5" y="-318.5" font-family="Helvetica,sans-Serif" font-size="10.00">T</text>
</a>
</g>
</g>
<!-- Node10&#45;&gt;Node9 -->
<g id="edge9" class="edge">
<title>Node10&#45;&gt;Node9</title>
<path fill="none" stroke="#9a32cd" stroke-dasharray="5,2" d="M39.03,-313.58C41.7,-312.95 44.39,-312.4 47,-312 110.54,-302.27 184.85,-302.24 232.62,-303.66"/>
<polygon fill="#9a32cd" stroke="#9a32cd" points="37.85,-310.27 29.13,-316.29 39.7,-317.03 37.85,-310.27"/>
<text text-anchor="middle" x="71.5" y="-315" font-family="Helvetica,sans-Serif" font-size="10.00"> ptr</text>
</g>
<!-- Node15 -->
<g id="node15" class="node">
<title>Node15</title>
<g id="a_node15"><a xlink:title=" ">
<polygon fill="white" stroke="black" points="114,-340.5 114,-359.5 215,-359.5 215,-340.5 114,-340.5"/>
<text text-anchor="middle" x="164.5" y="-347.5" font-family="Helvetica,sans-Serif" font-size="10.00">std::map&lt; K, T &gt;</text>
</a>
</g>
</g>
<!-- Node10&#45;&gt;Node15 -->
<g id="edge16" class="edge">
<title>Node10&#45;&gt;Node15</title>
<path fill="none" stroke="#9a32cd" stroke-dasharray="5,2" d="M39.09,-325.62C59.39,-329.6 89.35,-335.47 114.78,-340.45"/>
<polygon fill="#9a32cd" stroke="#9a32cd" points="39.64,-322.16 29.16,-323.68 38.3,-329.03 39.64,-322.16"/>
<text text-anchor="middle" x="71.5" y="-339" font-family="Helvetica,sans-Serif" font-size="10.00"> elements</text>
</g>
<!-- Node11 -->
<g id="node11" class="node">
<title>Node11</title>
<g id="a_node11"><a xlink:title=" ">
<polygon fill="white" stroke="black" points="909,-209 909,-239 1046,-239 1046,-209 909,-209"/>
<text text-anchor="start" x="917" y="-227" font-family="Helvetica,sans-Serif" font-size="10.00">std::unique_ptr&lt; Subject</text>
<text text-anchor="middle" x="977.5" y="-216" font-family="Helvetica,sans-Serif" font-size="10.00">Implementation &gt;</text>
</a>
</g>
</g>
<!-- Node11&#45;&gt;Node5 -->
<g id="edge10" class="edge">
<title>Node11&#45;&gt;Node5</title>
<path fill="none" stroke="#9a32cd" stroke-dasharray="5,2" d="M1056.31,-220.94C1098.16,-220.33 1150.57,-221.24 1197,-227 1202.81,-227.72 1208.93,-228.85 1214.82,-230.13"/>
<polygon fill="#9a32cd" stroke="#9a32cd" points="1056.12,-217.44 1046.19,-221.12 1056.25,-224.44 1056.12,-217.44"/>
<text text-anchor="middle" x="1130.5" y="-230" font-family="Helvetica,sans-Serif" font-size="10.00"> m_SubjectImplementation</text>
</g>
<!-- Node12 -->
<g id="node12" class="node">
<title>Node12</title>
<g id="a_node12"><a xlink:title=" ">
<polygon fill="white" stroke="black" points="911.5,-335 911.5,-365 1043.5,-365 1043.5,-335 911.5,-335"/>
<text text-anchor="start" x="919.5" y="-353" font-family="Helvetica,sans-Serif" font-size="10.00">std::unique_ptr&lt; itk</text>
<text text-anchor="middle" x="977.5" y="-342" font-family="Helvetica,sans-Serif" font-size="10.00">::MetaDataDictionary &gt;</text>
</a>
</g>
</g>
<!-- Node12&#45;&gt;Node5 -->
<g id="edge11" class="edge">
<title>Node12&#45;&gt;Node5</title>
<path fill="none" stroke="#9a32cd" stroke-dasharray="5,2" d="M1054.07,-345.38C1098.45,-339.78 1154.06,-327.56 1197,-301 1218.25,-287.85 1234.58,-262.54 1242.41,-248.67"/>
<polygon fill="#9a32cd" stroke="#9a32cd" points="1053.44,-341.93 1043.92,-346.57 1054.26,-348.88 1053.44,-341.93"/>
<text text-anchor="middle" x="1130.5" y="-346" font-family="Helvetica,sans-Serif" font-size="10.00"> m_MetaDataDictionary</text>
</g>
<!-- Node13 -->
<g id="node13" class="node">
<title>Node13</title>
<g id="a_node13"><a xlink:href="classitk_1_1MetaDataDictionary.html" target="_top" xlink:title="Provides a mechanism for storing a collection of arbitrary data types.">
<polygon fill="white" stroke="black" points="642,-340.5 642,-359.5 776,-359.5 776,-340.5 642,-340.5"/>
<text text-anchor="middle" x="709" y="-347.5" font-family="Helvetica,sans-Serif" font-size="10.00">itk::MetaDataDictionary</text>
</a>
</g>
</g>
<!-- Node13&#45;&gt;Node12 -->
<g id="edge12" class="edge">
<title>Node13&#45;&gt;Node12</title>
<path fill="none" stroke="#9a32cd" stroke-dasharray="5,2" d="M786.32,-350C825.74,-350 873.36,-350 911.08,-350"/>
<polygon fill="#9a32cd" stroke="#9a32cd" points="786.22,-346.5 776.22,-350 786.22,-353.5 786.22,-346.5"/>
<text text-anchor="middle" x="842.5" y="-353" font-family="Helvetica,sans-Serif" font-size="10.00"> ptr</text>
</g>
<!-- Node14 -->
<g id="node14" class="node">
<title>Node14</title>
<g id="a_node14"><a xlink:title=" ">
<polygon fill="white" stroke="black" points="351,-335 351,-365 500,-365 500,-335 351,-335"/>
<text text-anchor="start" x="359" y="-353" font-family="Helvetica,sans-Serif" font-size="10.00">std::shared_ptr&lt; MetaData</text>
<text text-anchor="middle" x="425.5" y="-342" font-family="Helvetica,sans-Serif" font-size="10.00">DictionaryMapType &gt;</text>
</a>
</g>
</g>
<!-- Node14&#45;&gt;Node13 -->
<g id="edge13" class="edge">
<title>Node14&#45;&gt;Node13</title>
<path fill="none" stroke="#9a32cd" stroke-dasharray="5,2" d="M510.29,-350C552.24,-350 602.31,-350 641.57,-350"/>
<polygon fill="#9a32cd" stroke="#9a32cd" points="510.09,-346.5 500.09,-350 510.09,-353.5 510.09,-346.5"/>
<text text-anchor="middle" x="571" y="-353" font-family="Helvetica,sans-Serif" font-size="10.00"> m_Dictionary</text>
</g>
<!-- Node15&#45;&gt;Node14 -->
<g id="edge14" class="edge">
<title>Node15&#45;&gt;Node14</title>
<path fill="none" stroke="#9a32cd" stroke-dasharray="5,2" d="M225.34,-350C262.61,-350 310.86,-350 350.52,-350"/>
<polygon fill="#9a32cd" stroke="#9a32cd" points="225.13,-346.5 215.13,-350 225.13,-353.5 225.13,-346.5"/>
<text text-anchor="middle" x="283" y="-353" font-family="Helvetica,sans-Serif" font-size="10.00"> ptr</text>
</g>
<!-- Node16 -->
<g id="node16" class="node">
<title>Node16</title>
<g id="a_node16"><a xlink:title=" ">
<polygon fill="white" stroke="black" points="0,-364.5 0,-383.5 29,-383.5 29,-364.5 0,-364.5"/>
<text text-anchor="middle" x="14.5" y="-371.5" font-family="Helvetica,sans-Serif" font-size="10.00">K</text>
</a>
</g>
</g>
<!-- Node16&#45;&gt;Node15 -->
<g id="edge15" class="edge">
<title>Node16&#45;&gt;Node15</title>
<path fill="none" stroke="#9a32cd" stroke-dasharray="5,2" d="M39.24,-370.15C59.28,-366.9 88.63,-362.14 113.78,-358.06"/>
<polygon fill="#9a32cd" stroke="#9a32cd" points="38.47,-366.73 29.16,-371.79 39.59,-373.64 38.47,-366.73"/>
<text text-anchor="middle" x="71.5" y="-371" font-family="Helvetica,sans-Serif" font-size="10.00"> keys</text>
</g>
<!-- Node17 -->
<g id="node17" class="node">
<title>Node17</title>
<g id="a_node17"><a xlink:title=" ">
<polygon fill="white" stroke="black" points="945,-161.5 945,-180.5 1010,-180.5 1010,-161.5 945,-161.5"/>
<text text-anchor="middle" x="977.5" y="-168.5" font-family="Helvetica,sans-Serif" font-size="10.00">std::string</text>
</a>
</g>
</g>
<!-- Node17&#45;&gt;Node3 -->
<g id="edge19" class="edge">
<title>Node17&#45;&gt;Node3</title>
<path fill="none" stroke="#9a32cd" stroke-dasharray="5,2" d="M1020.39,-170.97C1064.37,-171.04 1135.56,-171.43 1197,-173 1394.82,-178.07 1625.54,-188.87 1756.78,-195.48"/>
<polygon fill="#9a32cd" stroke="#9a32cd" points="1020.35,-167.47 1010.35,-170.96 1020.35,-174.47 1020.35,-167.47"/>
<text text-anchor="middle" x="1353.5" y="-193" font-family="Helvetica,sans-Serif" font-size="10.00"> m_InputSpaceName</text>
<text text-anchor="middle" x="1353.5" y="-182" font-family="Helvetica,sans-Serif" font-size="10.00">m_OutputSpaceName</text>
</g>
<!-- Node17&#45;&gt;Node5 -->
<g id="edge17" class="edge">
<title>Node17&#45;&gt;Node5</title>
<path fill="none" stroke="#9a32cd" stroke-dasharray="5,2" d="M1020.28,-172.12C1065.32,-174.55 1138.43,-182.05 1197,-205 1211.76,-210.78 1226.56,-221.46 1236.29,-229.31"/>
<polygon fill="#9a32cd" stroke="#9a32cd" points="1020.16,-168.61 1010.01,-171.63 1019.83,-175.61 1020.16,-168.61"/>
<text text-anchor="middle" x="1130.5" y="-208" font-family="Helvetica,sans-Serif" font-size="10.00"> m_ObjectName</text>
</g>
<!-- Node18 -->
<g id="node18" class="node">
<title>Node18</title>
<g id="a_node18"><a xlink:title=" ">
<polygon fill="white" stroke="black" points="657,-156 657,-186 761,-186 761,-156 657,-156"/>
<text text-anchor="start" x="665" y="-174" font-family="Helvetica,sans-Serif" font-size="10.00">std::basic_string&lt;</text>
<text text-anchor="middle" x="709" y="-163" font-family="Helvetica,sans-Serif" font-size="10.00"> Char &gt;</text>
</a>
</g>
</g>
<!-- Node18&#45;&gt;Node17 -->
<g id="edge18" class="edge">
<title>Node18&#45;&gt;Node17</title>
<path fill="none" stroke="midnightblue" d="M771.24,-171C825.37,-171 902.16,-171 944.82,-171"/>
<polygon fill="midnightblue" stroke="midnightblue" points="771.07,-167.5 761.07,-171 771.07,-174.5 771.07,-167.5"/>
</g>
<!-- Node19 -->
<g id="node19" class="node">
<title>Node19</title>
<g id="a_node19"><a xlink:href="classitk_1_1Matrix.html" target="_top" xlink:title=" ">
<polygon fill="white" stroke="black" points="1783,-27.5 1783,-68.5 1944,-68.5 1944,-27.5 1783,-27.5"/>
<text text-anchor="start" x="1791" y="-56.5" font-family="Helvetica,sans-Serif" font-size="10.00">itk::Matrix&lt; float,</text>
<text text-anchor="start" x="1791" y="-45.5" font-family="Helvetica,sans-Serif" font-size="10.00"> Self::OutputSpaceDimension,</text>
<text text-anchor="middle" x="1863.5" y="-34.5" font-family="Helvetica,sans-Serif" font-size="10.00"> Self::InputSpaceDimension &gt;</text>
</a>
</g>
</g>
<!-- Node19&#45;&gt;Node2 -->
<g id="edge20" class="edge">
<title>Node19&#45;&gt;Node2</title>
<path fill="none" stroke="#9a32cd" stroke-dasharray="5,2" d="M1954.06,-70.45C1991.6,-80.79 2035.4,-94.08 2074,-109 2094.9,-117.08 2117.66,-128.04 2134.99,-136.87"/>
<polygon fill="#9a32cd" stroke="#9a32cd" points="1954.72,-67 1944.15,-67.75 1952.88,-73.76 1954.72,-67"/>
<text text-anchor="middle" x="2031" y="-112" font-family="Helvetica,sans-Serif" font-size="10.00"> m_Matrix</text>
</g>
<!-- Node20 -->
<g id="node20" class="node">
<title>Node20</title>
<g id="a_node20"><a xlink:href="classitk_1_1Vector.html" target="_top" xlink:title=" ">
<polygon fill="white" stroke="black" points="1778.5,-137 1778.5,-167 1948.5,-167 1948.5,-137 1778.5,-137"/>
<text text-anchor="start" x="1786.5" y="-155" font-family="Helvetica,sans-Serif" font-size="10.00">itk::Vector&lt; float,</text>
<text text-anchor="middle" x="1863.5" y="-144" font-family="Helvetica,sans-Serif" font-size="10.00"> Self::OutputSpaceDimension &gt;</text>
</a>
</g>
</g>
<!-- Node20&#45;&gt;Node2 -->
<g id="edge21" class="edge">
<title>Node20&#45;&gt;Node2</title>
<path fill="none" stroke="#9a32cd" stroke-dasharray="5,2" d="M1958.78,-152C2001.76,-152 2051.83,-152 2091.69,-152"/>
<polygon fill="#9a32cd" stroke="#9a32cd" points="1958.58,-148.5 1948.58,-152 1958.58,-155.5 1958.58,-148.5"/>
<text text-anchor="middle" x="2031" y="-166" font-family="Helvetica,sans-Serif" font-size="10.00"> m_Offset</text>
<text text-anchor="middle" x="2031" y="-155" font-family="Helvetica,sans-Serif" font-size="10.00">m_Translation</text>
</g>
<!-- Node21 -->
<g id="node21" class="node">
<title>Node21</title>
<g id="a_node21"><a xlink:href="classitk_1_1FixedArray.html" target="_top" xlink:title=" ">
<polygon fill="white" stroke="black" points="1440,-100 1440,-130 1563,-130 1563,-100 1440,-100"/>
<text text-anchor="start" x="1448" y="-118" font-family="Helvetica,sans-Serif" font-size="10.00">itk::FixedArray&lt; float,</text>
<text text-anchor="middle" x="1501.5" y="-107" font-family="Helvetica,sans-Serif" font-size="10.00"> VVectorDimension &gt;</text>
</a>
</g>
</g>
<!-- Node21&#45;&gt;Node20 -->
<g id="edge22" class="edge">
<title>Node21&#45;&gt;Node20</title>
<path fill="none" stroke="midnightblue" d="M1573.11,-122.26C1631.96,-128.31 1715.94,-136.94 1778.29,-143.34"/>
<polygon fill="midnightblue" stroke="midnightblue" points="1573.47,-118.78 1563.16,-121.23 1572.75,-125.74 1573.47,-118.78"/>
</g>
<!-- Node22 -->
<g id="node22" class="node">
<title>Node22</title>
<g id="a_node22"><a xlink:href="classVLength.html" target="_top" xlink:title=" ">
<polygon fill="white" stroke="black" points="1220.5,-56.5 1220.5,-75.5 1276.5,-75.5 1276.5,-56.5 1220.5,-56.5"/>
<text text-anchor="middle" x="1248.5" y="-63.5" font-family="Helvetica,sans-Serif" font-size="10.00">VLength</text>
</a>
</g>
</g>
<!-- Node22&#45;&gt;Node21 -->
<g id="edge23" class="edge">
<title>Node22&#45;&gt;Node21</title>
<path fill="none" stroke="#9a32cd" stroke-dasharray="5,2" d="M1286.4,-77.52C1290.96,-78.78 1295.57,-79.97 1300,-81 1346.43,-91.79 1399.64,-100.65 1439.58,-106.62"/>
<polygon fill="#9a32cd" stroke="#9a32cd" points="1287.17,-74.1 1276.6,-74.7 1285.24,-80.83 1287.17,-74.1"/>
<text text-anchor="middle" x="1353.5" y="-104" font-family="Helvetica,sans-Serif" font-size="10.00"> m_InternalArray</text>
</g>
<!-- Node25 -->
<g id="node25" class="node">
<title>Node25</title>
<g id="a_node25"><a xlink:href="classitk_1_1FixedArray.html" target="_top" xlink:title=" ">
<polygon fill="white" stroke="black" points="1440,-51 1440,-81 1563,-81 1563,-51 1440,-51"/>
<text text-anchor="start" x="1448" y="-69" font-family="Helvetica,sans-Serif" font-size="10.00">itk::FixedArray&lt; float,</text>
<text text-anchor="middle" x="1501.5" y="-58" font-family="Helvetica,sans-Serif" font-size="10.00"> VPointDimension &gt;</text>
</a>
</g>
</g>
<!-- Node22&#45;&gt;Node25 -->
<g id="edge27" class="edge">
<title>Node22&#45;&gt;Node25</title>
<path fill="none" stroke="#9a32cd" stroke-dasharray="5,2" d="M1287.05,-66C1327.44,-66 1392.27,-66 1439.9,-66"/>
<polygon fill="#9a32cd" stroke="#9a32cd" points="1286.84,-62.5 1276.84,-66 1286.84,-69.5 1286.84,-62.5"/>
<text text-anchor="middle" x="1353.5" y="-69" font-family="Helvetica,sans-Serif" font-size="10.00"> m_InternalArray</text>
</g>
<!-- Node26 -->
<g id="node26" class="node">
<title>Node26</title>
<g id="a_node26"><a xlink:href="classitk_1_1FixedArray.html" target="_top" xlink:title=" ">
<polygon fill="white" stroke="black" points="1596,-0.5 1596,-19.5 1739,-19.5 1739,-0.5 1596,-0.5"/>
<text text-anchor="middle" x="1667.5" y="-7.5" font-family="Helvetica,sans-Serif" font-size="10.00">itk::FixedArray&lt; float, 3 &gt;</text>
</a>
</g>
</g>
<!-- Node22&#45;&gt;Node26 -->
<g id="edge30" class="edge">
<title>Node22&#45;&gt;Node26</title>
<path fill="none" stroke="#9a32cd" stroke-dasharray="5,2" d="M1286.34,-54.24C1290.91,-53.02 1295.54,-51.9 1300,-51 1401.65,-30.39 1521.42,-19.44 1595.66,-14.19"/>
<polygon fill="#9a32cd" stroke="#9a32cd" points="1285.21,-50.92 1276.53,-57.01 1287.11,-57.66 1285.21,-50.92"/>
<text text-anchor="middle" x="1353.5" y="-54" font-family="Helvetica,sans-Serif" font-size="10.00"> m_InternalArray</text>
</g>
<!-- Node23 -->
<g id="node23" class="node">
<title>Node23</title>
<g id="a_node23"><a xlink:href="classitk_1_1Matrix.html" target="_top" xlink:title=" ">
<polygon fill="white" stroke="black" points="1778.5,-235.5 1778.5,-276.5 1948.5,-276.5 1948.5,-235.5 1778.5,-235.5"/>
<text text-anchor="start" x="1786.5" y="-264.5" font-family="Helvetica,sans-Serif" font-size="10.00">itk::Matrix&lt; float,</text>
<text text-anchor="start" x="1786.5" y="-253.5" font-family="Helvetica,sans-Serif" font-size="10.00"> Self::InputSpaceDimension,</text>
<text text-anchor="middle" x="1863.5" y="-242.5" font-family="Helvetica,sans-Serif" font-size="10.00"> Self::OutputSpaceDimension &gt;</text>
</a>
</g>
</g>
<!-- Node23&#45;&gt;Node2 -->
<g id="edge24" class="edge">
<title>Node23&#45;&gt;Node2</title>
<path fill="none" stroke="#9a32cd" stroke-dasharray="5,2" d="M1958.3,-234.41C1994.94,-224.85 2036.97,-212.47 2074,-198 2096.13,-189.35 2120.01,-176.91 2137.53,-167.15"/>
<polygon fill="#9a32cd" stroke="#9a32cd" points="1957.43,-231.02 1948.62,-236.91 1959.17,-237.8 1957.43,-231.02"/>
<text text-anchor="middle" x="2031" y="-229" font-family="Helvetica,sans-Serif" font-size="10.00"> m_InverseMatrix</text>
</g>
<!-- Node24 -->
<g id="node24" class="node">
<title>Node24</title>
<g id="a_node24"><a xlink:href="classitk_1_1Point.html" target="_top" xlink:title=" ">
<polygon fill="white" stroke="black" points="1783,-88 1783,-118 1944,-118 1944,-88 1783,-88"/>
<text text-anchor="start" x="1791" y="-106" font-family="Helvetica,sans-Serif" font-size="10.00">itk::Point&lt; float,</text>
<text text-anchor="middle" x="1863.5" y="-95" font-family="Helvetica,sans-Serif" font-size="10.00"> Self::InputSpaceDimension &gt;</text>
</a>
</g>
</g>
<!-- Node24&#45;&gt;Node2 -->
<g id="edge25" class="edge">
<title>Node24&#45;&gt;Node2</title>
<path fill="none" stroke="#9a32cd" stroke-dasharray="5,2" d="M1954.38,-117.48C1991.43,-123.48 2034.79,-130.53 2074,-137 2079.75,-137.95 2085.71,-138.94 2091.7,-139.93"/>
<polygon fill="#9a32cd" stroke="#9a32cd" points="1954.53,-113.96 1944.1,-115.82 1953.41,-120.87 1954.53,-113.96"/>
<text text-anchor="middle" x="2031" y="-140" font-family="Helvetica,sans-Serif" font-size="10.00"> m_Center</text>
</g>
<!-- Node25&#45;&gt;Node24 -->
<g id="edge26" class="edge">
<title>Node25&#45;&gt;Node24</title>
<path fill="none" stroke="midnightblue" d="M1573.36,-73.28C1633.68,-79.48 1720.27,-88.38 1782.95,-94.82"/>
<polygon fill="midnightblue" stroke="midnightblue" points="1573.47,-69.78 1563.16,-72.23 1572.75,-76.74 1573.47,-69.78"/>
</g>
<!-- Node26&#45;&gt;Node1 -->
<g id="edge29" class="edge">
<title>Node26&#45;&gt;Node1</title>
<path fill="none" stroke="#9a32cd" stroke-dasharray="5,2" d="M1749.48,-11.27C1810.2,-12.43 1895.34,-14.52 1970,-18 2075.96,-22.95 2198.61,-31.73 2273.74,-37.46"/>
<polygon fill="#9a32cd" stroke="#9a32cd" points="1749.26,-7.76 1739.2,-11.07 1749.13,-14.76 1749.26,-7.76"/>
<text text-anchor="middle" x="2031" y="-27" font-family="Helvetica,sans-Serif" font-size="10.00"> m_Scale</text>
</g>
</g>
</svg>
