<?xml version="1.0" encoding="UTF-8" standalone="no"?>
<!DOCTYPE svg PUBLIC "-//W3C//DTD SVG 1.1//EN"
 "http://www.w3.org/Graphics/SVG/1.1/DTD/svg11.dtd">
<!-- Generated by graphviz version 2.43.0 (0)
 -->
<!-- Title: itk::ChainCodePath2D Pages: 1 -->
<svg width="2520pt" height="320pt"
 viewBox="0.00 0.00 2520.00 319.50" xmlns="http://www.w3.org/2000/svg" xmlns:xlink="http://www.w3.org/1999/xlink">
<g id="graph0" class="graph" transform="scale(1 1) rotate(0) translate(4 315.5)">
<title>itk::ChainCodePath2D</title>
<polygon fill="white" stroke="transparent" points="-4,4 -4,-315.5 2516,-315.5 2516,4 -4,4"/>
<!-- Node1 -->
<g id="node1" class="node">
<title>Node1</title>
<g id="a_node1"><a xlink:title="Represent a 2D path as a sequence of connected image index offsets.">
<polygon fill="#bfbfbf" stroke="black" points="2390,-273 2390,-292 2512,-292 2512,-273 2390,-273"/>
<text text-anchor="middle" x="2451" y="-280" font-family="Helvetica,sans-Serif" font-size="10.00">itk::ChainCodePath2D</text>
</a>
</g>
</g>
<!-- Node2 -->
<g id="node2" class="node">
<title>Node2</title>
<g id="a_node2"><a xlink:href="classitk_1_1ChainCodePath.html" target="_top" xlink:title=" ">
<polygon fill="white" stroke="black" points="2216,-231 2216,-250 2353,-250 2353,-231 2216,-231"/>
<text text-anchor="middle" x="2284.5" y="-238" font-family="Helvetica,sans-Serif" font-size="10.00">itk::ChainCodePath&lt; 2 &gt;</text>
</a>
</g>
</g>
<!-- Node2&#45;&gt;Node1 -->
<g id="edge1" class="edge">
<title>Node2&#45;&gt;Node1</title>
<path fill="none" stroke="midnightblue" d="M2332.61,-252.53C2357.97,-259 2388.83,-266.88 2412.54,-272.93"/>
<polygon fill="midnightblue" stroke="midnightblue" points="2333.38,-249.11 2322.83,-250.03 2331.65,-255.9 2333.38,-249.11"/>
</g>
<!-- Node3 -->
<g id="node3" class="node">
<title>Node3</title>
<g id="a_node3"><a xlink:href="classitk_1_1Path.html" target="_top" xlink:title=" ">
<polygon fill="white" stroke="black" points="1730.5,-159 1730.5,-200 1868.5,-200 1868.5,-159 1730.5,-159"/>
<text text-anchor="start" x="1738.5" y="-188" font-family="Helvetica,sans-Serif" font-size="10.00">itk::Path&lt; unsigned</text>
<text text-anchor="start" x="1738.5" y="-177" font-family="Helvetica,sans-Serif" font-size="10.00"> int, Offset&lt; VDimension</text>
<text text-anchor="middle" x="1799.5" y="-166" font-family="Helvetica,sans-Serif" font-size="10.00"> &gt;, VDimension &gt;</text>
</a>
</g>
</g>
<!-- Node3&#45;&gt;Node2 -->
<g id="edge2" class="edge">
<title>Node3&#45;&gt;Node2</title>
<path fill="none" stroke="midnightblue" d="M1878.64,-189.37C1972.11,-201.17 2127.02,-220.74 2215.67,-231.93"/>
<polygon fill="midnightblue" stroke="midnightblue" points="1879.04,-185.89 1868.68,-188.11 1878.16,-192.84 1879.04,-185.89"/>
</g>
<!-- Node24 -->
<g id="node24" class="node">
<title>Node24</title>
<g id="a_node24"><a xlink:href="classitk_1_1ChainCodePath.html" target="_top" xlink:title="Represent a path as a sequence of connected image index offsets.">
<polygon fill="white" stroke="black" points="2011,-152.5 2011,-182.5 2120,-182.5 2120,-152.5 2011,-152.5"/>
<text text-anchor="start" x="2019" y="-170.5" font-family="Helvetica,sans-Serif" font-size="10.00">itk::ChainCodePath</text>
<text text-anchor="middle" x="2065.5" y="-159.5" font-family="Helvetica,sans-Serif" font-size="10.00">&lt; VDimension &gt;</text>
</a>
</g>
</g>
<!-- Node3&#45;&gt;Node24 -->
<g id="edge31" class="edge">
<title>Node3&#45;&gt;Node24</title>
<path fill="none" stroke="midnightblue" d="M1878.86,-175.94C1921.31,-174.01 1972.67,-171.67 2010.6,-169.95"/>
<polygon fill="midnightblue" stroke="midnightblue" points="1878.66,-172.44 1868.83,-176.39 1878.98,-179.44 1878.66,-172.44"/>
</g>
<!-- Node4 -->
<g id="node4" class="node">
<title>Node4</title>
<g id="a_node4"><a xlink:href="classitk_1_1DataObject.html" target="_top" xlink:title="Base class for all data objects in ITK.">
<polygon fill="white" stroke="black" points="1271,-152 1271,-171 1361,-171 1361,-152 1271,-152"/>
<text text-anchor="middle" x="1316" y="-159" font-family="Helvetica,sans-Serif" font-size="10.00">itk::DataObject</text>
</a>
</g>
</g>
<!-- Node4&#45;&gt;Node3 -->
<g id="edge3" class="edge">
<title>Node4&#45;&gt;Node3</title>
<path fill="none" stroke="midnightblue" d="M1351.58,-174.4C1365.76,-179.1 1382.47,-183.9 1398,-186.5 1534.78,-209.42 1571.63,-200.84 1710,-191.5 1716.65,-191.05 1723.57,-190.41 1730.47,-189.67"/>
<polygon fill="midnightblue" stroke="midnightblue" points="1352.35,-170.96 1341.76,-171.03 1350.08,-177.59 1352.35,-170.96"/>
</g>
<!-- Node21 -->
<g id="node21" class="node">
<title>Node21</title>
<g id="a_node21"><a xlink:href="classitk_1_1Path.html" target="_top" xlink:title="Represent a path through ND Space.">
<polygon fill="white" stroke="black" points="1398,-146.5 1398,-176.5 1533,-176.5 1533,-146.5 1398,-146.5"/>
<text text-anchor="start" x="1406" y="-164.5" font-family="Helvetica,sans-Serif" font-size="10.00">itk::Path&lt; TInput,</text>
<text text-anchor="middle" x="1465.5" y="-153.5" font-family="Helvetica,sans-Serif" font-size="10.00"> TOutput, VDimension &gt;</text>
</a>
</g>
</g>
<!-- Node4&#45;&gt;Node21 -->
<g id="edge26" class="edge">
<title>Node4&#45;&gt;Node21</title>
<path fill="none" stroke="midnightblue" d="M1371.52,-161.5C1380.11,-161.5 1389.08,-161.5 1397.91,-161.5"/>
<polygon fill="midnightblue" stroke="midnightblue" points="1371.25,-158 1361.25,-161.5 1371.25,-165 1371.25,-158"/>
</g>
<!-- Node5 -->
<g id="node5" class="node">
<title>Node5</title>
<g id="a_node5"><a xlink:href="classitk_1_1Object.html" target="_top" xlink:title="Base class for most ITK classes.">
<polygon fill="white" stroke="black" points="1044,-93 1044,-112 1111,-112 1111,-93 1044,-93"/>
<text text-anchor="middle" x="1077.5" y="-100" font-family="Helvetica,sans-Serif" font-size="10.00">itk::Object</text>
</a>
</g>
</g>
<!-- Node5&#45;&gt;Node4 -->
<g id="edge4" class="edge">
<title>Node5&#45;&gt;Node4</title>
<path fill="none" stroke="midnightblue" d="M1121.26,-113.17C1165.48,-124.2 1233.93,-141.28 1276.52,-151.9"/>
<polygon fill="midnightblue" stroke="midnightblue" points="1121.93,-109.73 1111.38,-110.7 1120.24,-116.52 1121.93,-109.73"/>
</g>
<!-- Node6 -->
<g id="node6" class="node">
<title>Node6</title>
<g id="a_node6"><a xlink:href="classitk_1_1LightObject.html" target="_top" xlink:title="Light weight base class for most itk classes.">
<polygon fill="white" stroke="black" points="745.5,-106 745.5,-125 836.5,-125 836.5,-106 745.5,-106"/>
<text text-anchor="middle" x="791" y="-113" font-family="Helvetica,sans-Serif" font-size="10.00">itk::LightObject</text>
</a>
</g>
</g>
<!-- Node6&#45;&gt;Node5 -->
<g id="edge5" class="edge">
<title>Node6&#45;&gt;Node5</title>
<path fill="none" stroke="midnightblue" d="M846.93,-112.99C905.37,-110.32 995.89,-106.18 1043.94,-103.99"/>
<polygon fill="midnightblue" stroke="midnightblue" points="846.6,-109.5 836.77,-113.45 846.92,-116.49 846.6,-109.5"/>
</g>
<!-- Node7 -->
<g id="node7" class="node">
<title>Node7</title>
<g id="a_node7"><a xlink:title=" ">
<polygon fill="white" stroke="#bfbfbf" points="457,-108 457,-127 564,-127 564,-108 457,-108"/>
<text text-anchor="middle" x="510.5" y="-115" font-family="Helvetica,sans-Serif" font-size="10.00">std::atomic&lt; int &gt;</text>
</a>
</g>
</g>
<!-- Node7&#45;&gt;Node6 -->
<g id="edge6" class="edge">
<title>Node7&#45;&gt;Node6</title>
<path fill="none" stroke="#9a32cd" stroke-dasharray="5,2" d="M574.33,-117.05C626.37,-116.68 699.05,-116.15 745.31,-115.82"/>
<polygon fill="#9a32cd" stroke="#9a32cd" points="574.19,-113.55 564.21,-117.12 574.24,-120.55 574.19,-113.55"/>
<text text-anchor="middle" x="651.5" y="-119.5" font-family="Helvetica,sans-Serif" font-size="10.00"> m_ReferenceCount</text>
</g>
<!-- Node8 -->
<g id="node8" class="node">
<title>Node8</title>
<g id="a_node8"><a xlink:title="STL class.">
<polygon fill="white" stroke="#bfbfbf" points="123,-150 123,-169 223,-169 223,-150 123,-150"/>
<text text-anchor="middle" x="173" y="-157" font-family="Helvetica,sans-Serif" font-size="10.00">std::atomic&lt; T &gt;</text>
</a>
</g>
</g>
<!-- Node8&#45;&gt;Node7 -->
<g id="edge7" class="edge">
<title>Node8&#45;&gt;Node7</title>
<path fill="none" stroke="orange" stroke-dasharray="5,2" d="M213.54,-147.05C225.18,-143.8 238.01,-140.62 250,-138.5 320.99,-125.94 404.25,-120.88 456.94,-118.85"/>
<polygon fill="orange" stroke="orange" points="212.3,-143.77 203.66,-149.9 214.24,-150.49 212.3,-143.77"/>
<text text-anchor="middle" x="334" y="-141.5" font-family="Helvetica,sans-Serif" font-size="10.00"> &lt; int &gt;</text>
</g>
<!-- Node17 -->
<g id="node17" class="node">
<title>Node17</title>
<g id="a_node17"><a xlink:href="classitk_1_1TimeStamp.html" target="_top" xlink:title="Generate a unique, increasing time value.">
<polygon fill="white" stroke="black" points="745,-152 745,-171 837,-171 837,-152 745,-152"/>
<text text-anchor="middle" x="791" y="-159" font-family="Helvetica,sans-Serif" font-size="10.00">itk::TimeStamp</text>
</a>
</g>
</g>
<!-- Node8&#45;&gt;Node17 -->
<g id="edge19" class="edge">
<title>Node8&#45;&gt;Node17</title>
<path fill="none" stroke="#9a32cd" stroke-dasharray="5,2" d="M233.44,-159.69C356.26,-160.09 635.66,-161 744.97,-161.35"/>
<polygon fill="#9a32cd" stroke="#9a32cd" points="233.12,-156.19 223.11,-159.66 233.1,-163.19 233.12,-156.19"/>
<text text-anchor="middle" x="510.5" y="-163.5" font-family="Helvetica,sans-Serif" font-size="10.00"> m_GlobalTimeStamp</text>
</g>
<!-- Node9 -->
<g id="node9" class="node">
<title>Node9</title>
<g id="a_node9"><a xlink:title=" ">
<polygon fill="white" stroke="#bfbfbf" points="0,-133 0,-152 29,-152 29,-133 0,-133"/>
<text text-anchor="middle" x="14.5" y="-140" font-family="Helvetica,sans-Serif" font-size="10.00">T</text>
</a>
</g>
</g>
<!-- Node9&#45;&gt;Node8 -->
<g id="edge8" class="edge">
<title>Node9&#45;&gt;Node8</title>
<path fill="none" stroke="#9a32cd" stroke-dasharray="5,2" d="M39.23,-145.08C61.29,-147.47 94.84,-151.12 122.7,-154.14"/>
<polygon fill="#9a32cd" stroke="#9a32cd" points="39.43,-141.58 29.11,-143.98 38.68,-148.54 39.43,-141.58"/>
<text text-anchor="middle" x="71.5" y="-153.5" font-family="Helvetica,sans-Serif" font-size="10.00"> ptr</text>
</g>
<!-- Node14 -->
<g id="node14" class="node">
<title>Node14</title>
<g id="a_node14"><a xlink:title="STL class.">
<polygon fill="white" stroke="#bfbfbf" points="122.5,-60 122.5,-79 223.5,-79 223.5,-60 122.5,-60"/>
<text text-anchor="middle" x="173" y="-67" font-family="Helvetica,sans-Serif" font-size="10.00">std::map&lt; K, T &gt;</text>
</a>
</g>
</g>
<!-- Node9&#45;&gt;Node14 -->
<g id="edge15" class="edge">
<title>Node9&#45;&gt;Node14</title>
<path fill="none" stroke="#9a32cd" stroke-dasharray="5,2" d="M27.19,-124.71C32.51,-117.83 39.32,-110.45 47,-105.5 69.58,-90.93 98.18,-82.13 122.32,-76.88"/>
<polygon fill="#9a32cd" stroke="#9a32cd" points="24.29,-122.74 21.32,-132.91 29.98,-126.82 24.29,-122.74"/>
<text text-anchor="middle" x="71.5" y="-108.5" font-family="Helvetica,sans-Serif" font-size="10.00"> elements</text>
</g>
<!-- Node16 -->
<g id="node16" class="node">
<title>Node16</title>
<g id="a_node16"><a xlink:title="STL class.">
<polygon fill="white" stroke="#bfbfbf" points="114,-103 114,-122 232,-122 232,-103 114,-103"/>
<text text-anchor="middle" x="173" y="-110" font-family="Helvetica,sans-Serif" font-size="10.00">std::shared_ptr&lt; T &gt;</text>
</a>
</g>
</g>
<!-- Node9&#45;&gt;Node16 -->
<g id="edge17" class="edge">
<title>Node9&#45;&gt;Node16</title>
<path fill="none" stroke="#9a32cd" stroke-dasharray="5,2" d="M38.7,-133C41.47,-132.07 44.28,-131.2 47,-130.5 68.54,-124.92 92.65,-120.93 113.91,-118.16"/>
<polygon fill="#9a32cd" stroke="#9a32cd" points="37.24,-129.81 29.09,-136.57 39.68,-136.38 37.24,-129.81"/>
<text text-anchor="middle" x="71.5" y="-133.5" font-family="Helvetica,sans-Serif" font-size="10.00"> ptr</text>
</g>
<!-- Node23 -->
<g id="node23" class="node">
<title>Node23</title>
<g id="a_node23"><a xlink:title="STL class.">
<polygon fill="white" stroke="#bfbfbf" points="1417,-279 1417,-298 1514,-298 1514,-279 1417,-279"/>
<text text-anchor="middle" x="1465.5" y="-286" font-family="Helvetica,sans-Serif" font-size="10.00">std::vector&lt; T &gt;</text>
</a>
</g>
</g>
<!-- Node9&#45;&gt;Node23 -->
<g id="edge29" class="edge">
<title>Node9&#45;&gt;Node23</title>
<path fill="none" stroke="#9a32cd" stroke-dasharray="5,2" d="M24.41,-161.17C44.66,-200.54 98.17,-288.5 172,-288.5 172,-288.5 172,-288.5 1317,-288.5 1350.29,-288.5 1387.81,-288.5 1416.67,-288.5"/>
<polygon fill="#9a32cd" stroke="#9a32cd" points="27.48,-159.47 19.89,-152.08 21.21,-162.59 27.48,-159.47"/>
<text text-anchor="middle" x="791" y="-291.5" font-family="Helvetica,sans-Serif" font-size="10.00"> elements</text>
</g>
<!-- Node10 -->
<g id="node10" class="node">
<title>Node10</title>
<g id="a_node10"><a xlink:title="STL class.">
<polygon fill="white" stroke="#bfbfbf" points="758.5,-6 758.5,-25 823.5,-25 823.5,-6 758.5,-6"/>
<text text-anchor="middle" x="791" y="-13" font-family="Helvetica,sans-Serif" font-size="10.00">std::string</text>
</a>
</g>
</g>
<!-- Node10&#45;&gt;Node4 -->
<g id="edge21" class="edge">
<title>Node10&#45;&gt;Node4</title>
<path fill="none" stroke="#9a32cd" stroke-dasharray="5,2" d="M833.99,-15.83C876.05,-16.8 942.49,-20.05 999,-30.5 1116.48,-52.23 1147.78,-61.91 1253,-118.5 1271.23,-128.3 1290.57,-142.39 1302.71,-151.73"/>
<polygon fill="#9a32cd" stroke="#9a32cd" points="833.91,-12.33 823.84,-15.63 833.77,-19.33 833.91,-12.33"/>
<text text-anchor="middle" x="1077.5" y="-67.5" font-family="Helvetica,sans-Serif" font-size="10.00"> m_SourceOutputName</text>
</g>
<!-- Node10&#45;&gt;Node5 -->
<g id="edge9" class="edge">
<title>Node10&#45;&gt;Node5</title>
<path fill="none" stroke="#9a32cd" stroke-dasharray="5,2" d="M833.65,-23.68C875.91,-32.51 942.91,-47.97 999,-67.5 1019.63,-74.69 1042.31,-85.26 1057.78,-92.91"/>
<polygon fill="#9a32cd" stroke="#9a32cd" points="834.22,-20.22 823.72,-21.63 832.81,-27.08 834.22,-20.22"/>
<text text-anchor="middle" x="940.5" y="-70.5" font-family="Helvetica,sans-Serif" font-size="10.00"> m_ObjectName</text>
</g>
<!-- Node11 -->
<g id="node11" class="node">
<title>Node11</title>
<g id="a_node11"><a xlink:title="STL class.">
<polygon fill="white" stroke="#bfbfbf" points="458.5,-0.5 458.5,-30.5 562.5,-30.5 562.5,-0.5 458.5,-0.5"/>
<text text-anchor="start" x="466.5" y="-18.5" font-family="Helvetica,sans-Serif" font-size="10.00">std::basic_string&lt;</text>
<text text-anchor="middle" x="510.5" y="-7.5" font-family="Helvetica,sans-Serif" font-size="10.00"> char &gt;</text>
</a>
</g>
</g>
<!-- Node11&#45;&gt;Node10 -->
<g id="edge10" class="edge">
<title>Node11&#45;&gt;Node10</title>
<path fill="none" stroke="midnightblue" d="M572.6,-15.5C629.89,-15.5 713.28,-15.5 758.31,-15.5"/>
<polygon fill="midnightblue" stroke="midnightblue" points="572.58,-12 562.58,-15.5 572.58,-19 572.58,-12"/>
</g>
<!-- Node12 -->
<g id="node12" class="node">
<title>Node12</title>
<g id="a_node12"><a xlink:href="classitk_1_1MetaDataDictionary.html" target="_top" xlink:title="Provides a mechanism for storing a collection of arbitrary data types.">
<polygon fill="white" stroke="black" points="724,-66 724,-85 858,-85 858,-66 724,-66"/>
<text text-anchor="middle" x="791" y="-73" font-family="Helvetica,sans-Serif" font-size="10.00">itk::MetaDataDictionary</text>
</a>
</g>
</g>
<!-- Node12&#45;&gt;Node5 -->
<g id="edge11" class="edge">
<title>Node12&#45;&gt;Node5</title>
<path fill="none" stroke="#9a32cd" stroke-dasharray="5,2" d="M868.54,-80.25C907.63,-82.97 955.91,-86.78 999,-91.5 1013.72,-93.11 1029.96,-95.35 1043.75,-97.38"/>
<polygon fill="#9a32cd" stroke="#9a32cd" points="868.51,-76.74 858.29,-79.54 868.03,-83.72 868.51,-76.74"/>
<text text-anchor="middle" x="940.5" y="-94.5" font-family="Helvetica,sans-Serif" font-size="10.00"> m_MetaDataDictionary</text>
</g>
<!-- Node13 -->
<g id="node13" class="node">
<title>Node13</title>
<g id="a_node13"><a xlink:title=" ">
<polygon fill="white" stroke="#bfbfbf" points="436,-58.5 436,-88.5 585,-88.5 585,-58.5 436,-58.5"/>
<text text-anchor="start" x="444" y="-76.5" font-family="Helvetica,sans-Serif" font-size="10.00">std::shared_ptr&lt; MetaData</text>
<text text-anchor="middle" x="510.5" y="-65.5" font-family="Helvetica,sans-Serif" font-size="10.00">DictionaryMapType &gt;</text>
</a>
</g>
</g>
<!-- Node13&#45;&gt;Node12 -->
<g id="edge12" class="edge">
<title>Node13&#45;&gt;Node12</title>
<path fill="none" stroke="#9a32cd" stroke-dasharray="5,2" d="M595.05,-74.1C636.2,-74.4 685.13,-74.75 723.68,-75.02"/>
<polygon fill="#9a32cd" stroke="#9a32cd" points="595.06,-70.6 585.04,-74.03 595.01,-77.6 595.06,-70.6"/>
<text text-anchor="middle" x="651.5" y="-78.5" font-family="Helvetica,sans-Serif" font-size="10.00"> m_Dictionary</text>
</g>
<!-- Node14&#45;&gt;Node13 -->
<g id="edge13" class="edge">
<title>Node14&#45;&gt;Node13</title>
<path fill="none" stroke="#9a32cd" stroke-dasharray="5,2" d="M233.73,-69.27C283.13,-69.19 355.13,-69.34 418,-70.5 423.72,-70.61 429.64,-70.74 435.59,-70.9"/>
<polygon fill="#9a32cd" stroke="#9a32cd" points="233.53,-65.77 223.54,-69.29 233.55,-72.77 233.53,-65.77"/>
<text text-anchor="middle" x="334" y="-73.5" font-family="Helvetica,sans-Serif" font-size="10.00"> ptr</text>
</g>
<!-- Node15 -->
<g id="node15" class="node">
<title>Node15</title>
<g id="a_node15"><a xlink:title=" ">
<polygon fill="white" stroke="#bfbfbf" points="0,-48 0,-67 29,-67 29,-48 0,-48"/>
<text text-anchor="middle" x="14.5" y="-55" font-family="Helvetica,sans-Serif" font-size="10.00">K</text>
</a>
</g>
</g>
<!-- Node15&#45;&gt;Node14 -->
<g id="edge14" class="edge">
<title>Node15&#45;&gt;Node14</title>
<path fill="none" stroke="#9a32cd" stroke-dasharray="5,2" d="M39.31,-56.98C55.36,-56.83 76.98,-57.01 96,-58.5 104.51,-59.17 113.51,-60.19 122.23,-61.34"/>
<polygon fill="#9a32cd" stroke="#9a32cd" points="39.15,-53.48 29.2,-57.12 39.25,-60.48 39.15,-53.48"/>
<text text-anchor="middle" x="71.5" y="-61.5" font-family="Helvetica,sans-Serif" font-size="10.00"> keys</text>
</g>
<!-- Node16&#45;&gt;Node13 -->
<g id="edge16" class="edge">
<title>Node16&#45;&gt;Node13</title>
<path fill="none" stroke="orange" stroke-dasharray="5,2" d="M242.27,-104.56C298.5,-98.03 378.06,-88.78 435.74,-82.07"/>
<polygon fill="orange" stroke="orange" points="241.59,-101.12 232.06,-105.75 242.39,-108.07 241.59,-101.12"/>
<text text-anchor="middle" x="334" y="-106.5" font-family="Helvetica,sans-Serif" font-size="10.00"> &lt; MetaDataDictionaryMapType &gt;</text>
</g>
<!-- Node17&#45;&gt;Node4 -->
<g id="edge22" class="edge">
<title>Node17&#45;&gt;Node4</title>
<path fill="none" stroke="#9a32cd" stroke-dasharray="5,2" d="M847.06,-161.5C951.37,-161.5 1175.88,-161.5 1270.99,-161.5"/>
<polygon fill="#9a32cd" stroke="#9a32cd" points="847.04,-158 837.04,-161.5 847.04,-165 847.04,-158"/>
<text text-anchor="middle" x="1077.5" y="-164.5" font-family="Helvetica,sans-Serif" font-size="10.00"> m_UpdateMTime</text>
</g>
<!-- Node17&#45;&gt;Node5 -->
<g id="edge18" class="edge">
<title>Node17&#45;&gt;Node5</title>
<path fill="none" stroke="#9a32cd" stroke-dasharray="5,2" d="M833.13,-149.16C848.4,-144.82 865.91,-140.13 882,-136.5 938.51,-123.74 1005.17,-113.01 1043.96,-107.19"/>
<polygon fill="#9a32cd" stroke="#9a32cd" points="832.1,-145.82 823.46,-151.95 834.04,-152.54 832.1,-145.82"/>
<text text-anchor="middle" x="940.5" y="-139.5" font-family="Helvetica,sans-Serif" font-size="10.00"> m_MTime</text>
</g>
<!-- Node18 -->
<g id="node18" class="node">
<title>Node18</title>
<g id="a_node18"><a xlink:href="classitk_1_1RealTimeStamp.html" target="_top" xlink:title="The RealTimeStamp is a data structure for representing time with high precision and a large dynamic r...">
<polygon fill="white" stroke="black" points="1021,-241 1021,-260 1134,-260 1134,-241 1021,-241"/>
<text text-anchor="middle" x="1077.5" y="-248" font-family="Helvetica,sans-Serif" font-size="10.00">itk::RealTimeStamp</text>
</a>
</g>
</g>
<!-- Node18&#45;&gt;Node4 -->
<g id="edge20" class="edge">
<title>Node18&#45;&gt;Node4</title>
<path fill="none" stroke="#9a32cd" stroke-dasharray="5,2" d="M1144.42,-240.65C1178,-234.06 1218.85,-223.58 1253,-207.5 1273.13,-198.02 1293.22,-181.5 1304.86,-171.05"/>
<polygon fill="#9a32cd" stroke="#9a32cd" points="1143.42,-237.28 1134.24,-242.57 1144.72,-244.16 1143.42,-237.28"/>
<text text-anchor="middle" x="1204.5" y="-239.5" font-family="Helvetica,sans-Serif" font-size="10.00"> m_RealTimeStamp</text>
</g>
<!-- Node19 -->
<g id="node19" class="node">
<title>Node19</title>
<g id="a_node19"><a xlink:href="classitk_1_1WeakPointer.html" target="_top" xlink:title=" ">
<polygon fill="white" stroke="black" points="1017,-191.5 1017,-221.5 1138,-221.5 1138,-191.5 1017,-191.5"/>
<text text-anchor="start" x="1025" y="-209.5" font-family="Helvetica,sans-Serif" font-size="10.00">itk::WeakPointer&lt; itk</text>
<text text-anchor="middle" x="1077.5" y="-198.5" font-family="Helvetica,sans-Serif" font-size="10.00">::ProcessObject &gt;</text>
</a>
</g>
</g>
<!-- Node19&#45;&gt;Node4 -->
<g id="edge23" class="edge">
<title>Node19&#45;&gt;Node4</title>
<path fill="none" stroke="#9a32cd" stroke-dasharray="5,2" d="M1148.53,-194.82C1180.45,-189.3 1218.71,-182.41 1253,-175.5 1259.81,-174.13 1267.03,-172.58 1274.04,-171.03"/>
<polygon fill="#9a32cd" stroke="#9a32cd" points="1147.66,-191.42 1138.39,-196.56 1148.84,-198.32 1147.66,-191.42"/>
<text text-anchor="middle" x="1204.5" y="-195.5" font-family="Helvetica,sans-Serif" font-size="10.00"> m_Source</text>
</g>
<!-- Node20 -->
<g id="node20" class="node">
<title>Node20</title>
<g id="a_node20"><a xlink:href="classitk_1_1WeakPointer.html" target="_top" xlink:title="Implements a weak reference to an object.">
<polygon fill="white" stroke="black" points="718,-191.5 718,-221.5 864,-221.5 864,-191.5 718,-191.5"/>
<text text-anchor="start" x="726" y="-209.5" font-family="Helvetica,sans-Serif" font-size="10.00">itk::WeakPointer&lt; TObject</text>
<text text-anchor="middle" x="791" y="-198.5" font-family="Helvetica,sans-Serif" font-size="10.00">Type &gt;</text>
</a>
</g>
</g>
<!-- Node20&#45;&gt;Node19 -->
<g id="edge24" class="edge">
<title>Node20&#45;&gt;Node19</title>
<path fill="none" stroke="orange" stroke-dasharray="5,2" d="M874.32,-206.5C919.9,-206.5 975.53,-206.5 1016.89,-206.5"/>
<polygon fill="orange" stroke="orange" points="874.16,-203 864.16,-206.5 874.16,-210 874.16,-203"/>
<text text-anchor="middle" x="940.5" y="-209.5" font-family="Helvetica,sans-Serif" font-size="10.00"> &lt; itk::ProcessObject &gt;</text>
</g>
<!-- Node21&#45;&gt;Node3 -->
<g id="edge25" class="edge">
<title>Node21&#45;&gt;Node3</title>
<path fill="none" stroke="orange" stroke-dasharray="5,2" d="M1543.24,-162.46C1591.22,-163.44 1654.27,-165.44 1710,-169.5 1716.63,-169.98 1723.53,-170.59 1730.42,-171.25"/>
<polygon fill="orange" stroke="orange" points="1543.3,-158.96 1533.24,-162.26 1543.17,-165.96 1543.3,-158.96"/>
<text text-anchor="start" x="1551" y="-183.5" font-family="Helvetica,sans-Serif" font-size="10.00"> &lt; unsigned int, Offset</text>
<text text-anchor="middle" x="1630.5" y="-172.5" font-family="Helvetica,sans-Serif" font-size="10.00">&lt; VDimension &gt;, VDimension &gt;</text>
</g>
<!-- Node22 -->
<g id="node22" class="node">
<title>Node22</title>
<g id="a_node22"><a xlink:title=" ">
<polygon fill="white" stroke="#bfbfbf" points="1728,-254 1728,-273 1871,-273 1871,-254 1728,-254"/>
<text text-anchor="middle" x="1799.5" y="-261" font-family="Helvetica,sans-Serif" font-size="10.00">std::vector&lt; OffsetType &gt;</text>
</a>
</g>
</g>
<!-- Node22&#45;&gt;Node2 -->
<g id="edge27" class="edge">
<title>Node22&#45;&gt;Node2</title>
<path fill="none" stroke="#9a32cd" stroke-dasharray="5,2" d="M1881.25,-259.65C1974.97,-255.19 2127.86,-247.91 2215.68,-243.73"/>
<polygon fill="#9a32cd" stroke="#9a32cd" points="1881.07,-256.16 1871.25,-260.13 1881.4,-263.15 1881.07,-256.16"/>
<text text-anchor="middle" x="2065.5" y="-255.5" font-family="Helvetica,sans-Serif" font-size="10.00"> m_Chain</text>
</g>
<!-- Node22&#45;&gt;Node24 -->
<g id="edge32" class="edge">
<title>Node22&#45;&gt;Node24</title>
<path fill="none" stroke="#9a32cd" stroke-dasharray="5,2" d="M1836.24,-250.5C1884.78,-232.85 1971.38,-201.36 2022.81,-182.66"/>
<polygon fill="#9a32cd" stroke="#9a32cd" points="1834.98,-247.24 1826.78,-253.94 1837.37,-253.82 1834.98,-247.24"/>
<text text-anchor="middle" x="1941" y="-232.5" font-family="Helvetica,sans-Serif" font-size="10.00"> m_Chain</text>
</g>
<!-- Node23&#45;&gt;Node22 -->
<g id="edge28" class="edge">
<title>Node23&#45;&gt;Node22</title>
<path fill="none" stroke="orange" stroke-dasharray="5,2" d="M1509.32,-276.51C1522.57,-273.3 1537.29,-270.24 1551,-268.5 1610.26,-260.97 1678.14,-260.15 1727.8,-260.96"/>
<polygon fill="orange" stroke="orange" points="1508.36,-273.14 1499.51,-278.97 1510.06,-279.93 1508.36,-273.14"/>
<text text-anchor="middle" x="1630.5" y="-271.5" font-family="Helvetica,sans-Serif" font-size="10.00"> &lt; OffsetType &gt;</text>
</g>
<!-- Node25 -->
<g id="node25" class="node">
<title>Node25</title>
<g id="a_node25"><a xlink:title=" ">
<polygon fill="white" stroke="#bfbfbf" points="1889,-292 1889,-311 1993,-311 1993,-292 1889,-292"/>
<text text-anchor="middle" x="1941" y="-299" font-family="Helvetica,sans-Serif" font-size="10.00">std::vector&lt; int &gt;</text>
</a>
</g>
</g>
<!-- Node23&#45;&gt;Node25 -->
<g id="edge34" class="edge">
<title>Node23&#45;&gt;Node25</title>
<path fill="none" stroke="orange" stroke-dasharray="5,2" d="M1524.18,-290.08C1617.47,-292.64 1799.99,-297.66 1888.89,-300.1"/>
<polygon fill="orange" stroke="orange" points="1524.16,-286.58 1514.07,-289.81 1523.97,-293.58 1524.16,-286.58"/>
<text text-anchor="middle" x="1630.5" y="-297.5" font-family="Helvetica,sans-Serif" font-size="10.00"> &lt; int &gt;</text>
</g>
<!-- Node24&#45;&gt;Node2 -->
<g id="edge30" class="edge">
<title>Node24&#45;&gt;Node2</title>
<path fill="none" stroke="orange" stroke-dasharray="5,2" d="M2130.43,-171.3C2152.35,-174.02 2176.7,-178.64 2198,-186.5 2226.82,-197.13 2256.19,-218.46 2271.89,-230.9"/>
<polygon fill="orange" stroke="orange" points="2130.55,-167.8 2120.22,-170.15 2129.77,-174.75 2130.55,-167.8"/>
<text text-anchor="middle" x="2168" y="-189.5" font-family="Helvetica,sans-Serif" font-size="10.00"> &lt; 2 &gt;</text>
</g>
<!-- Node25&#45;&gt;Node1 -->
<g id="edge33" class="edge">
<title>Node25&#45;&gt;Node1</title>
<path fill="none" stroke="#9a32cd" stroke-dasharray="5,2" d="M2003.08,-299.22C2101.03,-295.55 2292.11,-288.41 2389.62,-284.76"/>
<polygon fill="#9a32cd" stroke="#9a32cd" points="2002.9,-295.72 1993.03,-299.59 2003.16,-302.71 2002.9,-295.72"/>
<text text-anchor="middle" x="2168" y="-296.5" font-family="Helvetica,sans-Serif" font-size="10.00"> m_Chain2D</text>
</g>
</g>
</svg>
