<?xml version="1.0" encoding="UTF-8" standalone="no"?>
<!DOCTYPE svg PUBLIC "-//W3C//DTD SVG 1.1//EN"
 "http://www.w3.org/Graphics/SVG/1.1/DTD/svg11.dtd">
<!-- Generated by graphviz version 2.43.0 (0)
 -->
<!-- Title: itk::SimpleDataObjectDecorator&lt; T &gt; Pages: 1 -->
<svg width="1606pt" height="323pt"
 viewBox="0.00 0.00 1606.00 323.00" xmlns="http://www.w3.org/2000/svg" xmlns:xlink="http://www.w3.org/1999/xlink">
<g id="graph0" class="graph" transform="scale(1 1) rotate(0) translate(4 319)">
<title>itk::SimpleDataObjectDecorator&lt; T &gt;</title>
<polygon fill="white" stroke="transparent" points="-4,4 -4,-319 1602,-319 1602,4 -4,4"/>
<!-- Node1 -->
<g id="node1" class="node">
<title>Node1</title>
<g id="a_node1"><a xlink:title="Decorates any &quot;simple&quot; data type (data types without smart pointers) with a DataObject API.">
<polygon fill="#bfbfbf" stroke="black" points="1398,-224.5 1398,-243.5 1598,-243.5 1598,-224.5 1398,-224.5"/>
<text text-anchor="middle" x="1498" y="-231.5" font-family="Helvetica,sans-Serif" font-size="10.00">itk::SimpleDataObjectDecorator&lt; T &gt;</text>
</a>
</g>
</g>
<!-- Node2 -->
<g id="node2" class="node">
<title>Node2</title>
<g id="a_node2"><a xlink:href="classitk_1_1DataObject.html" target="_top" xlink:title="Base class for all data objects in ITK.">
<polygon fill="white" stroke="black" points="1271,-126.5 1271,-145.5 1361,-145.5 1361,-126.5 1271,-126.5"/>
<text text-anchor="middle" x="1316" y="-133.5" font-family="Helvetica,sans-Serif" font-size="10.00">itk::DataObject</text>
</a>
</g>
</g>
<!-- Node2&#45;&gt;Node1 -->
<g id="edge1" class="edge">
<title>Node2&#45;&gt;Node1</title>
<path fill="none" stroke="midnightblue" d="M1343.37,-150.36C1380.6,-170.63 1447.57,-207.09 1479.34,-224.39"/>
<polygon fill="midnightblue" stroke="midnightblue" points="1345.04,-147.28 1334.59,-145.58 1341.7,-153.43 1345.04,-147.28"/>
</g>
<!-- Node3 -->
<g id="node3" class="node">
<title>Node3</title>
<g id="a_node3"><a xlink:href="classitk_1_1Object.html" target="_top" xlink:title="Base class for most ITK classes.">
<polygon fill="white" stroke="black" points="1044,-194.5 1044,-213.5 1111,-213.5 1111,-194.5 1044,-194.5"/>
<text text-anchor="middle" x="1077.5" y="-201.5" font-family="Helvetica,sans-Serif" font-size="10.00">itk::Object</text>
</a>
</g>
</g>
<!-- Node3&#45;&gt;Node2 -->
<g id="edge2" class="edge">
<title>Node3&#45;&gt;Node2</title>
<path fill="none" stroke="midnightblue" d="M1121.37,-203.33C1157.58,-201.5 1210.22,-195.81 1253,-179 1273,-171.14 1292.82,-155.71 1304.48,-145.63"/>
<polygon fill="midnightblue" stroke="midnightblue" points="1121,-199.84 1111.16,-203.77 1121.3,-206.84 1121,-199.84"/>
</g>
<!-- Node4 -->
<g id="node4" class="node">
<title>Node4</title>
<g id="a_node4"><a xlink:href="classitk_1_1LightObject.html" target="_top" xlink:title="Light weight base class for most itk classes.">
<polygon fill="white" stroke="black" points="745.5,-248.5 745.5,-267.5 836.5,-267.5 836.5,-248.5 745.5,-248.5"/>
<text text-anchor="middle" x="791" y="-255.5" font-family="Helvetica,sans-Serif" font-size="10.00">itk::LightObject</text>
</a>
</g>
</g>
<!-- Node4&#45;&gt;Node3 -->
<g id="edge3" class="edge">
<title>Node4&#45;&gt;Node3</title>
<path fill="none" stroke="midnightblue" d="M846.93,-253.93C888.97,-250.07 948.17,-243.03 999,-231 1017.58,-226.6 1037.94,-219.41 1053.13,-213.55"/>
<polygon fill="midnightblue" stroke="midnightblue" points="846.55,-250.45 836.9,-254.82 847.17,-257.42 846.55,-250.45"/>
</g>
<!-- Node5 -->
<g id="node5" class="node">
<title>Node5</title>
<g id="a_node5"><a xlink:title=" ">
<polygon fill="white" stroke="#bfbfbf" points="457,-254.5 457,-273.5 564,-273.5 564,-254.5 457,-254.5"/>
<text text-anchor="middle" x="510.5" y="-261.5" font-family="Helvetica,sans-Serif" font-size="10.00">std::atomic&lt; int &gt;</text>
</a>
</g>
</g>
<!-- Node5&#45;&gt;Node4 -->
<g id="edge4" class="edge">
<title>Node5&#45;&gt;Node4</title>
<path fill="none" stroke="#9a32cd" stroke-dasharray="5,2" d="M574.33,-262.65C626.37,-261.53 699.05,-259.96 745.31,-258.96"/>
<polygon fill="#9a32cd" stroke="#9a32cd" points="574.13,-259.15 564.21,-262.86 574.28,-266.15 574.13,-259.15"/>
<text text-anchor="middle" x="651.5" y="-264" font-family="Helvetica,sans-Serif" font-size="10.00"> m_ReferenceCount</text>
</g>
<!-- Node6 -->
<g id="node6" class="node">
<title>Node6</title>
<g id="a_node6"><a xlink:title="STL class.">
<polygon fill="white" stroke="#bfbfbf" points="123,-254.5 123,-273.5 223,-273.5 223,-254.5 123,-254.5"/>
<text text-anchor="middle" x="173" y="-261.5" font-family="Helvetica,sans-Serif" font-size="10.00">std::atomic&lt; T &gt;</text>
</a>
</g>
</g>
<!-- Node6&#45;&gt;Node5 -->
<g id="edge5" class="edge">
<title>Node6&#45;&gt;Node5</title>
<path fill="none" stroke="orange" stroke-dasharray="5,2" d="M233.38,-264C296.77,-264 396.25,-264 456.9,-264"/>
<polygon fill="orange" stroke="orange" points="233.14,-260.5 223.14,-264 233.14,-267.5 233.14,-260.5"/>
<text text-anchor="middle" x="334" y="-267" font-family="Helvetica,sans-Serif" font-size="10.00"> &lt; int &gt;</text>
</g>
<!-- Node15 -->
<g id="node15" class="node">
<title>Node15</title>
<g id="a_node15"><a xlink:href="classitk_1_1TimeStamp.html" target="_top" xlink:title="Generate a unique, increasing time value.">
<polygon fill="white" stroke="black" points="745,-210.5 745,-229.5 837,-229.5 837,-210.5 745,-210.5"/>
<text text-anchor="middle" x="791" y="-217.5" font-family="Helvetica,sans-Serif" font-size="10.00">itk::TimeStamp</text>
</a>
</g>
</g>
<!-- Node6&#45;&gt;Node15 -->
<g id="edge17" class="edge">
<title>Node6&#45;&gt;Node15</title>
<path fill="none" stroke="#9a32cd" stroke-dasharray="5,2" d="M233.39,-255.92C286.41,-249.02 366.24,-239.37 436,-234 546.85,-225.47 677.64,-222.01 744.95,-220.71"/>
<polygon fill="#9a32cd" stroke="#9a32cd" points="232.61,-252.49 223.15,-257.26 233.52,-259.43 232.61,-252.49"/>
<text text-anchor="middle" x="510.5" y="-237" font-family="Helvetica,sans-Serif" font-size="10.00"> m_GlobalTimeStamp</text>
</g>
<!-- Node7 -->
<g id="node7" class="node">
<title>Node7</title>
<g id="a_node7"><a xlink:title=" ">
<polygon fill="white" stroke="#bfbfbf" points="0,-237.5 0,-256.5 29,-256.5 29,-237.5 0,-237.5"/>
<text text-anchor="middle" x="14.5" y="-244.5" font-family="Helvetica,sans-Serif" font-size="10.00">T</text>
</a>
</g>
</g>
<!-- Node7&#45;&gt;Node1 -->
<g id="edge23" class="edge">
<title>Node7&#45;&gt;Node1</title>
<path fill="none" stroke="#9a32cd" stroke-dasharray="5,2" d="M34.56,-262.6C38.51,-265.34 42.77,-267.96 47,-270 98.89,-294.95 114.43,-304 172,-304 172,-304 172,-304 1317,-304 1382.72,-304 1453.32,-262.97 1482.8,-243.73"/>
<polygon fill="#9a32cd" stroke="#9a32cd" points="36.63,-259.78 26.52,-256.6 32.44,-265.39 36.63,-259.78"/>
<text text-anchor="middle" x="791" y="-307" font-family="Helvetica,sans-Serif" font-size="10.00"> m_Component</text>
</g>
<!-- Node7&#45;&gt;Node6 -->
<g id="edge6" class="edge">
<title>Node7&#45;&gt;Node6</title>
<path fill="none" stroke="#9a32cd" stroke-dasharray="5,2" d="M39.23,-249.58C61.29,-251.97 94.84,-255.62 122.7,-258.64"/>
<polygon fill="#9a32cd" stroke="#9a32cd" points="39.43,-246.08 29.11,-248.48 38.68,-253.04 39.43,-246.08"/>
<text text-anchor="middle" x="71.5" y="-258" font-family="Helvetica,sans-Serif" font-size="10.00"> ptr</text>
</g>
<!-- Node12 -->
<g id="node12" class="node">
<title>Node12</title>
<g id="a_node12"><a xlink:title="STL class.">
<polygon fill="white" stroke="#bfbfbf" points="122.5,-155.5 122.5,-174.5 223.5,-174.5 223.5,-155.5 122.5,-155.5"/>
<text text-anchor="middle" x="173" y="-162.5" font-family="Helvetica,sans-Serif" font-size="10.00">std::map&lt; K, T &gt;</text>
</a>
</g>
</g>
<!-- Node7&#45;&gt;Node12 -->
<g id="edge13" class="edge">
<title>Node7&#45;&gt;Node12</title>
<path fill="none" stroke="#9a32cd" stroke-dasharray="5,2" d="M27.26,-228.94C32.58,-221.92 39.39,-214.3 47,-209 70.97,-192.3 101.92,-181.34 127.03,-174.53"/>
<polygon fill="#9a32cd" stroke="#9a32cd" points="24.26,-227.11 21.36,-237.3 29.98,-231.15 24.26,-227.11"/>
<text text-anchor="middle" x="71.5" y="-212" font-family="Helvetica,sans-Serif" font-size="10.00"> elements</text>
</g>
<!-- Node14 -->
<g id="node14" class="node">
<title>Node14</title>
<g id="a_node14"><a xlink:title="STL class.">
<polygon fill="white" stroke="#bfbfbf" points="114,-205.5 114,-224.5 232,-224.5 232,-205.5 114,-205.5"/>
<text text-anchor="middle" x="173" y="-212.5" font-family="Helvetica,sans-Serif" font-size="10.00">std::shared_ptr&lt; T &gt;</text>
</a>
</g>
</g>
<!-- Node7&#45;&gt;Node14 -->
<g id="edge15" class="edge">
<title>Node7&#45;&gt;Node14</title>
<path fill="none" stroke="#9a32cd" stroke-dasharray="5,2" d="M38.71,-237.55C41.48,-236.6 44.28,-235.73 47,-235 68.55,-229.24 92.66,-224.9 113.92,-221.76"/>
<polygon fill="#9a32cd" stroke="#9a32cd" points="37.25,-234.36 29.1,-241.12 39.69,-240.92 37.25,-234.36"/>
<text text-anchor="middle" x="71.5" y="-238" font-family="Helvetica,sans-Serif" font-size="10.00"> ptr</text>
</g>
<!-- Node8 -->
<g id="node8" class="node">
<title>Node8</title>
<g id="a_node8"><a xlink:title="STL class.">
<polygon fill="white" stroke="#bfbfbf" points="758.5,-104.5 758.5,-123.5 823.5,-123.5 823.5,-104.5 758.5,-104.5"/>
<text text-anchor="middle" x="791" y="-111.5" font-family="Helvetica,sans-Serif" font-size="10.00">std::string</text>
</a>
</g>
</g>
<!-- Node8&#45;&gt;Node2 -->
<g id="edge19" class="edge">
<title>Node8&#45;&gt;Node2</title>
<path fill="none" stroke="#9a32cd" stroke-dasharray="5,2" d="M833.56,-115.75C930.61,-119.83 1171.43,-129.96 1270.92,-134.15"/>
<polygon fill="#9a32cd" stroke="#9a32cd" points="833.68,-112.25 823.54,-115.33 833.38,-119.24 833.68,-112.25"/>
<text text-anchor="middle" x="1077.5" y="-131" font-family="Helvetica,sans-Serif" font-size="10.00"> m_SourceOutputName</text>
</g>
<!-- Node8&#45;&gt;Node3 -->
<g id="edge7" class="edge">
<title>Node8&#45;&gt;Node3</title>
<path fill="none" stroke="#9a32cd" stroke-dasharray="5,2" d="M833.57,-123.76C875.77,-134.11 942.72,-151.73 999,-172 1007.24,-174.97 1008.94,-176.58 1017,-180 1028.59,-184.91 1041.54,-190.16 1052.39,-194.5"/>
<polygon fill="#9a32cd" stroke="#9a32cd" points="834.2,-120.31 823.66,-121.35 832.55,-127.11 834.2,-120.31"/>
<text text-anchor="middle" x="940.5" y="-175" font-family="Helvetica,sans-Serif" font-size="10.00"> m_ObjectName</text>
</g>
<!-- Node9 -->
<g id="node9" class="node">
<title>Node9</title>
<g id="a_node9"><a xlink:title="STL class.">
<polygon fill="white" stroke="#bfbfbf" points="458.5,-99 458.5,-129 562.5,-129 562.5,-99 458.5,-99"/>
<text text-anchor="start" x="466.5" y="-117" font-family="Helvetica,sans-Serif" font-size="10.00">std::basic_string&lt;</text>
<text text-anchor="middle" x="510.5" y="-106" font-family="Helvetica,sans-Serif" font-size="10.00"> char &gt;</text>
</a>
</g>
</g>
<!-- Node9&#45;&gt;Node8 -->
<g id="edge8" class="edge">
<title>Node9&#45;&gt;Node8</title>
<path fill="none" stroke="midnightblue" d="M572.6,-114C629.89,-114 713.28,-114 758.31,-114"/>
<polygon fill="midnightblue" stroke="midnightblue" points="572.58,-110.5 562.58,-114 572.58,-117.5 572.58,-110.5"/>
</g>
<!-- Node10 -->
<g id="node10" class="node">
<title>Node10</title>
<g id="a_node10"><a xlink:href="classitk_1_1MetaDataDictionary.html" target="_top" xlink:title="Provides a mechanism for storing a collection of arbitrary data types.">
<polygon fill="white" stroke="black" points="724,-169.5 724,-188.5 858,-188.5 858,-169.5 724,-169.5"/>
<text text-anchor="middle" x="791" y="-176.5" font-family="Helvetica,sans-Serif" font-size="10.00">itk::MetaDataDictionary</text>
</a>
</g>
</g>
<!-- Node10&#45;&gt;Node3 -->
<g id="edge9" class="edge">
<title>Node10&#45;&gt;Node3</title>
<path fill="none" stroke="#9a32cd" stroke-dasharray="5,2" d="M868.44,-185.59C907.5,-188.97 955.79,-193.17 999,-197 1013.67,-198.3 1029.9,-199.76 1043.69,-201.01"/>
<polygon fill="#9a32cd" stroke="#9a32cd" points="868.46,-182.07 858.19,-184.7 867.86,-189.05 868.46,-182.07"/>
<text text-anchor="middle" x="940.5" y="-200" font-family="Helvetica,sans-Serif" font-size="10.00"> m_MetaDataDictionary</text>
</g>
<!-- Node11 -->
<g id="node11" class="node">
<title>Node11</title>
<g id="a_node11"><a xlink:title=" ">
<polygon fill="white" stroke="#bfbfbf" points="436,-158 436,-188 585,-188 585,-158 436,-158"/>
<text text-anchor="start" x="444" y="-176" font-family="Helvetica,sans-Serif" font-size="10.00">std::shared_ptr&lt; MetaData</text>
<text text-anchor="middle" x="510.5" y="-165" font-family="Helvetica,sans-Serif" font-size="10.00">DictionaryMapType &gt;</text>
</a>
</g>
</g>
<!-- Node11&#45;&gt;Node10 -->
<g id="edge10" class="edge">
<title>Node11&#45;&gt;Node10</title>
<path fill="none" stroke="#9a32cd" stroke-dasharray="5,2" d="M595.05,-174.8C636.2,-175.69 685.13,-176.74 723.68,-177.57"/>
<polygon fill="#9a32cd" stroke="#9a32cd" points="595.11,-171.3 585.04,-174.58 594.96,-178.3 595.11,-171.3"/>
<text text-anchor="middle" x="651.5" y="-180" font-family="Helvetica,sans-Serif" font-size="10.00"> m_Dictionary</text>
</g>
<!-- Node12&#45;&gt;Node11 -->
<g id="edge11" class="edge">
<title>Node12&#45;&gt;Node11</title>
<path fill="none" stroke="#9a32cd" stroke-dasharray="5,2" d="M233.75,-164.04C283.16,-163.54 355.17,-163.47 418,-166 423.73,-166.23 429.66,-166.53 435.62,-166.89"/>
<polygon fill="#9a32cd" stroke="#9a32cd" points="233.52,-160.54 223.56,-164.16 233.6,-167.54 233.52,-160.54"/>
<text text-anchor="middle" x="334" y="-169" font-family="Helvetica,sans-Serif" font-size="10.00"> ptr</text>
</g>
<!-- Node13 -->
<g id="node13" class="node">
<title>Node13</title>
<g id="a_node13"><a xlink:title=" ">
<polygon fill="white" stroke="#bfbfbf" points="0,-152.5 0,-171.5 29,-171.5 29,-152.5 0,-152.5"/>
<text text-anchor="middle" x="14.5" y="-159.5" font-family="Helvetica,sans-Serif" font-size="10.00">K</text>
</a>
</g>
</g>
<!-- Node13&#45;&gt;Node12 -->
<g id="edge12" class="edge">
<title>Node13&#45;&gt;Node12</title>
<path fill="none" stroke="#9a32cd" stroke-dasharray="5,2" d="M39.28,-162.21C55.31,-162.37 76.93,-162.63 96,-163 104.45,-163.16 113.42,-163.37 122.13,-163.59"/>
<polygon fill="#9a32cd" stroke="#9a32cd" points="39.21,-158.71 29.17,-162.11 39.14,-165.71 39.21,-158.71"/>
<text text-anchor="middle" x="71.5" y="-166" font-family="Helvetica,sans-Serif" font-size="10.00"> keys</text>
</g>
<!-- Node14&#45;&gt;Node11 -->
<g id="edge14" class="edge">
<title>Node14&#45;&gt;Node11</title>
<path fill="none" stroke="orange" stroke-dasharray="5,2" d="M229.08,-203.52C236.1,-202.23 243.21,-201.02 250,-200 312.37,-190.62 383.67,-183.46 435.73,-178.87"/>
<polygon fill="orange" stroke="orange" points="228.07,-200.14 218.89,-205.44 229.37,-207.02 228.07,-200.14"/>
<text text-anchor="middle" x="334" y="-203" font-family="Helvetica,sans-Serif" font-size="10.00"> &lt; MetaDataDictionaryMapType &gt;</text>
</g>
<!-- Node15&#45;&gt;Node2 -->
<g id="edge20" class="edge">
<title>Node15&#45;&gt;Node2</title>
<path fill="none" stroke="#9a32cd" stroke-dasharray="5,2" d="M843.24,-207.12C850.4,-204.53 857.52,-201.5 864,-198 873.16,-193.05 872.4,-187.04 882,-183 958.39,-150.85 1170.75,-155.18 1253,-145 1258.83,-144.28 1264.96,-143.46 1271,-142.62"/>
<polygon fill="#9a32cd" stroke="#9a32cd" points="841.87,-203.89 833.5,-210.39 844.1,-210.53 841.87,-203.89"/>
<text text-anchor="middle" x="1077.5" y="-162" font-family="Helvetica,sans-Serif" font-size="10.00"> m_UpdateMTime</text>
</g>
<!-- Node15&#45;&gt;Node3 -->
<g id="edge16" class="edge">
<title>Node15&#45;&gt;Node3</title>
<path fill="none" stroke="#9a32cd" stroke-dasharray="5,2" d="M847.47,-217.76C889.17,-215.97 947.69,-213.22 999,-210 1013.68,-209.08 1029.91,-207.85 1043.71,-206.75"/>
<polygon fill="#9a32cd" stroke="#9a32cd" points="847.09,-214.27 837.25,-218.19 847.39,-221.26 847.09,-214.27"/>
<text text-anchor="middle" x="940.5" y="-219" font-family="Helvetica,sans-Serif" font-size="10.00"> m_MTime</text>
</g>
<!-- Node16 -->
<g id="node16" class="node">
<title>Node16</title>
<g id="a_node16"><a xlink:href="classitk_1_1RealTimeStamp.html" target="_top" xlink:title="The RealTimeStamp is a data structure for representing time with high precision and a large dynamic r...">
<polygon fill="white" stroke="black" points="1021,-0.5 1021,-19.5 1134,-19.5 1134,-0.5 1021,-0.5"/>
<text text-anchor="middle" x="1077.5" y="-7.5" font-family="Helvetica,sans-Serif" font-size="10.00">itk::RealTimeStamp</text>
</a>
</g>
</g>
<!-- Node16&#45;&gt;Node2 -->
<g id="edge18" class="edge">
<title>Node16&#45;&gt;Node2</title>
<path fill="none" stroke="#9a32cd" stroke-dasharray="5,2" d="M1144.24,-9.92C1179.05,-12.73 1221.09,-20.88 1253,-42 1284.96,-63.14 1304.32,-107.01 1311.65,-126.41"/>
<polygon fill="#9a32cd" stroke="#9a32cd" points="1144.37,-6.42 1134.15,-9.24 1143.89,-13.41 1144.37,-6.42"/>
<text text-anchor="middle" x="1204.5" y="-45" font-family="Helvetica,sans-Serif" font-size="10.00"> m_RealTimeStamp</text>
</g>
<!-- Node17 -->
<g id="node17" class="node">
<title>Node17</title>
<g id="a_node17"><a xlink:href="classitk_1_1WeakPointer.html" target="_top" xlink:title=" ">
<polygon fill="white" stroke="black" points="1017,-39 1017,-69 1138,-69 1138,-39 1017,-39"/>
<text text-anchor="start" x="1025" y="-57" font-family="Helvetica,sans-Serif" font-size="10.00">itk::WeakPointer&lt; itk</text>
<text text-anchor="middle" x="1077.5" y="-46" font-family="Helvetica,sans-Serif" font-size="10.00">::ProcessObject &gt;</text>
</a>
</g>
</g>
<!-- Node17&#45;&gt;Node2 -->
<g id="edge21" class="edge">
<title>Node17&#45;&gt;Node2</title>
<path fill="none" stroke="#9a32cd" stroke-dasharray="5,2" d="M1148.34,-55.74C1181.37,-58.8 1220.57,-65.75 1253,-81 1275.92,-91.78 1296.63,-113.73 1307.33,-126.4"/>
<polygon fill="#9a32cd" stroke="#9a32cd" points="1148.56,-52.25 1138.31,-54.92 1147.98,-59.23 1148.56,-52.25"/>
<text text-anchor="middle" x="1204.5" y="-84" font-family="Helvetica,sans-Serif" font-size="10.00"> m_Source</text>
</g>
<!-- Node18 -->
<g id="node18" class="node">
<title>Node18</title>
<g id="a_node18"><a xlink:href="classitk_1_1WeakPointer.html" target="_top" xlink:title="Implements a weak reference to an object.">
<polygon fill="white" stroke="black" points="718,-39 718,-69 864,-69 864,-39 718,-39"/>
<text text-anchor="start" x="726" y="-57" font-family="Helvetica,sans-Serif" font-size="10.00">itk::WeakPointer&lt; TObject</text>
<text text-anchor="middle" x="791" y="-46" font-family="Helvetica,sans-Serif" font-size="10.00">Type &gt;</text>
</a>
</g>
</g>
<!-- Node18&#45;&gt;Node17 -->
<g id="edge22" class="edge">
<title>Node18&#45;&gt;Node17</title>
<path fill="none" stroke="orange" stroke-dasharray="5,2" d="M874.32,-54C919.9,-54 975.53,-54 1016.89,-54"/>
<polygon fill="orange" stroke="orange" points="874.16,-50.5 864.16,-54 874.16,-57.5 874.16,-50.5"/>
<text text-anchor="middle" x="940.5" y="-57" font-family="Helvetica,sans-Serif" font-size="10.00"> &lt; itk::ProcessObject &gt;</text>
</g>
</g>
</svg>
