<?xml version="1.0" encoding="UTF-8" standalone="no"?>
<!DOCTYPE svg PUBLIC "-//W3C//DTD SVG 1.1//EN"
 "http://www.w3.org/Graphics/SVG/1.1/DTD/svg11.dtd">
<!-- Generated by graphviz version 2.43.0 (0)
 -->
<!-- Title: itk::MeanReciprocalSquareDifferencePointSetToImageMetric&lt; TFixedPointSet, TMovingImage &gt; Pages: 1 -->
<svg width="310pt" height="424pt"
 viewBox="0.00 0.00 309.50 424.00" xmlns="http://www.w3.org/2000/svg" xmlns:xlink="http://www.w3.org/1999/xlink">
<g id="graph0" class="graph" transform="scale(1 1) rotate(0) translate(4 420)">
<title>itk::MeanReciprocalSquareDifferencePointSetToImageMetric&lt; TFixedPointSet, TMovingImage &gt;</title>
<polygon fill="white" stroke="transparent" points="-4,4 -4,-420 305.5,-420 305.5,4 -4,4"/>
<!-- Node1 -->
<g id="node1" class="node">
<title>Node1</title>
<g id="a_node1"><a xlink:title="Computes similarity between pixel values of a point set and intensity values in an image.">
<polygon fill="#bfbfbf" stroke="black" points="0,-0.5 0,-41.5 190,-41.5 190,-0.5 0,-0.5"/>
<text text-anchor="start" x="8" y="-29.5" font-family="Helvetica,sans-Serif" font-size="10.00">itk::MeanReciprocalSquare</text>
<text text-anchor="start" x="8" y="-18.5" font-family="Helvetica,sans-Serif" font-size="10.00">DifferencePointSetToImageMetric</text>
<text text-anchor="middle" x="95" y="-7.5" font-family="Helvetica,sans-Serif" font-size="10.00">&lt; TFixedPointSet, TMovingImage &gt;</text>
</a>
</g>
</g>
<!-- Node2 -->
<g id="node2" class="node">
<title>Node2</title>
<g id="a_node2"><a xlink:href="classitk_1_1PointSetToImageMetric.html" target="_top" xlink:title="Computes similarity between a point set and an image.">
<polygon fill="white" stroke="black" points="0,-79.5 0,-109.5 190,-109.5 190,-79.5 0,-79.5"/>
<text text-anchor="start" x="8" y="-97.5" font-family="Helvetica,sans-Serif" font-size="10.00">itk::PointSetToImageMetric</text>
<text text-anchor="middle" x="95" y="-86.5" font-family="Helvetica,sans-Serif" font-size="10.00">&lt; TFixedPointSet, TMovingImage &gt;</text>
</a>
</g>
</g>
<!-- Node2&#45;&gt;Node1 -->
<g id="edge1" class="edge">
<title>Node2&#45;&gt;Node1</title>
<path fill="none" stroke="midnightblue" d="M95,-69.1C95,-60.1 95,-50.02 95,-41.51"/>
<polygon fill="midnightblue" stroke="midnightblue" points="91.5,-69.37 95,-79.37 98.5,-69.37 91.5,-69.37"/>
</g>
<!-- Node3 -->
<g id="node3" class="node">
<title>Node3</title>
<g id="a_node3"><a xlink:href="classitk_1_1SingleValuedCostFunction.html" target="_top" xlink:title="This class is a base for the CostFunctions returning a single value.">
<polygon fill="white" stroke="black" points="14.5,-147.5 14.5,-166.5 175.5,-166.5 175.5,-147.5 14.5,-147.5"/>
<text text-anchor="middle" x="95" y="-154.5" font-family="Helvetica,sans-Serif" font-size="10.00">itk::SingleValuedCostFunction</text>
</a>
</g>
</g>
<!-- Node3&#45;&gt;Node2 -->
<g id="edge2" class="edge">
<title>Node3&#45;&gt;Node2</title>
<path fill="none" stroke="midnightblue" d="M95,-137.22C95,-128.36 95,-117.96 95,-109.76"/>
<polygon fill="midnightblue" stroke="midnightblue" points="91.5,-137.33 95,-147.33 98.5,-137.33 91.5,-137.33"/>
</g>
<!-- Node4 -->
<g id="node4" class="node">
<title>Node4</title>
<g id="a_node4"><a xlink:href="classitk_1_1CostFunctionTemplate.html" target="_top" xlink:title=" ">
<polygon fill="white" stroke="black" points="55,-204.5 55,-223.5 135,-223.5 135,-204.5 55,-204.5"/>
<text text-anchor="middle" x="95" y="-211.5" font-family="Helvetica,sans-Serif" font-size="10.00">CostFunction</text>
</a>
</g>
</g>
<!-- Node4&#45;&gt;Node3 -->
<g id="edge3" class="edge">
<title>Node4&#45;&gt;Node3</title>
<path fill="none" stroke="midnightblue" d="M95,-194.12C95,-184.82 95,-174.06 95,-166.71"/>
<polygon fill="midnightblue" stroke="midnightblue" points="91.5,-194.41 95,-204.41 98.5,-194.41 91.5,-194.41"/>
</g>
<!-- Node5 -->
<g id="node5" class="node">
<title>Node5</title>
<g id="a_node5"><a xlink:href="classitk_1_1Object.html" target="_top" xlink:title="Base class for most ITK classes.">
<polygon fill="white" stroke="black" points="57.5,-339.5 57.5,-358.5 124.5,-358.5 124.5,-339.5 57.5,-339.5"/>
<text text-anchor="middle" x="91" y="-346.5" font-family="Helvetica,sans-Serif" font-size="10.00">itk::Object</text>
</a>
</g>
</g>
<!-- Node5&#45;&gt;Node4 -->
<g id="edge4" class="edge">
<title>Node5&#45;&gt;Node4</title>
<path fill="none" stroke="midnightblue" d="M91.57,-329.13C92.45,-299.88 94.1,-244.76 94.74,-223.59"/>
<polygon fill="midnightblue" stroke="midnightblue" points="88.06,-329.17 91.26,-339.27 95.06,-329.38 88.06,-329.17"/>
</g>
<!-- Node7 -->
<g id="node7" class="node">
<title>Node7</title>
<g id="a_node7"><a xlink:href="classitk_1_1CostFunctionTemplate.html" target="_top" xlink:title=" ">
<polygon fill="white" stroke="black" points="106.5,-271.5 106.5,-301.5 301.5,-301.5 301.5,-271.5 106.5,-271.5"/>
<text text-anchor="start" x="114.5" y="-289.5" font-family="Helvetica,sans-Serif" font-size="10.00">itk::CostFunctionTemplate</text>
<text text-anchor="middle" x="204" y="-278.5" font-family="Helvetica,sans-Serif" font-size="10.00">&lt; TInternalComputationValueType &gt;</text>
</a>
</g>
</g>
<!-- Node5&#45;&gt;Node7 -->
<g id="edge7" class="edge">
<title>Node5&#45;&gt;Node7</title>
<path fill="none" stroke="midnightblue" d="M116.12,-334.55C134.45,-324.74 159.23,-311.47 177.8,-301.53"/>
<polygon fill="midnightblue" stroke="midnightblue" points="114.35,-331.53 107.19,-339.33 117.66,-337.7 114.35,-331.53"/>
</g>
<!-- Node6 -->
<g id="node6" class="node">
<title>Node6</title>
<g id="a_node6"><a xlink:href="classitk_1_1LightObject.html" target="_top" xlink:title="Light weight base class for most itk classes.">
<polygon fill="white" stroke="black" points="45.5,-396.5 45.5,-415.5 136.5,-415.5 136.5,-396.5 45.5,-396.5"/>
<text text-anchor="middle" x="91" y="-403.5" font-family="Helvetica,sans-Serif" font-size="10.00">itk::LightObject</text>
</a>
</g>
</g>
<!-- Node6&#45;&gt;Node5 -->
<g id="edge5" class="edge">
<title>Node6&#45;&gt;Node5</title>
<path fill="none" stroke="midnightblue" d="M91,-386.12C91,-376.82 91,-366.06 91,-358.71"/>
<polygon fill="midnightblue" stroke="midnightblue" points="87.5,-386.41 91,-396.41 94.5,-386.41 87.5,-386.41"/>
</g>
<!-- Node7&#45;&gt;Node4 -->
<g id="edge6" class="edge">
<title>Node7&#45;&gt;Node4</title>
<path fill="none" stroke="orange" stroke-dasharray="5,2" d="M173.71,-265.91C152.19,-251.99 124.34,-233.98 108.19,-223.53"/>
<polygon fill="orange" stroke="orange" points="171.91,-268.91 182.2,-271.4 175.71,-263.03 171.91,-268.91"/>
<text text-anchor="middle" x="181.5" y="-245" font-family="Helvetica,sans-Serif" font-size="10.00"> &lt; double &gt;</text>
</g>
</g>
</svg>
