<?xml version="1.0" encoding="UTF-8" standalone="no"?>
<!DOCTYPE svg PUBLIC "-//W3C//DTD SVG 1.1//EN"
 "http://www.w3.org/Graphics/SVG/1.1/DTD/svg11.dtd">
<!-- Generated by graphviz version 2.43.0 (0)
 -->
<!-- Title: include Pages: 1 -->
<svg width="393pt" height="151pt"
 viewBox="0.00 0.00 393.00 151.00" xmlns="http://www.w3.org/2000/svg" xmlns:xlink="http://www.w3.org/1999/xlink">
<g id="graph0" class="graph" transform="scale(1 1) rotate(0) translate(4 147)">
<title>include</title>
<polygon fill="white" stroke="transparent" points="-4,4 -4,-147 389,-147 389,4 -4,4"/>
<g id="clust1" class="cluster">
<title>clusterdir_dd9a6fe218e9292d4a0abd5e6d73b14f</title>
<g id="a_clust1"><a xlink:href="dir_dd9a6fe218e9292d4a0abd5e6d73b14f.html" target="_top" xlink:title="Review">
<polygon fill="#edf0f7" stroke="#7f7f7f" stroke-dasharray="5,2" points="172,-64 172,-135 242,-135 242,-64 172,-64"/>
<text text-anchor="middle" x="207" y="-123" font-family="Helvetica,sans-Serif" font-size="10.00">Review</text>
</a>
</g>
</g>
<!-- dir_46a6684d63e76c369356db7c24c9e0b9 -->
<g id="node1" class="node">
<title>dir_46a6684d63e76c369356db7c24c9e0b9</title>
<g id="a_node1"><a xlink:href="dir_46a6684d63e76c369356db7c24c9e0b9.html" target="_top" xlink:title="include">
<polygon fill="#edf0f7" stroke="#404040" stroke-width="2" points="234,-108 180,-108 180,-72 234,-72 234,-108"/>
<text text-anchor="middle" x="207" y="-87.5" font-family="Helvetica,sans-Serif" font-size="10.00">include</text>
</a>
</g>
</g>
<!-- dir_367545fbb67972528c5e9da3f2610d14 -->
<g id="node2" class="node">
<title>dir_367545fbb67972528c5e9da3f2610d14</title>
<g id="a_node2"><a xlink:href="dir_367545fbb67972528c5e9da3f2610d14.html" target="_top" xlink:title="IO">
<polygon fill="none" stroke="red" stroke-dasharray="5,2" points="54,-36 0,-36 0,0 54,0 54,-36"/>
<text text-anchor="middle" x="27" y="-15.5" font-family="Helvetica,sans-Serif" font-size="10.00">IO</text>
</a>
</g>
</g>
<!-- dir_46a6684d63e76c369356db7c24c9e0b9&#45;&gt;dir_367545fbb67972528c5e9da3f2610d14 -->
<g id="edge1" class="edge">
<title>dir_46a6684d63e76c369356db7c24c9e0b9&#45;&gt;dir_367545fbb67972528c5e9da3f2610d14</title>
<path fill="none" stroke="black" d="M179.92,-79.84C152.65,-70.43 109.23,-54.99 63.49,-36.04"/>
<polygon fill="black" stroke="black" points="64.59,-32.7 54.01,-32.07 61.89,-39.16 64.59,-32.7"/>
<g id="a_edge1&#45;headlabel"><a xlink:href="dir_000150_000179.html" target="_top" xlink:title="2">
<text text-anchor="middle" x="69" y="-28.97" font-family="Helvetica,sans-Serif" font-size="10.00">2</text>
</a>
</g>
</g>
<!-- dir_431b5b85ef2fd850d23fe72862364324 -->
<g id="node3" class="node">
<title>dir_431b5b85ef2fd850d23fe72862364324</title>
<g id="a_node3"><a xlink:href="dir_431b5b85ef2fd850d23fe72862364324.html" target="_top" xlink:title="Segmentation">
<polygon fill="none" stroke="red" stroke-dasharray="5,2" points="157.5,-36 72.5,-36 72.5,0 157.5,0 157.5,-36"/>
<text text-anchor="middle" x="115" y="-15.5" font-family="Helvetica,sans-Serif" font-size="10.00">Segmentation</text>
</a>
</g>
</g>
<!-- dir_46a6684d63e76c369356db7c24c9e0b9&#45;&gt;dir_431b5b85ef2fd850d23fe72862364324 -->
<g id="edge2" class="edge">
<title>dir_46a6684d63e76c369356db7c24c9e0b9&#45;&gt;dir_431b5b85ef2fd850d23fe72862364324</title>
<path fill="none" stroke="black" d="M184.26,-71.7C172.56,-62.8 158.14,-51.82 145.49,-42.2"/>
<polygon fill="black" stroke="black" points="147.56,-39.37 137.48,-36.1 143.32,-44.94 147.56,-39.37"/>
<g id="a_edge2&#45;headlabel"><a xlink:href="dir_000150_000226.html" target="_top" xlink:title="1">
<text text-anchor="middle" x="152.14" y="-36.79" font-family="Helvetica,sans-Serif" font-size="10.00">1</text>
</a>
</g>
</g>
<!-- dir_57605c80b6a7e87d0adba2f2655cc3cb -->
<g id="node4" class="node">
<title>dir_57605c80b6a7e87d0adba2f2655cc3cb</title>
<g id="a_node4"><a xlink:href="dir_57605c80b6a7e87d0adba2f2655cc3cb.html" target="_top" xlink:title="Numerics">
<polygon fill="none" stroke="red" stroke-dasharray="5,2" points="238.5,-36 175.5,-36 175.5,0 238.5,0 238.5,-36"/>
<text text-anchor="middle" x="207" y="-15.5" font-family="Helvetica,sans-Serif" font-size="10.00">Numerics</text>
</a>
</g>
</g>
<!-- dir_46a6684d63e76c369356db7c24c9e0b9&#45;&gt;dir_57605c80b6a7e87d0adba2f2655cc3cb -->
<g id="edge3" class="edge">
<title>dir_46a6684d63e76c369356db7c24c9e0b9&#45;&gt;dir_57605c80b6a7e87d0adba2f2655cc3cb</title>
<path fill="none" stroke="black" d="M207,-71.7C207,-63.98 207,-54.71 207,-46.11"/>
<polygon fill="black" stroke="black" points="210.5,-46.1 207,-36.1 203.5,-46.1 210.5,-46.1"/>
<g id="a_edge3&#45;headlabel"><a xlink:href="dir_000150_000212.html" target="_top" xlink:title="6">
<text text-anchor="middle" x="213.34" y="-47.2" font-family="Helvetica,sans-Serif" font-size="10.00">6</text>
</a>
</g>
</g>
<!-- dir_6724b11ef9ad676a0a0c31463bff1d93 -->
<g id="node5" class="node">
<title>dir_6724b11ef9ad676a0a0c31463bff1d93</title>
<g id="a_node5"><a xlink:href="dir_6724b11ef9ad676a0a0c31463bff1d93.html" target="_top" xlink:title="Filtering">
<polygon fill="none" stroke="red" stroke-dasharray="5,2" points="313,-36 257,-36 257,0 313,0 313,-36"/>
<text text-anchor="middle" x="285" y="-15.5" font-family="Helvetica,sans-Serif" font-size="10.00">Filtering</text>
</a>
</g>
</g>
<!-- dir_46a6684d63e76c369356db7c24c9e0b9&#45;&gt;dir_6724b11ef9ad676a0a0c31463bff1d93 -->
<g id="edge4" class="edge">
<title>dir_46a6684d63e76c369356db7c24c9e0b9&#45;&gt;dir_6724b11ef9ad676a0a0c31463bff1d93</title>
<path fill="none" stroke="black" d="M226.28,-71.7C235.92,-63.05 247.73,-52.45 258.23,-43.03"/>
<polygon fill="black" stroke="black" points="260.84,-45.39 265.94,-36.1 256.16,-40.18 260.84,-45.39"/>
<g id="a_edge4&#45;headlabel"><a xlink:href="dir_000150_000030.html" target="_top" xlink:title="12">
<text text-anchor="middle" x="260.06" y="-47.4" font-family="Helvetica,sans-Serif" font-size="10.00">12</text>
</a>
</g>
</g>
<!-- dir_cac7f9cecb9aa42a0bd05452dddd8a21 -->
<g id="node6" class="node">
<title>dir_cac7f9cecb9aa42a0bd05452dddd8a21</title>
<g id="a_node6"><a xlink:href="dir_cac7f9cecb9aa42a0bd05452dddd8a21.html" target="_top" xlink:title="Core">
<polygon fill="none" stroke="red" stroke-dasharray="5,2" points="385,-36 331,-36 331,0 385,0 385,-36"/>
<text text-anchor="middle" x="358" y="-15.5" font-family="Helvetica,sans-Serif" font-size="10.00">Core</text>
</a>
</g>
</g>
<!-- dir_46a6684d63e76c369356db7c24c9e0b9&#45;&gt;dir_cac7f9cecb9aa42a0bd05452dddd8a21 -->
<g id="edge5" class="edge">
<title>dir_46a6684d63e76c369356db7c24c9e0b9&#45;&gt;dir_cac7f9cecb9aa42a0bd05452dddd8a21</title>
<path fill="none" stroke="black" d="M234.45,-76.44C255.86,-66.62 286.56,-52.5 321.44,-36.24"/>
<polygon fill="black" stroke="black" points="323.3,-39.24 330.89,-31.84 320.34,-32.89 323.3,-39.24"/>
<g id="a_edge5&#45;headlabel"><a xlink:href="dir_000150_000014.html" target="_top" xlink:title="53">
<text text-anchor="middle" x="321.25" y="-40.83" font-family="Helvetica,sans-Serif" font-size="10.00">53</text>
</a>
</g>
</g>
</g>
</svg>
