<?xml version="1.0" encoding="UTF-8" standalone="no"?>
<!DOCTYPE svg PUBLIC "-//W3C//DTD SVG 1.1//EN"
 "http://www.w3.org/Graphics/SVG/1.1/DTD/svg11.dtd">
<!-- Generated by graphviz version 2.43.0 (0)
 -->
<!-- Title: Smoothing Pages: 1 -->
<svg width="285pt" height="175pt"
 viewBox="0.00 0.00 285.00 175.00" xmlns="http://www.w3.org/2000/svg" xmlns:xlink="http://www.w3.org/1999/xlink">
<g id="graph0" class="graph" transform="scale(1 1) rotate(0) translate(4 171)">
<title>Smoothing</title>
<polygon fill="white" stroke="transparent" points="-4,4 -4,-171 281,-171 281,4 -4,4"/>
<g id="clust1" class="cluster">
<title>clusterdir_6724b11ef9ad676a0a0c31463bff1d93</title>
<g id="a_clust1"><a xlink:href="dir_6724b11ef9ad676a0a0c31463bff1d93.html" target="_top" xlink:title="Filtering">
<polygon fill="#edf0f7" stroke="#7f7f7f" stroke-dasharray="5,2" points="8,-8 8,-159 213,-159 213,-8 8,-8"/>
<text text-anchor="middle" x="110.5" y="-147" font-family="Helvetica,sans-Serif" font-size="10.00">Filtering</text>
</a>
</g>
</g>
<g id="clust2" class="cluster">
<title>clusterdir_8cc45063d67057a04691750c42379925</title>
<g id="a_clust2"><a xlink:href="dir_8cc45063d67057a04691750c42379925.html" target="_top">
<polygon fill="#edf0f7" stroke="#404040" stroke-width="2" points="47,-80 47,-132 205,-132 205,-80 47,-80"/>
</a>
</g>
</g>
<!-- dir_707d4018505f37dfa9564a4fbd97eec6 -->
<g id="node1" class="node">
<title>dir_707d4018505f37dfa9564a4fbd97eec6</title>
<g id="a_node1"><a xlink:href="dir_707d4018505f37dfa9564a4fbd97eec6.html" target="_top" xlink:title="Convolution">
<polygon fill="#a2b4d6" stroke="red" points="90.5,-52 15.5,-52 15.5,-16 90.5,-16 90.5,-52"/>
<text text-anchor="middle" x="53" y="-31.5" font-family="Helvetica,sans-Serif" font-size="10.00">Convolution</text>
</a>
</g>
</g>
<!-- dir_a5e0762988512223861a3264c6133bea -->
<g id="node2" class="node">
<title>dir_a5e0762988512223861a3264c6133bea</title>
<g id="a_node2"><a xlink:href="dir_a5e0762988512223861a3264c6133bea.html" target="_top" xlink:title="ImageFilterBase">
<polygon fill="#a2b4d6" stroke="red" points="205,-52 109,-52 109,-16 205,-16 205,-52"/>
<text text-anchor="middle" x="157" y="-31.5" font-family="Helvetica,sans-Serif" font-size="10.00">ImageFilterBase</text>
</a>
</g>
</g>
<!-- dir_8cc45063d67057a04691750c42379925 -->
<g id="node3" class="node">
<title>dir_8cc45063d67057a04691750c42379925</title>
<text text-anchor="middle" x="162" y="-103.5" font-family="Helvetica,sans-Serif" font-size="10.00">Smoothing</text>
</g>
<!-- dir_d4908258d4d633449ccfdffdb97c8ad0 -->
<g id="node4" class="node">
<title>dir_d4908258d4d633449ccfdffdb97c8ad0</title>
<g id="a_node4"><a xlink:href="dir_d4908258d4d633449ccfdffdb97c8ad0.html" target="_top" xlink:title="include">
<polygon fill="#a2b4d6" stroke="#404040" points="109,-124 55,-124 55,-88 109,-88 109,-124"/>
<text text-anchor="middle" x="82" y="-103.5" font-family="Helvetica,sans-Serif" font-size="10.00">include</text>
</a>
</g>
</g>
<!-- dir_d4908258d4d633449ccfdffdb97c8ad0&#45;&gt;dir_707d4018505f37dfa9564a4fbd97eec6 -->
<g id="edge1" class="edge">
<title>dir_d4908258d4d633449ccfdffdb97c8ad0&#45;&gt;dir_707d4018505f37dfa9564a4fbd97eec6</title>
<path fill="none" stroke="black" d="M74.83,-87.7C71.57,-79.81 67.63,-70.3 64,-61.55"/>
<polygon fill="black" stroke="black" points="67.15,-60 60.09,-52.1 60.68,-62.68 67.15,-60"/>
<g id="a_edge1&#45;headlabel"><a xlink:href="dir_000110_000013.html" target="_top" xlink:title="1">
<text text-anchor="middle" x="71.15" y="-59.74" font-family="Helvetica,sans-Serif" font-size="10.00">1</text>
</a>
</g>
</g>
<!-- dir_d4908258d4d633449ccfdffdb97c8ad0&#45;&gt;dir_a5e0762988512223861a3264c6133bea -->
<g id="edge2" class="edge">
<title>dir_d4908258d4d633449ccfdffdb97c8ad0&#45;&gt;dir_a5e0762988512223861a3264c6133bea</title>
<path fill="none" stroke="black" d="M100.54,-87.7C109.8,-79.05 121.16,-68.45 131.26,-59.03"/>
<polygon fill="black" stroke="black" points="133.75,-61.49 138.67,-52.1 128.98,-56.37 133.75,-61.49"/>
<g id="a_edge2&#45;headlabel"><a xlink:href="dir_000110_000052.html" target="_top" xlink:title="6">
<text text-anchor="middle" x="133.06" y="-63.51" font-family="Helvetica,sans-Serif" font-size="10.00">6</text>
</a>
</g>
</g>
<!-- dir_cac7f9cecb9aa42a0bd05452dddd8a21 -->
<g id="node5" class="node">
<title>dir_cac7f9cecb9aa42a0bd05452dddd8a21</title>
<g id="a_node5"><a xlink:href="dir_cac7f9cecb9aa42a0bd05452dddd8a21.html" target="_top" xlink:title="Core">
<polygon fill="none" stroke="red" stroke-dasharray="5,2" points="277,-52 223,-52 223,-16 277,-16 277,-52"/>
<text text-anchor="middle" x="250" y="-31.5" font-family="Helvetica,sans-Serif" font-size="10.00">Core</text>
</a>
</g>
</g>
<!-- dir_d4908258d4d633449ccfdffdb97c8ad0&#45;&gt;dir_cac7f9cecb9aa42a0bd05452dddd8a21 -->
<g id="edge3" class="edge">
<title>dir_d4908258d4d633449ccfdffdb97c8ad0&#45;&gt;dir_cac7f9cecb9aa42a0bd05452dddd8a21</title>
<path fill="none" stroke="black" d="M104.82,-87.96C109.37,-85.04 114.22,-82.23 119,-80 157.25,-62.17 172.73,-67.73 213.44,-53.09"/>
<polygon fill="black" stroke="black" points="214.72,-56.35 222.82,-49.53 212.23,-49.81 214.72,-56.35"/>
<g id="a_edge3&#45;headlabel"><a xlink:href="dir_000110_000014.html" target="_top" xlink:title="28">
<text text-anchor="middle" x="212.37" y="-57.78" font-family="Helvetica,sans-Serif" font-size="10.00">28</text>
</a>
</g>
</g>
</g>
</svg>
