<?xml version="1.0" encoding="UTF-8" standalone="no"?>
<!DOCTYPE svg PUBLIC "-//W3C//DTD SVG 1.1//EN"
 "http://www.w3.org/Graphics/SVG/1.1/DTD/svg11.dtd">
<!-- Generated by graphviz version 2.43.0 (0)
 -->
<!-- Title: GPUThresholding Pages: 1 -->
<svg width="284pt" height="175pt"
 viewBox="0.00 0.00 284.00 175.00" xmlns="http://www.w3.org/2000/svg" xmlns:xlink="http://www.w3.org/1999/xlink">
<g id="graph0" class="graph" transform="scale(1 1) rotate(0) translate(4 171)">
<title>GPUThresholding</title>
<polygon fill="white" stroke="transparent" points="-4,4 -4,-171 280,-171 280,4 -4,4"/>
<g id="clust1" class="cluster">
<title>clusterdir_6724b11ef9ad676a0a0c31463bff1d93</title>
<g id="a_clust1"><a xlink:href="dir_6724b11ef9ad676a0a0c31463bff1d93.html" target="_top" xlink:title="Filtering">
<polygon fill="#edf0f7" stroke="#7f7f7f" stroke-dasharray="5,2" points="8,-8 8,-159 214,-159 214,-8 8,-8"/>
<text text-anchor="middle" x="111" y="-147" font-family="Helvetica,sans-Serif" font-size="10.00">Filtering</text>
</a>
</g>
</g>
<g id="clust2" class="cluster">
<title>clusterdir_d3237ad3f867cd82d11a2cf158f5eec8</title>
<g id="a_clust2"><a xlink:href="dir_d3237ad3f867cd82d11a2cf158f5eec8.html" target="_top">
<polygon fill="#edf0f7" stroke="#404040" stroke-width="2" points="16,-80 16,-132 206,-132 206,-80 16,-80"/>
</a>
</g>
</g>
<!-- dir_625a833c07e6154ff15eecbcb6655092 -->
<g id="node1" class="node">
<title>dir_625a833c07e6154ff15eecbcb6655092</title>
<g id="a_node1"><a xlink:href="dir_625a833c07e6154ff15eecbcb6655092.html" target="_top" xlink:title="Thresholding">
<polygon fill="#a2b4d6" stroke="red" points="96,-52 16,-52 16,-16 96,-16 96,-52"/>
<text text-anchor="middle" x="56" y="-31.5" font-family="Helvetica,sans-Serif" font-size="10.00">Thresholding</text>
</a>
</g>
</g>
<!-- dir_d3237ad3f867cd82d11a2cf158f5eec8 -->
<g id="node2" class="node">
<title>dir_d3237ad3f867cd82d11a2cf158f5eec8</title>
<text text-anchor="middle" x="147" y="-103.5" font-family="Helvetica,sans-Serif" font-size="10.00">GPUThresholding</text>
</g>
<!-- dir_1ea7589be443407202c20fff3f7b3569 -->
<g id="node3" class="node">
<title>dir_1ea7589be443407202c20fff3f7b3569</title>
<g id="a_node3"><a xlink:href="dir_1ea7589be443407202c20fff3f7b3569.html" target="_top" xlink:title="include">
<polygon fill="#a2b4d6" stroke="#404040" points="78,-124 24,-124 24,-88 78,-88 78,-124"/>
<text text-anchor="middle" x="51" y="-103.5" font-family="Helvetica,sans-Serif" font-size="10.00">include</text>
</a>
</g>
</g>
<!-- dir_1ea7589be443407202c20fff3f7b3569&#45;&gt;dir_625a833c07e6154ff15eecbcb6655092 -->
<g id="edge1" class="edge">
<title>dir_1ea7589be443407202c20fff3f7b3569&#45;&gt;dir_625a833c07e6154ff15eecbcb6655092</title>
<path fill="none" stroke="black" d="M52.24,-87.7C52.79,-79.98 53.45,-70.71 54.06,-62.11"/>
<polygon fill="black" stroke="black" points="57.56,-62.33 54.78,-52.1 50.57,-61.83 57.56,-62.33"/>
<g id="a_edge1&#45;headlabel"><a xlink:href="dir_000092_000237.html" target="_top" xlink:title="1">
<text text-anchor="middle" x="60.13" y="-63.62" font-family="Helvetica,sans-Serif" font-size="10.00">1</text>
</a>
</g>
</g>
<!-- dir_cac7f9cecb9aa42a0bd05452dddd8a21 -->
<g id="node4" class="node">
<title>dir_cac7f9cecb9aa42a0bd05452dddd8a21</title>
<g id="a_node4"><a xlink:href="dir_cac7f9cecb9aa42a0bd05452dddd8a21.html" target="_top" xlink:title="Core">
<polygon fill="none" stroke="red" stroke-dasharray="5,2" points="276,-52 222,-52 222,-16 276,-16 276,-52"/>
<text text-anchor="middle" x="249" y="-31.5" font-family="Helvetica,sans-Serif" font-size="10.00">Core</text>
</a>
</g>
</g>
<!-- dir_1ea7589be443407202c20fff3f7b3569&#45;&gt;dir_cac7f9cecb9aa42a0bd05452dddd8a21 -->
<g id="edge2" class="edge">
<title>dir_1ea7589be443407202c20fff3f7b3569&#45;&gt;dir_cac7f9cecb9aa42a0bd05452dddd8a21</title>
<path fill="none" stroke="black" d="M73.31,-87.96C77.98,-84.96 83.01,-82.13 88,-80 139.28,-58.12 160.22,-70.98 212.12,-53.88"/>
<polygon fill="black" stroke="black" points="213.55,-57.09 221.82,-50.46 211.22,-50.49 213.55,-57.09"/>
<g id="a_edge2&#45;headlabel"><a xlink:href="dir_000092_000014.html" target="_top" xlink:title="4">
<text text-anchor="middle" x="211.1" y="-58.46" font-family="Helvetica,sans-Serif" font-size="10.00">4</text>
</a>
</g>
</g>
</g>
</svg>
