<?xml version="1.0" encoding="UTF-8" standalone="no"?>
<!DOCTYPE svg PUBLIC "-//W3C//DTD SVG 1.1//EN"
 "http://www.w3.org/Graphics/SVG/1.1/DTD/svg11.dtd">
<!-- Generated by graphviz version 2.43.0 (0)
 -->
<!-- Title: ImageCompose Pages: 1 -->
<svg width="275pt" height="175pt"
 viewBox="0.00 0.00 275.00 175.00" xmlns="http://www.w3.org/2000/svg" xmlns:xlink="http://www.w3.org/1999/xlink">
<g id="graph0" class="graph" transform="scale(1 1) rotate(0) translate(4 171)">
<title>ImageCompose</title>
<polygon fill="white" stroke="transparent" points="-4,4 -4,-171 271,-171 271,4 -4,4"/>
<g id="clust1" class="cluster">
<title>clusterdir_6724b11ef9ad676a0a0c31463bff1d93</title>
<g id="a_clust1"><a xlink:href="dir_6724b11ef9ad676a0a0c31463bff1d93.html" target="_top" xlink:title="Filtering">
<polygon fill="#edf0f7" stroke="#7f7f7f" stroke-dasharray="5,2" points="8,-8 8,-159 205,-159 205,-8 8,-8"/>
<text text-anchor="middle" x="106.5" y="-147" font-family="Helvetica,sans-Serif" font-size="10.00">Filtering</text>
</a>
</g>
</g>
<g id="clust2" class="cluster">
<title>clusterdir_615fc82832f75c4199d24f578f6ce9c7</title>
<g id="a_clust2"><a xlink:href="dir_615fc82832f75c4199d24f578f6ce9c7.html" target="_top">
<polygon fill="#edf0f7" stroke="#404040" stroke-width="2" points="16,-80 16,-132 197,-132 197,-80 16,-80"/>
</a>
</g>
</g>
<!-- dir_a5e0762988512223861a3264c6133bea -->
<g id="node1" class="node">
<title>dir_a5e0762988512223861a3264c6133bea</title>
<g id="a_node1"><a xlink:href="dir_a5e0762988512223861a3264c6133bea.html" target="_top" xlink:title="ImageFilterBase">
<polygon fill="#a2b4d6" stroke="red" points="112,-52 16,-52 16,-16 112,-16 112,-52"/>
<text text-anchor="middle" x="64" y="-31.5" font-family="Helvetica,sans-Serif" font-size="10.00">ImageFilterBase</text>
</a>
</g>
</g>
<!-- dir_615fc82832f75c4199d24f578f6ce9c7 -->
<g id="node2" class="node">
<title>dir_615fc82832f75c4199d24f578f6ce9c7</title>
<text text-anchor="middle" x="143" y="-103.5" font-family="Helvetica,sans-Serif" font-size="10.00">ImageCompose</text>
</g>
<!-- dir_f181563c157e8593a82b5daf6cbe39b6 -->
<g id="node3" class="node">
<title>dir_f181563c157e8593a82b5daf6cbe39b6</title>
<g id="a_node3"><a xlink:href="dir_f181563c157e8593a82b5daf6cbe39b6.html" target="_top" xlink:title="include">
<polygon fill="#a2b4d6" stroke="#404040" points="78,-124 24,-124 24,-88 78,-88 78,-124"/>
<text text-anchor="middle" x="51" y="-103.5" font-family="Helvetica,sans-Serif" font-size="10.00">include</text>
</a>
</g>
</g>
<!-- dir_f181563c157e8593a82b5daf6cbe39b6&#45;&gt;dir_a5e0762988512223861a3264c6133bea -->
<g id="edge1" class="edge">
<title>dir_f181563c157e8593a82b5daf6cbe39b6&#45;&gt;dir_a5e0762988512223861a3264c6133bea</title>
<path fill="none" stroke="black" d="M54.21,-87.7C55.65,-79.98 57.37,-70.71 58.96,-62.11"/>
<polygon fill="black" stroke="black" points="62.44,-62.58 60.82,-52.1 55.56,-61.3 62.44,-62.58"/>
<g id="a_edge1&#45;headlabel"><a xlink:href="dir_000094_000052.html" target="_top" xlink:title="1">
<text text-anchor="middle" x="64.57" y="-64.13" font-family="Helvetica,sans-Serif" font-size="10.00">1</text>
</a>
</g>
</g>
<!-- dir_cac7f9cecb9aa42a0bd05452dddd8a21 -->
<g id="node4" class="node">
<title>dir_cac7f9cecb9aa42a0bd05452dddd8a21</title>
<g id="a_node4"><a xlink:href="dir_cac7f9cecb9aa42a0bd05452dddd8a21.html" target="_top" xlink:title="Core">
<polygon fill="none" stroke="red" stroke-dasharray="5,2" points="267,-52 213,-52 213,-16 267,-16 267,-52"/>
<text text-anchor="middle" x="240" y="-31.5" font-family="Helvetica,sans-Serif" font-size="10.00">Core</text>
</a>
</g>
</g>
<!-- dir_f181563c157e8593a82b5daf6cbe39b6&#45;&gt;dir_cac7f9cecb9aa42a0bd05452dddd8a21 -->
<g id="edge2" class="edge">
<title>dir_f181563c157e8593a82b5daf6cbe39b6&#45;&gt;dir_cac7f9cecb9aa42a0bd05452dddd8a21</title>
<path fill="none" stroke="black" d="M73.74,-87.76C78.29,-84.86 83.17,-82.11 88,-80 135.54,-59.29 155.03,-70.15 203.14,-53.93"/>
<polygon fill="black" stroke="black" points="204.59,-57.12 212.81,-50.44 202.22,-50.54 204.59,-57.12"/>
<g id="a_edge2&#45;headlabel"><a xlink:href="dir_000094_000014.html" target="_top" xlink:title="5">
<text text-anchor="middle" x="202.17" y="-58.51" font-family="Helvetica,sans-Serif" font-size="10.00">5</text>
</a>
</g>
</g>
</g>
</svg>
