<?xml version="1.0" encoding="UTF-8" standalone="no"?>
<!DOCTYPE svg PUBLIC "-//W3C//DTD SVG 1.1//EN"
 "http://www.w3.org/Graphics/SVG/1.1/DTD/svg11.dtd">
<!-- Generated by graphviz version 2.43.0 (0)
 -->
<!-- Title: SpatialObjects Pages: 1 -->
<svg width="430pt" height="175pt"
 viewBox="0.00 0.00 429.50 175.00" xmlns="http://www.w3.org/2000/svg" xmlns:xlink="http://www.w3.org/1999/xlink">
<g id="graph0" class="graph" transform="scale(1 1) rotate(0) translate(4 171)">
<title>SpatialObjects</title>
<polygon fill="white" stroke="transparent" points="-4,4 -4,-171 425.5,-171 425.5,4 -4,4"/>
<g id="clust1" class="cluster">
<title>clusterdir_cac7f9cecb9aa42a0bd05452dddd8a21</title>
<g id="a_clust1"><a xlink:href="dir_cac7f9cecb9aa42a0bd05452dddd8a21.html" target="_top" xlink:title="Core">
<polygon fill="#edf0f7" stroke="#7f7f7f" stroke-dasharray="5,2" points="8,-8 8,-159 349,-159 349,-8 8,-8"/>
<text text-anchor="middle" x="178.5" y="-147" font-family="Helvetica,sans-Serif" font-size="10.00">Core</text>
</a>
</g>
</g>
<g id="clust2" class="cluster">
<title>clusterdir_1bee2fb34076721d08fafd9564ef7a27</title>
<g id="a_clust2"><a xlink:href="dir_1bee2fb34076721d08fafd9564ef7a27.html" target="_top">
<polygon fill="#edf0f7" stroke="#404040" stroke-width="2" points="165,-80 165,-132 341,-132 341,-80 165,-80"/>
</a>
</g>
</g>
<!-- dir_6a74394530d20d7df929c672ed9fa8ba -->
<g id="node1" class="node">
<title>dir_6a74394530d20d7df929c672ed9fa8ba</title>
<g id="a_node1"><a xlink:href="dir_6a74394530d20d7df929c672ed9fa8ba.html" target="_top" xlink:title="Transform">
<polygon fill="#a2b4d6" stroke="red" points="81.5,-52 16.5,-52 16.5,-16 81.5,-16 81.5,-52"/>
<text text-anchor="middle" x="49" y="-31.5" font-family="Helvetica,sans-Serif" font-size="10.00">Transform</text>
</a>
</g>
</g>
<!-- dir_74281b52246cd7f0eb098df131413d14 -->
<g id="node2" class="node">
<title>dir_74281b52246cd7f0eb098df131413d14</title>
<g id="a_node2"><a xlink:href="dir_74281b52246cd7f0eb098df131413d14.html" target="_top" xlink:title="ImageFunction">
<polygon fill="#a2b4d6" stroke="red" points="188.5,-52 99.5,-52 99.5,-16 188.5,-16 188.5,-52"/>
<text text-anchor="middle" x="144" y="-31.5" font-family="Helvetica,sans-Serif" font-size="10.00">ImageFunction</text>
</a>
</g>
</g>
<!-- dir_ccbf6776bad025584c31b55d4bd83604 -->
<g id="node3" class="node">
<title>dir_ccbf6776bad025584c31b55d4bd83604</title>
<g id="a_node3"><a xlink:href="dir_ccbf6776bad025584c31b55d4bd83604.html" target="_top" xlink:title="Mesh">
<polygon fill="#a2b4d6" stroke="red" points="261,-52 207,-52 207,-16 261,-16 261,-52"/>
<text text-anchor="middle" x="234" y="-31.5" font-family="Helvetica,sans-Serif" font-size="10.00">Mesh</text>
</a>
</g>
</g>
<!-- dir_d38764bbd2ed2fce86b6f67aad6c8758 -->
<g id="node4" class="node">
<title>dir_d38764bbd2ed2fce86b6f67aad6c8758</title>
<g id="a_node4"><a xlink:href="dir_d38764bbd2ed2fce86b6f67aad6c8758.html" target="_top" xlink:title="Common">
<polygon fill="#a2b4d6" stroke="red" points="340.5,-52 279.5,-52 279.5,-16 340.5,-16 340.5,-52"/>
<text text-anchor="middle" x="310" y="-31.5" font-family="Helvetica,sans-Serif" font-size="10.00">Common</text>
</a>
</g>
</g>
<!-- dir_1bee2fb34076721d08fafd9564ef7a27 -->
<g id="node5" class="node">
<title>dir_1bee2fb34076721d08fafd9564ef7a27</title>
<text text-anchor="middle" x="289" y="-103.5" font-family="Helvetica,sans-Serif" font-size="10.00">SpatialObjects</text>
</g>
<!-- dir_1d354a03290ff429ac5f31238dc218f2 -->
<g id="node6" class="node">
<title>dir_1d354a03290ff429ac5f31238dc218f2</title>
<g id="a_node6"><a xlink:href="dir_1d354a03290ff429ac5f31238dc218f2.html" target="_top" xlink:title="include">
<polygon fill="#a2b4d6" stroke="#404040" points="227,-124 173,-124 173,-88 227,-88 227,-124"/>
<text text-anchor="middle" x="200" y="-103.5" font-family="Helvetica,sans-Serif" font-size="10.00">include</text>
</a>
</g>
</g>
<!-- dir_1d354a03290ff429ac5f31238dc218f2&#45;&gt;dir_6a74394530d20d7df929c672ed9fa8ba -->
<g id="edge2" class="edge">
<title>dir_1d354a03290ff429ac5f31238dc218f2&#45;&gt;dir_6a74394530d20d7df929c672ed9fa8ba</title>
<path fill="none" stroke="black" d="M172.66,-92.32C149.87,-81.76 117.05,-66.54 90.94,-54.44"/>
<polygon fill="black" stroke="black" points="92.2,-51.17 81.66,-50.14 89.26,-57.52 92.2,-51.17"/>
<g id="a_edge2&#45;headlabel"><a xlink:href="dir_000072_000239.html" target="_top" xlink:title="3">
<text text-anchor="middle" x="96.66" y="-47.61" font-family="Helvetica,sans-Serif" font-size="10.00">3</text>
</a>
</g>
</g>
<!-- dir_1d354a03290ff429ac5f31238dc218f2&#45;&gt;dir_74281b52246cd7f0eb098df131413d14 -->
<g id="edge3" class="edge">
<title>dir_1d354a03290ff429ac5f31238dc218f2&#45;&gt;dir_74281b52246cd7f0eb098df131413d14</title>
<path fill="none" stroke="black" d="M186.16,-87.7C179.51,-79.39 171.42,-69.28 164.11,-60.14"/>
<polygon fill="black" stroke="black" points="166.66,-57.73 157.68,-52.1 161.2,-62.1 166.66,-57.73"/>
<g id="a_edge3&#45;headlabel"><a xlink:href="dir_000072_000054.html" target="_top" xlink:title="1">
<text text-anchor="middle" x="171.13" y="-56.26" font-family="Helvetica,sans-Serif" font-size="10.00">1</text>
</a>
</g>
</g>
<!-- dir_1d354a03290ff429ac5f31238dc218f2&#45;&gt;dir_ccbf6776bad025584c31b55d4bd83604 -->
<g id="edge4" class="edge">
<title>dir_1d354a03290ff429ac5f31238dc218f2&#45;&gt;dir_ccbf6776bad025584c31b55d4bd83604</title>
<path fill="none" stroke="black" d="M208.4,-87.7C212.27,-79.73 216.95,-70.1 221.24,-61.26"/>
<polygon fill="black" stroke="black" points="224.47,-62.63 225.69,-52.1 218.17,-59.57 224.47,-62.63"/>
<g id="a_edge4&#45;headlabel"><a xlink:href="dir_000072_000194.html" target="_top" xlink:title="2">
<text text-anchor="middle" x="225.45" y="-64.6" font-family="Helvetica,sans-Serif" font-size="10.00">2</text>
</a>
</g>
</g>
<!-- dir_1d354a03290ff429ac5f31238dc218f2&#45;&gt;dir_d38764bbd2ed2fce86b6f67aad6c8758 -->
<g id="edge5" class="edge">
<title>dir_1d354a03290ff429ac5f31238dc218f2&#45;&gt;dir_d38764bbd2ed2fce86b6f67aad6c8758</title>
<path fill="none" stroke="black" d="M224.98,-87.91C228.98,-85.24 233.09,-82.52 237,-80 248.66,-72.47 261.51,-64.46 273.14,-57.31"/>
<polygon fill="black" stroke="black" points="275.05,-60.24 281.75,-52.04 271.39,-54.27 275.05,-60.24"/>
<g id="a_edge5&#45;headlabel"><a xlink:href="dir_000072_000010.html" target="_top" xlink:title="38">
<text text-anchor="middle" x="273.47" y="-62.04" font-family="Helvetica,sans-Serif" font-size="10.00">38</text>
</a>
</g>
</g>
<!-- dir_57605c80b6a7e87d0adba2f2655cc3cb -->
<g id="node7" class="node">
<title>dir_57605c80b6a7e87d0adba2f2655cc3cb</title>
<g id="a_node7"><a xlink:href="dir_57605c80b6a7e87d0adba2f2655cc3cb.html" target="_top" xlink:title="Numerics">
<polygon fill="none" stroke="red" stroke-dasharray="5,2" points="421.5,-52 358.5,-52 358.5,-16 421.5,-16 421.5,-52"/>
<text text-anchor="middle" x="390" y="-31.5" font-family="Helvetica,sans-Serif" font-size="10.00">Numerics</text>
</a>
</g>
</g>
<!-- dir_1d354a03290ff429ac5f31238dc218f2&#45;&gt;dir_57605c80b6a7e87d0adba2f2655cc3cb -->
<g id="edge1" class="edge">
<title>dir_1d354a03290ff429ac5f31238dc218f2&#45;&gt;dir_57605c80b6a7e87d0adba2f2655cc3cb</title>
<path fill="none" stroke="black" d="M222.75,-87.8C227.31,-84.89 232.18,-82.13 237,-80 282.59,-59.89 300.67,-68.19 348.62,-53.24"/>
<polygon fill="black" stroke="black" points="349.88,-56.51 358.27,-50.05 347.68,-49.87 349.88,-56.51"/>
<g id="a_edge1&#45;headlabel"><a xlink:href="dir_000072_000212.html" target="_top" xlink:title="1">
<text text-anchor="middle" x="347.36" y="-57.84" font-family="Helvetica,sans-Serif" font-size="10.00">1</text>
</a>
</g>
</g>
</g>
</svg>
