<?xml version="1.0" encoding="UTF-8" standalone="no"?>
<!DOCTYPE svg PUBLIC "-//W3C//DTD SVG 1.1//EN"
 "http://www.w3.org/Graphics/SVG/1.1/DTD/svg11.dtd">
<!-- Generated by graphviz version 2.43.0 (0)
 -->
<!-- Title: include Pages: 1 -->
<svg width="413pt" height="151pt"
 viewBox="0.00 0.00 413.00 151.00" xmlns="http://www.w3.org/2000/svg" xmlns:xlink="http://www.w3.org/1999/xlink">
<g id="graph0" class="graph" transform="scale(1 1) rotate(0) translate(4 147)">
<title>include</title>
<polygon fill="white" stroke="transparent" points="-4,4 -4,-147 409,-147 409,4 -4,4"/>
<g id="clust1" class="cluster">
<title>clusterdir_1bee2fb34076721d08fafd9564ef7a27</title>
<g id="a_clust1"><a xlink:href="dir_1bee2fb34076721d08fafd9564ef7a27.html" target="_top" xlink:title="SpatialObjects">
<polygon fill="#edf0f7" stroke="#7f7f7f" stroke-dasharray="5,2" points="165.5,-64 165.5,-135 252.5,-135 252.5,-64 165.5,-64"/>
<text text-anchor="middle" x="209" y="-123" font-family="Helvetica,sans-Serif" font-size="10.00">SpatialObjects</text>
</a>
</g>
</g>
<!-- dir_1d354a03290ff429ac5f31238dc218f2 -->
<g id="node1" class="node">
<title>dir_1d354a03290ff429ac5f31238dc218f2</title>
<g id="a_node1"><a xlink:href="dir_1d354a03290ff429ac5f31238dc218f2.html" target="_top" xlink:title="include">
<polygon fill="#edf0f7" stroke="#404040" stroke-width="2" points="235.5,-108 181.5,-108 181.5,-72 235.5,-72 235.5,-108"/>
<text text-anchor="middle" x="208.5" y="-87.5" font-family="Helvetica,sans-Serif" font-size="10.00">include</text>
</a>
</g>
</g>
<!-- dir_57605c80b6a7e87d0adba2f2655cc3cb -->
<g id="node2" class="node">
<title>dir_57605c80b6a7e87d0adba2f2655cc3cb</title>
<g id="a_node2"><a xlink:href="dir_57605c80b6a7e87d0adba2f2655cc3cb.html" target="_top" xlink:title="Numerics">
<polygon fill="none" stroke="red" stroke-dasharray="5,2" points="63,-36 0,-36 0,0 63,0 63,-36"/>
<text text-anchor="middle" x="31.5" y="-15.5" font-family="Helvetica,sans-Serif" font-size="10.00">Numerics</text>
</a>
</g>
</g>
<!-- dir_1d354a03290ff429ac5f31238dc218f2&#45;&gt;dir_57605c80b6a7e87d0adba2f2655cc3cb -->
<g id="edge1" class="edge">
<title>dir_1d354a03290ff429ac5f31238dc218f2&#45;&gt;dir_57605c80b6a7e87d0adba2f2655cc3cb</title>
<path fill="none" stroke="black" d="M181.36,-78.8C155.54,-69.03 115.4,-53.68 72.76,-36.46"/>
<polygon fill="black" stroke="black" points="73.92,-33.15 63.34,-32.64 71.29,-39.64 73.92,-33.15"/>
<g id="a_edge1&#45;headlabel"><a xlink:href="dir_000072_000212.html" target="_top" xlink:title="1">
<text text-anchor="middle" x="78.32" y="-29.37" font-family="Helvetica,sans-Serif" font-size="10.00">1</text>
</a>
</g>
</g>
<!-- dir_6a74394530d20d7df929c672ed9fa8ba -->
<g id="node3" class="node">
<title>dir_6a74394530d20d7df929c672ed9fa8ba</title>
<g id="a_node3"><a xlink:href="dir_6a74394530d20d7df929c672ed9fa8ba.html" target="_top" xlink:title="Transform">
<polygon fill="none" stroke="red" stroke-dasharray="5,2" points="146,-36 81,-36 81,0 146,0 146,-36"/>
<text text-anchor="middle" x="113.5" y="-15.5" font-family="Helvetica,sans-Serif" font-size="10.00">Transform</text>
</a>
</g>
</g>
<!-- dir_1d354a03290ff429ac5f31238dc218f2&#45;&gt;dir_6a74394530d20d7df929c672ed9fa8ba -->
<g id="edge2" class="edge">
<title>dir_1d354a03290ff429ac5f31238dc218f2&#45;&gt;dir_6a74394530d20d7df929c672ed9fa8ba</title>
<path fill="none" stroke="black" d="M185.02,-71.7C172.94,-62.8 158.05,-51.82 144.98,-42.2"/>
<polygon fill="black" stroke="black" points="146.84,-39.22 136.71,-36.1 142.69,-44.85 146.84,-39.22"/>
<g id="a_edge2&#45;headlabel"><a xlink:href="dir_000072_000239.html" target="_top" xlink:title="3">
<text text-anchor="middle" x="151.42" y="-36.57" font-family="Helvetica,sans-Serif" font-size="10.00">3</text>
</a>
</g>
</g>
<!-- dir_74281b52246cd7f0eb098df131413d14 -->
<g id="node4" class="node">
<title>dir_74281b52246cd7f0eb098df131413d14</title>
<g id="a_node4"><a xlink:href="dir_74281b52246cd7f0eb098df131413d14.html" target="_top" xlink:title="ImageFunction">
<polygon fill="none" stroke="red" stroke-dasharray="5,2" points="253,-36 164,-36 164,0 253,0 253,-36"/>
<text text-anchor="middle" x="208.5" y="-15.5" font-family="Helvetica,sans-Serif" font-size="10.00">ImageFunction</text>
</a>
</g>
</g>
<!-- dir_1d354a03290ff429ac5f31238dc218f2&#45;&gt;dir_74281b52246cd7f0eb098df131413d14 -->
<g id="edge3" class="edge">
<title>dir_1d354a03290ff429ac5f31238dc218f2&#45;&gt;dir_74281b52246cd7f0eb098df131413d14</title>
<path fill="none" stroke="black" d="M208.5,-71.7C208.5,-63.98 208.5,-54.71 208.5,-46.11"/>
<polygon fill="black" stroke="black" points="212,-46.1 208.5,-36.1 205,-46.1 212,-46.1"/>
<g id="a_edge3&#45;headlabel"><a xlink:href="dir_000072_000054.html" target="_top" xlink:title="1">
<text text-anchor="middle" x="214.84" y="-47.2" font-family="Helvetica,sans-Serif" font-size="10.00">1</text>
</a>
</g>
</g>
<!-- dir_ccbf6776bad025584c31b55d4bd83604 -->
<g id="node5" class="node">
<title>dir_ccbf6776bad025584c31b55d4bd83604</title>
<g id="a_node5"><a xlink:href="dir_ccbf6776bad025584c31b55d4bd83604.html" target="_top" xlink:title="Mesh">
<polygon fill="none" stroke="red" stroke-dasharray="5,2" points="325.5,-36 271.5,-36 271.5,0 325.5,0 325.5,-36"/>
<text text-anchor="middle" x="298.5" y="-15.5" font-family="Helvetica,sans-Serif" font-size="10.00">Mesh</text>
</a>
</g>
</g>
<!-- dir_1d354a03290ff429ac5f31238dc218f2&#45;&gt;dir_ccbf6776bad025584c31b55d4bd83604 -->
<g id="edge4" class="edge">
<title>dir_1d354a03290ff429ac5f31238dc218f2&#45;&gt;dir_ccbf6776bad025584c31b55d4bd83604</title>
<path fill="none" stroke="black" d="M230.75,-71.7C242.08,-62.88 256.03,-52.03 268.32,-42.47"/>
<polygon fill="black" stroke="black" points="270.76,-45.01 276.51,-36.1 266.47,-39.48 270.76,-45.01"/>
<g id="a_edge4&#45;headlabel"><a xlink:href="dir_000072_000194.html" target="_top" xlink:title="2">
<text text-anchor="middle" x="269.67" y="-46.95" font-family="Helvetica,sans-Serif" font-size="10.00">2</text>
</a>
</g>
</g>
<!-- dir_d38764bbd2ed2fce86b6f67aad6c8758 -->
<g id="node6" class="node">
<title>dir_d38764bbd2ed2fce86b6f67aad6c8758</title>
<g id="a_node6"><a xlink:href="dir_d38764bbd2ed2fce86b6f67aad6c8758.html" target="_top" xlink:title="Common">
<polygon fill="none" stroke="red" stroke-dasharray="5,2" points="405,-36 344,-36 344,0 405,0 405,-36"/>
<text text-anchor="middle" x="374.5" y="-15.5" font-family="Helvetica,sans-Serif" font-size="10.00">Common</text>
</a>
</g>
</g>
<!-- dir_1d354a03290ff429ac5f31238dc218f2&#45;&gt;dir_d38764bbd2ed2fce86b6f67aad6c8758 -->
<g id="edge5" class="edge">
<title>dir_1d354a03290ff429ac5f31238dc218f2&#45;&gt;dir_d38764bbd2ed2fce86b6f67aad6c8758</title>
<path fill="none" stroke="black" d="M235.55,-77.66C261.07,-66.94 300.4,-50.42 334.5,-36 334.6,-35.96 334.69,-35.92 334.79,-35.88"/>
<polygon fill="black" stroke="black" points="336.09,-39.13 343.93,-32.01 333.36,-32.68 336.09,-39.13"/>
<g id="a_edge5&#45;headlabel"><a xlink:href="dir_000072_000010.html" target="_top" xlink:title="38">
<text text-anchor="middle" x="333.88" y="-40.65" font-family="Helvetica,sans-Serif" font-size="10.00">38</text>
</a>
</g>
</g>
</g>
</svg>
