<?xml version="1.0" encoding="UTF-8" standalone="no"?>
<!DOCTYPE svg PUBLIC "-//W3C//DTD SVG 1.1//EN"
 "http://www.w3.org/Graphics/SVG/1.1/DTD/svg11.dtd">
<!-- Generated by graphviz version 2.43.0 (0)
 -->
<!-- Title: include Pages: 1 -->
<svg width="270pt" height="151pt"
 viewBox="0.00 0.00 269.50 151.00" xmlns="http://www.w3.org/2000/svg" xmlns:xlink="http://www.w3.org/1999/xlink">
<g id="graph0" class="graph" transform="scale(1 1) rotate(0) translate(4 147)">
<title>include</title>
<polygon fill="white" stroke="transparent" points="-4,4 -4,-147 265.5,-147 265.5,4 -4,4"/>
<g id="clust1" class="cluster">
<title>clusterdir_8cc45063d67057a04691750c42379925</title>
<g id="a_clust1"><a xlink:href="dir_8cc45063d67057a04691750c42379925.html" target="_top" xlink:title="Smoothing">
<polygon fill="#edf0f7" stroke="#7f7f7f" stroke-dasharray="5,2" points="106.5,-64 106.5,-135 176.5,-135 176.5,-64 106.5,-64"/>
<text text-anchor="middle" x="141.5" y="-123" font-family="Helvetica,sans-Serif" font-size="10.00">Smoothing</text>
</a>
</g>
</g>
<!-- dir_d4908258d4d633449ccfdffdb97c8ad0 -->
<g id="node1" class="node">
<title>dir_d4908258d4d633449ccfdffdb97c8ad0</title>
<g id="a_node1"><a xlink:href="dir_d4908258d4d633449ccfdffdb97c8ad0.html" target="_top" xlink:title="include">
<polygon fill="#edf0f7" stroke="#404040" stroke-width="2" points="168.5,-108 114.5,-108 114.5,-72 168.5,-72 168.5,-108"/>
<text text-anchor="middle" x="141.5" y="-87.5" font-family="Helvetica,sans-Serif" font-size="10.00">include</text>
</a>
</g>
</g>
<!-- dir_707d4018505f37dfa9564a4fbd97eec6 -->
<g id="node2" class="node">
<title>dir_707d4018505f37dfa9564a4fbd97eec6</title>
<g id="a_node2"><a xlink:href="dir_707d4018505f37dfa9564a4fbd97eec6.html" target="_top" xlink:title="Convolution">
<polygon fill="none" stroke="red" stroke-dasharray="5,2" points="75,-36 0,-36 0,0 75,0 75,-36"/>
<text text-anchor="middle" x="37.5" y="-15.5" font-family="Helvetica,sans-Serif" font-size="10.00">Convolution</text>
</a>
</g>
</g>
<!-- dir_d4908258d4d633449ccfdffdb97c8ad0&#45;&gt;dir_707d4018505f37dfa9564a4fbd97eec6 -->
<g id="edge1" class="edge">
<title>dir_d4908258d4d633449ccfdffdb97c8ad0&#45;&gt;dir_707d4018505f37dfa9564a4fbd97eec6</title>
<path fill="none" stroke="black" d="M116.06,-71.88C102.71,-62.89 86.18,-51.76 71.72,-42.03"/>
<polygon fill="black" stroke="black" points="73.29,-38.87 63.04,-36.19 69.38,-44.68 73.29,-38.87"/>
<g id="a_edge1&#45;headlabel"><a xlink:href="dir_000108_000013.html" target="_top" xlink:title="1">
<text text-anchor="middle" x="77.86" y="-36.02" font-family="Helvetica,sans-Serif" font-size="10.00">1</text>
</a>
</g>
</g>
<!-- dir_a5e0762988512223861a3264c6133bea -->
<g id="node3" class="node">
<title>dir_a5e0762988512223861a3264c6133bea</title>
<g id="a_node3"><a xlink:href="dir_a5e0762988512223861a3264c6133bea.html" target="_top" xlink:title="ImageFilterBase">
<polygon fill="none" stroke="red" stroke-dasharray="5,2" points="189.5,-36 93.5,-36 93.5,0 189.5,0 189.5,-36"/>
<text text-anchor="middle" x="141.5" y="-15.5" font-family="Helvetica,sans-Serif" font-size="10.00">ImageFilterBase</text>
</a>
</g>
</g>
<!-- dir_d4908258d4d633449ccfdffdb97c8ad0&#45;&gt;dir_a5e0762988512223861a3264c6133bea -->
<g id="edge2" class="edge">
<title>dir_d4908258d4d633449ccfdffdb97c8ad0&#45;&gt;dir_a5e0762988512223861a3264c6133bea</title>
<path fill="none" stroke="black" d="M141.5,-71.7C141.5,-63.98 141.5,-54.71 141.5,-46.11"/>
<polygon fill="black" stroke="black" points="145,-46.1 141.5,-36.1 138,-46.1 145,-46.1"/>
<g id="a_edge2&#45;headlabel"><a xlink:href="dir_000108_000050.html" target="_top" xlink:title="6">
<text text-anchor="middle" x="147.84" y="-47.2" font-family="Helvetica,sans-Serif" font-size="10.00">6</text>
</a>
</g>
</g>
<!-- dir_cac7f9cecb9aa42a0bd05452dddd8a21 -->
<g id="node4" class="node">
<title>dir_cac7f9cecb9aa42a0bd05452dddd8a21</title>
<g id="a_node4"><a xlink:href="dir_cac7f9cecb9aa42a0bd05452dddd8a21.html" target="_top" xlink:title="Core">
<polygon fill="none" stroke="red" stroke-dasharray="5,2" points="261.5,-36 207.5,-36 207.5,0 261.5,0 261.5,-36"/>
<text text-anchor="middle" x="234.5" y="-15.5" font-family="Helvetica,sans-Serif" font-size="10.00">Core</text>
</a>
</g>
</g>
<!-- dir_d4908258d4d633449ccfdffdb97c8ad0&#45;&gt;dir_cac7f9cecb9aa42a0bd05452dddd8a21 -->
<g id="edge3" class="edge">
<title>dir_d4908258d4d633449ccfdffdb97c8ad0&#45;&gt;dir_cac7f9cecb9aa42a0bd05452dddd8a21</title>
<path fill="none" stroke="black" d="M164.49,-71.7C176.31,-62.8 190.89,-51.82 203.68,-42.2"/>
<polygon fill="black" stroke="black" points="205.89,-44.91 211.78,-36.1 201.68,-39.32 205.89,-44.91"/>
<g id="a_edge3&#45;headlabel"><a xlink:href="dir_000108_000014.html" target="_top" xlink:title="28">
<text text-anchor="middle" x="204.73" y="-46.84" font-family="Helvetica,sans-Serif" font-size="10.00">28</text>
</a>
</g>
</g>
</g>
</svg>
