<?xml version="1.0" encoding="UTF-8" standalone="no"?>
<!DOCTYPE svg PUBLIC "-//W3C//DTD SVG 1.1//EN"
 "http://www.w3.org/Graphics/SVG/1.1/DTD/svg11.dtd">
<!-- Generated by graphviz version 2.43.0 (0)
 -->
<!-- Title: FiniteDifference Pages: 1 -->
<svg width="222pt" height="175pt"
 viewBox="0.00 0.00 222.00 175.00" xmlns="http://www.w3.org/2000/svg" xmlns:xlink="http://www.w3.org/1999/xlink">
<g id="graph0" class="graph" transform="scale(1 1) rotate(0) translate(4 171)">
<title>FiniteDifference</title>
<polygon fill="white" stroke="transparent" points="-4,4 -4,-171 218,-171 218,4 -4,4"/>
<g id="clust1" class="cluster">
<title>clusterdir_cac7f9cecb9aa42a0bd05452dddd8a21</title>
<g id="a_clust1"><a xlink:href="dir_cac7f9cecb9aa42a0bd05452dddd8a21.html" target="_top" xlink:title="Core">
<polygon fill="#edf0f7" stroke="#7f7f7f" stroke-dasharray="5,2" points="8,-8 8,-159 206,-159 206,-8 8,-8"/>
<text text-anchor="middle" x="107" y="-147" font-family="Helvetica,sans-Serif" font-size="10.00">Core</text>
</a>
</g>
</g>
<g id="clust2" class="cluster">
<title>clusterdir_f01494f6e3d4d50aecc6eeecc172cb41</title>
<g id="a_clust2"><a xlink:href="dir_f01494f6e3d4d50aecc6eeecc172cb41.html" target="_top">
<polygon fill="#edf0f7" stroke="#404040" stroke-width="2" points="16,-80 16,-132 198,-132 198,-80 16,-80"/>
</a>
</g>
</g>
<!-- dir_d38764bbd2ed2fce86b6f67aad6c8758 -->
<g id="node1" class="node">
<title>dir_d38764bbd2ed2fce86b6f67aad6c8758</title>
<g id="a_node1"><a xlink:href="dir_d38764bbd2ed2fce86b6f67aad6c8758.html" target="_top" xlink:title="Common">
<polygon fill="#a2b4d6" stroke="red" points="81.5,-52 20.5,-52 20.5,-16 81.5,-16 81.5,-52"/>
<text text-anchor="middle" x="51" y="-31.5" font-family="Helvetica,sans-Serif" font-size="10.00">Common</text>
</a>
</g>
</g>
<!-- dir_f01494f6e3d4d50aecc6eeecc172cb41 -->
<g id="node2" class="node">
<title>dir_f01494f6e3d4d50aecc6eeecc172cb41</title>
<text text-anchor="middle" x="143" y="-103.5" font-family="Helvetica,sans-Serif" font-size="10.00">FiniteDifference</text>
</g>
<!-- dir_f8efbee7c165ba58f6584f102650031c -->
<g id="node3" class="node">
<title>dir_f8efbee7c165ba58f6584f102650031c</title>
<g id="a_node3"><a xlink:href="dir_f8efbee7c165ba58f6584f102650031c.html" target="_top" xlink:title="include">
<polygon fill="#a2b4d6" stroke="#404040" points="78,-124 24,-124 24,-88 78,-88 78,-124"/>
<text text-anchor="middle" x="51" y="-103.5" font-family="Helvetica,sans-Serif" font-size="10.00">include</text>
</a>
</g>
</g>
<!-- dir_f8efbee7c165ba58f6584f102650031c&#45;&gt;dir_d38764bbd2ed2fce86b6f67aad6c8758 -->
<g id="edge1" class="edge">
<title>dir_f8efbee7c165ba58f6584f102650031c&#45;&gt;dir_d38764bbd2ed2fce86b6f67aad6c8758</title>
<path fill="none" stroke="black" d="M51,-87.7C51,-79.98 51,-70.71 51,-62.11"/>
<polygon fill="black" stroke="black" points="54.5,-62.1 51,-52.1 47.5,-62.1 54.5,-62.1"/>
<g id="a_edge1&#45;headlabel"><a xlink:href="dir_000065_000010.html" target="_top" xlink:title="10">
<text text-anchor="middle" x="57.34" y="-63.2" font-family="Helvetica,sans-Serif" font-size="10.00">10</text>
</a>
</g>
</g>
</g>
</svg>
