<?xml version="1.0" encoding="UTF-8" standalone="no"?>
<!DOCTYPE svg PUBLIC "-//W3C//DTD SVG 1.1//EN"
 "http://www.w3.org/Graphics/SVG/1.1/DTD/svg11.dtd">
<!-- Generated by graphviz version 2.43.0 (0)
 -->
<!-- Title: Module ITKWatersheds Pages: 1 -->
<svg width="644pt" height="265pt"
 viewBox="0.00 0.00 644.00 264.96" xmlns="http://www.w3.org/2000/svg" xmlns:xlink="http://www.w3.org/1999/xlink">
<g id="graph0" class="graph" transform="scale(1 1) rotate(0) translate(4 260.96)">
<title>Module ITKWatersheds</title>
<polygon fill="white" stroke="transparent" points="-4,4 -4,-260.96 640,-260.96 640,4 -4,4"/>
<!-- Node2 -->
<g id="node1" class="node">
<title>Node2</title>
<g id="a_node1"><a xlink:href="group__Group-Segmentation.html" target="_top" xlink:title=" ">
<polygon fill="white" stroke="black" points="117,-123.46 0,-123.46 0,-104.46 117,-104.46 117,-123.46"/>
<text text-anchor="middle" x="58.5" y="-111.46" font-family="Helvetica,sans-Serif" font-size="10.00">Group Segmentation</text>
</a>
</g>
</g>
<!-- Node1 -->
<g id="node2" class="node">
<title>Node1</title>
<g id="a_node2"><a xlink:title=" ">
<polygon fill="#bfbfbf" stroke="black" points="282,-123.46 154,-123.46 154,-104.46 282,-104.46 282,-123.46"/>
<text text-anchor="middle" x="218" y="-111.46" font-family="Helvetica,sans-Serif" font-size="10.00">Module ITKWatersheds</text>
</a>
</g>
</g>
<!-- Node2&#45;&gt;Node1 -->
<g id="edge1" class="edge">
<title>Node2&#45;&gt;Node1</title>
<path fill="none" stroke="black" d="M127.47,-113.96C136.26,-113.96 145.24,-113.96 153.95,-113.96"/>
<polygon fill="black" stroke="black" points="127.25,-110.46 117.25,-113.96 127.25,-117.46 127.25,-110.46"/>
</g>
<!-- Node4 -->
<g id="node3" class="node">
<title>Node4</title>
<g id="a_node3"><a xlink:href="group__MathematicalMorphologyImageFilters.html" target="_top" xlink:title=" ">
<polygon fill="white" stroke="black" points="622,-222.96 477,-222.96 477,-192.96 622,-192.96 622,-222.96"/>
<text text-anchor="start" x="485" y="-210.96" font-family="Helvetica,sans-Serif" font-size="10.00">Mathematical Morphology</text>
<text text-anchor="middle" x="549.5" y="-199.96" font-family="Helvetica,sans-Serif" font-size="10.00"> Image Filters</text>
</a>
</g>
</g>
<!-- Node1&#45;&gt;Node4 -->
<g id="edge3" class="edge">
<title>Node1&#45;&gt;Node4</title>
<path fill="none" stroke="orange" stroke-dasharray="5,2" d="M226.23,-123.54C239.06,-139.69 267.52,-171.94 300,-185.96 355.97,-210.12 425.51,-214.36 476.78,-213.29"/>
<text text-anchor="start" x="302.5" y="-248.96" font-family="Helvetica,sans-Serif" font-size="10.00">itk::MorphologicalWatershed</text>
<text text-anchor="middle" x="372.5" y="-237.96" font-family="Helvetica,sans-Serif" font-size="10.00">FromMarkersImageFilter</text>
<text text-anchor="start" x="302.5" y="-226.96" font-family="Helvetica,sans-Serif" font-size="10.00">itk::MorphologicalWatershed</text>
<text text-anchor="middle" x="372.5" y="-215.96" font-family="Helvetica,sans-Serif" font-size="10.00">ImageFilter</text>
</g>
<!-- Node3 -->
<g id="node4" class="node">
<title>Node3</title>
<g id="a_node4"><a xlink:href="group__WatershedSegmentation.html" target="_top" xlink:title=" ">
<polygon fill="white" stroke="black" points="636,-34.96 463,-34.96 463,-4.96 636,-4.96 636,-34.96"/>
<text text-anchor="start" x="471" y="-22.96" font-family="Helvetica,sans-Serif" font-size="10.00">Watershed&#45;based Segmentation</text>
<text text-anchor="middle" x="549.5" y="-11.96" font-family="Helvetica,sans-Serif" font-size="10.00"> Filters</text>
</a>
</g>
</g>
<!-- Node1&#45;&gt;Node3 -->
<g id="edge2" class="edge">
<title>Node1&#45;&gt;Node3</title>
<path fill="none" stroke="orange" stroke-dasharray="5,2" d="M223.81,-104.22C234.35,-84.12 261.64,-38.51 300,-20.96 355.02,4.21 424.34,2.11 475.78,-4.95"/>
<text text-anchor="middle" x="372.5" y="-177.96" font-family="Helvetica,sans-Serif" font-size="10.00">itk::watershed::Boundary</text>
<text text-anchor="start" x="300" y="-166.96" font-family="Helvetica,sans-Serif" font-size="10.00">itk::watershed::Boundary</text>
<text text-anchor="middle" x="372.5" y="-155.96" font-family="Helvetica,sans-Serif" font-size="10.00">Resolver</text>
<text text-anchor="start" x="300" y="-144.96" font-family="Helvetica,sans-Serif" font-size="10.00">itk::watershed::Equivalence</text>
<text text-anchor="middle" x="372.5" y="-133.96" font-family="Helvetica,sans-Serif" font-size="10.00">Relabeler</text>
<text text-anchor="start" x="300" y="-122.96" font-family="Helvetica,sans-Serif" font-size="10.00">itk::IsolatedWatershedImage</text>
<text text-anchor="middle" x="372.5" y="-111.96" font-family="Helvetica,sans-Serif" font-size="10.00">Filter</text>
<text text-anchor="middle" x="372.5" y="-100.96" font-family="Helvetica,sans-Serif" font-size="10.00">itk::OneWayEquivalencyTable</text>
<text text-anchor="middle" x="372.5" y="-89.96" font-family="Helvetica,sans-Serif" font-size="10.00">itk::watershed::Relabeler</text>
<text text-anchor="middle" x="372.5" y="-78.96" font-family="Helvetica,sans-Serif" font-size="10.00">itk::watershed::Segmenter</text>
<text text-anchor="middle" x="372.5" y="-67.96" font-family="Helvetica,sans-Serif" font-size="10.00">itk::watershed::SegmentTable</text>
<text text-anchor="middle" x="372.5" y="-56.96" font-family="Helvetica,sans-Serif" font-size="10.00">itk::watershed::SegmentTree</text>
<text text-anchor="start" x="300" y="-45.96" font-family="Helvetica,sans-Serif" font-size="10.00">itk::watershed::SegmentTree</text>
<text text-anchor="middle" x="372.5" y="-34.96" font-family="Helvetica,sans-Serif" font-size="10.00">Generator</text>
<text text-anchor="middle" x="372.5" y="-23.96" font-family="Helvetica,sans-Serif" font-size="10.00">itk::WatershedImageFilter</text>
</g>
</g>
</svg>
