<?xml version="1.0" encoding="UTF-8" standalone="no"?>
<!DOCTYPE svg PUBLIC "-//W3C//DTD SVG 1.1//EN"
 "http://www.w3.org/Graphics/SVG/1.1/DTD/svg11.dtd">
<!-- Generated by graphviz version 2.43.0 (0)
 -->
<!-- Title: Group Filtering Pages: 1 -->
<svg width="330pt" height="1432pt"
 viewBox="0.00 0.00 330.00 1432.00" xmlns="http://www.w3.org/2000/svg" xmlns:xlink="http://www.w3.org/1999/xlink">
<g id="graph0" class="graph" transform="scale(1 1) rotate(0) translate(4 1428)">
<title>Group Filtering</title>
<polygon fill="white" stroke="transparent" points="-4,4 -4,-1428 326,-1428 326,4 -4,4"/>
<!-- Node1 -->
<g id="node1" class="node">
<title>Node1</title>
<g id="a_node1"><a xlink:title=" ">
<polygon fill="#bfbfbf" stroke="black" points="89,-703 0,-703 0,-684 89,-684 89,-703"/>
<text text-anchor="middle" x="44.5" y="-691" font-family="Helvetica,sans-Serif" font-size="10.00">Group Filtering</text>
</a>
</g>
</g>
<!-- Node2 -->
<g id="node2" class="node">
<title>Node2</title>
<g id="a_node2"><a xlink:href="group__ITKAnisotropicSmoothing.html" target="_top" xlink:title=" ">
<polygon fill="white" stroke="black" points="313,-1424 134,-1424 134,-1405 313,-1405 313,-1424"/>
<text text-anchor="middle" x="223.5" y="-1412" font-family="Helvetica,sans-Serif" font-size="10.00">Module ITKAnisotropicSmoothing</text>
</a>
</g>
</g>
<!-- Node1&#45;&gt;Node2 -->
<g id="edge1" class="edge">
<title>Node1&#45;&gt;Node2</title>
<path fill="none" stroke="black" d="M46.36,-713.38C51.24,-822.43 77.02,-1345.04 125,-1396.5 128.05,-1399.77 131.49,-1402.57 135.2,-1404.95"/>
<polygon fill="black" stroke="black" points="49.84,-712.98 45.91,-703.15 42.85,-713.29 49.84,-712.98"/>
</g>
<!-- Node3 -->
<g id="node3" class="node">
<title>Node3</title>
<g id="a_node3"><a xlink:href="group__ITKAntiAlias.html" target="_top" xlink:title=" ">
<polygon fill="white" stroke="black" points="281,-1387 166,-1387 166,-1368 281,-1368 281,-1387"/>
<text text-anchor="middle" x="223.5" y="-1375" font-family="Helvetica,sans-Serif" font-size="10.00">Module ITKAntiAlias</text>
</a>
</g>
</g>
<!-- Node1&#45;&gt;Node3 -->
<g id="edge2" class="edge">
<title>Node1&#45;&gt;Node3</title>
<path fill="none" stroke="black" d="M46.48,-713.31C51.9,-818.75 79.5,-1311 125,-1359.5 135.54,-1370.74 150.63,-1376.31 165.8,-1378.82"/>
<polygon fill="black" stroke="black" points="49.97,-712.94 45.97,-703.13 42.98,-713.29 49.97,-712.94"/>
</g>
<!-- Node4 -->
<g id="node4" class="node">
<title>Node4</title>
<g id="a_node4"><a xlink:href="group__ITKBiasCorrection.html" target="_top" xlink:title=" ">
<polygon fill="white" stroke="black" points="295,-1350 152,-1350 152,-1331 295,-1331 295,-1350"/>
<text text-anchor="middle" x="223.5" y="-1338" font-family="Helvetica,sans-Serif" font-size="10.00">Module ITKBiasCorrection</text>
</a>
</g>
</g>
<!-- Node1&#45;&gt;Node4 -->
<g id="edge3" class="edge">
<title>Node1&#45;&gt;Node4</title>
<path fill="none" stroke="black" d="M46.63,-713.12C52.65,-814.48 82.26,-1275.81 125,-1321.5 132.3,-1329.31 141.79,-1334.45 151.97,-1337.76"/>
<polygon fill="black" stroke="black" points="50.12,-712.83 46.04,-703.05 43.13,-713.24 50.12,-712.83"/>
</g>
<!-- Node5 -->
<g id="node5" class="node">
<title>Node5</title>
<g id="a_node5"><a xlink:href="group__ITKBinaryMathematicalMorphology.html" target="_top" xlink:title=" ">
<polygon fill="white" stroke="black" points="308.5,-1312.5 138.5,-1312.5 138.5,-1282.5 308.5,-1282.5 308.5,-1312.5"/>
<text text-anchor="start" x="146.5" y="-1300.5" font-family="Helvetica,sans-Serif" font-size="10.00">Module ITKBinaryMathematical</text>
<text text-anchor="middle" x="223.5" y="-1289.5" font-family="Helvetica,sans-Serif" font-size="10.00">Morphology</text>
</a>
</g>
</g>
<!-- Node1&#45;&gt;Node5 -->
<g id="edge4" class="edge">
<title>Node1&#45;&gt;Node5</title>
<path fill="none" stroke="black" d="M45.35,-713.36C45.07,-805.28 48.55,-1188.56 125,-1273.5 128.85,-1277.78 133.32,-1281.35 138.2,-1284.33"/>
<polygon fill="black" stroke="black" points="48.85,-713.23 45.4,-703.21 41.85,-713.19 48.85,-713.23"/>
</g>
<!-- Node6 -->
<g id="node6" class="node">
<title>Node6</title>
<g id="a_node6"><a xlink:href="group__ITKColormap.html" target="_top" xlink:title=" ">
<polygon fill="white" stroke="black" points="282.5,-1264 164.5,-1264 164.5,-1245 282.5,-1245 282.5,-1264"/>
<text text-anchor="middle" x="223.5" y="-1252" font-family="Helvetica,sans-Serif" font-size="10.00">Module ITKColormap</text>
</a>
</g>
</g>
<!-- Node1&#45;&gt;Node6 -->
<g id="edge5" class="edge">
<title>Node1&#45;&gt;Node6</title>
<path fill="none" stroke="black" d="M45.45,-713.29C45.63,-801.73 50.98,-1159.67 125,-1236.5 135.33,-1247.22 149.81,-1252.75 164.46,-1255.38"/>
<polygon fill="black" stroke="black" points="48.95,-713.06 45.45,-703.06 41.95,-713.06 48.95,-713.06"/>
</g>
<!-- Node7 -->
<g id="node7" class="node">
<title>Node7</title>
<g id="a_node7"><a xlink:href="group__ITKConvolution.html" target="_top" xlink:title=" ">
<polygon fill="white" stroke="black" points="288,-1227 159,-1227 159,-1208 288,-1208 288,-1227"/>
<text text-anchor="middle" x="223.5" y="-1215" font-family="Helvetica,sans-Serif" font-size="10.00">Module ITKConvolution</text>
</a>
</g>
</g>
<!-- Node1&#45;&gt;Node7 -->
<g id="edge6" class="edge">
<title>Node1&#45;&gt;Node7</title>
<path fill="none" stroke="black" d="M45.68,-713.29C46.86,-797.94 55.91,-1128.54 125,-1199.5 134.07,-1208.81 146.26,-1214.2 158.96,-1217.16"/>
<polygon fill="black" stroke="black" points="49.18,-713.18 45.56,-703.22 42.18,-713.26 49.18,-713.18"/>
</g>
<!-- Node8 -->
<g id="node8" class="node">
<title>Node8</title>
<g id="a_node8"><a xlink:href="group__ITKCurvatureFlow.html" target="_top" xlink:title=" ">
<polygon fill="white" stroke="black" points="294.5,-1190 152.5,-1190 152.5,-1171 294.5,-1171 294.5,-1190"/>
<text text-anchor="middle" x="223.5" y="-1178" font-family="Helvetica,sans-Serif" font-size="10.00">Module ITKCurvatureFlow</text>
</a>
</g>
</g>
<!-- Node1&#45;&gt;Node8 -->
<g id="edge7" class="edge">
<title>Node1&#45;&gt;Node8</title>
<path fill="none" stroke="black" d="M45.96,-713.62C48.22,-794.86 60.91,-1097.46 125,-1162.5 132.49,-1170.1 142.07,-1175.08 152.29,-1178.25"/>
<polygon fill="black" stroke="black" points="49.45,-713.2 45.69,-703.29 42.45,-713.38 49.45,-713.2"/>
</g>
<!-- Node9 -->
<g id="node9" class="node">
<title>Node9</title>
<g id="a_node9"><a xlink:href="group__ITKDeconvolution.html" target="_top" xlink:title=" ">
<polygon fill="white" stroke="black" points="294.5,-1153 152.5,-1153 152.5,-1134 294.5,-1134 294.5,-1153"/>
<text text-anchor="middle" x="223.5" y="-1141" font-family="Helvetica,sans-Serif" font-size="10.00">Module ITKDeconvolution</text>
</a>
</g>
</g>
<!-- Node1&#45;&gt;Node9 -->
<g id="edge8" class="edge">
<title>Node1&#45;&gt;Node9</title>
<path fill="none" stroke="black" d="M46.27,-713.5C49.65,-790.47 65.78,-1066.24 125,-1125.5 132.54,-1133.05 142.15,-1138 152.38,-1141.16"/>
<polygon fill="black" stroke="black" points="49.76,-713.12 45.85,-703.27 42.76,-713.41 49.76,-713.12"/>
</g>
<!-- Node10 -->
<g id="node10" class="node">
<title>Node10</title>
<g id="a_node10"><a xlink:href="group__ITKDenoising.html" target="_top" xlink:title=" ">
<polygon fill="white" stroke="black" points="283.5,-1116 163.5,-1116 163.5,-1097 283.5,-1097 283.5,-1116"/>
<text text-anchor="middle" x="223.5" y="-1104" font-family="Helvetica,sans-Serif" font-size="10.00">Module ITKDenoising</text>
</a>
</g>
</g>
<!-- Node1&#45;&gt;Node10 -->
<g id="edge9" class="edge">
<title>Node1&#45;&gt;Node10</title>
<path fill="none" stroke="black" d="M46.65,-713.11C51.27,-785.14 70.96,-1033.82 125,-1087.5 135.22,-1097.65 149.14,-1103.2 163.27,-1106.07"/>
<polygon fill="black" stroke="black" points="50.14,-712.88 46.03,-703.12 43.15,-713.31 50.14,-712.88"/>
</g>
<!-- Node11 -->
<g id="node11" class="node">
<title>Node11</title>
<g id="a_node11"><a xlink:href="group__ITKDiffusionTensorImage.html" target="_top" xlink:title=" ">
<polygon fill="white" stroke="black" points="296.5,-1078.5 150.5,-1078.5 150.5,-1048.5 296.5,-1048.5 296.5,-1078.5"/>
<text text-anchor="start" x="158.5" y="-1066.5" font-family="Helvetica,sans-Serif" font-size="10.00">Module ITKDiffusionTensor</text>
<text text-anchor="middle" x="223.5" y="-1055.5" font-family="Helvetica,sans-Serif" font-size="10.00">Image</text>
</a>
</g>
</g>
<!-- Node1&#45;&gt;Node11 -->
<g id="edge10" class="edge">
<title>Node1&#45;&gt;Node11</title>
<path fill="none" stroke="black" d="M47.38,-713.57C54.02,-780.16 78.5,-992.27 125,-1039.5 132.09,-1046.7 140.98,-1051.88 150.48,-1055.57"/>
<polygon fill="black" stroke="black" points="50.82,-712.83 46.38,-703.22 43.86,-713.51 50.82,-712.83"/>
</g>
<!-- Node12 -->
<g id="node12" class="node">
<title>Node12</title>
<g id="a_node12"><a xlink:href="group__ITKDisplacementField.html" target="_top" xlink:title=" ">
<polygon fill="white" stroke="black" points="304.5,-1030 142.5,-1030 142.5,-1011 304.5,-1011 304.5,-1030"/>
<text text-anchor="middle" x="223.5" y="-1018" font-family="Helvetica,sans-Serif" font-size="10.00">Module ITKDisplacementField</text>
</a>
</g>
</g>
<!-- Node1&#45;&gt;Node12 -->
<g id="edge11" class="edge">
<title>Node1&#45;&gt;Node12</title>
<path fill="none" stroke="black" d="M47.8,-713.12C55.42,-774.66 81.82,-962.21 125,-1002.5 130.03,-1007.2 135.88,-1010.87 142.15,-1013.71"/>
<polygon fill="black" stroke="black" points="51.27,-712.67 46.6,-703.16 44.32,-713.51 51.27,-712.67"/>
</g>
<!-- Node13 -->
<g id="node13" class="node">
<title>Node13</title>
<g id="a_node13"><a xlink:href="group__ITKDistanceMap.html" target="_top" xlink:title=" ">
<polygon fill="white" stroke="black" points="291,-993 156,-993 156,-974 291,-974 291,-993"/>
<text text-anchor="middle" x="223.5" y="-981" font-family="Helvetica,sans-Serif" font-size="10.00">Module ITKDistanceMap</text>
</a>
</g>
</g>
<!-- Node1&#45;&gt;Node13 -->
<g id="edge12" class="edge">
<title>Node1&#45;&gt;Node13</title>
<path fill="none" stroke="black" d="M44.8,-713.17C44.17,-763.5 49.97,-897.74 125,-965.5 133.62,-973.29 144.48,-978.22 155.79,-981.26"/>
<polygon fill="black" stroke="black" points="48.3,-713.09 45.04,-703.01 41.31,-712.93 48.3,-713.09"/>
</g>
<!-- Node14 -->
<g id="node14" class="node">
<title>Node14</title>
<g id="a_node14"><a xlink:href="group__ITKFFT.html" target="_top" xlink:title=" ">
<polygon fill="white" stroke="black" points="268,-956 179,-956 179,-937 268,-937 268,-956"/>
<text text-anchor="middle" x="223.5" y="-944" font-family="Helvetica,sans-Serif" font-size="10.00">Module ITKFFT</text>
</a>
</g>
</g>
<!-- Node1&#45;&gt;Node14 -->
<g id="edge13" class="edge">
<title>Node1&#45;&gt;Node14</title>
<path fill="none" stroke="black" d="M45.87,-713.56C47.87,-759.32 59.56,-871.84 125,-928.5 139.71,-941.23 160.43,-946.23 178.99,-947.84"/>
<polygon fill="black" stroke="black" points="49.36,-713.32 45.54,-703.43 42.37,-713.54 49.36,-713.32"/>
</g>
<!-- Node15 -->
<g id="node15" class="node">
<title>Node15</title>
<g id="a_node15"><a xlink:href="group__ITKFastMarching.html" target="_top" xlink:title=" ">
<polygon fill="white" stroke="black" points="291.5,-919 155.5,-919 155.5,-900 291.5,-900 291.5,-919"/>
<text text-anchor="middle" x="223.5" y="-907" font-family="Helvetica,sans-Serif" font-size="10.00">Module ITKFastMarching</text>
</a>
</g>
</g>
<!-- Node1&#45;&gt;Node15 -->
<g id="edge14" class="edge">
<title>Node1&#45;&gt;Node15</title>
<path fill="none" stroke="black" d="M47.36,-713.25C52.24,-753.36 69.21,-844.47 125,-890.5 133.71,-897.69 144.35,-902.44 155.36,-905.54"/>
<polygon fill="black" stroke="black" points="50.82,-712.72 46.26,-703.16 43.86,-713.48 50.82,-712.72"/>
</g>
<!-- Node16 -->
<g id="node16" class="node">
<title>Node16</title>
<g id="a_node16"><a xlink:href="group__ITKGPUAnisotropicSmoothing.html" target="_top" xlink:title=" ">
<polygon fill="white" stroke="black" points="297,-881.5 150,-881.5 150,-851.5 297,-851.5 297,-881.5"/>
<text text-anchor="start" x="158" y="-869.5" font-family="Helvetica,sans-Serif" font-size="10.00">Module ITKGPUAnisotropic</text>
<text text-anchor="middle" x="223.5" y="-858.5" font-family="Helvetica,sans-Serif" font-size="10.00">Smoothing</text>
</a>
</g>
</g>
<!-- Node1&#45;&gt;Node16 -->
<g id="edge15" class="edge">
<title>Node1&#45;&gt;Node16</title>
<path fill="none" stroke="black" d="M50.42,-713.29C59.48,-745.49 81.94,-809.01 125,-842.5 132.29,-848.17 140.75,-852.52 149.56,-855.86"/>
<polygon fill="black" stroke="black" points="53.71,-712.07 47.76,-703.3 46.95,-713.87 53.71,-712.07"/>
</g>
<!-- Node17 -->
<g id="node17" class="node">
<title>Node17</title>
<g id="a_node17"><a xlink:href="group__ITKGPUImageFilterBase.html" target="_top" xlink:title=" ">
<polygon fill="white" stroke="black" points="309.5,-833 137.5,-833 137.5,-814 309.5,-814 309.5,-833"/>
<text text-anchor="middle" x="223.5" y="-821" font-family="Helvetica,sans-Serif" font-size="10.00">Module ITKGPUImageFilterBase</text>
</a>
</g>
</g>
<!-- Node1&#45;&gt;Node17 -->
<g id="edge16" class="edge">
<title>Node1&#45;&gt;Node17</title>
<path fill="none" stroke="black" d="M53.44,-712.57C65.13,-738.12 89.49,-782.84 125,-805.5 130.22,-808.83 135.91,-811.59 141.82,-813.85"/>
<polygon fill="black" stroke="black" points="56.56,-710.97 49.34,-703.22 50.15,-713.78 56.56,-710.97"/>
</g>
<!-- Node18 -->
<g id="node18" class="node">
<title>Node18</title>
<g id="a_node18"><a xlink:href="group__ITKGPUSmoothing.html" target="_top" xlink:title=" ">
<polygon fill="white" stroke="black" points="296,-796 151,-796 151,-777 296,-777 296,-796"/>
<text text-anchor="middle" x="223.5" y="-784" font-family="Helvetica,sans-Serif" font-size="10.00">Module ITKGPUSmoothing</text>
</a>
</g>
</g>
<!-- Node1&#45;&gt;Node18 -->
<g id="edge17" class="edge">
<title>Node1&#45;&gt;Node18</title>
<path fill="none" stroke="black" d="M59.21,-711.41C73.61,-728.87 97.91,-754.76 125,-768.5 133.06,-772.59 141.91,-775.76 150.9,-778.21"/>
<polygon fill="black" stroke="black" points="61.59,-708.78 52.61,-703.15 56.12,-713.15 61.59,-708.78"/>
</g>
<!-- Node19 -->
<g id="node19" class="node">
<title>Node19</title>
<g id="a_node19"><a xlink:href="group__ITKGPUThresholding.html" target="_top" xlink:title=" ">
<polygon fill="white" stroke="black" points="301,-759 146,-759 146,-740 301,-740 301,-759"/>
<text text-anchor="middle" x="223.5" y="-747" font-family="Helvetica,sans-Serif" font-size="10.00">Module ITKGPUThresholding</text>
</a>
</g>
</g>
<!-- Node1&#45;&gt;Node19 -->
<g id="edge18" class="edge">
<title>Node1&#45;&gt;Node19</title>
<path fill="none" stroke="black" d="M71.16,-707.89C86.39,-715.89 106.33,-725.43 125,-731.5 135.31,-734.85 146.46,-737.64 157.39,-739.95"/>
<polygon fill="black" stroke="black" points="72.8,-704.8 62.33,-703.16 69.48,-710.97 72.8,-704.8"/>
</g>
<!-- Node20 -->
<g id="node20" class="node">
<title>Node20</title>
<g id="a_node20"><a xlink:href="group__ITKImageCompare.html" target="_top" xlink:title=" ">
<polygon fill="white" stroke="black" points="296.5,-722 150.5,-722 150.5,-703 296.5,-703 296.5,-722"/>
<text text-anchor="middle" x="223.5" y="-710" font-family="Helvetica,sans-Serif" font-size="10.00">Module ITKImageCompare</text>
</a>
</g>
</g>
<!-- Node1&#45;&gt;Node20 -->
<g id="edge19" class="edge">
<title>Node1&#45;&gt;Node20</title>
<path fill="none" stroke="black" d="M99.5,-699.3C115.52,-701.02 133.34,-702.93 150.32,-704.75"/>
<polygon fill="black" stroke="black" points="99.57,-695.78 89.25,-698.2 98.82,-702.74 99.57,-695.78"/>
</g>
<!-- Node21 -->
<g id="node21" class="node">
<title>Node21</title>
<g id="a_node21"><a xlink:href="group__ITKImageCompose.html" target="_top" xlink:title=" ">
<polygon fill="white" stroke="black" points="297.5,-685 149.5,-685 149.5,-666 297.5,-666 297.5,-685"/>
<text text-anchor="middle" x="223.5" y="-673" font-family="Helvetica,sans-Serif" font-size="10.00">Module ITKImageCompose</text>
</a>
</g>
</g>
<!-- Node1&#45;&gt;Node21 -->
<g id="edge20" class="edge">
<title>Node1&#45;&gt;Node21</title>
<path fill="none" stroke="black" d="M99.32,-688.03C115.07,-686.43 132.55,-684.65 149.29,-682.95"/>
<polygon fill="black" stroke="black" points="98.85,-684.56 89.25,-689.05 99.56,-691.52 98.85,-684.56"/>
</g>
<!-- Node22 -->
<g id="node22" class="node">
<title>Node22</title>
<g id="a_node22"><a xlink:href="group__ITKImageFeature.html" target="_top" xlink:title=" ">
<polygon fill="white" stroke="black" points="293,-648 154,-648 154,-629 293,-629 293,-648"/>
<text text-anchor="middle" x="223.5" y="-636" font-family="Helvetica,sans-Serif" font-size="10.00">Module ITKImageFeature</text>
</a>
</g>
</g>
<!-- Node1&#45;&gt;Node22 -->
<g id="edge21" class="edge">
<title>Node1&#45;&gt;Node22</title>
<path fill="none" stroke="black" d="M72.59,-679.33C87.68,-671.93 107,-663.24 125,-657.5 136.75,-653.75 149.54,-650.62 161.87,-648.04"/>
<polygon fill="black" stroke="black" points="70.71,-676.36 63.34,-683.97 73.85,-682.62 70.71,-676.36"/>
</g>
<!-- Node23 -->
<g id="node23" class="node">
<title>Node23</title>
<g id="a_node23"><a xlink:href="group__ITKImageFilterBase.html" target="_top" xlink:title=" ">
<polygon fill="white" stroke="black" points="299,-611 148,-611 148,-592 299,-592 299,-611"/>
<text text-anchor="middle" x="223.5" y="-599" font-family="Helvetica,sans-Serif" font-size="10.00">Module ITKImageFilterBase</text>
</a>
</g>
</g>
<!-- Node1&#45;&gt;Node23 -->
<g id="edge22" class="edge">
<title>Node1&#45;&gt;Node23</title>
<path fill="none" stroke="black" d="M59.57,-675.86C74.1,-658.91 98.36,-633.95 125,-620.5 132.7,-616.61 141.11,-613.52 149.66,-611.06"/>
<polygon fill="black" stroke="black" points="56.6,-673.96 52.9,-683.89 61.98,-678.44 56.6,-673.96"/>
</g>
<!-- Node24 -->
<g id="node24" class="node">
<title>Node24</title>
<g id="a_node24"><a xlink:href="group__ITKImageFrequency.html" target="_top" xlink:title=" ">
<polygon fill="white" stroke="black" points="299.5,-574 147.5,-574 147.5,-555 299.5,-555 299.5,-574"/>
<text text-anchor="middle" x="223.5" y="-562" font-family="Helvetica,sans-Serif" font-size="10.00">Module ITKImageFrequency</text>
</a>
</g>
</g>
<!-- Node1&#45;&gt;Node24 -->
<g id="edge23" class="edge">
<title>Node1&#45;&gt;Node24</title>
<path fill="none" stroke="black" d="M53.57,-674.81C65.4,-649.78 89.93,-605.92 125,-583.5 131.83,-579.13 139.44,-575.73 147.31,-573.09"/>
<polygon fill="black" stroke="black" points="50.35,-673.43 49.41,-683.98 56.73,-676.32 50.35,-673.43"/>
</g>
<!-- Node25 -->
<g id="node25" class="node">
<title>Node25</title>
<g id="a_node25"><a xlink:href="group__ITKImageFusion.html" target="_top" xlink:title=" ">
<polygon fill="white" stroke="black" points="290.5,-537 156.5,-537 156.5,-518 290.5,-518 290.5,-537"/>
<text text-anchor="middle" x="223.5" y="-525" font-family="Helvetica,sans-Serif" font-size="10.00">Module ITKImageFusion</text>
</a>
</g>
</g>
<!-- Node1&#45;&gt;Node25 -->
<g id="edge24" class="edge">
<title>Node1&#45;&gt;Node25</title>
<path fill="none" stroke="black" d="M50.32,-673.74C59.24,-641.62 81.5,-578.47 125,-546.5 134.17,-539.76 145.09,-535.23 156.26,-532.22"/>
<polygon fill="black" stroke="black" points="46.86,-673.14 47.71,-683.7 53.63,-674.92 46.86,-673.14"/>
</g>
<!-- Node26 -->
<g id="node26" class="node">
<title>Node26</title>
<g id="a_node26"><a xlink:href="group__ITKImageGradient.html" target="_top" xlink:title=" ">
<polygon fill="white" stroke="black" points="295.5,-500 151.5,-500 151.5,-481 295.5,-481 295.5,-500"/>
<text text-anchor="middle" x="223.5" y="-488" font-family="Helvetica,sans-Serif" font-size="10.00">Module ITKImageGradient</text>
</a>
</g>
</g>
<!-- Node1&#45;&gt;Node26 -->
<g id="edge25" class="edge">
<title>Node1&#45;&gt;Node26</title>
<path fill="none" stroke="black" d="M48.07,-673.22C54.06,-634.83 72.67,-551.62 125,-509.5 132.66,-503.34 141.74,-498.98 151.23,-495.92"/>
<polygon fill="black" stroke="black" points="44.53,-673.21 46.59,-683.6 51.46,-674.2 44.53,-673.21"/>
</g>
<!-- Node27 -->
<g id="node27" class="node">
<title>Node27</title>
<g id="a_node27"><a xlink:href="group__ITKImageGrid.html" target="_top" xlink:title=" ">
<polygon fill="white" stroke="black" points="284.5,-463 162.5,-463 162.5,-444 284.5,-444 284.5,-463"/>
<text text-anchor="middle" x="223.5" y="-451" font-family="Helvetica,sans-Serif" font-size="10.00">Module ITKImageGrid</text>
</a>
</g>
</g>
<!-- Node1&#45;&gt;Node27 -->
<g id="edge26" class="edge">
<title>Node1&#45;&gt;Node27</title>
<path fill="none" stroke="black" d="M46.4,-673.5C49.51,-629.78 63.35,-525.38 125,-472.5 135.47,-463.52 148.92,-458.29 162.46,-455.36"/>
<polygon fill="black" stroke="black" points="42.89,-673.5 45.8,-683.69 49.88,-673.91 42.89,-673.5"/>
</g>
<!-- Node28 -->
<g id="node28" class="node">
<title>Node28</title>
<g id="a_node28"><a xlink:href="group__ITKImageIntensity.html" target="_top" xlink:title=" ">
<polygon fill="white" stroke="black" points="296,-426 151,-426 151,-407 296,-407 296,-426"/>
<text text-anchor="middle" x="223.5" y="-414" font-family="Helvetica,sans-Serif" font-size="10.00">Module ITKImageIntensity</text>
</a>
</g>
</g>
<!-- Node1&#45;&gt;Node28 -->
<g id="edge27" class="edge">
<title>Node1&#45;&gt;Node28</title>
<path fill="none" stroke="black" d="M45.21,-673.9C45.62,-625.47 53.84,-499.46 125,-435.5 132.31,-428.93 141.2,-424.34 150.6,-421.18"/>
<polygon fill="black" stroke="black" points="41.71,-673.99 45.23,-683.98 48.71,-673.97 41.71,-673.99"/>
</g>
<!-- Node29 -->
<g id="node29" class="node">
<title>Node29</title>
<g id="a_node29"><a xlink:href="group__ITKImageLabel.html" target="_top" xlink:title=" ">
<polygon fill="white" stroke="black" points="287.5,-389 159.5,-389 159.5,-370 287.5,-370 287.5,-389"/>
<text text-anchor="middle" x="223.5" y="-377" font-family="Helvetica,sans-Serif" font-size="10.00">Module ITKImageLabel</text>
</a>
</g>
</g>
<!-- Node1&#45;&gt;Node29 -->
<g id="edge28" class="edge">
<title>Node1&#45;&gt;Node29</title>
<path fill="none" stroke="black" d="M48.06,-674.02C56.26,-614.51 83.8,-436.88 125,-398.5 134.46,-389.68 146.75,-384.4 159.39,-381.34"/>
<polygon fill="black" stroke="black" points="44.58,-673.6 46.71,-683.98 51.52,-674.54 44.58,-673.6"/>
</g>
<!-- Node30 -->
<g id="node30" class="node">
<title>Node30</title>
<g id="a_node30"><a xlink:href="group__ITKImageNoise.html" target="_top" xlink:title=" ">
<polygon fill="white" stroke="black" points="288.5,-352 158.5,-352 158.5,-333 288.5,-333 288.5,-352"/>
<text text-anchor="middle" x="223.5" y="-340" font-family="Helvetica,sans-Serif" font-size="10.00">Module ITKImageNoise</text>
</a>
</g>
</g>
<!-- Node1&#45;&gt;Node30 -->
<g id="edge29" class="edge">
<title>Node1&#45;&gt;Node30</title>
<path fill="none" stroke="black" d="M47.46,-673.73C54.28,-609.06 79.08,-405.5 125,-361.5 134.15,-352.73 146.09,-347.43 158.45,-344.33"/>
<polygon fill="black" stroke="black" points="43.97,-673.5 46.43,-683.81 50.93,-674.22 43.97,-673.5"/>
</g>
<!-- Node31 -->
<g id="node31" class="node">
<title>Node31</title>
<g id="a_node31"><a xlink:href="group__ITKImageSources.html" target="_top" xlink:title=" ">
<polygon fill="white" stroke="black" points="293.5,-315 153.5,-315 153.5,-296 293.5,-296 293.5,-315"/>
<text text-anchor="middle" x="223.5" y="-303" font-family="Helvetica,sans-Serif" font-size="10.00">Module ITKImageSources</text>
</a>
</g>
</g>
<!-- Node1&#45;&gt;Node31 -->
<g id="edge30" class="edge">
<title>Node1&#45;&gt;Node31</title>
<path fill="none" stroke="black" d="M46.94,-673.81C52.42,-604.64 74.25,-374.26 125,-324.5 132.76,-316.89 142.6,-311.88 153.04,-308.64"/>
<polygon fill="black" stroke="black" points="43.45,-673.57 46.18,-683.8 50.43,-674.1 43.45,-673.57"/>
</g>
<!-- Node32 -->
<g id="node32" class="node">
<title>Node32</title>
<g id="a_node32"><a xlink:href="group__ITKImageStatistics.html" target="_top" xlink:title=" ">
<polygon fill="white" stroke="black" points="297,-278 150,-278 150,-259 297,-259 297,-278"/>
<text text-anchor="middle" x="223.5" y="-266" font-family="Helvetica,sans-Serif" font-size="10.00">Module ITKImageStatistics</text>
</a>
</g>
</g>
<!-- Node1&#45;&gt;Node32 -->
<g id="edge31" class="edge">
<title>Node1&#45;&gt;Node32</title>
<path fill="none" stroke="black" d="M46.53,-673.79C50.77,-600.21 69.41,-343.04 125,-287.5 131.95,-280.55 140.64,-275.76 149.95,-272.5"/>
<polygon fill="black" stroke="black" points="43.02,-673.78 45.97,-683.96 50.01,-674.17 43.02,-673.78"/>
</g>
<!-- Node33 -->
<g id="node33" class="node">
<title>Node33</title>
<g id="a_node33"><a xlink:href="group__ITKLabelMap.html" target="_top" xlink:title=" ">
<polygon fill="white" stroke="black" points="283,-241 164,-241 164,-222 283,-222 283,-241"/>
<text text-anchor="middle" x="223.5" y="-229" font-family="Helvetica,sans-Serif" font-size="10.00">Module ITKLabelMap</text>
</a>
</g>
</g>
<!-- Node1&#45;&gt;Node33 -->
<g id="edge32" class="edge">
<title>Node1&#45;&gt;Node33</title>
<path fill="none" stroke="black" d="M46.19,-673.52C49.29,-595.39 64.62,-311.78 125,-250.5 135.29,-240.06 149.49,-234.46 163.88,-231.63"/>
<polygon fill="black" stroke="black" points="42.68,-673.75 45.8,-683.87 49.67,-674.01 42.68,-673.75"/>
</g>
<!-- Node34 -->
<g id="node34" class="node">
<title>Node34</title>
<g id="a_node34"><a xlink:href="group__ITKMathematicalMorphology.html" target="_top" xlink:title=" ">
<polygon fill="white" stroke="black" points="322,-204 125,-204 125,-185 322,-185 322,-204"/>
<text text-anchor="middle" x="223.5" y="-192" font-family="Helvetica,sans-Serif" font-size="10.00">Module ITKMathematicalMorphology</text>
</a>
</g>
</g>
<!-- Node1&#45;&gt;Node34 -->
<g id="edge33" class="edge">
<title>Node1&#45;&gt;Node34</title>
<path fill="none" stroke="black" d="M45.89,-673.46C47.9,-591.21 59.76,-280.61 125,-213.5 128.61,-209.79 132.71,-206.69 137.13,-204.1"/>
<polygon fill="black" stroke="black" points="42.38,-673.81 45.66,-683.89 49.38,-673.97 42.38,-673.81"/>
</g>
<!-- Node35 -->
<g id="node35" class="node">
<title>Node35</title>
<g id="a_node35"><a xlink:href="group__ITKPath.html" target="_top" xlink:title=" ">
<polygon fill="white" stroke="black" points="269.5,-167 177.5,-167 177.5,-148 269.5,-148 269.5,-167"/>
<text text-anchor="middle" x="223.5" y="-155" font-family="Helvetica,sans-Serif" font-size="10.00">Module ITKPath</text>
</a>
</g>
</g>
<!-- Node1&#45;&gt;Node35 -->
<g id="edge34" class="edge">
<title>Node1&#45;&gt;Node35</title>
<path fill="none" stroke="black" d="M45.62,-673.86C46.57,-588.35 54.77,-249.59 125,-176.5 138.38,-162.57 158.72,-157.2 177.36,-155.55"/>
<polygon fill="black" stroke="black" points="42.12,-673.96 45.53,-683.99 49.12,-674.02 42.12,-673.96"/>
</g>
<!-- Node36 -->
<g id="node36" class="node">
<title>Node36</title>
<g id="a_node36"><a xlink:href="group__ITKQuadEdgeMeshFiltering.html" target="_top" xlink:title=" ">
<polygon fill="white" stroke="black" points="317,-130 130,-130 130,-111 317,-111 317,-130"/>
<text text-anchor="middle" x="223.5" y="-118" font-family="Helvetica,sans-Serif" font-size="10.00">Module ITKQuadEdgeMeshFiltering</text>
</a>
</g>
</g>
<!-- Node1&#45;&gt;Node36 -->
<g id="edge35" class="edge">
<title>Node1&#45;&gt;Node36</title>
<path fill="none" stroke="black" d="M45.4,-673.6C45.37,-583.94 49.94,-218.41 125,-139.5 128.57,-135.75 132.63,-132.62 137.04,-130.01"/>
<polygon fill="black" stroke="black" points="41.9,-673.76 45.42,-683.75 48.9,-673.75 41.9,-673.76"/>
</g>
<!-- Node37 -->
<g id="node37" class="node">
<title>Node37</title>
<g id="a_node37"><a xlink:href="group__ITKSmoothing.html" target="_top" xlink:title=" ">
<polygon fill="white" stroke="black" points="285.5,-93 161.5,-93 161.5,-74 285.5,-74 285.5,-93"/>
<text text-anchor="middle" x="223.5" y="-81" font-family="Helvetica,sans-Serif" font-size="10.00">Module ITKSmoothing</text>
</a>
</g>
</g>
<!-- Node1&#45;&gt;Node37 -->
<g id="edge36" class="edge">
<title>Node1&#45;&gt;Node37</title>
<path fill="none" stroke="black" d="M45.2,-673.47C44.24,-579.94 45.06,-187.28 125,-102.5 134.52,-92.4 147.7,-86.77 161.29,-83.8"/>
<polygon fill="black" stroke="black" points="41.7,-673.61 45.33,-683.56 48.7,-673.52 41.7,-673.61"/>
</g>
<!-- Node38 -->
<g id="node38" class="node">
<title>Node38</title>
<g id="a_node38"><a xlink:href="group__ITKSpatialFunction.html" target="_top" xlink:title=" ">
<polygon fill="white" stroke="black" points="296.5,-56 150.5,-56 150.5,-37 296.5,-37 296.5,-56"/>
<text text-anchor="middle" x="223.5" y="-44" font-family="Helvetica,sans-Serif" font-size="10.00">Module ITKSpatialFunction</text>
</a>
</g>
</g>
<!-- Node1&#45;&gt;Node38 -->
<g id="edge37" class="edge">
<title>Node1&#45;&gt;Node38</title>
<path fill="none" stroke="black" d="M46.63,-673.88C52.65,-572.52 82.26,-111.19 125,-65.5 131.95,-58.07 140.88,-53.06 150.5,-49.74"/>
<polygon fill="black" stroke="black" points="43.13,-673.76 46.04,-683.95 50.12,-674.17 43.13,-673.76"/>
</g>
<!-- Node39 -->
<g id="node39" class="node">
<title>Node39</title>
<g id="a_node39"><a xlink:href="group__ITKThresholding.html" target="_top" xlink:title=" ">
<polygon fill="white" stroke="black" points="290.5,-19 156.5,-19 156.5,0 290.5,0 290.5,-19"/>
<text text-anchor="middle" x="223.5" y="-7" font-family="Helvetica,sans-Serif" font-size="10.00">Module ITKThresholding</text>
</a>
</g>
</g>
<!-- Node1&#45;&gt;Node39 -->
<g id="edge38" class="edge">
<title>Node1&#45;&gt;Node39</title>
<path fill="none" stroke="black" d="M46.49,-673.72C51.97,-568.48 79.8,-77.15 125,-28.5 133.33,-19.53 144.55,-14.07 156.4,-10.87"/>
<polygon fill="black" stroke="black" points="42.99,-673.72 45.97,-683.89 49.98,-674.08 42.99,-673.72"/>
</g>
</g>
</svg>
