<?xml version="1.0" encoding="UTF-8" standalone="no"?>
<!DOCTYPE svg PUBLIC "-//W3C//DTD SVG 1.1//EN"
 "http://www.w3.org/Graphics/SVG/1.1/DTD/svg11.dtd">
<!-- Generated by graphviz version 2.43.0 (0)
 -->
<!-- Title: Region&#45;wise Processing Objects Pages: 1 -->
<svg width="296pt" height="124pt"
 viewBox="0.00 0.00 296.00 123.50" xmlns="http://www.w3.org/2000/svg" xmlns:xlink="http://www.w3.org/1999/xlink">
<g id="graph0" class="graph" transform="scale(1 1) rotate(0) translate(4 119.5)">
<title>Region&#45;wise Processing Objects</title>
<polygon fill="white" stroke="transparent" points="-4,4 -4,-119.5 292,-119.5 292,4 -4,4"/>
<!-- Node3 -->
<g id="node1" class="node">
<title>Node3</title>
<g id="a_node1"><a xlink:href="group__CannotBeStreamed.html" target="_top" xlink:title=" ">
<polygon fill="white" stroke="black" points="288,-115.5 168,-115.5 168,-85.5 288,-85.5 288,-115.5"/>
<text text-anchor="start" x="176" y="-103.5" font-family="Helvetica,sans-Serif" font-size="10.00">Streaming&#45;unfriendly</text>
<text text-anchor="middle" x="228" y="-92.5" font-family="Helvetica,sans-Serif" font-size="10.00"> Filters</text>
</a>
</g>
</g>
<!-- Node4 -->
<g id="node2" class="node">
<title>Node4</title>
<g id="a_node2"><a xlink:href="group__ShouldBeStreamed.html" target="_top" xlink:title=" ">
<polygon fill="white" stroke="black" points="282,-67.5 174,-67.5 174,-37.5 282,-37.5 282,-67.5"/>
<text text-anchor="start" x="182" y="-55.5" font-family="Helvetica,sans-Serif" font-size="10.00">Streaming&#45;friendly</text>
<text text-anchor="middle" x="228" y="-44.5" font-family="Helvetica,sans-Serif" font-size="10.00"> Filters</text>
</a>
</g>
</g>
<!-- Node2 -->
<g id="node3" class="node">
<title>Node2</title>
<g id="a_node3"><a xlink:href="group__Streamed.html" target="_top" xlink:title=" ">
<polygon fill="white" stroke="black" points="278,-19 178,-19 178,0 278,0 278,-19"/>
<text text-anchor="middle" x="228" y="-7" font-family="Helvetica,sans-Serif" font-size="10.00">Streaming Filters</text>
</a>
</g>
</g>
<!-- Node1 -->
<g id="node4" class="node">
<title>Node1</title>
<g id="a_node4"><a xlink:title=" ">
<polygon fill="#bfbfbf" stroke="black" points="132,-67.5 0,-67.5 0,-37.5 132,-37.5 132,-67.5"/>
<text text-anchor="start" x="8" y="-55.5" font-family="Helvetica,sans-Serif" font-size="10.00">Region&#45;wise Processing</text>
<text text-anchor="middle" x="66" y="-44.5" font-family="Helvetica,sans-Serif" font-size="10.00"> Objects</text>
</a>
</g>
</g>
<!-- Node1&#45;&gt;Node3 -->
<g id="edge2" class="edge">
<title>Node1&#45;&gt;Node3</title>
<path fill="none" stroke="black" d="M127.22,-70.57C143.63,-75.49 161.22,-80.77 176.99,-85.5"/>
<polygon fill="black" stroke="black" points="127.77,-67.08 117.19,-67.56 125.76,-73.78 127.77,-67.08"/>
</g>
<!-- Node1&#45;&gt;Node4 -->
<g id="edge3" class="edge">
<title>Node1&#45;&gt;Node4</title>
<path fill="none" stroke="black" d="M142.22,-52.5C152.86,-52.5 163.61,-52.5 173.72,-52.5"/>
<polygon fill="black" stroke="black" points="142.08,-49 132.08,-52.5 142.08,-56 142.08,-49"/>
</g>
<!-- Node1&#45;&gt;Node2 -->
<g id="edge1" class="edge">
<title>Node1&#45;&gt;Node2</title>
<path fill="none" stroke="black" d="M132.69,-34.85C152.75,-29.45 174.05,-23.73 191.33,-19.09"/>
<polygon fill="black" stroke="black" points="131.71,-31.49 122.96,-37.46 133.53,-38.25 131.71,-31.49"/>
</g>
</g>
</svg>
