<?xml version="1.0" encoding="UTF-8" standalone="no"?>
<!DOCTYPE svg PUBLIC "-//W3C//DTD SVG 1.1//EN"
 "http://www.w3.org/Graphics/SVG/1.1/DTD/svg11.dtd">
<!-- Generated by graphviz version 2.43.0 (0)
 -->
<!-- Title: Path Representation Objects Pages: 1 -->
<svg width="541pt" height="167pt"
 viewBox="0.00 0.00 541.00 166.50" xmlns="http://www.w3.org/2000/svg" xmlns:xlink="http://www.w3.org/1999/xlink">
<g id="graph0" class="graph" transform="scale(1 1) rotate(0) translate(4 162.5)">
<title>Path Representation Objects</title>
<polygon fill="white" stroke="transparent" points="-4,4 -4,-162.5 537,-162.5 537,4 -4,4"/>
<!-- Node2 -->
<g id="node1" class="node">
<title>Node2</title>
<g id="a_node1"><a xlink:href="group__DataRepresentation.html" target="_top" xlink:title=" ">
<polygon fill="white" stroke="black" points="117,-46.5 0,-46.5 0,-16.5 117,-16.5 117,-46.5"/>
<text text-anchor="start" x="8" y="-34.5" font-family="Helvetica,sans-Serif" font-size="10.00">Data Representation</text>
<text text-anchor="middle" x="58.5" y="-23.5" font-family="Helvetica,sans-Serif" font-size="10.00"> Objects</text>
</a>
</g>
</g>
<!-- Node1 -->
<g id="node4" class="node">
<title>Node1</title>
<g id="a_node4"><a xlink:title=" ">
<polygon fill="#bfbfbf" stroke="black" points="269,-46.5 154,-46.5 154,-16.5 269,-16.5 269,-46.5"/>
<text text-anchor="start" x="162" y="-34.5" font-family="Helvetica,sans-Serif" font-size="10.00">Path Representation</text>
<text text-anchor="middle" x="211.5" y="-23.5" font-family="Helvetica,sans-Serif" font-size="10.00"> Objects</text>
</a>
</g>
</g>
<!-- Node2&#45;&gt;Node1 -->
<g id="edge1" class="edge">
<title>Node2&#45;&gt;Node1</title>
<path fill="none" stroke="black" d="M127.27,-31.5C136.08,-31.5 145.03,-31.5 153.64,-31.5"/>
<polygon fill="black" stroke="black" points="127.02,-28 117.02,-31.5 127.02,-35 127.02,-28"/>
</g>
<!-- Node3 -->
<g id="node2" class="node">
<title>Node3</title>
<g id="a_node2"><a xlink:href="group__ITKPath.html" target="_top" xlink:title=" ">
<polygon fill="white" stroke="black" points="533,-64 441,-64 441,-45 533,-45 533,-64"/>
<text text-anchor="middle" x="487" y="-52" font-family="Helvetica,sans-Serif" font-size="10.00">Module ITKPath</text>
</a>
</g>
</g>
<!-- Node4 -->
<g id="node3" class="node">
<title>Node4</title>
<g id="a_node3"><a xlink:href="group__ImageIterators.html" target="_top" xlink:title=" ">
<polygon fill="white" stroke="black" points="533,-19 441,-19 441,0 533,0 533,-19"/>
<text text-anchor="middle" x="487" y="-7" font-family="Helvetica,sans-Serif" font-size="10.00">Image Iterators</text>
</a>
</g>
</g>
<!-- Node1&#45;&gt;Node3 -->
<g id="edge2" class="edge">
<title>Node1&#45;&gt;Node3</title>
<path fill="none" stroke="orange" stroke-dasharray="5,2" d="M269.17,-36.27C320.02,-40.54 393.68,-46.74 440.71,-50.69"/>
<text text-anchor="middle" x="355" y="-150.5" font-family="Helvetica,sans-Serif" font-size="10.00">itk::ChainCodePath</text>
<text text-anchor="middle" x="355" y="-139.5" font-family="Helvetica,sans-Serif" font-size="10.00">itk::ChainCodePath2D</text>
<text text-anchor="middle" x="355" y="-128.5" font-family="Helvetica,sans-Serif" font-size="10.00">itk::FourierSeriesPath</text>
<text text-anchor="start" x="287" y="-117.5" font-family="Helvetica,sans-Serif" font-size="10.00">itk::OrthogonallyCorrected2</text>
<text text-anchor="middle" x="355" y="-106.5" font-family="Helvetica,sans-Serif" font-size="10.00">DParametricPath</text>
<text text-anchor="middle" x="355" y="-95.5" font-family="Helvetica,sans-Serif" font-size="10.00">itk::ParametricPath</text>
<text text-anchor="middle" x="355" y="-84.5" font-family="Helvetica,sans-Serif" font-size="10.00">itk::Path</text>
<text text-anchor="middle" x="355" y="-73.5" font-family="Helvetica,sans-Serif" font-size="10.00">itk::PathConstIterator</text>
<text text-anchor="middle" x="355" y="-62.5" font-family="Helvetica,sans-Serif" font-size="10.00">itk::PathIterator</text>
<text text-anchor="middle" x="355" y="-51.5" font-family="Helvetica,sans-Serif" font-size="10.00">itk::PolyLineParametricPath</text>
</g>
<!-- Node1&#45;&gt;Node4 -->
<g id="edge3" class="edge">
<title>Node1&#45;&gt;Node4</title>
<path fill="none" stroke="orange" stroke-dasharray="5,2" d="M258.58,-16.43C267.89,-13.98 277.69,-11.81 287,-10.5 339.34,-3.13 400.2,-4.21 440.7,-6.28"/>
<text text-anchor="middle" x="355" y="-24.5" font-family="Helvetica,sans-Serif" font-size="10.00">itk::PathConstIterator</text>
<text text-anchor="middle" x="355" y="-13.5" font-family="Helvetica,sans-Serif" font-size="10.00">itk::PathIterator</text>
</g>
</g>
</svg>
