<?xml version="1.0" encoding="UTF-8" standalone="no"?>
<!DOCTYPE svg PUBLIC "-//W3C//DTD SVG 1.1//EN"
 "http://www.w3.org/Graphics/SVG/1.1/DTD/svg11.dtd">
<!-- Generated by graphviz version 2.43.0 (0)
 -->
<!-- Title: Module ITKTestKernel Pages: 1 -->
<svg width="541pt" height="173pt"
 viewBox="0.00 0.00 541.00 173.00" xmlns="http://www.w3.org/2000/svg" xmlns:xlink="http://www.w3.org/1999/xlink">
<g id="graph0" class="graph" transform="scale(1 1) rotate(0) translate(4 169)">
<title>Module ITKTestKernel</title>
<polygon fill="white" stroke="transparent" points="-4,4 -4,-169 537,-169 537,4 -4,4"/>
<!-- Node6 -->
<g id="node1" class="node">
<title>Node6</title>
<g id="a_node1"><a xlink:href="group__DataSources.html" target="_top" xlink:title=" ">
<polygon fill="white" stroke="black" points="501.5,-165 420.5,-165 420.5,-146 501.5,-146 501.5,-165"/>
<text text-anchor="middle" x="461" y="-153" font-family="Helvetica,sans-Serif" font-size="10.00">Data Sources</text>
</a>
</g>
</g>
<!-- Node5 -->
<g id="node2" class="node">
<title>Node5</title>
<g id="a_node2"><a xlink:href="group__GeometricTransform.html" target="_top" xlink:title=" ">
<polygon fill="white" stroke="black" points="533,-125.5 389,-125.5 389,-95.5 533,-95.5 533,-125.5"/>
<text text-anchor="start" x="397" y="-113.5" font-family="Helvetica,sans-Serif" font-size="10.00">Geometric Transformation</text>
<text text-anchor="middle" x="461" y="-102.5" font-family="Helvetica,sans-Serif" font-size="10.00"> Filters</text>
</a>
</g>
</g>
<!-- Node2 -->
<g id="node3" class="node">
<title>Node2</title>
<g id="a_node3"><a xlink:href="group__Group-Core.html" target="_top" xlink:title=" ">
<polygon fill="white" stroke="black" points="71,-97 0,-97 0,-78 71,-78 71,-97"/>
<text text-anchor="middle" x="35.5" y="-85" font-family="Helvetica,sans-Serif" font-size="10.00">Group Core</text>
</a>
</g>
</g>
<!-- Node1 -->
<g id="node4" class="node">
<title>Node1</title>
<g id="a_node4"><a xlink:title=" ">
<polygon fill="#bfbfbf" stroke="black" points="229,-97 108,-97 108,-78 229,-78 229,-97"/>
<text text-anchor="middle" x="168.5" y="-85" font-family="Helvetica,sans-Serif" font-size="10.00">Module ITKTestKernel</text>
</a>
</g>
</g>
<!-- Node2&#45;&gt;Node1 -->
<g id="edge1" class="edge">
<title>Node2&#45;&gt;Node1</title>
<path fill="none" stroke="black" d="M81.34,-87.5C89.84,-87.5 98.87,-87.5 107.75,-87.5"/>
<polygon fill="black" stroke="black" points="81.26,-84 71.26,-87.5 81.26,-91 81.26,-84"/>
</g>
<!-- Node1&#45;&gt;Node6 -->
<g id="edge5" class="edge">
<title>Node1&#45;&gt;Node6</title>
<path fill="none" stroke="orange" stroke-dasharray="5,2" d="M183.34,-97.1C198.32,-106.96 223.24,-121.91 247,-129.5 305.38,-148.14 376.68,-153.56 420.19,-155.05"/>
<text text-anchor="middle" x="309" y="-154.5" font-family="Helvetica,sans-Serif" font-size="10.00">itk::RandomImageSource</text>
</g>
<!-- Node1&#45;&gt;Node5 -->
<g id="edge4" class="edge">
<title>Node1&#45;&gt;Node5</title>
<path fill="none" stroke="orange" stroke-dasharray="5,2" d="M229.34,-92.24C275.68,-95.91 340.01,-101 388.96,-104.88"/>
<text text-anchor="start" x="250" y="-117.5" font-family="Helvetica,sans-Serif" font-size="10.00">itk::Testing::ExtractSlice</text>
<text text-anchor="middle" x="309" y="-106.5" font-family="Helvetica,sans-Serif" font-size="10.00">ImageFilter</text>
</g>
<!-- Node3 -->
<g id="node5" class="node">
<title>Node3</title>
<g id="a_node5"><a xlink:href="group__IntensityImageFilters.html" target="_top" xlink:title=" ">
<polygon fill="white" stroke="black" points="524,-75 398,-75 398,-56 524,-56 524,-75"/>
<text text-anchor="middle" x="461" y="-63" font-family="Helvetica,sans-Serif" font-size="10.00">Intensity Image Filters</text>
</a>
</g>
</g>
<!-- Node1&#45;&gt;Node3 -->
<g id="edge2" class="edge">
<title>Node1&#45;&gt;Node3</title>
<path fill="none" stroke="orange" stroke-dasharray="5,2" d="M197.84,-77.92C212.36,-73.5 230.42,-68.75 247,-66.5 297.39,-59.67 355.09,-59.89 397.72,-61.56"/>
<text text-anchor="start" x="250" y="-80.5" font-family="Helvetica,sans-Serif" font-size="10.00">itk::Testing::Comparison</text>
<text text-anchor="middle" x="309" y="-69.5" font-family="Helvetica,sans-Serif" font-size="10.00">ImageFilter</text>
</g>
<!-- Node4 -->
<g id="node6" class="node">
<title>Node4</title>
<g id="a_node6"><a xlink:href="group__MultiThreaded.html" target="_top" xlink:title=" ">
<polygon fill="white" stroke="black" points="521,-19 401,-19 401,0 521,0 521,-19"/>
<text text-anchor="middle" x="461" y="-7" font-family="Helvetica,sans-Serif" font-size="10.00">MultiThreaded Filters</text>
</a>
</g>
</g>
<!-- Node1&#45;&gt;Node4 -->
<g id="edge3" class="edge">
<title>Node1&#45;&gt;Node4</title>
<path fill="none" stroke="orange" stroke-dasharray="5,2" d="M177.83,-77.66C190.86,-63.05 217.65,-36.1 247,-24.5 296.3,-5.01 356.98,-2.62 400.95,-4.3"/>
<text text-anchor="start" x="247" y="-49.5" font-family="Helvetica,sans-Serif" font-size="10.00">itk::Testing::Comparison</text>
<text text-anchor="middle" x="309" y="-38.5" font-family="Helvetica,sans-Serif" font-size="10.00">ImageFilter</text>
<text text-anchor="middle" x="309" y="-27.5" font-family="Helvetica,sans-Serif" font-size="10.00">itk::RandomImageSource</text>
</g>
</g>
</svg>
