<?xml version="1.0" encoding="UTF-8" standalone="no"?>
<!DOCTYPE svg PUBLIC "-//W3C//DTD SVG 1.1//EN"
 "http://www.w3.org/Graphics/SVG/1.1/DTD/svg11.dtd">
<!-- Generated by graphviz version 2.43.0 (0)
 -->
<!-- Title: Module ITKImageFeature Pages: 1 -->
<svg width="608pt" height="654pt"
 viewBox="0.00 0.00 608.00 653.63" xmlns="http://www.w3.org/2000/svg" xmlns:xlink="http://www.w3.org/1999/xlink">
<g id="graph0" class="graph" transform="scale(1 1) rotate(0) translate(4 649.63)">
<title>Module ITKImageFeature</title>
<polygon fill="white" stroke="transparent" points="-4,4 -4,-649.63 604,-649.63 604,4 -4,4"/>
<!-- Node8 -->
<g id="node1" class="node">
<title>Node8</title>
<g id="a_node1"><a xlink:href="group__GradientFilters.html" target="_top" xlink:title=" ">
<polygon fill="white" stroke="black" points="592.5,-595.13 467.5,-595.13 467.5,-576.13 592.5,-576.13 592.5,-595.13"/>
<text text-anchor="middle" x="530" y="-583.13" font-family="Helvetica,sans-Serif" font-size="10.00">Image Gradient Filters</text>
</a>
</g>
</g>
<!-- Node2 -->
<g id="node2" class="node">
<title>Node2</title>
<g id="a_node2"><a xlink:href="group__Group-Filtering.html" target="_top" xlink:title=" ">
<polygon fill="white" stroke="black" points="89,-245.13 0,-245.13 0,-226.13 89,-226.13 89,-245.13"/>
<text text-anchor="middle" x="44.5" y="-233.13" font-family="Helvetica,sans-Serif" font-size="10.00">Group Filtering</text>
</a>
</g>
</g>
<!-- Node1 -->
<g id="node3" class="node">
<title>Node1</title>
<g id="a_node3"><a xlink:title=" ">
<polygon fill="#bfbfbf" stroke="black" points="265,-245.13 126,-245.13 126,-226.13 265,-226.13 265,-245.13"/>
<text text-anchor="middle" x="195.5" y="-233.13" font-family="Helvetica,sans-Serif" font-size="10.00">Module ITKImageFeature</text>
</a>
</g>
</g>
<!-- Node2&#45;&gt;Node1 -->
<g id="edge1" class="edge">
<title>Node2&#45;&gt;Node1</title>
<path fill="none" stroke="black" d="M99.56,-235.63C108.07,-235.63 116.97,-235.63 125.76,-235.63"/>
<polygon fill="black" stroke="black" points="99.4,-232.13 89.4,-235.63 99.4,-239.13 99.4,-232.13"/>
</g>
<!-- Node1&#45;&gt;Node8 -->
<g id="edge7" class="edge">
<title>Node1&#45;&gt;Node8</title>
<path fill="none" stroke="orange" stroke-dasharray="5,2" d="M197.57,-245.31C203.29,-294.97 231.81,-520.42 283,-563.63 339.85,-611.61 432.63,-604.66 486.53,-595.2"/>
<text text-anchor="start" x="283" y="-637.63" font-family="Helvetica,sans-Serif" font-size="10.00">itk::HessianRecursiveGaussian</text>
<text text-anchor="middle" x="362.5" y="-626.63" font-family="Helvetica,sans-Serif" font-size="10.00">ImageFilter</text>
<text text-anchor="start" x="283" y="-615.63" font-family="Helvetica,sans-Serif" font-size="10.00">itk::LaplacianRecursiveGaussian</text>
<text text-anchor="middle" x="362.5" y="-604.63" font-family="Helvetica,sans-Serif" font-size="10.00">ImageFilter</text>
</g>
<!-- Node3 -->
<g id="node4" class="node">
<title>Node3</title>
<g id="a_node4"><a xlink:href="group__ImageFeatureExtraction.html" target="_top" xlink:title=" ">
<polygon fill="white" stroke="black" points="600,-390.63 460,-390.63 460,-360.63 600,-360.63 600,-390.63"/>
<text text-anchor="start" x="468" y="-378.63" font-family="Helvetica,sans-Serif" font-size="10.00">Image Feature Extraction</text>
<text text-anchor="middle" x="530" y="-367.63" font-family="Helvetica,sans-Serif" font-size="10.00"> Filters</text>
</a>
</g>
</g>
<!-- Node1&#45;&gt;Node3 -->
<g id="edge2" class="edge">
<title>Node1&#45;&gt;Node3</title>
<path fill="none" stroke="orange" stroke-dasharray="5,2" d="M200.31,-245.45C210.01,-268.94 238.09,-328.29 283,-353.63 312.27,-370.14 397.92,-374.68 459.94,-375.72"/>
<text text-anchor="middle" x="362.5" y="-553.63" font-family="Helvetica,sans-Serif" font-size="10.00">itk::BilateralImageFilter</text>
<text text-anchor="middle" x="362.5" y="-542.63" font-family="Helvetica,sans-Serif" font-size="10.00">itk::DerivativeImageFilter</text>
<text text-anchor="start" x="286.5" y="-531.63" font-family="Helvetica,sans-Serif" font-size="10.00">itk::HoughTransform2DCircles</text>
<text text-anchor="middle" x="362.5" y="-520.63" font-family="Helvetica,sans-Serif" font-size="10.00">ImageFilter</text>
<text text-anchor="start" x="286.5" y="-509.63" font-family="Helvetica,sans-Serif" font-size="10.00">itk::HoughTransform2DLines</text>
<text text-anchor="middle" x="362.5" y="-498.63" font-family="Helvetica,sans-Serif" font-size="10.00">ImageFilter</text>
<text text-anchor="middle" x="362.5" y="-487.63" font-family="Helvetica,sans-Serif" font-size="10.00">itk::LaplacianImageFilter</text>
<text text-anchor="start" x="286.5" y="-476.63" font-family="Helvetica,sans-Serif" font-size="10.00">itk::LaplacianSharpening</text>
<text text-anchor="middle" x="362.5" y="-465.63" font-family="Helvetica,sans-Serif" font-size="10.00">ImageFilter</text>
<text text-anchor="start" x="286.5" y="-454.63" font-family="Helvetica,sans-Serif" font-size="10.00">itk::MaskFeaturePointSelection</text>
<text text-anchor="middle" x="362.5" y="-443.63" font-family="Helvetica,sans-Serif" font-size="10.00">Filter</text>
<text text-anchor="start" x="286.5" y="-432.63" font-family="Helvetica,sans-Serif" font-size="10.00">itk::SobelEdgeDetectionImage</text>
<text text-anchor="middle" x="362.5" y="-421.63" font-family="Helvetica,sans-Serif" font-size="10.00">Filter</text>
<text text-anchor="middle" x="362.5" y="-410.63" font-family="Helvetica,sans-Serif" font-size="10.00">itk::UnsharpMaskImageFilter</text>
<text text-anchor="start" x="286.5" y="-399.63" font-family="Helvetica,sans-Serif" font-size="10.00">itk::ZeroCrossingBasedEdge</text>
<text text-anchor="middle" x="362.5" y="-388.63" font-family="Helvetica,sans-Serif" font-size="10.00">DetectionImageFilter</text>
<text text-anchor="middle" x="362.5" y="-377.63" font-family="Helvetica,sans-Serif" font-size="10.00">itk::ZeroCrossingImageFilter</text>
</g>
<!-- Node4 -->
<g id="node5" class="node">
<title>Node4</title>
<g id="a_node5"><a xlink:href="group__ImageFilters.html" target="_top" xlink:title=" ">
<polygon fill="white" stroke="black" points="570,-340.13 490,-340.13 490,-321.13 570,-321.13 570,-340.13"/>
<text text-anchor="middle" x="530" y="-328.13" font-family="Helvetica,sans-Serif" font-size="10.00">Image Filters</text>
</a>
</g>
</g>
<!-- Node1&#45;&gt;Node4 -->
<g id="edge3" class="edge">
<title>Node1&#45;&gt;Node4</title>
<path fill="none" stroke="orange" stroke-dasharray="5,2" d="M204.39,-245.19C218.33,-261.31 249.08,-293.54 283,-307.63 319.34,-322.72 429.98,-328 489.73,-329.77"/>
<text text-anchor="start" x="289.5" y="-341.63" font-family="Helvetica,sans-Serif" font-size="10.00">itk::GradientVectorFlowImage</text>
<text text-anchor="middle" x="362.5" y="-330.63" font-family="Helvetica,sans-Serif" font-size="10.00">Filter</text>
</g>
<!-- Node5 -->
<g id="node6" class="node">
<title>Node5</title>
<g id="a_node6"><a xlink:href="group__ImageSegmentation.html" target="_top" xlink:title=" ">
<polygon fill="white" stroke="black" points="589.5,-300.63 470.5,-300.63 470.5,-270.63 589.5,-270.63 589.5,-300.63"/>
<text text-anchor="start" x="478.5" y="-288.63" font-family="Helvetica,sans-Serif" font-size="10.00">Image Segmentation</text>
<text text-anchor="middle" x="530" y="-277.63" font-family="Helvetica,sans-Serif" font-size="10.00"> Filters</text>
</a>
</g>
</g>
<!-- Node1&#45;&gt;Node5 -->
<g id="edge4" class="edge">
<title>Node1&#45;&gt;Node5</title>
<path fill="none" stroke="orange" stroke-dasharray="5,2" d="M221.09,-245.22C238.19,-251.48 261.66,-259.28 283,-263.63 346.23,-276.52 420.14,-281.86 470.31,-284.07"/>
<text text-anchor="start" x="289.5" y="-295.63" font-family="Helvetica,sans-Serif" font-size="10.00">itk::GradientVectorFlowImage</text>
<text text-anchor="middle" x="362.5" y="-284.63" font-family="Helvetica,sans-Serif" font-size="10.00">Filter</text>
</g>
<!-- Node6 -->
<g id="node7" class="node">
<title>Node6</title>
<g id="a_node7"><a xlink:href="group__IntensityImageFilters.html" target="_top" xlink:title=" ">
<polygon fill="white" stroke="black" points="593,-195.13 467,-195.13 467,-176.13 593,-176.13 593,-195.13"/>
<text text-anchor="middle" x="530" y="-183.13" font-family="Helvetica,sans-Serif" font-size="10.00">Intensity Image Filters</text>
</a>
</g>
</g>
<!-- Node1&#45;&gt;Node6 -->
<g id="edge5" class="edge">
<title>Node1&#45;&gt;Node6</title>
<path fill="none" stroke="orange" stroke-dasharray="5,2" d="M207.56,-226.02C223.13,-213.19 253,-191.09 283,-182.63 346.31,-164.78 422.47,-169.49 473.11,-176.08"/>
<text text-anchor="start" x="293" y="-251.63" font-family="Helvetica,sans-Serif" font-size="10.00">itk::Hessian3DToVesselness</text>
<text text-anchor="middle" x="362.5" y="-240.63" font-family="Helvetica,sans-Serif" font-size="10.00">MeasureImageFilter</text>
<text text-anchor="start" x="293" y="-229.63" font-family="Helvetica,sans-Serif" font-size="10.00">itk::MultiScaleHessianBased</text>
<text text-anchor="middle" x="362.5" y="-218.63" font-family="Helvetica,sans-Serif" font-size="10.00">MeasureImageFilter</text>
<text text-anchor="middle" x="362.5" y="-207.63" font-family="Helvetica,sans-Serif" font-size="10.00">SigmaStepMethod</text>
<text text-anchor="start" x="293" y="-196.63" font-family="Helvetica,sans-Serif" font-size="10.00">itk::SimpleContourExtractor</text>
<text text-anchor="middle" x="362.5" y="-185.63" font-family="Helvetica,sans-Serif" font-size="10.00">ImageFilter</text>
</g>
<!-- Node10 -->
<g id="node8" class="node">
<title>Node10</title>
<g id="a_node8"><a xlink:href="group__MultiThreaded.html" target="_top" xlink:title=" ">
<polygon fill="white" stroke="black" points="590,-150.13 470,-150.13 470,-131.13 590,-131.13 590,-150.13"/>
<text text-anchor="middle" x="530" y="-138.13" font-family="Helvetica,sans-Serif" font-size="10.00">MultiThreaded Filters</text>
</a>
</g>
</g>
<!-- Node1&#45;&gt;Node10 -->
<g id="edge9" class="edge">
<title>Node1&#45;&gt;Node10</title>
<path fill="none" stroke="orange" stroke-dasharray="5,2" d="M201.9,-226.1C213.65,-206.47 243.68,-161.88 283,-144.63 347.73,-116.22 431.58,-122.87 482.78,-131.12"/>
<text text-anchor="start" x="283" y="-158.63" font-family="Helvetica,sans-Serif" font-size="10.00">itk::LaplacianRecursiveGaussian</text>
<text text-anchor="middle" x="362.5" y="-147.63" font-family="Helvetica,sans-Serif" font-size="10.00">ImageFilter</text>
</g>
<!-- Node9 -->
<g id="node9" class="node">
<title>Node9</title>
<g id="a_node9"><a xlink:href="group__SingleThreaded.html" target="_top" xlink:title=" ">
<polygon fill="white" stroke="black" points="592.5,-105.13 467.5,-105.13 467.5,-86.13 592.5,-86.13 592.5,-105.13"/>
<text text-anchor="middle" x="530" y="-93.13" font-family="Helvetica,sans-Serif" font-size="10.00">SingleThreaded Filters</text>
</a>
</g>
</g>
<!-- Node1&#45;&gt;Node9 -->
<g id="edge8" class="edge">
<title>Node1&#45;&gt;Node9</title>
<path fill="none" stroke="orange" stroke-dasharray="5,2" d="M199.1,-226C206.75,-199.78 231.93,-127.19 283,-98.63 349.54,-61.42 442.89,-74.64 493.31,-86.05"/>
<text text-anchor="start" x="287" y="-112.63" font-family="Helvetica,sans-Serif" font-size="10.00">itk::HessianRecursiveGaussian</text>
<text text-anchor="middle" x="362.5" y="-101.63" font-family="Helvetica,sans-Serif" font-size="10.00">ImageFilter</text>
</g>
<!-- Node7 -->
<g id="node10" class="node">
<title>Node7</title>
<g id="a_node10"><a xlink:href="group__TensorObjects.html" target="_top" xlink:title=" ">
<polygon fill="white" stroke="black" points="591,-38.13 469,-38.13 469,-19.13 591,-19.13 591,-38.13"/>
<text text-anchor="middle" x="530" y="-26.13" font-family="Helvetica,sans-Serif" font-size="10.00">Tensor Image Objects</text>
</a>
</g>
</g>
<!-- Node1&#45;&gt;Node7 -->
<g id="edge6" class="edge">
<title>Node1&#45;&gt;Node7</title>
<path fill="none" stroke="orange" stroke-dasharray="5,2" d="M196.98,-225.85C199.26,-191.23 212.15,-73.98 283,-26.63 350.11,18.23 452.21,-4.24 501.06,-19.07"/>
<text text-anchor="start" x="293" y="-62.63" font-family="Helvetica,sans-Serif" font-size="10.00">itk::Hessian3DToVesselness</text>
<text text-anchor="middle" x="362.5" y="-51.63" font-family="Helvetica,sans-Serif" font-size="10.00">MeasureImageFilter</text>
<text text-anchor="start" x="293" y="-40.63" font-family="Helvetica,sans-Serif" font-size="10.00">itk::MultiScaleHessianBased</text>
<text text-anchor="middle" x="362.5" y="-29.63" font-family="Helvetica,sans-Serif" font-size="10.00">MeasureImageFilter</text>
</g>
</g>
</svg>
