<?xml version="1.0" encoding="UTF-8" standalone="no"?>
<!DOCTYPE svg PUBLIC "-//W3C//DTD SVG 1.1//EN"
 "http://www.w3.org/Graphics/SVG/1.1/DTD/svg11.dtd">
<!-- Generated by graphviz version 2.43.0 (0)
 -->
<!-- Title: itkAnchorOpenCloseLine.h Pages: 1 -->
<svg width="772pt" height="263pt"
 viewBox="0.00 0.00 772.00 263.00" xmlns="http://www.w3.org/2000/svg" xmlns:xlink="http://www.w3.org/1999/xlink">
<g id="graph0" class="graph" transform="scale(1 1) rotate(0) translate(4 259)">
<title>itkAnchorOpenCloseLine.h</title>
<polygon fill="white" stroke="transparent" points="-4,4 -4,-259 768,-259 768,4 -4,4"/>
<!-- Node1 -->
<g id="node1" class="node">
<title>Node1</title>
<g id="a_node1"><a xlink:title=" ">
<polygon fill="#bfbfbf" stroke="black" points="482,-235.5 482,-254.5 627,-254.5 627,-235.5 482,-235.5"/>
<text text-anchor="middle" x="554.5" y="-242.5" font-family="Helvetica,sans-Serif" font-size="10.00">itkAnchorOpenCloseLine.h</text>
</a>
</g>
</g>
<!-- Node2 -->
<g id="node2" class="node">
<title>Node2</title>
<g id="a_node2"><a xlink:href="itkMorphologyHistogram_8h.html" target="_top" xlink:title=" ">
<polygon fill="white" stroke="black" points="355,-179.5 355,-198.5 502,-198.5 502,-179.5 355,-179.5"/>
<text text-anchor="middle" x="428.5" y="-186.5" font-family="Helvetica,sans-Serif" font-size="10.00">itkMorphologyHistogram.h</text>
</a>
</g>
</g>
<!-- Node1&#45;&gt;Node2 -->
<g id="edge1" class="edge">
<title>Node1&#45;&gt;Node2</title>
<path fill="none" stroke="midnightblue" d="M534.53,-235.44C513.89,-226.6 481.44,-212.69 457.87,-202.59"/>
<polygon fill="midnightblue" stroke="midnightblue" points="458.94,-199.24 448.37,-198.52 456.18,-205.67 458.94,-199.24"/>
</g>
<!-- Node17 -->
<g id="node17" class="node">
<title>Node17</title>
<g id="a_node17"><a xlink:href="itkIndent_8h.html" target="_top" xlink:title=" ">
<polygon fill="white" stroke="black" points="520,-179.5 520,-198.5 589,-198.5 589,-179.5 520,-179.5"/>
<text text-anchor="middle" x="554.5" y="-186.5" font-family="Helvetica,sans-Serif" font-size="10.00">itkIndent.h</text>
</a>
</g>
</g>
<!-- Node1&#45;&gt;Node17 -->
<g id="edge20" class="edge">
<title>Node1&#45;&gt;Node17</title>
<path fill="none" stroke="midnightblue" d="M554.5,-235.08C554.5,-228.01 554.5,-217.86 554.5,-208.99"/>
<polygon fill="midnightblue" stroke="midnightblue" points="558,-208.75 554.5,-198.75 551,-208.75 558,-208.75"/>
</g>
<!-- Node19 -->
<g id="node19" class="node">
<title>Node19</title>
<g id="a_node19"><a xlink:title=" ">
<polygon fill="white" stroke="#bfbfbf" points="607,-179.5 607,-198.5 764,-198.5 764,-179.5 607,-179.5"/>
<text text-anchor="middle" x="685.5" y="-186.5" font-family="Helvetica,sans-Serif" font-size="10.00">itkAnchorOpenCloseLine.hxx</text>
</a>
</g>
</g>
<!-- Node1&#45;&gt;Node19 -->
<g id="edge23" class="edge">
<title>Node1&#45;&gt;Node19</title>
<path fill="none" stroke="midnightblue" d="M575.26,-235.44C596.82,-226.56 630.76,-212.56 655.29,-202.45"/>
<polygon fill="midnightblue" stroke="midnightblue" points="656.93,-205.56 664.84,-198.52 654.26,-199.09 656.93,-205.56"/>
</g>
<!-- Node3 -->
<g id="node3" class="node">
<title>Node3</title>
<g id="a_node3"><a xlink:title=" ">
<polygon fill="white" stroke="#bfbfbf" points="416.5,-123.5 416.5,-142.5 454.5,-142.5 454.5,-123.5 416.5,-123.5"/>
<text text-anchor="middle" x="435.5" y="-130.5" font-family="Helvetica,sans-Serif" font-size="10.00">map</text>
</a>
</g>
</g>
<!-- Node2&#45;&gt;Node3 -->
<g id="edge2" class="edge">
<title>Node2&#45;&gt;Node3</title>
<path fill="none" stroke="midnightblue" d="M429.66,-179.08C430.58,-171.93 431.92,-161.64 433.08,-152.69"/>
<polygon fill="midnightblue" stroke="midnightblue" points="436.55,-153.12 434.37,-142.75 429.61,-152.22 436.55,-153.12"/>
</g>
<!-- Node4 -->
<g id="node4" class="node">
<title>Node4</title>
<g id="a_node4"><a xlink:title=" ">
<polygon fill="white" stroke="#bfbfbf" points="473,-123.5 473,-142.5 520,-142.5 520,-123.5 473,-123.5"/>
<text text-anchor="middle" x="496.5" y="-130.5" font-family="Helvetica,sans-Serif" font-size="10.00">vector</text>
</a>
</g>
</g>
<!-- Node2&#45;&gt;Node4 -->
<g id="edge3" class="edge">
<title>Node2&#45;&gt;Node4</title>
<path fill="none" stroke="midnightblue" d="M439.43,-179.32C449.67,-171.18 465.22,-158.84 477.5,-149.09"/>
<polygon fill="midnightblue" stroke="midnightblue" points="479.72,-151.79 485.38,-142.83 475.37,-146.31 479.72,-151.79"/>
</g>
<!-- Node5 -->
<g id="node5" class="node">
<title>Node5</title>
<g id="a_node5"><a xlink:href="itkIntTypes_8h.html" target="_top" xlink:title=" ">
<polygon fill="white" stroke="black" points="319,-123.5 319,-142.5 398,-142.5 398,-123.5 319,-123.5"/>
<text text-anchor="middle" x="358.5" y="-130.5" font-family="Helvetica,sans-Serif" font-size="10.00">itkIntTypes.h</text>
</a>
</g>
</g>
<!-- Node2&#45;&gt;Node5 -->
<g id="edge4" class="edge">
<title>Node2&#45;&gt;Node5</title>
<path fill="none" stroke="midnightblue" d="M417.25,-179.32C406.7,-171.18 390.7,-158.84 378.06,-149.09"/>
<polygon fill="midnightblue" stroke="midnightblue" points="380.01,-146.17 369.95,-142.83 375.73,-151.71 380.01,-146.17"/>
</g>
<!-- Node9 -->
<g id="node9" class="node">
<title>Node9</title>
<g id="a_node9"><a xlink:href="itkNumericTraits_8h.html" target="_top" xlink:title=" ">
<polygon fill="white" stroke="black" points="143.5,-123.5 143.5,-142.5 249.5,-142.5 249.5,-123.5 143.5,-123.5"/>
<text text-anchor="middle" x="196.5" y="-130.5" font-family="Helvetica,sans-Serif" font-size="10.00">itkNumericTraits.h</text>
</a>
</g>
</g>
<!-- Node2&#45;&gt;Node9 -->
<g id="edge8" class="edge">
<title>Node2&#45;&gt;Node9</title>
<path fill="none" stroke="midnightblue" d="M391.74,-179.44C351.44,-170.06 286.69,-154.99 242.92,-144.8"/>
<polygon fill="midnightblue" stroke="midnightblue" points="243.62,-141.37 233.09,-142.52 242.04,-148.19 243.62,-141.37"/>
</g>
<!-- Node6 -->
<g id="node6" class="node">
<title>Node6</title>
<g id="a_node6"><a xlink:href="itkMacro_8h.html" target="_top" xlink:title=" ">
<polygon fill="white" stroke="black" points="428.5,-6 428.5,-25 496.5,-25 496.5,-6 428.5,-6"/>
<text text-anchor="middle" x="462.5" y="-13" font-family="Helvetica,sans-Serif" font-size="10.00">itkMacro.h</text>
</a>
</g>
</g>
<!-- Node5&#45;&gt;Node6 -->
<g id="edge5" class="edge">
<title>Node5&#45;&gt;Node6</title>
<path fill="none" stroke="midnightblue" d="M366.32,-123.32C383.63,-104.09 425.46,-57.64 447.82,-32.81"/>
<polygon fill="midnightblue" stroke="midnightblue" points="450.5,-35.06 454.59,-25.28 445.3,-30.37 450.5,-35.06"/>
</g>
<!-- Node7 -->
<g id="node7" class="node">
<title>Node7</title>
<g id="a_node7"><a xlink:title=" ">
<polygon fill="white" stroke="#bfbfbf" points="439.5,-67.5 439.5,-86.5 489.5,-86.5 489.5,-67.5 439.5,-67.5"/>
<text text-anchor="middle" x="464.5" y="-74.5" font-family="Helvetica,sans-Serif" font-size="10.00">cstdint</text>
</a>
</g>
</g>
<!-- Node5&#45;&gt;Node7 -->
<g id="edge6" class="edge">
<title>Node5&#45;&gt;Node7</title>
<path fill="none" stroke="midnightblue" d="M375.53,-123.32C392.53,-114.66 418.88,-101.24 438.49,-91.25"/>
<polygon fill="midnightblue" stroke="midnightblue" points="440.19,-94.31 447.51,-86.65 437.01,-88.08 440.19,-94.31"/>
</g>
<!-- Node8 -->
<g id="node8" class="node">
<title>Node8</title>
<g id="a_node8"><a xlink:title=" ">
<polygon fill="white" stroke="#bfbfbf" points="333.5,-67.5 333.5,-86.5 383.5,-86.5 383.5,-67.5 333.5,-67.5"/>
<text text-anchor="middle" x="358.5" y="-74.5" font-family="Helvetica,sans-Serif" font-size="10.00">climits</text>
</a>
</g>
</g>
<!-- Node5&#45;&gt;Node8 -->
<g id="edge7" class="edge">
<title>Node5&#45;&gt;Node8</title>
<path fill="none" stroke="midnightblue" d="M358.5,-123.08C358.5,-116.01 358.5,-105.86 358.5,-96.99"/>
<polygon fill="midnightblue" stroke="midnightblue" points="362,-96.75 358.5,-86.75 355,-96.75 362,-96.75"/>
</g>
<!-- Node9&#45;&gt;Node6 -->
<g id="edge9" class="edge">
<title>Node9&#45;&gt;Node6</title>
<path fill="none" stroke="midnightblue" d="M213.58,-123.4C231.5,-114.37 260.51,-99.73 285.5,-87 302.86,-78.16 306.65,-74.81 324.5,-67 343.49,-58.7 393.95,-40.59 428.3,-28.47"/>
<polygon fill="midnightblue" stroke="midnightblue" points="429.68,-31.7 437.95,-25.07 427.36,-25.09 429.68,-31.7"/>
</g>
<!-- Node10 -->
<g id="node10" class="node">
<title>Node10</title>
<g id="a_node10"><a xlink:title=" ">
<polygon fill="white" stroke="#bfbfbf" points="9.5,-67.5 9.5,-86.5 53.5,-86.5 53.5,-67.5 9.5,-67.5"/>
<text text-anchor="middle" x="31.5" y="-74.5" font-family="Helvetica,sans-Serif" font-size="10.00">limits</text>
</a>
</g>
</g>
<!-- Node9&#45;&gt;Node10 -->
<g id="edge10" class="edge">
<title>Node9&#45;&gt;Node10</title>
<path fill="none" stroke="midnightblue" d="M170.36,-123.44C141.25,-113.92 94.21,-98.52 63.07,-88.33"/>
<polygon fill="midnightblue" stroke="midnightblue" points="64.15,-85 53.56,-85.22 61.98,-91.66 64.15,-85"/>
</g>
<!-- Node11 -->
<g id="node11" class="node">
<title>Node11</title>
<g id="a_node11"><a xlink:title=" ">
<polygon fill="white" stroke="#bfbfbf" points="72,-67.5 72,-86.5 131,-86.5 131,-67.5 72,-67.5"/>
<text text-anchor="middle" x="101.5" y="-74.5" font-family="Helvetica,sans-Serif" font-size="10.00">complex</text>
</a>
</g>
</g>
<!-- Node9&#45;&gt;Node11 -->
<g id="edge11" class="edge">
<title>Node9&#45;&gt;Node11</title>
<path fill="none" stroke="midnightblue" d="M181.24,-123.32C166.28,-114.82 143.25,-101.73 125.77,-91.8"/>
<polygon fill="midnightblue" stroke="midnightblue" points="127.15,-88.55 116.73,-86.65 123.69,-94.64 127.15,-88.55"/>
</g>
<!-- Node12 -->
<g id="node12" class="node">
<title>Node12</title>
<g id="a_node12"><a xlink:href="itkFixedArray_8h.html" target="_top" xlink:title=" ">
<polygon fill="white" stroke="black" points="188,-67.5 188,-86.5 277,-86.5 277,-67.5 188,-67.5"/>
<text text-anchor="middle" x="232.5" y="-74.5" font-family="Helvetica,sans-Serif" font-size="10.00">itkFixedArray.h</text>
</a>
</g>
</g>
<!-- Node9&#45;&gt;Node12 -->
<g id="edge12" class="edge">
<title>Node9&#45;&gt;Node12</title>
<path fill="none" stroke="midnightblue" d="M202.44,-123.08C207.48,-115.53 214.84,-104.49 221.01,-95.23"/>
<polygon fill="midnightblue" stroke="midnightblue" points="224.03,-97.01 226.67,-86.75 218.21,-93.13 224.03,-97.01"/>
</g>
<!-- Node12&#45;&gt;Node6 -->
<g id="edge13" class="edge">
<title>Node12&#45;&gt;Node6</title>
<path fill="none" stroke="midnightblue" d="M272.53,-67.45C310.58,-59.07 369.29,-45.48 419.5,-31 422.51,-30.13 425.62,-29.19 428.72,-28.2"/>
<polygon fill="midnightblue" stroke="midnightblue" points="430.09,-31.44 438.51,-25.01 427.92,-24.79 430.09,-31.44"/>
</g>
<!-- Node13 -->
<g id="node13" class="node">
<title>Node13</title>
<g id="a_node13"><a xlink:title=" ">
<polygon fill="white" stroke="#bfbfbf" points="346.5,-6 346.5,-25 410.5,-25 410.5,-6 346.5,-6"/>
<text text-anchor="middle" x="378.5" y="-13" font-family="Helvetica,sans-Serif" font-size="10.00">algorithm</text>
</a>
</g>
</g>
<!-- Node12&#45;&gt;Node13 -->
<g id="edge14" class="edge">
<title>Node12&#45;&gt;Node13</title>
<path fill="none" stroke="midnightblue" d="M253.42,-67.48C278.25,-57.36 319.84,-40.4 348.19,-28.85"/>
<polygon fill="midnightblue" stroke="midnightblue" points="349.68,-32.02 357.62,-25.01 347.04,-25.54 349.68,-32.02"/>
</g>
<!-- Node14 -->
<g id="node14" class="node">
<title>Node14</title>
<g id="a_node14"><a xlink:title=" ">
<polygon fill="white" stroke="#bfbfbf" points="166.5,-6 166.5,-25 208.5,-25 208.5,-6 166.5,-6"/>
<text text-anchor="middle" x="187.5" y="-13" font-family="Helvetica,sans-Serif" font-size="10.00">array</text>
</a>
</g>
</g>
<!-- Node12&#45;&gt;Node14 -->
<g id="edge15" class="edge">
<title>Node12&#45;&gt;Node14</title>
<path fill="none" stroke="midnightblue" d="M226.05,-67.48C219.3,-58.55 208.53,-44.31 200.09,-33.14"/>
<polygon fill="midnightblue" stroke="midnightblue" points="202.76,-30.87 193.94,-25.01 197.18,-35.1 202.76,-30.87"/>
</g>
<!-- Node15 -->
<g id="node15" class="node">
<title>Node15</title>
<g id="a_node15"><a xlink:title=" ">
<polygon fill="white" stroke="#bfbfbf" points="227,-6 227,-25 328,-25 328,-6 227,-6"/>
<text text-anchor="middle" x="277.5" y="-13" font-family="Helvetica,sans-Serif" font-size="10.00">itkFixedArray.hxx</text>
</a>
</g>
</g>
<!-- Node12&#45;&gt;Node15 -->
<g id="edge16" class="edge">
<title>Node12&#45;&gt;Node15</title>
<path fill="none" stroke="midnightblue" d="M238.95,-67.48C245.7,-58.55 256.47,-44.31 264.91,-33.14"/>
<polygon fill="midnightblue" stroke="midnightblue" points="267.82,-35.1 271.06,-25.01 262.24,-30.87 267.82,-35.1"/>
</g>
<!-- Node16 -->
<g id="node16" class="node">
<title>Node16</title>
<g id="a_node16"><a xlink:href="itkNumericTraitsFixedArrayPixel_8h.html" target="_top" xlink:title=" ">
<polygon fill="white" stroke="black" points="0,-0.5 0,-30.5 149,-30.5 149,-0.5 0,-0.5"/>
<text text-anchor="start" x="8" y="-18.5" font-family="Helvetica,sans-Serif" font-size="10.00">itkNumericTraitsFixedArray</text>
<text text-anchor="middle" x="74.5" y="-7.5" font-family="Helvetica,sans-Serif" font-size="10.00">Pixel.h</text>
</a>
</g>
</g>
<!-- Node12&#45;&gt;Node16 -->
<g id="edge17" class="edge">
<title>Node12&#45;&gt;Node16</title>
<path fill="none" stroke="midnightblue" d="M204.96,-67.48C180.18,-58.85 143.65,-45.26 115.49,-34.29"/>
<polygon fill="midnightblue" stroke="midnightblue" points="116.49,-30.92 105.91,-30.52 113.94,-37.44 116.49,-30.92"/>
</g>
<!-- Node16&#45;&gt;Node9 -->
<g id="edge18" class="edge">
<title>Node16&#45;&gt;Node9</title>
<path fill="none" stroke="midnightblue" d="M94.63,-30.6C107.89,-40.25 125.36,-53.67 139.5,-67 155.63,-82.2 172.12,-101.49 183.18,-115.09"/>
<polygon fill="midnightblue" stroke="midnightblue" points="180.62,-117.5 189.61,-123.11 186.09,-113.12 180.62,-117.5"/>
</g>
<!-- Node16&#45;&gt;Node12 -->
<g id="edge19" class="edge">
<title>Node16&#45;&gt;Node12</title>
<path fill="none" stroke="midnightblue" d="M117.57,-30.52C145.64,-40.6 181.3,-54.06 205.47,-63.72"/>
<polygon fill="midnightblue" stroke="midnightblue" points="204.18,-66.97 214.76,-67.48 206.8,-60.48 204.18,-66.97"/>
</g>
<!-- Node17&#45;&gt;Node6 -->
<g id="edge21" class="edge">
<title>Node17&#45;&gt;Node6</title>
<path fill="none" stroke="midnightblue" d="M551.43,-179.46C546.84,-166.91 537.74,-142.83 528.5,-123 516.57,-97.41 513.39,-90.99 498.5,-67 491.36,-55.49 482.54,-43.1 475.42,-33.47"/>
<polygon fill="midnightblue" stroke="midnightblue" points="478.02,-31.11 469.22,-25.21 472.42,-35.31 478.02,-31.11"/>
</g>
<!-- Node18 -->
<g id="node18" class="node">
<title>Node18</title>
<g id="a_node18"><a xlink:title=" ">
<polygon fill="white" stroke="#bfbfbf" points="576.5,-123.5 576.5,-142.5 636.5,-142.5 636.5,-123.5 576.5,-123.5"/>
<text text-anchor="middle" x="606.5" y="-130.5" font-family="Helvetica,sans-Serif" font-size="10.00">iostream</text>
</a>
</g>
</g>
<!-- Node17&#45;&gt;Node18 -->
<g id="edge22" class="edge">
<title>Node17&#45;&gt;Node18</title>
<path fill="none" stroke="midnightblue" d="M563.09,-179.08C570.66,-171.22 581.88,-159.57 591.01,-150.08"/>
<polygon fill="midnightblue" stroke="midnightblue" points="593.66,-152.38 598.07,-142.75 588.62,-147.53 593.66,-152.38"/>
</g>
</g>
</svg>
