<?xml version="1.0" encoding="UTF-8" standalone="no"?>
<!DOCTYPE svg PUBLIC "-//W3C//DTD SVG 1.1//EN"
 "http://www.w3.org/Graphics/SVG/1.1/DTD/svg11.dtd">
<!-- Generated by graphviz version 2.43.0 (0)
 -->
<!-- Title: itkAnnulusOperator.h Pages: 1 -->
<svg width="2215pt" height="509pt"
 viewBox="0.00 0.00 2214.57 509.00" xmlns="http://www.w3.org/2000/svg" xmlns:xlink="http://www.w3.org/1999/xlink">
<g id="graph0" class="graph" transform="scale(1 1) rotate(0) translate(4 505)">
<title>itkAnnulusOperator.h</title>
<polygon fill="white" stroke="transparent" points="-4,4 -4,-505 2210.57,-505 2210.57,4 -4,4"/>
<!-- Node1 -->
<g id="node1" class="node">
<title>Node1</title>
<g id="a_node1"><a xlink:title=" ">
<polygon fill="#bfbfbf" stroke="black" points="1148.57,-481.5 1148.57,-500.5 1267.57,-500.5 1267.57,-481.5 1148.57,-481.5"/>
<text text-anchor="middle" x="1208.07" y="-488.5" font-family="Helvetica,sans-Serif" font-size="10.00">itkAnnulusOperator.h</text>
</a>
</g>
</g>
<!-- Node2 -->
<g id="node2" class="node">
<title>Node2</title>
<g id="a_node2"><a xlink:href="itkNeighborhoodOperator_8h.html" target="_top" xlink:title=" ">
<polygon fill="white" stroke="black" points="760.57,-414.5 760.57,-433.5 909.57,-433.5 909.57,-414.5 760.57,-414.5"/>
<text text-anchor="middle" x="835.07" y="-421.5" font-family="Helvetica,sans-Serif" font-size="10.00">itkNeighborhoodOperator.h</text>
</a>
</g>
</g>
<!-- Node1&#45;&gt;Node2 -->
<g id="edge1" class="edge">
<title>Node1&#45;&gt;Node2</title>
<path fill="none" stroke="midnightblue" d="M1158.92,-481.44C1090.62,-469.53 967.17,-448.02 894,-435.27"/>
<polygon fill="midnightblue" stroke="midnightblue" points="894.48,-431.8 884.03,-433.53 893.28,-438.7 894.48,-431.8"/>
</g>
<!-- Node11 -->
<g id="node11" class="node">
<title>Node11</title>
<g id="a_node11"><a xlink:href="itkIntTypes_8h.html" target="_top" xlink:title=" ">
<polygon fill="white" stroke="black" points="90.57,-123.5 90.57,-142.5 169.57,-142.5 169.57,-123.5 90.57,-123.5"/>
<text text-anchor="middle" x="130.07" y="-130.5" font-family="Helvetica,sans-Serif" font-size="10.00">itkIntTypes.h</text>
</a>
</g>
</g>
<!-- Node1&#45;&gt;Node11 -->
<g id="edge58" class="edge">
<title>Node1&#45;&gt;Node11</title>
<path fill="none" stroke="midnightblue" d="M1148.32,-488.86C925.14,-483.81 153.07,-459.06 153.07,-358 153.07,-358 153.07,-358 153.07,-244 153.07,-211.12 143.1,-173.86 136.29,-152.24"/>
<polygon fill="midnightblue" stroke="midnightblue" points="139.61,-151.12 133.17,-142.71 132.95,-153.3 139.61,-151.12"/>
</g>
<!-- Node15 -->
<g id="node15" class="node">
<title>Node15</title>
<g id="a_node15"><a xlink:title=" ">
<polygon fill="white" stroke="#bfbfbf" points="693.07,-291.5 693.07,-310.5 787.07,-310.5 787.07,-291.5 693.07,-291.5"/>
<text text-anchor="middle" x="740.07" y="-298.5" font-family="Helvetica,sans-Serif" font-size="10.00">vnl/vnl_vector.h</text>
</a>
</g>
</g>
<!-- Node1&#45;&gt;Node15 -->
<g id="edge64" class="edge">
<title>Node1&#45;&gt;Node15</title>
<path fill="none" stroke="midnightblue" d="M1180.55,-481.41C1155.62,-473.25 1118.15,-460.01 1087.07,-445 1011.3,-408.39 1002.85,-379.1 925.07,-347 883.87,-330 834.75,-318.43 797.49,-311.28"/>
<polygon fill="midnightblue" stroke="midnightblue" points="797.78,-307.77 787.3,-309.38 796.49,-314.65 797.78,-307.77"/>
</g>
<!-- Node19 -->
<g id="node19" class="node">
<title>Node19</title>
<g id="a_node19"><a xlink:href="itkMath_8h.html" target="_top" xlink:title=" ">
<polygon fill="white" stroke="black" points="786.57,-235.5 786.57,-254.5 849.57,-254.5 849.57,-235.5 786.57,-235.5"/>
<text text-anchor="middle" x="818.07" y="-242.5" font-family="Helvetica,sans-Serif" font-size="10.00">itkMath.h</text>
</a>
</g>
</g>
<!-- Node1&#45;&gt;Node19 -->
<g id="edge63" class="edge">
<title>Node1&#45;&gt;Node19</title>
<path fill="none" stroke="midnightblue" d="M1190.85,-481.49C1173.8,-472.88 1147.12,-458.88 1125.07,-445 1098.13,-428.05 1093.43,-420.83 1067.07,-403 985.43,-347.79 885.49,-286.66 841.14,-259.87"/>
<polygon fill="midnightblue" stroke="midnightblue" points="842.68,-256.71 832.31,-254.54 839.07,-262.7 842.68,-256.71"/>
</g>
<!-- Node22 -->
<g id="node22" class="node">
<title>Node22</title>
<g id="a_node22"><a xlink:href="itkNumericTraits_8h.html" target="_top" xlink:title=" ">
<polygon fill="white" stroke="black" points="1009.07,-123.5 1009.07,-142.5 1115.07,-142.5 1115.07,-123.5 1009.07,-123.5"/>
<text text-anchor="middle" x="1062.07" y="-130.5" font-family="Helvetica,sans-Serif" font-size="10.00">itkNumericTraits.h</text>
</a>
</g>
</g>
<!-- Node1&#45;&gt;Node22 -->
<g id="edge57" class="edge">
<title>Node1&#45;&gt;Node22</title>
<path fill="none" stroke="midnightblue" d="M1196.41,-481.26C1186.17,-473 1171.63,-459.7 1163.07,-445 1142.88,-410.34 1139.07,-398.11 1139.07,-358 1139.07,-358 1139.07,-358 1139.07,-244 1139.07,-203.93 1104.35,-168.08 1081.54,-148.84"/>
<polygon fill="midnightblue" stroke="midnightblue" points="1083.73,-146.11 1073.76,-142.53 1079.32,-151.55 1083.73,-146.11"/>
</g>
<!-- Node28 -->
<g id="node28" class="node">
<title>Node28</title>
<g id="a_node28"><a xlink:href="itkNumericTraitsFixedArrayPixel_8h.html" target="_top" xlink:title=" ">
<polygon fill="white" stroke="black" points="1120.57,-0.5 1120.57,-30.5 1269.57,-30.5 1269.57,-0.5 1120.57,-0.5"/>
<text text-anchor="start" x="1128.57" y="-18.5" font-family="Helvetica,sans-Serif" font-size="10.00">itkNumericTraitsFixedArray</text>
<text text-anchor="middle" x="1195.07" y="-7.5" font-family="Helvetica,sans-Serif" font-size="10.00">Pixel.h</text>
</a>
</g>
</g>
<!-- Node1&#45;&gt;Node28 -->
<g id="edge56" class="edge">
<title>Node1&#45;&gt;Node28</title>
<path fill="none" stroke="midnightblue" d="M1204.98,-481.17C1202.02,-472.2 1197.75,-457.83 1196.07,-445 1188.74,-389.11 1215.07,-283.22 1215.07,-246 1215.07,-246 1215.07,-246 1215.07,-132 1215.07,-100.03 1207.53,-63.79 1201.71,-40.57"/>
<polygon fill="midnightblue" stroke="midnightblue" points="1205.02,-39.38 1199.11,-30.59 1198.25,-41.15 1205.02,-39.38"/>
</g>
<!-- Node37 -->
<g id="node37" class="node">
<title>Node37</title>
<g id="a_node37"><a xlink:href="itkVector_8h.html" target="_top" xlink:title=" ">
<polygon fill="white" stroke="black" points="1205.07,-414.5 1205.07,-433.5 1273.07,-433.5 1273.07,-414.5 1205.07,-414.5"/>
<text text-anchor="middle" x="1239.07" y="-421.5" font-family="Helvetica,sans-Serif" font-size="10.00">itkVector.h</text>
</a>
</g>
</g>
<!-- Node1&#45;&gt;Node37 -->
<g id="edge59" class="edge">
<title>Node1&#45;&gt;Node37</title>
<path fill="none" stroke="midnightblue" d="M1212.25,-481.23C1216.94,-471.39 1224.68,-455.16 1230.64,-442.66"/>
<polygon fill="midnightblue" stroke="midnightblue" points="1233.81,-444.16 1234.95,-433.63 1227.49,-441.15 1233.81,-444.16"/>
</g>
<!-- Node40 -->
<g id="node40" class="node">
<title>Node40</title>
<g id="a_node40"><a xlink:title=" ">
<polygon fill="white" stroke="#bfbfbf" points="1291.07,-409 1291.07,-439 1449.07,-439 1449.07,-409 1291.07,-409"/>
<text text-anchor="start" x="1299.07" y="-427" font-family="Helvetica,sans-Serif" font-size="10.00">/work/ITK/Modules/Core</text>
<text text-anchor="middle" x="1370.07" y="-416" font-family="Helvetica,sans-Serif" font-size="10.00">/Common/include/itkObject.h</text>
</a>
</g>
</g>
<!-- Node1&#45;&gt;Node40 -->
<g id="edge65" class="edge">
<title>Node1&#45;&gt;Node40</title>
<path fill="none" stroke="midnightblue" d="M1229.58,-481.37C1253.99,-471.57 1294.48,-455.33 1325.73,-442.79"/>
<polygon fill="midnightblue" stroke="midnightblue" points="1327.13,-446 1335.1,-439.03 1324.52,-439.5 1327.13,-446"/>
</g>
<!-- Node41 -->
<g id="node41" class="node">
<title>Node41</title>
<g id="a_node41"><a xlink:title=" ">
<polygon fill="white" stroke="#bfbfbf" points="1466.57,-403.5 1466.57,-444.5 1651.57,-444.5 1651.57,-403.5 1466.57,-403.5"/>
<text text-anchor="start" x="1474.57" y="-432.5" font-family="Helvetica,sans-Serif" font-size="10.00">/work/ITK/Modules/Core</text>
<text text-anchor="start" x="1474.57" y="-421.5" font-family="Helvetica,sans-Serif" font-size="10.00">/Common/include/itkNumericTraits</text>
<text text-anchor="middle" x="1559.07" y="-410.5" font-family="Helvetica,sans-Serif" font-size="10.00">VectorPixel.h</text>
</a>
</g>
</g>
<!-- Node1&#45;&gt;Node41 -->
<g id="edge66" class="edge">
<title>Node1&#45;&gt;Node41</title>
<path fill="none" stroke="midnightblue" d="M1256.98,-481.46C1305.24,-472.97 1381.4,-459.41 1456.27,-445.33"/>
<polygon fill="midnightblue" stroke="midnightblue" points="1457.16,-448.72 1466.34,-443.43 1455.87,-441.84 1457.16,-448.72"/>
</g>
<!-- Node42 -->
<g id="node42" class="node">
<title>Node42</title>
<g id="a_node42"><a xlink:title=" ">
<polygon fill="white" stroke="#bfbfbf" points="1669.57,-414.5 1669.57,-433.5 1800.57,-433.5 1800.57,-414.5 1669.57,-414.5"/>
<text text-anchor="middle" x="1735.07" y="-421.5" font-family="Helvetica,sans-Serif" font-size="10.00">itkAnnulusOperator.hxx</text>
</a>
</g>
</g>
<!-- Node1&#45;&gt;Node42 -->
<g id="edge67" class="edge">
<title>Node1&#45;&gt;Node42</title>
<path fill="none" stroke="midnightblue" d="M1267.87,-487.21C1354.96,-482.43 1521.53,-470.61 1661.07,-445 1673.11,-442.79 1686.06,-439.58 1697.71,-436.38"/>
<polygon fill="midnightblue" stroke="midnightblue" points="1698.88,-439.69 1707.55,-433.6 1696.98,-432.95 1698.88,-439.69"/>
</g>
<!-- Node43 -->
<g id="node43" class="node">
<title>Node43</title>
<g id="a_node43"><a xlink:title=" ">
<polygon fill="white" stroke="#bfbfbf" points="1818.57,-403.5 1818.57,-444.5 2003.57,-444.5 2003.57,-403.5 1818.57,-403.5"/>
<text text-anchor="start" x="1826.57" y="-432.5" font-family="Helvetica,sans-Serif" font-size="10.00">/work/ITK/Modules/Core</text>
<text text-anchor="start" x="1826.57" y="-421.5" font-family="Helvetica,sans-Serif" font-size="10.00">/Common/include/itkSphereSpatial</text>
<text text-anchor="middle" x="1911.07" y="-410.5" font-family="Helvetica,sans-Serif" font-size="10.00">Function.h</text>
</a>
</g>
</g>
<!-- Node1&#45;&gt;Node43 -->
<g id="edge68" class="edge">
<title>Node1&#45;&gt;Node43</title>
<path fill="none" stroke="midnightblue" d="M1267.7,-487.93C1374.35,-483.71 1604.91,-472.22 1808.43,-445.14"/>
<polygon fill="midnightblue" stroke="midnightblue" points="1808.96,-448.6 1818.4,-443.8 1808.02,-441.67 1808.96,-448.6"/>
</g>
<!-- Node44 -->
<g id="node44" class="node">
<title>Node44</title>
<g id="a_node44"><a xlink:title=" ">
<polygon fill="white" stroke="#bfbfbf" points="2021.57,-403.5 2021.57,-444.5 2206.57,-444.5 2206.57,-403.5 2021.57,-403.5"/>
<text text-anchor="start" x="2029.57" y="-432.5" font-family="Helvetica,sans-Serif" font-size="10.00">/work/ITK/Modules/Core</text>
<text text-anchor="start" x="2029.57" y="-421.5" font-family="Helvetica,sans-Serif" font-size="10.00">/Common/include/itkNumericTraits</text>
<text text-anchor="middle" x="2114.07" y="-410.5" font-family="Helvetica,sans-Serif" font-size="10.00">PointPixel.h</text>
</a>
</g>
</g>
<!-- Node1&#45;&gt;Node44 -->
<g id="edge69" class="edge">
<title>Node1&#45;&gt;Node44</title>
<path fill="none" stroke="midnightblue" d="M1267.66,-489.51C1399.91,-487.81 1728.04,-480.2 2011.35,-445.13"/>
<polygon fill="midnightblue" stroke="midnightblue" points="2011.92,-448.58 2021.41,-443.87 2011.05,-441.64 2011.92,-448.58"/>
</g>
<!-- Node3 -->
<g id="node3" class="node">
<title>Node3</title>
<g id="a_node3"><a xlink:href="itkNeighborhood_8h.html" target="_top" xlink:title=" ">
<polygon fill="white" stroke="black" points="423.57,-347.5 423.57,-366.5 530.57,-366.5 530.57,-347.5 423.57,-347.5"/>
<text text-anchor="middle" x="477.07" y="-354.5" font-family="Helvetica,sans-Serif" font-size="10.00">itkNeighborhood.h</text>
</a>
</g>
</g>
<!-- Node2&#45;&gt;Node3 -->
<g id="edge2" class="edge">
<title>Node2&#45;&gt;Node3</title>
<path fill="none" stroke="midnightblue" d="M787.9,-414.44C722.48,-402.56 604.34,-381.11 534.07,-368.35"/>
<polygon fill="midnightblue" stroke="midnightblue" points="534.52,-364.87 524.06,-366.53 533.27,-371.76 534.52,-364.87"/>
</g>
<!-- Node2&#45;&gt;Node22 -->
<g id="edge53" class="edge">
<title>Node2&#45;&gt;Node22</title>
<path fill="none" stroke="midnightblue" d="M852.85,-414.32C901.79,-389.25 1037.77,-311.28 1082.07,-199 1088.34,-183.09 1081.11,-164.38 1073.65,-151.12"/>
<polygon fill="midnightblue" stroke="midnightblue" points="1076.6,-149.23 1068.37,-142.56 1070.64,-152.91 1076.6,-149.23"/>
</g>
<!-- Node34 -->
<g id="node34" class="node">
<title>Node34</title>
<g id="a_node34"><a xlink:title=" ">
<polygon fill="white" stroke="#bfbfbf" points="581.57,-291.5 581.57,-310.5 628.57,-310.5 628.57,-291.5 581.57,-291.5"/>
<text text-anchor="middle" x="605.07" y="-298.5" font-family="Helvetica,sans-Serif" font-size="10.00">vector</text>
</a>
</g>
</g>
<!-- Node2&#45;&gt;Node34 -->
<g id="edge54" class="edge">
<title>Node2&#45;&gt;Node34</title>
<path fill="none" stroke="midnightblue" d="M818.89,-414.49C779.48,-393.76 678.23,-340.49 630.58,-315.42"/>
<polygon fill="midnightblue" stroke="midnightblue" points="632.01,-312.22 621.53,-310.66 628.75,-318.41 632.01,-312.22"/>
</g>
<!-- Node36 -->
<g id="node36" class="node">
<title>Node36</title>
<g id="a_node36"><a xlink:title=" ">
<polygon fill="white" stroke="#bfbfbf" points="754.57,-347.5 754.57,-366.5 915.57,-366.5 915.57,-347.5 754.57,-347.5"/>
<text text-anchor="middle" x="835.07" y="-354.5" font-family="Helvetica,sans-Serif" font-size="10.00">itkNeighborhoodOperator.hxx</text>
</a>
</g>
</g>
<!-- Node2&#45;&gt;Node36 -->
<g id="edge55" class="edge">
<title>Node2&#45;&gt;Node36</title>
<path fill="none" stroke="midnightblue" d="M835.07,-414.23C835.07,-404.68 835.07,-389.12 835.07,-376.78"/>
<polygon fill="midnightblue" stroke="midnightblue" points="838.57,-376.63 835.07,-366.63 831.57,-376.63 838.57,-376.63"/>
</g>
<!-- Node4 -->
<g id="node4" class="node">
<title>Node4</title>
<g id="a_node4"><a xlink:title=" ">
<polygon fill="white" stroke="#bfbfbf" points="606.07,-123.5 606.07,-142.5 666.07,-142.5 666.07,-123.5 606.07,-123.5"/>
<text text-anchor="middle" x="636.07" y="-130.5" font-family="Helvetica,sans-Serif" font-size="10.00">iostream</text>
</a>
</g>
</g>
<!-- Node3&#45;&gt;Node4 -->
<g id="edge3" class="edge">
<title>Node3&#45;&gt;Node4</title>
<path fill="none" stroke="midnightblue" d="M487.78,-347.46C497.54,-339.13 511.67,-325.62 520.07,-311 550.48,-258.07 520.45,-227.08 558.07,-179 569.32,-164.62 586.53,-154 601.93,-146.7"/>
<polygon fill="midnightblue" stroke="midnightblue" points="603.49,-149.83 611.21,-142.57 600.65,-143.43 603.49,-149.83"/>
</g>
<!-- Node5 -->
<g id="node5" class="node">
<title>Node5</title>
<g id="a_node5"><a xlink:href="itkNeighborhoodAllocator_8h.html" target="_top" xlink:title=" ">
<polygon fill="white" stroke="black" points="274.57,-179.5 274.57,-198.5 423.57,-198.5 423.57,-179.5 274.57,-179.5"/>
<text text-anchor="middle" x="349.07" y="-186.5" font-family="Helvetica,sans-Serif" font-size="10.00">itkNeighborhoodAllocator.h</text>
</a>
</g>
</g>
<!-- Node3&#45;&gt;Node5 -->
<g id="edge4" class="edge">
<title>Node3&#45;&gt;Node5</title>
<path fill="none" stroke="midnightblue" d="M468.09,-347.4C459.09,-338.6 445.04,-324.36 434.07,-311 405.14,-275.78 375.45,-231.21 359.97,-207.21"/>
<polygon fill="midnightblue" stroke="midnightblue" points="362.76,-205.07 354.42,-198.53 356.87,-208.84 362.76,-205.07"/>
</g>
<!-- Node9 -->
<g id="node9" class="node">
<title>Node9</title>
<g id="a_node9"><a xlink:href="itkIndent_8h.html" target="_top" xlink:title=" ">
<polygon fill="white" stroke="black" points="441.57,-179.5 441.57,-198.5 510.57,-198.5 510.57,-179.5 441.57,-179.5"/>
<text text-anchor="middle" x="476.07" y="-186.5" font-family="Helvetica,sans-Serif" font-size="10.00">itkIndent.h</text>
</a>
</g>
</g>
<!-- Node3&#45;&gt;Node9 -->
<g id="edge9" class="edge">
<title>Node3&#45;&gt;Node9</title>
<path fill="none" stroke="midnightblue" d="M423.49,-352.57C365.5,-347.62 278.55,-336.12 258.07,-311 252.45,-304.11 253.28,-298.49 258.07,-291 278.72,-258.67 382.26,-220.65 438.9,-201.81"/>
<polygon fill="midnightblue" stroke="midnightblue" points="440.16,-205.08 448.56,-198.63 437.97,-198.43 440.16,-205.08"/>
</g>
<!-- Node10 -->
<g id="node10" class="node">
<title>Node10</title>
<g id="a_node10"><a xlink:href="itkSliceIterator_8h.html" target="_top" xlink:title=" ">
<polygon fill="white" stroke="black" points="6.57,-179.5 6.57,-198.5 103.57,-198.5 103.57,-179.5 6.57,-179.5"/>
<text text-anchor="middle" x="55.07" y="-186.5" font-family="Helvetica,sans-Serif" font-size="10.00">itkSliceIterator.h</text>
</a>
</g>
</g>
<!-- Node3&#45;&gt;Node10 -->
<g id="edge12" class="edge">
<title>Node3&#45;&gt;Node10</title>
<path fill="none" stroke="midnightblue" d="M423.49,-350.78C376.72,-344.95 307.65,-333.26 251.07,-311 180.7,-283.32 107.34,-230.51 73.81,-204.8"/>
<polygon fill="midnightblue" stroke="midnightblue" points="75.85,-201.95 65.8,-198.59 71.56,-207.49 75.85,-201.95"/>
</g>
<!-- Node3&#45;&gt;Node15 -->
<g id="edge19" class="edge">
<title>Node3&#45;&gt;Node15</title>
<path fill="none" stroke="midnightblue" d="M518.74,-347.44C564.81,-337.98 639.06,-322.74 688.7,-312.55"/>
<polygon fill="midnightblue" stroke="midnightblue" points="689.5,-315.96 698.59,-310.52 688.09,-309.1 689.5,-315.96"/>
</g>
<!-- Node16 -->
<g id="node16" class="node">
<title>Node16</title>
<g id="a_node16"><a xlink:href="itkOffset_8h.html" target="_top" xlink:title=" ">
<polygon fill="white" stroke="black" points="443.07,-291.5 443.07,-310.5 511.07,-310.5 511.07,-291.5 443.07,-291.5"/>
<text text-anchor="middle" x="477.07" y="-298.5" font-family="Helvetica,sans-Serif" font-size="10.00">itkOffset.h</text>
</a>
</g>
</g>
<!-- Node3&#45;&gt;Node16 -->
<g id="edge20" class="edge">
<title>Node3&#45;&gt;Node16</title>
<path fill="none" stroke="midnightblue" d="M477.07,-347.08C477.07,-340.01 477.07,-329.86 477.07,-320.99"/>
<polygon fill="midnightblue" stroke="midnightblue" points="480.57,-320.75 477.07,-310.75 473.57,-320.75 480.57,-320.75"/>
</g>
<!-- Node3&#45;&gt;Node34 -->
<g id="edge51" class="edge">
<title>Node3&#45;&gt;Node34</title>
<path fill="none" stroke="midnightblue" d="M497.35,-347.44C518.41,-338.56 551.58,-324.56 575.55,-314.45"/>
<polygon fill="midnightblue" stroke="midnightblue" points="577.03,-317.63 584.88,-310.52 574.31,-311.18 577.03,-317.63"/>
</g>
<!-- Node35 -->
<g id="node35" class="node">
<title>Node35</title>
<g id="a_node35"><a xlink:title=" ">
<polygon fill="white" stroke="#bfbfbf" points="267.57,-291.5 267.57,-310.5 386.57,-310.5 386.57,-291.5 267.57,-291.5"/>
<text text-anchor="middle" x="327.07" y="-298.5" font-family="Helvetica,sans-Serif" font-size="10.00">itkNeighborhood.hxx</text>
</a>
</g>
</g>
<!-- Node3&#45;&gt;Node35 -->
<g id="edge52" class="edge">
<title>Node3&#45;&gt;Node35</title>
<path fill="none" stroke="midnightblue" d="M453.3,-347.44C428.17,-338.4 388.36,-324.06 360.17,-313.92"/>
<polygon fill="midnightblue" stroke="midnightblue" points="361.32,-310.61 350.72,-310.52 358.95,-317.2 361.32,-310.61"/>
</g>
<!-- Node5&#45;&gt;Node4 -->
<g id="edge6" class="edge">
<title>Node5&#45;&gt;Node4</title>
<path fill="none" stroke="midnightblue" d="M396.61,-179.47C445.63,-170.6 524.27,-156.21 592.07,-143 593.32,-142.76 594.58,-142.51 595.86,-142.26"/>
<polygon fill="midnightblue" stroke="midnightblue" points="596.67,-145.66 605.79,-140.27 595.29,-138.8 596.67,-145.66"/>
</g>
<!-- Node6 -->
<g id="node6" class="node">
<title>Node6</title>
<g id="a_node6"><a xlink:title=" ">
<polygon fill="white" stroke="#bfbfbf" points="588.07,-6 588.07,-25 652.07,-25 652.07,-6 588.07,-6"/>
<text text-anchor="middle" x="620.07" y="-13" font-family="Helvetica,sans-Serif" font-size="10.00">algorithm</text>
</a>
</g>
</g>
<!-- Node5&#45;&gt;Node6 -->
<g id="edge5" class="edge">
<title>Node5&#45;&gt;Node6</title>
<path fill="none" stroke="midnightblue" d="M409.56,-179.46C466.94,-168.18 551.53,-142.76 601.07,-87 613.8,-72.66 618.12,-50.65 619.52,-35.04"/>
<polygon fill="midnightblue" stroke="midnightblue" points="623.02,-35.2 620.11,-25.01 616.03,-34.79 623.02,-35.2"/>
</g>
<!-- Node7 -->
<g id="node7" class="node">
<title>Node7</title>
<g id="a_node7"><a xlink:title=" ">
<polygon fill="white" stroke="#bfbfbf" points="352.07,-123.5 352.07,-142.5 410.07,-142.5 410.07,-123.5 352.07,-123.5"/>
<text text-anchor="middle" x="381.07" y="-130.5" font-family="Helvetica,sans-Serif" font-size="10.00">memory</text>
</a>
</g>
</g>
<!-- Node5&#45;&gt;Node7 -->
<g id="edge7" class="edge">
<title>Node5&#45;&gt;Node7</title>
<path fill="none" stroke="midnightblue" d="M354.35,-179.08C358.78,-171.61 365.23,-160.72 370.68,-151.52"/>
<polygon fill="midnightblue" stroke="midnightblue" points="373.79,-153.14 375.88,-142.75 367.77,-149.57 373.79,-153.14"/>
</g>
<!-- Node8 -->
<g id="node8" class="node">
<title>Node8</title>
<g id="a_node8"><a xlink:href="itkMacro_8h.html" target="_top" xlink:title=" ">
<polygon fill="white" stroke="black" points="423.07,-6 423.07,-25 491.07,-25 491.07,-6 423.07,-6"/>
<text text-anchor="middle" x="457.07" y="-13" font-family="Helvetica,sans-Serif" font-size="10.00">itkMacro.h</text>
</a>
</g>
</g>
<!-- Node5&#45;&gt;Node8 -->
<g id="edge8" class="edge">
<title>Node5&#45;&gt;Node8</title>
<path fill="none" stroke="midnightblue" d="M370.03,-179.39C385.68,-171.95 406.46,-159.73 419.07,-143 443.71,-110.29 452.46,-61.66 455.5,-35.24"/>
<polygon fill="midnightblue" stroke="midnightblue" points="459.01,-35.39 456.51,-25.09 452.04,-34.7 459.01,-35.39"/>
</g>
<!-- Node9&#45;&gt;Node4 -->
<g id="edge11" class="edge">
<title>Node9&#45;&gt;Node4</title>
<path fill="none" stroke="midnightblue" d="M501.42,-179.44C528.34,-170.36 571.06,-155.94 601.15,-145.78"/>
<polygon fill="midnightblue" stroke="midnightblue" points="602.48,-149.03 610.83,-142.52 600.24,-142.4 602.48,-149.03"/>
</g>
<!-- Node9&#45;&gt;Node8 -->
<g id="edge10" class="edge">
<title>Node9&#45;&gt;Node8</title>
<path fill="none" stroke="midnightblue" d="M475.1,-179.26C472.15,-152.65 463.24,-72.21 459.15,-35.34"/>
<polygon fill="midnightblue" stroke="midnightblue" points="462.59,-34.57 458.01,-25.02 455.63,-35.34 462.59,-34.57"/>
</g>
<!-- Node10&#45;&gt;Node8 -->
<g id="edge13" class="edge">
<title>Node10&#45;&gt;Node8</title>
<path fill="none" stroke="midnightblue" d="M40.41,-179.4C28.66,-171.58 13.04,-158.86 6.07,-143 -8.48,-109.9 5.35,-87.59 35.07,-67 95.42,-25.17 317.02,-17.86 412.65,-16.68"/>
<polygon fill="midnightblue" stroke="midnightblue" points="412.9,-20.17 422.86,-16.57 412.82,-13.17 412.9,-20.17"/>
</g>
<!-- Node10&#45;&gt;Node11 -->
<g id="edge14" class="edge">
<title>Node10&#45;&gt;Node11</title>
<path fill="none" stroke="midnightblue" d="M67.12,-179.32C78.53,-171.11 95.9,-158.6 109.5,-148.81"/>
<polygon fill="midnightblue" stroke="midnightblue" points="111.73,-151.52 117.8,-142.83 107.64,-145.84 111.73,-151.52"/>
</g>
<!-- Node14 -->
<g id="node14" class="node">
<title>Node14</title>
<g id="a_node14"><a xlink:title=" ">
<polygon fill="white" stroke="#bfbfbf" points="15.57,-123.5 15.57,-142.5 72.57,-142.5 72.57,-123.5 15.57,-123.5"/>
<text text-anchor="middle" x="44.07" y="-130.5" font-family="Helvetica,sans-Serif" font-size="10.00">valarray</text>
</a>
</g>
</g>
<!-- Node10&#45;&gt;Node14 -->
<g id="edge18" class="edge">
<title>Node10&#45;&gt;Node14</title>
<path fill="none" stroke="midnightblue" d="M53.25,-179.08C51.79,-171.93 49.7,-161.64 47.87,-152.69"/>
<polygon fill="midnightblue" stroke="midnightblue" points="51.28,-151.85 45.85,-142.75 44.42,-153.25 51.28,-151.85"/>
</g>
<!-- Node11&#45;&gt;Node8 -->
<g id="edge15" class="edge">
<title>Node11&#45;&gt;Node8</title>
<path fill="none" stroke="midnightblue" d="M101.76,-123.48C69.16,-112.28 22.67,-91.17 44.07,-67 68.23,-39.7 311.06,-24.06 412.7,-18.66"/>
<polygon fill="midnightblue" stroke="midnightblue" points="413.14,-22.14 422.95,-18.12 412.78,-15.15 413.14,-22.14"/>
</g>
<!-- Node12 -->
<g id="node12" class="node">
<title>Node12</title>
<g id="a_node12"><a xlink:title=" ">
<polygon fill="white" stroke="#bfbfbf" points="121.07,-67.5 121.07,-86.5 171.07,-86.5 171.07,-67.5 121.07,-67.5"/>
<text text-anchor="middle" x="146.07" y="-74.5" font-family="Helvetica,sans-Serif" font-size="10.00">cstdint</text>
</a>
</g>
</g>
<!-- Node11&#45;&gt;Node12 -->
<g id="edge16" class="edge">
<title>Node11&#45;&gt;Node12</title>
<path fill="none" stroke="midnightblue" d="M132.71,-123.08C134.85,-115.85 137.95,-105.41 140.62,-96.4"/>
<polygon fill="midnightblue" stroke="midnightblue" points="143.99,-97.33 143.47,-86.75 137.28,-95.34 143.99,-97.33"/>
</g>
<!-- Node13 -->
<g id="node13" class="node">
<title>Node13</title>
<g id="a_node13"><a xlink:title=" ">
<polygon fill="white" stroke="#bfbfbf" points="53.07,-67.5 53.07,-86.5 103.07,-86.5 103.07,-67.5 53.07,-67.5"/>
<text text-anchor="middle" x="78.07" y="-74.5" font-family="Helvetica,sans-Serif" font-size="10.00">climits</text>
</a>
</g>
</g>
<!-- Node11&#45;&gt;Node13 -->
<g id="edge17" class="edge">
<title>Node11&#45;&gt;Node13</title>
<path fill="none" stroke="midnightblue" d="M121.48,-123.08C113.91,-115.22 102.69,-103.57 93.55,-94.08"/>
<polygon fill="midnightblue" stroke="midnightblue" points="95.95,-91.53 86.49,-86.75 90.91,-96.38 95.95,-91.53"/>
</g>
<!-- Node17 -->
<g id="node17" class="node">
<title>Node17</title>
<g id="a_node17"><a xlink:href="itkSize_8h.html" target="_top" xlink:title=" ">
<polygon fill="white" stroke="black" points="197.57,-179.5 197.57,-198.5 256.57,-198.5 256.57,-179.5 197.57,-179.5"/>
<text text-anchor="middle" x="227.07" y="-186.5" font-family="Helvetica,sans-Serif" font-size="10.00">itkSize.h</text>
</a>
</g>
</g>
<!-- Node16&#45;&gt;Node17 -->
<g id="edge21" class="edge">
<title>Node16&#45;&gt;Node17</title>
<path fill="none" stroke="midnightblue" d="M457.45,-291.37C413.55,-272.05 307.2,-225.26 255.81,-202.65"/>
<polygon fill="midnightblue" stroke="midnightblue" points="257.16,-199.42 246.59,-198.59 254.34,-205.82 257.16,-199.42"/>
</g>
<!-- Node16&#45;&gt;Node19 -->
<g id="edge27" class="edge">
<title>Node16&#45;&gt;Node19</title>
<path fill="none" stroke="midnightblue" d="M511.32,-294.58C574.3,-284.6 708.23,-263.39 776.37,-252.6"/>
<polygon fill="midnightblue" stroke="midnightblue" points="777,-256.05 786.33,-251.03 775.9,-249.13 777,-256.05"/>
</g>
<!-- Node17&#45;&gt;Node6 -->
<g id="edge24" class="edge">
<title>Node17&#45;&gt;Node6</title>
<path fill="none" stroke="midnightblue" d="M241.84,-179.37C268.36,-163.94 323.11,-132.37 343.07,-123 427.41,-83.41 530.82,-46.6 584.27,-28.41"/>
<polygon fill="midnightblue" stroke="midnightblue" points="585.62,-31.65 593.96,-25.13 583.37,-25.02 585.62,-31.65"/>
</g>
<!-- Node17&#45;&gt;Node7 -->
<g id="edge26" class="edge">
<title>Node17&#45;&gt;Node7</title>
<path fill="none" stroke="midnightblue" d="M251.47,-179.44C277.26,-170.4 318.14,-156.06 347.08,-145.92"/>
<polygon fill="midnightblue" stroke="midnightblue" points="348.5,-149.13 356.78,-142.52 346.18,-142.52 348.5,-149.13"/>
</g>
<!-- Node17&#45;&gt;Node8 -->
<g id="edge23" class="edge">
<title>Node17&#45;&gt;Node8</title>
<path fill="none" stroke="midnightblue" d="M222.48,-179.38C216.21,-166.31 206.84,-141.09 217.07,-123 256.53,-53.18 355.1,-29.03 412.9,-20.75"/>
<polygon fill="midnightblue" stroke="midnightblue" points="413.4,-24.21 422.85,-19.42 412.48,-17.27 413.4,-24.21"/>
</g>
<!-- Node17&#45;&gt;Node11 -->
<g id="edge22" class="edge">
<title>Node17&#45;&gt;Node11</title>
<path fill="none" stroke="midnightblue" d="M211.48,-179.32C196.07,-170.74 172.25,-157.49 154.36,-147.52"/>
<polygon fill="midnightblue" stroke="midnightblue" points="156.05,-144.46 145.61,-142.65 152.65,-150.58 156.05,-144.46"/>
</g>
<!-- Node18 -->
<g id="node18" class="node">
<title>Node18</title>
<g id="a_node18"><a xlink:title=" ">
<polygon fill="white" stroke="#bfbfbf" points="226.57,-123.5 226.57,-142.5 295.57,-142.5 295.57,-123.5 226.57,-123.5"/>
<text text-anchor="middle" x="261.07" y="-130.5" font-family="Helvetica,sans-Serif" font-size="10.00">type_traits</text>
</a>
</g>
</g>
<!-- Node17&#45;&gt;Node18 -->
<g id="edge25" class="edge">
<title>Node17&#45;&gt;Node18</title>
<path fill="none" stroke="midnightblue" d="M232.68,-179.08C237.43,-171.53 244.38,-160.49 250.22,-151.23"/>
<polygon fill="midnightblue" stroke="midnightblue" points="253.19,-153.08 255.56,-142.75 247.27,-149.35 253.19,-153.08"/>
</g>
<!-- Node20 -->
<g id="node20" class="node">
<title>Node20</title>
<g id="a_node20"><a xlink:title=" ">
<polygon fill="white" stroke="#bfbfbf" points="567.57,-179.5 567.57,-198.5 614.57,-198.5 614.57,-179.5 567.57,-179.5"/>
<text text-anchor="middle" x="591.07" y="-186.5" font-family="Helvetica,sans-Serif" font-size="10.00">cmath</text>
</a>
</g>
</g>
<!-- Node19&#45;&gt;Node20 -->
<g id="edge28" class="edge">
<title>Node19&#45;&gt;Node20</title>
<path fill="none" stroke="midnightblue" d="M786.55,-237.21C749.86,-229.2 687.23,-215.2 624.81,-199.37"/>
<polygon fill="midnightblue" stroke="midnightblue" points="625.35,-195.89 614.8,-196.81 623.62,-202.67 625.35,-195.89"/>
</g>
<!-- Node21 -->
<g id="node21" class="node">
<title>Node21</title>
<g id="a_node21"><a xlink:href="itkMathDetail_8h.html" target="_top" xlink:title=" ">
<polygon fill="white" stroke="black" points="981.07,-179.5 981.07,-198.5 1073.07,-198.5 1073.07,-179.5 981.07,-179.5"/>
<text text-anchor="middle" x="1027.07" y="-186.5" font-family="Helvetica,sans-Serif" font-size="10.00">itkMathDetail.h</text>
</a>
</g>
</g>
<!-- Node19&#45;&gt;Node21 -->
<g id="edge29" class="edge">
<title>Node19&#45;&gt;Node21</title>
<path fill="none" stroke="midnightblue" d="M849.81,-235.8C885.71,-226.52 944.35,-211.37 984.27,-201.06"/>
<polygon fill="midnightblue" stroke="midnightblue" points="985.18,-204.44 993.99,-198.55 983.43,-197.66 985.18,-204.44"/>
</g>
<!-- Node30 -->
<g id="node30" class="node">
<title>Node30</title>
<g id="a_node30"><a xlink:href="itkConceptChecking_8h.html" target="_top" xlink:title=" ">
<polygon fill="white" stroke="black" points="632.57,-179.5 632.57,-198.5 755.57,-198.5 755.57,-179.5 632.57,-179.5"/>
<text text-anchor="middle" x="694.07" y="-186.5" font-family="Helvetica,sans-Serif" font-size="10.00">itkConceptChecking.h</text>
</a>
</g>
</g>
<!-- Node19&#45;&gt;Node30 -->
<g id="edge44" class="edge">
<title>Node19&#45;&gt;Node30</title>
<path fill="none" stroke="midnightblue" d="M798.42,-235.44C778.1,-226.6 746.16,-212.69 722.97,-202.59"/>
<polygon fill="midnightblue" stroke="midnightblue" points="724.19,-199.3 713.62,-198.52 721.39,-205.72 724.19,-199.3"/>
</g>
<!-- Node32 -->
<g id="node32" class="node">
<title>Node32</title>
<g id="a_node32"><a xlink:title=" ">
<polygon fill="white" stroke="#bfbfbf" points="773.57,-179.5 773.57,-198.5 862.57,-198.5 862.57,-179.5 773.57,-179.5"/>
<text text-anchor="middle" x="818.07" y="-186.5" font-family="Helvetica,sans-Serif" font-size="10.00">vnl/vnl_math.h</text>
</a>
</g>
</g>
<!-- Node19&#45;&gt;Node32 -->
<g id="edge49" class="edge">
<title>Node19&#45;&gt;Node32</title>
<path fill="none" stroke="midnightblue" d="M818.07,-235.08C818.07,-228.01 818.07,-217.86 818.07,-208.99"/>
<polygon fill="midnightblue" stroke="midnightblue" points="821.57,-208.75 818.07,-198.75 814.57,-208.75 821.57,-208.75"/>
</g>
<!-- Node33 -->
<g id="node33" class="node">
<title>Node33</title>
<g id="a_node33"><a xlink:title=" ">
<polygon fill="white" stroke="#bfbfbf" points="881.07,-179.5 881.07,-198.5 963.07,-198.5 963.07,-179.5 881.07,-179.5"/>
<text text-anchor="middle" x="922.07" y="-186.5" font-family="Helvetica,sans-Serif" font-size="10.00">vxl_version.h</text>
</a>
</g>
</g>
<!-- Node19&#45;&gt;Node33 -->
<g id="edge50" class="edge">
<title>Node19&#45;&gt;Node33</title>
<path fill="none" stroke="midnightblue" d="M834.78,-235.32C851.38,-226.7 877.07,-213.36 896.29,-203.39"/>
<polygon fill="midnightblue" stroke="midnightblue" points="898.14,-206.37 905.4,-198.65 894.91,-200.16 898.14,-206.37"/>
</g>
<!-- Node21&#45;&gt;Node11 -->
<g id="edge30" class="edge">
<title>Node21&#45;&gt;Node11</title>
<path fill="none" stroke="midnightblue" d="M980.91,-180.05C977.92,-179.66 974.95,-179.3 972.07,-179 637.98,-143.82 552.05,-168.29 217.07,-143 205,-142.09 192.02,-140.87 179.86,-139.63"/>
<polygon fill="midnightblue" stroke="midnightblue" points="180.18,-136.15 169.87,-138.59 179.45,-143.11 180.18,-136.15"/>
</g>
<!-- Node21&#45;&gt;Node22 -->
<g id="edge31" class="edge">
<title>Node21&#45;&gt;Node22</title>
<path fill="none" stroke="midnightblue" d="M1032.85,-179.08C1037.74,-171.53 1044.89,-160.49 1050.9,-151.23"/>
<polygon fill="midnightblue" stroke="midnightblue" points="1053.89,-153.05 1056.39,-142.75 1048.02,-149.24 1053.89,-153.05"/>
</g>
<!-- Node29 -->
<g id="node29" class="node">
<title>Node29</title>
<g id="a_node29"><a xlink:title=" ">
<polygon fill="white" stroke="#bfbfbf" points="947.07,-123.5 947.07,-142.5 991.07,-142.5 991.07,-123.5 947.07,-123.5"/>
<text text-anchor="middle" x="969.07" y="-130.5" font-family="Helvetica,sans-Serif" font-size="10.00">cfenv</text>
</a>
</g>
</g>
<!-- Node21&#45;&gt;Node29 -->
<g id="edge43" class="edge">
<title>Node21&#45;&gt;Node29</title>
<path fill="none" stroke="midnightblue" d="M1017.75,-179.32C1009.17,-171.34 996.25,-159.31 985.88,-149.65"/>
<polygon fill="midnightblue" stroke="midnightblue" points="988.26,-147.09 978.56,-142.83 983.49,-152.21 988.26,-147.09"/>
</g>
<!-- Node22&#45;&gt;Node8 -->
<g id="edge32" class="edge">
<title>Node22&#45;&gt;Node8</title>
<path fill="none" stroke="midnightblue" d="M1017.09,-123.41C904.62,-101.94 612.27,-46.13 500.97,-24.88"/>
<polygon fill="midnightblue" stroke="midnightblue" points="501.56,-21.43 491.08,-22.99 500.25,-28.31 501.56,-21.43"/>
</g>
<!-- Node23 -->
<g id="node23" class="node">
<title>Node23</title>
<g id="a_node23"><a xlink:title=" ">
<polygon fill="white" stroke="#bfbfbf" points="914.07,-67.5 914.07,-86.5 958.07,-86.5 958.07,-67.5 914.07,-67.5"/>
<text text-anchor="middle" x="936.07" y="-74.5" font-family="Helvetica,sans-Serif" font-size="10.00">limits</text>
</a>
</g>
</g>
<!-- Node22&#45;&gt;Node23 -->
<g id="edge33" class="edge">
<title>Node22&#45;&gt;Node23</title>
<path fill="none" stroke="midnightblue" d="M1042.1,-123.44C1021.46,-114.6 989,-100.69 965.44,-90.59"/>
<polygon fill="midnightblue" stroke="midnightblue" points="966.51,-87.24 955.94,-86.52 963.75,-93.67 966.51,-87.24"/>
</g>
<!-- Node24 -->
<g id="node24" class="node">
<title>Node24</title>
<g id="a_node24"><a xlink:title=" ">
<polygon fill="white" stroke="#bfbfbf" points="976.57,-67.5 976.57,-86.5 1035.57,-86.5 1035.57,-67.5 976.57,-67.5"/>
<text text-anchor="middle" x="1006.07" y="-74.5" font-family="Helvetica,sans-Serif" font-size="10.00">complex</text>
</a>
</g>
</g>
<!-- Node22&#45;&gt;Node24 -->
<g id="edge34" class="edge">
<title>Node22&#45;&gt;Node24</title>
<path fill="none" stroke="midnightblue" d="M1053.07,-123.32C1044.87,-115.42 1032.56,-103.55 1022.59,-93.94"/>
<polygon fill="midnightblue" stroke="midnightblue" points="1024.86,-91.26 1015.23,-86.83 1020,-96.29 1024.86,-91.26"/>
</g>
<!-- Node25 -->
<g id="node25" class="node">
<title>Node25</title>
<g id="a_node25"><a xlink:href="itkFixedArray_8h.html" target="_top" xlink:title=" ">
<polygon fill="white" stroke="black" points="1053.57,-67.5 1053.57,-86.5 1142.57,-86.5 1142.57,-67.5 1053.57,-67.5"/>
<text text-anchor="middle" x="1098.07" y="-74.5" font-family="Helvetica,sans-Serif" font-size="10.00">itkFixedArray.h</text>
</a>
</g>
</g>
<!-- Node22&#45;&gt;Node25 -->
<g id="edge35" class="edge">
<title>Node22&#45;&gt;Node25</title>
<path fill="none" stroke="midnightblue" d="M1068.01,-123.08C1073.04,-115.53 1080.4,-104.49 1086.58,-95.23"/>
<polygon fill="midnightblue" stroke="midnightblue" points="1089.6,-97.01 1092.23,-86.75 1083.77,-93.13 1089.6,-97.01"/>
</g>
<!-- Node25&#45;&gt;Node6 -->
<g id="edge37" class="edge">
<title>Node25&#45;&gt;Node6</title>
<path fill="none" stroke="midnightblue" d="M1053.56,-68.28C1050.69,-67.83 1047.84,-67.4 1045.07,-67 905.29,-46.84 738.8,-28.78 662.31,-20.81"/>
<polygon fill="midnightblue" stroke="midnightblue" points="662.43,-17.31 652.13,-19.76 661.71,-24.27 662.43,-17.31"/>
</g>
<!-- Node25&#45;&gt;Node8 -->
<g id="edge36" class="edge">
<title>Node25&#45;&gt;Node8</title>
<path fill="none" stroke="midnightblue" d="M1053.29,-68.1C1050.51,-67.7 1047.75,-67.33 1045.07,-67 838.9,-41.59 785.8,-51.26 579.07,-31 553.29,-28.47 524.53,-25.08 501.4,-22.22"/>
<polygon fill="midnightblue" stroke="midnightblue" points="501.57,-18.71 491.21,-20.94 500.7,-25.65 501.57,-18.71"/>
</g>
<!-- Node26 -->
<g id="node26" class="node">
<title>Node26</title>
<g id="a_node26"><a xlink:title=" ">
<polygon fill="white" stroke="#bfbfbf" points="941.07,-6 941.07,-25 983.07,-25 983.07,-6 941.07,-6"/>
<text text-anchor="middle" x="962.07" y="-13" font-family="Helvetica,sans-Serif" font-size="10.00">array</text>
</a>
</g>
</g>
<!-- Node25&#45;&gt;Node26 -->
<g id="edge38" class="edge">
<title>Node25&#45;&gt;Node26</title>
<path fill="none" stroke="midnightblue" d="M1077.46,-67.4C1056.22,-58.49 1022.21,-44.06 993.07,-31 991.88,-30.47 990.66,-29.92 989.44,-29.36"/>
<polygon fill="midnightblue" stroke="midnightblue" points="990.6,-26.04 980.05,-25.03 987.67,-32.4 990.6,-26.04"/>
</g>
<!-- Node27 -->
<g id="node27" class="node">
<title>Node27</title>
<g id="a_node27"><a xlink:title=" ">
<polygon fill="white" stroke="#bfbfbf" points="1001.57,-6 1001.57,-25 1102.57,-25 1102.57,-6 1001.57,-6"/>
<text text-anchor="middle" x="1052.07" y="-13" font-family="Helvetica,sans-Serif" font-size="10.00">itkFixedArray.hxx</text>
</a>
</g>
</g>
<!-- Node25&#45;&gt;Node27 -->
<g id="edge39" class="edge">
<title>Node25&#45;&gt;Node27</title>
<path fill="none" stroke="midnightblue" d="M1091.48,-67.48C1084.58,-58.55 1073.56,-44.31 1064.93,-33.14"/>
<polygon fill="midnightblue" stroke="midnightblue" points="1067.53,-30.78 1058.65,-25.01 1061.99,-35.06 1067.53,-30.78"/>
</g>
<!-- Node25&#45;&gt;Node28 -->
<g id="edge40" class="edge">
<title>Node25&#45;&gt;Node28</title>
<path fill="none" stroke="midnightblue" d="M1107.06,-67.48C1118.76,-59.19 1139.26,-46.32 1157.59,-35.59"/>
<polygon fill="midnightblue" stroke="midnightblue" points="1159.46,-38.55 1166.38,-30.52 1155.97,-32.49 1159.46,-38.55"/>
</g>
<!-- Node28&#45;&gt;Node22 -->
<g id="edge41" class="edge">
<title>Node28&#45;&gt;Node22</title>
<path fill="none" stroke="midnightblue" d="M1189.36,-30.54C1182.47,-46.03 1169.59,-70.89 1152.07,-87 1136.44,-101.36 1115.37,-112.23 1097.55,-119.68"/>
<polygon fill="midnightblue" stroke="midnightblue" points="1096.03,-116.52 1088.04,-123.47 1098.62,-123.02 1096.03,-116.52"/>
</g>
<!-- Node28&#45;&gt;Node25 -->
<g id="edge42" class="edge">
<title>Node28&#45;&gt;Node25</title>
<path fill="none" stroke="midnightblue" d="M1178.04,-30.52C1163.51,-40.2 1142.63,-52.99 1125.76,-62.54"/>
<polygon fill="midnightblue" stroke="midnightblue" points="1123.91,-59.56 1116.87,-67.48 1127.31,-65.69 1123.91,-59.56"/>
</g>
<!-- Node30&#45;&gt;Node4 -->
<g id="edge48" class="edge">
<title>Node30&#45;&gt;Node4</title>
<path fill="none" stroke="midnightblue" d="M684.75,-179.32C676.17,-171.34 663.25,-159.31 652.88,-149.65"/>
<polygon fill="midnightblue" stroke="midnightblue" points="655.26,-147.09 645.56,-142.83 650.49,-152.21 655.26,-147.09"/>
</g>
<!-- Node30&#45;&gt;Node22 -->
<g id="edge47" class="edge">
<title>Node30&#45;&gt;Node22</title>
<path fill="none" stroke="midnightblue" d="M752.38,-179.44C819.6,-169.58 929.7,-153.42 998.9,-143.27"/>
<polygon fill="midnightblue" stroke="midnightblue" points="999.42,-146.73 1008.81,-141.82 998.41,-139.8 999.42,-146.73"/>
</g>
<!-- Node31 -->
<g id="node31" class="node">
<title>Node31</title>
<g id="a_node31"><a xlink:href="itkPixelTraits_8h.html" target="_top" xlink:title=" ">
<polygon fill="white" stroke="black" points="504.07,-67.5 504.07,-86.5 592.07,-86.5 592.07,-67.5 504.07,-67.5"/>
<text text-anchor="middle" x="548.07" y="-74.5" font-family="Helvetica,sans-Serif" font-size="10.00">itkPixelTraits.h</text>
</a>
</g>
</g>
<!-- Node30&#45;&gt;Node31 -->
<g id="edge45" class="edge">
<title>Node30&#45;&gt;Node31</title>
<path fill="none" stroke="midnightblue" d="M693.93,-179.2C693.24,-165.42 689.93,-138.72 675.07,-123 655.99,-102.82 627.28,-91.68 601.99,-85.53"/>
<polygon fill="midnightblue" stroke="midnightblue" points="602.65,-82.09 592.13,-83.34 601.13,-88.92 602.65,-82.09"/>
</g>
<!-- Node31&#45;&gt;Node8 -->
<g id="edge46" class="edge">
<title>Node31&#45;&gt;Node8</title>
<path fill="none" stroke="midnightblue" d="M535.03,-67.48C520.3,-57.84 496.09,-42.02 478.56,-30.55"/>
<polygon fill="midnightblue" stroke="midnightblue" points="480.37,-27.55 470.08,-25.01 476.54,-33.41 480.37,-27.55"/>
</g>
<!-- Node37&#45;&gt;Node25 -->
<g id="edge60" class="edge">
<title>Node37&#45;&gt;Node25</title>
<path fill="none" stroke="midnightblue" d="M1233.56,-414.17C1218.39,-388.96 1177.07,-314.05 1177.07,-246 1177.07,-246 1177.07,-246 1177.07,-188 1177.07,-147.79 1141.82,-112.22 1118.41,-93.03"/>
<polygon fill="midnightblue" stroke="midnightblue" points="1120.43,-90.17 1110.41,-86.72 1116.1,-95.66 1120.43,-90.17"/>
</g>
<!-- Node38 -->
<g id="node38" class="node">
<title>Node38</title>
<g id="a_node38"><a xlink:title=" ">
<polygon fill="white" stroke="#bfbfbf" points="1243.57,-347.5 1243.57,-366.5 1356.57,-366.5 1356.57,-347.5 1243.57,-347.5"/>
<text text-anchor="middle" x="1300.07" y="-354.5" font-family="Helvetica,sans-Serif" font-size="10.00">vnl/vnl_vector_ref.h</text>
</a>
</g>
</g>
<!-- Node37&#45;&gt;Node38 -->
<g id="edge61" class="edge">
<title>Node37&#45;&gt;Node38</title>
<path fill="none" stroke="midnightblue" d="M1247.29,-414.23C1256.9,-404 1272.98,-386.86 1284.87,-374.19"/>
<polygon fill="midnightblue" stroke="midnightblue" points="1287.68,-376.31 1291.97,-366.63 1282.58,-371.52 1287.68,-376.31"/>
</g>
<!-- Node39 -->
<g id="node39" class="node">
<title>Node39</title>
<g id="a_node39"><a xlink:title=" ">
<polygon fill="white" stroke="#bfbfbf" points="1375.07,-347.5 1375.07,-366.5 1455.07,-366.5 1455.07,-347.5 1375.07,-347.5"/>
<text text-anchor="middle" x="1415.07" y="-354.5" font-family="Helvetica,sans-Serif" font-size="10.00">itkVector.hxx</text>
</a>
</g>
</g>
<!-- Node37&#45;&gt;Node39 -->
<g id="edge62" class="edge">
<title>Node37&#45;&gt;Node39</title>
<path fill="none" stroke="midnightblue" d="M1256.45,-414.39C1264.21,-410.68 1273.51,-406.43 1282.07,-403 1313.67,-390.35 1350.38,-378.11 1377.21,-369.59"/>
<polygon fill="midnightblue" stroke="midnightblue" points="1378.49,-372.86 1386.98,-366.52 1376.39,-366.18 1378.49,-372.86"/>
</g>
</g>
</svg>
