<?xml version="1.0" encoding="UTF-8" standalone="no"?>
<!DOCTYPE svg PUBLIC "-//W3C//DTD SVG 1.1//EN"
 "http://www.w3.org/Graphics/SVG/1.1/DTD/svg11.dtd">
<!-- Generated by graphviz version 2.43.0 (0)
 -->
<!-- Title: itkBSplineKernelFunction.h Pages: 1 -->
<svg width="1478pt" height="711pt"
 viewBox="0.00 0.00 1477.68 711.00" xmlns="http://www.w3.org/2000/svg" xmlns:xlink="http://www.w3.org/1999/xlink">
<g id="graph0" class="graph" transform="scale(1 1) rotate(0) translate(4 707)">
<title>itkBSplineKernelFunction.h</title>
<polygon fill="white" stroke="transparent" points="-4,4 -4,-707 1473.68,-707 1473.68,4 -4,4"/>
<!-- Node1 -->
<g id="node1" class="node">
<title>Node1</title>
<g id="a_node1"><a xlink:title=" ">
<polygon fill="#bfbfbf" stroke="black" points="692.5,-683.5 692.5,-702.5 839.5,-702.5 839.5,-683.5 692.5,-683.5"/>
<text text-anchor="middle" x="766" y="-690.5" font-family="Helvetica,sans-Serif" font-size="10.00">itkBSplineKernelFunction.h</text>
</a>
</g>
</g>
<!-- Node2 -->
<g id="node2" class="node">
<title>Node2</title>
<g id="a_node2"><a xlink:href="itkKernelFunctionBase_8h.html" target="_top" xlink:title=" ">
<polygon fill="white" stroke="black" points="619,-627.5 619,-646.5 753,-646.5 753,-627.5 619,-627.5"/>
<text text-anchor="middle" x="686" y="-634.5" font-family="Helvetica,sans-Serif" font-size="10.00">itkKernelFunctionBase.h</text>
</a>
</g>
</g>
<!-- Node1&#45;&gt;Node2 -->
<g id="edge1" class="edge">
<title>Node1&#45;&gt;Node2</title>
<path fill="none" stroke="midnightblue" d="M753.15,-683.32C740.78,-674.98 721.87,-662.21 707.26,-652.35"/>
<polygon fill="midnightblue" stroke="midnightblue" points="709.07,-649.35 698.82,-646.65 705.15,-655.15 709.07,-649.35"/>
</g>
<!-- Node44 -->
<g id="node44" class="node">
<title>Node44</title>
<g id="a_node44"><a xlink:href="itkMath_8h.html" target="_top" xlink:title=" ">
<polygon fill="white" stroke="black" points="809.5,-459.5 809.5,-478.5 872.5,-478.5 872.5,-459.5 809.5,-459.5"/>
<text text-anchor="middle" x="841" y="-466.5" font-family="Helvetica,sans-Serif" font-size="10.00">itkMath.h</text>
</a>
</g>
</g>
<!-- Node1&#45;&gt;Node44 -->
<g id="edge75" class="edge">
<title>Node1&#45;&gt;Node44</title>
<path fill="none" stroke="midnightblue" d="M772.94,-683.46C786.04,-666.82 814.22,-628.41 827,-591 838.81,-556.43 841.06,-513.43 841.27,-489.1"/>
<polygon fill="midnightblue" stroke="midnightblue" points="844.77,-488.78 841.24,-478.79 837.77,-488.79 844.77,-488.78"/>
</g>
<!-- Node3 -->
<g id="node3" class="node">
<title>Node3</title>
<g id="a_node3"><a xlink:href="itkFunctionBase_8h.html" target="_top" xlink:title=" ">
<polygon fill="white" stroke="black" points="714,-571.5 714,-590.5 818,-590.5 818,-571.5 714,-571.5"/>
<text text-anchor="middle" x="766" y="-578.5" font-family="Helvetica,sans-Serif" font-size="10.00">itkFunctionBase.h</text>
</a>
</g>
</g>
<!-- Node2&#45;&gt;Node3 -->
<g id="edge2" class="edge">
<title>Node2&#45;&gt;Node3</title>
<path fill="none" stroke="midnightblue" d="M698.85,-627.32C711.22,-618.98 730.13,-606.21 744.74,-596.35"/>
<polygon fill="midnightblue" stroke="midnightblue" points="746.85,-599.15 753.18,-590.65 742.93,-593.35 746.85,-599.15"/>
</g>
<!-- Node35 -->
<g id="node35" class="node">
<title>Node35</title>
<g id="a_node35"><a xlink:href="itkConceptChecking_8h.html" target="_top" xlink:title=" ">
<polygon fill="white" stroke="black" points="510.5,-403.5 510.5,-422.5 633.5,-422.5 633.5,-403.5 510.5,-403.5"/>
<text text-anchor="middle" x="572" y="-410.5" font-family="Helvetica,sans-Serif" font-size="10.00">itkConceptChecking.h</text>
</a>
</g>
</g>
<!-- Node2&#45;&gt;Node35 -->
<g id="edge49" class="edge">
<title>Node2&#45;&gt;Node35</title>
<path fill="none" stroke="midnightblue" d="M681.53,-627.3C664.62,-594.36 604.3,-476.9 581.14,-431.81"/>
<polygon fill="midnightblue" stroke="midnightblue" points="584.24,-430.18 576.56,-422.88 578.02,-433.38 584.24,-430.18"/>
</g>
<!-- Node37 -->
<g id="node37" class="node">
<title>Node37</title>
<g id="a_node37"><a xlink:href="itkNumericTraits_8h.html" target="_top" xlink:title=" ">
<polygon fill="white" stroke="black" points="381,-347.5 381,-366.5 487,-366.5 487,-347.5 381,-347.5"/>
<text text-anchor="middle" x="434" y="-354.5" font-family="Helvetica,sans-Serif" font-size="10.00">itkNumericTraits.h</text>
</a>
</g>
</g>
<!-- Node2&#45;&gt;Node37 -->
<g id="edge65" class="edge">
<title>Node2&#45;&gt;Node37</title>
<path fill="none" stroke="midnightblue" d="M618.78,-633.8C545.94,-627.41 440,-604.6 440,-526 440,-526 440,-526 440,-468 440,-435.9 437.42,-398.61 435.64,-376.73"/>
<polygon fill="midnightblue" stroke="midnightblue" points="439.11,-376.22 434.78,-366.55 432.14,-376.81 439.11,-376.22"/>
</g>
<!-- Node2&#45;&gt;Node44 -->
<g id="edge66" class="edge">
<title>Node2&#45;&gt;Node44</title>
<path fill="none" stroke="midnightblue" d="M686.78,-627.25C688.33,-614.01 692.77,-588.56 705,-571 733.17,-530.53 782.78,-499.75 813.66,-483.33"/>
<polygon fill="midnightblue" stroke="midnightblue" points="815.33,-486.4 822.59,-478.69 812.1,-480.19 815.33,-486.4"/>
</g>
<!-- Node4 -->
<g id="node4" class="node">
<title>Node4</title>
<g id="a_node4"><a xlink:href="itkObject_8h.html" target="_top" xlink:title=" ">
<polygon fill="white" stroke="black" points="998,-347.5 998,-366.5 1068,-366.5 1068,-347.5 998,-347.5"/>
<text text-anchor="middle" x="1033" y="-354.5" font-family="Helvetica,sans-Serif" font-size="10.00">itkObject.h</text>
</a>
</g>
</g>
<!-- Node3&#45;&gt;Node4 -->
<g id="edge3" class="edge">
<title>Node3&#45;&gt;Node4</title>
<path fill="none" stroke="midnightblue" d="M764.09,-571.14C758.46,-542.43 745.07,-450.97 791,-403 817.45,-375.37 925.27,-364.38 987.7,-360.26"/>
<polygon fill="midnightblue" stroke="midnightblue" points="987.92,-363.76 997.69,-359.64 987.49,-356.77 987.92,-363.76"/>
</g>
<!-- Node29 -->
<g id="node29" class="node">
<title>Node29</title>
<g id="a_node29"><a xlink:href="itkObjectFactory_8h.html" target="_top" xlink:title=" ">
<polygon fill="white" stroke="black" points="1035,-515.5 1035,-534.5 1139,-534.5 1139,-515.5 1035,-515.5"/>
<text text-anchor="middle" x="1087" y="-522.5" font-family="Helvetica,sans-Serif" font-size="10.00">itkObjectFactory.h</text>
</a>
</g>
</g>
<!-- Node3&#45;&gt;Node29 -->
<g id="edge39" class="edge">
<title>Node3&#45;&gt;Node29</title>
<path fill="none" stroke="midnightblue" d="M816.86,-571.44C873.68,-561.89 965.62,-546.42 1026.19,-536.23"/>
<polygon fill="midnightblue" stroke="midnightblue" points="1027.09,-539.63 1036.37,-534.52 1025.93,-532.72 1027.09,-539.63"/>
</g>
<!-- Node5 -->
<g id="node5" class="node">
<title>Node5</title>
<g id="a_node5"><a xlink:href="itkLightObject_8h.html" target="_top" xlink:title=" ">
<polygon fill="white" stroke="black" points="863,-168.5 863,-187.5 957,-187.5 957,-168.5 863,-168.5"/>
<text text-anchor="middle" x="910" y="-175.5" font-family="Helvetica,sans-Serif" font-size="10.00">itkLightObject.h</text>
</a>
</g>
</g>
<!-- Node4&#45;&gt;Node5 -->
<g id="edge4" class="edge">
<title>Node4&#45;&gt;Node5</title>
<path fill="none" stroke="midnightblue" d="M997.91,-348.95C952.69,-337.78 875.87,-311.23 842,-255 834.89,-243.2 835.48,-236.14 842,-224 849.62,-209.82 863.9,-199.35 877.41,-192.1"/>
<polygon fill="midnightblue" stroke="midnightblue" points="879.13,-195.16 886.55,-187.59 876.03,-188.88 879.13,-195.16"/>
</g>
<!-- Node17 -->
<g id="node17" class="node">
<title>Node17</title>
<g id="a_node17"><a xlink:href="itkSingletonMacro_8h.html" target="_top" xlink:title=" ">
<polygon fill="white" stroke="black" points="1194,-56.5 1194,-75.5 1308,-75.5 1308,-56.5 1194,-56.5"/>
<text text-anchor="middle" x="1251" y="-63.5" font-family="Helvetica,sans-Serif" font-size="10.00">itkSingletonMacro.h</text>
</a>
</g>
</g>
<!-- Node4&#45;&gt;Node17 -->
<g id="edge37" class="edge">
<title>Node4&#45;&gt;Node17</title>
<path fill="none" stroke="midnightblue" d="M1068.11,-355.93C1104.47,-353.9 1160.43,-344.93 1193,-311 1224.47,-278.22 1243.18,-136.7 1249.02,-85.54"/>
<polygon fill="midnightblue" stroke="midnightblue" points="1252.5,-85.9 1250.12,-75.57 1245.54,-85.13 1252.5,-85.9"/>
</g>
<!-- Node20 -->
<g id="node20" class="node">
<title>Node20</title>
<g id="a_node20"><a xlink:href="itkEventObject_8h.html" target="_top" xlink:title=" ">
<polygon fill="white" stroke="black" points="616,-168.5 616,-187.5 714,-187.5 714,-168.5 616,-168.5"/>
<text text-anchor="middle" x="665" y="-175.5" font-family="Helvetica,sans-Serif" font-size="10.00">itkEventObject.h</text>
</a>
</g>
</g>
<!-- Node4&#45;&gt;Node20 -->
<g id="edge25" class="edge">
<title>Node4&#45;&gt;Node20</title>
<path fill="none" stroke="midnightblue" d="M998,-356.7C927.76,-356.08 769.1,-344.24 684,-255 669.43,-239.73 665.55,-215.04 664.74,-197.97"/>
<polygon fill="midnightblue" stroke="midnightblue" points="668.24,-197.52 664.59,-187.57 661.24,-197.63 668.24,-197.52"/>
</g>
<!-- Node21 -->
<g id="node21" class="node">
<title>Node21</title>
<g id="a_node21"><a xlink:href="itkMetaDataDictionary_8h.html" target="_top" xlink:title=" ">
<polygon fill="white" stroke="black" points="965.5,-291.5 965.5,-310.5 1100.5,-310.5 1100.5,-291.5 965.5,-291.5"/>
<text text-anchor="middle" x="1033" y="-298.5" font-family="Helvetica,sans-Serif" font-size="10.00">itkMetaDataDictionary.h</text>
</a>
</g>
</g>
<!-- Node4&#45;&gt;Node21 -->
<g id="edge27" class="edge">
<title>Node4&#45;&gt;Node21</title>
<path fill="none" stroke="midnightblue" d="M1033,-347.08C1033,-340.01 1033,-329.86 1033,-320.99"/>
<polygon fill="midnightblue" stroke="midnightblue" points="1036.5,-320.75 1033,-310.75 1029.5,-320.75 1036.5,-320.75"/>
</g>
<!-- Node28 -->
<g id="node28" class="node">
<title>Node28</title>
<g id="a_node28"><a xlink:title=" ">
<polygon fill="white" stroke="#bfbfbf" points="1118.5,-291.5 1118.5,-310.5 1183.5,-310.5 1183.5,-291.5 1118.5,-291.5"/>
<text text-anchor="middle" x="1151" y="-298.5" font-family="Helvetica,sans-Serif" font-size="10.00">functional</text>
</a>
</g>
</g>
<!-- Node4&#45;&gt;Node28 -->
<g id="edge38" class="edge">
<title>Node4&#45;&gt;Node28</title>
<path fill="none" stroke="midnightblue" d="M1051.7,-347.44C1070.94,-338.64 1101.15,-324.81 1123.2,-314.72"/>
<polygon fill="midnightblue" stroke="midnightblue" points="1124.75,-317.86 1132.39,-310.52 1121.84,-311.5 1124.75,-317.86"/>
</g>
<!-- Node6 -->
<g id="node6" class="node">
<title>Node6</title>
<g id="a_node6"><a xlink:href="itkMacro_8h.html" target="_top" xlink:title=" ">
<polygon fill="white" stroke="black" points="515,-0.5 515,-19.5 583,-19.5 583,-0.5 515,-0.5"/>
<text text-anchor="middle" x="549" y="-7.5" font-family="Helvetica,sans-Serif" font-size="10.00">itkMacro.h</text>
</a>
</g>
</g>
<!-- Node5&#45;&gt;Node6 -->
<g id="edge5" class="edge">
<title>Node5&#45;&gt;Node6</title>
<path fill="none" stroke="midnightblue" d="M912.52,-168.23C918.31,-146.04 929.86,-87.24 900,-56 879.12,-34.16 683.08,-19.31 593.4,-13.61"/>
<polygon fill="midnightblue" stroke="midnightblue" points="593.46,-10.11 583.26,-12.97 593.03,-17.09 593.46,-10.11"/>
</g>
<!-- Node7 -->
<g id="node7" class="node">
<title>Node7</title>
<g id="a_node7"><a xlink:href="itkSmartPointer_8h.html" target="_top" xlink:title=" ">
<polygon fill="white" stroke="black" points="780.5,-112.5 780.5,-131.5 881.5,-131.5 881.5,-112.5 780.5,-112.5"/>
<text text-anchor="middle" x="831" y="-119.5" font-family="Helvetica,sans-Serif" font-size="10.00">itkSmartPointer.h</text>
</a>
</g>
</g>
<!-- Node5&#45;&gt;Node7 -->
<g id="edge6" class="edge">
<title>Node5&#45;&gt;Node7</title>
<path fill="none" stroke="midnightblue" d="M897.31,-168.32C885.1,-159.98 866.42,-147.21 852,-137.35"/>
<polygon fill="midnightblue" stroke="midnightblue" points="853.89,-134.41 843.66,-131.65 849.94,-140.19 853.89,-134.41"/>
</g>
<!-- Node8 -->
<g id="node8" class="node">
<title>Node8</title>
<g id="a_node8"><a xlink:title=" ">
<polygon fill="white" stroke="#bfbfbf" points="577,-56.5 577,-75.5 637,-75.5 637,-56.5 577,-56.5"/>
<text text-anchor="middle" x="607" y="-63.5" font-family="Helvetica,sans-Serif" font-size="10.00">iostream</text>
</a>
</g>
</g>
<!-- Node5&#45;&gt;Node8 -->
<g id="edge23" class="edge">
<title>Node5&#45;&gt;Node8</title>
<path fill="none" stroke="midnightblue" d="M880.59,-168.45C852.42,-160.02 808.87,-146.34 772,-132 751.98,-124.21 747.86,-120.19 728,-112 699.05,-100.05 665.65,-87.74 641.28,-79.02"/>
<polygon fill="midnightblue" stroke="midnightblue" points="642.36,-75.69 631.76,-75.63 640.01,-82.28 642.36,-75.69"/>
</g>
<!-- Node12 -->
<g id="node12" class="node">
<title>Node12</title>
<g id="a_node12"><a xlink:href="itkTimeStamp_8h.html" target="_top" xlink:title=" ">
<polygon fill="white" stroke="black" points="976.5,-112.5 976.5,-131.5 1071.5,-131.5 1071.5,-112.5 976.5,-112.5"/>
<text text-anchor="middle" x="1024" y="-119.5" font-family="Helvetica,sans-Serif" font-size="10.00">itkTimeStamp.h</text>
</a>
</g>
</g>
<!-- Node5&#45;&gt;Node12 -->
<g id="edge11" class="edge">
<title>Node5&#45;&gt;Node12</title>
<path fill="none" stroke="midnightblue" d="M928.06,-168.44C946.57,-159.68 975.58,-145.94 996.86,-135.86"/>
<polygon fill="midnightblue" stroke="midnightblue" points="998.48,-138.96 1006.02,-131.52 995.49,-132.63 998.48,-138.96"/>
</g>
<!-- Node16 -->
<g id="node16" class="node">
<title>Node16</title>
<g id="a_node16"><a xlink:title=" ">
<polygon fill="white" stroke="#bfbfbf" points="947,-56.5 947,-75.5 997,-75.5 997,-56.5 947,-56.5"/>
<text text-anchor="middle" x="972" y="-63.5" font-family="Helvetica,sans-Serif" font-size="10.00">atomic</text>
</a>
</g>
</g>
<!-- Node5&#45;&gt;Node16 -->
<g id="edge22" class="edge">
<title>Node5&#45;&gt;Node16</title>
<path fill="none" stroke="midnightblue" d="M914.87,-168.37C925.05,-150.3 948.79,-108.18 962.24,-84.31"/>
<polygon fill="midnightblue" stroke="midnightblue" points="965.3,-86.02 967.16,-75.59 959.2,-82.58 965.3,-86.02"/>
</g>
<!-- Node18 -->
<g id="node18" class="node">
<title>Node18</title>
<g id="a_node18"><a xlink:href="itkIndent_8h.html" target="_top" xlink:title=" ">
<polygon fill="white" stroke="black" points="616.5,-112.5 616.5,-131.5 685.5,-131.5 685.5,-112.5 616.5,-112.5"/>
<text text-anchor="middle" x="651" y="-119.5" font-family="Helvetica,sans-Serif" font-size="10.00">itkIndent.h</text>
</a>
</g>
</g>
<!-- Node5&#45;&gt;Node18 -->
<g id="edge19" class="edge">
<title>Node5&#45;&gt;Node18</title>
<path fill="none" stroke="midnightblue" d="M868.96,-168.44C821.69,-158.59 744.29,-142.45 695.57,-132.29"/>
<polygon fill="midnightblue" stroke="midnightblue" points="696.13,-128.84 685.63,-130.22 694.71,-135.69 696.13,-128.84"/>
</g>
<!-- Node19 -->
<g id="node19" class="node">
<title>Node19</title>
<g id="a_node19"><a xlink:title=" ">
<polygon fill="white" stroke="#bfbfbf" points="1089.5,-112.5 1089.5,-131.5 1146.5,-131.5 1146.5,-112.5 1089.5,-112.5"/>
<text text-anchor="middle" x="1118" y="-119.5" font-family="Helvetica,sans-Serif" font-size="10.00">typeinfo</text>
</a>
</g>
</g>
<!-- Node5&#45;&gt;Node19 -->
<g id="edge24" class="edge">
<title>Node5&#45;&gt;Node19</title>
<path fill="none" stroke="midnightblue" d="M942.96,-168.44C980.05,-158.81 1040.24,-143.19 1079.47,-133"/>
<polygon fill="midnightblue" stroke="midnightblue" points="1080.42,-136.37 1089.22,-130.47 1078.66,-129.6 1080.42,-136.37"/>
</g>
<!-- Node7&#45;&gt;Node8 -->
<g id="edge7" class="edge">
<title>Node7&#45;&gt;Node8</title>
<path fill="none" stroke="midnightblue" d="M795.51,-112.44C755.16,-102.72 689.45,-86.88 647.23,-76.7"/>
<polygon fill="midnightblue" stroke="midnightblue" points="647.84,-73.25 637.3,-74.3 646.2,-80.05 647.84,-73.25"/>
</g>
<!-- Node9 -->
<g id="node9" class="node">
<title>Node9</title>
<g id="a_node9"><a xlink:title=" ">
<polygon fill="white" stroke="#bfbfbf" points="655.5,-56.5 655.5,-75.5 700.5,-75.5 700.5,-56.5 655.5,-56.5"/>
<text text-anchor="middle" x="678" y="-63.5" font-family="Helvetica,sans-Serif" font-size="10.00">utility</text>
</a>
</g>
</g>
<!-- Node7&#45;&gt;Node9 -->
<g id="edge8" class="edge">
<title>Node7&#45;&gt;Node9</title>
<path fill="none" stroke="midnightblue" d="M806.76,-112.44C780.68,-103.24 739.08,-88.56 710.25,-78.38"/>
<polygon fill="midnightblue" stroke="midnightblue" points="711.23,-75.02 700.63,-74.99 708.9,-81.62 711.23,-75.02"/>
</g>
<!-- Node10 -->
<g id="node10" class="node">
<title>Node10</title>
<g id="a_node10"><a xlink:title=" ">
<polygon fill="white" stroke="#bfbfbf" points="718.5,-56.5 718.5,-75.5 787.5,-75.5 787.5,-56.5 718.5,-56.5"/>
<text text-anchor="middle" x="753" y="-63.5" font-family="Helvetica,sans-Serif" font-size="10.00">type_traits</text>
</a>
</g>
</g>
<!-- Node7&#45;&gt;Node10 -->
<g id="edge9" class="edge">
<title>Node7&#45;&gt;Node10</title>
<path fill="none" stroke="midnightblue" d="M818.47,-112.32C806.41,-103.98 787.97,-91.21 773.73,-81.35"/>
<polygon fill="midnightblue" stroke="midnightblue" points="775.72,-78.47 765.5,-75.65 771.73,-84.22 775.72,-78.47"/>
</g>
<!-- Node11 -->
<g id="node11" class="node">
<title>Node11</title>
<g id="a_node11"><a xlink:title=" ">
<polygon fill="white" stroke="#bfbfbf" points="805.5,-56.5 805.5,-75.5 890.5,-75.5 890.5,-56.5 805.5,-56.5"/>
<text text-anchor="middle" x="848" y="-63.5" font-family="Helvetica,sans-Serif" font-size="10.00">itkConfigure.h</text>
</a>
</g>
</g>
<!-- Node7&#45;&gt;Node11 -->
<g id="edge10" class="edge">
<title>Node7&#45;&gt;Node11</title>
<path fill="none" stroke="midnightblue" d="M833.81,-112.08C836.08,-104.85 839.37,-94.41 842.21,-85.4"/>
<polygon fill="midnightblue" stroke="midnightblue" points="845.58,-86.34 845.25,-75.75 838.9,-84.24 845.58,-86.34"/>
</g>
<!-- Node12&#45;&gt;Node6 -->
<g id="edge12" class="edge">
<title>Node12&#45;&gt;Node6</title>
<path fill="none" stroke="midnightblue" d="M1024.44,-112.22C1024.62,-97.98 1022.67,-70.02 1006,-56 974.82,-29.77 701.98,-16.73 593.35,-12.55"/>
<polygon fill="midnightblue" stroke="midnightblue" points="593.18,-9.04 583.06,-12.16 592.92,-16.03 593.18,-9.04"/>
</g>
<!-- Node13 -->
<g id="node13" class="node">
<title>Node13</title>
<g id="a_node13"><a xlink:href="itkIntTypes_8h.html" target="_top" xlink:title=" ">
<polygon fill="white" stroke="black" points="1074.5,-56.5 1074.5,-75.5 1153.5,-75.5 1153.5,-56.5 1074.5,-56.5"/>
<text text-anchor="middle" x="1114" y="-63.5" font-family="Helvetica,sans-Serif" font-size="10.00">itkIntTypes.h</text>
</a>
</g>
</g>
<!-- Node12&#45;&gt;Node13 -->
<g id="edge13" class="edge">
<title>Node12&#45;&gt;Node13</title>
<path fill="none" stroke="midnightblue" d="M1038.46,-112.32C1052.5,-103.9 1074.05,-90.97 1090.54,-81.07"/>
<polygon fill="midnightblue" stroke="midnightblue" points="1092.8,-83.8 1099.58,-75.65 1089.2,-77.8 1092.8,-83.8"/>
</g>
<!-- Node12&#45;&gt;Node16 -->
<g id="edge17" class="edge">
<title>Node12&#45;&gt;Node16</title>
<path fill="none" stroke="midnightblue" d="M1015.41,-112.08C1007.84,-104.22 996.62,-92.57 987.49,-83.08"/>
<polygon fill="midnightblue" stroke="midnightblue" points="989.88,-80.53 980.43,-75.75 984.84,-85.38 989.88,-80.53"/>
</g>
<!-- Node12&#45;&gt;Node17 -->
<g id="edge18" class="edge">
<title>Node12&#45;&gt;Node17</title>
<path fill="none" stroke="midnightblue" d="M1059.97,-112.44C1099.32,-103.08 1162.49,-88.06 1205.31,-77.87"/>
<polygon fill="midnightblue" stroke="midnightblue" points="1206.28,-81.24 1215.2,-75.52 1204.66,-74.43 1206.28,-81.24"/>
</g>
<!-- Node13&#45;&gt;Node6 -->
<g id="edge14" class="edge">
<title>Node13&#45;&gt;Node6</title>
<path fill="none" stroke="midnightblue" d="M1074.32,-60.03C1062.93,-58.66 1050.48,-57.22 1039,-56 874.88,-38.62 679.41,-21.84 593.37,-14.66"/>
<polygon fill="midnightblue" stroke="midnightblue" points="593.45,-11.15 583.19,-13.81 592.87,-18.13 593.45,-11.15"/>
</g>
<!-- Node14 -->
<g id="node14" class="node">
<title>Node14</title>
<g id="a_node14"><a xlink:title=" ">
<polygon fill="white" stroke="#bfbfbf" points="1123,-0.5 1123,-19.5 1173,-19.5 1173,-0.5 1123,-0.5"/>
<text text-anchor="middle" x="1148" y="-7.5" font-family="Helvetica,sans-Serif" font-size="10.00">cstdint</text>
</a>
</g>
</g>
<!-- Node13&#45;&gt;Node14 -->
<g id="edge15" class="edge">
<title>Node13&#45;&gt;Node14</title>
<path fill="none" stroke="midnightblue" d="M1119.61,-56.08C1124.37,-48.53 1131.32,-37.49 1137.15,-28.23"/>
<polygon fill="midnightblue" stroke="midnightblue" points="1140.12,-30.08 1142.49,-19.75 1134.2,-26.35 1140.12,-30.08"/>
</g>
<!-- Node15 -->
<g id="node15" class="node">
<title>Node15</title>
<g id="a_node15"><a xlink:title=" ">
<polygon fill="white" stroke="#bfbfbf" points="1055,-0.5 1055,-19.5 1105,-19.5 1105,-0.5 1055,-0.5"/>
<text text-anchor="middle" x="1080" y="-7.5" font-family="Helvetica,sans-Serif" font-size="10.00">climits</text>
</a>
</g>
</g>
<!-- Node13&#45;&gt;Node15 -->
<g id="edge16" class="edge">
<title>Node13&#45;&gt;Node15</title>
<path fill="none" stroke="midnightblue" d="M1108.39,-56.08C1103.63,-48.53 1096.68,-37.49 1090.85,-28.23"/>
<polygon fill="midnightblue" stroke="midnightblue" points="1093.8,-26.35 1085.51,-19.75 1087.88,-30.08 1093.8,-26.35"/>
</g>
<!-- Node18&#45;&gt;Node6 -->
<g id="edge20" class="edge">
<title>Node18&#45;&gt;Node6</title>
<path fill="none" stroke="midnightblue" d="M623.41,-112.35C605.22,-105.3 582.21,-93.6 568,-76 557.28,-62.72 552.61,-43.59 550.57,-29.53"/>
<polygon fill="midnightblue" stroke="midnightblue" points="554.04,-29.08 549.44,-19.54 547.09,-29.87 554.04,-29.08"/>
</g>
<!-- Node18&#45;&gt;Node8 -->
<g id="edge21" class="edge">
<title>Node18&#45;&gt;Node8</title>
<path fill="none" stroke="midnightblue" d="M643.73,-112.08C637.46,-104.38 628.21,-93.03 620.57,-83.65"/>
<polygon fill="midnightblue" stroke="midnightblue" points="623.16,-81.29 614.13,-75.75 617.73,-85.71 623.16,-81.29"/>
</g>
<!-- Node20&#45;&gt;Node18 -->
<g id="edge26" class="edge">
<title>Node20&#45;&gt;Node18</title>
<path fill="none" stroke="midnightblue" d="M662.69,-168.08C660.83,-160.93 658.16,-150.64 655.85,-141.69"/>
<polygon fill="midnightblue" stroke="midnightblue" points="659.17,-140.55 653.27,-131.75 652.39,-142.31 659.17,-140.55"/>
</g>
<!-- Node22 -->
<g id="node22" class="node">
<title>Node22</title>
<g id="a_node22"><a xlink:href="itkMetaDataObjectBase_8h.html" target="_top" xlink:title=" ">
<polygon fill="white" stroke="black" points="851,-230 851,-249 993,-249 993,-230 851,-230"/>
<text text-anchor="middle" x="922" y="-237" font-family="Helvetica,sans-Serif" font-size="10.00">itkMetaDataObjectBase.h</text>
</a>
</g>
</g>
<!-- Node21&#45;&gt;Node22 -->
<g id="edge28" class="edge">
<title>Node21&#45;&gt;Node22</title>
<path fill="none" stroke="midnightblue" d="M1017.1,-291.48C998.72,-281.62 968.24,-265.29 946.76,-253.77"/>
<polygon fill="midnightblue" stroke="midnightblue" points="948.34,-250.65 937.87,-249.01 945.03,-256.82 948.34,-250.65"/>
</g>
<!-- Node23 -->
<g id="node23" class="node">
<title>Node23</title>
<g id="a_node23"><a xlink:title=" ">
<polygon fill="white" stroke="#bfbfbf" points="693,-230 693,-249 757,-249 757,-230 693,-230"/>
<text text-anchor="middle" x="725" y="-237" font-family="Helvetica,sans-Serif" font-size="10.00">algorithm</text>
</a>
</g>
</g>
<!-- Node21&#45;&gt;Node23 -->
<g id="edge32" class="edge">
<title>Node21&#45;&gt;Node23</title>
<path fill="none" stroke="midnightblue" d="M988.87,-291.48C929.71,-280.05 825.42,-259.9 767.24,-248.66"/>
<polygon fill="midnightblue" stroke="midnightblue" points="767.76,-245.2 757.28,-246.74 766.44,-252.07 767.76,-245.2"/>
</g>
<!-- Node24 -->
<g id="node24" class="node">
<title>Node24</title>
<g id="a_node24"><a xlink:title=" ">
<polygon fill="white" stroke="#bfbfbf" points="1243.5,-230 1243.5,-249 1290.5,-249 1290.5,-230 1243.5,-230"/>
<text text-anchor="middle" x="1267" y="-237" font-family="Helvetica,sans-Serif" font-size="10.00">vector</text>
</a>
</g>
</g>
<!-- Node21&#45;&gt;Node24 -->
<g id="edge33" class="edge">
<title>Node21&#45;&gt;Node24</title>
<path fill="none" stroke="midnightblue" d="M1066.53,-291.48C1111.08,-280.15 1189.32,-260.25 1233.74,-248.96"/>
<polygon fill="midnightblue" stroke="midnightblue" points="1234.64,-252.34 1243.47,-246.48 1232.92,-245.56 1234.64,-252.34"/>
</g>
<!-- Node25 -->
<g id="node25" class="node">
<title>Node25</title>
<g id="a_node25"><a xlink:title=" ">
<polygon fill="white" stroke="#bfbfbf" points="1149,-230 1149,-249 1187,-249 1187,-230 1149,-230"/>
<text text-anchor="middle" x="1168" y="-237" font-family="Helvetica,sans-Serif" font-size="10.00">map</text>
</a>
</g>
</g>
<!-- Node21&#45;&gt;Node25 -->
<g id="edge34" class="edge">
<title>Node21&#45;&gt;Node25</title>
<path fill="none" stroke="midnightblue" d="M1054.95,-291.37C1076.73,-282.66 1110.98,-268.59 1140,-255 1140.99,-254.54 1142,-254.06 1143.01,-253.56"/>
<polygon fill="midnightblue" stroke="midnightblue" points="1144.74,-256.61 1152.12,-249 1141.61,-250.35 1144.74,-256.61"/>
</g>
<!-- Node26 -->
<g id="node26" class="node">
<title>Node26</title>
<g id="a_node26"><a xlink:title=" ">
<polygon fill="white" stroke="#bfbfbf" points="1011,-230 1011,-249 1055,-249 1055,-230 1011,-230"/>
<text text-anchor="middle" x="1033" y="-237" font-family="Helvetica,sans-Serif" font-size="10.00">string</text>
</a>
</g>
</g>
<!-- Node21&#45;&gt;Node26 -->
<g id="edge35" class="edge">
<title>Node21&#45;&gt;Node26</title>
<path fill="none" stroke="midnightblue" d="M1033,-291.48C1033,-283.08 1033,-269.98 1033,-259.16"/>
<polygon fill="midnightblue" stroke="midnightblue" points="1036.5,-259.01 1033,-249.01 1029.5,-259.01 1036.5,-259.01"/>
</g>
<!-- Node27 -->
<g id="node27" class="node">
<title>Node27</title>
<g id="a_node27"><a xlink:title=" ">
<polygon fill="white" stroke="#bfbfbf" points="1073,-230 1073,-249 1131,-249 1131,-230 1073,-230"/>
<text text-anchor="middle" x="1102" y="-237" font-family="Helvetica,sans-Serif" font-size="10.00">memory</text>
</a>
</g>
</g>
<!-- Node21&#45;&gt;Node27 -->
<g id="edge36" class="edge">
<title>Node21&#45;&gt;Node27</title>
<path fill="none" stroke="midnightblue" d="M1042.89,-291.48C1053.65,-282.2 1071.07,-267.17 1084.22,-255.83"/>
<polygon fill="midnightblue" stroke="midnightblue" points="1086.84,-258.19 1092.13,-249.01 1082.27,-252.89 1086.84,-258.19"/>
</g>
<!-- Node22&#45;&gt;Node5 -->
<g id="edge29" class="edge">
<title>Node22&#45;&gt;Node5</title>
<path fill="none" stroke="midnightblue" d="M920.28,-229.98C918.57,-221.49 915.89,-208.2 913.7,-197.32"/>
<polygon fill="midnightblue" stroke="midnightblue" points="917.12,-196.62 911.72,-187.51 910.26,-198 917.12,-196.62"/>
</g>
<!-- Node22&#45;&gt;Node8 -->
<g id="edge31" class="edge">
<title>Node22&#45;&gt;Node8</title>
<path fill="none" stroke="midnightblue" d="M906.07,-229.96C872.81,-212.09 793.64,-169.31 728,-132 712.76,-123.34 709.35,-120.47 694,-112 673.78,-100.83 650.52,-88.85 633.14,-80.05"/>
<polygon fill="midnightblue" stroke="midnightblue" points="634.65,-76.9 624.15,-75.52 631.51,-83.15 634.65,-76.9"/>
</g>
<!-- Node22&#45;&gt;Node19 -->
<g id="edge30" class="edge">
<title>Node22&#45;&gt;Node19</title>
<path fill="none" stroke="midnightblue" d="M936.73,-229.82C970.51,-209.91 1053.78,-160.84 1094.63,-136.77"/>
<polygon fill="midnightblue" stroke="midnightblue" points="1096.53,-139.72 1103.36,-131.62 1092.97,-133.69 1096.53,-139.72"/>
</g>
<!-- Node30 -->
<g id="node30" class="node">
<title>Node30</title>
<g id="a_node30"><a xlink:href="itkObjectFactoryBase_8h.html" target="_top" xlink:title=" ">
<polygon fill="white" stroke="black" points="1204.5,-459.5 1204.5,-478.5 1333.5,-478.5 1333.5,-459.5 1204.5,-459.5"/>
<text text-anchor="middle" x="1269" y="-466.5" font-family="Helvetica,sans-Serif" font-size="10.00">itkObjectFactoryBase.h</text>
</a>
</g>
</g>
<!-- Node29&#45;&gt;Node30 -->
<g id="edge40" class="edge">
<title>Node29&#45;&gt;Node30</title>
<path fill="none" stroke="midnightblue" d="M1115.84,-515.44C1146.86,-506.24 1196.33,-491.56 1230.62,-481.39"/>
<polygon fill="midnightblue" stroke="midnightblue" points="1231.71,-484.72 1240.3,-478.52 1229.71,-478.01 1231.71,-484.72"/>
</g>
<!-- Node30&#45;&gt;Node17 -->
<g id="edge43" class="edge">
<title>Node30&#45;&gt;Node17</title>
<path fill="none" stroke="midnightblue" d="M1330.16,-459.44C1375.7,-451.87 1432.83,-439.48 1450,-423 1471.71,-402.16 1469,-388.1 1469,-358 1469,-358 1469,-358 1469,-177 1469,-108.59 1382.38,-82.72 1318.34,-72.94"/>
<polygon fill="midnightblue" stroke="midnightblue" points="1318.67,-69.45 1308.28,-71.5 1317.68,-76.38 1318.67,-69.45"/>
</g>
<!-- Node30&#45;&gt;Node24 -->
<g id="edge48" class="edge">
<title>Node30&#45;&gt;Node24</title>
<path fill="none" stroke="midnightblue" d="M1268.25,-459.38C1267.51,-450.33 1266.42,-435.68 1266,-423 1264.01,-363.23 1265.5,-292.39 1266.42,-259.29"/>
<polygon fill="midnightblue" stroke="midnightblue" points="1269.92,-259.34 1266.71,-249.24 1262.92,-259.13 1269.92,-259.34"/>
</g>
<!-- Node31 -->
<g id="node31" class="node">
<title>Node31</title>
<g id="a_node31"><a xlink:href="itkCreateObjectFunction_8h.html" target="_top" xlink:title=" ">
<polygon fill="white" stroke="black" points="1074.5,-403.5 1074.5,-422.5 1217.5,-422.5 1217.5,-403.5 1074.5,-403.5"/>
<text text-anchor="middle" x="1146" y="-410.5" font-family="Helvetica,sans-Serif" font-size="10.00">itkCreateObjectFunction.h</text>
</a>
</g>
</g>
<!-- Node30&#45;&gt;Node31 -->
<g id="edge41" class="edge">
<title>Node30&#45;&gt;Node31</title>
<path fill="none" stroke="midnightblue" d="M1249.51,-459.44C1229.36,-450.6 1197.68,-436.69 1174.67,-426.59"/>
<polygon fill="midnightblue" stroke="midnightblue" points="1175.96,-423.33 1165.4,-422.52 1173.15,-429.74 1175.96,-423.33"/>
</g>
<!-- Node32 -->
<g id="node32" class="node">
<title>Node32</title>
<g id="a_node32"><a xlink:href="itkCommonEnums_8h.html" target="_top" xlink:title=" ">
<polygon fill="white" stroke="black" points="1325,-403.5 1325,-422.5 1441,-422.5 1441,-403.5 1325,-403.5"/>
<text text-anchor="middle" x="1383" y="-410.5" font-family="Helvetica,sans-Serif" font-size="10.00">itkCommonEnums.h</text>
</a>
</g>
</g>
<!-- Node30&#45;&gt;Node32 -->
<g id="edge44" class="edge">
<title>Node30&#45;&gt;Node32</title>
<path fill="none" stroke="midnightblue" d="M1287.06,-459.44C1305.57,-450.68 1334.58,-436.94 1355.86,-426.86"/>
<polygon fill="midnightblue" stroke="midnightblue" points="1357.48,-429.96 1365.02,-422.52 1354.49,-423.63 1357.48,-429.96"/>
</g>
<!-- Node34 -->
<g id="node34" class="node">
<title>Node34</title>
<g id="a_node34"><a xlink:title=" ">
<polygon fill="white" stroke="#bfbfbf" points="1275,-403.5 1275,-422.5 1307,-422.5 1307,-403.5 1275,-403.5"/>
<text text-anchor="middle" x="1291" y="-410.5" font-family="Helvetica,sans-Serif" font-size="10.00">list</text>
</a>
</g>
</g>
<!-- Node30&#45;&gt;Node34 -->
<g id="edge47" class="edge">
<title>Node30&#45;&gt;Node34</title>
<path fill="none" stroke="midnightblue" d="M1272.63,-459.08C1275.61,-451.77 1279.93,-441.18 1283.62,-432.1"/>
<polygon fill="midnightblue" stroke="midnightblue" points="1286.9,-433.33 1287.43,-422.75 1280.42,-430.69 1286.9,-433.33"/>
</g>
<!-- Node31&#45;&gt;Node4 -->
<g id="edge42" class="edge">
<title>Node31&#45;&gt;Node4</title>
<path fill="none" stroke="midnightblue" d="M1128.09,-403.44C1109.75,-394.68 1080.99,-380.94 1059.91,-370.86"/>
<polygon fill="midnightblue" stroke="midnightblue" points="1061.35,-367.67 1050.82,-366.52 1058.33,-373.99 1061.35,-367.67"/>
</g>
<!-- Node32&#45;&gt;Node13 -->
<g id="edge45" class="edge">
<title>Node32&#45;&gt;Node13</title>
<path fill="none" stroke="midnightblue" d="M1374.25,-403.43C1365.96,-394.88 1353.66,-381.03 1346,-367 1314.01,-308.4 1334.67,-281.05 1300,-224 1263.6,-164.11 1244.14,-155.25 1189,-112 1173.71,-100.01 1154.97,-88.76 1140.04,-80.51"/>
<polygon fill="midnightblue" stroke="midnightblue" points="1141.32,-77.22 1130.86,-75.54 1137.99,-83.38 1141.32,-77.22"/>
</g>
<!-- Node33 -->
<g id="node33" class="node">
<title>Node33</title>
<g id="a_node33"><a xlink:title=" ">
<polygon fill="white" stroke="#bfbfbf" points="1354.5,-347.5 1354.5,-366.5 1411.5,-366.5 1411.5,-347.5 1354.5,-347.5"/>
<text text-anchor="middle" x="1383" y="-354.5" font-family="Helvetica,sans-Serif" font-size="10.00">ostream</text>
</a>
</g>
</g>
<!-- Node32&#45;&gt;Node33 -->
<g id="edge46" class="edge">
<title>Node32&#45;&gt;Node33</title>
<path fill="none" stroke="midnightblue" d="M1383,-403.08C1383,-396.01 1383,-385.86 1383,-376.99"/>
<polygon fill="midnightblue" stroke="midnightblue" points="1386.5,-376.75 1383,-366.75 1379.5,-376.75 1386.5,-376.75"/>
</g>
<!-- Node35&#45;&gt;Node8 -->
<g id="edge64" class="edge">
<title>Node35&#45;&gt;Node8</title>
<path fill="none" stroke="midnightblue" d="M576.46,-403.31C580.78,-394.44 587.08,-380.14 590,-367 601.98,-313.04 605.78,-142.87 606.73,-85.84"/>
<polygon fill="midnightblue" stroke="midnightblue" points="610.23,-85.79 606.89,-75.74 603.23,-85.68 610.23,-85.79"/>
</g>
<!-- Node36 -->
<g id="node36" class="node">
<title>Node36</title>
<g id="a_node36"><a xlink:href="itkPixelTraits_8h.html" target="_top" xlink:title=" ">
<polygon fill="white" stroke="black" points="469,-168.5 469,-187.5 557,-187.5 557,-168.5 469,-168.5"/>
<text text-anchor="middle" x="513" y="-175.5" font-family="Helvetica,sans-Serif" font-size="10.00">itkPixelTraits.h</text>
</a>
</g>
</g>
<!-- Node35&#45;&gt;Node36 -->
<g id="edge50" class="edge">
<title>Node35&#45;&gt;Node36</title>
<path fill="none" stroke="midnightblue" d="M572.95,-403.28C575.59,-375.64 581.09,-287.98 553,-224 548.15,-212.95 539.53,-202.71 531.53,-194.8"/>
<polygon fill="midnightblue" stroke="midnightblue" points="533.62,-191.96 523.91,-187.72 528.86,-197.09 533.62,-191.96"/>
</g>
<!-- Node35&#45;&gt;Node37 -->
<g id="edge52" class="edge">
<title>Node35&#45;&gt;Node37</title>
<path fill="none" stroke="midnightblue" d="M550.13,-403.44C527.22,-394.48 491.02,-380.31 465.13,-370.18"/>
<polygon fill="midnightblue" stroke="midnightblue" points="466.35,-366.9 455.76,-366.52 463.8,-373.42 466.35,-366.9"/>
</g>
<!-- Node36&#45;&gt;Node6 -->
<g id="edge51" class="edge">
<title>Node36&#45;&gt;Node6</title>
<path fill="none" stroke="midnightblue" d="M514.94,-168.08C520.6,-141.95 537.24,-65.21 544.97,-29.58"/>
<polygon fill="midnightblue" stroke="midnightblue" points="548.44,-30.08 547.14,-19.57 541.6,-28.6 548.44,-30.08"/>
</g>
<!-- Node37&#45;&gt;Node6 -->
<g id="edge53" class="edge">
<title>Node37&#45;&gt;Node6</title>
<path fill="none" stroke="midnightblue" d="M389.31,-347.47C309.33,-330.92 150,-291.53 150,-240.5 150,-240.5 150,-240.5 150,-121 150,-48.06 400.96,-21.63 504.82,-13.81"/>
<polygon fill="midnightblue" stroke="midnightblue" points="505.26,-17.29 514.98,-13.07 504.75,-10.31 505.26,-17.29"/>
</g>
<!-- Node38 -->
<g id="node38" class="node">
<title>Node38</title>
<g id="a_node38"><a xlink:title=" ">
<polygon fill="white" stroke="#bfbfbf" points="0,-291.5 0,-310.5 44,-310.5 44,-291.5 0,-291.5"/>
<text text-anchor="middle" x="22" y="-298.5" font-family="Helvetica,sans-Serif" font-size="10.00">limits</text>
</a>
</g>
</g>
<!-- Node37&#45;&gt;Node38 -->
<g id="edge54" class="edge">
<title>Node37&#45;&gt;Node38</title>
<path fill="none" stroke="midnightblue" d="M380.87,-352.51C308.79,-347.15 175.94,-335.12 54.11,-310.93"/>
<polygon fill="midnightblue" stroke="midnightblue" points="54.74,-307.48 44.24,-308.93 53.35,-314.34 54.74,-307.48"/>
</g>
<!-- Node39 -->
<g id="node39" class="node">
<title>Node39</title>
<g id="a_node39"><a xlink:title=" ">
<polygon fill="white" stroke="#bfbfbf" points="62.5,-291.5 62.5,-310.5 121.5,-310.5 121.5,-291.5 62.5,-291.5"/>
<text text-anchor="middle" x="92" y="-298.5" font-family="Helvetica,sans-Serif" font-size="10.00">complex</text>
</a>
</g>
</g>
<!-- Node37&#45;&gt;Node39 -->
<g id="edge55" class="edge">
<title>Node37&#45;&gt;Node39</title>
<path fill="none" stroke="midnightblue" d="M380.84,-348.82C321.13,-340.56 221.39,-326.17 136,-311 134.56,-310.74 133.1,-310.48 131.62,-310.2"/>
<polygon fill="midnightblue" stroke="midnightblue" points="132.26,-306.76 121.78,-308.31 130.94,-313.64 132.26,-306.76"/>
</g>
<!-- Node40 -->
<g id="node40" class="node">
<title>Node40</title>
<g id="a_node40"><a xlink:href="itkFixedArray_8h.html" target="_top" xlink:title=" ">
<polygon fill="white" stroke="black" points="352.5,-291.5 352.5,-310.5 441.5,-310.5 441.5,-291.5 352.5,-291.5"/>
<text text-anchor="middle" x="397" y="-298.5" font-family="Helvetica,sans-Serif" font-size="10.00">itkFixedArray.h</text>
</a>
</g>
</g>
<!-- Node37&#45;&gt;Node40 -->
<g id="edge56" class="edge">
<title>Node37&#45;&gt;Node40</title>
<path fill="none" stroke="midnightblue" d="M427.89,-347.08C422.72,-339.53 415.15,-328.49 408.81,-319.23"/>
<polygon fill="midnightblue" stroke="midnightblue" points="411.54,-317.02 403,-310.75 405.76,-320.98 411.54,-317.02"/>
</g>
<!-- Node40&#45;&gt;Node6 -->
<g id="edge57" class="edge">
<title>Node40&#45;&gt;Node6</title>
<path fill="none" stroke="midnightblue" d="M393.44,-291.37C385.7,-271.75 368,-222.2 368,-179 368,-179 368,-179 368,-121 368,-57.09 451.42,-29.26 505,-17.97"/>
<polygon fill="midnightblue" stroke="midnightblue" points="505.83,-21.38 514.96,-15.99 504.46,-14.51 505.83,-21.38"/>
</g>
<!-- Node40&#45;&gt;Node23 -->
<g id="edge58" class="edge">
<title>Node40&#45;&gt;Node23</title>
<path fill="none" stroke="midnightblue" d="M441.58,-291.91C505.12,-280.39 620.92,-259.38 683.01,-248.12"/>
<polygon fill="midnightblue" stroke="midnightblue" points="683.65,-251.56 692.87,-246.33 682.4,-244.67 683.65,-251.56"/>
</g>
<!-- Node41 -->
<g id="node41" class="node">
<title>Node41</title>
<g id="a_node41"><a xlink:title=" ">
<polygon fill="white" stroke="#bfbfbf" points="298,-230 298,-249 340,-249 340,-230 298,-230"/>
<text text-anchor="middle" x="319" y="-237" font-family="Helvetica,sans-Serif" font-size="10.00">array</text>
</a>
</g>
</g>
<!-- Node40&#45;&gt;Node41 -->
<g id="edge59" class="edge">
<title>Node40&#45;&gt;Node41</title>
<path fill="none" stroke="midnightblue" d="M385.82,-291.48C373.43,-282.02 353.21,-266.6 338.25,-255.19"/>
<polygon fill="midnightblue" stroke="midnightblue" points="340.23,-252.29 330.15,-249.01 335.98,-257.86 340.23,-252.29"/>
</g>
<!-- Node42 -->
<g id="node42" class="node">
<title>Node42</title>
<g id="a_node42"><a xlink:title=" ">
<polygon fill="white" stroke="#bfbfbf" points="178.5,-230 178.5,-249 279.5,-249 279.5,-230 178.5,-230"/>
<text text-anchor="middle" x="229" y="-237" font-family="Helvetica,sans-Serif" font-size="10.00">itkFixedArray.hxx</text>
</a>
</g>
</g>
<!-- Node40&#45;&gt;Node42 -->
<g id="edge60" class="edge">
<title>Node40&#45;&gt;Node42</title>
<path fill="none" stroke="midnightblue" d="M372.93,-291.48C343.99,-281.22 295.24,-263.96 262.6,-252.4"/>
<polygon fill="midnightblue" stroke="midnightblue" points="263.62,-249.05 253.03,-249.01 261.28,-255.65 263.62,-249.05"/>
</g>
<!-- Node43 -->
<g id="node43" class="node">
<title>Node43</title>
<g id="a_node43"><a xlink:href="itkNumericTraitsFixedArrayPixel_8h.html" target="_top" xlink:title=" ">
<polygon fill="white" stroke="black" points="395.5,-224.5 395.5,-254.5 544.5,-254.5 544.5,-224.5 395.5,-224.5"/>
<text text-anchor="start" x="403.5" y="-242.5" font-family="Helvetica,sans-Serif" font-size="10.00">itkNumericTraitsFixedArray</text>
<text text-anchor="middle" x="470" y="-231.5" font-family="Helvetica,sans-Serif" font-size="10.00">Pixel.h</text>
</a>
</g>
</g>
<!-- Node40&#45;&gt;Node43 -->
<g id="edge61" class="edge">
<title>Node40&#45;&gt;Node43</title>
<path fill="none" stroke="midnightblue" d="M402.56,-291.48C410.61,-283.49 425.11,-271.25 438.69,-260.77"/>
<polygon fill="midnightblue" stroke="midnightblue" points="441.1,-263.34 446.97,-254.52 436.88,-257.76 441.1,-263.34"/>
</g>
<!-- Node43&#45;&gt;Node37 -->
<g id="edge62" class="edge">
<title>Node43&#45;&gt;Node37</title>
<path fill="none" stroke="midnightblue" d="M466.28,-254.63C462.46,-268.92 456.19,-291.61 450,-311 447.16,-319.9 443.72,-329.68 440.76,-337.84"/>
<polygon fill="midnightblue" stroke="midnightblue" points="437.4,-336.84 437.24,-347.43 443.97,-339.25 437.4,-336.84"/>
</g>
<!-- Node43&#45;&gt;Node40 -->
<g id="edge63" class="edge">
<title>Node43&#45;&gt;Node40</title>
<path fill="none" stroke="midnightblue" d="M458.63,-254.52C448.4,-263.84 433.44,-276.05 420.72,-285.47"/>
<polygon fill="midnightblue" stroke="midnightblue" points="418.44,-282.8 412.36,-291.48 422.52,-288.48 418.44,-282.8"/>
</g>
<!-- Node44&#45;&gt;Node35 -->
<g id="edge72" class="edge">
<title>Node44&#45;&gt;Node35</title>
<path fill="none" stroke="midnightblue" d="M809.35,-461.65C763.85,-452.51 679.4,-435.56 624.48,-424.53"/>
<polygon fill="midnightblue" stroke="midnightblue" points="625.07,-421.08 614.58,-422.55 623.7,-427.95 625.07,-421.08"/>
</g>
<!-- Node45 -->
<g id="node45" class="node">
<title>Node45</title>
<g id="a_node45"><a xlink:title=" ">
<polygon fill="white" stroke="#bfbfbf" points="900.5,-403.5 900.5,-422.5 947.5,-422.5 947.5,-403.5 900.5,-403.5"/>
<text text-anchor="middle" x="924" y="-410.5" font-family="Helvetica,sans-Serif" font-size="10.00">cmath</text>
</a>
</g>
</g>
<!-- Node44&#45;&gt;Node45 -->
<g id="edge67" class="edge">
<title>Node44&#45;&gt;Node45</title>
<path fill="none" stroke="midnightblue" d="M854.34,-459.32C867.16,-450.98 886.78,-438.21 901.94,-428.35"/>
<polygon fill="midnightblue" stroke="midnightblue" points="904.22,-431.04 910.7,-422.65 900.41,-425.17 904.22,-431.04"/>
</g>
<!-- Node46 -->
<g id="node46" class="node">
<title>Node46</title>
<g id="a_node46"><a xlink:href="itkMathDetail_8h.html" target="_top" xlink:title=" ">
<polygon fill="white" stroke="black" points="652,-403.5 652,-422.5 744,-422.5 744,-403.5 652,-403.5"/>
<text text-anchor="middle" x="698" y="-410.5" font-family="Helvetica,sans-Serif" font-size="10.00">itkMathDetail.h</text>
</a>
</g>
</g>
<!-- Node44&#45;&gt;Node46 -->
<g id="edge68" class="edge">
<title>Node44&#45;&gt;Node46</title>
<path fill="none" stroke="midnightblue" d="M818.34,-459.44C794.6,-450.48 757.09,-436.31 730.26,-426.18"/>
<polygon fill="midnightblue" stroke="midnightblue" points="731.14,-422.77 720.55,-422.52 728.67,-429.32 731.14,-422.77"/>
</g>
<!-- Node48 -->
<g id="node48" class="node">
<title>Node48</title>
<g id="a_node48"><a xlink:title=" ">
<polygon fill="white" stroke="#bfbfbf" points="965.5,-403.5 965.5,-422.5 1054.5,-422.5 1054.5,-403.5 965.5,-403.5"/>
<text text-anchor="middle" x="1010" y="-410.5" font-family="Helvetica,sans-Serif" font-size="10.00">vnl/vnl_math.h</text>
</a>
</g>
</g>
<!-- Node44&#45;&gt;Node48 -->
<g id="edge73" class="edge">
<title>Node44&#45;&gt;Node48</title>
<path fill="none" stroke="midnightblue" d="M867.78,-459.44C896.33,-450.32 941.73,-435.81 973.54,-425.65"/>
<polygon fill="midnightblue" stroke="midnightblue" points="974.89,-428.89 983.35,-422.52 972.76,-422.23 974.89,-428.89"/>
</g>
<!-- Node49 -->
<g id="node49" class="node">
<title>Node49</title>
<g id="a_node49"><a xlink:title=" ">
<polygon fill="white" stroke="#bfbfbf" points="800,-403.5 800,-422.5 882,-422.5 882,-403.5 800,-403.5"/>
<text text-anchor="middle" x="841" y="-410.5" font-family="Helvetica,sans-Serif" font-size="10.00">vxl_version.h</text>
</a>
</g>
</g>
<!-- Node44&#45;&gt;Node49 -->
<g id="edge74" class="edge">
<title>Node44&#45;&gt;Node49</title>
<path fill="none" stroke="midnightblue" d="M841,-459.08C841,-452.01 841,-441.86 841,-432.99"/>
<polygon fill="midnightblue" stroke="midnightblue" points="844.5,-432.75 841,-422.75 837.5,-432.75 844.5,-432.75"/>
</g>
<!-- Node46&#45;&gt;Node13 -->
<g id="edge69" class="edge">
<title>Node46&#45;&gt;Node13</title>
<path fill="none" stroke="midnightblue" d="M704.29,-403.14C729.56,-367.61 823.25,-236.82 842,-224 962.03,-141.91 1068.91,-248.46 1156,-132 1168.33,-115.51 1150.84,-95.46 1134.82,-82.03"/>
<polygon fill="midnightblue" stroke="midnightblue" points="1136.76,-79.1 1126.74,-75.66 1132.42,-84.6 1136.76,-79.1"/>
</g>
<!-- Node46&#45;&gt;Node37 -->
<g id="edge70" class="edge">
<title>Node46&#45;&gt;Node37</title>
<path fill="none" stroke="midnightblue" d="M656.17,-403.44C609.92,-393.98 535.39,-378.74 485.56,-368.55"/>
<polygon fill="midnightblue" stroke="midnightblue" points="486.13,-365.09 475.64,-366.52 484.73,-371.95 486.13,-365.09"/>
</g>
<!-- Node47 -->
<g id="node47" class="node">
<title>Node47</title>
<g id="a_node47"><a xlink:title=" ">
<polygon fill="white" stroke="#bfbfbf" points="675,-347.5 675,-366.5 719,-366.5 719,-347.5 675,-347.5"/>
<text text-anchor="middle" x="697" y="-354.5" font-family="Helvetica,sans-Serif" font-size="10.00">cfenv</text>
</a>
</g>
</g>
<!-- Node46&#45;&gt;Node47 -->
<g id="edge71" class="edge">
<title>Node46&#45;&gt;Node47</title>
<path fill="none" stroke="midnightblue" d="M697.83,-403.08C697.7,-396.01 697.52,-385.86 697.35,-376.99"/>
<polygon fill="midnightblue" stroke="midnightblue" points="700.85,-376.68 697.16,-366.75 693.85,-376.81 700.85,-376.68"/>
</g>
</g>
</svg>
