<?xml version="1.0" encoding="UTF-8" standalone="no"?>
<!DOCTYPE svg PUBLIC "-//W3C//DTD SVG 1.1//EN"
 "http://www.w3.org/Graphics/SVG/1.1/DTD/svg11.dtd">
<!-- Generated by graphviz version 2.43.0 (0)
 -->
<!-- Title: itkBSplineKernelFunction.h Pages: 1 -->
<svg width="1306pt" height="296pt"
 viewBox="0.00 0.00 1305.50 296.00" xmlns="http://www.w3.org/2000/svg" xmlns:xlink="http://www.w3.org/1999/xlink">
<g id="graph0" class="graph" transform="scale(1 1) rotate(0) translate(4 292)">
<title>itkBSplineKernelFunction.h</title>
<polygon fill="white" stroke="transparent" points="-4,4 -4,-292 1301.5,-292 1301.5,4 -4,4"/>
<!-- Node1 -->
<g id="node1" class="node">
<title>Node1</title>
<g id="a_node1"><a xlink:title=" ">
<polygon fill="#bfbfbf" stroke="black" points="265,-268.5 265,-287.5 412,-287.5 412,-268.5 265,-268.5"/>
<text text-anchor="middle" x="338.5" y="-275.5" font-family="Helvetica,sans-Serif" font-size="10.00">itkBSplineKernelFunction.h</text>
</a>
</g>
</g>
<!-- Node2 -->
<g id="node2" class="node">
<title>Node2</title>
<g id="a_node2"><a xlink:href="itkBSplineControlPointImageFilter_8h.html" target="_top" xlink:title=" ">
<polygon fill="white" stroke="black" points="0,-201.5 0,-231.5 157,-231.5 157,-201.5 0,-201.5"/>
<text text-anchor="start" x="8" y="-219.5" font-family="Helvetica,sans-Serif" font-size="10.00">itkBSplineControlPointImage</text>
<text text-anchor="middle" x="78.5" y="-208.5" font-family="Helvetica,sans-Serif" font-size="10.00">Filter.h</text>
</a>
</g>
</g>
<!-- Node1&#45;&gt;Node2 -->
<g id="edge1" class="edge">
<title>Node1&#45;&gt;Node2</title>
<path fill="none" stroke="midnightblue" d="M291.44,-266.23C248.95,-256.51 186.17,-242.14 139.78,-231.52"/>
<polygon fill="midnightblue" stroke="midnightblue" points="290.72,-269.66 301.25,-268.48 292.28,-262.83 290.72,-269.66"/>
</g>
<!-- Node3 -->
<g id="node3" class="node">
<title>Node3</title>
<g id="a_node3"><a xlink:href="itkBSplineControlPointImageFunction_8h.html" target="_top" xlink:title=" ">
<polygon fill="white" stroke="black" points="175,-201.5 175,-231.5 332,-231.5 332,-201.5 175,-201.5"/>
<text text-anchor="start" x="183" y="-219.5" font-family="Helvetica,sans-Serif" font-size="10.00">itkBSplineControlPointImage</text>
<text text-anchor="middle" x="253.5" y="-208.5" font-family="Helvetica,sans-Serif" font-size="10.00">Function.h</text>
</a>
</g>
</g>
<!-- Node1&#45;&gt;Node3 -->
<g id="edge2" class="edge">
<title>Node1&#45;&gt;Node3</title>
<path fill="none" stroke="midnightblue" d="M318.13,-262.74C304.62,-253.28 286.97,-240.93 273.53,-231.52"/>
<polygon fill="midnightblue" stroke="midnightblue" points="316.12,-265.61 326.32,-268.48 320.14,-259.87 316.12,-265.61"/>
</g>
<!-- Node4 -->
<g id="node4" class="node">
<title>Node4</title>
<g id="a_node4"><a xlink:href="itkBSplineDerivativeKernelFunction_8h.html" target="_top" xlink:title=" ">
<polygon fill="white" stroke="black" points="350.5,-201.5 350.5,-231.5 498.5,-231.5 498.5,-201.5 350.5,-201.5"/>
<text text-anchor="start" x="358.5" y="-219.5" font-family="Helvetica,sans-Serif" font-size="10.00">itkBSplineDerivativeKernel</text>
<text text-anchor="middle" x="424.5" y="-208.5" font-family="Helvetica,sans-Serif" font-size="10.00">Function.h</text>
</a>
</g>
</g>
<!-- Node1&#45;&gt;Node4 -->
<g id="edge3" class="edge">
<title>Node1&#45;&gt;Node4</title>
<path fill="none" stroke="midnightblue" d="M359.11,-262.74C372.78,-253.28 390.63,-240.93 404.23,-231.52"/>
<polygon fill="midnightblue" stroke="midnightblue" points="357.05,-259.91 350.82,-268.48 361.04,-265.66 357.05,-259.91"/>
</g>
<!-- Node8 -->
<g id="node8" class="node">
<title>Node8</title>
<g id="a_node8"><a xlink:href="itkBSplineScatteredDataPointSetToImageFilter_8h.html" target="_top" xlink:title=" ">
<polygon fill="white" stroke="black" points="789,-201.5 789,-231.5 950,-231.5 950,-201.5 789,-201.5"/>
<text text-anchor="start" x="797" y="-219.5" font-family="Helvetica,sans-Serif" font-size="10.00">itkBSplineScatteredDataPoint</text>
<text text-anchor="middle" x="869.5" y="-208.5" font-family="Helvetica,sans-Serif" font-size="10.00">SetToImageFilter.h</text>
</a>
</g>
</g>
<!-- Node1&#45;&gt;Node8 -->
<g id="edge7" class="edge">
<title>Node1&#45;&gt;Node8</title>
<path fill="none" stroke="midnightblue" d="M422.16,-267.63C522.57,-256.37 689.76,-237.64 788.82,-226.54"/>
<polygon fill="midnightblue" stroke="midnightblue" points="421.6,-264.17 412.05,-268.76 422.38,-271.12 421.6,-264.17"/>
</g>
<!-- Node5 -->
<g id="node5" class="node">
<title>Node5</title>
<g id="a_node5"><a xlink:href="itkJointHistogramMutualInformationImageToImageMetricv4_8h.html" target="_top" xlink:title=" ">
<polygon fill="white" stroke="black" points="50,-134.5 50,-164.5 243,-164.5 243,-134.5 50,-134.5"/>
<text text-anchor="start" x="58" y="-152.5" font-family="Helvetica,sans-Serif" font-size="10.00">itkJointHistogramMutualInformation</text>
<text text-anchor="middle" x="146.5" y="-141.5" font-family="Helvetica,sans-Serif" font-size="10.00">ImageToImageMetricv4.h</text>
</a>
</g>
</g>
<!-- Node4&#45;&gt;Node5 -->
<g id="edge4" class="edge">
<title>Node4&#45;&gt;Node5</title>
<path fill="none" stroke="midnightblue" d="M354.72,-199.19C309.2,-188.54 250.36,-174.78 206.85,-164.61"/>
<polygon fill="midnightblue" stroke="midnightblue" points="353.99,-202.61 364.52,-201.48 355.58,-195.79 353.99,-202.61"/>
</g>
<!-- Node6 -->
<g id="node6" class="node">
<title>Node6</title>
<g id="a_node6"><a xlink:href="itkMattesMutualInformationImageToImageMetric_8h.html" target="_top" xlink:title=" ">
<polygon fill="white" stroke="black" points="261.5,-134.5 261.5,-164.5 415.5,-164.5 415.5,-134.5 261.5,-134.5"/>
<text text-anchor="start" x="269.5" y="-152.5" font-family="Helvetica,sans-Serif" font-size="10.00">itkMattesMutualInformation</text>
<text text-anchor="middle" x="338.5" y="-141.5" font-family="Helvetica,sans-Serif" font-size="10.00">ImageToImageMetric.h</text>
</a>
</g>
</g>
<!-- Node4&#45;&gt;Node6 -->
<g id="edge5" class="edge">
<title>Node4&#45;&gt;Node6</title>
<path fill="none" stroke="midnightblue" d="M397.6,-195.17C384.45,-185.23 368.95,-173.51 357.12,-164.58"/>
<polygon fill="midnightblue" stroke="midnightblue" points="395.75,-198.16 405.84,-201.4 399.97,-192.57 395.75,-198.16"/>
</g>
<!-- Node7 -->
<g id="node7" class="node">
<title>Node7</title>
<g id="a_node7"><a xlink:href="itkMattesMutualInformationImageToImageMetricv4_8h.html" target="_top" xlink:title=" ">
<polygon fill="white" stroke="black" points="433.5,-134.5 433.5,-164.5 587.5,-164.5 587.5,-134.5 433.5,-134.5"/>
<text text-anchor="start" x="441.5" y="-152.5" font-family="Helvetica,sans-Serif" font-size="10.00">itkMattesMutualInformation</text>
<text text-anchor="middle" x="510.5" y="-141.5" font-family="Helvetica,sans-Serif" font-size="10.00">ImageToImageMetricv4.h</text>
</a>
</g>
</g>
<!-- Node4&#45;&gt;Node7 -->
<g id="edge6" class="edge">
<title>Node4&#45;&gt;Node7</title>
<path fill="none" stroke="midnightblue" d="M451.4,-195.17C464.55,-185.23 480.05,-173.51 491.88,-164.58"/>
<polygon fill="midnightblue" stroke="midnightblue" points="449.03,-192.57 443.16,-201.4 453.25,-198.16 449.03,-192.57"/>
</g>
<!-- Node9 -->
<g id="node9" class="node">
<title>Node9</title>
<g id="a_node9"><a xlink:href="itkDisplacementFieldToBSplineImageFilter_8h.html" target="_top" xlink:title=" ">
<polygon fill="white" stroke="black" points="606,-134.5 606,-164.5 773,-164.5 773,-134.5 606,-134.5"/>
<text text-anchor="start" x="614" y="-152.5" font-family="Helvetica,sans-Serif" font-size="10.00">itkDisplacementFieldToBSpline</text>
<text text-anchor="middle" x="689.5" y="-141.5" font-family="Helvetica,sans-Serif" font-size="10.00">ImageFilter.h</text>
</a>
</g>
</g>
<!-- Node8&#45;&gt;Node9 -->
<g id="edge8" class="edge">
<title>Node8&#45;&gt;Node9</title>
<path fill="none" stroke="midnightblue" d="M820.91,-197.96C791.92,-187.48 755.59,-174.37 728.48,-164.58"/>
<polygon fill="midnightblue" stroke="midnightblue" points="819.85,-201.29 830.44,-201.4 822.23,-194.71 819.85,-201.29"/>
</g>
<!-- Node13 -->
<g id="node13" class="node">
<title>Node13</title>
<g id="a_node13"><a xlink:href="itkLandmarkBasedTransformInitializer_8h.html" target="_top" xlink:title=" ">
<polygon fill="white" stroke="black" points="791,-134.5 791,-164.5 948,-164.5 948,-134.5 791,-134.5"/>
<text text-anchor="start" x="799" y="-152.5" font-family="Helvetica,sans-Serif" font-size="10.00">itkLandmarkBasedTransform</text>
<text text-anchor="middle" x="869.5" y="-141.5" font-family="Helvetica,sans-Serif" font-size="10.00">Initializer.h</text>
</a>
</g>
</g>
<!-- Node8&#45;&gt;Node13 -->
<g id="edge12" class="edge">
<title>Node8&#45;&gt;Node13</title>
<path fill="none" stroke="midnightblue" d="M869.5,-191.11C869.5,-182.15 869.5,-172.32 869.5,-164.58"/>
<polygon fill="midnightblue" stroke="midnightblue" points="866,-191.4 869.5,-201.4 873,-191.4 866,-191.4"/>
</g>
<!-- Node14 -->
<g id="node14" class="node">
<title>Node14</title>
<g id="a_node14"><a xlink:href="itkN4BiasFieldCorrectionImageFilter_8h.html" target="_top" xlink:title=" ">
<polygon fill="white" stroke="black" points="966,-134.5 966,-164.5 1103,-164.5 1103,-134.5 966,-134.5"/>
<text text-anchor="start" x="974" y="-152.5" font-family="Helvetica,sans-Serif" font-size="10.00">itkN4BiasFieldCorrection</text>
<text text-anchor="middle" x="1034.5" y="-141.5" font-family="Helvetica,sans-Serif" font-size="10.00">ImageFilter.h</text>
</a>
</g>
</g>
<!-- Node8&#45;&gt;Node14 -->
<g id="edge13" class="edge">
<title>Node8&#45;&gt;Node14</title>
<path fill="none" stroke="midnightblue" d="M914.73,-197.68C941.19,-187.26 974.13,-174.28 998.77,-164.58"/>
<polygon fill="midnightblue" stroke="midnightblue" points="913.32,-194.47 905.3,-201.4 915.89,-200.99 913.32,-194.47"/>
</g>
<!-- Node15 -->
<g id="node15" class="node">
<title>Node15</title>
<g id="a_node15"><a xlink:href="itkTimeVaryingBSplineVelocityFieldImageRegistrationMethod_8h.html" target="_top" xlink:title=" ">
<polygon fill="white" stroke="black" points="1121.5,-134.5 1121.5,-164.5 1297.5,-164.5 1297.5,-134.5 1121.5,-134.5"/>
<text text-anchor="start" x="1129.5" y="-152.5" font-family="Helvetica,sans-Serif" font-size="10.00">itkTimeVaryingBSplineVelocity</text>
<text text-anchor="middle" x="1209.5" y="-141.5" font-family="Helvetica,sans-Serif" font-size="10.00">FieldImageRegistrationMethod.h</text>
</a>
</g>
</g>
<!-- Node8&#45;&gt;Node15 -->
<g id="edge14" class="edge">
<title>Node8&#45;&gt;Node15</title>
<path fill="none" stroke="midnightblue" d="M952.76,-199.58C1008.82,-188.86 1082.08,-174.86 1135.98,-164.55"/>
<polygon fill="midnightblue" stroke="midnightblue" points="952.02,-196.16 942.86,-201.48 953.34,-203.04 952.02,-196.16"/>
</g>
<!-- Node10 -->
<g id="node10" class="node">
<title>Node10</title>
<g id="a_node10"><a xlink:href="itkBSplineExponentialDiffeomorphicTransform_8h.html" target="_top" xlink:title=" ">
<polygon fill="white" stroke="black" points="494,-67.5 494,-97.5 687,-97.5 687,-67.5 494,-67.5"/>
<text text-anchor="start" x="502" y="-85.5" font-family="Helvetica,sans-Serif" font-size="10.00">itkBSplineExponentialDiffeomorphic</text>
<text text-anchor="middle" x="590.5" y="-74.5" font-family="Helvetica,sans-Serif" font-size="10.00">Transform.h</text>
</a>
</g>
</g>
<!-- Node9&#45;&gt;Node10 -->
<g id="edge9" class="edge">
<title>Node9&#45;&gt;Node10</title>
<path fill="none" stroke="midnightblue" d="M659.39,-128.73C644.08,-118.68 625.81,-106.68 611.94,-97.58"/>
<polygon fill="midnightblue" stroke="midnightblue" points="657.74,-131.83 668.02,-134.4 661.58,-125.98 657.74,-131.83"/>
</g>
<!-- Node11 -->
<g id="node11" class="node">
<title>Node11</title>
<g id="a_node11"><a xlink:href="itkBSplineSmoothingOnUpdateDisplacementFieldTransform_8h.html" target="_top" xlink:title=" ">
<polygon fill="white" stroke="black" points="705,-67.5 705,-97.5 872,-97.5 872,-67.5 705,-67.5"/>
<text text-anchor="start" x="713" y="-85.5" font-family="Helvetica,sans-Serif" font-size="10.00">itkBSplineSmoothingOnUpdate</text>
<text text-anchor="middle" x="788.5" y="-74.5" font-family="Helvetica,sans-Serif" font-size="10.00">DisplacementFieldTransform.h</text>
</a>
</g>
</g>
<!-- Node9&#45;&gt;Node11 -->
<g id="edge10" class="edge">
<title>Node9&#45;&gt;Node11</title>
<path fill="none" stroke="midnightblue" d="M719.61,-128.73C734.92,-118.68 753.19,-106.68 767.06,-97.58"/>
<polygon fill="midnightblue" stroke="midnightblue" points="717.42,-125.98 710.98,-134.4 721.26,-131.83 717.42,-125.98"/>
</g>
<!-- Node12 -->
<g id="node12" class="node">
<title>Node12</title>
<g id="a_node12"><a xlink:href="itkBSplineSyNImageRegistrationMethod_8h.html" target="_top" xlink:title=" ">
<polygon fill="white" stroke="black" points="700.5,-0.5 700.5,-30.5 876.5,-30.5 876.5,-0.5 700.5,-0.5"/>
<text text-anchor="start" x="708.5" y="-18.5" font-family="Helvetica,sans-Serif" font-size="10.00">itkBSplineSyNImageRegistration</text>
<text text-anchor="middle" x="788.5" y="-7.5" font-family="Helvetica,sans-Serif" font-size="10.00">Method.h</text>
</a>
</g>
</g>
<!-- Node11&#45;&gt;Node12 -->
<g id="edge11" class="edge">
<title>Node11&#45;&gt;Node12</title>
<path fill="none" stroke="midnightblue" d="M788.5,-57.11C788.5,-48.15 788.5,-38.32 788.5,-30.58"/>
<polygon fill="midnightblue" stroke="midnightblue" points="785,-57.4 788.5,-67.4 792,-57.4 785,-57.4"/>
</g>
</g>
</svg>
