<?xml version="1.0" encoding="UTF-8" standalone="no"?>
<!DOCTYPE svg PUBLIC "-//W3C//DTD SVG 1.1//EN"
 "http://www.w3.org/Graphics/SVG/1.1/DTD/svg11.dtd">
<!-- Generated by graphviz version 2.43.0 (0)
 -->
<!-- Title: itkCompensatedSummation.h Pages: 1 -->
<svg width="776pt" height="263pt"
 viewBox="0.00 0.00 775.50 263.00" xmlns="http://www.w3.org/2000/svg" xmlns:xlink="http://www.w3.org/1999/xlink">
<g id="graph0" class="graph" transform="scale(1 1) rotate(0) translate(4 259)">
<title>itkCompensatedSummation.h</title>
<polygon fill="white" stroke="transparent" points="-4,4 -4,-259 771.5,-259 771.5,4 -4,4"/>
<!-- Node1 -->
<g id="node1" class="node">
<title>Node1</title>
<g id="a_node1"><a xlink:title=" ">
<polygon fill="#bfbfbf" stroke="black" points="432.5,-235.5 432.5,-254.5 594.5,-254.5 594.5,-235.5 432.5,-235.5"/>
<text text-anchor="middle" x="513.5" y="-242.5" font-family="Helvetica,sans-Serif" font-size="10.00">itkCompensatedSummation.h</text>
</a>
</g>
</g>
<!-- Node2 -->
<g id="node2" class="node">
<title>Node2</title>
<g id="a_node2"><a xlink:href="itkNumericTraits_8h.html" target="_top" xlink:title=" ">
<polygon fill="white" stroke="black" points="352.5,-123.5 352.5,-142.5 458.5,-142.5 458.5,-123.5 352.5,-123.5"/>
<text text-anchor="middle" x="405.5" y="-130.5" font-family="Helvetica,sans-Serif" font-size="10.00">itkNumericTraits.h</text>
</a>
</g>
</g>
<!-- Node1&#45;&gt;Node2 -->
<g id="edge1" class="edge">
<title>Node1&#45;&gt;Node2</title>
<path fill="none" stroke="midnightblue" d="M494.83,-235.39C479.39,-227.57 457.61,-214.84 442.5,-199 429.5,-185.37 419.36,-166.32 413,-152.37"/>
<polygon fill="midnightblue" stroke="midnightblue" points="416.08,-150.66 408.9,-142.87 409.65,-153.43 416.08,-150.66"/>
</g>
<!-- Node13 -->
<g id="node13" class="node">
<title>Node13</title>
<g id="a_node13"><a xlink:href="itkConceptChecking_8h.html" target="_top" xlink:title=" ">
<polygon fill="white" stroke="black" points="452,-179.5 452,-198.5 575,-198.5 575,-179.5 452,-179.5"/>
<text text-anchor="middle" x="513.5" y="-186.5" font-family="Helvetica,sans-Serif" font-size="10.00">itkConceptChecking.h</text>
</a>
</g>
</g>
<!-- Node1&#45;&gt;Node13 -->
<g id="edge15" class="edge">
<title>Node1&#45;&gt;Node13</title>
<path fill="none" stroke="midnightblue" d="M513.5,-235.08C513.5,-228.01 513.5,-217.86 513.5,-208.99"/>
<polygon fill="midnightblue" stroke="midnightblue" points="517,-208.75 513.5,-198.75 510,-208.75 517,-208.75"/>
</g>
<!-- Node16 -->
<g id="node16" class="node">
<title>Node16</title>
<g id="a_node16"><a xlink:title=" ">
<polygon fill="white" stroke="#bfbfbf" points="593.5,-179.5 593.5,-198.5 767.5,-198.5 767.5,-179.5 593.5,-179.5"/>
<text text-anchor="middle" x="680.5" y="-186.5" font-family="Helvetica,sans-Serif" font-size="10.00">itkCompensatedSummation.hxx</text>
</a>
</g>
</g>
<!-- Node1&#45;&gt;Node16 -->
<g id="edge20" class="edge">
<title>Node1&#45;&gt;Node16</title>
<path fill="none" stroke="midnightblue" d="M539.96,-235.44C568.18,-226.32 613.04,-211.81 644.47,-201.65"/>
<polygon fill="midnightblue" stroke="midnightblue" points="645.72,-204.92 654.16,-198.52 643.57,-198.26 645.72,-204.92"/>
</g>
<!-- Node3 -->
<g id="node3" class="node">
<title>Node3</title>
<g id="a_node3"><a xlink:href="itkMacro_8h.html" target="_top" xlink:title=" ">
<polygon fill="white" stroke="black" points="537.5,-6 537.5,-25 605.5,-25 605.5,-6 537.5,-6"/>
<text text-anchor="middle" x="571.5" y="-13" font-family="Helvetica,sans-Serif" font-size="10.00">itkMacro.h</text>
</a>
</g>
</g>
<!-- Node2&#45;&gt;Node3 -->
<g id="edge2" class="edge">
<title>Node2&#45;&gt;Node3</title>
<path fill="none" stroke="midnightblue" d="M452.95,-123.46C478.47,-116.94 509.18,-105.75 531.5,-87 547.96,-73.17 559.02,-50.74 565.26,-34.9"/>
<polygon fill="midnightblue" stroke="midnightblue" points="568.67,-35.77 568.82,-25.18 562.1,-33.37 568.67,-35.77"/>
</g>
<!-- Node4 -->
<g id="node4" class="node">
<title>Node4</title>
<g id="a_node4"><a xlink:title=" ">
<polygon fill="white" stroke="#bfbfbf" points="313.5,-67.5 313.5,-86.5 357.5,-86.5 357.5,-67.5 313.5,-67.5"/>
<text text-anchor="middle" x="335.5" y="-74.5" font-family="Helvetica,sans-Serif" font-size="10.00">limits</text>
</a>
</g>
</g>
<!-- Node2&#45;&gt;Node4 -->
<g id="edge3" class="edge">
<title>Node2&#45;&gt;Node4</title>
<path fill="none" stroke="midnightblue" d="M394.25,-123.32C383.7,-115.18 367.7,-102.84 355.06,-93.09"/>
<polygon fill="midnightblue" stroke="midnightblue" points="357.01,-90.17 346.95,-86.83 352.73,-95.71 357.01,-90.17"/>
</g>
<!-- Node5 -->
<g id="node5" class="node">
<title>Node5</title>
<g id="a_node5"><a xlink:title=" ">
<polygon fill="white" stroke="#bfbfbf" points="376,-67.5 376,-86.5 435,-86.5 435,-67.5 376,-67.5"/>
<text text-anchor="middle" x="405.5" y="-74.5" font-family="Helvetica,sans-Serif" font-size="10.00">complex</text>
</a>
</g>
</g>
<!-- Node2&#45;&gt;Node5 -->
<g id="edge4" class="edge">
<title>Node2&#45;&gt;Node5</title>
<path fill="none" stroke="midnightblue" d="M405.5,-123.08C405.5,-116.01 405.5,-105.86 405.5,-96.99"/>
<polygon fill="midnightblue" stroke="midnightblue" points="409,-96.75 405.5,-86.75 402,-96.75 409,-96.75"/>
</g>
<!-- Node6 -->
<g id="node6" class="node">
<title>Node6</title>
<g id="a_node6"><a xlink:title=" ">
<polygon fill="white" stroke="#bfbfbf" points="453,-67.5 453,-86.5 522,-86.5 522,-67.5 453,-67.5"/>
<text text-anchor="middle" x="487.5" y="-74.5" font-family="Helvetica,sans-Serif" font-size="10.00">type_traits</text>
</a>
</g>
</g>
<!-- Node2&#45;&gt;Node6 -->
<g id="edge5" class="edge">
<title>Node2&#45;&gt;Node6</title>
<path fill="none" stroke="midnightblue" d="M418.67,-123.32C431.35,-114.98 450.73,-102.21 465.71,-92.35"/>
<polygon fill="midnightblue" stroke="midnightblue" points="467.93,-95.08 474.36,-86.65 464.08,-89.23 467.93,-95.08"/>
</g>
<!-- Node7 -->
<g id="node7" class="node">
<title>Node7</title>
<g id="a_node7"><a xlink:href="itkFixedArray_8h.html" target="_top" xlink:title=" ">
<polygon fill="white" stroke="black" points="207,-67.5 207,-86.5 296,-86.5 296,-67.5 207,-67.5"/>
<text text-anchor="middle" x="251.5" y="-74.5" font-family="Helvetica,sans-Serif" font-size="10.00">itkFixedArray.h</text>
</a>
</g>
</g>
<!-- Node2&#45;&gt;Node7 -->
<g id="edge6" class="edge">
<title>Node2&#45;&gt;Node7</title>
<path fill="none" stroke="midnightblue" d="M381.1,-123.44C355.3,-114.4 314.42,-100.06 285.48,-89.92"/>
<polygon fill="midnightblue" stroke="midnightblue" points="286.38,-86.52 275.79,-86.52 284.07,-93.13 286.38,-86.52"/>
</g>
<!-- Node7&#45;&gt;Node3 -->
<g id="edge7" class="edge">
<title>Node7&#45;&gt;Node3</title>
<path fill="none" stroke="midnightblue" d="M296.03,-68.41C298.89,-67.93 301.74,-67.46 304.5,-67 403.98,-50.56 430.61,-55.19 528.5,-31 531.89,-30.16 535.4,-29.18 538.88,-28.13"/>
<polygon fill="midnightblue" stroke="midnightblue" points="540.05,-31.43 548.5,-25.04 537.91,-24.76 540.05,-31.43"/>
</g>
<!-- Node8 -->
<g id="node8" class="node">
<title>Node8</title>
<g id="a_node8"><a xlink:href="itkMakeFilled_8h.html" target="_top" xlink:title=" ">
<polygon fill="white" stroke="black" points="428,-6 428,-25 519,-25 519,-6 428,-6"/>
<text text-anchor="middle" x="473.5" y="-13" font-family="Helvetica,sans-Serif" font-size="10.00">itkMakeFilled.h</text>
</a>
</g>
</g>
<!-- Node7&#45;&gt;Node8 -->
<g id="edge8" class="edge">
<title>Node7&#45;&gt;Node8</title>
<path fill="none" stroke="midnightblue" d="M283.31,-67.48C322.38,-57 388.76,-39.21 431.86,-27.66"/>
<polygon fill="midnightblue" stroke="midnightblue" points="433,-30.98 441.75,-25.01 431.19,-24.22 433,-30.98"/>
</g>
<!-- Node9 -->
<g id="node9" class="node">
<title>Node9</title>
<g id="a_node9"><a xlink:title=" ">
<polygon fill="white" stroke="#bfbfbf" points="166.5,-6 166.5,-25 230.5,-25 230.5,-6 166.5,-6"/>
<text text-anchor="middle" x="198.5" y="-13" font-family="Helvetica,sans-Serif" font-size="10.00">algorithm</text>
</a>
</g>
</g>
<!-- Node7&#45;&gt;Node9 -->
<g id="edge9" class="edge">
<title>Node7&#45;&gt;Node9</title>
<path fill="none" stroke="midnightblue" d="M243.91,-67.48C235.8,-58.37 222.77,-43.74 212.74,-32.48"/>
<polygon fill="midnightblue" stroke="midnightblue" points="215.34,-30.15 206.08,-25.01 210.12,-34.8 215.34,-30.15"/>
</g>
<!-- Node10 -->
<g id="node10" class="node">
<title>Node10</title>
<g id="a_node10"><a xlink:title=" ">
<polygon fill="white" stroke="#bfbfbf" points="248.5,-6 248.5,-25 290.5,-25 290.5,-6 248.5,-6"/>
<text text-anchor="middle" x="269.5" y="-13" font-family="Helvetica,sans-Serif" font-size="10.00">array</text>
</a>
</g>
</g>
<!-- Node7&#45;&gt;Node10 -->
<g id="edge10" class="edge">
<title>Node7&#45;&gt;Node10</title>
<path fill="none" stroke="midnightblue" d="M254.08,-67.48C256.65,-58.99 260.67,-45.7 263.96,-34.82"/>
<polygon fill="midnightblue" stroke="midnightblue" points="267.38,-35.59 266.93,-25.01 260.68,-33.57 267.38,-35.59"/>
</g>
<!-- Node11 -->
<g id="node11" class="node">
<title>Node11</title>
<g id="a_node11"><a xlink:title=" ">
<polygon fill="white" stroke="#bfbfbf" points="309,-6 309,-25 410,-25 410,-6 309,-6"/>
<text text-anchor="middle" x="359.5" y="-13" font-family="Helvetica,sans-Serif" font-size="10.00">itkFixedArray.hxx</text>
</a>
</g>
</g>
<!-- Node7&#45;&gt;Node11 -->
<g id="edge11" class="edge">
<title>Node7&#45;&gt;Node11</title>
<path fill="none" stroke="midnightblue" d="M266.97,-67.48C284.78,-57.67 314.24,-41.43 335.13,-29.92"/>
<polygon fill="midnightblue" stroke="midnightblue" points="336.99,-32.9 344.05,-25.01 333.61,-26.77 336.99,-32.9"/>
</g>
<!-- Node12 -->
<g id="node12" class="node">
<title>Node12</title>
<g id="a_node12"><a xlink:href="itkNumericTraitsFixedArrayPixel_8h.html" target="_top" xlink:title=" ">
<polygon fill="white" stroke="black" points="0,-0.5 0,-30.5 149,-30.5 149,-0.5 0,-0.5"/>
<text text-anchor="start" x="8" y="-18.5" font-family="Helvetica,sans-Serif" font-size="10.00">itkNumericTraitsFixedArray</text>
<text text-anchor="middle" x="74.5" y="-7.5" font-family="Helvetica,sans-Serif" font-size="10.00">Pixel.h</text>
</a>
</g>
</g>
<!-- Node7&#45;&gt;Node12 -->
<g id="edge12" class="edge">
<title>Node7&#45;&gt;Node12</title>
<path fill="none" stroke="midnightblue" d="M221.24,-67.48C193.35,-58.74 151.77,-44.91 119.93,-33.86"/>
<polygon fill="midnightblue" stroke="midnightblue" points="120.98,-30.52 110.39,-30.52 118.67,-37.12 120.98,-30.52"/>
</g>
<!-- Node12&#45;&gt;Node2 -->
<g id="edge13" class="edge">
<title>Node12&#45;&gt;Node2</title>
<path fill="none" stroke="midnightblue" d="M94.43,-30.51C117.99,-46.44 158.9,-72.17 197.5,-87 244.5,-105.05 300.39,-116.64 342.4,-123.52"/>
<polygon fill="midnightblue" stroke="midnightblue" points="342.07,-127.02 352.5,-125.13 343.17,-120.1 342.07,-127.02"/>
</g>
<!-- Node12&#45;&gt;Node7 -->
<g id="edge14" class="edge">
<title>Node12&#45;&gt;Node7</title>
<path fill="none" stroke="midnightblue" d="M122.05,-30.52C153.61,-40.69 194,-54.3 221.28,-63.98"/>
<polygon fill="midnightblue" stroke="midnightblue" points="220.45,-67.4 231.04,-67.48 222.81,-60.81 220.45,-67.4"/>
</g>
<!-- Node13&#45;&gt;Node2 -->
<g id="edge18" class="edge">
<title>Node13&#45;&gt;Node2</title>
<path fill="none" stroke="midnightblue" d="M496.15,-179.32C478.83,-170.66 451.98,-157.24 432,-147.25"/>
<polygon fill="midnightblue" stroke="midnightblue" points="433.32,-144 422.81,-142.65 430.19,-150.26 433.32,-144"/>
</g>
<!-- Node14 -->
<g id="node14" class="node">
<title>Node14</title>
<g id="a_node14"><a xlink:href="itkPixelTraits_8h.html" target="_top" xlink:title=" ">
<polygon fill="white" stroke="black" points="476.5,-123.5 476.5,-142.5 564.5,-142.5 564.5,-123.5 476.5,-123.5"/>
<text text-anchor="middle" x="520.5" y="-130.5" font-family="Helvetica,sans-Serif" font-size="10.00">itkPixelTraits.h</text>
</a>
</g>
</g>
<!-- Node13&#45;&gt;Node14 -->
<g id="edge16" class="edge">
<title>Node13&#45;&gt;Node14</title>
<path fill="none" stroke="midnightblue" d="M514.66,-179.08C515.58,-171.93 516.92,-161.64 518.08,-152.69"/>
<polygon fill="midnightblue" stroke="midnightblue" points="521.55,-153.12 519.37,-142.75 514.61,-152.22 521.55,-153.12"/>
</g>
<!-- Node15 -->
<g id="node15" class="node">
<title>Node15</title>
<g id="a_node15"><a xlink:title=" ">
<polygon fill="white" stroke="#bfbfbf" points="582.5,-123.5 582.5,-142.5 642.5,-142.5 642.5,-123.5 582.5,-123.5"/>
<text text-anchor="middle" x="612.5" y="-130.5" font-family="Helvetica,sans-Serif" font-size="10.00">iostream</text>
</a>
</g>
</g>
<!-- Node13&#45;&gt;Node15 -->
<g id="edge19" class="edge">
<title>Node13&#45;&gt;Node15</title>
<path fill="none" stroke="midnightblue" d="M529.41,-179.32C545.14,-170.74 569.44,-157.49 587.71,-147.52"/>
<polygon fill="midnightblue" stroke="midnightblue" points="589.53,-150.52 596.63,-142.65 586.18,-144.37 589.53,-150.52"/>
</g>
<!-- Node14&#45;&gt;Node3 -->
<g id="edge17" class="edge">
<title>Node14&#45;&gt;Node3</title>
<path fill="none" stroke="midnightblue" d="M532.91,-123.21C543.28,-115.09 557.48,-102.05 564.5,-87 572.05,-70.82 573.29,-50.31 572.95,-35.6"/>
<polygon fill="midnightblue" stroke="midnightblue" points="576.42,-35.04 572.42,-25.23 569.43,-35.39 576.42,-35.04"/>
</g>
</g>
</svg>
