<?xml version="1.0" encoding="UTF-8" standalone="no"?>
<!DOCTYPE svg PUBLIC "-//W3C//DTD SVG 1.1//EN"
 "http://www.w3.org/Graphics/SVG/1.1/DTD/svg11.dtd">
<!-- Generated by graphviz version 2.43.0 (0)
 -->
<!-- Title: itkCellInterfaceVisitor.h Pages: 1 -->
<svg width="803pt" height="588pt"
 viewBox="0.00 0.00 803.00 588.00" xmlns="http://www.w3.org/2000/svg" xmlns:xlink="http://www.w3.org/1999/xlink">
<g id="graph0" class="graph" transform="scale(1 1) rotate(0) translate(4 584)">
<title>itkCellInterfaceVisitor.h</title>
<polygon fill="white" stroke="transparent" points="-4,4 -4,-584 799,-584 799,4 -4,4"/>
<!-- Node1 -->
<g id="node1" class="node">
<title>Node1</title>
<g id="a_node1"><a xlink:title=" ">
<polygon fill="#bfbfbf" stroke="black" points="539.5,-560.5 539.5,-579.5 670.5,-579.5 670.5,-560.5 539.5,-560.5"/>
<text text-anchor="middle" x="605" y="-567.5" font-family="Helvetica,sans-Serif" font-size="10.00">itkCellInterfaceVisitor.h</text>
</a>
</g>
</g>
<!-- Node2 -->
<g id="node2" class="node">
<title>Node2</title>
<g id="a_node2"><a xlink:href="itkLightObject_8h.html" target="_top" xlink:title=" ">
<polygon fill="white" stroke="black" points="198,-168.5 198,-187.5 292,-187.5 292,-168.5 198,-168.5"/>
<text text-anchor="middle" x="245" y="-175.5" font-family="Helvetica,sans-Serif" font-size="10.00">itkLightObject.h</text>
</a>
</g>
</g>
<!-- Node1&#45;&gt;Node2 -->
<g id="edge1" class="edge">
<title>Node1&#45;&gt;Node2</title>
<path fill="none" stroke="midnightblue" d="M605,-560.44C605,-541.94 605,-496.81 605,-459 605,-459 605,-459 605,-289 605,-258.9 608.85,-243.59 586,-224 544.51,-188.42 387.99,-180.72 302.17,-179.21"/>
<polygon fill="midnightblue" stroke="midnightblue" points="302.12,-175.71 292.07,-179.06 302.01,-182.71 302.12,-175.71"/>
</g>
<!-- Node17 -->
<g id="node17" class="node">
<title>Node17</title>
<g id="a_node17"><a xlink:href="itkObjectFactory_8h.html" target="_top" xlink:title=" ">
<polygon fill="white" stroke="black" points="467,-504.5 467,-523.5 571,-523.5 571,-504.5 467,-504.5"/>
<text text-anchor="middle" x="519" y="-511.5" font-family="Helvetica,sans-Serif" font-size="10.00">itkObjectFactory.h</text>
</a>
</g>
</g>
<!-- Node1&#45;&gt;Node17 -->
<g id="edge22" class="edge">
<title>Node1&#45;&gt;Node17</title>
<path fill="none" stroke="midnightblue" d="M591.18,-560.32C577.77,-551.9 557.18,-538.97 541.41,-529.07"/>
<polygon fill="midnightblue" stroke="midnightblue" points="543.11,-526.01 532.78,-523.65 539.39,-531.94 543.11,-526.01"/>
</g>
<!-- Node30 -->
<g id="node30" class="node">
<title>Node30</title>
<g id="a_node30"><a xlink:href="itkCommonEnums_8h.html" target="_top" xlink:title=" ">
<polygon fill="white" stroke="black" points="633,-392.5 633,-411.5 749,-411.5 749,-392.5 633,-392.5"/>
<text text-anchor="middle" x="691" y="-399.5" font-family="Helvetica,sans-Serif" font-size="10.00">itkCommonEnums.h</text>
</a>
</g>
</g>
<!-- Node1&#45;&gt;Node30 -->
<g id="edge50" class="edge">
<title>Node1&#45;&gt;Node30</title>
<path fill="none" stroke="midnightblue" d="M609.62,-560.08C623.28,-533.72 663.61,-455.88 681.85,-420.66"/>
<polygon fill="midnightblue" stroke="midnightblue" points="685.07,-422.06 686.56,-411.57 678.85,-418.84 685.07,-422.06"/>
</g>
<!-- Node3 -->
<g id="node3" class="node">
<title>Node3</title>
<g id="a_node3"><a xlink:href="itkMacro_8h.html" target="_top" xlink:title=" ">
<polygon fill="white" stroke="black" points="352,-0.5 352,-19.5 420,-19.5 420,-0.5 352,-0.5"/>
<text text-anchor="middle" x="386" y="-7.5" font-family="Helvetica,sans-Serif" font-size="10.00">itkMacro.h</text>
</a>
</g>
</g>
<!-- Node2&#45;&gt;Node3 -->
<g id="edge2" class="edge">
<title>Node2&#45;&gt;Node3</title>
<path fill="none" stroke="midnightblue" d="M260.78,-168.39C286.99,-153.26 339.33,-119.34 367,-76 376,-61.91 380.86,-43.42 383.41,-29.76"/>
<polygon fill="midnightblue" stroke="midnightblue" points="386.9,-30.06 385.04,-19.63 379.99,-28.95 386.9,-30.06"/>
</g>
<!-- Node4 -->
<g id="node4" class="node">
<title>Node4</title>
<g id="a_node4"><a xlink:href="itkSmartPointer_8h.html" target="_top" xlink:title=" ">
<polygon fill="white" stroke="black" points="192.5,-112.5 192.5,-131.5 293.5,-131.5 293.5,-112.5 192.5,-112.5"/>
<text text-anchor="middle" x="243" y="-119.5" font-family="Helvetica,sans-Serif" font-size="10.00">itkSmartPointer.h</text>
</a>
</g>
</g>
<!-- Node2&#45;&gt;Node4 -->
<g id="edge3" class="edge">
<title>Node2&#45;&gt;Node4</title>
<path fill="none" stroke="midnightblue" d="M244.67,-168.08C244.41,-161.01 244.03,-150.86 243.7,-141.99"/>
<polygon fill="midnightblue" stroke="midnightblue" points="247.19,-141.61 243.32,-131.75 240.2,-141.87 247.19,-141.61"/>
</g>
<!-- Node5 -->
<g id="node5" class="node">
<title>Node5</title>
<g id="a_node5"><a xlink:title=" ">
<polygon fill="white" stroke="#bfbfbf" points="44,-56.5 44,-75.5 104,-75.5 104,-56.5 44,-56.5"/>
<text text-anchor="middle" x="74" y="-63.5" font-family="Helvetica,sans-Serif" font-size="10.00">iostream</text>
</a>
</g>
</g>
<!-- Node2&#45;&gt;Node5 -->
<g id="edge20" class="edge">
<title>Node2&#45;&gt;Node5</title>
<path fill="none" stroke="midnightblue" d="M231.58,-168.37C202.24,-149.49 132.12,-104.38 96.13,-81.24"/>
<polygon fill="midnightblue" stroke="midnightblue" points="97.66,-78.06 87.36,-75.59 93.87,-83.95 97.66,-78.06"/>
</g>
<!-- Node9 -->
<g id="node9" class="node">
<title>Node9</title>
<g id="a_node9"><a xlink:href="itkTimeStamp_8h.html" target="_top" xlink:title=" ">
<polygon fill="white" stroke="black" points="444.5,-112.5 444.5,-131.5 539.5,-131.5 539.5,-112.5 444.5,-112.5"/>
<text text-anchor="middle" x="492" y="-119.5" font-family="Helvetica,sans-Serif" font-size="10.00">itkTimeStamp.h</text>
</a>
</g>
</g>
<!-- Node2&#45;&gt;Node9 -->
<g id="edge8" class="edge">
<title>Node2&#45;&gt;Node9</title>
<path fill="none" stroke="midnightblue" d="M284.14,-168.44C327.23,-159.02 396.56,-143.87 443.17,-133.68"/>
<polygon fill="midnightblue" stroke="midnightblue" points="444.02,-137.07 453.05,-131.52 442.53,-130.23 444.02,-137.07"/>
</g>
<!-- Node13 -->
<g id="node13" class="node">
<title>Node13</title>
<g id="a_node13"><a xlink:title=" ">
<polygon fill="white" stroke="#bfbfbf" points="414,-56.5 414,-75.5 464,-75.5 464,-56.5 414,-56.5"/>
<text text-anchor="middle" x="439" y="-63.5" font-family="Helvetica,sans-Serif" font-size="10.00">atomic</text>
</a>
</g>
</g>
<!-- Node2&#45;&gt;Node13 -->
<g id="edge19" class="edge">
<title>Node2&#45;&gt;Node13</title>
<path fill="none" stroke="midnightblue" d="M292.16,-170.53C322.83,-164.5 362.48,-153.12 392,-132 409.12,-119.76 422.4,-99.32 430.42,-84.62"/>
<polygon fill="midnightblue" stroke="midnightblue" points="433.63,-86.03 435.1,-75.54 427.41,-82.82 433.63,-86.03"/>
</g>
<!-- Node15 -->
<g id="node15" class="node">
<title>Node15</title>
<g id="a_node15"><a xlink:href="itkIndent_8h.html" target="_top" xlink:title=" ">
<polygon fill="white" stroke="black" points="24.5,-112.5 24.5,-131.5 93.5,-131.5 93.5,-112.5 24.5,-112.5"/>
<text text-anchor="middle" x="59" y="-119.5" font-family="Helvetica,sans-Serif" font-size="10.00">itkIndent.h</text>
</a>
</g>
</g>
<!-- Node2&#45;&gt;Node15 -->
<g id="edge16" class="edge">
<title>Node2&#45;&gt;Node15</title>
<path fill="none" stroke="midnightblue" d="M215.53,-168.44C183.83,-159.24 133.27,-144.56 98.23,-134.39"/>
<polygon fill="midnightblue" stroke="midnightblue" points="98.91,-130.94 88.33,-131.52 96.96,-137.67 98.91,-130.94"/>
</g>
<!-- Node16 -->
<g id="node16" class="node">
<title>Node16</title>
<g id="a_node16"><a xlink:title=" ">
<polygon fill="white" stroke="#bfbfbf" points="557.5,-112.5 557.5,-131.5 614.5,-131.5 614.5,-112.5 557.5,-112.5"/>
<text text-anchor="middle" x="586" y="-119.5" font-family="Helvetica,sans-Serif" font-size="10.00">typeinfo</text>
</a>
</g>
</g>
<!-- Node2&#45;&gt;Node16 -->
<g id="edge21" class="edge">
<title>Node2&#45;&gt;Node16</title>
<path fill="none" stroke="midnightblue" d="M292.1,-171.39C350.05,-164.18 451.64,-150.58 547.52,-132.15"/>
<polygon fill="midnightblue" stroke="midnightblue" points="548.23,-135.58 557.37,-130.24 546.89,-128.71 548.23,-135.58"/>
</g>
<!-- Node4&#45;&gt;Node5 -->
<g id="edge4" class="edge">
<title>Node4&#45;&gt;Node5</title>
<path fill="none" stroke="midnightblue" d="M216.22,-112.44C187.67,-103.32 142.27,-88.81 110.46,-78.65"/>
<polygon fill="midnightblue" stroke="midnightblue" points="111.24,-75.23 100.65,-75.52 109.11,-81.89 111.24,-75.23"/>
</g>
<!-- Node6 -->
<g id="node6" class="node">
<title>Node6</title>
<g id="a_node6"><a xlink:title=" ">
<polygon fill="white" stroke="#bfbfbf" points="122.5,-56.5 122.5,-75.5 167.5,-75.5 167.5,-56.5 122.5,-56.5"/>
<text text-anchor="middle" x="145" y="-63.5" font-family="Helvetica,sans-Serif" font-size="10.00">utility</text>
</a>
</g>
</g>
<!-- Node4&#45;&gt;Node6 -->
<g id="edge5" class="edge">
<title>Node4&#45;&gt;Node6</title>
<path fill="none" stroke="midnightblue" d="M227.25,-112.32C211.68,-103.74 187.62,-90.49 169.54,-80.52"/>
<polygon fill="midnightblue" stroke="midnightblue" points="171.15,-77.42 160.71,-75.65 167.78,-83.55 171.15,-77.42"/>
</g>
<!-- Node7 -->
<g id="node7" class="node">
<title>Node7</title>
<g id="a_node7"><a xlink:title=" ">
<polygon fill="white" stroke="#bfbfbf" points="185.5,-56.5 185.5,-75.5 254.5,-75.5 254.5,-56.5 185.5,-56.5"/>
<text text-anchor="middle" x="220" y="-63.5" font-family="Helvetica,sans-Serif" font-size="10.00">type_traits</text>
</a>
</g>
</g>
<!-- Node4&#45;&gt;Node7 -->
<g id="edge6" class="edge">
<title>Node4&#45;&gt;Node7</title>
<path fill="none" stroke="midnightblue" d="M239.2,-112.08C236.09,-104.77 231.58,-94.18 227.71,-85.1"/>
<polygon fill="midnightblue" stroke="midnightblue" points="230.87,-83.58 223.73,-75.75 224.43,-86.32 230.87,-83.58"/>
</g>
<!-- Node8 -->
<g id="node8" class="node">
<title>Node8</title>
<g id="a_node8"><a xlink:title=" ">
<polygon fill="white" stroke="#bfbfbf" points="272.5,-56.5 272.5,-75.5 357.5,-75.5 357.5,-56.5 272.5,-56.5"/>
<text text-anchor="middle" x="315" y="-63.5" font-family="Helvetica,sans-Serif" font-size="10.00">itkConfigure.h</text>
</a>
</g>
</g>
<!-- Node4&#45;&gt;Node8 -->
<g id="edge7" class="edge">
<title>Node4&#45;&gt;Node8</title>
<path fill="none" stroke="midnightblue" d="M254.57,-112.32C265.42,-104.18 281.88,-91.84 294.88,-82.09"/>
<polygon fill="midnightblue" stroke="midnightblue" points="297.32,-84.63 303.22,-75.83 293.12,-79.03 297.32,-84.63"/>
</g>
<!-- Node9&#45;&gt;Node3 -->
<g id="edge9" class="edge">
<title>Node9&#45;&gt;Node3</title>
<path fill="none" stroke="midnightblue" d="M491.6,-112.43C490.55,-98.97 486.75,-72.7 473,-56 460.71,-41.08 442.18,-30.53 425.37,-23.42"/>
<polygon fill="midnightblue" stroke="midnightblue" points="426.32,-20.04 415.74,-19.63 423.76,-26.55 426.32,-20.04"/>
</g>
<!-- Node10 -->
<g id="node10" class="node">
<title>Node10</title>
<g id="a_node10"><a xlink:href="itkIntTypes_8h.html" target="_top" xlink:title=" ">
<polygon fill="white" stroke="black" points="520.5,-56.5 520.5,-75.5 599.5,-75.5 599.5,-56.5 520.5,-56.5"/>
<text text-anchor="middle" x="560" y="-63.5" font-family="Helvetica,sans-Serif" font-size="10.00">itkIntTypes.h</text>
</a>
</g>
</g>
<!-- Node9&#45;&gt;Node10 -->
<g id="edge10" class="edge">
<title>Node9&#45;&gt;Node10</title>
<path fill="none" stroke="midnightblue" d="M502.93,-112.32C513.17,-104.18 528.72,-91.84 541,-82.09"/>
<polygon fill="midnightblue" stroke="midnightblue" points="543.22,-84.79 548.88,-75.83 538.87,-79.31 543.22,-84.79"/>
</g>
<!-- Node9&#45;&gt;Node13 -->
<g id="edge14" class="edge">
<title>Node9&#45;&gt;Node13</title>
<path fill="none" stroke="midnightblue" d="M483.25,-112.08C475.53,-104.22 464.1,-92.57 454.78,-83.08"/>
<polygon fill="midnightblue" stroke="midnightblue" points="457.09,-80.44 447.59,-75.75 452.1,-85.34 457.09,-80.44"/>
</g>
<!-- Node14 -->
<g id="node14" class="node">
<title>Node14</title>
<g id="a_node14"><a xlink:href="itkSingletonMacro_8h.html" target="_top" xlink:title=" ">
<polygon fill="white" stroke="black" points="618,-56.5 618,-75.5 732,-75.5 732,-56.5 618,-56.5"/>
<text text-anchor="middle" x="675" y="-63.5" font-family="Helvetica,sans-Serif" font-size="10.00">itkSingletonMacro.h</text>
</a>
</g>
</g>
<!-- Node9&#45;&gt;Node14 -->
<g id="edge15" class="edge">
<title>Node9&#45;&gt;Node14</title>
<path fill="none" stroke="midnightblue" d="M521,-112.44C552.18,-103.24 601.93,-88.56 636.41,-78.39"/>
<polygon fill="midnightblue" stroke="midnightblue" points="637.54,-81.7 646.14,-75.52 635.56,-74.99 637.54,-81.7"/>
</g>
<!-- Node10&#45;&gt;Node3 -->
<g id="edge11" class="edge">
<title>Node10&#45;&gt;Node3</title>
<path fill="none" stroke="midnightblue" d="M532.43,-56.44C502.9,-47.28 455.88,-32.69 423.12,-22.52"/>
<polygon fill="midnightblue" stroke="midnightblue" points="424.03,-19.14 413.44,-19.52 421.96,-25.82 424.03,-19.14"/>
</g>
<!-- Node11 -->
<g id="node11" class="node">
<title>Node11</title>
<g id="a_node11"><a xlink:title=" ">
<polygon fill="white" stroke="#bfbfbf" points="569,-0.5 569,-19.5 619,-19.5 619,-0.5 569,-0.5"/>
<text text-anchor="middle" x="594" y="-7.5" font-family="Helvetica,sans-Serif" font-size="10.00">cstdint</text>
</a>
</g>
</g>
<!-- Node10&#45;&gt;Node11 -->
<g id="edge12" class="edge">
<title>Node10&#45;&gt;Node11</title>
<path fill="none" stroke="midnightblue" d="M565.61,-56.08C570.37,-48.53 577.32,-37.49 583.15,-28.23"/>
<polygon fill="midnightblue" stroke="midnightblue" points="586.12,-30.08 588.49,-19.75 580.2,-26.35 586.12,-30.08"/>
</g>
<!-- Node12 -->
<g id="node12" class="node">
<title>Node12</title>
<g id="a_node12"><a xlink:title=" ">
<polygon fill="white" stroke="#bfbfbf" points="501,-0.5 501,-19.5 551,-19.5 551,-0.5 501,-0.5"/>
<text text-anchor="middle" x="526" y="-7.5" font-family="Helvetica,sans-Serif" font-size="10.00">climits</text>
</a>
</g>
</g>
<!-- Node10&#45;&gt;Node12 -->
<g id="edge13" class="edge">
<title>Node10&#45;&gt;Node12</title>
<path fill="none" stroke="midnightblue" d="M554.39,-56.08C549.63,-48.53 542.68,-37.49 536.85,-28.23"/>
<polygon fill="midnightblue" stroke="midnightblue" points="539.8,-26.35 531.51,-19.75 533.88,-30.08 539.8,-26.35"/>
</g>
<!-- Node15&#45;&gt;Node3 -->
<g id="edge17" class="edge">
<title>Node15&#45;&gt;Node3</title>
<path fill="none" stroke="midnightblue" d="M50.9,-112.41C39.17,-98.93 20.38,-72.62 35,-56 54.98,-33.29 251.97,-18.89 341.78,-13.45"/>
<polygon fill="midnightblue" stroke="midnightblue" points="342.15,-16.94 351.93,-12.85 341.74,-9.95 342.15,-16.94"/>
</g>
<!-- Node15&#45;&gt;Node5 -->
<g id="edge18" class="edge">
<title>Node15&#45;&gt;Node5</title>
<path fill="none" stroke="midnightblue" d="M61.48,-112.08C63.49,-104.85 66.39,-94.41 68.89,-85.4"/>
<polygon fill="midnightblue" stroke="midnightblue" points="72.26,-86.32 71.57,-75.75 65.52,-84.45 72.26,-86.32"/>
</g>
<!-- Node18 -->
<g id="node18" class="node">
<title>Node18</title>
<g id="a_node18"><a xlink:href="itkObjectFactoryBase_8h.html" target="_top" xlink:title=" ">
<polygon fill="white" stroke="black" points="447.5,-448.5 447.5,-467.5 576.5,-467.5 576.5,-448.5 447.5,-448.5"/>
<text text-anchor="middle" x="512" y="-455.5" font-family="Helvetica,sans-Serif" font-size="10.00">itkObjectFactoryBase.h</text>
</a>
</g>
</g>
<!-- Node17&#45;&gt;Node18 -->
<g id="edge23" class="edge">
<title>Node17&#45;&gt;Node18</title>
<path fill="none" stroke="midnightblue" d="M517.84,-504.08C516.92,-496.93 515.58,-486.64 514.42,-477.69"/>
<polygon fill="midnightblue" stroke="midnightblue" points="517.89,-477.22 513.13,-467.75 510.95,-478.12 517.89,-477.22"/>
</g>
<!-- Node18&#45;&gt;Node14 -->
<g id="edge43" class="edge">
<title>Node18&#45;&gt;Node14</title>
<path fill="none" stroke="midnightblue" d="M576.71,-451.36C639.55,-444.81 729.5,-432.23 758,-412 785.11,-392.76 795,-380.24 795,-347 795,-347 795,-347 795,-177 795,-129.08 742.36,-96.38 706.81,-79.76"/>
<polygon fill="midnightblue" stroke="midnightblue" points="707.85,-76.4 697.29,-75.5 704.99,-82.78 707.85,-76.4"/>
</g>
<!-- Node19 -->
<g id="node19" class="node">
<title>Node19</title>
<g id="a_node19"><a xlink:href="itkCreateObjectFunction_8h.html" target="_top" xlink:title=" ">
<polygon fill="white" stroke="black" points="389.5,-392.5 389.5,-411.5 532.5,-411.5 532.5,-392.5 389.5,-392.5"/>
<text text-anchor="middle" x="461" y="-399.5" font-family="Helvetica,sans-Serif" font-size="10.00">itkCreateObjectFunction.h</text>
</a>
</g>
</g>
<!-- Node18&#45;&gt;Node19 -->
<g id="edge24" class="edge">
<title>Node18&#45;&gt;Node19</title>
<path fill="none" stroke="midnightblue" d="M503.58,-448.08C496.15,-440.22 485.15,-428.57 476.19,-419.08"/>
<polygon fill="midnightblue" stroke="midnightblue" points="478.68,-416.62 469.26,-411.75 473.59,-421.42 478.68,-416.62"/>
</g>
<!-- Node25 -->
<g id="node25" class="node">
<title>Node25</title>
<g id="a_node25"><a xlink:title=" ">
<polygon fill="white" stroke="#bfbfbf" points="17.5,-224.5 17.5,-243.5 64.5,-243.5 64.5,-224.5 17.5,-224.5"/>
<text text-anchor="middle" x="41" y="-231.5" font-family="Helvetica,sans-Serif" font-size="10.00">vector</text>
</a>
</g>
</g>
<!-- Node18&#45;&gt;Node25 -->
<g id="edge49" class="edge">
<title>Node18&#45;&gt;Node25</title>
<path fill="none" stroke="midnightblue" d="M460.11,-448.43C422.97,-441.28 372.28,-429.43 330,-412 240.43,-375.08 225.41,-350.93 143,-300 115.12,-282.77 83.31,-262.39 62.74,-249.1"/>
<polygon fill="midnightblue" stroke="midnightblue" points="64.43,-246.02 54.13,-243.53 60.63,-251.9 64.43,-246.02"/>
</g>
<!-- Node28 -->
<g id="node28" class="node">
<title>Node28</title>
<g id="a_node28"><a xlink:title=" ">
<polygon fill="white" stroke="#bfbfbf" points="519,-224.5 519,-243.5 577,-243.5 577,-224.5 519,-224.5"/>
<text text-anchor="middle" x="548" y="-231.5" font-family="Helvetica,sans-Serif" font-size="10.00">memory</text>
</a>
</g>
</g>
<!-- Node18&#45;&gt;Node28 -->
<g id="edge48" class="edge">
<title>Node18&#45;&gt;Node28</title>
<path fill="none" stroke="midnightblue" d="M519.83,-448.47C527.1,-439.96 537.46,-426.12 542,-412 559.76,-356.75 554.59,-286.75 550.65,-253.79"/>
<polygon fill="midnightblue" stroke="midnightblue" points="554.11,-253.23 549.35,-243.76 547.17,-254.13 554.11,-253.23"/>
</g>
<!-- Node18&#45;&gt;Node30 -->
<g id="edge44" class="edge">
<title>Node18&#45;&gt;Node30</title>
<path fill="none" stroke="midnightblue" d="M540.36,-448.44C570.74,-439.28 619.11,-424.69 652.82,-414.52"/>
<polygon fill="midnightblue" stroke="midnightblue" points="654.21,-417.76 662.77,-411.52 652.18,-411.05 654.21,-417.76"/>
</g>
<!-- Node32 -->
<g id="node32" class="node">
<title>Node32</title>
<g id="a_node32"><a xlink:title=" ">
<polygon fill="white" stroke="#bfbfbf" points="339,-392.5 339,-411.5 371,-411.5 371,-392.5 339,-392.5"/>
<text text-anchor="middle" x="355" y="-399.5" font-family="Helvetica,sans-Serif" font-size="10.00">list</text>
</a>
</g>
</g>
<!-- Node18&#45;&gt;Node32 -->
<g id="edge47" class="edge">
<title>Node18&#45;&gt;Node32</title>
<path fill="none" stroke="midnightblue" d="M486.88,-448.39C460.51,-439.35 417.83,-424.7 381,-412 380.9,-411.97 380.8,-411.93 380.7,-411.9"/>
<polygon fill="midnightblue" stroke="midnightblue" points="381.82,-408.58 371.23,-408.62 379.53,-415.2 381.82,-408.58"/>
</g>
<!-- Node20 -->
<g id="node20" class="node">
<title>Node20</title>
<g id="a_node20"><a xlink:href="itkObject_8h.html" target="_top" xlink:title=" ">
<polygon fill="white" stroke="black" points="404,-336.5 404,-355.5 474,-355.5 474,-336.5 404,-336.5"/>
<text text-anchor="middle" x="439" y="-343.5" font-family="Helvetica,sans-Serif" font-size="10.00">itkObject.h</text>
</a>
</g>
</g>
<!-- Node19&#45;&gt;Node20 -->
<g id="edge25" class="edge">
<title>Node19&#45;&gt;Node20</title>
<path fill="none" stroke="midnightblue" d="M457.37,-392.08C454.39,-384.77 450.07,-374.18 446.38,-365.1"/>
<polygon fill="midnightblue" stroke="midnightblue" points="449.58,-363.69 442.57,-355.75 443.1,-366.33 449.58,-363.69"/>
</g>
<!-- Node20&#45;&gt;Node2 -->
<g id="edge26" class="edge">
<title>Node20&#45;&gt;Node2</title>
<path fill="none" stroke="midnightblue" d="M403.79,-345.4C339.41,-343.95 204.32,-330.23 150,-244 134.26,-219.02 168.32,-201.23 199.94,-190.64"/>
<polygon fill="midnightblue" stroke="midnightblue" points="201.14,-193.94 209.62,-187.59 199.03,-187.26 201.14,-193.94"/>
</g>
<!-- Node20&#45;&gt;Node14 -->
<g id="edge40" class="edge">
<title>Node20&#45;&gt;Node14</title>
<path fill="none" stroke="midnightblue" d="M474.07,-341.91C532.4,-334.64 643,-310.85 643,-235 643,-235 643,-235 643,-177 643,-143.33 656.99,-106.08 666.47,-84.72"/>
<polygon fill="midnightblue" stroke="midnightblue" points="669.67,-86.14 670.68,-75.59 663.32,-83.21 669.67,-86.14"/>
</g>
<!-- Node21 -->
<g id="node21" class="node">
<title>Node21</title>
<g id="a_node21"><a xlink:href="itkEventObject_8h.html" target="_top" xlink:title=" ">
<polygon fill="white" stroke="black" points="0,-168.5 0,-187.5 98,-187.5 98,-168.5 0,-168.5"/>
<text text-anchor="middle" x="49" y="-175.5" font-family="Helvetica,sans-Serif" font-size="10.00">itkEventObject.h</text>
</a>
</g>
</g>
<!-- Node20&#45;&gt;Node21 -->
<g id="edge27" class="edge">
<title>Node20&#45;&gt;Node21</title>
<path fill="none" stroke="midnightblue" d="M403.98,-345.09C352.32,-343.89 253.86,-336.49 180,-300 128.63,-274.62 83.07,-222.69 61.76,-195.87"/>
<polygon fill="midnightblue" stroke="midnightblue" points="64.4,-193.56 55.5,-187.81 58.87,-197.85 64.4,-193.56"/>
</g>
<!-- Node22 -->
<g id="node22" class="node">
<title>Node22</title>
<g id="a_node22"><a xlink:href="itkMetaDataDictionary_8h.html" target="_top" xlink:title=" ">
<polygon fill="white" stroke="black" points="275.5,-280.5 275.5,-299.5 410.5,-299.5 410.5,-280.5 275.5,-280.5"/>
<text text-anchor="middle" x="343" y="-287.5" font-family="Helvetica,sans-Serif" font-size="10.00">itkMetaDataDictionary.h</text>
</a>
</g>
</g>
<!-- Node20&#45;&gt;Node22 -->
<g id="edge30" class="edge">
<title>Node20&#45;&gt;Node22</title>
<path fill="none" stroke="midnightblue" d="M423.58,-336.32C408.46,-327.82 385.18,-314.73 367.53,-304.8"/>
<polygon fill="midnightblue" stroke="midnightblue" points="368.82,-301.51 358.39,-299.65 365.39,-307.61 368.82,-301.51"/>
</g>
<!-- Node20&#45;&gt;Node28 -->
<g id="edge42" class="edge">
<title>Node20&#45;&gt;Node28</title>
<path fill="none" stroke="midnightblue" d="M439.53,-336.41C440.79,-322.92 444.99,-296.61 459,-280 472.09,-264.48 491.87,-253.73 509.45,-246.65"/>
<polygon fill="midnightblue" stroke="midnightblue" points="510.82,-249.87 518.94,-243.08 508.35,-243.32 510.82,-249.87"/>
</g>
<!-- Node29 -->
<g id="node29" class="node">
<title>Node29</title>
<g id="a_node29"><a xlink:title=" ">
<polygon fill="white" stroke="#bfbfbf" points="467.5,-280.5 467.5,-299.5 532.5,-299.5 532.5,-280.5 467.5,-280.5"/>
<text text-anchor="middle" x="500" y="-287.5" font-family="Helvetica,sans-Serif" font-size="10.00">functional</text>
</a>
</g>
</g>
<!-- Node20&#45;&gt;Node29 -->
<g id="edge41" class="edge">
<title>Node20&#45;&gt;Node29</title>
<path fill="none" stroke="midnightblue" d="M448.8,-336.32C457.82,-328.34 471.41,-316.31 482.32,-306.65"/>
<polygon fill="midnightblue" stroke="midnightblue" points="484.85,-309.08 490.02,-299.83 480.21,-303.84 484.85,-309.08"/>
</g>
<!-- Node21&#45;&gt;Node3 -->
<g id="edge28" class="edge">
<title>Node21&#45;&gt;Node3</title>
<path fill="none" stroke="midnightblue" d="M39.71,-168.39C31.42,-160.02 19.86,-146.48 15,-132 7.98,-111.07 19.93,-60.81 25,-56 69.65,-13.65 255.5,-9.7 341.72,-10.23"/>
<polygon fill="midnightblue" stroke="midnightblue" points="341.94,-13.73 351.97,-10.31 342,-6.73 341.94,-13.73"/>
</g>
<!-- Node21&#45;&gt;Node15 -->
<g id="edge29" class="edge">
<title>Node21&#45;&gt;Node15</title>
<path fill="none" stroke="midnightblue" d="M50.65,-168.08C51.98,-160.93 53.88,-150.64 55.54,-141.69"/>
<polygon fill="midnightblue" stroke="midnightblue" points="59,-142.22 57.38,-131.75 52.12,-140.95 59,-142.22"/>
</g>
<!-- Node23 -->
<g id="node23" class="node">
<title>Node23</title>
<g id="a_node23"><a xlink:href="itkMetaDataObjectBase_8h.html" target="_top" xlink:title=" ">
<polygon fill="white" stroke="black" points="159,-224.5 159,-243.5 301,-243.5 301,-224.5 159,-224.5"/>
<text text-anchor="middle" x="230" y="-231.5" font-family="Helvetica,sans-Serif" font-size="10.00">itkMetaDataObjectBase.h</text>
</a>
</g>
</g>
<!-- Node22&#45;&gt;Node23 -->
<g id="edge31" class="edge">
<title>Node22&#45;&gt;Node23</title>
<path fill="none" stroke="midnightblue" d="M325.09,-280.44C306.75,-271.68 277.99,-257.94 256.91,-247.86"/>
<polygon fill="midnightblue" stroke="midnightblue" points="258.35,-244.67 247.82,-243.52 255.33,-250.99 258.35,-244.67"/>
</g>
<!-- Node24 -->
<g id="node24" class="node">
<title>Node24</title>
<g id="a_node24"><a xlink:title=" ">
<polygon fill="white" stroke="#bfbfbf" points="437,-224.5 437,-243.5 501,-243.5 501,-224.5 437,-224.5"/>
<text text-anchor="middle" x="469" y="-231.5" font-family="Helvetica,sans-Serif" font-size="10.00">algorithm</text>
</a>
</g>
</g>
<!-- Node22&#45;&gt;Node24 -->
<g id="edge35" class="edge">
<title>Node22&#45;&gt;Node24</title>
<path fill="none" stroke="midnightblue" d="M362.97,-280.44C383.61,-271.6 416.06,-257.69 439.63,-247.59"/>
<polygon fill="midnightblue" stroke="midnightblue" points="441.32,-250.67 449.13,-243.52 438.56,-244.24 441.32,-250.67"/>
</g>
<!-- Node22&#45;&gt;Node25 -->
<g id="edge36" class="edge">
<title>Node22&#45;&gt;Node25</title>
<path fill="none" stroke="midnightblue" d="M295.15,-280.44C233.71,-269.46 128.64,-250.67 74.88,-241.06"/>
<polygon fill="midnightblue" stroke="midnightblue" points="75.29,-237.58 64.83,-239.26 74.06,-244.47 75.29,-237.58"/>
</g>
<!-- Node26 -->
<g id="node26" class="node">
<title>Node26</title>
<g id="a_node26"><a xlink:title=" ">
<polygon fill="white" stroke="#bfbfbf" points="319,-224.5 319,-243.5 357,-243.5 357,-224.5 319,-224.5"/>
<text text-anchor="middle" x="338" y="-231.5" font-family="Helvetica,sans-Serif" font-size="10.00">map</text>
</a>
</g>
</g>
<!-- Node22&#45;&gt;Node26 -->
<g id="edge37" class="edge">
<title>Node22&#45;&gt;Node26</title>
<path fill="none" stroke="midnightblue" d="M342.17,-280.08C341.52,-273.01 340.58,-262.86 339.76,-253.99"/>
<polygon fill="midnightblue" stroke="midnightblue" points="343.22,-253.39 338.81,-243.75 336.25,-254.03 343.22,-253.39"/>
</g>
<!-- Node27 -->
<g id="node27" class="node">
<title>Node27</title>
<g id="a_node27"><a xlink:title=" ">
<polygon fill="white" stroke="#bfbfbf" points="375,-224.5 375,-243.5 419,-243.5 419,-224.5 375,-224.5"/>
<text text-anchor="middle" x="397" y="-231.5" font-family="Helvetica,sans-Serif" font-size="10.00">string</text>
</a>
</g>
</g>
<!-- Node22&#45;&gt;Node27 -->
<g id="edge38" class="edge">
<title>Node22&#45;&gt;Node27</title>
<path fill="none" stroke="midnightblue" d="M351.92,-280.08C359.78,-272.22 371.43,-260.57 380.92,-251.08"/>
<polygon fill="midnightblue" stroke="midnightblue" points="383.65,-253.3 388.25,-243.75 378.7,-248.35 383.65,-253.3"/>
</g>
<!-- Node22&#45;&gt;Node28 -->
<g id="edge39" class="edge">
<title>Node22&#45;&gt;Node28</title>
<path fill="none" stroke="midnightblue" d="M375.48,-280.44C411.76,-270.89 470.44,-255.43 509.12,-245.24"/>
<polygon fill="midnightblue" stroke="midnightblue" points="510.21,-248.58 518.98,-242.64 508.42,-241.81 510.21,-248.58"/>
</g>
<!-- Node23&#45;&gt;Node2 -->
<g id="edge32" class="edge">
<title>Node23&#45;&gt;Node2</title>
<path fill="none" stroke="midnightblue" d="M232.48,-224.08C234.49,-216.85 237.39,-206.41 239.89,-197.4"/>
<polygon fill="midnightblue" stroke="midnightblue" points="243.26,-198.32 242.57,-187.75 236.52,-196.45 243.26,-198.32"/>
</g>
<!-- Node23&#45;&gt;Node5 -->
<g id="edge34" class="edge">
<title>Node23&#45;&gt;Node5</title>
<path fill="none" stroke="midnightblue" d="M221.61,-224.08C196.42,-197.27 121.17,-117.19 88.93,-82.89"/>
<polygon fill="midnightblue" stroke="midnightblue" points="91.45,-80.46 82.05,-75.57 86.35,-85.25 91.45,-80.46"/>
</g>
<!-- Node23&#45;&gt;Node16 -->
<g id="edge33" class="edge">
<title>Node23&#45;&gt;Node16</title>
<path fill="none" stroke="midnightblue" d="M257.64,-224.46C320.99,-204.89 476.72,-156.77 548.57,-134.57"/>
<polygon fill="midnightblue" stroke="midnightblue" points="549.61,-137.91 558.13,-131.61 547.55,-131.22 549.61,-137.91"/>
</g>
<!-- Node30&#45;&gt;Node10 -->
<g id="edge45" class="edge">
<title>Node30&#45;&gt;Node10</title>
<path fill="none" stroke="midnightblue" d="M689.69,-392.47C686.98,-374.01 681,-328.97 681,-291 681,-291 681,-291 681,-177 681,-128.99 628.2,-96.41 592.36,-79.82"/>
<polygon fill="midnightblue" stroke="midnightblue" points="593.32,-76.42 582.76,-75.57 590.48,-82.82 593.32,-76.42"/>
</g>
<!-- Node31 -->
<g id="node31" class="node">
<title>Node31</title>
<g id="a_node31"><a xlink:title=" ">
<polygon fill="white" stroke="#bfbfbf" points="709.5,-336.5 709.5,-355.5 766.5,-355.5 766.5,-336.5 709.5,-336.5"/>
<text text-anchor="middle" x="738" y="-343.5" font-family="Helvetica,sans-Serif" font-size="10.00">ostream</text>
</a>
</g>
</g>
<!-- Node30&#45;&gt;Node31 -->
<g id="edge46" class="edge">
<title>Node30&#45;&gt;Node31</title>
<path fill="none" stroke="midnightblue" d="M698.76,-392.08C705.54,-384.3 715.54,-372.8 723.76,-363.37"/>
<polygon fill="midnightblue" stroke="midnightblue" points="726.46,-365.59 730.38,-355.75 721.18,-361 726.46,-365.59"/>
</g>
</g>
</svg>
