<?xml version="1.0" encoding="UTF-8" standalone="no"?>
<!DOCTYPE svg PUBLIC "-//W3C//DTD SVG 1.1//EN"
 "http://www.w3.org/Graphics/SVG/1.1/DTD/svg11.dtd">
<!-- Generated by graphviz version 2.43.0 (0)
 -->
<!-- Title: itkConstShapedNeighborhoodIterator.h Pages: 1 -->
<svg width="3460pt" height="363pt"
 viewBox="0.00 0.00 3459.50 363.00" xmlns="http://www.w3.org/2000/svg" xmlns:xlink="http://www.w3.org/1999/xlink">
<g id="graph0" class="graph" transform="scale(1 1) rotate(0) translate(4 359)">
<title>itkConstShapedNeighborhoodIterator.h</title>
<polygon fill="white" stroke="transparent" points="-4,4 -4,-359 3455.5,-359 3455.5,4 -4,4"/>
<!-- Node1 -->
<g id="node1" class="node">
<title>Node1</title>
<g id="a_node1"><a xlink:title=" ">
<polygon fill="#bfbfbf" stroke="black" points="1849.5,-324.5 1849.5,-354.5 2010.5,-354.5 2010.5,-324.5 1849.5,-324.5"/>
<text text-anchor="start" x="1857.5" y="-342.5" font-family="Helvetica,sans-Serif" font-size="10.00">itkConstShapedNeighborhood</text>
<text text-anchor="middle" x="1930" y="-331.5" font-family="Helvetica,sans-Serif" font-size="10.00">Iterator.h</text>
</a>
</g>
</g>
<!-- Node2 -->
<g id="node2" class="node">
<title>Node2</title>
<g id="a_node2"><a xlink:href="itkScanlineFilterCommon_8h.html" target="_top" xlink:title=" ">
<polygon fill="white" stroke="black" points="1431.5,-268.5 1431.5,-287.5 1580.5,-287.5 1580.5,-268.5 1431.5,-268.5"/>
<text text-anchor="middle" x="1506" y="-275.5" font-family="Helvetica,sans-Serif" font-size="10.00">itkScanlineFilterCommon.h</text>
</a>
</g>
</g>
<!-- Node1&#45;&gt;Node2 -->
<g id="edge1" class="edge">
<title>Node1&#45;&gt;Node2</title>
<path fill="none" stroke="midnightblue" d="M1839.16,-325.75C1756.97,-314.22 1638.19,-297.55 1566.89,-287.55"/>
<polygon fill="midnightblue" stroke="midnightblue" points="1838.86,-329.24 1849.25,-327.17 1839.83,-322.31 1838.86,-329.24"/>
</g>
<!-- Node20 -->
<g id="node20" class="node">
<title>Node20</title>
<g id="a_node20"><a xlink:href="itkShapedNeighborhoodIterator_8h.html" target="_top" xlink:title=" ">
<polygon fill="white" stroke="black" points="2358,-268.5 2358,-287.5 2536,-287.5 2536,-268.5 2358,-268.5"/>
<text text-anchor="middle" x="2447" y="-275.5" font-family="Helvetica,sans-Serif" font-size="10.00">itkShapedNeighborhoodIterator.h</text>
</a>
</g>
</g>
<!-- Node1&#45;&gt;Node20 -->
<g id="edge19" class="edge">
<title>Node1&#45;&gt;Node20</title>
<path fill="none" stroke="midnightblue" d="M2020.89,-328.04C2121.05,-316.51 2280.24,-298.19 2373.06,-287.51"/>
<polygon fill="midnightblue" stroke="midnightblue" points="2020.32,-324.58 2010.78,-329.2 2021.12,-331.54 2020.32,-324.58"/>
</g>
<!-- Node3 -->
<g id="node3" class="node">
<title>Node3</title>
<g id="a_node3"><a xlink:href="itkBinaryContourImageFilter_8h.html" target="_top" xlink:title=" ">
<polygon fill="white" stroke="black" points="673.5,-207 673.5,-226 836.5,-226 836.5,-207 673.5,-207"/>
<text text-anchor="middle" x="755" y="-214" font-family="Helvetica,sans-Serif" font-size="10.00">itkBinaryContourImageFilter.h</text>
</a>
</g>
</g>
<!-- Node2&#45;&gt;Node3 -->
<g id="edge2" class="edge">
<title>Node2&#45;&gt;Node3</title>
<path fill="none" stroke="midnightblue" d="M1421.11,-273.71C1295.08,-268.27 1051.19,-255.58 845,-232 831.32,-230.44 816.54,-228.26 803,-226.07"/>
<polygon fill="midnightblue" stroke="midnightblue" points="1421.31,-277.23 1431.45,-274.16 1421.61,-270.23 1421.31,-277.23"/>
</g>
<!-- Node4 -->
<g id="node4" class="node">
<title>Node4</title>
<g id="a_node4"><a xlink:href="itkBinaryImageToLabelMapFilter_8h.html" target="_top" xlink:title=" ">
<polygon fill="white" stroke="black" points="854.5,-201.5 854.5,-231.5 1003.5,-231.5 1003.5,-201.5 854.5,-201.5"/>
<text text-anchor="start" x="862.5" y="-219.5" font-family="Helvetica,sans-Serif" font-size="10.00">itkBinaryImageToLabelMap</text>
<text text-anchor="middle" x="929" y="-208.5" font-family="Helvetica,sans-Serif" font-size="10.00">Filter.h</text>
</a>
</g>
</g>
<!-- Node2&#45;&gt;Node4 -->
<g id="edge3" class="edge">
<title>Node2&#45;&gt;Node4</title>
<path fill="none" stroke="midnightblue" d="M1421.49,-268.29C1308.86,-256.67 1111.28,-236.3 1003.79,-225.21"/>
<polygon fill="midnightblue" stroke="midnightblue" points="1421.15,-271.77 1431.45,-269.31 1421.87,-264.81 1421.15,-271.77"/>
</g>
<!-- Node14 -->
<g id="node14" class="node">
<title>Node14</title>
<g id="a_node14"><a xlink:href="itkConnectedComponentImageFilter_8h.html" target="_top" xlink:title=" ">
<polygon fill="white" stroke="black" points="1422,-201.5 1422,-231.5 1590,-231.5 1590,-201.5 1422,-201.5"/>
<text text-anchor="start" x="1430" y="-219.5" font-family="Helvetica,sans-Serif" font-size="10.00">itkConnectedComponentImage</text>
<text text-anchor="middle" x="1506" y="-208.5" font-family="Helvetica,sans-Serif" font-size="10.00">Filter.h</text>
</a>
</g>
</g>
<!-- Node2&#45;&gt;Node14 -->
<g id="edge13" class="edge">
<title>Node2&#45;&gt;Node14</title>
<path fill="none" stroke="midnightblue" d="M1506,-258.23C1506,-249.59 1506,-239.5 1506,-231.52"/>
<polygon fill="midnightblue" stroke="midnightblue" points="1502.5,-258.48 1506,-268.48 1509.5,-258.48 1502.5,-258.48"/>
</g>
<!-- Node19 -->
<g id="node19" class="node">
<title>Node19</title>
<g id="a_node19"><a xlink:href="itkLabelContourImageFilter_8h.html" target="_top" xlink:title=" ">
<polygon fill="white" stroke="black" points="1608,-207 1608,-226 1766,-226 1766,-207 1608,-207"/>
<text text-anchor="middle" x="1687" y="-214" font-family="Helvetica,sans-Serif" font-size="10.00">itkLabelContourImageFilter.h</text>
</a>
</g>
</g>
<!-- Node2&#45;&gt;Node19 -->
<g id="edge18" class="edge">
<title>Node2&#45;&gt;Node19</title>
<path fill="none" stroke="midnightblue" d="M1541.8,-265.23C1576.98,-253.67 1629.82,-236.3 1661.12,-226.01"/>
<polygon fill="midnightblue" stroke="midnightblue" points="1540.34,-262.03 1531.93,-268.48 1542.53,-268.68 1540.34,-262.03"/>
</g>
<!-- Node5 -->
<g id="node5" class="node">
<title>Node5</title>
<g id="a_node5"><a xlink:href="itkBinaryImageToShapeLabelMapFilter_8h.html" target="_top" xlink:title=" ">
<polygon fill="white" stroke="black" points="0,-134.5 0,-164.5 158,-164.5 158,-134.5 0,-134.5"/>
<text text-anchor="start" x="8" y="-152.5" font-family="Helvetica,sans-Serif" font-size="10.00">itkBinaryImageToShapeLabel</text>
<text text-anchor="middle" x="79" y="-141.5" font-family="Helvetica,sans-Serif" font-size="10.00">MapFilter.h</text>
</a>
</g>
</g>
<!-- Node4&#45;&gt;Node5 -->
<g id="edge4" class="edge">
<title>Node4&#45;&gt;Node5</title>
<path fill="none" stroke="midnightblue" d="M844.08,-201C543.35,-167.95 463.62,-197.21 167,-165 164.08,-164.68 161.1,-164.33 158.1,-163.96"/>
<polygon fill="midnightblue" stroke="midnightblue" points="844.08,-204.53 854.41,-202.15 844.86,-197.57 844.08,-204.53"/>
</g>
<!-- Node6 -->
<g id="node6" class="node">
<title>Node6</title>
<g id="a_node6"><a xlink:href="itkBinaryImageToStatisticsLabelMapFilter_8h.html" target="_top" xlink:title=" ">
<polygon fill="white" stroke="black" points="176.5,-134.5 176.5,-164.5 323.5,-164.5 323.5,-134.5 176.5,-134.5"/>
<text text-anchor="start" x="184.5" y="-152.5" font-family="Helvetica,sans-Serif" font-size="10.00">itkBinaryImageToStatistics</text>
<text text-anchor="middle" x="250" y="-141.5" font-family="Helvetica,sans-Serif" font-size="10.00">LabelMapFilter.h</text>
</a>
</g>
</g>
<!-- Node4&#45;&gt;Node6 -->
<g id="edge5" class="edge">
<title>Node4&#45;&gt;Node6</title>
<path fill="none" stroke="midnightblue" d="M844.15,-200.99C616.77,-174.11 556.12,-192.26 333,-165 329.95,-164.63 326.84,-164.22 323.71,-163.78"/>
<polygon fill="midnightblue" stroke="midnightblue" points="844.06,-204.51 854.4,-202.22 844.89,-197.56 844.06,-204.51"/>
</g>
<!-- Node7 -->
<g id="node7" class="node">
<title>Node7</title>
<g id="a_node7"><a xlink:href="itkBinaryReconstructionByDilationImageFilter_8h.html" target="_top" xlink:title=" ">
<polygon fill="white" stroke="black" points="342,-134.5 342,-164.5 488,-164.5 488,-134.5 342,-134.5"/>
<text text-anchor="start" x="350" y="-152.5" font-family="Helvetica,sans-Serif" font-size="10.00">itkBinaryReconstructionBy</text>
<text text-anchor="middle" x="415" y="-141.5" font-family="Helvetica,sans-Serif" font-size="10.00">DilationImageFilter.h</text>
</a>
</g>
</g>
<!-- Node4&#45;&gt;Node7 -->
<g id="edge6" class="edge">
<title>Node4&#45;&gt;Node7</title>
<path fill="none" stroke="midnightblue" d="M844.02,-200.93C689.19,-180.04 647.68,-186.09 497,-165 494.14,-164.6 491.22,-164.17 488.28,-163.73"/>
<polygon fill="midnightblue" stroke="midnightblue" points="844,-204.46 854.39,-202.35 844.95,-197.53 844,-204.46"/>
</g>
<!-- Node8 -->
<g id="node8" class="node">
<title>Node8</title>
<g id="a_node8"><a xlink:href="itkBinaryReconstructionByErosionImageFilter_8h.html" target="_top" xlink:title=" ">
<polygon fill="white" stroke="black" points="506,-134.5 506,-164.5 652,-164.5 652,-134.5 506,-134.5"/>
<text text-anchor="start" x="514" y="-152.5" font-family="Helvetica,sans-Serif" font-size="10.00">itkBinaryReconstructionBy</text>
<text text-anchor="middle" x="579" y="-141.5" font-family="Helvetica,sans-Serif" font-size="10.00">ErosionImageFilter.h</text>
</a>
</g>
</g>
<!-- Node4&#45;&gt;Node8 -->
<g id="edge7" class="edge">
<title>Node4&#45;&gt;Node8</title>
<path fill="none" stroke="midnightblue" d="M844.34,-199.78C785.58,-188.87 708.09,-174.47 652.04,-164.06"/>
<polygon fill="midnightblue" stroke="midnightblue" points="843.87,-203.25 854.35,-201.64 845.15,-196.37 843.87,-203.25"/>
</g>
<!-- Node9 -->
<g id="node9" class="node">
<title>Node9</title>
<g id="a_node9"><a xlink:href="itkBinaryShapeKeepNObjectsImageFilter_8h.html" target="_top" xlink:title=" ">
<polygon fill="white" stroke="black" points="670.5,-134.5 670.5,-164.5 829.5,-164.5 829.5,-134.5 670.5,-134.5"/>
<text text-anchor="start" x="678.5" y="-152.5" font-family="Helvetica,sans-Serif" font-size="10.00">itkBinaryShapeKeepNObjects</text>
<text text-anchor="middle" x="750" y="-141.5" font-family="Helvetica,sans-Serif" font-size="10.00">ImageFilter.h</text>
</a>
</g>
</g>
<!-- Node4&#45;&gt;Node9 -->
<g id="edge8" class="edge">
<title>Node4&#45;&gt;Node9</title>
<path fill="none" stroke="midnightblue" d="M880.68,-197.96C851.85,-187.48 815.72,-174.37 788.76,-164.58"/>
<polygon fill="midnightblue" stroke="midnightblue" points="879.57,-201.27 890.16,-201.4 881.95,-194.69 879.57,-201.27"/>
</g>
<!-- Node10 -->
<g id="node10" class="node">
<title>Node10</title>
<g id="a_node10"><a xlink:href="itkBinaryShapeOpeningImageFilter_8h.html" target="_top" xlink:title=" ">
<polygon fill="white" stroke="black" points="848,-134.5 848,-164.5 1010,-164.5 1010,-134.5 848,-134.5"/>
<text text-anchor="start" x="856" y="-152.5" font-family="Helvetica,sans-Serif" font-size="10.00">itkBinaryShapeOpeningImage</text>
<text text-anchor="middle" x="929" y="-141.5" font-family="Helvetica,sans-Serif" font-size="10.00">Filter.h</text>
</a>
</g>
</g>
<!-- Node4&#45;&gt;Node10 -->
<g id="edge9" class="edge">
<title>Node4&#45;&gt;Node10</title>
<path fill="none" stroke="midnightblue" d="M929,-191.11C929,-182.15 929,-172.32 929,-164.58"/>
<polygon fill="midnightblue" stroke="midnightblue" points="925.5,-191.4 929,-201.4 932.5,-191.4 925.5,-191.4"/>
</g>
<!-- Node11 -->
<g id="node11" class="node">
<title>Node11</title>
<g id="a_node11"><a xlink:href="itkBinaryStatisticsKeepNObjectsImageFilter_8h.html" target="_top" xlink:title=" ">
<polygon fill="white" stroke="black" points="1028,-134.5 1028,-164.5 1202,-164.5 1202,-134.5 1028,-134.5"/>
<text text-anchor="start" x="1036" y="-152.5" font-family="Helvetica,sans-Serif" font-size="10.00">itkBinaryStatisticsKeepNObjects</text>
<text text-anchor="middle" x="1115" y="-141.5" font-family="Helvetica,sans-Serif" font-size="10.00">ImageFilter.h</text>
</a>
</g>
</g>
<!-- Node4&#45;&gt;Node11 -->
<g id="edge10" class="edge">
<title>Node4&#45;&gt;Node11</title>
<path fill="none" stroke="midnightblue" d="M978.81,-198.09C1008.84,-187.6 1046.59,-174.41 1074.72,-164.58"/>
<polygon fill="midnightblue" stroke="midnightblue" points="977.64,-194.79 969.36,-201.4 979.95,-201.4 977.64,-194.79"/>
</g>
<!-- Node12 -->
<g id="node12" class="node">
<title>Node12</title>
<g id="a_node12"><a xlink:href="itkBinaryStatisticsOpeningImageFilter_8h.html" target="_top" xlink:title=" ">
<polygon fill="white" stroke="black" points="1220,-134.5 1220,-164.5 1366,-164.5 1366,-134.5 1220,-134.5"/>
<text text-anchor="start" x="1228" y="-152.5" font-family="Helvetica,sans-Serif" font-size="10.00">itkBinaryStatisticsOpening</text>
<text text-anchor="middle" x="1293" y="-141.5" font-family="Helvetica,sans-Serif" font-size="10.00">ImageFilter.h</text>
</a>
</g>
</g>
<!-- Node4&#45;&gt;Node12 -->
<g id="edge11" class="edge">
<title>Node4&#45;&gt;Node12</title>
<path fill="none" stroke="midnightblue" d="M1013.76,-200.36C1076.21,-189.21 1160.27,-174.2 1219.8,-163.57"/>
<polygon fill="midnightblue" stroke="midnightblue" points="1012.77,-196.99 1003.54,-202.19 1014,-203.88 1012.77,-196.99"/>
</g>
<!-- Node13 -->
<g id="node13" class="node">
<title>Node13</title>
<g id="a_node13"><a xlink:href="itkObjectByObjectLabelMapFilter_8h.html" target="_top" xlink:title=" ">
<polygon fill="white" stroke="black" points="1384,-134.5 1384,-164.5 1536,-164.5 1536,-134.5 1384,-134.5"/>
<text text-anchor="start" x="1392" y="-152.5" font-family="Helvetica,sans-Serif" font-size="10.00">itkObjectByObjectLabelMap</text>
<text text-anchor="middle" x="1460" y="-141.5" font-family="Helvetica,sans-Serif" font-size="10.00">Filter.h</text>
</a>
</g>
</g>
<!-- Node4&#45;&gt;Node13 -->
<g id="edge12" class="edge">
<title>Node4&#45;&gt;Node13</title>
<path fill="none" stroke="midnightblue" d="M1013.87,-207.32C1103.73,-198.33 1249.63,-182.78 1375,-165 1377.82,-164.6 1380.68,-164.18 1383.58,-163.75"/>
<polygon fill="midnightblue" stroke="midnightblue" points="1013.34,-203.86 1003.74,-208.33 1014.03,-210.82 1013.34,-203.86"/>
</g>
<!-- Node15 -->
<g id="node15" class="node">
<title>Node15</title>
<g id="a_node15"><a xlink:href="itkConnectedComponentFunctorImageFilter_8h.html" target="_top" xlink:title=" ">
<polygon fill="white" stroke="black" points="1554.5,-134.5 1554.5,-164.5 1727.5,-164.5 1727.5,-134.5 1554.5,-134.5"/>
<text text-anchor="start" x="1562.5" y="-152.5" font-family="Helvetica,sans-Serif" font-size="10.00">itkConnectedComponentFunctor</text>
<text text-anchor="middle" x="1641" y="-141.5" font-family="Helvetica,sans-Serif" font-size="10.00">ImageFilter.h</text>
</a>
</g>
</g>
<!-- Node14&#45;&gt;Node15 -->
<g id="edge14" class="edge">
<title>Node14&#45;&gt;Node15</title>
<path fill="none" stroke="midnightblue" d="M1544.44,-196.99C1565.84,-186.69 1592.05,-174.07 1611.76,-164.58"/>
<polygon fill="midnightblue" stroke="midnightblue" points="1542.78,-193.9 1535.29,-201.4 1545.82,-200.21 1542.78,-193.9"/>
</g>
<!-- Node18 -->
<g id="node18" class="node">
<title>Node18</title>
<g id="a_node18"><a xlink:href="itkThresholdMaximumConnectedComponentsImageFilter_8h.html" target="_top" xlink:title=" ">
<polygon fill="white" stroke="black" points="1745.5,-134.5 1745.5,-164.5 1924.5,-164.5 1924.5,-134.5 1745.5,-134.5"/>
<text text-anchor="start" x="1753.5" y="-152.5" font-family="Helvetica,sans-Serif" font-size="10.00">itkThresholdMaximumConnected</text>
<text text-anchor="middle" x="1835" y="-141.5" font-family="Helvetica,sans-Serif" font-size="10.00">ComponentsImageFilter.h</text>
</a>
</g>
</g>
<!-- Node14&#45;&gt;Node18 -->
<g id="edge17" class="edge">
<title>Node14&#45;&gt;Node18</title>
<path fill="none" stroke="midnightblue" d="M1586.9,-199.52C1641.11,-188.81 1711.81,-174.84 1763.86,-164.55"/>
<polygon fill="midnightblue" stroke="midnightblue" points="1586.12,-196.1 1576.98,-201.48 1587.47,-202.97 1586.12,-196.1"/>
</g>
<!-- Node16 -->
<g id="node16" class="node">
<title>Node16</title>
<g id="a_node16"><a xlink:href="itkScalarConnectedComponentImageFilter_8h.html" target="_top" xlink:title=" ">
<polygon fill="white" stroke="black" points="1464.5,-67.5 1464.5,-97.5 1631.5,-97.5 1631.5,-67.5 1464.5,-67.5"/>
<text text-anchor="start" x="1472.5" y="-85.5" font-family="Helvetica,sans-Serif" font-size="10.00">itkScalarConnectedComponent</text>
<text text-anchor="middle" x="1548" y="-74.5" font-family="Helvetica,sans-Serif" font-size="10.00">ImageFilter.h</text>
</a>
</g>
</g>
<!-- Node15&#45;&gt;Node16 -->
<g id="edge15" class="edge">
<title>Node15&#45;&gt;Node16</title>
<path fill="none" stroke="midnightblue" d="M1612.31,-128.45C1598.01,-118.45 1581.05,-106.6 1568.14,-97.58"/>
<polygon fill="midnightblue" stroke="midnightblue" points="1610.62,-131.54 1620.82,-134.4 1614.63,-125.8 1610.62,-131.54"/>
</g>
<!-- Node17 -->
<g id="node17" class="node">
<title>Node17</title>
<g id="a_node17"><a xlink:href="itkVectorConnectedComponentImageFilter_8h.html" target="_top" xlink:title=" ">
<polygon fill="white" stroke="black" points="1649,-67.5 1649,-97.5 1817,-97.5 1817,-67.5 1649,-67.5"/>
<text text-anchor="start" x="1657" y="-85.5" font-family="Helvetica,sans-Serif" font-size="10.00">itkVectorConnectedComponent</text>
<text text-anchor="middle" x="1733" y="-74.5" font-family="Helvetica,sans-Serif" font-size="10.00">ImageFilter.h</text>
</a>
</g>
</g>
<!-- Node15&#45;&gt;Node17 -->
<g id="edge16" class="edge">
<title>Node15&#45;&gt;Node17</title>
<path fill="none" stroke="midnightblue" d="M1669.38,-128.45C1683.53,-118.45 1700.31,-106.6 1713.08,-97.58"/>
<polygon fill="midnightblue" stroke="midnightblue" points="1667.11,-125.77 1660.96,-134.4 1671.15,-131.48 1667.11,-125.77"/>
</g>
<!-- Node21 -->
<g id="node21" class="node">
<title>Node21</title>
<g id="a_node21"><a xlink:href="itkBinaryImageToLevelSetImageAdaptor_8h.html" target="_top" xlink:title=" ">
<polygon fill="white" stroke="black" points="1784,-201.5 1784,-231.5 1928,-231.5 1928,-201.5 1784,-201.5"/>
<text text-anchor="start" x="1792" y="-219.5" font-family="Helvetica,sans-Serif" font-size="10.00">itkBinaryImageToLevelSet</text>
<text text-anchor="middle" x="1856" y="-208.5" font-family="Helvetica,sans-Serif" font-size="10.00">ImageAdaptor.h</text>
</a>
</g>
</g>
<!-- Node20&#45;&gt;Node21 -->
<g id="edge20" class="edge">
<title>Node20&#45;&gt;Node21</title>
<path fill="none" stroke="midnightblue" d="M2347.75,-270.87C2244.77,-263.9 2079.18,-250.96 1937,-232 1934.17,-231.62 1931.28,-231.22 1928.37,-230.79"/>
<polygon fill="midnightblue" stroke="midnightblue" points="2347.62,-274.37 2357.83,-271.55 2348.09,-267.39 2347.62,-274.37"/>
</g>
<!-- Node22 -->
<g id="node22" class="node">
<title>Node22</title>
<g id="a_node22"><a xlink:href="itkBoxUtilities_8h.html" target="_top" xlink:title=" ">
<polygon fill="white" stroke="black" points="1946.5,-207 1946.5,-226 2041.5,-226 2041.5,-207 1946.5,-207"/>
<text text-anchor="middle" x="1994" y="-214" font-family="Helvetica,sans-Serif" font-size="10.00">itkBoxUtilities.h</text>
</a>
</g>
</g>
<!-- Node20&#45;&gt;Node22 -->
<g id="edge21" class="edge">
<title>Node20&#45;&gt;Node22</title>
<path fill="none" stroke="midnightblue" d="M2347.51,-269.47C2267.09,-262.47 2151.19,-250.35 2051,-232 2042.26,-230.4 2032.88,-228.21 2024.3,-226.02"/>
<polygon fill="midnightblue" stroke="midnightblue" points="2347.37,-272.97 2357.63,-270.34 2347.97,-265.99 2347.37,-272.97"/>
</g>
<!-- Node23 -->
<g id="node23" class="node">
<title>Node23</title>
<g id="a_node23"><a xlink:href="itkConnectedComponentAlgorithm_8h.html" target="_top" xlink:title=" ">
<polygon fill="white" stroke="black" points="2060,-207 2060,-226 2254,-226 2254,-207 2060,-207"/>
<text text-anchor="middle" x="2157" y="-214" font-family="Helvetica,sans-Serif" font-size="10.00">itkConnectedComponentAlgorithm.h</text>
</a>
</g>
</g>
<!-- Node20&#45;&gt;Node23 -->
<g id="edge22" class="edge">
<title>Node20&#45;&gt;Node23</title>
<path fill="none" stroke="midnightblue" d="M2395.35,-266.4C2339.13,-254.87 2250.34,-236.65 2198.47,-226.01"/>
<polygon fill="midnightblue" stroke="midnightblue" points="2394.95,-269.89 2405.45,-268.48 2396.36,-263.04 2394.95,-269.89"/>
</g>
<!-- Node27 -->
<g id="node27" class="node">
<title>Node27</title>
<g id="a_node27"><a xlink:href="itkReconstructionImageFilter_8h.html" target="_top" xlink:title=" ">
<polygon fill="white" stroke="black" points="2272,-207 2272,-226 2438,-226 2438,-207 2272,-207"/>
<text text-anchor="middle" x="2355" y="-214" font-family="Helvetica,sans-Serif" font-size="10.00">itkReconstructionImageFilter.h</text>
</a>
</g>
</g>
<!-- Node20&#45;&gt;Node27 -->
<g id="edge26" class="edge">
<title>Node20&#45;&gt;Node27</title>
<path fill="none" stroke="midnightblue" d="M2425.24,-262.93C2407.51,-251.46 2383.04,-235.63 2368.16,-226.01"/>
<polygon fill="midnightblue" stroke="midnightblue" points="2423.52,-265.98 2433.82,-268.48 2427.32,-260.11 2423.52,-265.98"/>
</g>
<!-- Node30 -->
<g id="node30" class="node">
<title>Node30</title>
<g id="a_node30"><a xlink:href="itkScalarImageToCooccurrenceListSampleFilter_8h.html" target="_top" xlink:title=" ">
<polygon fill="white" stroke="black" points="2456.5,-201.5 2456.5,-231.5 2623.5,-231.5 2623.5,-201.5 2456.5,-201.5"/>
<text text-anchor="start" x="2464.5" y="-219.5" font-family="Helvetica,sans-Serif" font-size="10.00">itkScalarImageToCooccurrence</text>
<text text-anchor="middle" x="2540" y="-208.5" font-family="Helvetica,sans-Serif" font-size="10.00">ListSampleFilter.h</text>
</a>
</g>
</g>
<!-- Node20&#45;&gt;Node30 -->
<g id="edge29" class="edge">
<title>Node20&#45;&gt;Node30</title>
<path fill="none" stroke="midnightblue" d="M2468.87,-263.01C2483.7,-253.52 2503.24,-241.02 2518.08,-231.52"/>
<polygon fill="midnightblue" stroke="midnightblue" points="2466.86,-260.14 2460.32,-268.48 2470.63,-266.03 2466.86,-260.14"/>
</g>
<!-- Node31 -->
<g id="node31" class="node">
<title>Node31</title>
<g id="a_node31"><a xlink:href="itkUpdateMalcolmSparseLevelSet_8h.html" target="_top" xlink:title=" ">
<polygon fill="white" stroke="black" points="2642,-201.5 2642,-231.5 2808,-231.5 2808,-201.5 2642,-201.5"/>
<text text-anchor="start" x="2650" y="-219.5" font-family="Helvetica,sans-Serif" font-size="10.00">itkUpdateMalcolmSparseLevel</text>
<text text-anchor="middle" x="2725" y="-208.5" font-family="Helvetica,sans-Serif" font-size="10.00">Set.h</text>
</a>
</g>
</g>
<!-- Node20&#45;&gt;Node31 -->
<g id="edge30" class="edge">
<title>Node20&#45;&gt;Node31</title>
<path fill="none" stroke="midnightblue" d="M2496.74,-266.35C2542.18,-256.63 2609.67,-242.18 2659.48,-231.52"/>
<polygon fill="midnightblue" stroke="midnightblue" points="2495.88,-262.96 2486.83,-268.48 2497.34,-269.8 2495.88,-262.96"/>
</g>
<!-- Node33 -->
<g id="node33" class="node">
<title>Node33</title>
<g id="a_node33"><a xlink:href="itkUpdateShiSparseLevelSet_8h.html" target="_top" xlink:title=" ">
<polygon fill="white" stroke="black" points="2826,-207 2826,-226 2990,-226 2990,-207 2826,-207"/>
<text text-anchor="middle" x="2908" y="-214" font-family="Helvetica,sans-Serif" font-size="10.00">itkUpdateShiSparseLevelSet.h</text>
</a>
</g>
</g>
<!-- Node20&#45;&gt;Node33 -->
<g id="edge32" class="edge">
<title>Node20&#45;&gt;Node33</title>
<path fill="none" stroke="midnightblue" d="M2534.34,-267.3C2609.39,-258.74 2720.45,-245.56 2817,-232 2829.83,-230.2 2843.65,-228.08 2856.56,-226.04"/>
<polygon fill="midnightblue" stroke="midnightblue" points="2533.54,-263.87 2524,-268.48 2534.33,-270.82 2533.54,-263.87"/>
</g>
<!-- Node34 -->
<g id="node34" class="node">
<title>Node34</title>
<g id="a_node34"><a xlink:href="itkUpdateWhitakerSparseLevelSet_8h.html" target="_top" xlink:title=" ">
<polygon fill="white" stroke="black" points="3008.5,-201.5 3008.5,-231.5 3175.5,-231.5 3175.5,-201.5 3008.5,-201.5"/>
<text text-anchor="start" x="3016.5" y="-219.5" font-family="Helvetica,sans-Serif" font-size="10.00">itkUpdateWhitakerSparseLevel</text>
<text text-anchor="middle" x="3092" y="-208.5" font-family="Helvetica,sans-Serif" font-size="10.00">Set.h</text>
</a>
</g>
</g>
<!-- Node20&#45;&gt;Node34 -->
<g id="edge34" class="edge">
<title>Node20&#45;&gt;Node34</title>
<path fill="none" stroke="midnightblue" d="M2546.26,-271.11C2656.93,-264.03 2841.13,-250.72 2999,-232 3002.08,-231.63 3005.22,-231.24 3008.39,-230.83"/>
<polygon fill="midnightblue" stroke="midnightblue" points="2545.87,-267.63 2536.11,-271.75 2546.31,-274.61 2545.87,-267.63"/>
</g>
<!-- Node35 -->
<g id="node35" class="node">
<title>Node35</title>
<g id="a_node35"><a xlink:href="itkValuedRegionalExtremaImageFilter_8h.html" target="_top" xlink:title=" ">
<polygon fill="white" stroke="black" points="3194,-201.5 3194,-231.5 3340,-231.5 3340,-201.5 3194,-201.5"/>
<text text-anchor="start" x="3202" y="-219.5" font-family="Helvetica,sans-Serif" font-size="10.00">itkValuedRegionalExtrema</text>
<text text-anchor="middle" x="3267" y="-208.5" font-family="Helvetica,sans-Serif" font-size="10.00">ImageFilter.h</text>
</a>
</g>
</g>
<!-- Node20&#45;&gt;Node35 -->
<g id="edge36" class="edge">
<title>Node20&#45;&gt;Node35</title>
<path fill="none" stroke="midnightblue" d="M2546.47,-274.46C2688.36,-270.03 2956.86,-258.69 3184,-232 3187.2,-231.62 3190.46,-231.21 3193.74,-230.76"/>
<polygon fill="midnightblue" stroke="midnightblue" points="2545.95,-270.97 2536.06,-274.78 2546.16,-277.97 2545.95,-270.97"/>
</g>
<!-- Node24 -->
<g id="node24" class="node">
<title>Node24</title>
<g id="a_node24"><a xlink:href="itkShapedFloodFilledFunctionConditionalConstIterator_8h.html" target="_top" xlink:title=" ">
<polygon fill="white" stroke="black" points="2077,-134.5 2077,-164.5 2237,-164.5 2237,-134.5 2077,-134.5"/>
<text text-anchor="start" x="2085" y="-152.5" font-family="Helvetica,sans-Serif" font-size="10.00">itkShapedFloodFilledFunction</text>
<text text-anchor="middle" x="2157" y="-141.5" font-family="Helvetica,sans-Serif" font-size="10.00">ConditionalConstIterator.h</text>
</a>
</g>
</g>
<!-- Node23&#45;&gt;Node24 -->
<g id="edge23" class="edge">
<title>Node23&#45;&gt;Node24</title>
<path fill="none" stroke="midnightblue" d="M2157,-196.41C2157,-186.22 2157,-173.9 2157,-164.59"/>
<polygon fill="midnightblue" stroke="midnightblue" points="2153.5,-196.73 2157,-206.73 2160.5,-196.73 2153.5,-196.73"/>
</g>
<!-- Node25 -->
<g id="node25" class="node">
<title>Node25</title>
<g id="a_node25"><a xlink:href="itkShapedFloodFilledImageFunctionConditionalConstIterator_8h.html" target="_top" xlink:title=" ">
<polygon fill="white" stroke="black" points="2064.5,-67.5 2064.5,-97.5 2249.5,-97.5 2249.5,-67.5 2064.5,-67.5"/>
<text text-anchor="start" x="2072.5" y="-85.5" font-family="Helvetica,sans-Serif" font-size="10.00">itkShapedFloodFilledImage</text>
<text text-anchor="middle" x="2157" y="-74.5" font-family="Helvetica,sans-Serif" font-size="10.00">FunctionConditionalConstIterator.h</text>
</a>
</g>
</g>
<!-- Node24&#45;&gt;Node25 -->
<g id="edge24" class="edge">
<title>Node24&#45;&gt;Node25</title>
<path fill="none" stroke="midnightblue" d="M2157,-124.11C2157,-115.15 2157,-105.32 2157,-97.58"/>
<polygon fill="midnightblue" stroke="midnightblue" points="2153.5,-124.4 2157,-134.4 2160.5,-124.4 2153.5,-124.4"/>
</g>
<!-- Node26 -->
<g id="node26" class="node">
<title>Node26</title>
<g id="a_node26"><a xlink:href="itkShapedFloodFilledImageFunctionConditionalIterator_8h.html" target="_top" xlink:title=" ">
<polygon fill="white" stroke="black" points="2078,-0.5 2078,-30.5 2236,-30.5 2236,-0.5 2078,-0.5"/>
<text text-anchor="start" x="2086" y="-18.5" font-family="Helvetica,sans-Serif" font-size="10.00">itkShapedFloodFilledImage</text>
<text text-anchor="middle" x="2157" y="-7.5" font-family="Helvetica,sans-Serif" font-size="10.00">FunctionConditionalIterator.h</text>
</a>
</g>
</g>
<!-- Node25&#45;&gt;Node26 -->
<g id="edge25" class="edge">
<title>Node25&#45;&gt;Node26</title>
<path fill="none" stroke="midnightblue" d="M2157,-57.11C2157,-48.15 2157,-38.32 2157,-30.58"/>
<polygon fill="midnightblue" stroke="midnightblue" points="2153.5,-57.4 2157,-67.4 2160.5,-57.4 2153.5,-57.4"/>
</g>
<!-- Node28 -->
<g id="node28" class="node">
<title>Node28</title>
<g id="a_node28"><a xlink:href="itkReconstructionByDilationImageFilter_8h.html" target="_top" xlink:title=" ">
<polygon fill="white" stroke="black" points="2267.5,-134.5 2267.5,-164.5 2420.5,-164.5 2420.5,-134.5 2267.5,-134.5"/>
<text text-anchor="start" x="2275.5" y="-152.5" font-family="Helvetica,sans-Serif" font-size="10.00">itkReconstructionByDilation</text>
<text text-anchor="middle" x="2344" y="-141.5" font-family="Helvetica,sans-Serif" font-size="10.00">ImageFilter.h</text>
</a>
</g>
</g>
<!-- Node27&#45;&gt;Node28 -->
<g id="edge27" class="edge">
<title>Node27&#45;&gt;Node28</title>
<path fill="none" stroke="midnightblue" d="M2351.82,-196.74C2350.09,-186.49 2347.98,-174 2346.38,-164.59"/>
<polygon fill="midnightblue" stroke="midnightblue" points="2348.4,-197.46 2353.52,-206.73 2355.3,-196.29 2348.4,-197.46"/>
</g>
<!-- Node29 -->
<g id="node29" class="node">
<title>Node29</title>
<g id="a_node29"><a xlink:href="itkReconstructionByErosionImageFilter_8h.html" target="_top" xlink:title=" ">
<polygon fill="white" stroke="black" points="2438.5,-134.5 2438.5,-164.5 2589.5,-164.5 2589.5,-134.5 2438.5,-134.5"/>
<text text-anchor="start" x="2446.5" y="-152.5" font-family="Helvetica,sans-Serif" font-size="10.00">itkReconstructionByErosion</text>
<text text-anchor="middle" x="2514" y="-141.5" font-family="Helvetica,sans-Serif" font-size="10.00">ImageFilter.h</text>
</a>
</g>
</g>
<!-- Node27&#45;&gt;Node29 -->
<g id="edge28" class="edge">
<title>Node27&#45;&gt;Node29</title>
<path fill="none" stroke="midnightblue" d="M2385.44,-203.06C2412.37,-192.05 2451.64,-175.99 2479.69,-164.53"/>
<polygon fill="midnightblue" stroke="midnightblue" points="2384.05,-199.84 2376.11,-206.87 2386.69,-206.32 2384.05,-199.84"/>
</g>
<!-- Node32 -->
<g id="node32" class="node">
<title>Node32</title>
<g id="a_node32"><a xlink:href="itkLevelSetEvolution_8h.html" target="_top" xlink:title=" ">
<polygon fill="white" stroke="black" points="2845,-140 2845,-159 2971,-159 2971,-140 2845,-140"/>
<text text-anchor="middle" x="2908" y="-147" font-family="Helvetica,sans-Serif" font-size="10.00">itkLevelSetEvolution.h</text>
</a>
</g>
</g>
<!-- Node31&#45;&gt;Node32 -->
<g id="edge31" class="edge">
<title>Node31&#45;&gt;Node32</title>
<path fill="none" stroke="midnightblue" d="M2774.42,-197.95C2809.96,-185.32 2856.34,-168.85 2884.05,-159.01"/>
<polygon fill="midnightblue" stroke="midnightblue" points="2772.96,-194.75 2764.71,-201.4 2775.3,-201.35 2772.96,-194.75"/>
</g>
<!-- Node33&#45;&gt;Node32 -->
<g id="edge33" class="edge">
<title>Node33&#45;&gt;Node32</title>
<path fill="none" stroke="midnightblue" d="M2908,-196.54C2908,-184.17 2908,-168.62 2908,-159.13"/>
<polygon fill="midnightblue" stroke="midnightblue" points="2904.5,-196.73 2908,-206.73 2911.5,-196.73 2904.5,-196.73"/>
</g>
<!-- Node34&#45;&gt;Node32 -->
<g id="edge35" class="edge">
<title>Node34&#45;&gt;Node32</title>
<path fill="none" stroke="midnightblue" d="M3042.31,-197.95C3006.57,-185.32 2959.95,-168.85 2932.08,-159.01"/>
<polygon fill="midnightblue" stroke="midnightblue" points="3041.48,-201.37 3052.07,-201.4 3043.81,-194.76 3041.48,-201.37"/>
</g>
<!-- Node36 -->
<g id="node36" class="node">
<title>Node36</title>
<g id="a_node36"><a xlink:href="itkValuedRegionalMaximaImageFilter_8h.html" target="_top" xlink:title=" ">
<polygon fill="white" stroke="black" points="3084,-134.5 3084,-164.5 3260,-164.5 3260,-134.5 3084,-134.5"/>
<text text-anchor="start" x="3092" y="-152.5" font-family="Helvetica,sans-Serif" font-size="10.00">itkValuedRegionalMaximaImage</text>
<text text-anchor="middle" x="3172" y="-141.5" font-family="Helvetica,sans-Serif" font-size="10.00">Filter.h</text>
</a>
</g>
</g>
<!-- Node35&#45;&gt;Node36 -->
<g id="edge37" class="edge">
<title>Node35&#45;&gt;Node36</title>
<path fill="none" stroke="midnightblue" d="M3238.11,-195.73C3223.41,-185.68 3205.89,-173.68 3192.57,-164.58"/>
<polygon fill="midnightblue" stroke="midnightblue" points="3236.16,-198.64 3246.39,-201.4 3240.11,-192.86 3236.16,-198.64"/>
</g>
<!-- Node37 -->
<g id="node37" class="node">
<title>Node37</title>
<g id="a_node37"><a xlink:href="itkValuedRegionalMinimaImageFilter_8h.html" target="_top" xlink:title=" ">
<polygon fill="white" stroke="black" points="3278.5,-134.5 3278.5,-164.5 3451.5,-164.5 3451.5,-134.5 3278.5,-134.5"/>
<text text-anchor="start" x="3286.5" y="-152.5" font-family="Helvetica,sans-Serif" font-size="10.00">itkValuedRegionalMinimaImage</text>
<text text-anchor="middle" x="3365" y="-141.5" font-family="Helvetica,sans-Serif" font-size="10.00">Filter.h</text>
</a>
</g>
</g>
<!-- Node35&#45;&gt;Node37 -->
<g id="edge38" class="edge">
<title>Node35&#45;&gt;Node37</title>
<path fill="none" stroke="midnightblue" d="M3296.8,-195.73C3311.97,-185.68 3330.04,-173.68 3343.78,-164.58"/>
<polygon fill="midnightblue" stroke="midnightblue" points="3294.66,-192.95 3288.26,-201.4 3298.53,-198.79 3294.66,-192.95"/>
</g>
</g>
</svg>
