<?xml version="1.0" encoding="UTF-8" standalone="no"?>
<!DOCTYPE svg PUBLIC "-//W3C//DTD SVG 1.1//EN"
 "http://www.w3.org/Graphics/SVG/1.1/DTD/svg11.dtd">
<!-- Generated by graphviz version 2.43.0 (0)
 -->
<!-- Title: itkDOMNode.h Pages: 1 -->
<svg width="1382pt" height="588pt"
 viewBox="0.00 0.00 1382.00 588.00" xmlns="http://www.w3.org/2000/svg" xmlns:xlink="http://www.w3.org/1999/xlink">
<g id="graph0" class="graph" transform="scale(1 1) rotate(0) translate(4 584)">
<title>itkDOMNode.h</title>
<polygon fill="white" stroke="transparent" points="-4,4 -4,-584 1378,-584 1378,4 -4,4"/>
<!-- Node1 -->
<g id="node1" class="node">
<title>Node1</title>
<g id="a_node1"><a xlink:title=" ">
<polygon fill="#bfbfbf" stroke="black" points="943,-560.5 943,-579.5 1031,-579.5 1031,-560.5 943,-560.5"/>
<text text-anchor="middle" x="987" y="-567.5" font-family="Helvetica,sans-Serif" font-size="10.00">itkDOMNode.h</text>
</a>
</g>
</g>
<!-- Node2 -->
<g id="node2" class="node">
<title>Node2</title>
<g id="a_node2"><a xlink:href="itkObject_8h.html" target="_top" xlink:title=" ">
<polygon fill="white" stroke="black" points="314,-336.5 314,-355.5 384,-355.5 384,-336.5 314,-336.5"/>
<text text-anchor="middle" x="349" y="-343.5" font-family="Helvetica,sans-Serif" font-size="10.00">itkObject.h</text>
</a>
</g>
</g>
<!-- Node1&#45;&gt;Node2 -->
<g id="edge1" class="edge">
<title>Node1&#45;&gt;Node2</title>
<path fill="none" stroke="midnightblue" d="M942.97,-565.32C878.87,-559.45 756.32,-546.29 654,-524 486.54,-487.52 387.08,-549.67 285,-412 270.34,-392.23 297.05,-372.52 320.32,-360.07"/>
<polygon fill="midnightblue" stroke="midnightblue" points="321.96,-363.16 329.29,-355.52 318.79,-356.92 321.96,-363.16"/>
</g>
<!-- Node22 -->
<g id="node22" class="node">
<title>Node22</title>
<g id="a_node22"><a xlink:title=" ">
<polygon fill="white" stroke="#bfbfbf" points="756.5,-224.5 756.5,-243.5 803.5,-243.5 803.5,-224.5 756.5,-224.5"/>
<text text-anchor="middle" x="780" y="-231.5" font-family="Helvetica,sans-Serif" font-size="10.00">vector</text>
</a>
</g>
</g>
<!-- Node1&#45;&gt;Node22 -->
<g id="edge52" class="edge">
<title>Node1&#45;&gt;Node22</title>
<path fill="none" stroke="midnightblue" d="M975.75,-560.21C965.36,-551.71 949.93,-538.07 939,-524 866.66,-430.85 807.8,-300.53 787.56,-253.13"/>
<polygon fill="midnightblue" stroke="midnightblue" points="790.66,-251.48 783.54,-243.63 784.21,-254.2 790.66,-251.48"/>
</g>
<!-- Node23 -->
<g id="node23" class="node">
<title>Node23</title>
<g id="a_node23"><a xlink:title=" ">
<polygon fill="white" stroke="#bfbfbf" points="944,-224.5 944,-243.5 982,-243.5 982,-224.5 944,-224.5"/>
<text text-anchor="middle" x="963" y="-231.5" font-family="Helvetica,sans-Serif" font-size="10.00">map</text>
</a>
</g>
</g>
<!-- Node1&#45;&gt;Node23 -->
<g id="edge54" class="edge">
<title>Node1&#45;&gt;Node23</title>
<path fill="none" stroke="midnightblue" d="M987,-560.44C987,-541.94 987,-496.81 987,-459 987,-459 987,-459 987,-345 987,-312.06 976.6,-274.82 969.49,-253.21"/>
<polygon fill="midnightblue" stroke="midnightblue" points="972.78,-252.03 966.24,-243.7 966.16,-254.29 972.78,-252.03"/>
</g>
<!-- Node24 -->
<g id="node24" class="node">
<title>Node24</title>
<g id="a_node24"><a xlink:title=" ">
<polygon fill="white" stroke="#bfbfbf" points="1330,-224.5 1330,-243.5 1374,-243.5 1374,-224.5 1330,-224.5"/>
<text text-anchor="middle" x="1352" y="-231.5" font-family="Helvetica,sans-Serif" font-size="10.00">string</text>
</a>
</g>
</g>
<!-- Node1&#45;&gt;Node24 -->
<g id="edge51" class="edge">
<title>Node1&#45;&gt;Node24</title>
<path fill="none" stroke="midnightblue" d="M1031.05,-566.53C1103.15,-561.81 1242.5,-549.6 1284,-524 1314.12,-505.42 1330,-494.39 1330,-459 1330,-459 1330,-459 1330,-345 1330,-312.33 1339.45,-275.24 1345.96,-253.55"/>
<polygon fill="midnightblue" stroke="midnightblue" points="1349.39,-254.31 1349.03,-243.72 1342.71,-252.22 1349.39,-254.31"/>
</g>
<!-- Node27 -->
<g id="node27" class="node">
<title>Node27</title>
<g id="a_node27"><a xlink:href="itkObjectFactory_8h.html" target="_top" xlink:title=" ">
<polygon fill="white" stroke="black" points="663,-504.5 663,-523.5 767,-523.5 767,-504.5 663,-504.5"/>
<text text-anchor="middle" x="715" y="-511.5" font-family="Helvetica,sans-Serif" font-size="10.00">itkObjectFactory.h</text>
</a>
</g>
</g>
<!-- Node1&#45;&gt;Node27 -->
<g id="edge39" class="edge">
<title>Node1&#45;&gt;Node27</title>
<path fill="none" stroke="midnightblue" d="M943.9,-560.44C896.15,-550.96 819.14,-535.67 767.81,-525.48"/>
<polygon fill="midnightblue" stroke="midnightblue" points="768.39,-522.03 757.9,-523.52 767.02,-528.9 768.39,-522.03"/>
</g>
<!-- Node32 -->
<g id="node32" class="node">
<title>Node32</title>
<g id="a_node32"><a xlink:title=" ">
<polygon fill="white" stroke="#bfbfbf" points="801,-392.5 801,-411.5 833,-411.5 833,-392.5 801,-392.5"/>
<text text-anchor="middle" x="817" y="-399.5" font-family="Helvetica,sans-Serif" font-size="10.00">list</text>
</a>
</g>
</g>
<!-- Node1&#45;&gt;Node32 -->
<g id="edge53" class="edge">
<title>Node1&#45;&gt;Node32</title>
<path fill="none" stroke="midnightblue" d="M942.83,-565.89C911.83,-561.36 871.66,-550.4 847,-524 820.62,-495.76 816.44,-448.04 816.33,-421.76"/>
<polygon fill="midnightblue" stroke="midnightblue" points="819.83,-421.69 816.49,-411.63 812.83,-421.58 819.83,-421.69"/>
</g>
<!-- Node33 -->
<g id="node33" class="node">
<title>Node33</title>
<g id="a_node33"><a xlink:title=" ">
<polygon fill="white" stroke="#bfbfbf" points="1082,-224.5 1082,-243.5 1186,-243.5 1186,-224.5 1082,-224.5"/>
<text text-anchor="middle" x="1134" y="-231.5" font-family="Helvetica,sans-Serif" font-size="10.00">ITKIOXMLExport.h</text>
</a>
</g>
</g>
<!-- Node1&#45;&gt;Node33 -->
<g id="edge50" class="edge">
<title>Node1&#45;&gt;Node33</title>
<path fill="none" stroke="midnightblue" d="M1021.87,-560.4C1066.75,-547 1139,-516.49 1139,-459 1139,-459 1139,-459 1139,-345 1139,-312.91 1136.85,-275.62 1135.37,-253.74"/>
<polygon fill="midnightblue" stroke="midnightblue" points="1138.85,-253.28 1134.65,-243.55 1131.86,-253.77 1138.85,-253.28"/>
</g>
<!-- Node34 -->
<g id="node34" class="node">
<title>Node34</title>
<g id="a_node34"><a xlink:href="itkDOMTextNode_8h.html" target="_top" xlink:title=" ">
<polygon fill="white" stroke="black" points="1167,-504.5 1167,-523.5 1275,-523.5 1275,-504.5 1167,-504.5"/>
<text text-anchor="middle" x="1221" y="-511.5" font-family="Helvetica,sans-Serif" font-size="10.00">itkDOMTextNode.h</text>
</a>
</g>
</g>
<!-- Node1&#45;&gt;Node34 -->
<g id="edge55" class="edge">
<title>Node1&#45;&gt;Node34</title>
<path fill="none" stroke="midnightblue" d="M1018.99,-560.44C1057.74,-551.02 1123.29,-535.87 1169.24,-525.68"/>
<polygon fill="midnightblue" stroke="midnightblue" points="1170.01,-529.09 1179.02,-523.52 1168.5,-522.25 1170.01,-529.09"/>
</g>
<!-- Node35 -->
<g id="node35" class="node">
<title>Node35</title>
<g id="a_node35"><a xlink:href="itkStringTools_8h.html" target="_top" xlink:title=" ">
<polygon fill="white" stroke="black" points="867,-280.5 867,-299.5 959,-299.5 959,-280.5 867,-280.5"/>
<text text-anchor="middle" x="913" y="-287.5" font-family="Helvetica,sans-Serif" font-size="10.00">itkStringTools.h</text>
</a>
</g>
</g>
<!-- Node1&#45;&gt;Node35 -->
<g id="edge58" class="edge">
<title>Node1&#45;&gt;Node35</title>
<path fill="none" stroke="midnightblue" d="M978.98,-560.36C963.49,-542.74 931,-500.79 931,-459 931,-459 931,-459 931,-401 931,-368.54 923.27,-331.38 917.94,-309.63"/>
<polygon fill="midnightblue" stroke="midnightblue" points="921.29,-308.59 915.43,-299.76 914.51,-310.32 921.29,-308.59"/>
</g>
<!-- Node41 -->
<g id="node41" class="node">
<title>Node41</title>
<g id="a_node41"><a xlink:href="itkFancyString_8h.html" target="_top" xlink:title=" ">
<polygon fill="white" stroke="black" points="1015.5,-280.5 1015.5,-299.5 1110.5,-299.5 1110.5,-280.5 1015.5,-280.5"/>
<text text-anchor="middle" x="1063" y="-287.5" font-family="Helvetica,sans-Serif" font-size="10.00">itkFancyString.h</text>
</a>
</g>
</g>
<!-- Node1&#45;&gt;Node41 -->
<g id="edge68" class="edge">
<title>Node1&#45;&gt;Node41</title>
<path fill="none" stroke="midnightblue" d="M995.17,-560.38C1010.93,-542.81 1044,-500.94 1044,-459 1044,-459 1044,-459 1044,-401 1044,-368.49 1052.16,-331.35 1057.78,-309.61"/>
<polygon fill="midnightblue" stroke="midnightblue" points="1061.22,-310.32 1060.44,-299.75 1054.46,-308.5 1061.22,-310.32"/>
</g>
<!-- Node3 -->
<g id="node3" class="node">
<title>Node3</title>
<g id="a_node3"><a xlink:href="itkLightObject_8h.html" target="_top" xlink:title=" ">
<polygon fill="white" stroke="black" points="412,-168.5 412,-187.5 506,-187.5 506,-168.5 412,-168.5"/>
<text text-anchor="middle" x="459" y="-175.5" font-family="Helvetica,sans-Serif" font-size="10.00">itkLightObject.h</text>
</a>
</g>
</g>
<!-- Node2&#45;&gt;Node3 -->
<g id="edge2" class="edge">
<title>Node2&#45;&gt;Node3</title>
<path fill="none" stroke="midnightblue" d="M351.19,-336.47C357.59,-312.05 376.68,-242.44 391,-224 401.37,-210.64 416.86,-199.96 430.45,-192.35"/>
<polygon fill="midnightblue" stroke="midnightblue" points="432.25,-195.36 439.46,-187.59 428.98,-189.17 432.25,-195.36"/>
</g>
<!-- Node15 -->
<g id="node15" class="node">
<title>Node15</title>
<g id="a_node15"><a xlink:href="itkSingletonMacro_8h.html" target="_top" xlink:title=" ">
<polygon fill="white" stroke="black" points="0,-56.5 0,-75.5 114,-75.5 114,-56.5 0,-56.5"/>
<text text-anchor="middle" x="57" y="-63.5" font-family="Helvetica,sans-Serif" font-size="10.00">itkSingletonMacro.h</text>
</a>
</g>
</g>
<!-- Node2&#45;&gt;Node15 -->
<g id="edge36" class="edge">
<title>Node2&#45;&gt;Node15</title>
<path fill="none" stroke="midnightblue" d="M313.9,-344.73C246.15,-342.15 104,-325.92 104,-235 104,-235 104,-235 104,-177 104,-141.7 83.28,-104.79 69.36,-83.96"/>
<polygon fill="midnightblue" stroke="midnightblue" points="72.12,-81.8 63.54,-75.59 66.37,-85.8 72.12,-81.8"/>
</g>
<!-- Node18 -->
<g id="node18" class="node">
<title>Node18</title>
<g id="a_node18"><a xlink:href="itkEventObject_8h.html" target="_top" xlink:title=" ">
<polygon fill="white" stroke="black" points="285,-168.5 285,-187.5 383,-187.5 383,-168.5 285,-168.5"/>
<text text-anchor="middle" x="334" y="-175.5" font-family="Helvetica,sans-Serif" font-size="10.00">itkEventObject.h</text>
</a>
</g>
</g>
<!-- Node2&#45;&gt;Node18 -->
<g id="edge23" class="edge">
<title>Node2&#45;&gt;Node18</title>
<path fill="none" stroke="midnightblue" d="M348.19,-336.08C345.83,-309.95 338.9,-233.21 335.68,-197.58"/>
<polygon fill="midnightblue" stroke="midnightblue" points="339.16,-197.21 334.77,-187.57 332.19,-197.84 339.16,-197.21"/>
</g>
<!-- Node19 -->
<g id="node19" class="node">
<title>Node19</title>
<g id="a_node19"><a xlink:href="itkMetaDataDictionary_8h.html" target="_top" xlink:title=" ">
<polygon fill="white" stroke="black" points="561.5,-280.5 561.5,-299.5 696.5,-299.5 696.5,-280.5 561.5,-280.5"/>
<text text-anchor="middle" x="629" y="-287.5" font-family="Helvetica,sans-Serif" font-size="10.00">itkMetaDataDictionary.h</text>
</a>
</g>
</g>
<!-- Node2&#45;&gt;Node19 -->
<g id="edge26" class="edge">
<title>Node2&#45;&gt;Node19</title>
<path fill="none" stroke="midnightblue" d="M384.18,-338.22C432.02,-328.99 518.08,-312.39 574.36,-301.54"/>
<polygon fill="midnightblue" stroke="midnightblue" points="575.35,-304.91 584.51,-299.58 574.03,-298.04 575.35,-304.91"/>
</g>
<!-- Node25 -->
<g id="node25" class="node">
<title>Node25</title>
<g id="a_node25"><a xlink:title=" ">
<polygon fill="white" stroke="#bfbfbf" points="400,-224.5 400,-243.5 458,-243.5 458,-224.5 400,-224.5"/>
<text text-anchor="middle" x="429" y="-231.5" font-family="Helvetica,sans-Serif" font-size="10.00">memory</text>
</a>
</g>
</g>
<!-- Node2&#45;&gt;Node25 -->
<g id="edge38" class="edge">
<title>Node2&#45;&gt;Node25</title>
<path fill="none" stroke="midnightblue" d="M356.65,-336.25C364.33,-327.34 376.38,-313.02 386,-300 397.65,-284.24 409.88,-265.5 418.31,-252.21"/>
<polygon fill="midnightblue" stroke="midnightblue" points="421.35,-253.94 423.71,-243.61 415.43,-250.21 421.35,-253.94"/>
</g>
<!-- Node26 -->
<g id="node26" class="node">
<title>Node26</title>
<g id="a_node26"><a xlink:title=" ">
<polygon fill="white" stroke="#bfbfbf" points="240.5,-280.5 240.5,-299.5 305.5,-299.5 305.5,-280.5 240.5,-280.5"/>
<text text-anchor="middle" x="273" y="-287.5" font-family="Helvetica,sans-Serif" font-size="10.00">functional</text>
</a>
</g>
</g>
<!-- Node2&#45;&gt;Node26 -->
<g id="edge37" class="edge">
<title>Node2&#45;&gt;Node26</title>
<path fill="none" stroke="midnightblue" d="M336.79,-336.32C325.22,-328.11 307.62,-315.6 293.84,-305.81"/>
<polygon fill="midnightblue" stroke="midnightblue" points="295.61,-302.77 285.43,-299.83 291.56,-308.48 295.61,-302.77"/>
</g>
<!-- Node4 -->
<g id="node4" class="node">
<title>Node4</title>
<g id="a_node4"><a xlink:href="itkMacro_8h.html" target="_top" xlink:title=" ">
<polygon fill="white" stroke="black" points="469,-0.5 469,-19.5 537,-19.5 537,-0.5 469,-0.5"/>
<text text-anchor="middle" x="503" y="-7.5" font-family="Helvetica,sans-Serif" font-size="10.00">itkMacro.h</text>
</a>
</g>
</g>
<!-- Node3&#45;&gt;Node4 -->
<g id="edge3" class="edge">
<title>Node3&#45;&gt;Node4</title>
<path fill="none" stroke="midnightblue" d="M479.94,-168.38C523.2,-150.09 619.81,-106.59 637,-76 658.3,-38.1 593.8,-21.94 547.03,-15.32"/>
<polygon fill="midnightblue" stroke="midnightblue" points="547.43,-11.84 537.06,-14.01 546.52,-18.78 547.43,-11.84"/>
</g>
<!-- Node5 -->
<g id="node5" class="node">
<title>Node5</title>
<g id="a_node5"><a xlink:href="itkSmartPointer_8h.html" target="_top" xlink:title=" ">
<polygon fill="white" stroke="black" points="408.5,-112.5 408.5,-131.5 509.5,-131.5 509.5,-112.5 408.5,-112.5"/>
<text text-anchor="middle" x="459" y="-119.5" font-family="Helvetica,sans-Serif" font-size="10.00">itkSmartPointer.h</text>
</a>
</g>
</g>
<!-- Node3&#45;&gt;Node5 -->
<g id="edge4" class="edge">
<title>Node3&#45;&gt;Node5</title>
<path fill="none" stroke="midnightblue" d="M459,-168.08C459,-161.01 459,-150.86 459,-141.99"/>
<polygon fill="midnightblue" stroke="midnightblue" points="462.5,-141.75 459,-131.75 455.5,-141.75 462.5,-141.75"/>
</g>
<!-- Node6 -->
<g id="node6" class="node">
<title>Node6</title>
<g id="a_node6"><a xlink:title=" ">
<polygon fill="white" stroke="#bfbfbf" points="568,-56.5 568,-75.5 628,-75.5 628,-56.5 568,-56.5"/>
<text text-anchor="middle" x="598" y="-63.5" font-family="Helvetica,sans-Serif" font-size="10.00">iostream</text>
</a>
</g>
</g>
<!-- Node3&#45;&gt;Node6 -->
<g id="edge21" class="edge">
<title>Node3&#45;&gt;Node6</title>
<path fill="none" stroke="midnightblue" d="M471.07,-168.19C483.28,-159.23 502.62,-144.87 519,-132 540.21,-115.33 564.06,-95.57 579.95,-82.24"/>
<polygon fill="midnightblue" stroke="midnightblue" points="582.49,-84.68 587.89,-75.56 577.99,-79.32 582.49,-84.68"/>
</g>
<!-- Node10 -->
<g id="node10" class="node">
<title>Node10</title>
<g id="a_node10"><a xlink:href="itkTimeStamp_8h.html" target="_top" xlink:title=" ">
<polygon fill="white" stroke="black" points="208.5,-112.5 208.5,-131.5 303.5,-131.5 303.5,-112.5 208.5,-112.5"/>
<text text-anchor="middle" x="256" y="-119.5" font-family="Helvetica,sans-Serif" font-size="10.00">itkTimeStamp.h</text>
</a>
</g>
</g>
<!-- Node3&#45;&gt;Node10 -->
<g id="edge9" class="edge">
<title>Node3&#45;&gt;Node10</title>
<path fill="none" stroke="midnightblue" d="M426.83,-168.44C391.94,-159.16 336.11,-144.31 297.83,-134.13"/>
<polygon fill="midnightblue" stroke="midnightblue" points="298.58,-130.7 288.02,-131.52 296.78,-137.47 298.58,-130.7"/>
</g>
<!-- Node14 -->
<g id="node14" class="node">
<title>Node14</title>
<g id="a_node14"><a xlink:title=" ">
<polygon fill="white" stroke="#bfbfbf" points="170,-56.5 170,-75.5 220,-75.5 220,-56.5 170,-56.5"/>
<text text-anchor="middle" x="195" y="-63.5" font-family="Helvetica,sans-Serif" font-size="10.00">atomic</text>
</a>
</g>
</g>
<!-- Node3&#45;&gt;Node14 -->
<g id="edge20" class="edge">
<title>Node3&#45;&gt;Node14</title>
<path fill="none" stroke="midnightblue" d="M411.92,-170.34C339.2,-159.83 207.1,-139.81 200,-132 188.84,-119.72 188.82,-100.18 190.85,-85.73"/>
<polygon fill="midnightblue" stroke="midnightblue" points="194.29,-86.34 192.64,-75.88 187.41,-85.09 194.29,-86.34"/>
</g>
<!-- Node16 -->
<g id="node16" class="node">
<title>Node16</title>
<g id="a_node16"><a xlink:href="itkIndent_8h.html" target="_top" xlink:title=" ">
<polygon fill="white" stroke="black" points="321.5,-112.5 321.5,-131.5 390.5,-131.5 390.5,-112.5 321.5,-112.5"/>
<text text-anchor="middle" x="356" y="-119.5" font-family="Helvetica,sans-Serif" font-size="10.00">itkIndent.h</text>
</a>
</g>
</g>
<!-- Node3&#45;&gt;Node16 -->
<g id="edge17" class="edge">
<title>Node3&#45;&gt;Node16</title>
<path fill="none" stroke="midnightblue" d="M442.45,-168.32C426.01,-159.7 400.57,-146.36 381.53,-136.39"/>
<polygon fill="midnightblue" stroke="midnightblue" points="382.99,-133.2 372.51,-131.65 379.74,-139.4 382.99,-133.2"/>
</g>
<!-- Node17 -->
<g id="node17" class="node">
<title>Node17</title>
<g id="a_node17"><a xlink:title=" ">
<polygon fill="white" stroke="#bfbfbf" points="604.5,-112.5 604.5,-131.5 661.5,-131.5 661.5,-112.5 604.5,-112.5"/>
<text text-anchor="middle" x="633" y="-119.5" font-family="Helvetica,sans-Serif" font-size="10.00">typeinfo</text>
</a>
</g>
</g>
<!-- Node3&#45;&gt;Node17 -->
<g id="edge22" class="edge">
<title>Node3&#45;&gt;Node17</title>
<path fill="none" stroke="midnightblue" d="M486.57,-168.44C516.1,-159.28 563.12,-144.69 595.88,-134.52"/>
<polygon fill="midnightblue" stroke="midnightblue" points="597.04,-137.82 605.56,-131.52 594.97,-131.14 597.04,-137.82"/>
</g>
<!-- Node5&#45;&gt;Node6 -->
<g id="edge5" class="edge">
<title>Node5&#45;&gt;Node6</title>
<path fill="none" stroke="midnightblue" d="M481.02,-112.44C504.1,-103.48 540.56,-89.31 566.64,-79.18"/>
<polygon fill="midnightblue" stroke="midnightblue" points="568.02,-82.4 576.08,-75.52 565.49,-75.88 568.02,-82.4"/>
</g>
<!-- Node7 -->
<g id="node7" class="node">
<title>Node7</title>
<g id="a_node7"><a xlink:title=" ">
<polygon fill="white" stroke="#bfbfbf" points="314.5,-56.5 314.5,-75.5 359.5,-75.5 359.5,-56.5 314.5,-56.5"/>
<text text-anchor="middle" x="337" y="-63.5" font-family="Helvetica,sans-Serif" font-size="10.00">utility</text>
</a>
</g>
</g>
<!-- Node5&#45;&gt;Node7 -->
<g id="edge6" class="edge">
<title>Node5&#45;&gt;Node7</title>
<path fill="none" stroke="midnightblue" d="M439.67,-112.44C419.68,-103.6 388.26,-89.69 365.44,-79.59"/>
<polygon fill="midnightblue" stroke="midnightblue" points="366.8,-76.36 356.24,-75.52 363.97,-82.76 366.8,-76.36"/>
</g>
<!-- Node8 -->
<g id="node8" class="node">
<title>Node8</title>
<g id="a_node8"><a xlink:title=" ">
<polygon fill="white" stroke="#bfbfbf" points="377.5,-56.5 377.5,-75.5 446.5,-75.5 446.5,-56.5 377.5,-56.5"/>
<text text-anchor="middle" x="412" y="-63.5" font-family="Helvetica,sans-Serif" font-size="10.00">type_traits</text>
</a>
</g>
</g>
<!-- Node5&#45;&gt;Node8 -->
<g id="edge7" class="edge">
<title>Node5&#45;&gt;Node8</title>
<path fill="none" stroke="midnightblue" d="M451.24,-112.08C444.46,-104.3 434.46,-92.8 426.24,-83.37"/>
<polygon fill="midnightblue" stroke="midnightblue" points="428.82,-81 419.62,-75.75 423.54,-85.59 428.82,-81"/>
</g>
<!-- Node9 -->
<g id="node9" class="node">
<title>Node9</title>
<g id="a_node9"><a xlink:title=" ">
<polygon fill="white" stroke="#bfbfbf" points="464.5,-56.5 464.5,-75.5 549.5,-75.5 549.5,-56.5 464.5,-56.5"/>
<text text-anchor="middle" x="507" y="-63.5" font-family="Helvetica,sans-Serif" font-size="10.00">itkConfigure.h</text>
</a>
</g>
</g>
<!-- Node5&#45;&gt;Node9 -->
<g id="edge8" class="edge">
<title>Node5&#45;&gt;Node9</title>
<path fill="none" stroke="midnightblue" d="M466.93,-112.08C473.85,-104.3 484.07,-92.8 492.45,-83.37"/>
<polygon fill="midnightblue" stroke="midnightblue" points="495.19,-85.55 499.22,-75.75 489.96,-80.9 495.19,-85.55"/>
</g>
<!-- Node10&#45;&gt;Node4 -->
<g id="edge10" class="edge">
<title>Node10&#45;&gt;Node4</title>
<path fill="none" stroke="midnightblue" d="M258.96,-112.27C264.24,-98.11 276.68,-70.25 297,-56 345.14,-22.24 413.97,-13.13 458.57,-11.03"/>
<polygon fill="midnightblue" stroke="midnightblue" points="458.95,-14.51 468.81,-10.65 458.69,-7.52 458.95,-14.51"/>
</g>
<!-- Node11 -->
<g id="node11" class="node">
<title>Node11</title>
<g id="a_node11"><a xlink:href="itkIntTypes_8h.html" target="_top" xlink:title=" ">
<polygon fill="white" stroke="black" points="741.5,-56.5 741.5,-75.5 820.5,-75.5 820.5,-56.5 741.5,-56.5"/>
<text text-anchor="middle" x="781" y="-63.5" font-family="Helvetica,sans-Serif" font-size="10.00">itkIntTypes.h</text>
</a>
</g>
</g>
<!-- Node10&#45;&gt;Node11 -->
<g id="edge11" class="edge">
<title>Node10&#45;&gt;Node11</title>
<path fill="none" stroke="midnightblue" d="M303.55,-113.27C306.75,-112.82 309.92,-112.39 313,-112 464.97,-92.71 645.64,-77.52 731.26,-70.78"/>
<polygon fill="midnightblue" stroke="midnightblue" points="731.77,-74.26 741.46,-69.99 731.22,-67.28 731.77,-74.26"/>
</g>
<!-- Node10&#45;&gt;Node14 -->
<g id="edge15" class="edge">
<title>Node10&#45;&gt;Node14</title>
<path fill="none" stroke="midnightblue" d="M246.2,-112.32C237.18,-104.34 223.59,-92.31 212.68,-82.65"/>
<polygon fill="midnightblue" stroke="midnightblue" points="214.79,-79.84 204.98,-75.83 210.15,-85.08 214.79,-79.84"/>
</g>
<!-- Node10&#45;&gt;Node15 -->
<g id="edge16" class="edge">
<title>Node10&#45;&gt;Node15</title>
<path fill="none" stroke="midnightblue" d="M224.47,-112.44C190.41,-103.2 135.99,-88.44 98.48,-78.26"/>
<polygon fill="midnightblue" stroke="midnightblue" points="98.95,-74.76 88.38,-75.52 97.12,-81.51 98.95,-74.76"/>
</g>
<!-- Node11&#45;&gt;Node4 -->
<g id="edge12" class="edge">
<title>Node11&#45;&gt;Node4</title>
<path fill="none" stroke="midnightblue" d="M741.46,-57.32C690.06,-47.34 600.55,-29.95 547.03,-19.55"/>
<polygon fill="midnightblue" stroke="midnightblue" points="547.64,-16.11 537.15,-17.63 546.3,-22.98 547.64,-16.11"/>
</g>
<!-- Node12 -->
<g id="node12" class="node">
<title>Node12</title>
<g id="a_node12"><a xlink:title=" ">
<polygon fill="white" stroke="#bfbfbf" points="790,-0.5 790,-19.5 840,-19.5 840,-0.5 790,-0.5"/>
<text text-anchor="middle" x="815" y="-7.5" font-family="Helvetica,sans-Serif" font-size="10.00">cstdint</text>
</a>
</g>
</g>
<!-- Node11&#45;&gt;Node12 -->
<g id="edge13" class="edge">
<title>Node11&#45;&gt;Node12</title>
<path fill="none" stroke="midnightblue" d="M786.61,-56.08C791.37,-48.53 798.32,-37.49 804.15,-28.23"/>
<polygon fill="midnightblue" stroke="midnightblue" points="807.12,-30.08 809.49,-19.75 801.2,-26.35 807.12,-30.08"/>
</g>
<!-- Node13 -->
<g id="node13" class="node">
<title>Node13</title>
<g id="a_node13"><a xlink:title=" ">
<polygon fill="white" stroke="#bfbfbf" points="722,-0.5 722,-19.5 772,-19.5 772,-0.5 722,-0.5"/>
<text text-anchor="middle" x="747" y="-7.5" font-family="Helvetica,sans-Serif" font-size="10.00">climits</text>
</a>
</g>
</g>
<!-- Node11&#45;&gt;Node13 -->
<g id="edge14" class="edge">
<title>Node11&#45;&gt;Node13</title>
<path fill="none" stroke="midnightblue" d="M775.39,-56.08C770.63,-48.53 763.68,-37.49 757.85,-28.23"/>
<polygon fill="midnightblue" stroke="midnightblue" points="760.8,-26.35 752.51,-19.75 754.88,-30.08 760.8,-26.35"/>
</g>
<!-- Node16&#45;&gt;Node4 -->
<g id="edge18" class="edge">
<title>Node16&#45;&gt;Node4</title>
<path fill="none" stroke="midnightblue" d="M340.84,-112.3C320.89,-99.77 290.11,-75.93 306,-56 324.76,-32.47 406.85,-20.27 458.97,-14.78"/>
<polygon fill="midnightblue" stroke="midnightblue" points="459.36,-18.26 468.96,-13.77 458.66,-11.29 459.36,-18.26"/>
</g>
<!-- Node16&#45;&gt;Node6 -->
<g id="edge19" class="edge">
<title>Node16&#45;&gt;Node6</title>
<path fill="none" stroke="midnightblue" d="M390.5,-113.45C428.94,-105.01 493.18,-90.85 557.82,-76.25"/>
<polygon fill="midnightblue" stroke="midnightblue" points="558.79,-79.62 567.77,-74 557.25,-72.79 558.79,-79.62"/>
</g>
<!-- Node18&#45;&gt;Node4 -->
<g id="edge24" class="edge">
<title>Node18&#45;&gt;Node4</title>
<path fill="none" stroke="midnightblue" d="M284.73,-172.21C253.56,-166.89 214.17,-155.67 187,-132 160.08,-108.55 137.46,-82.84 161,-56 180.35,-33.93 370.6,-19.28 458.68,-13.62"/>
<polygon fill="midnightblue" stroke="midnightblue" points="459.13,-17.1 468.89,-12.97 458.69,-10.11 459.13,-17.1"/>
</g>
<!-- Node18&#45;&gt;Node16 -->
<g id="edge25" class="edge">
<title>Node18&#45;&gt;Node16</title>
<path fill="none" stroke="midnightblue" d="M337.63,-168.08C340.61,-160.77 344.93,-150.18 348.62,-141.1"/>
<polygon fill="midnightblue" stroke="midnightblue" points="351.9,-142.33 352.43,-131.75 345.42,-139.69 351.9,-142.33"/>
</g>
<!-- Node20 -->
<g id="node20" class="node">
<title>Node20</title>
<g id="a_node20"><a xlink:href="itkMetaDataObjectBase_8h.html" target="_top" xlink:title=" ">
<polygon fill="white" stroke="black" points="558,-224.5 558,-243.5 700,-243.5 700,-224.5 558,-224.5"/>
<text text-anchor="middle" x="629" y="-231.5" font-family="Helvetica,sans-Serif" font-size="10.00">itkMetaDataObjectBase.h</text>
</a>
</g>
</g>
<!-- Node19&#45;&gt;Node20 -->
<g id="edge27" class="edge">
<title>Node19&#45;&gt;Node20</title>
<path fill="none" stroke="midnightblue" d="M629,-280.08C629,-273.01 629,-262.86 629,-253.99"/>
<polygon fill="midnightblue" stroke="midnightblue" points="632.5,-253.75 629,-243.75 625.5,-253.75 632.5,-253.75"/>
</g>
<!-- Node21 -->
<g id="node21" class="node">
<title>Node21</title>
<g id="a_node21"><a xlink:title=" ">
<polygon fill="white" stroke="#bfbfbf" points="476,-224.5 476,-243.5 540,-243.5 540,-224.5 476,-224.5"/>
<text text-anchor="middle" x="508" y="-231.5" font-family="Helvetica,sans-Serif" font-size="10.00">algorithm</text>
</a>
</g>
</g>
<!-- Node19&#45;&gt;Node21 -->
<g id="edge31" class="edge">
<title>Node19&#45;&gt;Node21</title>
<path fill="none" stroke="midnightblue" d="M609.83,-280.44C590.09,-271.64 559.11,-257.81 536.51,-247.72"/>
<polygon fill="midnightblue" stroke="midnightblue" points="537.64,-244.4 527.08,-243.52 534.79,-250.79 537.64,-244.4"/>
</g>
<!-- Node19&#45;&gt;Node22 -->
<g id="edge32" class="edge">
<title>Node19&#45;&gt;Node22</title>
<path fill="none" stroke="midnightblue" d="M652.93,-280.44C678.22,-271.4 718.3,-257.06 746.68,-246.92"/>
<polygon fill="midnightblue" stroke="midnightblue" points="747.95,-250.18 756.19,-243.52 745.59,-243.59 747.95,-250.18"/>
</g>
<!-- Node19&#45;&gt;Node23 -->
<g id="edge33" class="edge">
<title>Node19&#45;&gt;Node23</title>
<path fill="none" stroke="midnightblue" d="M696.76,-282.28C756.91,-275.58 847.25,-263.72 934.09,-243.88"/>
<polygon fill="midnightblue" stroke="midnightblue" points="934.89,-247.29 943.84,-241.62 933.3,-240.47 934.89,-247.29"/>
</g>
<!-- Node19&#45;&gt;Node24 -->
<g id="edge34" class="edge">
<title>Node19&#45;&gt;Node24</title>
<path fill="none" stroke="midnightblue" d="M696.55,-286.48C842.51,-280.74 1184.4,-265.62 1319.64,-243.8"/>
<polygon fill="midnightblue" stroke="midnightblue" points="1320.51,-247.2 1329.79,-242.08 1319.34,-240.3 1320.51,-247.2"/>
</g>
<!-- Node19&#45;&gt;Node25 -->
<g id="edge35" class="edge">
<title>Node19&#45;&gt;Node25</title>
<path fill="none" stroke="midnightblue" d="M597.31,-280.44C562.37,-271.01 506.13,-255.83 468.39,-245.63"/>
<polygon fill="midnightblue" stroke="midnightblue" points="468.83,-242.13 458.26,-242.9 467.01,-248.89 468.83,-242.13"/>
</g>
<!-- Node20&#45;&gt;Node3 -->
<g id="edge28" class="edge">
<title>Node20&#45;&gt;Node3</title>
<path fill="none" stroke="midnightblue" d="M602.06,-224.44C573.34,-215.32 527.67,-200.81 495.68,-190.65"/>
<polygon fill="midnightblue" stroke="midnightblue" points="496.4,-187.21 485.81,-187.52 494.28,-193.88 496.4,-187.21"/>
</g>
<!-- Node20&#45;&gt;Node6 -->
<g id="edge30" class="edge">
<title>Node20&#45;&gt;Node6</title>
<path fill="none" stroke="midnightblue" d="M636.74,-224.35C654.09,-203.88 692.9,-151.22 671,-112 662.84,-97.39 647.78,-86.94 633.45,-79.8"/>
<polygon fill="midnightblue" stroke="midnightblue" points="634.76,-76.56 624.21,-75.59 631.85,-82.92 634.76,-76.56"/>
</g>
<!-- Node20&#45;&gt;Node17 -->
<g id="edge29" class="edge">
<title>Node20&#45;&gt;Node17</title>
<path fill="none" stroke="midnightblue" d="M629.31,-224.37C629.96,-206.62 631.45,-165.67 632.32,-141.6"/>
<polygon fill="midnightblue" stroke="midnightblue" points="635.82,-141.71 632.69,-131.59 628.83,-141.46 635.82,-141.71"/>
</g>
<!-- Node28 -->
<g id="node28" class="node">
<title>Node28</title>
<g id="a_node28"><a xlink:href="itkObjectFactoryBase_8h.html" target="_top" xlink:title=" ">
<polygon fill="white" stroke="black" points="608.5,-448.5 608.5,-467.5 737.5,-467.5 737.5,-448.5 608.5,-448.5"/>
<text text-anchor="middle" x="673" y="-455.5" font-family="Helvetica,sans-Serif" font-size="10.00">itkObjectFactoryBase.h</text>
</a>
</g>
</g>
<!-- Node27&#45;&gt;Node28 -->
<g id="edge40" class="edge">
<title>Node27&#45;&gt;Node28</title>
<path fill="none" stroke="midnightblue" d="M708.06,-504.08C702.07,-496.38 693.25,-485.03 685.95,-475.65"/>
<polygon fill="midnightblue" stroke="midnightblue" points="688.71,-473.5 679.81,-467.75 683.18,-477.79 688.71,-473.5"/>
</g>
<!-- Node28&#45;&gt;Node15 -->
<g id="edge43" class="edge">
<title>Node28&#45;&gt;Node15</title>
<path fill="none" stroke="midnightblue" d="M608.33,-452.01C451.92,-439.09 66,-401.65 66,-347 66,-347 66,-347 66,-177 66,-144.84 62.13,-107.57 59.47,-85.71"/>
<polygon fill="midnightblue" stroke="midnightblue" points="62.91,-85.02 58.18,-75.54 55.96,-85.9 62.91,-85.02"/>
</g>
<!-- Node28&#45;&gt;Node22 -->
<g id="edge49" class="edge">
<title>Node28&#45;&gt;Node22</title>
<path fill="none" stroke="midnightblue" d="M691.84,-448.42C706.75,-440.77 727.14,-428.27 740,-412 777.39,-364.71 781.23,-289.21 780.79,-254.11"/>
<polygon fill="midnightblue" stroke="midnightblue" points="784.28,-253.75 780.52,-243.85 777.28,-253.94 784.28,-253.75"/>
</g>
<!-- Node28&#45;&gt;Node25 -->
<g id="edge48" class="edge">
<title>Node28&#45;&gt;Node25</title>
<path fill="none" stroke="midnightblue" d="M658.58,-448.45C644.61,-439.91 623.1,-426.07 606,-412 540.69,-358.27 472.39,-283.94 443.39,-251.38"/>
<polygon fill="midnightblue" stroke="midnightblue" points="445.83,-248.87 436.58,-243.7 440.59,-253.51 445.83,-248.87"/>
</g>
<!-- Node29 -->
<g id="node29" class="node">
<title>Node29</title>
<g id="a_node29"><a xlink:href="itkCreateObjectFunction_8h.html" target="_top" xlink:title=" ">
<polygon fill="white" stroke="black" points="293.5,-392.5 293.5,-411.5 436.5,-411.5 436.5,-392.5 293.5,-392.5"/>
<text text-anchor="middle" x="365" y="-399.5" font-family="Helvetica,sans-Serif" font-size="10.00">itkCreateObjectFunction.h</text>
</a>
</g>
</g>
<!-- Node28&#45;&gt;Node29 -->
<g id="edge41" class="edge">
<title>Node28&#45;&gt;Node29</title>
<path fill="none" stroke="midnightblue" d="M624.2,-448.44C569.79,-438.9 481.83,-423.48 423.71,-413.29"/>
<polygon fill="midnightblue" stroke="midnightblue" points="424.03,-409.8 413.58,-411.52 422.82,-416.69 424.03,-409.8"/>
</g>
<!-- Node30 -->
<g id="node30" class="node">
<title>Node30</title>
<g id="a_node30"><a xlink:href="itkCommonEnums_8h.html" target="_top" xlink:title=" ">
<polygon fill="white" stroke="black" points="615,-392.5 615,-411.5 731,-411.5 731,-392.5 615,-392.5"/>
<text text-anchor="middle" x="673" y="-399.5" font-family="Helvetica,sans-Serif" font-size="10.00">itkCommonEnums.h</text>
</a>
</g>
</g>
<!-- Node28&#45;&gt;Node30 -->
<g id="edge44" class="edge">
<title>Node28&#45;&gt;Node30</title>
<path fill="none" stroke="midnightblue" d="M673,-448.08C673,-441.01 673,-430.86 673,-421.99"/>
<polygon fill="midnightblue" stroke="midnightblue" points="676.5,-421.75 673,-411.75 669.5,-421.75 676.5,-421.75"/>
</g>
<!-- Node28&#45;&gt;Node32 -->
<g id="edge47" class="edge">
<title>Node28&#45;&gt;Node32</title>
<path fill="none" stroke="midnightblue" d="M695.82,-448.44C721.84,-438.69 764.27,-422.77 791.4,-412.6"/>
<polygon fill="midnightblue" stroke="midnightblue" points="792.84,-415.8 800.98,-409.01 790.39,-409.24 792.84,-415.8"/>
</g>
<!-- Node29&#45;&gt;Node2 -->
<g id="edge42" class="edge">
<title>Node29&#45;&gt;Node2</title>
<path fill="none" stroke="midnightblue" d="M362.36,-392.08C360.21,-384.85 357.12,-374.41 354.45,-365.4"/>
<polygon fill="midnightblue" stroke="midnightblue" points="357.79,-364.34 351.59,-355.75 351.08,-366.33 357.79,-364.34"/>
</g>
<!-- Node30&#45;&gt;Node11 -->
<g id="edge45" class="edge">
<title>Node30&#45;&gt;Node11</title>
<path fill="none" stroke="midnightblue" d="M673.87,-392.36C675.33,-379.68 678.85,-355.44 686,-336 692.31,-318.82 698.72,-316.79 706,-300 739.47,-222.84 766.02,-125.71 776.34,-85.62"/>
<polygon fill="midnightblue" stroke="midnightblue" points="779.79,-86.24 778.86,-75.68 773.01,-84.52 779.79,-86.24"/>
</g>
<!-- Node31 -->
<g id="node31" class="node">
<title>Node31</title>
<g id="a_node31"><a xlink:title=" ">
<polygon fill="white" stroke="#bfbfbf" points="694.5,-336.5 694.5,-355.5 751.5,-355.5 751.5,-336.5 694.5,-336.5"/>
<text text-anchor="middle" x="723" y="-343.5" font-family="Helvetica,sans-Serif" font-size="10.00">ostream</text>
</a>
</g>
</g>
<!-- Node30&#45;&gt;Node31 -->
<g id="edge46" class="edge">
<title>Node30&#45;&gt;Node31</title>
<path fill="none" stroke="midnightblue" d="M681.26,-392.08C688.46,-384.3 699.11,-372.8 707.85,-363.37"/>
<polygon fill="midnightblue" stroke="midnightblue" points="710.67,-365.47 714.9,-355.75 705.53,-360.71 710.67,-365.47"/>
</g>
<!-- Node34&#45;&gt;Node1 -->
<g id="edge56" class="edge">
<title>Node34&#45;&gt;Node1</title>
<path fill="none" stroke="midnightblue" d="M1189.18,-523.52C1150.5,-532.92 1084.96,-548.08 1038.96,-558.28"/>
<polygon fill="midnightblue" stroke="midnightblue" points="1038.18,-554.87 1029.17,-560.44 1039.69,-561.71 1038.18,-554.87"/>
</g>
<!-- Node34&#45;&gt;Node24 -->
<g id="edge57" class="edge">
<title>Node34&#45;&gt;Node24</title>
<path fill="none" stroke="midnightblue" d="M1223.97,-504.28C1229.97,-485.82 1243,-441.37 1243,-403 1243,-403 1243,-403 1243,-345 1243,-299.12 1291.44,-265.53 1323.73,-248.23"/>
<polygon fill="midnightblue" stroke="midnightblue" points="1325.47,-251.27 1332.76,-243.58 1322.27,-245.04 1325.47,-251.27"/>
</g>
<!-- Node35&#45;&gt;Node22 -->
<g id="edge59" class="edge">
<title>Node35&#45;&gt;Node22</title>
<path fill="none" stroke="midnightblue" d="M891.93,-280.44C869.94,-271.52 835.27,-257.44 810.34,-247.32"/>
<polygon fill="midnightblue" stroke="midnightblue" points="811.56,-244.04 800.98,-243.52 808.92,-250.52 811.56,-244.04"/>
</g>
<!-- Node35&#45;&gt;Node23 -->
<g id="edge60" class="edge">
<title>Node35&#45;&gt;Node23</title>
<path fill="none" stroke="midnightblue" d="M921.26,-280.08C928.46,-272.3 939.11,-260.8 947.85,-251.37"/>
<polygon fill="midnightblue" stroke="midnightblue" points="950.67,-253.47 954.9,-243.75 945.53,-248.71 950.67,-253.47"/>
</g>
<!-- Node35&#45;&gt;Node33 -->
<g id="edge66" class="edge">
<title>Node35&#45;&gt;Node33</title>
<path fill="none" stroke="midnightblue" d="M948.02,-280.44C986.25,-271.1 1047.57,-256.12 1089.26,-245.93"/>
<polygon fill="midnightblue" stroke="midnightblue" points="1090.26,-249.29 1099.15,-243.52 1088.6,-242.49 1090.26,-249.29"/>
</g>
<!-- Node36 -->
<g id="node36" class="node">
<title>Node36</title>
<g id="a_node36"><a xlink:href="itkArray_8h.html" target="_top" xlink:title=" ">
<polygon fill="white" stroke="black" points="1000.5,-224.5 1000.5,-243.5 1063.5,-243.5 1063.5,-224.5 1000.5,-224.5"/>
<text text-anchor="middle" x="1032" y="-231.5" font-family="Helvetica,sans-Serif" font-size="10.00">itkArray.h</text>
</a>
</g>
</g>
<!-- Node35&#45;&gt;Node36 -->
<g id="edge61" class="edge">
<title>Node35&#45;&gt;Node36</title>
<path fill="none" stroke="midnightblue" d="M931.86,-280.44C951.27,-271.64 981.73,-257.81 1003.96,-247.72"/>
<polygon fill="midnightblue" stroke="midnightblue" points="1005.57,-250.84 1013.23,-243.52 1002.68,-244.46 1005.57,-250.84"/>
</g>
<!-- Node40 -->
<g id="node40" class="node">
<title>Node40</title>
<g id="a_node40"><a xlink:title=" ">
<polygon fill="white" stroke="#bfbfbf" points="822,-224.5 822,-243.5 926,-243.5 926,-224.5 822,-224.5"/>
<text text-anchor="middle" x="874" y="-231.5" font-family="Helvetica,sans-Serif" font-size="10.00">itkStringTools.hxx</text>
</a>
</g>
</g>
<!-- Node35&#45;&gt;Node40 -->
<g id="edge67" class="edge">
<title>Node35&#45;&gt;Node40</title>
<path fill="none" stroke="midnightblue" d="M906.56,-280.08C901.05,-272.46 892.97,-261.26 886.24,-251.94"/>
<polygon fill="midnightblue" stroke="midnightblue" points="889.01,-249.81 880.32,-243.75 883.34,-253.91 889.01,-249.81"/>
</g>
<!-- Node36&#45;&gt;Node4 -->
<g id="edge62" class="edge">
<title>Node36&#45;&gt;Node4</title>
<path fill="none" stroke="midnightblue" d="M1000.37,-225.05C970.94,-217.19 926.16,-204.04 889,-188 778.66,-140.38 763.66,-102.88 653,-56 618.36,-41.33 577.35,-29.37 546.97,-21.48"/>
<polygon fill="midnightblue" stroke="midnightblue" points="547.66,-18.04 537.1,-18.96 545.93,-24.82 547.66,-18.04"/>
</g>
<!-- Node37 -->
<g id="node37" class="node">
<title>Node37</title>
<g id="a_node37"><a xlink:title=" ">
<polygon fill="white" stroke="#bfbfbf" points="991,-168.5 991,-187.5 1073,-187.5 1073,-168.5 991,-168.5"/>
<text text-anchor="middle" x="1032" y="-175.5" font-family="Helvetica,sans-Serif" font-size="10.00">vxl_version.h</text>
</a>
</g>
</g>
<!-- Node36&#45;&gt;Node37 -->
<g id="edge63" class="edge">
<title>Node36&#45;&gt;Node37</title>
<path fill="none" stroke="midnightblue" d="M1032,-224.08C1032,-217.01 1032,-206.86 1032,-197.99"/>
<polygon fill="midnightblue" stroke="midnightblue" points="1035.5,-197.75 1032,-187.75 1028.5,-197.75 1035.5,-197.75"/>
</g>
<!-- Node38 -->
<g id="node38" class="node">
<title>Node38</title>
<g id="a_node38"><a xlink:title=" ">
<polygon fill="white" stroke="#bfbfbf" points="1091,-168.5 1091,-187.5 1185,-187.5 1185,-168.5 1091,-168.5"/>
<text text-anchor="middle" x="1138" y="-175.5" font-family="Helvetica,sans-Serif" font-size="10.00">vnl/vnl_vector.h</text>
</a>
</g>
</g>
<!-- Node36&#45;&gt;Node38 -->
<g id="edge64" class="edge">
<title>Node36&#45;&gt;Node38</title>
<path fill="none" stroke="midnightblue" d="M1049.03,-224.32C1066.03,-215.66 1092.38,-202.24 1111.99,-192.25"/>
<polygon fill="midnightblue" stroke="midnightblue" points="1113.69,-195.31 1121.01,-187.65 1110.51,-189.08 1113.69,-195.31"/>
</g>
<!-- Node39 -->
<g id="node39" class="node">
<title>Node39</title>
<g id="a_node39"><a xlink:title=" ">
<polygon fill="white" stroke="#bfbfbf" points="897.5,-168.5 897.5,-187.5 972.5,-187.5 972.5,-168.5 897.5,-168.5"/>
<text text-anchor="middle" x="935" y="-175.5" font-family="Helvetica,sans-Serif" font-size="10.00">itkArray.hxx</text>
</a>
</g>
</g>
<!-- Node36&#45;&gt;Node39 -->
<g id="edge65" class="edge">
<title>Node36&#45;&gt;Node39</title>
<path fill="none" stroke="midnightblue" d="M1016.42,-224.32C1001,-215.74 977.19,-202.49 959.29,-192.52"/>
<polygon fill="midnightblue" stroke="midnightblue" points="960.99,-189.46 950.55,-187.65 957.58,-195.58 960.99,-189.46"/>
</g>
<!-- Node41&#45;&gt;Node22 -->
<g id="edge70" class="edge">
<title>Node41&#45;&gt;Node22</title>
<path fill="none" stroke="midnightblue" d="M1015.29,-281.7C966.96,-274.01 889.88,-260.97 813.95,-244.04"/>
<polygon fill="midnightblue" stroke="midnightblue" points="814.26,-240.53 803.73,-241.74 812.72,-247.35 814.26,-240.53"/>
</g>
<!-- Node41&#45;&gt;Node23 -->
<g id="edge71" class="edge">
<title>Node41&#45;&gt;Node23</title>
<path fill="none" stroke="midnightblue" d="M1046.93,-280.32C1031.04,-271.74 1006.49,-258.49 988.04,-248.52"/>
<polygon fill="midnightblue" stroke="midnightblue" points="989.49,-245.33 979.03,-243.65 986.16,-251.49 989.49,-245.33"/>
</g>
<!-- Node41&#45;&gt;Node24 -->
<g id="edge69" class="edge">
<title>Node41&#45;&gt;Node24</title>
<path fill="none" stroke="midnightblue" d="M1110.87,-282.26C1160.77,-274.88 1241.4,-261.94 1319.7,-244.1"/>
<polygon fill="midnightblue" stroke="midnightblue" points="1320.77,-247.44 1329.73,-241.78 1319.19,-240.62 1320.77,-247.44"/>
</g>
<!-- Node41&#45;&gt;Node33 -->
<g id="edge73" class="edge">
<title>Node41&#45;&gt;Node33</title>
<path fill="none" stroke="midnightblue" d="M1074.41,-280.32C1085.11,-272.18 1101.34,-259.84 1114.16,-250.09"/>
<polygon fill="midnightblue" stroke="midnightblue" points="1116.54,-252.67 1122.39,-243.83 1112.31,-247.1 1116.54,-252.67"/>
</g>
<!-- Node41&#45;&gt;Node36 -->
<g id="edge72" class="edge">
<title>Node41&#45;&gt;Node36</title>
<path fill="none" stroke="midnightblue" d="M1057.88,-280.08C1053.59,-272.61 1047.34,-261.72 1042.06,-252.52"/>
<polygon fill="midnightblue" stroke="midnightblue" points="1045.04,-250.68 1037.02,-243.75 1038.97,-254.17 1045.04,-250.68"/>
</g>
<!-- Node42 -->
<g id="node42" class="node">
<title>Node42</title>
<g id="a_node42"><a xlink:title=" ">
<polygon fill="white" stroke="#bfbfbf" points="1204.5,-224.5 1204.5,-243.5 1311.5,-243.5 1311.5,-224.5 1204.5,-224.5"/>
<text text-anchor="middle" x="1258" y="-231.5" font-family="Helvetica,sans-Serif" font-size="10.00">itkFancyString.hxx</text>
</a>
</g>
</g>
<!-- Node41&#45;&gt;Node42 -->
<g id="edge74" class="edge">
<title>Node41&#45;&gt;Node42</title>
<path fill="none" stroke="midnightblue" d="M1093.9,-280.44C1127.27,-271.2 1180.59,-256.44 1217.35,-246.26"/>
<polygon fill="midnightblue" stroke="midnightblue" points="1218.54,-249.56 1227.25,-243.52 1216.67,-242.81 1218.54,-249.56"/>
</g>
</g>
</svg>
