<?xml version="1.0" encoding="UTF-8" standalone="no"?>
<!DOCTYPE svg PUBLIC "-//W3C//DTD SVG 1.1//EN"
 "http://www.w3.org/Graphics/SVG/1.1/DTD/svg11.dtd">
<!-- Generated by graphviz version 2.43.0 (0)
 -->
<!-- Title: itkDOMNodeXMLWriter.h Pages: 1 -->
<svg width="1290pt" height="644pt"
 viewBox="0.00 0.00 1290.00 644.00" xmlns="http://www.w3.org/2000/svg" xmlns:xlink="http://www.w3.org/1999/xlink">
<g id="graph0" class="graph" transform="scale(1 1) rotate(0) translate(4 640)">
<title>itkDOMNodeXMLWriter.h</title>
<polygon fill="white" stroke="transparent" points="-4,4 -4,-640 1286,-640 1286,4 -4,4"/>
<!-- Node1 -->
<g id="node1" class="node">
<title>Node1</title>
<g id="a_node1"><a xlink:title=" ">
<polygon fill="#bfbfbf" stroke="black" points="426.5,-616.5 426.5,-635.5 563.5,-635.5 563.5,-616.5 426.5,-616.5"/>
<text text-anchor="middle" x="495" y="-623.5" font-family="Helvetica,sans-Serif" font-size="10.00">itkDOMNodeXMLWriter.h</text>
</a>
</g>
</g>
<!-- Node2 -->
<g id="node2" class="node">
<title>Node2</title>
<g id="a_node2"><a xlink:href="itkDOMNode_8h.html" target="_top" xlink:title=" ">
<polygon fill="white" stroke="black" points="648,-560.5 648,-579.5 736,-579.5 736,-560.5 648,-560.5"/>
<text text-anchor="middle" x="692" y="-567.5" font-family="Helvetica,sans-Serif" font-size="10.00">itkDOMNode.h</text>
</a>
</g>
</g>
<!-- Node1&#45;&gt;Node2 -->
<g id="edge1" class="edge">
<title>Node1&#45;&gt;Node2</title>
<path fill="none" stroke="midnightblue" d="M526.22,-616.44C559.93,-607.2 613.8,-592.44 650.93,-582.26"/>
<polygon fill="midnightblue" stroke="midnightblue" points="652.21,-585.54 660.93,-579.52 650.36,-578.78 652.21,-585.54"/>
</g>
<!-- Node3 -->
<g id="node3" class="node">
<title>Node3</title>
<g id="a_node3"><a xlink:href="itkObject_8h.html" target="_top" xlink:title=" ">
<polygon fill="white" stroke="black" points="322,-336.5 322,-355.5 392,-355.5 392,-336.5 322,-336.5"/>
<text text-anchor="middle" x="357" y="-343.5" font-family="Helvetica,sans-Serif" font-size="10.00">itkObject.h</text>
</a>
</g>
</g>
<!-- Node1&#45;&gt;Node3 -->
<g id="edge75" class="edge">
<title>Node1&#45;&gt;Node3</title>
<path fill="none" stroke="midnightblue" d="M432.72,-616.48C375.32,-604.71 299,-577.34 299,-515 299,-515 299,-515 299,-457 299,-426.77 304.51,-418.53 319,-392 324.81,-381.37 333.38,-370.93 340.92,-362.8"/>
<polygon fill="midnightblue" stroke="midnightblue" points="343.53,-365.13 347.96,-355.5 338.5,-360.26 343.53,-365.13"/>
</g>
<!-- Node32 -->
<g id="node32" class="node">
<title>Node32</title>
<g id="a_node32"><a xlink:title=" ">
<polygon fill="white" stroke="#bfbfbf" points="33.5,-336.5 33.5,-355.5 90.5,-355.5 90.5,-336.5 33.5,-336.5"/>
<text text-anchor="middle" x="62" y="-343.5" font-family="Helvetica,sans-Serif" font-size="10.00">ostream</text>
</a>
</g>
</g>
<!-- Node1&#45;&gt;Node32 -->
<g id="edge77" class="edge">
<title>Node1&#45;&gt;Node32</title>
<path fill="none" stroke="midnightblue" d="M426.09,-622.63C298.42,-616.34 38,-593.85 38,-515 38,-515 38,-515 38,-457 38,-424.06 48.4,-386.82 55.51,-365.21"/>
<polygon fill="midnightblue" stroke="midnightblue" points="58.84,-366.29 58.76,-355.7 52.22,-364.03 58.84,-366.29"/>
</g>
<!-- Node34 -->
<g id="node34" class="node">
<title>Node34</title>
<g id="a_node34"><a xlink:title=" ">
<polygon fill="white" stroke="#bfbfbf" points="1178,-224.5 1178,-243.5 1282,-243.5 1282,-224.5 1178,-224.5"/>
<text text-anchor="middle" x="1230" y="-231.5" font-family="Helvetica,sans-Serif" font-size="10.00">ITKIOXMLExport.h</text>
</a>
</g>
</g>
<!-- Node1&#45;&gt;Node34 -->
<g id="edge76" class="edge">
<title>Node1&#45;&gt;Node34</title>
<path fill="none" stroke="midnightblue" d="M563.75,-621.46C741.42,-611.41 1202,-579.17 1202,-515 1202,-515 1202,-515 1202,-345 1202,-311.79 1214.13,-274.63 1222.43,-253.12"/>
<polygon fill="midnightblue" stroke="midnightblue" points="1225.75,-254.23 1226.22,-243.65 1219.25,-251.63 1225.75,-254.23"/>
</g>
<!-- Node2&#45;&gt;Node3 -->
<g id="edge2" class="edge">
<title>Node2&#45;&gt;Node3</title>
<path fill="none" stroke="midnightblue" d="M661.21,-560.43C640.66,-553.42 614.19,-541.73 596,-524 549.04,-478.21 580.97,-433.28 530,-392 493.74,-362.63 440.39,-352.24 402.54,-348.66"/>
<polygon fill="midnightblue" stroke="midnightblue" points="402.55,-345.15 392.3,-347.82 401.98,-352.13 402.55,-345.15"/>
</g>
<!-- Node23 -->
<g id="node23" class="node">
<title>Node23</title>
<g id="a_node23"><a xlink:title=" ">
<polygon fill="white" stroke="#bfbfbf" points="727.5,-224.5 727.5,-243.5 774.5,-243.5 774.5,-224.5 727.5,-224.5"/>
<text text-anchor="middle" x="751" y="-231.5" font-family="Helvetica,sans-Serif" font-size="10.00">vector</text>
</a>
</g>
</g>
<!-- Node2&#45;&gt;Node23 -->
<g id="edge52" class="edge">
<title>Node2&#45;&gt;Node23</title>
<path fill="none" stroke="midnightblue" d="M710.03,-560.39C724.23,-552.73 743.48,-540.22 755,-524 772.43,-499.46 774,-489.1 774,-459 774,-459 774,-459 774,-345 774,-312.12 764.03,-274.86 757.22,-253.24"/>
<polygon fill="midnightblue" stroke="midnightblue" points="760.54,-252.12 754.1,-243.71 753.89,-254.3 760.54,-252.12"/>
</g>
<!-- Node24 -->
<g id="node24" class="node">
<title>Node24</title>
<g id="a_node24"><a xlink:title=" ">
<polygon fill="white" stroke="#bfbfbf" points="793,-224.5 793,-243.5 831,-243.5 831,-224.5 793,-224.5"/>
<text text-anchor="middle" x="812" y="-231.5" font-family="Helvetica,sans-Serif" font-size="10.00">map</text>
</a>
</g>
</g>
<!-- Node2&#45;&gt;Node24 -->
<g id="edge54" class="edge">
<title>Node2&#45;&gt;Node24</title>
<path fill="none" stroke="midnightblue" d="M714.29,-560.5C748.99,-545.63 812,-511.43 812,-459 812,-459 812,-459 812,-345 812,-312.95 812,-275.64 812,-253.75"/>
<polygon fill="midnightblue" stroke="midnightblue" points="815.5,-253.56 812,-243.56 808.5,-253.56 815.5,-253.56"/>
</g>
<!-- Node25 -->
<g id="node25" class="node">
<title>Node25</title>
<g id="a_node25"><a xlink:title=" ">
<polygon fill="white" stroke="#bfbfbf" points="665,-224.5 665,-243.5 709,-243.5 709,-224.5 665,-224.5"/>
<text text-anchor="middle" x="687" y="-231.5" font-family="Helvetica,sans-Serif" font-size="10.00">string</text>
</a>
</g>
</g>
<!-- Node2&#45;&gt;Node25 -->
<g id="edge51" class="edge">
<title>Node2&#45;&gt;Node25</title>
<path fill="none" stroke="midnightblue" d="M671.15,-560.43C656.42,-553.13 637.8,-541.09 629,-524 580.47,-429.69 648.54,-298.66 676.21,-252.18"/>
<polygon fill="midnightblue" stroke="midnightblue" points="679.24,-253.95 681.45,-243.59 673.26,-250.31 679.24,-253.95"/>
</g>
<!-- Node28 -->
<g id="node28" class="node">
<title>Node28</title>
<g id="a_node28"><a xlink:href="itkObjectFactory_8h.html" target="_top" xlink:title=" ">
<polygon fill="white" stroke="black" points="361,-504.5 361,-523.5 465,-523.5 465,-504.5 361,-504.5"/>
<text text-anchor="middle" x="413" y="-511.5" font-family="Helvetica,sans-Serif" font-size="10.00">itkObjectFactory.h</text>
</a>
</g>
</g>
<!-- Node2&#45;&gt;Node28 -->
<g id="edge39" class="edge">
<title>Node2&#45;&gt;Node28</title>
<path fill="none" stroke="midnightblue" d="M647.79,-560.44C598.71,-550.94 519.49,-535.61 466.84,-525.42"/>
<polygon fill="midnightblue" stroke="midnightblue" points="467.48,-521.98 457,-523.52 466.15,-528.85 467.48,-521.98"/>
</g>
<!-- Node33 -->
<g id="node33" class="node">
<title>Node33</title>
<g id="a_node33"><a xlink:title=" ">
<polygon fill="white" stroke="#bfbfbf" points="489,-392.5 489,-411.5 521,-411.5 521,-392.5 489,-392.5"/>
<text text-anchor="middle" x="505" y="-399.5" font-family="Helvetica,sans-Serif" font-size="10.00">list</text>
</a>
</g>
</g>
<!-- Node2&#45;&gt;Node33 -->
<g id="edge53" class="edge">
<title>Node2&#45;&gt;Node33</title>
<path fill="none" stroke="midnightblue" d="M647.66,-567.89C612.38,-564.59 564.23,-554.31 535,-524 508.17,-496.18 504.17,-448.3 504.21,-421.88"/>
<polygon fill="midnightblue" stroke="midnightblue" points="507.71,-421.76 504.43,-411.69 500.71,-421.61 507.71,-421.76"/>
</g>
<!-- Node2&#45;&gt;Node34 -->
<g id="edge50" class="edge">
<title>Node2&#45;&gt;Node34</title>
<path fill="none" stroke="midnightblue" d="M736.2,-566.6C842.74,-559.6 1105,-534.69 1105,-459 1105,-459 1105,-459 1105,-345 1105,-296.17 1159.42,-263.89 1196.44,-247.58"/>
<polygon fill="midnightblue" stroke="midnightblue" points="1198.05,-250.7 1205.9,-243.59 1195.32,-244.25 1198.05,-250.7"/>
</g>
<!-- Node35 -->
<g id="node35" class="node">
<title>Node35</title>
<g id="a_node35"><a xlink:href="itkDOMTextNode_8h.html" target="_top" xlink:title=" ">
<polygon fill="white" stroke="black" points="638,-504.5 638,-523.5 746,-523.5 746,-504.5 638,-504.5"/>
<text text-anchor="middle" x="692" y="-511.5" font-family="Helvetica,sans-Serif" font-size="10.00">itkDOMTextNode.h</text>
</a>
</g>
</g>
<!-- Node2&#45;&gt;Node35 -->
<g id="edge55" class="edge">
<title>Node2&#45;&gt;Node35</title>
<path fill="none" stroke="midnightblue" d="M686.83,-560.08C685.32,-552.93 684.89,-542.64 685.54,-533.69"/>
<polygon fill="midnightblue" stroke="midnightblue" points="689.02,-534.13 686.87,-523.75 682.08,-533.2 689.02,-534.13"/>
</g>
<!-- Node36 -->
<g id="node36" class="node">
<title>Node36</title>
<g id="a_node36"><a xlink:href="itkStringTools_8h.html" target="_top" xlink:title=" ">
<polygon fill="white" stroke="black" points="957,-280.5 957,-299.5 1049,-299.5 1049,-280.5 957,-280.5"/>
<text text-anchor="middle" x="1003" y="-287.5" font-family="Helvetica,sans-Serif" font-size="10.00">itkStringTools.h</text>
</a>
</g>
</g>
<!-- Node2&#45;&gt;Node36 -->
<g id="edge58" class="edge">
<title>Node2&#45;&gt;Node36</title>
<path fill="none" stroke="midnightblue" d="M736.06,-569.7C811.41,-568.35 957,-553.52 957,-459 957,-459 957,-459 957,-401 957,-365.82 977.28,-328.86 990.91,-308"/>
<polygon fill="midnightblue" stroke="midnightblue" points="993.88,-309.85 996.6,-299.61 988.09,-305.92 993.88,-309.85"/>
</g>
<!-- Node42 -->
<g id="node42" class="node">
<title>Node42</title>
<g id="a_node42"><a xlink:href="itkFancyString_8h.html" target="_top" xlink:title=" ">
<polygon fill="white" stroke="black" points="840.5,-280.5 840.5,-299.5 935.5,-299.5 935.5,-280.5 840.5,-280.5"/>
<text text-anchor="middle" x="888" y="-287.5" font-family="Helvetica,sans-Serif" font-size="10.00">itkFancyString.h</text>
</a>
</g>
</g>
<!-- Node2&#45;&gt;Node42 -->
<g id="edge68" class="edge">
<title>Node2&#45;&gt;Node42</title>
<path fill="none" stroke="midnightblue" d="M736.21,-561.45C788.63,-549.66 869,-521.41 869,-459 869,-459 869,-459 869,-401 869,-368.49 877.16,-331.35 882.78,-309.61"/>
<polygon fill="midnightblue" stroke="midnightblue" points="886.22,-310.32 885.44,-299.75 879.46,-308.5 886.22,-310.32"/>
</g>
<!-- Node4 -->
<g id="node4" class="node">
<title>Node4</title>
<g id="a_node4"><a xlink:href="itkLightObject_8h.html" target="_top" xlink:title=" ">
<polygon fill="white" stroke="black" points="414,-168.5 414,-187.5 508,-187.5 508,-168.5 414,-168.5"/>
<text text-anchor="middle" x="461" y="-175.5" font-family="Helvetica,sans-Serif" font-size="10.00">itkLightObject.h</text>
</a>
</g>
</g>
<!-- Node3&#45;&gt;Node4 -->
<g id="edge3" class="edge">
<title>Node3&#45;&gt;Node4</title>
<path fill="none" stroke="midnightblue" d="M359.88,-336.2C366.95,-315.4 386.61,-262.08 414,-224 421.96,-212.94 432.86,-202.31 442.15,-194.16"/>
<polygon fill="midnightblue" stroke="midnightblue" points="444.43,-196.82 449.8,-187.69 439.91,-191.48 444.43,-196.82"/>
</g>
<!-- Node16 -->
<g id="node16" class="node">
<title>Node16</title>
<g id="a_node16"><a xlink:href="itkSingletonMacro_8h.html" target="_top" xlink:title=" ">
<polygon fill="white" stroke="black" points="33,-56.5 33,-75.5 147,-75.5 147,-56.5 33,-56.5"/>
<text text-anchor="middle" x="90" y="-63.5" font-family="Helvetica,sans-Serif" font-size="10.00">itkSingletonMacro.h</text>
</a>
</g>
</g>
<!-- Node3&#45;&gt;Node16 -->
<g id="edge36" class="edge">
<title>Node3&#45;&gt;Node16</title>
<path fill="none" stroke="midnightblue" d="M321.9,-337.18C296.98,-330.37 263.69,-318.61 239,-300 161.23,-241.39 113.17,-129.41 96.55,-85.4"/>
<polygon fill="midnightblue" stroke="midnightblue" points="99.74,-83.93 93.01,-75.76 93.17,-86.35 99.74,-83.93"/>
</g>
<!-- Node19 -->
<g id="node19" class="node">
<title>Node19</title>
<g id="a_node19"><a xlink:href="itkEventObject_8h.html" target="_top" xlink:title=" ">
<polygon fill="white" stroke="black" points="298,-168.5 298,-187.5 396,-187.5 396,-168.5 298,-168.5"/>
<text text-anchor="middle" x="347" y="-175.5" font-family="Helvetica,sans-Serif" font-size="10.00">itkEventObject.h</text>
</a>
</g>
</g>
<!-- Node3&#45;&gt;Node19 -->
<g id="edge24" class="edge">
<title>Node3&#45;&gt;Node19</title>
<path fill="none" stroke="midnightblue" d="M356.46,-336.08C354.89,-309.95 350.27,-233.21 348.12,-197.58"/>
<polygon fill="midnightblue" stroke="midnightblue" points="351.61,-197.34 347.52,-187.57 344.62,-197.76 351.61,-197.34"/>
</g>
<!-- Node20 -->
<g id="node20" class="node">
<title>Node20</title>
<g id="a_node20"><a xlink:href="itkMetaDataDictionary_8h.html" target="_top" xlink:title=" ">
<polygon fill="white" stroke="black" points="423.5,-280.5 423.5,-299.5 558.5,-299.5 558.5,-280.5 423.5,-280.5"/>
<text text-anchor="middle" x="491" y="-287.5" font-family="Helvetica,sans-Serif" font-size="10.00">itkMetaDataDictionary.h</text>
</a>
</g>
</g>
<!-- Node3&#45;&gt;Node20 -->
<g id="edge26" class="edge">
<title>Node3&#45;&gt;Node20</title>
<path fill="none" stroke="midnightblue" d="M378.23,-336.44C400.38,-327.52 435.32,-313.44 460.44,-303.32"/>
<polygon fill="midnightblue" stroke="midnightblue" points="461.9,-306.5 469.87,-299.52 459.28,-300.01 461.9,-306.5"/>
</g>
<!-- Node26 -->
<g id="node26" class="node">
<title>Node26</title>
<g id="a_node26"><a xlink:title=" ">
<polygon fill="white" stroke="#bfbfbf" points="206,-224.5 206,-243.5 264,-243.5 264,-224.5 206,-224.5"/>
<text text-anchor="middle" x="235" y="-231.5" font-family="Helvetica,sans-Serif" font-size="10.00">memory</text>
</a>
</g>
</g>
<!-- Node3&#45;&gt;Node26 -->
<g id="edge38" class="edge">
<title>Node3&#45;&gt;Node26</title>
<path fill="none" stroke="midnightblue" d="M321.88,-337.74C299.51,-331.38 271.53,-319.92 254,-300 242.72,-287.19 238.13,-268 236.26,-253.79"/>
<polygon fill="midnightblue" stroke="midnightblue" points="239.73,-253.29 235.27,-243.68 232.76,-253.97 239.73,-253.29"/>
</g>
<!-- Node27 -->
<g id="node27" class="node">
<title>Node27</title>
<g id="a_node27"><a xlink:title=" ">
<polygon fill="white" stroke="#bfbfbf" points="263.5,-280.5 263.5,-299.5 328.5,-299.5 328.5,-280.5 263.5,-280.5"/>
<text text-anchor="middle" x="296" y="-287.5" font-family="Helvetica,sans-Serif" font-size="10.00">functional</text>
</a>
</g>
</g>
<!-- Node3&#45;&gt;Node27 -->
<g id="edge37" class="edge">
<title>Node3&#45;&gt;Node27</title>
<path fill="none" stroke="midnightblue" d="M347.2,-336.32C338.18,-328.34 324.59,-316.31 313.68,-306.65"/>
<polygon fill="midnightblue" stroke="midnightblue" points="315.79,-303.84 305.98,-299.83 311.15,-309.08 315.79,-303.84"/>
</g>
<!-- Node5 -->
<g id="node5" class="node">
<title>Node5</title>
<g id="a_node5"><a xlink:href="itkMacro_8h.html" target="_top" xlink:title=" ">
<polygon fill="white" stroke="black" points="345,-0.5 345,-19.5 413,-19.5 413,-0.5 345,-0.5"/>
<text text-anchor="middle" x="379" y="-7.5" font-family="Helvetica,sans-Serif" font-size="10.00">itkMacro.h</text>
</a>
</g>
</g>
<!-- Node4&#45;&gt;Node5 -->
<g id="edge4" class="edge">
<title>Node4&#45;&gt;Node5</title>
<path fill="none" stroke="midnightblue" d="M508.25,-172.71C601.92,-162.48 796.56,-131.64 730,-56 710.02,-33.29 513.03,-18.89 423.22,-13.45"/>
<polygon fill="midnightblue" stroke="midnightblue" points="423.26,-9.95 413.07,-12.85 422.85,-16.94 423.26,-9.95"/>
</g>
<!-- Node6 -->
<g id="node6" class="node">
<title>Node6</title>
<g id="a_node6"><a xlink:href="itkSmartPointer_8h.html" target="_top" xlink:title=" ">
<polygon fill="white" stroke="black" points="564.5,-112.5 564.5,-131.5 665.5,-131.5 665.5,-112.5 564.5,-112.5"/>
<text text-anchor="middle" x="615" y="-119.5" font-family="Helvetica,sans-Serif" font-size="10.00">itkSmartPointer.h</text>
</a>
</g>
</g>
<!-- Node4&#45;&gt;Node6 -->
<g id="edge5" class="edge">
<title>Node4&#45;&gt;Node6</title>
<path fill="none" stroke="midnightblue" d="M485.4,-168.44C511.2,-159.4 552.08,-145.06 581.02,-134.92"/>
<polygon fill="midnightblue" stroke="midnightblue" points="582.43,-138.13 590.71,-131.52 580.12,-131.52 582.43,-138.13"/>
</g>
<!-- Node7 -->
<g id="node7" class="node">
<title>Node7</title>
<g id="a_node7"><a xlink:title=" ">
<polygon fill="white" stroke="#bfbfbf" points="407,-56.5 407,-75.5 467,-75.5 467,-56.5 407,-56.5"/>
<text text-anchor="middle" x="437" y="-63.5" font-family="Helvetica,sans-Serif" font-size="10.00">iostream</text>
</a>
</g>
</g>
<!-- Node4&#45;&gt;Node7 -->
<g id="edge22" class="edge">
<title>Node4&#45;&gt;Node7</title>
<path fill="none" stroke="midnightblue" d="M459.12,-168.37C455.24,-150.62 446.31,-109.67 441.06,-85.6"/>
<polygon fill="midnightblue" stroke="midnightblue" points="444.43,-84.62 438.87,-75.59 437.59,-86.11 444.43,-84.62"/>
</g>
<!-- Node11 -->
<g id="node11" class="node">
<title>Node11</title>
<g id="a_node11"><a xlink:href="itkTimeStamp_8h.html" target="_top" xlink:title=" ">
<polygon fill="white" stroke="black" points="211.5,-112.5 211.5,-131.5 306.5,-131.5 306.5,-112.5 211.5,-112.5"/>
<text text-anchor="middle" x="259" y="-119.5" font-family="Helvetica,sans-Serif" font-size="10.00">itkTimeStamp.h</text>
</a>
</g>
</g>
<!-- Node4&#45;&gt;Node11 -->
<g id="edge10" class="edge">
<title>Node4&#45;&gt;Node11</title>
<path fill="none" stroke="midnightblue" d="M428.99,-168.44C394.27,-159.16 338.71,-144.31 300.62,-134.13"/>
<polygon fill="midnightblue" stroke="midnightblue" points="301.42,-130.72 290.86,-131.52 299.61,-137.48 301.42,-130.72"/>
</g>
<!-- Node15 -->
<g id="node15" class="node">
<title>Node15</title>
<g id="a_node15"><a xlink:title=" ">
<polygon fill="white" stroke="#bfbfbf" points="301,-56.5 301,-75.5 351,-75.5 351,-56.5 301,-56.5"/>
<text text-anchor="middle" x="326" y="-63.5" font-family="Helvetica,sans-Serif" font-size="10.00">atomic</text>
</a>
</g>
</g>
<!-- Node4&#45;&gt;Node15 -->
<g id="edge21" class="edge">
<title>Node4&#45;&gt;Node15</title>
<path fill="none" stroke="midnightblue" d="M423.48,-168.49C401.21,-161.79 373.76,-150.42 355,-132 342.07,-119.31 334.44,-99.83 330.28,-85.5"/>
<polygon fill="midnightblue" stroke="midnightblue" points="333.65,-84.55 327.74,-75.75 326.87,-86.31 333.65,-84.55"/>
</g>
<!-- Node17 -->
<g id="node17" class="node">
<title>Node17</title>
<g id="a_node17"><a xlink:href="itkIndent_8h.html" target="_top" xlink:title=" ">
<polygon fill="white" stroke="black" points="363.5,-112.5 363.5,-131.5 432.5,-131.5 432.5,-112.5 363.5,-112.5"/>
<text text-anchor="middle" x="398" y="-119.5" font-family="Helvetica,sans-Serif" font-size="10.00">itkIndent.h</text>
</a>
</g>
</g>
<!-- Node4&#45;&gt;Node17 -->
<g id="edge18" class="edge">
<title>Node4&#45;&gt;Node17</title>
<path fill="none" stroke="midnightblue" d="M450.88,-168.32C441.47,-160.26 427.26,-148.08 415.93,-138.37"/>
<polygon fill="midnightblue" stroke="midnightblue" points="418.18,-135.68 408.31,-131.83 413.62,-141 418.18,-135.68"/>
</g>
<!-- Node18 -->
<g id="node18" class="node">
<title>Node18</title>
<g id="a_node18"><a xlink:title=" ">
<polygon fill="white" stroke="#bfbfbf" points="766.5,-112.5 766.5,-131.5 823.5,-131.5 823.5,-112.5 766.5,-112.5"/>
<text text-anchor="middle" x="795" y="-119.5" font-family="Helvetica,sans-Serif" font-size="10.00">typeinfo</text>
</a>
</g>
</g>
<!-- Node4&#45;&gt;Node18 -->
<g id="edge23" class="edge">
<title>Node4&#45;&gt;Node18</title>
<path fill="none" stroke="midnightblue" d="M508,-170.51C565.64,-162.38 666.24,-147.59 752,-132 753.45,-131.74 754.93,-131.46 756.43,-131.18"/>
<polygon fill="midnightblue" stroke="midnightblue" points="757.23,-134.59 766.36,-129.21 755.87,-127.72 757.23,-134.59"/>
</g>
<!-- Node6&#45;&gt;Node7 -->
<g id="edge6" class="edge">
<title>Node6&#45;&gt;Node7</title>
<path fill="none" stroke="midnightblue" d="M586.8,-112.44C556.59,-103.28 508.49,-88.69 474.97,-78.52"/>
<polygon fill="midnightblue" stroke="midnightblue" points="475.66,-75.07 465.07,-75.52 473.63,-81.77 475.66,-75.07"/>
</g>
<!-- Node8 -->
<g id="node8" class="node">
<title>Node8</title>
<g id="a_node8"><a xlink:title=" ">
<polygon fill="white" stroke="#bfbfbf" points="675.5,-56.5 675.5,-75.5 720.5,-75.5 720.5,-56.5 675.5,-56.5"/>
<text text-anchor="middle" x="698" y="-63.5" font-family="Helvetica,sans-Serif" font-size="10.00">utility</text>
</a>
</g>
</g>
<!-- Node6&#45;&gt;Node8 -->
<g id="edge7" class="edge">
<title>Node6&#45;&gt;Node8</title>
<path fill="none" stroke="midnightblue" d="M628.34,-112.32C641.16,-103.98 660.78,-91.21 675.94,-81.35"/>
<polygon fill="midnightblue" stroke="midnightblue" points="678.22,-84.04 684.7,-75.65 674.41,-78.17 678.22,-84.04"/>
</g>
<!-- Node9 -->
<g id="node9" class="node">
<title>Node9</title>
<g id="a_node9"><a xlink:title=" ">
<polygon fill="white" stroke="#bfbfbf" points="485.5,-56.5 485.5,-75.5 554.5,-75.5 554.5,-56.5 485.5,-56.5"/>
<text text-anchor="middle" x="520" y="-63.5" font-family="Helvetica,sans-Serif" font-size="10.00">type_traits</text>
</a>
</g>
</g>
<!-- Node6&#45;&gt;Node9 -->
<g id="edge8" class="edge">
<title>Node6&#45;&gt;Node9</title>
<path fill="none" stroke="midnightblue" d="M599.74,-112.32C584.78,-103.82 561.75,-90.73 544.27,-80.8"/>
<polygon fill="midnightblue" stroke="midnightblue" points="545.65,-77.55 535.23,-75.65 542.19,-83.64 545.65,-77.55"/>
</g>
<!-- Node10 -->
<g id="node10" class="node">
<title>Node10</title>
<g id="a_node10"><a xlink:title=" ">
<polygon fill="white" stroke="#bfbfbf" points="572.5,-56.5 572.5,-75.5 657.5,-75.5 657.5,-56.5 572.5,-56.5"/>
<text text-anchor="middle" x="615" y="-63.5" font-family="Helvetica,sans-Serif" font-size="10.00">itkConfigure.h</text>
</a>
</g>
</g>
<!-- Node6&#45;&gt;Node10 -->
<g id="edge9" class="edge">
<title>Node6&#45;&gt;Node10</title>
<path fill="none" stroke="midnightblue" d="M615,-112.08C615,-105.01 615,-94.86 615,-85.99"/>
<polygon fill="midnightblue" stroke="midnightblue" points="618.5,-85.75 615,-75.75 611.5,-85.75 618.5,-85.75"/>
</g>
<!-- Node11&#45;&gt;Node5 -->
<g id="edge11" class="edge">
<title>Node11&#45;&gt;Node5</title>
<path fill="none" stroke="midnightblue" d="M261.47,-112.39C265.73,-98.88 275.6,-72.53 292,-56 306.22,-41.67 325.96,-30.96 343.04,-23.58"/>
<polygon fill="midnightblue" stroke="midnightblue" points="344.79,-26.65 352.73,-19.63 342.15,-20.17 344.79,-26.65"/>
</g>
<!-- Node12 -->
<g id="node12" class="node">
<title>Node12</title>
<g id="a_node12"><a xlink:href="itkIntTypes_8h.html" target="_top" xlink:title=" ">
<polygon fill="white" stroke="black" points="165.5,-56.5 165.5,-75.5 244.5,-75.5 244.5,-56.5 165.5,-56.5"/>
<text text-anchor="middle" x="205" y="-63.5" font-family="Helvetica,sans-Serif" font-size="10.00">itkIntTypes.h</text>
</a>
</g>
</g>
<!-- Node11&#45;&gt;Node12 -->
<g id="edge12" class="edge">
<title>Node11&#45;&gt;Node12</title>
<path fill="none" stroke="midnightblue" d="M250.08,-112.08C242.22,-104.22 230.57,-92.57 221.08,-83.08"/>
<polygon fill="midnightblue" stroke="midnightblue" points="223.3,-80.35 213.75,-75.75 218.35,-85.3 223.3,-80.35"/>
</g>
<!-- Node11&#45;&gt;Node15 -->
<g id="edge16" class="edge">
<title>Node11&#45;&gt;Node15</title>
<path fill="none" stroke="midnightblue" d="M269.76,-112.32C279.77,-104.26 294.89,-92.08 306.93,-82.37"/>
<polygon fill="midnightblue" stroke="midnightblue" points="309.45,-84.83 315.04,-75.83 305.06,-79.38 309.45,-84.83"/>
</g>
<!-- Node11&#45;&gt;Node16 -->
<g id="edge17" class="edge">
<title>Node11&#45;&gt;Node16</title>
<path fill="none" stroke="midnightblue" d="M232.22,-112.44C203.67,-103.32 158.27,-88.81 126.46,-78.65"/>
<polygon fill="midnightblue" stroke="midnightblue" points="127.24,-75.23 116.65,-75.52 125.11,-81.89 127.24,-75.23"/>
</g>
<!-- Node12&#45;&gt;Node5 -->
<g id="edge13" class="edge">
<title>Node12&#45;&gt;Node5</title>
<path fill="none" stroke="midnightblue" d="M232.57,-56.44C262.1,-47.28 309.12,-32.69 341.88,-22.52"/>
<polygon fill="midnightblue" stroke="midnightblue" points="343.04,-25.82 351.56,-19.52 340.97,-19.14 343.04,-25.82"/>
</g>
<!-- Node13 -->
<g id="node13" class="node">
<title>Node13</title>
<g id="a_node13"><a xlink:title=" ">
<polygon fill="white" stroke="#bfbfbf" points="146,-0.5 146,-19.5 196,-19.5 196,-0.5 146,-0.5"/>
<text text-anchor="middle" x="171" y="-7.5" font-family="Helvetica,sans-Serif" font-size="10.00">cstdint</text>
</a>
</g>
</g>
<!-- Node12&#45;&gt;Node13 -->
<g id="edge14" class="edge">
<title>Node12&#45;&gt;Node13</title>
<path fill="none" stroke="midnightblue" d="M199.39,-56.08C194.63,-48.53 187.68,-37.49 181.85,-28.23"/>
<polygon fill="midnightblue" stroke="midnightblue" points="184.8,-26.35 176.51,-19.75 178.88,-30.08 184.8,-26.35"/>
</g>
<!-- Node14 -->
<g id="node14" class="node">
<title>Node14</title>
<g id="a_node14"><a xlink:title=" ">
<polygon fill="white" stroke="#bfbfbf" points="214,-0.5 214,-19.5 264,-19.5 264,-0.5 214,-0.5"/>
<text text-anchor="middle" x="239" y="-7.5" font-family="Helvetica,sans-Serif" font-size="10.00">climits</text>
</a>
</g>
</g>
<!-- Node12&#45;&gt;Node14 -->
<g id="edge15" class="edge">
<title>Node12&#45;&gt;Node14</title>
<path fill="none" stroke="midnightblue" d="M210.61,-56.08C215.37,-48.53 222.32,-37.49 228.15,-28.23"/>
<polygon fill="midnightblue" stroke="midnightblue" points="231.12,-30.08 233.49,-19.75 225.2,-26.35 231.12,-30.08"/>
</g>
<!-- Node17&#45;&gt;Node5 -->
<g id="edge19" class="edge">
<title>Node17&#45;&gt;Node5</title>
<path fill="none" stroke="midnightblue" d="M396.51,-112.37C393.44,-94.62 386.37,-53.67 382.21,-29.6"/>
<polygon fill="midnightblue" stroke="midnightblue" points="385.64,-28.85 380.48,-19.59 378.74,-30.04 385.64,-28.85"/>
</g>
<!-- Node17&#45;&gt;Node7 -->
<g id="edge20" class="edge">
<title>Node17&#45;&gt;Node7</title>
<path fill="none" stroke="midnightblue" d="M404.44,-112.08C409.95,-104.46 418.03,-93.26 424.76,-83.94"/>
<polygon fill="midnightblue" stroke="midnightblue" points="427.66,-85.91 430.68,-75.75 421.99,-81.81 427.66,-85.91"/>
</g>
<!-- Node19&#45;&gt;Node17 -->
<g id="edge25" class="edge">
<title>Node19&#45;&gt;Node17</title>
<path fill="none" stroke="midnightblue" d="M355.42,-168.08C362.85,-160.22 373.85,-148.57 382.81,-139.08"/>
<polygon fill="midnightblue" stroke="midnightblue" points="385.41,-141.42 389.74,-131.75 380.32,-136.62 385.41,-141.42"/>
</g>
<!-- Node21 -->
<g id="node21" class="node">
<title>Node21</title>
<g id="a_node21"><a xlink:href="itkMetaDataObjectBase_8h.html" target="_top" xlink:title=" ">
<polygon fill="white" stroke="black" points="505,-224.5 505,-243.5 647,-243.5 647,-224.5 505,-224.5"/>
<text text-anchor="middle" x="576" y="-231.5" font-family="Helvetica,sans-Serif" font-size="10.00">itkMetaDataObjectBase.h</text>
</a>
</g>
</g>
<!-- Node20&#45;&gt;Node21 -->
<g id="edge27" class="edge">
<title>Node20&#45;&gt;Node21</title>
<path fill="none" stroke="midnightblue" d="M504.66,-280.32C517.92,-271.9 538.27,-258.97 553.85,-249.07"/>
<polygon fill="midnightblue" stroke="midnightblue" points="555.81,-251.97 562.38,-243.65 552.06,-246.06 555.81,-251.97"/>
</g>
<!-- Node22 -->
<g id="node22" class="node">
<title>Node22</title>
<g id="a_node22"><a xlink:title=" ">
<polygon fill="white" stroke="#bfbfbf" points="423,-224.5 423,-243.5 487,-243.5 487,-224.5 423,-224.5"/>
<text text-anchor="middle" x="455" y="-231.5" font-family="Helvetica,sans-Serif" font-size="10.00">algorithm</text>
</a>
</g>
</g>
<!-- Node20&#45;&gt;Node22 -->
<g id="edge31" class="edge">
<title>Node20&#45;&gt;Node22</title>
<path fill="none" stroke="midnightblue" d="M485.06,-280.08C480.02,-272.53 472.66,-261.49 466.49,-252.23"/>
<polygon fill="midnightblue" stroke="midnightblue" points="469.29,-250.13 460.83,-243.75 463.47,-254.01 469.29,-250.13"/>
</g>
<!-- Node20&#45;&gt;Node23 -->
<g id="edge32" class="edge">
<title>Node20&#45;&gt;Node23</title>
<path fill="none" stroke="midnightblue" d="M539.04,-280.49C582.97,-272.49 649.95,-259.71 717.32,-244.02"/>
<polygon fill="midnightblue" stroke="midnightblue" points="718.32,-247.38 727.26,-241.69 716.72,-240.57 718.32,-247.38"/>
</g>
<!-- Node20&#45;&gt;Node24 -->
<g id="edge33" class="edge">
<title>Node20&#45;&gt;Node24</title>
<path fill="none" stroke="midnightblue" d="M558.79,-281.68C616.28,-274.77 700.99,-262.94 783.09,-243.9"/>
<polygon fill="midnightblue" stroke="midnightblue" points="783.9,-247.3 792.83,-241.6 782.3,-240.49 783.9,-247.3"/>
</g>
<!-- Node20&#45;&gt;Node25 -->
<g id="edge34" class="edge">
<title>Node20&#45;&gt;Node25</title>
<path fill="none" stroke="midnightblue" d="M522.98,-280.44C554.31,-272.03 603.63,-258.67 655.32,-244.16"/>
<polygon fill="midnightblue" stroke="midnightblue" points="656.32,-247.51 665,-241.44 654.42,-240.78 656.32,-247.51"/>
</g>
<!-- Node20&#45;&gt;Node26 -->
<g id="edge35" class="edge">
<title>Node20&#45;&gt;Node26</title>
<path fill="none" stroke="midnightblue" d="M450.44,-280.44C402.1,-270.25 321.9,-253.33 274.18,-243.26"/>
<polygon fill="midnightblue" stroke="midnightblue" points="274.73,-239.8 264.23,-241.16 273.29,-246.65 274.73,-239.8"/>
</g>
<!-- Node21&#45;&gt;Node4 -->
<g id="edge28" class="edge">
<title>Node21&#45;&gt;Node4</title>
<path fill="none" stroke="midnightblue" d="M557.78,-224.44C539.1,-215.68 509.84,-201.94 488.38,-191.86"/>
<polygon fill="midnightblue" stroke="midnightblue" points="489.68,-188.6 479.14,-187.52 486.7,-194.93 489.68,-188.6"/>
</g>
<!-- Node21&#45;&gt;Node7 -->
<g id="edge30" class="edge">
<title>Node21&#45;&gt;Node7</title>
<path fill="none" stroke="midnightblue" d="M568.53,-224.08C546.17,-197.38 479.59,-117.87 450.67,-83.32"/>
<polygon fill="midnightblue" stroke="midnightblue" points="453.28,-80.99 444.17,-75.57 447.91,-85.48 453.28,-80.99"/>
</g>
<!-- Node21&#45;&gt;Node18 -->
<g id="edge29" class="edge">
<title>Node21&#45;&gt;Node18</title>
<path fill="none" stroke="midnightblue" d="M593.18,-224.37C631.32,-205.21 723.26,-159.04 768.69,-136.22"/>
<polygon fill="midnightblue" stroke="midnightblue" points="770.53,-139.21 777.9,-131.59 767.39,-132.95 770.53,-139.21"/>
</g>
<!-- Node29 -->
<g id="node29" class="node">
<title>Node29</title>
<g id="a_node29"><a xlink:href="itkObjectFactoryBase_8h.html" target="_top" xlink:title=" ">
<polygon fill="white" stroke="black" points="334.5,-448.5 334.5,-467.5 463.5,-467.5 463.5,-448.5 334.5,-448.5"/>
<text text-anchor="middle" x="399" y="-455.5" font-family="Helvetica,sans-Serif" font-size="10.00">itkObjectFactoryBase.h</text>
</a>
</g>
</g>
<!-- Node28&#45;&gt;Node29 -->
<g id="edge40" class="edge">
<title>Node28&#45;&gt;Node29</title>
<path fill="none" stroke="midnightblue" d="M410.69,-504.08C408.83,-496.93 406.16,-486.64 403.85,-477.69"/>
<polygon fill="midnightblue" stroke="midnightblue" points="407.17,-476.55 401.27,-467.75 400.39,-478.31 407.17,-476.55"/>
</g>
<!-- Node29&#45;&gt;Node16 -->
<g id="edge43" class="edge">
<title>Node29&#45;&gt;Node16</title>
<path fill="none" stroke="midnightblue" d="M334.39,-453.9C248.93,-448.9 103.68,-436.95 57,-412 23.11,-393.89 0,-385.42 0,-347 0,-347 0,-347 0,-177 0,-134.66 40.44,-99.66 67.1,-81.18"/>
<polygon fill="midnightblue" stroke="midnightblue" points="69.16,-84.02 75.54,-75.56 65.28,-78.19 69.16,-84.02"/>
</g>
<!-- Node29&#45;&gt;Node23 -->
<g id="edge49" class="edge">
<title>Node29&#45;&gt;Node23</title>
<path fill="none" stroke="midnightblue" d="M434.3,-448.44C461.48,-441.02 499.45,-428.81 530,-412 615.32,-365.05 700.94,-284.76 735.3,-250.85"/>
<polygon fill="midnightblue" stroke="midnightblue" points="737.93,-253.17 742.55,-243.63 732.99,-248.21 737.93,-253.17"/>
</g>
<!-- Node29&#45;&gt;Node26 -->
<g id="edge48" class="edge">
<title>Node29&#45;&gt;Node26</title>
<path fill="none" stroke="midnightblue" d="M378.36,-448.46C361.2,-440.67 336.79,-427.97 319,-412 273.48,-371.14 259.45,-357.65 239,-300 233.74,-285.17 233.02,-267.24 233.45,-253.98"/>
<polygon fill="midnightblue" stroke="midnightblue" points="236.96,-253.9 234.05,-243.71 229.97,-253.49 236.96,-253.9"/>
</g>
<!-- Node30 -->
<g id="node30" class="node">
<title>Node30</title>
<g id="a_node30"><a xlink:href="itkCreateObjectFunction_8h.html" target="_top" xlink:title=" ">
<polygon fill="white" stroke="black" points="327.5,-392.5 327.5,-411.5 470.5,-411.5 470.5,-392.5 327.5,-392.5"/>
<text text-anchor="middle" x="399" y="-399.5" font-family="Helvetica,sans-Serif" font-size="10.00">itkCreateObjectFunction.h</text>
</a>
</g>
</g>
<!-- Node29&#45;&gt;Node30 -->
<g id="edge41" class="edge">
<title>Node29&#45;&gt;Node30</title>
<path fill="none" stroke="midnightblue" d="M399,-448.08C399,-441.01 399,-430.86 399,-421.99"/>
<polygon fill="midnightblue" stroke="midnightblue" points="402.5,-421.75 399,-411.75 395.5,-421.75 402.5,-421.75"/>
</g>
<!-- Node31 -->
<g id="node31" class="node">
<title>Node31</title>
<g id="a_node31"><a xlink:href="itkCommonEnums_8h.html" target="_top" xlink:title=" ">
<polygon fill="white" stroke="black" points="66,-392.5 66,-411.5 182,-411.5 182,-392.5 66,-392.5"/>
<text text-anchor="middle" x="124" y="-399.5" font-family="Helvetica,sans-Serif" font-size="10.00">itkCommonEnums.h</text>
</a>
</g>
</g>
<!-- Node29&#45;&gt;Node31 -->
<g id="edge44" class="edge">
<title>Node29&#45;&gt;Node31</title>
<path fill="none" stroke="midnightblue" d="M355.43,-448.44C307.15,-438.96 229.29,-423.67 177.39,-413.48"/>
<polygon fill="midnightblue" stroke="midnightblue" points="177.86,-410.01 167.37,-411.52 176.51,-416.88 177.86,-410.01"/>
</g>
<!-- Node29&#45;&gt;Node33 -->
<g id="edge47" class="edge">
<title>Node29&#45;&gt;Node33</title>
<path fill="none" stroke="midnightblue" d="M416.03,-448.32C433.23,-439.56 460,-425.92 479.69,-415.9"/>
<polygon fill="midnightblue" stroke="midnightblue" points="481.39,-418.96 488.71,-411.3 478.21,-412.72 481.39,-418.96"/>
</g>
<!-- Node30&#45;&gt;Node3 -->
<g id="edge42" class="edge">
<title>Node30&#45;&gt;Node3</title>
<path fill="none" stroke="midnightblue" d="M392.06,-392.08C386.07,-384.38 377.25,-373.03 369.95,-363.65"/>
<polygon fill="midnightblue" stroke="midnightblue" points="372.71,-361.5 363.81,-355.75 367.18,-365.79 372.71,-361.5"/>
</g>
<!-- Node31&#45;&gt;Node12 -->
<g id="edge45" class="edge">
<title>Node31&#45;&gt;Node12</title>
<path fill="none" stroke="midnightblue" d="M123.61,-392.44C122.79,-373.94 121,-328.83 121,-291 121,-291 121,-291 121,-233 121,-172.41 166.11,-111.48 190.21,-83.24"/>
<polygon fill="midnightblue" stroke="midnightblue" points="192.98,-85.39 196.95,-75.57 187.72,-80.78 192.98,-85.39"/>
</g>
<!-- Node31&#45;&gt;Node32 -->
<g id="edge46" class="edge">
<title>Node31&#45;&gt;Node32</title>
<path fill="none" stroke="midnightblue" d="M114.04,-392.32C104.87,-384.34 91.06,-372.31 79.97,-362.65"/>
<polygon fill="midnightblue" stroke="midnightblue" points="81.98,-359.76 72.14,-355.83 77.38,-365.04 81.98,-359.76"/>
</g>
<!-- Node35&#45;&gt;Node2 -->
<g id="edge56" class="edge">
<title>Node35&#45;&gt;Node2</title>
<path fill="none" stroke="midnightblue" d="M697.13,-523.75C698.66,-530.86 699.1,-541.14 698.47,-550.1"/>
<polygon fill="midnightblue" stroke="midnightblue" points="694.99,-549.71 697.17,-560.08 701.93,-550.62 694.99,-549.71"/>
</g>
<!-- Node35&#45;&gt;Node25 -->
<g id="edge57" class="edge">
<title>Node35&#45;&gt;Node25</title>
<path fill="none" stroke="midnightblue" d="M691.74,-504.44C691.2,-485.94 690,-440.82 690,-403 690,-403 690,-403 690,-345 690,-312.94 688.71,-275.63 687.82,-253.74"/>
<polygon fill="midnightblue" stroke="midnightblue" points="691.31,-253.4 687.39,-243.56 684.32,-253.69 691.31,-253.4"/>
</g>
<!-- Node36&#45;&gt;Node23 -->
<g id="edge59" class="edge">
<title>Node36&#45;&gt;Node23</title>
<path fill="none" stroke="midnightblue" d="M957.09,-280.45C914.82,-272.38 850.16,-259.53 784.81,-244.07"/>
<polygon fill="midnightblue" stroke="midnightblue" points="785.29,-240.59 774.75,-241.67 783.66,-247.4 785.29,-240.59"/>
</g>
<!-- Node36&#45;&gt;Node24 -->
<g id="edge60" class="edge">
<title>Node36&#45;&gt;Node24</title>
<path fill="none" stroke="midnightblue" d="M971.26,-280.48C938.54,-271.64 886.09,-257.26 841,-244 840.9,-243.97 840.8,-243.94 840.7,-243.91"/>
<polygon fill="midnightblue" stroke="midnightblue" points="841.59,-240.52 831.01,-240.99 839.57,-247.23 841.59,-240.52"/>
</g>
<!-- Node36&#45;&gt;Node34 -->
<g id="edge66" class="edge">
<title>Node36&#45;&gt;Node34</title>
<path fill="none" stroke="midnightblue" d="M1038.97,-280.44C1078.32,-271.08 1141.49,-256.06 1184.31,-245.87"/>
<polygon fill="midnightblue" stroke="midnightblue" points="1185.28,-249.24 1194.2,-243.52 1183.66,-242.43 1185.28,-249.24"/>
</g>
<!-- Node37 -->
<g id="node37" class="node">
<title>Node37</title>
<g id="a_node37"><a xlink:href="itkArray_8h.html" target="_top" xlink:title=" ">
<polygon fill="white" stroke="black" points="974.5,-224.5 974.5,-243.5 1037.5,-243.5 1037.5,-224.5 974.5,-224.5"/>
<text text-anchor="middle" x="1006" y="-231.5" font-family="Helvetica,sans-Serif" font-size="10.00">itkArray.h</text>
</a>
</g>
</g>
<!-- Node36&#45;&gt;Node37 -->
<g id="edge61" class="edge">
<title>Node36&#45;&gt;Node37</title>
<path fill="none" stroke="midnightblue" d="M1003.5,-280.08C1003.89,-273.01 1004.45,-262.86 1004.95,-253.99"/>
<polygon fill="midnightblue" stroke="midnightblue" points="1008.45,-253.93 1005.51,-243.75 1001.46,-253.54 1008.45,-253.93"/>
</g>
<!-- Node41 -->
<g id="node41" class="node">
<title>Node41</title>
<g id="a_node41"><a xlink:title=" ">
<polygon fill="white" stroke="#bfbfbf" points="1056,-224.5 1056,-243.5 1160,-243.5 1160,-224.5 1056,-224.5"/>
<text text-anchor="middle" x="1108" y="-231.5" font-family="Helvetica,sans-Serif" font-size="10.00">itkStringTools.hxx</text>
</a>
</g>
</g>
<!-- Node36&#45;&gt;Node41 -->
<g id="edge67" class="edge">
<title>Node36&#45;&gt;Node41</title>
<path fill="none" stroke="midnightblue" d="M1019.87,-280.32C1036.71,-271.66 1062.81,-258.24 1082.24,-248.25"/>
<polygon fill="midnightblue" stroke="midnightblue" points="1083.88,-251.34 1091.17,-243.65 1080.68,-245.12 1083.88,-251.34"/>
</g>
<!-- Node37&#45;&gt;Node5 -->
<g id="edge62" class="edge">
<title>Node37&#45;&gt;Node5</title>
<path fill="none" stroke="midnightblue" d="M974.31,-225.31C939.83,-216.44 887.54,-201.36 872,-188 843.22,-163.24 858.2,-140.4 833,-112 803.47,-78.71 791.69,-71.56 750,-56 690.99,-33.98 508.09,-19.48 423.17,-13.76"/>
<polygon fill="midnightblue" stroke="midnightblue" points="423.28,-10.25 413.07,-13.08 422.81,-17.24 423.28,-10.25"/>
</g>
<!-- Node38 -->
<g id="node38" class="node">
<title>Node38</title>
<g id="a_node38"><a xlink:title=" ">
<polygon fill="white" stroke="#bfbfbf" points="974,-168.5 974,-187.5 1056,-187.5 1056,-168.5 974,-168.5"/>
<text text-anchor="middle" x="1015" y="-175.5" font-family="Helvetica,sans-Serif" font-size="10.00">vxl_version.h</text>
</a>
</g>
</g>
<!-- Node37&#45;&gt;Node38 -->
<g id="edge63" class="edge">
<title>Node37&#45;&gt;Node38</title>
<path fill="none" stroke="midnightblue" d="M1007.49,-224.08C1008.68,-216.93 1010.39,-206.64 1011.88,-197.69"/>
<polygon fill="midnightblue" stroke="midnightblue" points="1015.35,-198.19 1013.54,-187.75 1008.45,-197.04 1015.35,-198.19"/>
</g>
<!-- Node39 -->
<g id="node39" class="node">
<title>Node39</title>
<g id="a_node39"><a xlink:title=" ">
<polygon fill="white" stroke="#bfbfbf" points="1074,-168.5 1074,-187.5 1168,-187.5 1168,-168.5 1074,-168.5"/>
<text text-anchor="middle" x="1121" y="-175.5" font-family="Helvetica,sans-Serif" font-size="10.00">vnl/vnl_vector.h</text>
</a>
</g>
</g>
<!-- Node37&#45;&gt;Node39 -->
<g id="edge64" class="edge">
<title>Node37&#45;&gt;Node39</title>
<path fill="none" stroke="midnightblue" d="M1024.22,-224.44C1042.9,-215.68 1072.16,-201.94 1093.62,-191.86"/>
<polygon fill="midnightblue" stroke="midnightblue" points="1095.3,-194.93 1102.86,-187.52 1092.32,-188.6 1095.3,-194.93"/>
</g>
<!-- Node40 -->
<g id="node40" class="node">
<title>Node40</title>
<g id="a_node40"><a xlink:title=" ">
<polygon fill="white" stroke="#bfbfbf" points="880.5,-168.5 880.5,-187.5 955.5,-187.5 955.5,-168.5 880.5,-168.5"/>
<text text-anchor="middle" x="918" y="-175.5" font-family="Helvetica,sans-Serif" font-size="10.00">itkArray.hxx</text>
</a>
</g>
</g>
<!-- Node37&#45;&gt;Node40 -->
<g id="edge65" class="edge">
<title>Node37&#45;&gt;Node40</title>
<path fill="none" stroke="midnightblue" d="M991.86,-224.32C978.13,-215.9 957.06,-202.97 940.94,-193.07"/>
<polygon fill="midnightblue" stroke="midnightblue" points="942.46,-189.9 932.1,-187.65 938.8,-195.87 942.46,-189.9"/>
</g>
<!-- Node42&#45;&gt;Node23 -->
<g id="edge70" class="edge">
<title>Node42&#45;&gt;Node23</title>
<path fill="none" stroke="midnightblue" d="M866.29,-280.44C843.65,-271.52 807.93,-257.44 782.25,-247.32"/>
<polygon fill="midnightblue" stroke="midnightblue" points="783.19,-243.93 772.61,-243.52 780.63,-250.44 783.19,-243.93"/>
</g>
<!-- Node42&#45;&gt;Node24 -->
<g id="edge71" class="edge">
<title>Node42&#45;&gt;Node24</title>
<path fill="none" stroke="midnightblue" d="M875.79,-280.32C864.22,-272.11 846.62,-259.6 832.84,-249.81"/>
<polygon fill="midnightblue" stroke="midnightblue" points="834.61,-246.77 824.43,-243.83 830.56,-252.48 834.61,-246.77"/>
</g>
<!-- Node42&#45;&gt;Node25 -->
<g id="edge69" class="edge">
<title>Node42&#45;&gt;Node25</title>
<path fill="none" stroke="midnightblue" d="M855.25,-280.42C821.18,-271.47 766.3,-256.95 719,-244 718.9,-243.97 718.8,-243.94 718.7,-243.92"/>
<polygon fill="midnightblue" stroke="midnightblue" points="719.59,-240.53 709.02,-241.24 717.73,-247.28 719.59,-240.53"/>
</g>
<!-- Node42&#45;&gt;Node34 -->
<g id="edge73" class="edge">
<title>Node42&#45;&gt;Node34</title>
<path fill="none" stroke="midnightblue" d="M935.55,-281.49C996.13,-271.93 1100.97,-255.37 1167.83,-244.82"/>
<polygon fill="midnightblue" stroke="midnightblue" points="1168.48,-248.26 1177.81,-243.24 1167.39,-241.34 1168.48,-248.26"/>
</g>
<!-- Node42&#45;&gt;Node37 -->
<g id="edge72" class="edge">
<title>Node42&#45;&gt;Node37</title>
<path fill="none" stroke="midnightblue" d="M906.7,-280.44C925.94,-271.64 956.15,-257.81 978.2,-247.72"/>
<polygon fill="midnightblue" stroke="midnightblue" points="979.75,-250.86 987.39,-243.52 976.84,-244.5 979.75,-250.86"/>
</g>
<!-- Node43 -->
<g id="node43" class="node">
<title>Node43</title>
<g id="a_node43"><a xlink:title=" ">
<polygon fill="white" stroke="#bfbfbf" points="849.5,-224.5 849.5,-243.5 956.5,-243.5 956.5,-224.5 849.5,-224.5"/>
<text text-anchor="middle" x="903" y="-231.5" font-family="Helvetica,sans-Serif" font-size="10.00">itkFancyString.hxx</text>
</a>
</g>
</g>
<!-- Node42&#45;&gt;Node43 -->
<g id="edge74" class="edge">
<title>Node42&#45;&gt;Node43</title>
<path fill="none" stroke="midnightblue" d="M890.48,-280.08C892.49,-272.85 895.39,-262.41 897.89,-253.4"/>
<polygon fill="midnightblue" stroke="midnightblue" points="901.26,-254.32 900.57,-243.75 894.52,-252.45 901.26,-254.32"/>
</g>
</g>
</svg>
