<?xml version="1.0" encoding="UTF-8" standalone="no"?>
<!DOCTYPE svg PUBLIC "-//W3C//DTD SVG 1.1//EN"
 "http://www.w3.org/Graphics/SVG/1.1/DTD/svg11.dtd">
<!-- Generated by graphviz version 2.43.0 (0)
 -->
<!-- Title: itkFixedArray.h Pages: 1 -->
<svg width="451pt" height="207pt"
 viewBox="0.00 0.00 451.46 207.00" xmlns="http://www.w3.org/2000/svg" xmlns:xlink="http://www.w3.org/1999/xlink">
<g id="graph0" class="graph" transform="scale(1 1) rotate(0) translate(4 203)">
<title>itkFixedArray.h</title>
<polygon fill="white" stroke="transparent" points="-4,4 -4,-203 447.46,-203 447.46,4 -4,4"/>
<!-- Node1 -->
<g id="node1" class="node">
<title>Node1</title>
<g id="a_node1"><a xlink:title=" ">
<polygon fill="#bfbfbf" stroke="black" points="166.94,-179.5 166.94,-198.5 255.94,-198.5 255.94,-179.5 166.94,-179.5"/>
<text text-anchor="middle" x="211.44" y="-186.5" font-family="Helvetica,sans-Serif" font-size="10.00">itkFixedArray.h</text>
</a>
</g>
</g>
<!-- Node2 -->
<g id="node2" class="node">
<title>Node2</title>
<g id="a_node2"><a xlink:href="itkMacro_8h.html" target="_top" xlink:title=" ">
<polygon fill="white" stroke="black" points="84.44,-0.5 84.44,-19.5 152.44,-19.5 152.44,-0.5 84.44,-0.5"/>
<text text-anchor="middle" x="118.44" y="-7.5" font-family="Helvetica,sans-Serif" font-size="10.00">itkMacro.h</text>
</a>
</g>
</g>
<!-- Node1&#45;&gt;Node2 -->
<g id="edge1" class="edge">
<title>Node1&#45;&gt;Node2</title>
<path fill="none" stroke="midnightblue" d="M166.71,-184.43C113.31,-179.13 28.77,-167.11 9.44,-143 -25.65,-99.24 50.24,-48.26 92.54,-24.49"/>
<polygon fill="midnightblue" stroke="midnightblue" points="94.42,-27.45 101.5,-19.58 91.05,-21.32 94.42,-27.45"/>
</g>
<!-- Node3 -->
<g id="node3" class="node">
<title>Node3</title>
<g id="a_node3"><a xlink:title=" ">
<polygon fill="white" stroke="#bfbfbf" points="18.44,-118 18.44,-137 82.44,-137 82.44,-118 18.44,-118"/>
<text text-anchor="middle" x="50.44" y="-125" font-family="Helvetica,sans-Serif" font-size="10.00">algorithm</text>
</a>
</g>
</g>
<!-- Node1&#45;&gt;Node3 -->
<g id="edge2" class="edge">
<title>Node1&#45;&gt;Node3</title>
<path fill="none" stroke="midnightblue" d="M188.37,-179.48C160.75,-169.27 114.32,-152.11 83.04,-140.55"/>
<polygon fill="midnightblue" stroke="midnightblue" points="84.06,-137.19 73.46,-137.01 81.63,-143.76 84.06,-137.19"/>
</g>
<!-- Node4 -->
<g id="node4" class="node">
<title>Node4</title>
<g id="a_node4"><a xlink:title=" ">
<polygon fill="white" stroke="#bfbfbf" points="100.44,-118 100.44,-137 142.44,-137 142.44,-118 100.44,-118"/>
<text text-anchor="middle" x="121.44" y="-125" font-family="Helvetica,sans-Serif" font-size="10.00">array</text>
</a>
</g>
</g>
<!-- Node1&#45;&gt;Node4 -->
<g id="edge3" class="edge">
<title>Node1&#45;&gt;Node4</title>
<path fill="none" stroke="midnightblue" d="M198.54,-179.48C183.97,-169.84 160.04,-154.02 142.69,-142.55"/>
<polygon fill="midnightblue" stroke="midnightblue" points="144.58,-139.6 134.31,-137.01 140.72,-145.44 144.58,-139.6"/>
</g>
<!-- Node5 -->
<g id="node5" class="node">
<title>Node5</title>
<g id="a_node5"><a xlink:title=" ">
<polygon fill="white" stroke="#bfbfbf" points="160.94,-118 160.94,-137 261.94,-137 261.94,-118 160.94,-118"/>
<text text-anchor="middle" x="211.44" y="-125" font-family="Helvetica,sans-Serif" font-size="10.00">itkFixedArray.hxx</text>
</a>
</g>
</g>
<!-- Node1&#45;&gt;Node5 -->
<g id="edge4" class="edge">
<title>Node1&#45;&gt;Node5</title>
<path fill="none" stroke="midnightblue" d="M211.44,-179.48C211.44,-171.08 211.44,-157.98 211.44,-147.16"/>
<polygon fill="midnightblue" stroke="midnightblue" points="214.94,-147.01 211.44,-137.01 207.94,-147.01 214.94,-147.01"/>
</g>
<!-- Node6 -->
<g id="node6" class="node">
<title>Node6</title>
<g id="a_node6"><a xlink:href="itkNumericTraitsFixedArrayPixel_8h.html" target="_top" xlink:title=" ">
<polygon fill="white" stroke="black" points="279.94,-112.5 279.94,-142.5 428.94,-142.5 428.94,-112.5 279.94,-112.5"/>
<text text-anchor="start" x="287.94" y="-130.5" font-family="Helvetica,sans-Serif" font-size="10.00">itkNumericTraitsFixedArray</text>
<text text-anchor="middle" x="354.44" y="-119.5" font-family="Helvetica,sans-Serif" font-size="10.00">Pixel.h</text>
</a>
</g>
</g>
<!-- Node1&#45;&gt;Node6 -->
<g id="edge5" class="edge">
<title>Node1&#45;&gt;Node6</title>
<path fill="none" stroke="midnightblue" d="M227.03,-179.48C245.87,-170.85 278.08,-157.26 305.45,-146.29"/>
<polygon fill="midnightblue" stroke="midnightblue" points="306.91,-149.47 314.91,-142.52 304.32,-142.97 306.91,-149.47"/>
</g>
<!-- Node6&#45;&gt;Node1 -->
<g id="edge11" class="edge">
<title>Node6&#45;&gt;Node1</title>
<path fill="none" stroke="midnightblue" d="M326.57,-142.52C303.54,-152.65 270.93,-166.18 246.21,-175.85"/>
<polygon fill="midnightblue" stroke="midnightblue" points="244.89,-172.6 236.83,-179.48 247.42,-179.13 244.89,-172.6"/>
</g>
<!-- Node7 -->
<g id="node7" class="node">
<title>Node7</title>
<g id="a_node7"><a xlink:href="itkNumericTraits_8h.html" target="_top" xlink:title=" ">
<polygon fill="white" stroke="black" points="301.44,-56.5 301.44,-75.5 407.44,-75.5 407.44,-56.5 301.44,-56.5"/>
<text text-anchor="middle" x="354.44" y="-63.5" font-family="Helvetica,sans-Serif" font-size="10.00">itkNumericTraits.h</text>
</a>
</g>
</g>
<!-- Node6&#45;&gt;Node7 -->
<g id="edge6" class="edge">
<title>Node6&#45;&gt;Node7</title>
<path fill="none" stroke="midnightblue" d="M354.44,-112.4C354.44,-104.47 354.44,-94.46 354.44,-85.86"/>
<polygon fill="midnightblue" stroke="midnightblue" points="357.94,-85.66 354.44,-75.66 350.94,-85.66 357.94,-85.66"/>
</g>
<!-- Node7&#45;&gt;Node1 -->
<g id="edge10" class="edge">
<title>Node7&#45;&gt;Node1</title>
<path fill="none" stroke="midnightblue" d="M386.62,-75.51C404.98,-82.2 426.45,-93.55 437.44,-112 444.49,-123.84 446.18,-132.35 437.44,-143 416.18,-168.91 325.93,-180.18 266.11,-184.88"/>
<polygon fill="midnightblue" stroke="midnightblue" points="265.77,-181.39 256.05,-185.63 266.29,-188.37 265.77,-181.39"/>
</g>
<!-- Node7&#45;&gt;Node2 -->
<g id="edge7" class="edge">
<title>Node7&#45;&gt;Node2</title>
<path fill="none" stroke="midnightblue" d="M317.04,-56.44C275.08,-46.84 207.07,-31.28 162.55,-21.09"/>
<polygon fill="midnightblue" stroke="midnightblue" points="163.12,-17.63 152.59,-18.82 161.56,-24.46 163.12,-17.63"/>
</g>
<!-- Node8 -->
<g id="node8" class="node">
<title>Node8</title>
<g id="a_node8"><a xlink:title=" ">
<polygon fill="white" stroke="#bfbfbf" points="297.44,-0.5 297.44,-19.5 341.44,-19.5 341.44,-0.5 297.44,-0.5"/>
<text text-anchor="middle" x="319.44" y="-7.5" font-family="Helvetica,sans-Serif" font-size="10.00">limits</text>
</a>
</g>
</g>
<!-- Node7&#45;&gt;Node8 -->
<g id="edge8" class="edge">
<title>Node7&#45;&gt;Node8</title>
<path fill="none" stroke="midnightblue" d="M348.66,-56.08C343.77,-48.53 336.61,-37.49 330.61,-28.23"/>
<polygon fill="midnightblue" stroke="midnightblue" points="333.49,-26.24 325.11,-19.75 327.61,-30.05 333.49,-26.24"/>
</g>
<!-- Node9 -->
<g id="node9" class="node">
<title>Node9</title>
<g id="a_node9"><a xlink:title=" ">
<polygon fill="white" stroke="#bfbfbf" points="359.94,-0.5 359.94,-19.5 418.94,-19.5 418.94,-0.5 359.94,-0.5"/>
<text text-anchor="middle" x="389.44" y="-7.5" font-family="Helvetica,sans-Serif" font-size="10.00">complex</text>
</a>
</g>
</g>
<!-- Node7&#45;&gt;Node9 -->
<g id="edge9" class="edge">
<title>Node7&#45;&gt;Node9</title>
<path fill="none" stroke="midnightblue" d="M360.22,-56.08C365.11,-48.53 372.27,-37.49 378.27,-28.23"/>
<polygon fill="midnightblue" stroke="midnightblue" points="381.26,-30.05 383.77,-19.75 375.39,-26.24 381.26,-30.05"/>
</g>
</g>
</svg>
