<?xml version="1.0" encoding="UTF-8" standalone="no"?>
<!DOCTYPE svg PUBLIC "-//W3C//DTD SVG 1.1//EN"
 "http://www.w3.org/Graphics/SVG/1.1/DTD/svg11.dtd">
<!-- Generated by graphviz version 2.43.0 (0)
 -->
<!-- Title: itkFFTImageFilterFactory.h Pages: 1 -->
<svg width="2988pt" height="162pt"
 viewBox="0.00 0.00 2988.00 162.00" xmlns="http://www.w3.org/2000/svg" xmlns:xlink="http://www.w3.org/1999/xlink">
<g id="graph0" class="graph" transform="scale(1 1) rotate(0) translate(4 158)">
<title>itkFFTImageFilterFactory.h</title>
<polygon fill="white" stroke="transparent" points="-4,4 -4,-158 2984,-158 2984,4 -4,4"/>
<!-- Node1 -->
<g id="node1" class="node">
<title>Node1</title>
<g id="a_node1"><a xlink:title=" ">
<polygon fill="#bfbfbf" stroke="black" points="1413.5,-134.5 1413.5,-153.5 1558.5,-153.5 1558.5,-134.5 1413.5,-134.5"/>
<text text-anchor="middle" x="1486" y="-141.5" font-family="Helvetica,sans-Serif" font-size="10.00">itkFFTImageFilterFactory.h</text>
</a>
</g>
</g>
<!-- Node2 -->
<g id="node2" class="node">
<title>Node2</title>
<g id="a_node2"><a xlink:href="itkFFTWComplexToComplex1DFFTImageFilter_8h.html" target="_top" xlink:title=" ">
<polygon fill="white" stroke="black" points="0,-67.5 0,-97.5 160,-97.5 160,-67.5 0,-67.5"/>
<text text-anchor="start" x="8" y="-85.5" font-family="Helvetica,sans-Serif" font-size="10.00">itkFFTWComplexToComplex1</text>
<text text-anchor="middle" x="80" y="-74.5" font-family="Helvetica,sans-Serif" font-size="10.00">DFFTImageFilter.h</text>
</a>
</g>
</g>
<!-- Node1&#45;&gt;Node2 -->
<g id="edge1" class="edge">
<title>Node1&#45;&gt;Node2</title>
<path fill="none" stroke="midnightblue" d="M1403.39,-141.56C1153.84,-136.98 410.13,-121.67 169,-98 166.2,-97.72 163.35,-97.42 160.47,-97.08"/>
<polygon fill="midnightblue" stroke="midnightblue" points="1403.42,-145.06 1413.48,-141.74 1403.55,-138.06 1403.42,-145.06"/>
</g>
<!-- Node3 -->
<g id="node3" class="node">
<title>Node3</title>
<g id="a_node3"><a xlink:href="itkFFTWComplexToComplexFFTImageFilter_8h.html" target="_top" xlink:title=" ">
<polygon fill="white" stroke="black" points="178,-67.5 178,-97.5 380,-97.5 380,-67.5 178,-67.5"/>
<text text-anchor="start" x="186" y="-85.5" font-family="Helvetica,sans-Serif" font-size="10.00">itkFFTWComplexToComplexFFTImage</text>
<text text-anchor="middle" x="279" y="-74.5" font-family="Helvetica,sans-Serif" font-size="10.00">Filter.h</text>
</a>
</g>
</g>
<!-- Node1&#45;&gt;Node3 -->
<g id="edge2" class="edge">
<title>Node1&#45;&gt;Node3</title>
<path fill="none" stroke="midnightblue" d="M1403.32,-142.11C1220.36,-139.6 767.57,-130.35 390,-98 386.81,-97.73 383.56,-97.43 380.29,-97.11"/>
<polygon fill="midnightblue" stroke="midnightblue" points="1403.35,-145.61 1413.4,-142.25 1403.45,-138.61 1403.35,-145.61"/>
</g>
<!-- Node4 -->
<g id="node4" class="node">
<title>Node4</title>
<g id="a_node4"><a xlink:href="itkFFTWForward1DFFTImageFilter_8h.html" target="_top" xlink:title=" ">
<polygon fill="white" stroke="black" points="398.5,-67.5 398.5,-97.5 555.5,-97.5 555.5,-67.5 398.5,-67.5"/>
<text text-anchor="start" x="406.5" y="-85.5" font-family="Helvetica,sans-Serif" font-size="10.00">itkFFTWForward1DFFTImage</text>
<text text-anchor="middle" x="477" y="-74.5" font-family="Helvetica,sans-Serif" font-size="10.00">Filter.h</text>
</a>
</g>
</g>
<!-- Node1&#45;&gt;Node4 -->
<g id="edge3" class="edge">
<title>Node1&#45;&gt;Node4</title>
<path fill="none" stroke="midnightblue" d="M1402.89,-142.12C1241.13,-139.71 872.83,-130.77 565,-98 561.92,-97.67 558.79,-97.31 555.62,-96.91"/>
<polygon fill="midnightblue" stroke="midnightblue" points="1403.2,-145.63 1413.25,-142.27 1403.3,-138.63 1403.2,-145.63"/>
</g>
<!-- Node5 -->
<g id="node5" class="node">
<title>Node5</title>
<g id="a_node5"><a xlink:href="itkFFTWForwardFFTImageFilter_8h.html" target="_top" xlink:title=" ">
<polygon fill="white" stroke="black" points="574,-73 574,-92 750,-92 750,-73 574,-73"/>
<text text-anchor="middle" x="662" y="-80" font-family="Helvetica,sans-Serif" font-size="10.00">itkFFTWForwardFFTImageFilter.h</text>
</a>
</g>
</g>
<!-- Node1&#45;&gt;Node5 -->
<g id="edge4" class="edge">
<title>Node1&#45;&gt;Node5</title>
<path fill="none" stroke="midnightblue" d="M1403.06,-140.2C1267.87,-135.12 991.72,-122.55 759,-98 744.1,-96.43 727.98,-94.22 713.24,-92.01"/>
<polygon fill="midnightblue" stroke="midnightblue" points="1403.21,-143.71 1413.34,-140.59 1403.47,-136.72 1403.21,-143.71"/>
</g>
<!-- Node6 -->
<g id="node6" class="node">
<title>Node6</title>
<g id="a_node6"><a xlink:href="itkFFTWHalfHermitianToRealInverseFFTImageFilter_8h.html" target="_top" xlink:title=" ">
<polygon fill="white" stroke="black" points="768,-67.5 768,-97.5 926,-97.5 926,-67.5 768,-67.5"/>
<text text-anchor="start" x="776" y="-85.5" font-family="Helvetica,sans-Serif" font-size="10.00">itkFFTWHalfHermitianToReal</text>
<text text-anchor="middle" x="847" y="-74.5" font-family="Helvetica,sans-Serif" font-size="10.00">InverseFFTImageFilter.h</text>
</a>
</g>
</g>
<!-- Node1&#45;&gt;Node6 -->
<g id="edge5" class="edge">
<title>Node1&#45;&gt;Node6</title>
<path fill="none" stroke="midnightblue" d="M1402.98,-138.34C1294.95,-131.8 1100.42,-118.35 935,-98 932.08,-97.64 929.11,-97.26 926.11,-96.85"/>
<polygon fill="midnightblue" stroke="midnightblue" points="1402.97,-141.85 1413.16,-138.95 1403.39,-134.86 1402.97,-141.85"/>
</g>
<!-- Node7 -->
<g id="node7" class="node">
<title>Node7</title>
<g id="a_node7"><a xlink:href="itkFFTWInverse1DFFTImageFilter_8h.html" target="_top" xlink:title=" ">
<polygon fill="white" stroke="black" points="944,-67.5 944,-97.5 1098,-97.5 1098,-67.5 944,-67.5"/>
<text text-anchor="start" x="952" y="-85.5" font-family="Helvetica,sans-Serif" font-size="10.00">itkFFTWInverse1DFFTImage</text>
<text text-anchor="middle" x="1021" y="-74.5" font-family="Helvetica,sans-Serif" font-size="10.00">Filter.h</text>
</a>
</g>
</g>
<!-- Node1&#45;&gt;Node7 -->
<g id="edge6" class="edge">
<title>Node1&#45;&gt;Node7</title>
<path fill="none" stroke="midnightblue" d="M1403.33,-134.28C1326.65,-125.93 1209.43,-112.48 1108,-98 1104.82,-97.55 1101.57,-97.07 1098.29,-96.57"/>
<polygon fill="midnightblue" stroke="midnightblue" points="1403.08,-137.78 1413.4,-135.37 1403.84,-130.82 1403.08,-137.78"/>
</g>
<!-- Node8 -->
<g id="node8" class="node">
<title>Node8</title>
<g id="a_node8"><a xlink:href="itkFFTWInverseFFTImageFilter_8h.html" target="_top" xlink:title=" ">
<polygon fill="white" stroke="black" points="1116.5,-73 1116.5,-92 1289.5,-92 1289.5,-73 1116.5,-73"/>
<text text-anchor="middle" x="1203" y="-80" font-family="Helvetica,sans-Serif" font-size="10.00">itkFFTWInverseFFTImageFilter.h</text>
</a>
</g>
</g>
<!-- Node1&#45;&gt;Node8 -->
<g id="edge7" class="edge">
<title>Node1&#45;&gt;Node8</title>
<path fill="none" stroke="midnightblue" d="M1435.59,-132.4C1380.73,-120.87 1294.08,-102.65 1243.47,-92.01"/>
<polygon fill="midnightblue" stroke="midnightblue" points="1434.95,-135.84 1445.45,-134.48 1436.39,-128.99 1434.95,-135.84"/>
</g>
<!-- Node9 -->
<g id="node9" class="node">
<title>Node9</title>
<g id="a_node9"><a xlink:href="itkFFTWRealToHalfHermitianForwardFFTImageFilter_8h.html" target="_top" xlink:title=" ">
<polygon fill="white" stroke="black" points="1308,-67.5 1308,-97.5 1466,-97.5 1466,-67.5 1308,-67.5"/>
<text text-anchor="start" x="1316" y="-85.5" font-family="Helvetica,sans-Serif" font-size="10.00">itkFFTWRealToHalfHermitian</text>
<text text-anchor="middle" x="1387" y="-74.5" font-family="Helvetica,sans-Serif" font-size="10.00">ForwardFFTImageFilter.h</text>
</a>
</g>
</g>
<!-- Node1&#45;&gt;Node9 -->
<g id="edge8" class="edge">
<title>Node1&#45;&gt;Node9</title>
<path fill="none" stroke="midnightblue" d="M1463.17,-129.28C1447.32,-119.75 1426.28,-107.11 1410.33,-97.52"/>
<polygon fill="midnightblue" stroke="midnightblue" points="1461.44,-132.32 1471.82,-134.48 1465.05,-126.32 1461.44,-132.32"/>
</g>
<!-- Node10 -->
<g id="node10" class="node">
<title>Node10</title>
<g id="a_node10"><a xlink:href="itkVnlComplexToComplex1DFFTImageFilter_8h.html" target="_top" xlink:title=" ">
<polygon fill="white" stroke="black" points="1484,-67.5 1484,-97.5 1688,-97.5 1688,-67.5 1484,-67.5"/>
<text text-anchor="start" x="1492" y="-85.5" font-family="Helvetica,sans-Serif" font-size="10.00">itkVnlComplexToComplex1DFFTImage</text>
<text text-anchor="middle" x="1586" y="-74.5" font-family="Helvetica,sans-Serif" font-size="10.00">Filter.h</text>
</a>
</g>
</g>
<!-- Node1&#45;&gt;Node10 -->
<g id="edge9" class="edge">
<title>Node1&#45;&gt;Node10</title>
<path fill="none" stroke="midnightblue" d="M1509.07,-129.28C1525.07,-119.75 1546.32,-107.11 1562.43,-97.52"/>
<polygon fill="midnightblue" stroke="midnightblue" points="1507.13,-126.35 1500.33,-134.48 1510.71,-132.37 1507.13,-126.35"/>
</g>
<!-- Node11 -->
<g id="node11" class="node">
<title>Node11</title>
<g id="a_node11"><a xlink:href="itkVnlComplexToComplexFFTImageFilter_8h.html" target="_top" xlink:title=" ">
<polygon fill="white" stroke="black" points="1706.5,-67.5 1706.5,-97.5 1897.5,-97.5 1897.5,-67.5 1706.5,-67.5"/>
<text text-anchor="start" x="1714.5" y="-85.5" font-family="Helvetica,sans-Serif" font-size="10.00">itkVnlComplexToComplexFFTImage</text>
<text text-anchor="middle" x="1802" y="-74.5" font-family="Helvetica,sans-Serif" font-size="10.00">Filter.h</text>
</a>
</g>
</g>
<!-- Node1&#45;&gt;Node11 -->
<g id="edge10" class="edge">
<title>Node1&#45;&gt;Node11</title>
<path fill="none" stroke="midnightblue" d="M1541.25,-132.6C1592.9,-122.87 1670.43,-108.27 1727.53,-97.52"/>
<polygon fill="midnightblue" stroke="midnightblue" points="1540.45,-129.19 1531.28,-134.48 1541.75,-136.06 1540.45,-129.19"/>
</g>
<!-- Node12 -->
<g id="node12" class="node">
<title>Node12</title>
<g id="a_node12"><a xlink:href="itkVnlForward1DFFTImageFilter_8h.html" target="_top" xlink:title=" ">
<polygon fill="white" stroke="black" points="1915.5,-73 1915.5,-92 2094.5,-92 2094.5,-73 1915.5,-73"/>
<text text-anchor="middle" x="2005" y="-80" font-family="Helvetica,sans-Serif" font-size="10.00">itkVnlForward1DFFTImageFilter.h</text>
</a>
</g>
</g>
<!-- Node1&#45;&gt;Node12 -->
<g id="edge11" class="edge">
<title>Node1&#45;&gt;Node12</title>
<path fill="none" stroke="midnightblue" d="M1568.85,-135.14C1653.83,-126.85 1789.81,-112.93 1907,-98 1920.99,-96.22 1936.07,-94.09 1950.11,-92.02"/>
<polygon fill="midnightblue" stroke="midnightblue" points="1568.35,-131.67 1558.74,-136.13 1569.03,-138.64 1568.35,-131.67"/>
</g>
<!-- Node13 -->
<g id="node13" class="node">
<title>Node13</title>
<g id="a_node13"><a xlink:href="itkVnlForwardFFTImageFilter_8h.html" target="_top" xlink:title=" ">
<polygon fill="white" stroke="black" points="2112.5,-73 2112.5,-92 2277.5,-92 2277.5,-73 2112.5,-73"/>
<text text-anchor="middle" x="2195" y="-80" font-family="Helvetica,sans-Serif" font-size="10.00">itkVnlForwardFFTImageFilter.h</text>
</a>
</g>
</g>
<!-- Node1&#45;&gt;Node13 -->
<g id="edge12" class="edge">
<title>Node1&#45;&gt;Node13</title>
<path fill="none" stroke="midnightblue" d="M1569.09,-139.21C1687.93,-133.27 1913.2,-120.11 2104,-98 2117.83,-96.4 2132.76,-94.21 2146.46,-92.02"/>
<polygon fill="midnightblue" stroke="midnightblue" points="1568.78,-135.72 1558.97,-139.71 1569.13,-142.71 1568.78,-135.72"/>
</g>
<!-- Node15 -->
<g id="node15" class="node">
<title>Node15</title>
<g id="a_node15"><a xlink:href="itkVnlHalfHermitianToRealInverseFFTImageFilter_8h.html" target="_top" xlink:title=" ">
<polygon fill="white" stroke="black" points="2296,-67.5 2296,-97.5 2442,-97.5 2442,-67.5 2296,-67.5"/>
<text text-anchor="start" x="2304" y="-85.5" font-family="Helvetica,sans-Serif" font-size="10.00">itkVnlHalfHermitianToReal</text>
<text text-anchor="middle" x="2369" y="-74.5" font-family="Helvetica,sans-Serif" font-size="10.00">InverseFFTImageFilter.h</text>
</a>
</g>
</g>
<!-- Node1&#45;&gt;Node15 -->
<g id="edge14" class="edge">
<title>Node1&#45;&gt;Node15</title>
<path fill="none" stroke="midnightblue" d="M1568.79,-141.59C1714.46,-138.39 2025.9,-128.31 2287,-98 2289.87,-97.67 2292.8,-97.3 2295.75,-96.9"/>
<polygon fill="midnightblue" stroke="midnightblue" points="1568.52,-138.09 1558.59,-141.81 1568.67,-145.09 1568.52,-138.09"/>
</g>
<!-- Node16 -->
<g id="node16" class="node">
<title>Node16</title>
<g id="a_node16"><a xlink:href="itkVnlInverse1DFFTImageFilter_8h.html" target="_top" xlink:title=" ">
<polygon fill="white" stroke="black" points="2460,-73 2460,-92 2636,-92 2636,-73 2460,-73"/>
<text text-anchor="middle" x="2548" y="-80" font-family="Helvetica,sans-Serif" font-size="10.00">itkVnlInverse1DFFTImageFilter.h</text>
</a>
</g>
</g>
<!-- Node1&#45;&gt;Node16 -->
<g id="edge15" class="edge">
<title>Node1&#45;&gt;Node16</title>
<path fill="none" stroke="midnightblue" d="M1568.71,-141.98C1735.81,-139.28 2125.44,-129.84 2451,-98 2466.25,-96.51 2482.77,-94.27 2497.78,-92"/>
<polygon fill="midnightblue" stroke="midnightblue" points="1568.46,-138.48 1558.51,-142.14 1568.57,-145.48 1568.46,-138.48"/>
</g>
<!-- Node17 -->
<g id="node17" class="node">
<title>Node17</title>
<g id="a_node17"><a xlink:href="itkVnlInverseFFTImageFilter_8h.html" target="_top" xlink:title=" ">
<polygon fill="white" stroke="black" points="2654,-73 2654,-92 2816,-92 2816,-73 2654,-73"/>
<text text-anchor="middle" x="2735" y="-80" font-family="Helvetica,sans-Serif" font-size="10.00">itkVnlInverseFFTImageFilter.h</text>
</a>
</g>
</g>
<!-- Node1&#45;&gt;Node17 -->
<g id="edge16" class="edge">
<title>Node1&#45;&gt;Node17</title>
<path fill="none" stroke="midnightblue" d="M1568.98,-143.21C1759.57,-142.96 2243.13,-138.03 2645,-98 2659.33,-96.57 2674.85,-94.33 2688.89,-92.03"/>
<polygon fill="midnightblue" stroke="midnightblue" points="1568.76,-139.71 1558.76,-143.22 1568.77,-146.71 1568.76,-139.71"/>
</g>
<!-- Node18 -->
<g id="node18" class="node">
<title>Node18</title>
<g id="a_node18"><a xlink:href="itkVnlRealToHalfHermitianForwardFFTImageFilter_8h.html" target="_top" xlink:title=" ">
<polygon fill="white" stroke="black" points="2834,-67.5 2834,-97.5 2980,-97.5 2980,-67.5 2834,-67.5"/>
<text text-anchor="start" x="2842" y="-85.5" font-family="Helvetica,sans-Serif" font-size="10.00">itkVnlRealToHalfHermitian</text>
<text text-anchor="middle" x="2907" y="-74.5" font-family="Helvetica,sans-Serif" font-size="10.00">ForwardFFTImageFilter.h</text>
</a>
</g>
</g>
<!-- Node1&#45;&gt;Node18 -->
<g id="edge18" class="edge">
<title>Node1&#45;&gt;Node18</title>
<path fill="none" stroke="midnightblue" d="M1569.12,-141.75C1822,-137.69 2579.72,-123.68 2825,-98 2827.88,-97.7 2830.8,-97.36 2833.75,-96.98"/>
<polygon fill="midnightblue" stroke="midnightblue" points="1568.84,-138.25 1558.9,-141.91 1568.95,-145.25 1568.84,-138.25"/>
</g>
<!-- Node14 -->
<g id="node14" class="node">
<title>Node14</title>
<g id="a_node14"><a xlink:href="itkDirectFourierReconstructionImageToImageFilter_8h.html" target="_top" xlink:title=" ">
<polygon fill="white" stroke="black" points="2382.5,-0.5 2382.5,-30.5 2547.5,-30.5 2547.5,-0.5 2382.5,-0.5"/>
<text text-anchor="start" x="2390.5" y="-18.5" font-family="Helvetica,sans-Serif" font-size="10.00">itkDirectFourierReconstruction</text>
<text text-anchor="middle" x="2465" y="-7.5" font-family="Helvetica,sans-Serif" font-size="10.00">ImageToImageFilter.h</text>
</a>
</g>
</g>
<!-- Node13&#45;&gt;Node14 -->
<g id="edge13" class="edge">
<title>Node13&#45;&gt;Node14</title>
<path fill="none" stroke="midnightblue" d="M2240.5,-70.55C2286.19,-59.55 2356.79,-42.55 2406.6,-30.56"/>
<polygon fill="midnightblue" stroke="midnightblue" points="2239.48,-67.19 2230.58,-72.94 2241.12,-74 2239.48,-67.19"/>
</g>
<!-- Node17&#45;&gt;Node14 -->
<g id="edge17" class="edge">
<title>Node17&#45;&gt;Node14</title>
<path fill="none" stroke="midnightblue" d="M2689.5,-70.55C2643.81,-59.55 2573.21,-42.55 2523.4,-30.56"/>
<polygon fill="midnightblue" stroke="midnightblue" points="2688.88,-74 2699.42,-72.94 2690.52,-67.19 2688.88,-74"/>
</g>
</g>
</svg>
