<?xml version="1.0" encoding="UTF-8" standalone="no"?>
<!DOCTYPE svg PUBLIC "-//W3C//DTD SVG 1.1//EN"
 "http://www.w3.org/Graphics/SVG/1.1/DTD/svg11.dtd">
<!-- Generated by graphviz version 2.43.0 (0)
 -->
<!-- Title: itkGaussianKernelFunction.h Pages: 1 -->
<svg width="1420pt" height="711pt"
 viewBox="0.00 0.00 1419.50 711.00" xmlns="http://www.w3.org/2000/svg" xmlns:xlink="http://www.w3.org/1999/xlink">
<g id="graph0" class="graph" transform="scale(1 1) rotate(0) translate(4 707)">
<title>itkGaussianKernelFunction.h</title>
<polygon fill="white" stroke="transparent" points="-4,4 -4,-707 1415.5,-707 1415.5,4 -4,4"/>
<!-- Node1 -->
<g id="node1" class="node">
<title>Node1</title>
<g id="a_node1"><a xlink:title=" ">
<polygon fill="#bfbfbf" stroke="black" points="1004.5,-683.5 1004.5,-702.5 1159.5,-702.5 1159.5,-683.5 1004.5,-683.5"/>
<text text-anchor="middle" x="1082" y="-690.5" font-family="Helvetica,sans-Serif" font-size="10.00">itkGaussianKernelFunction.h</text>
</a>
</g>
</g>
<!-- Node2 -->
<g id="node2" class="node">
<title>Node2</title>
<g id="a_node2"><a xlink:href="itkKernelFunctionBase_8h.html" target="_top" xlink:title=" ">
<polygon fill="white" stroke="black" points="885,-627.5 885,-646.5 1019,-646.5 1019,-627.5 885,-627.5"/>
<text text-anchor="middle" x="952" y="-634.5" font-family="Helvetica,sans-Serif" font-size="10.00">itkKernelFunctionBase.h</text>
</a>
</g>
</g>
<!-- Node1&#45;&gt;Node2 -->
<g id="edge1" class="edge">
<title>Node1&#45;&gt;Node2</title>
<path fill="none" stroke="midnightblue" d="M1061.4,-683.44C1040.01,-674.56 1006.32,-660.56 981.98,-650.45"/>
<polygon fill="midnightblue" stroke="midnightblue" points="983.08,-647.12 972.5,-646.52 980.39,-653.58 983.08,-647.12"/>
</g>
<!-- Node45 -->
<g id="node45" class="node">
<title>Node45</title>
<g id="a_node45"><a xlink:href="itkMath_8h.html" target="_top" xlink:title=" ">
<polygon fill="white" stroke="black" points="1050.5,-571.5 1050.5,-590.5 1113.5,-590.5 1113.5,-571.5 1050.5,-571.5"/>
<text text-anchor="middle" x="1082" y="-578.5" font-family="Helvetica,sans-Serif" font-size="10.00">itkMath.h</text>
</a>
</g>
</g>
<!-- Node1&#45;&gt;Node45 -->
<g id="edge81" class="edge">
<title>Node1&#45;&gt;Node45</title>
<path fill="none" stroke="midnightblue" d="M1082,-683.37C1082,-665.62 1082,-624.67 1082,-600.6"/>
<polygon fill="midnightblue" stroke="midnightblue" points="1085.5,-600.59 1082,-590.59 1078.5,-600.59 1085.5,-600.59"/>
</g>
<!-- Node47 -->
<g id="node47" class="node">
<title>Node47</title>
<g id="a_node47"><a xlink:title=" ">
<polygon fill="white" stroke="#bfbfbf" points="1334.5,-515.5 1334.5,-534.5 1381.5,-534.5 1381.5,-515.5 1334.5,-515.5"/>
<text text-anchor="middle" x="1358" y="-522.5" font-family="Helvetica,sans-Serif" font-size="10.00">cmath</text>
</a>
</g>
</g>
<!-- Node1&#45;&gt;Node47 -->
<g id="edge82" class="edge">
<title>Node1&#45;&gt;Node47</title>
<path fill="none" stroke="midnightblue" d="M1096.45,-683.31C1141.54,-656.19 1279.89,-572.98 1335,-539.83"/>
<polygon fill="midnightblue" stroke="midnightblue" points="1336.93,-542.76 1343.69,-534.61 1333.32,-536.76 1336.93,-542.76"/>
</g>
<!-- Node3 -->
<g id="node3" class="node">
<title>Node3</title>
<g id="a_node3"><a xlink:href="itkFunctionBase_8h.html" target="_top" xlink:title=" ">
<polygon fill="white" stroke="black" points="417,-571.5 417,-590.5 521,-590.5 521,-571.5 417,-571.5"/>
<text text-anchor="middle" x="469" y="-578.5" font-family="Helvetica,sans-Serif" font-size="10.00">itkFunctionBase.h</text>
</a>
</g>
</g>
<!-- Node2&#45;&gt;Node3 -->
<g id="edge2" class="edge">
<title>Node2&#45;&gt;Node3</title>
<path fill="none" stroke="midnightblue" d="M884.84,-628.49C791.12,-618.01 622.39,-599.15 531.33,-588.97"/>
<polygon fill="midnightblue" stroke="midnightblue" points="531.48,-585.46 521.16,-587.83 530.7,-592.42 531.48,-585.46"/>
</g>
<!-- Node35 -->
<g id="node35" class="node">
<title>Node35</title>
<g id="a_node35"><a xlink:href="itkConceptChecking_8h.html" target="_top" xlink:title=" ">
<polygon fill="white" stroke="black" points="838.5,-179.5 838.5,-198.5 961.5,-198.5 961.5,-179.5 838.5,-179.5"/>
<text text-anchor="middle" x="900" y="-186.5" font-family="Helvetica,sans-Serif" font-size="10.00">itkConceptChecking.h</text>
</a>
</g>
</g>
<!-- Node2&#45;&gt;Node35 -->
<g id="edge52" class="edge">
<title>Node2&#45;&gt;Node35</title>
<path fill="none" stroke="midnightblue" d="M945.74,-627.37C933.38,-609.44 907,-566.44 907,-526 907,-526 907,-526 907,-300 907,-267.88 903.99,-230.6 901.92,-208.73"/>
<polygon fill="midnightblue" stroke="midnightblue" points="905.38,-208.15 900.92,-198.55 898.41,-208.84 905.38,-208.15"/>
</g>
<!-- Node37 -->
<g id="node37" class="node">
<title>Node37</title>
<g id="a_node37"><a xlink:href="itkNumericTraits_8h.html" target="_top" xlink:title=" ">
<polygon fill="white" stroke="black" points="977,-123.5 977,-142.5 1083,-142.5 1083,-123.5 977,-123.5"/>
<text text-anchor="middle" x="1030" y="-130.5" font-family="Helvetica,sans-Serif" font-size="10.00">itkNumericTraits.h</text>
</a>
</g>
</g>
<!-- Node2&#45;&gt;Node37 -->
<g id="edge70" class="edge">
<title>Node2&#45;&gt;Node37</title>
<path fill="none" stroke="midnightblue" d="M952,-627.44C952,-608.94 952,-563.81 952,-526 952,-526 952,-526 952,-356 952,-275.72 997.97,-187.87 1019.33,-151.38"/>
<polygon fill="midnightblue" stroke="midnightblue" points="1022.51,-152.88 1024.64,-142.5 1016.5,-149.28 1022.51,-152.88"/>
</g>
<!-- Node2&#45;&gt;Node45 -->
<g id="edge71" class="edge">
<title>Node2&#45;&gt;Node45</title>
<path fill="none" stroke="midnightblue" d="M972.6,-627.44C993.99,-618.56 1027.68,-604.56 1052.02,-594.45"/>
<polygon fill="midnightblue" stroke="midnightblue" points="1053.61,-597.58 1061.5,-590.52 1050.92,-591.12 1053.61,-597.58"/>
</g>
<!-- Node4 -->
<g id="node4" class="node">
<title>Node4</title>
<g id="a_node4"><a xlink:href="itkObject_8h.html" target="_top" xlink:title=" ">
<polygon fill="white" stroke="black" points="375,-347.5 375,-366.5 445,-366.5 445,-347.5 375,-347.5"/>
<text text-anchor="middle" x="410" y="-354.5" font-family="Helvetica,sans-Serif" font-size="10.00">itkObject.h</text>
</a>
</g>
</g>
<!-- Node3&#45;&gt;Node4 -->
<g id="edge3" class="edge">
<title>Node3&#45;&gt;Node4</title>
<path fill="none" stroke="midnightblue" d="M454.2,-571.36C441.01,-563.17 421.72,-549.92 408,-535 368.42,-491.97 354.94,-479.25 339,-423 336.58,-414.45 334.72,-410.79 339,-403 346.89,-388.66 361.49,-378.25 375.4,-371.08"/>
<polygon fill="midnightblue" stroke="midnightblue" points="377.29,-374.06 384.84,-366.62 374.3,-367.73 377.29,-374.06"/>
</g>
<!-- Node29 -->
<g id="node29" class="node">
<title>Node29</title>
<g id="a_node29"><a xlink:href="itkObjectFactory_8h.html" target="_top" xlink:title=" ">
<polygon fill="white" stroke="black" points="417,-515.5 417,-534.5 521,-534.5 521,-515.5 417,-515.5"/>
<text text-anchor="middle" x="469" y="-522.5" font-family="Helvetica,sans-Serif" font-size="10.00">itkObjectFactory.h</text>
</a>
</g>
</g>
<!-- Node3&#45;&gt;Node29 -->
<g id="edge41" class="edge">
<title>Node3&#45;&gt;Node29</title>
<path fill="none" stroke="midnightblue" d="M469,-571.08C469,-564.01 469,-553.86 469,-544.99"/>
<polygon fill="midnightblue" stroke="midnightblue" points="472.5,-544.75 469,-534.75 465.5,-544.75 472.5,-544.75"/>
</g>
<!-- Node5 -->
<g id="node5" class="node">
<title>Node5</title>
<g id="a_node5"><a xlink:href="itkLightObject_8h.html" target="_top" xlink:title=" ">
<polygon fill="white" stroke="black" points="436,-179.5 436,-198.5 530,-198.5 530,-179.5 436,-179.5"/>
<text text-anchor="middle" x="483" y="-186.5" font-family="Helvetica,sans-Serif" font-size="10.00">itkLightObject.h</text>
</a>
</g>
</g>
<!-- Node4&#45;&gt;Node5 -->
<g id="edge4" class="edge">
<title>Node4&#45;&gt;Node5</title>
<path fill="none" stroke="midnightblue" d="M423.02,-347.31C444.91,-331.82 488.32,-297.07 505,-255 511.36,-238.96 503.48,-220.26 495.44,-207.05"/>
<polygon fill="midnightblue" stroke="midnightblue" points="498.21,-204.9 489.76,-198.51 492.38,-208.78 498.21,-204.9"/>
</g>
<!-- Node17 -->
<g id="node17" class="node">
<title>Node17</title>
<g id="a_node17"><a xlink:href="itkSingletonMacro_8h.html" target="_top" xlink:title=" ">
<polygon fill="white" stroke="black" points="0,-67.5 0,-86.5 114,-86.5 114,-67.5 0,-67.5"/>
<text text-anchor="middle" x="57" y="-74.5" font-family="Helvetica,sans-Serif" font-size="10.00">itkSingletonMacro.h</text>
</a>
</g>
</g>
<!-- Node4&#45;&gt;Node17 -->
<g id="edge38" class="edge">
<title>Node4&#45;&gt;Node17</title>
<path fill="none" stroke="midnightblue" d="M374.9,-350.99C294.52,-338.54 104,-303.02 104,-246 104,-246 104,-246 104,-188 104,-152.7 83.28,-115.79 69.36,-94.96"/>
<polygon fill="midnightblue" stroke="midnightblue" points="72.12,-92.8 63.54,-86.59 66.37,-96.8 72.12,-92.8"/>
</g>
<!-- Node20 -->
<g id="node20" class="node">
<title>Node20</title>
<g id="a_node20"><a xlink:href="itkEventObject_8h.html" target="_top" xlink:title=" ">
<polygon fill="white" stroke="black" points="707,-179.5 707,-198.5 805,-198.5 805,-179.5 707,-179.5"/>
<text text-anchor="middle" x="756" y="-186.5" font-family="Helvetica,sans-Serif" font-size="10.00">itkEventObject.h</text>
</a>
</g>
</g>
<!-- Node4&#45;&gt;Node20 -->
<g id="edge25" class="edge">
<title>Node4&#45;&gt;Node20</title>
<path fill="none" stroke="midnightblue" d="M433.01,-347.49C455.84,-338.88 491.71,-324.88 522,-311 600.11,-275.21 689.6,-226.79 731.7,-203.55"/>
<polygon fill="midnightblue" stroke="midnightblue" points="733.59,-206.5 740.64,-198.59 730.2,-200.37 733.59,-206.5"/>
</g>
<!-- Node21 -->
<g id="node21" class="node">
<title>Node21</title>
<g id="a_node21"><a xlink:href="itkMetaDataDictionary_8h.html" target="_top" xlink:title=" ">
<polygon fill="white" stroke="black" points="300.5,-291.5 300.5,-310.5 435.5,-310.5 435.5,-291.5 300.5,-291.5"/>
<text text-anchor="middle" x="368" y="-298.5" font-family="Helvetica,sans-Serif" font-size="10.00">itkMetaDataDictionary.h</text>
</a>
</g>
</g>
<!-- Node4&#45;&gt;Node21 -->
<g id="edge28" class="edge">
<title>Node4&#45;&gt;Node21</title>
<path fill="none" stroke="midnightblue" d="M403.06,-347.08C397.07,-339.38 388.25,-328.03 380.95,-318.65"/>
<polygon fill="midnightblue" stroke="midnightblue" points="383.71,-316.5 374.81,-310.75 378.18,-320.79 383.71,-316.5"/>
</g>
<!-- Node27 -->
<g id="node27" class="node">
<title>Node27</title>
<g id="a_node27"><a xlink:title=" ">
<polygon fill="white" stroke="#bfbfbf" points="552,-235.5 552,-254.5 610,-254.5 610,-235.5 552,-235.5"/>
<text text-anchor="middle" x="581" y="-242.5" font-family="Helvetica,sans-Serif" font-size="10.00">memory</text>
</a>
</g>
</g>
<!-- Node4&#45;&gt;Node27 -->
<g id="edge40" class="edge">
<title>Node4&#45;&gt;Node27</title>
<path fill="none" stroke="midnightblue" d="M428.05,-347.5C445.58,-338.99 472.75,-325.17 495,-311 519.47,-295.42 545.83,-274.88 562.82,-261.1"/>
<polygon fill="midnightblue" stroke="midnightblue" points="565.28,-263.61 570.8,-254.57 560.84,-258.2 565.28,-263.61"/>
</g>
<!-- Node28 -->
<g id="node28" class="node">
<title>Node28</title>
<g id="a_node28"><a xlink:title=" ">
<polygon fill="white" stroke="#bfbfbf" points="217.5,-291.5 217.5,-310.5 282.5,-310.5 282.5,-291.5 217.5,-291.5"/>
<text text-anchor="middle" x="250" y="-298.5" font-family="Helvetica,sans-Serif" font-size="10.00">functional</text>
</a>
</g>
</g>
<!-- Node4&#45;&gt;Node28 -->
<g id="edge39" class="edge">
<title>Node4&#45;&gt;Node28</title>
<path fill="none" stroke="midnightblue" d="M384.65,-347.44C357.73,-338.36 315,-323.94 284.91,-313.78"/>
<polygon fill="midnightblue" stroke="midnightblue" points="285.83,-310.4 275.23,-310.52 283.59,-317.03 285.83,-310.4"/>
</g>
<!-- Node6 -->
<g id="node6" class="node">
<title>Node6</title>
<g id="a_node6"><a xlink:href="itkMacro_8h.html" target="_top" xlink:title=" ">
<polygon fill="white" stroke="black" points="793,-6 793,-25 861,-25 861,-6 793,-6"/>
<text text-anchor="middle" x="827" y="-13" font-family="Helvetica,sans-Serif" font-size="10.00">itkMacro.h</text>
</a>
</g>
</g>
<!-- Node5&#45;&gt;Node6 -->
<g id="edge5" class="edge">
<title>Node5&#45;&gt;Node6</title>
<path fill="none" stroke="midnightblue" d="M476.87,-179.46C462.13,-157.81 428.04,-100.19 457,-67 498.83,-19.08 693.93,-14.95 782.75,-15.64"/>
<polygon fill="midnightblue" stroke="midnightblue" points="782.75,-19.14 792.79,-15.74 782.82,-12.14 782.75,-19.14"/>
</g>
<!-- Node7 -->
<g id="node7" class="node">
<title>Node7</title>
<g id="a_node7"><a xlink:href="itkSmartPointer_8h.html" target="_top" xlink:title=" ">
<polygon fill="white" stroke="black" points="511.5,-123.5 511.5,-142.5 612.5,-142.5 612.5,-123.5 511.5,-123.5"/>
<text text-anchor="middle" x="562" y="-130.5" font-family="Helvetica,sans-Serif" font-size="10.00">itkSmartPointer.h</text>
</a>
</g>
</g>
<!-- Node5&#45;&gt;Node7 -->
<g id="edge6" class="edge">
<title>Node5&#45;&gt;Node7</title>
<path fill="none" stroke="midnightblue" d="M495.69,-179.32C507.9,-170.98 526.58,-158.21 541,-148.35"/>
<polygon fill="midnightblue" stroke="midnightblue" points="543.06,-151.19 549.34,-142.65 539.11,-145.41 543.06,-151.19"/>
</g>
<!-- Node8 -->
<g id="node8" class="node">
<title>Node8</title>
<g id="a_node8"><a xlink:title=" ">
<polygon fill="white" stroke="#bfbfbf" points="632,-67.5 632,-86.5 692,-86.5 692,-67.5 632,-67.5"/>
<text text-anchor="middle" x="662" y="-74.5" font-family="Helvetica,sans-Serif" font-size="10.00">iostream</text>
</a>
</g>
</g>
<!-- Node5&#45;&gt;Node8 -->
<g id="edge23" class="edge">
<title>Node5&#45;&gt;Node8</title>
<path fill="none" stroke="midnightblue" d="M530.06,-181.25C558.99,-175.18 595.48,-163.85 622,-143 637.59,-130.75 648.63,-110.6 655.1,-95.98"/>
<polygon fill="midnightblue" stroke="midnightblue" points="658.43,-97.09 659.01,-86.51 651.96,-94.42 658.43,-97.09"/>
</g>
<!-- Node12 -->
<g id="node12" class="node">
<title>Node12</title>
<g id="a_node12"><a xlink:href="itkTimeStamp_8h.html" target="_top" xlink:title=" ">
<polygon fill="white" stroke="black" points="283.5,-123.5 283.5,-142.5 378.5,-142.5 378.5,-123.5 283.5,-123.5"/>
<text text-anchor="middle" x="331" y="-130.5" font-family="Helvetica,sans-Serif" font-size="10.00">itkTimeStamp.h</text>
</a>
</g>
</g>
<!-- Node5&#45;&gt;Node12 -->
<g id="edge11" class="edge">
<title>Node5&#45;&gt;Node12</title>
<path fill="none" stroke="midnightblue" d="M458.92,-179.44C433.46,-170.4 393.11,-156.06 364.54,-145.92"/>
<polygon fill="midnightblue" stroke="midnightblue" points="365.57,-142.57 354.97,-142.52 363.22,-149.16 365.57,-142.57"/>
</g>
<!-- Node16 -->
<g id="node16" class="node">
<title>Node16</title>
<g id="a_node16"><a xlink:title=" ">
<polygon fill="white" stroke="#bfbfbf" points="359,-67.5 359,-86.5 409,-86.5 409,-67.5 359,-67.5"/>
<text text-anchor="middle" x="384" y="-74.5" font-family="Helvetica,sans-Serif" font-size="10.00">atomic</text>
</a>
</g>
</g>
<!-- Node5&#45;&gt;Node16 -->
<g id="edge22" class="edge">
<title>Node5&#45;&gt;Node16</title>
<path fill="none" stroke="midnightblue" d="M475.23,-179.37C458.68,-160.97 419.7,-117.67 398.45,-94.05"/>
<polygon fill="midnightblue" stroke="midnightblue" points="401.02,-91.68 391.73,-86.59 395.82,-96.37 401.02,-91.68"/>
</g>
<!-- Node18 -->
<g id="node18" class="node">
<title>Node18</title>
<g id="a_node18"><a xlink:href="itkIndent_8h.html" target="_top" xlink:title=" ">
<polygon fill="white" stroke="black" points="707.5,-123.5 707.5,-142.5 776.5,-142.5 776.5,-123.5 707.5,-123.5"/>
<text text-anchor="middle" x="742" y="-130.5" font-family="Helvetica,sans-Serif" font-size="10.00">itkIndent.h</text>
</a>
</g>
</g>
<!-- Node5&#45;&gt;Node18 -->
<g id="edge19" class="edge">
<title>Node5&#45;&gt;Node18</title>
<path fill="none" stroke="midnightblue" d="M524.04,-179.44C571.31,-169.59 648.71,-153.45 697.43,-143.29"/>
<polygon fill="midnightblue" stroke="midnightblue" points="698.29,-146.69 707.37,-141.22 696.87,-139.84 698.29,-146.69"/>
</g>
<!-- Node19 -->
<g id="node19" class="node">
<title>Node19</title>
<g id="a_node19"><a xlink:title=" ">
<polygon fill="white" stroke="#bfbfbf" points="208.5,-123.5 208.5,-142.5 265.5,-142.5 265.5,-123.5 208.5,-123.5"/>
<text text-anchor="middle" x="237" y="-130.5" font-family="Helvetica,sans-Serif" font-size="10.00">typeinfo</text>
</a>
</g>
</g>
<!-- Node5&#45;&gt;Node19 -->
<g id="edge24" class="edge">
<title>Node5&#45;&gt;Node19</title>
<path fill="none" stroke="midnightblue" d="M442.29,-179.44C402.37,-170.99 339.53,-157.54 275.49,-143.08"/>
<polygon fill="midnightblue" stroke="midnightblue" points="276.15,-139.64 265.62,-140.84 274.6,-146.46 276.15,-139.64"/>
</g>
<!-- Node7&#45;&gt;Node8 -->
<g id="edge7" class="edge">
<title>Node7&#45;&gt;Node8</title>
<path fill="none" stroke="midnightblue" d="M578.07,-123.32C593.96,-114.74 618.51,-101.49 636.96,-91.52"/>
<polygon fill="midnightblue" stroke="midnightblue" points="638.84,-94.49 645.97,-86.65 635.51,-88.33 638.84,-94.49"/>
</g>
<!-- Node9 -->
<g id="node9" class="node">
<title>Node9</title>
<g id="a_node9"><a xlink:title=" ">
<polygon fill="white" stroke="#bfbfbf" points="465.5,-67.5 465.5,-86.5 510.5,-86.5 510.5,-67.5 465.5,-67.5"/>
<text text-anchor="middle" x="488" y="-74.5" font-family="Helvetica,sans-Serif" font-size="10.00">utility</text>
</a>
</g>
</g>
<!-- Node7&#45;&gt;Node9 -->
<g id="edge8" class="edge">
<title>Node7&#45;&gt;Node9</title>
<path fill="none" stroke="midnightblue" d="M550.11,-123.32C538.85,-115.11 521.71,-102.6 508.29,-92.81"/>
<polygon fill="midnightblue" stroke="midnightblue" points="510.25,-89.9 500.11,-86.83 506.12,-95.56 510.25,-89.9"/>
</g>
<!-- Node10 -->
<g id="node10" class="node">
<title>Node10</title>
<g id="a_node10"><a xlink:title=" ">
<polygon fill="white" stroke="#bfbfbf" points="710.5,-67.5 710.5,-86.5 779.5,-86.5 779.5,-67.5 710.5,-67.5"/>
<text text-anchor="middle" x="745" y="-74.5" font-family="Helvetica,sans-Serif" font-size="10.00">type_traits</text>
</a>
</g>
</g>
<!-- Node7&#45;&gt;Node10 -->
<g id="edge9" class="edge">
<title>Node7&#45;&gt;Node10</title>
<path fill="none" stroke="midnightblue" d="M591,-123.44C622.18,-114.24 671.93,-99.56 706.41,-89.39"/>
<polygon fill="midnightblue" stroke="midnightblue" points="707.54,-92.7 716.14,-86.52 705.56,-85.99 707.54,-92.7"/>
</g>
<!-- Node11 -->
<g id="node11" class="node">
<title>Node11</title>
<g id="a_node11"><a xlink:title=" ">
<polygon fill="white" stroke="#bfbfbf" points="528.5,-67.5 528.5,-86.5 613.5,-86.5 613.5,-67.5 528.5,-67.5"/>
<text text-anchor="middle" x="571" y="-74.5" font-family="Helvetica,sans-Serif" font-size="10.00">itkConfigure.h</text>
</a>
</g>
</g>
<!-- Node7&#45;&gt;Node11 -->
<g id="edge10" class="edge">
<title>Node7&#45;&gt;Node11</title>
<path fill="none" stroke="midnightblue" d="M563.49,-123.08C564.68,-115.93 566.39,-105.64 567.88,-96.69"/>
<polygon fill="midnightblue" stroke="midnightblue" points="571.35,-97.19 569.54,-86.75 564.45,-96.04 571.35,-97.19"/>
</g>
<!-- Node12&#45;&gt;Node6 -->
<g id="edge12" class="edge">
<title>Node12&#45;&gt;Node6</title>
<path fill="none" stroke="midnightblue" d="M330.72,-123.22C330.79,-108.98 333.22,-81.02 350,-67 382.85,-39.56 670.65,-23.62 782.66,-18.41"/>
<polygon fill="midnightblue" stroke="midnightblue" points="783.11,-21.89 792.94,-17.94 782.79,-14.9 783.11,-21.89"/>
</g>
<!-- Node13 -->
<g id="node13" class="node">
<title>Node13</title>
<g id="a_node13"><a xlink:href="itkIntTypes_8h.html" target="_top" xlink:title=" ">
<polygon fill="white" stroke="black" points="223.5,-67.5 223.5,-86.5 302.5,-86.5 302.5,-67.5 223.5,-67.5"/>
<text text-anchor="middle" x="263" y="-74.5" font-family="Helvetica,sans-Serif" font-size="10.00">itkIntTypes.h</text>
</a>
</g>
</g>
<!-- Node12&#45;&gt;Node13 -->
<g id="edge13" class="edge">
<title>Node12&#45;&gt;Node13</title>
<path fill="none" stroke="midnightblue" d="M320.07,-123.32C309.83,-115.18 294.28,-102.84 282,-93.09"/>
<polygon fill="midnightblue" stroke="midnightblue" points="284.13,-90.31 274.12,-86.83 279.78,-95.79 284.13,-90.31"/>
</g>
<!-- Node12&#45;&gt;Node16 -->
<g id="edge17" class="edge">
<title>Node12&#45;&gt;Node16</title>
<path fill="none" stroke="midnightblue" d="M339.75,-123.08C347.47,-115.22 358.9,-103.57 368.22,-94.08"/>
<polygon fill="midnightblue" stroke="midnightblue" points="370.9,-96.34 375.41,-86.75 365.91,-91.44 370.9,-96.34"/>
</g>
<!-- Node12&#45;&gt;Node17 -->
<g id="edge18" class="edge">
<title>Node12&#45;&gt;Node17</title>
<path fill="none" stroke="midnightblue" d="M287.58,-123.44C239.48,-113.96 161.91,-98.67 110.19,-88.48"/>
<polygon fill="midnightblue" stroke="midnightblue" points="110.7,-85.02 100.21,-86.52 109.35,-91.88 110.7,-85.02"/>
</g>
<!-- Node13&#45;&gt;Node6 -->
<g id="edge14" class="edge">
<title>Node13&#45;&gt;Node6</title>
<path fill="none" stroke="midnightblue" d="M302.77,-69.06C307.56,-68.32 312.38,-67.61 317,-67 488.63,-44.23 694.01,-26.9 782.67,-19.89"/>
<polygon fill="midnightblue" stroke="midnightblue" points="783.19,-23.36 792.89,-19.09 782.65,-16.38 783.19,-23.36"/>
</g>
<!-- Node14 -->
<g id="node14" class="node">
<title>Node14</title>
<g id="a_node14"><a xlink:title=" ">
<polygon fill="white" stroke="#bfbfbf" points="283,-6 283,-25 333,-25 333,-6 283,-6"/>
<text text-anchor="middle" x="308" y="-13" font-family="Helvetica,sans-Serif" font-size="10.00">cstdint</text>
</a>
</g>
</g>
<!-- Node13&#45;&gt;Node14 -->
<g id="edge15" class="edge">
<title>Node13&#45;&gt;Node14</title>
<path fill="none" stroke="midnightblue" d="M269.45,-67.48C276.2,-58.55 286.97,-44.31 295.41,-33.14"/>
<polygon fill="midnightblue" stroke="midnightblue" points="298.32,-35.1 301.56,-25.01 292.74,-30.87 298.32,-35.1"/>
</g>
<!-- Node15 -->
<g id="node15" class="node">
<title>Node15</title>
<g id="a_node15"><a xlink:title=" ">
<polygon fill="white" stroke="#bfbfbf" points="215,-6 215,-25 265,-25 265,-6 215,-6"/>
<text text-anchor="middle" x="240" y="-13" font-family="Helvetica,sans-Serif" font-size="10.00">climits</text>
</a>
</g>
</g>
<!-- Node13&#45;&gt;Node15 -->
<g id="edge16" class="edge">
<title>Node13&#45;&gt;Node15</title>
<path fill="none" stroke="midnightblue" d="M259.7,-67.48C256.39,-58.9 251.18,-45.43 246.95,-34.48"/>
<polygon fill="midnightblue" stroke="midnightblue" points="250.16,-33.07 243.29,-25.01 243.63,-35.6 250.16,-33.07"/>
</g>
<!-- Node18&#45;&gt;Node6 -->
<g id="edge20" class="edge">
<title>Node18&#45;&gt;Node6</title>
<path fill="none" stroke="midnightblue" d="M753.03,-123.18C763.21,-114.66 778.32,-101.02 789,-87 801.47,-70.62 812.23,-49.6 819.08,-34.79"/>
<polygon fill="midnightblue" stroke="midnightblue" points="822.46,-35.82 823.35,-25.26 816.07,-32.96 822.46,-35.82"/>
</g>
<!-- Node18&#45;&gt;Node8 -->
<g id="edge21" class="edge">
<title>Node18&#45;&gt;Node8</title>
<path fill="none" stroke="midnightblue" d="M729.15,-123.32C716.78,-114.98 697.87,-102.21 683.26,-92.35"/>
<polygon fill="midnightblue" stroke="midnightblue" points="685.07,-89.35 674.82,-86.65 681.15,-95.15 685.07,-89.35"/>
</g>
<!-- Node20&#45;&gt;Node6 -->
<g id="edge26" class="edge">
<title>Node20&#45;&gt;Node6</title>
<path fill="none" stroke="midnightblue" d="M762.52,-179.36C768.99,-170.53 778.94,-156.26 786,-143 798.64,-119.25 800.54,-112.54 809,-87 814.7,-69.78 819.67,-49.69 822.94,-35.38"/>
<polygon fill="midnightblue" stroke="midnightblue" points="826.42,-35.82 825.17,-25.3 819.59,-34.3 826.42,-35.82"/>
</g>
<!-- Node20&#45;&gt;Node18 -->
<g id="edge27" class="edge">
<title>Node20&#45;&gt;Node18</title>
<path fill="none" stroke="midnightblue" d="M753.69,-179.08C751.83,-171.93 749.16,-161.64 746.85,-152.69"/>
<polygon fill="midnightblue" stroke="midnightblue" points="750.17,-151.55 744.27,-142.75 743.39,-153.31 750.17,-151.55"/>
</g>
<!-- Node22 -->
<g id="node22" class="node">
<title>Node22</title>
<g id="a_node22"><a xlink:href="itkMetaDataObjectBase_8h.html" target="_top" xlink:title=" ">
<polygon fill="white" stroke="black" points="288,-235.5 288,-254.5 430,-254.5 430,-235.5 288,-235.5"/>
<text text-anchor="middle" x="359" y="-242.5" font-family="Helvetica,sans-Serif" font-size="10.00">itkMetaDataObjectBase.h</text>
</a>
</g>
</g>
<!-- Node21&#45;&gt;Node22 -->
<g id="edge29" class="edge">
<title>Node21&#45;&gt;Node22</title>
<path fill="none" stroke="midnightblue" d="M366.51,-291.08C365.32,-283.93 363.61,-273.64 362.12,-264.69"/>
<polygon fill="midnightblue" stroke="midnightblue" points="365.55,-264.04 360.46,-254.75 358.65,-265.19 365.55,-264.04"/>
</g>
<!-- Node23 -->
<g id="node23" class="node">
<title>Node23</title>
<g id="a_node23"><a xlink:title=" ">
<polygon fill="white" stroke="#bfbfbf" points="122,-6 122,-25 186,-25 186,-6 122,-6"/>
<text text-anchor="middle" x="154" y="-13" font-family="Helvetica,sans-Serif" font-size="10.00">algorithm</text>
</a>
</g>
</g>
<!-- Node21&#45;&gt;Node23 -->
<g id="edge33" class="edge">
<title>Node21&#45;&gt;Node23</title>
<path fill="none" stroke="midnightblue" d="M343.42,-291.37C324.39,-283.83 298.13,-271.52 279,-255 207.24,-193.03 170.73,-79.56 158.65,-35.08"/>
<polygon fill="midnightblue" stroke="midnightblue" points="162.02,-34.12 156.1,-25.33 155.25,-35.9 162.02,-34.12"/>
</g>
<!-- Node24 -->
<g id="node24" class="node">
<title>Node24</title>
<g id="a_node24"><a xlink:title=" ">
<polygon fill="white" stroke="#bfbfbf" points="448.5,-235.5 448.5,-254.5 495.5,-254.5 495.5,-235.5 448.5,-235.5"/>
<text text-anchor="middle" x="472" y="-242.5" font-family="Helvetica,sans-Serif" font-size="10.00">vector</text>
</a>
</g>
</g>
<!-- Node21&#45;&gt;Node24 -->
<g id="edge34" class="edge">
<title>Node21&#45;&gt;Node24</title>
<path fill="none" stroke="midnightblue" d="M384.71,-291.32C401.31,-282.7 427,-269.36 446.22,-259.39"/>
<polygon fill="midnightblue" stroke="midnightblue" points="448.07,-262.37 455.33,-254.65 444.84,-256.16 448.07,-262.37"/>
</g>
<!-- Node25 -->
<g id="node25" class="node">
<title>Node25</title>
<g id="a_node25"><a xlink:title=" ">
<polygon fill="white" stroke="#bfbfbf" points="132,-235.5 132,-254.5 170,-254.5 170,-235.5 132,-235.5"/>
<text text-anchor="middle" x="151" y="-242.5" font-family="Helvetica,sans-Serif" font-size="10.00">map</text>
</a>
</g>
</g>
<!-- Node21&#45;&gt;Node25 -->
<g id="edge35" class="edge">
<title>Node21&#45;&gt;Node25</title>
<path fill="none" stroke="midnightblue" d="M328.32,-291.49C292.01,-283.49 236.64,-270.78 180.05,-255.14"/>
<polygon fill="midnightblue" stroke="midnightblue" points="180.79,-251.71 170.22,-252.39 178.91,-258.45 180.79,-251.71"/>
</g>
<!-- Node26 -->
<g id="node26" class="node">
<title>Node26</title>
<g id="a_node26"><a xlink:title=" ">
<polygon fill="white" stroke="#bfbfbf" points="188,-235.5 188,-254.5 232,-254.5 232,-235.5 188,-235.5"/>
<text text-anchor="middle" x="210" y="-242.5" font-family="Helvetica,sans-Serif" font-size="10.00">string</text>
</a>
</g>
</g>
<!-- Node21&#45;&gt;Node26 -->
<g id="edge36" class="edge">
<title>Node21&#45;&gt;Node26</title>
<path fill="none" stroke="midnightblue" d="M342.96,-291.44C315.52,-282.07 271.44,-267 241.63,-256.81"/>
<polygon fill="midnightblue" stroke="midnightblue" points="242.71,-253.48 232.11,-253.56 240.44,-260.1 242.71,-253.48"/>
</g>
<!-- Node21&#45;&gt;Node27 -->
<g id="edge37" class="edge">
<title>Node21&#45;&gt;Node27</title>
<path fill="none" stroke="midnightblue" d="M401.75,-291.44C439.92,-281.77 501.98,-266.03 542.15,-255.85"/>
<polygon fill="midnightblue" stroke="midnightblue" points="543.02,-259.24 551.86,-253.39 541.3,-252.45 543.02,-259.24"/>
</g>
<!-- Node22&#45;&gt;Node5 -->
<g id="edge30" class="edge">
<title>Node22&#45;&gt;Node5</title>
<path fill="none" stroke="midnightblue" d="M378.65,-235.44C398.96,-226.6 430.9,-212.69 454.1,-202.59"/>
<polygon fill="midnightblue" stroke="midnightblue" points="455.67,-205.72 463.44,-198.52 452.88,-199.3 455.67,-205.72"/>
</g>
<!-- Node22&#45;&gt;Node8 -->
<g id="edge32" class="edge">
<title>Node22&#45;&gt;Node8</title>
<path fill="none" stroke="midnightblue" d="M406.19,-235.45C443.07,-228 495.23,-215.75 539,-199 588.76,-179.96 611.9,-184.75 645,-143 655.52,-129.73 659.58,-110.6 661.12,-96.53"/>
<polygon fill="midnightblue" stroke="midnightblue" points="664.61,-96.78 661.89,-86.54 657.63,-96.24 664.61,-96.78"/>
</g>
<!-- Node22&#45;&gt;Node19 -->
<g id="edge31" class="edge">
<title>Node22&#45;&gt;Node19</title>
<path fill="none" stroke="midnightblue" d="M349.43,-235.37C328.85,-216.81 280.16,-172.91 254.12,-149.44"/>
<polygon fill="midnightblue" stroke="midnightblue" points="256.3,-146.69 246.53,-142.59 251.61,-151.89 256.3,-146.69"/>
</g>
<!-- Node30 -->
<g id="node30" class="node">
<title>Node30</title>
<g id="a_node30"><a xlink:href="itkObjectFactoryBase_8h.html" target="_top" xlink:title=" ">
<polygon fill="white" stroke="black" points="404.5,-459.5 404.5,-478.5 533.5,-478.5 533.5,-459.5 404.5,-459.5"/>
<text text-anchor="middle" x="469" y="-466.5" font-family="Helvetica,sans-Serif" font-size="10.00">itkObjectFactoryBase.h</text>
</a>
</g>
</g>
<!-- Node29&#45;&gt;Node30 -->
<g id="edge42" class="edge">
<title>Node29&#45;&gt;Node30</title>
<path fill="none" stroke="midnightblue" d="M469,-515.08C469,-508.01 469,-497.86 469,-488.99"/>
<polygon fill="midnightblue" stroke="midnightblue" points="472.5,-488.75 469,-478.75 465.5,-488.75 472.5,-488.75"/>
</g>
<!-- Node30&#45;&gt;Node17 -->
<g id="edge45" class="edge">
<title>Node30&#45;&gt;Node17</title>
<path fill="none" stroke="midnightblue" d="M404.4,-465.26C281.91,-458.31 28,-434.64 28,-358 28,-358 28,-358 28,-188 28,-154.72 40.57,-117.58 49.16,-96.09"/>
<polygon fill="midnightblue" stroke="midnightblue" points="52.48,-97.21 53.09,-86.64 46.02,-94.53 52.48,-97.21"/>
</g>
<!-- Node30&#45;&gt;Node24 -->
<g id="edge51" class="edge">
<title>Node30&#45;&gt;Node24</title>
<path fill="none" stroke="midnightblue" d="M477.48,-459.23C485.05,-450.75 495.6,-437.13 500,-423 517.52,-366.68 493.74,-296.71 480.22,-264.19"/>
<polygon fill="midnightblue" stroke="midnightblue" points="483.28,-262.46 476.1,-254.67 476.86,-265.24 483.28,-262.46"/>
</g>
<!-- Node30&#45;&gt;Node27 -->
<g id="edge50" class="edge">
<title>Node30&#45;&gt;Node27</title>
<path fill="none" stroke="midnightblue" d="M530.6,-459.42C552.43,-453.08 574.82,-442.08 588,-423 621.6,-374.37 600.8,-298.99 588.35,-264.44"/>
<polygon fill="midnightblue" stroke="midnightblue" points="591.49,-262.86 584.68,-254.74 584.94,-265.33 591.49,-262.86"/>
</g>
<!-- Node31 -->
<g id="node31" class="node">
<title>Node31</title>
<g id="a_node31"><a xlink:href="itkCreateObjectFunction_8h.html" target="_top" xlink:title=" ">
<polygon fill="white" stroke="black" points="347.5,-403.5 347.5,-422.5 490.5,-422.5 490.5,-403.5 347.5,-403.5"/>
<text text-anchor="middle" x="419" y="-410.5" font-family="Helvetica,sans-Serif" font-size="10.00">itkCreateObjectFunction.h</text>
</a>
</g>
</g>
<!-- Node30&#45;&gt;Node31 -->
<g id="edge43" class="edge">
<title>Node30&#45;&gt;Node31</title>
<path fill="none" stroke="midnightblue" d="M460.74,-459.08C453.54,-451.3 442.89,-439.8 434.15,-430.37"/>
<polygon fill="midnightblue" stroke="midnightblue" points="436.47,-427.71 427.1,-422.75 431.33,-432.47 436.47,-427.71"/>
</g>
<!-- Node32 -->
<g id="node32" class="node">
<title>Node32</title>
<g id="a_node32"><a xlink:href="itkCommonEnums_8h.html" target="_top" xlink:title=" ">
<polygon fill="white" stroke="black" points="132,-403.5 132,-422.5 248,-422.5 248,-403.5 132,-403.5"/>
<text text-anchor="middle" x="190" y="-410.5" font-family="Helvetica,sans-Serif" font-size="10.00">itkCommonEnums.h</text>
</a>
</g>
</g>
<!-- Node30&#45;&gt;Node32 -->
<g id="edge46" class="edge">
<title>Node30&#45;&gt;Node32</title>
<path fill="none" stroke="midnightblue" d="M424.79,-459.44C375.71,-449.94 296.49,-434.61 243.84,-424.42"/>
<polygon fill="midnightblue" stroke="midnightblue" points="244.48,-420.98 234,-422.52 243.15,-427.85 244.48,-420.98"/>
</g>
<!-- Node34 -->
<g id="node34" class="node">
<title>Node34</title>
<g id="a_node34"><a xlink:title=" ">
<polygon fill="white" stroke="#bfbfbf" points="547,-403.5 547,-422.5 579,-422.5 579,-403.5 547,-403.5"/>
<text text-anchor="middle" x="563" y="-410.5" font-family="Helvetica,sans-Serif" font-size="10.00">list</text>
</a>
</g>
</g>
<!-- Node30&#45;&gt;Node34 -->
<g id="edge49" class="edge">
<title>Node30&#45;&gt;Node34</title>
<path fill="none" stroke="midnightblue" d="M484.1,-459.32C498.9,-450.82 521.69,-437.73 538.98,-427.8"/>
<polygon fill="midnightblue" stroke="midnightblue" points="541.01,-430.67 547.93,-422.65 537.52,-424.6 541.01,-430.67"/>
</g>
<!-- Node31&#45;&gt;Node4 -->
<g id="edge44" class="edge">
<title>Node31&#45;&gt;Node4</title>
<path fill="none" stroke="midnightblue" d="M417.51,-403.08C416.32,-395.93 414.61,-385.64 413.12,-376.69"/>
<polygon fill="midnightblue" stroke="midnightblue" points="416.55,-376.04 411.46,-366.75 409.65,-377.19 416.55,-376.04"/>
</g>
<!-- Node32&#45;&gt;Node13 -->
<g id="edge47" class="edge">
<title>Node32&#45;&gt;Node13</title>
<path fill="none" stroke="midnightblue" d="M166.38,-403.48C130.41,-388.79 66,-355.09 66,-302 66,-302 66,-302 66,-244 66,-161.3 168.77,-111.47 225.85,-90.17"/>
<polygon fill="midnightblue" stroke="midnightblue" points="227.4,-93.33 235.61,-86.64 225.01,-86.75 227.4,-93.33"/>
</g>
<!-- Node33 -->
<g id="node33" class="node">
<title>Node33</title>
<g id="a_node33"><a xlink:title=" ">
<polygon fill="white" stroke="#bfbfbf" points="161.5,-347.5 161.5,-366.5 218.5,-366.5 218.5,-347.5 161.5,-347.5"/>
<text text-anchor="middle" x="190" y="-354.5" font-family="Helvetica,sans-Serif" font-size="10.00">ostream</text>
</a>
</g>
</g>
<!-- Node32&#45;&gt;Node33 -->
<g id="edge48" class="edge">
<title>Node32&#45;&gt;Node33</title>
<path fill="none" stroke="midnightblue" d="M190,-403.08C190,-396.01 190,-385.86 190,-376.99"/>
<polygon fill="midnightblue" stroke="midnightblue" points="193.5,-376.75 190,-366.75 186.5,-376.75 193.5,-376.75"/>
</g>
<!-- Node35&#45;&gt;Node8 -->
<g id="edge69" class="edge">
<title>Node35&#45;&gt;Node8</title>
<path fill="none" stroke="midnightblue" d="M886.71,-179.43C865.84,-166.2 823.84,-140.5 786,-123 757.68,-109.9 724.39,-98 699.43,-89.73"/>
<polygon fill="midnightblue" stroke="midnightblue" points="700.22,-86.31 689.63,-86.53 698.05,-92.96 700.22,-86.31"/>
</g>
<!-- Node36 -->
<g id="node36" class="node">
<title>Node36</title>
<g id="a_node36"><a xlink:href="itkPixelTraits_8h.html" target="_top" xlink:title=" ">
<polygon fill="white" stroke="black" points="871,-123.5 871,-142.5 959,-142.5 959,-123.5 871,-123.5"/>
<text text-anchor="middle" x="915" y="-130.5" font-family="Helvetica,sans-Serif" font-size="10.00">itkPixelTraits.h</text>
</a>
</g>
</g>
<!-- Node35&#45;&gt;Node36 -->
<g id="edge53" class="edge">
<title>Node35&#45;&gt;Node36</title>
<path fill="none" stroke="midnightblue" d="M902.48,-179.08C904.49,-171.85 907.39,-161.41 909.89,-152.4"/>
<polygon fill="midnightblue" stroke="midnightblue" points="913.26,-153.32 912.57,-142.75 906.52,-151.45 913.26,-153.32"/>
</g>
<!-- Node35&#45;&gt;Node37 -->
<g id="edge55" class="edge">
<title>Node35&#45;&gt;Node37</title>
<path fill="none" stroke="midnightblue" d="M920.6,-179.44C941.99,-170.56 975.68,-156.56 1000.02,-146.45"/>
<polygon fill="midnightblue" stroke="midnightblue" points="1001.61,-149.58 1009.5,-142.52 998.92,-143.12 1001.61,-149.58"/>
</g>
<!-- Node36&#45;&gt;Node6 -->
<g id="edge54" class="edge">
<title>Node36&#45;&gt;Node6</title>
<path fill="none" stroke="midnightblue" d="M908.39,-123.32C893.86,-104.26 858.96,-58.45 839.92,-33.46"/>
<polygon fill="midnightblue" stroke="midnightblue" points="842.54,-31.12 833.69,-25.28 836.97,-35.36 842.54,-31.12"/>
</g>
<!-- Node37&#45;&gt;Node6 -->
<g id="edge56" class="edge">
<title>Node37&#45;&gt;Node6</title>
<path fill="none" stroke="midnightblue" d="M1025.57,-123.06C1018.21,-109.09 1002.15,-82.13 981,-67 948.27,-43.59 904.04,-30.58 871.38,-23.65"/>
<polygon fill="midnightblue" stroke="midnightblue" points="871.71,-20.14 861.21,-21.61 870.33,-27.01 871.71,-20.14"/>
</g>
<!-- Node37&#45;&gt;Node10 -->
<g id="edge59" class="edge">
<title>Node37&#45;&gt;Node10</title>
<path fill="none" stroke="midnightblue" d="M984.84,-123.44C931.31,-113.3 842.69,-96.51 789.47,-86.43"/>
<polygon fill="midnightblue" stroke="midnightblue" points="790.12,-82.99 779.64,-84.56 788.81,-89.86 790.12,-82.99"/>
</g>
<!-- Node38 -->
<g id="node38" class="node">
<title>Node38</title>
<g id="a_node38"><a xlink:title=" ">
<polygon fill="white" stroke="#bfbfbf" points="1066,-67.5 1066,-86.5 1110,-86.5 1110,-67.5 1066,-67.5"/>
<text text-anchor="middle" x="1088" y="-74.5" font-family="Helvetica,sans-Serif" font-size="10.00">limits</text>
</a>
</g>
</g>
<!-- Node37&#45;&gt;Node38 -->
<g id="edge57" class="edge">
<title>Node37&#45;&gt;Node38</title>
<path fill="none" stroke="midnightblue" d="M1039.32,-123.32C1047.89,-115.34 1060.81,-103.31 1071.19,-93.65"/>
<polygon fill="midnightblue" stroke="midnightblue" points="1073.58,-96.21 1078.51,-86.83 1068.81,-91.09 1073.58,-96.21"/>
</g>
<!-- Node39 -->
<g id="node39" class="node">
<title>Node39</title>
<g id="a_node39"><a xlink:title=" ">
<polygon fill="white" stroke="#bfbfbf" points="912.5,-67.5 912.5,-86.5 971.5,-86.5 971.5,-67.5 912.5,-67.5"/>
<text text-anchor="middle" x="942" y="-74.5" font-family="Helvetica,sans-Serif" font-size="10.00">complex</text>
</a>
</g>
</g>
<!-- Node37&#45;&gt;Node39 -->
<g id="edge58" class="edge">
<title>Node37&#45;&gt;Node39</title>
<path fill="none" stroke="midnightblue" d="M1015.86,-123.32C1002.13,-114.9 981.06,-101.97 964.94,-92.07"/>
<polygon fill="midnightblue" stroke="midnightblue" points="966.46,-88.9 956.1,-86.65 962.8,-94.87 966.46,-88.9"/>
</g>
<!-- Node40 -->
<g id="node40" class="node">
<title>Node40</title>
<g id="a_node40"><a xlink:href="itkFixedArray_8h.html" target="_top" xlink:title=" ">
<polygon fill="white" stroke="black" points="1128.5,-67.5 1128.5,-86.5 1217.5,-86.5 1217.5,-67.5 1128.5,-67.5"/>
<text text-anchor="middle" x="1173" y="-74.5" font-family="Helvetica,sans-Serif" font-size="10.00">itkFixedArray.h</text>
</a>
</g>
</g>
<!-- Node37&#45;&gt;Node40 -->
<g id="edge60" class="edge">
<title>Node37&#45;&gt;Node40</title>
<path fill="none" stroke="midnightblue" d="M1052.66,-123.44C1076.4,-114.48 1113.91,-100.31 1140.74,-90.18"/>
<polygon fill="midnightblue" stroke="midnightblue" points="1142.33,-93.32 1150.45,-86.52 1139.86,-86.77 1142.33,-93.32"/>
</g>
<!-- Node40&#45;&gt;Node6 -->
<g id="edge61" class="edge">
<title>Node40&#45;&gt;Node6</title>
<path fill="none" stroke="midnightblue" d="M1128.47,-68.34C1062.12,-56.93 938,-35.59 871.6,-24.17"/>
<polygon fill="midnightblue" stroke="midnightblue" points="871.91,-20.67 861.46,-22.43 870.72,-27.57 871.91,-20.67"/>
</g>
<!-- Node40&#45;&gt;Node23 -->
<g id="edge63" class="edge">
<title>Node40&#45;&gt;Node23</title>
<path fill="none" stroke="midnightblue" d="M1128.27,-68.1C1125.14,-67.68 1122.03,-67.31 1119,-67 715.03,-25.54 607.18,-93.96 206,-31 200.75,-30.18 195.28,-29.01 189.94,-27.69"/>
<polygon fill="midnightblue" stroke="midnightblue" points="190.49,-24.21 179.93,-25.01 188.68,-30.97 190.49,-24.21"/>
</g>
<!-- Node41 -->
<g id="node41" class="node">
<title>Node41</title>
<g id="a_node41"><a xlink:href="itkMakeFilled_8h.html" target="_top" xlink:title=" ">
<polygon fill="white" stroke="black" points="1320.5,-6 1320.5,-25 1411.5,-25 1411.5,-6 1320.5,-6"/>
<text text-anchor="middle" x="1366" y="-13" font-family="Helvetica,sans-Serif" font-size="10.00">itkMakeFilled.h</text>
</a>
</g>
</g>
<!-- Node40&#45;&gt;Node41 -->
<g id="edge62" class="edge">
<title>Node40&#45;&gt;Node41</title>
<path fill="none" stroke="midnightblue" d="M1200.65,-67.48C1234.19,-57.14 1290.87,-39.66 1328.37,-28.1"/>
<polygon fill="midnightblue" stroke="midnightblue" points="1329.87,-31.3 1338.4,-25.01 1327.81,-24.61 1329.87,-31.3"/>
</g>
<!-- Node42 -->
<g id="node42" class="node">
<title>Node42</title>
<g id="a_node42"><a xlink:title=" ">
<polygon fill="white" stroke="#bfbfbf" points="1141,-6 1141,-25 1183,-25 1183,-6 1141,-6"/>
<text text-anchor="middle" x="1162" y="-13" font-family="Helvetica,sans-Serif" font-size="10.00">array</text>
</a>
</g>
</g>
<!-- Node40&#45;&gt;Node42 -->
<g id="edge64" class="edge">
<title>Node40&#45;&gt;Node42</title>
<path fill="none" stroke="midnightblue" d="M1171.42,-67.48C1169.87,-59.08 1167.45,-45.98 1165.45,-35.16"/>
<polygon fill="midnightblue" stroke="midnightblue" points="1168.83,-34.21 1163.57,-25.01 1161.95,-35.48 1168.83,-34.21"/>
</g>
<!-- Node43 -->
<g id="node43" class="node">
<title>Node43</title>
<g id="a_node43"><a xlink:title=" ">
<polygon fill="white" stroke="#bfbfbf" points="1201.5,-6 1201.5,-25 1302.5,-25 1302.5,-6 1201.5,-6"/>
<text text-anchor="middle" x="1252" y="-13" font-family="Helvetica,sans-Serif" font-size="10.00">itkFixedArray.hxx</text>
</a>
</g>
</g>
<!-- Node40&#45;&gt;Node43 -->
<g id="edge65" class="edge">
<title>Node40&#45;&gt;Node43</title>
<path fill="none" stroke="midnightblue" d="M1184.32,-67.48C1196.87,-58.02 1217.35,-42.6 1232.5,-31.19"/>
<polygon fill="midnightblue" stroke="midnightblue" points="1234.82,-33.82 1240.7,-25.01 1230.61,-28.23 1234.82,-33.82"/>
</g>
<!-- Node44 -->
<g id="node44" class="node">
<title>Node44</title>
<g id="a_node44"><a xlink:href="itkNumericTraitsFixedArrayPixel_8h.html" target="_top" xlink:title=" ">
<polygon fill="white" stroke="black" points="974.5,-0.5 974.5,-30.5 1123.5,-30.5 1123.5,-0.5 974.5,-0.5"/>
<text text-anchor="start" x="982.5" y="-18.5" font-family="Helvetica,sans-Serif" font-size="10.00">itkNumericTraitsFixedArray</text>
<text text-anchor="middle" x="1049" y="-7.5" font-family="Helvetica,sans-Serif" font-size="10.00">Pixel.h</text>
</a>
</g>
</g>
<!-- Node40&#45;&gt;Node44 -->
<g id="edge66" class="edge">
<title>Node40&#45;&gt;Node44</title>
<path fill="none" stroke="midnightblue" d="M1150.33,-67.48C1131,-59.08 1103.22,-45.97 1081.56,-35.15"/>
<polygon fill="midnightblue" stroke="midnightblue" points="1082.9,-31.91 1072.39,-30.52 1079.74,-38.16 1082.9,-31.91"/>
</g>
<!-- Node44&#45;&gt;Node37 -->
<g id="edge67" class="edge">
<title>Node44&#45;&gt;Node37</title>
<path fill="none" stroke="midnightblue" d="M1046.69,-30.55C1043.27,-51.32 1036.87,-90.26 1033.06,-113.38"/>
<polygon fill="midnightblue" stroke="midnightblue" points="1029.6,-112.88 1031.43,-123.32 1036.5,-114.02 1029.6,-112.88"/>
</g>
<!-- Node44&#45;&gt;Node40 -->
<g id="edge68" class="edge">
<title>Node44&#45;&gt;Node40</title>
<path fill="none" stroke="midnightblue" d="M1084.05,-30.52C1105.67,-40.29 1132.6,-53.23 1151.22,-62.81"/>
<polygon fill="midnightblue" stroke="midnightblue" points="1149.65,-65.93 1160.13,-67.48 1152.9,-59.73 1149.65,-65.93"/>
</g>
<!-- Node45&#45;&gt;Node35 -->
<g id="edge78" class="edge">
<title>Node45&#45;&gt;Node35</title>
<path fill="none" stroke="midnightblue" d="M1066.81,-571.27C1040.68,-554.98 990,-517.3 990,-470 990,-470 990,-470 990,-356 990,-294.54 941.72,-234.06 915.89,-206.1"/>
<polygon fill="midnightblue" stroke="midnightblue" points="918.38,-203.64 908.96,-198.8 913.3,-208.46 918.38,-203.64"/>
</g>
<!-- Node46 -->
<g id="node46" class="node">
<title>Node46</title>
<g id="a_node46"><a xlink:title=" ">
<polygon fill="white" stroke="#bfbfbf" points="1056,-515.5 1056,-534.5 1108,-534.5 1108,-515.5 1056,-515.5"/>
<text text-anchor="middle" x="1082" y="-522.5" font-family="Helvetica,sans-Serif" font-size="10.00">cassert</text>
</a>
</g>
</g>
<!-- Node45&#45;&gt;Node46 -->
<g id="edge72" class="edge">
<title>Node45&#45;&gt;Node46</title>
<path fill="none" stroke="midnightblue" d="M1082,-571.08C1082,-564.01 1082,-553.86 1082,-544.99"/>
<polygon fill="midnightblue" stroke="midnightblue" points="1085.5,-544.75 1082,-534.75 1078.5,-544.75 1085.5,-544.75"/>
</g>
<!-- Node45&#45;&gt;Node47 -->
<g id="edge73" class="edge">
<title>Node45&#45;&gt;Node47</title>
<path fill="none" stroke="midnightblue" d="M1113.63,-575.01C1158.34,-567.76 1242.78,-553.39 1324.34,-534.99"/>
<polygon fill="midnightblue" stroke="midnightblue" points="1325.29,-538.36 1334.27,-532.73 1323.74,-531.54 1325.29,-538.36"/>
</g>
<!-- Node48 -->
<g id="node48" class="node">
<title>Node48</title>
<g id="a_node48"><a xlink:href="itkMathDetail_8h.html" target="_top" xlink:title=" ">
<polygon fill="white" stroke="black" points="1018,-179.5 1018,-198.5 1110,-198.5 1110,-179.5 1018,-179.5"/>
<text text-anchor="middle" x="1064" y="-186.5" font-family="Helvetica,sans-Serif" font-size="10.00">itkMathDetail.h</text>
</a>
</g>
</g>
<!-- Node45&#45;&gt;Node48 -->
<g id="edge74" class="edge">
<title>Node45&#45;&gt;Node48</title>
<path fill="none" stroke="midnightblue" d="M1073.67,-571.39C1065.78,-562.8 1054.12,-548.92 1047,-535 1033.3,-508.2 1028,-500.1 1028,-470 1028,-470 1028,-470 1028,-300 1028,-265.98 1043.74,-228.85 1054.41,-207.6"/>
<polygon fill="midnightblue" stroke="midnightblue" points="1057.62,-209.01 1059.14,-198.53 1051.41,-205.77 1057.62,-209.01"/>
</g>
<!-- Node50 -->
<g id="node50" class="node">
<title>Node50</title>
<g id="a_node50"><a xlink:title=" ">
<polygon fill="white" stroke="#bfbfbf" points="1126.5,-515.5 1126.5,-534.5 1215.5,-534.5 1215.5,-515.5 1126.5,-515.5"/>
<text text-anchor="middle" x="1171" y="-522.5" font-family="Helvetica,sans-Serif" font-size="10.00">vnl/vnl_math.h</text>
</a>
</g>
</g>
<!-- Node45&#45;&gt;Node50 -->
<g id="edge79" class="edge">
<title>Node45&#45;&gt;Node50</title>
<path fill="none" stroke="midnightblue" d="M1096.3,-571.32C1110.18,-562.9 1131.49,-549.97 1147.8,-540.07"/>
<polygon fill="midnightblue" stroke="midnightblue" points="1150,-542.83 1156.74,-534.65 1146.37,-536.85 1150,-542.83"/>
</g>
<!-- Node51 -->
<g id="node51" class="node">
<title>Node51</title>
<g id="a_node51"><a xlink:title=" ">
<polygon fill="white" stroke="#bfbfbf" points="1234,-515.5 1234,-534.5 1316,-534.5 1316,-515.5 1234,-515.5"/>
<text text-anchor="middle" x="1275" y="-522.5" font-family="Helvetica,sans-Serif" font-size="10.00">vxl_version.h</text>
</a>
</g>
</g>
<!-- Node45&#45;&gt;Node51 -->
<g id="edge80" class="edge">
<title>Node45&#45;&gt;Node51</title>
<path fill="none" stroke="midnightblue" d="M1112.58,-571.44C1145.61,-562.2 1198.39,-547.44 1234.77,-537.26"/>
<polygon fill="midnightblue" stroke="midnightblue" points="1235.87,-540.58 1244.56,-534.52 1233.99,-533.84 1235.87,-540.58"/>
</g>
<!-- Node48&#45;&gt;Node13 -->
<g id="edge75" class="edge">
<title>Node48&#45;&gt;Node13</title>
<path fill="none" stroke="midnightblue" d="M1017.66,-183.33C1002.76,-181.88 986.19,-180.32 971,-179 763.17,-160.95 708.58,-178.42 503,-143 428.69,-130.2 344.04,-104.6 297.77,-89.63"/>
<polygon fill="midnightblue" stroke="midnightblue" points="298.81,-86.29 288.22,-86.52 296.64,-92.95 298.81,-86.29"/>
</g>
<!-- Node48&#45;&gt;Node37 -->
<g id="edge76" class="edge">
<title>Node48&#45;&gt;Node37</title>
<path fill="none" stroke="midnightblue" d="M1058.39,-179.08C1053.63,-171.53 1046.68,-160.49 1040.85,-151.23"/>
<polygon fill="midnightblue" stroke="midnightblue" points="1043.8,-149.35 1035.51,-142.75 1037.88,-153.08 1043.8,-149.35"/>
</g>
<!-- Node49 -->
<g id="node49" class="node">
<title>Node49</title>
<g id="a_node49"><a xlink:title=" ">
<polygon fill="white" stroke="#bfbfbf" points="1101,-123.5 1101,-142.5 1145,-142.5 1145,-123.5 1101,-123.5"/>
<text text-anchor="middle" x="1123" y="-130.5" font-family="Helvetica,sans-Serif" font-size="10.00">cfenv</text>
</a>
</g>
</g>
<!-- Node48&#45;&gt;Node49 -->
<g id="edge77" class="edge">
<title>Node48&#45;&gt;Node49</title>
<path fill="none" stroke="midnightblue" d="M1073.48,-179.32C1082.2,-171.34 1095.34,-159.31 1105.9,-149.65"/>
<polygon fill="midnightblue" stroke="midnightblue" points="1108.33,-152.17 1113.35,-142.83 1103.61,-147 1108.33,-152.17"/>
</g>
</g>
</svg>
