<?xml version="1.0" encoding="UTF-8" standalone="no"?>
<!DOCTYPE svg PUBLIC "-//W3C//DTD SVG 1.1//EN"
 "http://www.w3.org/Graphics/SVG/1.1/DTD/svg11.dtd">
<!-- Generated by graphviz version 2.43.0 (0)
 -->
<!-- Title: itkGaussianDistribution.h Pages: 1 -->
<svg width="1327pt" height="644pt"
 viewBox="0.00 0.00 1326.50 644.00" xmlns="http://www.w3.org/2000/svg" xmlns:xlink="http://www.w3.org/1999/xlink">
<g id="graph0" class="graph" transform="scale(1 1) rotate(0) translate(4 640)">
<title>itkGaussianDistribution.h</title>
<polygon fill="white" stroke="transparent" points="-4,4 -4,-640 1322.5,-640 1322.5,4 -4,4"/>
<!-- Node1 -->
<g id="node1" class="node">
<title>Node1</title>
<g id="a_node1"><a xlink:title=" ">
<polygon fill="#bfbfbf" stroke="black" points="1058.5,-616.5 1058.5,-635.5 1198.5,-635.5 1198.5,-616.5 1058.5,-616.5"/>
<text text-anchor="middle" x="1128.5" y="-623.5" font-family="Helvetica,sans-Serif" font-size="10.00">itkGaussianDistribution.h</text>
</a>
</g>
</g>
<!-- Node2 -->
<g id="node2" class="node">
<title>Node2</title>
<g id="a_node2"><a xlink:href="itkProbabilityDistribution_8h.html" target="_top" xlink:title=" ">
<polygon fill="white" stroke="black" points="1003.5,-560.5 1003.5,-579.5 1151.5,-579.5 1151.5,-560.5 1003.5,-560.5"/>
<text text-anchor="middle" x="1077.5" y="-567.5" font-family="Helvetica,sans-Serif" font-size="10.00">itkProbabilityDistribution.h</text>
</a>
</g>
</g>
<!-- Node1&#45;&gt;Node2 -->
<g id="edge1" class="edge">
<title>Node1&#45;&gt;Node2</title>
<path fill="none" stroke="midnightblue" d="M1120.08,-616.08C1112.65,-608.22 1101.65,-596.57 1092.69,-587.08"/>
<polygon fill="midnightblue" stroke="midnightblue" points="1095.18,-584.62 1085.76,-579.75 1090.09,-589.42 1095.18,-584.62"/>
</g>
<!-- Node38 -->
<g id="node38" class="node">
<title>Node38</title>
<g id="a_node38"><a xlink:title=" ">
<polygon fill="white" stroke="#bfbfbf" points="1200.5,-504.5 1200.5,-523.5 1318.5,-523.5 1318.5,-504.5 1200.5,-504.5"/>
<text text-anchor="middle" x="1259.5" y="-511.5" font-family="Helvetica,sans-Serif" font-size="10.00">ITKStatisticsExport.h</text>
</a>
</g>
</g>
<!-- Node1&#45;&gt;Node38 -->
<g id="edge58" class="edge">
<title>Node1&#45;&gt;Node38</title>
<path fill="none" stroke="midnightblue" d="M1138.78,-616.37C1160.97,-597.73 1213.61,-553.53 1241.48,-530.13"/>
<polygon fill="midnightblue" stroke="midnightblue" points="1243.86,-532.7 1249.27,-523.59 1239.36,-527.34 1243.86,-532.7"/>
</g>
<!-- Node3 -->
<g id="node3" class="node">
<title>Node3</title>
<g id="a_node3"><a xlink:href="itkIntTypes_8h.html" target="_top" xlink:title=" ">
<polygon fill="white" stroke="black" points="973,-56.5 973,-75.5 1052,-75.5 1052,-56.5 973,-56.5"/>
<text text-anchor="middle" x="1012.5" y="-63.5" font-family="Helvetica,sans-Serif" font-size="10.00">itkIntTypes.h</text>
</a>
</g>
</g>
<!-- Node2&#45;&gt;Node3 -->
<g id="edge2" class="edge">
<title>Node2&#45;&gt;Node3</title>
<path fill="none" stroke="midnightblue" d="M1093.19,-560.4C1120.17,-544.31 1172.5,-506.94 1172.5,-459 1172.5,-459 1172.5,-459 1172.5,-177 1172.5,-122.24 1108.08,-92.68 1060.99,-78.4"/>
<polygon fill="midnightblue" stroke="midnightblue" points="1061.81,-74.99 1051.23,-75.57 1059.87,-81.71 1061.81,-74.99"/>
</g>
<!-- Node7 -->
<g id="node7" class="node">
<title>Node7</title>
<g id="a_node7"><a xlink:href="itkObject_8h.html" target="_top" xlink:title=" ">
<polygon fill="white" stroke="black" points="659.5,-336.5 659.5,-355.5 729.5,-355.5 729.5,-336.5 659.5,-336.5"/>
<text text-anchor="middle" x="694.5" y="-343.5" font-family="Helvetica,sans-Serif" font-size="10.00">itkObject.h</text>
</a>
</g>
</g>
<!-- Node2&#45;&gt;Node7 -->
<g id="edge6" class="edge">
<title>Node2&#45;&gt;Node7</title>
<path fill="none" stroke="midnightblue" d="M1003.3,-562.65C912.6,-550.47 762.66,-514.99 693.5,-412 684.46,-398.54 685.88,-379.73 688.87,-365.8"/>
<polygon fill="midnightblue" stroke="midnightblue" points="692.32,-366.44 691.43,-355.88 685.54,-364.69 692.32,-366.44"/>
</g>
<!-- Node28 -->
<g id="node28" class="node">
<title>Node28</title>
<g id="a_node28"><a xlink:href="itkObjectFactory_8h.html" target="_top" xlink:title=" ">
<polygon fill="white" stroke="black" points="993.5,-504.5 993.5,-523.5 1097.5,-523.5 1097.5,-504.5 993.5,-504.5"/>
<text text-anchor="middle" x="1045.5" y="-511.5" font-family="Helvetica,sans-Serif" font-size="10.00">itkObjectFactory.h</text>
</a>
</g>
</g>
<!-- Node2&#45;&gt;Node28 -->
<g id="edge41" class="edge">
<title>Node2&#45;&gt;Node28</title>
<path fill="none" stroke="midnightblue" d="M1072.22,-560.08C1067.79,-552.61 1061.34,-541.72 1055.88,-532.52"/>
<polygon fill="midnightblue" stroke="midnightblue" points="1058.79,-530.57 1050.69,-523.75 1052.77,-534.14 1058.79,-530.57"/>
</g>
<!-- Node34 -->
<g id="node34" class="node">
<title>Node34</title>
<g id="a_node34"><a xlink:href="itkArray_8h.html" target="_top" xlink:title=" ">
<polygon fill="white" stroke="black" points="172,-504.5 172,-523.5 235,-523.5 235,-504.5 172,-504.5"/>
<text text-anchor="middle" x="203.5" y="-511.5" font-family="Helvetica,sans-Serif" font-size="10.00">itkArray.h</text>
</a>
</g>
</g>
<!-- Node2&#45;&gt;Node34 -->
<g id="edge52" class="edge">
<title>Node2&#45;&gt;Node34</title>
<path fill="none" stroke="midnightblue" d="M1003.36,-564.42C826.41,-553.49 383.83,-526.14 245.5,-517.59"/>
<polygon fill="midnightblue" stroke="midnightblue" points="245.51,-514.09 235.32,-516.97 245.08,-521.08 245.51,-514.09"/>
</g>
<!-- Node2&#45;&gt;Node38 -->
<g id="edge57" class="edge">
<title>Node2&#45;&gt;Node38</title>
<path fill="none" stroke="midnightblue" d="M1106.34,-560.44C1137.36,-551.24 1186.83,-536.56 1221.12,-526.39"/>
<polygon fill="midnightblue" stroke="midnightblue" points="1222.21,-529.72 1230.8,-523.52 1220.21,-523.01 1222.21,-529.72"/>
</g>
<!-- Node4 -->
<g id="node4" class="node">
<title>Node4</title>
<g id="a_node4"><a xlink:href="itkMacro_8h.html" target="_top" xlink:title=" ">
<polygon fill="white" stroke="black" points="264.5,-0.5 264.5,-19.5 332.5,-19.5 332.5,-0.5 264.5,-0.5"/>
<text text-anchor="middle" x="298.5" y="-7.5" font-family="Helvetica,sans-Serif" font-size="10.00">itkMacro.h</text>
</a>
</g>
</g>
<!-- Node3&#45;&gt;Node4 -->
<g id="edge3" class="edge">
<title>Node3&#45;&gt;Node4</title>
<path fill="none" stroke="midnightblue" d="M972.61,-61.26C954.3,-59.58 932.31,-57.62 912.5,-56 699.27,-38.59 444.11,-20.89 342.95,-14"/>
<polygon fill="midnightblue" stroke="midnightblue" points="343.01,-10.5 332.8,-13.31 342.54,-17.48 343.01,-10.5"/>
</g>
<!-- Node5 -->
<g id="node5" class="node">
<title>Node5</title>
<g id="a_node5"><a xlink:title=" ">
<polygon fill="white" stroke="#bfbfbf" points="953.5,-0.5 953.5,-19.5 1003.5,-19.5 1003.5,-0.5 953.5,-0.5"/>
<text text-anchor="middle" x="978.5" y="-7.5" font-family="Helvetica,sans-Serif" font-size="10.00">cstdint</text>
</a>
</g>
</g>
<!-- Node3&#45;&gt;Node5 -->
<g id="edge4" class="edge">
<title>Node3&#45;&gt;Node5</title>
<path fill="none" stroke="midnightblue" d="M1006.89,-56.08C1002.13,-48.53 995.18,-37.49 989.35,-28.23"/>
<polygon fill="midnightblue" stroke="midnightblue" points="992.3,-26.35 984.01,-19.75 986.38,-30.08 992.3,-26.35"/>
</g>
<!-- Node6 -->
<g id="node6" class="node">
<title>Node6</title>
<g id="a_node6"><a xlink:title=" ">
<polygon fill="white" stroke="#bfbfbf" points="1021.5,-0.5 1021.5,-19.5 1071.5,-19.5 1071.5,-0.5 1021.5,-0.5"/>
<text text-anchor="middle" x="1046.5" y="-7.5" font-family="Helvetica,sans-Serif" font-size="10.00">climits</text>
</a>
</g>
</g>
<!-- Node3&#45;&gt;Node6 -->
<g id="edge5" class="edge">
<title>Node3&#45;&gt;Node6</title>
<path fill="none" stroke="midnightblue" d="M1018.11,-56.08C1022.87,-48.53 1029.82,-37.49 1035.65,-28.23"/>
<polygon fill="midnightblue" stroke="midnightblue" points="1038.62,-30.08 1040.99,-19.75 1032.7,-26.35 1038.62,-30.08"/>
</g>
<!-- Node8 -->
<g id="node8" class="node">
<title>Node8</title>
<g id="a_node8"><a xlink:href="itkLightObject_8h.html" target="_top" xlink:title=" ">
<polygon fill="white" stroke="black" points="424.5,-168.5 424.5,-187.5 518.5,-187.5 518.5,-168.5 424.5,-168.5"/>
<text text-anchor="middle" x="471.5" y="-175.5" font-family="Helvetica,sans-Serif" font-size="10.00">itkLightObject.h</text>
</a>
</g>
</g>
<!-- Node7&#45;&gt;Node8 -->
<g id="edge7" class="edge">
<title>Node7&#45;&gt;Node8</title>
<path fill="none" stroke="midnightblue" d="M659.31,-345.63C593.39,-344.64 452.44,-331.8 391.5,-244 375.94,-221.58 407.31,-202.8 435.22,-191.29"/>
<polygon fill="midnightblue" stroke="midnightblue" points="436.83,-194.42 444.87,-187.52 434.28,-187.9 436.83,-194.42"/>
</g>
<!-- Node16 -->
<g id="node16" class="node">
<title>Node16</title>
<g id="a_node16"><a xlink:href="itkSingletonMacro_8h.html" target="_top" xlink:title=" ">
<polygon fill="white" stroke="black" points="789.5,-56.5 789.5,-75.5 903.5,-75.5 903.5,-56.5 789.5,-56.5"/>
<text text-anchor="middle" x="846.5" y="-63.5" font-family="Helvetica,sans-Serif" font-size="10.00">itkSingletonMacro.h</text>
</a>
</g>
</g>
<!-- Node7&#45;&gt;Node16 -->
<g id="edge38" class="edge">
<title>Node7&#45;&gt;Node16</title>
<path fill="none" stroke="midnightblue" d="M729.75,-341.31C757.44,-336.5 794.83,-325.43 816.5,-300 869.68,-237.59 857.84,-129.51 850.3,-85.98"/>
<polygon fill="midnightblue" stroke="midnightblue" points="853.7,-85.13 848.43,-75.93 846.82,-86.41 853.7,-85.13"/>
</g>
<!-- Node19 -->
<g id="node19" class="node">
<title>Node19</title>
<g id="a_node19"><a xlink:href="itkEventObject_8h.html" target="_top" xlink:title=" ">
<polygon fill="white" stroke="black" points="255.5,-168.5 255.5,-187.5 353.5,-187.5 353.5,-168.5 255.5,-168.5"/>
<text text-anchor="middle" x="304.5" y="-175.5" font-family="Helvetica,sans-Serif" font-size="10.00">itkEventObject.h</text>
</a>
</g>
</g>
<!-- Node7&#45;&gt;Node19 -->
<g id="edge25" class="edge">
<title>Node7&#45;&gt;Node19</title>
<path fill="none" stroke="midnightblue" d="M659.27,-345.78C605.75,-345.56 502.11,-339.46 425.5,-300 376.59,-274.81 335.13,-222.76 315.93,-195.88"/>
<polygon fill="midnightblue" stroke="midnightblue" points="318.68,-193.71 310.09,-187.51 312.94,-197.71 318.68,-193.71"/>
</g>
<!-- Node20 -->
<g id="node20" class="node">
<title>Node20</title>
<g id="a_node20"><a xlink:href="itkMetaDataDictionary_8h.html" target="_top" xlink:title=" ">
<polygon fill="white" stroke="black" points="551,-280.5 551,-299.5 686,-299.5 686,-280.5 551,-280.5"/>
<text text-anchor="middle" x="618.5" y="-287.5" font-family="Helvetica,sans-Serif" font-size="10.00">itkMetaDataDictionary.h</text>
</a>
</g>
</g>
<!-- Node7&#45;&gt;Node20 -->
<g id="edge28" class="edge">
<title>Node7&#45;&gt;Node20</title>
<path fill="none" stroke="midnightblue" d="M682.29,-336.32C670.72,-328.11 653.12,-315.6 639.34,-305.81"/>
<polygon fill="midnightblue" stroke="midnightblue" points="641.11,-302.77 630.93,-299.83 637.06,-308.48 641.11,-302.77"/>
</g>
<!-- Node26 -->
<g id="node26" class="node">
<title>Node26</title>
<g id="a_node26"><a xlink:title=" ">
<polygon fill="white" stroke="#bfbfbf" points="760.5,-224.5 760.5,-243.5 818.5,-243.5 818.5,-224.5 760.5,-224.5"/>
<text text-anchor="middle" x="789.5" y="-231.5" font-family="Helvetica,sans-Serif" font-size="10.00">memory</text>
</a>
</g>
</g>
<!-- Node7&#45;&gt;Node26 -->
<g id="edge40" class="edge">
<title>Node7&#45;&gt;Node26</title>
<path fill="none" stroke="midnightblue" d="M698.45,-336.37C704.69,-323.29 717.76,-298.05 733.5,-280 743.59,-268.43 756.92,-257.58 768.05,-249.44"/>
<polygon fill="midnightblue" stroke="midnightblue" points="770.26,-252.16 776.39,-243.52 766.21,-246.45 770.26,-252.16"/>
</g>
<!-- Node27 -->
<g id="node27" class="node">
<title>Node27</title>
<g id="a_node27"><a xlink:title=" ">
<polygon fill="white" stroke="#bfbfbf" points="743,-280.5 743,-299.5 808,-299.5 808,-280.5 743,-280.5"/>
<text text-anchor="middle" x="775.5" y="-287.5" font-family="Helvetica,sans-Serif" font-size="10.00">functional</text>
</a>
</g>
</g>
<!-- Node7&#45;&gt;Node27 -->
<g id="edge39" class="edge">
<title>Node7&#45;&gt;Node27</title>
<path fill="none" stroke="midnightblue" d="M707.51,-336.32C720.03,-327.98 739.18,-315.21 753.97,-305.35"/>
<polygon fill="midnightblue" stroke="midnightblue" points="756.14,-308.11 762.52,-299.65 752.26,-302.29 756.14,-308.11"/>
</g>
<!-- Node8&#45;&gt;Node4 -->
<g id="edge8" class="edge">
<title>Node8&#45;&gt;Node4</title>
<path fill="none" stroke="midnightblue" d="M455.54,-168.28C428.26,-152.73 372.18,-117.89 336.5,-76 324.21,-61.57 313.65,-42.63 306.8,-28.92"/>
<polygon fill="midnightblue" stroke="midnightblue" points="309.81,-27.11 302.32,-19.61 303.51,-30.14 309.81,-27.11"/>
</g>
<!-- Node9 -->
<g id="node9" class="node">
<title>Node9</title>
<g id="a_node9"><a xlink:href="itkSmartPointer_8h.html" target="_top" xlink:title=" ">
<polygon fill="white" stroke="black" points="414,-112.5 414,-131.5 515,-131.5 515,-112.5 414,-112.5"/>
<text text-anchor="middle" x="464.5" y="-119.5" font-family="Helvetica,sans-Serif" font-size="10.00">itkSmartPointer.h</text>
</a>
</g>
</g>
<!-- Node8&#45;&gt;Node9 -->
<g id="edge9" class="edge">
<title>Node8&#45;&gt;Node9</title>
<path fill="none" stroke="midnightblue" d="M470.34,-168.08C469.42,-160.93 468.08,-150.64 466.92,-141.69"/>
<polygon fill="midnightblue" stroke="midnightblue" points="470.39,-141.22 465.63,-131.75 463.45,-142.12 470.39,-141.22"/>
</g>
<!-- Node10 -->
<g id="node10" class="node">
<title>Node10</title>
<g id="a_node10"><a xlink:title=" ">
<polygon fill="white" stroke="#bfbfbf" points="599.5,-56.5 599.5,-75.5 659.5,-75.5 659.5,-56.5 599.5,-56.5"/>
<text text-anchor="middle" x="629.5" y="-63.5" font-family="Helvetica,sans-Serif" font-size="10.00">iostream</text>
</a>
</g>
</g>
<!-- Node8&#45;&gt;Node10 -->
<g id="edge23" class="edge">
<title>Node8&#45;&gt;Node10</title>
<path fill="none" stroke="midnightblue" d="M483.9,-168.37C510.9,-149.57 575.25,-104.77 608.62,-81.53"/>
<polygon fill="midnightblue" stroke="midnightblue" points="610.95,-84.18 617.16,-75.59 606.95,-78.43 610.95,-84.18"/>
</g>
<!-- Node14 -->
<g id="node14" class="node">
<title>Node14</title>
<g id="a_node14"><a xlink:href="itkTimeStamp_8h.html" target="_top" xlink:title=" ">
<polygon fill="white" stroke="black" points="648,-112.5 648,-131.5 743,-131.5 743,-112.5 648,-112.5"/>
<text text-anchor="middle" x="695.5" y="-119.5" font-family="Helvetica,sans-Serif" font-size="10.00">itkTimeStamp.h</text>
</a>
</g>
</g>
<!-- Node8&#45;&gt;Node14 -->
<g id="edge14" class="edge">
<title>Node8&#45;&gt;Node14</title>
<path fill="none" stroke="midnightblue" d="M506.99,-168.44C545.82,-159.08 608.16,-144.06 650.42,-133.87"/>
<polygon fill="midnightblue" stroke="midnightblue" points="651.27,-137.26 660.17,-131.52 649.63,-130.46 651.27,-137.26"/>
</g>
<!-- Node15 -->
<g id="node15" class="node">
<title>Node15</title>
<g id="a_node15"><a xlink:title=" ">
<polygon fill="white" stroke="#bfbfbf" points="677.5,-56.5 677.5,-75.5 727.5,-75.5 727.5,-56.5 677.5,-56.5"/>
<text text-anchor="middle" x="702.5" y="-63.5" font-family="Helvetica,sans-Serif" font-size="10.00">atomic</text>
</a>
</g>
</g>
<!-- Node8&#45;&gt;Node15 -->
<g id="edge22" class="edge">
<title>Node8&#45;&gt;Node15</title>
<path fill="none" stroke="midnightblue" d="M489.63,-168.37C530.02,-149.13 627.64,-102.65 675.34,-79.93"/>
<polygon fill="midnightblue" stroke="midnightblue" points="676.93,-83.05 684.46,-75.59 673.92,-76.73 676.93,-83.05"/>
</g>
<!-- Node17 -->
<g id="node17" class="node">
<title>Node17</title>
<g id="a_node17"><a xlink:href="itkIndent_8h.html" target="_top" xlink:title=" ">
<polygon fill="white" stroke="black" points="270,-112.5 270,-131.5 339,-131.5 339,-112.5 270,-112.5"/>
<text text-anchor="middle" x="304.5" y="-119.5" font-family="Helvetica,sans-Serif" font-size="10.00">itkIndent.h</text>
</a>
</g>
</g>
<!-- Node8&#45;&gt;Node17 -->
<g id="edge19" class="edge">
<title>Node8&#45;&gt;Node17</title>
<path fill="none" stroke="midnightblue" d="M445.04,-168.44C416.82,-159.32 371.96,-144.81 340.53,-134.65"/>
<polygon fill="midnightblue" stroke="midnightblue" points="341.43,-131.26 330.84,-131.52 339.28,-137.92 341.43,-131.26"/>
</g>
<!-- Node18 -->
<g id="node18" class="node">
<title>Node18</title>
<g id="a_node18"><a xlink:title=" ">
<polygon fill="white" stroke="#bfbfbf" points="761,-112.5 761,-131.5 818,-131.5 818,-112.5 761,-112.5"/>
<text text-anchor="middle" x="789.5" y="-119.5" font-family="Helvetica,sans-Serif" font-size="10.00">typeinfo</text>
</a>
</g>
</g>
<!-- Node8&#45;&gt;Node18 -->
<g id="edge24" class="edge">
<title>Node8&#45;&gt;Node18</title>
<path fill="none" stroke="midnightblue" d="M518.75,-170.48C572.55,-162.82 663.27,-149.18 751.06,-131.96"/>
<polygon fill="midnightblue" stroke="midnightblue" points="751.79,-135.38 760.92,-130.01 750.43,-128.52 751.79,-135.38"/>
</g>
<!-- Node9&#45;&gt;Node10 -->
<g id="edge10" class="edge">
<title>Node9&#45;&gt;Node10</title>
<path fill="none" stroke="midnightblue" d="M490.64,-112.44C518.52,-103.32 562.85,-88.81 593.9,-78.65"/>
<polygon fill="midnightblue" stroke="midnightblue" points="595.06,-81.95 603.48,-75.52 592.88,-75.3 595.06,-81.95"/>
</g>
<!-- Node11 -->
<g id="node11" class="node">
<title>Node11</title>
<g id="a_node11"><a xlink:title=" ">
<polygon fill="white" stroke="#bfbfbf" points="346,-56.5 346,-75.5 391,-75.5 391,-56.5 346,-56.5"/>
<text text-anchor="middle" x="368.5" y="-63.5" font-family="Helvetica,sans-Serif" font-size="10.00">utility</text>
</a>
</g>
</g>
<!-- Node9&#45;&gt;Node11 -->
<g id="edge11" class="edge">
<title>Node9&#45;&gt;Node11</title>
<path fill="none" stroke="midnightblue" d="M449.08,-112.32C433.96,-103.82 410.68,-90.73 393.03,-80.8"/>
<polygon fill="midnightblue" stroke="midnightblue" points="394.32,-77.51 383.89,-75.65 390.89,-83.61 394.32,-77.51"/>
</g>
<!-- Node12 -->
<g id="node12" class="node">
<title>Node12</title>
<g id="a_node12"><a xlink:title=" ">
<polygon fill="white" stroke="#bfbfbf" points="409,-56.5 409,-75.5 478,-75.5 478,-56.5 409,-56.5"/>
<text text-anchor="middle" x="443.5" y="-63.5" font-family="Helvetica,sans-Serif" font-size="10.00">type_traits</text>
</a>
</g>
</g>
<!-- Node9&#45;&gt;Node12 -->
<g id="edge12" class="edge">
<title>Node9&#45;&gt;Node12</title>
<path fill="none" stroke="midnightblue" d="M461.03,-112.08C458.19,-104.77 454.07,-94.18 450.54,-85.1"/>
<polygon fill="midnightblue" stroke="midnightblue" points="453.79,-83.8 446.9,-75.75 447.27,-86.34 453.79,-83.8"/>
</g>
<!-- Node13 -->
<g id="node13" class="node">
<title>Node13</title>
<g id="a_node13"><a xlink:title=" ">
<polygon fill="white" stroke="#bfbfbf" points="496,-56.5 496,-75.5 581,-75.5 581,-56.5 496,-56.5"/>
<text text-anchor="middle" x="538.5" y="-63.5" font-family="Helvetica,sans-Serif" font-size="10.00">itkConfigure.h</text>
</a>
</g>
</g>
<!-- Node9&#45;&gt;Node13 -->
<g id="edge13" class="edge">
<title>Node9&#45;&gt;Node13</title>
<path fill="none" stroke="midnightblue" d="M476.39,-112.32C487.65,-104.11 504.79,-91.6 518.21,-81.81"/>
<polygon fill="midnightblue" stroke="midnightblue" points="520.38,-84.56 526.39,-75.83 516.25,-78.9 520.38,-84.56"/>
</g>
<!-- Node14&#45;&gt;Node3 -->
<g id="edge16" class="edge">
<title>Node14&#45;&gt;Node3</title>
<path fill="none" stroke="midnightblue" d="M743.3,-112.86C802.49,-102.77 902.81,-85.68 962.85,-75.46"/>
<polygon fill="midnightblue" stroke="midnightblue" points="963.57,-78.88 972.84,-73.76 962.4,-71.98 963.57,-78.88"/>
</g>
<!-- Node14&#45;&gt;Node4 -->
<g id="edge15" class="edge">
<title>Node14&#45;&gt;Node4</title>
<path fill="none" stroke="midnightblue" d="M707.88,-112.37C725.18,-99.27 752.77,-74.03 736.5,-56 710.42,-27.1 448.48,-15.7 342.58,-12.25"/>
<polygon fill="midnightblue" stroke="midnightblue" points="342.64,-8.75 332.54,-11.93 342.42,-15.74 342.64,-8.75"/>
</g>
<!-- Node14&#45;&gt;Node15 -->
<g id="edge17" class="edge">
<title>Node14&#45;&gt;Node15</title>
<path fill="none" stroke="midnightblue" d="M696.66,-112.08C697.58,-104.93 698.92,-94.64 700.08,-85.69"/>
<polygon fill="midnightblue" stroke="midnightblue" points="703.55,-86.12 701.37,-75.75 696.61,-85.22 703.55,-86.12"/>
</g>
<!-- Node14&#45;&gt;Node16 -->
<g id="edge18" class="edge">
<title>Node14&#45;&gt;Node16</title>
<path fill="none" stroke="midnightblue" d="M719.43,-112.44C744.72,-103.4 784.8,-89.06 813.18,-78.92"/>
<polygon fill="midnightblue" stroke="midnightblue" points="814.45,-82.18 822.69,-75.52 812.09,-75.59 814.45,-82.18"/>
</g>
<!-- Node17&#45;&gt;Node4 -->
<g id="edge20" class="edge">
<title>Node17&#45;&gt;Node4</title>
<path fill="none" stroke="midnightblue" d="M304.03,-112.37C303.06,-94.62 300.83,-53.67 299.51,-29.6"/>
<polygon fill="midnightblue" stroke="midnightblue" points="303.01,-29.39 298.97,-19.59 296.02,-29.77 303.01,-29.39"/>
</g>
<!-- Node17&#45;&gt;Node10 -->
<g id="edge21" class="edge">
<title>Node17&#45;&gt;Node10</title>
<path fill="none" stroke="midnightblue" d="M339.28,-116.25C393.1,-108.73 499.71,-93.17 589.5,-76 589.6,-75.98 589.7,-75.96 589.8,-75.94"/>
<polygon fill="midnightblue" stroke="midnightblue" points="590.3,-79.41 599.4,-73.99 588.91,-72.55 590.3,-79.41"/>
</g>
<!-- Node19&#45;&gt;Node4 -->
<g id="edge26" class="edge">
<title>Node19&#45;&gt;Node4</title>
<path fill="none" stroke="midnightblue" d="M291.72,-168.37C281.11,-160.36 266.77,-147.38 260.5,-132 245.75,-95.82 269.71,-51.66 285.8,-27.97"/>
<polygon fill="midnightblue" stroke="midnightblue" points="288.74,-29.86 291.68,-19.68 283.04,-25.81 288.74,-29.86"/>
</g>
<!-- Node19&#45;&gt;Node17 -->
<g id="edge27" class="edge">
<title>Node19&#45;&gt;Node17</title>
<path fill="none" stroke="midnightblue" d="M304.5,-168.08C304.5,-161.01 304.5,-150.86 304.5,-141.99"/>
<polygon fill="midnightblue" stroke="midnightblue" points="308,-141.75 304.5,-131.75 301,-141.75 308,-141.75"/>
</g>
<!-- Node21 -->
<g id="node21" class="node">
<title>Node21</title>
<g id="a_node21"><a xlink:href="itkMetaDataObjectBase_8h.html" target="_top" xlink:title=" ">
<polygon fill="white" stroke="black" points="400.5,-224.5 400.5,-243.5 542.5,-243.5 542.5,-224.5 400.5,-224.5"/>
<text text-anchor="middle" x="471.5" y="-231.5" font-family="Helvetica,sans-Serif" font-size="10.00">itkMetaDataObjectBase.h</text>
</a>
</g>
</g>
<!-- Node20&#45;&gt;Node21 -->
<g id="edge29" class="edge">
<title>Node20&#45;&gt;Node21</title>
<path fill="none" stroke="midnightblue" d="M595.21,-280.44C570.69,-271.44 531.9,-257.19 504.3,-247.05"/>
<polygon fill="midnightblue" stroke="midnightblue" points="505.28,-243.68 494.68,-243.52 502.86,-250.25 505.28,-243.68"/>
</g>
<!-- Node22 -->
<g id="node22" class="node">
<title>Node22</title>
<g id="a_node22"><a xlink:title=" ">
<polygon fill="white" stroke="#bfbfbf" points="678.5,-224.5 678.5,-243.5 742.5,-243.5 742.5,-224.5 678.5,-224.5"/>
<text text-anchor="middle" x="710.5" y="-231.5" font-family="Helvetica,sans-Serif" font-size="10.00">algorithm</text>
</a>
</g>
</g>
<!-- Node20&#45;&gt;Node22 -->
<g id="edge33" class="edge">
<title>Node20&#45;&gt;Node22</title>
<path fill="none" stroke="midnightblue" d="M633.28,-280.32C647.77,-271.82 670.07,-258.73 686.99,-248.8"/>
<polygon fill="midnightblue" stroke="midnightblue" points="688.9,-251.74 695.76,-243.65 685.36,-245.7 688.9,-251.74"/>
</g>
<!-- Node23 -->
<g id="node23" class="node">
<title>Node23</title>
<g id="a_node23"><a xlink:title=" ">
<polygon fill="white" stroke="#bfbfbf" points="875,-224.5 875,-243.5 922,-243.5 922,-224.5 875,-224.5"/>
<text text-anchor="middle" x="898.5" y="-231.5" font-family="Helvetica,sans-Serif" font-size="10.00">vector</text>
</a>
</g>
</g>
<!-- Node20&#45;&gt;Node23 -->
<g id="edge34" class="edge">
<title>Node20&#45;&gt;Node23</title>
<path fill="none" stroke="midnightblue" d="M662.87,-280.44C719.01,-269.62 814.47,-251.21 864.93,-241.47"/>
<polygon fill="midnightblue" stroke="midnightblue" points="865.83,-244.87 874.98,-239.54 864.5,-237.99 865.83,-244.87"/>
</g>
<!-- Node24 -->
<g id="node24" class="node">
<title>Node24</title>
<g id="a_node24"><a xlink:title=" ">
<polygon fill="white" stroke="#bfbfbf" points="560.5,-224.5 560.5,-243.5 598.5,-243.5 598.5,-224.5 560.5,-224.5"/>
<text text-anchor="middle" x="579.5" y="-231.5" font-family="Helvetica,sans-Serif" font-size="10.00">map</text>
</a>
</g>
</g>
<!-- Node20&#45;&gt;Node24 -->
<g id="edge35" class="edge">
<title>Node20&#45;&gt;Node24</title>
<path fill="none" stroke="midnightblue" d="M612.06,-280.08C606.55,-272.46 598.47,-261.26 591.74,-251.94"/>
<polygon fill="midnightblue" stroke="midnightblue" points="594.51,-249.81 585.82,-243.75 588.84,-253.91 594.51,-249.81"/>
</g>
<!-- Node25 -->
<g id="node25" class="node">
<title>Node25</title>
<g id="a_node25"><a xlink:title=" ">
<polygon fill="white" stroke="#bfbfbf" points="616.5,-224.5 616.5,-243.5 660.5,-243.5 660.5,-224.5 616.5,-224.5"/>
<text text-anchor="middle" x="638.5" y="-231.5" font-family="Helvetica,sans-Serif" font-size="10.00">string</text>
</a>
</g>
</g>
<!-- Node20&#45;&gt;Node25 -->
<g id="edge36" class="edge">
<title>Node20&#45;&gt;Node25</title>
<path fill="none" stroke="midnightblue" d="M621.8,-280.08C624.48,-272.85 628.35,-262.41 631.69,-253.4"/>
<polygon fill="midnightblue" stroke="midnightblue" points="635.07,-254.34 635.26,-243.75 628.5,-251.91 635.07,-254.34"/>
</g>
<!-- Node20&#45;&gt;Node26 -->
<g id="edge37" class="edge">
<title>Node20&#45;&gt;Node26</title>
<path fill="none" stroke="midnightblue" d="M645.6,-280.44C674.49,-271.32 720.42,-256.81 752.61,-246.65"/>
<polygon fill="midnightblue" stroke="midnightblue" points="754.05,-249.87 762.53,-243.52 751.94,-243.19 754.05,-249.87"/>
</g>
<!-- Node21&#45;&gt;Node8 -->
<g id="edge30" class="edge">
<title>Node21&#45;&gt;Node8</title>
<path fill="none" stroke="midnightblue" d="M471.5,-224.08C471.5,-217.01 471.5,-206.86 471.5,-197.99"/>
<polygon fill="midnightblue" stroke="midnightblue" points="475,-197.75 471.5,-187.75 468,-197.75 475,-197.75"/>
</g>
<!-- Node21&#45;&gt;Node10 -->
<g id="edge32" class="edge">
<title>Node21&#45;&gt;Node10</title>
<path fill="none" stroke="midnightblue" d="M483.64,-224.32C495.38,-215.68 513.4,-201.77 527.5,-188 562.7,-153.61 598.58,-108.11 616.95,-83.88"/>
<polygon fill="midnightblue" stroke="midnightblue" points="619.89,-85.8 623.1,-75.7 614.29,-81.59 619.89,-85.8"/>
</g>
<!-- Node21&#45;&gt;Node18 -->
<g id="edge31" class="edge">
<title>Node21&#45;&gt;Node18</title>
<path fill="none" stroke="midnightblue" d="M506.96,-224.5C540.05,-216.25 590.6,-202.83 633.5,-188 679.29,-172.17 730.91,-149.72 761.79,-135.77"/>
<polygon fill="midnightblue" stroke="midnightblue" points="763.4,-138.89 771.06,-131.56 760.51,-132.51 763.4,-138.89"/>
</g>
<!-- Node29 -->
<g id="node29" class="node">
<title>Node29</title>
<g id="a_node29"><a xlink:href="itkObjectFactoryBase_8h.html" target="_top" xlink:title=" ">
<polygon fill="white" stroke="black" points="934,-448.5 934,-467.5 1063,-467.5 1063,-448.5 934,-448.5"/>
<text text-anchor="middle" x="998.5" y="-455.5" font-family="Helvetica,sans-Serif" font-size="10.00">itkObjectFactoryBase.h</text>
</a>
</g>
</g>
<!-- Node28&#45;&gt;Node29 -->
<g id="edge42" class="edge">
<title>Node28&#45;&gt;Node29</title>
<path fill="none" stroke="midnightblue" d="M1037.74,-504.08C1030.96,-496.3 1020.96,-484.8 1012.74,-475.37"/>
<polygon fill="midnightblue" stroke="midnightblue" points="1015.32,-473 1006.12,-467.75 1010.04,-477.59 1015.32,-473"/>
</g>
<!-- Node29&#45;&gt;Node16 -->
<g id="edge45" class="edge">
<title>Node29&#45;&gt;Node16</title>
<path fill="none" stroke="midnightblue" d="M975.71,-448.47C960.17,-441.32 940.79,-429.44 931.5,-412 894.29,-342.18 950.5,-314.12 950.5,-235 950.5,-235 950.5,-235 950.5,-177 950.5,-132.22 904.44,-98.32 873.62,-80.66"/>
<polygon fill="midnightblue" stroke="midnightblue" points="875.06,-77.46 864.62,-75.7 871.69,-83.59 875.06,-77.46"/>
</g>
<!-- Node29&#45;&gt;Node23 -->
<g id="edge51" class="edge">
<title>Node29&#45;&gt;Node23</title>
<path fill="none" stroke="midnightblue" d="M1021.29,-448.47C1036.83,-441.32 1056.21,-429.44 1065.5,-412 1069.68,-404.16 1069.01,-400.17 1065.5,-392 1036.35,-324.13 961.67,-272.14 922.82,-248.69"/>
<polygon fill="midnightblue" stroke="midnightblue" points="924.59,-245.67 914.2,-243.6 921.04,-251.7 924.59,-245.67"/>
</g>
<!-- Node29&#45;&gt;Node26 -->
<g id="edge50" class="edge">
<title>Node29&#45;&gt;Node26</title>
<path fill="none" stroke="midnightblue" d="M967.84,-448.49C946.55,-441.4 918.52,-429.59 898.5,-412 895.02,-408.94 826.91,-296.78 800.16,-252.61"/>
<polygon fill="midnightblue" stroke="midnightblue" points="803.02,-250.58 794.85,-243.84 797.03,-254.2 803.02,-250.58"/>
</g>
<!-- Node30 -->
<g id="node30" class="node">
<title>Node30</title>
<g id="a_node30"><a xlink:href="itkCreateObjectFunction_8h.html" target="_top" xlink:title=" ">
<polygon fill="white" stroke="black" points="703,-392.5 703,-411.5 846,-411.5 846,-392.5 703,-392.5"/>
<text text-anchor="middle" x="774.5" y="-399.5" font-family="Helvetica,sans-Serif" font-size="10.00">itkCreateObjectFunction.h</text>
</a>
</g>
</g>
<!-- Node29&#45;&gt;Node30 -->
<g id="edge43" class="edge">
<title>Node29&#45;&gt;Node30</title>
<path fill="none" stroke="midnightblue" d="M963.01,-448.44C924.18,-439.08 861.84,-424.06 819.58,-413.87"/>
<polygon fill="midnightblue" stroke="midnightblue" points="820.37,-410.46 809.83,-411.52 818.73,-417.26 820.37,-410.46"/>
</g>
<!-- Node31 -->
<g id="node31" class="node">
<title>Node31</title>
<g id="a_node31"><a xlink:href="itkCommonEnums_8h.html" target="_top" xlink:title=" ">
<polygon fill="white" stroke="black" points="940.5,-392.5 940.5,-411.5 1056.5,-411.5 1056.5,-392.5 940.5,-392.5"/>
<text text-anchor="middle" x="998.5" y="-399.5" font-family="Helvetica,sans-Serif" font-size="10.00">itkCommonEnums.h</text>
</a>
</g>
</g>
<!-- Node29&#45;&gt;Node31 -->
<g id="edge46" class="edge">
<title>Node29&#45;&gt;Node31</title>
<path fill="none" stroke="midnightblue" d="M998.5,-448.08C998.5,-441.01 998.5,-430.86 998.5,-421.99"/>
<polygon fill="midnightblue" stroke="midnightblue" points="1002,-421.75 998.5,-411.75 995,-421.75 1002,-421.75"/>
</g>
<!-- Node33 -->
<g id="node33" class="node">
<title>Node33</title>
<g id="a_node33"><a xlink:title=" ">
<polygon fill="white" stroke="#bfbfbf" points="1112.5,-392.5 1112.5,-411.5 1144.5,-411.5 1144.5,-392.5 1112.5,-392.5"/>
<text text-anchor="middle" x="1128.5" y="-399.5" font-family="Helvetica,sans-Serif" font-size="10.00">list</text>
</a>
</g>
</g>
<!-- Node29&#45;&gt;Node33 -->
<g id="edge49" class="edge">
<title>Node29&#45;&gt;Node33</title>
<path fill="none" stroke="midnightblue" d="M1019.1,-448.44C1041.75,-439.03 1078.19,-423.9 1102.72,-413.71"/>
<polygon fill="midnightblue" stroke="midnightblue" points="1104.22,-416.88 1112.11,-409.81 1101.54,-410.41 1104.22,-416.88"/>
</g>
<!-- Node30&#45;&gt;Node7 -->
<g id="edge44" class="edge">
<title>Node30&#45;&gt;Node7</title>
<path fill="none" stroke="midnightblue" d="M761.65,-392.32C749.28,-383.98 730.37,-371.21 715.76,-361.35"/>
<polygon fill="midnightblue" stroke="midnightblue" points="717.57,-358.35 707.32,-355.65 713.65,-364.15 717.57,-358.35"/>
</g>
<!-- Node31&#45;&gt;Node3 -->
<g id="edge47" class="edge">
<title>Node31&#45;&gt;Node3</title>
<path fill="none" stroke="midnightblue" d="M1008.24,-392.37C1026.6,-375.1 1064.5,-334.21 1064.5,-291 1064.5,-291 1064.5,-291 1064.5,-177 1064.5,-141.12 1041.61,-104.42 1026.2,-83.79"/>
<polygon fill="midnightblue" stroke="midnightblue" points="1028.85,-81.5 1019.95,-75.74 1023.32,-85.79 1028.85,-81.5"/>
</g>
<!-- Node32 -->
<g id="node32" class="node">
<title>Node32</title>
<g id="a_node32"><a xlink:title=" ">
<polygon fill="white" stroke="#bfbfbf" points="941,-336.5 941,-355.5 998,-355.5 998,-336.5 941,-336.5"/>
<text text-anchor="middle" x="969.5" y="-343.5" font-family="Helvetica,sans-Serif" font-size="10.00">ostream</text>
</a>
</g>
</g>
<!-- Node31&#45;&gt;Node32 -->
<g id="edge48" class="edge">
<title>Node31&#45;&gt;Node32</title>
<path fill="none" stroke="midnightblue" d="M993.71,-392.08C989.74,-384.69 983.97,-373.95 979.07,-364.81"/>
<polygon fill="midnightblue" stroke="midnightblue" points="982.01,-362.91 974.2,-355.75 975.85,-366.22 982.01,-362.91"/>
</g>
<!-- Node34&#45;&gt;Node4 -->
<g id="edge53" class="edge">
<title>Node34&#45;&gt;Node4</title>
<path fill="none" stroke="midnightblue" d="M203.5,-504.44C203.5,-485.94 203.5,-440.81 203.5,-403 203.5,-403 203.5,-403 203.5,-121 203.5,-77.74 246.11,-43.09 274.25,-24.91"/>
<polygon fill="midnightblue" stroke="midnightblue" points="276.16,-27.85 282.81,-19.6 272.47,-21.9 276.16,-27.85"/>
</g>
<!-- Node35 -->
<g id="node35" class="node">
<title>Node35</title>
<g id="a_node35"><a xlink:title=" ">
<polygon fill="white" stroke="#bfbfbf" points="93.5,-448.5 93.5,-467.5 175.5,-467.5 175.5,-448.5 93.5,-448.5"/>
<text text-anchor="middle" x="134.5" y="-455.5" font-family="Helvetica,sans-Serif" font-size="10.00">vxl_version.h</text>
</a>
</g>
</g>
<!-- Node34&#45;&gt;Node35 -->
<g id="edge54" class="edge">
<title>Node34&#45;&gt;Node35</title>
<path fill="none" stroke="midnightblue" d="M192.41,-504.32C182.01,-496.18 166.24,-483.84 153.78,-474.09"/>
<polygon fill="midnightblue" stroke="midnightblue" points="155.82,-471.24 145.79,-467.83 151.51,-476.75 155.82,-471.24"/>
</g>
<!-- Node36 -->
<g id="node36" class="node">
<title>Node36</title>
<g id="a_node36"><a xlink:title=" ">
<polygon fill="white" stroke="#bfbfbf" points="231.5,-448.5 231.5,-467.5 325.5,-467.5 325.5,-448.5 231.5,-448.5"/>
<text text-anchor="middle" x="278.5" y="-455.5" font-family="Helvetica,sans-Serif" font-size="10.00">vnl/vnl_vector.h</text>
</a>
</g>
</g>
<!-- Node34&#45;&gt;Node36 -->
<g id="edge55" class="edge">
<title>Node34&#45;&gt;Node36</title>
<path fill="none" stroke="midnightblue" d="M215.55,-504.32C226.96,-496.11 244.33,-483.6 257.93,-473.81"/>
<polygon fill="midnightblue" stroke="midnightblue" points="260.16,-476.52 266.23,-467.83 256.07,-470.84 260.16,-476.52"/>
</g>
<!-- Node37 -->
<g id="node37" class="node">
<title>Node37</title>
<g id="a_node37"><a xlink:title=" ">
<polygon fill="white" stroke="#bfbfbf" points="0,-448.5 0,-467.5 75,-467.5 75,-448.5 0,-448.5"/>
<text text-anchor="middle" x="37.5" y="-455.5" font-family="Helvetica,sans-Serif" font-size="10.00">itkArray.hxx</text>
</a>
</g>
</g>
<!-- Node34&#45;&gt;Node37 -->
<g id="edge56" class="edge">
<title>Node34&#45;&gt;Node37</title>
<path fill="none" stroke="midnightblue" d="M177.2,-504.44C149.15,-495.32 104.56,-480.81 73.32,-470.65"/>
<polygon fill="midnightblue" stroke="midnightblue" points="74.27,-467.28 63.68,-467.52 72.11,-473.94 74.27,-467.28"/>
</g>
</g>
</svg>
