<?xml version="1.0" encoding="UTF-8" standalone="no"?>
<!DOCTYPE svg PUBLIC "-//W3C//DTD SVG 1.1//EN"
 "http://www.w3.org/Graphics/SVG/1.1/DTD/svg11.dtd">
<!-- Generated by graphviz version 2.43.0 (0)
 -->
<!-- Title: itkGPUKernelManager.h Pages: 1 -->
<svg width="1301pt" height="486pt"
 viewBox="0.00 0.00 1301.00 486.00" xmlns="http://www.w3.org/2000/svg" xmlns:xlink="http://www.w3.org/1999/xlink">
<g id="graph0" class="graph" transform="scale(1 1) rotate(0) translate(4 482)">
<title>itkGPUKernelManager.h</title>
<polygon fill="white" stroke="transparent" points="-4,4 -4,-482 1297,-482 1297,4 -4,4"/>
<!-- Node1 -->
<g id="node1" class="node">
<title>Node1</title>
<g id="a_node1"><a xlink:title=" ">
<polygon fill="#bfbfbf" stroke="black" points="329.5,-458.5 329.5,-477.5 461.5,-477.5 461.5,-458.5 329.5,-458.5"/>
<text text-anchor="middle" x="395.5" y="-465.5" font-family="Helvetica,sans-Serif" font-size="10.00">itkGPUKernelManager.h</text>
</a>
</g>
</g>
<!-- Node2 -->
<g id="node2" class="node">
<title>Node2</title>
<g id="a_node2"><a xlink:href="itkGPUBinaryThresholdImageFilter_8h.html" target="_top" xlink:title=" ">
<polygon fill="white" stroke="black" points="0,-201.5 0,-231.5 161,-231.5 161,-201.5 0,-201.5"/>
<text text-anchor="start" x="8" y="-219.5" font-family="Helvetica,sans-Serif" font-size="10.00">itkGPUBinaryThresholdImage</text>
<text text-anchor="middle" x="80.5" y="-208.5" font-family="Helvetica,sans-Serif" font-size="10.00">Filter.h</text>
</a>
</g>
</g>
<!-- Node1&#45;&gt;Node2 -->
<g id="edge1" class="edge">
<title>Node1&#45;&gt;Node2</title>
<path fill="none" stroke="midnightblue" d="M334.42,-456.29C257.09,-438.9 128.31,-396.15 81.5,-299 71.06,-277.33 74.04,-248.5 77.23,-231.58"/>
<polygon fill="midnightblue" stroke="midnightblue" points="334,-459.78 344.51,-458.48 335.48,-452.94 334,-459.78"/>
</g>
<!-- Node3 -->
<g id="node3" class="node">
<title>Node3</title>
<g id="a_node3"><a xlink:href="itkGPUCastImageFilter_8h.html" target="_top" xlink:title=" ">
<polygon fill="white" stroke="black" points="185.5,-207 185.5,-226 321.5,-226 321.5,-207 185.5,-207"/>
<text text-anchor="middle" x="253.5" y="-214" font-family="Helvetica,sans-Serif" font-size="10.00">itkGPUCastImageFilter.h</text>
</a>
</g>
</g>
<!-- Node1&#45;&gt;Node3 -->
<g id="edge2" class="edge">
<title>Node1&#45;&gt;Node3</title>
<path fill="none" stroke="midnightblue" d="M386.5,-449.46C382.38,-441.2 377.52,-431.17 373.5,-422 344.01,-354.72 356.26,-327.73 313.5,-268 300.82,-250.29 280.55,-234.99 267.13,-226.01"/>
<polygon fill="midnightblue" stroke="midnightblue" points="383.43,-451.13 391.07,-458.47 389.67,-447.97 383.43,-451.13"/>
</g>
<!-- Node4 -->
<g id="node4" class="node">
<title>Node4</title>
<g id="a_node4"><a xlink:href="itkGPUFiniteDifferenceFunction_8h.html" target="_top" xlink:title=" ">
<polygon fill="white" stroke="black" points="614.5,-341 614.5,-360 792.5,-360 792.5,-341 614.5,-341"/>
<text text-anchor="middle" x="703.5" y="-348" font-family="Helvetica,sans-Serif" font-size="10.00">itkGPUFiniteDifferenceFunction.h</text>
</a>
</g>
</g>
<!-- Node1&#45;&gt;Node4 -->
<g id="edge3" class="edge">
<title>Node1&#45;&gt;Node4</title>
<path fill="none" stroke="midnightblue" d="M427.76,-454.9C490.2,-431.49 626.17,-380.5 680.45,-360.14"/>
<polygon fill="midnightblue" stroke="midnightblue" points="426.53,-451.62 418.4,-458.41 428.99,-458.18 426.53,-451.62"/>
</g>
<!-- Node17 -->
<g id="node17" class="node">
<title>Node17</title>
<g id="a_node17"><a xlink:href="itkGPUFunctorBase_8h.html" target="_top" xlink:title=" ">
<polygon fill="white" stroke="black" points="173,-341 173,-360 292,-360 292,-341 173,-341"/>
<text text-anchor="middle" x="232.5" y="-348" font-family="Helvetica,sans-Serif" font-size="10.00">itkGPUFunctorBase.h</text>
</a>
</g>
</g>
<!-- Node1&#45;&gt;Node17 -->
<g id="edge19" class="edge">
<title>Node1&#45;&gt;Node17</title>
<path fill="none" stroke="midnightblue" d="M374.91,-452.41C340.6,-428.1 272.76,-380.03 244.89,-360.28"/>
<polygon fill="midnightblue" stroke="midnightblue" points="373.07,-455.39 383.25,-458.32 377.11,-449.68 373.07,-455.39"/>
</g>
<!-- Node19 -->
<g id="node19" class="node">
<title>Node19</title>
<g id="a_node19"><a xlink:href="itkGPUImageToImageFilter_8h.html" target="_top" xlink:title=" ">
<polygon fill="white" stroke="black" points="858,-402.5 858,-421.5 1013,-421.5 1013,-402.5 858,-402.5"/>
<text text-anchor="middle" x="935.5" y="-409.5" font-family="Helvetica,sans-Serif" font-size="10.00">itkGPUImageToImageFilter.h</text>
</a>
</g>
</g>
<!-- Node1&#45;&gt;Node19 -->
<g id="edge25" class="edge">
<title>Node1&#45;&gt;Node19</title>
<path fill="none" stroke="midnightblue" d="M471.67,-459.38C573.96,-449.15 754.77,-431.07 857.83,-420.77"/>
<polygon fill="midnightblue" stroke="midnightblue" points="471.32,-455.9 461.71,-460.38 472.01,-462.87 471.32,-455.9"/>
</g>
<!-- Node25 -->
<g id="node25" class="node">
<title>Node25</title>
<g id="a_node25"><a xlink:href="itkGPUReduction_8h.html" target="_top" xlink:title=" ">
<polygon fill="white" stroke="black" points="382.5,-402.5 382.5,-421.5 490.5,-421.5 490.5,-402.5 382.5,-402.5"/>
<text text-anchor="middle" x="436.5" y="-409.5" font-family="Helvetica,sans-Serif" font-size="10.00">itkGPUReduction.h</text>
</a>
</g>
</g>
<!-- Node1&#45;&gt;Node25 -->
<g id="edge34" class="edge">
<title>Node1&#45;&gt;Node25</title>
<path fill="none" stroke="midnightblue" d="M408.52,-449.86C415.62,-440.5 424.1,-429.33 429.86,-421.75"/>
<polygon fill="midnightblue" stroke="midnightblue" points="405.53,-448 402.27,-458.08 411.11,-452.24 405.53,-448"/>
</g>
<!-- Node5 -->
<g id="node5" class="node">
<title>Node5</title>
<g id="a_node5"><a xlink:href="itkGPUAnisotropicDiffusionFunction_8h.html" target="_top" xlink:title=" ">
<polygon fill="white" stroke="black" points="800,-268.5 800,-298.5 949,-298.5 949,-268.5 800,-268.5"/>
<text text-anchor="start" x="808" y="-286.5" font-family="Helvetica,sans-Serif" font-size="10.00">itkGPUAnisotropicDiffusion</text>
<text text-anchor="middle" x="874.5" y="-275.5" font-family="Helvetica,sans-Serif" font-size="10.00">Function.h</text>
</a>
</g>
</g>
<!-- Node4&#45;&gt;Node5 -->
<g id="edge4" class="edge">
<title>Node4&#45;&gt;Node5</title>
<path fill="none" stroke="midnightblue" d="M735.85,-337.2C764.83,-326.19 807.3,-310.04 837.6,-298.53"/>
<polygon fill="midnightblue" stroke="midnightblue" points="734.31,-334.04 726.21,-340.87 736.8,-340.59 734.31,-334.04"/>
</g>
<!-- Node10 -->
<g id="node10" class="node">
<title>Node10</title>
<g id="a_node10"><a xlink:href="itkGPUFiniteDifferenceImageFilter_8h.html" target="_top" xlink:title=" ">
<polygon fill="white" stroke="black" points="624.5,-268.5 624.5,-298.5 782.5,-298.5 782.5,-268.5 624.5,-268.5"/>
<text text-anchor="start" x="632.5" y="-286.5" font-family="Helvetica,sans-Serif" font-size="10.00">itkGPUFiniteDifferenceImage</text>
<text text-anchor="middle" x="703.5" y="-275.5" font-family="Helvetica,sans-Serif" font-size="10.00">Filter.h</text>
</a>
</g>
</g>
<!-- Node4&#45;&gt;Node10 -->
<g id="edge9" class="edge">
<title>Node4&#45;&gt;Node10</title>
<path fill="none" stroke="midnightblue" d="M703.5,-330.41C703.5,-320.22 703.5,-307.9 703.5,-298.59"/>
<polygon fill="midnightblue" stroke="midnightblue" points="700,-330.73 703.5,-340.73 707,-330.73 700,-330.73"/>
</g>
<!-- Node15 -->
<g id="node15" class="node">
<title>Node15</title>
<g id="a_node15"><a xlink:href="itkGPUPDEDeformableRegistrationFunction_8h.html" target="_top" xlink:title=" ">
<polygon fill="white" stroke="black" points="420,-268.5 420,-298.5 607,-298.5 607,-268.5 420,-268.5"/>
<text text-anchor="start" x="428" y="-286.5" font-family="Helvetica,sans-Serif" font-size="10.00">itkGPUPDEDeformableRegistration</text>
<text text-anchor="middle" x="513.5" y="-275.5" font-family="Helvetica,sans-Serif" font-size="10.00">Function.h</text>
</a>
</g>
</g>
<!-- Node4&#45;&gt;Node15 -->
<g id="edge15" class="edge">
<title>Node4&#45;&gt;Node15</title>
<path fill="none" stroke="midnightblue" d="M668.39,-337.49C636.18,-326.47 588.46,-310.14 554.51,-298.53"/>
<polygon fill="midnightblue" stroke="midnightblue" points="667.67,-340.94 678.27,-340.87 669.94,-334.32 667.67,-340.94"/>
</g>
<!-- Node6 -->
<g id="node6" class="node">
<title>Node6</title>
<g id="a_node6"><a xlink:href="itkGPUScalarAnisotropicDiffusionFunction_8h.html" target="_top" xlink:title=" ">
<polygon fill="white" stroke="black" points="793,-201.5 793,-231.5 972,-231.5 972,-201.5 793,-201.5"/>
<text text-anchor="start" x="801" y="-219.5" font-family="Helvetica,sans-Serif" font-size="10.00">itkGPUScalarAnisotropicDiffusion</text>
<text text-anchor="middle" x="882.5" y="-208.5" font-family="Helvetica,sans-Serif" font-size="10.00">Function.h</text>
</a>
</g>
</g>
<!-- Node5&#45;&gt;Node6 -->
<g id="edge5" class="edge">
<title>Node5&#45;&gt;Node6</title>
<path fill="none" stroke="midnightblue" d="M877.47,-258.4C878.58,-249.37 879.8,-239.41 880.77,-231.58"/>
<polygon fill="midnightblue" stroke="midnightblue" points="873.98,-258.04 876.24,-268.4 880.93,-258.9 873.98,-258.04"/>
</g>
<!-- Node7 -->
<g id="node7" class="node">
<title>Node7</title>
<g id="a_node7"><a xlink:href="itkGPUGradientNDAnisotropicDiffusionFunction_8h.html" target="_top" xlink:title=" ">
<polygon fill="white" stroke="black" points="801.5,-134.5 801.5,-164.5 963.5,-164.5 963.5,-134.5 801.5,-134.5"/>
<text text-anchor="start" x="809.5" y="-152.5" font-family="Helvetica,sans-Serif" font-size="10.00">itkGPUGradientNDAnisotropic</text>
<text text-anchor="middle" x="882.5" y="-141.5" font-family="Helvetica,sans-Serif" font-size="10.00">DiffusionFunction.h</text>
</a>
</g>
</g>
<!-- Node6&#45;&gt;Node7 -->
<g id="edge6" class="edge">
<title>Node6&#45;&gt;Node7</title>
<path fill="none" stroke="midnightblue" d="M882.5,-191.11C882.5,-182.15 882.5,-172.32 882.5,-164.58"/>
<polygon fill="midnightblue" stroke="midnightblue" points="879,-191.4 882.5,-201.4 886,-191.4 879,-191.4"/>
</g>
<!-- Node8 -->
<g id="node8" class="node">
<title>Node8</title>
<g id="a_node8"><a xlink:href="itkGPUGradientAnisotropicDiffusionImageFilter_8h.html" target="_top" xlink:title=" ">
<polygon fill="white" stroke="black" points="722,-67.5 722,-97.5 869,-97.5 869,-67.5 722,-67.5"/>
<text text-anchor="start" x="730" y="-85.5" font-family="Helvetica,sans-Serif" font-size="10.00">itkGPUGradientAnisotropic</text>
<text text-anchor="middle" x="795.5" y="-74.5" font-family="Helvetica,sans-Serif" font-size="10.00">DiffusionImageFilter.h</text>
</a>
</g>
</g>
<!-- Node7&#45;&gt;Node8 -->
<g id="edge7" class="edge">
<title>Node7&#45;&gt;Node8</title>
<path fill="none" stroke="midnightblue" d="M855.29,-128.17C841.98,-118.23 826.3,-106.51 814.34,-97.58"/>
<polygon fill="midnightblue" stroke="midnightblue" points="853.52,-131.21 863.62,-134.4 857.71,-125.61 853.52,-131.21"/>
</g>
<!-- Node9 -->
<g id="node9" class="node">
<title>Node9</title>
<g id="a_node9"><a xlink:href="itkGPUGradientAnisotropicDiffusionImageFilterFactory_8h.html" target="_top" xlink:title=" ">
<polygon fill="white" stroke="black" points="716.5,-0.5 716.5,-30.5 874.5,-30.5 874.5,-0.5 716.5,-0.5"/>
<text text-anchor="start" x="724.5" y="-18.5" font-family="Helvetica,sans-Serif" font-size="10.00">itkGPUGradientAnisotropic</text>
<text text-anchor="middle" x="795.5" y="-7.5" font-family="Helvetica,sans-Serif" font-size="10.00">DiffusionImageFilterFactory.h</text>
</a>
</g>
</g>
<!-- Node8&#45;&gt;Node9 -->
<g id="edge8" class="edge">
<title>Node8&#45;&gt;Node9</title>
<path fill="none" stroke="midnightblue" d="M795.5,-57.11C795.5,-48.15 795.5,-38.32 795.5,-30.58"/>
<polygon fill="midnightblue" stroke="midnightblue" points="792,-57.4 795.5,-67.4 799,-57.4 792,-57.4"/>
</g>
<!-- Node11 -->
<g id="node11" class="node">
<title>Node11</title>
<g id="a_node11"><a xlink:href="itkGPUDenseFiniteDifferenceImageFilter_8h.html" target="_top" xlink:title=" ">
<polygon fill="white" stroke="black" points="616.5,-201.5 616.5,-231.5 774.5,-231.5 774.5,-201.5 616.5,-201.5"/>
<text text-anchor="start" x="624.5" y="-219.5" font-family="Helvetica,sans-Serif" font-size="10.00">itkGPUDenseFiniteDifference</text>
<text text-anchor="middle" x="695.5" y="-208.5" font-family="Helvetica,sans-Serif" font-size="10.00">ImageFilter.h</text>
</a>
</g>
</g>
<!-- Node10&#45;&gt;Node11 -->
<g id="edge10" class="edge">
<title>Node10&#45;&gt;Node11</title>
<path fill="none" stroke="midnightblue" d="M700.53,-258.4C699.42,-249.37 698.2,-239.41 697.23,-231.58"/>
<polygon fill="midnightblue" stroke="midnightblue" points="697.07,-258.9 701.76,-268.4 704.02,-258.04 697.07,-258.9"/>
</g>
<!-- Node12 -->
<g id="node12" class="node">
<title>Node12</title>
<g id="a_node12"><a xlink:href="itkGPUAnisotropicDiffusionImageFilter_8h.html" target="_top" xlink:title=" ">
<polygon fill="white" stroke="black" points="634,-134.5 634,-164.5 783,-164.5 783,-134.5 634,-134.5"/>
<text text-anchor="start" x="642" y="-152.5" font-family="Helvetica,sans-Serif" font-size="10.00">itkGPUAnisotropicDiffusion</text>
<text text-anchor="middle" x="708.5" y="-141.5" font-family="Helvetica,sans-Serif" font-size="10.00">ImageFilter.h</text>
</a>
</g>
</g>
<!-- Node11&#45;&gt;Node12 -->
<g id="edge11" class="edge">
<title>Node11&#45;&gt;Node12</title>
<path fill="none" stroke="midnightblue" d="M700.32,-191.4C702.13,-182.37 704.12,-172.41 705.68,-164.58"/>
<polygon fill="midnightblue" stroke="midnightblue" points="696.85,-190.9 698.32,-201.4 703.71,-192.28 696.85,-190.9"/>
</g>
<!-- Node13 -->
<g id="node13" class="node">
<title>Node13</title>
<g id="a_node13"><a xlink:href="itkGPUPDEDeformableRegistrationFilter_8h.html" target="_top" xlink:title=" ">
<polygon fill="white" stroke="black" points="429,-134.5 429,-164.5 616,-164.5 616,-134.5 429,-134.5"/>
<text text-anchor="start" x="437" y="-152.5" font-family="Helvetica,sans-Serif" font-size="10.00">itkGPUPDEDeformableRegistration</text>
<text text-anchor="middle" x="522.5" y="-141.5" font-family="Helvetica,sans-Serif" font-size="10.00">Filter.h</text>
</a>
</g>
</g>
<!-- Node11&#45;&gt;Node13 -->
<g id="edge13" class="edge">
<title>Node11&#45;&gt;Node13</title>
<path fill="none" stroke="midnightblue" d="M648.44,-197.82C620.63,-187.37 585.91,-174.32 559.97,-164.58"/>
<polygon fill="midnightblue" stroke="midnightblue" points="647.37,-201.16 657.96,-201.4 649.83,-194.6 647.37,-201.16"/>
</g>
<!-- Node12&#45;&gt;Node8 -->
<g id="edge12" class="edge">
<title>Node12&#45;&gt;Node8</title>
<path fill="none" stroke="midnightblue" d="M735.71,-128.17C749.02,-118.23 764.7,-106.51 776.66,-97.58"/>
<polygon fill="midnightblue" stroke="midnightblue" points="733.29,-125.61 727.38,-134.4 737.48,-131.21 733.29,-125.61"/>
</g>
<!-- Node14 -->
<g id="node14" class="node">
<title>Node14</title>
<g id="a_node14"><a xlink:href="itkGPUDemonsRegistrationFilter_8h.html" target="_top" xlink:title=" ">
<polygon fill="white" stroke="black" points="387.5,-67.5 387.5,-97.5 537.5,-97.5 537.5,-67.5 387.5,-67.5"/>
<text text-anchor="start" x="395.5" y="-85.5" font-family="Helvetica,sans-Serif" font-size="10.00">itkGPUDemonsRegistration</text>
<text text-anchor="middle" x="462.5" y="-74.5" font-family="Helvetica,sans-Serif" font-size="10.00">Filter.h</text>
</a>
</g>
</g>
<!-- Node13&#45;&gt;Node14 -->
<g id="edge14" class="edge">
<title>Node13&#45;&gt;Node14</title>
<path fill="none" stroke="midnightblue" d="M502.68,-127.02C493.74,-117.34 483.43,-106.17 475.49,-97.58"/>
<polygon fill="midnightblue" stroke="midnightblue" points="500.13,-129.42 509.48,-134.4 505.27,-124.67 500.13,-129.42"/>
</g>
<!-- Node15&#45;&gt;Node13 -->
<g id="edge18" class="edge">
<title>Node15&#45;&gt;Node13</title>
<path fill="none" stroke="midnightblue" d="M515.14,-258.39C517.02,-230.9 520.02,-186.89 521.54,-164.52"/>
<polygon fill="midnightblue" stroke="midnightblue" points="511.65,-258.16 514.46,-268.37 518.64,-258.63 511.65,-258.16"/>
</g>
<!-- Node16 -->
<g id="node16" class="node">
<title>Node16</title>
<g id="a_node16"><a xlink:href="itkGPUDemonsRegistrationFunction_8h.html" target="_top" xlink:title=" ">
<polygon fill="white" stroke="black" points="339.5,-201.5 339.5,-231.5 489.5,-231.5 489.5,-201.5 339.5,-201.5"/>
<text text-anchor="start" x="347.5" y="-219.5" font-family="Helvetica,sans-Serif" font-size="10.00">itkGPUDemonsRegistration</text>
<text text-anchor="middle" x="414.5" y="-208.5" font-family="Helvetica,sans-Serif" font-size="10.00">Function.h</text>
</a>
</g>
</g>
<!-- Node15&#45;&gt;Node16 -->
<g id="edge16" class="edge">
<title>Node15&#45;&gt;Node16</title>
<path fill="none" stroke="midnightblue" d="M483.39,-262.73C468.08,-252.68 449.81,-240.68 435.94,-231.58"/>
<polygon fill="midnightblue" stroke="midnightblue" points="481.74,-265.83 492.02,-268.4 485.58,-259.98 481.74,-265.83"/>
</g>
<!-- Node16&#45;&gt;Node14 -->
<g id="edge17" class="edge">
<title>Node16&#45;&gt;Node14</title>
<path fill="none" stroke="midnightblue" d="M412.05,-191.31C411.29,-174.61 412.15,-152.23 419.5,-134 425.18,-119.9 436.44,-106.92 446.01,-97.64"/>
<polygon fill="midnightblue" stroke="midnightblue" points="408.57,-191.62 412.74,-201.36 415.55,-191.14 408.57,-191.62"/>
</g>
<!-- Node17&#45;&gt;Node2 -->
<g id="edge20" class="edge">
<title>Node17&#45;&gt;Node2</title>
<path fill="none" stroke="midnightblue" d="M167.01,-338.18C142.67,-330.83 116.79,-318.77 99.5,-299 82.96,-280.08 80.09,-249.51 79.98,-231.68"/>
<polygon fill="midnightblue" stroke="midnightblue" points="166.39,-341.64 176.96,-340.95 168.27,-334.89 166.39,-341.64"/>
</g>
<!-- Node17&#45;&gt;Node3 -->
<g id="edge21" class="edge">
<title>Node17&#45;&gt;Node3</title>
<path fill="none" stroke="midnightblue" d="M259.67,-335.8C273.42,-327.27 288.8,-314.88 296.5,-299 302.51,-286.6 301.26,-280.93 296.5,-268 290.14,-250.71 274.93,-235.31 264.42,-226.18"/>
<polygon fill="midnightblue" stroke="midnightblue" points="257.85,-332.81 250.96,-340.85 261.37,-338.86 257.85,-332.81"/>
</g>
<!-- Node18 -->
<g id="node18" class="node">
<title>Node18</title>
<g id="a_node18"><a xlink:href="itkGPUUnaryFunctorImageFilter_8h.html" target="_top" xlink:title=" ">
<polygon fill="white" stroke="black" points="109,-274 109,-293 288,-293 288,-274 109,-274"/>
<text text-anchor="middle" x="198.5" y="-281" font-family="Helvetica,sans-Serif" font-size="10.00">itkGPUUnaryFunctorImageFilter.h</text>
</a>
</g>
</g>
<!-- Node17&#45;&gt;Node18 -->
<g id="edge22" class="edge">
<title>Node17&#45;&gt;Node18</title>
<path fill="none" stroke="midnightblue" d="M223.17,-331.66C216.61,-319.13 208.13,-302.91 203.01,-293.13"/>
<polygon fill="midnightblue" stroke="midnightblue" points="220.18,-333.5 227.91,-340.73 226.38,-330.25 220.18,-333.5"/>
</g>
<!-- Node18&#45;&gt;Node2 -->
<g id="edge23" class="edge">
<title>Node18&#45;&gt;Node2</title>
<path fill="none" stroke="midnightblue" d="M173.81,-268.9C153.96,-257.97 126.16,-242.65 106.08,-231.59"/>
<polygon fill="midnightblue" stroke="midnightblue" points="172.14,-271.97 182.59,-273.73 175.52,-265.84 172.14,-271.97"/>
</g>
<!-- Node18&#45;&gt;Node3 -->
<g id="edge24" class="edge">
<title>Node18&#45;&gt;Node3</title>
<path fill="none" stroke="midnightblue" d="M212.66,-265.77C223.38,-253.1 237.68,-236.2 246.2,-226.13"/>
<polygon fill="midnightblue" stroke="midnightblue" points="209.71,-263.84 205.92,-273.73 215.05,-268.36 209.71,-263.84"/>
</g>
<!-- Node20 -->
<g id="node20" class="node">
<title>Node20</title>
<g id="a_node20"><a xlink:href="itkGPUBoxImageFilter_8h.html" target="_top" xlink:title=" ">
<polygon fill="white" stroke="black" points="869,-341 869,-360 1002,-360 1002,-341 869,-341"/>
<text text-anchor="middle" x="935.5" y="-348" font-family="Helvetica,sans-Serif" font-size="10.00">itkGPUBoxImageFilter.h</text>
</a>
</g>
</g>
<!-- Node19&#45;&gt;Node20 -->
<g id="edge26" class="edge">
<title>Node19&#45;&gt;Node20</title>
<path fill="none" stroke="midnightblue" d="M935.5,-392.32C935.5,-381.5 935.5,-368.4 935.5,-360.01"/>
<polygon fill="midnightblue" stroke="midnightblue" points="932,-392.48 935.5,-402.48 939,-392.48 932,-392.48"/>
</g>
<!-- Node22 -->
<g id="node22" class="node">
<title>Node22</title>
<g id="a_node22"><a xlink:href="itkGPUDiscreteGaussianImageFilter_8h.html" target="_top" xlink:title=" ">
<polygon fill="white" stroke="black" points="1126,-268.5 1126,-298.5 1293,-298.5 1293,-268.5 1126,-268.5"/>
<text text-anchor="start" x="1134" y="-286.5" font-family="Helvetica,sans-Serif" font-size="10.00">itkGPUDiscreteGaussianImage</text>
<text text-anchor="middle" x="1209.5" y="-275.5" font-family="Helvetica,sans-Serif" font-size="10.00">Filter.h</text>
</a>
</g>
</g>
<!-- Node19&#45;&gt;Node22 -->
<g id="edge28" class="edge">
<title>Node19&#45;&gt;Node22</title>
<path fill="none" stroke="midnightblue" d="M1023.16,-405.71C1087.15,-400.02 1166.68,-388.56 1190.5,-366 1208.96,-348.52 1211.06,-316.85 1210.54,-298.56"/>
<polygon fill="midnightblue" stroke="midnightblue" points="1022.7,-402.23 1013.04,-406.57 1023.3,-409.21 1022.7,-402.23"/>
</g>
<!-- Node23 -->
<g id="node23" class="node">
<title>Node23</title>
<g id="a_node23"><a xlink:href="itkGPUInPlaceImageFilter_8h.html" target="_top" xlink:title=" ">
<polygon fill="white" stroke="black" points="448,-341 448,-360 597,-360 597,-341 448,-341"/>
<text text-anchor="middle" x="522.5" y="-348" font-family="Helvetica,sans-Serif" font-size="10.00">itkGPUInPlaceImageFilter.h</text>
</a>
</g>
</g>
<!-- Node19&#45;&gt;Node23 -->
<g id="edge29" class="edge">
<title>Node19&#45;&gt;Node23</title>
<path fill="none" stroke="midnightblue" d="M857.4,-401.19C790.46,-392.58 691.5,-379.37 605.5,-366 593.79,-364.18 581.18,-362.06 569.42,-360.01"/>
<polygon fill="midnightblue" stroke="midnightblue" points="857.09,-404.68 867.45,-402.48 857.98,-397.73 857.09,-404.68"/>
</g>
<!-- Node24 -->
<g id="node24" class="node">
<title>Node24</title>
<g id="a_node24"><a xlink:href="itkGPUNeighborhoodOperatorImageFilter_8h.html" target="_top" xlink:title=" ">
<polygon fill="white" stroke="black" points="1020,-335.5 1020,-365.5 1181,-365.5 1181,-335.5 1020,-335.5"/>
<text text-anchor="start" x="1028" y="-353.5" font-family="Helvetica,sans-Serif" font-size="10.00">itkGPUNeighborhoodOperator</text>
<text text-anchor="middle" x="1100.5" y="-342.5" font-family="Helvetica,sans-Serif" font-size="10.00">ImageFilter.h</text>
</a>
</g>
</g>
<!-- Node19&#45;&gt;Node24 -->
<g id="edge32" class="edge">
<title>Node19&#45;&gt;Node24</title>
<path fill="none" stroke="midnightblue" d="M968.85,-398.98C995.67,-389.3 1033.41,-375.69 1061.61,-365.52"/>
<polygon fill="midnightblue" stroke="midnightblue" points="967.36,-395.79 959.14,-402.48 969.73,-402.38 967.36,-395.79"/>
</g>
<!-- Node21 -->
<g id="node21" class="node">
<title>Node21</title>
<g id="a_node21"><a xlink:href="itkGPUMeanImageFilter_8h.html" target="_top" xlink:title=" ">
<polygon fill="white" stroke="black" points="967,-274 967,-293 1108,-293 1108,-274 967,-274"/>
<text text-anchor="middle" x="1037.5" y="-281" font-family="Helvetica,sans-Serif" font-size="10.00">itkGPUMeanImageFilter.h</text>
</a>
</g>
</g>
<!-- Node20&#45;&gt;Node21 -->
<g id="edge27" class="edge">
<title>Node20&#45;&gt;Node21</title>
<path fill="none" stroke="midnightblue" d="M957.83,-335.27C978.02,-322.4 1007.09,-303.88 1023.96,-293.13"/>
<polygon fill="midnightblue" stroke="midnightblue" points="955.81,-332.41 949.26,-340.73 959.57,-338.31 955.81,-332.41"/>
</g>
<!-- Node23&#45;&gt;Node10 -->
<g id="edge30" class="edge">
<title>Node23&#45;&gt;Node10</title>
<path fill="none" stroke="midnightblue" d="M556.34,-337.35C587.02,-326.33 632.23,-310.09 664.44,-298.53"/>
<polygon fill="midnightblue" stroke="midnightblue" points="554.76,-334.19 546.54,-340.87 557.13,-340.78 554.76,-334.19"/>
</g>
<!-- Node23&#45;&gt;Node18 -->
<g id="edge31" class="edge">
<title>Node23&#45;&gt;Node18</title>
<path fill="none" stroke="midnightblue" d="M469.95,-338.96C406.18,-326.16 299.9,-304.84 241.03,-293.03"/>
<polygon fill="midnightblue" stroke="midnightblue" points="469.32,-342.4 479.81,-340.94 470.69,-335.54 469.32,-342.4"/>
</g>
<!-- Node24&#45;&gt;Node22 -->
<g id="edge33" class="edge">
<title>Node24&#45;&gt;Node22</title>
<path fill="none" stroke="midnightblue" d="M1133.17,-330.02C1150.14,-319.9 1170.48,-307.77 1185.89,-298.58"/>
<polygon fill="midnightblue" stroke="midnightblue" points="1130.95,-327.27 1124.15,-335.4 1134.53,-333.28 1130.95,-327.27"/>
</g>
<!-- Node25&#45;&gt;Node16 -->
<g id="edge35" class="edge">
<title>Node25&#45;&gt;Node16</title>
<path fill="none" stroke="midnightblue" d="M430.91,-392.75C424.49,-370.76 414.35,-332.59 410.5,-299 408.93,-285.31 409.96,-281.77 410.5,-268 410.99,-255.7 412.14,-241.75 413.08,-231.63"/>
<polygon fill="midnightblue" stroke="midnightblue" points="427.58,-393.83 433.79,-402.4 434.28,-391.82 427.58,-393.83"/>
</g>
</g>
</svg>
