<?xml version="1.0" encoding="UTF-8" standalone="no"?>
<!DOCTYPE svg PUBLIC "-//W3C//DTD SVG 1.1//EN"
 "http://www.w3.org/Graphics/SVG/1.1/DTD/svg11.dtd">
<!-- Generated by graphviz version 2.43.0 (0)
 -->
<!-- Title: itkImageRegionSplitterSlowDimension.h Pages: 1 -->
<svg width="3674pt" height="441pt"
 viewBox="0.00 0.00 3674.00 441.00" xmlns="http://www.w3.org/2000/svg" xmlns:xlink="http://www.w3.org/1999/xlink">
<g id="graph0" class="graph" transform="scale(1 1) rotate(0) translate(4 437)">
<title>itkImageRegionSplitterSlowDimension.h</title>
<polygon fill="white" stroke="transparent" points="-4,4 -4,-437 3670,-437 3670,4 -4,4"/>
<!-- Node1 -->
<g id="node1" class="node">
<title>Node1</title>
<g id="a_node1"><a xlink:title=" ">
<polygon fill="#bfbfbf" stroke="black" points="1922,-402.5 1922,-432.5 2074,-432.5 2074,-402.5 1922,-402.5"/>
<text text-anchor="start" x="1930" y="-420.5" font-family="Helvetica,sans-Serif" font-size="10.00">itkImageRegionSplitterSlow</text>
<text text-anchor="middle" x="1998" y="-409.5" font-family="Helvetica,sans-Serif" font-size="10.00">Dimension.h</text>
</a>
</g>
</g>
<!-- Node2 -->
<g id="node2" class="node">
<title>Node2</title>
<g id="a_node2"><a xlink:href="itkImageSink_8h.html" target="_top" xlink:title=" ">
<polygon fill="white" stroke="black" points="1090,-346.5 1090,-365.5 1180,-365.5 1180,-346.5 1090,-346.5"/>
<text text-anchor="middle" x="1135" y="-353.5" font-family="Helvetica,sans-Serif" font-size="10.00">itkImageSink.h</text>
</a>
</g>
</g>
<!-- Node1&#45;&gt;Node2 -->
<g id="edge1" class="edge">
<title>Node1&#45;&gt;Node2</title>
<path fill="none" stroke="midnightblue" d="M1911.79,-410.56C1731,-398.09 1317.58,-369.59 1180.27,-360.12"/>
<polygon fill="midnightblue" stroke="midnightblue" points="1911.58,-414.05 1921.79,-411.25 1912.06,-407.07 1911.58,-414.05"/>
</g>
<!-- Node23 -->
<g id="node23" class="node">
<title>Node23</title>
<g id="a_node23"><a xlink:href="itkThreadedImageRegionPartitioner_8h.html" target="_top" xlink:title=" ">
<polygon fill="white" stroke="black" points="2854,-346.5 2854,-365.5 3052,-365.5 3052,-346.5 2854,-346.5"/>
<text text-anchor="middle" x="2953" y="-353.5" font-family="Helvetica,sans-Serif" font-size="10.00">itkThreadedImageRegionPartitioner.h</text>
</a>
</g>
</g>
<!-- Node1&#45;&gt;Node23 -->
<g id="edge22" class="edge">
<title>Node1&#45;&gt;Node23</title>
<path fill="none" stroke="midnightblue" d="M2084.2,-411.13C2261.49,-400.08 2666.08,-374.88 2853.86,-363.18"/>
<polygon fill="midnightblue" stroke="midnightblue" points="2083.9,-407.64 2074.14,-411.76 2084.33,-414.63 2083.9,-407.64"/>
</g>
<!-- Node3 -->
<g id="node3" class="node">
<title>Node3</title>
<g id="a_node3"><a xlink:href="itkImageToHistogramFilter_8h.html" target="_top" xlink:title=" ">
<polygon fill="white" stroke="black" points="966.5,-285 966.5,-304 1121.5,-304 1121.5,-285 966.5,-285"/>
<text text-anchor="middle" x="1044" y="-292" font-family="Helvetica,sans-Serif" font-size="10.00">itkImageToHistogramFilter.h</text>
</a>
</g>
</g>
<!-- Node2&#45;&gt;Node3 -->
<g id="edge2" class="edge">
<title>Node2&#45;&gt;Node3</title>
<path fill="none" stroke="midnightblue" d="M1113.48,-340.93C1095.94,-329.46 1071.73,-313.63 1057.01,-304.01"/>
<polygon fill="midnightblue" stroke="midnightblue" points="1111.68,-343.93 1121.96,-346.48 1115.51,-338.07 1111.68,-343.93"/>
</g>
<!-- Node18 -->
<g id="node18" class="node">
<title>Node18</title>
<g id="a_node18"><a xlink:href="itkLabelOverlapMeasuresImageFilter_8h.html" target="_top" xlink:title=" ">
<polygon fill="white" stroke="black" points="1140,-279.5 1140,-309.5 1312,-309.5 1312,-279.5 1140,-279.5"/>
<text text-anchor="start" x="1148" y="-297.5" font-family="Helvetica,sans-Serif" font-size="10.00">itkLabelOverlapMeasuresImage</text>
<text text-anchor="middle" x="1226" y="-286.5" font-family="Helvetica,sans-Serif" font-size="10.00">Filter.h</text>
</a>
</g>
</g>
<!-- Node2&#45;&gt;Node18 -->
<g id="edge17" class="edge">
<title>Node2&#45;&gt;Node18</title>
<path fill="none" stroke="midnightblue" d="M1156.81,-340.74C1171.27,-331.28 1190.17,-318.93 1204.55,-309.52"/>
<polygon fill="midnightblue" stroke="midnightblue" points="1154.49,-338.07 1148.04,-346.48 1158.32,-343.93 1154.49,-338.07"/>
</g>
<!-- Node19 -->
<g id="node19" class="node">
<title>Node19</title>
<g id="a_node19"><a xlink:href="itkLabelStatisticsImageFilter_8h.html" target="_top" xlink:title=" ">
<polygon fill="white" stroke="black" points="1330,-285 1330,-304 1494,-304 1494,-285 1330,-285"/>
<text text-anchor="middle" x="1412" y="-292" font-family="Helvetica,sans-Serif" font-size="10.00">itkLabelStatisticsImageFilter.h</text>
</a>
</g>
</g>
<!-- Node2&#45;&gt;Node19 -->
<g id="edge18" class="edge">
<title>Node2&#45;&gt;Node19</title>
<path fill="none" stroke="midnightblue" d="M1184.67,-344.33C1238.39,-332.79 1322.95,-314.63 1372.39,-304.01"/>
<polygon fill="midnightblue" stroke="midnightblue" points="1183.73,-340.95 1174.69,-346.48 1185.2,-347.8 1183.73,-340.95"/>
</g>
<!-- Node20 -->
<g id="node20" class="node">
<title>Node20</title>
<g id="a_node20"><a xlink:href="itkMinimumMaximumImageFilter_8h.html" target="_top" xlink:title=" ">
<polygon fill="white" stroke="black" points="602.5,-285 602.5,-304 791.5,-304 791.5,-285 602.5,-285"/>
<text text-anchor="middle" x="697" y="-292" font-family="Helvetica,sans-Serif" font-size="10.00">itkMinimumMaximumImageFilter.h</text>
</a>
</g>
</g>
<!-- Node2&#45;&gt;Node20 -->
<g id="edge19" class="edge">
<title>Node2&#45;&gt;Node20</title>
<path fill="none" stroke="midnightblue" d="M1079.67,-347.62C1013.41,-338.77 899.08,-323.44 801,-310 787,-308.08 771.95,-306 757.76,-304.02"/>
<polygon fill="midnightblue" stroke="midnightblue" points="1079.51,-351.13 1089.88,-348.99 1080.43,-344.2 1079.51,-351.13"/>
</g>
<!-- Node21 -->
<g id="node21" class="node">
<title>Node21</title>
<g id="a_node21"><a xlink:href="itkStatisticsImageFilter_8h.html" target="_top" xlink:title=" ">
<polygon fill="white" stroke="black" points="810,-285 810,-304 948,-304 948,-285 810,-285"/>
<text text-anchor="middle" x="879" y="-292" font-family="Helvetica,sans-Serif" font-size="10.00">itkStatisticsImageFilter.h</text>
</a>
</g>
</g>
<!-- Node2&#45;&gt;Node21 -->
<g id="edge20" class="edge">
<title>Node2&#45;&gt;Node21</title>
<path fill="none" stroke="midnightblue" d="M1088.47,-344.19C1038.8,-332.64 961.11,-314.58 915.61,-304.01"/>
<polygon fill="midnightblue" stroke="midnightblue" points="1087.79,-347.62 1098.32,-346.48 1089.37,-340.8 1087.79,-347.62"/>
</g>
<!-- Node4 -->
<g id="node4" class="node">
<title>Node4</title>
<g id="a_node4"><a xlink:href="itkHistogramThresholdImageFilter_8h.html" target="_top" xlink:title=" ">
<polygon fill="white" stroke="black" points="1052.5,-207 1052.5,-237 1211.5,-237 1211.5,-207 1052.5,-207"/>
<text text-anchor="start" x="1060.5" y="-225" font-family="Helvetica,sans-Serif" font-size="10.00">itkHistogramThresholdImage</text>
<text text-anchor="middle" x="1132" y="-214" font-family="Helvetica,sans-Serif" font-size="10.00">Filter.h</text>
</a>
</g>
</g>
<!-- Node3&#45;&gt;Node4 -->
<g id="edge3" class="edge">
<title>Node3&#45;&gt;Node4</title>
<path fill="none" stroke="midnightblue" d="M1062.99,-278.28C1078.26,-266.05 1099.55,-249 1114.43,-237.08"/>
<polygon fill="midnightblue" stroke="midnightblue" points="1060.41,-275.87 1054.79,-284.86 1064.78,-281.33 1060.41,-275.87"/>
</g>
<!-- Node17 -->
<g id="node17" class="node">
<title>Node17</title>
<g id="a_node17"><a xlink:href="itkMaskedImageToHistogramFilter_8h.html" target="_top" xlink:title=" ">
<polygon fill="white" stroke="black" points="875.5,-207 875.5,-237 1034.5,-237 1034.5,-207 875.5,-207"/>
<text text-anchor="start" x="883.5" y="-225" font-family="Helvetica,sans-Serif" font-size="10.00">itkMaskedImageToHistogram</text>
<text text-anchor="middle" x="955" y="-214" font-family="Helvetica,sans-Serif" font-size="10.00">Filter.h</text>
</a>
</g>
</g>
<!-- Node3&#45;&gt;Node17 -->
<g id="edge16" class="edge">
<title>Node3&#45;&gt;Node17</title>
<path fill="none" stroke="midnightblue" d="M1025.22,-278.63C1009.75,-266.37 987.96,-249.11 972.77,-237.08"/>
<polygon fill="midnightblue" stroke="midnightblue" points="1023.07,-281.39 1033.09,-284.86 1027.42,-275.9 1023.07,-281.39"/>
</g>
<!-- Node5 -->
<g id="node5" class="node">
<title>Node5</title>
<g id="a_node5"><a xlink:href="itkHuangThresholdImageFilter_8h.html" target="_top" xlink:title=" ">
<polygon fill="white" stroke="black" points="514.5,-140 514.5,-159 687.5,-159 687.5,-140 514.5,-140"/>
<text text-anchor="middle" x="601" y="-147" font-family="Helvetica,sans-Serif" font-size="10.00">itkHuangThresholdImageFilter.h</text>
</a>
</g>
</g>
<!-- Node4&#45;&gt;Node5 -->
<g id="edge4" class="edge">
<title>Node4&#45;&gt;Node5</title>
<path fill="none" stroke="midnightblue" d="M1064.46,-204.95C1057.24,-203.5 1049.98,-202.14 1043,-201 890.43,-176.01 850.37,-184.55 697,-165 683.21,-163.24 668.33,-161.11 654.51,-159.03"/>
<polygon fill="midnightblue" stroke="midnightblue" points="1063.76,-208.38 1074.26,-206.99 1065.19,-201.53 1063.76,-208.38"/>
</g>
<!-- Node6 -->
<g id="node6" class="node">
<title>Node6</title>
<g id="a_node6"><a xlink:href="itkIntermodesThresholdImageFilter_8h.html" target="_top" xlink:title=" ">
<polygon fill="white" stroke="black" points="706,-134.5 706,-164.5 870,-164.5 870,-134.5 706,-134.5"/>
<text text-anchor="start" x="714" y="-152.5" font-family="Helvetica,sans-Serif" font-size="10.00">itkIntermodesThresholdImage</text>
<text text-anchor="middle" x="788" y="-141.5" font-family="Helvetica,sans-Serif" font-size="10.00">Filter.h</text>
</a>
</g>
</g>
<!-- Node4&#45;&gt;Node6 -->
<g id="edge5" class="edge">
<title>Node4&#45;&gt;Node6</title>
<path fill="none" stroke="midnightblue" d="M1060.39,-204.74C1054.51,-203.46 1048.66,-202.2 1043,-201 981.96,-188.1 912.47,-174.4 861.47,-164.54"/>
<polygon fill="midnightblue" stroke="midnightblue" points="1059.76,-208.19 1070.28,-206.92 1061.27,-201.35 1059.76,-208.19"/>
</g>
<!-- Node7 -->
<g id="node7" class="node">
<title>Node7</title>
<g id="a_node7"><a xlink:href="itkIsoDataThresholdImageFilter_8h.html" target="_top" xlink:title=" ">
<polygon fill="white" stroke="black" points="888,-134.5 888,-164.5 1034,-164.5 1034,-134.5 888,-134.5"/>
<text text-anchor="start" x="896" y="-152.5" font-family="Helvetica,sans-Serif" font-size="10.00">itkIsoDataThresholdImage</text>
<text text-anchor="middle" x="961" y="-141.5" font-family="Helvetica,sans-Serif" font-size="10.00">Filter.h</text>
</a>
</g>
</g>
<!-- Node4&#45;&gt;Node7 -->
<g id="edge6" class="edge">
<title>Node4&#45;&gt;Node7</title>
<path fill="none" stroke="midnightblue" d="M1088.34,-203C1059.38,-191.06 1021.91,-175.61 995.13,-164.57"/>
<polygon fill="midnightblue" stroke="midnightblue" points="1087.23,-206.33 1097.81,-206.9 1089.9,-199.86 1087.23,-206.33"/>
</g>
<!-- Node8 -->
<g id="node8" class="node">
<title>Node8</title>
<g id="a_node8"><a xlink:href="itkKittlerIllingworthThresholdImageFilter_8h.html" target="_top" xlink:title=" ">
<polygon fill="white" stroke="black" points="1052.5,-134.5 1052.5,-164.5 1211.5,-164.5 1211.5,-134.5 1052.5,-134.5"/>
<text text-anchor="start" x="1060.5" y="-152.5" font-family="Helvetica,sans-Serif" font-size="10.00">itkKittlerIllingworthThreshold</text>
<text text-anchor="middle" x="1132" y="-141.5" font-family="Helvetica,sans-Serif" font-size="10.00">ImageFilter.h</text>
</a>
</g>
</g>
<!-- Node4&#45;&gt;Node8 -->
<g id="edge7" class="edge">
<title>Node4&#45;&gt;Node8</title>
<path fill="none" stroke="midnightblue" d="M1132,-196.73C1132,-186.07 1132,-173.91 1132,-164.75"/>
<polygon fill="midnightblue" stroke="midnightblue" points="1128.5,-196.73 1132,-206.73 1135.5,-196.73 1128.5,-196.73"/>
</g>
<!-- Node9 -->
<g id="node9" class="node">
<title>Node9</title>
<g id="a_node9"><a xlink:href="itkLiThresholdImageFilter_8h.html" target="_top" xlink:title=" ">
<polygon fill="white" stroke="black" points="1229.5,-140 1229.5,-159 1378.5,-159 1378.5,-140 1229.5,-140"/>
<text text-anchor="middle" x="1304" y="-147" font-family="Helvetica,sans-Serif" font-size="10.00">itkLiThresholdImageFilter.h</text>
</a>
</g>
</g>
<!-- Node4&#45;&gt;Node9 -->
<g id="edge8" class="edge">
<title>Node4&#45;&gt;Node9</title>
<path fill="none" stroke="midnightblue" d="M1175.76,-203.06C1210.21,-188.94 1256.68,-169.9 1283.18,-159.03"/>
<polygon fill="midnightblue" stroke="midnightblue" points="1174.32,-199.87 1166.39,-206.9 1176.97,-206.35 1174.32,-199.87"/>
</g>
<!-- Node10 -->
<g id="node10" class="node">
<title>Node10</title>
<g id="a_node10"><a xlink:href="itkMaximumEntropyThresholdImageFilter_8h.html" target="_top" xlink:title=" ">
<polygon fill="white" stroke="black" points="1397,-134.5 1397,-164.5 1561,-164.5 1561,-134.5 1397,-134.5"/>
<text text-anchor="start" x="1405" y="-152.5" font-family="Helvetica,sans-Serif" font-size="10.00">itkMaximumEntropyThreshold</text>
<text text-anchor="middle" x="1479" y="-141.5" font-family="Helvetica,sans-Serif" font-size="10.00">ImageFilter.h</text>
</a>
</g>
</g>
<!-- Node4&#45;&gt;Node10 -->
<g id="edge9" class="edge">
<title>Node4&#45;&gt;Node10</title>
<path fill="none" stroke="midnightblue" d="M1210.77,-205C1270.72,-192.82 1352.43,-176.21 1409.86,-164.55"/>
<polygon fill="midnightblue" stroke="midnightblue" points="1210.07,-201.57 1200.97,-206.99 1211.47,-208.43 1210.07,-201.57"/>
</g>
<!-- Node11 -->
<g id="node11" class="node">
<title>Node11</title>
<g id="a_node11"><a xlink:href="itkMomentsThresholdImageFilter_8h.html" target="_top" xlink:title=" ">
<polygon fill="white" stroke="black" points="1579,-134.5 1579,-164.5 1733,-164.5 1733,-134.5 1579,-134.5"/>
<text text-anchor="start" x="1587" y="-152.5" font-family="Helvetica,sans-Serif" font-size="10.00">itkMomentsThresholdImage</text>
<text text-anchor="middle" x="1656" y="-141.5" font-family="Helvetica,sans-Serif" font-size="10.00">Filter.h</text>
</a>
</g>
</g>
<!-- Node4&#45;&gt;Node11 -->
<g id="edge10" class="edge">
<title>Node4&#45;&gt;Node11</title>
<path fill="none" stroke="midnightblue" d="M1221.67,-210.6C1310.31,-200.06 1449.7,-182.82 1570,-165 1572.85,-164.58 1575.74,-164.14 1578.67,-163.69"/>
<polygon fill="midnightblue" stroke="midnightblue" points="1221.17,-207.13 1211.66,-211.78 1222,-214.08 1221.17,-207.13"/>
</g>
<!-- Node12 -->
<g id="node12" class="node">
<title>Node12</title>
<g id="a_node12"><a xlink:href="itkOtsuThresholdImageFilter_8h.html" target="_top" xlink:title=" ">
<polygon fill="white" stroke="black" points="1751,-140 1751,-159 1915,-159 1915,-140 1751,-140"/>
<text text-anchor="middle" x="1833" y="-147" font-family="Helvetica,sans-Serif" font-size="10.00">itkOtsuThresholdImageFilter.h</text>
</a>
</g>
</g>
<!-- Node4&#45;&gt;Node12 -->
<g id="edge11" class="edge">
<title>Node4&#45;&gt;Node12</title>
<path fill="none" stroke="midnightblue" d="M1221.8,-214.63C1340.94,-205.76 1557.7,-188.12 1742,-165 1755.49,-163.31 1770.06,-161.14 1783.5,-159"/>
<polygon fill="midnightblue" stroke="midnightblue" points="1221.34,-211.16 1211.63,-215.39 1221.86,-218.14 1221.34,-211.16"/>
</g>
<!-- Node13 -->
<g id="node13" class="node">
<title>Node13</title>
<g id="a_node13"><a xlink:href="itkRenyiEntropyThresholdImageFilter_8h.html" target="_top" xlink:title=" ">
<polygon fill="white" stroke="black" points="1933.5,-134.5 1933.5,-164.5 2076.5,-164.5 2076.5,-134.5 1933.5,-134.5"/>
<text text-anchor="start" x="1941.5" y="-152.5" font-family="Helvetica,sans-Serif" font-size="10.00">itkRenyiEntropyThreshold</text>
<text text-anchor="middle" x="2005" y="-141.5" font-family="Helvetica,sans-Serif" font-size="10.00">ImageFilter.h</text>
</a>
</g>
</g>
<!-- Node4&#45;&gt;Node13 -->
<g id="edge12" class="edge">
<title>Node4&#45;&gt;Node13</title>
<path fill="none" stroke="midnightblue" d="M1221.85,-217.77C1369.04,-211.77 1670.53,-196.56 1924,-165 1926.98,-164.63 1930.01,-164.22 1933.07,-163.79"/>
<polygon fill="midnightblue" stroke="midnightblue" points="1221.37,-214.28 1211.52,-218.18 1221.66,-221.28 1221.37,-214.28"/>
</g>
<!-- Node14 -->
<g id="node14" class="node">
<title>Node14</title>
<g id="a_node14"><a xlink:href="itkShanbhagThresholdImageFilter_8h.html" target="_top" xlink:title=" ">
<polygon fill="white" stroke="black" points="0,-134.5 0,-164.5 156,-164.5 156,-134.5 0,-134.5"/>
<text text-anchor="start" x="8" y="-152.5" font-family="Helvetica,sans-Serif" font-size="10.00">itkShanbhagThresholdImage</text>
<text text-anchor="middle" x="78" y="-141.5" font-family="Helvetica,sans-Serif" font-size="10.00">Filter.h</text>
</a>
</g>
</g>
<!-- Node4&#45;&gt;Node14 -->
<g id="edge13" class="edge">
<title>Node4&#45;&gt;Node14</title>
<path fill="none" stroke="midnightblue" d="M1066.73,-204.93C1058.77,-203.38 1050.73,-202.02 1043,-201 655.8,-149.98 553.48,-205.18 165,-165 162.11,-164.7 159.16,-164.37 156.19,-164"/>
<polygon fill="midnightblue" stroke="midnightblue" points="1066.23,-208.4 1076.73,-206.96 1067.63,-201.54 1066.23,-208.4"/>
</g>
<!-- Node15 -->
<g id="node15" class="node">
<title>Node15</title>
<g id="a_node15"><a xlink:href="itkTriangleThresholdImageFilter_8h.html" target="_top" xlink:title=" ">
<polygon fill="white" stroke="black" points="174,-134.5 174,-164.5 320,-164.5 320,-134.5 174,-134.5"/>
<text text-anchor="start" x="182" y="-152.5" font-family="Helvetica,sans-Serif" font-size="10.00">itkTriangleThresholdImage</text>
<text text-anchor="middle" x="247" y="-141.5" font-family="Helvetica,sans-Serif" font-size="10.00">Filter.h</text>
</a>
</g>
</g>
<!-- Node4&#45;&gt;Node15 -->
<g id="edge14" class="edge">
<title>Node4&#45;&gt;Node15</title>
<path fill="none" stroke="midnightblue" d="M1066.38,-204.93C1058.54,-203.4 1050.61,-202.04 1043,-201 728.19,-158.01 644.72,-200.73 329,-165 326.13,-164.67 323.2,-164.31 320.25,-163.92"/>
<polygon fill="midnightblue" stroke="midnightblue" points="1065.74,-208.37 1076.24,-206.94 1067.14,-201.51 1065.74,-208.37"/>
</g>
<!-- Node16 -->
<g id="node16" class="node">
<title>Node16</title>
<g id="a_node16"><a xlink:href="itkYenThresholdImageFilter_8h.html" target="_top" xlink:title=" ">
<polygon fill="white" stroke="black" points="338,-140 338,-159 496,-159 496,-140 338,-140"/>
<text text-anchor="middle" x="417" y="-147" font-family="Helvetica,sans-Serif" font-size="10.00">itkYenThresholdImageFilter.h</text>
</a>
</g>
</g>
<!-- Node4&#45;&gt;Node16 -->
<g id="edge15" class="edge">
<title>Node4&#45;&gt;Node16</title>
<path fill="none" stroke="midnightblue" d="M1065.76,-204.94C1058.12,-203.43 1050.41,-202.07 1043,-201 805.83,-166.63 743.06,-192.51 505,-165 491.46,-163.44 476.84,-161.23 463.47,-159.02"/>
<polygon fill="midnightblue" stroke="midnightblue" points="1065.25,-208.4 1075.75,-206.98 1066.65,-201.55 1065.25,-208.4"/>
</g>
<!-- Node22 -->
<g id="node22" class="node">
<title>Node22</title>
<g id="a_node22"><a xlink:href="itkNormalizeImageFilter_8h.html" target="_top" xlink:title=" ">
<polygon fill="white" stroke="black" points="714.5,-212.5 714.5,-231.5 857.5,-231.5 857.5,-212.5 714.5,-212.5"/>
<text text-anchor="middle" x="786" y="-219.5" font-family="Helvetica,sans-Serif" font-size="10.00">itkNormalizeImageFilter.h</text>
</a>
</g>
</g>
<!-- Node21&#45;&gt;Node22 -->
<g id="edge21" class="edge">
<title>Node21&#45;&gt;Node22</title>
<path fill="none" stroke="midnightblue" d="M859.43,-278.67C840.66,-264.44 812.96,-243.43 797.5,-231.72"/>
<polygon fill="midnightblue" stroke="midnightblue" points="857.51,-281.6 867.6,-284.86 861.74,-276.03 857.51,-281.6"/>
</g>
<!-- Node24 -->
<g id="node24" class="node">
<title>Node24</title>
<g id="a_node24"><a xlink:href="itkANTSNeighborhoodCorrelationImageToImageMetricv4GetValueAndDerivativeThreader_8h.html" target="_top" xlink:title=" ">
<polygon fill="white" stroke="black" points="1782.5,-201.5 1782.5,-242.5 2027.5,-242.5 2027.5,-201.5 1782.5,-201.5"/>
<text text-anchor="start" x="1790.5" y="-230.5" font-family="Helvetica,sans-Serif" font-size="10.00">itkANTSNeighborhoodCorrelation</text>
<text text-anchor="start" x="1790.5" y="-219.5" font-family="Helvetica,sans-Serif" font-size="10.00">ImageToImageMetricv4GetValueAndDerivative</text>
<text text-anchor="middle" x="1905" y="-208.5" font-family="Helvetica,sans-Serif" font-size="10.00">Threader.h</text>
</a>
</g>
</g>
<!-- Node23&#45;&gt;Node24 -->
<g id="edge23" class="edge">
<title>Node23&#45;&gt;Node24</title>
<path fill="none" stroke="midnightblue" d="M2866.87,-345.35C2704.28,-326.95 2341.04,-284.9 2036,-243 2033.26,-242.62 2030.5,-242.24 2027.71,-241.85"/>
<polygon fill="midnightblue" stroke="midnightblue" points="2866.49,-348.83 2876.82,-346.48 2867.27,-341.88 2866.49,-348.83"/>
</g>
<!-- Node26 -->
<g id="node26" class="node">
<title>Node26</title>
<g id="a_node26"><a xlink:href="itkImageToImageMetricv4_8h.html" target="_top" xlink:title=" ">
<polygon fill="white" stroke="black" points="2876.5,-212.5 2876.5,-231.5 3029.5,-231.5 3029.5,-212.5 2876.5,-212.5"/>
<text text-anchor="middle" x="2953" y="-219.5" font-family="Helvetica,sans-Serif" font-size="10.00">itkImageToImageMetricv4.h</text>
</a>
</g>
</g>
<!-- Node23&#45;&gt;Node26 -->
<g id="edge25" class="edge">
<title>Node23&#45;&gt;Node26</title>
<path fill="none" stroke="midnightblue" d="M2953,-336.28C2953,-307.25 2953,-252.54 2953,-231.52"/>
<polygon fill="midnightblue" stroke="midnightblue" points="2949.5,-336.34 2953,-346.34 2956.5,-336.34 2949.5,-336.34"/>
</g>
<!-- Node37 -->
<g id="node37" class="node">
<title>Node37</title>
<g id="a_node37"><a xlink:href="itkImageToImageMetricv4GetValueAndDerivativeThreader_8h.html" target="_top" xlink:title=" ">
<polygon fill="white" stroke="black" points="2678.5,-279.5 2678.5,-309.5 2843.5,-309.5 2843.5,-279.5 2678.5,-279.5"/>
<text text-anchor="start" x="2686.5" y="-297.5" font-family="Helvetica,sans-Serif" font-size="10.00">itkImageToImageMetricv4Get</text>
<text text-anchor="middle" x="2761" y="-286.5" font-family="Helvetica,sans-Serif" font-size="10.00">ValueAndDerivativeThreader.h</text>
</a>
</g>
</g>
<!-- Node23&#45;&gt;Node37 -->
<g id="edge37" class="edge">
<title>Node23&#45;&gt;Node37</title>
<path fill="none" stroke="midnightblue" d="M2915.84,-343.48C2884.53,-333.78 2839.64,-319.87 2806.25,-309.52"/>
<polygon fill="midnightblue" stroke="midnightblue" points="2914.9,-346.86 2925.49,-346.48 2916.98,-340.17 2914.9,-346.86"/>
</g>
<!-- Node44 -->
<g id="node44" class="node">
<title>Node44</title>
<g id="a_node44"><a xlink:href="itkJointHistogramMutualInformationComputeJointPDFThreader_8h.html" target="_top" xlink:title=" ">
<polygon fill="white" stroke="black" points="3058.5,-279.5 3058.5,-309.5 3251.5,-309.5 3251.5,-279.5 3058.5,-279.5"/>
<text text-anchor="start" x="3066.5" y="-297.5" font-family="Helvetica,sans-Serif" font-size="10.00">itkJointHistogramMutualInformation</text>
<text text-anchor="middle" x="3155" y="-286.5" font-family="Helvetica,sans-Serif" font-size="10.00">ComputeJointPDFThreader.h</text>
</a>
</g>
</g>
<!-- Node23&#45;&gt;Node44 -->
<g id="edge52" class="edge">
<title>Node23&#45;&gt;Node44</title>
<path fill="none" stroke="midnightblue" d="M2991.67,-343.61C3024.62,-333.9 3072.11,-319.92 3107.39,-309.52"/>
<polygon fill="midnightblue" stroke="midnightblue" points="2990.55,-340.29 2981.94,-346.48 2992.52,-347.01 2990.55,-340.29"/>
</g>
<!-- Node45 -->
<g id="node45" class="node">
<title>Node45</title>
<g id="a_node45"><a xlink:href="itkLevelSetEvolutionComputeIterationThreader_8h.html" target="_top" xlink:title=" ">
<polygon fill="white" stroke="black" points="3308.5,-279.5 3308.5,-309.5 3469.5,-309.5 3469.5,-279.5 3308.5,-279.5"/>
<text text-anchor="start" x="3316.5" y="-297.5" font-family="Helvetica,sans-Serif" font-size="10.00">itkLevelSetEvolutionCompute</text>
<text text-anchor="middle" x="3389" y="-286.5" font-family="Helvetica,sans-Serif" font-size="10.00">IterationThreader.h</text>
</a>
</g>
</g>
<!-- Node23&#45;&gt;Node45 -->
<g id="edge54" class="edge">
<title>Node23&#45;&gt;Node45</title>
<path fill="none" stroke="midnightblue" d="M3025.7,-345.08C3103.78,-334.42 3227.51,-317.54 3308.49,-306.49"/>
<polygon fill="midnightblue" stroke="midnightblue" points="3024.9,-341.66 3015.47,-346.48 3025.85,-348.59 3024.9,-341.66"/>
</g>
<!-- Node47 -->
<g id="node47" class="node">
<title>Node47</title>
<g id="a_node47"><a xlink:href="itkLevelSetEvolutionUpdateLevelSetsThreader_8h.html" target="_top" xlink:title=" ">
<polygon fill="white" stroke="black" points="3507,-279.5 3507,-309.5 3659,-309.5 3659,-279.5 3507,-279.5"/>
<text text-anchor="start" x="3515" y="-297.5" font-family="Helvetica,sans-Serif" font-size="10.00">itkLevelSetEvolutionUpdate</text>
<text text-anchor="middle" x="3583" y="-286.5" font-family="Helvetica,sans-Serif" font-size="10.00">LevelSetsThreader.h</text>
</a>
</g>
</g>
<!-- Node23&#45;&gt;Node47 -->
<g id="edge56" class="edge">
<title>Node23&#45;&gt;Node47</title>
<path fill="none" stroke="midnightblue" d="M3062.16,-347.36C3168.66,-339.51 3335.18,-326.17 3479,-310 3488.06,-308.98 3497.55,-307.81 3506.95,-306.58"/>
<polygon fill="midnightblue" stroke="midnightblue" points="3061.76,-343.88 3052.04,-348.11 3062.27,-350.86 3061.76,-343.88"/>
</g>
<!-- Node25 -->
<g id="node25" class="node">
<title>Node25</title>
<g id="a_node25"><a xlink:href="itkANTSNeighborhoodCorrelationImageToImageMetricv4_8h.html" target="_top" xlink:title=" ">
<polygon fill="white" stroke="black" points="2095,-134.5 2095,-164.5 2273,-164.5 2273,-134.5 2095,-134.5"/>
<text text-anchor="start" x="2103" y="-152.5" font-family="Helvetica,sans-Serif" font-size="10.00">itkANTSNeighborhoodCorrelation</text>
<text text-anchor="middle" x="2184" y="-141.5" font-family="Helvetica,sans-Serif" font-size="10.00">ImageToImageMetricv4.h</text>
</a>
</g>
</g>
<!-- Node24&#45;&gt;Node25 -->
<g id="edge24" class="edge">
<title>Node24&#45;&gt;Node25</title>
<path fill="none" stroke="midnightblue" d="M1992.27,-198.95C2036.67,-187.73 2089.33,-174.42 2128.21,-164.6"/>
<polygon fill="midnightblue" stroke="midnightblue" points="1991.18,-195.61 1982.35,-201.46 1992.9,-202.4 1991.18,-195.61"/>
</g>
<!-- Node26&#45;&gt;Node25 -->
<g id="edge26" class="edge">
<title>Node26&#45;&gt;Node25</title>
<path fill="none" stroke="midnightblue" d="M2911.87,-209.96C2897.74,-206.57 2881.77,-203.16 2867,-201 2609.24,-163.37 2541.08,-192.09 2282,-165 2279.09,-164.7 2276.14,-164.37 2273.16,-164.02"/>
<polygon fill="midnightblue" stroke="midnightblue" points="2911.24,-213.41 2921.79,-212.42 2912.92,-206.62 2911.24,-213.41"/>
</g>
<!-- Node27 -->
<g id="node27" class="node">
<title>Node27</title>
<g id="a_node27"><a xlink:href="itkCorrelationImageToImageMetricv4_8h.html" target="_top" xlink:title=" ">
<polygon fill="white" stroke="black" points="2291.5,-134.5 2291.5,-164.5 2446.5,-164.5 2446.5,-134.5 2291.5,-134.5"/>
<text text-anchor="start" x="2299.5" y="-152.5" font-family="Helvetica,sans-Serif" font-size="10.00">itkCorrelationImageToImage</text>
<text text-anchor="middle" x="2369" y="-141.5" font-family="Helvetica,sans-Serif" font-size="10.00">Metricv4.h</text>
</a>
</g>
</g>
<!-- Node26&#45;&gt;Node27 -->
<g id="edge27" class="edge">
<title>Node26&#45;&gt;Node27</title>
<path fill="none" stroke="midnightblue" d="M2911.13,-210.03C2897.18,-206.71 2881.49,-203.32 2867,-201 2689.88,-172.62 2643.1,-186.4 2465,-165 2459.06,-164.29 2452.92,-163.49 2446.75,-162.65"/>
<polygon fill="midnightblue" stroke="midnightblue" points="2910.4,-213.46 2920.95,-212.43 2912.06,-206.66 2910.4,-213.46"/>
</g>
<!-- Node28 -->
<g id="node28" class="node">
<title>Node28</title>
<g id="a_node28"><a xlink:href="itkDemonsImageToImageMetricv4_8h.html" target="_top" xlink:title=" ">
<polygon fill="white" stroke="black" points="2474,-140 2474,-159 2668,-159 2668,-140 2474,-140"/>
<text text-anchor="middle" x="2571" y="-147" font-family="Helvetica,sans-Serif" font-size="10.00">itkDemonsImageToImageMetricv4.h</text>
</a>
</g>
</g>
<!-- Node26&#45;&gt;Node28 -->
<g id="edge28" class="edge">
<title>Node26&#45;&gt;Node28</title>
<path fill="none" stroke="midnightblue" d="M2908.49,-210.12C2895.18,-207.01 2880.53,-203.73 2867,-201 2783.7,-184.22 2686.47,-168.34 2626.83,-159.01"/>
<polygon fill="midnightblue" stroke="midnightblue" points="2907.83,-213.56 2918.37,-212.45 2909.44,-206.75 2907.83,-213.56"/>
</g>
<!-- Node29 -->
<g id="node29" class="node">
<title>Node29</title>
<g id="a_node29"><a xlink:href="itkImageRegistrationMethodv4_8h.html" target="_top" xlink:title=" ">
<polygon fill="white" stroke="black" points="2864.5,-140 2864.5,-159 3041.5,-159 3041.5,-140 2864.5,-140"/>
<text text-anchor="middle" x="2953" y="-147" font-family="Helvetica,sans-Serif" font-size="10.00">itkImageRegistrationMethodv4.h</text>
</a>
</g>
</g>
<!-- Node26&#45;&gt;Node29 -->
<g id="edge29" class="edge">
<title>Node26&#45;&gt;Node29</title>
<path fill="none" stroke="midnightblue" d="M2953,-201.94C2953,-188.03 2953,-169.82 2953,-159.22"/>
<polygon fill="midnightblue" stroke="midnightblue" points="2949.5,-202.36 2953,-212.36 2956.5,-202.36 2949.5,-202.36"/>
</g>
<!-- Node34 -->
<g id="node34" class="node">
<title>Node34</title>
<g id="a_node34"><a xlink:href="itkJointHistogramMutualInformationImageToImageMetricv4_8h.html" target="_top" xlink:title=" ">
<polygon fill="white" stroke="black" points="3290.5,-134.5 3290.5,-164.5 3483.5,-164.5 3483.5,-134.5 3290.5,-134.5"/>
<text text-anchor="start" x="3298.5" y="-152.5" font-family="Helvetica,sans-Serif" font-size="10.00">itkJointHistogramMutualInformation</text>
<text text-anchor="middle" x="3387" y="-141.5" font-family="Helvetica,sans-Serif" font-size="10.00">ImageToImageMetricv4.h</text>
</a>
</g>
</g>
<!-- Node26&#45;&gt;Node34 -->
<g id="edge34" class="edge">
<title>Node26&#45;&gt;Node34</title>
<path fill="none" stroke="midnightblue" d="M2996.24,-210.05C3009.58,-206.89 3024.35,-203.59 3038,-201 3122.81,-184.92 3220.07,-171.23 3290.34,-162.18"/>
<polygon fill="midnightblue" stroke="midnightblue" points="2995.26,-206.69 2986.36,-212.44 2996.91,-213.49 2995.26,-206.69"/>
</g>
<!-- Node35 -->
<g id="node35" class="node">
<title>Node35</title>
<g id="a_node35"><a xlink:href="itkMattesMutualInformationImageToImageMetricv4_8h.html" target="_top" xlink:title=" ">
<polygon fill="white" stroke="black" points="2690,-134.5 2690,-164.5 2844,-164.5 2844,-134.5 2690,-134.5"/>
<text text-anchor="start" x="2698" y="-152.5" font-family="Helvetica,sans-Serif" font-size="10.00">itkMattesMutualInformation</text>
<text text-anchor="middle" x="2767" y="-141.5" font-family="Helvetica,sans-Serif" font-size="10.00">ImageToImageMetricv4.h</text>
</a>
</g>
</g>
<!-- Node26&#45;&gt;Node35 -->
<g id="edge35" class="edge">
<title>Node26&#45;&gt;Node35</title>
<path fill="none" stroke="midnightblue" d="M2921.08,-208.9C2888.56,-196.58 2838.18,-177.48 2803.95,-164.51"/>
<polygon fill="midnightblue" stroke="midnightblue" points="2919.97,-212.22 2930.56,-212.5 2922.45,-205.68 2919.97,-212.22"/>
</g>
<!-- Node36 -->
<g id="node36" class="node">
<title>Node36</title>
<g id="a_node36"><a xlink:href="itkMeanSquaresImageToImageMetricv4_8h.html" target="_top" xlink:title=" ">
<polygon fill="white" stroke="black" points="3068.5,-134.5 3068.5,-164.5 3235.5,-164.5 3235.5,-134.5 3068.5,-134.5"/>
<text text-anchor="start" x="3076.5" y="-152.5" font-family="Helvetica,sans-Serif" font-size="10.00">itkMeanSquaresImageToImage</text>
<text text-anchor="middle" x="3152" y="-141.5" font-family="Helvetica,sans-Serif" font-size="10.00">Metricv4.h</text>
</a>
</g>
</g>
<!-- Node26&#45;&gt;Node36 -->
<g id="edge36" class="edge">
<title>Node26&#45;&gt;Node36</title>
<path fill="none" stroke="midnightblue" d="M2986.7,-209.06C3021.47,-196.74 3075.69,-177.54 3112.47,-164.51"/>
<polygon fill="midnightblue" stroke="midnightblue" points="2985.26,-205.86 2977,-212.5 2987.6,-212.46 2985.26,-205.86"/>
</g>
<!-- Node30 -->
<g id="node30" class="node">
<title>Node30</title>
<g id="a_node30"><a xlink:href="itkSyNImageRegistrationMethod_8h.html" target="_top" xlink:title=" ">
<polygon fill="white" stroke="black" points="2662.5,-73 2662.5,-92 2847.5,-92 2847.5,-73 2662.5,-73"/>
<text text-anchor="middle" x="2755" y="-80" font-family="Helvetica,sans-Serif" font-size="10.00">itkSyNImageRegistrationMethod.h</text>
</a>
</g>
</g>
<!-- Node29&#45;&gt;Node30 -->
<g id="edge30" class="edge">
<title>Node29&#45;&gt;Node30</title>
<path fill="none" stroke="midnightblue" d="M2917,-136.68C2877.76,-123.8 2815.91,-103.5 2781.09,-92.06"/>
<polygon fill="midnightblue" stroke="midnightblue" points="2916.11,-140.07 2926.71,-139.87 2918.3,-133.42 2916.11,-140.07"/>
</g>
<!-- Node32 -->
<g id="node32" class="node">
<title>Node32</title>
<g id="a_node32"><a xlink:href="itkTimeVaryingBSplineVelocityFieldImageRegistrationMethod_8h.html" target="_top" xlink:title=" ">
<polygon fill="white" stroke="black" points="2865,-67.5 2865,-97.5 3041,-97.5 3041,-67.5 2865,-67.5"/>
<text text-anchor="start" x="2873" y="-85.5" font-family="Helvetica,sans-Serif" font-size="10.00">itkTimeVaryingBSplineVelocity</text>
<text text-anchor="middle" x="2953" y="-74.5" font-family="Helvetica,sans-Serif" font-size="10.00">FieldImageRegistrationMethod.h</text>
</a>
</g>
</g>
<!-- Node29&#45;&gt;Node32 -->
<g id="edge32" class="edge">
<title>Node29&#45;&gt;Node32</title>
<path fill="none" stroke="midnightblue" d="M2953,-129.41C2953,-119.22 2953,-106.9 2953,-97.59"/>
<polygon fill="midnightblue" stroke="midnightblue" points="2949.5,-129.73 2953,-139.73 2956.5,-129.73 2949.5,-129.73"/>
</g>
<!-- Node33 -->
<g id="node33" class="node">
<title>Node33</title>
<g id="a_node33"><a xlink:href="itkTimeVaryingVelocityFieldImageRegistrationMethodv4_8h.html" target="_top" xlink:title=" ">
<polygon fill="white" stroke="black" points="3059,-67.5 3059,-97.5 3223,-97.5 3223,-67.5 3059,-67.5"/>
<text text-anchor="start" x="3067" y="-85.5" font-family="Helvetica,sans-Serif" font-size="10.00">itkTimeVaryingVelocityField</text>
<text text-anchor="middle" x="3141" y="-74.5" font-family="Helvetica,sans-Serif" font-size="10.00">ImageRegistrationMethodv4.h</text>
</a>
</g>
</g>
<!-- Node29&#45;&gt;Node33 -->
<g id="edge33" class="edge">
<title>Node29&#45;&gt;Node33</title>
<path fill="none" stroke="midnightblue" d="M2987.74,-136.49C3019.61,-125.47 3066.83,-109.14 3100.43,-97.53"/>
<polygon fill="midnightblue" stroke="midnightblue" points="2986.27,-133.29 2977.96,-139.87 2988.56,-139.91 2986.27,-133.29"/>
</g>
<!-- Node31 -->
<g id="node31" class="node">
<title>Node31</title>
<g id="a_node31"><a xlink:href="itkBSplineSyNImageRegistrationMethod_8h.html" target="_top" xlink:title=" ">
<polygon fill="white" stroke="black" points="2667,-0.5 2667,-30.5 2843,-30.5 2843,-0.5 2667,-0.5"/>
<text text-anchor="start" x="2675" y="-18.5" font-family="Helvetica,sans-Serif" font-size="10.00">itkBSplineSyNImageRegistration</text>
<text text-anchor="middle" x="2755" y="-7.5" font-family="Helvetica,sans-Serif" font-size="10.00">Method.h</text>
</a>
</g>
</g>
<!-- Node30&#45;&gt;Node31 -->
<g id="edge31" class="edge">
<title>Node30&#45;&gt;Node31</title>
<path fill="none" stroke="midnightblue" d="M2755,-62.41C2755,-52.22 2755,-39.9 2755,-30.59"/>
<polygon fill="midnightblue" stroke="midnightblue" points="2751.5,-62.73 2755,-72.73 2758.5,-62.73 2751.5,-62.73"/>
</g>
<!-- Node37&#45;&gt;Node24 -->
<g id="edge38" class="edge">
<title>Node37&#45;&gt;Node24</title>
<path fill="none" stroke="midnightblue" d="M2668.32,-289.48C2530.25,-282.94 2262.48,-268.13 2036,-243 2033.26,-242.7 2030.48,-242.38 2027.69,-242.04"/>
<polygon fill="midnightblue" stroke="midnightblue" points="2668.29,-292.98 2678.44,-289.96 2668.62,-285.99 2668.29,-292.98"/>
</g>
<!-- Node37&#45;&gt;Node26 -->
<g id="edge45" class="edge">
<title>Node37&#45;&gt;Node26</title>
<path fill="none" stroke="midnightblue" d="M2808.87,-275.92C2847.41,-261.77 2899.92,-242.49 2929.76,-231.53"/>
<polygon fill="midnightblue" stroke="midnightblue" points="2807.57,-272.67 2799.39,-279.4 2809.99,-279.24 2807.57,-272.67"/>
</g>
<!-- Node38 -->
<g id="node38" class="node">
<title>Node38</title>
<g id="a_node38"><a xlink:href="itkCorrelationImageToImageMetricv4GetValueAndDerivativeThreader_8h.html" target="_top" xlink:title=" ">
<polygon fill="white" stroke="black" points="2045.5,-207 2045.5,-237 2270.5,-237 2270.5,-207 2045.5,-207"/>
<text text-anchor="start" x="2053.5" y="-225" font-family="Helvetica,sans-Serif" font-size="10.00">itkCorrelationImageToImage</text>
<text text-anchor="middle" x="2158" y="-214" font-family="Helvetica,sans-Serif" font-size="10.00">Metricv4GetValueAndDerivativeThreader.h</text>
</a>
</g>
</g>
<!-- Node37&#45;&gt;Node38 -->
<g id="edge39" class="edge">
<title>Node37&#45;&gt;Node38</title>
<path fill="none" stroke="midnightblue" d="M2668,-285.41C2570.78,-276.56 2413.89,-261.2 2279,-243 2265.92,-241.24 2252.07,-239.15 2238.61,-237.01"/>
<polygon fill="midnightblue" stroke="midnightblue" points="2667.82,-288.91 2678.09,-286.32 2668.45,-281.93 2667.82,-288.91"/>
</g>
<!-- Node39 -->
<g id="node39" class="node">
<title>Node39</title>
<g id="a_node39"><a xlink:href="itkCorrelationImageToImageMetricv4HelperThreader_8h.html" target="_top" xlink:title=" ">
<polygon fill="white" stroke="black" points="2288.5,-207 2288.5,-237 2443.5,-237 2443.5,-207 2288.5,-207"/>
<text text-anchor="start" x="2296.5" y="-225" font-family="Helvetica,sans-Serif" font-size="10.00">itkCorrelationImageToImage</text>
<text text-anchor="middle" x="2366" y="-214" font-family="Helvetica,sans-Serif" font-size="10.00">Metricv4HelperThreader.h</text>
</a>
</g>
</g>
<!-- Node37&#45;&gt;Node39 -->
<g id="edge41" class="edge">
<title>Node37&#45;&gt;Node39</title>
<path fill="none" stroke="midnightblue" d="M2668.36,-280.01C2606.83,-270.64 2524.36,-257.31 2452,-243 2442.98,-241.22 2433.46,-239.17 2424.18,-237.08"/>
<polygon fill="midnightblue" stroke="midnightblue" points="2668.02,-283.49 2678.43,-281.53 2669.07,-276.57 2668.02,-283.49"/>
</g>
<!-- Node40 -->
<g id="node40" class="node">
<title>Node40</title>
<g id="a_node40"><a xlink:href="itkDemonsImageToImageMetricv4GetValueAndDerivativeThreader_8h.html" target="_top" xlink:title=" ">
<polygon fill="white" stroke="black" points="2461.5,-207 2461.5,-237 2646.5,-237 2646.5,-207 2461.5,-207"/>
<text text-anchor="start" x="2469.5" y="-225" font-family="Helvetica,sans-Serif" font-size="10.00">itkDemonsImageToImageMetricv4</text>
<text text-anchor="middle" x="2554" y="-214" font-family="Helvetica,sans-Serif" font-size="10.00">GetValueAndDerivativeThreader.h</text>
</a>
</g>
</g>
<!-- Node37&#45;&gt;Node40 -->
<g id="edge43" class="edge">
<title>Node37&#45;&gt;Node40</title>
<path fill="none" stroke="midnightblue" d="M2709.97,-276.12C2674.67,-264.1 2628.3,-248.31 2595.32,-237.07"/>
<polygon fill="midnightblue" stroke="midnightblue" points="2709.01,-279.49 2719.61,-279.4 2711.27,-272.87 2709.01,-279.49"/>
</g>
<!-- Node41 -->
<g id="node41" class="node">
<title>Node41</title>
<g id="a_node41"><a xlink:href="itkJointHistogramMutualInformationGetValueAndDerivativeThreader_8h.html" target="_top" xlink:title=" ">
<polygon fill="white" stroke="black" points="3290.5,-207 3290.5,-237 3483.5,-237 3483.5,-207 3290.5,-207"/>
<text text-anchor="start" x="3298.5" y="-225" font-family="Helvetica,sans-Serif" font-size="10.00">itkJointHistogramMutualInformation</text>
<text text-anchor="middle" x="3387" y="-214" font-family="Helvetica,sans-Serif" font-size="10.00">GetValueAndDerivativeThreader.h</text>
</a>
</g>
</g>
<!-- Node37&#45;&gt;Node41 -->
<g id="edge46" class="edge">
<title>Node37&#45;&gt;Node41</title>
<path fill="none" stroke="midnightblue" d="M2853.86,-287.01C2958.11,-279.13 3132.18,-264.22 3281,-243 3292.87,-241.31 3305.42,-239.21 3317.59,-237.02"/>
<polygon fill="midnightblue" stroke="midnightblue" points="2853.39,-283.53 2843.68,-287.77 2853.91,-290.51 2853.39,-283.53"/>
</g>
<!-- Node42 -->
<g id="node42" class="node">
<title>Node42</title>
<g id="a_node42"><a xlink:href="itkMattesMutualInformationImageToImageMetricv4GetValueAndDerivativeThreader_8h.html" target="_top" xlink:title=" ">
<polygon fill="white" stroke="black" points="2664,-201.5 2664,-242.5 2858,-242.5 2858,-201.5 2664,-201.5"/>
<text text-anchor="start" x="2672" y="-230.5" font-family="Helvetica,sans-Serif" font-size="10.00">itkMattesMutualInformation</text>
<text text-anchor="start" x="2672" y="-219.5" font-family="Helvetica,sans-Serif" font-size="10.00">ImageToImageMetricv4GetValueAnd</text>
<text text-anchor="middle" x="2761" y="-208.5" font-family="Helvetica,sans-Serif" font-size="10.00">DerivativeThreader.h</text>
</a>
</g>
</g>
<!-- Node37&#45;&gt;Node42 -->
<g id="edge48" class="edge">
<title>Node37&#45;&gt;Node42</title>
<path fill="none" stroke="midnightblue" d="M2761,-268.98C2761,-260.35 2761,-250.76 2761,-242.59"/>
<polygon fill="midnightblue" stroke="midnightblue" points="2757.5,-269.23 2761,-279.23 2764.5,-269.23 2757.5,-269.23"/>
</g>
<!-- Node43 -->
<g id="node43" class="node">
<title>Node43</title>
<g id="a_node43"><a xlink:href="itkMeanSquaresImageToImageMetricv4GetValueAndDerivativeThreader_8h.html" target="_top" xlink:title=" ">
<polygon fill="white" stroke="black" points="3047.5,-207 3047.5,-237 3272.5,-237 3272.5,-207 3047.5,-207"/>
<text text-anchor="start" x="3055.5" y="-225" font-family="Helvetica,sans-Serif" font-size="10.00">itkMeanSquaresImageToImage</text>
<text text-anchor="middle" x="3160" y="-214" font-family="Helvetica,sans-Serif" font-size="10.00">Metricv4GetValueAndDerivativeThreader.h</text>
</a>
</g>
</g>
<!-- Node37&#45;&gt;Node43 -->
<g id="edge50" class="edge">
<title>Node37&#45;&gt;Node43</title>
<path fill="none" stroke="midnightblue" d="M2850.3,-277.72C2919.35,-265.52 3014.06,-248.79 3080.5,-237.05"/>
<polygon fill="midnightblue" stroke="midnightblue" points="2849.55,-274.3 2840.31,-279.49 2850.76,-281.19 2849.55,-274.3"/>
</g>
<!-- Node38&#45;&gt;Node27 -->
<g id="edge40" class="edge">
<title>Node38&#45;&gt;Node27</title>
<path fill="none" stroke="midnightblue" d="M2209.76,-203.7C2245.74,-191.68 2293.09,-175.86 2326.78,-164.61"/>
<polygon fill="midnightblue" stroke="midnightblue" points="2208.31,-200.5 2199.94,-206.99 2210.53,-207.14 2208.31,-200.5"/>
</g>
<!-- Node39&#45;&gt;Node27 -->
<g id="edge42" class="edge">
<title>Node39&#45;&gt;Node27</title>
<path fill="none" stroke="midnightblue" d="M2367.03,-196.73C2367.49,-186.07 2368,-173.91 2368.39,-164.75"/>
<polygon fill="midnightblue" stroke="midnightblue" points="2363.54,-196.59 2366.61,-206.73 2370.53,-196.89 2363.54,-196.59"/>
</g>
<!-- Node40&#45;&gt;Node28 -->
<g id="edge44" class="edge">
<title>Node40&#45;&gt;Node28</title>
<path fill="none" stroke="midnightblue" d="M2559.79,-196.98C2562.92,-184.01 2566.59,-168.79 2568.86,-159.39"/>
<polygon fill="midnightblue" stroke="midnightblue" points="2556.38,-196.19 2557.44,-206.73 2563.19,-197.83 2556.38,-196.19"/>
</g>
<!-- Node41&#45;&gt;Node34 -->
<g id="edge47" class="edge">
<title>Node41&#45;&gt;Node34</title>
<path fill="none" stroke="midnightblue" d="M3387,-196.73C3387,-186.07 3387,-173.91 3387,-164.75"/>
<polygon fill="midnightblue" stroke="midnightblue" points="3383.5,-196.73 3387,-206.73 3390.5,-196.73 3383.5,-196.73"/>
</g>
<!-- Node42&#45;&gt;Node35 -->
<g id="edge49" class="edge">
<title>Node42&#45;&gt;Node35</title>
<path fill="none" stroke="midnightblue" d="M2763.52,-191.38C2764.3,-182.21 2765.12,-172.53 2765.78,-164.89"/>
<polygon fill="midnightblue" stroke="midnightblue" points="2760.03,-191.1 2762.67,-201.36 2767.01,-191.69 2760.03,-191.1"/>
</g>
<!-- Node43&#45;&gt;Node36 -->
<g id="edge51" class="edge">
<title>Node43&#45;&gt;Node36</title>
<path fill="none" stroke="midnightblue" d="M3157.25,-196.73C3156.04,-186.07 3154.66,-173.91 3153.62,-164.75"/>
<polygon fill="midnightblue" stroke="midnightblue" points="3153.78,-197.19 3158.38,-206.73 3160.73,-196.4 3153.78,-197.19"/>
</g>
<!-- Node44&#45;&gt;Node34 -->
<g id="edge53" class="edge">
<title>Node44&#45;&gt;Node34</title>
<path fill="none" stroke="midnightblue" d="M3261.59,-280.96C3357.76,-269.12 3485.33,-251.9 3493,-243 3505.19,-228.86 3502.96,-216.78 3493,-201 3482.06,-183.68 3463.38,-172.17 3444.71,-164.59"/>
<polygon fill="midnightblue" stroke="midnightblue" points="3261.01,-277.5 3251.51,-282.19 3261.86,-284.45 3261.01,-277.5"/>
</g>
<!-- Node46 -->
<g id="node46" class="node">
<title>Node46</title>
<g id="a_node46"><a xlink:href="itkLevelSetEvolution_8h.html" target="_top" xlink:title=" ">
<polygon fill="white" stroke="black" points="3540,-212.5 3540,-231.5 3666,-231.5 3666,-212.5 3540,-212.5"/>
<text text-anchor="middle" x="3603" y="-219.5" font-family="Helvetica,sans-Serif" font-size="10.00">itkLevelSetEvolution.h</text>
</a>
</g>
</g>
<!-- Node45&#45;&gt;Node46 -->
<g id="edge55" class="edge">
<title>Node45&#45;&gt;Node46</title>
<path fill="none" stroke="midnightblue" d="M3441.28,-276.28C3484.3,-262.1 3543.49,-242.61 3577.03,-231.55"/>
<polygon fill="midnightblue" stroke="midnightblue" points="3439.94,-273.03 3431.54,-279.49 3442.13,-279.68 3439.94,-273.03"/>
</g>
<!-- Node47&#45;&gt;Node46 -->
<g id="edge57" class="edge">
<title>Node47&#45;&gt;Node46</title>
<path fill="none" stroke="midnightblue" d="M3589.82,-269.48C3593.49,-256.51 3597.81,-241.29 3600.48,-231.89"/>
<polygon fill="midnightblue" stroke="midnightblue" points="3586.41,-268.66 3587.05,-279.23 3593.14,-270.57 3586.41,-268.66"/>
</g>
</g>
</svg>
