<?xml version="1.0" encoding="UTF-8" standalone="no"?>
<!DOCTYPE svg PUBLIC "-//W3C//DTD SVG 1.1//EN"
 "http://www.w3.org/Graphics/SVG/1.1/DTD/svg11.dtd">
<!-- Generated by graphviz version 2.43.0 (0)
 -->
<!-- Title: itkIndex.h Pages: 1 -->
<svg width="919pt" height="375pt"
 viewBox="0.00 0.00 919.00 375.00" xmlns="http://www.w3.org/2000/svg" xmlns:xlink="http://www.w3.org/1999/xlink">
<g id="graph0" class="graph" transform="scale(1 1) rotate(0) translate(4 371)">
<title>itkIndex.h</title>
<polygon fill="white" stroke="transparent" points="-4,4 -4,-371 915,-371 915,4 -4,4"/>
<!-- Node1 -->
<g id="node1" class="node">
<title>Node1</title>
<g id="a_node1"><a xlink:title=" ">
<polygon fill="#bfbfbf" stroke="black" points="436,-347.5 436,-366.5 501,-366.5 501,-347.5 436,-347.5"/>
<text text-anchor="middle" x="468.5" y="-354.5" font-family="Helvetica,sans-Serif" font-size="10.00">itkIndex.h</text>
</a>
</g>
</g>
<!-- Node2 -->
<g id="node2" class="node">
<title>Node2</title>
<g id="a_node2"><a xlink:href="itkMakeFilled_8h.html" target="_top" xlink:title=" ">
<polygon fill="white" stroke="black" points="0,-6 0,-25 91,-25 91,-6 0,-6"/>
<text text-anchor="middle" x="45.5" y="-13" font-family="Helvetica,sans-Serif" font-size="10.00">itkMakeFilled.h</text>
</a>
</g>
</g>
<!-- Node1&#45;&gt;Node2 -->
<g id="edge1" class="edge">
<title>Node1&#45;&gt;Node2</title>
<path fill="none" stroke="midnightblue" d="M435.79,-354.85C333.82,-350.37 28.5,-329.96 28.5,-246 28.5,-246 28.5,-246 28.5,-132 28.5,-97.5 36.02,-57.81 41.05,-35.09"/>
<polygon fill="midnightblue" stroke="midnightblue" points="44.51,-35.66 43.35,-25.13 37.69,-34.09 44.51,-35.66"/>
</g>
<!-- Node3 -->
<g id="node3" class="node">
<title>Node3</title>
<g id="a_node3"><a xlink:href="itkOffset_8h.html" target="_top" xlink:title=" ">
<polygon fill="white" stroke="black" points="188.5,-291.5 188.5,-310.5 256.5,-310.5 256.5,-291.5 188.5,-291.5"/>
<text text-anchor="middle" x="222.5" y="-298.5" font-family="Helvetica,sans-Serif" font-size="10.00">itkOffset.h</text>
</a>
</g>
</g>
<!-- Node1&#45;&gt;Node3 -->
<g id="edge2" class="edge">
<title>Node1&#45;&gt;Node3</title>
<path fill="none" stroke="midnightblue" d="M435.83,-348.83C392.39,-339.29 315.46,-322.41 266.82,-311.73"/>
<polygon fill="midnightblue" stroke="midnightblue" points="267.41,-308.27 256.89,-309.55 265.9,-315.11 267.41,-308.27"/>
</g>
<!-- Node10 -->
<g id="node10" class="node">
<title>Node10</title>
<g id="a_node10"><a xlink:title=" ">
<polygon fill="white" stroke="#bfbfbf" points="344,-67.5 344,-86.5 397,-86.5 397,-67.5 344,-67.5"/>
<text text-anchor="middle" x="370.5" y="-74.5" font-family="Helvetica,sans-Serif" font-size="10.00">cstddef</text>
</a>
</g>
</g>
<!-- Node1&#45;&gt;Node10 -->
<g id="edge42" class="edge">
<title>Node1&#45;&gt;Node10</title>
<path fill="none" stroke="midnightblue" d="M482.01,-347.39C520.4,-321.85 624.74,-244.19 583.5,-179 544.59,-117.49 456.94,-92.7 407.05,-83.29"/>
<polygon fill="midnightblue" stroke="midnightblue" points="407.47,-79.81 397.01,-81.51 406.25,-86.7 407.47,-79.81"/>
</g>
<!-- Node11 -->
<g id="node11" class="node">
<title>Node11</title>
<g id="a_node11"><a xlink:title=" ">
<polygon fill="white" stroke="#bfbfbf" points="516,-67.5 516,-86.5 585,-86.5 585,-67.5 516,-67.5"/>
<text text-anchor="middle" x="550.5" y="-74.5" font-family="Helvetica,sans-Serif" font-size="10.00">type_traits</text>
</a>
</g>
</g>
<!-- Node1&#45;&gt;Node11 -->
<g id="edge43" class="edge">
<title>Node1&#45;&gt;Node11</title>
<path fill="none" stroke="midnightblue" d="M501.02,-351.71C581.51,-340.19 783.5,-305.37 783.5,-246 783.5,-246 783.5,-246 783.5,-188 783.5,-157.9 786.59,-143.45 764.5,-123 764.3,-122.82 658.05,-100.53 595.36,-87.4"/>
<polygon fill="midnightblue" stroke="midnightblue" points="595.82,-83.92 585.32,-85.29 594.39,-90.77 595.82,-83.92"/>
</g>
<!-- Node4 -->
<g id="node4" class="node">
<title>Node4</title>
<g id="a_node4"><a xlink:href="itkSize_8h.html" target="_top" xlink:title=" ">
<polygon fill="white" stroke="black" points="163,-123.5 163,-142.5 222,-142.5 222,-123.5 163,-123.5"/>
<text text-anchor="middle" x="192.5" y="-130.5" font-family="Helvetica,sans-Serif" font-size="10.00">itkSize.h</text>
</a>
</g>
</g>
<!-- Node3&#45;&gt;Node4 -->
<g id="edge3" class="edge">
<title>Node3&#45;&gt;Node4</title>
<path fill="none" stroke="midnightblue" d="M188.22,-298.07C158.74,-294.37 117.86,-283.97 97.5,-255 78.08,-227.36 79.44,-207.54 97.5,-179 109.74,-159.65 132.81,-148.46 153.14,-142.08"/>
<polygon fill="midnightblue" stroke="midnightblue" points="154.19,-145.42 162.85,-139.31 152.27,-138.69 154.19,-145.42"/>
</g>
<!-- Node3&#45;&gt;Node10 -->
<g id="edge41" class="edge">
<title>Node3&#45;&gt;Node10</title>
<path fill="none" stroke="midnightblue" d="M206.86,-291.36C173.37,-271.74 100.15,-222.18 130.5,-179 157.66,-140.35 186.81,-160.96 230.5,-143 270.85,-126.41 316.5,-104.63 344.39,-90.97"/>
<polygon fill="midnightblue" stroke="midnightblue" points="346.05,-94.06 353.48,-86.5 342.96,-87.78 346.05,-94.06"/>
</g>
<!-- Node13 -->
<g id="node13" class="node">
<title>Node13</title>
<g id="a_node13"><a xlink:href="itkMath_8h.html" target="_top" xlink:title=" ">
<polygon fill="white" stroke="black" points="302,-235.5 302,-254.5 365,-254.5 365,-235.5 302,-235.5"/>
<text text-anchor="middle" x="333.5" y="-242.5" font-family="Helvetica,sans-Serif" font-size="10.00">itkMath.h</text>
</a>
</g>
</g>
<!-- Node3&#45;&gt;Node13 -->
<g id="edge14" class="edge">
<title>Node3&#45;&gt;Node13</title>
<path fill="none" stroke="midnightblue" d="M240.33,-291.32C258.22,-282.62 285.98,-269.12 306.55,-259.11"/>
<polygon fill="midnightblue" stroke="midnightblue" points="308.25,-262.18 315.71,-254.65 305.19,-255.88 308.25,-262.18"/>
</g>
<!-- Node4&#45;&gt;Node2 -->
<g id="edge9" class="edge">
<title>Node4&#45;&gt;Node2</title>
<path fill="none" stroke="midnightblue" d="M162.87,-125.17C139.64,-118.59 107.65,-106.68 85.5,-87 69.43,-72.72 58.3,-50.38 51.93,-34.69"/>
<polygon fill="midnightblue" stroke="midnightblue" points="55.1,-33.17 48.28,-25.06 48.55,-35.65 55.1,-33.17"/>
</g>
<!-- Node5 -->
<g id="node5" class="node">
<title>Node5</title>
<g id="a_node5"><a xlink:href="itkIntTypes_8h.html" target="_top" xlink:title=" ">
<polygon fill="white" stroke="black" points="95,-67.5 95,-86.5 174,-86.5 174,-67.5 95,-67.5"/>
<text text-anchor="middle" x="134.5" y="-74.5" font-family="Helvetica,sans-Serif" font-size="10.00">itkIntTypes.h</text>
</a>
</g>
</g>
<!-- Node4&#45;&gt;Node5 -->
<g id="edge4" class="edge">
<title>Node4&#45;&gt;Node5</title>
<path fill="none" stroke="midnightblue" d="M183.18,-123.32C174.61,-115.34 161.69,-103.31 151.31,-93.65"/>
<polygon fill="midnightblue" stroke="midnightblue" points="153.69,-91.09 143.99,-86.83 148.92,-96.21 153.69,-91.09"/>
</g>
<!-- Node6 -->
<g id="node6" class="node">
<title>Node6</title>
<g id="a_node6"><a xlink:href="itkMacro_8h.html" target="_top" xlink:title=" ">
<polygon fill="white" stroke="black" points="391.5,-6 391.5,-25 459.5,-25 459.5,-6 391.5,-6"/>
<text text-anchor="middle" x="425.5" y="-13" font-family="Helvetica,sans-Serif" font-size="10.00">itkMacro.h</text>
</a>
</g>
</g>
<!-- Node4&#45;&gt;Node6 -->
<g id="edge8" class="edge">
<title>Node4&#45;&gt;Node6</title>
<path fill="none" stroke="midnightblue" d="M205.56,-123.33C225.66,-110.19 265.61,-84.88 301.5,-67 331.25,-52.18 366.46,-38.15 391.75,-28.66"/>
<polygon fill="midnightblue" stroke="midnightblue" points="393.1,-31.9 401.25,-25.13 390.66,-25.33 393.1,-31.9"/>
</g>
<!-- Node9 -->
<g id="node9" class="node">
<title>Node9</title>
<g id="a_node9"><a xlink:title=" ">
<polygon fill="white" stroke="#bfbfbf" points="489.5,-6 489.5,-25 553.5,-25 553.5,-6 489.5,-6"/>
<text text-anchor="middle" x="521.5" y="-13" font-family="Helvetica,sans-Serif" font-size="10.00">algorithm</text>
</a>
</g>
</g>
<!-- Node4&#45;&gt;Node9 -->
<g id="edge10" class="edge">
<title>Node4&#45;&gt;Node9</title>
<path fill="none" stroke="midnightblue" d="M214.07,-123.42C235.48,-114.76 269.11,-100.72 297.5,-87 314.33,-78.87 317.13,-73.92 334.5,-67 391.79,-44.18 408.98,-47.14 468.5,-31 472.38,-29.95 476.41,-28.85 480.45,-27.75"/>
<polygon fill="midnightblue" stroke="midnightblue" points="481.67,-31.04 490.4,-25.03 479.83,-24.29 481.67,-31.04"/>
</g>
<!-- Node4&#45;&gt;Node10 -->
<g id="edge11" class="edge">
<title>Node4&#45;&gt;Node10</title>
<path fill="none" stroke="midnightblue" d="M220.7,-123.44C251.35,-114.15 300.43,-99.26 334,-89.07"/>
<polygon fill="midnightblue" stroke="midnightblue" points="335.33,-92.33 343.88,-86.08 333.3,-85.63 335.33,-92.33"/>
</g>
<!-- Node4&#45;&gt;Node11 -->
<g id="edge12" class="edge">
<title>Node4&#45;&gt;Node11</title>
<path fill="none" stroke="midnightblue" d="M222.03,-128.36C276.15,-121.57 395.09,-106.05 505.94,-87"/>
<polygon fill="midnightblue" stroke="midnightblue" points="506.69,-90.42 515.95,-85.27 505.5,-83.53 506.69,-90.42"/>
</g>
<!-- Node12 -->
<g id="node12" class="node">
<title>Node12</title>
<g id="a_node12"><a xlink:title=" ">
<polygon fill="white" stroke="#bfbfbf" points="191.5,-67.5 191.5,-86.5 249.5,-86.5 249.5,-67.5 191.5,-67.5"/>
<text text-anchor="middle" x="220.5" y="-74.5" font-family="Helvetica,sans-Serif" font-size="10.00">memory</text>
</a>
</g>
</g>
<!-- Node4&#45;&gt;Node12 -->
<g id="edge13" class="edge">
<title>Node4&#45;&gt;Node12</title>
<path fill="none" stroke="midnightblue" d="M197.12,-123.08C200.96,-115.69 206.52,-104.95 211.26,-95.81"/>
<polygon fill="midnightblue" stroke="midnightblue" points="214.47,-97.24 215.96,-86.75 208.25,-94.02 214.47,-97.24"/>
</g>
<!-- Node5&#45;&gt;Node6 -->
<g id="edge5" class="edge">
<title>Node5&#45;&gt;Node6</title>
<path fill="none" stroke="midnightblue" d="M174.05,-67.91C228.18,-56.85 325.04,-37.04 381.43,-25.51"/>
<polygon fill="midnightblue" stroke="midnightblue" points="382.38,-28.89 391.47,-23.46 380.97,-22.03 382.38,-28.89"/>
</g>
<!-- Node7 -->
<g id="node7" class="node">
<title>Node7</title>
<g id="a_node7"><a xlink:title=" ">
<polygon fill="white" stroke="#bfbfbf" points="109.5,-6 109.5,-25 159.5,-25 159.5,-6 109.5,-6"/>
<text text-anchor="middle" x="134.5" y="-13" font-family="Helvetica,sans-Serif" font-size="10.00">cstdint</text>
</a>
</g>
</g>
<!-- Node5&#45;&gt;Node7 -->
<g id="edge6" class="edge">
<title>Node5&#45;&gt;Node7</title>
<path fill="none" stroke="midnightblue" d="M134.5,-67.48C134.5,-59.08 134.5,-45.98 134.5,-35.16"/>
<polygon fill="midnightblue" stroke="midnightblue" points="138,-35.01 134.5,-25.01 131,-35.01 138,-35.01"/>
</g>
<!-- Node8 -->
<g id="node8" class="node">
<title>Node8</title>
<g id="a_node8"><a xlink:title=" ">
<polygon fill="white" stroke="#bfbfbf" points="177.5,-6 177.5,-25 227.5,-25 227.5,-6 177.5,-6"/>
<text text-anchor="middle" x="202.5" y="-13" font-family="Helvetica,sans-Serif" font-size="10.00">climits</text>
</a>
</g>
</g>
<!-- Node5&#45;&gt;Node8 -->
<g id="edge7" class="edge">
<title>Node5&#45;&gt;Node8</title>
<path fill="none" stroke="midnightblue" d="M144.24,-67.48C154.85,-58.2 172.02,-43.17 184.98,-31.83"/>
<polygon fill="midnightblue" stroke="midnightblue" points="187.55,-34.23 192.78,-25.01 182.94,-28.96 187.55,-34.23"/>
</g>
<!-- Node14 -->
<g id="node14" class="node">
<title>Node14</title>
<g id="a_node14"><a xlink:title=" ">
<polygon fill="white" stroke="#bfbfbf" points="239.5,-179.5 239.5,-198.5 291.5,-198.5 291.5,-179.5 239.5,-179.5"/>
<text text-anchor="middle" x="265.5" y="-186.5" font-family="Helvetica,sans-Serif" font-size="10.00">cassert</text>
</a>
</g>
</g>
<!-- Node13&#45;&gt;Node14 -->
<g id="edge15" class="edge">
<title>Node13&#45;&gt;Node14</title>
<path fill="none" stroke="midnightblue" d="M322.57,-235.32C312.33,-227.18 296.78,-214.84 284.5,-205.09"/>
<polygon fill="midnightblue" stroke="midnightblue" points="286.63,-202.31 276.62,-198.83 282.28,-207.79 286.63,-202.31"/>
</g>
<!-- Node15 -->
<g id="node15" class="node">
<title>Node15</title>
<g id="a_node15"><a xlink:title=" ">
<polygon fill="white" stroke="#bfbfbf" points="310,-179.5 310,-198.5 357,-198.5 357,-179.5 310,-179.5"/>
<text text-anchor="middle" x="333.5" y="-186.5" font-family="Helvetica,sans-Serif" font-size="10.00">cmath</text>
</a>
</g>
</g>
<!-- Node13&#45;&gt;Node15 -->
<g id="edge16" class="edge">
<title>Node13&#45;&gt;Node15</title>
<path fill="none" stroke="midnightblue" d="M333.5,-235.08C333.5,-228.01 333.5,-217.86 333.5,-208.99"/>
<polygon fill="midnightblue" stroke="midnightblue" points="337,-208.75 333.5,-198.75 330,-208.75 337,-208.75"/>
</g>
<!-- Node16 -->
<g id="node16" class="node">
<title>Node16</title>
<g id="a_node16"><a xlink:href="itkMathDetail_8h.html" target="_top" xlink:title=" ">
<polygon fill="white" stroke="black" points="375.5,-179.5 375.5,-198.5 467.5,-198.5 467.5,-179.5 375.5,-179.5"/>
<text text-anchor="middle" x="421.5" y="-186.5" font-family="Helvetica,sans-Serif" font-size="10.00">itkMathDetail.h</text>
</a>
</g>
</g>
<!-- Node13&#45;&gt;Node16 -->
<g id="edge17" class="edge">
<title>Node13&#45;&gt;Node16</title>
<path fill="none" stroke="midnightblue" d="M347.64,-235.32C361.37,-226.9 382.44,-213.97 398.56,-204.07"/>
<polygon fill="midnightblue" stroke="midnightblue" points="400.7,-206.87 407.4,-198.65 397.04,-200.9 400.7,-206.87"/>
</g>
<!-- Node25 -->
<g id="node25" class="node">
<title>Node25</title>
<g id="a_node25"><a xlink:href="itkConceptChecking_8h.html" target="_top" xlink:title=" ">
<polygon fill="white" stroke="black" points="632,-179.5 632,-198.5 755,-198.5 755,-179.5 632,-179.5"/>
<text text-anchor="middle" x="693.5" y="-186.5" font-family="Helvetica,sans-Serif" font-size="10.00">itkConceptChecking.h</text>
</a>
</g>
</g>
<!-- Node13&#45;&gt;Node25 -->
<g id="edge34" class="edge">
<title>Node13&#45;&gt;Node25</title>
<path fill="none" stroke="midnightblue" d="M365.13,-239.26C423.34,-230.52 548.59,-211.74 626.47,-200.05"/>
<polygon fill="midnightblue" stroke="midnightblue" points="627.3,-203.47 636.67,-198.53 626.26,-196.55 627.3,-203.47"/>
</g>
<!-- Node28 -->
<g id="node28" class="node">
<title>Node28</title>
<g id="a_node28"><a xlink:title=" ">
<polygon fill="white" stroke="#bfbfbf" points="486,-179.5 486,-198.5 575,-198.5 575,-179.5 486,-179.5"/>
<text text-anchor="middle" x="530.5" y="-186.5" font-family="Helvetica,sans-Serif" font-size="10.00">vnl/vnl_math.h</text>
</a>
</g>
</g>
<!-- Node13&#45;&gt;Node28 -->
<g id="edge39" class="edge">
<title>Node13&#45;&gt;Node28</title>
<path fill="none" stroke="midnightblue" d="M364.72,-235.44C398.43,-226.2 452.3,-211.44 489.43,-201.26"/>
<polygon fill="midnightblue" stroke="midnightblue" points="490.71,-204.54 499.43,-198.52 488.86,-197.78 490.71,-204.54"/>
</g>
<!-- Node29 -->
<g id="node29" class="node">
<title>Node29</title>
<g id="a_node29"><a xlink:title=" ">
<polygon fill="white" stroke="#bfbfbf" points="139.5,-179.5 139.5,-198.5 221.5,-198.5 221.5,-179.5 139.5,-179.5"/>
<text text-anchor="middle" x="180.5" y="-186.5" font-family="Helvetica,sans-Serif" font-size="10.00">vxl_version.h</text>
</a>
</g>
</g>
<!-- Node13&#45;&gt;Node29 -->
<g id="edge40" class="edge">
<title>Node13&#45;&gt;Node29</title>
<path fill="none" stroke="midnightblue" d="M309.26,-235.44C283.63,-226.4 243.01,-212.06 214.26,-201.92"/>
<polygon fill="midnightblue" stroke="midnightblue" points="215.22,-198.54 204.63,-198.52 212.89,-205.15 215.22,-198.54"/>
</g>
<!-- Node16&#45;&gt;Node5 -->
<g id="edge18" class="edge">
<title>Node16&#45;&gt;Node5</title>
<path fill="none" stroke="midnightblue" d="M375.26,-180.55C299.13,-168.25 155.57,-144.84 153.5,-143 140.47,-131.43 136.16,-111.47 134.84,-96.71"/>
<polygon fill="midnightblue" stroke="midnightblue" points="138.33,-96.47 134.32,-86.66 131.34,-96.83 138.33,-96.47"/>
</g>
<!-- Node17 -->
<g id="node17" class="node">
<title>Node17</title>
<g id="a_node17"><a xlink:href="itkNumericTraits_8h.html" target="_top" xlink:title=" ">
<polygon fill="white" stroke="black" points="571.5,-123.5 571.5,-142.5 677.5,-142.5 677.5,-123.5 571.5,-123.5"/>
<text text-anchor="middle" x="624.5" y="-130.5" font-family="Helvetica,sans-Serif" font-size="10.00">itkNumericTraits.h</text>
</a>
</g>
</g>
<!-- Node16&#45;&gt;Node17 -->
<g id="edge19" class="edge">
<title>Node16&#45;&gt;Node17</title>
<path fill="none" stroke="midnightblue" d="M453.67,-179.44C488.56,-170.16 544.39,-155.31 582.67,-145.13"/>
<polygon fill="midnightblue" stroke="midnightblue" points="583.72,-148.47 592.48,-142.52 581.92,-141.7 583.72,-148.47"/>
</g>
<!-- Node24 -->
<g id="node24" class="node">
<title>Node24</title>
<g id="a_node24"><a xlink:title=" ">
<polygon fill="white" stroke="#bfbfbf" points="399.5,-123.5 399.5,-142.5 443.5,-142.5 443.5,-123.5 399.5,-123.5"/>
<text text-anchor="middle" x="421.5" y="-130.5" font-family="Helvetica,sans-Serif" font-size="10.00">cfenv</text>
</a>
</g>
</g>
<!-- Node16&#45;&gt;Node24 -->
<g id="edge33" class="edge">
<title>Node16&#45;&gt;Node24</title>
<path fill="none" stroke="midnightblue" d="M421.5,-179.08C421.5,-172.01 421.5,-161.86 421.5,-152.99"/>
<polygon fill="midnightblue" stroke="midnightblue" points="425,-152.75 421.5,-142.75 418,-152.75 425,-152.75"/>
</g>
<!-- Node17&#45;&gt;Node6 -->
<g id="edge20" class="edge">
<title>Node17&#45;&gt;Node6</title>
<path fill="none" stroke="midnightblue" d="M571.32,-124.75C524.94,-117.38 462.37,-104.55 444.5,-87 430.82,-73.56 426.67,-51.39 425.57,-35.49"/>
<polygon fill="midnightblue" stroke="midnightblue" points="429.06,-35.12 425.21,-25.25 422.06,-35.36 429.06,-35.12"/>
</g>
<!-- Node17&#45;&gt;Node11 -->
<g id="edge23" class="edge">
<title>Node17&#45;&gt;Node11</title>
<path fill="none" stroke="midnightblue" d="M612.61,-123.32C601.35,-115.11 584.21,-102.6 570.79,-92.81"/>
<polygon fill="midnightblue" stroke="midnightblue" points="572.75,-89.9 562.61,-86.83 568.62,-95.56 572.75,-89.9"/>
</g>
<!-- Node18 -->
<g id="node18" class="node">
<title>Node18</title>
<g id="a_node18"><a xlink:title=" ">
<polygon fill="white" stroke="#bfbfbf" points="453.5,-67.5 453.5,-86.5 497.5,-86.5 497.5,-67.5 453.5,-67.5"/>
<text text-anchor="middle" x="475.5" y="-74.5" font-family="Helvetica,sans-Serif" font-size="10.00">limits</text>
</a>
</g>
</g>
<!-- Node17&#45;&gt;Node18 -->
<g id="edge21" class="edge">
<title>Node17&#45;&gt;Node18</title>
<path fill="none" stroke="midnightblue" d="M600.89,-123.44C575.6,-114.28 535.33,-99.68 507.28,-89.52"/>
<polygon fill="midnightblue" stroke="midnightblue" points="508.14,-86.11 497.54,-85.99 505.75,-92.69 508.14,-86.11"/>
</g>
<!-- Node19 -->
<g id="node19" class="node">
<title>Node19</title>
<g id="a_node19"><a xlink:title=" ">
<polygon fill="white" stroke="#bfbfbf" points="603,-67.5 603,-86.5 662,-86.5 662,-67.5 603,-67.5"/>
<text text-anchor="middle" x="632.5" y="-74.5" font-family="Helvetica,sans-Serif" font-size="10.00">complex</text>
</a>
</g>
</g>
<!-- Node17&#45;&gt;Node19 -->
<g id="edge22" class="edge">
<title>Node17&#45;&gt;Node19</title>
<path fill="none" stroke="midnightblue" d="M625.82,-123.08C626.88,-115.93 628.41,-105.64 629.73,-96.69"/>
<polygon fill="midnightblue" stroke="midnightblue" points="633.2,-97.16 631.2,-86.75 626.28,-96.13 633.2,-97.16"/>
</g>
<!-- Node20 -->
<g id="node20" class="node">
<title>Node20</title>
<g id="a_node20"><a xlink:href="itkFixedArray_8h.html" target="_top" xlink:title=" ">
<polygon fill="white" stroke="black" points="719,-67.5 719,-86.5 808,-86.5 808,-67.5 719,-67.5"/>
<text text-anchor="middle" x="763.5" y="-74.5" font-family="Helvetica,sans-Serif" font-size="10.00">itkFixedArray.h</text>
</a>
</g>
</g>
<!-- Node17&#45;&gt;Node20 -->
<g id="edge24" class="edge">
<title>Node17&#45;&gt;Node20</title>
<path fill="none" stroke="midnightblue" d="M646.52,-123.44C669.6,-114.48 706.06,-100.31 732.14,-90.18"/>
<polygon fill="midnightblue" stroke="midnightblue" points="733.52,-93.4 741.58,-86.52 730.99,-86.88 733.52,-93.4"/>
</g>
<!-- Node20&#45;&gt;Node2 -->
<g id="edge26" class="edge">
<title>Node20&#45;&gt;Node2</title>
<path fill="none" stroke="midnightblue" d="M718.59,-71.35C703.34,-69.85 686.18,-68.25 670.5,-67 417.47,-46.77 351.08,-71.55 100.5,-31 94.96,-30.1 89.16,-28.89 83.5,-27.54"/>
<polygon fill="midnightblue" stroke="midnightblue" points="84.09,-24.08 73.54,-25.02 82.37,-30.87 84.09,-24.08"/>
</g>
<!-- Node20&#45;&gt;Node6 -->
<g id="edge25" class="edge">
<title>Node20&#45;&gt;Node6</title>
<path fill="none" stroke="midnightblue" d="M718.75,-69.14C644.9,-57.77 503.35,-35.82 480.5,-31 475.68,-29.98 470.65,-28.81 465.68,-27.59"/>
<polygon fill="midnightblue" stroke="midnightblue" points="466.18,-24.1 455.63,-25.02 464.45,-30.89 466.18,-24.1"/>
</g>
<!-- Node20&#45;&gt;Node9 -->
<g id="edge27" class="edge">
<title>Node20&#45;&gt;Node9</title>
<path fill="none" stroke="midnightblue" d="M725.54,-67.47C687.11,-58.73 626.02,-44.54 573.5,-31 569.47,-29.96 565.27,-28.85 561.08,-27.71"/>
<polygon fill="midnightblue" stroke="midnightblue" points="561.99,-24.33 551.42,-25.06 560.14,-31.08 561.99,-24.33"/>
</g>
<!-- Node21 -->
<g id="node21" class="node">
<title>Node21</title>
<g id="a_node21"><a xlink:title=" ">
<polygon fill="white" stroke="#bfbfbf" points="702.5,-6 702.5,-25 744.5,-25 744.5,-6 702.5,-6"/>
<text text-anchor="middle" x="723.5" y="-13" font-family="Helvetica,sans-Serif" font-size="10.00">array</text>
</a>
</g>
</g>
<!-- Node20&#45;&gt;Node21 -->
<g id="edge28" class="edge">
<title>Node20&#45;&gt;Node21</title>
<path fill="none" stroke="midnightblue" d="M757.77,-67.48C751.83,-58.64 742.38,-44.59 734.91,-33.48"/>
<polygon fill="midnightblue" stroke="midnightblue" points="737.7,-31.36 729.22,-25.01 731.89,-35.26 737.7,-31.36"/>
</g>
<!-- Node22 -->
<g id="node22" class="node">
<title>Node22</title>
<g id="a_node22"><a xlink:title=" ">
<polygon fill="white" stroke="#bfbfbf" points="583,-6 583,-25 684,-25 684,-6 583,-6"/>
<text text-anchor="middle" x="633.5" y="-13" font-family="Helvetica,sans-Serif" font-size="10.00">itkFixedArray.hxx</text>
</a>
</g>
</g>
<!-- Node20&#45;&gt;Node22 -->
<g id="edge29" class="edge">
<title>Node20&#45;&gt;Node22</title>
<path fill="none" stroke="midnightblue" d="M744.87,-67.48C723.06,-57.49 686.7,-40.85 661.48,-29.31"/>
<polygon fill="midnightblue" stroke="midnightblue" points="662.64,-25.99 652.09,-25.01 659.73,-32.35 662.64,-25.99"/>
</g>
<!-- Node23 -->
<g id="node23" class="node">
<title>Node23</title>
<g id="a_node23"><a xlink:href="itkNumericTraitsFixedArrayPixel_8h.html" target="_top" xlink:title=" ">
<polygon fill="white" stroke="black" points="762,-0.5 762,-30.5 911,-30.5 911,-0.5 762,-0.5"/>
<text text-anchor="start" x="770" y="-18.5" font-family="Helvetica,sans-Serif" font-size="10.00">itkNumericTraitsFixedArray</text>
<text text-anchor="middle" x="836.5" y="-7.5" font-family="Helvetica,sans-Serif" font-size="10.00">Pixel.h</text>
</a>
</g>
</g>
<!-- Node20&#45;&gt;Node23 -->
<g id="edge30" class="edge">
<title>Node20&#45;&gt;Node23</title>
<path fill="none" stroke="midnightblue" d="M769.06,-67.48C777.11,-59.49 791.61,-47.25 805.19,-36.77"/>
<polygon fill="midnightblue" stroke="midnightblue" points="807.6,-39.34 813.47,-30.52 803.38,-33.76 807.6,-39.34"/>
</g>
<!-- Node23&#45;&gt;Node17 -->
<g id="edge31" class="edge">
<title>Node23&#45;&gt;Node17</title>
<path fill="none" stroke="midnightblue" d="M836.74,-30.52C836.21,-46.46 832.81,-72.2 817.5,-87 807.68,-96.49 735.81,-111.52 682.63,-121.56"/>
<polygon fill="midnightblue" stroke="midnightblue" points="681.78,-118.16 672.6,-123.44 683.07,-125.04 681.78,-118.16"/>
</g>
<!-- Node23&#45;&gt;Node20 -->
<g id="edge32" class="edge">
<title>Node23&#45;&gt;Node20</title>
<path fill="none" stroke="midnightblue" d="M825.13,-30.52C814.9,-39.84 799.94,-52.05 787.22,-61.47"/>
<polygon fill="midnightblue" stroke="midnightblue" points="784.94,-58.8 778.86,-67.48 789.02,-64.48 784.94,-58.8"/>
</g>
<!-- Node25&#45;&gt;Node17 -->
<g id="edge37" class="edge">
<title>Node25&#45;&gt;Node17</title>
<path fill="none" stroke="midnightblue" d="M682.41,-179.32C672.01,-171.18 656.24,-158.84 643.78,-149.09"/>
<polygon fill="midnightblue" stroke="midnightblue" points="645.82,-146.24 635.79,-142.83 641.51,-151.75 645.82,-146.24"/>
</g>
<!-- Node26 -->
<g id="node26" class="node">
<title>Node26</title>
<g id="a_node26"><a xlink:href="itkPixelTraits_8h.html" target="_top" xlink:title=" ">
<polygon fill="white" stroke="black" points="811.5,-123.5 811.5,-142.5 899.5,-142.5 899.5,-123.5 811.5,-123.5"/>
<text text-anchor="middle" x="855.5" y="-130.5" font-family="Helvetica,sans-Serif" font-size="10.00">itkPixelTraits.h</text>
</a>
</g>
</g>
<!-- Node25&#45;&gt;Node26 -->
<g id="edge35" class="edge">
<title>Node25&#45;&gt;Node26</title>
<path fill="none" stroke="midnightblue" d="M719.17,-179.44C746.42,-170.36 789.68,-155.94 820.15,-145.78"/>
<polygon fill="midnightblue" stroke="midnightblue" points="821.57,-149 829.95,-142.52 819.36,-142.36 821.57,-149"/>
</g>
<!-- Node27 -->
<g id="node27" class="node">
<title>Node27</title>
<g id="a_node27"><a xlink:title=" ">
<polygon fill="white" stroke="#bfbfbf" points="695.5,-123.5 695.5,-142.5 755.5,-142.5 755.5,-123.5 695.5,-123.5"/>
<text text-anchor="middle" x="725.5" y="-130.5" font-family="Helvetica,sans-Serif" font-size="10.00">iostream</text>
</a>
</g>
</g>
<!-- Node25&#45;&gt;Node27 -->
<g id="edge38" class="edge">
<title>Node25&#45;&gt;Node27</title>
<path fill="none" stroke="midnightblue" d="M698.78,-179.08C703.21,-171.61 709.66,-160.72 715.12,-151.52"/>
<polygon fill="midnightblue" stroke="midnightblue" points="718.23,-153.14 720.31,-142.75 712.21,-149.57 718.23,-153.14"/>
</g>
<!-- Node26&#45;&gt;Node6 -->
<g id="edge36" class="edge">
<title>Node26&#45;&gt;Node6</title>
<path fill="none" stroke="midnightblue" d="M822.72,-123.47C792.98,-115.35 748.16,-102.14 710.5,-87 692.06,-79.59 689.33,-73.36 670.5,-67 589.06,-39.52 564.33,-49.97 480.5,-31 475.81,-29.94 470.92,-28.76 466.06,-27.54"/>
<polygon fill="midnightblue" stroke="midnightblue" points="466.8,-24.11 456.24,-25.01 465.05,-30.89 466.8,-24.11"/>
</g>
</g>
</svg>
