<?xml version="1.0" encoding="UTF-8" standalone="no"?>
<!DOCTYPE svg PUBLIC "-//W3C//DTD SVG 1.1//EN"
 "http://www.w3.org/Graphics/SVG/1.1/DTD/svg11.dtd">
<!-- Generated by graphviz version 2.43.0 (0)
 -->
<!-- Title: itkLevelSetEquationOverlapPenaltyTerm.h Pages: 1 -->
<svg width="1309pt" height="800pt"
 viewBox="0.00 0.00 1308.50 800.00" xmlns="http://www.w3.org/2000/svg" xmlns:xlink="http://www.w3.org/1999/xlink">
<g id="graph0" class="graph" transform="scale(1 1) rotate(0) translate(4 796)">
<title>itkLevelSetEquationOverlapPenaltyTerm.h</title>
<polygon fill="white" stroke="transparent" points="-4,4 -4,-796 1304.5,-796 1304.5,4 -4,4"/>
<!-- Node1 -->
<g id="node1" class="node">
<title>Node1</title>
<g id="a_node1"><a xlink:title=" ">
<polygon fill="#bfbfbf" stroke="black" points="834,-761.5 834,-791.5 986,-791.5 986,-761.5 834,-761.5"/>
<text text-anchor="start" x="842" y="-779.5" font-family="Helvetica,sans-Serif" font-size="10.00">itkLevelSetEquationOverlap</text>
<text text-anchor="middle" x="910" y="-768.5" font-family="Helvetica,sans-Serif" font-size="10.00">PenaltyTerm.h</text>
</a>
</g>
</g>
<!-- Node2 -->
<g id="node2" class="node">
<title>Node2</title>
<g id="a_node2"><a xlink:href="itkLevelSetEquationTermBase_8h.html" target="_top" xlink:title=" ">
<polygon fill="white" stroke="black" points="659.5,-700 659.5,-719 830.5,-719 830.5,-700 659.5,-700"/>
<text text-anchor="middle" x="745" y="-707" font-family="Helvetica,sans-Serif" font-size="10.00">itkLevelSetEquationTermBase.h</text>
</a>
</g>
</g>
<!-- Node1&#45;&gt;Node2 -->
<g id="edge1" class="edge">
<title>Node1&#45;&gt;Node2</title>
<path fill="none" stroke="midnightblue" d="M874.2,-761.4C844.99,-749.89 804.14,-733.8 776.24,-722.81"/>
<polygon fill="midnightblue" stroke="midnightblue" points="777.18,-719.42 766.59,-719.01 774.62,-725.93 777.18,-719.42"/>
</g>
<!-- Node48 -->
<g id="node48" class="node">
<title>Node48</title>
<g id="a_node48"><a xlink:href="itkCompensatedSummation_8h.html" target="_top" xlink:title=" ">
<polygon fill="white" stroke="black" points="916,-235.5 916,-254.5 1078,-254.5 1078,-235.5 916,-235.5"/>
<text text-anchor="middle" x="997" y="-242.5" font-family="Helvetica,sans-Serif" font-size="10.00">itkCompensatedSummation.h</text>
</a>
</g>
</g>
<!-- Node1&#45;&gt;Node48 -->
<g id="edge73" class="edge">
<title>Node1&#45;&gt;Node48</title>
<path fill="none" stroke="midnightblue" d="M910,-761.24C910,-737.03 910,-686.35 910,-643.5 910,-643.5 910,-643.5 910,-356 910,-314.4 948.75,-279.33 974.53,-260.6"/>
<polygon fill="midnightblue" stroke="midnightblue" points="976.82,-263.27 983.02,-254.68 972.82,-257.53 976.82,-263.27"/>
</g>
<!-- Node50 -->
<g id="node50" class="node">
<title>Node50</title>
<g id="a_node50"><a xlink:title=" ">
<polygon fill="white" stroke="#bfbfbf" points="938,-694.5 938,-724.5 1090,-724.5 1090,-694.5 938,-694.5"/>
<text text-anchor="start" x="946" y="-712.5" font-family="Helvetica,sans-Serif" font-size="10.00">itkLevelSetEquationOverlap</text>
<text text-anchor="middle" x="1014" y="-701.5" font-family="Helvetica,sans-Serif" font-size="10.00">PenaltyTerm.hxx</text>
</a>
</g>
</g>
<!-- Node1&#45;&gt;Node50 -->
<g id="edge77" class="edge">
<title>Node1&#45;&gt;Node50</title>
<path fill="none" stroke="midnightblue" d="M932.57,-761.4C947.29,-752.2 966.69,-740.07 982.87,-729.95"/>
<polygon fill="midnightblue" stroke="midnightblue" points="984.85,-732.84 991.48,-724.58 981.14,-726.91 984.85,-732.84"/>
</g>
<!-- Node3 -->
<g id="node3" class="node">
<title>Node3</title>
<g id="a_node3"><a xlink:href="itkObject_8h.html" target="_top" xlink:title=" ">
<polygon fill="white" stroke="black" points="516,-347.5 516,-366.5 586,-366.5 586,-347.5 516,-347.5"/>
<text text-anchor="middle" x="551" y="-354.5" font-family="Helvetica,sans-Serif" font-size="10.00">itkObject.h</text>
</a>
</g>
</g>
<!-- Node2&#45;&gt;Node3 -->
<g id="edge2" class="edge">
<title>Node2&#45;&gt;Node3</title>
<path fill="none" stroke="midnightblue" d="M767.36,-699.96C785.57,-691.87 810.56,-677.96 825,-658 845.41,-629.79 844,-616.82 844,-582 844,-582 844,-582 844,-524 844,-411.45 678.3,-374.3 596.12,-362.8"/>
<polygon fill="midnightblue" stroke="midnightblue" points="596.43,-359.31 586.05,-361.46 595.5,-366.25 596.43,-359.31"/>
</g>
<!-- Node28 -->
<g id="node28" class="node">
<title>Node28</title>
<g id="a_node28"><a xlink:href="itkHeavisideStepFunctionBase_8h.html" target="_top" xlink:title=" ">
<polygon fill="white" stroke="black" points="674.5,-627.5 674.5,-657.5 815.5,-657.5 815.5,-627.5 674.5,-627.5"/>
<text text-anchor="start" x="682.5" y="-645.5" font-family="Helvetica,sans-Serif" font-size="10.00">itkHeavisideStepFunction</text>
<text text-anchor="middle" x="745" y="-634.5" font-family="Helvetica,sans-Serif" font-size="10.00">Base.h</text>
</a>
</g>
</g>
<!-- Node2&#45;&gt;Node28 -->
<g id="edge39" class="edge">
<title>Node2&#45;&gt;Node28</title>
<path fill="none" stroke="midnightblue" d="M745,-699.73C745,-691.54 745,-678.92 745,-667.71"/>
<polygon fill="midnightblue" stroke="midnightblue" points="748.5,-667.59 745,-657.59 741.5,-667.59 748.5,-667.59"/>
</g>
<!-- Node46 -->
<g id="node46" class="node">
<title>Node46</title>
<g id="a_node46"><a xlink:title=" ">
<polygon fill="white" stroke="#bfbfbf" points="369,-633 369,-652 455,-652 455,-633 369,-633"/>
<text text-anchor="middle" x="412" y="-640" font-family="Helvetica,sans-Serif" font-size="10.00">unordered_set</text>
</a>
</g>
</g>
<!-- Node2&#45;&gt;Node46 -->
<g id="edge71" class="edge">
<title>Node2&#45;&gt;Node46</title>
<path fill="none" stroke="midnightblue" d="M689.46,-699.97C632.75,-690.92 542.32,-675.51 465,-658 460.54,-656.99 455.88,-655.85 451.27,-654.66"/>
<polygon fill="midnightblue" stroke="midnightblue" points="451.88,-651.2 441.32,-652.02 450.09,-657.97 451.88,-651.2"/>
</g>
<!-- Node47 -->
<g id="node47" class="node">
<title>Node47</title>
<g id="a_node47"><a xlink:title=" ">
<polygon fill="white" stroke="#bfbfbf" points="473.5,-633 473.5,-652 656.5,-652 656.5,-633 473.5,-633"/>
<text text-anchor="middle" x="565" y="-640" font-family="Helvetica,sans-Serif" font-size="10.00">itkLevelSetEquationTermBase.hxx</text>
</a>
</g>
</g>
<!-- Node2&#45;&gt;Node47 -->
<g id="edge72" class="edge">
<title>Node2&#45;&gt;Node47</title>
<path fill="none" stroke="midnightblue" d="M721.1,-699.87C689.54,-688.47 633.82,-668.35 598.19,-655.49"/>
<polygon fill="midnightblue" stroke="midnightblue" points="599.31,-652.17 588.71,-652.06 596.93,-658.75 599.31,-652.17"/>
</g>
<!-- Node4 -->
<g id="node4" class="node">
<title>Node4</title>
<g id="a_node4"><a xlink:href="itkLightObject_8h.html" target="_top" xlink:title=" ">
<polygon fill="white" stroke="black" points="370,-179.5 370,-198.5 464,-198.5 464,-179.5 370,-179.5"/>
<text text-anchor="middle" x="417" y="-186.5" font-family="Helvetica,sans-Serif" font-size="10.00">itkLightObject.h</text>
</a>
</g>
</g>
<!-- Node3&#45;&gt;Node4 -->
<g id="edge3" class="edge">
<title>Node3&#45;&gt;Node4</title>
<path fill="none" stroke="midnightblue" d="M515.99,-351.56C465.04,-343.01 372.06,-319.03 331,-255 315.84,-231.36 347.99,-213.1 377.21,-202.04"/>
<polygon fill="midnightblue" stroke="midnightblue" points="378.69,-205.23 386.93,-198.57 376.33,-198.64 378.69,-205.23"/>
</g>
<!-- Node16 -->
<g id="node16" class="node">
<title>Node16</title>
<g id="a_node16"><a xlink:href="itkSingletonMacro_8h.html" target="_top" xlink:title=" ">
<polygon fill="white" stroke="black" points="0,-67.5 0,-86.5 114,-86.5 114,-67.5 0,-67.5"/>
<text text-anchor="middle" x="57" y="-74.5" font-family="Helvetica,sans-Serif" font-size="10.00">itkSingletonMacro.h</text>
</a>
</g>
</g>
<!-- Node3&#45;&gt;Node16 -->
<g id="edge36" class="edge">
<title>Node3&#45;&gt;Node16</title>
<path fill="none" stroke="midnightblue" d="M515.91,-352.17C476.63,-346.89 411.83,-335.13 361,-311 236.85,-252.06 115.01,-136.42 72.68,-94.05"/>
<polygon fill="midnightblue" stroke="midnightblue" points="75.03,-91.45 65.5,-86.8 70.05,-96.37 75.03,-91.45"/>
</g>
<!-- Node19 -->
<g id="node19" class="node">
<title>Node19</title>
<g id="a_node19"><a xlink:href="itkEventObject_8h.html" target="_top" xlink:title=" ">
<polygon fill="white" stroke="black" points="637,-291.5 637,-310.5 735,-310.5 735,-291.5 637,-291.5"/>
<text text-anchor="middle" x="686" y="-298.5" font-family="Helvetica,sans-Serif" font-size="10.00">itkEventObject.h</text>
</a>
</g>
</g>
<!-- Node3&#45;&gt;Node19 -->
<g id="edge24" class="edge">
<title>Node3&#45;&gt;Node19</title>
<path fill="none" stroke="midnightblue" d="M572.39,-347.44C594.71,-338.52 629.9,-324.44 655.21,-314.32"/>
<polygon fill="midnightblue" stroke="midnightblue" points="656.72,-317.48 664.71,-310.52 654.12,-310.98 656.72,-317.48"/>
</g>
<!-- Node20 -->
<g id="node20" class="node">
<title>Node20</title>
<g id="a_node20"><a xlink:href="itkMetaDataDictionary_8h.html" target="_top" xlink:title=" ">
<polygon fill="white" stroke="black" points="483.5,-291.5 483.5,-310.5 618.5,-310.5 618.5,-291.5 483.5,-291.5"/>
<text text-anchor="middle" x="551" y="-298.5" font-family="Helvetica,sans-Serif" font-size="10.00">itkMetaDataDictionary.h</text>
</a>
</g>
</g>
<!-- Node3&#45;&gt;Node20 -->
<g id="edge26" class="edge">
<title>Node3&#45;&gt;Node20</title>
<path fill="none" stroke="midnightblue" d="M551,-347.08C551,-340.01 551,-329.86 551,-320.99"/>
<polygon fill="midnightblue" stroke="midnightblue" points="554.5,-320.75 551,-310.75 547.5,-320.75 554.5,-320.75"/>
</g>
<!-- Node26 -->
<g id="node26" class="node">
<title>Node26</title>
<g id="a_node26"><a xlink:title=" ">
<polygon fill="white" stroke="#bfbfbf" points="405,-235.5 405,-254.5 463,-254.5 463,-235.5 405,-235.5"/>
<text text-anchor="middle" x="434" y="-242.5" font-family="Helvetica,sans-Serif" font-size="10.00">memory</text>
</a>
</g>
</g>
<!-- Node3&#45;&gt;Node26 -->
<g id="edge38" class="edge">
<title>Node3&#45;&gt;Node26</title>
<path fill="none" stroke="midnightblue" d="M531.18,-347.49C514.75,-339.73 491.49,-327.03 475,-311 460.99,-297.38 449.59,-278.07 442.4,-264.04"/>
<polygon fill="midnightblue" stroke="midnightblue" points="445.47,-262.35 437.93,-254.91 439.19,-265.43 445.47,-262.35"/>
</g>
<!-- Node27 -->
<g id="node27" class="node">
<title>Node27</title>
<g id="a_node27"><a xlink:title=" ">
<polygon fill="white" stroke="#bfbfbf" points="753.5,-291.5 753.5,-310.5 818.5,-310.5 818.5,-291.5 753.5,-291.5"/>
<text text-anchor="middle" x="786" y="-298.5" font-family="Helvetica,sans-Serif" font-size="10.00">functional</text>
</a>
</g>
</g>
<!-- Node3&#45;&gt;Node27 -->
<g id="edge37" class="edge">
<title>Node3&#45;&gt;Node27</title>
<path fill="none" stroke="midnightblue" d="M586.18,-347.92C628.2,-338.26 698.45,-322.12 743.47,-311.77"/>
<polygon fill="midnightblue" stroke="midnightblue" points="744.27,-315.18 753.23,-309.53 742.7,-308.36 744.27,-315.18"/>
</g>
<!-- Node5 -->
<g id="node5" class="node">
<title>Node5</title>
<g id="a_node5"><a xlink:href="itkMacro_8h.html" target="_top" xlink:title=" ">
<polygon fill="white" stroke="black" points="639,-6 639,-25 707,-25 707,-6 639,-6"/>
<text text-anchor="middle" x="673" y="-13" font-family="Helvetica,sans-Serif" font-size="10.00">itkMacro.h</text>
</a>
</g>
</g>
<!-- Node4&#45;&gt;Node5 -->
<g id="edge4" class="edge">
<title>Node4&#45;&gt;Node5</title>
<path fill="none" stroke="midnightblue" d="M398.02,-179.4C384.11,-171.95 366.29,-159.74 358,-143 349.25,-125.33 353.19,-80.09 366,-67 401.78,-30.46 552.57,-20.35 628.68,-17.56"/>
<polygon fill="midnightblue" stroke="midnightblue" points="629.02,-21.05 638.9,-17.21 628.79,-14.05 629.02,-21.05"/>
</g>
<!-- Node6 -->
<g id="node6" class="node">
<title>Node6</title>
<g id="a_node6"><a xlink:href="itkSmartPointer_8h.html" target="_top" xlink:title=" ">
<polygon fill="white" stroke="black" points="366.5,-123.5 366.5,-142.5 467.5,-142.5 467.5,-123.5 366.5,-123.5"/>
<text text-anchor="middle" x="417" y="-130.5" font-family="Helvetica,sans-Serif" font-size="10.00">itkSmartPointer.h</text>
</a>
</g>
</g>
<!-- Node4&#45;&gt;Node6 -->
<g id="edge5" class="edge">
<title>Node4&#45;&gt;Node6</title>
<path fill="none" stroke="midnightblue" d="M417,-179.08C417,-172.01 417,-161.86 417,-152.99"/>
<polygon fill="midnightblue" stroke="midnightblue" points="420.5,-152.75 417,-142.75 413.5,-152.75 420.5,-152.75"/>
</g>
<!-- Node7 -->
<g id="node7" class="node">
<title>Node7</title>
<g id="a_node7"><a xlink:title=" ">
<polygon fill="white" stroke="#bfbfbf" points="580,-67.5 580,-86.5 640,-86.5 640,-67.5 580,-67.5"/>
<text text-anchor="middle" x="610" y="-74.5" font-family="Helvetica,sans-Serif" font-size="10.00">iostream</text>
</a>
</g>
</g>
<!-- Node4&#45;&gt;Node7 -->
<g id="edge22" class="edge">
<title>Node4&#45;&gt;Node7</title>
<path fill="none" stroke="midnightblue" d="M428.86,-179.46C447.12,-166.48 483.41,-141.39 516,-123 537.2,-111.04 562.08,-99.22 580.92,-90.7"/>
<polygon fill="midnightblue" stroke="midnightblue" points="582.47,-93.84 590.17,-86.56 579.61,-87.45 582.47,-93.84"/>
</g>
<!-- Node11 -->
<g id="node11" class="node">
<title>Node11</title>
<g id="a_node11"><a xlink:href="itkTimeStamp_8h.html" target="_top" xlink:title=" ">
<polygon fill="white" stroke="black" points="176.5,-123.5 176.5,-142.5 271.5,-142.5 271.5,-123.5 176.5,-123.5"/>
<text text-anchor="middle" x="224" y="-130.5" font-family="Helvetica,sans-Serif" font-size="10.00">itkTimeStamp.h</text>
</a>
</g>
</g>
<!-- Node4&#45;&gt;Node11 -->
<g id="edge10" class="edge">
<title>Node4&#45;&gt;Node11</title>
<path fill="none" stroke="midnightblue" d="M386.42,-179.44C353.39,-170.2 300.61,-155.44 264.23,-145.26"/>
<polygon fill="midnightblue" stroke="midnightblue" points="265.01,-141.84 254.44,-142.52 263.13,-148.58 265.01,-141.84"/>
</g>
<!-- Node15 -->
<g id="node15" class="node">
<title>Node15</title>
<g id="a_node15"><a xlink:title=" ">
<polygon fill="white" stroke="#bfbfbf" points="268,-67.5 268,-86.5 318,-86.5 318,-67.5 268,-67.5"/>
<text text-anchor="middle" x="293" y="-74.5" font-family="Helvetica,sans-Serif" font-size="10.00">atomic</text>
</a>
</g>
</g>
<!-- Node4&#45;&gt;Node15 -->
<g id="edge21" class="edge">
<title>Node4&#45;&gt;Node15</title>
<path fill="none" stroke="midnightblue" d="M387.5,-179.47C367.49,-172.43 341.58,-160.68 324,-143 311.07,-130 302.79,-110.57 298.06,-96.34"/>
<polygon fill="midnightblue" stroke="midnightblue" points="301.38,-95.22 295.13,-86.66 294.68,-97.25 301.38,-95.22"/>
</g>
<!-- Node17 -->
<g id="node17" class="node">
<title>Node17</title>
<g id="a_node17"><a xlink:href="itkIndent_8h.html" target="_top" xlink:title=" ">
<polygon fill="white" stroke="black" points="638.5,-123.5 638.5,-142.5 707.5,-142.5 707.5,-123.5 638.5,-123.5"/>
<text text-anchor="middle" x="673" y="-130.5" font-family="Helvetica,sans-Serif" font-size="10.00">itkIndent.h</text>
</a>
</g>
</g>
<!-- Node4&#45;&gt;Node17 -->
<g id="edge18" class="edge">
<title>Node4&#45;&gt;Node17</title>
<path fill="none" stroke="midnightblue" d="M457.56,-179.44C504.16,-169.61 580.36,-153.54 628.54,-143.38"/>
<polygon fill="midnightblue" stroke="midnightblue" points="629.31,-146.79 638.37,-141.3 627.87,-139.94 629.31,-146.79"/>
</g>
<!-- Node18 -->
<g id="node18" class="node">
<title>Node18</title>
<g id="a_node18"><a xlink:title=" ">
<polygon fill="white" stroke="#bfbfbf" points="524.5,-123.5 524.5,-142.5 581.5,-142.5 581.5,-123.5 524.5,-123.5"/>
<text text-anchor="middle" x="553" y="-130.5" font-family="Helvetica,sans-Serif" font-size="10.00">typeinfo</text>
</a>
</g>
</g>
<!-- Node4&#45;&gt;Node18 -->
<g id="edge23" class="edge">
<title>Node4&#45;&gt;Node18</title>
<path fill="none" stroke="midnightblue" d="M438.55,-179.44C461.03,-170.52 496.49,-156.44 521.98,-146.32"/>
<polygon fill="midnightblue" stroke="midnightblue" points="523.55,-149.46 531.55,-142.52 520.97,-142.95 523.55,-149.46"/>
</g>
<!-- Node6&#45;&gt;Node7 -->
<g id="edge6" class="edge">
<title>Node6&#45;&gt;Node7</title>
<path fill="none" stroke="midnightblue" d="M447.58,-123.44C480.71,-114.17 533.7,-99.35 570.09,-89.17"/>
<polygon fill="midnightblue" stroke="midnightblue" points="571.19,-92.49 579.88,-86.43 569.31,-85.75 571.19,-92.49"/>
</g>
<!-- Node8 -->
<g id="node8" class="node">
<title>Node8</title>
<g id="a_node8"><a xlink:title=" ">
<polygon fill="white" stroke="#bfbfbf" points="477.5,-67.5 477.5,-86.5 522.5,-86.5 522.5,-67.5 477.5,-67.5"/>
<text text-anchor="middle" x="500" y="-74.5" font-family="Helvetica,sans-Serif" font-size="10.00">utility</text>
</a>
</g>
</g>
<!-- Node6&#45;&gt;Node8 -->
<g id="edge7" class="edge">
<title>Node6&#45;&gt;Node8</title>
<path fill="none" stroke="midnightblue" d="M430.34,-123.32C443.16,-114.98 462.78,-102.21 477.94,-92.35"/>
<polygon fill="midnightblue" stroke="midnightblue" points="480.22,-95.04 486.7,-86.65 476.41,-89.17 480.22,-95.04"/>
</g>
<!-- Node9 -->
<g id="node9" class="node">
<title>Node9</title>
<g id="a_node9"><a xlink:title=" ">
<polygon fill="white" stroke="#bfbfbf" points="742.5,-67.5 742.5,-86.5 811.5,-86.5 811.5,-67.5 742.5,-67.5"/>
<text text-anchor="middle" x="777" y="-74.5" font-family="Helvetica,sans-Serif" font-size="10.00">type_traits</text>
</a>
</g>
</g>
<!-- Node6&#45;&gt;Node9 -->
<g id="edge8" class="edge">
<title>Node6&#45;&gt;Node9</title>
<path fill="none" stroke="midnightblue" d="M467.82,-124.38C538.37,-113.79 664.89,-94.82 732.13,-84.73"/>
<polygon fill="midnightblue" stroke="midnightblue" points="733.03,-88.14 742.4,-83.19 731.99,-81.21 733.03,-88.14"/>
</g>
<!-- Node10 -->
<g id="node10" class="node">
<title>Node10</title>
<g id="a_node10"><a xlink:title=" ">
<polygon fill="white" stroke="#bfbfbf" points="374.5,-67.5 374.5,-86.5 459.5,-86.5 459.5,-67.5 374.5,-67.5"/>
<text text-anchor="middle" x="417" y="-74.5" font-family="Helvetica,sans-Serif" font-size="10.00">itkConfigure.h</text>
</a>
</g>
</g>
<!-- Node6&#45;&gt;Node10 -->
<g id="edge9" class="edge">
<title>Node6&#45;&gt;Node10</title>
<path fill="none" stroke="midnightblue" d="M417,-123.08C417,-116.01 417,-105.86 417,-96.99"/>
<polygon fill="midnightblue" stroke="midnightblue" points="420.5,-96.75 417,-86.75 413.5,-96.75 420.5,-96.75"/>
</g>
<!-- Node11&#45;&gt;Node5 -->
<g id="edge11" class="edge">
<title>Node11&#45;&gt;Node5</title>
<path fill="none" stroke="midnightblue" d="M226,-123.09C229.76,-108.66 239.31,-80.44 259,-67 318.37,-26.46 534.69,-18.43 628.79,-16.86"/>
<polygon fill="midnightblue" stroke="midnightblue" points="628.89,-20.36 638.84,-16.71 628.79,-13.36 628.89,-20.36"/>
</g>
<!-- Node12 -->
<g id="node12" class="node">
<title>Node12</title>
<g id="a_node12"><a xlink:href="itkIntTypes_8h.html" target="_top" xlink:title=" ">
<polygon fill="white" stroke="black" points="132.5,-67.5 132.5,-86.5 211.5,-86.5 211.5,-67.5 132.5,-67.5"/>
<text text-anchor="middle" x="172" y="-74.5" font-family="Helvetica,sans-Serif" font-size="10.00">itkIntTypes.h</text>
</a>
</g>
</g>
<!-- Node11&#45;&gt;Node12 -->
<g id="edge12" class="edge">
<title>Node11&#45;&gt;Node12</title>
<path fill="none" stroke="midnightblue" d="M215.41,-123.08C207.84,-115.22 196.62,-103.57 187.49,-94.08"/>
<polygon fill="midnightblue" stroke="midnightblue" points="189.88,-91.53 180.43,-86.75 184.84,-96.38 189.88,-91.53"/>
</g>
<!-- Node11&#45;&gt;Node15 -->
<g id="edge16" class="edge">
<title>Node11&#45;&gt;Node15</title>
<path fill="none" stroke="midnightblue" d="M235.09,-123.32C245.49,-115.18 261.26,-102.84 273.72,-93.09"/>
<polygon fill="midnightblue" stroke="midnightblue" points="275.99,-95.75 281.71,-86.83 271.68,-90.24 275.99,-95.75"/>
</g>
<!-- Node11&#45;&gt;Node16 -->
<g id="edge17" class="edge">
<title>Node11&#45;&gt;Node16</title>
<path fill="none" stroke="midnightblue" d="M197.54,-123.44C169.32,-114.32 124.46,-99.81 93.03,-89.65"/>
<polygon fill="midnightblue" stroke="midnightblue" points="93.93,-86.26 83.34,-86.52 91.78,-92.92 93.93,-86.26"/>
</g>
<!-- Node12&#45;&gt;Node5 -->
<g id="edge13" class="edge">
<title>Node12&#45;&gt;Node5</title>
<path fill="none" stroke="midnightblue" d="M211.78,-69.13C216.56,-68.37 221.39,-67.64 226,-67 373.12,-46.44 548.39,-28.56 628.76,-20.72"/>
<polygon fill="midnightblue" stroke="midnightblue" points="629.38,-24.17 639,-19.72 628.71,-17.21 629.38,-24.17"/>
</g>
<!-- Node13 -->
<g id="node13" class="node">
<title>Node13</title>
<g id="a_node13"><a xlink:title=" ">
<polygon fill="white" stroke="#bfbfbf" points="113,-6 113,-25 163,-25 163,-6 113,-6"/>
<text text-anchor="middle" x="138" y="-13" font-family="Helvetica,sans-Serif" font-size="10.00">cstdint</text>
</a>
</g>
</g>
<!-- Node12&#45;&gt;Node13 -->
<g id="edge14" class="edge">
<title>Node12&#45;&gt;Node13</title>
<path fill="none" stroke="midnightblue" d="M167.13,-67.48C162.13,-58.73 154.21,-44.87 147.89,-33.81"/>
<polygon fill="midnightblue" stroke="midnightblue" points="150.86,-31.96 142.86,-25.01 144.78,-35.43 150.86,-31.96"/>
</g>
<!-- Node14 -->
<g id="node14" class="node">
<title>Node14</title>
<g id="a_node14"><a xlink:title=" ">
<polygon fill="white" stroke="#bfbfbf" points="181,-6 181,-25 231,-25 231,-6 181,-6"/>
<text text-anchor="middle" x="206" y="-13" font-family="Helvetica,sans-Serif" font-size="10.00">climits</text>
</a>
</g>
</g>
<!-- Node12&#45;&gt;Node14 -->
<g id="edge15" class="edge">
<title>Node12&#45;&gt;Node14</title>
<path fill="none" stroke="midnightblue" d="M176.87,-67.48C181.87,-58.73 189.79,-44.87 196.11,-33.81"/>
<polygon fill="midnightblue" stroke="midnightblue" points="199.22,-35.43 201.14,-25.01 193.14,-31.96 199.22,-35.43"/>
</g>
<!-- Node17&#45;&gt;Node5 -->
<g id="edge19" class="edge">
<title>Node17&#45;&gt;Node5</title>
<path fill="none" stroke="midnightblue" d="M673,-123.32C673,-104.76 673,-60.84 673,-35.47"/>
<polygon fill="midnightblue" stroke="midnightblue" points="676.5,-35.28 673,-25.28 669.5,-35.28 676.5,-35.28"/>
</g>
<!-- Node17&#45;&gt;Node7 -->
<g id="edge20" class="edge">
<title>Node17&#45;&gt;Node7</title>
<path fill="none" stroke="midnightblue" d="M662.88,-123.32C653.47,-115.26 639.26,-103.08 627.93,-93.37"/>
<polygon fill="midnightblue" stroke="midnightblue" points="630.18,-90.68 620.31,-86.83 625.62,-96 630.18,-90.68"/>
</g>
<!-- Node19&#45;&gt;Node17 -->
<g id="edge25" class="edge">
<title>Node19&#45;&gt;Node17</title>
<path fill="none" stroke="midnightblue" d="M707.48,-291.36C722.39,-284.09 741.11,-272.12 750,-255 754.1,-247.11 752.84,-243.42 750,-235 738.21,-200.09 709,-167.71 690.13,-149.44"/>
<polygon fill="midnightblue" stroke="midnightblue" points="692.45,-146.81 682.77,-142.51 687.65,-151.91 692.45,-146.81"/>
</g>
<!-- Node21 -->
<g id="node21" class="node">
<title>Node21</title>
<g id="a_node21"><a xlink:href="itkMetaDataObjectBase_8h.html" target="_top" xlink:title=" ">
<polygon fill="white" stroke="black" points="481,-235.5 481,-254.5 623,-254.5 623,-235.5 481,-235.5"/>
<text text-anchor="middle" x="552" y="-242.5" font-family="Helvetica,sans-Serif" font-size="10.00">itkMetaDataObjectBase.h</text>
</a>
</g>
</g>
<!-- Node20&#45;&gt;Node21 -->
<g id="edge27" class="edge">
<title>Node20&#45;&gt;Node21</title>
<path fill="none" stroke="midnightblue" d="M551.17,-291.08C551.3,-284.01 551.48,-273.86 551.65,-264.99"/>
<polygon fill="midnightblue" stroke="midnightblue" points="555.15,-264.81 551.84,-254.75 548.15,-264.68 555.15,-264.81"/>
</g>
<!-- Node22 -->
<g id="node22" class="node">
<title>Node22</title>
<g id="a_node22"><a xlink:title=" ">
<polygon fill="white" stroke="#bfbfbf" points="781,-6 781,-25 845,-25 845,-6 781,-6"/>
<text text-anchor="middle" x="813" y="-13" font-family="Helvetica,sans-Serif" font-size="10.00">algorithm</text>
</a>
</g>
</g>
<!-- Node20&#45;&gt;Node22 -->
<g id="edge31" class="edge">
<title>Node20&#45;&gt;Node22</title>
<path fill="none" stroke="midnightblue" d="M615.3,-291.46C665.15,-283.76 729.15,-271.17 750,-255 780,-231.74 762.01,-205.7 789,-179 814.43,-153.83 842.19,-173.43 861,-143 883.52,-106.56 849.59,-57.83 828.21,-32.83"/>
<polygon fill="midnightblue" stroke="midnightblue" points="830.8,-30.46 821.54,-25.31 825.56,-35.11 830.8,-30.46"/>
</g>
<!-- Node23 -->
<g id="node23" class="node">
<title>Node23</title>
<g id="a_node23"><a xlink:title=" ">
<polygon fill="white" stroke="#bfbfbf" points="339.5,-235.5 339.5,-254.5 386.5,-254.5 386.5,-235.5 339.5,-235.5"/>
<text text-anchor="middle" x="363" y="-242.5" font-family="Helvetica,sans-Serif" font-size="10.00">vector</text>
</a>
</g>
</g>
<!-- Node20&#45;&gt;Node23 -->
<g id="edge32" class="edge">
<title>Node20&#45;&gt;Node23</title>
<path fill="none" stroke="midnightblue" d="M521.21,-291.44C487.29,-281.7 431.99,-265.82 396.57,-255.64"/>
<polygon fill="midnightblue" stroke="midnightblue" points="397.27,-252.2 386.7,-252.81 395.34,-258.93 397.27,-252.2"/>
</g>
<!-- Node24 -->
<g id="node24" class="node">
<title>Node24</title>
<g id="a_node24"><a xlink:title=" ">
<polygon fill="white" stroke="#bfbfbf" points="703,-235.5 703,-254.5 741,-254.5 741,-235.5 703,-235.5"/>
<text text-anchor="middle" x="722" y="-242.5" font-family="Helvetica,sans-Serif" font-size="10.00">map</text>
</a>
</g>
</g>
<!-- Node20&#45;&gt;Node24 -->
<g id="edge33" class="edge">
<title>Node20&#45;&gt;Node24</title>
<path fill="none" stroke="midnightblue" d="M578.43,-291.42C605.32,-283 647.71,-269.7 693.02,-255.3"/>
<polygon fill="midnightblue" stroke="midnightblue" points="694.26,-258.58 702.73,-252.21 692.13,-251.91 694.26,-258.58"/>
</g>
<!-- Node25 -->
<g id="node25" class="node">
<title>Node25</title>
<g id="a_node25"><a xlink:title=" ">
<polygon fill="white" stroke="#bfbfbf" points="641,-235.5 641,-254.5 685,-254.5 685,-235.5 641,-235.5"/>
<text text-anchor="middle" x="663" y="-242.5" font-family="Helvetica,sans-Serif" font-size="10.00">string</text>
</a>
</g>
</g>
<!-- Node20&#45;&gt;Node25 -->
<g id="edge34" class="edge">
<title>Node20&#45;&gt;Node25</title>
<path fill="none" stroke="midnightblue" d="M568.99,-291.32C587.04,-282.62 615.05,-269.12 635.8,-259.11"/>
<polygon fill="midnightblue" stroke="midnightblue" points="637.56,-262.15 645.05,-254.65 634.52,-255.84 637.56,-262.15"/>
</g>
<!-- Node20&#45;&gt;Node26 -->
<g id="edge35" class="edge">
<title>Node20&#45;&gt;Node26</title>
<path fill="none" stroke="midnightblue" d="M532.46,-291.44C513.38,-282.64 483.43,-268.81 461.56,-258.72"/>
<polygon fill="midnightblue" stroke="midnightblue" points="463,-255.53 452.45,-254.52 460.07,-261.88 463,-255.53"/>
</g>
<!-- Node21&#45;&gt;Node4 -->
<g id="edge28" class="edge">
<title>Node21&#45;&gt;Node4</title>
<path fill="none" stroke="midnightblue" d="M530.61,-235.44C508.29,-226.52 473.1,-212.44 447.79,-202.32"/>
<polygon fill="midnightblue" stroke="midnightblue" points="448.88,-198.98 438.29,-198.52 446.28,-205.48 448.88,-198.98"/>
</g>
<!-- Node21&#45;&gt;Node7 -->
<g id="edge30" class="edge">
<title>Node21&#45;&gt;Node7</title>
<path fill="none" stroke="midnightblue" d="M555.59,-235.44C562.77,-218.15 579.25,-177.72 591,-143 596.24,-127.51 601.4,-109.67 605.01,-96.6"/>
<polygon fill="midnightblue" stroke="midnightblue" points="608.4,-97.47 607.65,-86.91 601.65,-95.63 608.4,-97.47"/>
</g>
<!-- Node21&#45;&gt;Node18 -->
<g id="edge29" class="edge">
<title>Node21&#45;&gt;Node18</title>
<path fill="none" stroke="midnightblue" d="M552.08,-235.37C552.24,-217.62 552.61,-176.67 552.83,-152.6"/>
<polygon fill="midnightblue" stroke="midnightblue" points="556.33,-152.62 552.92,-142.59 549.33,-152.56 556.33,-152.62"/>
</g>
<!-- Node29 -->
<g id="node29" class="node">
<title>Node29</title>
<g id="a_node29"><a xlink:href="itkFunctionBase_8h.html" target="_top" xlink:title=" ">
<polygon fill="white" stroke="black" points="499,-571.5 499,-590.5 603,-590.5 603,-571.5 499,-571.5"/>
<text text-anchor="middle" x="551" y="-578.5" font-family="Helvetica,sans-Serif" font-size="10.00">itkFunctionBase.h</text>
</a>
</g>
</g>
<!-- Node28&#45;&gt;Node29 -->
<g id="edge40" class="edge">
<title>Node28&#45;&gt;Node29</title>
<path fill="none" stroke="midnightblue" d="M699.02,-627.4C665.36,-617.07 620.22,-603.23 588.68,-593.56"/>
<polygon fill="midnightblue" stroke="midnightblue" points="589.53,-590.16 578.95,-590.57 587.48,-596.85 589.53,-590.16"/>
</g>
<!-- Node36 -->
<g id="node36" class="node">
<title>Node36</title>
<g id="a_node36"><a xlink:href="itkConceptChecking_8h.html" target="_top" xlink:title=" ">
<polygon fill="white" stroke="black" points="797.5,-179.5 797.5,-198.5 920.5,-198.5 920.5,-179.5 797.5,-179.5"/>
<text text-anchor="middle" x="859" y="-186.5" font-family="Helvetica,sans-Serif" font-size="10.00">itkConceptChecking.h</text>
</a>
</g>
</g>
<!-- Node28&#45;&gt;Node36 -->
<g id="edge53" class="edge">
<title>Node28&#45;&gt;Node36</title>
<path fill="none" stroke="midnightblue" d="M754.58,-627.47C781.02,-587.38 853,-468.08 853,-358 853,-358 853,-358 853,-300 853,-267.9 855.58,-230.61 857.36,-208.73"/>
<polygon fill="midnightblue" stroke="midnightblue" points="860.86,-208.81 858.22,-198.55 853.89,-208.22 860.86,-208.81"/>
</g>
<!-- Node29&#45;&gt;Node3 -->
<g id="edge41" class="edge">
<title>Node29&#45;&gt;Node3</title>
<path fill="none" stroke="midnightblue" d="M551,-571.3C551,-538.63 551,-422.87 551,-376.96"/>
<polygon fill="midnightblue" stroke="midnightblue" points="554.5,-376.88 551,-366.88 547.5,-376.88 554.5,-376.88"/>
</g>
<!-- Node30 -->
<g id="node30" class="node">
<title>Node30</title>
<g id="a_node30"><a xlink:href="itkObjectFactory_8h.html" target="_top" xlink:title=" ">
<polygon fill="white" stroke="black" points="337,-515.5 337,-534.5 441,-534.5 441,-515.5 337,-515.5"/>
<text text-anchor="middle" x="389" y="-522.5" font-family="Helvetica,sans-Serif" font-size="10.00">itkObjectFactory.h</text>
</a>
</g>
</g>
<!-- Node29&#45;&gt;Node30 -->
<g id="edge42" class="edge">
<title>Node29&#45;&gt;Node30</title>
<path fill="none" stroke="midnightblue" d="M525.33,-571.44C498.08,-562.36 454.82,-547.94 424.35,-537.78"/>
<polygon fill="midnightblue" stroke="midnightblue" points="425.14,-534.36 414.55,-534.52 422.93,-541 425.14,-534.36"/>
</g>
<!-- Node31 -->
<g id="node31" class="node">
<title>Node31</title>
<g id="a_node31"><a xlink:href="itkObjectFactoryBase_8h.html" target="_top" xlink:title=" ">
<polygon fill="white" stroke="black" points="242.5,-459.5 242.5,-478.5 371.5,-478.5 371.5,-459.5 242.5,-459.5"/>
<text text-anchor="middle" x="307" y="-466.5" font-family="Helvetica,sans-Serif" font-size="10.00">itkObjectFactoryBase.h</text>
</a>
</g>
</g>
<!-- Node30&#45;&gt;Node31 -->
<g id="edge43" class="edge">
<title>Node30&#45;&gt;Node31</title>
<path fill="none" stroke="midnightblue" d="M375.83,-515.32C363.15,-506.98 343.77,-494.21 328.79,-484.35"/>
<polygon fill="midnightblue" stroke="midnightblue" points="330.42,-481.23 320.14,-478.65 326.57,-487.08 330.42,-481.23"/>
</g>
<!-- Node31&#45;&gt;Node16 -->
<g id="edge46" class="edge">
<title>Node31&#45;&gt;Node16</title>
<path fill="none" stroke="midnightblue" d="M242.2,-465.67C170.21,-459.2 64,-436.38 64,-358 64,-358 64,-358 64,-188 64,-155.88 60.99,-118.6 58.92,-96.73"/>
<polygon fill="midnightblue" stroke="midnightblue" points="62.38,-96.15 57.92,-86.55 55.41,-96.84 62.38,-96.15"/>
</g>
<!-- Node31&#45;&gt;Node23 -->
<g id="edge52" class="edge">
<title>Node31&#45;&gt;Node23</title>
<path fill="none" stroke="midnightblue" d="M300.37,-459.27C294.23,-450.61 285.54,-436.67 282,-423 279.77,-414.4 279.99,-411.66 282,-403 294.84,-347.71 331.45,-290.3 350.75,-262.74"/>
<polygon fill="midnightblue" stroke="midnightblue" points="353.61,-264.76 356.57,-254.58 347.92,-260.69 353.61,-264.76"/>
</g>
<!-- Node31&#45;&gt;Node26 -->
<g id="edge51" class="edge">
<title>Node31&#45;&gt;Node26</title>
<path fill="none" stroke="midnightblue" d="M311.98,-459.3C330.82,-426.36 398.02,-308.9 423.81,-263.81"/>
<polygon fill="midnightblue" stroke="midnightblue" points="426.99,-265.3 428.92,-254.88 420.91,-261.83 426.99,-265.3"/>
</g>
<!-- Node32 -->
<g id="node32" class="node">
<title>Node32</title>
<g id="a_node32"><a xlink:href="itkCreateObjectFunction_8h.html" target="_top" xlink:title=" ">
<polygon fill="white" stroke="black" points="379.5,-403.5 379.5,-422.5 522.5,-422.5 522.5,-403.5 379.5,-403.5"/>
<text text-anchor="middle" x="451" y="-410.5" font-family="Helvetica,sans-Serif" font-size="10.00">itkCreateObjectFunction.h</text>
</a>
</g>
</g>
<!-- Node31&#45;&gt;Node32 -->
<g id="edge44" class="edge">
<title>Node31&#45;&gt;Node32</title>
<path fill="none" stroke="midnightblue" d="M329.82,-459.44C353.83,-450.44 391.83,-436.19 418.87,-426.05"/>
<polygon fill="midnightblue" stroke="midnightblue" points="420.16,-429.3 428.29,-422.52 417.7,-422.75 420.16,-429.3"/>
</g>
<!-- Node33 -->
<g id="node33" class="node">
<title>Node33</title>
<g id="a_node33"><a xlink:href="itkCommonEnums_8h.html" target="_top" xlink:title=" ">
<polygon fill="white" stroke="black" points="118,-403.5 118,-422.5 234,-422.5 234,-403.5 118,-403.5"/>
<text text-anchor="middle" x="176" y="-410.5" font-family="Helvetica,sans-Serif" font-size="10.00">itkCommonEnums.h</text>
</a>
</g>
</g>
<!-- Node31&#45;&gt;Node33 -->
<g id="edge47" class="edge">
<title>Node31&#45;&gt;Node33</title>
<path fill="none" stroke="midnightblue" d="M286.24,-459.44C264.68,-450.56 230.74,-436.56 206.21,-426.45"/>
<polygon fill="midnightblue" stroke="midnightblue" points="207.24,-423.09 196.66,-422.52 204.57,-429.56 207.24,-423.09"/>
</g>
<!-- Node35 -->
<g id="node35" class="node">
<title>Node35</title>
<g id="a_node35"><a xlink:title=" ">
<polygon fill="white" stroke="#bfbfbf" points="291,-403.5 291,-422.5 323,-422.5 323,-403.5 291,-403.5"/>
<text text-anchor="middle" x="307" y="-410.5" font-family="Helvetica,sans-Serif" font-size="10.00">list</text>
</a>
</g>
</g>
<!-- Node31&#45;&gt;Node35 -->
<g id="edge50" class="edge">
<title>Node31&#45;&gt;Node35</title>
<path fill="none" stroke="midnightblue" d="M307,-459.08C307,-452.01 307,-441.86 307,-432.99"/>
<polygon fill="midnightblue" stroke="midnightblue" points="310.5,-432.75 307,-422.75 303.5,-432.75 310.5,-432.75"/>
</g>
<!-- Node32&#45;&gt;Node3 -->
<g id="edge45" class="edge">
<title>Node32&#45;&gt;Node3</title>
<path fill="none" stroke="midnightblue" d="M467.07,-403.32C482.96,-394.74 507.51,-381.49 525.96,-371.52"/>
<polygon fill="midnightblue" stroke="midnightblue" points="527.84,-374.49 534.97,-366.65 524.51,-368.33 527.84,-374.49"/>
</g>
<!-- Node33&#45;&gt;Node12 -->
<g id="edge48" class="edge">
<title>Node33&#45;&gt;Node12</title>
<path fill="none" stroke="midnightblue" d="M172.22,-403.35C164.58,-385.03 148,-340.82 148,-302 148,-302 148,-302 148,-188 148,-155.06 158.4,-117.82 165.51,-96.21"/>
<polygon fill="midnightblue" stroke="midnightblue" points="168.84,-97.29 168.76,-86.7 162.22,-95.03 168.84,-97.29"/>
</g>
<!-- Node34 -->
<g id="node34" class="node">
<title>Node34</title>
<g id="a_node34"><a xlink:title=" ">
<polygon fill="white" stroke="#bfbfbf" points="176.5,-347.5 176.5,-366.5 233.5,-366.5 233.5,-347.5 176.5,-347.5"/>
<text text-anchor="middle" x="205" y="-354.5" font-family="Helvetica,sans-Serif" font-size="10.00">ostream</text>
</a>
</g>
</g>
<!-- Node33&#45;&gt;Node34 -->
<g id="edge49" class="edge">
<title>Node33&#45;&gt;Node34</title>
<path fill="none" stroke="midnightblue" d="M180.79,-403.08C184.76,-395.69 190.53,-384.95 195.43,-375.81"/>
<polygon fill="midnightblue" stroke="midnightblue" points="198.65,-377.22 200.3,-366.75 192.49,-373.91 198.65,-377.22"/>
</g>
<!-- Node36&#45;&gt;Node7 -->
<g id="edge70" class="edge">
<title>Node36&#45;&gt;Node7</title>
<path fill="none" stroke="midnightblue" d="M838.07,-179.5C816.92,-170.77 783.39,-156.59 755,-143 737.79,-134.76 734.26,-131.15 717,-123 691.88,-111.13 662.77,-98.99 641.27,-90.32"/>
<polygon fill="midnightblue" stroke="midnightblue" points="642.55,-87.06 631.97,-86.59 639.95,-93.56 642.55,-87.06"/>
</g>
<!-- Node37 -->
<g id="node37" class="node">
<title>Node37</title>
<g id="a_node37"><a xlink:href="itkPixelTraits_8h.html" target="_top" xlink:title=" ">
<polygon fill="white" stroke="black" points="764,-123.5 764,-142.5 852,-142.5 852,-123.5 764,-123.5"/>
<text text-anchor="middle" x="808" y="-130.5" font-family="Helvetica,sans-Serif" font-size="10.00">itkPixelTraits.h</text>
</a>
</g>
</g>
<!-- Node36&#45;&gt;Node37 -->
<g id="edge54" class="edge">
<title>Node36&#45;&gt;Node37</title>
<path fill="none" stroke="midnightblue" d="M850.58,-179.08C843.15,-171.22 832.15,-159.57 823.19,-150.08"/>
<polygon fill="midnightblue" stroke="midnightblue" points="825.68,-147.62 816.26,-142.75 820.59,-152.42 825.68,-147.62"/>
</g>
<!-- Node38 -->
<g id="node38" class="node">
<title>Node38</title>
<g id="a_node38"><a xlink:href="itkNumericTraits_8h.html" target="_top" xlink:title=" ">
<polygon fill="white" stroke="black" points="942,-123.5 942,-142.5 1048,-142.5 1048,-123.5 942,-123.5"/>
<text text-anchor="middle" x="995" y="-130.5" font-family="Helvetica,sans-Serif" font-size="10.00">itkNumericTraits.h</text>
</a>
</g>
</g>
<!-- Node36&#45;&gt;Node38 -->
<g id="edge56" class="edge">
<title>Node36&#45;&gt;Node38</title>
<path fill="none" stroke="midnightblue" d="M880.55,-179.44C903.03,-170.52 938.49,-156.44 963.98,-146.32"/>
<polygon fill="midnightblue" stroke="midnightblue" points="965.55,-149.46 973.55,-142.52 962.97,-142.95 965.55,-149.46"/>
</g>
<!-- Node37&#45;&gt;Node5 -->
<g id="edge55" class="edge">
<title>Node37&#45;&gt;Node5</title>
<path fill="none" stroke="midnightblue" d="M790.54,-123.38C774.87,-115.2 751.68,-101.95 734,-87 714.96,-70.9 696.75,-48.65 685.26,-33.48"/>
<polygon fill="midnightblue" stroke="midnightblue" points="687.8,-31.02 679.03,-25.07 682.17,-35.19 687.8,-31.02"/>
</g>
<!-- Node38&#45;&gt;Node5 -->
<g id="edge57" class="edge">
<title>Node38&#45;&gt;Node5</title>
<path fill="none" stroke="midnightblue" d="M972.83,-123.48C939.83,-110.87 875.81,-86.58 821,-67 782.64,-53.29 738.41,-38.31 708.36,-28.25"/>
<polygon fill="midnightblue" stroke="midnightblue" points="709.34,-24.89 698.75,-25.04 707.12,-31.52 709.34,-24.89"/>
</g>
<!-- Node38&#45;&gt;Node9 -->
<g id="edge60" class="edge">
<title>Node38&#45;&gt;Node9</title>
<path fill="none" stroke="midnightblue" d="M960.46,-123.44C922.75,-114.1 862.26,-99.12 821.14,-88.93"/>
<polygon fill="midnightblue" stroke="midnightblue" points="821.93,-85.52 811.38,-86.52 820.25,-92.32 821.93,-85.52"/>
</g>
<!-- Node39 -->
<g id="node39" class="node">
<title>Node39</title>
<g id="a_node39"><a xlink:title=" ">
<polygon fill="white" stroke="#bfbfbf" points="1131,-67.5 1131,-86.5 1175,-86.5 1175,-67.5 1131,-67.5"/>
<text text-anchor="middle" x="1153" y="-74.5" font-family="Helvetica,sans-Serif" font-size="10.00">limits</text>
</a>
</g>
</g>
<!-- Node38&#45;&gt;Node39 -->
<g id="edge58" class="edge">
<title>Node38&#45;&gt;Node39</title>
<path fill="none" stroke="midnightblue" d="M1020.04,-123.44C1047.48,-114.07 1091.56,-99 1121.37,-88.81"/>
<polygon fill="midnightblue" stroke="midnightblue" points="1122.56,-92.1 1130.89,-85.56 1120.29,-85.48 1122.56,-92.1"/>
</g>
<!-- Node40 -->
<g id="node40" class="node">
<title>Node40</title>
<g id="a_node40"><a xlink:title=" ">
<polygon fill="white" stroke="#bfbfbf" points="908.5,-67.5 908.5,-86.5 967.5,-86.5 967.5,-67.5 908.5,-67.5"/>
<text text-anchor="middle" x="938" y="-74.5" font-family="Helvetica,sans-Serif" font-size="10.00">complex</text>
</a>
</g>
</g>
<!-- Node38&#45;&gt;Node40 -->
<g id="edge59" class="edge">
<title>Node38&#45;&gt;Node40</title>
<path fill="none" stroke="midnightblue" d="M985.84,-123.32C977.5,-115.42 964.97,-103.55 954.82,-93.94"/>
<polygon fill="midnightblue" stroke="midnightblue" points="956.99,-91.17 947.32,-86.83 952.18,-96.25 956.99,-91.17"/>
</g>
<!-- Node41 -->
<g id="node41" class="node">
<title>Node41</title>
<g id="a_node41"><a xlink:href="itkFixedArray_8h.html" target="_top" xlink:title=" ">
<polygon fill="white" stroke="black" points="985.5,-67.5 985.5,-86.5 1074.5,-86.5 1074.5,-67.5 985.5,-67.5"/>
<text text-anchor="middle" x="1030" y="-74.5" font-family="Helvetica,sans-Serif" font-size="10.00">itkFixedArray.h</text>
</a>
</g>
</g>
<!-- Node38&#45;&gt;Node41 -->
<g id="edge61" class="edge">
<title>Node38&#45;&gt;Node41</title>
<path fill="none" stroke="midnightblue" d="M1000.78,-123.08C1005.67,-115.53 1012.83,-104.49 1018.83,-95.23"/>
<polygon fill="midnightblue" stroke="midnightblue" points="1021.83,-97.05 1024.33,-86.75 1015.95,-93.24 1021.83,-97.05"/>
</g>
<!-- Node41&#45;&gt;Node5 -->
<g id="edge62" class="edge">
<title>Node41&#45;&gt;Node5</title>
<path fill="none" stroke="midnightblue" d="M985.47,-68.43C982.6,-67.94 979.76,-67.46 977,-67 884.67,-51.49 776.52,-33.59 717.32,-23.81"/>
<polygon fill="midnightblue" stroke="midnightblue" points="717.64,-20.32 707.2,-22.14 716.5,-27.22 717.64,-20.32"/>
</g>
<!-- Node41&#45;&gt;Node22 -->
<g id="edge64" class="edge">
<title>Node41&#45;&gt;Node22</title>
<path fill="none" stroke="midnightblue" d="M992.65,-67.48C956.84,-59.06 901.37,-45.4 854,-31 851.38,-30.2 848.68,-29.34 845.98,-28.45"/>
<polygon fill="midnightblue" stroke="midnightblue" points="846.89,-25.06 836.3,-25.15 844.63,-31.69 846.89,-25.06"/>
</g>
<!-- Node42 -->
<g id="node42" class="node">
<title>Node42</title>
<g id="a_node42"><a xlink:href="itkMakeFilled_8h.html" target="_top" xlink:title=" ">
<polygon fill="white" stroke="black" points="1042.5,-6 1042.5,-25 1133.5,-25 1133.5,-6 1042.5,-6"/>
<text text-anchor="middle" x="1088" y="-13" font-family="Helvetica,sans-Serif" font-size="10.00">itkMakeFilled.h</text>
</a>
</g>
</g>
<!-- Node41&#45;&gt;Node42 -->
<g id="edge63" class="edge">
<title>Node41&#45;&gt;Node42</title>
<path fill="none" stroke="midnightblue" d="M1038.31,-67.48C1047.18,-58.37 1061.45,-43.74 1072.42,-32.48"/>
<polygon fill="midnightblue" stroke="midnightblue" points="1075.23,-34.61 1079.71,-25.01 1070.22,-29.73 1075.23,-34.61"/>
</g>
<!-- Node43 -->
<g id="node43" class="node">
<title>Node43</title>
<g id="a_node43"><a xlink:title=" ">
<polygon fill="white" stroke="#bfbfbf" points="863,-6 863,-25 905,-25 905,-6 863,-6"/>
<text text-anchor="middle" x="884" y="-13" font-family="Helvetica,sans-Serif" font-size="10.00">array</text>
</a>
</g>
</g>
<!-- Node41&#45;&gt;Node43 -->
<g id="edge65" class="edge">
<title>Node41&#45;&gt;Node43</title>
<path fill="none" stroke="midnightblue" d="M1006.91,-67.47C983.57,-58.72 946.52,-44.52 915,-31 913.8,-30.49 912.58,-29.95 911.35,-29.41"/>
<polygon fill="midnightblue" stroke="midnightblue" points="912.49,-26.08 901.94,-25.13 909.6,-32.46 912.49,-26.08"/>
</g>
<!-- Node44 -->
<g id="node44" class="node">
<title>Node44</title>
<g id="a_node44"><a xlink:title=" ">
<polygon fill="white" stroke="#bfbfbf" points="923.5,-6 923.5,-25 1024.5,-25 1024.5,-6 923.5,-6"/>
<text text-anchor="middle" x="974" y="-13" font-family="Helvetica,sans-Serif" font-size="10.00">itkFixedArray.hxx</text>
</a>
</g>
</g>
<!-- Node41&#45;&gt;Node44 -->
<g id="edge66" class="edge">
<title>Node41&#45;&gt;Node44</title>
<path fill="none" stroke="midnightblue" d="M1021.98,-67.48C1013.41,-58.37 999.64,-43.74 989.04,-32.48"/>
<polygon fill="midnightblue" stroke="midnightblue" points="991.41,-29.89 982.01,-25.01 986.31,-34.69 991.41,-29.89"/>
</g>
<!-- Node45 -->
<g id="node45" class="node">
<title>Node45</title>
<g id="a_node45"><a xlink:href="itkNumericTraitsFixedArrayPixel_8h.html" target="_top" xlink:title=" ">
<polygon fill="white" stroke="black" points="1151.5,-0.5 1151.5,-30.5 1300.5,-30.5 1300.5,-0.5 1151.5,-0.5"/>
<text text-anchor="start" x="1159.5" y="-18.5" font-family="Helvetica,sans-Serif" font-size="10.00">itkNumericTraitsFixedArray</text>
<text text-anchor="middle" x="1226" y="-7.5" font-family="Helvetica,sans-Serif" font-size="10.00">Pixel.h</text>
</a>
</g>
</g>
<!-- Node41&#45;&gt;Node45 -->
<g id="edge67" class="edge">
<title>Node41&#45;&gt;Node45</title>
<path fill="none" stroke="midnightblue" d="M1053.18,-67.48C1080.4,-58.63 1126.35,-44.55 1164.08,-33.43"/>
<polygon fill="midnightblue" stroke="midnightblue" points="1165.37,-36.7 1173.98,-30.52 1163.4,-29.98 1165.37,-36.7"/>
</g>
<!-- Node45&#45;&gt;Node38 -->
<g id="edge68" class="edge">
<title>Node45&#45;&gt;Node38</title>
<path fill="none" stroke="midnightblue" d="M1196.29,-30.61C1175.42,-40.6 1146.9,-54.41 1122,-67 1104.97,-75.61 1100.96,-78.25 1084,-87 1062.97,-97.85 1039.02,-109.94 1021.27,-118.86"/>
<polygon fill="midnightblue" stroke="midnightblue" points="1019.47,-115.84 1012.1,-123.46 1022.61,-122.1 1019.47,-115.84"/>
</g>
<!-- Node45&#45;&gt;Node41 -->
<g id="edge69" class="edge">
<title>Node45&#45;&gt;Node41</title>
<path fill="none" stroke="midnightblue" d="M1185.64,-30.52C1152.74,-40.92 1106.54,-54.9 1072.97,-64.61"/>
<polygon fill="midnightblue" stroke="midnightblue" points="1071.63,-61.35 1062.98,-67.48 1073.56,-68.08 1071.63,-61.35"/>
</g>
<!-- Node48&#45;&gt;Node36 -->
<g id="edge75" class="edge">
<title>Node48&#45;&gt;Node36</title>
<path fill="none" stroke="midnightblue" d="M975.13,-235.44C952.22,-226.48 916.02,-212.31 890.13,-202.18"/>
<polygon fill="midnightblue" stroke="midnightblue" points="891.35,-198.9 880.76,-198.52 888.8,-205.42 891.35,-198.9"/>
</g>
<!-- Node48&#45;&gt;Node38 -->
<g id="edge74" class="edge">
<title>Node48&#45;&gt;Node38</title>
<path fill="none" stroke="midnightblue" d="M1053.17,-235.48C1095.68,-226.47 1143.38,-209.26 1122,-179 1107.29,-158.18 1082.09,-146.93 1057.99,-140.88"/>
<polygon fill="midnightblue" stroke="midnightblue" points="1058.65,-137.44 1048.12,-138.66 1057.11,-144.27 1058.65,-137.44"/>
</g>
<!-- Node49 -->
<g id="node49" class="node">
<title>Node49</title>
<g id="a_node49"><a xlink:title=" ">
<polygon fill="white" stroke="#bfbfbf" points="939,-179.5 939,-198.5 1113,-198.5 1113,-179.5 939,-179.5"/>
<text text-anchor="middle" x="1026" y="-186.5" font-family="Helvetica,sans-Serif" font-size="10.00">itkCompensatedSummation.hxx</text>
</a>
</g>
</g>
<!-- Node48&#45;&gt;Node49 -->
<g id="edge76" class="edge">
<title>Node48&#45;&gt;Node49</title>
<path fill="none" stroke="midnightblue" d="M1001.79,-235.08C1005.76,-227.69 1011.53,-216.95 1016.43,-207.81"/>
<polygon fill="midnightblue" stroke="midnightblue" points="1019.65,-209.22 1021.3,-198.75 1013.49,-205.91 1019.65,-209.22"/>
</g>
</g>
</svg>
