<?xml version="1.0" encoding="UTF-8" standalone="no"?>
<!DOCTYPE svg PUBLIC "-//W3C//DTD SVG 1.1//EN"
 "http://www.w3.org/Graphics/SVG/1.1/DTD/svg11.dtd">
<!-- Generated by graphviz version 2.43.0 (0)
 -->
<!-- Title: itkLogicOpsFunctors.h Pages: 1 -->
<svg width="767pt" height="319pt"
 viewBox="0.00 0.00 766.50 319.00" xmlns="http://www.w3.org/2000/svg" xmlns:xlink="http://www.w3.org/1999/xlink">
<g id="graph0" class="graph" transform="scale(1 1) rotate(0) translate(4 315)">
<title>itkLogicOpsFunctors.h</title>
<polygon fill="white" stroke="transparent" points="-4,4 -4,-315 762.5,-315 762.5,4 -4,4"/>
<!-- Node1 -->
<g id="node1" class="node">
<title>Node1</title>
<g id="a_node1"><a xlink:title=" ">
<polygon fill="#bfbfbf" stroke="black" points="415,-291.5 415,-310.5 539,-310.5 539,-291.5 415,-291.5"/>
<text text-anchor="middle" x="477" y="-298.5" font-family="Helvetica,sans-Serif" font-size="10.00">itkLogicOpsFunctors.h</text>
</a>
</g>
</g>
<!-- Node2 -->
<g id="node2" class="node">
<title>Node2</title>
<g id="a_node2"><a xlink:href="itkNumericTraits_8h.html" target="_top" xlink:title=" ">
<polygon fill="white" stroke="black" points="337,-123.5 337,-142.5 443,-142.5 443,-123.5 337,-123.5"/>
<text text-anchor="middle" x="390" y="-130.5" font-family="Helvetica,sans-Serif" font-size="10.00">itkNumericTraits.h</text>
</a>
</g>
</g>
<!-- Node1&#45;&gt;Node2 -->
<g id="edge1" class="edge">
<title>Node1&#45;&gt;Node2</title>
<path fill="none" stroke="midnightblue" d="M498.33,-291.4C542.36,-272.44 636.2,-225.07 599,-179 589.73,-167.53 511.4,-152.95 453.33,-143.55"/>
<polygon fill="midnightblue" stroke="midnightblue" points="453.54,-140.04 443.12,-141.91 452.44,-146.95 453.54,-140.04"/>
</g>
<!-- Node13 -->
<g id="node13" class="node">
<title>Node13</title>
<g id="a_node13"><a xlink:href="itkMath_8h.html" target="_top" xlink:title=" ">
<polygon fill="white" stroke="black" points="305.5,-235.5 305.5,-254.5 368.5,-254.5 368.5,-235.5 305.5,-235.5"/>
<text text-anchor="middle" x="337" y="-242.5" font-family="Helvetica,sans-Serif" font-size="10.00">itkMath.h</text>
</a>
</g>
</g>
<!-- Node1&#45;&gt;Node13 -->
<g id="edge15" class="edge">
<title>Node1&#45;&gt;Node13</title>
<path fill="none" stroke="midnightblue" d="M454.82,-291.44C431.57,-282.48 394.85,-268.31 368.58,-258.18"/>
<polygon fill="midnightblue" stroke="midnightblue" points="369.67,-254.85 359.08,-254.52 367.15,-261.38 369.67,-254.85"/>
</g>
<!-- Node3 -->
<g id="node3" class="node">
<title>Node3</title>
<g id="a_node3"><a xlink:href="itkMacro_8h.html" target="_top" xlink:title=" ">
<polygon fill="white" stroke="black" points="153,-6 153,-25 221,-25 221,-6 153,-6"/>
<text text-anchor="middle" x="187" y="-13" font-family="Helvetica,sans-Serif" font-size="10.00">itkMacro.h</text>
</a>
</g>
</g>
<!-- Node2&#45;&gt;Node3 -->
<g id="edge2" class="edge">
<title>Node2&#45;&gt;Node3</title>
<path fill="none" stroke="midnightblue" d="M402.96,-123.36C420.72,-110.49 448.73,-85.77 433,-67 403.57,-31.89 274.39,-42.35 230,-31 226.79,-30.18 223.48,-29.24 220.19,-28.24"/>
<polygon fill="midnightblue" stroke="midnightblue" points="221.06,-24.84 210.47,-25.12 218.92,-31.51 221.06,-24.84"/>
</g>
<!-- Node4 -->
<g id="node4" class="node">
<title>Node4</title>
<g id="a_node4"><a xlink:title=" ">
<polygon fill="white" stroke="#bfbfbf" points="215,-67.5 215,-86.5 259,-86.5 259,-67.5 215,-67.5"/>
<text text-anchor="middle" x="237" y="-74.5" font-family="Helvetica,sans-Serif" font-size="10.00">limits</text>
</a>
</g>
</g>
<!-- Node2&#45;&gt;Node4 -->
<g id="edge3" class="edge">
<title>Node2&#45;&gt;Node4</title>
<path fill="none" stroke="midnightblue" d="M365.76,-123.44C339.53,-114.19 297.6,-99.39 268.75,-89.21"/>
<polygon fill="midnightblue" stroke="midnightblue" points="269.74,-85.84 259.14,-85.82 267.41,-92.44 269.74,-85.84"/>
</g>
<!-- Node5 -->
<g id="node5" class="node">
<title>Node5</title>
<g id="a_node5"><a xlink:title=" ">
<polygon fill="white" stroke="#bfbfbf" points="277.5,-67.5 277.5,-86.5 336.5,-86.5 336.5,-67.5 277.5,-67.5"/>
<text text-anchor="middle" x="307" y="-74.5" font-family="Helvetica,sans-Serif" font-size="10.00">complex</text>
</a>
</g>
</g>
<!-- Node2&#45;&gt;Node5 -->
<g id="edge4" class="edge">
<title>Node2&#45;&gt;Node5</title>
<path fill="none" stroke="midnightblue" d="M376.66,-123.32C363.84,-114.98 344.22,-102.21 329.06,-92.35"/>
<polygon fill="midnightblue" stroke="midnightblue" points="330.59,-89.17 320.3,-86.65 326.78,-95.04 330.59,-89.17"/>
</g>
<!-- Node6 -->
<g id="node6" class="node">
<title>Node6</title>
<g id="a_node6"><a xlink:title=" ">
<polygon fill="white" stroke="#bfbfbf" points="354.5,-67.5 354.5,-86.5 423.5,-86.5 423.5,-67.5 354.5,-67.5"/>
<text text-anchor="middle" x="389" y="-74.5" font-family="Helvetica,sans-Serif" font-size="10.00">type_traits</text>
</a>
</g>
</g>
<!-- Node2&#45;&gt;Node6 -->
<g id="edge5" class="edge">
<title>Node2&#45;&gt;Node6</title>
<path fill="none" stroke="midnightblue" d="M389.83,-123.08C389.7,-116.01 389.52,-105.86 389.35,-96.99"/>
<polygon fill="midnightblue" stroke="midnightblue" points="392.85,-96.68 389.16,-86.75 385.85,-96.81 392.85,-96.68"/>
</g>
<!-- Node7 -->
<g id="node7" class="node">
<title>Node7</title>
<g id="a_node7"><a xlink:href="itkFixedArray_8h.html" target="_top" xlink:title=" ">
<polygon fill="white" stroke="black" points="480.5,-67.5 480.5,-86.5 569.5,-86.5 569.5,-67.5 480.5,-67.5"/>
<text text-anchor="middle" x="525" y="-74.5" font-family="Helvetica,sans-Serif" font-size="10.00">itkFixedArray.h</text>
</a>
</g>
</g>
<!-- Node2&#45;&gt;Node7 -->
<g id="edge6" class="edge">
<title>Node2&#45;&gt;Node7</title>
<path fill="none" stroke="midnightblue" d="M411.39,-123.44C433.71,-114.52 468.9,-100.44 494.21,-90.32"/>
<polygon fill="midnightblue" stroke="midnightblue" points="495.72,-93.48 503.71,-86.52 493.12,-86.98 495.72,-93.48"/>
</g>
<!-- Node7&#45;&gt;Node3 -->
<g id="edge7" class="edge">
<title>Node7&#45;&gt;Node3</title>
<path fill="none" stroke="midnightblue" d="M480.23,-69.17C397.76,-56.6 230.19,-31.05 230,-31 226.61,-30.18 223.1,-29.2 219.61,-28.15"/>
<polygon fill="midnightblue" stroke="midnightblue" points="220.58,-24.79 209.99,-25.07 218.45,-31.46 220.58,-24.79"/>
</g>
<!-- Node8 -->
<g id="node8" class="node">
<title>Node8</title>
<g id="a_node8"><a xlink:href="itkMakeFilled_8h.html" target="_top" xlink:title=" ">
<polygon fill="white" stroke="black" points="500.5,-6 500.5,-25 591.5,-25 591.5,-6 500.5,-6"/>
<text text-anchor="middle" x="546" y="-13" font-family="Helvetica,sans-Serif" font-size="10.00">itkMakeFilled.h</text>
</a>
</g>
</g>
<!-- Node7&#45;&gt;Node8 -->
<g id="edge8" class="edge">
<title>Node7&#45;&gt;Node8</title>
<path fill="none" stroke="midnightblue" d="M528.01,-67.48C531.03,-58.9 535.79,-45.43 539.65,-34.48"/>
<polygon fill="midnightblue" stroke="midnightblue" points="542.97,-35.6 543,-25.01 536.37,-33.27 542.97,-35.6"/>
</g>
<!-- Node9 -->
<g id="node9" class="node">
<title>Node9</title>
<g id="a_node9"><a xlink:title=" ">
<polygon fill="white" stroke="#bfbfbf" points="239,-6 239,-25 303,-25 303,-6 239,-6"/>
<text text-anchor="middle" x="271" y="-13" font-family="Helvetica,sans-Serif" font-size="10.00">algorithm</text>
</a>
</g>
</g>
<!-- Node7&#45;&gt;Node9 -->
<g id="edge9" class="edge">
<title>Node7&#45;&gt;Node9</title>
<path fill="none" stroke="midnightblue" d="M480.12,-68.3C436.72,-60.43 369.31,-47.11 312,-31 309.04,-30.17 305.99,-29.24 302.95,-28.25"/>
<polygon fill="midnightblue" stroke="midnightblue" points="303.98,-24.91 293.39,-25.02 301.74,-31.54 303.98,-24.91"/>
</g>
<!-- Node10 -->
<g id="node10" class="node">
<title>Node10</title>
<g id="a_node10"><a xlink:title=" ">
<polygon fill="white" stroke="#bfbfbf" points="321,-6 321,-25 363,-25 363,-6 321,-6"/>
<text text-anchor="middle" x="342" y="-13" font-family="Helvetica,sans-Serif" font-size="10.00">array</text>
</a>
</g>
</g>
<!-- Node7&#45;&gt;Node10 -->
<g id="edge10" class="edge">
<title>Node7&#45;&gt;Node10</title>
<path fill="none" stroke="midnightblue" d="M490.71,-67.42C459.58,-59.27 412.63,-46.04 373,-31 371.58,-30.46 370.13,-29.88 368.67,-29.28"/>
<polygon fill="midnightblue" stroke="midnightblue" points="369.74,-25.93 359.18,-25.09 366.92,-32.33 369.74,-25.93"/>
</g>
<!-- Node11 -->
<g id="node11" class="node">
<title>Node11</title>
<g id="a_node11"><a xlink:title=" ">
<polygon fill="white" stroke="#bfbfbf" points="381.5,-6 381.5,-25 482.5,-25 482.5,-6 381.5,-6"/>
<text text-anchor="middle" x="432" y="-13" font-family="Helvetica,sans-Serif" font-size="10.00">itkFixedArray.hxx</text>
</a>
</g>
</g>
<!-- Node7&#45;&gt;Node11 -->
<g id="edge11" class="edge">
<title>Node7&#45;&gt;Node11</title>
<path fill="none" stroke="midnightblue" d="M511.68,-67.48C496.62,-57.84 471.88,-42.02 453.96,-30.55"/>
<polygon fill="midnightblue" stroke="midnightblue" points="455.61,-27.45 445.3,-25.01 451.84,-33.35 455.61,-27.45"/>
</g>
<!-- Node12 -->
<g id="node12" class="node">
<title>Node12</title>
<g id="a_node12"><a xlink:href="itkNumericTraitsFixedArrayPixel_8h.html" target="_top" xlink:title=" ">
<polygon fill="white" stroke="black" points="609.5,-0.5 609.5,-30.5 758.5,-30.5 758.5,-0.5 609.5,-0.5"/>
<text text-anchor="start" x="617.5" y="-18.5" font-family="Helvetica,sans-Serif" font-size="10.00">itkNumericTraitsFixedArray</text>
<text text-anchor="middle" x="684" y="-7.5" font-family="Helvetica,sans-Serif" font-size="10.00">Pixel.h</text>
</a>
</g>
</g>
<!-- Node7&#45;&gt;Node12 -->
<g id="edge12" class="edge">
<title>Node7&#45;&gt;Node12</title>
<path fill="none" stroke="midnightblue" d="M542.88,-67.48C564.23,-58.78 600.53,-45.03 631.03,-34"/>
<polygon fill="midnightblue" stroke="midnightblue" points="632.47,-37.2 640.7,-30.52 630.1,-30.61 632.47,-37.2"/>
</g>
<!-- Node12&#45;&gt;Node2 -->
<g id="edge13" class="edge">
<title>Node12&#45;&gt;Node2</title>
<path fill="none" stroke="midnightblue" d="M667.29,-30.52C647.45,-46.47 612.79,-72.21 579,-87 539.03,-104.49 491.21,-115.79 453.67,-122.7"/>
<polygon fill="midnightblue" stroke="midnightblue" points="452.6,-119.33 443.36,-124.53 453.82,-126.22 452.6,-119.33"/>
</g>
<!-- Node12&#45;&gt;Node7 -->
<g id="edge14" class="edge">
<title>Node12&#45;&gt;Node7</title>
<path fill="none" stroke="midnightblue" d="M652.36,-30.52C626.38,-40.74 589.71,-54.42 562.32,-64.1"/>
<polygon fill="midnightblue" stroke="midnightblue" points="560.96,-60.87 552.68,-67.48 563.28,-67.48 560.96,-60.87"/>
</g>
<!-- Node14 -->
<g id="node14" class="node">
<title>Node14</title>
<g id="a_node14"><a xlink:title=" ">
<polygon fill="white" stroke="#bfbfbf" points="538,-179.5 538,-198.5 590,-198.5 590,-179.5 538,-179.5"/>
<text text-anchor="middle" x="564" y="-186.5" font-family="Helvetica,sans-Serif" font-size="10.00">cassert</text>
</a>
</g>
</g>
<!-- Node13&#45;&gt;Node14 -->
<g id="edge16" class="edge">
<title>Node13&#45;&gt;Node14</title>
<path fill="none" stroke="midnightblue" d="M368.65,-236.8C404.81,-228.53 466.02,-214.38 527.74,-199.27"/>
<polygon fill="midnightblue" stroke="midnightblue" points="528.76,-202.63 537.64,-196.84 527.1,-195.83 528.76,-202.63"/>
</g>
<!-- Node15 -->
<g id="node15" class="node">
<title>Node15</title>
<g id="a_node15"><a xlink:title=" ">
<polygon fill="white" stroke="#bfbfbf" points="123.5,-179.5 123.5,-198.5 170.5,-198.5 170.5,-179.5 123.5,-179.5"/>
<text text-anchor="middle" x="147" y="-186.5" font-family="Helvetica,sans-Serif" font-size="10.00">cmath</text>
</a>
</g>
</g>
<!-- Node13&#45;&gt;Node15 -->
<g id="edge17" class="edge">
<title>Node13&#45;&gt;Node15</title>
<path fill="none" stroke="midnightblue" d="M306.89,-235.44C272.51,-225.67 216.41,-209.73 180.63,-199.56"/>
<polygon fill="midnightblue" stroke="midnightblue" points="181.24,-196.09 170.66,-196.73 179.32,-202.83 181.24,-196.09"/>
</g>
<!-- Node16 -->
<g id="node16" class="node">
<title>Node16</title>
<g id="a_node16"><a xlink:href="itkMathDetail_8h.html" target="_top" xlink:title=" ">
<polygon fill="white" stroke="black" points="13,-179.5 13,-198.5 105,-198.5 105,-179.5 13,-179.5"/>
<text text-anchor="middle" x="59" y="-186.5" font-family="Helvetica,sans-Serif" font-size="10.00">itkMathDetail.h</text>
</a>
</g>
</g>
<!-- Node13&#45;&gt;Node16 -->
<g id="edge18" class="edge">
<title>Node13&#45;&gt;Node16</title>
<path fill="none" stroke="midnightblue" d="M305.38,-237.86C258.53,-228.76 170.05,-211.57 112.86,-200.46"/>
<polygon fill="midnightblue" stroke="midnightblue" points="113.4,-197 102.91,-198.53 112.06,-203.87 113.4,-197"/>
</g>
<!-- Node21 -->
<g id="node21" class="node">
<title>Node21</title>
<g id="a_node21"><a xlink:href="itkConceptChecking_8h.html" target="_top" xlink:title=" ">
<polygon fill="white" stroke="black" points="396.5,-179.5 396.5,-198.5 519.5,-198.5 519.5,-179.5 396.5,-179.5"/>
<text text-anchor="middle" x="458" y="-186.5" font-family="Helvetica,sans-Serif" font-size="10.00">itkConceptChecking.h</text>
</a>
</g>
</g>
<!-- Node13&#45;&gt;Node21 -->
<g id="edge25" class="edge">
<title>Node13&#45;&gt;Node21</title>
<path fill="none" stroke="midnightblue" d="M356.17,-235.44C375.91,-226.64 406.89,-212.81 429.49,-202.72"/>
<polygon fill="midnightblue" stroke="midnightblue" points="431.21,-205.79 438.92,-198.52 428.36,-199.4 431.21,-205.79"/>
</g>
<!-- Node24 -->
<g id="node24" class="node">
<title>Node24</title>
<g id="a_node24"><a xlink:title=" ">
<polygon fill="white" stroke="#bfbfbf" points="188.5,-179.5 188.5,-198.5 277.5,-198.5 277.5,-179.5 188.5,-179.5"/>
<text text-anchor="middle" x="233" y="-186.5" font-family="Helvetica,sans-Serif" font-size="10.00">vnl/vnl_math.h</text>
</a>
</g>
</g>
<!-- Node13&#45;&gt;Node24 -->
<g id="edge30" class="edge">
<title>Node13&#45;&gt;Node24</title>
<path fill="none" stroke="midnightblue" d="M320.29,-235.32C303.69,-226.7 278,-213.36 258.78,-203.39"/>
<polygon fill="midnightblue" stroke="midnightblue" points="260.16,-200.16 249.67,-198.65 256.93,-206.37 260.16,-200.16"/>
</g>
<!-- Node25 -->
<g id="node25" class="node">
<title>Node25</title>
<g id="a_node25"><a xlink:title=" ">
<polygon fill="white" stroke="#bfbfbf" points="296,-179.5 296,-198.5 378,-198.5 378,-179.5 296,-179.5"/>
<text text-anchor="middle" x="337" y="-186.5" font-family="Helvetica,sans-Serif" font-size="10.00">vxl_version.h</text>
</a>
</g>
</g>
<!-- Node13&#45;&gt;Node25 -->
<g id="edge31" class="edge">
<title>Node13&#45;&gt;Node25</title>
<path fill="none" stroke="midnightblue" d="M337,-235.08C337,-228.01 337,-217.86 337,-208.99"/>
<polygon fill="midnightblue" stroke="midnightblue" points="340.5,-208.75 337,-198.75 333.5,-208.75 340.5,-208.75"/>
</g>
<!-- Node16&#45;&gt;Node2 -->
<g id="edge23" class="edge">
<title>Node16&#45;&gt;Node2</title>
<path fill="none" stroke="midnightblue" d="M105.21,-180.44C108.19,-179.95 111.14,-179.47 114,-179 187.3,-167.03 271.55,-153.29 327.49,-144.18"/>
<polygon fill="midnightblue" stroke="midnightblue" points="328.29,-147.6 337.6,-142.53 327.17,-140.69 328.29,-147.6"/>
</g>
<!-- Node17 -->
<g id="node17" class="node">
<title>Node17</title>
<g id="a_node17"><a xlink:href="itkIntTypes_8h.html" target="_top" xlink:title=" ">
<polygon fill="white" stroke="black" points="19.5,-123.5 19.5,-142.5 98.5,-142.5 98.5,-123.5 19.5,-123.5"/>
<text text-anchor="middle" x="59" y="-130.5" font-family="Helvetica,sans-Serif" font-size="10.00">itkIntTypes.h</text>
</a>
</g>
</g>
<!-- Node16&#45;&gt;Node17 -->
<g id="edge19" class="edge">
<title>Node16&#45;&gt;Node17</title>
<path fill="none" stroke="midnightblue" d="M59,-179.08C59,-172.01 59,-161.86 59,-152.99"/>
<polygon fill="midnightblue" stroke="midnightblue" points="62.5,-152.75 59,-142.75 55.5,-152.75 62.5,-152.75"/>
</g>
<!-- Node20 -->
<g id="node20" class="node">
<title>Node20</title>
<g id="a_node20"><a xlink:title=" ">
<polygon fill="white" stroke="#bfbfbf" points="116,-123.5 116,-142.5 160,-142.5 160,-123.5 116,-123.5"/>
<text text-anchor="middle" x="138" y="-130.5" font-family="Helvetica,sans-Serif" font-size="10.00">cfenv</text>
</a>
</g>
</g>
<!-- Node16&#45;&gt;Node20 -->
<g id="edge24" class="edge">
<title>Node16&#45;&gt;Node20</title>
<path fill="none" stroke="midnightblue" d="M71.69,-179.32C83.9,-170.98 102.58,-158.21 117,-148.35"/>
<polygon fill="midnightblue" stroke="midnightblue" points="119.06,-151.19 125.34,-142.65 115.11,-145.41 119.06,-151.19"/>
</g>
<!-- Node17&#45;&gt;Node3 -->
<g id="edge20" class="edge">
<title>Node17&#45;&gt;Node3</title>
<path fill="none" stroke="midnightblue" d="M74.46,-123.47C88.84,-115.15 110.47,-101.65 127,-87 145.33,-70.76 163.09,-48.87 174.48,-33.82"/>
<polygon fill="midnightblue" stroke="midnightblue" points="177.54,-35.56 180.68,-25.44 171.92,-31.39 177.54,-35.56"/>
</g>
<!-- Node18 -->
<g id="node18" class="node">
<title>Node18</title>
<g id="a_node18"><a xlink:title=" ">
<polygon fill="white" stroke="#bfbfbf" points="0,-67.5 0,-86.5 50,-86.5 50,-67.5 0,-67.5"/>
<text text-anchor="middle" x="25" y="-74.5" font-family="Helvetica,sans-Serif" font-size="10.00">cstdint</text>
</a>
</g>
</g>
<!-- Node17&#45;&gt;Node18 -->
<g id="edge21" class="edge">
<title>Node17&#45;&gt;Node18</title>
<path fill="none" stroke="midnightblue" d="M53.39,-123.08C48.63,-115.53 41.68,-104.49 35.85,-95.23"/>
<polygon fill="midnightblue" stroke="midnightblue" points="38.8,-93.35 30.51,-86.75 32.88,-97.08 38.8,-93.35"/>
</g>
<!-- Node19 -->
<g id="node19" class="node">
<title>Node19</title>
<g id="a_node19"><a xlink:title=" ">
<polygon fill="white" stroke="#bfbfbf" points="68,-67.5 68,-86.5 118,-86.5 118,-67.5 68,-67.5"/>
<text text-anchor="middle" x="93" y="-74.5" font-family="Helvetica,sans-Serif" font-size="10.00">climits</text>
</a>
</g>
</g>
<!-- Node17&#45;&gt;Node19 -->
<g id="edge22" class="edge">
<title>Node17&#45;&gt;Node19</title>
<path fill="none" stroke="midnightblue" d="M64.61,-123.08C69.37,-115.53 76.32,-104.49 82.15,-95.23"/>
<polygon fill="midnightblue" stroke="midnightblue" points="85.12,-97.08 87.49,-86.75 79.2,-93.35 85.12,-97.08"/>
</g>
<!-- Node21&#45;&gt;Node2 -->
<g id="edge28" class="edge">
<title>Node21&#45;&gt;Node2</title>
<path fill="none" stroke="midnightblue" d="M447.07,-179.32C436.83,-171.18 421.28,-158.84 409,-149.09"/>
<polygon fill="midnightblue" stroke="midnightblue" points="411.13,-146.31 401.12,-142.83 406.78,-151.79 411.13,-146.31"/>
</g>
<!-- Node22 -->
<g id="node22" class="node">
<title>Node22</title>
<g id="a_node22"><a xlink:href="itkPixelTraits_8h.html" target="_top" xlink:title=" ">
<polygon fill="white" stroke="black" points="221,-123.5 221,-142.5 309,-142.5 309,-123.5 221,-123.5"/>
<text text-anchor="middle" x="265" y="-130.5" font-family="Helvetica,sans-Serif" font-size="10.00">itkPixelTraits.h</text>
</a>
</g>
</g>
<!-- Node21&#45;&gt;Node22 -->
<g id="edge26" class="edge">
<title>Node21&#45;&gt;Node22</title>
<path fill="none" stroke="midnightblue" d="M427.42,-179.44C394.39,-170.2 341.61,-155.44 305.23,-145.26"/>
<polygon fill="midnightblue" stroke="midnightblue" points="306.01,-141.84 295.44,-142.52 304.13,-148.58 306.01,-141.84"/>
</g>
<!-- Node23 -->
<g id="node23" class="node">
<title>Node23</title>
<g id="a_node23"><a xlink:title=" ">
<polygon fill="white" stroke="#bfbfbf" points="461,-123.5 461,-142.5 521,-142.5 521,-123.5 461,-123.5"/>
<text text-anchor="middle" x="491" y="-130.5" font-family="Helvetica,sans-Serif" font-size="10.00">iostream</text>
</a>
</g>
</g>
<!-- Node21&#45;&gt;Node23 -->
<g id="edge29" class="edge">
<title>Node21&#45;&gt;Node23</title>
<path fill="none" stroke="midnightblue" d="M463.45,-179.08C468.01,-171.61 474.67,-160.72 480.29,-151.52"/>
<polygon fill="midnightblue" stroke="midnightblue" points="483.42,-153.11 485.65,-142.75 477.45,-149.46 483.42,-153.11"/>
</g>
<!-- Node22&#45;&gt;Node3 -->
<g id="edge27" class="edge">
<title>Node22&#45;&gt;Node3</title>
<path fill="none" stroke="midnightblue" d="M248.57,-123.5C235.18,-115.74 216.77,-103.04 206,-87 195.53,-71.4 190.81,-50.23 188.7,-35.17"/>
<polygon fill="midnightblue" stroke="midnightblue" points="192.15,-34.58 187.54,-25.04 185.2,-35.37 192.15,-34.58"/>
</g>
</g>
</svg>
