<?xml version="1.0" encoding="UTF-8" standalone="no"?>
<!DOCTYPE svg PUBLIC "-//W3C//DTD SVG 1.1//EN"
 "http://www.w3.org/Graphics/SVG/1.1/DTD/svg11.dtd">
<!-- Generated by graphviz version 2.43.0 (0)
 -->
<!-- Title: itkMembershipFunctionBase.h Pages: 1 -->
<svg width="1513pt" height="285pt"
 viewBox="0.00 0.00 1513.00 285.00" xmlns="http://www.w3.org/2000/svg" xmlns:xlink="http://www.w3.org/1999/xlink">
<g id="graph0" class="graph" transform="scale(1 1) rotate(0) translate(4 281)">
<title>itkMembershipFunctionBase.h</title>
<polygon fill="white" stroke="transparent" points="-4,4 -4,-281 1509,-281 1509,4 -4,4"/>
<!-- Node1 -->
<g id="node1" class="node">
<title>Node1</title>
<g id="a_node1"><a xlink:title=" ">
<polygon fill="#bfbfbf" stroke="black" points="506,-257.5 506,-276.5 670,-276.5 670,-257.5 506,-257.5"/>
<text text-anchor="middle" x="588" y="-264.5" font-family="Helvetica,sans-Serif" font-size="10.00">itkMembershipFunctionBase.h</text>
</a>
</g>
</g>
<!-- Node2 -->
<g id="node2" class="node">
<title>Node2</title>
<g id="a_node2"><a xlink:href="itkBayesianClassifierInitializationImageFilter_8h.html" target="_top" xlink:title=" ">
<polygon fill="white" stroke="black" points="0,-190.5 0,-220.5 180,-220.5 180,-190.5 0,-190.5"/>
<text text-anchor="start" x="8" y="-208.5" font-family="Helvetica,sans-Serif" font-size="10.00">itkBayesianClassifierInitialization</text>
<text text-anchor="middle" x="90" y="-197.5" font-family="Helvetica,sans-Serif" font-size="10.00">ImageFilter.h</text>
</a>
</g>
</g>
<!-- Node1&#45;&gt;Node2 -->
<g id="edge1" class="edge">
<title>Node1&#45;&gt;Node2</title>
<path fill="none" stroke="midnightblue" d="M495.59,-256.46C414.66,-247.89 293.91,-234.6 189,-221 186.07,-220.62 183.1,-220.23 180.09,-219.82"/>
<polygon fill="midnightblue" stroke="midnightblue" points="495.44,-259.96 505.76,-257.53 496.18,-253 495.44,-259.96"/>
</g>
<!-- Node3 -->
<g id="node3" class="node">
<title>Node3</title>
<g id="a_node3"><a xlink:href="itkClassifierBase_8h.html" target="_top" xlink:title=" ">
<polygon fill="white" stroke="black" points="198.5,-196 198.5,-215 305.5,-215 305.5,-196 198.5,-196"/>
<text text-anchor="middle" x="252" y="-203" font-family="Helvetica,sans-Serif" font-size="10.00">itkClassifierBase.h</text>
</a>
</g>
</g>
<!-- Node1&#45;&gt;Node3 -->
<g id="edge2" class="edge">
<title>Node1&#45;&gt;Node3</title>
<path fill="none" stroke="midnightblue" d="M518.92,-255.96C463.38,-247.58 383.44,-234.81 314,-221 305.11,-219.23 295.55,-217.11 286.67,-215.04"/>
<polygon fill="midnightblue" stroke="midnightblue" points="518.59,-259.45 529,-257.48 519.63,-252.53 518.59,-259.45"/>
</g>
<!-- Node7 -->
<g id="node7" class="node">
<title>Node7</title>
<g id="a_node7"><a xlink:href="itkDistanceToCentroidMembershipFunction_8h.html" target="_top" xlink:title=" ">
<polygon fill="white" stroke="black" points="323.5,-190.5 323.5,-220.5 508.5,-220.5 508.5,-190.5 323.5,-190.5"/>
<text text-anchor="start" x="331.5" y="-208.5" font-family="Helvetica,sans-Serif" font-size="10.00">itkDistanceToCentroidMembership</text>
<text text-anchor="middle" x="416" y="-197.5" font-family="Helvetica,sans-Serif" font-size="10.00">Function.h</text>
</a>
</g>
</g>
<!-- Node1&#45;&gt;Node7 -->
<g id="edge6" class="edge">
<title>Node1&#45;&gt;Node7</title>
<path fill="none" stroke="midnightblue" d="M553.61,-254.1C525.62,-244.42 486.06,-230.74 456.54,-220.52"/>
<polygon fill="midnightblue" stroke="midnightblue" points="552.76,-257.51 563.36,-257.48 555.05,-250.9 552.76,-257.51"/>
</g>
<!-- Node10 -->
<g id="node10" class="node">
<title>Node10</title>
<g id="a_node10"><a xlink:href="itkGaussianMembershipFunction_8h.html" target="_top" xlink:title=" ">
<polygon fill="white" stroke="black" points="735.5,-196 735.5,-215 920.5,-215 920.5,-196 735.5,-196"/>
<text text-anchor="middle" x="828" y="-203" font-family="Helvetica,sans-Serif" font-size="10.00">itkGaussianMembershipFunction.h</text>
</a>
</g>
</g>
<!-- Node1&#45;&gt;Node10 -->
<g id="edge9" class="edge">
<title>Node1&#45;&gt;Node10</title>
<path fill="none" stroke="midnightblue" d="M632.2,-255.04C678.8,-243.49 751.2,-225.54 793.68,-215.01"/>
<polygon fill="midnightblue" stroke="midnightblue" points="631.25,-251.67 622.39,-257.48 632.93,-258.47 631.25,-251.67"/>
</g>
<!-- Node15 -->
<g id="node15" class="node">
<title>Node15</title>
<g id="a_node15"><a xlink:href="itkImageClassifierFilter_8h.html" target="_top" xlink:title=" ">
<polygon fill="white" stroke="black" points="939,-196 939,-215 1077,-215 1077,-196 939,-196"/>
<text text-anchor="middle" x="1008" y="-203" font-family="Helvetica,sans-Serif" font-size="10.00">itkImageClassifierFilter.h</text>
</a>
</g>
</g>
<!-- Node1&#45;&gt;Node15 -->
<g id="edge14" class="edge">
<title>Node1&#45;&gt;Node15</title>
<path fill="none" stroke="midnightblue" d="M670.63,-256.28C739.79,-247.86 841.01,-234.87 929,-221 940.29,-219.22 952.46,-217.09 963.78,-215.02"/>
<polygon fill="midnightblue" stroke="midnightblue" points="670.17,-252.81 660.66,-257.49 671.01,-259.76 670.17,-252.81"/>
</g>
<!-- Node16 -->
<g id="node16" class="node">
<title>Node16</title>
<g id="a_node16"><a xlink:href="itkMahalanobisDistanceMembershipFunction_8h.html" target="_top" xlink:title=" ">
<polygon fill="white" stroke="black" points="1122.5,-190.5 1122.5,-220.5 1317.5,-220.5 1317.5,-190.5 1122.5,-190.5"/>
<text text-anchor="start" x="1130.5" y="-208.5" font-family="Helvetica,sans-Serif" font-size="10.00">itkMahalanobisDistanceMembership</text>
<text text-anchor="middle" x="1220" y="-197.5" font-family="Helvetica,sans-Serif" font-size="10.00">Function.h</text>
</a>
</g>
</g>
<!-- Node1&#45;&gt;Node16 -->
<g id="edge15" class="edge">
<title>Node1&#45;&gt;Node16</title>
<path fill="none" stroke="midnightblue" d="M680.51,-258.13C780.53,-249.51 944.65,-235.03 1086,-221 1097.76,-219.83 1110.09,-218.56 1122.32,-217.27"/>
<polygon fill="midnightblue" stroke="midnightblue" points="680.1,-254.66 670.43,-259 680.7,-261.63 680.1,-254.66"/>
</g>
<!-- Node21 -->
<g id="node21" class="node">
<title>Node21</title>
<g id="a_node21"><a xlink:href="itkMixtureModelComponentBase_8h.html" target="_top" xlink:title=" ">
<polygon fill="white" stroke="black" points="564.5,-190.5 564.5,-220.5 717.5,-220.5 717.5,-190.5 564.5,-190.5"/>
<text text-anchor="start" x="572.5" y="-208.5" font-family="Helvetica,sans-Serif" font-size="10.00">itkMixtureModelComponent</text>
<text text-anchor="middle" x="641" y="-197.5" font-family="Helvetica,sans-Serif" font-size="10.00">Base.h</text>
</a>
</g>
</g>
<!-- Node1&#45;&gt;Node21 -->
<g id="edge20" class="edge">
<title>Node1&#45;&gt;Node21</title>
<path fill="none" stroke="midnightblue" d="M602.42,-249.81C610.58,-240.65 620.69,-229.3 628.51,-220.52"/>
<polygon fill="midnightblue" stroke="midnightblue" points="599.63,-247.68 595.59,-257.48 604.86,-252.34 599.63,-247.68"/>
</g>
<!-- Node22 -->
<g id="node22" class="node">
<title>Node22</title>
<g id="a_node22"><a xlink:href="itkSampleClassifierFilter_8h.html" target="_top" xlink:title=" ">
<polygon fill="white" stroke="black" points="402,-129 402,-148 546,-148 546,-129 402,-129"/>
<text text-anchor="middle" x="474" y="-136" font-family="Helvetica,sans-Serif" font-size="10.00">itkSampleClassifierFilter.h</text>
</a>
</g>
</g>
<!-- Node1&#45;&gt;Node22 -->
<g id="edge23" class="edge">
<title>Node1&#45;&gt;Node22</title>
<path fill="none" stroke="midnightblue" d="M573.42,-249.83C549.05,-222.78 500.82,-169.26 481.89,-148.26"/>
<polygon fill="midnightblue" stroke="midnightblue" points="570.87,-252.22 580.16,-257.31 576.07,-247.53 570.87,-252.22"/>
</g>
<!-- Node4 -->
<g id="node4" class="node">
<title>Node4</title>
<g id="a_node4"><a xlink:href="itkImageClassifierBase_8h.html" target="_top" xlink:title=" ">
<polygon fill="white" stroke="black" points="40,-129 40,-148 178,-148 178,-129 40,-129"/>
<text text-anchor="middle" x="109" y="-136" font-family="Helvetica,sans-Serif" font-size="10.00">itkImageClassifierBase.h</text>
</a>
</g>
</g>
<!-- Node3&#45;&gt;Node4 -->
<g id="edge3" class="edge">
<title>Node3&#45;&gt;Node4</title>
<path fill="none" stroke="midnightblue" d="M223.65,-191.61C195.33,-178.74 152.57,-159.31 128.07,-148.17"/>
<polygon fill="midnightblue" stroke="midnightblue" points="222.46,-194.92 233.01,-195.87 225.36,-188.54 222.46,-194.92"/>
</g>
<!-- Node5 -->
<g id="node5" class="node">
<title>Node5</title>
<g id="a_node5"><a xlink:href="itkMRFImageFilter_8h.html" target="_top" xlink:title=" ">
<polygon fill="white" stroke="black" points="51.5,-62 51.5,-81 166.5,-81 166.5,-62 51.5,-62"/>
<text text-anchor="middle" x="109" y="-69" font-family="Helvetica,sans-Serif" font-size="10.00">itkMRFImageFilter.h</text>
</a>
</g>
</g>
<!-- Node4&#45;&gt;Node5 -->
<g id="edge4" class="edge">
<title>Node4&#45;&gt;Node5</title>
<path fill="none" stroke="midnightblue" d="M109,-118.54C109,-106.17 109,-90.62 109,-81.13"/>
<polygon fill="midnightblue" stroke="midnightblue" points="105.5,-118.73 109,-128.73 112.5,-118.73 105.5,-118.73"/>
</g>
<!-- Node6 -->
<g id="node6" class="node">
<title>Node6</title>
<g id="a_node6"><a xlink:href="itkRGBGibbsPriorFilter_8h.html" target="_top" xlink:title=" ">
<polygon fill="white" stroke="black" points="42,-0.5 42,-19.5 176,-19.5 176,-0.5 42,-0.5"/>
<text text-anchor="middle" x="109" y="-7.5" font-family="Helvetica,sans-Serif" font-size="10.00">itkRGBGibbsPriorFilter.h</text>
</a>
</g>
</g>
<!-- Node5&#45;&gt;Node6 -->
<g id="edge5" class="edge">
<title>Node5&#45;&gt;Node6</title>
<path fill="none" stroke="midnightblue" d="M109,-51.82C109,-41 109,-27.9 109,-19.51"/>
<polygon fill="midnightblue" stroke="midnightblue" points="105.5,-51.98 109,-61.98 112.5,-51.98 105.5,-51.98"/>
</g>
<!-- Node8 -->
<g id="node8" class="node">
<title>Node8</title>
<g id="a_node8"><a xlink:href="itkKdTreeBasedKmeansEstimator_8h.html" target="_top" xlink:title=" ">
<polygon fill="white" stroke="black" points="196,-129 196,-148 384,-148 384,-129 196,-129"/>
<text text-anchor="middle" x="290" y="-136" font-family="Helvetica,sans-Serif" font-size="10.00">itkKdTreeBasedKmeansEstimator.h</text>
</a>
</g>
</g>
<!-- Node7&#45;&gt;Node8 -->
<g id="edge7" class="edge">
<title>Node7&#45;&gt;Node8</title>
<path fill="none" stroke="midnightblue" d="M379.76,-185.8C355.6,-173.34 325,-157.56 306.49,-148.01"/>
<polygon fill="midnightblue" stroke="midnightblue" points="378.17,-188.92 388.66,-190.4 381.38,-182.7 378.17,-188.92"/>
</g>
<!-- Node9 -->
<g id="node9" class="node">
<title>Node9</title>
<g id="a_node9"><a xlink:href="itkScalarImageKmeansImageFilter_8h.html" target="_top" xlink:title=" ">
<polygon fill="white" stroke="black" points="301.5,-56.5 301.5,-86.5 462.5,-86.5 462.5,-56.5 301.5,-56.5"/>
<text text-anchor="start" x="309.5" y="-74.5" font-family="Helvetica,sans-Serif" font-size="10.00">itkScalarImageKmeansImage</text>
<text text-anchor="middle" x="382" y="-63.5" font-family="Helvetica,sans-Serif" font-size="10.00">Filter.h</text>
</a>
</g>
</g>
<!-- Node8&#45;&gt;Node9 -->
<g id="edge8" class="edge">
<title>Node8&#45;&gt;Node9</title>
<path fill="none" stroke="midnightblue" d="M310.74,-122.85C326.09,-112 346.89,-97.3 362.06,-86.59"/>
<polygon fill="midnightblue" stroke="midnightblue" points="308.56,-120.1 302.41,-128.73 312.59,-125.82 308.56,-120.1"/>
</g>
<!-- Node11 -->
<g id="node11" class="node">
<title>Node11</title>
<g id="a_node11"><a xlink:href="itkExpectationMaximizationMixtureModelEstimator_8h.html" target="_top" xlink:title=" ">
<polygon fill="white" stroke="black" points="564,-123.5 564,-153.5 718,-153.5 718,-123.5 564,-123.5"/>
<text text-anchor="start" x="572" y="-141.5" font-family="Helvetica,sans-Serif" font-size="10.00">itkExpectationMaximization</text>
<text text-anchor="middle" x="641" y="-130.5" font-family="Helvetica,sans-Serif" font-size="10.00">MixtureModelEstimator.h</text>
</a>
</g>
</g>
<!-- Node10&#45;&gt;Node11 -->
<g id="edge10" class="edge">
<title>Node10&#45;&gt;Node11</title>
<path fill="none" stroke="midnightblue" d="M793.45,-192.49C761.75,-181.47 714.77,-165.14 681.36,-153.53"/>
<polygon fill="midnightblue" stroke="midnightblue" points="792.57,-195.89 803.17,-195.87 794.87,-189.28 792.57,-195.89"/>
</g>
<!-- Node12 -->
<g id="node12" class="node">
<title>Node12</title>
<g id="a_node12"><a xlink:href="itkGaussianMixtureModelComponent_8h.html" target="_top" xlink:title=" ">
<polygon fill="white" stroke="black" points="736.5,-129 736.5,-148 943.5,-148 943.5,-129 736.5,-129"/>
<text text-anchor="middle" x="840" y="-136" font-family="Helvetica,sans-Serif" font-size="10.00">itkGaussianMixtureModelComponent.h</text>
</a>
</g>
</g>
<!-- Node10&#45;&gt;Node12 -->
<g id="edge11" class="edge">
<title>Node10&#45;&gt;Node12</title>
<path fill="none" stroke="midnightblue" d="M831.5,-185.54C833.78,-173.17 836.65,-157.62 838.41,-148.13"/>
<polygon fill="midnightblue" stroke="midnightblue" points="827.99,-185.26 829.62,-195.73 834.88,-186.54 827.99,-185.26"/>
</g>
<!-- Node13 -->
<g id="node13" class="node">
<title>Node13</title>
<g id="a_node13"><a xlink:href="itkManifoldParzenWindowsPointSetFunction_8h.html" target="_top" xlink:title=" ">
<polygon fill="white" stroke="black" points="961.5,-123.5 961.5,-153.5 1110.5,-153.5 1110.5,-123.5 961.5,-123.5"/>
<text text-anchor="start" x="969.5" y="-141.5" font-family="Helvetica,sans-Serif" font-size="10.00">itkManifoldParzenWindows</text>
<text text-anchor="middle" x="1036" y="-130.5" font-family="Helvetica,sans-Serif" font-size="10.00">PointSetFunction.h</text>
</a>
</g>
</g>
<!-- Node10&#45;&gt;Node13 -->
<g id="edge12" class="edge">
<title>Node10&#45;&gt;Node13</title>
<path fill="none" stroke="midnightblue" d="M865.52,-192.77C900.79,-181.75 953.62,-165.24 991.11,-153.53"/>
<polygon fill="midnightblue" stroke="midnightblue" points="864.12,-189.55 855.62,-195.87 866.21,-196.23 864.12,-189.55"/>
</g>
<!-- Node14 -->
<g id="node14" class="node">
<title>Node14</title>
<g id="a_node14"><a xlink:href="itkJensenHavrdaCharvatTsallisPointSetToPointSetMetricv4_8h.html" target="_top" xlink:title=" ">
<polygon fill="white" stroke="black" points="953.5,-56.5 953.5,-86.5 1118.5,-86.5 1118.5,-56.5 953.5,-56.5"/>
<text text-anchor="start" x="961.5" y="-74.5" font-family="Helvetica,sans-Serif" font-size="10.00">itkJensenHavrdaCharvatTsallis</text>
<text text-anchor="middle" x="1036" y="-63.5" font-family="Helvetica,sans-Serif" font-size="10.00">PointSetToPointSetMetricv4.h</text>
</a>
</g>
</g>
<!-- Node13&#45;&gt;Node14 -->
<g id="edge13" class="edge">
<title>Node13&#45;&gt;Node14</title>
<path fill="none" stroke="midnightblue" d="M1036,-113.11C1036,-104.15 1036,-94.32 1036,-86.58"/>
<polygon fill="midnightblue" stroke="midnightblue" points="1032.5,-113.4 1036,-123.4 1039.5,-113.4 1032.5,-113.4"/>
</g>
<!-- Node17 -->
<g id="node17" class="node">
<title>Node17</title>
<g id="a_node17"><a xlink:href="itkMahalanobisDistanceThresholdImageFunction_8h.html" target="_top" xlink:title=" ">
<polygon fill="white" stroke="black" points="1129,-123.5 1129,-153.5 1311,-153.5 1311,-123.5 1129,-123.5"/>
<text text-anchor="start" x="1137" y="-141.5" font-family="Helvetica,sans-Serif" font-size="10.00">itkMahalanobisDistanceThreshold</text>
<text text-anchor="middle" x="1220" y="-130.5" font-family="Helvetica,sans-Serif" font-size="10.00">ImageFunction.h</text>
</a>
</g>
</g>
<!-- Node16&#45;&gt;Node17 -->
<g id="edge16" class="edge">
<title>Node16&#45;&gt;Node17</title>
<path fill="none" stroke="midnightblue" d="M1220,-180.11C1220,-171.15 1220,-161.32 1220,-153.58"/>
<polygon fill="midnightblue" stroke="midnightblue" points="1216.5,-180.4 1220,-190.4 1223.5,-180.4 1216.5,-180.4"/>
</g>
<!-- Node19 -->
<g id="node19" class="node">
<title>Node19</title>
<g id="a_node19"><a xlink:href="itkVectorThresholdSegmentationLevelSetFunction_8h.html" target="_top" xlink:title=" ">
<polygon fill="white" stroke="black" points="1329,-123.5 1329,-153.5 1505,-153.5 1505,-123.5 1329,-123.5"/>
<text text-anchor="start" x="1337" y="-141.5" font-family="Helvetica,sans-Serif" font-size="10.00">itkVectorThresholdSegmentation</text>
<text text-anchor="middle" x="1417" y="-130.5" font-family="Helvetica,sans-Serif" font-size="10.00">LevelSetFunction.h</text>
</a>
</g>
</g>
<!-- Node16&#45;&gt;Node19 -->
<g id="edge18" class="edge">
<title>Node16&#45;&gt;Node19</title>
<path fill="none" stroke="midnightblue" d="M1272.35,-187.23C1304.22,-176.71 1344.41,-163.45 1374.34,-153.58"/>
<polygon fill="midnightblue" stroke="midnightblue" points="1271.15,-183.94 1262.75,-190.4 1273.34,-190.59 1271.15,-183.94"/>
</g>
<!-- Node18 -->
<g id="node18" class="node">
<title>Node18</title>
<g id="a_node18"><a xlink:href="itkVectorConfidenceConnectedImageFilter_8h.html" target="_top" xlink:title=" ">
<polygon fill="white" stroke="black" points="1137,-56.5 1137,-86.5 1303,-86.5 1303,-56.5 1137,-56.5"/>
<text text-anchor="start" x="1145" y="-74.5" font-family="Helvetica,sans-Serif" font-size="10.00">itkVectorConfidenceConnected</text>
<text text-anchor="middle" x="1220" y="-63.5" font-family="Helvetica,sans-Serif" font-size="10.00">ImageFilter.h</text>
</a>
</g>
</g>
<!-- Node17&#45;&gt;Node18 -->
<g id="edge17" class="edge">
<title>Node17&#45;&gt;Node18</title>
<path fill="none" stroke="midnightblue" d="M1220,-113.11C1220,-104.15 1220,-94.32 1220,-86.58"/>
<polygon fill="midnightblue" stroke="midnightblue" points="1216.5,-113.4 1220,-123.4 1223.5,-113.4 1216.5,-113.4"/>
</g>
<!-- Node20 -->
<g id="node20" class="node">
<title>Node20</title>
<g id="a_node20"><a xlink:href="itkVectorThresholdSegmentationLevelSetImageFilter_8h.html" target="_top" xlink:title=" ">
<polygon fill="white" stroke="black" points="1329,-56.5 1329,-86.5 1505,-86.5 1505,-56.5 1329,-56.5"/>
<text text-anchor="start" x="1337" y="-74.5" font-family="Helvetica,sans-Serif" font-size="10.00">itkVectorThresholdSegmentation</text>
<text text-anchor="middle" x="1417" y="-63.5" font-family="Helvetica,sans-Serif" font-size="10.00">LevelSetImageFilter.h</text>
</a>
</g>
</g>
<!-- Node19&#45;&gt;Node20 -->
<g id="edge19" class="edge">
<title>Node19&#45;&gt;Node20</title>
<path fill="none" stroke="midnightblue" d="M1417,-113.11C1417,-104.15 1417,-94.32 1417,-86.58"/>
<polygon fill="midnightblue" stroke="midnightblue" points="1413.5,-113.4 1417,-123.4 1420.5,-113.4 1413.5,-113.4"/>
</g>
<!-- Node21&#45;&gt;Node11 -->
<g id="edge21" class="edge">
<title>Node21&#45;&gt;Node11</title>
<path fill="none" stroke="midnightblue" d="M641,-180.11C641,-171.15 641,-161.32 641,-153.58"/>
<polygon fill="midnightblue" stroke="midnightblue" points="637.5,-180.4 641,-190.4 644.5,-180.4 637.5,-180.4"/>
</g>
<!-- Node21&#45;&gt;Node12 -->
<g id="edge22" class="edge">
<title>Node21&#45;&gt;Node12</title>
<path fill="none" stroke="midnightblue" d="M693.75,-187.27C732.53,-174.6 783.56,-157.93 813.96,-148.01"/>
<polygon fill="midnightblue" stroke="midnightblue" points="692.6,-183.96 684.18,-190.4 694.77,-190.62 692.6,-183.96"/>
</g>
<!-- Node22&#45;&gt;Node9 -->
<g id="edge24" class="edge">
<title>Node22&#45;&gt;Node9</title>
<path fill="none" stroke="midnightblue" d="M453.26,-122.85C437.91,-112 417.11,-97.3 401.94,-86.59"/>
<polygon fill="midnightblue" stroke="midnightblue" points="451.41,-125.82 461.59,-128.73 455.44,-120.1 451.41,-125.82"/>
</g>
</g>
</svg>
