<?xml version="1.0" encoding="UTF-8" standalone="no"?>
<!DOCTYPE svg PUBLIC "-//W3C//DTD SVG 1.1//EN"
 "http://www.w3.org/Graphics/SVG/1.1/DTD/svg11.dtd">
<!-- Generated by graphviz version 2.43.0 (0)
 -->
<!-- Title: itkMovingHistogramImageFilterBase.h Pages: 1 -->
<svg width="1085pt" height="441pt"
 viewBox="0.00 0.00 1084.50 441.00" xmlns="http://www.w3.org/2000/svg" xmlns:xlink="http://www.w3.org/1999/xlink">
<g id="graph0" class="graph" transform="scale(1 1) rotate(0) translate(4 437)">
<title>itkMovingHistogramImageFilterBase.h</title>
<polygon fill="white" stroke="transparent" points="-4,4 -4,-437 1080.5,-437 1080.5,4 -4,4"/>
<!-- Node1 -->
<g id="node1" class="node">
<title>Node1</title>
<g id="a_node1"><a xlink:title=" ">
<polygon fill="#bfbfbf" stroke="black" points="156,-402.5 156,-432.5 328,-432.5 328,-402.5 156,-402.5"/>
<text text-anchor="start" x="164" y="-420.5" font-family="Helvetica,sans-Serif" font-size="10.00">itkMovingHistogramImageFilter</text>
<text text-anchor="middle" x="242" y="-409.5" font-family="Helvetica,sans-Serif" font-size="10.00">Base.h</text>
</a>
</g>
</g>
<!-- Node2 -->
<g id="node2" class="node">
<title>Node2</title>
<g id="a_node2"><a xlink:href="itkMaskedMovingHistogramImageFilter_8h.html" target="_top" xlink:title=" ">
<polygon fill="white" stroke="black" points="73,-335.5 73,-365.5 227,-365.5 227,-335.5 73,-335.5"/>
<text text-anchor="start" x="81" y="-353.5" font-family="Helvetica,sans-Serif" font-size="10.00">itkMaskedMovingHistogram</text>
<text text-anchor="middle" x="150" y="-342.5" font-family="Helvetica,sans-Serif" font-size="10.00">ImageFilter.h</text>
</a>
</g>
</g>
<!-- Node1&#45;&gt;Node2 -->
<g id="edge1" class="edge">
<title>Node1&#45;&gt;Node2</title>
<path fill="none" stroke="midnightblue" d="M213.62,-396.45C199.47,-386.45 182.69,-374.6 169.92,-365.58"/>
<polygon fill="midnightblue" stroke="midnightblue" points="211.85,-399.48 222.04,-402.4 215.89,-393.77 211.85,-399.48"/>
</g>
<!-- Node4 -->
<g id="node4" class="node">
<title>Node4</title>
<g id="a_node4"><a xlink:href="itkMovingHistogramImageFilter_8h.html" target="_top" xlink:title=" ">
<polygon fill="white" stroke="black" points="314,-341 314,-360 494,-360 494,-341 314,-341"/>
<text text-anchor="middle" x="404" y="-348" font-family="Helvetica,sans-Serif" font-size="10.00">itkMovingHistogramImageFilter.h</text>
</a>
</g>
</g>
<!-- Node1&#45;&gt;Node4 -->
<g id="edge3" class="edge">
<title>Node1&#45;&gt;Node4</title>
<path fill="none" stroke="midnightblue" d="M286.56,-398.62C317.92,-386.04 358.48,-369.77 382.8,-360.01"/>
<polygon fill="midnightblue" stroke="midnightblue" points="285.13,-395.42 277.15,-402.4 287.74,-401.92 285.13,-395.42"/>
</g>
<!-- Node3 -->
<g id="node3" class="node">
<title>Node3</title>
<g id="a_node3"><a xlink:href="itkMaskedRankImageFilter_8h.html" target="_top" xlink:title=" ">
<polygon fill="white" stroke="black" points="2.5,-274 2.5,-293 157.5,-293 157.5,-274 2.5,-274"/>
<text text-anchor="middle" x="80" y="-281" font-family="Helvetica,sans-Serif" font-size="10.00">itkMaskedRankImageFilter.h</text>
</a>
</g>
</g>
<!-- Node2&#45;&gt;Node3 -->
<g id="edge2" class="edge">
<title>Node2&#45;&gt;Node3</title>
<path fill="none" stroke="midnightblue" d="M127.21,-328.34C114.35,-316.4 98.99,-302.14 89.36,-293.19"/>
<polygon fill="midnightblue" stroke="midnightblue" points="125.1,-331.16 134.81,-335.4 129.86,-326.03 125.1,-331.16"/>
</g>
<!-- Node5 -->
<g id="node5" class="node">
<title>Node5</title>
<g id="a_node5"><a xlink:href="itkAdaptiveHistogramEqualizationImageFilter_8h.html" target="_top" xlink:title=" ">
<polygon fill="white" stroke="black" points="312,-268.5 312,-298.5 496,-298.5 496,-268.5 312,-268.5"/>
<text text-anchor="start" x="320" y="-286.5" font-family="Helvetica,sans-Serif" font-size="10.00">itkAdaptiveHistogramEqualization</text>
<text text-anchor="middle" x="404" y="-275.5" font-family="Helvetica,sans-Serif" font-size="10.00">ImageFilter.h</text>
</a>
</g>
</g>
<!-- Node4&#45;&gt;Node5 -->
<g id="edge4" class="edge">
<title>Node4&#45;&gt;Node5</title>
<path fill="none" stroke="midnightblue" d="M404,-330.41C404,-320.22 404,-307.9 404,-298.59"/>
<polygon fill="midnightblue" stroke="midnightblue" points="400.5,-330.73 404,-340.73 407.5,-330.73 400.5,-330.73"/>
</g>
<!-- Node6 -->
<g id="node6" class="node">
<title>Node6</title>
<g id="a_node6"><a xlink:href="itkMovingHistogramMorphologicalGradientImageFilter_8h.html" target="_top" xlink:title=" ">
<polygon fill="white" stroke="black" points="891.5,-201.5 891.5,-231.5 1076.5,-231.5 1076.5,-201.5 891.5,-201.5"/>
<text text-anchor="start" x="899.5" y="-219.5" font-family="Helvetica,sans-Serif" font-size="10.00">itkMovingHistogramMorphological</text>
<text text-anchor="middle" x="984" y="-208.5" font-family="Helvetica,sans-Serif" font-size="10.00">GradientImageFilter.h</text>
</a>
</g>
</g>
<!-- Node4&#45;&gt;Node6 -->
<g id="edge5" class="edge">
<title>Node4&#45;&gt;Node6</title>
<path fill="none" stroke="midnightblue" d="M474.75,-339.46C534.36,-330.48 621.71,-316.13 697,-299 784.12,-279.18 884.14,-249.07 940.12,-231.53"/>
<polygon fill="midnightblue" stroke="midnightblue" points="474.07,-336.02 464.69,-340.96 475.1,-342.94 474.07,-336.02"/>
</g>
<!-- Node8 -->
<g id="node8" class="node">
<title>Node8</title>
<g id="a_node8"><a xlink:href="itkMovingHistogramMorphologyImageFilter_8h.html" target="_top" xlink:title=" ">
<polygon fill="white" stroke="black" points="514,-268.5 514,-298.5 688,-298.5 688,-268.5 514,-268.5"/>
<text text-anchor="start" x="522" y="-286.5" font-family="Helvetica,sans-Serif" font-size="10.00">itkMovingHistogramMorphology</text>
<text text-anchor="middle" x="601" y="-275.5" font-family="Helvetica,sans-Serif" font-size="10.00">ImageFilter.h</text>
</a>
</g>
</g>
<!-- Node4&#45;&gt;Node8 -->
<g id="edge7" class="edge">
<title>Node4&#45;&gt;Node8</title>
<path fill="none" stroke="midnightblue" d="M439.97,-337.63C473.37,-326.61 523.13,-310.19 558.48,-298.53"/>
<polygon fill="midnightblue" stroke="midnightblue" points="438.56,-334.41 430.16,-340.87 440.75,-341.06 438.56,-334.41"/>
</g>
<!-- Node22 -->
<g id="node22" class="node">
<title>Node22</title>
<g id="a_node22"><a xlink:href="itkRankImageFilter_8h.html" target="_top" xlink:title=" ">
<polygon fill="white" stroke="black" points="176,-274 176,-293 294,-293 294,-274 176,-274"/>
<text text-anchor="middle" x="235" y="-281" font-family="Helvetica,sans-Serif" font-size="10.00">itkRankImageFilter.h</text>
</a>
</g>
</g>
<!-- Node4&#45;&gt;Node22 -->
<g id="edge29" class="edge">
<title>Node4&#45;&gt;Node22</title>
<path fill="none" stroke="midnightblue" d="M372.2,-337.27C338.66,-324.37 286.68,-304.38 257.27,-293.06"/>
<polygon fill="midnightblue" stroke="midnightblue" points="370.97,-340.55 381.56,-340.87 373.48,-334.01 370.97,-340.55"/>
</g>
<!-- Node7 -->
<g id="node7" class="node">
<title>Node7</title>
<g id="a_node7"><a xlink:href="itkMorphologicalGradientImageFilter_8h.html" target="_top" xlink:title=" ">
<polygon fill="white" stroke="black" points="902,-0.5 902,-30.5 1042,-30.5 1042,-0.5 902,-0.5"/>
<text text-anchor="start" x="910" y="-18.5" font-family="Helvetica,sans-Serif" font-size="10.00">itkMorphologicalGradient</text>
<text text-anchor="middle" x="972" y="-7.5" font-family="Helvetica,sans-Serif" font-size="10.00">ImageFilter.h</text>
</a>
</g>
</g>
<!-- Node6&#45;&gt;Node7 -->
<g id="edge6" class="edge">
<title>Node6&#45;&gt;Node7</title>
<path fill="none" stroke="midnightblue" d="M1003.58,-193.11C1026.98,-163.49 1060.43,-110 1039,-67 1031.14,-51.23 1015.74,-39.08 1001.69,-30.66"/>
<polygon fill="midnightblue" stroke="midnightblue" points="1000.63,-191.2 997.01,-201.15 1006.05,-195.63 1000.63,-191.2"/>
</g>
<!-- Node9 -->
<g id="node9" class="node">
<title>Node9</title>
<g id="a_node9"><a xlink:href="itkAnchorErodeDilateLine_8h.html" target="_top" xlink:title=" ">
<polygon fill="white" stroke="black" points="628.5,-207 628.5,-226 777.5,-226 777.5,-207 628.5,-207"/>
<text text-anchor="middle" x="703" y="-214" font-family="Helvetica,sans-Serif" font-size="10.00">itkAnchorErodeDilateLine.h</text>
</a>
</g>
</g>
<!-- Node8&#45;&gt;Node9 -->
<g id="edge8" class="edge">
<title>Node8&#45;&gt;Node9</title>
<path fill="none" stroke="midnightblue" d="M631.64,-262.97C650.98,-250.65 675,-235.35 689.65,-226.01"/>
<polygon fill="midnightblue" stroke="midnightblue" points="629.68,-260.07 623.13,-268.4 633.45,-265.97 629.68,-260.07"/>
</g>
<!-- Node20 -->
<g id="node20" class="node">
<title>Node20</title>
<g id="a_node20"><a xlink:href="itkMovingHistogramDilateImageFilter_8h.html" target="_top" xlink:title=" ">
<polygon fill="white" stroke="black" points="536,-67.5 536,-97.5 682,-97.5 682,-67.5 536,-67.5"/>
<text text-anchor="start" x="544" y="-85.5" font-family="Helvetica,sans-Serif" font-size="10.00">itkMovingHistogramDilate</text>
<text text-anchor="middle" x="609" y="-74.5" font-family="Helvetica,sans-Serif" font-size="10.00">ImageFilter.h</text>
</a>
</g>
</g>
<!-- Node8&#45;&gt;Node20 -->
<g id="edge21" class="edge">
<title>Node8&#45;&gt;Node20</title>
<path fill="none" stroke="midnightblue" d="M601.98,-258C603.68,-215.93 607.08,-131.26 608.43,-97.68"/>
<polygon fill="midnightblue" stroke="midnightblue" points="598.48,-258.06 601.58,-268.19 605.47,-258.34 598.48,-258.06"/>
</g>
<!-- Node21 -->
<g id="node21" class="node">
<title>Node21</title>
<g id="a_node21"><a xlink:href="itkMovingHistogramErodeImageFilter_8h.html" target="_top" xlink:title=" ">
<polygon fill="white" stroke="black" points="170.5,-67.5 170.5,-97.5 345.5,-97.5 345.5,-67.5 170.5,-67.5"/>
<text text-anchor="start" x="178.5" y="-85.5" font-family="Helvetica,sans-Serif" font-size="10.00">itkMovingHistogramErodeImage</text>
<text text-anchor="middle" x="258" y="-74.5" font-family="Helvetica,sans-Serif" font-size="10.00">Filter.h</text>
</a>
</g>
</g>
<!-- Node8&#45;&gt;Node21 -->
<g id="edge25" class="edge">
<title>Node8&#45;&gt;Node21</title>
<path fill="none" stroke="midnightblue" d="M556.18,-264.57C506.12,-243.7 423.54,-206.74 358,-165 325.7,-144.43 291.93,-114.97 273.07,-97.68"/>
<polygon fill="midnightblue" stroke="midnightblue" points="554.86,-267.81 565.43,-268.4 557.53,-261.34 554.86,-267.81"/>
</g>
<!-- Node10 -->
<g id="node10" class="node">
<title>Node10</title>
<g id="a_node10"><a xlink:href="itkAnchorErodeDilateImageFilter_8h.html" target="_top" xlink:title=" ">
<polygon fill="white" stroke="black" points="702.5,-134.5 702.5,-164.5 853.5,-164.5 853.5,-134.5 702.5,-134.5"/>
<text text-anchor="start" x="710.5" y="-152.5" font-family="Helvetica,sans-Serif" font-size="10.00">itkAnchorErodeDilateImage</text>
<text text-anchor="middle" x="778" y="-141.5" font-family="Helvetica,sans-Serif" font-size="10.00">Filter.h</text>
</a>
</g>
</g>
<!-- Node9&#45;&gt;Node10 -->
<g id="edge9" class="edge">
<title>Node9&#45;&gt;Node10</title>
<path fill="none" stroke="midnightblue" d="M720.97,-199.93C733.37,-189.18 749.73,-175 761.74,-164.59"/>
<polygon fill="midnightblue" stroke="midnightblue" points="718.38,-197.54 713.11,-206.73 722.96,-202.83 718.38,-197.54"/>
</g>
<!-- Node15 -->
<g id="node15" class="node">
<title>Node15</title>
<g id="a_node15"><a xlink:href="itkAnchorOpenCloseImageFilter_8h.html" target="_top" xlink:title=" ">
<polygon fill="white" stroke="black" points="366.5,-140 366.5,-159 545.5,-159 545.5,-140 366.5,-140"/>
<text text-anchor="middle" x="456" y="-147" font-family="Helvetica,sans-Serif" font-size="10.00">itkAnchorOpenCloseImageFilter.h</text>
</a>
</g>
</g>
<!-- Node9&#45;&gt;Node15 -->
<g id="edge16" class="edge">
<title>Node9&#45;&gt;Node15</title>
<path fill="none" stroke="midnightblue" d="M660.53,-204.32C611.76,-191.49 532.8,-170.71 488.62,-159.08"/>
<polygon fill="midnightblue" stroke="midnightblue" points="659.89,-207.78 670.46,-206.94 661.68,-201.01 659.89,-207.78"/>
</g>
<!-- Node11 -->
<g id="node11" class="node">
<title>Node11</title>
<g id="a_node11"><a xlink:href="itkAnchorDilateImageFilter_8h.html" target="_top" xlink:title=" ">
<polygon fill="white" stroke="black" points="874,-73 874,-92 1030,-92 1030,-73 874,-73"/>
<text text-anchor="middle" x="952" y="-80" font-family="Helvetica,sans-Serif" font-size="10.00">itkAnchorDilateImageFilter.h</text>
</a>
</g>
</g>
<!-- Node10&#45;&gt;Node11 -->
<g id="edge10" class="edge">
<title>Node10&#45;&gt;Node11</title>
<path fill="none" stroke="midnightblue" d="M825.42,-130.78C859.16,-118.18 902.99,-101.81 929.23,-92.01"/>
<polygon fill="midnightblue" stroke="midnightblue" points="823.9,-127.62 815.76,-134.4 826.35,-134.18 823.9,-127.62"/>
</g>
<!-- Node13 -->
<g id="node13" class="node">
<title>Node13</title>
<g id="a_node13"><a xlink:href="itkAnchorErodeImageFilter_8h.html" target="_top" xlink:title=" ">
<polygon fill="white" stroke="black" points="700.5,-73 700.5,-92 855.5,-92 855.5,-73 700.5,-73"/>
<text text-anchor="middle" x="778" y="-80" font-family="Helvetica,sans-Serif" font-size="10.00">itkAnchorErodeImageFilter.h</text>
</a>
</g>
</g>
<!-- Node10&#45;&gt;Node13 -->
<g id="edge13" class="edge">
<title>Node10&#45;&gt;Node13</title>
<path fill="none" stroke="midnightblue" d="M778,-124.25C778,-113.02 778,-100.38 778,-92.19"/>
<polygon fill="midnightblue" stroke="midnightblue" points="774.5,-124.4 778,-134.4 781.5,-124.4 774.5,-124.4"/>
</g>
<!-- Node11&#45;&gt;Node7 -->
<g id="edge12" class="edge">
<title>Node11&#45;&gt;Node7</title>
<path fill="none" stroke="midnightblue" d="M957.67,-63.06C960.85,-52.75 964.74,-40.1 967.66,-30.59"/>
<polygon fill="midnightblue" stroke="midnightblue" points="954.29,-62.15 954.7,-72.73 960.98,-64.21 954.29,-62.15"/>
</g>
<!-- Node12 -->
<g id="node12" class="node">
<title>Node12</title>
<g id="a_node12"><a xlink:href="itkGrayscaleDilateImageFilter_8h.html" target="_top" xlink:title=" ">
<polygon fill="white" stroke="black" points="712.5,-6 712.5,-25 883.5,-25 883.5,-6 712.5,-6"/>
<text text-anchor="middle" x="798" y="-13" font-family="Helvetica,sans-Serif" font-size="10.00">itkGrayscaleDilateImageFilter.h</text>
</a>
</g>
</g>
<!-- Node11&#45;&gt;Node12 -->
<g id="edge11" class="edge">
<title>Node11&#45;&gt;Node12</title>
<path fill="none" stroke="midnightblue" d="M922.26,-68.95C891.77,-56.08 845.16,-36.4 818.53,-25.17"/>
<polygon fill="midnightblue" stroke="midnightblue" points="920.98,-72.2 931.55,-72.87 923.7,-65.76 920.98,-72.2"/>
</g>
<!-- Node13&#45;&gt;Node7 -->
<g id="edge15" class="edge">
<title>Node13&#45;&gt;Node7</title>
<path fill="none" stroke="midnightblue" d="M813.42,-69.63C846.31,-58.61 895.32,-42.19 930.13,-30.53"/>
<polygon fill="midnightblue" stroke="midnightblue" points="812.13,-66.37 803.76,-72.87 814.36,-73.01 812.13,-66.37"/>
</g>
<!-- Node14 -->
<g id="node14" class="node">
<title>Node14</title>
<g id="a_node14"><a xlink:href="itkGrayscaleErodeImageFilter_8h.html" target="_top" xlink:title=" ">
<polygon fill="white" stroke="black" points="524,-6 524,-25 694,-25 694,-6 524,-6"/>
<text text-anchor="middle" x="609" y="-13" font-family="Helvetica,sans-Serif" font-size="10.00">itkGrayscaleErodeImageFilter.h</text>
</a>
</g>
</g>
<!-- Node13&#45;&gt;Node14 -->
<g id="edge14" class="edge">
<title>Node13&#45;&gt;Node14</title>
<path fill="none" stroke="midnightblue" d="M746.2,-69.27C712.66,-56.37 660.68,-36.38 631.27,-25.06"/>
<polygon fill="midnightblue" stroke="midnightblue" points="744.97,-72.55 755.56,-72.87 747.48,-66.01 744.97,-72.55"/>
</g>
<!-- Node16 -->
<g id="node16" class="node">
<title>Node16</title>
<g id="a_node16"><a xlink:href="itkAnchorCloseImageFilter_8h.html" target="_top" xlink:title=" ">
<polygon fill="white" stroke="black" points="364,-73 364,-92 518,-92 518,-73 364,-73"/>
<text text-anchor="middle" x="441" y="-80" font-family="Helvetica,sans-Serif" font-size="10.00">itkAnchorCloseImageFilter.h</text>
</a>
</g>
</g>
<!-- Node15&#45;&gt;Node16 -->
<g id="edge17" class="edge">
<title>Node15&#45;&gt;Node16</title>
<path fill="none" stroke="midnightblue" d="M451.71,-129.91C448.84,-117.49 445.2,-101.72 442.99,-92.13"/>
<polygon fill="midnightblue" stroke="midnightblue" points="448.32,-130.78 453.98,-139.73 455.14,-129.2 448.32,-130.78"/>
</g>
<!-- Node18 -->
<g id="node18" class="node">
<title>Node18</title>
<g id="a_node18"><a xlink:href="itkAnchorOpenImageFilter_8h.html" target="_top" xlink:title=" ">
<polygon fill="white" stroke="black" points="0,-73 0,-92 152,-92 152,-73 0,-73"/>
<text text-anchor="middle" x="76" y="-80" font-family="Helvetica,sans-Serif" font-size="10.00">itkAnchorOpenImageFilter.h</text>
</a>
</g>
</g>
<!-- Node15&#45;&gt;Node18 -->
<g id="edge19" class="edge">
<title>Node15&#45;&gt;Node18</title>
<path fill="none" stroke="midnightblue" d="M395.75,-138.19C321.12,-125.43 195.36,-103.92 125.88,-92.03"/>
<polygon fill="midnightblue" stroke="midnightblue" points="395.48,-141.7 405.93,-139.94 396.66,-134.8 395.48,-141.7"/>
</g>
<!-- Node17 -->
<g id="node17" class="node">
<title>Node17</title>
<g id="a_node17"><a xlink:href="itkGrayscaleMorphologicalClosingImageFilter_8h.html" target="_top" xlink:title=" ">
<polygon fill="white" stroke="black" points="358.5,-0.5 358.5,-30.5 505.5,-30.5 505.5,-0.5 358.5,-0.5"/>
<text text-anchor="start" x="366.5" y="-18.5" font-family="Helvetica,sans-Serif" font-size="10.00">itkGrayscaleMorphological</text>
<text text-anchor="middle" x="432" y="-7.5" font-family="Helvetica,sans-Serif" font-size="10.00">ClosingImageFilter.h</text>
</a>
</g>
</g>
<!-- Node16&#45;&gt;Node17 -->
<g id="edge18" class="edge">
<title>Node16&#45;&gt;Node17</title>
<path fill="none" stroke="midnightblue" d="M438.4,-62.74C436.98,-52.49 435.25,-40 433.95,-30.59"/>
<polygon fill="midnightblue" stroke="midnightblue" points="434.95,-63.31 439.79,-72.73 441.88,-62.35 434.95,-63.31"/>
</g>
<!-- Node19 -->
<g id="node19" class="node">
<title>Node19</title>
<g id="a_node19"><a xlink:href="itkGrayscaleMorphologicalOpeningImageFilter_8h.html" target="_top" xlink:title=" ">
<polygon fill="white" stroke="black" points="184.5,-0.5 184.5,-30.5 331.5,-30.5 331.5,-0.5 184.5,-0.5"/>
<text text-anchor="start" x="192.5" y="-18.5" font-family="Helvetica,sans-Serif" font-size="10.00">itkGrayscaleMorphological</text>
<text text-anchor="middle" x="258" y="-7.5" font-family="Helvetica,sans-Serif" font-size="10.00">OpeningImageFilter.h</text>
</a>
</g>
</g>
<!-- Node18&#45;&gt;Node19 -->
<g id="edge20" class="edge">
<title>Node18&#45;&gt;Node19</title>
<path fill="none" stroke="midnightblue" d="M109.63,-69.49C140.48,-58.47 186.2,-42.14 218.72,-30.53"/>
<polygon fill="midnightblue" stroke="midnightblue" points="108.41,-66.21 100.17,-72.87 110.76,-72.8 108.41,-66.21"/>
</g>
<!-- Node20&#45;&gt;Node12 -->
<g id="edge22" class="edge">
<title>Node20&#45;&gt;Node12</title>
<path fill="none" stroke="midnightblue" d="M659.57,-64.11C696.34,-51.46 744.52,-34.89 773.26,-25.01"/>
<polygon fill="midnightblue" stroke="midnightblue" points="658.33,-60.83 650.01,-67.4 660.6,-67.45 658.33,-60.83"/>
</g>
<!-- Node20&#45;&gt;Node17 -->
<g id="edge23" class="edge">
<title>Node20&#45;&gt;Node17</title>
<path fill="none" stroke="midnightblue" d="M560.85,-63.82C532.4,-53.37 496.87,-40.32 470.33,-30.58"/>
<polygon fill="midnightblue" stroke="midnightblue" points="560,-67.23 570.59,-67.4 562.41,-60.66 560,-67.23"/>
</g>
<!-- Node20&#45;&gt;Node19 -->
<g id="edge24" class="edge">
<title>Node20&#45;&gt;Node19</title>
<path fill="none" stroke="midnightblue" d="M525.81,-66.09C466.83,-55.17 388.39,-40.65 331.66,-30.14"/>
<polygon fill="midnightblue" stroke="midnightblue" points="525.38,-69.57 535.85,-67.95 526.65,-62.69 525.38,-69.57"/>
</g>
<!-- Node21&#45;&gt;Node14 -->
<g id="edge26" class="edge">
<title>Node21&#45;&gt;Node14</title>
<path fill="none" stroke="midnightblue" d="M343.74,-65.62C412.85,-52.82 507.39,-35.32 562.95,-25.03"/>
<polygon fill="midnightblue" stroke="midnightblue" points="342.93,-62.21 333.73,-67.48 344.2,-69.1 342.93,-62.21"/>
</g>
<!-- Node21&#45;&gt;Node17 -->
<g id="edge27" class="edge">
<title>Node21&#45;&gt;Node17</title>
<path fill="none" stroke="midnightblue" d="M305.33,-63.82C333.3,-53.37 368.23,-40.32 394.32,-30.58"/>
<polygon fill="midnightblue" stroke="midnightblue" points="303.9,-60.62 295.76,-67.4 306.35,-67.18 303.9,-60.62"/>
</g>
<!-- Node21&#45;&gt;Node19 -->
<g id="edge28" class="edge">
<title>Node21&#45;&gt;Node19</title>
<path fill="none" stroke="midnightblue" d="M258,-57.11C258,-48.15 258,-38.32 258,-30.58"/>
<polygon fill="midnightblue" stroke="midnightblue" points="254.5,-57.4 258,-67.4 261.5,-57.4 254.5,-57.4"/>
</g>
<!-- Node23 -->
<g id="node23" class="node">
<title>Node23</title>
<g id="a_node23"><a xlink:href="itkFastApproximateRankImageFilter_8h.html" target="_top" xlink:title=" ">
<polygon fill="white" stroke="black" points="143.5,-201.5 143.5,-231.5 310.5,-231.5 310.5,-201.5 143.5,-201.5"/>
<text text-anchor="start" x="151.5" y="-219.5" font-family="Helvetica,sans-Serif" font-size="10.00">itkFastApproximateRankImage</text>
<text text-anchor="middle" x="227" y="-208.5" font-family="Helvetica,sans-Serif" font-size="10.00">Filter.h</text>
</a>
</g>
</g>
<!-- Node22&#45;&gt;Node23 -->
<g id="edge30" class="edge">
<title>Node22&#45;&gt;Node23</title>
<path fill="none" stroke="midnightblue" d="M232.69,-263.74C231.43,-253.49 229.89,-241 228.73,-231.59"/>
<polygon fill="midnightblue" stroke="midnightblue" points="229.23,-264.24 233.92,-273.73 236.17,-263.38 229.23,-264.24"/>
</g>
</g>
</svg>
