<?xml version="1.0" encoding="UTF-8" standalone="no"?>
<!DOCTYPE svg PUBLIC "-//W3C//DTD SVG 1.1//EN"
 "http://www.w3.org/Graphics/SVG/1.1/DTD/svg11.dtd">
<!-- Generated by graphviz version 2.43.0 (0)
 -->
<!-- Title: itkNormalVariateGenerator.h Pages: 1 -->
<svg width="846pt" height="599pt"
 viewBox="0.00 0.00 846.00 599.00" xmlns="http://www.w3.org/2000/svg" xmlns:xlink="http://www.w3.org/1999/xlink">
<g id="graph0" class="graph" transform="scale(1 1) rotate(0) translate(4 595)">
<title>itkNormalVariateGenerator.h</title>
<polygon fill="white" stroke="transparent" points="-4,4 -4,-595 842,-595 842,4 -4,4"/>
<!-- Node1 -->
<g id="node1" class="node">
<title>Node1</title>
<g id="a_node1"><a xlink:title=" ">
<polygon fill="#bfbfbf" stroke="black" points="298.5,-571.5 298.5,-590.5 455.5,-590.5 455.5,-571.5 298.5,-571.5"/>
<text text-anchor="middle" x="377" y="-578.5" font-family="Helvetica,sans-Serif" font-size="10.00">itkNormalVariateGenerator.h</text>
</a>
</g>
</g>
<!-- Node2 -->
<g id="node2" class="node">
<title>Node2</title>
<g id="a_node2"><a xlink:href="itkObjectFactory_8h.html" target="_top" xlink:title=" ">
<polygon fill="white" stroke="black" points="325,-515.5 325,-534.5 429,-534.5 429,-515.5 325,-515.5"/>
<text text-anchor="middle" x="377" y="-522.5" font-family="Helvetica,sans-Serif" font-size="10.00">itkObjectFactory.h</text>
</a>
</g>
</g>
<!-- Node1&#45;&gt;Node2 -->
<g id="edge1" class="edge">
<title>Node1&#45;&gt;Node2</title>
<path fill="none" stroke="midnightblue" d="M377,-571.08C377,-564.01 377,-553.86 377,-544.99"/>
<polygon fill="midnightblue" stroke="midnightblue" points="380.5,-544.75 377,-534.75 373.5,-544.75 380.5,-544.75"/>
</g>
<!-- Node33 -->
<g id="node33" class="node">
<title>Node33</title>
<g id="a_node33"><a xlink:href="itkRandomVariateGeneratorBase_8h.html" target="_top" xlink:title=" ">
<polygon fill="white" stroke="black" points="161.5,-448.5 161.5,-478.5 314.5,-478.5 314.5,-448.5 161.5,-448.5"/>
<text text-anchor="start" x="169.5" y="-466.5" font-family="Helvetica,sans-Serif" font-size="10.00">itkRandomVariateGenerator</text>
<text text-anchor="middle" x="238" y="-455.5" font-family="Helvetica,sans-Serif" font-size="10.00">Base.h</text>
</a>
</g>
</g>
<!-- Node1&#45;&gt;Node33 -->
<g id="edge49" class="edge">
<title>Node1&#45;&gt;Node33</title>
<path fill="none" stroke="midnightblue" d="M364.58,-571.38C352.06,-562.57 332.3,-548.33 316,-535 296.62,-519.16 275.63,-500.07 260.31,-485.75"/>
<polygon fill="midnightblue" stroke="midnightblue" points="262.53,-483.04 252.85,-478.74 257.74,-488.14 262.53,-483.04"/>
</g>
<!-- Node34 -->
<g id="node34" class="node">
<title>Node34</title>
<g id="a_node34"><a xlink:title=" ">
<polygon fill="white" stroke="#bfbfbf" points="447,-515.5 447,-534.5 565,-534.5 565,-515.5 447,-515.5"/>
<text text-anchor="middle" x="506" y="-522.5" font-family="Helvetica,sans-Serif" font-size="10.00">ITKStatisticsExport.h</text>
</a>
</g>
</g>
<!-- Node1&#45;&gt;Node34 -->
<g id="edge51" class="edge">
<title>Node1&#45;&gt;Node34</title>
<path fill="none" stroke="midnightblue" d="M397.44,-571.44C418.67,-562.56 452.1,-548.56 476.25,-538.45"/>
<polygon fill="midnightblue" stroke="midnightblue" points="477.78,-541.61 485.66,-534.52 475.08,-535.15 477.78,-541.61"/>
</g>
<!-- Node3 -->
<g id="node3" class="node">
<title>Node3</title>
<g id="a_node3"><a xlink:href="itkObjectFactoryBase_8h.html" target="_top" xlink:title=" ">
<polygon fill="white" stroke="black" points="429.5,-454 429.5,-473 558.5,-473 558.5,-454 429.5,-454"/>
<text text-anchor="middle" x="494" y="-461" font-family="Helvetica,sans-Serif" font-size="10.00">itkObjectFactoryBase.h</text>
</a>
</g>
</g>
<!-- Node2&#45;&gt;Node3 -->
<g id="edge2" class="edge">
<title>Node2&#45;&gt;Node3</title>
<path fill="none" stroke="midnightblue" d="M393.76,-515.48C413.22,-505.58 445.55,-489.14 468.21,-477.62"/>
<polygon fill="midnightblue" stroke="midnightblue" points="469.94,-480.66 477.27,-473.01 466.77,-474.42 469.94,-480.66"/>
</g>
<!-- Node4 -->
<g id="node4" class="node">
<title>Node4</title>
<g id="a_node4"><a xlink:href="itkCreateObjectFunction_8h.html" target="_top" xlink:title=" ">
<polygon fill="white" stroke="black" points="422.5,-392.5 422.5,-411.5 565.5,-411.5 565.5,-392.5 422.5,-392.5"/>
<text text-anchor="middle" x="494" y="-399.5" font-family="Helvetica,sans-Serif" font-size="10.00">itkCreateObjectFunction.h</text>
</a>
</g>
</g>
<!-- Node3&#45;&gt;Node4 -->
<g id="edge3" class="edge">
<title>Node3&#45;&gt;Node4</title>
<path fill="none" stroke="midnightblue" d="M494,-453.98C494,-445.58 494,-432.48 494,-421.66"/>
<polygon fill="midnightblue" stroke="midnightblue" points="497.5,-421.51 494,-411.51 490.5,-421.51 497.5,-421.51"/>
</g>
<!-- Node18 -->
<g id="node18" class="node">
<title>Node18</title>
<g id="a_node18"><a xlink:href="itkSingletonMacro_8h.html" target="_top" xlink:title=" ">
<polygon fill="white" stroke="black" points="607,-56.5 607,-75.5 721,-75.5 721,-56.5 607,-56.5"/>
<text text-anchor="middle" x="664" y="-63.5" font-family="Helvetica,sans-Serif" font-size="10.00">itkSingletonMacro.h</text>
</a>
</g>
</g>
<!-- Node3&#45;&gt;Node18 -->
<g id="edge42" class="edge">
<title>Node3&#45;&gt;Node18</title>
<path fill="none" stroke="midnightblue" d="M534.52,-453.96C585.09,-440.65 665,-409.69 665,-347 665,-347 665,-347 665,-177 665,-144.95 664.57,-107.64 664.27,-85.75"/>
<polygon fill="midnightblue" stroke="midnightblue" points="667.77,-85.51 664.13,-75.56 660.77,-85.61 667.77,-85.51"/>
</g>
<!-- Node25 -->
<g id="node25" class="node">
<title>Node25</title>
<g id="a_node25"><a xlink:title=" ">
<polygon fill="white" stroke="#bfbfbf" points="77.5,-224.5 77.5,-243.5 124.5,-243.5 124.5,-224.5 77.5,-224.5"/>
<text text-anchor="middle" x="101" y="-231.5" font-family="Helvetica,sans-Serif" font-size="10.00">vector</text>
</a>
</g>
</g>
<!-- Node3&#45;&gt;Node25 -->
<g id="edge48" class="edge">
<title>Node3&#45;&gt;Node25</title>
<path fill="none" stroke="midnightblue" d="M466.63,-453.97C439.57,-445.07 397.36,-429.93 363,-412 266.23,-361.49 161.71,-282.65 119.87,-249.97"/>
<polygon fill="midnightblue" stroke="midnightblue" points="121.95,-247.15 111.92,-243.72 117.62,-252.65 121.95,-247.15"/>
</g>
<!-- Node28 -->
<g id="node28" class="node">
<title>Node28</title>
<g id="a_node28"><a xlink:title=" ">
<polygon fill="white" stroke="#bfbfbf" points="541,-224.5 541,-243.5 599,-243.5 599,-224.5 541,-224.5"/>
<text text-anchor="middle" x="570" y="-231.5" font-family="Helvetica,sans-Serif" font-size="10.00">memory</text>
</a>
</g>
</g>
<!-- Node3&#45;&gt;Node28 -->
<g id="edge47" class="edge">
<title>Node3&#45;&gt;Node28</title>
<path fill="none" stroke="midnightblue" d="M520.3,-453.94C539.24,-446.24 563.42,-432.87 575,-412 603.41,-360.8 586.78,-287.81 576.4,-253.79"/>
<polygon fill="midnightblue" stroke="midnightblue" points="579.59,-252.28 573.2,-243.84 572.93,-254.43 579.59,-252.28"/>
</g>
<!-- Node30 -->
<g id="node30" class="node">
<title>Node30</title>
<g id="a_node30"><a xlink:href="itkCommonEnums_8h.html" target="_top" xlink:title=" ">
<polygon fill="white" stroke="black" points="693,-392.5 693,-411.5 809,-411.5 809,-392.5 693,-392.5"/>
<text text-anchor="middle" x="751" y="-399.5" font-family="Helvetica,sans-Serif" font-size="10.00">itkCommonEnums.h</text>
</a>
</g>
</g>
<!-- Node3&#45;&gt;Node30 -->
<g id="edge43" class="edge">
<title>Node3&#45;&gt;Node30</title>
<path fill="none" stroke="midnightblue" d="M530.82,-453.98C576.53,-443.39 654.53,-425.34 704.37,-413.8"/>
<polygon fill="midnightblue" stroke="midnightblue" points="705.29,-417.17 714.25,-411.51 703.71,-410.35 705.29,-417.17"/>
</g>
<!-- Node32 -->
<g id="node32" class="node">
<title>Node32</title>
<g id="a_node32"><a xlink:title=" ">
<polygon fill="white" stroke="#bfbfbf" points="372,-392.5 372,-411.5 404,-411.5 404,-392.5 372,-392.5"/>
<text text-anchor="middle" x="388" y="-399.5" font-family="Helvetica,sans-Serif" font-size="10.00">list</text>
</a>
</g>
</g>
<!-- Node3&#45;&gt;Node32 -->
<g id="edge46" class="edge">
<title>Node3&#45;&gt;Node32</title>
<path fill="none" stroke="midnightblue" d="M478.81,-453.98C461.34,-444.17 432.42,-427.93 411.92,-416.42"/>
<polygon fill="midnightblue" stroke="midnightblue" points="413.59,-413.35 403.16,-411.51 410.17,-419.46 413.59,-413.35"/>
</g>
<!-- Node5 -->
<g id="node5" class="node">
<title>Node5</title>
<g id="a_node5"><a xlink:href="itkObject_8h.html" target="_top" xlink:title=" ">
<polygon fill="white" stroke="black" points="404,-336.5 404,-355.5 474,-355.5 474,-336.5 404,-336.5"/>
<text text-anchor="middle" x="439" y="-343.5" font-family="Helvetica,sans-Serif" font-size="10.00">itkObject.h</text>
</a>
</g>
</g>
<!-- Node4&#45;&gt;Node5 -->
<g id="edge4" class="edge">
<title>Node4&#45;&gt;Node5</title>
<path fill="none" stroke="midnightblue" d="M484.92,-392.08C476.83,-384.14 464.8,-372.34 455.09,-362.8"/>
<polygon fill="midnightblue" stroke="midnightblue" points="457.5,-360.26 447.91,-355.75 452.6,-365.25 457.5,-360.26"/>
</g>
<!-- Node6 -->
<g id="node6" class="node">
<title>Node6</title>
<g id="a_node6"><a xlink:href="itkLightObject_8h.html" target="_top" xlink:title=" ">
<polygon fill="white" stroke="black" points="262,-168.5 262,-187.5 356,-187.5 356,-168.5 262,-168.5"/>
<text text-anchor="middle" x="309" y="-175.5" font-family="Helvetica,sans-Serif" font-size="10.00">itkLightObject.h</text>
</a>
</g>
</g>
<!-- Node5&#45;&gt;Node6 -->
<g id="edge5" class="edge">
<title>Node5&#45;&gt;Node6</title>
<path fill="none" stroke="midnightblue" d="M450.99,-336.44C461.44,-328.3 476.13,-315.08 484,-300 499.76,-269.8 515.05,-250.79 494,-224 478.27,-203.98 414.48,-191.76 366.17,-185.2"/>
<polygon fill="midnightblue" stroke="midnightblue" points="366.49,-181.71 356.12,-183.89 365.58,-188.66 366.49,-181.71"/>
</g>
<!-- Node5&#45;&gt;Node18 -->
<g id="edge39" class="edge">
<title>Node5&#45;&gt;Node18</title>
<path fill="none" stroke="midnightblue" d="M467.99,-336.43C491.04,-328.86 523.53,-316.47 549,-300 579.36,-280.37 588.83,-274.65 608,-244 612.35,-237.04 645.25,-129.05 658.49,-85.25"/>
<polygon fill="midnightblue" stroke="midnightblue" points="661.87,-86.18 661.41,-75.6 655.17,-84.16 661.87,-86.18"/>
</g>
<!-- Node21 -->
<g id="node21" class="node">
<title>Node21</title>
<g id="a_node21"><a xlink:href="itkEventObject_8h.html" target="_top" xlink:title=" ">
<polygon fill="white" stroke="black" points="0,-168.5 0,-187.5 98,-187.5 98,-168.5 0,-168.5"/>
<text text-anchor="middle" x="49" y="-175.5" font-family="Helvetica,sans-Serif" font-size="10.00">itkEventObject.h</text>
</a>
</g>
</g>
<!-- Node5&#45;&gt;Node21 -->
<g id="edge26" class="edge">
<title>Node5&#45;&gt;Node21</title>
<path fill="none" stroke="midnightblue" d="M403.98,-340.02C320.93,-327.53 115.46,-292.36 68,-244 56.04,-231.82 51.54,-212.55 49.88,-198.15"/>
<polygon fill="midnightblue" stroke="midnightblue" points="53.34,-197.56 49.07,-187.87 46.36,-198.11 53.34,-197.56"/>
</g>
<!-- Node22 -->
<g id="node22" class="node">
<title>Node22</title>
<g id="a_node22"><a xlink:href="itkMetaDataDictionary_8h.html" target="_top" xlink:title=" ">
<polygon fill="white" stroke="black" points="339.5,-280.5 339.5,-299.5 474.5,-299.5 474.5,-280.5 339.5,-280.5"/>
<text text-anchor="middle" x="407" y="-287.5" font-family="Helvetica,sans-Serif" font-size="10.00">itkMetaDataDictionary.h</text>
</a>
</g>
</g>
<!-- Node5&#45;&gt;Node22 -->
<g id="edge29" class="edge">
<title>Node5&#45;&gt;Node22</title>
<path fill="none" stroke="midnightblue" d="M433.72,-336.08C429.29,-328.61 422.84,-317.72 417.38,-308.52"/>
<polygon fill="midnightblue" stroke="midnightblue" points="420.29,-306.57 412.19,-299.75 414.27,-310.14 420.29,-306.57"/>
</g>
<!-- Node5&#45;&gt;Node28 -->
<g id="edge41" class="edge">
<title>Node5&#45;&gt;Node28</title>
<path fill="none" stroke="midnightblue" d="M463.44,-336.46C482.33,-328.99 508.32,-316.7 527,-300 541.93,-286.65 553.98,-267 561.48,-252.8"/>
<polygon fill="midnightblue" stroke="midnightblue" points="564.74,-254.1 566.11,-243.59 558.49,-250.95 564.74,-254.1"/>
</g>
<!-- Node29 -->
<g id="node29" class="node">
<title>Node29</title>
<g id="a_node29"><a xlink:title=" ">
<polygon fill="white" stroke="#bfbfbf" points="256.5,-280.5 256.5,-299.5 321.5,-299.5 321.5,-280.5 256.5,-280.5"/>
<text text-anchor="middle" x="289" y="-287.5" font-family="Helvetica,sans-Serif" font-size="10.00">functional</text>
</a>
</g>
</g>
<!-- Node5&#45;&gt;Node29 -->
<g id="edge40" class="edge">
<title>Node5&#45;&gt;Node29</title>
<path fill="none" stroke="midnightblue" d="M415.23,-336.44C390.11,-327.4 350.29,-313.06 322.1,-302.92"/>
<polygon fill="midnightblue" stroke="midnightblue" points="323.25,-299.61 312.66,-299.52 320.88,-306.2 323.25,-299.61"/>
</g>
<!-- Node7 -->
<g id="node7" class="node">
<title>Node7</title>
<g id="a_node7"><a xlink:href="itkMacro_8h.html" target="_top" xlink:title=" ">
<polygon fill="white" stroke="black" points="185,-0.5 185,-19.5 253,-19.5 253,-0.5 185,-0.5"/>
<text text-anchor="middle" x="219" y="-7.5" font-family="Helvetica,sans-Serif" font-size="10.00">itkMacro.h</text>
</a>
</g>
</g>
<!-- Node6&#45;&gt;Node7 -->
<g id="edge6" class="edge">
<title>Node6&#45;&gt;Node7</title>
<path fill="none" stroke="midnightblue" d="M305.78,-168.47C300.64,-155.53 289.78,-130.46 276,-112 262.09,-93.35 250.13,-95.85 238,-76 229.29,-61.73 224.39,-43.26 221.76,-29.66"/>
<polygon fill="midnightblue" stroke="midnightblue" points="225.17,-28.85 220.05,-19.58 218.27,-30.02 225.17,-28.85"/>
</g>
<!-- Node8 -->
<g id="node8" class="node">
<title>Node8</title>
<g id="a_node8"><a xlink:href="itkSmartPointer_8h.html" target="_top" xlink:title=" ">
<polygon fill="white" stroke="black" points="337.5,-112.5 337.5,-131.5 438.5,-131.5 438.5,-112.5 337.5,-112.5"/>
<text text-anchor="middle" x="388" y="-119.5" font-family="Helvetica,sans-Serif" font-size="10.00">itkSmartPointer.h</text>
</a>
</g>
</g>
<!-- Node6&#45;&gt;Node8 -->
<g id="edge7" class="edge">
<title>Node6&#45;&gt;Node8</title>
<path fill="none" stroke="midnightblue" d="M321.69,-168.32C333.9,-159.98 352.58,-147.21 367,-137.35"/>
<polygon fill="midnightblue" stroke="midnightblue" points="369.06,-140.19 375.34,-131.65 365.11,-134.41 369.06,-140.19"/>
</g>
<!-- Node9 -->
<g id="node9" class="node">
<title>Node9</title>
<g id="a_node9"><a xlink:title=" ">
<polygon fill="white" stroke="#bfbfbf" points="129,-56.5 129,-75.5 189,-75.5 189,-56.5 129,-56.5"/>
<text text-anchor="middle" x="159" y="-63.5" font-family="Helvetica,sans-Serif" font-size="10.00">iostream</text>
</a>
</g>
</g>
<!-- Node6&#45;&gt;Node9 -->
<g id="edge24" class="edge">
<title>Node6&#45;&gt;Node9</title>
<path fill="none" stroke="midnightblue" d="M303.08,-168.46C293.44,-155.03 273.18,-128.81 251,-112 233.1,-98.43 210.47,-87.3 192.13,-79.5"/>
<polygon fill="midnightblue" stroke="midnightblue" points="193.3,-76.2 182.72,-75.63 190.63,-82.67 193.3,-76.2"/>
</g>
<!-- Node13 -->
<g id="node13" class="node">
<title>Node13</title>
<g id="a_node13"><a xlink:href="itkTimeStamp_8h.html" target="_top" xlink:title=" ">
<polygon fill="white" stroke="black" points="503.5,-112.5 503.5,-131.5 598.5,-131.5 598.5,-112.5 503.5,-112.5"/>
<text text-anchor="middle" x="551" y="-119.5" font-family="Helvetica,sans-Serif" font-size="10.00">itkTimeStamp.h</text>
</a>
</g>
</g>
<!-- Node6&#45;&gt;Node13 -->
<g id="edge12" class="edge">
<title>Node6&#45;&gt;Node13</title>
<path fill="none" stroke="midnightblue" d="M347.35,-168.44C389.47,-159.04 457.21,-143.93 502.87,-133.74"/>
<polygon fill="midnightblue" stroke="midnightblue" points="503.84,-137.11 512.83,-131.52 502.31,-130.28 503.84,-137.11"/>
</g>
<!-- Node17 -->
<g id="node17" class="node">
<title>Node17</title>
<g id="a_node17"><a xlink:title=" ">
<polygon fill="white" stroke="#bfbfbf" points="501,-56.5 501,-75.5 551,-75.5 551,-56.5 501,-56.5"/>
<text text-anchor="middle" x="526" y="-63.5" font-family="Helvetica,sans-Serif" font-size="10.00">atomic</text>
</a>
</g>
</g>
<!-- Node6&#45;&gt;Node17 -->
<g id="edge23" class="edge">
<title>Node6&#45;&gt;Node17</title>
<path fill="none" stroke="midnightblue" d="M348.68,-168.45C377.42,-161.25 416.57,-149.33 448,-132 471.96,-118.79 495.55,-97.69 510.4,-83.14"/>
<polygon fill="midnightblue" stroke="midnightblue" points="513.12,-85.37 517.7,-75.82 508.16,-80.43 513.12,-85.37"/>
</g>
<!-- Node19 -->
<g id="node19" class="node">
<title>Node19</title>
<g id="a_node19"><a xlink:href="itkIndent_8h.html" target="_top" xlink:title=" ">
<polygon fill="white" stroke="black" points="59.5,-112.5 59.5,-131.5 128.5,-131.5 128.5,-112.5 59.5,-112.5"/>
<text text-anchor="middle" x="94" y="-119.5" font-family="Helvetica,sans-Serif" font-size="10.00">itkIndent.h</text>
</a>
</g>
</g>
<!-- Node6&#45;&gt;Node19 -->
<g id="edge20" class="edge">
<title>Node6&#45;&gt;Node19</title>
<path fill="none" stroke="midnightblue" d="M274.93,-168.44C237.82,-159.12 178.34,-144.18 137.79,-134"/>
<polygon fill="midnightblue" stroke="midnightblue" points="138.46,-130.56 127.91,-131.52 136.75,-137.35 138.46,-130.56"/>
</g>
<!-- Node20 -->
<g id="node20" class="node">
<title>Node20</title>
<g id="a_node20"><a xlink:title=" ">
<polygon fill="white" stroke="#bfbfbf" points="185.5,-112.5 185.5,-131.5 242.5,-131.5 242.5,-112.5 185.5,-112.5"/>
<text text-anchor="middle" x="214" y="-119.5" font-family="Helvetica,sans-Serif" font-size="10.00">typeinfo</text>
</a>
</g>
</g>
<!-- Node6&#45;&gt;Node20 -->
<g id="edge25" class="edge">
<title>Node6&#45;&gt;Node20</title>
<path fill="none" stroke="midnightblue" d="M293.74,-168.32C278.78,-159.82 255.75,-146.73 238.27,-136.8"/>
<polygon fill="midnightblue" stroke="midnightblue" points="239.65,-133.55 229.23,-131.65 236.19,-139.64 239.65,-133.55"/>
</g>
<!-- Node8&#45;&gt;Node9 -->
<g id="edge8" class="edge">
<title>Node8&#45;&gt;Node9</title>
<path fill="none" stroke="midnightblue" d="M351.71,-112.44C310.15,-102.64 242.24,-86.63 199.13,-76.46"/>
<polygon fill="midnightblue" stroke="midnightblue" points="199.8,-73.03 189.27,-74.14 198.2,-79.84 199.8,-73.03"/>
</g>
<!-- Node10 -->
<g id="node10" class="node">
<title>Node10</title>
<g id="a_node10"><a xlink:title=" ">
<polygon fill="white" stroke="#bfbfbf" points="334.5,-56.5 334.5,-75.5 379.5,-75.5 379.5,-56.5 334.5,-56.5"/>
<text text-anchor="middle" x="357" y="-63.5" font-family="Helvetica,sans-Serif" font-size="10.00">utility</text>
</a>
</g>
</g>
<!-- Node8&#45;&gt;Node10 -->
<g id="edge9" class="edge">
<title>Node8&#45;&gt;Node10</title>
<path fill="none" stroke="midnightblue" d="M382.88,-112.08C378.59,-104.61 372.34,-93.72 367.06,-84.52"/>
<polygon fill="midnightblue" stroke="midnightblue" points="370.04,-82.68 362.02,-75.75 363.97,-86.17 370.04,-82.68"/>
</g>
<!-- Node11 -->
<g id="node11" class="node">
<title>Node11</title>
<g id="a_node11"><a xlink:title=" ">
<polygon fill="white" stroke="#bfbfbf" points="247.5,-56.5 247.5,-75.5 316.5,-75.5 316.5,-56.5 247.5,-56.5"/>
<text text-anchor="middle" x="282" y="-63.5" font-family="Helvetica,sans-Serif" font-size="10.00">type_traits</text>
</a>
</g>
</g>
<!-- Node8&#45;&gt;Node11 -->
<g id="edge10" class="edge">
<title>Node8&#45;&gt;Node11</title>
<path fill="none" stroke="midnightblue" d="M370.97,-112.32C353.97,-103.66 327.62,-90.24 308.01,-80.25"/>
<polygon fill="midnightblue" stroke="midnightblue" points="309.49,-77.08 298.99,-75.65 306.31,-83.31 309.49,-77.08"/>
</g>
<!-- Node12 -->
<g id="node12" class="node">
<title>Node12</title>
<g id="a_node12"><a xlink:title=" ">
<polygon fill="white" stroke="#bfbfbf" points="397.5,-56.5 397.5,-75.5 482.5,-75.5 482.5,-56.5 397.5,-56.5"/>
<text text-anchor="middle" x="440" y="-63.5" font-family="Helvetica,sans-Serif" font-size="10.00">itkConfigure.h</text>
</a>
</g>
</g>
<!-- Node8&#45;&gt;Node12 -->
<g id="edge11" class="edge">
<title>Node8&#45;&gt;Node12</title>
<path fill="none" stroke="midnightblue" d="M396.59,-112.08C404.16,-104.22 415.38,-92.57 424.51,-83.08"/>
<polygon fill="midnightblue" stroke="midnightblue" points="427.16,-85.38 431.57,-75.75 422.12,-80.53 427.16,-85.38"/>
</g>
<!-- Node13&#45;&gt;Node7 -->
<g id="edge13" class="edge">
<title>Node13&#45;&gt;Node7</title>
<path fill="none" stroke="midnightblue" d="M556.01,-112.21C563.12,-98.45 573.82,-71.76 560,-56 540.71,-33.99 351.01,-19.3 263.19,-13.63"/>
<polygon fill="midnightblue" stroke="midnightblue" points="263.21,-10.12 253.01,-12.98 262.77,-17.11 263.21,-10.12"/>
</g>
<!-- Node14 -->
<g id="node14" class="node">
<title>Node14</title>
<g id="a_node14"><a xlink:href="itkIntTypes_8h.html" target="_top" xlink:title=" ">
<polygon fill="white" stroke="black" points="739.5,-56.5 739.5,-75.5 818.5,-75.5 818.5,-56.5 739.5,-56.5"/>
<text text-anchor="middle" x="779" y="-63.5" font-family="Helvetica,sans-Serif" font-size="10.00">itkIntTypes.h</text>
</a>
</g>
</g>
<!-- Node13&#45;&gt;Node14 -->
<g id="edge14" class="edge">
<title>Node13&#45;&gt;Node14</title>
<path fill="none" stroke="midnightblue" d="M587.13,-112.44C626.65,-103.08 690.1,-88.06 733.11,-77.87"/>
<polygon fill="midnightblue" stroke="midnightblue" points="734.12,-81.23 743.04,-75.52 732.5,-74.42 734.12,-81.23"/>
</g>
<!-- Node13&#45;&gt;Node17 -->
<g id="edge18" class="edge">
<title>Node13&#45;&gt;Node17</title>
<path fill="none" stroke="midnightblue" d="M546.87,-112.08C543.49,-104.77 538.58,-94.18 534.38,-85.1"/>
<polygon fill="midnightblue" stroke="midnightblue" points="537.43,-83.36 530.05,-75.75 531.08,-86.3 537.43,-83.36"/>
</g>
<!-- Node13&#45;&gt;Node18 -->
<g id="edge19" class="edge">
<title>Node13&#45;&gt;Node18</title>
<path fill="none" stroke="midnightblue" d="M568.91,-112.44C587.25,-103.68 616.01,-89.94 637.09,-79.86"/>
<polygon fill="midnightblue" stroke="midnightblue" points="638.67,-82.99 646.18,-75.52 635.65,-76.67 638.67,-82.99"/>
</g>
<!-- Node14&#45;&gt;Node7 -->
<g id="edge15" class="edge">
<title>Node14&#45;&gt;Node7</title>
<path fill="none" stroke="midnightblue" d="M739.47,-57.41C736.27,-56.9 733.09,-56.42 730,-56 558.27,-32.72 352.37,-18.83 263.46,-13.51"/>
<polygon fill="midnightblue" stroke="midnightblue" points="263.4,-10 253.21,-12.9 262.99,-16.99 263.4,-10"/>
</g>
<!-- Node15 -->
<g id="node15" class="node">
<title>Node15</title>
<g id="a_node15"><a xlink:title=" ">
<polygon fill="white" stroke="#bfbfbf" points="720,-0.5 720,-19.5 770,-19.5 770,-0.5 720,-0.5"/>
<text text-anchor="middle" x="745" y="-7.5" font-family="Helvetica,sans-Serif" font-size="10.00">cstdint</text>
</a>
</g>
</g>
<!-- Node14&#45;&gt;Node15 -->
<g id="edge16" class="edge">
<title>Node14&#45;&gt;Node15</title>
<path fill="none" stroke="midnightblue" d="M773.39,-56.08C768.63,-48.53 761.68,-37.49 755.85,-28.23"/>
<polygon fill="midnightblue" stroke="midnightblue" points="758.8,-26.35 750.51,-19.75 752.88,-30.08 758.8,-26.35"/>
</g>
<!-- Node16 -->
<g id="node16" class="node">
<title>Node16</title>
<g id="a_node16"><a xlink:title=" ">
<polygon fill="white" stroke="#bfbfbf" points="788,-0.5 788,-19.5 838,-19.5 838,-0.5 788,-0.5"/>
<text text-anchor="middle" x="813" y="-7.5" font-family="Helvetica,sans-Serif" font-size="10.00">climits</text>
</a>
</g>
</g>
<!-- Node14&#45;&gt;Node16 -->
<g id="edge17" class="edge">
<title>Node14&#45;&gt;Node16</title>
<path fill="none" stroke="midnightblue" d="M784.61,-56.08C789.37,-48.53 796.32,-37.49 802.15,-28.23"/>
<polygon fill="midnightblue" stroke="midnightblue" points="805.12,-30.08 807.49,-19.75 799.2,-26.35 805.12,-30.08"/>
</g>
<!-- Node19&#45;&gt;Node7 -->
<g id="edge21" class="edge">
<title>Node19&#45;&gt;Node7</title>
<path fill="none" stroke="midnightblue" d="M95.35,-112.31C97.88,-98.68 104.56,-72.17 120,-56 134.88,-40.42 156.16,-29.79 175.19,-22.79"/>
<polygon fill="midnightblue" stroke="midnightblue" points="176.56,-26.02 184.88,-19.45 174.29,-19.4 176.56,-26.02"/>
</g>
<!-- Node19&#45;&gt;Node9 -->
<g id="edge22" class="edge">
<title>Node19&#45;&gt;Node9</title>
<path fill="none" stroke="midnightblue" d="M104.44,-112.32C114.15,-104.26 128.82,-92.08 140.5,-82.37"/>
<polygon fill="midnightblue" stroke="midnightblue" points="142.91,-84.92 148.37,-75.83 138.44,-79.53 142.91,-84.92"/>
</g>
<!-- Node21&#45;&gt;Node7 -->
<g id="edge27" class="edge">
<title>Node21&#45;&gt;Node7</title>
<path fill="none" stroke="midnightblue" d="M47.16,-168.18C44.91,-155.29 42.25,-130.78 50,-112 63.19,-80.04 75.24,-75.19 104,-56 126.29,-41.13 154.24,-30.05 176.99,-22.61"/>
<polygon fill="midnightblue" stroke="midnightblue" points="178.24,-25.89 186.72,-19.54 176.13,-19.21 178.24,-25.89"/>
</g>
<!-- Node21&#45;&gt;Node19 -->
<g id="edge28" class="edge">
<title>Node21&#45;&gt;Node19</title>
<path fill="none" stroke="midnightblue" d="M56.43,-168.08C62.85,-160.38 72.31,-149.03 80.12,-139.65"/>
<polygon fill="midnightblue" stroke="midnightblue" points="82.99,-141.67 86.71,-131.75 77.62,-137.19 82.99,-141.67"/>
</g>
<!-- Node23 -->
<g id="node23" class="node">
<title>Node23</title>
<g id="a_node23"><a xlink:href="itkMetaDataObjectBase_8h.html" target="_top" xlink:title=" ">
<polygon fill="white" stroke="black" points="143,-224.5 143,-243.5 285,-243.5 285,-224.5 143,-224.5"/>
<text text-anchor="middle" x="214" y="-231.5" font-family="Helvetica,sans-Serif" font-size="10.00">itkMetaDataObjectBase.h</text>
</a>
</g>
</g>
<!-- Node22&#45;&gt;Node23 -->
<g id="edge30" class="edge">
<title>Node22&#45;&gt;Node23</title>
<path fill="none" stroke="midnightblue" d="M376.42,-280.44C343.39,-271.2 290.61,-256.44 254.23,-246.26"/>
<polygon fill="midnightblue" stroke="midnightblue" points="255.01,-242.84 244.44,-243.52 253.13,-249.58 255.01,-242.84"/>
</g>
<!-- Node24 -->
<g id="node24" class="node">
<title>Node24</title>
<g id="a_node24"><a xlink:title=" ">
<polygon fill="white" stroke="#bfbfbf" points="365,-224.5 365,-243.5 429,-243.5 429,-224.5 365,-224.5"/>
<text text-anchor="middle" x="397" y="-231.5" font-family="Helvetica,sans-Serif" font-size="10.00">algorithm</text>
</a>
</g>
</g>
<!-- Node22&#45;&gt;Node24 -->
<g id="edge34" class="edge">
<title>Node22&#45;&gt;Node24</title>
<path fill="none" stroke="midnightblue" d="M405.35,-280.08C404.02,-272.93 402.12,-262.64 400.46,-253.69"/>
<polygon fill="midnightblue" stroke="midnightblue" points="403.88,-252.95 398.62,-243.75 397,-254.22 403.88,-252.95"/>
</g>
<!-- Node22&#45;&gt;Node25 -->
<g id="edge35" class="edge">
<title>Node22&#45;&gt;Node25</title>
<path fill="none" stroke="midnightblue" d="M344.03,-280.5C290.75,-272.88 212.22,-260.64 134.66,-243.95"/>
<polygon fill="midnightblue" stroke="midnightblue" points="135.24,-240.49 124.72,-241.78 133.75,-247.33 135.24,-240.49"/>
</g>
<!-- Node26 -->
<g id="node26" class="node">
<title>Node26</title>
<g id="a_node26"><a xlink:title=" ">
<polygon fill="white" stroke="#bfbfbf" points="447,-224.5 447,-243.5 485,-243.5 485,-224.5 447,-224.5"/>
<text text-anchor="middle" x="466" y="-231.5" font-family="Helvetica,sans-Serif" font-size="10.00">map</text>
</a>
</g>
</g>
<!-- Node22&#45;&gt;Node26 -->
<g id="edge36" class="edge">
<title>Node22&#45;&gt;Node26</title>
<path fill="none" stroke="midnightblue" d="M416.48,-280.32C425.2,-272.34 438.34,-260.31 448.9,-250.65"/>
<polygon fill="midnightblue" stroke="midnightblue" points="451.33,-253.17 456.35,-243.83 446.61,-248 451.33,-253.17"/>
</g>
<!-- Node27 -->
<g id="node27" class="node">
<title>Node27</title>
<g id="a_node27"><a xlink:title=" ">
<polygon fill="white" stroke="#bfbfbf" points="303,-224.5 303,-243.5 347,-243.5 347,-224.5 303,-224.5"/>
<text text-anchor="middle" x="325" y="-231.5" font-family="Helvetica,sans-Serif" font-size="10.00">string</text>
</a>
</g>
</g>
<!-- Node22&#45;&gt;Node27 -->
<g id="edge37" class="edge">
<title>Node22&#45;&gt;Node27</title>
<path fill="none" stroke="midnightblue" d="M393.83,-280.32C381.15,-271.98 361.77,-259.21 346.79,-249.35"/>
<polygon fill="midnightblue" stroke="midnightblue" points="348.42,-246.23 338.14,-243.65 344.57,-252.08 348.42,-246.23"/>
</g>
<!-- Node22&#45;&gt;Node28 -->
<g id="edge38" class="edge">
<title>Node22&#45;&gt;Node28</title>
<path fill="none" stroke="midnightblue" d="M432.83,-280.44C460.25,-271.36 503.78,-256.94 534.43,-246.78"/>
<polygon fill="midnightblue" stroke="midnightblue" points="535.9,-249.98 544.29,-243.52 533.7,-243.34 535.9,-249.98"/>
</g>
<!-- Node23&#45;&gt;Node6 -->
<g id="edge31" class="edge">
<title>Node23&#45;&gt;Node6</title>
<path fill="none" stroke="midnightblue" d="M229.26,-224.32C244.22,-215.82 267.25,-202.73 284.73,-192.8"/>
<polygon fill="midnightblue" stroke="midnightblue" points="286.81,-195.64 293.77,-187.65 283.35,-189.55 286.81,-195.64"/>
</g>
<!-- Node23&#45;&gt;Node9 -->
<g id="edge33" class="edge">
<title>Node23&#45;&gt;Node9</title>
<path fill="none" stroke="midnightblue" d="M210.44,-224.46C203.32,-207.19 187.07,-166.82 176,-132 171.13,-116.7 166.59,-99.05 163.42,-86.01"/>
<polygon fill="midnightblue" stroke="midnightblue" points="166.74,-84.84 161.02,-75.92 159.93,-86.45 166.74,-84.84"/>
</g>
<!-- Node23&#45;&gt;Node20 -->
<g id="edge32" class="edge">
<title>Node23&#45;&gt;Node20</title>
<path fill="none" stroke="midnightblue" d="M214,-224.37C214,-206.62 214,-165.67 214,-141.6"/>
<polygon fill="midnightblue" stroke="midnightblue" points="217.5,-141.59 214,-131.59 210.5,-141.59 217.5,-141.59"/>
</g>
<!-- Node30&#45;&gt;Node14 -->
<g id="edge44" class="edge">
<title>Node30&#45;&gt;Node14</title>
<path fill="none" stroke="midnightblue" d="M754.78,-392.35C762.42,-374.03 779,-329.82 779,-291 779,-291 779,-291 779,-177 779,-144.95 779,-107.64 779,-85.75"/>
<polygon fill="midnightblue" stroke="midnightblue" points="782.5,-85.56 779,-75.56 775.5,-85.56 782.5,-85.56"/>
</g>
<!-- Node31 -->
<g id="node31" class="node">
<title>Node31</title>
<g id="a_node31"><a xlink:title=" ">
<polygon fill="white" stroke="#bfbfbf" points="693.5,-336.5 693.5,-355.5 750.5,-355.5 750.5,-336.5 693.5,-336.5"/>
<text text-anchor="middle" x="722" y="-343.5" font-family="Helvetica,sans-Serif" font-size="10.00">ostream</text>
</a>
</g>
</g>
<!-- Node30&#45;&gt;Node31 -->
<g id="edge45" class="edge">
<title>Node30&#45;&gt;Node31</title>
<path fill="none" stroke="midnightblue" d="M746.21,-392.08C742.24,-384.69 736.47,-373.95 731.57,-364.81"/>
<polygon fill="midnightblue" stroke="midnightblue" points="734.51,-362.91 726.7,-355.75 728.35,-366.22 734.51,-362.91"/>
</g>
<!-- Node33&#45;&gt;Node5 -->
<g id="edge50" class="edge">
<title>Node33&#45;&gt;Node5</title>
<path fill="none" stroke="midnightblue" d="M262.65,-448.34C301.59,-425.96 376.87,-382.7 415.25,-360.65"/>
<polygon fill="midnightblue" stroke="midnightblue" points="417.24,-363.54 424.17,-355.52 413.75,-357.47 417.24,-363.54"/>
</g>
</g>
</svg>
