<?xml version="1.0" encoding="UTF-8" standalone="no"?>
<!DOCTYPE svg PUBLIC "-//W3C//DTD SVG 1.1//EN"
 "http://www.w3.org/Graphics/SVG/1.1/DTD/svg11.dtd">
<!-- Generated by graphviz version 2.43.0 (0)
 -->
<!-- Title: itkOpenCLUtil.h Pages: 1 -->
<svg width="674pt" height="319pt"
 viewBox="0.00 0.00 673.50 319.00" xmlns="http://www.w3.org/2000/svg" xmlns:xlink="http://www.w3.org/1999/xlink">
<g id="graph0" class="graph" transform="scale(1 1) rotate(0) translate(4 315)">
<title>itkOpenCLUtil.h</title>
<polygon fill="white" stroke="transparent" points="-4,4 -4,-315 669.5,-315 669.5,4 -4,4"/>
<!-- Node1 -->
<g id="node1" class="node">
<title>Node1</title>
<g id="a_node1"><a xlink:title=" ">
<polygon fill="#bfbfbf" stroke="black" points="221.5,-291.5 221.5,-310.5 314.5,-310.5 314.5,-291.5 221.5,-291.5"/>
<text text-anchor="middle" x="268" y="-298.5" font-family="Helvetica,sans-Serif" font-size="10.00">itkOpenCLUtil.h</text>
</a>
</g>
</g>
<!-- Node2 -->
<g id="node2" class="node">
<title>Node2</title>
<g id="a_node2"><a xlink:title=" ">
<polygon fill="white" stroke="#bfbfbf" points="0,-235.5 0,-254.5 50,-254.5 50,-235.5 0,-235.5"/>
<text text-anchor="middle" x="25" y="-242.5" font-family="Helvetica,sans-Serif" font-size="10.00">cstring</text>
</a>
</g>
</g>
<!-- Node1&#45;&gt;Node2 -->
<g id="edge1" class="edge">
<title>Node1&#45;&gt;Node2</title>
<path fill="none" stroke="midnightblue" d="M225.44,-291.44C185.26,-283.23 123.1,-270.18 60.3,-255.23"/>
<polygon fill="midnightblue" stroke="midnightblue" points="60.76,-251.74 50.22,-252.82 59.13,-258.55 60.76,-251.74"/>
</g>
<!-- Node3 -->
<g id="node3" class="node">
<title>Node3</title>
<g id="a_node3"><a xlink:title=" ">
<polygon fill="white" stroke="#bfbfbf" points="68.5,-235.5 68.5,-254.5 117.5,-254.5 117.5,-235.5 68.5,-235.5"/>
<text text-anchor="middle" x="93" y="-242.5" font-family="Helvetica,sans-Serif" font-size="10.00">cstdlib</text>
</a>
</g>
</g>
<!-- Node1&#45;&gt;Node3 -->
<g id="edge2" class="edge">
<title>Node1&#45;&gt;Node3</title>
<path fill="none" stroke="midnightblue" d="M240.27,-291.44C209.7,-282.01 160.49,-266.82 127.46,-256.63"/>
<polygon fill="midnightblue" stroke="midnightblue" points="128.36,-253.25 117.77,-253.64 126.29,-259.94 128.36,-253.25"/>
</g>
<!-- Node4 -->
<g id="node4" class="node">
<title>Node4</title>
<g id="a_node4"><a xlink:title=" ">
<polygon fill="white" stroke="#bfbfbf" points="136,-235.5 136,-254.5 182,-254.5 182,-235.5 136,-235.5"/>
<text text-anchor="middle" x="159" y="-242.5" font-family="Helvetica,sans-Serif" font-size="10.00">cstdio</text>
</a>
</g>
</g>
<!-- Node1&#45;&gt;Node4 -->
<g id="edge3" class="edge">
<title>Node1&#45;&gt;Node4</title>
<path fill="none" stroke="midnightblue" d="M250.49,-291.32C232.93,-282.62 205.67,-269.12 185.47,-259.11"/>
<polygon fill="midnightblue" stroke="midnightblue" points="186.98,-255.96 176.47,-254.65 183.88,-262.23 186.98,-255.96"/>
</g>
<!-- Node5 -->
<g id="node5" class="node">
<title>Node5</title>
<g id="a_node5"><a xlink:title=" ">
<polygon fill="white" stroke="#bfbfbf" points="200,-235.5 200,-254.5 260,-254.5 260,-235.5 200,-235.5"/>
<text text-anchor="middle" x="230" y="-242.5" font-family="Helvetica,sans-Serif" font-size="10.00">iostream</text>
</a>
</g>
</g>
<!-- Node1&#45;&gt;Node5 -->
<g id="edge4" class="edge">
<title>Node1&#45;&gt;Node5</title>
<path fill="none" stroke="midnightblue" d="M261.73,-291.08C256.36,-283.46 248.48,-272.26 241.92,-262.94"/>
<polygon fill="midnightblue" stroke="midnightblue" points="244.78,-260.91 236.16,-254.75 239.05,-264.94 244.78,-260.91"/>
</g>
<!-- Node6 -->
<g id="node6" class="node">
<title>Node6</title>
<g id="a_node6"><a xlink:title=" ">
<polygon fill="white" stroke="#bfbfbf" points="278,-235.5 278,-254.5 334,-254.5 334,-235.5 278,-235.5"/>
<text text-anchor="middle" x="306" y="-242.5" font-family="Helvetica,sans-Serif" font-size="10.00">sstream</text>
</a>
</g>
</g>
<!-- Node1&#45;&gt;Node6 -->
<g id="edge5" class="edge">
<title>Node1&#45;&gt;Node6</title>
<path fill="none" stroke="midnightblue" d="M274.27,-291.08C279.64,-283.46 287.52,-272.26 294.08,-262.94"/>
<polygon fill="midnightblue" stroke="midnightblue" points="296.95,-264.94 299.84,-254.75 291.22,-260.91 296.95,-264.94"/>
</g>
<!-- Node7 -->
<g id="node7" class="node">
<title>Node7</title>
<g id="a_node7"><a xlink:href="itkVector_8h.html" target="_top" xlink:title=" ">
<polygon fill="white" stroke="black" points="352,-235.5 352,-254.5 420,-254.5 420,-235.5 352,-235.5"/>
<text text-anchor="middle" x="386" y="-242.5" font-family="Helvetica,sans-Serif" font-size="10.00">itkVector.h</text>
</a>
</g>
</g>
<!-- Node1&#45;&gt;Node7 -->
<g id="edge6" class="edge">
<title>Node1&#45;&gt;Node7</title>
<path fill="none" stroke="midnightblue" d="M286.7,-291.44C305.94,-282.64 336.15,-268.81 358.2,-258.72"/>
<polygon fill="midnightblue" stroke="midnightblue" points="359.75,-261.86 367.39,-254.52 356.84,-255.5 359.75,-261.86"/>
</g>
<!-- Node9 -->
<g id="node9" class="node">
<title>Node9</title>
<g id="a_node9"><a xlink:href="itkMacro_8h.html" target="_top" xlink:title=" ">
<polygon fill="white" stroke="black" points="493,-0.5 493,-19.5 561,-19.5 561,-0.5 493,-0.5"/>
<text text-anchor="middle" x="527" y="-7.5" font-family="Helvetica,sans-Serif" font-size="10.00">itkMacro.h</text>
</a>
</g>
</g>
<!-- Node1&#45;&gt;Node9 -->
<g id="edge22" class="edge">
<title>Node1&#45;&gt;Node9</title>
<path fill="none" stroke="midnightblue" d="M314.58,-292.62C397.93,-278.1 564,-242.56 564,-190 564,-190 564,-190 564,-126.5 564,-90.51 547.5,-51.09 536.54,-28.86"/>
<polygon fill="midnightblue" stroke="midnightblue" points="539.51,-26.98 531.84,-19.68 533.28,-30.18 539.51,-26.98"/>
</g>
<!-- Node19 -->
<g id="node19" class="node">
<title>Node19</title>
<g id="a_node19"><a xlink:title=" ">
<polygon fill="white" stroke="#bfbfbf" points="592.5,-235.5 592.5,-254.5 665.5,-254.5 665.5,-235.5 592.5,-235.5"/>
<text text-anchor="middle" x="629" y="-242.5" font-family="Helvetica,sans-Serif" font-size="10.00">CL/opencl.h</text>
</a>
</g>
</g>
<!-- Node1&#45;&gt;Node19 -->
<g id="edge21" class="edge">
<title>Node1&#45;&gt;Node19</title>
<path fill="none" stroke="midnightblue" d="M314.55,-293.69C375.25,-285.37 484.71,-270 578,-255 579.44,-254.77 580.91,-254.53 582.39,-254.29"/>
<polygon fill="midnightblue" stroke="midnightblue" points="582.97,-257.74 592.25,-252.62 581.81,-250.83 582.97,-257.74"/>
</g>
<!-- Node8 -->
<g id="node8" class="node">
<title>Node8</title>
<g id="a_node8"><a xlink:href="itkFixedArray_8h.html" target="_top" xlink:title=" ">
<polygon fill="white" stroke="black" points="341.5,-179.5 341.5,-198.5 430.5,-198.5 430.5,-179.5 341.5,-179.5"/>
<text text-anchor="middle" x="386" y="-186.5" font-family="Helvetica,sans-Serif" font-size="10.00">itkFixedArray.h</text>
</a>
</g>
</g>
<!-- Node7&#45;&gt;Node8 -->
<g id="edge7" class="edge">
<title>Node7&#45;&gt;Node8</title>
<path fill="none" stroke="midnightblue" d="M386,-235.08C386,-228.01 386,-217.86 386,-208.99"/>
<polygon fill="midnightblue" stroke="midnightblue" points="389.5,-208.75 386,-198.75 382.5,-208.75 389.5,-208.75"/>
</g>
<!-- Node17 -->
<g id="node17" class="node">
<title>Node17</title>
<g id="a_node17"><a xlink:title=" ">
<polygon fill="white" stroke="#bfbfbf" points="111.5,-179.5 111.5,-198.5 224.5,-198.5 224.5,-179.5 111.5,-179.5"/>
<text text-anchor="middle" x="168" y="-186.5" font-family="Helvetica,sans-Serif" font-size="10.00">vnl/vnl_vector_ref.h</text>
</a>
</g>
</g>
<!-- Node7&#45;&gt;Node17 -->
<g id="edge19" class="edge">
<title>Node7&#45;&gt;Node17</title>
<path fill="none" stroke="midnightblue" d="M351.94,-235.56C314.32,-226.25 253.63,-211.21 212.34,-200.98"/>
<polygon fill="midnightblue" stroke="midnightblue" points="213.09,-197.56 202.54,-198.56 211.41,-204.36 213.09,-197.56"/>
</g>
<!-- Node18 -->
<g id="node18" class="node">
<title>Node18</title>
<g id="a_node18"><a xlink:title=" ">
<polygon fill="white" stroke="#bfbfbf" points="243,-179.5 243,-198.5 323,-198.5 323,-179.5 243,-179.5"/>
<text text-anchor="middle" x="283" y="-186.5" font-family="Helvetica,sans-Serif" font-size="10.00">itkVector.hxx</text>
</a>
</g>
</g>
<!-- Node7&#45;&gt;Node18 -->
<g id="edge20" class="edge">
<title>Node7&#45;&gt;Node18</title>
<path fill="none" stroke="midnightblue" d="M369.45,-235.32C353.01,-226.7 327.57,-213.36 308.53,-203.39"/>
<polygon fill="midnightblue" stroke="midnightblue" points="309.99,-200.2 299.51,-198.65 306.74,-206.4 309.99,-200.2"/>
</g>
<!-- Node8&#45;&gt;Node9 -->
<g id="edge8" class="edge">
<title>Node8&#45;&gt;Node9</title>
<path fill="none" stroke="midnightblue" d="M422.89,-179.48C444.04,-172.83 469.57,-161.51 486,-143 514.98,-110.35 523.48,-57.44 525.97,-29.55"/>
<polygon fill="midnightblue" stroke="midnightblue" points="529.46,-29.8 526.69,-19.57 522.48,-29.29 529.46,-29.8"/>
</g>
<!-- Node10 -->
<g id="node10" class="node">
<title>Node10</title>
<g id="a_node10"><a xlink:title=" ">
<polygon fill="white" stroke="#bfbfbf" points="50,-118 50,-137 114,-137 114,-118 50,-118"/>
<text text-anchor="middle" x="82" y="-125" font-family="Helvetica,sans-Serif" font-size="10.00">algorithm</text>
</a>
</g>
</g>
<!-- Node8&#45;&gt;Node10 -->
<g id="edge9" class="edge">
<title>Node8&#45;&gt;Node10</title>
<path fill="none" stroke="midnightblue" d="M341.26,-180.55C268.98,-168.48 133.48,-145.73 123,-143 119.96,-142.21 116.82,-141.29 113.7,-140.31"/>
<polygon fill="midnightblue" stroke="midnightblue" points="114.51,-136.89 103.91,-137.03 112.28,-143.52 114.51,-136.89"/>
</g>
<!-- Node11 -->
<g id="node11" class="node">
<title>Node11</title>
<g id="a_node11"><a xlink:title=" ">
<polygon fill="white" stroke="#bfbfbf" points="132,-118 132,-137 174,-137 174,-118 132,-118"/>
<text text-anchor="middle" x="153" y="-125" font-family="Helvetica,sans-Serif" font-size="10.00">array</text>
</a>
</g>
</g>
<!-- Node8&#45;&gt;Node11 -->
<g id="edge10" class="edge">
<title>Node8&#45;&gt;Node11</title>
<path fill="none" stroke="midnightblue" d="M342.27,-179.42C292.03,-169.36 212.82,-152.82 184,-143 182.34,-142.43 180.65,-141.8 178.95,-141.14"/>
<polygon fill="midnightblue" stroke="midnightblue" points="180.02,-137.78 169.46,-137.01 177.23,-144.2 180.02,-137.78"/>
</g>
<!-- Node12 -->
<g id="node12" class="node">
<title>Node12</title>
<g id="a_node12"><a xlink:title=" ">
<polygon fill="white" stroke="#bfbfbf" points="192.5,-118 192.5,-137 293.5,-137 293.5,-118 192.5,-118"/>
<text text-anchor="middle" x="243" y="-125" font-family="Helvetica,sans-Serif" font-size="10.00">itkFixedArray.hxx</text>
</a>
</g>
</g>
<!-- Node8&#45;&gt;Node12 -->
<g id="edge11" class="edge">
<title>Node8&#45;&gt;Node12</title>
<path fill="none" stroke="midnightblue" d="M365.51,-179.48C341.19,-169.36 300.45,-152.4 272.68,-140.85"/>
<polygon fill="midnightblue" stroke="midnightblue" points="274.03,-137.62 263.45,-137.01 271.34,-144.08 274.03,-137.62"/>
</g>
<!-- Node13 -->
<g id="node13" class="node">
<title>Node13</title>
<g id="a_node13"><a xlink:href="itkNumericTraitsFixedArrayPixel_8h.html" target="_top" xlink:title=" ">
<polygon fill="white" stroke="black" points="311.5,-112.5 311.5,-142.5 460.5,-142.5 460.5,-112.5 311.5,-112.5"/>
<text text-anchor="start" x="319.5" y="-130.5" font-family="Helvetica,sans-Serif" font-size="10.00">itkNumericTraitsFixedArray</text>
<text text-anchor="middle" x="386" y="-119.5" font-family="Helvetica,sans-Serif" font-size="10.00">Pixel.h</text>
</a>
</g>
</g>
<!-- Node8&#45;&gt;Node13 -->
<g id="edge12" class="edge">
<title>Node8&#45;&gt;Node13</title>
<path fill="none" stroke="midnightblue" d="M381.1,-179.48C379.57,-172.47 378.99,-162.19 379.36,-152.7"/>
<polygon fill="midnightblue" stroke="midnightblue" points="382.86,-152.77 380.17,-142.52 375.88,-152.21 382.86,-152.77"/>
</g>
<!-- Node13&#45;&gt;Node8 -->
<g id="edge18" class="edge">
<title>Node13&#45;&gt;Node8</title>
<path fill="none" stroke="midnightblue" d="M391.83,-142.52C392.87,-150.59 393.03,-160.81 392.3,-169.53"/>
<polygon fill="midnightblue" stroke="midnightblue" points="388.83,-169.09 390.9,-179.48 395.76,-170.06 388.83,-169.09"/>
</g>
<!-- Node14 -->
<g id="node14" class="node">
<title>Node14</title>
<g id="a_node14"><a xlink:href="itkNumericTraits_8h.html" target="_top" xlink:title=" ">
<polygon fill="white" stroke="black" points="392,-56.5 392,-75.5 498,-75.5 498,-56.5 392,-56.5"/>
<text text-anchor="middle" x="445" y="-63.5" font-family="Helvetica,sans-Serif" font-size="10.00">itkNumericTraits.h</text>
</a>
</g>
</g>
<!-- Node13&#45;&gt;Node14 -->
<g id="edge13" class="edge">
<title>Node13&#45;&gt;Node14</title>
<path fill="none" stroke="midnightblue" d="M399.98,-112.4C408.73,-103.58 420.03,-92.18 429.12,-83.02"/>
<polygon fill="midnightblue" stroke="midnightblue" points="431.86,-85.22 436.41,-75.66 426.89,-80.29 431.86,-85.22"/>
</g>
<!-- Node14&#45;&gt;Node8 -->
<g id="edge17" class="edge">
<title>Node14&#45;&gt;Node8</title>
<path fill="none" stroke="midnightblue" d="M452.56,-75.97C464.06,-90.76 483.27,-120.83 470,-143 460.85,-158.28 444.54,-168.67 428.71,-175.57"/>
<polygon fill="midnightblue" stroke="midnightblue" points="426.99,-172.49 418.99,-179.44 429.57,-179 426.99,-172.49"/>
</g>
<!-- Node14&#45;&gt;Node9 -->
<g id="edge14" class="edge">
<title>Node14&#45;&gt;Node9</title>
<path fill="none" stroke="midnightblue" d="M458.17,-56.32C470.85,-47.98 490.23,-35.21 505.21,-25.35"/>
<polygon fill="midnightblue" stroke="midnightblue" points="507.43,-28.08 513.86,-19.65 503.58,-22.23 507.43,-28.08"/>
</g>
<!-- Node15 -->
<g id="node15" class="node">
<title>Node15</title>
<g id="a_node15"><a xlink:title=" ">
<polygon fill="white" stroke="#bfbfbf" points="353,-0.5 353,-19.5 397,-19.5 397,-0.5 353,-0.5"/>
<text text-anchor="middle" x="375" y="-7.5" font-family="Helvetica,sans-Serif" font-size="10.00">limits</text>
</a>
</g>
</g>
<!-- Node14&#45;&gt;Node15 -->
<g id="edge15" class="edge">
<title>Node14&#45;&gt;Node15</title>
<path fill="none" stroke="midnightblue" d="M433.75,-56.32C423.2,-48.18 407.2,-35.84 394.56,-26.09"/>
<polygon fill="midnightblue" stroke="midnightblue" points="396.51,-23.17 386.45,-19.83 392.23,-28.71 396.51,-23.17"/>
</g>
<!-- Node16 -->
<g id="node16" class="node">
<title>Node16</title>
<g id="a_node16"><a xlink:title=" ">
<polygon fill="white" stroke="#bfbfbf" points="415.5,-0.5 415.5,-19.5 474.5,-19.5 474.5,-0.5 415.5,-0.5"/>
<text text-anchor="middle" x="445" y="-7.5" font-family="Helvetica,sans-Serif" font-size="10.00">complex</text>
</a>
</g>
</g>
<!-- Node14&#45;&gt;Node16 -->
<g id="edge16" class="edge">
<title>Node14&#45;&gt;Node16</title>
<path fill="none" stroke="midnightblue" d="M445,-56.08C445,-49.01 445,-38.86 445,-29.99"/>
<polygon fill="midnightblue" stroke="midnightblue" points="448.5,-29.75 445,-19.75 441.5,-29.75 448.5,-29.75"/>
</g>
</g>
</svg>
