<?xml version="1.0" encoding="UTF-8" standalone="no"?>
<!DOCTYPE svg PUBLIC "-//W3C//DTD SVG 1.1//EN"
 "http://www.w3.org/Graphics/SVG/1.1/DTD/svg11.dtd">
<!-- Generated by graphviz version 2.43.0 (0)
 -->
<!-- Title: itkProbabilityDistribution.h Pages: 1 -->
<svg width="1291pt" height="588pt"
 viewBox="0.00 0.00 1291.00 588.00" xmlns="http://www.w3.org/2000/svg" xmlns:xlink="http://www.w3.org/1999/xlink">
<g id="graph0" class="graph" transform="scale(1 1) rotate(0) translate(4 584)">
<title>itkProbabilityDistribution.h</title>
<polygon fill="white" stroke="transparent" points="-4,4 -4,-584 1287,-584 1287,4 -4,4"/>
<!-- Node1 -->
<g id="node1" class="node">
<title>Node1</title>
<g id="a_node1"><a xlink:title=" ">
<polygon fill="#bfbfbf" stroke="black" points="855,-560.5 855,-579.5 1003,-579.5 1003,-560.5 855,-560.5"/>
<text text-anchor="middle" x="929" y="-567.5" font-family="Helvetica,sans-Serif" font-size="10.00">itkProbabilityDistribution.h</text>
</a>
</g>
</g>
<!-- Node2 -->
<g id="node2" class="node">
<title>Node2</title>
<g id="a_node2"><a xlink:href="itkIntTypes_8h.html" target="_top" xlink:title=" ">
<polygon fill="white" stroke="black" points="756.5,-56.5 756.5,-75.5 835.5,-75.5 835.5,-56.5 756.5,-56.5"/>
<text text-anchor="middle" x="796" y="-63.5" font-family="Helvetica,sans-Serif" font-size="10.00">itkIntTypes.h</text>
</a>
</g>
</g>
<!-- Node1&#45;&gt;Node2 -->
<g id="edge1" class="edge">
<title>Node1&#45;&gt;Node2</title>
<path fill="none" stroke="midnightblue" d="M929,-560.44C929,-541.94 929,-496.81 929,-459 929,-459 929,-459 929,-177 929,-126.73 871.87,-95.1 832.5,-79.27"/>
<polygon fill="midnightblue" stroke="midnightblue" points="833.5,-75.91 822.91,-75.59 830.99,-82.45 833.5,-75.91"/>
</g>
<!-- Node6 -->
<g id="node6" class="node">
<title>Node6</title>
<g id="a_node6"><a xlink:href="itkObject_8h.html" target="_top" xlink:title=" ">
<polygon fill="white" stroke="black" points="402,-336.5 402,-355.5 472,-355.5 472,-336.5 402,-336.5"/>
<text text-anchor="middle" x="437" y="-343.5" font-family="Helvetica,sans-Serif" font-size="10.00">itkObject.h</text>
</a>
</g>
</g>
<!-- Node1&#45;&gt;Node6 -->
<g id="edge5" class="edge">
<title>Node1&#45;&gt;Node6</title>
<path fill="none" stroke="midnightblue" d="M879.32,-560.45C837.24,-552.66 775.54,-539.95 723,-524 592.77,-484.46 515.5,-523.87 438,-412 428.77,-398.68 429.58,-379.85 432.07,-365.88"/>
<polygon fill="midnightblue" stroke="midnightblue" points="435.53,-366.44 434.27,-355.92 428.7,-364.93 435.53,-366.44"/>
</g>
<!-- Node27 -->
<g id="node27" class="node">
<title>Node27</title>
<g id="a_node27"><a xlink:href="itkObjectFactory_8h.html" target="_top" xlink:title=" ">
<polygon fill="white" stroke="black" points="732,-504.5 732,-523.5 836,-523.5 836,-504.5 732,-504.5"/>
<text text-anchor="middle" x="784" y="-511.5" font-family="Helvetica,sans-Serif" font-size="10.00">itkObjectFactory.h</text>
</a>
</g>
</g>
<!-- Node1&#45;&gt;Node27 -->
<g id="edge40" class="edge">
<title>Node1&#45;&gt;Node27</title>
<path fill="none" stroke="midnightblue" d="M906.02,-560.44C881.84,-551.44 843.58,-537.19 816.35,-527.05"/>
<polygon fill="midnightblue" stroke="midnightblue" points="817.46,-523.73 806.87,-523.52 815.02,-530.29 817.46,-523.73"/>
</g>
<!-- Node33 -->
<g id="node33" class="node">
<title>Node33</title>
<g id="a_node33"><a xlink:href="itkArray_8h.html" target="_top" xlink:title=" ">
<polygon fill="white" stroke="black" points="979.5,-504.5 979.5,-523.5 1042.5,-523.5 1042.5,-504.5 979.5,-504.5"/>
<text text-anchor="middle" x="1011" y="-511.5" font-family="Helvetica,sans-Serif" font-size="10.00">itkArray.h</text>
</a>
</g>
</g>
<!-- Node1&#45;&gt;Node33 -->
<g id="edge51" class="edge">
<title>Node1&#45;&gt;Node33</title>
<path fill="none" stroke="midnightblue" d="M942.17,-560.32C954.85,-551.98 974.23,-539.21 989.21,-529.35"/>
<polygon fill="midnightblue" stroke="midnightblue" points="991.43,-532.08 997.86,-523.65 987.58,-526.23 991.43,-532.08"/>
</g>
<!-- Node37 -->
<g id="node37" class="node">
<title>Node37</title>
<g id="a_node37"><a xlink:title=" ">
<polygon fill="white" stroke="#bfbfbf" points="1061,-504.5 1061,-523.5 1179,-523.5 1179,-504.5 1061,-504.5"/>
<text text-anchor="middle" x="1120" y="-511.5" font-family="Helvetica,sans-Serif" font-size="10.00">ITKStatisticsExport.h</text>
</a>
</g>
</g>
<!-- Node1&#45;&gt;Node37 -->
<g id="edge56" class="edge">
<title>Node1&#45;&gt;Node37</title>
<path fill="none" stroke="midnightblue" d="M959.26,-560.44C991.96,-551.2 1044.18,-536.44 1080.18,-526.26"/>
<polygon fill="midnightblue" stroke="midnightblue" points="1081.21,-529.61 1089.88,-523.52 1079.3,-522.87 1081.21,-529.61"/>
</g>
<!-- Node3 -->
<g id="node3" class="node">
<title>Node3</title>
<g id="a_node3"><a xlink:href="itkMacro_8h.html" target="_top" xlink:title=" ">
<polygon fill="white" stroke="black" points="272,-0.5 272,-19.5 340,-19.5 340,-0.5 272,-0.5"/>
<text text-anchor="middle" x="306" y="-7.5" font-family="Helvetica,sans-Serif" font-size="10.00">itkMacro.h</text>
</a>
</g>
</g>
<!-- Node2&#45;&gt;Node3 -->
<g id="edge2" class="edge">
<title>Node2&#45;&gt;Node3</title>
<path fill="none" stroke="midnightblue" d="M756.32,-60.63C665.84,-50.66 444.81,-26.3 350.18,-15.87"/>
<polygon fill="midnightblue" stroke="midnightblue" points="350.41,-12.37 340.08,-14.76 349.64,-19.33 350.41,-12.37"/>
</g>
<!-- Node4 -->
<g id="node4" class="node">
<title>Node4</title>
<g id="a_node4"><a xlink:title=" ">
<polygon fill="white" stroke="#bfbfbf" points="805,-0.5 805,-19.5 855,-19.5 855,-0.5 805,-0.5"/>
<text text-anchor="middle" x="830" y="-7.5" font-family="Helvetica,sans-Serif" font-size="10.00">cstdint</text>
</a>
</g>
</g>
<!-- Node2&#45;&gt;Node4 -->
<g id="edge3" class="edge">
<title>Node2&#45;&gt;Node4</title>
<path fill="none" stroke="midnightblue" d="M801.61,-56.08C806.37,-48.53 813.32,-37.49 819.15,-28.23"/>
<polygon fill="midnightblue" stroke="midnightblue" points="822.12,-30.08 824.49,-19.75 816.2,-26.35 822.12,-30.08"/>
</g>
<!-- Node5 -->
<g id="node5" class="node">
<title>Node5</title>
<g id="a_node5"><a xlink:title=" ">
<polygon fill="white" stroke="#bfbfbf" points="737,-0.5 737,-19.5 787,-19.5 787,-0.5 737,-0.5"/>
<text text-anchor="middle" x="762" y="-7.5" font-family="Helvetica,sans-Serif" font-size="10.00">climits</text>
</a>
</g>
</g>
<!-- Node2&#45;&gt;Node5 -->
<g id="edge4" class="edge">
<title>Node2&#45;&gt;Node5</title>
<path fill="none" stroke="midnightblue" d="M790.39,-56.08C785.63,-48.53 778.68,-37.49 772.85,-28.23"/>
<polygon fill="midnightblue" stroke="midnightblue" points="775.8,-26.35 767.51,-19.75 769.88,-30.08 775.8,-26.35"/>
</g>
<!-- Node7 -->
<g id="node7" class="node">
<title>Node7</title>
<g id="a_node7"><a xlink:href="itkLightObject_8h.html" target="_top" xlink:title=" ">
<polygon fill="white" stroke="black" points="223,-168.5 223,-187.5 317,-187.5 317,-168.5 223,-168.5"/>
<text text-anchor="middle" x="270" y="-175.5" font-family="Helvetica,sans-Serif" font-size="10.00">itkLightObject.h</text>
</a>
</g>
</g>
<!-- Node6&#45;&gt;Node7 -->
<g id="edge6" class="edge">
<title>Node6&#45;&gt;Node7</title>
<path fill="none" stroke="midnightblue" d="M401.63,-341.12C349.08,-333.23 251.98,-310.04 209,-244 196.07,-224.14 220.44,-204.78 242.1,-192.43"/>
<polygon fill="midnightblue" stroke="midnightblue" points="243.96,-195.41 251.11,-187.59 240.64,-189.24 243.96,-195.41"/>
</g>
<!-- Node15 -->
<g id="node15" class="node">
<title>Node15</title>
<g id="a_node15"><a xlink:href="itkSingletonMacro_8h.html" target="_top" xlink:title=" ">
<polygon fill="white" stroke="black" points="553,-56.5 553,-75.5 667,-75.5 667,-56.5 553,-56.5"/>
<text text-anchor="middle" x="610" y="-63.5" font-family="Helvetica,sans-Serif" font-size="10.00">itkSingletonMacro.h</text>
</a>
</g>
</g>
<!-- Node6&#45;&gt;Node15 -->
<g id="edge37" class="edge">
<title>Node6&#45;&gt;Node15</title>
<path fill="none" stroke="midnightblue" d="M439.26,-336.37C444.81,-315.94 460.38,-263.36 483,-224 491.78,-208.73 564.99,-120.74 596.1,-83.57"/>
<polygon fill="midnightblue" stroke="midnightblue" points="598.98,-85.59 602.72,-75.67 593.61,-81.09 598.98,-85.59"/>
</g>
<!-- Node18 -->
<g id="node18" class="node">
<title>Node18</title>
<g id="a_node18"><a xlink:href="itkEventObject_8h.html" target="_top" xlink:title=" ">
<polygon fill="white" stroke="black" points="0,-168.5 0,-187.5 98,-187.5 98,-168.5 0,-168.5"/>
<text text-anchor="middle" x="49" y="-175.5" font-family="Helvetica,sans-Serif" font-size="10.00">itkEventObject.h</text>
</a>
</g>
</g>
<!-- Node6&#45;&gt;Node18 -->
<g id="edge24" class="edge">
<title>Node6&#45;&gt;Node18</title>
<path fill="none" stroke="midnightblue" d="M401.92,-340.58C361.84,-334.71 294.84,-322.38 241,-300 172.54,-271.54 100.98,-219.54 67.87,-193.98"/>
<polygon fill="midnightblue" stroke="midnightblue" points="69.98,-191.19 59.94,-187.8 65.68,-196.71 69.98,-191.19"/>
</g>
<!-- Node19 -->
<g id="node19" class="node">
<title>Node19</title>
<g id="a_node19"><a xlink:href="itkMetaDataDictionary_8h.html" target="_top" xlink:title=" ">
<polygon fill="white" stroke="black" points="472.5,-280.5 472.5,-299.5 607.5,-299.5 607.5,-280.5 472.5,-280.5"/>
<text text-anchor="middle" x="540" y="-287.5" font-family="Helvetica,sans-Serif" font-size="10.00">itkMetaDataDictionary.h</text>
</a>
</g>
</g>
<!-- Node6&#45;&gt;Node19 -->
<g id="edge27" class="edge">
<title>Node6&#45;&gt;Node19</title>
<path fill="none" stroke="midnightblue" d="M453.55,-336.32C469.99,-327.7 495.43,-314.36 514.47,-304.39"/>
<polygon fill="midnightblue" stroke="midnightblue" points="516.26,-307.4 523.49,-299.65 513.01,-301.2 516.26,-307.4"/>
</g>
<!-- Node25 -->
<g id="node25" class="node">
<title>Node25</title>
<g id="a_node25"><a xlink:title=" ">
<polygon fill="white" stroke="#bfbfbf" points="218,-224.5 218,-243.5 276,-243.5 276,-224.5 218,-224.5"/>
<text text-anchor="middle" x="247" y="-231.5" font-family="Helvetica,sans-Serif" font-size="10.00">memory</text>
</a>
</g>
</g>
<!-- Node6&#45;&gt;Node25 -->
<g id="edge39" class="edge">
<title>Node6&#45;&gt;Node25</title>
<path fill="none" stroke="midnightblue" d="M431.74,-336.09C423.08,-322.16 404.52,-295.25 382,-280 366.13,-269.25 319.89,-255 285.94,-245.44"/>
<polygon fill="midnightblue" stroke="midnightblue" points="286.85,-242.06 276.28,-242.75 284.98,-248.81 286.85,-242.06"/>
</g>
<!-- Node26 -->
<g id="node26" class="node">
<title>Node26</title>
<g id="a_node26"><a xlink:title=" ">
<polygon fill="white" stroke="#bfbfbf" points="625.5,-280.5 625.5,-299.5 690.5,-299.5 690.5,-280.5 625.5,-280.5"/>
<text text-anchor="middle" x="658" y="-287.5" font-family="Helvetica,sans-Serif" font-size="10.00">functional</text>
</a>
</g>
</g>
<!-- Node6&#45;&gt;Node26 -->
<g id="edge38" class="edge">
<title>Node6&#45;&gt;Node26</title>
<path fill="none" stroke="midnightblue" d="M472.02,-336.44C510.92,-326.94 573.74,-311.59 615.45,-301.4"/>
<polygon fill="midnightblue" stroke="midnightblue" points="616.42,-304.76 625.31,-298.99 614.76,-297.96 616.42,-304.76"/>
</g>
<!-- Node7&#45;&gt;Node3 -->
<g id="edge7" class="edge">
<title>Node7&#45;&gt;Node3</title>
<path fill="none" stroke="midnightblue" d="M222.94,-171.62C193.46,-166.07 156.38,-154.8 131,-132 104.55,-108.23 83.79,-83.77 106,-56 125.12,-32.1 208.86,-20 261.74,-14.63"/>
<polygon fill="midnightblue" stroke="midnightblue" points="262.26,-18.1 271.87,-13.65 261.58,-11.13 262.26,-18.1"/>
</g>
<!-- Node8 -->
<g id="node8" class="node">
<title>Node8</title>
<g id="a_node8"><a xlink:href="itkSmartPointer_8h.html" target="_top" xlink:title=" ">
<polygon fill="white" stroke="black" points="140.5,-112.5 140.5,-131.5 241.5,-131.5 241.5,-112.5 140.5,-112.5"/>
<text text-anchor="middle" x="191" y="-119.5" font-family="Helvetica,sans-Serif" font-size="10.00">itkSmartPointer.h</text>
</a>
</g>
</g>
<!-- Node7&#45;&gt;Node8 -->
<g id="edge8" class="edge">
<title>Node7&#45;&gt;Node8</title>
<path fill="none" stroke="midnightblue" d="M257.31,-168.32C245.1,-159.98 226.42,-147.21 212,-137.35"/>
<polygon fill="midnightblue" stroke="midnightblue" points="213.89,-134.41 203.66,-131.65 209.94,-140.19 213.89,-134.41"/>
</g>
<!-- Node9 -->
<g id="node9" class="node">
<title>Node9</title>
<g id="a_node9"><a xlink:title=" ">
<polygon fill="white" stroke="#bfbfbf" points="369,-56.5 369,-75.5 429,-75.5 429,-56.5 369,-56.5"/>
<text text-anchor="middle" x="399" y="-63.5" font-family="Helvetica,sans-Serif" font-size="10.00">iostream</text>
</a>
</g>
</g>
<!-- Node7&#45;&gt;Node9 -->
<g id="edge22" class="edge">
<title>Node7&#45;&gt;Node9</title>
<path fill="none" stroke="midnightblue" d="M271.01,-168.28C273.03,-154.61 278.75,-128.05 294,-112 303.99,-101.48 336.86,-88.29 363.19,-78.91"/>
<polygon fill="midnightblue" stroke="midnightblue" points="364.62,-82.12 372.9,-75.52 362.31,-75.51 364.62,-82.12"/>
</g>
<!-- Node13 -->
<g id="node13" class="node">
<title>Node13</title>
<g id="a_node13"><a xlink:href="itkTimeStamp_8h.html" target="_top" xlink:title=" ">
<polygon fill="white" stroke="black" points="450.5,-112.5 450.5,-131.5 545.5,-131.5 545.5,-112.5 450.5,-112.5"/>
<text text-anchor="middle" x="498" y="-119.5" font-family="Helvetica,sans-Serif" font-size="10.00">itkTimeStamp.h</text>
</a>
</g>
</g>
<!-- Node7&#45;&gt;Node13 -->
<g id="edge13" class="edge">
<title>Node7&#45;&gt;Node13</title>
<path fill="none" stroke="midnightblue" d="M306.13,-168.44C345.65,-159.08 409.1,-144.06 452.11,-133.87"/>
<polygon fill="midnightblue" stroke="midnightblue" points="453.12,-137.23 462.04,-131.52 451.5,-130.42 453.12,-137.23"/>
</g>
<!-- Node14 -->
<g id="node14" class="node">
<title>Node14</title>
<g id="a_node14"><a xlink:title=" ">
<polygon fill="white" stroke="#bfbfbf" points="447,-56.5 447,-75.5 497,-75.5 497,-56.5 447,-56.5"/>
<text text-anchor="middle" x="472" y="-63.5" font-family="Helvetica,sans-Serif" font-size="10.00">atomic</text>
</a>
</g>
</g>
<!-- Node7&#45;&gt;Node14 -->
<g id="edge21" class="edge">
<title>Node7&#45;&gt;Node14</title>
<path fill="none" stroke="midnightblue" d="M275.2,-168.49C284.11,-154.63 303.59,-127.2 327,-112 336.4,-105.9 397.32,-88.04 437.14,-76.74"/>
<polygon fill="midnightblue" stroke="midnightblue" points="438.1,-80.11 446.77,-74.02 436.2,-73.37 438.1,-80.11"/>
</g>
<!-- Node16 -->
<g id="node16" class="node">
<title>Node16</title>
<g id="a_node16"><a xlink:href="itkIndent_8h.html" target="_top" xlink:title=" ">
<polygon fill="white" stroke="black" points="14.5,-112.5 14.5,-131.5 83.5,-131.5 83.5,-112.5 14.5,-112.5"/>
<text text-anchor="middle" x="49" y="-119.5" font-family="Helvetica,sans-Serif" font-size="10.00">itkIndent.h</text>
</a>
</g>
</g>
<!-- Node7&#45;&gt;Node16 -->
<g id="edge18" class="edge">
<title>Node7&#45;&gt;Node16</title>
<path fill="none" stroke="midnightblue" d="M234.98,-168.44C196.75,-159.1 135.43,-144.12 93.74,-133.93"/>
<polygon fill="midnightblue" stroke="midnightblue" points="94.4,-130.49 83.85,-131.52 92.74,-137.29 94.4,-130.49"/>
</g>
<!-- Node17 -->
<g id="node17" class="node">
<title>Node17</title>
<g id="a_node17"><a xlink:title=" ">
<polygon fill="white" stroke="#bfbfbf" points="336.5,-112.5 336.5,-131.5 393.5,-131.5 393.5,-112.5 336.5,-112.5"/>
<text text-anchor="middle" x="365" y="-119.5" font-family="Helvetica,sans-Serif" font-size="10.00">typeinfo</text>
</a>
</g>
</g>
<!-- Node7&#45;&gt;Node17 -->
<g id="edge23" class="edge">
<title>Node7&#45;&gt;Node17</title>
<path fill="none" stroke="midnightblue" d="M285.26,-168.32C300.22,-159.82 323.25,-146.73 340.73,-136.8"/>
<polygon fill="midnightblue" stroke="midnightblue" points="342.81,-139.64 349.77,-131.65 339.35,-133.55 342.81,-139.64"/>
</g>
<!-- Node8&#45;&gt;Node9 -->
<g id="edge9" class="edge">
<title>Node8&#45;&gt;Node9</title>
<path fill="none" stroke="midnightblue" d="M223.96,-112.44C260.63,-102.92 319.88,-87.54 359.13,-77.35"/>
<polygon fill="midnightblue" stroke="midnightblue" points="360.1,-80.72 368.9,-74.82 358.34,-73.94 360.1,-80.72"/>
</g>
<!-- Node10 -->
<g id="node10" class="node">
<title>Node10</title>
<g id="a_node10"><a xlink:title=" ">
<polygon fill="white" stroke="#bfbfbf" points="115.5,-56.5 115.5,-75.5 160.5,-75.5 160.5,-56.5 115.5,-56.5"/>
<text text-anchor="middle" x="138" y="-63.5" font-family="Helvetica,sans-Serif" font-size="10.00">utility</text>
</a>
</g>
</g>
<!-- Node8&#45;&gt;Node10 -->
<g id="edge10" class="edge">
<title>Node8&#45;&gt;Node10</title>
<path fill="none" stroke="midnightblue" d="M182.25,-112.08C174.53,-104.22 163.1,-92.57 153.78,-83.08"/>
<polygon fill="midnightblue" stroke="midnightblue" points="156.09,-80.44 146.59,-75.75 151.1,-85.34 156.09,-80.44"/>
</g>
<!-- Node11 -->
<g id="node11" class="node">
<title>Node11</title>
<g id="a_node11"><a xlink:title=" ">
<polygon fill="white" stroke="#bfbfbf" points="178.5,-56.5 178.5,-75.5 247.5,-75.5 247.5,-56.5 178.5,-56.5"/>
<text text-anchor="middle" x="213" y="-63.5" font-family="Helvetica,sans-Serif" font-size="10.00">type_traits</text>
</a>
</g>
</g>
<!-- Node8&#45;&gt;Node11 -->
<g id="edge11" class="edge">
<title>Node8&#45;&gt;Node11</title>
<path fill="none" stroke="midnightblue" d="M194.63,-112.08C197.61,-104.77 201.93,-94.18 205.62,-85.1"/>
<polygon fill="midnightblue" stroke="midnightblue" points="208.9,-86.33 209.43,-75.75 202.42,-83.69 208.9,-86.33"/>
</g>
<!-- Node12 -->
<g id="node12" class="node">
<title>Node12</title>
<g id="a_node12"><a xlink:title=" ">
<polygon fill="white" stroke="#bfbfbf" points="265.5,-56.5 265.5,-75.5 350.5,-75.5 350.5,-56.5 265.5,-56.5"/>
<text text-anchor="middle" x="308" y="-63.5" font-family="Helvetica,sans-Serif" font-size="10.00">itkConfigure.h</text>
</a>
</g>
</g>
<!-- Node8&#45;&gt;Node12 -->
<g id="edge12" class="edge">
<title>Node8&#45;&gt;Node12</title>
<path fill="none" stroke="midnightblue" d="M209.54,-112.44C228.62,-103.64 258.57,-89.81 280.44,-79.72"/>
<polygon fill="midnightblue" stroke="midnightblue" points="281.93,-82.88 289.55,-75.52 279,-76.53 281.93,-82.88"/>
</g>
<!-- Node13&#45;&gt;Node2 -->
<g id="edge15" class="edge">
<title>Node13&#45;&gt;Node2</title>
<path fill="none" stroke="midnightblue" d="M545.22,-112.44C600.07,-102.5 690.16,-86.18 746.12,-76.04"/>
<polygon fill="midnightblue" stroke="midnightblue" points="746.94,-79.45 756.15,-74.22 745.69,-72.56 746.94,-79.45"/>
</g>
<!-- Node13&#45;&gt;Node3 -->
<g id="edge14" class="edge">
<title>Node13&#45;&gt;Node3</title>
<path fill="none" stroke="midnightblue" d="M502.64,-112.34C509.22,-98.77 519.07,-72.34 506,-56 486.88,-32.1 403.14,-20 350.26,-14.63"/>
<polygon fill="midnightblue" stroke="midnightblue" points="350.42,-11.13 340.13,-13.65 349.74,-18.1 350.42,-11.13"/>
</g>
<!-- Node13&#45;&gt;Node14 -->
<g id="edge16" class="edge">
<title>Node13&#45;&gt;Node14</title>
<path fill="none" stroke="midnightblue" d="M493.71,-112.08C490.15,-104.69 484.98,-93.95 480.58,-84.81"/>
<polygon fill="midnightblue" stroke="midnightblue" points="483.71,-83.24 476.21,-75.75 477.4,-86.28 483.71,-83.24"/>
</g>
<!-- Node13&#45;&gt;Node15 -->
<g id="edge17" class="edge">
<title>Node13&#45;&gt;Node15</title>
<path fill="none" stroke="midnightblue" d="M515.99,-112.32C534.04,-103.62 562.05,-90.12 582.8,-80.11"/>
<polygon fill="midnightblue" stroke="midnightblue" points="584.56,-83.15 592.05,-75.65 581.52,-76.84 584.56,-83.15"/>
</g>
<!-- Node16&#45;&gt;Node3 -->
<g id="edge19" class="edge">
<title>Node16&#45;&gt;Node3</title>
<path fill="none" stroke="midnightblue" d="M49.58,-112.33C51,-98.23 55.94,-70.48 73,-56 100.85,-32.35 201.94,-19.87 261.42,-14.44"/>
<polygon fill="midnightblue" stroke="midnightblue" points="262.01,-17.9 271.66,-13.53 261.39,-10.93 262.01,-17.9"/>
</g>
<!-- Node16&#45;&gt;Node9 -->
<g id="edge20" class="edge">
<title>Node16&#45;&gt;Node9</title>
<path fill="none" stroke="midnightblue" d="M83.55,-116.87C140.96,-109.81 259.53,-94.38 359,-76 359.1,-75.98 359.2,-75.96 359.3,-75.94"/>
<polygon fill="midnightblue" stroke="midnightblue" points="359.79,-79.42 368.91,-74.03 358.42,-72.55 359.79,-79.42"/>
</g>
<!-- Node18&#45;&gt;Node3 -->
<g id="edge25" class="edge">
<title>Node18&#45;&gt;Node3</title>
<path fill="none" stroke="midnightblue" d="M36.22,-168.37C25.61,-160.36 11.27,-147.38 5,-132 -10.26,-94.56 19.71,-75.73 55,-56 120.39,-19.45 209.01,-11.56 261.57,-10.41"/>
<polygon fill="midnightblue" stroke="midnightblue" points="261.64,-13.91 271.58,-10.26 261.53,-6.91 261.64,-13.91"/>
</g>
<!-- Node18&#45;&gt;Node16 -->
<g id="edge26" class="edge">
<title>Node18&#45;&gt;Node16</title>
<path fill="none" stroke="midnightblue" d="M49,-168.08C49,-161.01 49,-150.86 49,-141.99"/>
<polygon fill="midnightblue" stroke="midnightblue" points="52.5,-141.75 49,-131.75 45.5,-141.75 52.5,-141.75"/>
</g>
<!-- Node20 -->
<g id="node20" class="node">
<title>Node20</title>
<g id="a_node20"><a xlink:href="itkMetaDataObjectBase_8h.html" target="_top" xlink:title=" ">
<polygon fill="white" stroke="black" points="294,-224.5 294,-243.5 436,-243.5 436,-224.5 294,-224.5"/>
<text text-anchor="middle" x="365" y="-231.5" font-family="Helvetica,sans-Serif" font-size="10.00">itkMetaDataObjectBase.h</text>
</a>
</g>
</g>
<!-- Node19&#45;&gt;Node20 -->
<g id="edge28" class="edge">
<title>Node19&#45;&gt;Node20</title>
<path fill="none" stroke="midnightblue" d="M512.27,-280.44C482.57,-271.28 435.28,-256.69 402.33,-246.52"/>
<polygon fill="midnightblue" stroke="midnightblue" points="403.19,-243.12 392.6,-243.52 401.12,-249.81 403.19,-243.12"/>
</g>
<!-- Node21 -->
<g id="node21" class="node">
<title>Node21</title>
<g id="a_node21"><a xlink:title=" ">
<polygon fill="white" stroke="#bfbfbf" points="554,-224.5 554,-243.5 618,-243.5 618,-224.5 554,-224.5"/>
<text text-anchor="middle" x="586" y="-231.5" font-family="Helvetica,sans-Serif" font-size="10.00">algorithm</text>
</a>
</g>
</g>
<!-- Node19&#45;&gt;Node21 -->
<g id="edge32" class="edge">
<title>Node19&#45;&gt;Node21</title>
<path fill="none" stroke="midnightblue" d="M547.6,-280.08C554.23,-272.3 564.02,-260.8 572.06,-251.37"/>
<polygon fill="midnightblue" stroke="midnightblue" points="574.73,-253.63 578.55,-243.75 569.4,-249.09 574.73,-253.63"/>
</g>
<!-- Node22 -->
<g id="node22" class="node">
<title>Node22</title>
<g id="a_node22"><a xlink:title=" ">
<polygon fill="white" stroke="#bfbfbf" points="692.5,-224.5 692.5,-243.5 739.5,-243.5 739.5,-224.5 692.5,-224.5"/>
<text text-anchor="middle" x="716" y="-231.5" font-family="Helvetica,sans-Serif" font-size="10.00">vector</text>
</a>
</g>
</g>
<!-- Node19&#45;&gt;Node22 -->
<g id="edge33" class="edge">
<title>Node19&#45;&gt;Node22</title>
<path fill="none" stroke="midnightblue" d="M567.89,-280.44C599.07,-270.88 649.55,-255.39 682.76,-245.2"/>
<polygon fill="midnightblue" stroke="midnightblue" points="683.93,-248.5 692.47,-242.22 681.88,-241.81 683.93,-248.5"/>
</g>
<!-- Node23 -->
<g id="node23" class="node">
<title>Node23</title>
<g id="a_node23"><a xlink:title=" ">
<polygon fill="white" stroke="#bfbfbf" points="636,-224.5 636,-243.5 674,-243.5 674,-224.5 636,-224.5"/>
<text text-anchor="middle" x="655" y="-231.5" font-family="Helvetica,sans-Serif" font-size="10.00">map</text>
</a>
</g>
</g>
<!-- Node19&#45;&gt;Node23 -->
<g id="edge34" class="edge">
<title>Node19&#45;&gt;Node23</title>
<path fill="none" stroke="midnightblue" d="M558.22,-280.44C576.9,-271.68 606.16,-257.94 627.62,-247.86"/>
<polygon fill="midnightblue" stroke="midnightblue" points="629.3,-250.93 636.86,-243.52 626.32,-244.6 629.3,-250.93"/>
</g>
<!-- Node24 -->
<g id="node24" class="node">
<title>Node24</title>
<g id="a_node24"><a xlink:title=" ">
<polygon fill="white" stroke="#bfbfbf" points="492,-224.5 492,-243.5 536,-243.5 536,-224.5 492,-224.5"/>
<text text-anchor="middle" x="514" y="-231.5" font-family="Helvetica,sans-Serif" font-size="10.00">string</text>
</a>
</g>
</g>
<!-- Node19&#45;&gt;Node24 -->
<g id="edge35" class="edge">
<title>Node19&#45;&gt;Node24</title>
<path fill="none" stroke="midnightblue" d="M535.71,-280.08C532.15,-272.69 526.98,-261.95 522.58,-252.81"/>
<polygon fill="midnightblue" stroke="midnightblue" points="525.71,-251.24 518.21,-243.75 519.4,-254.28 525.71,-251.24"/>
</g>
<!-- Node19&#45;&gt;Node25 -->
<g id="edge36" class="edge">
<title>Node19&#45;&gt;Node25</title>
<path fill="none" stroke="midnightblue" d="M486.59,-280.5C437.1,-272.41 361.21,-259.49 286.12,-244.14"/>
<polygon fill="midnightblue" stroke="midnightblue" points="286.51,-240.64 276.01,-242.05 285.1,-247.5 286.51,-240.64"/>
</g>
<!-- Node20&#45;&gt;Node7 -->
<g id="edge29" class="edge">
<title>Node20&#45;&gt;Node7</title>
<path fill="none" stroke="midnightblue" d="M349.74,-224.32C334.78,-215.82 311.75,-202.73 294.27,-192.8"/>
<polygon fill="midnightblue" stroke="midnightblue" points="295.65,-189.55 285.23,-187.65 292.19,-195.64 295.65,-189.55"/>
</g>
<!-- Node20&#45;&gt;Node9 -->
<g id="edge31" class="edge">
<title>Node20&#45;&gt;Node9</title>
<path fill="none" stroke="midnightblue" d="M369.35,-224.37C377.69,-207.28 395.67,-167.67 402,-132 403.55,-123.25 402.3,-120.88 402,-112 401.71,-103.38 401.12,-93.85 400.53,-85.79"/>
<polygon fill="midnightblue" stroke="midnightblue" points="404.01,-85.32 399.75,-75.62 397.03,-85.86 404.01,-85.32"/>
</g>
<!-- Node20&#45;&gt;Node17 -->
<g id="edge30" class="edge">
<title>Node20&#45;&gt;Node17</title>
<path fill="none" stroke="midnightblue" d="M365,-224.37C365,-206.62 365,-165.67 365,-141.6"/>
<polygon fill="midnightblue" stroke="midnightblue" points="368.5,-141.59 365,-131.59 361.5,-141.59 368.5,-141.59"/>
</g>
<!-- Node28 -->
<g id="node28" class="node">
<title>Node28</title>
<g id="a_node28"><a xlink:href="itkObjectFactoryBase_8h.html" target="_top" xlink:title=" ">
<polygon fill="white" stroke="black" points="654.5,-448.5 654.5,-467.5 783.5,-467.5 783.5,-448.5 654.5,-448.5"/>
<text text-anchor="middle" x="719" y="-455.5" font-family="Helvetica,sans-Serif" font-size="10.00">itkObjectFactoryBase.h</text>
</a>
</g>
</g>
<!-- Node27&#45;&gt;Node28 -->
<g id="edge41" class="edge">
<title>Node27&#45;&gt;Node28</title>
<path fill="none" stroke="midnightblue" d="M773.56,-504.32C763.85,-496.26 749.18,-484.08 737.5,-474.37"/>
<polygon fill="midnightblue" stroke="midnightblue" points="739.56,-471.53 729.63,-467.83 735.09,-476.92 739.56,-471.53"/>
</g>
<!-- Node28&#45;&gt;Node15 -->
<g id="edge44" class="edge">
<title>Node28&#45;&gt;Node15</title>
<path fill="none" stroke="midnightblue" d="M722.99,-448.19C736.67,-416.63 779.21,-306.77 748,-224 724.24,-160.99 662.43,-106.84 630.2,-81.81"/>
<polygon fill="midnightblue" stroke="midnightblue" points="632.03,-78.8 621.95,-75.54 627.8,-84.38 632.03,-78.8"/>
</g>
<!-- Node28&#45;&gt;Node22 -->
<g id="edge50" class="edge">
<title>Node28&#45;&gt;Node22</title>
<path fill="none" stroke="midnightblue" d="M718.88,-448.3C718.44,-415.63 716.88,-299.87 716.26,-253.96"/>
<polygon fill="midnightblue" stroke="midnightblue" points="719.75,-253.84 716.12,-243.88 712.76,-253.93 719.75,-253.84"/>
</g>
<!-- Node28&#45;&gt;Node25 -->
<g id="edge49" class="edge">
<title>Node28&#45;&gt;Node25</title>
<path fill="none" stroke="midnightblue" d="M654.45,-457.17C595.34,-454.95 506.85,-445.52 438,-412 357.44,-372.78 287.13,-288.19 259.49,-251.99"/>
<polygon fill="midnightblue" stroke="midnightblue" points="262.21,-249.78 253.4,-243.89 256.61,-253.99 262.21,-249.78"/>
</g>
<!-- Node29 -->
<g id="node29" class="node">
<title>Node29</title>
<g id="a_node29"><a xlink:href="itkCreateObjectFunction_8h.html" target="_top" xlink:title=" ">
<polygon fill="white" stroke="black" points="447.5,-392.5 447.5,-411.5 590.5,-411.5 590.5,-392.5 447.5,-392.5"/>
<text text-anchor="middle" x="519" y="-399.5" font-family="Helvetica,sans-Serif" font-size="10.00">itkCreateObjectFunction.h</text>
</a>
</g>
</g>
<!-- Node28&#45;&gt;Node29 -->
<g id="edge42" class="edge">
<title>Node28&#45;&gt;Node29</title>
<path fill="none" stroke="midnightblue" d="M687.31,-448.44C652.93,-439.16 597.92,-424.31 560.21,-414.13"/>
<polygon fill="midnightblue" stroke="midnightblue" points="561.11,-410.74 550.54,-411.52 559.28,-417.5 561.11,-410.74"/>
</g>
<!-- Node30 -->
<g id="node30" class="node">
<title>Node30</title>
<g id="a_node30"><a xlink:href="itkCommonEnums_8h.html" target="_top" xlink:title=" ">
<polygon fill="white" stroke="black" points="785,-392.5 785,-411.5 901,-411.5 901,-392.5 785,-392.5"/>
<text text-anchor="middle" x="843" y="-399.5" font-family="Helvetica,sans-Serif" font-size="10.00">itkCommonEnums.h</text>
</a>
</g>
</g>
<!-- Node28&#45;&gt;Node30 -->
<g id="edge45" class="edge">
<title>Node28&#45;&gt;Node30</title>
<path fill="none" stroke="midnightblue" d="M738.65,-448.44C758.96,-439.6 790.9,-425.69 814.1,-415.59"/>
<polygon fill="midnightblue" stroke="midnightblue" points="815.67,-418.72 823.44,-411.52 812.88,-412.3 815.67,-418.72"/>
</g>
<!-- Node32 -->
<g id="node32" class="node">
<title>Node32</title>
<g id="a_node32"><a xlink:title=" ">
<polygon fill="white" stroke="#bfbfbf" points="659,-392.5 659,-411.5 691,-411.5 691,-392.5 659,-392.5"/>
<text text-anchor="middle" x="675" y="-399.5" font-family="Helvetica,sans-Serif" font-size="10.00">list</text>
</a>
</g>
</g>
<!-- Node28&#45;&gt;Node32 -->
<g id="edge48" class="edge">
<title>Node28&#45;&gt;Node32</title>
<path fill="none" stroke="midnightblue" d="M711.73,-448.08C705.46,-440.38 696.21,-429.03 688.57,-419.65"/>
<polygon fill="midnightblue" stroke="midnightblue" points="691.16,-417.29 682.13,-411.75 685.73,-421.71 691.16,-417.29"/>
</g>
<!-- Node29&#45;&gt;Node6 -->
<g id="edge43" class="edge">
<title>Node29&#45;&gt;Node6</title>
<path fill="none" stroke="midnightblue" d="M505.83,-392.32C493.15,-383.98 473.77,-371.21 458.79,-361.35"/>
<polygon fill="midnightblue" stroke="midnightblue" points="460.42,-358.23 450.14,-355.65 456.57,-364.08 460.42,-358.23"/>
</g>
<!-- Node30&#45;&gt;Node2 -->
<g id="edge46" class="edge">
<title>Node30&#45;&gt;Node2</title>
<path fill="none" stroke="midnightblue" d="M846.78,-392.35C854.42,-374.03 871,-329.82 871,-291 871,-291 871,-291 871,-177 871,-137.44 837.48,-101.62 815.26,-82.21"/>
<polygon fill="midnightblue" stroke="midnightblue" points="817.3,-79.35 807.39,-75.6 812.8,-84.71 817.3,-79.35"/>
</g>
<!-- Node31 -->
<g id="node31" class="node">
<title>Node31</title>
<g id="a_node31"><a xlink:title=" ">
<polygon fill="white" stroke="#bfbfbf" points="785.5,-336.5 785.5,-355.5 842.5,-355.5 842.5,-336.5 785.5,-336.5"/>
<text text-anchor="middle" x="814" y="-343.5" font-family="Helvetica,sans-Serif" font-size="10.00">ostream</text>
</a>
</g>
</g>
<!-- Node30&#45;&gt;Node31 -->
<g id="edge47" class="edge">
<title>Node30&#45;&gt;Node31</title>
<path fill="none" stroke="midnightblue" d="M838.21,-392.08C834.24,-384.69 828.47,-373.95 823.57,-364.81"/>
<polygon fill="midnightblue" stroke="midnightblue" points="826.51,-362.91 818.7,-355.75 820.35,-366.22 826.51,-362.91"/>
</g>
<!-- Node33&#45;&gt;Node3 -->
<g id="edge52" class="edge">
<title>Node33&#45;&gt;Node3</title>
<path fill="none" stroke="midnightblue" d="M1004.88,-504.35C992.79,-486.38 967,-443.31 967,-403 967,-403 967,-403 967,-121 967,-59.17 903.34,-73.37 844,-56 751.74,-28.99 461.9,-16.37 350.35,-12.42"/>
<polygon fill="midnightblue" stroke="midnightblue" points="350.24,-8.92 340.13,-12.07 350,-15.91 350.24,-8.92"/>
</g>
<!-- Node34 -->
<g id="node34" class="node">
<title>Node34</title>
<g id="a_node34"><a xlink:title=" ">
<polygon fill="white" stroke="#bfbfbf" points="1089,-448.5 1089,-467.5 1171,-467.5 1171,-448.5 1089,-448.5"/>
<text text-anchor="middle" x="1130" y="-455.5" font-family="Helvetica,sans-Serif" font-size="10.00">vxl_version.h</text>
</a>
</g>
</g>
<!-- Node33&#45;&gt;Node34 -->
<g id="edge53" class="edge">
<title>Node33&#45;&gt;Node34</title>
<path fill="none" stroke="midnightblue" d="M1029.86,-504.44C1049.27,-495.64 1079.73,-481.81 1101.96,-471.72"/>
<polygon fill="midnightblue" stroke="midnightblue" points="1103.57,-474.84 1111.23,-467.52 1100.68,-468.46 1103.57,-474.84"/>
</g>
<!-- Node35 -->
<g id="node35" class="node">
<title>Node35</title>
<g id="a_node35"><a xlink:title=" ">
<polygon fill="white" stroke="#bfbfbf" points="1189,-448.5 1189,-467.5 1283,-467.5 1283,-448.5 1189,-448.5"/>
<text text-anchor="middle" x="1236" y="-455.5" font-family="Helvetica,sans-Serif" font-size="10.00">vnl/vnl_vector.h</text>
</a>
</g>
</g>
<!-- Node33&#45;&gt;Node35 -->
<g id="edge54" class="edge">
<title>Node33&#45;&gt;Node35</title>
<path fill="none" stroke="midnightblue" d="M1042.76,-505.38C1081.31,-496.13 1146.58,-480.46 1190.47,-469.93"/>
<polygon fill="midnightblue" stroke="midnightblue" points="1191.41,-473.3 1200.32,-467.56 1189.78,-466.49 1191.41,-473.3"/>
</g>
<!-- Node36 -->
<g id="node36" class="node">
<title>Node36</title>
<g id="a_node36"><a xlink:title=" ">
<polygon fill="white" stroke="#bfbfbf" points="995.5,-448.5 995.5,-467.5 1070.5,-467.5 1070.5,-448.5 995.5,-448.5"/>
<text text-anchor="middle" x="1033" y="-455.5" font-family="Helvetica,sans-Serif" font-size="10.00">itkArray.hxx</text>
</a>
</g>
</g>
<!-- Node33&#45;&gt;Node36 -->
<g id="edge55" class="edge">
<title>Node33&#45;&gt;Node36</title>
<path fill="none" stroke="midnightblue" d="M1014.63,-504.08C1017.61,-496.77 1021.93,-486.18 1025.62,-477.1"/>
<polygon fill="midnightblue" stroke="midnightblue" points="1028.9,-478.33 1029.43,-467.75 1022.42,-475.69 1028.9,-478.33"/>
</g>
</g>
</svg>
