<?xml version="1.0" encoding="UTF-8" standalone="no"?>
<!DOCTYPE svg PUBLIC "-//W3C//DTD SVG 1.1//EN"
 "http://www.w3.org/Graphics/SVG/1.1/DTD/svg11.dtd">
<!-- Generated by graphviz version 2.43.0 (0)
 -->
<!-- Title: itkProgressAccumulator.h Pages: 1 -->
<svg width="1750pt" height="711pt"
 viewBox="0.00 0.00 1750.00 711.00" xmlns="http://www.w3.org/2000/svg" xmlns:xlink="http://www.w3.org/1999/xlink">
<g id="graph0" class="graph" transform="scale(1 1) rotate(0) translate(4 707)">
<title>itkProgressAccumulator.h</title>
<polygon fill="white" stroke="transparent" points="-4,4 -4,-707 1746,-707 1746,4 -4,4"/>
<!-- Node1 -->
<g id="node1" class="node">
<title>Node1</title>
<g id="a_node1"><a xlink:title=" ">
<polygon fill="#bfbfbf" stroke="black" points="461.5,-683.5 461.5,-702.5 602.5,-702.5 602.5,-683.5 461.5,-683.5"/>
<text text-anchor="middle" x="532" y="-690.5" font-family="Helvetica,sans-Serif" font-size="10.00">itkProgressAccumulator.h</text>
</a>
</g>
</g>
<!-- Node2 -->
<g id="node2" class="node">
<title>Node2</title>
<g id="a_node2"><a xlink:href="itkCommand_8h.html" target="_top" xlink:title=" ">
<polygon fill="white" stroke="black" points="487.5,-571.5 487.5,-590.5 576.5,-590.5 576.5,-571.5 487.5,-571.5"/>
<text text-anchor="middle" x="532" y="-578.5" font-family="Helvetica,sans-Serif" font-size="10.00">itkCommand.h</text>
</a>
</g>
</g>
<!-- Node1&#45;&gt;Node2 -->
<g id="edge1" class="edge">
<title>Node1&#45;&gt;Node2</title>
<path fill="none" stroke="midnightblue" d="M532,-683.37C532,-665.62 532,-624.67 532,-600.6"/>
<polygon fill="midnightblue" stroke="midnightblue" points="535.5,-600.59 532,-590.59 528.5,-600.59 535.5,-600.59"/>
</g>
<!-- Node23 -->
<g id="node23" class="node">
<title>Node23</title>
<g id="a_node23"><a xlink:title=" ">
<polygon fill="white" stroke="#bfbfbf" points="33.5,-230 33.5,-249 80.5,-249 80.5,-230 33.5,-230"/>
<text text-anchor="middle" x="57" y="-237" font-family="Helvetica,sans-Serif" font-size="10.00">vector</text>
</a>
</g>
</g>
<!-- Node1&#45;&gt;Node23 -->
<g id="edge86" class="edge">
<title>Node1&#45;&gt;Node23</title>
<path fill="none" stroke="midnightblue" d="M461.35,-691.98C316.64,-690.04 0,-675.14 0,-582 0,-582 0,-582 0,-356 0,-317.28 26.07,-278.1 42.95,-256.8"/>
<polygon fill="midnightblue" stroke="midnightblue" points="45.67,-259.01 49.31,-249.06 40.26,-254.56 45.67,-259.01"/>
</g>
<!-- Node34 -->
<g id="node34" class="node">
<title>Node34</title>
<g id="a_node34"><a xlink:href="itkProcessObject_8h.html" target="_top" xlink:title=" ">
<polygon fill="white" stroke="black" points="686.5,-627.5 686.5,-646.5 793.5,-646.5 793.5,-627.5 686.5,-627.5"/>
<text text-anchor="middle" x="740" y="-634.5" font-family="Helvetica,sans-Serif" font-size="10.00">itkProcessObject.h</text>
</a>
</g>
</g>
<!-- Node1&#45;&gt;Node34 -->
<g id="edge49" class="edge">
<title>Node1&#45;&gt;Node34</title>
<path fill="none" stroke="midnightblue" d="M564.96,-683.44C600.79,-674.14 658.16,-659.25 697.39,-649.06"/>
<polygon fill="midnightblue" stroke="midnightblue" points="698.4,-652.42 707.2,-646.52 696.64,-645.64 698.4,-652.42"/>
</g>
<!-- Node3 -->
<g id="node3" class="node">
<title>Node3</title>
<g id="a_node3"><a xlink:href="itkObject_8h.html" target="_top" xlink:title=" ">
<polygon fill="white" stroke="black" points="501,-347.5 501,-366.5 571,-366.5 571,-347.5 501,-347.5"/>
<text text-anchor="middle" x="536" y="-354.5" font-family="Helvetica,sans-Serif" font-size="10.00">itkObject.h</text>
</a>
</g>
</g>
<!-- Node2&#45;&gt;Node3 -->
<g id="edge2" class="edge">
<title>Node2&#45;&gt;Node3</title>
<path fill="none" stroke="midnightblue" d="M532.16,-571.3C532.75,-538.63 534.83,-422.87 535.66,-376.96"/>
<polygon fill="midnightblue" stroke="midnightblue" points="539.16,-376.95 535.84,-366.88 532.16,-376.82 539.16,-376.95"/>
</g>
<!-- Node27 -->
<g id="node27" class="node">
<title>Node27</title>
<g id="a_node27"><a xlink:title=" ">
<polygon fill="white" stroke="#bfbfbf" points="232.5,-291.5 232.5,-310.5 297.5,-310.5 297.5,-291.5 232.5,-291.5"/>
<text text-anchor="middle" x="265" y="-298.5" font-family="Helvetica,sans-Serif" font-size="10.00">functional</text>
</a>
</g>
</g>
<!-- Node2&#45;&gt;Node27 -->
<g id="edge48" class="edge">
<title>Node2&#45;&gt;Node27</title>
<path fill="none" stroke="midnightblue" d="M487.25,-575.03C421.27,-565.81 296.47,-541.02 211,-479 161.49,-443.07 139.04,-398.54 172,-347 183.36,-329.24 203.88,-318.31 222.77,-311.67"/>
<polygon fill="midnightblue" stroke="midnightblue" points="223.98,-314.96 232.44,-308.58 221.85,-308.29 223.98,-314.96"/>
</g>
<!-- Node28 -->
<g id="node28" class="node">
<title>Node28</title>
<g id="a_node28"><a xlink:href="itkObjectFactory_8h.html" target="_top" xlink:title=" ">
<polygon fill="white" stroke="black" points="560,-515.5 560,-534.5 664,-534.5 664,-515.5 560,-515.5"/>
<text text-anchor="middle" x="612" y="-522.5" font-family="Helvetica,sans-Serif" font-size="10.00">itkObjectFactory.h</text>
</a>
</g>
</g>
<!-- Node2&#45;&gt;Node28 -->
<g id="edge38" class="edge">
<title>Node2&#45;&gt;Node28</title>
<path fill="none" stroke="midnightblue" d="M544.85,-571.32C557.22,-562.98 576.13,-550.21 590.74,-540.35"/>
<polygon fill="midnightblue" stroke="midnightblue" points="592.85,-543.15 599.18,-534.65 588.93,-537.35 592.85,-543.15"/>
</g>
<!-- Node4 -->
<g id="node4" class="node">
<title>Node4</title>
<g id="a_node4"><a xlink:href="itkLightObject_8h.html" target="_top" xlink:title=" ">
<polygon fill="white" stroke="black" points="498,-168.5 498,-187.5 592,-187.5 592,-168.5 498,-168.5"/>
<text text-anchor="middle" x="545" y="-175.5" font-family="Helvetica,sans-Serif" font-size="10.00">itkLightObject.h</text>
</a>
</g>
</g>
<!-- Node3&#45;&gt;Node4 -->
<g id="edge3" class="edge">
<title>Node3&#45;&gt;Node4</title>
<path fill="none" stroke="midnightblue" d="M562.98,-347.41C580.23,-340.44 601.48,-328.81 613,-311 626.6,-289.98 617.66,-280 619,-255 619.73,-241.24 625.75,-236.01 619,-224 610.78,-209.38 595.67,-198.95 581.24,-191.85"/>
<polygon fill="midnightblue" stroke="midnightblue" points="582.48,-188.57 571.93,-187.64 579.6,-194.95 582.48,-188.57"/>
</g>
<!-- Node16 -->
<g id="node16" class="node">
<title>Node16</title>
<g id="a_node16"><a xlink:href="itkSingletonMacro_8h.html" target="_top" xlink:title=" ">
<polygon fill="white" stroke="black" points="192,-56.5 192,-75.5 306,-75.5 306,-56.5 192,-56.5"/>
<text text-anchor="middle" x="249" y="-63.5" font-family="Helvetica,sans-Serif" font-size="10.00">itkSingletonMacro.h</text>
</a>
</g>
</g>
<!-- Node3&#45;&gt;Node16 -->
<g id="edge36" class="edge">
<title>Node3&#45;&gt;Node16</title>
<path fill="none" stroke="midnightblue" d="M500.64,-353.23C444.59,-346.76 336.53,-325.33 286,-255 248.52,-202.83 246.53,-122.4 247.82,-86.02"/>
<polygon fill="midnightblue" stroke="midnightblue" points="251.32,-86.01 248.31,-75.85 244.33,-85.67 251.32,-86.01"/>
</g>
<!-- Node19 -->
<g id="node19" class="node">
<title>Node19</title>
<g id="a_node19"><a xlink:href="itkEventObject_8h.html" target="_top" xlink:title=" ">
<polygon fill="white" stroke="black" points="781,-168.5 781,-187.5 879,-187.5 879,-168.5 781,-168.5"/>
<text text-anchor="middle" x="830" y="-175.5" font-family="Helvetica,sans-Serif" font-size="10.00">itkEventObject.h</text>
</a>
</g>
</g>
<!-- Node3&#45;&gt;Node19 -->
<g id="edge24" class="edge">
<title>Node3&#45;&gt;Node19</title>
<path fill="none" stroke="midnightblue" d="M559.7,-347.44C579.54,-339.65 608.03,-326.94 630,-311 673.25,-279.62 668.54,-253.65 713,-224 735.58,-208.95 763.92,-197.88 787.05,-190.49"/>
<polygon fill="midnightblue" stroke="midnightblue" points="788.09,-193.83 796.61,-187.55 786.03,-187.14 788.09,-193.83"/>
</g>
<!-- Node20 -->
<g id="node20" class="node">
<title>Node20</title>
<g id="a_node20"><a xlink:href="itkMetaDataDictionary_8h.html" target="_top" xlink:title=" ">
<polygon fill="white" stroke="black" points="468.5,-291.5 468.5,-310.5 603.5,-310.5 603.5,-291.5 468.5,-291.5"/>
<text text-anchor="middle" x="536" y="-298.5" font-family="Helvetica,sans-Serif" font-size="10.00">itkMetaDataDictionary.h</text>
</a>
</g>
</g>
<!-- Node3&#45;&gt;Node20 -->
<g id="edge26" class="edge">
<title>Node3&#45;&gt;Node20</title>
<path fill="none" stroke="midnightblue" d="M536,-347.08C536,-340.01 536,-329.86 536,-320.99"/>
<polygon fill="midnightblue" stroke="midnightblue" points="539.5,-320.75 536,-310.75 532.5,-320.75 539.5,-320.75"/>
</g>
<!-- Node3&#45;&gt;Node27 -->
<g id="edge37" class="edge">
<title>Node3&#45;&gt;Node27</title>
<path fill="none" stroke="midnightblue" d="M500.85,-349C451.2,-339.1 360.67,-321.06 307.37,-310.44"/>
<polygon fill="midnightblue" stroke="midnightblue" points="308.04,-307.01 297.55,-308.49 306.67,-313.87 308.04,-307.01"/>
</g>
<!-- Node5 -->
<g id="node5" class="node">
<title>Node5</title>
<g id="a_node5"><a xlink:href="itkMacro_8h.html" target="_top" xlink:title=" ">
<polygon fill="white" stroke="black" points="978,-0.5 978,-19.5 1046,-19.5 1046,-0.5 978,-0.5"/>
<text text-anchor="middle" x="1012" y="-7.5" font-family="Helvetica,sans-Serif" font-size="10.00">itkMacro.h</text>
</a>
</g>
</g>
<!-- Node4&#45;&gt;Node5 -->
<g id="edge4" class="edge">
<title>Node4&#45;&gt;Node5</title>
<path fill="none" stroke="midnightblue" d="M543.97,-168.32C541.86,-145.83 539.69,-85.38 573,-56 602.23,-30.22 862.33,-16.99 967.83,-12.65"/>
<polygon fill="midnightblue" stroke="midnightblue" points="967.99,-16.15 977.84,-12.25 967.71,-9.15 967.99,-16.15"/>
</g>
<!-- Node6 -->
<g id="node6" class="node">
<title>Node6</title>
<g id="a_node6"><a xlink:href="itkSmartPointer_8h.html" target="_top" xlink:title=" ">
<polygon fill="white" stroke="black" points="573.5,-112.5 573.5,-131.5 674.5,-131.5 674.5,-112.5 573.5,-112.5"/>
<text text-anchor="middle" x="624" y="-119.5" font-family="Helvetica,sans-Serif" font-size="10.00">itkSmartPointer.h</text>
</a>
</g>
</g>
<!-- Node4&#45;&gt;Node6 -->
<g id="edge5" class="edge">
<title>Node4&#45;&gt;Node6</title>
<path fill="none" stroke="midnightblue" d="M557.69,-168.32C569.9,-159.98 588.58,-147.21 603,-137.35"/>
<polygon fill="midnightblue" stroke="midnightblue" points="605.06,-140.19 611.34,-131.65 601.11,-134.41 605.06,-140.19"/>
</g>
<!-- Node7 -->
<g id="node7" class="node">
<title>Node7</title>
<g id="a_node7"><a xlink:title=" ">
<polygon fill="white" stroke="#bfbfbf" points="798,-56.5 798,-75.5 858,-75.5 858,-56.5 798,-56.5"/>
<text text-anchor="middle" x="828" y="-63.5" font-family="Helvetica,sans-Serif" font-size="10.00">iostream</text>
</a>
</g>
</g>
<!-- Node4&#45;&gt;Node7 -->
<g id="edge22" class="edge">
<title>Node4&#45;&gt;Node7</title>
<path fill="none" stroke="midnightblue" d="M592.23,-176.32C640.21,-173.71 715.22,-164.21 771,-132 790.83,-120.55 807.27,-99.66 817.32,-84.65"/>
<polygon fill="midnightblue" stroke="midnightblue" points="820.54,-86.1 822.97,-75.79 814.64,-82.34 820.54,-86.1"/>
</g>
<!-- Node11 -->
<g id="node11" class="node">
<title>Node11</title>
<g id="a_node11"><a xlink:href="itkTimeStamp_8h.html" target="_top" xlink:title=" ">
<polygon fill="white" stroke="black" points="383.5,-112.5 383.5,-131.5 478.5,-131.5 478.5,-112.5 383.5,-112.5"/>
<text text-anchor="middle" x="431" y="-119.5" font-family="Helvetica,sans-Serif" font-size="10.00">itkTimeStamp.h</text>
</a>
</g>
</g>
<!-- Node4&#45;&gt;Node11 -->
<g id="edge10" class="edge">
<title>Node4&#45;&gt;Node11</title>
<path fill="none" stroke="midnightblue" d="M526.94,-168.44C508.43,-159.68 479.42,-145.94 458.14,-135.86"/>
<polygon fill="midnightblue" stroke="midnightblue" points="459.51,-132.63 448.98,-131.52 456.52,-138.96 459.51,-132.63"/>
</g>
<!-- Node15 -->
<g id="node15" class="node">
<title>Node15</title>
<g id="a_node15"><a xlink:title=" ">
<polygon fill="white" stroke="#bfbfbf" points="467,-56.5 467,-75.5 517,-75.5 517,-56.5 467,-56.5"/>
<text text-anchor="middle" x="492" y="-63.5" font-family="Helvetica,sans-Serif" font-size="10.00">atomic</text>
</a>
</g>
</g>
<!-- Node4&#45;&gt;Node15 -->
<g id="edge21" class="edge">
<title>Node4&#45;&gt;Node15</title>
<path fill="none" stroke="midnightblue" d="M540.84,-168.37C532.17,-150.38 512.02,-108.55 500.49,-84.63"/>
<polygon fill="midnightblue" stroke="midnightblue" points="503.63,-83.08 496.14,-75.59 497.33,-86.12 503.63,-83.08"/>
</g>
<!-- Node17 -->
<g id="node17" class="node">
<title>Node17</title>
<g id="a_node17"><a xlink:href="itkIndent_8h.html" target="_top" xlink:title=" ">
<polygon fill="white" stroke="black" points="692.5,-112.5 692.5,-131.5 761.5,-131.5 761.5,-112.5 692.5,-112.5"/>
<text text-anchor="middle" x="727" y="-119.5" font-family="Helvetica,sans-Serif" font-size="10.00">itkIndent.h</text>
</a>
</g>
</g>
<!-- Node4&#45;&gt;Node17 -->
<g id="edge18" class="edge">
<title>Node4&#45;&gt;Node17</title>
<path fill="none" stroke="midnightblue" d="M573.84,-168.44C604.86,-159.24 654.33,-144.56 688.62,-134.39"/>
<polygon fill="midnightblue" stroke="midnightblue" points="689.71,-137.72 698.3,-131.52 687.71,-131.01 689.71,-137.72"/>
</g>
<!-- Node18 -->
<g id="node18" class="node">
<title>Node18</title>
<g id="a_node18"><a xlink:title=" ">
<polygon fill="white" stroke="#bfbfbf" points="308.5,-112.5 308.5,-131.5 365.5,-131.5 365.5,-112.5 308.5,-112.5"/>
<text text-anchor="middle" x="337" y="-119.5" font-family="Helvetica,sans-Serif" font-size="10.00">typeinfo</text>
</a>
</g>
</g>
<!-- Node4&#45;&gt;Node18 -->
<g id="edge23" class="edge">
<title>Node4&#45;&gt;Node18</title>
<path fill="none" stroke="midnightblue" d="M512.04,-168.44C474.95,-158.81 414.76,-143.19 375.53,-133"/>
<polygon fill="midnightblue" stroke="midnightblue" points="376.34,-129.6 365.78,-130.47 374.58,-136.37 376.34,-129.6"/>
</g>
<!-- Node6&#45;&gt;Node7 -->
<g id="edge6" class="edge">
<title>Node6&#45;&gt;Node7</title>
<path fill="none" stroke="midnightblue" d="M656.32,-112.44C692.01,-103 749.49,-87.78 787.98,-77.59"/>
<polygon fill="midnightblue" stroke="midnightblue" points="789.05,-80.93 797.82,-74.99 787.26,-74.16 789.05,-80.93"/>
</g>
<!-- Node8 -->
<g id="node8" class="node">
<title>Node8</title>
<g id="a_node8"><a xlink:title=" ">
<polygon fill="white" stroke="#bfbfbf" points="668.5,-56.5 668.5,-75.5 713.5,-75.5 713.5,-56.5 668.5,-56.5"/>
<text text-anchor="middle" x="691" y="-63.5" font-family="Helvetica,sans-Serif" font-size="10.00">utility</text>
</a>
</g>
</g>
<!-- Node6&#45;&gt;Node8 -->
<g id="edge7" class="edge">
<title>Node6&#45;&gt;Node8</title>
<path fill="none" stroke="midnightblue" d="M634.76,-112.32C644.77,-104.26 659.89,-92.08 671.93,-82.37"/>
<polygon fill="midnightblue" stroke="midnightblue" points="674.45,-84.83 680.04,-75.83 670.06,-79.38 674.45,-84.83"/>
</g>
<!-- Node9 -->
<g id="node9" class="node">
<title>Node9</title>
<g id="a_node9"><a xlink:title=" ">
<polygon fill="white" stroke="#bfbfbf" points="581.5,-56.5 581.5,-75.5 650.5,-75.5 650.5,-56.5 581.5,-56.5"/>
<text text-anchor="middle" x="616" y="-63.5" font-family="Helvetica,sans-Serif" font-size="10.00">type_traits</text>
</a>
</g>
</g>
<!-- Node6&#45;&gt;Node9 -->
<g id="edge8" class="edge">
<title>Node6&#45;&gt;Node9</title>
<path fill="none" stroke="midnightblue" d="M622.68,-112.08C621.62,-104.93 620.09,-94.64 618.77,-85.69"/>
<polygon fill="midnightblue" stroke="midnightblue" points="622.22,-85.13 617.3,-75.75 615.3,-86.16 622.22,-85.13"/>
</g>
<!-- Node10 -->
<g id="node10" class="node">
<title>Node10</title>
<g id="a_node10"><a xlink:title=" ">
<polygon fill="white" stroke="#bfbfbf" points="1072.5,-56.5 1072.5,-75.5 1157.5,-75.5 1157.5,-56.5 1072.5,-56.5"/>
<text text-anchor="middle" x="1115" y="-63.5" font-family="Helvetica,sans-Serif" font-size="10.00">itkConfigure.h</text>
</a>
</g>
</g>
<!-- Node6&#45;&gt;Node10 -->
<g id="edge9" class="edge">
<title>Node6&#45;&gt;Node10</title>
<path fill="none" stroke="midnightblue" d="M674.72,-113.23C677.86,-112.8 680.97,-112.39 684,-112 820.16,-94.69 981.16,-79.2 1062.43,-71.72"/>
<polygon fill="midnightblue" stroke="midnightblue" points="1062.77,-75.21 1072.41,-70.81 1062.13,-68.23 1062.77,-75.21"/>
</g>
<!-- Node11&#45;&gt;Node5 -->
<g id="edge11" class="edge">
<title>Node11&#45;&gt;Node5</title>
<path fill="none" stroke="midnightblue" d="M431.83,-112.08C433.7,-97.63 439.62,-69.37 458,-56 498.85,-26.28 843.53,-15.07 967.67,-11.98"/>
<polygon fill="midnightblue" stroke="midnightblue" points="968.03,-15.47 977.95,-11.73 967.86,-8.47 968.03,-15.47"/>
</g>
<!-- Node12 -->
<g id="node12" class="node">
<title>Node12</title>
<g id="a_node12"><a xlink:href="itkIntTypes_8h.html" target="_top" xlink:title=" ">
<polygon fill="white" stroke="black" points="331.5,-56.5 331.5,-75.5 410.5,-75.5 410.5,-56.5 331.5,-56.5"/>
<text text-anchor="middle" x="371" y="-63.5" font-family="Helvetica,sans-Serif" font-size="10.00">itkIntTypes.h</text>
</a>
</g>
</g>
<!-- Node11&#45;&gt;Node12 -->
<g id="edge12" class="edge">
<title>Node11&#45;&gt;Node12</title>
<path fill="none" stroke="midnightblue" d="M421.36,-112.32C412.49,-104.34 399.13,-92.31 388.39,-82.65"/>
<polygon fill="midnightblue" stroke="midnightblue" points="390.59,-79.92 380.82,-75.83 385.91,-85.13 390.59,-79.92"/>
</g>
<!-- Node11&#45;&gt;Node15 -->
<g id="edge16" class="edge">
<title>Node11&#45;&gt;Node15</title>
<path fill="none" stroke="midnightblue" d="M440.8,-112.32C449.82,-104.34 463.41,-92.31 474.32,-82.65"/>
<polygon fill="midnightblue" stroke="midnightblue" points="476.85,-85.08 482.02,-75.83 472.21,-79.84 476.85,-85.08"/>
</g>
<!-- Node11&#45;&gt;Node16 -->
<g id="edge17" class="edge">
<title>Node11&#45;&gt;Node16</title>
<path fill="none" stroke="midnightblue" d="M402.16,-112.44C371.14,-103.24 321.67,-88.56 287.38,-78.39"/>
<polygon fill="midnightblue" stroke="midnightblue" points="288.29,-75.01 277.7,-75.52 286.29,-81.72 288.29,-75.01"/>
</g>
<!-- Node12&#45;&gt;Node5 -->
<g id="edge13" class="edge">
<title>Node12&#45;&gt;Node5</title>
<path fill="none" stroke="midnightblue" d="M410.75,-57.96C415.55,-57.24 420.38,-56.56 425,-56 626.91,-31.48 869.61,-17.89 967.68,-13.05"/>
<polygon fill="midnightblue" stroke="midnightblue" points="968,-16.54 977.82,-12.56 967.66,-9.55 968,-16.54"/>
</g>
<!-- Node13 -->
<g id="node13" class="node">
<title>Node13</title>
<g id="a_node13"><a xlink:title=" ">
<polygon fill="white" stroke="#bfbfbf" points="312,-0.5 312,-19.5 362,-19.5 362,-0.5 312,-0.5"/>
<text text-anchor="middle" x="337" y="-7.5" font-family="Helvetica,sans-Serif" font-size="10.00">cstdint</text>
</a>
</g>
</g>
<!-- Node12&#45;&gt;Node13 -->
<g id="edge14" class="edge">
<title>Node12&#45;&gt;Node13</title>
<path fill="none" stroke="midnightblue" d="M365.39,-56.08C360.63,-48.53 353.68,-37.49 347.85,-28.23"/>
<polygon fill="midnightblue" stroke="midnightblue" points="350.8,-26.35 342.51,-19.75 344.88,-30.08 350.8,-26.35"/>
</g>
<!-- Node14 -->
<g id="node14" class="node">
<title>Node14</title>
<g id="a_node14"><a xlink:title=" ">
<polygon fill="white" stroke="#bfbfbf" points="380,-0.5 380,-19.5 430,-19.5 430,-0.5 380,-0.5"/>
<text text-anchor="middle" x="405" y="-7.5" font-family="Helvetica,sans-Serif" font-size="10.00">climits</text>
</a>
</g>
</g>
<!-- Node12&#45;&gt;Node14 -->
<g id="edge15" class="edge">
<title>Node12&#45;&gt;Node14</title>
<path fill="none" stroke="midnightblue" d="M376.61,-56.08C381.37,-48.53 388.32,-37.49 394.15,-28.23"/>
<polygon fill="midnightblue" stroke="midnightblue" points="397.12,-30.08 399.49,-19.75 391.2,-26.35 397.12,-30.08"/>
</g>
<!-- Node17&#45;&gt;Node5 -->
<g id="edge19" class="edge">
<title>Node17&#45;&gt;Node5</title>
<path fill="none" stroke="midnightblue" d="M732.67,-112.22C742.38,-97.97 763.6,-70.01 789,-56 845.43,-24.88 920.51,-15.15 967.55,-12.18"/>
<polygon fill="midnightblue" stroke="midnightblue" points="967.93,-15.67 977.72,-11.62 967.54,-8.68 967.93,-15.67"/>
</g>
<!-- Node17&#45;&gt;Node7 -->
<g id="edge20" class="edge">
<title>Node17&#45;&gt;Node7</title>
<path fill="none" stroke="midnightblue" d="M743.23,-112.32C759.35,-103.7 784.3,-90.36 802.96,-80.39"/>
<polygon fill="midnightblue" stroke="midnightblue" points="804.64,-83.46 811.81,-75.65 801.34,-77.28 804.64,-83.46"/>
</g>
<!-- Node19&#45;&gt;Node17 -->
<g id="edge25" class="edge">
<title>Node19&#45;&gt;Node17</title>
<path fill="none" stroke="midnightblue" d="M813.45,-168.32C797.01,-159.7 771.57,-146.36 752.53,-136.39"/>
<polygon fill="midnightblue" stroke="midnightblue" points="753.99,-133.2 743.51,-131.65 750.74,-139.4 753.99,-133.2"/>
</g>
<!-- Node21 -->
<g id="node21" class="node">
<title>Node21</title>
<g id="a_node21"><a xlink:href="itkMetaDataObjectBase_8h.html" target="_top" xlink:title=" ">
<polygon fill="white" stroke="black" points="468,-230 468,-249 610,-249 610,-230 468,-230"/>
<text text-anchor="middle" x="539" y="-237" font-family="Helvetica,sans-Serif" font-size="10.00">itkMetaDataObjectBase.h</text>
</a>
</g>
</g>
<!-- Node20&#45;&gt;Node21 -->
<g id="edge27" class="edge">
<title>Node20&#45;&gt;Node21</title>
<path fill="none" stroke="midnightblue" d="M536.43,-291.48C536.85,-283.08 537.51,-269.98 538.06,-259.16"/>
<polygon fill="midnightblue" stroke="midnightblue" points="541.56,-259.17 538.57,-249.01 534.57,-258.82 541.56,-259.17"/>
</g>
<!-- Node22 -->
<g id="node22" class="node">
<title>Node22</title>
<g id="a_node22"><a xlink:title=" ">
<polygon fill="white" stroke="#bfbfbf" points="1266,-230 1266,-249 1330,-249 1330,-230 1266,-230"/>
<text text-anchor="middle" x="1298" y="-237" font-family="Helvetica,sans-Serif" font-size="10.00">algorithm</text>
</a>
</g>
</g>
<!-- Node20&#45;&gt;Node22 -->
<g id="edge31" class="edge">
<title>Node20&#45;&gt;Node22</title>
<path fill="none" stroke="midnightblue" d="M603.62,-294.72C757.56,-282.7 1130.47,-253.58 1255.98,-243.78"/>
<polygon fill="midnightblue" stroke="midnightblue" points="1256.27,-247.27 1265.97,-243 1255.72,-240.29 1256.27,-247.27"/>
</g>
<!-- Node20&#45;&gt;Node23 -->
<g id="edge32" class="edge">
<title>Node20&#45;&gt;Node23</title>
<path fill="none" stroke="midnightblue" d="M468.39,-291.6C364.45,-278.69 169.22,-254.44 90.84,-244.7"/>
<polygon fill="midnightblue" stroke="midnightblue" points="90.93,-241.19 80.58,-243.43 90.07,-248.13 90.93,-241.19"/>
</g>
<!-- Node24 -->
<g id="node24" class="node">
<title>Node24</title>
<g id="a_node24"><a xlink:title=" ">
<polygon fill="white" stroke="#bfbfbf" points="722,-230 722,-249 760,-249 760,-230 722,-230"/>
<text text-anchor="middle" x="741" y="-237" font-family="Helvetica,sans-Serif" font-size="10.00">map</text>
</a>
</g>
</g>
<!-- Node20&#45;&gt;Node24 -->
<g id="edge33" class="edge">
<title>Node20&#45;&gt;Node24</title>
<path fill="none" stroke="midnightblue" d="M565.37,-291.48C604.5,-280.12 673.29,-260.15 712.15,-248.87"/>
<polygon fill="midnightblue" stroke="midnightblue" points="713.18,-252.22 721.81,-246.07 711.23,-245.5 713.18,-252.22"/>
</g>
<!-- Node25 -->
<g id="node25" class="node">
<title>Node25</title>
<g id="a_node25"><a xlink:title=" ">
<polygon fill="white" stroke="#bfbfbf" points="330,-230 330,-249 374,-249 374,-230 330,-230"/>
<text text-anchor="middle" x="352" y="-237" font-family="Helvetica,sans-Serif" font-size="10.00">string</text>
</a>
</g>
</g>
<!-- Node20&#45;&gt;Node25 -->
<g id="edge34" class="edge">
<title>Node20&#45;&gt;Node25</title>
<path fill="none" stroke="midnightblue" d="M501.48,-291.45C470.15,-283.31 422.88,-270.09 383,-255 381.58,-254.46 380.13,-253.88 378.67,-253.28"/>
<polygon fill="midnightblue" stroke="midnightblue" points="379.74,-249.93 369.18,-249.1 376.92,-256.34 379.74,-249.93"/>
</g>
<!-- Node26 -->
<g id="node26" class="node">
<title>Node26</title>
<g id="a_node26"><a xlink:title=" ">
<polygon fill="white" stroke="#bfbfbf" points="392,-230 392,-249 450,-249 450,-230 392,-230"/>
<text text-anchor="middle" x="421" y="-237" font-family="Helvetica,sans-Serif" font-size="10.00">memory</text>
</a>
</g>
</g>
<!-- Node20&#45;&gt;Node26 -->
<g id="edge35" class="edge">
<title>Node20&#45;&gt;Node26</title>
<path fill="none" stroke="midnightblue" d="M519.52,-291.48C500.39,-281.58 468.63,-265.14 446.35,-253.62"/>
<polygon fill="midnightblue" stroke="midnightblue" points="447.94,-250.5 437.45,-249.01 444.72,-256.71 447.94,-250.5"/>
</g>
<!-- Node21&#45;&gt;Node4 -->
<g id="edge28" class="edge">
<title>Node21&#45;&gt;Node4</title>
<path fill="none" stroke="midnightblue" d="M539.86,-229.98C540.71,-221.58 542.03,-208.48 543.12,-197.66"/>
<polygon fill="midnightblue" stroke="midnightblue" points="546.62,-197.81 544.14,-187.51 539.66,-197.11 546.62,-197.81"/>
</g>
<!-- Node21&#45;&gt;Node7 -->
<g id="edge30" class="edge">
<title>Node21&#45;&gt;Node7</title>
<path fill="none" stroke="midnightblue" d="M584.28,-229.98C640.21,-217.36 735.39,-188.81 796,-132 809.46,-119.39 818,-99.9 822.84,-85.55"/>
<polygon fill="midnightblue" stroke="midnightblue" points="826.25,-86.36 825.84,-75.78 819.56,-84.31 826.25,-86.36"/>
</g>
<!-- Node21&#45;&gt;Node18 -->
<g id="edge29" class="edge">
<title>Node21&#45;&gt;Node18</title>
<path fill="none" stroke="midnightblue" d="M523.82,-229.82C488.93,-209.87 402.82,-160.64 360.82,-136.62"/>
<polygon fill="midnightblue" stroke="midnightblue" points="362.5,-133.55 352.08,-131.62 359.03,-139.63 362.5,-133.55"/>
</g>
<!-- Node29 -->
<g id="node29" class="node">
<title>Node29</title>
<g id="a_node29"><a xlink:href="itkObjectFactoryBase_8h.html" target="_top" xlink:title=" ">
<polygon fill="white" stroke="black" points="219.5,-459.5 219.5,-478.5 348.5,-478.5 348.5,-459.5 219.5,-459.5"/>
<text text-anchor="middle" x="284" y="-466.5" font-family="Helvetica,sans-Serif" font-size="10.00">itkObjectFactoryBase.h</text>
</a>
</g>
</g>
<!-- Node28&#45;&gt;Node29 -->
<g id="edge39" class="edge">
<title>Node28&#45;&gt;Node29</title>
<path fill="none" stroke="midnightblue" d="M560.03,-515.44C501.85,-505.87 407.64,-490.36 345.75,-480.17"/>
<polygon fill="midnightblue" stroke="midnightblue" points="346.17,-476.69 335.73,-478.52 345.03,-483.59 346.17,-476.69"/>
</g>
<!-- Node29&#45;&gt;Node16 -->
<g id="edge42" class="edge">
<title>Node29&#45;&gt;Node16</title>
<path fill="none" stroke="midnightblue" d="M237.21,-459.42C214.38,-452.99 188.19,-441.9 171,-423 150.75,-400.74 152,-388.1 152,-358 152,-358 152,-358 152,-177 152,-133.35 195.51,-98.83 224.24,-80.79"/>
<polygon fill="midnightblue" stroke="midnightblue" points="226.23,-83.68 232.98,-75.52 222.61,-77.68 226.23,-83.68"/>
</g>
<!-- Node29&#45;&gt;Node23 -->
<g id="edge47" class="edge">
<title>Node29&#45;&gt;Node23</title>
<path fill="none" stroke="midnightblue" d="M219.21,-460.19C191.49,-454 160.41,-442.9 138,-423 87.49,-378.16 66.95,-295.86 60.01,-259.09"/>
<polygon fill="midnightblue" stroke="midnightblue" points="63.46,-258.48 58.28,-249.24 56.56,-259.69 63.46,-258.48"/>
</g>
<!-- Node30 -->
<g id="node30" class="node">
<title>Node30</title>
<g id="a_node30"><a xlink:href="itkCreateObjectFunction_8h.html" target="_top" xlink:title=" ">
<polygon fill="white" stroke="black" points="364.5,-403.5 364.5,-422.5 507.5,-422.5 507.5,-403.5 364.5,-403.5"/>
<text text-anchor="middle" x="436" y="-410.5" font-family="Helvetica,sans-Serif" font-size="10.00">itkCreateObjectFunction.h</text>
</a>
</g>
</g>
<!-- Node29&#45;&gt;Node30 -->
<g id="edge40" class="edge">
<title>Node29&#45;&gt;Node30</title>
<path fill="none" stroke="midnightblue" d="M308.08,-459.44C333.54,-450.4 373.89,-436.06 402.46,-425.92"/>
<polygon fill="midnightblue" stroke="midnightblue" points="403.78,-429.16 412.03,-422.52 401.43,-422.57 403.78,-429.16"/>
</g>
<!-- Node31 -->
<g id="node31" class="node">
<title>Node31</title>
<g id="a_node31"><a xlink:href="itkCommonEnums_8h.html" target="_top" xlink:title=" ">
<polygon fill="white" stroke="black" points="180,-403.5 180,-422.5 296,-422.5 296,-403.5 180,-403.5"/>
<text text-anchor="middle" x="238" y="-410.5" font-family="Helvetica,sans-Serif" font-size="10.00">itkCommonEnums.h</text>
</a>
</g>
</g>
<!-- Node29&#45;&gt;Node31 -->
<g id="edge43" class="edge">
<title>Node29&#45;&gt;Node31</title>
<path fill="none" stroke="midnightblue" d="M276.4,-459.08C269.77,-451.3 259.98,-439.8 251.94,-430.37"/>
<polygon fill="midnightblue" stroke="midnightblue" points="254.6,-428.09 245.45,-422.75 249.27,-432.63 254.6,-428.09"/>
</g>
<!-- Node33 -->
<g id="node33" class="node">
<title>Node33</title>
<g id="a_node33"><a xlink:title=" ">
<polygon fill="white" stroke="#bfbfbf" points="314,-403.5 314,-422.5 346,-422.5 346,-403.5 314,-403.5"/>
<text text-anchor="middle" x="330" y="-410.5" font-family="Helvetica,sans-Serif" font-size="10.00">list</text>
</a>
</g>
</g>
<!-- Node29&#45;&gt;Node33 -->
<g id="edge46" class="edge">
<title>Node29&#45;&gt;Node33</title>
<path fill="none" stroke="midnightblue" d="M291.6,-459.08C298.23,-451.3 308.02,-439.8 316.06,-430.37"/>
<polygon fill="midnightblue" stroke="midnightblue" points="318.73,-432.63 322.55,-422.75 313.4,-428.09 318.73,-432.63"/>
</g>
<!-- Node30&#45;&gt;Node3 -->
<g id="edge41" class="edge">
<title>Node30&#45;&gt;Node3</title>
<path fill="none" stroke="midnightblue" d="M452.07,-403.32C467.96,-394.74 492.51,-381.49 510.96,-371.52"/>
<polygon fill="midnightblue" stroke="midnightblue" points="512.84,-374.49 519.97,-366.65 509.51,-368.33 512.84,-374.49"/>
</g>
<!-- Node31&#45;&gt;Node12 -->
<g id="edge44" class="edge">
<title>Node31&#45;&gt;Node12</title>
<path fill="none" stroke="midnightblue" d="M241.43,-403.42C245.97,-390.82 252.75,-366.68 247,-347 241.68,-328.78 231.78,-328.32 224,-311 210.65,-281.29 204,-273.07 204,-240.5 204,-240.5 204,-240.5 204,-177 204,-120.16 272.3,-91.03 321.55,-77.42"/>
<polygon fill="midnightblue" stroke="midnightblue" points="322.64,-80.75 331.42,-74.82 320.86,-73.98 322.64,-80.75"/>
</g>
<!-- Node32 -->
<g id="node32" class="node">
<title>Node32</title>
<g id="a_node32"><a xlink:title=" ">
<polygon fill="white" stroke="#bfbfbf" points="180.5,-347.5 180.5,-366.5 237.5,-366.5 237.5,-347.5 180.5,-347.5"/>
<text text-anchor="middle" x="209" y="-354.5" font-family="Helvetica,sans-Serif" font-size="10.00">ostream</text>
</a>
</g>
</g>
<!-- Node31&#45;&gt;Node32 -->
<g id="edge45" class="edge">
<title>Node31&#45;&gt;Node32</title>
<path fill="none" stroke="midnightblue" d="M233.21,-403.08C229.24,-395.69 223.47,-384.95 218.57,-375.81"/>
<polygon fill="midnightblue" stroke="midnightblue" points="221.51,-373.91 213.7,-366.75 215.35,-377.22 221.51,-373.91"/>
</g>
<!-- Node34&#45;&gt;Node22 -->
<g id="edge84" class="edge">
<title>Node34&#45;&gt;Node22</title>
<path fill="none" stroke="midnightblue" d="M793.85,-636.25C929.77,-635.42 1276,-623.73 1276,-526 1276,-526 1276,-526 1276,-356 1276,-321.09 1285.82,-281.28 1292.34,-258.69"/>
<polygon fill="midnightblue" stroke="midnightblue" points="1295.7,-259.67 1295.21,-249.09 1288.99,-257.66 1295.7,-259.67"/>
</g>
<!-- Node34&#45;&gt;Node23 -->
<g id="edge81" class="edge">
<title>Node34&#45;&gt;Node23</title>
<path fill="none" stroke="midnightblue" d="M686.37,-633.24C522.27,-624.1 38,-591.57 38,-526 38,-526 38,-526 38,-356 38,-321.4 46.4,-281.74 52.03,-259.05"/>
<polygon fill="midnightblue" stroke="midnightblue" points="55.49,-259.67 54.59,-249.11 48.71,-257.92 55.49,-259.67"/>
</g>
<!-- Node34&#45;&gt;Node24 -->
<g id="edge82" class="edge">
<title>Node34&#45;&gt;Node24</title>
<path fill="none" stroke="midnightblue" d="M743.51,-627.32C750.6,-608.96 766,-564.66 766,-526 766,-526 766,-526 766,-356 766,-320.91 754.84,-281.16 747.44,-258.63"/>
<polygon fill="midnightblue" stroke="midnightblue" points="750.71,-257.39 744.17,-249.06 744.08,-259.65 750.71,-257.39"/>
</g>
<!-- Node34&#45;&gt;Node28 -->
<g id="edge65" class="edge">
<title>Node34&#45;&gt;Node28</title>
<path fill="none" stroke="midnightblue" d="M696.21,-627.43C673.86,-620.94 647.9,-609.81 631,-591 619.59,-578.3 615.01,-559.1 613.19,-544.86"/>
<polygon fill="midnightblue" stroke="midnightblue" points="616.65,-544.34 612.23,-534.71 609.68,-545 616.65,-544.34"/>
</g>
<!-- Node35 -->
<g id="node35" class="node">
<title>Node35</title>
<g id="a_node35"><a xlink:href="itkDataObject_8h.html" target="_top" xlink:title=" ">
<polygon fill="white" stroke="black" points="794.5,-571.5 794.5,-590.5 887.5,-590.5 887.5,-571.5 794.5,-571.5"/>
<text text-anchor="middle" x="841" y="-578.5" font-family="Helvetica,sans-Serif" font-size="10.00">itkDataObject.h</text>
</a>
</g>
</g>
<!-- Node34&#45;&gt;Node35 -->
<g id="edge50" class="edge">
<title>Node34&#45;&gt;Node35</title>
<path fill="none" stroke="midnightblue" d="M756.23,-627.32C772.35,-618.7 797.3,-605.36 815.96,-595.39"/>
<polygon fill="midnightblue" stroke="midnightblue" points="817.64,-598.46 824.81,-590.65 814.34,-592.28 817.64,-598.46"/>
</g>
<!-- Node39 -->
<g id="node39" class="node">
<title>Node39</title>
<g id="a_node39"><a xlink:href="itkNumericTraits_8h.html" target="_top" xlink:title=" ">
<polygon fill="white" stroke="black" points="1398,-347.5 1398,-366.5 1504,-366.5 1504,-347.5 1398,-347.5"/>
<text text-anchor="middle" x="1451" y="-354.5" font-family="Helvetica,sans-Serif" font-size="10.00">itkNumericTraits.h</text>
</a>
</g>
</g>
<!-- Node34&#45;&gt;Node39 -->
<g id="edge66" class="edge">
<title>Node34&#45;&gt;Node39</title>
<path fill="none" stroke="midnightblue" d="M793.64,-635.74C945.86,-634.57 1372.79,-627.97 1423,-591 1447.92,-572.65 1448,-556.95 1448,-526 1448,-526 1448,-526 1448,-468 1448,-435.94 1449.29,-398.63 1450.18,-376.74"/>
<polygon fill="midnightblue" stroke="midnightblue" points="1453.68,-376.69 1450.61,-366.56 1446.69,-376.4 1453.68,-376.69"/>
</g>
<!-- Node46 -->
<g id="node46" class="node">
<title>Node46</title>
<g id="a_node46"><a xlink:href="itkThreadSupport_8h.html" target="_top" xlink:title=" ">
<polygon fill="white" stroke="black" points="1304,-571.5 1304,-590.5 1414,-590.5 1414,-571.5 1304,-571.5"/>
<text text-anchor="middle" x="1359" y="-578.5" font-family="Helvetica,sans-Serif" font-size="10.00">itkThreadSupport.h</text>
</a>
</g>
</g>
<!-- Node34&#45;&gt;Node46 -->
<g id="edge78" class="edge">
<title>Node34&#45;&gt;Node46</title>
<path fill="none" stroke="midnightblue" d="M793.56,-632.48C892,-625.81 1108.27,-610.28 1290,-591 1291.11,-590.88 1292.23,-590.76 1293.36,-590.64"/>
<polygon fill="midnightblue" stroke="midnightblue" points="1294.13,-594.07 1303.67,-589.46 1293.33,-587.12 1294.13,-594.07"/>
</g>
<!-- Node48 -->
<g id="node48" class="node">
<title>Node48</title>
<g id="a_node48"><a xlink:title=" ">
<polygon fill="white" stroke="#bfbfbf" points="640,-571.5 640,-590.5 672,-590.5 672,-571.5 640,-571.5"/>
<text text-anchor="middle" x="656" y="-578.5" font-family="Helvetica,sans-Serif" font-size="10.00">set</text>
</a>
</g>
</g>
<!-- Node34&#45;&gt;Node48 -->
<g id="edge83" class="edge">
<title>Node34&#45;&gt;Node48</title>
<path fill="none" stroke="midnightblue" d="M726.5,-627.32C713.4,-618.9 693.29,-605.97 677.89,-596.07"/>
<polygon fill="midnightblue" stroke="midnightblue" points="679.77,-593.12 669.46,-590.65 675.98,-599.01 679.77,-593.12"/>
</g>
<!-- Node49 -->
<g id="node49" class="node">
<title>Node49</title>
<g id="a_node49"><a xlink:title=" ">
<polygon fill="white" stroke="#bfbfbf" points="690,-571.5 690,-590.5 738,-590.5 738,-571.5 690,-571.5"/>
<text text-anchor="middle" x="714" y="-578.5" font-family="Helvetica,sans-Serif" font-size="10.00">thread</text>
</a>
</g>
</g>
<!-- Node34&#45;&gt;Node49 -->
<g id="edge85" class="edge">
<title>Node34&#45;&gt;Node49</title>
<path fill="none" stroke="midnightblue" d="M735.71,-627.08C732.15,-619.69 726.98,-608.95 722.58,-599.81"/>
<polygon fill="midnightblue" stroke="midnightblue" points="725.71,-598.24 718.21,-590.75 719.4,-601.28 725.71,-598.24"/>
</g>
<!-- Node35&#45;&gt;Node3 -->
<g id="edge51" class="edge">
<title>Node35&#45;&gt;Node3</title>
<path fill="none" stroke="midnightblue" d="M829.04,-571.3C782.73,-537.59 614.82,-415.37 556.29,-372.77"/>
<polygon fill="midnightblue" stroke="midnightblue" points="558.02,-369.7 547.87,-366.64 553.9,-375.36 558.02,-369.7"/>
</g>
<!-- Node35&#45;&gt;Node5 -->
<g id="edge52" class="edge">
<title>Node35&#45;&gt;Node5</title>
<path fill="none" stroke="midnightblue" d="M887.56,-574.81C980.68,-563.14 1181,-530.95 1181,-470 1181,-470 1181,-470 1181,-412 1181,-331.68 1238,-320.82 1238,-240.5 1238,-240.5 1238,-240.5 1238,-121 1238,-41.06 1122.26,-19.2 1056.44,-13.23"/>
<polygon fill="midnightblue" stroke="midnightblue" points="1056.58,-9.73 1046.32,-12.41 1056.01,-16.71 1056.58,-9.73"/>
</g>
<!-- Node35&#45;&gt;Node16 -->
<g id="edge53" class="edge">
<title>Node35&#45;&gt;Node16</title>
<path fill="none" stroke="midnightblue" d="M833.93,-571.27C805.76,-537.05 697.35,-410.92 580,-347 472.73,-288.56 406.63,-342.12 321,-255 308.49,-242.28 270.14,-130.27 255.12,-85.44"/>
<polygon fill="midnightblue" stroke="midnightblue" points="258.4,-84.19 251.91,-75.81 251.75,-86.4 258.4,-84.19"/>
</g>
<!-- Node35&#45;&gt;Node28 -->
<g id="edge64" class="edge">
<title>Node35&#45;&gt;Node28</title>
<path fill="none" stroke="midnightblue" d="M804.71,-571.44C765.02,-562.08 701.29,-547.06 658.09,-536.87"/>
<polygon fill="midnightblue" stroke="midnightblue" points="658.65,-533.41 648.12,-534.52 657.05,-540.22 658.65,-533.41"/>
</g>
<!-- Node36 -->
<g id="node36" class="node">
<title>Node36</title>
<g id="a_node36"><a xlink:href="itkWeakPointer_8h.html" target="_top" xlink:title=" ">
<polygon fill="white" stroke="black" points="1072.5,-112.5 1072.5,-131.5 1171.5,-131.5 1171.5,-112.5 1072.5,-112.5"/>
<text text-anchor="middle" x="1122" y="-119.5" font-family="Helvetica,sans-Serif" font-size="10.00">itkWeakPointer.h</text>
</a>
</g>
</g>
<!-- Node35&#45;&gt;Node36 -->
<g id="edge54" class="edge">
<title>Node35&#45;&gt;Node36</title>
<path fill="none" stroke="midnightblue" d="M887.56,-578.79C957.35,-574.21 1081,-554.22 1081,-470 1081,-470 1081,-470 1081,-238.5 1081,-201.97 1099.44,-162.48 1111.59,-140.44"/>
<polygon fill="midnightblue" stroke="midnightblue" points="1114.71,-142.03 1116.64,-131.61 1108.64,-138.55 1114.71,-142.03"/>
</g>
<!-- Node37 -->
<g id="node37" class="node">
<title>Node37</title>
<g id="a_node37"><a xlink:href="itkRealTimeStamp_8h.html" target="_top" xlink:title=" ">
<polygon fill="white" stroke="black" points="897,-168.5 897,-187.5 1013,-187.5 1013,-168.5 897,-168.5"/>
<text text-anchor="middle" x="955" y="-175.5" font-family="Helvetica,sans-Serif" font-size="10.00">itkRealTimeStamp.h</text>
</a>
</g>
</g>
<!-- Node35&#45;&gt;Node37 -->
<g id="edge57" class="edge">
<title>Node35&#45;&gt;Node37</title>
<path fill="none" stroke="midnightblue" d="M852.54,-571.43C873.8,-554.57 917,-514.8 917,-470 917,-470 917,-470 917,-300 917,-261.81 934.44,-219.83 945.69,-196.72"/>
<polygon fill="midnightblue" stroke="midnightblue" points="948.96,-198.02 950.34,-187.52 942.71,-194.86 948.96,-198.02"/>
</g>
<!-- Node36&#45;&gt;Node5 -->
<g id="edge55" class="edge">
<title>Node36&#45;&gt;Node5</title>
<path fill="none" stroke="midnightblue" d="M1135.47,-112.44C1153.56,-99.86 1181.84,-75.76 1167,-56 1153.62,-38.18 1097.05,-25.14 1056.12,-17.81"/>
<polygon fill="midnightblue" stroke="midnightblue" points="1056.53,-14.33 1046.08,-16.07 1055.34,-21.23 1056.53,-14.33"/>
</g>
<!-- Node36&#45;&gt;Node7 -->
<g id="edge56" class="edge">
<title>Node36&#45;&gt;Node7</title>
<path fill="none" stroke="midnightblue" d="M1075.41,-112.44C1018.22,-101.94 922.18,-84.3 868.12,-74.37"/>
<polygon fill="midnightblue" stroke="midnightblue" points="868.68,-70.91 858.21,-72.55 867.41,-77.8 868.68,-70.91"/>
</g>
<!-- Node37&#45;&gt;Node5 -->
<g id="edge62" class="edge">
<title>Node37&#45;&gt;Node5</title>
<path fill="none" stroke="midnightblue" d="M979.47,-168.44C995.57,-161.38 1015.38,-149.63 1025,-132 1042.98,-99.06 1029.75,-53.58 1019.97,-28.82"/>
<polygon fill="midnightblue" stroke="midnightblue" points="1023.18,-27.44 1016.08,-19.57 1016.73,-30.15 1023.18,-27.44"/>
</g>
<!-- Node37&#45;&gt;Node7 -->
<g id="edge63" class="edge">
<title>Node37&#45;&gt;Node7</title>
<path fill="none" stroke="midnightblue" d="M939.12,-168.5C924.33,-160.2 902.08,-146.71 885,-132 868.02,-117.37 851.46,-97.7 840.6,-83.84"/>
<polygon fill="midnightblue" stroke="midnightblue" points="843.21,-81.49 834.35,-75.68 837.66,-85.75 843.21,-81.49"/>
</g>
<!-- Node38 -->
<g id="node38" class="node">
<title>Node38</title>
<g id="a_node38"><a xlink:href="itkRealTimeInterval_8h.html" target="_top" xlink:title=" ">
<polygon fill="white" stroke="black" points="894,-112.5 894,-131.5 1016,-131.5 1016,-112.5 894,-112.5"/>
<text text-anchor="middle" x="955" y="-119.5" font-family="Helvetica,sans-Serif" font-size="10.00">itkRealTimeInterval.h</text>
</a>
</g>
</g>
<!-- Node37&#45;&gt;Node38 -->
<g id="edge58" class="edge">
<title>Node37&#45;&gt;Node38</title>
<path fill="none" stroke="midnightblue" d="M955,-168.08C955,-161.01 955,-150.86 955,-141.99"/>
<polygon fill="midnightblue" stroke="midnightblue" points="958.5,-141.75 955,-131.75 951.5,-141.75 958.5,-141.75"/>
</g>
<!-- Node38&#45;&gt;Node5 -->
<g id="edge60" class="edge">
<title>Node38&#45;&gt;Node5</title>
<path fill="none" stroke="midnightblue" d="M959.47,-112.37C968.8,-94.38 990.47,-52.55 1002.87,-28.63"/>
<polygon fill="midnightblue" stroke="midnightblue" points="1006.05,-30.08 1007.55,-19.59 999.84,-26.86 1006.05,-30.08"/>
</g>
<!-- Node38&#45;&gt;Node7 -->
<g id="edge61" class="edge">
<title>Node38&#45;&gt;Node7</title>
<path fill="none" stroke="midnightblue" d="M934.88,-112.44C913.98,-103.56 881.07,-89.56 857.28,-79.45"/>
<polygon fill="midnightblue" stroke="midnightblue" points="858.6,-76.21 848.03,-75.52 855.86,-82.65 858.6,-76.21"/>
</g>
<!-- Node38&#45;&gt;Node12 -->
<g id="edge59" class="edge">
<title>Node38&#45;&gt;Node12</title>
<path fill="none" stroke="midnightblue" d="M893.77,-115.71C799.93,-107.54 614.94,-91.22 458,-76 445.96,-74.83 432.98,-73.52 420.82,-72.26"/>
<polygon fill="midnightblue" stroke="midnightblue" points="421.14,-68.78 410.84,-71.23 420.42,-75.74 421.14,-68.78"/>
</g>
<!-- Node39&#45;&gt;Node5 -->
<g id="edge67" class="edge">
<title>Node39&#45;&gt;Node5</title>
<path fill="none" stroke="midnightblue" d="M1497.75,-347.48C1580.01,-331.15 1742,-292.41 1742,-240.5 1742,-240.5 1742,-240.5 1742,-121 1742,-40.94 1652.05,-73.83 1574,-56 1384.99,-12.83 1152.02,-9.53 1056.27,-10.24"/>
<polygon fill="midnightblue" stroke="midnightblue" points="1056.05,-6.74 1046.09,-10.33 1056.12,-13.74 1056.05,-6.74"/>
</g>
<!-- Node40 -->
<g id="node40" class="node">
<title>Node40</title>
<g id="a_node40"><a xlink:title=" ">
<polygon fill="white" stroke="#bfbfbf" points="1304,-291.5 1304,-310.5 1348,-310.5 1348,-291.5 1304,-291.5"/>
<text text-anchor="middle" x="1326" y="-298.5" font-family="Helvetica,sans-Serif" font-size="10.00">limits</text>
</a>
</g>
</g>
<!-- Node39&#45;&gt;Node40 -->
<g id="edge68" class="edge">
<title>Node39&#45;&gt;Node40</title>
<path fill="none" stroke="midnightblue" d="M1431.19,-347.44C1410.71,-338.6 1378.52,-324.69 1355.14,-314.59"/>
<polygon fill="midnightblue" stroke="midnightblue" points="1356.28,-311.27 1345.71,-310.52 1353.51,-317.7 1356.28,-311.27"/>
</g>
<!-- Node41 -->
<g id="node41" class="node">
<title>Node41</title>
<g id="a_node41"><a xlink:title=" ">
<polygon fill="white" stroke="#bfbfbf" points="1366.5,-291.5 1366.5,-310.5 1425.5,-310.5 1425.5,-291.5 1366.5,-291.5"/>
<text text-anchor="middle" x="1396" y="-298.5" font-family="Helvetica,sans-Serif" font-size="10.00">complex</text>
</a>
</g>
</g>
<!-- Node39&#45;&gt;Node41 -->
<g id="edge69" class="edge">
<title>Node39&#45;&gt;Node41</title>
<path fill="none" stroke="midnightblue" d="M1441.92,-347.08C1433.83,-339.14 1421.8,-327.34 1412.09,-317.8"/>
<polygon fill="midnightblue" stroke="midnightblue" points="1414.5,-315.26 1404.91,-310.75 1409.6,-320.25 1414.5,-315.26"/>
</g>
<!-- Node42 -->
<g id="node42" class="node">
<title>Node42</title>
<g id="a_node42"><a xlink:href="itkFixedArray_8h.html" target="_top" xlink:title=" ">
<polygon fill="white" stroke="black" points="1482.5,-291.5 1482.5,-310.5 1571.5,-310.5 1571.5,-291.5 1482.5,-291.5"/>
<text text-anchor="middle" x="1527" y="-298.5" font-family="Helvetica,sans-Serif" font-size="10.00">itkFixedArray.h</text>
</a>
</g>
</g>
<!-- Node39&#45;&gt;Node42 -->
<g id="edge70" class="edge">
<title>Node39&#45;&gt;Node42</title>
<path fill="none" stroke="midnightblue" d="M1463.21,-347.32C1474.78,-339.11 1492.38,-326.6 1506.16,-316.81"/>
<polygon fill="midnightblue" stroke="midnightblue" points="1508.44,-319.48 1514.57,-310.83 1504.39,-313.77 1508.44,-319.48"/>
</g>
<!-- Node42&#45;&gt;Node5 -->
<g id="edge71" class="edge">
<title>Node42&#45;&gt;Node5</title>
<path fill="none" stroke="midnightblue" d="M1571.6,-298.96C1607.09,-295.7 1655.54,-285.43 1685,-255 1709.22,-229.98 1704,-213.82 1704,-179 1704,-179 1704,-179 1704,-121 1704,-55.22 1209.95,-22.07 1056.75,-13.37"/>
<polygon fill="midnightblue" stroke="midnightblue" points="1056.5,-9.85 1046.32,-12.78 1056.11,-16.84 1056.5,-9.85"/>
</g>
<!-- Node42&#45;&gt;Node22 -->
<g id="edge72" class="edge">
<title>Node42&#45;&gt;Node22</title>
<path fill="none" stroke="midnightblue" d="M1485.97,-291.48C1447.66,-283.22 1389.05,-269.79 1339,-255 1336.22,-254.18 1333.35,-253.27 1330.47,-252.33"/>
<polygon fill="midnightblue" stroke="midnightblue" points="1331.44,-248.97 1320.85,-249.06 1329.19,-255.59 1331.44,-248.97"/>
</g>
<!-- Node43 -->
<g id="node43" class="node">
<title>Node43</title>
<g id="a_node43"><a xlink:title=" ">
<polygon fill="white" stroke="#bfbfbf" points="1634,-230 1634,-249 1676,-249 1676,-230 1634,-230"/>
<text text-anchor="middle" x="1655" y="-237" font-family="Helvetica,sans-Serif" font-size="10.00">array</text>
</a>
</g>
</g>
<!-- Node42&#45;&gt;Node43 -->
<g id="edge73" class="edge">
<title>Node42&#45;&gt;Node43</title>
<path fill="none" stroke="midnightblue" d="M1545.84,-291.48C1565.61,-282.51 1597.56,-267.93 1625,-255 1625.99,-254.53 1627.01,-254.05 1628.03,-253.57"/>
<polygon fill="midnightblue" stroke="midnightblue" points="1629.75,-256.62 1637.26,-249.15 1626.73,-250.31 1629.75,-256.62"/>
</g>
<!-- Node44 -->
<g id="node44" class="node">
<title>Node44</title>
<g id="a_node44"><a xlink:title=" ">
<polygon fill="white" stroke="#bfbfbf" points="1514.5,-230 1514.5,-249 1615.5,-249 1615.5,-230 1514.5,-230"/>
<text text-anchor="middle" x="1565" y="-237" font-family="Helvetica,sans-Serif" font-size="10.00">itkFixedArray.hxx</text>
</a>
</g>
</g>
<!-- Node42&#45;&gt;Node44 -->
<g id="edge74" class="edge">
<title>Node42&#45;&gt;Node44</title>
<path fill="none" stroke="midnightblue" d="M1532.44,-291.48C1538.09,-282.64 1547.06,-268.59 1554.16,-257.48"/>
<polygon fill="midnightblue" stroke="midnightblue" points="1557.13,-259.32 1559.57,-249.01 1551.23,-255.55 1557.13,-259.32"/>
</g>
<!-- Node45 -->
<g id="node45" class="node">
<title>Node45</title>
<g id="a_node45"><a xlink:href="itkNumericTraitsFixedArrayPixel_8h.html" target="_top" xlink:title=" ">
<polygon fill="white" stroke="black" points="1347.5,-224.5 1347.5,-254.5 1496.5,-254.5 1496.5,-224.5 1347.5,-224.5"/>
<text text-anchor="start" x="1355.5" y="-242.5" font-family="Helvetica,sans-Serif" font-size="10.00">itkNumericTraitsFixedArray</text>
<text text-anchor="middle" x="1422" y="-231.5" font-family="Helvetica,sans-Serif" font-size="10.00">Pixel.h</text>
</a>
</g>
</g>
<!-- Node42&#45;&gt;Node45 -->
<g id="edge75" class="edge">
<title>Node42&#45;&gt;Node45</title>
<path fill="none" stroke="midnightblue" d="M1507.06,-291.48C1490.78,-283.27 1467.86,-270.56 1449.84,-259.88"/>
<polygon fill="midnightblue" stroke="midnightblue" points="1451.29,-256.68 1440.92,-254.52 1447.68,-262.67 1451.29,-256.68"/>
</g>
<!-- Node45&#45;&gt;Node39 -->
<g id="edge76" class="edge">
<title>Node45&#45;&gt;Node39</title>
<path fill="none" stroke="midnightblue" d="M1425.68,-254.64C1428.31,-264.76 1431.91,-278.71 1435,-291 1438.91,-306.52 1443.24,-324.14 1446.41,-337.12"/>
<polygon fill="midnightblue" stroke="midnightblue" points="1443.09,-338.27 1448.86,-347.16 1449.89,-336.62 1443.09,-338.27"/>
</g>
<!-- Node45&#45;&gt;Node42 -->
<g id="edge77" class="edge">
<title>Node45&#45;&gt;Node42</title>
<path fill="none" stroke="midnightblue" d="M1452.58,-254.52C1470.56,-264.02 1492.62,-276.52 1508.13,-286.01"/>
<polygon fill="midnightblue" stroke="midnightblue" points="1506.52,-289.13 1516.86,-291.48 1510.24,-283.2 1506.52,-289.13"/>
</g>
<!-- Node46&#45;&gt;Node10 -->
<g id="edge80" class="edge">
<title>Node46&#45;&gt;Node10</title>
<path fill="none" stroke="midnightblue" d="M1329.65,-571.5C1288.6,-557.59 1219,-525.79 1219,-470 1219,-470 1219,-470 1219,-412 1219,-335.31 1200,-317.19 1200,-240.5 1200,-240.5 1200,-240.5 1200,-177 1200,-146.9 1198.69,-136.35 1181,-112 1171.26,-98.6 1156.25,-87.91 1142.99,-80.31"/>
<polygon fill="midnightblue" stroke="midnightblue" points="1144.65,-77.23 1134.19,-75.56 1141.32,-83.39 1144.65,-77.23"/>
</g>
<!-- Node47 -->
<g id="node47" class="node">
<title>Node47</title>
<g id="a_node47"><a xlink:title=" ">
<polygon fill="white" stroke="#bfbfbf" points="1334.5,-515.5 1334.5,-534.5 1383.5,-534.5 1383.5,-515.5 1334.5,-515.5"/>
<text text-anchor="middle" x="1359" y="-522.5" font-family="Helvetica,sans-Serif" font-size="10.00">cstdlib</text>
</a>
</g>
</g>
<!-- Node46&#45;&gt;Node47 -->
<g id="edge79" class="edge">
<title>Node46&#45;&gt;Node47</title>
<path fill="none" stroke="midnightblue" d="M1359,-571.08C1359,-564.01 1359,-553.86 1359,-544.99"/>
<polygon fill="midnightblue" stroke="midnightblue" points="1362.5,-544.75 1359,-534.75 1355.5,-544.75 1362.5,-544.75"/>
</g>
</g>
</svg>
