<?xml version="1.0" encoding="UTF-8" standalone="no"?>
<!DOCTYPE svg PUBLIC "-//W3C//DTD SVG 1.1//EN"
 "http://www.w3.org/Graphics/SVG/1.1/DTD/svg11.dtd">
<!-- Generated by graphviz version 2.43.0 (0)
 -->
<!-- Title: itkPointSetBase.h Pages: 1 -->
<svg width="1491pt" height="644pt"
 viewBox="0.00 0.00 1491.00 644.00" xmlns="http://www.w3.org/2000/svg" xmlns:xlink="http://www.w3.org/1999/xlink">
<g id="graph0" class="graph" transform="scale(1 1) rotate(0) translate(4 640)">
<title>itkPointSetBase.h</title>
<polygon fill="white" stroke="transparent" points="-4,4 -4,-640 1487,-640 1487,4 -4,4"/>
<!-- Node1 -->
<g id="node1" class="node">
<title>Node1</title>
<g id="a_node1"><a xlink:title=" ">
<polygon fill="#bfbfbf" stroke="black" points="1197,-616.5 1197,-635.5 1300,-635.5 1300,-616.5 1197,-616.5"/>
<text text-anchor="middle" x="1248.5" y="-623.5" font-family="Helvetica,sans-Serif" font-size="10.00">itkPointSetBase.h</text>
</a>
</g>
</g>
<!-- Node2 -->
<g id="node2" class="node">
<title>Node2</title>
<g id="a_node2"><a xlink:href="itkDataObject_8h.html" target="_top" xlink:title=" ">
<polygon fill="white" stroke="black" points="371,-560.5 371,-579.5 464,-579.5 464,-560.5 371,-560.5"/>
<text text-anchor="middle" x="417.5" y="-567.5" font-family="Helvetica,sans-Serif" font-size="10.00">itkDataObject.h</text>
</a>
</g>
</g>
<!-- Node1&#45;&gt;Node2 -->
<g id="edge1" class="edge">
<title>Node1&#45;&gt;Node2</title>
<path fill="none" stroke="midnightblue" d="M1196.83,-621.64C1049.43,-612.06 627.65,-584.66 474.2,-574.68"/>
<polygon fill="midnightblue" stroke="midnightblue" points="474.26,-571.18 464.05,-574.02 473.8,-578.17 474.26,-571.18"/>
</g>
<!-- Node23 -->
<g id="node23" class="node">
<title>Node23</title>
<g id="a_node23"><a xlink:title=" ">
<polygon fill="white" stroke="#bfbfbf" points="1151,-224.5 1151,-243.5 1198,-243.5 1198,-224.5 1151,-224.5"/>
<text text-anchor="middle" x="1174.5" y="-231.5" font-family="Helvetica,sans-Serif" font-size="10.00">vector</text>
</a>
</g>
</g>
<!-- Node1&#45;&gt;Node23 -->
<g id="edge70" class="edge">
<title>Node1&#45;&gt;Node23</title>
<path fill="none" stroke="midnightblue" d="M1242.52,-616.33C1230.71,-598.32 1205.5,-555.19 1205.5,-515 1205.5,-515 1205.5,-515 1205.5,-345 1205.5,-311.41 1191.94,-274.14 1182.76,-252.75"/>
<polygon fill="midnightblue" stroke="midnightblue" points="1185.95,-251.31 1178.68,-243.61 1179.56,-254.17 1185.95,-251.31"/>
</g>
<!-- Node37 -->
<g id="node37" class="node">
<title>Node37</title>
<g id="a_node37"><a xlink:href="itkVectorContainer_8h.html" target="_top" xlink:title=" ">
<polygon fill="white" stroke="black" points="1233.5,-560.5 1233.5,-579.5 1349.5,-579.5 1349.5,-560.5 1233.5,-560.5"/>
<text text-anchor="middle" x="1291.5" y="-567.5" font-family="Helvetica,sans-Serif" font-size="10.00">itkVectorContainer.h</text>
</a>
</g>
</g>
<!-- Node1&#45;&gt;Node37 -->
<g id="edge63" class="edge">
<title>Node1&#45;&gt;Node37</title>
<path fill="none" stroke="midnightblue" d="M1255.6,-616.08C1261.74,-608.38 1270.77,-597.03 1278.24,-587.65"/>
<polygon fill="midnightblue" stroke="midnightblue" points="1281.04,-589.75 1284.53,-579.75 1275.56,-585.39 1281.04,-589.75"/>
</g>
<!-- Node39 -->
<g id="node39" class="node">
<title>Node39</title>
<g id="a_node39"><a xlink:title=" ">
<polygon fill="white" stroke="#bfbfbf" points="1368,-560.5 1368,-579.5 1483,-579.5 1483,-560.5 1368,-560.5"/>
<text text-anchor="middle" x="1425.5" y="-567.5" font-family="Helvetica,sans-Serif" font-size="10.00">itkPointSetBase.hxx</text>
</a>
</g>
</g>
<!-- Node1&#45;&gt;Node39 -->
<g id="edge71" class="edge">
<title>Node1&#45;&gt;Node39</title>
<path fill="none" stroke="midnightblue" d="M1276.55,-616.44C1306.58,-607.28 1354.41,-592.69 1387.74,-582.52"/>
<polygon fill="midnightblue" stroke="midnightblue" points="1389.04,-585.78 1397.59,-579.52 1387,-579.09 1389.04,-585.78"/>
</g>
<!-- Node3 -->
<g id="node3" class="node">
<title>Node3</title>
<g id="a_node3"><a xlink:href="itkObject_8h.html" target="_top" xlink:title=" ">
<polygon fill="white" stroke="black" points="704.5,-336.5 704.5,-355.5 774.5,-355.5 774.5,-336.5 704.5,-336.5"/>
<text text-anchor="middle" x="739.5" y="-343.5" font-family="Helvetica,sans-Serif" font-size="10.00">itkObject.h</text>
</a>
</g>
</g>
<!-- Node2&#45;&gt;Node3 -->
<g id="edge2" class="edge">
<title>Node2&#45;&gt;Node3</title>
<path fill="none" stroke="midnightblue" d="M430.12,-560.3C479.12,-526.52 657.01,-403.87 718.46,-361.51"/>
<polygon fill="midnightblue" stroke="midnightblue" points="720.72,-364.2 726.96,-355.64 716.74,-358.44 720.72,-364.2"/>
</g>
<!-- Node5 -->
<g id="node5" class="node">
<title>Node5</title>
<g id="a_node5"><a xlink:href="itkMacro_8h.html" target="_top" xlink:title=" ">
<polygon fill="white" stroke="black" points="258.5,-0.5 258.5,-19.5 326.5,-19.5 326.5,-0.5 258.5,-0.5"/>
<text text-anchor="middle" x="292.5" y="-7.5" font-family="Helvetica,sans-Serif" font-size="10.00">itkMacro.h</text>
</a>
</g>
</g>
<!-- Node2&#45;&gt;Node5 -->
<g id="edge40" class="edge">
<title>Node2&#45;&gt;Node5</title>
<path fill="none" stroke="midnightblue" d="M370.91,-561.27C288.93,-546.35 127.5,-510.42 127.5,-459 127.5,-459 127.5,-459 127.5,-121 127.5,-62.7 199.69,-33.4 248.57,-20.24"/>
<polygon fill="midnightblue" stroke="midnightblue" points="249.49,-23.62 258.31,-17.75 247.76,-16.84 249.49,-23.62"/>
</g>
<!-- Node16 -->
<g id="node16" class="node">
<title>Node16</title>
<g id="a_node16"><a xlink:href="itkSingletonMacro_8h.html" target="_top" xlink:title=" ">
<polygon fill="white" stroke="black" points="967.5,-56.5 967.5,-75.5 1081.5,-75.5 1081.5,-56.5 967.5,-56.5"/>
<text text-anchor="middle" x="1024.5" y="-63.5" font-family="Helvetica,sans-Serif" font-size="10.00">itkSingletonMacro.h</text>
</a>
</g>
</g>
<!-- Node2&#45;&gt;Node16 -->
<g id="edge41" class="edge">
<title>Node2&#45;&gt;Node16</title>
<path fill="none" stroke="midnightblue" d="M417.5,-560.44C417.5,-541.94 417.5,-496.81 417.5,-459 417.5,-459 417.5,-459 417.5,-345 417.5,-223.1 561.74,-294.9 672.5,-244 689.84,-236.03 693.13,-231.9 710.5,-224 813.74,-177.07 851.13,-190.13 948.5,-132 971.64,-118.18 994.67,-97.22 1009.21,-82.86"/>
<polygon fill="midnightblue" stroke="midnightblue" points="1011.8,-85.21 1016.36,-75.65 1006.83,-80.28 1011.8,-85.21"/>
</g>
<!-- Node28 -->
<g id="node28" class="node">
<title>Node28</title>
<g id="a_node28"><a xlink:href="itkWeakPointer_8h.html" target="_top" xlink:title=" ">
<polygon fill="white" stroke="black" points="0,-112.5 0,-131.5 99,-131.5 99,-112.5 0,-112.5"/>
<text text-anchor="middle" x="49.5" y="-119.5" font-family="Helvetica,sans-Serif" font-size="10.00">itkWeakPointer.h</text>
</a>
</g>
</g>
<!-- Node2&#45;&gt;Node28 -->
<g id="edge42" class="edge">
<title>Node2&#45;&gt;Node28</title>
<path fill="none" stroke="midnightblue" d="M370.86,-566.65C296.57,-562.17 155.45,-550.38 113.5,-524 83.97,-505.43 69.5,-493.89 69.5,-459 69.5,-459 69.5,-459 69.5,-233 69.5,-200.44 60.91,-163.32 54.99,-141.59"/>
<polygon fill="midnightblue" stroke="midnightblue" points="58.29,-140.41 52.2,-131.74 51.56,-142.32 58.29,-140.41"/>
</g>
<!-- Node29 -->
<g id="node29" class="node">
<title>Node29</title>
<g id="a_node29"><a xlink:href="itkRealTimeStamp_8h.html" target="_top" xlink:title=" ">
<polygon fill="white" stroke="black" points="197.5,-168.5 197.5,-187.5 313.5,-187.5 313.5,-168.5 197.5,-168.5"/>
<text text-anchor="middle" x="255.5" y="-175.5" font-family="Helvetica,sans-Serif" font-size="10.00">itkRealTimeStamp.h</text>
</a>
</g>
</g>
<!-- Node2&#45;&gt;Node29 -->
<g id="edge45" class="edge">
<title>Node2&#45;&gt;Node29</title>
<path fill="none" stroke="midnightblue" d="M395.4,-560.44C360.98,-545.5 298.5,-511.19 298.5,-459 298.5,-459 298.5,-459 298.5,-289 298.5,-254.31 279.72,-217.42 266.98,-196.4"/>
<polygon fill="midnightblue" stroke="midnightblue" points="269.77,-194.27 261.48,-187.67 263.85,-198 269.77,-194.27"/>
</g>
<!-- Node31 -->
<g id="node31" class="node">
<title>Node31</title>
<g id="a_node31"><a xlink:href="itkObjectFactory_8h.html" target="_top" xlink:title=" ">
<polygon fill="white" stroke="black" points="575.5,-504.5 575.5,-523.5 679.5,-523.5 679.5,-504.5 575.5,-504.5"/>
<text text-anchor="middle" x="627.5" y="-511.5" font-family="Helvetica,sans-Serif" font-size="10.00">itkObjectFactory.h</text>
</a>
</g>
</g>
<!-- Node2&#45;&gt;Node31 -->
<g id="edge52" class="edge">
<title>Node2&#45;&gt;Node31</title>
<path fill="none" stroke="midnightblue" d="M450.78,-560.44C486.95,-551.14 544.88,-536.25 584.48,-526.06"/>
<polygon fill="midnightblue" stroke="midnightblue" points="585.57,-529.4 594.38,-523.52 583.82,-522.62 585.57,-529.4"/>
</g>
<!-- Node4 -->
<g id="node4" class="node">
<title>Node4</title>
<g id="a_node4"><a xlink:href="itkLightObject_8h.html" target="_top" xlink:title=" ">
<polygon fill="white" stroke="black" points="545.5,-168.5 545.5,-187.5 639.5,-187.5 639.5,-168.5 545.5,-168.5"/>
<text text-anchor="middle" x="592.5" y="-175.5" font-family="Helvetica,sans-Serif" font-size="10.00">itkLightObject.h</text>
</a>
</g>
</g>
<!-- Node3&#45;&gt;Node4 -->
<g id="edge3" class="edge">
<title>Node3&#45;&gt;Node4</title>
<path fill="none" stroke="midnightblue" d="M704.28,-341.06C651.96,-333.11 555.26,-309.83 512.5,-244 497.72,-221.25 528.51,-202.64 556.08,-191.26"/>
<polygon fill="midnightblue" stroke="midnightblue" points="557.57,-194.43 565.61,-187.54 555.02,-187.91 557.57,-194.43"/>
</g>
<!-- Node3&#45;&gt;Node16 -->
<g id="edge37" class="edge">
<title>Node3&#45;&gt;Node16</title>
<path fill="none" stroke="midnightblue" d="M774.67,-339.9C854.69,-327.31 1043.5,-291.62 1043.5,-235 1043.5,-235 1043.5,-235 1043.5,-177 1043.5,-144.49 1035.34,-107.35 1029.72,-85.61"/>
<polygon fill="midnightblue" stroke="midnightblue" points="1033.04,-84.5 1027.06,-75.75 1026.28,-86.32 1033.04,-84.5"/>
</g>
<!-- Node19 -->
<g id="node19" class="node">
<title>Node19</title>
<g id="a_node19"><a xlink:href="itkEventObject_8h.html" target="_top" xlink:title=" ">
<polygon fill="white" stroke="black" points="331.5,-168.5 331.5,-187.5 429.5,-187.5 429.5,-168.5 331.5,-168.5"/>
<text text-anchor="middle" x="380.5" y="-175.5" font-family="Helvetica,sans-Serif" font-size="10.00">itkEventObject.h</text>
</a>
</g>
</g>
<!-- Node3&#45;&gt;Node19 -->
<g id="edge24" class="edge">
<title>Node3&#45;&gt;Node19</title>
<path fill="none" stroke="midnightblue" d="M704.46,-341.37C664.12,-336.2 596.6,-324.49 543.5,-300 483.75,-272.44 424.46,-220.73 396.74,-194.75"/>
<polygon fill="midnightblue" stroke="midnightblue" points="398.84,-191.92 389.18,-187.56 394.02,-196.99 398.84,-191.92"/>
</g>
<!-- Node20 -->
<g id="node20" class="node">
<title>Node20</title>
<g id="a_node20"><a xlink:href="itkMetaDataDictionary_8h.html" target="_top" xlink:title=" ">
<polygon fill="white" stroke="black" points="672,-280.5 672,-299.5 807,-299.5 807,-280.5 672,-280.5"/>
<text text-anchor="middle" x="739.5" y="-287.5" font-family="Helvetica,sans-Serif" font-size="10.00">itkMetaDataDictionary.h</text>
</a>
</g>
</g>
<!-- Node3&#45;&gt;Node20 -->
<g id="edge27" class="edge">
<title>Node3&#45;&gt;Node20</title>
<path fill="none" stroke="midnightblue" d="M739.5,-336.08C739.5,-329.01 739.5,-318.86 739.5,-309.99"/>
<polygon fill="midnightblue" stroke="midnightblue" points="743,-309.75 739.5,-299.75 736,-309.75 743,-309.75"/>
</g>
<!-- Node26 -->
<g id="node26" class="node">
<title>Node26</title>
<g id="a_node26"><a xlink:title=" ">
<polygon fill="white" stroke="#bfbfbf" points="919.5,-224.5 919.5,-243.5 977.5,-243.5 977.5,-224.5 919.5,-224.5"/>
<text text-anchor="middle" x="948.5" y="-231.5" font-family="Helvetica,sans-Serif" font-size="10.00">memory</text>
</a>
</g>
</g>
<!-- Node3&#45;&gt;Node26 -->
<g id="edge39" class="edge">
<title>Node3&#45;&gt;Node26</title>
<path fill="none" stroke="midnightblue" d="M754.36,-336.3C776.28,-323.54 818.66,-299.21 855.5,-280 877.17,-268.7 902.12,-256.68 920.71,-247.91"/>
<polygon fill="midnightblue" stroke="midnightblue" points="922.24,-251.06 929.81,-243.64 919.27,-244.72 922.24,-251.06"/>
</g>
<!-- Node27 -->
<g id="node27" class="node">
<title>Node27</title>
<g id="a_node27"><a xlink:title=" ">
<polygon fill="white" stroke="#bfbfbf" points="864,-280.5 864,-299.5 929,-299.5 929,-280.5 864,-280.5"/>
<text text-anchor="middle" x="896.5" y="-287.5" font-family="Helvetica,sans-Serif" font-size="10.00">functional</text>
</a>
</g>
</g>
<!-- Node3&#45;&gt;Node27 -->
<g id="edge38" class="edge">
<title>Node3&#45;&gt;Node27</title>
<path fill="none" stroke="midnightblue" d="M764.38,-336.44C790.79,-327.36 832.72,-312.94 862.24,-302.78"/>
<polygon fill="midnightblue" stroke="midnightblue" points="863.42,-306.08 871.74,-299.52 861.14,-299.46 863.42,-306.08"/>
</g>
<!-- Node4&#45;&gt;Node5 -->
<g id="edge4" class="edge">
<title>Node4&#45;&gt;Node5</title>
<path fill="none" stroke="midnightblue" d="M588.31,-168.34C581.68,-155.22 567.87,-129.94 551.5,-112 523.94,-81.79 515.39,-73.63 478.5,-56 432.69,-34.1 375.28,-22.31 336.45,-16.36"/>
<polygon fill="midnightblue" stroke="midnightblue" points="336.91,-12.89 326.51,-14.91 335.89,-19.82 336.91,-12.89"/>
</g>
<!-- Node6 -->
<g id="node6" class="node">
<title>Node6</title>
<g id="a_node6"><a xlink:href="itkSmartPointer_8h.html" target="_top" xlink:title=" ">
<polygon fill="white" stroke="black" points="763,-112.5 763,-131.5 864,-131.5 864,-112.5 763,-112.5"/>
<text text-anchor="middle" x="813.5" y="-119.5" font-family="Helvetica,sans-Serif" font-size="10.00">itkSmartPointer.h</text>
</a>
</g>
</g>
<!-- Node4&#45;&gt;Node6 -->
<g id="edge5" class="edge">
<title>Node4&#45;&gt;Node6</title>
<path fill="none" stroke="midnightblue" d="M627.52,-168.44C665.75,-159.1 727.07,-144.12 768.76,-133.93"/>
<polygon fill="midnightblue" stroke="midnightblue" points="769.76,-137.29 778.65,-131.52 768.1,-130.49 769.76,-137.29"/>
</g>
<!-- Node7 -->
<g id="node7" class="node">
<title>Node7</title>
<g id="a_node7"><a xlink:title=" ">
<polygon fill="white" stroke="#bfbfbf" points="389.5,-56.5 389.5,-75.5 449.5,-75.5 449.5,-56.5 389.5,-56.5"/>
<text text-anchor="middle" x="419.5" y="-63.5" font-family="Helvetica,sans-Serif" font-size="10.00">iostream</text>
</a>
</g>
</g>
<!-- Node4&#45;&gt;Node7 -->
<g id="edge22" class="edge">
<title>Node4&#45;&gt;Node7</title>
<path fill="none" stroke="midnightblue" d="M585.62,-168.36C574.45,-154.81 551.12,-128.41 526.5,-112 505.22,-97.82 478.74,-86.64 457.45,-78.97"/>
<polygon fill="midnightblue" stroke="midnightblue" points="458.36,-75.58 447.77,-75.59 456.06,-82.19 458.36,-75.58"/>
</g>
<!-- Node11 -->
<g id="node11" class="node">
<title>Node11</title>
<g id="a_node11"><a xlink:href="itkTimeStamp_8h.html" target="_top" xlink:title=" ">
<polygon fill="white" stroke="black" points="650,-112.5 650,-131.5 745,-131.5 745,-112.5 650,-112.5"/>
<text text-anchor="middle" x="697.5" y="-119.5" font-family="Helvetica,sans-Serif" font-size="10.00">itkTimeStamp.h</text>
</a>
</g>
</g>
<!-- Node4&#45;&gt;Node11 -->
<g id="edge10" class="edge">
<title>Node4&#45;&gt;Node11</title>
<path fill="none" stroke="midnightblue" d="M609.37,-168.32C626.21,-159.66 652.31,-146.24 671.74,-136.25"/>
<polygon fill="midnightblue" stroke="midnightblue" points="673.38,-139.34 680.67,-131.65 670.18,-133.12 673.38,-139.34"/>
</g>
<!-- Node15 -->
<g id="node15" class="node">
<title>Node15</title>
<g id="a_node15"><a xlink:title=" ">
<polygon fill="white" stroke="#bfbfbf" points="603.5,-56.5 603.5,-75.5 653.5,-75.5 653.5,-56.5 603.5,-56.5"/>
<text text-anchor="middle" x="628.5" y="-63.5" font-family="Helvetica,sans-Serif" font-size="10.00">atomic</text>
</a>
</g>
</g>
<!-- Node4&#45;&gt;Node15 -->
<g id="edge21" class="edge">
<title>Node4&#45;&gt;Node15</title>
<path fill="none" stroke="midnightblue" d="M595.32,-168.37C601.16,-150.54 614.66,-109.3 622.52,-85.27"/>
<polygon fill="midnightblue" stroke="midnightblue" points="625.9,-86.18 625.69,-75.59 619.25,-84.01 625.9,-86.18"/>
</g>
<!-- Node17 -->
<g id="node17" class="node">
<title>Node17</title>
<g id="a_node17"><a xlink:href="itkIndent_8h.html" target="_top" xlink:title=" ">
<polygon fill="white" stroke="black" points="448,-112.5 448,-131.5 517,-131.5 517,-112.5 448,-112.5"/>
<text text-anchor="middle" x="482.5" y="-119.5" font-family="Helvetica,sans-Serif" font-size="10.00">itkIndent.h</text>
</a>
</g>
</g>
<!-- Node4&#45;&gt;Node17 -->
<g id="edge18" class="edge">
<title>Node4&#45;&gt;Node17</title>
<path fill="none" stroke="midnightblue" d="M574.83,-168.32C557.11,-159.62 529.6,-146.12 509.21,-136.11"/>
<polygon fill="midnightblue" stroke="midnightblue" points="510.65,-132.92 500.13,-131.65 507.56,-139.2 510.65,-132.92"/>
</g>
<!-- Node18 -->
<g id="node18" class="node">
<title>Node18</title>
<g id="a_node18"><a xlink:title=" ">
<polygon fill="white" stroke="#bfbfbf" points="882,-112.5 882,-131.5 939,-131.5 939,-112.5 882,-112.5"/>
<text text-anchor="middle" x="910.5" y="-119.5" font-family="Helvetica,sans-Serif" font-size="10.00">typeinfo</text>
</a>
</g>
</g>
<!-- Node4&#45;&gt;Node18 -->
<g id="edge23" class="edge">
<title>Node4&#45;&gt;Node18</title>
<path fill="none" stroke="midnightblue" d="M639.94,-170.58C693.89,-163.02 784.82,-149.49 871.83,-132.22"/>
<polygon fill="midnightblue" stroke="midnightblue" points="872.75,-135.6 881.87,-130.2 871.37,-128.74 872.75,-135.6"/>
</g>
<!-- Node6&#45;&gt;Node7 -->
<g id="edge6" class="edge">
<title>Node6&#45;&gt;Node7</title>
<path fill="none" stroke="midnightblue" d="M762.98,-113.23C760.11,-112.81 757.27,-112.4 754.5,-112 648.25,-96.76 522.8,-80.32 459.84,-72.18"/>
<polygon fill="midnightblue" stroke="midnightblue" points="459.92,-68.66 449.55,-70.85 459.02,-75.61 459.92,-68.66"/>
</g>
<!-- Node8 -->
<g id="node8" class="node">
<title>Node8</title>
<g id="a_node8"><a xlink:title=" ">
<polygon fill="white" stroke="#bfbfbf" points="1386,-56.5 1386,-75.5 1431,-75.5 1431,-56.5 1386,-56.5"/>
<text text-anchor="middle" x="1408.5" y="-63.5" font-family="Helvetica,sans-Serif" font-size="10.00">utility</text>
</a>
</g>
</g>
<!-- Node6&#45;&gt;Node8 -->
<g id="edge7" class="edge">
<title>Node6&#45;&gt;Node8</title>
<path fill="none" stroke="midnightblue" d="M864.21,-113.15C867.35,-112.74 870.47,-112.35 873.5,-112 1067.52,-89.5 1116.92,-93.02 1311.5,-76 1332.87,-74.13 1356.87,-71.9 1375.65,-70.13"/>
<polygon fill="midnightblue" stroke="midnightblue" points="1376.15,-73.6 1385.77,-69.18 1375.49,-66.63 1376.15,-73.6"/>
</g>
<!-- Node9 -->
<g id="node9" class="node">
<title>Node9</title>
<g id="a_node9"><a xlink:title=" ">
<polygon fill="white" stroke="#bfbfbf" points="1233,-56.5 1233,-75.5 1302,-75.5 1302,-56.5 1233,-56.5"/>
<text text-anchor="middle" x="1267.5" y="-63.5" font-family="Helvetica,sans-Serif" font-size="10.00">type_traits</text>
</a>
</g>
</g>
<!-- Node6&#45;&gt;Node9 -->
<g id="edge8" class="edge">
<title>Node6&#45;&gt;Node9</title>
<path fill="none" stroke="midnightblue" d="M864.22,-113.26C867.36,-112.82 870.47,-112.4 873.5,-112 999.87,-95.31 1149.53,-79.22 1222.7,-71.6"/>
<polygon fill="midnightblue" stroke="midnightblue" points="1223.34,-75.05 1232.93,-70.54 1222.62,-68.09 1223.34,-75.05"/>
</g>
<!-- Node10 -->
<g id="node10" class="node">
<title>Node10</title>
<g id="a_node10"><a xlink:title=" ">
<polygon fill="white" stroke="#bfbfbf" points="807,-56.5 807,-75.5 892,-75.5 892,-56.5 807,-56.5"/>
<text text-anchor="middle" x="849.5" y="-63.5" font-family="Helvetica,sans-Serif" font-size="10.00">itkConfigure.h</text>
</a>
</g>
</g>
<!-- Node6&#45;&gt;Node10 -->
<g id="edge9" class="edge">
<title>Node6&#45;&gt;Node10</title>
<path fill="none" stroke="midnightblue" d="M819.44,-112.08C824.48,-104.53 831.84,-93.49 838.01,-84.23"/>
<polygon fill="midnightblue" stroke="midnightblue" points="841.03,-86.01 843.67,-75.75 835.21,-82.13 841.03,-86.01"/>
</g>
<!-- Node11&#45;&gt;Node5 -->
<g id="edge11" class="edge">
<title>Node11&#45;&gt;Node5</title>
<path fill="none" stroke="midnightblue" d="M695.5,-112.09C691.74,-97.66 682.19,-69.44 662.5,-56 610.37,-20.42 422.85,-12.93 336.54,-11.39"/>
<polygon fill="midnightblue" stroke="midnightblue" points="336.59,-7.89 326.53,-11.23 336.48,-14.89 336.59,-7.89"/>
</g>
<!-- Node12 -->
<g id="node12" class="node">
<title>Node12</title>
<g id="a_node12"><a xlink:href="itkIntTypes_8h.html" target="_top" xlink:title=" ">
<polygon fill="white" stroke="black" points="710,-56.5 710,-75.5 789,-75.5 789,-56.5 710,-56.5"/>
<text text-anchor="middle" x="749.5" y="-63.5" font-family="Helvetica,sans-Serif" font-size="10.00">itkIntTypes.h</text>
</a>
</g>
</g>
<!-- Node11&#45;&gt;Node12 -->
<g id="edge12" class="edge">
<title>Node11&#45;&gt;Node12</title>
<path fill="none" stroke="midnightblue" d="M706.09,-112.08C713.66,-104.22 724.88,-92.57 734.01,-83.08"/>
<polygon fill="midnightblue" stroke="midnightblue" points="736.66,-85.38 741.07,-75.75 731.62,-80.53 736.66,-85.38"/>
</g>
<!-- Node11&#45;&gt;Node15 -->
<g id="edge16" class="edge">
<title>Node11&#45;&gt;Node15</title>
<path fill="none" stroke="midnightblue" d="M686.41,-112.32C676.01,-104.18 660.24,-91.84 647.78,-82.09"/>
<polygon fill="midnightblue" stroke="midnightblue" points="649.82,-79.24 639.79,-75.83 645.51,-84.75 649.82,-79.24"/>
</g>
<!-- Node11&#45;&gt;Node16 -->
<g id="edge17" class="edge">
<title>Node11&#45;&gt;Node16</title>
<path fill="none" stroke="midnightblue" d="M745.05,-113.15C802.52,-103.66 899.36,-87.66 962.61,-77.22"/>
<polygon fill="midnightblue" stroke="midnightblue" points="963.55,-80.61 972.84,-75.53 962.41,-73.71 963.55,-80.61"/>
</g>
<!-- Node12&#45;&gt;Node5 -->
<g id="edge13" class="edge">
<title>Node12&#45;&gt;Node5</title>
<path fill="none" stroke="midnightblue" d="M709.73,-58.12C704.94,-57.37 700.11,-56.64 695.5,-56 565.57,-37.93 411.28,-22.33 336.92,-15.17"/>
<polygon fill="midnightblue" stroke="midnightblue" points="336.83,-11.64 326.54,-14.18 336.17,-18.61 336.83,-11.64"/>
</g>
<!-- Node13 -->
<g id="node13" class="node">
<title>Node13</title>
<g id="a_node13"><a xlink:title=" ">
<polygon fill="white" stroke="#bfbfbf" points="690.5,-0.5 690.5,-19.5 740.5,-19.5 740.5,-0.5 690.5,-0.5"/>
<text text-anchor="middle" x="715.5" y="-7.5" font-family="Helvetica,sans-Serif" font-size="10.00">cstdint</text>
</a>
</g>
</g>
<!-- Node12&#45;&gt;Node13 -->
<g id="edge14" class="edge">
<title>Node12&#45;&gt;Node13</title>
<path fill="none" stroke="midnightblue" d="M743.89,-56.08C739.13,-48.53 732.18,-37.49 726.35,-28.23"/>
<polygon fill="midnightblue" stroke="midnightblue" points="729.3,-26.35 721.01,-19.75 723.38,-30.08 729.3,-26.35"/>
</g>
<!-- Node14 -->
<g id="node14" class="node">
<title>Node14</title>
<g id="a_node14"><a xlink:title=" ">
<polygon fill="white" stroke="#bfbfbf" points="758.5,-0.5 758.5,-19.5 808.5,-19.5 808.5,-0.5 758.5,-0.5"/>
<text text-anchor="middle" x="783.5" y="-7.5" font-family="Helvetica,sans-Serif" font-size="10.00">climits</text>
</a>
</g>
</g>
<!-- Node12&#45;&gt;Node14 -->
<g id="edge15" class="edge">
<title>Node12&#45;&gt;Node14</title>
<path fill="none" stroke="midnightblue" d="M755.11,-56.08C759.87,-48.53 766.82,-37.49 772.65,-28.23"/>
<polygon fill="midnightblue" stroke="midnightblue" points="775.62,-30.08 777.99,-19.75 769.7,-26.35 775.62,-30.08"/>
</g>
<!-- Node17&#45;&gt;Node5 -->
<g id="edge19" class="edge">
<title>Node17&#45;&gt;Node5</title>
<path fill="none" stroke="midnightblue" d="M481.8,-112.47C480.2,-98.57 475.01,-71.1 458.5,-56 425.27,-25.6 373.58,-15.4 336.71,-12.15"/>
<polygon fill="midnightblue" stroke="midnightblue" points="336.97,-8.66 326.73,-11.41 336.45,-15.64 336.97,-8.66"/>
</g>
<!-- Node17&#45;&gt;Node7 -->
<g id="edge20" class="edge">
<title>Node17&#45;&gt;Node7</title>
<path fill="none" stroke="midnightblue" d="M472.38,-112.32C462.97,-104.26 448.76,-92.08 437.43,-82.37"/>
<polygon fill="midnightblue" stroke="midnightblue" points="439.68,-79.68 429.81,-75.83 435.12,-85 439.68,-79.68"/>
</g>
<!-- Node19&#45;&gt;Node5 -->
<g id="edge25" class="edge">
<title>Node19&#45;&gt;Node5</title>
<path fill="none" stroke="midnightblue" d="M331.14,-169.54C289.87,-162.17 235.69,-149.47 222.5,-132 195.62,-96.39 243.45,-49.52 272.55,-25.93"/>
<polygon fill="midnightblue" stroke="midnightblue" points="274.83,-28.59 280.53,-19.66 270.5,-23.09 274.83,-28.59"/>
</g>
<!-- Node19&#45;&gt;Node17 -->
<g id="edge26" class="edge">
<title>Node19&#45;&gt;Node17</title>
<path fill="none" stroke="midnightblue" d="M396.89,-168.32C413.17,-159.7 438.37,-146.36 457.22,-136.39"/>
<polygon fill="midnightblue" stroke="midnightblue" points="458.95,-139.43 466.15,-131.65 455.68,-133.24 458.95,-139.43"/>
</g>
<!-- Node21 -->
<g id="node21" class="node">
<title>Node21</title>
<g id="a_node21"><a xlink:href="itkMetaDataObjectBase_8h.html" target="_top" xlink:title=" ">
<polygon fill="white" stroke="black" points="521.5,-224.5 521.5,-243.5 663.5,-243.5 663.5,-224.5 521.5,-224.5"/>
<text text-anchor="middle" x="592.5" y="-231.5" font-family="Helvetica,sans-Serif" font-size="10.00">itkMetaDataObjectBase.h</text>
</a>
</g>
</g>
<!-- Node20&#45;&gt;Node21 -->
<g id="edge28" class="edge">
<title>Node20&#45;&gt;Node21</title>
<path fill="none" stroke="midnightblue" d="M716.21,-280.44C691.69,-271.44 652.9,-257.19 625.3,-247.05"/>
<polygon fill="midnightblue" stroke="midnightblue" points="626.28,-243.68 615.68,-243.52 623.86,-250.25 626.28,-243.68"/>
</g>
<!-- Node22 -->
<g id="node22" class="node">
<title>Node22</title>
<g id="a_node22"><a xlink:title=" ">
<polygon fill="white" stroke="#bfbfbf" points="719.5,-224.5 719.5,-243.5 783.5,-243.5 783.5,-224.5 719.5,-224.5"/>
<text text-anchor="middle" x="751.5" y="-231.5" font-family="Helvetica,sans-Serif" font-size="10.00">algorithm</text>
</a>
</g>
</g>
<!-- Node20&#45;&gt;Node22 -->
<g id="edge32" class="edge">
<title>Node20&#45;&gt;Node22</title>
<path fill="none" stroke="midnightblue" d="M741.48,-280.08C743.07,-272.93 745.36,-262.64 747.35,-253.69"/>
<polygon fill="midnightblue" stroke="midnightblue" points="750.8,-254.27 749.56,-243.75 743.97,-252.75 750.8,-254.27"/>
</g>
<!-- Node20&#45;&gt;Node23 -->
<g id="edge33" class="edge">
<title>Node20&#45;&gt;Node23</title>
<path fill="none" stroke="midnightblue" d="M807.47,-280.56C901.79,-268.85 1068.84,-248.12 1140.4,-239.23"/>
<polygon fill="midnightblue" stroke="midnightblue" points="1141.16,-242.67 1150.65,-237.96 1140.29,-235.72 1141.16,-242.67"/>
</g>
<!-- Node24 -->
<g id="node24" class="node">
<title>Node24</title>
<g id="a_node24"><a xlink:title=" ">
<polygon fill="white" stroke="#bfbfbf" points="801.5,-224.5 801.5,-243.5 839.5,-243.5 839.5,-224.5 801.5,-224.5"/>
<text text-anchor="middle" x="820.5" y="-231.5" font-family="Helvetica,sans-Serif" font-size="10.00">map</text>
</a>
</g>
</g>
<!-- Node20&#45;&gt;Node24 -->
<g id="edge34" class="edge">
<title>Node20&#45;&gt;Node24</title>
<path fill="none" stroke="midnightblue" d="M752.51,-280.32C765.03,-271.98 784.18,-259.21 798.97,-249.35"/>
<polygon fill="midnightblue" stroke="midnightblue" points="801.14,-252.11 807.52,-243.65 797.26,-246.29 801.14,-252.11"/>
</g>
<!-- Node25 -->
<g id="node25" class="node">
<title>Node25</title>
<g id="a_node25"><a xlink:title=" ">
<polygon fill="white" stroke="#bfbfbf" points="857.5,-224.5 857.5,-243.5 901.5,-243.5 901.5,-224.5 857.5,-224.5"/>
<text text-anchor="middle" x="879.5" y="-231.5" font-family="Helvetica,sans-Serif" font-size="10.00">string</text>
</a>
</g>
</g>
<!-- Node20&#45;&gt;Node25 -->
<g id="edge35" class="edge">
<title>Node20&#45;&gt;Node25</title>
<path fill="none" stroke="midnightblue" d="M761.68,-280.44C784.93,-271.48 821.65,-257.31 847.92,-247.18"/>
<polygon fill="midnightblue" stroke="midnightblue" points="849.35,-250.38 857.42,-243.52 846.83,-243.85 849.35,-250.38"/>
</g>
<!-- Node20&#45;&gt;Node26 -->
<g id="edge36" class="edge">
<title>Node20&#45;&gt;Node26</title>
<path fill="none" stroke="midnightblue" d="M772.62,-280.44C809.78,-270.84 870.02,-255.28 909.45,-245.09"/>
<polygon fill="midnightblue" stroke="midnightblue" points="910.44,-248.45 919.25,-242.56 908.69,-241.67 910.44,-248.45"/>
</g>
<!-- Node21&#45;&gt;Node4 -->
<g id="edge29" class="edge">
<title>Node21&#45;&gt;Node4</title>
<path fill="none" stroke="midnightblue" d="M592.5,-224.08C592.5,-217.01 592.5,-206.86 592.5,-197.99"/>
<polygon fill="midnightblue" stroke="midnightblue" points="596,-197.75 592.5,-187.75 589,-197.75 596,-197.75"/>
</g>
<!-- Node21&#45;&gt;Node7 -->
<g id="edge31" class="edge">
<title>Node21&#45;&gt;Node7</title>
<path fill="none" stroke="midnightblue" d="M570.79,-224.42C537.6,-210.2 474.42,-178.62 439.5,-132 429.33,-118.43 424.28,-99.63 421.8,-85.74"/>
<polygon fill="midnightblue" stroke="midnightblue" points="425.26,-85.21 420.32,-75.84 418.34,-86.25 425.26,-85.21"/>
</g>
<!-- Node21&#45;&gt;Node18 -->
<g id="edge30" class="edge">
<title>Node21&#45;&gt;Node18</title>
<path fill="none" stroke="midnightblue" d="M617.19,-224.46C673.43,-205.01 811.18,-157.36 875.88,-134.98"/>
<polygon fill="midnightblue" stroke="midnightblue" points="877.3,-138.19 885.61,-131.61 875.01,-131.57 877.3,-138.19"/>
</g>
<!-- Node28&#45;&gt;Node5 -->
<g id="edge43" class="edge">
<title>Node28&#45;&gt;Node5</title>
<path fill="none" stroke="midnightblue" d="M55.5,-112.36C65.73,-98.31 87.93,-70.63 113.5,-56 155.57,-31.93 210.43,-20.59 248.27,-15.34"/>
<polygon fill="midnightblue" stroke="midnightblue" points="249,-18.78 258.46,-14.02 248.1,-11.84 249,-18.78"/>
</g>
<!-- Node28&#45;&gt;Node7 -->
<g id="edge44" class="edge">
<title>Node28&#45;&gt;Node7</title>
<path fill="none" stroke="midnightblue" d="M99.02,-113.77C173,-102.98 310.98,-82.84 379.19,-72.88"/>
<polygon fill="midnightblue" stroke="midnightblue" points="379.74,-76.34 389.13,-71.43 378.73,-69.41 379.74,-76.34"/>
</g>
<!-- Node29&#45;&gt;Node5 -->
<g id="edge50" class="edge">
<title>Node29&#45;&gt;Node5</title>
<path fill="none" stroke="midnightblue" d="M233.04,-168.38C217.73,-161.18 198.64,-149.29 189.5,-132 173.72,-102.14 171,-84.26 189.5,-56 202.66,-35.89 226.99,-24.72 248.7,-18.53"/>
<polygon fill="midnightblue" stroke="midnightblue" points="249.63,-21.91 258.44,-16.03 247.89,-15.13 249.63,-21.91"/>
</g>
<!-- Node29&#45;&gt;Node7 -->
<g id="edge51" class="edge">
<title>Node29&#45;&gt;Node7</title>
<path fill="none" stroke="midnightblue" d="M285.5,-168.44C308.05,-161.08 338.96,-148.97 362.5,-132 380.88,-118.75 397.4,-98.53 407.87,-84.16"/>
<polygon fill="midnightblue" stroke="midnightblue" points="410.93,-85.89 413.83,-75.7 405.21,-81.86 410.93,-85.89"/>
</g>
<!-- Node30 -->
<g id="node30" class="node">
<title>Node30</title>
<g id="a_node30"><a xlink:href="itkRealTimeInterval_8h.html" target="_top" xlink:title=" ">
<polygon fill="white" stroke="black" points="231.5,-112.5 231.5,-131.5 353.5,-131.5 353.5,-112.5 231.5,-112.5"/>
<text text-anchor="middle" x="292.5" y="-119.5" font-family="Helvetica,sans-Serif" font-size="10.00">itkRealTimeInterval.h</text>
</a>
</g>
</g>
<!-- Node29&#45;&gt;Node30 -->
<g id="edge46" class="edge">
<title>Node29&#45;&gt;Node30</title>
<path fill="none" stroke="midnightblue" d="M261.61,-168.08C266.78,-160.53 274.35,-149.49 280.69,-140.23"/>
<polygon fill="midnightblue" stroke="midnightblue" points="283.74,-141.98 286.5,-131.75 277.96,-138.02 283.74,-141.98"/>
</g>
<!-- Node30&#45;&gt;Node5 -->
<g id="edge48" class="edge">
<title>Node30&#45;&gt;Node5</title>
<path fill="none" stroke="midnightblue" d="M292.5,-112.37C292.5,-94.62 292.5,-53.67 292.5,-29.6"/>
<polygon fill="midnightblue" stroke="midnightblue" points="296,-29.59 292.5,-19.59 289,-29.59 296,-29.59"/>
</g>
<!-- Node30&#45;&gt;Node7 -->
<g id="edge49" class="edge">
<title>Node30&#45;&gt;Node7</title>
<path fill="none" stroke="midnightblue" d="M312.62,-112.44C333.52,-103.56 366.43,-89.56 390.22,-79.45"/>
<polygon fill="midnightblue" stroke="midnightblue" points="391.64,-82.65 399.47,-75.52 388.9,-76.21 391.64,-82.65"/>
</g>
<!-- Node30&#45;&gt;Node12 -->
<g id="edge47" class="edge">
<title>Node30&#45;&gt;Node12</title>
<path fill="none" stroke="midnightblue" d="M353.66,-113.77C445.07,-102.97 615.56,-82.83 699.79,-72.87"/>
<polygon fill="midnightblue" stroke="midnightblue" points="700.35,-76.33 709.87,-71.68 699.52,-69.38 700.35,-76.33"/>
</g>
<!-- Node32 -->
<g id="node32" class="node">
<title>Node32</title>
<g id="a_node32"><a xlink:href="itkObjectFactoryBase_8h.html" target="_top" xlink:title=" ">
<polygon fill="white" stroke="black" points="893,-448.5 893,-467.5 1022,-467.5 1022,-448.5 893,-448.5"/>
<text text-anchor="middle" x="957.5" y="-455.5" font-family="Helvetica,sans-Serif" font-size="10.00">itkObjectFactoryBase.h</text>
</a>
</g>
</g>
<!-- Node31&#45;&gt;Node32 -->
<g id="edge53" class="edge">
<title>Node31&#45;&gt;Node32</title>
<path fill="none" stroke="midnightblue" d="M679.79,-504.44C738.32,-494.87 833.1,-479.36 895.37,-469.17"/>
<polygon fill="midnightblue" stroke="midnightblue" points="896.15,-472.59 905.46,-467.52 895.02,-465.68 896.15,-472.59"/>
</g>
<!-- Node32&#45;&gt;Node16 -->
<g id="edge56" class="edge">
<title>Node32&#45;&gt;Node16</title>
<path fill="none" stroke="midnightblue" d="M962.99,-448.37C986.99,-410.47 1081.5,-259.67 1081.5,-235 1081.5,-235 1081.5,-235 1081.5,-177 1081.5,-140.3 1056.18,-103.66 1039.29,-83.3"/>
<polygon fill="midnightblue" stroke="midnightblue" points="1041.85,-80.9 1032.67,-75.62 1036.55,-85.48 1041.85,-80.9"/>
</g>
<!-- Node32&#45;&gt;Node23 -->
<g id="edge62" class="edge">
<title>Node32&#45;&gt;Node23</title>
<path fill="none" stroke="midnightblue" d="M969.67,-448.33C980.92,-439.92 997.63,-426.35 1009.5,-412 1034.38,-381.93 1028.36,-365.85 1053.5,-336 1057.71,-331 1122.95,-277.28 1155.84,-250.29"/>
<polygon fill="midnightblue" stroke="midnightblue" points="1158.3,-252.79 1163.82,-243.75 1153.87,-247.38 1158.3,-252.79"/>
</g>
<!-- Node32&#45;&gt;Node26 -->
<g id="edge61" class="edge">
<title>Node32&#45;&gt;Node26</title>
<path fill="none" stroke="midnightblue" d="M957.15,-448.3C955.82,-415.63 951.13,-299.87 949.27,-253.96"/>
<polygon fill="midnightblue" stroke="midnightblue" points="952.76,-253.73 948.86,-243.88 945.77,-254.02 952.76,-253.73"/>
</g>
<!-- Node33 -->
<g id="node33" class="node">
<title>Node33</title>
<g id="a_node33"><a xlink:href="itkCreateObjectFunction_8h.html" target="_top" xlink:title=" ">
<polygon fill="white" stroke="black" points="786,-392.5 786,-411.5 929,-411.5 929,-392.5 786,-392.5"/>
<text text-anchor="middle" x="857.5" y="-399.5" font-family="Helvetica,sans-Serif" font-size="10.00">itkCreateObjectFunction.h</text>
</a>
</g>
</g>
<!-- Node32&#45;&gt;Node33 -->
<g id="edge54" class="edge">
<title>Node32&#45;&gt;Node33</title>
<path fill="none" stroke="midnightblue" d="M941.43,-448.32C925.54,-439.74 900.99,-426.49 882.54,-416.52"/>
<polygon fill="midnightblue" stroke="midnightblue" points="883.99,-413.33 873.53,-411.65 880.66,-419.49 883.99,-413.33"/>
</g>
<!-- Node34 -->
<g id="node34" class="node">
<title>Node34</title>
<g id="a_node34"><a xlink:href="itkCommonEnums_8h.html" target="_top" xlink:title=" ">
<polygon fill="white" stroke="black" points="1061.5,-392.5 1061.5,-411.5 1177.5,-411.5 1177.5,-392.5 1061.5,-392.5"/>
<text text-anchor="middle" x="1119.5" y="-399.5" font-family="Helvetica,sans-Serif" font-size="10.00">itkCommonEnums.h</text>
</a>
</g>
</g>
<!-- Node32&#45;&gt;Node34 -->
<g id="edge57" class="edge">
<title>Node32&#45;&gt;Node34</title>
<path fill="none" stroke="midnightblue" d="M983.17,-448.44C1010.42,-439.36 1053.68,-424.94 1084.15,-414.78"/>
<polygon fill="midnightblue" stroke="midnightblue" points="1085.57,-418 1093.95,-411.52 1083.36,-411.36 1085.57,-418"/>
</g>
<!-- Node36 -->
<g id="node36" class="node">
<title>Node36</title>
<g id="a_node36"><a xlink:title=" ">
<polygon fill="white" stroke="#bfbfbf" points="735.5,-392.5 735.5,-411.5 767.5,-411.5 767.5,-392.5 735.5,-392.5"/>
<text text-anchor="middle" x="751.5" y="-399.5" font-family="Helvetica,sans-Serif" font-size="10.00">list</text>
</a>
</g>
</g>
<!-- Node32&#45;&gt;Node36 -->
<g id="edge60" class="edge">
<title>Node32&#45;&gt;Node36</title>
<path fill="none" stroke="midnightblue" d="M919.31,-448.48C882.69,-440.08 825.97,-426.42 777.5,-412 777.4,-411.97 777.3,-411.94 777.2,-411.91"/>
<polygon fill="midnightblue" stroke="midnightblue" points="778.25,-408.57 767.66,-408.84 776.1,-415.23 778.25,-408.57"/>
</g>
<!-- Node33&#45;&gt;Node3 -->
<g id="edge55" class="edge">
<title>Node33&#45;&gt;Node3</title>
<path fill="none" stroke="midnightblue" d="M838.8,-392.44C819.56,-383.64 789.35,-369.81 767.3,-359.72"/>
<polygon fill="midnightblue" stroke="midnightblue" points="768.66,-356.5 758.11,-355.52 765.75,-362.86 768.66,-356.5"/>
</g>
<!-- Node34&#45;&gt;Node12 -->
<g id="edge58" class="edge">
<title>Node34&#45;&gt;Node12</title>
<path fill="none" stroke="midnightblue" d="M1123.21,-392.33C1128.09,-379.62 1135.31,-355.34 1128.5,-336 1107.3,-275.76 1002.67,-145.82 948.5,-112 935.84,-104.1 853.62,-87.1 798.9,-76.41"/>
<polygon fill="midnightblue" stroke="midnightblue" points="799.52,-72.96 789.03,-74.49 798.18,-79.83 799.52,-72.96"/>
</g>
<!-- Node35 -->
<g id="node35" class="node">
<title>Node35</title>
<g id="a_node35"><a xlink:title=" ">
<polygon fill="white" stroke="#bfbfbf" points="1062,-336.5 1062,-355.5 1119,-355.5 1119,-336.5 1062,-336.5"/>
<text text-anchor="middle" x="1090.5" y="-343.5" font-family="Helvetica,sans-Serif" font-size="10.00">ostream</text>
</a>
</g>
</g>
<!-- Node34&#45;&gt;Node35 -->
<g id="edge59" class="edge">
<title>Node34&#45;&gt;Node35</title>
<path fill="none" stroke="midnightblue" d="M1114.71,-392.08C1110.74,-384.69 1104.97,-373.95 1100.07,-364.81"/>
<polygon fill="midnightblue" stroke="midnightblue" points="1103.01,-362.91 1095.2,-355.75 1096.85,-366.22 1103.01,-362.91"/>
</g>
<!-- Node37&#45;&gt;Node3 -->
<g id="edge64" class="edge">
<title>Node37&#45;&gt;Node3</title>
<path fill="none" stroke="midnightblue" d="M1233.14,-562.01C1100.96,-544.81 785.61,-495.67 726.5,-412 716.77,-398.23 722.43,-378.95 729.05,-364.96"/>
<polygon fill="midnightblue" stroke="midnightblue" points="732.28,-366.34 733.84,-355.87 726.08,-363.08 732.28,-366.34"/>
</g>
<!-- Node37&#45;&gt;Node8 -->
<g id="edge67" class="edge">
<title>Node37&#45;&gt;Node8</title>
<path fill="none" stroke="midnightblue" d="M1346.72,-560.49C1373.69,-554.09 1405.24,-543.01 1428.5,-524 1454.24,-502.96 1465.5,-492.24 1465.5,-459 1465.5,-459 1465.5,-459 1465.5,-177 1465.5,-140.3 1440.18,-103.66 1423.29,-83.3"/>
<polygon fill="midnightblue" stroke="midnightblue" points="1425.85,-80.9 1416.67,-75.62 1420.55,-85.48 1425.85,-80.9"/>
</g>
<!-- Node37&#45;&gt;Node9 -->
<g id="edge66" class="edge">
<title>Node37&#45;&gt;Node9</title>
<path fill="none" stroke="midnightblue" d="M1341.39,-560.42C1364.67,-554.03 1391.03,-542.97 1408.5,-524 1428.88,-501.86 1427.5,-489.1 1427.5,-459 1427.5,-459 1427.5,-459 1427.5,-177 1427.5,-120.67 1359.32,-91.01 1311.97,-77.2"/>
<polygon fill="midnightblue" stroke="midnightblue" points="1312.79,-73.8 1302.22,-74.49 1310.92,-80.54 1312.79,-73.8"/>
</g>
<!-- Node37&#45;&gt;Node23 -->
<g id="edge68" class="edge">
<title>Node37&#45;&gt;Node23</title>
<path fill="none" stroke="midnightblue" d="M1284.83,-560.44C1271.64,-542.62 1243.5,-499.84 1243.5,-459 1243.5,-459 1243.5,-459 1243.5,-345 1243.5,-314.2 1236.11,-305.93 1219.5,-280 1212.38,-268.89 1202.11,-258.35 1193.18,-250.27"/>
<polygon fill="midnightblue" stroke="midnightblue" points="1195.33,-247.5 1185.48,-243.59 1190.74,-252.79 1195.33,-247.5"/>
</g>
<!-- Node37&#45;&gt;Node31 -->
<g id="edge65" class="edge">
<title>Node37&#45;&gt;Node31</title>
<path fill="none" stroke="midnightblue" d="M1233.25,-565.79C1126.19,-559.63 891,-544.88 693.5,-524 692.24,-523.87 690.96,-523.73 689.68,-523.59"/>
<polygon fill="midnightblue" stroke="midnightblue" points="690.04,-520.1 679.7,-522.42 689.23,-527.06 690.04,-520.1"/>
</g>
<!-- Node38 -->
<g id="node38" class="node">
<title>Node38</title>
<g id="a_node38"><a xlink:title=" ">
<polygon fill="white" stroke="#bfbfbf" points="1271.5,-504.5 1271.5,-523.5 1399.5,-523.5 1399.5,-504.5 1271.5,-504.5"/>
<text text-anchor="middle" x="1335.5" y="-511.5" font-family="Helvetica,sans-Serif" font-size="10.00">itkVectorContainer.hxx</text>
</a>
</g>
</g>
<!-- Node37&#45;&gt;Node38 -->
<g id="edge69" class="edge">
<title>Node37&#45;&gt;Node38</title>
<path fill="none" stroke="midnightblue" d="M1298.77,-560.08C1305.04,-552.38 1314.29,-541.03 1321.93,-531.65"/>
<polygon fill="midnightblue" stroke="midnightblue" points="1324.77,-533.71 1328.37,-523.75 1319.34,-529.29 1324.77,-533.71"/>
</g>
</g>
</svg>
