<?xml version="1.0" encoding="UTF-8" standalone="no"?>
<!DOCTYPE svg PUBLIC "-//W3C//DTD SVG 1.1//EN"
 "http://www.w3.org/Graphics/SVG/1.1/DTD/svg11.dtd">
<!-- Generated by graphviz version 2.43.0 (0)
 -->
<!-- Title: itkPoint.h Pages: 1 -->
<svg width="876pt" height="319pt"
 viewBox="0.00 0.00 875.50 319.00" xmlns="http://www.w3.org/2000/svg" xmlns:xlink="http://www.w3.org/1999/xlink">
<g id="graph0" class="graph" transform="scale(1 1) rotate(0) translate(4 315)">
<title>itkPoint.h</title>
<polygon fill="white" stroke="transparent" points="-4,4 -4,-315 871.5,-315 871.5,4 -4,4"/>
<!-- Node1 -->
<g id="node1" class="node">
<title>Node1</title>
<g id="a_node1"><a xlink:title=" ">
<polygon fill="#bfbfbf" stroke="black" points="262,-291.5 262,-310.5 325,-310.5 325,-291.5 262,-291.5"/>
<text text-anchor="middle" x="293.5" y="-298.5" font-family="Helvetica,sans-Serif" font-size="10.00">itkPoint.h</text>
</a>
</g>
</g>
<!-- Node2 -->
<g id="node2" class="node">
<title>Node2</title>
<g id="a_node2"><a xlink:href="itkNumericTraits_8h.html" target="_top" xlink:title=" ">
<polygon fill="white" stroke="black" points="357.5,-123.5 357.5,-142.5 463.5,-142.5 463.5,-123.5 357.5,-123.5"/>
<text text-anchor="middle" x="410.5" y="-130.5" font-family="Helvetica,sans-Serif" font-size="10.00">itkNumericTraits.h</text>
</a>
</g>
</g>
<!-- Node1&#45;&gt;Node2 -->
<g id="edge1" class="edge">
<title>Node1&#45;&gt;Node2</title>
<path fill="none" stroke="midnightblue" d="M292.29,-291.33C289.8,-269.89 286.32,-213.58 312.5,-179 324.42,-163.26 343.15,-152.85 361.06,-146.05"/>
<polygon fill="midnightblue" stroke="midnightblue" points="362.58,-149.23 370.87,-142.63 360.28,-142.62 362.58,-149.23"/>
</g>
<!-- Node11 -->
<g id="node11" class="node">
<title>Node11</title>
<g id="a_node11"><a xlink:href="itkVector_8h.html" target="_top" xlink:title=" ">
<polygon fill="white" stroke="black" points="86.5,-235.5 86.5,-254.5 154.5,-254.5 154.5,-235.5 86.5,-235.5"/>
<text text-anchor="middle" x="120.5" y="-242.5" font-family="Helvetica,sans-Serif" font-size="10.00">itkVector.h</text>
</a>
</g>
</g>
<!-- Node1&#45;&gt;Node11 -->
<g id="edge13" class="edge">
<title>Node1&#45;&gt;Node11</title>
<path fill="none" stroke="midnightblue" d="M266.09,-291.44C236.73,-282.28 189.98,-267.69 157.4,-257.52"/>
<polygon fill="midnightblue" stroke="midnightblue" points="158.37,-254.16 147.78,-254.52 156.29,-260.84 158.37,-254.16"/>
</g>
<!-- Node12 -->
<g id="node12" class="node">
<title>Node12</title>
<g id="a_node12"><a xlink:title=" ">
<polygon fill="white" stroke="#bfbfbf" points="152,-179.5 152,-198.5 265,-198.5 265,-179.5 152,-179.5"/>
<text text-anchor="middle" x="208.5" y="-186.5" font-family="Helvetica,sans-Serif" font-size="10.00">vnl/vnl_vector_ref.h</text>
</a>
</g>
</g>
<!-- Node1&#45;&gt;Node12 -->
<g id="edge17" class="edge">
<title>Node1&#45;&gt;Node12</title>
<path fill="none" stroke="midnightblue" d="M286.83,-291.37C272.74,-273.14 239.74,-230.43 221.39,-206.68"/>
<polygon fill="midnightblue" stroke="midnightblue" points="224.02,-204.36 215.14,-198.59 218.48,-208.64 224.02,-204.36"/>
</g>
<!-- Node14 -->
<g id="node14" class="node">
<title>Node14</title>
<g id="a_node14"><a xlink:href="itkMath_8h.html" target="_top" xlink:title=" ">
<polygon fill="white" stroke="black" points="400,-235.5 400,-254.5 463,-254.5 463,-235.5 400,-235.5"/>
<text text-anchor="middle" x="431.5" y="-242.5" font-family="Helvetica,sans-Serif" font-size="10.00">itkMath.h</text>
</a>
</g>
</g>
<!-- Node1&#45;&gt;Node14 -->
<g id="edge18" class="edge">
<title>Node1&#45;&gt;Node14</title>
<path fill="none" stroke="midnightblue" d="M315.37,-291.44C338.28,-282.48 374.48,-268.31 400.37,-258.18"/>
<polygon fill="midnightblue" stroke="midnightblue" points="401.7,-261.42 409.74,-254.52 399.15,-254.9 401.7,-261.42"/>
</g>
<!-- Node26 -->
<g id="node26" class="node">
<title>Node26</title>
<g id="a_node26"><a xlink:title=" ">
<polygon fill="white" stroke="#bfbfbf" points="481,-235.5 481,-254.5 556,-254.5 556,-235.5 481,-235.5"/>
<text text-anchor="middle" x="518.5" y="-242.5" font-family="Helvetica,sans-Serif" font-size="10.00">itkPoint.hxx</text>
</a>
</g>
</g>
<!-- Node1&#45;&gt;Node26 -->
<g id="edge34" class="edge">
<title>Node1&#45;&gt;Node26</title>
<path fill="none" stroke="midnightblue" d="M325.26,-292.38C363.81,-283.13 429.08,-267.46 472.97,-256.93"/>
<polygon fill="midnightblue" stroke="midnightblue" points="473.91,-260.3 482.82,-254.56 472.28,-253.49 473.91,-260.3"/>
</g>
<!-- Node3 -->
<g id="node3" class="node">
<title>Node3</title>
<g id="a_node3"><a xlink:href="itkMacro_8h.html" target="_top" xlink:title=" ">
<polygon fill="white" stroke="black" points="522.5,-6 522.5,-25 590.5,-25 590.5,-6 522.5,-6"/>
<text text-anchor="middle" x="556.5" y="-13" font-family="Helvetica,sans-Serif" font-size="10.00">itkMacro.h</text>
</a>
</g>
</g>
<!-- Node2&#45;&gt;Node3 -->
<g id="edge2" class="edge">
<title>Node2&#45;&gt;Node3</title>
<path fill="none" stroke="midnightblue" d="M426.52,-123.45C441.76,-115.01 465.04,-101.33 483.5,-87 505.11,-70.22 527.35,-47.87 541.52,-32.87"/>
<polygon fill="midnightblue" stroke="midnightblue" points="544.24,-35.08 548.5,-25.38 539.12,-30.31 544.24,-35.08"/>
</g>
<!-- Node4 -->
<g id="node4" class="node">
<title>Node4</title>
<g id="a_node4"><a xlink:title=" ">
<polygon fill="white" stroke="#bfbfbf" points="353.5,-67.5 353.5,-86.5 397.5,-86.5 397.5,-67.5 353.5,-67.5"/>
<text text-anchor="middle" x="375.5" y="-74.5" font-family="Helvetica,sans-Serif" font-size="10.00">limits</text>
</a>
</g>
</g>
<!-- Node2&#45;&gt;Node4 -->
<g id="edge3" class="edge">
<title>Node2&#45;&gt;Node4</title>
<path fill="none" stroke="midnightblue" d="M404.72,-123.08C399.83,-115.53 392.67,-104.49 386.67,-95.23"/>
<polygon fill="midnightblue" stroke="midnightblue" points="389.55,-93.24 381.17,-86.75 383.67,-97.05 389.55,-93.24"/>
</g>
<!-- Node5 -->
<g id="node5" class="node">
<title>Node5</title>
<g id="a_node5"><a xlink:title=" ">
<polygon fill="white" stroke="#bfbfbf" points="416,-67.5 416,-86.5 475,-86.5 475,-67.5 416,-67.5"/>
<text text-anchor="middle" x="445.5" y="-74.5" font-family="Helvetica,sans-Serif" font-size="10.00">complex</text>
</a>
</g>
</g>
<!-- Node2&#45;&gt;Node5 -->
<g id="edge4" class="edge">
<title>Node2&#45;&gt;Node5</title>
<path fill="none" stroke="midnightblue" d="M416.28,-123.08C421.17,-115.53 428.33,-104.49 434.33,-95.23"/>
<polygon fill="midnightblue" stroke="midnightblue" points="437.33,-97.05 439.83,-86.75 431.45,-93.24 437.33,-97.05"/>
</g>
<!-- Node6 -->
<g id="node6" class="node">
<title>Node6</title>
<g id="a_node6"><a xlink:href="itkFixedArray_8h.html" target="_top" xlink:title=" ">
<polygon fill="white" stroke="black" points="198,-67.5 198,-86.5 287,-86.5 287,-67.5 198,-67.5"/>
<text text-anchor="middle" x="242.5" y="-74.5" font-family="Helvetica,sans-Serif" font-size="10.00">itkFixedArray.h</text>
</a>
</g>
</g>
<!-- Node2&#45;&gt;Node6 -->
<g id="edge5" class="edge">
<title>Node2&#45;&gt;Node6</title>
<path fill="none" stroke="midnightblue" d="M383.88,-123.44C355.49,-114.32 310.36,-99.81 278.75,-89.65"/>
<polygon fill="midnightblue" stroke="midnightblue" points="279.59,-86.24 269,-86.52 277.44,-92.91 279.59,-86.24"/>
</g>
<!-- Node6&#45;&gt;Node3 -->
<g id="edge6" class="edge">
<title>Node6&#45;&gt;Node3</title>
<path fill="none" stroke="midnightblue" d="M287.16,-67.54C347.02,-56.2 452.64,-36.18 512.28,-24.88"/>
<polygon fill="midnightblue" stroke="midnightblue" points="512.97,-28.31 522.15,-23.01 511.67,-21.43 512.97,-28.31"/>
</g>
<!-- Node7 -->
<g id="node7" class="node">
<title>Node7</title>
<g id="a_node7"><a xlink:title=" ">
<polygon fill="white" stroke="#bfbfbf" points="119.5,-6 119.5,-25 183.5,-25 183.5,-6 119.5,-6"/>
<text text-anchor="middle" x="151.5" y="-13" font-family="Helvetica,sans-Serif" font-size="10.00">algorithm</text>
</a>
</g>
</g>
<!-- Node6&#45;&gt;Node7 -->
<g id="edge7" class="edge">
<title>Node6&#45;&gt;Node7</title>
<path fill="none" stroke="midnightblue" d="M229.46,-67.48C214.73,-57.84 190.53,-42.02 172.99,-30.55"/>
<polygon fill="midnightblue" stroke="midnightblue" points="174.8,-27.55 164.51,-25.01 170.97,-33.41 174.8,-27.55"/>
</g>
<!-- Node8 -->
<g id="node8" class="node">
<title>Node8</title>
<g id="a_node8"><a xlink:title=" ">
<polygon fill="white" stroke="#bfbfbf" points="201.5,-6 201.5,-25 243.5,-25 243.5,-6 201.5,-6"/>
<text text-anchor="middle" x="222.5" y="-13" font-family="Helvetica,sans-Serif" font-size="10.00">array</text>
</a>
</g>
</g>
<!-- Node6&#45;&gt;Node8 -->
<g id="edge8" class="edge">
<title>Node6&#45;&gt;Node8</title>
<path fill="none" stroke="midnightblue" d="M239.63,-67.48C236.78,-58.99 232.32,-45.7 228.66,-34.82"/>
<polygon fill="midnightblue" stroke="midnightblue" points="231.86,-33.37 225.36,-25.01 225.23,-35.6 231.86,-33.37"/>
</g>
<!-- Node9 -->
<g id="node9" class="node">
<title>Node9</title>
<g id="a_node9"><a xlink:title=" ">
<polygon fill="white" stroke="#bfbfbf" points="0,-6 0,-25 101,-25 101,-6 0,-6"/>
<text text-anchor="middle" x="50.5" y="-13" font-family="Helvetica,sans-Serif" font-size="10.00">itkFixedArray.hxx</text>
</a>
</g>
</g>
<!-- Node6&#45;&gt;Node9 -->
<g id="edge9" class="edge">
<title>Node6&#45;&gt;Node9</title>
<path fill="none" stroke="midnightblue" d="M214.99,-67.48C181.63,-57.14 125.24,-39.66 87.94,-28.1"/>
<polygon fill="midnightblue" stroke="midnightblue" points="88.55,-24.63 77.96,-25.01 86.47,-31.31 88.55,-24.63"/>
</g>
<!-- Node10 -->
<g id="node10" class="node">
<title>Node10</title>
<g id="a_node10"><a xlink:href="itkNumericTraitsFixedArrayPixel_8h.html" target="_top" xlink:title=" ">
<polygon fill="white" stroke="black" points="261,-0.5 261,-30.5 410,-30.5 410,-0.5 261,-0.5"/>
<text text-anchor="start" x="269" y="-18.5" font-family="Helvetica,sans-Serif" font-size="10.00">itkNumericTraitsFixedArray</text>
<text text-anchor="middle" x="335.5" y="-7.5" font-family="Helvetica,sans-Serif" font-size="10.00">Pixel.h</text>
</a>
</g>
</g>
<!-- Node6&#45;&gt;Node10 -->
<g id="edge10" class="edge">
<title>Node6&#45;&gt;Node10</title>
<path fill="none" stroke="midnightblue" d="M250.92,-67.48C261.96,-59.27 281.34,-46.56 298.83,-35.88"/>
<polygon fill="midnightblue" stroke="midnightblue" points="300.98,-38.67 307.75,-30.52 297.38,-32.67 300.98,-38.67"/>
</g>
<!-- Node10&#45;&gt;Node2 -->
<g id="edge11" class="edge">
<title>Node10&#45;&gt;Node2</title>
<path fill="none" stroke="midnightblue" d="M334.06,-30.59C333.21,-45.66 333.93,-69.75 344.5,-87 352.98,-100.84 367.49,-111.42 380.75,-118.84"/>
<polygon fill="midnightblue" stroke="midnightblue" points="379.16,-121.96 389.65,-123.47 382.39,-115.75 379.16,-121.96"/>
</g>
<!-- Node10&#45;&gt;Node6 -->
<g id="edge12" class="edge">
<title>Node10&#45;&gt;Node6</title>
<path fill="none" stroke="midnightblue" d="M319.41,-30.52C305.67,-40.11 285.89,-52.75 269.74,-62.28"/>
<polygon fill="midnightblue" stroke="midnightblue" points="267.64,-59.45 260.73,-67.48 271.14,-65.51 267.64,-59.45"/>
</g>
<!-- Node11&#45;&gt;Node6 -->
<g id="edge14" class="edge">
<title>Node11&#45;&gt;Node6</title>
<path fill="none" stroke="midnightblue" d="M95.31,-235.44C67.66,-224.57 29.08,-204.17 44.5,-179 75.64,-128.16 141.32,-101.89 188.5,-89.06"/>
<polygon fill="midnightblue" stroke="midnightblue" points="189.47,-92.43 198.27,-86.52 187.71,-85.65 189.47,-92.43"/>
</g>
<!-- Node11&#45;&gt;Node12 -->
<g id="edge15" class="edge">
<title>Node11&#45;&gt;Node12</title>
<path fill="none" stroke="midnightblue" d="M134.64,-235.32C148.37,-226.9 169.44,-213.97 185.56,-204.07"/>
<polygon fill="midnightblue" stroke="midnightblue" points="187.7,-206.87 194.4,-198.65 184.04,-200.9 187.7,-206.87"/>
</g>
<!-- Node13 -->
<g id="node13" class="node">
<title>Node13</title>
<g id="a_node13"><a xlink:title=" ">
<polygon fill="white" stroke="#bfbfbf" points="53.5,-179.5 53.5,-198.5 133.5,-198.5 133.5,-179.5 53.5,-179.5"/>
<text text-anchor="middle" x="93.5" y="-186.5" font-family="Helvetica,sans-Serif" font-size="10.00">itkVector.hxx</text>
</a>
</g>
</g>
<!-- Node11&#45;&gt;Node13 -->
<g id="edge16" class="edge">
<title>Node11&#45;&gt;Node13</title>
<path fill="none" stroke="midnightblue" d="M116.04,-235.08C112.35,-227.69 106.98,-216.95 102.41,-207.81"/>
<polygon fill="midnightblue" stroke="midnightblue" points="105.48,-206.13 97.88,-198.75 99.22,-209.26 105.48,-206.13"/>
</g>
<!-- Node15 -->
<g id="node15" class="node">
<title>Node15</title>
<g id="a_node15"><a xlink:title=" ">
<polygon fill="white" stroke="#bfbfbf" points="322,-179.5 322,-198.5 369,-198.5 369,-179.5 322,-179.5"/>
<text text-anchor="middle" x="345.5" y="-186.5" font-family="Helvetica,sans-Serif" font-size="10.00">cmath</text>
</a>
</g>
</g>
<!-- Node14&#45;&gt;Node15 -->
<g id="edge19" class="edge">
<title>Node14&#45;&gt;Node15</title>
<path fill="none" stroke="midnightblue" d="M417.68,-235.32C404.27,-226.9 383.68,-213.97 367.91,-204.07"/>
<polygon fill="midnightblue" stroke="midnightblue" points="369.61,-201.01 359.28,-198.65 365.89,-206.94 369.61,-201.01"/>
</g>
<!-- Node16 -->
<g id="node16" class="node">
<title>Node16</title>
<g id="a_node16"><a xlink:href="itkMathDetail_8h.html" target="_top" xlink:title=" ">
<polygon fill="white" stroke="black" points="594.5,-179.5 594.5,-198.5 686.5,-198.5 686.5,-179.5 594.5,-179.5"/>
<text text-anchor="middle" x="640.5" y="-186.5" font-family="Helvetica,sans-Serif" font-size="10.00">itkMathDetail.h</text>
</a>
</g>
</g>
<!-- Node14&#45;&gt;Node16 -->
<g id="edge20" class="edge">
<title>Node14&#45;&gt;Node16</title>
<path fill="none" stroke="midnightblue" d="M463.24,-235.8C499.14,-226.52 557.78,-211.37 597.7,-201.06"/>
<polygon fill="midnightblue" stroke="midnightblue" points="598.61,-204.44 607.42,-198.55 596.86,-197.66 598.61,-204.44"/>
</g>
<!-- Node21 -->
<g id="node21" class="node">
<title>Node21</title>
<g id="a_node21"><a xlink:href="itkConceptChecking_8h.html" target="_top" xlink:title=" ">
<polygon fill="white" stroke="black" points="705,-179.5 705,-198.5 828,-198.5 828,-179.5 705,-179.5"/>
<text text-anchor="middle" x="766.5" y="-186.5" font-family="Helvetica,sans-Serif" font-size="10.00">itkConceptChecking.h</text>
</a>
</g>
</g>
<!-- Node14&#45;&gt;Node21 -->
<g id="edge27" class="edge">
<title>Node14&#45;&gt;Node21</title>
<path fill="none" stroke="midnightblue" d="M463.24,-236.82C466.37,-236.18 469.49,-235.56 472.5,-235 548.08,-220.94 635.19,-208.01 694.86,-199.65"/>
<polygon fill="midnightblue" stroke="midnightblue" points="695.51,-203.1 704.93,-198.25 694.54,-196.16 695.51,-203.1"/>
</g>
<!-- Node24 -->
<g id="node24" class="node">
<title>Node24</title>
<g id="a_node24"><a xlink:title=" ">
<polygon fill="white" stroke="#bfbfbf" points="387,-179.5 387,-198.5 476,-198.5 476,-179.5 387,-179.5"/>
<text text-anchor="middle" x="431.5" y="-186.5" font-family="Helvetica,sans-Serif" font-size="10.00">vnl/vnl_math.h</text>
</a>
</g>
</g>
<!-- Node14&#45;&gt;Node24 -->
<g id="edge32" class="edge">
<title>Node14&#45;&gt;Node24</title>
<path fill="none" stroke="midnightblue" d="M431.5,-235.08C431.5,-228.01 431.5,-217.86 431.5,-208.99"/>
<polygon fill="midnightblue" stroke="midnightblue" points="435,-208.75 431.5,-198.75 428,-208.75 435,-208.75"/>
</g>
<!-- Node25 -->
<g id="node25" class="node">
<title>Node25</title>
<g id="a_node25"><a xlink:title=" ">
<polygon fill="white" stroke="#bfbfbf" points="494.5,-179.5 494.5,-198.5 576.5,-198.5 576.5,-179.5 494.5,-179.5"/>
<text text-anchor="middle" x="535.5" y="-186.5" font-family="Helvetica,sans-Serif" font-size="10.00">vxl_version.h</text>
</a>
</g>
</g>
<!-- Node14&#45;&gt;Node25 -->
<g id="edge33" class="edge">
<title>Node14&#45;&gt;Node25</title>
<path fill="none" stroke="midnightblue" d="M448.21,-235.32C464.81,-226.7 490.5,-213.36 509.72,-203.39"/>
<polygon fill="midnightblue" stroke="midnightblue" points="511.57,-206.37 518.83,-198.65 508.34,-200.16 511.57,-206.37"/>
</g>
<!-- Node16&#45;&gt;Node2 -->
<g id="edge25" class="edge">
<title>Node16&#45;&gt;Node2</title>
<path fill="none" stroke="midnightblue" d="M604.06,-179.44C564.1,-170.06 499.91,-154.99 456.52,-144.8"/>
<polygon fill="midnightblue" stroke="midnightblue" points="457.31,-141.39 446.77,-142.52 455.71,-148.21 457.31,-141.39"/>
</g>
<!-- Node17 -->
<g id="node17" class="node">
<title>Node17</title>
<g id="a_node17"><a xlink:href="itkIntTypes_8h.html" target="_top" xlink:title=" ">
<polygon fill="white" stroke="black" points="543,-123.5 543,-142.5 622,-142.5 622,-123.5 543,-123.5"/>
<text text-anchor="middle" x="582.5" y="-130.5" font-family="Helvetica,sans-Serif" font-size="10.00">itkIntTypes.h</text>
</a>
</g>
</g>
<!-- Node16&#45;&gt;Node17 -->
<g id="edge21" class="edge">
<title>Node16&#45;&gt;Node17</title>
<path fill="none" stroke="midnightblue" d="M631.18,-179.32C622.61,-171.34 609.69,-159.31 599.31,-149.65"/>
<polygon fill="midnightblue" stroke="midnightblue" points="601.69,-147.09 591.99,-142.83 596.92,-152.21 601.69,-147.09"/>
</g>
<!-- Node20 -->
<g id="node20" class="node">
<title>Node20</title>
<g id="a_node20"><a xlink:title=" ">
<polygon fill="white" stroke="#bfbfbf" points="639.5,-123.5 639.5,-142.5 683.5,-142.5 683.5,-123.5 639.5,-123.5"/>
<text text-anchor="middle" x="661.5" y="-130.5" font-family="Helvetica,sans-Serif" font-size="10.00">cfenv</text>
</a>
</g>
</g>
<!-- Node16&#45;&gt;Node20 -->
<g id="edge26" class="edge">
<title>Node16&#45;&gt;Node20</title>
<path fill="none" stroke="midnightblue" d="M643.97,-179.08C646.81,-171.77 650.93,-161.18 654.46,-152.1"/>
<polygon fill="midnightblue" stroke="midnightblue" points="657.73,-153.34 658.1,-142.75 651.21,-150.8 657.73,-153.34"/>
</g>
<!-- Node17&#45;&gt;Node3 -->
<g id="edge22" class="edge">
<title>Node17&#45;&gt;Node3</title>
<path fill="none" stroke="midnightblue" d="M585.78,-123.39C590.09,-110.76 596.48,-86.57 590.5,-67 586.71,-54.59 578.74,-42.47 571.46,-33.21"/>
<polygon fill="midnightblue" stroke="midnightblue" points="573.96,-30.74 564.86,-25.3 568.58,-35.22 573.96,-30.74"/>
</g>
<!-- Node18 -->
<g id="node18" class="node">
<title>Node18</title>
<g id="a_node18"><a xlink:title=" ">
<polygon fill="white" stroke="#bfbfbf" points="637.5,-67.5 637.5,-86.5 687.5,-86.5 687.5,-67.5 637.5,-67.5"/>
<text text-anchor="middle" x="662.5" y="-74.5" font-family="Helvetica,sans-Serif" font-size="10.00">cstdint</text>
</a>
</g>
</g>
<!-- Node17&#45;&gt;Node18 -->
<g id="edge23" class="edge">
<title>Node17&#45;&gt;Node18</title>
<path fill="none" stroke="midnightblue" d="M595.35,-123.32C607.72,-114.98 626.63,-102.21 641.24,-92.35"/>
<polygon fill="midnightblue" stroke="midnightblue" points="643.35,-95.15 649.68,-86.65 639.43,-89.35 643.35,-95.15"/>
</g>
<!-- Node19 -->
<g id="node19" class="node">
<title>Node19</title>
<g id="a_node19"><a xlink:title=" ">
<polygon fill="white" stroke="#bfbfbf" points="531.5,-67.5 531.5,-86.5 581.5,-86.5 581.5,-67.5 531.5,-67.5"/>
<text text-anchor="middle" x="556.5" y="-74.5" font-family="Helvetica,sans-Serif" font-size="10.00">climits</text>
</a>
</g>
</g>
<!-- Node17&#45;&gt;Node19 -->
<g id="edge24" class="edge">
<title>Node17&#45;&gt;Node19</title>
<path fill="none" stroke="midnightblue" d="M578.21,-123.08C574.65,-115.69 569.48,-104.95 565.08,-95.81"/>
<polygon fill="midnightblue" stroke="midnightblue" points="568.21,-94.24 560.71,-86.75 561.9,-97.28 568.21,-94.24"/>
</g>
<!-- Node21&#45;&gt;Node2 -->
<g id="edge30" class="edge">
<title>Node21&#45;&gt;Node2</title>
<path fill="none" stroke="midnightblue" d="M710.09,-179.44C645.75,-169.68 540.82,-153.77 473.76,-143.6"/>
<polygon fill="midnightblue" stroke="midnightblue" points="474.15,-140.11 463.74,-142.08 473.1,-147.04 474.15,-140.11"/>
</g>
<!-- Node22 -->
<g id="node22" class="node">
<title>Node22</title>
<g id="a_node22"><a xlink:href="itkPixelTraits_8h.html" target="_top" xlink:title=" ">
<polygon fill="white" stroke="black" points="701.5,-123.5 701.5,-142.5 789.5,-142.5 789.5,-123.5 701.5,-123.5"/>
<text text-anchor="middle" x="745.5" y="-130.5" font-family="Helvetica,sans-Serif" font-size="10.00">itkPixelTraits.h</text>
</a>
</g>
</g>
<!-- Node21&#45;&gt;Node22 -->
<g id="edge28" class="edge">
<title>Node21&#45;&gt;Node22</title>
<path fill="none" stroke="midnightblue" d="M763.03,-179.08C760.19,-171.77 756.07,-161.18 752.54,-152.1"/>
<polygon fill="midnightblue" stroke="midnightblue" points="755.79,-150.8 748.9,-142.75 749.27,-153.34 755.79,-150.8"/>
</g>
<!-- Node23 -->
<g id="node23" class="node">
<title>Node23</title>
<g id="a_node23"><a xlink:title=" ">
<polygon fill="white" stroke="#bfbfbf" points="807.5,-123.5 807.5,-142.5 867.5,-142.5 867.5,-123.5 807.5,-123.5"/>
<text text-anchor="middle" x="837.5" y="-130.5" font-family="Helvetica,sans-Serif" font-size="10.00">iostream</text>
</a>
</g>
</g>
<!-- Node21&#45;&gt;Node23 -->
<g id="edge31" class="edge">
<title>Node21&#45;&gt;Node23</title>
<path fill="none" stroke="midnightblue" d="M777.91,-179.32C788.61,-171.18 804.84,-158.84 817.66,-149.09"/>
<polygon fill="midnightblue" stroke="midnightblue" points="820.04,-151.67 825.89,-142.83 815.81,-146.1 820.04,-151.67"/>
</g>
<!-- Node22&#45;&gt;Node3 -->
<g id="edge29" class="edge">
<title>Node22&#45;&gt;Node3</title>
<path fill="none" stroke="midnightblue" d="M741.02,-123.13C733.58,-109.26 717.43,-82.44 696.5,-67 667.95,-45.94 629.75,-32.94 600.46,-25.42"/>
<polygon fill="midnightblue" stroke="midnightblue" points="601.05,-21.96 590.51,-22.98 599.39,-28.76 601.05,-21.96"/>
</g>
</g>
</svg>
