<?xml version="1.0" encoding="UTF-8" standalone="no"?>
<!DOCTYPE svg PUBLIC "-//W3C//DTD SVG 1.1//EN"
 "http://www.w3.org/Graphics/SVG/1.1/DTD/svg11.dtd">
<!-- Generated by graphviz version 2.43.0 (0)
 -->
<!-- Title: itkPointsLocator.h Pages: 1 -->
<svg width="1237pt" height="285pt"
 viewBox="0.00 0.00 1237.00 285.00" xmlns="http://www.w3.org/2000/svg" xmlns:xlink="http://www.w3.org/1999/xlink">
<g id="graph0" class="graph" transform="scale(1 1) rotate(0) translate(4 281)">
<title>itkPointsLocator.h</title>
<polygon fill="white" stroke="transparent" points="-4,4 -4,-281 1233,-281 1233,4 -4,4"/>
<!-- Node1 -->
<g id="node1" class="node">
<title>Node1</title>
<g id="a_node1"><a xlink:title=" ">
<polygon fill="#bfbfbf" stroke="black" points="196.5,-257.5 196.5,-276.5 300.5,-276.5 300.5,-257.5 196.5,-257.5"/>
<text text-anchor="middle" x="248.5" y="-264.5" font-family="Helvetica,sans-Serif" font-size="10.00">itkPointsLocator.h</text>
</a>
</g>
</g>
<!-- Node2 -->
<g id="node2" class="node">
<title>Node2</title>
<g id="a_node2"><a xlink:href="itkManifoldParzenWindowsPointSetFunction_8h.html" target="_top" xlink:title=" ">
<polygon fill="white" stroke="black" points="90,-190.5 90,-220.5 239,-220.5 239,-190.5 90,-190.5"/>
<text text-anchor="start" x="98" y="-208.5" font-family="Helvetica,sans-Serif" font-size="10.00">itkManifoldParzenWindows</text>
<text text-anchor="middle" x="164.5" y="-197.5" font-family="Helvetica,sans-Serif" font-size="10.00">PointSetFunction.h</text>
</a>
</g>
</g>
<!-- Node1&#45;&gt;Node2 -->
<g id="edge1" class="edge">
<title>Node1&#45;&gt;Node2</title>
<path fill="none" stroke="midnightblue" d="M227.98,-251.47C214.68,-242.05 197.45,-229.84 184.3,-220.52"/>
<polygon fill="midnightblue" stroke="midnightblue" points="226.28,-254.55 236.46,-257.48 230.33,-248.84 226.28,-254.55"/>
</g>
<!-- Node4 -->
<g id="node4" class="node">
<title>Node4</title>
<g id="a_node4"><a xlink:href="itkPointSetToPointSetMetricWithIndexv4_8h.html" target="_top" xlink:title=" ">
<polygon fill="white" stroke="black" points="258.5,-190.5 258.5,-220.5 410.5,-220.5 410.5,-190.5 258.5,-190.5"/>
<text text-anchor="start" x="266.5" y="-208.5" font-family="Helvetica,sans-Serif" font-size="10.00">itkPointSetToPointSetMetric</text>
<text text-anchor="middle" x="334.5" y="-197.5" font-family="Helvetica,sans-Serif" font-size="10.00">WithIndexv4.h</text>
</a>
</g>
</g>
<!-- Node1&#45;&gt;Node4 -->
<g id="edge3" class="edge">
<title>Node1&#45;&gt;Node4</title>
<path fill="none" stroke="midnightblue" d="M269.11,-251.74C282.78,-242.28 300.63,-229.93 314.23,-220.52"/>
<polygon fill="midnightblue" stroke="midnightblue" points="267.05,-248.91 260.82,-257.48 271.04,-254.66 267.05,-248.91"/>
</g>
<!-- Node3 -->
<g id="node3" class="node">
<title>Node3</title>
<g id="a_node3"><a xlink:href="itkJensenHavrdaCharvatTsallisPointSetToPointSetMetricv4_8h.html" target="_top" xlink:title=" ">
<polygon fill="white" stroke="black" points="0,-67.5 0,-97.5 165,-97.5 165,-67.5 0,-67.5"/>
<text text-anchor="start" x="8" y="-85.5" font-family="Helvetica,sans-Serif" font-size="10.00">itkJensenHavrdaCharvatTsallis</text>
<text text-anchor="middle" x="82.5" y="-74.5" font-family="Helvetica,sans-Serif" font-size="10.00">PointSetToPointSetMetricv4.h</text>
</a>
</g>
</g>
<!-- Node2&#45;&gt;Node3 -->
<g id="edge2" class="edge">
<title>Node2&#45;&gt;Node3</title>
<path fill="none" stroke="midnightblue" d="M149.09,-181.76C132.39,-157.12 106.26,-118.57 92.22,-97.84"/>
<polygon fill="midnightblue" stroke="midnightblue" points="146.26,-183.83 154.77,-190.14 152.06,-179.9 146.26,-183.83"/>
</g>
<!-- Node5 -->
<g id="node5" class="node">
<title>Node5</title>
<g id="a_node5"><a xlink:href="itkImageRegistrationMethodv4_8h.html" target="_top" xlink:title=" ">
<polygon fill="white" stroke="black" points="761,-134.5 761,-153.5 938,-153.5 938,-134.5 761,-134.5"/>
<text text-anchor="middle" x="849.5" y="-141.5" font-family="Helvetica,sans-Serif" font-size="10.00">itkImageRegistrationMethodv4.h</text>
</a>
</g>
</g>
<!-- Node4&#45;&gt;Node5 -->
<g id="edge4" class="edge">
<title>Node4&#45;&gt;Node5</title>
<path fill="none" stroke="midnightblue" d="M420.79,-194.53C520.24,-183.04 681.99,-164.35 775.79,-153.52"/>
<polygon fill="midnightblue" stroke="midnightblue" points="420.3,-191.06 410.77,-195.69 421.1,-198.02 420.3,-191.06"/>
</g>
<!-- Node10 -->
<g id="node10" class="node">
<title>Node10</title>
<g id="a_node10"><a xlink:href="itkPointSetToPointSetMetricv4_8h.html" target="_top" xlink:title=" ">
<polygon fill="white" stroke="black" points="248,-134.5 248,-153.5 421,-153.5 421,-134.5 248,-134.5"/>
<text text-anchor="middle" x="334.5" y="-141.5" font-family="Helvetica,sans-Serif" font-size="10.00">itkPointSetToPointSetMetricv4.h</text>
</a>
</g>
</g>
<!-- Node4&#45;&gt;Node10 -->
<g id="edge9" class="edge">
<title>Node4&#45;&gt;Node10</title>
<path fill="none" stroke="midnightblue" d="M334.5,-180.29C334.5,-170.86 334.5,-160.65 334.5,-153.66"/>
<polygon fill="midnightblue" stroke="midnightblue" points="331,-180.4 334.5,-190.4 338,-180.4 331,-180.4"/>
</g>
<!-- Node6 -->
<g id="node6" class="node">
<title>Node6</title>
<g id="a_node6"><a xlink:href="itkSyNImageRegistrationMethod_8h.html" target="_top" xlink:title=" ">
<polygon fill="white" stroke="black" points="1044,-73 1044,-92 1229,-92 1229,-73 1044,-73"/>
<text text-anchor="middle" x="1136.5" y="-80" font-family="Helvetica,sans-Serif" font-size="10.00">itkSyNImageRegistrationMethod.h</text>
</a>
</g>
</g>
<!-- Node5&#45;&gt;Node6 -->
<g id="edge5" class="edge">
<title>Node5&#45;&gt;Node6</title>
<path fill="none" stroke="midnightblue" d="M900.62,-132.4C956.26,-120.87 1044.13,-102.65 1095.46,-92.01"/>
<polygon fill="midnightblue" stroke="midnightblue" points="899.7,-129.02 890.62,-134.48 901.12,-135.87 899.7,-129.02"/>
</g>
<!-- Node8 -->
<g id="node8" class="node">
<title>Node8</title>
<g id="a_node8"><a xlink:href="itkTimeVaryingBSplineVelocityFieldImageRegistrationMethod_8h.html" target="_top" xlink:title=" ">
<polygon fill="white" stroke="black" points="667.5,-67.5 667.5,-97.5 843.5,-97.5 843.5,-67.5 667.5,-67.5"/>
<text text-anchor="start" x="675.5" y="-85.5" font-family="Helvetica,sans-Serif" font-size="10.00">itkTimeVaryingBSplineVelocity</text>
<text text-anchor="middle" x="755.5" y="-74.5" font-family="Helvetica,sans-Serif" font-size="10.00">FieldImageRegistrationMethod.h</text>
</a>
</g>
</g>
<!-- Node5&#45;&gt;Node8 -->
<g id="edge7" class="edge">
<title>Node5&#45;&gt;Node8</title>
<path fill="none" stroke="midnightblue" d="M827.4,-129.01C812.4,-119.52 792.66,-107.02 777.65,-97.52"/>
<polygon fill="midnightblue" stroke="midnightblue" points="825.71,-132.08 836.03,-134.48 829.45,-126.17 825.71,-132.08"/>
</g>
<!-- Node9 -->
<g id="node9" class="node">
<title>Node9</title>
<g id="a_node9"><a xlink:href="itkTimeVaryingVelocityFieldImageRegistrationMethodv4_8h.html" target="_top" xlink:title=" ">
<polygon fill="white" stroke="black" points="861.5,-67.5 861.5,-97.5 1025.5,-97.5 1025.5,-67.5 861.5,-67.5"/>
<text text-anchor="start" x="869.5" y="-85.5" font-family="Helvetica,sans-Serif" font-size="10.00">itkTimeVaryingVelocityField</text>
<text text-anchor="middle" x="943.5" y="-74.5" font-family="Helvetica,sans-Serif" font-size="10.00">ImageRegistrationMethodv4.h</text>
</a>
</g>
</g>
<!-- Node5&#45;&gt;Node9 -->
<g id="edge8" class="edge">
<title>Node5&#45;&gt;Node9</title>
<path fill="none" stroke="midnightblue" d="M871.6,-129.01C886.6,-119.52 906.34,-107.02 921.35,-97.52"/>
<polygon fill="midnightblue" stroke="midnightblue" points="869.55,-126.17 862.97,-134.48 873.29,-132.08 869.55,-126.17"/>
</g>
<!-- Node7 -->
<g id="node7" class="node">
<title>Node7</title>
<g id="a_node7"><a xlink:href="itkBSplineSyNImageRegistrationMethod_8h.html" target="_top" xlink:title=" ">
<polygon fill="white" stroke="black" points="1048.5,-0.5 1048.5,-30.5 1224.5,-30.5 1224.5,-0.5 1048.5,-0.5"/>
<text text-anchor="start" x="1056.5" y="-18.5" font-family="Helvetica,sans-Serif" font-size="10.00">itkBSplineSyNImageRegistration</text>
<text text-anchor="middle" x="1136.5" y="-7.5" font-family="Helvetica,sans-Serif" font-size="10.00">Method.h</text>
</a>
</g>
</g>
<!-- Node6&#45;&gt;Node7 -->
<g id="edge6" class="edge">
<title>Node6&#45;&gt;Node7</title>
<path fill="none" stroke="midnightblue" d="M1136.5,-62.41C1136.5,-52.22 1136.5,-39.9 1136.5,-30.59"/>
<polygon fill="midnightblue" stroke="midnightblue" points="1133,-62.73 1136.5,-72.73 1140,-62.73 1133,-62.73"/>
</g>
<!-- Node10&#45;&gt;Node3 -->
<g id="edge12" class="edge">
<title>Node10&#45;&gt;Node3</title>
<path fill="none" stroke="midnightblue" d="M288.63,-132.17C247.45,-122.45 186.76,-108.12 141.89,-97.52"/>
<polygon fill="midnightblue" stroke="midnightblue" points="287.86,-135.58 298.39,-134.48 289.47,-128.77 287.86,-135.58"/>
</g>
<!-- Node11 -->
<g id="node11" class="node">
<title>Node11</title>
<g id="a_node11"><a xlink:href="itkEuclideanDistancePointSetToPointSetMetricv4_8h.html" target="_top" xlink:title=" ">
<polygon fill="white" stroke="black" points="505.5,-67.5 505.5,-97.5 649.5,-97.5 649.5,-67.5 505.5,-67.5"/>
<text text-anchor="start" x="513.5" y="-85.5" font-family="Helvetica,sans-Serif" font-size="10.00">itkEuclideanDistancePoint</text>
<text text-anchor="middle" x="577.5" y="-74.5" font-family="Helvetica,sans-Serif" font-size="10.00">SetToPointSetMetricv4.h</text>
</a>
</g>
</g>
<!-- Node10&#45;&gt;Node11 -->
<g id="edge10" class="edge">
<title>Node10&#45;&gt;Node11</title>
<path fill="none" stroke="midnightblue" d="M379.24,-132.05C418.93,-122.33 477.14,-108.07 520.23,-97.52"/>
<polygon fill="midnightblue" stroke="midnightblue" points="378.2,-128.7 369.32,-134.48 379.86,-135.5 378.2,-128.7"/>
</g>
<!-- Node12 -->
<g id="node12" class="node">
<title>Node12</title>
<g id="a_node12"><a xlink:href="itkExpectationBasedPointSetToPointSetMetricv4_8h.html" target="_top" xlink:title=" ">
<polygon fill="white" stroke="black" points="183.5,-67.5 183.5,-97.5 325.5,-97.5 325.5,-67.5 183.5,-67.5"/>
<text text-anchor="start" x="191.5" y="-85.5" font-family="Helvetica,sans-Serif" font-size="10.00">itkExpectationBasedPoint</text>
<text text-anchor="middle" x="254.5" y="-74.5" font-family="Helvetica,sans-Serif" font-size="10.00">SetToPointSetMetricv4.h</text>
</a>
</g>
</g>
<!-- Node10&#45;&gt;Node12 -->
<g id="edge11" class="edge">
<title>Node10&#45;&gt;Node12</title>
<path fill="none" stroke="midnightblue" d="M314.96,-128.47C302.29,-119.05 285.88,-106.84 273.35,-97.52"/>
<polygon fill="midnightblue" stroke="midnightblue" points="312.93,-131.32 323.04,-134.48 317.1,-125.7 312.93,-131.32"/>
</g>
<!-- Node13 -->
<g id="node13" class="node">
<title>Node13</title>
<g id="a_node13"><a xlink:href="itkLabeledPointSetToPointSetMetricv4_8h.html" target="_top" xlink:title=" ">
<polygon fill="white" stroke="black" points="344,-67.5 344,-97.5 487,-97.5 487,-67.5 344,-67.5"/>
<text text-anchor="start" x="352" y="-85.5" font-family="Helvetica,sans-Serif" font-size="10.00">itkLabeledPointSetToPoint</text>
<text text-anchor="middle" x="415.5" y="-74.5" font-family="Helvetica,sans-Serif" font-size="10.00">SetMetricv4.h</text>
</a>
</g>
</g>
<!-- Node10&#45;&gt;Node13 -->
<g id="edge13" class="edge">
<title>Node10&#45;&gt;Node13</title>
<path fill="none" stroke="midnightblue" d="M354.28,-128.47C367.11,-119.05 383.73,-106.84 396.41,-97.52"/>
<polygon fill="midnightblue" stroke="midnightblue" points="352.09,-125.73 346.11,-134.48 356.24,-131.38 352.09,-125.73"/>
</g>
</g>
</svg>
