<?xml version="1.0" encoding="UTF-8" standalone="no"?>
<!DOCTYPE svg PUBLIC "-//W3C//DTD SVG 1.1//EN"
 "http://www.w3.org/Graphics/SVG/1.1/DTD/svg11.dtd">
<!-- Generated by graphviz version 2.43.0 (0)
 -->
<!-- Title: itkQuadraticEdgeCell.h Pages: 1 -->
<svg width="196pt" height="196pt"
 viewBox="0.00 0.00 196.00 196.00" xmlns="http://www.w3.org/2000/svg" xmlns:xlink="http://www.w3.org/1999/xlink">
<g id="graph0" class="graph" transform="scale(1 1) rotate(0) translate(4 192)">
<title>itkQuadraticEdgeCell.h</title>
<polygon fill="white" stroke="transparent" points="-4,4 -4,-192 192,-192 192,4 -4,4"/>
<!-- Node1 -->
<g id="node1" class="node">
<title>Node1</title>
<g id="a_node1"><a xlink:title=" ">
<polygon fill="#bfbfbf" stroke="black" points="57.5,-168.5 57.5,-187.5 185.5,-187.5 185.5,-168.5 57.5,-168.5"/>
<text text-anchor="middle" x="121.5" y="-175.5" font-family="Helvetica,sans-Serif" font-size="10.00">itkQuadraticEdgeCell.h</text>
</a>
</g>
</g>
<!-- Node2 -->
<g id="node2" class="node">
<title>Node2</title>
<g id="a_node2"><a xlink:href="itkQuadraticTriangleCell_8h.html" target="_top" xlink:title=" ">
<polygon fill="white" stroke="black" points="0,-112.5 0,-131.5 143,-131.5 143,-112.5 0,-112.5"/>
<text text-anchor="middle" x="71.5" y="-119.5" font-family="Helvetica,sans-Serif" font-size="10.00">itkQuadraticTriangleCell.h</text>
</a>
</g>
</g>
<!-- Node1&#45;&gt;Node2 -->
<g id="edge1" class="edge">
<title>Node1&#45;&gt;Node2</title>
<path fill="none" stroke="midnightblue" d="M106.42,-160.72C97.61,-151.2 86.83,-139.56 79.6,-131.75"/>
<polygon fill="midnightblue" stroke="midnightblue" points="103.88,-163.12 113.24,-168.08 109.02,-158.37 103.88,-163.12"/>
</g>
<!-- Node3 -->
<g id="node3" class="node">
<title>Node3</title>
<g id="a_node3"><a xlink:href="itkMeshFileReader_8h.html" target="_top" xlink:title=" ">
<polygon fill="white" stroke="black" points="63.5,-56.5 63.5,-75.5 179.5,-75.5 179.5,-56.5 63.5,-56.5"/>
<text text-anchor="middle" x="121.5" y="-63.5" font-family="Helvetica,sans-Serif" font-size="10.00">itkMeshFileReader.h</text>
</a>
</g>
</g>
<!-- Node1&#45;&gt;Node3 -->
<g id="edge4" class="edge">
<title>Node1&#45;&gt;Node3</title>
<path fill="none" stroke="midnightblue" d="M136.48,-160.47C142.72,-152.48 149.27,-142.38 152.5,-132 159.11,-110.75 141.54,-87.63 130.22,-75.51"/>
<polygon fill="midnightblue" stroke="midnightblue" points="133.71,-158.32 129.98,-168.23 139.08,-162.81 133.71,-158.32"/>
</g>
<!-- Node2&#45;&gt;Node3 -->
<g id="edge2" class="edge">
<title>Node2&#45;&gt;Node3</title>
<path fill="none" stroke="midnightblue" d="M86.58,-104.72C95.39,-95.2 106.17,-83.56 113.4,-75.75"/>
<polygon fill="midnightblue" stroke="midnightblue" points="83.98,-102.37 79.76,-112.08 89.12,-107.12 83.98,-102.37"/>
</g>
<!-- Node4 -->
<g id="node4" class="node">
<title>Node4</title>
<g id="a_node4"><a xlink:href="itkMeshFileTestHelper_8h.html" target="_top" xlink:title=" ">
<polygon fill="white" stroke="black" points="55,-0.5 55,-19.5 188,-19.5 188,-0.5 55,-0.5"/>
<text text-anchor="middle" x="121.5" y="-7.5" font-family="Helvetica,sans-Serif" font-size="10.00">itkMeshFileTestHelper.h</text>
</a>
</g>
</g>
<!-- Node3&#45;&gt;Node4 -->
<g id="edge3" class="edge">
<title>Node3&#45;&gt;Node4</title>
<path fill="none" stroke="midnightblue" d="M121.5,-45.8C121.5,-36.91 121.5,-26.78 121.5,-19.75"/>
<polygon fill="midnightblue" stroke="midnightblue" points="118,-46.08 121.5,-56.08 125,-46.08 118,-46.08"/>
</g>
</g>
</svg>
