<?xml version="1.0" encoding="UTF-8" standalone="no"?>
<!DOCTYPE svg PUBLIC "-//W3C//DTD SVG 1.1//EN"
 "http://www.w3.org/Graphics/SVG/1.1/DTD/svg11.dtd">
<!-- Generated by graphviz version 2.43.0 (0)
 -->
<!-- Title: itkRandomVariateGeneratorBase.h Pages: 1 -->
<svg width="1084pt" height="431pt"
 viewBox="0.00 0.00 1084.00 431.00" xmlns="http://www.w3.org/2000/svg" xmlns:xlink="http://www.w3.org/1999/xlink">
<g id="graph0" class="graph" transform="scale(1 1) rotate(0) translate(4 427)">
<title>itkRandomVariateGeneratorBase.h</title>
<polygon fill="white" stroke="transparent" points="-4,4 -4,-427 1080,-427 1080,4 -4,4"/>
<!-- Node1 -->
<g id="node1" class="node">
<title>Node1</title>
<g id="a_node1"><a xlink:title=" ">
<polygon fill="#bfbfbf" stroke="black" points="592.5,-392.5 592.5,-422.5 745.5,-422.5 745.5,-392.5 592.5,-392.5"/>
<text text-anchor="start" x="600.5" y="-410.5" font-family="Helvetica,sans-Serif" font-size="10.00">itkRandomVariateGenerator</text>
<text text-anchor="middle" x="669" y="-399.5" font-family="Helvetica,sans-Serif" font-size="10.00">Base.h</text>
</a>
</g>
</g>
<!-- Node2 -->
<g id="node2" class="node">
<title>Node2</title>
<g id="a_node2"><a xlink:href="itkObject_8h.html" target="_top" xlink:title=" ">
<polygon fill="white" stroke="black" points="634,-336.5 634,-355.5 704,-355.5 704,-336.5 634,-336.5"/>
<text text-anchor="middle" x="669" y="-343.5" font-family="Helvetica,sans-Serif" font-size="10.00">itkObject.h</text>
</a>
</g>
</g>
<!-- Node1&#45;&gt;Node2 -->
<g id="edge1" class="edge">
<title>Node1&#45;&gt;Node2</title>
<path fill="none" stroke="midnightblue" d="M669,-392.4C669,-384.47 669,-374.46 669,-365.86"/>
<polygon fill="midnightblue" stroke="midnightblue" points="672.5,-365.66 669,-355.66 665.5,-365.66 672.5,-365.66"/>
</g>
<!-- Node3 -->
<g id="node3" class="node">
<title>Node3</title>
<g id="a_node3"><a xlink:href="itkLightObject_8h.html" target="_top" xlink:title=" ">
<polygon fill="white" stroke="black" points="437,-168.5 437,-187.5 531,-187.5 531,-168.5 437,-168.5"/>
<text text-anchor="middle" x="484" y="-175.5" font-family="Helvetica,sans-Serif" font-size="10.00">itkLightObject.h</text>
</a>
</g>
</g>
<!-- Node2&#45;&gt;Node3 -->
<g id="edge2" class="edge">
<title>Node2&#45;&gt;Node3</title>
<path fill="none" stroke="midnightblue" d="M653.78,-336.45C639.32,-328.01 617.29,-314.33 600,-300 559.5,-266.42 518.35,-219.92 497.66,-195.5"/>
<polygon fill="midnightblue" stroke="midnightblue" points="500.12,-192.98 491.01,-187.56 494.75,-197.47 500.12,-192.98"/>
</g>
<!-- Node15 -->
<g id="node15" class="node">
<title>Node15</title>
<g id="a_node15"><a xlink:href="itkSingletonMacro_8h.html" target="_top" xlink:title=" ">
<polygon fill="white" stroke="black" points="0,-56.5 0,-75.5 114,-75.5 114,-56.5 0,-56.5"/>
<text text-anchor="middle" x="57" y="-63.5" font-family="Helvetica,sans-Serif" font-size="10.00">itkSingletonMacro.h</text>
</a>
</g>
</g>
<!-- Node2&#45;&gt;Node15 -->
<g id="edge35" class="edge">
<title>Node2&#45;&gt;Node15</title>
<path fill="none" stroke="midnightblue" d="M633.98,-342.19C507.39,-331.57 81,-291.6 81,-235 81,-235 81,-235 81,-177 81,-144.06 70.6,-106.82 63.49,-85.21"/>
<polygon fill="midnightblue" stroke="midnightblue" points="66.78,-84.03 60.24,-75.7 60.16,-86.29 66.78,-84.03"/>
</g>
<!-- Node18 -->
<g id="node18" class="node">
<title>Node18</title>
<g id="a_node18"><a xlink:href="itkEventObject_8h.html" target="_top" xlink:title=" ">
<polygon fill="white" stroke="black" points="549,-168.5 549,-187.5 647,-187.5 647,-168.5 549,-168.5"/>
<text text-anchor="middle" x="598" y="-175.5" font-family="Helvetica,sans-Serif" font-size="10.00">itkEventObject.h</text>
</a>
</g>
</g>
<!-- Node2&#45;&gt;Node18 -->
<g id="edge23" class="edge">
<title>Node2&#45;&gt;Node18</title>
<path fill="none" stroke="midnightblue" d="M657.5,-336.26C637.74,-320.43 598.03,-284.85 583,-244 577.26,-228.41 582.66,-209.88 588.52,-196.61"/>
<polygon fill="midnightblue" stroke="midnightblue" points="591.67,-198.13 592.92,-187.61 585.38,-195.06 591.67,-198.13"/>
</g>
<!-- Node19 -->
<g id="node19" class="node">
<title>Node19</title>
<g id="a_node19"><a xlink:href="itkMetaDataDictionary_8h.html" target="_top" xlink:title=" ">
<polygon fill="white" stroke="black" points="742.5,-280.5 742.5,-299.5 877.5,-299.5 877.5,-280.5 742.5,-280.5"/>
<text text-anchor="middle" x="810" y="-287.5" font-family="Helvetica,sans-Serif" font-size="10.00">itkMetaDataDictionary.h</text>
</a>
</g>
</g>
<!-- Node2&#45;&gt;Node19 -->
<g id="edge25" class="edge">
<title>Node2&#45;&gt;Node19</title>
<path fill="none" stroke="midnightblue" d="M691.34,-336.44C714.75,-327.48 751.74,-313.31 778.19,-303.18"/>
<polygon fill="midnightblue" stroke="midnightblue" points="779.68,-306.36 787.76,-299.52 777.17,-299.82 779.68,-306.36"/>
</g>
<!-- Node25 -->
<g id="node25" class="node">
<title>Node25</title>
<g id="a_node25"><a xlink:title=" ">
<polygon fill="white" stroke="#bfbfbf" points="1018,-224.5 1018,-243.5 1076,-243.5 1076,-224.5 1018,-224.5"/>
<text text-anchor="middle" x="1047" y="-231.5" font-family="Helvetica,sans-Serif" font-size="10.00">memory</text>
</a>
</g>
</g>
<!-- Node2&#45;&gt;Node25 -->
<g id="edge37" class="edge">
<title>Node2&#45;&gt;Node25</title>
<path fill="none" stroke="midnightblue" d="M704.14,-340.73C747.9,-334.73 824.49,-322.02 887,-300 905.37,-293.53 908.17,-287.85 926,-280 954.3,-267.53 987.25,-255.43 1011.61,-246.92"/>
<polygon fill="midnightblue" stroke="midnightblue" points="1012.85,-250.2 1021.16,-243.62 1010.56,-243.58 1012.85,-250.2"/>
</g>
<!-- Node26 -->
<g id="node26" class="node">
<title>Node26</title>
<g id="a_node26"><a xlink:title=" ">
<polygon fill="white" stroke="#bfbfbf" points="934.5,-280.5 934.5,-299.5 999.5,-299.5 999.5,-280.5 934.5,-280.5"/>
<text text-anchor="middle" x="967" y="-287.5" font-family="Helvetica,sans-Serif" font-size="10.00">functional</text>
</a>
</g>
</g>
<!-- Node2&#45;&gt;Node26 -->
<g id="edge36" class="edge">
<title>Node2&#45;&gt;Node26</title>
<path fill="none" stroke="midnightblue" d="M704.36,-338.8C752.97,-330.24 843.17,-314.24 920,-300 921.46,-299.73 922.94,-299.45 924.43,-299.17"/>
<polygon fill="midnightblue" stroke="midnightblue" points="925.22,-302.59 934.39,-297.3 923.92,-295.71 925.22,-302.59"/>
</g>
<!-- Node4 -->
<g id="node4" class="node">
<title>Node4</title>
<g id="a_node4"><a xlink:href="itkMacro_8h.html" target="_top" xlink:title=" ">
<polygon fill="white" stroke="black" points="141,-0.5 141,-19.5 209,-19.5 209,-0.5 141,-0.5"/>
<text text-anchor="middle" x="175" y="-7.5" font-family="Helvetica,sans-Serif" font-size="10.00">itkMacro.h</text>
</a>
</g>
</g>
<!-- Node3&#45;&gt;Node4 -->
<g id="edge3" class="edge">
<title>Node3&#45;&gt;Node4</title>
<path fill="none" stroke="midnightblue" d="M436.87,-176.39C362.86,-174.39 224.35,-166.06 191,-132 164.41,-104.84 167.22,-56.34 171.29,-29.73"/>
<polygon fill="midnightblue" stroke="midnightblue" points="174.76,-30.25 173.03,-19.8 167.86,-29.05 174.76,-30.25"/>
</g>
<!-- Node5 -->
<g id="node5" class="node">
<title>Node5</title>
<g id="a_node5"><a xlink:href="itkSmartPointer_8h.html" target="_top" xlink:title=" ">
<polygon fill="white" stroke="black" points="405.5,-112.5 405.5,-131.5 506.5,-131.5 506.5,-112.5 405.5,-112.5"/>
<text text-anchor="middle" x="456" y="-119.5" font-family="Helvetica,sans-Serif" font-size="10.00">itkSmartPointer.h</text>
</a>
</g>
</g>
<!-- Node3&#45;&gt;Node5 -->
<g id="edge4" class="edge">
<title>Node3&#45;&gt;Node5</title>
<path fill="none" stroke="midnightblue" d="M479.38,-168.08C475.54,-160.69 469.98,-149.95 465.24,-140.81"/>
<polygon fill="midnightblue" stroke="midnightblue" points="468.25,-139.02 460.54,-131.75 462.03,-142.24 468.25,-139.02"/>
</g>
<!-- Node6 -->
<g id="node6" class="node">
<title>Node6</title>
<g id="a_node6"><a xlink:title=" ">
<polygon fill="white" stroke="#bfbfbf" points="628,-56.5 628,-75.5 688,-75.5 688,-56.5 628,-56.5"/>
<text text-anchor="middle" x="658" y="-63.5" font-family="Helvetica,sans-Serif" font-size="10.00">iostream</text>
</a>
</g>
</g>
<!-- Node3&#45;&gt;Node6 -->
<g id="edge21" class="edge">
<title>Node3&#45;&gt;Node6</title>
<path fill="none" stroke="midnightblue" d="M491.43,-168.43C503.47,-154.96 528.45,-128.68 554,-112 575.19,-98.17 601.34,-86.87 622.12,-79.06"/>
<polygon fill="midnightblue" stroke="midnightblue" points="623.36,-82.34 631.55,-75.61 620.95,-75.76 623.36,-82.34"/>
</g>
<!-- Node10 -->
<g id="node10" class="node">
<title>Node10</title>
<g id="a_node10"><a xlink:href="itkTimeStamp_8h.html" target="_top" xlink:title=" ">
<polygon fill="white" stroke="black" points="200.5,-112.5 200.5,-131.5 295.5,-131.5 295.5,-112.5 200.5,-112.5"/>
<text text-anchor="middle" x="248" y="-119.5" font-family="Helvetica,sans-Serif" font-size="10.00">itkTimeStamp.h</text>
</a>
</g>
</g>
<!-- Node3&#45;&gt;Node10 -->
<g id="edge9" class="edge">
<title>Node3&#45;&gt;Node10</title>
<path fill="none" stroke="midnightblue" d="M446.61,-168.44C405.61,-159.06 339.75,-143.99 295.22,-133.8"/>
<polygon fill="midnightblue" stroke="midnightblue" points="295.75,-130.34 285.22,-131.52 294.19,-137.16 295.75,-130.34"/>
</g>
<!-- Node14 -->
<g id="node14" class="node">
<title>Node14</title>
<g id="a_node14"><a xlink:title=" ">
<polygon fill="white" stroke="#bfbfbf" points="306,-56.5 306,-75.5 356,-75.5 356,-56.5 306,-56.5"/>
<text text-anchor="middle" x="331" y="-63.5" font-family="Helvetica,sans-Serif" font-size="10.00">atomic</text>
</a>
</g>
</g>
<!-- Node3&#45;&gt;Node14 -->
<g id="edge20" class="edge">
<title>Node3&#45;&gt;Node14</title>
<path fill="none" stroke="midnightblue" d="M462.67,-168.35C444.16,-160.33 417.09,-147.35 396,-132 376.55,-117.85 357.47,-97.83 345.07,-83.76"/>
<polygon fill="midnightblue" stroke="midnightblue" points="347.45,-81.16 338.27,-75.87 342.15,-85.73 347.45,-81.16"/>
</g>
<!-- Node16 -->
<g id="node16" class="node">
<title>Node16</title>
<g id="a_node16"><a xlink:href="itkIndent_8h.html" target="_top" xlink:title=" ">
<polygon fill="white" stroke="black" points="563.5,-112.5 563.5,-131.5 632.5,-131.5 632.5,-112.5 563.5,-112.5"/>
<text text-anchor="middle" x="598" y="-119.5" font-family="Helvetica,sans-Serif" font-size="10.00">itkIndent.h</text>
</a>
</g>
</g>
<!-- Node3&#45;&gt;Node16 -->
<g id="edge17" class="edge">
<title>Node3&#45;&gt;Node16</title>
<path fill="none" stroke="midnightblue" d="M502.06,-168.44C520.57,-159.68 549.58,-145.94 570.86,-135.86"/>
<polygon fill="midnightblue" stroke="midnightblue" points="572.48,-138.96 580.02,-131.52 569.49,-132.63 572.48,-138.96"/>
</g>
<!-- Node17 -->
<g id="node17" class="node">
<title>Node17</title>
<g id="a_node17"><a xlink:title=" ">
<polygon fill="white" stroke="#bfbfbf" points="650.5,-112.5 650.5,-131.5 707.5,-131.5 707.5,-112.5 650.5,-112.5"/>
<text text-anchor="middle" x="679" y="-119.5" font-family="Helvetica,sans-Serif" font-size="10.00">typeinfo</text>
</a>
</g>
</g>
<!-- Node3&#45;&gt;Node17 -->
<g id="edge22" class="edge">
<title>Node3&#45;&gt;Node17</title>
<path fill="none" stroke="midnightblue" d="M514.9,-168.44C548.96,-159.01 603.8,-143.83 640.6,-133.63"/>
<polygon fill="midnightblue" stroke="midnightblue" points="641.76,-136.94 650.47,-130.9 639.9,-130.2 641.76,-136.94"/>
</g>
<!-- Node5&#45;&gt;Node6 -->
<g id="edge5" class="edge">
<title>Node5&#45;&gt;Node6</title>
<path fill="none" stroke="midnightblue" d="M488.01,-112.44C523.24,-103.03 579.93,-87.87 618.05,-77.68"/>
<polygon fill="midnightblue" stroke="midnightblue" points="619.03,-81.04 627.79,-75.08 617.23,-74.28 619.03,-81.04"/>
</g>
<!-- Node7 -->
<g id="node7" class="node">
<title>Node7</title>
<g id="a_node7"><a xlink:title=" ">
<polygon fill="white" stroke="#bfbfbf" points="374.5,-56.5 374.5,-75.5 419.5,-75.5 419.5,-56.5 374.5,-56.5"/>
<text text-anchor="middle" x="397" y="-63.5" font-family="Helvetica,sans-Serif" font-size="10.00">utility</text>
</a>
</g>
</g>
<!-- Node5&#45;&gt;Node7 -->
<g id="edge6" class="edge">
<title>Node5&#45;&gt;Node7</title>
<path fill="none" stroke="midnightblue" d="M446.52,-112.32C437.8,-104.34 424.66,-92.31 414.1,-82.65"/>
<polygon fill="midnightblue" stroke="midnightblue" points="416.39,-80 406.65,-75.83 411.67,-85.17 416.39,-80"/>
</g>
<!-- Node8 -->
<g id="node8" class="node">
<title>Node8</title>
<g id="a_node8"><a xlink:title=" ">
<polygon fill="white" stroke="#bfbfbf" points="437.5,-56.5 437.5,-75.5 506.5,-75.5 506.5,-56.5 437.5,-56.5"/>
<text text-anchor="middle" x="472" y="-63.5" font-family="Helvetica,sans-Serif" font-size="10.00">type_traits</text>
</a>
</g>
</g>
<!-- Node5&#45;&gt;Node8 -->
<g id="edge7" class="edge">
<title>Node5&#45;&gt;Node8</title>
<path fill="none" stroke="midnightblue" d="M458.64,-112.08C460.79,-104.85 463.88,-94.41 466.55,-85.4"/>
<polygon fill="midnightblue" stroke="midnightblue" points="469.92,-86.33 469.41,-75.75 463.21,-84.34 469.92,-86.33"/>
</g>
<!-- Node9 -->
<g id="node9" class="node">
<title>Node9</title>
<g id="a_node9"><a xlink:title=" ">
<polygon fill="white" stroke="#bfbfbf" points="524.5,-56.5 524.5,-75.5 609.5,-75.5 609.5,-56.5 524.5,-56.5"/>
<text text-anchor="middle" x="567" y="-63.5" font-family="Helvetica,sans-Serif" font-size="10.00">itkConfigure.h</text>
</a>
</g>
</g>
<!-- Node5&#45;&gt;Node9 -->
<g id="edge8" class="edge">
<title>Node5&#45;&gt;Node9</title>
<path fill="none" stroke="midnightblue" d="M473.83,-112.32C491.72,-103.62 519.48,-90.12 540.05,-80.11"/>
<polygon fill="midnightblue" stroke="midnightblue" points="541.75,-83.18 549.21,-75.65 538.69,-76.88 541.75,-83.18"/>
</g>
<!-- Node10&#45;&gt;Node4 -->
<g id="edge10" class="edge">
<title>Node10&#45;&gt;Node4</title>
<path fill="none" stroke="midnightblue" d="M235.58,-112.3C224.63,-104.06 208.91,-90.77 199,-76 189.47,-61.8 183.12,-43.32 179.36,-29.7"/>
<polygon fill="midnightblue" stroke="midnightblue" points="182.65,-28.43 176.8,-19.6 175.87,-30.15 182.65,-28.43"/>
</g>
<!-- Node11 -->
<g id="node11" class="node">
<title>Node11</title>
<g id="a_node11"><a xlink:href="itkIntTypes_8h.html" target="_top" xlink:title=" ">
<polygon fill="white" stroke="black" points="208.5,-56.5 208.5,-75.5 287.5,-75.5 287.5,-56.5 208.5,-56.5"/>
<text text-anchor="middle" x="248" y="-63.5" font-family="Helvetica,sans-Serif" font-size="10.00">itkIntTypes.h</text>
</a>
</g>
</g>
<!-- Node10&#45;&gt;Node11 -->
<g id="edge11" class="edge">
<title>Node10&#45;&gt;Node11</title>
<path fill="none" stroke="midnightblue" d="M248,-112.08C248,-105.01 248,-94.86 248,-85.99"/>
<polygon fill="midnightblue" stroke="midnightblue" points="251.5,-85.75 248,-75.75 244.5,-85.75 251.5,-85.75"/>
</g>
<!-- Node10&#45;&gt;Node14 -->
<g id="edge15" class="edge">
<title>Node10&#45;&gt;Node14</title>
<path fill="none" stroke="midnightblue" d="M261.34,-112.32C274.16,-103.98 293.78,-91.21 308.94,-81.35"/>
<polygon fill="midnightblue" stroke="midnightblue" points="311.22,-84.04 317.7,-75.65 307.41,-78.17 311.22,-84.04"/>
</g>
<!-- Node10&#45;&gt;Node15 -->
<g id="edge16" class="edge">
<title>Node10&#45;&gt;Node15</title>
<path fill="none" stroke="midnightblue" d="M217.74,-112.44C185.04,-103.2 132.82,-88.44 96.82,-78.26"/>
<polygon fill="midnightblue" stroke="midnightblue" points="97.7,-74.87 87.12,-75.52 95.79,-81.61 97.7,-74.87"/>
</g>
<!-- Node11&#45;&gt;Node4 -->
<g id="edge12" class="edge">
<title>Node11&#45;&gt;Node4</title>
<path fill="none" stroke="midnightblue" d="M236.27,-56.32C225.16,-48.11 208.26,-35.6 195.02,-25.81"/>
<polygon fill="midnightblue" stroke="midnightblue" points="197.06,-22.97 186.94,-19.83 192.9,-28.59 197.06,-22.97"/>
</g>
<!-- Node12 -->
<g id="node12" class="node">
<title>Node12</title>
<g id="a_node12"><a xlink:title=" ">
<polygon fill="white" stroke="#bfbfbf" points="295,-0.5 295,-19.5 345,-19.5 345,-0.5 295,-0.5"/>
<text text-anchor="middle" x="320" y="-7.5" font-family="Helvetica,sans-Serif" font-size="10.00">cstdint</text>
</a>
</g>
</g>
<!-- Node11&#45;&gt;Node12 -->
<g id="edge13" class="edge">
<title>Node11&#45;&gt;Node12</title>
<path fill="none" stroke="midnightblue" d="M259.57,-56.32C270.42,-48.18 286.88,-35.84 299.88,-26.09"/>
<polygon fill="midnightblue" stroke="midnightblue" points="302.32,-28.63 308.22,-19.83 298.12,-23.03 302.32,-28.63"/>
</g>
<!-- Node13 -->
<g id="node13" class="node">
<title>Node13</title>
<g id="a_node13"><a xlink:title=" ">
<polygon fill="white" stroke="#bfbfbf" points="227,-0.5 227,-19.5 277,-19.5 277,-0.5 227,-0.5"/>
<text text-anchor="middle" x="252" y="-7.5" font-family="Helvetica,sans-Serif" font-size="10.00">climits</text>
</a>
</g>
</g>
<!-- Node11&#45;&gt;Node13 -->
<g id="edge14" class="edge">
<title>Node11&#45;&gt;Node13</title>
<path fill="none" stroke="midnightblue" d="M248.66,-56.08C249.18,-49.01 249.94,-38.86 250.59,-29.99"/>
<polygon fill="midnightblue" stroke="midnightblue" points="254.1,-29.98 251.35,-19.75 247.12,-29.47 254.1,-29.98"/>
</g>
<!-- Node16&#45;&gt;Node4 -->
<g id="edge18" class="edge">
<title>Node16&#45;&gt;Node4</title>
<path fill="none" stroke="midnightblue" d="M632.72,-112.41C669.92,-101.64 720.63,-81.47 697,-56 662.3,-18.59 304.43,-26.65 219.17,-19.65"/>
<polygon fill="midnightblue" stroke="midnightblue" points="219.51,-16.16 209.2,-18.58 218.77,-23.12 219.51,-16.16"/>
</g>
<!-- Node16&#45;&gt;Node6 -->
<g id="edge19" class="edge">
<title>Node16&#45;&gt;Node6</title>
<path fill="none" stroke="midnightblue" d="M607.64,-112.32C616.51,-104.34 629.87,-92.31 640.61,-82.65"/>
<polygon fill="midnightblue" stroke="midnightblue" points="643.09,-85.13 648.18,-75.83 638.41,-79.92 643.09,-85.13"/>
</g>
<!-- Node18&#45;&gt;Node16 -->
<g id="edge24" class="edge">
<title>Node18&#45;&gt;Node16</title>
<path fill="none" stroke="midnightblue" d="M598,-168.08C598,-161.01 598,-150.86 598,-141.99"/>
<polygon fill="midnightblue" stroke="midnightblue" points="601.5,-141.75 598,-131.75 594.5,-141.75 601.5,-141.75"/>
</g>
<!-- Node20 -->
<g id="node20" class="node">
<title>Node20</title>
<g id="a_node20"><a xlink:href="itkMetaDataObjectBase_8h.html" target="_top" xlink:title=" ">
<polygon fill="white" stroke="black" points="592,-224.5 592,-243.5 734,-243.5 734,-224.5 592,-224.5"/>
<text text-anchor="middle" x="663" y="-231.5" font-family="Helvetica,sans-Serif" font-size="10.00">itkMetaDataObjectBase.h</text>
</a>
</g>
</g>
<!-- Node19&#45;&gt;Node20 -->
<g id="edge26" class="edge">
<title>Node19&#45;&gt;Node20</title>
<path fill="none" stroke="midnightblue" d="M786.71,-280.44C762.19,-271.44 723.4,-257.19 695.8,-247.05"/>
<polygon fill="midnightblue" stroke="midnightblue" points="696.78,-243.68 686.18,-243.52 694.36,-250.25 696.78,-243.68"/>
</g>
<!-- Node21 -->
<g id="node21" class="node">
<title>Node21</title>
<g id="a_node21"><a xlink:title=" ">
<polygon fill="white" stroke="#bfbfbf" points="814,-224.5 814,-243.5 878,-243.5 878,-224.5 814,-224.5"/>
<text text-anchor="middle" x="846" y="-231.5" font-family="Helvetica,sans-Serif" font-size="10.00">algorithm</text>
</a>
</g>
</g>
<!-- Node19&#45;&gt;Node21 -->
<g id="edge30" class="edge">
<title>Node19&#45;&gt;Node21</title>
<path fill="none" stroke="midnightblue" d="M815.94,-280.08C820.98,-272.53 828.34,-261.49 834.51,-252.23"/>
<polygon fill="midnightblue" stroke="midnightblue" points="837.53,-254.01 840.17,-243.75 831.71,-250.13 837.53,-254.01"/>
</g>
<!-- Node22 -->
<g id="node22" class="node">
<title>Node22</title>
<g id="a_node22"><a xlink:title=" ">
<polygon fill="white" stroke="#bfbfbf" points="896.5,-224.5 896.5,-243.5 943.5,-243.5 943.5,-224.5 896.5,-224.5"/>
<text text-anchor="middle" x="920" y="-231.5" font-family="Helvetica,sans-Serif" font-size="10.00">vector</text>
</a>
</g>
</g>
<!-- Node19&#45;&gt;Node22 -->
<g id="edge31" class="edge">
<title>Node19&#45;&gt;Node22</title>
<path fill="none" stroke="midnightblue" d="M827.67,-280.32C845.39,-271.62 872.9,-258.12 893.29,-248.11"/>
<polygon fill="midnightblue" stroke="midnightblue" points="894.94,-251.2 902.37,-243.65 891.85,-244.92 894.94,-251.2"/>
</g>
<!-- Node23 -->
<g id="node23" class="node">
<title>Node23</title>
<g id="a_node23"><a xlink:title=" ">
<polygon fill="white" stroke="#bfbfbf" points="962,-224.5 962,-243.5 1000,-243.5 1000,-224.5 962,-224.5"/>
<text text-anchor="middle" x="981" y="-231.5" font-family="Helvetica,sans-Serif" font-size="10.00">map</text>
</a>
</g>
</g>
<!-- Node19&#45;&gt;Node23 -->
<g id="edge32" class="edge">
<title>Node19&#45;&gt;Node23</title>
<path fill="none" stroke="midnightblue" d="M837.43,-280.42C864.32,-272 906.71,-258.7 952.02,-244.3"/>
<polygon fill="midnightblue" stroke="midnightblue" points="953.26,-247.58 961.73,-241.21 951.13,-240.91 953.26,-247.58"/>
</g>
<!-- Node24 -->
<g id="node24" class="node">
<title>Node24</title>
<g id="a_node24"><a xlink:title=" ">
<polygon fill="white" stroke="#bfbfbf" points="752,-224.5 752,-243.5 796,-243.5 796,-224.5 752,-224.5"/>
<text text-anchor="middle" x="774" y="-231.5" font-family="Helvetica,sans-Serif" font-size="10.00">string</text>
</a>
</g>
</g>
<!-- Node19&#45;&gt;Node24 -->
<g id="edge33" class="edge">
<title>Node19&#45;&gt;Node24</title>
<path fill="none" stroke="midnightblue" d="M804.06,-280.08C799.02,-272.53 791.66,-261.49 785.49,-252.23"/>
<polygon fill="midnightblue" stroke="midnightblue" points="788.29,-250.13 779.83,-243.75 782.47,-254.01 788.29,-250.13"/>
</g>
<!-- Node19&#45;&gt;Node25 -->
<g id="edge34" class="edge">
<title>Node19&#45;&gt;Node25</title>
<path fill="none" stroke="midnightblue" d="M848.18,-280.49C886.22,-271.98 946.57,-258.41 1008.08,-244.2"/>
<polygon fill="midnightblue" stroke="midnightblue" points="1009.01,-247.57 1017.96,-241.91 1007.43,-240.75 1009.01,-247.57"/>
</g>
<!-- Node20&#45;&gt;Node3 -->
<g id="edge27" class="edge">
<title>Node20&#45;&gt;Node3</title>
<path fill="none" stroke="midnightblue" d="M634.64,-224.44C604.26,-215.28 555.89,-200.69 522.18,-190.52"/>
<polygon fill="midnightblue" stroke="midnightblue" points="522.82,-187.05 512.23,-187.52 520.79,-193.76 522.82,-187.05"/>
</g>
<!-- Node20&#45;&gt;Node6 -->
<g id="edge29" class="edge">
<title>Node20&#45;&gt;Node6</title>
<path fill="none" stroke="midnightblue" d="M672.25,-224.38C692.52,-204.4 737.51,-153.44 717,-112 710.4,-98.66 697.74,-88.19 685.83,-80.73"/>
<polygon fill="midnightblue" stroke="midnightblue" points="687.39,-77.59 676.98,-75.6 683.88,-83.64 687.39,-77.59"/>
</g>
<!-- Node20&#45;&gt;Node17 -->
<g id="edge28" class="edge">
<title>Node20&#45;&gt;Node17</title>
<path fill="none" stroke="midnightblue" d="M664.26,-224.37C666.84,-206.62 672.79,-165.67 676.29,-141.6"/>
<polygon fill="midnightblue" stroke="midnightblue" points="679.77,-141.99 677.75,-131.59 672.85,-140.98 679.77,-141.99"/>
</g>
</g>
</svg>
