<?xml version="1.0" encoding="UTF-8" standalone="no"?>
<!DOCTYPE svg PUBLIC "-//W3C//DTD SVG 1.1//EN"
 "http://www.w3.org/Graphics/SVG/1.1/DTD/svg11.dtd">
<!-- Generated by graphviz version 2.43.0 (0)
 -->
<!-- Title: itkSingleValuedNonLinearOptimizer.h Pages: 1 -->
<svg width="1817pt" height="744pt"
 viewBox="0.00 0.00 1816.50 744.00" xmlns="http://www.w3.org/2000/svg" xmlns:xlink="http://www.w3.org/1999/xlink">
<g id="graph0" class="graph" transform="scale(1 1) rotate(0) translate(4 740)">
<title>itkSingleValuedNonLinearOptimizer.h</title>
<polygon fill="white" stroke="transparent" points="-4,4 -4,-740 1812.5,-740 1812.5,4 -4,4"/>
<!-- Node1 -->
<g id="node1" class="node">
<title>Node1</title>
<g id="a_node1"><a xlink:title=" ">
<polygon fill="#bfbfbf" stroke="black" points="516,-705.5 516,-735.5 658,-735.5 658,-705.5 516,-705.5"/>
<text text-anchor="start" x="524" y="-723.5" font-family="Helvetica,sans-Serif" font-size="10.00">itkSingleValuedNonLinear</text>
<text text-anchor="middle" x="587" y="-712.5" font-family="Helvetica,sans-Serif" font-size="10.00">Optimizer.h</text>
</a>
</g>
</g>
<!-- Node2 -->
<g id="node2" class="node">
<title>Node2</title>
<g id="a_node2"><a xlink:href="itkNonLinearOptimizer_8h.html" target="_top" xlink:title=" ">
<polygon fill="white" stroke="black" points="519.5,-649.5 519.5,-668.5 654.5,-668.5 654.5,-649.5 519.5,-649.5"/>
<text text-anchor="middle" x="587" y="-656.5" font-family="Helvetica,sans-Serif" font-size="10.00">itkNonLinearOptimizer.h</text>
</a>
</g>
</g>
<!-- Node1&#45;&gt;Node2 -->
<g id="edge1" class="edge">
<title>Node1&#45;&gt;Node2</title>
<path fill="none" stroke="midnightblue" d="M587,-705.4C587,-697.47 587,-687.46 587,-678.86"/>
<polygon fill="midnightblue" stroke="midnightblue" points="590.5,-678.66 587,-668.66 583.5,-678.66 590.5,-678.66"/>
</g>
<!-- Node42 -->
<g id="node42" class="node">
<title>Node42</title>
<g id="a_node42"><a xlink:title=" ">
<polygon fill="white" stroke="#bfbfbf" points="400.5,-537.5 400.5,-556.5 525.5,-556.5 525.5,-537.5 400.5,-537.5"/>
<text text-anchor="middle" x="463" y="-544.5" font-family="Helvetica,sans-Serif" font-size="10.00">ITKOptimizersExport.h</text>
</a>
</g>
</g>
<!-- Node1&#45;&gt;Node42 -->
<g id="edge83" class="edge">
<title>Node1&#45;&gt;Node42</title>
<path fill="none" stroke="midnightblue" d="M556.64,-705.36C540.93,-696.74 522.47,-684.41 510,-669 484.92,-638.01 472.06,-592.07 466.5,-566.64"/>
<polygon fill="midnightblue" stroke="midnightblue" points="469.87,-565.63 464.45,-556.53 463.01,-567.02 469.87,-565.63"/>
</g>
<!-- Node43 -->
<g id="node43" class="node">
<title>Node43</title>
<g id="a_node43"><a xlink:href="itkSingleValuedCostFunction_8h.html" target="_top" xlink:title=" ">
<polygon fill="white" stroke="black" points="766,-649.5 766,-668.5 930,-668.5 930,-649.5 766,-649.5"/>
<text text-anchor="middle" x="848" y="-656.5" font-family="Helvetica,sans-Serif" font-size="10.00">itkSingleValuedCostFunction.h</text>
</a>
</g>
</g>
<!-- Node1&#45;&gt;Node43 -->
<g id="edge63" class="edge">
<title>Node1&#45;&gt;Node43</title>
<path fill="none" stroke="midnightblue" d="M648.52,-705.47C695.12,-694.85 758.19,-680.47 800.84,-670.75"/>
<polygon fill="midnightblue" stroke="midnightblue" points="801.71,-674.14 810.69,-668.51 800.16,-667.32 801.71,-674.14"/>
</g>
<!-- Node3 -->
<g id="node3" class="node">
<title>Node3</title>
<g id="a_node3"><a xlink:href="itkOptimizer_8h.html" target="_top" xlink:title=" ">
<polygon fill="white" stroke="black" points="589,-593.5 589,-612.5 675,-612.5 675,-593.5 589,-593.5"/>
<text text-anchor="middle" x="632" y="-600.5" font-family="Helvetica,sans-Serif" font-size="10.00">itkOptimizer.h</text>
</a>
</g>
</g>
<!-- Node2&#45;&gt;Node3 -->
<g id="edge2" class="edge">
<title>Node2&#45;&gt;Node3</title>
<path fill="none" stroke="midnightblue" d="M594.43,-649.08C600.85,-641.38 610.31,-630.03 618.12,-620.65"/>
<polygon fill="midnightblue" stroke="midnightblue" points="620.99,-622.67 624.71,-612.75 615.62,-618.19 620.99,-622.67"/>
</g>
<!-- Node2&#45;&gt;Node42 -->
<g id="edge62" class="edge">
<title>Node2&#45;&gt;Node42</title>
<path fill="none" stroke="midnightblue" d="M577.27,-649.37C556.35,-630.81 506.87,-586.91 480.4,-563.44"/>
<polygon fill="midnightblue" stroke="midnightblue" points="482.49,-560.61 472.68,-556.59 477.84,-565.85 482.49,-560.61"/>
</g>
<!-- Node4 -->
<g id="node4" class="node">
<title>Node4</title>
<g id="a_node4"><a xlink:href="itkObject_8h.html" target="_top" xlink:title=" ">
<polygon fill="white" stroke="black" points="765,-358.5 765,-377.5 835,-377.5 835,-358.5 765,-358.5"/>
<text text-anchor="middle" x="800" y="-365.5" font-family="Helvetica,sans-Serif" font-size="10.00">itkObject.h</text>
</a>
</g>
</g>
<!-- Node3&#45;&gt;Node4 -->
<g id="edge3" class="edge">
<title>Node3&#45;&gt;Node4</title>
<path fill="none" stroke="midnightblue" d="M661.12,-593.44C682.54,-586.15 711.54,-574.12 733,-557 757.32,-537.6 762.45,-529.47 775,-501 791.72,-463.08 797.28,-414.2 799.11,-387.85"/>
<polygon fill="midnightblue" stroke="midnightblue" points="802.61,-387.93 799.7,-377.74 795.62,-387.52 802.61,-387.93"/>
</g>
<!-- Node29 -->
<g id="node29" class="node">
<title>Node29</title>
<g id="a_node29"><a xlink:href="itkObjectFactory_8h.html" target="_top" xlink:title=" ">
<polygon fill="white" stroke="black" points="861,-537.5 861,-556.5 965,-556.5 965,-537.5 861,-537.5"/>
<text text-anchor="middle" x="913" y="-544.5" font-family="Helvetica,sans-Serif" font-size="10.00">itkObjectFactory.h</text>
</a>
</g>
</g>
<!-- Node3&#45;&gt;Node29 -->
<g id="edge39" class="edge">
<title>Node3&#45;&gt;Node29</title>
<path fill="none" stroke="midnightblue" d="M675.29,-593.68C724.61,-584.2 805.27,-568.7 858.75,-558.43"/>
<polygon fill="midnightblue" stroke="midnightblue" points="859.57,-561.83 868.73,-556.51 858.25,-554.96 859.57,-561.83"/>
</g>
<!-- Node35 -->
<g id="node35" class="node">
<title>Node35</title>
<g id="a_node35"><a xlink:href="itkArray_8h.html" target="_top" xlink:title=" ">
<polygon fill="white" stroke="black" points="493.5,-425.5 493.5,-444.5 556.5,-444.5 556.5,-425.5 493.5,-425.5"/>
<text text-anchor="middle" x="525" y="-432.5" font-family="Helvetica,sans-Serif" font-size="10.00">itkArray.h</text>
</a>
</g>
</g>
<!-- Node3&#45;&gt;Node35 -->
<g id="edge49" class="edge">
<title>Node3&#45;&gt;Node35</title>
<path fill="none" stroke="midnightblue" d="M616.55,-593.48C603.41,-585.54 584.83,-572.61 573,-557 548.97,-525.29 535.29,-479.97 529.09,-454.76"/>
<polygon fill="midnightblue" stroke="midnightblue" points="532.43,-453.66 526.76,-444.71 525.61,-455.24 532.43,-453.66"/>
</g>
<!-- Node40 -->
<g id="node40" class="node">
<title>Node40</title>
<g id="a_node40"><a xlink:href="itkOptimizerParameters_8h.html" target="_top" xlink:title=" ">
<polygon fill="white" stroke="black" points="582,-537.5 582,-556.5 724,-556.5 724,-537.5 582,-537.5"/>
<text text-anchor="middle" x="653" y="-544.5" font-family="Helvetica,sans-Serif" font-size="10.00">itkOptimizerParameters.h</text>
</a>
</g>
</g>
<!-- Node3&#45;&gt;Node40 -->
<g id="edge55" class="edge">
<title>Node3&#45;&gt;Node40</title>
<path fill="none" stroke="midnightblue" d="M635.47,-593.08C638.31,-585.77 642.43,-575.18 645.96,-566.1"/>
<polygon fill="midnightblue" stroke="midnightblue" points="649.23,-567.34 649.6,-556.75 642.71,-564.8 649.23,-567.34"/>
</g>
<!-- Node3&#45;&gt;Node42 -->
<g id="edge61" class="edge">
<title>Node3&#45;&gt;Node42</title>
<path fill="none" stroke="midnightblue" d="M605.22,-593.44C576.67,-584.32 531.27,-569.81 499.46,-559.65"/>
<polygon fill="midnightblue" stroke="midnightblue" points="500.24,-556.23 489.65,-556.52 498.11,-562.89 500.24,-556.23"/>
</g>
<!-- Node5 -->
<g id="node5" class="node">
<title>Node5</title>
<g id="a_node5"><a xlink:href="itkLightObject_8h.html" target="_top" xlink:title=" ">
<polygon fill="white" stroke="black" points="970,-168.5 970,-187.5 1064,-187.5 1064,-168.5 970,-168.5"/>
<text text-anchor="middle" x="1017" y="-175.5" font-family="Helvetica,sans-Serif" font-size="10.00">itkLightObject.h</text>
</a>
</g>
</g>
<!-- Node4&#45;&gt;Node5 -->
<g id="edge4" class="edge">
<title>Node4&#45;&gt;Node5</title>
<path fill="none" stroke="midnightblue" d="M798.12,-358.22C793.38,-333.51 783.72,-262.66 819,-224 837.71,-203.49 908.35,-191.19 959.93,-184.75"/>
<polygon fill="midnightblue" stroke="midnightblue" points="960.46,-188.21 969.97,-183.54 959.62,-181.26 960.46,-188.21"/>
</g>
<!-- Node17 -->
<g id="node17" class="node">
<title>Node17</title>
<g id="a_node17"><a xlink:href="itkSingletonMacro_8h.html" target="_top" xlink:title=" ">
<polygon fill="white" stroke="black" points="562,-56.5 562,-75.5 676,-75.5 676,-56.5 562,-56.5"/>
<text text-anchor="middle" x="619" y="-63.5" font-family="Helvetica,sans-Serif" font-size="10.00">itkSingletonMacro.h</text>
</a>
</g>
</g>
<!-- Node4&#45;&gt;Node17 -->
<g id="edge37" class="edge">
<title>Node4&#45;&gt;Node17</title>
<path fill="none" stroke="midnightblue" d="M794.78,-358.35C769.95,-317.2 663.66,-141.03 629.57,-84.52"/>
<polygon fill="midnightblue" stroke="midnightblue" points="632.41,-82.44 624.24,-75.69 626.41,-86.06 632.41,-82.44"/>
</g>
<!-- Node20 -->
<g id="node20" class="node">
<title>Node20</title>
<g id="a_node20"><a xlink:href="itkEventObject_8h.html" target="_top" xlink:title=" ">
<polygon fill="white" stroke="black" points="1206,-168.5 1206,-187.5 1304,-187.5 1304,-168.5 1206,-168.5"/>
<text text-anchor="middle" x="1255" y="-175.5" font-family="Helvetica,sans-Serif" font-size="10.00">itkEventObject.h</text>
</a>
</g>
</g>
<!-- Node4&#45;&gt;Node20 -->
<g id="edge25" class="edge">
<title>Node4&#45;&gt;Node20</title>
<path fill="none" stroke="midnightblue" d="M833.07,-358.48C869.95,-348.6 931.11,-331.08 982,-311 1034.88,-290.13 1048.91,-285.31 1097,-255 1115.73,-243.19 1116.75,-234.94 1136,-224 1160.87,-209.87 1191.03,-198.52 1214.76,-190.76"/>
<polygon fill="midnightblue" stroke="midnightblue" points="1216.04,-194.02 1224.51,-187.65 1213.92,-187.35 1216.04,-194.02"/>
</g>
<!-- Node21 -->
<g id="node21" class="node">
<title>Node21</title>
<g id="a_node21"><a xlink:href="itkMetaDataDictionary_8h.html" target="_top" xlink:title=" ">
<polygon fill="white" stroke="black" points="838.5,-291.5 838.5,-310.5 973.5,-310.5 973.5,-291.5 838.5,-291.5"/>
<text text-anchor="middle" x="906" y="-298.5" font-family="Helvetica,sans-Serif" font-size="10.00">itkMetaDataDictionary.h</text>
</a>
</g>
</g>
<!-- Node4&#45;&gt;Node21 -->
<g id="edge27" class="edge">
<title>Node4&#45;&gt;Node21</title>
<path fill="none" stroke="midnightblue" d="M814.3,-358.23C832.02,-347.37 862.43,-328.72 883.34,-315.89"/>
<polygon fill="midnightblue" stroke="midnightblue" points="885.24,-318.84 891.93,-310.63 881.58,-312.87 885.24,-318.84"/>
</g>
<!-- Node28 -->
<g id="node28" class="node">
<title>Node28</title>
<g id="a_node28"><a xlink:title=" ">
<polygon fill="white" stroke="#bfbfbf" points="668.5,-291.5 668.5,-310.5 733.5,-310.5 733.5,-291.5 668.5,-291.5"/>
<text text-anchor="middle" x="701" y="-298.5" font-family="Helvetica,sans-Serif" font-size="10.00">functional</text>
</a>
</g>
</g>
<!-- Node4&#45;&gt;Node28 -->
<g id="edge38" class="edge">
<title>Node4&#45;&gt;Node28</title>
<path fill="none" stroke="midnightblue" d="M786.65,-358.23C770.25,-347.46 742.2,-329.05 722.69,-316.24"/>
<polygon fill="midnightblue" stroke="midnightblue" points="724.42,-313.19 714.14,-310.63 720.58,-319.04 724.42,-313.19"/>
</g>
<!-- Node6 -->
<g id="node6" class="node">
<title>Node6</title>
<g id="a_node6"><a xlink:href="itkMacro_8h.html" target="_top" xlink:title=" ">
<polygon fill="white" stroke="black" points="1128,-0.5 1128,-19.5 1196,-19.5 1196,-0.5 1128,-0.5"/>
<text text-anchor="middle" x="1162" y="-7.5" font-family="Helvetica,sans-Serif" font-size="10.00">itkMacro.h</text>
</a>
</g>
</g>
<!-- Node5&#45;&gt;Node6 -->
<g id="edge5" class="edge">
<title>Node5&#45;&gt;Node6</title>
<path fill="none" stroke="midnightblue" d="M1023.31,-168.1C1033.16,-154.67 1053.33,-128.98 1075,-112 1101.92,-90.91 1121.39,-102.5 1143,-76 1153.79,-62.77 1158.45,-43.64 1160.47,-29.56"/>
<polygon fill="midnightblue" stroke="midnightblue" points="1163.95,-29.88 1161.58,-19.55 1156.99,-29.11 1163.95,-29.88"/>
</g>
<!-- Node7 -->
<g id="node7" class="node">
<title>Node7</title>
<g id="a_node7"><a xlink:href="itkSmartPointer_8h.html" target="_top" xlink:title=" ">
<polygon fill="white" stroke="black" points="924.5,-112.5 924.5,-131.5 1025.5,-131.5 1025.5,-112.5 924.5,-112.5"/>
<text text-anchor="middle" x="975" y="-119.5" font-family="Helvetica,sans-Serif" font-size="10.00">itkSmartPointer.h</text>
</a>
</g>
</g>
<!-- Node5&#45;&gt;Node7 -->
<g id="edge6" class="edge">
<title>Node5&#45;&gt;Node7</title>
<path fill="none" stroke="midnightblue" d="M1010.06,-168.08C1004.07,-160.38 995.25,-149.03 987.95,-139.65"/>
<polygon fill="midnightblue" stroke="midnightblue" points="990.71,-137.5 981.81,-131.75 985.18,-141.79 990.71,-137.5"/>
</g>
<!-- Node8 -->
<g id="node8" class="node">
<title>Node8</title>
<g id="a_node8"><a xlink:title=" ">
<polygon fill="white" stroke="#bfbfbf" points="1190,-56.5 1190,-75.5 1250,-75.5 1250,-56.5 1190,-56.5"/>
<text text-anchor="middle" x="1220" y="-63.5" font-family="Helvetica,sans-Serif" font-size="10.00">iostream</text>
</a>
</g>
</g>
<!-- Node5&#45;&gt;Node8 -->
<g id="edge23" class="edge">
<title>Node5&#45;&gt;Node8</title>
<path fill="none" stroke="midnightblue" d="M1027.93,-168.41C1045.13,-155.17 1079.86,-129.45 1112,-112 1135.84,-99.06 1164.2,-87.37 1185.87,-79.15"/>
<polygon fill="midnightblue" stroke="midnightblue" points="1187.17,-82.4 1195.32,-75.63 1184.73,-75.85 1187.17,-82.4"/>
</g>
<!-- Node12 -->
<g id="node12" class="node">
<title>Node12</title>
<g id="a_node12"><a xlink:href="itkTimeStamp_8h.html" target="_top" xlink:title=" ">
<polygon fill="white" stroke="black" points="772.5,-112.5 772.5,-131.5 867.5,-131.5 867.5,-112.5 772.5,-112.5"/>
<text text-anchor="middle" x="820" y="-119.5" font-family="Helvetica,sans-Serif" font-size="10.00">itkTimeStamp.h</text>
</a>
</g>
</g>
<!-- Node5&#45;&gt;Node12 -->
<g id="edge11" class="edge">
<title>Node5&#45;&gt;Node12</title>
<path fill="none" stroke="midnightblue" d="M985.78,-168.44C952.07,-159.2 898.2,-144.44 861.07,-134.26"/>
<polygon fill="midnightblue" stroke="midnightblue" points="861.64,-130.78 851.07,-131.52 859.79,-137.54 861.64,-130.78"/>
</g>
<!-- Node16 -->
<g id="node16" class="node">
<title>Node16</title>
<g id="a_node16"><a xlink:title=" ">
<polygon fill="white" stroke="#bfbfbf" points="830,-56.5 830,-75.5 880,-75.5 880,-56.5 830,-56.5"/>
<text text-anchor="middle" x="855" y="-63.5" font-family="Helvetica,sans-Serif" font-size="10.00">atomic</text>
</a>
</g>
</g>
<!-- Node5&#45;&gt;Node16 -->
<g id="edge22" class="edge">
<title>Node5&#45;&gt;Node16</title>
<path fill="none" stroke="midnightblue" d="M989.86,-168.47C968.35,-160.92 938.15,-148.54 915,-132 895.96,-118.39 878.33,-97.96 867.18,-83.64"/>
<polygon fill="midnightblue" stroke="midnightblue" points="869.94,-81.49 861.11,-75.63 864.36,-85.72 869.94,-81.49"/>
</g>
<!-- Node18 -->
<g id="node18" class="node">
<title>Node18</title>
<g id="a_node18"><a xlink:href="itkIndent_8h.html" target="_top" xlink:title=" ">
<polygon fill="white" stroke="black" points="1234.5,-112.5 1234.5,-131.5 1303.5,-131.5 1303.5,-112.5 1234.5,-112.5"/>
<text text-anchor="middle" x="1269" y="-119.5" font-family="Helvetica,sans-Serif" font-size="10.00">itkIndent.h</text>
</a>
</g>
</g>
<!-- Node5&#45;&gt;Node18 -->
<g id="edge19" class="edge">
<title>Node5&#45;&gt;Node18</title>
<path fill="none" stroke="midnightblue" d="M1056.93,-168.44C1102.44,-158.69 1176.65,-142.79 1224.13,-132.62"/>
<polygon fill="midnightblue" stroke="midnightblue" points="1225.08,-135.99 1234.13,-130.47 1223.61,-129.15 1225.08,-135.99"/>
</g>
<!-- Node19 -->
<g id="node19" class="node">
<title>Node19</title>
<g id="a_node19"><a xlink:title=" ">
<polygon fill="white" stroke="#bfbfbf" points="1120.5,-112.5 1120.5,-131.5 1177.5,-131.5 1177.5,-112.5 1120.5,-112.5"/>
<text text-anchor="middle" x="1149" y="-119.5" font-family="Helvetica,sans-Serif" font-size="10.00">typeinfo</text>
</a>
</g>
</g>
<!-- Node5&#45;&gt;Node19 -->
<g id="edge24" class="edge">
<title>Node5&#45;&gt;Node19</title>
<path fill="none" stroke="midnightblue" d="M1037.92,-168.44C1059.74,-159.52 1094.15,-145.44 1118.89,-135.32"/>
<polygon fill="midnightblue" stroke="midnightblue" points="1120.25,-138.54 1128.18,-131.52 1117.6,-132.06 1120.25,-138.54"/>
</g>
<!-- Node7&#45;&gt;Node8 -->
<g id="edge7" class="edge">
<title>Node7&#45;&gt;Node8</title>
<path fill="none" stroke="midnightblue" d="M1013.82,-112.44C1059.23,-102.43 1134.03,-85.95 1179.96,-75.83"/>
<polygon fill="midnightblue" stroke="midnightblue" points="1180.84,-79.21 1189.86,-73.64 1179.34,-72.38 1180.84,-79.21"/>
</g>
<!-- Node9 -->
<g id="node9" class="node">
<title>Node9</title>
<g id="a_node9"><a xlink:title=" ">
<polygon fill="white" stroke="#bfbfbf" points="898.5,-56.5 898.5,-75.5 943.5,-75.5 943.5,-56.5 898.5,-56.5"/>
<text text-anchor="middle" x="921" y="-63.5" font-family="Helvetica,sans-Serif" font-size="10.00">utility</text>
</a>
</g>
</g>
<!-- Node7&#45;&gt;Node9 -->
<g id="edge8" class="edge">
<title>Node7&#45;&gt;Node9</title>
<path fill="none" stroke="midnightblue" d="M966.08,-112.08C958.22,-104.22 946.57,-92.57 937.08,-83.08"/>
<polygon fill="midnightblue" stroke="midnightblue" points="939.3,-80.35 929.75,-75.75 934.35,-85.3 939.3,-80.35"/>
</g>
<!-- Node10 -->
<g id="node10" class="node">
<title>Node10</title>
<g id="a_node10"><a xlink:title=" ">
<polygon fill="white" stroke="#bfbfbf" points="961.5,-56.5 961.5,-75.5 1030.5,-75.5 1030.5,-56.5 961.5,-56.5"/>
<text text-anchor="middle" x="996" y="-63.5" font-family="Helvetica,sans-Serif" font-size="10.00">type_traits</text>
</a>
</g>
</g>
<!-- Node7&#45;&gt;Node10 -->
<g id="edge9" class="edge">
<title>Node7&#45;&gt;Node10</title>
<path fill="none" stroke="midnightblue" d="M978.47,-112.08C981.31,-104.77 985.43,-94.18 988.96,-85.1"/>
<polygon fill="midnightblue" stroke="midnightblue" points="992.23,-86.34 992.6,-75.75 985.71,-83.8 992.23,-86.34"/>
</g>
<!-- Node11 -->
<g id="node11" class="node">
<title>Node11</title>
<g id="a_node11"><a xlink:title=" ">
<polygon fill="white" stroke="#bfbfbf" points="1048.5,-56.5 1048.5,-75.5 1133.5,-75.5 1133.5,-56.5 1048.5,-56.5"/>
<text text-anchor="middle" x="1091" y="-63.5" font-family="Helvetica,sans-Serif" font-size="10.00">itkConfigure.h</text>
</a>
</g>
</g>
<!-- Node7&#45;&gt;Node11 -->
<g id="edge10" class="edge">
<title>Node7&#45;&gt;Node11</title>
<path fill="none" stroke="midnightblue" d="M993.38,-112.44C1012.22,-103.68 1041.73,-89.94 1063.38,-79.86"/>
<polygon fill="midnightblue" stroke="midnightblue" points="1065.12,-82.91 1072.71,-75.52 1062.16,-76.56 1065.12,-82.91"/>
</g>
<!-- Node12&#45;&gt;Node6 -->
<g id="edge12" class="edge">
<title>Node12&#45;&gt;Node6</title>
<path fill="none" stroke="midnightblue" d="M816.92,-112.15C812.72,-98.3 807.19,-71.51 821,-56 840.44,-34.17 1029.6,-19.41 1117.51,-13.67"/>
<polygon fill="midnightblue" stroke="midnightblue" points="1117.96,-17.15 1127.71,-13.02 1117.51,-10.17 1117.96,-17.15"/>
</g>
<!-- Node13 -->
<g id="node13" class="node">
<title>Node13</title>
<g id="a_node13"><a xlink:href="itkIntTypes_8h.html" target="_top" xlink:title=" ">
<polygon fill="white" stroke="black" points="694.5,-56.5 694.5,-75.5 773.5,-75.5 773.5,-56.5 694.5,-56.5"/>
<text text-anchor="middle" x="734" y="-63.5" font-family="Helvetica,sans-Serif" font-size="10.00">itkIntTypes.h</text>
</a>
</g>
</g>
<!-- Node12&#45;&gt;Node13 -->
<g id="edge13" class="edge">
<title>Node12&#45;&gt;Node13</title>
<path fill="none" stroke="midnightblue" d="M806.18,-112.32C792.77,-103.9 772.18,-90.97 756.41,-81.07"/>
<polygon fill="midnightblue" stroke="midnightblue" points="758.11,-78.01 747.78,-75.65 754.39,-83.94 758.11,-78.01"/>
</g>
<!-- Node12&#45;&gt;Node16 -->
<g id="edge17" class="edge">
<title>Node12&#45;&gt;Node16</title>
<path fill="none" stroke="midnightblue" d="M825.78,-112.08C830.67,-104.53 837.83,-93.49 843.83,-84.23"/>
<polygon fill="midnightblue" stroke="midnightblue" points="846.83,-86.05 849.33,-75.75 840.95,-82.24 846.83,-86.05"/>
</g>
<!-- Node12&#45;&gt;Node17 -->
<g id="edge18" class="edge">
<title>Node12&#45;&gt;Node17</title>
<path fill="none" stroke="midnightblue" d="M788.15,-112.44C753.6,-103.16 698.32,-88.31 660.42,-78.13"/>
<polygon fill="midnightblue" stroke="midnightblue" points="661.27,-74.73 650.7,-75.52 659.45,-81.49 661.27,-74.73"/>
</g>
<!-- Node13&#45;&gt;Node6 -->
<g id="edge14" class="edge">
<title>Node13&#45;&gt;Node6</title>
<path fill="none" stroke="midnightblue" d="M773.78,-58.16C778.57,-57.4 783.39,-56.66 788,-56 906.84,-38.96 1047.56,-23.22 1117.67,-15.67"/>
<polygon fill="midnightblue" stroke="midnightblue" points="1118.33,-19.12 1127.9,-14.58 1117.58,-12.16 1118.33,-19.12"/>
</g>
<!-- Node14 -->
<g id="node14" class="node">
<title>Node14</title>
<g id="a_node14"><a xlink:title=" ">
<polygon fill="white" stroke="#bfbfbf" points="675,-0.5 675,-19.5 725,-19.5 725,-0.5 675,-0.5"/>
<text text-anchor="middle" x="700" y="-7.5" font-family="Helvetica,sans-Serif" font-size="10.00">cstdint</text>
</a>
</g>
</g>
<!-- Node13&#45;&gt;Node14 -->
<g id="edge15" class="edge">
<title>Node13&#45;&gt;Node14</title>
<path fill="none" stroke="midnightblue" d="M728.39,-56.08C723.63,-48.53 716.68,-37.49 710.85,-28.23"/>
<polygon fill="midnightblue" stroke="midnightblue" points="713.8,-26.35 705.51,-19.75 707.88,-30.08 713.8,-26.35"/>
</g>
<!-- Node15 -->
<g id="node15" class="node">
<title>Node15</title>
<g id="a_node15"><a xlink:title=" ">
<polygon fill="white" stroke="#bfbfbf" points="743,-0.5 743,-19.5 793,-19.5 793,-0.5 743,-0.5"/>
<text text-anchor="middle" x="768" y="-7.5" font-family="Helvetica,sans-Serif" font-size="10.00">climits</text>
</a>
</g>
</g>
<!-- Node13&#45;&gt;Node15 -->
<g id="edge16" class="edge">
<title>Node13&#45;&gt;Node15</title>
<path fill="none" stroke="midnightblue" d="M739.61,-56.08C744.37,-48.53 751.32,-37.49 757.15,-28.23"/>
<polygon fill="midnightblue" stroke="midnightblue" points="760.12,-30.08 762.49,-19.75 754.2,-26.35 760.12,-30.08"/>
</g>
<!-- Node18&#45;&gt;Node6 -->
<g id="edge20" class="edge">
<title>Node18&#45;&gt;Node6</title>
<path fill="none" stroke="midnightblue" d="M1270.07,-112.45C1271.27,-99.03 1271.62,-72.79 1259,-56 1246.18,-38.94 1225.31,-28.13 1206.21,-21.39"/>
<polygon fill="midnightblue" stroke="midnightblue" points="1207.03,-17.98 1196.43,-18.23 1204.87,-24.64 1207.03,-17.98"/>
</g>
<!-- Node18&#45;&gt;Node8 -->
<g id="edge21" class="edge">
<title>Node18&#45;&gt;Node8</title>
<path fill="none" stroke="midnightblue" d="M1260.91,-112.08C1253.84,-104.3 1243.41,-92.8 1234.85,-83.37"/>
<polygon fill="midnightblue" stroke="midnightblue" points="1237.25,-80.8 1227.94,-75.75 1232.07,-85.51 1237.25,-80.8"/>
</g>
<!-- Node20&#45;&gt;Node18 -->
<g id="edge26" class="edge">
<title>Node20&#45;&gt;Node18</title>
<path fill="none" stroke="midnightblue" d="M1257.31,-168.08C1259.17,-160.93 1261.84,-150.64 1264.15,-141.69"/>
<polygon fill="midnightblue" stroke="midnightblue" points="1267.61,-142.31 1266.73,-131.75 1260.83,-140.55 1267.61,-142.31"/>
</g>
<!-- Node22 -->
<g id="node22" class="node">
<title>Node22</title>
<g id="a_node22"><a xlink:href="itkMetaDataObjectBase_8h.html" target="_top" xlink:title=" ">
<polygon fill="white" stroke="black" points="946,-230 946,-249 1088,-249 1088,-230 946,-230"/>
<text text-anchor="middle" x="1017" y="-237" font-family="Helvetica,sans-Serif" font-size="10.00">itkMetaDataObjectBase.h</text>
</a>
</g>
</g>
<!-- Node21&#45;&gt;Node22 -->
<g id="edge28" class="edge">
<title>Node21&#45;&gt;Node22</title>
<path fill="none" stroke="midnightblue" d="M921.9,-291.48C940.28,-281.62 970.76,-265.29 992.24,-253.77"/>
<polygon fill="midnightblue" stroke="midnightblue" points="993.97,-256.82 1001.13,-249.01 990.66,-250.65 993.97,-256.82"/>
</g>
<!-- Node23 -->
<g id="node23" class="node">
<title>Node23</title>
<g id="a_node23"><a xlink:title=" ">
<polygon fill="white" stroke="#bfbfbf" points="1360,-230 1360,-249 1424,-249 1424,-230 1360,-230"/>
<text text-anchor="middle" x="1392" y="-237" font-family="Helvetica,sans-Serif" font-size="10.00">algorithm</text>
</a>
</g>
</g>
<!-- Node21&#45;&gt;Node23 -->
<g id="edge32" class="edge">
<title>Node21&#45;&gt;Node23</title>
<path fill="none" stroke="midnightblue" d="M973.58,-291.73C1075.48,-279.25 1265.51,-255.99 1349.83,-245.66"/>
<polygon fill="midnightblue" stroke="midnightblue" points="1350.32,-249.13 1359.82,-244.44 1349.47,-242.18 1350.32,-249.13"/>
</g>
<!-- Node24 -->
<g id="node24" class="node">
<title>Node24</title>
<g id="a_node24"><a xlink:title=" ">
<polygon fill="white" stroke="#bfbfbf" points="1144.5,-230 1144.5,-249 1191.5,-249 1191.5,-230 1144.5,-230"/>
<text text-anchor="middle" x="1168" y="-237" font-family="Helvetica,sans-Serif" font-size="10.00">vector</text>
</a>
</g>
</g>
<!-- Node21&#45;&gt;Node24 -->
<g id="edge33" class="edge">
<title>Node21&#45;&gt;Node24</title>
<path fill="none" stroke="midnightblue" d="M943.54,-291.48C994.66,-279.87 1085.41,-259.26 1134.4,-248.13"/>
<polygon fill="midnightblue" stroke="midnightblue" points="1135.21,-251.54 1144.19,-245.91 1133.66,-244.71 1135.21,-251.54"/>
</g>
<!-- Node25 -->
<g id="node25" class="node">
<title>Node25</title>
<g id="a_node25"><a xlink:title=" ">
<polygon fill="white" stroke="#bfbfbf" points="828,-230 828,-249 866,-249 866,-230 828,-230"/>
<text text-anchor="middle" x="847" y="-237" font-family="Helvetica,sans-Serif" font-size="10.00">map</text>
</a>
</g>
</g>
<!-- Node21&#45;&gt;Node25 -->
<g id="edge34" class="edge">
<title>Node21&#45;&gt;Node25</title>
<path fill="none" stroke="midnightblue" d="M897.55,-291.48C888.43,-282.28 873.73,-267.46 862.52,-256.16"/>
<polygon fill="midnightblue" stroke="midnightblue" points="864.96,-253.65 855.44,-249.01 859.99,-258.57 864.96,-253.65"/>
</g>
<!-- Node26 -->
<g id="node26" class="node">
<title>Node26</title>
<g id="a_node26"><a xlink:title=" ">
<polygon fill="white" stroke="#bfbfbf" points="884,-230 884,-249 928,-249 928,-230 884,-230"/>
<text text-anchor="middle" x="906" y="-237" font-family="Helvetica,sans-Serif" font-size="10.00">string</text>
</a>
</g>
</g>
<!-- Node21&#45;&gt;Node26 -->
<g id="edge35" class="edge">
<title>Node21&#45;&gt;Node26</title>
<path fill="none" stroke="midnightblue" d="M906,-291.48C906,-283.08 906,-269.98 906,-259.16"/>
<polygon fill="midnightblue" stroke="midnightblue" points="909.5,-259.01 906,-249.01 902.5,-259.01 909.5,-259.01"/>
</g>
<!-- Node27 -->
<g id="node27" class="node">
<title>Node27</title>
<g id="a_node27"><a xlink:title=" ">
<polygon fill="white" stroke="#bfbfbf" points="613,-230 613,-249 671,-249 671,-230 613,-230"/>
<text text-anchor="middle" x="642" y="-237" font-family="Helvetica,sans-Serif" font-size="10.00">memory</text>
</a>
</g>
</g>
<!-- Node21&#45;&gt;Node27 -->
<g id="edge36" class="edge">
<title>Node21&#45;&gt;Node27</title>
<path fill="none" stroke="midnightblue" d="M868.18,-291.48C818.42,-280.26 731.42,-260.65 681.06,-249.3"/>
<polygon fill="midnightblue" stroke="midnightblue" points="681.72,-245.87 671.2,-247.08 680.19,-252.69 681.72,-245.87"/>
</g>
<!-- Node22&#45;&gt;Node5 -->
<g id="edge29" class="edge">
<title>Node22&#45;&gt;Node5</title>
<path fill="none" stroke="midnightblue" d="M1017,-229.98C1017,-221.58 1017,-208.48 1017,-197.66"/>
<polygon fill="midnightblue" stroke="midnightblue" points="1020.5,-197.51 1017,-187.51 1013.5,-197.51 1020.5,-197.51"/>
</g>
<!-- Node22&#45;&gt;Node8 -->
<g id="edge31" class="edge">
<title>Node22&#45;&gt;Node8</title>
<path fill="none" stroke="midnightblue" d="M1037.83,-229.95C1072.63,-214.76 1143.11,-180.12 1187,-132 1199.37,-118.44 1208.32,-99.38 1213.75,-85.41"/>
<polygon fill="midnightblue" stroke="midnightblue" points="1217.08,-86.48 1217.21,-75.89 1210.5,-84.09 1217.08,-86.48"/>
</g>
<!-- Node22&#45;&gt;Node19 -->
<g id="edge30" class="edge">
<title>Node22&#45;&gt;Node19</title>
<path fill="none" stroke="midnightblue" d="M1026.92,-229.82C1049.09,-210.42 1102.91,-163.33 1131.1,-138.66"/>
<polygon fill="midnightblue" stroke="midnightblue" points="1133.74,-141 1138.96,-131.78 1129.13,-135.73 1133.74,-141"/>
</g>
<!-- Node30 -->
<g id="node30" class="node">
<title>Node30</title>
<g id="a_node30"><a xlink:href="itkObjectFactoryBase_8h.html" target="_top" xlink:title=" ">
<polygon fill="white" stroke="black" points="861.5,-481.5 861.5,-500.5 990.5,-500.5 990.5,-481.5 861.5,-481.5"/>
<text text-anchor="middle" x="926" y="-488.5" font-family="Helvetica,sans-Serif" font-size="10.00">itkObjectFactoryBase.h</text>
</a>
</g>
</g>
<!-- Node29&#45;&gt;Node30 -->
<g id="edge40" class="edge">
<title>Node29&#45;&gt;Node30</title>
<path fill="none" stroke="midnightblue" d="M915.15,-537.08C916.87,-529.93 919.35,-519.64 921.5,-510.69"/>
<polygon fill="midnightblue" stroke="midnightblue" points="924.96,-511.29 923.89,-500.75 918.15,-509.65 924.96,-511.29"/>
</g>
<!-- Node30&#45;&gt;Node17 -->
<g id="edge43" class="edge">
<title>Node30&#45;&gt;Node17</title>
<path fill="none" stroke="midnightblue" d="M861.23,-484.82C772.73,-477.16 622.78,-461.89 604,-445 578.11,-421.72 585,-403.82 585,-369 585,-369 585,-369 585,-177 585,-143.16 599.87,-105.97 609.94,-84.66"/>
<polygon fill="midnightblue" stroke="midnightblue" points="613.14,-86.08 614.41,-75.56 606.86,-82.99 613.14,-86.08"/>
</g>
<!-- Node30&#45;&gt;Node24 -->
<g id="edge48" class="edge">
<title>Node30&#45;&gt;Node24</title>
<path fill="none" stroke="midnightblue" d="M955.15,-481.37C976.18,-474.11 1004.38,-462.14 1025,-445 1091.08,-390.06 1140.61,-297.49 1159.56,-258.58"/>
<polygon fill="midnightblue" stroke="midnightblue" points="1162.94,-259.64 1164.09,-249.11 1156.62,-256.62 1162.94,-259.64"/>
</g>
<!-- Node31 -->
<g id="node31" class="node">
<title>Node31</title>
<g id="a_node31"><a xlink:href="itkCreateObjectFunction_8h.html" target="_top" xlink:title=" ">
<polygon fill="white" stroke="black" points="873.5,-425.5 873.5,-444.5 1016.5,-444.5 1016.5,-425.5 873.5,-425.5"/>
<text text-anchor="middle" x="945" y="-432.5" font-family="Helvetica,sans-Serif" font-size="10.00">itkCreateObjectFunction.h</text>
</a>
</g>
</g>
<!-- Node30&#45;&gt;Node31 -->
<g id="edge41" class="edge">
<title>Node30&#45;&gt;Node31</title>
<path fill="none" stroke="midnightblue" d="M929.14,-481.08C931.68,-473.85 935.36,-463.41 938.53,-454.4"/>
<polygon fill="midnightblue" stroke="midnightblue" points="941.9,-455.35 941.92,-444.75 935.3,-453.02 941.9,-455.35"/>
</g>
<!-- Node32 -->
<g id="node32" class="node">
<title>Node32</title>
<g id="a_node32"><a xlink:href="itkCommonEnums_8h.html" target="_top" xlink:title=" ">
<polygon fill="white" stroke="black" points="613,-425.5 613,-444.5 729,-444.5 729,-425.5 613,-425.5"/>
<text text-anchor="middle" x="671" y="-432.5" font-family="Helvetica,sans-Serif" font-size="10.00">itkCommonEnums.h</text>
</a>
</g>
</g>
<!-- Node30&#45;&gt;Node32 -->
<g id="edge44" class="edge">
<title>Node30&#45;&gt;Node32</title>
<path fill="none" stroke="midnightblue" d="M885.59,-481.44C841.02,-472 769.23,-456.8 721.11,-446.61"/>
<polygon fill="midnightblue" stroke="midnightblue" points="721.72,-443.16 711.22,-444.52 720.27,-450.01 721.72,-443.16"/>
</g>
<!-- Node34 -->
<g id="node34" class="node">
<title>Node34</title>
<g id="a_node34"><a xlink:title=" ">
<polygon fill="white" stroke="#bfbfbf" points="823,-425.5 823,-444.5 855,-444.5 855,-425.5 823,-425.5"/>
<text text-anchor="middle" x="839" y="-432.5" font-family="Helvetica,sans-Serif" font-size="10.00">list</text>
</a>
</g>
</g>
<!-- Node30&#45;&gt;Node34 -->
<g id="edge47" class="edge">
<title>Node30&#45;&gt;Node34</title>
<path fill="none" stroke="midnightblue" d="M912.02,-481.32C898.45,-472.9 877.62,-459.97 861.68,-450.07"/>
<polygon fill="midnightblue" stroke="midnightblue" points="863.29,-446.95 852.94,-444.65 859.59,-452.9 863.29,-446.95"/>
</g>
<!-- Node31&#45;&gt;Node4 -->
<g id="edge42" class="edge">
<title>Node31&#45;&gt;Node4</title>
<path fill="none" stroke="midnightblue" d="M925.75,-425.37C900.83,-414.2 857.21,-394.65 828.47,-381.76"/>
<polygon fill="midnightblue" stroke="midnightblue" points="829.89,-378.56 819.33,-377.67 827.03,-384.95 829.89,-378.56"/>
</g>
<!-- Node32&#45;&gt;Node13 -->
<g id="edge45" class="edge">
<title>Node32&#45;&gt;Node13</title>
<path fill="none" stroke="midnightblue" d="M667.91,-425.17C664.95,-416.2 660.68,-401.83 659,-389 653.34,-345.81 647.63,-333.05 659,-291 663.83,-273.12 672.72,-272.03 680,-255 705.54,-195.24 723.07,-119.77 730.3,-85.47"/>
<polygon fill="midnightblue" stroke="midnightblue" points="733.76,-86 732.35,-75.5 726.9,-84.59 733.76,-86"/>
</g>
<!-- Node33 -->
<g id="node33" class="node">
<title>Node33</title>
<g id="a_node33"><a xlink:title=" ">
<polygon fill="white" stroke="#bfbfbf" points="668.5,-358.5 668.5,-377.5 725.5,-377.5 725.5,-358.5 668.5,-358.5"/>
<text text-anchor="middle" x="697" y="-365.5" font-family="Helvetica,sans-Serif" font-size="10.00">ostream</text>
</a>
</g>
</g>
<!-- Node32&#45;&gt;Node33 -->
<g id="edge46" class="edge">
<title>Node32&#45;&gt;Node33</title>
<path fill="none" stroke="midnightblue" d="M674.51,-425.23C678.4,-415.49 684.81,-399.48 689.79,-387.03"/>
<polygon fill="midnightblue" stroke="midnightblue" points="693.08,-388.21 693.55,-377.63 686.59,-385.61 693.08,-388.21"/>
</g>
<!-- Node35&#45;&gt;Node6 -->
<g id="edge50" class="edge">
<title>Node35&#45;&gt;Node6</title>
<path fill="none" stroke="midnightblue" d="M527.44,-425.43C533.17,-404.53 547,-349.16 547,-302 547,-302 547,-302 547,-238.5 547,-157.35 496.8,-114.55 553,-56 572.54,-35.64 980.98,-18.01 1117.79,-12.66"/>
<polygon fill="midnightblue" stroke="midnightblue" points="1118.06,-16.15 1127.92,-12.27 1117.79,-9.16 1118.06,-16.15"/>
</g>
<!-- Node36 -->
<g id="node36" class="node">
<title>Node36</title>
<g id="a_node36"><a xlink:title=" ">
<polygon fill="white" stroke="#bfbfbf" points="325,-358.5 325,-377.5 407,-377.5 407,-358.5 325,-358.5"/>
<text text-anchor="middle" x="366" y="-365.5" font-family="Helvetica,sans-Serif" font-size="10.00">vxl_version.h</text>
</a>
</g>
</g>
<!-- Node35&#45;&gt;Node36 -->
<g id="edge51" class="edge">
<title>Node35&#45;&gt;Node36</title>
<path fill="none" stroke="midnightblue" d="M503.89,-425.37C476.37,-414.12 428.05,-394.37 396.54,-381.49"/>
<polygon fill="midnightblue" stroke="midnightblue" points="397.53,-378.11 386.95,-377.56 394.88,-384.59 397.53,-378.11"/>
</g>
<!-- Node37 -->
<g id="node37" class="node">
<title>Node37</title>
<g id="a_node37"><a xlink:title=" ">
<polygon fill="white" stroke="#bfbfbf" points="425,-358.5 425,-377.5 519,-377.5 519,-358.5 425,-358.5"/>
<text text-anchor="middle" x="472" y="-365.5" font-family="Helvetica,sans-Serif" font-size="10.00">vnl/vnl_vector.h</text>
</a>
</g>
</g>
<!-- Node35&#45;&gt;Node37 -->
<g id="edge52" class="edge">
<title>Node35&#45;&gt;Node37</title>
<path fill="none" stroke="midnightblue" d="M517.85,-425.23C509.59,-415.1 495.8,-398.19 485.5,-385.56"/>
<polygon fill="midnightblue" stroke="midnightblue" points="488.07,-383.17 479.03,-377.63 482.64,-387.59 488.07,-383.17"/>
</g>
<!-- Node38 -->
<g id="node38" class="node">
<title>Node38</title>
<g id="a_node38"><a xlink:title=" ">
<polygon fill="white" stroke="#bfbfbf" points="28.5,-358.5 28.5,-377.5 103.5,-377.5 103.5,-358.5 28.5,-358.5"/>
<text text-anchor="middle" x="66" y="-365.5" font-family="Helvetica,sans-Serif" font-size="10.00">itkArray.hxx</text>
</a>
</g>
</g>
<!-- Node35&#45;&gt;Node38 -->
<g id="edge53" class="edge">
<title>Node35&#45;&gt;Node38</title>
<path fill="none" stroke="midnightblue" d="M493.33,-433.77C423.34,-432.58 250.73,-425.81 112,-389 105.37,-387.24 98.47,-384.67 92.09,-381.96"/>
<polygon fill="midnightblue" stroke="midnightblue" points="93.16,-378.6 82.6,-377.67 90.27,-384.98 93.16,-378.6"/>
</g>
<!-- Node39 -->
<g id="node39" class="node">
<title>Node39</title>
<g id="a_node39"><a xlink:title=" ">
<polygon fill="white" stroke="#bfbfbf" points="121.5,-347.5 121.5,-388.5 306.5,-388.5 306.5,-347.5 121.5,-347.5"/>
<text text-anchor="start" x="129.5" y="-376.5" font-family="Helvetica,sans-Serif" font-size="10.00">/work/ITK/Modules/Core</text>
<text text-anchor="start" x="129.5" y="-365.5" font-family="Helvetica,sans-Serif" font-size="10.00">/Common/include/itkNumericTraits</text>
<text text-anchor="middle" x="214" y="-354.5" font-family="Helvetica,sans-Serif" font-size="10.00">ArrayPixel.h</text>
</a>
</g>
</g>
<!-- Node35&#45;&gt;Node39 -->
<g id="edge54" class="edge">
<title>Node35&#45;&gt;Node39</title>
<path fill="none" stroke="midnightblue" d="M493.47,-427.41C452.36,-418.82 378.46,-403.37 316.98,-390.52"/>
<polygon fill="midnightblue" stroke="midnightblue" points="317.34,-387.02 306.83,-388.4 315.9,-393.87 317.34,-387.02"/>
</g>
<!-- Node40&#45;&gt;Node27 -->
<g id="edge60" class="edge">
<title>Node40&#45;&gt;Node27</title>
<path fill="none" stroke="midnightblue" d="M581.87,-537.71C412.63,-517.5 0,-465.24 0,-436 0,-436 0,-436 0,-367 0,-243.55 462.73,-238.54 602.49,-239.84"/>
<polygon fill="midnightblue" stroke="midnightblue" points="602.71,-243.34 612.75,-239.95 602.79,-236.34 602.71,-243.34"/>
</g>
<!-- Node40&#45;&gt;Node35 -->
<g id="edge56" class="edge">
<title>Node40&#45;&gt;Node35</title>
<path fill="none" stroke="midnightblue" d="M637.41,-537.39C622.89,-529.02 600.98,-515.47 584,-501 566.68,-486.24 549.5,-466.59 538.18,-452.77"/>
<polygon fill="midnightblue" stroke="midnightblue" points="540.64,-450.25 531.65,-444.64 535.18,-454.63 540.64,-450.25"/>
</g>
<!-- Node41 -->
<g id="node41" class="node">
<title>Node41</title>
<g id="a_node41"><a xlink:href="itkOptimizerParametersHelper_8h.html" target="_top" xlink:title=" ">
<polygon fill="white" stroke="black" points="593.5,-481.5 593.5,-500.5 766.5,-500.5 766.5,-481.5 593.5,-481.5"/>
<text text-anchor="middle" x="680" y="-488.5" font-family="Helvetica,sans-Serif" font-size="10.00">itkOptimizerParametersHelper.h</text>
</a>
</g>
</g>
<!-- Node40&#45;&gt;Node41 -->
<g id="edge57" class="edge">
<title>Node40&#45;&gt;Node41</title>
<path fill="none" stroke="midnightblue" d="M657.46,-537.08C661.15,-529.69 666.52,-518.95 671.09,-509.81"/>
<polygon fill="midnightblue" stroke="midnightblue" points="674.28,-511.26 675.62,-500.75 668.02,-508.13 674.28,-511.26"/>
</g>
<!-- Node41&#45;&gt;Node4 -->
<g id="edge58" class="edge">
<title>Node41&#45;&gt;Node4</title>
<path fill="none" stroke="midnightblue" d="M692.66,-481.45C704.87,-472.91 723.59,-459.06 738,-445 757.15,-426.31 776.16,-401.93 787.97,-385.88"/>
<polygon fill="midnightblue" stroke="midnightblue" points="791.01,-387.66 794.05,-377.51 785.35,-383.55 791.01,-387.66"/>
</g>
<!-- Node41&#45;&gt;Node35 -->
<g id="edge59" class="edge">
<title>Node41&#45;&gt;Node35</title>
<path fill="none" stroke="midnightblue" d="M655.44,-481.44C629.48,-472.4 588.33,-458.06 559.2,-447.92"/>
<polygon fill="midnightblue" stroke="midnightblue" points="560.04,-444.5 549.45,-444.52 557.74,-451.11 560.04,-444.5"/>
</g>
<!-- Node43&#45;&gt;Node42 -->
<g id="edge82" class="edge">
<title>Node43&#45;&gt;Node42</title>
<path fill="none" stroke="midnightblue" d="M765.87,-651.51C711.88,-645.49 640.34,-634.12 580,-613 560.99,-606.34 514.05,-578.88 485.74,-561.86"/>
<polygon fill="midnightblue" stroke="midnightblue" points="487.29,-558.7 476.92,-556.53 483.67,-564.69 487.29,-558.7"/>
</g>
<!-- Node44 -->
<g id="node44" class="node">
<title>Node44</title>
<g id="a_node44"><a xlink:href="itkCostFunction_8h.html" target="_top" xlink:title=" ">
<polygon fill="white" stroke="black" points="822.5,-593.5 822.5,-612.5 923.5,-612.5 923.5,-593.5 822.5,-593.5"/>
<text text-anchor="middle" x="873" y="-600.5" font-family="Helvetica,sans-Serif" font-size="10.00">itkCostFunction.h</text>
</a>
</g>
</g>
<!-- Node43&#45;&gt;Node44 -->
<g id="edge64" class="edge">
<title>Node43&#45;&gt;Node44</title>
<path fill="none" stroke="midnightblue" d="M852.13,-649.08C855.51,-641.77 860.42,-631.18 864.62,-622.1"/>
<polygon fill="midnightblue" stroke="midnightblue" points="867.92,-623.3 868.95,-612.75 861.57,-620.36 867.92,-623.3"/>
</g>
<!-- Node46 -->
<g id="node46" class="node">
<title>Node46</title>
<g id="a_node46"><a xlink:href="itkNumericTraits_8h.html" target="_top" xlink:title=" ">
<polygon fill="white" stroke="black" points="1537,-358.5 1537,-377.5 1643,-377.5 1643,-358.5 1537,-358.5"/>
<text text-anchor="middle" x="1590" y="-365.5" font-family="Helvetica,sans-Serif" font-size="10.00">itkNumericTraits.h</text>
</a>
</g>
</g>
<!-- Node43&#45;&gt;Node46 -->
<g id="edge70" class="edge">
<title>Node43&#45;&gt;Node46</title>
<path fill="none" stroke="midnightblue" d="M930.07,-651.82C1098.17,-638.06 1466,-601.81 1466,-548 1466,-548 1466,-548 1466,-490 1466,-437.54 1523.56,-400.4 1560.24,-382.05"/>
<polygon fill="midnightblue" stroke="midnightblue" points="1562.03,-385.08 1569.52,-377.58 1559,-378.77 1562.03,-385.08"/>
</g>
<!-- Node44&#45;&gt;Node4 -->
<g id="edge65" class="edge">
<title>Node44&#45;&gt;Node4</title>
<path fill="none" stroke="midnightblue" d="M907.51,-593.42C928.92,-586.59 955.74,-575.11 974,-557 1018.65,-512.71 1063.73,-474.55 1025,-425 1003.13,-397.03 904.56,-381.01 845.38,-373.76"/>
<polygon fill="midnightblue" stroke="midnightblue" points="845.52,-370.25 835.17,-372.55 844.69,-377.2 845.52,-370.25"/>
</g>
<!-- Node44&#45;&gt;Node29 -->
<g id="edge66" class="edge">
<title>Node44&#45;&gt;Node29</title>
<path fill="none" stroke="midnightblue" d="M879.61,-593.08C885.26,-585.46 893.54,-574.26 900.45,-564.94"/>
<polygon fill="midnightblue" stroke="midnightblue" points="903.38,-566.87 906.52,-556.75 897.75,-562.7 903.38,-566.87"/>
</g>
<!-- Node44&#45;&gt;Node35 -->
<g id="edge67" class="edge">
<title>Node44&#45;&gt;Node35</title>
<path fill="none" stroke="midnightblue" d="M868.74,-593.19C857.2,-570.39 822.98,-509.26 775,-481 695.67,-434.27 661.51,-461.84 571,-445 569.55,-444.73 568.07,-444.45 566.58,-444.17"/>
<polygon fill="midnightblue" stroke="midnightblue" points="567.14,-440.71 556.66,-442.27 565.82,-447.59 567.14,-440.71"/>
</g>
<!-- Node44&#45;&gt;Node40 -->
<g id="edge68" class="edge">
<title>Node44&#45;&gt;Node40</title>
<path fill="none" stroke="midnightblue" d="M838.14,-593.44C800.08,-584.1 739.04,-569.12 697.54,-558.93"/>
<polygon fill="midnightblue" stroke="midnightblue" points="698.24,-555.5 687.7,-556.52 696.57,-562.3 698.24,-555.5"/>
</g>
<!-- Node45 -->
<g id="node45" class="node">
<title>Node45</title>
<g id="a_node45"><a xlink:title=" ">
<polygon fill="white" stroke="#bfbfbf" points="1163.5,-537.5 1163.5,-556.5 1276.5,-556.5 1276.5,-537.5 1163.5,-537.5"/>
<text text-anchor="middle" x="1220" y="-544.5" font-family="Helvetica,sans-Serif" font-size="10.00">itkCostFunction.hxx</text>
</a>
</g>
</g>
<!-- Node44&#45;&gt;Node45 -->
<g id="edge69" class="edge">
<title>Node44&#45;&gt;Node45</title>
<path fill="none" stroke="midnightblue" d="M923.83,-594.09C985.15,-584.55 1088.35,-568.49 1155.3,-558.07"/>
<polygon fill="midnightblue" stroke="midnightblue" points="1155.97,-561.51 1165.31,-556.51 1154.89,-554.59 1155.97,-561.51"/>
</g>
<!-- Node46&#45;&gt;Node6 -->
<g id="edge71" class="edge">
<title>Node46&#45;&gt;Node6</title>
<path fill="none" stroke="midnightblue" d="M1536.86,-364.07C1461.33,-356.71 1332,-330.92 1332,-240.5 1332,-240.5 1332,-240.5 1332,-121 1332,-61.14 1256.8,-32.25 1206.43,-19.61"/>
<polygon fill="midnightblue" stroke="midnightblue" points="1206.94,-16.13 1196.4,-17.22 1205.32,-22.94 1206.94,-16.13"/>
</g>
<!-- Node47 -->
<g id="node47" class="node">
<title>Node47</title>
<g id="a_node47"><a xlink:title=" ">
<polygon fill="white" stroke="#bfbfbf" points="1654,-291.5 1654,-310.5 1698,-310.5 1698,-291.5 1654,-291.5"/>
<text text-anchor="middle" x="1676" y="-298.5" font-family="Helvetica,sans-Serif" font-size="10.00">limits</text>
</a>
</g>
</g>
<!-- Node46&#45;&gt;Node47 -->
<g id="edge72" class="edge">
<title>Node46&#45;&gt;Node47</title>
<path fill="none" stroke="midnightblue" d="M1601.6,-358.23C1615.65,-347.61 1639.55,-329.55 1656.47,-316.76"/>
<polygon fill="midnightblue" stroke="midnightblue" points="1658.72,-319.45 1664.59,-310.63 1654.5,-313.86 1658.72,-319.45"/>
</g>
<!-- Node48 -->
<g id="node48" class="node">
<title>Node48</title>
<g id="a_node48"><a xlink:title=" ">
<polygon fill="white" stroke="#bfbfbf" points="1716.5,-291.5 1716.5,-310.5 1775.5,-310.5 1775.5,-291.5 1716.5,-291.5"/>
<text text-anchor="middle" x="1746" y="-298.5" font-family="Helvetica,sans-Serif" font-size="10.00">complex</text>
</a>
</g>
</g>
<!-- Node46&#45;&gt;Node48 -->
<g id="edge73" class="edge">
<title>Node46&#45;&gt;Node48</title>
<path fill="none" stroke="midnightblue" d="M1610.72,-358.37C1637.64,-347.15 1684.86,-327.48 1715.78,-314.59"/>
<polygon fill="midnightblue" stroke="midnightblue" points="1717.31,-317.74 1725.2,-310.67 1714.62,-311.28 1717.31,-317.74"/>
</g>
<!-- Node49 -->
<g id="node49" class="node">
<title>Node49</title>
<g id="a_node49"><a xlink:href="itkFixedArray_8h.html" target="_top" xlink:title=" ">
<polygon fill="white" stroke="black" points="1508.5,-291.5 1508.5,-310.5 1597.5,-310.5 1597.5,-291.5 1508.5,-291.5"/>
<text text-anchor="middle" x="1553" y="-298.5" font-family="Helvetica,sans-Serif" font-size="10.00">itkFixedArray.h</text>
</a>
</g>
</g>
<!-- Node46&#45;&gt;Node49 -->
<g id="edge74" class="edge">
<title>Node46&#45;&gt;Node49</title>
<path fill="none" stroke="midnightblue" d="M1585.01,-358.23C1579.41,-348.39 1570.17,-332.16 1563.05,-319.66"/>
<polygon fill="midnightblue" stroke="midnightblue" points="1565.9,-317.59 1557.91,-310.63 1559.82,-321.05 1565.9,-317.59"/>
</g>
<!-- Node49&#45;&gt;Node6 -->
<g id="edge75" class="edge">
<title>Node49&#45;&gt;Node6</title>
<path fill="none" stroke="midnightblue" d="M1570.06,-291.46C1583.7,-283.76 1602.27,-271.16 1613,-255 1632.26,-225.99 1632,-213.82 1632,-179 1632,-179 1632,-179 1632,-121 1632,-34.06 1323.25,-15.79 1206.24,-11.99"/>
<polygon fill="midnightblue" stroke="midnightblue" points="1206.28,-8.49 1196.18,-11.68 1206.07,-15.48 1206.28,-8.49"/>
</g>
<!-- Node49&#45;&gt;Node23 -->
<g id="edge76" class="edge">
<title>Node49&#45;&gt;Node23</title>
<path fill="none" stroke="midnightblue" d="M1529.93,-291.48C1502.32,-281.27 1455.88,-264.11 1424.6,-252.55"/>
<polygon fill="midnightblue" stroke="midnightblue" points="1425.62,-249.19 1415.02,-249.01 1423.19,-255.76 1425.62,-249.19"/>
</g>
<!-- Node50 -->
<g id="node50" class="node">
<title>Node50</title>
<g id="a_node50"><a xlink:title=" ">
<polygon fill="white" stroke="#bfbfbf" points="1442,-230 1442,-249 1484,-249 1484,-230 1442,-230"/>
<text text-anchor="middle" x="1463" y="-237" font-family="Helvetica,sans-Serif" font-size="10.00">array</text>
</a>
</g>
</g>
<!-- Node49&#45;&gt;Node50 -->
<g id="edge77" class="edge">
<title>Node49&#45;&gt;Node50</title>
<path fill="none" stroke="midnightblue" d="M1540.11,-291.48C1525.54,-281.84 1501.6,-266.02 1484.25,-254.55"/>
<polygon fill="midnightblue" stroke="midnightblue" points="1486.14,-251.6 1475.87,-249.01 1482.28,-257.44 1486.14,-251.6"/>
</g>
<!-- Node51 -->
<g id="node51" class="node">
<title>Node51</title>
<g id="a_node51"><a xlink:title=" ">
<polygon fill="white" stroke="#bfbfbf" points="1502.5,-230 1502.5,-249 1603.5,-249 1603.5,-230 1502.5,-230"/>
<text text-anchor="middle" x="1553" y="-237" font-family="Helvetica,sans-Serif" font-size="10.00">itkFixedArray.hxx</text>
</a>
</g>
</g>
<!-- Node49&#45;&gt;Node51 -->
<g id="edge78" class="edge">
<title>Node49&#45;&gt;Node51</title>
<path fill="none" stroke="midnightblue" d="M1553,-291.48C1553,-283.08 1553,-269.98 1553,-259.16"/>
<polygon fill="midnightblue" stroke="midnightblue" points="1556.5,-259.01 1553,-249.01 1549.5,-259.01 1556.5,-259.01"/>
</g>
<!-- Node52 -->
<g id="node52" class="node">
<title>Node52</title>
<g id="a_node52"><a xlink:href="itkNumericTraitsFixedArrayPixel_8h.html" target="_top" xlink:title=" ">
<polygon fill="white" stroke="black" points="1659.5,-224.5 1659.5,-254.5 1808.5,-254.5 1808.5,-224.5 1659.5,-224.5"/>
<text text-anchor="start" x="1667.5" y="-242.5" font-family="Helvetica,sans-Serif" font-size="10.00">itkNumericTraitsFixedArray</text>
<text text-anchor="middle" x="1734" y="-231.5" font-family="Helvetica,sans-Serif" font-size="10.00">Pixel.h</text>
</a>
</g>
</g>
<!-- Node49&#45;&gt;Node52 -->
<g id="edge79" class="edge">
<title>Node49&#45;&gt;Node52</title>
<path fill="none" stroke="midnightblue" d="M1574.03,-291.48C1598.92,-282.66 1641.06,-268.67 1675.9,-257.57"/>
<polygon fill="midnightblue" stroke="midnightblue" points="1677.04,-260.88 1685.51,-254.52 1674.92,-254.21 1677.04,-260.88"/>
</g>
<!-- Node52&#45;&gt;Node46 -->
<g id="edge80" class="edge">
<title>Node52&#45;&gt;Node46</title>
<path fill="none" stroke="midnightblue" d="M1701.78,-254.58C1683.84,-263.4 1661.81,-275.95 1645,-291 1625.93,-308.07 1609.55,-332.83 1599.74,-349.4"/>
<polygon fill="midnightblue" stroke="midnightblue" points="1596.69,-347.67 1594.75,-358.09 1602.76,-351.15 1596.69,-347.67"/>
</g>
<!-- Node52&#45;&gt;Node49 -->
<g id="edge81" class="edge">
<title>Node52&#45;&gt;Node49</title>
<path fill="none" stroke="midnightblue" d="M1697.17,-254.52C1667.03,-264.87 1624.59,-278.78 1593.5,-288.48"/>
<polygon fill="midnightblue" stroke="midnightblue" points="1592.35,-285.17 1583.83,-291.48 1594.42,-291.86 1592.35,-285.17"/>
</g>
</g>
</svg>
