<?xml version="1.0" encoding="UTF-8" standalone="no"?>
<!DOCTYPE svg PUBLIC "-//W3C//DTD SVG 1.1//EN"
 "http://www.w3.org/Graphics/SVG/1.1/DTD/svg11.dtd">
<!-- Generated by graphviz version 2.43.0 (0)
 -->
<!-- Title: itkSingleValuedCostFunction.h Pages: 1 -->
<svg width="1655pt" height="655pt"
 viewBox="0.00 0.00 1654.50 655.00" xmlns="http://www.w3.org/2000/svg" xmlns:xlink="http://www.w3.org/1999/xlink">
<g id="graph0" class="graph" transform="scale(1 1) rotate(0) translate(4 651)">
<title>itkSingleValuedCostFunction.h</title>
<polygon fill="white" stroke="transparent" points="-4,4 -4,-651 1650.5,-651 1650.5,4 -4,4"/>
<!-- Node1 -->
<g id="node1" class="node">
<title>Node1</title>
<g id="a_node1"><a xlink:title=" ">
<polygon fill="#bfbfbf" stroke="black" points="1261,-627.5 1261,-646.5 1425,-646.5 1425,-627.5 1261,-627.5"/>
<text text-anchor="middle" x="1343" y="-634.5" font-family="Helvetica,sans-Serif" font-size="10.00">itkSingleValuedCostFunction.h</text>
</a>
</g>
</g>
<!-- Node2 -->
<g id="node2" class="node">
<title>Node2</title>
<g id="a_node2"><a xlink:href="itkCostFunction_8h.html" target="_top" xlink:title=" ">
<polygon fill="white" stroke="black" points="509.5,-571.5 509.5,-590.5 610.5,-590.5 610.5,-571.5 509.5,-571.5"/>
<text text-anchor="middle" x="560" y="-578.5" font-family="Helvetica,sans-Serif" font-size="10.00">itkCostFunction.h</text>
</a>
</g>
</g>
<!-- Node1&#45;&gt;Node2 -->
<g id="edge1" class="edge">
<title>Node1&#45;&gt;Node2</title>
<path fill="none" stroke="midnightblue" d="M1260.69,-630.32C1102.67,-619.43 760.18,-595.81 620.83,-586.19"/>
<polygon fill="midnightblue" stroke="midnightblue" points="620.97,-582.7 610.75,-585.5 620.49,-589.68 620.97,-582.7"/>
</g>
<!-- Node41 -->
<g id="node41" class="node">
<title>Node41</title>
<g id="a_node41"><a xlink:href="itkNumericTraits_8h.html" target="_top" xlink:title=" ">
<polygon fill="white" stroke="black" points="1364,-123.5 1364,-142.5 1470,-142.5 1470,-123.5 1364,-123.5"/>
<text text-anchor="middle" x="1417" y="-130.5" font-family="Helvetica,sans-Serif" font-size="10.00">itkNumericTraits.h</text>
</a>
</g>
</g>
<!-- Node1&#45;&gt;Node41 -->
<g id="edge63" class="edge">
<title>Node1&#45;&gt;Node41</title>
<path fill="none" stroke="midnightblue" d="M1343,-627.44C1343,-608.94 1343,-563.81 1343,-526 1343,-526 1343,-526 1343,-244 1343,-204.61 1376.07,-168.73 1398,-149.26"/>
<polygon fill="midnightblue" stroke="midnightblue" points="1400.43,-151.79 1405.76,-142.64 1395.88,-146.47 1400.43,-151.79"/>
</g>
<!-- Node49 -->
<g id="node49" class="node">
<title>Node49</title>
<g id="a_node49"><a xlink:title=" ">
<polygon fill="white" stroke="#bfbfbf" points="1371.5,-571.5 1371.5,-590.5 1496.5,-590.5 1496.5,-571.5 1371.5,-571.5"/>
<text text-anchor="middle" x="1434" y="-578.5" font-family="Helvetica,sans-Serif" font-size="10.00">ITKOptimizersExport.h</text>
</a>
</g>
</g>
<!-- Node1&#45;&gt;Node49 -->
<g id="edge77" class="edge">
<title>Node1&#45;&gt;Node49</title>
<path fill="none" stroke="midnightblue" d="M1357.62,-627.32C1371.95,-618.82 1394.01,-605.73 1410.75,-595.8"/>
<polygon fill="midnightblue" stroke="midnightblue" points="1412.6,-598.77 1419.42,-590.65 1409.03,-592.75 1412.6,-598.77"/>
</g>
<!-- Node3 -->
<g id="node3" class="node">
<title>Node3</title>
<g id="a_node3"><a xlink:href="itkObject_8h.html" target="_top" xlink:title=" ">
<polygon fill="white" stroke="black" points="693,-347.5 693,-366.5 763,-366.5 763,-347.5 693,-347.5"/>
<text text-anchor="middle" x="728" y="-354.5" font-family="Helvetica,sans-Serif" font-size="10.00">itkObject.h</text>
</a>
</g>
</g>
<!-- Node2&#45;&gt;Node3 -->
<g id="edge2" class="edge">
<title>Node2&#45;&gt;Node3</title>
<path fill="none" stroke="midnightblue" d="M596.73,-571.47C619.41,-564.68 647.92,-553.22 668,-535 709.82,-497.05 714.25,-477.77 728,-423 731.82,-407.76 731.49,-389.87 730.39,-376.73"/>
<polygon fill="midnightblue" stroke="midnightblue" points="733.85,-376.15 729.31,-366.58 726.89,-376.89 733.85,-376.15"/>
</g>
<!-- Node28 -->
<g id="node28" class="node">
<title>Node28</title>
<g id="a_node28"><a xlink:href="itkObjectFactory_8h.html" target="_top" xlink:title=" ">
<polygon fill="white" stroke="black" points="179,-515.5 179,-534.5 283,-534.5 283,-515.5 179,-515.5"/>
<text text-anchor="middle" x="231" y="-522.5" font-family="Helvetica,sans-Serif" font-size="10.00">itkObjectFactory.h</text>
</a>
</g>
</g>
<!-- Node2&#45;&gt;Node28 -->
<g id="edge40" class="edge">
<title>Node2&#45;&gt;Node28</title>
<path fill="none" stroke="midnightblue" d="M509.31,-571.68C451.09,-562.12 355.56,-546.44 292.96,-536.17"/>
<polygon fill="midnightblue" stroke="midnightblue" points="293.26,-532.67 282.83,-534.51 292.13,-539.58 293.26,-532.67"/>
</g>
<!-- Node34 -->
<g id="node34" class="node">
<title>Node34</title>
<g id="a_node34"><a xlink:href="itkArray_8h.html" target="_top" xlink:title=" ">
<polygon fill="white" stroke="black" points="485.5,-347.5 485.5,-366.5 548.5,-366.5 548.5,-347.5 485.5,-347.5"/>
<text text-anchor="middle" x="517" y="-354.5" font-family="Helvetica,sans-Serif" font-size="10.00">itkArray.h</text>
</a>
</g>
</g>
<!-- Node2&#45;&gt;Node34 -->
<g id="edge51" class="edge">
<title>Node2&#45;&gt;Node34</title>
<path fill="none" stroke="midnightblue" d="M535.19,-571.5C486.34,-553.24 378.74,-505.15 336,-423 307.67,-368.54 413.4,-358.78 475.23,-357.6"/>
<polygon fill="midnightblue" stroke="midnightblue" points="475.54,-361.1 485.49,-357.48 475.45,-354.1 475.54,-361.1"/>
</g>
<!-- Node38 -->
<g id="node38" class="node">
<title>Node38</title>
<g id="a_node38"><a xlink:href="itkOptimizerParameters_8h.html" target="_top" xlink:title=" ">
<polygon fill="white" stroke="black" points="446,-459.5 446,-478.5 588,-478.5 588,-459.5 446,-459.5"/>
<text text-anchor="middle" x="517" y="-466.5" font-family="Helvetica,sans-Serif" font-size="10.00">itkOptimizerParameters.h</text>
</a>
</g>
</g>
<!-- Node2&#45;&gt;Node38 -->
<g id="edge56" class="edge">
<title>Node2&#45;&gt;Node38</title>
<path fill="none" stroke="midnightblue" d="M554.95,-571.25C549.94,-562.33 542.28,-548.01 537,-535 530.76,-519.62 525.34,-501.52 521.72,-488.33"/>
<polygon fill="midnightblue" stroke="midnightblue" points="525.08,-487.34 519.13,-478.58 518.31,-489.14 525.08,-487.34"/>
</g>
<!-- Node40 -->
<g id="node40" class="node">
<title>Node40</title>
<g id="a_node40"><a xlink:title=" ">
<polygon fill="white" stroke="#bfbfbf" points="545.5,-515.5 545.5,-534.5 658.5,-534.5 658.5,-515.5 545.5,-515.5"/>
<text text-anchor="middle" x="602" y="-522.5" font-family="Helvetica,sans-Serif" font-size="10.00">itkCostFunction.hxx</text>
</a>
</g>
</g>
<!-- Node2&#45;&gt;Node40 -->
<g id="edge62" class="edge">
<title>Node2&#45;&gt;Node40</title>
<path fill="none" stroke="midnightblue" d="M566.94,-571.08C572.93,-563.38 581.75,-552.03 589.05,-542.65"/>
<polygon fill="midnightblue" stroke="midnightblue" points="591.82,-544.79 595.19,-534.75 586.29,-540.5 591.82,-544.79"/>
</g>
<!-- Node4 -->
<g id="node4" class="node">
<title>Node4</title>
<g id="a_node4"><a xlink:href="itkLightObject_8h.html" target="_top" xlink:title=" ">
<polygon fill="white" stroke="black" points="875,-179.5 875,-198.5 969,-198.5 969,-179.5 875,-179.5"/>
<text text-anchor="middle" x="922" y="-186.5" font-family="Helvetica,sans-Serif" font-size="10.00">itkLightObject.h</text>
</a>
</g>
</g>
<!-- Node3&#45;&gt;Node4 -->
<g id="edge3" class="edge">
<title>Node3&#45;&gt;Node4</title>
<path fill="none" stroke="midnightblue" d="M762.41,-347.43C784.21,-340.57 811.8,-329.04 831,-311 858.67,-285 846.55,-264.86 870,-235 878.99,-223.56 891.2,-212.81 901.54,-204.69"/>
<polygon fill="midnightblue" stroke="midnightblue" points="903.81,-207.36 909.66,-198.53 899.58,-201.78 903.81,-207.36"/>
</g>
<!-- Node16 -->
<g id="node16" class="node">
<title>Node16</title>
<g id="a_node16"><a xlink:href="itkSingletonMacro_8h.html" target="_top" xlink:title=" ">
<polygon fill="white" stroke="black" points="549,-67.5 549,-86.5 663,-86.5 663,-67.5 549,-67.5"/>
<text text-anchor="middle" x="606" y="-74.5" font-family="Helvetica,sans-Serif" font-size="10.00">itkSingletonMacro.h</text>
</a>
</g>
</g>
<!-- Node3&#45;&gt;Node16 -->
<g id="edge37" class="edge">
<title>Node3&#45;&gt;Node16</title>
<path fill="none" stroke="midnightblue" d="M724.22,-347.38C707.17,-308.54 637.36,-149.47 613.81,-95.79"/>
<polygon fill="midnightblue" stroke="midnightblue" points="616.96,-94.27 609.74,-86.52 610.55,-97.09 616.96,-94.27"/>
</g>
<!-- Node19 -->
<g id="node19" class="node">
<title>Node19</title>
<g id="a_node19"><a xlink:href="itkEventObject_8h.html" target="_top" xlink:title=" ">
<polygon fill="white" stroke="black" points="679,-179.5 679,-198.5 777,-198.5 777,-179.5 679,-179.5"/>
<text text-anchor="middle" x="728" y="-186.5" font-family="Helvetica,sans-Serif" font-size="10.00">itkEventObject.h</text>
</a>
</g>
</g>
<!-- Node3&#45;&gt;Node19 -->
<g id="edge24" class="edge">
<title>Node3&#45;&gt;Node19</title>
<path fill="none" stroke="midnightblue" d="M728,-347.08C728,-320.95 728,-244.21 728,-208.58"/>
<polygon fill="midnightblue" stroke="midnightblue" points="731.5,-208.57 728,-198.57 724.5,-208.57 731.5,-208.57"/>
</g>
<!-- Node20 -->
<g id="node20" class="node">
<title>Node20</title>
<g id="a_node20"><a xlink:href="itkMetaDataDictionary_8h.html" target="_top" xlink:title=" ">
<polygon fill="white" stroke="black" points="947.5,-291.5 947.5,-310.5 1082.5,-310.5 1082.5,-291.5 947.5,-291.5"/>
<text text-anchor="middle" x="1015" y="-298.5" font-family="Helvetica,sans-Serif" font-size="10.00">itkMetaDataDictionary.h</text>
</a>
</g>
</g>
<!-- Node3&#45;&gt;Node20 -->
<g id="edge27" class="edge">
<title>Node3&#45;&gt;Node20</title>
<path fill="none" stroke="midnightblue" d="M763.19,-349.38C812.19,-340.16 901.46,-323.36 959.49,-312.45"/>
<polygon fill="midnightblue" stroke="midnightblue" points="960.4,-315.83 969.58,-310.55 959.11,-308.95 960.4,-315.83"/>
</g>
<!-- Node26 -->
<g id="node26" class="node">
<title>Node26</title>
<g id="a_node26"><a xlink:title=" ">
<polygon fill="white" stroke="#bfbfbf" points="570,-235.5 570,-254.5 628,-254.5 628,-235.5 570,-235.5"/>
<text text-anchor="middle" x="599" y="-242.5" font-family="Helvetica,sans-Serif" font-size="10.00">memory</text>
</a>
</g>
</g>
<!-- Node3&#45;&gt;Node26 -->
<g id="edge39" class="edge">
<title>Node3&#45;&gt;Node26</title>
<path fill="none" stroke="midnightblue" d="M717.88,-347.37C696.02,-328.73 644.19,-284.53 616.75,-261.13"/>
<polygon fill="midnightblue" stroke="midnightblue" points="618.96,-258.42 609.08,-254.59 614.41,-263.74 618.96,-258.42"/>
</g>
<!-- Node27 -->
<g id="node27" class="node">
<title>Node27</title>
<g id="a_node27"><a xlink:title=" ">
<polygon fill="white" stroke="#bfbfbf" points="756.5,-291.5 756.5,-310.5 821.5,-310.5 821.5,-291.5 756.5,-291.5"/>
<text text-anchor="middle" x="789" y="-298.5" font-family="Helvetica,sans-Serif" font-size="10.00">functional</text>
</a>
</g>
</g>
<!-- Node3&#45;&gt;Node27 -->
<g id="edge38" class="edge">
<title>Node3&#45;&gt;Node27</title>
<path fill="none" stroke="midnightblue" d="M737.8,-347.32C746.82,-339.34 760.41,-327.31 771.32,-317.65"/>
<polygon fill="midnightblue" stroke="midnightblue" points="773.85,-320.08 779.02,-310.83 769.21,-314.84 773.85,-320.08"/>
</g>
<!-- Node5 -->
<g id="node5" class="node">
<title>Node5</title>
<g id="a_node5"><a xlink:href="itkMacro_8h.html" target="_top" xlink:title=" ">
<polygon fill="white" stroke="black" points="758,-6 758,-25 826,-25 826,-6 758,-6"/>
<text text-anchor="middle" x="792" y="-13" font-family="Helvetica,sans-Serif" font-size="10.00">itkMacro.h</text>
</a>
</g>
</g>
<!-- Node4&#45;&gt;Node5 -->
<g id="edge4" class="edge">
<title>Node4&#45;&gt;Node5</title>
<path fill="none" stroke="midnightblue" d="M920.94,-179.43C919.02,-166.43 914.1,-141.3 903,-123 879.34,-83.99 837.82,-49.61 812.82,-31.06"/>
<polygon fill="midnightblue" stroke="midnightblue" points="814.87,-28.22 804.72,-25.18 810.75,-33.89 814.87,-28.22"/>
</g>
<!-- Node6 -->
<g id="node6" class="node">
<title>Node6</title>
<g id="a_node6"><a xlink:href="itkSmartPointer_8h.html" target="_top" xlink:title=" ">
<polygon fill="white" stroke="black" points="950.5,-123.5 950.5,-142.5 1051.5,-142.5 1051.5,-123.5 950.5,-123.5"/>
<text text-anchor="middle" x="1001" y="-130.5" font-family="Helvetica,sans-Serif" font-size="10.00">itkSmartPointer.h</text>
</a>
</g>
</g>
<!-- Node4&#45;&gt;Node6 -->
<g id="edge5" class="edge">
<title>Node4&#45;&gt;Node6</title>
<path fill="none" stroke="midnightblue" d="M934.69,-179.32C946.9,-170.98 965.58,-158.21 980,-148.35"/>
<polygon fill="midnightblue" stroke="midnightblue" points="982.06,-151.19 988.34,-142.65 978.11,-145.41 982.06,-151.19"/>
</g>
<!-- Node7 -->
<g id="node7" class="node">
<title>Node7</title>
<g id="a_node7"><a xlink:title=" ">
<polygon fill="white" stroke="#bfbfbf" points="1117,-67.5 1117,-86.5 1177,-86.5 1177,-67.5 1117,-67.5"/>
<text text-anchor="middle" x="1147" y="-74.5" font-family="Helvetica,sans-Serif" font-size="10.00">iostream</text>
</a>
</g>
</g>
<!-- Node4&#45;&gt;Node7 -->
<g id="edge22" class="edge">
<title>Node4&#45;&gt;Node7</title>
<path fill="none" stroke="midnightblue" d="M959.64,-179.46C988.4,-172.09 1028.49,-159.93 1061,-143 1087.01,-129.45 1113.4,-108.14 1129.96,-93.64"/>
<polygon fill="midnightblue" stroke="midnightblue" points="1132.54,-96.03 1137.67,-86.76 1127.88,-90.81 1132.54,-96.03"/>
</g>
<!-- Node11 -->
<g id="node11" class="node">
<title>Node11</title>
<g id="a_node11"><a xlink:href="itkTimeStamp_8h.html" target="_top" xlink:title=" ">
<polygon fill="white" stroke="black" points="672.5,-123.5 672.5,-142.5 767.5,-142.5 767.5,-123.5 672.5,-123.5"/>
<text text-anchor="middle" x="720" y="-130.5" font-family="Helvetica,sans-Serif" font-size="10.00">itkTimeStamp.h</text>
</a>
</g>
</g>
<!-- Node4&#45;&gt;Node11 -->
<g id="edge10" class="edge">
<title>Node4&#45;&gt;Node11</title>
<path fill="none" stroke="midnightblue" d="M889.99,-179.44C855.27,-170.16 799.71,-155.31 761.62,-145.13"/>
<polygon fill="midnightblue" stroke="midnightblue" points="762.42,-141.72 751.86,-142.52 760.61,-148.48 762.42,-141.72"/>
</g>
<!-- Node15 -->
<g id="node15" class="node">
<title>Node15</title>
<g id="a_node15"><a xlink:title=" ">
<polygon fill="white" stroke="#bfbfbf" points="764,-67.5 764,-86.5 814,-86.5 814,-67.5 764,-67.5"/>
<text text-anchor="middle" x="789" y="-74.5" font-family="Helvetica,sans-Serif" font-size="10.00">atomic</text>
</a>
</g>
</g>
<!-- Node4&#45;&gt;Node15 -->
<g id="edge21" class="edge">
<title>Node4&#45;&gt;Node15</title>
<path fill="none" stroke="midnightblue" d="M883.55,-179.44C861.35,-172.77 834.31,-161.45 816,-143 803.5,-130.41 796.5,-111.19 792.77,-96.91"/>
<polygon fill="midnightblue" stroke="midnightblue" points="796.09,-95.71 790.45,-86.75 789.26,-97.27 796.09,-95.71"/>
</g>
<!-- Node17 -->
<g id="node17" class="node">
<title>Node17</title>
<g id="a_node17"><a xlink:href="itkIndent_8h.html" target="_top" xlink:title=" ">
<polygon fill="white" stroke="black" points="824.5,-123.5 824.5,-142.5 893.5,-142.5 893.5,-123.5 824.5,-123.5"/>
<text text-anchor="middle" x="859" y="-130.5" font-family="Helvetica,sans-Serif" font-size="10.00">itkIndent.h</text>
</a>
</g>
</g>
<!-- Node4&#45;&gt;Node17 -->
<g id="edge18" class="edge">
<title>Node4&#45;&gt;Node17</title>
<path fill="none" stroke="midnightblue" d="M911.88,-179.32C902.47,-171.26 888.26,-159.08 876.93,-149.37"/>
<polygon fill="midnightblue" stroke="midnightblue" points="879.18,-146.68 869.31,-142.83 874.62,-152 879.18,-146.68"/>
</g>
<!-- Node18 -->
<g id="node18" class="node">
<title>Node18</title>
<g id="a_node18"><a xlink:title=" ">
<polygon fill="white" stroke="#bfbfbf" points="1108.5,-123.5 1108.5,-142.5 1165.5,-142.5 1165.5,-123.5 1108.5,-123.5"/>
<text text-anchor="middle" x="1137" y="-130.5" font-family="Helvetica,sans-Serif" font-size="10.00">typeinfo</text>
</a>
</g>
</g>
<!-- Node4&#45;&gt;Node18 -->
<g id="edge23" class="edge">
<title>Node4&#45;&gt;Node18</title>
<path fill="none" stroke="midnightblue" d="M956.07,-179.44C994.82,-169.71 1057.95,-153.85 1098.47,-143.68"/>
<polygon fill="midnightblue" stroke="midnightblue" points="1099.41,-147.05 1108.25,-141.22 1097.7,-140.26 1099.41,-147.05"/>
</g>
<!-- Node6&#45;&gt;Node7 -->
<g id="edge6" class="edge">
<title>Node6&#45;&gt;Node7</title>
<path fill="none" stroke="midnightblue" d="M1024.13,-123.44C1048.48,-114.44 1087.01,-100.19 1114.42,-90.05"/>
<polygon fill="midnightblue" stroke="midnightblue" points="1115.81,-93.27 1123.97,-86.52 1113.38,-86.7 1115.81,-93.27"/>
</g>
<!-- Node8 -->
<g id="node8" class="node">
<title>Node8</title>
<g id="a_node8"><a xlink:title=" ">
<polygon fill="white" stroke="#bfbfbf" points="950.5,-67.5 950.5,-86.5 995.5,-86.5 995.5,-67.5 950.5,-67.5"/>
<text text-anchor="middle" x="973" y="-74.5" font-family="Helvetica,sans-Serif" font-size="10.00">utility</text>
</a>
</g>
</g>
<!-- Node6&#45;&gt;Node8 -->
<g id="edge7" class="edge">
<title>Node6&#45;&gt;Node8</title>
<path fill="none" stroke="midnightblue" d="M996.38,-123.08C992.54,-115.69 986.98,-104.95 982.24,-95.81"/>
<polygon fill="midnightblue" stroke="midnightblue" points="985.25,-94.02 977.54,-86.75 979.03,-97.24 985.25,-94.02"/>
</g>
<!-- Node9 -->
<g id="node9" class="node">
<title>Node9</title>
<g id="a_node9"><a xlink:title=" ">
<polygon fill="white" stroke="#bfbfbf" points="1246.5,-67.5 1246.5,-86.5 1315.5,-86.5 1315.5,-67.5 1246.5,-67.5"/>
<text text-anchor="middle" x="1281" y="-74.5" font-family="Helvetica,sans-Serif" font-size="10.00">type_traits</text>
</a>
</g>
</g>
<!-- Node6&#45;&gt;Node9 -->
<g id="edge8" class="edge">
<title>Node6&#45;&gt;Node9</title>
<path fill="none" stroke="midnightblue" d="M1045.37,-123.44C1097.56,-113.38 1183.71,-96.76 1236.12,-86.66"/>
<polygon fill="midnightblue" stroke="midnightblue" points="1236.97,-90.06 1246.13,-84.73 1235.65,-83.18 1236.97,-90.06"/>
</g>
<!-- Node10 -->
<g id="node10" class="node">
<title>Node10</title>
<g id="a_node10"><a xlink:title=" ">
<polygon fill="white" stroke="#bfbfbf" points="1013.5,-67.5 1013.5,-86.5 1098.5,-86.5 1098.5,-67.5 1013.5,-67.5"/>
<text text-anchor="middle" x="1056" y="-74.5" font-family="Helvetica,sans-Serif" font-size="10.00">itkConfigure.h</text>
</a>
</g>
</g>
<!-- Node6&#45;&gt;Node10 -->
<g id="edge9" class="edge">
<title>Node6&#45;&gt;Node10</title>
<path fill="none" stroke="midnightblue" d="M1010.08,-123.08C1018.17,-115.14 1030.2,-103.34 1039.91,-93.8"/>
<polygon fill="midnightblue" stroke="midnightblue" points="1042.4,-96.25 1047.09,-86.75 1037.5,-91.26 1042.4,-96.25"/>
</g>
<!-- Node11&#45;&gt;Node5 -->
<g id="edge11" class="edge">
<title>Node11&#45;&gt;Node5</title>
<path fill="none" stroke="midnightblue" d="M724.17,-123.37C730.38,-110.72 742.68,-86.51 755,-67 762.37,-55.32 771.55,-42.79 778.91,-33.13"/>
<polygon fill="midnightblue" stroke="midnightblue" points="781.72,-35.23 785.07,-25.18 776.18,-30.95 781.72,-35.23"/>
</g>
<!-- Node12 -->
<g id="node12" class="node">
<title>Node12</title>
<g id="a_node12"><a xlink:href="itkIntTypes_8h.html" target="_top" xlink:title=" ">
<polygon fill="white" stroke="black" points="413.5,-67.5 413.5,-86.5 492.5,-86.5 492.5,-67.5 413.5,-67.5"/>
<text text-anchor="middle" x="453" y="-74.5" font-family="Helvetica,sans-Serif" font-size="10.00">itkIntTypes.h</text>
</a>
</g>
</g>
<!-- Node11&#45;&gt;Node12 -->
<g id="edge12" class="edge">
<title>Node11&#45;&gt;Node12</title>
<path fill="none" stroke="midnightblue" d="M677.69,-123.44C630.23,-113.84 553.32,-98.29 502.94,-88.1"/>
<polygon fill="midnightblue" stroke="midnightblue" points="503.42,-84.63 492.93,-86.08 502.04,-91.49 503.42,-84.63"/>
</g>
<!-- Node11&#45;&gt;Node15 -->
<g id="edge16" class="edge">
<title>Node11&#45;&gt;Node15</title>
<path fill="none" stroke="midnightblue" d="M731.09,-123.32C741.49,-115.18 757.26,-102.84 769.72,-93.09"/>
<polygon fill="midnightblue" stroke="midnightblue" points="771.99,-95.75 777.71,-86.83 767.68,-90.24 771.99,-95.75"/>
</g>
<!-- Node11&#45;&gt;Node16 -->
<g id="edge17" class="edge">
<title>Node11&#45;&gt;Node16</title>
<path fill="none" stroke="midnightblue" d="M701.94,-123.44C683.43,-114.68 654.42,-100.94 633.14,-90.86"/>
<polygon fill="midnightblue" stroke="midnightblue" points="634.51,-87.63 623.98,-86.52 631.52,-93.96 634.51,-87.63"/>
</g>
<!-- Node12&#45;&gt;Node5 -->
<g id="edge13" class="edge">
<title>Node12&#45;&gt;Node5</title>
<path fill="none" stroke="midnightblue" d="M492.55,-69.06C556.21,-57.88 681,-35.98 747.61,-24.29"/>
<polygon fill="midnightblue" stroke="midnightblue" points="748.54,-27.68 757.79,-22.51 747.33,-20.79 748.54,-27.68"/>
</g>
<!-- Node13 -->
<g id="node13" class="node">
<title>Node13</title>
<g id="a_node13"><a xlink:title=" ">
<polygon fill="white" stroke="#bfbfbf" points="462,-6 462,-25 512,-25 512,-6 462,-6"/>
<text text-anchor="middle" x="487" y="-13" font-family="Helvetica,sans-Serif" font-size="10.00">cstdint</text>
</a>
</g>
</g>
<!-- Node12&#45;&gt;Node13 -->
<g id="edge14" class="edge">
<title>Node12&#45;&gt;Node13</title>
<path fill="none" stroke="midnightblue" d="M457.87,-67.48C462.87,-58.73 470.79,-44.87 477.11,-33.81"/>
<polygon fill="midnightblue" stroke="midnightblue" points="480.22,-35.43 482.14,-25.01 474.14,-31.96 480.22,-35.43"/>
</g>
<!-- Node14 -->
<g id="node14" class="node">
<title>Node14</title>
<g id="a_node14"><a xlink:title=" ">
<polygon fill="white" stroke="#bfbfbf" points="394,-6 394,-25 444,-25 444,-6 394,-6"/>
<text text-anchor="middle" x="419" y="-13" font-family="Helvetica,sans-Serif" font-size="10.00">climits</text>
</a>
</g>
</g>
<!-- Node12&#45;&gt;Node14 -->
<g id="edge15" class="edge">
<title>Node12&#45;&gt;Node14</title>
<path fill="none" stroke="midnightblue" d="M448.13,-67.48C443.13,-58.73 435.21,-44.87 428.89,-33.81"/>
<polygon fill="midnightblue" stroke="midnightblue" points="431.86,-31.96 423.86,-25.01 425.78,-35.43 431.86,-31.96"/>
</g>
<!-- Node17&#45;&gt;Node5 -->
<g id="edge19" class="edge">
<title>Node17&#45;&gt;Node5</title>
<path fill="none" stroke="midnightblue" d="M854.23,-123.1C847.46,-110.51 834.57,-86.83 823,-67 816.47,-55.8 808.86,-43.4 802.81,-33.68"/>
<polygon fill="midnightblue" stroke="midnightblue" points="805.65,-31.63 797.38,-25.01 799.72,-35.34 805.65,-31.63"/>
</g>
<!-- Node17&#45;&gt;Node7 -->
<g id="edge20" class="edge">
<title>Node17&#45;&gt;Node7</title>
<path fill="none" stroke="midnightblue" d="M893.74,-126.26C940.08,-118.49 1024.88,-103.86 1106.82,-87.17"/>
<polygon fill="midnightblue" stroke="midnightblue" points="1107.7,-90.56 1116.8,-85.12 1106.3,-83.7 1107.7,-90.56"/>
</g>
<!-- Node19&#45;&gt;Node5 -->
<g id="edge25" class="edge">
<title>Node19&#45;&gt;Node5</title>
<path fill="none" stroke="midnightblue" d="M707.72,-179.37C684.92,-168.28 652.5,-147.52 664,-123 684.69,-78.88 733.63,-46.69 764.64,-29.84"/>
<polygon fill="midnightblue" stroke="midnightblue" points="766.42,-32.86 773.64,-25.11 763.16,-26.67 766.42,-32.86"/>
</g>
<!-- Node19&#45;&gt;Node17 -->
<g id="edge26" class="edge">
<title>Node19&#45;&gt;Node17</title>
<path fill="none" stroke="midnightblue" d="M748.76,-179.44C770.32,-170.56 804.26,-156.56 828.79,-146.45"/>
<polygon fill="midnightblue" stroke="midnightblue" points="830.43,-149.56 838.34,-142.52 827.76,-143.09 830.43,-149.56"/>
</g>
<!-- Node21 -->
<g id="node21" class="node">
<title>Node21</title>
<g id="a_node21"><a xlink:href="itkMetaDataObjectBase_8h.html" target="_top" xlink:title=" ">
<polygon fill="white" stroke="black" points="944,-235.5 944,-254.5 1086,-254.5 1086,-235.5 944,-235.5"/>
<text text-anchor="middle" x="1015" y="-242.5" font-family="Helvetica,sans-Serif" font-size="10.00">itkMetaDataObjectBase.h</text>
</a>
</g>
</g>
<!-- Node20&#45;&gt;Node21 -->
<g id="edge28" class="edge">
<title>Node20&#45;&gt;Node21</title>
<path fill="none" stroke="midnightblue" d="M1015,-291.08C1015,-284.01 1015,-273.86 1015,-264.99"/>
<polygon fill="midnightblue" stroke="midnightblue" points="1018.5,-264.75 1015,-254.75 1011.5,-264.75 1018.5,-264.75"/>
</g>
<!-- Node22 -->
<g id="node22" class="node">
<title>Node22</title>
<g id="a_node22"><a xlink:title=" ">
<polygon fill="white" stroke="#bfbfbf" points="1127,-6 1127,-25 1191,-25 1191,-6 1127,-6"/>
<text text-anchor="middle" x="1159" y="-13" font-family="Helvetica,sans-Serif" font-size="10.00">algorithm</text>
</a>
</g>
</g>
<!-- Node20&#45;&gt;Node22 -->
<g id="edge32" class="edge">
<title>Node20&#45;&gt;Node22</title>
<path fill="none" stroke="midnightblue" d="M1082.55,-293.58C1133.31,-287.2 1196.75,-275.35 1213,-255 1267.04,-187.3 1200.64,-76.02 1171.45,-33.63"/>
<polygon fill="midnightblue" stroke="midnightblue" points="1174.31,-31.61 1165.69,-25.45 1168.59,-35.64 1174.31,-31.61"/>
</g>
<!-- Node23 -->
<g id="node23" class="node">
<title>Node23</title>
<g id="a_node23"><a xlink:title=" ">
<polygon fill="white" stroke="#bfbfbf" points="878.5,-235.5 878.5,-254.5 925.5,-254.5 925.5,-235.5 878.5,-235.5"/>
<text text-anchor="middle" x="902" y="-242.5" font-family="Helvetica,sans-Serif" font-size="10.00">vector</text>
</a>
</g>
</g>
<!-- Node20&#45;&gt;Node23 -->
<g id="edge33" class="edge">
<title>Node20&#45;&gt;Node23</title>
<path fill="none" stroke="midnightblue" d="M997.09,-291.44C978.75,-282.68 949.99,-268.94 928.91,-258.86"/>
<polygon fill="midnightblue" stroke="midnightblue" points="930.35,-255.67 919.82,-254.52 927.33,-261.99 930.35,-255.67"/>
</g>
<!-- Node24 -->
<g id="node24" class="node">
<title>Node24</title>
<g id="a_node24"><a xlink:title=" ">
<polygon fill="white" stroke="#bfbfbf" points="1104,-235.5 1104,-254.5 1142,-254.5 1142,-235.5 1104,-235.5"/>
<text text-anchor="middle" x="1123" y="-242.5" font-family="Helvetica,sans-Serif" font-size="10.00">map</text>
</a>
</g>
</g>
<!-- Node20&#45;&gt;Node24 -->
<g id="edge34" class="edge">
<title>Node20&#45;&gt;Node24</title>
<path fill="none" stroke="midnightblue" d="M1032.35,-291.32C1049.67,-282.66 1076.52,-269.24 1096.5,-259.25"/>
<polygon fill="midnightblue" stroke="midnightblue" points="1098.31,-262.26 1105.69,-254.65 1095.18,-256 1098.31,-262.26"/>
</g>
<!-- Node25 -->
<g id="node25" class="node">
<title>Node25</title>
<g id="a_node25"><a xlink:title=" ">
<polygon fill="white" stroke="#bfbfbf" points="1160,-235.5 1160,-254.5 1204,-254.5 1204,-235.5 1160,-235.5"/>
<text text-anchor="middle" x="1182" y="-242.5" font-family="Helvetica,sans-Serif" font-size="10.00">string</text>
</a>
</g>
</g>
<!-- Node20&#45;&gt;Node25 -->
<g id="edge35" class="edge">
<title>Node20&#45;&gt;Node25</title>
<path fill="none" stroke="midnightblue" d="M1041.46,-291.44C1071.01,-281.89 1118.8,-266.44 1150.31,-256.25"/>
<polygon fill="midnightblue" stroke="midnightblue" points="1151.49,-259.54 1159.93,-253.14 1149.34,-252.88 1151.49,-259.54"/>
</g>
<!-- Node20&#45;&gt;Node26 -->
<g id="edge36" class="edge">
<title>Node20&#45;&gt;Node26</title>
<path fill="none" stroke="midnightblue" d="M949.08,-291.44C861.52,-280.08 709.6,-260.36 638.21,-251.09"/>
<polygon fill="midnightblue" stroke="midnightblue" points="638.64,-247.62 628.27,-249.8 637.74,-254.56 638.64,-247.62"/>
</g>
<!-- Node21&#45;&gt;Node4 -->
<g id="edge29" class="edge">
<title>Node21&#45;&gt;Node4</title>
<path fill="none" stroke="midnightblue" d="M1000.06,-235.32C985.41,-226.82 962.87,-213.73 945.76,-203.8"/>
<polygon fill="midnightblue" stroke="midnightblue" points="947.31,-200.65 936.9,-198.65 943.8,-206.7 947.31,-200.65"/>
</g>
<!-- Node21&#45;&gt;Node7 -->
<g id="edge31" class="edge">
<title>Node21&#45;&gt;Node7</title>
<path fill="none" stroke="midnightblue" d="M1044.08,-235.49C1082.24,-222.55 1147.58,-193.9 1175,-143 1183.6,-127.03 1172.97,-107.86 1162.42,-94.49"/>
<polygon fill="midnightblue" stroke="midnightblue" points="1164.87,-91.96 1155.71,-86.64 1159.55,-96.51 1164.87,-91.96"/>
</g>
<!-- Node21&#45;&gt;Node18 -->
<g id="edge30" class="edge">
<title>Node21&#45;&gt;Node18</title>
<path fill="none" stroke="midnightblue" d="M1024.57,-235.37C1045.15,-216.81 1093.84,-172.91 1119.88,-149.44"/>
<polygon fill="midnightblue" stroke="midnightblue" points="1122.39,-151.89 1127.47,-142.59 1117.7,-146.69 1122.39,-151.89"/>
</g>
<!-- Node29 -->
<g id="node29" class="node">
<title>Node29</title>
<g id="a_node29"><a xlink:href="itkObjectFactoryBase_8h.html" target="_top" xlink:title=" ">
<polygon fill="white" stroke="black" points="159.5,-459.5 159.5,-478.5 288.5,-478.5 288.5,-459.5 159.5,-459.5"/>
<text text-anchor="middle" x="224" y="-466.5" font-family="Helvetica,sans-Serif" font-size="10.00">itkObjectFactoryBase.h</text>
</a>
</g>
</g>
<!-- Node28&#45;&gt;Node29 -->
<g id="edge41" class="edge">
<title>Node28&#45;&gt;Node29</title>
<path fill="none" stroke="midnightblue" d="M229.84,-515.08C228.92,-507.93 227.58,-497.64 226.42,-488.69"/>
<polygon fill="midnightblue" stroke="midnightblue" points="229.89,-488.22 225.13,-478.75 222.95,-489.12 229.89,-488.22"/>
</g>
<!-- Node29&#45;&gt;Node16 -->
<g id="edge44" class="edge">
<title>Node29&#45;&gt;Node16</title>
<path fill="none" stroke="midnightblue" d="M222.52,-459.3C218.25,-431.07 208.87,-340.93 253,-291 346.08,-185.7 504.03,-116.63 572.59,-90.16"/>
<polygon fill="midnightblue" stroke="midnightblue" points="573.94,-93.39 582.04,-86.56 571.45,-86.85 573.94,-93.39"/>
</g>
<!-- Node29&#45;&gt;Node23 -->
<g id="edge50" class="edge">
<title>Node29&#45;&gt;Node23</title>
<path fill="none" stroke="midnightblue" d="M288.55,-464.53C415.47,-457.37 688.65,-440.19 728,-423 806.3,-388.8 867.69,-301.39 891.39,-263.72"/>
<polygon fill="midnightblue" stroke="midnightblue" points="894.57,-265.24 896.83,-254.88 888.61,-261.57 894.57,-265.24"/>
</g>
<!-- Node29&#45;&gt;Node26 -->
<g id="edge49" class="edge">
<title>Node29&#45;&gt;Node26</title>
<path fill="none" stroke="midnightblue" d="M223.4,-459.31C221.91,-430.31 221.41,-336.15 273,-291 314.93,-254.3 482.26,-247.4 559.52,-246.2"/>
<polygon fill="midnightblue" stroke="midnightblue" points="559.85,-249.69 569.8,-246.06 559.76,-242.69 559.85,-249.69"/>
</g>
<!-- Node30 -->
<g id="node30" class="node">
<title>Node30</title>
<g id="a_node30"><a xlink:href="itkCreateObjectFunction_8h.html" target="_top" xlink:title=" ">
<polygon fill="white" stroke="black" points="345.5,-403.5 345.5,-422.5 488.5,-422.5 488.5,-403.5 345.5,-403.5"/>
<text text-anchor="middle" x="417" y="-410.5" font-family="Helvetica,sans-Serif" font-size="10.00">itkCreateObjectFunction.h</text>
</a>
</g>
</g>
<!-- Node29&#45;&gt;Node30 -->
<g id="edge42" class="edge">
<title>Node29&#45;&gt;Node30</title>
<path fill="none" stroke="midnightblue" d="M254.58,-459.44C287.61,-450.2 340.39,-435.44 376.77,-425.26"/>
<polygon fill="midnightblue" stroke="midnightblue" points="377.87,-428.58 386.56,-422.52 375.99,-421.84 377.87,-428.58"/>
</g>
<!-- Node31 -->
<g id="node31" class="node">
<title>Node31</title>
<g id="a_node31"><a xlink:href="itkCommonEnums_8h.html" target="_top" xlink:title=" ">
<polygon fill="white" stroke="black" points="50,-403.5 50,-422.5 166,-422.5 166,-403.5 50,-403.5"/>
<text text-anchor="middle" x="108" y="-410.5" font-family="Helvetica,sans-Serif" font-size="10.00">itkCommonEnums.h</text>
</a>
</g>
</g>
<!-- Node29&#45;&gt;Node31 -->
<g id="edge45" class="edge">
<title>Node29&#45;&gt;Node31</title>
<path fill="none" stroke="midnightblue" d="M205.62,-459.44C186.78,-450.68 157.27,-436.94 135.62,-426.86"/>
<polygon fill="midnightblue" stroke="midnightblue" points="136.84,-423.56 126.29,-422.52 133.88,-429.91 136.84,-423.56"/>
</g>
<!-- Node33 -->
<g id="node33" class="node">
<title>Node33</title>
<g id="a_node33"><a xlink:title=" ">
<polygon fill="white" stroke="#bfbfbf" points="0,-403.5 0,-422.5 32,-422.5 32,-403.5 0,-403.5"/>
<text text-anchor="middle" x="16" y="-410.5" font-family="Helvetica,sans-Serif" font-size="10.00">list</text>
</a>
</g>
</g>
<!-- Node29&#45;&gt;Node33 -->
<g id="edge48" class="edge">
<title>Node29&#45;&gt;Node33</title>
<path fill="none" stroke="midnightblue" d="M184.05,-459.44C148.87,-451.62 96.1,-439.22 41.84,-423.02"/>
<polygon fill="midnightblue" stroke="midnightblue" points="42.64,-419.6 32.06,-420.06 40.61,-426.3 42.64,-419.6"/>
</g>
<!-- Node30&#45;&gt;Node3 -->
<g id="edge43" class="edge">
<title>Node30&#45;&gt;Node3</title>
<path fill="none" stroke="midnightblue" d="M466.28,-403.44C525.9,-393.09 625.43,-375.81 683.04,-365.81"/>
<polygon fill="midnightblue" stroke="midnightblue" points="683.69,-369.25 692.95,-364.09 682.5,-362.35 683.69,-369.25"/>
</g>
<!-- Node31&#45;&gt;Node12 -->
<g id="edge46" class="edge">
<title>Node31&#45;&gt;Node12</title>
<path fill="none" stroke="midnightblue" d="M104.22,-403.35C96.58,-385.03 80,-340.82 80,-302 80,-302 80,-302 80,-188 80,-121.34 301.93,-92.07 403.42,-82.17"/>
<polygon fill="midnightblue" stroke="midnightblue" points="403.81,-85.65 413.44,-81.22 403.15,-78.68 403.81,-85.65"/>
</g>
<!-- Node32 -->
<g id="node32" class="node">
<title>Node32</title>
<g id="a_node32"><a xlink:title=" ">
<polygon fill="white" stroke="#bfbfbf" points="108.5,-347.5 108.5,-366.5 165.5,-366.5 165.5,-347.5 108.5,-347.5"/>
<text text-anchor="middle" x="137" y="-354.5" font-family="Helvetica,sans-Serif" font-size="10.00">ostream</text>
</a>
</g>
</g>
<!-- Node31&#45;&gt;Node32 -->
<g id="edge47" class="edge">
<title>Node31&#45;&gt;Node32</title>
<path fill="none" stroke="midnightblue" d="M112.79,-403.08C116.76,-395.69 122.53,-384.95 127.43,-375.81"/>
<polygon fill="midnightblue" stroke="midnightblue" points="130.65,-377.22 132.3,-366.75 124.49,-373.91 130.65,-377.22"/>
</g>
<!-- Node34&#45;&gt;Node5 -->
<g id="edge52" class="edge">
<title>Node34&#45;&gt;Node5</title>
<path fill="none" stroke="midnightblue" d="M546.12,-347.44C563.64,-340.62 584.52,-329.14 595,-311 609.56,-285.79 573.42,-281.34 561,-255 525.14,-178.95 486.71,-132.03 540,-67 565.77,-35.55 682.57,-23.29 747.72,-18.83"/>
<polygon fill="midnightblue" stroke="midnightblue" points="747.96,-22.32 757.72,-18.18 747.51,-15.34 747.96,-22.32"/>
</g>
<!-- Node35 -->
<g id="node35" class="node">
<title>Node35</title>
<g id="a_node35"><a xlink:title=" ">
<polygon fill="white" stroke="#bfbfbf" points="504,-291.5 504,-310.5 586,-310.5 586,-291.5 504,-291.5"/>
<text text-anchor="middle" x="545" y="-298.5" font-family="Helvetica,sans-Serif" font-size="10.00">vxl_version.h</text>
</a>
</g>
</g>
<!-- Node34&#45;&gt;Node35 -->
<g id="edge53" class="edge">
<title>Node34&#45;&gt;Node35</title>
<path fill="none" stroke="midnightblue" d="M521.62,-347.08C525.46,-339.69 531.02,-328.95 535.76,-319.81"/>
<polygon fill="midnightblue" stroke="midnightblue" points="538.97,-321.24 540.46,-310.75 532.75,-318.02 538.97,-321.24"/>
</g>
<!-- Node36 -->
<g id="node36" class="node">
<title>Node36</title>
<g id="a_node36"><a xlink:title=" ">
<polygon fill="white" stroke="#bfbfbf" points="298,-291.5 298,-310.5 392,-310.5 392,-291.5 298,-291.5"/>
<text text-anchor="middle" x="345" y="-298.5" font-family="Helvetica,sans-Serif" font-size="10.00">vnl/vnl_vector.h</text>
</a>
</g>
</g>
<!-- Node34&#45;&gt;Node36 -->
<g id="edge54" class="edge">
<title>Node34&#45;&gt;Node36</title>
<path fill="none" stroke="midnightblue" d="M489.75,-347.44C460.56,-338.28 414.08,-323.69 381.69,-313.52"/>
<polygon fill="midnightblue" stroke="midnightblue" points="382.72,-310.17 372.13,-310.52 380.62,-316.85 382.72,-310.17"/>
</g>
<!-- Node37 -->
<g id="node37" class="node">
<title>Node37</title>
<g id="a_node37"><a xlink:title=" ">
<polygon fill="white" stroke="#bfbfbf" points="410.5,-291.5 410.5,-310.5 485.5,-310.5 485.5,-291.5 410.5,-291.5"/>
<text text-anchor="middle" x="448" y="-298.5" font-family="Helvetica,sans-Serif" font-size="10.00">itkArray.hxx</text>
</a>
</g>
</g>
<!-- Node34&#45;&gt;Node37 -->
<g id="edge55" class="edge">
<title>Node34&#45;&gt;Node37</title>
<path fill="none" stroke="midnightblue" d="M505.91,-347.32C495.51,-339.18 479.74,-326.84 467.28,-317.09"/>
<polygon fill="midnightblue" stroke="midnightblue" points="469.32,-314.24 459.29,-310.83 465.01,-319.75 469.32,-314.24"/>
</g>
<!-- Node38&#45;&gt;Node26 -->
<g id="edge61" class="edge">
<title>Node38&#45;&gt;Node26</title>
<path fill="none" stroke="midnightblue" d="M445.69,-465.17C409.21,-460.32 366.24,-448.92 336,-423 288.72,-382.47 248.25,-338.09 289,-291 323.58,-251.04 484.34,-245.82 559.75,-245.62"/>
<polygon fill="midnightblue" stroke="midnightblue" points="559.8,-249.12 569.8,-245.62 559.8,-242.12 559.8,-249.12"/>
</g>
<!-- Node38&#45;&gt;Node34 -->
<g id="edge57" class="edge">
<title>Node38&#45;&gt;Node34</title>
<path fill="none" stroke="midnightblue" d="M517,-459.37C517,-441.62 517,-400.67 517,-376.6"/>
<polygon fill="midnightblue" stroke="midnightblue" points="520.5,-376.59 517,-366.59 513.5,-376.59 520.5,-376.59"/>
</g>
<!-- Node39 -->
<g id="node39" class="node">
<title>Node39</title>
<g id="a_node39"><a xlink:href="itkOptimizerParametersHelper_8h.html" target="_top" xlink:title=" ">
<polygon fill="white" stroke="black" points="545.5,-403.5 545.5,-422.5 718.5,-422.5 718.5,-403.5 545.5,-403.5"/>
<text text-anchor="middle" x="632" y="-410.5" font-family="Helvetica,sans-Serif" font-size="10.00">itkOptimizerParametersHelper.h</text>
</a>
</g>
</g>
<!-- Node38&#45;&gt;Node39 -->
<g id="edge58" class="edge">
<title>Node38&#45;&gt;Node39</title>
<path fill="none" stroke="midnightblue" d="M535.22,-459.44C553.9,-450.68 583.16,-436.94 604.62,-426.86"/>
<polygon fill="midnightblue" stroke="midnightblue" points="606.3,-429.93 613.86,-422.52 603.32,-423.6 606.3,-429.93"/>
</g>
<!-- Node39&#45;&gt;Node3 -->
<g id="edge59" class="edge">
<title>Node39&#45;&gt;Node3</title>
<path fill="none" stroke="midnightblue" d="M647.42,-403.32C662.54,-394.82 685.82,-381.73 703.47,-371.8"/>
<polygon fill="midnightblue" stroke="midnightblue" points="705.61,-374.61 712.61,-366.65 702.18,-368.51 705.61,-374.61"/>
</g>
<!-- Node39&#45;&gt;Node34 -->
<g id="edge60" class="edge">
<title>Node39&#45;&gt;Node34</title>
<path fill="none" stroke="midnightblue" d="M613.78,-403.44C595.1,-394.68 565.84,-380.94 544.38,-370.86"/>
<polygon fill="midnightblue" stroke="midnightblue" points="545.68,-367.6 535.14,-366.52 542.7,-373.93 545.68,-367.6"/>
</g>
<!-- Node41&#45;&gt;Node5 -->
<g id="edge64" class="edge">
<title>Node41&#45;&gt;Node5</title>
<path fill="none" stroke="midnightblue" d="M1408.27,-123.38C1392.93,-108.84 1359.48,-79.77 1325,-67 1235.71,-33.92 947.92,-21.44 836.57,-17.78"/>
<polygon fill="midnightblue" stroke="midnightblue" points="836.47,-14.27 826.36,-17.45 836.24,-21.27 836.47,-14.27"/>
</g>
<!-- Node41&#45;&gt;Node9 -->
<g id="edge67" class="edge">
<title>Node41&#45;&gt;Node9</title>
<path fill="none" stroke="midnightblue" d="M1395.45,-123.44C1372.97,-114.52 1337.51,-100.44 1312.02,-90.32"/>
<polygon fill="midnightblue" stroke="midnightblue" points="1313.03,-86.95 1302.45,-86.52 1310.45,-93.46 1313.03,-86.95"/>
</g>
<!-- Node42 -->
<g id="node42" class="node">
<title>Node42</title>
<g id="a_node42"><a xlink:title=" ">
<polygon fill="white" stroke="#bfbfbf" points="1518,-67.5 1518,-86.5 1562,-86.5 1562,-67.5 1518,-67.5"/>
<text text-anchor="middle" x="1540" y="-74.5" font-family="Helvetica,sans-Serif" font-size="10.00">limits</text>
</a>
</g>
</g>
<!-- Node41&#45;&gt;Node42 -->
<g id="edge65" class="edge">
<title>Node41&#45;&gt;Node42</title>
<path fill="none" stroke="midnightblue" d="M1436.49,-123.44C1456.64,-114.6 1488.32,-100.69 1511.33,-90.59"/>
<polygon fill="midnightblue" stroke="midnightblue" points="1512.85,-93.74 1520.6,-86.52 1510.04,-87.33 1512.85,-93.74"/>
</g>
<!-- Node43 -->
<g id="node43" class="node">
<title>Node43</title>
<g id="a_node43"><a xlink:title=" ">
<polygon fill="white" stroke="#bfbfbf" points="1580.5,-67.5 1580.5,-86.5 1639.5,-86.5 1639.5,-67.5 1580.5,-67.5"/>
<text text-anchor="middle" x="1610" y="-74.5" font-family="Helvetica,sans-Serif" font-size="10.00">complex</text>
</a>
</g>
</g>
<!-- Node41&#45;&gt;Node43 -->
<g id="edge66" class="edge">
<title>Node41&#45;&gt;Node43</title>
<path fill="none" stroke="midnightblue" d="M1447.58,-123.44C1480.81,-114.15 1534.01,-99.26 1570.41,-89.08"/>
<polygon fill="midnightblue" stroke="midnightblue" points="1571.51,-92.4 1580.2,-86.34 1569.62,-85.66 1571.51,-92.4"/>
</g>
<!-- Node44 -->
<g id="node44" class="node">
<title>Node44</title>
<g id="a_node44"><a xlink:href="itkFixedArray_8h.html" target="_top" xlink:title=" ">
<polygon fill="white" stroke="black" points="1372.5,-67.5 1372.5,-86.5 1461.5,-86.5 1461.5,-67.5 1372.5,-67.5"/>
<text text-anchor="middle" x="1417" y="-74.5" font-family="Helvetica,sans-Serif" font-size="10.00">itkFixedArray.h</text>
</a>
</g>
</g>
<!-- Node41&#45;&gt;Node44 -->
<g id="edge68" class="edge">
<title>Node41&#45;&gt;Node44</title>
<path fill="none" stroke="midnightblue" d="M1417,-123.08C1417,-116.01 1417,-105.86 1417,-96.99"/>
<polygon fill="midnightblue" stroke="midnightblue" points="1420.5,-96.75 1417,-86.75 1413.5,-96.75 1420.5,-96.75"/>
</g>
<!-- Node44&#45;&gt;Node5 -->
<g id="edge69" class="edge">
<title>Node44&#45;&gt;Node5</title>
<path fill="none" stroke="midnightblue" d="M1372.26,-68.88C1367.45,-68.2 1362.63,-67.56 1358,-67 1164.24,-43.6 931.93,-26.21 836.37,-19.51"/>
<polygon fill="midnightblue" stroke="midnightblue" points="836.43,-16.01 826.21,-18.8 835.94,-22.99 836.43,-16.01"/>
</g>
<!-- Node44&#45;&gt;Node22 -->
<g id="edge71" class="edge">
<title>Node44&#45;&gt;Node22</title>
<path fill="none" stroke="midnightblue" d="M1372.34,-68.41C1328.39,-60.54 1259.53,-47.13 1201,-31 1197.97,-30.17 1194.85,-29.23 1191.73,-28.25"/>
<polygon fill="midnightblue" stroke="midnightblue" points="1192.54,-24.83 1181.94,-25.01 1190.34,-31.47 1192.54,-24.83"/>
</g>
<!-- Node45 -->
<g id="node45" class="node">
<title>Node45</title>
<g id="a_node45"><a xlink:href="itkMakeFilled_8h.html" target="_top" xlink:title=" ">
<polygon fill="white" stroke="black" points="1328.5,-6 1328.5,-25 1419.5,-25 1419.5,-6 1328.5,-6"/>
<text text-anchor="middle" x="1374" y="-13" font-family="Helvetica,sans-Serif" font-size="10.00">itkMakeFilled.h</text>
</a>
</g>
</g>
<!-- Node44&#45;&gt;Node45 -->
<g id="edge70" class="edge">
<title>Node44&#45;&gt;Node45</title>
<path fill="none" stroke="midnightblue" d="M1410.84,-67.48C1404.39,-58.55 1394.1,-44.31 1386.03,-33.14"/>
<polygon fill="midnightblue" stroke="midnightblue" points="1388.84,-31.06 1380.15,-25.01 1383.17,-35.16 1388.84,-31.06"/>
</g>
<!-- Node46 -->
<g id="node46" class="node">
<title>Node46</title>
<g id="a_node46"><a xlink:title=" ">
<polygon fill="white" stroke="#bfbfbf" points="1438,-6 1438,-25 1480,-25 1480,-6 1438,-6"/>
<text text-anchor="middle" x="1459" y="-13" font-family="Helvetica,sans-Serif" font-size="10.00">array</text>
</a>
</g>
</g>
<!-- Node44&#45;&gt;Node46 -->
<g id="edge72" class="edge">
<title>Node44&#45;&gt;Node46</title>
<path fill="none" stroke="midnightblue" d="M1423.02,-67.48C1429.26,-58.64 1439.17,-44.59 1447.02,-33.48"/>
<polygon fill="midnightblue" stroke="midnightblue" points="1450.09,-35.2 1452.99,-25.01 1444.37,-31.16 1450.09,-35.2"/>
</g>
<!-- Node47 -->
<g id="node47" class="node">
<title>Node47</title>
<g id="a_node47"><a xlink:title=" ">
<polygon fill="white" stroke="#bfbfbf" points="1209.5,-6 1209.5,-25 1310.5,-25 1310.5,-6 1209.5,-6"/>
<text text-anchor="middle" x="1260" y="-13" font-family="Helvetica,sans-Serif" font-size="10.00">itkFixedArray.hxx</text>
</a>
</g>
</g>
<!-- Node44&#45;&gt;Node47 -->
<g id="edge73" class="edge">
<title>Node44&#45;&gt;Node47</title>
<path fill="none" stroke="midnightblue" d="M1394.51,-67.48C1367.69,-57.31 1322.68,-40.26 1292.19,-28.7"/>
<polygon fill="midnightblue" stroke="midnightblue" points="1293.04,-25.28 1282.45,-25.01 1290.56,-31.83 1293.04,-25.28"/>
</g>
<!-- Node48 -->
<g id="node48" class="node">
<title>Node48</title>
<g id="a_node48"><a xlink:href="itkNumericTraitsFixedArrayPixel_8h.html" target="_top" xlink:title=" ">
<polygon fill="white" stroke="black" points="1497.5,-0.5 1497.5,-30.5 1646.5,-30.5 1646.5,-0.5 1497.5,-0.5"/>
<text text-anchor="start" x="1505.5" y="-18.5" font-family="Helvetica,sans-Serif" font-size="10.00">itkNumericTraitsFixedArray</text>
<text text-anchor="middle" x="1572" y="-7.5" font-family="Helvetica,sans-Serif" font-size="10.00">Pixel.h</text>
</a>
</g>
</g>
<!-- Node44&#45;&gt;Node48 -->
<g id="edge74" class="edge">
<title>Node44&#45;&gt;Node48</title>
<path fill="none" stroke="midnightblue" d="M1434.31,-67.48C1455.07,-58.78 1490.45,-45.03 1520.2,-34"/>
<polygon fill="midnightblue" stroke="midnightblue" points="1521.47,-37.26 1529.64,-30.52 1519.05,-30.69 1521.47,-37.26"/>
</g>
<!-- Node48&#45;&gt;Node41 -->
<g id="edge75" class="edge">
<title>Node48&#45;&gt;Node41</title>
<path fill="none" stroke="midnightblue" d="M1553.15,-30.55C1523.63,-52.54 1466.76,-94.92 1436.71,-117.31"/>
<polygon fill="midnightblue" stroke="midnightblue" points="1434.58,-114.54 1428.65,-123.32 1438.76,-120.15 1434.58,-114.54"/>
</g>
<!-- Node48&#45;&gt;Node44 -->
<g id="edge76" class="edge">
<title>Node48&#45;&gt;Node44</title>
<path fill="none" stroke="midnightblue" d="M1541.3,-30.52C1516.12,-40.69 1480.58,-54.3 1453.87,-63.98"/>
<polygon fill="midnightblue" stroke="midnightblue" points="1452.34,-60.81 1444.11,-67.48 1454.7,-67.4 1452.34,-60.81"/>
</g>
</g>
</svg>
