<?xml version="1.0" encoding="UTF-8" standalone="no"?>
<!DOCTYPE svg PUBLIC "-//W3C//DTD SVG 1.1//EN"
 "http://www.w3.org/Graphics/SVG/1.1/DTD/svg11.dtd">
<!-- Generated by graphviz version 2.43.0 (0)
 -->
<!-- Title: itkSparseFieldLevelSetImageFilter.h Pages: 1 -->
<svg width="2064pt" height="240pt"
 viewBox="0.00 0.00 2064.00 240.00" xmlns="http://www.w3.org/2000/svg" xmlns:xlink="http://www.w3.org/1999/xlink">
<g id="graph0" class="graph" transform="scale(1 1) rotate(0) translate(4 236)">
<title>itkSparseFieldLevelSetImageFilter.h</title>
<polygon fill="white" stroke="transparent" points="-4,4 -4,-236 2060,-236 2060,4 -4,4"/>
<!-- Node1 -->
<g id="node1" class="node">
<title>Node1</title>
<g id="a_node1"><a xlink:title=" ">
<polygon fill="#bfbfbf" stroke="black" points="685.5,-201.5 685.5,-231.5 843.5,-231.5 843.5,-201.5 685.5,-201.5"/>
<text text-anchor="start" x="693.5" y="-219.5" font-family="Helvetica,sans-Serif" font-size="10.00">itkSparseFieldLevelSetImage</text>
<text text-anchor="middle" x="764.5" y="-208.5" font-family="Helvetica,sans-Serif" font-size="10.00">Filter.h</text>
</a>
</g>
</g>
<!-- Node2 -->
<g id="node2" class="node">
<title>Node2</title>
<g id="a_node2"><a xlink:href="itkAntiAliasBinaryImageFilter_8h.html" target="_top" xlink:title=" ">
<polygon fill="white" stroke="black" points="419.5,-140 419.5,-159 587.5,-159 587.5,-140 419.5,-140"/>
<text text-anchor="middle" x="503.5" y="-147" font-family="Helvetica,sans-Serif" font-size="10.00">itkAntiAliasBinaryImageFilter.h</text>
</a>
</g>
</g>
<!-- Node1&#45;&gt;Node2 -->
<g id="edge1" class="edge">
<title>Node1&#45;&gt;Node2</title>
<path fill="none" stroke="midnightblue" d="M698.21,-198.99C647.06,-186.25 578.38,-169.15 537.75,-159.03"/>
<polygon fill="midnightblue" stroke="midnightblue" points="697.64,-202.46 708.19,-201.48 699.33,-195.66 697.64,-202.46"/>
</g>
<!-- Node3 -->
<g id="node3" class="node">
<title>Node3</title>
<g id="a_node3"><a xlink:href="itkMultiphaseSparseFiniteDifferenceImageFilter_8h.html" target="_top" xlink:title=" ">
<polygon fill="white" stroke="black" points="606,-134.5 606,-164.5 749,-164.5 749,-134.5 606,-134.5"/>
<text text-anchor="start" x="614" y="-152.5" font-family="Helvetica,sans-Serif" font-size="10.00">itkMultiphaseSparseFinite</text>
<text text-anchor="middle" x="677.5" y="-141.5" font-family="Helvetica,sans-Serif" font-size="10.00">DifferenceImageFilter.h</text>
</a>
</g>
</g>
<!-- Node1&#45;&gt;Node3 -->
<g id="edge2" class="edge">
<title>Node1&#45;&gt;Node3</title>
<path fill="none" stroke="midnightblue" d="M737.29,-195.17C723.98,-185.23 708.3,-173.51 696.34,-164.58"/>
<polygon fill="midnightblue" stroke="midnightblue" points="735.52,-198.21 745.62,-201.4 739.71,-192.61 735.52,-198.21"/>
</g>
<!-- Node5 -->
<g id="node5" class="node">
<title>Node5</title>
<g id="a_node5"><a xlink:href="itkSegmentationLevelSetImageFilter_8h.html" target="_top" xlink:title=" ">
<polygon fill="white" stroke="black" points="767.5,-134.5 767.5,-164.5 937.5,-164.5 937.5,-134.5 767.5,-134.5"/>
<text text-anchor="start" x="775.5" y="-152.5" font-family="Helvetica,sans-Serif" font-size="10.00">itkSegmentationLevelSetImage</text>
<text text-anchor="middle" x="852.5" y="-141.5" font-family="Helvetica,sans-Serif" font-size="10.00">Filter.h</text>
</a>
</g>
</g>
<!-- Node1&#45;&gt;Node5 -->
<g id="edge4" class="edge">
<title>Node1&#45;&gt;Node5</title>
<path fill="none" stroke="midnightblue" d="M791.64,-195.45C805.18,-185.45 821.23,-173.6 833.44,-164.58"/>
<polygon fill="midnightblue" stroke="midnightblue" points="789.56,-192.64 783.59,-201.4 793.72,-198.27 789.56,-192.64"/>
</g>
<!-- Node15 -->
<g id="node15" class="node">
<title>Node15</title>
<g id="a_node15"><a xlink:href="itkSparseFieldFourthOrderLevelSetImageFilter_8h.html" target="_top" xlink:title=" ">
<polygon fill="white" stroke="black" points="1636,-134.5 1636,-164.5 1779,-164.5 1779,-134.5 1636,-134.5"/>
<text text-anchor="start" x="1644" y="-152.5" font-family="Helvetica,sans-Serif" font-size="10.00">itkSparseFieldFourthOrder</text>
<text text-anchor="middle" x="1707.5" y="-141.5" font-family="Helvetica,sans-Serif" font-size="10.00">LevelSetImageFilter.h</text>
</a>
</g>
</g>
<!-- Node1&#45;&gt;Node15 -->
<g id="edge14" class="edge">
<title>Node1&#45;&gt;Node15</title>
<path fill="none" stroke="midnightblue" d="M853.71,-209.35C1039.79,-196.52 1466.12,-167.14 1635.86,-155.44"/>
<polygon fill="midnightblue" stroke="midnightblue" points="853.42,-205.86 843.68,-210.04 853.9,-212.85 853.42,-205.86"/>
</g>
<!-- Node4 -->
<g id="node4" class="node">
<title>Node4</title>
<g id="a_node4"><a xlink:href="itkScalarChanAndVeseSparseLevelSetImageFilter_8h.html" target="_top" xlink:title=" ">
<polygon fill="white" stroke="black" points="0,-67.5 0,-97.5 159,-97.5 159,-67.5 0,-67.5"/>
<text text-anchor="start" x="8" y="-85.5" font-family="Helvetica,sans-Serif" font-size="10.00">itkScalarChanAndVeseSparse</text>
<text text-anchor="middle" x="79.5" y="-74.5" font-family="Helvetica,sans-Serif" font-size="10.00">LevelSetImageFilter.h</text>
</a>
</g>
</g>
<!-- Node3&#45;&gt;Node4 -->
<g id="edge3" class="edge">
<title>Node3&#45;&gt;Node4</title>
<path fill="none" stroke="midnightblue" d="M595.5,-133.96C405.06,-109.53 354.13,-121.17 167.5,-98 164.73,-97.66 161.92,-97.29 159.08,-96.9"/>
<polygon fill="midnightblue" stroke="midnightblue" points="595.2,-137.45 605.57,-135.26 596.1,-130.5 595.2,-137.45"/>
</g>
<!-- Node6 -->
<g id="node6" class="node">
<title>Node6</title>
<g id="a_node6"><a xlink:href="itkCannySegmentationLevelSetImageFilter_8h.html" target="_top" xlink:title=" ">
<polygon fill="white" stroke="black" points="177,-67.5 177,-97.5 332,-97.5 332,-67.5 177,-67.5"/>
<text text-anchor="start" x="185" y="-85.5" font-family="Helvetica,sans-Serif" font-size="10.00">itkCannySegmentationLevel</text>
<text text-anchor="middle" x="254.5" y="-74.5" font-family="Helvetica,sans-Serif" font-size="10.00">SetImageFilter.h</text>
</a>
</g>
</g>
<!-- Node5&#45;&gt;Node6 -->
<g id="edge5" class="edge">
<title>Node5&#45;&gt;Node6</title>
<path fill="none" stroke="midnightblue" d="M757.22,-134.03C571.07,-112.28 521.79,-121.07 340.5,-98 337.8,-97.66 335.05,-97.29 332.27,-96.9"/>
<polygon fill="midnightblue" stroke="midnightblue" points="757,-137.53 767.34,-135.23 757.82,-130.58 757,-137.53"/>
</g>
<!-- Node7 -->
<g id="node7" class="node">
<title>Node7</title>
<g id="a_node7"><a xlink:href="itkCurvesLevelSetImageFilter_8h.html" target="_top" xlink:title=" ">
<polygon fill="white" stroke="black" points="350,-73 350,-92 519,-92 519,-73 350,-73"/>
<text text-anchor="middle" x="434.5" y="-80" font-family="Helvetica,sans-Serif" font-size="10.00">itkCurvesLevelSetImageFilter.h</text>
</a>
</g>
</g>
<!-- Node5&#45;&gt;Node7 -->
<g id="edge6" class="edge">
<title>Node5&#45;&gt;Node7</title>
<path fill="none" stroke="midnightblue" d="M757.11,-133.69C692.34,-123.63 604.75,-110.02 527.5,-98 515.07,-96.06 501.7,-93.98 489.08,-92.02"/>
<polygon fill="midnightblue" stroke="midnightblue" points="756.89,-137.2 767.3,-135.27 757.96,-130.28 756.89,-137.2"/>
</g>
<!-- Node8 -->
<g id="node8" class="node">
<title>Node8</title>
<g id="a_node8"><a xlink:href="itkGeodesicActiveContourLevelSetImageFilter_8h.html" target="_top" xlink:title=" ">
<polygon fill="white" stroke="black" points="537,-67.5 537,-97.5 680,-97.5 680,-67.5 537,-67.5"/>
<text text-anchor="start" x="545" y="-85.5" font-family="Helvetica,sans-Serif" font-size="10.00">itkGeodesicActiveContour</text>
<text text-anchor="middle" x="608.5" y="-74.5" font-family="Helvetica,sans-Serif" font-size="10.00">LevelSetImageFilter.h</text>
</a>
</g>
</g>
<!-- Node5&#45;&gt;Node8 -->
<g id="edge7" class="edge">
<title>Node5&#45;&gt;Node8</title>
<path fill="none" stroke="midnightblue" d="M790,-131.85C750.22,-121.25 699.26,-107.68 661.47,-97.61"/>
<polygon fill="midnightblue" stroke="midnightblue" points="789.29,-135.28 799.86,-134.48 791.09,-128.52 789.29,-135.28"/>
</g>
<!-- Node9 -->
<g id="node9" class="node">
<title>Node9</title>
<g id="a_node9"><a xlink:href="itkLaplacianSegmentationLevelSetImageFilter_8h.html" target="_top" xlink:title=" ">
<polygon fill="white" stroke="black" points="698.5,-67.5 698.5,-97.5 842.5,-97.5 842.5,-67.5 698.5,-67.5"/>
<text text-anchor="start" x="706.5" y="-85.5" font-family="Helvetica,sans-Serif" font-size="10.00">itkLaplacianSegmentation</text>
<text text-anchor="middle" x="770.5" y="-74.5" font-family="Helvetica,sans-Serif" font-size="10.00">LevelSetImageFilter.h</text>
</a>
</g>
</g>
<!-- Node5&#45;&gt;Node9 -->
<g id="edge8" class="edge">
<title>Node5&#45;&gt;Node9</title>
<path fill="none" stroke="midnightblue" d="M826.85,-128.17C814.31,-118.23 799.53,-106.51 788.26,-97.58"/>
<polygon fill="midnightblue" stroke="midnightblue" points="824.7,-130.93 834.71,-134.4 829.04,-125.44 824.7,-130.93"/>
</g>
<!-- Node10 -->
<g id="node10" class="node">
<title>Node10</title>
<g id="a_node10"><a xlink:href="itkShapeDetectionLevelSetImageFilter_8h.html" target="_top" xlink:title=" ">
<polygon fill="white" stroke="black" points="861,-67.5 861,-97.5 1010,-97.5 1010,-67.5 861,-67.5"/>
<text text-anchor="start" x="869" y="-85.5" font-family="Helvetica,sans-Serif" font-size="10.00">itkShapeDetectionLevelSet</text>
<text text-anchor="middle" x="935.5" y="-74.5" font-family="Helvetica,sans-Serif" font-size="10.00">ImageFilter.h</text>
</a>
</g>
</g>
<!-- Node5&#45;&gt;Node10 -->
<g id="edge9" class="edge">
<title>Node5&#45;&gt;Node10</title>
<path fill="none" stroke="midnightblue" d="M878.46,-128.17C891.15,-118.23 906.11,-106.51 917.53,-97.58"/>
<polygon fill="midnightblue" stroke="midnightblue" points="876.22,-125.47 870.51,-134.4 880.54,-130.99 876.22,-125.47"/>
</g>
<!-- Node11 -->
<g id="node11" class="node">
<title>Node11</title>
<g id="a_node11"><a xlink:href="itkShapePriorSegmentationLevelSetImageFilter_8h.html" target="_top" xlink:title=" ">
<polygon fill="white" stroke="black" points="1027.5,-67.5 1027.5,-97.5 1177.5,-97.5 1177.5,-67.5 1027.5,-67.5"/>
<text text-anchor="start" x="1035.5" y="-85.5" font-family="Helvetica,sans-Serif" font-size="10.00">itkShapePriorSegmentation</text>
<text text-anchor="middle" x="1102.5" y="-74.5" font-family="Helvetica,sans-Serif" font-size="10.00">LevelSetImageFilter.h</text>
</a>
</g>
</g>
<!-- Node5&#45;&gt;Node11 -->
<g id="edge10" class="edge">
<title>Node5&#45;&gt;Node11</title>
<path fill="none" stroke="midnightblue" d="M916.28,-131.92C957.08,-121.31 1009.43,-107.7 1048.23,-97.61"/>
<polygon fill="midnightblue" stroke="midnightblue" points="915.24,-128.57 906.44,-134.48 917,-135.35 915.24,-128.57"/>
</g>
<!-- Node13 -->
<g id="node13" class="node">
<title>Node13</title>
<g id="a_node13"><a xlink:href="itkThresholdSegmentationLevelSetImageFilter_8h.html" target="_top" xlink:title=" ">
<polygon fill="white" stroke="black" points="1195.5,-67.5 1195.5,-97.5 1341.5,-97.5 1341.5,-67.5 1195.5,-67.5"/>
<text text-anchor="start" x="1203.5" y="-85.5" font-family="Helvetica,sans-Serif" font-size="10.00">itkThresholdSegmentation</text>
<text text-anchor="middle" x="1268.5" y="-74.5" font-family="Helvetica,sans-Serif" font-size="10.00">LevelSetImageFilter.h</text>
</a>
</g>
</g>
<!-- Node5&#45;&gt;Node13 -->
<g id="edge12" class="edge">
<title>Node5&#45;&gt;Node13</title>
<path fill="none" stroke="midnightblue" d="M947.8,-134.74C1014.67,-124.92 1106.13,-111.18 1186.5,-98 1189.35,-97.53 1192.26,-97.05 1195.2,-96.56"/>
<polygon fill="midnightblue" stroke="midnightblue" points="947.09,-131.3 937.71,-136.22 948.11,-138.23 947.09,-131.3"/>
</g>
<!-- Node14 -->
<g id="node14" class="node">
<title>Node14</title>
<g id="a_node14"><a xlink:href="itkVectorThresholdSegmentationLevelSetImageFilter_8h.html" target="_top" xlink:title=" ">
<polygon fill="white" stroke="black" points="1359.5,-67.5 1359.5,-97.5 1535.5,-97.5 1535.5,-67.5 1359.5,-67.5"/>
<text text-anchor="start" x="1367.5" y="-85.5" font-family="Helvetica,sans-Serif" font-size="10.00">itkVectorThresholdSegmentation</text>
<text text-anchor="middle" x="1447.5" y="-74.5" font-family="Helvetica,sans-Serif" font-size="10.00">LevelSetImageFilter.h</text>
</a>
</g>
</g>
<!-- Node5&#45;&gt;Node14 -->
<g id="edge13" class="edge">
<title>Node5&#45;&gt;Node14</title>
<path fill="none" stroke="midnightblue" d="M947.79,-140.19C1048.13,-131.12 1210.66,-115.53 1350.5,-98 1353.46,-97.63 1356.46,-97.24 1359.5,-96.84"/>
<polygon fill="midnightblue" stroke="midnightblue" points="947.32,-136.72 937.67,-141.1 947.95,-143.69 947.32,-136.72"/>
</g>
<!-- Node12 -->
<g id="node12" class="node">
<title>Node12</title>
<g id="a_node12"><a xlink:href="itkGeodesicActiveContourShapePriorLevelSetImageFilter_8h.html" target="_top" xlink:title=" ">
<polygon fill="white" stroke="black" points="1015,-0.5 1015,-30.5 1190,-30.5 1190,-0.5 1015,-0.5"/>
<text text-anchor="start" x="1023" y="-18.5" font-family="Helvetica,sans-Serif" font-size="10.00">itkGeodesicActiveContour</text>
<text text-anchor="middle" x="1102.5" y="-7.5" font-family="Helvetica,sans-Serif" font-size="10.00">ShapePriorLevelSetImageFilter.h</text>
</a>
</g>
</g>
<!-- Node11&#45;&gt;Node12 -->
<g id="edge11" class="edge">
<title>Node11&#45;&gt;Node12</title>
<path fill="none" stroke="midnightblue" d="M1102.5,-57.11C1102.5,-48.15 1102.5,-38.32 1102.5,-30.58"/>
<polygon fill="midnightblue" stroke="midnightblue" points="1099,-57.4 1102.5,-67.4 1106,-57.4 1099,-57.4"/>
</g>
<!-- Node16 -->
<g id="node16" class="node">
<title>Node16</title>
<g id="a_node16"><a xlink:href="itkAnisotropicFourthOrderLevelSetImageFilter_8h.html" target="_top" xlink:title=" ">
<polygon fill="white" stroke="black" points="1553.5,-67.5 1553.5,-97.5 1695.5,-97.5 1695.5,-67.5 1553.5,-67.5"/>
<text text-anchor="start" x="1561.5" y="-85.5" font-family="Helvetica,sans-Serif" font-size="10.00">itkAnisotropicFourthOrder</text>
<text text-anchor="middle" x="1624.5" y="-74.5" font-family="Helvetica,sans-Serif" font-size="10.00">LevelSetImageFilter.h</text>
</a>
</g>
</g>
<!-- Node15&#45;&gt;Node16 -->
<g id="edge15" class="edge">
<title>Node15&#45;&gt;Node16</title>
<path fill="none" stroke="midnightblue" d="M1681.54,-128.17C1668.85,-118.23 1653.89,-106.51 1642.47,-97.58"/>
<polygon fill="midnightblue" stroke="midnightblue" points="1679.46,-130.99 1689.49,-134.4 1683.78,-125.47 1679.46,-130.99"/>
</g>
<!-- Node17 -->
<g id="node17" class="node">
<title>Node17</title>
<g id="a_node17"><a xlink:href="itkIsotropicFourthOrderLevelSetImageFilter_8h.html" target="_top" xlink:title=" ">
<polygon fill="white" stroke="black" points="1714,-67.5 1714,-97.5 1869,-97.5 1869,-67.5 1714,-67.5"/>
<text text-anchor="start" x="1722" y="-85.5" font-family="Helvetica,sans-Serif" font-size="10.00">itkIsotropicFourthOrderLevel</text>
<text text-anchor="middle" x="1791.5" y="-74.5" font-family="Helvetica,sans-Serif" font-size="10.00">SetImageFilter.h</text>
</a>
</g>
</g>
<!-- Node15&#45;&gt;Node17 -->
<g id="edge16" class="edge">
<title>Node15&#45;&gt;Node17</title>
<path fill="none" stroke="midnightblue" d="M1733.78,-128.17C1746.62,-118.23 1761.76,-106.51 1773.31,-97.58"/>
<polygon fill="midnightblue" stroke="midnightblue" points="1731.49,-125.51 1725.73,-134.4 1735.78,-131.04 1731.49,-125.51"/>
</g>
<!-- Node18 -->
<g id="node18" class="node">
<title>Node18</title>
<g id="a_node18"><a xlink:href="itkUnsharpMaskLevelSetImageFilter_8h.html" target="_top" xlink:title=" ">
<polygon fill="white" stroke="black" points="1887,-67.5 1887,-97.5 2056,-97.5 2056,-67.5 1887,-67.5"/>
<text text-anchor="start" x="1895" y="-85.5" font-family="Helvetica,sans-Serif" font-size="10.00">itkUnsharpMaskLevelSetImage</text>
<text text-anchor="middle" x="1971.5" y="-74.5" font-family="Helvetica,sans-Serif" font-size="10.00">Filter.h</text>
</a>
</g>
</g>
<!-- Node15&#45;&gt;Node18 -->
<g id="edge17" class="edge">
<title>Node15&#45;&gt;Node18</title>
<path fill="none" stroke="midnightblue" d="M1774.31,-132.05C1817.47,-121.43 1873.04,-107.74 1914.19,-97.61"/>
<polygon fill="midnightblue" stroke="midnightblue" points="1773.33,-128.69 1764.46,-134.48 1775.01,-135.48 1773.33,-128.69"/>
</g>
</g>
</svg>
