<?xml version="1.0" encoding="UTF-8" standalone="no"?>
<!DOCTYPE svg PUBLIC "-//W3C//DTD SVG 1.1//EN"
 "http://www.w3.org/Graphics/SVG/1.1/DTD/svg11.dtd">
<!-- Generated by graphviz version 2.43.0 (0)
 -->
<!-- Title: itkSegmentationLevelSetImageFilter.h Pages: 1 -->
<svg width="1367pt" height="173pt"
 viewBox="0.00 0.00 1366.50 173.00" xmlns="http://www.w3.org/2000/svg" xmlns:xlink="http://www.w3.org/1999/xlink">
<g id="graph0" class="graph" transform="scale(1 1) rotate(0) translate(4 169)">
<title>itkSegmentationLevelSetImageFilter.h</title>
<polygon fill="white" stroke="transparent" points="-4,4 -4,-169 1362.5,-169 1362.5,4 -4,4"/>
<!-- Node1 -->
<g id="node1" class="node">
<title>Node1</title>
<g id="a_node1"><a xlink:title=" ">
<polygon fill="#bfbfbf" stroke="black" points="590.5,-134.5 590.5,-164.5 760.5,-164.5 760.5,-134.5 590.5,-134.5"/>
<text text-anchor="start" x="598.5" y="-152.5" font-family="Helvetica,sans-Serif" font-size="10.00">itkSegmentationLevelSetImage</text>
<text text-anchor="middle" x="675.5" y="-141.5" font-family="Helvetica,sans-Serif" font-size="10.00">Filter.h</text>
</a>
</g>
</g>
<!-- Node2 -->
<g id="node2" class="node">
<title>Node2</title>
<g id="a_node2"><a xlink:href="itkCannySegmentationLevelSetImageFilter_8h.html" target="_top" xlink:title=" ">
<polygon fill="white" stroke="black" points="0,-67.5 0,-97.5 155,-97.5 155,-67.5 0,-67.5"/>
<text text-anchor="start" x="8" y="-85.5" font-family="Helvetica,sans-Serif" font-size="10.00">itkCannySegmentationLevel</text>
<text text-anchor="middle" x="77.5" y="-74.5" font-family="Helvetica,sans-Serif" font-size="10.00">SetImageFilter.h</text>
</a>
</g>
</g>
<!-- Node1&#45;&gt;Node2 -->
<g id="edge1" class="edge">
<title>Node1&#45;&gt;Node2</title>
<path fill="none" stroke="midnightblue" d="M580.26,-141C477.47,-132.45 309.04,-117.17 164.5,-98 161.46,-97.6 158.37,-97.17 155.25,-96.72"/>
<polygon fill="midnightblue" stroke="midnightblue" points="580.05,-144.49 590.31,-141.83 580.63,-137.52 580.05,-144.49"/>
</g>
<!-- Node3 -->
<g id="node3" class="node">
<title>Node3</title>
<g id="a_node3"><a xlink:href="itkCurvesLevelSetImageFilter_8h.html" target="_top" xlink:title=" ">
<polygon fill="white" stroke="black" points="173,-73 173,-92 342,-92 342,-73 173,-73"/>
<text text-anchor="middle" x="257.5" y="-80" font-family="Helvetica,sans-Serif" font-size="10.00">itkCurvesLevelSetImageFilter.h</text>
</a>
</g>
</g>
<!-- Node1&#45;&gt;Node3 -->
<g id="edge2" class="edge">
<title>Node1&#45;&gt;Node3</title>
<path fill="none" stroke="midnightblue" d="M580.48,-133.72C497.6,-120.84 380.27,-102.59 312.21,-92.01"/>
<polygon fill="midnightblue" stroke="midnightblue" points="579.99,-137.19 590.41,-135.27 581.06,-130.27 579.99,-137.19"/>
</g>
<!-- Node4 -->
<g id="node4" class="node">
<title>Node4</title>
<g id="a_node4"><a xlink:href="itkGeodesicActiveContourLevelSetImageFilter_8h.html" target="_top" xlink:title=" ">
<polygon fill="white" stroke="black" points="360,-67.5 360,-97.5 503,-97.5 503,-67.5 360,-67.5"/>
<text text-anchor="start" x="368" y="-85.5" font-family="Helvetica,sans-Serif" font-size="10.00">itkGeodesicActiveContour</text>
<text text-anchor="middle" x="431.5" y="-74.5" font-family="Helvetica,sans-Serif" font-size="10.00">LevelSetImageFilter.h</text>
</a>
</g>
</g>
<!-- Node1&#45;&gt;Node4 -->
<g id="edge3" class="edge">
<title>Node1&#45;&gt;Node4</title>
<path fill="none" stroke="midnightblue" d="M613,-131.85C573.22,-121.25 522.26,-107.68 484.47,-97.61"/>
<polygon fill="midnightblue" stroke="midnightblue" points="612.29,-135.28 622.86,-134.48 614.09,-128.52 612.29,-135.28"/>
</g>
<!-- Node5 -->
<g id="node5" class="node">
<title>Node5</title>
<g id="a_node5"><a xlink:href="itkLaplacianSegmentationLevelSetImageFilter_8h.html" target="_top" xlink:title=" ">
<polygon fill="white" stroke="black" points="521.5,-67.5 521.5,-97.5 665.5,-97.5 665.5,-67.5 521.5,-67.5"/>
<text text-anchor="start" x="529.5" y="-85.5" font-family="Helvetica,sans-Serif" font-size="10.00">itkLaplacianSegmentation</text>
<text text-anchor="middle" x="593.5" y="-74.5" font-family="Helvetica,sans-Serif" font-size="10.00">LevelSetImageFilter.h</text>
</a>
</g>
</g>
<!-- Node1&#45;&gt;Node5 -->
<g id="edge4" class="edge">
<title>Node1&#45;&gt;Node5</title>
<path fill="none" stroke="midnightblue" d="M649.85,-128.17C637.31,-118.23 622.53,-106.51 611.26,-97.58"/>
<polygon fill="midnightblue" stroke="midnightblue" points="647.7,-130.93 657.71,-134.4 652.04,-125.44 647.7,-130.93"/>
</g>
<!-- Node6 -->
<g id="node6" class="node">
<title>Node6</title>
<g id="a_node6"><a xlink:href="itkShapeDetectionLevelSetImageFilter_8h.html" target="_top" xlink:title=" ">
<polygon fill="white" stroke="black" points="684,-67.5 684,-97.5 833,-97.5 833,-67.5 684,-67.5"/>
<text text-anchor="start" x="692" y="-85.5" font-family="Helvetica,sans-Serif" font-size="10.00">itkShapeDetectionLevelSet</text>
<text text-anchor="middle" x="758.5" y="-74.5" font-family="Helvetica,sans-Serif" font-size="10.00">ImageFilter.h</text>
</a>
</g>
</g>
<!-- Node1&#45;&gt;Node6 -->
<g id="edge5" class="edge">
<title>Node1&#45;&gt;Node6</title>
<path fill="none" stroke="midnightblue" d="M701.46,-128.17C714.15,-118.23 729.11,-106.51 740.53,-97.58"/>
<polygon fill="midnightblue" stroke="midnightblue" points="699.22,-125.47 693.51,-134.4 703.54,-130.99 699.22,-125.47"/>
</g>
<!-- Node7 -->
<g id="node7" class="node">
<title>Node7</title>
<g id="a_node7"><a xlink:href="itkShapePriorSegmentationLevelSetImageFilter_8h.html" target="_top" xlink:title=" ">
<polygon fill="white" stroke="black" points="850.5,-67.5 850.5,-97.5 1000.5,-97.5 1000.5,-67.5 850.5,-67.5"/>
<text text-anchor="start" x="858.5" y="-85.5" font-family="Helvetica,sans-Serif" font-size="10.00">itkShapePriorSegmentation</text>
<text text-anchor="middle" x="925.5" y="-74.5" font-family="Helvetica,sans-Serif" font-size="10.00">LevelSetImageFilter.h</text>
</a>
</g>
</g>
<!-- Node1&#45;&gt;Node7 -->
<g id="edge6" class="edge">
<title>Node1&#45;&gt;Node7</title>
<path fill="none" stroke="midnightblue" d="M739.28,-131.92C780.08,-121.31 832.43,-107.7 871.23,-97.61"/>
<polygon fill="midnightblue" stroke="midnightblue" points="738.24,-128.57 729.44,-134.48 740,-135.35 738.24,-128.57"/>
</g>
<!-- Node9 -->
<g id="node9" class="node">
<title>Node9</title>
<g id="a_node9"><a xlink:href="itkThresholdSegmentationLevelSetImageFilter_8h.html" target="_top" xlink:title=" ">
<polygon fill="white" stroke="black" points="1018.5,-67.5 1018.5,-97.5 1164.5,-97.5 1164.5,-67.5 1018.5,-67.5"/>
<text text-anchor="start" x="1026.5" y="-85.5" font-family="Helvetica,sans-Serif" font-size="10.00">itkThresholdSegmentation</text>
<text text-anchor="middle" x="1091.5" y="-74.5" font-family="Helvetica,sans-Serif" font-size="10.00">LevelSetImageFilter.h</text>
</a>
</g>
</g>
<!-- Node1&#45;&gt;Node9 -->
<g id="edge8" class="edge">
<title>Node1&#45;&gt;Node9</title>
<path fill="none" stroke="midnightblue" d="M770.8,-134.74C837.67,-124.92 929.13,-111.18 1009.5,-98 1012.35,-97.53 1015.26,-97.05 1018.2,-96.56"/>
<polygon fill="midnightblue" stroke="midnightblue" points="770.09,-131.3 760.71,-136.22 771.11,-138.23 770.09,-131.3"/>
</g>
<!-- Node10 -->
<g id="node10" class="node">
<title>Node10</title>
<g id="a_node10"><a xlink:href="itkVectorThresholdSegmentationLevelSetImageFilter_8h.html" target="_top" xlink:title=" ">
<polygon fill="white" stroke="black" points="1182.5,-67.5 1182.5,-97.5 1358.5,-97.5 1358.5,-67.5 1182.5,-67.5"/>
<text text-anchor="start" x="1190.5" y="-85.5" font-family="Helvetica,sans-Serif" font-size="10.00">itkVectorThresholdSegmentation</text>
<text text-anchor="middle" x="1270.5" y="-74.5" font-family="Helvetica,sans-Serif" font-size="10.00">LevelSetImageFilter.h</text>
</a>
</g>
</g>
<!-- Node1&#45;&gt;Node10 -->
<g id="edge9" class="edge">
<title>Node1&#45;&gt;Node10</title>
<path fill="none" stroke="midnightblue" d="M770.79,-140.19C871.13,-131.12 1033.66,-115.53 1173.5,-98 1176.46,-97.63 1179.46,-97.24 1182.5,-96.84"/>
<polygon fill="midnightblue" stroke="midnightblue" points="770.32,-136.72 760.67,-141.1 770.95,-143.69 770.32,-136.72"/>
</g>
<!-- Node8 -->
<g id="node8" class="node">
<title>Node8</title>
<g id="a_node8"><a xlink:href="itkGeodesicActiveContourShapePriorLevelSetImageFilter_8h.html" target="_top" xlink:title=" ">
<polygon fill="white" stroke="black" points="838,-0.5 838,-30.5 1013,-30.5 1013,-0.5 838,-0.5"/>
<text text-anchor="start" x="846" y="-18.5" font-family="Helvetica,sans-Serif" font-size="10.00">itkGeodesicActiveContour</text>
<text text-anchor="middle" x="925.5" y="-7.5" font-family="Helvetica,sans-Serif" font-size="10.00">ShapePriorLevelSetImageFilter.h</text>
</a>
</g>
</g>
<!-- Node7&#45;&gt;Node8 -->
<g id="edge7" class="edge">
<title>Node7&#45;&gt;Node8</title>
<path fill="none" stroke="midnightblue" d="M925.5,-57.11C925.5,-48.15 925.5,-38.32 925.5,-30.58"/>
<polygon fill="midnightblue" stroke="midnightblue" points="922,-57.4 925.5,-67.4 929,-57.4 922,-57.4"/>
</g>
</g>
</svg>
