<?xml version="1.0" encoding="UTF-8" standalone="no"?>
<!DOCTYPE svg PUBLIC "-//W3C//DTD SVG 1.1//EN"
 "http://www.w3.org/Graphics/SVG/1.1/DTD/svg11.dtd">
<!-- Generated by graphviz version 2.43.0 (0)
 -->
<!-- Title: itkStdStreamLogOutput.h Pages: 1 -->
<svg width="916pt" height="644pt"
 viewBox="0.00 0.00 916.00 644.00" xmlns="http://www.w3.org/2000/svg" xmlns:xlink="http://www.w3.org/1999/xlink">
<g id="graph0" class="graph" transform="scale(1 1) rotate(0) translate(4 640)">
<title>itkStdStreamLogOutput.h</title>
<polygon fill="white" stroke="transparent" points="-4,4 -4,-640 912,-640 912,4 -4,4"/>
<!-- Node1 -->
<g id="node1" class="node">
<title>Node1</title>
<g id="a_node1"><a xlink:title=" ">
<polygon fill="#bfbfbf" stroke="black" points="743,-616.5 743,-635.5 883,-635.5 883,-616.5 743,-616.5"/>
<text text-anchor="middle" x="813" y="-623.5" font-family="Helvetica,sans-Serif" font-size="10.00">itkStdStreamLogOutput.h</text>
</a>
</g>
</g>
<!-- Node2 -->
<g id="node2" class="node">
<title>Node2</title>
<g id="a_node2"><a xlink:title=" ">
<polygon fill="white" stroke="#bfbfbf" points="685,-56.5 685,-75.5 745,-75.5 745,-56.5 685,-56.5"/>
<text text-anchor="middle" x="715" y="-63.5" font-family="Helvetica,sans-Serif" font-size="10.00">iostream</text>
</a>
</g>
</g>
<!-- Node1&#45;&gt;Node2 -->
<g id="edge1" class="edge">
<title>Node1&#45;&gt;Node2</title>
<path fill="none" stroke="midnightblue" d="M811.58,-616.18C809.73,-603.68 806.87,-580.11 808,-560 813.34,-464.88 832,-442.27 832,-347 832,-347 832,-347 832,-177 832,-129.6 780.4,-96.64 745.73,-79.85"/>
<polygon fill="midnightblue" stroke="midnightblue" points="747,-76.58 736.46,-75.54 744.05,-82.93 747,-76.58"/>
</g>
<!-- Node3 -->
<g id="node3" class="node">
<title>Node3</title>
<g id="a_node3"><a xlink:title=" ">
<polygon fill="white" stroke="#bfbfbf" points="760,-224.5 760,-243.5 804,-243.5 804,-224.5 760,-224.5"/>
<text text-anchor="middle" x="782" y="-231.5" font-family="Helvetica,sans-Serif" font-size="10.00">string</text>
</a>
</g>
</g>
<!-- Node1&#45;&gt;Node3 -->
<g id="edge2" class="edge">
<title>Node1&#45;&gt;Node3</title>
<path fill="none" stroke="midnightblue" d="M812.33,-616.17C811.38,-603.66 809.58,-580.08 808,-560 798.86,-443.5 787.55,-303.54 783.52,-253.72"/>
<polygon fill="midnightblue" stroke="midnightblue" points="786.99,-253.22 782.69,-243.54 780.01,-253.79 786.99,-253.22"/>
</g>
<!-- Node4 -->
<g id="node4" class="node">
<title>Node4</title>
<g id="a_node4"><a xlink:title=" ">
<polygon fill="white" stroke="#bfbfbf" points="860,-560.5 860,-579.5 908,-579.5 908,-560.5 860,-560.5"/>
<text text-anchor="middle" x="884" y="-567.5" font-family="Helvetica,sans-Serif" font-size="10.00">mutex</text>
</a>
</g>
</g>
<!-- Node1&#45;&gt;Node4 -->
<g id="edge3" class="edge">
<title>Node1&#45;&gt;Node4</title>
<path fill="none" stroke="midnightblue" d="M824.41,-616.32C835.11,-608.18 851.34,-595.84 864.16,-586.09"/>
<polygon fill="midnightblue" stroke="midnightblue" points="866.54,-588.67 872.39,-579.83 862.31,-583.1 866.54,-588.67"/>
</g>
<!-- Node5 -->
<g id="node5" class="node">
<title>Node5</title>
<g id="a_node5"><a xlink:href="itkLogOutput_8h.html" target="_top" xlink:title=" ">
<polygon fill="white" stroke="black" points="514.5,-560.5 514.5,-579.5 603.5,-579.5 603.5,-560.5 514.5,-560.5"/>
<text text-anchor="middle" x="559" y="-567.5" font-family="Helvetica,sans-Serif" font-size="10.00">itkLogOutput.h</text>
</a>
</g>
</g>
<!-- Node1&#45;&gt;Node5 -->
<g id="edge4" class="edge">
<title>Node1&#45;&gt;Node5</title>
<path fill="none" stroke="midnightblue" d="M772.75,-616.44C728.35,-607 656.85,-591.8 608.91,-581.61"/>
<polygon fill="midnightblue" stroke="midnightblue" points="609.57,-578.17 599.06,-579.52 608.11,-585.02 609.57,-578.17"/>
</g>
<!-- Node5&#45;&gt;Node3 -->
<g id="edge55" class="edge">
<title>Node5&#45;&gt;Node3</title>
<path fill="none" stroke="midnightblue" d="M603.7,-563.85C661.83,-554.38 756,-528.33 756,-459 756,-459 756,-459 756,-345 756,-311.93 767.27,-274.73 774.97,-253.17"/>
<polygon fill="midnightblue" stroke="midnightblue" points="778.29,-254.27 778.49,-243.68 771.73,-251.83 778.29,-254.27"/>
</g>
<!-- Node6 -->
<g id="node6" class="node">
<title>Node6</title>
<g id="a_node6"><a xlink:href="itkMacro_8h.html" target="_top" xlink:title=" ">
<polygon fill="white" stroke="black" points="316,-0.5 316,-19.5 384,-19.5 384,-0.5 316,-0.5"/>
<text text-anchor="middle" x="350" y="-7.5" font-family="Helvetica,sans-Serif" font-size="10.00">itkMacro.h</text>
</a>
</g>
</g>
<!-- Node5&#45;&gt;Node6 -->
<g id="edge5" class="edge">
<title>Node5&#45;&gt;Node6</title>
<path fill="none" stroke="midnightblue" d="M514.48,-567.78C399.03,-563.41 99,-543.88 99,-459 99,-459 99,-459 99,-289 99,-183.36 71.98,-131.37 146,-56 167.86,-33.74 252.46,-21.08 305.61,-15.16"/>
<polygon fill="midnightblue" stroke="midnightblue" points="306.22,-18.62 315.79,-14.07 305.48,-11.66 306.22,-18.62"/>
</g>
<!-- Node7 -->
<g id="node7" class="node">
<title>Node7</title>
<g id="a_node7"><a xlink:href="itkObject_8h.html" target="_top" xlink:title=" ">
<polygon fill="white" stroke="black" points="464,-336.5 464,-355.5 534,-355.5 534,-336.5 464,-336.5"/>
<text text-anchor="middle" x="499" y="-343.5" font-family="Helvetica,sans-Serif" font-size="10.00">itkObject.h</text>
</a>
</g>
</g>
<!-- Node5&#45;&gt;Node7 -->
<g id="edge6" class="edge">
<title>Node5&#45;&gt;Node7</title>
<path fill="none" stroke="midnightblue" d="M559.89,-560.41C562.27,-533.92 566.89,-451.75 540,-392 534.94,-380.75 525.97,-370.41 517.71,-362.48"/>
<polygon fill="midnightblue" stroke="midnightblue" points="519.93,-359.77 510.16,-355.67 515.24,-364.97 519.93,-359.77"/>
</g>
<!-- Node29 -->
<g id="node29" class="node">
<title>Node29</title>
<g id="a_node29"><a xlink:href="itkObjectFactory_8h.html" target="_top" xlink:title=" ">
<polygon fill="white" stroke="black" points="364,-504.5 364,-523.5 468,-523.5 468,-504.5 364,-504.5"/>
<text text-anchor="middle" x="416" y="-511.5" font-family="Helvetica,sans-Serif" font-size="10.00">itkObjectFactory.h</text>
</a>
</g>
</g>
<!-- Node5&#45;&gt;Node29 -->
<g id="edge44" class="edge">
<title>Node5&#45;&gt;Node29</title>
<path fill="none" stroke="midnightblue" d="M536.34,-560.44C512.6,-551.48 475.09,-537.31 448.26,-527.18"/>
<polygon fill="midnightblue" stroke="midnightblue" points="449.14,-523.77 438.55,-523.52 446.67,-530.32 449.14,-523.77"/>
</g>
<!-- Node8 -->
<g id="node8" class="node">
<title>Node8</title>
<g id="a_node8"><a xlink:href="itkLightObject_8h.html" target="_top" xlink:title=" ">
<polygon fill="white" stroke="black" points="372,-168.5 372,-187.5 466,-187.5 466,-168.5 372,-168.5"/>
<text text-anchor="middle" x="419" y="-175.5" font-family="Helvetica,sans-Serif" font-size="10.00">itkLightObject.h</text>
</a>
</g>
</g>
<!-- Node7&#45;&gt;Node8 -->
<g id="edge7" class="edge">
<title>Node7&#45;&gt;Node8</title>
<path fill="none" stroke="midnightblue" d="M490.01,-336.49C474.89,-322.64 442.88,-295.23 411,-280 353.81,-252.68 311.75,-294.16 273,-244 245.81,-208.8 309.92,-192.2 361.66,-184.7"/>
<polygon fill="midnightblue" stroke="midnightblue" points="362.37,-188.14 371.81,-183.32 361.43,-181.2 362.37,-188.14"/>
</g>
<!-- Node18 -->
<g id="node18" class="node">
<title>Node18</title>
<g id="a_node18"><a xlink:href="itkSingletonMacro_8h.html" target="_top" xlink:title=" ">
<polygon fill="white" stroke="black" points="155,-56.5 155,-75.5 269,-75.5 269,-56.5 155,-56.5"/>
<text text-anchor="middle" x="212" y="-63.5" font-family="Helvetica,sans-Serif" font-size="10.00">itkSingletonMacro.h</text>
</a>
</g>
</g>
<!-- Node7&#45;&gt;Node18 -->
<g id="edge41" class="edge">
<title>Node7&#45;&gt;Node18</title>
<path fill="none" stroke="midnightblue" d="M463.93,-339.15C387.56,-325.41 213,-288.2 213,-235 213,-235 213,-235 213,-177 213,-144.95 212.57,-107.64 212.27,-85.75"/>
<polygon fill="midnightblue" stroke="midnightblue" points="215.77,-85.51 212.13,-75.56 208.77,-85.61 215.77,-85.51"/>
</g>
<!-- Node21 -->
<g id="node21" class="node">
<title>Node21</title>
<g id="a_node21"><a xlink:href="itkEventObject_8h.html" target="_top" xlink:title=" ">
<polygon fill="white" stroke="black" points="703,-168.5 703,-187.5 801,-187.5 801,-168.5 703,-168.5"/>
<text text-anchor="middle" x="752" y="-175.5" font-family="Helvetica,sans-Serif" font-size="10.00">itkEventObject.h</text>
</a>
</g>
</g>
<!-- Node7&#45;&gt;Node21 -->
<g id="edge28" class="edge">
<title>Node7&#45;&gt;Node21</title>
<path fill="none" stroke="midnightblue" d="M534.21,-337.53C563.81,-330.4 606.66,-318.05 641,-300 676.88,-281.14 686.11,-274.34 713,-244 725.66,-229.72 736.49,-210.75 743.5,-197"/>
<polygon fill="midnightblue" stroke="midnightblue" points="746.82,-198.18 748.09,-187.66 740.54,-195.09 746.82,-198.18"/>
</g>
<!-- Node22 -->
<g id="node22" class="node">
<title>Node22</title>
<g id="a_node22"><a xlink:href="itkMetaDataDictionary_8h.html" target="_top" xlink:title=" ">
<polygon fill="white" stroke="black" points="472.5,-280.5 472.5,-299.5 607.5,-299.5 607.5,-280.5 472.5,-280.5"/>
<text text-anchor="middle" x="540" y="-287.5" font-family="Helvetica,sans-Serif" font-size="10.00">itkMetaDataDictionary.h</text>
</a>
</g>
</g>
<!-- Node7&#45;&gt;Node22 -->
<g id="edge31" class="edge">
<title>Node7&#45;&gt;Node22</title>
<path fill="none" stroke="midnightblue" d="M505.77,-336.08C511.56,-328.46 520.06,-317.26 527.14,-307.94"/>
<polygon fill="midnightblue" stroke="midnightblue" points="530.1,-309.83 533.36,-299.75 524.52,-305.6 530.1,-309.83"/>
</g>
<!-- Node27 -->
<g id="node27" class="node">
<title>Node27</title>
<g id="a_node27"><a xlink:title=" ">
<polygon fill="white" stroke="#bfbfbf" points="646,-224.5 646,-243.5 704,-243.5 704,-224.5 646,-224.5"/>
<text text-anchor="middle" x="675" y="-231.5" font-family="Helvetica,sans-Serif" font-size="10.00">memory</text>
</a>
</g>
</g>
<!-- Node7&#45;&gt;Node27 -->
<g id="edge43" class="edge">
<title>Node7&#45;&gt;Node27</title>
<path fill="none" stroke="midnightblue" d="M533.89,-336.46C558.57,-329.33 591.63,-317.48 617,-300 635.8,-287.05 652.59,-266.77 663.21,-252.31"/>
<polygon fill="midnightblue" stroke="midnightblue" points="666.33,-253.97 669.26,-243.79 660.62,-249.92 666.33,-253.97"/>
</g>
<!-- Node28 -->
<g id="node28" class="node">
<title>Node28</title>
<g id="a_node28"><a xlink:title=" ">
<polygon fill="white" stroke="#bfbfbf" points="337.5,-280.5 337.5,-299.5 402.5,-299.5 402.5,-280.5 337.5,-280.5"/>
<text text-anchor="middle" x="370" y="-287.5" font-family="Helvetica,sans-Serif" font-size="10.00">functional</text>
</a>
</g>
</g>
<!-- Node7&#45;&gt;Node28 -->
<g id="edge42" class="edge">
<title>Node7&#45;&gt;Node28</title>
<path fill="none" stroke="midnightblue" d="M478.56,-336.44C457.33,-327.56 423.9,-313.56 399.75,-303.45"/>
<polygon fill="midnightblue" stroke="midnightblue" points="400.92,-300.15 390.34,-299.52 398.22,-306.61 400.92,-300.15"/>
</g>
<!-- Node8&#45;&gt;Node2 -->
<g id="edge26" class="edge">
<title>Node8&#45;&gt;Node2</title>
<path fill="none" stroke="midnightblue" d="M445.28,-168.43C470.44,-159.99 509.29,-146.31 542,-132 559.85,-124.19 563.05,-119.57 581,-112 612.18,-98.86 648.65,-86.82 675.66,-78.51"/>
<polygon fill="midnightblue" stroke="midnightblue" points="676.97,-81.77 685.52,-75.51 674.93,-75.07 676.97,-81.77"/>
</g>
<!-- Node8&#45;&gt;Node6 -->
<g id="edge8" class="edge">
<title>Node8&#45;&gt;Node6</title>
<path fill="none" stroke="midnightblue" d="M417.63,-168.39C414.14,-148 403.78,-95.5 384,-56 378.86,-45.73 371.29,-35.43 364.6,-27.28"/>
<polygon fill="midnightblue" stroke="midnightblue" points="367.24,-24.98 358.09,-19.65 361.92,-29.53 367.24,-24.98"/>
</g>
<!-- Node9 -->
<g id="node9" class="node">
<title>Node9</title>
<g id="a_node9"><a xlink:href="itkSmartPointer_8h.html" target="_top" xlink:title=" ">
<polygon fill="white" stroke="black" points="431.5,-112.5 431.5,-131.5 532.5,-131.5 532.5,-112.5 431.5,-112.5"/>
<text text-anchor="middle" x="482" y="-119.5" font-family="Helvetica,sans-Serif" font-size="10.00">itkSmartPointer.h</text>
</a>
</g>
</g>
<!-- Node8&#45;&gt;Node9 -->
<g id="edge9" class="edge">
<title>Node8&#45;&gt;Node9</title>
<path fill="none" stroke="midnightblue" d="M429.12,-168.32C438.53,-160.26 452.74,-148.08 464.07,-138.37"/>
<polygon fill="midnightblue" stroke="midnightblue" points="466.38,-141 471.69,-131.83 461.82,-135.68 466.38,-141"/>
</g>
<!-- Node13 -->
<g id="node13" class="node">
<title>Node13</title>
<g id="a_node13"><a xlink:href="itkTimeStamp_8h.html" target="_top" xlink:title=" ">
<polygon fill="white" stroke="black" points="241.5,-112.5 241.5,-131.5 336.5,-131.5 336.5,-112.5 241.5,-112.5"/>
<text text-anchor="middle" x="289" y="-119.5" font-family="Helvetica,sans-Serif" font-size="10.00">itkTimeStamp.h</text>
</a>
</g>
</g>
<!-- Node8&#45;&gt;Node13 -->
<g id="edge14" class="edge">
<title>Node8&#45;&gt;Node13</title>
<path fill="none" stroke="midnightblue" d="M398.4,-168.44C377.01,-159.56 343.32,-145.56 318.98,-135.45"/>
<polygon fill="midnightblue" stroke="midnightblue" points="320.08,-132.12 309.5,-131.52 317.39,-138.58 320.08,-132.12"/>
</g>
<!-- Node17 -->
<g id="node17" class="node">
<title>Node17</title>
<g id="a_node17"><a xlink:title=" ">
<polygon fill="white" stroke="#bfbfbf" points="325,-56.5 325,-75.5 375,-75.5 375,-56.5 325,-56.5"/>
<text text-anchor="middle" x="350" y="-63.5" font-family="Helvetica,sans-Serif" font-size="10.00">atomic</text>
</a>
</g>
</g>
<!-- Node8&#45;&gt;Node17 -->
<g id="edge25" class="edge">
<title>Node8&#45;&gt;Node17</title>
<path fill="none" stroke="midnightblue" d="M413.13,-168.45C406.99,-159.46 397.13,-144.85 389,-132 379.02,-116.23 368.12,-97.98 360.39,-84.84"/>
<polygon fill="midnightblue" stroke="midnightblue" points="363.24,-82.77 355.17,-75.91 357.2,-86.31 363.24,-82.77"/>
</g>
<!-- Node19 -->
<g id="node19" class="node">
<title>Node19</title>
<g id="a_node19"><a xlink:href="itkIndent_8h.html" target="_top" xlink:title=" ">
<polygon fill="white" stroke="black" points="710.5,-112.5 710.5,-131.5 779.5,-131.5 779.5,-112.5 710.5,-112.5"/>
<text text-anchor="middle" x="745" y="-119.5" font-family="Helvetica,sans-Serif" font-size="10.00">itkIndent.h</text>
</a>
</g>
</g>
<!-- Node8&#45;&gt;Node19 -->
<g id="edge22" class="edge">
<title>Node8&#45;&gt;Node19</title>
<path fill="none" stroke="midnightblue" d="M466.06,-169.21C528.73,-158.82 638.82,-140.59 700.28,-130.41"/>
<polygon fill="midnightblue" stroke="midnightblue" points="701.15,-133.81 710.44,-128.72 700.01,-126.91 701.15,-133.81"/>
</g>
<!-- Node20 -->
<g id="node20" class="node">
<title>Node20</title>
<g id="a_node20"><a xlink:title=" ">
<polygon fill="white" stroke="#bfbfbf" points="589.5,-112.5 589.5,-131.5 646.5,-131.5 646.5,-112.5 589.5,-112.5"/>
<text text-anchor="middle" x="618" y="-119.5" font-family="Helvetica,sans-Serif" font-size="10.00">typeinfo</text>
</a>
</g>
</g>
<!-- Node8&#45;&gt;Node20 -->
<g id="edge27" class="edge">
<title>Node8&#45;&gt;Node20</title>
<path fill="none" stroke="midnightblue" d="M450.53,-168.44C485.39,-158.98 541.58,-143.74 579.13,-133.55"/>
<polygon fill="midnightblue" stroke="midnightblue" points="580.47,-136.81 589.2,-130.82 578.63,-130.06 580.47,-136.81"/>
</g>
<!-- Node9&#45;&gt;Node2 -->
<g id="edge10" class="edge">
<title>Node9&#45;&gt;Node2</title>
<path fill="none" stroke="midnightblue" d="M518.92,-112.44C561.45,-102.59 631.08,-86.45 674.91,-76.29"/>
<polygon fill="midnightblue" stroke="midnightblue" points="675.97,-79.64 684.92,-73.97 674.39,-72.82 675.97,-79.64"/>
</g>
<!-- Node10 -->
<g id="node10" class="node">
<title>Node10</title>
<g id="a_node10"><a xlink:title=" ">
<polygon fill="white" stroke="#bfbfbf" points="431.5,-56.5 431.5,-75.5 476.5,-75.5 476.5,-56.5 431.5,-56.5"/>
<text text-anchor="middle" x="454" y="-63.5" font-family="Helvetica,sans-Serif" font-size="10.00">utility</text>
</a>
</g>
</g>
<!-- Node9&#45;&gt;Node10 -->
<g id="edge11" class="edge">
<title>Node9&#45;&gt;Node10</title>
<path fill="none" stroke="midnightblue" d="M477.38,-112.08C473.54,-104.69 467.98,-93.95 463.24,-84.81"/>
<polygon fill="midnightblue" stroke="midnightblue" points="466.25,-83.02 458.54,-75.75 460.03,-86.24 466.25,-83.02"/>
</g>
<!-- Node11 -->
<g id="node11" class="node">
<title>Node11</title>
<g id="a_node11"><a xlink:title=" ">
<polygon fill="white" stroke="#bfbfbf" points="494.5,-56.5 494.5,-75.5 563.5,-75.5 563.5,-56.5 494.5,-56.5"/>
<text text-anchor="middle" x="529" y="-63.5" font-family="Helvetica,sans-Serif" font-size="10.00">type_traits</text>
</a>
</g>
</g>
<!-- Node9&#45;&gt;Node11 -->
<g id="edge12" class="edge">
<title>Node9&#45;&gt;Node11</title>
<path fill="none" stroke="midnightblue" d="M489.76,-112.08C496.54,-104.3 506.54,-92.8 514.76,-83.37"/>
<polygon fill="midnightblue" stroke="midnightblue" points="517.46,-85.59 521.38,-75.75 512.18,-81 517.46,-85.59"/>
</g>
<!-- Node12 -->
<g id="node12" class="node">
<title>Node12</title>
<g id="a_node12"><a xlink:title=" ">
<polygon fill="white" stroke="#bfbfbf" points="581.5,-56.5 581.5,-75.5 666.5,-75.5 666.5,-56.5 581.5,-56.5"/>
<text text-anchor="middle" x="624" y="-63.5" font-family="Helvetica,sans-Serif" font-size="10.00">itkConfigure.h</text>
</a>
</g>
</g>
<!-- Node9&#45;&gt;Node12 -->
<g id="edge13" class="edge">
<title>Node9&#45;&gt;Node12</title>
<path fill="none" stroke="midnightblue" d="M504.5,-112.44C528.08,-103.48 565.32,-89.31 591.96,-79.18"/>
<polygon fill="midnightblue" stroke="midnightblue" points="593.5,-82.34 601.6,-75.52 591.01,-75.8 593.5,-82.34"/>
</g>
<!-- Node13&#45;&gt;Node6 -->
<g id="edge15" class="edge">
<title>Node13&#45;&gt;Node6</title>
<path fill="none" stroke="midnightblue" d="M291.83,-112.26C296.16,-99.47 305.06,-75.08 316,-56 321.78,-45.91 329.51,-35.5 336.15,-27.24"/>
<polygon fill="midnightblue" stroke="midnightblue" points="338.86,-29.44 342.53,-19.5 333.46,-24.99 338.86,-29.44"/>
</g>
<!-- Node14 -->
<g id="node14" class="node">
<title>Node14</title>
<g id="a_node14"><a xlink:href="itkIntTypes_8h.html" target="_top" xlink:title=" ">
<polygon fill="white" stroke="black" points="19.5,-56.5 19.5,-75.5 98.5,-75.5 98.5,-56.5 19.5,-56.5"/>
<text text-anchor="middle" x="59" y="-63.5" font-family="Helvetica,sans-Serif" font-size="10.00">itkIntTypes.h</text>
</a>
</g>
</g>
<!-- Node13&#45;&gt;Node14 -->
<g id="edge16" class="edge">
<title>Node13&#45;&gt;Node14</title>
<path fill="none" stroke="midnightblue" d="M252.56,-112.44C212.6,-103.06 148.41,-87.99 105.02,-77.8"/>
<polygon fill="midnightblue" stroke="midnightblue" points="105.81,-74.39 95.27,-75.52 104.21,-81.21 105.81,-74.39"/>
</g>
<!-- Node13&#45;&gt;Node17 -->
<g id="edge20" class="edge">
<title>Node13&#45;&gt;Node17</title>
<path fill="none" stroke="midnightblue" d="M298.8,-112.32C307.82,-104.34 321.41,-92.31 332.32,-82.65"/>
<polygon fill="midnightblue" stroke="midnightblue" points="334.85,-85.08 340.02,-75.83 330.21,-79.84 334.85,-85.08"/>
</g>
<!-- Node13&#45;&gt;Node18 -->
<g id="edge21" class="edge">
<title>Node13&#45;&gt;Node18</title>
<path fill="none" stroke="midnightblue" d="M276.63,-112.32C264.84,-104.06 246.87,-91.45 232.86,-81.63"/>
<polygon fill="midnightblue" stroke="midnightblue" points="234.54,-78.53 224.34,-75.65 230.52,-84.26 234.54,-78.53"/>
</g>
<!-- Node14&#45;&gt;Node6 -->
<g id="edge17" class="edge">
<title>Node14&#45;&gt;Node6</title>
<path fill="none" stroke="midnightblue" d="M98.55,-57.66C152.68,-47.62 249.54,-29.64 305.93,-19.18"/>
<polygon fill="midnightblue" stroke="midnightblue" points="306.78,-22.58 315.97,-17.31 305.5,-15.7 306.78,-22.58"/>
</g>
<!-- Node15 -->
<g id="node15" class="node">
<title>Node15</title>
<g id="a_node15"><a xlink:title=" ">
<polygon fill="white" stroke="#bfbfbf" points="0,-0.5 0,-19.5 50,-19.5 50,-0.5 0,-0.5"/>
<text text-anchor="middle" x="25" y="-7.5" font-family="Helvetica,sans-Serif" font-size="10.00">cstdint</text>
</a>
</g>
</g>
<!-- Node14&#45;&gt;Node15 -->
<g id="edge18" class="edge">
<title>Node14&#45;&gt;Node15</title>
<path fill="none" stroke="midnightblue" d="M53.39,-56.08C48.63,-48.53 41.68,-37.49 35.85,-28.23"/>
<polygon fill="midnightblue" stroke="midnightblue" points="38.8,-26.35 30.51,-19.75 32.88,-30.08 38.8,-26.35"/>
</g>
<!-- Node16 -->
<g id="node16" class="node">
<title>Node16</title>
<g id="a_node16"><a xlink:title=" ">
<polygon fill="white" stroke="#bfbfbf" points="68,-0.5 68,-19.5 118,-19.5 118,-0.5 68,-0.5"/>
<text text-anchor="middle" x="93" y="-7.5" font-family="Helvetica,sans-Serif" font-size="10.00">climits</text>
</a>
</g>
</g>
<!-- Node14&#45;&gt;Node16 -->
<g id="edge19" class="edge">
<title>Node14&#45;&gt;Node16</title>
<path fill="none" stroke="midnightblue" d="M64.61,-56.08C69.37,-48.53 76.32,-37.49 82.15,-28.23"/>
<polygon fill="midnightblue" stroke="midnightblue" points="85.12,-30.08 87.49,-19.75 79.2,-26.35 85.12,-30.08"/>
</g>
<!-- Node19&#45;&gt;Node2 -->
<g id="edge24" class="edge">
<title>Node19&#45;&gt;Node2</title>
<path fill="none" stroke="midnightblue" d="M740.05,-112.08C735.9,-104.61 729.85,-93.72 724.73,-84.52"/>
<polygon fill="midnightblue" stroke="midnightblue" points="727.78,-82.79 719.86,-75.75 721.66,-86.19 727.78,-82.79"/>
</g>
<!-- Node19&#45;&gt;Node6 -->
<g id="edge23" class="edge">
<title>Node19&#45;&gt;Node6</title>
<path fill="none" stroke="midnightblue" d="M750.05,-112.17C757.21,-98.37 767.98,-71.62 754,-56 730.31,-29.52 493.91,-16.86 394.1,-12.66"/>
<polygon fill="midnightblue" stroke="midnightblue" points="394.17,-9.16 384.03,-12.24 393.88,-16.15 394.17,-9.16"/>
</g>
<!-- Node21&#45;&gt;Node6 -->
<g id="edge29" class="edge">
<title>Node21&#45;&gt;Node6</title>
<path fill="none" stroke="midnightblue" d="M762.44,-168.24C771.42,-159.97 783.75,-146.66 789,-132 800.71,-99.32 797.92,-77.91 771,-56 742.2,-32.56 496.49,-18.08 394.3,-13.03"/>
<polygon fill="midnightblue" stroke="midnightblue" points="394.17,-9.52 384.01,-12.53 393.83,-16.51 394.17,-9.52"/>
</g>
<!-- Node21&#45;&gt;Node19 -->
<g id="edge30" class="edge">
<title>Node21&#45;&gt;Node19</title>
<path fill="none" stroke="midnightblue" d="M750.84,-168.08C749.92,-160.93 748.58,-150.64 747.42,-141.69"/>
<polygon fill="midnightblue" stroke="midnightblue" points="750.89,-141.22 746.13,-131.75 743.95,-142.12 750.89,-141.22"/>
</g>
<!-- Node22&#45;&gt;Node3 -->
<g id="edge39" class="edge">
<title>Node22&#45;&gt;Node3</title>
<path fill="none" stroke="midnightblue" d="M578.35,-280.44C625.73,-269.87 705.49,-252.07 749.83,-242.18"/>
<polygon fill="midnightblue" stroke="midnightblue" points="750.78,-245.55 759.77,-239.96 749.25,-238.72 750.78,-245.55"/>
</g>
<!-- Node23 -->
<g id="node23" class="node">
<title>Node23</title>
<g id="a_node23"><a xlink:href="itkMetaDataObjectBase_8h.html" target="_top" xlink:title=" ">
<polygon fill="white" stroke="black" points="348,-224.5 348,-243.5 490,-243.5 490,-224.5 348,-224.5"/>
<text text-anchor="middle" x="419" y="-231.5" font-family="Helvetica,sans-Serif" font-size="10.00">itkMetaDataObjectBase.h</text>
</a>
</g>
</g>
<!-- Node22&#45;&gt;Node23 -->
<g id="edge32" class="edge">
<title>Node22&#45;&gt;Node23</title>
<path fill="none" stroke="midnightblue" d="M520.83,-280.44C501.09,-271.64 470.11,-257.81 447.51,-247.72"/>
<polygon fill="midnightblue" stroke="midnightblue" points="448.64,-244.4 438.08,-243.52 445.79,-250.79 448.64,-244.4"/>
</g>
<!-- Node24 -->
<g id="node24" class="node">
<title>Node24</title>
<g id="a_node24"><a xlink:title=" ">
<polygon fill="white" stroke="#bfbfbf" points="508,-224.5 508,-243.5 572,-243.5 572,-224.5 508,-224.5"/>
<text text-anchor="middle" x="540" y="-231.5" font-family="Helvetica,sans-Serif" font-size="10.00">algorithm</text>
</a>
</g>
</g>
<!-- Node22&#45;&gt;Node24 -->
<g id="edge36" class="edge">
<title>Node22&#45;&gt;Node24</title>
<path fill="none" stroke="midnightblue" d="M540,-280.08C540,-273.01 540,-262.86 540,-253.99"/>
<polygon fill="midnightblue" stroke="midnightblue" points="543.5,-253.75 540,-243.75 536.5,-253.75 543.5,-253.75"/>
</g>
<!-- Node25 -->
<g id="node25" class="node">
<title>Node25</title>
<g id="a_node25"><a xlink:title=" ">
<polygon fill="white" stroke="#bfbfbf" points="282.5,-224.5 282.5,-243.5 329.5,-243.5 329.5,-224.5 282.5,-224.5"/>
<text text-anchor="middle" x="306" y="-231.5" font-family="Helvetica,sans-Serif" font-size="10.00">vector</text>
</a>
</g>
</g>
<!-- Node22&#45;&gt;Node25 -->
<g id="edge37" class="edge">
<title>Node22&#45;&gt;Node25</title>
<path fill="none" stroke="midnightblue" d="M499.45,-280.49C460.83,-272.27 400.84,-259.15 339.6,-244.06"/>
<polygon fill="midnightblue" stroke="midnightblue" points="340.31,-240.63 329.76,-241.62 338.62,-247.42 340.31,-240.63"/>
</g>
<!-- Node26 -->
<g id="node26" class="node">
<title>Node26</title>
<g id="a_node26"><a xlink:title=" ">
<polygon fill="white" stroke="#bfbfbf" points="590,-224.5 590,-243.5 628,-243.5 628,-224.5 590,-224.5"/>
<text text-anchor="middle" x="609" y="-231.5" font-family="Helvetica,sans-Serif" font-size="10.00">map</text>
</a>
</g>
</g>
<!-- Node22&#45;&gt;Node26 -->
<g id="edge38" class="edge">
<title>Node22&#45;&gt;Node26</title>
<path fill="none" stroke="midnightblue" d="M551.09,-280.32C561.49,-272.18 577.26,-259.84 589.72,-250.09"/>
<polygon fill="midnightblue" stroke="midnightblue" points="591.99,-252.75 597.71,-243.83 587.68,-247.24 591.99,-252.75"/>
</g>
<!-- Node22&#45;&gt;Node27 -->
<g id="edge40" class="edge">
<title>Node22&#45;&gt;Node27</title>
<path fill="none" stroke="midnightblue" d="M561.39,-280.44C583.71,-271.52 618.9,-257.44 644.21,-247.32"/>
<polygon fill="midnightblue" stroke="midnightblue" points="645.72,-250.48 653.71,-243.52 643.12,-243.98 645.72,-250.48"/>
</g>
<!-- Node23&#45;&gt;Node2 -->
<g id="edge35" class="edge">
<title>Node23&#45;&gt;Node2</title>
<path fill="none" stroke="midnightblue" d="M450.85,-224.45C498.66,-210.57 590.36,-179.76 656,-132 674.6,-118.47 691.78,-98.3 702.74,-84.02"/>
<polygon fill="midnightblue" stroke="midnightblue" points="705.84,-85.73 709.01,-75.62 700.22,-81.54 705.84,-85.73"/>
</g>
<!-- Node23&#45;&gt;Node8 -->
<g id="edge33" class="edge">
<title>Node23&#45;&gt;Node8</title>
<path fill="none" stroke="midnightblue" d="M419,-224.08C419,-217.01 419,-206.86 419,-197.99"/>
<polygon fill="midnightblue" stroke="midnightblue" points="422.5,-197.75 419,-187.75 415.5,-197.75 422.5,-197.75"/>
</g>
<!-- Node23&#45;&gt;Node20 -->
<g id="edge34" class="edge">
<title>Node23&#45;&gt;Node20</title>
<path fill="none" stroke="midnightblue" d="M434.62,-224.37C469.13,-205.29 552.11,-159.42 593.57,-136.51"/>
<polygon fill="midnightblue" stroke="midnightblue" points="595.4,-139.49 602.46,-131.59 592.01,-133.37 595.4,-139.49"/>
</g>
<!-- Node30 -->
<g id="node30" class="node">
<title>Node30</title>
<g id="a_node30"><a xlink:href="itkObjectFactoryBase_8h.html" target="_top" xlink:title=" ">
<polygon fill="white" stroke="black" points="288.5,-448.5 288.5,-467.5 417.5,-467.5 417.5,-448.5 288.5,-448.5"/>
<text text-anchor="middle" x="353" y="-455.5" font-family="Helvetica,sans-Serif" font-size="10.00">itkObjectFactoryBase.h</text>
</a>
</g>
</g>
<!-- Node29&#45;&gt;Node30 -->
<g id="edge45" class="edge">
<title>Node29&#45;&gt;Node30</title>
<path fill="none" stroke="midnightblue" d="M405.88,-504.32C396.47,-496.26 382.26,-484.08 370.93,-474.37"/>
<polygon fill="midnightblue" stroke="midnightblue" points="373.18,-471.68 363.31,-467.83 368.62,-477 373.18,-471.68"/>
</g>
<!-- Node30&#45;&gt;Node18 -->
<g id="edge48" class="edge">
<title>Node30&#45;&gt;Node18</title>
<path fill="none" stroke="midnightblue" d="M288.34,-450.86C237.43,-444.53 172.43,-432.61 156,-412 75.35,-310.85 167.87,-138.89 201.06,-84.22"/>
<polygon fill="midnightblue" stroke="midnightblue" points="204.06,-86.03 206.35,-75.69 198.11,-82.35 204.06,-86.03"/>
</g>
<!-- Node30&#45;&gt;Node25 -->
<g id="edge54" class="edge">
<title>Node30&#45;&gt;Node25</title>
<path fill="none" stroke="midnightblue" d="M346.96,-448.5C341.09,-439.77 332.44,-425.59 328,-412 309.95,-356.68 306.55,-287.2 306.01,-254.16"/>
<polygon fill="midnightblue" stroke="midnightblue" points="309.51,-253.7 305.92,-243.73 302.51,-253.76 309.51,-253.7"/>
</g>
<!-- Node30&#45;&gt;Node27 -->
<g id="edge53" class="edge">
<title>Node30&#45;&gt;Node27</title>
<path fill="none" stroke="midnightblue" d="M417.63,-451.09C455.42,-445.36 502.83,-434.11 540,-412 605,-373.34 649.51,-290.36 666.87,-253.41"/>
<polygon fill="midnightblue" stroke="midnightblue" points="670.25,-254.45 671.22,-243.9 663.88,-251.54 670.25,-254.45"/>
</g>
<!-- Node31 -->
<g id="node31" class="node">
<title>Node31</title>
<g id="a_node31"><a xlink:href="itkCreateObjectFunction_8h.html" target="_top" xlink:title=" ">
<polygon fill="white" stroke="black" points="387.5,-392.5 387.5,-411.5 530.5,-411.5 530.5,-392.5 387.5,-392.5"/>
<text text-anchor="middle" x="459" y="-399.5" font-family="Helvetica,sans-Serif" font-size="10.00">itkCreateObjectFunction.h</text>
</a>
</g>
</g>
<!-- Node30&#45;&gt;Node31 -->
<g id="edge46" class="edge">
<title>Node30&#45;&gt;Node31</title>
<path fill="none" stroke="midnightblue" d="M370.03,-448.32C387.03,-439.66 413.38,-426.24 432.99,-416.25"/>
<polygon fill="midnightblue" stroke="midnightblue" points="434.69,-419.31 442.01,-411.65 431.51,-413.08 434.69,-419.31"/>
</g>
<!-- Node32 -->
<g id="node32" class="node">
<title>Node32</title>
<g id="a_node32"><a xlink:href="itkCommonEnums_8h.html" target="_top" xlink:title=" ">
<polygon fill="white" stroke="black" points="165,-392.5 165,-411.5 281,-411.5 281,-392.5 165,-392.5"/>
<text text-anchor="middle" x="223" y="-399.5" font-family="Helvetica,sans-Serif" font-size="10.00">itkCommonEnums.h</text>
</a>
</g>
</g>
<!-- Node30&#45;&gt;Node32 -->
<g id="edge49" class="edge">
<title>Node30&#45;&gt;Node32</title>
<path fill="none" stroke="midnightblue" d="M332.4,-448.44C311.01,-439.56 277.32,-425.56 252.98,-415.45"/>
<polygon fill="midnightblue" stroke="midnightblue" points="254.08,-412.12 243.5,-411.52 251.39,-418.58 254.08,-412.12"/>
</g>
<!-- Node34 -->
<g id="node34" class="node">
<title>Node34</title>
<g id="a_node34"><a xlink:title=" ">
<polygon fill="white" stroke="#bfbfbf" points="337,-392.5 337,-411.5 369,-411.5 369,-392.5 337,-392.5"/>
<text text-anchor="middle" x="353" y="-399.5" font-family="Helvetica,sans-Serif" font-size="10.00">list</text>
</a>
</g>
</g>
<!-- Node30&#45;&gt;Node34 -->
<g id="edge52" class="edge">
<title>Node30&#45;&gt;Node34</title>
<path fill="none" stroke="midnightblue" d="M353,-448.08C353,-441.01 353,-430.86 353,-421.99"/>
<polygon fill="midnightblue" stroke="midnightblue" points="356.5,-421.75 353,-411.75 349.5,-421.75 356.5,-421.75"/>
</g>
<!-- Node31&#45;&gt;Node7 -->
<g id="edge47" class="edge">
<title>Node31&#45;&gt;Node7</title>
<path fill="none" stroke="midnightblue" d="M465.61,-392.08C471.26,-384.46 479.54,-373.26 486.45,-363.94"/>
<polygon fill="midnightblue" stroke="midnightblue" points="489.38,-365.87 492.52,-355.75 483.75,-361.7 489.38,-365.87"/>
</g>
<!-- Node32&#45;&gt;Node14 -->
<g id="edge50" class="edge">
<title>Node32&#45;&gt;Node14</title>
<path fill="none" stroke="midnightblue" d="M216.86,-392.25C210.72,-383.34 201.19,-369.02 194,-356 139.09,-256.62 85.54,-131.05 66.39,-84.99"/>
<polygon fill="midnightblue" stroke="midnightblue" points="69.62,-83.62 62.56,-75.72 63.15,-86.3 69.62,-83.62"/>
</g>
<!-- Node33 -->
<g id="node33" class="node">
<title>Node33</title>
<g id="a_node33"><a xlink:title=" ">
<polygon fill="white" stroke="#bfbfbf" points="203.5,-336.5 203.5,-355.5 260.5,-355.5 260.5,-336.5 203.5,-336.5"/>
<text text-anchor="middle" x="232" y="-343.5" font-family="Helvetica,sans-Serif" font-size="10.00">ostream</text>
</a>
</g>
</g>
<!-- Node32&#45;&gt;Node33 -->
<g id="edge51" class="edge">
<title>Node32&#45;&gt;Node33</title>
<path fill="none" stroke="midnightblue" d="M224.49,-392.08C225.68,-384.93 227.39,-374.64 228.88,-365.69"/>
<polygon fill="midnightblue" stroke="midnightblue" points="232.35,-366.19 230.54,-355.75 225.45,-365.04 232.35,-366.19"/>
</g>
</g>
</svg>
