<?xml version="1.0" encoding="UTF-8" standalone="no"?>
<!DOCTYPE svg PUBLIC "-//W3C//DTD SVG 1.1//EN"
 "http://www.w3.org/Graphics/SVG/1.1/DTD/svg11.dtd">
<!-- Generated by graphviz version 2.43.0 (0)
 -->
<!-- Title: itkSingleValuedCostFunctionv4.h Pages: 1 -->
<svg width="1614pt" height="677pt"
 viewBox="0.00 0.00 1614.00 677.00" xmlns="http://www.w3.org/2000/svg" xmlns:xlink="http://www.w3.org/1999/xlink">
<g id="graph0" class="graph" transform="scale(1 1) rotate(0) translate(4 673)">
<title>itkSingleValuedCostFunctionv4.h</title>
<polygon fill="white" stroke="transparent" points="-4,4 -4,-673 1610,-673 1610,4 -4,4"/>
<!-- Node1 -->
<g id="node1" class="node">
<title>Node1</title>
<g id="a_node1"><a xlink:title=" ">
<polygon fill="#bfbfbf" stroke="black" points="773.5,-649.5 773.5,-668.5 949.5,-668.5 949.5,-649.5 773.5,-649.5"/>
<text text-anchor="middle" x="861.5" y="-656.5" font-family="Helvetica,sans-Serif" font-size="10.00">itkSingleValuedCostFunctionv4.h</text>
</a>
</g>
</g>
<!-- Node2 -->
<g id="node2" class="node">
<title>Node2</title>
<g id="a_node2"><a xlink:href="itkCostFunction_8h.html" target="_top" xlink:title=" ">
<polygon fill="white" stroke="black" points="750,-593.5 750,-612.5 851,-612.5 851,-593.5 750,-593.5"/>
<text text-anchor="middle" x="800.5" y="-600.5" font-family="Helvetica,sans-Serif" font-size="10.00">itkCostFunction.h</text>
</a>
</g>
</g>
<!-- Node1&#45;&gt;Node2 -->
<g id="edge1" class="edge">
<title>Node1&#45;&gt;Node2</title>
<path fill="none" stroke="midnightblue" d="M851.7,-649.32C842.68,-641.34 829.09,-629.31 818.18,-619.65"/>
<polygon fill="midnightblue" stroke="midnightblue" points="820.29,-616.84 810.48,-612.83 815.65,-622.08 820.29,-616.84"/>
</g>
<!-- Node42 -->
<g id="node42" class="node">
<title>Node42</title>
<g id="a_node42"><a xlink:href="itkNumericTraits_8h.html" target="_top" xlink:title=" ">
<polygon fill="white" stroke="black" points="1304.5,-369.5 1304.5,-388.5 1410.5,-388.5 1410.5,-369.5 1304.5,-369.5"/>
<text text-anchor="middle" x="1357.5" y="-376.5" font-family="Helvetica,sans-Serif" font-size="10.00">itkNumericTraits.h</text>
</a>
</g>
</g>
<!-- Node1&#45;&gt;Node42 -->
<g id="edge61" class="edge">
<title>Node1&#45;&gt;Node42</title>
<path fill="none" stroke="midnightblue" d="M909.66,-649.48C990.2,-633.85 1143.5,-597.6 1143.5,-548 1143.5,-548 1143.5,-548 1143.5,-490 1143.5,-421.5 1231.3,-395.62 1294.42,-385.87"/>
<polygon fill="midnightblue" stroke="midnightblue" points="1294.93,-389.33 1304.33,-384.44 1293.93,-382.4 1294.93,-389.33"/>
</g>
<!-- Node3 -->
<g id="node3" class="node">
<title>Node3</title>
<g id="a_node3"><a xlink:href="itkObject_8h.html" target="_top" xlink:title=" ">
<polygon fill="white" stroke="black" points="418.5,-369.5 418.5,-388.5 488.5,-388.5 488.5,-369.5 418.5,-369.5"/>
<text text-anchor="middle" x="453.5" y="-376.5" font-family="Helvetica,sans-Serif" font-size="10.00">itkObject.h</text>
</a>
</g>
</g>
<!-- Node2&#45;&gt;Node3 -->
<g id="edge2" class="edge">
<title>Node2&#45;&gt;Node3</title>
<path fill="none" stroke="midnightblue" d="M786.9,-593.3C733.99,-559.45 541.6,-436.37 475.77,-394.25"/>
<polygon fill="midnightblue" stroke="midnightblue" points="477.32,-391.08 467.01,-388.64 473.55,-396.98 477.32,-391.08"/>
</g>
<!-- Node28 -->
<g id="node28" class="node">
<title>Node28</title>
<g id="a_node28"><a xlink:href="itkObjectFactory_8h.html" target="_top" xlink:title=" ">
<polygon fill="white" stroke="black" points="312.5,-537.5 312.5,-556.5 416.5,-556.5 416.5,-537.5 312.5,-537.5"/>
<text text-anchor="middle" x="364.5" y="-544.5" font-family="Helvetica,sans-Serif" font-size="10.00">itkObjectFactory.h</text>
</a>
</g>
</g>
<!-- Node2&#45;&gt;Node28 -->
<g id="edge38" class="edge">
<title>Node2&#45;&gt;Node28</title>
<path fill="none" stroke="midnightblue" d="M749.63,-595.7C669.36,-585.76 513.53,-566.46 426.71,-555.71"/>
<polygon fill="midnightblue" stroke="midnightblue" points="427.09,-552.23 416.74,-554.47 426.23,-559.17 427.09,-552.23"/>
</g>
<!-- Node34 -->
<g id="node34" class="node">
<title>Node34</title>
<g id="a_node34"><a xlink:href="itkArray_8h.html" target="_top" xlink:title=" ">
<polygon fill="white" stroke="black" points="877,-369.5 877,-388.5 940,-388.5 940,-369.5 877,-369.5"/>
<text text-anchor="middle" x="908.5" y="-376.5" font-family="Helvetica,sans-Serif" font-size="10.00">itkArray.h</text>
</a>
</g>
</g>
<!-- Node2&#45;&gt;Node34 -->
<g id="edge48" class="edge">
<title>Node2&#45;&gt;Node34</title>
<path fill="none" stroke="midnightblue" d="M851.19,-593.69C872.63,-587.39 895.6,-576.35 908.5,-557 941.26,-507.86 924.83,-432.74 914.6,-398.34"/>
<polygon fill="midnightblue" stroke="midnightblue" points="917.91,-397.19 911.57,-388.69 911.23,-399.28 917.91,-397.19"/>
</g>
<!-- Node39 -->
<g id="node39" class="node">
<title>Node39</title>
<g id="a_node39"><a xlink:href="itkOptimizerParameters_8h.html" target="_top" xlink:title=" ">
<polygon fill="white" stroke="black" points="694.5,-481.5 694.5,-500.5 836.5,-500.5 836.5,-481.5 694.5,-481.5"/>
<text text-anchor="middle" x="765.5" y="-488.5" font-family="Helvetica,sans-Serif" font-size="10.00">itkOptimizerParameters.h</text>
</a>
</g>
</g>
<!-- Node2&#45;&gt;Node39 -->
<g id="edge54" class="edge">
<title>Node2&#45;&gt;Node39</title>
<path fill="none" stroke="midnightblue" d="M795.13,-593.37C789.87,-584.55 782.02,-570.29 777.5,-557 772.36,-541.87 769.26,-523.98 767.5,-510.79"/>
<polygon fill="midnightblue" stroke="midnightblue" points="770.95,-510.13 766.29,-500.61 764,-510.96 770.95,-510.13"/>
</g>
<!-- Node41 -->
<g id="node41" class="node">
<title>Node41</title>
<g id="a_node41"><a xlink:title=" ">
<polygon fill="white" stroke="#bfbfbf" points="786,-537.5 786,-556.5 899,-556.5 899,-537.5 786,-537.5"/>
<text text-anchor="middle" x="842.5" y="-544.5" font-family="Helvetica,sans-Serif" font-size="10.00">itkCostFunction.hxx</text>
</a>
</g>
</g>
<!-- Node2&#45;&gt;Node41 -->
<g id="edge60" class="edge">
<title>Node2&#45;&gt;Node41</title>
<path fill="none" stroke="midnightblue" d="M807.44,-593.08C813.43,-585.38 822.25,-574.03 829.55,-564.65"/>
<polygon fill="midnightblue" stroke="midnightblue" points="832.32,-566.79 835.69,-556.75 826.79,-562.5 832.32,-566.79"/>
</g>
<!-- Node4 -->
<g id="node4" class="node">
<title>Node4</title>
<g id="a_node4"><a xlink:href="itkLightObject_8h.html" target="_top" xlink:title=" ">
<polygon fill="white" stroke="black" points="423.5,-168.5 423.5,-187.5 517.5,-187.5 517.5,-168.5 423.5,-168.5"/>
<text text-anchor="middle" x="470.5" y="-175.5" font-family="Helvetica,sans-Serif" font-size="10.00">itkLightObject.h</text>
</a>
</g>
</g>
<!-- Node3&#45;&gt;Node4 -->
<g id="edge3" class="edge">
<title>Node3&#45;&gt;Node4</title>
<path fill="none" stroke="midnightblue" d="M418.13,-370.38C395.94,-363.9 368.27,-352.45 350.5,-333 316.91,-296.23 294.92,-264.07 324.5,-224 344.83,-196.46 381.75,-185.25 413.38,-180.91"/>
<polygon fill="midnightblue" stroke="midnightblue" points="413.92,-184.37 423.44,-179.73 413.1,-177.42 413.92,-184.37"/>
</g>
<!-- Node16 -->
<g id="node16" class="node">
<title>Node16</title>
<g id="a_node16"><a xlink:href="itkSingletonMacro_8h.html" target="_top" xlink:title=" ">
<polygon fill="white" stroke="black" points="143.5,-56.5 143.5,-75.5 257.5,-75.5 257.5,-56.5 143.5,-56.5"/>
<text text-anchor="middle" x="200.5" y="-63.5" font-family="Helvetica,sans-Serif" font-size="10.00">itkSingletonMacro.h</text>
</a>
</g>
</g>
<!-- Node3&#45;&gt;Node16 -->
<g id="edge36" class="edge">
<title>Node3&#45;&gt;Node16</title>
<path fill="none" stroke="midnightblue" d="M418.46,-374.98C349.22,-366.89 201.5,-338.18 201.5,-240.5 201.5,-240.5 201.5,-240.5 201.5,-177 201.5,-144.95 201.07,-107.64 200.77,-85.75"/>
<polygon fill="midnightblue" stroke="midnightblue" points="204.27,-85.51 200.63,-75.56 197.27,-85.61 204.27,-85.51"/>
</g>
<!-- Node19 -->
<g id="node19" class="node">
<title>Node19</title>
<g id="a_node19"><a xlink:href="itkEventObject_8h.html" target="_top" xlink:title=" ">
<polygon fill="white" stroke="black" points="691.5,-168.5 691.5,-187.5 789.5,-187.5 789.5,-168.5 691.5,-168.5"/>
<text text-anchor="middle" x="740.5" y="-175.5" font-family="Helvetica,sans-Serif" font-size="10.00">itkEventObject.h</text>
</a>
</g>
</g>
<!-- Node3&#45;&gt;Node19 -->
<g id="edge24" class="edge">
<title>Node3&#45;&gt;Node19</title>
<path fill="none" stroke="midnightblue" d="M488.58,-373.68C517.77,-368.46 558.88,-357.15 586.5,-333 627.2,-297.41 601.57,-261.51 640.5,-224 656.45,-208.63 678.56,-197.94 697.93,-190.84"/>
<polygon fill="midnightblue" stroke="midnightblue" points="699.16,-194.12 707.47,-187.55 696.88,-187.5 699.16,-194.12"/>
</g>
<!-- Node20 -->
<g id="node20" class="node">
<title>Node20</title>
<g id="a_node20"><a xlink:href="itkMetaDataDictionary_8h.html" target="_top" xlink:title=" ">
<polygon fill="white" stroke="black" points="359,-302.5 359,-321.5 494,-321.5 494,-302.5 359,-302.5"/>
<text text-anchor="middle" x="426.5" y="-309.5" font-family="Helvetica,sans-Serif" font-size="10.00">itkMetaDataDictionary.h</text>
</a>
</g>
</g>
<!-- Node3&#45;&gt;Node20 -->
<g id="edge26" class="edge">
<title>Node3&#45;&gt;Node20</title>
<path fill="none" stroke="midnightblue" d="M449.86,-369.23C445.81,-359.49 439.16,-343.48 433.99,-331.03"/>
<polygon fill="midnightblue" stroke="midnightblue" points="437.15,-329.52 430.08,-321.63 430.69,-332.2 437.15,-329.52"/>
</g>
<!-- Node27 -->
<g id="node27" class="node">
<title>Node27</title>
<g id="a_node27"><a xlink:title=" ">
<polygon fill="white" stroke="#bfbfbf" points="512,-302.5 512,-321.5 577,-321.5 577,-302.5 512,-302.5"/>
<text text-anchor="middle" x="544.5" y="-309.5" font-family="Helvetica,sans-Serif" font-size="10.00">functional</text>
</a>
</g>
</g>
<!-- Node3&#45;&gt;Node27 -->
<g id="edge37" class="edge">
<title>Node3&#45;&gt;Node27</title>
<path fill="none" stroke="midnightblue" d="M465.77,-369.23C480.65,-358.61 505.93,-340.55 523.83,-327.76"/>
<polygon fill="midnightblue" stroke="midnightblue" points="526.32,-330.29 532.42,-321.63 522.25,-324.59 526.32,-330.29"/>
</g>
<!-- Node5 -->
<g id="node5" class="node">
<title>Node5</title>
<g id="a_node5"><a xlink:href="itkMacro_8h.html" target="_top" xlink:title=" ">
<polygon fill="white" stroke="black" points="727.5,-0.5 727.5,-19.5 795.5,-19.5 795.5,-0.5 727.5,-0.5"/>
<text text-anchor="middle" x="761.5" y="-7.5" font-family="Helvetica,sans-Serif" font-size="10.00">itkMacro.h</text>
</a>
</g>
</g>
<!-- Node4&#45;&gt;Node5 -->
<g id="edge4" class="edge">
<title>Node4&#45;&gt;Node5</title>
<path fill="none" stroke="midnightblue" d="M451.52,-168.4C437.61,-160.95 419.79,-148.74 411.5,-132 396.52,-101.73 389.19,-81.36 411.5,-56 431.4,-33.38 627.37,-18.95 717.08,-13.48"/>
<polygon fill="midnightblue" stroke="midnightblue" points="717.44,-16.97 727.22,-12.88 717.03,-9.98 717.44,-16.97"/>
</g>
<!-- Node6 -->
<g id="node6" class="node">
<title>Node6</title>
<g id="a_node6"><a xlink:href="itkSmartPointer_8h.html" target="_top" xlink:title=" ">
<polygon fill="white" stroke="black" points="420,-112.5 420,-131.5 521,-131.5 521,-112.5 420,-112.5"/>
<text text-anchor="middle" x="470.5" y="-119.5" font-family="Helvetica,sans-Serif" font-size="10.00">itkSmartPointer.h</text>
</a>
</g>
</g>
<!-- Node4&#45;&gt;Node6 -->
<g id="edge5" class="edge">
<title>Node4&#45;&gt;Node6</title>
<path fill="none" stroke="midnightblue" d="M470.5,-168.08C470.5,-161.01 470.5,-150.86 470.5,-141.99"/>
<polygon fill="midnightblue" stroke="midnightblue" points="474,-141.75 470.5,-131.75 467,-141.75 474,-141.75"/>
</g>
<!-- Node7 -->
<g id="node7" class="node">
<title>Node7</title>
<g id="a_node7"><a xlink:title=" ">
<polygon fill="white" stroke="#bfbfbf" points="673.5,-56.5 673.5,-75.5 733.5,-75.5 733.5,-56.5 673.5,-56.5"/>
<text text-anchor="middle" x="703.5" y="-63.5" font-family="Helvetica,sans-Serif" font-size="10.00">iostream</text>
</a>
</g>
</g>
<!-- Node4&#45;&gt;Node7 -->
<g id="edge22" class="edge">
<title>Node4&#45;&gt;Node7</title>
<path fill="none" stroke="midnightblue" d="M481.51,-168.39C499.22,-154.88 535.48,-128.54 569.5,-112 599.83,-97.25 636.22,-85.37 663.42,-77.53"/>
<polygon fill="midnightblue" stroke="midnightblue" points="664.69,-80.81 673.36,-74.72 662.78,-74.07 664.69,-80.81"/>
</g>
<!-- Node11 -->
<g id="node11" class="node">
<title>Node11</title>
<g id="a_node11"><a xlink:href="itkTimeStamp_8h.html" target="_top" xlink:title=" ">
<polygon fill="white" stroke="black" points="230,-112.5 230,-131.5 325,-131.5 325,-112.5 230,-112.5"/>
<text text-anchor="middle" x="277.5" y="-119.5" font-family="Helvetica,sans-Serif" font-size="10.00">itkTimeStamp.h</text>
</a>
</g>
</g>
<!-- Node4&#45;&gt;Node11 -->
<g id="edge10" class="edge">
<title>Node4&#45;&gt;Node11</title>
<path fill="none" stroke="midnightblue" d="M439.92,-168.44C406.89,-159.2 354.11,-144.44 317.73,-134.26"/>
<polygon fill="midnightblue" stroke="midnightblue" points="318.51,-130.84 307.94,-131.52 316.63,-137.58 318.51,-130.84"/>
</g>
<!-- Node15 -->
<g id="node15" class="node">
<title>Node15</title>
<g id="a_node15"><a xlink:title=" ">
<polygon fill="white" stroke="#bfbfbf" points="313.5,-56.5 313.5,-75.5 363.5,-75.5 363.5,-56.5 313.5,-56.5"/>
<text text-anchor="middle" x="338.5" y="-63.5" font-family="Helvetica,sans-Serif" font-size="10.00">atomic</text>
</a>
</g>
</g>
<!-- Node4&#45;&gt;Node15 -->
<g id="edge21" class="edge">
<title>Node4&#45;&gt;Node15</title>
<path fill="none" stroke="midnightblue" d="M442.78,-168.4C422.86,-161.15 396.3,-149.18 377.5,-132 363.12,-118.85 352.33,-99.17 345.78,-84.91"/>
<polygon fill="midnightblue" stroke="midnightblue" points="348.96,-83.44 341.78,-75.66 342.54,-86.22 348.96,-83.44"/>
</g>
<!-- Node17 -->
<g id="node17" class="node">
<title>Node17</title>
<g id="a_node17"><a xlink:href="itkIndent_8h.html" target="_top" xlink:title=" ">
<polygon fill="white" stroke="black" points="699,-112.5 699,-131.5 768,-131.5 768,-112.5 699,-112.5"/>
<text text-anchor="middle" x="733.5" y="-119.5" font-family="Helvetica,sans-Serif" font-size="10.00">itkIndent.h</text>
</a>
</g>
</g>
<!-- Node4&#45;&gt;Node17 -->
<g id="edge18" class="edge">
<title>Node4&#45;&gt;Node17</title>
<path fill="none" stroke="midnightblue" d="M512.17,-168.44C560.31,-158.56 639.22,-142.36 688.66,-132.21"/>
<polygon fill="midnightblue" stroke="midnightblue" points="689.65,-135.58 698.74,-130.14 688.24,-128.72 689.65,-135.58"/>
</g>
<!-- Node18 -->
<g id="node18" class="node">
<title>Node18</title>
<g id="a_node18"><a xlink:title=" ">
<polygon fill="white" stroke="#bfbfbf" points="578,-112.5 578,-131.5 635,-131.5 635,-112.5 578,-112.5"/>
<text text-anchor="middle" x="606.5" y="-119.5" font-family="Helvetica,sans-Serif" font-size="10.00">typeinfo</text>
</a>
</g>
</g>
<!-- Node4&#45;&gt;Node18 -->
<g id="edge23" class="edge">
<title>Node4&#45;&gt;Node18</title>
<path fill="none" stroke="midnightblue" d="M492.05,-168.44C514.53,-159.52 549.99,-145.44 575.48,-135.32"/>
<polygon fill="midnightblue" stroke="midnightblue" points="577.05,-138.46 585.05,-131.52 574.47,-131.95 577.05,-138.46"/>
</g>
<!-- Node6&#45;&gt;Node7 -->
<g id="edge6" class="edge">
<title>Node6&#45;&gt;Node7</title>
<path fill="none" stroke="midnightblue" d="M507.42,-112.44C549.95,-102.59 619.58,-86.45 663.41,-76.29"/>
<polygon fill="midnightblue" stroke="midnightblue" points="664.47,-79.64 673.42,-73.97 662.89,-72.82 664.47,-79.64"/>
</g>
<!-- Node8 -->
<g id="node8" class="node">
<title>Node8</title>
<g id="a_node8"><a xlink:title=" ">
<polygon fill="white" stroke="#bfbfbf" points="523,-56.5 523,-75.5 568,-75.5 568,-56.5 523,-56.5"/>
<text text-anchor="middle" x="545.5" y="-63.5" font-family="Helvetica,sans-Serif" font-size="10.00">utility</text>
</a>
</g>
</g>
<!-- Node6&#45;&gt;Node8 -->
<g id="edge7" class="edge">
<title>Node6&#45;&gt;Node8</title>
<path fill="none" stroke="midnightblue" d="M482.55,-112.32C493.96,-104.11 511.33,-91.6 524.93,-81.81"/>
<polygon fill="midnightblue" stroke="midnightblue" points="527.16,-84.52 533.23,-75.83 523.07,-78.84 527.16,-84.52"/>
</g>
<!-- Node9 -->
<g id="node9" class="node">
<title>Node9</title>
<g id="a_node9"><a xlink:title=" ">
<polygon fill="white" stroke="#bfbfbf" points="586,-56.5 586,-75.5 655,-75.5 655,-56.5 586,-56.5"/>
<text text-anchor="middle" x="620.5" y="-63.5" font-family="Helvetica,sans-Serif" font-size="10.00">type_traits</text>
</a>
</g>
</g>
<!-- Node6&#45;&gt;Node9 -->
<g id="edge8" class="edge">
<title>Node6&#45;&gt;Node9</title>
<path fill="none" stroke="midnightblue" d="M494.27,-112.44C519.39,-103.4 559.21,-89.06 587.4,-78.92"/>
<polygon fill="midnightblue" stroke="midnightblue" points="588.62,-82.2 596.84,-75.52 586.25,-75.61 588.62,-82.2"/>
</g>
<!-- Node10 -->
<g id="node10" class="node">
<title>Node10</title>
<g id="a_node10"><a xlink:title=" ">
<polygon fill="white" stroke="#bfbfbf" points="420,-56.5 420,-75.5 505,-75.5 505,-56.5 420,-56.5"/>
<text text-anchor="middle" x="462.5" y="-63.5" font-family="Helvetica,sans-Serif" font-size="10.00">itkConfigure.h</text>
</a>
</g>
</g>
<!-- Node6&#45;&gt;Node10 -->
<g id="edge9" class="edge">
<title>Node6&#45;&gt;Node10</title>
<path fill="none" stroke="midnightblue" d="M469.18,-112.08C468.12,-104.93 466.59,-94.64 465.27,-85.69"/>
<polygon fill="midnightblue" stroke="midnightblue" points="468.72,-85.13 463.8,-75.75 461.8,-86.16 468.72,-85.13"/>
</g>
<!-- Node11&#45;&gt;Node5 -->
<g id="edge11" class="edge">
<title>Node11&#45;&gt;Node5</title>
<path fill="none" stroke="midnightblue" d="M278.36,-112.11C280.26,-97.71 286.24,-69.53 304.5,-56 337.2,-31.77 608.5,-17.56 716.96,-12.81"/>
<polygon fill="midnightblue" stroke="midnightblue" points="717.39,-16.29 727.23,-12.36 717.09,-9.3 717.39,-16.29"/>
</g>
<!-- Node12 -->
<g id="node12" class="node">
<title>Node12</title>
<g id="a_node12"><a xlink:href="itkIntTypes_8h.html" target="_top" xlink:title=" ">
<polygon fill="white" stroke="black" points="46,-56.5 46,-75.5 125,-75.5 125,-56.5 46,-56.5"/>
<text text-anchor="middle" x="85.5" y="-63.5" font-family="Helvetica,sans-Serif" font-size="10.00">itkIntTypes.h</text>
</a>
</g>
</g>
<!-- Node11&#45;&gt;Node12 -->
<g id="edge12" class="edge">
<title>Node11&#45;&gt;Node12</title>
<path fill="none" stroke="midnightblue" d="M247.08,-112.44C214.22,-103.2 161.72,-88.44 125.53,-78.26"/>
<polygon fill="midnightblue" stroke="midnightblue" points="126.35,-74.85 115.78,-75.52 124.46,-81.59 126.35,-74.85"/>
</g>
<!-- Node11&#45;&gt;Node15 -->
<g id="edge16" class="edge">
<title>Node11&#45;&gt;Node15</title>
<path fill="none" stroke="midnightblue" d="M287.3,-112.32C296.32,-104.34 309.91,-92.31 320.82,-82.65"/>
<polygon fill="midnightblue" stroke="midnightblue" points="323.35,-85.08 328.52,-75.83 318.71,-79.84 323.35,-85.08"/>
</g>
<!-- Node11&#45;&gt;Node16 -->
<g id="edge17" class="edge">
<title>Node11&#45;&gt;Node16</title>
<path fill="none" stroke="midnightblue" d="M265.13,-112.32C253.34,-104.06 235.37,-91.45 221.36,-81.63"/>
<polygon fill="midnightblue" stroke="midnightblue" points="223.04,-78.53 212.84,-75.65 219.02,-84.26 223.04,-78.53"/>
</g>
<!-- Node12&#45;&gt;Node5 -->
<g id="edge13" class="edge">
<title>Node12&#45;&gt;Node5</title>
<path fill="none" stroke="midnightblue" d="M125.02,-57.36C128.22,-56.85 131.41,-56.39 134.5,-56 352.2,-28.28 614.77,-16.34 717.39,-12.5"/>
<polygon fill="midnightblue" stroke="midnightblue" points="717.52,-15.99 727.39,-12.13 717.26,-9 717.52,-15.99"/>
</g>
<!-- Node13 -->
<g id="node13" class="node">
<title>Node13</title>
<g id="a_node13"><a xlink:title=" ">
<polygon fill="white" stroke="#bfbfbf" points="94.5,-0.5 94.5,-19.5 144.5,-19.5 144.5,-0.5 94.5,-0.5"/>
<text text-anchor="middle" x="119.5" y="-7.5" font-family="Helvetica,sans-Serif" font-size="10.00">cstdint</text>
</a>
</g>
</g>
<!-- Node12&#45;&gt;Node13 -->
<g id="edge14" class="edge">
<title>Node12&#45;&gt;Node13</title>
<path fill="none" stroke="midnightblue" d="M91.11,-56.08C95.87,-48.53 102.82,-37.49 108.65,-28.23"/>
<polygon fill="midnightblue" stroke="midnightblue" points="111.62,-30.08 113.99,-19.75 105.7,-26.35 111.62,-30.08"/>
</g>
<!-- Node14 -->
<g id="node14" class="node">
<title>Node14</title>
<g id="a_node14"><a xlink:title=" ">
<polygon fill="white" stroke="#bfbfbf" points="26.5,-0.5 26.5,-19.5 76.5,-19.5 76.5,-0.5 26.5,-0.5"/>
<text text-anchor="middle" x="51.5" y="-7.5" font-family="Helvetica,sans-Serif" font-size="10.00">climits</text>
</a>
</g>
</g>
<!-- Node12&#45;&gt;Node14 -->
<g id="edge15" class="edge">
<title>Node12&#45;&gt;Node14</title>
<path fill="none" stroke="midnightblue" d="M79.89,-56.08C75.13,-48.53 68.18,-37.49 62.35,-28.23"/>
<polygon fill="midnightblue" stroke="midnightblue" points="65.3,-26.35 57.01,-19.75 59.38,-30.08 65.3,-26.35"/>
</g>
<!-- Node17&#45;&gt;Node5 -->
<g id="edge19" class="edge">
<title>Node17&#45;&gt;Node5</title>
<path fill="none" stroke="midnightblue" d="M735.7,-112.37C740.22,-94.62 750.64,-53.67 756.77,-29.6"/>
<polygon fill="midnightblue" stroke="midnightblue" points="760.24,-30.15 759.31,-19.59 753.45,-28.42 760.24,-30.15"/>
</g>
<!-- Node17&#45;&gt;Node7 -->
<g id="edge20" class="edge">
<title>Node17&#45;&gt;Node7</title>
<path fill="none" stroke="midnightblue" d="M728.55,-112.08C724.4,-104.61 718.35,-93.72 713.23,-84.52"/>
<polygon fill="midnightblue" stroke="midnightblue" points="716.28,-82.79 708.36,-75.75 710.16,-86.19 716.28,-82.79"/>
</g>
<!-- Node19&#45;&gt;Node17 -->
<g id="edge25" class="edge">
<title>Node19&#45;&gt;Node17</title>
<path fill="none" stroke="midnightblue" d="M739.34,-168.08C738.42,-160.93 737.08,-150.64 735.92,-141.69"/>
<polygon fill="midnightblue" stroke="midnightblue" points="739.39,-141.22 734.63,-131.75 732.45,-142.12 739.39,-141.22"/>
</g>
<!-- Node21 -->
<g id="node21" class="node">
<title>Node21</title>
<g id="a_node21"><a xlink:href="itkMetaDataObjectBase_8h.html" target="_top" xlink:title=" ">
<polygon fill="white" stroke="black" points="451.5,-230 451.5,-249 593.5,-249 593.5,-230 451.5,-230"/>
<text text-anchor="middle" x="522.5" y="-237" font-family="Helvetica,sans-Serif" font-size="10.00">itkMetaDataObjectBase.h</text>
</a>
</g>
</g>
<!-- Node20&#45;&gt;Node21 -->
<g id="edge27" class="edge">
<title>Node20&#45;&gt;Node21</title>
<path fill="none" stroke="midnightblue" d="M438.27,-302.36C454.25,-290.62 483.03,-269.48 502.45,-255.22"/>
<polygon fill="midnightblue" stroke="midnightblue" points="504.64,-257.96 510.63,-249.22 500.5,-252.31 504.64,-257.96"/>
</g>
<!-- Node22 -->
<g id="node22" class="node">
<title>Node22</title>
<g id="a_node22"><a xlink:title=" ">
<polygon fill="white" stroke="#bfbfbf" points="725.5,-230 725.5,-249 789.5,-249 789.5,-230 725.5,-230"/>
<text text-anchor="middle" x="757.5" y="-237" font-family="Helvetica,sans-Serif" font-size="10.00">algorithm</text>
</a>
</g>
</g>
<!-- Node20&#45;&gt;Node22 -->
<g id="edge31" class="edge">
<title>Node20&#45;&gt;Node22</title>
<path fill="none" stroke="midnightblue" d="M457.08,-302.41C471.15,-298.62 488.1,-294.29 503.5,-291 597.38,-270.91 623.56,-279.1 716.5,-255 719.54,-254.21 722.68,-253.29 725.81,-252.31"/>
<polygon fill="midnightblue" stroke="midnightblue" points="727.22,-255.53 735.59,-249.03 724.99,-248.89 727.22,-255.53"/>
</g>
<!-- Node23 -->
<g id="node23" class="node">
<title>Node23</title>
<g id="a_node23"><a xlink:title=" ">
<polygon fill="white" stroke="#bfbfbf" points="230,-230 230,-249 277,-249 277,-230 230,-230"/>
<text text-anchor="middle" x="253.5" y="-237" font-family="Helvetica,sans-Serif" font-size="10.00">vector</text>
</a>
</g>
</g>
<!-- Node20&#45;&gt;Node23 -->
<g id="edge32" class="edge">
<title>Node20&#45;&gt;Node23</title>
<path fill="none" stroke="midnightblue" d="M405.63,-302.5C375.37,-290.16 319.1,-267.23 284.13,-252.98"/>
<polygon fill="midnightblue" stroke="midnightblue" points="285.02,-249.57 274.44,-249.03 282.38,-256.05 285.02,-249.57"/>
</g>
<!-- Node24 -->
<g id="node24" class="node">
<title>Node24</title>
<g id="a_node24"><a xlink:title=" ">
<polygon fill="white" stroke="#bfbfbf" points="333.5,-230 333.5,-249 371.5,-249 371.5,-230 333.5,-230"/>
<text text-anchor="middle" x="352.5" y="-237" font-family="Helvetica,sans-Serif" font-size="10.00">map</text>
</a>
</g>
</g>
<!-- Node20&#45;&gt;Node24 -->
<g id="edge33" class="edge">
<title>Node20&#45;&gt;Node24</title>
<path fill="none" stroke="midnightblue" d="M417.43,-302.36C405.44,-290.94 384.12,-270.62 369.18,-256.4"/>
<polygon fill="midnightblue" stroke="midnightblue" points="371.3,-253.58 361.65,-249.22 366.47,-258.65 371.3,-253.58"/>
</g>
<!-- Node25 -->
<g id="node25" class="node">
<title>Node25</title>
<g id="a_node25"><a xlink:title=" ">
<polygon fill="white" stroke="#bfbfbf" points="389.5,-230 389.5,-249 433.5,-249 433.5,-230 389.5,-230"/>
<text text-anchor="middle" x="411.5" y="-237" font-family="Helvetica,sans-Serif" font-size="10.00">string</text>
</a>
</g>
</g>
<!-- Node20&#45;&gt;Node25 -->
<g id="edge34" class="edge">
<title>Node20&#45;&gt;Node25</title>
<path fill="none" stroke="midnightblue" d="M424.66,-302.36C422.39,-291.68 418.46,-273.22 415.49,-259.23"/>
<polygon fill="midnightblue" stroke="midnightblue" points="418.86,-258.27 413.35,-249.22 412.01,-259.72 418.86,-258.27"/>
</g>
<!-- Node26 -->
<g id="node26" class="node">
<title>Node26</title>
<g id="a_node26"><a xlink:title=" ">
<polygon fill="white" stroke="#bfbfbf" points="649.5,-230 649.5,-249 707.5,-249 707.5,-230 649.5,-230"/>
<text text-anchor="middle" x="678.5" y="-237" font-family="Helvetica,sans-Serif" font-size="10.00">memory</text>
</a>
</g>
</g>
<!-- Node20&#45;&gt;Node26 -->
<g id="edge35" class="edge">
<title>Node20&#45;&gt;Node26</title>
<path fill="none" stroke="midnightblue" d="M456.9,-302.5C502.58,-289.72 588.93,-265.56 639.29,-251.47"/>
<polygon fill="midnightblue" stroke="midnightblue" points="640.48,-254.77 649.17,-248.71 638.59,-248.03 640.48,-254.77"/>
</g>
<!-- Node21&#45;&gt;Node4 -->
<g id="edge28" class="edge">
<title>Node21&#45;&gt;Node4</title>
<path fill="none" stroke="midnightblue" d="M515.05,-229.98C507.17,-220.96 494.56,-206.52 484.76,-195.31"/>
<polygon fill="midnightblue" stroke="midnightblue" points="487.15,-192.74 477.94,-187.51 481.88,-197.34 487.15,-192.74"/>
</g>
<!-- Node21&#45;&gt;Node7 -->
<g id="edge30" class="edge">
<title>Node21&#45;&gt;Node7</title>
<path fill="none" stroke="midnightblue" d="M533.31,-229.78C555.06,-212.09 605.36,-170.39 644.5,-132 660.57,-116.24 677.73,-97.04 689.37,-83.61"/>
<polygon fill="midnightblue" stroke="midnightblue" points="692.3,-85.57 696.17,-75.71 686.99,-81.01 692.3,-85.57"/>
</g>
<!-- Node21&#45;&gt;Node18 -->
<g id="edge29" class="edge">
<title>Node21&#45;&gt;Node18</title>
<path fill="none" stroke="midnightblue" d="M528.81,-229.82C542.68,-210.76 575.99,-164.95 594.17,-139.96"/>
<polygon fill="midnightblue" stroke="midnightblue" points="597.06,-141.93 600.11,-131.78 591.4,-137.81 597.06,-141.93"/>
</g>
<!-- Node29 -->
<g id="node29" class="node">
<title>Node29</title>
<g id="a_node29"><a xlink:href="itkObjectFactoryBase_8h.html" target="_top" xlink:title=" ">
<polygon fill="white" stroke="black" points="211,-481.5 211,-500.5 340,-500.5 340,-481.5 211,-481.5"/>
<text text-anchor="middle" x="275.5" y="-488.5" font-family="Helvetica,sans-Serif" font-size="10.00">itkObjectFactoryBase.h</text>
</a>
</g>
</g>
<!-- Node28&#45;&gt;Node29 -->
<g id="edge39" class="edge">
<title>Node28&#45;&gt;Node29</title>
<path fill="none" stroke="midnightblue" d="M350.2,-537.32C336.32,-528.9 315.01,-515.97 298.7,-506.07"/>
<polygon fill="midnightblue" stroke="midnightblue" points="300.13,-502.85 289.76,-500.65 296.5,-508.83 300.13,-502.85"/>
</g>
<!-- Node29&#45;&gt;Node16 -->
<g id="edge42" class="edge">
<title>Node29&#45;&gt;Node16</title>
<path fill="none" stroke="midnightblue" d="M255.48,-481.44C223.26,-466.17 163.5,-430.97 163.5,-380 163.5,-380 163.5,-380 163.5,-177 163.5,-142.89 179.68,-105.79 190.64,-84.57"/>
<polygon fill="midnightblue" stroke="midnightblue" points="193.86,-85.98 195.51,-75.51 187.69,-82.66 193.86,-85.98"/>
</g>
<!-- Node29&#45;&gt;Node23 -->
<g id="edge47" class="edge">
<title>Node29&#45;&gt;Node23</title>
<path fill="none" stroke="midnightblue" d="M274.74,-481.41C271.6,-445.8 259.56,-309.25 255.14,-259.11"/>
<polygon fill="midnightblue" stroke="midnightblue" points="258.62,-258.71 254.25,-249.05 251.65,-259.32 258.62,-258.71"/>
</g>
<!-- Node30 -->
<g id="node30" class="node">
<title>Node30</title>
<g id="a_node30"><a xlink:href="itkCreateObjectFunction_8h.html" target="_top" xlink:title=" ">
<polygon fill="white" stroke="black" points="365,-425.5 365,-444.5 508,-444.5 508,-425.5 365,-425.5"/>
<text text-anchor="middle" x="436.5" y="-432.5" font-family="Helvetica,sans-Serif" font-size="10.00">itkCreateObjectFunction.h</text>
</a>
</g>
</g>
<!-- Node29&#45;&gt;Node30 -->
<g id="edge40" class="edge">
<title>Node29&#45;&gt;Node30</title>
<path fill="none" stroke="midnightblue" d="M301.01,-481.44C328.1,-472.36 371.09,-457.94 401.37,-447.78"/>
<polygon fill="midnightblue" stroke="midnightblue" points="402.74,-451.01 411.11,-444.52 400.51,-444.38 402.74,-451.01"/>
</g>
<!-- Node31 -->
<g id="node31" class="node">
<title>Node31</title>
<g id="a_node31"><a xlink:href="itkCommonEnums_8h.html" target="_top" xlink:title=" ">
<polygon fill="white" stroke="black" points="19.5,-425.5 19.5,-444.5 135.5,-444.5 135.5,-425.5 19.5,-425.5"/>
<text text-anchor="middle" x="77.5" y="-432.5" font-family="Helvetica,sans-Serif" font-size="10.00">itkCommonEnums.h</text>
</a>
</g>
</g>
<!-- Node29&#45;&gt;Node31 -->
<g id="edge43" class="edge">
<title>Node29&#45;&gt;Node31</title>
<path fill="none" stroke="midnightblue" d="M244.13,-481.44C210.24,-472.2 156.1,-457.44 118.78,-447.26"/>
<polygon fill="midnightblue" stroke="midnightblue" points="119.3,-443.77 108.73,-444.52 117.45,-450.52 119.3,-443.77"/>
</g>
<!-- Node33 -->
<g id="node33" class="node">
<title>Node33</title>
<g id="a_node33"><a xlink:title=" ">
<polygon fill="white" stroke="#bfbfbf" points="281.5,-425.5 281.5,-444.5 313.5,-444.5 313.5,-425.5 281.5,-425.5"/>
<text text-anchor="middle" x="297.5" y="-432.5" font-family="Helvetica,sans-Serif" font-size="10.00">list</text>
</a>
</g>
</g>
<!-- Node29&#45;&gt;Node33 -->
<g id="edge46" class="edge">
<title>Node29&#45;&gt;Node33</title>
<path fill="none" stroke="midnightblue" d="M279.13,-481.08C282.11,-473.77 286.43,-463.18 290.12,-454.1"/>
<polygon fill="midnightblue" stroke="midnightblue" points="293.4,-455.33 293.93,-444.75 286.92,-452.69 293.4,-455.33"/>
</g>
<!-- Node30&#45;&gt;Node3 -->
<g id="edge41" class="edge">
<title>Node30&#45;&gt;Node3</title>
<path fill="none" stroke="midnightblue" d="M439.31,-425.08C441.58,-417.85 444.87,-407.41 447.71,-398.4"/>
<polygon fill="midnightblue" stroke="midnightblue" points="451.08,-399.34 450.75,-388.75 444.4,-397.24 451.08,-399.34"/>
</g>
<!-- Node31&#45;&gt;Node12 -->
<g id="edge44" class="edge">
<title>Node31&#45;&gt;Node12</title>
<path fill="none" stroke="midnightblue" d="M78.48,-425.21C80.62,-405.27 85.5,-355.11 85.5,-313 85.5,-313 85.5,-313 85.5,-177 85.5,-144.95 85.5,-107.64 85.5,-85.75"/>
<polygon fill="midnightblue" stroke="midnightblue" points="89,-85.56 85.5,-75.56 82,-85.56 89,-85.56"/>
</g>
<!-- Node32 -->
<g id="node32" class="node">
<title>Node32</title>
<g id="a_node32"><a xlink:title=" ">
<polygon fill="white" stroke="#bfbfbf" points="0,-369.5 0,-388.5 57,-388.5 57,-369.5 0,-369.5"/>
<text text-anchor="middle" x="28.5" y="-376.5" font-family="Helvetica,sans-Serif" font-size="10.00">ostream</text>
</a>
</g>
</g>
<!-- Node31&#45;&gt;Node32 -->
<g id="edge45" class="edge">
<title>Node31&#45;&gt;Node32</title>
<path fill="none" stroke="midnightblue" d="M69.41,-425.08C62.34,-417.3 51.91,-405.8 43.35,-396.37"/>
<polygon fill="midnightblue" stroke="midnightblue" points="45.75,-393.8 36.44,-388.75 40.57,-398.51 45.75,-393.8"/>
</g>
<!-- Node34&#45;&gt;Node5 -->
<g id="edge49" class="edge">
<title>Node34&#45;&gt;Node5</title>
<path fill="none" stroke="midnightblue" d="M876.93,-375.26C827.68,-370.27 736.17,-357.82 716.5,-333 704.9,-318.37 706.29,-306.63 716.5,-291 738.26,-257.68 772.83,-285.42 798.5,-255 820.96,-228.39 817.5,-213.82 817.5,-179 817.5,-179 817.5,-179 817.5,-121 817.5,-84.44 792.62,-47.75 776.03,-27.34"/>
<polygon fill="midnightblue" stroke="midnightblue" points="778.65,-25.02 769.52,-19.64 773.3,-29.54 778.65,-25.02"/>
</g>
<!-- Node35 -->
<g id="node35" class="node">
<title>Node35</title>
<g id="a_node35"><a xlink:title=" ">
<polygon fill="white" stroke="#bfbfbf" points="928.5,-302.5 928.5,-321.5 1010.5,-321.5 1010.5,-302.5 928.5,-302.5"/>
<text text-anchor="middle" x="969.5" y="-309.5" font-family="Helvetica,sans-Serif" font-size="10.00">vxl_version.h</text>
</a>
</g>
</g>
<!-- Node34&#45;&gt;Node35 -->
<g id="edge50" class="edge">
<title>Node34&#45;&gt;Node35</title>
<path fill="none" stroke="midnightblue" d="M916.73,-369.23C926.33,-359 942.41,-341.86 954.3,-329.19"/>
<polygon fill="midnightblue" stroke="midnightblue" points="957.11,-331.31 961.4,-321.63 952.01,-326.52 957.11,-331.31"/>
</g>
<!-- Node36 -->
<g id="node36" class="node">
<title>Node36</title>
<g id="a_node36"><a xlink:title=" ">
<polygon fill="white" stroke="#bfbfbf" points="1028.5,-302.5 1028.5,-321.5 1122.5,-321.5 1122.5,-302.5 1028.5,-302.5"/>
<text text-anchor="middle" x="1075.5" y="-309.5" font-family="Helvetica,sans-Serif" font-size="10.00">vnl/vnl_vector.h</text>
</a>
</g>
</g>
<!-- Node34&#45;&gt;Node36 -->
<g id="edge51" class="edge">
<title>Node34&#45;&gt;Node36</title>
<path fill="none" stroke="midnightblue" d="M930.68,-369.37C959.7,-358.07 1010.77,-338.2 1043.85,-325.32"/>
<polygon fill="midnightblue" stroke="midnightblue" points="1045.45,-328.45 1053.5,-321.56 1042.91,-321.93 1045.45,-328.45"/>
</g>
<!-- Node37 -->
<g id="node37" class="node">
<title>Node37</title>
<g id="a_node37"><a xlink:title=" ">
<polygon fill="white" stroke="#bfbfbf" points="1141,-302.5 1141,-321.5 1216,-321.5 1216,-302.5 1141,-302.5"/>
<text text-anchor="middle" x="1178.5" y="-309.5" font-family="Helvetica,sans-Serif" font-size="10.00">itkArray.hxx</text>
</a>
</g>
</g>
<!-- Node34&#45;&gt;Node37 -->
<g id="edge52" class="edge">
<title>Node34&#45;&gt;Node37</title>
<path fill="none" stroke="midnightblue" d="M940.03,-373.7C983.69,-367.29 1064.73,-353.71 1131.5,-333 1137.95,-331 1144.72,-328.42 1151.05,-325.78"/>
<polygon fill="midnightblue" stroke="midnightblue" points="1152.74,-328.86 1160.52,-321.67 1149.95,-322.44 1152.74,-328.86"/>
</g>
<!-- Node38 -->
<g id="node38" class="node">
<title>Node38</title>
<g id="a_node38"><a xlink:title=" ">
<polygon fill="white" stroke="#bfbfbf" points="725,-291.5 725,-332.5 910,-332.5 910,-291.5 725,-291.5"/>
<text text-anchor="start" x="733" y="-320.5" font-family="Helvetica,sans-Serif" font-size="10.00">/work/ITK/Modules/Core</text>
<text text-anchor="start" x="733" y="-309.5" font-family="Helvetica,sans-Serif" font-size="10.00">/Common/include/itkNumericTraits</text>
<text text-anchor="middle" x="817.5" y="-298.5" font-family="Helvetica,sans-Serif" font-size="10.00">ArrayPixel.h</text>
</a>
</g>
</g>
<!-- Node34&#45;&gt;Node38 -->
<g id="edge53" class="edge">
<title>Node34&#45;&gt;Node38</title>
<path fill="none" stroke="midnightblue" d="M896.23,-369.23C885.18,-361.34 868.37,-349.34 853.12,-338.45"/>
<polygon fill="midnightblue" stroke="midnightblue" points="855.03,-335.51 844.86,-332.54 850.96,-341.2 855.03,-335.51"/>
</g>
<!-- Node39&#45;&gt;Node26 -->
<g id="edge59" class="edge">
<title>Node39&#45;&gt;Node26</title>
<path fill="none" stroke="midnightblue" d="M731.35,-481.47C712.55,-474.85 690.8,-463.57 679.5,-445 643.21,-385.38 662.07,-296.73 672.77,-258.79"/>
<polygon fill="midnightblue" stroke="midnightblue" points="676.15,-259.7 675.65,-249.12 669.44,-257.71 676.15,-259.7"/>
</g>
<!-- Node39&#45;&gt;Node34 -->
<g id="edge55" class="edge">
<title>Node39&#45;&gt;Node34</title>
<path fill="none" stroke="midnightblue" d="M799.76,-481.37C821.91,-474.44 850.28,-462.85 870.5,-445 885.01,-432.19 895.45,-412.45 901.67,-398.09"/>
<polygon fill="midnightblue" stroke="midnightblue" points="904.94,-399.34 905.45,-388.75 898.45,-396.71 904.94,-399.34"/>
</g>
<!-- Node40 -->
<g id="node40" class="node">
<title>Node40</title>
<g id="a_node40"><a xlink:href="itkOptimizerParametersHelper_8h.html" target="_top" xlink:title=" ">
<polygon fill="white" stroke="black" points="688,-425.5 688,-444.5 861,-444.5 861,-425.5 688,-425.5"/>
<text text-anchor="middle" x="774.5" y="-432.5" font-family="Helvetica,sans-Serif" font-size="10.00">itkOptimizerParametersHelper.h</text>
</a>
</g>
</g>
<!-- Node39&#45;&gt;Node40 -->
<g id="edge56" class="edge">
<title>Node39&#45;&gt;Node40</title>
<path fill="none" stroke="midnightblue" d="M766.99,-481.08C768.18,-473.93 769.89,-463.64 771.38,-454.69"/>
<polygon fill="midnightblue" stroke="midnightblue" points="774.85,-455.19 773.04,-444.75 767.95,-454.04 774.85,-455.19"/>
</g>
<!-- Node40&#45;&gt;Node3 -->
<g id="edge57" class="edge">
<title>Node40&#45;&gt;Node3</title>
<path fill="none" stroke="midnightblue" d="M723.64,-425.44C661.76,-415.04 558.25,-397.62 498.94,-387.64"/>
<polygon fill="midnightblue" stroke="midnightblue" points="499.2,-384.14 488.76,-385.93 498.04,-391.04 499.2,-384.14"/>
</g>
<!-- Node40&#45;&gt;Node34 -->
<g id="edge58" class="edge">
<title>Node40&#45;&gt;Node34</title>
<path fill="none" stroke="midnightblue" d="M795.73,-425.44C817.88,-416.52 852.82,-402.44 877.94,-392.32"/>
<polygon fill="midnightblue" stroke="midnightblue" points="879.4,-395.5 887.37,-388.52 876.78,-389.01 879.4,-395.5"/>
</g>
<!-- Node42&#45;&gt;Node5 -->
<g id="edge62" class="edge">
<title>Node42&#45;&gt;Node5</title>
<path fill="none" stroke="midnightblue" d="M1353.9,-369.27C1346.51,-352.26 1328.14,-314.33 1302.5,-291 1276.33,-267.19 1253.73,-282.52 1231.5,-255 1209.55,-227.83 1211.5,-213.93 1211.5,-179 1211.5,-179 1211.5,-179 1211.5,-121 1211.5,-38.04 919.24,-17.35 805.78,-12.45"/>
<polygon fill="midnightblue" stroke="midnightblue" points="805.83,-8.95 795.69,-12.03 805.54,-15.94 805.83,-8.95"/>
</g>
<!-- Node43 -->
<g id="node43" class="node">
<title>Node43</title>
<g id="a_node43"><a xlink:title=" ">
<polygon fill="white" stroke="#bfbfbf" points="1495.5,-302.5 1495.5,-321.5 1539.5,-321.5 1539.5,-302.5 1495.5,-302.5"/>
<text text-anchor="middle" x="1517.5" y="-309.5" font-family="Helvetica,sans-Serif" font-size="10.00">limits</text>
</a>
</g>
</g>
<!-- Node42&#45;&gt;Node43 -->
<g id="edge63" class="edge">
<title>Node42&#45;&gt;Node43</title>
<path fill="none" stroke="midnightblue" d="M1385.09,-369.39C1410.55,-361.11 1449.2,-347.72 1481.5,-333 1485.79,-331.05 1490.25,-328.77 1494.52,-326.47"/>
<polygon fill="midnightblue" stroke="midnightblue" points="1496.38,-329.45 1503.4,-321.51 1492.97,-323.33 1496.38,-329.45"/>
</g>
<!-- Node44 -->
<g id="node44" class="node">
<title>Node44</title>
<g id="a_node44"><a xlink:title=" ">
<polygon fill="white" stroke="#bfbfbf" points="1234,-302.5 1234,-321.5 1293,-321.5 1293,-302.5 1234,-302.5"/>
<text text-anchor="middle" x="1263.5" y="-309.5" font-family="Helvetica,sans-Serif" font-size="10.00">complex</text>
</a>
</g>
</g>
<!-- Node42&#45;&gt;Node44 -->
<g id="edge64" class="edge">
<title>Node42&#45;&gt;Node44</title>
<path fill="none" stroke="midnightblue" d="M1344.82,-369.23C1329.32,-358.51 1302.86,-340.22 1284.34,-327.41"/>
<polygon fill="midnightblue" stroke="midnightblue" points="1286.19,-324.44 1275.98,-321.63 1282.21,-330.19 1286.19,-324.44"/>
</g>
<!-- Node45 -->
<g id="node45" class="node">
<title>Node45</title>
<g id="a_node45"><a xlink:href="itkFixedArray_8h.html" target="_top" xlink:title=" ">
<polygon fill="white" stroke="black" points="1350,-302.5 1350,-321.5 1439,-321.5 1439,-302.5 1350,-302.5"/>
<text text-anchor="middle" x="1394.5" y="-309.5" font-family="Helvetica,sans-Serif" font-size="10.00">itkFixedArray.h</text>
</a>
</g>
</g>
<!-- Node42&#45;&gt;Node45 -->
<g id="edge65" class="edge">
<title>Node42&#45;&gt;Node45</title>
<path fill="none" stroke="midnightblue" d="M1362.49,-369.23C1368.09,-359.39 1377.33,-343.16 1384.45,-330.66"/>
<polygon fill="midnightblue" stroke="midnightblue" points="1387.68,-332.05 1389.59,-321.63 1381.6,-328.59 1387.68,-332.05"/>
</g>
<!-- Node45&#45;&gt;Node5 -->
<g id="edge66" class="edge">
<title>Node45&#45;&gt;Node5</title>
<path fill="none" stroke="midnightblue" d="M1391.73,-302.46C1385.22,-281.61 1369.5,-226.35 1369.5,-179 1369.5,-179 1369.5,-179 1369.5,-121 1369.5,-50.78 1293.35,-74.08 1225.5,-56 1075.32,-15.99 889.35,-10.69 805.8,-10.53"/>
<polygon fill="midnightblue" stroke="midnightblue" points="805.65,-7.03 795.65,-10.54 805.65,-14.03 805.65,-7.03"/>
</g>
<!-- Node45&#45;&gt;Node22 -->
<g id="edge67" class="edge">
<title>Node45&#45;&gt;Node22</title>
<path fill="none" stroke="midnightblue" d="M1360.17,-302.5C1342.95,-298.5 1321.72,-293.97 1302.5,-291 1116.22,-262.23 891.42,-247.73 799.62,-242.65"/>
<polygon fill="midnightblue" stroke="midnightblue" points="799.79,-239.16 789.61,-242.11 799.41,-246.15 799.79,-239.16"/>
</g>
<!-- Node46 -->
<g id="node46" class="node">
<title>Node46</title>
<g id="a_node46"><a xlink:title=" ">
<polygon fill="white" stroke="#bfbfbf" points="1397.5,-230 1397.5,-249 1439.5,-249 1439.5,-230 1397.5,-230"/>
<text text-anchor="middle" x="1418.5" y="-237" font-family="Helvetica,sans-Serif" font-size="10.00">array</text>
</a>
</g>
</g>
<!-- Node45&#45;&gt;Node46 -->
<g id="edge68" class="edge">
<title>Node45&#45;&gt;Node46</title>
<path fill="none" stroke="midnightblue" d="M1397.44,-302.36C1401.11,-291.57 1407.49,-272.85 1412.26,-258.82"/>
<polygon fill="midnightblue" stroke="midnightblue" points="1415.62,-259.81 1415.53,-249.22 1409,-257.55 1415.62,-259.81"/>
</g>
<!-- Node47 -->
<g id="node47" class="node">
<title>Node47</title>
<g id="a_node47"><a xlink:title=" ">
<polygon fill="white" stroke="#bfbfbf" points="1240,-230 1240,-249 1341,-249 1341,-230 1240,-230"/>
<text text-anchor="middle" x="1290.5" y="-237" font-family="Helvetica,sans-Serif" font-size="10.00">itkFixedArray.hxx</text>
</a>
</g>
</g>
<!-- Node45&#45;&gt;Node47 -->
<g id="edge69" class="edge">
<title>Node45&#45;&gt;Node47</title>
<path fill="none" stroke="midnightblue" d="M1381.75,-302.36C1364.28,-290.52 1332.69,-269.1 1311.66,-254.84"/>
<polygon fill="midnightblue" stroke="midnightblue" points="1313.6,-251.93 1303.36,-249.22 1309.67,-257.72 1313.6,-251.93"/>
</g>
<!-- Node48 -->
<g id="node48" class="node">
<title>Node48</title>
<g id="a_node48"><a xlink:href="itkNumericTraitsFixedArrayPixel_8h.html" target="_top" xlink:title=" ">
<polygon fill="white" stroke="black" points="1457,-224.5 1457,-254.5 1606,-254.5 1606,-224.5 1457,-224.5"/>
<text text-anchor="start" x="1465" y="-242.5" font-family="Helvetica,sans-Serif" font-size="10.00">itkNumericTraitsFixedArray</text>
<text text-anchor="middle" x="1531.5" y="-231.5" font-family="Helvetica,sans-Serif" font-size="10.00">Pixel.h</text>
</a>
</g>
</g>
<!-- Node45&#45;&gt;Node48 -->
<g id="edge70" class="edge">
<title>Node45&#45;&gt;Node48</title>
<path fill="none" stroke="midnightblue" d="M1406.68,-302.36C1425.23,-291.65 1460.76,-273.13 1489.26,-259.13"/>
<polygon fill="midnightblue" stroke="midnightblue" points="1491.16,-262.1 1498.62,-254.58 1488.1,-255.8 1491.16,-262.1"/>
</g>
<!-- Node48&#45;&gt;Node42 -->
<g id="edge71" class="edge">
<title>Node48&#45;&gt;Node42</title>
<path fill="none" stroke="midnightblue" d="M1518.72,-254.81C1495.7,-280.58 1449.53,-332.22 1448.5,-333 1430.65,-346.55 1408.08,-357.74 1389.89,-365.57"/>
<polygon fill="midnightblue" stroke="midnightblue" points="1388.44,-362.39 1380.55,-369.47 1391.13,-368.85 1388.44,-362.39"/>
</g>
<!-- Node48&#45;&gt;Node45 -->
<g id="edge72" class="edge">
<title>Node48&#45;&gt;Node45</title>
<path fill="none" stroke="midnightblue" d="M1509.56,-254.64C1486.57,-267.33 1450.6,-285.81 1424.9,-298.11"/>
<polygon fill="midnightblue" stroke="midnightblue" points="1423.16,-295.06 1415.61,-302.5 1426.15,-301.39 1423.16,-295.06"/>
</g>
</g>
</svg>
