<?xml version="1.0" encoding="UTF-8" standalone="no"?>
<!DOCTYPE svg PUBLIC "-//W3C//DTD SVG 1.1//EN"
 "http://www.w3.org/Graphics/SVG/1.1/DTD/svg11.dtd">
<!-- Generated by graphviz version 2.43.0 (0)
 -->
<!-- Title: itkTransformIOBase.h Pages: 1 -->
<svg width="1597pt" height="84pt"
 viewBox="0.00 0.00 1596.50 84.00" xmlns="http://www.w3.org/2000/svg" xmlns:xlink="http://www.w3.org/1999/xlink">
<g id="graph0" class="graph" transform="scale(1 1) rotate(0) translate(4 80)">
<title>itkTransformIOBase.h</title>
<polygon fill="white" stroke="transparent" points="-4,4 -4,-80 1592.5,-80 1592.5,4 -4,4"/>
<!-- Node1 -->
<g id="node1" class="node">
<title>Node1</title>
<g id="a_node1"><a xlink:title=" ">
<polygon fill="#bfbfbf" stroke="black" points="776,-56.5 776,-75.5 898,-75.5 898,-56.5 776,-56.5"/>
<text text-anchor="middle" x="837" y="-63.5" font-family="Helvetica,sans-Serif" font-size="10.00">itkTransformIOBase.h</text>
</a>
</g>
</g>
<!-- Node2 -->
<g id="node2" class="node">
<title>Node2</title>
<g id="a_node2"><a xlink:href="itkCompositeTransformIOHelper_8h.html" target="_top" xlink:title=" ">
<polygon fill="white" stroke="black" points="0,-0.5 0,-19.5 182,-19.5 182,-0.5 0,-0.5"/>
<text text-anchor="middle" x="91" y="-7.5" font-family="Helvetica,sans-Serif" font-size="10.00">itkCompositeTransformIOHelper.h</text>
</a>
</g>
</g>
<!-- Node1&#45;&gt;Node2 -->
<g id="edge1" class="edge">
<title>Node1&#45;&gt;Node2</title>
<path fill="none" stroke="midnightblue" d="M765.88,-60.52C646.86,-52.91 399.8,-36.67 191,-20 188.05,-19.76 185.04,-19.52 182.01,-19.27"/>
<polygon fill="midnightblue" stroke="midnightblue" points="765.76,-64.02 775.96,-61.16 766.2,-57.03 765.76,-64.02"/>
</g>
<!-- Node3 -->
<g id="node3" class="node">
<title>Node3</title>
<g id="a_node3"><a xlink:href="itkHDF5TransformIO_8h.html" target="_top" xlink:title=" ">
<polygon fill="white" stroke="black" points="200.5,-0.5 200.5,-19.5 325.5,-19.5 325.5,-0.5 200.5,-0.5"/>
<text text-anchor="middle" x="263" y="-7.5" font-family="Helvetica,sans-Serif" font-size="10.00">itkHDF5TransformIO.h</text>
</a>
</g>
</g>
<!-- Node1&#45;&gt;Node3 -->
<g id="edge2" class="edge">
<title>Node1&#45;&gt;Node3</title>
<path fill="none" stroke="midnightblue" d="M765.87,-59.41C668.51,-51.58 488.35,-36.45 335,-20 331.99,-19.68 328.92,-19.34 325.81,-18.98"/>
<polygon fill="midnightblue" stroke="midnightblue" points="765.64,-62.9 775.88,-60.21 766.2,-55.93 765.64,-62.9"/>
</g>
<!-- Node4 -->
<g id="node4" class="node">
<title>Node4</title>
<g id="a_node4"><a xlink:href="itkHDF5TransformIOFactory_8h.html" target="_top" xlink:title=" ">
<polygon fill="white" stroke="black" points="344,-0.5 344,-19.5 502,-19.5 502,-0.5 344,-0.5"/>
<text text-anchor="middle" x="423" y="-7.5" font-family="Helvetica,sans-Serif" font-size="10.00">itkHDF5TransformIOFactory.h</text>
</a>
</g>
</g>
<!-- Node1&#45;&gt;Node4 -->
<g id="edge3" class="edge">
<title>Node1&#45;&gt;Node4</title>
<path fill="none" stroke="midnightblue" d="M765.7,-55.7C687.77,-45.54 563.98,-29.39 488.44,-19.54"/>
<polygon fill="midnightblue" stroke="midnightblue" points="765.54,-59.21 775.91,-57.03 766.45,-52.27 765.54,-59.21"/>
</g>
<!-- Node5 -->
<g id="node5" class="node">
<title>Node5</title>
<g id="a_node5"><a xlink:href="itkMatlabTransformIO_8h.html" target="_top" xlink:title=" ">
<polygon fill="white" stroke="black" points="520.5,-0.5 520.5,-19.5 651.5,-19.5 651.5,-0.5 520.5,-0.5"/>
<text text-anchor="middle" x="586" y="-7.5" font-family="Helvetica,sans-Serif" font-size="10.00">itkMatlabTransformIO.h</text>
</a>
</g>
</g>
<!-- Node1&#45;&gt;Node5 -->
<g id="edge4" class="edge">
<title>Node1&#45;&gt;Node5</title>
<path fill="none" stroke="midnightblue" d="M787.18,-54.28C739.75,-44.08 669.3,-28.92 625.59,-19.52"/>
<polygon fill="midnightblue" stroke="midnightblue" points="786.72,-57.76 797.23,-56.44 788.19,-50.92 786.72,-57.76"/>
</g>
<!-- Node6 -->
<g id="node6" class="node">
<title>Node6</title>
<g id="a_node6"><a xlink:href="itkMatlabTransformIOFactory_8h.html" target="_top" xlink:title=" ">
<polygon fill="white" stroke="black" points="669.5,-0.5 669.5,-19.5 834.5,-19.5 834.5,-0.5 669.5,-0.5"/>
<text text-anchor="middle" x="752" y="-7.5" font-family="Helvetica,sans-Serif" font-size="10.00">itkMatlabTransformIOFactory.h</text>
</a>
</g>
</g>
<!-- Node1&#45;&gt;Node6 -->
<g id="edge5" class="edge">
<title>Node1&#45;&gt;Node6</title>
<path fill="none" stroke="midnightblue" d="M814.81,-50.9C799.22,-41 778.87,-28.07 765.62,-19.65"/>
<polygon fill="midnightblue" stroke="midnightblue" points="813.03,-53.92 823.34,-56.32 816.78,-48.01 813.03,-53.92"/>
</g>
<!-- Node7 -->
<g id="node7" class="node">
<title>Node7</title>
<g id="a_node7"><a xlink:href="itkTransformFileReader_8h.html" target="_top" xlink:title=" ">
<polygon fill="white" stroke="black" points="853,-0.5 853,-19.5 991,-19.5 991,-0.5 853,-0.5"/>
<text text-anchor="middle" x="922" y="-7.5" font-family="Helvetica,sans-Serif" font-size="10.00">itkTransformFileReader.h</text>
</a>
</g>
</g>
<!-- Node1&#45;&gt;Node7 -->
<g id="edge6" class="edge">
<title>Node1&#45;&gt;Node7</title>
<path fill="none" stroke="midnightblue" d="M859.19,-50.9C874.78,-41 895.13,-28.07 908.38,-19.65"/>
<polygon fill="midnightblue" stroke="midnightblue" points="857.22,-48.01 850.66,-56.32 860.97,-53.92 857.22,-48.01"/>
</g>
<!-- Node8 -->
<g id="node8" class="node">
<title>Node8</title>
<g id="a_node8"><a xlink:href="itkTransformFileWriter_8h.html" target="_top" xlink:title=" ">
<polygon fill="white" stroke="black" points="1009,-0.5 1009,-19.5 1143,-19.5 1143,-0.5 1009,-0.5"/>
<text text-anchor="middle" x="1076" y="-7.5" font-family="Helvetica,sans-Serif" font-size="10.00">itkTransformFileWriter.h</text>
</a>
</g>
</g>
<!-- Node1&#45;&gt;Node8 -->
<g id="edge7" class="edge">
<title>Node1&#45;&gt;Node8</title>
<path fill="none" stroke="midnightblue" d="M884.72,-54.22C929.89,-44.01 996.77,-28.9 1038.31,-19.52"/>
<polygon fill="midnightblue" stroke="midnightblue" points="883.85,-50.83 874.87,-56.44 885.4,-57.65 883.85,-50.83"/>
</g>
<!-- Node9 -->
<g id="node9" class="node">
<title>Node9</title>
<g id="a_node9"><a xlink:href="itkTransformIOFactory_8h.html" target="_top" xlink:title=" ">
<polygon fill="white" stroke="black" points="1161.5,-0.5 1161.5,-19.5 1292.5,-19.5 1292.5,-0.5 1161.5,-0.5"/>
<text text-anchor="middle" x="1227" y="-7.5" font-family="Helvetica,sans-Serif" font-size="10.00">itkTransformIOFactory.h</text>
</a>
</g>
</g>
<!-- Node1&#45;&gt;Node9 -->
<g id="edge8" class="edge">
<title>Node1&#45;&gt;Node9</title>
<path fill="none" stroke="midnightblue" d="M908.48,-55.1C982.07,-44.91 1095.57,-29.2 1165.35,-19.54"/>
<polygon fill="midnightblue" stroke="midnightblue" points="907.79,-51.66 898.37,-56.5 908.75,-58.6 907.79,-51.66"/>
</g>
<!-- Node10 -->
<g id="node10" class="node">
<title>Node10</title>
<g id="a_node10"><a xlink:href="itkTxtTransformIO_8h.html" target="_top" xlink:title=" ">
<polygon fill="white" stroke="black" points="1310.5,-0.5 1310.5,-19.5 1423.5,-19.5 1423.5,-0.5 1310.5,-0.5"/>
<text text-anchor="middle" x="1367" y="-7.5" font-family="Helvetica,sans-Serif" font-size="10.00">itkTxtTransformIO.h</text>
</a>
</g>
</g>
<!-- Node1&#45;&gt;Node10 -->
<g id="edge9" class="edge">
<title>Node1&#45;&gt;Node10</title>
<path fill="none" stroke="midnightblue" d="M908.25,-59.02C999.59,-51.15 1162.78,-36.37 1302,-20 1304.72,-19.68 1307.49,-19.34 1310.3,-18.99"/>
<polygon fill="midnightblue" stroke="midnightblue" points="907.68,-55.56 898.02,-59.9 908.28,-62.53 907.68,-55.56"/>
</g>
<!-- Node11 -->
<g id="node11" class="node">
<title>Node11</title>
<g id="a_node11"><a xlink:href="itkTxtTransformIOFactory_8h.html" target="_top" xlink:title=" ">
<polygon fill="white" stroke="black" points="1441.5,-0.5 1441.5,-19.5 1588.5,-19.5 1588.5,-0.5 1441.5,-0.5"/>
<text text-anchor="middle" x="1515" y="-7.5" font-family="Helvetica,sans-Serif" font-size="10.00">itkTxtTransformIOFactory.h</text>
</a>
</g>
</g>
<!-- Node1&#45;&gt;Node11 -->
<g id="edge10" class="edge">
<title>Node1&#45;&gt;Node11</title>
<path fill="none" stroke="midnightblue" d="M908.56,-60.39C1020.52,-52.99 1243.88,-37.51 1433,-20 1435.71,-19.75 1438.47,-19.49 1441.25,-19.21"/>
<polygon fill="midnightblue" stroke="midnightblue" points="908.15,-56.9 898.4,-61.05 908.61,-63.89 908.15,-56.9"/>
</g>
</g>
</svg>
