<?xml version="1.0" encoding="UTF-8" standalone="no"?>
<!DOCTYPE svg PUBLIC "-//W3C//DTD SVG 1.1//EN"
 "http://www.w3.org/Graphics/SVG/1.1/DTD/svg11.dtd">
<!-- Generated by graphviz version 2.43.0 (0)
 -->
<!-- Title: itkTimeProbe.h Pages: 1 -->
<svg width="787pt" height="363pt"
 viewBox="0.00 0.00 787.00 363.00" xmlns="http://www.w3.org/2000/svg" xmlns:xlink="http://www.w3.org/1999/xlink">
<g id="graph0" class="graph" transform="scale(1 1) rotate(0) translate(4 359)">
<title>itkTimeProbe.h</title>
<polygon fill="white" stroke="transparent" points="-4,4 -4,-359 783,-359 783,4 -4,4"/>
<!-- Node1 -->
<g id="node1" class="node">
<title>Node1</title>
<g id="a_node1"><a xlink:title=" ">
<polygon fill="#bfbfbf" stroke="black" points="396.5,-335.5 396.5,-354.5 487.5,-354.5 487.5,-335.5 396.5,-335.5"/>
<text text-anchor="middle" x="442" y="-342.5" font-family="Helvetica,sans-Serif" font-size="10.00">itkTimeProbe.h</text>
</a>
</g>
</g>
<!-- Node2 -->
<g id="node2" class="node">
<title>Node2</title>
<g id="a_node2"><a xlink:href="itkGPUFiniteDifferenceImageFilter_8h.html" target="_top" xlink:title=" ">
<polygon fill="white" stroke="black" points="93,-268.5 93,-298.5 251,-298.5 251,-268.5 93,-268.5"/>
<text text-anchor="start" x="101" y="-286.5" font-family="Helvetica,sans-Serif" font-size="10.00">itkGPUFiniteDifferenceImage</text>
<text text-anchor="middle" x="172" y="-275.5" font-family="Helvetica,sans-Serif" font-size="10.00">Filter.h</text>
</a>
</g>
</g>
<!-- Node1&#45;&gt;Node2 -->
<g id="edge1" class="edge">
<title>Node1&#45;&gt;Node2</title>
<path fill="none" stroke="midnightblue" d="M393.41,-333.29C349.28,-323.57 283.91,-309.16 235.63,-298.52"/>
<polygon fill="midnightblue" stroke="midnightblue" points="392.8,-336.74 403.32,-335.48 394.3,-329.9 392.8,-336.74"/>
</g>
<!-- Node9 -->
<g id="node9" class="node">
<title>Node9</title>
<g id="a_node9"><a xlink:href="itkIterativeInverseDisplacementFieldImageFilter_8h.html" target="_top" xlink:title=" ">
<polygon fill="white" stroke="black" points="269,-268.5 269,-298.5 443,-298.5 443,-268.5 269,-268.5"/>
<text text-anchor="start" x="277" y="-286.5" font-family="Helvetica,sans-Serif" font-size="10.00">itkIterativeInverseDisplacement</text>
<text text-anchor="middle" x="356" y="-275.5" font-family="Helvetica,sans-Serif" font-size="10.00">FieldImageFilter.h</text>
</a>
</g>
</g>
<!-- Node1&#45;&gt;Node9 -->
<g id="edge8" class="edge">
<title>Node1&#45;&gt;Node9</title>
<path fill="none" stroke="midnightblue" d="M421.39,-329.74C407.72,-320.28 389.87,-307.93 376.27,-298.52"/>
<polygon fill="midnightblue" stroke="midnightblue" points="419.46,-332.66 429.68,-335.48 423.45,-326.91 419.46,-332.66"/>
</g>
<!-- Node10 -->
<g id="node10" class="node">
<title>Node10</title>
<g id="a_node10"><a xlink:href="itkSimpleFilterWatcher_8h.html" target="_top" xlink:title=" ">
<polygon fill="white" stroke="black" points="461,-274 461,-293 597,-293 597,-274 461,-274"/>
<text text-anchor="middle" x="529" y="-281" font-family="Helvetica,sans-Serif" font-size="10.00">itkSimpleFilterWatcher.h</text>
</a>
</g>
</g>
<!-- Node1&#45;&gt;Node10 -->
<g id="edge9" class="edge">
<title>Node1&#45;&gt;Node10</title>
<path fill="none" stroke="midnightblue" d="M463.04,-329.61C479.77,-318.17 502.61,-302.55 516.56,-293.01"/>
<polygon fill="midnightblue" stroke="midnightblue" points="460.74,-326.94 454.46,-335.48 464.7,-332.72 460.74,-326.94"/>
</g>
<!-- Node12 -->
<g id="node12" class="node">
<title>Node12</title>
<g id="a_node12"><a xlink:href="itkTimeProbesCollectorBase_8h.html" target="_top" xlink:title=" ">
<polygon fill="white" stroke="black" points="615,-274 615,-293 779,-293 779,-274 615,-274"/>
<text text-anchor="middle" x="697" y="-281" font-family="Helvetica,sans-Serif" font-size="10.00">itkTimeProbesCollectorBase.h</text>
</a>
</g>
</g>
<!-- Node1&#45;&gt;Node12 -->
<g id="edge11" class="edge">
<title>Node1&#45;&gt;Node12</title>
<path fill="none" stroke="midnightblue" d="M488.35,-333.19C537.83,-321.64 615.21,-303.58 660.53,-293.01"/>
<polygon fill="midnightblue" stroke="midnightblue" points="487.48,-329.79 478.54,-335.48 489.07,-336.61 487.48,-329.79"/>
</g>
<!-- Node3 -->
<g id="node3" class="node">
<title>Node3</title>
<g id="a_node3"><a xlink:href="itkGPUDenseFiniteDifferenceImageFilter_8h.html" target="_top" xlink:title=" ">
<polygon fill="white" stroke="black" points="93,-201.5 93,-231.5 251,-231.5 251,-201.5 93,-201.5"/>
<text text-anchor="start" x="101" y="-219.5" font-family="Helvetica,sans-Serif" font-size="10.00">itkGPUDenseFiniteDifference</text>
<text text-anchor="middle" x="172" y="-208.5" font-family="Helvetica,sans-Serif" font-size="10.00">ImageFilter.h</text>
</a>
</g>
</g>
<!-- Node2&#45;&gt;Node3 -->
<g id="edge2" class="edge">
<title>Node2&#45;&gt;Node3</title>
<path fill="none" stroke="midnightblue" d="M172,-258.11C172,-249.15 172,-239.32 172,-231.58"/>
<polygon fill="midnightblue" stroke="midnightblue" points="168.5,-258.4 172,-268.4 175.5,-258.4 168.5,-258.4"/>
</g>
<!-- Node4 -->
<g id="node4" class="node">
<title>Node4</title>
<g id="a_node4"><a xlink:href="itkGPUAnisotropicDiffusionImageFilter_8h.html" target="_top" xlink:title=" ">
<polygon fill="white" stroke="black" points="4.5,-134.5 4.5,-164.5 153.5,-164.5 153.5,-134.5 4.5,-134.5"/>
<text text-anchor="start" x="12.5" y="-152.5" font-family="Helvetica,sans-Serif" font-size="10.00">itkGPUAnisotropicDiffusion</text>
<text text-anchor="middle" x="79" y="-141.5" font-family="Helvetica,sans-Serif" font-size="10.00">ImageFilter.h</text>
</a>
</g>
</g>
<!-- Node3&#45;&gt;Node4 -->
<g id="edge3" class="edge">
<title>Node3&#45;&gt;Node4</title>
<path fill="none" stroke="midnightblue" d="M143.31,-195.45C129.01,-185.45 112.05,-173.6 99.14,-164.58"/>
<polygon fill="midnightblue" stroke="midnightblue" points="141.62,-198.54 151.82,-201.4 145.63,-192.8 141.62,-198.54"/>
</g>
<!-- Node7 -->
<g id="node7" class="node">
<title>Node7</title>
<g id="a_node7"><a xlink:href="itkGPUPDEDeformableRegistrationFilter_8h.html" target="_top" xlink:title=" ">
<polygon fill="white" stroke="black" points="171.5,-134.5 171.5,-164.5 358.5,-164.5 358.5,-134.5 171.5,-134.5"/>
<text text-anchor="start" x="179.5" y="-152.5" font-family="Helvetica,sans-Serif" font-size="10.00">itkGPUPDEDeformableRegistration</text>
<text text-anchor="middle" x="265" y="-141.5" font-family="Helvetica,sans-Serif" font-size="10.00">Filter.h</text>
</a>
</g>
</g>
<!-- Node3&#45;&gt;Node7 -->
<g id="edge6" class="edge">
<title>Node3&#45;&gt;Node7</title>
<path fill="none" stroke="midnightblue" d="M200.69,-195.45C214.99,-185.45 231.95,-173.6 244.86,-164.58"/>
<polygon fill="midnightblue" stroke="midnightblue" points="198.37,-192.8 192.18,-201.4 202.38,-198.54 198.37,-192.8"/>
</g>
<!-- Node5 -->
<g id="node5" class="node">
<title>Node5</title>
<g id="a_node5"><a xlink:href="itkGPUGradientAnisotropicDiffusionImageFilter_8h.html" target="_top" xlink:title=" ">
<polygon fill="white" stroke="black" points="5.5,-67.5 5.5,-97.5 152.5,-97.5 152.5,-67.5 5.5,-67.5"/>
<text text-anchor="start" x="13.5" y="-85.5" font-family="Helvetica,sans-Serif" font-size="10.00">itkGPUGradientAnisotropic</text>
<text text-anchor="middle" x="79" y="-74.5" font-family="Helvetica,sans-Serif" font-size="10.00">DiffusionImageFilter.h</text>
</a>
</g>
</g>
<!-- Node4&#45;&gt;Node5 -->
<g id="edge4" class="edge">
<title>Node4&#45;&gt;Node5</title>
<path fill="none" stroke="midnightblue" d="M79,-124.11C79,-115.15 79,-105.32 79,-97.58"/>
<polygon fill="midnightblue" stroke="midnightblue" points="75.5,-124.4 79,-134.4 82.5,-124.4 75.5,-124.4"/>
</g>
<!-- Node6 -->
<g id="node6" class="node">
<title>Node6</title>
<g id="a_node6"><a xlink:href="itkGPUGradientAnisotropicDiffusionImageFilterFactory_8h.html" target="_top" xlink:title=" ">
<polygon fill="white" stroke="black" points="0,-0.5 0,-30.5 158,-30.5 158,-0.5 0,-0.5"/>
<text text-anchor="start" x="8" y="-18.5" font-family="Helvetica,sans-Serif" font-size="10.00">itkGPUGradientAnisotropic</text>
<text text-anchor="middle" x="79" y="-7.5" font-family="Helvetica,sans-Serif" font-size="10.00">DiffusionImageFilterFactory.h</text>
</a>
</g>
</g>
<!-- Node5&#45;&gt;Node6 -->
<g id="edge5" class="edge">
<title>Node5&#45;&gt;Node6</title>
<path fill="none" stroke="midnightblue" d="M79,-57.11C79,-48.15 79,-38.32 79,-30.58"/>
<polygon fill="midnightblue" stroke="midnightblue" points="75.5,-57.4 79,-67.4 82.5,-57.4 75.5,-57.4"/>
</g>
<!-- Node8 -->
<g id="node8" class="node">
<title>Node8</title>
<g id="a_node8"><a xlink:href="itkGPUDemonsRegistrationFilter_8h.html" target="_top" xlink:title=" ">
<polygon fill="white" stroke="black" points="190,-67.5 190,-97.5 340,-97.5 340,-67.5 190,-67.5"/>
<text text-anchor="start" x="198" y="-85.5" font-family="Helvetica,sans-Serif" font-size="10.00">itkGPUDemonsRegistration</text>
<text text-anchor="middle" x="265" y="-74.5" font-family="Helvetica,sans-Serif" font-size="10.00">Filter.h</text>
</a>
</g>
</g>
<!-- Node7&#45;&gt;Node8 -->
<g id="edge7" class="edge">
<title>Node7&#45;&gt;Node8</title>
<path fill="none" stroke="midnightblue" d="M265,-124.11C265,-115.15 265,-105.32 265,-97.58"/>
<polygon fill="midnightblue" stroke="midnightblue" points="261.5,-124.4 265,-134.4 268.5,-124.4 261.5,-124.4"/>
</g>
<!-- Node11 -->
<g id="node11" class="node">
<title>Node11</title>
<g id="a_node11"><a xlink:href="itkXMLFilterWatcher_8h.html" target="_top" xlink:title=" ">
<polygon fill="white" stroke="black" points="467.5,-207 467.5,-226 590.5,-226 590.5,-207 467.5,-207"/>
<text text-anchor="middle" x="529" y="-214" font-family="Helvetica,sans-Serif" font-size="10.00">itkXMLFilterWatcher.h</text>
</a>
</g>
</g>
<!-- Node10&#45;&gt;Node11 -->
<g id="edge10" class="edge">
<title>Node10&#45;&gt;Node11</title>
<path fill="none" stroke="midnightblue" d="M529,-263.54C529,-251.17 529,-235.62 529,-226.13"/>
<polygon fill="midnightblue" stroke="midnightblue" points="525.5,-263.73 529,-273.73 532.5,-263.73 525.5,-263.73"/>
</g>
</g>
</svg>
