<?xml version="1.0" encoding="UTF-8" standalone="no"?>
<!DOCTYPE svg PUBLIC "-//W3C//DTD SVG 1.1//EN"
 "http://www.w3.org/Graphics/SVG/1.1/DTD/svg11.dtd">
<!-- Generated by graphviz version 2.43.0 (0)
 -->
<!-- Title: itkThreadLogger.h Pages: 1 -->
<svg width="1198pt" height="812pt"
 viewBox="0.00 0.00 1198.00 812.00" xmlns="http://www.w3.org/2000/svg" xmlns:xlink="http://www.w3.org/1999/xlink">
<g id="graph0" class="graph" transform="scale(1 1) rotate(0) translate(4 808)">
<title>itkThreadLogger.h</title>
<polygon fill="white" stroke="transparent" points="-4,4 -4,-808 1194,-808 1194,4 -4,4"/>
<!-- Node1 -->
<g id="node1" class="node">
<title>Node1</title>
<g id="a_node1"><a xlink:title=" ">
<polygon fill="#bfbfbf" stroke="black" points="956,-784.5 956,-803.5 1060,-803.5 1060,-784.5 956,-784.5"/>
<text text-anchor="middle" x="1008" y="-791.5" font-family="Helvetica,sans-Serif" font-size="10.00">itkThreadLogger.h</text>
</a>
</g>
</g>
<!-- Node2 -->
<g id="node2" class="node">
<title>Node2</title>
<g id="a_node2"><a xlink:href="itkLogger_8h.html" target="_top" xlink:title=" ">
<polygon fill="white" stroke="black" points="720.5,-728.5 720.5,-747.5 791.5,-747.5 791.5,-728.5 720.5,-728.5"/>
<text text-anchor="middle" x="756" y="-735.5" font-family="Helvetica,sans-Serif" font-size="10.00">itkLogger.h</text>
</a>
</g>
</g>
<!-- Node1&#45;&gt;Node2 -->
<g id="edge1" class="edge">
<title>Node1&#45;&gt;Node2</title>
<path fill="none" stroke="midnightblue" d="M968.07,-784.44C922.82,-774.75 849.19,-758.97 801.68,-748.79"/>
<polygon fill="midnightblue" stroke="midnightblue" points="802.18,-745.32 791.67,-746.64 800.71,-752.16 802.18,-745.32"/>
</g>
<!-- Node18 -->
<g id="node18" class="node">
<title>Node18</title>
<g id="a_node18"><a xlink:title=" ">
<polygon fill="white" stroke="#bfbfbf" points="325,-56.5 325,-75.5 375,-75.5 375,-56.5 325,-56.5"/>
<text text-anchor="middle" x="350" y="-63.5" font-family="Helvetica,sans-Serif" font-size="10.00">atomic</text>
</a>
</g>
</g>
<!-- Node1&#45;&gt;Node18 -->
<g id="edge70" class="edge">
<title>Node1&#45;&gt;Node18</title>
<path fill="none" stroke="midnightblue" d="M999.56,-784.24C971.93,-755.48 881.91,-661.19 811,-580 739.76,-498.44 747.27,-450.28 656,-392 602.58,-357.89 576.17,-381.17 518,-356 432.22,-318.88 385.19,-325.82 340,-244 311.54,-192.46 331.2,-119.11 342.95,-85.33"/>
<polygon fill="midnightblue" stroke="midnightblue" points="346.28,-86.42 346.42,-75.83 339.7,-84.02 346.28,-86.42"/>
</g>
<!-- Node28 -->
<g id="node28" class="node">
<title>Node28</title>
<g id="a_node28"><a xlink:title=" ">
<polygon fill="white" stroke="#bfbfbf" points="865,-224.5 865,-243.5 909,-243.5 909,-224.5 865,-224.5"/>
<text text-anchor="middle" x="887" y="-231.5" font-family="Helvetica,sans-Serif" font-size="10.00">string</text>
</a>
</g>
</g>
<!-- Node1&#45;&gt;Node28 -->
<g id="edge71" class="edge">
<title>Node1&#45;&gt;Node28</title>
<path fill="none" stroke="midnightblue" d="M1004.49,-784.32C997.4,-765.96 982,-721.66 982,-683 982,-683 982,-683 982,-457 982,-374.65 926.06,-287.96 900.03,-252.08"/>
<polygon fill="midnightblue" stroke="midnightblue" points="902.6,-249.67 893.83,-243.72 896.98,-253.84 902.6,-249.67"/>
</g>
<!-- Node43 -->
<g id="node43" class="node">
<title>Node43</title>
<g id="a_node43"><a xlink:title=" ">
<polygon fill="white" stroke="#bfbfbf" points="1010,-728.5 1010,-747.5 1058,-747.5 1058,-728.5 1010,-728.5"/>
<text text-anchor="middle" x="1034" y="-735.5" font-family="Helvetica,sans-Serif" font-size="10.00">mutex</text>
</a>
</g>
</g>
<!-- Node1&#45;&gt;Node43 -->
<g id="edge69" class="edge">
<title>Node1&#45;&gt;Node43</title>
<path fill="none" stroke="midnightblue" d="M1012.29,-784.08C1015.85,-776.69 1021.02,-765.95 1025.42,-756.81"/>
<polygon fill="midnightblue" stroke="midnightblue" points="1028.6,-758.28 1029.79,-747.75 1022.29,-755.24 1028.6,-758.28"/>
</g>
<!-- Node44 -->
<g id="node44" class="node">
<title>Node44</title>
<g id="a_node44"><a xlink:title=" ">
<polygon fill="white" stroke="#bfbfbf" points="1076.5,-728.5 1076.5,-747.5 1123.5,-747.5 1123.5,-728.5 1076.5,-728.5"/>
<text text-anchor="middle" x="1100" y="-735.5" font-family="Helvetica,sans-Serif" font-size="10.00">queue</text>
</a>
</g>
</g>
<!-- Node1&#45;&gt;Node44 -->
<g id="edge72" class="edge">
<title>Node1&#45;&gt;Node44</title>
<path fill="none" stroke="midnightblue" d="M1022.78,-784.32C1037.27,-775.82 1059.57,-762.73 1076.49,-752.8"/>
<polygon fill="midnightblue" stroke="midnightblue" points="1078.4,-755.74 1085.26,-747.65 1074.86,-749.7 1078.4,-755.74"/>
</g>
<!-- Node45 -->
<g id="node45" class="node">
<title>Node45</title>
<g id="a_node45"><a xlink:title=" ">
<polygon fill="white" stroke="#bfbfbf" points="1142,-728.5 1142,-747.5 1190,-747.5 1190,-728.5 1142,-728.5"/>
<text text-anchor="middle" x="1166" y="-735.5" font-family="Helvetica,sans-Serif" font-size="10.00">thread</text>
</a>
</g>
</g>
<!-- Node1&#45;&gt;Node45 -->
<g id="edge73" class="edge">
<title>Node1&#45;&gt;Node45</title>
<path fill="none" stroke="midnightblue" d="M1033.04,-784.44C1059.85,-775.28 1102.55,-760.68 1132.31,-750.52"/>
<polygon fill="midnightblue" stroke="midnightblue" points="1133.53,-753.8 1141.86,-747.25 1131.26,-747.17 1133.53,-753.8"/>
</g>
<!-- Node3 -->
<g id="node3" class="node">
<title>Node3</title>
<g id="a_node3"><a xlink:href="itkLoggerBase_8h.html" target="_top" xlink:title=" ">
<polygon fill="white" stroke="black" points="697.5,-672.5 697.5,-691.5 792.5,-691.5 792.5,-672.5 697.5,-672.5"/>
<text text-anchor="middle" x="745" y="-679.5" font-family="Helvetica,sans-Serif" font-size="10.00">itkLoggerBase.h</text>
</a>
</g>
</g>
<!-- Node2&#45;&gt;Node3 -->
<g id="edge2" class="edge">
<title>Node2&#45;&gt;Node3</title>
<path fill="none" stroke="midnightblue" d="M754.18,-728.08C752.73,-720.93 750.63,-710.64 748.81,-701.69"/>
<polygon fill="midnightblue" stroke="midnightblue" points="752.21,-700.85 746.78,-691.75 745.35,-702.25 752.21,-700.85"/>
</g>
<!-- Node4 -->
<g id="node4" class="node">
<title>Node4</title>
<g id="a_node4"><a xlink:href="itkMultipleLogOutput_8h.html" target="_top" xlink:title=" ">
<polygon fill="white" stroke="black" points="536,-616.5 536,-635.5 664,-635.5 664,-616.5 536,-616.5"/>
<text text-anchor="middle" x="600" y="-623.5" font-family="Helvetica,sans-Serif" font-size="10.00">itkMultipleLogOutput.h</text>
</a>
</g>
</g>
<!-- Node3&#45;&gt;Node4 -->
<g id="edge3" class="edge">
<title>Node3&#45;&gt;Node4</title>
<path fill="none" stroke="midnightblue" d="M722.02,-672.44C697.84,-663.44 659.58,-649.19 632.35,-639.05"/>
<polygon fill="midnightblue" stroke="midnightblue" points="633.46,-635.73 622.87,-635.52 631.02,-642.29 633.46,-635.73"/>
</g>
<!-- Node39 -->
<g id="node39" class="node">
<title>Node39</title>
<g id="a_node39"><a xlink:href="itkRealTimeClock_8h.html" target="_top" xlink:title=" ">
<polygon fill="white" stroke="black" points="820,-560.5 820,-579.5 932,-579.5 932,-560.5 820,-560.5"/>
<text text-anchor="middle" x="876" y="-567.5" font-family="Helvetica,sans-Serif" font-size="10.00">itkRealTimeClock.h</text>
</a>
</g>
</g>
<!-- Node3&#45;&gt;Node39 -->
<g id="edge57" class="edge">
<title>Node3&#45;&gt;Node39</title>
<path fill="none" stroke="midnightblue" d="M757.7,-672.49C770.49,-663.76 790.61,-649.57 807,-636 826.07,-620.2 846.56,-600.52 860.21,-586.98"/>
<polygon fill="midnightblue" stroke="midnightblue" points="862.81,-589.34 867.4,-579.79 857.85,-584.39 862.81,-589.34"/>
</g>
<!-- Node42 -->
<g id="node42" class="node">
<title>Node42</title>
<g id="a_node42"><a xlink:title=" ">
<polygon fill="white" stroke="#bfbfbf" points="682,-616.5 682,-635.5 798,-635.5 798,-616.5 682,-616.5"/>
<text text-anchor="middle" x="740" y="-623.5" font-family="Helvetica,sans-Serif" font-size="10.00">ITKCommonExport.h</text>
</a>
</g>
</g>
<!-- Node3&#45;&gt;Node42 -->
<g id="edge68" class="edge">
<title>Node3&#45;&gt;Node42</title>
<path fill="none" stroke="midnightblue" d="M744.17,-672.08C743.52,-665.01 742.58,-654.86 741.76,-645.99"/>
<polygon fill="midnightblue" stroke="midnightblue" points="745.22,-645.39 740.81,-635.75 738.25,-646.03 745.22,-645.39"/>
</g>
<!-- Node5 -->
<g id="node5" class="node">
<title>Node5</title>
<g id="a_node5"><a xlink:href="itkLogOutput_8h.html" target="_top" xlink:title=" ">
<polygon fill="white" stroke="black" points="508.5,-560.5 508.5,-579.5 597.5,-579.5 597.5,-560.5 508.5,-560.5"/>
<text text-anchor="middle" x="553" y="-567.5" font-family="Helvetica,sans-Serif" font-size="10.00">itkLogOutput.h</text>
</a>
</g>
</g>
<!-- Node4&#45;&gt;Node5 -->
<g id="edge4" class="edge">
<title>Node4&#45;&gt;Node5</title>
<path fill="none" stroke="midnightblue" d="M592.24,-616.08C585.46,-608.3 575.46,-596.8 567.24,-587.37"/>
<polygon fill="midnightblue" stroke="midnightblue" points="569.82,-585 560.62,-579.75 564.54,-589.59 569.82,-585"/>
</g>
<!-- Node37 -->
<g id="node37" class="node">
<title>Node37</title>
<g id="a_node37"><a xlink:title=" ">
<polygon fill="white" stroke="#bfbfbf" points="615.5,-560.5 615.5,-579.5 670.5,-579.5 670.5,-560.5 615.5,-560.5"/>
<text text-anchor="middle" x="643" y="-567.5" font-family="Helvetica,sans-Serif" font-size="10.00">fstream</text>
</a>
</g>
</g>
<!-- Node4&#45;&gt;Node37 -->
<g id="edge55" class="edge">
<title>Node4&#45;&gt;Node37</title>
<path fill="none" stroke="midnightblue" d="M607.1,-616.08C613.24,-608.38 622.27,-597.03 629.74,-587.65"/>
<polygon fill="midnightblue" stroke="midnightblue" points="632.54,-589.75 636.03,-579.75 627.06,-585.39 632.54,-589.75"/>
</g>
<!-- Node38 -->
<g id="node38" class="node">
<title>Node38</title>
<g id="a_node38"><a xlink:title=" ">
<polygon fill="white" stroke="#bfbfbf" points="689,-560.5 689,-579.5 721,-579.5 721,-560.5 689,-560.5"/>
<text text-anchor="middle" x="705" y="-567.5" font-family="Helvetica,sans-Serif" font-size="10.00">set</text>
</a>
</g>
</g>
<!-- Node4&#45;&gt;Node38 -->
<g id="edge56" class="edge">
<title>Node4&#45;&gt;Node38</title>
<path fill="none" stroke="midnightblue" d="M616.87,-616.32C633.91,-607.56 660.43,-593.92 679.93,-583.9"/>
<polygon fill="midnightblue" stroke="midnightblue" points="681.57,-586.99 688.86,-579.3 678.37,-580.76 681.57,-586.99"/>
</g>
<!-- Node6 -->
<g id="node6" class="node">
<title>Node6</title>
<g id="a_node6"><a xlink:href="itkMacro_8h.html" target="_top" xlink:title=" ">
<polygon fill="white" stroke="black" points="516,-0.5 516,-19.5 584,-19.5 584,-0.5 516,-0.5"/>
<text text-anchor="middle" x="550" y="-7.5" font-family="Helvetica,sans-Serif" font-size="10.00">itkMacro.h</text>
</a>
</g>
</g>
<!-- Node5&#45;&gt;Node6 -->
<g id="edge5" class="edge">
<title>Node5&#45;&gt;Node6</title>
<path fill="none" stroke="midnightblue" d="M508.23,-567.63C393.69,-562.91 99,-542.63 99,-459 99,-459 99,-459 99,-233 99,-146.49 110.16,-107.06 180,-56 230.95,-18.75 419.09,-12.14 505.76,-11.1"/>
<polygon fill="midnightblue" stroke="midnightblue" points="505.84,-14.6 515.81,-11 505.77,-7.6 505.84,-14.6"/>
</g>
<!-- Node7 -->
<g id="node7" class="node">
<title>Node7</title>
<g id="a_node7"><a xlink:href="itkObject_8h.html" target="_top" xlink:title=" ">
<polygon fill="white" stroke="black" points="527,-336.5 527,-355.5 597,-355.5 597,-336.5 527,-336.5"/>
<text text-anchor="middle" x="562" y="-343.5" font-family="Helvetica,sans-Serif" font-size="10.00">itkObject.h</text>
</a>
</g>
</g>
<!-- Node5&#45;&gt;Node7 -->
<g id="edge6" class="edge">
<title>Node5&#45;&gt;Node7</title>
<path fill="none" stroke="midnightblue" d="M569.59,-560.34C583.2,-552.49 602.1,-539.75 614,-524 646.05,-481.58 646.51,-464.31 656,-412 657.59,-403.25 660.74,-399.52 656,-392 645.08,-374.66 625.42,-363.86 606.9,-357.2"/>
<polygon fill="midnightblue" stroke="midnightblue" points="607.96,-353.86 597.36,-354.08 605.78,-360.52 607.96,-353.86"/>
</g>
<!-- Node5&#45;&gt;Node28 -->
<g id="edge54" class="edge">
<title>Node5&#45;&gt;Node28</title>
<path fill="none" stroke="midnightblue" d="M582.07,-560.46C660.05,-536.69 868,-467.29 868,-403 868,-403 868,-403 868,-345 868,-312.49 876.16,-275.35 881.78,-253.61"/>
<polygon fill="midnightblue" stroke="midnightblue" points="885.22,-254.32 884.44,-243.75 878.46,-252.5 885.22,-254.32"/>
</g>
<!-- Node31 -->
<g id="node31" class="node">
<title>Node31</title>
<g id="a_node31"><a xlink:href="itkObjectFactory_8h.html" target="_top" xlink:title=" ">
<polygon fill="white" stroke="black" points="501,-504.5 501,-523.5 605,-523.5 605,-504.5 501,-504.5"/>
<text text-anchor="middle" x="553" y="-511.5" font-family="Helvetica,sans-Serif" font-size="10.00">itkObjectFactory.h</text>
</a>
</g>
</g>
<!-- Node5&#45;&gt;Node31 -->
<g id="edge43" class="edge">
<title>Node5&#45;&gt;Node31</title>
<path fill="none" stroke="midnightblue" d="M553,-560.08C553,-553.01 553,-542.86 553,-533.99"/>
<polygon fill="midnightblue" stroke="midnightblue" points="556.5,-533.75 553,-523.75 549.5,-533.75 556.5,-533.75"/>
</g>
<!-- Node8 -->
<g id="node8" class="node">
<title>Node8</title>
<g id="a_node8"><a xlink:href="itkLightObject_8h.html" target="_top" xlink:title=" ">
<polygon fill="white" stroke="black" points="454,-168.5 454,-187.5 548,-187.5 548,-168.5 454,-168.5"/>
<text text-anchor="middle" x="501" y="-175.5" font-family="Helvetica,sans-Serif" font-size="10.00">itkLightObject.h</text>
</a>
</g>
</g>
<!-- Node7&#45;&gt;Node8 -->
<g id="edge7" class="edge">
<title>Node7&#45;&gt;Node8</title>
<path fill="none" stroke="midnightblue" d="M550.74,-336.31C540.94,-328.07 527.21,-314.79 520,-300 503.76,-266.66 500.83,-222.6 500.61,-197.89"/>
<polygon fill="midnightblue" stroke="midnightblue" points="504.11,-197.75 500.67,-187.73 497.11,-197.71 504.11,-197.75"/>
</g>
<!-- Node19 -->
<g id="node19" class="node">
<title>Node19</title>
<g id="a_node19"><a xlink:href="itkSingletonMacro_8h.html" target="_top" xlink:title=" ">
<polygon fill="white" stroke="black" points="0,-56.5 0,-75.5 114,-75.5 114,-56.5 0,-56.5"/>
<text text-anchor="middle" x="57" y="-63.5" font-family="Helvetica,sans-Serif" font-size="10.00">itkSingletonMacro.h</text>
</a>
</g>
</g>
<!-- Node7&#45;&gt;Node19 -->
<g id="edge40" class="edge">
<title>Node7&#45;&gt;Node19</title>
<path fill="none" stroke="midnightblue" d="M540.74,-336.43C500.68,-320.05 411.62,-282.47 340,-244 238.51,-189.48 123.98,-112.89 77.87,-81.39"/>
<polygon fill="midnightblue" stroke="midnightblue" points="79.57,-78.31 69.34,-75.55 75.61,-84.09 79.57,-78.31"/>
</g>
<!-- Node22 -->
<g id="node22" class="node">
<title>Node22</title>
<g id="a_node22"><a xlink:href="itkEventObject_8h.html" target="_top" xlink:title=" ">
<polygon fill="white" stroke="black" points="766,-168.5 766,-187.5 864,-187.5 864,-168.5 766,-168.5"/>
<text text-anchor="middle" x="815" y="-175.5" font-family="Helvetica,sans-Serif" font-size="10.00">itkEventObject.h</text>
</a>
</g>
</g>
<!-- Node7&#45;&gt;Node22 -->
<g id="edge28" class="edge">
<title>Node7&#45;&gt;Node22</title>
<path fill="none" stroke="midnightblue" d="M597.34,-342.31C637.92,-338.01 705.51,-327.12 757,-300 789.56,-282.85 803.19,-277.69 818,-244 824.39,-229.46 822.86,-211.28 820.17,-197.85"/>
<polygon fill="midnightblue" stroke="midnightblue" points="823.52,-196.78 817.8,-187.86 816.71,-198.4 823.52,-196.78"/>
</g>
<!-- Node23 -->
<g id="node23" class="node">
<title>Node23</title>
<g id="a_node23"><a xlink:href="itkMetaDataDictionary_8h.html" target="_top" xlink:title=" ">
<polygon fill="white" stroke="black" points="612.5,-280.5 612.5,-299.5 747.5,-299.5 747.5,-280.5 612.5,-280.5"/>
<text text-anchor="middle" x="680" y="-287.5" font-family="Helvetica,sans-Serif" font-size="10.00">itkMetaDataDictionary.h</text>
</a>
</g>
</g>
<!-- Node7&#45;&gt;Node23 -->
<g id="edge30" class="edge">
<title>Node7&#45;&gt;Node23</title>
<path fill="none" stroke="midnightblue" d="M580.7,-336.44C599.94,-327.64 630.15,-313.81 652.2,-303.72"/>
<polygon fill="midnightblue" stroke="midnightblue" points="653.75,-306.86 661.39,-299.52 650.84,-300.5 653.75,-306.86"/>
</g>
<!-- Node29 -->
<g id="node29" class="node">
<title>Node29</title>
<g id="a_node29"><a xlink:title=" ">
<polygon fill="white" stroke="#bfbfbf" points="415,-224.5 415,-243.5 473,-243.5 473,-224.5 415,-224.5"/>
<text text-anchor="middle" x="444" y="-231.5" font-family="Helvetica,sans-Serif" font-size="10.00">memory</text>
</a>
</g>
</g>
<!-- Node7&#45;&gt;Node29 -->
<g id="edge42" class="edge">
<title>Node7&#45;&gt;Node29</title>
<path fill="none" stroke="midnightblue" d="M542.86,-336.5C526.68,-328.66 503.57,-315.85 487,-300 472.68,-286.3 460.67,-267 453.02,-252.99"/>
<polygon fill="midnightblue" stroke="midnightblue" points="455.99,-251.12 448.24,-243.89 449.79,-254.37 455.99,-251.12"/>
</g>
<!-- Node30 -->
<g id="node30" class="node">
<title>Node30</title>
<g id="a_node30"><a xlink:title=" ">
<polygon fill="white" stroke="#bfbfbf" points="529.5,-280.5 529.5,-299.5 594.5,-299.5 594.5,-280.5 529.5,-280.5"/>
<text text-anchor="middle" x="562" y="-287.5" font-family="Helvetica,sans-Serif" font-size="10.00">functional</text>
</a>
</g>
</g>
<!-- Node7&#45;&gt;Node30 -->
<g id="edge41" class="edge">
<title>Node7&#45;&gt;Node30</title>
<path fill="none" stroke="midnightblue" d="M562,-336.08C562,-329.01 562,-318.86 562,-309.99"/>
<polygon fill="midnightblue" stroke="midnightblue" points="565.5,-309.75 562,-299.75 558.5,-309.75 565.5,-309.75"/>
</g>
<!-- Node8&#45;&gt;Node6 -->
<g id="edge8" class="edge">
<title>Node8&#45;&gt;Node6</title>
<path fill="none" stroke="midnightblue" d="M471.12,-168.39C453.46,-161.59 432.55,-150.15 422,-132 405.03,-102.8 402.47,-83.56 422,-56 440.88,-29.35 476.86,-18.37 505.87,-13.9"/>
<polygon fill="midnightblue" stroke="midnightblue" points="506.36,-17.37 515.81,-12.57 505.43,-10.43 506.36,-17.37"/>
</g>
<!-- Node9 -->
<g id="node9" class="node">
<title>Node9</title>
<g id="a_node9"><a xlink:href="itkSmartPointer_8h.html" target="_top" xlink:title=" ">
<polygon fill="white" stroke="black" points="431.5,-112.5 431.5,-131.5 532.5,-131.5 532.5,-112.5 431.5,-112.5"/>
<text text-anchor="middle" x="482" y="-119.5" font-family="Helvetica,sans-Serif" font-size="10.00">itkSmartPointer.h</text>
</a>
</g>
</g>
<!-- Node8&#45;&gt;Node9 -->
<g id="edge9" class="edge">
<title>Node8&#45;&gt;Node9</title>
<path fill="none" stroke="midnightblue" d="M497.86,-168.08C495.32,-160.85 491.64,-150.41 488.47,-141.4"/>
<polygon fill="midnightblue" stroke="midnightblue" points="491.7,-140.02 485.08,-131.75 485.1,-142.35 491.7,-140.02"/>
</g>
<!-- Node10 -->
<g id="node10" class="node">
<title>Node10</title>
<g id="a_node10"><a xlink:title=" ">
<polygon fill="white" stroke="#bfbfbf" points="729,-56.5 729,-75.5 789,-75.5 789,-56.5 729,-56.5"/>
<text text-anchor="middle" x="759" y="-63.5" font-family="Helvetica,sans-Serif" font-size="10.00">iostream</text>
</a>
</g>
</g>
<!-- Node8&#45;&gt;Node10 -->
<g id="edge26" class="edge">
<title>Node8&#45;&gt;Node10</title>
<path fill="none" stroke="midnightblue" d="M508.87,-168.42C522.17,-154.45 550.51,-126.88 580,-112 624.58,-89.5 681.22,-77.72 718.72,-71.94"/>
<polygon fill="midnightblue" stroke="midnightblue" points="719.37,-75.38 728.76,-70.47 718.36,-68.46 719.37,-75.38"/>
</g>
<!-- Node14 -->
<g id="node14" class="node">
<title>Node14</title>
<g id="a_node14"><a xlink:href="itkTimeStamp_8h.html" target="_top" xlink:title=" ">
<polygon fill="white" stroke="black" points="203.5,-112.5 203.5,-131.5 298.5,-131.5 298.5,-112.5 203.5,-112.5"/>
<text text-anchor="middle" x="251" y="-119.5" font-family="Helvetica,sans-Serif" font-size="10.00">itkTimeStamp.h</text>
</a>
</g>
</g>
<!-- Node8&#45;&gt;Node14 -->
<g id="edge14" class="edge">
<title>Node8&#45;&gt;Node14</title>
<path fill="none" stroke="midnightblue" d="M461.39,-168.44C417.77,-159.02 347.6,-143.87 300.42,-133.68"/>
<polygon fill="midnightblue" stroke="midnightblue" points="300.94,-130.21 290.43,-131.52 299.46,-137.05 300.94,-130.21"/>
</g>
<!-- Node8&#45;&gt;Node18 -->
<g id="edge25" class="edge">
<title>Node8&#45;&gt;Node18</title>
<path fill="none" stroke="midnightblue" d="M463.49,-168.5C440.05,-161.7 410.36,-150.22 389,-132 374.18,-119.35 363.45,-99.59 357.05,-85.18"/>
<polygon fill="midnightblue" stroke="midnightblue" points="360.22,-83.69 353.15,-75.8 353.76,-86.38 360.22,-83.69"/>
</g>
<!-- Node20 -->
<g id="node20" class="node">
<title>Node20</title>
<g id="a_node20"><a xlink:href="itkIndent_8h.html" target="_top" xlink:title=" ">
<polygon fill="white" stroke="black" points="664.5,-112.5 664.5,-131.5 733.5,-131.5 733.5,-112.5 664.5,-112.5"/>
<text text-anchor="middle" x="699" y="-119.5" font-family="Helvetica,sans-Serif" font-size="10.00">itkIndent.h</text>
</a>
</g>
</g>
<!-- Node8&#45;&gt;Node20 -->
<g id="edge22" class="edge">
<title>Node8&#45;&gt;Node20</title>
<path fill="none" stroke="midnightblue" d="M532.37,-168.44C566.26,-159.2 620.4,-144.44 657.72,-134.26"/>
<polygon fill="midnightblue" stroke="midnightblue" points="659.05,-137.52 667.77,-131.52 657.2,-130.77 659.05,-137.52"/>
</g>
<!-- Node21 -->
<g id="node21" class="node">
<title>Node21</title>
<g id="a_node21"><a xlink:title=" ">
<polygon fill="white" stroke="#bfbfbf" points="589.5,-112.5 589.5,-131.5 646.5,-131.5 646.5,-112.5 589.5,-112.5"/>
<text text-anchor="middle" x="618" y="-119.5" font-family="Helvetica,sans-Serif" font-size="10.00">typeinfo</text>
</a>
</g>
</g>
<!-- Node8&#45;&gt;Node21 -->
<g id="edge27" class="edge">
<title>Node8&#45;&gt;Node21</title>
<path fill="none" stroke="midnightblue" d="M519.54,-168.44C538.62,-159.64 568.57,-145.81 590.44,-135.72"/>
<polygon fill="midnightblue" stroke="midnightblue" points="591.93,-138.88 599.55,-131.52 589,-132.53 591.93,-138.88"/>
</g>
<!-- Node9&#45;&gt;Node10 -->
<g id="edge10" class="edge">
<title>Node9&#45;&gt;Node10</title>
<path fill="none" stroke="midnightblue" d="M525.89,-112.44C578.98,-102.09 667.6,-84.82 718.92,-74.81"/>
<polygon fill="midnightblue" stroke="midnightblue" points="719.83,-78.2 728.97,-72.85 718.49,-71.33 719.83,-78.2"/>
</g>
<!-- Node11 -->
<g id="node11" class="node">
<title>Node11</title>
<g id="a_node11"><a xlink:title=" ">
<polygon fill="white" stroke="#bfbfbf" points="534.5,-56.5 534.5,-75.5 579.5,-75.5 579.5,-56.5 534.5,-56.5"/>
<text text-anchor="middle" x="557" y="-63.5" font-family="Helvetica,sans-Serif" font-size="10.00">utility</text>
</a>
</g>
</g>
<!-- Node9&#45;&gt;Node11 -->
<g id="edge11" class="edge">
<title>Node9&#45;&gt;Node11</title>
<path fill="none" stroke="midnightblue" d="M494.05,-112.32C505.46,-104.11 522.83,-91.6 536.43,-81.81"/>
<polygon fill="midnightblue" stroke="midnightblue" points="538.66,-84.52 544.73,-75.83 534.57,-78.84 538.66,-84.52"/>
</g>
<!-- Node12 -->
<g id="node12" class="node">
<title>Node12</title>
<g id="a_node12"><a xlink:title=" ">
<polygon fill="white" stroke="#bfbfbf" points="597.5,-56.5 597.5,-75.5 666.5,-75.5 666.5,-56.5 597.5,-56.5"/>
<text text-anchor="middle" x="632" y="-63.5" font-family="Helvetica,sans-Serif" font-size="10.00">type_traits</text>
</a>
</g>
</g>
<!-- Node9&#45;&gt;Node12 -->
<g id="edge12" class="edge">
<title>Node9&#45;&gt;Node12</title>
<path fill="none" stroke="midnightblue" d="M505.77,-112.44C530.89,-103.4 570.71,-89.06 598.9,-78.92"/>
<polygon fill="midnightblue" stroke="midnightblue" points="600.12,-82.2 608.34,-75.52 597.75,-75.61 600.12,-82.2"/>
</g>
<!-- Node13 -->
<g id="node13" class="node">
<title>Node13</title>
<g id="a_node13"><a xlink:title=" ">
<polygon fill="white" stroke="#bfbfbf" points="431.5,-56.5 431.5,-75.5 516.5,-75.5 516.5,-56.5 431.5,-56.5"/>
<text text-anchor="middle" x="474" y="-63.5" font-family="Helvetica,sans-Serif" font-size="10.00">itkConfigure.h</text>
</a>
</g>
</g>
<!-- Node9&#45;&gt;Node13 -->
<g id="edge13" class="edge">
<title>Node9&#45;&gt;Node13</title>
<path fill="none" stroke="midnightblue" d="M480.68,-112.08C479.62,-104.93 478.09,-94.64 476.77,-85.69"/>
<polygon fill="midnightblue" stroke="midnightblue" points="480.22,-85.13 475.3,-75.75 473.3,-86.16 480.22,-85.13"/>
</g>
<!-- Node14&#45;&gt;Node6 -->
<g id="edge15" class="edge">
<title>Node14&#45;&gt;Node6</title>
<path fill="none" stroke="midnightblue" d="M257.04,-112.2C267.35,-97.92 289.78,-69.91 316,-56 376.44,-23.94 456.43,-14.52 505.5,-11.87"/>
<polygon fill="midnightblue" stroke="midnightblue" points="505.96,-15.36 515.78,-11.39 505.63,-8.36 505.96,-15.36"/>
</g>
<!-- Node15 -->
<g id="node15" class="node">
<title>Node15</title>
<g id="a_node15"><a xlink:href="itkIntTypes_8h.html" target="_top" xlink:title=" ">
<polygon fill="white" stroke="black" points="189.5,-56.5 189.5,-75.5 268.5,-75.5 268.5,-56.5 189.5,-56.5"/>
<text text-anchor="middle" x="229" y="-63.5" font-family="Helvetica,sans-Serif" font-size="10.00">itkIntTypes.h</text>
</a>
</g>
</g>
<!-- Node14&#45;&gt;Node15 -->
<g id="edge16" class="edge">
<title>Node14&#45;&gt;Node15</title>
<path fill="none" stroke="midnightblue" d="M247.37,-112.08C244.39,-104.77 240.07,-94.18 236.38,-85.1"/>
<polygon fill="midnightblue" stroke="midnightblue" points="239.58,-83.69 232.57,-75.75 233.1,-86.33 239.58,-83.69"/>
</g>
<!-- Node14&#45;&gt;Node18 -->
<g id="edge20" class="edge">
<title>Node14&#45;&gt;Node18</title>
<path fill="none" stroke="midnightblue" d="M266.91,-112.32C282.64,-103.74 306.94,-90.49 325.21,-80.52"/>
<polygon fill="midnightblue" stroke="midnightblue" points="327.03,-83.52 334.13,-75.65 323.68,-77.37 327.03,-83.52"/>
</g>
<!-- Node14&#45;&gt;Node19 -->
<g id="edge21" class="edge">
<title>Node14&#45;&gt;Node19</title>
<path fill="none" stroke="midnightblue" d="M220.26,-112.44C187.06,-103.2 134.01,-88.44 97.44,-78.26"/>
<polygon fill="midnightblue" stroke="midnightblue" points="98.17,-74.83 87.6,-75.52 96.29,-81.57 98.17,-74.83"/>
</g>
<!-- Node15&#45;&gt;Node6 -->
<g id="edge17" class="edge">
<title>Node15&#45;&gt;Node6</title>
<path fill="none" stroke="midnightblue" d="M268.68,-58.32C328.9,-48.19 442.99,-29 505.79,-18.44"/>
<polygon fill="midnightblue" stroke="midnightblue" points="506.5,-21.87 515.78,-16.76 505.34,-14.96 506.5,-21.87"/>
</g>
<!-- Node16 -->
<g id="node16" class="node">
<title>Node16</title>
<g id="a_node16"><a xlink:title=" ">
<polygon fill="white" stroke="#bfbfbf" points="238,-0.5 238,-19.5 288,-19.5 288,-0.5 238,-0.5"/>
<text text-anchor="middle" x="263" y="-7.5" font-family="Helvetica,sans-Serif" font-size="10.00">cstdint</text>
</a>
</g>
</g>
<!-- Node15&#45;&gt;Node16 -->
<g id="edge18" class="edge">
<title>Node15&#45;&gt;Node16</title>
<path fill="none" stroke="midnightblue" d="M234.61,-56.08C239.37,-48.53 246.32,-37.49 252.15,-28.23"/>
<polygon fill="midnightblue" stroke="midnightblue" points="255.12,-30.08 257.49,-19.75 249.2,-26.35 255.12,-30.08"/>
</g>
<!-- Node17 -->
<g id="node17" class="node">
<title>Node17</title>
<g id="a_node17"><a xlink:title=" ">
<polygon fill="white" stroke="#bfbfbf" points="170,-0.5 170,-19.5 220,-19.5 220,-0.5 170,-0.5"/>
<text text-anchor="middle" x="195" y="-7.5" font-family="Helvetica,sans-Serif" font-size="10.00">climits</text>
</a>
</g>
</g>
<!-- Node15&#45;&gt;Node17 -->
<g id="edge19" class="edge">
<title>Node15&#45;&gt;Node17</title>
<path fill="none" stroke="midnightblue" d="M223.39,-56.08C218.63,-48.53 211.68,-37.49 205.85,-28.23"/>
<polygon fill="midnightblue" stroke="midnightblue" points="208.8,-26.35 200.51,-19.75 202.88,-30.08 208.8,-26.35"/>
</g>
<!-- Node20&#45;&gt;Node6 -->
<g id="edge23" class="edge">
<title>Node20&#45;&gt;Node6</title>
<path fill="none" stroke="midnightblue" d="M698.1,-112.17C696.24,-98.35 690.71,-71.59 675,-56 653.29,-34.47 620.55,-23.17 594.02,-17.28"/>
<polygon fill="midnightblue" stroke="midnightblue" points="594.69,-13.84 584.19,-15.28 593.29,-20.7 594.69,-13.84"/>
</g>
<!-- Node20&#45;&gt;Node10 -->
<g id="edge24" class="edge">
<title>Node20&#45;&gt;Node10</title>
<path fill="none" stroke="midnightblue" d="M708.64,-112.32C717.51,-104.34 730.87,-92.31 741.61,-82.65"/>
<polygon fill="midnightblue" stroke="midnightblue" points="744.09,-85.13 749.18,-75.83 739.41,-79.92 744.09,-85.13"/>
</g>
<!-- Node22&#45;&gt;Node20 -->
<g id="edge29" class="edge">
<title>Node22&#45;&gt;Node20</title>
<path fill="none" stroke="midnightblue" d="M796.62,-168.44C777.78,-159.68 748.27,-145.94 726.62,-135.86"/>
<polygon fill="midnightblue" stroke="midnightblue" points="727.84,-132.56 717.29,-131.52 724.88,-138.91 727.84,-132.56"/>
</g>
<!-- Node24 -->
<g id="node24" class="node">
<title>Node24</title>
<g id="a_node24"><a xlink:href="itkMetaDataObjectBase_8h.html" target="_top" xlink:title=" ">
<polygon fill="white" stroke="black" points="667,-224.5 667,-243.5 809,-243.5 809,-224.5 667,-224.5"/>
<text text-anchor="middle" x="738" y="-231.5" font-family="Helvetica,sans-Serif" font-size="10.00">itkMetaDataObjectBase.h</text>
</a>
</g>
</g>
<!-- Node23&#45;&gt;Node24 -->
<g id="edge31" class="edge">
<title>Node23&#45;&gt;Node24</title>
<path fill="none" stroke="midnightblue" d="M689.32,-280.32C697.89,-272.34 710.81,-260.31 721.19,-250.65"/>
<polygon fill="midnightblue" stroke="midnightblue" points="723.58,-253.21 728.51,-243.83 718.81,-248.09 723.58,-253.21"/>
</g>
<!-- Node25 -->
<g id="node25" class="node">
<title>Node25</title>
<g id="a_node25"><a xlink:title=" ">
<polygon fill="white" stroke="#bfbfbf" points="529,-224.5 529,-243.5 593,-243.5 593,-224.5 529,-224.5"/>
<text text-anchor="middle" x="561" y="-231.5" font-family="Helvetica,sans-Serif" font-size="10.00">algorithm</text>
</a>
</g>
</g>
<!-- Node23&#45;&gt;Node25 -->
<g id="edge35" class="edge">
<title>Node23&#45;&gt;Node25</title>
<path fill="none" stroke="midnightblue" d="M661.14,-280.44C641.73,-271.64 611.27,-257.81 589.04,-247.72"/>
<polygon fill="midnightblue" stroke="midnightblue" points="590.32,-244.46 579.77,-243.52 587.43,-250.84 590.32,-244.46"/>
</g>
<!-- Node26 -->
<g id="node26" class="node">
<title>Node26</title>
<g id="a_node26"><a xlink:title=" ">
<polygon fill="white" stroke="#bfbfbf" points="349.5,-224.5 349.5,-243.5 396.5,-243.5 396.5,-224.5 349.5,-224.5"/>
<text text-anchor="middle" x="373" y="-231.5" font-family="Helvetica,sans-Serif" font-size="10.00">vector</text>
</a>
</g>
</g>
<!-- Node23&#45;&gt;Node26 -->
<g id="edge36" class="edge">
<title>Node23&#45;&gt;Node26</title>
<path fill="none" stroke="midnightblue" d="M616.53,-280.48C563.05,-272.86 484.37,-260.65 406.68,-243.95"/>
<polygon fill="midnightblue" stroke="midnightblue" points="407.24,-240.49 396.72,-241.78 405.75,-247.33 407.24,-240.49"/>
</g>
<!-- Node27 -->
<g id="node27" class="node">
<title>Node27</title>
<g id="a_node27"><a xlink:title=" ">
<polygon fill="white" stroke="#bfbfbf" points="611,-224.5 611,-243.5 649,-243.5 649,-224.5 611,-224.5"/>
<text text-anchor="middle" x="630" y="-231.5" font-family="Helvetica,sans-Serif" font-size="10.00">map</text>
</a>
</g>
</g>
<!-- Node23&#45;&gt;Node27 -->
<g id="edge37" class="edge">
<title>Node23&#45;&gt;Node27</title>
<path fill="none" stroke="midnightblue" d="M671.74,-280.08C664.54,-272.3 653.89,-260.8 645.15,-251.37"/>
<polygon fill="midnightblue" stroke="midnightblue" points="647.47,-248.71 638.1,-243.75 642.33,-253.47 647.47,-248.71"/>
</g>
<!-- Node23&#45;&gt;Node28 -->
<g id="edge38" class="edge">
<title>Node23&#45;&gt;Node28</title>
<path fill="none" stroke="midnightblue" d="M712.8,-280.44C751.83,-270.26 816.57,-253.37 855.17,-243.3"/>
<polygon fill="midnightblue" stroke="midnightblue" points="856.06,-246.69 864.86,-240.78 854.3,-239.91 856.06,-246.69"/>
</g>
<!-- Node23&#45;&gt;Node29 -->
<g id="edge39" class="edge">
<title>Node23&#45;&gt;Node29</title>
<path fill="none" stroke="midnightblue" d="M642.61,-280.44C598.96,-270.46 527.12,-254.02 482.85,-243.89"/>
<polygon fill="midnightblue" stroke="midnightblue" points="483.56,-240.46 473.04,-241.64 482,-247.29 483.56,-240.46"/>
</g>
<!-- Node24&#45;&gt;Node8 -->
<g id="edge32" class="edge">
<title>Node24&#45;&gt;Node8</title>
<path fill="none" stroke="midnightblue" d="M700.45,-224.44C659.19,-215.04 592.86,-199.93 548.13,-189.74"/>
<polygon fill="midnightblue" stroke="midnightblue" points="548.91,-186.33 538.38,-187.52 547.35,-193.15 548.91,-186.33"/>
</g>
<!-- Node24&#45;&gt;Node10 -->
<g id="edge34" class="edge">
<title>Node24&#45;&gt;Node10</title>
<path fill="none" stroke="midnightblue" d="M739.13,-224.08C742.43,-197.95 752.14,-121.21 756.65,-85.58"/>
<polygon fill="midnightblue" stroke="midnightblue" points="760.13,-85.93 757.92,-75.57 753.19,-85.05 760.13,-85.93"/>
</g>
<!-- Node24&#45;&gt;Node21 -->
<g id="edge33" class="edge">
<title>Node24&#45;&gt;Node21</title>
<path fill="none" stroke="midnightblue" d="M728.58,-224.37C708.34,-205.81 660.45,-161.91 634.84,-138.44"/>
<polygon fill="midnightblue" stroke="midnightblue" points="637.11,-135.77 627.37,-131.59 632.38,-140.93 637.11,-135.77"/>
</g>
<!-- Node32 -->
<g id="node32" class="node">
<title>Node32</title>
<g id="a_node32"><a xlink:href="itkObjectFactoryBase_8h.html" target="_top" xlink:title=" ">
<polygon fill="white" stroke="black" points="360.5,-448.5 360.5,-467.5 489.5,-467.5 489.5,-448.5 360.5,-448.5"/>
<text text-anchor="middle" x="425" y="-455.5" font-family="Helvetica,sans-Serif" font-size="10.00">itkObjectFactoryBase.h</text>
</a>
</g>
</g>
<!-- Node31&#45;&gt;Node32 -->
<g id="edge44" class="edge">
<title>Node31&#45;&gt;Node32</title>
<path fill="none" stroke="midnightblue" d="M532.72,-504.44C511.65,-495.56 478.48,-481.56 454.51,-471.45"/>
<polygon fill="midnightblue" stroke="midnightblue" points="455.76,-468.18 445.19,-467.52 453.04,-474.63 455.76,-468.18"/>
</g>
<!-- Node32&#45;&gt;Node19 -->
<g id="edge47" class="edge">
<title>Node32&#45;&gt;Node19</title>
<path fill="none" stroke="midnightblue" d="M360.34,-455.65C255.74,-449.67 61,-421.06 61,-291 61,-291 61,-291 61,-177 61,-144.93 59.28,-107.63 58.1,-85.74"/>
<polygon fill="midnightblue" stroke="midnightblue" points="61.58,-85.34 57.52,-75.55 54.59,-85.73 61.58,-85.34"/>
</g>
<!-- Node32&#45;&gt;Node26 -->
<g id="edge53" class="edge">
<title>Node32&#45;&gt;Node26</title>
<path fill="none" stroke="midnightblue" d="M422.96,-448.3C415.29,-415.56 388.08,-299.38 377.37,-253.67"/>
<polygon fill="midnightblue" stroke="midnightblue" points="380.77,-252.82 375.08,-243.88 373.95,-254.42 380.77,-252.82"/>
</g>
<!-- Node32&#45;&gt;Node29 -->
<g id="edge52" class="edge">
<title>Node32&#45;&gt;Node29</title>
<path fill="none" stroke="midnightblue" d="M425.74,-448.3C428.54,-415.63 438.45,-299.87 442.38,-253.96"/>
<polygon fill="midnightblue" stroke="midnightblue" points="445.87,-254.15 443.24,-243.88 438.9,-253.55 445.87,-254.15"/>
</g>
<!-- Node33 -->
<g id="node33" class="node">
<title>Node33</title>
<g id="a_node33"><a xlink:href="itkCreateObjectFunction_8h.html" target="_top" xlink:title=" ">
<polygon fill="white" stroke="black" points="453.5,-392.5 453.5,-411.5 596.5,-411.5 596.5,-392.5 453.5,-392.5"/>
<text text-anchor="middle" x="525" y="-399.5" font-family="Helvetica,sans-Serif" font-size="10.00">itkCreateObjectFunction.h</text>
</a>
</g>
</g>
<!-- Node32&#45;&gt;Node33 -->
<g id="edge45" class="edge">
<title>Node32&#45;&gt;Node33</title>
<path fill="none" stroke="midnightblue" d="M441.07,-448.32C456.96,-439.74 481.51,-426.49 499.96,-416.52"/>
<polygon fill="midnightblue" stroke="midnightblue" points="501.84,-419.49 508.97,-411.65 498.51,-413.33 501.84,-419.49"/>
</g>
<!-- Node34 -->
<g id="node34" class="node">
<title>Node34</title>
<g id="a_node34"><a xlink:href="itkCommonEnums_8h.html" target="_top" xlink:title=" ">
<polygon fill="white" stroke="black" points="190,-392.5 190,-411.5 306,-411.5 306,-392.5 190,-392.5"/>
<text text-anchor="middle" x="248" y="-399.5" font-family="Helvetica,sans-Serif" font-size="10.00">itkCommonEnums.h</text>
</a>
</g>
</g>
<!-- Node32&#45;&gt;Node34 -->
<g id="edge48" class="edge">
<title>Node32&#45;&gt;Node34</title>
<path fill="none" stroke="midnightblue" d="M396.95,-448.44C366.92,-439.28 319.09,-424.69 285.76,-414.52"/>
<polygon fill="midnightblue" stroke="midnightblue" points="286.5,-411.09 275.91,-411.52 284.46,-417.78 286.5,-411.09"/>
</g>
<!-- Node36 -->
<g id="node36" class="node">
<title>Node36</title>
<g id="a_node36"><a xlink:title=" ">
<polygon fill="white" stroke="#bfbfbf" points="615,-392.5 615,-411.5 647,-411.5 647,-392.5 615,-392.5"/>
<text text-anchor="middle" x="631" y="-399.5" font-family="Helvetica,sans-Serif" font-size="10.00">list</text>
</a>
</g>
</g>
<!-- Node32&#45;&gt;Node36 -->
<g id="edge51" class="edge">
<title>Node32&#45;&gt;Node36</title>
<path fill="none" stroke="midnightblue" d="M463.19,-448.48C499.81,-440.08 556.53,-426.42 605,-412 605.1,-411.97 605.2,-411.94 605.3,-411.91"/>
<polygon fill="midnightblue" stroke="midnightblue" points="606.4,-415.23 614.84,-408.84 604.25,-408.57 606.4,-415.23"/>
</g>
<!-- Node33&#45;&gt;Node7 -->
<g id="edge46" class="edge">
<title>Node33&#45;&gt;Node7</title>
<path fill="none" stroke="midnightblue" d="M531.11,-392.08C536.28,-384.53 543.85,-373.49 550.19,-364.23"/>
<polygon fill="midnightblue" stroke="midnightblue" points="553.24,-365.98 556,-355.75 547.46,-362.02 553.24,-365.98"/>
</g>
<!-- Node34&#45;&gt;Node15 -->
<g id="edge49" class="edge">
<title>Node34&#45;&gt;Node15</title>
<path fill="none" stroke="midnightblue" d="M236.91,-392.33C216.49,-375.29 175,-335.24 175,-291 175,-291 175,-291 175,-177 175,-146.9 180.3,-138.8 194,-112 199.28,-101.67 207.07,-91.36 213.96,-83.22"/>
<polygon fill="midnightblue" stroke="midnightblue" points="216.68,-85.43 220.67,-75.61 211.43,-80.8 216.68,-85.43"/>
</g>
<!-- Node35 -->
<g id="node35" class="node">
<title>Node35</title>
<g id="a_node35"><a xlink:title=" ">
<polygon fill="white" stroke="#bfbfbf" points="219.5,-336.5 219.5,-355.5 276.5,-355.5 276.5,-336.5 219.5,-336.5"/>
<text text-anchor="middle" x="248" y="-343.5" font-family="Helvetica,sans-Serif" font-size="10.00">ostream</text>
</a>
</g>
</g>
<!-- Node34&#45;&gt;Node35 -->
<g id="edge50" class="edge">
<title>Node34&#45;&gt;Node35</title>
<path fill="none" stroke="midnightblue" d="M248,-392.08C248,-385.01 248,-374.86 248,-365.99"/>
<polygon fill="midnightblue" stroke="midnightblue" points="251.5,-365.75 248,-355.75 244.5,-365.75 251.5,-365.75"/>
</g>
<!-- Node39&#45;&gt;Node6 -->
<g id="edge58" class="edge">
<title>Node39&#45;&gt;Node6</title>
<path fill="none" stroke="midnightblue" d="M883.14,-560.44C917.9,-517.7 1065.35,-323.29 1007,-168 979.94,-95.98 946.85,-83.5 875,-56 779.76,-19.54 658.78,-12.07 594.64,-10.87"/>
<polygon fill="midnightblue" stroke="midnightblue" points="594.52,-7.37 584.47,-10.73 594.42,-14.37 594.52,-7.37"/>
</g>
<!-- Node39&#45;&gt;Node7 -->
<g id="edge59" class="edge">
<title>Node39&#45;&gt;Node7</title>
<path fill="none" stroke="midnightblue" d="M873.48,-560.29C864.59,-531.22 831.81,-436.89 769,-392 721.12,-357.78 652.21,-348.76 607.27,-346.8"/>
<polygon fill="midnightblue" stroke="midnightblue" points="607.34,-343.3 597.23,-346.47 607.11,-350.3 607.34,-343.3"/>
</g>
<!-- Node39&#45;&gt;Node31 -->
<g id="edge60" class="edge">
<title>Node39&#45;&gt;Node31</title>
<path fill="none" stroke="midnightblue" d="M824.82,-560.44C767.53,-550.87 674.76,-535.36 613.81,-525.17"/>
<polygon fill="midnightblue" stroke="midnightblue" points="614.38,-521.71 603.94,-523.52 613.23,-528.62 614.38,-521.71"/>
</g>
<!-- Node40 -->
<g id="node40" class="node">
<title>Node40</title>
<g id="a_node40"><a xlink:href="itkRealTimeStamp_8h.html" target="_top" xlink:title=" ">
<polygon fill="white" stroke="black" points="882,-168.5 882,-187.5 998,-187.5 998,-168.5 882,-168.5"/>
<text text-anchor="middle" x="940" y="-175.5" font-family="Helvetica,sans-Serif" font-size="10.00">itkRealTimeStamp.h</text>
</a>
</g>
</g>
<!-- Node39&#45;&gt;Node40 -->
<g id="edge61" class="edge">
<title>Node39&#45;&gt;Node40</title>
<path fill="none" stroke="midnightblue" d="M877.4,-560.49C885.4,-511.74 925.46,-267.61 936.93,-197.72"/>
<polygon fill="midnightblue" stroke="midnightblue" points="940.4,-198.17 938.57,-187.73 933.49,-197.03 940.4,-198.17"/>
</g>
<!-- Node40&#45;&gt;Node6 -->
<g id="edge66" class="edge">
<title>Node40&#45;&gt;Node6</title>
<path fill="none" stroke="midnightblue" d="M942.95,-168.2C946.84,-154.89 951.98,-129.36 941,-112 909.98,-62.94 878.4,-73.33 823,-56 744.62,-31.47 649.16,-19.64 594.4,-14.48"/>
<polygon fill="midnightblue" stroke="midnightblue" points="594.61,-10.98 584.33,-13.56 593.97,-17.95 594.61,-10.98"/>
</g>
<!-- Node40&#45;&gt;Node10 -->
<g id="edge67" class="edge">
<title>Node40&#45;&gt;Node10</title>
<path fill="none" stroke="midnightblue" d="M939.99,-168.07C939.48,-154.13 936.4,-127.19 921,-112 888.76,-80.19 836.08,-70.41 799.58,-67.64"/>
<polygon fill="midnightblue" stroke="midnightblue" points="799.48,-64.13 789.29,-67.01 799.05,-71.11 799.48,-64.13"/>
</g>
<!-- Node41 -->
<g id="node41" class="node">
<title>Node41</title>
<g id="a_node41"><a xlink:href="itkRealTimeInterval_8h.html" target="_top" xlink:title=" ">
<polygon fill="white" stroke="black" points="790,-112.5 790,-131.5 912,-131.5 912,-112.5 790,-112.5"/>
<text text-anchor="middle" x="851" y="-119.5" font-family="Helvetica,sans-Serif" font-size="10.00">itkRealTimeInterval.h</text>
</a>
</g>
</g>
<!-- Node40&#45;&gt;Node41 -->
<g id="edge62" class="edge">
<title>Node40&#45;&gt;Node41</title>
<path fill="none" stroke="midnightblue" d="M925.7,-168.32C911.82,-159.9 890.51,-146.97 874.2,-137.07"/>
<polygon fill="midnightblue" stroke="midnightblue" points="875.63,-133.85 865.26,-131.65 872,-139.83 875.63,-133.85"/>
</g>
<!-- Node41&#45;&gt;Node6 -->
<g id="edge64" class="edge">
<title>Node41&#45;&gt;Node6</title>
<path fill="none" stroke="midnightblue" d="M846.51,-112.17C838.73,-97.84 821.32,-69.76 798,-56 764.25,-36.08 656.3,-22 594.52,-15.35"/>
<polygon fill="midnightblue" stroke="midnightblue" points="594.59,-11.84 584.28,-14.27 593.86,-18.8 594.59,-11.84"/>
</g>
<!-- Node41&#45;&gt;Node10 -->
<g id="edge65" class="edge">
<title>Node41&#45;&gt;Node10</title>
<path fill="none" stroke="midnightblue" d="M836.22,-112.32C821.73,-103.82 799.43,-90.73 782.51,-80.8"/>
<polygon fill="midnightblue" stroke="midnightblue" points="784.14,-77.7 773.74,-75.65 780.6,-83.74 784.14,-77.7"/>
</g>
<!-- Node41&#45;&gt;Node15 -->
<g id="edge63" class="edge">
<title>Node41&#45;&gt;Node15</title>
<path fill="none" stroke="midnightblue" d="M790,-115.9C654.65,-104.58 339.27,-78.18 316,-76 303.95,-74.87 290.98,-73.57 278.81,-72.32"/>
<polygon fill="midnightblue" stroke="midnightblue" points="279.14,-68.83 268.83,-71.28 278.42,-75.8 279.14,-68.83"/>
</g>
</g>
</svg>
