<?xml version="1.0" encoding="UTF-8" standalone="no"?>
<!DOCTYPE svg PUBLIC "-//W3C//DTD SVG 1.1//EN"
 "http://www.w3.org/Graphics/SVG/1.1/DTD/svg11.dtd">
<!-- Generated by graphviz version 2.43.0 (0)
 -->
<!-- Title: itkThreadedIndexedContainerPartitioner.h Pages: 1 -->
<svg width="2791pt" height="396pt"
 viewBox="0.00 0.00 2791.00 396.00" xmlns="http://www.w3.org/2000/svg" xmlns:xlink="http://www.w3.org/1999/xlink">
<g id="graph0" class="graph" transform="scale(1 1) rotate(0) translate(4 392)">
<title>itkThreadedIndexedContainerPartitioner.h</title>
<polygon fill="white" stroke="transparent" points="-4,4 -4,-392 2787,-392 2787,4 -4,4"/>
<!-- Node1 -->
<g id="node1" class="node">
<title>Node1</title>
<g id="a_node1"><a xlink:title=" ">
<polygon fill="#bfbfbf" stroke="black" points="1775,-357.5 1775,-387.5 1936,-387.5 1936,-357.5 1775,-357.5"/>
<text text-anchor="start" x="1783" y="-375.5" font-family="Helvetica,sans-Serif" font-size="10.00">itkThreadedIndexedContainer</text>
<text text-anchor="middle" x="1855.5" y="-364.5" font-family="Helvetica,sans-Serif" font-size="10.00">Partitioner.h</text>
</a>
</g>
</g>
<!-- Node2 -->
<g id="node2" class="node">
<title>Node2</title>
<g id="a_node2"><a xlink:href="itkANTSNeighborhoodCorrelationImageToImageMetricv4GetValueAndDerivativeThreader_8h.html" target="_top" xlink:title=" ">
<polygon fill="white" stroke="black" points="0,-201.5 0,-242.5 245,-242.5 245,-201.5 0,-201.5"/>
<text text-anchor="start" x="8" y="-230.5" font-family="Helvetica,sans-Serif" font-size="10.00">itkANTSNeighborhoodCorrelation</text>
<text text-anchor="start" x="8" y="-219.5" font-family="Helvetica,sans-Serif" font-size="10.00">ImageToImageMetricv4GetValueAndDerivative</text>
<text text-anchor="middle" x="122.5" y="-208.5" font-family="Helvetica,sans-Serif" font-size="10.00">Threader.h</text>
</a>
</g>
</g>
<!-- Node1&#45;&gt;Node2 -->
<g id="edge1" class="edge">
<title>Node1&#45;&gt;Node2</title>
<path fill="none" stroke="midnightblue" d="M1764.6,-368.7C1594.92,-363.03 1218.54,-348.33 902.5,-321 613.06,-295.97 541.36,-282.26 253.5,-243 250.76,-242.63 248,-242.24 245.21,-241.86"/>
<polygon fill="midnightblue" stroke="midnightblue" points="1764.62,-372.2 1774.73,-369.04 1764.86,-365.21 1764.62,-372.2"/>
</g>
<!-- Node4 -->
<g id="node4" class="node">
<title>Node4</title>
<g id="a_node4"><a xlink:href="itkGradientDescentOptimizerBasev4_8h.html" target="_top" xlink:title=" ">
<polygon fill="white" stroke="black" points="1970,-285 1970,-315 2129,-315 2129,-285 1970,-285"/>
<text text-anchor="start" x="1978" y="-303" font-family="Helvetica,sans-Serif" font-size="10.00">itkGradientDescentOptimizer</text>
<text text-anchor="middle" x="2049.5" y="-292" font-family="Helvetica,sans-Serif" font-size="10.00">Basev4.h</text>
</a>
</g>
</g>
<!-- Node1&#45;&gt;Node4 -->
<g id="edge3" class="edge">
<title>Node1&#45;&gt;Node4</title>
<path fill="none" stroke="midnightblue" d="M1903.75,-353.96C1936.78,-341.96 1980,-326.26 2010.77,-315.07"/>
<polygon fill="midnightblue" stroke="midnightblue" points="1902.5,-350.7 1894.29,-357.4 1904.89,-357.28 1902.5,-350.7"/>
</g>
<!-- Node13 -->
<g id="node13" class="node">
<title>Node13</title>
<g id="a_node13"><a xlink:href="itkGradientDescentOptimizerBasev4ModifyGradientByLearningRateThreader_8h.html" target="_top" xlink:title=" ">
<polygon fill="white" stroke="black" points="2147,-279.5 2147,-320.5 2352,-320.5 2352,-279.5 2147,-279.5"/>
<text text-anchor="start" x="2155" y="-308.5" font-family="Helvetica,sans-Serif" font-size="10.00">itkGradientDescentOptimizer</text>
<text text-anchor="start" x="2155" y="-297.5" font-family="Helvetica,sans-Serif" font-size="10.00">Basev4ModifyGradientByLearningRate</text>
<text text-anchor="middle" x="2249.5" y="-286.5" font-family="Helvetica,sans-Serif" font-size="10.00">Threader.h</text>
</a>
</g>
</g>
<!-- Node1&#45;&gt;Node13 -->
<g id="edge12" class="edge">
<title>Node1&#45;&gt;Node13</title>
<path fill="none" stroke="midnightblue" d="M1943.67,-355.72C2003.8,-344.96 2083.64,-330.68 2146.67,-319.4"/>
<polygon fill="midnightblue" stroke="midnightblue" points="1943.04,-352.28 1933.81,-357.49 1944.27,-359.17 1943.04,-352.28"/>
</g>
<!-- Node14 -->
<g id="node14" class="node">
<title>Node14</title>
<g id="a_node14"><a xlink:href="itkGradientDescentOptimizerBasev4ModifyGradientByScalesThreader_8h.html" target="_top" xlink:title=" ">
<polygon fill="white" stroke="black" points="2369.5,-285 2369.5,-315 2593.5,-315 2593.5,-285 2369.5,-285"/>
<text text-anchor="start" x="2377.5" y="-303" font-family="Helvetica,sans-Serif" font-size="10.00">itkGradientDescentOptimizer</text>
<text text-anchor="middle" x="2481.5" y="-292" font-family="Helvetica,sans-Serif" font-size="10.00">Basev4ModifyGradientByScalesThreader.h</text>
</a>
</g>
</g>
<!-- Node1&#45;&gt;Node14 -->
<g id="edge13" class="edge">
<title>Node1&#45;&gt;Node14</title>
<path fill="none" stroke="midnightblue" d="M1946.34,-364.18C2047.59,-355.62 2216.1,-340.13 2360.5,-321 2373.69,-319.25 2387.66,-317.17 2401.23,-315.01"/>
<polygon fill="midnightblue" stroke="midnightblue" points="1945.82,-360.71 1936.15,-365.04 1946.41,-367.69 1945.82,-360.71"/>
</g>
<!-- Node15 -->
<g id="node15" class="node">
<title>Node15</title>
<g id="a_node15"><a xlink:href="itkImageToImageMetricv4_8h.html" target="_top" xlink:title=" ">
<polygon fill="white" stroke="black" points="1125,-212.5 1125,-231.5 1278,-231.5 1278,-212.5 1125,-212.5"/>
<text text-anchor="middle" x="1201.5" y="-219.5" font-family="Helvetica,sans-Serif" font-size="10.00">itkImageToImageMetricv4.h</text>
</a>
</g>
</g>
<!-- Node1&#45;&gt;Node15 -->
<g id="edge14" class="edge">
<title>Node1&#45;&gt;Node15</title>
<path fill="none" stroke="midnightblue" d="M1783.04,-355.25C1675.05,-331.01 1465.48,-283.83 1287.5,-243 1271.21,-239.26 1253.21,-235.08 1237.89,-231.51"/>
<polygon fill="midnightblue" stroke="midnightblue" points="1782.33,-358.68 1792.86,-357.46 1783.86,-351.85 1782.33,-358.68"/>
</g>
<!-- Node24 -->
<g id="node24" class="node">
<title>Node24</title>
<g id="a_node24"><a xlink:href="itkMattesMutualInformationImageToImageMetricv4_8h.html" target="_top" xlink:title=" ">
<polygon fill="white" stroke="black" points="1316.5,-134.5 1316.5,-164.5 1470.5,-164.5 1470.5,-134.5 1316.5,-134.5"/>
<text text-anchor="start" x="1324.5" y="-152.5" font-family="Helvetica,sans-Serif" font-size="10.00">itkMattesMutualInformation</text>
<text text-anchor="middle" x="1393.5" y="-141.5" font-family="Helvetica,sans-Serif" font-size="10.00">ImageToImageMetricv4.h</text>
</a>
</g>
</g>
<!-- Node1&#45;&gt;Node24 -->
<g id="edge43" class="edge">
<title>Node1&#45;&gt;Node24</title>
<path fill="none" stroke="midnightblue" d="M1796.41,-353.44C1779.34,-345.77 1761.98,-335.22 1749.5,-321 1712.51,-278.85 1753.13,-237.44 1710.5,-201 1708.21,-199.04 1563.83,-176.6 1470.73,-162.3"/>
<polygon fill="midnightblue" stroke="midnightblue" points="1795.25,-356.75 1805.82,-357.41 1797.97,-350.3 1795.25,-356.75"/>
</g>
<!-- Node26 -->
<g id="node26" class="node">
<title>Node26</title>
<g id="a_node26"><a xlink:href="itkImageToImageMetricv4GetValueAndDerivativeThreader_8h.html" target="_top" xlink:title=" ">
<polygon fill="white" stroke="black" points="912,-285 912,-315 1077,-315 1077,-285 912,-285"/>
<text text-anchor="start" x="920" y="-303" font-family="Helvetica,sans-Serif" font-size="10.00">itkImageToImageMetricv4Get</text>
<text text-anchor="middle" x="994.5" y="-292" font-family="Helvetica,sans-Serif" font-size="10.00">ValueAndDerivativeThreader.h</text>
</a>
</g>
</g>
<!-- Node1&#45;&gt;Node26 -->
<g id="edge26" class="edge">
<title>Node1&#45;&gt;Node26</title>
<path fill="none" stroke="midnightblue" d="M1764.83,-364.08C1596.74,-350.31 1239.2,-321.04 1077.27,-307.78"/>
<polygon fill="midnightblue" stroke="midnightblue" points="1764.63,-367.57 1774.89,-364.9 1765.21,-360.59 1764.63,-367.57"/>
</g>
<!-- Node33 -->
<g id="node33" class="node">
<title>Node33</title>
<g id="a_node33"><a xlink:href="itkJointHistogramMutualInformationComputeJointPDFThreader_8h.html" target="_top" xlink:title=" ">
<polygon fill="white" stroke="black" points="1759,-285 1759,-315 1952,-315 1952,-285 1759,-285"/>
<text text-anchor="start" x="1767" y="-303" font-family="Helvetica,sans-Serif" font-size="10.00">itkJointHistogramMutualInformation</text>
<text text-anchor="middle" x="1855.5" y="-292" font-family="Helvetica,sans-Serif" font-size="10.00">ComputeJointPDFThreader.h</text>
</a>
</g>
</g>
<!-- Node1&#45;&gt;Node33 -->
<g id="edge41" class="edge">
<title>Node1&#45;&gt;Node33</title>
<path fill="none" stroke="midnightblue" d="M1855.5,-347.23C1855.5,-336.57 1855.5,-324.41 1855.5,-315.25"/>
<polygon fill="midnightblue" stroke="midnightblue" points="1852,-347.23 1855.5,-357.23 1859,-347.23 1852,-347.23"/>
</g>
<!-- Node34 -->
<g id="node34" class="node">
<title>Node34</title>
<g id="a_node34"><a xlink:href="itkQuasiNewtonOptimizerv4EstimateNewtonStepThreader_8h.html" target="_top" xlink:title=" ">
<polygon fill="white" stroke="black" points="2612,-285 2612,-315 2783,-315 2783,-285 2612,-285"/>
<text text-anchor="start" x="2620" y="-303" font-family="Helvetica,sans-Serif" font-size="10.00">itkQuasiNewtonOptimizerv4</text>
<text text-anchor="middle" x="2697.5" y="-292" font-family="Helvetica,sans-Serif" font-size="10.00">EstimateNewtonStepThreader.h</text>
</a>
</g>
</g>
<!-- Node1&#45;&gt;Node34 -->
<g id="edge44" class="edge">
<title>Node1&#45;&gt;Node34</title>
<path fill="none" stroke="midnightblue" d="M1946.35,-369.45C2087.39,-365.36 2367.29,-353.55 2602.5,-321 2613.77,-319.44 2625.7,-317.31 2637.16,-315.03"/>
<polygon fill="midnightblue" stroke="midnightblue" points="1945.92,-365.97 1936.02,-369.75 1946.12,-372.96 1945.92,-365.97"/>
</g>
<!-- Node3 -->
<g id="node3" class="node">
<title>Node3</title>
<g id="a_node3"><a xlink:href="itkANTSNeighborhoodCorrelationImageToImageMetricv4_8h.html" target="_top" xlink:title=" ">
<polygon fill="white" stroke="black" points="171.5,-134.5 171.5,-164.5 349.5,-164.5 349.5,-134.5 171.5,-134.5"/>
<text text-anchor="start" x="179.5" y="-152.5" font-family="Helvetica,sans-Serif" font-size="10.00">itkANTSNeighborhoodCorrelation</text>
<text text-anchor="middle" x="260.5" y="-141.5" font-family="Helvetica,sans-Serif" font-size="10.00">ImageToImageMetricv4.h</text>
</a>
</g>
</g>
<!-- Node2&#45;&gt;Node3 -->
<g id="edge2" class="edge">
<title>Node2&#45;&gt;Node3</title>
<path fill="none" stroke="midnightblue" d="M170.01,-196.73C190.94,-186.04 214.8,-173.85 232.76,-164.67"/>
<polygon fill="midnightblue" stroke="midnightblue" points="168.25,-193.7 160.94,-201.36 171.44,-199.93 168.25,-193.7"/>
</g>
<!-- Node5 -->
<g id="node5" class="node">
<title>Node5</title>
<g id="a_node5"><a xlink:href="itkGradientDescentOptimizerv4_8h.html" target="_top" xlink:title=" ">
<polygon fill="white" stroke="black" points="2051.5,-212.5 2051.5,-231.5 2231.5,-231.5 2231.5,-212.5 2051.5,-212.5"/>
<text text-anchor="middle" x="2141.5" y="-219.5" font-family="Helvetica,sans-Serif" font-size="10.00">itkGradientDescentOptimizerv4.h</text>
</a>
</g>
</g>
<!-- Node4&#45;&gt;Node5 -->
<g id="edge4" class="edge">
<title>Node4&#45;&gt;Node5</title>
<path fill="none" stroke="midnightblue" d="M2074.62,-278.25C2093.19,-262.91 2117.53,-242.81 2131.13,-231.56"/>
<polygon fill="midnightblue" stroke="midnightblue" points="2072.29,-275.64 2066.8,-284.7 2076.74,-281.03 2072.29,-275.64"/>
</g>
<!-- Node6 -->
<g id="node6" class="node">
<title>Node6</title>
<g id="a_node6"><a xlink:href="itkGradientDescentLineSearchOptimizerv4_8h.html" target="_top" xlink:title=" ">
<polygon fill="white" stroke="black" points="2244.5,-134.5 2244.5,-164.5 2408.5,-164.5 2408.5,-134.5 2244.5,-134.5"/>
<text text-anchor="start" x="2252.5" y="-152.5" font-family="Helvetica,sans-Serif" font-size="10.00">itkGradientDescentLineSearch</text>
<text text-anchor="middle" x="2326.5" y="-141.5" font-family="Helvetica,sans-Serif" font-size="10.00">Optimizerv4.h</text>
</a>
</g>
</g>
<!-- Node5&#45;&gt;Node6 -->
<g id="edge5" class="edge">
<title>Node5&#45;&gt;Node6</title>
<path fill="none" stroke="midnightblue" d="M2173.25,-208.9C2205.59,-196.58 2255.7,-177.48 2289.75,-164.51"/>
<polygon fill="midnightblue" stroke="midnightblue" points="2171.91,-205.66 2163.82,-212.5 2174.41,-212.21 2171.91,-205.66"/>
</g>
<!-- Node8 -->
<g id="node8" class="node">
<title>Node8</title>
<g id="a_node8"><a xlink:href="itkLBFGS2Optimizerv4_8h.html" target="_top" xlink:title=" ">
<polygon fill="white" stroke="black" points="2426.5,-140 2426.5,-159 2562.5,-159 2562.5,-140 2426.5,-140"/>
<text text-anchor="middle" x="2494.5" y="-147" font-family="Helvetica,sans-Serif" font-size="10.00">itkLBFGS2Optimizerv4.h</text>
</a>
</g>
</g>
<!-- Node5&#45;&gt;Node8 -->
<g id="edge7" class="edge">
<title>Node5&#45;&gt;Node8</title>
<path fill="none" stroke="midnightblue" d="M2194.03,-210.51C2264.15,-196.5 2387.01,-171.97 2451.77,-159.03"/>
<polygon fill="midnightblue" stroke="midnightblue" points="2193.2,-207.11 2184.08,-212.5 2194.57,-213.97 2193.2,-207.11"/>
</g>
<!-- Node9 -->
<g id="node9" class="node">
<title>Node9</title>
<g id="a_node9"><a xlink:href="itkMultiGradientOptimizerv4_8h.html" target="_top" xlink:title=" ">
<polygon fill="white" stroke="black" points="2581,-140 2581,-159 2746,-159 2746,-140 2581,-140"/>
<text text-anchor="middle" x="2663.5" y="-147" font-family="Helvetica,sans-Serif" font-size="10.00">itkMultiGradientOptimizerv4.h</text>
</a>
</g>
</g>
<!-- Node5&#45;&gt;Node9 -->
<g id="edge8" class="edge">
<title>Node5&#45;&gt;Node9</title>
<path fill="none" stroke="midnightblue" d="M2221.59,-211.22C2308.01,-200.52 2449.65,-182.53 2571.5,-165 2584.3,-163.16 2598.09,-161.05 2610.99,-159.02"/>
<polygon fill="midnightblue" stroke="midnightblue" points="2221.08,-207.76 2211.59,-212.46 2221.94,-214.7 2221.08,-207.76"/>
</g>
<!-- Node10 -->
<g id="node10" class="node">
<title>Node10</title>
<g id="a_node10"><a xlink:href="itkMultiStartOptimizerv4_8h.html" target="_top" xlink:title=" ">
<polygon fill="white" stroke="black" points="1710.5,-140 1710.5,-159 1856.5,-159 1856.5,-140 1710.5,-140"/>
<text text-anchor="middle" x="1783.5" y="-147" font-family="Helvetica,sans-Serif" font-size="10.00">itkMultiStartOptimizerv4.h</text>
</a>
</g>
</g>
<!-- Node5&#45;&gt;Node10 -->
<g id="edge9" class="edge">
<title>Node5&#45;&gt;Node10</title>
<path fill="none" stroke="midnightblue" d="M2088.23,-210.51C2017.11,-196.5 1892.51,-171.97 1826.84,-159.03"/>
<polygon fill="midnightblue" stroke="midnightblue" points="2087.83,-214 2098.32,-212.5 2089.18,-207.13 2087.83,-214"/>
</g>
<!-- Node11 -->
<g id="node11" class="node">
<title>Node11</title>
<g id="a_node11"><a xlink:href="itkQuasiNewtonOptimizerv4_8h.html" target="_top" xlink:title=" ">
<polygon fill="white" stroke="black" points="1874.5,-140 1874.5,-159 2038.5,-159 2038.5,-140 1874.5,-140"/>
<text text-anchor="middle" x="1956.5" y="-147" font-family="Helvetica,sans-Serif" font-size="10.00">itkQuasiNewtonOptimizerv4.h</text>
</a>
</g>
</g>
<!-- Node5&#45;&gt;Node11 -->
<g id="edge10" class="edge">
<title>Node5&#45;&gt;Node11</title>
<path fill="none" stroke="midnightblue" d="M2109.79,-208.92C2072.51,-194.71 2011.58,-171.49 1978.89,-159.03"/>
<polygon fill="midnightblue" stroke="midnightblue" points="2108.59,-212.21 2119.18,-212.5 2111.09,-205.66 2108.59,-212.21"/>
</g>
<!-- Node12 -->
<g id="node12" class="node">
<title>Node12</title>
<g id="a_node12"><a xlink:href="itkRegularStepGradientDescentOptimizerv4_8h.html" target="_top" xlink:title=" ">
<polygon fill="white" stroke="black" points="2056.5,-134.5 2056.5,-164.5 2226.5,-164.5 2226.5,-134.5 2056.5,-134.5"/>
<text text-anchor="start" x="2064.5" y="-152.5" font-family="Helvetica,sans-Serif" font-size="10.00">itkRegularStepGradientDescent</text>
<text text-anchor="middle" x="2141.5" y="-141.5" font-family="Helvetica,sans-Serif" font-size="10.00">Optimizerv4.h</text>
</a>
</g>
</g>
<!-- Node5&#45;&gt;Node12 -->
<g id="edge11" class="edge">
<title>Node5&#45;&gt;Node12</title>
<path fill="none" stroke="midnightblue" d="M2141.5,-202.24C2141.5,-190.41 2141.5,-175.38 2141.5,-164.58"/>
<polygon fill="midnightblue" stroke="midnightblue" points="2138,-202.36 2141.5,-212.36 2145,-202.36 2138,-202.36"/>
</g>
<!-- Node7 -->
<g id="node7" class="node">
<title>Node7</title>
<g id="a_node7"><a xlink:href="itkConjugateGradientLineSearchOptimizerv4_8h.html" target="_top" xlink:title=" ">
<polygon fill="white" stroke="black" points="2256,-67.5 2256,-97.5 2397,-97.5 2397,-67.5 2256,-67.5"/>
<text text-anchor="start" x="2264" y="-85.5" font-family="Helvetica,sans-Serif" font-size="10.00">itkConjugateGradientLine</text>
<text text-anchor="middle" x="2326.5" y="-74.5" font-family="Helvetica,sans-Serif" font-size="10.00">SearchOptimizerv4.h</text>
</a>
</g>
</g>
<!-- Node6&#45;&gt;Node7 -->
<g id="edge6" class="edge">
<title>Node6&#45;&gt;Node7</title>
<path fill="none" stroke="midnightblue" d="M2326.5,-124.11C2326.5,-115.15 2326.5,-105.32 2326.5,-97.58"/>
<polygon fill="midnightblue" stroke="midnightblue" points="2323,-124.4 2326.5,-134.4 2330,-124.4 2323,-124.4"/>
</g>
<!-- Node15&#45;&gt;Node3 -->
<g id="edge15" class="edge">
<title>Node15&#45;&gt;Node3</title>
<path fill="none" stroke="midnightblue" d="M1160.73,-210.02C1146.51,-206.59 1130.39,-203.15 1115.5,-201 842.75,-161.65 771.58,-181.45 496.5,-165 447.94,-162.1 393.77,-158.77 349.59,-156.04"/>
<polygon fill="midnightblue" stroke="midnightblue" points="1160.14,-213.48 1170.69,-212.49 1161.83,-206.69 1160.14,-213.48"/>
</g>
<!-- Node16 -->
<g id="node16" class="node">
<title>Node16</title>
<g id="a_node16"><a xlink:href="itkCorrelationImageToImageMetricv4_8h.html" target="_top" xlink:title=" ">
<polygon fill="white" stroke="black" points="506,-134.5 506,-164.5 661,-164.5 661,-134.5 506,-134.5"/>
<text text-anchor="start" x="514" y="-152.5" font-family="Helvetica,sans-Serif" font-size="10.00">itkCorrelationImageToImage</text>
<text text-anchor="middle" x="583.5" y="-141.5" font-family="Helvetica,sans-Serif" font-size="10.00">Metricv4.h</text>
</a>
</g>
</g>
<!-- Node15&#45;&gt;Node16 -->
<g id="edge16" class="edge">
<title>Node15&#45;&gt;Node16</title>
<path fill="none" stroke="midnightblue" d="M1159.99,-210.07C1145.95,-206.72 1130.12,-203.3 1115.5,-201 927.37,-171.35 877.79,-186.03 688.5,-165 679.63,-164.01 670.35,-162.88 661.14,-161.69"/>
<polygon fill="midnightblue" stroke="midnightblue" points="1159.31,-213.51 1169.86,-212.49 1160.98,-206.71 1159.31,-213.51"/>
</g>
<!-- Node17 -->
<g id="node17" class="node">
<title>Node17</title>
<g id="a_node17"><a xlink:href="itkDemonsImageToImageMetricv4_8h.html" target="_top" xlink:title=" ">
<polygon fill="white" stroke="black" points="697.5,-140 697.5,-159 891.5,-159 891.5,-140 697.5,-140"/>
<text text-anchor="middle" x="794.5" y="-147" font-family="Helvetica,sans-Serif" font-size="10.00">itkDemonsImageToImageMetricv4.h</text>
</a>
</g>
</g>
<!-- Node15&#45;&gt;Node17 -->
<g id="edge17" class="edge">
<title>Node15&#45;&gt;Node17</title>
<path fill="none" stroke="midnightblue" d="M1157.37,-210.09C1143.97,-206.95 1129.17,-203.66 1115.5,-201 1026.35,-183.64 922.37,-168.14 857.47,-159.03"/>
<polygon fill="midnightblue" stroke="midnightblue" points="1156.77,-213.54 1167.31,-212.45 1158.38,-206.73 1156.77,-213.54"/>
</g>
<!-- Node18 -->
<g id="node18" class="node">
<title>Node18</title>
<g id="a_node18"><a xlink:href="itkImageRegistrationMethodv4_8h.html" target="_top" xlink:title=" ">
<polygon fill="white" stroke="black" points="1113,-140 1113,-159 1290,-159 1290,-140 1113,-140"/>
<text text-anchor="middle" x="1201.5" y="-147" font-family="Helvetica,sans-Serif" font-size="10.00">itkImageRegistrationMethodv4.h</text>
</a>
</g>
</g>
<!-- Node15&#45;&gt;Node18 -->
<g id="edge18" class="edge">
<title>Node15&#45;&gt;Node18</title>
<path fill="none" stroke="midnightblue" d="M1201.5,-201.94C1201.5,-188.03 1201.5,-169.82 1201.5,-159.22"/>
<polygon fill="midnightblue" stroke="midnightblue" points="1198,-202.36 1201.5,-212.36 1205,-202.36 1198,-202.36"/>
</g>
<!-- Node23 -->
<g id="node23" class="node">
<title>Node23</title>
<g id="a_node23"><a xlink:href="itkJointHistogramMutualInformationImageToImageMetricv4_8h.html" target="_top" xlink:title=" ">
<polygon fill="white" stroke="black" points="1499,-134.5 1499,-164.5 1692,-164.5 1692,-134.5 1499,-134.5"/>
<text text-anchor="start" x="1507" y="-152.5" font-family="Helvetica,sans-Serif" font-size="10.00">itkJointHistogramMutualInformation</text>
<text text-anchor="middle" x="1595.5" y="-141.5" font-family="Helvetica,sans-Serif" font-size="10.00">ImageToImageMetricv4.h</text>
</a>
</g>
</g>
<!-- Node15&#45;&gt;Node23 -->
<g id="edge23" class="edge">
<title>Node15&#45;&gt;Node23</title>
<path fill="none" stroke="midnightblue" d="M1245.64,-210.15C1259.05,-207.01 1273.84,-203.71 1287.5,-201 1358.33,-186.97 1438.87,-173.87 1499.82,-164.52"/>
<polygon fill="midnightblue" stroke="midnightblue" points="1244.63,-206.79 1235.7,-212.5 1246.24,-213.6 1244.63,-206.79"/>
</g>
<!-- Node15&#45;&gt;Node24 -->
<g id="edge24" class="edge">
<title>Node15&#45;&gt;Node24</title>
<path fill="none" stroke="midnightblue" d="M1234.45,-208.9C1268.01,-196.58 1320.02,-177.48 1355.36,-164.51"/>
<polygon fill="midnightblue" stroke="midnightblue" points="1232.84,-205.76 1224.66,-212.5 1235.25,-212.33 1232.84,-205.76"/>
</g>
<!-- Node25 -->
<g id="node25" class="node">
<title>Node25</title>
<g id="a_node25"><a xlink:href="itkMeanSquaresImageToImageMetricv4_8h.html" target="_top" xlink:title=" ">
<polygon fill="white" stroke="black" points="919,-134.5 919,-164.5 1086,-164.5 1086,-134.5 919,-134.5"/>
<text text-anchor="start" x="927" y="-152.5" font-family="Helvetica,sans-Serif" font-size="10.00">itkMeanSquaresImageToImage</text>
<text text-anchor="middle" x="1002.5" y="-141.5" font-family="Helvetica,sans-Serif" font-size="10.00">Metricv4.h</text>
</a>
</g>
</g>
<!-- Node15&#45;&gt;Node25 -->
<g id="edge25" class="edge">
<title>Node15&#45;&gt;Node25</title>
<path fill="none" stroke="midnightblue" d="M1167.8,-209.06C1133.03,-196.74 1078.81,-177.54 1042.03,-164.51"/>
<polygon fill="midnightblue" stroke="midnightblue" points="1166.9,-212.46 1177.5,-212.5 1169.24,-205.86 1166.9,-212.46"/>
</g>
<!-- Node19 -->
<g id="node19" class="node">
<title>Node19</title>
<g id="a_node19"><a xlink:href="itkSyNImageRegistrationMethod_8h.html" target="_top" xlink:title=" ">
<polygon fill="white" stroke="black" points="911,-73 911,-92 1096,-92 1096,-73 911,-73"/>
<text text-anchor="middle" x="1003.5" y="-80" font-family="Helvetica,sans-Serif" font-size="10.00">itkSyNImageRegistrationMethod.h</text>
</a>
</g>
</g>
<!-- Node18&#45;&gt;Node19 -->
<g id="edge19" class="edge">
<title>Node18&#45;&gt;Node19</title>
<path fill="none" stroke="midnightblue" d="M1165.5,-136.68C1126.26,-123.8 1064.41,-103.5 1029.59,-92.06"/>
<polygon fill="midnightblue" stroke="midnightblue" points="1164.61,-140.07 1175.21,-139.87 1166.8,-133.42 1164.61,-140.07"/>
</g>
<!-- Node21 -->
<g id="node21" class="node">
<title>Node21</title>
<g id="a_node21"><a xlink:href="itkTimeVaryingBSplineVelocityFieldImageRegistrationMethod_8h.html" target="_top" xlink:title=" ">
<polygon fill="white" stroke="black" points="1113.5,-67.5 1113.5,-97.5 1289.5,-97.5 1289.5,-67.5 1113.5,-67.5"/>
<text text-anchor="start" x="1121.5" y="-85.5" font-family="Helvetica,sans-Serif" font-size="10.00">itkTimeVaryingBSplineVelocity</text>
<text text-anchor="middle" x="1201.5" y="-74.5" font-family="Helvetica,sans-Serif" font-size="10.00">FieldImageRegistrationMethod.h</text>
</a>
</g>
</g>
<!-- Node18&#45;&gt;Node21 -->
<g id="edge21" class="edge">
<title>Node18&#45;&gt;Node21</title>
<path fill="none" stroke="midnightblue" d="M1201.5,-129.41C1201.5,-119.22 1201.5,-106.9 1201.5,-97.59"/>
<polygon fill="midnightblue" stroke="midnightblue" points="1198,-129.73 1201.5,-139.73 1205,-129.73 1198,-129.73"/>
</g>
<!-- Node22 -->
<g id="node22" class="node">
<title>Node22</title>
<g id="a_node22"><a xlink:href="itkTimeVaryingVelocityFieldImageRegistrationMethodv4_8h.html" target="_top" xlink:title=" ">
<polygon fill="white" stroke="black" points="1307.5,-67.5 1307.5,-97.5 1471.5,-97.5 1471.5,-67.5 1307.5,-67.5"/>
<text text-anchor="start" x="1315.5" y="-85.5" font-family="Helvetica,sans-Serif" font-size="10.00">itkTimeVaryingVelocityField</text>
<text text-anchor="middle" x="1389.5" y="-74.5" font-family="Helvetica,sans-Serif" font-size="10.00">ImageRegistrationMethodv4.h</text>
</a>
</g>
</g>
<!-- Node18&#45;&gt;Node22 -->
<g id="edge22" class="edge">
<title>Node18&#45;&gt;Node22</title>
<path fill="none" stroke="midnightblue" d="M1236.24,-136.49C1268.11,-125.47 1315.33,-109.14 1348.93,-97.53"/>
<polygon fill="midnightblue" stroke="midnightblue" points="1234.77,-133.29 1226.46,-139.87 1237.06,-139.91 1234.77,-133.29"/>
</g>
<!-- Node20 -->
<g id="node20" class="node">
<title>Node20</title>
<g id="a_node20"><a xlink:href="itkBSplineSyNImageRegistrationMethod_8h.html" target="_top" xlink:title=" ">
<polygon fill="white" stroke="black" points="915.5,-0.5 915.5,-30.5 1091.5,-30.5 1091.5,-0.5 915.5,-0.5"/>
<text text-anchor="start" x="923.5" y="-18.5" font-family="Helvetica,sans-Serif" font-size="10.00">itkBSplineSyNImageRegistration</text>
<text text-anchor="middle" x="1003.5" y="-7.5" font-family="Helvetica,sans-Serif" font-size="10.00">Method.h</text>
</a>
</g>
</g>
<!-- Node19&#45;&gt;Node20 -->
<g id="edge20" class="edge">
<title>Node19&#45;&gt;Node20</title>
<path fill="none" stroke="midnightblue" d="M1003.5,-62.41C1003.5,-52.22 1003.5,-39.9 1003.5,-30.59"/>
<polygon fill="midnightblue" stroke="midnightblue" points="1000,-62.73 1003.5,-72.73 1007,-62.73 1000,-62.73"/>
</g>
<!-- Node26&#45;&gt;Node2 -->
<g id="edge27" class="edge">
<title>Node26&#45;&gt;Node2</title>
<path fill="none" stroke="midnightblue" d="M901.49,-294.25C760.89,-286.55 485.94,-269.49 253.5,-243 250.76,-242.69 247.98,-242.36 245.19,-242.02"/>
<polygon fill="midnightblue" stroke="midnightblue" points="901.62,-297.76 911.79,-294.81 902,-290.77 901.62,-297.76"/>
</g>
<!-- Node26&#45;&gt;Node15 -->
<g id="edge34" class="edge">
<title>Node26&#45;&gt;Node15</title>
<path fill="none" stroke="midnightblue" d="M1042.54,-281.36C1085.06,-265.75 1145.3,-243.63 1178.06,-231.61"/>
<polygon fill="midnightblue" stroke="midnightblue" points="1041.13,-278.15 1032.95,-284.88 1043.54,-284.72 1041.13,-278.15"/>
</g>
<!-- Node27 -->
<g id="node27" class="node">
<title>Node27</title>
<g id="a_node27"><a xlink:href="itkCorrelationImageToImageMetricv4GetValueAndDerivativeThreader_8h.html" target="_top" xlink:title=" ">
<polygon fill="white" stroke="black" points="263,-207 263,-237 488,-237 488,-207 263,-207"/>
<text text-anchor="start" x="271" y="-225" font-family="Helvetica,sans-Serif" font-size="10.00">itkCorrelationImageToImage</text>
<text text-anchor="middle" x="375.5" y="-214" font-family="Helvetica,sans-Serif" font-size="10.00">Metricv4GetValueAndDerivativeThreader.h</text>
</a>
</g>
</g>
<!-- Node26&#45;&gt;Node27 -->
<g id="edge28" class="edge">
<title>Node26&#45;&gt;Node27</title>
<path fill="none" stroke="midnightblue" d="M901.86,-290.03C801.72,-280 637.51,-262.57 496.5,-243 483.64,-241.21 470.03,-239.14 456.77,-237.03"/>
<polygon fill="midnightblue" stroke="midnightblue" points="901.65,-293.53 911.95,-291.04 902.34,-286.56 901.65,-293.53"/>
</g>
<!-- Node28 -->
<g id="node28" class="node">
<title>Node28</title>
<g id="a_node28"><a xlink:href="itkCorrelationImageToImageMetricv4HelperThreader_8h.html" target="_top" xlink:title=" ">
<polygon fill="white" stroke="black" points="506,-207 506,-237 661,-237 661,-207 506,-207"/>
<text text-anchor="start" x="514" y="-225" font-family="Helvetica,sans-Serif" font-size="10.00">itkCorrelationImageToImage</text>
<text text-anchor="middle" x="583.5" y="-214" font-family="Helvetica,sans-Serif" font-size="10.00">Metricv4HelperThreader.h</text>
</a>
</g>
</g>
<!-- Node26&#45;&gt;Node28 -->
<g id="edge30" class="edge">
<title>Node26&#45;&gt;Node28</title>
<path fill="none" stroke="midnightblue" d="M901.53,-284.45C836.39,-273.89 747.41,-258.76 669.5,-243 660.49,-241.18 650.97,-239.11 641.69,-237.01"/>
<polygon fill="midnightblue" stroke="midnightblue" points="901.34,-287.96 911.77,-286.1 902.46,-281.05 901.34,-287.96"/>
</g>
<!-- Node29 -->
<g id="node29" class="node">
<title>Node29</title>
<g id="a_node29"><a xlink:href="itkDemonsImageToImageMetricv4GetValueAndDerivativeThreader_8h.html" target="_top" xlink:title=" ">
<polygon fill="white" stroke="black" points="679,-207 679,-237 864,-237 864,-207 679,-207"/>
<text text-anchor="start" x="687" y="-225" font-family="Helvetica,sans-Serif" font-size="10.00">itkDemonsImageToImageMetricv4</text>
<text text-anchor="middle" x="771.5" y="-214" font-family="Helvetica,sans-Serif" font-size="10.00">GetValueAndDerivativeThreader.h</text>
</a>
</g>
</g>
<!-- Node26&#45;&gt;Node29 -->
<g id="edge32" class="edge">
<title>Node26&#45;&gt;Node29</title>
<path fill="none" stroke="midnightblue" d="M943.86,-281.74C904.23,-268.23 849.81,-249.69 812.8,-237.07"/>
<polygon fill="midnightblue" stroke="midnightblue" points="942.74,-285.06 953.34,-284.97 945,-278.43 942.74,-285.06"/>
</g>
<!-- Node30 -->
<g id="node30" class="node">
<title>Node30</title>
<g id="a_node30"><a xlink:href="itkJointHistogramMutualInformationGetValueAndDerivativeThreader_8h.html" target="_top" xlink:title=" ">
<polygon fill="white" stroke="black" points="1509,-207 1509,-237 1702,-237 1702,-207 1509,-207"/>
<text text-anchor="start" x="1517" y="-225" font-family="Helvetica,sans-Serif" font-size="10.00">itkJointHistogramMutualInformation</text>
<text text-anchor="middle" x="1605.5" y="-214" font-family="Helvetica,sans-Serif" font-size="10.00">GetValueAndDerivativeThreader.h</text>
</a>
</g>
</g>
<!-- Node26&#45;&gt;Node30 -->
<g id="edge35" class="edge">
<title>Node26&#45;&gt;Node30</title>
<path fill="none" stroke="midnightblue" d="M1087.64,-290.81C1189.18,-281.39 1356.33,-264.41 1499.5,-243 1511.08,-241.27 1523.32,-239.19 1535.21,-237.04"/>
<polygon fill="midnightblue" stroke="midnightblue" points="1087.05,-287.35 1077.41,-291.76 1087.69,-294.32 1087.05,-287.35"/>
</g>
<!-- Node31 -->
<g id="node31" class="node">
<title>Node31</title>
<g id="a_node31"><a xlink:href="itkMattesMutualInformationImageToImageMetricv4GetValueAndDerivativeThreader_8h.html" target="_top" xlink:title=" ">
<polygon fill="white" stroke="black" points="1296.5,-201.5 1296.5,-242.5 1490.5,-242.5 1490.5,-201.5 1296.5,-201.5"/>
<text text-anchor="start" x="1304.5" y="-230.5" font-family="Helvetica,sans-Serif" font-size="10.00">itkMattesMutualInformation</text>
<text text-anchor="start" x="1304.5" y="-219.5" font-family="Helvetica,sans-Serif" font-size="10.00">ImageToImageMetricv4GetValueAnd</text>
<text text-anchor="middle" x="1393.5" y="-208.5" font-family="Helvetica,sans-Serif" font-size="10.00">DerivativeThreader.h</text>
</a>
</g>
</g>
<!-- Node26&#45;&gt;Node31 -->
<g id="edge37" class="edge">
<title>Node26&#45;&gt;Node31</title>
<path fill="none" stroke="midnightblue" d="M1078.14,-283.07C1141.76,-270.95 1229.43,-254.25 1296.19,-241.53"/>
<polygon fill="midnightblue" stroke="midnightblue" points="1077.32,-279.66 1068.15,-284.97 1078.63,-286.54 1077.32,-279.66"/>
</g>
<!-- Node32 -->
<g id="node32" class="node">
<title>Node32</title>
<g id="a_node32"><a xlink:href="itkMeanSquaresImageToImageMetricv4GetValueAndDerivativeThreader_8h.html" target="_top" xlink:title=" ">
<polygon fill="white" stroke="black" points="882,-207 882,-237 1107,-237 1107,-207 882,-207"/>
<text text-anchor="start" x="890" y="-225" font-family="Helvetica,sans-Serif" font-size="10.00">itkMeanSquaresImageToImage</text>
<text text-anchor="middle" x="994.5" y="-214" font-family="Helvetica,sans-Serif" font-size="10.00">Metricv4GetValueAndDerivativeThreader.h</text>
</a>
</g>
</g>
<!-- Node26&#45;&gt;Node32 -->
<g id="edge39" class="edge">
<title>Node26&#45;&gt;Node32</title>
<path fill="none" stroke="midnightblue" d="M994.5,-274.59C994.5,-262.26 994.5,-247.72 994.5,-237.23"/>
<polygon fill="midnightblue" stroke="midnightblue" points="991,-274.7 994.5,-284.7 998,-274.71 991,-274.7"/>
</g>
<!-- Node27&#45;&gt;Node16 -->
<g id="edge29" class="edge">
<title>Node27&#45;&gt;Node16</title>
<path fill="none" stroke="midnightblue" d="M426.78,-203.62C462.25,-191.6 508.84,-175.81 541.98,-164.57"/>
<polygon fill="midnightblue" stroke="midnightblue" points="425.44,-200.38 417.09,-206.9 427.69,-207.01 425.44,-200.38"/>
</g>
<!-- Node28&#45;&gt;Node16 -->
<g id="edge31" class="edge">
<title>Node28&#45;&gt;Node16</title>
<path fill="none" stroke="midnightblue" d="M583.5,-196.73C583.5,-186.07 583.5,-173.91 583.5,-164.75"/>
<polygon fill="midnightblue" stroke="midnightblue" points="580,-196.73 583.5,-206.73 587,-196.73 580,-196.73"/>
</g>
<!-- Node29&#45;&gt;Node17 -->
<g id="edge33" class="edge">
<title>Node29&#45;&gt;Node17</title>
<path fill="none" stroke="midnightblue" d="M779.34,-196.98C783.57,-184.01 788.53,-168.79 791.6,-159.39"/>
<polygon fill="midnightblue" stroke="midnightblue" points="775.93,-196.14 776.15,-206.73 782.58,-198.31 775.93,-196.14"/>
</g>
<!-- Node30&#45;&gt;Node23 -->
<g id="edge36" class="edge">
<title>Node30&#45;&gt;Node23</title>
<path fill="none" stroke="midnightblue" d="M1602.06,-196.73C1600.55,-186.07 1598.82,-173.91 1597.52,-164.75"/>
<polygon fill="midnightblue" stroke="midnightblue" points="1598.61,-197.32 1603.48,-206.73 1605.54,-196.34 1598.61,-197.32"/>
</g>
<!-- Node31&#45;&gt;Node24 -->
<g id="edge38" class="edge">
<title>Node31&#45;&gt;Node24</title>
<path fill="none" stroke="midnightblue" d="M1393.5,-191.08C1393.5,-182.01 1393.5,-172.45 1393.5,-164.89"/>
<polygon fill="midnightblue" stroke="midnightblue" points="1390,-191.36 1393.5,-201.36 1397,-191.36 1390,-191.36"/>
</g>
<!-- Node32&#45;&gt;Node25 -->
<g id="edge40" class="edge">
<title>Node32&#45;&gt;Node25</title>
<path fill="none" stroke="midnightblue" d="M997.25,-196.73C998.46,-186.07 999.84,-173.91 1000.88,-164.75"/>
<polygon fill="midnightblue" stroke="midnightblue" points="993.77,-196.4 996.12,-206.73 1000.72,-197.19 993.77,-196.4"/>
</g>
<!-- Node33&#45;&gt;Node23 -->
<g id="edge42" class="edge">
<title>Node33&#45;&gt;Node23</title>
<path fill="none" stroke="midnightblue" d="M1835.86,-277.18C1815.07,-255.24 1780.36,-221.77 1744.5,-201 1716.49,-184.78 1682.49,-172.75 1654.04,-164.52"/>
<polygon fill="midnightblue" stroke="midnightblue" points="1833.49,-279.77 1842.87,-284.7 1838.61,-275 1833.49,-279.77"/>
</g>
</g>
</svg>
