<?xml version="1.0" encoding="UTF-8" standalone="no"?>
<!DOCTYPE svg PUBLIC "-//W3C//DTD SVG 1.1//EN"
 "http://www.w3.org/Graphics/SVG/1.1/DTD/svg11.dtd">
<!-- Generated by graphviz version 2.43.0 (0)
 -->
<!-- Title: itkVersion.h Pages: 1 -->
<svg width="4345pt" height="620pt"
 viewBox="0.00 0.00 4344.50 620.00" xmlns="http://www.w3.org/2000/svg" xmlns:xlink="http://www.w3.org/1999/xlink">
<g id="graph0" class="graph" transform="scale(1 1) rotate(0) translate(4 616)">
<title>itkVersion.h</title>
<polygon fill="white" stroke="transparent" points="-4,4 -4,-616 4340.5,-616 4340.5,4 -4,4"/>
<!-- Node1 -->
<g id="node1" class="node">
<title>Node1</title>
<g id="a_node1"><a xlink:title=" ">
<polygon fill="#bfbfbf" stroke="black" points="4071,-592.5 4071,-611.5 4145,-611.5 4145,-592.5 4071,-592.5"/>
<text text-anchor="middle" x="4108" y="-599.5" font-family="Helvetica,sans-Serif" font-size="10.00">itkVersion.h</text>
</a>
</g>
</g>
<!-- Node2 -->
<g id="node2" class="node">
<title>Node2</title>
<g id="a_node2"><a xlink:href="itkFFTImageFilterFactory_8h.html" target="_top" xlink:title=" ">
<polygon fill="white" stroke="black" points="1590.5,-536.5 1590.5,-555.5 1735.5,-555.5 1735.5,-536.5 1590.5,-536.5"/>
<text text-anchor="middle" x="1663" y="-543.5" font-family="Helvetica,sans-Serif" font-size="10.00">itkFFTImageFilterFactory.h</text>
</a>
</g>
</g>
<!-- Node1&#45;&gt;Node2 -->
<g id="edge1" class="edge">
<title>Node1&#45;&gt;Node2</title>
<path fill="none" stroke="midnightblue" d="M4060.38,-599.95C3757.81,-593.27 2103.99,-556.74 1735.71,-548.61"/>
<polygon fill="midnightblue" stroke="midnightblue" points="4060.5,-603.45 4070.57,-600.17 4060.65,-596.45 4060.5,-603.45"/>
</g>
<!-- Node20 -->
<g id="node20" class="node">
<title>Node20</title>
<g id="a_node20"><a xlink:href="itkGPUImage_8h.html" target="_top" xlink:title=" ">
<polygon fill="white" stroke="black" points="3099,-536.5 3099,-555.5 3189,-555.5 3189,-536.5 3099,-536.5"/>
<text text-anchor="middle" x="3144" y="-543.5" font-family="Helvetica,sans-Serif" font-size="10.00">itkGPUImage.h</text>
</a>
</g>
</g>
<!-- Node1&#45;&gt;Node20 -->
<g id="edge21" class="edge">
<title>Node1&#45;&gt;Node20</title>
<path fill="none" stroke="midnightblue" d="M4060.51,-598.34C3895.8,-589.11 3350.4,-558.56 3189.23,-549.53"/>
<polygon fill="midnightblue" stroke="midnightblue" points="4060.62,-601.85 4070.8,-598.92 4061.01,-594.86 4060.62,-601.85"/>
</g>
<!-- Node34 -->
<g id="node34" class="node">
<title>Node34</title>
<g id="a_node34"><a xlink:href="itkGPUDemonsRegistrationFilter_8h.html" target="_top" xlink:title=" ">
<polygon fill="white" stroke="black" points="3934,-67.5 3934,-97.5 4084,-97.5 4084,-67.5 3934,-67.5"/>
<text text-anchor="start" x="3942" y="-85.5" font-family="Helvetica,sans-Serif" font-size="10.00">itkGPUDemonsRegistration</text>
<text text-anchor="middle" x="4009" y="-74.5" font-family="Helvetica,sans-Serif" font-size="10.00">Filter.h</text>
</a>
</g>
</g>
<!-- Node1&#45;&gt;Node34 -->
<g id="edge60" class="edge">
<title>Node1&#45;&gt;Node34</title>
<path fill="none" stroke="midnightblue" d="M4131.97,-587.19C4161.26,-568.3 4207,-531.45 4207,-485.5 4207,-485.5 4207,-485.5 4207,-215.5 4207,-149.6 4130.14,-114.58 4072.19,-97.54"/>
<polygon fill="midnightblue" stroke="midnightblue" points="4130.12,-584.21 4123.47,-592.46 4133.81,-590.16 4130.12,-584.21"/>
</g>
<!-- Node36 -->
<g id="node36" class="node">
<title>Node36</title>
<g id="a_node36"><a xlink:href="itkGPUMeanImageFilter_8h.html" target="_top" xlink:title=" ">
<polygon fill="white" stroke="black" points="4037.5,-274 4037.5,-293 4178.5,-293 4178.5,-274 4037.5,-274"/>
<text text-anchor="middle" x="4108" y="-281" font-family="Helvetica,sans-Serif" font-size="10.00">itkGPUMeanImageFilter.h</text>
</a>
</g>
</g>
<!-- Node1&#45;&gt;Node36 -->
<g id="edge61" class="edge">
<title>Node1&#45;&gt;Node36</title>
<path fill="none" stroke="midnightblue" d="M4108,-582.29C4108,-559.45 4108,-519.64 4108,-485.5 4108,-485.5 4108,-485.5 4108,-416.5 4108,-369.98 4108,-314.24 4108,-293.15"/>
<polygon fill="midnightblue" stroke="midnightblue" points="4104.5,-582.31 4108,-592.31 4111.5,-582.31 4104.5,-582.31"/>
</g>
<!-- Node46 -->
<g id="node46" class="node">
<title>Node46</title>
<g id="a_node46"><a xlink:href="itkRawImageIO_8h.html" target="_top" xlink:title=" ">
<polygon fill="white" stroke="black" points="4235.5,-536.5 4235.5,-555.5 4336.5,-555.5 4336.5,-536.5 4235.5,-536.5"/>
<text text-anchor="middle" x="4286" y="-543.5" font-family="Helvetica,sans-Serif" font-size="10.00">itkRawImageIO.h</text>
</a>
</g>
</g>
<!-- Node1&#45;&gt;Node46 -->
<g id="edge62" class="edge">
<title>Node1&#45;&gt;Node46</title>
<path fill="none" stroke="midnightblue" d="M4146.12,-589.44C4179.68,-579.26 4227.77,-564.66 4257.93,-555.52"/>
<polygon fill="midnightblue" stroke="midnightblue" points="4144.76,-586.19 4136.2,-592.44 4146.79,-592.89 4144.76,-586.19"/>
</g>
<!-- Node3 -->
<g id="node3" class="node">
<title>Node3</title>
<g id="a_node3"><a xlink:href="itkComplexToComplex1DFFTImageFilter_8h.html" target="_top" xlink:title=" ">
<polygon fill="white" stroke="black" points="2240,-469.5 2240,-499.5 2428,-499.5 2428,-469.5 2240,-469.5"/>
<text text-anchor="start" x="2248" y="-487.5" font-family="Helvetica,sans-Serif" font-size="10.00">itkComplexToComplex1DFFTImage</text>
<text text-anchor="middle" x="2334" y="-476.5" font-family="Helvetica,sans-Serif" font-size="10.00">Filter.h</text>
</a>
</g>
</g>
<!-- Node2&#45;&gt;Node3 -->
<g id="edge2" class="edge">
<title>Node2&#45;&gt;Node3</title>
<path fill="none" stroke="midnightblue" d="M1745.57,-539.79C1855.41,-532.55 2055.58,-518.24 2226,-500 2230.51,-499.52 2235.13,-499 2239.79,-498.45"/>
<polygon fill="midnightblue" stroke="midnightblue" points="1745.3,-536.3 1735.55,-540.45 1745.76,-543.29 1745.3,-536.3"/>
</g>
<!-- Node4 -->
<g id="node4" class="node">
<title>Node4</title>
<g id="a_node4"><a xlink:href="itkFFTWComplexToComplex1DFFTImageFilter_8h.html" target="_top" xlink:title=" ">
<polygon fill="white" stroke="black" points="2143,-402.5 2143,-432.5 2303,-432.5 2303,-402.5 2143,-402.5"/>
<text text-anchor="start" x="2151" y="-420.5" font-family="Helvetica,sans-Serif" font-size="10.00">itkFFTWComplexToComplex1</text>
<text text-anchor="middle" x="2223" y="-409.5" font-family="Helvetica,sans-Serif" font-size="10.00">DFFTImageFilter.h</text>
</a>
</g>
</g>
<!-- Node2&#45;&gt;Node4 -->
<g id="edge5" class="edge">
<title>Node2&#45;&gt;Node4</title>
<path fill="none" stroke="midnightblue" d="M1746,-542.8C1886.25,-538.36 2158.32,-526.44 2193,-500 2214.1,-483.91 2220.37,-451.42 2222.22,-432.69"/>
<polygon fill="midnightblue" stroke="midnightblue" points="1745.62,-539.31 1735.73,-543.11 1745.83,-546.3 1745.62,-539.31"/>
</g>
<!-- Node5 -->
<g id="node5" class="node">
<title>Node5</title>
<g id="a_node5"><a xlink:href="itkVnlComplexToComplex1DFFTImageFilter_8h.html" target="_top" xlink:title=" ">
<polygon fill="white" stroke="black" points="2343,-402.5 2343,-432.5 2547,-432.5 2547,-402.5 2343,-402.5"/>
<text text-anchor="start" x="2351" y="-420.5" font-family="Helvetica,sans-Serif" font-size="10.00">itkVnlComplexToComplex1DFFTImage</text>
<text text-anchor="middle" x="2445" y="-409.5" font-family="Helvetica,sans-Serif" font-size="10.00">Filter.h</text>
</a>
</g>
</g>
<!-- Node2&#45;&gt;Node5 -->
<g id="edge13" class="edge">
<title>Node2&#45;&gt;Node5</title>
<path fill="none" stroke="midnightblue" d="M1746,-543.05C1940.72,-538.08 2412.39,-523.65 2437,-500 2454.94,-482.76 2452.09,-451.01 2448.49,-432.64"/>
<polygon fill="midnightblue" stroke="midnightblue" points="1745.72,-539.55 1735.81,-543.3 1745.9,-546.55 1745.72,-539.55"/>
</g>
<!-- Node6 -->
<g id="node6" class="node">
<title>Node6</title>
<g id="a_node6"><a xlink:href="itkFFTWComplexToComplexFFTImageFilter_8h.html" target="_top" xlink:title=" ">
<polygon fill="white" stroke="black" points="2484,-469.5 2484,-499.5 2686,-499.5 2686,-469.5 2484,-469.5"/>
<text text-anchor="start" x="2492" y="-487.5" font-family="Helvetica,sans-Serif" font-size="10.00">itkFFTWComplexToComplexFFTImage</text>
<text text-anchor="middle" x="2585" y="-476.5" font-family="Helvetica,sans-Serif" font-size="10.00">Filter.h</text>
</a>
</g>
</g>
<!-- Node2&#45;&gt;Node6 -->
<g id="edge6" class="edge">
<title>Node2&#45;&gt;Node6</title>
<path fill="none" stroke="midnightblue" d="M1745.99,-542.28C1892.41,-537.06 2206.1,-523.97 2470,-500 2474.51,-499.59 2479.11,-499.14 2483.76,-498.66"/>
<polygon fill="midnightblue" stroke="midnightblue" points="1745.61,-538.79 1735.74,-542.64 1745.85,-545.79 1745.61,-538.79"/>
</g>
<!-- Node7 -->
<g id="node7" class="node">
<title>Node7</title>
<g id="a_node7"><a xlink:href="itkFFTWForward1DFFTImageFilter_8h.html" target="_top" xlink:title=" ">
<polygon fill="white" stroke="black" points="2704.5,-469.5 2704.5,-499.5 2861.5,-499.5 2861.5,-469.5 2704.5,-469.5"/>
<text text-anchor="start" x="2712.5" y="-487.5" font-family="Helvetica,sans-Serif" font-size="10.00">itkFFTWForward1DFFTImage</text>
<text text-anchor="middle" x="2783" y="-476.5" font-family="Helvetica,sans-Serif" font-size="10.00">Filter.h</text>
</a>
</g>
</g>
<!-- Node2&#45;&gt;Node7 -->
<g id="edge7" class="edge">
<title>Node2&#45;&gt;Node7</title>
<path fill="none" stroke="midnightblue" d="M1745.99,-544.75C1921.58,-543.47 2343.46,-536.49 2695,-500 2698.08,-499.68 2701.22,-499.32 2704.38,-498.93"/>
<polygon fill="midnightblue" stroke="midnightblue" points="1745.76,-541.25 1735.79,-544.82 1745.81,-548.25 1745.76,-541.25"/>
</g>
<!-- Node8 -->
<g id="node8" class="node">
<title>Node8</title>
<g id="a_node8"><a xlink:href="itkFFTWForwardFFTImageFilter_8h.html" target="_top" xlink:title=" ">
<polygon fill="white" stroke="black" points="0,-475 0,-494 176,-494 176,-475 0,-475"/>
<text text-anchor="middle" x="88" y="-482" font-family="Helvetica,sans-Serif" font-size="10.00">itkFFTWForwardFFTImageFilter.h</text>
</a>
</g>
</g>
<!-- Node2&#45;&gt;Node8 -->
<g id="edge8" class="edge">
<title>Node2&#45;&gt;Node8</title>
<path fill="none" stroke="midnightblue" d="M1580.19,-543.77C1310.51,-539.55 459.06,-524.57 185,-500 169.4,-498.6 152.48,-496.34 137.21,-494.01"/>
<polygon fill="midnightblue" stroke="midnightblue" points="1580.25,-547.27 1590.31,-543.92 1580.36,-540.27 1580.25,-547.27"/>
</g>
<!-- Node9 -->
<g id="node9" class="node">
<title>Node9</title>
<g id="a_node9"><a xlink:href="itkFFTWHalfHermitianToRealInverseFFTImageFilter_8h.html" target="_top" xlink:title=" ">
<polygon fill="white" stroke="black" points="194,-469.5 194,-499.5 352,-499.5 352,-469.5 194,-469.5"/>
<text text-anchor="start" x="202" y="-487.5" font-family="Helvetica,sans-Serif" font-size="10.00">itkFFTWHalfHermitianToReal</text>
<text text-anchor="middle" x="273" y="-476.5" font-family="Helvetica,sans-Serif" font-size="10.00">InverseFFTImageFilter.h</text>
</a>
</g>
</g>
<!-- Node2&#45;&gt;Node9 -->
<g id="edge9" class="edge">
<title>Node2&#45;&gt;Node9</title>
<path fill="none" stroke="midnightblue" d="M1580.46,-543.54C1332.91,-538.94 599.09,-523.63 361,-500 358.07,-499.71 355.09,-499.38 352.09,-499.03"/>
<polygon fill="midnightblue" stroke="midnightblue" points="1580.41,-547.04 1590.48,-543.72 1580.54,-540.04 1580.41,-547.04"/>
</g>
<!-- Node10 -->
<g id="node10" class="node">
<title>Node10</title>
<g id="a_node10"><a xlink:href="itkFFTWInverse1DFFTImageFilter_8h.html" target="_top" xlink:title=" ">
<polygon fill="white" stroke="black" points="370,-469.5 370,-499.5 524,-499.5 524,-469.5 370,-469.5"/>
<text text-anchor="start" x="378" y="-487.5" font-family="Helvetica,sans-Serif" font-size="10.00">itkFFTWInverse1DFFTImage</text>
<text text-anchor="middle" x="447" y="-476.5" font-family="Helvetica,sans-Serif" font-size="10.00">Filter.h</text>
</a>
</g>
</g>
<!-- Node2&#45;&gt;Node10 -->
<g id="edge10" class="edge">
<title>Node2&#45;&gt;Node10</title>
<path fill="none" stroke="midnightblue" d="M1580.36,-545.3C1393.32,-545.2 923.47,-540.53 533,-500 530.14,-499.7 527.23,-499.37 524.29,-499.01"/>
<polygon fill="midnightblue" stroke="midnightblue" points="1580.39,-548.8 1590.39,-545.3 1580.39,-541.8 1580.39,-548.8"/>
</g>
<!-- Node11 -->
<g id="node11" class="node">
<title>Node11</title>
<g id="a_node11"><a xlink:href="itkFFTWInverseFFTImageFilter_8h.html" target="_top" xlink:title=" ">
<polygon fill="white" stroke="black" points="542.5,-475 542.5,-494 715.5,-494 715.5,-475 542.5,-475"/>
<text text-anchor="middle" x="629" y="-482" font-family="Helvetica,sans-Serif" font-size="10.00">itkFFTWInverseFFTImageFilter.h</text>
</a>
</g>
</g>
<!-- Node2&#45;&gt;Node11 -->
<g id="edge11" class="edge">
<title>Node2&#45;&gt;Node11</title>
<path fill="none" stroke="midnightblue" d="M1579.95,-543.86C1416.09,-540.97 1039.73,-531.24 725,-500 710.07,-498.52 693.92,-496.31 679.2,-494.07"/>
<polygon fill="midnightblue" stroke="midnightblue" points="1580.38,-547.36 1590.44,-544.04 1580.5,-540.37 1580.38,-547.36"/>
</g>
<!-- Node12 -->
<g id="node12" class="node">
<title>Node12</title>
<g id="a_node12"><a xlink:href="itkFFTWRealToHalfHermitianForwardFFTImageFilter_8h.html" target="_top" xlink:title=" ">
<polygon fill="white" stroke="black" points="734,-469.5 734,-499.5 892,-499.5 892,-469.5 734,-469.5"/>
<text text-anchor="start" x="742" y="-487.5" font-family="Helvetica,sans-Serif" font-size="10.00">itkFFTWRealToHalfHermitian</text>
<text text-anchor="middle" x="813" y="-476.5" font-family="Helvetica,sans-Serif" font-size="10.00">ForwardFFTImageFilter.h</text>
</a>
</g>
</g>
<!-- Node2&#45;&gt;Node12 -->
<g id="edge12" class="edge">
<title>Node2&#45;&gt;Node12</title>
<path fill="none" stroke="midnightblue" d="M1580.05,-542.93C1439.81,-538.81 1147.06,-527.46 901,-500 898.08,-499.67 895.1,-499.32 892.1,-498.93"/>
<polygon fill="midnightblue" stroke="midnightblue" points="1580.19,-546.44 1590.29,-543.23 1580.4,-539.44 1580.19,-546.44"/>
</g>
<!-- Node13 -->
<g id="node13" class="node">
<title>Node13</title>
<g id="a_node13"><a xlink:href="itkVnlComplexToComplexFFTImageFilter_8h.html" target="_top" xlink:title=" ">
<polygon fill="white" stroke="black" points="910.5,-469.5 910.5,-499.5 1101.5,-499.5 1101.5,-469.5 910.5,-469.5"/>
<text text-anchor="start" x="918.5" y="-487.5" font-family="Helvetica,sans-Serif" font-size="10.00">itkVnlComplexToComplexFFTImage</text>
<text text-anchor="middle" x="1006" y="-476.5" font-family="Helvetica,sans-Serif" font-size="10.00">Filter.h</text>
</a>
</g>
</g>
<!-- Node2&#45;&gt;Node13 -->
<g id="edge14" class="edge">
<title>Node2&#45;&gt;Node13</title>
<path fill="none" stroke="midnightblue" d="M1580.21,-539.75C1471.95,-532.54 1276.49,-518.36 1110,-500 1107.28,-499.7 1104.53,-499.39 1101.74,-499.06"/>
<polygon fill="midnightblue" stroke="midnightblue" points="1580.2,-543.26 1590.41,-540.42 1580.66,-536.27 1580.2,-543.26"/>
</g>
<!-- Node14 -->
<g id="node14" class="node">
<title>Node14</title>
<g id="a_node14"><a xlink:href="itkVnlForward1DFFTImageFilter_8h.html" target="_top" xlink:title=" ">
<polygon fill="white" stroke="black" points="1119.5,-475 1119.5,-494 1298.5,-494 1298.5,-475 1119.5,-475"/>
<text text-anchor="middle" x="1209" y="-482" font-family="Helvetica,sans-Serif" font-size="10.00">itkVnlForward1DFFTImageFilter.h</text>
</a>
</g>
</g>
<!-- Node2&#45;&gt;Node14 -->
<g id="edge15" class="edge">
<title>Node2&#45;&gt;Node14</title>
<path fill="none" stroke="midnightblue" d="M1582.08,-535.27C1509.88,-526.46 1401.32,-512.94 1307,-500 1293.45,-498.14 1278.87,-496.04 1265.2,-494.02"/>
<polygon fill="midnightblue" stroke="midnightblue" points="1581.67,-538.74 1592.02,-536.48 1582.52,-531.79 1581.67,-538.74"/>
</g>
<!-- Node15 -->
<g id="node15" class="node">
<title>Node15</title>
<g id="a_node15"><a xlink:href="itkVnlForwardFFTImageFilter_8h.html" target="_top" xlink:title=" ">
<polygon fill="white" stroke="black" points="1316.5,-475 1316.5,-494 1481.5,-494 1481.5,-475 1316.5,-475"/>
<text text-anchor="middle" x="1399" y="-482" font-family="Helvetica,sans-Serif" font-size="10.00">itkVnlForwardFFTImageFilter.h</text>
</a>
</g>
</g>
<!-- Node2&#45;&gt;Node15 -->
<g id="edge16" class="edge">
<title>Node2&#45;&gt;Node15</title>
<path fill="none" stroke="midnightblue" d="M1615.34,-534.26C1564.13,-522.72 1483.77,-504.61 1436.75,-494.01"/>
<polygon fill="midnightblue" stroke="midnightblue" points="1614.65,-537.69 1625.18,-536.48 1616.19,-530.86 1614.65,-537.69"/>
</g>
<!-- Node16 -->
<g id="node16" class="node">
<title>Node16</title>
<g id="a_node16"><a xlink:href="itkVnlHalfHermitianToRealInverseFFTImageFilter_8h.html" target="_top" xlink:title=" ">
<polygon fill="white" stroke="black" points="1500,-469.5 1500,-499.5 1646,-499.5 1646,-469.5 1500,-469.5"/>
<text text-anchor="start" x="1508" y="-487.5" font-family="Helvetica,sans-Serif" font-size="10.00">itkVnlHalfHermitianToReal</text>
<text text-anchor="middle" x="1573" y="-476.5" font-family="Helvetica,sans-Serif" font-size="10.00">InverseFFTImageFilter.h</text>
</a>
</g>
</g>
<!-- Node2&#45;&gt;Node16 -->
<g id="edge17" class="edge">
<title>Node2&#45;&gt;Node16</title>
<path fill="none" stroke="midnightblue" d="M1641.43,-530.74C1627.12,-521.28 1608.44,-508.93 1594.21,-499.52"/>
<polygon fill="midnightblue" stroke="midnightblue" points="1639.83,-533.88 1650.11,-536.48 1643.69,-528.04 1639.83,-533.88"/>
</g>
<!-- Node17 -->
<g id="node17" class="node">
<title>Node17</title>
<g id="a_node17"><a xlink:href="itkVnlInverse1DFFTImageFilter_8h.html" target="_top" xlink:title=" ">
<polygon fill="white" stroke="black" points="1664,-475 1664,-494 1840,-494 1840,-475 1664,-475"/>
<text text-anchor="middle" x="1752" y="-482" font-family="Helvetica,sans-Serif" font-size="10.00">itkVnlInverse1DFFTImageFilter.h</text>
</a>
</g>
</g>
<!-- Node2&#45;&gt;Node17 -->
<g id="edge18" class="edge">
<title>Node2&#45;&gt;Node17</title>
<path fill="none" stroke="midnightblue" d="M1684.52,-530.61C1701.64,-519.17 1725.01,-503.55 1739.27,-494.01"/>
<polygon fill="midnightblue" stroke="midnightblue" points="1682.12,-528.01 1675.75,-536.48 1686.01,-533.83 1682.12,-528.01"/>
</g>
<!-- Node18 -->
<g id="node18" class="node">
<title>Node18</title>
<g id="a_node18"><a xlink:href="itkVnlInverseFFTImageFilter_8h.html" target="_top" xlink:title=" ">
<polygon fill="white" stroke="black" points="1858,-475 1858,-494 2020,-494 2020,-475 1858,-475"/>
<text text-anchor="middle" x="1939" y="-482" font-family="Helvetica,sans-Serif" font-size="10.00">itkVnlInverseFFTImageFilter.h</text>
</a>
</g>
</g>
<!-- Node2&#45;&gt;Node18 -->
<g id="edge19" class="edge">
<title>Node2&#45;&gt;Node18</title>
<path fill="none" stroke="midnightblue" d="M1712.49,-534.33C1766.02,-522.79 1850.27,-504.63 1899.53,-494.01"/>
<polygon fill="midnightblue" stroke="midnightblue" points="1711.58,-530.95 1702.54,-536.48 1713.06,-537.79 1711.58,-530.95"/>
</g>
<!-- Node19 -->
<g id="node19" class="node">
<title>Node19</title>
<g id="a_node19"><a xlink:href="itkVnlRealToHalfHermitianForwardFFTImageFilter_8h.html" target="_top" xlink:title=" ">
<polygon fill="white" stroke="black" points="2038,-469.5 2038,-499.5 2184,-499.5 2184,-469.5 2038,-469.5"/>
<text text-anchor="start" x="2046" y="-487.5" font-family="Helvetica,sans-Serif" font-size="10.00">itkVnlRealToHalfHermitian</text>
<text text-anchor="middle" x="2111" y="-476.5" font-family="Helvetica,sans-Serif" font-size="10.00">ForwardFFTImageFilter.h</text>
</a>
</g>
</g>
<!-- Node2&#45;&gt;Node19 -->
<g id="edge20" class="edge">
<title>Node2&#45;&gt;Node19</title>
<path fill="none" stroke="midnightblue" d="M1745.95,-536.06C1820.24,-527.76 1932.1,-514.51 2029,-500 2031.86,-499.57 2034.77,-499.12 2037.71,-498.66"/>
<polygon fill="midnightblue" stroke="midnightblue" points="1745.27,-532.62 1735.72,-537.2 1746.05,-539.57 1745.27,-532.62"/>
</g>
<!-- Node3&#45;&gt;Node4 -->
<g id="edge3" class="edge">
<title>Node3&#45;&gt;Node4</title>
<path fill="none" stroke="midnightblue" d="M2301.2,-464.3C2283.84,-454.12 2262.88,-441.85 2247.04,-432.58"/>
<polygon fill="midnightblue" stroke="midnightblue" points="2299.52,-467.36 2309.91,-469.4 2303.05,-461.32 2299.52,-467.36"/>
</g>
<!-- Node3&#45;&gt;Node5 -->
<g id="edge4" class="edge">
<title>Node3&#45;&gt;Node5</title>
<path fill="none" stroke="midnightblue" d="M2366.8,-464.3C2384.16,-454.12 2405.12,-441.85 2420.96,-432.58"/>
<polygon fill="midnightblue" stroke="midnightblue" points="2364.95,-461.32 2358.09,-469.4 2368.48,-467.36 2364.95,-461.32"/>
</g>
<!-- Node21 -->
<g id="node21" class="node">
<title>Node21</title>
<g id="a_node21"><a xlink:href="itkGPUKernelManager_8h.html" target="_top" xlink:title=" ">
<polygon fill="white" stroke="black" points="3305,-475 3305,-494 3437,-494 3437,-475 3305,-475"/>
<text text-anchor="middle" x="3371" y="-482" font-family="Helvetica,sans-Serif" font-size="10.00">itkGPUKernelManager.h</text>
</a>
</g>
</g>
<!-- Node20&#45;&gt;Node21 -->
<g id="edge22" class="edge">
<title>Node20&#45;&gt;Node21</title>
<path fill="none" stroke="midnightblue" d="M3186.36,-533.9C3230.45,-522.34 3298.53,-504.5 3338.54,-494.01"/>
<polygon fill="midnightblue" stroke="midnightblue" points="3185.31,-530.55 3176.52,-536.48 3187.08,-537.33 3185.31,-530.55"/>
</g>
<!-- Node37 -->
<g id="node37" class="node">
<title>Node37</title>
<g id="a_node37"><a xlink:href="itkGPUNeighborhoodOperatorImageFilter_8h.html" target="_top" xlink:title=" ">
<polygon fill="white" stroke="black" points="2956.5,-335.5 2956.5,-365.5 3117.5,-365.5 3117.5,-335.5 2956.5,-335.5"/>
<text text-anchor="start" x="2964.5" y="-353.5" font-family="Helvetica,sans-Serif" font-size="10.00">itkGPUNeighborhoodOperator</text>
<text text-anchor="middle" x="3037" y="-342.5" font-family="Helvetica,sans-Serif" font-size="10.00">ImageFilter.h</text>
</a>
</g>
</g>
<!-- Node20&#45;&gt;Node37 -->
<g id="edge58" class="edge">
<title>Node20&#45;&gt;Node37</title>
<path fill="none" stroke="midnightblue" d="M3134.37,-527.58C3113.41,-489.68 3064,-400.33 3044.81,-365.63"/>
<polygon fill="midnightblue" stroke="midnightblue" points="3131.36,-529.38 3139.26,-536.44 3137.49,-525.99 3131.36,-529.38"/>
</g>
<!-- Node38 -->
<g id="node38" class="node">
<title>Node38</title>
<g id="a_node38"><a xlink:href="itkGPUDiscreteGaussianImageFilter_8h.html" target="_top" xlink:title=" ">
<polygon fill="white" stroke="black" points="2955.5,-268.5 2955.5,-298.5 3122.5,-298.5 3122.5,-268.5 2955.5,-268.5"/>
<text text-anchor="start" x="2963.5" y="-286.5" font-family="Helvetica,sans-Serif" font-size="10.00">itkGPUDiscreteGaussianImage</text>
<text text-anchor="middle" x="3039" y="-275.5" font-family="Helvetica,sans-Serif" font-size="10.00">Filter.h</text>
</a>
</g>
</g>
<!-- Node20&#45;&gt;Node38 -->
<g id="edge59" class="edge">
<title>Node20&#45;&gt;Node38</title>
<path fill="none" stroke="midnightblue" d="M3119,-531.6C3074.62,-506.19 2983.41,-446.3 2948,-366 2942.44,-353.39 2941.01,-346.87 2948,-335 2957.99,-318.03 2975.97,-306.35 2993.33,-298.54"/>
<polygon fill="midnightblue" stroke="midnightblue" points="3117.29,-534.65 3127.72,-536.49 3120.71,-528.55 3117.29,-534.65"/>
</g>
<!-- Node22 -->
<g id="node22" class="node">
<title>Node22</title>
<g id="a_node22"><a xlink:href="itkGPUFunctorBase_8h.html" target="_top" xlink:title=" ">
<polygon fill="white" stroke="black" points="3174.5,-341 3174.5,-360 3293.5,-360 3293.5,-341 3174.5,-341"/>
<text text-anchor="middle" x="3234" y="-348" font-family="Helvetica,sans-Serif" font-size="10.00">itkGPUFunctorBase.h</text>
</a>
</g>
</g>
<!-- Node21&#45;&gt;Node22 -->
<g id="edge23" class="edge">
<title>Node21&#45;&gt;Node22</title>
<path fill="none" stroke="midnightblue" d="M3341.05,-470.4C3323.33,-461.62 3301.24,-448.78 3285,-433 3262.02,-410.66 3244.82,-375.99 3237.66,-360.05"/>
<polygon fill="midnightblue" stroke="midnightblue" points="3339.86,-473.71 3350.39,-474.86 3342.87,-467.39 3339.86,-473.71"/>
</g>
<!-- Node24 -->
<g id="node24" class="node">
<title>Node24</title>
<g id="a_node24"><a xlink:href="itkGPUCastImageFilter_8h.html" target="_top" xlink:title=" ">
<polygon fill="white" stroke="black" points="3243,-207 3243,-226 3379,-226 3379,-207 3243,-207"/>
<text text-anchor="middle" x="3311" y="-214" font-family="Helvetica,sans-Serif" font-size="10.00">itkGPUCastImageFilter.h</text>
</a>
</g>
</g>
<!-- Node21&#45;&gt;Node24 -->
<g id="edge56" class="edge">
<title>Node21&#45;&gt;Node24</title>
<path fill="none" stroke="midnightblue" d="M3407.36,-470.89C3425.33,-462.81 3445.74,-450.5 3458,-433 3483.18,-397.06 3486.48,-375.67 3470,-335 3462.21,-315.78 3421.55,-280.5 3405,-268 3381.49,-250.25 3350.93,-235.07 3331.14,-226.11"/>
<polygon fill="midnightblue" stroke="midnightblue" points="3405.55,-467.85 3397.69,-474.95 3408.27,-474.3 3405.55,-467.85"/>
</g>
<!-- Node25 -->
<g id="node25" class="node">
<title>Node25</title>
<g id="a_node25"><a xlink:href="itkGPUBinaryThresholdImageFilter_8h.html" target="_top" xlink:title=" ">
<polygon fill="white" stroke="black" points="3063.5,-201.5 3063.5,-231.5 3224.5,-231.5 3224.5,-201.5 3063.5,-201.5"/>
<text text-anchor="start" x="3071.5" y="-219.5" font-family="Helvetica,sans-Serif" font-size="10.00">itkGPUBinaryThresholdImage</text>
<text text-anchor="middle" x="3144" y="-208.5" font-family="Helvetica,sans-Serif" font-size="10.00">Filter.h</text>
</a>
</g>
</g>
<!-- Node21&#45;&gt;Node25 -->
<g id="edge57" class="edge">
<title>Node21&#45;&gt;Node25</title>
<path fill="none" stroke="midnightblue" d="M3296.14,-473.5C3186.44,-457.16 2990.4,-420.92 2948,-366 2921.38,-331.52 2920.3,-302.41 2947,-268 2961.61,-249.17 3015.6,-236.16 3063.36,-228.06"/>
<polygon fill="midnightblue" stroke="midnightblue" points="3295.75,-476.98 3306.16,-474.98 3296.77,-470.06 3295.75,-476.98"/>
</g>
<!-- Node26 -->
<g id="node26" class="node">
<title>Node26</title>
<g id="a_node26"><a xlink:href="itkGPUImageToImageFilter_8h.html" target="_top" xlink:title=" ">
<polygon fill="white" stroke="black" points="3293.5,-408 3293.5,-427 3448.5,-427 3448.5,-408 3293.5,-408"/>
<text text-anchor="middle" x="3371" y="-415" font-family="Helvetica,sans-Serif" font-size="10.00">itkGPUImageToImageFilter.h</text>
</a>
</g>
</g>
<!-- Node21&#45;&gt;Node26 -->
<g id="edge29" class="edge">
<title>Node21&#45;&gt;Node26</title>
<path fill="none" stroke="midnightblue" d="M3371,-464.54C3371,-452.17 3371,-436.62 3371,-427.13"/>
<polygon fill="midnightblue" stroke="midnightblue" points="3367.5,-464.73 3371,-474.73 3374.5,-464.73 3367.5,-464.73"/>
</g>
<!-- Node39 -->
<g id="node39" class="node">
<title>Node39</title>
<g id="a_node39"><a xlink:href="itkGPUReduction_8h.html" target="_top" xlink:title=" ">
<polygon fill="white" stroke="black" points="3819,-408 3819,-427 3927,-427 3927,-408 3819,-408"/>
<text text-anchor="middle" x="3873" y="-415" font-family="Helvetica,sans-Serif" font-size="10.00">itkGPUReduction.h</text>
</a>
</g>
</g>
<!-- Node21&#45;&gt;Node39 -->
<g id="edge44" class="edge">
<title>Node21&#45;&gt;Node39</title>
<path fill="none" stroke="midnightblue" d="M3446.85,-473.68C3549.25,-460.42 3729.21,-437.12 3818.95,-425.5"/>
<polygon fill="midnightblue" stroke="midnightblue" points="3446.35,-470.21 3436.89,-474.97 3447.25,-477.16 3446.35,-470.21"/>
</g>
<!-- Node41 -->
<g id="node41" class="node">
<title>Node41</title>
<g id="a_node41"><a xlink:href="itkGPUFiniteDifferenceFunction_8h.html" target="_top" xlink:title=" ">
<polygon fill="white" stroke="black" points="3565,-341 3565,-360 3743,-360 3743,-341 3565,-341"/>
<text text-anchor="middle" x="3654" y="-348" font-family="Helvetica,sans-Serif" font-size="10.00">itkGPUFiniteDifferenceFunction.h</text>
</a>
</g>
</g>
<!-- Node21&#45;&gt;Node41 -->
<g id="edge47" class="edge">
<title>Node21&#45;&gt;Node41</title>
<path fill="none" stroke="midnightblue" d="M3405.67,-471.47C3432.36,-461.89 3469.98,-447.69 3502,-433 3553.71,-409.28 3612.39,-375.88 3639.21,-360.23"/>
<polygon fill="midnightblue" stroke="midnightblue" points="3404.25,-468.26 3396.01,-474.91 3406.6,-474.85 3404.25,-468.26"/>
</g>
<!-- Node23 -->
<g id="node23" class="node">
<title>Node23</title>
<g id="a_node23"><a xlink:href="itkGPUUnaryFunctorImageFilter_8h.html" target="_top" xlink:title=" ">
<polygon fill="white" stroke="black" points="3216.5,-274 3216.5,-293 3395.5,-293 3395.5,-274 3216.5,-274"/>
<text text-anchor="middle" x="3306" y="-281" font-family="Helvetica,sans-Serif" font-size="10.00">itkGPUUnaryFunctorImageFilter.h</text>
</a>
</g>
</g>
<!-- Node22&#45;&gt;Node23 -->
<g id="edge24" class="edge">
<title>Node22&#45;&gt;Node23</title>
<path fill="none" stroke="midnightblue" d="M3251.33,-333.86C3265.48,-321.08 3284.96,-303.49 3296.44,-293.13"/>
<polygon fill="midnightblue" stroke="midnightblue" points="3248.79,-331.43 3243.71,-340.73 3253.48,-336.63 3248.79,-331.43"/>
</g>
<!-- Node22&#45;&gt;Node24 -->
<g id="edge27" class="edge">
<title>Node22&#45;&gt;Node24</title>
<path fill="none" stroke="midnightblue" d="M3220.54,-332.32C3208.78,-315.06 3195.4,-288.2 3208,-268 3221.8,-245.86 3248.45,-233.16 3271.18,-226.03"/>
<polygon fill="midnightblue" stroke="midnightblue" points="3218.01,-334.8 3226.73,-340.82 3223.67,-330.67 3218.01,-334.8"/>
</g>
<!-- Node22&#45;&gt;Node25 -->
<g id="edge28" class="edge">
<title>Node22&#45;&gt;Node25</title>
<path fill="none" stroke="midnightblue" d="M3221.74,-332.61C3214.71,-322.85 3205.77,-310.3 3198,-299 3181.94,-275.64 3163.86,-248.08 3153.22,-231.73"/>
<polygon fill="midnightblue" stroke="midnightblue" points="3219.1,-334.93 3227.8,-340.98 3224.77,-330.83 3219.1,-334.93"/>
</g>
<!-- Node23&#45;&gt;Node24 -->
<g id="edge25" class="edge">
<title>Node23&#45;&gt;Node24</title>
<path fill="none" stroke="midnightblue" d="M3307.46,-263.54C3308.41,-251.17 3309.61,-235.62 3310.34,-226.13"/>
<polygon fill="midnightblue" stroke="midnightblue" points="3303.95,-263.49 3306.67,-273.73 3310.93,-264.03 3303.95,-263.49"/>
</g>
<!-- Node23&#45;&gt;Node25 -->
<g id="edge26" class="edge">
<title>Node23&#45;&gt;Node25</title>
<path fill="none" stroke="midnightblue" d="M3274.99,-270.06C3247.55,-259.05 3207.53,-242.99 3178.96,-231.53"/>
<polygon fill="midnightblue" stroke="midnightblue" points="3273.9,-273.39 3284.49,-273.87 3276.51,-266.9 3273.9,-273.39"/>
</g>
<!-- Node27 -->
<g id="node27" class="node">
<title>Node27</title>
<g id="a_node27"><a xlink:href="itkGPUInPlaceImageFilter_8h.html" target="_top" xlink:title=" ">
<polygon fill="white" stroke="black" points="3311.5,-341 3311.5,-360 3460.5,-360 3460.5,-341 3311.5,-341"/>
<text text-anchor="middle" x="3386" y="-348" font-family="Helvetica,sans-Serif" font-size="10.00">itkGPUInPlaceImageFilter.h</text>
</a>
</g>
</g>
<!-- Node26&#45;&gt;Node27 -->
<g id="edge30" class="edge">
<title>Node26&#45;&gt;Node27</title>
<path fill="none" stroke="midnightblue" d="M3375.29,-397.91C3378.16,-385.49 3381.8,-369.72 3384.01,-360.13"/>
<polygon fill="midnightblue" stroke="midnightblue" points="3371.86,-397.2 3373.02,-407.73 3378.68,-398.78 3371.86,-397.2"/>
</g>
<!-- Node35 -->
<g id="node35" class="node">
<title>Node35</title>
<g id="a_node35"><a xlink:href="itkGPUBoxImageFilter_8h.html" target="_top" xlink:title=" ">
<polygon fill="white" stroke="black" points="3804.5,-341 3804.5,-360 3937.5,-360 3937.5,-341 3804.5,-341"/>
<text text-anchor="middle" x="3871" y="-348" font-family="Helvetica,sans-Serif" font-size="10.00">itkGPUBoxImageFilter.h</text>
</a>
</g>
</g>
<!-- Node26&#45;&gt;Node35 -->
<g id="edge39" class="edge">
<title>Node26&#45;&gt;Node35</title>
<path fill="none" stroke="midnightblue" d="M3446.72,-406.66C3544.41,-393.96 3712.75,-372.07 3805.3,-360.04"/>
<polygon fill="midnightblue" stroke="midnightblue" points="3446.09,-403.21 3436.62,-407.97 3446.99,-410.15 3446.09,-403.21"/>
</g>
<!-- Node26&#45;&gt;Node37 -->
<g id="edge41" class="edge">
<title>Node26&#45;&gt;Node37</title>
<path fill="none" stroke="midnightblue" d="M3316.84,-405.96C3260.4,-394.98 3171.63,-377.7 3109.24,-365.56"/>
<polygon fill="midnightblue" stroke="midnightblue" points="3316.51,-409.46 3326.99,-407.94 3317.84,-402.59 3316.51,-409.46"/>
</g>
<!-- Node26&#45;&gt;Node38 -->
<g id="edge43" class="edge">
<title>Node26&#45;&gt;Node38</title>
<path fill="none" stroke="midnightblue" d="M3296.67,-406.13C3256.53,-398.6 3206.94,-386.11 3166,-366 3146.13,-356.24 3145.32,-347.43 3127,-335 3107.18,-321.55 3083.58,-308.14 3065.81,-298.52"/>
<polygon fill="midnightblue" stroke="midnightblue" points="3296.2,-409.6 3306.67,-407.94 3297.45,-402.72 3296.2,-409.6"/>
</g>
<!-- Node27&#45;&gt;Node23 -->
<g id="edge31" class="edge">
<title>Node27&#45;&gt;Node23</title>
<path fill="none" stroke="midnightblue" d="M3367.19,-334.21C3351.42,-321.41 3329.49,-303.59 3316.62,-293.13"/>
<polygon fill="midnightblue" stroke="midnightblue" points="3365.24,-337.14 3375.21,-340.73 3369.66,-331.71 3365.24,-337.14"/>
</g>
<!-- Node28 -->
<g id="node28" class="node">
<title>Node28</title>
<g id="a_node28"><a xlink:href="itkGPUFiniteDifferenceImageFilter_8h.html" target="_top" xlink:title=" ">
<polygon fill="white" stroke="black" points="3452,-268.5 3452,-298.5 3610,-298.5 3610,-268.5 3452,-268.5"/>
<text text-anchor="start" x="3460" y="-286.5" font-family="Helvetica,sans-Serif" font-size="10.00">itkGPUFiniteDifferenceImage</text>
<text text-anchor="middle" x="3531" y="-275.5" font-family="Helvetica,sans-Serif" font-size="10.00">Filter.h</text>
</a>
</g>
</g>
<!-- Node27&#45;&gt;Node28 -->
<g id="edge32" class="edge">
<title>Node27&#45;&gt;Node28</title>
<path fill="none" stroke="midnightblue" d="M3414.4,-336.77C3438.95,-325.77 3474.36,-309.89 3499.71,-298.53"/>
<polygon fill="midnightblue" stroke="midnightblue" points="3412.95,-333.58 3405.25,-340.87 3415.81,-339.97 3412.95,-333.58"/>
</g>
<!-- Node29 -->
<g id="node29" class="node">
<title>Node29</title>
<g id="a_node29"><a xlink:href="itkGPUDenseFiniteDifferenceImageFilter_8h.html" target="_top" xlink:title=" ">
<polygon fill="white" stroke="black" points="3442,-201.5 3442,-231.5 3600,-231.5 3600,-201.5 3442,-201.5"/>
<text text-anchor="start" x="3450" y="-219.5" font-family="Helvetica,sans-Serif" font-size="10.00">itkGPUDenseFiniteDifference</text>
<text text-anchor="middle" x="3521" y="-208.5" font-family="Helvetica,sans-Serif" font-size="10.00">ImageFilter.h</text>
</a>
</g>
</g>
<!-- Node28&#45;&gt;Node29 -->
<g id="edge33" class="edge">
<title>Node28&#45;&gt;Node29</title>
<path fill="none" stroke="midnightblue" d="M3527.29,-258.4C3525.9,-249.37 3524.37,-239.41 3523.17,-231.58"/>
<polygon fill="midnightblue" stroke="midnightblue" points="3523.85,-259.04 3528.83,-268.4 3530.77,-257.98 3523.85,-259.04"/>
</g>
<!-- Node30 -->
<g id="node30" class="node">
<title>Node30</title>
<g id="a_node30"><a xlink:href="itkGPUAnisotropicDiffusionImageFilter_8h.html" target="_top" xlink:title=" ">
<polygon fill="white" stroke="black" points="3446.5,-134.5 3446.5,-164.5 3595.5,-164.5 3595.5,-134.5 3446.5,-134.5"/>
<text text-anchor="start" x="3454.5" y="-152.5" font-family="Helvetica,sans-Serif" font-size="10.00">itkGPUAnisotropicDiffusion</text>
<text text-anchor="middle" x="3521" y="-141.5" font-family="Helvetica,sans-Serif" font-size="10.00">ImageFilter.h</text>
</a>
</g>
</g>
<!-- Node29&#45;&gt;Node30 -->
<g id="edge34" class="edge">
<title>Node29&#45;&gt;Node30</title>
<path fill="none" stroke="midnightblue" d="M3521,-191.11C3521,-182.15 3521,-172.32 3521,-164.58"/>
<polygon fill="midnightblue" stroke="midnightblue" points="3517.5,-191.4 3521,-201.4 3524.5,-191.4 3517.5,-191.4"/>
</g>
<!-- Node33 -->
<g id="node33" class="node">
<title>Node33</title>
<g id="a_node33"><a xlink:href="itkGPUPDEDeformableRegistrationFilter_8h.html" target="_top" xlink:title=" ">
<polygon fill="white" stroke="black" points="3794.5,-134.5 3794.5,-164.5 3981.5,-164.5 3981.5,-134.5 3794.5,-134.5"/>
<text text-anchor="start" x="3802.5" y="-152.5" font-family="Helvetica,sans-Serif" font-size="10.00">itkGPUPDEDeformableRegistration</text>
<text text-anchor="middle" x="3888" y="-141.5" font-family="Helvetica,sans-Serif" font-size="10.00">Filter.h</text>
</a>
</g>
</g>
<!-- Node29&#45;&gt;Node33 -->
<g id="edge37" class="edge">
<title>Node29&#45;&gt;Node33</title>
<path fill="none" stroke="midnightblue" d="M3610.12,-199.72C3670.73,-188.98 3750.22,-174.9 3808.64,-164.55"/>
<polygon fill="midnightblue" stroke="midnightblue" points="3609.42,-196.29 3600.18,-201.48 3610.64,-203.18 3609.42,-196.29"/>
</g>
<!-- Node31 -->
<g id="node31" class="node">
<title>Node31</title>
<g id="a_node31"><a xlink:href="itkGPUGradientAnisotropicDiffusionImageFilter_8h.html" target="_top" xlink:title=" ">
<polygon fill="white" stroke="black" points="3534.5,-67.5 3534.5,-97.5 3681.5,-97.5 3681.5,-67.5 3534.5,-67.5"/>
<text text-anchor="start" x="3542.5" y="-85.5" font-family="Helvetica,sans-Serif" font-size="10.00">itkGPUGradientAnisotropic</text>
<text text-anchor="middle" x="3608" y="-74.5" font-family="Helvetica,sans-Serif" font-size="10.00">DiffusionImageFilter.h</text>
</a>
</g>
</g>
<!-- Node30&#45;&gt;Node31 -->
<g id="edge35" class="edge">
<title>Node30&#45;&gt;Node31</title>
<path fill="none" stroke="midnightblue" d="M3548.21,-128.17C3561.52,-118.23 3577.2,-106.51 3589.16,-97.58"/>
<polygon fill="midnightblue" stroke="midnightblue" points="3545.79,-125.61 3539.88,-134.4 3549.98,-131.21 3545.79,-125.61"/>
</g>
<!-- Node32 -->
<g id="node32" class="node">
<title>Node32</title>
<g id="a_node32"><a xlink:href="itkGPUGradientAnisotropicDiffusionImageFilterFactory_8h.html" target="_top" xlink:title=" ">
<polygon fill="white" stroke="black" points="3529,-0.5 3529,-30.5 3687,-30.5 3687,-0.5 3529,-0.5"/>
<text text-anchor="start" x="3537" y="-18.5" font-family="Helvetica,sans-Serif" font-size="10.00">itkGPUGradientAnisotropic</text>
<text text-anchor="middle" x="3608" y="-7.5" font-family="Helvetica,sans-Serif" font-size="10.00">DiffusionImageFilterFactory.h</text>
</a>
</g>
</g>
<!-- Node31&#45;&gt;Node32 -->
<g id="edge36" class="edge">
<title>Node31&#45;&gt;Node32</title>
<path fill="none" stroke="midnightblue" d="M3608,-57.11C3608,-48.15 3608,-38.32 3608,-30.58"/>
<polygon fill="midnightblue" stroke="midnightblue" points="3604.5,-57.4 3608,-67.4 3611.5,-57.4 3604.5,-57.4"/>
</g>
<!-- Node33&#45;&gt;Node34 -->
<g id="edge38" class="edge">
<title>Node33&#45;&gt;Node34</title>
<path fill="none" stroke="midnightblue" d="M3923.23,-129.57C3942.26,-119.35 3965.37,-106.94 3982.8,-97.58"/>
<polygon fill="midnightblue" stroke="midnightblue" points="3921.41,-126.58 3914.26,-134.4 3924.72,-132.75 3921.41,-126.58"/>
</g>
<!-- Node35&#45;&gt;Node36 -->
<g id="edge40" class="edge">
<title>Node35&#45;&gt;Node36</title>
<path fill="none" stroke="midnightblue" d="M3912.3,-338.17C3959.17,-325.32 4034.56,-304.64 4076.78,-293.06"/>
<polygon fill="midnightblue" stroke="midnightblue" points="3911.19,-334.85 3902.47,-340.87 3913.04,-341.6 3911.19,-334.85"/>
</g>
<!-- Node37&#45;&gt;Node38 -->
<g id="edge42" class="edge">
<title>Node37&#45;&gt;Node38</title>
<path fill="none" stroke="midnightblue" d="M3037.75,-325.11C3038.03,-316.15 3038.33,-306.32 3038.57,-298.58"/>
<polygon fill="midnightblue" stroke="midnightblue" points="3034.24,-325.29 3037.43,-335.4 3041.24,-325.51 3034.24,-325.29"/>
</g>
<!-- Node40 -->
<g id="node40" class="node">
<title>Node40</title>
<g id="a_node40"><a xlink:href="itkGPUDemonsRegistrationFunction_8h.html" target="_top" xlink:title=" ">
<polygon fill="white" stroke="black" points="3934,-201.5 3934,-231.5 4084,-231.5 4084,-201.5 3934,-201.5"/>
<text text-anchor="start" x="3942" y="-219.5" font-family="Helvetica,sans-Serif" font-size="10.00">itkGPUDemonsRegistration</text>
<text text-anchor="middle" x="4009" y="-208.5" font-family="Helvetica,sans-Serif" font-size="10.00">Function.h</text>
</a>
</g>
</g>
<!-- Node39&#45;&gt;Node40 -->
<g id="edge45" class="edge">
<title>Node39&#45;&gt;Node40</title>
<path fill="none" stroke="midnightblue" d="M3898.25,-402.67C3913.48,-393.55 3932.65,-380.61 3947,-366 3971.97,-340.59 3977.15,-331.82 3991,-299 4000.52,-276.44 4005.31,-248.15 4007.47,-231.52"/>
<polygon fill="midnightblue" stroke="midnightblue" points="3896.25,-399.79 3889.36,-407.84 3899.76,-405.84 3896.25,-399.79"/>
</g>
<!-- Node40&#45;&gt;Node34 -->
<g id="edge46" class="edge">
<title>Node40&#45;&gt;Node34</title>
<path fill="none" stroke="midnightblue" d="M4009,-191.02C4009,-163.51 4009,-119.79 4009,-97.52"/>
<polygon fill="midnightblue" stroke="midnightblue" points="4005.5,-191.37 4009,-201.37 4012.5,-191.37 4005.5,-191.37"/>
</g>
<!-- Node41&#45;&gt;Node28 -->
<g id="edge48" class="edge">
<title>Node41&#45;&gt;Node28</title>
<path fill="none" stroke="midnightblue" d="M3628.82,-336.19C3608.13,-325.26 3578.89,-309.81 3557.78,-298.65"/>
<polygon fill="midnightblue" stroke="midnightblue" points="3627.19,-339.29 3637.67,-340.87 3630.46,-333.1 3627.19,-339.29"/>
</g>
<!-- Node42 -->
<g id="node42" class="node">
<title>Node42</title>
<g id="a_node42"><a xlink:href="itkGPUAnisotropicDiffusionFunction_8h.html" target="_top" xlink:title=" ">
<polygon fill="white" stroke="black" points="3627.5,-268.5 3627.5,-298.5 3776.5,-298.5 3776.5,-268.5 3627.5,-268.5"/>
<text text-anchor="start" x="3635.5" y="-286.5" font-family="Helvetica,sans-Serif" font-size="10.00">itkGPUAnisotropicDiffusion</text>
<text text-anchor="middle" x="3702" y="-275.5" font-family="Helvetica,sans-Serif" font-size="10.00">Function.h</text>
</a>
</g>
</g>
<!-- Node41&#45;&gt;Node42 -->
<g id="edge49" class="edge">
<title>Node41&#45;&gt;Node42</title>
<path fill="none" stroke="midnightblue" d="M3666.43,-332.67C3674.24,-322.09 3684.2,-308.6 3691.6,-298.59"/>
<polygon fill="midnightblue" stroke="midnightblue" points="3663.6,-330.61 3660.47,-340.73 3669.23,-334.77 3663.6,-330.61"/>
</g>
<!-- Node45 -->
<g id="node45" class="node">
<title>Node45</title>
<g id="a_node45"><a xlink:href="itkGPUPDEDeformableRegistrationFunction_8h.html" target="_top" xlink:title=" ">
<polygon fill="white" stroke="black" points="3794.5,-268.5 3794.5,-298.5 3981.5,-298.5 3981.5,-268.5 3794.5,-268.5"/>
<text text-anchor="start" x="3802.5" y="-286.5" font-family="Helvetica,sans-Serif" font-size="10.00">itkGPUPDEDeformableRegistration</text>
<text text-anchor="middle" x="3888" y="-275.5" font-family="Helvetica,sans-Serif" font-size="10.00">Function.h</text>
</a>
</g>
</g>
<!-- Node41&#45;&gt;Node45 -->
<g id="edge53" class="edge">
<title>Node41&#45;&gt;Node45</title>
<path fill="none" stroke="midnightblue" d="M3694.94,-338.13C3734.61,-327.11 3794.87,-310.37 3837.5,-298.53"/>
<polygon fill="midnightblue" stroke="midnightblue" points="3693.77,-334.82 3685.07,-340.87 3695.65,-341.56 3693.77,-334.82"/>
</g>
<!-- Node43 -->
<g id="node43" class="node">
<title>Node43</title>
<g id="a_node43"><a xlink:href="itkGPUScalarAnisotropicDiffusionFunction_8h.html" target="_top" xlink:title=" ">
<polygon fill="white" stroke="black" points="3618.5,-201.5 3618.5,-231.5 3797.5,-231.5 3797.5,-201.5 3618.5,-201.5"/>
<text text-anchor="start" x="3626.5" y="-219.5" font-family="Helvetica,sans-Serif" font-size="10.00">itkGPUScalarAnisotropicDiffusion</text>
<text text-anchor="middle" x="3708" y="-208.5" font-family="Helvetica,sans-Serif" font-size="10.00">Function.h</text>
</a>
</g>
</g>
<!-- Node42&#45;&gt;Node43 -->
<g id="edge50" class="edge">
<title>Node42&#45;&gt;Node43</title>
<path fill="none" stroke="midnightblue" d="M3704.22,-258.4C3705.06,-249.37 3705.98,-239.41 3706.7,-231.58"/>
<polygon fill="midnightblue" stroke="midnightblue" points="3700.74,-258.12 3703.3,-268.4 3707.71,-258.76 3700.74,-258.12"/>
</g>
<!-- Node44 -->
<g id="node44" class="node">
<title>Node44</title>
<g id="a_node44"><a xlink:href="itkGPUGradientNDAnisotropicDiffusionFunction_8h.html" target="_top" xlink:title=" ">
<polygon fill="white" stroke="black" points="3614,-134.5 3614,-164.5 3776,-164.5 3776,-134.5 3614,-134.5"/>
<text text-anchor="start" x="3622" y="-152.5" font-family="Helvetica,sans-Serif" font-size="10.00">itkGPUGradientNDAnisotropic</text>
<text text-anchor="middle" x="3695" y="-141.5" font-family="Helvetica,sans-Serif" font-size="10.00">DiffusionFunction.h</text>
</a>
</g>
</g>
<!-- Node43&#45;&gt;Node44 -->
<g id="edge51" class="edge">
<title>Node43&#45;&gt;Node44</title>
<path fill="none" stroke="midnightblue" d="M3703.18,-191.4C3701.37,-182.37 3699.38,-172.41 3697.82,-164.58"/>
<polygon fill="midnightblue" stroke="midnightblue" points="3699.79,-192.28 3705.18,-201.4 3706.65,-190.9 3699.79,-192.28"/>
</g>
<!-- Node44&#45;&gt;Node31 -->
<g id="edge52" class="edge">
<title>Node44&#45;&gt;Node31</title>
<path fill="none" stroke="midnightblue" d="M3667.79,-128.17C3654.48,-118.23 3638.8,-106.51 3626.84,-97.58"/>
<polygon fill="midnightblue" stroke="midnightblue" points="3666.02,-131.21 3676.12,-134.4 3670.21,-125.61 3666.02,-131.21"/>
</g>
<!-- Node45&#45;&gt;Node33 -->
<g id="edge54" class="edge">
<title>Node45&#45;&gt;Node33</title>
<path fill="none" stroke="midnightblue" d="M3888,-258.02C3888,-230.51 3888,-186.79 3888,-164.52"/>
<polygon fill="midnightblue" stroke="midnightblue" points="3884.5,-258.37 3888,-268.37 3891.5,-258.37 3884.5,-258.37"/>
</g>
<!-- Node45&#45;&gt;Node40 -->
<g id="edge55" class="edge">
<title>Node45&#45;&gt;Node40</title>
<path fill="none" stroke="midnightblue" d="M3923.23,-263.57C3942.26,-253.35 3965.37,-240.94 3982.8,-231.58"/>
<polygon fill="midnightblue" stroke="midnightblue" points="3921.41,-260.58 3914.26,-268.4 3924.72,-266.75 3921.41,-260.58"/>
</g>
</g>
</svg>
