<?xml version="1.0" encoding="UTF-8" standalone="no"?>
<!DOCTYPE svg PUBLIC "-//W3C//DTD SVG 1.1//EN"
 "http://www.w3.org/Graphics/SVG/1.1/DTD/svg11.dtd">
<!-- Generated by graphviz version 2.43.0 (0)
 -->
<!-- Title: itkWatershedMiniPipelineProgressCommand.h Pages: 1 -->
<svg width="1585pt" height="722pt"
 viewBox="0.00 0.00 1585.00 722.00" xmlns="http://www.w3.org/2000/svg" xmlns:xlink="http://www.w3.org/1999/xlink">
<g id="graph0" class="graph" transform="scale(1 1) rotate(0) translate(4 718)">
<title>itkWatershedMiniPipelineProgressCommand.h</title>
<polygon fill="white" stroke="transparent" points="-4,4 -4,-718 1581,-718 1581,4 -4,4"/>
<!-- Node1 -->
<g id="node1" class="node">
<title>Node1</title>
<g id="a_node1"><a xlink:title=" ">
<polygon fill="#bfbfbf" stroke="black" points="942.5,-683.5 942.5,-713.5 1083.5,-713.5 1083.5,-683.5 942.5,-683.5"/>
<text text-anchor="start" x="950.5" y="-701.5" font-family="Helvetica,sans-Serif" font-size="10.00">itkWatershedMiniPipeline</text>
<text text-anchor="middle" x="1013" y="-690.5" font-family="Helvetica,sans-Serif" font-size="10.00">ProgressCommand.h</text>
</a>
</g>
</g>
<!-- Node2 -->
<g id="node2" class="node">
<title>Node2</title>
<g id="a_node2"><a xlink:href="itkProcessObject_8h.html" target="_top" xlink:title=" ">
<polygon fill="white" stroke="black" points="959.5,-627.5 959.5,-646.5 1066.5,-646.5 1066.5,-627.5 959.5,-627.5"/>
<text text-anchor="middle" x="1013" y="-634.5" font-family="Helvetica,sans-Serif" font-size="10.00">itkProcessObject.h</text>
</a>
</g>
</g>
<!-- Node1&#45;&gt;Node2 -->
<g id="edge1" class="edge">
<title>Node1&#45;&gt;Node2</title>
<path fill="none" stroke="midnightblue" d="M1013,-683.4C1013,-675.47 1013,-665.46 1013,-656.86"/>
<polygon fill="midnightblue" stroke="midnightblue" points="1016.5,-656.66 1013,-646.66 1009.5,-656.66 1016.5,-656.66"/>
</g>
<!-- Node49 -->
<g id="node49" class="node">
<title>Node49</title>
<g id="a_node49"><a xlink:href="itkCommand_8h.html" target="_top" xlink:title=" ">
<polygon fill="white" stroke="black" points="295.5,-571.5 295.5,-590.5 384.5,-590.5 384.5,-571.5 295.5,-571.5"/>
<text text-anchor="middle" x="340" y="-578.5" font-family="Helvetica,sans-Serif" font-size="10.00">itkCommand.h</text>
</a>
</g>
</g>
<!-- Node1&#45;&gt;Node49 -->
<g id="edge82" class="edge">
<title>Node1&#45;&gt;Node49</title>
<path fill="none" stroke="midnightblue" d="M942.25,-685.36C807.47,-662.23 516.54,-612.3 395.05,-591.45"/>
<polygon fill="midnightblue" stroke="midnightblue" points="395.32,-587.94 384.87,-589.7 394.13,-594.84 395.32,-587.94"/>
</g>
<!-- Node50 -->
<g id="node50" class="node">
<title>Node50</title>
<g id="a_node50"><a xlink:title=" ">
<polygon fill="white" stroke="#bfbfbf" points="1084.5,-627.5 1084.5,-646.5 1213.5,-646.5 1213.5,-627.5 1084.5,-627.5"/>
<text text-anchor="middle" x="1149" y="-634.5" font-family="Helvetica,sans-Serif" font-size="10.00">ITKWatershedsExport.h</text>
</a>
</g>
</g>
<!-- Node1&#45;&gt;Node50 -->
<g id="edge86" class="edge">
<title>Node1&#45;&gt;Node50</title>
<path fill="none" stroke="midnightblue" d="M1045.23,-683.4C1067.84,-673.51 1097.84,-660.38 1119.76,-650.79"/>
<polygon fill="midnightblue" stroke="midnightblue" points="1121.45,-653.87 1129.21,-646.66 1118.65,-647.46 1121.45,-653.87"/>
</g>
<!-- Node3 -->
<g id="node3" class="node">
<title>Node3</title>
<g id="a_node3"><a xlink:href="itkDataObject_8h.html" target="_top" xlink:title=" ">
<polygon fill="white" stroke="black" points="774.5,-571.5 774.5,-590.5 867.5,-590.5 867.5,-571.5 774.5,-571.5"/>
<text text-anchor="middle" x="821" y="-578.5" font-family="Helvetica,sans-Serif" font-size="10.00">itkDataObject.h</text>
</a>
</g>
</g>
<!-- Node2&#45;&gt;Node3 -->
<g id="edge2" class="edge">
<title>Node2&#45;&gt;Node3</title>
<path fill="none" stroke="midnightblue" d="M982.58,-627.44C949.72,-618.2 897.22,-603.44 861.03,-593.26"/>
<polygon fill="midnightblue" stroke="midnightblue" points="861.85,-589.85 851.28,-590.52 859.96,-596.59 861.85,-589.85"/>
</g>
<!-- Node23 -->
<g id="node23" class="node">
<title>Node23</title>
<g id="a_node23"><a xlink:title=" ">
<polygon fill="white" stroke="#bfbfbf" points="1101,-230 1101,-249 1165,-249 1165,-230 1101,-230"/>
<text text-anchor="middle" x="1133" y="-237" font-family="Helvetica,sans-Serif" font-size="10.00">algorithm</text>
</a>
</g>
</g>
<!-- Node2&#45;&gt;Node23 -->
<g id="edge80" class="edge">
<title>Node2&#45;&gt;Node23</title>
<path fill="none" stroke="midnightblue" d="M1066.62,-628.09C1128.28,-618.54 1222.66,-602.34 1235,-591 1257.16,-570.63 1254,-556.1 1254,-526 1254,-526 1254,-526 1254,-356 1254,-305.88 1199.01,-270.85 1163.17,-253.34"/>
<polygon fill="midnightblue" stroke="midnightblue" points="1164.62,-250.15 1154.08,-249.06 1161.64,-256.48 1164.62,-250.15"/>
</g>
<!-- Node24 -->
<g id="node24" class="node">
<title>Node24</title>
<g id="a_node24"><a xlink:title=" ">
<polygon fill="white" stroke="#bfbfbf" points="138.5,-230 138.5,-249 185.5,-249 185.5,-230 138.5,-230"/>
<text text-anchor="middle" x="162" y="-237" font-family="Helvetica,sans-Serif" font-size="10.00">vector</text>
</a>
</g>
</g>
<!-- Node2&#45;&gt;Node24 -->
<g id="edge77" class="edge">
<title>Node2&#45;&gt;Node24</title>
<path fill="none" stroke="midnightblue" d="M959.34,-635.79C827.44,-633.84 498,-619.6 498,-526 498,-526 498,-526 498,-468 498,-340.91 369.78,-373.3 259,-311 229.73,-294.54 198.84,-270.83 179.99,-255.55"/>
<polygon fill="midnightblue" stroke="midnightblue" points="182.17,-252.81 172.22,-249.17 177.73,-258.22 182.17,-252.81"/>
</g>
<!-- Node25 -->
<g id="node25" class="node">
<title>Node25</title>
<g id="a_node25"><a xlink:title=" ">
<polygon fill="white" stroke="#bfbfbf" points="578,-230 578,-249 616,-249 616,-230 578,-230"/>
<text text-anchor="middle" x="597" y="-237" font-family="Helvetica,sans-Serif" font-size="10.00">map</text>
</a>
</g>
</g>
<!-- Node2&#45;&gt;Node25 -->
<g id="edge78" class="edge">
<title>Node2&#45;&gt;Node25</title>
<path fill="none" stroke="midnightblue" d="M1007.55,-627.43C1002.28,-618.66 994.58,-604.44 991,-591 977.13,-538.92 983,-523.9 983,-470 983,-470 983,-470 983,-356 983,-281.56 716.16,-251.06 626.21,-242.89"/>
<polygon fill="midnightblue" stroke="midnightblue" points="626.41,-239.4 616.14,-242.01 625.8,-246.37 626.41,-239.4"/>
</g>
<!-- Node32 -->
<g id="node32" class="node">
<title>Node32</title>
<g id="a_node32"><a xlink:href="itkObjectFactory_8h.html" target="_top" xlink:title=" ">
<polygon fill="white" stroke="black" points="328,-515.5 328,-534.5 432,-534.5 432,-515.5 328,-515.5"/>
<text text-anchor="middle" x="380" y="-522.5" font-family="Helvetica,sans-Serif" font-size="10.00">itkObjectFactory.h</text>
</a>
</g>
</g>
<!-- Node2&#45;&gt;Node32 -->
<g id="edge61" class="edge">
<title>Node2&#45;&gt;Node32</title>
<path fill="none" stroke="midnightblue" d="M959.38,-634.63C843.08,-631.13 571.11,-620.04 484,-591 450.92,-579.97 417.6,-556.46 397.89,-540.94"/>
<polygon fill="midnightblue" stroke="midnightblue" points="400.06,-538.19 390.08,-534.64 395.67,-543.64 400.06,-538.19"/>
</g>
<!-- Node38 -->
<g id="node38" class="node">
<title>Node38</title>
<g id="a_node38"><a xlink:href="itkNumericTraits_8h.html" target="_top" xlink:title=" ">
<polygon fill="white" stroke="black" points="1401,-347.5 1401,-366.5 1507,-366.5 1507,-347.5 1401,-347.5"/>
<text text-anchor="middle" x="1454" y="-354.5" font-family="Helvetica,sans-Serif" font-size="10.00">itkNumericTraits.h</text>
</a>
</g>
</g>
<!-- Node2&#45;&gt;Node38 -->
<g id="edge62" class="edge">
<title>Node2&#45;&gt;Node38</title>
<path fill="none" stroke="midnightblue" d="M1066.53,-627.91C1135.8,-617.23 1249.82,-598.86 1268,-591 1312.3,-571.84 1355,-574.27 1355,-526 1355,-526 1355,-526 1355,-468 1355,-424.18 1398.94,-389.93 1428.27,-371.94"/>
<polygon fill="midnightblue" stroke="midnightblue" points="1430.36,-374.77 1437.21,-366.68 1426.81,-368.74 1430.36,-374.77"/>
</g>
<!-- Node45 -->
<g id="node45" class="node">
<title>Node45</title>
<g id="a_node45"><a xlink:href="itkThreadSupport_8h.html" target="_top" xlink:title=" ">
<polygon fill="white" stroke="black" points="1000,-571.5 1000,-590.5 1110,-590.5 1110,-571.5 1000,-571.5"/>
<text text-anchor="middle" x="1055" y="-578.5" font-family="Helvetica,sans-Serif" font-size="10.00">itkThreadSupport.h</text>
</a>
</g>
</g>
<!-- Node2&#45;&gt;Node45 -->
<g id="edge74" class="edge">
<title>Node2&#45;&gt;Node45</title>
<path fill="none" stroke="midnightblue" d="M1019.94,-627.08C1025.93,-619.38 1034.75,-608.03 1042.05,-598.65"/>
<polygon fill="midnightblue" stroke="midnightblue" points="1044.82,-600.79 1048.19,-590.75 1039.29,-596.5 1044.82,-600.79"/>
</g>
<!-- Node47 -->
<g id="node47" class="node">
<title>Node47</title>
<g id="a_node47"><a xlink:title=" ">
<polygon fill="white" stroke="#bfbfbf" points="1128,-571.5 1128,-590.5 1160,-590.5 1160,-571.5 1128,-571.5"/>
<text text-anchor="middle" x="1144" y="-578.5" font-family="Helvetica,sans-Serif" font-size="10.00">set</text>
</a>
</g>
</g>
<!-- Node2&#45;&gt;Node47 -->
<g id="edge79" class="edge">
<title>Node2&#45;&gt;Node47</title>
<path fill="none" stroke="midnightblue" d="M1033.76,-627.44C1056.71,-617.98 1093.71,-602.73 1118.43,-592.54"/>
<polygon fill="midnightblue" stroke="midnightblue" points="1119.97,-595.69 1127.88,-588.64 1117.3,-589.22 1119.97,-595.69"/>
</g>
<!-- Node48 -->
<g id="node48" class="node">
<title>Node48</title>
<g id="a_node48"><a xlink:title=" ">
<polygon fill="white" stroke="#bfbfbf" points="1178,-571.5 1178,-590.5 1226,-590.5 1226,-571.5 1178,-571.5"/>
<text text-anchor="middle" x="1202" y="-578.5" font-family="Helvetica,sans-Serif" font-size="10.00">thread</text>
</a>
</g>
</g>
<!-- Node2&#45;&gt;Node48 -->
<g id="edge81" class="edge">
<title>Node2&#45;&gt;Node48</title>
<path fill="none" stroke="midnightblue" d="M1042.95,-627.44C1076.96,-617.73 1132.34,-601.9 1167.96,-591.73"/>
<polygon fill="midnightblue" stroke="midnightblue" points="1169.24,-595 1177.89,-588.89 1167.31,-588.27 1169.24,-595"/>
</g>
<!-- Node4 -->
<g id="node4" class="node">
<title>Node4</title>
<g id="a_node4"><a xlink:href="itkObject_8h.html" target="_top" xlink:title=" ">
<polygon fill="white" stroke="black" points="475,-347.5 475,-366.5 545,-366.5 545,-347.5 475,-347.5"/>
<text text-anchor="middle" x="510" y="-354.5" font-family="Helvetica,sans-Serif" font-size="10.00">itkObject.h</text>
</a>
</g>
</g>
<!-- Node3&#45;&gt;Node4 -->
<g id="edge3" class="edge">
<title>Node3&#45;&gt;Node4</title>
<path fill="none" stroke="midnightblue" d="M808.81,-571.3C761.49,-537.52 589.67,-414.87 530.33,-372.51"/>
<polygon fill="midnightblue" stroke="midnightblue" points="532.28,-369.6 522.11,-366.64 528.21,-375.3 532.28,-369.6"/>
</g>
<!-- Node6 -->
<g id="node6" class="node">
<title>Node6</title>
<g id="a_node6"><a xlink:href="itkMacro_8h.html" target="_top" xlink:title=" ">
<polygon fill="white" stroke="black" points="785,-0.5 785,-19.5 853,-19.5 853,-0.5 785,-0.5"/>
<text text-anchor="middle" x="819" y="-7.5" font-family="Helvetica,sans-Serif" font-size="10.00">itkMacro.h</text>
</a>
</g>
</g>
<!-- Node3&#45;&gt;Node6 -->
<g id="edge39" class="edge">
<title>Node3&#45;&gt;Node6</title>
<path fill="none" stroke="midnightblue" d="M844.62,-571.48C880.59,-556.79 945,-523.09 945,-470 945,-470 945,-470 945,-356 945,-245.21 1021.45,-219.82 996,-112 989.61,-84.92 989.28,-73.93 968,-56 938.45,-31.1 895.41,-19.97 863.18,-15.01"/>
<polygon fill="midnightblue" stroke="midnightblue" points="863.51,-11.52 853.12,-13.6 862.54,-18.45 863.51,-11.52"/>
</g>
<!-- Node17 -->
<g id="node17" class="node">
<title>Node17</title>
<g id="a_node17"><a xlink:href="itkSingletonMacro_8h.html" target="_top" xlink:title=" ">
<polygon fill="white" stroke="black" points="0,-56.5 0,-75.5 114,-75.5 114,-56.5 0,-56.5"/>
<text text-anchor="middle" x="57" y="-63.5" font-family="Helvetica,sans-Serif" font-size="10.00">itkSingletonMacro.h</text>
</a>
</g>
</g>
<!-- Node3&#45;&gt;Node17 -->
<g id="edge40" class="edge">
<title>Node3&#45;&gt;Node17</title>
<path fill="none" stroke="midnightblue" d="M775.19,-571.49C703.89,-558.4 561.99,-532.95 441,-515 314.27,-496.2 276.78,-518.78 155,-479 71.93,-451.86 0,-445.39 0,-358 0,-358 0,-358 0,-177 0,-140.3 25.32,-103.66 42.21,-83.3"/>
<polygon fill="midnightblue" stroke="midnightblue" points="44.95,-85.48 48.83,-75.62 39.65,-80.9 44.95,-85.48"/>
</g>
<!-- Node29 -->
<g id="node29" class="node">
<title>Node29</title>
<g id="a_node29"><a xlink:href="itkWeakPointer_8h.html" target="_top" xlink:title=" ">
<polygon fill="white" stroke="black" points="869.5,-112.5 869.5,-131.5 968.5,-131.5 968.5,-112.5 869.5,-112.5"/>
<text text-anchor="middle" x="919" y="-119.5" font-family="Helvetica,sans-Serif" font-size="10.00">itkWeakPointer.h</text>
</a>
</g>
</g>
<!-- Node3&#45;&gt;Node29 -->
<g id="edge41" class="edge">
<title>Node3&#45;&gt;Node29</title>
<path fill="none" stroke="midnightblue" d="M834.82,-571.28C859.13,-554.74 907,-516.3 907,-470 907,-470 907,-470 907,-238.5 907,-204.18 912.31,-164.43 915.86,-141.65"/>
<polygon fill="midnightblue" stroke="midnightblue" points="919.34,-142.09 917.48,-131.66 912.43,-140.97 919.34,-142.09"/>
</g>
<!-- Node30 -->
<g id="node30" class="node">
<title>Node30</title>
<g id="a_node30"><a xlink:href="itkRealTimeStamp_8h.html" target="_top" xlink:title=" ">
<polygon fill="white" stroke="black" points="763,-168.5 763,-187.5 879,-187.5 879,-168.5 763,-168.5"/>
<text text-anchor="middle" x="821" y="-175.5" font-family="Helvetica,sans-Serif" font-size="10.00">itkRealTimeStamp.h</text>
</a>
</g>
</g>
<!-- Node3&#45;&gt;Node30 -->
<g id="edge44" class="edge">
<title>Node3&#45;&gt;Node30</title>
<path fill="none" stroke="midnightblue" d="M821,-571.44C821,-552.94 821,-507.81 821,-470 821,-470 821,-470 821,-300 821,-263.71 821,-221.31 821,-197.56"/>
<polygon fill="midnightblue" stroke="midnightblue" points="824.5,-197.51 821,-187.51 817.5,-197.51 824.5,-197.51"/>
</g>
<!-- Node3&#45;&gt;Node32 -->
<g id="edge51" class="edge">
<title>Node3&#45;&gt;Node32</title>
<path fill="none" stroke="midnightblue" d="M774.49,-574.66C703.59,-566.47 564.21,-550.15 446,-535 444.74,-534.84 443.47,-534.67 442.19,-534.51"/>
<polygon fill="midnightblue" stroke="midnightblue" points="442.6,-531.03 432.23,-533.2 441.69,-537.97 442.6,-531.03"/>
</g>
<!-- Node5 -->
<g id="node5" class="node">
<title>Node5</title>
<g id="a_node5"><a xlink:href="itkLightObject_8h.html" target="_top" xlink:title=" ">
<polygon fill="white" stroke="black" points="412,-168.5 412,-187.5 506,-187.5 506,-168.5 412,-168.5"/>
<text text-anchor="middle" x="459" y="-175.5" font-family="Helvetica,sans-Serif" font-size="10.00">itkLightObject.h</text>
</a>
</g>
</g>
<!-- Node4&#45;&gt;Node5 -->
<g id="edge4" class="edge">
<title>Node4&#45;&gt;Node5</title>
<path fill="none" stroke="midnightblue" d="M528.17,-347.37C569.14,-326.76 662.3,-272.76 625,-224 611.65,-206.55 558.77,-194.29 516.23,-187.02"/>
<polygon fill="midnightblue" stroke="midnightblue" points="516.66,-183.54 506.22,-185.37 515.52,-190.45 516.66,-183.54"/>
</g>
<!-- Node4&#45;&gt;Node17 -->
<g id="edge37" class="edge">
<title>Node4&#45;&gt;Node17</title>
<path fill="none" stroke="midnightblue" d="M487.34,-347.5C435.44,-327.84 309.44,-279.12 271,-255 187.62,-202.69 104.53,-118.07 71.68,-83.01"/>
<polygon fill="midnightblue" stroke="midnightblue" points="74.15,-80.52 64.78,-75.57 69.02,-85.28 74.15,-80.52"/>
</g>
<!-- Node20 -->
<g id="node20" class="node">
<title>Node20</title>
<g id="a_node20"><a xlink:href="itkEventObject_8h.html" target="_top" xlink:title=" ">
<polygon fill="white" stroke="black" points="647,-168.5 647,-187.5 745,-187.5 745,-168.5 647,-168.5"/>
<text text-anchor="middle" x="696" y="-175.5" font-family="Helvetica,sans-Serif" font-size="10.00">itkEventObject.h</text>
</a>
</g>
</g>
<!-- Node4&#45;&gt;Node20 -->
<g id="edge25" class="edge">
<title>Node4&#45;&gt;Node20</title>
<path fill="none" stroke="midnightblue" d="M542,-347.48C563.84,-340.44 592.44,-328.69 613,-311 650.66,-278.59 676.98,-224.79 688.87,-196.94"/>
<polygon fill="midnightblue" stroke="midnightblue" points="692.13,-198.22 692.71,-187.64 685.66,-195.55 692.13,-198.22"/>
</g>
<!-- Node21 -->
<g id="node21" class="node">
<title>Node21</title>
<g id="a_node21"><a xlink:href="itkMetaDataDictionary_8h.html" target="_top" xlink:title=" ">
<polygon fill="white" stroke="black" points="421.5,-291.5 421.5,-310.5 556.5,-310.5 556.5,-291.5 421.5,-291.5"/>
<text text-anchor="middle" x="489" y="-298.5" font-family="Helvetica,sans-Serif" font-size="10.00">itkMetaDataDictionary.h</text>
</a>
</g>
</g>
<!-- Node4&#45;&gt;Node21 -->
<g id="edge27" class="edge">
<title>Node4&#45;&gt;Node21</title>
<path fill="none" stroke="midnightblue" d="M506.53,-347.08C503.69,-339.77 499.57,-329.18 496.04,-320.1"/>
<polygon fill="midnightblue" stroke="midnightblue" points="499.29,-318.8 492.4,-310.75 492.77,-321.34 499.29,-318.8"/>
</g>
<!-- Node28 -->
<g id="node28" class="node">
<title>Node28</title>
<g id="a_node28"><a xlink:title=" ">
<polygon fill="white" stroke="#bfbfbf" points="268.5,-291.5 268.5,-310.5 333.5,-310.5 333.5,-291.5 268.5,-291.5"/>
<text text-anchor="middle" x="301" y="-298.5" font-family="Helvetica,sans-Serif" font-size="10.00">functional</text>
</a>
</g>
</g>
<!-- Node4&#45;&gt;Node28 -->
<g id="edge38" class="edge">
<title>Node4&#45;&gt;Node28</title>
<path fill="none" stroke="midnightblue" d="M476.88,-347.44C440.78,-338.11 382.89,-323.16 343.47,-312.97"/>
<polygon fill="midnightblue" stroke="midnightblue" points="344.18,-309.54 333.62,-310.43 342.42,-316.32 344.18,-309.54"/>
</g>
<!-- Node5&#45;&gt;Node6 -->
<g id="edge5" class="edge">
<title>Node5&#45;&gt;Node6</title>
<path fill="none" stroke="midnightblue" d="M439.7,-168.48C425.57,-161.08 407.44,-148.89 399,-132 387.9,-109.8 408.77,-62.01 416,-56 443.16,-33.42 675.4,-18.59 774.49,-13.23"/>
<polygon fill="midnightblue" stroke="midnightblue" points="774.98,-16.71 784.78,-12.68 774.61,-9.72 774.98,-16.71"/>
</g>
<!-- Node7 -->
<g id="node7" class="node">
<title>Node7</title>
<g id="a_node7"><a xlink:href="itkSmartPointer_8h.html" target="_top" xlink:title=" ">
<polygon fill="white" stroke="black" points="408.5,-112.5 408.5,-131.5 509.5,-131.5 509.5,-112.5 408.5,-112.5"/>
<text text-anchor="middle" x="459" y="-119.5" font-family="Helvetica,sans-Serif" font-size="10.00">itkSmartPointer.h</text>
</a>
</g>
</g>
<!-- Node5&#45;&gt;Node7 -->
<g id="edge6" class="edge">
<title>Node5&#45;&gt;Node7</title>
<path fill="none" stroke="midnightblue" d="M459,-168.08C459,-161.01 459,-150.86 459,-141.99"/>
<polygon fill="midnightblue" stroke="midnightblue" points="462.5,-141.75 459,-131.75 455.5,-141.75 462.5,-141.75"/>
</g>
<!-- Node8 -->
<g id="node8" class="node">
<title>Node8</title>
<g id="a_node8"><a xlink:title=" ">
<polygon fill="white" stroke="#bfbfbf" points="633,-56.5 633,-75.5 693,-75.5 693,-56.5 633,-56.5"/>
<text text-anchor="middle" x="663" y="-63.5" font-family="Helvetica,sans-Serif" font-size="10.00">iostream</text>
</a>
</g>
</g>
<!-- Node5&#45;&gt;Node8 -->
<g id="edge23" class="edge">
<title>Node5&#45;&gt;Node8</title>
<path fill="none" stroke="midnightblue" d="M506.2,-169.46C536.52,-163.01 575.74,-151.56 606,-132 625.23,-119.57 641.79,-98.86 652.02,-84.17"/>
<polygon fill="midnightblue" stroke="midnightblue" points="655.15,-85.78 657.8,-75.52 649.34,-81.89 655.15,-85.78"/>
</g>
<!-- Node12 -->
<g id="node12" class="node">
<title>Node12</title>
<g id="a_node12"><a xlink:href="itkTimeStamp_8h.html" target="_top" xlink:title=" ">
<polygon fill="white" stroke="black" points="256.5,-112.5 256.5,-131.5 351.5,-131.5 351.5,-112.5 256.5,-112.5"/>
<text text-anchor="middle" x="304" y="-119.5" font-family="Helvetica,sans-Serif" font-size="10.00">itkTimeStamp.h</text>
</a>
</g>
</g>
<!-- Node5&#45;&gt;Node12 -->
<g id="edge11" class="edge">
<title>Node5&#45;&gt;Node12</title>
<path fill="none" stroke="midnightblue" d="M434.44,-168.44C408.48,-159.4 367.33,-145.06 338.2,-134.92"/>
<polygon fill="midnightblue" stroke="midnightblue" points="339.04,-131.5 328.45,-131.52 336.74,-138.11 339.04,-131.5"/>
</g>
<!-- Node16 -->
<g id="node16" class="node">
<title>Node16</title>
<g id="a_node16"><a xlink:title=" ">
<polygon fill="white" stroke="#bfbfbf" points="182,-56.5 182,-75.5 232,-75.5 232,-56.5 182,-56.5"/>
<text text-anchor="middle" x="207" y="-63.5" font-family="Helvetica,sans-Serif" font-size="10.00">atomic</text>
</a>
</g>
</g>
<!-- Node5&#45;&gt;Node16 -->
<g id="edge22" class="edge">
<title>Node5&#45;&gt;Node16</title>
<path fill="none" stroke="midnightblue" d="M411.81,-177.36C365.83,-175.48 295.89,-166.47 247,-132 230.79,-120.57 219.86,-100.29 213.58,-85.41"/>
<polygon fill="midnightblue" stroke="midnightblue" points="216.71,-83.79 209.82,-75.74 210.18,-86.32 216.71,-83.79"/>
</g>
<!-- Node18 -->
<g id="node18" class="node">
<title>Node18</title>
<g id="a_node18"><a xlink:href="itkIndent_8h.html" target="_top" xlink:title=" ">
<polygon fill="white" stroke="black" points="527.5,-112.5 527.5,-131.5 596.5,-131.5 596.5,-112.5 527.5,-112.5"/>
<text text-anchor="middle" x="562" y="-119.5" font-family="Helvetica,sans-Serif" font-size="10.00">itkIndent.h</text>
</a>
</g>
</g>
<!-- Node5&#45;&gt;Node18 -->
<g id="edge19" class="edge">
<title>Node5&#45;&gt;Node18</title>
<path fill="none" stroke="midnightblue" d="M475.55,-168.32C491.99,-159.7 517.43,-146.36 536.47,-136.39"/>
<polygon fill="midnightblue" stroke="midnightblue" points="538.26,-139.4 545.49,-131.65 535.01,-133.2 538.26,-139.4"/>
</g>
<!-- Node19 -->
<g id="node19" class="node">
<title>Node19</title>
<g id="a_node19"><a xlink:title=" ">
<polygon fill="white" stroke="#bfbfbf" points="142.5,-112.5 142.5,-131.5 199.5,-131.5 199.5,-112.5 142.5,-112.5"/>
<text text-anchor="middle" x="171" y="-119.5" font-family="Helvetica,sans-Serif" font-size="10.00">typeinfo</text>
</a>
</g>
</g>
<!-- Node5&#45;&gt;Node19 -->
<g id="edge24" class="edge">
<title>Node5&#45;&gt;Node19</title>
<path fill="none" stroke="midnightblue" d="M411.97,-168.72C362.6,-159.94 282.74,-145.51 214,-132 212.55,-131.72 211.07,-131.42 209.58,-131.12"/>
<polygon fill="midnightblue" stroke="midnightblue" points="210.16,-127.67 199.66,-129.1 208.76,-134.53 210.16,-127.67"/>
</g>
<!-- Node7&#45;&gt;Node8 -->
<g id="edge7" class="edge">
<title>Node7&#45;&gt;Node8</title>
<path fill="none" stroke="midnightblue" d="M491.32,-112.44C527.01,-103 584.49,-87.78 622.98,-77.59"/>
<polygon fill="midnightblue" stroke="midnightblue" points="624.05,-80.93 632.82,-74.99 622.26,-74.16 624.05,-80.93"/>
</g>
<!-- Node9 -->
<g id="node9" class="node">
<title>Node9</title>
<g id="a_node9"><a xlink:title=" ">
<polygon fill="white" stroke="#bfbfbf" points="511.5,-56.5 511.5,-75.5 556.5,-75.5 556.5,-56.5 511.5,-56.5"/>
<text text-anchor="middle" x="534" y="-63.5" font-family="Helvetica,sans-Serif" font-size="10.00">utility</text>
</a>
</g>
</g>
<!-- Node7&#45;&gt;Node9 -->
<g id="edge8" class="edge">
<title>Node7&#45;&gt;Node9</title>
<path fill="none" stroke="midnightblue" d="M471.05,-112.32C482.46,-104.11 499.83,-91.6 513.43,-81.81"/>
<polygon fill="midnightblue" stroke="midnightblue" points="515.66,-84.52 521.73,-75.83 511.57,-78.84 515.66,-84.52"/>
</g>
<!-- Node10 -->
<g id="node10" class="node">
<title>Node10</title>
<g id="a_node10"><a xlink:title=" ">
<polygon fill="white" stroke="#bfbfbf" points="424.5,-56.5 424.5,-75.5 493.5,-75.5 493.5,-56.5 424.5,-56.5"/>
<text text-anchor="middle" x="459" y="-63.5" font-family="Helvetica,sans-Serif" font-size="10.00">type_traits</text>
</a>
</g>
</g>
<!-- Node7&#45;&gt;Node10 -->
<g id="edge9" class="edge">
<title>Node7&#45;&gt;Node10</title>
<path fill="none" stroke="midnightblue" d="M459,-112.08C459,-105.01 459,-94.86 459,-85.99"/>
<polygon fill="midnightblue" stroke="midnightblue" points="462.5,-85.75 459,-75.75 455.5,-85.75 462.5,-85.75"/>
</g>
<!-- Node11 -->
<g id="node11" class="node">
<title>Node11</title>
<g id="a_node11"><a xlink:title=" ">
<polygon fill="white" stroke="#bfbfbf" points="1063.5,-56.5 1063.5,-75.5 1148.5,-75.5 1148.5,-56.5 1063.5,-56.5"/>
<text text-anchor="middle" x="1106" y="-63.5" font-family="Helvetica,sans-Serif" font-size="10.00">itkConfigure.h</text>
</a>
</g>
</g>
<!-- Node7&#45;&gt;Node11 -->
<g id="edge10" class="edge">
<title>Node7&#45;&gt;Node11</title>
<path fill="none" stroke="midnightblue" d="M509.7,-113.13C512.85,-112.72 515.96,-112.34 519,-112 715.38,-89.77 949.98,-75.45 1053.04,-69.77"/>
<polygon fill="midnightblue" stroke="midnightblue" points="1053.39,-73.26 1063.18,-69.22 1053.01,-66.27 1053.39,-73.26"/>
</g>
<!-- Node12&#45;&gt;Node6 -->
<g id="edge12" class="edge">
<title>Node12&#45;&gt;Node6</title>
<path fill="none" stroke="midnightblue" d="M311.12,-112.4C323.71,-97.89 351.46,-68.86 382,-56 452.11,-26.47 678.3,-15.64 774.76,-12.29"/>
<polygon fill="midnightblue" stroke="midnightblue" points="774.89,-15.79 784.77,-11.96 774.66,-8.79 774.89,-15.79"/>
</g>
<!-- Node13 -->
<g id="node13" class="node">
<title>Node13</title>
<g id="a_node13"><a xlink:href="itkIntTypes_8h.html" target="_top" xlink:title=" ">
<polygon fill="white" stroke="black" points="250.5,-56.5 250.5,-75.5 329.5,-75.5 329.5,-56.5 250.5,-56.5"/>
<text text-anchor="middle" x="290" y="-63.5" font-family="Helvetica,sans-Serif" font-size="10.00">itkIntTypes.h</text>
</a>
</g>
</g>
<!-- Node12&#45;&gt;Node13 -->
<g id="edge13" class="edge">
<title>Node12&#45;&gt;Node13</title>
<path fill="none" stroke="midnightblue" d="M301.69,-112.08C299.83,-104.93 297.16,-94.64 294.85,-85.69"/>
<polygon fill="midnightblue" stroke="midnightblue" points="298.17,-84.55 292.27,-75.75 291.39,-86.31 298.17,-84.55"/>
</g>
<!-- Node12&#45;&gt;Node16 -->
<g id="edge17" class="edge">
<title>Node12&#45;&gt;Node16</title>
<path fill="none" stroke="midnightblue" d="M288.42,-112.32C273,-103.74 249.19,-90.49 231.29,-80.52"/>
<polygon fill="midnightblue" stroke="midnightblue" points="232.99,-77.46 222.55,-75.65 229.58,-83.58 232.99,-77.46"/>
</g>
<!-- Node12&#45;&gt;Node17 -->
<g id="edge18" class="edge">
<title>Node12&#45;&gt;Node17</title>
<path fill="none" stroke="midnightblue" d="M264.86,-112.44C221.77,-103.02 152.44,-87.87 105.83,-77.68"/>
<polygon fill="midnightblue" stroke="midnightblue" points="106.47,-74.23 95.95,-75.52 104.98,-81.07 106.47,-74.23"/>
</g>
<!-- Node13&#45;&gt;Node6 -->
<g id="edge14" class="edge">
<title>Node13&#45;&gt;Node6</title>
<path fill="none" stroke="midnightblue" d="M329.76,-58.05C334.55,-57.3 339.38,-56.6 344,-56 501.93,-35.38 690.58,-20.35 774.71,-14.14"/>
<polygon fill="midnightblue" stroke="midnightblue" points="775.21,-17.62 784.93,-13.4 774.7,-10.64 775.21,-17.62"/>
</g>
<!-- Node14 -->
<g id="node14" class="node">
<title>Node14</title>
<g id="a_node14"><a xlink:title=" ">
<polygon fill="white" stroke="#bfbfbf" points="231,-0.5 231,-19.5 281,-19.5 281,-0.5 231,-0.5"/>
<text text-anchor="middle" x="256" y="-7.5" font-family="Helvetica,sans-Serif" font-size="10.00">cstdint</text>
</a>
</g>
</g>
<!-- Node13&#45;&gt;Node14 -->
<g id="edge15" class="edge">
<title>Node13&#45;&gt;Node14</title>
<path fill="none" stroke="midnightblue" d="M284.39,-56.08C279.63,-48.53 272.68,-37.49 266.85,-28.23"/>
<polygon fill="midnightblue" stroke="midnightblue" points="269.8,-26.35 261.51,-19.75 263.88,-30.08 269.8,-26.35"/>
</g>
<!-- Node15 -->
<g id="node15" class="node">
<title>Node15</title>
<g id="a_node15"><a xlink:title=" ">
<polygon fill="white" stroke="#bfbfbf" points="299,-0.5 299,-19.5 349,-19.5 349,-0.5 299,-0.5"/>
<text text-anchor="middle" x="324" y="-7.5" font-family="Helvetica,sans-Serif" font-size="10.00">climits</text>
</a>
</g>
</g>
<!-- Node13&#45;&gt;Node15 -->
<g id="edge16" class="edge">
<title>Node13&#45;&gt;Node15</title>
<path fill="none" stroke="midnightblue" d="M295.61,-56.08C300.37,-48.53 307.32,-37.49 313.15,-28.23"/>
<polygon fill="midnightblue" stroke="midnightblue" points="316.12,-30.08 318.49,-19.75 310.2,-26.35 316.12,-30.08"/>
</g>
<!-- Node18&#45;&gt;Node6 -->
<g id="edge20" class="edge">
<title>Node18&#45;&gt;Node6</title>
<path fill="none" stroke="midnightblue" d="M567.72,-112.3C577.49,-98.17 598.8,-70.36 624,-56 671.17,-29.12 733.41,-18.29 774.74,-13.93"/>
<polygon fill="midnightblue" stroke="midnightblue" points="775.17,-17.41 784.78,-12.96 774.49,-10.44 775.17,-17.41"/>
</g>
<!-- Node18&#45;&gt;Node8 -->
<g id="edge21" class="edge">
<title>Node18&#45;&gt;Node8</title>
<path fill="none" stroke="midnightblue" d="M578.23,-112.32C594.35,-103.7 619.3,-90.36 637.96,-80.39"/>
<polygon fill="midnightblue" stroke="midnightblue" points="639.64,-83.46 646.81,-75.65 636.34,-77.28 639.64,-83.46"/>
</g>
<!-- Node20&#45;&gt;Node18 -->
<g id="edge26" class="edge">
<title>Node20&#45;&gt;Node18</title>
<path fill="none" stroke="midnightblue" d="M674.77,-168.44C652.62,-159.52 617.68,-145.44 592.56,-135.32"/>
<polygon fill="midnightblue" stroke="midnightblue" points="593.72,-132.01 583.13,-131.52 591.1,-138.5 593.72,-132.01"/>
</g>
<!-- Node22 -->
<g id="node22" class="node">
<title>Node22</title>
<g id="a_node22"><a xlink:href="itkMetaDataObjectBase_8h.html" target="_top" xlink:title=" ">
<polygon fill="white" stroke="black" points="418,-230 418,-249 560,-249 560,-230 418,-230"/>
<text text-anchor="middle" x="489" y="-237" font-family="Helvetica,sans-Serif" font-size="10.00">itkMetaDataObjectBase.h</text>
</a>
</g>
</g>
<!-- Node21&#45;&gt;Node22 -->
<g id="edge28" class="edge">
<title>Node21&#45;&gt;Node22</title>
<path fill="none" stroke="midnightblue" d="M489,-291.48C489,-283.08 489,-269.98 489,-259.16"/>
<polygon fill="midnightblue" stroke="midnightblue" points="492.5,-259.01 489,-249.01 485.5,-259.01 492.5,-259.01"/>
</g>
<!-- Node21&#45;&gt;Node23 -->
<g id="edge32" class="edge">
<title>Node21&#45;&gt;Node23</title>
<path fill="none" stroke="midnightblue" d="M556.7,-293.74C689.68,-281.46 981.54,-254.49 1090.69,-244.41"/>
<polygon fill="midnightblue" stroke="midnightblue" points="1091.34,-247.86 1100.98,-243.46 1090.7,-240.89 1091.34,-247.86"/>
</g>
<!-- Node21&#45;&gt;Node24 -->
<g id="edge33" class="edge">
<title>Node21&#45;&gt;Node24</title>
<path fill="none" stroke="midnightblue" d="M442.15,-291.48C375.34,-279.32 254.33,-257.3 195.67,-246.63"/>
<polygon fill="midnightblue" stroke="midnightblue" points="196.27,-243.18 185.81,-244.83 195.02,-250.07 196.27,-243.18"/>
</g>
<!-- Node21&#45;&gt;Node25 -->
<g id="edge34" class="edge">
<title>Node21&#45;&gt;Node25</title>
<path fill="none" stroke="midnightblue" d="M504.47,-291.48C522.28,-281.67 551.74,-265.43 572.63,-253.92"/>
<polygon fill="midnightblue" stroke="midnightblue" points="574.49,-256.9 581.55,-249.01 571.11,-250.77 574.49,-256.9"/>
</g>
<!-- Node26 -->
<g id="node26" class="node">
<title>Node26</title>
<g id="a_node26"><a xlink:title=" ">
<polygon fill="white" stroke="#bfbfbf" points="280,-230 280,-249 324,-249 324,-230 280,-230"/>
<text text-anchor="middle" x="302" y="-237" font-family="Helvetica,sans-Serif" font-size="10.00">string</text>
</a>
</g>
</g>
<!-- Node21&#45;&gt;Node26 -->
<g id="edge35" class="edge">
<title>Node21&#45;&gt;Node26</title>
<path fill="none" stroke="midnightblue" d="M453.48,-291.45C421.52,-283.36 373.51,-270.21 333,-255 331.57,-254.46 330.12,-253.89 328.67,-253.29"/>
<polygon fill="midnightblue" stroke="midnightblue" points="329.74,-249.94 319.17,-249.12 326.92,-256.35 329.74,-249.94"/>
</g>
<!-- Node27 -->
<g id="node27" class="node">
<title>Node27</title>
<g id="a_node27"><a xlink:title=" ">
<polygon fill="white" stroke="#bfbfbf" points="342,-230 342,-249 400,-249 400,-230 342,-230"/>
<text text-anchor="middle" x="371" y="-237" font-family="Helvetica,sans-Serif" font-size="10.00">memory</text>
</a>
</g>
</g>
<!-- Node21&#45;&gt;Node27 -->
<g id="edge36" class="edge">
<title>Node21&#45;&gt;Node27</title>
<path fill="none" stroke="midnightblue" d="M472.09,-291.48C452.47,-281.58 419.87,-265.14 397.01,-253.62"/>
<polygon fill="midnightblue" stroke="midnightblue" points="398.38,-250.39 387.88,-249.01 395.23,-256.64 398.38,-250.39"/>
</g>
<!-- Node22&#45;&gt;Node5 -->
<g id="edge29" class="edge">
<title>Node22&#45;&gt;Node5</title>
<path fill="none" stroke="midnightblue" d="M484.7,-229.98C480.34,-221.32 473.44,-207.65 467.9,-196.65"/>
<polygon fill="midnightblue" stroke="midnightblue" points="470.92,-194.86 463.29,-187.51 464.67,-198.01 470.92,-194.86"/>
</g>
<!-- Node22&#45;&gt;Node8 -->
<g id="edge31" class="edge">
<title>Node22&#45;&gt;Node8</title>
<path fill="none" stroke="midnightblue" d="M505,-229.9C533.51,-213.9 593.62,-177.07 631,-132 642.65,-117.96 651.37,-98.96 656.74,-85.14"/>
<polygon fill="midnightblue" stroke="midnightblue" points="660.03,-86.33 660.19,-75.74 653.46,-83.92 660.03,-86.33"/>
</g>
<!-- Node22&#45;&gt;Node19 -->
<g id="edge30" class="edge">
<title>Node22&#45;&gt;Node19</title>
<path fill="none" stroke="midnightblue" d="M465.36,-229.91C409.48,-209.62 269.1,-158.63 204.49,-135.16"/>
<polygon fill="midnightblue" stroke="midnightblue" points="205.39,-131.77 194.8,-131.64 203,-138.35 205.39,-131.77"/>
</g>
<!-- Node29&#45;&gt;Node6 -->
<g id="edge42" class="edge">
<title>Node29&#45;&gt;Node6</title>
<path fill="none" stroke="midnightblue" d="M911.15,-112.37C894.43,-93.97 855.06,-50.67 833.59,-27.05"/>
<polygon fill="midnightblue" stroke="midnightblue" points="836.13,-24.64 826.81,-19.59 830.95,-29.35 836.13,-24.64"/>
</g>
<!-- Node29&#45;&gt;Node8 -->
<g id="edge43" class="edge">
<title>Node29&#45;&gt;Node8</title>
<path fill="none" stroke="midnightblue" d="M878.44,-112.44C830.49,-102.33 751.2,-85.61 703.35,-75.51"/>
<polygon fill="midnightblue" stroke="midnightblue" points="703.86,-72.04 693.35,-73.4 702.42,-78.89 703.86,-72.04"/>
</g>
<!-- Node30&#45;&gt;Node6 -->
<g id="edge49" class="edge">
<title>Node30&#45;&gt;Node6</title>
<path fill="none" stroke="midnightblue" d="M875.74,-168.45C915.89,-160.93 965.5,-148.59 978,-132 1016.19,-81.33 918.63,-41.29 859.81,-22.56"/>
<polygon fill="midnightblue" stroke="midnightblue" points="860.62,-19.15 850.03,-19.53 858.54,-25.83 860.62,-19.15"/>
</g>
<!-- Node30&#45;&gt;Node8 -->
<g id="edge50" class="edge">
<title>Node30&#45;&gt;Node8</title>
<path fill="none" stroke="midnightblue" d="M824.17,-168.4C828.53,-154.9 834.53,-128.56 822,-112 807.69,-93.08 745.52,-79.83 703.3,-72.81"/>
<polygon fill="midnightblue" stroke="midnightblue" points="703.73,-69.34 693.3,-71.21 702.62,-76.25 703.73,-69.34"/>
</g>
<!-- Node31 -->
<g id="node31" class="node">
<title>Node31</title>
<g id="a_node31"><a xlink:href="itkRealTimeInterval_8h.html" target="_top" xlink:title=" ">
<polygon fill="white" stroke="black" points="691,-112.5 691,-131.5 813,-131.5 813,-112.5 691,-112.5"/>
<text text-anchor="middle" x="752" y="-119.5" font-family="Helvetica,sans-Serif" font-size="10.00">itkRealTimeInterval.h</text>
</a>
</g>
</g>
<!-- Node30&#45;&gt;Node31 -->
<g id="edge45" class="edge">
<title>Node30&#45;&gt;Node31</title>
<path fill="none" stroke="midnightblue" d="M809.91,-168.32C799.51,-160.18 783.74,-147.84 771.28,-138.09"/>
<polygon fill="midnightblue" stroke="midnightblue" points="773.32,-135.24 763.29,-131.83 769.01,-140.75 773.32,-135.24"/>
</g>
<!-- Node31&#45;&gt;Node6 -->
<g id="edge47" class="edge">
<title>Node31&#45;&gt;Node6</title>
<path fill="none" stroke="midnightblue" d="M757.26,-112.37C768.27,-94.3 793.92,-52.18 808.46,-28.31"/>
<polygon fill="midnightblue" stroke="midnightblue" points="811.55,-29.95 813.77,-19.59 805.58,-26.31 811.55,-29.95"/>
</g>
<!-- Node31&#45;&gt;Node8 -->
<g id="edge48" class="edge">
<title>Node31&#45;&gt;Node8</title>
<path fill="none" stroke="midnightblue" d="M737.7,-112.32C723.82,-103.9 702.51,-90.97 686.2,-81.07"/>
<polygon fill="midnightblue" stroke="midnightblue" points="687.63,-77.85 677.26,-75.65 684,-83.83 687.63,-77.85"/>
</g>
<!-- Node31&#45;&gt;Node13 -->
<g id="edge46" class="edge">
<title>Node31&#45;&gt;Node13</title>
<path fill="none" stroke="midnightblue" d="M690.65,-113.83C598.17,-103.02 424.83,-82.76 339.72,-72.81"/>
<polygon fill="midnightblue" stroke="midnightblue" points="339.88,-69.31 329.54,-71.62 339.07,-76.26 339.88,-69.31"/>
</g>
<!-- Node33 -->
<g id="node33" class="node">
<title>Node33</title>
<g id="a_node33"><a xlink:href="itkObjectFactoryBase_8h.html" target="_top" xlink:title=" ">
<polygon fill="white" stroke="black" points="164.5,-459.5 164.5,-478.5 293.5,-478.5 293.5,-459.5 164.5,-459.5"/>
<text text-anchor="middle" x="229" y="-466.5" font-family="Helvetica,sans-Serif" font-size="10.00">itkObjectFactoryBase.h</text>
</a>
</g>
</g>
<!-- Node32&#45;&gt;Node33 -->
<g id="edge52" class="edge">
<title>Node32&#45;&gt;Node33</title>
<path fill="none" stroke="midnightblue" d="M356.07,-515.44C330.78,-506.4 290.7,-492.06 262.32,-481.92"/>
<polygon fill="midnightblue" stroke="midnightblue" points="263.41,-478.59 252.81,-478.52 261.05,-485.18 263.41,-478.59"/>
</g>
<!-- Node33&#45;&gt;Node17 -->
<g id="edge55" class="edge">
<title>Node33&#45;&gt;Node17</title>
<path fill="none" stroke="midnightblue" d="M170.66,-459.47C114.49,-447.57 38,-419.99 38,-358 38,-358 38,-358 38,-177 38,-144.49 46.16,-107.35 51.78,-85.61"/>
<polygon fill="midnightblue" stroke="midnightblue" points="55.22,-86.32 54.44,-75.75 48.46,-84.5 55.22,-86.32"/>
</g>
<!-- Node33&#45;&gt;Node24 -->
<g id="edge60" class="edge">
<title>Node33&#45;&gt;Node24</title>
<path fill="none" stroke="midnightblue" d="M187.53,-459.5C167.41,-453.06 145.05,-441.95 133,-423 99.64,-370.51 133.43,-292.86 151.81,-258.26"/>
<polygon fill="midnightblue" stroke="midnightblue" points="154.96,-259.78 156.72,-249.34 148.83,-256.41 154.96,-259.78"/>
</g>
<!-- Node34 -->
<g id="node34" class="node">
<title>Node34</title>
<g id="a_node34"><a xlink:href="itkCreateObjectFunction_8h.html" target="_top" xlink:title=" ">
<polygon fill="white" stroke="black" points="326.5,-403.5 326.5,-422.5 469.5,-422.5 469.5,-403.5 326.5,-403.5"/>
<text text-anchor="middle" x="398" y="-410.5" font-family="Helvetica,sans-Serif" font-size="10.00">itkCreateObjectFunction.h</text>
</a>
</g>
</g>
<!-- Node33&#45;&gt;Node34 -->
<g id="edge53" class="edge">
<title>Node33&#45;&gt;Node34</title>
<path fill="none" stroke="midnightblue" d="M255.78,-459.44C284.33,-450.32 329.73,-435.81 361.54,-425.65"/>
<polygon fill="midnightblue" stroke="midnightblue" points="362.89,-428.89 371.35,-422.52 360.76,-422.23 362.89,-428.89"/>
</g>
<!-- Node35 -->
<g id="node35" class="node">
<title>Node35</title>
<g id="a_node35"><a xlink:href="itkCommonEnums_8h.html" target="_top" xlink:title=" ">
<polygon fill="white" stroke="black" points="192,-403.5 192,-422.5 308,-422.5 308,-403.5 192,-403.5"/>
<text text-anchor="middle" x="250" y="-410.5" font-family="Helvetica,sans-Serif" font-size="10.00">itkCommonEnums.h</text>
</a>
</g>
</g>
<!-- Node33&#45;&gt;Node35 -->
<g id="edge56" class="edge">
<title>Node33&#45;&gt;Node35</title>
<path fill="none" stroke="midnightblue" d="M232.47,-459.08C235.31,-451.77 239.43,-441.18 242.96,-432.1"/>
<polygon fill="midnightblue" stroke="midnightblue" points="246.23,-433.34 246.6,-422.75 239.71,-430.8 246.23,-433.34"/>
</g>
<!-- Node37 -->
<g id="node37" class="node">
<title>Node37</title>
<g id="a_node37"><a xlink:title=" ">
<polygon fill="white" stroke="#bfbfbf" points="142,-403.5 142,-422.5 174,-422.5 174,-403.5 142,-403.5"/>
<text text-anchor="middle" x="158" y="-410.5" font-family="Helvetica,sans-Serif" font-size="10.00">list</text>
</a>
</g>
</g>
<!-- Node33&#45;&gt;Node37 -->
<g id="edge59" class="edge">
<title>Node33&#45;&gt;Node37</title>
<path fill="none" stroke="midnightblue" d="M217.59,-459.32C206.89,-451.18 190.66,-438.84 177.84,-429.09"/>
<polygon fill="midnightblue" stroke="midnightblue" points="179.69,-426.1 169.61,-422.83 175.46,-431.67 179.69,-426.1"/>
</g>
<!-- Node34&#45;&gt;Node4 -->
<g id="edge54" class="edge">
<title>Node34&#45;&gt;Node4</title>
<path fill="none" stroke="midnightblue" d="M415.99,-403.32C434.04,-394.62 462.05,-381.12 482.8,-371.11"/>
<polygon fill="midnightblue" stroke="midnightblue" points="484.56,-374.15 492.05,-366.65 481.52,-367.84 484.56,-374.15"/>
</g>
<!-- Node35&#45;&gt;Node13 -->
<g id="edge57" class="edge">
<title>Node35&#45;&gt;Node13</title>
<path fill="none" stroke="midnightblue" d="M248.39,-403.43C243.09,-376.22 224.73,-289.71 194,-224 169.99,-172.66 98.89,-157.27 133,-112 139.73,-103.07 197.76,-88.06 241.32,-77.86"/>
<polygon fill="midnightblue" stroke="midnightblue" points="242.25,-81.23 251.21,-75.57 240.67,-74.41 242.25,-81.23"/>
</g>
<!-- Node36 -->
<g id="node36" class="node">
<title>Node36</title>
<g id="a_node36"><a xlink:title=" ">
<polygon fill="white" stroke="#bfbfbf" points="142.5,-347.5 142.5,-366.5 199.5,-366.5 199.5,-347.5 142.5,-347.5"/>
<text text-anchor="middle" x="171" y="-354.5" font-family="Helvetica,sans-Serif" font-size="10.00">ostream</text>
</a>
</g>
</g>
<!-- Node35&#45;&gt;Node36 -->
<g id="edge58" class="edge">
<title>Node35&#45;&gt;Node36</title>
<path fill="none" stroke="midnightblue" d="M237.31,-403.32C225.1,-394.98 206.42,-382.21 192,-372.35"/>
<polygon fill="midnightblue" stroke="midnightblue" points="193.89,-369.41 183.66,-366.65 189.94,-375.19 193.89,-369.41"/>
</g>
<!-- Node38&#45;&gt;Node6 -->
<g id="edge63" class="edge">
<title>Node38&#45;&gt;Node6</title>
<path fill="none" stroke="midnightblue" d="M1475.71,-347.41C1511.02,-331.85 1577,-295.42 1577,-240.5 1577,-240.5 1577,-240.5 1577,-121 1577,-48.38 1025.04,-19.6 863.13,-12.72"/>
<polygon fill="midnightblue" stroke="midnightblue" points="863.18,-9.22 853.04,-12.3 862.89,-16.21 863.18,-9.22"/>
</g>
<!-- Node39 -->
<g id="node39" class="node">
<title>Node39</title>
<g id="a_node39"><a xlink:title=" ">
<polygon fill="white" stroke="#bfbfbf" points="1467,-291.5 1467,-310.5 1511,-310.5 1511,-291.5 1467,-291.5"/>
<text text-anchor="middle" x="1489" y="-298.5" font-family="Helvetica,sans-Serif" font-size="10.00">limits</text>
</a>
</g>
</g>
<!-- Node38&#45;&gt;Node39 -->
<g id="edge64" class="edge">
<title>Node38&#45;&gt;Node39</title>
<path fill="none" stroke="midnightblue" d="M1459.78,-347.08C1464.67,-339.53 1471.83,-328.49 1477.83,-319.23"/>
<polygon fill="midnightblue" stroke="midnightblue" points="1480.83,-321.05 1483.33,-310.75 1474.95,-317.24 1480.83,-321.05"/>
</g>
<!-- Node40 -->
<g id="node40" class="node">
<title>Node40</title>
<g id="a_node40"><a xlink:title=" ">
<polygon fill="white" stroke="#bfbfbf" points="1389.5,-291.5 1389.5,-310.5 1448.5,-310.5 1448.5,-291.5 1389.5,-291.5"/>
<text text-anchor="middle" x="1419" y="-298.5" font-family="Helvetica,sans-Serif" font-size="10.00">complex</text>
</a>
</g>
</g>
<!-- Node38&#45;&gt;Node40 -->
<g id="edge65" class="edge">
<title>Node38&#45;&gt;Node40</title>
<path fill="none" stroke="midnightblue" d="M1448.22,-347.08C1443.33,-339.53 1436.17,-328.49 1430.17,-319.23"/>
<polygon fill="midnightblue" stroke="midnightblue" points="1433.05,-317.24 1424.67,-310.75 1427.17,-321.05 1433.05,-317.24"/>
</g>
<!-- Node41 -->
<g id="node41" class="node">
<title>Node41</title>
<g id="a_node41"><a xlink:href="itkFixedArray_8h.html" target="_top" xlink:title=" ">
<polygon fill="white" stroke="black" points="1282.5,-291.5 1282.5,-310.5 1371.5,-310.5 1371.5,-291.5 1282.5,-291.5"/>
<text text-anchor="middle" x="1327" y="-298.5" font-family="Helvetica,sans-Serif" font-size="10.00">itkFixedArray.h</text>
</a>
</g>
</g>
<!-- Node38&#45;&gt;Node41 -->
<g id="edge66" class="edge">
<title>Node38&#45;&gt;Node41</title>
<path fill="none" stroke="midnightblue" d="M1433.88,-347.44C1412.98,-338.56 1380.07,-324.56 1356.28,-314.45"/>
<polygon fill="midnightblue" stroke="midnightblue" points="1357.6,-311.21 1347.03,-310.52 1354.86,-317.65 1357.6,-311.21"/>
</g>
<!-- Node41&#45;&gt;Node6 -->
<g id="edge67" class="edge">
<title>Node41&#45;&gt;Node6</title>
<path fill="none" stroke="midnightblue" d="M1333.19,-291.44C1339.27,-282.68 1348.42,-268.47 1354,-255 1367.32,-222.83 1373,-213.82 1373,-179 1373,-179 1373,-179 1373,-121 1373,-17.29 994.78,-9.87 863.36,-10.42"/>
<polygon fill="midnightblue" stroke="midnightblue" points="863.22,-6.92 853.24,-10.48 863.26,-13.92 863.22,-6.92"/>
</g>
<!-- Node41&#45;&gt;Node23 -->
<g id="edge68" class="edge">
<title>Node41&#45;&gt;Node23</title>
<path fill="none" stroke="midnightblue" d="M1296.08,-291.43C1265.07,-282.72 1216.02,-268.6 1174,-255 1171.55,-254.21 1169.02,-253.37 1166.48,-252.51"/>
<polygon fill="midnightblue" stroke="midnightblue" points="1167.37,-249.11 1156.77,-249.15 1165.08,-255.73 1167.37,-249.11"/>
</g>
<!-- Node42 -->
<g id="node42" class="node">
<title>Node42</title>
<g id="a_node42"><a xlink:title=" ">
<polygon fill="white" stroke="#bfbfbf" points="1183,-230 1183,-249 1225,-249 1225,-230 1183,-230"/>
<text text-anchor="middle" x="1204" y="-237" font-family="Helvetica,sans-Serif" font-size="10.00">array</text>
</a>
</g>
</g>
<!-- Node41&#45;&gt;Node42 -->
<g id="edge69" class="edge">
<title>Node41&#45;&gt;Node42</title>
<path fill="none" stroke="midnightblue" d="M1309.38,-291.48C1288.83,-281.53 1254.64,-264.99 1230.79,-253.46"/>
<polygon fill="midnightblue" stroke="midnightblue" points="1232.12,-250.21 1221.59,-249.01 1229.07,-256.51 1232.12,-250.21"/>
</g>
<!-- Node43 -->
<g id="node43" class="node">
<title>Node43</title>
<g id="a_node43"><a xlink:title=" ">
<polygon fill="white" stroke="#bfbfbf" points="1243.5,-230 1243.5,-249 1344.5,-249 1344.5,-230 1243.5,-230"/>
<text text-anchor="middle" x="1294" y="-237" font-family="Helvetica,sans-Serif" font-size="10.00">itkFixedArray.hxx</text>
</a>
</g>
</g>
<!-- Node41&#45;&gt;Node43 -->
<g id="edge70" class="edge">
<title>Node41&#45;&gt;Node43</title>
<path fill="none" stroke="midnightblue" d="M1322.27,-291.48C1317.42,-282.73 1309.73,-268.87 1303.6,-257.81"/>
<polygon fill="midnightblue" stroke="midnightblue" points="1306.63,-256.06 1298.72,-249.01 1300.51,-259.45 1306.63,-256.06"/>
</g>
<!-- Node44 -->
<g id="node44" class="node">
<title>Node44</title>
<g id="a_node44"><a xlink:href="itkNumericTraitsFixedArrayPixel_8h.html" target="_top" xlink:title=" ">
<polygon fill="white" stroke="black" points="1400.5,-224.5 1400.5,-254.5 1549.5,-254.5 1549.5,-224.5 1400.5,-224.5"/>
<text text-anchor="start" x="1408.5" y="-242.5" font-family="Helvetica,sans-Serif" font-size="10.00">itkNumericTraitsFixedArray</text>
<text text-anchor="middle" x="1475" y="-231.5" font-family="Helvetica,sans-Serif" font-size="10.00">Pixel.h</text>
</a>
</g>
</g>
<!-- Node41&#45;&gt;Node44 -->
<g id="edge71" class="edge">
<title>Node41&#45;&gt;Node44</title>
<path fill="none" stroke="midnightblue" d="M1343.3,-291.48C1362.96,-282.81 1396.52,-269.15 1424.89,-258.14"/>
<polygon fill="midnightblue" stroke="midnightblue" points="1426.22,-261.38 1434.29,-254.52 1423.7,-254.85 1426.22,-261.38"/>
</g>
<!-- Node44&#45;&gt;Node38 -->
<g id="edge72" class="edge">
<title>Node44&#45;&gt;Node38</title>
<path fill="none" stroke="midnightblue" d="M1494.45,-254.67C1511.07,-268.62 1530.72,-290.72 1520,-311 1512.58,-325.05 1498.58,-335.53 1485.38,-342.83"/>
<polygon fill="midnightblue" stroke="midnightblue" points="1483.78,-339.72 1476.46,-347.38 1486.96,-345.96 1483.78,-339.72"/>
</g>
<!-- Node44&#45;&gt;Node41 -->
<g id="edge73" class="edge">
<title>Node44&#45;&gt;Node41</title>
<path fill="none" stroke="midnightblue" d="M1445.95,-254.52C1422.08,-264.65 1388.32,-278.18 1362.79,-287.85"/>
<polygon fill="midnightblue" stroke="midnightblue" points="1361.24,-284.69 1353.11,-291.48 1363.7,-291.25 1361.24,-284.69"/>
</g>
<!-- Node45&#45;&gt;Node11 -->
<g id="edge76" class="edge">
<title>Node45&#45;&gt;Node11</title>
<path fill="none" stroke="midnightblue" d="M1057.43,-571.24C1062.34,-552.71 1073,-508.12 1073,-470 1073,-470 1073,-470 1073,-177 1073,-143.25 1087.43,-106.03 1097.21,-84.69"/>
<polygon fill="midnightblue" stroke="midnightblue" points="1100.41,-86.11 1101.55,-75.58 1094.09,-83.1 1100.41,-86.11"/>
</g>
<!-- Node46 -->
<g id="node46" class="node">
<title>Node46</title>
<g id="a_node46"><a xlink:title=" ">
<polygon fill="white" stroke="#bfbfbf" points="1101.5,-515.5 1101.5,-534.5 1150.5,-534.5 1150.5,-515.5 1101.5,-515.5"/>
<text text-anchor="middle" x="1126" y="-522.5" font-family="Helvetica,sans-Serif" font-size="10.00">cstdlib</text>
</a>
</g>
</g>
<!-- Node45&#45;&gt;Node46 -->
<g id="edge75" class="edge">
<title>Node45&#45;&gt;Node46</title>
<path fill="none" stroke="midnightblue" d="M1066.41,-571.32C1077.11,-563.18 1093.34,-550.84 1106.16,-541.09"/>
<polygon fill="midnightblue" stroke="midnightblue" points="1108.54,-543.67 1114.39,-534.83 1104.31,-538.1 1108.54,-543.67"/>
</g>
<!-- Node49&#45;&gt;Node4 -->
<g id="edge83" class="edge">
<title>Node49&#45;&gt;Node4</title>
<path fill="none" stroke="midnightblue" d="M332.72,-571.1C323.04,-558.11 308.31,-533.48 319,-515 360.08,-444 423.27,-483.19 479,-423 491.46,-409.55 499.81,-390.18 504.68,-376.09"/>
<polygon fill="midnightblue" stroke="midnightblue" points="508.03,-377.12 507.73,-366.53 501.36,-374.99 508.03,-377.12"/>
</g>
<!-- Node49&#45;&gt;Node28 -->
<g id="edge85" class="edge">
<title>Node49&#45;&gt;Node28</title>
<path fill="none" stroke="midnightblue" d="M295.22,-580.62C219.9,-579.08 76,-563.84 76,-470 76,-470 76,-470 76,-412 76,-331.72 193.02,-310.02 258.28,-304.16"/>
<polygon fill="midnightblue" stroke="midnightblue" points="258.6,-307.65 268.28,-303.35 258.03,-300.67 258.6,-307.65"/>
</g>
<!-- Node49&#45;&gt;Node32 -->
<g id="edge84" class="edge">
<title>Node49&#45;&gt;Node32</title>
<path fill="none" stroke="midnightblue" d="M346.61,-571.08C352.26,-563.46 360.54,-552.26 367.45,-542.94"/>
<polygon fill="midnightblue" stroke="midnightblue" points="370.38,-544.87 373.52,-534.75 364.75,-540.7 370.38,-544.87"/>
</g>
</g>
</svg>
