<?xml version="1.0" encoding="UTF-8" standalone="no"?>
<!DOCTYPE svg PUBLIC "-//W3C//DTD SVG 1.1//EN"
 "http://www.w3.org/Graphics/SVG/1.1/DTD/svg11.dtd">
<!-- Generated by graphviz version 2.43.0 (0)
 -->
<!-- Title: itk::LevelSetBase&lt; TInput, VDimension, TOutput, TDomain &gt;::LevelSetDataType Pages: 1 -->
<svg width="1208pt" height="378pt"
 viewBox="0.00 0.00 1208.00 377.50" xmlns="http://www.w3.org/2000/svg" xmlns:xlink="http://www.w3.org/1999/xlink">
<g id="graph0" class="graph" transform="scale(1 1) rotate(0) translate(4 373.5)">
<title>itk::LevelSetBase&lt; TInput, VDimension, TOutput, TDomain &gt;::LevelSetDataType</title>
<polygon fill="white" stroke="transparent" points="-4,4 -4,-373.5 1204,-373.5 1204,4 -4,4"/>
<!-- Node1 -->
<g id="node1" class="node">
<title>Node1</title>
<g id="a_node1"><a xlink:title="Convenient data structure to cache computed characteristics.">
<polygon fill="#bfbfbf" stroke="black" points="1074,-199 1074,-251 1200,-251 1200,-199 1074,-199"/>
<text text-anchor="start" x="1082" y="-239" font-family="Helvetica,sans-Serif" font-size="10.00">itk::LevelSetBase&lt;</text>
<text text-anchor="start" x="1082" y="-228" font-family="Helvetica,sans-Serif" font-size="10.00"> TInput, VDimension,</text>
<text text-anchor="start" x="1082" y="-217" font-family="Helvetica,sans-Serif" font-size="10.00"> TOutput, TDomain &gt;::</text>
<text text-anchor="middle" x="1137" y="-206" font-family="Helvetica,sans-Serif" font-size="10.00">LevelSetDataType</text>
</a>
</g>
</g>
<!-- Node2 -->
<g id="node2" class="node">
<title>Node2</title>
<g id="a_node2"><a xlink:href="classitk_1_1LevelSetBase_1_1DataType.html" target="_top" xlink:title=" ">
<polygon fill="white" stroke="black" points="786,-317 786,-369 926,-369 926,-317 786,-317"/>
<text text-anchor="start" x="794" y="-357" font-family="Helvetica,sans-Serif" font-size="10.00">itk::LevelSetBase&lt;</text>
<text text-anchor="start" x="794" y="-346" font-family="Helvetica,sans-Serif" font-size="10.00"> TInput, VDimension,</text>
<text text-anchor="start" x="794" y="-335" font-family="Helvetica,sans-Serif" font-size="10.00"> TOutput, TDomain &gt;::</text>
<text text-anchor="middle" x="856" y="-324" font-family="Helvetica,sans-Serif" font-size="10.00">DataType&lt; OutputType &gt;</text>
</a>
</g>
</g>
<!-- Node2&#45;&gt;Node1 -->
<g id="edge1" class="edge">
<title>Node2&#45;&gt;Node1</title>
<path fill="none" stroke="#9a32cd" stroke-dasharray="5,2" d="M936.23,-329.31C973.85,-320.88 1018.64,-307.97 1056,-289 1075.35,-279.18 1094.42,-264.18 1109.09,-251.17"/>
<polygon fill="#9a32cd" stroke="#9a32cd" points="935.35,-325.92 926.32,-331.46 936.84,-332.76 935.35,-325.92"/>
<text text-anchor="middle" x="1010.5" y="-324" font-family="Helvetica,sans-Serif" font-size="10.00"> Value</text>
</g>
<!-- Node3 -->
<g id="node3" class="node">
<title>Node3</title>
<g id="a_node3"><a xlink:title="STL class.">
<polygon fill="white" stroke="#bfbfbf" points="283.5,-242.5 283.5,-261.5 348.5,-261.5 348.5,-242.5 283.5,-242.5"/>
<text text-anchor="middle" x="316" y="-249.5" font-family="Helvetica,sans-Serif" font-size="10.00">std::string</text>
</a>
</g>
</g>
<!-- Node3&#45;&gt;Node2 -->
<g id="edge2" class="edge">
<title>Node3&#45;&gt;Node2</title>
<path fill="none" stroke="#9a32cd" stroke-dasharray="5,2" d="M350.72,-265.08C365.16,-270.41 382.28,-276.39 398,-281 496.91,-309.98 521.86,-319.16 624,-333 678.1,-340.33 739.91,-342.7 785.97,-343.3"/>
<polygon fill="#9a32cd" stroke="#9a32cd" points="351.8,-261.74 341.21,-261.51 349.35,-268.3 351.8,-261.74"/>
<text text-anchor="middle" x="535" y="-333" font-family="Helvetica,sans-Serif" font-size="10.00"> m_Name</text>
</g>
<!-- Node5 -->
<g id="node5" class="node">
<title>Node5</title>
<g id="a_node5"><a xlink:href="classitk_1_1LevelSetBase_1_1DataType.html" target="_top" xlink:title="Internal class used for one computed characteristic.">
<polygon fill="white" stroke="black" points="472,-163 472,-215 598,-215 598,-163 472,-163"/>
<text text-anchor="start" x="480" y="-203" font-family="Helvetica,sans-Serif" font-size="10.00">itk::LevelSetBase&lt;</text>
<text text-anchor="start" x="480" y="-192" font-family="Helvetica,sans-Serif" font-size="10.00"> TInput, VDimension,</text>
<text text-anchor="start" x="480" y="-181" font-family="Helvetica,sans-Serif" font-size="10.00"> TOutput, TDomain &gt;::</text>
<text text-anchor="middle" x="535" y="-170" font-family="Helvetica,sans-Serif" font-size="10.00">DataType&lt; T &gt;</text>
</a>
</g>
</g>
<!-- Node3&#45;&gt;Node5 -->
<g id="edge5" class="edge">
<title>Node3&#45;&gt;Node5</title>
<path fill="none" stroke="#9a32cd" stroke-dasharray="5,2" d="M356.97,-239.43C370.03,-235.39 384.61,-230.94 398,-227 422.11,-219.91 448.71,-212.41 471.95,-205.96"/>
<polygon fill="#9a32cd" stroke="#9a32cd" points="355.84,-236.12 347.33,-242.43 357.92,-242.8 355.84,-236.12"/>
<text text-anchor="middle" x="422" y="-230" font-family="Helvetica,sans-Serif" font-size="10.00"> m_Name</text>
</g>
<!-- Node7 -->
<g id="node7" class="node">
<title>Node7</title>
<g id="a_node7"><a xlink:href="classitk_1_1LevelSetBase_1_1DataType.html" target="_top" xlink:title=" ">
<polygon fill="white" stroke="black" points="765,-81 765,-133 947,-133 947,-81 765,-81"/>
<text text-anchor="start" x="773" y="-121" font-family="Helvetica,sans-Serif" font-size="10.00">itk::LevelSetBase&lt;</text>
<text text-anchor="start" x="773" y="-110" font-family="Helvetica,sans-Serif" font-size="10.00"> TInput, VDimension,</text>
<text text-anchor="start" x="773" y="-99" font-family="Helvetica,sans-Serif" font-size="10.00"> TOutput, TDomain &gt;::</text>
<text text-anchor="middle" x="856" y="-88" font-family="Helvetica,sans-Serif" font-size="10.00">DataType&lt; itk::CovariantVector &gt;</text>
</a>
</g>
</g>
<!-- Node3&#45;&gt;Node7 -->
<g id="edge12" class="edge">
<title>Node3&#45;&gt;Node7</title>
<path fill="none" stroke="#9a32cd" stroke-dasharray="5,2" d="M342.4,-237.02C354.5,-229.21 368.76,-219.01 380,-208 402.61,-185.86 435.78,-107.33 464,-93 514.64,-67.28 666,-81.14 764.86,-93.84"/>
<polygon fill="#9a32cd" stroke="#9a32cd" points="340.27,-234.22 333.64,-242.49 343.98,-240.15 340.27,-234.22"/>
<text text-anchor="middle" x="535" y="-96" font-family="Helvetica,sans-Serif" font-size="10.00"> m_Name</text>
</g>
<!-- Node12 -->
<g id="node12" class="node">
<title>Node12</title>
<g id="a_node12"><a xlink:href="classitk_1_1LevelSetBase_1_1DataType.html" target="_top" xlink:title=" ">
<polygon fill="white" stroke="black" points="775,-246 775,-298 937,-298 937,-246 775,-246"/>
<text text-anchor="start" x="783" y="-286" font-family="Helvetica,sans-Serif" font-size="10.00">itk::LevelSetBase&lt;</text>
<text text-anchor="start" x="783" y="-275" font-family="Helvetica,sans-Serif" font-size="10.00"> TInput, VDimension,</text>
<text text-anchor="start" x="783" y="-264" font-family="Helvetica,sans-Serif" font-size="10.00"> TOutput, TDomain &gt;::</text>
<text text-anchor="middle" x="856" y="-253" font-family="Helvetica,sans-Serif" font-size="10.00">DataType&lt; OutputRealType &gt;</text>
</a>
</g>
</g>
<!-- Node3&#45;&gt;Node12 -->
<g id="edge15" class="edge">
<title>Node3&#45;&gt;Node12</title>
<path fill="none" stroke="#9a32cd" stroke-dasharray="5,2" d="M358.94,-260.53C371.45,-262.73 385.23,-264.81 398,-266 529.54,-278.29 683.29,-277.13 774.72,-274.82"/>
<polygon fill="#9a32cd" stroke="#9a32cd" points="359.24,-257.03 348.78,-258.67 357.99,-263.91 359.24,-257.03"/>
<text text-anchor="middle" x="535" y="-278" font-family="Helvetica,sans-Serif" font-size="10.00"> m_Name</text>
</g>
<!-- Node13 -->
<g id="node13" class="node">
<title>Node13</title>
<g id="a_node13"><a xlink:href="classitk_1_1LevelSetBase_1_1DataType.html" target="_top" xlink:title=" ">
<polygon fill="white" stroke="black" points="788.5,-174 788.5,-226 923.5,-226 923.5,-174 788.5,-174"/>
<text text-anchor="start" x="796.5" y="-214" font-family="Helvetica,sans-Serif" font-size="10.00">itk::LevelSetBase&lt;</text>
<text text-anchor="start" x="796.5" y="-203" font-family="Helvetica,sans-Serif" font-size="10.00"> TInput, VDimension,</text>
<text text-anchor="start" x="796.5" y="-192" font-family="Helvetica,sans-Serif" font-size="10.00"> TOutput, TDomain &gt;::</text>
<text text-anchor="middle" x="856" y="-181" font-family="Helvetica,sans-Serif" font-size="10.00">DataType&lt; itk::Matrix &gt;</text>
</a>
</g>
</g>
<!-- Node3&#45;&gt;Node13 -->
<g id="edge19" class="edge">
<title>Node3&#45;&gt;Node13</title>
<path fill="none" stroke="#9a32cd" stroke-dasharray="5,2" d="M358.8,-248.36C435.69,-241.61 604.7,-226.52 747,-212 760.42,-210.63 774.77,-209.09 788.48,-207.58"/>
<polygon fill="#9a32cd" stroke="#9a32cd" points="358.23,-244.9 348.58,-249.26 358.85,-251.87 358.23,-244.9"/>
<text text-anchor="middle" x="535" y="-242" font-family="Helvetica,sans-Serif" font-size="10.00"> m_Name</text>
</g>
<!-- Node4 -->
<g id="node4" class="node">
<title>Node4</title>
<g id="a_node4"><a xlink:title="STL class.">
<polygon fill="white" stroke="#bfbfbf" points="15,-237 15,-267 119,-267 119,-237 15,-237"/>
<text text-anchor="start" x="23" y="-255" font-family="Helvetica,sans-Serif" font-size="10.00">std::basic_string&lt;</text>
<text text-anchor="middle" x="67" y="-244" font-family="Helvetica,sans-Serif" font-size="10.00"> char &gt;</text>
</a>
</g>
</g>
<!-- Node4&#45;&gt;Node3 -->
<g id="edge3" class="edge">
<title>Node4&#45;&gt;Node3</title>
<path fill="none" stroke="midnightblue" d="M129.33,-252C178.24,-252 244.74,-252 283.45,-252"/>
<polygon fill="midnightblue" stroke="midnightblue" points="129.18,-248.5 119.18,-252 129.18,-255.5 129.18,-248.5"/>
</g>
<!-- Node5&#45;&gt;Node2 -->
<g id="edge4" class="edge">
<title>Node5&#45;&gt;Node2</title>
<path fill="none" stroke="orange" stroke-dasharray="5,2" d="M595.65,-221.07C599.3,-223.89 602.79,-226.87 606,-230 616.86,-240.59 612.22,-249.44 624,-259 670.87,-297.06 736.5,-318.71 785.84,-330.46"/>
<polygon fill="orange" stroke="orange" points="597.59,-218.15 587.44,-215.14 593.49,-223.83 597.59,-218.15"/>
<text text-anchor="middle" x="685.5" y="-321" font-family="Helvetica,sans-Serif" font-size="10.00"> &lt; OutputType &gt;</text>
</g>
<!-- Node5&#45;&gt;Node7 -->
<g id="edge13" class="edge">
<title>Node5&#45;&gt;Node7</title>
<path fill="none" stroke="orange" stroke-dasharray="5,2" d="M608.18,-175.26C649.16,-166.96 701.24,-155.57 747,-143 757.86,-140.01 769.24,-136.57 780.37,-133.03"/>
<polygon fill="orange" stroke="orange" points="607.4,-171.84 598.29,-177.25 608.78,-178.71 607.4,-171.84"/>
<text text-anchor="middle" x="685.5" y="-175" font-family="Helvetica,sans-Serif" font-size="10.00"> &lt; itk::CovariantVector &gt;</text>
</g>
<!-- Node5&#45;&gt;Node12 -->
<g id="edge16" class="edge">
<title>Node5&#45;&gt;Node12</title>
<path fill="none" stroke="orange" stroke-dasharray="5,2" d="M607.86,-207.79C613.32,-209.22 618.75,-210.63 624,-212 674.12,-225.06 730.37,-239.67 774.81,-251.2"/>
<polygon fill="orange" stroke="orange" points="608.58,-204.36 598.02,-205.22 606.81,-211.13 608.58,-204.36"/>
<text text-anchor="middle" x="685.5" y="-247" font-family="Helvetica,sans-Serif" font-size="10.00"> &lt; OutputRealType &gt;</text>
</g>
<!-- Node5&#45;&gt;Node13 -->
<g id="edge20" class="edge">
<title>Node5&#45;&gt;Node13</title>
<path fill="none" stroke="orange" stroke-dasharray="5,2" d="M608.47,-191.5C662.56,-193.36 735.89,-195.89 788.49,-197.71"/>
<polygon fill="orange" stroke="orange" points="608.38,-187.99 598.26,-191.15 608.14,-194.99 608.38,-187.99"/>
<text text-anchor="middle" x="685.5" y="-200" font-family="Helvetica,sans-Serif" font-size="10.00"> &lt; itk::Matrix &gt;</text>
</g>
<!-- Node6 -->
<g id="node6" class="node">
<title>Node6</title>
<g id="a_node6"><a xlink:title=" ">
<polygon fill="white" stroke="#bfbfbf" points="301.5,-179.5 301.5,-198.5 330.5,-198.5 330.5,-179.5 301.5,-179.5"/>
<text text-anchor="middle" x="316" y="-186.5" font-family="Helvetica,sans-Serif" font-size="10.00">T</text>
</a>
</g>
</g>
<!-- Node6&#45;&gt;Node5 -->
<g id="edge6" class="edge">
<title>Node6&#45;&gt;Node5</title>
<path fill="none" stroke="#9a32cd" stroke-dasharray="5,2" d="M340.9,-189C372.12,-189 427.96,-189 471.58,-189"/>
<polygon fill="#9a32cd" stroke="#9a32cd" points="340.57,-185.5 330.57,-189 340.57,-192.5 340.57,-185.5"/>
<text text-anchor="middle" x="422" y="-192" font-family="Helvetica,sans-Serif" font-size="10.00"> m_Value</text>
</g>
<!-- Node7&#45;&gt;Node1 -->
<g id="edge7" class="edge">
<title>Node7&#45;&gt;Node1</title>
<path fill="none" stroke="#9a32cd" stroke-dasharray="5,2" d="M957.36,-135.54C989.52,-146.06 1024.86,-159.1 1056,-174 1070.71,-181.04 1086.01,-190.26 1099.24,-198.92"/>
<polygon fill="#9a32cd" stroke="#9a32cd" points="958.08,-132.09 947.49,-132.35 955.93,-138.75 958.08,-132.09"/>
<text text-anchor="middle" x="1010.5" y="-199" font-family="Helvetica,sans-Serif" font-size="10.00"> Gradient</text>
<text text-anchor="middle" x="1010.5" y="-188" font-family="Helvetica,sans-Serif" font-size="10.00">ForwardGradient</text>
<text text-anchor="middle" x="1010.5" y="-177" font-family="Helvetica,sans-Serif" font-size="10.00">BackwardGradient</text>
</g>
<!-- Node8 -->
<g id="node8" class="node">
<title>Node8</title>
<g id="a_node8"><a xlink:href="classitk_1_1CovariantVector.html" target="_top" xlink:title="A templated class holding a n&#45;Dimensional covariant vector.">
<polygon fill="white" stroke="black" points="464,-17 464,-47 606,-47 606,-17 464,-17"/>
<text text-anchor="start" x="472" y="-35" font-family="Helvetica,sans-Serif" font-size="10.00">itk::CovariantVector</text>
<text text-anchor="middle" x="535" y="-24" font-family="Helvetica,sans-Serif" font-size="10.00">&lt; T, NVectorDimension &gt;</text>
</a>
</g>
</g>
<!-- Node8&#45;&gt;Node7 -->
<g id="edge8" class="edge">
<title>Node8&#45;&gt;Node7</title>
<path fill="none" stroke="#9a32cd" stroke-dasharray="5,2" d="M616.58,-36.78C656.38,-40.53 704.79,-47.19 747,-59 766.36,-64.42 786.73,-72.72 804.49,-80.91"/>
<polygon fill="#9a32cd" stroke="#9a32cd" points="616.66,-33.27 606.39,-35.87 616.04,-40.25 616.66,-33.27"/>
<text text-anchor="middle" x="685.5" y="-62" font-family="Helvetica,sans-Serif" font-size="10.00"> m_Value</text>
</g>
<!-- Node9 -->
<g id="node9" class="node">
<title>Node9</title>
<g id="a_node9"><a xlink:href="classitk_1_1FixedArray.html" target="_top" xlink:title=" ">
<polygon fill="white" stroke="black" points="252,-22.5 252,-41.5 380,-41.5 380,-22.5 252,-22.5"/>
<text text-anchor="middle" x="316" y="-29.5" font-family="Helvetica,sans-Serif" font-size="10.00">itk::FixedArray&lt; T, 3 &gt;</text>
</a>
</g>
</g>
<!-- Node9&#45;&gt;Node8 -->
<g id="edge9" class="edge">
<title>Node9&#45;&gt;Node8</title>
<path fill="none" stroke="midnightblue" d="M390.1,-32C413.93,-32 440.33,-32 463.93,-32"/>
<polygon fill="midnightblue" stroke="midnightblue" points="390.06,-28.5 380.06,-32 390.06,-35.5 390.06,-28.5"/>
</g>
<!-- Node10 -->
<g id="node10" class="node">
<title>Node10</title>
<g id="a_node10"><a xlink:title=" ">
<polygon fill="white" stroke="#bfbfbf" points="39,-0.5 39,-19.5 95,-19.5 95,-0.5 39,-0.5"/>
<text text-anchor="middle" x="67" y="-7.5" font-family="Helvetica,sans-Serif" font-size="10.00">VLength</text>
</a>
</g>
</g>
<!-- Node10&#45;&gt;Node9 -->
<g id="edge10" class="edge">
<title>Node10&#45;&gt;Node9</title>
<path fill="none" stroke="#9a32cd" stroke-dasharray="5,2" d="M105.38,-11.74C139.06,-13.48 189.92,-16.55 234,-21 239.79,-21.58 245.8,-22.26 251.82,-22.99"/>
<polygon fill="#9a32cd" stroke="#9a32cd" points="105.24,-8.23 95.07,-11.22 104.89,-15.22 105.24,-8.23"/>
<text text-anchor="middle" x="193" y="-24" font-family="Helvetica,sans-Serif" font-size="10.00"> m_InternalArray</text>
</g>
<!-- Node11 -->
<g id="node11" class="node">
<title>Node11</title>
<g id="a_node11"><a xlink:href="classitk_1_1FixedArray.html" target="_top" xlink:title="Simulate a standard C array with copy semantics.">
<polygon fill="white" stroke="black" points="0,-39 0,-69 134,-69 134,-39 0,-39"/>
<text text-anchor="start" x="8" y="-57" font-family="Helvetica,sans-Serif" font-size="10.00">itk::FixedArray&lt; TValue,</text>
<text text-anchor="middle" x="67" y="-46" font-family="Helvetica,sans-Serif" font-size="10.00"> VLength &gt;</text>
</a>
</g>
</g>
<!-- Node11&#45;&gt;Node9 -->
<g id="edge11" class="edge">
<title>Node11&#45;&gt;Node9</title>
<path fill="none" stroke="orange" stroke-dasharray="5,2" d="M144.21,-47.21C178.64,-44.15 218.86,-40.56 251.61,-37.65"/>
<polygon fill="orange" stroke="orange" points="143.84,-43.73 134.19,-48.1 144.46,-50.7 143.84,-43.73"/>
<text text-anchor="middle" x="193" y="-50" font-family="Helvetica,sans-Serif" font-size="10.00"> &lt; T, 3 &gt;</text>
</g>
<!-- Node12&#45;&gt;Node1 -->
<g id="edge14" class="edge">
<title>Node12&#45;&gt;Node1</title>
<path fill="none" stroke="#9a32cd" stroke-dasharray="5,2" d="M947.41,-256.77C988.77,-249.8 1036.73,-241.72 1073.93,-235.46"/>
<polygon fill="#9a32cd" stroke="#9a32cd" points="946.6,-253.36 937.32,-258.47 947.77,-260.26 946.6,-253.36"/>
<text text-anchor="middle" x="1010.5" y="-277" font-family="Helvetica,sans-Serif" font-size="10.00"> MeanCurvature</text>
<text text-anchor="middle" x="1010.5" y="-266" font-family="Helvetica,sans-Serif" font-size="10.00">GradientNorm</text>
<text text-anchor="middle" x="1010.5" y="-255" font-family="Helvetica,sans-Serif" font-size="10.00">Laplacian</text>
</g>
<!-- Node13&#45;&gt;Node1 -->
<g id="edge17" class="edge">
<title>Node13&#45;&gt;Node1</title>
<path fill="none" stroke="#9a32cd" stroke-dasharray="5,2" d="M933.9,-206.89C977.84,-210.83 1032.25,-215.7 1073.54,-219.4"/>
<polygon fill="#9a32cd" stroke="#9a32cd" points="934.1,-203.39 923.83,-205.99 933.48,-210.37 934.1,-203.39"/>
<text text-anchor="middle" x="1010.5" y="-221" font-family="Helvetica,sans-Serif" font-size="10.00"> Hessian</text>
</g>
<!-- Node14 -->
<g id="node14" class="node">
<title>Node14</title>
<g id="a_node14"><a xlink:href="classitk_1_1Matrix.html" target="_top" xlink:title="A templated class holding a M x N size Matrix.">
<polygon fill="white" stroke="black" points="471.5,-114 471.5,-144 598.5,-144 598.5,-114 471.5,-114"/>
<text text-anchor="start" x="479.5" y="-132" font-family="Helvetica,sans-Serif" font-size="10.00">itk::Matrix&lt; T, NRows,</text>
<text text-anchor="middle" x="535" y="-121" font-family="Helvetica,sans-Serif" font-size="10.00"> NColumns &gt;</text>
</a>
</g>
</g>
<!-- Node14&#45;&gt;Node13 -->
<g id="edge18" class="edge">
<title>Node14&#45;&gt;Node13</title>
<path fill="none" stroke="#9a32cd" stroke-dasharray="5,2" d="M608.73,-120.45C650.09,-117.94 702.38,-118.78 747,-132 750.89,-133.15 785.7,-155.26 814.76,-173.95"/>
<polygon fill="#9a32cd" stroke="#9a32cd" points="608.47,-116.96 598.73,-121.13 608.95,-123.94 608.47,-116.96"/>
<text text-anchor="middle" x="685.5" y="-135" font-family="Helvetica,sans-Serif" font-size="10.00"> m_Value</text>
</g>
</g>
</svg>
