<?xml version="1.0" encoding="UTF-8" standalone="no"?>
<!DOCTYPE svg PUBLIC "-//W3C//DTD SVG 1.1//EN"
 "http://www.w3.org/Graphics/SVG/1.1/DTD/svg11.dtd">
<!-- Generated by graphviz version 2.43.0 (0)
 -->
<!-- Title: itk::MetaDataObjectDetail::has_Print&lt; T, std::void_t&lt; decltype(std::declval&lt; T &gt;().Print(std::declval&lt; std::ostream &amp; &gt;()))&gt; &gt; Pages: 1 -->
<svg width="154pt" height="128pt"
 viewBox="0.00 0.00 154.00 128.00" xmlns="http://www.w3.org/2000/svg" xmlns:xlink="http://www.w3.org/1999/xlink">
<g id="graph0" class="graph" transform="scale(1 1) rotate(0) translate(4 124)">
<title>itk::MetaDataObjectDetail::has_Print&lt; T, std::void_t&lt; decltype(std::declval&lt; T &gt;().Print(std::declval&lt; std::ostream &amp; &gt;()))&gt; &gt;</title>
<polygon fill="white" stroke="transparent" points="-4,4 -4,-124 150,-124 150,4 -4,4"/>
<!-- Node1 -->
<g id="node1" class="node">
<title>Node1</title>
<g id="a_node1"><a xlink:title=" ">
<polygon fill="#bfbfbf" stroke="black" points="0,-0.5 0,-63.5 146,-63.5 146,-0.5 0,-0.5"/>
<text text-anchor="start" x="8" y="-51.5" font-family="Helvetica,sans-Serif" font-size="10.00">itk::MetaDataObjectDetail</text>
<text text-anchor="start" x="8" y="-40.5" font-family="Helvetica,sans-Serif" font-size="10.00">::has_Print&lt; T, std::void</text>
<text text-anchor="start" x="8" y="-29.5" font-family="Helvetica,sans-Serif" font-size="10.00">_t&lt; decltype(std::declval</text>
<text text-anchor="start" x="8" y="-18.5" font-family="Helvetica,sans-Serif" font-size="10.00">&lt; T &gt;().Print(std::declval</text>
<text text-anchor="middle" x="73" y="-7.5" font-family="Helvetica,sans-Serif" font-size="10.00">&lt; std::ostream &amp; &gt;()))&gt; &gt;</text>
</a>
</g>
</g>
<!-- Node2 -->
<g id="node2" class="node">
<title>Node2</title>
<g id="a_node2"><a xlink:title=" ">
<polygon fill="white" stroke="black" points="31,-100.5 31,-119.5 115,-119.5 115,-100.5 31,-100.5"/>
<text text-anchor="middle" x="73" y="-107.5" font-family="Helvetica,sans-Serif" font-size="10.00">std::true_type</text>
</a>
</g>
</g>
<!-- Node2&#45;&gt;Node1 -->
<g id="edge1" class="edge">
<title>Node2&#45;&gt;Node1</title>
<path fill="none" stroke="midnightblue" d="M73,-90.19C73,-82.16 73,-72.59 73,-63.59"/>
<polygon fill="midnightblue" stroke="midnightblue" points="69.5,-90.28 73,-100.28 76.5,-90.28 69.5,-90.28"/>
</g>
</g>
</svg>
