<?xml version="1.0" encoding="UTF-8" standalone="no"?>
<!DOCTYPE svg PUBLIC "-//W3C//DTD SVG 1.1//EN"
 "http://www.w3.org/Graphics/SVG/1.1/DTD/svg11.dtd">
<!-- Generated by graphviz version 2.43.0 (0)
 -->
<!-- Title: itk::MattesMutualInformationImageToImageMetric&lt; TFixedImage, TMovingImage &gt;::MMIMetricPerThreadStruct Pages: 1 -->
<svg width="325pt" height="139pt"
 viewBox="0.00 0.00 324.50 139.00" xmlns="http://www.w3.org/2000/svg" xmlns:xlink="http://www.w3.org/1999/xlink">
<g id="graph0" class="graph" transform="scale(1 1) rotate(0) translate(4 135)">
<title>itk::MattesMutualInformationImageToImageMetric&lt; TFixedImage, TMovingImage &gt;::MMIMetricPerThreadStruct</title>
<polygon fill="white" stroke="transparent" points="-4,4 -4,-135 320.5,-135 320.5,4 -4,4"/>
<!-- Node1 -->
<g id="node1" class="node">
<title>Node1</title>
<g id="a_node1"><a xlink:title=" ">
<polygon fill="#bfbfbf" stroke="black" points="10,-0.5 10,-41.5 249,-41.5 249,-0.5 10,-0.5"/>
<text text-anchor="start" x="18" y="-29.5" font-family="Helvetica,sans-Serif" font-size="10.00">itk::MattesMutualInformation</text>
<text text-anchor="start" x="18" y="-18.5" font-family="Helvetica,sans-Serif" font-size="10.00">ImageToImageMetric&lt; TFixedImage,</text>
<text text-anchor="middle" x="129.5" y="-7.5" font-family="Helvetica,sans-Serif" font-size="10.00"> TMovingImage &gt;::MMIMetricPerThreadStruct</text>
</a>
</g>
</g>
<!-- Node2 -->
<g id="node2" class="node">
<title>Node2</title>
<g id="a_node2"><a xlink:href="classitk_1_1SmartPointer.html" target="_top" xlink:title="Implements transparent reference counting.">
<polygon fill="white" stroke="black" points="0,-100.5 0,-130.5 107,-130.5 107,-100.5 0,-100.5"/>
<text text-anchor="start" x="8" y="-118.5" font-family="Helvetica,sans-Serif" font-size="10.00">itk::SmartPointer&lt;</text>
<text text-anchor="middle" x="53.5" y="-107.5" font-family="Helvetica,sans-Serif" font-size="10.00"> TObjectType &gt;</text>
</a>
</g>
</g>
<!-- Node2&#45;&gt;Node1 -->
<g id="edge1" class="edge">
<title>Node2&#45;&gt;Node1</title>
<path fill="none" stroke="#9a32cd" stroke-dasharray="5,2" d="M64.99,-91.17C70.51,-81.09 77.62,-69.45 85.5,-60 90.93,-53.49 97.53,-47.16 103.95,-41.59"/>
<polygon fill="#9a32cd" stroke="#9a32cd" points="61.78,-89.76 60.23,-100.25 67.98,-93.02 61.78,-89.76"/>
<text text-anchor="middle" x="134.5" y="-74" font-family="Helvetica,sans-Serif" font-size="10.00"> JointPDF</text>
<text text-anchor="middle" x="134.5" y="-63" font-family="Helvetica,sans-Serif" font-size="10.00">JointPDFDerivatives</text>
</g>
<!-- Node3 -->
<g id="node3" class="node">
<title>Node3</title>
<g id="a_node3"><a xlink:title=" ">
<polygon fill="white" stroke="black" points="125.5,-106 125.5,-125 285.5,-125 285.5,-106 125.5,-106"/>
<text text-anchor="middle" x="205.5" y="-113" font-family="Helvetica,sans-Serif" font-size="10.00">std::vector&lt; PDFValueType &gt;</text>
</a>
</g>
</g>
<!-- Node3&#45;&gt;Node1 -->
<g id="edge2" class="edge">
<title>Node3&#45;&gt;Node1</title>
<path fill="none" stroke="#9a32cd" stroke-dasharray="5,2" d="M201.01,-96.3C197.57,-85.01 191.96,-70.66 183.5,-60 178.01,-53.08 170.94,-46.89 163.74,-41.61"/>
<polygon fill="#9a32cd" stroke="#9a32cd" points="197.65,-97.26 203.67,-105.98 204.4,-95.41 197.65,-97.26"/>
<text text-anchor="middle" x="255.5" y="-68.5" font-family="Helvetica,sans-Serif" font-size="10.00"> FixedImageMarginalPDF</text>
</g>
</g>
</svg>
